<?xml version="1.0" encoding="UTF-8"?>
<svg height="769.987" width="530.436" xmlns="http://www.w3.org/2000/svg">
 <g id="page" xmlns:svgx="http://www.xml-cml.org/schema/svgx">
  <g begin="text">
   <text y="62.979" x="76.535,82.736,86.274,90.706,94.245,100.445,103.984,106.638,109.738,112.839,115.055,118.593,120.809" svgx:width="0.78,0.44,0.56,0.44,0.78,0.44,0.33,0.39,0.39,0.28,0.44,0.28,0.39" style="fill:rgb(0,0,0);font-family:URWPalladioL-Ital;font-size:7.97px;stroke:none;">Nanomaterials</text>
   <text y="62.979" x="125.901,129.886,133.871,137.856" svgx:width="0.5,0.5,0.5,0.5" style="fill:rgb(0,0,0);font-family:URWPalladioL-Bold;font-size:7.97px;stroke:none;">2019</text>
   <text y="62.979" x="141.842" svgx:width="0.25" style="fill:rgb(0,0,0);font-family:URWPalladioL-Roma;font-size:7.97px;stroke:none;">,</text>
   <text y="62.979" x="145.827" svgx:width="0.5" style="fill:rgb(0,0,0);font-family:URWPalladioL-Ital;font-size:7.97px;stroke:none;">9</text>
   <text y="62.979" x="149.812,151.80450000000002,153.797,157.782,161.767,165.752,169.73700000000002,491.809,495.794,499.779,501.772,506.123,508.7531,510.77,514.755" svgx:width="0.25,0.55,0.5,0.5,0.5,0.5,0.55,0.5,0.5,0.55,0.55,0.33,0.55,0.5,0.5" style="fill:rgb(0,0,0);font-family:URWPalladioL-Roma;font-size:7.97px;stroke:none;">, 1617 13 of 15</text>
   <text y="97.848" x="76.535,81.947,85.2338,87.746,90.978,96.747,101.5278,103.993,112.746,117.703,122.818,125.702,134.455,140.433,151.684,155.887,159.118,162.856,167.604,171.807,176.01,178.5,180.986,184.218,189.987,194.7678,197.223" svgx:width="0.55,0.33,0.55,0.33,0.58,0.48,0.55,0.88,0.5,0.52,0.29,0.88,0.6,0.88,0.42,0.33,0.4,0.48,0.42,0.42,0.25,0.55,0.33,0.58,0.48,0.55,0.48" style="fill:rgb(0,0,0);font-family:URWPalladioL-Roma;font-size:9.96px;stroke:none;">of the maximumstress, the e</text>
   <text y="97.848" x="201.975" svgx:width="0.61" style="fill:rgb(0,0,0);font-family:Rpxr;font-size:9.96px;stroke:none;">ﬀ</text>
   <text y="97.848" x="208.002,212.75,217.152,220.383,224.5662,227.084,235.351,238.236,241.121,244.0094,246.503,251.985,256.7658,259.231,263.434,266.319,269.204,274.715,280.484,283.716,286.206,288.692,293.648,299.418,305.4936,307.963,311.194,316.963,319.848,324.0312,326.549,330.95,336.363,342.34,345.225,351.30060000000003,353.779,359.261,364.0418,366.507,369.739,375.508,380.2888,382.755,386.492,391.24,396.196,400.399,405.812,411.5888,414.079,417.311,423.08,428.036,431.32280000000003,433.766,436.997,442.767,447.5478,450.003,454.959,460.56,465.308,469.224,474.18,479.692,484.4728,486.938,490.239,494.154,497.039,501.44,504.672,507.557,512.969" svgx:width="0.48,0.44,0.33,0.42,0.55,0.83,0.29,0.29,0.29,0.55,0.55,0.48,0.55,0.42,0.29,0.29,0.56,0.58,0.33,0.25,0.55,0.5,0.58,0.61,0.55,0.33,0.58,0.29,0.42,0.55,0.44,0.55,0.6,0.29,0.61,0.55,0.55,0.48,0.55,0.33,0.58,0.48,0.55,0.4,0.48,0.5,0.42,0.55,0.58,0.55,0.33,0.58,0.5,0.33,0.55,0.33,0.58,0.48,0.55,0.5,0.56,0.48,0.4,0.5,0.56,0.48,0.55,0.33,0.4,0.29,0.44,0.33,0.29,0.55,0.58" style="fill:rgb(0,0,0);font-family:URWPalladioL-Roma;font-size:9.96px;stroke:none;">ects will be slight, and this could be the reason that the average friction</text>
   <text y="111.358" x="76.535,79.853,85.292,89.048,93.471,98.244,102.4272,104.958,110.468,115.24,119.663,125.103,133.9,138.6808,141.162,144.061,149.501,157.81,162.582,166.566,169.008,177.317,180.216,183.464,189.2408,191.752,195.0,200.798,205.5788,208.061,210.96,216.759,221.182,224.938,229.71,234.691,238.915,243.6958,246.178,249.077,254.8538,257.366,263.453,268.225,274.213,277.461,283.2378,285.75,291.189,294.47580000000005,296.997,300.245,306.043,310.8238,313.306,319.393,324.165,327.483,332.255,336.678,339.926,344.15,346.64,349.132,357.441,363.239,368.011" svgx:width="0.33,0.55,0.4,0.44,0.48,0.42,0.55,0.55,0.48,0.44,0.55,0.88,0.48,0.55,0.29,0.55,0.83,0.48,0.4,0.55,0.83,0.29,0.33,0.58,0.55,0.33,0.58,0.48,0.55,0.29,0.58,0.44,0.4,0.48,0.5,0.42,0.48,0.55,0.29,0.58,0.55,0.61,0.48,0.6,0.33,0.58,0.55,0.55,0.33,0.55,0.33,0.58,0.48,0.55,0.61,0.48,0.33,0.48,0.44,0.33,0.42,0.25,0.55,0.83,0.58,0.48,0.58" style="fill:rgb(0,0,0);font-family:URWPalladioL-Roma;font-size:9.96px;stroke:none;">forces become lower with the increase in depth of the defects, when</text>
   <text y="111.358" x="376.298" svgx:width="0.5" style="fill:rgb(0,0,0);font-family:URWPalladioL-Ital;font-size:9.96px;stroke:none;">h</text>
   <text y="111.358" x="381.279" svgx:width="0.67" style="fill:rgb(0,0,0);font-family:Rpxr;font-size:9.96px;stroke:none;">&gt;</text>
   <text y="111.358" x="387.944,392.925,395.416,400.397,405.379,410.35900000000004,412.85,418.649,427.446" svgx:width="0.5,0.25,0.5,0.5,0.5,0.55,0.58,0.88,0.25" style="fill:rgb(0,0,0);font-family:URWPalladioL-Roma;font-size:9.96px;stroke:none;">3.615 nm.</text>
   <text y="134.571" x="76.535,81.516,84.006,87.494,94.687,100.226,106.313,110.737,114.054,120.141,124.565,127.882,133.421,139.509" svgx:width="0.5,0.25,0.55,0.72,0.56,0.61,0.44,0.33,0.61,0.44,0.33,0.56,0.61,0.44" style="fill:rgb(0,0,0);font-family:URWPalladioL-Bold;font-size:9.96px;stroke:none;">4. Conclusions</text>
   <text y="154.058" x="97.795,105.391,109.531,112.372,118.054,123.6316,125.767,130.649,136.4258,138.616,144.581,152.177,163.698,169.565,174.896,178.079,182.756,188.438,191.621,194.462,199.344,202.185,204.675,206.949,216.185,226.027,230.166,233.008,241.629,247.516,250.357,255.239,258.422,261.263,266.594,272.276,276.4592,278.7,284.382,289.264,294.78,299.5608,301.742,307.141,311.817,316.494,322.2708,324.461,328.796,333.678,337.534,341.391,344.232,348.908,354.9836,357.158,362.489,368.376,371.6628,373.844,377.027,382.505,384.642,388.782,391.965,397.852,403.817,409.3946,411.521,414.704,420.386,425.1668,427.347" svgx:width="0.78,0.42,0.29,0.58,0.56,0.55,0.5,0.58,0.55,0.61,0.78,0.95,0.6,0.55,0.33,0.48,0.58,0.33,0.29,0.5,0.29,0.25,0.55,0.95,0.77,0.42,0.29,0.88,0.6,0.29,0.5,0.33,0.29,0.55,0.58,0.42,0.55,0.58,0.5,0.56,0.48,0.55,0.55,0.48,0.48,0.58,0.55,0.44,0.5,0.4,0.4,0.29,0.48,0.61,0.55,0.55,0.6,0.33,0.55,0.33,0.55,0.55,0.42,0.33,0.6,0.61,0.56,0.55,0.33,0.58,0.48,0.55,0.48" style="fill:rgb(0,0,0);font-family:URWPalladioL-Roma;font-size:9.96px;stroke:none;">Using an EAMpotential, MDsimulations have been carried out to study the e</text>
   <text y="154.058" x="432.028" svgx:width="0.61" style="fill:rgb(0,0,0);font-family:Rpxr;font-size:9.96px;stroke:none;">ﬀ</text>
   <text y="154.058" x="437.964,442.641,446.976,450.158,454.3412,456.583,461.913,465.19980000000004,467.449,472.878,479.8,486.8716,489.007,493.342,498.673,504.54,510.408,515.085" svgx:width="0.48,0.44,0.33,0.42,0.55,0.55,0.33,0.55,0.56,0.71,0.71,0.55,0.44,0.55,0.6,0.6,0.48,0.4" style="fill:rgb(0,0,0);font-family:URWPalladioL-Roma;font-size:9.96px;stroke:none;">ects of FCC copper</text>
   <text y="167.567" x="76.535,79.783,84.555,89.696,92.943,98.951,102.707,107.479,113.5546,116.047,120.271,126.278,130.214,133.531,138.512,142.936,147.708,151.8912,154.413,162.721,165.621,168.868,174.6448,177.157,183.244" svgx:width="0.33,0.48,0.52,0.33,0.6,0.4,0.48,0.61,0.55,0.42,0.6,0.4,0.33,0.5,0.44,0.48,0.42,0.55,0.83,0.29,0.33,0.58,0.55,0.61,0.29" style="fill:rgb(0,0,0);font-family:URWPalladioL-Roma;font-size:9.96px;stroke:none;">textured surfaces with di</text>
   <text y="167.567" x="186.139" svgx:width="0.61" style="fill:rgb(0,0,0);font-family:Rpxr;font-size:9.96px;stroke:none;">ﬀ</text>
   <text y="167.567" x="192.196,196.968,200.724,205.496,211.294,214.5808,217.023,223.11,227.882,233.87,237.117,242.916,247.14,249.63,252.121,260.43,263.329,269.416,272.664,278.462,282.686,285.176,287.658,293.097,297.032,299.932,304.704,310.502,313.75,318.731,321.979,324.878,330.317,336.116,340.2992,342.82,347.802,353.6,359.67560000000003,362.168,366.392,372.19,377.172,383.159,387.931,392.1142,394.636,400.076,405.8528,408.364,411.682,415.617,418.516,422.94,426.188,429.087,434.526,440.3028,442.805,448.314,453.087,458.885,463.866,469.495,472.394,477.834,481.769,485.9522,488.474,494.561,500.568,504.504,507.403,513.201" svgx:width="0.48,0.4,0.48,0.58,0.33,0.55,0.61,0.48,0.6,0.33,0.58,0.42,0.25,0.55,0.83,0.29,0.61,0.33,0.58,0.42,0.25,0.55,0.55,0.4,0.29,0.48,0.58,0.33,0.5,0.33,0.29,0.55,0.58,0.42,0.55,0.5,0.58,0.61,0.55,0.42,0.58,0.5,0.6,0.48,0.42,0.55,0.55,0.58,0.55,0.33,0.4,0.29,0.44,0.33,0.29,0.55,0.58,0.55,0.55,0.48,0.58,0.5,0.56,0.29,0.55,0.4,0.42,0.55,0.61,0.6,0.4,0.29,0.58,0.56" style="fill:rgb(0,0,0);font-family:URWPalladioL-Roma;font-size:9.96px;stroke:none;">erent depths, widths, orientations and shapes on friction behaviors during</text>
   <text y="181.077" x="76.535,82.449,87.53,93.444,98.993,103.301,107.813,112.894,115.851,120.6318,123.96,128.269,131.226,134.183,140.392,143.349,149.263,154.8406,158.155,162.667,168.215,174.129,177.442,182.523,187.035,190.348,194.656,197.14600000000002,202.948,209.178,215.092,219.8728,223.201,226.158,232.072,238.251,244.378,249.246,255.16,259.672,264.4528,267.781,273.329,276.61580000000004,279.955,284.264,290.391,296.011,300.319,306.447,310.461,313.845,318.926,323.438,328.2188,331.547,337.756,342.623,346.007,350.875,355.386,358.699,362.8822,366.249,371.798,377.5748,380.954,384.266,390.181,394.9618,398.29,402.598,408.726,414.345,418.654,421.967,425.981,431.062,434.375,439.1558,442.494,445.441,449.6242,453.001,458.082,461.039,465.348,470.826,474.138,480.347,483.304,487.612,492.124,498.252,502.561,506.869,511.737,517.946" svgx:width="0.58,0.5,0.58,0.55,0.42,0.44,0.5,0.29,0.48,0.55,0.42,0.29,0.29,0.61,0.29,0.58,0.56,0.55,0.44,0.55,0.58,0.33,0.5,0.44,0.33,0.42,0.25,0.55,0.61,0.58,0.48,0.55,0.29,0.58,0.61,0.6,0.48,0.58,0.44,0.48,0.55,0.55,0.33,0.55,0.42,0.6,0.55,0.42,0.6,0.4,0.33,0.5,0.44,0.48,0.55,0.61,0.48,0.33,0.48,0.44,0.33,0.42,0.55,0.55,0.58,0.55,0.33,0.58,0.48,0.55,0.42,0.6,0.55,0.42,0.33,0.4,0.5,0.33,0.48,0.55,0.29,0.42,0.55,0.5,0.29,0.42,0.55,0.55,0.61,0.29,0.42,0.44,0.6,0.42,0.42,0.48,0.61,0.25" style="fill:rgb(0,0,0);font-family:URWPalladioL-Roma;font-size:9.96px;stroke:none;">nanoscale sliding contacts. The inﬂuence of subsurface defects on the substrate is also discussed.</text>
   <text y="194.586" x="76.535,84.286,90.084,96.171,100.943,104.92699999999999,107.369,110.617,116.415,121.1958,123.678,128.101,133.541,139.339,145.426,148.326,151.573,154.472,159.912,165.71,169.8932,172.425,177.406,183.205,189.28060000000002,191.782,200.579,205.561,208.808,213.58,217.516,220.415,225.396,228.28439999999998,230.786,236.793,241.017,245.79,251.8656,254.367,257.266,263.0428,265.555,268.803,274.601,277.5,281.6832,284.215,290.203,295.184,301.172,305.944,309.142,311.632,314.123,318.347,323.787,332.584,337.3648,339.846,344.27,349.709,355.508,359.931,362.83,368.838,373.062,375.961,381.4,387.199,391.3822,393.914,398.895,402.651,407.4318,409.914,416.001,419.936,424.917,433.226,439.024,441.514,444.006,448.987,453.1702,455.702,459.019,464.459,467.358,470.257,475.697,484.005,488.23" svgx:width="0.78,0.58,0.61,0.48,0.4,0.55,0.33,0.58,0.48,0.55,0.44,0.55,0.58,0.61,0.29,0.33,0.29,0.55,0.58,0.42,0.55,0.5,0.58,0.61,0.55,0.88,0.5,0.33,0.48,0.4,0.29,0.5,0.29,0.55,0.6,0.42,0.48,0.61,0.55,0.29,0.58,0.55,0.33,0.58,0.29,0.42,0.55,0.6,0.5,0.6,0.48,0.4,0.25,0.55,0.42,0.55,0.88,0.48,0.55,0.44,0.55,0.58,0.44,0.29,0.6,0.42,0.29,0.55,0.58,0.42,0.55,0.5,0.4,0.48,0.55,0.61,0.4,0.5,0.83,0.58,0.25,0.55,0.5,0.42,0.55,0.33,0.55,0.29,0.29,0.55,0.83,0.42,0.25" style="fill:rgb(0,0,0);font-family:URWPalladioL-Roma;font-size:9.96px;stroke:none;">Under the conditions and material used in this paper, some conclusions are drawn, as follows:</text>
   <text y="216.065" x="76.207,79.458,84.34,87.6268,99.598,106.803,112.351,121.324,127.431,132.512,136.343,141.211,147.28660000000002,152.114,160.589,163.547,166.859,172.63580000000002,177.468,182.44799999999998,187.244,191.553,200.526,206.074,211.622,214.935,220.7118,225.544,229.853,235.98,239.994,243.378,248.459,252.971,257.838,260.32800000000003,265.622,268.935,273.803,279.046,282.359,288.487,292.318,297.185,303.2606,308.089,312.397,318.525,322.539,325.923,331.004,335.516,340.383,344.5662,349.387,353.898,358.979,364.75579999999997,369.588,373.419,378.287,384.496,390.623,395.135,399.9158,404.697,408.081,412.095,415.052,419.564,422.877,425.834,431.382,437.1588,441.991,445.375,450.924,454.755,459.267,464.134,468.3172,473.137" svgx:width="0.33,0.5,0.33,0.55,0.71,0.55,0.88,0.6,0.5,0.4,0.48,0.61,0.55,0.83,0.29,0.33,0.58,0.55,0.5,0.55,0.42,0.88,0.55,0.55,0.33,0.58,0.55,0.42,0.6,0.4,0.33,0.5,0.44,0.48,0.25,0.55,0.33,0.48,0.52,0.33,0.6,0.4,0.48,0.61,0.55,0.42,0.6,0.4,0.33,0.5,0.44,0.48,0.42,0.55,0.44,0.5,0.58,0.55,0.4,0.48,0.61,0.6,0.44,0.48,0.55,0.33,0.4,0.29,0.44,0.33,0.29,0.55,0.58,0.55,0.33,0.55,0.4,0.44,0.48,0.42,0.55,0.48" style="fill:rgb(0,0,0);font-family:URWPalladioL-Roma;font-size:9.96px;stroke:none;">(1) Compared with a smooth surface, textured surfaces can reduce friction forces e</text>
   <text y="216.065" x="478.006" svgx:width="0.61" style="fill:rgb(0,0,0);font-family:Rpxr;font-size:9.96px;stroke:none;">ﬀ</text>
   <text y="216.065" x="484.184,489.052,493.563,496.876,499.833,505.575,510.442,513.399,517.942" svgx:width="0.48,0.44,0.33,0.29,0.56,0.48,0.29,0.56,0.25" style="fill:rgb(0,0,0);font-family:URWPalladioL-Roma;font-size:9.96px;stroke:none;">ectively.</text>
   <text y="229.575" x="99.598,102.982,108.7588,111.317,116.339,122.474,128.61,131.533,134.806,137.729,143.212,149.056,151.54600000000002,154.047,157.321,163.166,167.9468,170.467,173.74,178.551,183.732,187.006,193.062,196.848,201.658,207.7336,210.284,214.542,220.598,224.564,227.908,232.93,237.388,242.199,246.3822,248.947,257.322,260.245,263.518,269.29479999999995,271.844,276.824,279.355,285.2,288.122,293.706,299.55,304.36,308.344,310.818,316.953,321.764,327.799,331.073,336.84979999999996,339.398,344.419,350.264,356.3396,358.89,363.148,372.015,377.036,379.959,382.881,387.691,391.67499999999995,394.149,402.524,405.446,411.582,414.856,420.6328,423.191,426.113,430.923,435.945,442.0206,444.561,447.835,453.313,455.808,458.731,464.214,472.589,477.399,481.383,483.856,488.878,494.551,499.362,503.328,508.35,513.933" svgx:width="0.34,0.58,0.55,0.5,0.61,0.61,0.29,0.33,0.29,0.55,0.58,0.25,0.55,0.33,0.58,0.48,0.55,0.33,0.48,0.52,0.33,0.6,0.4,0.48,0.61,0.55,0.42,0.6,0.4,0.33,0.5,0.44,0.48,0.42,0.55,0.83,0.29,0.33,0.58,0.55,0.5,0.55,0.58,0.29,0.56,0.58,0.48,0.4,0.55,0.61,0.48,0.6,0.33,0.58,0.55,0.5,0.58,0.61,0.55,0.42,0.88,0.5,0.29,0.29,0.48,0.4,0.55,0.83,0.29,0.61,0.33,0.58,0.55,0.29,0.48,0.5,0.61,0.55,0.33,0.55,0.55,0.29,0.55,0.83,0.48,0.4,0.55,0.5,0.56,0.48,0.4,0.5,0.56,0.48" style="fill:rgb(0,0,0);font-family:URWPalladioL-Roma;font-size:9.96px;stroke:none;">In addition, the textured surfaces with a higher depth and smaller width lead to lower average</text>
   <text y="243.084" x="99.598,102.916,106.851,109.75,114.173,117.421,120.32,125.76,131.5368,134.049,137.366,142.806,146.562,150.985,155.757,159.981" svgx:width="0.33,0.4,0.29,0.44,0.33,0.29,0.55,0.58,0.55,0.33,0.55,0.4,0.44,0.48,0.42,0.25" style="fill:rgb(0,0,0);font-family:URWPalladioL-Roma;font-size:9.96px;stroke:none;">friction forces.</text>
   <text y="257.59" x="76.207,79.458,84.34,87.6268,99.598,105.087,110.478,114.46199999999999,116.866,120.084,125.83,130.6108,133.057,136.276,141.005,146.1,149.308,155.262,158.984,163.7648,166.211,170.397,176.35,180.25,183.538,188.474,192.858,197.587,201.7702,204.261,212.495,215.368,218.587,224.3638,226.821,230.039,235.785,240.5658,243.002,248.393,252.293,255.166,259.895,265.641,268.86,273.796,277.015,279.888,285.278,291.024,295.2072,297.708,303.099,306.3858,308.875" svgx:width="0.33,0.5,0.33,0.55,0.56,0.55,0.4,0.55,0.33,0.58,0.48,0.55,0.33,0.48,0.52,0.33,0.6,0.4,0.48,0.55,0.42,0.6,0.4,0.33,0.5,0.44,0.48,0.42,0.55,0.83,0.29,0.33,0.58,0.55,0.33,0.58,0.48,0.55,0.55,0.4,0.29,0.48,0.58,0.33,0.5,0.33,0.29,0.55,0.58,0.42,0.55,0.55,0.33,0.55,0.5" style="fill:rgb(0,0,0);font-family:URWPalladioL-Roma;font-size:9.96px;stroke:none;">(2) For the texture surfaces with the orientations of 0</text>
   <text y="253.973" x="313.81" svgx:width="0.52" style="fill:rgb(0,0,0);font-family:Pxsy;font-size:7.57px;stroke:none;">◦</text>
   <text y="257.59" x="320.759,325.695,331.442,337.5176,339.962,344.898" svgx:width="0.5,0.58,0.61,0.55,0.5,0.5" style="fill:rgb(0,0,0);font-family:URWPalladioL-Roma;font-size:9.96px;stroke:none;">and 90</text>
   <text y="253.973" x="349.838" svgx:width="0.52" style="fill:rgb(0,0,0);font-family:Pxsy;font-size:7.57px;stroke:none;">◦</text>
   <text y="257.59" x="354.296,356.786,359.252,362.471,368.217,372.9978,375.444,380.38,385.958,390.688,394.587,399.524,405.013,409.7938,412.23,415.518,419.418,422.291,426.674,429.893,432.766,438.157,443.93379999999996,446.391,449.678,455.069,458.791,463.175,467.904,472.0872,474.578,479.514,483.236,488.0168,490.454,496.2,499.073,504.562,510.308,515.037" svgx:width="0.25,0.55,0.33,0.58,0.48,0.55,0.5,0.56,0.48,0.4,0.5,0.56,0.48,0.55,0.33,0.4,0.29,0.44,0.33,0.29,0.55,0.58,0.55,0.33,0.55,0.4,0.44,0.48,0.42,0.55,0.5,0.4,0.48,0.55,0.58,0.29,0.56,0.58,0.48,0.4" style="fill:rgb(0,0,0);font-family:URWPalladioL-Roma;font-size:9.96px;stroke:none;">, the average friction forces are higher</text>
   <text y="271.099" x="99.598,102.911,108.825,113.906,119.6828,122.442,125.755,131.669,137.217,141.526,146.3068,149.015,157.49,160.447,163.76,169.5368,172.306,177.854,181.868,184.825,189.693,195.607,198.92,204.001,207.314,210.271,215.819,221.723,225.9062,228.664,234.212,237.4988,240.218,245.299" svgx:width="0.33,0.58,0.5,0.58,0.55,0.33,0.58,0.55,0.42,0.48,0.55,0.83,0.29,0.33,0.58,0.55,0.55,0.4,0.29,0.48,0.58,0.33,0.5,0.33,0.29,0.55,0.58,0.42,0.55,0.55,0.33,0.55,0.5,0.5" style="fill:rgb(0,0,0);font-family:URWPalladioL-Roma;font-size:9.96px;stroke:none;">than those with orientations of 30</text>
   <text y="267.483" x="250.379" svgx:width="0.52" style="fill:rgb(0,0,0);font-family:Pxsy;font-size:7.57px;stroke:none;">◦</text>
   <text y="271.099" x="254.837,257.327,260.03,265.111" svgx:width="0.25,0.55,0.5,0.5" style="fill:rgb(0,0,0);font-family:URWPalladioL-Roma;font-size:9.96px;stroke:none;">, 45</text>
   <text y="267.483" x="270.197" svgx:width="0.52" style="fill:rgb(0,0,0);font-family:Pxsy;font-size:7.57px;stroke:none;">◦</text>
   <text y="271.099" x="277.279,282.36,288.274,294.3496,297.105,302.186" svgx:width="0.5,0.58,0.61,0.55,0.5,0.5" style="fill:rgb(0,0,0);font-family:URWPalladioL-Roma;font-size:9.96px;stroke:none;">and 60</text>
   <text y="267.483" x="307.268" svgx:width="0.52" style="fill:rgb(0,0,0);font-family:Pxsy;font-size:7.57px;stroke:none;">◦</text>
   <text y="271.099" x="311.726,314.216,316.929,322.01,327.924,333.9996,336.755,340.067,345.982,350.7628,353.471,356.784,361.651,366.895,370.207,376.335,380.166,385.034,391.1096,393.864,398.173,404.3,408.314,411.698,416.779,421.291,426.0718,428.791,437.266,440.223,443.535,449.3118,452.071,457.152" svgx:width="0.25,0.55,0.5,0.58,0.61,0.55,0.33,0.58,0.48,0.55,0.33,0.48,0.52,0.33,0.6,0.4,0.48,0.61,0.55,0.42,0.6,0.4,0.33,0.5,0.44,0.48,0.55,0.83,0.29,0.33,0.58,0.55,0.5,0.5" style="fill:rgb(0,0,0);font-family:URWPalladioL-Roma;font-size:9.96px;stroke:none;">, and the textured surface with 45</text>
   <text y="267.483" x="462.232" svgx:width="0.52" style="fill:rgb(0,0,0);font-family:Pxsy;font-size:7.57px;stroke:none;">◦</text>
   <text y="271.099" x="469.314,474.862,478.876,481.833,486.701,492.615,495.928,501.009,504.322,507.279,512.827" svgx:width="0.55,0.4,0.29,0.48,0.58,0.33,0.5,0.33,0.29,0.55,0.58" style="fill:rgb(0,0,0);font-family:URWPalladioL-Roma;font-size:9.96px;stroke:none;">orientation</text>
   <text y="284.609" x="99.299,105.287,109.042,114.482,120.569,126.577,131.0,135.772,139.9552,142.487,145.735,151.533,156.3138,158.796,161.695,167.134,175.443,180.215,184.439,187.7258,190.178,195.159,200.788,205.56,209.495,214.477,220.016,224.7968,227.278,230.596,234.531,237.43,241.854,245.102,248.001,253.44,259.2168,261.729,265.047,270.486,274.242,278.666,283.438" svgx:width="0.6,0.4,0.55,0.61,0.6,0.44,0.48,0.42,0.55,0.33,0.58,0.48,0.55,0.29,0.55,0.83,0.48,0.42,0.33,0.55,0.5,0.56,0.48,0.4,0.5,0.56,0.48,0.55,0.33,0.4,0.29,0.44,0.33,0.29,0.55,0.58,0.55,0.33,0.55,0.4,0.44,0.48,0.25" style="fill:rgb(0,0,0);font-family:URWPalladioL-Roma;font-size:9.96px;stroke:none;">produces the lowest average friction force.</text>
   <text y="299.114" x="76.207,79.458,84.34,87.6268,99.598,105.803,111.694,116.4748,119.022" svgx:width="0.33,0.5,0.33,0.55,0.61,0.58,0.48,0.55,0.48" style="fill:rgb(0,0,0);font-family:URWPalladioL-Roma;font-size:9.96px;stroke:none;">(3) The e</text>
   <text y="299.114" x="123.874" svgx:width="0.61" style="fill:rgb(0,0,0);font-family:Rpxr;font-size:9.96px;stroke:none;">ﬀ</text>
   <text y="299.114" x="130.028,134.876,139.371,142.67,146.8532,149.442,154.969,158.2558,160.829,164.129,168.977,174.2,177.5,183.604,187.42,192.2008,194.748,199.04,204.931,209.992,216.075,220.8558,223.414,228.94,234.7168,237.311,240.682,244.68,247.625,252.12,255.419,258.365,263.891,269.6678,272.262,277.86,282.708,288.599,293.66,299.379,302.325,307.851,311.849,316.0322,318.631,323.692,327.508,332.2888,334.837,339.128,342.074,345.019,350.647,356.538,359.82480000000004,362.328,366.822,372.349,381.286,387.37,392.431,396.247,401.095,407.17060000000004,409.76,418.201,421.147,424.447,430.2238,432.828,436.127,442.018,446.79879999999997,449.347" svgx:width="0.48,0.44,0.33,0.42,0.55,0.55,0.33,0.55,0.33,0.48,0.52,0.33,0.6,0.4,0.48,0.55,0.42,0.58,0.5,0.6,0.48,0.55,0.55,0.58,0.55,0.33,0.4,0.29,0.44,0.33,0.29,0.55,0.58,0.55,0.55,0.48,0.58,0.5,0.56,0.29,0.55,0.4,0.42,0.55,0.5,0.4,0.48,0.55,0.42,0.29,0.29,0.56,0.58,0.33,0.55,0.44,0.55,0.88,0.6,0.5,0.4,0.48,0.61,0.55,0.83,0.29,0.33,0.58,0.55,0.33,0.58,0.48,0.55,0.48" style="fill:rgb(0,0,0);font-family:URWPalladioL-Roma;font-size:9.96px;stroke:none;">ects of texture shape on friction behaviors are slight compared with the e</text>
   <text y="299.114" x="454.196" svgx:width="0.61" style="fill:rgb(0,0,0);font-family:Rpxr;font-size:9.96px;stroke:none;">ﬀ</text>
   <text y="299.114" x="460.35,465.198,469.693,472.992,477.1752,479.764,485.291,488.5778,491.151,497.336,502.184,508.268,511.567,517.458" svgx:width="0.48,0.44,0.33,0.42,0.55,0.55,0.33,0.55,0.61,0.48,0.6,0.33,0.58,0.25" style="fill:rgb(0,0,0);font-family:URWPalladioL-Roma;font-size:9.96px;stroke:none;">ects of depth,</text>
   <text y="312.624" x="99.179,107.488,110.387,116.474,119.722,125.49879999999999,128.011,132.992,138.79,144.8656,147.368,152.808,156.743,159.642,164.414,170.212,173.46,178.441,181.689,184.588,190.028,195.826,198.316,200.807,205.789,211.587,217.6626,220.165,223.413,229.211,233.9918,236.473,242.102,245.42,249.644,255.442,260.424,266.411,271.1918,273.674,277.898,283.696,289.136,297.445,301.6282,304.159,309.139,311.631,314.53,319.97,328.279,333.051,337.03499999999997,339.477,344.458,350.087,354.859,358.794,363.776,369.315,374.0958,376.578,379.895,383.83,386.73,391.153,394.401,397.3,402.739,408.51579999999996,411.028,414.346,419.785,423.541,427.965,432.737" svgx:width="0.83,0.29,0.61,0.33,0.58,0.55,0.5,0.58,0.61,0.55,0.55,0.4,0.29,0.48,0.58,0.33,0.5,0.33,0.29,0.55,0.58,0.25,0.55,0.5,0.58,0.61,0.55,0.33,0.58,0.48,0.55,0.56,0.33,0.42,0.58,0.5,0.6,0.48,0.55,0.42,0.58,0.55,0.83,0.42,0.55,0.5,0.55,0.29,0.55,0.83,0.48,0.4,0.55,0.5,0.56,0.48,0.4,0.5,0.56,0.48,0.55,0.33,0.4,0.29,0.44,0.33,0.29,0.55,0.58,0.55,0.33,0.55,0.4,0.44,0.48,0.25" style="fill:rgb(0,0,0);font-family:URWPalladioL-Roma;font-size:9.96px;stroke:none;">width and orientation, and the v-shape shows a lower average friction force.</text>
   <text y="327.129" x="76.207,79.458,84.34,87.6268,99.598,105.589,111.277,116.0578,118.451,124.139,129.025,134.713,140.05,144.194,148.533,153.42,156.264,161.0448,163.427,168.832,173.719,176.563,179.45139999999998,181.899,187.871,192.552,195.806,200.488,204.827,208.013,212.1962,214.64,217.484,223.26080000000002,225.664,228.85,234.538,239.3188,241.702,245.846,251.739,257.144,261.288,264.474,268.334,273.221,276.407,281.1878,283.581,292.21,297.097,302.531,307.3118,309.695,312.881,318.569,323.3498,325.743,329.887,332.731,335.575,341.546,344.39,350.078,355.6556,357.995,363.868,367.553,372.889,377.228,381.91,386.054,390.2372,392.69,398.583,404.261,408.405,411.591,416.478,421.883,424.727,429.408,431.898,435.341,438.634,444.4108,446.814,450.001,455.689,458.533,462.7162,465.159,471.033,475.919,481.793,486.475,489.602,492.092,494.528,502.679,508.367,513.048" svgx:width="0.33,0.5,0.33,0.55,0.61,0.58,0.48,0.55,0.58,0.5,0.58,0.55,0.42,0.44,0.5,0.29,0.48,0.55,0.55,0.5,0.29,0.29,0.55,0.61,0.48,0.33,0.48,0.44,0.33,0.42,0.55,0.29,0.58,0.55,0.33,0.58,0.48,0.55,0.42,0.6,0.55,0.42,0.33,0.4,0.5,0.33,0.48,0.55,0.88,0.5,0.56,0.48,0.55,0.33,0.58,0.48,0.55,0.42,0.29,0.29,0.61,0.29,0.58,0.56,0.55,0.6,0.4,0.55,0.44,0.48,0.42,0.42,0.55,0.6,0.58,0.42,0.33,0.5,0.55,0.29,0.48,0.25,0.55,0.34,0.58,0.55,0.33,0.58,0.29,0.42,0.55,0.6,0.5,0.6,0.48,0.4,0.25,0.55,0.83,0.58,0.48,0.58" style="fill:rgb(0,0,0);font-family:URWPalladioL-Roma;font-size:9.96px;stroke:none;">(4) The nanoscale ball defects in the substrate make the sliding process unstable. In this paper, when</text>
   <text y="340.639" x="99.598,102.82,108.572,113.3528,115.786,121.825,126.559,132.498,135.72,141.4968,143.952,149.349,152.6358,155.13,158.352,164.104,168.8848,171.318,176.783,181.725,184.601,187.4894,189.957,195.996,200.73,204.021,208.755,213.143,216.364,220.5472,223.035,225.911" svgx:width="0.33,0.58,0.48,0.55,0.61,0.48,0.6,0.33,0.58,0.55,0.55,0.33,0.55,0.33,0.58,0.48,0.55,0.55,0.5,0.29,0.29,0.55,0.61,0.48,0.33,0.48,0.44,0.33,0.42,0.55,0.29,0.42" style="fill:rgb(0,0,0);font-family:URWPalladioL-Roma;font-size:9.96px;stroke:none;">the depth of the ball defects is</text>
   <text y="340.639" x="232.586" svgx:width="0.5" style="fill:rgb(0,0,0);font-family:URWPalladioL-Ital;font-size:9.96px;stroke:none;">h</text>
   <text y="340.639" x="240.01" svgx:width="0.67" style="fill:rgb(0,0,0);font-family:Rpxr;font-size:9.96px;stroke:none;">=</text>
   <text y="340.639" x="249.105,254.046,256.517,261.459,266.4,271.38,273.822,279.574,288.301,290.791,293.262,296.484,302.235,307.0158,309.45,312.326,318.078,324.087,330.046,334.78,340.532,344.92,349.7008,352.134,357.53,360.8168,363.302,369.34,374.074,377.365,382.099,386.487,389.709,393.8922,396.38,401.776,407.5528,410.018,413.24,418.992,423.7728,426.207,431.148,436.732,441.466,445.37,450.311,455.806,460.5868,463.021,466.312,470.215,473.091,477.479,480.701,483.577,488.973,494.7498,497.205,500.496,505.893,509.618,514.006" svgx:width="0.5,0.25,0.5,0.5,0.5,0.55,0.58,0.88,0.25,0.55,0.33,0.58,0.48,0.55,0.29,0.58,0.61,0.6,0.48,0.58,0.44,0.48,0.55,0.55,0.33,0.55,0.61,0.48,0.33,0.48,0.44,0.33,0.42,0.55,0.55,0.58,0.55,0.33,0.58,0.48,0.55,0.5,0.56,0.48,0.4,0.5,0.56,0.48,0.55,0.33,0.4,0.29,0.44,0.33,0.29,0.55,0.58,0.55,0.33,0.55,0.4,0.44,0.48" style="fill:rgb(0,0,0);font-family:URWPalladioL-Roma;font-size:9.96px;stroke:none;">3.615 nm, the inﬂuence of defects on the average friction force</text>
   <text y="354.148" x="99.598,102.439,106.62219999999999,109.078,112.261,117.943,122.7238,125.119,130.548,134.229,138.905,143.787,146.97,151.646,155.786,158.969,161.459,164.925,174.688,180.37,185.047,190.8238,193.238,196.421,202.103,206.8838,209.279,215.245,219.922,225.789,228.972,234.74880000000002,237.154,239.995,244.1782,246.634,252.062,255.743,260.42,265.302,268.484,273.161,277.145,279.517,282.7,288.382,293.264,299.0408,301.446,306.327,308.768,313.65,318.531,323.511,325.913,331.595,340.216,342.706,345.166,348.349,354.031,358.8118,361.207,366.089,371.605,376.282,380.138,385.02,390.448,395.2288,397.624,400.876,404.732,407.573,411.908,415.091,417.932,423.263,429.03979999999996,431.445,434.696,440.027,443.707,448.042,452.719,456.9022,459.358,465.323,470.0,474.335,478.016,482.692,487.574,491.714,496.4948,498.89,507.032,509.874,513.056" svgx:width="0.29,0.42,0.55,0.33,0.58,0.48,0.55,0.56,0.4,0.48,0.5,0.33,0.48,0.42,0.33,0.25,0.55,1.0,0.58,0.48,0.58,0.55,0.33,0.58,0.48,0.55,0.61,0.48,0.6,0.33,0.58,0.55,0.29,0.42,0.55,0.56,0.4,0.48,0.5,0.33,0.48,0.4,0.55,0.33,0.58,0.5,0.58,0.55,0.5,0.25,0.5,0.5,0.5,0.55,0.58,0.88,0.25,0.55,0.33,0.58,0.48,0.55,0.5,0.56,0.48,0.4,0.5,0.56,0.48,0.55,0.33,0.4,0.29,0.44,0.33,0.29,0.55,0.58,0.55,0.33,0.55,0.4,0.44,0.48,0.42,0.55,0.61,0.48,0.44,0.4,0.48,0.5,0.42,0.48,0.55,0.83,0.29,0.33,0.58" style="fill:rgb(0,0,0);font-family:URWPalladioL-Roma;font-size:9.96px;stroke:none;">is the greatest. When the depth is greater than 3.615 nm, the average friction forces decrease with</text>
   <text y="367.658" x="99.598,102.846,108.644,113.4248,115.907,118.806,124.604,129.028,132.783,137.556,142.537,146.761,151.5418,154.024,156.923,162.6998,165.212,171.299,176.071,182.058,185.306,191.104,193.59400000000002,196.086,201.067,206.865,212.94060000000002,215.443,218.691,224.489,229.261,234.83859999999999,237.291,240.539,245.311,251.109,257.1846,259.687,262.935,268.413,270.865,276.374,281.1548,283.637,288.06,290.96,296.399,300.623,305.4038,307.886,311.134,316.612,319.064,322.312,328.11,333.091,336.37780000000004,338.83,344.269,347.55580000000003,350.078,355.058,357.55,363.537,368.309,372.244,375.562,380.334,384.757,388.04380000000003,390.496,394.72,400.728,406.237,410.461,413.709,417.644,422.625,425.873,430.645" svgx:width="0.33,0.58,0.48,0.55,0.29,0.58,0.44,0.4,0.48,0.5,0.42,0.48,0.55,0.29,0.58,0.55,0.61,0.48,0.6,0.33,0.58,0.25,0.55,0.5,0.58,0.61,0.55,0.33,0.58,0.48,0.56,0.55,0.33,0.48,0.58,0.61,0.55,0.33,0.55,0.55,0.55,0.48,0.55,0.44,0.29,0.55,0.42,0.48,0.55,0.33,0.55,0.55,0.33,0.58,0.5,0.33,0.55,0.55,0.33,0.55,0.5,0.55,0.6,0.48,0.4,0.33,0.48,0.44,0.33,0.55,0.42,0.6,0.55,0.42,0.33,0.4,0.5,0.33,0.48,0.25" style="fill:rgb(0,0,0);font-family:URWPalladioL-Roma;font-size:9.96px;stroke:none;">the increase in depth, and they tend to be close to that of a perfect substrate.</text>
   <text y="391.737" x="76.186,83.162,88.64,91.626,97.105,102.09,105.5883,108.842,115.315,120.301,125.779,128.765,132.244,135.23,140.708,146.187,149.172,152.158,157.144,162.622,166.603" svgx:width="0.78,0.61,0.33,0.61,0.56,0.39,0.55,0.72,0.56,0.61,0.33,0.39,0.33,0.61,0.61,0.33,0.33,0.56,0.61,0.44,0.25" style="fill:rgb(0,0,0);font-family:URWPalladioL-Bold;font-size:8.97px;stroke:none;">Author Contributions:</text>
   <text y="391.737" x="174.024,180.508,185.502,190.825,194.885,199.266,204.763,207.744,213.259,217.832,220.493,223.155,227.728,232.301,235.282,237.943,242.937,248.26,250.5025,254.058,260.168,262.454,267.402,269.688,271.9305,275.743,283.818,288.199,291.181,296.504,301.497,307.085,312.079,314.74,319.734,324.819,328.907,331.1495,334.705,340.815,343.101,348.049,350.335,352.5775,356.134,362.234,364.52,371.709,373.995,376.2375,379.794,384.897,387.184,393.284,395.5265,398.835,403.408,408.731,414.2027,417.575,423.163,425.449,433.059,435.345,437.58750000000003,441.399,445.277,450.271,453.316,456.298,463.925,468.498,471.955,476.336,478.5785,482.134,488.235,490.521,497.71,499.9525,503.261,507.834,513.157" svgx:width="0.71,0.55,0.58,0.44,0.48,0.6,0.33,0.6,0.5,0.29,0.29,0.5,0.5,0.33,0.29,0.55,0.58,0.25,0.55,0.67,0.25,0.61,0.25,0.25,0.55,0.88,0.48,0.33,0.58,0.55,0.61,0.55,0.29,0.55,0.56,0.56,0.25,0.55,0.67,0.25,0.61,0.25,0.25,0.55,0.67,0.25,0.79,0.25,0.25,0.55,0.67,0.25,0.67,0.25,0.55,0.5,0.58,0.61,0.55,0.61,0.25,0.83,0.25,0.25,0.55,0.42,0.55,0.33,0.33,0.83,0.5,0.4,0.48,0.25,0.55,0.67,0.25,0.79,0.25,0.55,0.5,0.58,0.61" style="fill:rgb(0,0,0);font-family:URWPalladioL-Roma;font-size:8.97px;stroke:none;">Conceptualization, R.T.; methodology, R.T., Z.Q., Y.Z. and B.H.; software, Z.Q. and</text>
   <text y="401.869" x="76.535,82.046,84.301,91.806,94.061,96.30350000000001,98.544,101.548,106.473,110.036,118.001,122.511,125.11229999999999,127.364,131.874,137.124,141.634,144.259,149.274,153.098,155.723,159.548,161.7905,164.031,170.056,172.311,177.173,179.4155,181.656,186.167,191.416,196.8877,199.156,205.172,207.427,214.517,216.772,219.0145,221.255,223.88,229.13,234.226,238.547,242.371,245.312,247.937,252.952,257.462,260.403,263.028,267.953,273.202,275.4445,277.685,283.711,285.966,290.828,293.083,295.32550000000003,297.575,303.591,305.846,312.936,315.1785,317.41,321.92,327.17,332.6417,334.91,339.934,342.189,348.205,350.46,352.7025,354.943,362.466,366.029,368.654,371.595,374.22,379.469,384.485,393.505,398.43,401.993,404.618,409.633,412.258,417.507,422.018,424.61929999999995,426.861,432.373,435.936,440.446,443.45,446.4101,448.618,454.039,457.44,461.761,467.182,471.692,475.255,479.765,482.706,485.33,490.255,495.505,497.7475,499.988,506.005,508.26,515.35,517.605" svgx:width="0.61,0.25,0.83,0.25,0.25,0.55,0.33,0.55,0.4,0.88,0.5,0.29,0.55,0.5,0.58,0.5,0.29,0.56,0.42,0.29,0.42,0.25,0.55,0.67,0.25,0.61,0.25,0.55,0.5,0.58,0.61,0.55,0.67,0.25,0.79,0.25,0.25,0.55,0.29,0.58,0.56,0.48,0.42,0.33,0.29,0.56,0.5,0.33,0.29,0.55,0.58,0.25,0.55,0.67,0.25,0.61,0.25,0.25,0.55,0.67,0.25,0.79,0.25,0.55,0.5,0.58,0.61,0.55,0.67,0.25,0.67,0.25,0.25,0.55,0.83,0.4,0.29,0.33,0.29,0.58,0.56,1.0,0.55,0.4,0.29,0.56,0.29,0.58,0.5,0.29,0.55,0.61,0.4,0.5,0.33,0.33,0.55,0.6,0.4,0.48,0.6,0.5,0.4,0.5,0.33,0.29,0.55,0.58,0.25,0.55,0.67,0.25,0.79,0.25,0.25" style="fill:rgb(0,0,0);font-family:URWPalladioL-Roma;font-size:8.97px;stroke:none;">B.H.; formal analysis, R.T. and Z.Q.; investigation, R.T., Z.Q. and Y.Z.; writing—original draft preparation, Z.Q.;</text>
   <text y="412.001" x="76.159,83.787,87.399,90.061,93.042,95.703,101.026,106.111,115.257,118.705,123.086,128.253,130.914,135.295,142.74009999999998,145.374,149.947,155.27,160.7417,163.309,167.689,173.277,175.939,178.92,181.582,186.905,191.99,194.23250000000002,196.782,202.891,205.178,210.126,212.412,214.6545,217.25,222.418,225.079,228.957,234.472,239.044,241.706,244.367,248.94,253.513,256.495,259.156,264.149,269.472,271.7145,274.265,280.365,282.651,289.84,292.126,294.3685,296.964,300.842,306.357,311.854,316.234,319.847,325.014,327.676,331.553,334.215,339.208,344.531,346.7735,349.324,355.433,357.719,362.667,364.954,367.1965,369.792,375.288,378.736,383.73,385.87,390.251,394.311,397.2711,399.744,404.317,409.905,417.981,420.642,425.965,428.626,432.504,435.486,439.098,443.671,446.652,449.314,454.307,459.63,461.8725,464.423,470.532,472.818,477.766,480.0085,482.504,487.077,492.399,497.8707,500.438,507.417,509.703,515.291,517.578" svgx:width="0.83,0.4,0.29,0.33,0.29,0.58,0.56,1.0,0.4,0.48,0.56,0.29,0.48,0.83,0.55,0.5,0.58,0.61,0.55,0.48,0.61,0.29,0.33,0.29,0.58,0.56,0.25,0.55,0.67,0.25,0.61,0.25,0.25,0.55,0.56,0.29,0.42,0.6,0.5,0.29,0.29,0.5,0.5,0.33,0.29,0.55,0.58,0.25,0.55,0.67,0.25,0.79,0.25,0.25,0.55,0.42,0.6,0.6,0.48,0.4,0.56,0.29,0.42,0.29,0.55,0.58,0.25,0.55,0.67,0.25,0.61,0.25,0.25,0.55,0.6,0.4,0.55,0.23,0.48,0.44,0.33,0.55,0.5,0.61,0.88,0.29,0.58,0.29,0.42,0.33,0.4,0.5,0.33,0.29,0.55,0.58,0.25,0.55,0.67,0.25,0.61,0.25,0.55,0.5,0.58,0.61,0.55,0.76,0.25,0.61,0.25,0.25" style="fill:rgb(0,0,0);font-family:URWPalladioL-Roma;font-size:8.97px;stroke:none;">writing—review and editing, R.T.; visualization, Z.Q.; supervision, R.T.; project administration, R.T. and G.L.;</text>
   <text y="422.134" x="76.535,79.521,84.928,90.146,95.624,98.234,103.452,108.4752,110.679,115.162,119.143,124.165,129.571,132.18,135.982,138.591,141.515,144.124,149.019,154.238,156.4805,158.721,164.711,166.952,171.785,174.0275,176.268,180.752,185.97,191.4417,193.69,200.531,202.773,208.251" svgx:width="0.33,0.6,0.58,0.61,0.29,0.58,0.56,0.55,0.5,0.44,0.56,0.6,0.29,0.42,0.29,0.33,0.29,0.55,0.58,0.25,0.55,0.67,0.25,0.61,0.25,0.55,0.5,0.58,0.61,0.55,0.76,0.25,0.61,0.25" style="fill:rgb(0,0,0);font-family:URWPalladioL-Roma;font-size:8.97px;stroke:none;">funding acquisition, R.T. and G.L.</text>
   <text y="438.243" x="76.535,81.52,86.999,92.477,97.956,100.942,106.42,111.405" svgx:width="0.56,0.61,0.61,0.61,0.33,0.61,0.56,0.25" style="fill:rgb(0,0,0);font-family:URWPalladioL-Bold;font-size:8.97px;stroke:none;">Funding:</text>
   <text y="438.243" x="116.784,122.341,127.617,130.255,134.0224,136.337,139.755,144.097,147.94,152.283,156.815,160.233,164.258,169.4606,171.772,179.333,183.865,187.63240000000002,189.948,192.966,198.433,203.709,209.247,213.589,219.0607,221.367,226.38,231.4032,233.659,241.192,245.725,248.68,251.318,256.268,261.543,266.076,268.6773,270.953,278.486,283.018,285.974,291.44,295.021,299.553,302.1543,304.43,309.189,313.214,315.852,320.194,325.47,329.495,333.80060000000003,336.076,341.116,346.066,351.532,356.808,362.347,366.879,369.825,372.463,377.413,382.61560000000003,384.927,389.877,392.8371,395.135,401.562,406.838,409.476,414.751,419.284,421.5265,423.789,428.829,432.41,436.943,442.218,445.17810000000003,447.413,452.689,458.155,466.159,471.172,475.514,479.10200000000003,481.334,485.867,490.399,494.932,499.464,503.997,508.529,513.062,517.594" svgx:width="0.61,0.58,0.29,0.42,0.55,0.4,0.48,0.42,0.48,0.5,0.4,0.44,0.58,0.55,0.83,0.5,0.42,0.55,0.33,0.6,0.58,0.61,0.48,0.61,0.55,0.55,0.56,0.55,0.83,0.5,0.33,0.29,0.55,0.58,0.5,0.29,0.55,0.83,0.5,0.33,0.6,0.4,0.5,0.29,0.55,0.52,0.44,0.29,0.48,0.58,0.44,0.48,0.55,0.56,0.55,0.6,0.58,0.61,0.5,0.33,0.29,0.55,0.58,0.55,0.55,0.33,0.55,0.71,0.58,0.29,0.58,0.5,0.25,0.55,0.56,0.4,0.5,0.58,0.33,0.55,0.58,0.6,0.88,0.55,0.48,0.4,0.55,0.5,0.5,0.5,0.5,0.5,0.5,0.5,0.5,0.25" style="fill:rgb(0,0,0);font-family:URWPalladioL-Roma;font-size:8.97px;stroke:none;">This research was funded by National Natural Science Foundation of China, grant number 51675429,</text>
   <text y="448.375" x="76.535,82.947,87.177,92.20020000000001,94.34,99.675,103.004,107.826,109.893,114.124,118.045,121.0051,123.176,127.999,130.9591,133.192,140.531,144.947,147.826,150.396,155.218,160.359,164.775,167.37630000000001,169.597,176.936,181.352,184.231,189.548,193.037,197.453,200.0543,202.275,206.912,210.833,213.403,217.634,222.774,226.695,231.0006,233.178,238.088,242.91,248.236,253.376,258.773,263.188,266.068,268.638,273.46,278.6626,280.852,285.675,288.6351,290.868,297.13,302.27,304.84,309.98,314.396,316.6385,318.856,323.767,327.255,331.671,336.811,339.7711,341.943,347.083,352.408,360.207,365.091,369.322,372.91,375.062,379.478,383.894,388.31,392.726,397.142,401.558,405.974,410.39,412.6325,414.859,417.738,422.878,427.1836,429.361,434.271,439.597,444.737,450.134,454.549,462.348,466.579,471.719,474.589,479.005,481.6063,483.827,489.727,493.957,497.702,501.933,506.349,509.678,513.6" svgx:width="0.73,0.48,0.56,0.55,0.6,0.4,0.55,0.23,0.48,0.44,0.33,0.55,0.55,0.33,0.55,0.83,0.5,0.33,0.29,0.55,0.58,0.5,0.29,0.55,0.83,0.5,0.33,0.6,0.4,0.5,0.29,0.55,0.52,0.44,0.29,0.48,0.58,0.44,0.48,0.55,0.56,0.55,0.6,0.58,0.61,0.5,0.33,0.29,0.55,0.58,0.55,0.55,0.33,0.55,0.71,0.58,0.29,0.58,0.5,0.25,0.55,0.56,0.4,0.5,0.58,0.33,0.55,0.58,0.6,0.88,0.55,0.48,0.4,0.55,0.5,0.5,0.5,0.5,0.5,0.5,0.5,0.5,0.25,0.55,0.33,0.58,0.48,0.55,0.56,0.6,0.58,0.61,0.5,0.88,0.48,0.58,0.33,0.5,0.29,0.55,0.67,0.48,0.42,0.48,0.5,0.4,0.44,0.58" style="fill:rgb(0,0,0);font-family:URWPalladioL-Roma;font-size:8.97px;stroke:none;">Key Project of National Natural Science Foundation of China, grant number 51535009, the Fundamental Research</text>
   <text y="458.507" x="76.535,81.52,86.927,92.146,97.624,101.39139999999999,103.667,106.653,111.549,115.137,117.332,120.255,125.474,129.77960000000002,132.01,138.367,142.662,147.881,150.804,154.345,158.829,161.43030000000002,163.679,170.655,175.874,178.483,183.549,187.844,191.386,195.187,197.797,200.72,203.329,207.624,211.426,213.6685,215.909,220.894,224.436,228.919,234.137,237.0971,239.302,244.521,249.927,257.845,262.803,267.098,270.68600000000004,272.881,277.364,281.848,286.331,290.814,295.297,299.781,304.264,308.747,313.23,317.713,322.197,326.68,331.163,335.646,337.8885,340.129,344.613,349.831,355.3027,357.551,360.474,365.693,369.9986,372.229,376.712,381.196,385.68100000000004,387.92,393.336,396.716,401.612,403.71,408.005,411.986,414.909,417.1515,419.392,424.378,427.92,432.403,437.621,440.5811,442.786,448.004,453.411,461.328,466.287,470.582,474.17,476.365,481.843,486.327,490.81,495.293,499.776,504.259" svgx:width="0.56,0.6,0.58,0.61,0.42,0.55,0.33,0.55,0.4,0.55,0.33,0.58,0.48,0.55,0.71,0.48,0.58,0.33,0.4,0.5,0.29,0.55,0.78,0.58,0.29,0.56,0.48,0.4,0.42,0.29,0.33,0.29,0.48,0.42,0.25,0.55,0.56,0.4,0.5,0.58,0.33,0.55,0.58,0.6,0.88,0.55,0.48,0.4,0.55,0.5,0.5,0.5,0.5,0.5,0.5,0.5,0.5,0.5,0.5,0.5,0.5,0.5,0.5,0.25,0.55,0.5,0.58,0.61,0.55,0.33,0.58,0.48,0.55,0.5,0.5,0.5,0.55,0.6,0.4,0.55,0.23,0.48,0.44,0.33,0.25,0.55,0.56,0.4,0.5,0.58,0.33,0.55,0.58,0.6,0.88,0.55,0.48,0.4,0.55,0.61,0.5,0.5,0.5,0.5,0.5,0.25" style="fill:rgb(0,0,0);font-family:URWPalladioL-Roma;font-size:8.97px;stroke:none;">Funds for the Central Universities, grant number 31020190503004, and the 111 Project, grant number B13044.</text>
   <text y="474.617" x="76.186,83.162,87.143,92.621,98.1,103.085,110.554,113.54,118.023,123.502,128.487,136.458,140.941,146.42,149.406,153.387" svgx:width="0.78,0.44,0.61,0.61,0.56,0.83,0.33,0.5,0.61,0.56,0.89,0.5,0.61,0.33,0.44,0.25" style="fill:rgb(0,0,0);font-family:URWPalladioL-Bold;font-size:8.97px;stroke:none;">Acknowledgments:</text>
   <text y="474.617" x="158.771,164.743,166.977,171.796,174.0385,176.275,183.73,188.611,194.002,196.603,202.0747,204.309,206.91,209.512,214.482,218.7876,221.008,223.922,228.8555,231.047,233.961,239.164,243.634,248.837,253.8602,256.051,258.965,264.168,268.47360000000003,270.694,275.351,280.232,285.61400000000003,287.848,290.861,296.064,298.978,303.26,306.791,311.994,316.464,319.378,321.979,326.86,332.063,336.533,339.1343,341.378,348.333,353.536,356.137,361.188,365.47,369.001,372.792,375.393,378.307,383.3302,385.521,391.475,394.077,397.867,400.468,403.383,405.984,411.187,416.2102,418.401,423.8,427.171,432.052,437.022,440.553,445.023,455.16,458.137,463.018,466.606,468.793,475.819,481.21,484.124,487.914,490.829,495.299,500.501,505.963,508.565,513.768" svgx:width="0.67,0.25,0.61,0.25,0.55,0.83,0.55,0.6,0.29,0.61,0.55,0.29,0.29,0.56,0.48,0.55,0.33,0.55,0.55,0.33,0.58,0.5,0.58,0.56,0.55,0.33,0.58,0.48,0.55,0.61,0.55,0.6,0.55,0.34,0.58,0.33,0.48,0.4,0.58,0.5,0.33,0.29,0.55,0.58,0.5,0.29,0.55,0.78,0.58,0.29,0.56,0.48,0.4,0.42,0.29,0.33,0.56,0.55,0.72,0.29,0.42,0.29,0.33,0.29,0.58,0.56,0.55,0.6,0.4,0.55,0.56,0.4,0.5,0.88,0.33,0.55,0.4,0.55,0.79,0.6,0.33,0.42,0.33,0.5,0.58,0.61,0.29,0.58,0.56" style="fill:rgb(0,0,0);font-family:URWPalladioL-Roma;font-size:8.97px;stroke:none;">R.T. would like to thank the Top International University Visiting Programfor Outstanding</text>
   <text y="484.749" x="76.239,81.395,86.29,91.697,96.916,101.9392,104.142,108.85,112.831,118.049,122.945,125.554,130.037,133.579,137.34640000000002,139.622,144.518,147.4781,149.746,157.197,162.092,165.634,168.557,173.776,181.254,185.548,189.35,192.273,196.568,200.11,205.3126,207.57,212.986,217.881,220.491,225.476,228.399,232.694,236.675,241.893,247.112,249.721,253.702,258.185,260.7863,263.036,270.012,275.23,277.84,282.906,287.201,290.742,294.544,297.153,300.076,304.066" svgx:width="0.67,0.55,0.6,0.58,0.56,0.55,0.52,0.44,0.58,0.55,0.29,0.5,0.4,0.42,0.55,0.55,0.33,0.55,0.83,0.55,0.4,0.33,0.58,0.83,0.48,0.42,0.33,0.48,0.4,0.58,0.55,0.6,0.55,0.29,0.56,0.33,0.48,0.44,0.58,0.58,0.29,0.44,0.5,0.29,0.55,0.78,0.58,0.29,0.56,0.48,0.4,0.42,0.29,0.33,0.56,0.25" style="fill:rgb(0,0,0);font-family:URWPalladioL-Roma;font-size:8.97px;stroke:none;">Young Scholars of Northwestern Polytechnical University.</text>
   <text y="500.859" x="76.535,83.009,87.994,93.473,98.951,101.937,105.918,108.904,112.85079999999999,115.467,120.452,123.9503,126.523,130.011,135.489,138.475,142.958,146.446,150.929,154.91,157.896" svgx:width="0.72,0.56,0.61,0.61,0.33,0.44,0.33,0.44,0.55,0.56,0.39,0.55,0.39,0.61,0.33,0.5,0.39,0.5,0.44,0.33,0.25" style="fill:rgb(0,0,0);font-family:URWPalladioL-Bold;font-size:8.97px;stroke:none;">Conﬂicts of Interest:</text>
   <text y="500.859" x="163.964,169.57,174.893,179.1986,181.862,186.435,191.95,194.931,200.254,205.248,208.86,212.62740000000002,215.317,220.905,225.286,229.347,232.008,236.581,240.029,244.3346,246.998,252.321,257.2545,259.894,263.954,268.948,274.271,279.831,282.493,286.553,289.5131,292.123,297.117,300.07710000000003,302.75,305.412,310.735,313.716,318.097,321.545,325.926,329.803,332.785,335.02750000000003,339.233,344.839,350.162,354.4676,357.131,360.176,365.691,371.014,376.602,380.983,384.595,388.36240000000004,391.052,396.375,400.948,406.4197,409.124,414.447,419.3805,422.02,425.477,430.47,433.132,437.43760000000003,440.092,442.753,447.9556,450.664,453.646,458.968,463.27360000000004,465.928,471.516,475.897,479.775,482.436,487.521,492.72360000000003,495.432,500.426,503.3861,506.06,509.041,514.364" svgx:width="0.61,0.58,0.48,0.55,0.5,0.6,0.33,0.58,0.55,0.4,0.42,0.55,0.61,0.48,0.44,0.29,0.5,0.4,0.48,0.55,0.58,0.55,0.55,0.44,0.55,0.58,0.61,0.29,0.44,0.33,0.55,0.55,0.33,0.55,0.29,0.58,0.33,0.48,0.4,0.48,0.42,0.33,0.25,0.55,0.61,0.58,0.48,0.55,0.33,0.6,0.58,0.61,0.48,0.4,0.42,0.55,0.58,0.5,0.61,0.55,0.58,0.55,0.55,0.4,0.55,0.29,0.48,0.55,0.29,0.58,0.55,0.33,0.58,0.48,0.55,0.61,0.48,0.42,0.29,0.56,0.58,0.55,0.55,0.33,0.55,0.33,0.58,0.48" style="fill:rgb(0,0,0);font-family:URWPalladioL-Roma;font-size:8.97px;stroke:none;">The authors declare no conﬂict of interest. The funders had no role in the design of the</text>
   <text y="510.991" x="76.535,80.344,83.273,88.691,94.18,99.176,101.41850000000001,103.668,106.282,111.4846,113.757,116.686,121.915,126.2206,128.455,132.445,137.35,139.964,142.579,146.882,150.871,153.8,156.415,161.32,166.549,168.7915,171.041,175.533,180.762,185.254,187.869,192.864,196.674,200.977,204.786,207.0285,209.279,214.184,217.772,219.97,222.584,227.813,230.742,235.046,238.594,243.994,247.381,251.685,254.613,259.106,262.035,264.649,269.554,274.7566,277.029,281.935,284.8951,287.173,292.662,297.154,300.083,304.575,306.8175,309.068,311.682,316.88460000000003,319.148,322.077,327.306,331.6116,333.855,341.348,344.897,347.512,350.44,353.055,358.284,363.30719999999997,365.525,370.431,373.3911,375.659,378.588,383.817,388.12260000000003,390.367,398.3,402.792,408.021,413.439,417.248,421.237,424.786,427.4,432.8,435.729,437.9715,440.221,445.126,448.714,450.921,453.536,458.7386,461.002,463.931,469.159,473.4646,475.709,481.198,485.502,489.491,492.105,495.915,498.529,503.435,508.6376,510.91,513.839" svgx:width="0.42,0.33,0.6,0.61,0.56,0.25,0.55,0.29,0.58,0.55,0.33,0.58,0.48,0.55,0.44,0.55,0.29,0.29,0.48,0.44,0.33,0.29,0.55,0.58,0.25,0.55,0.5,0.58,0.5,0.29,0.56,0.42,0.48,0.42,0.25,0.55,0.55,0.4,0.55,0.29,0.58,0.33,0.48,0.4,0.6,0.4,0.48,0.33,0.5,0.33,0.29,0.55,0.58,0.55,0.55,0.33,0.55,0.61,0.5,0.33,0.5,0.25,0.55,0.29,0.58,0.55,0.33,0.58,0.48,0.55,0.83,0.4,0.29,0.33,0.29,0.58,0.56,0.55,0.55,0.33,0.55,0.33,0.58,0.48,0.55,0.88,0.5,0.58,0.6,0.42,0.44,0.4,0.29,0.6,0.33,0.25,0.55,0.55,0.4,0.55,0.29,0.58,0.55,0.33,0.58,0.48,0.55,0.61,0.48,0.44,0.29,0.42,0.29,0.55,0.58,0.55,0.33,0.55" style="fill:rgb(0,0,0);font-family:URWPalladioL-Roma;font-size:8.97px;stroke:none;">study; in the collection, analyses, or interpretation of data; in the writing of the manuscript, or in the decision to</text>
   <text y="521.123" x="76.266,81.655,87.062,92.02,94.629,97.238,101.04,106.24260000000001,108.5,111.423,116.642,120.9476,123.178,126.559,130.853,134.655,140.062,142.671,145.594,149.396" svgx:width="0.6,0.6,0.55,0.29,0.29,0.42,0.58,0.55,0.33,0.58,0.48,0.55,0.4,0.48,0.42,0.6,0.29,0.33,0.42,0.25" style="fill:rgb(0,0,0);font-family:URWPalladioL-Roma;font-size:8.97px;stroke:none;">publish the results.</text>
   <text y="547.424" x="76.535,83.728,88.709,92.585,97.566,101.441,106.423,112.51,116.933,121.915" svgx:width="0.72,0.5,0.39,0.5,0.39,0.5,0.61,0.44,0.5,0.44" style="fill:rgb(0,0,0);font-family:URWPalladioL-Bold;font-size:9.96px;stroke:none;">References</text>
   <text y="566.313" x="76.535,81.018,83.26050000000001,98.05,103.572,108.832,114.282,118.115,123.375,127.894,133.154,135.3965,137.655,143.177,145.4195,147.687,155.198,159.717,164.977,169.912,172.85,176.42,179.05,184.048,188.983,191.613,196.548,201.573,206.5962,208.848,213.368,218.628,224.09969999999998,226.391,233.902,238.421,243.681,248.616,256.597,260.926,264.939,270.199,274.718,279.979,282.609,286.622,290.3894,292.695,297.63,300.5901,302.881,311.431,316.954,325.504" svgx:width="0.5,0.25,0.55,0.61,0.58,0.6,0.42,0.58,0.5,0.58,0.25,0.55,0.61,0.25,0.55,0.83,0.5,0.58,0.55,0.33,0.4,0.29,0.55,0.55,0.29,0.55,0.56,0.56,0.55,0.5,0.58,0.61,0.55,0.83,0.5,0.58,0.55,0.88,0.48,0.44,0.58,0.5,0.58,0.29,0.44,0.42,0.55,0.55,0.33,0.55,0.95,0.61,0.95,0.52" style="fill:rgb(0,0,0);font-family:URWPalladioL-Roma;font-size:8.97px;stroke:none;">1. Bhushan, B. Nanotribology and Nanomechanics of MEMS</text>
   <text y="566.313" x="330.252" svgx:width="0.29" style="fill:rgb(0,0,0);font-family:Rpxr;font-size:8.97px;stroke:none;">/</text>
   <text y="566.313" x="332.845,340.356,345.878,354.428,359.0924,361.415,365.934,371.194,376.6657,378.967,384.489,387.119,392.054,400.604,406.126,414.676" svgx:width="0.83,0.61,0.95,0.52,0.55,0.5,0.58,0.61,0.55,0.61,0.29,0.55,0.95,0.61,0.95,0.52" style="fill:rgb(0,0,0);font-family:URWPalladioL-Roma;font-size:8.97px;stroke:none;">NEMS and BioMEMS</text>
   <text y="566.313" x="419.417" svgx:width="0.29" style="fill:rgb(0,0,0);font-family:Rpxr;font-size:8.97px;stroke:none;">/</text>
   <text y="566.313" x="422.011,427.533,430.163,435.098,442.609,448.131,456.681,461.3454,463.668,472.218,476.737,479.683,484.013,487.583,490.213,494.732,497.362,501.12940000000003,503.436,507.955,513.215" svgx:width="0.61,0.29,0.55,0.83,0.61,0.95,0.52,0.55,0.95,0.5,0.33,0.48,0.4,0.29,0.5,0.29,0.42,0.55,0.5,0.58,0.61" style="fill:rgb(0,0,0);font-family:URWPalladioL-Roma;font-size:8.97px;stroke:none;">BioNEMS Materials and</text>
   <text y="579.225" x="98.05,104.99,109.285,114.351,116.96,120.941,125.236,129.038" svgx:width="0.77,0.48,0.56,0.29,0.44,0.48,0.42,0.25" style="fill:rgb(0,0,0);font-family:URWPalladioL-Roma;font-size:8.97px;stroke:none;">Devices.</text>
   <text y="579.225" x="134.418,142.882,145.375,149.024,152.351,156.332,159.82,162.312,165.8,169.45,172.436,175.762,179.743,184.728,186.97050000000002,190.108,195.587,200.572,205.055" svgx:width="0.94,0.28,0.41,0.39,0.44,0.39,0.28,0.39,0.41,0.33,0.39,0.44,0.56,0.25,0.55,0.61,0.56,0.5,0.25" style="fill:rgb(0,0,0);font-family:URWPalladioL-Ital;font-size:8.97px;stroke:none;">Microelectron. Eng.</text>
   <text y="579.225" x="210.434,214.917,219.4,223.884" svgx:width="0.5,0.5,0.5,0.5" style="fill:rgb(0,0,0);font-family:URWPalladioL-Bold;font-size:8.97px;stroke:none;">2007</text>
   <text y="579.225" x="228.366" svgx:width="0.25" style="fill:rgb(0,0,0);font-family:URWPalladioL-Roma;font-size:8.97px;stroke:none;">,</text>
   <text y="579.225" x="232.85,237.333" svgx:width="0.5,0.5" style="fill:rgb(0,0,0);font-family:URWPalladioL-Ital;font-size:8.97px;stroke:none;">84</text>
   <text y="579.225" x="241.816,244.0585,246.299,250.782,255.266,259.749,264.232,268.715,273.198,277.682,279.9245,283.061" svgx:width="0.25,0.55,0.5,0.5,0.5,0.5,0.5,0.5,0.5,0.25,0.55,0.33" style="fill:rgb(0,0,0);font-family:URWPalladioL-Roma;font-size:8.97px;stroke:none;">, 387–412. [</text>
   <text y="579.225" x="286.047,292.404,295.785,300.68,304.482,308.284,314.274,318.568" svgx:width="0.71,0.4,0.55,0.42,0.42,0.67,0.48,0.33" style="fill:rgb(8,117,183);font-family:URWPalladioL-Roma;font-size:8.97px;stroke:none;">CrossRef</text>
   <text y="579.225" x="321.554" svgx:width="0.33" style="fill:rgb(0,0,0);font-family:URWPalladioL-Roma;font-size:8.97px;stroke:none;">]</text>
   <text y="592.136" x="76.535,81.018,98.054,105.102,107.711,112.185,117.171,119.412,123.887,130.244,135.462,139.757,144.976,149.961,154.444,159.429,161.671,166.504,168.745,173.22,179.577,185.064,184.06,189.045,191.655,196.873,201.347,206.18,208.422,212.905,219.746,224.642,230.121,235.599,240.082,243.463,248.941,253.415,261.557,263.798,270.774,273.016,277.49,280.512,283.533,286.555,291.038,296.024,299.565,302.175,306.156,309.079,311.688,316.584,324.035,331.01,336.229,338.838,342.64,347.536,350.459,353.839,358.735,364.123,371.341,375.825,380.98,388.431,391.04,394.026,398.51,402.993,407.476" svgx:width="0.5,0.25,0.79,0.29,0.25,0.67,0.25,0.25,0.71,0.58,0.48,0.58,0.56,0.25,0.67,0.25,0.61,0.25,0.25,0.71,0.5,0.33,0.56,0.29,0.58,0.25,0.61,0.25,0.25,0.76,0.55,0.61,0.61,0.5,0.4,0.61,0.25,1.0,0.25,0.78,0.25,0.25,0.34,0.34,0.34,0.25,0.56,0.4,0.29,0.44,0.33,0.29,0.55,0.58,0.78,0.58,0.29,0.42,0.55,0.33,0.4,0.55,0.6,0.56,0.5,0.33,0.83,0.29,0.33,0.5,0.5,0.5,0.33" style="fill:rgb(0,0,0);font-family:URWPalladioL-Roma;font-size:8.97px;stroke:none;">2.Qi,Y.;Cheng,Y.T.;Ça˘gin,T.;Goddard,W.A.,III.FrictionAnisotropyatNi(100)</text>
   <text y="592.136" x="410.464" svgx:width="0.29" style="fill:rgb(0,0,0);font-family:Rpxr;font-size:8.97px;stroke:none;">/</text>
   <text y="592.136" x="413.037,416.023,420.506,424.989,429.472,432.4321,434.691,437.713,442.931,445.854,450.149,453.691,456.676,461.16,465.141,469.436,473.237,475.47950000000003,478.617,487.099,491.995,494.604,498.899,502.88,508.287,510.896,515.379" svgx:width="0.33,0.5,0.5,0.5,0.33,0.55,0.34,0.58,0.33,0.48,0.4,0.33,0.5,0.44,0.48,0.42,0.25,0.55,0.95,0.55,0.29,0.48,0.44,0.6,0.29,0.5,0.4" style="fill:rgb(0,0,0);font-family:URWPalladioL-Roma;font-size:8.97px;stroke:none;">(100) Interfaces: Molecular</text>
   <text y="605.048" x="98.05,104.99,109.975,115.194,119.677,127.594,130.204,134.185,137.9524,140.228,144.935,147.858,153.265,158.744,161.353,165.648,169.449" svgx:width="0.77,0.56,0.58,0.5,0.88,0.29,0.44,0.42,0.55,0.52,0.33,0.6,0.61,0.29,0.48,0.42,0.25" style="fill:rgb(0,0,0);font-family:URWPalladioL-Roma;font-size:8.97px;stroke:none;">Dynamics Studies.</text>
   <text y="605.048" x="174.829,180.307,184.791,189.274,192.762,195.0045,198.142,204.122,207.61,211.6,213.8425,216.98" svgx:width="0.61,0.5,0.5,0.39,0.25,0.55,0.67,0.39,0.5,0.25,0.55,0.61" style="fill:rgb(0,0,0);font-family:URWPalladioL-Ital;font-size:8.97px;stroke:none;">Phys. Rev. B</text>
   <text y="605.048" x="224.7,229.183,233.666,238.15" svgx:width="0.5,0.5,0.5,0.5" style="fill:rgb(0,0,0);font-family:URWPalladioL-Bold;font-size:8.97px;stroke:none;">2002</text>
   <text y="605.048" x="242.632" svgx:width="0.25" style="fill:rgb(0,0,0);font-family:URWPalladioL-Roma;font-size:8.97px;stroke:none;">,</text>
   <text y="605.048" x="247.115,251.598" svgx:width="0.5,0.5" style="fill:rgb(0,0,0);font-family:URWPalladioL-Ital;font-size:8.97px;stroke:none;">66</text>
   <text y="605.048" x="256.082,258.3245,260.565,265.048,269.532,274.015,278.498,282.981,287.464,289.7065,292.844" svgx:width="0.25,0.55,0.5,0.5,0.5,0.5,0.5,0.5,0.25,0.55,0.33" style="fill:rgb(0,0,0);font-family:URWPalladioL-Roma;font-size:8.97px;stroke:none;">, 085420. [</text>
   <text y="605.048" x="295.83,302.187,305.568,310.463,314.265,318.067,324.056,328.351" svgx:width="0.71,0.4,0.55,0.42,0.42,0.67,0.48,0.33" style="fill:rgb(8,117,183);font-family:URWPalladioL-Roma;font-size:8.97px;stroke:none;">CrossRef</text>
   <text y="605.048" x="331.337" svgx:width="0.33" style="fill:rgb(0,0,0);font-family:URWPalladioL-Roma;font-size:8.97px;stroke:none;">]</text>
   <text y="617.96" x="76.535,81.018,83.26050000000001,98.05,101.096,106.61,111.933,117.018,119.26050000000001,122.368,127.472,129.758,136.243,138.529,140.7715,144.291,149.879,155.202,160.717,164.594,169.917,174.49,179.813,182.0555,185.163,190.751,192.9935,196.101,202.586,207.579,212.902,215.884,220.456,224.517,227.4771,230.562,237.678,243.001,248.086,250.747,255.128,257.3705,260.679,267.795,273.383,278.706,283.086,286.964,289.626,294.619,299.82160000000005,303.006,307.579,312.901,318.3727,321.553,326.638,330.251,332.912,336.973,339.954,342.616,347.609,352.8116,355.996,361.52,364.977,369.962,375.458,379.839,383.451,386.433,389.094,393.475,397.24240000000003,400.417,405.41,408.37010000000004,411.52,420.172,422.833,426.894,430.351,435.344,438.39,442.963,448.285,453.7567,456.937,464.537,469.11,474.433,479.427,484.923,489.496,492.478,495.459,499.84,503.452,508.775,513.156" svgx:width="0.5,0.25,0.55,0.33,0.6,0.58,0.56,0.25,0.55,0.67,0.25,0.71,0.25,0.25,0.55,0.61,0.58,0.6,0.42,0.58,0.5,0.58,0.25,0.55,0.61,0.25,0.55,0.71,0.55,0.58,0.33,0.5,0.44,0.33,0.55,0.78,0.58,0.56,0.29,0.48,0.25,0.55,0.78,0.61,0.58,0.48,0.42,0.29,0.55,0.58,0.55,0.5,0.58,0.61,0.55,0.56,0.4,0.29,0.44,0.33,0.29,0.55,0.58,0.55,0.6,0.4,0.55,0.6,0.48,0.4,0.33,0.29,0.48,0.42,0.55,0.55,0.33,0.55,0.95,0.29,0.44,0.4,0.55,0.33,0.5,0.58,0.61,0.55,0.83,0.5,0.58,0.55,0.6,0.5,0.33,0.33,0.48,0.4,0.58,0.48,0.61" style="fill:rgb(0,0,0);font-family:URWPalladioL-Roma;font-size:8.97px;stroke:none;">3. Jung, Y.C.; Bhushan, B. Contact Angle, Adhesion and Friction Properties of Micro-and Nanopatterned</text>
   <text y="630.871" x="98.05,103.466,108.361,110.971,115.956,123.873,128.168,131.71,135.47740000000002,137.753,140.739,145.635,149.22299999999998,151.418,156.125,161.532,166.921,171.216,174.596,179.815,184.8,190.278,193.659,198.554,203.943,209.162,214.057,219.016,221.625,225.606,228.215,231.138,235.128" svgx:width="0.6,0.55,0.29,0.56,0.88,0.48,0.4,0.42,0.55,0.33,0.55,0.4,0.55,0.52,0.6,0.6,0.48,0.4,0.58,0.56,0.61,0.4,0.55,0.6,0.58,0.55,0.55,0.29,0.44,0.29,0.33,0.56,0.25" style="fill:rgb(0,0,0);font-family:URWPalladioL-Roma;font-size:8.97px;stroke:none;">Polymers for Superhydrophobicity.</text>
   <text y="630.871" x="240.507,247.483,251.464,256.449,260.43,263.416,266.904,270.553,275.037,280.022,284.003,286.496,290.477,294.96" svgx:width="0.78,0.44,0.56,0.44,0.33,0.39,0.41,0.5,0.56,0.44,0.28,0.44,0.5,0.5" style="fill:rgb(0,0,0);font-family:URWPalladioL-Ital;font-size:8.97px;stroke:none;">Nanotechnology</text>
   <text y="630.871" x="301.683,306.166,310.649,315.133" svgx:width="0.5,0.5,0.5,0.5" style="fill:rgb(0,0,0);font-family:URWPalladioL-Bold;font-size:8.97px;stroke:none;">2006</text>
   <text y="630.871" x="319.616" svgx:width="0.25" style="fill:rgb(0,0,0);font-family:URWPalladioL-Roma;font-size:8.97px;stroke:none;">,</text>
   <text y="630.871" x="324.099,328.582" svgx:width="0.5,0.5" style="fill:rgb(0,0,0);font-family:URWPalladioL-Ital;font-size:8.97px;stroke:none;">17</text>
   <text y="630.871" x="333.066,335.3085,337.549,342.032,346.516,350.999,355.482,359.965,364.449,368.932,373.415,377.898,380.14050000000003,383.278" svgx:width="0.25,0.55,0.5,0.5,0.5,0.5,0.5,0.5,0.5,0.5,0.5,0.25,0.55,0.33" style="fill:rgb(0,0,0);font-family:URWPalladioL-Roma;font-size:8.97px;stroke:none;">, 4970–4980. [</text>
   <text y="630.871" x="386.264,392.621,396.001,400.897,404.699,408.501,414.49,418.785" svgx:width="0.71,0.4,0.55,0.42,0.42,0.67,0.48,0.33" style="fill:rgb(8,117,183);font-family:URWPalladioL-Roma;font-size:8.97px;stroke:none;">CrossRef</text>
   <text y="630.871" x="421.771" svgx:width="0.33" style="fill:rgb(0,0,0);font-family:URWPalladioL-Roma;font-size:8.97px;stroke:none;">]</text>
   <text y="643.783" x="76.535,81.018,83.26050000000001,98.054,106.196,110.679,115.898,120.883,123.1255,125.357,132.817,135.059,137.3015,139.533,146.984,151.467,154.076,156.955,159.19750000000002,161.438,167.427,169.669,171.91150000000002,174.143,180.124,185.02,190.426,192.6685,194.901,203.383,205.624,207.8665,210.108,215.586,220.069,223.611,227.413,232.308,237.527,239.7695,242.001,246.26,248.502,254.491,256.733,258.9755,261.207,266.623,271.519,274.128,276.737,281.22,285.201,290.187,292.4295,294.67,301.646,303.887,309.366,311.607,313.84950000000003,316.082,323.542,328.437,333.396,338.354,342.156,344.3985,346.63,353.14,355.381,357.6235,359.865,362.85,367.746,372.964,378.183,381.985,386.88,392.099,394.3415,396.573,405.055,407.297,412.775,415.017,417.2595,419.5,425.812,433.29,435.9,438.823,443.709,446.588,448.83050000000003,451.071,458.118,460.3605,462.593,467.578,471.12,473.729,477.71,480.633,483.242,488.138,493.3406,495.589,500.296,503.219,508.626,514.105" svgx:width="0.5,0.25,0.55,1.0,0.5,0.58,0.56,0.25,0.55,0.83,0.25,0.25,0.55,0.83,0.5,0.29,0.4,0.25,0.55,0.67,0.25,0.25,0.55,0.67,0.55,0.6,0.25,0.55,0.95,0.25,0.25,0.55,0.61,0.5,0.4,0.42,0.55,0.58,0.25,0.55,0.6,0.25,0.67,0.25,0.25,0.55,0.6,0.55,0.29,0.29,0.5,0.44,0.56,0.25,0.55,0.78,0.25,0.61,0.25,0.25,0.55,0.83,0.55,0.55,0.55,0.42,0.25,0.55,0.73,0.25,0.25,0.55,0.33,0.55,0.58,0.58,0.42,0.55,0.58,0.25,0.55,0.95,0.25,0.61,0.25,0.25,0.55,0.78,0.83,0.29,0.33,0.55,0.4,0.25,0.55,0.79,0.25,0.55,0.56,0.4,0.29,0.44,0.33,0.29,0.55,0.58,0.55,0.52,0.33,0.6,0.61,0.56" style="fill:rgb(0,0,0);font-family:URWPalladioL-Roma;font-size:8.97px;stroke:none;">4. Wang, H.; Nair, R.; Zou, M.; Larson, P.R.; Pollack, A.L.; Hobbs, K.; Johnson, M.B.; Awitor, O. Friction Study</text>
   <text y="656.694" x="98.05,102.946,105.9061,108.173,112.658,114.898,122.349,124.9503,127.2,134.651,139.134,144.353,149.248,154.727,159.622,162.545,165.531,170.947,175.43,178.353,181.276,185.571,189.113,194.331,198.626,204.0977,206.346,211.054,216.46,220.002,222.988,227.471,231.452,235.747" svgx:width="0.55,0.33,0.55,0.5,0.55,0.83,0.29,0.55,0.83,0.5,0.58,0.55,0.61,0.55,0.33,0.33,0.6,0.5,0.33,0.33,0.48,0.4,0.58,0.48,0.61,0.55,0.52,0.6,0.4,0.33,0.5,0.44,0.48,0.25" style="fill:rgb(0,0,0);font-family:URWPalladioL-Roma;font-size:8.97px;stroke:none;">of a Ni Nanodot-Patterned Surface.</text>
   <text y="656.694" x="241.125,245.608,249.096,251.589,255.74,259.721,262.214,264.4565,267.594,272.579,276.067,279.053,282.039" svgx:width="0.61,0.39,0.28,0.46,0.44,0.28,0.25,0.55,0.56,0.39,0.33,0.33,0.25" style="fill:rgb(0,0,0);font-family:URWPalladioL-Ital;font-size:8.97px;stroke:none;">Tribol. Lett.</text>
   <text y="656.694" x="287.418,291.901,296.384,300.868" svgx:width="0.5,0.5,0.5,0.5" style="fill:rgb(0,0,0);font-family:URWPalladioL-Bold;font-size:8.97px;stroke:none;">2007</text>
   <text y="656.694" x="305.351" svgx:width="0.25" style="fill:rgb(0,0,0);font-family:URWPalladioL-Roma;font-size:8.97px;stroke:none;">,</text>
   <text y="656.694" x="309.834,314.317" svgx:width="0.5,0.5" style="fill:rgb(0,0,0);font-family:URWPalladioL-Ital;font-size:8.97px;stroke:none;">28</text>
   <text y="656.694" x="318.8,321.0425,323.283,327.766,332.25,336.733,341.216,345.699,350.183,354.666,356.9085,360.046" svgx:width="0.25,0.55,0.5,0.5,0.5,0.5,0.5,0.5,0.5,0.25,0.55,0.33" style="fill:rgb(0,0,0);font-family:URWPalladioL-Roma;font-size:8.97px;stroke:none;">, 183–189. [</text>
   <text y="656.694" x="363.031,369.389,372.769,377.665,381.466,385.268,391.258,395.553" svgx:width="0.71,0.4,0.55,0.42,0.42,0.67,0.48,0.33" style="fill:rgb(8,117,183);font-family:URWPalladioL-Roma;font-size:8.97px;stroke:none;">CrossRef</text>
   <text y="656.694" x="398.538" svgx:width="0.33" style="fill:rgb(0,0,0);font-family:URWPalladioL-Roma;font-size:8.97px;stroke:none;">]</text>
   <text y="669.606" x="76.535,81.018,83.26050000000001,98.05,102.852,107.845,113.168,118.253,120.4955,124.49,129.594,131.88,134.1225,138.959,146.559,151.132,153.793,156.747,158.98950000000002,162.976,169.085,171.371,173.61350000000002,178.459,184.559,189.553,195.068,197.31050000000002,201.305,209.957,212.244,214.4865,219.322,227.645,232.218,237.541,242.626,244.8685,248.863,253.966,256.253,263.368,265.6105,269.596,276.712,282.3,287.623,292.004,295.881,298.543,303.536,308.7386,312.81,317.383,322.706,328.1777,332.236,337.321,340.933,343.595,347.655,350.637,353.298,358.292,363.4946,367.565,373.09,376.537,381.531,387.028,391.408,395.021,398.002,400.664,405.045,408.8124,412.873,417.867,420.82710000000003,424.854,433.506,436.168,440.228,443.676" svgx:width="0.5,0.25,0.55,0.52,0.55,0.58,0.56,0.25,0.55,0.67,0.25,0.25,0.55,0.83,0.5,0.29,0.4,0.25,0.55,0.67,0.25,0.25,0.55,0.67,0.55,0.6,0.25,0.55,0.95,0.25,0.25,0.55,1.0,0.5,0.58,0.56,0.25,0.55,0.67,0.25,0.78,0.25,0.55,0.78,0.61,0.58,0.48,0.42,0.29,0.55,0.58,0.55,0.5,0.58,0.61,0.55,0.56,0.4,0.29,0.44,0.33,0.29,0.55,0.58,0.55,0.6,0.4,0.55,0.6,0.48,0.4,0.33,0.29,0.48,0.42,0.55,0.55,0.33,0.55,0.95,0.29,0.44,0.4,0.55" style="fill:rgb(0,0,0);font-family:URWPalladioL-Roma;font-size:8.97px;stroke:none;">5. Song, Y.; Nair, R.; Zou, M.; Wang, Y.A. Adhesion and Friction Properties of Micro</text>
   <text y="669.606" x="448.673" svgx:width="0.29" style="fill:rgb(0,0,0);font-family:Rpxr;font-size:8.97px;stroke:none;">/</text>
   <text y="669.606" x="451.297,458.897,463.47,468.793,473.786,478.167,483.49,488.575,491.236,496.559,500.94,505.321,508.769,513.15" svgx:width="0.83,0.5,0.58,0.55,0.48,0.58,0.56,0.29,0.58,0.48,0.48,0.4,0.48,0.61" style="fill:rgb(0,0,0);font-family:URWPalladioL-Roma;font-size:8.97px;stroke:none;">Nanoengineered</text>
   <text y="682.518" x="98.05,102.757,108.164,113.553,117.848,121.228,126.447,131.432,136.91,140.291,145.186,150.575,155.794,160.689,165.648,168.257" svgx:width="0.52,0.6,0.6,0.48,0.4,0.58,0.56,0.61,0.4,0.55,0.6,0.58,0.55,0.55,0.29,0.44" style="fill:rgb(0,0,0);font-family:URWPalladioL-Roma;font-size:8.97px;stroke:none;">Superhydrophobic</text>
   <text y="682.518" x="172.237" svgx:width="0.29" style="fill:rgb(0,0,0);font-family:Rpxr;font-size:8.97px;stroke:none;">/</text>
   <text y="682.518" x="174.811,182.271,187.256,192.735,196.115,201.011,206.4,211.618,216.514,221.472,224.081,228.02779999999998,230.304,235.011,240.418,243.96,246.946,251.429,255.41,259.705,263.507" svgx:width="0.83,0.56,0.61,0.4,0.55,0.6,0.58,0.55,0.55,0.29,0.44,0.55,0.52,0.6,0.4,0.33,0.5,0.44,0.48,0.42,0.25" style="fill:rgb(0,0,0);font-family:URWPalladioL-Roma;font-size:8.97px;stroke:none;">Hydrophobic Surfaces.</text>
   <text y="682.518" x="268.885,274.363,278.847,281.339,286.3622,288.566,293.552,297.533,300.025,302.518,307.003,309.243,314.228,316.721,319.213,326.189" svgx:width="0.61,0.5,0.28,0.56,0.55,0.56,0.44,0.28,0.28,0.5,0.55,0.56,0.28,0.28,0.78,0.39" style="fill:rgb(0,0,0);font-family:URWPalladioL-Ital;font-size:8.97px;stroke:none;">Thin Solid Films</text>
   <text y="682.518" x="331.918,336.401,340.884,345.368" svgx:width="0.5,0.5,0.5,0.5" style="fill:rgb(0,0,0);font-family:URWPalladioL-Bold;font-size:8.97px;stroke:none;">2010</text>
   <text y="682.518" x="349.85" svgx:width="0.25" style="fill:rgb(0,0,0);font-family:URWPalladioL-Roma;font-size:8.97px;stroke:none;">,</text>
   <text y="682.518" x="354.334,358.817,363.3" svgx:width="0.5,0.5,0.5" style="fill:rgb(0,0,0);font-family:URWPalladioL-Ital;font-size:8.97px;stroke:none;">518</text>
   <text y="682.518" x="367.783,370.0255,372.266,376.749,381.233,385.716,390.199,394.682,399.166,403.649,408.132,412.615,414.8575,417.995" svgx:width="0.25,0.55,0.5,0.5,0.5,0.5,0.5,0.5,0.5,0.5,0.5,0.25,0.55,0.33" style="fill:rgb(0,0,0);font-family:URWPalladioL-Roma;font-size:8.97px;stroke:none;">, 3801–3807. [</text>
   <text y="682.518" x="420.981,427.338,430.718,435.614,439.416,443.217,449.207,453.502" svgx:width="0.71,0.4,0.55,0.42,0.42,0.67,0.48,0.33" style="fill:rgb(8,117,183);font-family:URWPalladioL-Roma;font-size:8.97px;stroke:none;">CrossRef</text>
   <text y="682.518" x="456.488" svgx:width="0.33" style="fill:rgb(0,0,0);font-family:URWPalladioL-Roma;font-size:8.97px;stroke:none;">]</text>
   <text y="695.429" x="76.535,81.018,83.26050000000001,98.05,102.936,105.493,109.702,117.461,120.018,125.132,130.017,132.2595,133.963,139.833,142.029,148.866,151.062,153.30450000000002,155.166,161.027,165.825,171.123,173.3655,175.069,183.381,185.6235,187.327,194.629,199.022,204.136,208.934,212.66,215.524,218.925,224.224,228.125,230.99,236.288,239.601,243.801,246.727,251.296,255.506,260.04,262.904,268.203,271.507,275.716,281.1877,282.833,287.447,292.745,296.216,299.142,303.536,307.437,311.646,315.4134,317.12,324.449,327.006,329.871,335.0736,336.733,342.102,346.9,355.977,360.863,364.333,366.882,370.783,373.648,376.205,381.002,386.2046,387.865,392.259,397.373,402.8447,404.49,411.801,414.358,419.244,424.44660000000005,426.107,432.908,437.117,440.043,444.841,448.311,456.07,460.464,463.329,465.886,470.683,475.8856,477.546,483.416,487.625,491.35,493.908,497.633,500.498,504.891,510.005,513.907,518.116" svgx:width="0.5,0.25,0.55,0.56,0.29,0.48,0.88,0.29,0.58,0.56,0.25,0.55,0.67,0.25,0.78,0.25,0.25,0.55,0.67,0.55,0.6,0.25,0.55,0.95,0.25,0.55,0.83,0.5,0.58,0.55,0.42,0.33,0.4,0.6,0.44,0.33,0.6,0.4,0.48,0.33,0.61,0.48,0.52,0.33,0.6,0.4,0.48,0.61,0.55,0.52,0.6,0.4,0.33,0.5,0.44,0.48,0.42,0.55,0.83,0.29,0.33,0.58,0.55,0.61,0.55,0.83,0.56,0.4,0.29,0.44,0.33,0.29,0.55,0.58,0.55,0.5,0.58,0.61,0.55,0.83,0.29,0.56,0.58,0.55,0.77,0.48,0.33,0.55,0.4,0.88,0.5,0.33,0.29,0.55,0.58,0.55,0.67,0.48,0.42,0.29,0.42,0.33,0.5,0.58,0.44,0.48,0.25" style="fill:rgb(0,0,0);font-family:URWPalladioL-Roma;font-size:8.97px;stroke:none;">6. Fleming, R.A.; Zou, M. Nanostructure-Textured Surfaces with LowFriction and High Deformation Resistance.</text>
   <text y="708.341" x="97.504,101.987,105.475,107.968,112.119,116.1,118.593,120.83550000000001,123.973,128.456,131.944,135.925,140.91,144.398" svgx:width="0.61,0.39,0.28,0.46,0.44,0.28,0.25,0.55,0.61,0.39,0.44,0.56,0.39,0.25" style="fill:rgb(0,0,0);font-family:URWPalladioL-Ital;font-size:8.97px;stroke:none;">Tribol. Trans.</text>
   <text y="708.341" x="149.777,154.26,158.743,163.227" svgx:width="0.5,0.5,0.5,0.5" style="fill:rgb(0,0,0);font-family:URWPalladioL-Bold;font-size:8.97px;stroke:none;">2018</text>
   <text y="708.341" x="167.709" svgx:width="0.25" style="fill:rgb(0,0,0);font-family:URWPalladioL-Roma;font-size:8.97px;stroke:none;">,</text>
   <text y="708.341" x="172.193,176.676" svgx:width="0.5,0.5" style="fill:rgb(0,0,0);font-family:URWPalladioL-Ital;font-size:8.97px;stroke:none;">61</text>
   <text y="708.341" x="181.159,183.4015,185.642,190.125,194.609,199.092,203.575,208.058,210.3005,213.438" svgx:width="0.25,0.55,0.5,0.5,0.5,0.5,0.5,0.25,0.55,0.33" style="fill:rgb(0,0,0);font-family:URWPalladioL-Roma;font-size:8.97px;stroke:none;">, 80–87. [</text>
   <text y="708.341" x="216.424,222.781,226.161,231.057,234.859,238.661,244.65,248.945" svgx:width="0.71,0.4,0.55,0.42,0.42,0.67,0.48,0.33" style="fill:rgb(8,117,183);font-family:URWPalladioL-Roma;font-size:8.97px;stroke:none;">CrossRef</text>
   <text y="708.341" x="251.931" svgx:width="0.33" style="fill:rgb(0,0,0);font-family:URWPalladioL-Roma;font-size:8.97px;stroke:none;">]</text>
   <text y="721.252" x="76.535,81.018,83.26050000000001,98.05,103.327,107.708,112.089,114.3315,117.064,122.167,124.454,126.6965,129.648,136.133,141.456,146.971,152.293,154.5355,157.269,163.908,166.195,168.4375,171.399,176.987,181.368,185.748,187.9905,190.715,193.76,196.047,203.125,205.412,207.6545,210.616,217.255,219.917,227.993,230.2355,232.968,239.452,241.739,244.784,247.83,250.07250000000002,252.805,258.329,263.323,265.984,271.069,274.947,277.608,280.27,282.931,286.992,291.985,297.18760000000003,299.988,304.789,310.304,313.917,316.962,321.535,325.596,329.977,333.022,341.674,346.667,352.256,354.917,360.45,364.511,369.084,372.065,374.727,379.72,384.92260000000005,387.732,392.515,396.896,400.957,406.279,411.602,414.264,419.385,424.9,429.2056,431.97,434.951,439.8845,442.634,448.743,453.124,458.712,464.227,468.287,472.5926,475.357,480.158,483.14,485.801,489.862,494.947,497.609,502.931,507.95419999999996,510.705,515.699" svgx:width="0.5,0.25,0.55,0.67,0.48,0.48,0.25,0.55,0.67,0.25,0.25,0.55,0.71,0.58,0.6,0.58,0.25,0.55,0.73,0.25,0.25,0.55,0.61,0.48,0.48,0.25,0.55,0.33,0.25,0.77,0.25,0.25,0.55,0.73,0.29,0.88,0.25,0.55,0.71,0.25,0.33,0.33,0.25,0.55,0.6,0.55,0.29,0.56,0.42,0.29,0.29,0.29,0.44,0.55,0.58,0.55,0.52,0.6,0.4,0.33,0.5,0.44,0.48,0.33,0.95,0.55,0.61,0.29,0.61,0.44,0.5,0.33,0.29,0.55,0.58,0.55,0.61,0.48,0.44,0.58,0.58,0.29,0.56,0.6,0.48,0.55,0.33,0.55,0.55,0.67,0.48,0.61,0.6,0.44,0.48,0.55,0.52,0.33,0.29,0.44,0.56,0.29,0.58,0.56,0.55,0.55,0.33" style="fill:rgb(0,0,0);font-family:URWPalladioL-Roma;font-size:8.97px;stroke:none;">7. Yee, Y.; Chun, K.; Lee, J.D.; Kim, C.-J. Polysilicon Surface-Modiﬁcation Technique to Reduce Sticking of</text>
   <text y="734.164" x="98.05,106.532,109.141,113.123,116.503,121.399,125.2,128.123,131.593,137.0,140.981,143.904,149.311,152.691,156.986,160.788" svgx:width="0.95,0.29,0.44,0.4,0.55,0.42,0.33,0.4,0.6,0.44,0.33,0.6,0.4,0.48,0.42,0.25" style="fill:rgb(0,0,0);font-family:URWPalladioL-Roma;font-size:8.97px;stroke:none;">Microstructures.</text>
   <text y="734.164" x="166.167,171.152,174.64,179.626,183.113,185.3555,188.493,194.967,198.616,201.602,206.588,210.569,213.554,217.536,221.023,224.5213,226.753" svgx:width="0.56,0.39,0.56,0.39,0.25,0.55,0.72,0.41,0.33,0.56,0.44,0.33,0.44,0.39,0.39,0.55,0.72" style="fill:rgb(0,0,0);font-family:URWPalladioL-Ital;font-size:8.97px;stroke:none;">Sens. Actuators A</text>
   <text y="734.164" x="235.467,239.95,244.433,248.917" svgx:width="0.5,0.5,0.5,0.5" style="fill:rgb(0,0,0);font-family:URWPalladioL-Bold;font-size:8.97px;stroke:none;">1996</text>
   <text y="734.164" x="253.4" svgx:width="0.25" style="fill:rgb(0,0,0);font-family:URWPalladioL-Roma;font-size:8.97px;stroke:none;">,</text>
   <text y="734.164" x="257.883,262.366" svgx:width="0.5,0.5" style="fill:rgb(0,0,0);font-family:URWPalladioL-Ital;font-size:8.97px;stroke:none;">52</text>
   <text y="734.164" x="266.85,269.09250000000003,271.333,275.816,280.3,284.783,289.266,293.749,298.232,302.716,304.9585,308.096" svgx:width="0.25,0.55,0.5,0.5,0.5,0.5,0.5,0.5,0.5,0.25,0.55,0.33" style="fill:rgb(0,0,0);font-family:URWPalladioL-Roma;font-size:8.97px;stroke:none;">, 145–150. [</text>
   <text y="734.164" x="311.081,317.439,320.819,325.715,329.516,333.318,339.308,343.602" svgx:width="0.71,0.4,0.55,0.42,0.42,0.67,0.48,0.33" style="fill:rgb(8,117,183);font-family:URWPalladioL-Roma;font-size:8.97px;stroke:none;">CrossRef</text>
   <text y="734.164" x="346.588" svgx:width="0.33" style="fill:rgb(0,0,0);font-family:URWPalladioL-Roma;font-size:8.97px;stroke:none;">]</text>
   <text y="747.076" x="76.535,81.018,83.26050000000001,98.05,104.15,109.144,114.659,116.90150000000001,119.405,128.057,130.344,132.5865,135.191,141.675,146.248,148.909,151.1515,153.656,159.244,161.531,163.7735,166.378,174.7,179.273,184.596,189.681,191.92350000000002,194.428,202.037,204.2795,206.784,213.899,219.487,224.81,229.191,233.068,235.73,240.723,245.9256,248.497,253.07,258.393,263.86469999999997,266.441,271.526,275.139,277.8,281.861,284.842,287.504,292.497,297.69960000000003,300.28,305.082,308.054,313.569,319.157,321.819,326.199,329.9664,332.537,337.531,340.4911,343.037,347.522,350.07,357.67,362.243,367.565,372.559,375.605,380.379,384.759,389.479,392.46,397.975,401.432,405.813,411.2847,413.852,418.653,424.168,427.781,430.826,435.399,439.46,443.7656,446.301,451.825,455.273,460.267,465.855,471.369,475.43,479.811,485.2827,487.859,492.917,497.94019999999995,500.462,505.263,510.76,513.421" svgx:width="0.5,0.25,0.55,0.67,0.55,0.6,0.25,0.55,0.95,0.25,0.25,0.55,0.71,0.5,0.29,0.25,0.55,0.61,0.25,0.25,0.55,1.0,0.5,0.58,0.56,0.25,0.55,0.83,0.25,0.55,0.78,0.61,0.58,0.48,0.42,0.29,0.55,0.58,0.55,0.5,0.58,0.61,0.55,0.56,0.4,0.29,0.44,0.33,0.29,0.55,0.58,0.55,0.52,0.33,0.6,0.61,0.29,0.48,0.42,0.55,0.55,0.33,0.55,0.5,0.55,0.83,0.5,0.58,0.55,0.33,0.61,0.48,0.52,0.33,0.6,0.4,0.48,0.61,0.55,0.52,0.6,0.4,0.33,0.5,0.44,0.48,0.55,0.6,0.4,0.55,0.61,0.6,0.44,0.48,0.61,0.55,0.55,0.56,0.55,0.52,0.6,0.29,0.58" style="fill:rgb(0,0,0);font-family:URWPalladioL-Roma;font-size:8.97px;stroke:none;">8. Zou, M.; Cai, L.; Wang, H. Adhesion and Friction Studies of a Nano-Textured Surface Produced by Spin</text>
   <text y="759.987" x="98.05,104.407,109.303,113.786,116.709,119.318,124.537,129.5602,131.764,136.659,139.6191,141.887,148.244,153.14,155.749,158.358,163.254,165.863,171.341,175.825,178.4263,180.675,185.383,187.992,190.601,193.21,197.192,201.67700000000002,203.916,211.367,215.851,221.069,225.965,231.354,235.837,239.378,242.301,244.911,248.892,251.501,255.8066,258.038,262.745,267.641,270.25,275.657,278.58,281.189,286.084,291.303" svgx:width="0.71,0.55,0.5,0.33,0.29,0.58,0.56,0.55,0.55,0.33,0.55,0.71,0.55,0.29,0.29,0.55,0.29,0.61,0.5,0.29,0.55,0.52,0.29,0.29,0.29,0.44,0.5,0.55,0.83,0.5,0.58,0.55,0.6,0.5,0.4,0.33,0.29,0.44,0.29,0.48,0.55,0.52,0.55,0.29,0.6,0.33,0.29,0.55,0.58,0.25" style="fill:rgb(0,0,0);font-family:URWPalladioL-Roma;font-size:8.97px;stroke:none;">Coating of Colloidal Silica Nanoparticle Solution.</text>
   <text y="759.987" x="296.68,301.163,304.651,307.144,311.295,315.276,317.769,320.0115,323.149,328.134,331.622,334.608,337.594" svgx:width="0.61,0.39,0.28,0.46,0.44,0.28,0.25,0.55,0.56,0.39,0.33,0.33,0.25" style="fill:rgb(0,0,0);font-family:URWPalladioL-Ital;font-size:8.97px;stroke:none;">Tribol. Lett.</text>
   <text y="759.987" x="342.973,347.456,351.939,356.423" svgx:width="0.5,0.5,0.5,0.5" style="fill:rgb(0,0,0);font-family:URWPalladioL-Bold;font-size:8.97px;stroke:none;">2006</text>
   <text y="759.987" x="360.906" svgx:width="0.25" style="fill:rgb(0,0,0);font-family:URWPalladioL-Roma;font-size:8.97px;stroke:none;">,</text>
   <text y="759.987" x="365.389,369.872" svgx:width="0.5,0.5" style="fill:rgb(0,0,0);font-family:URWPalladioL-Ital;font-size:8.97px;stroke:none;">21</text>
   <text y="759.987" x="374.355,376.5975,378.838,383.321,387.805,392.288,396.771,401.254,403.4965,406.634" svgx:width="0.25,0.55,0.5,0.5,0.5,0.5,0.5,0.25,0.55,0.33" style="fill:rgb(0,0,0);font-family:URWPalladioL-Roma;font-size:8.97px;stroke:none;">, 25–30. [</text>
   <text y="759.987" x="409.62,415.977,419.357,424.253,428.055,431.857,437.846,442.141" svgx:width="0.71,0.4,0.55,0.42,0.42,0.67,0.48,0.33" style="fill:rgb(8,117,183);font-family:URWPalladioL-Roma;font-size:8.97px;stroke:none;">CrossRef</text>
   <text y="759.987" x="445.127" svgx:width="0.33" style="fill:rgb(0,0,0);font-family:URWPalladioL-Roma;font-size:8.97px;stroke:none;">]</text>
  </g>
 </g>
</svg>
