<?xml version="1.0" encoding="UTF-8"?>
<svg height="809.37" width="4486.363" xmlns="http://www.w3.org/2000/svg">
 <g id="page" xmlns:svgx="http://www.xml-cml.org/schema/svgx">
  <g begin="text">
   <text y="72.577" x="115.572,125.374,136.562,150.572,160.373,172.972,182.774" svgx:width="0.39,0.44,0.56,0.39,0.5,0.39,0.39" style="fill:rgb(27,115,117);font-family:TimesNewRomanPS-BoldItalicMT;font-size:25.2px;stroke:none;">sensors</text>
  </g>
  <path style="fill:rgb(27,115,117);stroke:none;stroke-width:1.0;" d="M76.54 49.3 L110.49 49.3 L110.49 83.25 L76.54 83.25 L76.54 49.3 "/>
  <path style="fill:rgb(148,198,200);stroke:none;stroke-width:1.0;" d="M87.54 72.25 L99.48 72.25 L99.48 60.31 L87.54 60.31 L87.54 72.25 M90.95 76.51 C90.95 76.98 91.34 77.36 91.81 77.36 C92.28 77.36 92.66 76.98 92.66 76.51 L92.66 73.95 L90.95 73.95 L90.95 76.51 ZM87.54 76.51 C87.54 76.98 87.93 77.36 88.4 77.36 C88.86 77.36 89.25 76.98 89.25 76.51 L89.25 73.95 L87.54 73.95 L87.54 76.51 ZM97.78 76.51 C97.78 76.98 98.16 77.36 98.63 77.36 C99.1 77.36 99.48 76.98 99.48 76.51 L99.48 73.95 L97.78 73.95 L97.78 76.51 ZM103.74 63.72 L101.19 63.72 L101.19 65.42 L103.74 65.42 C104.21 65.42 104.6 65.04 104.6 64.569 C104.6 64.099 104.21 63.72 103.74 63.72 ZM103.74 67.13 L101.19 67.13 L101.19 68.84 L103.74 68.84 C104.21 68.84 104.6 68.45 104.6 67.98 C104.6 67.51 104.21 67.13 103.74 67.13 ZM98.63 55.19 C98.16 55.19 97.78 55.58 97.78 56.04 L97.78 58.6 L99.48 58.6 L99.48 56.04 C99.48 55.58 99.1 55.19 98.63 55.19 ZM103.74 70.54 L101.19 70.54 L101.19 72.25 L103.74 72.25 C104.21 72.25 104.6 71.86 104.6 71.39 C104.6 70.92 104.21 70.54 103.74 70.54 L103.74 70.54 ZM94.36 76.51 C94.36 76.98 94.75 77.36 95.22 77.36 C95.69 77.36 96.07 76.98 96.07 76.51 L96.07 73.95 L94.36 73.95 L94.36 76.51 ZM92.66 56.04 C92.66 55.58 92.28 55.19 91.81 55.19 C91.34 55.19 90.95 55.58 90.95 56.04 L90.95 58.6 L92.66 58.6 L92.66 56.04 ZM89.25 56.04 C89.25 55.58 88.86 55.19 88.4 55.19 C87.93 55.19 87.54 55.58 87.54 56.04 L87.54 58.6 L89.25 58.6 L89.25 56.04 ZM104.6 61.16 C104.6 60.69 104.21 60.31 103.74 60.31 L101.19 60.31 L101.19 62.01 L103.74 62.01 C104.21 62.01 104.6 61.63 104.6 61.16 ZM96.07 56.04 C96.07 55.58 95.69 55.19 95.22 55.19 C94.75 55.19 94.36 55.58 94.36 56.04 L94.36 58.6 L96.07 58.6 L96.07 56.04 ZM82.43 71.39 C82.43 71.86 82.81 72.25 83.28 72.25 L85.84 72.25 L85.84 70.54 L83.28 70.54 C82.81 70.54 82.43 70.93 82.43 71.39 L82.43 71.39 ZM82.43 64.569 C82.43 65.04 82.81 65.42 83.28 65.42 L85.84 65.42 L85.84 63.72 L83.28 63.72 C82.81 63.72 82.43 64.099 82.43 64.569 ZM82.43 67.98 C82.43 68.45 82.81 68.84 83.28 68.84 L85.84 68.84 L85.84 67.13 L83.28 67.13 C82.81 67.13 82.43 67.51 82.43 67.98 ZM82.43 61.16 C82.43 61.63 82.81 62.01 83.28 62.01 L85.84 62.01 L85.84 60.31 L83.28 60.31 C82.81 60.31 82.43 60.69 82.43 61.16 "/>
  <path style="fill:rgb(58,151,152);stroke:none;stroke-width:1.0;" d="M82.43 71.39 C82.43 71.49 82.45 71.59 82.48 71.67 C82.59 71.34 82.91 71.1 83.28 71.1 L85.84 71.1 L85.84 70.54 L83.28 70.54 C82.81 70.54 82.43 70.92 82.43 71.39 "/>
  <path style="fill:rgb(58,151,152);stroke:none;stroke-width:1.0;" d="M88.4 55.75 C88.86 55.75 89.25 56.14 89.25 56.6 L89.25 56.04 C89.25 55.58 88.86 55.19 88.4 55.19 C87.93 55.19 87.54 55.58 87.54 56.04 L87.54 56.6 C87.54 56.14 87.93 55.75 88.4 55.75 "/>
  <path style="fill:rgb(58,151,152);stroke:none;stroke-width:1.0;" d="M82.43 64.569 C82.43 64.67 82.45 64.76 82.48 64.849 C82.59 64.519 82.91 64.28 83.28 64.28 L85.84 64.28 L85.84 63.72 L83.28 63.72 C82.81 63.72 82.43 64.099 82.43 64.569 "/>
  <path style="fill:rgb(58,151,152);stroke:none;stroke-width:1.0;" d="M82.43 67.98 C82.43 68.08 82.45 68.17 82.48 68.26 C82.59 67.93 82.91 67.69 83.28 67.69 L85.84 67.69 L85.84 67.13 L83.28 67.13 C82.81 67.13 82.43 67.51 82.43 67.98 "/>
  <path style="fill:rgb(58,151,152);stroke:none;stroke-width:1.0;" d="M91.81 55.75 C92.28 55.75 92.66 56.14 92.66 56.6 L92.66 56.04 C92.66 55.58 92.28 55.19 91.81 55.19 C91.34 55.19 90.95 55.58 90.95 56.04 L90.95 56.6 C90.95 56.14 91.34 55.75 91.81 55.75 "/>
  <path style="fill:rgb(58,151,152);stroke:none;stroke-width:1.0;" d="M82.43 61.16 C82.43 61.26 82.45 61.35 82.48 61.44 C82.59 61.11 82.91 60.87 83.28 60.87 L85.84 60.87 L85.84 60.31 L83.28 60.31 C82.81 60.31 82.43 60.69 82.43 61.16 "/>
  <path style="fill:rgb(58,151,152);stroke:none;stroke-width:1.0;" d="M104.55 61.44 C104.58 61.35 104.6 61.26 104.6 61.16 C104.6 60.69 104.21 60.31 103.74 60.31 L101.19 60.31 L101.19 60.87 L103.74 60.87 C104.12 60.87 104.43 61.11 104.55 61.44 "/>
  <path style="fill:rgb(58,151,152);stroke:none;stroke-width:1.0;" d="M95.22 55.75 C95.69 55.75 96.07 56.14 96.07 56.6 L96.07 56.04 C96.07 55.58 95.69 55.19 95.22 55.19 C94.75 55.19 94.36 55.58 94.36 56.04 L94.36 56.6 C94.36 56.14 94.75 55.75 95.22 55.75 "/>
  <path style="fill:rgb(58,151,152);stroke:none;stroke-width:1.0;" d="M98.63 55.19 C98.16 55.19 97.78 55.58 97.78 56.04 L97.78 56.6 C97.78 56.14 98.16 55.75 98.63 55.75 C99.1 55.75 99.48 56.14 99.48 56.6 L99.48 56.04 C99.48 55.58 99.1 55.19 98.63 55.19 "/>
  <path style="fill:rgb(58,151,152);stroke:none;stroke-width:1.0;" d="M103.74 67.13 L101.19 67.13 L101.19 67.69 L103.74 67.69 C104.12 67.69 104.43 67.93 104.55 68.26 C104.58 68.17 104.6 68.08 104.6 67.98 C104.6 67.51 104.21 67.13 103.74 67.13 "/>
  <path style="fill:rgb(58,151,152);stroke:none;stroke-width:1.0;" d="M87.54 60.87 L99.48 60.87 L99.48 60.31 L87.54 60.31 L87.54 60.87 "/>
  <path style="fill:rgb(58,151,152);stroke:none;stroke-width:1.0;" d="M103.74 70.54 L101.19 70.54 L101.19 71.1 L103.74 71.1 C104.12 71.1 104.43 71.34 104.55 71.67 C104.58 71.59 104.6 71.49 104.6 71.39 C104.6 70.93 104.21 70.54 103.74 70.54 "/>
  <path style="fill:rgb(58,151,152);stroke:none;stroke-width:1.0;" d="M103.74 63.72 L101.19 63.72 L101.19 64.28 L103.74 64.28 C104.12 64.28 104.43 64.519 104.55 64.849 C104.58 64.76 104.6 64.67 104.6 64.569 C104.6 64.099 104.21 63.72 103.74 63.72 "/>
  <path style="fill:rgb(58,151,152);stroke:none;stroke-width:1.0;" d="M94.36 74.51 L96.07 74.51 L96.07 73.95 L94.36 73.95 L94.36 74.51 "/>
  <path style="fill:rgb(58,151,152);stroke:none;stroke-width:1.0;" d="M90.95 74.51 L92.66 74.51 L92.66 73.95 L90.95 73.95 L90.95 74.51 "/>
  <path style="fill:rgb(58,151,152);stroke:none;stroke-width:1.0;" d="M87.54 74.51 L89.25 74.51 L89.25 73.95 L87.54 73.95 L87.54 74.51 "/>
  <path style="fill:rgb(58,151,152);stroke:none;stroke-width:1.0;" d="M97.78 74.51 L99.48 74.51 L99.48 73.95 L97.78 73.95 L97.78 74.51 "/>
  <path style="fill:rgb(27,115,117);stroke:none;stroke-width:1.0;" d="M89.99 61.98 L97.04 61.98 C97.56 61.98 97.98 62.33 97.98 62.77 L97.98 62.77 C97.98 63.2 97.56 63.55 97.04 63.55 L89.99 63.55 C89.46 63.55 89.04 63.2 89.04 62.77 L89.04 62.77 C89.04 62.33 89.46 61.98 89.99 61.98 "/>
  <rect style="stroke:blue;stroke-width:0.3;" x="476.363" y="13.209" height="27.476" width="41.6" title="1"/>
  <text y="13.209" class="image" id="image.1.1" width="41" height="27" x="476.363">image.1.1.476_518.13_41</text>
  <rect style="stroke:blue;stroke-width:0.3;" x="476.363" y="13.209" height="27.476" width="41.6" title="1"/>
  <text y="13.209" class="image" id="image.1.2" width="41" height="27" x="476.363">image.1.2.476_518.13_41</text>
  <rect style="stroke:blue;stroke-width:0.3;" x="476.363" y="13.209" height="27.476" width="41.6" title="1"/>
  <text y="13.209" class="image" id="image.1.3" width="41" height="27" x="476.363">image.1.3.476_518.13_41</text>
  <rect style="stroke:blue;stroke-width:0.3;" x="476.363" y="13.209" height="27.476" width="41.6" title="1"/>
  <text y="13.209" class="image" id="image.1.4" width="41" height="27" x="476.363">image.1.4.476_518.13_41</text>
  <rect style="stroke:blue;stroke-width:0.3;" x="476.363" y="13.209" height="27.476" width="41.6" title="1"/>
  <text y="13.209" class="image" id="image.1.5" width="41" height="27" x="476.363">image.1.5.476_518.13_41</text>
  <rect style="stroke:blue;stroke-width:0.3;" x="476.363" y="13.209" height="27.476" width="41.6" title="1"/>
  <text y="13.209" class="image" id="image.1.6" width="41" height="27" x="476.363">image.1.6.476_518.13_41</text>
  <rect style="stroke:blue;stroke-width:0.3;" x="476.363" y="13.209" height="27.476" width="41.6" title="1"/>
  <text y="13.209" class="image" id="image.1.7" width="41" height="27" x="476.363">image.1.7.476_518.13_41</text>
  <rect style="stroke:blue;stroke-width:0.3;" x="476.363" y="13.209" height="27.476" width="41.6" title="1"/>
  <text y="13.209" class="image" id="image.1.8" width="41" height="27" x="476.363">image.1.8.476_518.13_41</text>
  <g begin="text">
   <text y="108.46" x="76.177,83.37,87.245,90.563,93.333,97.387,100.157" svgx:width="0.72,0.39,0.33,0.28,0.41,0.28,0.39" style="fill:rgb(0,0,0);font-family:URWPalladioL-Ital;font-size:9.96px;stroke:none;">Article</text>
   <text y="127.727" x="76.535,87.492,96.458,107.415,116.382,123.358,129.329,145.271,154.238,165.195,171.166,180.133,186.0499,190.588,203.535,212.501,220.464,229.43,238.396,245.372,253.334,264.2713,268.775,278.745,289.6823,294.185,301.161,312.118,318.09,327.056,334.032,341.008,349.974,356.95,366.921,382.863,391.829,397.801,404.777,410.749,418.63820000000004,423.194,430.17,441.127,451.097,460.064,467.04,475.002" svgx:width="0.61,0.5,0.61,0.5,0.39,0.33,0.89,0.5,0.61,0.33,0.5,0.33,0.55,0.72,0.5,0.44,0.5,0.5,0.39,0.44,0.61,0.55,0.56,0.61,0.55,0.39,0.61,0.33,0.5,0.39,0.39,0.5,0.39,0.56,0.89,0.5,0.33,0.39,0.33,0.44,0.55,0.39,0.61,0.56,0.5,0.39,0.44,0.5" style="fill:rgb(0,0,0);font-family:URWPalladioL-Bold;font-size:17.93px;stroke:none;">Experimental Research on Interferometric Inverse</text>
   <text y="147.991" x="76.535,87.492,97.463,108.42,114.391,125.348,134.314,140.286,146.258,154.1472,158.703,172.655,183.612,192.578,199.554,205.526,216.483,223.458,232.423,236.908,249.855,258.822,269.779,278.745,285.7377,290.204,297.18,313.122,322.089,332.059,338.031,348.988,359.0288,363.442,378.38,384.351,390.323" svgx:width="0.61,0.56,0.61,0.33,0.61,0.5,0.33,0.33,0.44,0.55,0.78,0.61,0.5,0.39,0.33,0.61,0.39,0.5,0.55,0.72,0.5,0.61,0.5,0.39,0.55,0.39,0.89,0.5,0.56,0.33,0.61,0.56,0.55,0.83,0.33,0.33,0.61" style="fill:rgb(0,0,0);font-family:URWPalladioL-Bold;font-size:17.93px;stroke:none;">Synthetic Aperture Radar Imaging with</text>
   <text y="168.256" x="76.535,94.468,105.425,111.396,117.368,123.34,129.311,142.259,153.216,162.182,173.139,184.096,193.062,198.9789,203.517,213.488,222.454,229.43,238.396,249.353,258.32,265.296,271.267,280.23199999999997,284.717,297.664,306.631,317.588,326.554,333.5467,338.013,348.97,358.941,366.903,372.874,381.841" svgx:width="1.0,0.61,0.33,0.33,0.33,0.33,0.72,0.61,0.5,0.61,0.61,0.5,0.33,0.55,0.67,0.5,0.39,0.5,0.61,0.5,0.39,0.33,0.5,0.55,0.72,0.5,0.61,0.5,0.39,0.55,0.61,0.56,0.44,0.33,0.5,0.89" style="fill:rgb(0,0,0);font-family:URWPalladioL-Bold;font-size:17.93px;stroke:none;">Multi-Channel Terahertz Radar System</text>
   <text y="197.947" x="76.207,82.115,87.095,89.587,96.232,102.319,107.3,113.387" svgx:width="0.67,0.5,0.55,0.67,0.61,0.5,0.61,0.56" style="fill:rgb(0,0,0);font-family:URWPalladioL-Bold;font-size:9.96px;stroke:none;">Ye Zhang</text>
  </g>
  <path style="fill:rgb(179,201,62);stroke:none;stroke-width:1.0;" d="M488.21 73.6 L488.21 67.02 L486.5 73.6 L484.72 73.6 L482.96 67.02 L482.96 73.6 L480.84 73.6 L480.84 64.4 L484.52 64.4 L485.85 69.29 L487.12 64.4 L490.82 64.4 L490.82 73.6 L488.21 73.6 M499.31 72.31 C498.49 73.17 497.42 73.6 496.11 73.6 L492.4 73.6 L492.4 64.4 L495.94 64.4 C497.48 64.4 498.63 64.86 499.39 65.78 C500.16 66.7 500.54 67.75 500.54 68.96 C500.54 70.33 500.13 71.45 499.31 72.31 M497.18 67.22 C496.89 66.73 496.48 66.49 495.95 66.49 L495.21 66.49 L495.21 71.48 L495.95 71.48 C496.41 71.48 496.8 71.25 497.12 70.8 C497.44 70.35 497.6 69.73 497.6 68.95 C497.6 68.28 497.46 67.7 497.18 67.22 M508.61 69.45 C508.0 69.98 507.19 70.25 506.17 70.25 L504.58 70.25 L504.58 73.6 L501.73 73.6 L501.73 64.4 L505.65 64.4 C506.62 64.4 507.36 64.519 507.87 64.739 C508.38 64.97 508.78 65.31 509.08 65.77 C509.38 66.23 509.53 66.75 509.53 67.33 C509.53 68.2 509.22 68.91 508.61 69.45 M505.58 66.49 L504.55 66.49 L504.55 68.29 L505.49 68.29 C506.31 68.29 506.73 67.98 506.73 67.36 C506.73 66.78 506.35 66.49 505.58 66.49 M510.57 73.6 L510.57 64.4 L513.38 64.4 L513.38 73.6 L510.57 73.6 M517.09 75.98 L517.09 62.89 L517.78 62.41 L517.78 76.45 L517.09 75.98 M507.15 82.56 L507.16 81.75 L517.11 75.98 L517.78 76.44 L507.15 82.56 M496.57 76.42 L497.23 75.95 L507.17 81.75 L507.17 82.56 L496.57 76.42 M515.98 75.58 L507.45 80.51 L507.46 79.7 L515.98 74.79 L515.98 75.58 M477.26 75.03 L476.56 75.5 L476.56 61.46 L477.26 61.93 L477.26 75.03 M487.18 56.15 L477.23 61.92 L476.56 61.46 L487.19 55.34 L487.18 56.15 M497.11 61.95 L487.17 56.15 L487.17 55.34 L497.77 61.49 L497.11 61.95 M486.88 58.2 L478.36 63.12 L478.37 62.33 L486.89 57.39 L486.88 58.2 M128.0 193.41 C128.0 195.92 125.97 197.95 123.46 197.95 C120.96 197.95 118.93 195.92 118.93 193.41 C118.93 190.91 120.96 188.88 123.46 188.88 C125.97 188.88 128.0 190.91 128.0 193.41 "/>
  <path style="fill:rgb(255,255,255);stroke:none;stroke-width:1.0;" d="M123.28 192.06 L123.28 195.07 L123.88 195.07 C124.41 195.07 124.83 194.94 125.13 194.67 C125.42 194.4 125.57 194.02 125.57 193.53 C125.57 193.04 125.42 192.68 125.11 192.43 C124.81 192.19 124.41 192.06 123.91 192.06 L123.28 192.06 ZM122.74 195.52 L122.74 191.61 L123.93 191.61 C124.56 191.61 125.09 191.79 125.51 192.13 C125.93 192.48 126.14 192.94 126.14 193.52 C126.14 194.12 125.93 194.61 125.51 194.97 C125.09 195.34 124.55 195.52 123.89 195.52 L122.74 195.52 "/>
  <path style="fill:rgb(255,255,255);stroke:none;stroke-width:1.0;" d="M121.97 195.52 L121.42 195.52 L121.42 191.62 L121.97 191.62 L121.97 195.52 "/>
  <path style="fill:rgb(255,255,255);stroke:none;stroke-width:1.0;" d="M122.06 190.97 C122.06 191.16 121.91 191.32 121.72 191.32 C121.53 191.32 121.38 191.16 121.38 190.97 C121.38 190.79 121.53 190.63 121.72 190.63 C121.91 190.63 122.06 190.79 122.06 190.97 "/>
  <g begin="text">
   <text y="197.947" x="127.997,130.487,132.978,141.277,144.5638,147.085,152.993,157.974,164.062,169.6396,172.091" svgx:width="0.25,0.55,0.83,0.33,0.55,0.67,0.5,0.61,0.56,0.55,0.44" style="fill:rgb(0,0,0);font-family:URWPalladioL-Bold;font-size:9.96px;stroke:none;">, Qi Yang *</text>
  </g>
  <path style="fill:rgb(179,201,62);stroke:none;stroke-width:1.0;" d="M185.59 193.41 C185.59 195.92 183.56 197.95 181.05 197.95 C178.55 197.95 176.51 195.92 176.51 193.41 C176.51 190.91 178.55 188.88 181.05 188.88 C183.56 188.88 185.59 190.91 185.59 193.41 "/>
  <path style="fill:rgb(255,255,255);stroke:none;stroke-width:1.0;" d="M180.86 192.06 L180.86 195.07 L181.47 195.07 C182.0 195.07 182.42 194.94 182.72 194.67 C183.01 194.4 183.16 194.02 183.16 193.53 C183.16 193.04 183.01 192.68 182.7 192.43 C182.4 192.19 181.99 192.06 181.5 192.06 L180.86 192.06 ZM180.33 195.52 L180.33 191.61 L181.52 191.61 C182.15 191.61 182.68 191.79 183.1 192.13 C183.52 192.48 183.73 192.94 183.73 193.52 C183.73 194.12 183.52 194.61 183.1 194.97 C182.68 195.34 182.14 195.52 181.47 195.52 L180.33 195.52 "/>
  <path style="fill:rgb(255,255,255);stroke:none;stroke-width:1.0;" d="M179.55 195.52 L179.01 195.52 L179.01 191.62 L179.55 191.62 L179.55 195.52 "/>
  <path style="fill:rgb(255,255,255);stroke:none;stroke-width:1.0;" d="M179.65 190.97 C179.65 191.16 179.49 191.32 179.31 191.32 C179.12 191.32 178.96 191.16 178.96 190.97 C178.96 190.79 179.12 190.63 179.31 190.63 C179.49 190.63 179.65 190.79 179.65 190.97 "/>
  <g begin="text">
   <text y="197.947" x="185.586,188.07600000000002,190.567,197.212,200.53,206.6056,209.108,217.407,222.388,228.475,234.014,236.50400000000002,238.995,244.903,250.99,254.308,257.626,262.607,268.694,274.27160000000003,276.724,285.023,288.34,294.4156,296.918,301.899,307.987,314.06260000000003,316.564,324.863,330.402,336.49,342.029,348.116,351.433,356.415,362.502,368.0796,370.532,379.757,384.738,390.826" svgx:width="0.25,0.55,0.67,0.33,0.61,0.55,0.83,0.5,0.61,0.56,0.25,0.55,0.67,0.61,0.33,0.33,0.5,0.61,0.56,0.55,0.83,0.33,0.61,0.55,0.5,0.61,0.61,0.55,0.83,0.56,0.61,0.56,0.61,0.33,0.5,0.61,0.56,0.55,1.0,0.5,0.61,0.56" style="fill:rgb(0,0,0);font-family:URWPalladioL-Bold;font-size:9.96px;stroke:none;">, Bin Deng, Yuliang Qin and Hongqiang Wang</text>
   <text y="216.029" x="82.205,88.562,93.458,96.067,98.676,102.971,107.957,112.26259999999999,114.493,119.389,122.34909999999999,124.616,130.095,132.704,136.999,140.98,143.903,147.283,152.179,157.397,160.006,163.9528,166.229,170.937,174.918,177.527,181.822,187.04,191.021,195.32659999999998,197.558,202.041,207.259,212.73069999999998,214.979,219.651,223.946,227.927,233.145,238.364,243.26,245.869,250.764,255.75,259.74,261.9825,264.223,271.674,276.157,279.08,281.69,286.585,291.804,296.287,298.88829999999996,301.138,308.114,313.332,315.941,321.007,325.302,328.844,332.646,335.255,338.178,343.2012,345.405,350.3,353.2601,355.528,362.468,366.763,369.749,374.043,379.262,383.064,387.36960000000005,389.6,394.272,398.567,402.539,407.757,412.976,417.871,420.48,425.376,430.361,434.351,436.5935,438.835,445.192,450.41,454.893,460.112,465.097,468.899,474.117,478.60200000000003,480.842,485.325,489.809,494.292,498.775,503.258,507.742" svgx:width="0.71,0.55,0.29,0.29,0.48,0.56,0.48,0.55,0.55,0.33,0.55,0.61,0.29,0.48,0.44,0.33,0.4,0.55,0.58,0.29,0.44,0.55,0.52,0.44,0.29,0.48,0.58,0.44,0.48,0.55,0.5,0.58,0.61,0.55,0.61,0.48,0.44,0.58,0.58,0.55,0.29,0.55,0.56,0.56,0.25,0.55,0.83,0.5,0.33,0.29,0.55,0.58,0.5,0.29,0.55,0.78,0.58,0.29,0.56,0.48,0.4,0.42,0.29,0.33,0.56,0.55,0.55,0.33,0.55,0.77,0.48,0.33,0.48,0.58,0.42,0.48,0.55,0.61,0.48,0.44,0.58,0.58,0.55,0.29,0.55,0.56,0.56,0.25,0.55,0.71,0.58,0.5,0.58,0.56,0.42,0.58,0.5,0.55,0.5,0.5,0.5,0.5,0.5,0.5,0.25" style="fill:rgb(0,0,0);font-family:URWPalladioL-Roma;font-size:8.97px;stroke:none;">College of Electronic Science and Technology, National University of Defense Technology, Changsha 410073,</text>
   <text y="228.134" x="82.205,88.562,93.781,96.39,101.608,106.091,108.3335,110.575,115.999,120.985,126.203,129.126,131.735,136.954,141.939,146.422,150.906,155.891,160.374,164.857,171.555,176.038,180.522,185.005,187.246,191.227,196.123,206.282,209.268,214.253,216.495,222.475,224.717,227.703,229.9455,232.186,237.665,241.959,247.178,252.163,257.122,259.731,264.949,269.432,274.651,280.058,285.536,288.459,295.157,299.64,304.123,308.607,310.848,314.829,319.725,329.884,332.87,338.348,340.59,347.53,349.771,352.757,354.9995,357.241,362.262,364.871,370.089,375.075,380.481,383.091,385.7,390.183,395.401,400.387,407.085,412.303,417.71,423.188,426.111,428.353,432.648,438.126,443.533,445.775,449.756,454.9586,457.216,460.202,465.187,467.429,474.476,476.718,479.704" svgx:width="0.71,0.58,0.29,0.58,0.5,0.25,0.55,0.61,0.56,0.58,0.33,0.29,0.58,0.56,0.5,0.5,0.56,0.5,0.5,0.75,0.5,0.5,0.5,0.25,0.44,0.55,0.88,0.33,0.67,0.25,0.67,0.25,0.33,0.25,0.55,0.61,0.48,0.58,0.56,0.55,0.29,0.58,0.5,0.58,0.6,0.61,0.33,0.75,0.5,0.5,0.5,0.25,0.44,0.55,0.88,0.33,0.61,0.25,0.77,0.25,0.33,0.25,0.55,0.56,0.29,0.58,0.56,0.6,0.29,0.29,0.5,0.58,0.56,0.75,0.58,0.6,0.61,0.33,0.25,0.48,0.61,0.6,0.25,0.44,0.58,0.55,0.33,0.67,0.25,0.79,0.25,0.33,0.25" style="fill:rgb(0,0,0);font-family:URWPalladioL-Roma;font-size:8.97px;stroke:none;">China; ﬁghting_zy10@126.com(Y.Z.); dengbin_nudt@163.com(B.D.); qinyuliang@nudt.edu.cn (Y.Q.);</text>
   <text y="240.238" x="82.205,87.101,89.71,92.319,97.385,101.68,105.222,112.7,117.918,122.939,129.637,132.56,137.456,145.373,147.615,151.596,156.492,166.651,169.636,177.096,179.338,187.48,189.721" svgx:width="0.55,0.29,0.29,0.56,0.48,0.4,0.83,0.58,0.56,0.75,0.33,0.55,0.88,0.25,0.44,0.55,0.88,0.33,0.83,0.25,1.0,0.25,0.33" style="fill:rgb(0,0,0);font-family:URWPalladioL-Roma;font-size:8.97px;stroke:none;">oliverwhq@tom.com(H.W.)</text>
   <text y="252.343" x="81.407" svgx:width="0.44" style="fill:rgb(0,0,0);font-family:URWPalladioL-Bold;font-size:8.97px;stroke:none;">*</text>
   <text y="252.343" x="90.723,97.08,101.976,105.518,108.898,113.193,116.995,122.383,127.279,132.497,137.976,142.271,147.489,151.47,155.765,158.0075,161.145,166.13,170.614,175.832,180.817,185.839,188.448,192.931,198.149,203.556,209.035,211.958,218.656,223.139,227.622,232.105,234.347,238.328,243.224,251.141,253.3835,255.624,260.296,264.59,267.2,269.441" svgx:width="0.71,0.55,0.4,0.4,0.48,0.42,0.6,0.55,0.58,0.61,0.48,0.58,0.44,0.48,0.25,0.55,0.56,0.5,0.58,0.56,0.56,0.29,0.5,0.58,0.6,0.61,0.33,0.75,0.5,0.5,0.5,0.25,0.44,0.55,0.88,0.25,0.55,0.61,0.48,0.29,0.25,0.25" style="fill:rgb(0,0,0);font-family:URWPalladioL-Roma;font-size:8.97px;stroke:none;">Correspondence: yangqi_nudt@163.com; Tel.:</text>
   <text y="252.343" x="273.922" svgx:width="0.67" style="fill:rgb(0,0,0);font-family:Rpxr;font-size:8.97px;stroke:none;">+</text>
   <text y="252.343" x="279.92,284.403,288.886,291.872,296.355,300.839,305.322,308.308,312.791,317.274,321.757,326.24,329.226,333.709,338.193,342.676" svgx:width="0.5,0.5,0.33,0.5,0.5,0.5,0.33,0.5,0.5,0.5,0.5,0.33,0.5,0.5,0.5,0.5" style="fill:rgb(0,0,0);font-family:URWPalladioL-Roma;font-size:8.97px;stroke:none;">86-731-8457-5714</text>
   <text y="278.347" x="82.205,88.195,92.489,96.471,100.765,103.375,108.441,112.736,118.214,120.4565,123.594,128.077,132.562,134.802,143.284,147.767,151.148,155.129,160.33159999999998,162.589,167.072,171.555,176.038,180.522,182.7645,185.005,191.981,195.962,199.943,204.238,209.626,212.55,216.844,222.323,224.56550000000001,227.703,232.186,236.67100000000002,238.911,247.393,251.876,256.8992,259.103,263.586,268.07,272.553,277.036,279.2785,281.519,286.935,292.342,297.3,299.909,302.518,306.32,311.539,315.834,321.312,323.5545,326.692,331.175,335.66,337.9,346.382,350.865,355.8882,358.092,362.576,367.059,371.542" svgx:width="0.67,0.48,0.44,0.48,0.29,0.56,0.48,0.61,0.25,0.55,0.5,0.5,0.55,0.95,0.5,0.4,0.44,0.58,0.55,0.5,0.5,0.5,0.5,0.25,0.55,0.78,0.44,0.44,0.48,0.6,0.33,0.48,0.61,0.25,0.55,0.5,0.5,0.55,0.95,0.5,0.56,0.55,0.5,0.5,0.5,0.5,0.25,0.55,0.6,0.6,0.55,0.29,0.29,0.42,0.58,0.48,0.61,0.25,0.55,0.5,0.5,0.55,0.95,0.5,0.56,0.55,0.5,0.5,0.5,0.5" style="fill:rgb(0,0,0);font-family:URWPalladioL-Roma;font-size:8.97px;stroke:none;">Received: 13 March 2019; Accepted: 14 May 2019; Published: 20 May 2019</text>
  </g>
  <path style="fill:rgb(255,207,0);stroke:none;stroke-width:1.0;" d="M477.39 274.77 L475.25 276.91 L469.5 271.15 L471.64 269.01 L475.25 272.63 L482.59 265.29 C481.08 263.33 478.7 262.06 476.03 262.06 C471.45 262.06 467.74 265.78 467.74 270.35 C467.74 274.93 471.45 278.64 476.03 278.64 C480.61 278.64 484.32 274.93 484.32 270.35 C484.32 269.59 484.21 268.84 484.02 268.14 L477.39 274.77 "/>
  <g begin="text">
   <text y="269.424" code="1" x="487.076,490.658,494.948,498.979,502.561,506.671,508.458,510.68,514.915" svgx:width="0.46,0.54,0.5,0.46,0.5,0.2,0.29,0.54,0.35" style="fill:rgb(4,5,8);font-family:SourceSansRoman-Regular;font-size:7.87px;stroke:none;">?????????</text>
   <text y="269.424" code="1" x="517.85" svgx:width="0.2" style="fill:rgb(4,5,8);font-family:SourceSansRoman.613wght;font-size:6.99px;stroke:none;">?</text>
   <text y="276.574" code="1" x="487.076,491.858,496.861,501.682,506.142,509.467,514.071" svgx:width="0.57,0.57,0.57,0.53,0.38,0.52,0.44" style="fill:rgb(4,5,8);font-family:SourceSansRoman-Bold;font-size:7.87px;stroke:none;">???????</text>
  </g>
  <g begin="text">
   <text y="302.479" x="81.816,89.567,95.654,100.077,103.395,107.27,112.252,116.675,119.993" svgx:width="0.78,0.61,0.44,0.33,0.39,0.5,0.44,0.33,0.25" style="fill:rgb(0,0,0);font-family:URWPalladioL-Bold;font-size:9.96px;stroke:none;">Abstract:</text>
   <text y="302.479" x="126.424,132.653,138.567,143.3478,146.148,151.229,154.186,157.0744,159.867,164.175,169.724,172.681,175.638,181.847,185.231,189.539,192.852,197.933,201.246,206.0268,208.826,212.139,217.007,221.021,226.102,232.016,236.883,240.897,244.21,249.19,252.014,255.398,261.627,270.082,275.163,278.44980000000004,281.26,285.274,290.355,296.564,301.645,305.62899999999996,308.382,314.296,319.377,323.5602,326.399,331.947,337.567,343.308,346.266,351.814,357.941,362.1242,364.974,373.946,376.893,382.808,385.765,390.846,394.158,400.286,404.3,407.257,412.338,417.205,423.2806,426.138,429.095,435.009,438.322,443.189,448.839,452.853,457.934,461.247,464.204,469.752,475.5288,478.38,483.461,489.375,495.4506,498.307,504.221,507.178,512.828" svgx:width="0.61,0.58,0.48,0.55,0.5,0.29,0.29,0.55,0.42,0.55,0.29,0.29,0.61,0.33,0.42,0.33,0.5,0.33,0.48,0.55,0.33,0.48,0.4,0.5,0.58,0.48,0.4,0.33,0.5,0.55,0.33,0.61,0.83,0.5,0.33,0.55,0.4,0.5,0.61,0.5,0.4,0.55,0.58,0.5,0.42,0.55,0.55,0.55,0.56,0.29,0.55,0.6,0.42,0.55,0.88,0.29,0.58,0.29,0.5,0.33,0.6,0.4,0.29,0.5,0.48,0.61,0.55,0.29,0.58,0.33,0.48,0.56,0.4,0.5,0.33,0.29,0.55,0.58,0.55,0.5,0.58,0.61,0.55,0.58,0.29,0.56,0.58" style="fill:rgb(0,0,0);font-family:URWPalladioL-Roma;font-size:9.96px;stroke:none;">The all solid-state terahertz (THz) radar has obvious miniaturized integration and high</text>
   <text y="315.989" x="82.205,86.036,90.904,95.212,100.761,103.718,109.845,113.158,116.115,121.663,127.43979999999999,132.069,135.026,143.999,149.08,154.73,157.687,163.601,169.1786,173.743,178.824,185.033,190.774,195.855,201.769,205.082,210.163,215.813,220.681,224.8642,229.481,233.993,239.541,248.514,254.621,259.702,263.543,268.411,274.4866,279.111,287.586,290.543,293.856,299.6328,304.262,308.774,314.322,320.236,325.978,330.845,336.759,340.072,343.029,348.578,354.492,359.573,362.46139999999997,367.021,375.994,378.951,383.463,387.294,392.843,401.318,406.399,412.14,416.9208,421.499,425.513,430.594,436.803,441.884,445.156,447.646,457.188,460.612,466.3888,471.018,474.331,480.245,483.202,487.3852,492.002,498.109,503.19,509.297,514.165,517.447" svgx:width="0.4,0.48,0.42,0.55,0.29,0.6,0.33,0.29,0.55,0.58,0.55,0.29,0.88,0.5,0.56,0.29,0.58,0.56,0.55,0.5,0.61,0.56,0.5,0.58,0.33,0.5,0.56,0.48,0.42,0.55,0.44,0.55,0.88,0.6,0.5,0.4,0.48,0.61,0.55,0.83,0.29,0.33,0.58,0.55,0.44,0.55,0.58,0.56,0.48,0.58,0.33,0.29,0.55,0.58,0.5,0.29,0.55,0.88,0.29,0.44,0.4,0.55,0.83,0.5,0.56,0.48,0.55,0.4,0.5,0.61,0.5,0.4,0.25,0.55,0.34,0.58,0.55,0.33,0.58,0.29,0.42,0.55,0.6,0.5,0.6,0.48,0.4,0.25" style="fill:rgb(0,0,0);font-family:URWPalladioL-Roma;font-size:9.96px;stroke:none;">resolution imaging advantages compared with conventional microwave radar. In this paper,</text>
   <text y="329.498" x="82.205,87.185,89.677,94.658,97.149,102.13,107.11,109.602,115.709,123.998,128.978,132.843,137.924,142.436,145.749,148.706,154.447,159.2278,163.176,166.56,170.401,175.269,180.959,187.087,191.944,197.859,202.37,208.02,211.404,220.377,225.926,232.134,238.262,241.219,246.3,249.613,254.48,260.55559999999997,264.561,270.668,276.796,279.753,284.061,288.8418,292.791,296.804,301.885,308.094,313.175,317.159,321.051,325.359,331.009,335.318,338.631,343.498,352.26279999999997,356.333,364.808,367.765,371.077,376.8538,380.853,386.402,392.316,397.0968,401.055,404.368,408.382,413.463,419.377,423.685,432.658,435.615,439.924,444.233,447.19,452.738,458.5148,462.514,467.026,472.94,478.021,483.935,489.849,494.717,497.6054,501.535,506.616,512.53" svgx:width="0.5,0.55,0.5,0.25,0.5,0.5,0.55,0.61,0.83,0.5,0.55,0.5,0.44,0.33,0.29,0.56,0.48,0.55,0.33,0.4,0.48,0.56,0.6,0.48,0.58,0.44,0.56,0.33,0.88,0.55,0.61,0.6,0.29,0.5,0.33,0.48,0.61,0.55,0.6,0.6,0.29,0.42,0.48,0.55,0.4,0.5,0.61,0.5,0.4,0.55,0.42,0.56,0.42,0.33,0.48,0.88,0.55,0.83,0.29,0.33,0.58,0.55,0.55,0.58,0.48,0.55,0.33,0.4,0.5,0.58,0.42,0.88,0.29,0.42,0.42,0.29,0.55,0.58,0.55,0.44,0.58,0.5,0.58,0.58,0.48,0.29,0.55,0.5,0.58,0.61" style="fill:rgb(0,0,0);font-family:URWPalladioL-Roma;font-size:9.96px;stroke:none;">a 0.22 THz active frequency-modulated pulse radar system with one transmission channel and</text>
   <text y="343.008" x="82.205,85.556,91.05,97.117,101.101,103.597,107.391,112.211,116.678,121.498,124.426,130.111,133.039,138.896,144.47359999999998,146.996,151.463,157.32,162.351,168.207,174.063,178.873,181.801,185.9842,188.573,191.501,195.6842,198.273,204.32,208.114,212.933,217.2,222.02,227.876,231.156,235.976,242.124,244.614,247.145,252.176,258.032,264.1076,266.686,269.614,275.47,278.75,283.57,287.545,290.896,295.715,299.509,305.003,313.888,318.707,321.988,325.962,328.89,333.2724,335.864,338.792,344.648,350.333,355.153,359.127,363.394,368.1748,370.709,374.975,380.57,386.426,389.706,395.563,400.382,403.663,406.591,410.9734,413.564,418.595,424.642,429.462,433.437,436.717,442.785,446.578,451.3588,453.903,457.878,462.909,469.057,474.088,478.072,480.568,483.919,487.31,493.166,496.557,501.84,509.668,516.39" svgx:width="0.33,0.55,0.6,0.4,0.55,0.4,0.48,0.44,0.48,0.29,0.56,0.29,0.58,0.56,0.55,0.44,0.58,0.5,0.58,0.58,0.48,0.29,0.42,0.55,0.29,0.42,0.55,0.6,0.4,0.48,0.42,0.48,0.58,0.33,0.48,0.61,0.25,0.55,0.5,0.58,0.61,0.55,0.29,0.58,0.33,0.48,0.4,0.33,0.48,0.4,0.55,0.88,0.48,0.33,0.4,0.29,0.44,0.55,0.29,0.58,0.56,0.48,0.4,0.42,0.48,0.55,0.42,0.56,0.58,0.33,0.58,0.48,0.33,0.29,0.44,0.55,0.5,0.6,0.48,0.4,0.33,0.6,0.4,0.48,0.55,0.4,0.5,0.61,0.5,0.4,0.55,0.33,0.34,0.58,0.34,0.52,0.78,0.67,0.33" style="fill:rgb(0,0,0);font-family:URWPalladioL-Roma;font-size:9.96px;stroke:none;">four receiving channels is presented, and interferometric inverse synthetic aperture radar (InISAR)</text>
   <text y="356.517" x="82.205,85.162,94.135,99.216,104.866,107.823,113.737,119.3146,122.172,127.039,132.283,138.39,143.257,147.271,150.228,159.201,164.069,169.983,173.296,177.604,180.09400000000002,183.011,191.486,197.4,200.357,204.869,210.6458,213.577,218.089,223.17,228.9468,231.869,236.95,241.462,247.152,253.28,256.237,260.078,264.8588,267.73,272.811,275.768,279.081,282.038,285.351,291.478,297.687,302.4678,305.349,308.306,314.22,317.604,323.142,327.156,336.129,341.21,344.523,347.48,353.028,358.8048,361.737,367.285,370.57180000000005,373.454,379.002,384.622,386.999,391.867,396.379,399.692,404.0,406.49,409.406,414.487,418.328,423.1088,425.98,430.492,435.573,439.587,443.601,446.558,451.426,457.5016,460.429,465.977,472.105,475.418,477.908,482.338,485.762,491.5388,494.461,500.009,503.85,510.059,514.927" svgx:width="0.29,0.88,0.5,0.56,0.29,0.58,0.56,0.55,0.48,0.52,0.6,0.48,0.4,0.29,0.88,0.48,0.58,0.33,0.42,0.25,0.55,0.83,0.58,0.29,0.44,0.58,0.55,0.44,0.5,0.58,0.55,0.5,0.44,0.56,0.6,0.29,0.4,0.48,0.55,0.5,0.29,0.33,0.29,0.33,0.6,0.61,0.48,0.55,0.29,0.58,0.33,0.55,0.4,0.88,0.5,0.33,0.29,0.55,0.58,0.55,0.55,0.33,0.55,0.55,0.55,0.23,0.48,0.44,0.33,0.42,0.25,0.55,0.5,0.4,0.48,0.55,0.44,0.5,0.4,0.4,0.29,0.48,0.61,0.55,0.55,0.6,0.33,0.25,0.55,0.34,0.58,0.55,0.55,0.4,0.61,0.48,0.4" style="fill:rgb(0,0,0);font-family:URWPalladioL-Roma;font-size:9.96px;stroke:none;">imaging experiments, which can acquire altitude information of objects, are carried out. In order</text>
   <text y="370.026" x="82.205,85.508,90.98599999999999,93.543,98.609,103.107,108.781,114.891,117.839,121.659,126.4398,129.015,134.911,137.86,143.493,149.39,152.764,158.438,164.547,169.613,172.562,175.51,178.813,184.39059999999998,186.949,190.364,196.261,199.675,204.994,212.877,219.55020000000002,222.148,225.096,234.043,239.109,244.742,249.595,253.891,256.381,258.937,263.91700000000003,266.505,271.004,276.07,279.018,281.967,287.57,291.572,296.638,299.941,302.889,308.421,314.1978,316.821,325.767,330.62,333.923,339.82,345.352,351.4276,354.046,356.994,361.1772,363.792,369.882,373.702,378.555,382.851,387.704,393.601,396.904,401.757,407.8326,410.45,413.753,419.231,421.788,426.084,431.616,434.564,440.289,445.0698,447.645,450.948,456.844,461.6248,464.2,470.097,475.629,481.526,484.474,487.423,493.319,498.173,503.239,507.241,510.189,513.492" svgx:width="0.33,0.55,0.55,0.5,0.44,0.56,0.6,0.29,0.4,0.48,0.55,0.58,0.29,0.56,0.58,0.33,0.56,0.6,0.5,0.29,0.29,0.33,0.56,0.55,0.34,0.58,0.34,0.52,0.78,0.67,0.55,0.29,0.88,0.5,0.56,0.48,0.42,0.25,0.55,0.5,0.55,0.44,0.5,0.29,0.29,0.55,0.4,0.5,0.33,0.29,0.55,0.58,0.55,0.88,0.48,0.33,0.58,0.55,0.61,0.55,0.29,0.42,0.55,0.6,0.4,0.48,0.42,0.48,0.58,0.33,0.48,0.61,0.55,0.33,0.55,0.55,0.42,0.55,0.29,0.56,0.48,0.55,0.33,0.58,0.48,0.55,0.58,0.55,0.58,0.29,0.29,0.58,0.48,0.5,0.4,0.29,0.33,0.56" style="fill:rgb(0,0,0);font-family:URWPalladioL-Roma;font-size:9.96px;stroke:none;">to acquire high-quality InISAR images, a calibration method is presented to solve the nonlinearity</text>
   <text y="383.536" x="82.205,87.753,91.0398,94.867,103.342,106.299,112.508,117.375,122.995,128.076,133.99,140.06560000000002,143.928,148.237,151.194,156.844,162.758,167.839,170.7274,174.525,177.909,181.74,186.608,192.299,198.426,203.294,209.208,213.72,219.2976,223.099,228.18,234.094,240.1696,244.033,250.14,256.054,261.135,265.444,270.2248,274.03,276.987,282.902,287.413,292.962,298.876,303.185,306.142,310.45,313.763,318.631,324.545,329.057,334.63460000000003,338.436,343.984,347.2708,351.098,357.307" svgx:width="0.55,0.33,0.55,0.83,0.29,0.61,0.48,0.55,0.5,0.58,0.61,0.55,0.42,0.29,0.56,0.58,0.5,0.29,0.55,0.33,0.4,0.48,0.56,0.6,0.48,0.58,0.44,0.56,0.55,0.5,0.58,0.61,0.55,0.6,0.58,0.5,0.42,0.48,0.55,0.29,0.58,0.44,0.55,0.58,0.42,0.29,0.42,0.33,0.48,0.58,0.44,0.56,0.55,0.55,0.33,0.55,0.61,0.29" style="fill:rgb(0,0,0);font-family:URWPalladioL-Roma;font-size:9.96px;stroke:none;">of wideband signal frequency and phase inconsistency of di</text>
   <text y="383.536" x="360.265" svgx:width="0.61" style="fill:rgb(0,0,0);font-family:Rpxr;font-size:9.96px;stroke:none;">ﬀ</text>
   <text y="383.536" x="366.444,371.312,375.143,380.01,385.924,389.2108,392.966,396.808,401.675,406.187,411.055,414.012,419.753,422.71,428.614,434.1916,437.994,442.505,448.42,453.501,459.415,465.329,470.196,473.154,477.3372,481.192,484.504,490.053,495.703,500.57,503.883,509.797,514.665,517.947" svgx:width="0.48,0.4,0.48,0.58,0.33,0.55,0.4,0.48,0.44,0.48,0.29,0.56,0.29,0.58,0.56,0.55,0.44,0.58,0.5,0.58,0.58,0.48,0.29,0.42,0.55,0.33,0.55,0.56,0.48,0.33,0.58,0.48,0.4,0.25" style="fill:rgb(0,0,0);font-family:URWPalladioL-Roma;font-size:9.96px;stroke:none;">erent receiving channels together.</text>
   <text y="397.045" x="82.205,87.689,93.636,97.532,100.747,106.488,111.212,115.108,123.817,129.202,132.92,137.645,140.13500000000002,142.596,145.811,151.28900000000002,153.692,159.718,164.442,169.374,172.26239999999999,174.73,182.955,185.825,189.041,194.8178,197.276,200.492,206.232,211.0128,213.442,219.369,225.11,230.041,234.223,239.0038,241.443,249.668,253.564,258.496,264.423,270.351,273.221,278.961,284.53860000000003,286.931,289.801,295.57779999999997,298.027,301.35,307.091,310.415,315.593,323.266,329.9392,332.35,335.22,343.929,348.86,354.344,357.214,362.955,368.5326,370.924,376.309,379.59580000000005,382.089,387.474,392.928,395.236,399.961,404.34,407.555,411.7382,414.222,422.448,425.318,428.534,434.3108,436.769,439.639,444.571,448.289,453.773,458.5538,460.983,465.165,469.544,474.475,477.345,482.07,484.56,487.031,492.011,494.448,500.188,505.573,511.146,515.87" svgx:width="0.56,0.6,0.4,0.33,0.58,0.48,0.4,0.88,0.55,0.4,0.48,0.25,0.55,0.33,0.55,0.55,0.61,0.48,0.5,0.29,0.55,0.83,0.29,0.33,0.58,0.55,0.33,0.58,0.48,0.55,0.6,0.58,0.5,0.42,0.48,0.55,0.83,0.4,0.5,0.6,0.6,0.29,0.58,0.56,0.55,0.29,0.58,0.55,0.34,0.58,0.34,0.52,0.78,0.67,0.55,0.29,0.88,0.5,0.56,0.29,0.58,0.56,0.55,0.55,0.33,0.55,0.55,0.55,0.23,0.48,0.44,0.33,0.42,0.55,0.83,0.29,0.33,0.58,0.55,0.29,0.5,0.4,0.56,0.48,0.55,0.42,0.44,0.5,0.29,0.48,0.25,0.55,0.5,0.55,0.58,0.55,0.56,0.48,0.29" style="fill:rgb(0,0,0);font-family:URWPalladioL-Roma;font-size:9.96px;stroke:none;">Furthermore, to deal with the phase wrapping in InISAR imaging of objects with large scale, a novel</text>
   <text y="410.555" x="82.205,91.143,95.991,99.291,105.182,110.709,116.7846,119.383,124.981,130.042,134.333,139.182,145.2576,147.866,153.393,159.1698,161.774,165.074,170.965,175.7458,178.303,184.488,190.014,198.952,201.898,207.789,212.85,218.741,222.0278,224.541,228.832,233.326,238.387,241.687,244.987,249.835,253.651,258.5,262.498,266.6812,269.28,272.58,278.058,280.606,285.455,289.747,293.046,295.992,304.93,309.991,313.29,318.0708,320.629,323.929,329.82,334.6008,337.158,342.685,348.282,350.651,355.499,359.993,363.293,367.4762,370.085,373.901,379.427,382.727,387.788,391.088,394.034,399.56,405.3368,407.941,411.939,417.0,420.3,425.0808,427.649,430.594,434.7772,437.376,443.459,447.275,452.124,456.415,461.264,467.155,470.455,475.303,481.488,483.978,487.52,493.148,496.094,501.985,507.046,509.991,512.937,517.451" svgx:width="0.88,0.48,0.33,0.58,0.55,0.61,0.55,0.55,0.5,0.42,0.48,0.61,0.55,0.55,0.58,0.55,0.33,0.58,0.48,0.55,0.61,0.55,0.88,0.29,0.58,0.5,0.58,0.33,0.55,0.42,0.44,0.5,0.33,0.33,0.48,0.4,0.48,0.4,0.42,0.55,0.33,0.55,0.55,0.48,0.42,0.33,0.29,0.88,0.5,0.33,0.48,0.55,0.33,0.58,0.48,0.55,0.55,0.55,0.23,0.48,0.44,0.33,0.42,0.55,0.4,0.55,0.33,0.5,0.33,0.29,0.55,0.58,0.55,0.4,0.5,0.33,0.48,0.55,0.29,0.42,0.55,0.6,0.4,0.48,0.42,0.48,0.58,0.33,0.48,0.61,0.25,0.55,0.56,0.29,0.58,0.5,0.29,0.29,0.56,0.25" style="fill:rgb(0,0,0);font-family:URWPalladioL-Roma;font-size:9.96px;stroke:none;">method based on the dominant scatterers to estimate the objects rotation rate is presented. Finally,</text>
   <text y="424.064" x="82.205,85.456,90.934,93.394,97.623,103.427,108.872,117.1388,119.682,128.488,133.933,137.692,142.4728,144.962,147.864,153.668,156.989,162.434,166.373,175.179,180.165,183.417,186.319,191.764,197.54080000000002,200.061,205.506,208.7928,211.32,216.765,222.28,224.613,229.39,233.818,237.069,241.2522,243.79,246.692,252.46880000000002,254.99,258.241,264.045,268.8258,271.315,274.675,280.479,283.84,289.076,296.834,303.5072,305.989,308.891,317.697,322.683,328.228,333.005,337.233,339.723,342.22,345.471,351.275,356.0558,358.545,361.447,370.252,375.239,380.783,383.685,389.49,395.0676,397.527,401.287,406.064,410.292,416.306,419.208,422.459,426.6422,429.18,437.497,440.399,443.65,449.42679999999996,451.948,456.928,459.437,462.339,467.325,471.085,476.63,481.4108,483.9,487.659,493.104,496.355,501.342,504.593,507.495,512.94" svgx:width="0.33,0.55,0.55,0.42,0.58,0.55,0.83,0.55,0.88,0.55,0.4,0.48,0.55,0.29,0.58,0.33,0.55,0.4,0.88,0.5,0.33,0.29,0.55,0.58,0.55,0.55,0.33,0.55,0.55,0.55,0.23,0.48,0.44,0.33,0.42,0.55,0.29,0.58,0.55,0.33,0.58,0.48,0.55,0.34,0.58,0.34,0.52,0.78,0.67,0.55,0.29,0.88,0.5,0.56,0.48,0.42,0.25,0.55,0.33,0.58,0.48,0.55,0.29,0.88,0.5,0.56,0.29,0.58,0.56,0.55,0.4,0.48,0.42,0.6,0.29,0.33,0.42,0.55,0.83,0.29,0.33,0.58,0.55,0.5,0.55,0.29,0.5,0.4,0.56,0.48,0.55,0.4,0.55,0.33,0.5,0.33,0.29,0.55,0.58" style="fill:rgb(0,0,0);font-family:URWPalladioL-Roma;font-size:9.96px;stroke:none;">to show more information of objects in the InISAR images, the imaging results with a large rotation</text>
   <text y="437.573" x="82.205,87.281,93.189,98.834,101.788,106.5688,109.138,114.752,120.3296,122.894,126.203,132.112,136.8928,139.462,143.969,149.512,155.42,161.156,166.699,169.653,175.775,179.085,182.039,187.582,193.49,198.566,201.4544,204.018,209.632,214.707,219.215,224.859,228.24,234.341,238.169,243.711,246.087,250.95,255.457,258.767,261.721,267.264,273.0408,275.659,280.735,283.69,289.334,294.877,298.887,301.841,305.151,311.059,319.8238,322.521,327.597,331.424,336.2048,338.784,344.327,349.941,353.25,358.326,361.281,367.189,372.052,378.254,380.744,384.275,390.498,396.406,401.1868,403.766,406.72,415.684,420.76,426.405,429.359,435.267,440.8446,443.399,447.237,452.099,456.404,462.525,465.479,468.789,472.9722,475.581,481.316,486.179,490.189,493.143,496.524,502.1016,504.656,507.965,513.874" svgx:width="0.5,0.58,0.56,0.29,0.48,0.55,0.55,0.56,0.55,0.33,0.58,0.48,0.55,0.44,0.55,0.58,0.56,0.55,0.29,0.6,0.33,0.29,0.55,0.58,0.5,0.29,0.55,0.55,0.5,0.44,0.56,0.33,0.6,0.4,0.55,0.23,0.48,0.44,0.33,0.29,0.55,0.58,0.55,0.5,0.29,0.56,0.55,0.4,0.29,0.33,0.58,0.88,0.55,0.5,0.4,0.48,0.55,0.55,0.55,0.33,0.5,0.29,0.58,0.48,0.61,0.25,0.55,0.61,0.58,0.48,0.55,0.29,0.88,0.5,0.56,0.29,0.58,0.56,0.55,0.4,0.48,0.42,0.6,0.29,0.33,0.42,0.55,0.56,0.48,0.4,0.29,0.33,0.56,0.55,0.33,0.58,0.48" style="fill:rgb(0,0,0);font-family:URWPalladioL-Roma;font-size:9.96px;stroke:none;">angle by the convolutional back-projection algorithm are obtained. The imaging results verify the</text>
   <text y="451.083" x="82.205,86.484,92.57,98.635,103.469,107.455,110.392,115.903,119.887,122.392,128.457,133.291,137.278,140.638,146.149,150.135,159.046,164.092,169.966,174.447,179.2278,181.784,187.294,190.5808,193.158,196.448,202.321,207.1018,209.658,218.57,224.655,227.592,230.882,233.819,237.179,241.66,247.534,252.58,258.454,264.327,269.161,272.0494,274.601,280.787,289.184,294.16400000000004,296.733,300.719,305.765,311.932,316.978,320.962,323.467,327.746,333.357,337.636,340.926,345.76,354.52479999999997,357.175,362.221,368.094,374.1696,376.763,380.053,385.927,390.7078,393.264,396.201,405.112,410.158,415.769,418.706,424.58,430.1576,432.694,438.759,442.564,448.074,452.555,457.389,461.668,465.947,468.884,474.758,480.3356,482.872,491.783,496.617,499.907,505.781,511.291,517.457" svgx:width="0.42,0.6,0.6,0.48,0.4,0.29,0.55,0.4,0.55,0.6,0.48,0.4,0.33,0.55,0.4,0.88,0.5,0.58,0.44,0.48,0.55,0.55,0.33,0.55,0.33,0.58,0.48,0.55,0.88,0.6,0.29,0.33,0.29,0.33,0.44,0.58,0.5,0.58,0.58,0.48,0.29,0.55,0.61,0.83,0.5,0.55,0.4,0.5,0.61,0.5,0.4,0.55,0.42,0.56,0.42,0.33,0.48,0.88,0.55,0.5,0.58,0.61,0.55,0.33,0.58,0.48,0.55,0.29,0.88,0.5,0.56,0.29,0.58,0.56,0.55,0.6,0.4,0.55,0.44,0.48,0.42,0.42,0.29,0.58,0.56,0.55,0.88,0.48,0.33,0.58,0.55,0.61,0.25" style="fill:rgb(0,0,0);font-family:URWPalladioL-Roma;font-size:9.96px;stroke:none;">superior performance of the multi-channel THz radar system and the imaging processing method,</text>
   <text y="464.592" x="81.786,90.095,95.893,98.792,103.216,108.99279999999999,111.504,115.928,120.909,126.6858,129.198,135.186,138.941,144.381,150.01,152.909,158.996,163.7768,166.259,170.483,176.49,182.478,188.465,193.905,197.84,201.1268,203.579,206.896,212.336,216.32000000000002,218.762,222.079,228.087,232.022,235.27,241.068,245.84,249.824,252.266,256.022,260.794,265.018,269.79,274.771,278.527,282.951,288.7278,291.24,296.679,302.45579999999995,304.968,308.326,314.124,317.481,322.712,330.462,337.1352,339.608,342.507,351.304,356.286,361.825,364.724,370.522,376.0996,378.552,381.451,387.2278,389.74,392.988,398.786,403.5668,406.049,412.156,420.445,425.425,427.917,433.426,438.407,444.206,450.293" svgx:width="0.83,0.58,0.29,0.44,0.58,0.55,0.44,0.5,0.58,0.55,0.6,0.4,0.55,0.56,0.29,0.61,0.48,0.55,0.42,0.6,0.6,0.6,0.55,0.4,0.33,0.55,0.33,0.55,0.4,0.55,0.33,0.6,0.4,0.33,0.58,0.48,0.4,0.55,0.4,0.48,0.42,0.48,0.5,0.4,0.44,0.58,0.55,0.55,0.58,0.55,0.34,0.58,0.34,0.52,0.78,0.67,0.55,0.29,0.88,0.5,0.56,0.29,0.58,0.56,0.55,0.29,0.58,0.55,0.33,0.58,0.48,0.55,0.61,0.83,0.5,0.55,0.55,0.5,0.58,0.61,0.25" style="fill:rgb(0,0,0);font-family:URWPalladioL-Roma;font-size:9.96px;stroke:none;">which can provide support for further research on InISAR imaging in the THz band.</text>
   <text y="490.057" x="82.205,89.956,94.937,100.476,108.775,114.314,118.19,124.277,128.7" svgx:width="0.78,0.5,0.56,0.83,0.56,0.39,0.61,0.44,0.25" style="fill:rgb(0,0,0);font-family:URWPalladioL-Bold;font-size:9.96px;stroke:none;">Keywords:</text>
   <text y="490.057" x="139.626,142.939,147.806,151.82,156.901,162.815,167.683,171.697,175.01,179.98999999999998,185.06,188.444,194.673,203.127,208.208,211.4948,216.551,220.565,225.646,231.855,236.936,240.95,243.44,249.699,252.656,258.57,261.883,266.751,270.765,274.149,279.016,282.847,288.396,297.368,302.236,305.549,309.563,312.52,316.9024,321.991,324.948,330.862,336.603,341.471,345.485,349.793,354.5738,359.63,363.939,369.589,375.503,378.816,384.73,389.597,392.91,395.867,400.24940000000004,405.348,410.429,416.536,421.404,425.418,428.731,434.858,438.689,443.4698,448.526,452.54,457.621,463.83,468.911,472.895,477.884,481.267,484.692,490.606,494.031,499.366,507.272,514.06,517.444" svgx:width="0.33,0.48,0.4,0.5,0.58,0.48,0.4,0.33,0.5,0.55,0.33,0.61,0.83,0.5,0.33,0.55,0.4,0.5,0.61,0.5,0.4,0.25,0.55,0.29,0.58,0.33,0.48,0.4,0.33,0.48,0.4,0.55,0.88,0.48,0.33,0.4,0.29,0.44,0.55,0.29,0.58,0.56,0.48,0.4,0.42,0.48,0.55,0.42,0.56,0.58,0.33,0.58,0.48,0.33,0.29,0.44,0.55,0.5,0.6,0.48,0.4,0.33,0.6,0.4,0.48,0.55,0.4,0.5,0.61,0.5,0.4,0.55,0.33,0.34,0.58,0.34,0.52,0.78,0.67,0.33,0.25" style="fill:rgb(0,0,0);font-family:URWPalladioL-Roma;font-size:9.96px;stroke:none;">terahertz (THz) radar; interferometric inverse synthetic aperture radar (InISAR);</text>
   <text y="503.566" x="82.205,91.002,97.009,99.909,103.156,106.055,109.373,113.796,119.595,124.576,130.374,136.172,140.944,143.83239999999998,146.334,150.269,155.251,161.338,166.319,170.254,172.744,175.236,181.343,189.632,194.612,197.104,200.003,208.8,213.781,219.32,222.219,228.018" svgx:width="0.88,0.6,0.29,0.33,0.29,0.33,0.44,0.58,0.5,0.58,0.58,0.48,0.29,0.55,0.4,0.5,0.61,0.5,0.4,0.25,0.55,0.61,0.83,0.5,0.55,0.29,0.88,0.5,0.56,0.29,0.58,0.56" style="fill:rgb(0,0,0);font-family:URWPalladioL-Roma;font-size:9.96px;stroke:none;">multi-channel radar; THz imaging</text>
  </g>
  <path style="fill:none;stroke:rgb(0,0,0);stroke-width:1.0;" d="M76.54 522.52 L518.74 522.52 "/>
  <g begin="text">
   <text y="554.51" x="76.535,81.516,84.006,87.494,91.369,97.456,100.774,104.649,110.189,116.276,122.363,126.786,130.104,133.421,138.961" svgx:width="0.5,0.25,0.55,0.39,0.61,0.33,0.39,0.56,0.61,0.61,0.44,0.33,0.33,0.56,0.61" style="fill:rgb(0,0,0);font-family:URWPalladioL-Bold;font-size:9.96px;stroke:none;">1. Introduction</text>
   <text y="573.997" x="97.795,103.11,107.977,111.991,117.072,122.986,127.854,131.868,135.18,140.16,144.296,147.68,153.909,162.363,167.444,170.7308,174.863,183.337,188.418,194.16,199.027,203.2102,207.37,210.327,213.284,218.0648,222.196,227.816,232.683,235.996,244.471,249.339,254.206,259.9828,264.155,273.128,276.085,280.597,284.428,289.976,298.451,303.532,309.273,314.141,318.3242,322.484,327.565,333.479,339.5546,343.732,346.689,352.603,355.987,360.001,365.082,368.913,373.781,379.8566,384.024,392.499,397.58,403.321,408.189,412.3722,416.532,419.489,425.26579999999996,429.447,432.76,438.674,443.4548,447.576,452.443,455.401,460.268,464.78,468.093,471.924,477.472,486.445,491.526,497.176,503.09,507.958,511.27,514.228" svgx:width="0.61,0.48,0.4,0.5,0.58,0.48,0.4,0.33,0.5,0.55,0.33,0.61,0.83,0.5,0.33,0.55,0.83,0.5,0.56,0.48,0.42,0.55,0.29,0.29,0.48,0.55,0.55,0.48,0.33,0.83,0.48,0.48,0.58,0.55,0.88,0.29,0.44,0.4,0.55,0.83,0.5,0.56,0.48,0.42,0.55,0.5,0.58,0.61,0.55,0.29,0.58,0.33,0.4,0.5,0.4,0.48,0.61,0.55,0.83,0.5,0.56,0.48,0.42,0.55,0.29,0.58,0.55,0.33,0.58,0.48,0.55,0.48,0.29,0.48,0.44,0.33,0.4,0.55,0.88,0.5,0.56,0.58,0.48,0.33,0.29,0.44" style="fill:rgb(0,0,0);font-family:URWPalladioL-Roma;font-size:9.96px;stroke:none;">Terahertz (THz) waves lie between microwaves and infrared waves in the electromagnetic</text>
   <text y="587.506" x="76.535,80.844,86.951,91.818,96.33,99.643,103.576,109.703,118.676,121.166,124.428,129.509,135.423,141.4986,144.691,148.003,153.918,158.785,164.3626,167.494,173.408,178.489,184.23,189.0108,192.167,201.14,206.221,212.135,217.71259999999998,220.843,225.152,231.259,236.127,240.639,243.596,248.677,251.56539999999998,254.693,259.204,265.119,270.2,274.214,279.294,283.806,287.119,291.987,296.001,298.958,303.266,306.579,309.536,314.048,318.357,320.84700000000004,326.1,334.006,342.979,348.527,354.441,360.0186,363.16,366.463,372.377,377.1578,380.313,386.228,392.355,401.328,406.196,410.027,415.575,421.703,425.8862,429.08,434.161,440.268,446.376,449.333,452.28,456.792,461.872,465.185,468.142,473.691,479.605,483.7882,486.982,492.531,495.81780000000003,498.973,505.203,513.657" svgx:width="0.42,0.6,0.48,0.44,0.33,0.4,0.6,0.88,0.25,0.55,0.5,0.58,0.61,0.55,0.33,0.58,0.48,0.56,0.55,0.58,0.5,0.56,0.48,0.55,0.88,0.5,0.58,0.56,0.55,0.42,0.6,0.48,0.44,0.29,0.5,0.29,0.55,0.44,0.58,0.5,0.4,0.5,0.44,0.33,0.48,0.4,0.29,0.42,0.33,0.29,0.44,0.42,0.25,0.55,0.78,0.88,0.55,0.58,0.56,0.55,0.33,0.58,0.48,0.55,0.58,0.6,0.88,0.48,0.4,0.55,0.6,0.42,0.55,0.5,0.6,0.6,0.29,0.29,0.44,0.5,0.33,0.29,0.55,0.58,0.42,0.55,0.55,0.33,0.55,0.61,0.83,0.5" style="fill:rgb(0,0,0);font-family:URWPalladioL-Roma;font-size:9.96px;stroke:none;">spectrum, and they have many special characteristics. Among the numerous applications of THz</text>
   <text y="601.016" x="76.117,84.309,89.221,94.771,99.476,103.641,106.131,108.582,114.604,122.777,127.757,130.174,133.032,141.706,146.618,152.079,154.938,160.655,166.2326,168.602,171.804,176.509,180.871,186.588,192.305,195.163,200.664,206.588,211.293,215.4762,217.943,223.66,228.572,234.122,238.9028,241.312,246.745,251.45,256.155,261.93179999999995,264.357,268.051,272.756,277.118,281.823,284.681,290.232,293.09,298.807,304.38460000000003,306.754,310.919,316.842,321.007,324.21,329.121,331.98,337.697,342.402,348.4776,350.889,355.801,359.003,362.206,366.911,372.628,375.83,378.689,384.052,389.8288,392.255,395.113,400.8898,403.315,407.019,411.724,416.085,420.791,426.508,429.7948,432.195,437.657,442.362,447.274,451.154,455.3372,457.794,463.796,469.72,474.5008,476.91,480.113,485.591,487.961,492.126,496.832,502.382,507.087,510.967,515.879" svgx:width="0.83,0.5,0.56,0.48,0.42,0.25,0.55,0.61,0.83,0.5,0.55,0.29,0.88,0.5,0.56,0.29,0.58,0.56,0.55,0.33,0.48,0.44,0.58,0.58,0.29,0.56,0.6,0.48,0.42,0.55,0.58,0.5,0.56,0.48,0.55,0.55,0.48,0.48,0.58,0.55,0.4,0.48,0.44,0.48,0.29,0.56,0.29,0.58,0.56,0.55,0.42,0.6,0.42,0.33,0.5,0.29,0.58,0.48,0.61,0.55,0.5,0.33,0.33,0.48,0.58,0.33,0.29,0.55,0.58,0.55,0.29,0.58,0.55,0.4,0.48,0.44,0.48,0.58,0.33,0.55,0.56,0.48,0.5,0.4,0.42,0.55,0.61,0.6,0.48,0.55,0.33,0.55,0.55,0.42,0.48,0.56,0.48,0.4,0.5,0.29" style="fill:rgb(0,0,0);font-family:URWPalladioL-Roma;font-size:9.96px;stroke:none;">waves, THz imaging techniques have been receiving sustained attention in recent years due to several</text>
   <text y="614.525" x="76.535,81.212,86.25,90.584,93.426,96.608,99.45,105.132,110.70960000000001,112.816,117.697,123.663,129.179,134.061,139.743,142.926,147.807,153.236,157.912,162.0952,164.307,169.638,172.9248,175.145,181.13,189.253,194.23299999999998,196.38,204.523,209.404,214.921,219.597,223.737,226.227,229.595,236.517,241.848,250.469,256.337,261.219,264.89,269.566,275.6416,277.787,280.97,286.44800000000004,288.556,297.177,300.018,304.353,308.034,313.365,321.507,326.389,331.905,336.582,340.721,343.211,345.457,353.599,356.44,359.623,365.39979999999997,367.561,373.546,381.669,386.649,388.806,392.662,397.544,403.51,406.351,411.232,414.415,417.256,422.587,428.36379999999997,430.525,433.366,436.6528,438.804,441.645,445.8282,448.04,452.717,457.599,461.738,464.579,469.256,473.23999999999995,475.358,478.541,484.019,486.127,491.009,495.344,501.026,503.867,508.544,514.06" svgx:width="0.48,0.52,0.44,0.29,0.33,0.29,0.58,0.56,0.55,0.5,0.61,0.56,0.5,0.58,0.33,0.5,0.56,0.48,0.42,0.55,0.55,0.33,0.55,0.61,0.83,0.5,0.55,0.83,0.5,0.56,0.48,0.42,0.25,0.55,0.71,0.55,0.88,0.6,0.5,0.4,0.48,0.61,0.55,0.33,0.55,0.55,0.88,0.29,0.44,0.4,0.55,0.83,0.5,0.56,0.48,0.42,0.25,0.55,0.83,0.29,0.33,0.58,0.55,0.61,0.83,0.5,0.55,0.4,0.5,0.61,0.29,0.5,0.33,0.29,0.55,0.58,0.55,0.29,0.33,0.55,0.29,0.42,0.55,0.48,0.5,0.42,0.29,0.48,0.4,0.55,0.33,0.55,0.55,0.5,0.44,0.58,0.29,0.48,0.56,0.48" style="fill:rgb(0,0,0);font-family:URWPalladioL-Roma;font-size:9.96px;stroke:none;">exciting advantages of THz waves. Compared to microwaves, with THz radiation it is easier to achieve</text>
   <text y="628.035" x="76.535,82.316,85.206,90.729,96.51,101.267,105.25099999999999,107.664,112.074,117.041,120.964,124.887,127.778,132.536,136.52,138.942,142.25,145.985,150.742,156.305,162.294,167.052,172.833,177.243,182.82059999999998,185.249,190.215,195.996,202.07160000000002,204.538,207.428,212.395,216.139,221.662,226.42,230.404,232.816,237.783,243.275,247.487,252.91,255.801,261.79,265.028,269.8088,272.259,277.752,282.718,288.499,294.568,302.852,305.742,311.811,315.049,320.83,323.32,325.796,334.08,339.861,342.751,347.162,352.93879999999996,355.416,361.385,365.13,370.553,376.165,379.056,385.124,389.9048,392.355,398.136,401.027,406.549,412.33,417.088,421.072,423.494,427.706,433.676,438.642,441.88,444.77,449.737,452.6254,455.1,458.845,463.603,467.814,473.237,476.128,482.117,485.355,488.246,493.669,499.44579999999996,501.923,506.889,512.67" svgx:width="0.58,0.29,0.56,0.58,0.48,0.4,0.55,0.44,0.5,0.4,0.4,0.29,0.48,0.4,0.55,0.33,0.4,0.48,0.56,0.6,0.48,0.58,0.44,0.56,0.55,0.5,0.58,0.61,0.55,0.29,0.5,0.4,0.56,0.48,0.4,0.55,0.5,0.55,0.42,0.55,0.29,0.6,0.33,0.48,0.55,0.55,0.5,0.58,0.61,0.83,0.29,0.61,0.33,0.58,0.25,0.55,0.83,0.58,0.29,0.44,0.58,0.55,0.6,0.4,0.55,0.56,0.29,0.61,0.48,0.55,0.58,0.29,0.56,0.58,0.48,0.4,0.55,0.42,0.6,0.5,0.33,0.29,0.5,0.29,0.55,0.4,0.48,0.42,0.55,0.29,0.6,0.33,0.29,0.55,0.58,0.55,0.5,0.58,0.61" style="fill:rgb(0,0,0);font-family:URWPalladioL-Roma;font-size:9.96px;stroke:none;">higher carrier frequency and larger absolute bandwidth, which provide higher spatial resolution and</text>
   <text y="641.544" x="76.535,85.508,91.056,94.887,99.6678,102.458,108.667,113.534,116.847,121.928,124.885,127.842,132.0252,134.854,140.402,143.6888,146.489,152.038,157.657,160.035,164.902,169.414,172.727,177.036,179.526,183.702,189.911,194.778,199.087,202.044,208.253,213.12,217.429,219.919,222.734,228.963,237.417,242.397,245.201,253.676,258.757,264.499,269.366,273.5492,276.378,280.89,285.971,291.7478,294.588,299.669,304.181,310.095,313.052,317.92,323.661,328.4418,331.232,334.189,343.162,348.243,353.893,356.85,362.764,368.3416,371.117,376.198,379.4848,382.214,388.128,391.085,396.735,402.649,407.517,411.501,414.234,417.618,421.632,426.712,435.685,440.4658,443.256,447.27,452.351,455.664,460.531,464.84,467.33,470.134,475.215,481.129,487.2046,490.041,494.553,499.634,505.4108,508.251,513.871" svgx:width="0.88,0.55,0.4,0.48,0.55,0.61,0.48,0.33,0.5,0.29,0.29,0.42,0.55,0.55,0.33,0.55,0.55,0.55,0.23,0.48,0.44,0.33,0.42,0.25,0.55,0.61,0.48,0.42,0.29,0.61,0.48,0.42,0.25,0.55,0.61,0.83,0.5,0.55,0.83,0.5,0.56,0.48,0.42,0.55,0.44,0.5,0.58,0.55,0.5,0.44,0.58,0.29,0.48,0.56,0.48,0.55,0.29,0.88,0.5,0.56,0.29,0.58,0.56,0.55,0.5,0.33,0.55,0.58,0.29,0.56,0.58,0.48,0.4,0.55,0.33,0.4,0.5,0.88,0.48,0.55,0.4,0.5,0.33,0.48,0.42,0.25,0.55,0.5,0.58,0.61,0.55,0.44,0.5,0.58,0.55,0.55,0.48" style="fill:rgb(0,0,0);font-family:URWPalladioL-Roma;font-size:9.96px;stroke:none;">more details of objects. Besides, THz waves can achieve imaging at higher frame rates, and can be</text>
   <text y="655.053" x="76.535,82.663,86.971,91.839,97.9146,100.629,103.576,109.35279999999999,112.071,117.812,120.77,126.978,131.846,137.324,139.965,144.274,149.924,155.838,159.151,165.065,169.933,173.245,176.202,180.5844,183.295,188.376,194.484,199.351,203.365,206.678,212.805,216.636,221.4168,224.085,228.099,233.18,239.389,244.47,248.454,251.055,254.439,261.227,264.184,269.519,277.425,284.213,287.49980000000005,290.178,293.135,302.108,307.189,312.839,315.796,321.71,327.36,329.85,333.64,340.845,346.393,355.366,361.473,366.554,370.385,375.253,381.3286,384.043,387.356,392.834,395.475,398.432,404.346,407.73,411.744,416.825,420.666,425.534,431.6096,434.313,442.788,447.869,453.611,458.478,462.787,465.277,467.929,474.158,482.613,487.593,490.265,498.74,503.821,509.562,514.43" svgx:width="0.6,0.42,0.48,0.61,0.55,0.29,0.58,0.55,0.56,0.29,0.61,0.48,0.55,0.55,0.42,0.56,0.58,0.33,0.58,0.48,0.33,0.29,0.44,0.55,0.5,0.6,0.48,0.4,0.33,0.6,0.4,0.48,0.55,0.4,0.5,0.61,0.5,0.4,0.55,0.33,0.72,0.29,0.52,0.78,0.67,0.33,0.55,0.29,0.88,0.5,0.56,0.29,0.58,0.56,0.25,0.55,0.71,0.55,0.88,0.6,0.5,0.4,0.48,0.61,0.55,0.33,0.55,0.55,0.29,0.58,0.33,0.4,0.5,0.4,0.48,0.61,0.55,0.83,0.5,0.56,0.48,0.42,0.25,0.55,0.61,0.83,0.5,0.55,0.83,0.5,0.56,0.48,0.42" style="fill:rgb(0,0,0);font-family:URWPalladioL-Roma;font-size:9.96px;stroke:none;">used in video synthetic aperture radar (ViSAR) imaging. Compared to infrared waves, THz waves</text>
   <text y="668.563" x="76.535,82.449,87.53,93.272,98.0528,101.066,104.378,110.293,115.0738,118.087,123.168,128.787,131.744,134.701,137.659,140.971,146.5486,149.538,152.85,158.328,161.325,167.433,172.3,178.214,183.082,186.395,190.409,195.49,198.802,203.5828,206.597,212.511,218.059,223.973,227.357,236.33,241.198,244.51,249.591,252.548,255.506,258.463,262.84540000000004,265.901,270.982,276.896,282.9716,286.032,288.989,291.946,297.637,303.764,306.721,312.7966,315.847,321.761,327.309,333.223,336.607,342.714,348.263,351.22,356.301,360.28499999999997,363.241,372.214,377.295,380.608,385.476,389.49,392.447,397.528,400.485,404.793,407.283,410.372,418.847,424.761,427.718,432.23,438.0068,441.071,450.044,455.125,460.775,465.642,469.8252,472.867,475.825,479.1118,482.064,488.171,493.72,498.028,502.337,505.294,510.913,513.871" svgx:width="0.58,0.5,0.56,0.48,0.55,0.33,0.58,0.48,0.55,0.5,0.55,0.29,0.29,0.29,0.33,0.56,0.55,0.33,0.55,0.55,0.6,0.48,0.58,0.48,0.33,0.4,0.5,0.33,0.48,0.55,0.58,0.55,0.58,0.33,0.88,0.48,0.33,0.5,0.29,0.29,0.29,0.44,0.55,0.5,0.58,0.61,0.55,0.29,0.29,0.56,0.6,0.29,0.61,0.55,0.58,0.55,0.58,0.33,0.6,0.55,0.29,0.5,0.4,0.55,0.88,0.5,0.33,0.48,0.4,0.29,0.5,0.29,0.42,0.25,0.55,0.83,0.58,0.29,0.44,0.58,0.55,0.88,0.5,0.56,0.48,0.42,0.55,0.29,0.33,0.55,0.6,0.55,0.42,0.42,0.29,0.55,0.29,0.48" style="fill:rgb(0,0,0);font-family:URWPalladioL-Roma;font-size:9.96px;stroke:none;">have the ability to penetrate non-metallic and liquid non-polar materials, which makes it possible</text>
   <text y="682.072" x="76.535,79.848,85.326,88.404,92.245,97.113,102.194,105.151,108.108,113.189,117.96979999999999,121.064,127.172,132.039,136.053,140.362,146.469,151.336,155.848,159.161,162.118,167.86,172.6408,175.735,178.692,187.665,192.746,198.396,201.353,207.267,212.917,215.407,220.498,223.922,229.6988,232.845,237.926,244.134,250.343,253.3,256.613,259.57,265.119,271.033,273.523,276.713,280.026,285.94,290.7208,293.826,296.783,302.331,310.806,315.674,319.65799999999996,322.696,328.803,334.717,340.265,343.578,349.127,354.9038,358.049,362.916,368.83,373.698,377.529,383.179,388.7566,391.837,397.385,400.6718,403.787,410.016,418.471,423.451,426.56,435.035,440.116,445.857,450.725,454.9082,458.041,463.955,468.823,473.904,477.918,480.875,486.4526,489.533,494.045,499.126,505.253,509.562,514.429" svgx:width="0.33,0.55,0.55,0.4,0.48,0.5,0.29,0.29,0.5,0.48,0.55,0.6,0.48,0.4,0.42,0.6,0.48,0.44,0.33,0.29,0.56,0.48,0.55,0.29,0.88,0.5,0.56,0.29,0.58,0.56,0.25,0.55,0.34,0.58,0.55,0.5,0.61,0.61,0.29,0.33,0.29,0.55,0.58,0.25,0.55,0.33,0.58,0.48,0.55,0.29,0.55,0.83,0.48,0.4,0.55,0.6,0.58,0.55,0.33,0.55,0.58,0.55,0.48,0.58,0.48,0.4,0.56,0.56,0.55,0.55,0.33,0.55,0.61,0.83,0.5,0.55,0.83,0.5,0.56,0.48,0.42,0.55,0.58,0.48,0.5,0.4,0.29,0.56,0.55,0.44,0.5,0.6,0.42,0.48,0.42" style="fill:rgb(0,0,0);font-family:URWPalladioL-Roma;font-size:9.96px;stroke:none;">to realize perspective imaging. In addition, the lower photon energy of THz waves nearly causes</text>
   <text y="695.582" x="76.535,82.449,87.92699999999999,91.442,97.357,102.438,106.451,115.2158,118.869,122.182,127.66,131.175,134.488,140.402,145.1828,148.715,154.629,160.756,169.729,174.81,180.5868,184.159,189.779,195.327,201.536,207.1136,210.631,216.758,222.673,228.882,233.749,237.733,241.208,245.516,250.597,253.981,258.849,262.162,267.7396,271.256,274.214,280.128,284.436,290.544,295.411,299.923,303.236,306.193,311.741,317.655,320.145,326.547,334.453,337.41,340.2984,343.802,347.115,353.029,357.896,362.205,366.9858,370.517,375.029,380.943,386.024,390.038,395.119,399.631,402.944,407.811,411.825,414.782,419.091,422.404,425.361,429.873,434.0562,437.626,440.583,445.451,450.532,456.6076,460.186,463.498,468.976,472.492,478.599,482.43,487.978,496.951,499.908,504.217,507.174,513.088" svgx:width="0.58,0.55,0.55,0.58,0.5,0.4,0.88,0.55,0.33,0.55,0.55,0.33,0.58,0.48,0.55,0.58,0.6,0.88,0.5,0.58,0.55,0.55,0.55,0.61,0.56,0.55,0.6,0.58,0.61,0.48,0.4,0.55,0.42,0.5,0.33,0.48,0.33,0.56,0.55,0.29,0.58,0.42,0.6,0.48,0.44,0.33,0.29,0.55,0.58,0.25,0.55,0.78,0.29,0.29,0.55,0.33,0.58,0.48,0.42,0.48,0.55,0.44,0.58,0.5,0.4,0.5,0.44,0.33,0.48,0.4,0.29,0.42,0.33,0.29,0.44,0.42,0.55,0.29,0.48,0.5,0.61,0.55,0.33,0.55,0.55,0.6,0.4,0.55,0.88,0.29,0.42,0.29,0.58,0.56" style="fill:rgb(0,0,0);font-family:URWPalladioL-Roma;font-size:9.96px;stroke:none;">no harm to the human body under safety inspection. All these characteristics lead to promising</text>
   <text y="709.091" x="76.236,82.104,85.785,91.115,95.255,101.123,105.799,110.134,113.317,117.50019999999999,119.917,122.758,128.5348,130.901,136.3,139.141,144.472,153.093,157.77,163.735,166.576,170.911,175.793,178.6814,181.094,183.936,192.557,197.438,202.867,205.708,211.39,216.96759999999998,219.279" svgx:width="0.6,0.4,0.55,0.42,0.6,0.48,0.44,0.33,0.42,0.55,0.29,0.58,0.55,0.55,0.29,0.55,0.88,0.48,0.61,0.29,0.44,0.5,0.29,0.55,0.29,0.88,0.5,0.56,0.29,0.58,0.56,0.55,0.33" style="fill:rgb(0,0,0);font-family:URWPalladioL-Roma;font-size:9.96px;stroke:none;">prospects in biomedical imaging [</text>
   <text y="709.091" x="222.527" svgx:width="0.5" style="fill:rgb(8,117,183);font-family:URWPalladioL-Roma;font-size:9.96px;stroke:none;">1</text>
   <text y="709.091" x="227.509,230.76,233.25,235.671,239.811,242.994,247.875,253.558,259.523,262.774" svgx:width="0.33,0.25,0.55,0.42,0.33,0.5,0.58,0.61,0.33,0.55" style="fill:rgb(0,0,0);font-family:URWPalladioL-Roma;font-size:9.96px;stroke:none;">], stand-o</text>
   <text y="709.091" x="268.101" svgx:width="0.61" style="fill:rgb(0,0,0);font-family:Rpxr;font-size:9.96px;stroke:none;">ﬀ</text>
   <text y="709.091" x="276.498,282.463,287.14,290.323,295.0,299.334,302.517,305.358,310.689,316.4658,318.832,322.083,327.414,331.39799999999997,333.731,336.572,345.193,350.075,355.503,358.344,364.026,369.60360000000003,371.915" svgx:width="0.61,0.48,0.33,0.48,0.44,0.33,0.29,0.55,0.58,0.55,0.33,0.55,0.4,0.55,0.29,0.88,0.5,0.56,0.29,0.58,0.56,0.55,0.33" style="fill:rgb(0,0,0);font-family:URWPalladioL-Roma;font-size:9.96px;stroke:none;">detection for imaging [</text>
   <text y="709.091" x="375.167" svgx:width="0.5" style="fill:rgb(8,117,183);font-family:URWPalladioL-Roma;font-size:9.96px;stroke:none;">2</text>
   <text y="709.091" x="380.148" svgx:width="0.25" style="fill:rgb(0,0,0);font-family:URWPalladioL-Roma;font-size:9.96px;stroke:none;">,</text>
   <text y="709.091" x="382.589" svgx:width="0.5" style="fill:rgb(8,117,183);font-family:URWPalladioL-Roma;font-size:9.96px;stroke:none;">3</text>
   <text y="709.091" x="387.57,390.821,393.31100000000004,395.732,400.614,406.296,412.3716,414.722,418.862,424.29,429.972,433.155,438.837,443.514,446.697,449.538,453.92040000000003,456.333,461.215,467.083,471.759,475.616,478.799,484.686,488.357,493.1378,495.494,499.351,504.232,510.198,515.079" svgx:width="0.33,0.25,0.55,0.5,0.58,0.61,0.55,0.42,0.56,0.58,0.33,0.58,0.48,0.33,0.29,0.44,0.55,0.5,0.6,0.48,0.4,0.33,0.6,0.4,0.48,0.55,0.4,0.5,0.61,0.5,0.4" style="fill:rgb(0,0,0);font-family:URWPalladioL-Roma;font-size:9.96px;stroke:none;">], and synthetic aperture radar</text>
   <text y="722.6" x="76.207,79.525,84.755,92.506,99.161" svgx:width="0.33,0.52,0.78,0.67,0.33" style="fill:rgb(0,0,0);font-family:URWPalladioL-Roma;font-size:9.96px;stroke:none;">(SAR)</text>
   <text y="722.6" x="102.478" svgx:width="0.29" style="fill:rgb(0,0,0);font-family:Rpxr;font-size:9.96px;stroke:none;">/</text>
   <text y="722.6" x="105.337,108.236,114.034,119.663,124.435,128.371,132.595,137.3758,139.857,144.082,149.621,155.419,158.667,164.465,169.237,172.485,175.384,179.76639999999998,182.298,187.279,193.267,198.039,201.974,205.222,211.229,214.985,219.7658,222.248,226.183,231.165,237.252,242.233,246.217,248.659,251.976,255.334,260.564,268.315,274.97,278.25680000000006,280.778,283.677,292.474,297.456,302.995,305.894,311.692,317.2696,319.722" svgx:width="0.29,0.58,0.56,0.48,0.4,0.42,0.48,0.55,0.42,0.56,0.58,0.33,0.58,0.48,0.33,0.29,0.44,0.55,0.5,0.6,0.48,0.4,0.33,0.6,0.4,0.48,0.55,0.4,0.5,0.61,0.5,0.4,0.55,0.33,0.34,0.52,0.78,0.67,0.33,0.55,0.29,0.88,0.5,0.56,0.29,0.58,0.56,0.55,0.33" style="fill:rgb(0,0,0);font-family:URWPalladioL-Roma;font-size:9.96px;stroke:none;">inverse synthetic aperture radar (ISAR) imaging [</text>
   <text y="722.6" x="323.04" svgx:width="0.5" style="fill:rgb(8,117,183);font-family:URWPalladioL-Roma;font-size:9.96px;stroke:none;">4</text>
   <text y="722.6" x="328.021" svgx:width="0.25" style="fill:rgb(0,0,0);font-family:URWPalladioL-Roma;font-size:9.96px;stroke:none;">,</text>
   <text y="722.6" x="330.512" svgx:width="0.5" style="fill:rgb(8,117,183);font-family:URWPalladioL-Roma;font-size:9.96px;stroke:none;">5</text>
   <text y="722.6" x="335.493,338.81" svgx:width="0.33,0.25" style="fill:rgb(0,0,0);font-family:URWPalladioL-Roma;font-size:9.96px;stroke:none;">].</text>
   <text y="736.11" x="97.795,107.012,109.853,113.036,118.8128,121.159,124.342,130.024,134.8048,137.141,142.824,148.154,151.337,154.178,158.513,163.19,168.072,173.471,176.312,181.0928,183.429,189.297,192.978,198.309,203.737,207.418,212.095,216.234,220.4172,222.815,228.146,231.4328,233.838,239.823,247.946,252.926,255.268,259.408,264.739,270.626,274.307,278.642,283.318,287.5012,289.899,294.78,300.463,306.53860000000003,308.869,314.834,319.511,322.694,327.37,331.705,334.888,340.219,344.076,348.2592,350.666,355.997,361.513,366.189,370.173,372.487,375.67,381.352,386.1328,388.469,394.337,399.219,403.359,406.6458,408.982,412.233,416.91,427.493,433.459,438.136,442.47,447.352,453.318,457.994,462.134,464.624,467.035,470.218,475.9,480.6808,483.018,485.859,494.48,499.361,504.79,507.631,513.313" svgx:width="1.0,0.29,0.33,0.58,0.55,0.33,0.58,0.48,0.55,0.58,0.55,0.33,0.29,0.44,0.48,0.5,0.55,0.29,0.48,0.55,0.6,0.4,0.55,0.56,0.4,0.48,0.42,0.42,0.55,0.55,0.33,0.55,0.61,0.83,0.5,0.55,0.42,0.55,0.6,0.4,0.44,0.48,0.42,0.55,0.5,0.58,0.61,0.55,0.61,0.48,0.33,0.48,0.44,0.33,0.55,0.4,0.42,0.55,0.55,0.56,0.48,0.4,0.55,0.33,0.58,0.48,0.55,0.6,0.5,0.42,0.33,0.55,0.33,0.48,0.83,0.61,0.48,0.44,0.5,0.61,0.48,0.42,0.25,0.55,0.33,0.58,0.48,0.55,0.29,0.88,0.5,0.56,0.29,0.58,0.56" style="fill:rgb(0,0,0);font-family:URWPalladioL-Roma;font-size:9.96px;stroke:none;">With the noticeable progress of THz sources and detectors over the past fewdecades, the imaging</text>
   <text y="749.619" x="76.535,81.616,87.53,93.6056,96.259,100.09,104.958,109.47,115.018,120.668,126.582,129.539,132.852,135.809,141.357,147.1338,149.802,158.277,161.234,164.547,170.3238,172.981,179.21,187.665,192.64499999999998,195.266,199.28,204.361,210.57,215.651,219.63500000000002,222.185,226.493,232.143,236.452,239.765,244.632,253.605,257.7882,260.434,266.054,270.921,275.433,280.981,289.954,294.822,299.0052,301.651,307.758,313.306,317.615,321.923,324.88,330.5,333.457,338.325,340.815,344.442,352.348,358.262,361.575,364.532,367.4204,370.009,375.923,381.472,389.032,391.522,394.103,400.332,408.787,413.767,416.388,420.402,425.483,431.692,436.773,440.757,443.307,446.264,455.237,460.318,465.968,468.925,474.839,480.4166,483.009,487.318,492.968,497.276,500.589,505.457,514.43" svgx:width="0.5,0.58,0.61,0.55,0.4,0.48,0.44,0.55,0.56,0.58,0.29,0.33,0.29,0.55,0.58,0.55,0.83,0.29,0.33,0.58,0.55,0.61,0.83,0.5,0.55,0.4,0.5,0.61,0.5,0.4,0.55,0.42,0.56,0.42,0.33,0.48,0.88,0.42,0.55,0.55,0.48,0.44,0.55,0.88,0.48,0.42,0.55,0.6,0.55,0.42,0.42,0.29,0.55,0.29,0.48,0.25,0.55,0.78,0.58,0.33,0.29,0.29,0.55,0.58,0.55,0.83,0.25,0.55,0.61,0.83,0.5,0.55,0.4,0.5,0.61,0.5,0.4,0.55,0.29,0.88,0.5,0.56,0.29,0.58,0.56,0.55,0.42,0.56,0.42,0.33,0.48,0.88,0.42" style="fill:rgb(0,0,0);font-family:URWPalladioL-Roma;font-size:9.96px;stroke:none;">and recognition with THz radar systems becomes possible. Until now, THz radar imaging systems</text>
   <text y="763.129" x="76.535,81.047,86.595,92.723,95.68,101.7556,104.693,110.313,115.0938,117.995,124.204,127.161,132.903,135.86,142.069,146.936,153.01160000000002,155.95,158.907,164.821,168.134,173.612,176.497,179.81,185.724,189.555,194.423,199.2038,202.105,211.078,216.159,219.116,224.89280000000002,227.835,232.347,237.428,240.74,245.608,251.258,256.806,260.82,263.777,268.645,272.953,275.443,279.62,283.634,288.714,293.023,296.336,301.203,305.034,308.418,312.727,317.239,322.32,328.234,334.148,337.105,343.019,348.5966,351.484,355.498,360.579,366.788,371.869,375.853,378.688,382.996,388.646,392.955,396.268,401.135,410.108,414.417,416.907,419.843,428.816,431.773,437.017,441.884,448.093,451.477,455.785,460.297,465.378,471.292,477.207,480.164,486.078,491.6556,494.543,498.557,503.638,509.847,514.927" svgx:width="0.44,0.55,0.6,0.29,0.61,0.55,0.55,0.48,0.55,0.61,0.29,0.56,0.29,0.61,0.48,0.61,0.55,0.29,0.58,0.33,0.55,0.55,0.33,0.58,0.4,0.48,0.48,0.55,0.88,0.5,0.29,0.58,0.55,0.44,0.5,0.33,0.48,0.56,0.55,0.4,0.29,0.48,0.42,0.25,0.55,0.4,0.5,0.42,0.33,0.48,0.4,0.33,0.42,0.44,0.5,0.58,0.58,0.29,0.58,0.56,0.55,0.4,0.5,0.61,0.5,0.4,0.55,0.42,0.56,0.42,0.33,0.48,0.88,0.42,0.25,0.55,0.88,0.29,0.52,0.48,0.61,0.33,0.42,0.44,0.5,0.58,0.58,0.29,0.58,0.56,0.55,0.4,0.5,0.61,0.5,0.4" style="fill:rgb(0,0,0);font-family:URWPalladioL-Roma;font-size:9.96px;stroke:none;">could be divided into three main categories: raster-scanning radar systems, mixed-scanning radar</text>
   <text y="799.37" x="76.312,80.743,83.844,88.275,91.375,94.914,98.015" svgx:width="0.56,0.39,0.56,0.39,0.44,0.39,0.39" style="fill:rgb(0,0,0);font-family:URWPalladioL-Ital;font-size:7.97px;stroke:none;">Sensors</text>
   <text y="799.37" x="103.107,107.092,111.077,115.062" svgx:width="0.5,0.5,0.5,0.5" style="fill:rgb(0,0,0);font-family:URWPalladioL-Bold;font-size:7.97px;stroke:none;">2019</text>
   <text y="799.37" x="119.047" svgx:width="0.25" style="fill:rgb(0,0,0);font-family:URWPalladioL-Roma;font-size:7.97px;stroke:none;">,</text>
   <text y="799.37" x="123.032,127.017" svgx:width="0.5,0.5" style="fill:rgb(0,0,0);font-family:URWPalladioL-Ital;font-size:7.97px;stroke:none;">19</text>
   <text y="799.37" x="131.003,132.9955,134.988,138.973,142.958,146.943,150.928,152.9205,154.913,159.783,164.135,166.454,168.447,172.432,176.417,178.409,182.394,186.379,190.364" svgx:width="0.25,0.55,0.5,0.5,0.5,0.5,0.25,0.55,0.61,0.55,0.29,0.25,0.5,0.5,0.25,0.5,0.5,0.5,0.5" style="fill:rgb(0,0,0);font-family:URWPalladioL-Roma;font-size:7.97px;stroke:none;">, 2330; doi:10.3390</text>
   <text y="799.37" x="194.349" svgx:width="0.29" style="fill:rgb(0,0,0);font-family:Rpxr;font-size:7.97px;stroke:none;">/</text>
   <text y="799.37" x="196.636,200.015,204.0,207.985,211.97,215.956,219.941,223.926,227.911,231.89600000000002,405.819,412.466,419.113,425.027,427.02,434.057,438.927,443.717,446.036,448.029,451.568,455.919" svgx:width="0.42,0.5,0.5,0.5,0.5,0.5,0.5,0.5,0.5,0.55,0.83,0.83,0.83,0.25,0.88,0.61,0.6,0.29,0.25,0.44,0.55,0.88" style="fill:rgb(0,0,0);font-family:URWPalladioL-Roma;font-size:7.97px;stroke:none;">s19102330 www.mdpi.com</text>
   <text y="799.37" x="462.958" svgx:width="0.29" style="fill:rgb(0,0,0);font-family:Rpxr;font-size:7.97px;stroke:none;">/</text>
   <text y="799.37" x="465.245,467.11,471.462,476.268,479.416,484.054,488.039" svgx:width="0.23,0.55,0.6,0.4,0.58,0.5,0.29" style="fill:rgb(0,0,0);font-family:URWPalladioL-Roma;font-size:7.97px;stroke:none;">journal</text>
   <text y="799.37" x="490.359" svgx:width="0.29" style="fill:rgb(0,0,0);font-family:Rpxr;font-size:7.97px;stroke:none;">/</text>
   <text y="799.37" x="492.646,496.025,499.843,504.482,507.861,512.213,515.361" svgx:width="0.42,0.48,0.58,0.42,0.55,0.4,0.42" style="fill:rgb(0,0,0);font-family:URWPalladioL-Roma;font-size:7.97px;stroke:none;">sensors</text>
  </g>
 </g>
</svg>
