<?xml version="1.0" encoding="UTF-8"?>
<svg height="819.63" width="4334.4529999999995" xmlns="http://www.w3.org/2000/svg">
 <g id="page" xmlns:svgx="http://www.xml-cml.org/schema/svgx">
  <path style="fill:rgb(2,0,0);stroke:none;stroke-width:1.0;" d="M9.01 8.73 L616.42 8.73 L616.42 809.63 L9.01 809.63 M9.01 17.63 L9.01 17.35 "/>
  <path style="fill:rgb(2,0,0);stroke:none;stroke-width:1.0;" d="M17.63 8.73 L17.92 8.73 L17.63 8.73 "/>
  <path style="fill:rgb(2,0,0);stroke:none;stroke-width:1.0;" d="M607.46 8.73 L607.75 8.73 L607.46 8.73 "/>
  <path style="fill:rgb(2,0,0);stroke:none;stroke-width:1.0;" d="M616.42 17.63 L616.42 17.35 "/>
  <path style="fill:rgb(2,0,0);stroke:none;stroke-width:1.0;" d="M616.42 800.96 L616.42 800.67 "/>
  <path style="fill:rgb(2,0,0);stroke:none;stroke-width:1.0;" d="M607.46 809.63 L607.75 809.63 L607.46 809.63 "/>
  <path style="fill:rgb(2,0,0);stroke:none;stroke-width:1.0;" d="M17.63 809.63 L17.92 809.63 L17.63 809.63 "/>
  <path style="fill:rgb(2,0,0);stroke:none;stroke-width:1.0;" d="M9.01 8.73 L616.42 8.73 L616.42 809.63 L9.01 809.63 M9.01 800.96 L9.01 800.67 "/>
  <g begin="text">
   <text y="75.685" x="60.491,63.809,69.137,74.435,78.263,82.46300000000001,89.886,93.684,98.962,103.54,107.968,111.286,114.904,119.00399999999999,126.356,130.835,136.107,144.015,149.293,154.541,157.859,162.437,167.437,174.796,177.794,183.093,186.29299999999998,193.751,197.039,202.367" svgx:width="0.29,0.5,0.49,0.34,0.42,0.55,0.34,0.49,0.42,0.41,0.29,0.32,0.41,0.55,0.41,0.49,0.75,0.49,0.49,0.29,0.42,0.5,0.55,0.26,0.49,0.32,0.55,0.29,0.5,0.42" style="fill:rgb(0,0,0);font-family:AdvOT2e364b11;font-size:10.0px;stroke:none;">those spectra computed for the</text>
   <text y="75.685" x="213.96" svgx:width="0.53" style="fill:rgb(0,0,0);font-family:AdvOT02ce3bbb.I;font-size:10.0px;stroke:none;">P</text>
   <text y="75.685" x="219.629" svgx:width="0.48" style="fill:rgb(0,0,0);font-family:AdvOT2e364b11;font-size:10.0px;stroke:none;">2</text>
   <text y="77.669" x="224.731" svgx:width="0.48" style="fill:rgb(0,0,0);font-family:AdvOT2e364b11;font-size:6.7px;stroke:none;">1</text>
   <text y="75.685" x="228.302" svgx:width="0.46" style="fill:rgb(0,0,0);font-family:AdvOT2e364b11;font-size:10.0px;stroke:none;">/</text>
   <text y="75.685" x="233.234" svgx:width="0.34" style="fill:rgb(0,0,0);font-family:AdvOT02ce3bbb.I;font-size:10.0px;stroke:none;">c</text>
   <text y="75.685" x="244.006,247.834,251.151,254.768,260.015,264.442,267.759,273.006,276.623,280.823,288.245,292.667,296.284" svgx:width="0.34,0.29,0.32,0.49,0.41,0.29,0.49,0.32,0.42,0.55,0.41,0.32,0.42" style="fill:rgb(0,0,0);font-family:AdvOT2e364b11;font-size:10.0px;stroke:none;">structure are</text>
   <text y="86.797" x="60.491,65.361,70.361,73.811,77.871,80.811,83.191,86.641,89.261,93.321,97.371,100.311,105.231,108.471,112.781,114.781,118.489,127.249,131.44899999999998,135.1,139.15,144.07,149.071,153.121,155.431,160.301,165.271,169.47099999999998,173.142,176.082,181.032,185.092,188.032,190.032,193.722,198.612,202.812,206.862,210.922,215.792,219.242,223.44199999999998,227.114,232.034,234.634,238.339,241.279,246.229,250.429,254.101,258.481,263.401,268.321,273.321,276.948,284.478,288.538,291.478,295.528" svgx:width="0.49,0.5,0.34,0.41,0.29,0.24,0.34,0.26,0.41,0.41,0.29,0.49,0.32,0.43,0.2,0.55,0.88,0.42,0.55,0.41,0.49,0.5,0.41,0.23,0.49,0.5,0.42,0.55,0.29,0.5,0.41,0.29,0.2,0.55,0.49,0.42,0.41,0.41,0.49,0.34,0.42,0.55,0.49,0.26,0.55,0.29,0.5,0.42,0.55,0.44,0.49,0.49,0.5,0.55,0.75,0.41,0.29,0.41,0.5" style="fill:rgb(0,0,0);font-family:AdvOT2e364b11;font-size:10.0px;stroke:none;">unsatisfactory. We conclude that, because of the good match</text>
   <text y="97.909" x="60.491,62.871,67.87100000000001,70.639,72.949,77.009,79.949,82.889,85.269,89.319,93.519,96.321,101.221,105.281,108.521,112.581,120.111,124.311,127.251,131.451,134.691,138.141,140.141,142.98,147.951,150.35,155.452,158.692,162.752,166.802,169.742,174.662,179.042,182.282,186.342,193.842,196.668,200.728,205.728,210.728,213.506,217.716,220.096,224.986,228.226,232.286,235.226,237.606,242.526,247.526,251.587,253.887,256.708,260.158,265.058,269.258,273.308,276.248,279.488,283.548,285.548,288.4,291.34,296.29" svgx:width="0.24,0.5,0.55,0.23,0.41,0.29,0.29,0.24,0.41,0.42,0.55,0.49,0.41,0.32,0.41,0.75,0.42,0.29,0.42,0.32,0.34,0.2,0.55,0.5,0.24,0.51,0.32,0.41,0.41,0.29,0.49,0.44,0.32,0.41,0.75,0.55,0.41,0.5,0.5,0.55,0.42,0.24,0.49,0.32,0.41,0.29,0.24,0.49,0.5,0.41,0.23,0.55,0.34,0.49,0.42,0.41,0.29,0.32,0.41,0.2,0.55,0.29,0.5,0.42" style="fill:rgb(0,0,0);font-family:AdvOT2e364b11;font-size:10.0px;stroke:none;">in lattice parameters, diﬀractogram and vibrational spectra, the</text>
   <text y="109.077" x="60.491,64.541,69.461,76.991,81.891,86.761,89.701,93.901" svgx:width="0.41,0.49,0.75,0.49,0.49,0.29,0.42,0.5" style="fill:rgb(0,0,0);font-family:AdvOT2e364b11;font-size:10.0px;stroke:none;">computed</text>
   <text y="109.077" x="101.933,107.223" svgx:width="0.53,0.34" style="fill:rgb(0,0,0);font-family:AdvOT02ce3bbb.I;font-size:10.0px;stroke:none;">Pc</text>
   <text y="109.077" x="113.725,121.255,123.635,128.635,131.015,138.545,143.415,150.915,154.035,158.085,163.005,166.245,169.485,173.685,177.735,180.675,182.985,187.28500000000003,190.432,195.402,199.602,203.052,207.102,210.342,212.722,217.612,221.812,225.21200000000002,228.36,231.3,236.25" svgx:width="0.75,0.24,0.5,0.24,0.75,0.49,0.75,0.55,0.41,0.49,0.32,0.32,0.42,0.41,0.29,0.23,0.43,0.55,0.5,0.42,0.34,0.41,0.32,0.24,0.49,0.42,0.34,0.55,0.29,0.5,0.42" style="fill:rgb(0,0,0);font-family:AdvOT2e364b11;font-size:10.0px;stroke:none;">minimum correctly describes the</text>
   <text y="109.077" x="243.552,246.422,251.533,255.123,262.923,266.003,269.493" svgx:width="0.29,0.51,0.36,0.78,0.55,0.35,0.35" style="fill:rgb(0,0,0);font-family:AdvOT51c1769e;font-size:10.0px;stroke:none;">form II</text>
   <text y="109.077" x="276.095,280.145,283.385,287.695,291.145,294.085,298.145" svgx:width="0.41,0.32,0.43,0.34,0.29,0.41,0.23" style="fill:rgb(0,0,0);font-family:AdvOT2e364b11;font-size:10.0px;stroke:none;">crystal</text>
   <text y="120.189" x="60.491,63.941,66.881,70.121,74.991,79.041,81.981,86.851,90.091,94.291" svgx:width="0.34,0.29,0.32,0.49,0.41,0.29,0.49,0.32,0.42,0.2" style="fill:rgb(0,0,0);font-family:AdvOT2e364b11;font-size:10.0px;stroke:none;">structure.</text>
   <text y="131.245" x="69.448,75.578,78.97800000000001,83.848,87.948,92.635,97.511,102.511,106.571,108.871,113.612,117.662,122.582,130.112,137.642,141.842,146.842,149.74200000000002,154.602,157.542,162.442,167.188,170.128,175.078,179.278,184.083,186.703,191.623,196.493,201.493" svgx:width="0.61,0.34,0.55,0.41,0.55,0.48,0.5,0.41,0.23,0.55,0.41,0.49,0.75,0.75,0.42,0.5,0.29,0.55,0.29,0.49,0.55,0.29,0.5,0.42,0.55,0.26,0.49,0.49,0.5,0.5" style="fill:rgb(0,0,0);font-family:AdvOT2e364b11;font-size:10.0px;stroke:none;">As a ﬁnal comment to the found</text>
   <text y="131.245" x="211.237,216.527" svgx:width="0.53,0.34" style="fill:rgb(0,0,0);font-family:AdvOT02ce3bbb.I;font-size:10.0px;stroke:none;">Pc</text>
   <text y="131.245" x="224.673,228.123,231.063,234.303,239.173,243.223,246.163,251.034,254.274,258.474,263.226,267.986" svgx:width="0.34,0.29,0.32,0.49,0.41,0.29,0.49,0.32,0.42,0.55,0.48,0.48" style="fill:rgb(0,0,0);font-family:AdvOT2e364b11;font-size:10.0px;stroke:none;">structure 10</text>
   <text y="131.245" x="272.749" svgx:width="0.5" style="fill:rgb(0,0,0);font-family:AdvOT8608a8d1;font-size:10.0px;stroke:none;">*</text>
   <text y="131.245" x="277.738,279.738,284.545,286.925,289.825,294.632,297.012" svgx:width="0.2,0.55,0.24,0.29,0.55,0.24,0.34" style="fill:rgb(0,0,0);font-family:AdvOT2e364b11;font-size:10.0px;stroke:none;">, it is</text>
   <text y="142.357" x="60.49,65.49,69.69,73.74,77.94,81.39,84.84,88.9,92.14,96.44,99.268,102.208,107.108,109.983,114.043,119.013,124.013,126.821,129.761,134.711,138.771,141.711,143.711,146.551,150.001,152.381,157.381,161.431,165.631,168.491,171.111,174.351,179.271,186.771,189.638,192.578,197.528,201.72799999999998,204.548,207.998,212.058,217.028,221.998,224.308,228.50799999999998,231.364,236.284,241.284,245.48399999999998,248.316,255.846,259.906,264.206,267.081,271.461,276.361,279.213,284.183,289.103,295.493" svgx:width="0.5,0.42,0.41,0.42,0.34,0.34,0.41,0.32,0.43,0.55,0.29,0.49,0.55,0.41,0.5,0.5,0.55,0.29,0.5,0.41,0.29,0.2,0.55,0.34,0.24,0.5,0.41,0.42,0.55,0.26,0.32,0.49,0.75,0.55,0.29,0.5,0.42,0.55,0.34,0.41,0.5,0.5,0.23,0.42,0.55,0.49,0.5,0.42,0.55,0.75,0.41,0.43,0.55,0.44,0.49,0.55,0.5,0.49,0.64,0.5" style="fill:rgb(0,0,0);font-family:AdvOT2e364b11;font-size:10.0px;stroke:none;">necessary to add that, since from the saddle one may go down</text>
   <text y="153.469" x="60.49,62.87,67.87,70.978,73.918,80.308,85.20800000000001,88.326,93.296,95.696,100.798,104.998,108.238,112.438,117.438,120.33800000000001,123.475,128.445,130.825,134.065,138.265,142.315,145.256,147.636,152.556,157.556,160.95600000000002,164.125,168.175,170.555,172.595,176.795,178.835,180.835,183.968,188.888,193.888,198.088,201.259,208.789,212.849,217.149,220.251,222.871,226.111,230.311,234.511,236.821,241.121,244.232,247.683,251.883,254.193,258.393,262.443,265.34299999999996,268.498,271.438,276.388,280.58799999999997,283.748,289.248,292.309,297.229" svgx:width="0.24,0.5,0.55,0.29,0.64,0.49,0.55,0.5,0.24,0.51,0.42,0.32,0.42,0.5,0.29,0.55,0.5,0.24,0.32,0.42,0.41,0.29,0.24,0.49,0.5,0.34,0.55,0.41,0.24,0.2,0.42,0.2,0.2,0.55,0.49,0.5,0.42,0.55,0.75,0.41,0.43,0.55,0.26,0.32,0.42,0.42,0.23,0.43,0.55,0.34,0.42,0.23,0.42,0.41,0.29,0.55,0.29,0.5,0.42,0.55,0.55,0.55,0.49,0.32" style="fill:rgb(0,0,0);font-family:AdvOT2e364b11;font-size:10.0px;stroke:none;">in two diﬀerent directions (i.e., one may freely select the + or</text>
   <text y="164.581" x="60.49" svgx:width="0.69" style="fill:rgb(0,0,0);font-family:AdvOT8608a8d1;font-size:10.0px;stroke:none;">−</text>
   <text y="164.581" x="72.622,76.072,78.452,82.832,87.832,93.202,95.822,100.742,103.94200000000001,109.303,112.243,117.193,121.393,126.708,131.608,135.808,139.048,141.988,146.859,150.099,154.989,159.049,161.989,164.369,169.289,174.289,178.339,180.339,185.727,188.667,195.057,199.957,205.286,210.256,212.636,216.086,219.026,221.406,226.406,230.456,233.356,238.735,246.266,248.646,253.646,256.026,263.556,267.656,272.922,276.972,281.032,286.032,291.404,296.294" svgx:width="0.34,0.24,0.44,0.5,0.55,0.26,0.49,0.32,0.55,0.29,0.5,0.42,0.55,0.49,0.42,0.32,0.29,0.49,0.32,0.49,0.41,0.29,0.24,0.49,0.5,0.41,0.2,0.55,0.29,0.64,0.49,0.55,0.5,0.24,0.34,0.29,0.24,0.5,0.41,0.29,0.55,0.75,0.24,0.5,0.24,0.75,0.41,0.55,0.41,0.41,0.5,0.55,0.49,0.42" style="fill:rgb(0,0,0);font-family:AdvOT2e364b11;font-size:10.0px;stroke:none;">sign for the perturbation), two distinct minima can be</text>
   <text y="175.693" x="60.49,64.87,69.07,74.07,78.27,81.51,85.57,88.51,92.71,97.68,99.68,104.087,111.567,116.487,122.877,127.077,131.287,135.487,138.727,140.727,145.134,148.074,153.024,157.224,161.632,164.572,170.962,175.862,180.227,185.147,190.047,192.987,195.367,202.897,205.277,209.147,213.347,218.347,222.69,226.14,229.08,232.32,237.19,241.24,244.18,249.051,252.291,256.491,259.941,261.941,266.402,272.792,277.742,280.122,284.172,289.172,293.501,297.561" svgx:width="0.44,0.42,0.5,0.42,0.32,0.41,0.29,0.42,0.5,0.2,0.55,0.75,0.49,0.64,0.42,0.42,0.42,0.32,0.2,0.55,0.29,0.5,0.42,0.55,0.29,0.64,0.49,0.55,0.49,0.49,0.29,0.24,0.75,0.24,0.39,0.42,0.5,0.55,0.34,0.29,0.32,0.49,0.41,0.29,0.49,0.32,0.42,0.34,0.2,0.55,0.64,0.5,0.24,0.41,0.5,0.55,0.41,0.29" style="fill:rgb(0,0,0);font-family:AdvOT2e364b11;font-size:10.0px;stroke:none;">generated. However, the two optimized structures, which at</text>
   <text y="186.861" x="60.49,65.309,68.549,71.999,74.899,77.328,80.778,83.158,87.538,92.488,95.388,97.794,101.854,106.754,111.654,115.854,119.914,123.154,127.354,132.35399999999998,134.701,137.641,142.541,144.963,149.933,152.313,155.763,160.663,162.973,167.033,171.333,173.707,178.627,183.527,188.427,193.347,196.797,199.177,202.117,206.31699999999998,208.687,211.927,216.847,219.787,223.847,226.787,229.167,234.087,239.087,242.487,244.915,249.835,252.435,254.836,257.776,262.726,266.926,269.293,274.193,279.143,283.343,288.343,292.653,294.963,298.413" svgx:width="0.48,0.32,0.34,0.29,0.55,0.34,0.24,0.44,0.5,0.29,0.55,0.41,0.49,0.49,0.42,0.41,0.32,0.42,0.5,0.55,0.29,0.49,0.55,0.5,0.24,0.34,0.49,0.23,0.41,0.43,0.55,0.49,0.49,0.49,0.49,0.34,0.24,0.29,0.42,0.55,0.32,0.49,0.29,0.41,0.29,0.24,0.49,0.5,0.34,0.55,0.49,0.26,0.55,0.29,0.5,0.42,0.55,0.49,0.5,0.42,0.5,0.43,0.23,0.34,0.2" style="fill:rgb(0,0,0);font-family:AdvOT2e364b11;font-size:10.0px;stroke:none;">ﬁrst sight appeared to display opposite rotations of the phenyls,</text>
   <text y="197.973" x="60.49,64.55,67.79,71.99000000000001,76.137,80.197,84.247,87.187,92.057,96.117,98.427,100.737,105.03699999999999,109.189,111.569,116.539,120.739,125.739,128.679,131.059,135.109,139.169,141.46900000000002,145.644,150.534,155.404,158.304,162.482,165.102,170.022,173.22199999999998,177.392,181.492,185.612,189.062,194.012,196.392,199.012,201.912,206.078,210.998,213.59799999999998,217.757,220.697,225.647,229.84699999999998,234.028,238.948,242.188,244.568,248.949,251.329,256.329,258.329,262.489,268.899,273.849,278.719,282.169,284.169,288.398,291.338,296.288" svgx:width="0.41,0.32,0.42,0.55,0.41,0.41,0.29,0.49,0.41,0.23,0.23,0.43,0.55,0.24,0.5,0.42,0.5,0.29,0.24,0.41,0.41,0.23,0.55,0.49,0.49,0.29,0.55,0.26,0.49,0.32,0.55,0.41,0.55,0.34,0.5,0.24,0.26,0.29,0.55,0.49,0.26,0.55,0.29,0.5,0.42,0.55,0.49,0.32,0.24,0.44,0.24,0.5,0.2,0.55,0.64,0.5,0.49,0.34,0.2,0.55,0.29,0.5,0.42" style="fill:rgb(0,0,0);font-family:AdvOT2e364b11;font-size:10.0px;stroke:none;">are actually identical but for a shift of the origin. Thus, the</text>
   <text y="209.085" x="60.49" svgx:width="0.53" style="fill:rgb(0,0,0);font-family:AdvOT02ce3bbb.I;font-size:10.0px;stroke:none;">P</text>
   <text y="209.085" x="65.762" svgx:width="0.48" style="fill:rgb(0,0,0);font-family:AdvOT2e364b11;font-size:10.0px;stroke:none;">2</text>
   <text y="211.068" x="70.526" svgx:width="0.48" style="fill:rgb(0,0,0);font-family:AdvOT2e364b11;font-size:6.7px;stroke:none;">1</text>
   <text y="209.083" x="73.701" svgx:width="0.46" style="fill:rgb(0,0,0);font-family:AdvOT2e364b11;font-size:10.0px;stroke:none;">/</text>
   <text y="209.083" x="78.236" svgx:width="0.34" style="fill:rgb(0,0,0);font-family:AdvOT02ce3bbb.I;font-size:10.0px;stroke:none;">c</text>
   <text y="209.083" x="84.926,88.376,92.436,97.406,102.376,104.686,108.88600000000001,112.196,115.646,118.586,121.826,126.696,130.746,133.686,138.556,141.796,145.99599999999998,149.275,156.805,160.865,165.16500000000002,168.494,173.384,177.58399999999997,180.91,185.88,190.08,193.53,197.58,200.82,203.2,208.09,212.29,217.29,220.539,224.599,227.999,231.367,235.427,240.427,243.726,247.787,251.997,256.197,259.437,263.497,267.877,272.077,275.362,280.282,282.882,286.247,289.187,295.577" svgx:width="0.34,0.41,0.5,0.5,0.23,0.42,0.55,0.34,0.29,0.32,0.49,0.41,0.29,0.49,0.32,0.42,0.55,0.75,0.41,0.43,0.55,0.49,0.42,0.55,0.5,0.42,0.34,0.41,0.32,0.24,0.49,0.42,0.5,0.55,0.41,0.34,0.55,0.41,0.5,0.55,0.41,0.42,0.42,0.32,0.41,0.44,0.42,0.55,0.49,0.26,0.55,0.29,0.64,0.49" style="fill:rgb(0,0,0);font-family:AdvOT2e364b11;font-size:10.0px;stroke:none;">saddle structure may be described as an average of two</text>
   <text y="220.195" x="60.491,63.941,68.891,71.271,73.891,76.831,81.031,86.001,88.001,92.863,97.753,102.623,105.52300000000001,110.381,115.301,118.241,123.191,127.391,130.631,137.021,139.401,142.851,147.051,151.938,154.318,159.288,163.488,168.488,171.428,173.808,177.858,181.918,184.228" svgx:width="0.34,0.5,0.24,0.26,0.29,0.42,0.5,0.2,0.55,0.49,0.49,0.29,0.55,0.49,0.29,0.5,0.42,0.32,0.64,0.24,0.34,0.42,0.55,0.24,0.5,0.42,0.5,0.29,0.24,0.41,0.41,0.23,0.2" style="fill:rgb(0,0,0);font-family:AdvOT2e364b11;font-size:10.0px;stroke:none;">shifted, but otherwise identical,</text>
   <text y="220.195" x="191.112,196.402" svgx:width="0.53,0.34" style="fill:rgb(0,0,0);font-family:AdvOT02ce3bbb.I;font-size:10.0px;stroke:none;">Pc</text>
   <text y="220.195" x="204.605,212.135,214.515,219.515,221.895,229.425,233.525,238.338,242.388,246.258,250.459,253.699,258.619,261.479,266.379,271.299,273.679,278.679,281.57899999999995,286.472,290.532,295.532" svgx:width="0.75,0.24,0.5,0.24,0.75,0.41,0.55,0.41,0.39,0.42,0.32,0.49,0.29,0.49,0.49,0.24,0.5,0.29,0.55,0.41,0.5,0.5" style="fill:rgb(0,0,0);font-family:AdvOT2e364b11;font-size:10.0px;stroke:none;">minima (zero-point and</text>
   <text y="231.308" x="60.491,63.431,68.381,72.581,75.821,83.351,87.411,89.711,93.94,101.47,106.39,109.33,111.71,116.63,121.63,125.858,129.918,134.128,138.328,141.568,145.629,150.009,154.20899999999997,158.458,163.378,167.588,171.788,174.988,179.264,182.714,187.024,194.554,202.084,206.284,209.224,212.464,214.844,218.894,222.954,225.264,227.574,231.87400000000002,236.128,240.328,245.229,250.099,252.479,256.689,260.749,263.059,267.259,272.259,275.159,279.443,281.753,286.673,293.063,297.263" svgx:width="0.29,0.5,0.42,0.32,0.75,0.41,0.23,0.55,0.75,0.49,0.29,0.24,0.49,0.5,0.55,0.41,0.42,0.42,0.32,0.41,0.44,0.42,0.55,0.49,0.42,0.42,0.32,0.55,0.34,0.43,0.75,0.75,0.42,0.29,0.32,0.24,0.41,0.41,0.23,0.23,0.43,0.55,0.42,0.49,0.49,0.24,0.42,0.41,0.23,0.42,0.5,0.29,0.55,0.23,0.49,0.64,0.42,0.32" style="fill:rgb(0,0,0);font-family:AdvOT2e364b11;font-size:10.0px;stroke:none;">thermal motion average over symmetrically equivalent lower</text>
   <text y="242.42" x="60.491,63.941,68.251,75.781,83.311,87.511,90.451,93.691,97.991,102.274,105.724,108.664,111.904,116.774,120.824,123.764,128.634,131.874,136.074,139.524,141.524,145.872,149.932,153.332,157.721,161.171,165.371,169.571,174.571,178.868,181.488,186.408,189.60799999999998,193.948,197.188,201.248,205.298,209.498,217.028,219.408,223.50799999999998,227.737,232.737,236.797,241.697,244.938,249.858,253.848,258.048,263.048" svgx:width="0.34,0.43,0.75,0.75,0.42,0.29,0.32,0.43,0.55,0.34,0.29,0.32,0.49,0.41,0.29,0.49,0.32,0.42,0.34,0.2,0.55,0.41,0.34,0.55,0.34,0.42,0.42,0.5,0.55,0.26,0.49,0.32,0.55,0.32,0.41,0.41,0.42,0.75,0.24,0.41,0.55,0.5,0.41,0.49,0.32,0.49,0.4,0.42,0.5,0.42" style="fill:rgb(0,0,0);font-family:AdvOT2e364b11;font-size:10.0px;stroke:none;">symmetry structures, as seen for racemic naproxene</text>
   <text y="237.997" x="267.25,270.82" svgx:width="0.48,0.48" style="fill:rgb(33,59,144);font-family:AdvOT2e364b11;font-size:6.67px;stroke:none;">57</text>
   <text y="242.419" x="274.507,278.557,280.557,284.939,291.349,296.299" svgx:width="0.41,0.2,0.55,0.64,0.5,0.42" style="fill:rgb(0,0,0);font-family:AdvOT2e364b11;font-size:10.0px;stroke:none;">). The</text>
   <text y="253.587" x="60.491,63.731,67.931,70.241,74.301,77.241,79.621,84.541,89.541,92.991,97.941,100.321,105.221,108.62100000000001,113.329,117.389,124.919,129.84,134.84,139.24,143.944,146.884,151.834,156.034,160.725,164.935,168.995,172.235,174.615,179.535,184.405,187.805,192.587,196.037,198.977,202.217,207.087,211.137,214.077,218.947,222.187,226.387,229.787,234.541,238.601,241.841,246.041,250.699,253.079,255.389,257.699,262.569,266.019,268.959,272.199,276.259,279.199,283.399,288.399,293.106,295.486" svgx:width="0.32,0.42,0.23,0.41,0.29,0.24,0.49,0.5,0.34,0.5,0.24,0.49,0.34,0.55,0.41,0.75,0.49,0.5,0.44,0.55,0.29,0.5,0.42,0.55,0.42,0.41,0.32,0.24,0.49,0.49,0.34,0.55,0.34,0.29,0.32,0.49,0.41,0.29,0.49,0.32,0.42,0.34,0.55,0.41,0.32,0.42,0.55,0.24,0.23,0.23,0.49,0.34,0.29,0.32,0.41,0.29,0.42,0.5,0.55,0.24,0.5" style="fill:rgb(0,0,0);font-family:AdvOT2e364b11;font-size:10.0px;stroke:none;">relationships among the various structures are illustrated in</text>
   <text y="264.699" x="60.491,65.811,68.191,72.571,77.441,80.681,84.881,88.214" svgx:width="0.53,0.24,0.44,0.49,0.32,0.42,0.55,0.48" style="fill:rgb(33,59,144);font-family:AdvOT2e364b11;font-size:10.0px;stroke:none;">Figure 6</text>
   <text y="264.699" x="92.976" svgx:width="0.2" style="fill:rgb(0,0,0);font-family:AdvOT2e364b11;font-size:10.0px;stroke:none;">.</text>
   <text y="551.68" x="70.469,76.059,81.139,85.629,90.719,93.279,98.999,104.699,108.284,114.164,119.804,125.524,129.695,132.255,138.065,143.225,146.785,151.865,155.375,157.935,163.575,169.295,173.465" svgx:width="0.56,0.51,0.45,0.51,0.26,0.57,0.57,0.55,0.59,0.56,0.57,0.42,0.26,0.58,0.52,0.36,0.51,0.35,0.26,0.56,0.57,0.42,0.24" style="fill:rgb(0,0,0);font-family:AdvOTce3d9a73;font-size:10.0px;stroke:none;">Packing Considerations.</text>
   <text y="551.68" x="179.376,184.876,189.986,193.576,201.376,204.888" svgx:width="0.55,0.51,0.36,0.78,0.55,0.35" style="fill:rgb(0,0,0);font-family:AdvOT51c1769e;font-size:10.0px;stroke:none;">Form I</text>
   <text y="551.68" x="211.974,216.034,221.034" svgx:width="0.41,0.5,0.5" style="fill:rgb(0,0,0);font-family:AdvOT2e364b11;font-size:10.0px;stroke:none;">and</text>
   <text y="551.68" x="229.55,232.42,237.53,241.12,248.92000000000002,252.454,255.944" svgx:width="0.29,0.51,0.36,0.78,0.55,0.35,0.35" style="fill:rgb(0,0,0);font-family:AdvOT51c1769e;font-size:10.0px;stroke:none;">form II</text>
   <text y="551.68" x="262.999,270.529,275.449,277.759,281.959,286.009,290.879,293.189,297.249" svgx:width="0.75,0.49,0.23,0.42,0.41,0.49,0.23,0.41,0.32" style="fill:rgb(0,0,0);font-family:AdvOT2e364b11;font-size:10.0px;stroke:none;">molecular</text>
   <text y="562.678" x="60.491,64.541,69.461,74.461,77.081,82.001,85.241,92.771,96.831,99.771,102.151,107.071,112.071,115.471,122.06,126.111,131.031,134.271,137.511,141.711,145.161,150.061,154.981,159.981,164.981,171.554,174.494,179.394,186.011,188.951,193.901,198.101,204.663,208.113,212.173,219.703,223.903,230.459,237.989,240.369,245.369,247.749,255.279,260.149,267.649,274.283,279.203,281.803,288.4,291.34,296.29" svgx:width="0.41,0.49,0.5,0.26,0.49,0.32,0.75,0.41,0.29,0.24,0.49,0.5,0.34,0.55,0.41,0.49,0.32,0.32,0.42,0.34,0.49,0.49,0.5,0.5,0.55,0.29,0.49,0.55,0.29,0.5,0.42,0.55,0.34,0.41,0.75,0.42,0.55,0.75,0.24,0.5,0.24,0.75,0.49,0.75,0.55,0.49,0.26,0.55,0.29,0.5,0.42" style="fill:rgb(0,0,0);font-family:AdvOT2e364b11;font-size:10.0px;stroke:none;">conformations correspond to the same minimum of the</text>
   <text y="573.676" x="60.491,62.871,66.321,71.241,73.551,77.611,80.551,84.751,89.751,94.11,101.64,106.56,108.87,113.07,117.12,121.99,124.3,128.5,132.889,137.789,142.709,145.649,149.849,154.849,157.789,160.169,164.229,166.52900000000002,170.93,174.38,179.25,182.49,185.11,189.17,193.22,197.42,201.828" svgx:width="0.24,0.34,0.49,0.23,0.41,0.29,0.42,0.5,0.55,0.75,0.49,0.23,0.42,0.41,0.49,0.23,0.42,0.55,0.49,0.49,0.29,0.42,0.5,0.29,0.24,0.41,0.23,0.55,0.34,0.49,0.32,0.26,0.41,0.41,0.42,0.55,0.41" style="fill:rgb(0,0,0);font-family:AdvOT2e364b11;font-size:10.0px;stroke:none;">isolated molecule potential surface (</text>
   <text y="573.676" x="205.852,210.682,215.552,220.452,225.353,230.273,233.513,236.453,238.833,243.833,248.233,252.625,255.845,260.845,263.465,268.385,271.625,279.155,283.215,286.155,288.535,293.455,298.455" svgx:width="0.48,0.49,0.49,0.49,0.49,0.32,0.29,0.24,0.5,0.44,0.55,0.32,0.5,0.26,0.49,0.32,0.75,0.41,0.29,0.24,0.49,0.5,0.2" style="fill:rgb(33,59,144);font-family:AdvOT2e364b11;font-size:10.0px;stroke:none;">Supporting Information,</text>
   <text y="584.674" x="60.491,63.941,68.141,72.191,75.131,77.511,82.431,87.431,90.198" svgx:width="0.34,0.42,0.41,0.29,0.24,0.49,0.5,0.55,0.48" style="fill:rgb(33,59,144);font-family:AdvOT2e364b11;font-size:10.0px;stroke:none;">section 2</text>
   <text y="584.674" x="94.96,99.01,101.01,103.804,109.934,112.834,115.653,118.593,123.543,127.74300000000001,130.508,133.958,138.018,145.548,149.748,152.505,155.445,157.825,165.355,169.555,171.555,174.332,177.272,182.222,186.422,189.242,192.182,198.572,203.472,206.25,208.87,213.79,217.03,224.56,227.96,230.743,234.943,238.933,243.883,246.263,251.153,253.533,256.433,259.26,264.23,266.61,270.06,273.0,275.38,280.38,284.43,287.33,290.158,297.638" svgx:width="0.41,0.2,0.55,0.61,0.29,0.55,0.29,0.5,0.42,0.55,0.34,0.41,0.75,0.42,0.55,0.29,0.24,0.75,0.42,0.2,0.55,0.29,0.5,0.42,0.55,0.29,0.64,0.49,0.55,0.26,0.49,0.32,0.75,0.34,0.55,0.42,0.4,0.5,0.24,0.49,0.24,0.29,0.55,0.5,0.24,0.34,0.29,0.24,0.5,0.41,0.29,0.55,0.75,0.29" style="fill:rgb(0,0,0);font-family:AdvOT2e364b11;font-size:10.0px;stroke:none;">). At the same time, the two forms exhibit distinct H-</text>
   <text y="595.672" x="60.491,65.381,70.301,75.301,80.271,82.651,87.651,92.051,94.904,97.284,102.284,105.224,109.424,112.664,116.724,120.774,123.714,126.094,131.015,136.015,139.415,142.301" svgx:width="0.49,0.49,0.5,0.5,0.24,0.5,0.44,0.55,0.24,0.5,0.29,0.42,0.32,0.41,0.41,0.29,0.24,0.49,0.5,0.34,0.55,0.41" style="fill:rgb(0,0,0);font-family:AdvOT2e364b11;font-size:10.0px;stroke:none;">bonding interactions (</text>
   <text y="595.672" x="146.381,151.701,154.081,158.461,163.331,166.571,170.771,173.651" svgx:width="0.53,0.24,0.44,0.49,0.32,0.42,0.55,0.48" style="fill:rgb(33,59,144);font-family:AdvOT2e364b11;font-size:10.0px;stroke:none;">Figure 3</text>
   <text y="595.672" x="178.412,182.462,184.462,187.369,190.609,192.989,197.879,202.769,207.689,212.689,215.546,219.596,224.546,228.606,230.986,235.986,238.905,243.705,246.502,250.562,255.562,260.562,263.397,266.337,270.397,275.297,279.497,283.59700000000004,286.471,290.531,295.531" svgx:width="0.41,0.2,0.55,0.32,0.24,0.49,0.49,0.49,0.5,0.55,0.41,0.5,0.41,0.24,0.5,0.55,0.48,0.55,0.41,0.5,0.5,0.55,0.29,0.41,0.49,0.42,0.41,0.55,0.41,0.5,0.5" style="fill:rgb(0,0,0);font-family:AdvOT2e364b11;font-size:10.0px;stroke:none;">c, ribbon chain 1 and tape) and</text>
   <text y="606.67" x="60.49,63.94,68.89,73.81,80.21000000000001,82.657,87.657,92.557,95.016,99.916,103.976,108.026,112.506,114.886,119.886,124.286,126.764,130.215,132.595,140.125,142.505,144.815,148.875,152.115,154.495,157.435,159.815,164.015,167.415,169.909" svgx:width="0.34,0.5,0.49,0.64,0.55,0.5,0.49,0.55,0.49,0.41,0.41,0.45,0.24,0.5,0.44,0.55,0.34,0.24,0.75,0.24,0.23,0.41,0.32,0.24,0.29,0.24,0.42,0.34,0.55,0.41" style="fill:rgb(0,0,0);font-family:AdvOT2e364b11;font-size:10.0px;stroke:none;">show no packing similarities (</text>
   <text y="606.67" x="173.99,179.31,181.69,186.07,190.94,194.18,198.38,200.863" svgx:width="0.53,0.24,0.44,0.49,0.32,0.42,0.55,0.48" style="fill:rgb(33,59,144);font-family:AdvOT2e364b11;font-size:10.0px;stroke:none;">Figure 7</text>
   <text y="606.67" x="205.624,209.674,211.674,214.185,220.595,225.545,229.74499999999998,232.214,235.664,238.604,241.844,246.764,251.764,256.164,258.576,266.056,268.916,273.806,278.726,283.726,288.696,291.076,296.076" svgx:width="0.41,0.2,0.55,0.64,0.5,0.42,0.55,0.34,0.29,0.32,0.49,0.5,0.44,0.55,0.75,0.29,0.49,0.49,0.5,0.5,0.24,0.5,0.44" style="fill:rgb(0,0,0);font-family:AdvOT2e364b11;font-size:10.0px;stroke:none;">). The strong H-bonding</text>
   <text y="617.669" x="60.49,62.87,67.87,70.81,75.01,78.25,82.31,86.36,89.3,91.68,96.6,101.6,105.0,107.716,111.766" svgx:width="0.24,0.5,0.29,0.42,0.32,0.41,0.41,0.29,0.24,0.49,0.5,0.34,0.55,0.41,0.73" style="fill:rgb(0,0,0);font-family:AdvOT2e364b11;font-size:10.0px;stroke:none;">interactions (N</text>
   <text y="617.669" x="119.11" svgx:width="0.69" style="fill:rgb(0,0,0);font-family:AdvOT8608a8d1;font-size:10.0px;stroke:none;">−</text>
   <text y="617.669" x="125.913" svgx:width="0.75" style="fill:rgb(0,0,0);font-family:AdvOT2e364b11;font-size:10.0px;stroke:none;">H</text>
   <text y="617.669" x="133.397,135.897,138.397" svgx:width="0.25,0.25,0.25" style="fill:rgb(0,0,0);font-family:AdvOT8608a8d1;font-size:10.0px;stroke:none;">···</text>
   <text y="617.669" x="140.937,148.397,152.49699999999999,155.11,159.17,163.22,167.27,172.19,177.06,182.06,184.96,187.652,190.272,195.192,198.392,201.088,205.848,210.608,217.608,220.25,225.17,227.76999999999998,230.455,233.396,238.346,242.546,245.196,247.576,252.576,255.516,259.716,262.956,270.486,275.406,277.716,281.916,285.966,290.836,293.146,297.206" svgx:width="0.75,0.41,0.55,0.41,0.41,0.41,0.49,0.49,0.5,0.29,0.55,0.26,0.49,0.32,0.55,0.48,0.48,0.7,0.55,0.49,0.26,0.55,0.29,0.5,0.42,0.55,0.24,0.5,0.29,0.42,0.32,0.75,0.49,0.23,0.42,0.41,0.49,0.23,0.41,0.32" style="fill:rgb(0,0,0);font-family:AdvOT2e364b11;font-size:10.0px;stroke:none;">O) account for 50% of the intermolecular</text>
   <text y="628.667" x="60.489,62.869,67.869,70.809,75.009,78.249,82.309,86.359,89.299,91.679,96.599,101.599,104.99900000000001,109.869,112.249" svgx:width="0.24,0.5,0.29,0.42,0.32,0.41,0.41,0.29,0.24,0.49,0.5,0.34,0.55,0.24,0.5" style="fill:rgb(0,0,0);font-family:AdvOT2e364b11;font-size:10.0px;stroke:none;">interactions in</text>
   <text y="628.667" x="122.114,124.984,130.095,133.685,141.485,146.323" svgx:width="0.29,0.51,0.36,0.78,0.55,0.35" style="fill:rgb(0,0,0);font-family:AdvOT51c1769e;font-size:10.0px;stroke:none;">form I</text>
   <text y="628.667" x="154.657,158.717,163.717,168.717,173.536,176.156,181.076" svgx:width="0.41,0.5,0.5,0.55,0.26,0.49,0.32" style="fill:rgb(0,0,0);font-family:AdvOT2e364b11;font-size:10.0px;stroke:none;">and for</text>
   <text y="628.667" x="189.183" svgx:width="0.69" style="fill:rgb(0,0,0);font-family:AdvOT8608a8d1;font-size:10.0px;stroke:none;">∼</text>
   <text y="628.667" x="196.043,200.803,205.563,212.563,217.416,219.796" svgx:width="0.48,0.48,0.7,0.55,0.24,0.5" style="fill:rgb(0,0,0);font-family:AdvOT2e364b11;font-size:10.0px;stroke:none;">45% in</text>
   <text y="628.667" x="229.605,232.476,237.586,241.176,248.976,253.814,257.304" svgx:width="0.29,0.51,0.36,0.78,0.55,0.35,0.35" style="fill:rgb(0,0,0);font-family:AdvOT51c1769e;font-size:10.0px;stroke:none;">form II</text>
   <text y="628.667" x="260.787,262.787,267.703,273.803,278.701,283.671,286.051,289.291,293.491,297.541" svgx:width="0.2,0.55,0.61,0.55,0.5,0.24,0.32,0.42,0.41,0.29" style="fill:rgb(0,0,0);font-family:AdvOT2e364b11;font-size:10.0px;stroke:none;">. A direct</text>
   <text y="639.665" x="60.49,64.54,69.46,76.99,81.89,85.95,89.19,91.57,95.02,99.94,104.94,108.68,113.6,116.19999999999999,119.962,122.902,127.853,132.053,135.78,142.51,148.09,150.95,156.68,161.44,166.94,172.58,178.08,181.758,184.138,189.138,192.078,196.278,199.518,203.578,207.628,210.568,212.948,217.868,222.868,226.603,230.804,235.804,240.004,243.244,247.624,250.004,254.204,257.604,261.414,266.314,269.554,273.754,277.204,281.404,286.404,289.304,293.106,295.486" svgx:width="0.41,0.49,0.75,0.49,0.41,0.32,0.24,0.34,0.49,0.5,0.55,0.49,0.26,0.55,0.29,0.5,0.42,0.55,0.67,0.56,0.29,0.57,0.48,0.55,0.56,0.55,0.55,0.24,0.5,0.29,0.42,0.32,0.41,0.41,0.29,0.24,0.49,0.5,0.55,0.42,0.5,0.42,0.32,0.44,0.24,0.42,0.34,0.55,0.49,0.32,0.42,0.34,0.42,0.5,0.29,0.55,0.24,0.5" style="fill:rgb(0,0,0);font-family:AdvOT2e364b11;font-size:10.0px;stroke:none;">comparison of the CE-B3LYP interaction energies present in</text>
   <text y="650.663" x="60.49,63.36,68.47,72.06,79.86,82.43" svgx:width="0.29,0.51,0.36,0.78,0.55,0.35" style="fill:rgb(0,0,0);font-family:AdvOT51c1769e;font-size:10.0px;stroke:none;">form I</text>
   <text y="650.663" x="88.553,92.613,97.613" svgx:width="0.41,0.5,0.5" style="fill:rgb(0,0,0);font-family:AdvOT2e364b11;font-size:10.0px;stroke:none;">and</text>
   <text y="650.663" x="105.221,108.091,113.201,116.791,124.591,127.218,130.708" svgx:width="0.29,0.51,0.36,0.78,0.55,0.35,0.35" style="fill:rgb(0,0,0);font-family:AdvOT51c1769e;font-size:10.0px;stroke:none;">form II</text>
   <text y="650.663" x="136.8,140.04,144.24,148.45,152.65,156.71,159.02,162.42000000000002,165.09,168.03,172.98,177.04,179.94,182.608,185.548,190.498,194.69799999999998,197.348" svgx:width="0.32,0.42,0.42,0.42,0.41,0.23,0.34,0.55,0.29,0.5,0.41,0.29,0.55,0.29,0.5,0.42,0.55,0.73" style="fill:rgb(0,0,0);font-family:AdvOT2e364b11;font-size:10.0px;stroke:none;">reveals that the N</text>
   <text y="650.663" x="204.661" svgx:width="0.69" style="fill:rgb(0,0,0);font-family:AdvOT8608a8d1;font-size:10.0px;stroke:none;">−</text>
   <text y="650.663" x="211.521" svgx:width="0.75" style="fill:rgb(0,0,0);font-family:AdvOT2e364b11;font-size:10.0px;stroke:none;">H</text>
   <text y="650.663" x="219.004,221.504,224.004" svgx:width="0.25,0.25,0.25" style="fill:rgb(0,0,0);font-family:AdvOT8608a8d1;font-size:10.0px;stroke:none;">···</text>
   <text y="650.663" x="226.487,233.987,236.579,244.059,246.919,251.809,256.729,261.729,266.699,270.149,272.149,274.847,277.467,282.387,287.257,290.457,293.102,295.482" svgx:width="0.75,0.55,0.75,0.29,0.49,0.49,0.5,0.5,0.34,0.2,0.55,0.26,0.49,0.49,0.32,0.55,0.24,0.5" style="fill:rgb(0,0,0);font-family:AdvOT2e364b11;font-size:10.0px;stroke:none;">O H-bonds, four in</text>
   <text y="661.661" x="60.49,64.69,68.75,72.8,77.8,82.714,87.614,92.534,94.844,99.154,106.684,111.604,114.844,119.744,124.694,126.694,131.698,135.758,138.998,143.19799999999998,148.139,153.059,155.659,160.611,164.061,166.441,173.971,176.351,178.661,182.721,185.921,190.942,194.392,197.332,200.572,204.772,209.772,214.152,217.092,222.042,225.442,230.457" svgx:width="0.42,0.41,0.41,0.5,0.55,0.49,0.49,0.23,0.43,0.75,0.49,0.32,0.49,0.5,0.2,0.55,0.41,0.32,0.42,0.55,0.49,0.26,0.55,0.34,0.24,0.75,0.24,0.23,0.41,0.32,0.55,0.34,0.29,0.32,0.42,0.5,0.44,0.29,0.5,0.34,0.55,0.41" style="fill:rgb(0,0,0);font-family:AdvOT2e364b11;font-size:10.0px;stroke:none;">each polymorph, are of similar strengths (</text>
   <text y="661.661" x="234.481,240.891,244.951,249.841,252.151,256.351,261.354,266.184,270.98400000000004,275.867,280.787,283.387,288.396,291.336,296.286" svgx:width="0.64,0.41,0.49,0.23,0.42,0.55,0.48,0.48,0.55,0.49,0.26,0.55,0.29,0.5,0.42" style="fill:rgb(33,59,144);font-family:AdvOT2e364b11;font-size:10.0px;stroke:none;">Table S4 of the</text>
   <text y="672.659" x="60.49,65.32,70.19,75.09,79.99,84.91,88.15,91.09,93.47,98.47,102.87,107.829,111.049,116.049,118.669,123.589,126.829,134.36,138.42,141.36,143.74,148.66" svgx:width="0.48,0.49,0.49,0.49,0.49,0.32,0.29,0.24,0.5,0.44,0.55,0.32,0.5,0.26,0.49,0.32,0.75,0.41,0.29,0.24,0.49,0.5" style="fill:rgb(33,59,144);font-family:AdvOT2e364b11;font-size:10.0px;stroke:none;">Supporting Information</text>
   <text y="672.659" x="153.637,157.687,159.687,164.692,171.422,173.732,178.652,182.102,186.302,191.281,195.331,200.251,205.251,208.191,212.251,216.301,219.241,222.691,224.691,229.719,233.78,237.02,241.94,249.47,253.53,256.47,258.85,262.95000000000005,267.875,271.935,276.935,281.935,286.867" svgx:width="0.41,0.2,0.55,0.67,0.23,0.49,0.34,0.42,0.55,0.41,0.49,0.5,0.29,0.41,0.41,0.29,0.34,0.2,0.55,0.41,0.32,0.49,0.75,0.41,0.29,0.24,0.41,0.55,0.41,0.5,0.5,0.55,0.67" style="fill:rgb(0,0,0);font-family:AdvOT2e364b11;font-size:10.0px;stroke:none;">). Close contacts, aromatic and C</text>
   <text y="672.659" x="293.612" svgx:width="0.69" style="fill:rgb(0,0,0);font-family:AdvOT8608a8d1;font-size:10.0px;stroke:none;">−</text>
   <text y="683.657" x="60.49" svgx:width="0.75" style="fill:rgb(0,0,0);font-family:AdvOT2e364b11;font-size:10.0px;stroke:none;">H</text>
   <text y="683.657" x="67.973,70.473,72.973" svgx:width="0.25,0.25,0.25" style="fill:rgb(0,0,0);font-family:AdvOT8608a8d1;font-size:10.0px;stroke:none;">···</text>
   <text y="683.657" x="75.456" svgx:width="0.5" style="fill:rgb(0,0,0);font-family:AdvOTdd3b7348.I;font-size:10.0px;stroke:none;">π</text>
   <text y="683.657" x="85.321,87.701,92.701,95.641,99.841,103.081,107.141,111.191,114.131,116.511,121.431,126.431,129.882,131.882,136.743,140.793,145.713,150.713,153.653,156.893,159.273,164.163,169.033,171.973,176.173,180.964,188.494,193.414,196.654,200.85399999999998,205.682,208.622,213.52200000000002,218.324,221.264,226.214,230.414,235.276,237.586,241.646,244.586,247.526,249.906,253.956,258.156,262.942,267.142,272.142,276.342,279.582,283.962,288.262,293.103,295.483" svgx:width="0.24,0.5,0.29,0.42,0.32,0.41,0.41,0.29,0.24,0.49,0.5,0.34,0.2,0.55,0.41,0.49,0.5,0.29,0.32,0.24,0.49,0.49,0.29,0.42,0.55,0.75,0.49,0.32,0.42,0.55,0.29,0.49,0.55,0.29,0.5,0.42,0.55,0.23,0.41,0.29,0.29,0.24,0.41,0.42,0.55,0.42,0.5,0.42,0.32,0.44,0.43,0.55,0.24,0.5" style="fill:rgb(0,0,0);font-family:AdvOT2e364b11;font-size:10.0px;stroke:none;">interactions, contribute more to the lattice energy in</text>
   <text y="694.712" x="60.49,63.36,68.47,72.06,79.86,82.544,86.034" svgx:width="0.29,0.51,0.36,0.78,0.55,0.35,0.35" style="fill:rgb(0,0,0);font-family:AdvOT51c1769e;font-size:10.0px;stroke:none;">form II</text>
   <text y="694.712" x="92.238,95.178,100.128,104.188,109.188,111.854,114.234" svgx:width="0.29,0.5,0.41,0.5,0.55,0.24,0.5" style="fill:rgb(0,0,0);font-family:AdvOT2e364b11;font-size:10.0px;stroke:none;">than in</text>
   <text y="694.712" x="121.945,124.815,129.925,133.516,141.316,144.056" svgx:width="0.29,0.51,0.36,0.78,0.55,0.35" style="fill:rgb(0,0,0);font-family:AdvOT51c1769e;font-size:10.0px;stroke:none;">form I</text>
   <text y="694.712" x="147.514,149.514,152.276,156.336,161.336,164.011,168.931,173.821,177.271,181.471,184.711,188.921,192.981,195.921,198.301,203.221,208.221,210.953,217.343,222.293,224.673,228.723,233.723,236.353,240.403,244.463,249.463,252.17,257.06,261.26,263.962,267.202,271.402,273.712,277.772,280.712,284.912,289.912,292.592,295.532" svgx:width="0.2,0.55,0.41,0.5,0.55,0.49,0.49,0.34,0.42,0.32,0.42,0.41,0.29,0.24,0.49,0.5,0.55,0.64,0.5,0.24,0.41,0.5,0.55,0.41,0.41,0.5,0.55,0.49,0.42,0.55,0.32,0.42,0.23,0.41,0.29,0.42,0.5,0.55,0.29,0.49" style="fill:rgb(0,0,0);font-family:AdvOT2e364b11;font-size:10.0px;stroke:none;">, an observation which can be related to</text>
   <text y="705.71" x="60.49,63.43,68.38,72.58,75.4,78.02,82.08,86.13,89.03,91.898,94.838,99.788,103.848" svgx:width="0.29,0.5,0.42,0.55,0.26,0.41,0.41,0.29,0.55,0.29,0.5,0.41,0.29" style="fill:rgb(0,0,0);font-family:AdvOT2e364b11;font-size:10.0px;stroke:none;">the fact that</text>
   <text y="705.71" x="109.642,112.512,117.622,121.212,129.012,131.867,135.357" svgx:width="0.29,0.51,0.36,0.78,0.55,0.35,0.35" style="fill:rgb(0,0,0);font-family:AdvOT51c1769e;font-size:10.0px;stroke:none;">form II</text>
   <text y="705.71" x="141.674,144.054,147.454,150.348,157.878,162.798,166.038,170.238,173.082,178.052,182.252,187.252,190.702,194.902,197.212,201.512,204.377,209.277,213.337,217.387,221.867,226.067,231.067,233.915,236.855,241.805,245.865" svgx:width="0.24,0.34,0.55,0.75,0.49,0.32,0.42,0.55,0.5,0.42,0.5,0.34,0.42,0.23,0.43,0.55,0.49,0.41,0.41,0.45,0.42,0.5,0.55,0.29,0.5,0.41,0.5" style="fill:rgb(0,0,0);font-family:AdvOT2e364b11;font-size:10.0px;stroke:none;">is more densely packed than</text>
   <text y="705.71" x="253.699,256.569,261.679,265.269,273.069,275.866" svgx:width="0.29,0.51,0.36,0.78,0.55,0.35" style="fill:rgb(0,0,0);font-family:AdvOT51c1769e;font-size:10.0px;stroke:none;">form I</text>
   <text y="705.71" x="279.381,281.381,284.257,287.197,292.147,297.017" svgx:width="0.2,0.55,0.29,0.5,0.49,0.34" style="fill:rgb(0,0,0);font-family:AdvOT2e364b11;font-size:10.0px;stroke:none;">, thus</text>
   <text y="716.708" x="60.489,63.729,67.789,70.729,73.109,78.029,83.029,87.089,89.399,91.779,95.649,98.029,103.029,107.429,109.869,112.809,117.759,121.959,124.496,126.806,131.727,138.117,142.317,145.517,148.025,150.335,154.395,157.335,160.275,162.655,166.705,170.905,173.424,177.624,182.624,186.824,190.064,194.444,198.744,201.261,205.311,209.371,211.681,215.731,220.601,222.911,226.971,229.912,234.112,239.112,241.571,244.191,249.111" svgx:width="0.32,0.41,0.29,0.24,0.49,0.5,0.41,0.23,0.24,0.39,0.24,0.5,0.44,0.55,0.29,0.5,0.42,0.55,0.23,0.49,0.64,0.42,0.32,0.55,0.23,0.41,0.29,0.29,0.24,0.41,0.42,0.55,0.42,0.5,0.42,0.32,0.44,0.43,0.55,0.41,0.41,0.23,0.41,0.49,0.23,0.41,0.29,0.42,0.5,0.55,0.26,0.49,0.32" style="fill:rgb(0,0,0);font-family:AdvOT2e364b11;font-size:10.0px;stroke:none;">rationalizing the lower lattice energy calculated for</text>
   <text y="716.708" x="254.89,257.76,262.87,266.46,274.26,276.717,280.207" svgx:width="0.29,0.51,0.36,0.78,0.55,0.35,0.35" style="fill:rgb(0,0,0);font-family:AdvOT51c1769e;font-size:10.0px;stroke:none;">form II</text>
   <text y="716.708" x="286.184,290.244,293.144,295.708" svgx:width="0.41,0.29,0.55,0.48" style="fill:rgb(0,0,0);font-family:AdvOT2e364b11;font-size:10.0px;stroke:none;">at 0</text>
   <text y="727.707" x="60.489,66.919" svgx:width="0.64,0.2" style="fill:rgb(0,0,0);font-family:AdvOT2e364b11;font-size:10.0px;stroke:none;">K.</text>
   <text y="738.705" x="69.446,75.176,79.376,82.826,85.206,90.176,94.376,97.77600000000001,103.972,106.912,111.862,116.062,122.17,126.37,131.371,135.571,138.811,143.191,147.491,153.579,157.629,162.549,167.549,170.999,173.379,178.349,182.549,185.789,189.849,192.789,195.169,200.089,205.089,208.539,210.539,216.679,220.779,226.884,230.125,234.325,236.635,240.835,245.045,249.105,254.105,257.005,263.169,268.139,270.48,275.582,279.782,283.022,287.222,292.222,296.272" svgx:width="0.57,0.42,0.34,0.24,0.5,0.42,0.34,0.55,0.29,0.5,0.42,0.55,0.42,0.5,0.42,0.32,0.44,0.43,0.55,0.41,0.49,0.5,0.34,0.24,0.5,0.42,0.32,0.41,0.29,0.24,0.49,0.5,0.34,0.2,0.55,0.41,0.55,0.32,0.42,0.23,0.42,0.42,0.41,0.5,0.29,0.55,0.5,0.24,0.51,0.42,0.32,0.42,0.5,0.41,0.42" style="fill:rgb(0,0,0);font-family:AdvOT2e364b11;font-size:10.0px;stroke:none;">Besides the energy considerations, a relevant diﬀerence</text>
   <text y="749.703" x="60.488,65.378,69.578,72.518,78.908,83.108,87.308,92.308,95.695,98.635,103.585,107.785,111.172,118.652,121.512,126.402,131.323,136.323,141.293,143.673,148.673,153.073,156.414,161.414,165.614,168.554,174.944,179.864,183.104,187.584,190.984,194.455,199.375,201.975,205.34,208.28,213.23,217.42999999999998,220.817,223.757,230.147,235.047,238.45,243.35,248.3,252.36,255.81,260.01,263.40999999999997,266.853,270.903,275.823,280.693,283.003,288.003,291.401,296.291" svgx:width="0.49,0.42,0.29,0.64,0.42,0.42,0.5,0.55,0.29,0.5,0.42,0.55,0.75,0.29,0.49,0.49,0.5,0.5,0.24,0.5,0.44,0.55,0.5,0.42,0.29,0.64,0.49,0.32,0.45,0.34,0.55,0.49,0.26,0.55,0.29,0.5,0.42,0.55,0.29,0.64,0.49,0.55,0.49,0.5,0.41,0.34,0.42,0.34,0.55,0.41,0.49,0.49,0.23,0.5,0.55,0.49,0.42" style="fill:rgb(0,0,0);font-family:AdvOT2e364b11;font-size:10.0px;stroke:none;">between the H-bonding networks of the two phases could be</text>
   <text y="760.701" x="60.488,65.458,69.658,72.598,76.798,80.848,83.788,87.988,92.988,96.148,98.528" svgx:width="0.5,0.42,0.29,0.42,0.41,0.29,0.42,0.5,0.55,0.24,0.5" style="fill:rgb(0,0,0);font-family:AdvOT2e364b11;font-size:10.0px;stroke:none;">detected in</text>
   <text y="760.701" x="106.749,109.619,114.729,118.319,126.119,129.371" svgx:width="0.29,0.51,0.36,0.78,0.55,0.35" style="fill:rgb(0,0,0);font-family:AdvOT51c1769e;font-size:10.0px;stroke:none;">form I</text>
   <text y="760.701" x="136.06,141.01,145.07,149.28,151.66,156.66,161.06,164.293,166.913,171.833,176.703,179.903,183.172,187.232,192.202,194.592,198.652,202.702,206.902,211.902,214.802,218.095,225.575,228.436,233.326,238.246,243.246,248.216,252.416,257.416,260.616,268.146,273.066,275.376,279.576,283.626,288.496,290.806,295.006,298.456" svgx:width="0.5,0.41,0.42,0.24,0.5,0.44,0.55,0.26,0.49,0.49,0.32,0.55,0.41,0.5,0.24,0.41,0.41,0.42,0.5,0.29,0.55,0.75,0.29,0.49,0.49,0.5,0.5,0.42,0.5,0.55,0.75,0.49,0.23,0.42,0.41,0.49,0.23,0.42,0.34,0.2" style="fill:rgb(0,0,0);font-family:AdvOT2e364b11;font-size:10.0px;stroke:none;">having four adjacent H-bonded molecules,</text>
   <text y="359.484" x="324.45,330.841,335.791,339.991,343.231,347.431,351.491" svgx:width="0.64,0.5,0.42,0.32,0.42,0.41,0.34" style="fill:rgb(0,0,0);font-family:AdvOT2e364b11;font-size:10.0px;stroke:none;">whereas</text>
   <text y="359.484" x="357.673,360.543,365.653,369.243,377.043,379.727,383.217" svgx:width="0.29,0.51,0.36,0.78,0.55,0.35,0.35" style="fill:rgb(0,0,0);font-family:AdvOT51c1769e;font-size:10.0px;stroke:none;">form II</text>
   <text y="359.484" x="389.364,394.314,398.374,401.774,404.501,409.421,414.421,416.731,421.031,423.777,426.717,433.108,438.028,440.028,442.714,447.604,452.474,455.37399999999997,458.135,463.105,468.025,472.895,477.785,480.095,484.295,486.992,494.472,497.332,502.222,507.142,512.142,517.112,521.312,526.282,528.282,530.986,537.376,539.756,542.696,547.696,550.376,555.296,560.296" svgx:width="0.5,0.41,0.34,0.55,0.49,0.5,0.23,0.43,0.55,0.29,0.64,0.49,0.2,0.55,0.49,0.49,0.29,0.55,0.5,0.49,0.49,0.49,0.23,0.42,0.55,0.75,0.29,0.49,0.49,0.5,0.5,0.42,0.5,0.2,0.55,0.64,0.24,0.29,0.5,0.55,0.49,0.5,0.42" style="fill:rgb(0,0,0);font-family:AdvOT2e364b11;font-size:10.0px;stroke:none;">has only two, but double H-bonded, with one</text>
   <text y="370.482" x="324.45,331.931,334.791,339.681,344.601,349.601,354.571,356.951,361.951,366.351,371.62,375.07,377.45,380.39,384.59,389.932,393.992,396.892,402.178,405.118,410.068,414.268,419.583,424.503,428.494,432.804,437.184,441.384,446.384,451.672,455.872,460.082,464.282,469.282,474.576,479.446,484.446,491.976,496.036,498.976,503.026,507.976,512.176,517.146,519.146,524.467,533.227,538.177,540.557,542.867,547.067,552.36,555.3,560.25" svgx:width="0.75,0.29,0.49,0.49,0.5,0.5,0.24,0.5,0.44,0.55,0.34,0.24,0.29,0.42,0.55,0.41,0.29,0.55,0.29,0.5,0.42,0.55,0.49,0.4,0.43,0.44,0.42,0.5,0.55,0.42,0.42,0.42,0.5,0.55,0.49,0.5,0.75,0.41,0.29,0.41,0.5,0.42,0.5,0.2,0.55,0.88,0.5,0.24,0.23,0.42,0.55,0.29,0.5,0.42" style="fill:rgb(0,0,0);font-family:AdvOT2e364b11;font-size:10.0px;stroke:none;">H-bonding site at the oxygen even unmatched. While the</text>
   <text y="381.48" x="324.45,328.66,332.721,335.961,338.341,342.401,345.341,347.721,352.641,357.641,360.281,362.661,367.661,370.259,373.199,378.149,382.349,384.942,389.142,394.142,398.342,401.582,405.962,410.162,413.102,415.482,419.532,422.93199999999996,425.535,427.916,431.316,433.983,438.933,442.993,446.233,451.203,453.513,457.813,460.402,462.792,467.662,471.112,474.052,476.432,479.052,483.362,485.742,490.742,495.142,497.763,501.823,506.823,511.123,513.694,518.664,521.062,526.164,530.364,533.604,537.805,542.805,546.855,551.055,554.4549999999999,557.12,559.5" svgx:width="0.42,0.41,0.32,0.24,0.41,0.29,0.24,0.49,0.5,0.55,0.24,0.5,0.55,0.29,0.5,0.42,0.55,0.42,0.5,0.42,0.32,0.44,0.42,0.29,0.24,0.41,0.34,0.55,0.24,0.34,0.55,0.5,0.41,0.32,0.5,0.23,0.43,0.55,0.24,0.49,0.34,0.29,0.24,0.26,0.43,0.24,0.5,0.44,0.55,0.41,0.5,0.43,0.55,0.5,0.24,0.51,0.42,0.32,0.42,0.5,0.41,0.42,0.34,0.55,0.24,0.5" style="fill:rgb(0,0,0);font-family:AdvOT2e364b11;font-size:10.0px;stroke:none;">variation in the energetics is hardly justifying any diﬀerences in</text>
   <text y="392.478" x="324.45,327.39,332.34,336.53999999999996,339.701,344.671,347.051,350.501,353.951,358.871,361.181,366.051,368.991,371.371,376.291,381.291,384.376,389.266,393.466,398.416,402.476,406.686,409.066,413.986,417.226,419.226,422.361,425.301,430.251,434.45099999999996,437.612,441.062,444.002,448.202,451.442,453.822,457.922,460.97,465.03,468.27,471.51,475.57,480.57,484.95,489.15,496.68,500.88,505.88,508.78,511.938,516.858,519.458,522.596,530.077,532.937,537.827,542.747,547.747,552.717,555.097,560.097" svgx:width="0.29,0.5,0.42,0.55,0.5,0.24,0.34,0.34,0.49,0.23,0.49,0.29,0.24,0.49,0.5,0.55,0.49,0.42,0.5,0.41,0.42,0.24,0.49,0.32,0.2,0.55,0.29,0.5,0.42,0.55,0.34,0.29,0.42,0.32,0.24,0.41,0.55,0.41,0.32,0.32,0.41,0.5,0.44,0.42,0.75,0.42,0.5,0.29,0.55,0.49,0.26,0.55,0.75,0.29,0.49,0.49,0.5,0.5,0.24,0.5,0.44" style="fill:rgb(0,0,0);font-family:AdvOT2e364b11;font-size:10.0px;stroke:none;">the dissolution behavior, the steric arrangement of H-bonding</text>
   <text y="403.476" x="324.45,329.45,333.651,336.591,342.981,347.901,351.141,355.641,361.245,363.625,368.625,374.284,379.184,384.134,388.334,393.334,397.644,400.584,405.504,407.884" svgx:width="0.5,0.42,0.29,0.64,0.49,0.32,0.45,0.55,0.24,0.5,0.55,0.49,0.5,0.42,0.5,0.43,0.29,0.49,0.24,0.5" style="fill:rgb(0,0,0);font-family:AdvOT2e364b11;font-size:10.0px;stroke:none;">network in phenytoin</text>
   <text y="403.476" x="418.504,421.374,426.484,430.074,437.874,443.45,446.94" svgx:width="0.29,0.51,0.36,0.78,0.55,0.35,0.35" style="fill:rgb(0,0,0);font-family:AdvOT51c1769e;font-size:10.0px;stroke:none;">form II</text>
   <text y="403.476" x="456.092,463.622,466.002,470.382,475.332,478.23199999999997,483.872,488.762,492.962,498.556,501.496,506.446,510.646,516.301,520.351,524.411,529.281,532.732,536.932,542.551,547.471,550.071,555.704,558.084,561.024" svgx:width="0.75,0.24,0.44,0.5,0.29,0.55,0.49,0.42,0.55,0.29,0.5,0.42,0.55,0.41,0.41,0.49,0.34,0.42,0.55,0.49,0.26,0.55,0.24,0.29,0.34" style="fill:rgb(0,0,0);font-family:AdvOT2e364b11;font-size:10.0px;stroke:none;">might be the cause of its</text>
   <text y="414.474" x="324.45,326.83,331.83,335.881,339.121,343.321,347.381,350.831,355.031,360.031,363.343,367.403,372.303,377.173,381.373,386.293,391.163,394.563,397.983,402.953,405.333,408.783,412.233,417.153,419.463,424.333,427.273,429.654,434.574,439.574,442.885,446.125,450.185,453.125,457.325" svgx:width="0.24,0.5,0.41,0.32,0.42,0.41,0.34,0.42,0.5,0.55,0.41,0.49,0.49,0.42,0.49,0.49,0.34,0.55,0.5,0.24,0.34,0.34,0.49,0.23,0.49,0.29,0.24,0.49,0.5,0.55,0.32,0.41,0.29,0.42,0.2" style="fill:rgb(0,0,0);font-family:AdvOT2e364b11;font-size:10.0px;stroke:none;">increased aqueous dissolution rate.</text>
   <text y="438.973" x="324.453" svgx:width="0.32" style="fill:rgb(153,17,39);font-family:AdvOT2e364b11;font-size:32.0px;stroke:none;">■</text>
   <text y="435.005" x="341.008,347.182,354.574,361.672,367.846,373.023,380.016,385.465,388.237,395.629,402.727" svgx:width="0.59,0.7,0.68,0.59,0.49,0.67,0.52,0.26,0.7,0.68,0.52" style="fill:rgb(153,17,39);font-family:AdvOTce3d9a73;font-size:10.5px;stroke:none;">CONCLUSIONS</text>
   <text y="449.008" x="324.453,330.864,335.814,340.014,342.539,346.739,350.949,355.009,357.319,362.189,366.249,369.189,371.569,376.489,381.489,384.039,388.959,391.559,394.074,397.014,401.964,406.164,408.701,412.151,415.091,418.331,423.201,427.252,430.192,435.062,438.302,442.502,444.986,451.376,453.756,456.696,461.646,464.026,469.026,471.575,475.675,478.151,481.091,486.041,488.421,493.421,495.893,500.768,503.078,510.578,513.127,515.507,518.9069999999999,521.461,525.512,530.462,534.522,536.832,539.142,543.342,548.342,552.722,555.102,560.102" svgx:width="0.64,0.5,0.42,0.55,0.42,0.42,0.41,0.23,0.49,0.41,0.29,0.24,0.49,0.5,0.55,0.49,0.26,0.55,0.29,0.5,0.42,0.55,0.34,0.29,0.32,0.49,0.41,0.29,0.49,0.32,0.42,0.55,0.64,0.24,0.29,0.5,0.24,0.5,0.55,0.41,0.55,0.29,0.5,0.24,0.5,0.55,0.48,0.23,0.75,0.55,0.24,0.34,0.55,0.41,0.5,0.41,0.23,0.23,0.42,0.5,0.44,0.24,0.5,0.44" style="fill:rgb(0,0,0);font-family:AdvOT2e364b11;font-size:10.0px;stroke:none;">The evaluation of the structure within a thin ﬁlm is challenging</text>
   <text y="460.006" x="324.453,329.423,334.293,338.493,343.955,346.895,351.79499999999996,357.221,362.191,364.591,369.693,373.893,377.133,381.333,386.333,389.233,394.695,397.935,402.135,406.195,409.645,414.565,419.565,423.016,425.016,430.47,436.2,440.5,445.947,450.817,454.267,456.647,461.647,466.04699999999997,471.459,475.559,480.983,485.033,489.953,497.483,502.373,504.753,509.753,513.813,516.753,519.133,524.054,529.054,534.503,539.423,542.023,547.429,554.159,558.989" svgx:width="0.5,0.49,0.42,0.55,0.29,0.49,0.55,0.5,0.24,0.51,0.42,0.32,0.42,0.5,0.29,0.55,0.32,0.42,0.41,0.34,0.49,0.5,0.34,0.2,0.55,0.57,0.43,0.55,0.49,0.34,0.24,0.5,0.44,0.55,0.41,0.55,0.41,0.49,0.75,0.49,0.24,0.5,0.41,0.29,0.24,0.49,0.5,0.55,0.49,0.26,0.55,0.67,0.48,0.55" style="fill:rgb(0,0,0);font-family:AdvOT2e364b11;font-size:10.0px;stroke:none;">due to diﬀerent reasons. By using a combination of CSP</text>
   <text y="471.004" x="324.452,328.502,332.562,334.872,338.922,343.792,346.102,350.162,353.102,355.482,360.402,365.402,368.80199999999996,374.682,381.072,383.452,386.392,391.392,397.132,404.172,407.392,413.542,420.642,426.443,430.643,434.633,439.533,443.733,446.973,449.353,456.883,461.083,466.083,469.023,472.423,478.261,482.321,487.321,492.321,498.104,501.554,506.474,514.005,518.205,524.014,528.964,533.164,535.474,540.374,546.181,548.801,552.041,556.961" svgx:width="0.41,0.41,0.23,0.41,0.49,0.23,0.41,0.29,0.24,0.49,0.5,0.34,0.55,0.64,0.24,0.29,0.5,0.55,0.7,0.32,0.62,0.71,0.55,0.42,0.4,0.49,0.42,0.32,0.24,0.75,0.42,0.5,0.29,0.34,0.55,0.41,0.5,0.5,0.55,0.34,0.49,0.75,0.42,0.55,0.5,0.42,0.23,0.49,0.55,0.26,0.32,0.49,0.75" style="fill:rgb(0,0,0);font-family:AdvOT2e364b11;font-size:10.0px;stroke:none;">calculations with GIXD experiments and some help from</text>
   <text y="482.002" x="324.452,330.572,334.632,342.162,346.222,351.222,353.876,357.326,362.226,366.426,370.476,373.416,376.656,381.576,385.026,389.076,393.996,398.896,403.206,405.206,407.905,410.845,415.795,419.995,422.589,426.04,428.98,432.22,437.09,441.14,444.08,448.95,452.19,456.39,459.044,463.964,466.564,469.249,474.149,479.099,483.299,488.299,492.609,495.549,500.469,502.849,507.849,510.465,512.845,517.845,520.5,522.88,525.82,529.22,531.896,534.836,539.786,542.166,547.166,549.807,554.626,556.936" svgx:width="0.61,0.41,0.75,0.41,0.5,0.55,0.34,0.49,0.42,0.41,0.29,0.32,0.49,0.34,0.41,0.49,0.49,0.43,0.2,0.55,0.29,0.5,0.42,0.55,0.34,0.29,0.32,0.49,0.41,0.29,0.49,0.32,0.42,0.55,0.49,0.26,0.55,0.49,0.5,0.42,0.5,0.43,0.29,0.49,0.24,0.5,0.55,0.24,0.5,0.55,0.24,0.29,0.34,0.55,0.29,0.5,0.24,0.5,0.55,0.48,0.23,0.75" style="fill:rgb(0,0,0);font-family:AdvOT2e364b11;font-size:10.0px;stroke:none;">Raman spectroscopy, the structure of phenytoin in its thin ﬁlm</text>
   <text y="493.0" x="324.451,327.072,331.992,335.232,342.732,346.392" svgx:width="0.26,0.49,0.32,0.75,0.55,0.41" style="fill:rgb(0,0,0);font-family:AdvOT2e364b11;font-size:10.0px;stroke:none;">form (</text>
   <text y="493.0" x="350.474,353.344,358.454,362.044,369.844,373.435,376.925" svgx:width="0.29,0.51,0.36,0.78,0.55,0.35,0.35" style="fill:rgb(0,0,0);font-family:AdvOT51c1769e;font-size:10.0px;stroke:none;">form II</text>
   <text y="493.0" x="380.408,384.50800000000004,388.118,392.168,397.088,401.958,404.268,409.268,412.836,417.726,421.926,425.592,429.043,433.963,436.273,440.483,444.683,449.653,451.653,455.3,461.71,466.66,470.86,474.462,477.702,481.902,485.352,490.222,492.532,495.472,498.87199999999996,502.582,506.032,510.902,515.282,519.663,523.863,527.313,530.213,533.878,536.818,541.768,545.828,548.728,552.36,555.3,560.25" svgx:width="0.41,0.55,0.41,0.49,0.49,0.23,0.5,0.55,0.49,0.42,0.55,0.34,0.49,0.23,0.42,0.42,0.5,0.2,0.55,0.64,0.5,0.42,0.55,0.32,0.42,0.34,0.49,0.23,0.29,0.34,0.55,0.34,0.49,0.44,0.44,0.42,0.34,0.29,0.55,0.29,0.5,0.41,0.29,0.55,0.29,0.5,0.42" style="fill:rgb(0,0,0);font-family:AdvOT2e364b11;font-size:10.0px;stroke:none;">) could be solved. The results suggest that the</text>
   <text y="503.998" x="324.451,329.422,331.822,336.924,341.124,344.364,348.564,353.564,357.614,361.81399999999996,364.817,367.197,372.197,375.192,378.132,383.082,387.282,390.329,393.779,396.719,400.919,404.159,406.539,410.639,413.573,421.053,423.913,428.804,433.724,438.724,443.694,446.074,451.074,455.474,458.475,463.475,467.675,470.615,477.005,481.925,485.165,489.665,492.661,495.041,498.441,501.505,503.815,506.195,510.675,514.875,517.185,521.4849999999999,524.523,527.464,532.414,536.614,539.604,542.844,547.044,551.104,554.554,559.474" svgx:width="0.5,0.24,0.51,0.42,0.32,0.42,0.5,0.41,0.42,0.55,0.24,0.5,0.55,0.29,0.5,0.42,0.55,0.34,0.29,0.42,0.32,0.24,0.41,0.55,0.75,0.29,0.49,0.49,0.5,0.5,0.24,0.5,0.44,0.55,0.5,0.42,0.29,0.64,0.49,0.32,0.45,0.55,0.24,0.34,0.55,0.23,0.24,0.45,0.42,0.23,0.43,0.55,0.29,0.5,0.42,0.55,0.32,0.42,0.41,0.34,0.49,0.5" style="fill:rgb(0,0,0);font-family:AdvOT2e364b11;font-size:10.0px;stroke:none;">diﬀerence in the steric H-bonding network is likely the reason</text>
   <text y="514.996" x="324.451,327.071,331.992,335.192,338.285,341.225,346.175,350.375,353.365,355.985,360.045,363.495,366.435,370.635,373.835,376.893,381.863,384.243,387.693,391.143,396.063,398.373,403.243,406.183,408.563,413.483,418.483,421.511,426.432,429.03200000000004,432.114,435.054,440.004,444.204,447.194,450.644,455.514,458.754,461.374,465.434,469.484,473.68399999999997,476.731,479.111,484.111,489.081,493.951,498.001,502.201,507.201,510.18,513.12,518.07,520.451,525.451,528.433,533.31,535.62,543.12,546.179,548.799,553.719,556.959" svgx:width="0.26,0.49,0.32,0.55,0.29,0.5,0.42,0.55,0.26,0.41,0.34,0.29,0.42,0.32,0.55,0.5,0.24,0.34,0.34,0.49,0.23,0.49,0.29,0.24,0.49,0.5,0.55,0.49,0.26,0.55,0.29,0.5,0.42,0.55,0.34,0.49,0.32,0.26,0.41,0.41,0.42,0.55,0.24,0.5,0.5,0.49,0.41,0.42,0.5,0.55,0.29,0.5,0.24,0.5,0.55,0.48,0.23,0.75,0.55,0.26,0.49,0.32,0.75" style="fill:rgb(0,0,0);font-family:AdvOT2e364b11;font-size:10.0px;stroke:none;">for the faster dissolution of the surface induced thin ﬁlm form</text>
   <text y="525.995" x="324.452" svgx:width="0.41" style="fill:rgb(0,0,0);font-family:AdvOT2e364b11;font-size:10.0px;stroke:none;">(</text>
   <text y="525.995" x="328.534,331.404,336.515,340.105,347.90500000000003,350.305,353.795" svgx:width="0.29,0.51,0.36,0.78,0.55,0.35,0.35" style="fill:rgb(0,0,0);font-family:AdvOT51c1769e;font-size:10.0px;stroke:none;">form II</text>
   <text y="525.995" x="357.278,361.37800000000004,363.741,370.131,372.511,375.451,380.451,382.79,386.03,390.23,393.68,398.58,402.78,406.83,409.72999999999996,412.214,415.154,420.054,422.475,425.415,430.366" svgx:width="0.41,0.55,0.64,0.24,0.29,0.5,0.55,0.32,0.42,0.34,0.49,0.42,0.41,0.29,0.55,0.29,0.49,0.55,0.29,0.5,0.42" style="fill:rgb(0,0,0);font-family:AdvOT2e364b11;font-size:10.0px;stroke:none;">) with respect to the</text>
   <text y="525.995" x="436.932,439.802,444.912,448.502,456.302,458.702" svgx:width="0.29,0.51,0.36,0.78,0.55,0.35" style="fill:rgb(0,0,0);font-family:AdvOT51c1769e;font-size:10.0px;stroke:none;">form I</text>
   <text y="525.995" x="462.217,464.217,466.696,473.086,478.036,480.416,484.466,489.466,491.811,494.191,497.59099999999995,500.031,502.971,507.921,512.121,514.545,519.435,524.305,526.615,531.115,533.482,536.102,541.022,544.262,551.792,553.792,556.273,559.493" svgx:width="0.2,0.55,0.64,0.5,0.24,0.41,0.5,0.55,0.24,0.34,0.55,0.29,0.5,0.42,0.55,0.49,0.49,0.23,0.45,0.55,0.26,0.49,0.32,0.75,0.2,0.55,0.32,0.5" style="fill:rgb(0,0,0);font-family:AdvOT2e364b11;font-size:10.0px;stroke:none;">, which is the bulk form. In</text>
   <text y="536.993" x="324.452,328.832,333.032,338.033,342.233,345.473,349.533,351.843,353.843,357.732,360.672,365.622,369.822,373.663,377.113,380.053,383.293,388.163,392.213,395.153,400.023,403.263,407.46299999999997,411.307,414.757,419.677,421.987,426.197,428.577,433.577,437.977,441.752,446.652,449.892,454.812,458.862,463.062,468.032,472.902,476.142,480.342,484.159,488.359,495.889,500.789,503.099,508.019,512.329,516.529,521.529,525.375,530.325,534.525,537.766,541.966,543.966,547.827,554.217,556.597,559.537" svgx:width="0.44,0.42,0.5,0.42,0.32,0.41,0.23,0.2,0.55,0.29,0.5,0.42,0.55,0.34,0.29,0.32,0.49,0.41,0.29,0.49,0.32,0.42,0.55,0.34,0.49,0.23,0.42,0.24,0.5,0.44,0.55,0.49,0.32,0.49,0.41,0.42,0.5,0.49,0.32,0.42,0.55,0.42,0.75,0.49,0.23,0.49,0.43,0.42,0.5,0.55,0.5,0.42,0.32,0.42,0.2,0.55,0.64,0.24,0.29,0.5" style="fill:rgb(0,0,0);font-family:AdvOT2e364b11;font-size:10.0px;stroke:none;">general, the structure solving procedure employed here, with</text>
   <text y="547.991" x="324.452,327.392,332.342,336.542,340.384,344.444,347.894,351.344,353.724,357.174,360.114,364.174,369.174,373.224,377.424,381.26,386.18,388.78000000000003,392.599,399.329,404.159,409.659,413.462,420.992,425.192,428.132,433.083,438.003,442.973,446.423,448.423,452.298,456.358,458.668,460.978,465.898,472.288,475.688,479.568,482.188,487.108,490.308,494.138,497.078,502.028,506.228,510.069,514.939,518.389,522.589,526.397,531.317,533.917,537.737,540.047,542.427,549.957,552.337,555.277,559.477" svgx:width="0.29,0.5,0.42,0.55,0.41,0.34,0.34,0.24,0.34,0.29,0.41,0.5,0.41,0.42,0.55,0.49,0.26,0.55,0.67,0.48,0.55,0.55,0.75,0.42,0.29,0.5,0.49,0.5,0.34,0.2,0.55,0.41,0.23,0.23,0.49,0.64,0.34,0.55,0.26,0.49,0.32,0.55,0.29,0.5,0.42,0.55,0.49,0.34,0.42,0.55,0.49,0.26,0.55,0.23,0.24,0.75,0.24,0.29,0.42,0.5" style="fill:rgb(0,0,0);font-family:AdvOT2e364b11;font-size:10.0px;stroke:none;">the assistance of CSP methods, allows for the use of limited</text>
   <text y="558.989" x="324.452,328.652,332.642,337.543,341.743,344.983,347.363,354.893,359.093,364.093,367.033,371.093,373.39300000000003,376.044,381.014,385.074,388.014,392.11400000000003,394.696,397.636,402.536,405.127,409.507,413.567,415.947,420.947,423.552,427.612,431.663,435.713,439.913,443.363,446.763,449.462,452.402,457.30199999999996,459.894,462.834,467.784,471.984,474.634,479.534,483.594,487.644,492.124,494.504,499.504,503.904,506.496,510.556,513.796,517.036,521.096,526.096,530.477,534.677,542.207,546.407,551.407,554.307,556.954,561.874" svgx:width="0.42,0.4,0.49,0.42,0.32,0.24,0.75,0.42,0.5,0.29,0.41,0.23,0.55,0.5,0.41,0.29,0.41,0.55,0.29,0.49,0.55,0.44,0.41,0.24,0.5,0.55,0.41,0.41,0.41,0.42,0.34,0.34,0.55,0.29,0.49,0.55,0.29,0.5,0.42,0.55,0.49,0.41,0.41,0.45,0.24,0.5,0.44,0.55,0.41,0.32,0.32,0.41,0.5,0.44,0.42,0.75,0.42,0.5,0.29,0.55,0.49,0.26" style="fill:rgb(0,0,0);font-family:AdvOT2e364b11;font-size:10.0px;stroke:none;">experimental data to gain access to the packing arrangement of</text>
   <text y="569.987" x="324.452,329.372,332.612,336.992,341.053,346.053,348.433,352.533,355.861,363.391,368.311,370.621,374.821,378.871,383.741,386.051,390.251,393.701,395.701,399.118,402.338,405.238,408.699,412.749,416.809,421.809,425.14,430.03,434.22999999999996,437.613,441.813,445.803,450.703,454.903,458.953,461.893,466.093,471.093,474.464,477.404,482.354,486.414,489.31399999999996,492.719,495.659,500.609,502.989,506.38899999999995,509.84,517.37,521.43,525.7299999999999,529.117,532.357,536.557,541.457,544.697,548.897,552.347,556.547,561.547" svgx:width="0.49,0.32,0.44,0.41,0.5,0.24,0.41,0.55,0.75,0.49,0.23,0.42,0.41,0.49,0.23,0.42,0.34,0.2,0.55,0.32,0.29,0.55,0.41,0.41,0.5,0.55,0.49,0.42,0.55,0.42,0.4,0.49,0.42,0.41,0.29,0.42,0.5,0.55,0.29,0.5,0.41,0.29,0.55,0.29,0.5,0.24,0.34,0.55,0.75,0.41,0.43,0.55,0.32,0.42,0.49,0.32,0.42,0.34,0.42,0.5,0.29" style="fill:rgb(0,0,0);font-family:AdvOT2e364b11;font-size:10.0px;stroke:none;">organic molecules. It can be expected that this may represent</text>
   <text y="580.985" x="324.452,328.512,333.512,337.266,342.186,347.086,350.026,352.406,359.936,363.996,366.296,369.978,374.038,378.938,383.838,387.078,391.998,396.058,400.108,405.108,408.756,415.146,420.096,424.296,429.296,433.021,437.992,442.192,446.252,448.562,450.942,455.942,460.342,464.033,469.033,473.953,476.85299999999995,480.587,485.507,490.507,492.817,497.117,500.883,507.273,509.653,512.593,517.593,521.236,528.277,531.497,537.647,544.7470000000001,548.45,553.42,557.48,560.42" svgx:width="0.41,0.5,0.55,0.49,0.49,0.29,0.24,0.75,0.41,0.23,0.55,0.41,0.49,0.49,0.32,0.49,0.41,0.41,0.5,0.55,0.64,0.5,0.42,0.5,0.55,0.5,0.42,0.41,0.23,0.24,0.5,0.44,0.55,0.5,0.49,0.29,0.55,0.49,0.5,0.23,0.43,0.55,0.64,0.24,0.29,0.5,0.55,0.7,0.32,0.62,0.71,0.55,0.5,0.41,0.29,0.41" style="fill:rgb(0,0,0);font-family:AdvOT2e364b11;font-size:10.0px;stroke:none;">an optimal approach when dealing not only with GIXD data</text>
   <text y="591.983" x="324.452,327.072,330.312,335.232,342.732,346.393,349.333,354.283,356.663,361.663,365.328,370.147,372.457,379.987,383.387,387.098,391.988,396.858,399.758,403.426,407.476,412.396,417.266,419.576,424.576,428.202,433.092,437.292,440.901,445.101,449.091,452.031,456.231,461.231,466.201,470.401,475.401,478.999,481.939,486.839,490.508,493.958,496.338,501.338,505.718,508.028,512.2280000000001,515.85,519.9,523.141,527.451,530.901,533.841,537.901,540.2009999999999,543.858,550.008,552.868,556.108,560.168" svgx:width="0.26,0.32,0.49,0.75,0.55,0.29,0.5,0.24,0.5,0.55,0.48,0.23,0.75,0.34,0.55,0.49,0.49,0.29,0.55,0.41,0.49,0.49,0.23,0.5,0.55,0.49,0.42,0.55,0.42,0.4,0.29,0.42,0.5,0.5,0.42,0.5,0.55,0.29,0.49,0.55,0.34,0.24,0.5,0.44,0.23,0.42,0.55,0.41,0.32,0.43,0.34,0.29,0.41,0.23,0.55,0.62,0.29,0.32,0.41,0.43" style="fill:rgb(0,0,0);font-family:AdvOT2e364b11;font-size:10.0px;stroke:none;">from thin ﬁlms but could be extended to single crystal X-ray</text>
   <text y="602.981" x="324.452,329.422,331.823,336.925,340.165,344.225,348.275,351.215,353.595,358.515,363.515,367.199,372.119,374.71900000000005,378.424,383.324,388.244,393.164,396.364,400.081,405.051,409.111,412.051,416.111,418.111,421.851,426.851,431.051,435.922,438.862,442.102,447.022,452.022,455.698,460.668,463.067,468.169,471.409,475.469,479.519,482.459,484.839,489.759,494.759,496.759,500.484,505.404,508.604,512.333,516.533,520.743,524.943,529.943,533.593,537.793,540.103,544.303,548.354,551.294,554.534,559.454" svgx:width="0.5,0.24,0.51,0.32,0.41,0.41,0.29,0.24,0.49,0.5,0.55,0.49,0.26,0.55,0.49,0.49,0.49,0.32,0.55,0.5,0.41,0.29,0.41,0.2,0.55,0.5,0.42,0.49,0.29,0.32,0.49,0.5,0.55,0.5,0.24,0.51,0.32,0.41,0.41,0.29,0.24,0.49,0.5,0.2,0.55,0.49,0.32,0.55,0.42,0.42,0.42,0.5,0.55,0.42,0.23,0.42,0.41,0.29,0.32,0.49,0.5" style="fill:rgb(0,0,0);font-family:AdvOT2e364b11;font-size:10.0px;stroke:none;">diﬀraction of poor data, neutron diﬀraction, or even electron</text>
   <text y="613.979" x="324.451,329.422,331.822,336.924,340.164,344.224,348.274,351.214,353.594,358.514,363.514,365.514,368.842,376.372,378.752,383.752,386.132,393.662,396.042,399.912,402.292,407.292,411.69199999999995,414.934,417.874,422.824,427.024,430.299,433.539,437.739,442.639,447.509,449.889,453.129,457.329,464.859,469.059,474.059,476.959,480.303,485.223,487.82300000000004,491.131,496.081,498.461,502.841,507.841,511.087,515.987,520.857,524.918,527.228,529.608,532.548,536.848,540.115,544.165,547.405,551.715,555.165,558.105,562.165" svgx:width="0.5,0.24,0.51,0.32,0.41,0.41,0.29,0.24,0.49,0.5,0.2,0.55,0.75,0.24,0.5,0.24,0.75,0.24,0.39,0.24,0.5,0.44,0.55,0.29,0.5,0.42,0.55,0.32,0.42,0.49,0.49,0.24,0.32,0.42,0.75,0.42,0.5,0.29,0.55,0.49,0.26,0.55,0.5,0.24,0.44,0.5,0.55,0.49,0.49,0.41,0.23,0.24,0.29,0.43,0.55,0.41,0.32,0.43,0.34,0.29,0.41,0.23" style="fill:rgb(0,0,0);font-family:AdvOT2e364b11;font-size:10.0px;stroke:none;">diﬀraction, minimizing the requirement of high quality crystal</text>
   <text y="624.978" x="324.451,328.831,332.072,336.992,343.382,346.322,351.272" svgx:width="0.44,0.32,0.49,0.64,0.29,0.5,0.2" style="fill:rgb(0,0,0);font-family:AdvOT2e364b11;font-size:10.0px;stroke:none;">growth.</text>
   <text y="649.474" x="324.453" svgx:width="0.32" style="fill:rgb(153,17,39);font-family:AdvOT2e364b11;font-size:32.0px;stroke:none;">■</text>
   <text y="645.505" x="341.008,347.686,353.135,358.585,365.977,372.151,374.923,381.601,387.114,392.521,399.661,403.2,409.374,416.766,423.864,429.377,434.784,441.882" svgx:width="0.64,0.52,0.52,0.7,0.59,0.26,0.64,0.52,0.51,0.68,0.55,0.59,0.7,0.68,0.52,0.51,0.68,0.52" style="fill:rgb(153,17,39);font-family:AdvOTce3d9a73;font-size:10.5px;stroke:none;">ASSOCIATED CONTENT</text>
   <text y="658.715" x="324.453" svgx:width="1.0" style="fill:rgb(0,0,0);font-family:AdvPi3;font-size:11.87px;stroke:none;">*</text>
   <text y="658.034" x="328.705" svgx:width="0.52" style="fill:rgb(255,255,255);font-family:AdvOTce3d9a73;font-size:6.53px;stroke:none;">S</text>
   <text y="658.715" x="339.704,344.634,350.04,355.597,361.155,366.513,369.895,373.229,375.661,381.095,386.51000000000005,389.707,392.215,397.649,400.68,406.038,409.419,417.475,422.301,425.636,428.068,433.426" svgx:width="0.52,0.57,0.58,0.58,0.56,0.36,0.35,0.26,0.57,0.57,0.55,0.26,0.57,0.32,0.56,0.36,0.85,0.51,0.35,0.26,0.56,0.57" style="fill:rgb(0,0,0);font-family:AdvOTce3d9a73;font-size:9.5px;stroke:none;">Supporting Information</text>
   <text y="669.713" x="324.453,330.864,335.814,340.014,343.276,348.106,352.976,357.876,362.776,367.696,370.936,373.876,376.256,381.256,385.65599999999995,388.914,392.134,397.134,399.754,404.674,407.914,415.444,419.504,422.444,424.825,429.745,434.745,437.955,440.335,443.73499999999996,447.083,451.143,455.353,459.413,461.793,464.103,468.163,473.053,475.363,479.563,482.8,485.42,488.66,492.86,497.06,500.318,505.238,507.838,511.09,515.14,520.09,524.151,527.391,531.771,535.971,539.211,544.131,549.131,552.364,555.304,560.254" svgx:width="0.64,0.5,0.42,0.55,0.48,0.49,0.49,0.49,0.49,0.32,0.29,0.24,0.5,0.44,0.55,0.32,0.5,0.26,0.49,0.32,0.75,0.41,0.29,0.24,0.49,0.5,0.55,0.24,0.34,0.55,0.41,0.42,0.41,0.24,0.23,0.41,0.49,0.23,0.42,0.55,0.26,0.32,0.42,0.42,0.55,0.49,0.26,0.55,0.41,0.5,0.41,0.32,0.44,0.42,0.55,0.49,0.5,0.55,0.29,0.5,0.42" style="fill:rgb(0,0,0);font-family:AdvOT2e364b11;font-size:10.0px;stroke:none;">The Supporting Information is available free of charge on the</text>
   <text y="680.711" x="324.453,330.584,337.314,342.11400000000003,347.471,352.371,357.241,362.131,364.441,366.821,370.871,374.931,377.871,380.251,385.171,390.171,395.49,404.25,408.45,413.34999999999997,418.622,422.072,424.452,427.392,431.592,433.592,438.975,445.385,450.335,454.53499999999997,459.838,464.668,469.538,474.438,479.338,484.258,487.498,490.438,492.818,497.818,502.21799999999996,507.517,510.737,515.737,518.358,523.278,526.518,534.048,538.108,541.048,543.428,548.348,553.348,558.656,561.036" svgx:width="0.61,0.67,0.48,0.55,0.49,0.49,0.49,0.23,0.24,0.41,0.41,0.29,0.24,0.49,0.5,0.55,0.88,0.42,0.49,0.55,0.34,0.24,0.29,0.42,0.2,0.55,0.64,0.5,0.42,0.55,0.48,0.49,0.49,0.49,0.49,0.32,0.29,0.24,0.5,0.44,0.55,0.32,0.5,0.26,0.49,0.32,0.75,0.41,0.29,0.24,0.49,0.5,0.55,0.24,0.34" style="fill:rgb(0,0,0);font-family:AdvOT2e364b11;font-size:10.0px;stroke:none;">ACS publication Web site. The Supporting Information is</text>
   <text y="691.709" x="324.453,328.514,332.724,336.784,339.164,341.474,345.534,350.424,352.734,356.93399999999997,361.305,363.925,367.165,371.365,375.565,379.9,384.82,387.42,391.749,395.799,400.749,404.809,408.049,412.429,416.62899999999996,420.946,425.866,430.866,435.234,438.174,443.124" svgx:width="0.41,0.42,0.41,0.24,0.23,0.41,0.49,0.23,0.42,0.55,0.26,0.32,0.42,0.42,0.55,0.49,0.26,0.55,0.41,0.5,0.41,0.32,0.44,0.42,0.55,0.49,0.5,0.55,0.29,0.5,0.42" style="fill:rgb(0,0,0);font-family:AdvOT2e364b11;font-size:10.0px;stroke:none;">available free of charge on the</text>
   <text y="691.709" x="451.616,457.746,464.476,469.276,473.67,479.13,484.0,488.89,491.2,493.58,497.63,501.69,504.63,507.01,511.93,516.93,520.3299999999999,524.694,531.085,535.285,540.175,543.625,546.005,548.945" svgx:width="0.61,0.67,0.48,0.55,0.55,0.49,0.49,0.23,0.24,0.41,0.41,0.29,0.24,0.49,0.5,0.34,0.55,0.64,0.42,0.49,0.34,0.24,0.29,0.42" style="fill:rgb(33,59,144);font-family:AdvOT2e364b11;font-size:10.0px;stroke:none;">ACS Publications website</text>
   <text y="691.709" x="557.462,561.522" svgx:width="0.41,0.29" style="fill:rgb(0,0,0);font-family:AdvOT2e364b11;font-size:10.0px;stroke:none;">at</text>
   <text y="702.708" x="324.453,331.544,339.004,342.224" svgx:width="0.71,0.75,0.32,0.27" style="fill:rgb(0,0,0);font-family:AdvOT2e364b11;font-size:10.0px;stroke:none;">DOI:</text>
   <text y="702.708" x="348.265,353.025,357.785,359.825,364.585,369.345,374.105,378.865,383.415,387.475,391.525,394.975,397.015,401.065,405.445,410.415,412.455,417.215,422.105,426.865,431.625,436.385,441.146" svgx:width="0.48,0.48,0.2,0.48,0.48,0.48,0.48,0.46,0.41,0.41,0.34,0.2,0.41,0.44,0.5,0.2,0.48,0.49,0.48,0.48,0.48,0.48,0.48" style="fill:rgb(33,59,144);font-family:AdvOT2e364b11;font-size:10.0px;stroke:none;">10.1021/acs.cgd.9b00857</text>
   <text y="702.708" x="445.891" svgx:width="0.2" style="fill:rgb(0,0,0);font-family:AdvOT2e364b11;font-size:10.0px;stroke:none;">.</text>
   <text y="716.711" x="348.492,355.222,360.142,367.672,372.572,377.442,380.382,384.442,387.382,389.762,394.682,399.682,403.742,406.04200000000003,409.494,412.944,417.144,421.194,424.135,426.515,431.435,436.435,439.883,442.263,447.263,451.313,453.623,458.493,463.463,467.663,471.063,474.523,482.053,486.253,489.193,494.143,499.063,504.033,508.953,511.263,516.184,520.564,524.8639999999999,528.326,532.376,537.296,544.826,549.726,554.596,557.536,561.596" svgx:width="0.67,0.49,0.75,0.49,0.49,0.29,0.41,0.29,0.24,0.49,0.5,0.41,0.23,0.55,0.34,0.42,0.41,0.29,0.24,0.49,0.5,0.55,0.24,0.5,0.41,0.23,0.49,0.5,0.42,0.34,0.55,0.75,0.42,0.29,0.5,0.49,0.5,0.49,0.23,0.49,0.44,0.43,0.55,0.41,0.49,0.75,0.49,0.49,0.29,0.41,0.29" style="fill:rgb(0,0,0);font-family:AdvOT2e364b11;font-size:10.0px;stroke:none;">Computational section includes methodology computa-</text>
   <text y="727.709" x="348.492,351.539,354.026,359.053,364.16,368.327,370.744,373.161,377.461,384.329,388.816,393.123,398.23,402.537,405.884,410.051,413.098,417.405,422.405,429.255,431.693,436.72,443.217,446.184,450.491,455.598,459.905,463.252,467.739,472.039,478.964,482.479,486.636,490.803,495.91,499.467,501.467,508.368,512.507,517.534,525.172,530.179,535.156,538.203,542.37,545.417,547.904,552.931,558.038,562.205" svgx:width="0.29,0.24,0.49,0.5,0.41,0.23,0.23,0.43,0.55,0.44,0.42,0.5,0.42,0.32,0.41,0.29,0.42,0.5,0.55,0.23,0.49,0.64,0.29,0.42,0.5,0.42,0.32,0.44,0.43,0.55,0.34,0.41,0.41,0.5,0.34,0.2,0.55,0.41,0.49,0.75,0.49,0.49,0.29,0.41,0.29,0.24,0.49,0.5,0.41,0.23" style="fill:rgb(0,0,0);font-family:AdvOT2e364b11;font-size:10.0px;stroke:none;">tionally generated low-energy scans, computational</text>
   <text y="738.707" x="348.492,352.872,357.072,362.072,366.272,369.512,373.572,376.512,380.712,385.712,390.332,392.642,397.562,403.952,406.812,411.012,416.012,420.212,423.452,427.832,432.132,436.822,440.272,443.212,446.452,451.322,455.372,458.312,463.182,466.422,470.622,474.072,476.072,480.816,484.056,488.256,493.156,496.396,500.596,504.046,508.246,513.246,516.186,520.246,523.186,525.566,530.486,535.486,540.175,545.095,547.695,552.364,555.304,560.254" svgx:width="0.44,0.42,0.5,0.42,0.32,0.41,0.29,0.42,0.5,0.55,0.23,0.49,0.64,0.29,0.42,0.5,0.42,0.32,0.44,0.43,0.55,0.34,0.29,0.32,0.49,0.41,0.29,0.49,0.32,0.42,0.34,0.2,0.55,0.32,0.42,0.49,0.32,0.42,0.34,0.42,0.5,0.29,0.41,0.29,0.24,0.49,0.5,0.55,0.49,0.26,0.55,0.29,0.5,0.42" style="fill:rgb(0,0,0);font-family:AdvOT2e364b11;font-size:10.0px;stroke:none;">generated low-energy structures, representation of the</text>
   <text y="749.705" x="348.492,352.692,356.769,361.669,365.869,369.185,371.623,379.153,383.415,388.415,391.465,395.525,397.825,404.618,408.068,411.081,414.321,419.191,423.328,426.333,431.265,434.505,438.705,440.705,447.536,451.586,454.906,459.216,462.73,465.735,469.795,472.095,478.888,483.088,487.165,492.065,494.375,499.411,502.651,506.851,510.051,516.929,520.979,525.04,527.418,531.557,536.427,538.814,542.874,545.901,548.281,553.271,558.271,561.721" svgx:width="0.42,0.4,0.49,0.42,0.32,0.24,0.75,0.42,0.5,0.29,0.41,0.23,0.55,0.34,0.29,0.32,0.49,0.41,0.29,0.49,0.32,0.42,0.2,0.55,0.41,0.32,0.43,0.34,0.29,0.41,0.23,0.55,0.42,0.4,0.49,0.23,0.49,0.32,0.42,0.32,0.55,0.41,0.41,0.23,0.41,0.49,0.23,0.41,0.29,0.24,0.49,0.5,0.34,0.27" style="fill:rgb(0,0,0);font-family:AdvOT2e364b11;font-size:10.0px;stroke:none;">experimental structure, crystal explorer calculations;</text>
   <text y="760.703" x="348.492,352.692,356.769,361.669,365.953,369.193,371.573,379.219,383.419,388.419,391.465,395.525,397.825,404.618,408.133,412.333,416.467,419.408,421.854,426.774,431.774,438.578,440.958,445.958,450.087,452.468,457.338,462.389,466.589,469.989,476.789,480.304,484.354,488.525,491.465,494.478,498.678,501.918,504.399,509.4,513.8,520.558,524.938,529.232,534.221,541.751,546.013,549.018,552.258,554.638,558.939,562.389" svgx:width="0.42,0.4,0.49,0.42,0.32,0.24,0.75,0.42,0.5,0.29,0.41,0.23,0.55,0.34,0.42,0.41,0.29,0.24,0.49,0.5,0.55,0.24,0.5,0.41,0.23,0.49,0.5,0.42,0.34,0.55,0.34,0.41,0.41,0.29,0.29,0.42,0.32,0.24,0.5,0.44,0.55,0.44,0.42,0.49,0.75,0.42,0.29,0.32,0.24,0.42,0.34,0.2" style="fill:rgb(0,0,0);font-family:AdvOT2e364b11;font-size:10.0px;stroke:none;">experimental section includes scattering geometries,</text>
  </g>
  <rect style="stroke:blue;stroke-width:0.3;" x="60.491" y="262.325" height="165.316" width="239.981" title="7"/>
  <text y="262.325" class="image" id="image.7.1" width="239" height="165" x="60.491">image.7.1.60_300.262_428</text>
  <rect style="stroke:blue;stroke-width:0.3;" x="60.491" y="262.325" height="165.316" width="239.981" title="7"/>
  <text y="262.325" class="image" id="image.7.2" width="239" height="165" x="60.491">image.7.2.60_300.262_428</text>
  <g begin="text">
   <text y="462.047" x="60.491,65.441,67.808,71.966,76.556,79.787,83.747,88.497,92.97" svgx:width="0.55,0.26,0.46,0.51,0.36,0.44,0.55,0.5,0.23" style="fill:rgb(0,0,0);font-family:AdvOT51c1769e;font-size:9.0px;stroke:none;">Figure 6.</text>
   <text y="462.047" x="99.78,107.457,111.885,113.964,117.744,121.389,125.772,127.851,131.505,134.385,139.181,142.826,147.254,151.754,154.112,158.54,161.456,168.233,171.887,174.533,176.675,181.103,185.603,190.374,194.028,198.528,203.028,207.779,212.189,215.843,219.488,223.52,225.662,230.162,234.122,238.846,240.988,245.488,250.298,252.944,257.399,261.179,265.945,269.59,274.018,280.795,285.205,289.588,292.234,296.014" svgx:width="0.85,0.49,0.23,0.42,0.41,0.49,0.23,0.41,0.32,0.55,0.41,0.49,0.5,0.26,0.49,0.32,0.75,0.41,0.29,0.24,0.49,0.5,0.55,0.41,0.5,0.5,0.55,0.49,0.41,0.41,0.45,0.24,0.5,0.44,0.55,0.24,0.5,0.55,0.29,0.5,0.42,0.55,0.41,0.49,0.75,0.49,0.49,0.29,0.42,0.5" style="fill:rgb(0,0,0);font-family:AdvOT2e364b11;font-size:9.0px;stroke:none;">Molecular conformation and packing in the computed</text>
   <text y="472.025" x="60.491,63.596,66.242,69.158,73.541,77.186,79.832,84.215,87.131,90.911,93.971,96.548,100.976" svgx:width="0.34,0.29,0.32,0.49,0.41,0.29,0.49,0.32,0.42,0.34,0.55,0.49,0.26" style="fill:rgb(0,0,0);font-family:AdvOT2e364b11;font-size:9.0px;stroke:none;">structures of</text>
   <text y="472.025" x="105.846,108.429,113.028,116.259,123.279,125.802,128.943" svgx:width="0.29,0.51,0.36,0.78,0.55,0.35,0.35" style="fill:rgb(0,0,0);font-family:AdvOT51c1769e;font-size:9.0px;stroke:none;">form II</text>
   <text y="472.025" x="132.094,133.894,136.459,143.173,146.962,150.742,153.658,155.737,159.391,163.261,165.826,170.254,172.594,175.181,178.286,180.932,183.848,188.231,191.876,194.522,198.905,201.821,205.601" svgx:width="0.2,0.55,0.75,0.42,0.42,0.32,0.23,0.41,0.43,0.55,0.49,0.26,0.55,0.34,0.29,0.32,0.49,0.41,0.29,0.49,0.32,0.42,0.34" style="fill:rgb(0,0,0);font-family:AdvOT2e364b11;font-size:9.0px;stroke:none;">. Overlay of structures</text>
   <text y="472.025" x="211.238" svgx:width="0.53" style="fill:rgb(0,0,0);font-family:AdvOT02ce3bbb.I;font-size:9.0px;stroke:none;">P</text>
   <text y="472.025" x="216.0" svgx:width="0.48" style="fill:rgb(0,0,0);font-family:AdvOT2e364b11;font-size:9.0px;stroke:none;">2</text>
   <text y="473.839" x="220.252" svgx:width="0.48" style="fill:rgb(0,0,0);font-family:AdvOT2e364b11;font-size:6.03px;stroke:none;">1</text>
   <text y="472.025" x="223.143" svgx:width="0.46" style="fill:rgb(0,0,0);font-family:AdvOT2e364b11;font-size:9.0px;stroke:none;">/</text>
   <text y="472.025" x="227.225" svgx:width="0.34" style="fill:rgb(0,0,0);font-family:AdvOT02ce3bbb.I;font-size:9.0px;stroke:none;">c</text>
   <text y="472.025" x="232.78,236.425,240.826,242.905,246.559,250.204,254.236,257.926,260.446,264.1,268.6" svgx:width="0.41,0.49,0.23,0.41,0.41,0.45,0.41,0.55,0.41,0.5,0.5" style="fill:rgb(0,0,0);font-family:AdvOT2e364b11;font-size:9.0px;stroke:none;">(black) and</text>
   <text y="472.025" x="275.583,280.344" svgx:width="0.53,0.34" style="fill:rgb(0,0,0);font-family:AdvOT02ce3bbb.I;font-size:9.0px;stroke:none;">Pc</text>
   <text y="472.025" x="285.959,289.604,292.25,296.705" svgx:width="0.41,0.29,0.5,0.42" style="fill:rgb(0,0,0);font-family:AdvOT2e364b11;font-size:9.0px;stroke:none;">(the</text>
   <text y="482.06" x="60.491,63.137,68.888,73.298,76.932,81.405,83.508,88.1,91.88,94.796,98.576,103.076,105.68599999999999,109.36,116.137,120.565,122.644,126.424,130.069,134.452,136.531,140.185,143.065,146.72,150.365,154.793,159.293,161.651,166.079,168.995,175.772,179.426,182.072,184.214,188.642,193.142,196.202,199.84,203.494,206.41,210.19,213.787,217.432,221.86,226.333,230.113,234.613,238.221,240.363,244.863,248.483,252.128,256.556,258.635,263.063,265.979,269.624,271.42400000000004,275.071,280.84,285.295" svgx:width="0.29,0.64,0.49,0.55,0.5,0.24,0.51,0.42,0.32,0.42,0.5,0.29,0.55,0.75,0.49,0.23,0.42,0.41,0.49,0.23,0.41,0.32,0.55,0.41,0.49,0.5,0.26,0.49,0.32,0.75,0.41,0.29,0.24,0.49,0.5,0.34,0.55,0.41,0.32,0.42,0.55,0.41,0.49,0.5,0.42,0.5,0.55,0.24,0.5,0.55,0.41,0.49,0.23,0.49,0.32,0.41,0.2,0.55,0.64,0.5,0.42" style="fill:rgb(0,0,0);font-family:AdvOT2e364b11;font-size:9.0px;stroke:none;">two diﬀerent molecular conformations are coded in color). The</text>
   <text y="482.06" x="292.648,297.409" svgx:width="0.53,0.34" style="fill:rgb(0,0,0);font-family:AdvOT02ce3bbb.I;font-size:9.0px;stroke:none;">Pc</text>
   <text y="492.038" x="60.491,63.596,66.242,69.158,73.541,77.186,79.832,84.215,87.131,90.911,93.971,96.434,98.576,103.076,105.562,108.208,112.663,116.443,118.885,121.531,127.282,131.692,134.192,138.665,141.581,145.235,150.986,153.128,157.628,161.57,164.63,167.13,170.775,172.854,176.634,178.992,181.602,184.081,187.735,192.235,196.735,199.162,202.078,204.22,208.162,212.617,215.263,218.953,221.386,225.859,228.019,232.61,236.39,239.26999999999998,241.738,243.88,248.38,250.866,253.512,257.967,261.74699999999996,264.189,267.294,269.436,273.378,277.878,280.346,284.774,287.114,289.587,292.233,296.688" svgx:width="0.34,0.29,0.32,0.49,0.41,0.29,0.49,0.32,0.42,0.34,0.55,0.24,0.5,0.55,0.29,0.5,0.42,0.55,0.29,0.64,0.49,0.55,0.5,0.32,0.41,0.64,0.24,0.5,0.44,0.34,0.55,0.41,0.23,0.42,0.26,0.29,0.55,0.41,0.5,0.5,0.55,0.32,0.24,0.44,0.5,0.29,0.41,0.55,0.5,0.24,0.51,0.42,0.32,0.55,0.24,0.5,0.55,0.29,0.5,0.42,0.55,0.34,0.24,0.44,0.5,0.55,0.49,0.26,0.55,0.29,0.5,0.42" style="fill:rgb(0,0,0);font-family:AdvOT2e364b11;font-size:9.0px;stroke:none;">structures in the two drawings (left and right) diﬀer in the sign of the</text>
   <text y="502.073" x="60.491,64.901,68.681,71.597,74.243,78.626,81.542,85.943,89.597,92.243,94.385,98.813,103.313,107.262,110.916,115.326,119.736,121.815,123.957,127.737,132.237,136.232,138.878,143.28799999999998,147.287,149.933,154.388,158.168,162.14,164.282,168.782,170.924,173.57,175.712,179.366" svgx:width="0.49,0.42,0.32,0.29,0.49,0.32,0.49,0.41,0.29,0.24,0.49,0.5,0.55,0.41,0.49,0.49,0.23,0.24,0.42,0.5,0.55,0.29,0.49,0.55,0.29,0.5,0.42,0.55,0.24,0.5,0.24,0.29,0.24,0.41,0.23" style="fill:rgb(0,0,0);font-family:AdvOT2e364b11;font-size:9.0px;stroke:none;">perturbation applied to the initial</text>
   <text y="502.073" x="185.442" svgx:width="0.53" style="fill:rgb(0,0,0);font-family:AdvOT02ce3bbb.I;font-size:9.0px;stroke:none;">P</text>
   <text y="502.073" x="190.204" svgx:width="0.48" style="fill:rgb(0,0,0);font-family:AdvOT2e364b11;font-size:9.0px;stroke:none;">2</text>
   <text y="503.83" x="194.457" svgx:width="0.48" style="fill:rgb(0,0,0);font-family:AdvOT2e364b11;font-size:6.03px;stroke:none;">1</text>
   <text y="502.072" x="197.348" svgx:width="0.46" style="fill:rgb(0,0,0);font-family:AdvOT2e364b11;font-size:9.0px;stroke:none;">/</text>
   <text y="502.072" x="201.43" svgx:width="0.34" style="fill:rgb(0,0,0);font-family:AdvOT02ce3bbb.I;font-size:9.0px;stroke:none;">c</text>
   <text y="502.072" x="208.459,211.564,214.21,217.126,221.509,225.154,227.8,232.183,235.099,238.879,240.679,244.686,249.087,253.47,256.08,260.107,263.761,266.677,270.457,274.45,278.104,281.749,284.395,288.778,292.432,294.511,296.59" svgx:width="0.34,0.29,0.32,0.49,0.41,0.29,0.49,0.32,0.42,0.2,0.55,0.49,0.49,0.29,0.55,0.41,0.32,0.42,0.55,0.41,0.41,0.29,0.49,0.41,0.23,0.23,0.43" style="fill:rgb(0,0,0);font-family:AdvOT2e364b11;font-size:9.0px;stroke:none;">structure, but are actually</text>
   <text y="512.051" x="60.491,62.633,67.106,70.886,75.386,78.032,80.174,83.819,87.473,89.543,92.069,95.849,99.44,103.085,106.865,111.275,113.885,116.503,118.861,123.289,126.169,128.748,132.438,134.984,138.089,142.544,144.686,147.044,149.65400000000002,152.218,156.646,158.986,161.573,164.219,168.674,172.454,175.009,179.437,182.353,184.495,188.437,190.579,195.079,196.87900000000002,199.443,205.212,209.667,213.447,215.589,218.469,221.043,224.697,228.486,232.266,235.182,238.836,242.778,246.558,249.163,252.808,257.236,260.152,263.068,266.848,269.953,274.363,278.791,283.291,287.764,290.824,293.383,296.029" svgx:width="0.24,0.5,0.42,0.5,0.29,0.24,0.41,0.41,0.23,0.55,0.42,0.4,0.41,0.42,0.49,0.29,0.55,0.26,0.49,0.32,0.55,0.41,0.55,0.34,0.5,0.24,0.26,0.29,0.55,0.49,0.26,0.55,0.29,0.5,0.42,0.55,0.49,0.32,0.24,0.44,0.24,0.5,0.2,0.55,0.64,0.5,0.42,0.24,0.32,0.55,0.41,0.42,0.42,0.32,0.41,0.44,0.42,0.55,0.41,0.49,0.32,0.32,0.42,0.34,0.49,0.49,0.5,0.5,0.34,0.55,0.29,0.49" style="fill:rgb(0,0,0);font-family:AdvOT2e364b11;font-size:9.0px;stroke:none;">identical except for a shift of the origin. Their average corresponds to</text>
   <text y="522.029" x="60.491,63.137,67.592" svgx:width="0.29,0.5,0.42" style="fill:rgb(0,0,0);font-family:AdvOT2e364b11;font-size:9.0px;stroke:none;">the</text>
   <text y="522.029" x="74.324" svgx:width="0.53" style="fill:rgb(0,0,0);font-family:AdvOT02ce3bbb.I;font-size:9.0px;stroke:none;">P</text>
   <text y="522.029" x="79.086" svgx:width="0.48" style="fill:rgb(0,0,0);font-family:AdvOT2e364b11;font-size:9.0px;stroke:none;">2</text>
   <text y="523.842" x="83.395" svgx:width="0.48" style="fill:rgb(0,0,0);font-family:AdvOT2e364b11;font-size:6.03px;stroke:none;">1</text>
   <text y="522.028" x="86.287" svgx:width="0.46" style="fill:rgb(0,0,0);font-family:AdvOT2e364b11;font-size:9.0px;stroke:none;">/</text>
   <text y="522.028" x="90.368" svgx:width="0.34" style="fill:rgb(0,0,0);font-family:AdvOT02ce3bbb.I;font-size:9.0px;stroke:none;">c</text>
   <text y="522.028" x="96.377,99.482,102.128,105.044,109.427,113.072,115.718,120.101,123.017,126.797" svgx:width="0.34,0.29,0.32,0.49,0.41,0.29,0.49,0.32,0.42,0.2" style="fill:rgb(0,0,0);font-family:AdvOT2e364b11;font-size:9.0px;stroke:none;">structure.</text>
  </g>
  <rect style="stroke:blue;stroke-width:0.3;" x="324.453" y="50.803" height="203.244" width="239.981" title="7"/>
  <text y="50.803" class="image" id="image.7.3" width="239" height="203" x="324.453">image.7.3.324_564.51_254</text>
  <rect style="stroke:blue;stroke-width:0.3;" x="324.453" y="50.803" height="203.244" width="239.981" title="7"/>
  <text y="50.803" class="image" id="image.7.4" width="239" height="203" x="324.453">image.7.4.324_564.51_254</text>
  <g begin="text">
   <text y="288.453" x="324.453,329.404,331.771,335.928,340.518,343.749,347.709,350.418,354.891" svgx:width="0.55,0.26,0.46,0.51,0.36,0.44,0.55,0.5,0.23" style="fill:rgb(0,0,0);font-family:AdvOT51c1769e;font-size:9.0px;stroke:none;">Figure 7.</text>
   <text y="288.453" x="359.66,364.682,369.182,372.962,375.878,379.82,383.69,386.418,388.776,391.692,395.346,402.123,405.903,411.654,416.082,418.998,423.03,426.09,428.825,432.47,435.116,439.544,442.19,445.844,447.914,450.595,452.737,457.237,459.883,463.663,466.579,473.356,477.784,479.863,483.643,487.288,491.671,493.75,497.404,500.284,503.035,506.815,511.315,515.095,518.011,521.953,525.832,529.522,532.175,534.533,538.961,541.841,544.591,548.236,551.89,553.6899999999999,556.439,560.84" svgx:width="0.56,0.5,0.42,0.32,0.44,0.43,0.55,0.26,0.32,0.41,0.75,0.42,0.64,0.49,0.32,0.45,0.34,0.55,0.41,0.29,0.49,0.29,0.41,0.23,0.55,0.24,0.5,0.29,0.42,0.32,0.75,0.49,0.23,0.42,0.41,0.49,0.23,0.41,0.32,0.55,0.42,0.5,0.42,0.32,0.44,0.43,0.41,0.55,0.26,0.49,0.32,0.55,0.41,0.41,0.2,0.55,0.49,0.41" style="fill:rgb(0,0,0);font-family:AdvOT2e364b11;font-size:9.0px;stroke:none;">Energy frameworks (total intermolecular energy) for (a, b)</text>
   <text y="298.488" x="324.453,327.036,331.635,334.866,341.88599999999997,344.409" svgx:width="0.29,0.51,0.36,0.78,0.55,0.35" style="fill:rgb(0,0,0);font-family:AdvOT51c1769e;font-size:9.0px;stroke:none;">form I</text>
   <text y="298.488" x="347.528,349.32800000000003,351.836,355.49,359.99,364.49,366.973,370.618,374.263,376.063,378.595,383.068" svgx:width="0.2,0.55,0.41,0.5,0.5,0.55,0.41,0.41,0.2,0.55,0.5,0.41" style="fill:rgb(0,0,0);font-family:AdvOT2e364b11;font-size:9.0px;stroke:none;">, and (c, d)</text>
   <text y="298.488" x="389.197,391.78,396.379,399.61,406.63,409.152,412.293" svgx:width="0.29,0.51,0.36,0.78,0.55,0.35,0.35" style="fill:rgb(0,0,0);font-family:AdvOT51c1769e;font-size:9.0px;stroke:none;">form II</text>
   <text y="298.488" x="417.883" svgx:width="0.41" style="fill:rgb(0,0,0);font-family:AdvOT2e364b11;font-size:9.0px;stroke:none;">(</text>
   <text y="298.488" x="421.569,426.33" svgx:width="0.53,0.34" style="fill:rgb(0,0,0);font-family:AdvOT02ce3bbb.I;font-size:9.0px;stroke:none;">Pc</text>
   <text y="298.488" x="429.336" svgx:width="0.2" style="fill:rgb(0,0,0);font-family:AdvOT2e364b11;font-size:9.0px;stroke:none;">,</text>
   <text y="298.488" x="433.701" svgx:width="0.58" style="fill:rgb(0,0,0);font-family:AdvOT02ce3bbb.I;font-size:9.0px;stroke:none;">Z</text>
   <text y="298.488" x="438.86" svgx:width="0.29" style="fill:rgb(0,0,0);font-family:AdvOT8608a8d1;font-size:9.0px;stroke:none;">′</text>
   <text y="298.488" x="443.962,448.912,451.389,455.673,459.318,461.118,463.634,469.403,473.858,477.638,480.132,483.912,488.412,492.192,495.108,499.05,502.92,505.416,508.521,512.167,515.82,517.899,521.679,524.182,526.539,530.193,533.839,536.484,540.912,543.792,546.349,548.491,551.5509999999999,554.059,558.343,562.627" svgx:width="0.55,0.55,0.48,0.41,0.2,0.55,0.64,0.5,0.42,0.55,0.42,0.5,0.42,0.32,0.44,0.43,0.55,0.34,0.41,0.41,0.23,0.42,0.55,0.26,0.41,0.41,0.29,0.49,0.32,0.55,0.24,0.34,0.55,0.48,0.48,0.2" style="fill:rgb(0,0,0);font-family:AdvOT2e364b11;font-size:9.0px;stroke:none;">= 2). The energy scale factor is 80,</text>
   <text y="308.467" x="324.453,328.107,332.607,337.107,339.874,344.284,347.938,350.08,352.996,358.747,360.889,363.994,367.774,370.544,372.686,377.186,379.832,383.612,386.528,390.182,393.827,396.473,398.615,403.043,407.543,410.342,414.122,418.622,422.402,425.318,429.26,431.402,435.182,438.242,441.069,446.82,448.962,451.608,456.108,458.814,465.591,469.245,473.186,477.686,479.828,482.474,486.857,491.33,495.11,498.17,500.993,504.098,510.875,514.529,516.608,518.687,522.467,525.347,528.205,530.851,535.306,538.96,543.46,546.233,550.517,554.8370000000001,557.571,561.603" svgx:width="0.41,0.5,0.5,0.55,0.49,0.41,0.24,0.32,0.64,0.24,0.34,0.42,0.55,0.24,0.5,0.29,0.42,0.32,0.41,0.41,0.29,0.24,0.49,0.5,0.55,0.42,0.5,0.42,0.32,0.44,0.24,0.42,0.34,0.55,0.64,0.24,0.29,0.5,0.55,0.75,0.41,0.44,0.5,0.24,0.29,0.49,0.5,0.42,0.34,0.55,0.34,0.75,0.41,0.23,0.23,0.42,0.32,0.55,0.29,0.5,0.41,0.5,0.55,0.48,0.48,0.55,0.45,0.32" style="fill:rgb(0,0,0);font-family:AdvOT2e364b11;font-size:9.0px;stroke:none;">and pairwise interaction energies with magnitudes smaller than 14 kJ</text>
   <text y="318.445" x="324.453,331.23,335.659" svgx:width="0.75,0.49,0.23" style="fill:rgb(0,0,0);font-family:AdvOT2e364b11;font-size:9.0px;stroke:none;">mol</text>
   <text y="314.986" x="337.776" svgx:width="0.69" style="fill:rgb(0,0,0);font-family:AdvOT8608a8d1;font-size:6.03px;stroke:none;">−</text>
   <text y="314.986" x="341.858" svgx:width="0.48" style="fill:rgb(0,0,0);font-family:AdvOT2e364b11;font-size:6.03px;stroke:none;">1</text>
   <text y="318.444" x="347.754,352.209,355.863,359.652,363.43199999999996,366.406,370.807,374.587,378.367,382.867,385.908,390.336,397.113,399.255,401.901,404.547,408.327,412.8" svgx:width="0.5,0.41,0.42,0.42,0.55,0.49,0.42,0.42,0.5,0.55,0.49,0.75,0.24,0.29,0.29,0.42,0.5,0.2" style="fill:rgb(0,0,0);font-family:AdvOT2e364b11;font-size:9.0px;stroke:none;">have been omitted.</text>
  </g>
  <path style="fill:rgb(153,17,39);stroke:none;stroke-width:1.0;" d="M324.45 69.16 L564.43 69.16 L564.43 272.41 L324.45 272.41 "/>
  <g begin="text">
   <text y="55.672" x="60.491,66.371,69.931,74.931,79.101,82.612,87.692,90.29199999999999,93.601,100.261,103.821,109.461,116.951,120.461,126.161,129.488,135.888,139.296,146.126,151.286,155.456,158.016,163.746" svgx:width="0.59,0.36,0.5,0.42,0.35,0.51,0.26,0.55,0.67,0.36,0.56,0.75,0.35,0.57,0.55,0.64,0.55,0.68,0.52,0.42,0.26,0.57,0.57" style="fill:rgb(153,17,39);font-family:AdvOTce3d9a73;font-size:10.0px;stroke:none;">Crystal Growth &amp; Design</text>
   <text y="55.672" x="535.975,540.871,543.487,546.135,548.006,551.59,553.478" svgx:width="0.61,0.33,0.33,0.23,0.45,0.24,0.5" style="fill:rgb(255,255,255);font-family:AdvOT46dcae81;font-size:8.0px;stroke:none;">Article</text>
   <text y="779.074" x="488.976,492.972,497.106,498.54" svgx:width="0.67,0.69,0.24,0.21" style="fill:rgb(0,0,0);font-family:AdvOT46dcae81;font-size:6.0px;stroke:none;">DOI:</text>
   <text y="779.074" x="500.939,504.017,507.095,508.337,511.415,514.493,517.571,520.649,522.707,525.599,528.287,530.663,531.905,534.593,537.947,541.331,542.573,545.651,549.066,552.144,555.222,558.3,561.378" svgx:width="0.51,0.51,0.21,0.51,0.51,0.51,0.51,0.34,0.48,0.45,0.4,0.21,0.45,0.56,0.56,0.21,0.51,0.57,0.51,0.51,0.51,0.51,0.51" style="fill:rgb(33,59,144);font-family:AdvOT46dcae81;font-size:6.0px;stroke:none;">10.1021/acs.cgd.9b00857</text>
   <text y="785.594" x="463.295,466.625,468.533,471.179,473.417,475.295,476.555,478.602,482.34,484.248,487.38,491.622,493.5,496.68,498.672,502.554,505.272,507.51" svgx:width="0.56,0.32,0.44,0.37,0.31,0.21,0.55,0.62,0.32,0.52,0.71,0.31,0.53,0.55,0.65,0.45,0.37,0.21" style="fill:rgb(0,0,0);font-family:AdvOT65f8a23b.I;font-size:6.0px;stroke:none;">Cryst. Growth Des.</text>
   <text y="785.594" x="510.803,513.882,516.96,520.038,523.116,524.376,526.338,529.416,532.494,533.754,535.749,538.827,541.905,544.983" svgx:width="0.51,0.51,0.51,0.51,0.21,0.55,0.51,0.51,0.21,0.55,0.51,0.51,0.51,0.51" style="fill:rgb(0,0,0);font-family:AdvOT46dcae81;font-size:6.0px;stroke:none;">2019, 19, 6058</text>
   <text y="785.594" x="548.051" svgx:width="0.69" style="fill:rgb(0,0,0);font-family:AdvOT8608a8d1;font-size:6.0px;stroke:none;">−</text>
   <text y="785.594" x="552.133,555.211,558.289,561.367" svgx:width="0.51,0.51,0.51,0.51" style="fill:rgb(0,0,0);font-family:AdvOT46dcae81;font-size:6.0px;stroke:none;">6066</text>
   <text y="779.074" x="304.441,308.461,312.481,316.501" svgx:width="0.54,0.54,0.54,0.54" style="fill:rgb(0,0,0);font-family:AdvOTce3d9a73;font-size:7.5px;stroke:none;">6064</text>
  </g>
 </g>
</svg>
