<?xml version="1.0" encoding="UTF-8"?>
<svg height="766.7" width="530.46" xmlns="http://www.w3.org/2000/svg">
 <g id="page" xmlns:svgx="http://www.xml-cml.org/schema/svgx">
  <g begin="text">
   <text y="62.979" x="76.535,84.059,87.598,90.252,93.352,96.452,98.668,102.207,104.422" svgx:width="0.94,0.44,0.33,0.39,0.39,0.28,0.44,0.28,0.39" style="fill:rgb(0,0,0);font-family:URWPalladioL-Ital;font-size:7.97px;stroke:none;">Materials</text>
   <text y="62.979" x="109.515,113.5,117.485,121.47" svgx:width="0.5,0.5,0.5,0.5" style="fill:rgb(0,0,0);font-family:URWPalladioL-Bold;font-size:7.97px;stroke:none;">2019</text>
   <text y="62.979" x="125.455" svgx:width="0.25" style="fill:rgb(0,0,0);font-family:URWPalladioL-Roma;font-size:7.97px;stroke:none;">,</text>
   <text y="62.979" x="129.44,133.425" svgx:width="0.5,0.5" style="fill:rgb(0,0,0);font-family:URWPalladioL-Ital;font-size:7.97px;stroke:none;">12</text>
   <text y="62.979" x="137.41,139.4025,141.395,145.38,149.365,153.35,157.335,495.794,499.779,501.772,506.123,508.7531,510.77,514.755" svgx:width="0.25,0.55,0.5,0.5,0.5,0.5,0.55,0.5,0.55,0.55,0.33,0.55,0.5,0.5" style="fill:rgb(0,0,0);font-family:URWPalladioL-Roma;font-size:7.97px;stroke:none;">, 3845 8 of 27</text>
   <text y="97.848" x="76.535,79.812,85.662,90.4428,92.96,96.308" svgx:width="0.33,0.58,0.48,0.55,0.33,0.71" style="fill:rgb(0,0,0);font-family:URWPalladioL-Roma;font-size:9.96px;stroke:none;">the (C</text>
   <text y="99.713" x="103.431" svgx:width="0.5" style="fill:rgb(0,0,0);font-family:URWPalladioL-Roma;font-size:7.57px;stroke:none;">6</text>
   <text y="97.848" x="107.715" svgx:width="0.83" style="fill:rgb(0,0,0);font-family:URWPalladioL-Roma;font-size:9.96px;stroke:none;">H</text>
   <text y="99.713" x="116.079" svgx:width="0.5" style="fill:rgb(0,0,0);font-family:URWPalladioL-Roma;font-size:7.57px;stroke:none;">5</text>
   <text y="97.848" x="120.363,128.716" svgx:width="0.83,0.83" style="fill:rgb(0,0,0);font-family:URWPalladioL-Roma;font-size:9.96px;stroke:none;">NH</text>
   <text y="99.713" x="137.079" svgx:width="0.5" style="fill:rgb(0,0,0);font-family:URWPalladioL-Roma;font-size:7.57px;stroke:none;">3</text>
   <text y="97.848" x="141.363,144.71,150.852,153.778" svgx:width="0.33,0.61,0.29,0.34" style="fill:rgb(0,0,0);font-family:URWPalladioL-Roma;font-size:9.96px;stroke:none;">)BiI</text>
   <text y="99.713" x="157.165" svgx:width="0.5" style="fill:rgb(0,0,0);font-family:URWPalladioL-Roma;font-size:7.57px;stroke:none;">4</text>
   <text y="97.848" x="163.929,169.97,174.785,178.575,184.064,189.743,194.005,199.594,202.52,205.797,210.5778,213.095,217.558,222.584,228.3608,230.907,239.291,242.216,245.493,251.344,255.606,258.883,263.909,269.759,275.8346,278.384,282.847,288.336,294.186,298.448,301.725,306.751,312.602,315.8888,318.362,323.177,328.354,334.395,339.884,344.146,350.207,354.007,358.7878,361.295,366.784,370.0708,372.614,381.49,386.979,389.904,394.166,397.443,403.505,407.294,412.0748,414.592,417.94,423.428,427.412,429.872,435.36,441.211,445.9918,448.508,454.098,458.913,463.939,467.923,470.382,473.307,479.0838,481.641,486.667,495.543,501.102,504.027,508.842,514.693,517.97" svgx:width="0.6,0.48,0.4,0.55,0.56,0.42,0.56,0.29,0.33,0.48,0.55,0.44,0.5,0.58,0.55,0.83,0.29,0.33,0.58,0.42,0.33,0.5,0.58,0.61,0.55,0.44,0.55,0.58,0.42,0.33,0.5,0.58,0.33,0.55,0.48,0.52,0.6,0.55,0.42,0.6,0.4,0.48,0.55,0.55,0.33,0.55,0.88,0.55,0.29,0.42,0.33,0.6,0.4,0.48,0.55,0.33,0.55,0.4,0.55,0.55,0.58,0.48,0.55,0.56,0.48,0.5,0.4,0.55,0.29,0.58,0.55,0.5,0.88,0.55,0.29,0.48,0.58,0.33,0.25" style="fill:rgb(0,0,0);font-family:URWPalladioL-Roma;font-size:9.96px;stroke:none;">perovskite can withstand constant exposure of moisture for one year in ambient.</text>
   <text y="111.358" x="76.147,83.921,92.745,98.2,104.016,109.59360000000001,112.08,115.338,121.153,125.9338,128.448,133.904,137.671,143.227,148.223,154.038,156.946,161.383,166.379,169.287,175.103,180.559,184.326,189.882,194.878,200.693,203.601,207.9834,210.556,216.082,218.99,223.226,232.05,238.075,241.333,247.148,250.476,256.002,260.998,265.235,270.021,276.0966,278.635,284.64,289.427,293.194,298.65,304.296,308.532,314.088,316.996,320.253,325.04,329.277,331.767,334.283,339.26300000000003,341.797,345.125,350.121,352.619,357.615,360.943,366.948,370.715,376.171,382.177,387.173,392.989,397.775,403.881,406.788,411.785,420.608,429.431,434.887,440.703,443.611,449.636,458.46" svgx:width="0.78,0.88,0.55,0.58,0.56,0.55,0.33,0.58,0.48,0.55,0.55,0.4,0.56,0.5,0.58,0.29,0.44,0.5,0.29,0.58,0.55,0.4,0.56,0.5,0.58,0.29,0.44,0.55,0.55,0.29,0.42,0.88,0.6,0.33,0.58,0.33,0.55,0.5,0.42,0.48,0.61,0.55,0.6,0.48,0.4,0.55,0.56,0.42,0.56,0.29,0.33,0.48,0.42,0.25,0.55,0.5,0.55,0.33,0.5,0.25,0.5,0.33,0.6,0.4,0.55,0.6,0.5,0.58,0.48,0.61,0.29,0.5,0.88,0.88,0.55,0.58,0.29,0.6,0.88,0.33" style="fill:rgb(0,0,0);font-family:URWPalladioL-Roma;font-size:9.96px;stroke:none;">Among the organic–inorganic bismuth-based perovskites, a (1,3-propanediammonium)</text>
   <text y="113.223" x="461.783" svgx:width="0.5" style="fill:rgb(0,0,0);font-family:URWPalladioL-Roma;font-size:7.57px;stroke:none;">2</text>
   <text y="111.358" x="466.067,472.172" svgx:width="0.61,0.29" style="fill:rgb(0,0,0);font-family:URWPalladioL-Roma;font-size:9.96px;stroke:none;">Bi</text>
   <text y="113.223" x="475.08" svgx:width="0.5" style="fill:rgb(0,0,0);font-family:URWPalladioL-Roma;font-size:7.57px;stroke:none;">2</text>
   <text y="111.358" x="479.364" svgx:width="0.34" style="fill:rgb(0,0,0);font-family:URWPalladioL-Roma;font-size:9.96px;stroke:none;">I</text>
   <text y="113.223" x="482.732,486.518" svgx:width="0.5,0.5" style="fill:rgb(0,0,0);font-family:URWPalladioL-Roma;font-size:7.57px;stroke:none;">10</text>
   <text y="111.358" x="490.802" svgx:width="0.25" style="fill:rgb(0,0,0);font-family:Pxsy;font-size:9.96px;stroke:none;">·</text>
   <text y="111.358" x="493.292,498.288" svgx:width="0.5,0.83" style="fill:rgb(0,0,0);font-family:URWPalladioL-Roma;font-size:9.96px;stroke:none;">2H</text>
   <text y="113.223" x="506.602" svgx:width="0.5" style="fill:rgb(0,0,0);font-family:URWPalladioL-Roma;font-size:7.57px;stroke:none;">2</text>
   <text y="111.358" x="510.886" svgx:width="0.79" style="fill:rgb(0,0,0);font-family:URWPalladioL-Roma;font-size:9.96px;stroke:none;">O</text>
   <text y="124.867" x="76.117,84.26,87.101,90.284,96.0608,98.231,103.698,109.586,114.467,120.15,123.333,129.22,137.841,141.092,149.235,153.911,156.752,159.6404,161.859,170.48,175.811,179.667,185.535,191.217,196.548,199.389,204.72,210.148,215.7256,217.852,222.186,227.068,232.84480000000002,235.015,240.415,245.1958,247.356,253.039,255.88,261.308,266.99,269.832,272.673,278.101,283.783,286.966,291.643,297.7186,299.873" svgx:width="0.83,0.29,0.33,0.58,0.55,0.56,0.6,0.5,0.58,0.33,0.6,0.88,0.33,0.83,0.48,0.29,0.29,0.55,0.88,0.55,0.4,0.6,0.58,0.55,0.29,0.55,0.56,0.56,0.55,0.44,0.5,0.58,0.55,0.55,0.48,0.55,0.58,0.29,0.56,0.58,0.29,0.29,0.56,0.58,0.33,0.48,0.61,0.55,0.33" style="fill:rgb(0,0,0);font-family:URWPalladioL-Roma;font-size:9.96px;stroke:none;">with quantum-well morphology can be highlighted [</text>
   <text y="124.867" x="303.128,308.109" svgx:width="0.5,0.5" style="fill:rgb(8,117,183);font-family:URWPalladioL-Roma;font-size:9.96px;stroke:none;">51</text>
   <text y="124.867" x="313.091,316.342,318.832,322.2,328.175,333.858,336.699,340.8822,343.113,351.734,356.616,359.799,364.475,368.332,371.173,376.055,378.9434,381.161,386.843,391.725,395.9082,398.13,402.269,407.151,412.833,418.799,426.941,429.783,434.117,439.8938,442.065,446.205,449.387,453.166,459.053,463.388,466.571,472.458,476.139,480.9198,483.081,491.223,494.065,497.247,503.0238,505.195,508.378,514.06" svgx:width="0.33,0.25,0.55,0.61,0.58,0.29,0.42,0.55,0.88,0.5,0.33,0.48,0.4,0.29,0.5,0.29,0.55,0.58,0.5,0.42,0.55,0.42,0.5,0.58,0.61,0.83,0.29,0.44,0.58,0.55,0.42,0.33,0.4,0.6,0.44,0.33,0.6,0.4,0.48,0.55,0.83,0.29,0.33,0.58,0.55,0.33,0.58,0.48" style="fill:rgb(0,0,0);font-family:URWPalladioL-Roma;font-size:9.96px;stroke:none;">]. This material has sandwich structure with the</text>
   <text y="138.377" x="76.535,79.443,85.258,90.714,94.482,100.037,105.034,110.849,113.757,118.13940000000001,120.702,126.807" svgx:width="0.29,0.58,0.55,0.4,0.56,0.5,0.58,0.29,0.44,0.55,0.61,0.29" style="fill:rgb(0,0,0);font-family:URWPalladioL-Roma;font-size:9.96px;stroke:none;">inorganic Bi</text>
   <text y="140.241" x="129.712" svgx:width="0.5" style="fill:rgb(0,0,0);font-family:URWPalladioL-Roma;font-size:7.57px;stroke:none;">2</text>
   <text y="138.377" x="133.996" svgx:width="0.34" style="fill:rgb(0,0,0);font-family:URWPalladioL-Roma;font-size:9.96px;stroke:none;">I</text>
   <text y="140.241" x="137.363,141.149" svgx:width="0.5,0.5" style="fill:rgb(0,0,0);font-family:URWPalladioL-Roma;font-size:7.57px;stroke:none;">10</text>
   <text y="134.76" x="145.433" svgx:width="0.5" style="fill:rgb(0,0,0);font-family:URWPalladioL-Roma;font-size:7.57px;stroke:none;">4</text>
   <text y="134.76" x="149.219" svgx:width="0.67" style="fill:rgb(0,0,0);font-family:Pxsy;font-size:7.57px;stroke:none;">−</text>
   <text y="138.377" x="157.287,161.724,164.631,170.657,174.894,178.151,182.938,186.885,191.0682,193.63,199.635,204.422,208.369,211.266,216.722,222.828,225.736,230.172,235.168,238.076,240.984,246.5616,249.048,254.044,257.991,261.938,266.935,272.75,278.306,283.092,289.1676,291.706,294.614,300.39079999999996,302.927,306.185,312.001,316.7818,319.295,323.732,327.679,333.235,337.472,340.729,345.725,348.633,351.541,356.997,362.553,366.5,371.496,377.501,383.317,386.225,390.60740000000004,393.16,398.156,402.593,407.57300000000004,410.097,415.093,420.249,423.157,427.3402,429.902,434.139,438.925,444.931,449.927,453.874,458.87,462.128,466.914,472.9896,475.518,481.044,486.6216,489.107,494.104,496.602,501.582,504.096,509.912" svgx:width="0.44,0.29,0.6,0.42,0.33,0.48,0.4,0.42,0.55,0.6,0.48,0.4,0.29,0.55,0.61,0.29,0.44,0.5,0.29,0.29,0.56,0.55,0.5,0.4,0.4,0.5,0.58,0.56,0.48,0.61,0.55,0.29,0.58,0.55,0.33,0.58,0.48,0.55,0.44,0.4,0.56,0.42,0.33,0.5,0.29,0.29,0.55,0.56,0.4,0.5,0.6,0.58,0.29,0.44,0.55,0.5,0.44,0.5,0.55,0.5,0.52,0.29,0.42,0.55,0.42,0.48,0.6,0.5,0.4,0.5,0.33,0.48,0.61,0.55,0.55,0.56,0.55,0.5,0.25,0.5,0.55,0.58,0.88" style="fill:rgb(0,0,0);font-family:URWPalladioL-Roma;font-size:9.96px;stroke:none;">clusters periodically arranged in the crystallographic “c” axis separated by 0.5 nm</text>
   <text y="151.886" x="76.535,79.376,84.258,89.686,94.363,98.219,102.4022,104.79,110.121,113.4078,115.793,121.124,124.805,130.233,135.115,140.797,143.638,148.0204,150.395,154.73,159.611,162.794,165.635,170.966,176.648,180.788,183.27800000000002,186.695,192.68,198.362,203.1428,205.47,209.805,213.661,219.09,223.229,226.412,231.294,234.1824,236.566,241.994,245.666,250.996,259.139,262.322,268.0988,270.435,273.276,277.4592,279.837,282.678,288.361,294.326,300.213,304.548,309.225,315.30060000000003,317.621,323.02,328.5976,330.87,334.053,339.735,344.5158,346.843,350.983,353.824,359.155,369.728,374.405,379.921,384.803,390.671,396.001,399.858,404.74,407.923,410.764,416.094,421.8708,424.198,429.529,432.8158,435.211,441.079,444.75,449.426,453.761,459.649,463.505,467.645,472.976,476.832,481.0152,483.403,489.368,492.209" svgx:width="0.29,0.5,0.56,0.48,0.4,0.42,0.55,0.55,0.33,0.55,0.55,0.4,0.56,0.5,0.58,0.29,0.44,0.55,0.44,0.5,0.33,0.29,0.55,0.58,0.42,0.25,0.55,0.61,0.58,0.48,0.55,0.44,0.4,0.56,0.42,0.33,0.5,0.29,0.55,0.56,0.4,0.55,0.83,0.33,0.58,0.55,0.29,0.42,0.55,0.29,0.58,0.61,0.6,0.44,0.48,0.61,0.55,0.55,0.56,0.55,0.33,0.58,0.48,0.55,0.42,0.29,0.55,0.83,0.48,0.56,0.5,0.6,0.55,0.4,0.5,0.33,0.29,0.55,0.58,0.55,0.55,0.33,0.55,0.6,0.4,0.48,0.44,0.6,0.4,0.42,0.55,0.4,0.42,0.55,0.61,0.29,0.34" style="fill:rgb(0,0,0);font-family:URWPalladioL-Roma;font-size:9.96px;stroke:none;">layers of organic cations. The crystal growth is induced by the slowevaporation of precursors BiI</text>
   <text y="153.751" x="495.5" svgx:width="0.5" style="fill:rgb(0,0,0);font-family:URWPalladioL-Roma;font-size:7.57px;stroke:none;">3</text>
   <text y="151.886" x="502.211,507.093,512.775" svgx:width="0.5,0.58,0.61" style="fill:rgb(0,0,0);font-family:URWPalladioL-Roma;font-size:9.96px;stroke:none;">and</text>
   <text y="165.395" x="76.037,81.018,83.509,88.49,91.808,97.795,101.551,106.991,112.978,118.518,121.4064,123.907,129.994,132.894,137.875,146.672,155.469,160.908,166.707,169.606,175.613,186.901,192.988,195.887,201.685,207.225,213.312,217.068,222.507,228.046,232.818,238.59480000000002,241.107,244.006,249.446,255.533,258.432,264.519,269.292" svgx:width="0.5,0.25,0.5,0.33,0.6,0.4,0.55,0.6,0.56,0.29,0.55,0.61,0.29,0.5,0.88,0.88,0.55,0.58,0.29,0.6,0.88,0.61,0.29,0.58,0.56,0.61,0.4,0.55,0.56,0.48,0.58,0.55,0.29,0.55,0.61,0.29,0.61,0.48,0.25" style="fill:rgb(0,0,0);font-family:URWPalladioL-Roma;font-size:9.96px;stroke:none;">1,3-propyl diammoniumdihydrogen iodide.</text>
   <text y="178.905" x="97.795,104.024,109.938,114.7188,117.651,123.779,128.087,132.8678,135.81,141.359,144.6458,147.588,152.669,158.44580000000002,161.439,164.396,170.31,175.858,179.689,185.339,190.42,196.335,199.292,203.6744,206.659,211.171,216.252,219.564,222.522,228.07,233.8468,236.829,241.91,245.1968,248.079,251.391,257.306,262.0868,265.018,272.78679999999997,275.77,280.078,283.035,286.348,291.1288,294.071,299.62,302.90680000000003,305.849,311.956,316.824,320.665,326.213,331.955,336.263,341.913,344.87,348.183,352.9638,355.896,359.727,364.594,368.903,375.031,377.988,381.3,385.4832,388.465,391.422,397.1988,400.181,403.494,409.408,414.1888,417.131,420.088,426.002,430.514,434.345,439.213,444.294,448.602,453.47,459.54560000000004,462.534,466.843,470.156,475.237,480.856,483.813,486.77,489.727,493.04,498.61760000000004,501.535,506.616,512.531" svgx:width="0.61,0.58,0.48,0.55,0.6,0.42,0.48,0.55,0.55,0.33,0.55,0.5,0.58,0.55,0.29,0.58,0.55,0.4,0.56,0.5,0.58,0.29,0.44,0.55,0.44,0.5,0.33,0.29,0.55,0.58,0.55,0.5,0.33,0.55,0.33,0.58,0.48,0.55,0.78,0.55,0.42,0.29,0.33,0.48,0.55,0.55,0.33,0.55,0.6,0.48,0.4,0.55,0.56,0.42,0.56,0.29,0.33,0.48,0.55,0.4,0.48,0.42,0.6,0.29,0.33,0.42,0.55,0.29,0.58,0.55,0.33,0.58,0.48,0.55,0.29,0.58,0.44,0.4,0.48,0.5,0.42,0.48,0.61,0.55,0.42,0.33,0.5,0.55,0.29,0.29,0.29,0.33,0.56,0.55,0.5,0.58,0.61" style="fill:rgb(0,0,0);font-family:URWPalladioL-Roma;font-size:9.96px;stroke:none;">The use of an inorganic cation at the A site of perovskite results in the increased stability and</text>
   <text y="192.414" x="76.535,79.402,85.137,88.349,93.068,98.803,102.98,105.848,109.06,114.6376,117.041,122.42,125.7068,128.204,132.924,141.624,144.491,148.669,152.847,155.714,161.094,166.828,169.318,172.819,176.139,181.91580000000002,184.376,187.588,193.323,198.1038,200.545,208.762,214.142,218.034,223.61159999999998,226.015" svgx:width="0.29,0.58,0.33,0.48,0.58,0.42,0.29,0.33,0.56,0.55,0.55,0.33,0.55,0.48,0.88,0.29,0.42,0.42,0.29,0.55,0.58,0.25,0.55,0.34,0.58,0.55,0.33,0.58,0.48,0.55,0.83,0.55,0.4,0.56,0.55,0.33" style="fill:rgb(0,0,0);font-family:URWPalladioL-Roma;font-size:9.96px;stroke:none;">intensity of emission. In the work [</text>
   <text y="192.414" x="229.292,234.273" svgx:width="0.5,0.5" style="fill:rgb(8,117,183);font-family:URWPalladioL-Roma;font-size:9.96px;stroke:none;">38</text>
   <text y="192.414" x="239.254,242.535,245.025,247.501,252.481,254.93,259.108,264.586,270.321,273.533,279.267,283.987,288.164,291.032,295.2152,297.712,303.092,306.3788,308.875,314.896,320.275,326.217,331.665,334.533,339.252,342.533,348.268,353.194,356.061,358.929,364.949,369.7298,372.171,376.349,379.216,384.951,390.429,393.296,398.0768,400.518,404.893,408.785,414.263,418.441,421.653,426.579,429.4674,431.949,438.935" svgx:width="0.33,0.25,0.55,0.5,0.55,0.42,0.56,0.58,0.33,0.58,0.48,0.42,0.29,0.42,0.55,0.55,0.33,0.55,0.61,0.55,0.6,0.55,0.29,0.48,0.33,0.58,0.5,0.29,0.29,0.61,0.48,0.55,0.42,0.29,0.58,0.56,0.29,0.48,0.55,0.44,0.4,0.56,0.42,0.33,0.5,0.29,0.55,0.71,0.42" style="fill:rgb(0,0,0);font-family:URWPalladioL-Roma;font-size:9.96px;stroke:none;">], a synthesis of double-halide single crystal Cs</text>
   <text y="194.279" x="443.115" svgx:width="0.5" style="fill:rgb(0,0,0);font-family:URWPalladioL-Roma;font-size:7.57px;stroke:none;">3</text>
   <text y="192.414" x="447.399,453.419,456.286,462.307" svgx:width="0.61,0.29,0.61,0.4" style="fill:rgb(0,0,0);font-family:URWPalladioL-Roma;font-size:9.96px;stroke:none;">BiBr</text>
   <text y="194.279" x="466.199" svgx:width="0.5" style="fill:rgb(0,0,0);font-family:URWPalladioL-Roma;font-size:7.57px;stroke:none;">6</text>
   <text y="192.414" x="472.985,478.907,483.626,487.341,492.721,498.288,502.465,507.943,510.811,514.023" svgx:width="0.6,0.48,0.4,0.55,0.56,0.42,0.56,0.29,0.33,0.48" style="fill:rgb(0,0,0);font-family:URWPalladioL-Roma;font-size:9.96px;stroke:none;">perovskite</text>
   <text y="205.924" x="76.117,84.26,89.141,93.3242,94.96,99.1,104.782,110.113,118.256,123.938,126.428,129.601,135.586,141.268,146.0488,147.624,153.589,156.43,160.57,163.753,166.594,172.276,176.611,179.794,182.635,188.151,192.9318,194.507,197.759,202.435,207.317,210.5,216.387,220.058,224.8388,226.414,231.745,235.0318,236.685,242.65,247.981,253.868,259.268,262.109,266.785,270.037,275.719,280.601,283.432,286.273,292.238,297.0188,298.604,304.472,309.148,312.82,318.15,323.667,327.806,333.235,336.076,339.259,344.0398,345.615,354.236,359.117,362.3,366.977,370.833,373.674,378.556,381.397,385.5802,387.216,390.057,394.2402,395.876,400.758,408.129,410.97,415.11,420.441,423.282,428.164,431.347,436.023,443.668,449.633,452.474,458.44" svgx:width="0.83,0.5,0.42,0.55,0.42,0.58,0.55,0.83,0.58,0.25,0.55,0.61,0.58,0.48,0.55,0.61,0.29,0.42,0.33,0.29,0.58,0.44,0.33,0.29,0.56,0.48,0.55,0.33,0.48,0.5,0.33,0.6,0.4,0.48,0.55,0.55,0.33,0.55,0.61,0.55,0.6,0.55,0.29,0.48,0.33,0.58,0.5,0.29,0.29,0.61,0.48,0.55,0.6,0.48,0.4,0.55,0.56,0.42,0.56,0.29,0.33,0.48,0.55,0.88,0.5,0.33,0.48,0.4,0.29,0.5,0.29,0.42,0.55,0.29,0.42,0.55,0.5,0.58,0.29,0.42,0.55,0.29,0.5,0.33,0.48,0.61,0.61,0.29,0.61,0.4" style="fill:rgb(0,0,0);font-family:URWPalladioL-Roma;font-size:9.96px;stroke:none;">was shown. The distinctive feature of double-halide perovskite materials is anisolatedBiBr</text>
   <text y="207.788" x="462.294" svgx:width="0.5" style="fill:rgb(0,0,0);font-family:URWPalladioL-Roma;font-size:7.57px;stroke:none;">6</text>
   <text y="205.924" x="468.258,474.126,479.457,482.298,487.726,493.408,498.085,504.05,507.731,513.062" svgx:width="0.6,0.55,0.29,0.56,0.58,0.48,0.61,0.4,0.55,0.58" style="fill:rgb(0,0,0);font-family:URWPalladioL-Roma;font-size:9.96px;stroke:none;">polyhedron</text>
   <text y="219.433" x="76.535,79.475,85.25179999999999,87.839,91.132,97.012,101.7928,104.336,108.821,112.812,118.428,122.712,126.005,131.056,133.9444,136.481,139.42,144.471,147.765,151.058,153.998,158.483,163.322,165.812,169.333,175.525,181.405,186.243,190.052,194.891,198.255,203.771,207.579,212.418,214.90800000000002,217.429,220.722,226.601,231.3818,233.925,237.916,242.967,246.26,249.2,254.678,257.201,262.787,267.626,270.919,279.344,284.183,289.022,294.79879999999997,297.387,300.68,309.105,314.583,317.106,321.096,326.147,334.4138,337.057,343.129,346.947,351.786,356.272,362.363,366.343,370.627,376.142,380.133,384.3162,386.901,393.074,396.013,402.186" svgx:width="0.29,0.58,0.55,0.33,0.58,0.48,0.55,0.44,0.4,0.56,0.42,0.33,0.5,0.29,0.55,0.29,0.5,0.33,0.33,0.29,0.44,0.48,0.25,0.55,0.61,0.58,0.48,0.4,0.48,0.33,0.55,0.4,0.48,0.25,0.55,0.33,0.58,0.48,0.55,0.4,0.5,0.33,0.29,0.55,0.55,0.55,0.48,0.33,0.83,0.48,0.48,0.58,0.55,0.33,0.83,0.55,0.55,0.4,0.5,0.83,0.55,0.6,0.4,0.48,0.44,0.6,0.4,0.42,0.55,0.4,0.42,0.55,0.61,0.29,0.61,0.4" style="fill:rgb(0,0,0);font-family:URWPalladioL-Roma;font-size:9.96px;stroke:none;">in the crystal lattice. Therefore, the ratio between two raw precursors BiBr</text>
   <text y="221.298" x="406.181" svgx:width="0.5" style="fill:rgb(0,0,0);font-family:URWPalladioL-Roma;font-size:7.57px;stroke:none;">3</text>
   <text y="219.433" x="412.95,418.001,423.88,429.9556,432.538,439.7,443.984,450.156,454.14,456.631,462.703,465.642,470.693,476.31,480.4932,483.079,488.695,493.534,499.1116,501.636,505.445,510.96,513.9" svgx:width="0.5,0.58,0.61,0.55,0.71,0.42,0.61,0.4,0.55,0.6,0.29,0.5,0.56,0.42,0.55,0.56,0.48,0.56,0.55,0.4,0.55,0.29,0.48" style="fill:rgb(0,0,0);font-family:URWPalladioL-Roma;font-size:9.96px;stroke:none;">and CsBr plays key role</text>
   <text y="232.942" x="76.535,79.492,85.2688,88.516,93.028,98.576,104.49,107.803,111.644,117.193,120.15,123.107,126.064,131.978,137.5556,140.738,144.05,149.965,154.7458,157.952,161.336,166.884,170.898,179.871,184.952,188.265,191.222,196.77,202.54680000000002,205.794,211.342,214.6288,217.846,221.158,227.073,231.8538,235.05,242.254" svgx:width="0.29,0.58,0.55,0.44,0.55,0.58,0.33,0.4,0.55,0.29,0.29,0.29,0.58,0.56,0.55,0.33,0.58,0.48,0.55,0.33,0.55,0.4,0.88,0.5,0.33,0.29,0.55,0.58,0.55,0.55,0.33,0.55,0.33,0.58,0.48,0.55,0.71,0.42" style="fill:rgb(0,0,0);font-family:URWPalladioL-Roma;font-size:9.96px;stroke:none;">in controlling the formation of the Cs</text>
   <text y="234.807" x="246.564" svgx:width="0.5" style="fill:rgb(0,0,0);font-family:URWPalladioL-Roma;font-size:7.57px;stroke:none;">3</text>
   <text y="232.942" x="250.848,257.057,260.014,266.223" svgx:width="0.61,0.29,0.61,0.4" style="fill:rgb(0,0,0);font-family:URWPalladioL-Roma;font-size:9.96px;stroke:none;">BiBr</text>
   <text y="234.807" x="270.236" svgx:width="0.5" style="fill:rgb(0,0,0);font-family:URWPalladioL-Roma;font-size:7.57px;stroke:none;">6</text>
   <text y="232.942" x="277.635,281.944,284.901,290.815,296.465,299.422,304.2028,307.399,311.911,315.925,321.575,325.883,329.196,334.277,337.234,341.543,344.033,349.449,352.873,356.1598,359.296,367.771,372.852,377.0352,380.28,385.361,388.318,392.627,398.105,401.284,405.593,411.507,417.056,425.531,431.3078,434.554,437.867,443.781,448.862,452.14880000000005,455.295,459.603,465.731,470.243,476.0198,479.266,486.471" svgx:width="0.42,0.29,0.58,0.56,0.29,0.48,0.55,0.44,0.4,0.56,0.42,0.33,0.5,0.29,0.42,0.25,0.55,0.34,0.33,0.55,0.83,0.5,0.42,0.55,0.5,0.29,0.42,0.55,0.55,0.42,0.58,0.55,0.83,0.58,0.55,0.33,0.58,0.5,0.33,0.55,0.42,0.6,0.44,0.58,0.55,0.71,0.42" style="fill:rgb(0,0,0);font-family:URWPalladioL-Roma;font-size:9.96px;stroke:none;">single crystals. It was also shown that such Cs</text>
   <text y="234.807" x="490.784" svgx:width="0.5" style="fill:rgb(0,0,0);font-family:URWPalladioL-Roma;font-size:7.57px;stroke:none;">3</text>
   <text y="232.942" x="495.068,501.277,504.234,510.443" svgx:width="0.61,0.29,0.61,0.4" style="fill:rgb(0,0,0);font-family:URWPalladioL-Roma;font-size:9.96px;stroke:none;">BiBr</text>
   <text y="234.807" x="514.456" svgx:width="0.5" style="fill:rgb(0,0,0);font-family:URWPalladioL-Roma;font-size:7.57px;stroke:none;">6</text>
   <text y="246.452" x="76.535,80.823,83.765,89.65,95.273,98.215,102.9958,105.536,110.026,114.02,119.643,123.93,127.227,132.283,135.225,139.4082,142.0,150.434,153.376,156.663,162.43980000000002,165.036,170.628,175.684,181.569,187.6446,190.225,195.847,200.903,206.879,209.458,214.979,218.2658,220.834,225.89,228.418,233.474,238.45399999999998,241.007,245.851,253.0222,255.629,261.707,267.228,271.515,275.803,280.646,284.934,289.1172,291.699,297.584,300.527,306.149,311.9258,314.522,317.818,323.703,328.547,332.541,341.47,346.526,349.4144,351.946,356.234,359.53,364.586,370.178,373.121,376.064,379.006,382.303,386.813,389.303,392.829,398.108,403.586,406.117,409.484,415.581,419.576,422.872,428.757,433.601,437.585,440.073,443.015,451.944,458.022,461.834,467.355,473.068,477.8488,480.389,486.497,492.676,500.624,507.29720000000003,509.856,515.377" svgx:width="0.42,0.29,0.58,0.56,0.29,0.48,0.55,0.44,0.4,0.56,0.42,0.33,0.5,0.29,0.42,0.55,0.83,0.29,0.33,0.58,0.55,0.55,0.5,0.58,0.61,0.55,0.56,0.5,0.6,0.55,0.55,0.33,0.55,0.5,0.25,0.5,0.5,0.55,0.48,0.72,0.55,0.6,0.55,0.42,0.42,0.48,0.42,0.42,0.55,0.58,0.29,0.56,0.58,0.55,0.33,0.58,0.48,0.4,0.88,0.5,0.29,0.55,0.42,0.33,0.5,0.55,0.29,0.29,0.29,0.33,0.56,0.25,0.55,0.61,0.55,0.55,0.33,0.6,0.4,0.33,0.58,0.48,0.4,0.55,0.29,0.88,0.6,0.4,0.55,0.56,0.48,0.55,0.6,0.61,0.79,0.67,0.55,0.55,0.33" style="fill:rgb(0,0,0);font-family:URWPalladioL-Roma;font-size:9.96px;stroke:none;">single crystals with band gap of 2.55 eV possess high thermal stability. To further improve PLQY of</text>
   <text y="259.961" x="76.535,83.74" svgx:width="0.71,0.42" style="fill:rgb(0,0,0);font-family:URWPalladioL-Roma;font-size:9.96px;stroke:none;">Cs</text>
   <text y="261.826" x="88.049" svgx:width="0.5" style="fill:rgb(0,0,0);font-family:URWPalladioL-Roma;font-size:7.57px;stroke:none;">3</text>
   <text y="259.961" x="92.333,98.542" svgx:width="0.61,0.29" style="fill:rgb(0,0,0);font-family:URWPalladioL-Roma;font-size:9.96px;stroke:none;">Bi</text>
   <text y="261.826" x="101.499" svgx:width="0.5" style="fill:rgb(0,0,0);font-family:URWPalladioL-Roma;font-size:7.57px;stroke:none;">2</text>
   <text y="259.961" x="105.782,111.991" svgx:width="0.61,0.4" style="fill:rgb(0,0,0);font-family:URWPalladioL-Roma;font-size:9.96px;stroke:none;">Br</text>
   <text y="261.826" x="116.005" svgx:width="0.5" style="fill:rgb(0,0,0);font-family:URWPalladioL-Roma;font-size:7.57px;stroke:none;">9</text>
   <text y="259.961" x="123.042,129.149,134.017,137.848,143.396,149.138,153.446,159.096,162.053,165.366,170.1468,172.987,181.432,188.637,192.945,195.435,198.311,203.291,206.146,212.355" svgx:width="0.6,0.48,0.4,0.55,0.56,0.42,0.56,0.29,0.33,0.48,0.55,0.83,0.71,0.42,0.25,0.55,0.5,0.55,0.61,0.6" style="fill:rgb(0,0,0);font-family:URWPalladioL-Roma;font-size:9.96px;stroke:none;">perovskite NCs, a Eu</text>
   <text y="256.345" x="218.478" svgx:width="0.5" style="fill:rgb(0,0,0);font-family:URWPalladioL-Roma;font-size:7.57px;stroke:none;">3</text>
   <text y="256.345" x="222.264" svgx:width="0.67" style="fill:rgb(0,0,0);font-family:Rpxr;font-size:7.57px;stroke:none;">+</text>
   <text y="259.961" x="227.827,231.211,237.42,242.968,249.075,252.033,257.947,263.5246,266.351,270.862,275.943,281.71979999999996,284.611,290.231,295.0118,297.852,303.98,308.289,313.156,319.2316,322.119,327.86,330.817,335.797,338.652,347.625,353.173,359.382,362.339,368.487,373.355,379.4306,382.308,385.265,388.222,393.872,398.953,404.867,411.076,414.46,419.541,423.849,428.158,431.115,435.424,438.736,443.604,449.6796,452.567,456.408,461.275,467.383,471.214,476.081,480.593,483.55,489.657,492.614,495.927,501.008,504.321,507.278,512.826" svgx:width="0.33,0.61,0.55,0.6,0.29,0.58,0.56,0.55,0.44,0.5,0.58,0.55,0.55,0.48,0.55,0.6,0.42,0.48,0.61,0.55,0.56,0.29,0.5,0.55,0.88,0.55,0.61,0.29,0.61,0.48,0.61,0.55,0.29,0.29,0.56,0.5,0.58,0.61,0.33,0.5,0.42,0.42,0.29,0.42,0.33,0.48,0.61,0.55,0.4,0.48,0.6,0.4,0.48,0.44,0.29,0.6,0.29,0.33,0.5,0.33,0.29,0.55,0.58" style="fill:rgb(0,0,0);font-family:URWPalladioL-Roma;font-size:9.96px;stroke:none;">-doping can be used via modiﬁed ligand-assisted reprecipitation</text>
   <text y="273.471" x="76.207,79.458,85.424,93.019,99.541,105.438,108.7248,110.633,119.254,123.93,127.113,132.795,138.126,144.2016,146.044,150.926,155.1092,157.008,165.151,170.033,174.2162,176.115,180.255,185.937,191.268,199.411,205.1878,207.046,209.887,215.6638,217.512,225.655,230.985,234.842,240.4196,242.223" svgx:width="0.33,0.61,0.78,0.67,0.6,0.33,0.55,0.88,0.48,0.33,0.58,0.55,0.61,0.55,0.5,0.42,0.55,0.83,0.5,0.42,0.55,0.42,0.58,0.55,0.83,0.58,0.55,0.29,0.58,0.55,0.83,0.55,0.4,0.56,0.55,0.33" style="fill:rgb(0,0,0);font-family:URWPalladioL-Roma;font-size:9.96px;stroke:none;">(LARP) method as was shown in work [</text>
   <text y="273.471" x="245.471,250.452" svgx:width="0.5,0.5" style="fill:rgb(8,117,183);font-family:URWPalladioL-Roma;font-size:9.96px;stroke:none;">53</text>
   <text y="273.471" x="255.434,258.685,261.175,264.436,270.421,276.103,280.8838,282.723,289.645" svgx:width="0.33,0.25,0.55,0.61,0.58,0.48,0.55,0.71,0.42" style="fill:rgb(0,0,0);font-family:URWPalladioL-Roma;font-size:9.96px;stroke:none;">]. The Cs</text>
   <text y="275.335" x="293.784" svgx:width="0.5" style="fill:rgb(0,0,0);font-family:URWPalladioL-Roma;font-size:7.57px;stroke:none;">3</text>
   <text y="273.471" x="298.068,304.033" svgx:width="0.61,0.29" style="fill:rgb(0,0,0);font-family:URWPalladioL-Roma;font-size:9.96px;stroke:none;">Bi</text>
   <text y="275.335" x="306.875" svgx:width="0.5" style="fill:rgb(0,0,0);font-family:URWPalladioL-Roma;font-size:7.57px;stroke:none;">2</text>
   <text y="273.471" x="311.159,317.124" svgx:width="0.61,0.4" style="fill:rgb(0,0,0);font-family:URWPalladioL-Roma;font-size:9.96px;stroke:none;">Br</text>
   <text y="275.335" x="320.98" svgx:width="0.5" style="fill:rgb(0,0,0);font-family:URWPalladioL-Roma;font-size:7.57px;stroke:none;">9</text>
   <text y="273.471" x="325.264,327.705,333.67" svgx:width="0.25,0.61,0.6" style="fill:rgb(0,0,0);font-family:URWPalladioL-Roma;font-size:9.96px;stroke:none;">:Eu</text>
   <text y="269.854" x="339.558" svgx:width="0.5" style="fill:rgb(0,0,0);font-family:URWPalladioL-Roma;font-size:7.57px;stroke:none;">3</text>
   <text y="269.854" x="343.344" svgx:width="0.67" style="fill:rgb(0,0,0);font-family:Rpxr;font-size:7.57px;stroke:none;">+</text>
   <text y="273.471" x="350.854,358.967,365.89,370.0732,371.972,377.938,382.614,391.235,396.566,402.248,406.388,409.571,413.427,418.309,421.492,426.2728,428.121,436.742,442.629,445.471,448.653,451.495,455.829,461.16,464.001,469.332,473.316,475.132,479.808,488.429,491.27,495.41,499.55,502.391,507.722,513.404,517.544" svgx:width="0.83,0.71,0.42,0.55,0.61,0.48,0.88,0.55,0.58,0.42,0.33,0.4,0.5,0.33,0.48,0.55,0.88,0.6,0.29,0.33,0.29,0.44,0.55,0.29,0.55,0.4,0.55,0.48,0.88,0.29,0.42,0.42,0.29,0.55,0.58,0.42,0.25" style="fill:rgb(0,0,0);font-family:URWPalladioL-Roma;font-size:9.96px;stroke:none;">NCs demonstrate multicolor emissions:</text>
   <text y="286.98" x="76.535,82.628,91.434,94.336,98.564,102.793,105.695,111.14,116.9168,119.447,122.768,126.527,131.972,143.281,146.532,152.336,157.1168,159.606,167.894,174.964,177.7528,180.24,186.044,191.489,195.717,199.0038,201.471,208.542" svgx:width="0.61,0.88,0.29,0.42,0.42,0.29,0.55,0.58,0.55,0.33,0.4,0.55,0.88,0.33,0.58,0.48,0.55,0.83,0.71,0.28,0.55,0.58,0.55,0.42,0.33,0.55,0.71,0.42" style="fill:rgb(0,0,0);font-family:URWPalladioL-Roma;font-size:9.96px;stroke:none;">Emission fromthe NC’ host Cs</text>
   <text y="288.845" x="212.768" svgx:width="0.5" style="fill:rgb(0,0,0);font-family:URWPalladioL-Roma;font-size:7.57px;stroke:none;">3</text>
   <text y="286.98" x="217.051,223.144" svgx:width="0.61,0.29" style="fill:rgb(0,0,0);font-family:URWPalladioL-Roma;font-size:9.96px;stroke:none;">Bi</text>
   <text y="288.845" x="226.047" svgx:width="0.5" style="fill:rgb(0,0,0);font-family:URWPalladioL-Roma;font-size:7.57px;stroke:none;">2</text>
   <text y="286.98" x="230.331,236.424" svgx:width="0.61,0.4" style="fill:rgb(0,0,0);font-family:URWPalladioL-Roma;font-size:9.96px;stroke:none;">Br</text>
   <text y="288.845" x="240.363" svgx:width="0.5" style="fill:rgb(0,0,0);font-family:URWPalladioL-Roma;font-size:7.57px;stroke:none;">9</text>
   <text y="286.98" x="247.148,255.954,260.94,264.191,268.13,271.032,276.21119999999996,278.681,283.667,289.471,295.5466,298.058,301.309,307.113,311.8938,314.393,320.486" svgx:width="0.88,0.5,0.33,0.4,0.29,0.52,0.55,0.5,0.58,0.61,0.55,0.33,0.58,0.48,0.55,0.61,0.6" style="fill:rgb(0,0,0);font-family:URWPalladioL-Roma;font-size:9.96px;stroke:none;">matrix and the Eu</text>
   <text y="283.364" x="326.501" svgx:width="0.5" style="fill:rgb(0,0,0);font-family:URWPalladioL-Roma;font-size:7.57px;stroke:none;">3</text>
   <text y="283.364" x="330.287" svgx:width="0.67" style="fill:rgb(0,0,0);font-family:Rpxr;font-size:7.57px;stroke:none;">+</text>
   <text y="286.98" x="338.351,341.253,346.698,352.47479999999996,355.005,359.782,368.588,371.49,375.718,379.947,382.849,388.483,393.2638,395.753,399.004,402.943,407.93,413.734,417.962,420.864,424.115,427.017,432.462,438.266,440.75600000000003,444.28,451.35,456.795,465.601,471.594,476.581,480.34,485.117,491.1926,493.713,496.965,502.443,504.913,508.164,513.968" svgx:width="0.29,0.55,0.58,0.55,0.48,0.88,0.29,0.42,0.42,0.29,0.56,0.48,0.55,0.33,0.4,0.5,0.58,0.42,0.29,0.33,0.29,0.55,0.58,0.25,0.55,0.71,0.55,0.88,0.6,0.5,0.4,0.48,0.61,0.55,0.33,0.55,0.55,0.33,0.58,0.48" style="fill:rgb(0,0,0);font-family:URWPalladioL-Roma;font-size:9.96px;stroke:none;">ion emissive transition. Compared to the</text>
   <text y="300.489" x="76.535,83.5" svgx:width="0.71,0.42" style="fill:rgb(0,0,0);font-family:URWPalladioL-Roma;font-size:9.96px;stroke:none;">Cs</text>
   <text y="302.354" x="87.665" svgx:width="0.5" style="fill:rgb(0,0,0);font-family:URWPalladioL-Roma;font-size:7.57px;stroke:none;">3</text>
   <text y="300.489" x="91.949,97.951" svgx:width="0.61,0.29" style="fill:rgb(0,0,0);font-family:URWPalladioL-Roma;font-size:9.96px;stroke:none;">Bi</text>
   <text y="302.354" x="100.809" svgx:width="0.5" style="fill:rgb(0,0,0);font-family:URWPalladioL-Roma;font-size:7.57px;stroke:none;">2</text>
   <text y="300.489" x="105.093,111.095" svgx:width="0.61,0.4" style="fill:rgb(0,0,0);font-family:URWPalladioL-Roma;font-size:9.96px;stroke:none;">Br</text>
   <text y="302.354" x="114.975" svgx:width="0.5" style="fill:rgb(0,0,0);font-family:URWPalladioL-Roma;font-size:7.57px;stroke:none;">9</text>
   <text y="300.489" x="121.755,129.918,136.883,141.048,143.538,145.998,149.201,154.918,159.6988,162.118,168.12" svgx:width="0.83,0.71,0.42,0.25,0.55,0.33,0.58,0.48,0.55,0.61,0.6" style="fill:rgb(0,0,0);font-family:URWPalladioL-Roma;font-size:9.96px;stroke:none;">NCs, the Eu</text>
   <text y="296.873" x="174.047" svgx:width="0.5" style="fill:rgb(0,0,0);font-family:URWPalladioL-Roma;font-size:7.57px;stroke:none;">3</text>
   <text y="296.873" x="177.832" svgx:width="0.67" style="fill:rgb(0,0,0);font-family:Rpxr;font-size:7.57px;stroke:none;">+</text>
   <text y="300.489" x="183.396,186.667,192.669,198.032,203.936,208.641,214.7166,217.138,225.301,232.266,236.4492,238.926,243.091,248.808,254.172,264.859,270.792,276.794,284.515,291.1882,293.562,302.236,307.6,311.303,316.0838,318.503,321.706,327.423,332.334,338.1108,340.546,345.458,350.37,361.116,366.028,371.745,377.8206,380.242,388.915,394.279,397.137,401.302,404.505,410.428,414.131,418.91179999999997,421.332,425.497,428.699,433.611,439.043,441.901,444.76,447.618,450.821,455.182,457.672,461.135,468.777,471.636,477.098,482.009,484.868,487.7564,490.221,498.895,503.6,506.803,511.714,514.573" svgx:width="0.33,0.61,0.55,0.6,0.48,0.61,0.55,0.83,0.71,0.42,0.55,0.42,0.58,0.55,0.83,0.6,0.61,0.79,0.67,0.55,0.88,0.55,0.4,0.48,0.55,0.33,0.58,0.5,0.58,0.55,0.5,0.5,0.84,0.5,0.58,0.61,0.55,0.88,0.55,0.29,0.42,0.33,0.6,0.4,0.48,0.55,0.42,0.33,0.5,0.55,0.29,0.29,0.29,0.33,0.56,0.25,0.55,0.78,0.29,0.56,0.5,0.29,0.29,0.55,0.88,0.48,0.33,0.5,0.29,0.42" style="fill:rgb(0,0,0);font-family:URWPalladioL-Roma;font-size:9.96px;stroke:none;">-doped NCs showPLQY more than 40%and moisture stability. Alkali metals</text>
   <text y="313.999" x="76.535,80.844,86.971,91.483,97.2598,100.192,105.273,109.4562,112.376,116.308,122.436,128.056,131.013,137.222,140.179,146.306,155.07080000000002,158.074,161.458,168.246,173.865,177.1518,180.044,185.958,191.039,196.78,201.5608,204.442,209.422,212.318,217.957,223.506,229.054,235.1296,238.058,241.015,246.929,253.107,259.235,264.102,270.017,274.529,279.3098,282.191,287.739,293.51579999999996,296.448,302.067,307.615,313.164,317.472,320.785,323.742,329.656,335.2336,338.101,341.414,347.328,352.1088,354.99,360.538,366.646,369.958,372.915,377.427,382.508,385.39639999999997,388.26,392.772,398.686,403.767,407.781,412.862,417.374,420.686,425.554,429.568,432.525,436.834,440.146,443.103,447.615,451.7982,454.718,460.267,463.5538,466.435,472.542,477.41,481.251,486.799,492.541,496.849,502.499,505.456,508.769,513.637,517.945" svgx:width="0.42,0.6,0.44,0.58,0.55,0.5,0.42,0.55,0.4,0.6,0.55,0.29,0.61,0.29,0.6,0.88,0.55,0.33,0.67,0.55,0.33,0.55,0.58,0.5,0.56,0.48,0.55,0.5,0.55,0.56,0.55,0.55,0.61,0.55,0.29,0.58,0.61,0.6,0.48,0.58,0.44,0.48,0.55,0.55,0.58,0.55,0.55,0.55,0.55,0.42,0.33,0.29,0.58,0.56,0.55,0.33,0.58,0.48,0.55,0.55,0.6,0.33,0.29,0.44,0.5,0.29,0.55,0.44,0.58,0.5,0.4,0.5,0.44,0.33,0.48,0.4,0.29,0.42,0.33,0.29,0.44,0.42,0.55,0.55,0.33,0.55,0.6,0.48,0.4,0.55,0.56,0.42,0.56,0.29,0.33,0.48,0.42,0.25" style="fill:rgb(0,0,0);font-family:URWPalladioL-Roma;font-size:9.96px;stroke:none;">such as rubidium (Rb) have a good inﬂuence on boosting the optical characteristics of perovskites.</text>
   <text y="327.508" x="76.226,82.449,88.358,94.479,98.783,101.273,103.809,106.763,112.5398,115.158,123.625,129.168,133.178,138.7556,141.31" svgx:width="0.61,0.58,0.6,0.42,0.25,0.55,0.29,0.58,0.55,0.83,0.55,0.4,0.56,0.55,0.33" style="fill:rgb(0,0,0);font-family:URWPalladioL-Roma;font-size:9.96px;stroke:none;">Thus, in work [</text>
   <text y="327.508" x="144.693,149.674" svgx:width="0.5,0.5" style="fill:rgb(8,117,183);font-family:URWPalladioL-Roma;font-size:9.96px;stroke:none;">37</text>
   <text y="327.508" x="154.656,158.037,160.52700000000002,163.062,169.843" svgx:width="0.33,0.25,0.55,0.67,0.55" style="fill:rgb(0,0,0);font-family:URWPalladioL-Roma;font-size:9.96px;stroke:none;">], Rb</text>
   <text y="329.373" x="175.458" svgx:width="0.5" style="fill:rgb(0,0,0);font-family:URWPalladioL-Roma;font-size:7.57px;stroke:none;">7</text>
   <text y="327.508" x="179.742,185.945" svgx:width="0.61,0.29" style="fill:rgb(0,0,0);font-family:URWPalladioL-Roma;font-size:9.96px;stroke:none;">Bi</text>
   <text y="329.373" x="188.899" svgx:width="0.5" style="fill:rgb(0,0,0);font-family:URWPalladioL-Roma;font-size:7.57px;stroke:none;">3</text>
   <text y="327.508" x="193.183,200.381" svgx:width="0.71,0.29" style="fill:rgb(0,0,0);font-family:URWPalladioL-Roma;font-size:9.96px;stroke:none;">Cl</text>
   <text y="329.373" x="203.335,207.121" svgx:width="0.5,0.5" style="fill:rgb(0,0,0);font-family:URWPalladioL-Roma;font-size:7.57px;stroke:none;">16</text>
   <text y="327.508" x="213.892,218.196,221.151,227.059,232.703,235.658,240.4388,243.008,247.515,251.525,257.169,261.474,264.783,269.859,272.814,276.9972,279.605,288.072,291.026,294.336,300.1128,302.731,307.807,312.67,316.507,322.05,325.431,331.634,334.578,343.542,348.405,354.313,358.617,361.572,367.115,373.023,378.099,380.9874,383.55,388.058,391.012,397.134,401.438,404.737,409.6,413.584,416.108,420.412,423.721,427.65,433.772,438.279,441.589,447.71,451.538,456.3188,458.888,467.354,472.43,476.6132,479.222,483.049,487.912,494.013,499.556,503.566,506.876,511.738,517.941" svgx:width="0.42,0.29,0.58,0.56,0.29,0.48,0.55,0.44,0.4,0.56,0.42,0.33,0.5,0.29,0.42,0.55,0.83,0.29,0.33,0.58,0.55,0.5,0.48,0.4,0.55,0.33,0.61,0.29,0.88,0.48,0.58,0.42,0.29,0.55,0.58,0.5,0.29,0.55,0.44,0.29,0.6,0.42,0.33,0.48,0.4,0.55,0.42,0.33,0.4,0.6,0.44,0.33,0.6,0.4,0.48,0.55,0.83,0.5,0.42,0.55,0.4,0.48,0.6,0.55,0.4,0.33,0.48,0.61,0.25" style="fill:rgb(0,0,0);font-family:URWPalladioL-Roma;font-size:9.96px;stroke:none;">single crystals with zero-dimensional cluster structure was reported.</text>
   <text y="341.018" x="76.226,82.211,87.893,90.734,94.9172,97.139,101.279,104.462,108.23,114.118,118.452,121.635,127.523,131.203,135.9838,138.145,141.816,146.493,152.361,156.041,160.718,164.858,169.534,175.217,178.399,182.5822,184.794,187.977,196.12,201.598,203.716,209.144,211.985,217.668,223.633,227.8162,230.038,235.369,238.6558,240.875,246.206,250.541,253.724,258.605,264.288,268.964,274.93,278.786,283.766,285.933,294.076,296.917,300.1,305.8768,308.037,314.003" svgx:width="0.61,0.58,0.29,0.42,0.55,0.42,0.33,0.4,0.6,0.44,0.33,0.6,0.4,0.48,0.55,0.4,0.48,0.6,0.4,0.48,0.42,0.48,0.58,0.33,0.42,0.55,0.33,0.83,0.55,0.55,0.56,0.29,0.58,0.61,0.42,0.55,0.55,0.33,0.55,0.55,0.44,0.33,0.5,0.58,0.48,0.61,0.4,0.5,0.55,0.83,0.29,0.33,0.58,0.55,0.61,0.29" style="fill:rgb(0,0,0);font-family:URWPalladioL-Roma;font-size:9.96px;stroke:none;">This structure represents two kinds of octahedra with di</text>
   <text y="341.018" x="316.846" svgx:width="0.61" style="fill:rgb(0,0,0);font-family:Rpxr;font-size:9.96px;stroke:none;">ﬀ</text>
   <text y="341.018" x="322.782,327.459,331.139,335.816,341.498,344.7848,346.937,352.902,355.743,359.883,363.066,368.396,372.253,375.436,378.277,383.608,389.29,393.43,395.92,399.278,404.404,410.291,414.626,420.40279999999996,422.573,430.687,437.609,441.7922,444.014,452.156,456.833,460.504,465.2848,467.446,471.585,477.014,482.696,485.879,491.561,496.238,500.377,503.218,508.1,512.777" svgx:width="0.48,0.4,0.48,0.58,0.33,0.55,0.61,0.29,0.42,0.33,0.55,0.4,0.33,0.29,0.55,0.58,0.42,0.25,0.55,0.52,0.6,0.44,0.58,0.55,0.83,0.71,0.42,0.55,0.83,0.48,0.4,0.48,0.55,0.42,0.56,0.58,0.33,0.58,0.48,0.42,0.29,0.5,0.48,0.61" style="fill:rgb(0,0,0);font-family:URWPalladioL-Roma;font-size:9.96px;stroke:none;">erent distortions. Such NCs were synthesized</text>
   <text y="354.527" x="76.535,79.492,85.2688,88.851,93.831,97.367,102.681,107.549,113.727,119.276,125.19,128.574,131.531,134.488,140.402,145.27,151.34560000000002,154.924,159.232,162.545,167.626,170.583,176.497,179.454,184.322,188.63,192.939,196.323,200.632,203.944,208.812,213.679,216.5674,220.071,225.152,231.28,234.592,240.141,244.653,247.61,252.691,258.432,263.3,265.79,269.519,274.6,280.514,286.5896,290.168,293.48,299.395,304.262,309.8396,313.347,318.214,327.187,330.144,333.43080000000003,336.902,341.983,345.26980000000003,348.73,353.811,358.892,363.872,367.418,373.332,382.0968,385.75,394.225,397.182,400.495,406.2718,409.844,414.824,418.369,424.507,430.716,438.703,445.3762,448.916,457.889,463.437,467.278,472.0588,475.581,478.893,484.808,489.888,495.66479999999996,499.247,504.328,509.409,517.945" svgx:width="0.29,0.58,0.55,0.5,0.55,0.61,0.48,0.61,0.55,0.58,0.33,0.29,0.29,0.58,0.48,0.61,0.55,0.42,0.33,0.5,0.29,0.58,0.29,0.48,0.42,0.42,0.33,0.42,0.33,0.48,0.48,0.29,0.55,0.5,0.6,0.33,0.55,0.44,0.29,0.5,0.56,0.48,0.25,0.55,0.5,0.58,0.61,0.55,0.33,0.58,0.48,0.56,0.55,0.48,0.88,0.29,0.33,0.55,0.5,0.33,0.55,0.5,0.5,0.5,0.55,0.58,0.88,0.55,0.83,0.29,0.33,0.58,0.55,0.5,0.55,0.6,0.61,0.79,0.67,0.55,0.88,0.55,0.4,0.48,0.55,0.33,0.58,0.5,0.58,0.55,0.5,0.5,0.84,0.25" style="fill:rgb(0,0,0);font-family:URWPalladioL-Roma;font-size:9.96px;stroke:none;">in a Teﬂon-lined stainless-steel autoclave, and they emit at 437 nm with a PLQY more than 28%.</text>
   <text y="368.036" x="76.226,82.211,87.893,92.6738,94.562,103.183,108.513,111.355,115.494,118.677,124.564,128.235,132.912,136.163,140.303,143.486,148.367,153.766,156.608,159.449,162.29,165.473,171.0506,172.893,178.224,181.5108,183.457,189.979" svgx:width="0.61,0.58,0.48,0.55,0.88,0.55,0.29,0.42,0.33,0.6,0.4,0.48,0.33,0.42,0.33,0.5,0.55,0.29,0.29,0.29,0.33,0.56,0.55,0.55,0.33,0.55,0.67,0.55" style="fill:rgb(0,0,0);font-family:URWPalladioL-Roma;font-size:9.96px;stroke:none;">The moisture-stability of Rb</text>
   <text y="369.901" x="195.379" svgx:width="0.5" style="fill:rgb(0,0,0);font-family:URWPalladioL-Roma;font-size:7.57px;stroke:none;">7</text>
   <text y="368.036" x="199.663,205.628" svgx:width="0.61,0.29" style="fill:rgb(0,0,0);font-family:URWPalladioL-Roma;font-size:9.96px;stroke:none;">Bi</text>
   <text y="369.901" x="208.469" svgx:width="0.5" style="fill:rgb(0,0,0);font-family:URWPalladioL-Roma;font-size:7.57px;stroke:none;">3</text>
   <text y="368.036" x="212.753,219.675" svgx:width="0.71,0.29" style="fill:rgb(0,0,0);font-family:URWPalladioL-Roma;font-size:9.96px;stroke:none;">Cl</text>
   <text y="369.901" x="222.516,226.302" svgx:width="0.5,0.5" style="fill:rgb(0,0,0);font-family:URWPalladioL-Roma;font-size:7.57px;stroke:none;">16</text>
   <text y="368.036" x="232.573,240.686,247.609,251.7922,253.73,261.873,266.754,270.9372,272.886,277.768,280.95,284.133,287.99,290.831,296.23,302.117,305.3,309.977,316.0526,317.924,321.107,326.58500000000004,328.43,331.271,336.953,341.288,344.969,349.645,354.527,358.667,363.343,369.4186,371.291,375.147,380.029,383.212,386.053,391.531,393.375,398.706,401.99280000000005,403.939,410.461,415.939,417.852,422.734,425.907,431.238,439.859,444.0422,445.99,450.872,456.554,462.6296,464.501,467.684,473.367,478.1478,480.035,483.286,489.251,492.093,499.015" svgx:width="0.83,0.71,0.42,0.55,0.83,0.5,0.42,0.55,0.5,0.33,0.33,0.4,0.29,0.55,0.6,0.33,0.48,0.61,0.55,0.33,0.55,0.55,0.29,0.58,0.44,0.4,0.48,0.5,0.42,0.48,0.61,0.55,0.4,0.5,0.33,0.29,0.55,0.55,0.55,0.33,0.55,0.67,0.55,0.55,0.5,0.33,0.55,0.88,0.42,0.55,0.5,0.58,0.61,0.55,0.33,0.58,0.48,0.55,0.33,0.61,0.29,0.71,0.29" style="fill:rgb(0,0,0);font-family:URWPalladioL-Roma;font-size:9.96px;stroke:none;">NCs was attributed to increased ratio of Rb atoms and the [BiCl</text>
   <text y="369.901" x="501.856" svgx:width="0.5" style="fill:rgb(0,0,0);font-family:URWPalladioL-Roma;font-size:7.57px;stroke:none;">6</text>
   <text y="368.036" x="506.14" svgx:width="0.33" style="fill:rgb(0,0,0);font-family:URWPalladioL-Roma;font-size:9.96px;stroke:none;">]</text>
   <text y="364.42" x="509.391" svgx:width="0.5" style="fill:rgb(0,0,0);font-family:URWPalladioL-Roma;font-size:7.57px;stroke:none;">3</text>
   <text y="364.42" x="513.177" svgx:width="0.67" style="fill:rgb(0,0,0);font-family:Pxsy;font-size:7.57px;stroke:none;">−</text>
   <text y="381.546" x="76.535,81.975,86.398,89.646,94.627,100.425,105.197,111.285,115.22,120.2,122.692,128.131,133.9078,136.42,139.668,145.466,150.2468,152.729,156.953,162.961,166.896,170.213,175.195,179.618,184.39,186.88,189.371,197.68,203.478,206.378,210.801,216.5778,219.09,222.407,227.847,231.782,240.579,245.351,251.4266,253.929,258.91,264.6868,267.199,270.098,275.897,281.336,285.092,290.631,295.613,301.411,304.31,308.6924,311.224,317.211,320.967,326.407,329.655,334.427,338.85,342.098,344.997,350.626,355.4068,357.889,363.976,366.875,374.706,381.769,384.6574,387.159,391.383,397.181,401.953,404.852,407.752" svgx:width="0.55,0.44,0.33,0.5,0.58,0.48,0.61,0.4,0.5,0.55,0.55,0.58,0.55,0.33,0.58,0.48,0.55,0.42,0.6,0.4,0.33,0.5,0.44,0.48,0.25,0.55,0.83,0.58,0.29,0.44,0.58,0.55,0.33,0.55,0.4,0.88,0.48,0.61,0.55,0.5,0.58,0.55,0.29,0.58,0.55,0.4,0.56,0.5,0.58,0.29,0.44,0.55,0.6,0.4,0.55,0.33,0.48,0.44,0.33,0.29,0.56,0.48,0.55,0.61,0.29,0.79,0.71,0.29,0.55,0.42,0.58,0.48,0.29,0.29,0.25" style="fill:rgb(0,0,0);font-family:URWPalladioL-Roma;font-size:9.96px;stroke:none;">octahedra on the surface, which formed an inorganic protective BiOCl shell.</text>
   <text y="401.033" x="76.535" svgx:width="0.52" style="fill:rgb(0,0,0);font-family:Pxsy;font-size:9.96px;stroke:none;">•</text>
   <text y="401.033" x="84.236,87.593,93.392,99.479,102.378,108.385" svgx:width="0.34,0.58,0.61,0.29,0.6,0.88" style="fill:rgb(0,0,0);font-family:URWPalladioL-Roma;font-size:9.96px;stroke:none;">Indium</text>
   <text y="420.52" x="97.795,105.569,111.385,116.841,120.098,125.914,130.7,134.684,137.145,142.701,148.157,153.613,159.6886,162.217,166.653,171.649,177.465,183.571,186.478,192.584,197.58,200.838,205.6188,208.132,211.46,216.915,220.899,223.361,226.268,231.055,236.051,242.1266,244.655,249.651,252.908,258.364,269.686,273.923,279.948,285.474,289.711,292.968,295.876,299.134,305.159,308.417,311.324,316.78,322.55679999999995,325.104,328.012,333.7888,336.326,339.583,345.399,350.1798,352.683,358.689,363.475,367.242,372.698,378.344,382.581,388.137,391.045,394.302,399.0828,401.587,410.41,415.406,418.664,423.45,427.397,430.305,435.301,438.209,442.3922,444.954,447.862,452.0452,454.597,457.504,463.32,469.426,472.333,478.359,487.182,489.672,493.198,496.565,502.3418,504.879,508.136,513.952" svgx:width="0.78,0.58,0.55,0.33,0.58,0.48,0.4,0.55,0.56,0.55,0.55,0.61,0.55,0.44,0.5,0.58,0.61,0.29,0.61,0.5,0.33,0.48,0.55,0.33,0.55,0.4,0.55,0.29,0.48,0.5,0.61,0.55,0.5,0.33,0.55,0.88,0.42,0.6,0.55,0.42,0.33,0.29,0.33,0.6,0.33,0.29,0.55,0.58,0.55,0.29,0.58,0.55,0.33,0.58,0.48,0.55,0.6,0.48,0.4,0.55,0.56,0.42,0.56,0.29,0.33,0.48,0.55,0.88,0.5,0.33,0.48,0.4,0.29,0.5,0.29,0.42,0.55,0.29,0.42,0.55,0.29,0.58,0.61,0.29,0.6,0.88,0.25,0.55,0.34,0.58,0.55,0.33,0.58,0.48" style="fill:rgb(0,0,0);font-family:URWPalladioL-Roma;font-size:9.96px;stroke:none;">Another good candidate for lead atomsubstitution in the perovskite materials is indium. In the</text>
   <text y="434.029" x="76.117,84.517,90.017,93.995,99.57260000000001,102.093" svgx:width="0.83,0.55,0.4,0.56,0.55,0.33" style="fill:rgb(0,0,0);font-family:URWPalladioL-Roma;font-size:9.96px;stroke:none;">work [</text>
   <text y="434.029" x="105.446,110.427" svgx:width="0.5,0.5" style="fill:rgb(8,117,183);font-family:URWPalladioL-Roma;font-size:9.96px;stroke:none;">34</text>
   <text y="434.029" x="115.409,118.763,121.253,123.779,128.759,131.313,137.175,142.775,148.929,152.726,158.226,161.509,167.371,172.196,176.175,185.068,190.104,192.9924,195.533,199.804,205.404,211.266,214.55,220.412,225.236,229.507,232.438,236.6212,239.206,244.706,247.9928,250.558,255.594,260.418,264.216,269.715,273.069,279.223,282.154,291.048,295.872,301.734,306.005,308.936,314.435,320.297,325.334,328.2224,330.762,333.693,339.555,345.71,348.641,354.714,363.608,366.962,372.532,377.568,381.839,386.663,392.7386,395.315,402.456" svgx:width="0.33,0.25,0.55,0.5,0.55,0.58,0.56,0.61,0.4,0.55,0.33,0.58,0.48,0.4,0.88,0.5,0.29,0.55,0.42,0.56,0.58,0.33,0.58,0.48,0.42,0.29,0.42,0.55,0.55,0.33,0.55,0.5,0.48,0.4,0.55,0.33,0.61,0.29,0.88,0.48,0.58,0.42,0.29,0.55,0.58,0.5,0.29,0.55,0.29,0.58,0.61,0.29,0.6,0.88,0.33,0.55,0.5,0.42,0.48,0.61,0.55,0.71,0.42" style="fill:rgb(0,0,0);font-family:URWPalladioL-Roma;font-size:9.96px;stroke:none;">], a hydrothermal synthesis of zero-dimensional indium-based Cs</text>
   <text y="435.894" x="406.727" svgx:width="0.5" style="fill:rgb(0,0,0);font-family:URWPalladioL-Roma;font-size:7.57px;stroke:none;">2</text>
   <text y="434.029" x="411.011,414.405,420.267,426.421" svgx:width="0.34,0.58,0.61,0.4" style="fill:rgb(0,0,0);font-family:URWPalladioL-Roma;font-size:9.96px;stroke:none;">InBr</text>
   <text y="435.894" x="430.4" svgx:width="0.5" style="fill:rgb(0,0,0);font-family:URWPalladioL-Roma;font-size:7.57px;stroke:none;">5</text>
   <text y="434.029" x="434.684" svgx:width="0.25" style="fill:rgb(0,0,0);font-family:Pxsy;font-size:9.96px;stroke:none;">·</text>
   <text y="434.029" x="437.174" svgx:width="0.83" style="fill:rgb(0,0,0);font-family:URWPalladioL-Roma;font-size:9.96px;stroke:none;">H</text>
   <text y="435.894" x="445.554" svgx:width="0.5" style="fill:rgb(0,0,0);font-family:URWPalladioL-Roma;font-size:7.57px;stroke:none;">2</text>
   <text y="434.029" x="449.838,457.70640000000003,460.253,464.523,467.454,473.316,478.916,481.847,486.6278,489.17,493.642,497.62,503.221,507.491,510.775,515.811" svgx:width="0.79,0.55,0.42,0.29,0.58,0.56,0.29,0.48,0.55,0.44,0.4,0.56,0.42,0.33,0.5,0.29" style="fill:rgb(0,0,0);font-family:URWPalladioL-Roma;font-size:9.96px;stroke:none;">O single crystal</text>
   <text y="447.538" x="76.117,84.26,87.101,90.284,96.0608,98.407,103.083,111.704,114.546,118.685,122.825,125.666,130.997,136.77380000000002,139.13,141.971,147.7478,150.094,153.775,158.451,164.5266,166.858,170.997,176.865,181.542,185.877,189.059,192.916,197.798,200.6864,203.08,206.76,211.437,216.865,219.707,225.037,230.81380000000001,233.161,241.303,244.144,247.327,253.1038,255.45,261.347,267.313,274.987,281.66020000000003,283.949,289.28,292.5668,294.972,299.854,304.736,315.378,323.52,328.402,332.5852,334.992,338.663,343.34,349.208,354.538,358.395,361.578,366.254,372.22,374.71000000000004,378.136,384.121,389.804,394.5848,396.921,401.061,404.244,407.924,413.255,418.937,424.51460000000003,426.807,432.704,438.7796,441.11,445.787,454.408,457.249,461.388,465.528,468.369,473.7,479.47679999999997,481.833,484.674,488.8572,491.254,497.22,503.107,507.8878,510.225,513.407" svgx:width="0.83,0.29,0.33,0.58,0.55,0.48,0.88,0.29,0.42,0.42,0.29,0.55,0.58,0.55,0.29,0.58,0.55,0.4,0.48,0.61,0.55,0.42,0.6,0.48,0.44,0.33,0.4,0.5,0.29,0.55,0.4,0.48,0.56,0.29,0.55,0.58,0.55,0.83,0.29,0.33,0.58,0.55,0.6,0.61,0.79,0.67,0.55,0.55,0.33,0.55,0.5,0.5,0.84,0.83,0.5,0.42,0.55,0.4,0.48,0.6,0.55,0.4,0.33,0.48,0.61,0.25,0.55,0.61,0.58,0.48,0.55,0.42,0.33,0.4,0.55,0.58,0.56,0.55,0.6,0.61,0.55,0.48,0.88,0.29,0.42,0.42,0.29,0.55,0.58,0.55,0.29,0.42,0.55,0.61,0.6,0.48,0.55,0.33,0.55" style="fill:rgb(0,0,0);font-family:URWPalladioL-Roma;font-size:9.96px;stroke:none;">with emission in red spectral region with PLQY of 33%was reported. The strong PL emission is due to</text>
   <text y="461.048" x="76.535,80.679,85.36,88.204,91.459,94.713,97.899,101.76,106.647,112.52,118.394,121.238,126.926,132.5036,134.862,139.544,144.587,148.926,151.77,154.956,160.292,165.98,170.124,172.614,175.07,183.22,188.909,191.753,196.092,201.86880000000002,204.282,209.169,212.853,217.6338,220.037,223.223,228.911,233.6918,236.094,239.769,244.45,248.594,254.487,257.331,260.61780000000005,263.02,268.356,271.6428,274.112,278.256,281.442,285.224,291.118,295.457,298.643,304.537,308.397,313.284,316.1724,318.63,324.601,329.283,332.537,337.873,341.734,350.364,355.25,358.436,361.28,366.617,372.3938,374.807,377.651,383.4278,385.841,390.727,396.50379999999996,398.917,403.599,408.642,412.981,415.825,419.011,423.693,429.7686,432.166,436.31,439.496,444.383,447.569,452.25,454.74,458.212,464.203,469.891,474.6718,477.075,480.261,484.121,489.008,494.696,498.84,501.684,504.87,507.714,513.05" svgx:width="0.42,0.48,0.29,0.33,0.33,0.33,0.4,0.5,0.6,0.6,0.29,0.58,0.56,0.55,0.48,0.52,0.44,0.29,0.33,0.55,0.58,0.42,0.25,0.55,0.83,0.58,0.29,0.44,0.58,0.55,0.5,0.4,0.48,0.55,0.33,0.58,0.48,0.55,0.4,0.48,0.42,0.6,0.29,0.33,0.55,0.55,0.33,0.55,0.42,0.33,0.4,0.6,0.44,0.33,0.6,0.4,0.5,0.29,0.55,0.61,0.48,0.33,0.55,0.4,0.88,0.5,0.33,0.29,0.55,0.58,0.55,0.29,0.58,0.55,0.5,0.58,0.55,0.48,0.52,0.44,0.29,0.33,0.48,0.61,0.55,0.42,0.33,0.5,0.33,0.48,0.25,0.55,0.61,0.58,0.48,0.55,0.33,0.4,0.5,0.58,0.42,0.29,0.33,0.29,0.55,0.58" style="fill:rgb(0,0,0);font-family:URWPalladioL-Roma;font-size:9.96px;stroke:none;">self-trapping excitons, which are the result of structural deformation in an excited state. The transition</text>
   <text y="474.557" x="76.535,82.155,87.022,90.335,98.81,103.677,108.545,114.3218,117.121,123.036,128.686,134.895,138.908,143.989,147.302,152.17,158.2456,161.031,168.236" svgx:width="0.55,0.48,0.33,0.83,0.48,0.48,0.58,0.55,0.58,0.56,0.61,0.4,0.5,0.33,0.48,0.61,0.55,0.71,0.42" style="fill:rgb(0,0,0);font-family:URWPalladioL-Roma;font-size:9.96px;stroke:none;">between hydrated Cs</text>
   <text y="476.422" x="172.547" svgx:width="0.5" style="fill:rgb(0,0,0);font-family:URWPalladioL-Roma;font-size:7.57px;stroke:none;">2</text>
   <text y="474.557" x="176.831,180.256,186.17,192.379" svgx:width="0.34,0.58,0.61,0.4" style="fill:rgb(0,0,0);font-family:URWPalladioL-Roma;font-size:9.96px;stroke:none;">InBr</text>
   <text y="476.422" x="196.392" svgx:width="0.5" style="fill:rgb(0,0,0);font-family:URWPalladioL-Roma;font-size:7.57px;stroke:none;">5</text>
   <text y="474.557" x="200.676" svgx:width="0.25" style="fill:rgb(0,0,0);font-family:Pxsy;font-size:9.96px;stroke:none;">·</text>
   <text y="474.557" x="203.167" svgx:width="0.83" style="fill:rgb(0,0,0);font-family:URWPalladioL-Roma;font-size:9.96px;stroke:none;">H</text>
   <text y="476.422" x="211.621" svgx:width="0.5" style="fill:rgb(0,0,0);font-family:URWPalladioL-Roma;font-size:7.57px;stroke:none;">2</text>
   <text y="474.557" x="215.905,223.7734,226.555,231.636,237.55,243.62560000000002,246.411,249.724,255.638,260.41880000000003,263.168,269.377,274.244,280.158,285.808,292.017,296.031,301.112,304.425,309.292,315.3676,318.164,321.548,327.086,331.1,339.8648,342.735,345.692,349.8752,352.663,357.744,362.256,366.768,372.316,381.289,387.396,392.477,398.392,401.349,406.216,412.2916,415.077,420.697,426.2746,429.009,433.98900000000003,436.753,441.061,449.536,452.493,455.806,460.318,466.232,471.313,476.933,479.89,484.6708,487.409,493.618,499.167,505.294,510.914,513.871" svgx:width="0.79,0.55,0.5,0.58,0.61,0.55,0.33,0.58,0.48,0.55,0.61,0.48,0.58,0.56,0.61,0.4,0.5,0.33,0.48,0.61,0.55,0.33,0.55,0.4,0.88,0.55,0.29,0.42,0.55,0.5,0.44,0.44,0.55,0.88,0.6,0.5,0.58,0.29,0.48,0.61,0.55,0.55,0.56,0.55,0.5,0.55,0.42,0.83,0.29,0.33,0.44,0.58,0.5,0.55,0.29,0.48,0.55,0.61,0.55,0.6,0.55,0.29,0.48" style="fill:rgb(0,0,0);font-family:URWPalladioL-Roma;font-size:9.96px;stroke:none;">O and the dehydrated form is accompanied by a switchable double</text>
   <text y="488.067" x="76.535,81.307,90.104,93.003,97.227,101.451,104.351,109.79,115.588,118.07799999999999,120.57,128.879,134.677,137.576,141.999,147.7758,150.288,155.269,158.169,161.068,166.507,174.816,178.9992,181.531,187.618,192.39,195.638,200.41,204.833,208.081,210.98,216.778,222.35559999999998,224.808,233.117,238.098,241.346,246.118,250.102,252.544,261.341,266.781,269.68,274.452,278.875,284.883,287.782,292.554,296.7372,299.269,308.066,313.505,316.753,319.652,325.092,330.86879999999996,333.381,336.28,342.05679999999995,344.569,349.55,352.449,356.433,358.875,364.315,368.299,370.741,376.18,379.936,385.475,390.457,396.255,399.154,403.5364,406.068,410.292,415.732,418.631,424.26,429.032,434.83,438.078,442.2612,444.793,448.11,453.649,456.548,462.088,468.095,471.851" svgx:width="0.48,0.88,0.29,0.42,0.42,0.29,0.55,0.58,0.25,0.55,0.83,0.58,0.29,0.44,0.58,0.55,0.5,0.29,0.29,0.55,0.83,0.42,0.55,0.61,0.48,0.33,0.48,0.44,0.33,0.29,0.58,0.56,0.55,0.83,0.5,0.33,0.48,0.4,0.55,0.88,0.55,0.29,0.48,0.44,0.6,0.29,0.48,0.42,0.55,0.88,0.55,0.33,0.29,0.55,0.58,0.55,0.29,0.58,0.55,0.5,0.29,0.4,0.55,0.55,0.4,0.55,0.55,0.4,0.56,0.5,0.58,0.29,0.44,0.55,0.42,0.55,0.29,0.56,0.48,0.58,0.33,0.42,0.55,0.33,0.56,0.29,0.56,0.6,0.4,0.48" style="fill:rgb(0,0,0);font-family:URWPalladioL-Roma;font-size:9.96px;stroke:none;">emission, which allows detecting water molecules motion in air or organic solvents (Figure</text>
   <text y="488.067" x="479.114" svgx:width="0.5" style="fill:rgb(8,117,183);font-family:URWPalladioL-Roma;font-size:9.96px;stroke:none;">2</text>
   <text y="488.067" x="484.095,488.518,491.836" svgx:width="0.44,0.33,0.25" style="fill:rgb(0,0,0);font-family:URWPalladioL-Roma;font-size:9.96px;stroke:none;">c).</text>
   <text y="507.554" x="76.535" svgx:width="0.52" style="fill:rgb(0,0,0);font-family:Pxsy;font-size:9.96px;stroke:none;">•</text>
   <text y="507.554" x="84.236,92.067,95.314,101.113,105.885,109.869,112.311,117.083,119.982,124.754,133.551,138.323,144.121,147.369" svgx:width="0.79,0.33,0.58,0.48,0.4,0.55,0.48,0.29,0.48,0.88,0.48,0.58,0.33,0.42" style="fill:rgb(0,0,0);font-family:URWPalladioL-Roma;font-size:9.96px;stroke:none;">Other elements</text>
   <text y="527.041" x="97.795,106.25,111.117,114.948,119.816,122.773,128.687,131.17700000000002,134.388,142.863,147.6438,150.748,156.957,159.914,164.223,168.735,174.862,179.171,183.3542,186.508,190.817,196.365,205.338,210.1188,213.223,219.138,224.686,230.6,233.913,239.563,245.67,248.627,253.139,258.22,261.1084,264.205,268.717,274.632,279.499,288.472,291.429,295.941,301.022,303.9104,306.997,311.865,314.822,319.689,328.662,333.53,339.444,342.757,346.9402,350.083,353.396,359.31,364.391,367.67780000000005,370.732,375.813,379.644,384.4248,387.54,393.667,397.976,402.844,408.9196,412.07,415.028,420.8048,423.97,426.927,431.795,436.876,443.084,446.468,449.852,453.683,458.551,463.3318,466.436,472.544,477.411,481.252,486.801,492.542,496.851,502.501,505.458,508.771,513.638,517.947" svgx:width="0.83,0.48,0.4,0.48,0.29,0.58,0.25,0.55,0.83,0.48,0.55,0.61,0.29,0.42,0.44,0.6,0.42,0.42,0.55,0.42,0.55,0.88,0.48,0.55,0.58,0.55,0.58,0.33,0.56,0.6,0.29,0.44,0.5,0.29,0.55,0.44,0.58,0.48,0.88,0.29,0.44,0.5,0.29,0.55,0.48,0.29,0.48,0.88,0.48,0.58,0.33,0.42,0.55,0.33,0.58,0.5,0.33,0.55,0.5,0.4,0.48,0.55,0.6,0.42,0.48,0.61,0.55,0.29,0.58,0.55,0.29,0.48,0.5,0.61,0.33,0.33,0.4,0.48,0.48,0.55,0.6,0.48,0.4,0.55,0.56,0.42,0.56,0.29,0.33,0.48,0.42,0.25" style="fill:rgb(0,0,0);font-family:URWPalladioL-Roma;font-size:9.96px;stroke:none;">Herein, we discuss some nontypical chemical elements that are used in lead-free perovskites.</text>
   <text y="540.55" x="76.226,82.455,88.369,93.1498,96.682,102.82,108.29799999999999,111.874,116.955,120.267,125.816,134.5808,138.234,146.709,151.79,155.9732,159.533,163.842,169.969,175.589,179.897,183.21,186.167,189.48,195.607,198.92,203.788,209.86360000000002,213.441,219.061,224.6386,228.146,234.924,240.40200000000002,243.988,246.945,252.7218,256.304,261.284,264.82,269.128,272.086,281.058,287.166,290.123,294.9038,298.435,304.349,309.898,313.21,316.594,319.551,325.466,327.844,332.711,337.223,340.536,343.493,349.041,354.8178,358.39,362.699,368.349,374.263,377.576,383.49,388.357,392.666,395.623,399.8062,403.377,408.925,412.21180000000004,415.743,422.948,427.257,434.035,439.654" svgx:width="0.61,0.58,0.48,0.55,0.6,0.55,0.55,0.5,0.33,0.55,0.88,0.55,0.83,0.5,0.42,0.55,0.42,0.6,0.55,0.42,0.33,0.29,0.33,0.6,0.33,0.48,0.61,0.55,0.55,0.56,0.55,0.67,0.55,0.55,0.29,0.58,0.55,0.5,0.55,0.42,0.29,0.88,0.6,0.29,0.48,0.55,0.58,0.55,0.33,0.33,0.29,0.58,0.23,0.48,0.44,0.33,0.29,0.55,0.58,0.55,0.42,0.56,0.58,0.33,0.58,0.48,0.42,0.29,0.42,0.55,0.55,0.33,0.55,0.71,0.42,0.67,0.55,0.34" style="fill:rgb(0,0,0);font-family:URWPalladioL-Roma;font-size:9.96px;stroke:none;">The Pb atom was substituted by Yb in a simple hot-injection synthesis of CsYbI</text>
   <text y="542.415" x="443.082" svgx:width="0.5" style="fill:rgb(0,0,0);font-family:URWPalladioL-Roma;font-size:7.57px;stroke:none;">3</text>
   <text y="540.55" x="450.807,459.251,466.456,470.6392,474.21,482.685,485.642,488.955,494.73179999999996,498.303,504.218,507.175,512.825" svgx:width="0.83,0.71,0.42,0.55,0.83,0.29,0.33,0.58,0.55,0.58,0.29,0.56,0.58" style="fill:rgb(0,0,0);font-family:URWPalladioL-Roma;font-size:9.96px;stroke:none;">NCs with high</text>
   <text y="554.059" x="76.535,81.047,85.061,90.711,95.019,98.332,103.413,106.37,109.327,112.284,118.199,121.156,124.468,130.0456,133.126,138.207,144.121,150.19660000000002,153.348,159.263,162.22,167.87,173.6468,176.792,182.919,188.834,191.791,195.175,200.723,204.737,213.5018,216.728,221.037,223.994,229.075,233.8558,236.95,243.159,246.116,250.425,253.737,257.751,260.708,266.328,272.455,275.768,278.725,284.274,290.188,292.678,295.879,299.71,304.577,310.684,316.233,320.247,323.559,328.427,334.50260000000003,337.654,340.611,346.38779999999997,349.533,358.008,363.556,367.57,373.1476,376.238" svgx:width="0.44,0.4,0.56,0.42,0.33,0.5,0.29,0.29,0.29,0.58,0.29,0.33,0.56,0.55,0.5,0.58,0.61,0.55,0.58,0.29,0.56,0.58,0.55,0.6,0.58,0.29,0.33,0.55,0.4,0.88,0.55,0.42,0.29,0.5,0.48,0.55,0.61,0.29,0.42,0.33,0.4,0.29,0.55,0.6,0.33,0.29,0.55,0.58,0.25,0.55,0.4,0.48,0.6,0.55,0.4,0.33,0.48,0.61,0.55,0.29,0.58,0.55,0.83,0.55,0.4,0.56,0.55,0.33" style="fill:rgb(0,0,0);font-family:URWPalladioL-Roma;font-size:9.96px;stroke:none;">crystallinity and high uniform size distribution, reported in work [</text>
   <text y="554.059" x="379.618,384.599" svgx:width="0.5,0.5" style="fill:rgb(8,117,183);font-family:URWPalladioL-Roma;font-size:9.96px;stroke:none;">55</text>
   <text y="554.059" x="389.581,392.965,395.455,400.556,406.765,410.779,413.736,418.603,424.782,429.334,431.824,435.015,441.224,447.351,451.365,454.322,460.236,465.8136,468.894,472.207,478.121,482.9018,486.007,491.657,495.488,501.036,509.511,512.824" svgx:width="0.33,0.25,0.55,0.61,0.4,0.29,0.48,0.61,0.56,0.25,0.55,0.61,0.6,0.4,0.29,0.58,0.56,0.55,0.33,0.58,0.48,0.55,0.56,0.4,0.55,0.83,0.33,0.58" style="fill:rgb(0,0,0);font-family:URWPalladioL-Roma;font-size:9.96px;stroke:none;">]. Brieﬂy, during the growth</text>
   <text y="567.569" x="76.535,82.083,85.3698,88.323,94.237,99.318,105.232,110.78,115.292,119.306,124.956,129.265,132.578,137.659,140.616,144.924,147.41400000000002,150.422,157.2,162.678,165.675,169.059,172.483,175.908,179.1948,182.147,190.622,195.703,199.8862,202.877,205.834,211.749,215.061,218.892,224.441,230.65,236.777,241.289,246.157,252.23260000000002,255.221,258.178,264.092,267.405,272.883,275.809,279.122,285.036,289.8168,292.769,297.281,303.409,309.028,311.985,316.36740000000003,319.352,327.258,333.467" svgx:width="0.55,0.33,0.55,0.58,0.5,0.58,0.55,0.44,0.4,0.56,0.42,0.33,0.5,0.29,0.42,0.25,0.55,0.67,0.55,0.55,0.33,0.34,0.34,0.33,0.55,0.83,0.5,0.42,0.55,0.29,0.58,0.33,0.4,0.55,0.61,0.6,0.44,0.48,0.61,0.55,0.29,0.58,0.33,0.55,0.55,0.33,0.58,0.48,0.55,0.44,0.6,0.55,0.29,0.44,0.55,0.78,0.61,0.67" style="fill:rgb(0,0,0);font-family:URWPalladioL-Roma;font-size:9.96px;stroke:none;">of nanocrystals, Yb (II) was introduced into the cubic ABX</text>
   <text y="569.434" x="340.246" svgx:width="0.5" style="fill:rgb(0,0,0);font-family:URWPalladioL-Roma;font-size:7.57px;stroke:none;">3</text>
   <text y="567.569" x="347.389,353.496,358.364,362.195,367.743,373.485,377.793,383.443,386.4,389.713,394.4938,397.446,400.403,405.484,408.797,412.11,415.067,419.579,424.446,426.93600000000004,431.57,437.799,443.713,448.4938,451.446,455.755,461.405,467.319,470.632,476.546,481.414,484.726,487.684,492.06640000000004,495.051,498.882,504.43,510.558,513.871" svgx:width="0.6,0.48,0.4,0.55,0.56,0.42,0.56,0.29,0.33,0.48,0.55,0.29,0.5,0.33,0.33,0.29,0.44,0.48,0.25,0.55,0.61,0.58,0.48,0.55,0.42,0.56,0.58,0.33,0.58,0.48,0.33,0.29,0.44,0.55,0.4,0.55,0.6,0.33,0.48" style="fill:rgb(0,0,0);font-family:URWPalladioL-Roma;font-size:9.96px;stroke:none;">perovskite lattice. The synthetic route</text>
   <text y="581.078" x="76.535,79.919,85.467,89.451,92.855,96.239,101.787,105.801,114.774,119.855,123.168,126.125,131.673,137.4498,140.951,146.499,149.7858,153.257,156.57,162.484,167.2648,170.725,177.93,182.239,189.017,194.636" svgx:width="0.33,0.55,0.4,0.55,0.33,0.55,0.4,0.88,0.5,0.33,0.29,0.55,0.58,0.55,0.55,0.33,0.55,0.33,0.58,0.48,0.55,0.71,0.42,0.67,0.55,0.34" style="fill:rgb(0,0,0);font-family:URWPalladioL-Roma;font-size:9.96px;stroke:none;">for formation of the CsYbI</text>
   <text y="582.943" x="198.057" svgx:width="0.5" style="fill:rgb(0,0,0);font-family:URWPalladioL-Roma;font-size:7.57px;stroke:none;">3</text>
   <text y="581.078" x="205.711,214.156,221.36,225.5432,229.043,232.0,236.1832,239.672,243.981,246.938,255.911,258.868,261.825,266.906,270.89,274.293,277.606,283.084,286.528,289.841,295.755,300.836,304.12280000000004,307.513,313.061,316.3478,319.819,322.776,327.643,332.724,338.7996,342.307,348.221,353.302,356.259,359.216,365.425,370.2058,373.656,379.763,384.631,388.472,394.02,399.762,404.07,409.72,412.678,415.99,420.858,425.166,427.656,431.294,436.914,443.041,446.3278,449.718,458.193,461.15,464.462,470.23879999999997,473.75,480.528,486.148" svgx:width="0.83,0.71,0.42,0.55,0.29,0.42,0.55,0.42,0.29,0.88,0.29,0.29,0.5,0.4,0.55,0.33,0.55,0.55,0.33,0.58,0.5,0.33,0.55,0.55,0.33,0.55,0.29,0.48,0.5,0.61,0.55,0.58,0.5,0.29,0.29,0.61,0.48,0.55,0.6,0.48,0.4,0.55,0.56,0.42,0.56,0.29,0.33,0.48,0.42,0.25,0.55,0.55,0.6,0.33,0.55,0.83,0.29,0.33,0.58,0.55,0.67,0.55,0.34" style="fill:rgb(0,0,0);font-family:URWPalladioL-Roma;font-size:9.96px;stroke:none;">NCs is similar to that of lead halide perovskites, but with YbI</text>
   <text y="582.943" x="489.573" svgx:width="0.5" style="fill:rgb(0,0,0);font-family:URWPalladioL-Roma;font-size:7.57px;stroke:none;">2</text>
   <text y="581.078" x="497.228,503.356,507.664,512.532" svgx:width="0.6,0.42,0.48,0.61" style="fill:rgb(0,0,0);font-family:URWPalladioL-Roma;font-size:9.96px;stroke:none;">used</text>
   <text y="594.588" x="76.535,81.616,85.7992,89.898,94.878,98.942,107.915,112.782,116.095,121.176,124.0644,128.106,134.021,139.102,142.059,145.016,151.225,156.0058,160.055,166.163,170.004,174.871,179.383,185.511,189.525,193.833,199.382,202.654,205.144,213.12,219.35,225.264,230.0448,234.105,238.413,244.063,249.977,253.29,259.204,264.072,268.381,271.338,276.419,281.286,287.3616,291.458,299.903,307.107,311.2902,315.389,321.598,326.466,335.439,340.987,346.901,351.21,354.523,358.536,363.617,366.93,371.798,377.8736,381.97,386.278,389.591,393.432,398.981,404.895,410.4726,414.508,419.376,424.619,429.131,432.088,435.401,440.482,443.795,446.752,452.3,458.214,461.598,464.555,470.469,476.678,481.546,487.653,492.521,498.435,504.644,509.511,515.425" svgx:width="0.5,0.42,0.55,0.5,0.55,0.88,0.48,0.33,0.5,0.29,0.55,0.58,0.5,0.29,0.29,0.61,0.48,0.55,0.6,0.4,0.48,0.44,0.6,0.4,0.42,0.55,0.4,0.25,0.55,0.61,0.58,0.48,0.55,0.42,0.56,0.58,0.33,0.58,0.48,0.42,0.29,0.5,0.48,0.61,0.55,0.83,0.71,0.42,0.55,0.61,0.48,0.88,0.55,0.58,0.42,0.33,0.4,0.5,0.33,0.48,0.61,0.55,0.42,0.33,0.4,0.55,0.58,0.56,0.55,0.48,0.52,0.44,0.29,0.33,0.5,0.33,0.29,0.55,0.58,0.33,0.29,0.58,0.61,0.48,0.6,0.48,0.58,0.61,0.48,0.58,0.33" style="fill:rgb(0,0,0);font-family:URWPalladioL-Roma;font-size:9.96px;stroke:none;">as a metal halide precursor. The synthesized NCs demonstrated strong excitation-independent</text>
   <text y="608.097" x="76.535,81.398,90.362,93.316,97.62,101.925,104.879,110.422,116.19879999999999,118.828,123.904,129.812,135.88760000000002,138.502,144.411,147.365,153.009,158.7858,161.415,167.547,173.749,181.729,188.40220000000002,190.998,196.54,199.8268,202.408,207.484,212.56,221.088,223.578,227.128,230.549,236.32580000000002,238.955,242.265,248.173,251.127,255.3102,257.919,266.385,271.928,275.938,281.5156,284.08" svgx:width="0.48,0.88,0.29,0.42,0.42,0.29,0.55,0.58,0.55,0.5,0.58,0.61,0.55,0.58,0.29,0.56,0.58,0.55,0.6,0.61,0.79,0.67,0.55,0.55,0.33,0.55,0.5,0.5,0.84,0.25,0.55,0.34,0.58,0.55,0.33,0.58,0.29,0.42,0.55,0.83,0.55,0.4,0.56,0.55,0.33" style="fill:rgb(0,0,0);font-family:URWPalladioL-Roma;font-size:9.96px;stroke:none;">emission and high PLQY of 58%. In this work [</text>
   <text y="608.097" x="287.46,292.441" svgx:width="0.5,0.5" style="fill:rgb(8,117,183);font-family:URWPalladioL-Roma;font-size:9.96px;stroke:none;">54</text>
   <text y="608.097" x="297.422,300.803,303.293,305.838,310.81800000000004,313.401,317.706,323.35,329.258,332.568,338.476,343.339,347.643,350.598,354.7812,357.399,362.942,366.22880000000004,368.82,373.896,376.85,379.805,383.185,386.139,392.048,397.591,401.418,407.062,412.138,418.047,421.001,425.3834,428.006,435.203" svgx:width="0.33,0.25,0.55,0.5,0.55,0.42,0.56,0.58,0.33,0.58,0.48,0.42,0.29,0.42,0.55,0.55,0.33,0.55,0.5,0.29,0.29,0.33,0.29,0.58,0.55,0.4,0.56,0.5,0.58,0.29,0.44,0.55,0.71,0.42" style="fill:rgb(0,0,0);font-family:URWPalladioL-Roma;font-size:9.96px;stroke:none;">], a synthesis of all-inorganic Cs</text>
   <text y="609.962" x="439.506" svgx:width="0.5" style="fill:rgb(0,0,0);font-family:URWPalladioL-Roma;font-size:7.57px;stroke:none;">3</text>
   <text y="608.097" x="443.79,450.988" svgx:width="0.71,0.6" style="fill:rgb(0,0,0);font-family:URWPalladioL-Roma;font-size:9.96px;stroke:none;">Cu</text>
   <text y="609.962" x="457.109" svgx:width="0.5" style="fill:rgb(0,0,0);font-family:URWPalladioL-Roma;font-size:7.57px;stroke:none;">2</text>
   <text y="608.097" x="461.393" svgx:width="0.34" style="fill:rgb(0,0,0);font-family:URWPalladioL-Roma;font-size:9.96px;stroke:none;">I</text>
   <text y="609.962" x="464.814" svgx:width="0.5" style="fill:rgb(0,0,0);font-family:URWPalladioL-Roma;font-size:7.57px;stroke:none;">5</text>
   <text y="608.097" x="471.592,477.693,482.556,486.383,491.926,497.662,501.966,507.611,510.565,513.875" svgx:width="0.6,0.48,0.4,0.55,0.56,0.42,0.56,0.29,0.33,0.48" style="fill:rgb(0,0,0);font-family:URWPalladioL-Roma;font-size:9.96px;stroke:none;">perovskite</text>
   <text y="621.606" x="76.535,81.047,85.061,90.711,95.019,98.332,103.413,106.37,109.327,112.284,118.199,122.9798,125.952,132.1,135.057,143.8218,146.916,152.657,155.615,160.595,163.581,168.56099999999998,171.548,175.857,181.964,184.921,190.836,194.219,198.731,204.28,209.361,212.673,215.63,221.545,227.12259999999998,230.081,239.054,243.921,247.234,253.148,258.696,264.77160000000003,267.791,276.266,281.347,285.5302,288.542,292.373,297.24,303.348,308.896,312.91,316.223,321.09,327.299,329.789,334.514,340.743,346.657,351.4378,354.411,361.616" svgx:width="0.44,0.4,0.56,0.42,0.33,0.5,0.29,0.29,0.29,0.58,0.48,0.55,0.61,0.29,0.88,0.55,0.56,0.29,0.5,0.55,0.5,0.55,0.42,0.6,0.29,0.58,0.33,0.44,0.55,0.5,0.33,0.29,0.58,0.56,0.55,0.88,0.48,0.33,0.58,0.55,0.61,0.55,0.83,0.5,0.42,0.55,0.4,0.48,0.6,0.55,0.4,0.33,0.48,0.61,0.25,0.55,0.61,0.58,0.48,0.55,0.71,0.42" style="fill:rgb(0,0,0);font-family:URWPalladioL-Roma;font-size:9.96px;stroke:none;">crystalline ﬁlm via a spin-coating method was reported. The Cs</text>
   <text y="623.471" x="365.926" svgx:width="0.5" style="fill:rgb(0,0,0);font-family:URWPalladioL-Roma;font-size:7.57px;stroke:none;">3</text>
   <text y="621.606" x="370.21,377.415" svgx:width="0.71,0.6" style="fill:rgb(0,0,0);font-family:URWPalladioL-Roma;font-size:9.96px;stroke:none;">Cu</text>
   <text y="623.471" x="383.542" svgx:width="0.5" style="fill:rgb(0,0,0);font-family:URWPalladioL-Roma;font-size:7.57px;stroke:none;">2</text>
   <text y="621.606" x="387.826" svgx:width="0.34" style="fill:rgb(0,0,0);font-family:URWPalladioL-Roma;font-size:9.96px;stroke:none;">I</text>
   <text y="623.471" x="391.25" svgx:width="0.5" style="fill:rgb(0,0,0);font-family:URWPalladioL-Roma;font-size:7.57px;stroke:none;">5</text>
   <text y="621.606" x="398.42,401.733,407.647,410.604,416.38079999999997,419.404,425.552,428.509,437.2738,440.368,448.843,453.924,458.1072,461.119,464.502,470.051,474.065,483.038,487.905,493.9806,497.0,500.384,504.215,509.763" svgx:width="0.33,0.58,0.29,0.58,0.55,0.61,0.29,0.88,0.55,0.83,0.5,0.42,0.55,0.33,0.55,0.4,0.88,0.48,0.61,0.55,0.33,0.4,0.55,0.88" style="fill:rgb(0,0,0);font-family:URWPalladioL-Roma;font-size:9.96px;stroke:none;">thin ﬁlm was formed from</text>
   <text y="635.116" x="76.535,83.697,87.981,91.36739999999999,93.88,98.931,104.811,110.8866,113.478,120.641,126.732,130.1184,132.632,138.703,142.522,147.361,151.846,157.938,161.928,166.211,171.727,175.717,179.9002,182.496,186.779,191.618,197.275,203.367,208.206,214.085,217.378,220.318,225.369,228.309,231.248,236.82559999999998,239.36,244.411,250.584,256.756,261.595,267.67060000000004,270.263,273.202,279.082,282.375,287.853,290.386,295.36600000000004,297.932,306.852,309.792,315.005,319.844,325.9196,328.511,332.794,338.31,341.25,346.957,351.796,357.676,360.9628,363.464,368.98,372.26680000000005,374.839,381.012,383.951,392.871,397.71,401.004,406.883,412.5,415.3884,417.935,422.218,428.309,431.249,434.613,440.129,445.342,448.281,454.454,459.2348,461.798,465.162,472.981,482.537,487.841,495.781,499.06780000000003,501.64,506.691,512.571" svgx:width="0.71,0.42,0.34,0.55,0.5,0.58,0.61,0.55,0.71,0.6,0.34,0.55,0.6,0.4,0.48,0.44,0.6,0.4,0.42,0.55,0.4,0.42,0.55,0.42,0.48,0.56,0.6,0.48,0.58,0.33,0.29,0.5,0.29,0.29,0.56,0.55,0.5,0.61,0.61,0.48,0.61,0.55,0.29,0.58,0.33,0.55,0.55,0.5,0.55,0.88,0.29,0.52,0.48,0.61,0.55,0.42,0.55,0.29,0.56,0.48,0.58,0.33,0.55,0.55,0.33,0.55,0.61,0.29,0.88,0.48,0.33,0.58,0.56,0.29,0.55,0.42,0.6,0.29,0.33,0.55,0.52,0.29,0.61,0.48,0.55,0.33,0.77,0.95,0.52,0.79,0.33,0.55,0.5,0.58,0.61" style="fill:rgb(0,0,0);font-family:URWPalladioL-Roma;font-size:9.96px;stroke:none;">CsI and CuI precursors sequentially added into a mixed solvent of dimethyl sulfoxide (DMSO) and</text>
   <text y="648.625" x="76.535,82.537,85.395,94.069,98.775,101.977,107.694,113.156,116.014,119.285,124.649,128.529,137.203,142.114,150.788,153.647,159.648,164.4288,166.839,170.11,177.713,187.006,192.467,195.739,198.229,200.68,206.701,212.418,217.1988,219.609,225.512,230.218,233.921,239.284,244.835,249.0,254.461,257.32,260.522,265.3028,267.713,273.656,276.514,287.673,292.378,297.447,303.164,306.023,311.455,314.313,317.516,322.221,328.2966,330.708,336.612,340.305,345.669,351.386,356.749,362.673,368.39,372.751,377.457,383.5326,385.944,390.109,394.814,400.531,404.696,407.555,410.757,413.615,419.165,422.024,425.226,430.8036,433.173,436.376,441.854,444.224,450.226,454.931,459.637,465.613,468.026,475.668,482.8392,485.246,490.157,495.874,501.94960000000003,504.361,512.004" svgx:width="0.61,0.29,0.88,0.48,0.33,0.58,0.56,0.29,0.33,0.55,0.4,0.88,0.5,0.88,0.29,0.61,0.48,0.55,0.33,0.77,0.95,0.56,0.33,0.25,0.55,0.61,0.58,0.48,0.55,0.6,0.48,0.4,0.55,0.56,0.42,0.56,0.29,0.33,0.48,0.55,0.61,0.29,0.88,0.48,0.52,0.58,0.29,0.55,0.29,0.33,0.48,0.61,0.55,0.6,0.4,0.55,0.58,0.55,0.6,0.58,0.44,0.48,0.61,0.55,0.42,0.48,0.58,0.42,0.29,0.33,0.29,0.56,0.29,0.33,0.56,0.55,0.33,0.55,0.55,0.61,0.48,0.48,0.6,0.55,0.78,0.72,0.55,0.5,0.58,0.61,0.55,0.78,0.72" style="fill:rgb(0,0,0);font-family:URWPalladioL-Roma;font-size:9.96px;stroke:none;">dimethylformamide (DMF). The perovskite ﬁlmexhibited pronounced sensitivity to deep UV and UV</text>
   <text y="662.135" x="76.535,79.376,82.217,87.646,93.328,96.6148,98.463,101.305,104.146,106.987,112.874,121.495,124.336,130.019,134.9,138.083,140.915,146.245,152.0218,153.88,162.023,164.864,168.047,173.8238,175.682,179.353,184.029,188.169,194.037,199.368,205.05,209.19,213.9708,215.819,219.675,222.517,226.656" svgx:width="0.29,0.29,0.56,0.58,0.33,0.55,0.29,0.29,0.29,0.6,0.88,0.29,0.58,0.5,0.33,0.29,0.55,0.58,0.55,0.83,0.29,0.33,0.58,0.55,0.4,0.48,0.42,0.6,0.55,0.58,0.42,0.48,0.55,0.4,0.29,0.42,0.48" style="fill:rgb(0,0,0);font-family:URWPalladioL-Roma;font-size:9.96px;stroke:none;">light illumination with response rise</text>
   <text y="662.135" x="231.331" svgx:width="0.29" style="fill:rgb(0,0,0);font-family:Rpxr;font-size:9.96px;stroke:none;">/</text>
   <text y="662.135" x="234.133,237.384,242.266,245.107,247.9954,249.901,253.084,255.925,264.546,269.3268,271.165,275.305,281.173,285.849,290.526,296.491,300.6742,302.584,307.915,311.20180000000005,313.109,317.99,322.872,325.313" svgx:width="0.33,0.5,0.29,0.29,0.55,0.33,0.29,0.88,0.48,0.55,0.42,0.6,0.48,0.48,0.61,0.42,0.55,0.55,0.33,0.55,0.5,0.5,0.25,0.5" style="fill:rgb(0,0,0);font-family:URWPalladioL-Roma;font-size:9.96px;stroke:none;">fall time speeds of 26.2</text>
   <text y="662.135" x="330.197" svgx:width="0.29" style="fill:rgb(0,0,0);font-family:Rpxr;font-size:9.96px;stroke:none;">/</text>
   <text y="662.135" x="332.999,337.881,342.762,345.203,350.183,352.038,360.659,364.798,367.288,370.539,378.135,383.817,389.148,392.331,398.013,402.69,406.674,408.499,412.834,418.516,423.193,431.814,434.655,438.99,443.872,446.7604,448.656,453.332,456.173,460.85,469.471,474.148,479.83,483.1168,484.966,488.148,493.831,498.712,501.9988,503.838,508.173,513.055" svgx:width="0.5,0.5,0.25,0.5,0.55,0.88,0.42,0.25,0.55,0.78,0.58,0.55,0.33,0.58,0.48,0.4,0.55,0.44,0.58,0.48,0.88,0.29,0.44,0.5,0.29,0.55,0.48,0.29,0.48,0.88,0.48,0.58,0.33,0.55,0.33,0.58,0.5,0.33,0.55,0.44,0.5,0.58" style="fill:rgb(0,0,0);font-family:URWPalladioL-Roma;font-size:9.96px;stroke:none;">49.9 ms. Another chemical element that can</text>
   <text y="675.644" x="76.535,82.011,86.7918,89.23,95.202,99.401,104.144,110.2196,112.67,115.968,121.375,125.359,127.772,131.971,137.942,143.419,147.617,150.846,153.728,156.956,162.927,166.156,169.037,174.444,180.2208,182.683,188.09,191.3768,193.864,196.745,201.489,206.44,212.5156,214.967,219.918,223.146,228.553,239.773,242.655,246.8382,249.339,254.845,260.252,263.134,269.185,271.675,275.136,280.315,288.574,294.052,296.457,302.22,306.964,317.698,323.462,328.968,334.444,338.356,341.237,347.31260000000003,349.764,355.171,358.904,364.41,369.362,375.125,378.007,382.404,387.355,390.237,396.0,401.407,405.14,410.646,415.598,421.361,424.243,428.6254,431.116,436.622,442.029,444.91,450.98560000000003,453.446,459.398,464.142,467.865,473.272,478.867,483.066,488.572,491.454,494.682,499.425,502.723,505.605,508.486,513.992" svgx:width="0.55,0.48,0.55,0.6,0.42,0.48,0.61,0.55,0.33,0.55,0.4,0.55,0.42,0.6,0.55,0.42,0.33,0.29,0.33,0.6,0.33,0.29,0.55,0.58,0.55,0.55,0.33,0.55,0.29,0.48,0.5,0.61,0.55,0.5,0.33,0.55,0.88,0.29,0.42,0.55,0.56,0.55,0.29,0.61,0.25,0.55,0.61,0.83,0.55,0.55,0.58,0.48,0.83,0.58,0.56,0.55,0.4,0.29,0.61,0.55,0.55,0.4,0.56,0.5,0.58,0.29,0.44,0.5,0.29,0.58,0.55,0.4,0.56,0.5,0.58,0.29,0.44,0.55,0.56,0.55,0.29,0.61,0.55,0.6,0.48,0.4,0.55,0.56,0.42,0.56,0.29,0.33,0.48,0.33,0.29,0.29,0.56,0.48" style="fill:rgb(0,0,0);font-family:URWPalladioL-Roma;font-size:9.96px;stroke:none;">be used for substitution of lead atomis gold. Two newhybrid organic–inorganic gold perovskite-like</text>
   <text y="689.153" x="76.535,82.449,87.53,90.487,93.444,99.653,104.521,108.829,111.31899999999999,114.52,117.904,125.109" svgx:width="0.58,0.5,0.29,0.29,0.61,0.48,0.42,0.25,0.55,0.33,0.71,0.83" style="fill:rgb(0,0,0);font-family:URWPalladioL-Roma;font-size:9.96px;stroke:none;">halides, (CH</text>
   <text y="691.018" x="133.562" svgx:width="0.5" style="fill:rgb(0,0,0);font-family:URWPalladioL-Roma;font-size:7.57px;stroke:none;">3</text>
   <text y="689.153" x="137.846,146.29" svgx:width="0.83,0.83" style="fill:rgb(0,0,0);font-family:URWPalladioL-Roma;font-size:9.96px;stroke:none;">NH</text>
   <text y="691.018" x="154.745" svgx:width="0.5" style="fill:rgb(0,0,0);font-family:URWPalladioL-Roma;font-size:7.57px;stroke:none;">3</text>
   <text y="689.153" x="159.029,162.413,170.319,176.446" svgx:width="0.33,0.78,0.6,0.67" style="fill:rgb(0,0,0);font-family:URWPalladioL-Roma;font-size:9.96px;stroke:none;">)AuX</text>
   <text y="691.018" x="183.225" svgx:width="0.5" style="fill:rgb(0,0,0);font-family:URWPalladioL-Roma;font-size:7.57px;stroke:none;">4</text>
   <text y="689.153" x="187.509" svgx:width="0.25" style="fill:rgb(0,0,0);font-family:Pxsy;font-size:9.96px;stroke:none;">·</text>
   <text y="689.153" x="189.999" svgx:width="0.83" style="fill:rgb(0,0,0);font-family:URWPalladioL-Roma;font-size:9.96px;stroke:none;">H</text>
   <text y="691.018" x="198.454" svgx:width="0.5" style="fill:rgb(0,0,0);font-family:URWPalladioL-Roma;font-size:7.57px;stroke:none;">2</text>
   <text y="689.153" x="202.738,210.6064,213.743,217.127" svgx:width="0.79,0.55,0.33,0.67" style="fill:rgb(0,0,0);font-family:URWPalladioL-Roma;font-size:9.96px;stroke:none;">O (X</text>
   <text y="689.153" x="226.921" svgx:width="0.67" style="fill:rgb(0,0,0);font-family:Rpxr;font-size:9.96px;stroke:none;">=</text>
   <text y="689.153" x="236.737,242.946,246.93,249.978,255.059,260.973,267.0486,270.2,277.405,280.362,283.64880000000005,286.764,295.239,300.106,303.937,308.7178,311.823,315.654,320.521,326.629,332.177,336.191,339.504,344.371,350.4466,353.598,356.555,362.3318,365.488,373.963,379.511,383.525,389.1026,392.193" svgx:width="0.61,0.4,0.55,0.5,0.58,0.61,0.55,0.71,0.29,0.33,0.55,0.83,0.48,0.4,0.48,0.55,0.4,0.48,0.6,0.55,0.4,0.33,0.48,0.61,0.55,0.29,0.58,0.55,0.83,0.55,0.4,0.56,0.55,0.33" style="fill:rgb(0,0,0);font-family:URWPalladioL-Roma;font-size:9.96px;stroke:none;">Br and Cl) were reported in work [</text>
   <text y="689.153" x="395.579,400.56" svgx:width="0.5,0.5" style="fill:rgb(8,117,183);font-family:URWPalladioL-Roma;font-size:9.96px;stroke:none;">50</text>
   <text y="689.153" x="405.542,408.926,411.416,416.537,424.982,430.53,436.444,439.828,444.137,447.449,452.998,455.955,460.467,466.381,469.338,474.886,483.859,488.727,492.04,496.054,499.011,503.39340000000004,506.541,511.622,514.162" svgx:width="0.33,0.25,0.55,0.83,0.55,0.58,0.33,0.42,0.33,0.55,0.29,0.44,0.58,0.29,0.55,0.88,0.48,0.33,0.4,0.29,0.44,0.55,0.5,0.25,0.5" style="fill:rgb(0,0,0);font-family:URWPalladioL-Roma;font-size:9.96px;stroke:none;">]. Non-stoichiometric 2:1</text>
   <text y="702.663" x="76.535,85.446,90.957,93.893,98.939,102.92299999999999,105.419,109.405,114.451,117.741,120.678,126.15599999999999,128.691,134.201,137.4878,140.055,148.966,153.8,157.09,162.964,168.575,171.512,176.558,185.469,194.381,199.891,205.764,208.701,214.787,223.55180000000001,226.201,232.075,237.121,240.057,242.994,249.161,253.995,258.1782,260.766,264.127,273.674,281.526,288.681,291.5694,294.121,299.631,303.61499999999995,306.11,315.658,323.509,329.675,333.662,336.9488,339.525,344.571,350.445,356.5206,359.104,366.956,372.932,375.544,378.905,382.306,385.707,389.108,392.39480000000003,394.961,400.835,405.881,408.818,411.755,417.921,422.755,426.9382,429.537,432.898,440.749,446.835,453.001" svgx:width="0.88,0.55,0.29,0.5,0.4,0.55,0.4,0.5,0.33,0.29,0.55,0.55,0.55,0.33,0.55,0.88,0.48,0.33,0.58,0.56,0.29,0.5,0.88,0.88,0.55,0.58,0.29,0.6,0.88,0.55,0.58,0.5,0.29,0.29,0.61,0.48,0.42,0.55,0.33,0.95,0.78,0.71,0.29,0.55,0.55,0.4,0.55,0.95,0.78,0.61,0.4,0.33,0.55,0.5,0.58,0.61,0.55,0.78,0.6,0.55,0.33,0.34,0.34,0.34,0.33,0.55,0.58,0.5,0.29,0.29,0.61,0.48,0.42,0.55,0.33,0.78,0.6,0.61,0.4" style="fill:rgb(0,0,0);font-family:URWPalladioL-Roma;font-size:9.96px;stroke:none;">molar ratio of methylammonium halides (MACl or MABr) and Au (III) halides (AuBr</text>
   <text y="704.528" x="456.983" svgx:width="0.5" style="fill:rgb(0,0,0);font-family:URWPalladioL-Roma;font-size:7.57px;stroke:none;">3</text>
   <text y="702.663" x="463.765,469.275,473.25899999999996,475.754,483.606,489.692,496.847" svgx:width="0.55,0.4,0.55,0.78,0.6,0.71,0.29" style="fill:rgb(0,0,0);font-family:URWPalladioL-Roma;font-size:9.96px;stroke:none;">or AuCl</text>
   <text y="704.528" x="499.788" svgx:width="0.5" style="fill:rgb(0,0,0);font-family:URWPalladioL-Roma;font-size:7.57px;stroke:none;">3</text>
   <text y="702.663" x="504.072,507.35880000000003,509.925,512.862" svgx:width="0.33,0.55,0.29,0.58" style="fill:rgb(0,0,0);font-family:URWPalladioL-Roma;font-size:9.96px;stroke:none;">) in</text>
   <text y="716.172" x="76.117,84.592,89.673,92.986,97.853" svgx:width="0.83,0.5,0.33,0.48,0.4" style="fill:rgb(0,0,0);font-family:URWPalladioL-Roma;font-size:9.96px;stroke:none;">water</text>
   <text y="716.172" x="101.867" svgx:width="0.29" style="fill:rgb(0,0,0);font-family:Rpxr;font-size:9.96px;stroke:none;">/</text>
   <text y="716.172" x="104.783,113.756,118.623,121.936,127.85,132.931,138.846,144.394,147.2824,150.064,155.145,157.686,162.666,165.49,174.952,177.816,182.125,187.673,190.63,196.758,200.071,203.028,208.576,214.3528,217.214,221.522,227.172,231.481,234.794,239.661,248.4258,251.347,259.822,264.903,269.0862,271.925,278.053,282.361,287.229,293.438,295.928,300.155,306.384,312.298,317.0788,319.879,325.427,331.535,336.402,342.17879999999997,345.029,351.208,356.289,360.597,366.247,370.4302,373.279,381.754,384.712,388.024,393.8008,396.652,405.625,408.582,413.825,417.138,423.266,427.097,431.8778,434.688,440.236,443.5228,446.333,452.44,456.281,461.149,465.661,471.788,475.802,480.111,485.659,489.673,493.8562,496.695,505.17,510.038,513.869" svgx:width="0.88,0.48,0.33,0.58,0.5,0.58,0.55,0.29,0.55,0.5,0.25,0.5,0.55,0.95,0.55,0.42,0.55,0.29,0.6,0.33,0.29,0.55,0.58,0.55,0.42,0.56,0.42,0.33,0.48,0.88,0.55,0.83,0.5,0.42,0.55,0.6,0.42,0.48,0.61,0.25,0.55,0.61,0.58,0.48,0.55,0.55,0.6,0.48,0.58,0.55,0.61,0.5,0.42,0.56,0.42,0.55,0.83,0.29,0.33,0.58,0.55,0.88,0.29,0.52,0.33,0.6,0.4,0.48,0.55,0.55,0.33,0.55,0.6,0.4,0.48,0.44,0.6,0.4,0.42,0.55,0.4,0.42,0.55,0.83,0.48,0.4,0.48" style="fill:rgb(0,0,0);font-family:URWPalladioL-Roma;font-size:9.96px;stroke:none;">methanol 0.2 M solution system was used. The open ﬂasks with mixture of precursors were</text>
   <text y="729.682" x="76.535,82.185,87.053,93.16,96.4468,99.115,104.196,107.4828,110.15,113.992,119.54,125.088,133.8528,136.703,140.016,144.884,153.857,159.964,164.831,168.845,173.926,177.239,183.367,187.198,191.9788,194.707,198.02,203.934,209.015,212.3018,214.97,220.051,223.008,225.965,231.513,239.988,244.856,250.9316,253.707,257.02,262.934,267.7148,270.443,275.311,281.052,286.133,292.241,297.789,301.803,306.884,310.197,313.154,318.702,324.4788,327.258,332.807,336.09380000000004,338.843,342.156,348.07,352.8508,355.579,359.888,365.436,368.394,374.135,379.003,384.917,388.229,390.719,394.713,402.619,406.003,409.315,414.183,418.167,420.839,425.706,431.448,436.529,442.636,448.184,452.198,457.279,460.592,463.549,469.098,475.012,477.502,480.235,486.444,491.525,495.539,501.1166,503.831,507.662,512.529" svgx:width="0.56,0.48,0.6,0.33,0.55,0.5,0.33,0.55,0.4,0.55,0.55,0.88,0.55,0.33,0.48,0.88,0.6,0.48,0.4,0.5,0.33,0.6,0.4,0.48,0.55,0.33,0.58,0.5,0.33,0.55,0.5,0.29,0.29,0.55,0.83,0.48,0.61,0.55,0.33,0.58,0.48,0.55,0.48,0.56,0.5,0.6,0.55,0.4,0.5,0.33,0.29,0.55,0.58,0.55,0.55,0.33,0.55,0.33,0.58,0.48,0.55,0.42,0.55,0.29,0.56,0.48,0.58,0.33,0.25,0.55,0.78,0.33,0.33,0.48,0.4,0.55,0.48,0.56,0.5,0.6,0.55,0.4,0.5,0.33,0.29,0.55,0.58,0.25,0.55,0.61,0.5,0.4,0.56,0.55,0.4,0.48,0.61" style="fill:rgb(0,0,0);font-family:URWPalladioL-Roma;font-size:9.96px;stroke:none;">kept at room temperature that allowed the evaporation of the solvent. After evaporation, dark red</text>
   <text y="743.191" x="76.207,79.541,86.64" svgx:width="0.33,0.71,0.83" style="fill:rgb(0,0,0);font-family:URWPalladioL-Roma;font-size:9.96px;stroke:none;">(CH</text>
   <text y="745.056" x="94.97" svgx:width="0.5" style="fill:rgb(0,0,0);font-family:URWPalladioL-Roma;font-size:7.57px;stroke:none;">3</text>
   <text y="743.191" x="99.254,107.574" svgx:width="0.83,0.83" style="fill:rgb(0,0,0);font-family:URWPalladioL-Roma;font-size:9.96px;stroke:none;">NH</text>
   <text y="745.056" x="115.904" svgx:width="0.5" style="fill:rgb(0,0,0);font-family:URWPalladioL-Roma;font-size:7.57px;stroke:none;">3</text>
   <text y="743.191" x="120.188,123.522,131.312,137.349,143.467" svgx:width="0.33,0.78,0.6,0.61,0.4" style="fill:rgb(0,0,0);font-family:URWPalladioL-Roma;font-size:9.96px;stroke:none;">)AuBr</text>
   <text y="745.056" x="147.422" svgx:width="0.5" style="fill:rgb(0,0,0);font-family:URWPalladioL-Roma;font-size:7.57px;stroke:none;">4</text>
   <text y="743.191" x="151.706" svgx:width="0.25" style="fill:rgb(0,0,0);font-family:Pxsy;font-size:9.96px;stroke:none;">·</text>
   <text y="743.191" x="154.196" svgx:width="0.83" style="fill:rgb(0,0,0);font-family:URWPalladioL-Roma;font-size:9.96px;stroke:none;">H</text>
   <text y="745.056" x="162.527" svgx:width="0.5" style="fill:rgb(0,0,0);font-family:URWPalladioL-Roma;font-size:7.57px;stroke:none;">2</text>
   <text y="743.191" x="166.811,174.67940000000002,177.184,181.629,185.584,191.151,195.396,198.66,203.667,206.58,210.7632,213.329,218.335,224.162,230.23760000000001,232.793,238.36,243.156,246.069,248.983,254.45,262.7168,265.303,268.637,275.736" svgx:width="0.79,0.55,0.44,0.4,0.56,0.42,0.33,0.5,0.29,0.42,0.55,0.5,0.58,0.61,0.55,0.56,0.48,0.29,0.29,0.55,0.83,0.55,0.33,0.71,0.83" style="fill:rgb(0,0,0);font-family:URWPalladioL-Roma;font-size:9.96px;stroke:none;">O crystals and yellow (CH</text>
   <text y="745.056" x="284.065" svgx:width="0.5" style="fill:rgb(0,0,0);font-family:URWPalladioL-Roma;font-size:7.57px;stroke:none;">3</text>
   <text y="743.191" x="288.349,296.669" svgx:width="0.83,0.83" style="fill:rgb(0,0,0);font-family:URWPalladioL-Roma;font-size:9.96px;stroke:none;">NH</text>
   <text y="745.056" x="305.0" svgx:width="0.5" style="fill:rgb(0,0,0);font-family:URWPalladioL-Roma;font-size:7.57px;stroke:none;">3</text>
   <text y="743.191" x="309.284,312.618,320.408,326.445,333.544" svgx:width="0.33,0.78,0.6,0.71,0.29" style="fill:rgb(0,0,0);font-family:URWPalladioL-Roma;font-size:9.96px;stroke:none;">)AuCl</text>
   <text y="745.056" x="336.457" svgx:width="0.5" style="fill:rgb(0,0,0);font-family:URWPalladioL-Roma;font-size:7.57px;stroke:none;">4</text>
   <text y="743.191" x="340.741" svgx:width="0.25" style="fill:rgb(0,0,0);font-family:Pxsy;font-size:9.96px;stroke:none;">·</text>
   <text y="743.191" x="343.232" svgx:width="0.83" style="fill:rgb(0,0,0);font-family:URWPalladioL-Roma;font-size:9.96px;stroke:none;">H</text>
   <text y="745.056" x="351.562" svgx:width="0.5" style="fill:rgb(0,0,0);font-family:URWPalladioL-Roma;font-size:7.57px;stroke:none;">2</text>
   <text y="743.191" x="355.846,363.7144,366.219,370.664,374.619,380.186,384.431,387.695,392.702,395.615,399.7982,402.364,410.714,415.51,419.295,424.0758,426.594,432.061,437.597,440.861,445.868,448.781,454.608,459.404,465.4796,468.025,476.375,479.289,482.553,488.3298,490.883,493.797,498.803,502.067,506.863,510.818,515.824" svgx:width="0.79,0.55,0.44,0.4,0.56,0.42,0.33,0.5,0.29,0.42,0.55,0.83,0.48,0.4,0.48,0.55,0.55,0.55,0.33,0.5,0.29,0.58,0.48,0.61,0.55,0.83,0.29,0.33,0.58,0.55,0.29,0.5,0.33,0.48,0.4,0.5,0.29" style="fill:rgb(0,0,0);font-family:URWPalladioL-Roma;font-size:9.96px;stroke:none;">O crystals were obtained with lateral</text>
   <text y="756.7" x="76.535,80.692,83.544,88.446,93.2268,95.632,101.543,107.519,109.915,113.111,118.589,120.953,125.933,128.345,137.001,145.657,148.14700000000002,151.588,157.598,163.303,167.999,172.155,176.9358,179.341,185.047,190.497,196.487,200.359,205.261,208.457,213.152,219.2276,221.632,225.985,229.857,235.308,239.464,242.66,247.562,250.414,254.5972,257.051,260.316,265.668,269.54,278.197,282.892,288.9676,291.372,294.225,300.0018,302.42,307.40000000000003,309.802,315.508,320.203,330.869,334.065,339.516,345.407,350.1878,352.593,356.75,359.945,363.739,369.651,374.003,377.199,383.11,386.796,391.5768,393.982,397.247,401.942,406.844,410.04,415.951,419.823,422.676,428.382,433.9596,436.322,442.214,446.91,450.596,455.948,461.487,465.644,471.094,473.947,477.143,481.838,485.103,491.093,495.788,499.661,502.513,508.052,512.748" svgx:width="0.42,0.29,0.5,0.48,0.55,0.6,0.6,0.55,0.33,0.55,0.55,0.5,0.55,0.88,0.88,0.25,0.55,0.61,0.58,0.48,0.42,0.48,0.55,0.58,0.56,0.61,0.4,0.5,0.33,0.48,0.61,0.55,0.44,0.4,0.56,0.42,0.33,0.5,0.29,0.42,0.55,0.33,0.55,0.4,0.88,0.48,0.61,0.55,0.29,0.58,0.55,0.5,0.55,0.58,0.48,0.83,0.33,0.56,0.6,0.48,0.55,0.42,0.33,0.4,0.6,0.44,0.33,0.6,0.4,0.48,0.55,0.33,0.48,0.5,0.33,0.6,0.4,0.29,0.58,0.56,0.55,0.6,0.48,0.4,0.55,0.56,0.42,0.56,0.29,0.33,0.48,0.33,0.61,0.48,0.4,0.29,0.56,0.48,0.61" style="fill:rgb(0,0,0);font-family:URWPalladioL-Roma;font-size:9.96px;stroke:none;">size up to 5 mm. These hydrated crystals formed in a newtype structure featuring perovskite-derived</text>
  </g>
 </g>
</svg>
