<?xml version="1.0" encoding="UTF-8"?>
<svg height="741.34" width="4137.276" xmlns="http://www.w3.org/2000/svg">
 <g id="page" xmlns:svgx="http://www.xml-cml.org/schema/svgx">
  <g begin="text">
   <text y="299.339" x="64.687,71.318,76.414,81.466,84.119,89.633,94.226,98.712,102.59,105.85,108.503,113.302,117.837,121.068,125.478,130.536,133.767,139.174,143.584,148.585,153.07,156.027,159.031,163.517,168.002,171.138,176.222,181.423,184.26500000000001,189.303,193.789,198.274,200.927,205.412,208.065,213.579,218.065,221.325,223.873,229.148,234.538,239.636,242.897,247.432,255.595,260.982,265.467,269.247,273.732,276.993,282.399,286.179" svgx:width="0.67,0.52,0.55,0.26,0.55,0.46,0.45,0.38,0.32,0.26,0.48,0.45,0.32,0.45,0.55,0.32,0.54,0.45,0.55,0.45,0.29,0.29,0.45,0.45,0.32,0.55,0.52,0.29,0.55,0.45,0.45,0.26,0.45,0.26,0.55,0.45,0.32,0.26,0.52,0.55,0.55,0.32,0.45,0.83,0.53,0.45,0.38,0.45,0.32,0.54,0.38,0.45" style="fill:rgb(19,20,19);font-family:YwdpjfAdvTT86d47313;font-size:9.8px;stroke:none;">To investigate the effect of calcination temperature</text>
   <text y="311.357" x="56.693,61.893,67.283,71.928,77.539,83.027,87.744,92.228,100.495,103.147,107.024,110.901,113.553,118.753,124.266,126.42200000000001,131.069,134.3,139.743,144.153,148.814,154.425,159.913,164.573,169.057,177.325,179.977,183.853,187.73,190.382,195.582,200.97199999999998,205.673,209.55,214.857,219.393,223.871,227.131,230.91,235.32,239.924,245.139,247.98100000000002,252.679,255.91,261.353,265.76300000000003,270.367,274.279,278.758,287.025" svgx:width="0.52,0.55,0.55,0.56,0.56,0.55,0.45,0.83,0.26,0.38,0.38,0.26,0.52,0.55,0.22,0.55,0.32,0.54,0.45,0.55,0.56,0.56,0.55,0.45,0.83,0.26,0.38,0.38,0.26,0.52,0.55,0.55,0.38,0.53,0.45,0.45,0.32,0.38,0.45,0.55,0.52,0.29,0.55,0.32,0.54,0.45,0.55,0.38,0.45,0.83,0.36" style="fill:rgb(19,20,19);font-family:YwdpjfAdvTT86d47313;font-size:9.8px;stroke:none;">on PL emission, the PL emission spectra of the sam-</text>
   <text y="323.319" x="56.693,62.0,64.548,69.087,72.811,79.122,83.606,86.74199999999999,93.017,98.325,100.873,103.88,106.828,111.364,115.105,119.59,125.103,128.239,134.514,138.992,143.528,146.076,150.614,153.279,158.792,163.277,166.536,169.188,174.284,179.67399999999998,186.026,189.285,193.821,201.984,207.37,211.855,215.634,220.118,223.377,228.783,232.562,237.046,240.76999999999998,247.08,251.565,255.344,259.754,265.945,269.233,273.718,277.594,280.854,285.338" svgx:width="0.53,0.26,0.45,0.38,0.55,0.45,0.32,0.55,0.53,0.26,0.29,0.29,0.45,0.38,0.45,0.55,0.32,0.55,0.45,0.45,0.26,0.45,0.26,0.55,0.45,0.32,0.26,0.52,0.55,0.55,0.32,0.45,0.83,0.53,0.45,0.38,0.45,0.32,0.54,0.38,0.45,0.38,0.55,0.45,0.38,0.45,0.55,0.32,0.45,0.38,0.32,0.45,0.53" style="fill:rgb(19,20,19);font-family:YwdpjfAdvTT86d47313;font-size:9.8px;stroke:none;">ples at different calcination temperatures are tested</text>
   <text y="335.338" x="56.693,61.178,66.693,71.887,76.671,80.526,85.933,91.134,98.069,103.459,108.217,110.87,116.26,121.017,126.113,128.841,133.64" svgx:width="0.45,0.55,0.53,0.55,0.38,0.54,0.52,0.7,0.55,0.55,0.26,0.55,0.55,0.52,0.26,0.48,0.22" style="fill:rgb(19,20,19);font-family:YwdpjfAdvTT86d47313;font-size:9.8px;stroke:none;">and shown in Fig.</text>
   <text y="335.338" x="140.485" svgx:width="0.5" style="fill:rgb(0,0,255);font-family:YwdpjfAdvTT86d47313;font-size:9.8px;stroke:none;">3</text>
   <text y="335.338" x="145.474,149.966,152.122,156.826,163.876,167.6,172.381,176.265,180.758,185.25,190.64,195.398,197.946,203.336,208.153,211.421,216.834,221.244,225.962,228.51,234.125,237.98,242.472,245.74,247.89600000000002,252.6,255.831,261.244,265.65400000000005,270.315,274.2,278.692,286.967" svgx:width="0.45,0.22,0.55,0.71,0.38,0.55,0.38,0.45,0.45,0.55,0.55,0.26,0.55,0.55,0.32,0.54,0.45,0.55,0.26,0.55,0.38,0.45,0.32,0.22,0.55,0.32,0.54,0.45,0.55,0.38,0.45,0.83,0.36" style="fill:rgb(19,20,19);font-family:YwdpjfAdvTT86d47313;font-size:9.8px;stroke:none;">a. As seen in the inset, the sam-</text>
   <text y="347.356" x="56.693,62.002,64.55,69.089,72.813,77.649,81.528,84.076,89.691,92.922,97.408,101.189,105.676,110.87,115.654,120.14,123.276,128.134,133.14,138.146,143.046,145.062,147.922,154.58599999999998,159.317,163.804,169.319,174.51299999999998,179.297,184.303,189.309,194.209,196.283,199.142,205.80599999999998,210.537,215.739,221.255,223.908,228.31799999999998,233.093,236.972,242.379,247.475,254.335,259.217,262.479,267.887,272.297,277.071,280.869,285.356" svgx:width="0.53,0.26,0.45,0.38,0.55,0.38,0.26,0.55,0.32,0.45,0.38,0.45,0.53,0.55,0.45,0.32,0.55,0.5,0.5,0.5,0.55,0.28,0.68,0.55,0.45,0.55,0.53,0.55,0.5,0.5,0.5,0.55,0.28,0.68,0.55,0.52,0.55,0.26,0.45,0.55,0.38,0.54,0.52,0.7,0.55,0.32,0.54,0.45,0.55,0.38,0.45,0.53" style="fill:rgb(19,20,19);font-family:YwdpjfAdvTT86d47313;font-size:9.8px;stroke:none;">ples sintered at 600 °C and 800 °C only show the red</text>
   <text y="359.318" x="56.693,61.176,69.442,72.093,75.969,79.845,82.496,87.695,93.085,97.673,102.98,107.463,111.947,116.84700000000001,121.414,125.898,130.433,135.946,139.204,143.688,147.465,151.949,157.143,161.757,166.24,169.376,174.006,179.009,184.012,188.912,190.929,196.441,204.575,209.197,216.13,221.535,224.186,228.669,233.961,238.591,241.139,244.863,249.589,254.068,257.326,260.585,264.363,267.013,272.212,277.617,280.875,285.359" svgx:width="0.45,0.83,0.26,0.38,0.38,0.26,0.52,0.55,0.55,0.53,0.45,0.45,0.5,0.55,0.45,0.45,0.55,0.32,0.45,0.38,0.45,0.53,0.55,0.45,0.32,0.55,0.5,0.5,0.5,0.55,0.55,0.83,0.55,0.7,0.54,0.26,0.45,0.54,0.55,0.26,0.38,0.55,0.45,0.32,0.32,0.38,0.26,0.52,0.54,0.32,0.45,0.53" style="fill:rgb(19,20,19);font-family:YwdpjfAdvTT86d47313;font-size:9.8px;stroke:none;">emission peak centered at 617 nm which is attributed</text>
   <text y="371.337" x="56.693,59.981,65.077,71.15,74.381,79.824" svgx:width="0.32,0.52,0.55,0.32,0.54,0.45" style="fill:rgb(19,20,19);font-family:YwdpjfAdvTT86d47313;font-size:9.8px;stroke:none;">to the</text>
   <text y="366.973" x="90.255" svgx:width="0.5" style="fill:rgb(19,20,19);font-family:YwdpjfAdvTT86d47313;font-size:6.53px;stroke:none;">5</text>
   <text y="371.339" x="94.053" svgx:width="0.73" style="fill:rgb(19,20,19);font-family:YwdpjfAdvTT86d47313;font-size:9.8px;stroke:none;">D</text>
   <text y="372.983" x="101.31" svgx:width="0.5" style="fill:rgb(19,20,19);font-family:YwdpjfAdvTT86d47313;font-size:6.53px;stroke:none;">0</text>
   <text y="371.339" x="111.061" svgx:width="1.0" style="fill:rgb(19,20,19);font-family:CclpjtAdvTT86d47313;font-size:9.8px;stroke:none;">→</text>
   <text y="366.973" x="126.935" svgx:width="0.5" style="fill:rgb(19,20,19);font-family:YwdpjfAdvTT86d47313;font-size:6.53px;stroke:none;">7</text>
   <text y="371.339" x="130.677" svgx:width="0.52" style="fill:rgb(19,20,19);font-family:YwdpjfAdvTT86d47313;font-size:9.8px;stroke:none;">F</text>
   <text y="372.983" x="135.893" svgx:width="0.5" style="fill:rgb(19,20,19);font-family:YwdpjfAdvTT86d47313;font-size:6.53px;stroke:none;">2</text>
   <text y="371.339" x="145.644,150.13,152.784,157.271,161.757,165.018,168.799,171.453,175.939,179.613,184.922,187.576,192.885,197.981,200.709,205.119,211.197,214.458,218.239,222.725,228.241,232.119,234.773,238.035,240.583,245.858,251.248,257.367,262.463,265.305,271.484,277.097" svgx:width="0.45,0.26,0.45,0.45,0.32,0.38,0.26,0.45,0.36,0.53,0.26,0.53,0.52,0.26,0.45,0.55,0.32,0.38,0.45,0.55,0.38,0.26,0.32,0.26,0.52,0.55,0.55,0.52,0.29,0.55,0.56,0.54" style="fill:rgb(19,20,19);font-family:YwdpjfAdvTT86d47313;font-size:9.8px;stroke:none;">electric-dipole transition of Eu</text>
   <text y="366.973" x="282.444,286.242" svgx:width="0.5,0.58" style="fill:rgb(19,20,19);font-family:YwdpjfAdvTT86d47313;font-size:6.53px;stroke:none;">3+</text>
   <text y="383.358" x="56.693,59.357,64.453,69.843,75.345" svgx:width="0.26,0.52,0.55,0.55,0.32" style="fill:rgb(19,20,19);font-family:YwdpjfAdvTT86d47313;font-size:9.8px;stroke:none;">ion [</text>
   <text y="383.358" x="78.633,83.622" svgx:width="0.5,0.5" style="fill:rgb(0,0,255);font-family:YwdpjfAdvTT86d47313;font-size:9.8px;stroke:none;">33</text>
   <text y="383.358" x="88.611,91.867,94.02300000000001,99.407,106.445,110.169,115.686,118.942,124.344,128.754,134.151,138.063,140.611,146.227,149.482,153.963,157.738,160.386,165.895,170.59900000000002,175.986,179.242,183.722,191.985,197.289,201.77,205.545,210.025,213.281,218.682,222.457,226.867,232.265,234.93,240.439,244.92,248.694,253.175,257.656,261.528,266.009,269.882,272.038,277.422,280.71,286.111" svgx:width="0.32,0.22,0.55,0.71,0.38,0.55,0.32,0.54,0.45,0.55,0.38,0.26,0.55,0.32,0.45,0.38,0.26,0.55,0.48,0.55,0.32,0.45,0.83,0.53,0.45,0.38,0.45,0.32,0.54,0.38,0.45,0.55,0.26,0.55,0.45,0.38,0.45,0.45,0.38,0.45,0.38,0.22,0.55,0.32,0.54,0.45" style="fill:rgb(19,20,19);font-family:YwdpjfAdvTT86d47313;font-size:9.8px;stroke:none;">]. As the sintering temperature increases, the</text>
   <text y="395.319" x="56.693,60.465,64.942,70.136,76.111,80.59,88.85,91.495,95.365,99.235,101.88,107.073,112.463,118.469,123.769,128.305,132.782,137.68200000000002,143.667,148.763,153.361,157.839,162.935,171.275,175.754,179.47799999999998,185.562,192.478,196.956,201.433,206.333,212.318,217.109,220.881,225.359,230.66,236.058,240.594,243.142,245.866,250.276,256.241,260.72,266.226,271.42,277.451,280.704,286.103" svgx:width="0.38,0.45,0.53,0.55,0.45,0.83,0.26,0.38,0.38,0.26,0.52,0.55,0.55,0.53,0.45,0.45,0.5,0.55,0.52,0.45,0.45,0.52,0.83,0.45,0.38,0.55,0.7,0.45,0.45,0.5,0.55,0.48,0.38,0.45,0.53,0.54,0.45,0.26,0.26,0.45,0.55,0.45,0.55,0.53,0.55,0.32,0.54,0.45" style="fill:rgb(19,20,19);font-family:YwdpjfAdvTT86d47313;font-size:9.8px;stroke:none;">red emission peak becomes weak gradually and the</text>
   <text y="407.338" x="56.693,61.491,65.27,69.754,74.239,79.629,83.82,88.355,96.632,99.18,103.152,107.029,109.681,114.777,120.167,124.421,129.729,134.213,138.697,143.597,147.768,151.028,155.512,159.997,165.51,168.769,173.254,177.033,181.517,186.71099999999998,190.871,195.35,198.486,202.72,207.724,212.728,217.62800000000001,219.702,225.215,233.482,236.618,240.796,243.46,247.184,251.397,256.597,261.797,266.285,268.997,274.212,279.618,283.495,286.043" svgx:width="0.48,0.38,0.45,0.45,0.55,0.55,0.45,0.83,0.26,0.38,0.38,0.26,0.52,0.55,0.55,0.53,0.45,0.45,0.5,0.55,0.32,0.45,0.45,0.55,0.32,0.45,0.38,0.45,0.53,0.55,0.45,0.32,0.55,0.5,0.5,0.5,0.55,0.55,0.83,0.32,0.55,0.26,0.38,0.55,0.52,0.52,0.46,0.26,0.52,0.54,0.38,0.26,0.45" style="fill:rgb(19,20,19);font-family:YwdpjfAdvTT86d47313;font-size:9.8px;stroke:none;">green emission peak (centered at 523 nm) is obviously</text>
   <text y="419.356" x="56.693,61.891,67.089,70.964,75.446,79.223,83.813,88.296,93.601,95.757,101.425,107.034,110.909,116.215,120.697,125.179,127.829,132.312,134.962,137.51,142.105,144.261,149.871,153.159,158.563,162.97299999999998,168.654,172.529,177.011,185.276,190.582,193.13,197.54,203.282,208.587,212.364,216.847,222.152,226.635,230.412,234.894,240.088,245.779,250.261,253.397,259.106,264.108,269.11,274.111,279.01099999999997,281.028,283.884" svgx:width="0.52,0.52,0.38,0.45,0.38,0.46,0.45,0.53,0.22,0.55,0.56,0.38,0.53,0.45,0.45,0.26,0.45,0.26,0.26,0.45,0.22,0.55,0.32,0.54,0.45,0.55,0.38,0.45,0.83,0.53,0.26,0.45,0.55,0.53,0.38,0.45,0.53,0.45,0.38,0.45,0.53,0.55,0.45,0.32,0.55,0.5,0.5,0.5,0.5,0.55,0.28,0.68" style="fill:rgb(19,20,19);font-family:YwdpjfAdvTT86d47313;font-size:9.8px;stroke:none;">observed. Especially, the sample prepared at 1400 °C</text>
   <text y="431.318" x="56.693,64.963,69.45,72.105,77.622,80.276,84.68599999999999,90.992,94.871,100.28,105.483,112.42,116.144,122.568,126.978,133.283,136.545,141.033,146.343,148.998,153.486,157.973,160.52100000000002,166.873,171.361,176.769,181.257,185.038,189.526,194.013,197.275,201.763,205.545,208.199,212.079,215.342,217.89,222.29999999999998,228.721,234.334" svgx:width="0.83,0.45,0.26,0.55,0.26,0.45,0.55,0.38,0.54,0.52,0.7,0.38,0.55,0.45,0.55,0.32,0.45,0.53,0.26,0.45,0.45,0.26,0.55,0.45,0.54,0.45,0.38,0.45,0.45,0.32,0.45,0.38,0.26,0.38,0.32,0.26,0.45,0.55,0.56,0.54" style="fill:rgb(19,20,19);font-family:YwdpjfAdvTT86d47313;font-size:9.8px;stroke:none;">mainly shows a typical characteristic Eu</text>
   <text y="426.954" x="239.698,243.496" svgx:width="0.5,0.58" style="fill:rgb(19,20,19);font-family:YwdpjfAdvTT86d47313;font-size:6.53px;stroke:none;">2+</text>
   <text y="431.32" x="254.098,258.593,266.871,269.533,273.421,277.309,279.857,285.132" svgx:width="0.45,0.83,0.26,0.38,0.38,0.26,0.52,0.55" style="fill:rgb(19,20,19);font-family:YwdpjfAdvTT86d47313;font-size:9.8px;stroke:none;">emission</text>
   <text y="443.338" x="56.693,61.169,65.645,71.149,74.4,78.875,82.645,87.121,92.315,97.609,102.087,105.223,110.592,115.587,120.582,125.482,127.555,133.06,141.318,143.47400000000002,148.745,155.662,161.104,163.652,168.248,173.54,178.849,181.397,185.12099999999998,190.584,195.883,201.326,205.736,211.02,214.251,219.347,224.682,227.913,233.356,237.766,243.05,248.045" svgx:width="0.45,0.45,0.55,0.32,0.45,0.38,0.45,0.53,0.55,0.45,0.32,0.55,0.5,0.5,0.5,0.55,0.55,0.83,0.22,0.55,0.7,0.54,0.26,0.45,0.54,0.55,0.26,0.38,0.55,0.53,0.54,0.45,0.55,0.32,0.52,0.55,0.32,0.54,0.45,0.55,0.5,0.29" style="fill:rgb(19,20,19);font-family:YwdpjfAdvTT86d47313;font-size:9.8px;stroke:none;">centered at 523 nm, which is due to the 4f</text>
   <text y="438.973" x="251.036" svgx:width="0.5" style="fill:rgb(19,20,19);font-family:YwdpjfAdvTT86d47313;font-size:6.53px;stroke:none;">6</text>
   <text y="443.339" x="254.778,259.824" svgx:width="0.5,0.53" style="fill:rgb(19,20,19);font-family:YwdpjfAdvTT86d47313;font-size:9.8px;stroke:none;">5d</text>
   <text y="443.339" x="267.081" svgx:width="1.0" style="fill:rgb(19,20,19);font-family:CclpjtAdvTT86d47313;font-size:9.8px;stroke:none;">→</text>
   <text y="443.339" x="278.93,283.919" svgx:width="0.5,0.29" style="fill:rgb(19,20,19);font-family:YwdpjfAdvTT86d47313;font-size:9.8px;stroke:none;">4f</text>
   <text y="438.973" x="286.866" svgx:width="0.5" style="fill:rgb(19,20,19);font-family:YwdpjfAdvTT86d47313;font-size:6.53px;stroke:none;">7</text>
   <text y="455.357" x="56.693,59.981,63.722,68.201,73.7,77.612,80.16,83.507,86.172,91.268,96.658,101.706" svgx:width="0.32,0.38,0.45,0.55,0.38,0.26,0.32,0.26,0.52,0.55,0.55,0.32" style="fill:rgb(19,20,19);font-family:YwdpjfAdvTT86d47313;font-size:9.8px;stroke:none;">transition [</text>
   <text y="455.357" x="104.939,109.928" svgx:width="0.5,0.5" style="fill:rgb(0,0,255);font-family:YwdpjfAdvTT86d47313;font-size:9.8px;stroke:none;">34</text>
   <text y="455.357" x="114.917,118.176,120.33200000000001,125.263,131.178,135.588,140.475,144.96,150.159,158.427,163.734,168.219,171.998,174.649,180.163,184.86700000000002,189.801,193.032,198.438,202.84799999999998,207.735,213.042,215.694,218.65,221.606,226.09,229.869,234.353,239.867,243.003,247.974,253.586,259.074,264.017,268.501,273.907,277.686,282.278,286.762" svgx:width="0.32,0.22,0.55,0.59,0.45,0.55,0.45,0.52,0.83,0.53,0.45,0.38,0.26,0.55,0.48,0.55,0.32,0.54,0.45,0.55,0.53,0.26,0.29,0.29,0.45,0.38,0.45,0.55,0.32,0.55,0.56,0.56,0.55,0.45,0.54,0.38,0.46,0.45,0.38" style="fill:rgb(19,20,19);font-family:YwdpjfAdvTT86d47313;font-size:9.8px;stroke:none;">]. By comparing the different PL curves</text>
   <text y="467.319" x="56.694,59.36,64.75,71.096,76.31,78.858,83.737" svgx:width="0.26,0.55,0.55,0.52,0.26,0.48,0.22" style="fill:rgb(19,20,19);font-family:YwdpjfAdvTT86d47313;font-size:9.8px;stroke:none;">in Fig.</text>
   <text y="467.319" x="92.183" svgx:width="0.5" style="fill:rgb(0,0,255);font-family:YwdpjfAdvTT86d47313;font-size:9.8px;stroke:none;">3</text>
   <text y="467.319" x="97.172,101.708,103.864,110.155,112.81,115.946,122.278,126.765,131.253,136.64299999999997,142.988,148.191,152.601,158.906,164.109,169.311,173.191,177.679,181.46,186.056,190.543,195.737,202.052,205.34,210.748,215.236,218.37199999999999,224.76,227.991,233.4,237.81,244.115,248.602,256.873,262.075,267.484,273.0,276.136,282.525,287.621" svgx:width="0.45,0.22,0.55,0.26,0.32,0.55,0.45,0.45,0.55,0.55,0.52,0.45,0.55,0.52,0.52,0.38,0.45,0.38,0.46,0.45,0.53,0.55,0.32,0.54,0.45,0.32,0.55,0.32,0.54,0.45,0.55,0.45,0.83,0.52,0.54,0.55,0.32,0.55,0.52,0.29" style="fill:rgb(19,20,19);font-family:YwdpjfAdvTT86d47313;font-size:9.8px;stroke:none;">a, it can be observed that the amount of</text>
   <text y="479.338" x="56.694,62.306" svgx:width="0.56,0.54" style="fill:rgb(19,20,19);font-family:YwdpjfAdvTT86d47313;font-size:9.8px;stroke:none;">Eu</text>
   <text y="474.973" x="67.691,71.49" svgx:width="0.5,0.58" style="fill:rgb(19,20,19);font-family:YwdpjfAdvTT86d47313;font-size:6.53px;stroke:none;">3+</text>
   <text y="479.339" x="82.261" svgx:width="1.0" style="fill:rgb(19,20,19);font-family:CclpjtAdvTT86d47313;font-size:9.8px;stroke:none;">→</text>
   <text y="479.339" x="94.11,99.723" svgx:width="0.56,0.54" style="fill:rgb(19,20,19);font-family:YwdpjfAdvTT86d47313;font-size:9.8px;stroke:none;">Eu</text>
   <text y="474.973" x="105.165,108.907" svgx:width="0.5,0.58" style="fill:rgb(19,20,19);font-family:YwdpjfAdvTT86d47313;font-size:6.53px;stroke:none;">2+</text>
   <text y="479.339" x="119.679,124.214,129.31,134.929,138.16,140.812,146.326,151.731,156.931,162.337,166.214,168.762,173.172,179.706,182.358,187.871,192.356,196.135,200.619,205.103,208.98,213.465,217.189,223.726,230.661,233.312,236.572,241.864,248.364,250.912,256.527,261.012,264.791,269.275,273.811,277.687,280.339,285.853" svgx:width="0.45,0.52,0.55,0.32,0.26,0.55,0.54,0.52,0.54,0.38,0.26,0.45,0.55,0.26,0.55,0.45,0.38,0.45,0.45,0.38,0.45,0.38,0.55,0.7,0.26,0.32,0.54,0.55,0.26,0.55,0.45,0.38,0.45,0.45,0.38,0.26,0.55,0.48" style="fill:rgb(19,20,19);font-family:YwdpjfAdvTT86d47313;font-size:9.8px;stroke:none;">continuously increases with increasing</text>
   <text y="491.357" x="56.693,60.57,63.221,68.735,71.994,76.479,80.258,84.793,89.98700000000001,95.395,98.654,103.138,111.406,116.713,121.249,124.99,129.475,132.734,138.14,141.919,146.403,148.559,153.943,160.632,166.018,168.67,172.39399999999998,177.855,181.634,186.118,189.995,195.401,198.052,201.188,206.669,211.154,216.354,218.902,224.517,229.001,231.549,236.938,241.417,245.141,250.658,257.575,260.227,263.486,268.77799999999996,274.258,277.49,282.895,287.38" svgx:width="0.38,0.26,0.55,0.32,0.45,0.38,0.45,0.53,0.55,0.32,0.45,0.83,0.53,0.45,0.38,0.45,0.32,0.54,0.38,0.45,0.22,0.55,0.67,0.54,0.26,0.38,0.55,0.38,0.45,0.38,0.54,0.26,0.32,0.55,0.45,0.52,0.26,0.55,0.45,0.26,0.53,0.45,0.38,0.55,0.7,0.26,0.32,0.54,0.55,0.32,0.54,0.45,0.32" style="fill:rgb(19,20,19);font-family:YwdpjfAdvTT86d47313;font-size:9.8px;stroke:none;">sintered temperature. This result coincides with that</text>
   <text y="503.319" x="56.693,61.898,64.74000000000001,69.892,73.158,78.569,82.979,88.094,94.954,101.08,108.234,113.326,118.64,123.13,126.396,129.661,134.151,137.936,143.455,147.179,152.356,155.013,160.40300000000002,165.558,170.764,173.421,178.183" svgx:width="0.52,0.29,0.55,0.32,0.54,0.45,0.55,0.69,0.61,0.73,0.55,0.53,0.45,0.32,0.32,0.45,0.38,0.55,0.38,0.55,0.26,0.55,0.55,0.52,0.26,0.48,0.22" style="fill:rgb(19,20,19);font-family:YwdpjfAdvTT86d47313;font-size:9.8px;stroke:none;">of the XRD patterns in Fig.</text>
   <text y="503.319" x="185.499" svgx:width="0.5" style="fill:rgb(0,0,255);font-family:YwdpjfAdvTT86d47313;font-size:9.8px;stroke:none;">2</text>
   <text y="503.319" x="190.488,194.97,197.126,202.284,209.834,214.316,222.582,227.064,229.714,234.196,236.352,241.453,247.066" svgx:width="0.45,0.22,0.55,0.76,0.45,0.83,0.45,0.26,0.45,0.22,0.55,0.56,0.54" style="fill:rgb(19,20,19);font-family:YwdpjfAdvTT86d47313;font-size:9.8px;stroke:none;">e. Namely, Eu</text>
   <text y="498.954" x="252.51,256.252" svgx:width="0.5,0.58" style="fill:rgb(19,20,19);font-family:YwdpjfAdvTT86d47313;font-size:6.53px;stroke:none;">3+</text>
   <text y="503.32" x="265.72,268.268,273.543,278.933,284.088,286.752" svgx:width="0.26,0.52,0.55,0.55,0.26,0.38" style="fill:rgb(19,20,19);font-family:YwdpjfAdvTT86d47313;font-size:9.8px;stroke:none;">ion is</text>
   <text y="515.338" x="56.694,59.981,65.368,69.77799999999999,75.741,84.018,88.496,91.161,96.551,102.563,105.511,110.726,114.468,122.602,128.624,135.598,140.984,145.462,150.85199999999998,156.864,160.152,165.538,169.948,175.913,180.449,184.927,187.475,192.07,194.618,200.178,204.713,207.944,210.609,215.824,221.214,227.227,230.458,234.936,243.213,248.542,253.021,256.819,261.298,264.529,269.972,273.713,278.12300000000005,284.089,286.753" svgx:width="0.32,0.54,0.45,0.55,0.83,0.45,0.26,0.55,0.55,0.29,0.52,0.38,0.83,0.55,0.7,0.54,0.45,0.55,0.55,0.32,0.54,0.45,0.55,0.45,0.45,0.26,0.45,0.26,0.55,0.45,0.32,0.26,0.52,0.55,0.55,0.32,0.45,0.83,0.53,0.45,0.38,0.45,0.32,0.54,0.38,0.45,0.55,0.26,0.38" style="fill:rgb(19,20,19);font-family:YwdpjfAdvTT86d47313;font-size:9.8px;stroke:none;">the main form when the calcination temperature is</text>
   <text y="527.357" x="56.694,59.348,64.444,71.481,75.959,79.683,85.144,88.432,93.84,98.328,103.718,109.269,114.315,119.322,124.329,129.22899999999998,131.245,134.106,140.741,142.89700000000002,148.506,154.118" svgx:width="0.26,0.52,0.7,0.45,0.38,0.55,0.32,0.54,0.45,0.55,0.55,0.5,0.5,0.5,0.5,0.55,0.28,0.68,0.22,0.55,0.56,0.54" style="fill:rgb(19,20,19);font-family:YwdpjfAdvTT86d47313;font-size:9.8px;stroke:none;">lower than 1000 °C. Eu</text>
   <text y="522.992" x="159.477,163.276" svgx:width="0.5,0.58" style="fill:rgb(19,20,19);font-family:YwdpjfAdvTT86d47313;font-size:6.53px;stroke:none;">3+</text>
   <text y="527.357" x="173.083,175.748,180.844,186.406,190.13,195.76,200.218,203.971,208.381,213.892,218.711,222.463,226.921,232.25,237.636,242.172,244.72,247.444,251.85399999999998,257.366,261.118,265.653,270.934,276.314,280.849,285.328" svgx:width="0.26,0.52,0.55,0.38,0.55,0.45,0.38,0.45,0.55,0.48,0.38,0.45,0.53,0.54,0.45,0.26,0.26,0.45,0.55,0.38,0.45,0.53,0.54,0.45,0.45,0.53" style="fill:rgb(19,20,19);font-family:YwdpjfAdvTT86d47313;font-size:9.8px;stroke:none;">ions are gradually reduced</text>
   <text y="299.339" x="304.724,307.998,313.094,317.295,322.921" svgx:width="0.32,0.52,0.55,0.56,0.54" style="fill:rgb(19,20,19);font-family:YwdpjfAdvTT86d47313;font-size:9.8px;stroke:none;">to Eu</text>
   <text y="294.973" x="328.309,332.107" svgx:width="0.5,0.58" style="fill:rgb(19,20,19);font-family:YwdpjfAdvTT86d47313;font-size:6.53px;stroke:none;">2+</text>
   <text y="299.339" x="340.611,343.262,348.461,353.973,357.697,361.967,368.9,374.305,378.788,384.178,388.427,391.685,397.09,401.5,405.707,409.562,412.213,417.725,420.984,425.467,429.245,431.896,437.408,442.112,446.366,449.624,454.108,462.374,467.68,472.164,475.942,480.425,483.684,489.088,492.866,497.276,501.483,504.148,507.872,512.142,517.528,520.178,524.976,530.38,534.864" svgx:width="0.26,0.52,0.55,0.38,0.55,0.7,0.54,0.45,0.55,0.55,0.32,0.54,0.45,0.55,0.38,0.26,0.55,0.32,0.45,0.38,0.26,0.55,0.48,0.55,0.32,0.45,0.83,0.53,0.45,0.38,0.45,0.32,0.54,0.38,0.45,0.55,0.26,0.38,0.55,0.54,0.26,0.48,0.54,0.45,0.38" style="fill:rgb(19,20,19);font-family:YwdpjfAdvTT86d47313;font-size:9.8px;stroke:none;">ions when the sintering temperature is higher</text>
   <text y="311.357" x="304.725,307.983,313.388,317.871,323.26099999999997,327.961,332.964,338.009,343.012,347.912,349.928,352.784,359.418,361.574,366.332,371.546,374.093,378.971,384.375,388.153" svgx:width="0.32,0.54,0.45,0.55,0.55,0.5,0.5,0.5,0.5,0.55,0.28,0.68,0.22,0.55,0.52,0.26,0.48,0.54,0.38,0.45" style="fill:rgb(19,20,19);font-family:YwdpjfAdvTT86d47313;font-size:9.8px;stroke:none;">than 1000 °C. Figure</text>
   <text y="311.357" x="397.247" svgx:width="0.5" style="fill:rgb(0,0,255);font-family:YwdpjfAdvTT86d47313;font-size:9.8px;stroke:none;">3</text>
   <text y="311.357" x="402.237,407.333,412.044,415.9,421.3,426.495,433.425,437.149,441.872,445.127,450.528,454.93800000000005,459.598,465.205,470.811,476.299,481.073,485.552,491.061,496.255,500.982,506.595,512.0830000000001,516.799,520.655,525.957,530.493,534.972" svgx:width="0.52,0.55,0.38,0.54,0.52,0.7,0.38,0.55,0.32,0.54,0.45,0.55,0.56,0.56,0.56,0.55,0.45,0.55,0.53,0.55,0.56,0.56,0.55,0.38,0.53,0.45,0.45,0.36" style="fill:rgb(19,20,19);font-family:YwdpjfAdvTT86d47313;font-size:9.8px;stroke:none;">b shows the PLE and PL spec-</text>
   <text y="323.319" x="304.726,307.989,311.772,316.182,320.446,325.661,328.503,332.804,336.092,341.502,345.91200000000003,350.176,354.056,358.545,366.816,372.127,374.783,379.19300000000004,383.457,387.338,389.886,395.501,398.732,403.22,407.003,411.492,416.68600000000004,421.016,425.504,428.64000000000004,432.931,437.939,442.946,447.954,452.854,454.871,457.732,464.367,466.523,470.885,474.23,477.36600000000004,481.713,486.201,490.689,496.079,500.384,505.587,509.997,514.261,517.266,522.362,527.867,533.366" svgx:width="0.32,0.38,0.45,0.55,0.52,0.29,0.55,0.32,0.54,0.45,0.55,0.38,0.45,0.83,0.53,0.26,0.45,0.55,0.38,0.26,0.55,0.32,0.45,0.38,0.45,0.53,0.55,0.45,0.32,0.55,0.5,0.5,0.5,0.5,0.55,0.28,0.68,0.22,0.55,0.33,0.32,0.55,0.45,0.45,0.55,0.55,0.52,0.45,0.55,0.29,0.52,0.54,0.55,0.53" style="fill:rgb(19,20,19);font-family:YwdpjfAdvTT86d47313;font-size:9.8px;stroke:none;">tra of the sample sintered at 1400 °C. It can be found</text>
   <text y="335.338" x="304.726,307.983,313.387,317.869,321.00500000000005,325.296,328.553,333.957,338.367,342.631,348.24,353.85,359.338,363.657,367.532,372.838,377.32,381.856,385.113,388.89,394.294,402.428,406.766,410.641,416.045,421.242,428.175,431.899,436.226,440.636,444.899,450.097,453.874,459.072,463.555,468.749,473.079,477.558,482.452,486.934,489.584,492.842,497.324,500.582,503.231,508.429,513.819,518.123,523.339,527.821,533.333" svgx:width="0.32,0.54,0.45,0.32,0.55,0.32,0.54,0.45,0.55,0.56,0.56,0.56,0.55,0.38,0.53,0.45,0.45,0.32,0.38,0.54,0.83,0.55,0.38,0.54,0.52,0.7,0.38,0.55,0.45,0.55,0.52,0.38,0.52,0.45,0.53,0.55,0.45,0.49,0.45,0.26,0.32,0.45,0.32,0.26,0.52,0.55,0.55,0.52,0.45,0.55,0.53" style="fill:rgb(19,20,19);font-family:YwdpjfAdvTT86d47313;font-size:9.8px;stroke:none;">that the PLE spectrum shows a broad excitation band</text>
   <text y="347.356" x="304.726,309.917,314.392,317.643,324.617,329.092,333.568,338.95799999999997,343.319,347.794,352.985,358.176,363.573,366.709,371.113,376.108,381.103,386.003,390.344,394.82,400.325,405.519,409.906,414.901,419.896,424.796,426.87,432.374,440.50800000000004,444.903" svgx:width="0.52,0.45,0.32,0.7,0.45,0.45,0.55,0.55,0.45,0.52,0.52,0.54,0.32,0.55,0.5,0.5,0.5,0.55,0.45,0.55,0.53,0.55,0.5,0.5,0.5,0.55,0.55,0.83,0.55,0.32" style="fill:rgb(19,20,19);font-family:YwdpjfAdvTT86d47313;font-size:9.8px;stroke:none;">between about 310 and 450 nm [</text>
   <text y="347.356" x="448.158" svgx:width="0.5" style="fill:rgb(0,0,255);font-family:YwdpjfAdvTT86d47313;font-size:9.8px;stroke:none;">7</text>
   <text y="347.356" x="453.147" svgx:width="0.22" style="fill:rgb(19,20,19);font-family:YwdpjfAdvTT86d47313;font-size:9.8px;stroke:none;">,</text>
   <text y="347.356" x="459.667,464.656" svgx:width="0.5,0.5" style="fill:rgb(0,0,255);font-family:YwdpjfAdvTT86d47313;font-size:9.8px;stroke:none;">35</text>
   <text y="347.356" x="469.645,472.933,475.089,479.396,486.426,491.924,497.118,501.506,504.737,510.18,514.59,518.91,521.458,527.075,530.93,535.408" svgx:width="0.32,0.22,0.55,0.71,0.55,0.53,0.55,0.32,0.54,0.45,0.55,0.26,0.55,0.38,0.45,0.32" style="fill:rgb(19,20,19);font-family:YwdpjfAdvTT86d47313;font-size:9.8px;stroke:none;">]. And the inset</text>
   <text y="359.318" x="304.727,307.389,311.113,315.949,319.22,324.636,329.04600000000005,333.821,339.15,344.566,349.777,353.047,358.258,363.066,366.808,371.303,376.622,381.914,386.713,390.568,395.984,401.195,408.14,410.688,416.303,421.007,425.771,430.18100000000004,434.899,440.114,443.904,446.452,451.33,456.716,459.85200000000003,464.653,469.472,473.213,477.692,482.187,487.577,492.335,494.998,497.66,502.469,507.885,511.021,515.822,520.318,528.596,531.143,535.115" svgx:width="0.26,0.38,0.55,0.32,0.54,0.45,0.55,0.53,0.54,0.52,0.32,0.52,0.48,0.38,0.45,0.53,0.54,0.55,0.38,0.54,0.52,0.7,0.26,0.55,0.48,0.55,0.45,0.55,0.52,0.38,0.26,0.48,0.54,0.32,0.55,0.48,0.38,0.45,0.45,0.55,0.55,0.26,0.26,0.48,0.54,0.32,0.55,0.45,0.83,0.26,0.38,0.36" style="fill:rgb(19,20,19);font-family:YwdpjfAdvTT86d47313;font-size:9.8px;stroke:none;">is the photograph showing a bright green light emis-</text>
   <text y="371.337" x="304.727,308.608,311.265,316.47,321.86,325.938,332.877,335.425,338.772,344.06399999999996,348.126,351.391,356.801,361.211,365.249,367.906,370.562,373.11,378.613,386.89,389.438,394.997,399.487,402.751,405.408,410.613,416.003,420.08,425.296,428.138,432.212,436.622,440.66,445.669,450.677,455.686,459.253,464.814,472.94800000000004,477.06,484.317,491.079,495.144,497.809,502.298,510.57,515.883,518.039,522.12,528.755,534.166" svgx:width="0.38,0.26,0.52,0.55,0.55,0.7,0.26,0.32,0.54,0.55,0.32,0.54,0.45,0.55,0.26,0.26,0.26,0.54,0.83,0.26,0.55,0.45,0.32,0.26,0.52,0.55,0.55,0.52,0.29,0.55,0.45,0.55,0.5,0.5,0.5,0.36,0.55,0.83,0.55,0.73,0.69,0.55,0.26,0.45,0.83,0.53,0.22,0.55,0.67,0.54,0.45" style="fill:rgb(19,20,19);font-family:YwdpjfAdvTT86d47313;font-size:9.8px;stroke:none;">sion with the illumination of a 365-nm UV lamp. The</text>
   <text y="383.355" x="304.727,310.331,315.819,321.443,325.313,330.614,335.149,339.628,342.881,346.653,352.051,360.185,365.828,368.376,373.76599999999996,379.434,384.627,387.175,392.053" svgx:width="0.56,0.56,0.55,0.38,0.53,0.45,0.45,0.32,0.38,0.54,0.83,0.55,0.26,0.55,0.55,0.52,0.26,0.48,0.22" style="fill:rgb(19,20,19);font-family:YwdpjfAdvTT86d47313;font-size:9.8px;stroke:none;">PL spectrum in Fig.</text>
   <text y="383.355" x="399.743" svgx:width="0.5" style="fill:rgb(0,0,255);font-family:YwdpjfAdvTT86d47313;font-size:9.8px;stroke:none;">3</text>
   <text y="383.355" x="404.733,409.829,415.391,418.056,421.78,427.41,431.888,437.079,442.584,446.452,449.095,452.963,456.251,460.726,466.231,469.367,474.962,481.935,484.483,487.832,493.12399999999997,498.717,501.948,507.391,511.80100000000004,517.312,521.847,526.943,529.671,534.886" svgx:width="0.52,0.55,0.26,0.38,0.55,0.45,0.52,0.55,0.38,0.26,0.38,0.32,0.45,0.55,0.32,0.55,0.7,0.26,0.32,0.54,0.55,0.32,0.54,0.45,0.55,0.45,0.52,0.26,0.52,0.38" style="fill:rgb(19,20,19);font-family:YwdpjfAdvTT86d47313;font-size:9.8px;stroke:none;">b is consistent with the color</text>
   <text y="395.317" x="304.727,311.643,314.308,317.596,323.095,327.573,331.428,335.34,339.819,345.01300000000003,349.06,351.608,356.998,361.136,364.368,369.754,374.16400000000004,378.201,383.474,388.917,394.013,397.364,402.58,407.341,411.14,415.618,420.948,426.334" svgx:width="0.7,0.26,0.32,0.55,0.45,0.38,0.38,0.45,0.53,0.55,0.26,0.55,0.55,0.32,0.54,0.45,0.55,0.53,0.54,0.52,0.32,0.52,0.48,0.38,0.45,0.53,0.54,0.22" style="fill:rgb(19,20,19);font-family:YwdpjfAdvTT86d47313;font-size:9.8px;stroke:none;">witnessed in the photograph.</text>
   <text y="407.335" x="312.72,315.984,321.37399999999997,324.626,329.722,333.243,338.447,342.654,346.378,349.684,352.839,357.935,361.193,364.044,369.186,372.861,375.82,381.122,385.401,389.125,392.375,394.813,400.223,404.564,408.945,412.558,415.713,418.113,422.808,427.015,430.17,434.58000000000004,437.843,440.998,446.12,450.53000000000003,453.83,458.926,463.581,466.019,471.223,475.487,478.642,481.042,486.032,491.42199999999997,494.762,498.535,501.565,505.946,508.936,513.346,516.647,521.636,524.478,527.815,533.323" svgx:width="0.33,0.55,0.55,0.52,0.38,0.53,0.45,0.38,0.55,0.32,0.52,0.55,0.29,0.54,0.38,0.32,0.54,0.45,0.38,0.55,0.26,0.55,0.46,0.45,0.38,0.32,0.26,0.48,0.45,0.32,0.45,0.55,0.32,0.54,0.45,0.55,0.52,0.49,0.26,0.53,0.45,0.32,0.26,0.52,0.55,0.55,0.38,0.32,0.45,0.32,0.45,0.55,0.52,0.29,0.55,0.56,0.54" style="fill:rgb(19,20,19);font-family:YwdpjfAdvTT86d47313;font-size:9.8px;stroke:none;">In order to further investigate the oxidation state of Eu</text>
   <text y="419.354" x="304.727,309.107,311.473,315.853,323.888,328.269,333.527,336.682,338.838,341.577,344.733,349.911,354.321,357.111,363.844,369.243,374.241,377.067,382.27,386.477,389.633,392.657,397.038,400.537,405.92699999999996,408.814,413.91,416.752,419.53,425.037,430.188,435.088,440.28200000000004,443.057,445.909,450.88,454.604,457.4,460.556,465.677,470.08700000000005,472.934,476.707,480.928,488.979,494.182,496.575,500.985,503.832,508.928,513.867,517.023,521.238,523.786,529.061,533.442" svgx:width="0.45,0.26,0.45,0.83,0.45,0.55,0.32,0.22,0.55,0.32,0.54,0.45,0.55,0.69,0.56,0.51,0.55,0.53,0.45,0.32,0.32,0.45,0.38,0.55,0.55,0.52,0.29,0.55,0.56,0.54,0.5,0.53,0.55,0.29,0.52,0.38,0.55,0.32,0.54,0.45,0.55,0.38,0.45,0.83,0.53,0.26,0.45,0.55,0.52,0.52,0.32,0.45,0.26,0.55,0.45,0.53" style="fill:rgb(19,20,19);font-family:YwdpjfAdvTT86d47313;font-size:9.8px;stroke:none;">element, the XPS pattern of Eu3d for the sample obtained</text>
   <text y="431.316" x="304.727,309.107,312.24300000000005,314.762,319.662,324.4,329.3,334.2,335.965,338.719,345.383,347.814,350.252,353.976,356.601,364.765,369.698,375.108,377.521,380.677,385.629,389.304,393.509,398.70300000000003,401.275,405.656,410.913,416.107,418.624,422.397,427.581,432.57,439.401,444.791,447.31,449.858,455.248,457.741,462.837,465.225,469.919" svgx:width="0.45,0.32,0.55,0.5,0.5,0.5,0.5,0.55,0.28,0.68,0.55,0.26,0.38,0.55,0.83,0.52,0.55,0.26,0.32,0.52,0.38,0.45,0.53,0.55,0.45,0.55,0.53,0.55,0.38,0.54,0.52,0.7,0.55,0.55,0.26,0.55,0.55,0.52,0.26,0.48,0.22" style="fill:rgb(19,20,19);font-family:YwdpjfAdvTT86d47313;font-size:9.8px;stroke:none;">at 1400 °C is monitored and shown in Fig.</text>
   <text y="431.316" x="474.522" svgx:width="0.5" style="fill:rgb(0,0,255);font-family:YwdpjfAdvTT86d47313;font-size:9.8px;stroke:none;">4</text>
   <text y="431.316" x="479.34,481.496,484.046,490.573,495.725,500.13500000000005,502.641,507.845,512.052,516.433,521.18,524.904,527.529,529.968,535.063" svgx:width="0.22,0.55,0.67,0.54,0.45,0.55,0.53,0.45,0.45,0.5,0.38,0.55,0.26,0.52,0.36" style="fill:rgb(19,20,19);font-family:YwdpjfAdvTT86d47313;font-size:9.8px;stroke:none;">. The peaks lo-</text>
   <text y="443.334" x="304.727,309.107,313.344,316.499,320.714,325.908,329.955,334.336,337.47200000000004,341.464,346.364,351.103,356.003,360.90299999999996,362.669,367.049,373.811,377.749,382.129,387.387,392.581,396.571,401.471,406.21,411.109,416.00899999999996,417.831,422.083,428.845,432.855,437.236,440.792,445.202,449.183,453.564,458.481,462.156,465.681,470.062,473.675,478.879,483.823,489.232,494.311,498.691,503.885,507.803,510.959,516.055,520.049,525.435" svgx:width="0.45,0.45,0.32,0.45,0.53,0.55,0.45,0.32,0.55,0.5,0.5,0.5,0.5,0.55,0.45,0.69,0.55,0.45,0.55,0.53,0.55,0.5,0.5,0.5,0.5,0.55,0.45,0.69,0.55,0.45,0.38,0.45,0.55,0.45,0.52,0.38,0.38,0.45,0.38,0.53,0.52,0.55,0.53,0.45,0.53,0.55,0.32,0.52,0.55,0.56,0.54" style="fill:rgb(19,20,19);font-family:YwdpjfAdvTT86d47313;font-size:9.8px;stroke:none;">cated at 1165 eV and 1135 eV are corresponded to Eu</text>
   <text y="438.973" x="530.702,534.377" svgx:width="0.5,0.58" style="fill:rgb(19,20,19);font-family:YwdpjfAdvTT86d47313;font-size:6.53px;stroke:none;">3+</text>
   <text y="455.357" x="304.724,309.82,314.475,316.913,322.117,326.381,329.537,331.881,336.977,342.36699999999996,346.11,349.883,352.857,357.237,360.283,364.663,366.819,370.488,375.477,380.778,383.91400000000004,387.666,390.821,395.943,400.353,404.106,409.31,413.517,417.898,422.645,426.36899999999997,430.185,434.565,438.122,443.111,448.412,453.655,458.849,462.669,467.569,472.308,477.208,482.108,483.873,488.254,495.016,498.67,503.051,508.309,513.503,517.266,522.166,526.904,531.804" svgx:width="0.52,0.49,0.26,0.53,0.45,0.32,0.26,0.52,0.55,0.55,0.38,0.32,0.45,0.32,0.45,0.22,0.55,0.52,0.54,0.32,0.55,0.32,0.54,0.45,0.55,0.53,0.45,0.45,0.5,0.38,0.55,0.45,0.38,0.52,0.54,0.55,0.53,0.55,0.5,0.5,0.5,0.5,0.55,0.45,0.69,0.55,0.45,0.55,0.53,0.55,0.5,0.5,0.5,0.5" style="fill:rgb(19,20,19);font-family:YwdpjfAdvTT86d47313;font-size:9.8px;stroke:none;">oxidation state, but the peaks around 1155 eV and 1125</text>
   <text y="467.319" x="304.724,309.105,315.867,318.671,323.051,326.607,331.01700000000005,333.864,338.245,341.291,344.446,347.924,350.472,355.407,360.709,363.741,368.122,373.31600000000003,376.157,379.312,384.408,387.269,392.776" svgx:width="0.45,0.69,0.55,0.45,0.38,0.45,0.55,0.45,0.32,0.32,0.38,0.26,0.52,0.54,0.32,0.45,0.53,0.55,0.32,0.52,0.55,0.56,0.54" style="fill:rgb(19,20,19);font-family:YwdpjfAdvTT86d47313;font-size:9.8px;stroke:none;">eV are attributed to Eu</text>
   <text y="462.954" x="397.927,401.602" svgx:width="0.5,0.58" style="fill:rgb(19,20,19);font-family:YwdpjfAdvTT86d47313;font-size:6.53px;stroke:none;">2+</text>
   <text y="467.32" x="408.699,413.795,418.45,420.998,426.047,430.427,433.417,435.965,440.957,446.347,449.234,453.007,456.038,460.418,463.408,467.81800000000004,470.722" svgx:width="0.52,0.49,0.26,0.53,0.45,0.32,0.26,0.52,0.55,0.55,0.38,0.32,0.45,0.32,0.45,0.55,0.32" style="fill:rgb(19,20,19);font-family:YwdpjfAdvTT86d47313;font-size:9.8px;stroke:none;">oxidation state [</text>
   <text y="467.32" x="473.782,478.682" svgx:width="0.5,0.5" style="fill:rgb(0,0,255);font-family:YwdpjfAdvTT86d47313;font-size:9.8px;stroke:none;">11</text>
   <text y="467.32" x="483.42" svgx:width="0.22" style="fill:rgb(19,20,19);font-family:YwdpjfAdvTT86d47313;font-size:9.8px;stroke:none;">,</text>
   <text y="467.32" x="488.466,493.366" svgx:width="0.5,0.5" style="fill:rgb(0,0,255);font-family:YwdpjfAdvTT86d47313;font-size:9.8px;stroke:none;">36</text>
   <text y="467.32" x="498.104,501.259,503.415,506.268,512.795,517.946,520.385,524.109,527.074,530.749,535.011" svgx:width="0.32,0.22,0.55,0.67,0.54,0.26,0.38,0.55,0.38,0.45,0.36" style="fill:rgb(19,20,19);font-family:YwdpjfAdvTT86d47313;font-size:9.8px;stroke:none;">]. This re-</text>
   <text y="479.338" x="304.725,308.498,313.626,316.174,319.31,322.074,325.847,331.031,336.02,342.851,346.575,349.4,352.555,357.734,362.114,365.25,367.995,371.768,376.726,384.889,389.29900000000004,392.033,397.023,399.865,402.692,405.847,411.026,415.43600000000004,418.226,423.733" svgx:width="0.38,0.54,0.26,0.32,0.55,0.38,0.54,0.52,0.7,0.38,0.55,0.32,0.54,0.45,0.32,0.55,0.38,0.52,0.83,0.45,0.55,0.52,0.29,0.55,0.32,0.54,0.45,0.55,0.56,0.54" style="fill:rgb(19,20,19);font-family:YwdpjfAdvTT86d47313;font-size:9.8px;stroke:none;">sult shows that some of the Eu</text>
   <text y="474.973" x="428.882,432.557" svgx:width="0.5,0.58" style="fill:rgb(19,20,19);font-family:YwdpjfAdvTT86d47313;font-size:6.53px;stroke:none;">3+</text>
   <text y="479.339" x="439.597,442.145,447.08,452.489,456.21299999999997,459.043,463.423,466.923,471.333,474.123,477.798,482.003,487.207,492.378,496.759,500.995,506.189,509.046,512.201,517.297,520.044,525.552" svgx:width="0.26,0.52,0.55,0.38,0.55,0.45,0.38,0.45,0.55,0.38,0.45,0.53,0.54,0.45,0.45,0.53,0.55,0.32,0.52,0.55,0.56,0.54" style="fill:rgb(19,20,19);font-family:YwdpjfAdvTT86d47313;font-size:9.8px;stroke:none;">ions are reduced to Eu</text>
   <text y="474.973" x="530.702,534.377" svgx:width="0.5,0.58" style="fill:rgb(19,20,19);font-family:YwdpjfAdvTT86d47313;font-size:6.53px;stroke:none;">2+</text>
   <text y="491.357" x="304.724,307.272,312.208,317.617,321.341,324.68,327.228,332.618,335.961,339.117,344.295,348.70500000000004,352.063,356.345,360.567,365.556,368.104,370.489,373.644,378.05400000000003,381.373,386.675,391.635,395.408,398.54400000000004,401.839,407.141,412.384,417.588,421.852,425.57599999999996,428.881,434.183,436.592,441.286,446.456,449.915,453.07,458.249,462.629,466.129,474.292,478.544,481.092,484.44,487.595,491.129,495.51,499.746,502.902,510.915,515.296,520.554,523.6899999999999,527.073,530.748,535.01" svgx:width="0.26,0.52,0.55,0.38,0.55,0.26,0.55,0.55,0.32,0.54,0.45,0.55,0.44,0.45,0.52,0.26,0.26,0.32,0.45,0.55,0.54,0.52,0.38,0.32,0.55,0.54,0.55,0.53,0.45,0.38,0.55,0.54,0.26,0.48,0.54,0.36,0.32,0.54,0.45,0.38,0.83,0.45,0.26,0.55,0.32,0.38,0.45,0.45,0.32,0.83,0.45,0.55,0.32,0.55,0.38,0.45,0.36" style="fill:rgb(19,20,19);font-family:YwdpjfAdvTT86d47313;font-size:9.8px;stroke:none;">ions in the zeolite host under high-thermal treatment re-</text>
   <text y="503.319" x="304.724,309.105,313.341,316.497,318.897,323.886,329.296,331.452,335.678,340.059,345.316,350.51,354.898,358.053,363.175,365.723,369.447,373.776,377.451,381.656,385.429,390.558,393.106,396.242,400.536,402.974,406.698,411.082,415.462,420.436,425.845,429.45,431.998,435.629,438.785,443.0,448.409,451.545,455.812,462.643,465.054,468.209,473.501,477.753,480.909,486.087,490.497,494.818,500.204,505.692,510.069,513.841,518.913,523.293,527.53,530.686,534.164" svgx:width="0.45,0.45,0.32,0.26,0.52,0.55,0.22,0.55,0.45,0.55,0.53,0.55,0.32,0.54,0.26,0.38,0.55,0.38,0.45,0.38,0.54,0.26,0.32,0.55,0.26,0.38,0.55,0.45,0.52,0.55,0.38,0.26,0.38,0.32,0.45,0.55,0.32,0.55,0.7,0.26,0.32,0.54,0.55,0.32,0.54,0.45,0.55,0.56,0.56,0.55,0.38,0.53,0.45,0.45,0.32,0.38,0.45" style="fill:rgb(19,20,19);font-family:YwdpjfAdvTT86d47313;font-size:9.8px;stroke:none;">action, and this result is consistent with the PL spectra</text>
   <text y="515.338" x="304.724,307.88,312.832,315.27,319.964" svgx:width="0.32,0.52,0.26,0.48,0.22" style="fill:rgb(19,20,19);font-family:YwdpjfAdvTT86d47313;font-size:9.8px;stroke:none;">(Fig.</text>
   <text y="515.338" x="325.53" svgx:width="0.5" style="fill:rgb(0,0,255);font-family:YwdpjfAdvTT86d47313;font-size:9.8px;stroke:none;">3</text>
   <text y="515.338" x="330.349,333.505,335.661,339.023,345.55,350.702,355.112,358.582,363.785,368.729,372.502,376.1,378.648,383.64,386.078,390.488,393.958,397.633,401.838,406.219,410.455,413.611,416.011,421.107,426.497,429.9,438.064,442.316,446.696,451.84,456.221,461.479,464.027,467.658,475.79200000000003,479.28,487.443,491.696,496.10600000000005,499.576,504.565,508.975,512.445,516.218,521.346,526.442,533.138" svgx:width="0.32,0.22,0.55,0.67,0.54,0.45,0.55,0.53,0.52,0.38,0.38,0.26,0.52,0.26,0.45,0.55,0.38,0.45,0.45,0.45,0.32,0.26,0.52,0.55,0.55,0.83,0.45,0.45,0.54,0.45,0.55,0.26,0.38,0.83,0.55,0.83,0.45,0.45,0.55,0.52,0.45,0.55,0.38,0.54,0.52,0.7,0.55" style="fill:rgb(19,20,19);font-family:YwdpjfAdvTT86d47313;font-size:9.8px;stroke:none;">). The possible reaction mechanism may be shown</text>
   <text y="527.356" x="304.724,307.272,312.662,315.155,318.311,323.489,327.899,330.406,333.258,338.229,340.667,343.215,348.151,354.981,357.392,362.801,367.505,369.978,374.358,379.446,384.747,388.97,392.126,394.526,399.515,404.924,408.529" svgx:width="0.26,0.55,0.55,0.32,0.54,0.45,0.55,0.29,0.52,0.26,0.26,0.52,0.7,0.26,0.55,0.48,0.55,0.45,0.53,0.54,0.45,0.32,0.26,0.52,0.55,0.38,0.22" style="fill:rgb(19,20,19);font-family:YwdpjfAdvTT86d47313;font-size:9.8px;stroke:none;">in the following equations:</text>
  </g>
  <path style="fill:rgb(19,20,19);stroke:none;stroke-width:1.0;" d="M60.72 88.61 L534.56 88.61 L534.56 88.84 L60.72 88.84 "/>
  <path style="fill:rgb(19,20,19);stroke:none;stroke-width:0.25;" d="M534.56 88.61 L535.29 88.67 C536.85 88.84 538.33 90.38 538.53 91.9 L538.58 92.58 L538.35 92.58 L538.3 91.96 C538.08 90.48 536.75 89.12 535.24 88.89 L534.56 88.84 "/>
  <path style="fill:rgb(19,20,19);stroke:none;stroke-width:0.25;" d="M538.58 92.58 L538.58 272.69 L538.36 272.69 L538.36 92.58 "/>
  <path style="fill:rgb(19,20,19);stroke:none;stroke-width:0.25;" d="M538.58 272.69 L538.53 273.37 C538.34 274.89 536.85 276.43 535.29 276.61 L534.56 276.66 L534.56 276.44 L535.24 276.38 C536.78 276.14 538.03 274.84 538.3 273.32 L538.36 272.69 "/>
  <path style="fill:rgb(19,20,19);stroke:none;stroke-width:0.25;" d="M534.56 276.66 L60.72 276.66 L60.72 276.43 L534.56 276.43 "/>
  <path style="fill:rgb(19,20,19);stroke:none;stroke-width:0.25;" d="M60.72 276.66 L59.98 276.6 C58.42 276.43 56.94 274.89 56.75 273.37 L56.69 272.69 L56.92 272.69 L56.98 273.32 C57.24 274.84 58.5 276.14 60.04 276.38 L60.72 276.43 "/>
  <path style="fill:rgb(19,20,19);stroke:none;stroke-width:0.25;" d="M56.69 272.69 L56.69 92.58 L56.92 92.58 L56.92 272.69 "/>
  <path style="fill:rgb(19,20,19);stroke:none;stroke-width:0.25;" d="M56.69 92.58 L56.75 91.9 C56.94 90.38 58.42 88.84 59.98 88.67 L60.72 88.61 L60.72 88.84 L60.04 88.9 C58.52 89.12 57.19 90.48 56.98 91.96 L56.92 92.58 "/>
  <rect style="stroke:blue;stroke-width:0.3;" x="127.276" y="103.981" height="153.581" width="340.756" title="4"/>
  <text y="103.981" class="image" id="image.4.1" width="340" height="153" x="127.276">image.4.1.127_468.104_258</text>
  <rect style="stroke:blue;stroke-width:0.3;" x="127.276" y="103.981" height="153.581" width="340.756" title="4"/>
  <text y="103.981" class="image" id="image.4.2" width="340" height="153" x="127.276">image.4.2.127_468.104_258</text>
  <g begin="text">
   <text y="260.447" x="62.702,66.862,69.022,73.686,75.686,78.066" svgx:width="0.52,0.27,0.58,0.25,0.55,0.55" style="fill:rgb(19,20,19);font-family:DlrsktAdvTTaf7f9f4f.B;font-size:8.0px;stroke:none;">Fig. 2</text>
   <text y="260.447" x="84.869,88.533,92.197,98.357,100.687,102.351,108.847,112.422,116.75,120.582,123.46199999999999,125.858,130.106,132.186,134.589,137.749,141.581,145.829,147.493,149.157,151.573,155.405,157.733,161.565,166.229,167.58900000000003,169.909,173.741,175.069,178.909,180.454,186.198,188.614,194.454,196.781,200.445,204.605,206.986,211.314,215.562,219.81,222.722,227.05,231.298,235.546,237.874,240.754,243.099,246.011,247.675,251.923,254.339,258.171,260.499,264.331,268.651,271.048,274.624,277.024,279.382,283.214,287.046,290.88599999999997,292.421,294.749,299.22900000000004,301.662" svgx:width="0.46,0.46,0.77,0.55,0.21,0.81,0.45,0.54,0.48,0.36,0.55,0.53,0.26,0.55,0.4,0.48,0.53,0.21,0.21,0.3,0.48,0.29,0.48,0.58,0.17,0.55,0.48,0.17,0.48,0.55,0.72,0.3,0.73,0.55,0.46,0.52,0.55,0.54,0.53,0.53,0.36,0.54,0.53,0.53,0.29,0.36,0.55,0.36,0.21,0.53,0.3,0.48,0.29,0.48,0.54,0.55,0.45,0.3,0.55,0.48,0.48,0.48,0.55,0.29,0.56,0.55,0.26" style="fill:rgb(19,20,19);font-family:XgcjxvAdvTTb5929f4c;font-size:8.0px;stroke:none;">SEM images of zeolite-3A: 1.3 wt% Eu phosphors sintered at 600 °C (</text>
   <text y="260.447" x="303.759" svgx:width="0.5" style="fill:rgb(19,20,19);font-family:JdwltdAdvTT99c4c969;font-size:8.0px;stroke:none;">a</text>
   <text y="260.447" x="307.728,309.808,311.168,313.51,317.342,321.174,325.01399999999995,326.549,328.877,333.357,335.79" svgx:width="0.26,0.17,0.55,0.48,0.48,0.48,0.55,0.29,0.56,0.55,0.26" style="fill:rgb(19,20,19);font-family:XgcjxvAdvTTb5929f4c;font-size:8.0px;stroke:none;">), 800 °C (</text>
   <text y="260.447" x="337.832" svgx:width="0.58" style="fill:rgb(19,20,19);font-family:JdwltdAdvTT99c4c969;font-size:8.0px;stroke:none;">b</text>
   <text y="260.447" x="342.48,344.56,345.92,348.32,352.151,355.983,359.815,363.655,365.158,367.486,371.966,374.398" svgx:width="0.26,0.17,0.55,0.48,0.48,0.48,0.48,0.55,0.29,0.56,0.55,0.26" style="fill:rgb(19,20,19);font-family:XgcjxvAdvTTb5929f4c;font-size:8.0px;stroke:none;">), 1000 °C (</text>
   <text y="260.447" x="376.439" svgx:width="0.45" style="fill:rgb(19,20,19);font-family:JdwltdAdvTT99c4c969;font-size:8.0px;stroke:none;">c</text>
   <text y="260.447" x="380.011,382.091,383.451,385.85,389.426,393.674,397.99399999999997,400.364,404.196,408.028,411.86,415.7,417.258,419.586,424.06600000000003,426.442" svgx:width="0.26,0.17,0.55,0.45,0.53,0.54,0.55,0.48,0.48,0.48,0.48,0.55,0.29,0.56,0.55,0.26" style="fill:rgb(19,20,19);font-family:XgcjxvAdvTTb5929f4c;font-size:8.0px;stroke:none;">), and 1200 °C (</text>
   <text y="260.447" x="428.54" svgx:width="0.57" style="fill:rgb(19,20,19);font-family:JdwltdAdvTT99c4c969;font-size:8.0px;stroke:none;">d</text>
   <text y="260.447" x="433.075,435.155,436.515,438.914,441.242,445.074,447.986,452.314,456.146,459.551,461.967,463.631,467.207,471.039,472.703,476.199" svgx:width="0.26,0.17,0.55,0.29,0.48,0.36,0.54,0.48,0.44,0.3,0.21,0.45,0.48,0.21,0.44,0.17" style="fill:rgb(19,20,19);font-family:XgcjxvAdvTTb5929f4c;font-size:8.0px;stroke:none;">), respectively.</text>
   <text y="260.447" x="479.904" svgx:width="0.51" style="fill:rgb(19,20,19);font-family:JdwltdAdvTT99c4c969;font-size:8.0px;stroke:none;">e</text>
   <text y="260.447" x="486.367,490.695,494.694,499.814,502.241,506.569,510.145,512.561,514.977,518.809,521.137,525.384" svgx:width="0.54,0.5,0.64,0.55,0.54,0.45,0.3,0.3,0.48,0.29,0.53,0.36" style="fill:rgb(19,20,19);font-family:XgcjxvAdvTTb5929f4c;font-size:8.0px;stroke:none;">XRD patterns</text>
   <text y="270.425" x="62.702,66.95,69.03,71.433,74.593,78.425,82.673,84.337,86.001,88.417,92.249,94.577,98.306,102.97,104.33,106.696,110.528,111.856,115.696,117.241,122.985,125.401,131.24099999999999,133.625,137.289,141.44899999999998,143.83,148.158,152.406,156.654,159.566,163.894,168.142,172.29,174.618,177.498,179.943,182.855,184.519,188.767,191.183,195.015,197.343,201.175,205.495,207.836,211.412,213.812,216.227,220.555,222.219,224.299,226.379,230.211,232.539,236.371,240.618,243.018,245.367,247.783,251.615,258.111,262.439,266.271,268.599,272.175,274.591,278.751,281.079,284.826,287.738,289.098,291.459,293.786,297.618,300.53,304.858,308.69,312.186,314.602,316.266,319.842,323.674,325.338" svgx:width="0.53,0.26,0.55,0.4,0.48,0.53,0.21,0.21,0.3,0.48,0.29,0.48,0.58,0.17,0.55,0.48,0.17,0.48,0.55,0.72,0.3,0.73,0.55,0.46,0.52,0.55,0.54,0.53,0.53,0.36,0.54,0.53,0.53,0.29,0.36,0.55,0.36,0.21,0.53,0.3,0.48,0.29,0.48,0.54,0.55,0.45,0.3,0.55,0.54,0.21,0.26,0.26,0.48,0.29,0.48,0.53,0.3,0.55,0.3,0.48,0.81,0.54,0.48,0.29,0.45,0.3,0.52,0.29,0.48,0.36,0.17,0.55,0.29,0.48,0.36,0.54,0.48,0.44,0.3,0.21,0.45,0.48,0.21,0.44" style="fill:rgb(19,20,19);font-family:XgcjxvAdvTTb5929f4c;font-size:8.0px;stroke:none;">of zeolite-3A: 1.3 wt% Eu phosphors sintered at different temperatures, respectively</text>
  </g>
  <path style="fill:rgb(19,20,19);stroke:none;stroke-width:0.25;" d="M127.28 94.85 L468.0 94.85 L468.0 248.43 L127.28 248.43 M60.72 548.73 L534.56 548.73 L534.56 548.96 L60.72 548.96 "/>
  <path style="fill:rgb(19,20,19);stroke:none;stroke-width:0.25;" d="M534.56 548.73 L535.29 548.79 C536.72 548.97 538.4 550.52 538.53 552.02 L538.58 552.76 L538.35 552.76 L538.3 552.08 C538.1 550.73 536.67 549.1 535.24 549.07 L534.56 548.96 "/>
  <path style="fill:rgb(19,20,19);stroke:none;stroke-width:0.25;" d="M538.58 552.76 L538.58 727.31 L538.36 727.31 L538.36 552.76 "/>
  <path style="fill:rgb(19,20,19);stroke:none;stroke-width:0.25;" d="M538.58 727.31 L538.53 728.05 C538.33 729.61 536.78 731.05 535.29 731.28 L534.56 731.34 L534.56 731.06 L535.24 731.0 C536.79 730.8 538.01 729.49 538.3 727.99 L538.36 727.31 "/>
  <path style="fill:rgb(19,20,19);stroke:none;stroke-width:0.25;" d="M534.56 731.34 L60.72 731.34 L60.72 731.06 L534.56 731.06 "/>
  <path style="fill:rgb(19,20,19);stroke:none;stroke-width:0.25;" d="M60.72 731.34 L59.98 731.28 C58.49 731.05 56.94 729.61 56.75 728.05 L56.69 727.31 L56.92 727.31 L56.98 727.99 C57.27 729.49 58.49 730.8 60.04 731.0 L60.72 731.05 "/>
  <path style="fill:rgb(19,20,19);stroke:none;stroke-width:0.25;" d="M56.69 727.31 L56.69 552.76 L56.92 552.76 L56.92 727.31 "/>
  <path style="fill:rgb(19,20,19);stroke:none;stroke-width:0.25;" d="M56.69 552.76 L56.75 552.02 C56.94 550.46 58.49 549.02 59.98 548.79 L60.72 548.73 L60.72 548.96 L60.04 549.07 C58.61 549.1 57.18 550.73 56.98 552.08 L56.92 552.76 "/>
  <rect style="stroke:blue;stroke-width:0.3;" x="127.276" y="564.101" height="138.047" width="340.756" title="4"/>
  <text y="564.101" class="image" id="image.4.3" width="340" height="138" x="127.276">image.4.3.127_468.564_702</text>
  <rect style="stroke:blue;stroke-width:0.3;" x="127.276" y="564.101" height="138.047" width="340.756" title="4"/>
  <text y="564.101" class="image" id="image.4.4" width="340" height="138" x="127.276">image.4.4.127_468.564_702</text>
  <g begin="text">
   <text y="705.09" x="62.702,66.862,69.022,73.686,75.686,78.066" svgx:width="0.52,0.27,0.58,0.25,0.55,0.55" style="fill:rgb(19,20,19);font-family:DlrsktAdvTTaf7f9f4f.B;font-size:8.0px;stroke:none;">Fig. 3</text>
   <text y="705.09" x="84.869" svgx:width="0.5" style="fill:rgb(19,20,19);font-family:JdwltdAdvTT99c4c969;font-size:8.0px;stroke:none;">a</text>
   <text y="705.09" x="91.219,95.219,98.81899999999999,101.197,105.029,111.525,113.189,116.101,119.013,120.677,124.925,129.165,131.528,134.44,138.768,142.6,146.096,148.512,150.84,154.44,156.756,158.836,163.084,165.404,167.811,170.971,174.803,179.051,180.715,182.379,184.795,188.627,190.955,194.684,199.348,200.70800000000003,203.074,206.906,208.234,212.074,213.619,219.363,221.779,227.619,230.003,233.667,237.827,240.208,244.536,248.784,253.032,255.944,260.272,264.52,268.768,271.096,273.976,276.321,279.233,280.897,285.145,287.561,291.393,293.721,297.553,301.873,304.214,307.79,310.19,312.605,316.933,318.597,320.677,322.757,326.589,328.917,332.748,336.996,339.39599999999996,341.745,344.161,347.993,354.489,358.817,362.649,364.977,368.553,370.969,375.129,377.457,381.204,384.116,385.476,387.836,390.164,393.996,396.908,401.236,405.068,408.564,410.98,412.644,416.22,420.052,421.716,425.212,426.572,428.882,432.546,436.794,440.63399999999996,442.999,444.663,448.911,451.823,455.655,458.05499999999995,460.46,463.372,467.62,471.868,477.612,480.492,482.853,485.269,489.517,493.35699999999997,495.723,502.219,505.795,510.123,514.371,516.035,518.115,521.611,523.275,527.522" svgx:width="0.5,0.45,0.55,0.48,0.81,0.21,0.36,0.36,0.21,0.53,0.53,0.55,0.36,0.54,0.48,0.44,0.3,0.29,0.45,0.55,0.26,0.53,0.29,0.55,0.4,0.48,0.53,0.21,0.21,0.3,0.48,0.29,0.48,0.58,0.17,0.55,0.48,0.17,0.48,0.55,0.72,0.3,0.73,0.55,0.46,0.52,0.55,0.54,0.53,0.53,0.36,0.54,0.53,0.53,0.29,0.36,0.55,0.36,0.21,0.53,0.3,0.48,0.29,0.48,0.54,0.55,0.45,0.3,0.55,0.54,0.21,0.26,0.26,0.48,0.29,0.48,0.53,0.3,0.55,0.3,0.48,0.81,0.54,0.48,0.29,0.45,0.3,0.52,0.29,0.48,0.36,0.17,0.55,0.29,0.48,0.36,0.54,0.48,0.44,0.3,0.21,0.45,0.48,0.21,0.44,0.17,0.55,0.46,0.53,0.48,0.55,0.21,0.53,0.36,0.48,0.3,0.55,0.36,0.53,0.53,0.72,0.36,0.55,0.3,0.53,0.48,0.55,0.81,0.45,0.54,0.53,0.21,0.26,0.44,0.21,0.53,0.54" style="fill:rgb(19,20,19);font-family:XgcjxvAdvTTb5929f4c;font-size:8.0px;stroke:none;">PL emission spectra for zeolite-3A: 1.3 wt% Eu phosphors sintered at different temperatures, respectively. The inset shows the magnifying</text>
   <text y="715.068" x="62.702,65.614,69.942,73.774,77.27,79.686,82.014,85.59" svgx:width="0.36,0.54,0.48,0.44,0.3,0.29,0.45,0.17" style="fill:rgb(19,20,19);font-family:XgcjxvAdvTTb5929f4c;font-size:8.0px;stroke:none;">spectra.</text>
   <text y="715.068" x="89.291" svgx:width="0.58" style="fill:rgb(19,20,19);font-family:JdwltdAdvTT99c4c969;font-size:8.0px;stroke:none;">b</text>
   <text y="715.068" x="96.32,100.648,104.896,109.144,111.56,115.808,117.472,121.632,128.128,129.792,134.04,137.763,140.675,144.171,148.003,152.251,155.747,159.58700000000002,161.914,165.746,169.162,172.658,174.322,176.738,180.314,182.73,184.394,188.642,192.882,195.249,197.329,201.329,204.905,208.569,210.649,212.994,216.57,220.818,225.138,227.507,231.835,236.083,240.331,242.747,246.995,248.659,252.819,259.315,260.979,265.227,269.059,271.971,275.356,279.188,283.436,286.932,290.772,293.158,295.238,299.238,302.814,304.894,307.274,311.106,317.602,319.266,322.178,325.09,326.754,331.002,335.242,337.548,340.46,344.788,348.62,352.116,354.532,356.86,360.46000000000004,362.834,364.914,369.162,371.48199999999997,373.832,376.992,380.824,385.072,386.736,388.4,390.816,394.648,396.976,400.807,405.471,406.831,409.151,412.983,414.311,418.15099999999995,419.696,425.44,427.856,433.69599999999997,436.081,439.745,443.90500000000003,446.285,450.613,454.861,459.109,462.021,466.349,470.493,474.741,477.069,479.949,482.398,485.31,486.974,491.222,493.638,497.47,499.798,503.63,507.95,510.292,513.868" svgx:width="0.54,0.53,0.53,0.3,0.53,0.21,0.52,0.81,0.21,0.53,0.48,0.36,0.44,0.48,0.53,0.44,0.48,0.55,0.48,0.43,0.44,0.21,0.3,0.45,0.3,0.21,0.53,0.53,0.55,0.26,0.5,0.45,0.46,0.26,0.55,0.45,0.53,0.54,0.55,0.54,0.53,0.53,0.3,0.53,0.21,0.52,0.81,0.21,0.53,0.48,0.36,0.44,0.48,0.53,0.44,0.48,0.55,0.26,0.5,0.45,0.26,0.55,0.48,0.81,0.21,0.36,0.36,0.21,0.53,0.53,0.55,0.36,0.54,0.48,0.44,0.3,0.29,0.45,0.55,0.26,0.53,0.29,0.55,0.4,0.48,0.53,0.21,0.21,0.3,0.48,0.29,0.48,0.58,0.17,0.55,0.48,0.17,0.48,0.55,0.72,0.3,0.73,0.55,0.46,0.52,0.55,0.54,0.53,0.53,0.36,0.54,0.53,0.53,0.29,0.36,0.55,0.36,0.21,0.53,0.3,0.48,0.29,0.48,0.54,0.55,0.45,0.3" style="fill:rgb(19,20,19);font-family:XgcjxvAdvTTb5929f4c;font-size:8.0px;stroke:none;">photoluminescence excitation (PLE) and photoluminescence (PL) emission spectra for zeolite-3A: 1.3 wt% Eu phosphors sintered at</text>
   <text y="725.102" x="62.701,66.533,70.365,74.197,78.037,79.54,81.868,86.348,88.78,90.86,95.108,97.428,99.779,103.619,105.221,109.469,110.829,113.158,116.822,121.07,124.91,127.274,128.938,133.186,136.098,139.93,142.33,144.736,146.4,149.28,151.709,154.125,158.373,162.213,164.579,168.907,173.155,177.402,179.818,184.066,188.394,190.722,194.298,198.537,202.77700000000002,205.17,209.418,211.49800000000002,213.901,216.317,220.565,224.405,226.771,229.683,233.258,239.754,244.082,245.746,249.586,251.885,257.629,259.293,261.709,265.949,268.326,270.742,274.99,278.83,281.195,282.859,284.523,286.187,290.347,296.843,298.507,302.755,306.331,308.747,312.995,317.235,319.577,323.825,325.905,328.308,331.908,334.26,338.092,341.924,345.756,348.084,352.332,358.812,361.19,366.19,370.19,372.528,374.192,377.768,384.264" svgx:width="0.48,0.48,0.48,0.48,0.55,0.29,0.56,0.55,0.26,0.53,0.29,0.55,0.48,0.55,0.53,0.17,0.55,0.46,0.53,0.48,0.55,0.21,0.53,0.36,0.48,0.3,0.55,0.21,0.36,0.55,0.3,0.53,0.48,0.55,0.54,0.53,0.53,0.3,0.53,0.54,0.29,0.45,0.54,0.53,0.55,0.53,0.26,0.55,0.3,0.53,0.48,0.55,0.36,0.45,0.81,0.54,0.21,0.48,0.55,0.72,0.21,0.3,0.53,0.55,0.3,0.53,0.48,0.55,0.21,0.21,0.21,0.52,0.81,0.21,0.53,0.45,0.3,0.53,0.53,0.55,0.53,0.26,0.55,0.45,0.55,0.48,0.48,0.48,0.29,0.53,0.81,0.55,0.63,0.5,0.55,0.21,0.45,0.81,0.54" style="fill:rgb(19,20,19);font-family:XgcjxvAdvTTb5929f4c;font-size:8.0px;stroke:none;">1400 °C for 3 h. The inset is the photograph of the sample with the illuminaton of a 365-nm UV lamp</text>
   <text y="39.008" x="56.692,63.436" svgx:width="0.84,0.54" style="fill:rgb(19,20,19);font-family:NwgmntAdvTTe45e47d2;font-size:8.0px;stroke:none;">Wu</text>
   <text y="39.008" x="70.128,73.704,76.184,78.632,82.792,84.536,86.21600000000001,88.553,93.553,97.713,101.961,106.121,109.033,112.361,116.521,118.265,121.865,124.213,128.373,131.949,134.861,138.437,142.597,145.092,148.42,152.66,154.997,158.493,162.069,164.565,167.061,170.637,173.133" svgx:width="0.45,0.31,0.55,0.52,0.22,0.21,0.55,0.63,0.52,0.53,0.52,0.36,0.42,0.52,0.22,0.45,0.55,0.52,0.45,0.36,0.45,0.52,0.31,0.42,0.53,0.55,0.44,0.45,0.31,0.31,0.45,0.31,0.36" style="fill:rgb(19,20,19);font-family:RkpdlpAdvTT7329fd89.I;font-size:8.0px;stroke:none;">et al. Nanoscale Research Letters</text>
   <text y="39.008" x="178.41,180.106,181.802,183.498,185.194,186.89,188.586,190.282,191.978,193.674,195.946,200.05,204.154,208.258,212.362,214.634,216.33,220.434,224.538,226.194,230.298,234.402,238.506" svgx:width="0.21,0.21,0.21,0.21,0.21,0.21,0.21,0.21,0.21,0.28,0.51,0.51,0.51,0.51,0.28,0.21,0.51,0.51,0.21,0.51,0.51,0.51,0.21" style="fill:rgb(19,20,19);font-family:MyriadPro-Regular;font-size:8.0px;stroke:none;"> (2019) 14:298 </text>
   <text y="39.008" x="500.142,504.39,508.222,512.637,516.637,519.021,523.101,525.484,529.812,532.1320000000001,534.498" svgx:width="0.53,0.48,0.55,0.5,0.55,0.51,0.55,0.54,0.29,0.55,0.51" style="fill:rgb(19,20,19);font-family:NwgmntAdvTTe45e47d2;font-size:8.0px;stroke:none;">Page 4 of 7</text>
  </g>
 </g>
</svg>
