<?xml version="1.0" encoding="UTF-8"?>
<svg height="631.519" width="361.55" xmlns="http://www.w3.org/2000/svg">
 <g id="page" xmlns:svgx="http://www.xml-cml.org/schema/svgx">
  <path style="fill:rgb(0,0,0);stroke:none;stroke-width:1.0;" d="M110.72 81.07 L351.55 81.07 L351.55 81.58 L110.72 81.58 "/>
  <g begin="text">
   <text y="68.599" x="110.721,114.123,117.71,121.715,123.85,127.2314,129.316" svgx:width="0.56,0.54,0.6,0.32,0.53,0.55,0.57" style="fill:rgb(0,0,0);font-family:AdvOTb83ee1dd.B;font-size:6.38px;stroke:none;">Table 9</text>
   <text y="77.159" x="110.721,114.653,118.38,122.385,126.14920000000001,128.295,130.225,133.673,137.678,141.265,143.679,147.684,150.4912,152.616,154.963,159.313,161.546,163.614,166.995,171.001,174.7652,176.936,180.318,184.323,187.91,189.84,193.288,196.0952,198.195" svgx:width="0.59,0.56,0.6,0.59,0.55,0.29,0.52,0.6,0.54,0.36,0.6,0.44,0.55,0.35,0.66,0.35,0.55,0.51,0.6,0.59,0.55,0.51,0.6,0.54,0.29,0.52,0.44,0.55,0.35" style="fill:rgb(0,0,0);font-family:AdvOT863180fb;font-size:6.38px;stroke:none;">Bond lengths [Å] and angles [</text>
   <text y="74.891" code="2" x="200.523" svgx:width="0.5" style="fill:rgb(0,0,0);font-family:AdvP4C4E74;font-size:4.46px;stroke:none;">?</text>
   <text y="77.159" x="203.357,205.59,207.666,209.801,213.528" svgx:width="0.35,0.55,0.32,0.56,0.41" style="fill:rgb(0,0,0);font-family:AdvOT863180fb;font-size:6.38px;stroke:none;">] for</text>
   <text y="77.159" x="218.211,222.004" svgx:width="0.57,0.57" style="fill:rgb(0,0,0);font-family:AdvOTb83ee1dd.B;font-size:6.38px;stroke:none;">24</text>
   <text y="77.159" x="225.751" svgx:width="0.23" style="fill:rgb(0,0,0);font-family:AdvOT863180fb;font-size:6.38px;stroke:none;">.</text>
   <text y="90.255" x="116.674,119.9916,122.116,124.53,128.323" svgx:width="0.52,0.55,0.36,0.57,0.36" style="fill:rgb(0,0,0);font-family:AdvOT863180fb;font-size:6.38px;stroke:none;">S (1)</text>
   <text y="90.255" x="130.79" svgx:width="0.75" style="fill:rgb(0,0,0);font-family:AdvPS44A44B;font-size:6.38px;stroke:none;">e</text>
   <text y="90.255" x="135.722,140.2518,142.412,144.825,148.618,150.91479999999999,310.676,314.468,315.987,319.78,323.573,327.365,331.0016,333.125,335.538,339.331" svgx:width="0.71,0.55,0.36,0.57,0.36,0.55,0.57,0.23,0.57,0.57,0.57,0.57,0.55,0.36,0.57,0.36" style="fill:rgb(0,0,0);font-family:AdvOT863180fb;font-size:6.38px;stroke:none;">O (5) 1.4391 (7)</text>
   <text y="98.873" x="116.673,119.9906,122.116,124.529,128.322" svgx:width="0.52,0.55,0.36,0.57,0.36" style="fill:rgb(0,0,0);font-family:AdvOT863180fb;font-size:6.38px;stroke:none;">S (1)</text>
   <text y="98.873" x="130.789" svgx:width="0.75" style="fill:rgb(0,0,0);font-family:AdvPS44A44B;font-size:6.38px;stroke:none;">e</text>
   <text y="98.873" x="135.721,140.2508,142.411,144.825,148.618,150.91479999999999,310.675,314.468,315.986,319.779,323.572,327.365,331.0016,333.124,335.538,339.331" svgx:width="0.71,0.55,0.36,0.57,0.36,0.55,0.57,0.23,0.57,0.57,0.57,0.57,0.55,0.36,0.57,0.36" style="fill:rgb(0,0,0);font-family:AdvOT863180fb;font-size:6.38px;stroke:none;">O (4) 1.4389 (7)</text>
   <text y="107.434" x="116.672,119.9896,122.115,124.528,128.321" svgx:width="0.52,0.55,0.36,0.57,0.36" style="fill:rgb(0,0,0);font-family:AdvOT863180fb;font-size:6.38px;stroke:none;">S (1)</text>
   <text y="107.434" x="130.789" svgx:width="0.75" style="fill:rgb(0,0,0);font-family:AdvPS44A44B;font-size:6.38px;stroke:none;">e</text>
   <text y="107.434" x="135.721,140.3784,142.58,144.994,148.787,151.0838,310.674,314.467,315.986,319.778,323.571,327.364,331.00059999999996,333.124,335.537,339.33" svgx:width="0.73,0.55,0.36,0.57,0.36,0.55,0.57,0.23,0.57,0.57,0.57,0.57,0.55,0.36,0.57,0.36" style="fill:rgb(0,0,0);font-family:AdvOT863180fb;font-size:6.38px;stroke:none;">N (1) 1.6694 (7)</text>
   <text y="115.994" x="116.672,119.9896,122.114,124.528,128.321" svgx:width="0.52,0.55,0.36,0.57,0.36" style="fill:rgb(0,0,0);font-family:AdvOT863180fb;font-size:6.38px;stroke:none;">S (1)</text>
   <text y="115.994" x="130.788" svgx:width="0.75" style="fill:rgb(0,0,0);font-family:AdvPS44A44B;font-size:6.38px;stroke:none;">e</text>
   <text y="115.994" x="135.72,139.4842,141.672,144.086,147.879,151.672,153.9688,310.674,314.466,315.985,319.778,323.57,327.363,330.9996,333.123,335.536,339.329" svgx:width="0.59,0.55,0.36,0.57,0.57,0.36,0.55,0.57,0.23,0.57,0.57,0.57,0.57,0.55,0.36,0.57,0.36" style="fill:rgb(0,0,0);font-family:AdvOT863180fb;font-size:6.38px;stroke:none;">C (16) 1.7733 (9)</text>
   <text y="124.555" x="116.671,121.2008,123.361,125.774,129.567" svgx:width="0.71,0.55,0.36,0.57,0.36" style="fill:rgb(0,0,0);font-family:AdvOT863180fb;font-size:6.38px;stroke:none;">O (1)</text>
   <text y="124.555" x="131.978" svgx:width="0.75" style="fill:rgb(0,0,0);font-family:AdvPS44A44B;font-size:6.38px;stroke:none;">e</text>
   <text y="124.555" x="136.967,140.7312,142.92,145.333,149.126,151.4228,310.674,314.466,315.985,319.778,323.57,327.363,330.9996,333.123,335.536,339.329,343.122" svgx:width="0.59,0.55,0.36,0.57,0.36,0.55,0.57,0.23,0.57,0.57,0.57,0.57,0.55,0.36,0.57,0.57,0.36" style="fill:rgb(0,0,0);font-family:AdvOT863180fb;font-size:6.38px;stroke:none;">C (1) 1.4121 (10)</text>
   <text y="133.115" x="116.671,121.2008,123.361,125.774,129.567" svgx:width="0.71,0.55,0.36,0.57,0.36" style="fill:rgb(0,0,0);font-family:AdvOT863180fb;font-size:6.38px;stroke:none;">O (1)</text>
   <text y="133.115" x="131.978" svgx:width="0.75" style="fill:rgb(0,0,0);font-family:AdvPS44A44B;font-size:6.38px;stroke:none;">e</text>
   <text y="133.115" x="136.967,140.7312,142.92,145.333,149.126,152.919,155.2158,310.674,314.466,315.985,319.778,323.57,327.363,330.9996,333.123,335.536,339.329,343.122" svgx:width="0.59,0.55,0.36,0.57,0.57,0.36,0.55,0.57,0.23,0.57,0.57,0.57,0.57,0.55,0.36,0.57,0.57,0.36" style="fill:rgb(0,0,0);font-family:AdvOT863180fb;font-size:6.38px;stroke:none;">C (11) 1.3599 (11)</text>
   <text y="141.675" x="116.671,121.2008,123.361,125.774,129.567" svgx:width="0.71,0.55,0.36,0.57,0.36" style="fill:rgb(0,0,0);font-family:AdvOT863180fb;font-size:6.38px;stroke:none;">O (3)</text>
   <text y="141.675" x="131.978" svgx:width="0.75" style="fill:rgb(0,0,0);font-family:AdvPS44A44B;font-size:6.38px;stroke:none;">e</text>
   <text y="141.675" x="136.967,140.7312,142.92,145.333,149.126,151.4228,310.674,314.466,315.985,319.778,323.57,327.363,330.9996,333.123,335.536,339.329,343.122" svgx:width="0.59,0.55,0.36,0.57,0.36,0.55,0.57,0.23,0.57,0.57,0.57,0.57,0.55,0.36,0.57,0.57,0.36" style="fill:rgb(0,0,0);font-family:AdvOT863180fb;font-size:6.38px;stroke:none;">C (6) 1.4383 (11)</text>
   <text y="150.236" x="116.671,121.2008,123.361,125.774,129.567" svgx:width="0.71,0.55,0.36,0.57,0.36" style="fill:rgb(0,0,0);font-family:AdvOT863180fb;font-size:6.38px;stroke:none;">O (3)</text>
   <text y="150.236" x="131.978" svgx:width="0.75" style="fill:rgb(0,0,0);font-family:AdvPS44A44B;font-size:6.38px;stroke:none;">e</text>
   <text y="150.236" x="136.967,140.7312,142.92,145.333,149.126,151.4228,310.674,314.466,315.985,319.778,323.57,327.363,330.9996,333.123,335.536,339.329,343.122" svgx:width="0.59,0.55,0.36,0.57,0.36,0.55,0.57,0.23,0.57,0.57,0.57,0.57,0.55,0.36,0.57,0.57,0.36" style="fill:rgb(0,0,0);font-family:AdvOT863180fb;font-size:6.38px;stroke:none;">C (9) 1.4376 (11)</text>
   <text y="158.853" x="116.671,121.3284,123.531,125.944,129.737" svgx:width="0.73,0.55,0.36,0.57,0.36" style="fill:rgb(0,0,0);font-family:AdvOT863180fb;font-size:6.38px;stroke:none;">N (1)</text>
   <text y="158.853" x="132.148" svgx:width="0.75" style="fill:rgb(0,0,0);font-family:AdvPS44A44B;font-size:6.38px;stroke:none;">e</text>
   <text y="158.853" x="137.137,140.9012,143.033,145.447,149.239,151.5358,310.674,314.466,315.985,319.778,323.57,327.363,330.9996,333.123,335.536,339.329,343.122" svgx:width="0.59,0.55,0.36,0.57,0.36,0.55,0.57,0.23,0.57,0.57,0.57,0.57,0.55,0.36,0.57,0.57,0.36" style="fill:rgb(0,0,0);font-family:AdvOT863180fb;font-size:6.38px;stroke:none;">C (3) 1.4834 (11)</text>
   <text y="167.413" x="116.671,121.3284,123.531,125.944,129.737" svgx:width="0.73,0.55,0.36,0.57,0.36" style="fill:rgb(0,0,0);font-family:AdvOT863180fb;font-size:6.38px;stroke:none;">N (1)</text>
   <text y="167.413" x="132.148" svgx:width="0.75" style="fill:rgb(0,0,0);font-family:AdvPS44A44B;font-size:6.38px;stroke:none;">e</text>
   <text y="167.413" x="137.137,140.9012,143.033,145.447,149.239,151.5358,310.674,314.466,315.985,319.778,323.57,327.363,330.9996,333.123,335.536,339.329,343.122" svgx:width="0.59,0.55,0.36,0.57,0.36,0.55,0.57,0.23,0.57,0.57,0.57,0.57,0.55,0.36,0.57,0.57,0.36" style="fill:rgb(0,0,0);font-family:AdvOT863180fb;font-size:6.38px;stroke:none;">C (4) 1.4870 (11)</text>
   <text y="175.974" x="116.671,120.43520000000001,122.623,125.037,128.83,132.623" svgx:width="0.59,0.55,0.36,0.57,0.57,0.36" style="fill:rgb(0,0,0);font-family:AdvOT863180fb;font-size:6.38px;stroke:none;">C (21)</text>
   <text y="175.974" x="135.04" svgx:width="0.75" style="fill:rgb(0,0,0);font-family:AdvPS44A44B;font-size:6.38px;stroke:none;">e</text>
   <text y="175.974" x="140.029,143.79319999999998,145.925,148.338,152.131,155.924,158.2208,310.674,314.466,315.985,319.778,323.57,327.363,330.9996,333.123,335.536,339.329,343.122" svgx:width="0.59,0.55,0.36,0.57,0.57,0.36,0.55,0.57,0.23,0.57,0.57,0.57,0.57,0.55,0.36,0.57,0.57,0.36" style="fill:rgb(0,0,0);font-family:AdvOT863180fb;font-size:6.38px;stroke:none;">C (16) 1.4133 (12)</text>
   <text y="184.534" x="116.671,120.43520000000001,122.623,125.037,128.83,132.623" svgx:width="0.59,0.55,0.36,0.57,0.57,0.36" style="fill:rgb(0,0,0);font-family:AdvOT863180fb;font-size:6.38px;stroke:none;">C (21)</text>
   <text y="184.534" x="135.04" svgx:width="0.75" style="fill:rgb(0,0,0);font-family:AdvPS44A44B;font-size:6.38px;stroke:none;">e</text>
   <text y="184.534" x="140.029,143.79319999999998,145.925,148.338,152.131,155.924,158.2208,310.674,314.466,315.985,319.778,323.57,327.363,330.9996,333.123,335.536,339.329,343.122" svgx:width="0.59,0.55,0.36,0.57,0.57,0.36,0.55,0.57,0.23,0.57,0.57,0.57,0.57,0.55,0.36,0.57,0.57,0.36" style="fill:rgb(0,0,0);font-family:AdvOT863180fb;font-size:6.38px;stroke:none;">C (24) 1.5095 (12)</text>
   <text y="193.095" x="116.671,120.43520000000001,122.623,125.037,128.83,132.623" svgx:width="0.59,0.55,0.36,0.57,0.57,0.36" style="fill:rgb(0,0,0);font-family:AdvOT863180fb;font-size:6.38px;stroke:none;">C (21)</text>
   <text y="193.095" x="135.04" svgx:width="0.75" style="fill:rgb(0,0,0);font-family:AdvPS44A44B;font-size:6.38px;stroke:none;">e</text>
   <text y="193.095" x="140.029,143.79319999999998,145.925,148.338,152.131,155.924,158.2208,310.674,314.466,315.985,319.778,323.57,327.363,330.9996,333.123,335.536,339.329,343.122" svgx:width="0.59,0.55,0.36,0.57,0.57,0.36,0.55,0.57,0.23,0.57,0.57,0.57,0.57,0.55,0.36,0.57,0.57,0.36" style="fill:rgb(0,0,0);font-family:AdvOT863180fb;font-size:6.38px;stroke:none;">C (20) 1.3953 (12)</text>
   <text y="201.655" x="116.671,120.43520000000001,122.623,125.037,128.83" svgx:width="0.59,0.55,0.36,0.57,0.36" style="fill:rgb(0,0,0);font-family:AdvOT863180fb;font-size:6.38px;stroke:none;">C (2)</text>
   <text y="201.655" x="131.241" svgx:width="0.75" style="fill:rgb(0,0,0);font-family:AdvPS44A44B;font-size:6.38px;stroke:none;">e</text>
   <text y="201.655" x="136.23,139.99419999999998,142.126,144.54,148.332,150.62879999999998,310.674,314.466,315.985,319.778,323.57,327.363,330.9996,333.123,335.536,339.329,343.122" svgx:width="0.59,0.55,0.36,0.57,0.36,0.55,0.57,0.23,0.57,0.57,0.57,0.57,0.55,0.36,0.57,0.57,0.36" style="fill:rgb(0,0,0);font-family:AdvOT863180fb;font-size:6.38px;stroke:none;">C (3) 1.4977 (12)</text>
   <text y="210.216" x="116.671,120.43520000000001,122.623,125.037,128.83" svgx:width="0.59,0.55,0.36,0.57,0.36" style="fill:rgb(0,0,0);font-family:AdvOT863180fb;font-size:6.38px;stroke:none;">C (2)</text>
   <text y="210.216" x="131.241" svgx:width="0.75" style="fill:rgb(0,0,0);font-family:AdvPS44A44B;font-size:6.38px;stroke:none;">e</text>
   <text y="210.216" x="136.23,139.99419999999998,142.126,144.54,148.332,150.62879999999998,310.674,314.466,315.985,319.778,323.57,327.363,330.9996,333.123,335.536,339.329,343.122" svgx:width="0.59,0.55,0.36,0.57,0.36,0.55,0.57,0.23,0.57,0.57,0.57,0.57,0.55,0.36,0.57,0.57,0.36" style="fill:rgb(0,0,0);font-family:AdvOT863180fb;font-size:6.38px;stroke:none;">C (6) 1.5281 (11)</text>
   <text y="218.776" x="116.671,120.43520000000001,122.623,125.037,128.83" svgx:width="0.59,0.55,0.36,0.57,0.36" style="fill:rgb(0,0,0);font-family:AdvOT863180fb;font-size:6.38px;stroke:none;">C (2)</text>
   <text y="218.776" x="131.241" svgx:width="0.75" style="fill:rgb(0,0,0);font-family:AdvPS44A44B;font-size:6.38px;stroke:none;">e</text>
   <text y="218.776" x="136.23,139.99419999999998,142.126,144.54,148.332,150.62879999999998,310.674,314.466,315.985,319.778,323.57,327.363,330.9996,333.123,335.536,339.329,343.122" svgx:width="0.59,0.55,0.36,0.57,0.36,0.55,0.57,0.23,0.57,0.57,0.57,0.57,0.55,0.36,0.57,0.57,0.36" style="fill:rgb(0,0,0);font-family:AdvOT863180fb;font-size:6.38px;stroke:none;">C (1) 1.3322 (11)</text>
   <text y="227.393" x="116.671,120.43520000000001,122.623,125.037,128.83,132.623" svgx:width="0.59,0.55,0.36,0.57,0.57,0.36" style="fill:rgb(0,0,0);font-family:AdvOT863180fb;font-size:6.38px;stroke:none;">C (16)</text>
   <text y="227.393" x="135.04" svgx:width="0.75" style="fill:rgb(0,0,0);font-family:AdvPS44A44B;font-size:6.38px;stroke:none;">e</text>
   <text y="227.393" x="140.029,143.79319999999998,145.925,148.338,152.131,155.924,158.2208,310.674,314.466,315.985,319.778,323.57,327.363,330.9996,333.123,335.536,339.329,343.122" svgx:width="0.59,0.55,0.36,0.57,0.57,0.36,0.55,0.57,0.23,0.57,0.57,0.57,0.57,0.55,0.36,0.57,0.57,0.36" style="fill:rgb(0,0,0);font-family:AdvOT863180fb;font-size:6.38px;stroke:none;">C (17) 1.4134 (12)</text>
   <text y="235.954" x="116.671,121.2008,123.361,125.774,129.567" svgx:width="0.71,0.55,0.36,0.57,0.36" style="fill:rgb(0,0,0);font-family:AdvOT863180fb;font-size:6.38px;stroke:none;">O (2)</text>
   <text y="235.954" x="131.978" svgx:width="0.75" style="fill:rgb(0,0,0);font-family:AdvPS44A44B;font-size:6.38px;stroke:none;">e</text>
   <text y="235.954" x="136.967,140.7312,142.92,145.333,149.126,152.919,155.2158,310.674,314.466,315.985,319.778,323.57,327.363,330.9996,333.123,335.536,339.329,343.122" svgx:width="0.59,0.55,0.36,0.57,0.57,0.36,0.55,0.57,0.23,0.57,0.57,0.57,0.57,0.55,0.36,0.57,0.57,0.36" style="fill:rgb(0,0,0);font-family:AdvOT863180fb;font-size:6.38px;stroke:none;">C (11) 1.2002 (11)</text>
   <text y="244.514" x="116.671,120.43520000000001,122.623,125.037,128.83" svgx:width="0.59,0.55,0.36,0.57,0.36" style="fill:rgb(0,0,0);font-family:AdvOT863180fb;font-size:6.38px;stroke:none;">C (4)</text>
   <text y="244.514" x="131.241" svgx:width="0.75" style="fill:rgb(0,0,0);font-family:AdvPS44A44B;font-size:6.38px;stroke:none;">e</text>
   <text y="244.514" x="136.23,139.99419999999998,142.126,144.54,148.332,150.62879999999998,310.674,314.466,315.985,319.778,323.57,327.363,330.9996,333.123,335.536,339.329,343.122" svgx:width="0.59,0.55,0.36,0.57,0.36,0.55,0.57,0.23,0.57,0.57,0.57,0.57,0.55,0.36,0.57,0.57,0.36" style="fill:rgb(0,0,0);font-family:AdvOT863180fb;font-size:6.38px;stroke:none;">C (5) 1.5192 (13)</text>
   <text y="253.074" x="116.671,120.43520000000001,122.623,125.037,128.83" svgx:width="0.59,0.55,0.36,0.57,0.36" style="fill:rgb(0,0,0);font-family:AdvOT863180fb;font-size:6.38px;stroke:none;">C (6)</text>
   <text y="253.074" x="131.241" svgx:width="0.75" style="fill:rgb(0,0,0);font-family:AdvPS44A44B;font-size:6.38px;stroke:none;">e</text>
   <text y="253.074" x="136.23,139.99419999999998,142.126,144.54,148.332,150.62879999999998,310.674,314.466,315.985,319.778,323.57,327.363,330.9996,333.123,335.536,339.329,343.122" svgx:width="0.59,0.55,0.36,0.57,0.36,0.55,0.57,0.23,0.57,0.57,0.57,0.57,0.55,0.36,0.57,0.57,0.36" style="fill:rgb(0,0,0);font-family:AdvOT863180fb;font-size:6.38px;stroke:none;">C (5) 1.5146 (12)</text>
   <text y="261.635" x="116.671,120.43520000000001,122.623,125.037,128.83" svgx:width="0.59,0.55,0.36,0.57,0.36" style="fill:rgb(0,0,0);font-family:AdvOT863180fb;font-size:6.38px;stroke:none;">C (6)</text>
   <text y="261.635" x="131.241" svgx:width="0.75" style="fill:rgb(0,0,0);font-family:AdvPS44A44B;font-size:6.38px;stroke:none;">e</text>
   <text y="261.635" x="136.23,139.99419999999998,142.126,144.54,148.332,150.62879999999998,310.674,314.466,315.985,319.778,323.57,327.363,330.9996,333.123,335.536,339.329,343.122" svgx:width="0.59,0.55,0.36,0.57,0.36,0.55,0.57,0.23,0.57,0.57,0.57,0.57,0.55,0.36,0.57,0.57,0.36" style="fill:rgb(0,0,0);font-family:AdvOT863180fb;font-size:6.38px;stroke:none;">C (7) 1.5275 (12)</text>
   <text y="270.195" x="116.671,120.43520000000001,122.623,125.037,128.83" svgx:width="0.59,0.55,0.36,0.57,0.36" style="fill:rgb(0,0,0);font-family:AdvOT863180fb;font-size:6.38px;stroke:none;">C (1)</text>
   <text y="270.195" x="131.241" svgx:width="0.75" style="fill:rgb(0,0,0);font-family:AdvPS44A44B;font-size:6.38px;stroke:none;">e</text>
   <text y="270.195" x="136.23,139.99419999999998,142.126,144.54,148.332,152.125,154.4218,310.674,314.466,315.985,319.778,323.57,327.363,330.9996,333.123,335.536,339.329,343.122" svgx:width="0.59,0.55,0.36,0.57,0.57,0.36,0.55,0.57,0.23,0.57,0.57,0.57,0.57,0.55,0.36,0.57,0.57,0.36" style="fill:rgb(0,0,0);font-family:AdvOT863180fb;font-size:6.38px;stroke:none;">C (10) 1.5149 (12)</text>
   <text y="278.756" x="116.671,120.43520000000001,122.623,125.037,128.83,132.623" svgx:width="0.59,0.55,0.36,0.57,0.57,0.36" style="fill:rgb(0,0,0);font-family:AdvOT863180fb;font-size:6.38px;stroke:none;">C (11)</text>
   <text y="278.756" x="135.04" svgx:width="0.75" style="fill:rgb(0,0,0);font-family:AdvPS44A44B;font-size:6.38px;stroke:none;">e</text>
   <text y="278.756" x="140.029,143.79319999999998,145.925,148.338,152.131,155.924,158.2208,310.674,314.466,315.985,319.778,323.57,327.363,330.9996,333.123,335.536,339.329,343.122" svgx:width="0.59,0.55,0.36,0.57,0.57,0.36,0.55,0.57,0.23,0.57,0.57,0.57,0.57,0.55,0.36,0.57,0.57,0.36" style="fill:rgb(0,0,0);font-family:AdvOT863180fb;font-size:6.38px;stroke:none;">C (12) 1.5281 (13)</text>
   <text y="287.316" x="116.671,120.43520000000001,122.623,125.037,128.83,132.623" svgx:width="0.59,0.55,0.36,0.57,0.57,0.36" style="fill:rgb(0,0,0);font-family:AdvOT863180fb;font-size:6.38px;stroke:none;">C (17)</text>
   <text y="287.316" x="135.04" svgx:width="0.75" style="fill:rgb(0,0,0);font-family:AdvPS44A44B;font-size:6.38px;stroke:none;">e</text>
   <text y="287.316" x="140.029,143.79319999999998,145.925,148.338,152.131,155.924,158.2208,310.674,314.466,315.985,319.778,323.57,327.363,330.9996,333.123,335.536,339.329,343.122" svgx:width="0.59,0.55,0.36,0.57,0.57,0.36,0.55,0.57,0.23,0.57,0.57,0.57,0.57,0.55,0.36,0.57,0.57,0.36" style="fill:rgb(0,0,0);font-family:AdvOT863180fb;font-size:6.38px;stroke:none;">C (18) 1.3970 (13)</text>
   <text y="295.933" x="116.671,120.43520000000001,122.623,125.037,128.83,132.623" svgx:width="0.59,0.55,0.36,0.57,0.57,0.36" style="fill:rgb(0,0,0);font-family:AdvOT863180fb;font-size:6.38px;stroke:none;">C (17)</text>
   <text y="295.933" x="135.04" svgx:width="0.75" style="fill:rgb(0,0,0);font-family:AdvPS44A44B;font-size:6.38px;stroke:none;">e</text>
   <text y="295.933" x="140.029,143.79319999999998,145.925,148.338,152.131,155.924,158.2208,310.674,314.466,315.985,319.778,323.57,327.363,330.9996,333.123,335.536,339.329,343.122" svgx:width="0.59,0.55,0.36,0.57,0.57,0.36,0.55,0.57,0.23,0.57,0.57,0.57,0.57,0.55,0.36,0.57,0.57,0.36" style="fill:rgb(0,0,0);font-family:AdvOT863180fb;font-size:6.38px;stroke:none;">C (22) 1.5103 (13)</text>
   <text y="304.494" x="116.671,120.43520000000001,122.623,125.037,128.83,132.623" svgx:width="0.59,0.55,0.36,0.57,0.57,0.36" style="fill:rgb(0,0,0);font-family:AdvOT863180fb;font-size:6.38px;stroke:none;">C (19)</text>
   <text y="304.494" x="135.04" svgx:width="0.75" style="fill:rgb(0,0,0);font-family:AdvPS44A44B;font-size:6.38px;stroke:none;">e</text>
   <text y="304.494" x="140.029,143.79319999999998,145.925,148.338,152.131,155.924,158.2208,310.674,314.466,315.985,319.778,323.57,327.363,330.9996,333.123,335.536,339.329,343.122" svgx:width="0.59,0.55,0.36,0.57,0.57,0.36,0.55,0.57,0.23,0.57,0.57,0.57,0.57,0.55,0.36,0.57,0.57,0.36" style="fill:rgb(0,0,0);font-family:AdvOT863180fb;font-size:6.38px;stroke:none;">C (20) 1.3921 (13)</text>
   <text y="313.054" x="116.671,120.43520000000001,122.623,125.037,128.83,132.623" svgx:width="0.59,0.55,0.36,0.57,0.57,0.36" style="fill:rgb(0,0,0);font-family:AdvOT863180fb;font-size:6.38px;stroke:none;">C (19)</text>
   <text y="313.054" x="135.04" svgx:width="0.75" style="fill:rgb(0,0,0);font-family:AdvPS44A44B;font-size:6.38px;stroke:none;">e</text>
   <text y="313.054" x="140.029,143.79319999999998,145.925,148.338,152.131,155.924,158.2208,310.674,314.466,315.985,319.778,323.57,327.363,330.9996,333.123,335.536,339.329,343.122" svgx:width="0.59,0.55,0.36,0.57,0.57,0.36,0.55,0.57,0.23,0.57,0.57,0.57,0.57,0.55,0.36,0.57,0.57,0.36" style="fill:rgb(0,0,0);font-family:AdvOT863180fb;font-size:6.38px;stroke:none;">C (18) 1.3914 (13)</text>
   <text y="321.615" x="116.671,120.43520000000001,122.623,125.037,128.83,132.623" svgx:width="0.59,0.55,0.36,0.57,0.57,0.36" style="fill:rgb(0,0,0);font-family:AdvOT863180fb;font-size:6.38px;stroke:none;">C (19)</text>
   <text y="321.615" x="135.04" svgx:width="0.75" style="fill:rgb(0,0,0);font-family:AdvPS44A44B;font-size:6.38px;stroke:none;">e</text>
   <text y="321.615" x="140.029,143.79319999999998,145.925,148.338,152.131,155.924,158.2208,310.674,314.466,315.985,319.778,323.57,327.363,330.9996,333.123,335.536,339.329,343.122" svgx:width="0.59,0.55,0.36,0.57,0.57,0.36,0.55,0.57,0.23,0.57,0.57,0.57,0.57,0.55,0.36,0.57,0.57,0.36" style="fill:rgb(0,0,0);font-family:AdvOT863180fb;font-size:6.38px;stroke:none;">C (23) 1.5042 (13)</text>
   <text y="330.175" x="116.671,120.43520000000001,122.623,125.037,128.83,132.623" svgx:width="0.59,0.55,0.36,0.57,0.57,0.36" style="fill:rgb(0,0,0);font-family:AdvOT863180fb;font-size:6.38px;stroke:none;">C (10)</text>
   <text y="330.175" x="135.04" svgx:width="0.75" style="fill:rgb(0,0,0);font-family:AdvPS44A44B;font-size:6.38px;stroke:none;">e</text>
   <text y="330.175" x="140.029,143.79319999999998,145.925,148.338,152.131,154.4278,310.674,314.466,315.985,319.778,323.57,327.363,330.9996,333.123,335.536,339.329,343.122" svgx:width="0.59,0.55,0.36,0.57,0.36,0.55,0.57,0.23,0.57,0.57,0.57,0.57,0.55,0.36,0.57,0.57,0.36" style="fill:rgb(0,0,0);font-family:AdvOT863180fb;font-size:6.38px;stroke:none;">C (9) 1.5561 (14)</text>
   <text y="338.735" x="116.671,120.43520000000001,122.623,125.037,128.83,132.623" svgx:width="0.59,0.55,0.36,0.57,0.57,0.36" style="fill:rgb(0,0,0);font-family:AdvOT863180fb;font-size:6.38px;stroke:none;">C (10)</text>
   <text y="338.735" x="135.04" svgx:width="0.75" style="fill:rgb(0,0,0);font-family:AdvPS44A44B;font-size:6.38px;stroke:none;">e</text>
   <text y="338.735" x="140.029,143.79319999999998,145.925,148.338,152.131,155.924,158.2208,310.674,314.466,315.985,319.778,323.57,327.363,330.9996,333.123,335.536,339.329,343.122" svgx:width="0.59,0.55,0.36,0.57,0.57,0.36,0.55,0.57,0.23,0.57,0.57,0.57,0.57,0.55,0.36,0.57,0.57,0.36" style="fill:rgb(0,0,0);font-family:AdvOT863180fb;font-size:6.38px;stroke:none;">C (25) 1.5350 (13)</text>
   <text y="347.296" x="116.671,120.43520000000001,122.623,125.037,128.83,132.623" svgx:width="0.59,0.55,0.36,0.57,0.57,0.36" style="fill:rgb(0,0,0);font-family:AdvOT863180fb;font-size:6.38px;stroke:none;">C (10)</text>
   <text y="347.296" x="135.04" svgx:width="0.75" style="fill:rgb(0,0,0);font-family:AdvPS44A44B;font-size:6.38px;stroke:none;">e</text>
   <text y="347.296" x="140.029,143.79319999999998,145.925,148.338,152.131,155.924,158.2208,310.674,314.466,315.985,319.778,323.57,327.363,330.9996,333.123,335.536,339.329,343.122" svgx:width="0.59,0.55,0.36,0.57,0.57,0.36,0.55,0.57,0.23,0.57,0.57,0.57,0.57,0.55,0.36,0.57,0.57,0.36" style="fill:rgb(0,0,0);font-family:AdvOT863180fb;font-size:6.38px;stroke:none;">C (26) 1.5350 (14)</text>
   <text y="355.913" x="116.671,120.43520000000001,122.623,125.037,128.83" svgx:width="0.59,0.55,0.36,0.57,0.36" style="fill:rgb(0,0,0);font-family:AdvOT863180fb;font-size:6.38px;stroke:none;">C (9)</text>
   <text y="355.913" x="131.241" svgx:width="0.75" style="fill:rgb(0,0,0);font-family:AdvPS44A44B;font-size:6.38px;stroke:none;">e</text>
   <text y="355.913" x="136.23,139.99419999999998,142.126,144.54,148.332,150.62879999999998,310.674,314.466,315.985,319.778,323.57,327.363,330.9996,333.123,335.536,339.329,343.122" svgx:width="0.59,0.55,0.36,0.57,0.36,0.55,0.57,0.23,0.57,0.57,0.57,0.57,0.55,0.36,0.57,0.57,0.36" style="fill:rgb(0,0,0);font-family:AdvOT863180fb;font-size:6.38px;stroke:none;">C (8) 1.5178 (15)</text>
   <text y="364.473" x="116.671,120.43520000000001,122.623,125.037,128.83" svgx:width="0.59,0.55,0.36,0.57,0.36" style="fill:rgb(0,0,0);font-family:AdvOT863180fb;font-size:6.38px;stroke:none;">C (7)</text>
   <text y="364.473" x="131.241" svgx:width="0.75" style="fill:rgb(0,0,0);font-family:AdvPS44A44B;font-size:6.38px;stroke:none;">e</text>
   <text y="364.479" x="136.233,139.9972,142.129,144.543,148.336,150.6328,310.677,314.47,315.988,319.781,323.574,327.366,331.0026,333.126,335.54,339.332,343.125" svgx:width="0.59,0.55,0.36,0.57,0.36,0.55,0.57,0.23,0.57,0.57,0.57,0.57,0.55,0.36,0.57,0.57,0.36" style="fill:rgb(0,0,0);font-family:AdvOT863180fb;font-size:6.38px;stroke:none;">C (8) 1.3295 (14)</text>
   <text y="373.039" x="116.674,120.43820000000001,122.627,125.04,128.833,132.626" svgx:width="0.59,0.55,0.36,0.57,0.57,0.36" style="fill:rgb(0,0,0);font-family:AdvOT863180fb;font-size:6.38px;stroke:none;">C (12)</text>
   <text y="373.039" x="135.043" svgx:width="0.75" style="fill:rgb(0,0,0);font-family:AdvPS44A44B;font-size:6.38px;stroke:none;">e</text>
   <text y="373.039" x="140.032,143.7962,145.928,148.342,152.134,155.927,158.22379999999998,310.677,314.47,315.988,319.781,323.574,327.366,331.0026,333.126,335.54,339.332,343.125" svgx:width="0.59,0.55,0.36,0.57,0.57,0.36,0.55,0.57,0.23,0.57,0.57,0.57,0.57,0.55,0.36,0.57,0.57,0.36" style="fill:rgb(0,0,0);font-family:AdvOT863180fb;font-size:6.38px;stroke:none;">C (15) 1.5322 (15)</text>
   <text y="381.6" x="116.674,120.43820000000001,122.627,125.04,128.833,132.626" svgx:width="0.59,0.55,0.36,0.57,0.57,0.36" style="fill:rgb(0,0,0);font-family:AdvOT863180fb;font-size:6.38px;stroke:none;">C (12)</text>
   <text y="381.6" x="135.043" svgx:width="0.75" style="fill:rgb(0,0,0);font-family:AdvPS44A44B;font-size:6.38px;stroke:none;">e</text>
   <text y="381.6" x="140.032,143.7962,145.928,148.342,152.134,155.927,158.22379999999998,310.677,314.47,315.988,319.781,323.574,327.366,331.0026,333.126,335.54,339.332,343.125" svgx:width="0.59,0.55,0.36,0.57,0.57,0.36,0.55,0.57,0.23,0.57,0.57,0.57,0.57,0.55,0.36,0.57,0.57,0.36" style="fill:rgb(0,0,0);font-family:AdvOT863180fb;font-size:6.38px;stroke:none;">C (13) 1.5364 (16)</text>
   <text y="390.16" x="116.674,120.43820000000001,122.627,125.04,128.833,132.626" svgx:width="0.59,0.55,0.36,0.57,0.57,0.36" style="fill:rgb(0,0,0);font-family:AdvOT863180fb;font-size:6.38px;stroke:none;">C (12)</text>
   <text y="390.16" x="135.043" svgx:width="0.75" style="fill:rgb(0,0,0);font-family:AdvPS44A44B;font-size:6.38px;stroke:none;">e</text>
   <text y="390.16" x="140.032,143.7962,145.928,148.342,152.134,155.927,158.22379999999998,310.677,314.47,315.988,319.781,323.574,327.366,331.0026,333.126,335.54,339.332,343.125" svgx:width="0.59,0.55,0.36,0.57,0.57,0.36,0.55,0.57,0.23,0.57,0.57,0.57,0.57,0.55,0.36,0.57,0.57,0.36" style="fill:rgb(0,0,0);font-family:AdvOT863180fb;font-size:6.38px;stroke:none;">C (14) 1.5254 (17)</text>
   <text y="398.721" x="116.674,121.2038,123.364,125.778,129.57,131.984,134.676,137.9936,140.145,142.558,146.351,148.765,151.457,155.9868,158.172,160.586,164.379,166.67579999999998,310.676,314.469,318.262,322.055,323.573,327.366,331.0026,333.125,335.539,339.332" svgx:width="0.71,0.55,0.36,0.57,0.36,0.41,0.52,0.55,0.36,0.57,0.36,0.41,0.71,0.55,0.36,0.57,0.36,0.55,0.57,0.57,0.57,0.23,0.57,0.57,0.55,0.36,0.57,0.36" style="fill:rgb(0,0,0);font-family:AdvOT863180fb;font-size:6.38px;stroke:none;">O (5)-S (1)-O (4) 117.08 (4)</text>
   <text y="407.281" x="116.674,121.2038,123.364,125.778,129.57,131.984,134.676,137.9936,140.145,142.558,146.351,148.765,151.457,156.1144,158.286,160.699,164.492,166.78879999999998,310.676,314.469,318.262,322.054,323.573,327.366,331.0026,333.125,335.539,339.332" svgx:width="0.71,0.55,0.36,0.57,0.36,0.41,0.52,0.55,0.36,0.57,0.36,0.41,0.73,0.55,0.36,0.57,0.36,0.55,0.57,0.57,0.57,0.23,0.57,0.57,0.55,0.36,0.57,0.36" style="fill:rgb(0,0,0);font-family:AdvOT863180fb;font-size:6.38px;stroke:none;">O (5)-S (1)-N (1) 106.82 (4)</text>
   <text y="415.841" x="116.674,121.2038,123.364,125.778,129.57,131.984,134.676,137.9936,140.145,142.558,146.351,148.765,151.457,155.22119999999998,157.379,159.792,163.585,167.378,169.67479999999998,310.675,314.468,318.261,322.054,323.572,327.365,331.0016,333.125,335.538,339.331" svgx:width="0.71,0.55,0.36,0.57,0.36,0.41,0.52,0.55,0.36,0.57,0.36,0.41,0.59,0.55,0.36,0.57,0.57,0.36,0.55,0.57,0.57,0.57,0.23,0.57,0.57,0.55,0.36,0.57,0.36" style="fill:rgb(0,0,0);font-family:AdvOT863180fb;font-size:6.38px;stroke:none;">O (5)-S (1)-C (16) 109.94 (4)</text>
   <text y="424.459" x="116.674,121.2038,123.364,125.778,129.57,131.984,134.676,137.9936,140.145,142.558,146.351,148.765,151.457,156.1144,158.286,160.699,164.492,166.78879999999998,310.676,314.469,318.262,322.054,323.573,327.366,331.0026,333.125,335.539,339.332" svgx:width="0.71,0.55,0.36,0.57,0.36,0.41,0.52,0.55,0.36,0.57,0.36,0.41,0.73,0.55,0.36,0.57,0.36,0.55,0.57,0.57,0.57,0.23,0.57,0.57,0.55,0.36,0.57,0.36" style="fill:rgb(0,0,0);font-family:AdvOT863180fb;font-size:6.38px;stroke:none;">O (4)-S (1)-N (1) 109.78 (4)</text>
   <text y="433.019" x="116.674,121.2038,123.364,125.778,129.57,131.984,134.676,137.9936,140.145,142.558,146.351,148.765,151.457,155.22119999999998,157.379,159.792,163.585,167.378,169.67479999999998,310.675,314.468,318.261,322.054,323.572,327.365,331.0016,333.125,335.538,339.331" svgx:width="0.71,0.55,0.36,0.57,0.36,0.41,0.52,0.55,0.36,0.57,0.36,0.41,0.59,0.55,0.36,0.57,0.57,0.36,0.55,0.57,0.57,0.57,0.23,0.57,0.57,0.55,0.36,0.57,0.36" style="fill:rgb(0,0,0);font-family:AdvOT863180fb;font-size:6.38px;stroke:none;">O (4)-S (1)-C (16) 110.38 (4)</text>
   <text y="441.579" x="116.674,121.3314,123.534,125.947,129.74,132.154,134.846,138.1636,140.257,142.671,146.464,148.877,151.569,155.33319999999998,157.548,159.961,163.754,167.547,169.8438,310.675,314.468,318.26,322.053,323.572,327.364,331.00059999999996,333.124,335.538,339.33" svgx:width="0.73,0.55,0.36,0.57,0.36,0.41,0.52,0.55,0.36,0.57,0.36,0.41,0.59,0.55,0.36,0.57,0.57,0.36,0.55,0.57,0.57,0.57,0.23,0.57,0.57,0.55,0.36,0.57,0.36" style="fill:rgb(0,0,0);font-family:AdvOT863180fb;font-size:6.38px;stroke:none;">N (1)-S (1)-C (16) 101.67 (4)</text>
   <text y="450.14" x="116.674,120.43820000000001,122.627,125.04,128.833,132.626,135.039,137.732,142.2618,144.396,146.81,150.603,153.016,155.708,159.4722,161.687,164.1,167.893,170.1898,310.675,314.468,318.261,322.054,323.572,327.365,331.0016,333.125,335.538,339.331" svgx:width="0.59,0.55,0.36,0.57,0.57,0.36,0.41,0.71,0.55,0.36,0.57,0.36,0.41,0.59,0.55,0.36,0.57,0.36,0.55,0.57,0.57,0.57,0.23,0.57,0.57,0.55,0.36,0.57,0.36" style="fill:rgb(0,0,0);font-family:AdvOT863180fb;font-size:6.38px;stroke:none;">C (11)-O (1)-C (1) 121.07 (7)</text>
   <text y="458.7" x="116.674,120.43820000000001,122.627,125.04,128.833,131.247,133.939,138.4688,140.597,143.011,146.804,149.217,151.91,155.67419999999998,157.888,160.301,164.094,166.39079999999998,310.675,314.468,318.26,322.053,323.572,327.364,331.00059999999996,333.124,335.538,339.33" svgx:width="0.59,0.55,0.36,0.57,0.36,0.41,0.71,0.55,0.36,0.57,0.36,0.41,0.59,0.55,0.36,0.57,0.36,0.55,0.57,0.57,0.57,0.23,0.57,0.57,0.55,0.36,0.57,0.36" style="fill:rgb(0,0,0);font-family:AdvOT863180fb;font-size:6.38px;stroke:none;">C (9)-O (3)-C (6) 102.21 (7)</text>
   <text y="467.261" x="116.674,120.43820000000001,122.627,125.04,128.833,131.247,133.939,138.5964,140.768,143.181,146.974,149.388,152.08,155.3976,157.548,159.962,163.755,166.0518,310.675,314.468,318.261,322.054,323.572,327.365,331.0016,333.125,335.538,339.331" svgx:width="0.59,0.55,0.36,0.57,0.36,0.41,0.73,0.55,0.36,0.57,0.36,0.41,0.52,0.55,0.36,0.57,0.36,0.55,0.57,0.57,0.57,0.23,0.57,0.57,0.55,0.36,0.57,0.36" style="fill:rgb(0,0,0);font-family:AdvOT863180fb;font-size:6.38px;stroke:none;">C (3)-N (1)-S (1) 111.19 (6)</text>
   <text y="475.821" x="116.674,120.43820000000001,122.627,125.04,128.833,131.247,133.939,138.5964,140.768,143.181,146.974,149.388,152.08,155.8442,158.002,160.416,164.208,166.5048,310.675,314.468,318.261,322.054,323.572,327.365,331.0016,333.125,335.538,339.331" svgx:width="0.59,0.55,0.36,0.57,0.36,0.41,0.73,0.55,0.36,0.57,0.36,0.41,0.59,0.55,0.36,0.57,0.36,0.55,0.57,0.57,0.57,0.23,0.57,0.57,0.55,0.36,0.57,0.36" style="fill:rgb(0,0,0);font-family:AdvOT863180fb;font-size:6.38px;stroke:none;">C (3)-N (1)-C (4) 111.90 (6)</text>
   <text y="484.382" x="116.674,120.43820000000001,122.627,125.04,128.833,131.247,133.939,138.5964,140.768,143.181,146.974,149.388,152.08,155.3976,157.548,159.962,163.755,166.0518,310.675,314.468,318.261,322.054,323.572,327.365,331.0016,333.125,335.538,339.331" svgx:width="0.59,0.55,0.36,0.57,0.36,0.41,0.73,0.55,0.36,0.57,0.36,0.41,0.52,0.55,0.36,0.57,0.36,0.55,0.57,0.57,0.57,0.23,0.57,0.57,0.55,0.36,0.57,0.36" style="fill:rgb(0,0,0);font-family:AdvOT863180fb;font-size:6.38px;stroke:none;">C (4)-N (1)-S (1) 110.90 (5)</text>
   <text y="492.999" x="116.674,120.43820000000001,122.627,125.04,128.833,132.626,135.039,137.732,141.4962,143.659,146.072,149.865,153.658,156.072,158.764,162.5282,164.691,167.105,170.897,174.69,176.9868,310.675,314.468,318.26,322.053,323.572,327.364,331.00059999999996,333.124,335.538,339.33" svgx:width="0.59,0.55,0.36,0.57,0.57,0.36,0.41,0.59,0.55,0.36,0.57,0.57,0.36,0.41,0.59,0.55,0.36,0.57,0.57,0.36,0.55,0.57,0.57,0.57,0.23,0.57,0.57,0.55,0.36,0.57,0.36" style="fill:rgb(0,0,0);font-family:AdvOT863180fb;font-size:6.38px;stroke:none;">C (16)-C (21)-C (24) 124.33 (8)</text>
   <text y="501.559" x="116.674,120.43820000000001,122.627,125.04,128.833,132.626,135.039,137.732,141.4962,143.659,146.072,149.865,153.658,156.072,158.764,162.5282,164.691,167.105,170.897,174.69,176.9868,310.675,314.468,318.26,322.053,323.572,327.364,331.00059999999996,333.124,335.538,339.33" svgx:width="0.59,0.55,0.36,0.57,0.57,0.36,0.41,0.59,0.55,0.36,0.57,0.57,0.36,0.41,0.59,0.55,0.36,0.57,0.57,0.36,0.55,0.57,0.57,0.57,0.23,0.57,0.57,0.55,0.36,0.57,0.36" style="fill:rgb(0,0,0);font-family:AdvOT863180fb;font-size:6.38px;stroke:none;">C (20)-C (21)-C (16) 118.14 (8)</text>
   <text y="510.12" x="116.674,120.43820000000001,122.627,125.04,128.833,132.626,135.039,137.732,141.4962,143.659,146.072,149.865,153.658,156.072,158.764,162.5282,164.691,167.105,170.897,174.69,176.9868,310.675,314.468,318.26,322.053,323.572,327.364,331.00059999999996,333.124,335.538,339.33" svgx:width="0.59,0.55,0.36,0.57,0.57,0.36,0.41,0.59,0.55,0.36,0.57,0.57,0.36,0.41,0.59,0.55,0.36,0.57,0.57,0.36,0.55,0.57,0.57,0.57,0.23,0.57,0.57,0.55,0.36,0.57,0.36" style="fill:rgb(0,0,0);font-family:AdvOT863180fb;font-size:6.38px;stroke:none;">C (20)-C (21)-C (24) 117.53 (8)</text>
   <text y="518.68" x="116.674,120.43820000000001,122.627,125.04,128.833,131.247,133.939,137.70319999999998,139.861,142.274,146.067,148.481,151.173,154.9372,157.095,159.508,163.301,165.59779999999998,310.675,314.468,318.261,322.054,323.572,327.365,331.0016,333.125,335.538,339.331" svgx:width="0.59,0.55,0.36,0.57,0.36,0.41,0.59,0.55,0.36,0.57,0.36,0.41,0.59,0.55,0.36,0.57,0.36,0.55,0.57,0.57,0.57,0.23,0.57,0.57,0.55,0.36,0.57,0.36" style="fill:rgb(0,0,0);font-family:AdvOT863180fb;font-size:6.38px;stroke:none;">C (3)-C (2)-C (6) 117.99 (7)</text>
   <text y="527.24" x="116.674,120.606,123.02,126.813,129.226,131.918,135.6822,137.876,140.29,144.083,146.496,149.188,152.95219999999998,155.11,157.524,161.317,163.6138,310.675,314.468,318.261,322.054,323.572,327.365,331.0016,333.125,335.538,339.331" svgx:width="0.59,0.36,0.57,0.36,0.41,0.59,0.55,0.36,0.57,0.36,0.41,0.59,0.55,0.36,0.57,0.36,0.55,0.57,0.57,0.57,0.23,0.57,0.57,0.55,0.36,0.57,0.36" style="fill:rgb(0,0,0);font-family:AdvOT863180fb;font-size:6.38px;stroke:none;">C(1)-C (2)-C (3) 124.76 (8)</text>
   <text y="535.801" x="116.674,120.43820000000001,122.627,125.04,128.833,131.247,133.939,137.70319999999998,139.861,142.274,146.067,148.481,151.173,154.9372,157.095,159.508,163.301,165.59779999999998,310.675,314.468,318.261,322.054,323.572,327.365,331.0016,333.125,335.538,339.331" svgx:width="0.59,0.55,0.36,0.57,0.36,0.41,0.59,0.55,0.36,0.57,0.36,0.41,0.59,0.55,0.36,0.57,0.36,0.55,0.57,0.57,0.57,0.23,0.57,0.57,0.55,0.36,0.57,0.36" style="fill:rgb(0,0,0);font-family:AdvOT863180fb;font-size:6.38px;stroke:none;">C (1)-C (2)-C (6) 116.66 (7)</text>
   <text y="544.361" x="116.674,120.43820000000001,122.627,125.04,128.833,132.626,135.039,137.732,141.4962,143.659,146.072,149.865,153.658,156.072,158.764,162.0816,164.238,166.651,170.444,172.74079999999998,310.675,314.468,318.26,322.053,323.572,327.364,331.00059999999996,333.124,335.538,339.33" svgx:width="0.59,0.55,0.36,0.57,0.57,0.36,0.41,0.59,0.55,0.36,0.57,0.57,0.36,0.41,0.52,0.55,0.36,0.57,0.36,0.55,0.57,0.57,0.57,0.23,0.57,0.57,0.55,0.36,0.57,0.36" style="fill:rgb(0,0,0);font-family:AdvOT863180fb;font-size:6.38px;stroke:none;">C (21)-C (16)-S (1) 117.58 (6)</text>
   <text y="552.922" x="116.674,120.43820000000001,122.627,125.04,128.833,132.626,135.039,137.732,141.4962,143.659,146.072,149.865,153.658,156.072,158.764,162.0816,164.238,166.651,170.444,172.74079999999998,310.675,314.468,318.26,322.053,323.572,327.364,331.00059999999996,333.124,335.538,339.33" svgx:width="0.59,0.55,0.36,0.57,0.57,0.36,0.41,0.59,0.55,0.36,0.57,0.57,0.36,0.41,0.52,0.55,0.36,0.57,0.36,0.55,0.57,0.57,0.57,0.23,0.57,0.57,0.55,0.36,0.57,0.36" style="fill:rgb(0,0,0);font-family:AdvOT863180fb;font-size:6.38px;stroke:none;">C (17)-C (16)-S (1) 120.98 (6)</text>
   <text y="561.539" x="116.674,120.43820000000001,122.627,125.04,128.833,132.626,135.039,137.732,141.4962,143.659,146.072,149.865,153.658,156.072,158.764,162.5282,164.691,167.105,170.897,174.69,176.9868,310.675,314.468,318.26,322.053,323.572,327.364,331.00059999999996,333.124,335.538,339.33" svgx:width="0.59,0.55,0.36,0.57,0.57,0.36,0.41,0.59,0.55,0.36,0.57,0.57,0.36,0.41,0.59,0.55,0.36,0.57,0.57,0.36,0.55,0.57,0.57,0.57,0.23,0.57,0.57,0.55,0.36,0.57,0.36" style="fill:rgb(0,0,0);font-family:AdvOT863180fb;font-size:6.38px;stroke:none;">C (17)-C (16)-C (21) 121.43 (8)</text>
   <text y="570.099" x="116.674,121.3314,123.534,125.947,129.74,132.154,134.846,138.6102,140.768,143.181,146.974,149.388,152.08,155.8442,158.002,160.416,164.208,166.5048,310.675,314.468,318.261,322.054,323.572,327.365,331.0016,333.125,335.538,339.331" svgx:width="0.73,0.55,0.36,0.57,0.36,0.41,0.59,0.55,0.36,0.57,0.36,0.41,0.59,0.55,0.36,0.57,0.36,0.55,0.57,0.57,0.57,0.23,0.57,0.57,0.55,0.36,0.57,0.36" style="fill:rgb(0,0,0);font-family:AdvOT863180fb;font-size:6.38px;stroke:none;">N (1)-C (3)-C (2) 111.36 (7)</text>
   <text y="578.66" x="116.674,121.3314,123.534,125.947,129.74,132.154,134.846,138.6102,140.768,143.181,146.974,149.388,152.08,155.8442,158.002,160.416,164.208,166.5048,310.675,314.468,318.261,322.054,323.572,327.365,331.0016,333.125,335.538,339.331" svgx:width="0.73,0.55,0.36,0.57,0.36,0.41,0.59,0.55,0.36,0.57,0.36,0.41,0.59,0.55,0.36,0.57,0.36,0.55,0.57,0.57,0.57,0.23,0.57,0.57,0.55,0.36,0.57,0.36" style="fill:rgb(0,0,0);font-family:AdvOT863180fb;font-size:6.38px;stroke:none;">N (1)-C (4)-C (5) 109.40 (7)</text>
   <text y="587.22" x="116.674,121.2038,123.364,125.778,129.57,131.984,134.676,138.44019999999998,140.598,143.012,146.804,149.218,151.91,155.67419999999998,157.889,160.302,164.095,166.3918,310.675,314.468,318.261,322.054,323.572,327.365,331.0016,333.125,335.538,339.331" svgx:width="0.71,0.55,0.36,0.57,0.36,0.41,0.59,0.55,0.36,0.57,0.36,0.41,0.59,0.55,0.36,0.57,0.36,0.55,0.57,0.57,0.57,0.23,0.57,0.57,0.55,0.36,0.57,0.36" style="fill:rgb(0,0,0);font-family:AdvOT863180fb;font-size:6.38px;stroke:none;">O (3)-C (6)-C (2) 107.93 (7)</text>
   <text y="595.781" x="116.674,121.2038,123.364,125.778,129.57,131.984,134.676,138.44019999999998,140.598,143.012,146.804,149.218,151.91,155.67419999999998,157.889,160.302,164.095,166.3918,310.675,314.468,318.261,322.054,323.572,327.365,331.0016,333.125,335.538,339.331" svgx:width="0.71,0.55,0.36,0.57,0.36,0.41,0.59,0.55,0.36,0.57,0.36,0.41,0.59,0.55,0.36,0.57,0.36,0.55,0.57,0.57,0.57,0.23,0.57,0.57,0.55,0.36,0.57,0.36" style="fill:rgb(0,0,0);font-family:AdvOT863180fb;font-size:6.38px;stroke:none;">O (3)-C (6)-C (5) 108.62 (7)</text>
   <text y="604.341" x="116.674,121.2038,123.364,125.778,129.57,131.984,134.676,138.44019999999998,140.598,143.012,146.804,149.218,151.91,155.67419999999998,157.889,160.302,164.095,166.3918,310.675,314.468,318.261,322.054,323.572,327.365,331.0016,333.125,335.538,339.331" svgx:width="0.71,0.55,0.36,0.57,0.36,0.41,0.59,0.55,0.36,0.57,0.36,0.41,0.59,0.55,0.36,0.57,0.36,0.55,0.57,0.57,0.57,0.23,0.57,0.57,0.55,0.36,0.57,0.36" style="fill:rgb(0,0,0);font-family:AdvOT863180fb;font-size:6.38px;stroke:none;">O (3)-C (6)-C (7) 102.22 (7)</text>
   <text y="612.901" x="116.674,120.43820000000001,122.627,125.04,128.833,131.247,133.939,137.70319999999998,139.861,142.274,146.067,148.481,151.173,154.9372,157.095,159.508,163.301,165.59779999999998,310.675,314.468,318.261,322.054,323.572,327.365,331.0016,333.125,335.538,339.331" svgx:width="0.59,0.55,0.36,0.57,0.36,0.41,0.59,0.55,0.36,0.57,0.36,0.41,0.59,0.55,0.36,0.57,0.36,0.55,0.57,0.57,0.57,0.23,0.57,0.57,0.55,0.36,0.57,0.36" style="fill:rgb(0,0,0);font-family:AdvOT863180fb;font-size:6.38px;stroke:none;">C (5)-C (6)-C (2) 111.40 (7)</text>
   <text y="621.519" x="116.674,120.43820000000001,122.627,125.04,128.833,131.247,133.939,137.70319999999998,139.861,142.274,146.067,148.481,151.173,154.9372,157.095,159.508,163.301,165.59779999999998,310.675,314.468,318.261,322.054,323.572,327.365,331.0016,333.125,335.538,339.331" svgx:width="0.59,0.55,0.36,0.57,0.36,0.41,0.59,0.55,0.36,0.57,0.36,0.41,0.59,0.55,0.36,0.57,0.36,0.55,0.57,0.57,0.57,0.23,0.57,0.57,0.55,0.36,0.57,0.36" style="fill:rgb(0,0,0);font-family:AdvOT863180fb;font-size:6.38px;stroke:none;">C (5)-C (6)-C (7) 118.91 (7)</text>
   <text y="50.06" x="167.754,171.472,172.87560000000002,175.011,180.654,184.0354,186.18,189.234,191.4032,193.55,196.936,198.658,200.0616,202.168,204.1458,206.307,210.687,214.073,216.26,219.6414,221.785,223.576,227.21259999999998,229.382,232.831,235.349,237.141,240.195,242.0452,244.179,247.699,251.20800000000003,253.364,255.684,259.204,262.435,265.609,269.129,271.5534,273.603,276.834,280.354,283.873,287.393,290.913" svgx:width="0.58,0.22,0.55,0.88,0.53,0.55,0.48,0.34,0.55,0.53,0.27,0.22,0.55,0.31,0.55,0.69,0.53,0.34,0.53,0.55,0.28,0.57,0.55,0.54,0.4,0.28,0.48,0.29,0.55,0.55,0.55,0.55,0.36,0.55,0.55,0.55,0.55,0.38,0.55,0.55,0.55,0.55,0.55,0.55,0.55" style="fill:rgb(0,0,0);font-family:AdvOTb92eb7df.I;font-size:6.38px;stroke:none;">R. Ma et al. / Data in brief 26 (2019) 104409</text>
   <text y="50.06" x="39.854,43.501" svgx:width="0.57,0.57" style="fill:rgb(0,0,0);font-family:AdvOT863180fb;font-size:6.38px;stroke:none;">20</text>
  </g>
 </g>
</svg>
