<?xml version="1.0" encoding="UTF-8"?>
<svg height="630.831" width="437.8716" xmlns="http://www.w3.org/2000/svg">
 <g id="page" xmlns:svgx="http://www.xml-cml.org/schema/svgx">
  <g begin="text">
   <text y="72.51" x="122.173,125.9372,128.126,130.539,134.332,138.125,140.539,143.231,146.99519999999998,149.158,151.572,155.364,159.157,161.571,164.263,168.0272,170.19,172.604,176.397,180.189,182.48579999999998,316.174,319.967,323.759,327.552,329.071,332.7076,334.825,337.239,341.031" svgx:width="0.59,0.55,0.36,0.57,0.57,0.36,0.41,0.59,0.55,0.36,0.57,0.57,0.36,0.41,0.59,0.55,0.36,0.57,0.57,0.36,0.55,0.57,0.57,0.57,0.23,0.57,0.55,0.36,0.57,0.36" style="fill:rgb(0,0,0);font-family:AdvOT863180fb;font-size:6.38px;stroke:none;">C (27)-C (26)-C (24) 119.5 (5)</text>
   <text y="81.071" x="122.173,125.9372,128.126,130.539,134.332,138.125,140.539,143.231,146.99519999999998,149.158,151.572,155.364,159.157,161.571,164.263,168.98420000000002,171.154,173.567,177.36,181.153,183.44979999999998,316.173,319.966,323.759,327.552,329.07" svgx:width="0.59,0.55,0.36,0.57,0.57,0.36,0.41,0.59,0.55,0.36,0.57,0.57,0.36,0.41,0.74,0.55,0.36,0.57,0.57,0.36,0.55,0.57,0.57,0.57,0.23,0.57" style="fill:rgb(0,0,0);font-family:AdvOT863180fb;font-size:6.38px;stroke:none;">C (26)-C (31)-H (31) 119.6</text>
   <text y="89.631" x="122.173,125.9372,128.126,130.539,134.332,138.125,140.539,143.231,146.99519999999998,149.158,151.572,155.364,159.157,161.571,164.263,168.0272,170.19,172.604,176.397,180.189,182.48579999999998,316.174,319.967,323.759,327.552,329.071,332.7076,334.825,337.239,341.031" svgx:width="0.59,0.55,0.36,0.57,0.57,0.36,0.41,0.59,0.55,0.36,0.57,0.57,0.36,0.41,0.59,0.55,0.36,0.57,0.57,0.36,0.55,0.57,0.57,0.57,0.23,0.57,0.55,0.36,0.57,0.36" style="fill:rgb(0,0,0);font-family:AdvOT863180fb;font-size:6.38px;stroke:none;">C (26)-C (31)-C (30) 120.8 (7)</text>
   <text y="98.192" x="122.173,125.9372,128.126,130.539,134.332,138.125,140.539,143.231,146.99519999999998,149.158,151.572,155.364,159.157,161.571,164.263,168.98420000000002,171.154,173.567,177.36,181.153,183.44979999999998,316.173,319.966,323.759,327.552,329.07" svgx:width="0.59,0.55,0.36,0.57,0.57,0.36,0.41,0.59,0.55,0.36,0.57,0.57,0.36,0.41,0.74,0.55,0.36,0.57,0.57,0.36,0.55,0.57,0.57,0.57,0.23,0.57" style="fill:rgb(0,0,0);font-family:AdvOT863180fb;font-size:6.38px;stroke:none;">C (30)-C (31)-H (31) 119.6</text>
   <text y="106.752" x="122.173,125.9372,128.126,130.539,134.332,138.125,140.539,143.231,146.99519999999998,149.158,151.572,155.364,159.157,161.571,164.263,168.98420000000002,171.154,173.567,177.36,181.153,183.44979999999998,316.173,319.966,323.759,327.552,329.07" svgx:width="0.59,0.55,0.36,0.57,0.57,0.36,0.41,0.59,0.55,0.36,0.57,0.57,0.36,0.41,0.74,0.55,0.36,0.57,0.57,0.36,0.55,0.57,0.57,0.57,0.23,0.57" style="fill:rgb(0,0,0);font-family:AdvOT863180fb;font-size:6.38px;stroke:none;">C (31)-C (30)-H (30) 119.7</text>
   <text y="115.313" x="122.173,125.9372,128.126,130.539,134.332,138.125,140.539,143.231,146.99519999999998,149.158,151.572,155.364,159.157,161.571,164.263,168.0272,170.19,172.604,176.397,180.189,182.48579999999998,316.174,319.967,323.759,327.552,329.071,332.7076,334.825,337.239,341.031" svgx:width="0.59,0.55,0.36,0.57,0.57,0.36,0.41,0.59,0.55,0.36,0.57,0.57,0.36,0.41,0.59,0.55,0.36,0.57,0.57,0.36,0.55,0.57,0.57,0.57,0.23,0.57,0.55,0.36,0.57,0.36" style="fill:rgb(0,0,0);font-family:AdvOT863180fb;font-size:6.38px;stroke:none;">C (29)-C (30)-C (31) 120.6 (6)</text>
   <text y="123.93" x="122.173,125.9372,128.126,130.539,134.332,138.125,140.539,143.231,146.99519999999998,149.158,151.572,155.364,159.157,161.571,164.263,168.98420000000002,171.154,173.567,177.36,181.153,183.44979999999998,316.173,319.966,323.759,327.552,329.07" svgx:width="0.59,0.55,0.36,0.57,0.57,0.36,0.41,0.59,0.55,0.36,0.57,0.57,0.36,0.41,0.74,0.55,0.36,0.57,0.57,0.36,0.55,0.57,0.57,0.57,0.23,0.57" style="fill:rgb(0,0,0);font-family:AdvOT863180fb;font-size:6.38px;stroke:none;">C (29)-C (30)-H (30) 119.7</text>
   <text y="132.49" x="122.173,125.9372,128.126,130.539,134.332,138.125,140.539,143.231,146.99519999999998,149.158,151.572,155.364,159.157,161.571,164.263,168.0272,170.19,172.604,176.397,180.189,182.48579999999998,316.174,319.967,323.759,327.552,329.071,332.7076,334.825,337.239,341.031" svgx:width="0.59,0.55,0.36,0.57,0.57,0.36,0.41,0.59,0.55,0.36,0.57,0.57,0.36,0.41,0.59,0.55,0.36,0.57,0.57,0.36,0.55,0.57,0.57,0.57,0.23,0.57,0.55,0.36,0.57,0.36" style="fill:rgb(0,0,0);font-family:AdvOT863180fb;font-size:6.38px;stroke:none;">C (26)-C (27)-C (32) 121.6 (6)</text>
   <text y="141.051" x="122.173,125.9372,128.126,130.539,134.332,138.125,140.539,143.231,146.99519999999998,149.158,151.572,155.364,159.157,161.571,164.263,168.0272,170.19,172.604,176.397,180.189,182.48579999999998,316.174,319.967,323.759,327.552,329.071,332.7076,334.825,337.239,341.031" svgx:width="0.59,0.55,0.36,0.57,0.57,0.36,0.41,0.59,0.55,0.36,0.57,0.57,0.36,0.41,0.59,0.55,0.36,0.57,0.57,0.36,0.55,0.57,0.57,0.57,0.23,0.57,0.55,0.36,0.57,0.36" style="fill:rgb(0,0,0);font-family:AdvOT863180fb;font-size:6.38px;stroke:none;">C (28)-C (27)-C (32) 118.9 (6)</text>
   <text y="149.611" x="122.173,125.9372,128.126,130.539,134.332,138.125,140.539,143.231,146.99519999999998,149.158,151.572,155.364,159.157,161.571,164.263,168.0272,170.19,172.604,176.397,180.189,182.48579999999998,316.174,319.967,323.759,327.552,329.071,332.7076,334.825,337.239,341.031" svgx:width="0.59,0.55,0.36,0.57,0.57,0.36,0.41,0.59,0.55,0.36,0.57,0.57,0.36,0.41,0.59,0.55,0.36,0.57,0.57,0.36,0.55,0.57,0.57,0.57,0.23,0.57,0.55,0.36,0.57,0.36" style="fill:rgb(0,0,0);font-family:AdvOT863180fb;font-size:6.38px;stroke:none;">C (28)-C (27)-C (26) 119.4 (6)</text>
   <text y="158.171" x="122.173,126.8304,129.033,131.446,135.239,137.653,140.345,144.1092,146.267,148.68,152.473,156.266,158.68,161.372,165.1362,167.299,169.713,173.506,177.298,179.5948,316.174,319.967,323.759,327.552,329.071,332.7076,334.825,337.238,341.031" svgx:width="0.73,0.55,0.36,0.57,0.36,0.41,0.59,0.55,0.36,0.57,0.57,0.36,0.41,0.59,0.55,0.36,0.57,0.57,0.36,0.55,0.57,0.57,0.57,0.23,0.57,0.55,0.36,0.57,0.36" style="fill:rgb(0,0,0);font-family:AdvOT863180fb;font-size:6.38px;stroke:none;">N (1)-C (24)-C (26) 108.8 (5)</text>
   <text y="166.732" x="122.173,126.8304,129.033,131.446,135.239,137.653,140.345,144.1092,146.267,148.68,152.473,156.266,158.68,161.372,166.09320000000002,168.263,170.676,174.469,178.262,180.5588,316.174,319.967,323.759,327.552,329.071" svgx:width="0.73,0.55,0.36,0.57,0.36,0.41,0.59,0.55,0.36,0.57,0.57,0.36,0.41,0.74,0.55,0.36,0.57,0.57,0.36,0.55,0.57,0.57,0.57,0.23,0.57" style="fill:rgb(0,0,0);font-family:AdvOT863180fb;font-size:6.38px;stroke:none;">N (1)-C (24)-H (24) 107.8</text>
   <text y="175.292" x="122.173,126.8304,129.033,131.446,135.239,137.653,140.345,144.1092,146.267,148.68,152.473,156.266,158.68,161.372,165.1362,167.299,169.713,173.506,177.298,179.5948,316.174,319.967,323.759,327.552,329.071,332.7076,334.825,337.238,341.031" svgx:width="0.73,0.55,0.36,0.57,0.36,0.41,0.59,0.55,0.36,0.57,0.57,0.36,0.41,0.59,0.55,0.36,0.57,0.57,0.36,0.55,0.57,0.57,0.57,0.23,0.57,0.55,0.36,0.57,0.36" style="fill:rgb(0,0,0);font-family:AdvOT863180fb;font-size:6.38px;stroke:none;">N (1)-C (24)-C (25) 108.4 (5)</text>
   <text y="183.853" x="122.173,125.9372,128.126,130.539,134.332,138.125,140.539,143.231,146.99519999999998,149.158,151.572,155.364,159.157,161.571,164.263,168.98420000000002,171.154,173.567,177.36,181.153,183.44979999999998,316.173,319.966,323.759,327.552,329.07" svgx:width="0.59,0.55,0.36,0.57,0.57,0.36,0.41,0.59,0.55,0.36,0.57,0.57,0.36,0.41,0.74,0.55,0.36,0.57,0.57,0.36,0.55,0.57,0.57,0.57,0.23,0.57" style="fill:rgb(0,0,0);font-family:AdvOT863180fb;font-size:6.38px;stroke:none;">C (26)-C (24)-H (24) 107.8</text>
   <text y="192.47" x="122.173,125.9372,128.126,130.539,134.332,138.125,140.539,143.231,146.99519999999998,149.158,151.572,155.364,159.157,161.571,164.263,168.0272,170.19,172.604,176.397,180.189,182.48579999999998,316.174,319.967,323.759,327.552,329.071,332.7076,334.825,337.239,341.031" svgx:width="0.59,0.55,0.36,0.57,0.57,0.36,0.41,0.59,0.55,0.36,0.57,0.57,0.36,0.41,0.59,0.55,0.36,0.57,0.57,0.36,0.55,0.57,0.57,0.57,0.23,0.57,0.55,0.36,0.57,0.36" style="fill:rgb(0,0,0);font-family:AdvOT863180fb;font-size:6.38px;stroke:none;">C (25)-C (24)-C (26) 115.8 (5)</text>
   <text y="201.03" x="122.173,125.9372,128.126,130.539,134.332,138.125,140.539,143.231,146.99519999999998,149.158,151.572,155.364,159.157,161.571,164.263,168.98420000000002,171.154,173.567,177.36,181.153,183.44979999999998,316.173,319.966,323.759,327.552,329.07" svgx:width="0.59,0.55,0.36,0.57,0.57,0.36,0.41,0.59,0.55,0.36,0.57,0.57,0.36,0.41,0.74,0.55,0.36,0.57,0.57,0.36,0.55,0.57,0.57,0.57,0.23,0.57" style="fill:rgb(0,0,0);font-family:AdvOT863180fb;font-size:6.38px;stroke:none;">C (25)-C (24)-H (24) 107.8</text>
   <text y="209.591" x="122.173,125.9372,128.126,130.539,134.332,138.125,140.539,143.231,146.99519999999998,149.158,151.572,155.364,159.157,161.571,164.263,168.98420000000002,171.154,173.567,177.36,181.153,183.44979999999998,316.173,319.966,323.759,327.552,329.07" svgx:width="0.59,0.55,0.36,0.57,0.57,0.36,0.41,0.59,0.55,0.36,0.57,0.57,0.36,0.41,0.74,0.55,0.36,0.57,0.57,0.36,0.55,0.57,0.57,0.57,0.23,0.57" style="fill:rgb(0,0,0);font-family:AdvOT863180fb;font-size:6.38px;stroke:none;">C (27)-C (28)-H (28) 119.6</text>
   <text y="218.151" x="122.173,125.9372,128.126,130.539,134.332,138.125,140.539,143.231,146.99519999999998,149.158,151.572,155.364,159.157,161.571,164.263,168.0272,170.19,172.604,176.397,180.189,182.48579999999998,316.174,319.967,323.759,327.552,329.071,332.7076,334.825,337.239,341.031" svgx:width="0.59,0.55,0.36,0.57,0.57,0.36,0.41,0.59,0.55,0.36,0.57,0.57,0.36,0.41,0.59,0.55,0.36,0.57,0.57,0.36,0.55,0.57,0.57,0.57,0.23,0.57,0.55,0.36,0.57,0.36" style="fill:rgb(0,0,0);font-family:AdvOT863180fb;font-size:6.38px;stroke:none;">C (29)-C (28)-C (27) 120.8 (7)</text>
   <text y="226.712" x="122.173,125.9372,128.126,130.539,134.332,138.125,140.539,143.231,146.99519999999998,149.158,151.572,155.364,159.157,161.571,164.263,168.98420000000002,171.154,173.567,177.36,181.153,183.44979999999998,316.173,319.966,323.759,327.552,329.07" svgx:width="0.59,0.55,0.36,0.57,0.57,0.36,0.41,0.59,0.55,0.36,0.57,0.57,0.36,0.41,0.74,0.55,0.36,0.57,0.57,0.36,0.55,0.57,0.57,0.57,0.23,0.57" style="fill:rgb(0,0,0);font-family:AdvOT863180fb;font-size:6.38px;stroke:none;">C (29)-C (28)-H (28) 119.6</text>
   <text y="235.272" x="122.173,125.9372,128.126,130.539,134.332,138.125,140.539,143.231,146.99519999999998,149.158,151.572,155.364,159.157,161.571,164.263,168.0272,170.19,172.604,176.397,180.189,182.48579999999998,316.174,319.967,323.759,327.552,329.071,332.7076,334.825,337.239,341.031" svgx:width="0.59,0.55,0.36,0.57,0.57,0.36,0.41,0.59,0.55,0.36,0.57,0.57,0.36,0.41,0.59,0.55,0.36,0.57,0.57,0.36,0.55,0.57,0.57,0.57,0.23,0.57,0.55,0.36,0.57,0.36" style="fill:rgb(0,0,0);font-family:AdvOT863180fb;font-size:6.38px;stroke:none;">C (30)-C (29)-C (28) 119.4 (7)</text>
   <text y="243.832" x="122.173,125.9372,128.126,130.539,134.332,138.125,140.539,143.231,146.99519999999998,149.158,151.572,155.364,159.157,161.571,164.263,168.98420000000002,171.154,173.567,177.36,181.153,183.44979999999998,316.173,319.966,323.759,327.552,329.07" svgx:width="0.59,0.55,0.36,0.57,0.57,0.36,0.41,0.59,0.55,0.36,0.57,0.57,0.36,0.41,0.74,0.55,0.36,0.57,0.57,0.36,0.55,0.57,0.57,0.57,0.23,0.57" style="fill:rgb(0,0,0);font-family:AdvOT863180fb;font-size:6.38px;stroke:none;">C (30)-C (29)-H (29) 120.3</text>
   <text y="252.45" x="122.173,125.9372,128.126,130.539,134.332,138.125,140.539,143.231,146.99519999999998,149.158,151.572,155.364,159.157,161.571,164.263,168.98420000000002,171.154,173.567,177.36,181.153,183.44979999999998,316.173,319.966,323.759,327.552,329.07" svgx:width="0.59,0.55,0.36,0.57,0.57,0.36,0.41,0.59,0.55,0.36,0.57,0.57,0.36,0.41,0.74,0.55,0.36,0.57,0.57,0.36,0.55,0.57,0.57,0.57,0.23,0.57" style="fill:rgb(0,0,0);font-family:AdvOT863180fb;font-size:6.38px;stroke:none;">C (28)-C (29)-H (29) 120.3</text>
   <text y="261.01" x="122.173,125.9372,128.126,130.539,134.332,138.125,140.539,143.231,146.99519999999998,149.158,151.572,155.364,159.157,161.571,164.263,168.98420000000002,171.154,173.567,177.36,181.153,185.503,187.79979999999998,316.173,319.966,323.759,327.552,329.07" svgx:width="0.59,0.55,0.36,0.57,0.57,0.36,0.41,0.59,0.55,0.36,0.57,0.57,0.36,0.41,0.74,0.55,0.36,0.57,0.57,0.66,0.36,0.55,0.57,0.57,0.57,0.23,0.57" style="fill:rgb(0,0,0);font-family:AdvOT863180fb;font-size:6.38px;stroke:none;">C (24)-C (25)-H (25A) 109.5</text>
   <text y="269.57" x="122.173,125.9372,128.126,130.539,134.332,138.125,140.539,143.231,146.99519999999998,149.158,151.572,155.364,159.157,161.571,164.263,168.98420000000002,171.154,173.567,177.36,181.153,185.085,187.3818,316.173,319.966,323.759,327.552,329.07" svgx:width="0.59,0.55,0.36,0.57,0.57,0.36,0.41,0.59,0.55,0.36,0.57,0.57,0.36,0.41,0.74,0.55,0.36,0.57,0.57,0.59,0.36,0.55,0.57,0.57,0.57,0.23,0.57" style="fill:rgb(0,0,0);font-family:AdvOT863180fb;font-size:6.38px;stroke:none;">C (24)-C (25)-H (25B) 109.5</text>
   <text y="278.131" x="122.173,125.9372,128.126,130.539,134.332,138.125,140.539,143.231,146.99519999999998,149.158,151.572,155.364,159.157,161.571,164.263,168.98420000000002,171.154,173.567,177.36,181.153,185.085,187.3818,316.173,319.966,323.759,327.552,329.07" svgx:width="0.59,0.55,0.36,0.57,0.57,0.36,0.41,0.59,0.55,0.36,0.57,0.57,0.36,0.41,0.74,0.55,0.36,0.57,0.57,0.59,0.36,0.55,0.57,0.57,0.57,0.23,0.57" style="fill:rgb(0,0,0);font-family:AdvOT863180fb;font-size:6.38px;stroke:none;">C (24)-C (25)-H (25C) 109.5</text>
   <text y="286.691" x="122.173,126.8942,129.09,131.503,135.296,139.089,143.439,145.852,148.545,152.30919999999998,154.487,156.901,160.693,164.486,166.9,169.592,174.31320000000002,176.483,178.896,182.689,186.482,190.414,192.71079999999998,316.173,319.966,323.759,327.552,329.07" svgx:width="0.74,0.55,0.36,0.57,0.57,0.66,0.36,0.41,0.59,0.55,0.36,0.57,0.57,0.36,0.41,0.74,0.55,0.36,0.57,0.57,0.59,0.36,0.55,0.57,0.57,0.57,0.23,0.57" style="fill:rgb(0,0,0);font-family:AdvOT863180fb;font-size:6.38px;stroke:none;">H (25A)-C (25)-H (25B) 109.5</text>
   <text y="295.252" x="122.173,126.8942,129.09,131.503,135.296,139.089,143.439,145.852,148.545,152.30919999999998,154.487,156.901,160.693,164.486,166.9,169.592,174.31320000000002,176.483,178.896,182.689,186.482,190.414,192.71079999999998,316.173,319.966,323.759,327.552,329.07" svgx:width="0.74,0.55,0.36,0.57,0.57,0.66,0.36,0.41,0.59,0.55,0.36,0.57,0.57,0.36,0.41,0.74,0.55,0.36,0.57,0.57,0.59,0.36,0.55,0.57,0.57,0.57,0.23,0.57" style="fill:rgb(0,0,0);font-family:AdvOT863180fb;font-size:6.38px;stroke:none;">H (25A)-C (25)-H (25C) 109.5</text>
   <text y="303.812" x="122.173,126.8942,129.09,131.503,135.296,139.089,143.021" svgx:width="0.74,0.55,0.36,0.57,0.57,0.59,0.36" style="fill:rgb(0,0,0);font-family:AdvOT863180fb;font-size:6.38px;stroke:none;">H (25B)</text>
   <text y="303.812" x="145.474" svgx:width="0.75" style="fill:rgb(0,0,0);font-family:AdvPS44A44B;font-size:6.38px;stroke:none;">e</text>
   <text y="303.812" x="150.406,154.1702,156.358,158.772,162.565,166.358,168.771,171.463,176.1842,178.355,180.768,184.561,188.354,192.286,194.5828,316.174,319.967,323.76,327.553,329.071" svgx:width="0.59,0.55,0.36,0.57,0.57,0.36,0.41,0.74,0.55,0.36,0.57,0.57,0.59,0.36,0.55,0.57,0.57,0.57,0.23,0.57" style="fill:rgb(0,0,0);font-family:AdvOT863180fb;font-size:6.38px;stroke:none;">C (25)-H (25C) 109.5</text>
   <text y="312.372" x="122.173,125.9372,128.125,130.539,134.331,138.124,140.538,143.23,146.678,148.608,151.021,154.814,157.228,159.92,163.68419999999998,165.881,168.294,172.087,175.88,178.1768,316.173,319.966,323.759,327.552,329.07,332.7066,334.824,337.238,341.031" svgx:width="0.59,0.55,0.36,0.57,0.57,0.36,0.41,0.52,0.29,0.36,0.57,0.36,0.41,0.59,0.55,0.36,0.57,0.57,0.36,0.55,0.57,0.57,0.57,0.23,0.57,0.55,0.36,0.57,0.36" style="fill:rgb(0,0,0);font-family:AdvOT863180fb;font-size:6.38px;stroke:none;">C (23)-Si(2)-C (16) 109.6 (3)</text>
   <text y="320.99" x="122.173,125.9372,128.125,130.539,134.331,138.124,140.538,143.23,146.678,148.608,151.021,154.814,157.228,159.92,163.68419999999998,165.881,168.294,172.087,175.88,178.1768,316.173,319.966,323.759,327.552,329.07,332.7066,334.824,337.238,341.031" svgx:width="0.59,0.55,0.36,0.57,0.57,0.36,0.41,0.52,0.29,0.36,0.57,0.36,0.41,0.59,0.55,0.36,0.57,0.57,0.36,0.55,0.57,0.57,0.57,0.23,0.57,0.55,0.36,0.57,0.36" style="fill:rgb(0,0,0);font-family:AdvOT863180fb;font-size:6.38px;stroke:none;">C (23)-Si(2)-C (21) 109.2 (4)</text>
   <text y="329.55" x="122.173,125.9372,128.125,130.539,134.331,138.124,140.538,143.23,146.678,148.608,151.021,154.814,157.228,159.92,163.68419999999998,165.881,168.294,172.087,175.88,178.1768,316.173,319.966,323.759,327.552,329.07,332.7066,334.824,337.238,341.031" svgx:width="0.59,0.55,0.36,0.57,0.57,0.36,0.41,0.52,0.29,0.36,0.57,0.36,0.41,0.59,0.55,0.36,0.57,0.57,0.36,0.55,0.57,0.57,0.57,0.23,0.57,0.55,0.36,0.57,0.36" style="fill:rgb(0,0,0);font-family:AdvOT863180fb;font-size:6.38px;stroke:none;">C (23)-Si(2)-C (22) 110.0 (4)</text>
   <text y="338.111" x="122.173,125.9372,128.125,130.539,134.331,138.124,140.538,143.23,146.678,148.608,151.021,154.814,157.228,159.92,163.68419999999998,165.881,168.294,172.087,175.88,178.1768,316.173,319.966,323.759,327.552,329.07,332.7066,334.824,337.238,341.031" svgx:width="0.59,0.55,0.36,0.57,0.57,0.36,0.41,0.52,0.29,0.36,0.57,0.36,0.41,0.59,0.55,0.36,0.57,0.57,0.36,0.55,0.57,0.57,0.57,0.23,0.57,0.55,0.36,0.57,0.36" style="fill:rgb(0,0,0);font-family:AdvOT863180fb;font-size:6.38px;stroke:none;">C (21)-Si(2)-C (16) 109.2 (4)</text>
   <text y="346.671" x="122.173,125.9372,128.125,130.539,134.331,138.124,140.538,143.23,146.678,148.608,151.021,154.814,157.228,159.92,163.68419999999998,165.881,168.294,172.087,175.88,178.1768,316.173,319.966,323.759,327.552,329.07,332.7066,334.824,337.238,341.031" svgx:width="0.59,0.55,0.36,0.57,0.57,0.36,0.41,0.52,0.29,0.36,0.57,0.36,0.41,0.59,0.55,0.36,0.57,0.57,0.36,0.55,0.57,0.57,0.57,0.23,0.57,0.55,0.36,0.57,0.36" style="fill:rgb(0,0,0);font-family:AdvOT863180fb;font-size:6.38px;stroke:none;">C (21)-Si(2)-C (22) 110.2 (4)</text>
   <text y="355.231" x="122.173,125.9372,128.125,130.539,134.331,138.124,140.538,143.23,146.678,148.608,151.021,154.814,157.228,159.92,163.68419999999998,165.881,168.294,172.087,175.88,178.1768,316.173,319.966,323.759,327.552,329.07,332.7066,334.824,337.238,341.031" svgx:width="0.59,0.55,0.36,0.57,0.57,0.36,0.41,0.52,0.29,0.36,0.57,0.36,0.41,0.59,0.55,0.36,0.57,0.57,0.36,0.55,0.57,0.57,0.57,0.23,0.57,0.55,0.36,0.57,0.36" style="fill:rgb(0,0,0);font-family:AdvOT863180fb;font-size:6.38px;stroke:none;">C (22)-Si(2)-C (16) 108.6 (3)</text>
   <text y="363.792" x="122.173,125.9372,128.125,130.539,134.331,138.124,140.538,143.23,146.678,148.608,151.021,154.814,157.228,159.92,163.68419999999998,165.881,168.294,172.087,175.88,178.1768,316.173,319.966,323.759,327.552,329.07,332.7066,334.824,337.238,341.031" svgx:width="0.59,0.55,0.36,0.57,0.57,0.36,0.41,0.52,0.29,0.36,0.57,0.36,0.41,0.59,0.55,0.36,0.57,0.57,0.36,0.55,0.57,0.57,0.57,0.23,0.57,0.55,0.36,0.57,0.36" style="fill:rgb(0,0,0);font-family:AdvOT863180fb;font-size:6.38px;stroke:none;">C (19)-Si(1)-C (14) 110.3 (3)</text>
   <text y="372.352" x="122.173,125.9372,128.125,130.539,134.331,138.124,140.538,143.23,146.678,148.608,151.021,154.814,157.228,159.92,163.68419999999998,165.881,168.294,172.087,175.88,178.1768,316.173,319.966,323.759,327.552,329.07,332.7066,334.824,337.238,341.031" svgx:width="0.59,0.55,0.36,0.57,0.57,0.36,0.41,0.52,0.29,0.36,0.57,0.36,0.41,0.59,0.55,0.36,0.57,0.57,0.36,0.55,0.57,0.57,0.57,0.23,0.57,0.55,0.36,0.57,0.36" style="fill:rgb(0,0,0);font-family:AdvOT863180fb;font-size:6.38px;stroke:none;">C (19)-Si(1)-C (20) 109.7 (4)</text>
   <text y="380.913" x="122.173,125.9372,128.125,130.539,134.331,138.124,140.538,143.23,146.678,148.608,151.021,154.814,157.228,159.92,163.68419999999998,165.881,168.294,172.087,175.88,178.1768,316.173,319.966,323.759,327.552,329.07,332.7066,334.824,337.238,341.031" svgx:width="0.59,0.55,0.36,0.57,0.57,0.36,0.41,0.52,0.29,0.36,0.57,0.36,0.41,0.59,0.55,0.36,0.57,0.57,0.36,0.55,0.57,0.57,0.57,0.23,0.57,0.55,0.36,0.57,0.36" style="fill:rgb(0,0,0);font-family:AdvOT863180fb;font-size:6.38px;stroke:none;">C (19)-Si(1)-C (18) 109.2 (4)</text>
   <text y="389.53" x="122.173,125.9372,128.125,130.539,134.331,138.124,140.538,143.23,146.678,148.608,151.021,154.814,157.228,159.92,163.68419999999998,165.881,168.294,172.087,175.88,178.1768,316.173,319.966,323.759,327.552,329.07,332.7066,334.824,337.238,341.031" svgx:width="0.59,0.55,0.36,0.57,0.57,0.36,0.41,0.52,0.29,0.36,0.57,0.36,0.41,0.59,0.55,0.36,0.57,0.57,0.36,0.55,0.57,0.57,0.57,0.23,0.57,0.55,0.36,0.57,0.36" style="fill:rgb(0,0,0);font-family:AdvOT863180fb;font-size:6.38px;stroke:none;">C (20)-Si(1)-C (14) 109.0 (3)</text>
   <text y="398.09" x="122.173,125.9372,128.125,130.539,134.331,138.124,140.538,143.23,146.678,148.608,151.021,154.814,157.228,159.92,163.68419999999998,165.881,168.294,172.087,175.88,178.1768,316.173,319.966,323.759,327.552,329.07,332.7066,334.824,337.238,341.031" svgx:width="0.59,0.55,0.36,0.57,0.57,0.36,0.41,0.52,0.29,0.36,0.57,0.36,0.41,0.59,0.55,0.36,0.57,0.57,0.36,0.55,0.57,0.57,0.57,0.23,0.57,0.55,0.36,0.57,0.36" style="fill:rgb(0,0,0);font-family:AdvOT863180fb;font-size:6.38px;stroke:none;">C (18)-Si(1)-C (14) 108.4 (3)</text>
   <text y="406.651" x="122.173,125.9372,128.125,130.539,134.331,138.124,140.538,143.23,146.678,148.608,151.021,154.814,157.228,159.92,163.68419999999998,165.881,168.294,172.087,175.88,178.1768,316.173,319.966,323.759,327.552,329.07,332.7066,334.824,337.238,341.031" svgx:width="0.59,0.55,0.36,0.57,0.57,0.36,0.41,0.52,0.29,0.36,0.57,0.36,0.41,0.59,0.55,0.36,0.57,0.57,0.36,0.55,0.57,0.57,0.57,0.23,0.57,0.55,0.36,0.57,0.36" style="fill:rgb(0,0,0);font-family:AdvOT863180fb;font-size:6.38px;stroke:none;">C (18)-Si(1)-C (20) 110.1 (4)</text>
   <text y="415.211" x="122.173,125.9372,128.125,130.539,134.331,138.124,140.538,143.23,146.99419999999998,149.157,151.571,155.364,159.156,161.57,164.262,167.71,169.64,172.053,175.846,178.1428,316.173,319.966,323.759,327.552,329.07,332.7066,334.824,337.238,341.031" svgx:width="0.59,0.55,0.36,0.57,0.57,0.36,0.41,0.59,0.55,0.36,0.57,0.57,0.36,0.41,0.52,0.29,0.36,0.57,0.36,0.55,0.57,0.57,0.57,0.23,0.57,0.55,0.36,0.57,0.36" style="fill:rgb(0,0,0);font-family:AdvOT863180fb;font-size:6.38px;stroke:none;">C (15)-C (14)-Si(1) 122.5 (5)</text>
   <text y="423.771" x="122.173,125.9372,128.125,130.539,134.331,138.124,140.538,143.23,146.99419999999998,149.157,151.571,155.364,159.156,161.57,164.262,168.0262,170.189,172.603,176.396,180.189,182.48579999999998,316.173,319.966,323.759,327.552,329.07,332.7066,334.824,337.238,341.031" svgx:width="0.59,0.55,0.36,0.57,0.57,0.36,0.41,0.59,0.55,0.36,0.57,0.57,0.36,0.41,0.59,0.55,0.36,0.57,0.57,0.36,0.55,0.57,0.57,0.57,0.23,0.57,0.55,0.36,0.57,0.36" style="fill:rgb(0,0,0);font-family:AdvOT863180fb;font-size:6.38px;stroke:none;">C (15)-C (14)-C (13) 117.9 (6)</text>
   <text y="432.332" x="122.173,125.9372,128.125,130.539,134.331,138.124,140.538,143.23,146.99419999999998,149.157,151.571,155.364,159.156,161.57,164.262,167.71,169.64,172.053,175.846,178.1428,316.173,319.966,323.759,327.552,329.07,332.7066,334.824,337.238,341.031" svgx:width="0.59,0.55,0.36,0.57,0.57,0.36,0.41,0.59,0.55,0.36,0.57,0.57,0.36,0.41,0.52,0.29,0.36,0.57,0.36,0.55,0.57,0.57,0.57,0.23,0.57,0.55,0.36,0.57,0.36" style="fill:rgb(0,0,0);font-family:AdvOT863180fb;font-size:6.38px;stroke:none;">C (13)-C (14)-Si(1) 119.5 (5)</text>
   <text y="440.892" x="122.173,125.9372,128.125,130.539,134.331,138.124,140.538,143.23,146.99419999999998,149.157,151.571,155.364,157.777,160.469,164.23319999999998,166.391,168.805,172.598,174.8948,316.174,319.967,323.759,327.552,329.071,332.7076,334.825,337.239,341.031" svgx:width="0.59,0.55,0.36,0.57,0.57,0.36,0.41,0.59,0.55,0.36,0.57,0.36,0.41,0.59,0.55,0.36,0.57,0.36,0.55,0.57,0.57,0.57,0.23,0.57,0.55,0.36,0.57,0.36" style="fill:rgb(0,0,0);font-family:AdvOT863180fb;font-size:6.38px;stroke:none;">C (11)-C (6)-C (4) 119.6 (5)</text>
   <text y="449.509" x="122.173,125.9372,128.125,130.539,134.331,136.745,139.437,143.2012,145.359,147.773,151.566,153.979,156.671,160.43519999999998,162.593,165.007,168.8,172.592,174.8888,316.174,319.967,323.759,327.552,329.071,332.7076,334.825,337.239,341.031" svgx:width="0.59,0.55,0.36,0.57,0.36,0.41,0.59,0.55,0.36,0.57,0.36,0.41,0.59,0.55,0.36,0.57,0.57,0.36,0.55,0.57,0.57,0.57,0.23,0.57,0.55,0.36,0.57,0.36" style="fill:rgb(0,0,0);font-family:AdvOT863180fb;font-size:6.38px;stroke:none;">C (7)-C (6)-C (11) 119.1 (5)</text>
   <text y="458.07" x="122.173,125.9372,128.125,130.539,134.331,136.745,139.437,143.2012,145.359,147.773,151.566,153.979,156.671,160.43519999999998,162.593,165.007,168.8,171.0968,316.174,319.967,323.759,327.552,329.071,332.7076,334.825,337.239,341.031" svgx:width="0.59,0.55,0.36,0.57,0.36,0.41,0.59,0.55,0.36,0.57,0.36,0.41,0.59,0.55,0.36,0.57,0.36,0.55,0.57,0.57,0.57,0.23,0.57,0.55,0.36,0.57,0.36" style="fill:rgb(0,0,0);font-family:AdvOT863180fb;font-size:6.38px;stroke:none;">C (7)-C (6)-C (4) 121.3 (5)</text>
   <text y="466.63" x="122.173,125.9372,128.125,130.539,134.331,136.745,139.437,143.2012,145.359,147.773,151.566,155.358,157.772,160.464,165.1852,167.355,169.768,173.561,177.354,179.6508,316.173,319.966,323.759,327.552,329.07" svgx:width="0.59,0.55,0.36,0.57,0.36,0.41,0.59,0.55,0.36,0.57,0.57,0.36,0.41,0.74,0.55,0.36,0.57,0.57,0.36,0.55,0.57,0.57,0.57,0.23,0.57" style="fill:rgb(0,0,0);font-family:AdvOT863180fb;font-size:6.38px;stroke:none;">C (9)-C (10)-H (10) 119.3</text>
   <text y="475.191" x="122.173,125.9372,128.125,130.539,134.331,136.745,139.437,143.2012,145.359,147.773,151.566,155.358,157.772,160.464,164.2282,166.391,168.805,172.598,176.391,178.68779999999998,316.173,319.966,323.759,327.552,329.07,332.7066,334.824,337.238,341.031" svgx:width="0.59,0.55,0.36,0.57,0.36,0.41,0.59,0.55,0.36,0.57,0.57,0.36,0.41,0.59,0.55,0.36,0.57,0.57,0.36,0.55,0.57,0.57,0.57,0.23,0.57,0.55,0.36,0.57,0.36" style="fill:rgb(0,0,0);font-family:AdvOT863180fb;font-size:6.38px;stroke:none;">C (9)-C (10)-C (11) 121.5 (6)</text>
   <text y="483.751" x="122.173,125.9372,128.125,130.539,134.331,138.124,140.538,143.23,146.99419999999998,149.157,151.571,155.364,159.156,161.57,164.262,168.9832,171.153,173.567,177.359,181.152,183.44879999999998,316.172,319.965,323.758,327.551,329.069" svgx:width="0.59,0.55,0.36,0.57,0.57,0.36,0.41,0.59,0.55,0.36,0.57,0.57,0.36,0.41,0.74,0.55,0.36,0.57,0.57,0.36,0.55,0.57,0.57,0.57,0.23,0.57" style="fill:rgb(0,0,0);font-family:AdvOT863180fb;font-size:6.38px;stroke:none;">C (11)-C (10)-H (10) 119.3</text>
   <text y="492.312" x="122.173,125.9372,128.125,130.539,134.331,138.124,140.538,143.23,146.99419999999998,149.157,151.571,155.364,159.156,161.57,164.262,168.9832,171.153,173.567,177.359,181.152,183.44879999999998,316.172,319.965,323.758,327.551,329.069" svgx:width="0.59,0.55,0.36,0.57,0.57,0.36,0.41,0.59,0.55,0.36,0.57,0.57,0.36,0.41,0.74,0.55,0.36,0.57,0.57,0.36,0.55,0.57,0.57,0.57,0.23,0.57" style="fill:rgb(0,0,0);font-family:AdvOT863180fb;font-size:6.38px;stroke:none;">C (16)-C (17)-H (17) 119.0</text>
   <text y="500.872" x="122.173,125.9372,128.125,130.539,134.331,138.124,140.538,143.23,146.99419999999998,149.157,151.571,155.364,159.156,161.57,164.262,168.0262,170.189,172.603,176.396,180.189,182.48579999999998,316.173,319.966,323.759,327.552,329.07,332.7066,334.824,337.238,341.031" svgx:width="0.59,0.55,0.36,0.57,0.57,0.36,0.41,0.59,0.55,0.36,0.57,0.57,0.36,0.41,0.59,0.55,0.36,0.57,0.57,0.36,0.55,0.57,0.57,0.57,0.23,0.57,0.55,0.36,0.57,0.36" style="fill:rgb(0,0,0);font-family:AdvOT863180fb;font-size:6.38px;stroke:none;">C (16)-C (17)-C (12) 122.0 (6)</text>
   <text y="509.432" x="122.173,125.9372,128.125,130.539,134.331,138.124,140.538,143.23,146.99419999999998,149.157,151.571,155.364,159.156,161.57,164.262,168.9832,171.153,173.567,177.359,181.152,183.44879999999998,316.172,319.965,323.758,327.551,329.069" svgx:width="0.59,0.55,0.36,0.57,0.57,0.36,0.41,0.59,0.55,0.36,0.57,0.57,0.36,0.41,0.74,0.55,0.36,0.57,0.57,0.36,0.55,0.57,0.57,0.57,0.23,0.57" style="fill:rgb(0,0,0);font-family:AdvOT863180fb;font-size:6.38px;stroke:none;">C (12)-C (17)-H (17) 119.0</text>
   <text y="518.05" x="122.173,125.9372,128.125,130.539,134.331,138.124,140.538,143.23,146.99419999999998,149.157,151.571,155.364,159.156,161.57,164.262,168.9832,171.153,173.567,177.359,181.152,183.44879999999998,316.172,319.965,323.758,327.551,329.069" svgx:width="0.59,0.55,0.36,0.57,0.57,0.36,0.41,0.59,0.55,0.36,0.57,0.57,0.36,0.41,0.74,0.55,0.36,0.57,0.57,0.36,0.55,0.57,0.57,0.57,0.23,0.57" style="fill:rgb(0,0,0);font-family:AdvOT863180fb;font-size:6.38px;stroke:none;">C (14)-C (15)-H (15) 118.6</text>
   <text y="526.61" x="122.173,125.9372,128.125,130.539,134.331,138.124,140.538,143.23,146.99419999999998,149.157,151.571,155.364,159.156,161.57,164.262,168.0262,170.189,172.603,176.396,180.189,182.48579999999998,316.173,319.966,323.759,327.552,329.07,332.7066,334.824,337.238,341.031" svgx:width="0.59,0.55,0.36,0.57,0.57,0.36,0.41,0.59,0.55,0.36,0.57,0.57,0.36,0.41,0.59,0.55,0.36,0.57,0.57,0.36,0.55,0.57,0.57,0.57,0.23,0.57,0.55,0.36,0.57,0.36" style="fill:rgb(0,0,0);font-family:AdvOT863180fb;font-size:6.38px;stroke:none;">C (14)-C (15)-C (16) 122.7 (6)</text>
   <text y="535.17" x="122.173,125.9372,128.125,130.539,134.331,138.124,140.538,143.23,146.99419999999998,149.157,151.571,155.364,159.156,161.57,164.262,168.9832,171.153,173.567,177.359,181.152,183.44879999999998,316.172,319.965,323.758,327.551,329.069" svgx:width="0.59,0.55,0.36,0.57,0.57,0.36,0.41,0.59,0.55,0.36,0.57,0.57,0.36,0.41,0.74,0.55,0.36,0.57,0.57,0.36,0.55,0.57,0.57,0.57,0.23,0.57" style="fill:rgb(0,0,0);font-family:AdvOT863180fb;font-size:6.38px;stroke:none;">C (16)-C (15)-H (15) 118.6</text>
   <text y="543.731" x="122.173,125.9372,128.125,130.539,134.331,138.124,140.538,143.23,146.99419999999998,149.157,151.571,155.364,159.156,161.57,164.262,168.9832,171.153,173.567,177.359,181.152,183.44879999999998,316.172,319.965,323.758,327.551,329.069" svgx:width="0.59,0.55,0.36,0.57,0.57,0.36,0.41,0.59,0.55,0.36,0.57,0.57,0.36,0.41,0.74,0.55,0.36,0.57,0.57,0.36,0.55,0.57,0.57,0.57,0.23,0.57" style="fill:rgb(0,0,0);font-family:AdvOT863180fb;font-size:6.38px;stroke:none;">C (14)-C (13)-H (13) 119.3</text>
   <text y="552.291" x="122.173,125.9372,128.125,130.539,134.331,138.124,140.538,143.23,146.99419999999998,149.157,151.571,155.364,159.156,161.57,164.262,168.0262,170.189,172.603,176.396,180.189,182.48579999999998,316.173,319.966,323.759,327.552,329.07,332.7066,334.824,337.238,341.031" svgx:width="0.59,0.55,0.36,0.57,0.57,0.36,0.41,0.59,0.55,0.36,0.57,0.57,0.36,0.41,0.59,0.55,0.36,0.57,0.57,0.36,0.55,0.57,0.57,0.57,0.23,0.57,0.55,0.36,0.57,0.36" style="fill:rgb(0,0,0);font-family:AdvOT863180fb;font-size:6.38px;stroke:none;">C (12)-C (13)-C (14) 121.5 (6)</text>
   <text y="560.852" x="122.173,125.9372,128.125,130.539,134.331,138.124,140.538,143.23,146.99419999999998,149.157,151.571,155.364,159.156,161.57,164.262,168.9832,171.153,173.567,177.359,181.152,183.44879999999998,316.172,319.965,323.758,327.551,329.069" svgx:width="0.59,0.55,0.36,0.57,0.57,0.36,0.41,0.59,0.55,0.36,0.57,0.57,0.36,0.41,0.74,0.55,0.36,0.57,0.57,0.36,0.55,0.57,0.57,0.57,0.23,0.57" style="fill:rgb(0,0,0);font-family:AdvOT863180fb;font-size:6.38px;stroke:none;">C (12)-C (13)-H (13) 119.3</text>
   <text y="569.412" x="122.173,125.9372,128.125,130.539,134.331,138.124,140.538,143.23,146.99419999999998,149.157,151.571,155.364,159.156,161.57,164.262,167.71,169.64,172.053,175.846,178.1428,316.173,319.966,323.759,327.552,329.07,332.7066,334.824,337.238,341.031" svgx:width="0.59,0.55,0.36,0.57,0.57,0.36,0.41,0.59,0.55,0.36,0.57,0.57,0.36,0.41,0.52,0.29,0.36,0.57,0.36,0.55,0.57,0.57,0.57,0.23,0.57,0.55,0.36,0.57,0.36" style="fill:rgb(0,0,0);font-family:AdvOT863180fb;font-size:6.38px;stroke:none;">C (17)-C (16)-Si(2) 121.8 (5)</text>
   <text y="577.973" x="122.173,125.9372,128.125,130.539,134.331,138.124,140.538,143.23,146.99419999999998,149.157,151.571,155.364,159.156,161.57,164.262,168.0262,170.189,172.603,176.396,180.189,182.48579999999998,316.173,319.966,323.759,327.552,329.07,332.7066,334.824,337.238,341.031" svgx:width="0.59,0.55,0.36,0.57,0.57,0.36,0.41,0.59,0.55,0.36,0.57,0.57,0.36,0.41,0.59,0.55,0.36,0.57,0.57,0.36,0.55,0.57,0.57,0.57,0.23,0.57,0.55,0.36,0.57,0.36" style="fill:rgb(0,0,0);font-family:AdvOT863180fb;font-size:6.38px;stroke:none;">C (17)-C (16)-C (15) 117.2 (6)</text>
   <text y="586.59" x="122.173,125.9372,128.125,130.539,134.331,138.124,140.538,143.23,146.99419999999998,149.157,151.571,155.364,159.156,161.57,164.262,167.71,169.64,172.053,175.846,178.1428,316.173,319.966,323.759,327.552,329.07,332.7066,334.824,337.238,341.031" svgx:width="0.59,0.55,0.36,0.57,0.57,0.36,0.41,0.59,0.55,0.36,0.57,0.57,0.36,0.41,0.52,0.29,0.36,0.57,0.36,0.55,0.57,0.57,0.57,0.23,0.57,0.55,0.36,0.57,0.36" style="fill:rgb(0,0,0);font-family:AdvOT863180fb;font-size:6.38px;stroke:none;">C (15)-C (16)-Si(2) 120.9 (5)</text>
   <text y="595.15" x="122.173,125.9372,128.125,130.539,134.331,138.124,140.538,143.23,146.99419999999998,149.157,151.571,155.364,157.777,160.469,165.1902,167.355,169.768,173.561,175.8578,316.173,319.966,323.759,327.552,329.07" svgx:width="0.59,0.55,0.36,0.57,0.57,0.36,0.41,0.59,0.55,0.36,0.57,0.36,0.41,0.74,0.55,0.36,0.57,0.36,0.55,0.57,0.57,0.57,0.23,0.57" style="fill:rgb(0,0,0);font-family:AdvOT863180fb;font-size:6.38px;stroke:none;">C (10)-C (9)-H (9) 120.3</text>
   <text y="603.711" x="122.173,125.9372,128.125,130.539,134.331,138.124,140.538,143.23,146.99419999999998,149.157,151.571,155.364,157.777,160.469,164.23319999999998,166.391,168.805,172.598,174.8948,316.174,319.967,323.759,327.552,329.071,332.7076,334.825,337.239,341.031" svgx:width="0.59,0.55,0.36,0.57,0.57,0.36,0.41,0.59,0.55,0.36,0.57,0.36,0.41,0.59,0.55,0.36,0.57,0.36,0.55,0.57,0.57,0.57,0.23,0.57,0.55,0.36,0.57,0.36" style="fill:rgb(0,0,0);font-family:AdvOT863180fb;font-size:6.38px;stroke:none;">C (10)-C (9)-C (8) 119.3 (6)</text>
   <text y="612.271" x="122.173,125.9372,128.125,130.539,134.331,136.745,139.437,143.2012,145.359,147.773,151.566,153.979,156.671,161.3922,163.557,165.97,169.763,172.0598,316.174,319.967,323.759,327.552,329.071" svgx:width="0.59,0.55,0.36,0.57,0.36,0.41,0.59,0.55,0.36,0.57,0.36,0.41,0.74,0.55,0.36,0.57,0.36,0.55,0.57,0.57,0.57,0.23,0.57" style="fill:rgb(0,0,0);font-family:AdvOT863180fb;font-size:6.38px;stroke:none;">C (8)-C (9)-H (9) 120.3</text>
   <text y="620.831" x="122.173,126.8942,129.089,131.503,135.296,139.645,142.059,144.751,148.5152,150.688,153.102,156.895,159.308,162.0,166.7212,168.886,171.299,175.092,179.024,181.3208,316.173,319.966,323.759,327.552,329.07" svgx:width="0.74,0.55,0.36,0.57,0.66,0.36,0.41,0.59,0.55,0.36,0.57,0.36,0.41,0.74,0.55,0.36,0.57,0.59,0.36,0.55,0.57,0.57,0.57,0.23,0.57" style="fill:rgb(0,0,0);font-family:AdvOT863180fb;font-size:6.38px;stroke:none;">H (5A)-C (5)-H (5B) 109.5</text>
   <text y="50.06" x="173.253,176.971,178.37460000000002,180.511,186.153,189.5344,191.68,194.734,196.9032,199.05,202.435,204.157,205.56060000000002,207.667,209.6448,211.806,216.186,219.572,221.759,225.1404,227.284,229.075,232.71159999999998,234.881,238.33,240.849,242.64,245.694,247.5442,249.678,253.198,256.707,258.863,261.184,264.703,267.991,271.109,274.628,277.0524,279.102,282.334,285.853,289.373,292.892,296.412" svgx:width="0.58,0.22,0.55,0.88,0.53,0.55,0.48,0.34,0.55,0.53,0.27,0.22,0.55,0.31,0.55,0.69,0.53,0.34,0.53,0.55,0.28,0.57,0.55,0.54,0.4,0.28,0.48,0.29,0.55,0.55,0.55,0.55,0.36,0.55,0.55,0.55,0.55,0.38,0.55,0.55,0.55,0.55,0.55,0.55,0.55" style="fill:rgb(0,0,0);font-family:AdvOTb92eb7df.I;font-size:6.38px;stroke:none;">R. Ma et al. / Data in brief 26 (2019) 104409</text>
   <text y="50.06" x="424.235" svgx:width="0.57" style="fill:rgb(0,0,0);font-family:AdvOT863180fb;font-size:6.38px;stroke:none;">9</text>
  </g>
 </g>
</svg>
