<?xml version="1.0" encoding="UTF-8"?>
<svg height="613.711" width="437.8716" xmlns="http://www.w3.org/2000/svg">
 <g id="page" xmlns:svgx="http://www.xml-cml.org/schema/svgx">
  <g begin="text">
   <text y="72.51" x="122.173,125.9372,128.126,130.539,134.332,138.125,140.539,143.231,146.99519999999998,149.158,151.572,155.364,159.157,161.571,164.263,168.98420000000002,171.154,173.567,177.36,181.153,183.44979999999998,316.173,319.966,323.759,327.552,329.07" svgx:width="0.59,0.55,0.36,0.57,0.57,0.36,0.41,0.59,0.55,0.36,0.57,0.57,0.36,0.41,0.74,0.55,0.36,0.57,0.57,0.36,0.55,0.57,0.57,0.57,0.23,0.57" style="fill:rgb(0,0,0);font-family:AdvOT863180fb;font-size:6.38px;stroke:none;">C (38)-C (37)-H (37) 118.3</text>
   <text y="81.071" x="122.173,125.9372,128.126,130.539,134.332,136.746,139.438,143.20219999999998,145.36,147.773,151.566,153.98,156.672,160.43619999999999,162.594,165.007,168.8,171.0968,316.174,319.967,323.76,327.553,329.071,332.7076,334.826,337.239,341.032" svgx:width="0.59,0.55,0.36,0.57,0.36,0.41,0.59,0.55,0.36,0.57,0.36,0.41,0.59,0.55,0.36,0.57,0.36,0.55,0.57,0.57,0.57,0.23,0.57,0.55,0.36,0.57,0.36" style="fill:rgb(0,0,0);font-family:AdvOT863180fb;font-size:6.38px;stroke:none;">C (9)-C (8)-C (7) 121.4 (7)</text>
   <text y="89.631" x="122.173,125.9372,128.126,130.539,134.332,136.746,139.438,143.20219999999998,145.36,147.773,151.566,153.98,156.672,161.3932,163.557,165.971,169.764,172.0608,316.174,319.967,323.76,327.553,329.071" svgx:width="0.59,0.55,0.36,0.57,0.36,0.41,0.59,0.55,0.36,0.57,0.36,0.41,0.74,0.55,0.36,0.57,0.36,0.55,0.57,0.57,0.57,0.23,0.57" style="fill:rgb(0,0,0);font-family:AdvOT863180fb;font-size:6.38px;stroke:none;">C (9)-C (8)-H (8) 119.3</text>
   <text y="98.192" x="122.173,125.9372,128.126,130.539,134.332,136.746,139.438,143.20219999999998,145.36,147.773,151.566,153.98,156.672,161.3932,163.557,165.971,169.764,172.0608,316.174,319.967,323.76,327.553,329.071" svgx:width="0.59,0.55,0.36,0.57,0.36,0.41,0.59,0.55,0.36,0.57,0.36,0.41,0.74,0.55,0.36,0.57,0.36,0.55,0.57,0.57,0.57,0.23,0.57" style="fill:rgb(0,0,0);font-family:AdvOT863180fb;font-size:6.38px;stroke:none;">C (7)-C (8)-H (8) 119.3</text>
   <text y="106.752" x="122.173,125.9372,128.126,130.539,134.332,138.125,140.539,143.231,146.99519999999998,149.158,151.572,155.364,159.157,161.571,164.263,168.0272,170.19,172.604,176.397,178.69379999999998,316.174,319.967,323.759,327.552,329.071,332.7076,334.825,337.239,341.031" svgx:width="0.59,0.55,0.36,0.57,0.57,0.36,0.41,0.59,0.55,0.36,0.57,0.57,0.36,0.41,0.59,0.55,0.36,0.57,0.36,0.55,0.57,0.57,0.57,0.23,0.57,0.55,0.36,0.57,0.36" style="fill:rgb(0,0,0);font-family:AdvOT863180fb;font-size:6.38px;stroke:none;">C (11)-C (12)-C (7) 118.6 (6)</text>
   <text y="115.313" x="122.173,125.9372,128.126,130.539,134.332,138.125,140.539,143.231,146.99519999999998,149.158,151.572,155.364,159.157,161.571,164.263,168.0272,170.19,172.604,176.397,180.189,182.48579999999998,316.174,319.967,323.759,327.552,329.071,332.7076,334.825,337.239,341.031" svgx:width="0.59,0.55,0.36,0.57,0.57,0.36,0.41,0.59,0.55,0.36,0.57,0.57,0.36,0.41,0.59,0.55,0.36,0.57,0.57,0.36,0.55,0.57,0.57,0.57,0.23,0.57,0.55,0.36,0.57,0.36" style="fill:rgb(0,0,0);font-family:AdvOT863180fb;font-size:6.38px;stroke:none;">C (11)-C (12)-C (13) 118.3 (6)</text>
   <text y="123.93" x="122.173,125.9372,128.126,130.539,134.332,136.746,139.438,143.20219999999998,145.36,147.773,151.566,155.359,157.773,160.465,164.2292,166.392,168.806,172.598,176.391,178.68779999999998,316.174,319.967,323.759,327.552,329.071,332.7076,334.825,337.239,341.031" svgx:width="0.59,0.55,0.36,0.57,0.36,0.41,0.59,0.55,0.36,0.57,0.57,0.36,0.41,0.59,0.55,0.36,0.57,0.57,0.36,0.55,0.57,0.57,0.57,0.23,0.57,0.55,0.36,0.57,0.36" style="fill:rgb(0,0,0);font-family:AdvOT863180fb;font-size:6.38px;stroke:none;">C (7)-C (12)-C (13) 123.1 (6)</text>
   <text y="132.49" x="122.173,126.8304,129.033,131.446,135.239,139.032,142.825,145.238,147.931,151.6952,153.863,156.277,160.07,162.483,165.175,168.9392,171.097,173.511,177.304,179.6008,316.174,319.967,323.759,327.552,329.071,332.7076,334.825,337.238,341.031" svgx:width="0.73,0.55,0.36,0.57,0.57,0.57,0.36,0.41,0.59,0.55,0.36,0.57,0.36,0.41,0.59,0.55,0.36,0.57,0.36,0.55,0.57,0.57,0.57,0.23,0.57,0.55,0.36,0.57,0.36" style="fill:rgb(0,0,0);font-family:AdvOT863180fb;font-size:6.38px;stroke:none;">N (007)-C (4)-C (7) 111.6 (6)</text>
   <text y="141.051" x="122.173,126.8304,129.033,131.446,135.239,139.032,142.825,145.238,147.931,151.6952,153.863,156.277,160.07,162.483,165.175,168.9392,171.097,173.511,177.304,179.6008,316.174,319.967,323.759,327.552,329.071,332.7076,334.825,337.238,341.031" svgx:width="0.73,0.55,0.36,0.57,0.57,0.57,0.36,0.41,0.59,0.55,0.36,0.57,0.36,0.41,0.59,0.55,0.36,0.57,0.36,0.55,0.57,0.57,0.57,0.23,0.57,0.55,0.36,0.57,0.36" style="fill:rgb(0,0,0);font-family:AdvOT863180fb;font-size:6.38px;stroke:none;">N (007)-C (4)-C (5) 110.8 (5)</text>
   <text y="149.611" x="122.173,125.9372,128.126,130.539,134.332,136.746,139.438,143.20219999999998,145.36,147.773,151.566,153.98,156.672,160.43619999999999,162.594,165.007,168.8,171.0968,316.174,319.967,323.76,327.553,329.071,332.7076,334.826,337.239,341.032" svgx:width="0.59,0.55,0.36,0.57,0.36,0.41,0.59,0.55,0.36,0.57,0.36,0.41,0.59,0.55,0.36,0.57,0.36,0.55,0.57,0.57,0.57,0.23,0.57,0.55,0.36,0.57,0.36" style="fill:rgb(0,0,0);font-family:AdvOT863180fb;font-size:6.38px;stroke:none;">C (7)-C (4)-C (5) 113.9 (6)</text>
   <text y="158.171" x="122.173,126.8304,129.033,131.446,135.239,139.032,142.825,145.238,147.931,151.6952,153.863,156.277,160.07,162.483,165.175,169.89620000000002,172.061,174.474,178.267,180.5638,316.174,319.967,323.759,327.552,329.071" svgx:width="0.73,0.55,0.36,0.57,0.57,0.57,0.36,0.41,0.59,0.55,0.36,0.57,0.36,0.41,0.74,0.55,0.36,0.57,0.36,0.55,0.57,0.57,0.57,0.23,0.57" style="fill:rgb(0,0,0);font-family:AdvOT863180fb;font-size:6.38px;stroke:none;">N (007)-C (4)-H (4) 106.7</text>
   <text y="166.732" x="122.173,125.9372,128.126,130.539,134.332,136.746,139.438,143.20219999999998,145.36,147.773,151.566,153.98,156.672,161.3932,163.557,165.971,169.764,172.0608,316.174,319.967,323.76,327.553,329.071" svgx:width="0.59,0.55,0.36,0.57,0.36,0.41,0.59,0.55,0.36,0.57,0.36,0.41,0.74,0.55,0.36,0.57,0.36,0.55,0.57,0.57,0.57,0.23,0.57" style="fill:rgb(0,0,0);font-family:AdvOT863180fb;font-size:6.38px;stroke:none;">C (7)-C (4)-H (4) 106.7</text>
   <text y="175.292" x="122.173,125.9372,128.126,130.539,134.332,136.746,139.438,143.20219999999998,145.36,147.773,151.566,153.98,156.672,161.3932,163.557,165.971,169.764,172.0608,316.174,319.967,323.76,327.553,329.071" svgx:width="0.59,0.55,0.36,0.57,0.36,0.41,0.59,0.55,0.36,0.57,0.36,0.41,0.74,0.55,0.36,0.57,0.36,0.55,0.57,0.57,0.57,0.23,0.57" style="fill:rgb(0,0,0);font-family:AdvOT863180fb;font-size:6.38px;stroke:none;">C (5)-C (4)-H (4) 106.7</text>
   <text y="183.853" x="122.173,125.621,127.551,129.964,133.757,136.171,138.863,142.6272,144.849,147.263,151.056,154.848,157.262,159.954,164.67520000000002,166.845,169.258,173.051,176.844,181.194,183.49079999999998,316.173,319.966,323.759,327.552,329.07" svgx:width="0.52,0.29,0.36,0.57,0.36,0.41,0.59,0.55,0.36,0.57,0.57,0.36,0.41,0.74,0.55,0.36,0.57,0.57,0.66,0.36,0.55,0.57,0.57,0.57,0.23,0.57" style="fill:rgb(0,0,0);font-family:AdvOT863180fb;font-size:6.38px;stroke:none;">Si(2)-C (21)-H (21A) 109.5</text>
   <text y="192.47" x="122.173,125.621,127.551,129.964,133.757,136.171,138.863,142.6272,144.849,147.263,151.056,154.848,157.262,159.954,164.67520000000002,166.845,169.258,173.051,176.844,180.776,183.0728,316.173,319.966,323.759,327.552,329.07" svgx:width="0.52,0.29,0.36,0.57,0.36,0.41,0.59,0.55,0.36,0.57,0.57,0.36,0.41,0.74,0.55,0.36,0.57,0.57,0.59,0.36,0.55,0.57,0.57,0.57,0.23,0.57" style="fill:rgb(0,0,0);font-family:AdvOT863180fb;font-size:6.38px;stroke:none;">Si(2)-C (21)-H (21B) 109.5</text>
   <text y="201.03" x="122.173,126.8942,129.09,131.503,135.296,139.089,143.439,145.852,148.545,152.30919999999998,154.487,156.901,160.693,164.486,166.9,169.592,174.31320000000002,176.483,178.896,182.689,186.482,190.414,192.71079999999998,316.173,319.966,323.759,327.552,329.07" svgx:width="0.74,0.55,0.36,0.57,0.57,0.66,0.36,0.41,0.59,0.55,0.36,0.57,0.57,0.36,0.41,0.74,0.55,0.36,0.57,0.57,0.59,0.36,0.55,0.57,0.57,0.57,0.23,0.57" style="fill:rgb(0,0,0);font-family:AdvOT863180fb;font-size:6.38px;stroke:none;">H (21A)-C (21)-H (21B) 109.5</text>
   <text y="209.591" x="122.173,125.621,127.551,129.964,133.757,136.171,138.863,142.6272,144.849,147.263,151.056,154.848,157.262,159.954,164.67520000000002,166.845,169.258,173.051,176.844,180.776,183.0728,316.173,319.966,323.759,327.552,329.07" svgx:width="0.52,0.29,0.36,0.57,0.36,0.41,0.59,0.55,0.36,0.57,0.57,0.36,0.41,0.74,0.55,0.36,0.57,0.57,0.59,0.36,0.55,0.57,0.57,0.57,0.23,0.57" style="fill:rgb(0,0,0);font-family:AdvOT863180fb;font-size:6.38px;stroke:none;">Si(2)-C (21)-H (21C) 109.5</text>
   <text y="218.151" x="122.173,126.8942,129.09,131.503,135.296,139.089,143.439,145.852,148.545,152.30919999999998,154.487,156.901,160.693,164.486,166.9,169.592,174.31320000000002,176.483,178.896,182.689,186.482,190.414,192.71079999999998,316.173,319.966,323.759,327.552,329.07" svgx:width="0.74,0.55,0.36,0.57,0.57,0.66,0.36,0.41,0.59,0.55,0.36,0.57,0.57,0.36,0.41,0.74,0.55,0.36,0.57,0.57,0.59,0.36,0.55,0.57,0.57,0.57,0.23,0.57" style="fill:rgb(0,0,0);font-family:AdvOT863180fb;font-size:6.38px;stroke:none;">H (21A)-C (21)-H (21C) 109.5</text>
   <text y="226.712" x="122.173,126.8942,129.09,131.503,135.296,139.089,143.021" svgx:width="0.74,0.55,0.36,0.57,0.57,0.59,0.36" style="fill:rgb(0,0,0);font-family:AdvOT863180fb;font-size:6.38px;stroke:none;">H (21B)</text>
   <text y="226.712" x="145.474" svgx:width="0.75" style="fill:rgb(0,0,0);font-family:AdvPS44A44B;font-size:6.38px;stroke:none;">e</text>
   <text y="226.712" x="150.406,154.1702,156.358,158.772,162.565,166.358,168.771,171.463,176.1842,178.355,180.768,184.561,188.354,192.286,194.5828,316.174,319.967,323.76,327.553,329.071" svgx:width="0.59,0.55,0.36,0.57,0.57,0.36,0.41,0.74,0.55,0.36,0.57,0.57,0.59,0.36,0.55,0.57,0.57,0.57,0.23,0.57" style="fill:rgb(0,0,0);font-family:AdvOT863180fb;font-size:6.38px;stroke:none;">C (21)-H (21C) 109.5</text>
   <text y="235.272" x="122.173,125.9372,128.125,130.539,134.331,138.124,140.538,143.23,146.99419999999998,149.157,151.571,155.364,159.156,161.57,164.262,168.9832,171.153,173.567,177.359,181.152,185.502,187.7988,316.172,319.965,323.758,327.551,329.069" svgx:width="0.59,0.55,0.36,0.57,0.57,0.36,0.41,0.59,0.55,0.36,0.57,0.57,0.36,0.41,0.74,0.55,0.36,0.57,0.57,0.66,0.36,0.55,0.57,0.57,0.57,0.23,0.57" style="fill:rgb(0,0,0);font-family:AdvOT863180fb;font-size:6.38px;stroke:none;">C (26)-C (27)-H (27A) 109.5</text>
   <text y="243.832" x="122.173,125.9372,128.125,130.539,134.331,138.124,140.538,143.23,146.99419999999998,149.157,151.571,155.364,159.156,161.57,164.262,168.9832,171.153,173.567,177.359,181.152,185.084,187.3808,316.172,319.965,323.758,327.551,329.069" svgx:width="0.59,0.55,0.36,0.57,0.57,0.36,0.41,0.59,0.55,0.36,0.57,0.57,0.36,0.41,0.74,0.55,0.36,0.57,0.57,0.59,0.36,0.55,0.57,0.57,0.57,0.23,0.57" style="fill:rgb(0,0,0);font-family:AdvOT863180fb;font-size:6.38px;stroke:none;">C (26)-C (27)-H (27B) 109.5</text>
   <text y="252.45" x="122.173,126.8942,129.089,131.503,135.296,139.088,143.438,145.852,148.544,152.3082,154.486,156.9,160.693,164.486,166.899,169.591,174.31220000000002,176.482,178.896,182.689,186.481,190.413,192.7098,316.172,319.965,323.758,327.551,329.069" svgx:width="0.74,0.55,0.36,0.57,0.57,0.66,0.36,0.41,0.59,0.55,0.36,0.57,0.57,0.36,0.41,0.74,0.55,0.36,0.57,0.57,0.59,0.36,0.55,0.57,0.57,0.57,0.23,0.57" style="fill:rgb(0,0,0);font-family:AdvOT863180fb;font-size:6.38px;stroke:none;">H (27A)-C (27)-H (27B) 109.5</text>
   <text y="261.01" x="122.173,125.9372,128.125,130.539,134.331,138.124,140.538,143.23,146.99419999999998,149.157,151.571,155.364,159.156,161.57,164.262,168.9832,171.153,173.567,177.359,181.152,185.084,187.3808,316.172,319.965,323.758,327.551,329.069" svgx:width="0.59,0.55,0.36,0.57,0.57,0.36,0.41,0.59,0.55,0.36,0.57,0.57,0.36,0.41,0.74,0.55,0.36,0.57,0.57,0.59,0.36,0.55,0.57,0.57,0.57,0.23,0.57" style="fill:rgb(0,0,0);font-family:AdvOT863180fb;font-size:6.38px;stroke:none;">C (26)-C (27)-H (27C) 109.5</text>
   <text y="269.57" x="122.173,126.8942,129.089,131.503,135.296,139.088,143.438,145.852,148.544,152.3082,154.486,156.9,160.693,164.486,166.899,169.591,174.31220000000002,176.482,178.896,182.689,186.481,190.413,192.7098,316.172,319.965,323.758,327.551,329.069" svgx:width="0.74,0.55,0.36,0.57,0.57,0.66,0.36,0.41,0.59,0.55,0.36,0.57,0.57,0.36,0.41,0.74,0.55,0.36,0.57,0.57,0.59,0.36,0.55,0.57,0.57,0.57,0.23,0.57" style="fill:rgb(0,0,0);font-family:AdvOT863180fb;font-size:6.38px;stroke:none;">H (27A)-C (27)-H (27C) 109.5</text>
   <text y="278.131" x="122.173,126.8942,129.089,131.503,135.296,139.088,143.02" svgx:width="0.74,0.55,0.36,0.57,0.57,0.59,0.36" style="fill:rgb(0,0,0);font-family:AdvOT863180fb;font-size:6.38px;stroke:none;">H (27B)</text>
   <text y="278.131" x="145.473" svgx:width="0.75" style="fill:rgb(0,0,0);font-family:AdvPS44A44B;font-size:6.38px;stroke:none;">e</text>
   <text y="278.131" x="150.405,154.1692,156.358,158.771,162.564,166.357,168.77,171.463,176.1842,178.354,180.768,184.56,188.353,192.285,194.5818,316.174,319.967,323.759,327.552,329.071" svgx:width="0.59,0.55,0.36,0.57,0.57,0.36,0.41,0.74,0.55,0.36,0.57,0.57,0.59,0.36,0.55,0.57,0.57,0.57,0.23,0.57" style="fill:rgb(0,0,0);font-family:AdvOT863180fb;font-size:6.38px;stroke:none;">C (27)-H (27C) 109.5</text>
   <text y="286.691" x="122.172,125.62,127.549,129.963,133.756,136.169,138.862,142.62619999999998,144.848,147.261,151.054,154.847,157.261,159.953,164.6742,166.844,169.257,173.05,176.843,181.193,183.4898,316.172,319.965,323.757,327.55,329.069" svgx:width="0.52,0.29,0.36,0.57,0.36,0.41,0.59,0.55,0.36,0.57,0.57,0.36,0.41,0.74,0.55,0.36,0.57,0.57,0.66,0.36,0.55,0.57,0.57,0.57,0.23,0.57" style="fill:rgb(0,0,0);font-family:AdvOT863180fb;font-size:6.38px;stroke:none;">Si(3)-C (41)-H (41A) 109.5</text>
   <text y="295.252" x="122.172,125.62,127.549,129.963,133.756,136.169,138.862,142.62619999999998,144.848,147.261,151.054,154.847,157.261,159.953,164.6742,166.844,169.257,173.05,176.843,180.775,183.0718,316.172,319.965,323.757,327.55,329.069" svgx:width="0.52,0.29,0.36,0.57,0.36,0.41,0.59,0.55,0.36,0.57,0.57,0.36,0.41,0.74,0.55,0.36,0.57,0.57,0.59,0.36,0.55,0.57,0.57,0.57,0.23,0.57" style="fill:rgb(0,0,0);font-family:AdvOT863180fb;font-size:6.38px;stroke:none;">Si(3)-C (41)-H (41B) 109.5</text>
   <text y="303.812" x="122.172,126.8932,129.088,131.502,135.295,139.088,143.438,145.851,148.543,152.3072,154.486,156.899,160.692,164.485,166.899,169.591,174.31220000000002,176.481,178.895,182.688,186.481,190.413,192.7098,316.172,319.965,323.757,327.55,329.069" svgx:width="0.74,0.55,0.36,0.57,0.57,0.66,0.36,0.41,0.59,0.55,0.36,0.57,0.57,0.36,0.41,0.74,0.55,0.36,0.57,0.57,0.59,0.36,0.55,0.57,0.57,0.57,0.23,0.57" style="fill:rgb(0,0,0);font-family:AdvOT863180fb;font-size:6.38px;stroke:none;">H (41A)-C (41)-H (41B) 109.5</text>
   <text y="312.372" x="122.172,125.62,127.549,129.963,133.756,136.169,138.862,142.62619999999998,144.848,147.261,151.054,154.847,157.261,159.953,164.6742,166.844,169.257,173.05,176.843,180.775,183.0718,316.172,319.965,323.757,327.55,329.069" svgx:width="0.52,0.29,0.36,0.57,0.36,0.41,0.59,0.55,0.36,0.57,0.57,0.36,0.41,0.74,0.55,0.36,0.57,0.57,0.59,0.36,0.55,0.57,0.57,0.57,0.23,0.57" style="fill:rgb(0,0,0);font-family:AdvOT863180fb;font-size:6.38px;stroke:none;">Si(3)-C (41)-H (41C) 109.5</text>
   <text y="320.99" x="122.172,126.8932,129.088,131.502,135.295,139.088,143.438,145.851,148.543,152.3072,154.486,156.899,160.692,164.485,166.899,169.591,174.31220000000002,176.481,178.895,182.688,186.481,190.413,192.7098,316.172,319.965,323.757,327.55,329.069" svgx:width="0.74,0.55,0.36,0.57,0.57,0.66,0.36,0.41,0.59,0.55,0.36,0.57,0.57,0.36,0.41,0.74,0.55,0.36,0.57,0.57,0.59,0.36,0.55,0.57,0.57,0.57,0.23,0.57" style="fill:rgb(0,0,0);font-family:AdvOT863180fb;font-size:6.38px;stroke:none;">H (41A)-C (41)-H (41C) 109.5</text>
   <text y="329.55" x="122.172,126.8932,129.088,131.502,135.295,139.088,143.02" svgx:width="0.74,0.55,0.36,0.57,0.57,0.59,0.36" style="fill:rgb(0,0,0);font-family:AdvOT863180fb;font-size:6.38px;stroke:none;">H (41B)</text>
   <text y="329.55" x="145.473" svgx:width="0.75" style="fill:rgb(0,0,0);font-family:AdvPS44A44B;font-size:6.38px;stroke:none;">e</text>
   <text y="329.55" x="150.405,154.1692,156.357,158.771,162.563,166.356,168.77,171.462,176.1832,178.353,180.767,184.56,188.353,192.285,194.5818,316.173,319.966,323.759,327.552,329.07" svgx:width="0.59,0.55,0.36,0.57,0.57,0.36,0.41,0.74,0.55,0.36,0.57,0.57,0.59,0.36,0.55,0.57,0.57,0.57,0.23,0.57" style="fill:rgb(0,0,0);font-family:AdvOT863180fb;font-size:6.38px;stroke:none;">C (41)-H (41C) 109.5</text>
   <text y="338.111" x="122.171,125.619,127.549,129.962,133.755,136.169,138.861,142.62519999999998,144.847,147.261,151.054,154.846,157.26,159.952,164.6732,166.843,169.257,173.049,176.842,181.192,183.4888,316.171,319.964,323.757,327.55,329.068" svgx:width="0.52,0.29,0.36,0.57,0.36,0.41,0.59,0.55,0.36,0.57,0.57,0.36,0.41,0.74,0.55,0.36,0.57,0.57,0.66,0.36,0.55,0.57,0.57,0.57,0.23,0.57" style="fill:rgb(0,0,0);font-family:AdvOT863180fb;font-size:6.38px;stroke:none;">Si(1)-C (23)-H (23A) 109.5</text>
   <text y="346.671" x="122.171,125.619,127.549,129.962,133.755,136.169,138.861,142.62519999999998,144.847,147.261,151.054,154.846,157.26,159.952,164.6732,166.843,169.257,173.049,176.842,180.774,183.0708,316.171,319.964,323.757,327.55,329.068" svgx:width="0.52,0.29,0.36,0.57,0.36,0.41,0.59,0.55,0.36,0.57,0.57,0.36,0.41,0.74,0.55,0.36,0.57,0.57,0.59,0.36,0.55,0.57,0.57,0.57,0.23,0.57" style="fill:rgb(0,0,0);font-family:AdvOT863180fb;font-size:6.38px;stroke:none;">Si(1)-C (23)-H (23B) 109.5</text>
   <text y="355.231" x="122.171,126.8922,129.088,131.501,135.294,139.087,143.437,145.85,148.543,152.3072,154.485,156.899,160.692,164.484,166.898,169.59,174.3112,176.481,178.894,182.687,186.48,190.412,192.7088,316.171,319.964,323.757,327.55,329.068" svgx:width="0.74,0.55,0.36,0.57,0.57,0.66,0.36,0.41,0.59,0.55,0.36,0.57,0.57,0.36,0.41,0.74,0.55,0.36,0.57,0.57,0.59,0.36,0.55,0.57,0.57,0.57,0.23,0.57" style="fill:rgb(0,0,0);font-family:AdvOT863180fb;font-size:6.38px;stroke:none;">H (23A)-C (23)-H (23B) 109.5</text>
   <text y="363.792" x="122.171,125.619,127.549,129.962,133.755,136.169,138.861,142.62519999999998,144.847,147.261,151.054,154.846,157.26,159.952,164.6732,166.843,169.257,173.049,176.842,180.774,183.0708,316.171,319.964,323.757,327.55,329.068" svgx:width="0.52,0.29,0.36,0.57,0.36,0.41,0.59,0.55,0.36,0.57,0.57,0.36,0.41,0.74,0.55,0.36,0.57,0.57,0.59,0.36,0.55,0.57,0.57,0.57,0.23,0.57" style="fill:rgb(0,0,0);font-family:AdvOT863180fb;font-size:6.38px;stroke:none;">Si(1)-C (23)-H (23C) 109.5</text>
   <text y="372.352" x="122.171,126.8922,129.088,131.501,135.294,139.087,143.437,145.85,148.543,152.3072,154.485,156.899,160.692,164.484,166.898,169.59,174.3112,176.481,178.894,182.687,186.48,190.412,192.7088,316.171,319.964,323.757,327.55,329.068" svgx:width="0.74,0.55,0.36,0.57,0.57,0.66,0.36,0.41,0.59,0.55,0.36,0.57,0.57,0.36,0.41,0.74,0.55,0.36,0.57,0.57,0.59,0.36,0.55,0.57,0.57,0.57,0.23,0.57" style="fill:rgb(0,0,0);font-family:AdvOT863180fb;font-size:6.38px;stroke:none;">H (23A)-C (23)-H (23C) 109.5</text>
   <text y="380.913" x="122.171,126.8922,129.088,131.501,135.294,139.087,143.019" svgx:width="0.74,0.55,0.36,0.57,0.57,0.59,0.36" style="fill:rgb(0,0,0);font-family:AdvOT863180fb;font-size:6.38px;stroke:none;">H (23B)</text>
   <text y="380.913" x="145.472" svgx:width="0.75" style="fill:rgb(0,0,0);font-family:AdvPS44A44B;font-size:6.38px;stroke:none;">e</text>
   <text y="380.913" x="150.404,154.16819999999998,156.356,158.77,162.563,166.356,168.769,171.461,176.18220000000002,178.353,180.766,184.559,188.352,192.284,194.58079999999998,316.173,319.965,323.758,327.551,329.069" svgx:width="0.59,0.55,0.36,0.57,0.57,0.36,0.41,0.74,0.55,0.36,0.57,0.57,0.59,0.36,0.55,0.57,0.57,0.57,0.23,0.57" style="fill:rgb(0,0,0);font-family:AdvOT863180fb;font-size:6.38px;stroke:none;">C (23)-H (23C) 109.5</text>
   <text y="389.53" x="122.171,125.619,127.548,129.962,133.755,136.168,138.86,142.6242,144.847,147.26,151.053,154.846,157.259,159.952,164.6732,166.842,169.256,173.049,176.841,181.191,183.4878,316.171,319.963,323.756,327.549,329.067" svgx:width="0.52,0.29,0.36,0.57,0.36,0.41,0.59,0.55,0.36,0.57,0.57,0.36,0.41,0.74,0.55,0.36,0.57,0.57,0.66,0.36,0.55,0.57,0.57,0.57,0.23,0.57" style="fill:rgb(0,0,0);font-family:AdvOT863180fb;font-size:6.38px;stroke:none;">Si(3)-C (40)-H (40A) 109.5</text>
   <text y="398.09" x="122.171,125.619,127.548,129.962,133.755,136.168,138.86,142.6242,144.847,147.26,151.053,154.846,157.259,159.952,164.6732,166.842,169.256,173.049,176.841,180.774,183.0708,316.171,319.963,323.756,327.549,329.067" svgx:width="0.52,0.29,0.36,0.57,0.36,0.41,0.59,0.55,0.36,0.57,0.57,0.36,0.41,0.74,0.55,0.36,0.57,0.57,0.59,0.36,0.55,0.57,0.57,0.57,0.23,0.57" style="fill:rgb(0,0,0);font-family:AdvOT863180fb;font-size:6.38px;stroke:none;">Si(3)-C (40)-H (40B) 109.5</text>
   <text y="406.651" x="122.171,126.8922,129.087,131.501,135.294,139.086,143.436,145.85,148.542,152.3062,154.484,156.898,160.691,164.484,166.897,169.589,174.3102,176.48,178.894,182.687,186.479,190.411,192.7078,316.171,319.963,323.756,327.549,329.067" svgx:width="0.74,0.55,0.36,0.57,0.57,0.66,0.36,0.41,0.59,0.55,0.36,0.57,0.57,0.36,0.41,0.74,0.55,0.36,0.57,0.57,0.59,0.36,0.55,0.57,0.57,0.57,0.23,0.57" style="fill:rgb(0,0,0);font-family:AdvOT863180fb;font-size:6.38px;stroke:none;">H (40A)-C (40)-H (40B) 109.5</text>
   <text y="415.211" x="122.171,125.619,127.548,129.962,133.755,136.168,138.86,142.6242,144.847,147.26,151.053,154.846,157.259,159.952,164.6732,166.842,169.256,173.049,176.841,180.774,183.0708,316.171,319.963,323.756,327.549,329.067" svgx:width="0.52,0.29,0.36,0.57,0.36,0.41,0.59,0.55,0.36,0.57,0.57,0.36,0.41,0.74,0.55,0.36,0.57,0.57,0.59,0.36,0.55,0.57,0.57,0.57,0.23,0.57" style="fill:rgb(0,0,0);font-family:AdvOT863180fb;font-size:6.38px;stroke:none;">Si(3)-C (40)-H (40C) 109.5</text>
   <text y="423.771" x="122.171,126.8922,129.087,131.501,135.294,139.086,143.436,145.85,148.542,152.3062,154.484,156.898,160.691,164.484,166.897,169.589,174.3102,176.48,178.894,182.687,186.479,190.411,192.7078,316.171,319.963,323.756,327.549,329.067" svgx:width="0.74,0.55,0.36,0.57,0.57,0.66,0.36,0.41,0.59,0.55,0.36,0.57,0.57,0.36,0.41,0.74,0.55,0.36,0.57,0.57,0.59,0.36,0.55,0.57,0.57,0.57,0.23,0.57" style="fill:rgb(0,0,0);font-family:AdvOT863180fb;font-size:6.38px;stroke:none;">H (40A)-C (40)-H (40C) 109.5</text>
   <text y="432.332" x="122.171,126.8922,129.087,131.501,135.294,139.086,143.018" svgx:width="0.74,0.55,0.36,0.57,0.57,0.59,0.36" style="fill:rgb(0,0,0);font-family:AdvOT863180fb;font-size:6.38px;stroke:none;">H (40B)</text>
   <text y="432.332" x="145.471" svgx:width="0.75" style="fill:rgb(0,0,0);font-family:AdvPS44A44B;font-size:6.38px;stroke:none;">e</text>
   <text y="432.332" x="150.403,154.16719999999998,156.356,158.769,162.562,166.355,168.769,171.461,176.18220000000002,178.352,180.766,184.558,188.351,192.283,194.57979999999998,316.172,319.965,323.757,327.55,329.069" svgx:width="0.59,0.55,0.36,0.57,0.57,0.36,0.41,0.74,0.55,0.36,0.57,0.57,0.59,0.36,0.55,0.57,0.57,0.57,0.23,0.57" style="fill:rgb(0,0,0);font-family:AdvOT863180fb;font-size:6.38px;stroke:none;">C (40)-H (40C) 109.5</text>
   <text y="440.892" x="122.17,125.9342,128.122,130.536,134.329,136.742,139.435,143.1992,145.356,147.77,151.563,153.977,156.669,161.39020000000002,163.554,165.968,169.76,174.11,176.4068,316.171,319.963,323.756,327.549,329.067" svgx:width="0.59,0.55,0.36,0.57,0.36,0.41,0.59,0.55,0.36,0.57,0.36,0.41,0.74,0.55,0.36,0.57,0.66,0.36,0.55,0.57,0.57,0.57,0.23,0.57" style="fill:rgb(0,0,0);font-family:AdvOT863180fb;font-size:6.38px;stroke:none;">C (5)-C (6)-H (6A) 109.5</text>
   <text y="449.509" x="122.17,125.9342,128.122,130.536,134.329,136.742,139.435,143.1992,145.356,147.77,151.563,153.977,156.669,161.39020000000002,163.554,165.968,169.76,173.693,175.9898,316.171,319.963,323.756,327.549,329.067" svgx:width="0.59,0.55,0.36,0.57,0.36,0.41,0.59,0.55,0.36,0.57,0.36,0.41,0.74,0.55,0.36,0.57,0.59,0.36,0.55,0.57,0.57,0.57,0.23,0.57" style="fill:rgb(0,0,0);font-family:AdvOT863180fb;font-size:6.38px;stroke:none;">C (5)-C (6)-H (6B) 109.5</text>
   <text y="458.07" x="122.17,126.8912,129.087,131.5,135.293,139.643,142.056,144.748,148.51219999999998,150.686,153.099,156.892,159.306,161.998,166.7192,168.883,171.297,175.09,179.022,181.31879999999998,316.171,319.963,323.756,327.549,329.067" svgx:width="0.74,0.55,0.36,0.57,0.66,0.36,0.41,0.59,0.55,0.36,0.57,0.36,0.41,0.74,0.55,0.36,0.57,0.59,0.36,0.55,0.57,0.57,0.57,0.23,0.57" style="fill:rgb(0,0,0);font-family:AdvOT863180fb;font-size:6.38px;stroke:none;">H (6A)-C (6)-H (6B) 109.5</text>
   <text y="466.63" x="122.17,125.9342,128.122,130.536,134.329,136.742,139.435,143.1992,145.356,147.77,151.563,153.977,156.669,161.39020000000002,163.554,165.968,169.76,173.693,175.9898,316.171,319.963,323.756,327.549,329.067" svgx:width="0.59,0.55,0.36,0.57,0.36,0.41,0.59,0.55,0.36,0.57,0.36,0.41,0.74,0.55,0.36,0.57,0.59,0.36,0.55,0.57,0.57,0.57,0.23,0.57" style="fill:rgb(0,0,0);font-family:AdvOT863180fb;font-size:6.38px;stroke:none;">C (5)-C (6)-H (6C) 109.5</text>
   <text y="475.191" x="122.17,126.8912,129.087,131.5,135.293,139.643,142.056,144.748,148.51219999999998,150.686,153.099,156.892,159.306,161.998,166.7192,168.883,171.297,175.09,179.022,181.31879999999998,316.171,319.963,323.756,327.549,329.067" svgx:width="0.74,0.55,0.36,0.57,0.66,0.36,0.41,0.59,0.55,0.36,0.57,0.36,0.41,0.74,0.55,0.36,0.57,0.59,0.36,0.55,0.57,0.57,0.57,0.23,0.57" style="fill:rgb(0,0,0);font-family:AdvOT863180fb;font-size:6.38px;stroke:none;">H (6A)-C (6)-H (6C) 109.5</text>
   <text y="483.751" x="122.17,126.8912,129.087,131.5,135.293,139.225" svgx:width="0.74,0.55,0.36,0.57,0.59,0.36" style="fill:rgb(0,0,0);font-family:AdvOT863180fb;font-size:6.38px;stroke:none;">H (6B)</text>
   <text y="483.751" x="141.672" svgx:width="0.75" style="fill:rgb(0,0,0);font-family:AdvPS44A44B;font-size:6.38px;stroke:none;">e</text>
   <text y="483.751" x="146.604,150.3682,152.557,154.97,158.763,161.177,163.869,168.5902,170.754,173.168,176.961,180.893,183.1898,316.171,319.964,323.757,327.55,329.068" svgx:width="0.59,0.55,0.36,0.57,0.36,0.41,0.74,0.55,0.36,0.57,0.59,0.36,0.55,0.57,0.57,0.57,0.23,0.57" style="fill:rgb(0,0,0);font-family:AdvOT863180fb;font-size:6.38px;stroke:none;">C (6)-H (6C) 109.5</text>
   <text y="492.312" x="122.17,125.618,127.548,129.961,133.754,136.168,138.86,142.6242,144.846,147.26,151.052,154.845,157.259,159.951,164.6722,166.842,169.255,173.048,176.841,181.191,183.4878,316.17,319.963,323.755,327.548,329.067" svgx:width="0.52,0.29,0.36,0.57,0.36,0.41,0.59,0.55,0.36,0.57,0.57,0.36,0.41,0.74,0.55,0.36,0.57,0.57,0.66,0.36,0.55,0.57,0.57,0.57,0.23,0.57" style="fill:rgb(0,0,0);font-family:AdvOT863180fb;font-size:6.38px;stroke:none;">Si(1)-C (24)-H (24A) 109.5</text>
   <text y="500.872" x="122.17,125.618,127.548,129.961,133.754,136.168,138.86,142.6242,144.846,147.26,151.052,154.845,157.259,159.951,164.6722,166.842,169.255,173.048,176.841,180.773,183.0698,316.17,319.963,323.755,327.548,329.067" svgx:width="0.52,0.29,0.36,0.57,0.36,0.41,0.59,0.55,0.36,0.57,0.57,0.36,0.41,0.74,0.55,0.36,0.57,0.57,0.59,0.36,0.55,0.57,0.57,0.57,0.23,0.57" style="fill:rgb(0,0,0);font-family:AdvOT863180fb;font-size:6.38px;stroke:none;">Si(1)-C (24)-H (24B) 109.5</text>
   <text y="509.432" x="122.17,126.8912,129.087,131.5,135.293,139.086,143.436,145.849,148.541,152.30519999999999,154.484,156.897,160.69,164.483,166.897,169.589,174.3102,176.479,178.893,182.686,186.479,190.411,192.7078,316.17,319.963,323.755,327.548,329.067" svgx:width="0.74,0.55,0.36,0.57,0.57,0.66,0.36,0.41,0.59,0.55,0.36,0.57,0.57,0.36,0.41,0.74,0.55,0.36,0.57,0.57,0.59,0.36,0.55,0.57,0.57,0.57,0.23,0.57" style="fill:rgb(0,0,0);font-family:AdvOT863180fb;font-size:6.38px;stroke:none;">H (24A)-C (24)-H (24B) 109.5</text>
   <text y="518.05" x="122.17,125.618,127.548,129.961,133.754,136.168,138.86,142.6242,144.846,147.26,151.052,154.845,157.259,159.951,164.6722,166.842,169.255,173.048,176.841,180.773,183.0698,316.17,319.963,323.755,327.548,329.067" svgx:width="0.52,0.29,0.36,0.57,0.36,0.41,0.59,0.55,0.36,0.57,0.57,0.36,0.41,0.74,0.55,0.36,0.57,0.57,0.59,0.36,0.55,0.57,0.57,0.57,0.23,0.57" style="fill:rgb(0,0,0);font-family:AdvOT863180fb;font-size:6.38px;stroke:none;">Si(1)-C (24)-H (24C) 109.5</text>
   <text y="526.61" x="122.17,126.8912,129.087,131.5,135.293,139.086,143.436,145.849,148.541,152.30519999999999,154.484,156.897,160.69,164.483,166.897,169.589,174.3102,176.479,178.893,182.686,186.479,190.411,192.7078,316.17,319.963,323.755,327.548,329.067" svgx:width="0.74,0.55,0.36,0.57,0.57,0.66,0.36,0.41,0.59,0.55,0.36,0.57,0.57,0.36,0.41,0.74,0.55,0.36,0.57,0.57,0.59,0.36,0.55,0.57,0.57,0.57,0.23,0.57" style="fill:rgb(0,0,0);font-family:AdvOT863180fb;font-size:6.38px;stroke:none;">H (24A)-C (24)-H (24C) 109.5</text>
   <text y="535.17" x="122.17,126.8912,129.087,131.5,135.293,139.086,143.018" svgx:width="0.74,0.55,0.36,0.57,0.57,0.59,0.36" style="fill:rgb(0,0,0);font-family:AdvOT863180fb;font-size:6.38px;stroke:none;">H (24B)</text>
   <text y="535.17" x="145.471" svgx:width="0.75" style="fill:rgb(0,0,0);font-family:AdvPS44A44B;font-size:6.38px;stroke:none;">e</text>
   <text y="535.17" x="150.403,154.16719999999998,156.355,158.769,162.561,166.354,168.768,171.46,176.18120000000002,178.351,180.765,184.558,188.351,192.283,194.57979999999998,316.171,319.964,323.757,327.55,329.068" svgx:width="0.59,0.55,0.36,0.57,0.57,0.36,0.41,0.74,0.55,0.36,0.57,0.57,0.59,0.36,0.55,0.57,0.57,0.57,0.23,0.57" style="fill:rgb(0,0,0);font-family:AdvOT863180fb;font-size:6.38px;stroke:none;">C (24)-H (24C) 109.5</text>
   <text y="543.731" x="122.169,125.617,127.547,129.96,133.753,136.167,138.859,142.6232,144.845,147.259,151.052,154.844,157.258,159.95,164.6712,166.841,169.255,173.047,176.84,181.19,183.4868,316.169,319.962,323.755,327.548,329.066" svgx:width="0.52,0.29,0.36,0.57,0.36,0.41,0.59,0.55,0.36,0.57,0.57,0.36,0.41,0.74,0.55,0.36,0.57,0.57,0.66,0.36,0.55,0.57,0.57,0.57,0.23,0.57" style="fill:rgb(0,0,0);font-family:AdvOT863180fb;font-size:6.38px;stroke:none;">Si(3)-C (42)-H (42A) 109.5</text>
   <text y="552.291" x="122.169,125.617,127.547,129.96,133.753,136.167,138.859,142.6232,144.845,147.259,151.052,154.844,157.258,159.95,164.6712,166.841,169.255,173.047,176.84,180.772,183.06879999999998,316.169,319.962,323.755,327.548,329.066" svgx:width="0.52,0.29,0.36,0.57,0.36,0.41,0.59,0.55,0.36,0.57,0.57,0.36,0.41,0.74,0.55,0.36,0.57,0.57,0.59,0.36,0.55,0.57,0.57,0.57,0.23,0.57" style="fill:rgb(0,0,0);font-family:AdvOT863180fb;font-size:6.38px;stroke:none;">Si(3)-C (42)-H (42B) 109.5</text>
   <text y="560.852" x="122.169,126.8902,129.086,131.499,135.292,139.085,143.435,145.848,148.541,152.30519999999999,154.483,156.897,160.69,164.482,166.896,169.588,174.3092,176.479,178.892,182.685,186.478,190.41,192.7068,316.169,319.962,323.755,327.548,329.066" svgx:width="0.74,0.55,0.36,0.57,0.57,0.66,0.36,0.41,0.59,0.55,0.36,0.57,0.57,0.36,0.41,0.74,0.55,0.36,0.57,0.57,0.59,0.36,0.55,0.57,0.57,0.57,0.23,0.57" style="fill:rgb(0,0,0);font-family:AdvOT863180fb;font-size:6.38px;stroke:none;">H (42A)-C (42)-H (42B) 109.5</text>
   <text y="569.412" x="122.169,125.617,127.547,129.96,133.753,136.167,138.859,142.6232,144.845,147.259,151.052,154.844,157.258,159.95,164.6712,166.841,169.255,173.047,176.84,180.772,183.06879999999998,316.169,319.962,323.755,327.548,329.066" svgx:width="0.52,0.29,0.36,0.57,0.36,0.41,0.59,0.55,0.36,0.57,0.57,0.36,0.41,0.74,0.55,0.36,0.57,0.57,0.59,0.36,0.55,0.57,0.57,0.57,0.23,0.57" style="fill:rgb(0,0,0);font-family:AdvOT863180fb;font-size:6.38px;stroke:none;">Si(3)-C (42)-H (42C) 109.5</text>
   <text y="577.973" x="122.169,126.8902,129.086,131.499,135.292,139.085,143.435,145.848,148.541,152.30519999999999,154.483,156.897,160.69,164.482,166.896,169.588,174.3092,176.479,178.892,182.685,186.478,190.41,192.7068,316.169,319.962,323.755,327.548,329.066" svgx:width="0.74,0.55,0.36,0.57,0.57,0.66,0.36,0.41,0.59,0.55,0.36,0.57,0.57,0.36,0.41,0.74,0.55,0.36,0.57,0.57,0.59,0.36,0.55,0.57,0.57,0.57,0.23,0.57" style="fill:rgb(0,0,0);font-family:AdvOT863180fb;font-size:6.38px;stroke:none;">H (42A)-C (42)-H (42C) 109.5</text>
   <text y="586.59" x="122.169,126.8902,129.086,131.499,135.292,139.085,143.017" svgx:width="0.74,0.55,0.36,0.57,0.57,0.59,0.36" style="fill:rgb(0,0,0);font-family:AdvOT863180fb;font-size:6.38px;stroke:none;">H (42B)</text>
   <text y="586.59" x="145.47" svgx:width="0.75" style="fill:rgb(0,0,0);font-family:AdvPS44A44B;font-size:6.38px;stroke:none;">e</text>
   <text y="586.59" x="150.402,154.16619999999998,156.354,158.768,162.561,166.354,168.767,171.459,176.1802,178.351,180.764,184.557,188.35,192.282,194.5788,316.171,319.963,323.756,327.549,329.067" svgx:width="0.59,0.55,0.36,0.57,0.57,0.36,0.41,0.74,0.55,0.36,0.57,0.57,0.59,0.36,0.55,0.57,0.57,0.57,0.23,0.57" style="fill:rgb(0,0,0);font-family:AdvOT863180fb;font-size:6.38px;stroke:none;">C (42)-H (42C) 109.5</text>
   <text y="595.15" x="122.169,125.617,127.546,129.96,133.753,136.166,138.858,142.6222,144.845,147.258,151.051,154.844,157.257,159.95,164.6712,166.84,169.254,173.047,176.84,181.189,183.48579999999998,316.169,319.961,323.754,327.547,329.065" svgx:width="0.52,0.29,0.36,0.57,0.36,0.41,0.59,0.55,0.36,0.57,0.57,0.36,0.41,0.74,0.55,0.36,0.57,0.57,0.66,0.36,0.55,0.57,0.57,0.57,0.23,0.57" style="fill:rgb(0,0,0);font-family:AdvOT863180fb;font-size:6.38px;stroke:none;">Si(2)-C (20)-H (20A) 109.5</text>
   <text y="603.711" x="122.169,125.617,127.546,129.96,133.753,136.166,138.858,142.6222,144.845,147.258,151.051,154.844,157.257,159.95,164.6712,166.84,169.254,173.047,176.84,180.772,183.06879999999998,316.169,319.961,323.754,327.547,329.065" svgx:width="0.52,0.29,0.36,0.57,0.36,0.41,0.59,0.55,0.36,0.57,0.57,0.36,0.41,0.74,0.55,0.36,0.57,0.57,0.59,0.36,0.55,0.57,0.57,0.57,0.23,0.57" style="fill:rgb(0,0,0);font-family:AdvOT863180fb;font-size:6.38px;stroke:none;">Si(2)-C (20)-H (20B) 109.5</text>
   <text y="50.06" x="173.253,176.971,178.37460000000002,180.511,186.153,189.5344,191.68,194.734,196.9032,199.05,202.435,204.157,205.56060000000002,207.667,209.6448,211.806,216.186,219.572,221.759,225.1404,227.284,229.075,232.71159999999998,234.881,238.33,240.849,242.64,245.694,247.5442,249.678,253.198,256.707,258.863,261.184,264.703,267.991,271.109,274.628,277.0524,279.102,282.334,285.853,289.373,292.892,296.412" svgx:width="0.58,0.22,0.55,0.88,0.53,0.55,0.48,0.34,0.55,0.53,0.27,0.22,0.55,0.31,0.55,0.69,0.53,0.34,0.53,0.55,0.28,0.57,0.55,0.54,0.4,0.28,0.48,0.29,0.55,0.55,0.55,0.55,0.36,0.55,0.55,0.55,0.55,0.38,0.55,0.55,0.55,0.55,0.55,0.55,0.55" style="fill:rgb(0,0,0);font-family:AdvOTb92eb7df.I;font-size:6.38px;stroke:none;">R. Ma et al. / Data in brief 26 (2019) 104409</text>
   <text y="50.06" x="421.23,424.235" svgx:width="0.57,0.57" style="fill:rgb(0,0,0);font-family:AdvOT863180fb;font-size:6.38px;stroke:none;">17</text>
  </g>
 </g>
</svg>
