<?xml version="1.0" encoding="UTF-8"?>
<svg height="802.1" width="546.405" xmlns="http://www.w3.org/2000/svg">
 <g id="page" xmlns:svgx="http://www.xml-cml.org/schema/svgx">
  <g begin="text"/>
  <g begin="text">
   <text y="792.1" x="517.93,521.822,525.714,529.606" svgx:width="0.56,0.56,0.56,0.56" style="fill:rgb(0,0,0);font-family:NimbusSans-Regular;font-size:7.0px;stroke:none;">2767</text>
  </g>
  <path style="fill:rgb(23,43,98);stroke:none;stroke-width:1.0;" d="M59.5 48.19 L59.5 89.41 L439.5 89.41 L439.5 48.19 ZM59.5 48.19 L439.5 48.19 L439.5 89.41 L59.5 89.41 L59.5 48.19 ZM183.89 74.44 L183.89 63.61 L182.12 63.61 L182.12 69.73 L182.15 70.89 L182.12 70.9 L181.47 69.94 L177.15 63.61 L175.42 63.61 L175.42 74.44 L177.19 74.44 L177.19 68.04 L177.18 66.87 L177.21 66.86 L177.86 67.84 L182.48 74.44 L183.89 74.44 ZM170.68 74.44 L172.7 74.44 L172.7 63.61 L170.68 63.61 L170.68 74.44 ZM163.38 72.67 L163.38 69.66 L167.6 69.66 L167.6 68.03 L163.38 68.03 L163.38 65.41 L168.35 65.41 L168.32 63.61 L161.38 63.61 L161.38 74.44 L168.54 74.44 L168.58 72.67 L163.38 72.67 ZM159.83 65.45 L159.79 63.61 L151.76 63.61 L151.71 65.45 L154.76 65.45 L154.76 74.44 L156.78 74.44 L156.78 65.45 L159.83 65.45 ZM151.02 71.26 C151.02 67.58 145.86 68.49 145.86 66.51 C145.86 65.82 146.32 65.22 147.8 65.22 C148.66 65.22 149.51 65.4 150.4 65.72 L150.66 64.0 C149.85 63.64 148.76 63.42 147.69 63.42 C145.08 63.42 143.94 64.849 143.94 66.61 C143.94 70.24 149.1 69.36 149.1 71.4 C149.1 72.34 148.47 72.87 147.13 72.87 C146.03 72.87 145.06 72.58 144.15 72.06 L143.88 73.84 C144.77 74.34 145.9 74.65 147.14 74.65 C149.6 74.65 151.02 73.36 151.02 71.26 M138.04 72.61 L138.04 63.61 L136.03 63.61 L136.03 74.44 L142.72 74.44 L142.76 72.61 L138.04 72.61 ZM131.29 74.44 L133.31 74.44 L133.31 63.61 L131.29 63.61 L131.29 74.44 ZM123.99 72.67 L123.99 69.66 L128.21 69.66 L128.21 68.03 L123.99 68.03 L123.99 65.41 L128.96 65.41 L128.93 63.61 L121.99 63.61 L121.99 74.44 L129.15 74.44 L129.19 72.67 L123.99 72.67 ZM117.88 66.71 C117.88 67.68 117.41 68.13 116.4 68.13 L114.1 68.13 L114.1 65.33 L116.32 65.33 C117.4 65.33 117.88 65.7 117.88 66.71 M118.19 71.16 C118.19 72.38 117.63 72.77 116.52 72.77 L114.1 72.77 L114.1 69.64 L116.47 69.64 C117.69 69.64 118.19 70.11 118.19 71.16 M120.19 71.32 C120.19 69.9 119.52 69.05 118.32 68.72 L118.32 68.69 C119.21 68.34 119.78 67.61 119.78 66.35 C119.78 64.599 118.66 63.61 116.39 63.61 L112.18 63.61 L112.18 74.44 L116.5 74.44 C119.12 74.44 120.19 73.26 120.19 71.32 "/>
  <path style="fill:rgb(23,43,98);stroke:none;stroke-width:1.0;" d="M195.64 70.99 C195.64 73.38 194.35 74.65 192.1 74.65 C191.15 74.65 190.41 74.39 189.89 73.98 L189.99 73.1 C190.5 73.51 191.16 73.75 192.0 73.75 C193.67 73.75 194.67 72.84 194.67 70.98 L194.67 63.61 L195.64 63.61 L195.64 70.99 Z"/>
  <path style="fill:rgb(23,43,98);stroke:none;stroke-width:1.0;" d="M202.72 74.65 C199.6 74.65 198.4 73.04 198.4 69.03 C198.4 65.01 199.58 63.44 202.72 63.44 C205.87 63.44 207.04 65.01 207.04 69.03 C207.04 73.06 205.87 74.65 202.72 74.65 ZM202.72 64.349 C200.33 64.349 199.38 65.37 199.38 69.03 C199.38 72.67 200.33 73.72 202.73 73.72 C205.12 73.72 206.05 72.67 206.05 69.03 C206.05 65.37 205.12 64.349 202.72 64.349 Z"/>
  <path style="fill:rgb(23,43,98);stroke:none;stroke-width:1.0;" d="M217.52 70.53 C217.52 73.43 216.05 74.65 213.54 74.65 C211.01 74.65 209.53 73.43 209.53 70.53 L209.53 63.61 L210.49 63.61 L210.49 70.53 C210.49 72.75 211.5 73.72 213.54 73.72 C215.56 73.72 216.57 72.73 216.57 70.53 L216.57 63.61 L217.52 63.61 L217.52 70.53 Z"/>
  <path style="fill:rgb(23,43,98);stroke:none;stroke-width:1.0;" d="M225.0 69.4 L228.02 74.44 L226.87 74.44 L224.09 69.58 L221.58 69.58 L221.58 74.44 L220.63 74.44 L220.63 63.61 L224.14 63.61 C226.32 63.61 227.32 64.56 227.32 66.54 C227.32 68.31 226.51 69.23 225.0 69.4 ZM224.14 64.459 L221.58 64.459 L221.58 68.8 L224.05 68.8 C225.63 68.8 226.33 68.16 226.33 66.59 C226.33 65.069 225.65 64.459 224.14 64.459 Z"/>
  <path style="fill:rgb(23,43,98);stroke:none;stroke-width:1.0;" d="M237.31 74.44 L231.71 66.07 L231.07 65.08 L231.04 65.099 L231.06 66.27 L231.06 74.44 L230.19 74.44 L230.19 63.61 L231.13 63.61 L236.55 71.79 L237.18 72.77 L237.21 72.75 L237.18 71.6 L237.17 63.61 L238.02 63.61 L238.02 74.44 L237.31 74.44 Z"/>
  <path style="fill:rgb(23,43,98);stroke:none;stroke-width:1.0;" d="M247.39 71.58 L242.18 71.58 L241.15 74.44 L240.13 74.44 L244.24 63.61 L245.37 63.61 L249.49 74.44 L248.42 74.44 L247.39 71.58 ZM244.42 65.43 L242.5 70.73 L247.09 70.73 L245.2 65.43 L244.84 64.319 L244.79 64.319 L244.42 65.43 Z"/>
  <path style="fill:rgb(23,43,98);stroke:none;stroke-width:1.0;" d="M257.92 73.52 L257.88 74.44 L251.6 74.44 L251.6 63.61 L252.55 63.61 L252.55 73.52 L257.92 73.52 Z"/>
  <path style="fill:rgb(23,43,98);stroke:none;stroke-width:1.0;" d="M268.01 74.65 C264.89 74.65 263.69 73.04 263.69 69.03 C263.69 65.01 264.87 63.44 268.01 63.44 C271.15 63.44 272.32 65.01 272.32 69.03 C272.32 73.06 271.15 74.65 268.01 74.65 ZM268.01 64.349 C265.62 64.349 264.67 65.37 264.67 69.03 C264.67 72.67 265.62 73.72 268.02 73.72 C270.4 73.72 271.34 72.67 271.34 69.03 C271.34 65.37 270.4 64.349 268.01 64.349 Z"/>
  <path style="fill:rgb(23,43,98);stroke:none;stroke-width:1.0;" d="M276.02 64.53 L276.02 68.45 L280.62 68.45 L280.62 69.32 L276.02 69.32 L276.02 74.44 L275.07 74.44 L275.07 63.61 L281.45 63.61 L281.48 64.53 L276.02 64.53 Z"/>
  <path style="fill:rgb(23,43,98);stroke:none;stroke-width:1.0;" d="M292.3 74.65 C289.18 74.65 287.98 73.04 287.98 69.03 C287.98 65.01 289.17 63.44 292.3 63.44 C295.45 63.44 296.62 65.01 296.62 69.03 C296.62 73.06 295.45 74.65 292.3 74.65 ZM292.3 64.349 C289.92 64.349 288.96 65.37 288.96 69.03 C288.96 72.67 289.92 73.72 292.32 73.72 C294.7 73.72 295.64 72.67 295.64 69.03 C295.64 65.37 294.7 64.349 292.3 64.349 Z"/>
  <path style="fill:rgb(23,43,98);stroke:none;stroke-width:1.0;" d="M303.74 69.4 L306.76 74.44 L305.61 74.44 L302.83 69.58 L300.32 69.58 L300.32 74.44 L299.36 74.44 L299.36 63.61 L302.87 63.61 C305.06 63.61 306.05 64.56 306.05 66.54 C306.05 68.31 305.24 69.23 303.74 69.4 ZM302.87 64.459 L300.32 64.459 L300.32 68.8 L302.79 68.8 C304.36 68.8 305.07 68.16 305.07 66.59 C305.07 65.069 304.39 64.459 302.87 64.459 Z"/>
  <path style="fill:rgb(23,43,98);stroke:none;stroke-width:1.0;" d="M316.06 74.01 C315.3 74.39 314.16 74.65 312.97 74.65 C309.71 74.65 308.25 73.03 308.25 69.07 C308.25 65.04 309.74 63.44 313.0 63.44 C314.01 63.44 315.08 63.65 315.8 63.97 L315.67 64.849 C314.94 64.53 314.05 64.319 313.04 64.319 C310.46 64.319 309.23 65.42 309.23 69.06 C309.23 72.51 310.31 73.72 312.96 73.72 C313.84 73.72 314.59 73.58 315.21 73.32 L315.21 68.75 L316.06 68.75 L316.06 74.01 Z"/>
  <path style="fill:rgb(23,43,98);stroke:none;stroke-width:1.0;" d="M324.86 71.58 L319.64 71.58 L318.62 74.44 L317.59 74.44 L321.71 63.61 L322.84 63.61 L326.95 74.44 L325.88 74.44 L324.86 71.58 ZM321.88 65.43 L319.96 70.73 L324.56 70.73 L322.66 65.43 L322.3 64.319 L322.26 64.319 L321.88 65.43 Z"/>
  <path style="fill:rgb(23,43,98);stroke:none;stroke-width:1.0;" d="M336.18 74.44 L330.58 66.07 L329.94 65.08 L329.91 65.099 L329.93 66.27 L329.93 74.44 L329.06 74.44 L329.06 63.61 L330.0 63.61 L335.42 71.79 L336.05 72.77 L336.08 72.75 L336.05 71.6 L336.04 63.61 L336.89 63.61 L336.89 74.44 L336.18 74.44 Z"/>
  <path style="fill:rgb(23,43,98);stroke:none;stroke-width:1.0;" d="M340.44 63.61 L341.4 63.61 L341.4 74.44 L340.44 74.44 L340.44 63.61 Z"/>
  <path style="fill:rgb(23,43,98);stroke:none;stroke-width:1.0;" d="M351.32 64.84 C350.73 64.56 349.86 64.349 348.97 64.349 C346.5 64.349 345.34 65.47 345.34 68.91 C345.34 72.58 346.51 73.74 349.01 73.74 C349.92 73.74 350.7 73.52 351.35 73.17 L351.51 74.0 C350.86 74.34 349.86 74.65 348.89 74.65 C345.74 74.65 344.36 72.9 344.36 68.91 C344.36 65.11 345.77 63.44 348.92 63.44 C349.83 63.44 350.89 63.68 351.45 63.96 L351.32 64.84 Z"/>
  <path style="fill:rgb(23,43,98);stroke:none;stroke-width:1.0;" d="M365.06 64.84 C364.47 64.56 363.6 64.349 362.7 64.349 C360.23 64.349 359.08 65.47 359.08 68.91 C359.08 72.58 360.25 73.74 362.75 73.74 C363.66 73.74 364.44 73.52 365.09 73.17 L365.25 74.0 C364.6 74.34 363.6 74.65 362.63 74.65 C359.48 74.65 358.1 72.9 358.1 68.91 C358.1 65.11 359.51 63.44 362.66 63.44 C363.57 63.44 364.62 63.68 365.19 63.96 L365.06 64.84 Z"/>
  <path style="fill:rgb(23,43,98);stroke:none;stroke-width:1.0;" d="M374.46 74.44 L374.46 69.23 L368.61 69.23 L368.61 74.44 L367.66 74.44 L367.66 63.61 L368.61 63.61 L368.61 68.33 L374.46 68.33 L374.46 63.61 L375.41 63.61 L375.41 74.44 L374.46 74.44 Z"/>
  <path style="fill:rgb(23,43,98);stroke:none;stroke-width:1.0;" d="M385.45 73.55 L385.41 74.44 L378.76 74.44 L378.76 63.61 L385.15 63.61 L385.19 64.51 L379.7 64.51 L379.7 68.36 L384.46 68.36 L384.46 69.17 L379.7 69.17 L379.7 73.55 L385.45 73.55 Z"/>
  <path style="fill:rgb(23,43,98);stroke:none;stroke-width:1.0;" d="M389.08 63.61 L392.5 72.03 L392.92 73.12 L392.96 73.12 L393.37 72.03 L396.79 63.61 L397.9 63.61 L397.9 74.44 L397.05 74.44 L397.05 66.34 L397.08 65.17 L397.04 65.16 L396.62 66.25 L393.28 74.44 L392.56 74.44 L389.22 66.3 L388.8 65.2 L388.77 65.209 L388.79 66.38 L388.79 74.44 L387.95 74.44 L387.95 63.61 L389.08 63.61 Z"/>
  <path style="fill:rgb(23,43,98);stroke:none;stroke-width:1.0;" d="M401.46 63.61 L402.41 63.61 L402.41 74.44 L401.46 74.44 L401.46 63.61 Z"/>
  <path style="fill:rgb(23,43,98);stroke:none;stroke-width:1.0;" d="M408.28 74.65 C407.03 74.65 406.02 74.31 405.2 73.81 L405.37 72.91 C406.21 73.46 407.13 73.75 408.28 73.75 C409.99 73.75 410.88 72.91 410.88 71.51 C410.88 68.61 405.31 69.88 405.31 66.31 C405.31 64.68 406.35 63.44 408.68 63.44 C409.73 63.44 410.69 63.65 411.45 64.01 L411.28 64.87 C410.46 64.519 409.66 64.319 408.72 64.319 C406.93 64.319 406.22 65.23 406.22 66.25 C406.22 69.01 411.8 67.71 411.8 71.45 C411.8 73.43 410.59 74.65 408.28 74.65 Z"/>
  <path style="fill:rgb(23,43,98);stroke:none;stroke-width:1.0;" d="M417.09 64.53 L417.09 74.44 L416.13 74.44 L416.13 64.53 L412.74 64.53 L412.77 63.61 L420.48 63.61 L420.5 64.53 L417.09 64.53 Z"/>
  <path style="fill:rgb(23,43,98);stroke:none;stroke-width:1.0;" d="M426.89 69.4 L429.91 74.44 L428.76 74.44 L425.98 69.58 L423.47 69.58 L423.47 74.44 L422.52 74.44 L422.52 63.61 L426.03 63.61 C428.21 63.61 429.2 64.56 429.2 66.54 C429.2 68.31 428.4 69.23 426.89 69.4 ZM426.03 64.459 L423.47 64.459 L423.47 68.8 L425.94 68.8 C427.52 68.8 428.22 68.16 428.22 66.59 C428.22 65.069 427.54 64.459 426.03 64.459 Z"/>
  <path style="fill:rgb(23,43,98);stroke:none;stroke-width:1.0;" d="M431.89 63.61 L434.58 68.68 L435.1 69.72 L435.14 69.72 L435.65 68.68 L438.32 63.61 L439.39 63.61 L435.59 70.65 L435.59 74.44 L434.62 74.44 L434.62 70.65 L430.78 63.61 L431.89 63.61 Z"/>
  <path style="fill:rgb(197,17,83);stroke:none;stroke-width:1.0;" d="M72.18 50.73 C72.18 50.73 65.66 55.16 63.96 60.66 C62.15 66.53 63.25 72.32 66.82 76.71 C70.23 80.91 75.03 83.25 80.73 81.91 C90.59 79.57 91.73 70.77 91.73 70.77 C91.73 70.77 91.99 78.74 83.96 83.4 C76.71 87.6 68.1 84.38 64.2 79.35 C59.61 73.43 59.71 65.89 62.69 59.92 C66.24 52.83 72.18 50.73 72.18 50.73 "/>
  <path style="fill:rgb(9,103,121);stroke:none;stroke-width:1.0;" d="M69.08 85.14 C69.08 85.14 76.13 88.63 81.69 87.37 C87.63 86.03 92.03 82.17 94.0 76.85 C95.88 71.75 95.49 66.37 91.49 62.06 C84.56 54.59 76.46 57.99 76.46 57.99 C76.46 57.99 83.15 53.77 91.15 58.48 C98.38 62.73 99.92 71.89 97.57 77.82 C94.79 84.8 88.29 88.48 81.69 88.85 C73.85 89.3 69.08 85.14 69.08 85.14 "/>
  <path style="fill:rgb(23,43,98);stroke:none;stroke-width:1.0;" d="M100.14 70.66 C100.14 70.66 99.61 62.73 95.75 58.49 C91.63 53.96 86.13 52.04 80.59 52.97 C75.29 53.86 70.88 56.9 69.19 62.56 C66.26 72.37 73.22 77.77 73.22 77.77 C73.22 77.77 66.26 74.01 66.29 64.65 C66.32 56.19 73.38 50.26 79.63 49.36 C87.0 48.3 93.4 52.15 97.02 57.75 C101.32 64.4 100.14 70.66 100.14 70.66 "/>
  <g begin="text">
   <text y="188.15" x="59.5,71.052,75.5,84.396,94.172,98.62,104.844,113.74,118.188,122.636,131.532,140.428,144.876,150.204,155.532,164.428,174.204,180.428,185.756,190.204,199.98,209.436,213.884,223.66,233.436,243.212,248.54,258.316,264.54,273.436,282.332,292.108,301.884,311.66,320.556,325.004,333.9,342.796,347.244,356.14,365.916,375.692,381.916,391.692,396.14,405.916,414.812,420.14,424.588,434.364,444.14,448.588,457.484,466.38,475.836,484.732,489.18,498.956,507.852,516.748,525.644" svgx:width="0.72,0.28,0.56,0.61,0.28,0.39,0.56,0.28,0.28,0.56,0.56,0.28,0.33,0.33,0.56,0.61,0.39,0.33,0.28,0.61,0.59,0.28,0.61,0.61,0.61,0.33,0.61,0.39,0.56,0.56,0.61,0.61,0.61,0.56,0.28,0.56,0.56,0.28,0.56,0.61,0.61,0.39,0.61,0.28,0.61,0.56,0.33,0.28,0.61,0.61,0.28,0.56,0.56,0.59,0.56,0.28,0.61,0.56,0.56,0.56,0.61" style="fill:rgb(0,0,0);font-family:NimbusSans-Bold;font-size:16.0px;stroke:none;">A chiral self-sorting photoresponsive coordination cage based</text>
   <text y="210.15" x="59.5,69.276,79.052,83.5,93.276,102.172,111.068,117.292,126.188,132.412,142.188,154.636,164.412,173.308,183.084,187.532,196.428,200.876,209.772,218.668,228.444,237.34" svgx:width="0.61,0.61,0.28,0.61,0.56,0.56,0.39,0.56,0.39,0.61,0.78,0.61,0.56,0.61,0.28,0.56,0.28,0.56,0.56,0.61,0.56,0.56" style="fill:rgb(0,0,0);font-family:NimbusSans-Bold;font-size:16.0px;stroke:none;">on overcrowded alkenes</text>
  </g>
  <g begin="text">
   <text y="236.9" x="59.5,68.164,74.836,81.508,87.508,90.844,97.516,104.188,107.524,110.188,116.86,120.196,128.2,131.536,138.208,144.208,150.208,156.88,163.552,167.548,174.22" svgx:width="0.72,0.56,0.56,0.5,0.28,0.56,0.56,0.28,0.22,0.56,0.28,0.67,0.28,0.56,0.5,0.5,0.56,0.56,0.33,0.56,0.28" style="fill:rgb(0,0,0);font-family:NimbusSans-Regular;font-size:12.0px;stroke:none;">Constantin Stuckhardt</text>
   <text y="232.7" x="177.556,182.894,185.562" svgx:width="0.56,0.28,0.56" style="fill:rgb(0,0,0);font-family:NimbusSans-Regular;font-size:9.6px;stroke:none;">1,2</text>
   <text y="236.9" x="190.9,194.236,197.572,206.236,208.9,215.572,222.244,228.916,232.912,235.576,241.576,244.912,253.576,260.248,266.248" svgx:width="0.28,0.28,0.72,0.22,0.56,0.56,0.56,0.33,0.22,0.5,0.28,0.72,0.56,0.5,0.56" style="fill:rgb(0,0,0);font-family:NimbusSans-Regular;font-size:12.0px;stroke:none;">, Diederik Roke</text>
   <text y="232.7" x="272.92" svgx:width="0.56" style="fill:rgb(0,0,0);font-family:NimbusSans-Regular;font-size:9.6px;stroke:none;">1</text>
   <text y="236.9" x="278.258,281.594,284.93,296.258,302.93,305.594,311.594,314.258,320.93,326.93,333.602,336.938,345.602,352.274,358.946,365.618,374.282,380.282,386.282" svgx:width="0.28,0.28,0.94,0.56,0.22,0.5,0.22,0.56,0.5,0.56,0.28,0.72,0.56,0.56,0.56,0.72,0.5,0.5,0.22" style="fill:rgb(0,0,0);font-family:NimbusSans-Regular;font-size:12.0px;stroke:none;">, Wojciech Danowski</text>
   <text y="232.7" x="388.946" svgx:width="0.56" style="fill:rgb(0,0,0);font-family:NimbusSans-Regular;font-size:9.6px;stroke:none;">1</text>
   <text y="236.9" x="394.283,397.619,400.955,408.959,415.631,424.295,426.959,433.631,436.967,446.303,449.639,452.975,459.647" svgx:width="0.28,0.28,0.67,0.56,0.72,0.22,0.56,0.28,0.78,0.28,0.28,0.56,0.56" style="fill:rgb(0,0,0);font-family:NimbusSans-Regular;font-size:12.0px;stroke:none;">, Edwin Otten</text>
   <text y="232.7" x="466.319" svgx:width="0.56" style="fill:rgb(0,0,0);font-family:NimbusSans-Regular;font-size:9.6px;stroke:none;">1</text>
   <text y="236.9" x="471.657" svgx:width="0.28" style="fill:rgb(0,0,0);font-family:NimbusSans-Regular;font-size:12.0px;stroke:none;">,</text>
   <text y="254.9" x="59.5,67.504,74.176,80.848,87.52,94.192,98.188,101.524,107.524,110.86,114.196,125.524,132.196,138.196,144.868,151.54,158.212,164.884,168.88" svgx:width="0.67,0.56,0.56,0.56,0.56,0.33,0.28,0.5,0.28,0.28,0.94,0.56,0.5,0.56,0.56,0.56,0.56,0.33,0.54" style="fill:rgb(0,0,0);font-family:NimbusSans-Regular;font-size:12.0px;stroke:none;">Sander J. Wezenberg</text>
   <text y="250.7" x="175.336,179.07" svgx:width="0.39,0.56" style="fill:rgb(0,0,0);font-family:NimbusSans-Regular;font-size:9.6px;stroke:none;">*3</text>
   <text y="254.9" x="184.408,187.744,194.416,201.088,207.76,211.096,219.1,225.772,232.444,235.78,242.452,245.788,249.124,256.456,263.128,267.124,269.788,276.46,282.916" svgx:width="0.28,0.56,0.56,0.56,0.28,0.67,0.56,0.56,0.28,0.56,0.28,0.28,0.61,0.56,0.33,0.22,0.56,0.54,0.56" style="fill:rgb(0,0,0);font-family:NimbusSans-Regular;font-size:12.0px;stroke:none;"> and Ben L. Feringa</text>
   <text y="250.7" x="289.588,293.322" svgx:width="0.39,0.56" style="fill:rgb(0,0,0);font-family:NimbusSans-Regular;font-size:9.6px;stroke:none;">*1</text>
  </g>
  <path style="fill:none;stroke:rgb(218,218,218);stroke-width:1.0;" d="M59.5 48.19 L59.5 89.41 L439.5 89.41 L439.5 48.19 ZM59.5 294.25 L297.5 294.25 "/>
  <path style="fill:none;stroke:rgb(218,218,218);stroke-width:0.5;" d="M59.75 294.0 L59.75 318.5 "/>
  <path style="fill:none;stroke:rgb(218,218,218);stroke-width:0.5;" d="M297.5 294.25 L535.5 294.25 "/>
  <path style="fill:none;stroke:rgb(218,218,218);stroke-width:0.5;" d="M535.25 294.0 L535.25 318.5 "/>
  <path style="fill:none;stroke:rgb(218,218,218);stroke-width:0.5;" d="M297.5 486.75 L59.5 486.75 "/>
  <path style="fill:none;stroke:rgb(218,218,218);stroke-width:0.5;" d="M59.75 318.5 L59.75 487.0 "/>
  <path style="fill:none;stroke:rgb(218,218,218);stroke-width:0.5;" d="M535.5 486.75 L297.5 486.75 "/>
  <path style="fill:none;stroke:rgb(218,218,218);stroke-width:0.5;" d="M535.25 318.5 L535.25 487.0 "/>
  <g begin="text">
   <text y="310.0" x="68.0,75.026,81.42,83.973,86.526,89.723,98.026,104.42,110.17,116.564,122.958,126.788,132.538,138.932,142.129,149.799,156.193,162.587,168.981" svgx:width="0.61,0.56,0.22,0.22,0.28,0.72,0.56,0.5,0.56,0.56,0.33,0.5,0.56,0.28,0.67,0.56,0.56,0.56,0.33" style="fill:rgb(0,0,0);font-family:NimbusSans-Regular;font-size:11.5px;stroke:none;">Full Research Paper</text>
  </g>
  <g begin="text">
   <text y="310.0" x="476.31,482.534,487.422,491.87,496.758,498.982,504.758,509.206,513.654,518.102,522.55" svgx:width="0.78,0.61,0.56,0.61,0.28,0.72,0.56,0.56,0.56,0.56,0.56" style="fill:rgb(255,255,255);font-family:NimbusSans-Bold;font-size:8.0px;stroke:none;">Open Access</text>
  </g>
  <g begin="text">
   <text y="328.5" x="68.0,72.669,76.561,80.453,82.784,86.676,90.176,93.676" svgx:width="0.67,0.56,0.56,0.33,0.56,0.5,0.5,0.28" style="fill:rgb(0,0,0);font-family:NimbusSans-Regular;font-size:7.0px;stroke:none;">Address:</text>
   <text y="336.05" x="68.0" svgx:width="0.56" style="fill:rgb(0,0,0);font-family:NimbusSans-Regular;font-size:5.6px;stroke:none;">1</text>
   <text y="338.5" x="71.114,75.783,77.729,80.06,83.952,85.898,87.452,91.344,95.11,99.002,100.948,102.894,106.786,110.286,112.232,113.786,115.732,119.624,121.57,125.462,127.408,129.354,133.246,135.577,137.523,142.577,146.469,150.361,156.192,157.746,161.246,163.192,165.523,169.023,170.969,172.915,177.969,181.861,183.415,186.915,190.807,193.138,196.638,198.192,200.138,203.638,205.584,209.476,211.422,213.368,218.814,221.145,225.037,228.929,230.483,234.375,238.141,242.033,245.925,247.871,249.817,254.871,256.425,257.979,261.871,265.763,269.655,273.547,275.878,279.643" svgx:width="0.67,0.28,0.33,0.56,0.28,0.22,0.56,0.54,0.56,0.28,0.28,0.56,0.5,0.28,0.22,0.28,0.56,0.28,0.56,0.28,0.28,0.56,0.33,0.28,0.72,0.56,0.56,0.83,0.22,0.5,0.28,0.33,0.5,0.28,0.28,0.72,0.56,0.22,0.5,0.56,0.33,0.5,0.22,0.28,0.5,0.28,0.56,0.28,0.28,0.78,0.33,0.56,0.56,0.22,0.56,0.54,0.56,0.56,0.28,0.28,0.72,0.22,0.22,0.56,0.56,0.56,0.56,0.33,0.54,0.56" style="fill:rgb(0,0,0);font-family:NimbusSans-Regular;font-size:7.0px;stroke:none;">Stratingh Institute for Chemistry, University of Groningen, Nijenborgh</text>
   <text y="348.5" x="68.0,71.892,73.838,75.784,79.676,83.568,87.46,91.352,93.298,97.967,103.413,105.359,107.305,112.751,115.082,118.974,122.866,124.42,128.312,132.078,135.97,139.862,141.808,143.754,148.031,151.923,155.815,157.761,162.815,166.707,168.653,172.545,176.437,178.768,180.322,184.214,188.106,191.998,195.498,197.444" svgx:width="0.56,0.28,0.28,0.56,0.56,0.56,0.56,0.28,0.67,0.78,0.28,0.28,0.78,0.33,0.56,0.56,0.22,0.56,0.54,0.56,0.56,0.28,0.28,0.61,0.56,0.56,0.28,0.72,0.56,0.28,0.56,0.56,0.33,0.22,0.56,0.56,0.56,0.5,0.28,0.28" style="fill:rgb(0,0,0);font-family:NimbusSans-Regular;font-size:7.0px;stroke:none;">4, 9747 AG, Groningen, The Netherlands, </text>
   <text y="346.05" x="199.39" svgx:width="0.56" style="fill:rgb(0,0,0);font-family:NimbusSans-Regular;font-size:5.6px;stroke:none;">2</text>
   <text y="348.5" x="202.504,207.95,210.281,214.047,217.939,221.831,223.385,226.885,230.385,234.277,236.608,241.662,245.554,249.446,255.277,256.831,260.331,263.831,267.723,271.615" svgx:width="0.78,0.33,0.54,0.56,0.56,0.22,0.5,0.5,0.56,0.33,0.72,0.56,0.56,0.83,0.22,0.5,0.5,0.56,0.56,0.5" style="fill:rgb(0,0,0);font-family:NimbusSans-Regular;font-size:7.0px;stroke:none;">Organisch-Chemisches</text>
   <text y="358.5" x="68.0,69.946,73.838,77.338,79.284,80.838,82.784,86.676,88.622,90.568,92.514,97.568,101.46,103.014,106.514,110.406,112.737,116.237,117.791,119.737,123.237,125.183,129.075,131.021,132.967,138.798,142.69,146.582,150.082,152.028,155.92,158.251,160.197,162.143,167.197,171.089,173.42,175.751,179.643,183.535,187.035,190.535,192.481,194.812,198.704,202.204,205.704,209.596,211.542,215.434,219.326,221.272,223.218,227.11,231.002,234.894,238.786,242.678,244.624,250.455,254.347,258.239,261.739,263.685,267.577,269.908" svgx:width="0.28,0.56,0.5,0.28,0.22,0.28,0.56,0.28,0.28,0.28,0.72,0.56,0.22,0.5,0.56,0.33,0.5,0.22,0.28,0.5,0.28,0.56,0.28,0.28,0.83,0.56,0.56,0.5,0.28,0.56,0.33,0.28,0.28,0.72,0.56,0.33,0.33,0.56,0.56,0.5,0.5,0.28,0.33,0.56,0.5,0.5,0.56,0.28,0.56,0.56,0.28,0.28,0.56,0.56,0.56,0.56,0.56,0.28,0.83,0.56,0.56,0.5,0.28,0.56,0.33,0.28" style="fill:rgb(0,0,0);font-family:NimbusSans-Regular;font-size:7.0px;stroke:none;">Institut, University of Münster, Corrensstrasse 40, 48149 Münster,</text>
   <text y="368.5" x="68.0,73.446,77.338,79.669,85.5,89.392,93.284,96.784,98.73,102.622,106.514,110.406" svgx:width="0.78,0.56,0.33,0.83,0.56,0.56,0.5,0.28,0.56,0.56,0.56,0.28" style="fill:rgb(0,0,0);font-family:NimbusSans-Regular;font-size:7.0px;stroke:none;">Germany and </text>
   <text y="366.05" x="112.352" svgx:width="0.56" style="fill:rgb(0,0,0);font-family:NimbusSans-Regular;font-size:5.6px;stroke:none;">3</text>
   <text y="368.5" x="115.466,119.358,123.25,124.804,128.696,132.588,136.48,138.426,140.372,144.264,147.764,149.71,151.264,153.21,157.102,159.048,162.94,164.886,168.778,170.724,172.67,177.724,181.616,185.508,191.339,192.893,196.393,198.339,200.67,204.17,206.116,208.062,211.954,215.846,217.4,221.292,225.184,229.076,231.022,236.076,239.968,241.522,245.022,248.914,251.245,254.745,256.299,258.245,261.745" svgx:width="0.56,0.56,0.22,0.56,0.56,0.56,0.28,0.28,0.56,0.5,0.28,0.22,0.28,0.56,0.28,0.56,0.28,0.56,0.28,0.28,0.72,0.56,0.56,0.83,0.22,0.5,0.28,0.33,0.5,0.28,0.28,0.56,0.56,0.22,0.56,0.56,0.56,0.28,0.72,0.56,0.22,0.5,0.56,0.33,0.5,0.22,0.28,0.5,0.28" style="fill:rgb(0,0,0);font-family:NimbusSans-Regular;font-size:7.0px;stroke:none;">Leiden Institute of Chemistry, Leiden University,</text>
   <text y="378.5" x="68.0,72.669,74.223,78.115,81.615,83.561,87.453,89.007,92.899,97.953,101.845,105.611,107.557,111.449,115.341,117.287,119.233,123.125,127.017,130.909,134.801,136.747,141.801,146.855,148.801,150.747,154.639,158.531,160.085,163.977,167.869,171.761,173.707,175.653,179.93,183.822,187.714,189.66,194.714,198.606,200.552,204.444,208.336,210.667,212.221,216.113,220.005,223.897" svgx:width="0.67,0.22,0.56,0.5,0.28,0.56,0.22,0.56,0.72,0.56,0.54,0.28,0.56,0.56,0.28,0.28,0.56,0.56,0.56,0.56,0.28,0.72,0.72,0.28,0.28,0.56,0.56,0.22,0.56,0.56,0.56,0.28,0.28,0.61,0.56,0.56,0.28,0.72,0.56,0.28,0.56,0.56,0.33,0.22,0.56,0.56,0.56,0.5" style="fill:rgb(0,0,0);font-family:NimbusSans-Regular;font-size:7.0px;stroke:none;">Einsteinweg 55, 2333 CC, Leiden, The Netherlands</text>
  </g>
  <g begin="text">
   <text y="398.5" x="68.0,72.669,78.5,82.392,83.946,85.5" svgx:width="0.67,0.83,0.56,0.22,0.22,0.28" style="fill:rgb(0,0,0);font-family:NimbusSans-Regular;font-size:7.0px;stroke:none;">Email:</text>
   <text y="408.5" x="68.0,72.669,76.561,80.453,84.345,88.237,90.568,92.514,96.014,97.96,99.906,106.514,110.406,113.906,117.798,121.69,125.582,129.474,131.805" svgx:width="0.67,0.56,0.56,0.56,0.56,0.33,0.28,0.5,0.28,0.28,0.94,0.56,0.5,0.56,0.56,0.56,0.56,0.33,0.54" style="fill:rgb(0,0,0);font-family:NimbusSans-Regular;font-size:7.0px;stroke:none;">Sander J. Wezenberg</text>
   <text y="406.05" x="135.571" svgx:width="0.39" style="fill:rgb(0,0,0);font-family:NimbusSans-Regular;font-size:5.6px;stroke:none;">*</text>
   <text y="408.5" x="137.749,139.695,142.026,143.972,147.472,149.418,150.972,152.918,157.972,161.864,165.364,169.256,173.148,177.04,180.932,183.263,187.029,193.812,195.366,196.92,200.42,202.366,203.92,207.812,209.366,213.258,217.15,221.042,224.934,228.826,230.38,233.88,235.826,239.718,241.272" svgx:width="0.28,0.33,0.28,0.5,0.28,0.22,0.28,0.72,0.56,0.5,0.56,0.56,0.56,0.56,0.33,0.54,0.97,0.22,0.22,0.5,0.28,0.22,0.56,0.22,0.56,0.56,0.56,0.56,0.56,0.22,0.5,0.28,0.56,0.22,0.28" style="fill:rgb(0,0,0);font-family:NimbusSans-Regular;font-size:7.0px;stroke:none;"> - s.j.wezenberg@lic.leidenuniv.nl;</text>
   <text y="418.5" x="68.0,72.669,76.561,80.453,82.399,86.291,88.237,90.183,94.46,98.352,100.683,102.237,106.129,109.895" svgx:width="0.67,0.56,0.56,0.28,0.56,0.28,0.28,0.61,0.56,0.33,0.22,0.56,0.54,0.56" style="fill:rgb(0,0,0);font-family:NimbusSans-Regular;font-size:7.0px;stroke:none;">Ben L. Feringa</text>
   <text y="416.05" x="113.787" svgx:width="0.39" style="fill:rgb(0,0,0);font-family:NimbusSans-Regular;font-size:5.6px;stroke:none;">*</text>
   <text y="418.5" x="115.965,117.911,120.242,122.188,126.08,128.026,129.58,131.526,133.472,137.364,139.695,141.249,145.141,148.907,152.799,159.582,161.913,165.805,169.571,171.517,175.409" svgx:width="0.28,0.33,0.28,0.56,0.28,0.22,0.28,0.28,0.56,0.33,0.22,0.56,0.54,0.56,0.97,0.33,0.56,0.54,0.28,0.56,0.22" style="fill:rgb(0,0,0);font-family:NimbusSans-Regular;font-size:7.0px;stroke:none;"> - b.l.feringa@rug.nl</text>
  </g>
  <g begin="text">
   <text y="438.5" x="68.0,70.723,72.669,77.723,81.615,83.946,86.277,90.169,93.669,97.561,101.453,105.345,109.237,110.791,114.683,118.449,120.395,124.287,128.179,130.125,134.017,137.909" svgx:width="0.39,0.28,0.72,0.56,0.33,0.33,0.56,0.5,0.56,0.56,0.56,0.56,0.22,0.56,0.54,0.28,0.56,0.56,0.28,0.56,0.56,0.33" style="fill:rgb(0,0,0);font-family:NimbusSans-Regular;font-size:7.0px;stroke:none;">* Corresponding author</text>
  </g>
  <g begin="text">
   <text y="458.5" x="68.0,72.669,76.561,80.061,85.115,89.007,91.338,95.23,98.73" svgx:width="0.67,0.56,0.5,0.72,0.56,0.33,0.56,0.5,0.28" style="fill:rgb(0,0,0);font-family:NimbusSans-Regular;font-size:7.0px;stroke:none;">Keywords:</text>
   <text y="468.5" x="68.0,71.5,75.392,79.284,81.615,85.507,87.061,90.953,94.845,96.791,98.345,102.237,106.129,108.075,111.575,115.467,119.233,123.125,126.625,128.571,130.517,136.348,140.24,141.794,145.686,149.186,153.078,154.632,158.524,160.855,162.801,168.632,172.524,174.47,178.362,180.693,184.193,186.139,188.085,193.916,197.808,199.362,203.254,206.754,210.646,212.2,216.092,218.423,220.369,223.869,228.923,230.477,232.423,235.923,239.815,243.707,247.207" svgx:width="0.5,0.56,0.56,0.33,0.56,0.22,0.56,0.56,0.28,0.22,0.56,0.56,0.28,0.5,0.56,0.54,0.56,0.5,0.28,0.28,0.83,0.56,0.22,0.56,0.5,0.56,0.22,0.56,0.33,0.28,0.83,0.56,0.28,0.56,0.33,0.5,0.28,0.28,0.83,0.56,0.22,0.56,0.5,0.56,0.22,0.56,0.33,0.28,0.5,0.72,0.22,0.28,0.5,0.56,0.56,0.5,0.28" style="fill:rgb(0,0,0);font-family:NimbusSans-Regular;font-size:7.0px;stroke:none;">coordination cages; molecular motors; molecular switches;</text>
   <text y="478.5" x="68.0,71.892,75.392,79.284,81.615,85.115,87.446,91.338,96.392,100.284,104.176,108.068,110.014,113.906,115.46,118.96,122.852,126.744,130.636,132.582,134.528,138.42,142.312,143.866,145.42,149.312,153.204,154.758,158.65" svgx:width="0.56,0.5,0.56,0.33,0.5,0.33,0.56,0.72,0.56,0.56,0.56,0.28,0.56,0.22,0.5,0.56,0.56,0.56,0.28,0.28,0.56,0.56,0.22,0.22,0.56,0.56,0.22,0.56,0.83" style="fill:rgb(0,0,0);font-family:NimbusSans-Regular;font-size:7.0px;stroke:none;">overcrowded alkene; palladium</text>
  </g>
  <g begin="text">
   <text y="328.5" x="297.5,302.169,306.061,307.615,309.169,312.669,314.615,318.507,320.061,323.953,325.899,329.399,331.345,333.291,338.737,341.068,344.96,346.906,348.852,353.906,357.798,361.69,367.521" svgx:width="0.67,0.56,0.22,0.22,0.5,0.28,0.56,0.22,0.56,0.28,0.5,0.28,0.28,0.78,0.33,0.56,0.28,0.28,0.72,0.56,0.56,0.83,0.28" style="fill:rgb(0,0,0);font-family:NimbusSans-Italic;font-size:7.0px;stroke:none;">Beilstein J. Org. Chem.</text>
   <text y="328.5" x="369.467" svgx:width="0.28" style="fill:rgb(0,0,0);font-family:NimbusSans-Regular;font-size:7.0px;stroke:none;"> </text>
   <text y="328.5" x="371.413,375.305,379.197,383.089,386.981" svgx:width="0.56,0.56,0.56,0.56,0.28" style="fill:rgb(0,0,0);font-family:NimbusSans-Bold;font-size:7.0px;stroke:none;">2019,</text>
   <text y="328.5" x="388.927" svgx:width="0.28" style="fill:rgb(0,0,0);font-family:NimbusSans-Regular;font-size:7.0px;stroke:none;"> </text>
   <text y="328.5" x="390.873,394.765,398.657" svgx:width="0.56,0.56,0.28" style="fill:rgb(0,0,0);font-family:NimbusSans-Italic;font-size:7.0px;stroke:none;">15,</text>
   <text y="328.5" x="400.603,402.549,406.441,410.333,414.225,418.117,422.009,425.901,429.793,433.685,437.577" svgx:width="0.28,0.56,0.56,0.56,0.56,0.56,0.56,0.56,0.56,0.56,0.28" style="fill:rgb(0,0,0);font-family:NimbusSans-Regular;font-size:7.0px;stroke:none;"> 2767–2773.</text>
  </g>
  <g begin="text">
   <text y="338.5" x="297.5,301.392,305.284,306.838,308.784,312.676,316.568,318.514,322.406,326.298,330.19,334.082,336.028,339.92,341.474,345.366,348.866,350.812,354.704,358.596,360.542,364.434,368.326" svgx:width="0.56,0.56,0.22,0.28,0.56,0.56,0.28,0.56,0.56,0.56,0.56,0.28,0.56,0.22,0.56,0.5,0.28,0.56,0.56,0.28,0.56,0.56,0.56" style="fill:rgb(0,0,0);font-family:NimbusSans-Regular;font-size:7.0px;stroke:none;">doi:10.3762/bjoc.15.268</text>
  </g>
  <g begin="text">
   <text y="358.5" x="297.5,302.554,306.446,309.946,313.838,315.392,318.892,322.784,326.676,328.622,330.568,334.46,338.352,340.298,343.798,347.69,349.244,352.744,354.69,358.582,362.474,366.366" svgx:width="0.72,0.56,0.5,0.56,0.22,0.5,0.56,0.56,0.28,0.28,0.56,0.56,0.28,0.5,0.56,0.22,0.5,0.28,0.56,0.56,0.56,0.56" style="fill:rgb(0,0,0);font-family:NimbusSans-Regular;font-size:7.0px;stroke:none;">Received: 05 July 2019</text>
   <text y="368.5" x="297.5,302.169,305.669,309.169,313.061,316.953,318.899,322.791,326.683,328.629,330.575,334.467,338.359,340.305,345.751,349.251,351.197,355.089,358.981,362.873,365.204,367.15,371.042,374.934,378.826" svgx:width="0.67,0.5,0.5,0.56,0.56,0.28,0.56,0.56,0.28,0.28,0.56,0.56,0.28,0.78,0.5,0.28,0.56,0.56,0.56,0.33,0.28,0.56,0.56,0.56,0.56" style="fill:rgb(0,0,0);font-family:NimbusSans-Regular;font-size:7.0px;stroke:none;">Accepted: 11 October 2019</text>
   <text y="378.5" x="297.5,302.169,306.061,309.953,311.507,313.061,316.561,320.453,324.345,328.237,330.183,332.129,336.021,339.913,341.859,346.913,350.805,354.305,358.197,364.028,367.92,371.812,374.143,376.089,379.981,383.873,387.765" svgx:width="0.67,0.56,0.56,0.22,0.22,0.5,0.56,0.56,0.56,0.28,0.28,0.56,0.56,0.28,0.72,0.56,0.5,0.56,0.83,0.56,0.56,0.33,0.28,0.56,0.56,0.56,0.56" style="fill:rgb(0,0,0);font-family:NimbusSans-Regular;font-size:7.0px;stroke:none;">Published: 15 November 2019</text>
  </g>
  <g begin="text">
   <text y="398.5" x="297.5,301.777,305.669,307.223,310.723,312.669,316.561,318.892,320.838,322.392,325.892,327.446,331.338,333.284,334.838,338.338,340.284,344.176,348.068,350.399,352.345,354.291,358.183,360.129,362.075,364.021,367.913,371.805,373.751,375.697,379.589,383.481,389.312,393.204,395.15,396.704,400.204,402.15,403.704,407.204,410.704,414.596,418.488,420.434,422.919,428.75,432.642,434.196,438.088,441.588,445.48,447.034,450.926,453.257,455.203,458.703,463.757,465.311,467.257,470.757,474.649,478.541,482.041,484.526" svgx:width="0.61,0.56,0.22,0.5,0.28,0.56,0.33,0.28,0.22,0.5,0.22,0.56,0.28,0.22,0.5,0.28,0.56,0.56,0.33,0.28,0.28,0.56,0.28,0.28,0.28,0.56,0.56,0.28,0.28,0.56,0.56,0.83,0.56,0.28,0.22,0.5,0.28,0.22,0.5,0.5,0.56,0.56,0.28,0.35,0.83,0.56,0.22,0.56,0.5,0.56,0.22,0.56,0.33,0.28,0.5,0.72,0.22,0.28,0.5,0.56,0.56,0.5,0.35,0.28" style="fill:rgb(0,0,0);font-family:NimbusSans-Regular;font-size:7.0px;stroke:none;">This article is part of the thematic issue "Molecular switches".</text>
  </g>
  <g begin="text">
   <text y="418.5" x="297.5,302.946,306.838,310.73,314.23,316.176,318.122,322.791,326.683,328.237,330.183,334.075,336.406,338.352,340.298,346.906,348.852,350.798,355.467,358.967,362.467,368.298,372.19,376.082,379.582,383.082" svgx:width="0.78,0.56,0.56,0.5,0.28,0.28,0.67,0.56,0.22,0.28,0.56,0.33,0.28,0.28,0.94,0.28,0.28,0.67,0.5,0.5,0.83,0.56,0.56,0.5,0.5,0.22" style="fill:rgb(0,0,0);font-family:NimbusSans-Regular;font-size:7.0px;stroke:none;">Guest Editor: W. Szymanski</text>
  </g>
  <g begin="text">
   <text y="438.5" x="297.5,302.659,304.605,308.497,312.389,316.281,320.173,322.119,326.788,328.734,332.626,336.126,339.626,343.518,347.41,349.741,353.633,355.579,357.525,361.417,363.363,365.309,369.201,370.755,372.701,374.647,376.593,378.147,379.701,383.201,387.093,390.985,394.485,398.377,402.269,404.215,408.884,412.776,414.33,415.884,419.384,421.33,425.222,426.776,430.668,432.999,434.945,438.837,442.337,444.283,445.837,447.783,451.675,453.621" svgx:width="0.74,0.28,0.56,0.56,0.56,0.56,0.28,0.67,0.28,0.56,0.5,0.5,0.56,0.56,0.33,0.56,0.28,0.28,0.56,0.28,0.28,0.56,0.22,0.28,0.28,0.28,0.22,0.22,0.5,0.56,0.56,0.5,0.56,0.56,0.28,0.67,0.56,0.22,0.22,0.5,0.28,0.56,0.22,0.56,0.33,0.28,0.56,0.5,0.28,0.22,0.28,0.56,0.28,0.28" style="fill:rgb(0,0,0);font-family:NimbusSans-Regular;font-size:7.0px;stroke:none;">© 2019 Stuckhardt et al.; licensee Beilstein-Institut.</text>
  </g>
  <g begin="text">
   <text y="448.5" x="297.5,301.392,302.946,306.446,310.338,314.23,317.73,321.622,323.568,327.46,331.352,335.244,337.19,339.136,343.028,345.359,351.19,354.69,356.636,358.582,362.082,365.974,369.866,371.812,375.704,379.596,383.488,385.434,389.326,391.272,393.218,397.11,401.002,404.502,408.394,414.225,418.117,422.009,423.955" svgx:width="0.56,0.22,0.5,0.56,0.56,0.5,0.56,0.28,0.56,0.56,0.56,0.28,0.28,0.56,0.33,0.83,0.5,0.28,0.28,0.5,0.56,0.56,0.28,0.56,0.56,0.56,0.28,0.56,0.28,0.28,0.56,0.56,0.5,0.56,0.83,0.56,0.56,0.28,0.28" style="fill:rgb(0,0,0);font-family:NimbusSans-Regular;font-size:7.0px;stroke:none;">License and terms: see end of document.</text>
  </g>
  <g begin="text">
   <text y="528.0" x="59.5,68.171,75.399,81.899,85.513,89.842,97.07,103.57" svgx:width="0.67,0.56,0.5,0.28,0.33,0.56,0.5,0.28" style="fill:rgb(0,0,0);font-family:NimbusSans-Regular;font-size:13.0px;stroke:none;">Abstract</text>
  </g>
  <g begin="text">
   <text y="541.0" x="59.5,62.59,67.183,69.759,72.849,76.938,81.028,85.117,89.71,92.305,94.881,99.474,103.563,107.652,110.742,114.336,116.68,119.255,121.851,126.444,130.533,133.623,137.712,141.801,145.395,147.99,152.584,157.177,159.753,163.842,166.932,170.022,174.615,177.705,180.3,183.894,186.47,191.063,195.153,199.746,203.835,206.411,211.004,215.093,219.182,223.775,226.351,230.944,235.033,239.627,244.22,246.815,250.904,255.497,258.073,260.668,265.261,267.837,272.43,276.519,280.114,282.709,287.302,291.895,294.49,299.083,303.676,306.252,310.845,314.934,321.525,324.101,327.192,331.785,336.378,340.467,343.062,345.657,350.25,354.843,358.932,361.528,364.103,367.698,370.293,372.888,379.983,384.576,387.171,389.766,392.856,395.947,400.036,403.63,408.223,412.816,417.409,421.003,423.598,428.191,432.281,434.857,438.451,443.044,447.637,450.727,454.816,461.911,466.504,469.099,473.189,477.278,481.871,484.466,488.555,491.645,494.221,498.31,501.904,505.498,509.587,516.683,521.276,523.871,526.466,530.555,534.149" svgx:width="0.33,0.5,0.25,0.33,0.44,0.44,0.44,0.5,0.28,0.25,0.5,0.44,0.44,0.33,0.39,0.25,0.25,0.28,0.5,0.44,0.33,0.44,0.44,0.39,0.28,0.5,0.5,0.25,0.44,0.33,0.33,0.5,0.33,0.28,0.39,0.25,0.5,0.44,0.5,0.44,0.25,0.5,0.44,0.44,0.5,0.25,0.5,0.44,0.5,0.5,0.28,0.44,0.5,0.25,0.28,0.5,0.25,0.5,0.44,0.39,0.28,0.5,0.5,0.28,0.5,0.5,0.25,0.5,0.44,0.72,0.25,0.33,0.5,0.5,0.44,0.28,0.28,0.5,0.5,0.44,0.28,0.25,0.39,0.28,0.28,0.78,0.5,0.28,0.28,0.33,0.33,0.44,0.39,0.5,0.5,0.5,0.39,0.28,0.5,0.44,0.25,0.39,0.5,0.5,0.33,0.44,0.78,0.5,0.28,0.44,0.44,0.5,0.28,0.44,0.33,0.25,0.44,0.39,0.39,0.44,0.78,0.5,0.28,0.28,0.44,0.39,0.25" style="fill:rgb(0,0,0);font-family:NimbusRoman;font-size:9.0px;stroke:none;">In recent years, increasing efforts have been devoted to designing new functional stimuli-responsive supramolecular assemblies.</text>
   <text y="554.0" x="59.5,66.054,70.105,73.158,77.21,79.515,81.96,88.514,92.565,95.01,99.566,102.619,106.67,110.227,114.279,118.834,121.392,123.837,126.394,130.95,134.003,138.054,142.106,144.551,147.108,150.665,155.221,162.278,166.33,169.383,171.94,175.992,178.437,181.994,186.549,191.105,194.158,198.209,205.267,209.823,212.38,216.432,220.484,225.039,227.597,231.648,234.701,237.146,241.198,245.753,250.309,253.362,257.917,260.475,265.031,269.082,271.64,274.198,278.753,283.309,285.754,289.805,294.361,301.419,305.974,308.532,312.584,317.139,321.191,324.748,327.192,331.244,335.8,340.355,343.912,346.47,350.026,352.584,355.142,359.697,364.253,366.698,371.254,374.306,376.751,380.803,383.248,388.307" svgx:width="0.72,0.44,0.33,0.44,0.25,0.25,0.72,0.44,0.25,0.5,0.33,0.44,0.39,0.44,0.5,0.28,0.25,0.28,0.5,0.33,0.44,0.44,0.25,0.28,0.39,0.5,0.78,0.44,0.33,0.28,0.44,0.25,0.39,0.5,0.5,0.33,0.44,0.78,0.5,0.28,0.44,0.44,0.5,0.28,0.44,0.33,0.25,0.44,0.5,0.5,0.33,0.5,0.28,0.5,0.44,0.28,0.28,0.5,0.5,0.25,0.44,0.5,0.78,0.5,0.28,0.44,0.5,0.44,0.39,0.25,0.44,0.5,0.5,0.39,0.28,0.39,0.28,0.28,0.5,0.5,0.25,0.5,0.33,0.25,0.44,0.25,0.56,0.5" style="fill:rgb(0,0,0);font-family:NimbusRoman;font-size:9.0px;stroke:none;">Here, we present three isomeric supramolecular coordination complexes consisting of a Pd</text>
   <text y="555.8" x="392.863" svgx:width="0.5" style="fill:rgb(0,0,0);font-family:NimbusRoman;font-size:7.2px;stroke:none;">2</text>
   <text y="554.0" x="396.519" svgx:width="0.61" style="fill:rgb(0,0,0);font-family:NimbusRoman;font-size:9.0px;stroke:none;">L</text>
   <text y="555.8" x="402.073" svgx:width="0.5" style="fill:rgb(0,0,0);font-family:NimbusRoman;font-size:7.2px;stroke:none;">4</text>
   <text y="554.0" x="405.729,408.174,411.73,414.288,418.844,421.401,425.453,430.009,432.566,437.122,444.18,448.231,450.789,453.842,458.397,460.703,463.148,469.701,473.258,475.703,479.26,483.815,488.371,494.925,499.48,501.925,506.481,511.036,513.481,520.035,528.091,534.15" svgx:width="0.25,0.39,0.28,0.5,0.28,0.44,0.5,0.28,0.5,0.78,0.44,0.28,0.33,0.5,0.25,0.25,0.72,0.39,0.25,0.39,0.5,0.5,0.72,0.5,0.25,0.5,0.5,0.25,0.72,0.89,0.67,0.25" style="fill:rgb(0,0,0);font-family:NimbusRoman;font-size:9.0px;stroke:none;"> stoichiometry. As shown by NMR,</text>
   <text y="567.0" x="59.5,65.536,72.066,74.431,78.46,82.992,87.525,89.89,96.42,99.45,102.48,106.509,111.041,113.406,116.939,119.474,124.007,128.54,131.074,135.103,138.637,140.92,143.284,147.313,150.846,153.211,159.742,163.77,166.305,168.84,171.204,175.233,178.767,181.131,187.662,192.699,198.23,200.595,204.624,208.652,211.187,215.216,219.749,222.283,226.312,228.847,231.381,235.914,240.447,243.981,246.263,248.628,251.163,255.695,259.724,263.258,267.286,269.651,273.68,278.212,285.247,289.78,292.315,296.343,300.876,304.905,308.438,310.803,313.833,318.365,321.395,328.43,330.794,334.823,338.852,343.385,347.413,350.443,352.978,355.512,360.045,364.074,366.438,369.972,372.507,375.537,380.069,384.098,386.633,391.165,394.195,398.224,401.758,404.122,408.655,413.188,415.552,419.581,424.114,426.648,429.678,433.707,436.241,438.606,442.14,446.168,448.703,451.733,454.763,458.296,462.829,465.859,468.393,470.928,475.461,479.994,482.276,484.641,489.678,494.21,498.743,501.278,505.81,509.839,514.372,517.402,521.934,528.969,531.504" svgx:width="0.67,0.72,0.25,0.44,0.5,0.5,0.25,0.72,0.33,0.33,0.44,0.5,0.25,0.39,0.28,0.5,0.5,0.28,0.44,0.39,0.25,0.25,0.44,0.39,0.25,0.72,0.44,0.28,0.28,0.25,0.44,0.39,0.25,0.72,0.56,0.61,0.25,0.44,0.44,0.28,0.44,0.5,0.28,0.44,0.28,0.28,0.5,0.5,0.39,0.25,0.25,0.28,0.5,0.44,0.39,0.44,0.25,0.44,0.5,0.78,0.5,0.28,0.44,0.5,0.44,0.39,0.25,0.33,0.5,0.33,0.78,0.25,0.44,0.44,0.5,0.44,0.33,0.28,0.28,0.5,0.44,0.25,0.39,0.28,0.33,0.5,0.44,0.28,0.5,0.33,0.44,0.39,0.25,0.5,0.5,0.25,0.44,0.5,0.28,0.33,0.44,0.28,0.25,0.39,0.44,0.28,0.33,0.33,0.39,0.5,0.33,0.28,0.28,0.5,0.5,0.25,0.25,0.56,0.5,0.5,0.28,0.5,0.44,0.5,0.33,0.5,0.78,0.28,0.44" style="fill:rgb(0,0,0);font-family:NimbusRoman;font-size:9.0px;stroke:none;">CD and X-ray studies, as well as DFT calculations, these complexes form cage-like structures by chiral self-sorting. Photochromic</text>
   <text y="580.0" x="59.5,62.061,64.622,69.181,73.236,77.794,82.353,85.913,88.369,92.928,96.983,100.039,102.6,107.159,111.214,115.773,118.229,121.285,124.341,128.9,135.96,138.417,141.473,144.033,147.089,150.649,153.21,155.666,160.225,164.28,168.839,172.894,175.95,180.005,182.566,185.126,189.685,194.244,196.7,203.761,208.32,210.881,214.936,218.991,223.55,226.111,230.166,233.221,235.678,242.739,247.297,249.858,254.417,257.473,261.033,263.489,267.544,272.103,276.158,280.717,283.278,287.333,289.789,292.35,294.911,299.469,304.028,306.589,309.645,314.204,317.26,319.821,324.38,328.435,332.994,335.45,338.011,342.57,345.13,349.185,352.241,356.296,360.855,365.414,369.973,374.028,377.084,380.644,383.204,387.763,392.322,394.778,399.337,403.392,405.953,412.51,416.565,420.62,425.179,427.635,430.196,434.755,438.81,441.266,443.827,448.386,451.441,455.496,459.551,462.007,464.568,468.128,472.687,479.748,483.803,486.859,490.419,492.728,495.184,500.742,507.299,511.858,514.314,518.873,521.928,524.385,526.945,531.504" svgx:width="0.28,0.28,0.5,0.44,0.5,0.5,0.39,0.25,0.5,0.44,0.33,0.28,0.5,0.44,0.5,0.25,0.33,0.33,0.5,0.78,0.25,0.33,0.28,0.33,0.39,0.28,0.25,0.5,0.44,0.5,0.44,0.33,0.44,0.28,0.28,0.5,0.5,0.25,0.78,0.5,0.28,0.44,0.44,0.5,0.28,0.44,0.33,0.25,0.78,0.5,0.28,0.5,0.33,0.39,0.25,0.44,0.5,0.44,0.5,0.28,0.44,0.25,0.28,0.28,0.5,0.5,0.28,0.33,0.5,0.33,0.28,0.5,0.44,0.5,0.25,0.28,0.5,0.28,0.44,0.33,0.44,0.5,0.5,0.5,0.44,0.33,0.39,0.28,0.5,0.5,0.25,0.5,0.44,0.28,0.72,0.44,0.44,0.5,0.25,0.28,0.5,0.44,0.25,0.28,0.5,0.33,0.44,0.44,0.25,0.28,0.39,0.5,0.78,0.44,0.33,0.39,0.25,0.25,0.61,0.72,0.5,0.25,0.5,0.33,0.25,0.28,0.5,0.44" style="fill:rgb(0,0,0);font-family:NimbusRoman;font-size:9.0px;stroke:none;">ligands derived from first generation molecular motors enable light-driven interconversion between the three isomers. Two of the</text>
   <text y="593.0" x="59.5,62.018,65.536,70.052,77.07,81.082,84.096,87.613,89.92,96.434,100.446,103.46,107.472,109.779,113.791,118.307,120.826,124.838,127.145,129.663,134.179,136.486,139.5,144.016,147.029,154.047,156.354,160.871,165.387,168.904,171.422,175.939,180.455,184.971,188.984,192.501,195.019,197.326,201.338,205.855,212.873,217.389,219.907,223.92,228.436,232.448,235.965,238.272,242.789,247.305,251.317,255.833,258.352,262.868,267.384,269.691,274.207,278.724,281.031,285.547,289.559,296.073,298.38,302.897,305.91,310.426,313.943,318.46,322.472,326.484,329.003,332.52,334.827,337.345,341.861,348.376,352.388,355.401,359.917,362.224,365.742,368.26,370.778,377.796,382.313,384.831,387.349,390.363,394.375,398.891,403.407,405.926,408.939,413.455,415.973,418.492,422.504,427.02,429.327,432.845,437.361,441.877,445.394,447.913,450.926,454.938,457.456,461.469,463.776,468.292,470.81,475.326,479.843,482.361,486.877,491.394,493.7,497.713,502.229,506.745,509.052,512.065,516.078,518.596,522.608,526.621,530.138,534.15" svgx:width="0.28,0.39,0.5,0.78,0.44,0.33,0.39,0.25,0.72,0.44,0.33,0.44,0.25,0.44,0.5,0.28,0.44,0.25,0.28,0.5,0.25,0.33,0.5,0.33,0.78,0.25,0.5,0.5,0.39,0.28,0.5,0.5,0.5,0.44,0.39,0.28,0.25,0.44,0.5,0.78,0.5,0.28,0.44,0.5,0.44,0.39,0.25,0.5,0.5,0.44,0.5,0.28,0.5,0.5,0.25,0.5,0.5,0.25,0.5,0.44,0.72,0.25,0.5,0.33,0.5,0.39,0.5,0.44,0.44,0.28,0.39,0.25,0.28,0.5,0.72,0.44,0.33,0.5,0.25,0.39,0.28,0.28,0.78,0.5,0.28,0.28,0.33,0.44,0.5,0.5,0.28,0.33,0.5,0.28,0.28,0.44,0.5,0.25,0.39,0.5,0.5,0.39,0.28,0.33,0.44,0.28,0.44,0.25,0.5,0.28,0.5,0.5,0.28,0.5,0.5,0.25,0.44,0.5,0.5,0.25,0.33,0.44,0.28,0.44,0.44,0.39,0.44,0.25" style="fill:rgb(0,0,0);font-family:NimbusRoman;font-size:9.0px;stroke:none;">isomers were able to form host–guest complexes opening up new prospects toward stimuli-controlled substrate binding and release.</text>
  </g>
  <g begin="text">
   <text y="792.1" x="517.93,521.822,525.714,529.606" svgx:width="0.56,0.56,0.56,0.56" style="fill:rgb(0,0,0);font-family:NimbusSans-Regular;font-size:7.0px;stroke:none;">2767</text>
  </g>
  <g begin="text">
   <text y="619.0" x="59.5,63.114,70.342,73.956,78.285,85.513,92.741,99.969,106.469,110.083,112.969,120.197" svgx:width="0.28,0.56,0.28,0.33,0.56,0.56,0.56,0.5,0.28,0.22,0.56,0.56" style="fill:rgb(0,0,0);font-family:NimbusSans-Regular;font-size:13.0px;stroke:none;">Introduction</text>
  </g>
  <g begin="text">
   <text y="632.0" x="59.5,64.744,69.484,74.224,77.461,81.696,88.938,93.678,96.42,100.656,104.892,109.632,112.374,116.61,119.847,122.097,122.936,127.172,131.912,136.652,139.889,144.629,147.371,152.111,156.346,159.088,161.83,166.57,171.31,173.56,174.4,178.636,183.375,190.617,195.357,198.099,202.335,207.075,211.311,215.052,217.302,218.141,221.378,226.622,232.865,239.108,242.849,246.086,248.336,249.175,252.412,256.648,261.388,264.625,268.861,272.602,276.838,281.578,284.32,286.57,287.409" svgx:width="0.56,0.5,0.5,0.33,0.44,0.78,0.5,0.28,0.44,0.44,0.5,0.28,0.44,0.33,0.25,0.55,0.44,0.5,0.5,0.33,0.5,0.28,0.5,0.44,0.28,0.28,0.5,0.5,0.25,0.55,0.44,0.5,0.78,0.5,0.28,0.44,0.5,0.44,0.39,0.25,0.55,0.33,0.56,0.67,0.67,0.39,0.33,0.25,0.55,0.33,0.44,0.5,0.33,0.44,0.39,0.44,0.5,0.28,0.25,0.55,0.44" style="fill:rgb(0,0,0);font-family:NimbusRoman;font-size:9.0px;stroke:none;">Supramolecular coordination complexes (SCCs) represent a</text>
   <text y="645.0" x="59.5,64.334,67.664,72.498,79.833,82.669,86.503,89.339,94.172,99.006,101.256,102.424,106.753,109.589,113.918,117.753,121.587,123.837,125.005,129.838,133.169,135.419,136.586,140.916,145.749,153.085,157.919,162.752,167.586,172.419,177.253,181.087,183.337,184.505,191.336,196.17,199.006,203.335,208.169,210.419,211.586,216.42,220.749,225.583,229.912,232.162,233.33,238.163,242.493,246.822,251.656,253.906,255.074,259.907,263.742,268.071,272.905,275.155,276.322,279.158,283.991,286.241,287.409" svgx:width="0.5,0.33,0.5,0.78,0.28,0.39,0.28,0.5,0.5,0.25,0.55,0.44,0.28,0.44,0.39,0.39,0.25,0.55,0.5,0.33,0.25,0.55,0.44,0.5,0.78,0.5,0.5,0.5,0.5,0.5,0.39,0.25,0.55,0.72,0.5,0.28,0.44,0.5,0.25,0.55,0.5,0.44,0.5,0.44,0.25,0.55,0.5,0.44,0.44,0.5,0.25,0.55,0.5,0.39,0.44,0.5,0.25,0.55,0.28,0.5,0.25,0.55,0.44" style="fill:rgb(0,0,0);font-family:NimbusRoman;font-size:9.0px;stroke:none;">promising class of compounds which have been used in a</text>
   <text y="658.0" x="59.5,64.208,68.411,71.616,74.326,78.53,81.239,85.947,88.197,88.924,93.632,96.836,99.086,99.813,107.023,111.731,114.441,118.644,122.848,127.556,130.266,134.469,137.674,139.924,140.651,144.36,149.067,152.776,155.486,159.69,166.899,170.608,172.858,173.585,176.79,181.497,184.702,189.41,192.615,195.072,197.322,198.049,203.756,207.96,212.668,215.377,220.085,224.793,227.043,227.77,231.973,236.681,241.389,245.593,250.3,253.01,257.214,261.921,266.125,268.375,269.102,273.81,277.015,279.265,279.992,282.701,287.409" svgx:width="0.5,0.44,0.33,0.28,0.44,0.28,0.5,0.25,0.55,0.5,0.33,0.25,0.55,0.78,0.5,0.28,0.44,0.44,0.5,0.28,0.44,0.33,0.25,0.55,0.39,0.5,0.39,0.28,0.44,0.78,0.39,0.25,0.55,0.33,0.5,0.33,0.5,0.33,0.25,0.25,0.55,0.61,0.44,0.5,0.28,0.5,0.5,0.25,0.55,0.44,0.5,0.5,0.44,0.5,0.28,0.44,0.5,0.44,0.25,0.55,0.5,0.33,0.25,0.55,0.28,0.5,0.44" style="fill:rgb(0,0,0);font-family:NimbusRoman;font-size:9.0px;stroke:none;">variety of molecular systems [1-6]. Taking advantage of the</text>
   <text y="671.0" x="59.5,64.085,68.165,72.246,76.327,80.911,83.498,86.044,90.125,94.206,98.79,101.377,103.964,108.548,111.095,113.681,118.266,121.852,124.438,129.023,133.104,135.65,138.237,142.821,146.902,150.488,154.568,157.115,161.196,165.78,172.867,177.452,180.038,184.119,188.704,192.784,196.37,198.705,201.251,206.34,212.427,218.515,222.101,224.647,229.232,233.312,237.897,241.978,244.524,249.109,253.189,257.27,261.855,264.401,268.482,273.066,277.651,280.238,282.824,286.905" svgx:width="0.5,0.44,0.44,0.44,0.5,0.28,0.25,0.44,0.44,0.5,0.28,0.28,0.5,0.25,0.28,0.5,0.39,0.28,0.5,0.44,0.25,0.28,0.5,0.44,0.39,0.44,0.25,0.44,0.5,0.78,0.5,0.28,0.44,0.5,0.44,0.39,0.25,0.25,0.56,0.67,0.67,0.39,0.25,0.5,0.44,0.5,0.44,0.25,0.5,0.44,0.44,0.5,0.25,0.44,0.5,0.5,0.28,0.28,0.44,0.5" style="fill:rgb(0,0,0);font-family:NimbusRoman;font-size:9.0px;stroke:none;">vacant cavity inside these complexes, SCCs have been applied</text>
   <text y="684.0" x="59.5,62.138,66.775,69.503,74.139,77.272,81.909,86.545,89.273,93.909,98.042,100.68,103.319,107.955,112.088,115.221,119.858,122.585,125.719,130.355,133.489,138.125,141.259,143.645,146.373,150.01,154.647,159.283,162.416,166.549,173.687,178.324,180.962,185.095,189.227,193.864,196.502,200.635,203.768,206.496,210.628,214.761,217.399,221.532,224.17,228.806,232.444,235.082,238.72,241.447,244.581,249.217,252.351,256.987,261.624,264.757,267.144,269.871,276.506,279.639,282.773,286.905" svgx:width="0.28,0.5,0.25,0.5,0.33,0.5,0.5,0.25,0.5,0.44,0.28,0.28,0.5,0.44,0.33,0.5,0.25,0.33,0.5,0.33,0.5,0.33,0.25,0.25,0.39,0.5,0.5,0.33,0.44,0.78,0.5,0.28,0.44,0.44,0.5,0.28,0.44,0.33,0.25,0.44,0.44,0.28,0.44,0.28,0.5,0.39,0.28,0.39,0.25,0.33,0.5,0.33,0.5,0.5,0.33,0.25,0.25,0.72,0.33,0.33,0.44,0.5" style="fill:rgb(0,0,0);font-family:NimbusRoman;font-size:9.0px;stroke:none;">in drug delivery [6-8], supramolecular catalysis [9-12], X-ray</text>
   <text y="697.0" x="59.5,63.237,65.975,69.208,73.944,78.176,80.914,85.65,88.883,93.115,95.365,96.19,100.926,105.158,107.896,112.128,115.361,122.599,125.337,130.073,134.305,137.043,139.781,144.517,149.253,151.503,152.329,155.561,160.297,165.033,167.519,172.255,176.991,180.224,182.474,183.3,187.532,192.268,197.004,199.254,200.08,203.817,206.555,210.786,215.522,218.26,220.998,223.736,227.968,232.2,234.938,237.676,242.412,247.148,249.398,250.224,254.96,258.193,260.443,261.268,264.501,268.733,272.965,277.197,279.935,282.673,287.409" svgx:width="0.39,0.28,0.33,0.5,0.44,0.28,0.5,0.33,0.44,0.25,0.55,0.5,0.44,0.28,0.44,0.33,0.78,0.28,0.5,0.44,0.28,0.28,0.5,0.5,0.25,0.55,0.33,0.5,0.5,0.25,0.5,0.5,0.33,0.25,0.55,0.44,0.5,0.5,0.25,0.55,0.39,0.28,0.44,0.5,0.28,0.28,0.28,0.44,0.44,0.28,0.28,0.5,0.5,0.25,0.55,0.5,0.33,0.25,0.55,0.33,0.44,0.44,0.44,0.28,0.28,0.5,0.44" style="fill:rgb(0,0,0);font-family:NimbusRoman;font-size:9.0px;stroke:none;">structure determination [13,14] and stabilization of reactive</text>
   <text y="710.0" x="59.5,63.136,67.771,71.902,76.033,78.67,82.801,86.437,89.159,92.291,96.926,101.561,104.693,109.328,113.963,117.095,119.48,122.202,127.836,132.471,136.602,139.325,143.96,147.596,151.727,154.449,159.084,162.216,164.938,168.07,172.201,176.836,180.967,184.099,187.735,190.372,195.007,197.644,201.775,204.497,211.634,215.765,218.402,222.533,225.17,229.805,232.442,235.079,239.714,243.845,248.48,253.115,255.837,259.968,264.603,269.238,272.37,277.005,279.642,284.277,288.408" svgx:width="0.39,0.5,0.44,0.44,0.28,0.44,0.39,0.25,0.33,0.5,0.5,0.33,0.5,0.5,0.33,0.25,0.25,0.61,0.5,0.44,0.25,0.5,0.39,0.44,0.25,0.5,0.33,0.25,0.33,0.44,0.5,0.44,0.33,0.39,0.28,0.5,0.28,0.44,0.25,0.78,0.44,0.28,0.44,0.28,0.5,0.28,0.28,0.5,0.44,0.5,0.5,0.25,0.44,0.5,0.5,0.33,0.5,0.28,0.5,0.44,0.33" style="fill:rgb(0,0,0);font-family:NimbusRoman;font-size:9.0px;stroke:none;">species [15-17]. The use of reversible metal–ligand coordina-</text>
   <text y="723.0" x="59.5,62.296,65.092,69.886,74.68,76.93,77.96,82.754,87.548,92.342,97.136,100.931,103.181,104.211,109.005,111.801,116.595,120.885,124.68,126.93,127.959,131.251,134.047,137.842,142.132,144.382,145.411,148.207,153.001,155.251,156.281,160.076,164.87,168.665,171.461,175.751,183.047,186.842,189.092,190.122,192.918,197.712,202.002,204.798,207.048,208.077,212.368,215.164,217.96,222.754,229.546,231.796,232.825,236.116,240.911,244.202,246.452,247.481,251.771,256.565,260.855,265.649,268.445,271.242,276.036,280.83,283.08,284.109,286.905" svgx:width="0.28,0.28,0.5,0.5,0.25,0.55,0.5,0.5,0.5,0.5,0.39,0.25,0.55,0.5,0.28,0.5,0.44,0.39,0.25,0.55,0.33,0.28,0.39,0.44,0.25,0.55,0.28,0.5,0.25,0.55,0.39,0.5,0.39,0.28,0.44,0.78,0.39,0.25,0.55,0.28,0.5,0.44,0.28,0.25,0.55,0.44,0.28,0.28,0.5,0.72,0.25,0.55,0.33,0.5,0.33,0.25,0.55,0.44,0.5,0.44,0.5,0.28,0.28,0.5,0.5,0.25,0.55,0.28,0.5" style="fill:rgb(0,0,0);font-family:NimbusRoman;font-size:9.0px;stroke:none;">tion bonds gives rise to systems that allow for adaption to</text>
   <text y="736.0" x="59.5,63.595,68.193,70.794,74.889,77.984,82.583,86.678,89.279,91.874,95.474,98.074,100.675,107.776,112.375,114.975,117.576,120.171,123.771,128.37,132.465,137.063,139.659,143.753,147.353,149.948,154.547,161.144,163.493,166.088,170.183,174.781,177.382,181.981,186.579,190.179,192.528,195.123,199.218,201.819,205.913,210.008,212.609,215.704,218.305,222.4,224.995,229.594,234.193,236.793,240.888,245.487,248.087,250.688,254.783,257.384,259.732,262.328,266.422,271.021,275.62,279.715,283.809,288.408" svgx:width="0.44,0.5,0.28,0.44,0.33,0.5,0.44,0.28,0.25,0.39,0.28,0.28,0.78,0.5,0.28,0.28,0.25,0.39,0.5,0.44,0.5,0.25,0.44,0.39,0.25,0.5,0.72,0.25,0.25,0.44,0.5,0.28,0.5,0.5,0.39,0.25,0.25,0.44,0.28,0.44,0.44,0.28,0.33,0.28,0.44,0.25,0.5,0.5,0.28,0.44,0.5,0.28,0.28,0.44,0.28,0.25,0.25,0.44,0.5,0.5,0.44,0.44,0.5,0.33" style="fill:rgb(0,0,0);font-family:NimbusRoman;font-size:9.0px;stroke:none;">external stimuli such as pH, anions, electric potential, concen-</text>
   <text y="749.0" x="59.5,62.04,65.074,69.108,71.648,74.187,78.725,83.262,85.644,89.678,94.215,98.753,101.135,103.674,106.214,110.752,115.289,117.829,120.211,123.245,127.783,130.07,134.608,136.896,141.433,145.971,149.006,153.543,158.081,161.116,163.403,165.785,172.32,175.859,178.399,182.936,187.474,189.856,192.395,194.935,199.473,204.01,206.55,208.932,211.471,216.009,218.391,222.928,227.466,232.003,236.037,243.077,245.616,249.65,253.684,256.223,258.763,263.3,265.682,269.716,274.253,278.791,281.331,284.365,288.903" svgx:width="0.28,0.33,0.44,0.28,0.28,0.5,0.5,0.25,0.44,0.5,0.5,0.25,0.28,0.28,0.5,0.5,0.28,0.25,0.33,0.5,0.25,0.5,0.25,0.5,0.5,0.33,0.5,0.5,0.33,0.25,0.25,0.72,0.39,0.28,0.5,0.5,0.25,0.28,0.28,0.5,0.5,0.28,0.25,0.28,0.5,0.25,0.5,0.5,0.5,0.44,0.78,0.28,0.44,0.44,0.28,0.28,0.5,0.25,0.44,0.5,0.5,0.28,0.33,0.5,0.28" style="fill:rgb(0,0,0);font-family:NimbusRoman;font-size:9.0px;stroke:none;">tration and light [4,8,18-21]. Using light to dynamically control</text>
   <text y="762.0" x="59.5,62.072,66.642,70.707,73.202,76.772,81.342,85.408,89.978,94.044,96.538,100.604,105.173,109.743,112.237,115.304,119.874,124.444,128.51,131.081,133.653,138.223,142.793,145.287,149.857,152.924,155.418,160.492,166.564,172.637,176.208,178.702,181.274,184.845,187.339,191.405,193.899,198.469,202.535,205.601,210.171,212.666,217.235,220.302,224.872,231.944,234.515,238.086,240.658,245.228,249.798,252.292,255.863,258.434,261.501,265.567,268.139,272.205,276.774,281.344,283.839,287.904" svgx:width="0.28,0.5,0.44,0.25,0.39,0.5,0.44,0.5,0.44,0.25,0.44,0.5,0.5,0.25,0.33,0.5,0.5,0.44,0.28,0.28,0.5,0.5,0.25,0.5,0.33,0.25,0.56,0.67,0.67,0.39,0.25,0.28,0.39,0.25,0.44,0.25,0.5,0.44,0.33,0.5,0.25,0.5,0.33,0.5,0.78,0.28,0.39,0.28,0.5,0.5,0.25,0.39,0.28,0.33,0.44,0.28,0.44,0.5,0.5,0.25,0.44,0.39" style="fill:rgb(0,0,0);font-family:NimbusRoman;font-size:9.0px;stroke:none;">the shape and function of SCCs is a very promising strategy as</text>
  </g>
  <g begin="text">
   <text y="632.0" x="303.6,306.147,308.695,311.104,313.651,317.198,319.607,323.649,326.058,330.603,335.149,339.694,342.242,346.787,351.332,355.374,358.92,361.468,366.013,370.055,372.464,376.01,378.558,381.105,388.153,392.698,395.246,399.791,403.338,405.747,408.294,412.84,416.881,419.429,421.838,425.879,429.921,434.466,436.875,441.421,445.462,447.871,451.913,455.954,459.501,462.048,464.596,469.141,471.55,475.592,480.137,484.683,487.23,489.777,493.819,498.364,500.774,507.317,509.864,512.412,516.957,519.367,523.912,526.459,531.005" svgx:width="0.28,0.28,0.25,0.28,0.39,0.25,0.44,0.25,0.5,0.5,0.5,0.28,0.5,0.5,0.44,0.39,0.28,0.5,0.44,0.25,0.39,0.28,0.28,0.78,0.5,0.28,0.5,0.39,0.25,0.28,0.5,0.44,0.28,0.25,0.44,0.44,0.5,0.25,0.5,0.44,0.25,0.44,0.44,0.39,0.28,0.28,0.5,0.25,0.44,0.5,0.5,0.28,0.28,0.44,0.5,0.25,0.72,0.28,0.28,0.5,0.25,0.5,0.28,0.5,0.5" style="fill:rgb(0,0,0);font-family:NimbusRoman;font-size:9.0px;stroke:none;">it is a noninvasive stimulus that can be easily applied with high</text>
   <text y="645.0" x="303.6,307.201,311.801,315.898,318.5,321.102,325.702,328.305,332.401,339.503,344.103,348.704,351.801,355.897,358.499,361.1,365.197,369.797,374.397,376.999,380.096,384.697,387.299,389.649,392.25,398.848,401.451,404.053,408.653,413.253,417.854,420.456,423.057,427.657,430.754,435.354,439.955,444.555,448.651,451.253,455.854,460.454,463.055,467.151,471.751,476.351,478.952,485.551,489.647,493.248,495.85,499.947,502.297,504.898,510.002,514.602,518.203,520.806,524.902,532.004" svgx:width="0.39,0.5,0.44,0.28,0.28,0.5,0.28,0.44,0.78,0.5,0.5,0.33,0.44,0.28,0.25,0.44,0.5,0.5,0.28,0.33,0.5,0.28,0.25,0.25,0.72,0.28,0.28,0.5,0.5,0.5,0.28,0.25,0.5,0.33,0.5,0.5,0.5,0.44,0.28,0.5,0.5,0.25,0.44,0.5,0.5,0.25,0.72,0.44,0.39,0.28,0.44,0.25,0.25,0.56,0.5,0.39,0.28,0.44,0.78,0.39" style="fill:rgb(0,0,0);font-family:NimbusRoman;font-size:9.0px;stroke:none;">spatiotemporal control, without producing any waste. Systems</text>
   <text y="658.0" x="303.6,308.246,312.387,317.033,321.174,323.934,328.579,332.721,336.862,341.508,344.267,347.41,351.551,356.197,360.842,363.985,366.632,370.774,375.419,378.179,384.822,389.468,393.609,396.752,400.893,403.653,408.298,412.944,417.589,420.237,424.882,427.53,431.176,435.822,442.969,447.111,450.253,452.901,457.042,461.184,463.832,466.479,471.125,475.77,478.529,483.175,486.318,489.077,493.218,497.36,502.005,506.651,510.793,515.438,519.58,523.721,528.367,532.508" svgx:width="0.5,0.44,0.5,0.44,0.25,0.5,0.44,0.44,0.5,0.25,0.33,0.44,0.5,0.5,0.33,0.28,0.44,0.5,0.25,0.72,0.5,0.44,0.33,0.44,0.25,0.5,0.5,0.5,0.28,0.5,0.28,0.39,0.5,0.78,0.44,0.33,0.28,0.44,0.44,0.28,0.28,0.5,0.5,0.25,0.5,0.33,0.25,0.44,0.44,0.5,0.5,0.44,0.5,0.44,0.44,0.5,0.44,0.33" style="fill:rgb(0,0,0);font-family:NimbusRoman;font-size:9.0px;stroke:none;">have been reported where photoisomerization of azobenzene-</text>
   <text y="671.0" x="303.6,308.16,312.216,315.273,317.835,322.396,326.452,331.012,333.472,337.528,342.088,344.651,349.211,353.771,357.332,359.792,363.848,368.409,372.465,376.521,381.081,384.642,389.202,391.764,395.82,398.382,402.439,406.999,409.459,412.021,416.581,419.042,422.603,427.163,431.723,434.78,438.836,445.898,450.458,453.021,457.077,461.133,465.693,468.255,472.311,475.368,477.829,482.389,486.445,489.007,491.569,495.625,500.185,502.747,507.308,514.37,516.83,520.886,525.446,532.508" svgx:width="0.5,0.44,0.33,0.28,0.5,0.44,0.5,0.25,0.44,0.5,0.28,0.5,0.5,0.39,0.25,0.44,0.5,0.44,0.44,0.5,0.39,0.5,0.28,0.44,0.28,0.44,0.5,0.25,0.28,0.5,0.25,0.39,0.5,0.5,0.33,0.44,0.78,0.5,0.28,0.44,0.44,0.5,0.28,0.44,0.33,0.25,0.5,0.44,0.28,0.28,0.44,0.5,0.28,0.5,0.78,0.25,0.44,0.5,0.78,0.33" style="fill:rgb(0,0,0);font-family:NimbusRoman;font-size:9.0px;stroke:none;">derived anions encapsulated in supramolecular palladium com-</text>
   <text y="684.0" x="303.6,308.553,311.507,315.956,320.908,325.357,329.311,331.561,333.143,337.592,342.04,346.993,350.947,355.395,360.348,362.598,364.181,367.135,374.59,382.044,386.493,391.445,394.4,398.849,401.803,406.252,408.502,410.085,414.533,417.983,422.935,426.889,429.844,434.292,437.247,440.201,443.156,447.604,452.053,455.008,457.962,462.915,467.867,470.117,471.7,475.15,480.102,485.055,488.504,491.207,493.457,495.04,503.493,508.446,511.896,516.344,521.297,526.249,530.698,534.147" svgx:width="0.5,0.28,0.44,0.5,0.44,0.39,0.25,0.55,0.44,0.44,0.5,0.39,0.44,0.5,0.25,0.55,0.28,0.78,0.78,0.44,0.5,0.28,0.44,0.28,0.44,0.25,0.55,0.44,0.33,0.5,0.39,0.28,0.44,0.28,0.28,0.28,0.44,0.44,0.28,0.28,0.5,0.5,0.25,0.55,0.33,0.5,0.5,0.33,0.25,0.25,0.55,0.89,0.5,0.33,0.44,0.5,0.5,0.44,0.33,0.25" style="fill:rgb(0,0,0);font-family:NimbusRoman;font-size:9.0px;stroke:none;">plexes caused immediate crystallization [22]. Moreover,</text>
   <text y="697.0" x="303.6,307.727,311.853,316.484,321.115,325.242,329.872,333.999,338.126,342.757,346.883,350.515,353.223,357.853,361.98,366.611,370.738,373.445,378.076,382.203,386.33,390.96,393.668,398.299,401.93,406.057,410.688,413.395,416.028,420.659,423.367,426.494,431.125,435.756,439.883,442.515,445.148,449.779,454.409,458.536,461.169,463.802,467.928,472.055,474.763,479.394,484.024,486.657,491.288,493.995,496.628,501.259,505.386,508.093,510.726,515.357,517.99,522.116,525.244,527.877,532.508" svgx:width="0.44,0.44,0.5,0.5,0.44,0.5,0.44,0.44,0.5,0.44,0.39,0.25,0.5,0.44,0.5,0.44,0.25,0.5,0.44,0.44,0.5,0.25,0.5,0.39,0.44,0.5,0.25,0.28,0.5,0.25,0.33,0.5,0.5,0.44,0.28,0.28,0.5,0.5,0.44,0.28,0.28,0.44,0.44,0.25,0.5,0.5,0.28,0.5,0.25,0.28,0.5,0.44,0.25,0.28,0.5,0.28,0.44,0.33,0.28,0.5,0.33" style="fill:rgb(0,0,0);font-family:NimbusRoman;font-size:9.0px;stroke:none;">azobenzenes have been used to functionalize both the interior</text>
   <text y="710.0" x="303.6,306.611,311.125,315.639,318.65,320.949,324.959,329.473,333.987,336.286,340.296,344.81,347.326,351.336,354.347,356.863,361.377,364.388,366.686,369.697,374.211,378.725,381.736,384.035,388.549,391.56,393.859,398.877,404.894,410.911,414.426,416.725,419.241,423.755,426.054,430.568,435.082,439.596,442.112,446.626,450.636,455.15,459.16,466.176,468.692,472.702,476.712,479.228,481.744,486.258,488.557,492.567,497.081,501.595,504.111,507.121,511.635,514.151,516.45,520.964,525.478,529.488,533.003" svgx:width="0.33,0.5,0.5,0.33,0.25,0.44,0.5,0.5,0.25,0.44,0.5,0.28,0.44,0.33,0.28,0.5,0.33,0.25,0.33,0.5,0.5,0.33,0.25,0.5,0.33,0.25,0.56,0.67,0.67,0.39,0.25,0.28,0.5,0.25,0.5,0.5,0.5,0.28,0.5,0.44,0.5,0.44,0.78,0.28,0.44,0.44,0.28,0.28,0.5,0.25,0.44,0.5,0.5,0.28,0.33,0.5,0.28,0.25,0.5,0.5,0.44,0.39,0.28" style="fill:rgb(0,0,0);font-family:NimbusRoman;font-size:9.0px;stroke:none;">[23] and exterior [24] of SCCs to photochemically control guest</text>
   <text y="723.0" x="303.6,308.908,311.428,312.218,317.526,322.834,325.354,326.144,331.452,336.76,339.01,341.838,346.642,351.95,357.258,359.508,362.336,366.141,370.945,373.465,374.255,379.059,383.863,388.172,392.976,395.226,396.034,398.284,401.112,406.924,412.232,416.037,418.55699999999996,419.347,424.655,429.458,433.263,441.073,446.381,450.186,454.99,457.24,458.048,460.298,463.126,465.64599999999996,466.436,471.744,476.548,481.856,485.661,490.969,496.277,500.082,504.886,507.406,508.196,510.716,511.506,516.814,522.122,524.372,527.2,532.508" svgx:width="0.5,0.28,0.55,0.5,0.5,0.28,0.55,0.5,0.5,0.25,0.55,0.44,0.5,0.5,0.25,0.55,0.33,0.44,0.28,0.55,0.44,0.44,0.39,0.44,0.25,0.55,0.25,0.55,0.56,0.5,0.33,0.28,0.55,0.5,0.44,0.33,0.78,0.5,0.33,0.44,0.25,0.55,0.25,0.55,0.28,0.55,0.5,0.44,0.5,0.33,0.5,0.5,0.33,0.44,0.28,0.55,0.28,0.55,0.5,0.5,0.25,0.55,0.5,0.33" style="fill:rgb(0,0,0);font-family:NimbusRoman;font-size:9.0px;stroke:none;">bi ndi ng and rel ease. Furt hermore, i ncorporat i on of</text>
   <text y="736.0" x="303.6,308.277,310.955,313.634,318.31,320.989,325.161,329.838,334.514,337.193,341.365,344.044,348.72,352.893,357.57,361.742,364.61,367.289,371.965,374.644,379.32,382.188,384.867,389.543,393.716,396.584,399.262,401.941,406.617,410.79,415.466,420.143,423.82,426.688,430.861,435.537,440.214,444.89,449.063,453.235,455.914,458.593,463.269,467.946,470.814,473.492,478.169,482.341,485.209,492.388,496.56,499.239,503.411,506.09,508.958,513.13,517.303,521.979,524.658,528.83,532.004" svgx:width="0.5,0.28,0.28,0.5,0.28,0.44,0.5,0.5,0.28,0.44,0.28,0.5,0.44,0.5,0.44,0.25,0.28,0.5,0.28,0.5,0.25,0.28,0.5,0.44,0.25,0.28,0.28,0.5,0.44,0.5,0.5,0.39,0.25,0.44,0.5,0.5,0.5,0.44,0.44,0.28,0.28,0.5,0.5,0.25,0.28,0.5,0.44,0.25,0.78,0.44,0.28,0.44,0.28,0.25,0.44,0.44,0.5,0.28,0.44,0.33,0.39" style="fill:rgb(0,0,0);font-family:NimbusRoman;font-size:9.0px;stroke:none;">dithienylethene into the ligands connecting the metal centers</text>
   <text y="749.0" x="303.6,308.169,312.233,315.803,318.293,322.861,326.926,330.99,335.559,338.049,342.617,346.187,350.251,354.82,357.31,359.88,364.449,366.939,371.003,375.572,380.14,382.711,385.777,390.345,392.916,395.406,399.974,404.543,408.112,410.683,415.251,419.82,424.388,428.453,432.022,434.593,437.083,439.654,444.222,446.793,450.857,453.923,457.987,462.052,464.622,467.193,471.761,476.33,479.9,482.389,485.455,490.024,494.592,497.658,502.226,506.795,509.86,512.179,514.669,518.238,520.809,523.875,528.443,532.508" svgx:width="0.5,0.44,0.39,0.25,0.5,0.44,0.44,0.5,0.25,0.5,0.39,0.44,0.5,0.25,0.28,0.5,0.25,0.44,0.5,0.5,0.28,0.33,0.5,0.28,0.25,0.5,0.5,0.39,0.28,0.5,0.5,0.5,0.44,0.39,0.28,0.25,0.28,0.5,0.28,0.44,0.33,0.44,0.44,0.28,0.28,0.5,0.5,0.39,0.25,0.33,0.5,0.5,0.33,0.5,0.5,0.33,0.25,0.25,0.39,0.28,0.33,0.5,0.44,0.33" style="fill:rgb(0,0,0);font-family:NimbusRoman;font-size:9.0px;stroke:none;">has been used to control host–guest interactions [25-28], struc-</text>
   <text y="762.0" x="303.6,306.274,310.946,314.115,318.283,320.957,323.809,327.977,332.649,339.823,344.495,349.167,352.84,355.514,358.188,360.862,365.534,370.206,373.058,376.227,380.899,385.571,388.74,391.162,394.014,398.182,402.854,407.526,410.378,414.051,418.723,421.397,426.069,430.741,434.909,437.583,440.435,443.109,446.278,450.446,455.118,458.791,461.465,464.139,466.813,471.485,476.157,479.009,482.178,486.85,491.522,494.691,497.113,499.965,506.635,511.307,517.977,522.146,526.818,530.986,534.155" svgx:width="0.28,0.5,0.33,0.44,0.28,0.25,0.44,0.5,0.78,0.5,0.5,0.39,0.28,0.28,0.28,0.5,0.5,0.25,0.33,0.5,0.5,0.33,0.25,0.25,0.44,0.5,0.5,0.25,0.39,0.5,0.28,0.5,0.5,0.44,0.28,0.25,0.28,0.33,0.44,0.5,0.39,0.28,0.28,0.28,0.5,0.5,0.25,0.33,0.5,0.5,0.33,0.25,0.25,0.72,0.5,0.72,0.44,0.5,0.44,0.33,0.25" style="fill:rgb(0,0,0);font-family:NimbusRoman;font-size:9.0px;stroke:none;">tural composition [29], and sol–gel transition [30]. However,</text>
  </g>
 </g>
</svg>
