<?xml version="1.0" encoding="UTF-8"?>
<svg height="781.081" width="4324.589" xmlns="http://www.w3.org/2000/svg">
 <g id="page" xmlns:svgx="http://www.xml-cml.org/schema/svgx">
  <g begin="text">
   <text y="353.366" x="44.844,48.988,52.613,57.275,60.9,64.007,68.669,71.2586,76.931,84.601,89.781,94.961,100.14,104.284,109.586,113.211,118.391,126.061,130.723,133.83,139.122,142.637,144.9278,150.518,156.413,161.593,166.27419999999998,171.891,179.152,182.26,185.885,190.547,195.2282,200.86,205.522,210.701,215.363,218.988,223.65,228.3312,233.968,240.602,245.264,248.8496,254.491,259.153,263.8342,266.34,271.001,275.663,280.3442,282.894,287.556,293.609" svgx:width="0.42,0.36,0.47,0.36,0.31,0.47,0.26,0.55,0.77,0.52,0.52,0.52,0.42,0.52,0.36,0.52,0.77,0.47,0.31,0.52,0.36,0.23,0.55,0.63,0.52,0.47,0.55,0.73,0.31,0.36,0.47,0.47,0.55,0.47,0.52,0.47,0.36,0.47,0.47,0.55,0.67,0.47,0.36,0.55,0.47,0.47,0.55,0.47,0.47,0.47,0.55,0.47,0.73,0.23" style="fill:rgb(0,0,0);font-family:Advt93-r;font-size:9.96px;stroke:none;">crystal monochromator. The X-ray energy was 11 100 eV,</text>
   <text y="365.272" x="44.844,51.478,56.658,59.247,63.391,68.5702,71.772,78.407,83.068,86.6536,89.858,95.037,99.699,102.806,107.468,111.093,118.763,121.353,126.532,131.194,136.3732,139.632,144.812,149.4932,152.615,160.285,164.947,169.608,173.234,178.523,182.148,184.737,189.917,194.5982,197.741,205.003,212.782,220.044,226.768,231.9472,235.045,238.671,245.932,249.04,252.665,257.438,262.1192,265.205,269.867,275.046,278.754,283.934,287.559,292.739" svgx:width="0.67,0.52,0.26,0.42,0.52,0.55,0.67,0.47,0.36,0.55,0.52,0.47,0.31,0.47,0.36,0.77,0.26,0.52,0.47,0.52,0.55,0.52,0.47,0.55,0.77,0.47,0.47,0.36,0.52,0.36,0.26,0.52,0.47,0.55,0.73,0.78,0.73,0.67,0.52,0.55,0.36,0.73,0.31,0.36,0.47,0.47,0.55,0.47,0.52,0.36,0.52,0.36,0.52,0.31" style="fill:rgb(0,0,0);font-family:Advt93-r;font-size:9.96px;stroke:none;">which was determined by measuring XANES (X-ray absorp-</text>
   <text y="377.234" x="44.844,47.952,50.541,55.72,60.8992,63.778,68.958,73.619,78.281,81.409,84.517,89.178,94.448,99.11,103.7912,106.581,110.206,113.384,117.009,122.189,126.332,129.439,134.619,138.245,142.906,146.4916,149.439,152.546,156.171,161.351,169.0202,171.889,176.5702,179.428,182.536,187.715,190.305,195.48420000000002,198.306,205.976,210.6572,213.5,218.679,221.269,225.93,229.038,233.7192,236.629,241.809,246.47,251.132,254.7176,257.606,260.713,265.893,270.57419999999996,273.422,281.093" svgx:width="0.31,0.26,0.52,0.52,0.55,0.52,0.47,0.47,0.36,0.31,0.47,0.52,0.47,0.47,0.55,0.36,0.31,0.36,0.52,0.42,0.31,0.52,0.36,0.47,0.36,0.55,0.31,0.36,0.52,0.77,0.55,0.47,0.55,0.31,0.52,0.26,0.52,0.55,0.77,0.47,0.55,0.52,0.26,0.47,0.31,0.47,0.55,0.52,0.47,0.47,0.36,0.55,0.31,0.52,0.47,0.55,0.77,0.47" style="fill:rgb(0,0,0);font-family:Advt93-r;font-size:9.96px;stroke:none;">tion near-edge structure) from a thin Ge plate near the Ge</text>
   <text y="377.234" x="288.625" svgx:width="0.73" style="fill:rgb(0,0,0);font-family:Advt93-i;font-size:9.96px;stroke:none;">K</text>
   <text y="389.196" x="44.844,49.506,54.685,58.311,63.49,67.116,72.295,75.403,78.122,83.301,88.4802,90.878,95.539,100.719,105.381,110.0622,112.477,116.102,120.764,125.4452,127.954,132.616,137.277,141.95819999999998,144.508,149.17,156.431,160.0166,162.423,169.057,171.646,174.754,179.9332,182.378,187.04,192.2192,194.623,199.285,203.428,207.572,212.752,216.377,221.039,225.182,229.86319999999998,232.21,237.389" svgx:width="0.47,0.52,0.36,0.52,0.36,0.52,0.31,0.26,0.52,0.52,0.55,0.47,0.52,0.47,0.47,0.55,0.36,0.47,0.47,0.55,0.47,0.47,0.47,0.55,0.47,0.73,0.36,0.55,0.67,0.26,0.31,0.52,0.55,0.47,0.52,0.55,0.47,0.42,0.42,0.52,0.36,0.47,0.42,0.47,0.55,0.52,0.31" style="fill:rgb(0,0,0);font-family:Advt93-r;font-size:9.96px;stroke:none;">absorption edge (11 103 eV) with an accuracy of</text>
   <text y="389.196" code="4" x="242.874" svgx:width="0.77" style="fill:rgb(0,0,0);font-family:AdvMT_SY;font-size:9.96px;stroke:none;">?</text>
   <text y="389.196" x="250.584,255.245,257.526,262.2072,264.757,269.418,275.415,277.7058,280.064,286.016,291.196" svgx:width="0.47,0.23,0.47,0.55,0.47,0.73,0.23,0.55,0.63,0.52,0.47" style="fill:rgb(0,0,0);font-family:Advt93-r;font-size:9.96px;stroke:none;">0.5 eV. The</text>
   <text y="401.159" x="44.844,50.024,52.613,56.239,59.346,64.007,69.187,73.331,78.0122,80.558,83.666,87.291,92.471,100.14020000000001,102.611,105.718,110.898,115.5792,118.031,121.657,126.836,132.016,135.641,139.914,144.59519999999998,147.001,150.108,155.2872,157.772,161.398,163.987,166.576,169.6636,172.172,176.8532,179.258,185.892,190.554,194.1396,196.663,201.324,206.0052,208.511,216.18019999999999,218.659,223.321,228.501,233.6802,236.177,239.284,244.464,249.125,252.2126,254.714,257.822,261.447,266.627,274.2962,276.824,280.449,283.038,285.628,288.7156,291.223" svgx:width="0.52,0.26,0.36,0.31,0.47,0.52,0.42,0.47,0.55,0.31,0.36,0.52,0.77,0.55,0.31,0.52,0.47,0.55,0.36,0.52,0.52,0.36,0.42,0.47,0.55,0.31,0.52,0.55,0.36,0.26,0.26,0.31,0.55,0.47,0.55,0.67,0.47,0.36,0.55,0.47,0.47,0.55,0.77,0.55,0.47,0.52,0.52,0.55,0.31,0.52,0.47,0.31,0.55,0.31,0.36,0.52,0.77,0.55,0.36,0.26,0.26,0.31,0.55,0.47" style="fill:rgb(0,0,0);font-family:Advt93-r;font-size:9.96px;stroke:none;">distance from the source to slit 1 was 30 m and that from slit 1</text>
   <text y="413.121" x="44.844,47.952,53.1312,57.089,60.197,65.376,70.05720000000001,74.04,77.665,82.327,89.997,95.177,97.766,102.44720000000001,106.467,113.102,117.763,121.3486,125.403,130.064,134.726,139.4072,141.9,149.57,157.321,159.6118,163.558,169.454,174.633,179.3142,183.287,187.948,192.61,196.326,199.433,202.023,206.166,210.828,213.4176,217.414,224.048,226.638,231.817,234.925,240.10420000000002,244.115,249.295,252.3826,256.36,259.986,262.575,265.164,268.2516,272.29,276.9712,280.907,287.542,292.203" svgx:width="0.31,0.52,0.55,0.31,0.52,0.47,0.55,0.36,0.47,0.77,0.52,0.26,0.47,0.55,0.67,0.47,0.36,0.55,0.47,0.47,0.47,0.55,0.77,0.77,0.23,0.55,0.63,0.52,0.47,0.55,0.47,0.47,0.36,0.31,0.26,0.42,0.47,0.26,0.55,0.67,0.26,0.52,0.31,0.52,0.55,0.52,0.31,0.55,0.36,0.26,0.26,0.31,0.55,0.47,0.55,0.67,0.47,0.36" style="fill:rgb(0,0,0);font-family:Advt93-r;font-size:9.96px;stroke:none;">to the sample was 300 mm. The vertical width of slit 1 was</text>
   <text y="425.083" x="44.844,49.506,51.786,56.448,61.1292,63.666,71.336,79.006,81.2968,83.339,86.965,92.1442,94.223,99.609,102.199,106.861,109.15180000000001,111.118,115.78" svgx:width="0.47,0.23,0.47,0.47,0.55,0.77,0.77,0.23,0.55,0.36,0.52,0.55,0.57,0.26,0.47,0.23,0.55,0.47,0.36" style="fill:rgb(0,0,0);font-family:Advt93-r;font-size:9.96px;stroke:none;">0.02 mm. In Fig. 3(</text>
   <text y="425.083" x="119.453" svgx:width="0.47" style="fill:rgb(0,0,0);font-family:Advt93-i;font-size:9.96px;stroke:none;">a</text>
   <text y="425.083" x="124.101,127.727" svgx:width="0.36,0.23" style="fill:rgb(0,0,0);font-family:Advt93-r;font-size:9.96px;stroke:none;">),</text>
   <text y="425.083" x="132.039" svgx:width="0.63" style="fill:rgb(0,0,0);font-family:Advt93-i;font-size:9.96px;stroke:none;">P</text>
   <text y="426.671" x="138.274" svgx:width="0.52" style="fill:rgb(0,0,0);font-family:Advt93-r;font-size:6.38px;stroke:none;">h</text>
   <text y="425.083" x="142.016" svgx:width="0.23" style="fill:rgb(0,0,0);font-family:Advt93-r;font-size:9.96px;stroke:none;">,</text>
   <text y="425.083" x="146.325" svgx:width="0.63" style="fill:rgb(0,0,0);font-family:Advt93-i;font-size:9.96px;stroke:none;">P</text>
   <text y="426.671" x="152.561" svgx:width="0.36" style="fill:rgb(0,0,0);font-family:Advt93-r;font-size:6.38px;stroke:none;">r</text>
   <text y="425.083" x="155.112" svgx:width="0.23" style="fill:rgb(0,0,0);font-family:Advt93-r;font-size:9.96px;stroke:none;">,</text>
   <text y="425.083" x="159.421" svgx:width="0.63" style="fill:rgb(0,0,0);font-family:Advt93-i;font-size:9.96px;stroke:none;">P</text>
   <text y="426.671" x="165.657" svgx:width="0.31" style="fill:rgb(0,0,0);font-family:Advt93-r;font-size:6.38px;stroke:none;">t</text>
   <text y="425.083" x="167.868" svgx:width="0.23" style="fill:rgb(0,0,0);font-family:Advt93-r;font-size:9.96px;stroke:none;">,</text>
   <text y="425.083" x="172.234" svgx:width="0.63" style="fill:rgb(0,0,0);font-family:Advt93-i;font-size:9.96px;stroke:none;">P</text>
   <text y="426.671" x="178.47,180.335" svgx:width="0.26,0.36" style="fill:rgb(0,0,0);font-family:Advt93-r;font-size:6.38px;stroke:none;">lr</text>
   <text y="425.083" x="184.933,189.594,194.853" svgx:width="0.47,0.52,0.52" style="fill:rgb(0,0,0);font-family:Advt93-r;font-size:9.96px;stroke:none;">and</text>
   <text y="425.083" x="202.053" svgx:width="0.63" style="fill:rgb(0,0,0);font-family:Advt93-i;font-size:9.96px;stroke:none;">P</text>
   <text y="426.671" x="208.29,210.155" svgx:width="0.26,0.31" style="fill:rgb(0,0,0);font-family:Advt93-r;font-size:6.38px;stroke:none;">lt</text>
   <text y="425.083" x="214.413,219.074,222.7,227.38119999999998,229.436,232.543,237.723,242.4042,244.458,247.048,252.227,255.335,259.996,265.176,268.801,271.499,274.607,277.196,281.857,285.4426,287.542,292.722" svgx:width="0.47,0.36,0.47,0.55,0.31,0.52,0.47,0.55,0.26,0.52,0.31,0.47,0.52,0.36,0.26,0.31,0.26,0.47,0.36,0.55,0.52,0.31" style="fill:rgb(0,0,0);font-family:Advt93-r;font-size:9.96px;stroke:none;">are the intensities of</text>
   <text y="437.045" x="44.844,47.951,53.131,57.812200000000004,64.573,69.753,72.342,75.449,78.557,82.182,86.844,90.987,94.094,98.756,103.9352,110.775,117.409,122.071,126.819,131.185,133.4758,140.199,143.306,148.486,153.16719999999998,159.928,163.553,168.215,173.394,178.056,182.2,185.307,190.087,195.2662,201.992,207.172,211.834,216.495,224.1642,230.962,235.623,240.285,244.429,249.09,254.375,257.4626,264.184,267.291,272.471,276.0566,282.892,285.999,291.178" svgx:width="0.31,0.52,0.47,0.55,0.52,0.26,0.31,0.31,0.36,0.47,0.42,0.31,0.47,0.52,0.55,0.67,0.47,0.47,0.47,0.23,0.55,0.31,0.52,0.47,0.55,0.36,0.47,0.52,0.47,0.42,0.31,0.47,0.52,0.55,0.52,0.47,0.47,0.77,0.55,0.47,0.47,0.42,0.47,0.52,0.31,0.55,0.31,0.52,0.36,0.55,0.31,0.52,0.47" style="fill:rgb(0,0,0);font-family:Advt93-r;font-size:9.96px;stroke:none;">the diffracted wave, the reﬂected beam except for the</text>
   <text y="449.008" x="44.844,50.023,52.613,55.72,58.827,62.453,67.114,71.258,74.365,79.027,84.2062,86.454,91.634,96.295,100.957,108.627,110.9178,113.099,116.207,121.386,126.0672,128.179,131.286,134.912,139.573,144.753,148.474,156.144,158.733,161.841,164.948,169.61,174.78920000000002,176.932,182.112,186.853,191.515,199.185,201.4758,203.577,206.685,211.864,216.5452,218.714,223.375,231.046,233.635,236.742,239.85,244.511,249.6902,251.878,257.057,261.719,266.38,276.255,279.363,282.988,288.168" svgx:width="0.52,0.26,0.31,0.31,0.36,0.47,0.42,0.31,0.47,0.52,0.55,0.52,0.47,0.47,0.77,0.23,0.55,0.31,0.52,0.47,0.55,0.31,0.36,0.47,0.52,0.36,0.77,0.26,0.31,0.31,0.47,0.52,0.55,0.52,0.47,0.47,0.77,0.23,0.55,0.31,0.52,0.47,0.55,0.47,0.77,0.26,0.31,0.31,0.47,0.52,0.55,0.52,0.47,0.47,0.77,0.31,0.36,0.52,0.77" style="fill:rgb(0,0,0);font-family:Advt93-r;font-size:9.96px;stroke:none;">diffracted beam, the transmitted beam, the emitted beamfrom</text>
   <text y="460.913" x="44.844,47.951,53.131,57.812200000000004,60.433,63.023,67.684,70.792,75.453,79.079,83.846,86.43560000000001,89.004,92.63,97.809,101.534,104.641,109.302,113.446,118.1272,120.752,123.341,128.5202,131.126,134.301,139.48,144.16119999999998,146.773,151.953,154.542,157.649,160.757,164.382,169.044,173.187,176.295,180.956,186.285,189.393,196.027,200.688,205.35,210.03119999999998,212.703,217.883,220.472,224.098,228.759,232.903,236.01,238.599,243.779,248.9582,251.705,256.367,261.546,266.7252,269.336,272.444,277.623,282.375,285.4626,288.101,290.691" svgx:width="0.31,0.52,0.47,0.55,0.26,0.47,0.31,0.47,0.36,0.47,0.26,0.55,0.36,0.52,0.36,0.31,0.47,0.42,0.47,0.55,0.26,0.52,0.55,0.31,0.52,0.47,0.55,0.52,0.26,0.31,0.31,0.36,0.47,0.42,0.31,0.47,0.52,0.31,0.67,0.47,0.47,0.47,0.55,0.52,0.26,0.36,0.47,0.42,0.31,0.26,0.52,0.52,0.55,0.47,0.52,0.52,0.55,0.31,0.52,0.47,0.31,0.55,0.26,0.52" style="fill:rgb(0,0,0);font-family:Advt93-r;font-size:9.96px;stroke:none;">the lateral surface in the diffracted-wave direction and that in</text>
   <text y="472.875" x="44.844,47.951,53.131,57.812200000000004,60.547,63.654,67.28,71.941,77.214,80.839,88.509,91.099,94.206,97.313,101.975,107.154,110.377,117.012,121.673,126.335,131.0162,133.792,138.971,141.561,145.186,149.848,153.991,157.098,159.688,164.867,170.187,172.4778,175.176,178.801,183.463,187.088,192.268,196.929,201.196,204.304,206.893,211.555,216.216,218.805,222.681,224.9718,227.727,235.507,239.0926,241.901,245.526,250.706,255.886,262.52,267.69919999999996,270.474,273.063,278.24219999999997,281.018,286.404,288.995,293.656" svgx:width="0.31,0.52,0.47,0.55,0.31,0.36,0.47,0.52,0.36,0.77,0.26,0.31,0.31,0.47,0.52,0.31,0.67,0.47,0.47,0.47,0.55,0.52,0.26,0.36,0.47,0.42,0.31,0.26,0.52,0.52,0.23,0.55,0.36,0.47,0.36,0.52,0.47,0.42,0.31,0.26,0.47,0.47,0.26,0.47,0.23,0.55,0.78,0.36,0.55,0.36,0.52,0.52,0.67,0.52,0.55,0.26,0.52,0.55,0.57,0.26,0.47,0.23" style="fill:rgb(0,0,0);font-family:Advt93-r;font-size:9.96px;stroke:none;">the transmitted-wave direction, respectively. As shown in Fig.</text>
   <text y="484.837" x="44.844,49.505" svgx:width="0.47,0.36" style="fill:rgb(0,0,0);font-family:Advt93-r;font-size:9.96px;stroke:none;">3(</text>
   <text y="484.837" x="53.178" svgx:width="0.52" style="fill:rgb(0,0,0);font-family:Advt93-i;font-size:9.96px;stroke:none;">b</text>
   <text y="484.837" x="58.336,61.962,64.25280000000001,66.896,70.004,75.183,79.86420000000001,82.486,89.748,92.855,96.48,101.142,105.899,109.4846,112.136,118.77,123.432,127.057,131.7382,134.36,136.949,142.129,146.272,148.861,154.145,158.806,163.986,167.0736,169.735,174.915,180.0942,182.718,185.825,191.005,195.68619999999999,198.364,202.508,206.133,210.794,214.42,217.527,222.189,224.77859999999998,227.446,234.08,236.67,239.777,244.9562,247.628,250.735,255.915,260.5962,263.217,267.879,272.022,274.612,282.379,287.558,290.665" svgx:width="0.36,0.23,0.55,0.31,0.52,0.47,0.55,0.73,0.31,0.36,0.47,0.47,0.36,0.55,0.67,0.47,0.36,0.47,0.55,0.26,0.52,0.42,0.26,0.52,0.47,0.52,0.31,0.55,0.52,0.52,0.55,0.31,0.52,0.47,0.55,0.42,0.36,0.47,0.36,0.31,0.47,0.26,0.55,0.67,0.26,0.31,0.52,0.55,0.31,0.52,0.47,0.55,0.47,0.42,0.26,0.77,0.52,0.31,0.52" style="fill:rgb(0,0,0);font-family:Advt93-r;font-size:9.96px;stroke:none;">), the X-rays were incident on the crystal with the azimuth</text>
   <text y="78.347" x="313.796,318.975,323.717,327.342,332.522,337.183,342.363,347.542,350.132,354.275,359.455,362.044,366.858,370.4436,373.264,376.372,381.5512,384.319,387.426,392.606,397.2872,400.079,405.258,409.92,415.099,420.375,422.964,428.144,432.8252,435.568,440.747,443.337,446.962,451.624,455.863,458.97,461.56,466.739,471.919,474.2098,477.008,482.96,488.14,492.8212,495.546,498.137,503.316,507.46,510.049,515.332,519.994,525.173,528.2606,531.092,535.754,538.343,543.005,548.184,552.328,554.917,560.097" svgx:width="0.52,0.47,0.36,0.52,0.47,0.52,0.52,0.26,0.42,0.52,0.26,0.47,0.36,0.55,0.31,0.52,0.55,0.31,0.52,0.47,0.55,0.52,0.47,0.52,0.52,0.26,0.52,0.47,0.55,0.52,0.26,0.36,0.47,0.42,0.31,0.26,0.52,0.52,0.23,0.55,0.63,0.52,0.47,0.55,0.26,0.52,0.42,0.26,0.52,0.47,0.52,0.31,0.55,0.47,0.26,0.47,0.52,0.42,0.26,0.52,0.47" style="fill:rgb(0,0,0);font-family:Advt93-r;font-size:9.96px;stroke:none;">perpendicular to the bending direction. The incident glancing</text>
   <text y="90.31" x="313.796,318.457,323.717,328.378,330.968,335.6492,338.683,345.317,349.978,353.5636,356.654,361.834,366.496,371.157,376.33619999999996,379.388,384.05,387.1376,390.217,393.324,398.504,403.1852,406.204,410.865,416.045,420.707,423.296,427.9772,431.035,437.669,442.849,447.51,451.136,455.8172,458.871,461.978,467.158,471.8392,474.858,478.483,483.663,487.897,493.077,495.666,500.846,505.5272,508.533,512.676,517.856,521.572,526.234,530.9152,533.931,539.11" svgx:width="0.47,0.52,0.47,0.26,0.47,0.55,0.67,0.47,0.36,0.55,0.52,0.47,0.47,0.52,0.55,0.47,0.31,0.55,0.31,0.52,0.47,0.55,0.47,0.52,0.47,0.26,0.47,0.55,0.67,0.52,0.47,0.36,0.47,0.55,0.31,0.52,0.47,0.55,0.36,0.52,0.42,0.52,0.26,0.52,0.47,0.55,0.42,0.52,0.36,0.47,0.47,0.55,0.52,0.31" style="fill:rgb(0,0,0);font-family:Advt93-r;font-size:9.96px;stroke:none;">angle was ﬁxed at the angle where the rocking curve of</text>
   <text y="90.31" x="545.217" svgx:width="0.63" style="fill:rgb(0,0,0);font-family:Advt93-i;font-size:9.96px;stroke:none;">P</text>
   <text y="91.898" x="551.453" svgx:width="0.36" style="fill:rgb(0,0,0);font-family:Advt93-r;font-size:6.38px;stroke:none;">r</text>
   <text y="90.311" x="557.065,559.656" svgx:width="0.26,0.52" style="fill:rgb(0,0,0);font-family:Advt93-r;font-size:9.96px;stroke:none;">in</text>
   <text y="102.273" x="313.795,319.238,321.828,326.382,328.6728,330.805,335.466" svgx:width="0.57,0.26,0.47,0.23,0.55,0.47,0.36" style="fill:rgb(0,0,0);font-family:Advt93-r;font-size:9.96px;stroke:none;">Fig. 3(</text>
   <text y="102.273" x="339.081" svgx:width="0.42" style="fill:rgb(0,0,0);font-family:Advt93-i;font-size:9.96px;stroke:none;">e</text>
   <text y="102.273" x="343.276,346.8616,349.002,352.628,357.807,362.987,369.621,374.283,379.4622,381.657,384.764,389.944,394.6252,396.737,401.916,406.578,411.239,416.41819999999996,418.563,423.225,428.404,433.5832,435.741,438.848,444.028,448.7092,450.82,455.482,460.661,465.841,473.511,478.173,480.762,485.942,491.121,494.7066,496.967,500.075,503.7,508.362,513.634,517.259,524.93,527.519,531.144,534.77,537.359,542.539,547.7182,549.916,556.55,561.212" svgx:width="0.36,0.55,0.36,0.52,0.52,0.67,0.47,0.52,0.55,0.31,0.52,0.47,0.55,0.52,0.47,0.47,0.52,0.55,0.47,0.52,0.52,0.55,0.31,0.52,0.47,0.55,0.47,0.52,0.52,0.77,0.47,0.26,0.52,0.52,0.36,0.55,0.31,0.36,0.47,0.52,0.36,0.77,0.26,0.36,0.36,0.26,0.52,0.52,0.55,0.67,0.47,0.36" style="fill:rgb(0,0,0);font-family:Advt93-r;font-size:9.96px;stroke:none;">) showed the peak and the anomalous transmission was</text>
   <text y="114.235" x="313.795,321.466,326.212,330.873,333.463,341.133,343.722,347.866,352.63,357.809,360.0998,366.179,372.075,377.255,381.9362,388.062,395.324,398.431,402.057,406.718,411.3992,417.542,420.131,425.311,428.418,433.08,438.259,441.885,444.583,447.69,450.279,454.941,458.5266,464.707,471.341,476.003,479.628,484.3092,490.446,498.116,502.778,507.439,511.065,516.244,519.982,524.644,529.8232,535.913,541.092,545.7732,551.9,555.007,560.187" svgx:width="0.77,0.47,0.47,0.26,0.77,0.26,0.42,0.47,0.52,0.23,0.55,0.63,0.52,0.47,0.55,0.73,0.31,0.36,0.47,0.47,0.55,0.26,0.52,0.31,0.47,0.52,0.36,0.26,0.31,0.26,0.47,0.36,0.55,0.67,0.47,0.36,0.47,0.55,0.77,0.47,0.47,0.36,0.52,0.36,0.47,0.52,0.55,0.52,0.47,0.55,0.31,0.52,0.47" style="fill:rgb(0,0,0);font-family:Advt93-r;font-size:9.96px;stroke:none;">maximized. The X-ray intensities were measured by the</text>
   <text y="126.198" x="313.795,317.421,321.564,324.153,329.442,332.549,335.138,337.728,340.317,344.978,348.086,350.675,355.855,361.0342,366.969,371.113,376.38,381.559,386.739,389.846,394.508,398.133,401.7186,407.674,411.299,416.479,423.207,427.8882,433.752,438.414,443.593,448.7722,454.672,459.851,466.485,471.147,474.7326,480.75,485.412,490.591,495.7702,501.67,505.295,509.957,514.1,519.28,522.905,528.2,532.862,538.0412,543.905,549.084,554.2632,560.176" svgx:width="0.36,0.42,0.26,0.52,0.31,0.26,0.26,0.26,0.47,0.31,0.26,0.52,0.52,0.55,0.42,0.52,0.52,0.52,0.31,0.47,0.36,0.36,0.55,0.36,0.52,0.67,0.47,0.55,0.47,0.52,0.52,0.55,0.52,0.67,0.47,0.36,0.55,0.47,0.52,0.52,0.55,0.36,0.47,0.42,0.52,0.36,0.52,0.47,0.52,0.55,0.52,0.52,0.55,0.47" style="fill:rgb(0,0,0);font-family:Advt93-r;font-size:9.96px;stroke:none;">scintillation counters (SC1 and SC2) and recorded on a</text>
   <text y="138.16" x="313.795,318.975,324.154,328.298,330.887,335.678,340.34,343.9256,347.244,352.424,355.013,359.674,362.782,367.4632,370.77,374.395,378.021,384.246,389.944,397.614,404.876,412.54519999999997,415.898,422.124,426.785,429.0758,432.338,437.0,444.67,449.85,452.439,456.065,458.756,463.936,469.11519999999996,472.419,475.527,480.706,483.296,487.439,492.619,497.798,502.46,506.207,509.325,511.6158,514.824,519.486" svgx:width="0.52,0.52,0.42,0.26,0.47,0.47,0.36,0.55,0.52,0.26,0.47,0.31,0.47,0.55,0.36,0.36,0.63,0.57,0.77,0.73,0.77,0.55,0.63,0.47,0.23,0.55,0.47,0.77,0.52,0.26,0.36,0.26,0.52,0.52,0.55,0.31,0.52,0.26,0.42,0.52,0.52,0.47,0.36,0.36,0.23,0.55,0.47,0.47" style="fill:rgb(0,0,0);font-family:Advt93-r;font-size:9.96px;stroke:none;">nuclear plate (ILFORD L4; emulsion thickness, 25</text>
   <text y="138.16" x="526.678" svgx:width="0.55" style="fill:rgb(0,0,0);font-family:AdvPi1;font-size:9.96px;stroke:none;">m</text>
   <text y="138.16" x="532.234,539.905,543.53,545.8208,549.072,555.025,560.205" svgx:width="0.77,0.36,0.23,0.55,0.63,0.52,0.47" style="fill:rgb(0,0,0);font-family:Advt93-r;font-size:9.96px;stroke:none;">m). The</text>
   <text y="150.122" x="313.795,316.385,321.564,325.708,328.297,333.58,338.242,343.421,346.5086,350.531,355.192,360.452,365.6312,369.636,373.262,377.923,383.103,387.764,391.908,395.015,399.795,404.9742,408.98,416.242,419.349,422.974,427.636,432.3172,436.362,441.024,445.686,450.865,458.535,463.197,466.304,469.93,472.645,477.306,480.8916,484.947,491.581,494.17,497.277,502.45619999999997,506.489,510.114,514.776,518.401,523.581,528.242,532.386,535.4735999999999,539.596,542.703,547.8822,551.898,555.005,560.185" svgx:width="0.26,0.52,0.42,0.26,0.52,0.47,0.52,0.31,0.55,0.47,0.52,0.52,0.55,0.36,0.47,0.52,0.47,0.42,0.31,0.47,0.52,0.55,0.73,0.31,0.36,0.47,0.47,0.55,0.47,0.47,0.52,0.77,0.47,0.31,0.36,0.26,0.47,0.36,0.55,0.67,0.26,0.31,0.52,0.55,0.36,0.47,0.36,0.52,0.47,0.42,0.31,0.55,0.31,0.52,0.55,0.31,0.52,0.47" style="fill:rgb(0,0,0);font-family:Advt93-r;font-size:9.96px;stroke:none;">incident and reﬂected X-ray geometries with respect to the</text>
   <text y="162.084" x="313.795,317.421,322.082,329.839,335.019,337.608,342.2892,344.636,349.297,352.923,357.6042,359.886,363.511,368.691,373.87,380.505,385.6842,388.118,391.225,396.405,399.9906,402.348,407.527,412.707,416.332,419.015,422.123,424.712,429.374,434.0552,436.362,441.024,446.283,451.4622,453.766,458.946,463.607,468.269,472.931,476.038,478.627,483.415,488.0962,490.388,495.05,499.711,502.301,507.48,512.142,515.7276,518.167,523.347" svgx:width="0.36,0.47,0.77,0.52,0.26,0.47,0.55,0.47,0.36,0.47,0.55,0.36,0.52,0.52,0.67,0.52,0.55,0.31,0.52,0.36,0.55,0.52,0.52,0.36,0.26,0.31,0.26,0.47,0.47,0.55,0.47,0.52,0.52,0.55,0.52,0.47,0.47,0.47,0.31,0.26,0.47,0.47,0.55,0.47,0.47,0.26,0.52,0.47,0.36,0.55,0.52,0.31" style="fill:rgb(0,0,0);font-family:Advt93-r;font-size:9.96px;stroke:none;">sample are shown for positive and negative values of</text>
   <text y="162.084" code="2" x="528.776" svgx:width="0.56" style="fill:rgb(0,0,0);font-family:AdvMT_MI;font-size:9.96px;stroke:none;">?</text>
   <text y="162.084" x="536.714,539.303,544.4822,546.805,552.191,554.781,559.443,562.623" svgx:width="0.26,0.52,0.55,0.57,0.26,0.47,0.36,0.23" style="fill:rgb(0,0,0);font-family:Advt93-r;font-size:9.96px;stroke:none;">in Figs.</text>
   <text y="173.99" x="313.796,318.458" svgx:width="0.47,0.36" style="fill:rgb(0,0,0);font-family:Advt93-r;font-size:9.96px;stroke:none;">3(</text>
   <text y="173.99" x="322.13" svgx:width="0.42" style="fill:rgb(0,0,0);font-family:Advt93-i;font-size:9.96px;stroke:none;">c</text>
   <text y="173.99" x="326.325,329.9106,334.773,339.434,344.694,349.8732,354.728,359.389" svgx:width="0.36,0.55,0.47,0.52,0.52,0.55,0.47,0.36" style="fill:rgb(0,0,0);font-family:Advt93-r;font-size:9.96px;stroke:none;">) and 3(</text>
   <text y="173.99" x="363.006" svgx:width="0.52" style="fill:rgb(0,0,0);font-family:Advt93-i;font-size:9.96px;stroke:none;">d</text>
   <text y="173.99" x="368.221,371.847,374.13779999999997,378.993,382.619,387.28,390.906,396.085,400.747,405.014,408.121,410.71,415.372,420.033,422.623,426.498,428.7888,433.642,438.857,444.037,447.6226,452.52,457.699,462.879,466.504,471.166,474.913,479.575,484.236,487.343,489.933,495.112,500.2912,505.186,510.365,513.4526,518.395,522.021,527.718,534.98,540.959,543.2497999999999,548.045,550.635,553.7225999999999,558.648,561.238" svgx:width="0.36,0.23,0.55,0.36,0.47,0.36,0.52,0.47,0.42,0.31,0.26,0.47,0.47,0.26,0.47,0.23,0.55,0.57,0.52,0.36,0.55,0.52,0.52,0.36,0.47,0.36,0.47,0.47,0.31,0.26,0.52,0.52,0.55,0.52,0.31,0.55,0.36,0.57,0.73,0.67,0.23,0.55,0.26,0.31,0.55,0.26,0.36" style="fill:rgb(0,0,0);font-family:Advt93-r;font-size:9.96px;stroke:none;">), respectively. For observation of IFRB, it is</text>
   <text y="185.952" x="313.796,316.385,324.056,329.33,334.51,338.135,341.242,345.904,351.084,354.1716,358.753,361.86,367.0392,371.622,379.292,383.953,389.133,393.81419999999997,398.38,401.488,406.667,411.34819999999996,415.841,420.503,425.164,427.754,432.933,437.6142,442.202,447.382,450.4696,455.015" svgx:width="0.26,0.77,0.52,0.52,0.36,0.31,0.47,0.52,0.31,0.55,0.31,0.52,0.55,0.77,0.47,0.52,0.47,0.55,0.31,0.52,0.47,0.55,0.47,0.47,0.26,0.52,0.47,0.55,0.52,0.31,0.55,0.21" style="fill:rgb(0,0,0);font-family:Advt93-r;font-size:9.96px;stroke:none;">important to make the value of |</text>
   <text y="185.952" code="2" x="457.117" svgx:width="0.56" style="fill:rgb(0,0,0);font-family:AdvMT_MI;font-size:9.96px;stroke:none;">?</text>
   <text y="185.952" x="462.73,464.82160000000005,469.306,472.931,480.602,485.263,487.853,490.442,492.7328,497.311,500.937" svgx:width="0.21,0.55,0.36,0.77,0.47,0.26,0.26,0.23,0.55,0.36,0.31" style="fill:rgb(0,0,0);font-family:Advt93-r;font-size:9.96px;stroke:none;">| small. If</text>
   <text y="185.952" x="508.538" svgx:width="0.26" style="fill:rgb(0,0,0);font-family:Advt93-i;font-size:9.96px;stroke:none;">l</text>
   <text y="185.952" x="515.681,520.861,525.523,530.702,535.882,538.989,543.651,547.2366,551.907,555.014,560.194" svgx:width="0.52,0.47,0.52,0.52,0.31,0.47,0.36,0.55,0.31,0.52,0.47" style="fill:rgb(0,0,0);font-family:Advt93-r;font-size:9.96px;stroke:none;">denotes the</text>
   <text y="197.914" x="313.797,318.977,321.566,325.192,328.299,333.071,338.251,342.394,347.0752,350.306,353.413,357.108,362.288,369.9572,373.209,376.316,381.496,386.17719999999997,389.422,392.529,396.155,400.816,405.49719999999996,408.754,413.415,418.675,423.336,428.0172,431.26,434.368,439.5472,442.768,445.876,451.055,455.7362,458.982,461.571,466.751,470.894,473.483,478.767,483.428,488.608,491.6956,494.981,500.16,502.75,507.411,512.591,517.2722,520.548,525.21,530.469" svgx:width="0.52,0.26,0.36,0.31,0.47,0.52,0.42,0.47,0.55,0.31,0.36,0.52,0.77,0.55,0.31,0.52,0.47,0.55,0.31,0.36,0.47,0.47,0.55,0.47,0.52,0.47,0.47,0.55,0.31,0.52,0.55,0.31,0.52,0.47,0.55,0.26,0.52,0.42,0.26,0.52,0.47,0.52,0.31,0.55,0.52,0.26,0.47,0.52,0.47,0.55,0.47,0.52,0.52" style="fill:rgb(0,0,0);font-family:Advt93-r;font-size:9.96px;stroke:none;">distance from the free edge to the incident plane and</text>
   <text y="197.914" x="538.87" svgx:width="0.67" style="fill:rgb(0,0,0);font-family:Advt93-i;font-size:9.96px;stroke:none;">L</text>
   <text y="197.914" x="548.791,551.899,557.078,561.74" svgx:width="0.31,0.52,0.47,0.31" style="fill:rgb(0,0,0);font-family:Advt93-r;font-size:9.96px;stroke:none;">that</text>
   <text y="209.876" x="313.798,316.973,320.599,325.778,333.4472,337.552,340.66,345.839,350.5202,354.673,357.781,361.406,366.068,370.7492,374.855,379.516,384.696,389.357,394.0382,398.155,401.263,406.44219999999996,410.571,413.678,418.858,423.5392,427.692,432.871,437.533,442.195,447.3742,451.503,456.164,461.344,466.005,470.438,472.7288,476.787" svgx:width="0.31,0.36,0.52,0.77,0.55,0.31,0.52,0.47,0.55,0.31,0.36,0.47,0.47,0.55,0.47,0.52,0.47,0.47,0.55,0.31,0.52,0.55,0.31,0.52,0.47,0.55,0.52,0.47,0.47,0.52,0.55,0.47,0.52,0.47,0.47,0.23,0.55,0.21" style="fill:rgb(0,0,0);font-family:Advt93-r;font-size:9.96px;stroke:none;">from the free edge to the ﬁxed edge, |</text>
   <text y="209.876" code="2" x="478.889" svgx:width="0.56" style="fill:rgb(0,0,0);font-family:AdvMT_MI;font-size:9.96px;stroke:none;">?</text>
   <text y="209.876" x="484.502,486.59360000000004,490.682,493.272,496.8576,501.0,506.18,509.805,514.985,520.165,525.344,528.97,532.077,534.788,539.967,545.147,549.809,552.3986,556.557,559.665" svgx:width="0.21,0.55,0.26,0.36,0.55,0.52,0.36,0.52,0.52,0.52,0.36,0.31,0.26,0.52,0.52,0.47,0.26,0.55,0.31,0.52" style="fill:rgb(0,0,0);font-family:Advt93-r;font-size:9.96px;stroke:none;">| is proportional to</text>
   <text y="221.839" x="313.799" svgx:width="0.26" style="fill:rgb(0,0,0);font-family:Advt93-i;font-size:9.96px;stroke:none;">l</text>
   <text y="218.267" x="316.63" svgx:width="0.47" style="fill:rgb(0,0,0);font-family:Advt93-r;font-size:6.58px;stroke:none;">2</text>
   <text y="221.839" x="320.202" svgx:width="0.47" style="fill:rgb(0,0,0);font-family:AdvMT_MI;font-size:9.96px;stroke:none;">=</text>
   <text y="221.839" x="324.907" svgx:width="0.67" style="fill:rgb(0,0,0);font-family:Advt93-i;font-size:9.96px;stroke:none;">L</text>
   <text y="218.267" x="331.541" svgx:width="0.47" style="fill:rgb(0,0,0);font-family:Advt93-r;font-size:6.58px;stroke:none;">4</text>
   <text y="221.839" x="337.437,341.062,344.806,349.986,355.165,359.827,363.452,368.632,373.946,377.571,384.206,388.867" svgx:width="0.36,0.42,0.52,0.52,0.47,0.36,0.52,0.52,0.36,0.67,0.47,0.31" style="fill:rgb(0,0,0);font-family:Advt93-r;font-size:9.96px;stroke:none;">(Jongsukswat</text>
   <text y="221.839" x="394.357,398.5,401.0896,403.371,408.032,410.622" svgx:width="0.42,0.26,0.55,0.47,0.26,0.23" style="fill:rgb(0,0,0);font-family:Advt93-i;font-size:9.96px;stroke:none;">et al.</text>
   <text y="221.839" x="412.952,415.2428,417.544,422.205,426.867,431.528,436.19,439.937,442.2278,444.529,448.154,453.3332,455.64,458.748,463.927,468.6082,470.947,476.126,479.752,484.496,488.122,492.783,497.963,501.05060000000003,503.431,508.093,512.754,517.934,522.596,526.221,528.81,536.595,541.257,546.436,549.5236,551.902,555.009,560.189" svgx:width="0.23,0.55,0.47,0.47,0.47,0.47,0.36,0.23,0.55,0.36,0.52,0.55,0.31,0.52,0.47,0.55,0.52,0.36,0.47,0.36,0.47,0.52,0.31,0.55,0.47,0.47,0.52,0.47,0.36,0.26,0.77,0.47,0.52,0.31,0.55,0.31,0.52,0.47" style="fill:rgb(0,0,0);font-family:Advt93-r;font-size:9.96px;stroke:none;">, 2013). In the present experiment the</text>
   <text y="233.801" x="313.795,318.975,321.564,325.19,328.297,333.069,338.249,342.392" svgx:width="0.52,0.26,0.36,0.31,0.47,0.52,0.42,0.47" style="fill:rgb(0,0,0);font-family:Advt93-r;font-size:9.96px;stroke:none;">distance</text>
   <text y="233.801" x="350.078" svgx:width="0.26" style="fill:rgb(0,0,0);font-family:Advt93-i;font-size:9.96px;stroke:none;">l</text>
   <text y="233.801" x="355.691,362.326,366.987,370.5726,373.606,378.786,383.527,386.635,393.269,397.93,402.592,407.77119999999996,410.853,415.514,417.795,422.456,427.1372,430.128,434.789,440.049,445.22819999999996,448.212,452.8932,455.412,463.082,470.753,473.0438,476.049,480.71,485.89" svgx:width="0.67,0.47,0.36,0.55,0.52,0.47,0.31,0.67,0.47,0.47,0.52,0.55,0.47,0.23,0.47,0.47,0.55,0.47,0.52,0.52,0.55,0.47,0.55,0.77,0.77,0.23,0.55,0.47,0.52,0.52" style="fill:rgb(0,0,0);font-family:Advt93-r;font-size:9.96px;stroke:none;">was between 3.25 and 4 mm, and</text>
   <text y="233.801" x="494.136" svgx:width="0.67" style="fill:rgb(0,0,0);font-family:Advt93-i;font-size:9.96px;stroke:none;">L</text>
   <text y="233.801" x="503.774,510.408,515.07,518.6556,521.746,526.407,531.0882,533.594,541.265,548.935" svgx:width="0.67,0.47,0.36,0.55,0.47,0.47,0.55,0.77,0.77,0.23" style="fill:rgb(0,0,0);font-family:Advt93-r;font-size:9.96px;stroke:none;">was 48 mm.</text>
   <text y="245.763" x="323.83,329.215,331.806,336.36,338.6508,341.462,346.1432,348.946,352.571,357.751,362.93,369.564,373.1496,376.101,379.208,384.388,389.06919999999997,391.861,395.486,400.148,404.39,407.497,410.087,415.266,420.4452,423.267,426.375,431.554,436.817,441.996,446.658,450.283,454.945,460.124,465.304,468.8896,471.852,477.032,480.1196,482.964,488.143,490.733,494.358,499.02,503.681,508.343,511.9286,514.88,522.551,527.212,531.874,535.499,540.679,544.417,549.078,554.2572,557.059,559.649" svgx:width="0.57,0.26,0.47,0.23,0.55,0.47,0.55,0.36,0.52,0.52,0.67,0.36,0.55,0.31,0.52,0.47,0.55,0.36,0.47,0.42,0.31,0.26,0.52,0.52,0.55,0.31,0.52,0.52,0.52,0.47,0.36,0.47,0.52,0.52,0.36,0.55,0.52,0.31,0.55,0.52,0.26,0.36,0.47,0.47,0.47,0.36,0.55,0.77,0.47,0.47,0.36,0.52,0.36,0.47,0.52,0.55,0.26,0.52" style="fill:rgb(0,0,0);font-family:Advt93-r;font-size:9.96px;stroke:none;">Fig. 4 shows the section topographs of Si(220) measured in</text>
   <text y="257.725" x="313.795,316.97,322.15,326.83119999999997,330.974,336.154,338.743,341.85,344.958,348.583,353.245,357.388,360.495,365.157,370.33619999999996,374.568,379.747,382.337,385.962,390.724,394.868,397.975,400.564,405.744,410.9232,415.101,420.28,425.46,430.64,435.397,438.9826,443.164,448.343,453.523,456.112,460.7932,464.99,468.097,473.277,477.9582,482.111,486.773,490.398,495.06,499.721,502.31,505.418,510.0992,514.31,517.418,522.597,526.223,530.366,534.776,537.0668,541.182,546.624,549.214,553.768,556.0588,560.174" svgx:width="0.31,0.52,0.47,0.55,0.52,0.26,0.31,0.31,0.36,0.47,0.42,0.31,0.47,0.52,0.55,0.52,0.26,0.36,0.47,0.42,0.31,0.26,0.52,0.52,0.55,0.52,0.52,0.52,0.47,0.36,0.55,0.52,0.52,0.26,0.47,0.55,0.31,0.52,0.47,0.55,0.47,0.36,0.47,0.47,0.26,0.31,0.47,0.55,0.31,0.52,0.36,0.42,0.47,0.23,0.55,0.57,0.26,0.47,0.23,0.55,0.47" style="fill:rgb(0,0,0);font-family:Advt93-r;font-size:9.96px;stroke:none;">the diffracted direction under only the gravity force. Fig. 5</text>
   <text y="269.631" x="313.795,317.421,322.6,327.78,334.414,337.9996,340.951,344.058,349.237,354.5,358.125,362.8062,365.611,373.281,377.943,382.605,386.23,391.519,395.145,399.806,404.98519999999996,407.846,410.435,415.6142,418.447,421.555,426.734,431.41519999999997,434.264,437.372,440.997,445.659,450.838,454.559,462.229,464.819,467.926,471.033,475.695,480.977,484.085,490.719,495.38,500.042,504.72319999999996,507.566,512.745,515.335,518.96,523.622,527.861,530.968,533.557,538.737,543.917,546.2078,549.062,555.015,560.195" svgx:width="0.36,0.52,0.52,0.67,0.36,0.55,0.31,0.52,0.52,0.36,0.47,0.55,0.77,0.47,0.47,0.36,0.52,0.36,0.47,0.52,0.55,0.26,0.52,0.55,0.31,0.52,0.47,0.55,0.31,0.36,0.47,0.52,0.36,0.77,0.26,0.31,0.31,0.47,0.52,0.31,0.67,0.47,0.47,0.47,0.55,0.52,0.26,0.36,0.47,0.42,0.31,0.26,0.52,0.52,0.23,0.55,0.63,0.52,0.47" style="fill:rgb(0,0,0);font-family:Advt93-r;font-size:9.96px;stroke:none;">shows those measured in the transmitted-wave direction. The</text>
   <text y="281.593" x="313.795,317.421,320.598,324.223,328.885,331.474,336.65319999999997,340.893,345.554,349.18,353.841,359.021,361.61,366.272,371.451,374.53860000000003,378.876,385.51,390.171,393.7566,398.038,403.217,407.879,412.541,417.202,420.309,422.899,427.56,432.2412,436.531,439.12,444.2992,448.493,453.879,456.469,461.131,463.42179999999996,467.543,472.204" svgx:width="0.36,0.31,0.36,0.47,0.26,0.52,0.55,0.47,0.36,0.47,0.52,0.26,0.47,0.52,0.31,0.55,0.67,0.47,0.36,0.55,0.52,0.47,0.47,0.47,0.31,0.26,0.47,0.47,0.55,0.26,0.52,0.55,0.57,0.26,0.47,0.23,0.55,0.47,0.36" style="fill:rgb(0,0,0);font-family:Advt93-r;font-size:9.96px;stroke:none;">strain gradient was negative in Fig. 4(</text>
   <text y="281.593" x="475.881" svgx:width="0.47" style="fill:rgb(0,0,0);font-family:Advt93-i;font-size:9.96px;stroke:none;">a</text>
   <text y="281.593" x="480.53,484.1156,488.354,493.015,498.275,503.45419999999996,507.629,513.071,515.661,520.215,522.5058,526.678,531.34" svgx:width="0.36,0.55,0.47,0.52,0.52,0.55,0.57,0.26,0.47,0.23,0.55,0.47,0.36" style="fill:rgb(0,0,0);font-family:Advt93-r;font-size:9.96px;stroke:none;">) and Fig. 5(</text>
   <text y="281.593" x="535.012" svgx:width="0.47" style="fill:rgb(0,0,0);font-family:Advt93-i;font-size:9.96px;stroke:none;">a</text>
   <text y="281.593" x="539.717,543.343,545.6338,549.809,554.47,559.65" svgx:width="0.36,0.23,0.55,0.47,0.52,0.52" style="fill:rgb(0,0,0);font-family:Advt93-r;font-size:9.96px;stroke:none;">), and</text>
   <text y="293.555" x="313.795,318.975,324.154,327.78,330.463,333.57,336.159,340.821,345.5022,350.248,352.837,358.01619999999997,362.833,368.218,370.809,375.363,377.6538,382.392,387.054" svgx:width="0.52,0.52,0.36,0.26,0.31,0.26,0.47,0.47,0.55,0.26,0.52,0.55,0.57,0.26,0.47,0.23,0.55,0.47,0.36" style="fill:rgb(0,0,0);font-family:Advt93-r;font-size:9.96px;stroke:none;">positive in Fig. 4(</text>
   <text y="293.555" x="390.728" svgx:width="0.52" style="fill:rgb(0,0,0);font-family:Advt93-i;font-size:9.96px;stroke:none;">b</text>
   <text y="293.555" x="395.944,399.5296,404.277,408.939,414.198,419.37719999999996,424.119,429.505,432.095,436.757,439.0478,443.736,448.397" svgx:width="0.36,0.55,0.47,0.52,0.52,0.55,0.57,0.26,0.47,0.23,0.55,0.47,0.36" style="fill:rgb(0,0,0);font-family:Advt93-r;font-size:9.96px;stroke:none;">) and Fig. 5(</text>
   <text y="293.555" x="452.07" svgx:width="0.52" style="fill:rgb(0,0,0);font-family:Advt93-i;font-size:9.96px;stroke:none;">b</text>
   <text y="293.555" x="457.228,460.854,463.1448,467.886,473.839,479.019,483.7002,488.466,493.128,497.789,502.969,508.149,511.774,516.954,520.579,525.2601999999999,530.077,533.185,535.774,543.444,548.1252,552.924,556.031,561.211" svgx:width="0.36,0.23,0.55,0.63,0.52,0.47,0.55,0.47,0.47,0.52,0.52,0.36,0.52,0.36,0.47,0.55,0.31,0.26,0.77,0.47,0.55,0.31,0.52,0.36" style="fill:rgb(0,0,0);font-family:Advt93-r;font-size:9.96px;stroke:none;">). The exposure time for</text>
   <text y="305.517" x="313.794,316.969,321.631,326.81,329.4,334.579,339.2602,341.46,346.639,351.819,356.5002,358.694,361.801,366.981,372.161,377.34,382.002,385.627,390.289,395.6,400.7792,402.913,409.548,414.209,417.7946,420.034,424.696,429.358,434.0392,436.588,444.259,446.848,452.0272,454.219,457.327,462.506,466.09159999999997,468.336,473.721,476.312,480.973,483.2638,485.344,490.005" svgx:width="0.31,0.47,0.52,0.26,0.52,0.47,0.55,0.52,0.52,0.47,0.55,0.31,0.52,0.52,0.52,0.47,0.36,0.47,0.52,0.52,0.55,0.67,0.47,0.36,0.55,0.47,0.47,0.47,0.55,0.77,0.26,0.52,0.55,0.31,0.52,0.36,0.55,0.57,0.26,0.47,0.23,0.55,0.47,0.36" style="fill:rgb(0,0,0);font-family:Advt93-r;font-size:9.96px;stroke:none;">taking one topograph was 120 min for Fig. 4(</text>
   <text y="305.517" x="493.682" svgx:width="0.47" style="fill:rgb(0,0,0);font-family:Advt93-i;font-size:9.96px;stroke:none;">a</text>
   <text y="305.517" x="498.33,501.956,504.2468,506.437,511.099,515.7802,518.286,525.956,528.545,533.7242,535.917,539.024,544.204,547.7896,550.033,555.419,558.009,562.67" svgx:width="0.36,0.23,0.55,0.47,0.47,0.55,0.77,0.26,0.52,0.55,0.31,0.52,0.36,0.55,0.57,0.26,0.47,0.23" style="fill:rgb(0,0,0);font-family:Advt93-r;font-size:9.96px;stroke:none;">), 60 min for Fig.</text>
   <text y="317.48" x="313.794,318.456" svgx:width="0.47,0.36" style="fill:rgb(0,0,0);font-family:Advt93-r;font-size:9.96px;stroke:none;">5(</text>
   <text y="317.48" x="322.128" svgx:width="0.47" style="fill:rgb(0,0,0);font-family:Advt93-i;font-size:9.96px;stroke:none;">a</text>
   <text y="317.48" x="326.833,330.459,332.7498,335.393,340.055,344.7362,347.242,354.912,357.502,362.6812,365.384,368.491,373.671,377.2566,380.01,385.396,387.986,392.648,394.9388,397.529,402.19" svgx:width="0.36,0.23,0.55,0.47,0.47,0.55,0.77,0.26,0.52,0.55,0.31,0.52,0.36,0.55,0.57,0.26,0.47,0.23,0.55,0.47,0.36" style="fill:rgb(0,0,0);font-family:Advt93-r;font-size:9.96px;stroke:none;">), 15 min for Fig. 4(</text>
   <text y="317.48" x="405.807" svgx:width="0.52" style="fill:rgb(0,0,0);font-family:Advt93-i;font-size:9.96px;stroke:none;">b</text>
   <text y="317.48" x="411.022,414.6076,417.316,421.977,427.157,432.33619999999996,435.06,439.722,444.40319999999997,446.909,454.579,457.168,462.3472,465.051,468.158,473.338,476.9236,479.62,485.063,487.653,492.207,494.4978,497.14,501.801" svgx:width="0.36,0.55,0.47,0.52,0.52,0.55,0.47,0.47,0.55,0.77,0.26,0.52,0.55,0.31,0.52,0.36,0.55,0.57,0.26,0.47,0.23,0.55,0.47,0.36" style="fill:rgb(0,0,0);font-family:Advt93-r;font-size:9.96px;stroke:none;">) and 30 min for Fig. 5(</text>
   <text y="317.48" x="505.474" svgx:width="0.52" style="fill:rgb(0,0,0);font-family:Advt93-i;font-size:9.96px;stroke:none;">b</text>
   <text y="317.48" x="510.689,514.315,516.6058,519.249,522.874,528.0532000000001,530.757,536.143,538.733,543.286,545.5767999999999,548.219,552.88" svgx:width="0.36,0.23,0.55,0.36,0.52,0.55,0.57,0.26,0.47,0.23,0.55,0.47,0.36" style="fill:rgb(0,0,0);font-family:Advt93-r;font-size:9.96px;stroke:none;">). In Fig. 4(</text>
   <text y="317.48" x="556.554" svgx:width="0.47" style="fill:rgb(0,0,0);font-family:Advt93-i;font-size:9.96px;stroke:none;">a</text>
   <text y="317.48" x="561.26" svgx:width="0.36" style="fill:rgb(0,0,0);font-family:Advt93-r;font-size:9.96px;stroke:none;">)</text>
   <text y="329.442" x="313.794,316.969,322.149,326.8302,331.03,333.62,338.8,341.907,346.569,350.194,353.301,358.072,361.697,366.358,371.538,375.682,380.3632,384.603,387.778,391.404,393.993,399.173,403.834,408.496,412.0816,416.407,418.996,424.17519999999996,428.425,431.532,436.712,441.3932,445.603,450.782,455.962,461.142,465.899,469.4846,473.722,478.902,483.643,487.269,490.3566,494.584,499.246,502.871,507.55219999999997,511.819,516.48,519.588,522.695,526.321,528.91,534.089,539.269,542.376,547.038,552.2172,556.547,559.655" svgx:width="0.31,0.52,0.47,0.55,0.26,0.52,0.31,0.47,0.36,0.31,0.47,0.36,0.47,0.52,0.42,0.47,0.55,0.31,0.36,0.26,0.52,0.47,0.47,0.36,0.55,0.26,0.52,0.55,0.31,0.52,0.47,0.55,0.52,0.52,0.52,0.47,0.36,0.55,0.52,0.47,0.36,0.31,0.55,0.47,0.36,0.47,0.55,0.47,0.31,0.31,0.36,0.26,0.52,0.52,0.31,0.47,0.52,0.55,0.31,0.52" style="fill:rgb(0,0,0);font-family:Advt93-r;font-size:9.96px;stroke:none;">the interference fringes in the upper part are attributed to</text>
   <text y="341.404" x="313.794,317.42,323.205,329.431,334.61,342.2792,346.959,351.621,356.8,361.9792,366.631,369.739,374.918,380.181,383.806,388.4872,393.106,395.696,400.8752,405.579,408.686,413.866,418.5472,423.153,425.742,430.922,437.556,442.315,445.9006,450.592,455.772,460.433,464.059,467.14660000000003,471.851,474.959,480.1382,484.777,488.402,494.188,501.45,507.341,509.6318,514.313,520.209,525.389,530.0702,534.723,539.385,544.046,547.672,550.779,553.368,557.512,562.173" svgx:width="0.36,0.57,0.63,0.52,0.77,0.55,0.47,0.52,0.52,0.55,0.31,0.52,0.52,0.36,0.47,0.55,0.26,0.52,0.55,0.31,0.52,0.47,0.55,0.26,0.52,0.67,0.47,0.36,0.55,0.52,0.47,0.36,0.31,0.55,0.31,0.52,0.55,0.36,0.57,0.73,0.67,0.23,0.55,0.63,0.52,0.47,0.55,0.47,0.47,0.36,0.31,0.26,0.42,0.47,0.26" style="fill:rgb(0,0,0);font-family:Advt93-r;font-size:9.96px;stroke:none;">IFLSD and those in the lower part to IFRB. The vertical</text>
   <text y="353.366" x="313.794,318.974,321.563,325.189,329.951,334.094,337.202,339.791,344.971,350.1502,352.796,357.976,361.0636,363.681,366.789,371.968,376.6492,379.215,381.805,386.984,393.618,398.378,401.9636,404.557,409.737,414.399,418.024,421.1116,423.775,427.919,433.099,436.724,440.349,445.011,448.636,453.816,458.996,464.31,469.489,473.0746,475.705,478.812,483.9912,486.589,489.697,494.876,499.55719999999997,502.123,507.303,509.892,513.517,516.625,521.397,526.576,530.72" svgx:width="0.52,0.26,0.36,0.47,0.42,0.31,0.26,0.52,0.52,0.55,0.52,0.31,0.55,0.31,0.52,0.47,0.55,0.26,0.52,0.67,0.47,0.36,0.55,0.52,0.47,0.36,0.31,0.55,0.42,0.52,0.36,0.36,0.47,0.36,0.52,0.52,0.52,0.52,0.36,0.55,0.31,0.52,0.55,0.31,0.52,0.47,0.55,0.52,0.26,0.36,0.31,0.47,0.52,0.42,0.47" style="fill:rgb(0,0,0);font-family:Advt93-r;font-size:9.96px;stroke:none;">direction of the lower part corresponds to the distance</text>
   <text y="353.366" x="538.016" svgx:width="0.47" style="fill:rgb(0,0,0);font-family:Advt93-i;font-size:9.96px;stroke:none;">x</text>
   <text y="353.366" x="545.216,548.323,551.949,557.128" svgx:width="0.31,0.36,0.52,0.77" style="fill:rgb(0,0,0);font-family:Advt93-r;font-size:9.96px;stroke:none;">from</text>
   <text y="365.272" x="313.794,316.969,322.149,326.8302,330.065,332.656,337.835,341.979,344.568,349.851,354.513,359.692,362.7796,366.122,371.302,376.482,379.071,384.25,387.3376,390.726,395.906,398.9936,402.292,405.399,410.579,415.2602,418.562,425.824,428.931,432.557,437.218,441.975,445.5606,448.836,454.015,459.19419999999997,462.498,465.674,470.853,475.5342,478.77,483.431,488.69,491.798,495.423,500.085,505.264,509.408,514.0892,517.433,521.058,526.238,529.863,532.971,537.632,541.776,546.4572,549.803,554.464,559.644" svgx:width="0.31,0.52,0.47,0.55,0.26,0.52,0.42,0.26,0.52,0.47,0.52,0.31,0.55,0.52,0.52,0.26,0.52,0.31,0.55,0.52,0.31,0.55,0.31,0.52,0.47,0.55,0.73,0.31,0.36,0.47,0.47,0.36,0.55,0.52,0.52,0.55,0.31,0.52,0.47,0.55,0.47,0.52,0.31,0.36,0.47,0.52,0.42,0.47,0.55,0.36,0.52,0.36,0.31,0.47,0.42,0.47,0.55,0.47,0.52,0.52" style="fill:rgb(0,0,0);font-family:Advt93-r;font-size:9.96px;stroke:none;">the incident point of the X-rays on the entrance surface and</text>
   <text y="377.234" x="313.794,316.969,322.149,326.811,329.8986,332.9,335.489,340.66819999999996,343.615,346.722,351.902,356.5832,359.545,364.725,369.904,375.084,379.841,383.4266,386.417,391.597,396.259,399.884,402.9716,405.976,410.12,415.299,418.925,422.55,427.212,430.837,436.135,441.315,446.494,451.674,455.2596,458.302,461.41,466.5892,469.527,472.635,477.814,482.4952,485.458,490.637,493.226,496.852,499.959,504.731,509.911,514.054" svgx:width="0.31,0.52,0.47,0.31,0.55,0.26,0.52,0.55,0.31,0.52,0.47,0.55,0.52,0.52,0.52,0.47,0.36,0.55,0.52,0.47,0.36,0.31,0.55,0.42,0.52,0.36,0.36,0.47,0.36,0.52,0.52,0.52,0.52,0.36,0.55,0.31,0.52,0.55,0.31,0.52,0.47,0.55,0.52,0.26,0.36,0.31,0.47,0.52,0.42,0.47" style="fill:rgb(0,0,0);font-family:Advt93-r;font-size:9.96px;stroke:none;">that in the upper part corresponds to the distance</text>
   <text y="377.234" x="521.688" svgx:width="0.47" style="fill:rgb(0,0,0);font-family:Advt93-i;font-size:9.96px;stroke:none;">z</text>
   <text y="377.234" x="529.285,532.392,536.017,541.197,548.8662,551.904,555.011,560.191" svgx:width="0.31,0.36,0.52,0.77,0.55,0.31,0.52,0.47" style="fill:rgb(0,0,0);font-family:Advt93-r;font-size:9.96px;stroke:none;">from the</text>
   <text y="389.196" x="313.793,318.455,323.714,328.376,333.05719999999997,336.073,341.253,344.3406,347.355,350.462,355.642,360.3232,363.399,368.06,373.24,376.347,379.973,384.634,389.814,393.957,398.6382,401.721,405.347,410.526,414.152,417.259,422.016,426.16,430.8412,433.808,438.988,444.1672,447.244,450.351,455.531,460.2122,463.231,465.82,470.482,473.589,478.251,481.876,486.643,489.2326,492.199,495.825,501.004,504.63,507.737,512.494,516.638,520.999,523.2898,526.328,532.224,537.403,542.0842,545.092,550.272,555.452,559.077,561.76" svgx:width="0.47,0.52,0.47,0.47,0.55,0.52,0.31,0.55,0.31,0.52,0.47,0.55,0.47,0.52,0.31,0.36,0.47,0.52,0.42,0.47,0.55,0.36,0.52,0.36,0.31,0.47,0.42,0.47,0.55,0.52,0.52,0.55,0.31,0.52,0.47,0.55,0.26,0.47,0.31,0.47,0.36,0.47,0.26,0.55,0.36,0.52,0.36,0.31,0.47,0.42,0.47,0.23,0.55,0.63,0.52,0.47,0.55,0.52,0.52,0.36,0.26,0.31" style="fill:rgb(0,0,0);font-family:Advt93-r;font-size:9.96px;stroke:none;">edge of the entrance surface on the lateral surface. The hori-</text>
   <text y="401.158" x="313.793,317.937,323.204,328.384,331.491,336.153,338.74260000000004,341.969,347.148,349.738,353.363,358.025,362.168,365.276,367.865,373.044,378.22319999999996,381.538,385.681,390.861,394.486,398.112,402.773,406.399,411.697,416.876,422.056,427.236,430.8216,434.09,437.197,442.3762,445.598,450.777,453.367,456.992,460.099,464.761,469.941,474.084" svgx:width="0.42,0.52,0.52,0.31,0.47,0.26,0.55,0.52,0.26,0.36,0.47,0.42,0.31,0.26,0.52,0.52,0.55,0.42,0.52,0.36,0.36,0.47,0.36,0.52,0.52,0.52,0.52,0.36,0.55,0.31,0.52,0.55,0.52,0.26,0.36,0.31,0.47,0.52,0.42,0.47" style="fill:rgb(0,0,0);font-family:Advt93-r;font-size:9.96px;stroke:none;">zontal direction corresponds to distance</text>
   <text y="401.158" x="482.058" svgx:width="0.26" style="fill:rgb(0,0,0);font-family:Advt93-i;font-size:9.96px;stroke:none;">l</text>
   <text y="401.158" x="484.326,486.6168,489.825,495.041,499.702,504.8812,508.08,513.26,517.921,521.547,526.7262000000001,529.963,532.552,535.142,540.321,544.983,548.5686,551.902,556.563,560.189" svgx:width="0.23,0.55,0.63,0.47,0.52,0.55,0.52,0.47,0.36,0.52,0.55,0.26,0.26,0.52,0.47,0.36,0.55,0.47,0.36,0.47" style="fill:rgb(0,0,0);font-family:Advt93-r;font-size:9.96px;stroke:none;">. Ten dark lines are</text>
   <text y="413.121" x="313.792,318.972,324.152,327.777,332.557,336.182,340.844,345.506,350.68519999999995,355.177,357.767,362.9462,367.423,371.048,376.746,384.007,390.6802,395.146,399.807,403.3926,407.902,410.491,415.671,420.941,423.531,427.675,432.336,435.444,440.105,445.2842,449.797,454.977,459.65819999999997,464.14,470.775,475.954,478.543,481.651,486.3322,490.842,493.432,496.021,501.201,505.862,508.982,511.2728,515.729,521.682,526.862,531.5432,535.969,541.148,543.737,549.008,552.0956,556.548,561.727" svgx:width="0.52,0.52,0.36,0.47,0.36,0.47,0.47,0.52,0.55,0.26,0.52,0.55,0.36,0.57,0.73,0.67,0.55,0.47,0.36,0.55,0.26,0.52,0.52,0.26,0.42,0.47,0.31,0.47,0.52,0.55,0.52,0.47,0.55,0.67,0.52,0.26,0.31,0.47,0.55,0.26,0.26,0.52,0.47,0.36,0.23,0.55,0.63,0.52,0.47,0.55,0.52,0.26,0.52,0.31,0.55,0.52,0.31" style="fill:rgb(0,0,0);font-family:Advt93-r;font-size:9.96px;stroke:none;">observed in IFRB as indicated by white lines. The plot of</text>
   <text y="425.083" x="313.792,318.972,321.561,326.32,328.911,332.018,334.607,338.751,343.412,348.59119999999996,352.399,354.988,360.168,363.275,367.937,373.116,376.742,379.439,382.547,385.136,389.798,393.3836,397.183,402.363,405.4506,409.259,412.884,418.582,425.844,432.5172,436.302,438.891,442.4766,446.279,450.941,453.53,458.192,462.853,468.0322,471.846,477.026,482.2052,485.963,489.07,494.25,498.9312,502.687,505.276,509.938,513.045,516.1325999999999,519.977,523.603,526.192,531.372,536.0532,539.819,544.999,548.0866,551.895,555.002,560.182" svgx:width="0.52,0.26,0.47,0.26,0.31,0.26,0.42,0.47,0.52,0.55,0.26,0.52,0.31,0.47,0.52,0.36,0.26,0.31,0.26,0.47,0.36,0.55,0.52,0.31,0.55,0.36,0.57,0.73,0.67,0.55,0.26,0.36,0.55,0.47,0.26,0.47,0.47,0.52,0.55,0.52,0.52,0.55,0.31,0.52,0.47,0.55,0.26,0.47,0.31,0.31,0.55,0.36,0.26,0.52,0.47,0.55,0.52,0.31,0.55,0.31,0.52,0.47" style="fill:rgb(0,0,0);font-family:Advt93-r;font-size:9.96px;stroke:none;">digitized intensities of IFRB is given on the left side of the</text>
   <text y="437.045" x="313.792,318.972,323.713,328.893,332.518,336.922,339.2128,342.704,346.33,351.509,356.689,363.323,365.912,371.092,375.7732,379.384,382.491,387.153,392.3322,395.881,401.061,405.722,410.384,415.563,419.1486,422.753,425.343,430.5222,434.035,437.142,442.322,447.0032,450.532,454.158,458.819,464.082,468.743,473.4242,476.95,482.13" svgx:width="0.52,0.47,0.52,0.36,0.47,0.23,0.55,0.36,0.52,0.52,0.67,0.26,0.52,0.47,0.55,0.31,0.47,0.52,0.55,0.52,0.47,0.47,0.52,0.36,0.55,0.26,0.52,0.55,0.31,0.52,0.47,0.55,0.36,0.47,0.52,0.47,0.47,0.55,0.52,0.31" style="fill:rgb(0,0,0);font-family:Advt93-r;font-size:9.96px;stroke:none;">ﬁgure, showing ten peaks in the range of</text>
   <text y="437.045" x="488.747" svgx:width="0.47" style="fill:rgb(0,0,0);font-family:Advt93-i;font-size:9.96px;stroke:none;">x</text>
   <text y="437.045" x="496.968,502.147,506.809,509.916,516.55,521.212,525.873,531.0522000000001,534.667,539.329,541.609,546.2902,549.804,554.465,559.645" svgx:width="0.52,0.47,0.31,0.67,0.47,0.47,0.52,0.55,0.47,0.23,0.47,0.55,0.47,0.52,0.52" style="fill:rgb(0,0,0);font-family:Advt93-r;font-size:9.96px;stroke:none;">between 5.5 and</text>
   <text y="449.007" x="313.791,318.453,320.733,325.4142,327.964,335.635,343.305,345.5958,350.189,356.142,361.321,366.0022,370.542,375.721,380.901,388.571,393.751,398.548,402.1336,406.711,411.891,414.97860000000003,419.58,422.171,427.35,430.457,435.119,438.856,441.963,446.625,450.25,454.912,460.092,464.235,468.9162,473.551,476.659,480.284,482.873,488.053,492.714,497.376,500.9616,505.638,508.227,513.4062,517.997,523.439,526.03,530.584,532.8747999999999,537.443,542.104" svgx:width="0.47,0.23,0.47,0.55,0.77,0.77,0.23,0.55,0.63,0.52,0.47,0.55,0.52,0.52,0.77,0.52,0.47,0.36,0.55,0.52,0.31,0.55,0.26,0.52,0.31,0.47,0.36,0.31,0.47,0.36,0.47,0.52,0.42,0.47,0.55,0.31,0.36,0.26,0.52,0.47,0.47,0.36,0.55,0.26,0.52,0.55,0.57,0.26,0.47,0.23,0.55,0.47,0.36" style="fill:rgb(0,0,0);font-family:Advt93-r;font-size:9.96px;stroke:none;">8.5 mm. The number of interference fringes in Fig. 4(</text>
   <text y="449.007" x="545.78" svgx:width="0.47" style="fill:rgb(0,0,0);font-family:Advt93-i;font-size:9.96px;stroke:none;">a</text>
   <text y="449.007" x="550.428,554.0136,558.649,561.239" svgx:width="0.36,0.55,0.26,0.36" style="fill:rgb(0,0,0);font-family:Advt93-r;font-size:9.96px;stroke:none;">) is</text>
   <text y="460.913" x="313.791,316.381,321.042,324.668,329.438,334.099,337.6846,340.663,343.77,348.95,353.611,358.79019999999997,361.809,364.916,370.096,374.757,377.8446,380.857,383.447,388.6262,391.572,396.958,399.548,404.21,406.50079999999997,409.375,414.036" svgx:width="0.26,0.47,0.36,0.47,0.47,0.36,0.55,0.31,0.52,0.47,0.52,0.55,0.31,0.52,0.47,0.31,0.55,0.26,0.52,0.55,0.57,0.26,0.47,0.23,0.55,0.47,0.36" style="fill:rgb(0,0,0);font-family:Advt93-r;font-size:9.96px;stroke:none;">larger than that in Fig. 4(</text>
   <text y="460.913" x="417.71" svgx:width="0.52" style="fill:rgb(0,0,0);font-family:Advt93-i;font-size:9.96px;stroke:none;">b</text>
   <text y="460.913" x="422.926,426.5116,429.445,436.08,441.351,446.012,449.638,454.31919999999997,457.281,460.389,465.568,470.2492,473.212,478.391,483.571,491.241,496.421,501.082,504.6676,507.737,510.327,513.9126,516.921,520.028,525.208,528.833,533.495,538.1762,541.127,543.717,548.8962,551.898,555.005,560.185" svgx:width="0.36,0.55,0.67,0.52,0.47,0.36,0.47,0.55,0.31,0.52,0.47,0.55,0.52,0.52,0.77,0.52,0.47,0.36,0.55,0.26,0.36,0.55,0.31,0.52,0.36,0.47,0.47,0.55,0.26,0.52,0.55,0.31,0.52,0.47" style="fill:rgb(0,0,0);font-family:Advt93-r;font-size:9.96px;stroke:none;">) where the number is three in the</text>
   <text y="472.875" x="313.791,317.417,322.078,329.835,334.51619999999997,336.751,340.377,345.038,350.301,354.962,359.6432,361.922,367.102" svgx:width="0.36,0.47,0.77,0.47,0.55,0.36,0.47,0.52,0.47,0.47,0.55,0.52,0.31" style="fill:rgb(0,0,0);font-family:Advt93-r;font-size:9.96px;stroke:none;">same range of</text>
   <text y="472.875" x="372.469" svgx:width="0.47" style="fill:rgb(0,0,0);font-family:Advt93-i;font-size:9.96px;stroke:none;">x</text>
   <text y="472.875" x="376.778,379.0688,381.313,387.208,392.388,397.06919999999997,399.398,404.577,407.167,410.792,413.9,418.561,423.741,427.884,432.5652,434.886,440.066,444.807,447.914,454.548,459.21,463.871,469.05019999999996,471.395,474.503,481.137,486.3162,488.63,493.291,498.471,501.06,505.722,509.865,514.527,519.706,522.7936,525.195,530.375,535.036,538.661,543.8402,546.17,548.76,551.349,556.529,561.19" svgx:width="0.23,0.55,0.63,0.52,0.47,0.55,0.52,0.26,0.36,0.31,0.47,0.52,0.42,0.47,0.55,0.52,0.47,0.31,0.67,0.47,0.47,0.52,0.55,0.31,0.67,0.52,0.55,0.47,0.52,0.26,0.47,0.42,0.47,0.52,0.31,0.55,0.52,0.47,0.36,0.52,0.55,0.26,0.26,0.52,0.47,0.36" style="fill:rgb(0,0,0);font-family:Advt93-r;font-size:9.96px;stroke:none;">. The distance between two adjacent dark lines</text>
   <text y="484.837" x="313.791,316.381,321.56019999999995,327.0,330.625,336.323,343.585,350.2582,355.687,358.276,363.455,367.599,371.224,375.886,380.547,384.173,388.963,392.5486,397.977,402.639,406.2246,411.697,416.3782,421.731,424.839,430.018,435.198,439.341,442.449,445.145,450.324,455.5032,460.906,466.085" svgx:width="0.26,0.52,0.55,0.36,0.57,0.73,0.67,0.55,0.26,0.52,0.42,0.36,0.47,0.47,0.36,0.47,0.36,0.55,0.47,0.36,0.55,0.47,0.55,0.31,0.52,0.52,0.42,0.31,0.26,0.52,0.52,0.55,0.52,0.31" style="fill:rgb(0,0,0);font-family:Advt93-r;font-size:9.96px;stroke:none;">in IFRB increases as a function of</text>
   <text y="484.837" x="474.63" svgx:width="0.47" style="fill:rgb(0,0,0);font-family:Advt93-i;font-size:9.96px;stroke:none;">x</text>
   <text y="484.837" x="478.882,481.1728,486.536,493.171,498.351,500.942,505.19,510.3692,515.734,518.325,521.9106,527.357,532.0382,537.448,541.073,543.664,551.335,553.925,556.516,561.178" svgx:width="0.23,0.55,0.67,0.52,0.26,0.42,0.52,0.55,0.26,0.36,0.55,0.47,0.55,0.36,0.26,0.77,0.26,0.26,0.47,0.36" style="fill:rgb(0,0,0);font-family:Advt93-r;font-size:9.96px;stroke:none;">, which is a similar</text>
  </g>
  <g begin="text">
   <text y="771.081" x="44.844,51.445,58.045" svgx:width="0.55,0.55,0.55" style="fill:rgb(103,102,103);font-family:AdvOpti-B;font-size:11.96px;stroke:none;">844</text>
   <text y="771.081" x="76.592,80.991,85.39,91.941,96.34,100.2453,102.842,106.739,111.138,115.035,118.932,125.483,129.379,133.276,137.596" svgx:width="0.55,0.55,0.82,0.55,0.49,0.55,0.49,0.55,0.49,0.49,0.82,0.49,0.49,0.55,0.27" style="fill:rgb(0,81,157);font-family:AdvOpti-R;font-size:7.97px;stroke:none;">Tomoe Fukamachi</text>
   <text y="771.081" x="142.413,146.398,148.62959999999998,151.314,155.299,157.537" svgx:width="0.5,0.28,0.55,0.5,0.28,0.28" style="fill:rgb(0,81,157);font-family:AdvOpti-I;font-size:7.97px;stroke:none;">et al.</text>
   <text y="769.493" code="3" x="165.033" svgx:width="0.5" style="fill:rgb(0,81,157);font-family:AdvMT_SY;font-size:3.98px;stroke:none;">?</text>
   <text y="771.081" x="172.347,177.16,179.726,182.291,186.188,190.0933,192.699,194.851,199.25,201.401,205.298,207.863,210.014,213.911,216.477,220.374,224.773,228.669,232.57430000000002,235.218,237.369,239.935,242.086,246.485,250.382,254.279" svgx:width="0.6,0.32,0.32,0.49,0.49,0.55,0.27,0.55,0.27,0.49,0.32,0.27,0.49,0.32,0.49,0.55,0.49,0.49,0.55,0.27,0.32,0.27,0.55,0.49,0.49,0.38" style="fill:rgb(0,81,157);font-family:AdvOpti-R;font-size:7.97px;stroke:none;">X-ray interference fringes</text>
   <text y="771.081" x="447.366,452.673,456.658,458.897,462.882,465.507,470.815,473.468,477.453,480.521,482.759" svgx:width="0.67,0.5,0.28,0.5,0.55,0.67,0.33,0.5,0.38,0.28,0.28" style="fill:rgb(77,77,77);font-family:AdvOpti-I;font-size:7.97px;stroke:none;">Acta Cryst.</text>
   <text y="771.081" x="487.617,489.769,494.168,498.567,502.965,507.364,509.516,512.0664,514.717" svgx:width="0.27,0.55,0.55,0.55,0.55,0.27,0.32,0.55,0.66" style="fill:rgb(77,77,77);font-family:AdvOpti-R;font-size:7.97px;stroke:none;">(2019). A</text>
   <text y="771.081" x="519.932,524.331" svgx:width="0.55,0.55" style="fill:rgb(77,77,77);font-family:AdvOpti-B;font-size:7.97px;stroke:none;">75</text>
   <text y="771.081" x="528.72,531.2704,533.936,538.335,542.733,547.132,551.778,556.177,560.576" svgx:width="0.32,0.55,0.55,0.55,0.55,0.58,0.55,0.55,0.55" style="fill:rgb(77,77,77);font-family:AdvOpti-R;font-size:7.97px;stroke:none;">, 842–850</text>
  </g>
  <g begin="text">
   <text y="47.848" x="44.844,50.981,58.951,65.089,73.059,81.029,87.166,95.136,103.90299999999999,109.188,117.987,125.957,134.756,142.726,148.863" svgx:width="0.38,0.5,0.38,0.5,0.5,0.38,0.5,0.55,0.55,0.55,0.5,0.55,0.5,0.38,0.38" style="fill:rgb(0,81,157);font-family:AdvOpti-B;font-size:15.94px;stroke:none;">research papers</text>
  </g>
  <rect style="stroke:blue;stroke-width:0.3;" x="45.808" y="516.535" height="194.23" width="249.109" title="3"/>
  <text y="516.535" class="image" id="image.3.1" width="249" height="194" x="45.808">image.3.1.46_295.517_711</text>
  <rect style="stroke:blue;stroke-width:0.3;" x="45.808" y="516.535" height="194.23" width="249.109" title="3"/>
  <text y="516.535" class="image" id="image.3.2" width="249" height="194" x="45.808">image.3.2.46_295.517_711</text>
  <g begin="text">
   <text y="710.022" x="44.844,49.327,51.845,56.328,61.276,64.728,69.213,72.17" svgx:width="0.5,0.28,0.5,0.55,0.38,0.5,0.55,0.55" style="fill:rgb(103,102,103);font-family:AdvOpti-B;font-size:8.97px;stroke:none;">Figure 4</text>
   <text y="719.49" x="44.844,49.247,53.209,56.731,59.372,61.573,65.976,70.3804,75.287,77.928,82.33,86.733,91.136,95.098,98.179,102.142,106.544,110.947,113.9962,118.995,123.398,126.02369999999999,130.901,135.303,137.504,140.586,144.548,148.51,152.472,155.52120000000002,160.493,162.694,167.0984,172.001,174.642,179.045,183.02589999999998,187.875,193.514,196.595,200.557,204.52,208.5009,213.386,219.906,224.308,228.711,232.6919,237.594,240.676,244.638,248.16,252.562,255.644,260.047,264.009,268.4134,273.365,275.566,279.9704,284.874,287.515,291.917" svgx:width="0.52,0.47,0.42,0.31,0.26,0.52,0.52,0.55,0.31,0.52,0.52,0.52,0.47,0.36,0.47,0.52,0.52,0.36,0.55,0.52,0.31,0.55,0.52,0.26,0.36,0.47,0.47,0.47,0.36,0.55,0.26,0.52,0.55,0.31,0.52,0.47,0.55,0.67,0.36,0.47,0.47,0.47,0.55,0.77,0.52,0.52,0.47,0.55,0.36,0.47,0.42,0.52,0.36,0.52,0.47,0.52,0.55,0.26,0.52,0.55,0.31,0.52,0.47" style="fill:rgb(0,0,0);font-family:Advt93-r;font-size:8.47px;stroke:none;">Section topographs of Si(220) in the Bragg mode recorded in the</text>
   <text y="728.957" x="44.844,49.247,51.448,54.089,56.73,59.812,63.774,67.296,69.937,73.899,78.302,80.943,86.582,90.545,94.507,98.48790000000001,101.137,105.539,107.74,110.822,114.784,118.306,120.947,123.148,127.551,131.9554,134.639,137.281,141.683,144.7322,147.338" svgx:width="0.52,0.26,0.31,0.31,0.36,0.47,0.42,0.31,0.47,0.52,0.31,0.67,0.47,0.47,0.47,0.55,0.52,0.26,0.36,0.47,0.42,0.31,0.26,0.52,0.52,0.55,0.31,0.52,0.36,0.55,0.36" style="fill:rgb(0,0,0);font-family:Advt93-r;font-size:8.47px;stroke:none;">diffracted-wave direction for (</text>
   <text y="728.957" x="150.463" svgx:width="0.47" style="fill:rgb(0,0,0);font-family:Advt93-i;font-size:8.47px;stroke:none;">a</text>
   <text y="728.957" x="154.431" svgx:width="0.36" style="fill:rgb(0,0,0);font-family:Advt93-r;font-size:8.47px;stroke:none;">)</text>
   <text y="728.957" code="2" x="160.101" svgx:width="0.56" style="fill:rgb(0,0,0);font-family:AdvMT_MI;font-size:8.47px;stroke:none;">?</text>
   <text y="728.957" x="167.471,172.2142,174.784,178.76489999999998,181.36,185.322,189.725,194.1294,196.724" svgx:width="0.56,0.55,0.47,0.55,0.47,0.52,0.52,0.55,0.36" style="fill:rgb(0,0,0);font-family:Advt93-r;font-size:8.47px;stroke:none;">&lt; 0 and (</text>
   <text y="728.957" x="199.842" svgx:width="0.52" style="fill:rgb(0,0,0);font-family:Advt93-i;font-size:8.47px;stroke:none;">b</text>
   <text y="728.957" x="204.264" svgx:width="0.36" style="fill:rgb(0,0,0);font-family:Advt93-r;font-size:8.47px;stroke:none;">)</text>
   <text y="728.957" code="2" x="209.933" svgx:width="0.56" style="fill:rgb(0,0,0);font-family:AdvMT_MI;font-size:8.47px;stroke:none;">?</text>
   <text y="728.957" x="217.303,222.0462,224.616,228.579,230.52710000000002,233.12,238.166,242.568,246.5489,249.164,253.567,255.768,258.849,261.49,265.453,269.855,273.377" svgx:width="0.56,0.55,0.47,0.23,0.55,0.63,0.52,0.47,0.55,0.52,0.26,0.36,0.31,0.47,0.52,0.42,0.47" style="fill:rgb(0,0,0);font-family:Advt93-r;font-size:8.47px;stroke:none;">&gt; 0. The distance</text>
   <text y="728.957" x="279.949" svgx:width="0.47" style="fill:rgb(0,0,0);font-family:Advt93-i;font-size:8.47px;stroke:none;">x</text>
   <text y="730.318" x="283.918" svgx:width="0.67" style="fill:rgb(0,0,0);font-family:Advt93-i;font-size:5.42px;stroke:none;">L</text>
   <text y="728.958" x="290.608,292.81" svgx:width="0.26,0.36" style="fill:rgb(0,0,0);font-family:Advt93-r;font-size:8.47px;stroke:none;">is</text>
   <text y="738.425" x="44.845,48.807,50.746,54.7269,56.806,63.326,69.846,71.7941,74.381,79.427,83.829,87.8099,90.368,92.57,96.532,99.174,101.7997,104.371,107.453,109.654,114.057,118.03790000000001,120.585,124.987,127.61269999999999,130.222" svgx:width="0.47,0.23,0.47,0.55,0.77,0.77,0.23,0.55,0.63,0.52,0.47,0.55,0.26,0.47,0.31,0.31,0.55,0.36,0.26,0.52,0.47,0.55,0.52,0.31,0.55,0.36" style="fill:rgb(0,0,0);font-family:Advt93-r;font-size:8.47px;stroke:none;">8.5 mm. The left side of (</text>
   <text y="738.425" x="133.286" svgx:width="0.47" style="fill:rgb(0,0,0);font-family:Advt93-i;font-size:8.47px;stroke:none;">a</text>
   <text y="738.425" x="137.254,140.3032,142.924,146.005,150.408,154.811,160.45,163.4992,166.111,168.752,173.154,177.1349,179.716,184.119,186.32,190.282,192.483,195.124,197.325,200.847,204.809,209.2134,211.802,214.002,218.405,221.046,225.009,229.411,232.493,234.694,237.335,239.536,243.498,246.5472,249.216,253.618,256.2437,258.853,261.935,266.778,272.95,277.958,279.90610000000004,282.494,287.483,291.885" svgx:width="0.36,0.55,0.36,0.52,0.52,0.67,0.36,0.55,0.31,0.52,0.47,0.55,0.52,0.26,0.47,0.26,0.31,0.26,0.42,0.47,0.52,0.55,0.26,0.52,0.31,0.47,0.52,0.36,0.26,0.31,0.26,0.47,0.36,0.55,0.52,0.31,0.55,0.36,0.57,0.73,0.67,0.23,0.55,0.63,0.52,0.47" style="fill:rgb(0,0,0);font-family:Advt93-r;font-size:8.47px;stroke:none;">) shows the digitized intensities of IFRB. The</text>
   <text y="747.892" x="44.845,49.248,53.65,56.732,58.933,62.455,66.857,71.26,73.901,77.863,80.0652,82.657,87.06,89.261,92.342,96.305,99.827,102.468,104.669,109.071,113.4754,116.104,118.305,121.3542,123.927,126.568,130.971,134.9519,137.476,141.879,144.08,147.161,149.802,153.765,158.167,161.689" svgx:width="0.52,0.52,0.36,0.26,0.42,0.52,0.52,0.31,0.47,0.26,0.55,0.52,0.26,0.36,0.47,0.42,0.31,0.26,0.52,0.52,0.55,0.26,0.36,0.55,0.31,0.52,0.47,0.55,0.52,0.26,0.36,0.31,0.47,0.52,0.42,0.47" style="fill:rgb(0,0,0);font-family:Advt93-r;font-size:8.47px;stroke:none;">horizontal direction is the distance</text>
   <text y="747.892" x="168.265" svgx:width="0.26" style="fill:rgb(0,0,0);font-family:Advt93-i;font-size:8.47px;stroke:none;">l</text>
   <text y="747.892" x="170.192" svgx:width="0.23" style="fill:rgb(0,0,0);font-family:Advt93-r;font-size:8.47px;stroke:none;">.</text>
  </g>
  <rect style="stroke:blue;stroke-width:0.3;" x="45.581" y="78.015" height="175.975" width="249.506" title="3"/>
  <text y="78.015" class="image" id="image.3.3" width="249" height="175" x="45.581">image.3.3.46_295.78_254</text>
  <rect style="stroke:blue;stroke-width:0.3;" x="45.581" y="78.015" height="175.975" width="249.506" title="3"/>
  <text y="78.015" class="image" id="image.3.4" width="249" height="175" x="45.581">image.3.4.46_295.78_254</text>
  <g begin="text">
   <text y="256.591" x="44.844,49.327,51.845,56.328,61.276,64.728,69.213,72.17" svgx:width="0.5,0.28,0.5,0.55,0.38,0.5,0.55,0.55" style="fill:rgb(103,102,103);font-family:AdvOpti-B;font-size:8.97px;stroke:none;">Figure 3</text>
   <text y="266.059" x="44.844" svgx:width="0.36" style="fill:rgb(0,0,0);font-family:Advt93-r;font-size:8.47px;stroke:none;">(</text>
   <text y="266.059" x="47.905" svgx:width="0.47" style="fill:rgb(0,0,0);font-family:Advt93-i;font-size:8.47px;stroke:none;">a</text>
   <text y="266.059" x="51.874,54.9232,58.677,65.2836,68.995,72.076,75.598,80.001,83.963,90.483,94.445,97.086,99.287,102.84440000000001,106.58,110.983,113.183,117.146,121.108,124.19,128.152,134.67389999999997,138.44,142.842,145.4677,149.155,151.796,156.199,160.1799,163.894,170.414,174.376,178.339,181.42,185.823,188.904,191.105,195.508,199.4889,203.238,206.319,210.281,213.363,216.004,219.967,226.486" svgx:width="0.36,0.55,0.78,0.55,0.36,0.42,0.52,0.47,0.77,0.47,0.31,0.26,0.42,0.55,0.52,0.26,0.47,0.47,0.36,0.47,0.77,0.55,0.52,0.31,0.55,0.31,0.52,0.47,0.55,0.77,0.47,0.47,0.36,0.52,0.36,0.26,0.52,0.47,0.55,0.36,0.47,0.36,0.31,0.47,0.77,0.23" style="fill:rgb(0,0,0);font-family:Advt93-r;font-size:8.47px;stroke:none;">) A schematic diagram of the measuring system.</text>
   <text y="266.059" x="232.213" svgx:width="0.47" style="fill:rgb(0,0,0);font-family:Advt93-i;font-size:8.47px;stroke:none;">x</text>
   <text y="267.42" x="236.183" svgx:width="0.67" style="fill:rgb(0,0,0);font-family:Advt93-i;font-size:5.42px;stroke:none;">L</text>
   <text y="266.059" x="243.95,246.151,249.20020000000002,252.907,255.548,259.951,263.93190000000004,267.647,272.049,274.25,277.332,279.973,283.935,288.338,291.86" svgx:width="0.26,0.36,0.55,0.31,0.52,0.47,0.55,0.52,0.26,0.36,0.31,0.47,0.52,0.42,0.47" style="fill:rgb(0,0,0);font-family:Advt93-r;font-size:8.47px;stroke:none;">is the distance</text>
   <text y="275.527" x="44.845,49.247,53.21,55.851,61.49,65.452,69.414,73.8184,77.499,80.14,84.543,88.52390000000001,92.125,94.326,98.729,102.251,104.452,108.854,112.817,117.219,119.84469999999999,123.531,127.934,132.337,134.537,138.94,141.5657,145.244,149.646,152.27169999999998,155.902,158.543,162.946,166.9269,170.528,176.701,179.342,182.423,186.386,190.348,193.39720000000003,197.06,201.022,205.425,209.82940000000002,213.501,216.142,220.545,224.52589999999998,228.127,231.649,234.731,238.693,241.775,244.416,248.378,250.5802,254.261,258.223,262.626,266.588,270.56890000000004,274.159,278.562,281.1877,284.874,287.516,291.918" svgx:width="0.52,0.47,0.31,0.67,0.47,0.47,0.52,0.55,0.31,0.52,0.47,0.55,0.26,0.52,0.42,0.26,0.52,0.47,0.52,0.31,0.55,0.52,0.52,0.26,0.52,0.31,0.55,0.52,0.31,0.55,0.31,0.52,0.47,0.55,0.73,0.31,0.36,0.47,0.47,0.36,0.55,0.47,0.52,0.52,0.55,0.31,0.52,0.47,0.55,0.42,0.36,0.47,0.36,0.31,0.47,0.26,0.55,0.47,0.52,0.47,0.47,0.55,0.52,0.31,0.55,0.31,0.52,0.47" style="fill:rgb(0,0,0);font-family:Advt93-r;font-size:8.47px;stroke:none;">between the incident point of the X-rays and the crystal edge of the</text>
   <text y="284.994" x="44.845,48.807,53.21,55.851,58.933,62.895,67.297,70.819,74.79990000000001,76.988,80.07,84.473,87.554,90.195,94.158,97.68,101.422,103.3701,105.503,109.906,115.545,119.52590000000001,121.717,125.68,130.082,134.4864,136.684,141.087,146.726,150.7069,152.841,156.804,159.885,163.86589999999998,166.05,168.691,173.094,177.07489999999999,179.202,182.284,185.806,188.007,192.409,195.05,197.251,199.452,201.653,205.615,208.257,210.457,214.86,219.26440000000002,221.547,225.069,229.472,233.875,238.277,240.918,244.881,247.962,251.0112,253.237,256.319,260.281,262.9067,265.086,269.488,273.8924,276.084,278.285,282.68940000000003,284.871,287.512,291.915" svgx:width="0.47,0.52,0.31,0.36,0.47,0.52,0.42,0.47,0.55,0.36,0.52,0.36,0.31,0.47,0.42,0.47,0.23,0.55,0.52,0.67,0.47,0.55,0.47,0.52,0.52,0.55,0.52,0.67,0.47,0.55,0.47,0.36,0.47,0.55,0.31,0.52,0.47,0.55,0.36,0.42,0.26,0.52,0.31,0.26,0.26,0.26,0.47,0.31,0.26,0.52,0.52,0.55,0.42,0.52,0.52,0.52,0.31,0.47,0.36,0.36,0.55,0.36,0.47,0.31,0.55,0.52,0.52,0.55,0.26,0.52,0.55,0.31,0.52,0.47" style="fill:rgb(0,0,0);font-family:Advt93-r;font-size:8.47px;stroke:none;">entrance surface. SC1 and SC2 are the scintillation counters set up in the</text>
   <text y="294.462" x="44.845,47.926,51.889,56.291,60.254,63.775,66.417,70.379,74.782,77.40769999999999,82.827,86.79,91.192,95.59639999999999,100.912,103.553,106.635,110.597,115.0,118.081,124.601,126.802,129.443,132.084,136.047,140.449,143.09,148.729,152.692,156.654,160.6349,166.048,170.451,172.652,175.734,179.696,183.218,185.859,188.157,192.56,196.962,199.609,201.55710000000002,206.865,209.947,213.909,216.991,221.393,225.355,228.877,231.519,233.72,237.682,241.644,243.845,247.17,249.1181,254.484" svgx:width="0.36,0.47,0.52,0.47,0.42,0.31,0.47,0.52,0.31,0.55,0.47,0.52,0.52,0.55,0.31,0.36,0.47,0.52,0.36,0.77,0.26,0.31,0.31,0.47,0.52,0.31,0.67,0.47,0.47,0.47,0.55,0.52,0.26,0.36,0.47,0.42,0.31,0.26,0.52,0.52,0.36,0.23,0.55,0.36,0.47,0.36,0.52,0.47,0.42,0.31,0.26,0.47,0.47,0.26,0.47,0.23,0.55,0.36" style="fill:rgb(0,0,0);font-family:Advt93-r;font-size:8.47px;stroke:none;">reﬂected- and transmitted-wave directions, respectively. (</text>
   <text y="294.462" x="257.556" svgx:width="0.52" style="fill:rgb(0,0,0);font-family:Advt93-i;font-size:8.47px;stroke:none;">b</text>
   <text y="294.462" x="261.978,265.0272,270.368,274.771,278.733,285.253,289.655,291.856" svgx:width="0.36,0.55,0.52,0.47,0.77,0.52,0.26,0.47" style="fill:rgb(0,0,0);font-family:Advt93-r;font-size:8.47px;stroke:none;">) Sample</text>
   <text y="303.929" x="44.845,48.807,52.769,57.172,63.692,67.654,70.295,73.377,75.578,79.54,82.261,84.20909999999999,86.569" svgx:width="0.47,0.47,0.52,0.77,0.47,0.31,0.36,0.26,0.47,0.36,0.23,0.55,0.36" style="fill:rgb(0,0,0);font-family:Advt93-r;font-size:8.47px;stroke:none;">geometries. (</text>
   <text y="303.929" x="89.632" svgx:width="0.42" style="fill:rgb(0,0,0);font-family:Advt93-i;font-size:8.47px;stroke:none;">c</text>
   <text y="303.929" x="93.204,96.25319999999999,98.647,102.609,107.012,111.4164,113.84" svgx:width="0.36,0.55,0.47,0.52,0.52,0.55,0.36" style="fill:rgb(0,0,0);font-family:Advt93-r;font-size:8.47px;stroke:none;">) and (</text>
   <text y="303.929" x="116.902" svgx:width="0.52" style="fill:rgb(0,0,0);font-family:Advt93-i;font-size:8.47px;stroke:none;">d</text>
   <text y="303.929" x="121.324,124.3732,126.766,129.407,133.81,137.7909,140.202,142.403,146.805,150.327,152.528,156.931,160.893,165.296,167.937,170.5627,173.025,176.987,181.389,185.79340000000002,188.161,191.243,195.205,199.608,203.57,207.092,209.733,213.696,218.098,220.739,226.378,230.341,234.303,238.2839,240.77,244.732,248.695,253.097,259.617,263.579,266.22,269.302,271.503,275.465,278.51419999999996,280.964,286.603,288.803,291.445" svgx:width="0.36,0.55,0.31,0.52,0.47,0.55,0.26,0.52,0.42,0.26,0.52,0.47,0.52,0.31,0.31,0.55,0.47,0.52,0.52,0.55,0.36,0.47,0.52,0.47,0.42,0.31,0.47,0.52,0.31,0.67,0.47,0.47,0.47,0.55,0.47,0.47,0.52,0.77,0.47,0.31,0.36,0.26,0.47,0.36,0.55,0.67,0.26,0.31,0.52" style="fill:rgb(0,0,0);font-family:Advt93-r;font-size:8.47px;stroke:none;">) the incident- and reﬂected-wave geometries with</text>
   <text y="313.396" x="44.845,47.926,51.889,54.97,59.373,63.335,66.857,69.4827,71.546,74.187,78.5914,80.616,83.257,87.66,91.6409,93.711,96.793,100.755,107.275,111.678,113.878,117.841,120.8902,122.964,125.605,130.008" svgx:width="0.36,0.47,0.36,0.52,0.47,0.42,0.31,0.55,0.31,0.52,0.55,0.31,0.52,0.47,0.55,0.36,0.47,0.77,0.52,0.26,0.47,0.36,0.55,0.31,0.52,0.36" style="fill:rgb(0,0,0);font-family:Advt93-r;font-size:8.47px;stroke:none;">respect to the samples for</text>
   <text y="313.396" code="2" x="135.156" svgx:width="0.56" style="fill:rgb(0,0,0);font-family:AdvMT_MI;font-size:8.47px;stroke:none;">?</text>
   <text y="313.396" x="141.903,146.6462,148.706,152.68689999999998,154.715,158.678,163.08" svgx:width="0.56,0.55,0.47,0.55,0.47,0.52,0.52" style="fill:rgb(0,0,0);font-family:Advt93-r;font-size:8.47px;stroke:none;">&gt; 0 and</text>
   <text y="313.396" code="2" x="169.513" svgx:width="0.56" style="fill:rgb(0,0,0);font-family:AdvMT_MI;font-size:8.47px;stroke:none;">?</text>
   <text y="313.396" x="176.316,181.0592,183.063,187.025,188.97310000000002,190.999,194.081,198.043,201.125,205.527,209.489,213.011,215.653,217.853,221.816,225.778,227.979,231.304,233.2521,235.273" svgx:width="0.56,0.55,0.47,0.23,0.55,0.36,0.47,0.36,0.52,0.47,0.42,0.31,0.26,0.47,0.47,0.26,0.47,0.23,0.55,0.36" style="fill:rgb(0,0,0);font-family:Advt93-r;font-size:8.47px;stroke:none;">&lt; 0, respectively. (</text>
   <text y="313.396" x="238.395" svgx:width="0.42" style="fill:rgb(0,0,0);font-family:Advt93-i;font-size:8.47px;stroke:none;">e</text>
   <text y="313.396" x="241.91,244.9592,247.012,252.057,256.46,260.4409,262.432,268.951,272.914,276.876,279.958,284.36,287.442,291.404" svgx:width="0.36,0.55,0.63,0.52,0.47,0.55,0.77,0.47,0.47,0.36,0.52,0.36,0.47,0.52" style="fill:rgb(0,0,0);font-family:Advt93-r;font-size:8.47px;stroke:none;">) The measured</text>
   <text y="322.864" x="44.846,47.927,52.33,55.852,60.254,62.455,66.858,70.83890000000001,73.417,76.939,81.342,84.423,88.386,92.348,95.3972,98.021,102.423" svgx:width="0.36,0.52,0.42,0.52,0.26,0.52,0.47,0.55,0.42,0.52,0.36,0.47,0.47,0.36,0.55,0.52,0.31" style="fill:rgb(0,0,0);font-family:Advt93-r;font-size:8.47px;stroke:none;">rocking curves of</text>
   <text y="322.864" x="107.604" svgx:width="0.63" style="fill:rgb(0,0,0);font-family:Advt93-i;font-size:8.47px;stroke:none;">P</text>
   <text y="324.226" x="112.876" svgx:width="0.52" style="fill:rgb(0,0,0);font-family:Advt93-r;font-size:5.42px;stroke:none;">h</text>
   <text y="322.866" x="116.051" svgx:width="0.23" style="fill:rgb(0,0,0);font-family:Advt93-r;font-size:8.47px;stroke:none;">,</text>
   <text y="322.866" x="120.529" svgx:width="0.63" style="fill:rgb(0,0,0);font-family:Advt93-i;font-size:8.47px;stroke:none;">P</text>
   <text y="324.226" x="125.858" svgx:width="0.31" style="fill:rgb(0,0,0);font-family:Advt93-r;font-size:5.42px;stroke:none;">t</text>
   <text y="322.866" x="130.281,134.243,138.645" svgx:width="0.47,0.52,0.52" style="fill:rgb(0,0,0);font-family:Advt93-r;font-size:8.47px;stroke:none;">and</text>
   <text y="322.866" x="145.644" svgx:width="0.63" style="fill:rgb(0,0,0);font-family:Advt93-i;font-size:8.47px;stroke:none;">P</text>
   <text y="324.226" x="150.917" svgx:width="0.36" style="fill:rgb(0,0,0);font-family:Advt93-r;font-size:5.42px;stroke:none;">r</text>
   <text y="322.866" x="153.071" svgx:width="0.23" style="fill:rgb(0,0,0);font-family:Advt93-r;font-size:8.47px;stroke:none;">.</text>
  </g>
  <rect style="stroke:blue;stroke-width:0.3;" x="314.589" y="508.881" height="212.259" width="249.506" title="3"/>
  <text y="508.881" class="image" id="image.3.5" width="249" height="212" x="314.589">image.3.5.315_564.509_721</text>
  <rect style="stroke:blue;stroke-width:0.3;" x="314.589" y="508.881" height="212.259" width="249.506" title="3"/>
  <text y="508.881" class="image" id="image.3.6" width="249" height="212" x="314.589">image.3.6.315_564.509_721</text>
  <g begin="text">
   <text y="719.49" x="313.796,318.278,320.797,325.279,330.228,333.679,338.164,341.178" svgx:width="0.5,0.28,0.5,0.55,0.38,0.5,0.55,0.55" style="fill:rgb(103,102,103);font-family:AdvOpti-B;font-size:8.97px;stroke:none;">Figure 5</text>
   <text y="728.958" x="313.796,318.198,322.161,325.683,328.324,330.525,334.927,339.33140000000003,344.295,346.936,351.339,355.741,360.144,364.106,367.188,371.15,375.553,379.955,383.00419999999997,388.004,392.406,395.0317,399.909,404.312,406.513,409.594,413.556,417.519,421.481,424.5302,429.501,431.702,436.1064,440.953,443.594,447.997,451.97790000000003,456.883,462.522,465.604,469.566,473.528,477.50890000000004,482.394,488.914,493.317,497.719,501.6999,506.602,509.684,513.646,517.168,521.571,524.652,529.055,533.017,537.4214000000001,542.374,544.575,548.9794,553.825,556.466,560.869" svgx:width="0.52,0.47,0.42,0.31,0.26,0.52,0.52,0.55,0.31,0.52,0.52,0.52,0.47,0.36,0.47,0.52,0.52,0.36,0.55,0.52,0.31,0.55,0.52,0.26,0.36,0.47,0.47,0.47,0.36,0.55,0.26,0.52,0.55,0.31,0.52,0.47,0.55,0.67,0.36,0.47,0.47,0.47,0.55,0.77,0.52,0.52,0.47,0.55,0.36,0.47,0.42,0.52,0.36,0.52,0.47,0.52,0.55,0.26,0.52,0.55,0.31,0.52,0.47" style="fill:rgb(0,0,0);font-family:Advt93-r;font-size:8.47px;stroke:none;">Section topographs of Si(220) in the Bragg mode recorded in the</text>
   <text y="738.425" x="313.796,316.437,319.519,323.481,327.884,330.965,337.485,339.686,342.327,344.968,348.93,353.333,355.974,361.755,365.717,369.679,373.6599,375.814,380.217,382.418,385.5,389.462,392.984,395.625,397.826,402.228,406.6324,408.864,411.505,415.908,418.9572,421.223" svgx:width="0.31,0.36,0.47,0.52,0.36,0.77,0.26,0.31,0.31,0.47,0.52,0.31,0.67,0.47,0.47,0.47,0.55,0.52,0.26,0.36,0.47,0.42,0.31,0.26,0.52,0.52,0.55,0.31,0.52,0.36,0.55,0.36" style="fill:rgb(0,0,0);font-family:Advt93-r;font-size:8.47px;stroke:none;">transmitted-wave direction for (</text>
   <text y="738.425" x="424.29" svgx:width="0.47" style="fill:rgb(0,0,0);font-family:Advt93-i;font-size:8.47px;stroke:none;">a</text>
   <text y="738.425" x="428.258" svgx:width="0.36" style="fill:rgb(0,0,0);font-family:Advt93-r;font-size:8.47px;stroke:none;">)</text>
   <text y="738.425" code="2" x="433.53" svgx:width="0.56" style="fill:rgb(0,0,0);font-family:AdvMT_MI;font-size:8.47px;stroke:none;">?</text>
   <text y="738.425" x="440.504,445.2472,447.477,451.4579,453.6,457.562,461.965,466.3694,468.567" svgx:width="0.56,0.55,0.47,0.55,0.47,0.52,0.52,0.55,0.36" style="fill:rgb(0,0,0);font-family:Advt93-r;font-size:8.47px;stroke:none;">&lt; 0 and (</text>
   <text y="738.425" x="471.685" svgx:width="0.52" style="fill:rgb(0,0,0);font-family:Advt93-i;font-size:8.47px;stroke:none;">b</text>
   <text y="738.425" x="476.107" svgx:width="0.36" style="fill:rgb(0,0,0);font-family:Advt93-r;font-size:8.47px;stroke:none;">)</text>
   <text y="738.425" code="2" x="481.379" svgx:width="0.56" style="fill:rgb(0,0,0);font-family:AdvMT_MI;font-size:8.47px;stroke:none;">?</text>
   <text y="738.425" x="488.296,493.0392,495.269,499.232,501.18010000000004,503.376,508.365,512.767,516.7479000000001,518.966,523.369,525.569,528.651,531.292,535.255,539.657,543.179" svgx:width="0.56,0.55,0.47,0.23,0.55,0.63,0.52,0.47,0.55,0.52,0.26,0.36,0.31,0.47,0.52,0.42,0.47" style="fill:rgb(0,0,0);font-family:Advt93-r;font-size:8.47px;stroke:none;">&gt; 0. The distance</text>
   <text y="738.425" x="549.354" svgx:width="0.47" style="fill:rgb(0,0,0);font-family:Advt93-i;font-size:8.47px;stroke:none;">x</text>
   <text y="739.786" x="553.324" svgx:width="0.67" style="fill:rgb(0,0,0);font-family:Advt93-i;font-size:5.42px;stroke:none;">L</text>
   <text y="738.425" x="559.617,561.818" svgx:width="0.26,0.36" style="fill:rgb(0,0,0);font-family:Advt93-r;font-size:8.47px;stroke:none;">is</text>
   <text y="747.893" x="313.797,317.759,319.697,323.6779,325.815,332.334,338.854,340.8021,343.39,348.378,352.781,356.7619,359.32,361.522,365.484,368.125,370.7507,373.323,376.405,378.605,383.008,386.9889,389.536,393.939,396.5647,399.117" svgx:width="0.47,0.23,0.47,0.55,0.77,0.77,0.23,0.55,0.63,0.52,0.47,0.55,0.26,0.47,0.31,0.31,0.55,0.36,0.26,0.52,0.47,0.55,0.52,0.31,0.55,0.36" style="fill:rgb(0,0,0);font-family:Advt93-r;font-size:8.47px;stroke:none;">8.5 mm. The left side of (</text>
   <text y="747.893" x="402.238" svgx:width="0.47" style="fill:rgb(0,0,0);font-family:Advt93-i;font-size:8.47px;stroke:none;">a</text>
   <text y="747.893" x="406.206,409.2552,411.819,414.9,419.303,423.705,429.344,432.3932,435.005,437.647,442.049,446.0299,448.554,452.957,455.158,459.12,461.321,463.962,466.163,469.685,473.647,478.0514,480.64,482.841,487.243,489.884,493.847,498.249,501.331,503.532,506.173,508.374,512.336,515.3852,518.054,522.457,525.0827,527.635,530.716,535.559,540.851,545.89" svgx:width="0.36,0.55,0.36,0.52,0.52,0.67,0.36,0.55,0.31,0.52,0.47,0.55,0.52,0.26,0.47,0.26,0.31,0.26,0.42,0.47,0.52,0.55,0.26,0.52,0.31,0.47,0.52,0.36,0.26,0.31,0.26,0.47,0.36,0.55,0.52,0.31,0.55,0.36,0.57,0.63,0.67,0.23" style="fill:rgb(0,0,0);font-family:Advt93-r;font-size:8.47px;stroke:none;">) shows the digitized intensities of IFTB.</text>
  </g>
 </g>
</svg>
