<?xml version="1.0" encoding="UTF-8"?>
<svg height="758.779" width="530.535" xmlns="http://www.w3.org/2000/svg">
 <g id="page" xmlns:svgx="http://www.xml-cml.org/schema/svgx">
  <g begin="text">
   <text y="62.979" x="76.312,80.743,83.844,88.275,91.375,94.914,98.015" svgx:width="0.56,0.39,0.56,0.39,0.44,0.39,0.39" style="fill:rgb(0,0,0);font-family:URWPalladioL-Ital;font-size:7.97px;stroke:none;">Sensors</text>
   <text y="62.979" x="103.107,107.092,111.077,115.062" svgx:width="0.5,0.5,0.5,0.5" style="fill:rgb(0,0,0);font-family:URWPalladioL-Bold;font-size:7.97px;stroke:none;">2019</text>
   <text y="62.979" x="119.047" svgx:width="0.25" style="fill:rgb(0,0,0);font-family:URWPalladioL-Roma;font-size:7.97px;stroke:none;">,</text>
   <text y="62.979" x="123.032,127.017" svgx:width="0.5,0.5" style="fill:rgb(0,0,0);font-family:URWPalladioL-Ital;font-size:7.97px;stroke:none;">19</text>
   <text y="62.979" x="131.003,132.9955,134.988,138.973,142.958,146.943,150.92800000000003,491.809,495.794,499.779,501.772,506.123,508.7531,510.77,514.755" svgx:width="0.25,0.55,0.5,0.5,0.5,0.5,0.55,0.5,0.5,0.55,0.55,0.33,0.55,0.5,0.5" style="fill:rgb(0,0,0);font-family:URWPalladioL-Roma;font-size:7.97px;stroke:none;">, 4881 15 of 17</text>
   <text y="97.848" x="97.795,103.78,109.462,115.349,119.489,121.979,124.127,132.269,137.0498,139.074,143.751,148.789,154.657,159.333,163.19,166.031,174.652,179.329,185.011,188.194,193.075,195.917,198.758,204.3356,206.305,211.821,216.498,220.354,223.195,229.102,233.779,239.8546,241.873,245.056,250.738,255.619,258.9058,260.931,264.182,267.023,270.30980000000005,272.393,275.576,281.258,286.0388,288.063,293.931,298.608,302.464,311.085,315.762,320.643,326.043,328.884,331.725,334.566,337.749,343.32660000000004,345.296,350.627,353.91380000000004,356.006,359.189,364.871,369.548,373.688,378.4688,380.493,384.632,388.967,392.638,397.315,401.992,407.674,411.8572,413.942,417.125,422.603,424.574,428.714,433.596,439.278,445.35360000000003,447.372,450.213,454.3962,456.481,462.163,465.004,470.433,476.115,478.605,480.753,485.634,488.475,491.316,496.647,504.79,507.631,513.313" svgx:width="0.61,0.58,0.6,0.42,0.25,0.55,0.83,0.48,0.55,0.48,0.52,0.6,0.48,0.4,0.29,0.88,0.48,0.58,0.33,0.5,0.29,0.29,0.56,0.55,0.56,0.48,0.4,0.29,0.61,0.48,0.61,0.55,0.33,0.58,0.5,0.33,0.55,0.33,0.29,0.33,0.55,0.33,0.58,0.48,0.55,0.6,0.48,0.4,0.88,0.48,0.5,0.55,0.29,0.29,0.29,0.33,0.56,0.55,0.55,0.33,0.55,0.33,0.58,0.48,0.42,0.48,0.55,0.42,0.44,0.4,0.48,0.48,0.58,0.42,0.55,0.33,0.55,0.55,0.42,0.5,0.58,0.61,0.55,0.29,0.42,0.55,0.58,0.29,0.56,0.58,0.25,0.55,0.5,0.29,0.29,0.55,0.83,0.29,0.58,0.56" style="fill:rgb(0,0,0);font-family:URWPalladioL-Roma;font-size:9.96px;stroke:none;">Thus, we experimentally veriﬁed that (i) the permeability of these screens to sand is high, allowing</text>
   <text y="111.358" x="76.535,79.492,82.805,86.9882,90.203,96.3,101.381,105.689,109.998,115.079,120.729,125.5098,128.686,133.767,139.681,145.75660000000002,148.969,154.05,159.791,165.339,168.297,174.505,177.463,183.377,188.9546,192.116,195.429,201.343,206.1238,209.289,214.37,218.882,223.394,229.522,238.495,244.622,247.579,252.66,255.973,258.93,264.478,270.2548,273.482,279.03,282.3168,285.493,289.802,294.883,300.797,306.87260000000003,310.095,315.176,318.4628,321.568,324.88,330.795,335.5758,338.751,344.371,349.452,353.76,358.5408,361.707,367.255,370.5418,373.729,377.041,382.955,387.823,392.132,396.9128,400.078,406.287,411.155,416.896,419.853,424.365,429.233,433.4162,436.63,440.014,445.563,449.577,458.549,461.507,467.421,472.9986,476.15,482.359,488.486,494.4,499.268,503.577,506.067,509.349,514.43" svgx:width="0.29,0.33,0.42,0.55,0.6,0.5,0.42,0.42,0.5,0.56,0.48,0.55,0.5,0.58,0.61,0.55,0.5,0.56,0.55,0.29,0.61,0.29,0.58,0.56,0.55,0.33,0.58,0.48,0.55,0.5,0.44,0.44,0.6,0.88,0.6,0.29,0.5,0.33,0.29,0.55,0.58,0.55,0.55,0.33,0.55,0.42,0.5,0.58,0.61,0.55,0.5,0.33,0.55,0.33,0.58,0.48,0.55,0.55,0.5,0.42,0.48,0.55,0.55,0.33,0.55,0.33,0.58,0.48,0.42,0.48,0.55,0.61,0.48,0.56,0.29,0.44,0.48,0.42,0.55,0.33,0.55,0.4,0.88,0.29,0.58,0.56,0.55,0.61,0.6,0.58,0.48,0.42,0.25,0.55,0.5,0.42" style="fill:rgb(0,0,0);font-family:URWPalladioL-Roma;font-size:9.96px;stroke:none;">its passage and avoiding the accumulation of sand at the base of these devices forming dunes, as</text>
   <text y="124.867" x="76.535,82.275,87.207,93.134,99.062,103.786,109.527,113.7102,116.194,119.064,124.84079999999999,127.29,130.505,136.245,141.0258,143.455,147.834,152.766,156.948,161.7288,164.158,169.543,172.8298,175.313,179.692,182.562,187.493,191.675,195.857,198.727,203.1094,205.592,209.774,214.153,217.871,222.596,227.32,233.06,237.242,239.732,242.194,247.125,252.865,258.9406,261.377,264.661,267.532,270.402,273.6888,276.171,279.042,284.81879999999995,287.267,290.483,296.223,299.093,303.2762,305.76,311.501,316.225,326.936,332.42,335.29,341.03,347.1056,349.542,354.927,358.21380000000005,360.697,366.151,371.083,374.979,378.875,381.745,386.469,389.625,392.115,394.577,397.792,403.532,408.3128,410.742,415.673,418.889,422.104,426.828,432.569,438.516,443.448,446.663,449.533,454.918,460.6948,463.144,469.072,473.796,477.692,480.976,486.361,490.257,498.966,503.898,509.638,514.017" svgx:width="0.58,0.5,0.6,0.6,0.48,0.58,0.42,0.55,0.29,0.58,0.55,0.33,0.58,0.48,0.55,0.44,0.5,0.42,0.48,0.55,0.55,0.33,0.55,0.44,0.29,0.5,0.42,0.42,0.29,0.44,0.55,0.42,0.44,0.4,0.48,0.48,0.58,0.42,0.25,0.55,0.5,0.58,0.61,0.55,0.33,0.29,0.29,0.33,0.55,0.29,0.58,0.55,0.33,0.58,0.29,0.42,0.55,0.58,0.48,0.83,0.56,0.29,0.58,0.61,0.55,0.55,0.33,0.55,0.55,0.5,0.4,0.4,0.29,0.48,0.4,0.25,0.55,0.33,0.58,0.48,0.55,0.5,0.33,0.33,0.48,0.58,0.6,0.5,0.33,0.29,0.55,0.58,0.55,0.6,0.48,0.4,0.33,0.55,0.4,0.88,0.5,0.58,0.44,0.48" style="fill:rgb(0,0,0);font-family:URWPalladioL-Roma;font-size:9.96px;stroke:none;">happens in the case of classic screens; and (ii) in this newkind of barrier, the attenuation performance</text>
   <text y="138.377" x="76.535,79.492,85.406,89.918,93.749,98.617,103.698,108.006,112.874,117.0572,120.597,125.678,129.8612,133.401,138.381,141.896,145.28,151.408,157.322,161.834,165.146,168.103,173.652,179.4288,182.98,188.529,191.8158,195.327,198.64,204.554,209.3348,212.826,218.974,221.931,224.888,227.845,233.759,239.33659999999998,242.824,246.207,251.288,255.8,259.113,264.661,268.645,272.09,280.565,286.479,291.346,297.1228,300.675,303.988,309.902,314.6828,318.184,322.492,327.573,333.487,339.56260000000003,343.101,348.182,352.693,357.205,363.333,372.306,378.433,381.39,386.471,389.784,394.652,398.8352,402.375,407.456,410.74280000000005,414.183,417.496,423.41,428.1908,431.692,437.311,442.392,446.701,451.4818,454.983,460.531,463.81780000000003,467.329,470.642,476.556,481.3368,484.828,489.137,493.648,497.49,502.357,507.225,513.139,517.448" svgx:width="0.29,0.58,0.44,0.4,0.48,0.5,0.42,0.48,0.42,0.55,0.5,0.42,0.55,0.5,0.55,0.33,0.6,0.58,0.44,0.33,0.29,0.55,0.58,0.55,0.55,0.33,0.55,0.33,0.58,0.48,0.55,0.61,0.29,0.29,0.29,0.58,0.56,0.55,0.33,0.5,0.44,0.33,0.55,0.4,0.55,0.83,0.58,0.48,0.58,0.55,0.33,0.58,0.48,0.55,0.42,0.5,0.58,0.61,0.55,0.5,0.44,0.44,0.6,0.88,0.6,0.29,0.5,0.33,0.48,0.42,0.55,0.5,0.33,0.55,0.33,0.58,0.48,0.55,0.55,0.5,0.42,0.48,0.55,0.55,0.33,0.55,0.33,0.58,0.48,0.55,0.42,0.44,0.4,0.48,0.48,0.58,0.42,0.25" style="fill:rgb(0,0,0);font-family:URWPalladioL-Roma;font-size:9.96px;stroke:none;">increases as a function of the ﬁlling factor when the sand accumulates at the base of the screens,</text>
   <text y="151.886" x="76.117,84.26,89.942,92.783,97.118,102.89479999999999,105.261,108.102,112.2852,114.692,120.579,126.262,129.103,131.944,137.372,142.1528,144.509,152.652,158.334,163.216,166.5028,168.849,174.532,179.413,185.281,191.149,195.825,201.508,205.6912,208.108,216.25,219.091,222.274,228.0508,230.407,233.59,237.447,242.328,248.294,251.135,254.318,257.159,262.49,268.172,273.053,275.9414,278.355,282.495,286.83,290.501,295.177,299.854,305.536,309.676,312.166,314.587,322.729,328.412,331.253,335.588,341.3648,343.721,349.686,354.363,358.698,362.378,367.055,371.937,376.076,380.753,384.9362,387.343,395.486,401.168,405.845,411.6218,413.987,417.17,422.852,427.6328,429.989,434.129,439.011,444.693,450.7686,453.109,455.95,460.1332,462.55,467.432,471.767,476.102,481.989,490.61,496.497,499.339,504.22,507.403,512.08,518.045" svgx:width="0.83,0.58,0.29,0.44,0.58,0.55,0.29,0.42,0.55,0.6,0.58,0.29,0.29,0.56,0.48,0.55,0.83,0.58,0.5,0.33,0.55,0.58,0.5,0.6,0.6,0.48,0.58,0.42,0.55,0.83,0.29,0.33,0.58,0.55,0.33,0.4,0.5,0.61,0.29,0.33,0.29,0.55,0.58,0.5,0.29,0.55,0.42,0.44,0.4,0.48,0.48,0.58,0.42,0.25,0.55,0.83,0.58,0.29,0.44,0.58,0.55,0.61,0.48,0.44,0.4,0.48,0.5,0.42,0.48,0.42,0.55,0.83,0.58,0.48,0.58,0.55,0.33,0.58,0.48,0.55,0.42,0.5,0.58,0.61,0.55,0.29,0.42,0.55,0.5,0.44,0.44,0.6,0.88,0.6,0.29,0.5,0.33,0.48,0.61,0.25" style="fill:rgb(0,0,0);font-family:URWPalladioL-Roma;font-size:9.96px;stroke:none;">which is unlike what happens with traditional screens, which decreases when the sand is accumulated.</text>
   <text y="165.395" x="76.147,83.743,86.584,89.767,95.449,100.78,106.667,112.096,117.8728,120.277,123.46,129.142,133.9228,136.309,142.177,147.859,153.287,157.427,160.268,164.603,169.485,172.3734,174.825,178.506,183.183,188.064,192.204,197.535,203.217,207.4002,209.846,213.097,218.428,222.412,224.784,227.967,233.649,236.49,240.6732,243.13,248.529,253.205,258.888,263.769,269.286,272.127,277.457,281.441,283.813,288.695,292.366,297.1468,299.542,305.224,310.555,313.84180000000003,316.238,321.666,326.343,329.62980000000005,332.015,337.444,343.126,348.457,356.599,362.282,364.772,367.222,370.405,376.087,378.928,383.1112,385.567,389.707,394.383,399.06,407.681,411.8642,414.32,419.836,424.513,428.37,433.9476,436.288,439.129,444.811,447.994,452.671,456.351,461.028,465.168,468.351,471.192,476.874,482.45160000000004,484.802,488.053,491.724,497.055,508.175,513.057" svgx:width="0.78,0.29,0.33,0.58,0.55,0.6,0.56,0.58,0.55,0.33,0.58,0.48,0.55,0.6,0.58,0.56,0.42,0.29,0.44,0.5,0.29,0.55,0.4,0.48,0.5,0.42,0.55,0.58,0.42,0.55,0.33,0.55,0.4,0.55,0.33,0.58,0.29,0.42,0.55,0.55,0.48,0.58,0.5,0.56,0.29,0.55,0.4,0.55,0.5,0.4,0.48,0.55,0.58,0.55,0.33,0.55,0.56,0.48,0.33,0.55,0.56,0.58,0.55,0.83,0.58,0.25,0.55,0.33,0.58,0.29,0.42,0.55,0.42,0.48,0.48,0.88,0.42,0.55,0.56,0.48,0.4,0.56,0.55,0.29,0.58,0.33,0.48,0.4,0.48,0.42,0.33,0.29,0.58,0.56,0.55,0.33,0.4,0.55,0.88,0.5,0.58" style="fill:rgb(0,0,0);font-family:URWPalladioL-Roma;font-size:9.96px;stroke:none;">Although the physical reasons for this behavior are not yet known, this seems very interesting froman</text>
   <text y="178.905" x="76.535,81.307,87.105,92.645,95.544,101.342,106.114,110.886,114.821,117.72,123.519,129.0966,131.548,137.536,142.976,145.875,151.673,154.9598,157.411,162.851,166.1378,168.659,174.288,177.187,181.959,189.351" svgx:width="0.48,0.58,0.56,0.29,0.58,0.48,0.48,0.4,0.29,0.58,0.56,0.55,0.6,0.55,0.29,0.58,0.33,0.55,0.55,0.33,0.55,0.56,0.29,0.48,0.83,0.25" style="fill:rgb(0,0,0);font-family:URWPalladioL-Roma;font-size:9.96px;stroke:none;">engineering point of view.</text>
   <text y="192.414" x="97.795,106.25,111.798,120.273,125.141,130.882,135.749,139.022,141.512,144.184,153.157,158.705,162.546,167.3268,170.005,173.389,179.517,185.431,191.64,195.82319999999999,198.54,203.621,207.462,212.2428,214.921,220.835,225.702,230.57,236.779,241.646,247.7216,250.446,253.759,259.23699999999997,261.909,267.528,273.656,276.613,279.57,285.6456,288.37,293.35,296.043,301.662,306.743,310.056,313.369,318.236,322.25,327.8276,330.501,336.05,339.33680000000004,342.025,346.334,351.882,357.796,360.753,365.1354,367.856,372.368,376.382,382.032,386.341,389.654,394.735,397.6234,400.293,405.374,409.886,415.434,421.562,425.871,429.183,432.14,436.5224,439.244,443.552,448.064,451.895,456.763,461.63,467.4068,470.146,476.253,480.084,485.632,488.945,494.493,497.806,503.456,509.564,514.431" svgx:width="0.83,0.55,0.83,0.48,0.56,0.48,0.4,0.25,0.55,0.88,0.55,0.4,0.48,0.55,0.33,0.6,0.58,0.61,0.42,0.55,0.5,0.4,0.48,0.55,0.58,0.48,0.48,0.61,0.48,0.61,0.55,0.33,0.55,0.55,0.55,0.6,0.29,0.29,0.61,0.55,0.5,0.55,0.55,0.5,0.33,0.33,0.48,0.4,0.56,0.55,0.55,0.33,0.55,0.42,0.55,0.58,0.29,0.44,0.55,0.44,0.4,0.56,0.42,0.33,0.5,0.29,0.55,0.5,0.44,0.55,0.6,0.42,0.33,0.29,0.44,0.55,0.42,0.44,0.4,0.48,0.48,0.58,0.55,0.6,0.4,0.55,0.33,0.55,0.33,0.56,0.6,0.48,0.42" style="fill:rgb(0,0,0);font-family:URWPalladioL-Roma;font-size:9.96px;stroke:none;">However, more funds are needed to build a battery of sonic crystal acoustic screen prototypes</text>
   <text y="205.924" x="76.535,79.492,85.2688,88.272,93.82,97.651,103.86,108.728,112.71199999999999,115.607,118.92,124.398,127.334,132.415,138.329,143.41,146.367,152.017,157.098,161.8788,164.821,168.134,174.048,178.916,181.873,185.857,188.752,194.86,199.727,203.741,212.714,217.581,222.662,228.282,231.239,234.196,237.153,240.466,246.0436,248.982,254.063,259.977,266.0526,269.051,274.132,278.644,284.192,290.32,294.629,297.941,300.899,305.2814,308.266,314.373,319.241,323.255,326.638,332.187,336.201,345.174,350.255,356.169,360.681,365.4618,368.414,371.371,377.14779999999996,380.151,383.464,389.378,394.1588,397.111,401.419,405.931,411.012,413.969,418.837,424.9126,427.911,436.386,439.344,445.248,451.3236,454.322,457.635,463.762,469.677,475.591,480.458,483.415,485.90500000000003,490.559,498.465,501.7518,504.644,507.956,513.87" svgx:width="0.29,0.58,0.55,0.55,0.4,0.61,0.48,0.4,0.55,0.33,0.55,0.55,0.5,0.58,0.5,0.29,0.56,0.5,0.48,0.55,0.33,0.58,0.48,0.29,0.4,0.55,0.6,0.48,0.4,0.88,0.48,0.5,0.55,0.29,0.29,0.29,0.33,0.56,0.55,0.5,0.58,0.61,0.55,0.5,0.44,0.55,0.6,0.42,0.33,0.29,0.44,0.55,0.6,0.48,0.4,0.33,0.55,0.4,0.88,0.5,0.58,0.44,0.48,0.55,0.29,0.58,0.55,0.33,0.58,0.48,0.55,0.42,0.44,0.5,0.29,0.48,0.61,0.55,0.83,0.29,0.58,0.61,0.55,0.33,0.6,0.58,0.58,0.48,0.29,0.25,0.55,0.78,0.33,0.55,0.33,0.58,0.48" style="fill:rgb(0,0,0);font-family:URWPalladioL-Roma;font-size:9.96px;stroke:none;">in order to analyze their permeability and acoustic performance in the scaled wind tunnel. At the</text>
   <text y="219.433" x="76.535,80.675,85.556,94.177,98.9578,101.285,104.468,107.309,115.93,120.607,123.097,125.498,128.339,131.6258,133.953,138.093,142.77,147.446,156.067,160.2502,162.638,168.32,172.997,177.332,182.008,186.148,190.288,195.169,199.026,204.6036,206.895,210.078,215.556,217.84,220.681,229.302,235.17,238.851,244.181,249.688,254.4688,256.805,259.988,265.671,270.4518,272.778,276.918,281.253,286.135,288.976,293.652,299.7276,302.049,310.191,313.033,318.715,324.7906,327.121,330.304,336.191,341.874,347.556,352.232,355.1204,357.505,360.346,366.1228,368.459,373.79,377.471,383.436,388.113,392.097,394.4,397.583,403.06100000000004,405.345,410.676,416.075,419.258,424.139,426.981,432.7578,435.104,440.503,445.179,448.362,451.545,456.222,460.20599999999996,462.509,468.377,473.054,476.91,480.162,485.492,489.349,497.97,502.852,508.534,512.869,517.545" svgx:width="0.42,0.5,0.88,0.48,0.55,0.33,0.29,0.88,0.48,0.25,0.55,0.29,0.33,0.55,0.42,0.48,0.48,0.88,0.42,0.55,0.58,0.48,0.44,0.48,0.42,0.42,0.5,0.4,0.56,0.55,0.33,0.55,0.55,0.29,0.88,0.6,0.4,0.55,0.56,0.48,0.55,0.33,0.58,0.48,0.55,0.42,0.44,0.5,0.29,0.48,0.61,0.55,0.83,0.29,0.58,0.61,0.55,0.33,0.6,0.58,0.58,0.48,0.29,0.55,0.29,0.58,0.55,0.55,0.4,0.61,0.48,0.4,0.55,0.33,0.55,0.55,0.55,0.55,0.33,0.5,0.29,0.58,0.55,0.55,0.48,0.33,0.33,0.48,0.4,0.55,0.6,0.48,0.4,0.33,0.55,0.4,0.88,0.5,0.58,0.44,0.48,0.25" style="fill:rgb(0,0,0);font-family:URWPalladioL-Roma;font-size:9.96px;stroke:none;">same time, it seems necessary to improve the scaled wind tunnel in order to obtain better performance,</text>
   <text y="232.942" x="76.535,79.906,85.432,89.416,91.91,96.759,101.982,107.043,115.98,122.064,125.009,129.858,132.348,134.868,138.168,143.64600000000002,146.184,149.13,155.021,159.515,163.331,168.18,173.241,177.532,182.3128,184.861,188.16,194.051,198.8318,201.38,205.671,210.732,216.624,222.6996,225.288,229.58,232.879,238.406,242.404,247.465,253.093,257.8738,260.421,264.916,269.977,276.06,281.121,286.718,289.664,292.609,295.555,298.855,304.43260000000004,306.962,312.023,317.914,323.9896,326.579,331.64,337.531,342.592,345.537,351.165,356.226,361.0068,363.565,366.864,372.755,377.5358,380.084,386.268,389.214,393.505,396.805,400.803,403.749,409.346,415.45,418.75,421.695,427.222,432.99879999999996,435.593,441.119,444.40580000000006,446.97,451.262,456.323,462.214,468.2896,470.878,473.824,479.6008,482.194,487.17400000000004,489.735,495.626,498.572,504.2,510.091,514.939" svgx:width="0.33,0.55,0.4,0.55,0.48,0.52,0.5,0.88,0.6,0.29,0.48,0.25,0.55,0.33,0.55,0.55,0.29,0.58,0.44,0.4,0.48,0.5,0.42,0.48,0.55,0.33,0.58,0.48,0.55,0.42,0.5,0.58,0.61,0.55,0.42,0.33,0.55,0.4,0.5,0.56,0.48,0.55,0.44,0.5,0.6,0.5,0.55,0.29,0.29,0.29,0.33,0.56,0.55,0.5,0.58,0.61,0.55,0.5,0.58,0.5,0.29,0.56,0.5,0.48,0.55,0.33,0.58,0.48,0.55,0.61,0.29,0.42,0.33,0.4,0.29,0.55,0.6,0.33,0.29,0.55,0.58,0.55,0.55,0.33,0.55,0.42,0.5,0.58,0.61,0.55,0.29,0.58,0.55,0.5,0.55,0.58,0.29,0.56,0.58,0.48,0.4" style="fill:rgb(0,0,0);font-family:URWPalladioL-Roma;font-size:9.96px;stroke:none;">for example, to increase the sand storage capability and analyze the distribution of sand in a higher</text>
   <text y="246.452" x="76.236,82.265,87.071,91.034,93.953,99.431,105.50659999999999,108.049,113.526,116.8128,119.365,122.626,125.545,134.403,139.209,141.699,145.208,148.589,154.3658,156.916,161.932,168.062,174.192,177.111,180.382,183.301,188.779,194.618,197.108,199.624,202.543,205.8298,208.302,216.669,219.588,222.507,225.3954,227.915,233.463,238.2438,240.756,246.595,251.401,255.855,260.66,264.914,269.168,274.184,278.147,283.7246,286.213,289.483,294.961,297.459,301.913,306.93,310.892,314.855,320.43260000000004,322.921,328.399,334.448,337.7348,340.207,349.065,354.543,358.325,363.1058,365.619,369.872,373.143,379.192,385.322,388.242,393.047,397.2302,399.799,402.718,408.4948,411.045,414.386,418.168,422.974,427.7548,430.267,436.337,441.142,444.061,450.1366,452.689,457.144,462.621,468.46,474.59,477.509,480.78,483.699,489.177,495.006,499.18919999999997,501.757,506.774,512.612" svgx:width="0.6,0.48,0.4,0.29,0.55,0.61,0.55,0.55,0.33,0.55,0.33,0.29,0.88,0.48,0.25,0.55,0.34,0.58,0.55,0.5,0.61,0.61,0.29,0.33,0.29,0.55,0.58,0.25,0.55,0.29,0.33,0.55,0.83,0.29,0.29,0.29,0.55,0.55,0.48,0.55,0.58,0.48,0.44,0.48,0.42,0.42,0.5,0.4,0.56,0.55,0.33,0.55,0.55,0.44,0.5,0.4,0.4,0.56,0.55,0.55,0.6,0.33,0.55,0.88,0.55,0.4,0.48,0.55,0.42,0.33,0.6,0.61,0.29,0.48,0.42,0.55,0.29,0.58,0.55,0.33,0.4,0.48,0.48,0.55,0.61,0.48,0.29,0.61,0.55,0.44,0.55,0.58,0.61,0.29,0.33,0.29,0.55,0.58,0.42,0.55,0.5,0.58,0.61" style="fill:rgb(0,0,0);font-family:URWPalladioL-Roma;font-size:9.96px;stroke:none;">period of time. In addition, it will be necessary to carry out more studies in free ﬁeld conditions and</text>
   <text y="259.961" x="76.535,79.802,85.28,87.77,93.894,98.694,104.357,109.158,112.074,117.547,123.523,126.066,132.089,137.561,145.92,150.721,154.679,158.017,164.06,166.9484,169.472,173.722,176.638,185.488,191.522,194.438,199.449,202.717,208.189,212.148,216.3312,218.893,222.16,227.638,230.128,236.171,242.004,248.128,252.929,256.888,261.137,264.404,269.416,275.249,281.32460000000003,283.868,288.879,294.712,300.7876,303.331,309.375,313.624,318.4048,320.921,324.188,330.021,334.8018,337.317,346.167,350.968,355.418,361.251,366.262,372.095,375.011,379.261,388.11,392.2932,394.845,398.113,403.946,408.957,412.2438,414.72,420.292,425.093,430.926,435.727,439.686,444.697,447.964,452.7448,455.26,458.528,464.361,469.1418,471.657,474.574,480.407,484.856,488.635,493.436,498.447,502.696,507.4768,509.993,512.909" svgx:width="0.33,0.55,0.55,0.61,0.48,0.56,0.48,0.29,0.55,0.6,0.55,0.6,0.55,0.83,0.48,0.4,0.33,0.6,0.29,0.55,0.42,0.29,0.88,0.6,0.29,0.5,0.33,0.55,0.4,0.42,0.55,0.33,0.55,0.55,0.6,0.58,0.61,0.48,0.4,0.42,0.33,0.5,0.58,0.61,0.55,0.5,0.58,0.61,0.55,0.6,0.42,0.48,0.55,0.33,0.58,0.48,0.55,0.88,0.48,0.44,0.58,0.5,0.58,0.29,0.42,0.88,0.42,0.55,0.33,0.58,0.5,0.33,0.55,0.56,0.48,0.58,0.48,0.4,0.5,0.33,0.48,0.55,0.33,0.58,0.48,0.55,0.29,0.58,0.44,0.4,0.48,0.5,0.42,0.48,0.55,0.29,0.58" style="fill:rgb(0,0,0);font-family:URWPalladioL-Roma;font-size:9.96px;stroke:none;">to develop powerful simulators to understand and use the mechanisms that generate the increase in</text>
   <text y="273.471" x="76.535,81.516,84.764,88.012,92.784,98.582,104.59,109.571,112.819,115.718,121.158,126.9348,129.446,135.434,140.206,144.141,147.459,152.898,156.834,165.631,170.612,176.41,180.833,185.6138,188.096,194.183,200.191,204.9718,207.454,210.701,216.179,218.632,221.879,227.678,232.4588,234.94,239.922,244.345,248.768,254.776,263.573,269.58,272.479,277.461,280.708,283.608,289.047,294.8238,297.336,302.776,306.06280000000004,308.584,312.808,317.789,323.588,329.66360000000003,332.165,337.147,340.4338,342.885,346.133,351.931,356.7118,359.194,364.703,369.685,373.909,378.6898,381.171,386.611,389.8978,392.419,395.667,401.465,404.364,408.5472,411.079,416.618,419.517,425.316,431.3916,433.893,439.333,442.61980000000005,445.141,449.365,453.789,457.545,462.317,467.089,472.887" svgx:width="0.5,0.33,0.33,0.48,0.58,0.6,0.5,0.33,0.29,0.55,0.58,0.55,0.6,0.48,0.4,0.33,0.55,0.4,0.88,0.5,0.58,0.44,0.48,0.55,0.61,0.6,0.48,0.55,0.33,0.55,0.55,0.33,0.58,0.48,0.55,0.5,0.44,0.44,0.6,0.88,0.6,0.29,0.5,0.33,0.29,0.55,0.58,0.55,0.55,0.33,0.55,0.42,0.5,0.58,0.61,0.55,0.5,0.33,0.55,0.33,0.58,0.48,0.55,0.55,0.5,0.42,0.48,0.55,0.55,0.33,0.55,0.33,0.58,0.29,0.42,0.55,0.56,0.29,0.58,0.61,0.55,0.55,0.33,0.55,0.42,0.44,0.4,0.48,0.48,0.58,0.25" style="fill:rgb(0,0,0);font-family:URWPalladioL-Roma;font-size:9.96px;stroke:none;">attenuation performance due to the accumulation of sand at the base of this kind of screen.</text>
   <text y="295.558" x="76.186,83.162,88.64,91.626,97.105,102.09,105.5883,108.949,115.423,120.408,125.887,128.873,132.361,135.346,140.825,146.303,149.289,152.275,157.26,162.739,166.72" svgx:width="0.78,0.61,0.33,0.61,0.56,0.39,0.55,0.72,0.56,0.61,0.33,0.39,0.33,0.61,0.61,0.33,0.33,0.56,0.61,0.44,0.25" style="fill:rgb(0,0,0);font-family:URWPalladioL-Bold;font-size:8.97px;stroke:none;">Author Contributions:</text>
   <text y="295.558" x="174.363,177.409,179.695,188.347,190.633,196.221,198.4635,201.883,209.51,212.958,217.952,220.933,225.2386,228.689,231.67,236.993,241.2986,244.749,250.245,254.818,260.315,264.695,268.283,271.683,276.256,281.578,287.0497,290.532,296.12,300.501,304.379,307.04,312.125,317.448,321.829,327.3007,330.792,333.773,339.096,343.40160000000003,346.851,351.232,355.951,361.448,365.829,369.441,372.103,380.178,384.559,389.882,392.864,395.1065,401.68,405.942,408.228,413.816,416.103,419.148,427.8,430.0425,433.462,441.089,444.537,449.531,452.512,456.8176,460.268,463.249,468.572,472.87760000000003,476.328,481.824,486.397,491.894,496.274,499.862,503.253,507.825,513.148" svgx:width="0.33,0.25,0.95,0.25,0.61,0.25,0.55,0.83,0.4,0.55,0.33,0.48,0.55,0.33,0.58,0.48,0.55,0.6,0.5,0.6,0.48,0.4,0.55,0.5,0.58,0.61,0.55,0.61,0.48,0.42,0.29,0.56,0.58,0.48,0.61,0.55,0.33,0.58,0.48,0.55,0.48,0.52,0.6,0.48,0.4,0.29,0.88,0.48,0.58,0.33,0.25,0.55,0.56,0.25,0.61,0.25,0.33,0.95,0.25,0.55,0.83,0.4,0.55,0.33,0.48,0.55,0.33,0.58,0.48,0.55,0.6,0.5,0.6,0.48,0.4,0.55,0.5,0.58,0.61" style="fill:rgb(0,0,0);font-family:URWPalladioL-Roma;font-size:8.97px;stroke:none;">J.M.B. wrote the paper and designed the experiment. F.B.-M. wrote the paper and</text>
   <text y="305.69" x="76.266,81.709,86.979,91.924,94.876,99.821,104.856,108.433,112.961,120.958,128.954,133.292,136.244,139.821,144.8442,147.084,155.081,159.419,162.371,167.642,172.586,178.12,183.064,185.699,190.644,195.679,199.718,201.9605,205.116,208.131,210.395,216.445,218.6875,220.946,226.388,229.803,234.747,239.864,242.499,248.032,252.37,257.8417,260.131,263.084,268.354,272.6596,274.92,277.555,282.826,285.461,288.413,291.049,295.577,298.1783,300.449,303.084,308.617,312.955,317.483,319.7255,321.975,326.503,330.524,335.469,340.93,344.769,347.722,350.357,354.3038,356.615,364.611,368.949,373.477,377.317,382.778,386.192,390.53,398.526,402.864,408.135,411.087,414.8544,417.154,421.682,426.953,432.4247,434.714,442.267,445.681,450.626,453.578,457.8836,460.153,463.105,468.376,472.6816,474.941,480.384,484.912,490.355,494.693,497.609,499.8515,503.006,511.573,513.837,518.048" svgx:width="0.6,0.58,0.55,0.33,0.55,0.56,0.4,0.5,0.88,0.88,0.48,0.33,0.4,0.56,0.55,0.88,0.48,0.33,0.58,0.55,0.61,0.55,0.29,0.55,0.56,0.56,0.25,0.55,0.33,0.25,0.67,0.25,0.55,0.6,0.4,0.55,0.56,0.29,0.61,0.48,0.61,0.55,0.33,0.58,0.48,0.55,0.29,0.58,0.29,0.33,0.29,0.5,0.29,0.55,0.29,0.61,0.48,0.5,0.25,0.55,0.5,0.44,0.55,0.6,0.42,0.33,0.29,0.44,0.55,0.88,0.48,0.5,0.42,0.6,0.4,0.48,0.88,0.48,0.58,0.33,0.42,0.55,0.5,0.58,0.61,0.55,0.83,0.4,0.55,0.33,0.48,0.55,0.33,0.58,0.48,0.55,0.6,0.5,0.6,0.48,0.4,0.25,0.55,0.95,0.25,0.56,0.25" style="fill:rgb(0,0,0);font-family:URWPalladioL-Roma;font-size:8.97px;stroke:none;">photogrammetry methodology. J.R. provided the initial idea, acoustic measurements and wrote the paper. M.F.</text>
   <text y="315.822" x="76.159,83.787,87.234,92.228,95.21,99.51559999999999,101.913,104.895,110.218,114.5236,116.912,122.409,126.982,132.478,136.859,139.804,142.0465,144.423,147.468,152.462,156.074,164.15,168.723,171.32430000000002,173.707,178.28,183.603,188.176,190.837,195.922,199.8,202.462,206.2294,208.653,213.226,218.549,224.0207,226.451,232.039,236.42,241.587,245.968,248.629,253.623,259.119,263.5,268.9717,271.402,274.384,279.706,284.01160000000004,286.401,290.974,295.035,300.028,305.543,309.421,312.402,315.064,319.124,323.697,326.2983,328.682,331.663,336.986,341.367,346.36,349.964,354.061,356.3035,359.704,362.75,365.036,370.487,372.773,377.575,379.861,382.907,387.269,389.5115,391.87,397.366,400.823,405.817,407.957,412.338,416.398,419.35810000000004,421.694,426.267,431.855,439.93,442.592,447.915,450.576,454.454,457.435,461.048,465.621,468.602,471.264,476.257,481.58,483.8225,486.199,489.244,494.759,500.082,505.67,508.331,513.654" svgx:width="0.83,0.4,0.55,0.33,0.48,0.55,0.33,0.58,0.48,0.55,0.6,0.5,0.6,0.48,0.4,0.25,0.55,0.33,0.55,0.4,0.88,0.5,0.29,0.55,0.5,0.58,0.5,0.29,0.56,0.42,0.29,0.42,0.55,0.5,0.58,0.61,0.55,0.61,0.48,0.56,0.48,0.29,0.55,0.6,0.48,0.61,0.55,0.33,0.58,0.48,0.55,0.5,0.44,0.55,0.6,0.42,0.33,0.29,0.44,0.5,0.29,0.55,0.33,0.58,0.48,0.55,0.4,0.56,0.25,0.55,0.33,0.25,0.72,0.25,0.52,0.25,0.33,0.6,0.25,0.55,0.6,0.4,0.55,0.23,0.48,0.44,0.33,0.55,0.5,0.61,0.88,0.29,0.58,0.29,0.42,0.33,0.4,0.5,0.33,0.29,0.55,0.58,0.25,0.55,0.33,0.6,0.58,0.61,0.29,0.58,0.56" style="fill:rgb(0,0,0);font-family:URWPalladioL-Roma;font-size:8.97px;stroke:none;">wrote the paper, formal analysis and developed the acoustical theory. J.V.S.-P. project administration, funding</text>
   <text y="325.954" x="76.535,81.018,84.999,90.02,95.427,98.036,101.838,104.447,107.37,109.98,114.875,120.0776,122.335,126.819,132.037,137.5087,139.757,147.235,150.777,153.386,156.309,158.918,164.137,169.122,178.088,181.469,185.764,190.83,193.439,197.734,205.1791,207.453,211.937,217.155,222.6267,224.875,229.17,234.649,237.258,240.181,242.79,248.008,252.994" svgx:width="0.5,0.44,0.56,0.6,0.29,0.42,0.29,0.33,0.29,0.55,0.58,0.55,0.5,0.58,0.61,0.55,0.83,0.4,0.29,0.33,0.29,0.58,0.56,1.0,0.4,0.48,0.56,0.29,0.48,0.83,0.55,0.5,0.58,0.61,0.55,0.48,0.61,0.29,0.33,0.29,0.58,0.56,0.25" style="fill:rgb(0,0,0);font-family:URWPalladioL-Roma;font-size:8.97px;stroke:none;">acquisition and writing—review and editing.</text>
   <text y="342.064" x="76.535,83.009,87.994,93.473,98.951,101.937,105.918,108.904,112.85079999999999,115.126,120.112,123.6103,125.841,129.329,134.808,137.793,142.277,145.765,150.248,154.229,157.215" svgx:width="0.72,0.56,0.61,0.61,0.33,0.44,0.33,0.44,0.55,0.56,0.39,0.55,0.39,0.61,0.33,0.5,0.39,0.5,0.44,0.33,0.25" style="fill:rgb(0,0,0);font-family:URWPalladioL-Bold;font-size:8.97px;stroke:none;">Conﬂicts of Interest:</text>
   <text y="342.064" x="162.594,168.09,173.309,177.6146,179.845,184.329,189.735,192.658,197.877,202.772,206.314,210.0814,212.358,217.836,222.131,226.112,228.721,233.204,236.585,240.8906,243.121,248.34,253.2735,255.477,259.458,264.354,269.572,275.024,277.633,281.614,284.5741,286.779,291.674,294.6341,296.902,299.511,304.729,307.652,311.947,315.328,319.623,323.424,326.347" svgx:width="0.61,0.58,0.48,0.55,0.5,0.6,0.33,0.58,0.55,0.4,0.42,0.55,0.61,0.48,0.44,0.29,0.5,0.4,0.48,0.55,0.58,0.55,0.55,0.44,0.55,0.58,0.61,0.29,0.44,0.33,0.55,0.55,0.33,0.55,0.29,0.58,0.33,0.48,0.4,0.48,0.42,0.33,0.25" style="fill:rgb(0,0,0);font-family:URWPalladioL-Roma;font-size:8.97px;stroke:none;">The authors declare no conﬂict of interest.</text>
   <text y="368.365" x="76.535,83.728,88.709,92.585,97.566,101.441,106.423,112.51,116.933,121.915" svgx:width="0.72,0.5,0.39,0.5,0.39,0.5,0.61,0.44,0.5,0.44" style="fill:rgb(0,0,0);font-family:URWPalladioL-Bold;font-size:9.96px;stroke:none;">References</text>
   <text y="387.254" x="76.535,81.018,83.26050000000001,98.05,103.638,110.00670000000001,112.857,119.936,122.597,126.054,130.435,134.496,137.477,140.139,145.306,149.687" svgx:width="0.5,0.25,0.55,0.61,0.71,0.55,0.77,0.29,0.4,0.48,0.44,0.33,0.29,0.56,0.48,0.25" style="fill:rgb(0,0,0);font-family:URWPalladioL-Roma;font-size:8.97px;stroke:none;">1. EC Directive.</text>
   <text y="387.254" x="156.598,163.713,166.256,169.649,173.207,176.929,179.974,182.517,187.09,190.5883,193.391,197.964,202.537,207.11" svgx:width="0.78,0.28,0.39,0.39,0.41,0.33,0.28,0.5,0.39,0.55,0.5,0.5,0.5,0.5" style="fill:rgb(0,0,0);font-family:URWPalladioL-Ital;font-size:8.97px;stroke:none;">Directive 2002</text>
   <text y="387.254" x="211.679" svgx:width="0.19" style="fill:rgb(0,0,0);font-family:Rpxi;font-size:8.97px;stroke:none;">/</text>
   <text y="387.254" x="213.426,217.999" svgx:width="0.5,0.5" style="fill:rgb(0,0,0);font-family:URWPalladioL-Ital;font-size:8.97px;stroke:none;">49</text>
   <text y="387.254" x="222.572" svgx:width="0.19" style="fill:rgb(0,0,0);font-family:Rpxi;font-size:8.97px;stroke:none;">/</text>
   <text y="387.254" x="224.319,229.907,235.9169,238.742,242.803,245.31459999999998,248.089,251.134,255.707,259.20529999999997,261.999,267.587,272.672,276.066,280.126,284.699,288.257,292.317,297.3402,300.146,305.734,309.795,313.353,315.895,318.438,322.498,329.614,333.171,338.256,341.2161,344.037,348.097,353.182,357.66700000000003,360.49,364.55,367.0616,369.837,372.882,377.455,380.9533,383.747,389.847,393.908,398.993,404.078,407.801,410.343,412.8546,415.62,419.681,422.19259999999997,424.967,429.54,434.02500000000003,436.847,439.893,444.978,450.063,453.56129999999996,456.364,460.937,465.51,470.083,474.56800000000004,477.39,483.491,487.048,489.591,493.651,496.697,499.239,504.324,508.809,511.632,514.677" svgx:width="0.61,0.67,0.55,0.44,0.28,0.55,0.33,0.5,0.39,0.55,0.61,0.56,0.39,0.44,0.5,0.39,0.44,0.56,0.55,0.61,0.44,0.39,0.28,0.28,0.44,0.78,0.39,0.56,0.33,0.55,0.44,0.56,0.5,0.55,0.44,0.28,0.55,0.33,0.5,0.39,0.55,0.67,0.44,0.56,0.56,0.41,0.28,0.28,0.55,0.44,0.28,0.55,0.5,0.5,0.55,0.33,0.56,0.56,0.39,0.55,0.5,0.5,0.5,0.5,0.55,0.67,0.39,0.28,0.44,0.33,0.28,0.56,0.5,0.55,0.33,0.44" style="fill:rgb(0,0,0);font-family:URWPalladioL-Ital;font-size:8.97px;stroke:none;">EC of the European Parliament and of the Council of 25 June 2002 Relating to</text>
   <text y="400.166" x="98.05,101.075,105.616,109.1143,111.375,117.933,121.466,124.999,128.532,132.066,135.599,142.666,146.199,151.249,154.2091,156.499,160.532,165.582,170.067,172.349,180.923,184.956,190.006,194.039,198.58,202.114,209.18,212.713,217.763,220.72310000000002,223.013,227.046,229.55759999999998,231.797,237.346,242.396,246.938,249.463,252.833,256.866,261.916,268.982,272.516,277.566,280.59,284.623,287.1346,289.374,296.44,300.473,302.998,306.531" svgx:width="0.33,0.5,0.39,0.55,0.72,0.39,0.39,0.39,0.39,0.39,0.78,0.39,0.56,0.33,0.55,0.44,0.56,0.5,0.55,0.94,0.44,0.56,0.44,0.5,0.39,0.78,0.39,0.56,0.33,0.55,0.44,0.28,0.55,0.61,0.56,0.5,0.28,0.39,0.44,0.56,0.78,0.39,0.56,0.33,0.44,0.28,0.55,0.78,0.44,0.28,0.39,0.39" style="fill:rgb(0,0,0);font-family:URWPalladioL-Ital;font-size:8.97px;stroke:none;">the Assessment and Management of Environmental Noise</text>
   <text y="400.166" x="310.065,312.3075,314.57,321.01,325.969,333.99,342.01,347.487,352.773,355.416,358.377,361.02,365.371,369.1384,371.448,376.9197,379.223,383.764,388.306,392.791,395.072,398.097,402.638,407.18,411.721,416.263,419.288,421.5305,423.784" svgx:width="0.25,0.55,0.71,0.55,0.88,0.88,0.6,0.58,0.29,0.33,0.29,0.48,0.42,0.55,0.61,0.55,0.5,0.5,0.5,0.55,0.33,0.5,0.5,0.5,0.5,0.33,0.25,0.55,0.79" style="fill:rgb(0,0,0);font-family:URWPalladioL-Roma;font-size:8.97px;stroke:none;">; Communities L 189 (2002); O</text>
   <text y="400.166" x="430.924" svgx:width="0.92" style="fill:rgb(0,0,0);font-family:Rpxr;font-size:8.97px;stroke:none;">ﬃ</text>
   <text y="400.166" x="439.271,443.304,445.947,450.488,453.0893,455.357,458.382,460.6245,462.878,468.427,473.904,476.829,479.1,481.34250000000003,484.504,490.054,493.569,499.046,502.897,506.748,511.099,513.742,517.593" svgx:width="0.44,0.29,0.5,0.29,0.55,0.33,0.25,0.55,0.61,0.6,0.4,0.25,0.25,0.55,0.61,0.4,0.6,0.42,0.42,0.48,0.29,0.42,0.25" style="fill:rgb(0,0,0);font-family:URWPalladioL-Roma;font-size:8.97px;stroke:none;">cial J. Eur.: Brussels,</text>
   <text y="413.077" x="98.05,103.528,107.823,110.433,115.418,118.027,123.434,131.351,133.5935,135.834,140.318,144.801,149.284,153.767" svgx:width="0.61,0.48,0.29,0.56,0.29,0.6,0.88,0.25,0.55,0.5,0.5,0.5,0.5,0.25" style="fill:rgb(0,0,0);font-family:URWPalladioL-Roma;font-size:8.97px;stroke:none;">Belgium, 2002.</text>
   <text y="425.989" x="76.535,81.018,83.26050000000001,98.05,105.129,109.51,115.006,119.579,123.192,126.173,134.249,138.63,143.952,146.9121,149.513,154.507,157.46710000000002,160.122,164.924,168.536,173.109,178.432,182.31,187.806,192.8,196.412,199.394,203.967,206.948,209.61,214.603,219.926,222.1685,224.874,229.959,234.34,239.928,244.308,247.921,252.494,255.0953,257.725,265.335,267.996,273.081,278.404,286.031,290.604,295.62719999999996,298.268,305.384,310.972,319.047,321.709,327.032,329.693,333.571,336.552,340.165,344.738,347.719,350.381,355.374,360.57660000000004,363.267,370.382,375.184,382.299" svgx:width="0.5,0.25,0.55,0.77,0.48,0.6,0.5,0.4,0.33,0.88,0.48,0.58,0.33,0.55,0.55,0.33,0.55,0.61,0.4,0.5,0.58,0.42,0.6,0.55,0.4,0.33,0.5,0.33,0.29,0.55,0.58,0.25,0.55,0.56,0.48,0.61,0.48,0.4,0.5,0.29,0.55,0.83,0.29,0.56,0.58,0.83,0.5,0.56,0.55,0.78,0.61,0.88,0.29,0.58,0.29,0.42,0.33,0.4,0.5,0.33,0.29,0.55,0.58,0.55,0.78,0.52,0.78,0.25" style="fill:rgb(0,0,0);font-family:URWPalladioL-Roma;font-size:8.97px;stroke:none;">2. Department of Transportation, Federal Highway Administration USA.</text>
   <text y="425.989" x="387.165,393.265,396.823,400.381,404.953,407.496,412.581,417.06600000000003,419.733,422.778,427.351,430.84929999999997,433.479,440.594,444.655,447.198,450.755,454.25329999999997,456.892,464.007,468.068,474.671,479.756,481.9985,484.704,491.82,494.362,498.935,503.508,510.111,514.172" svgx:width="0.67,0.39,0.39,0.5,0.28,0.56,0.5,0.55,0.33,0.5,0.39,0.55,0.78,0.44,0.28,0.39,0.39,0.55,0.78,0.44,0.72,0.56,0.25,0.55,0.78,0.28,0.5,0.5,0.72,0.44,0.5" style="fill:rgb(0,0,0);font-family:URWPalladioL-Ital;font-size:8.97px;stroke:none;">Keeping the Noise Down, Highway</text>
   <text y="438.901" x="97.504,101.992,105.483" svgx:width="0.61,0.39,0.44" style="fill:rgb(0,0,0);font-family:URWPalladioL-Ital;font-size:8.97px;stroke:none;">Tra</text>
   <text y="438.901" x="109.468" svgx:width="0.77" style="fill:rgb(0,0,0);font-family:Rpxi;font-size:8.97px;stroke:none;">ﬃ</text>
   <text y="438.901" x="116.379,120.0567,122.267,129.25,133.235,135.73,139.221,142.7193,144.939,150.423,154.408,157.899,161.39,163.886,167.377,170.868" svgx:width="0.41,0.55,0.78,0.44,0.28,0.39,0.39,0.55,0.61,0.44,0.39,0.39,0.28,0.39,0.39,0.39" style="fill:rgb(0,0,0);font-family:URWPalladioL-Ital;font-size:8.97px;stroke:none;">c Noise Barriers</text>
   <text y="438.901" x="174.361,176.6035,178.84,183.83,188.129,193.613,197.912,201.458,205.945,208.5463,210.792,218.259,220.871,225.862,231.085,238.571,243.058,248.0812,250.275,257.257,262.741,270.667,273.279,278.502,281.114,284.92,287.846,291.391,295.878,298.804,301.416,306.317,311.5196,313.775,320.758,325.47,332.453,334.6955,336.923,345.072,349.56,353.366,358.589,361.201,366.425,371.415,374.341,379.242,384.465,386.7075,388.944,395.891,402.254,404.4965,406.733,413.716,418.428,425.411,427.6535,429.881,434.368,438.856,443.344,447.831,450.0735,453.217,459.374,464.445,468.932,471.544,474.156,478.644,483.607,486.219,490.5246,492.744,497.645,502.868,505.48,508.092,513.316,517.615" svgx:width="0.25,0.55,0.56,0.48,0.61,0.48,0.4,0.5,0.29,0.55,0.83,0.29,0.56,0.58,0.83,0.5,0.56,0.55,0.78,0.61,0.88,0.29,0.58,0.29,0.42,0.33,0.4,0.5,0.33,0.29,0.55,0.58,0.55,0.78,0.52,0.78,0.25,0.55,1.0,0.5,0.42,0.58,0.29,0.58,0.56,0.33,0.55,0.58,0.25,0.55,0.77,0.71,0.25,0.55,0.78,0.52,0.78,0.25,0.55,0.5,0.5,0.5,0.5,0.25,0.55,0.78,0.56,0.5,0.29,0.29,0.5,0.55,0.29,0.48,0.55,0.55,0.58,0.29,0.29,0.58,0.48,0.25" style="fill:rgb(0,0,0);font-family:URWPalladioL-Roma;font-size:8.97px;stroke:none;">; Federal Highway Administration USA: Washington, DC, USA, 2001. Available online:</text>
   <text y="451.812" x="98.05,103.221,106.118,109.015,114.355,118.123" svgx:width="0.58,0.33,0.33,0.6,0.42,0.25" style="fill:rgb(8,117,183);font-family:URWPalladioL-Roma;font-size:8.97px;stroke:none;">https:</text>
   <text y="451.812" x="120.344,122.894" svgx:width="0.29,0.29" style="fill:rgb(8,117,183);font-family:Rpxr;font-size:8.97px;stroke:none;">//</text>
   <text y="451.812" x="125.534,132.945,140.355,146.94,149.161,152.12,157.291,164.702,169.145,171.366,176.796,181.647,184.544,186.765,191.706,196.557" svgx:width="0.83,0.83,0.83,0.25,0.33,0.58,0.83,0.5,0.25,0.61,0.55,0.33,0.25,0.56,0.55,0.56" style="fill:rgb(8,117,183);font-family:URWPalladioL-Roma;font-size:8.97px;stroke:none;">www.fhwa.dot.gov</text>
   <text y="451.812" x="201.579" svgx:width="0.29" style="fill:rgb(8,117,183);font-family:Rpxr;font-size:8.97px;stroke:none;">/</text>
   <text y="451.812" x="204.219,208.475,213.647,218.667,221.253,224.603,229.454,234.626,242.472,246.728,251.9" svgx:width="0.48,0.58,0.56,0.29,0.4,0.55,0.58,0.88,0.48,0.58,0.33" style="fill:rgb(8,117,183);font-family:URWPalladioL-Roma;font-size:8.97px;stroke:none;">environment</text>
   <text y="451.812" x="254.794" svgx:width="0.29" style="fill:rgb(8,117,183);font-family:Rpxr;font-size:8.97px;stroke:none;">/</text>
   <text y="451.812" x="257.434,262.605,267.457,270.043,273.81" svgx:width="0.58,0.55,0.29,0.42,0.48" style="fill:rgb(8,117,183);font-family:URWPalladioL-Roma;font-size:8.97px;stroke:none;">noise</text>
   <text y="451.812" x="278.066" svgx:width="0.29" style="fill:rgb(8,117,183);font-family:Rpxr;font-size:8.97px;stroke:none;">/</text>
   <text y="451.812" x="280.706,285.877,290.729,293.315,297.082,301.339,305.781,310.695,315.138,318.648,322.158,324.744,329.0,332.51" svgx:width="0.58,0.55,0.29,0.42,0.48,0.5,0.55,0.5,0.4,0.4,0.29,0.48,0.4,0.42" style="fill:rgb(8,117,183);font-family:URWPalladioL-Roma;font-size:8.97px;stroke:none;">noise_barriers</text>
   <text y="451.812" x="336.276" svgx:width="0.29" style="fill:rgb(8,117,183);font-family:Rpxr;font-size:8.97px;stroke:none;">/</text>
   <text y="451.812" x="338.916,344.345,348.601,352.369,354.955,359.895,365.067,369.509,373.455,378.306,383.478,387.245,390.142,393.581,398.939,402.884,405.781,408.367,413.218" svgx:width="0.61,0.48,0.42,0.29,0.56,0.58,0.5,0.44,0.55,0.58,0.42,0.33,0.4,0.6,0.44,0.33,0.29,0.55,0.58" style="fill:rgb(8,117,183);font-family:URWPalladioL-Roma;font-size:8.97px;stroke:none;">design_construction</text>
   <text y="451.812" x="418.388" svgx:width="0.29" style="fill:rgb(8,117,183);font-family:Rpxr;font-size:8.97px;stroke:none;">/</text>
   <text y="451.812" x="421.028,425.968,430.225,434.481,439.821,445.25,450.102,457.513,462.684,464.906,468.851,471.81" svgx:width="0.56,0.48,0.48,0.6,0.61,0.55,0.83,0.58,0.25,0.44,0.33,0.88" style="fill:rgb(8,117,183);font-family:URWPalladioL-Roma;font-size:8.97px;stroke:none;">keepdown.cfm</text>
   <text y="451.812" x="481.975,484.934,489.377,493.322,497.267,501.524,505.291,509.059,513.315" svgx:width="0.33,0.5,0.44,0.44,0.48,0.42,0.42,0.48,0.61" style="fill:rgb(0,0,0);font-family:URWPalladioL-Roma;font-size:8.97px;stroke:none;">(accessed</text>
   <text y="464.724" x="98.05,102.946,108.1486,110.406,114.891,117.131,121.838,126.133,131.522,134.445,138.74,146.657,151.615,155.91,159.498,161.694,166.177,170.66,175.143,179.626,182.612" svgx:width="0.55,0.58,0.55,0.5,0.55,0.52,0.48,0.6,0.33,0.48,0.88,0.55,0.48,0.4,0.55,0.5,0.5,0.5,0.5,0.33,0.25" style="fill:rgb(0,0,0);font-family:URWPalladioL-Roma;font-size:8.97px;stroke:none;">on 2 September 2019).</text>
   <text y="477.635" x="76.535,81.018,83.26050000000001,98.05,104.534,109.107,112.985,115.966,118.628,123.951,128.331,130.993,134.605,139.178,142.224,145.306,150.364,154.936,160.259,164.64,169.213,171.4555,173.96,178.761,181.047,183.2895,185.904,192.013,197.528,202.586,205.247,210.241,212.48350000000002,214.987,221.472,223.758,226.00050000000002,228.614" svgx:width="0.5,0.25,0.55,0.71,0.5,0.42,0.33,0.29,0.58,0.48,0.29,0.4,0.5,0.33,0.34,0.55,0.5,0.58,0.48,0.5,0.25,0.55,0.52,0.25,0.25,0.55,0.67,0.6,0.55,0.29,0.55,0.25,0.55,0.71,0.25,0.25,0.55,0.52" style="fill:rgb(0,0,0);font-family:URWPalladioL-Roma;font-size:8.97px;stroke:none;">3. Castiñeira-Ibañez, S.; Rubio, C.; S</text>
   <text y="477.635" x="233.413" svgx:width="0.5" style="fill:rgb(0,0,0);font-family:VnURWPalladioL;font-size:8.97px;stroke:none;">á</text>
   <text y="477.635" x="237.896,243.219,247.28,252.602,256.983,261.556,264.602" svgx:width="0.58,0.44,0.58,0.48,0.5,0.33,0.6" style="fill:rgb(0,0,0);font-family:URWPalladioL-Roma;font-size:8.97px;stroke:none;">nchez-P</text>
   <text y="477.635" x="270.125" svgx:width="0.48" style="fill:rgb(0,0,0);font-family:VnURWPalladioL;font-size:8.97px;stroke:none;">é</text>
   <text y="477.635" x="274.42,277.868,282.249,286.822,289.0645,291.568,294.614,296.9,302.351,304.5935,307.098,312.686,318.009,323.176,325.837,329.285,334.279,339.602,347.677,352.058,357.381,360.362,364.935,367.5363,370.057,375.38,380.373,383.035,386.912,391.2176,393.753,397.814,402.808,408.131,411.112,414.56,419.554,422.15529999999995,424.675,430.263,435.778,439.391,442.052,447.375,452.3982,454.92,457.581,460.563,464.3304,466.901,469.882,473.495,478.068,483.391,487.268,495.344,498.006,501.883,505.761,508.423,513.416" svgx:width="0.4,0.48,0.5,0.25,0.55,0.33,0.25,0.72,0.25,0.55,0.61,0.58,0.56,0.29,0.4,0.55,0.58,0.88,0.48,0.58,0.33,0.5,0.29,0.55,0.58,0.55,0.29,0.42,0.48,0.55,0.44,0.55,0.58,0.33,0.4,0.55,0.29,0.55,0.61,0.6,0.4,0.29,0.58,0.56,0.55,0.29,0.33,0.42,0.55,0.33,0.4,0.5,0.58,0.42,0.88,0.29,0.42,0.42,0.29,0.55,0.58" style="fill:rgb(0,0,0);font-family:URWPalladioL-Roma;font-size:8.97px;stroke:none;">rez, J.V. Environmental noise control during its transmission</text>
   <text y="490.547" x="97.781,103.278,108.6,113.173,117.051,121.3566,124.944,127.925,132.8585,136.431,141.927,145.385,150.378,153.36,157.74,161.801,164.7611,168.295,173.352,178.867,181.528,184.19,189.778,192.439,197.762,202.847,206.725,208.9675,215.962,223.041,227.422,231.299,233.961,239.046,244.24859999999998,247.881,255.956,260.95,266.538,270.919,273.52029999999996,277.092,280.138,285.131,288.719,292.256,296.829,300.889,305.883,311.398,315.276,318.257,320.918,324.8648,328.5,333.549,338.122,341.734,345.347,348.008,352.389,356.001,359.7684,363.4,368.458,373.031,376.909,381.289,386.7607,390.389,395.383,400.5856,404.218,408.791,412.403,416.016,420.589,425.674,429.4414,433.063,438.057,441.0171,444.614,447.276,451.154,456.147,458.809,463.381,466.363,470.744,476.2157,479.844,483.721,487.782,492.355,495.337,498.318,502.699,506.156,510.537,514.149,518.027" svgx:width="0.6,0.58,0.5,0.42,0.48,0.55,0.33,0.55,0.55,0.6,0.4,0.55,0.33,0.48,0.44,0.33,0.55,0.55,0.6,0.29,0.29,0.61,0.29,0.58,0.56,0.42,0.25,0.55,0.77,0.48,0.42,0.29,0.56,0.58,0.55,0.88,0.55,0.61,0.48,0.29,0.55,0.33,0.55,0.4,0.55,0.5,0.44,0.55,0.6,0.42,0.33,0.29,0.44,0.55,0.55,0.5,0.4,0.4,0.29,0.48,0.4,0.42,0.55,0.55,0.5,0.42,0.48,0.61,0.55,0.55,0.58,0.55,0.5,0.4,0.4,0.5,0.56,0.42,0.55,0.55,0.33,0.55,0.29,0.42,0.55,0.29,0.5,0.33,0.48,0.61,0.55,0.42,0.44,0.5,0.33,0.33,0.48,0.4,0.48,0.4,0.42,0.25" style="fill:rgb(0,0,0);font-family:URWPalladioL-Roma;font-size:8.97px;stroke:none;">phase to protect buildings. Design model for acoustic barriers based on arrays of isolated scatterers.</text>
   <text y="503.459" x="97.773,103.251,108.237,110.729,113.222,117.705,119.9475,122.189,127.667,132.652,137.135,139.628,142.955,146.936,151.921" svgx:width="0.61,0.56,0.28,0.28,0.5,0.25,0.55,0.61,0.56,0.5,0.28,0.39,0.44,0.56,0.25" style="fill:rgb(0,0,0);font-family:URWPalladioL-Ital;font-size:8.97px;stroke:none;">Build. Environ.</text>
   <text y="503.459" x="157.3,161.783,166.266,170.75" svgx:width="0.5,0.5,0.5,0.5" style="fill:rgb(0,0,0);font-family:URWPalladioL-Bold;font-size:8.97px;stroke:none;">2015</text>
   <text y="503.459" x="175.232" svgx:width="0.25" style="fill:rgb(0,0,0);font-family:URWPalladioL-Roma;font-size:8.97px;stroke:none;">,</text>
   <text y="503.459" x="179.716,184.199" svgx:width="0.5,0.5" style="fill:rgb(0,0,0);font-family:URWPalladioL-Ital;font-size:8.97px;stroke:none;">93</text>
   <text y="503.459" x="188.682,190.9245,193.165,197.648,202.132,206.615,211.098,215.581,220.064,224.548,226.7905,229.927" svgx:width="0.25,0.55,0.5,0.5,0.5,0.5,0.5,0.5,0.5,0.25,0.55,0.33" style="fill:rgb(0,0,0);font-family:URWPalladioL-Roma;font-size:8.97px;stroke:none;">, 179–185. [</text>
   <text y="503.459" x="232.913,239.27,242.651,247.546,251.348,255.15,261.139,265.434" svgx:width="0.71,0.4,0.55,0.42,0.42,0.67,0.48,0.33" style="fill:rgb(8,117,183);font-family:URWPalladioL-Roma;font-size:8.97px;stroke:none;">CrossRef</text>
   <text y="503.459" x="268.42" svgx:width="0.33" style="fill:rgb(0,0,0);font-family:URWPalladioL-Roma;font-size:8.97px;stroke:none;">]</text>
   <text y="516.37" x="76.535,81.018,83.26050000000001,98.05,103.045,106.432,110.736,116.225,118.84,123.332,128.561,132.864,135.479,138.093,140.708,142.9505,145.2,150.689,152.935,155.1775,157.418,164.372,168.676,171.2773,173.536,178.963,181.577,186.07,190.562,195.467,197.70950000000002,199.959,206.949,209.195,211.4375,213.687,219.177,221.791,225.78,228.395,231.324,234.872,239.365,241.60750000000002,243.848,250.703,252.9455,255.195,261.196,265.5,269.489,273.792,279.021,281.9811,284.196,291.15,295.454,300.53,304.824,307.439,312.344,317.744,325.677,329.981,335.209,338.138,341.9054,344.194,346.808,352.0106,354.283,359.0,363.905,369.134,371.749,375.6958,377.975,384.345,387.894,392.889,396.698,399.627,404.119,406.734,410.5014,412.789,417.281,421.0484,423.337,428.826,433.318,436.867,440.416,443.03,447.334,450.883,454.6504,456.929,459.921,464.826,468.41400000000004,470.621,476.623,481.528,486.02,491.4917,493.756,498.455,502.004" svgx:width="0.5,0.25,0.55,0.56,0.4,0.48,0.61,0.29,0.5,0.58,0.48,0.29,0.29,0.29,0.25,0.55,0.61,0.25,0.25,0.55,0.77,0.48,0.29,0.55,0.6,0.29,0.5,0.5,0.55,0.25,0.55,0.78,0.25,0.25,0.55,0.61,0.29,0.44,0.29,0.33,0.4,0.5,0.25,0.55,0.76,0.25,0.55,0.67,0.48,0.44,0.48,0.58,0.33,0.55,0.77,0.48,0.56,0.48,0.29,0.55,0.6,0.88,0.48,0.58,0.33,0.42,0.55,0.29,0.58,0.55,0.52,0.55,0.58,0.29,0.44,0.55,0.71,0.4,0.56,0.42,0.33,0.5,0.29,0.42,0.55,0.5,0.42,0.55,0.61,0.5,0.4,0.4,0.29,0.48,0.4,0.42,0.55,0.33,0.55,0.4,0.55,0.67,0.55,0.5,0.61,0.55,0.61,0.4,0.5" style="fill:rgb(0,0,0);font-family:URWPalladioL-Roma;font-size:8.97px;stroke:none;">4. Fredianelli, L.; Del Pizzo, A.; Licitra, G. Recent Developments in Sonic Crystals as Barriers for Road Tra</text>
   <text y="516.37" x="506.495" svgx:width="0.92" style="fill:rgb(0,0,0);font-family:Rpxr;font-size:8.97px;stroke:none;">ﬃ</text>
   <text y="516.37" x="514.751" svgx:width="0.44" style="fill:rgb(0,0,0);font-family:URWPalladioL-Roma;font-size:8.97px;stroke:none;">c</text>
   <text y="529.282" x="98.05,105.501,110.397,113.006,116.808,121.1136,123.344,131.826,134.436,137.359,139.968,144.953,149.436,152.359,154.969,159.864,165.083" svgx:width="0.83,0.55,0.29,0.42,0.48,0.55,0.95,0.29,0.33,0.29,0.56,0.5,0.33,0.29,0.55,0.58,0.25" style="fill:rgb(0,0,0);font-family:URWPalladioL-Roma;font-size:8.97px;stroke:none;">Noise Mitigation.</text>
   <text y="529.282" x="170.462,175.94,180.926,185.409,187.902,191.228,195.209,200.195,207.17,210.658,215.644,218.63" svgx:width="0.61,0.56,0.5,0.28,0.39,0.44,0.56,0.78,0.39,0.56,0.33,0.39" style="fill:rgb(0,0,0);font-family:URWPalladioL-Ital;font-size:8.97px;stroke:none;">Environments</text>
   <text y="529.282" x="224.358,228.841,233.324,237.808" svgx:width="0.5,0.5,0.5,0.5" style="fill:rgb(0,0,0);font-family:URWPalladioL-Bold;font-size:8.97px;stroke:none;">2019</text>
   <text y="529.282" x="242.291" svgx:width="0.25" style="fill:rgb(0,0,0);font-family:URWPalladioL-Roma;font-size:8.97px;stroke:none;">,</text>
   <text y="529.282" x="246.774" svgx:width="0.5" style="fill:rgb(0,0,0);font-family:URWPalladioL-Ital;font-size:8.97px;stroke:none;">6</text>
   <text y="529.282" x="251.257,253.4995,255.74,260.223,264.707,266.9495,270.086" svgx:width="0.25,0.55,0.5,0.5,0.25,0.55,0.33" style="fill:rgb(0,0,0);font-family:URWPalladioL-Roma;font-size:8.97px;stroke:none;">, 14. [</text>
   <text y="529.282" x="273.072,279.429,282.81,287.705,291.507,295.309,301.298,305.593" svgx:width="0.71,0.4,0.55,0.42,0.42,0.67,0.48,0.33" style="fill:rgb(8,117,183);font-family:URWPalladioL-Roma;font-size:8.97px;stroke:none;">CrossRef</text>
   <text y="529.282" x="308.579" svgx:width="0.33" style="fill:rgb(0,0,0);font-family:URWPalladioL-Roma;font-size:8.97px;stroke:none;">]</text>
   <text y="542.193" x="76.535,81.018,83.26050000000001,98.05,106.507,110.977,114.508" svgx:width="0.5,0.25,0.55,0.95,0.5,0.4,0.33" style="fill:rgb(0,0,0);font-family:URWPalladioL-Roma;font-size:8.97px;stroke:none;">5. Mart</text>
   <text y="542.193" x="117.422" svgx:width="0.29" style="fill:rgb(0,0,0);font-family:VnURWPalladioL;font-size:8.97px;stroke:none;">í</text>
   <text y="542.193" x="119.995,125.198,129.48,133.95,136.926,141.62,146.089,148.691,153.161,155.4035,157.63,163.602,165.837,168.0795,170.307,175.0,179.47,184.672,188.641,193.844,198.725,200.9675,203.195,206.172,208.407,210.64950000000002,212.876" svgx:width="0.58,0.48,0.5,0.33,0.52,0.5,0.29,0.5,0.25,0.55,0.67,0.25,0.25,0.55,0.52,0.5,0.58,0.44,0.58,0.55,0.25,0.55,0.33,0.25,0.25,0.55,0.52" style="fill:rgb(0,0,0);font-family:URWPalladioL-Roma;font-size:8.97px;stroke:none;">nez-Sala, R.; Sancho, J.; S</text>
   <text y="542.193" x="217.574" svgx:width="0.5" style="fill:rgb(0,0,0);font-family:VnURWPalladioL;font-size:8.97px;stroke:none;">á</text>
   <text y="542.193" x="222.057,227.26,231.229,236.432,240.714,245.184,248.16" svgx:width="0.58,0.44,0.58,0.48,0.5,0.33,0.6" style="fill:rgb(0,0,0);font-family:URWPalladioL-Roma;font-size:8.97px;stroke:none;">nchez-P</text>
   <text y="542.193" x="253.559" svgx:width="0.48" style="fill:rgb(0,0,0);font-family:VnURWPalladioL;font-size:8.97px;stroke:none;">é</text>
   <text y="542.193" x="257.854,261.224,265.506,269.976,272.2185,274.446,277.423,279.657,284.959,287.193,289.4355,291.663" svgx:width="0.4,0.48,0.5,0.25,0.55,0.33,0.25,0.72,0.25,0.25,0.55,0.76" style="fill:rgb(0,0,0);font-family:URWPalladioL-Roma;font-size:8.97px;stroke:none;">rez, J.V.; G</text>
   <text y="542.193" x="298.482" svgx:width="0.55" style="fill:rgb(0,0,0);font-family:VnURWPalladioL;font-size:8.97px;stroke:none;">ó</text>
   <text y="542.193" x="303.378,311.272,315.554,320.023,322.26550000000003,324.493,329.794,332.029,334.2715,336.499,341.961,344.562,347.164,352.366,356.836,360.206,364.488,368.279,370.5215,372.748,375.725,377.96,380.2025,382.43,390.887,395.169,398.959,403.241,408.211,413.602,417.884,420.753,422.9955,425.223,429.362,431.60450000000003,433.832,438.525,443.406,448.797,453.999,459.4707,461.696,466.166,469.08,471.995,476.277,481.479,486.87,491.34,494.254,496.855,501.736,506.9386,509.174,514.118" svgx:width="0.88,0.48,0.5,0.25,0.55,0.72,0.25,0.25,0.55,0.61,0.29,0.29,0.58,0.5,0.4,0.48,0.42,0.25,0.55,0.33,0.25,0.25,0.55,0.95,0.48,0.42,0.48,0.56,0.6,0.48,0.4,0.25,0.55,0.56,0.25,0.55,0.52,0.55,0.6,0.58,0.61,0.55,0.5,0.33,0.33,0.48,0.58,0.6,0.5,0.33,0.29,0.55,0.58,0.55,0.55,0.56" style="fill:rgb(0,0,0);font-family:URWPalladioL-Roma;font-size:8.97px;stroke:none;">mez, V.; Llinares, J.; Meseguer, F. Sound attenuation by</text>
   <text y="555.105" x="98.05,101.852,105.833,111.24,113.849,119.238,122.161,127.567,130.948,135.243" svgx:width="0.42,0.44,0.6,0.29,0.6,0.33,0.6,0.4,0.48,0.25" style="fill:rgb(0,0,0);font-family:URWPalladioL-Roma;font-size:8.97px;stroke:none;">sculpture.</text>
   <text y="555.105" x="140.622,147.598,151.579,154.565,159.55,162.877" svgx:width="0.78,0.44,0.33,0.56,0.39,0.39" style="fill:rgb(0,0,0);font-family:URWPalladioL-Ital;font-size:8.97px;stroke:none;">Nature</text>
   <text y="555.105" x="168.606,173.089,177.572,182.056" svgx:width="0.5,0.5,0.5,0.5" style="fill:rgb(0,0,0);font-family:URWPalladioL-Bold;font-size:8.97px;stroke:none;">1995</text>
   <text y="555.105" x="186.539" svgx:width="0.25" style="fill:rgb(0,0,0);font-family:URWPalladioL-Roma;font-size:8.97px;stroke:none;">,</text>
   <text y="555.105" x="191.022,195.505,199.988" svgx:width="0.5,0.5,0.5" style="fill:rgb(0,0,0);font-family:URWPalladioL-Ital;font-size:8.97px;stroke:none;">378</text>
   <text y="555.105" x="204.471,206.7135,208.954,213.437,217.921,222.404,224.6465,227.784" svgx:width="0.25,0.55,0.5,0.5,0.5,0.25,0.55,0.33" style="fill:rgb(0,0,0);font-family:URWPalladioL-Roma;font-size:8.97px;stroke:none;">, 241. [</text>
   <text y="555.105" x="230.769,237.127,240.507,245.403,249.204,253.006,258.996,263.291" svgx:width="0.71,0.4,0.55,0.42,0.42,0.67,0.48,0.33" style="fill:rgb(8,117,183);font-family:URWPalladioL-Roma;font-size:8.97px;stroke:none;">CrossRef</text>
   <text y="555.105" x="266.276" svgx:width="0.33" style="fill:rgb(0,0,0);font-family:URWPalladioL-Roma;font-size:8.97px;stroke:none;">]</text>
   <text y="568.017" x="76.535,81.018,83.26050000000001,98.05,106.702,111.695,115.308,119.881,125.204,130.792,133.453,135.6955,138.428,142.69,144.977,147.2195,150.181,158.833,161.494,166.817,169.478,174.051,178.112,180.773,183.0155,185.748,194.4,196.687,198.92950000000002,201.891,210.542,215.115,218.728,223.301,227.874,233.196,235.858,238.1005,240.833,247.948,250.235,252.47750000000002,255.439,261.027,265.6,269.212,274.27,278.843,282.291,286.671,290.549,293.211,295.4535,298.186,303.774,306.06,308.3025,311.264,318.243,322.815,326.428,331.001,333.662,335.9045,338.638,347.289,349.5315,352.274,357.075,360.057,364.63,369.953,375.541,380.113,383.561,389.149,391.811,395.689,400.069,405.5407,408.346,412.919,416.98,421.973,427.488,431.366,434.348,437.009,440.9558,443.759,447.819,453.142,457.715,461.327,465.9,469.961,472.943,477.323,480.936,483.597,487.475,492.048,495.029,497.691,502.684,507.88660000000004,510.705,515.699" svgx:width="0.5,0.25,0.55,0.95,0.55,0.4,0.5,0.58,0.61,0.29,0.25,0.55,0.56,0.25,0.25,0.55,0.95,0.29,0.58,0.29,0.5,0.44,0.29,0.25,0.55,0.95,0.25,0.25,0.55,0.95,0.5,0.4,0.5,0.5,0.58,0.29,0.25,0.55,0.78,0.25,0.25,0.55,0.61,0.5,0.4,0.55,0.5,0.4,0.48,0.42,0.29,0.25,0.55,0.61,0.25,0.25,0.55,0.76,0.5,0.4,0.5,0.29,0.25,0.55,0.95,0.25,0.55,0.52,0.33,0.5,0.58,0.61,0.5,0.4,0.61,0.29,0.42,0.48,0.61,0.55,0.5,0.44,0.55,0.6,0.42,0.33,0.29,0.44,0.55,0.44,0.58,0.5,0.4,0.5,0.44,0.33,0.48,0.4,0.29,0.42,0.5,0.33,0.29,0.55,0.58,0.55,0.55,0.33" style="fill:rgb(0,0,0);font-family:URWPalladioL-Roma;font-size:8.97px;stroke:none;">6. Morandi, F.; Miniaci, M.; Marzani, A.; Barbaresi, L.; Garai, M. Standardised acoustic characterisation of</text>
   <text y="580.928" x="98.05,101.928,106.921,112.244,114.906,118.8528,121.189,125.249,128.862,133.947,137.825,140.806,145.379,148.041,151.8084,154.15,159.473,164.466,167.128,171.005,175.3106,177.609,182.666,187.239,190.852,194.464,197.126,201.506,205.119,208.997,211.23950000000002,214.411,219.213,224.206,229.721,235.044,240.5157,242.854,245.516,250.839,254.716,260.231,262.893,267.465,270.447,273.108,278.102,283.3046,285.647,290.22,295.543,301.0147,303.362,306.81,311.191,316.752,321.133,325.193,328.175,330.836,335.83,341.0326,343.375,348.872,352.329,357.322,362.819,367.2,370.812,373.794,376.455,380.836,384.714" svgx:width="0.42,0.55,0.58,0.29,0.44,0.55,0.44,0.4,0.56,0.42,0.33,0.5,0.29,0.42,0.55,0.58,0.55,0.29,0.42,0.48,0.55,0.55,0.5,0.4,0.4,0.29,0.48,0.4,0.42,0.25,0.55,0.52,0.55,0.6,0.58,0.61,0.55,0.29,0.58,0.42,0.6,0.29,0.5,0.33,0.29,0.55,0.58,0.55,0.5,0.58,0.61,0.55,0.4,0.48,0.61,0.48,0.44,0.33,0.29,0.55,0.58,0.55,0.6,0.4,0.55,0.6,0.48,0.4,0.33,0.29,0.48,0.42,0.25" style="fill:rgb(0,0,0);font-family:URWPalladioL-Roma;font-size:8.97px;stroke:none;">sonic crystals noise barriers: Sound insulation and reﬂection properties.</text>
   <text y="580.928" x="390.129,396.732,401.305,405.878,408.42,410.6625,413.835,420.438,424.16,428.221,433.306,436.864,439.909" svgx:width="0.72,0.5,0.5,0.28,0.25,0.55,0.72,0.41,0.44,0.56,0.39,0.33,0.25" style="fill:rgb(0,0,0);font-family:URWPalladioL-Ital;font-size:8.97px;stroke:none;">Appl. Acoust.</text>
   <text y="580.928" x="445.332,449.815,454.298,458.782" svgx:width="0.5,0.5,0.5,0.5" style="fill:rgb(0,0,0);font-family:URWPalladioL-Bold;font-size:8.97px;stroke:none;">2016</text>
   <text y="580.928" x="463.265" svgx:width="0.25" style="fill:rgb(0,0,0);font-family:URWPalladioL-Roma;font-size:8.97px;stroke:none;">,</text>
   <text y="580.928" x="467.78,472.353,476.926" svgx:width="0.5,0.5,0.5" style="fill:rgb(0,0,0);font-family:URWPalladioL-Ital;font-size:8.97px;stroke:none;">114</text>
   <text y="580.928" x="481.498,483.7405,486.016,490.589,495.162,499.735,504.307,508.88,513.453,518.026" svgx:width="0.25,0.55,0.5,0.5,0.5,0.5,0.5,0.5,0.5,0.25" style="fill:rgb(0,0,0);font-family:URWPalladioL-Roma;font-size:8.97px;stroke:none;">, 294–306.</text>
   <text y="593.84" x="98.05" svgx:width="0.33" style="fill:rgb(0,0,0);font-family:URWPalladioL-Roma;font-size:8.97px;stroke:none;">[</text>
   <text y="593.84" x="101.036,107.393,110.773,115.669,119.471,123.272,129.262,133.557" svgx:width="0.71,0.4,0.55,0.42,0.42,0.67,0.48,0.33" style="fill:rgb(8,117,183);font-family:URWPalladioL-Roma;font-size:8.97px;stroke:none;">CrossRef</text>
   <text y="593.84" x="136.543" svgx:width="0.33" style="fill:rgb(0,0,0);font-family:URWPalladioL-Roma;font-size:8.97px;stroke:none;">]</text>
   <text y="606.751" x="76.535,81.018,83.26050000000001,98.05,104.534,109.107,112.985,115.966,118.628,123.951,128.331,130.993,134.605,139.178,142.224,145.306,150.364,154.936,160.259,164.64,169.213,171.4555,176.182,180.983,183.27,185.51250000000002,191.455,197.565,203.08,208.137,210.799,215.792,218.0345,222.752,229.236,231.523,233.7655,239.708,245.818,250.811,258.887,263.268,266.716,271.709,274.755,281.733,286.306,289.763,293.823,296.485,301.058,303.3005,308.018,313.468,315.755,317.9975,323.94" svgx:width="0.5,0.25,0.55,0.71,0.5,0.42,0.33,0.29,0.58,0.48,0.29,0.4,0.5,0.33,0.34,0.55,0.5,0.58,0.48,0.5,0.25,0.55,0.52,0.25,0.25,0.55,0.67,0.6,0.55,0.29,0.55,0.25,0.55,0.71,0.25,0.25,0.55,0.67,0.55,0.88,0.48,0.4,0.55,0.33,0.76,0.5,0.4,0.44,0.29,0.5,0.25,0.55,0.72,0.25,0.25,0.55,0.52" style="fill:rgb(0,0,0);font-family:URWPalladioL-Roma;font-size:8.97px;stroke:none;">7. Castiñeira-Ibañez, S.; Rubio, C.; Romero-Garcia, V.; S</text>
   <text y="606.751" x="328.741" svgx:width="0.5" style="fill:rgb(0,0,0);font-family:VnURWPalladioL;font-size:8.97px;stroke:none;">á</text>
   <text y="606.751" x="333.224,338.547,342.608,347.93,352.311,356.884,359.93" svgx:width="0.58,0.44,0.58,0.48,0.5,0.33,0.6" style="fill:rgb(0,0,0);font-family:URWPalladioL-Roma;font-size:8.97px;stroke:none;">nchez-P</text>
   <text y="606.751" x="365.453" svgx:width="0.48" style="fill:rgb(0,0,0);font-family:VnURWPalladioL;font-size:8.97px;stroke:none;">é</text>
   <text y="606.751" x="369.748,373.196,377.577,382.15,384.3925,389.119,392.164,394.451,399.901,402.188,404.4305,410.373,417.342,421.915,425.372" svgx:width="0.4,0.48,0.5,0.25,0.55,0.33,0.25,0.72,0.25,0.25,0.55,0.76,0.5,0.4,0.44" style="fill:rgb(0,0,0);font-family:URWPalladioL-Roma;font-size:8.97px;stroke:none;">rez, J.V.; Garc</text>
   <text y="606.751" x="429.431" svgx:width="0.29" style="fill:rgb(0,0,0);font-family:VnURWPalladioL;font-size:8.97px;stroke:none;">í</text>
   <text y="606.751" x="432.005,436.578,439.623,445.733" svgx:width="0.5,0.33,0.67,0.5" style="fill:rgb(0,0,0);font-family:URWPalladioL-Roma;font-size:8.97px;stroke:none;">a-Ra</text>
   <text y="606.751" x="450.305" svgx:width="0.92" style="fill:rgb(0,0,0);font-family:Rpxr;font-size:8.97px;stroke:none;">ﬃ</text>
   <text y="606.751" x="458.71,460.9525,465.679,471.267,473.554,482.205,484.4475,489.165,496.244,500.625,504.503,507.164,512.249,517.572" svgx:width="0.25,0.55,0.61,0.25,0.95,0.25,0.55,0.77,0.48,0.42,0.29,0.56,0.58,0.25" style="fill:rgb(0,0,0);font-family:URWPalladioL-Roma;font-size:8.97px;stroke:none;">, L.M. Design,</text>
   <text y="619.663" x="98.05,106.507,110.977,116.179,121.57,124.547,129.016,132.986,135.9,141.29,144.661,148.9666,151.177,155.647,160.85,166.3217,168.538,174.876,180.079,184.549,188.08,192.549,196.519,199.433,203.715,207.246,209.847,214.317,218.787,221.701,224.303,229.184,234.3866,236.621,241.502,244.46210000000002,246.714,251.184,256.3866,258.621,265.576,269.545,274.426,279.817,283.607,286.522,289.123,293.0698,295.318,300.78,305.25,308.781,312.312,314.913,319.195,322.783,324.961,333.418,337.888,343.35,347.65560000000005,349.867,354.748,357.7081,359.96,368.416,373.807,376.408,379.322,381.915,384.892,390.291,395.494,399.776,404.979,409.86,417.753,422.035,427.238,431.723,433.943,440.281,445.251,447.853,450.454,455.657,461.119,464.65,467.251,471.221,475.69,478.2913,480.527,485.22,489.189,493.659,496.573,499.487,503.769,507.139,511.421,514.953" svgx:width="0.95,0.5,0.58,0.6,0.33,0.5,0.44,0.33,0.6,0.4,0.48,0.55,0.5,0.58,0.61,0.55,0.71,0.58,0.5,0.4,0.5,0.44,0.33,0.48,0.4,0.29,0.5,0.5,0.33,0.29,0.55,0.58,0.55,0.55,0.33,0.55,0.5,0.58,0.55,0.78,0.44,0.55,0.6,0.42,0.33,0.29,0.44,0.55,0.61,0.5,0.4,0.4,0.29,0.48,0.4,0.55,0.95,0.5,0.61,0.48,0.55,0.55,0.33,0.55,0.95,0.6,0.29,0.33,0.29,0.33,0.6,0.58,0.48,0.58,0.55,0.88,0.48,0.58,0.5,0.55,0.71,0.56,0.29,0.29,0.58,0.61,0.4,0.29,0.44,0.5,0.29,0.55,0.52,0.44,0.5,0.33,0.33,0.48,0.4,0.48,0.4,0.42" style="fill:rgb(0,0,0);font-family:URWPalladioL-Roma;font-size:8.97px;stroke:none;">Manufacture and Characterization of an Acoustic Barrier Made of Multi-Phenomena Cylindrical Scatterers</text>
   <text y="632.575" x="97.701,104.677,108.219,111.76,116.244,121.462,126.447,130.742,136.2137,138.462,141.071,146.2736,148.532,153.01700000000002,155.256,160.242,163.783,168.267,172.248,175.171,179.654,182.263,185.249,190.727,195.211,199.012,203.307,208.7787,211.027,217.869,222.164,227.059,234.977,239.272,242.195,245.736,249.726" svgx:width="0.78,0.4,0.4,0.5,0.58,0.56,0.48,0.61,0.55,0.29,0.58,0.55,0.5,0.55,0.56,0.4,0.5,0.44,0.33,0.5,0.29,0.33,0.61,0.5,0.42,0.48,0.61,0.55,0.76,0.48,0.55,0.88,0.48,0.33,0.4,0.56,0.25" style="fill:rgb(0,0,0);font-family:URWPalladioL-Roma;font-size:8.97px;stroke:none;">Arranged in a Fractal-Based Geometry.</text>
   <text y="632.575" x="255.104,261.578,264.904,268.554,273.037,275.2795,278.417,284.89,288.54,292.521,297.506,300.994,303.98" svgx:width="0.72,0.39,0.41,0.5,0.25,0.55,0.72,0.41,0.44,0.56,0.39,0.33,0.25" style="fill:rgb(0,0,0);font-family:URWPalladioL-Ital;font-size:8.97px;stroke:none;">Arch. Acoust.</text>
   <text y="632.575" x="309.359,313.842,318.325,322.809" svgx:width="0.5,0.5,0.5,0.5" style="fill:rgb(0,0,0);font-family:URWPalladioL-Bold;font-size:8.97px;stroke:none;">2012</text>
   <text y="632.575" x="327.292" svgx:width="0.25" style="fill:rgb(0,0,0);font-family:URWPalladioL-Roma;font-size:8.97px;stroke:none;">,</text>
   <text y="632.575" x="331.775,336.258" svgx:width="0.5,0.5" style="fill:rgb(0,0,0);font-family:URWPalladioL-Ital;font-size:8.97px;stroke:none;">37</text>
   <text y="632.575" x="340.741,342.9835,345.224,349.707,354.191,358.674,363.157,367.64,372.124,376.607,378.84950000000003,381.987" svgx:width="0.25,0.55,0.5,0.5,0.5,0.5,0.5,0.5,0.5,0.25,0.55,0.33" style="fill:rgb(0,0,0);font-family:URWPalladioL-Roma;font-size:8.97px;stroke:none;">, 455–462. [</text>
   <text y="632.575" x="384.972,391.33,394.71,399.606,403.407,407.209,413.199,417.494" svgx:width="0.71,0.4,0.55,0.42,0.42,0.67,0.48,0.33" style="fill:rgb(8,117,183);font-family:URWPalladioL-Roma;font-size:8.97px;stroke:none;">CrossRef</text>
   <text y="632.575" x="420.479" svgx:width="0.33" style="fill:rgb(0,0,0);font-family:URWPalladioL-Roma;font-size:8.97px;stroke:none;">]</text>
   <text y="645.486" x="76.535,81.018,83.26050000000001,98.05,104.534,109.107,112.985,115.966,118.628,123.951,128.331,130.993,134.605,139.178,142.224,145.306" svgx:width="0.5,0.25,0.55,0.71,0.5,0.42,0.33,0.29,0.58,0.48,0.29,0.4,0.5,0.33,0.34,0.55" style="fill:rgb(0,0,0);font-family:URWPalladioL-Roma;font-size:8.97px;stroke:none;">8. Castiñeira-Ib</text>
   <text y="645.486" x="150.363" svgx:width="0.5" style="fill:rgb(0,0,0);font-family:VnURWPalladioL;font-size:8.97px;stroke:none;">á</text>
   <text y="645.486" x="154.846,160.169,164.55,169.122,171.36450000000002,173.787,178.588,180.875,183.1175,185.612,191.722,196.715,204.791,209.172,212.629,217.622,220.668,227.646,232.219,235.667" svgx:width="0.58,0.48,0.5,0.25,0.55,0.52,0.25,0.25,0.55,0.67,0.55,0.88,0.48,0.4,0.55,0.33,0.76,0.5,0.4,0.44" style="fill:rgb(0,0,0);font-family:URWPalladioL-Roma;font-size:8.97px;stroke:none;">ñez, S.; Romero-Garc</text>
   <text y="645.486" x="239.729" svgx:width="0.29" style="fill:rgb(0,0,0);font-family:VnURWPalladioL;font-size:8.97px;stroke:none;">í</text>
   <text y="645.486" x="242.302,246.875,249.1175,251.539,256.99,259.276,261.5185,264.014" svgx:width="0.5,0.25,0.55,0.72,0.25,0.25,0.55,0.52" style="fill:rgb(0,0,0);font-family:URWPalladioL-Roma;font-size:8.97px;stroke:none;">a, V.; S</text>
   <text y="645.486" x="268.815" svgx:width="0.5" style="fill:rgb(0,0,0);font-family:VnURWPalladioL;font-size:8.97px;stroke:none;">á</text>
   <text y="645.486" x="273.298,278.621,282.682,288.004,292.385,296.958,300.004" svgx:width="0.58,0.44,0.58,0.48,0.5,0.33,0.6" style="fill:rgb(0,0,0);font-family:URWPalladioL-Roma;font-size:8.97px;stroke:none;">nchez-P</text>
   <text y="645.486" x="305.527" svgx:width="0.48" style="fill:rgb(0,0,0);font-family:VnURWPalladioL;font-size:8.97px;stroke:none;">é</text>
   <text y="645.486" x="309.822,313.27,317.651,322.224,324.4665,326.897,329.943,332.229,337.671,339.957,342.1995,344.695,351.673,356.246,359.703" svgx:width="0.4,0.48,0.5,0.25,0.55,0.33,0.25,0.72,0.25,0.25,0.55,0.76,0.5,0.4,0.44" style="fill:rgb(0,0,0);font-family:URWPalladioL-Roma;font-size:8.97px;stroke:none;">rez, J.V.; Garc</text>
   <text y="645.486" x="363.761" svgx:width="0.29" style="fill:rgb(0,0,0);font-family:VnURWPalladioL;font-size:8.97px;stroke:none;">í</text>
   <text y="645.486" x="366.334,370.907,373.952,380.062" svgx:width="0.5,0.33,0.67,0.5" style="fill:rgb(0,0,0);font-family:URWPalladioL-Roma;font-size:8.97px;stroke:none;">a-Ra</text>
   <text y="645.486" x="384.634" svgx:width="0.92" style="fill:rgb(0,0,0);font-family:Rpxr;font-size:8.97px;stroke:none;">ﬃ</text>
   <text y="645.486" x="393.039,395.2815,397.703,403.291,405.578,414.23,416.4725,418.903,424.427,428.808,432.421,435.082,440.075,445.664,448.325,452.2718,454.764,458.641,463.726,467.604,470.586,474.966,483.042,486.8094,489.307,493.88,497.6474,500.135,503.583,508.577,513.15" svgx:width="0.25,0.55,0.61,0.25,0.95,0.25,0.55,0.6,0.48,0.4,0.29,0.55,0.61,0.29,0.44,0.55,0.42,0.56,0.42,0.33,0.48,0.88,0.42,0.55,0.5,0.42,0.55,0.4,0.55,0.5,0.61" style="fill:rgb(0,0,0);font-family:URWPalladioL-Roma;font-size:8.97px;stroke:none;">, L.M. Periodic systems as road</text>
   <text y="658.398" x="98.05,100.991,104.554" svgx:width="0.33,0.4,0.5" style="fill:rgb(0,0,0);font-family:URWPalladioL-Roma;font-size:8.97px;stroke:none;">tra</text>
   <text y="658.398" x="109.064" svgx:width="0.92" style="fill:rgb(0,0,0);font-family:Rpxr;font-size:8.97px;stroke:none;">ﬃ</text>
   <text y="658.398" x="117.354,121.3008,123.587,128.837,133.762,136.387,140.211,144.5166,146.751,150.151,154.472,159.983,165.423,169.428,172.052,177.302,182.3252,184.545,190.057,194.377,199.474,202.099,206.104,210.424,214.249,216.4915,219.634,225.055,228.456,233.381,236.321,241.246,244.187,249.202,254.623,258.9286,261.172,265.682,270.932,276.4037,278.662,282.487,285.427,289.937,295.187,300.699,305.209,308.618,314.13,316.755,321.265,325.775,328.706,331.331,336.256,341.506" svgx:width="0.44,0.55,0.58,0.55,0.29,0.42,0.48,0.55,0.4,0.48,0.61,0.6,0.44,0.29,0.58,0.56,0.55,0.61,0.48,0.56,0.29,0.44,0.48,0.42,0.25,0.55,0.6,0.4,0.55,0.33,0.55,0.33,0.56,0.6,0.48,0.55,0.5,0.58,0.61,0.55,0.42,0.33,0.5,0.58,0.61,0.5,0.4,0.61,0.29,0.5,0.5,0.33,0.29,0.55,0.58,0.25" style="fill:rgb(0,0,0);font-family:URWPalladioL-Roma;font-size:8.97px;stroke:none;">c noise reducing devices: prototype and standardization.</text>
   <text y="658.398" x="346.898,352.409,357.425,361.935,364.442,367.789,371.794,376.809,379.05150000000003,382.194,387.705,392.721,397.231,399.4735,402.625,411.14,415.145,420.16,424.165,428.675,430.9175,434.06,437.064" svgx:width="0.61,0.56,0.5,0.28,0.39,0.44,0.56,0.25,0.55,0.61,0.56,0.5,0.25,0.55,0.94,0.44,0.56,0.44,0.5,0.25,0.55,0.33,0.25" style="fill:rgb(0,0,0);font-family:URWPalladioL-Ital;font-size:8.97px;stroke:none;">Environ. Eng. Manag. J.</text>
   <text y="658.398" x="441.543,446.026,450.509,454.993" svgx:width="0.5,0.5,0.5,0.5" style="fill:rgb(0,0,0);font-family:URWPalladioL-Bold;font-size:8.97px;stroke:none;">2015</text>
   <text y="658.398" x="459.476" svgx:width="0.25" style="fill:rgb(0,0,0);font-family:URWPalladioL-Roma;font-size:8.97px;stroke:none;">,</text>
   <text y="658.398" x="463.96,468.47" svgx:width="0.5,0.5" style="fill:rgb(0,0,0);font-family:URWPalladioL-Ital;font-size:8.97px;stroke:none;">14</text>
   <text y="658.398" x="472.98,475.2225,477.463,481.973,486.483,490.993,495.503,500.014,504.524,509.034,513.544,518.054" svgx:width="0.25,0.55,0.5,0.5,0.5,0.5,0.5,0.5,0.5,0.5,0.5,0.25" style="fill:rgb(0,0,0);font-family:URWPalladioL-Roma;font-size:8.97px;stroke:none;">, 2759–2769.</text>
   <text y="671.309" x="98.05" svgx:width="0.33" style="fill:rgb(0,0,0);font-family:URWPalladioL-Roma;font-size:8.97px;stroke:none;">[</text>
   <text y="671.309" x="101.036,107.393,110.773,115.669,119.471,123.272,129.262,133.557" svgx:width="0.71,0.4,0.55,0.42,0.42,0.67,0.48,0.33" style="fill:rgb(8,117,183);font-family:URWPalladioL-Roma;font-size:8.97px;stroke:none;">CrossRef</text>
   <text y="671.309" x="136.543" svgx:width="0.33" style="fill:rgb(0,0,0);font-family:URWPalladioL-Roma;font-size:8.97px;stroke:none;">]</text>
   <text y="684.221" x="76.535,81.018,83.26050000000001,98.05,106.373,110.945,116.268,121.353,123.5955,127.819,132.923,135.209,139.471,141.757,143.9995,149.202,157.525,162.098,167.42,172.505,174.7475,178.971,184.075,186.361,191.163,193.449,195.69150000000002,200.894,206.482,211.055,216.57,222.158,226.538,228.78050000000002,233.004,238.455,240.69750000000002,244.921,253.244,257.817,262.984,267.2896,271.544,277.041,280.498,285.492,290.988,295.561,300.646,305.219,308.201,310.862,315.855,321.05760000000004,325.358,328.019,333.2216,337.531,340.512,348.14,353.133,356.179,361.767,364.428,372.504,376.885,382.208,386.076,388.738,393.731,399.054,403.627,406.2283,410.477,415.645,418.306,422.184,426.244,431.238,435.619,438.28,442.853,446.731,449.712,452.374,456.3208,460.614,468.69,473.071,476.052,480.625,488.701,493.273,496.255,500.636,504.248,506.91,511.483,514.144,518.022" svgx:width="0.5,0.25,0.55,1.0,0.5,0.58,0.56,0.25,0.55,0.67,0.25,0.56,0.25,0.25,0.55,1.0,0.5,0.58,0.56,0.25,0.55,0.67,0.25,0.52,0.25,0.25,0.55,0.61,0.5,0.6,0.61,0.48,0.25,0.55,0.72,0.25,0.55,1.0,0.5,0.56,0.48,0.55,0.6,0.4,0.55,0.6,0.5,0.56,0.5,0.33,0.29,0.55,0.58,0.55,0.29,0.58,0.55,0.33,0.83,0.55,0.33,0.61,0.29,0.88,0.48,0.58,0.42,0.29,0.55,0.58,0.5,0.29,0.55,0.56,0.29,0.42,0.44,0.55,0.48,0.29,0.5,0.42,0.33,0.29,0.44,0.55,0.88,0.48,0.33,0.5,0.88,0.5,0.33,0.48,0.4,0.29,0.5,0.29,0.42,0.25" style="fill:rgb(0,0,0);font-family:URWPalladioL-Roma;font-size:8.97px;stroke:none;">9. Wang, Y.F.; Wang, Y.S.; Laude, V. Wave propagation in two-dimensional viscoelastic metamaterials.</text>
   <text y="697.133" x="97.773,103.251,107.735,112.218,115.706,117.94850000000001,120.189,126.17,129.658,133.648,135.8905,138.131" svgx:width="0.61,0.5,0.5,0.39,0.25,0.55,0.67,0.39,0.5,0.25,0.55,0.61" style="fill:rgb(0,0,0);font-family:URWPalladioL-Ital;font-size:8.97px;stroke:none;">Phys. Rev. B</text>
   <text y="697.133" x="145.85,150.333,154.816,159.3" svgx:width="0.5,0.5,0.5,0.5" style="fill:rgb(0,0,0);font-family:URWPalladioL-Bold;font-size:8.97px;stroke:none;">2015</text>
   <text y="697.133" x="163.783" svgx:width="0.25" style="fill:rgb(0,0,0);font-family:URWPalladioL-Roma;font-size:8.97px;stroke:none;">,</text>
   <text y="697.133" x="168.266,172.749" svgx:width="0.5,0.5" style="fill:rgb(0,0,0);font-family:URWPalladioL-Ital;font-size:8.97px;stroke:none;">92</text>
   <text y="697.133" x="177.232,179.4745,181.715,186.198,190.682,195.165,199.648,204.131,208.614,210.8565,213.994" svgx:width="0.25,0.55,0.5,0.5,0.5,0.5,0.5,0.5,0.25,0.55,0.33" style="fill:rgb(0,0,0);font-family:URWPalladioL-Roma;font-size:8.97px;stroke:none;">, 104110. [</text>
   <text y="697.133" x="216.98,223.337,226.718,231.613,235.415,239.217,245.206,249.501" svgx:width="0.71,0.4,0.55,0.42,0.42,0.67,0.48,0.33" style="fill:rgb(8,117,183);font-family:URWPalladioL-Roma;font-size:8.97px;stroke:none;">CrossRef</text>
   <text y="697.133" x="252.487" svgx:width="0.33" style="fill:rgb(0,0,0);font-family:URWPalladioL-Roma;font-size:8.97px;stroke:none;">]</text>
   <text y="710.044" x="76.535,81.018,85.501,87.74350000000001,98.05,106.011,110.405,115.519,120.404,122.6465,124.104,128.963,131.16,135.228,137.425,139.66750000000002,141.361,146.73,149.287,153.681,158.795,163.681,165.92350000000002,167.38,170.306,172.503,180.464,182.661,184.9035,186.606,192.836,197.95,202.159,207.273,209.5155,210.964,217.8,219.997,225.366,227.563,229.8055,231.508,239.469,243.863,248.977,253.862,256.1045,257.562,262.421,264.618,269.231,271.428,273.6705,275.373,280.742,285.136,290.434,295.803,300.012,302.2545,303.711,308.896,311.1385,312.586,320.556,324.95,329.914,334.2196,335.617,340.898,344.211,349.009,354.29,358.683,363.569,367.962,370.827,373.384,378.182,384.79,387.347,393.963,398.761,403.875,408.084,411.01,416.379,418.936,426.695,430.904,436.018,439.744,442.301,447.099,452.213,456.606,459.2073,460.657,466.0,471.298,473.855,479.224,482.15,485.876,490.27,493.134,498.433,501.904,506.297,509.162,513.371" svgx:width="0.5,0.5,0.25,0.55,1.0,0.5,0.58,0.56,0.25,0.55,0.67,0.25,0.56,0.25,0.25,0.55,0.61,0.29,0.5,0.58,0.56,0.25,0.55,0.33,0.25,1.0,0.25,0.25,0.55,0.71,0.58,0.48,0.58,0.25,0.55,0.78,0.25,0.61,0.25,0.25,0.55,1.0,0.5,0.58,0.56,0.25,0.55,0.67,0.25,0.52,0.25,0.25,0.55,0.61,0.5,0.6,0.61,0.48,0.25,0.55,0.72,0.25,0.55,1.0,0.5,0.56,0.48,0.55,0.6,0.4,0.55,0.6,0.5,0.56,0.5,0.33,0.29,0.55,0.58,0.29,0.58,0.55,0.58,0.48,0.33,0.61,0.29,0.88,0.48,0.58,0.42,0.29,0.55,0.58,0.5,0.29,0.55,0.61,0.6,0.29,0.61,0.33,0.42,0.5,0.33,0.6,0.4,0.5,0.33,0.48,0.61" style="fill:rgb(0,0,0);font-family:URWPalladioL-Roma;font-size:8.97px;stroke:none;">10. Wang, Y.F.; Liang, J.W.; Chen, A.L.; Wang, Y.S.; Laude, V. Wave propagationinone-dimensional ﬂuid-saturated</text>
   <text y="722.956" x="97.781,103.17,108.065,111.446,116.341,121.748,125.5154,127.792,135.709,140.004,142.927,147.41,155.327,159.811,162.734,167.029,170.57,173.179,177.663,180.272,184.074" svgx:width="0.6,0.55,0.4,0.55,0.6,0.42,0.55,0.88,0.48,0.33,0.5,0.88,0.5,0.33,0.48,0.4,0.29,0.5,0.29,0.42,0.25" style="fill:rgb(0,0,0);font-family:URWPalladioL-Roma;font-size:8.97px;stroke:none;">porous metamaterials.</text>
   <text y="722.956" x="189.453,194.931,199.415,203.898,207.386,209.6285,212.766,218.746,222.234,226.224,228.4665,231.604" svgx:width="0.61,0.5,0.5,0.39,0.25,0.55,0.67,0.39,0.5,0.25,0.55,0.61" style="fill:rgb(0,0,0);font-family:URWPalladioL-Ital;font-size:8.97px;stroke:none;">Phys. Rev. B</text>
   <text y="722.956" x="239.323,243.806,248.289,252.773" svgx:width="0.5,0.5,0.5,0.5" style="fill:rgb(0,0,0);font-family:URWPalladioL-Bold;font-size:8.97px;stroke:none;">2019</text>
   <text y="722.956" x="257.256" svgx:width="0.25" style="fill:rgb(0,0,0);font-family:URWPalladioL-Roma;font-size:8.97px;stroke:none;">,</text>
   <text y="722.956" x="261.739,266.222" svgx:width="0.5,0.5" style="fill:rgb(0,0,0);font-family:URWPalladioL-Ital;font-size:8.97px;stroke:none;">99</text>
   <text y="722.956" x="270.706,272.9485,275.189,279.672,284.156,288.639,293.122,297.605,302.089,304.3315,307.468" svgx:width="0.25,0.55,0.5,0.5,0.5,0.5,0.5,0.5,0.25,0.55,0.33" style="fill:rgb(0,0,0);font-family:URWPalladioL-Roma;font-size:8.97px;stroke:none;">, 134304. [</text>
   <text y="722.956" x="310.454,316.811,320.192,325.087,328.889,332.691,338.68,342.975" svgx:width="0.71,0.4,0.55,0.42,0.42,0.67,0.48,0.33" style="fill:rgb(8,117,183);font-family:URWPalladioL-Roma;font-size:8.97px;stroke:none;">CrossRef</text>
   <text y="722.956" x="345.961" svgx:width="0.33" style="fill:rgb(0,0,0);font-family:URWPalladioL-Roma;font-size:8.97px;stroke:none;">]</text>
   <text y="735.867" x="76.535,81.018,85.501,87.74350000000001,98.05,103.568,107.962,110.519,115.404,119.613,124.728,129.587,134.885,138.198,143.084,145.3265,147.381,153.25,155.447,158.373,160.57,162.8125,164.911,173.223,177.125,179.682,184.647,189.444,192.247,194.48950000000002,196.544,203.381,205.577,213.89,216.1325,218.187,225.023,228.925,232.826,238.125,241.596,245.989,248.854,253.1596,255.163,259.556,268.458,276.217,280.426,284.819,288.545,293.844,297.156,301.365,309.124,313.333,318.447,321.4071,323.412,328.711,332.436,334.993,340.107,345.1302,347.093,351.57800000000003,353.587,357.313,360.177,363.569,368.868,372.769,375.634,380.932,384.245,388.454,393.9257,395.923,398.48,401.037,405.923,411.037,413.9971,416.001,419.727,424.613,428.338,431.203,435.412,443.171" svgx:width="0.5,0.5,0.25,0.55,0.72,0.5,0.29,0.56,0.48,0.58,0.55,0.6,0.4,0.56,0.25,0.55,0.67,0.25,0.33,0.25,0.25,0.55,0.95,0.44,0.29,0.56,0.55,0.4,0.25,0.55,0.78,0.25,0.95,0.25,0.55,0.78,0.44,0.44,0.6,0.4,0.5,0.33,0.48,0.55,0.5,0.77,0.88,0.48,0.5,0.42,0.6,0.4,0.48,0.88,0.48,0.58,0.33,0.55,0.6,0.42,0.29,0.58,0.56,0.55,0.5,0.55,0.42,0.33,0.4,0.6,0.44,0.33,0.6,0.4,0.48,0.61,0.55,0.29,0.29,0.56,0.58,0.33,0.55,0.42,0.56,0.42,0.33,0.48,0.88,0.25" style="fill:rgb(0,0,0);font-family:URWPalladioL-Roma;font-size:8.97px;stroke:none;">11. Valkenburg, R.J.; Mcivor, A.M. Accurate 3Dmeasurement using a structured light system.</text>
   <text y="735.867" x="448.457,451.383,458.219,462.121,466.514,470.0123,472.033,477.709,480.152,483.57,485.8125,488.86,494.721,498.622,505.459,509.852,514.738,517.664" svgx:width="0.33,0.78,0.44,0.5,0.39,0.55,0.72,0.28,0.39,0.25,0.55,0.67,0.44,0.78,0.5,0.56,0.33,0.25" style="fill:rgb(0,0,0);font-family:URWPalladioL-Ital;font-size:8.97px;stroke:none;">Image Vis. Comput.</text>
   <text y="748.779" x="97.602,102.085,106.568,111.052" svgx:width="0.5,0.5,0.5,0.5" style="fill:rgb(0,0,0);font-family:URWPalladioL-Bold;font-size:8.97px;stroke:none;">1998</text>
   <text y="748.779" x="115.535" svgx:width="0.25" style="fill:rgb(0,0,0);font-family:URWPalladioL-Roma;font-size:8.97px;stroke:none;">,</text>
   <text y="748.779" x="120.018,124.501" svgx:width="0.5,0.5" style="fill:rgb(0,0,0);font-family:URWPalladioL-Ital;font-size:8.97px;stroke:none;">16</text>
   <text y="748.779" x="128.984,131.22650000000002,133.467,137.95,142.434,146.917,151.4,155.883,160.366,162.60850000000002,165.746" svgx:width="0.25,0.55,0.5,0.5,0.5,0.5,0.5,0.5,0.25,0.55,0.33" style="fill:rgb(0,0,0);font-family:URWPalladioL-Roma;font-size:8.97px;stroke:none;">, 99–110. [</text>
   <text y="748.779" x="168.732,175.089,178.47,183.365,187.167,190.969,196.958,201.253" svgx:width="0.71,0.4,0.55,0.42,0.42,0.67,0.48,0.33" style="fill:rgb(8,117,183);font-family:URWPalladioL-Roma;font-size:8.97px;stroke:none;">CrossRef</text>
   <text y="748.779" x="204.239" svgx:width="0.33" style="fill:rgb(0,0,0);font-family:URWPalladioL-Roma;font-size:8.97px;stroke:none;">]</text>
  </g>
 </g>
</svg>
