<?xml version="1.0" encoding="UTF-8"?>
<svg height="823.37" width="4169.124" xmlns="http://www.w3.org/2000/svg">
 <g id="page" xmlns:svgx="http://www.xml-cml.org/schema/svgx">
  <g begin="text">
   <text y="62.979" x="76.312,80.743,83.844,88.275,91.375,94.914,98.015" svgx:width="0.56,0.39,0.56,0.39,0.44,0.39,0.39" style="fill:rgb(0,0,0);font-family:URWPalladioL-Ital;font-size:7.97px;stroke:none;">Sensors</text>
   <text y="62.979" x="103.107,107.092,111.077,115.062" svgx:width="0.5,0.5,0.5,0.5" style="fill:rgb(0,0,0);font-family:URWPalladioL-Bold;font-size:7.97px;stroke:none;">2019</text>
   <text y="62.979" x="119.047" svgx:width="0.25" style="fill:rgb(0,0,0);font-family:URWPalladioL-Roma;font-size:7.97px;stroke:none;">,</text>
   <text y="62.979" x="123.032,127.017" svgx:width="0.5,0.5" style="fill:rgb(0,0,0);font-family:URWPalladioL-Ital;font-size:7.97px;stroke:none;">19</text>
   <text y="62.979" x="131.003,132.9955,134.988,138.973,142.958,146.943,150.92800000000003,491.809,495.794,499.779,501.772,506.123,508.7531,510.77,514.755" svgx:width="0.25,0.55,0.5,0.5,0.5,0.5,0.55,0.5,0.5,0.55,0.55,0.33,0.55,0.5,0.5" style="fill:rgb(0,0,0);font-family:URWPalladioL-Roma;font-size:7.97px;stroke:none;">, 4881 14 of 17</text>
  </g>
  <g begin="text">
   <text y="75.31" x="76.744,81.19,84.304,88.751,91.864,95.417,98.531,101.645" svgx:width="0.56,0.39,0.56,0.39,0.44,0.39,0.39,0.25" style="fill:rgb(0,0,0);font-family:PalatinoLinotype,Italic;font-size:7.98px;stroke:none;">Sensors </text>
   <text y="75.31" x="103.624,107.644,111.664,115.685" svgx:width="0.5,0.5,0.5,0.5" style="fill:rgb(0,0,0);font-family:PalatinoLinotype,Bold;font-size:7.98px;stroke:none;">2019</text>
   <text y="75.31" x="119.704,121.683" svgx:width="0.25,0.25" style="fill:rgb(0,0,0);font-family:PalatinoLinotype;font-size:7.98px;stroke:none;">, </text>
   <text y="75.31" x="123.663,127.684" svgx:width="0.5,0.5" style="fill:rgb(0,0,0);font-family:PalatinoLinotype,Italic;font-size:7.98px;stroke:none;">19</text>
   <text y="75.31" x="131.703,133.696,135.676,139.791,141.771,146.205,152.504,157.832,159.812,164.629,169.551,174.424,179.752,181.732,187.132,192.053,197.813,200.499,205.373,213.413,215.40800000000002,488.763,492.782,496.801,498.796,500.341,504.727,507.366,509.361,510.906,514.925,518.944" svgx:width="0.25,0.25,0.52,0.25,0.56,0.79,0.67,0.25,0.6,0.61,0.61,0.67,0.25,0.67,0.61,0.72,0.34,0.61,1.0,0.25,0.55,0.5,0.5,0.25,0.55,0.55,0.33,0.25,0.55,0.5,0.5,0.25" style="fill:rgb(0,0,0);font-family:PalatinoLinotype;font-size:7.98px;stroke:none;">, x FOR PEER REVIEW 13 of 16 </text>
   <text y="813.37" x="76.744" svgx:width="0.25" style="fill:rgb(0,0,0);font-family:TimesNewRoman;font-size:9.0px;stroke:none;"> </text>
   <text y="505.21" x="436.564" svgx:width="0.25" style="fill:rgb(0,0,0);font-family:PalatinoLinotype;font-size:10.02px;stroke:none;"> </text>
   <text y="521.53" x="97.984,103.011,106.012,111.021,116.524,120.03,124.534,126.784,127.954,132.459,134.713" svgx:width="0.56,0.33,0.56,0.61,0.39,0.5,0.25,0.55,0.5,0.25,0.25" style="fill:rgb(0,0,0);font-family:PalatinoLinotype,Bold;font-size:9.0px;stroke:none;">Figure 8. </text>
   <text y="521.53" x="138.124" svgx:width="0.33" style="fill:rgb(0,0,0);font-family:PalatinoLinotype;font-size:9.0px;stroke:none;">(</text>
   <text y="521.53" x="141.124" svgx:width="0.5" style="fill:rgb(0,0,0);font-family:PalatinoLinotype,Bold;font-size:9.0px;stroke:none;">a</text>
   <text y="521.53" x="145.624,148.622,153.124" svgx:width="0.33,0.5,0.33" style="fill:rgb(0,0,0);font-family:PalatinoLinotype;font-size:9.0px;stroke:none;">)–(</text>
   <text y="521.53" x="156.064" svgx:width="0.44" style="fill:rgb(0,0,0);font-family:PalatinoLinotype,Bold;font-size:9.0px;stroke:none;">c</text>
   <text y="521.53" x="160.084,163.087,165.337,166.388,173.468,178.712,180.962,182.012,184.953,190.197,194.514,196.764,197.815,200.44,204.757,207.761,210.639,212.889,213.879,217.701,220.326,225.832,230.149,232.399,233.389,238.309,241.313,243.563,244.613,247.553,252.797,257.115,259.365,260.415,263.418,266.044,270.962,276.362,279.923,284.241,288.063,290.313,291.363,296.342,301.263,306.663,308.913,309.964,313.966,318.472,323.716,325.966,327.017,330.844,335.161,339.478,341.728,342.779,347.286,349.536,350.587,356.002,358.628,362.63,365.57,371.003,374.565,378.882,381.132,382.183,387.104,390.045,392.295,393.346,396.286,401.531,405.848,408.098,409.149,416.157,421.663,423.913,424.904,428.906,433.826,439.07,442.893,445.474,450.936,455.253,458.815,463.132,468.637,470.887,471.938,474.564,479.808,482.058,483.109,486.05,491.294,493.919,497.741" svgx:width="0.33,0.25,0.55,0.79,0.58,0.25,0.55,0.33,0.58,0.48,0.25,0.55,0.29,0.48,0.33,0.33,0.25,0.55,0.42,0.29,0.61,0.48,0.25,0.55,0.55,0.33,0.25,0.55,0.33,0.58,0.48,0.25,0.55,0.33,0.29,0.56,0.6,0.4,0.48,0.42,0.25,0.55,0.56,0.55,0.6,0.25,0.55,0.44,0.5,0.58,0.25,0.55,0.42,0.48,0.48,0.25,0.55,0.5,0.25,0.55,0.6,0.29,0.44,0.33,0.6,0.4,0.48,0.25,0.55,0.55,0.33,0.25,0.55,0.33,0.58,0.48,0.25,0.55,0.78,0.61,0.25,0.55,0.44,0.55,0.58,0.42,0.29,0.61,0.48,0.4,0.48,0.61,0.25,0.55,0.29,0.58,0.25,0.55,0.33,0.58,0.29,0.42,0.25" style="fill:rgb(0,0,0);font-family:PalatinoLinotype;font-size:9.0px;stroke:none;">) On the left side of the figures you can see a picture of the AB considered in this </text>
   <text y="534.49" x="97.984,101.801,104.736,110.164,115.664,120.668,122.919,125.169,125.919,130.834,136.073,138.323,139.073,142.008,147.246,151.558,153.808,154.558,158.037,160.677,165.682,170.921,173.856,176.106,176.856,180.672,183.292,188.792,193.052,195.302,196.052,203.559,207.87,210.12,210.811,214.628,219.867,224.781,232.288,234.538,235.288,238.223,243.462,247.774" svgx:width="0.42,0.33,0.6,0.61,0.56,0.25,0.25,0.55,0.55,0.58,0.25,0.55,0.33,0.58,0.48,0.25,0.55,0.4,0.29,0.56,0.58,0.33,0.25,0.55,0.42,0.29,0.61,0.48,0.25,0.55,0.83,0.48,0.25,0.55,0.42,0.58,0.55,0.83,0.25,0.55,0.33,0.58,0.48,0.25" style="fill:rgb(0,0,0);font-family:PalatinoLinotype;font-size:9.0px;stroke:none;">study; on the right side we show the </text>
   <text y="534.49" x="250.744,253.743" svgx:width="0.33,0.56" style="fill:rgb(0,0,0);font-family:PalatinoLinotype,Italic;font-size:9.0px;stroke:none;">IL</text>
   <text y="534.49" x="258.724,260.974,261.724,265.538,270.945,275.205,279.226,282.158,285.711,290.21,292.46,293.209,297.707,301.522,303.772,304.521,308.961,311.211,311.961,314.956,320.381,325.617,329.612,332.544,335.161,340.073,345.309,347.559,348.309,353.221,356.216,358.466,359.216,362.148,367.385,371.694,373.944,374.693,377.689,381.242,385.551,390.589,396.014,400.324,405.56,409.554,414.556,416.806,417.556,420.551,425.463,429.017,431.267,432.016,436.325,440.824,444.818,450.054,452.304,452.994,456.989,461.487,465.301,469.61,471.86,472.61,477.585,481.894,484.889,489.802,493.355,497.664" svgx:width="0.25,0.55,0.42,0.6,0.48,0.44,0.33,0.4,0.5,0.25,0.55,0.5,0.42,0.25,0.55,0.5,0.25,0.55,0.33,0.6,0.58,0.44,0.33,0.29,0.55,0.58,0.25,0.55,0.55,0.33,0.25,0.55,0.33,0.58,0.48,0.25,0.55,0.33,0.4,0.48,0.56,0.6,0.48,0.58,0.44,0.56,0.25,0.55,0.33,0.55,0.4,0.25,0.55,0.48,0.5,0.44,0.58,0.25,0.55,0.44,0.5,0.42,0.48,0.25,0.55,0.55,0.48,0.33,0.55,0.4,0.48,0.25" style="fill:rgb(0,0,0);font-family:PalatinoLinotype;font-size:9.0px;stroke:none;"> spectra as a function of the frequency for each case before </text>
   <text y="547.51" x="97.984,100.988,105.972,108.599,113.106,117.109,122.088,124.367,128.371,133.292,138.537,141.415,144.041,149.287,154.687,159.608,165.008,168.849,171.129,173.755,176.381,181.626,185.945,188.885,191.165,195.672,200.917,206.423,208.703,213.143,216.142,219.083,223.402,226.964,229.244,232.248,235.81,240.128,245.634,247.855,253.361,258.282,261.223,264.164,268.424,273.885,276.165,278.791,281.417,286.663,290.981,293.921,296.201,299.142,304.063,306.343,310.85,316.266,321.682,324.309,329.287,331.567,334.445,339.665,343.984,346.263,350.77,353.397,356.959,359.239,362.243,364.869,369.79,377.23,379.451" svgx:width="0.33,0.55,0.29,0.5,0.44,0.56,0.25,0.44,0.55,0.58,0.33,0.29,0.58,0.6,0.55,0.6,0.42,0.25,0.29,0.29,0.58,0.48,0.33,0.25,0.5,0.58,0.61,0.25,0.5,0.33,0.33,0.48,0.4,0.25,0.33,0.4,0.48,0.61,0.25,0.61,0.55,0.33,0.33,0.48,0.61,0.25,0.29,0.29,0.58,0.48,0.33,0.25,0.33,0.55,0.25,0.5,0.6,0.6,0.29,0.56,0.25,0.33,0.58,0.48,0.25,0.5,0.29,0.4,0.25,0.33,0.29,0.55,0.83,0.25,0.25" style="fill:rgb(0,0,0);font-family:PalatinoLinotype;font-size:9.0px;stroke:none;">(black continuous line) and after (red dotted line) to apply the air flow. </text>
   <text y="572.71" x="76.744,81.765,84.281,86.741,93.986,99.569,105.631,110.073,113.42,119.553,123.935,127.295,132.813,138.934,143.394" svgx:width="0.5,0.25,0.25,0.72,0.56,0.61,0.44,0.33,0.61,0.44,0.33,0.56,0.61,0.44,0.25" style="fill:rgb(0,0,0);font-family:PalatinoLinotype,Bold;font-size:10.02px;stroke:none;">5. Conclusions </text>
   <text y="592.21" x="97.984,101.355,107.181,110.421,113.682,119.507,122.417,126.66,129.9,138.251,143.716,147.668,153.233,155.732,158.912,167.263,172.056,175.297,181.313,185.265,190.058,194.301,199.094,204.92,208.18,212.974,219.09,222.331,227.335,230.575,239.417,242.326,247.491,252.284,258.401,261.641,267.657,273.483,278.883,282.122,287.587,293.152,297.104,302.108,310.949,319.791,324.605,327.853,331.793,334.733,339.115,342.474,347.514,351.945,357.398,363.422,367.653,370.901,373.841,378.272,381.512,384.761,389.542,393.973,399.787,405.6,408.54,414.133,420.157,424.939,428.18,431.428,436.881,440.121,444.552,449.592,453.532,458.314,461.673,467.733,470.631,473.571,479.124,482.305,487.345,493.104,498.144,501.084,506.637,511.677,516.459,518.946" svgx:width="0.34,0.58,0.25,0.33,0.58,0.29,0.42,0.25,0.83,0.55,0.4,0.56,0.25,0.25,0.83,0.48,0.25,0.6,0.4,0.48,0.42,0.48,0.58,0.33,0.48,0.61,0.25,0.5,0.25,0.88,0.29,0.52,0.48,0.61,0.25,0.6,0.58,0.55,0.33,0.55,0.56,0.4,0.5,0.88,0.88,0.48,0.33,0.4,0.29,0.44,0.33,0.5,0.44,0.55,0.6,0.42,0.33,0.29,0.44,0.25,0.33,0.48,0.44,0.58,0.58,0.29,0.56,0.6,0.48,0.25,0.33,0.55,0.25,0.44,0.5,0.4,0.48,0.33,0.6,0.29,0.29,0.56,0.25,0.5,0.58,0.5,0.29,0.56,0.5,0.48,0.25,0.25" style="fill:rgb(0,0,0);font-family:PalatinoLinotype;font-size:10.02px;stroke:none;">In this work, we presented a mixed photogrammetric-acoustic technique to carefully analyze, </text>
   <text y="605.649" x="76.745,80.002,85.462,91.024,95.813,99.07,104.891,109.681,113.629,116.689,125.035,127.975,131.232,137.053,140.113,143.37,149.192,153.981,157.041,163.153,167.943,172.182,175.087,180.648,186.47,189.53,194.53,200.352,206.464,209.524,213.963,219.424,225.245,229.484,232.74,236.688,242.72,247.159,250.416,253.322,258.782,264.604,267.664,273.125,276.485,279.545,284.545,287.605,291.843,296.225,301.265,304.205,308.99,311.99,320.331,323.271,329.088,335.195,338.255,341.507,347.534,353.35,359.167,363.951,366.891,369.411,372.411,375.663,381.479,386.264,389.324,394.364,397.616,400.867,405.666,411.489,417.523,422.525,425.784,428.692,434.154,439.978,443.038,448.571,453.363,459.186,464.188,469.842,472.75,478.212,482.162,485.162,490.164,495.988,502.102,505.162,508.341,514.1,518.892" svgx:width="0.33,0.55,0.56,0.48,0.33,0.58,0.48,0.4,0.25,0.83,0.29,0.33,0.58,0.25,0.33,0.58,0.48,0.25,0.61,0.48,0.42,0.29,0.56,0.58,0.25,0.5,0.58,0.61,0.25,0.44,0.55,0.58,0.42,0.33,0.4,0.6,0.44,0.33,0.29,0.55,0.58,0.25,0.55,0.33,0.25,0.5,0.25,0.42,0.44,0.5,0.29,0.48,0.25,0.83,0.29,0.58,0.61,0.25,0.33,0.6,0.58,0.58,0.48,0.29,0.25,0.25,0.33,0.58,0.48,0.25,0.5,0.33,0.33,0.48,0.58,0.6,0.5,0.33,0.29,0.55,0.58,0.25,0.55,0.48,0.58,0.5,0.56,0.29,0.55,0.4,0.25,0.5,0.58,0.61,0.25,0.33,0.58,0.48,0.25" style="fill:rgb(0,0,0);font-family:PalatinoLinotype;font-size:10.02px;stroke:none;">together with the design and construction of a scale wind tunnel, the attenuation behavior and the </text>
   <text y="619.149" x="76.746,82.762,87.556,91.507,100.349,105.143,110.183,115.718,118.628,121.537,124.447,127.708,133.273,135.552,138.813,144.278,146.617,150.86,155.9,161.726,167.842,170.181,175.646,178.977,181.257,186.297,188.636,194.462,199.256,207.606,209.946,213.206,218.771,224.787,229.581,231.921,237.386,240.716,243.056,248.096,252.478,257.943,263.979,268.221,271.482,274.391,278.834,281.174,286.709,291.713,295.665,299.617,302.526,307.266,311.166,315.418,317.758,323.303,328.317,332.57,337.309,343.435,345.775,351.25,357.086,359.425,365.451,370.255,374.217,377.137,382.611,388.738,391.658,396.11,398.39,403.404,407.366,411.266,416.286,421.804,426.065,428.346,433.821,437.161,439.501,443.754,448.135,453.149,456.42,459.69,464.494,468.456,473.259,477.221,481.474,483.983,486.263,492.31,496.562,502.608,507.622,510.542,513.462,518.98" svgx:width="0.6,0.48,0.4,0.88,0.48,0.5,0.55,0.29,0.29,0.29,0.33,0.56,0.25,0.33,0.55,0.25,0.42,0.5,0.58,0.61,0.25,0.55,0.33,0.25,0.5,0.25,0.58,0.48,0.83,0.25,0.33,0.56,0.6,0.48,0.25,0.55,0.33,0.25,0.5,0.44,0.55,0.6,0.42,0.33,0.29,0.44,0.25,0.55,0.5,0.4,0.4,0.29,0.48,0.4,0.42,0.25,0.55,0.5,0.42,0.48,0.61,0.25,0.55,0.58,0.25,0.6,0.48,0.4,0.29,0.55,0.61,0.29,0.44,0.25,0.5,0.4,0.4,0.5,0.56,0.42,0.25,0.55,0.33,0.25,0.42,0.44,0.5,0.33,0.33,0.48,0.4,0.48,0.4,0.42,0.25,0.25,0.6,0.42,0.6,0.5,0.29,0.29,0.56,0.25" style="fill:rgb(0,0,0);font-family:PalatinoLinotype;font-size:10.02px;stroke:none;">permeability to sand of a new type of acoustic barriers based on periodic arrays of scatterers, usually </text>
   <text y="632.649" x="76.746,81.199,86.213,89.093,92.033,96.836,102.897,105.237,109.489,114.964,120.8,123.72,128.102,130.441,134.823,138.783,144.358,148.61,151.849,156.829,159.749,162.028,167.042,171.495,176.97,182.97,187.223,190.461,193.341,197.783,200.122,204.375,208.828,212.79,217.593,222.397,228.156,232.409,234.869,237.208,240.589,246.425,248.764,253.146,258.607,264.443,267.681,271.643,276.657,280.91,284.148,286.488,289.726,295.187,297.527,300.765,306.585,311.325,313.605,319.44,324.915,330.751,334.092,340.118,344.921,348.883,357.735,362.538,367.552,373.01,375.93,378.85,381.77,385.008,390.527,392.867,398.893,402.855,408.33,414.356,419.159,423.121,426.36,429.3,434.039,438.301,440.64,446.115,449.415,451.755,456.207,459.087,464.101,468.303,472.555,475.475,479.857,482.196,487.741,492.721,496.683,500.645,503.565,508.369,512.268,516.521,518.981" svgx:width="0.44,0.5,0.29,0.29,0.48,0.61,0.25,0.42,0.55,0.58,0.29,0.44,0.25,0.44,0.4,0.56,0.42,0.33,0.5,0.29,0.25,0.5,0.44,0.55,0.6,0.42,0.33,0.29,0.44,0.25,0.42,0.44,0.4,0.48,0.48,0.58,0.42,0.25,0.25,0.34,0.58,0.25,0.44,0.55,0.58,0.33,0.4,0.5,0.42,0.33,0.25,0.33,0.55,0.25,0.33,0.58,0.48,0.25,0.58,0.55,0.58,0.33,0.6,0.48,0.4,0.88,0.48,0.5,0.55,0.29,0.29,0.29,0.33,0.56,0.25,0.6,0.4,0.55,0.6,0.48,0.4,0.33,0.29,0.48,0.42,0.25,0.55,0.33,0.25,0.44,0.29,0.5,0.42,0.42,0.29,0.44,0.25,0.55,0.5,0.4,0.4,0.29,0.48,0.4,0.42,0.25,0.25" style="fill:rgb(0,0,0);font-family:PalatinoLinotype;font-size:10.02px;stroke:none;">called sonic crystal acoustic screens. In contrast to the non-permeability properties of classic barriers, </text>
   <text y="646.149" x="76.746,80.012,85.844,90.644,93.523,97.772,102.221,106.179,110.978,115.778,121.61,125.858,128.738,134.196,139.236,143.484,148.284,154.346,157.226,162.697,168.528,171.408,175.656,181.127,186.887,189.827,194.208,197.088,201.537,205.495,211.066,215.315,218.581,223.591,226.507,229.327,234.337,237.252,240.168,245.639,253.92,256.799,262.821,267.621,271.579,280.426,285.226,290.236,295.777,298.693,301.609,304.525,307.686,313.255,316.135,319.399,324.868,327.748,336.103,339.017,344.846,350.966,353.846,358.854,364.614,370.734,373.553,381.908,386.916,390.181,394.978,398.934,401.437,404.317,409.856,415.896,419.161,421.98,428.02,433.78,437.044,439.958,442.872,445.752,451.581,457.05,465.405,467.908,470.788,476.617,482.086,484.966,490.367,496.186,500.984,503.864,509.693,514.701,518.948" svgx:width="0.33,0.58,0.48,0.25,0.42,0.44,0.4,0.48,0.48,0.58,0.42,0.25,0.55,0.5,0.42,0.48,0.61,0.25,0.55,0.58,0.25,0.42,0.55,0.58,0.29,0.44,0.25,0.44,0.4,0.56,0.42,0.33,0.5,0.29,0.25,0.5,0.29,0.29,0.55,0.83,0.25,0.6,0.48,0.4,0.88,0.48,0.5,0.55,0.29,0.29,0.29,0.33,0.56,0.25,0.33,0.55,0.25,0.83,0.29,0.58,0.61,0.25,0.5,0.58,0.61,0.25,0.83,0.5,0.33,0.48,0.4,0.25,0.25,0.55,0.6,0.33,0.25,0.6,0.58,0.33,0.29,0.29,0.25,0.58,0.55,0.83,0.25,0.25,0.58,0.55,0.25,0.55,0.58,0.48,0.25,0.58,0.5,0.42,0.25" style="fill:rgb(0,0,0);font-family:PalatinoLinotype;font-size:10.02px;stroke:none;">the screens based on sonic crystal allow permeability to wind and water, but until now, no one has </text>
   <text y="659.649" x="76.746,81.761,87.598,92.578,95.517,101.035,106.076,110.88,116.941,120.182,123.42,129.24,134.044,137.225,141.478,146.493,152.33,158.392,161.632,167.659,172.464,176.427,185.28,190.019,194.999,200.545,203.466,206.387,209.308,212.546,218.064,221.244,226.259,232.096,238.223,241.404,244.325,247.563,251.764,254.945,257.866,263.702,267.044,269.924,275.971,280.775,286.612,291.066,295.805,299.046,304.522,310.281,313.446,317.703,323.182,329.232,335.072,341.133,344.373,349.391,352.63,355.868,360.668,366.507,372.507,377.525,380.764,383.688,389.167,395.006,397.466,400.706,406.856,412.696,415.575,419.837,423.017,427.274,430.197,433.376,439.436,444.454,447.692,450.616,456.095,461.855,465.035,467.959,472.16,475.401,480.208,484.465,490.404,495.203,499.66,502.584,507.564,510.504,513.383,518.962" svgx:width="0.5,0.58,0.5,0.29,0.56,0.5,0.48,0.61,0.25,0.33,0.58,0.48,0.25,0.42,0.5,0.58,0.61,0.25,0.6,0.48,0.4,0.88,0.48,0.5,0.55,0.29,0.29,0.29,0.33,0.56,0.25,0.5,0.58,0.61,0.25,0.29,0.33,0.42,0.25,0.29,0.58,0.33,0.29,0.6,0.48,0.58,0.44,0.48,0.25,0.55,0.58,0.25,0.42,0.55,0.6,0.58,0.61,0.25,0.5,0.33,0.33,0.48,0.58,0.6,0.5,0.33,0.29,0.55,0.58,0.25,0.25,0.61,0.58,0.29,0.42,0.25,0.42,0.29,0.33,0.6,0.5,0.33,0.29,0.55,0.58,0.25,0.29,0.42,0.25,0.48,0.42,0.6,0.48,0.44,0.29,0.5,0.29,0.29,0.56,0.25" style="fill:rgb(0,0,0);font-family:PalatinoLinotype;font-size:10.02px;stroke:none;">analyzed the sand permeability and its influence on sound attenuation. This situation is especially </text>
   <text y="673.149" x="76.746,79.671,85.511,88.75,93.55,97.516,102.325,106.583,109.821,112.746,118.587,124.105,126.625,129.97,135.371,139.338,141.858,144.783,150.623,153.923,157.883,162.863,167.124,170.363,174.323,180.374,184.832,188.07,194.07,198.037,202.846,207.103,209.563,212.488,217.968,222.426,227.445,230.683,235.483,241.544,244.064,246.989,252.829,255.289,261.421,266.229,270.487,275.295,279.262,282.501,285.021,289.278,294.679,297.604,300.483,304.741,307.201,309.706,311.641" svgx:width="0.29,0.58,0.33,0.48,0.4,0.48,0.42,0.33,0.29,0.58,0.56,0.25,0.33,0.55,0.4,0.25,0.29,0.58,0.33,0.4,0.5,0.42,0.33,0.4,0.6,0.44,0.33,0.6,0.4,0.48,0.42,0.25,0.29,0.55,0.44,0.5,0.33,0.48,0.61,0.25,0.29,0.58,0.25,0.61,0.48,0.42,0.48,0.4,0.33,0.25,0.42,0.55,0.29,0.29,0.42,0.25,0.25,0.55,0.25" style="fill:rgb(0,0,0);font-family:PalatinoLinotype;font-size:10.02px;stroke:none;">interesting for infrastructures located in desert soils. </text>
   <text y="686.649" x="97.986,104.116,109.934,114.721,117.901,124.01,128.797,134.445,139.232,142.135,147.592,153.601,162.436,167.223,173.041,176.295,179.475,184.933,188.257,191.437,194.69,200.509,205.25,208.37,216.713,222.171,226.116,231.674,234.855,243.135,248.175,252.411,255.591,260.027,265.428,274.262,280.271,283.174,287.961,293.118,295.61,298.79,304.318,309.105,313.487,318.527,324.556,328.866,333.649,336.769,342.408,348.408,353.448,359.268,362.517,365.457,368.707,373.747,376.925,379.865,385.509,390.292,393.472,397.904,403.358,412.189,418.194,423.234,427.133,430.073,434.335,439.789,445.603,448.784,454.237,457.557,460.737,463.987,469.802,474.584,477.764,481.705,486.488,490.719,496.744,499.684,502.923,507.154,510.334,513.274,518.974" svgx:width="0.61,0.58,0.48,0.25,0.61,0.48,0.56,0.48,0.29,0.55,0.6,0.88,0.48,0.58,0.33,0.25,0.55,0.33,0.25,0.33,0.58,0.48,0.25,0.83,0.55,0.4,0.56,0.25,0.83,0.5,0.42,0.25,0.44,0.55,0.88,0.6,0.29,0.48,0.52,0.25,0.25,0.55,0.48,0.44,0.5,0.6,0.42,0.48,0.25,0.56,0.6,0.5,0.58,0.33,0.29,0.33,0.5,0.33,0.29,0.56,0.48,0.25,0.44,0.55,0.88,0.6,0.5,0.4,0.29,0.42,0.55,0.58,0.25,0.55,0.33,0.25,0.33,0.58,0.48,0.25,0.4,0.48,0.42,0.6,0.29,0.33,0.42,0.25,0.29,0.58,0.25" style="fill:rgb(0,0,0);font-family:PalatinoLinotype;font-size:10.02px;stroke:none;">The development of the work was complex, because quantitative comparison of the results in </text>
   <text y="700.089" x="76.746,82.27,87.724,90.973,96.788,99.29299999999999,100.088,103.337,108.891,114.896,119.679,123.91,126.41499999999999,127.21,132.664,135.983,138.488,139.283,147.061,153.167,157.398,159.903,160.698,163.596,167.828,170.333,171.127,176.772,181.554,185.495,191.049,194.29,200.395,203.335,206.654,210.014,212.954,217.336,223.361,226.301,229.55,232.055,232.85,238.955,244.98,249.762,253.003,256.252,261.706,264.211,265.006,268.255,274.07,278.852,281.35699999999997,282.152,288.257,291.197,294.517,297.906,302.7,306.652,311.391,317.211,320.471,322.976,323.771,332.122,337.126,342.691,346.933,349.438,350.233,353.493,359.319,364.113,369.631,372.13599999999997,372.93,381.281,386.746,390.698,396.263,399.503,404.507,408.95,414.351,420.411,424.653,427.914,430.824,435.267,440.271,443.18,446.09,451.655,454.154,456.659,457.454,463.59,469.416,474.209,478.161,482.901,486.26,491.661,495.621,500.415,502.914,506.153,509.484,514.949,518.901" svgx:width="0.55,0.55,0.33,0.58,0.25,0.55,0.33,0.56,0.6,0.48,0.42,0.25,0.55,0.55,0.33,0.25,0.55,0.78,0.61,0.42,0.25,0.55,0.29,0.42,0.25,0.55,0.56,0.48,0.4,0.56,0.25,0.61,0.29,0.33,0.33,0.29,0.44,0.6,0.29,0.33,0.25,0.55,0.61,0.6,0.48,0.25,0.33,0.55,0.25,0.55,0.33,0.58,0.48,0.25,0.55,0.61,0.29,0.33,0.33,0.48,0.4,0.48,0.58,0.33,0.25,0.55,0.83,0.5,0.56,0.42,0.25,0.55,0.33,0.58,0.48,0.56,0.25,0.55,0.83,0.55,0.4,0.56,0.25,0.5,0.44,0.55,0.6,0.42,0.33,0.29,0.44,0.5,0.29,0.29,0.56,0.25,0.25,0.55,0.61,0.58,0.48,0.4,0.48,0.33,0.55,0.4,0.48,0.25,0.25,0.33,0.55,0.4,0.25" style="fill:rgb(0,0,0);font-family:PalatinoLinotype;font-size:10.02px;stroke:none;">both types of ABs is very difficult due to the different ways they work acoustically. Therefore, for </text>
   <text y="713.589" x="76.746,79.99,85.798,88.738,92.999,95.50399999999999,98.58,101.939,104.879,108.814,113.039,116.283,118.788,121.863,126.089,129.332,135.351,141.45,146.998,149.503,152.639,158.086,163.895,166.4,169.535,172.779,178.587,183.364,185.869,189.004,192.939,197.715,200.655,205.695,208.939,211.879,217.327,223.135,227.361,233.169,236.109,242.048,244.553,247.688,253.146,257.946,261.189,269.523,274.299,279.076,284.884,287.389,290.525,294.75,299.826,305.651,311.712,314.217,317.352,326.193,331.657,337.311,342.104,350.944,355.737,361.561,364.821,367.326,370.401,375.404,381.229,387.29,389.795,392.93,396.19,402.014,406.807,409.312,412.447,416.889,422.648,427.651,433.476,439.04,443.833,446.338,449.413,452.322,458.081,460.586,463.721,466.981,472.806,477.598,480.103,483.178,488.181,492.623,498.087,504.122,508.363,511.623,514.532,518.974" svgx:width="0.33,0.58,0.29,0.42,0.25,0.55,0.33,0.29,0.4,0.42,0.33,0.25,0.55,0.42,0.33,0.6,0.61,0.56,0.25,0.55,0.55,0.58,0.25,0.55,0.33,0.58,0.48,0.25,0.55,0.4,0.48,0.29,0.5,0.33,0.29,0.55,0.58,0.42,0.58,0.29,0.6,0.25,0.55,0.55,0.48,0.33,0.83,0.48,0.48,0.58,0.25,0.55,0.42,0.5,0.58,0.61,0.25,0.55,0.88,0.55,0.56,0.48,0.88,0.48,0.58,0.33,0.25,0.55,0.5,0.58,0.61,0.25,0.55,0.33,0.58,0.48,0.25,0.55,0.44,0.58,0.5,0.58,0.56,0.48,0.25,0.55,0.29,0.58,0.25,0.55,0.33,0.58,0.48,0.25,0.55,0.5,0.44,0.55,0.6,0.42,0.33,0.29,0.44,0.25" style="fill:rgb(0,0,0);font-family:PalatinoLinotype;font-size:10.02px;stroke:none;">this first study on the relationship between sand movement and the change in the acoustic </text>
   <text y="727.089" x="76.746,81.768,85.007,88.245,93.045,98.888,104.942,109.964,113.203,116.131,121.614,127.373,130.073,136.072,140.032,145.515,151.514,156.326,160.296,163.534,166.474,171.286,175.546,178.247,183.647,187.007,189.707,194.929,202.009,209.817,215.089,217.79,223.43,228.229,232.199,236.401,242.455,246.715,249.356,253.737,256.677,261.657,265.918,270.178,273.106,277.488,282.468,285.396,288.096,295.903,301.966,306.226,308.743,311.383,319.752,324.564,327.264,333.263,337.223,342.035,345.383,350.195,354.095,358.065,362.876,369.01,371.651,374.889,380.35,383.05,386.399,391.882,396.343,402.397,406.658,409.358,414.841,420.6,423.301,428.323,430.963,436.586,442.586,447.608,450.488,453.416,456.654,461.676,464.915,467.843,473.483,478.295,480.935,485.957,491.716,496.738,499.666,505.185,509.447,512.327,516.528,518.988" svgx:width="0.5,0.33,0.33,0.48,0.58,0.6,0.5,0.33,0.29,0.55,0.58,0.25,0.6,0.4,0.55,0.6,0.48,0.4,0.33,0.29,0.48,0.42,0.25,0.55,0.33,0.25,0.52,0.71,0.78,0.52,0.25,0.56,0.48,0.4,0.42,0.6,0.42,0.25,0.44,0.29,0.5,0.42,0.42,0.29,0.44,0.5,0.29,0.25,0.78,0.61,0.42,0.25,0.25,0.83,0.48,0.25,0.6,0.4,0.48,0.33,0.48,0.4,0.4,0.48,0.61,0.25,0.33,0.55,0.25,0.33,0.55,0.44,0.6,0.42,0.25,0.55,0.58,0.25,0.5,0.25,0.56,0.6,0.5,0.29,0.29,0.33,0.5,0.33,0.29,0.56,0.48,0.25,0.5,0.58,0.5,0.29,0.56,0.42,0.29,0.42,0.25,0.25" style="fill:rgb(0,0,0);font-family:PalatinoLinotype;font-size:10.02px;stroke:none;">attenuation properties of SCAS versus classical ABs, we preferred to focus on a qualitative analysis, </text>
   <text y="740.589" x="76.746,85.099,90.926,93.838,98.283,104.111,106.616,108.191,117.034,122.04,127.608,130.113,131.628,136.634,139.545,143.499,148.24,153.246,159.364,164.931,167.436,169.011,174.548,179.289,181.79399999999998,183.369,188.836,192.168,194.673,196.188,199.1,204.928,208.19,212.986,216.94,221.735,225.98,229.242,231.74699999999999,233.323,236.585,242.052,244.557,246.132,250.928,256.687,262.254,265.166,270.994,275.789,280.585,284.485,288.729,291.234,292.809,301.162,306.99,311.785,317.526,320.031,321.606,325.839,330.624,333.525,338.309,342.743,345.994,348.934,354.754,360.31,362.815,364.39,367.642,373.458,378.243,380.748,382.323,385.574,391.131,397.138,401.922,404.427,406.002,411.458,414.818,417.323,418.838,426.618,432.726,436.959,439.464,441.039,444.291,449.747,452.252,453.827,459.353,464.137,466.642,468.217,471.157,476.917,481.15,484.402,489.442,492.343,495.243,500.028,506.135,508.64,510.215,513.155,518.915" svgx:width="0.83,0.58,0.29,0.44,0.58,0.25,0.55,0.88,0.5,0.56,0.25,0.55,0.5,0.29,0.4,0.48,0.5,0.61,0.56,0.25,0.55,0.55,0.48,0.25,0.55,0.55,0.33,0.25,0.55,0.29,0.58,0.33,0.48,0.4,0.48,0.42,0.33,0.25,0.55,0.33,0.55,0.25,0.55,0.48,0.58,0.56,0.29,0.58,0.48,0.48,0.4,0.42,0.25,0.55,0.83,0.58,0.48,0.58,0.25,0.55,0.42,0.48,0.29,0.48,0.44,0.33,0.29,0.58,0.56,0.25,0.55,0.33,0.58,0.48,0.25,0.55,0.33,0.56,0.6,0.48,0.25,0.55,0.55,0.33,0.25,0.55,0.78,0.61,0.42,0.25,0.55,0.33,0.55,0.25,0.55,0.55,0.48,0.25,0.55,0.29,0.58,0.42,0.33,0.5,0.29,0.29,0.48,0.61,0.25,0.55,0.29,0.58,0.25" style="fill:rgb(0,0,0);font-family:PalatinoLinotype;font-size:10.02px;stroke:none;">which may already be of interest to engineers when selecting the type of ABs to be installed in </text>
   <text y="754.089" x="76.746,81.184,86.644,95.48,104.317,110.348,116.169,119.109,123.546,128.587,131.765,134.645,140.104,145.925,150.163,152.683,155.622,161.382,164.742,168.641,173.682,177.943,181.199,185.145,191.176,195.614,198.87,204.901,208.848,213.636,216.156,222.268,227.056,233.067,237.856,243.676,249.787,252.692,258.513,264.073,266.593,272.053,277.873,280.393,283.649,289.47,294.258,296.778,300.034,305.594,311.533,316.332,318.852,324.312,327.672,330.132,334.369,339.829,342.734,345.674,348.168" svgx:width="0.44,0.55,0.88,0.88,0.6,0.58,0.29,0.44,0.5,0.33,0.29,0.55,0.58,0.42,0.25,0.29,0.58,0.33,0.4,0.5,0.42,0.33,0.4,0.6,0.44,0.33,0.6,0.4,0.48,0.25,0.61,0.48,0.6,0.48,0.58,0.61,0.29,0.58,0.56,0.25,0.55,0.58,0.25,0.33,0.58,0.48,0.25,0.33,0.56,0.6,0.48,0.25,0.55,0.33,0.25,0.42,0.55,0.29,0.29,0.25,0.25" style="fill:rgb(0,0,0);font-family:PalatinoLinotype;font-size:10.02px;stroke:none;">communications infrastructure depending on the type of soil. </text>
   <text y="767.589" x="97.986,104.126,109.954,115.993,120.239,122.741,125.246,127.121,135.474,140.214,142.719,144.593,149.39,154.489,160.508,165.305,169.26,172.172,181.017,185.814,191.642,194.906,199.913,202.826,205.738,211.256,213.761,215.576,221.234,226.031,229.986,232.899,236.232,239.145,243.942,250.061,252.566,254.441,257.704,263.464,268.471,271.734,274.239,276.114,279.448,282.36,285.694,288.199,290.074,293.337,299.166,303.962,306.467,308.342,314.361,319.147,323.083,331.908,336.686,341.726,347.245,350.185,353.079,356.018,359.263,364.812,367.317,369.192,374.641,378.0,380.505,382.38,385.624,391.434,396.212,400.438,405.216,407.721,409.595,413.822,418.249,422.184,426.962,431.739,437.549,441.776,444.281,446.155,449.4,454.849,457.354,459.228,463.455,468.495,474.304,480.405,482.90999999999997,484.784,487.678,491.905,494.40999999999997,496.284,502.094,504.988,510.537,516.346,518.926" svgx:width="0.61,0.58,0.6,0.42,0.25,0.25,0.55,0.83,0.48,0.25,0.55,0.48,0.52,0.6,0.48,0.4,0.29,0.88,0.48,0.58,0.33,0.5,0.29,0.29,0.56,0.25,0.55,0.56,0.48,0.4,0.29,0.33,0.29,0.48,0.61,0.25,0.55,0.33,0.58,0.5,0.33,0.25,0.55,0.33,0.29,0.33,0.25,0.55,0.33,0.58,0.48,0.25,0.55,0.6,0.48,0.4,0.88,0.48,0.5,0.55,0.29,0.29,0.29,0.33,0.56,0.25,0.55,0.55,0.33,0.25,0.55,0.33,0.58,0.48,0.42,0.48,0.25,0.55,0.42,0.44,0.4,0.48,0.48,0.58,0.42,0.25,0.55,0.33,0.55,0.25,0.55,0.42,0.5,0.58,0.61,0.25,0.55,0.29,0.42,0.25,0.55,0.58,0.29,0.56,0.58,0.25,0.25" style="fill:rgb(0,0,0);font-family:PalatinoLinotype;font-size:10.02px;stroke:none;">Thus, we experimentally verified that (i) the permeability of these screens to sand is high, </text>
   <text y="781.089" x="76.747,81.765,84.645,87.569,93.048,101.412,104.336,110.096,115.674,118.179,119.394,122.318,125.556,129.758,132.263,133.418,139.417,144.457,148.714,152.915,157.933,163.512,168.252,170.757,171.972,176.99,182.83,188.892,191.397,192.552,197.57,203.21,208.689,211.613,217.674,220.614,226.454,232.033,234.53799999999998,235.753,238.992,244.812,249.619,252.124,253.279,258.297,262.754,267.211,273.261,282.023,288.083,290.963,296.003,299.241,302.181,307.66,313.419,315.924,317.14,322.619,325.964,328.469,329.684,333.885,338.925,344.765,350.826,353.331,354.547,359.565,362.803,365.308,366.523,369.702,375.521,380.329,382.834,384.049,389.567,394.607,398.864,403.603,406.108,407.324,412.803,416.147,418.652,419.868,423.106,428.866,433.673,437.93,442.737,445.242,446.458,452.588,457.396,462.976,465.916,470.373,475.18,479.437,481.942,483.097,486.397,491.858,495.823,504.645,507.569,513.409,518.988" svgx:width="0.5,0.29,0.29,0.55,0.83,0.29,0.58,0.56,0.25,0.55,0.29,0.33,0.42,0.25,0.55,0.6,0.5,0.42,0.42,0.5,0.56,0.48,0.25,0.55,0.5,0.58,0.61,0.25,0.55,0.5,0.56,0.55,0.29,0.61,0.29,0.58,0.56,0.25,0.55,0.33,0.58,0.48,0.25,0.55,0.5,0.44,0.44,0.6,0.88,0.6,0.29,0.5,0.33,0.29,0.55,0.58,0.25,0.55,0.55,0.33,0.25,0.55,0.42,0.5,0.58,0.61,0.25,0.55,0.5,0.33,0.25,0.55,0.33,0.58,0.48,0.25,0.55,0.55,0.5,0.42,0.48,0.25,0.55,0.55,0.33,0.25,0.55,0.33,0.58,0.48,0.42,0.48,0.25,0.55,0.61,0.48,0.56,0.29,0.44,0.48,0.42,0.25,0.55,0.33,0.55,0.4,0.88,0.29,0.58,0.56,0.25" style="fill:rgb(0,0,0);font-family:PalatinoLinotype;font-size:10.02px;stroke:none;">allowing its passage and avoiding the accumulation of sand at the base of these devices forming </text>
   <text y="794.529" x="76.747,82.868,88.928,94.748,99.548,103.749,106.269,109.209,114.249,118.45,121.45,127.27,132.25,138.249,144.248,149.047,154.867,159.128,162.128,165.068,170.828,173.828,177.066,182.886,187.685,190.625,195.067,200.107,204.369,209.109,212.109,217.57,220.87,223.87,228.311,231.191,236.231,240.433,244.694,247.634,252.016,255.016,259.277,263.719,267.679,272.479,277.278,283.038,287.299,289.759,292.759,297.799,303.559,309.68,312.62,315.979,318.919,321.799,325.099,328.099,331.038,336.798,339.798,343.036,348.856,351.796,355.997,358.997,364.817,369.556,377.897,380.897,386.475,389.415,395.174,401.296,404.296,409.696,413.056,416.056,421.514,426.554,430.454,434.414,437.353,442.153,446.113,448.573,451.573,454.811,460.631,465.43,468.37,473.41,476.649,479.887,484.687,490.507,496.567,501.607,504.845,507.785,513.246,518.945" svgx:width="0.61,0.6,0.58,0.48,0.42,0.25,0.25,0.5,0.42,0.25,0.58,0.5,0.6,0.6,0.48,0.58,0.42,0.25,0.29,0.58,0.25,0.33,0.58,0.48,0.25,0.44,0.5,0.42,0.48,0.25,0.55,0.33,0.25,0.44,0.29,0.5,0.42,0.42,0.29,0.44,0.25,0.42,0.44,0.4,0.48,0.48,0.58,0.42,0.25,0.25,0.5,0.58,0.61,0.25,0.33,0.29,0.29,0.33,0.25,0.29,0.58,0.25,0.33,0.58,0.29,0.42,0.25,0.58,0.48,0.83,0.25,0.56,0.29,0.58,0.61,0.25,0.55,0.33,0.25,0.55,0.5,0.4,0.4,0.29,0.48,0.4,0.25,0.25,0.33,0.58,0.48,0.25,0.5,0.33,0.33,0.48,0.58,0.6,0.5,0.33,0.29,0.55,0.58,0.25" style="fill:rgb(0,0,0);font-family:PalatinoLinotype;font-size:10.02px;stroke:none;">dunes, as happens in the case of classic screens; and (ii) in this new kind of barrier, the attenuation </text>
  </g>
  <rect style="stroke:blue;stroke-width:0.3;" x="159.124" y="47.82" height="414.96" width="276.96" title="14"/>
  <text y="47.82" class="image" id="image.14.1" width="276" height="414" x="159.124">image.14.1.159_436.48_463</text>
  <rect style="stroke:blue;stroke-width:0.3;" x="159.124" y="47.82" height="414.96" width="276.96" title="14"/>
  <text y="47.82" class="image" id="image.14.2" width="276" height="414" x="159.124">image.14.2.159_436.48_463</text>
  <g begin="text">
   <text y="522.267" x="97.795,102.78,105.766,110.751,116.23,119.718,124.203,126.443,130.926" svgx:width="0.56,0.33,0.56,0.61,0.39,0.5,0.55,0.5,0.25" style="fill:rgb(0,0,0);font-family:URWPalladioL-Bold;font-size:8.97px;stroke:none;">Figure 8.</text>
   <text y="522.267" x="136.316" svgx:width="0.33" style="fill:rgb(0,0,0);font-family:URWPalladioL-Roma;font-size:8.97px;stroke:none;">(</text>
   <text y="522.267" x="139.323" svgx:width="0.5" style="fill:rgb(0,0,0);font-family:URWPalladioL-Bold;font-size:8.97px;stroke:none;">a</text>
   <text y="522.267" x="143.806" svgx:width="0.5" style="fill:rgb(0,0,0);font-family:URWPalladioL-Roma;font-size:8.97px;stroke:none;">–</text>
   <text y="522.267" x="148.321" svgx:width="0.44" style="fill:rgb(0,0,0);font-family:URWPalladioL-Bold;font-size:8.97px;stroke:none;">c</text>
   <text y="522.267" x="152.302,155.2621,157.557,164.654,169.8566,172.148,175.092,180.347,184.6526,186.92,189.547,193.872,196.879,199.8391,202.062,205.89,208.518,214.034,218.3396,220.608,225.538,228.49810000000002,230.783,233.727,238.982,243.2876,245.555,251.018,256.038,261.483,264.887,269.212,272.9794,275.279,280.299,285.229,290.611,292.922,296.931,301.446,306.64860000000004,308.94,312.768,317.093,321.39860000000004,323.667,328.152,330.429,335.856,338.483,342.492,345.427,350.871,354.284,358.5896,360.849,365.779,368.7391,371.033,373.977,379.232,383.53760000000005,385.796,392.821,398.2927,400.586,404.595,409.525,414.78,418.608,421.236,426.752,431.077,434.481,438.806,444.2777,446.562,449.19,454.3926,456.693,459.637,464.892,467.519,471.2864,473.587,477.415,480.359,485.803,491.32,496.34" svgx:width="0.33,0.55,0.79,0.58,0.55,0.33,0.58,0.48,0.55,0.29,0.48,0.33,0.33,0.55,0.42,0.29,0.61,0.48,0.55,0.55,0.33,0.55,0.33,0.58,0.48,0.55,0.61,0.56,0.6,0.4,0.48,0.42,0.55,0.56,0.55,0.6,0.55,0.44,0.5,0.58,0.55,0.42,0.48,0.48,0.55,0.5,0.55,0.6,0.29,0.44,0.33,0.6,0.4,0.48,0.55,0.55,0.33,0.55,0.33,0.58,0.48,0.55,0.78,0.61,0.55,0.44,0.55,0.58,0.42,0.29,0.61,0.48,0.4,0.48,0.61,0.55,0.29,0.58,0.55,0.33,0.58,0.29,0.42,0.55,0.42,0.33,0.6,0.61,0.56,0.25" style="fill:rgb(0,0,0);font-family:URWPalladioL-Roma;font-size:8.97px;stroke:none;">) On the left side of the ﬁgures you can see a picture of the AB considered in this study;</text>
   <text y="535.088" x="97.795,102.789,107.9916,110.873,113.855,119.178,123.4836,126.321,129.933,132.594,137.68,143.002,145.96210000000002,148.737,152.615,155.276,160.864,165.1696,168.007,175.634,179.93959999999998,182.777,186.655,191.978,196.971,204.4161,207.361,210.342,215.665" svgx:width="0.55,0.58,0.55,0.33,0.58,0.48,0.55,0.4,0.29,0.56,0.58,0.33,0.55,0.42,0.29,0.61,0.48,0.55,0.83,0.48,0.55,0.42,0.58,0.55,0.83,0.55,0.33,0.58,0.48" style="fill:rgb(0,0,0);font-family:URWPalladioL-Roma;font-size:8.97px;stroke:none;">on the right side we show the</text>
   <text y="535.088" x="222.806,225.852" svgx:width="0.33,0.56" style="fill:rgb(0,0,0);font-family:URWPalladioL-Ital;font-size:8.97px;stroke:none;">IL</text>
   <text y="535.088" x="233.697,237.575,243.071,247.452,251.513,254.494,258.107,262.59200000000004,265.442,270.015,273.7824,276.655,281.14,283.98,287.026,292.541,297.863,301.924,304.906,307.567,312.561,317.7636,320.645,325.639,328.5991,331.447,334.428,339.751,344.0566,346.894,349.939,353.387,357.768,362.89,368.404,372.785,378.108,382.169,387.19219999999996,390.016,393.061,398.055,401.64300000000003,404.43,408.81,413.383,417.444,422.64660000000003,425.529,429.589,434.162,438.04,442.34560000000005,445.183,450.24,454.621,457.667,462.66,466.108,470.41360000000003,473.251,476.297,481.354,484.016,488.589,492.649" svgx:width="0.42,0.6,0.48,0.44,0.33,0.4,0.5,0.55,0.5,0.42,0.55,0.5,0.55,0.33,0.6,0.58,0.44,0.33,0.29,0.55,0.58,0.55,0.55,0.33,0.55,0.33,0.58,0.48,0.55,0.33,0.4,0.48,0.56,0.6,0.48,0.58,0.44,0.56,0.55,0.33,0.55,0.4,0.55,0.48,0.5,0.44,0.58,0.55,0.44,0.5,0.42,0.48,0.55,0.55,0.48,0.33,0.55,0.4,0.48,0.55,0.33,0.55,0.29,0.5,0.44,0.56" style="fill:rgb(0,0,0);font-family:URWPalladioL-Roma;font-size:8.97px;stroke:none;">spectra as a function of the frequency for each case before (black</text>
   <text y="547.91" x="97.795,101.776,106.672,111.89,114.813,117.422,122.641,128.048,132.943,138.35,142.1174,144.393,147.003,149.612,154.83,159.125,162.0851,164.353,168.836,174.054,179.5257,181.774,186.258,189.243,192.166,196.461,200.049,202.245,205.23,208.611,212.906,218.3777,220.626,226.104,231.0,233.923,236.846,241.141,246.6127,248.861,251.47,254.079,259.298,263.593,266.55310000000003,268.82,271.743,276.6765,278.88,283.364,288.752,294.141,296.75,301.7732,303.977,306.9,312.119,316.42460000000005,318.655,323.139,325.748,329.336,331.531,336.983,341.878,348.531" svgx:width="0.44,0.55,0.58,0.33,0.29,0.58,0.6,0.55,0.6,0.42,0.55,0.29,0.29,0.58,0.48,0.33,0.55,0.5,0.58,0.61,0.55,0.5,0.33,0.33,0.48,0.4,0.55,0.33,0.4,0.48,0.61,0.55,0.61,0.55,0.33,0.33,0.48,0.61,0.55,0.29,0.29,0.58,0.48,0.33,0.55,0.33,0.55,0.55,0.5,0.6,0.6,0.29,0.56,0.55,0.33,0.58,0.48,0.55,0.5,0.29,0.4,0.55,0.61,0.55,0.83,0.25" style="fill:rgb(0,0,0);font-family:URWPalladioL-Roma;font-size:8.97px;stroke:none;">continuous line) and after (red dotted line) to apply the air ﬂow.</text>
   <text y="568.992" x="76.535,81.516,84.006,87.494,94.687,100.226,106.313,110.737,114.054,120.141,124.565,127.882,133.421,139.509" svgx:width="0.5,0.25,0.55,0.72,0.56,0.61,0.44,0.33,0.61,0.44,0.33,0.56,0.61,0.44" style="fill:rgb(0,0,0);font-family:URWPalladioL-Bold;font-size:9.96px;stroke:none;">5. Conclusions</text>
   <text y="588.479" x="97.795,101.22,106.9968,109.949,113.261,119.176,122.133,126.3162,129.266,137.741,143.29,147.304,152.954,155.44400000000002,158.39,166.865,171.6458,174.548,180.655,184.496,189.363,193.672,198.54,204.444,207.756,212.624,218.6996,221.658,226.63799999999998,229.554,238.527,241.484,246.727,251.595,257.6706,260.618,266.726,272.64,278.188,281.501,287.049,292.699,296.713,301.794,310.767,319.74,324.608,327.92,331.934,334.891,339.403,342.787,347.868,352.38,357.928,364.056,368.364,371.677,374.634,379.01640000000003,381.961,385.274,390.141,394.653,400.567,406.482,409.439,415.129,421.257,426.0378,428.949,432.262,437.74,440.625,445.137,450.218,454.049,458.917,462.301,468.428,471.385,474.342,479.9196,482.817,487.898,493.813,498.893,501.851,507.501,512.581,517.449" svgx:width="0.34,0.58,0.55,0.33,0.58,0.29,0.42,0.55,0.83,0.55,0.4,0.56,0.25,0.55,0.83,0.48,0.55,0.6,0.4,0.48,0.42,0.48,0.58,0.33,0.48,0.61,0.55,0.5,0.55,0.88,0.29,0.52,0.48,0.61,0.55,0.6,0.58,0.55,0.33,0.55,0.56,0.4,0.5,0.88,0.88,0.48,0.33,0.4,0.29,0.44,0.33,0.5,0.44,0.55,0.6,0.42,0.33,0.29,0.44,0.55,0.33,0.48,0.44,0.58,0.58,0.29,0.56,0.6,0.48,0.55,0.33,0.55,0.55,0.44,0.5,0.4,0.48,0.33,0.6,0.29,0.29,0.56,0.55,0.5,0.58,0.5,0.29,0.56,0.5,0.48,0.25" style="fill:rgb(0,0,0);font-family:URWPalladioL-Roma;font-size:9.96px;stroke:none;">In this work, we presented a mixed photogrammetric-acoustic technique to carefully analyze,</text>
   <text y="601.989" x="76.535,79.848,85.396,91.046,95.914,99.226,105.141,110.008,113.99199999999999,116.654,125.129,128.086,131.399,137.1758,139.935,143.248,149.162,153.9428,156.661,162.87,167.738,172.046,175.003,180.653,186.4298,189.199,194.28,200.195,206.2706,209.025,213.537,219.085,225.0,229.308,232.621,236.554,242.681,247.193,250.506,253.463,259.011,264.7878,267.557,273.106,276.3928,279.122,284.10200000000003,286.824,291.133,295.645,300.726,303.683,308.4638,311.182,319.657,322.614,328.529,334.6046,337.369,340.682,346.81,352.724,358.638,363.506,366.463,368.95300000000003,371.666,374.978,380.893,385.67379999999997,388.382,393.463,396.776,400.088,404.956,410.87,416.998,422.079,425.391,428.348,433.897,439.67379999999997,442.443,448.062,452.93,458.844,463.925,469.667,472.624,478.172,482.156,484.818,489.899,495.813,501.8886,504.644,507.956,513.871" svgx:width="0.33,0.55,0.56,0.48,0.33,0.58,0.48,0.4,0.55,0.83,0.29,0.33,0.58,0.55,0.33,0.58,0.48,0.55,0.61,0.48,0.42,0.29,0.56,0.58,0.55,0.5,0.58,0.61,0.55,0.44,0.55,0.58,0.42,0.33,0.4,0.6,0.44,0.33,0.29,0.55,0.58,0.55,0.55,0.33,0.55,0.5,0.55,0.42,0.44,0.5,0.29,0.48,0.55,0.83,0.29,0.58,0.61,0.55,0.33,0.6,0.58,0.58,0.48,0.29,0.25,0.55,0.33,0.58,0.48,0.55,0.5,0.33,0.33,0.48,0.58,0.6,0.5,0.33,0.29,0.55,0.58,0.55,0.55,0.48,0.58,0.5,0.56,0.29,0.55,0.4,0.55,0.5,0.58,0.61,0.55,0.33,0.58,0.48" style="fill:rgb(0,0,0);font-family:URWPalladioL-Roma;font-size:9.96px;stroke:none;">together with the design and construction of a scale wind tunnel, the attenuation behavior and the</text>
   <text y="615.498" x="76.236,82.224,86.996,90.931,99.728,104.5,109.481,114.991,117.89,120.789,123.688,126.936,132.5136,134.966,138.213,143.691,146.144,150.368,155.349,161.147,167.2226,169.725,175.165,178.4518,180.983,185.963,188.455,194.253,199.025,207.2918,209.824,213.072,218.611,224.599,229.3798,231.862,237.301,240.5878,243.109,248.091,252.514,257.954,263.961,268.185,271.433,274.332,278.7144,281.246,286.756,291.737,295.672,299.607,302.507,307.279,311.214,315.3972,317.939,323.448,328.429,332.653,337.425,343.5006,346.003,351.443,357.21979999999996,359.732,365.719,370.491,374.427,377.326,382.765,388.852,391.752,396.1344,398.666,403.647,407.582,411.517,416.499,422.038,426.2212,428.753,434.192,437.47880000000004,440.0,444.225,448.648,453.629,456.877,460.125,464.897,468.653,473.425,477.36,481.584,484.074,486.576,492.583,496.807,502.815,507.796,510.695,513.594" svgx:width="0.6,0.48,0.4,0.88,0.48,0.5,0.55,0.29,0.29,0.29,0.33,0.56,0.55,0.33,0.55,0.55,0.42,0.5,0.58,0.61,0.55,0.55,0.33,0.55,0.5,0.55,0.58,0.48,0.83,0.55,0.33,0.56,0.6,0.48,0.55,0.55,0.33,0.55,0.5,0.44,0.55,0.6,0.42,0.33,0.29,0.44,0.55,0.55,0.5,0.4,0.4,0.29,0.48,0.4,0.42,0.55,0.55,0.5,0.42,0.48,0.61,0.55,0.55,0.58,0.55,0.6,0.48,0.4,0.29,0.55,0.61,0.29,0.44,0.55,0.5,0.4,0.4,0.5,0.56,0.42,0.55,0.55,0.33,0.55,0.42,0.44,0.5,0.33,0.33,0.48,0.4,0.48,0.4,0.42,0.25,0.55,0.6,0.42,0.6,0.5,0.29,0.29,0.56" style="fill:rgb(0,0,0);font-family:URWPalladioL-Roma;font-size:9.96px;stroke:none;">permeability to sand of a new type of acoustic barriers based on periodic arrays of scatterers, usually</text>
   <text y="629.008" x="76.535,80.954,85.93,88.827,91.723,96.49,102.56559999999999,105.079,109.299,114.733,120.526,123.422,127.8044,130.339,134.758,138.689,144.223,148.443,151.687,156.664,159.55239999999998,162.068,167.044,171.463,176.897,182.899,187.119,190.363,193.26,197.64239999999998,200.177,204.397,208.816,212.568,217.335,222.102,227.895,232.115,234.60500000000002,238.136,241.49,247.26680000000002,249.781,254.2,259.634,265.426,268.671,272.602,277.578,281.798,285.08480000000003,287.551,290.795,296.273,298.728,301.972,307.765,312.5458,315.04,320.833,326.267,332.059,335.373,341.355,346.122,350.053,358.842,363.609,368.585,374.089,376.985,379.882,382.778,386.022,391.5996,394.054,400.036,403.788,409.222,415.203,419.971,423.902,427.147,430.043,434.81,438.9932,441.538,446.972,450.2588,452.795,457.214,460.11,465.086,469.306,473.526,476.422,480.80440000000004,483.339,488.843,493.819,497.751,501.682,504.578,509.345,513.277,517.497" svgx:width="0.44,0.5,0.29,0.29,0.48,0.61,0.55,0.42,0.55,0.58,0.29,0.44,0.55,0.44,0.4,0.56,0.42,0.33,0.5,0.29,0.55,0.5,0.44,0.55,0.6,0.42,0.33,0.29,0.44,0.55,0.42,0.44,0.4,0.48,0.48,0.58,0.42,0.25,0.55,0.34,0.58,0.55,0.44,0.55,0.58,0.33,0.4,0.5,0.42,0.33,0.55,0.33,0.55,0.55,0.33,0.58,0.48,0.55,0.58,0.55,0.58,0.33,0.6,0.48,0.4,0.88,0.48,0.5,0.55,0.29,0.29,0.29,0.33,0.56,0.55,0.6,0.4,0.55,0.6,0.48,0.4,0.33,0.29,0.48,0.42,0.55,0.55,0.33,0.55,0.44,0.29,0.5,0.42,0.42,0.29,0.44,0.55,0.55,0.5,0.4,0.4,0.29,0.48,0.4,0.42,0.25" style="fill:rgb(0,0,0);font-family:URWPalladioL-Roma;font-size:9.96px;stroke:none;">called sonic crystal acoustic screens. In contrast to the non-permeability properties of classic barriers,</text>
   <text y="642.517" x="76.535,79.848,85.762,90.5428,93.231,97.54,102.051,105.893,110.76,115.628,121.542,125.7252,128.452,134.071,139.152,143.461,148.329,154.40460000000002,157.139,162.687,168.46380000000002,171.213,175.522,181.07,186.984,189.941,194.3234,197.055,201.566,205.58,211.23,215.539,218.852,223.933,226.82139999999998,229.491,234.572,237.529,240.486,246.035,254.3018,257.111,263.218,268.086,272.1,281.073,285.94,291.021,296.641,299.598,302.555,305.512,308.825,314.4026,317.086,320.399,325.877,328.549,337.024,339.981,345.895,351.9706,354.706,359.786,365.701,371.77660000000003,374.521,382.996,388.077,391.39,396.257,399.529,402.019,404.702,410.321,416.449,419.73580000000004,422.363,428.491,434.405,437.718,440.675,443.5634,446.244,452.158,457.706,465.256,467.746,470.439,476.353,481.831,484.503,490.051,495.965,500.7458,503.434,509.349,514.43" svgx:width="0.33,0.58,0.48,0.55,0.42,0.44,0.4,0.48,0.48,0.58,0.42,0.55,0.55,0.5,0.42,0.48,0.61,0.55,0.55,0.58,0.55,0.42,0.55,0.58,0.29,0.44,0.55,0.44,0.4,0.56,0.42,0.33,0.5,0.29,0.55,0.5,0.29,0.29,0.55,0.83,0.55,0.6,0.48,0.4,0.88,0.48,0.5,0.55,0.29,0.29,0.29,0.33,0.56,0.55,0.33,0.55,0.55,0.83,0.29,0.58,0.61,0.55,0.5,0.58,0.61,0.55,0.83,0.5,0.33,0.48,0.4,0.25,0.55,0.55,0.6,0.33,0.55,0.6,0.58,0.33,0.29,0.29,0.55,0.58,0.55,0.83,0.25,0.55,0.58,0.55,0.55,0.55,0.58,0.48,0.55,0.58,0.5,0.42" style="fill:rgb(0,0,0);font-family:URWPalladioL-Roma;font-size:9.96px;stroke:none;">the screens based on sonic crystal allow permeability to wind and water, but until now, no one has</text>
   <text y="656.026" x="76.535,81.616,87.53,92.611,95.568,101.218,106.299,111.167,117.2426,120.018,123.33,129.245,134.0258,136.754,141.063,146.144,152.058,158.1336,160.909,167.016,171.884,175.898,184.87,189.738,194.819,200.438,203.396,206.353,209.31,212.622,218.1996,220.915,225.995,231.91,237.9856,240.771,243.728,247.041,251.2242,253.991,256.948,262.863,269.041,275.169,280.036,285.95,290.462,295.2428,297.972,303.52,309.29679999999996,312.077,316.385,321.934,328.061,333.975,340.05060000000003,342.826,347.907,351.22,354.533,359.4,365.314,371.442,376.523,379.836,382.793,388.341,394.255,396.745,400.739,406.968,412.882,415.839,420.0222,422.79,427.099,430.056,433.368,439.496,444.577,447.89,450.847,456.395,462.17179999999996,464.951,467.909,472.0922,474.859,479.727,484.035,490.143,495.01,499.522,502.479,507.56,510.517,513.474" svgx:width="0.5,0.58,0.5,0.29,0.56,0.5,0.48,0.61,0.55,0.33,0.58,0.48,0.55,0.42,0.5,0.58,0.61,0.55,0.6,0.48,0.4,0.88,0.48,0.5,0.55,0.29,0.29,0.29,0.33,0.56,0.55,0.5,0.58,0.61,0.55,0.29,0.33,0.42,0.55,0.29,0.58,0.61,0.6,0.48,0.58,0.44,0.48,0.55,0.55,0.58,0.55,0.42,0.55,0.6,0.58,0.61,0.55,0.5,0.33,0.33,0.48,0.58,0.6,0.5,0.33,0.29,0.55,0.58,0.25,0.55,0.61,0.58,0.29,0.42,0.55,0.42,0.29,0.33,0.6,0.5,0.33,0.29,0.55,0.58,0.55,0.29,0.42,0.55,0.48,0.42,0.6,0.48,0.44,0.29,0.5,0.29,0.29,0.56" style="fill:rgb(0,0,0);font-family:URWPalladioL-Roma;font-size:9.96px;stroke:none;">analyzed the sand permeability and its inﬂuence on sound attenuation. This situation is especially</text>
   <text y="669.536" x="76.535,79.434,85.232,88.48,93.252,97.008,101.78,106.004,109.252,112.151,117.95,123.5276,125.979,129.297,134.737,138.721,141.162,144.061,149.86,153.177,157.113,162.094,166.318,169.566,173.421,179.429,183.852,187.1,193.107,196.863,201.635,205.8182,208.35,211.249,216.689,221.112,226.094,229.341,234.113,240.1886,242.691,245.59,251.3668,253.879,259.966,264.738,268.963,273.735,277.67,280.95680000000004,283.408,287.633,293.072,295.971,298.87,303.094" svgx:width="0.29,0.58,0.33,0.48,0.4,0.48,0.42,0.33,0.29,0.58,0.56,0.55,0.33,0.55,0.4,0.55,0.29,0.58,0.33,0.4,0.5,0.42,0.33,0.4,0.6,0.44,0.33,0.6,0.4,0.48,0.42,0.55,0.29,0.55,0.44,0.5,0.33,0.48,0.61,0.55,0.29,0.58,0.55,0.61,0.48,0.42,0.48,0.4,0.33,0.55,0.42,0.55,0.29,0.29,0.42,0.25" style="fill:rgb(0,0,0);font-family:URWPalladioL-Roma;font-size:9.96px;stroke:none;">interesting for infrastructures located in desert soils.</text>
   <text y="683.045" x="97.795,104.024,109.938,114.7188,117.489,123.698,128.565,134.307,139.174,142.131,147.68,153.787,162.76,167.627,173.541,176.8278,179.537,185.085,188.3718,191.152,194.465,200.379,205.1598,207.929,216.404,221.952,225.966,231.5436,234.299,242.774,247.855,252.0382,254.846,259.358,264.907,273.88,279.987,282.944,287.811,293.055,295.545,298.329,303.948,308.816,313.328,318.409,324.536,328.845,333.6258,336.395,342.086,348.214,353.294,359.209,362.521,365.478,368.791,373.872,377.185,380.142,385.884,390.6648,393.434,397.946,403.494,412.467,418.574,423.655,427.669,430.626,434.935,440.483,446.2598,449.08,454.628,457.9148,460.695,464.008,469.922,474.7028,477.472,481.303,486.171,490.479,496.607,499.564,502.877,507.0602,509.868,512.825" svgx:width="0.61,0.58,0.48,0.55,0.61,0.48,0.56,0.48,0.29,0.55,0.6,0.88,0.48,0.58,0.33,0.55,0.55,0.33,0.55,0.33,0.58,0.48,0.55,0.83,0.55,0.4,0.56,0.55,0.83,0.5,0.42,0.55,0.44,0.55,0.88,0.6,0.29,0.48,0.52,0.25,0.55,0.55,0.48,0.44,0.5,0.6,0.42,0.48,0.55,0.56,0.6,0.5,0.58,0.33,0.29,0.33,0.5,0.33,0.29,0.56,0.48,0.55,0.44,0.55,0.88,0.6,0.5,0.4,0.29,0.42,0.55,0.58,0.55,0.55,0.33,0.55,0.33,0.58,0.48,0.55,0.4,0.48,0.42,0.6,0.29,0.33,0.42,0.55,0.29,0.58" style="fill:rgb(0,0,0);font-family:URWPalladioL-Roma;font-size:9.96px;stroke:none;">The development of the work was complex, because quantitative comparison of the results in</text>
   <text y="696.555" x="76.535,82.0,87.396,90.618,96.39479999999999,98.87,102.092,107.587,113.527,118.261,122.4442,124.951,130.347,133.6338,136.139,143.828,149.866,154.0492,156.557,159.433,163.6162,166.123,171.707,176.441,180.345,185.9226,188.35,194.389" svgx:width="0.55,0.55,0.33,0.58,0.55,0.33,0.56,0.6,0.48,0.42,0.55,0.55,0.33,0.55,0.78,0.61,0.42,0.55,0.29,0.42,0.55,0.56,0.48,0.4,0.56,0.55,0.61,0.29" style="fill:rgb(0,0,0);font-family:URWPalladioL-Roma;font-size:9.96px;stroke:none;">both types of ABs is very di</text>
   <text y="696.555" x="197.26" svgx:width="0.92" style="fill:rgb(0,0,0);font-family:Rpxr;font-size:9.96px;stroke:none;">ﬃ</text>
   <text y="696.555" x="206.343,210.731,216.69,219.566,222.8528,225.289,231.327,237.286,242.0668,244.521,247.742,253.22,255.639,258.861,264.613,269.3938,271.847,277.885" svgx:width="0.44,0.6,0.29,0.33,0.55,0.61,0.6,0.48,0.55,0.33,0.55,0.55,0.33,0.58,0.48,0.55,0.61,0.29" style="fill:rgb(0,0,0);font-family:URWPalladioL-Roma;font-size:9.96px;stroke:none;">cult due to the di</text>
   <text y="696.555" x="280.765" svgx:width="0.61" style="fill:rgb(0,0,0);font-family:Rpxr;font-size:9.96px;stroke:none;">ﬀ</text>
   <text y="696.555" x="286.773,291.507,295.233,299.967,305.719,309.0058,311.441,319.683,324.625,330.119,334.3022,336.81,340.032,345.784,350.518,356.0956,358.513,366.755,372.151,376.055,381.6326,384.05,388.992,393.38,398.776,404.735,408.926,412.147,415.023,419.411,424.353,427.229,430.105,434.493,436.983,440.482,446.54,452.292,457.026,460.752,465.486,468.777,474.173,477.898,482.632,485.122,487.603,490.895,496.291,500.275,502.705,505.926,511.678,514.554" svgx:width="0.48,0.4,0.48,0.58,0.33,0.55,0.83,0.5,0.56,0.42,0.55,0.33,0.58,0.48,0.56,0.55,0.83,0.55,0.4,0.56,0.55,0.5,0.44,0.55,0.6,0.42,0.33,0.29,0.44,0.5,0.29,0.29,0.56,0.25,0.55,0.61,0.58,0.48,0.4,0.48,0.33,0.55,0.4,0.48,0.25,0.55,0.33,0.55,0.4,0.55,0.33,0.58,0.29,0.42" style="fill:rgb(0,0,0);font-family:URWPalladioL-Roma;font-size:9.96px;stroke:none;">erent ways they work acoustically. Therefore, for this</text>
   <text y="710.064" x="76.535,82.683,86.697,91.005,94.2918,97.021,101.33,104.643,110.77,116.979,122.5566,125.332,130.881,136.6578,139.508,142.821,148.735,153.5158,156.306,160.137,165.004,167.961,173.042,176.355,179.312,184.86,190.775,195.083,200.997,203.954,209.93,212.765,218.384,223.252,226.565,235.04,239.907,244.775,250.55180000000001,253.402,257.711,262.792,268.706,274.7816,277.618,286.591,292.139,297.88,302.748,311.721,316.588,322.503,325.7898,328.518,333.599,339.514,345.5896,348.426,351.738,357.652,362.4328,365.223,369.735,375.649,380.73,386.644,392.294,397.0748,399.875,402.832,408.6088,411.449,414.762,420.676,425.4568,428.247,433.328,437.84,443.388,449.516,453.824,457.137,460.094,464.4764,467.309,472.39,475.703,479.016,483.883,489.797,495.925,501.006,504.319,507.276,512.824" svgx:width="0.61,0.4,0.42,0.33,0.55,0.42,0.33,0.6,0.61,0.56,0.55,0.55,0.58,0.55,0.33,0.58,0.48,0.55,0.4,0.48,0.29,0.5,0.33,0.29,0.55,0.58,0.42,0.58,0.29,0.6,0.55,0.55,0.48,0.33,0.83,0.48,0.48,0.58,0.55,0.42,0.5,0.58,0.61,0.55,0.88,0.55,0.56,0.48,0.88,0.48,0.58,0.33,0.55,0.5,0.58,0.61,0.55,0.33,0.58,0.48,0.55,0.44,0.58,0.5,0.58,0.56,0.48,0.55,0.29,0.58,0.55,0.33,0.58,0.48,0.55,0.5,0.44,0.55,0.6,0.42,0.33,0.29,0.44,0.55,0.5,0.33,0.33,0.48,0.58,0.6,0.5,0.33,0.29,0.55,0.58" style="fill:rgb(0,0,0);font-family:URWPalladioL-Roma;font-size:9.96px;stroke:none;">ﬁrst study on the relationship between sand movement and the change in the acoustic attenuation</text>
   <text y="723.573" x="76.236,82.325,86.145,91.677,97.766,102.62,106.622,109.925,112.873,117.726,121.9092,124.525,130.057,133.3438,135.923,141.243,148.426,156.309,161.4882,164.131,169.855,174.709,178.711,183.007,189.116,193.2992,195.905,200.403,203.352,208.418,212.714,217.01,219.958,224.456,229.522,232.41039999999998,234.973,242.856,249.047,253.343,255.833,258.378,266.828,271.6088,274.174,280.263,284.093,288.946,292.32,297.174,301.176,304.996,309.849,315.9246,318.532,321.835,327.313,329.869,333.243,338.775,343.274,349.384,353.5672,356.182,361.714,367.4908,370.103,375.083,377.672,383.346,389.456,394.522,397.47,400.418,403.721,408.787,412.09,415.039,420.763,425.5438,428.109,433.175,439.072,444.138,447.086,452.719,457.015,459.964,464.26,466.75,469.295,477.745,483.642,486.591,491.089,496.8658,499.478,508.425,513.491" svgx:width="0.6,0.4,0.55,0.6,0.48,0.4,0.33,0.29,0.48,0.42,0.55,0.55,0.33,0.55,0.52,0.71,0.78,0.52,0.55,0.56,0.48,0.4,0.42,0.6,0.42,0.55,0.44,0.29,0.5,0.42,0.42,0.29,0.44,0.5,0.29,0.55,0.78,0.61,0.42,0.25,0.55,0.83,0.48,0.55,0.6,0.4,0.48,0.33,0.48,0.4,0.4,0.48,0.61,0.55,0.33,0.55,0.55,0.33,0.55,0.44,0.6,0.42,0.55,0.55,0.58,0.55,0.5,0.55,0.56,0.6,0.5,0.29,0.29,0.33,0.5,0.33,0.29,0.56,0.48,0.55,0.5,0.58,0.5,0.29,0.56,0.42,0.29,0.42,0.25,0.55,0.83,0.58,0.29,0.44,0.58,0.55,0.88,0.5,0.56" style="fill:rgb(0,0,0);font-family:URWPalladioL-Roma;font-size:9.96px;stroke:none;">properties of SCAS versus classical ABs, we preferred to focus on a qualitative analysis, which may</text>
   <text y="737.083" x="76.535,81.571,84.502,88.299,93.124,98.16,104.314,109.8916,112.402,117.972,122.7528,125.284,130.784,134.0708,136.626,139.557,145.419,148.702,153.527,157.324,162.149,166.419,169.7058,172.181,175.464,180.942,183.451,188.276,194.138,199.738,202.669,208.531,213.356,218.18,222.159,226.3422,228.917,237.317,243.179,248.004,253.7808,256.354,260.624,265.449,268.38,273.205,277.677,280.96,283.891,289.753,295.3306,297.831,301.115,306.977,311.7578,314.289,317.573,323.173,329.226,334.0068,336.538,342.038,345.32480000000004,347.88,355.716,361.87,366.0532,368.628,371.912,377.39,379.889,385.459,390.2398,392.771,395.702,401.564,405.835,409.119,414.155,417.086,420.017,424.841,430.9166,433.483,436.414,442.19079999999997,444.764,449.236,454.736,463.629,472.523,478.596,484.458,487.389,491.862,496.898,500.181,503.112,508.612,514.474" svgx:width="0.5,0.29,0.4,0.48,0.5,0.61,0.56,0.55,0.55,0.48,0.55,0.55,0.33,0.55,0.29,0.58,0.33,0.48,0.4,0.48,0.42,0.33,0.55,0.33,0.55,0.55,0.48,0.58,0.56,0.29,0.58,0.48,0.48,0.4,0.42,0.55,0.83,0.58,0.48,0.58,0.55,0.42,0.48,0.29,0.48,0.44,0.33,0.29,0.58,0.56,0.55,0.33,0.58,0.48,0.55,0.33,0.56,0.6,0.48,0.55,0.55,0.33,0.55,0.78,0.61,0.42,0.55,0.33,0.55,0.55,0.55,0.48,0.55,0.29,0.58,0.42,0.33,0.5,0.29,0.29,0.48,0.61,0.55,0.29,0.58,0.55,0.44,0.55,0.88,0.88,0.6,0.58,0.29,0.44,0.5,0.33,0.29,0.55,0.58,0.42" style="fill:rgb(0,0,0);font-family:URWPalladioL-Roma;font-size:9.96px;stroke:none;">already be of interest to engineers when selecting the type of ABs to be installed in communications</text>
   <text y="750.592" x="76.535,79.434,85.232,88.55,92.485,97.466,101.691,104.938,108.794,114.801,119.225,122.473,128.48,132.236,137.0168,139.499,145.586,150.358,156.345,161.117,166.916,173.003,175.902,181.7,187.27759999999998,189.73,195.17,200.9468,203.458,206.706,212.505,217.2858,219.767,223.015,228.554,234.542,239.3228,241.804,247.244,250.5308,253.052,257.276,262.716,265.615,268.514" svgx:width="0.29,0.58,0.33,0.4,0.5,0.42,0.33,0.4,0.6,0.44,0.33,0.6,0.4,0.48,0.55,0.61,0.48,0.6,0.48,0.58,0.61,0.29,0.58,0.56,0.55,0.55,0.58,0.55,0.33,0.58,0.48,0.55,0.33,0.56,0.6,0.48,0.55,0.55,0.33,0.55,0.42,0.55,0.29,0.29,0.25" style="fill:rgb(0,0,0);font-family:URWPalladioL-Roma;font-size:9.96px;stroke:none;">infrastructure depending on the type of soil.</text>
  </g>
 </g>
</svg>
