<?xml version="1.0" encoding="UTF-8"?>
<svg height="779.252" width="530.3585" xmlns="http://www.w3.org/2000/svg">
 <g id="page" xmlns:svgx="http://www.xml-cml.org/schema/svgx">
  <g begin="text">
   <text y="62.979" x="76.312,80.743,83.844,88.275,91.375,94.914,98.015" svgx:width="0.56,0.39,0.56,0.39,0.44,0.39,0.39" style="fill:rgb(0,0,0);font-family:URWPalladioL-Ital;font-size:7.97px;stroke:none;">Sensors</text>
   <text y="62.979" x="103.107,107.092,111.077,115.062" svgx:width="0.5,0.5,0.5,0.5" style="fill:rgb(0,0,0);font-family:URWPalladioL-Bold;font-size:7.97px;stroke:none;">2019</text>
   <text y="62.979" x="119.047" svgx:width="0.25" style="fill:rgb(0,0,0);font-family:URWPalladioL-Roma;font-size:7.97px;stroke:none;">,</text>
   <text y="62.979" x="123.032,127.017" svgx:width="0.5,0.5" style="fill:rgb(0,0,0);font-family:URWPalladioL-Ital;font-size:7.97px;stroke:none;">19</text>
   <text y="62.979" x="131.003,132.9955,134.988,138.973,142.958,146.943,150.92800000000003,491.809,495.794,499.779,501.772,506.123,508.7531,510.77,514.755" svgx:width="0.25,0.55,0.5,0.5,0.5,0.5,0.55,0.5,0.5,0.55,0.55,0.33,0.55,0.5,0.5" style="fill:rgb(0,0,0);font-family:URWPalladioL-Roma;font-size:7.97px;stroke:none;">, 4881 16 of 17</text>
   <text y="97.848" x="76.535,81.018,85.501,87.74350000000001,98.05,105.361,110.659,113.216,115.4585,117.382,123.243,125.439,127.6815,129.692,135.061,137.618,142.504,146.897,152.011,154.2535,156.168,162.029,164.225,166.4675,168.487,175.789,180.587,185.701,190.587,193.451,197.845,202.643,204.8855,206.808,214.769,216.965,219.2075,221.218,224.144,226.701,231.095,236.209,239.135,244.434,246.6765,248.599,254.829,257.0715,258.994,263.607,268.906,272.377,275.303,279.696,283.598,287.90360000000004,289.766,297.525,301.734,306.128,309.854,315.152,318.465,322.674,330.433,334.642,339.756,342.7161,344.58,349.439,353.833,357.559,361.768,367.23969999999997,369.105,373.902,379.1046,380.985,383.542,388.656,392.382,395.246,399.64,404.754,407.618,412.012,417.126,421.335,426.133,431.431,435.1984,437.117,440.587,444.981,450.095,455.464,460.262,469.989,472.546,475.103,477.66,482.959,490.718,493.275,498.389,502.782,505.647,508.204,513.002,518.116" svgx:width="0.5,0.5,0.25,0.55,0.83,0.6,0.29,0.25,0.55,0.67,0.25,0.25,0.55,0.61,0.29,0.56,0.5,0.58,0.25,0.55,0.67,0.25,0.25,0.55,0.83,0.55,0.58,0.56,0.33,0.5,0.55,0.25,0.55,1.0,0.25,0.25,0.55,0.33,0.29,0.5,0.58,0.33,0.6,0.25,0.55,0.71,0.25,0.55,0.52,0.6,0.4,0.33,0.5,0.44,0.48,0.55,0.88,0.48,0.5,0.42,0.6,0.4,0.48,0.88,0.48,0.58,0.33,0.55,0.55,0.5,0.42,0.48,0.61,0.55,0.55,0.58,0.55,0.29,0.58,0.42,0.33,0.5,0.58,0.33,0.5,0.58,0.48,0.55,0.6,0.42,0.55,0.4,0.5,0.58,0.61,0.55,0.88,0.29,0.29,0.29,0.6,0.88,0.29,0.58,0.5,0.33,0.29,0.55,0.58,0.25" style="fill:rgb(0,0,0);font-family:URWPalladioL-Roma;font-size:8.97px;stroke:none;">12. Hui, Z.; Liyan, Z.; Hongtao, W.; Jianfu, C. Surface measurement based on instantaneous randomillumination.</text>
   <text y="110.76" x="97.755,103.736,108.219,110.711,115.697,117.93950000000001,121.077,124.062,126.3045,128.546,135.019,138.507,141.834,145.815,150.8,154.781,159.767,162.752" svgx:width="0.67,0.5,0.28,0.56,0.25,0.55,0.33,0.25,0.55,0.72,0.39,0.39,0.44,0.56,0.44,0.56,0.33,0.25" style="fill:rgb(0,0,0);font-family:URWPalladioL-Ital;font-size:8.97px;stroke:none;">Chin. J. Aeronaut.</text>
   <text y="110.76" x="168.131,172.614,177.097,181.581" svgx:width="0.5,0.5,0.5,0.5" style="fill:rgb(0,0,0);font-family:URWPalladioL-Bold;font-size:8.97px;stroke:none;">2008</text>
   <text y="110.76" x="186.064" svgx:width="0.25" style="fill:rgb(0,0,0);font-family:URWPalladioL-Roma;font-size:8.97px;stroke:none;">,</text>
   <text y="110.76" x="190.547,195.03" svgx:width="0.5,0.5" style="fill:rgb(0,0,0);font-family:URWPalladioL-Ital;font-size:8.97px;stroke:none;">22</text>
   <text y="110.76" x="199.513,201.7555,203.996,208.479,212.963,217.446,221.929,226.412,230.895,235.379,237.6215,240.758" svgx:width="0.25,0.55,0.5,0.5,0.5,0.5,0.5,0.5,0.5,0.25,0.55,0.33" style="fill:rgb(0,0,0);font-family:URWPalladioL-Roma;font-size:8.97px;stroke:none;">, 316–324. [</text>
   <text y="110.76" x="243.744,250.101,253.482,258.377,262.179,265.981,271.971,276.265" svgx:width="0.71,0.4,0.55,0.42,0.42,0.67,0.48,0.33" style="fill:rgb(8,117,183);font-family:URWPalladioL-Roma;font-size:8.97px;stroke:none;">CrossRef</text>
   <text y="110.76" x="279.251" svgx:width="0.33" style="fill:rgb(0,0,0);font-family:URWPalladioL-Roma;font-size:8.97px;stroke:none;">]</text>
   <text y="123.672" x="76.535,81.018,85.501,87.74350000000001,98.05,106.642,110.675,116.161,121.448,125.798,129.386,132.811,137.77,143.056,145.29850000000002,147.57,152.339,154.61,158.942,161.213,163.4555,165.736,172.667,177.017,180.605,185.891,190.433,193.394,195.6365,197.908,202.813,205.084,207.3265,209.598,217.155,222.632,227.655,230.298,232.941,238.227,240.4695,242.742,245.766,248.037,251.062,253.30450000000002,255.585,260.353,263.314,266.83,272.307,276.339,279.301,284.778,288.202,292.553,298.0247,300.346,302.989,305.632,310.682,315.968,318.92810000000003,321.173,325.024,329.057,333.598,338.885,344.171,346.814,352.1,357.1232,359.394,362.419,367.378,370.966,373.218,378.505,381.148,386.198,391.484,394.509,397.933,402.284,406.135,411.094,413.737,419.214,422.175,424.819,429.778,434.98060000000004,437.308,442.857,447.817,451.849,457.327,465.347,469.698,474.984,477.945,482.486,485.447,488.091,493.05,498.25260000000003,500.58,505.539,508.4991,510.807,513.45" svgx:width="0.5,0.5,0.25,0.55,0.95,0.44,0.6,0.58,0.48,0.4,0.4,0.55,0.58,0.25,0.55,0.52,0.25,0.6,0.25,0.25,0.55,0.76,0.48,0.4,0.58,0.5,0.33,0.25,0.55,0.61,0.25,0.25,0.55,0.83,0.6,0.55,0.29,0.29,0.58,0.25,0.55,0.33,0.25,0.33,0.25,0.55,0.52,0.33,0.4,0.6,0.44,0.33,0.6,0.4,0.48,0.61,0.55,0.29,0.29,0.56,0.58,0.33,0.55,0.42,0.44,0.5,0.58,0.58,0.29,0.58,0.56,0.55,0.33,0.55,0.4,0.55,0.58,0.29,0.56,0.58,0.33,0.4,0.48,0.42,0.55,0.29,0.6,0.33,0.29,0.55,0.58,0.55,0.61,0.55,0.44,0.6,0.88,0.48,0.58,0.33,0.5,0.33,0.29,0.55,0.58,0.55,0.55,0.33,0.55,0.29,0.58" style="fill:rgb(0,0,0);font-family:URWPalladioL-Roma;font-size:8.97px;stroke:none;">13. McPherron, S.P.; Gernat, T.; Hublin, J.J. Structured light scanning for high-resolution documentation of in</text>
   <text y="136.583" x="98.05,101.852,104.461,107.384,112.766,115.032,119.516,122.896,126.877,132.095,136.579,140.874,145.769,148.378,153.274,158.259,160.869,164.85,169.333,171.9343,174.184,179.608,184.827,190.305,194.107" svgx:width="0.42,0.29,0.33,0.6,0.55,0.5,0.4,0.44,0.58,0.5,0.48,0.55,0.29,0.55,0.56,0.29,0.44,0.5,0.29,0.55,0.61,0.58,0.61,0.42,0.25" style="fill:rgb(0,0,0);font-family:URWPalladioL-Roma;font-size:8.97px;stroke:none;">situ archaeological ﬁnds.</text>
   <text y="136.583" x="199.486,202.472,204.71450000000002,206.955,213.429,216.755,220.405,224.888,228.869,232.357,236.338,238.831,241.0735,244.21,249.196,252.845,255.338" svgx:width="0.33,0.25,0.55,0.72,0.39,0.41,0.5,0.44,0.39,0.44,0.28,0.25,0.55,0.56,0.41,0.28,0.25" style="fill:rgb(0,0,0);font-family:URWPalladioL-Ital;font-size:8.97px;stroke:none;">J. Archaeol. Sci.</text>
   <text y="136.583" x="260.717,265.2,269.683,274.167" svgx:width="0.5,0.5,0.5,0.5" style="fill:rgb(0,0,0);font-family:URWPalladioL-Bold;font-size:8.97px;stroke:none;">2009</text>
   <text y="136.583" x="278.649" svgx:width="0.25" style="fill:rgb(0,0,0);font-family:URWPalladioL-Roma;font-size:8.97px;stroke:none;">,</text>
   <text y="136.583" x="283.133,287.616" svgx:width="0.5,0.5" style="fill:rgb(0,0,0);font-family:URWPalladioL-Ital;font-size:8.97px;stroke:none;">36</text>
   <text y="136.583" x="292.099,294.3415,296.582,301.065,305.549,310.032,314.515,318.998,321.2405,324.378" svgx:width="0.25,0.55,0.5,0.5,0.5,0.5,0.5,0.25,0.55,0.33" style="fill:rgb(0,0,0);font-family:URWPalladioL-Roma;font-size:8.97px;stroke:none;">, 19–24. [</text>
   <text y="136.583" x="327.364,333.721,337.101,341.997,345.799,349.601,355.59,359.885" svgx:width="0.71,0.4,0.55,0.42,0.42,0.67,0.48,0.33" style="fill:rgb(8,117,183);font-family:URWPalladioL-Roma;font-size:8.97px;stroke:none;">CrossRef</text>
   <text y="136.583" x="362.871" svgx:width="0.33" style="fill:rgb(0,0,0);font-family:URWPalladioL-Roma;font-size:8.97px;stroke:none;">]</text>
   <text y="149.495" x="76.535,81.018,85.501,87.74350000000001,98.05,103.512,106.972,112.362,117.565,122.446,124.6885,126.934,131.073,133.307,135.5495,137.804,143.266,145.867,150.337,155.54,159.509,164.39,166.6325,168.869,175.69,177.924,180.1665,182.421,190.878,196.268,200.738,205.208,210.589,215.962,220.432,225.804,231.177,235.647,237.8895,240.134,248.591,250.826,253.0685,255.314,260.776,265.246,268.616,273.497,278.699,282.982,285.22450000000003,287.469,292.162,294.397,296.6395,298.885,304.856,309.326,313.796,316.397,321.278,326.481,330.951,333.552,337.834,340.0765,342.322,349.277,351.512,356.804,359.0465,361.291,366.753,371.366,376.739,381.021,384.552,387.153,395.047,399.329,404.532,407.446,411.916,414.83,417.432,422.313,427.5156,429.768,434.649,437.6091,439.879,443.669,446.583,450.034,455.424,459.394,462.308,467.698,471.069,475.351,480.8227,483.065,485.667,488.268,493.238,498.441,501.4011,503.608,508.078,513.281" svgx:width="0.5,0.5,0.25,0.55,0.61,0.4,0.6,0.58,0.55,0.25,0.55,0.56,0.25,0.25,0.55,0.61,0.29,0.5,0.58,0.44,0.55,0.25,0.55,0.76,0.25,0.25,0.55,0.95,0.6,0.5,0.5,0.6,0.6,0.5,0.6,0.6,0.5,0.25,0.55,0.95,0.25,0.25,0.55,0.61,0.5,0.4,0.55,0.58,0.48,0.25,0.55,0.52,0.25,0.25,0.55,0.67,0.5,0.5,0.29,0.55,0.58,0.5,0.29,0.48,0.25,0.55,0.78,0.25,0.72,0.25,0.55,0.61,0.52,0.6,0.48,0.4,0.29,0.88,0.48,0.58,0.33,0.5,0.33,0.29,0.55,0.58,0.55,0.55,0.33,0.55,0.42,0.33,0.4,0.6,0.44,0.33,0.6,0.4,0.48,0.61,0.55,0.29,0.29,0.56,0.58,0.33,0.55,0.5,0.58,0.61" style="fill:rgb(0,0,0);font-family:URWPalladioL-Roma;font-size:8.97px;stroke:none;">14. Bruno, F.; Bianco, G.; Muzzupappa, M.; Barone, S.; Razionale, A.V. Experimentation of structured light and</text>
   <text y="162.406" x="98.05,101.852,104.775,109.07,112.45,116.745,121.6785,123.882,128.948,131.557,135.359,137.968,142.864,148.0666,150.324,153.31,158.206,161.79399999999998,163.989,169.396,174.614,180.093,184.387,187.929,195.407,199.89,202.813,207.108,210.696,212.892,217.375,224.2819,226.556,229.937,234.232,238.213,243.108,248.327,252.129,255.052,258.522,263.928,267.91,270.833,273.442,278.337,283.556" svgx:width="0.42,0.33,0.48,0.4,0.48,0.55,0.55,0.56,0.29,0.42,0.29,0.55,0.58,0.55,0.33,0.55,0.4,0.55,0.6,0.58,0.61,0.48,0.4,0.83,0.5,0.33,0.48,0.4,0.55,0.5,0.77,0.55,0.4,0.48,0.44,0.55,0.58,0.42,0.33,0.4,0.6,0.44,0.33,0.29,0.55,0.58,0.25" style="fill:rgb(0,0,0);font-family:URWPalladioL-Roma;font-size:8.97px;stroke:none;">stereo vision for underwater 3D reconstruction.</text>
   <text y="162.406" x="288.933,291.919,296.904,302.383,308.363,313.3862,315.59,318.576,320.81850000000003,323.059,328.538,333.021,337.002,339.988,343.969,348.452,351.94,355.921,362.897,369.873" svgx:width="0.33,0.56,0.61,0.67,0.56,0.55,0.33,0.25,0.55,0.61,0.5,0.44,0.33,0.44,0.5,0.39,0.44,0.78,0.78,0.25" style="fill:rgb(0,0,0);font-family:URWPalladioL-Ital;font-size:8.97px;stroke:none;">ISPRS J. Photogramm.</text>
   <text y="162.406" x="375.252,379.735,384.218,388.702" svgx:width="0.5,0.5,0.5,0.5" style="fill:rgb(0,0,0);font-family:URWPalladioL-Bold;font-size:8.97px;stroke:none;">2011</text>
   <text y="162.406" x="393.185" svgx:width="0.25" style="fill:rgb(0,0,0);font-family:URWPalladioL-Roma;font-size:8.97px;stroke:none;">,</text>
   <text y="162.406" x="397.668,402.151" svgx:width="0.5,0.5" style="fill:rgb(0,0,0);font-family:URWPalladioL-Ital;font-size:8.97px;stroke:none;">66</text>
   <text y="162.406" x="406.634,408.8765,411.117,415.6,420.084,424.567,429.05,433.533,438.016,442.5,444.7425,447.88" svgx:width="0.25,0.55,0.5,0.5,0.5,0.5,0.5,0.5,0.5,0.25,0.55,0.33" style="fill:rgb(0,0,0);font-family:URWPalladioL-Roma;font-size:8.97px;stroke:none;">, 508–518. [</text>
   <text y="162.406" x="450.865,457.223,460.603,465.499,469.3,473.102,479.092,483.386" svgx:width="0.71,0.4,0.55,0.42,0.42,0.67,0.48,0.33" style="fill:rgb(8,117,183);font-family:URWPalladioL-Roma;font-size:8.97px;stroke:none;">CrossRef</text>
   <text y="162.406" x="486.372" svgx:width="0.33" style="fill:rgb(0,0,0);font-family:URWPalladioL-Roma;font-size:8.97px;stroke:none;">]</text>
   <text y="175.318" x="76.535,81.018,85.501,87.74350000000001,98.05,103.638,108.019,111.631,114.613,119.186,124.509,127.17,129.4125,132.383,139.462,141.748,143.9905,147.309,153.793,158.174,161.156,163.817,167.878,172.451,174.6935,177.673,186.325,188.611,190.8535,194.172,202.823,207.204,209.866,214.859,219.432,224.005,226.666,228.9085,231.879,240.531,242.818,245.06050000000002,248.378,253.902,258.283,262.856,267.429,272.002,274.983,277.645,279.8875,282.867,288.455,290.6975,293.668,301.277,303.939,309.024,314.347,317.392,323.501,327.882,331.76,336.754,339.415,344.93,347.911,350.573,355.566,360.7686,363.816,368.809,374.306,377.287,379.949,384.01,388.582,391.1833,394.18,397.161,402.155,407.651,412.645,417.73,421.342,425.915,431.412,436.735,441.7582,444.746,449.319,454.816,460.312,462.974,465.635,470.016,475.4877,478.531,481.512,486.4455,489.441,494.014,499.337,503.398,506.059,510.44,515.763" svgx:width="0.5,0.5,0.25,0.55,0.61,0.48,0.4,0.33,0.5,0.58,0.29,0.25,0.55,0.77,0.25,0.25,0.55,0.71,0.48,0.33,0.29,0.44,0.5,0.25,0.55,0.95,0.25,0.25,0.55,0.95,0.48,0.29,0.55,0.5,0.5,0.29,0.25,0.55,0.95,0.25,0.25,0.55,0.6,0.48,0.5,0.5,0.5,0.33,0.29,0.25,0.55,0.61,0.25,0.55,0.83,0.29,0.56,0.58,0.33,0.67,0.48,0.42,0.55,0.29,0.6,0.33,0.29,0.55,0.58,0.55,0.55,0.6,0.33,0.29,0.44,0.5,0.29,0.55,0.33,0.55,0.6,0.55,0.56,0.4,0.5,0.6,0.58,0.56,0.55,0.5,0.6,0.6,0.29,0.29,0.48,0.61,0.55,0.33,0.55,0.55,0.5,0.58,0.44,0.29,0.48,0.58,0.33" style="fill:rgb(0,0,0);font-family:URWPalladioL-Roma;font-size:8.97px;stroke:none;">15. Bertani, D.; Cetica, M.; Melozzi, M.; Pezzati, L. High-Resolution optical topography applied to ancient</text>
   <text y="188.23" x="97.781,103.17,107.653,110.262,115.481,118.404,121.013,126.231,131.2542,133.458,138.937,141.546,146.029,151.015,156.233,161.129,164.93,167.853,170.463,174.444,178.245" svgx:width="0.6,0.5,0.29,0.58,0.33,0.29,0.58,0.56,0.55,0.61,0.29,0.5,0.56,0.58,0.55,0.42,0.33,0.29,0.44,0.42,0.25" style="fill:rgb(0,0,0);font-family:URWPalladioL-Roma;font-size:8.97px;stroke:none;">painting diagnostics.</text>
   <text y="188.23" x="183.624,190.6,195.083,198.069,200.3115,203.449,208.927,213.912,218.396" svgx:width="0.78,0.5,0.33,0.25,0.55,0.61,0.56,0.5,0.25" style="fill:rgb(0,0,0);font-family:URWPalladioL-Ital;font-size:8.97px;stroke:none;">Opt. Eng.</text>
   <text y="188.23" x="223.776,228.259,232.742,237.226" svgx:width="0.5,0.5,0.5,0.5" style="fill:rgb(0,0,0);font-family:URWPalladioL-Bold;font-size:8.97px;stroke:none;">1995</text>
   <text y="188.23" x="241.708" svgx:width="0.25" style="fill:rgb(0,0,0);font-family:URWPalladioL-Roma;font-size:8.97px;stroke:none;">,</text>
   <text y="188.23" x="246.192,250.675" svgx:width="0.5,0.5" style="fill:rgb(0,0,0);font-family:URWPalladioL-Ital;font-size:8.97px;stroke:none;">34</text>
   <text y="188.23" x="255.158,257.40049999999997,259.641,264.124,268.608,273.091,277.574,282.057,286.54,291.024,295.507,299.99,302.2325,305.37" svgx:width="0.25,0.55,0.5,0.5,0.5,0.5,0.5,0.5,0.5,0.5,0.5,0.25,0.55,0.33" style="fill:rgb(0,0,0);font-family:URWPalladioL-Roma;font-size:8.97px;stroke:none;">, 1219–1225. [</text>
   <text y="188.23" x="308.356,314.713,318.093,322.989,326.791,330.592,336.582,340.877" svgx:width="0.71,0.4,0.55,0.42,0.42,0.67,0.48,0.33" style="fill:rgb(8,117,183);font-family:URWPalladioL-Roma;font-size:8.97px;stroke:none;">CrossRef</text>
   <text y="188.23" x="343.863" svgx:width="0.33" style="fill:rgb(0,0,0);font-family:URWPalladioL-Roma;font-size:8.97px;stroke:none;">]</text>
   <text y="201.141" x="76.535,81.018,85.501,87.74350000000001,98.05,103.485,108.848,112.797" svgx:width="0.5,0.5,0.25,0.55,0.61,0.6,0.44,0.58" style="fill:rgb(0,0,0);font-family:URWPalladioL-Roma;font-size:8.97px;stroke:none;">16. Buch</text>
   <text y="201.141" x="117.974" svgx:width="0.55" style="fill:rgb(0,0,0);font-family:VnURWPalladioL;font-size:8.97px;stroke:none;">ó</text>
   <text y="201.141" x="122.87,128.047,131.009,139.423,144.279,147.793,152.24,157.186,162.549,166.81,170.581,172.8235,175.046,179.164,181.388,183.6305,185.853,191.288,194.801,199.249,204.274,209.13,211.3725,213.596,216.558,218.781,227.196,229.419,231.66150000000002,233.875,238.821,243.081,246.595,250.108,252.697,254.9395,257.162,265.576,267.8,270.0425,272.265,278.206,282.467,287.902,292.758,297.935,303.369,308.226,310.4685,312.691,315.653,317.877,320.1195,322.333" svgx:width="0.58,0.33,0.95,0.55,0.4,0.5,0.56,0.6,0.48,0.42,0.25,0.55,0.56,0.25,0.25,0.55,0.61,0.4,0.5,0.56,0.55,0.25,0.55,0.33,0.25,0.95,0.25,0.25,0.55,0.56,0.48,0.4,0.4,0.29,0.25,0.55,0.95,0.25,0.25,0.55,0.67,0.48,0.61,0.55,0.58,0.61,0.55,0.25,0.55,0.33,0.25,0.25,0.55,0.52" style="fill:rgb(0,0,0);font-family:URWPalladioL-Roma;font-size:8.97px;stroke:none;">n-Moragues, F.; Bravo, J.M.; Ferri, M.; Redondo, J.; S</text>
   <text y="201.141" x="327.007" svgx:width="0.5" style="fill:rgb(0,0,0);font-family:VnURWPalladioL;font-size:8.97px;stroke:none;">á</text>
   <text y="201.141" x="331.49,336.667,340.616,345.793,350.053,354.5,357.462" svgx:width="0.58,0.44,0.58,0.48,0.5,0.33,0.6" style="fill:rgb(0,0,0);font-family:URWPalladioL-Roma;font-size:8.97px;stroke:none;">nchez-P</text>
   <text y="201.141" x="362.834" svgx:width="0.48" style="fill:rgb(0,0,0);font-family:VnURWPalladioL;font-size:8.97px;stroke:none;">é</text>
   <text y="201.141" x="367.129,370.482,374.743,379.19,381.4325,383.655,386.617,388.841,394.107,396.34950000000003,398.563,405.483,410.828,416.174,418.763,421.351,425.3,429.747,432.647,435.235,440.092,445.2946,447.51,452.367,455.32710000000003,457.57,461.341,464.241,467.683,473.047,476.996,479.896,485.259,488.603,492.864,498.3357,500.54,503.128,505.717,510.662,515.839" svgx:width="0.4,0.48,0.5,0.25,0.55,0.33,0.25,0.72,0.25,0.55,0.78,0.6,0.6,0.29,0.29,0.44,0.5,0.33,0.29,0.55,0.58,0.55,0.55,0.33,0.55,0.42,0.33,0.4,0.6,0.44,0.33,0.6,0.4,0.48,0.61,0.55,0.29,0.29,0.56,0.58,0.33" style="fill:rgb(0,0,0);font-family:URWPalladioL-Roma;font-size:8.97px;stroke:none;">rez, J.V. Application of structured light</text>
   <text y="214.053" x="98.05,101.814,106.749,110.513,113.407,117.659,127.743,130.636,134.888,138.83,143.996,149.153,151.736,156.707,162.06,166.3656,168.558,171.514,176.361,179.94899999999998,182.104,186.542,191.895,194.789,199.955,204.207,209.373,212.267,214.85,218.791,223.23,226.124,228.707,233.553,238.7556,240.965,245.812,248.77210000000002,251.005,258.408,263.255,268.102,273.525,277.777,282.9796,285.189,290.524,294.963,300.129,304.381,306.98229999999995,309.201,314.536,318.974,321.557,326.724,329.617,332.201,337.367,342.302,346.066" svgx:width="0.42,0.56,0.42,0.33,0.48,0.88,0.33,0.48,0.44,0.58,0.58,0.29,0.56,0.6,0.48,0.55,0.33,0.55,0.4,0.55,0.5,0.6,0.33,0.58,0.48,0.58,0.33,0.29,0.44,0.5,0.33,0.29,0.55,0.58,0.55,0.55,0.33,0.55,0.83,0.55,0.55,0.61,0.48,0.58,0.55,0.6,0.5,0.58,0.48,0.29,0.55,0.6,0.5,0.29,0.58,0.33,0.29,0.58,0.56,0.42,0.25" style="fill:rgb(0,0,0);font-family:URWPalladioL-Roma;font-size:8.97px;stroke:none;">systemtechnique for authentication of wooden panel paintings.</text>
   <text y="214.053" x="351.426,356.361,359.815,364.75,368.203,372.144,375.597" svgx:width="0.56,0.39,0.56,0.39,0.44,0.39,0.39" style="fill:rgb(0,0,0);font-family:URWPalladioL-Ital;font-size:8.97px;stroke:none;">Sensors</text>
   <text y="214.053" x="381.291,385.774,390.257,394.741" svgx:width="0.5,0.5,0.5,0.5" style="fill:rgb(0,0,0);font-family:URWPalladioL-Bold;font-size:8.97px;stroke:none;">2016</text>
   <text y="214.053" x="399.224" svgx:width="0.25" style="fill:rgb(0,0,0);font-family:URWPalladioL-Roma;font-size:8.97px;stroke:none;">,</text>
   <text y="214.053" x="403.685,408.123" svgx:width="0.5,0.5" style="fill:rgb(0,0,0);font-family:URWPalladioL-Ital;font-size:8.97px;stroke:none;">16</text>
   <text y="214.053" x="412.562,414.8045,417.018,421.456,425.895,430.333,432.57550000000003,435.695" svgx:width="0.25,0.55,0.5,0.5,0.5,0.25,0.55,0.33" style="fill:rgb(0,0,0);font-family:URWPalladioL-Roma;font-size:8.97px;stroke:none;">, 881. [</text>
   <text y="214.053" x="438.651,444.944,448.291,453.138,456.901,460.665,466.595,470.847" svgx:width="0.71,0.4,0.55,0.42,0.42,0.67,0.48,0.33" style="fill:rgb(8,117,183);font-family:URWPalladioL-Roma;font-size:8.97px;stroke:none;">CrossRef</text>
   <text y="214.053" x="473.803,476.7631,478.995" svgx:width="0.33,0.55,0.33" style="fill:rgb(0,0,0);font-family:URWPalladioL-Roma;font-size:8.97px;stroke:none;">] [</text>
   <text y="214.053" x="481.951,487.313,492.666,497.574,505.972,510.224" svgx:width="0.6,0.6,0.55,0.95,0.48,0.61" style="fill:rgb(8,117,183);font-family:URWPalladioL-Roma;font-size:8.97px;stroke:none;">PubMed</text>
   <text y="214.053" x="515.648" svgx:width="0.33" style="fill:rgb(0,0,0);font-family:URWPalladioL-Roma;font-size:8.97px;stroke:none;">]</text>
   <text y="226.964" x="76.535,81.018,85.501,87.74350000000001,98.05,104.886,108.357,110.914,115.308,119.034,121.27650000000001,123.163,127.32,129.517,131.7595,133.752,141.063,145.272,148.743,152.214,156.607,160.816,165.21,167.45250000000001,169.34,172.266,174.462,176.7045,178.698,184.067,188.864,192.177,196.386,201.5,205.894,210.691,212.9335,214.821,222.132,224.329,226.57150000000001,228.564,235.471,238.784,244.153,248.95,254.064,258.273,262.667,264.9095,266.797,273.027,275.2695,277.166,283.396,288.193,293.307,296.172,299.476,304.274,306.8753,308.773,313.57,316.5301,318.43,322.155,325.02,328.421,333.719,337.621,340.485,345.784,349.255,353.648,356.2493,358.139,363.42,366.732,371.53,376.389,378.946,383.155,390.914,394.6814,396.573,399.13,404.3326,406.177,410.079,415.378,417.935,420.799,426.098,429.569,433.962,436.56329999999997,438.461,443.575,447.784,451.255,453.812,456.677,461.07,465.956,470.26160000000004,472.098,479.857,484.655,489.769,495.067,502.826,507.035,512.15,515.014" svgx:width="0.5,0.5,0.25,0.55,0.78,0.4,0.29,0.5,0.42,0.25,0.55,0.6,0.25,0.25,0.55,0.83,0.48,0.4,0.4,0.5,0.48,0.5,0.25,0.55,0.33,0.25,0.25,0.55,0.61,0.55,0.4,0.48,0.58,0.5,0.55,0.25,0.55,0.83,0.25,0.25,0.55,0.79,0.4,0.61,0.55,0.58,0.48,0.5,0.25,0.55,0.71,0.25,0.55,0.71,0.55,0.58,0.33,0.4,0.55,0.29,0.55,0.55,0.33,0.55,0.42,0.33,0.4,0.6,0.44,0.33,0.6,0.4,0.5,0.29,0.55,0.6,0.4,0.55,0.55,0.29,0.48,0.88,0.42,0.55,0.29,0.58,0.55,0.44,0.6,0.29,0.33,0.6,0.4,0.5,0.29,0.55,0.58,0.48,0.4,0.29,0.33,0.5,0.56,0.48,0.55,0.88,0.55,0.58,0.6,0.88,0.48,0.58,0.33,0.42" style="fill:rgb(0,0,0);font-family:URWPalladioL-Roma;font-size:8.97px;stroke:none;">17. Arias, P.; Herraez, J.; Lorenzo, H.; Ordoñez, C. Control of structural problems in cultural heritage monuments</text>
   <text y="239.876" x="98.05,103.381,107.13,109.702,114.848,119.8712,122.009,125.934,128.507,133.334,137.082,141.317,144.261,147.753,152.174,157.319,162.226,166.5316,168.706,174.02,179.165,183.992,186.874,191.701,196.617,200.109,204.529,212.336,220.142,224.377,227.259,230.751,235.7742,237.904,242.324,247.47,252.9417,255.117,259.042,263.869,271.676,276.989,282.32,285.202,289.437,293.02500000000003,295.166,302.973,307.207,310.089,315.235,320.062,325.464,329.212" svgx:width="0.6,0.42,0.29,0.58,0.56,0.55,0.44,0.29,0.55,0.42,0.48,0.33,0.4,0.5,0.58,0.56,0.48,0.55,0.6,0.58,0.55,0.33,0.55,0.56,0.4,0.5,0.88,0.88,0.48,0.33,0.4,0.56,0.55,0.5,0.58,0.61,0.55,0.44,0.55,0.88,0.6,0.6,0.33,0.48,0.4,0.55,0.88,0.48,0.33,0.58,0.55,0.61,0.42,0.25" style="fill:rgb(0,0,0);font-family:URWPalladioL-Roma;font-size:8.97px;stroke:none;">using close-range photogrammetry and computer methods.</text>
   <text y="239.876" x="334.564,340.461,344.386,351.264,355.685,360.6,363.544,365.7865,368.893,373.809,376.753,380.192,385.107,388.705,391.649" svgx:width="0.67,0.44,0.78,0.5,0.56,0.33,0.25,0.55,0.56,0.33,0.39,0.56,0.41,0.33,0.25" style="fill:rgb(0,0,0);font-family:URWPalladioL-Ital;font-size:8.97px;stroke:none;">Comput. Struct.</text>
   <text y="239.876" x="396.997,401.48,405.963,410.447" svgx:width="0.5,0.5,0.5,0.5" style="fill:rgb(0,0,0);font-family:URWPalladioL-Bold;font-size:8.97px;stroke:none;">2005</text>
   <text y="239.876" x="414.93" svgx:width="0.25" style="fill:rgb(0,0,0);font-family:URWPalladioL-Roma;font-size:8.97px;stroke:none;">,</text>
   <text y="239.876" x="419.382,423.802" svgx:width="0.5,0.5" style="fill:rgb(0,0,0);font-family:URWPalladioL-Ital;font-size:8.97px;stroke:none;">83</text>
   <text y="239.876" x="428.223,430.4655,432.679,437.099,441.52,445.94,450.361,454.781,459.201,463.622,468.042,472.463,474.70550000000003,477.803" svgx:width="0.25,0.55,0.5,0.5,0.5,0.5,0.5,0.5,0.5,0.5,0.5,0.25,0.55,0.33" style="fill:rgb(0,0,0);font-family:URWPalladioL-Roma;font-size:8.97px;stroke:none;">, 1754–1766. [</text>
   <text y="239.876" x="480.747,487.015,490.348,495.175,498.923,502.672,508.578,512.813" svgx:width="0.71,0.4,0.55,0.42,0.42,0.67,0.48,0.33" style="fill:rgb(8,117,183);font-family:URWPalladioL-Roma;font-size:8.97px;stroke:none;">CrossRef</text>
   <text y="239.876" x="515.757" svgx:width="0.33" style="fill:rgb(0,0,0);font-family:URWPalladioL-Roma;font-size:8.97px;stroke:none;">]</text>
   <text y="252.788" x="76.535,81.018,85.501,87.74350000000001,98.05,104.159,109.153,113.214,117.274,122.597,125.259,130.581,133.243,135.4855,137.77,144.254,146.541,148.7835,151.068,157.552,160.214,165.299,170.621,175.615,180.938,183.599,185.8415,188.126,192.489,194.775,197.0175,199.302,207.954,212.948,218.271,221.252,225.825,231.148,233.809,236.0515,238.336,244.821,247.107,249.3495,251.634,257.158,259.82,265.142,270.228,272.889,275.1315,277.416,283.9,286.187,288.4295,290.714,295.515,299.576,304.57,310.066,312.728,317.813,323.136,328.129,330.3715,332.656,338.766,341.052,348.167,350.4095,352.695,358.283,363.276,370.72110000000004,373.144,377.205,382.199,386.076,389.03610000000003,391.299,395.871,402.7779,405.182,409.06,413.12,417.693,423.016,428.339,432.72,436.30800000000005,438.573,443.63,448.203,452.081,456.462,461.9337,464.291,469.284,474.4866,476.848,480.725,483.707,487.246,492.761,496.822,499.803,505.318,508.775,513.156" svgx:width="0.5,0.5,0.25,0.55,0.67,0.55,0.44,0.44,0.58,0.29,0.58,0.29,0.25,0.55,0.71,0.25,0.25,0.55,0.71,0.29,0.56,0.58,0.55,0.58,0.29,0.25,0.55,0.6,0.25,0.25,0.55,0.95,0.55,0.58,0.33,0.5,0.58,0.29,0.25,0.55,0.71,0.25,0.25,0.55,0.6,0.29,0.58,0.56,0.29,0.25,0.55,0.71,0.25,0.25,0.55,0.52,0.44,0.55,0.6,0.29,0.56,0.58,0.55,0.25,0.55,0.67,0.25,0.78,0.25,0.55,0.61,0.55,0.83,0.55,0.44,0.55,0.42,0.33,0.55,0.5,0.77,0.55,0.42,0.44,0.5,0.58,0.58,0.48,0.4,0.55,0.55,0.5,0.42,0.48,0.61,0.55,0.55,0.58,0.55,0.42,0.33,0.4,0.6,0.44,0.33,0.6,0.4,0.48,0.61" style="fill:rgb(0,0,0);font-family:URWPalladioL-Roma;font-size:8.97px;stroke:none;">18. Rocchini, C.; Cignoni, P.; Montani, C.; Pingi, C.; Scopigno, R.A. Low cost 3D scanner based on structured</text>
   <text y="265.699" x="98.05,100.659,103.268,108.254,113.472,116.395" svgx:width="0.29,0.29,0.56,0.58,0.33,0.25" style="fill:rgb(0,0,0);font-family:URWPalladioL-Roma;font-size:8.97px;stroke:none;">light.</text>
   <text y="265.699" x="121.775,127.756,131.737,138.713,143.196,148.181,151.167,153.4095,156.547,163.02,166.508,170.489,174.973,179.456,181.6985,184.836,189.821,193.802,197.29,202.275" svgx:width="0.67,0.44,0.78,0.5,0.56,0.33,0.25,0.55,0.72,0.39,0.44,0.5,0.5,0.25,0.55,0.56,0.44,0.39,0.56,0.78" style="fill:rgb(0,0,0);font-family:URWPalladioL-Ital;font-size:8.97px;stroke:none;">Comput. Graph. Forum</text>
   <text y="265.699" x="211.492,215.975,220.458,224.942" svgx:width="0.5,0.5,0.5,0.5" style="fill:rgb(0,0,0);font-family:URWPalladioL-Bold;font-size:8.97px;stroke:none;">2002</text>
   <text y="265.699" x="229.425" svgx:width="0.25" style="fill:rgb(0,0,0);font-family:URWPalladioL-Roma;font-size:8.97px;stroke:none;">,</text>
   <text y="265.699" x="233.908,238.391" svgx:width="0.5,0.5" style="fill:rgb(0,0,0);font-family:URWPalladioL-Ital;font-size:8.97px;stroke:none;">20</text>
   <text y="265.699" x="242.874,245.1165,247.357,251.84,256.324,260.807,265.29,269.773,274.256,278.74,280.9825,284.12" svgx:width="0.25,0.55,0.5,0.5,0.5,0.5,0.5,0.5,0.5,0.25,0.55,0.33" style="fill:rgb(0,0,0);font-family:URWPalladioL-Roma;font-size:8.97px;stroke:none;">, 299–308. [</text>
   <text y="265.699" x="287.105,293.463,296.843,301.738,305.54,309.342,315.332,319.626" svgx:width="0.71,0.4,0.55,0.42,0.42,0.67,0.48,0.33" style="fill:rgb(8,117,183);font-family:URWPalladioL-Roma;font-size:8.97px;stroke:none;">CrossRef</text>
   <text y="265.699" x="322.612" svgx:width="0.33" style="fill:rgb(0,0,0);font-family:URWPalladioL-Roma;font-size:8.97px;stroke:none;">]</text>
   <text y="278.611" x="76.535,81.018,85.501,87.74350000000001,98.05,103.567,106.194,110.709,115.964,119.973,125.228,127.855,130.0975,132.361,140.902,143.16,150.049,152.306,154.54850000000002,156.821,163.223,167.737,171.565,177.01,179.638,184.152,186.3945,188.658,195.547,197.804,200.0465,202.319,208.72,214.165,218.174,222.183,227.628,231.122,236.566,238.8085,241.072,245.271,247.528,249.7705,252.042,257.063,261.577,264.205,268.033,270.2755,272.539,277.279,279.536,281.7785,284.051,289.568,292.195,297.215,301.73,305.558,307.8005,310.064,314.362,316.619,318.86150000000004,321.134,326.154,330.479,334.045,337.612,342.126,345.693,350.207,352.4495,354.713,361.115,363.3575,365.62,371.155,376.41,379.823,384.139,388.464,391.471,396.988,399.615,407.588,411.913,417.168,420.996,423.624,428.554,433.809,438.323,440.92429999999996,443.208,445.835,453.808,458.323,463.343,465.97,471.225,476.2482,478.494,481.501,484.905,489.834,500.055,502.683,507.198,511.026,515.351" svgx:width="0.5,0.5,0.25,0.55,0.61,0.29,0.5,0.58,0.44,0.58,0.29,0.25,0.55,0.95,0.25,0.76,0.25,0.25,0.55,0.71,0.5,0.42,0.6,0.29,0.5,0.25,0.55,0.76,0.25,0.25,0.55,0.71,0.6,0.44,0.44,0.6,0.4,0.6,0.25,0.55,0.56,0.25,0.25,0.55,0.56,0.5,0.29,0.42,0.25,0.55,0.52,0.25,0.25,0.55,0.61,0.29,0.56,0.5,0.42,0.25,0.55,0.6,0.25,0.25,0.55,0.56,0.48,0.4,0.4,0.5,0.4,0.5,0.25,0.55,0.71,0.25,0.55,0.61,0.58,0.4,0.48,0.48,0.33,0.61,0.29,0.88,0.48,0.58,0.42,0.29,0.55,0.58,0.5,0.29,0.55,0.29,0.88,0.5,0.56,0.29,0.58,0.56,0.55,0.33,0.4,0.55,0.88,0.29,0.5,0.42,0.48,0.4" style="fill:rgb(0,0,0);font-family:URWPalladioL-Roma;font-size:8.97px;stroke:none;">19. Bianchi, M.G.; Casula, G.; Cuccuru, F.; Fais, S.; Ligas, P.; Ferrara, C. Three-dimensional imaging fromlaser</text>
   <text y="291.522" x="98.05,101.802,105.732,110.157,115.307,120.458,124.697,127.529,129.7715,132.007,137.326,142.476,147.308,150.193,155.025,159.946,163.441,167.866,175.681,183.495,187.734,190.619,194.115,196.69,200.6368,202.876,207.301,212.452,217.9237,220.116,224.541,228.47,233.302,238.639,242.391,245.276,247.851,251.7978,254.046,259.197,264.029,269.179,272.126,277.534,281.773,285.525,288.41,291.835,297.171,301.101,303.986,306.561,311.561,315.8666,318.057,320.942,325.181,329.11,334.261,339.412,341.987,346.943,352.279,356.518,360.2854,362.527,365.103,370.3056,372.51,375.395,380.546,384.8516,387.05,390.98,396.13,400.555,404.051,408.476,412.405,415.29,419.529,423.025,425.6,430.025,434.45,437.335,439.91,444.742,449.94460000000004,452.15,456.982,459.94210000000004,462.185,465.938,468.823,473.655,478.805,483.11060000000003,485.31,490.204,495.54,498.116,500.691,506.098,508.674,513.824" svgx:width="0.42,0.44,0.5,0.58,0.58,0.48,0.4,0.25,0.55,0.6,0.58,0.55,0.33,0.55,0.56,0.4,0.5,0.88,0.88,0.48,0.33,0.4,0.29,0.44,0.55,0.5,0.58,0.61,0.55,0.5,0.44,0.55,0.6,0.42,0.33,0.29,0.44,0.55,0.58,0.55,0.58,0.33,0.61,0.48,0.42,0.33,0.4,0.6,0.44,0.33,0.29,0.56,0.48,0.55,0.33,0.48,0.44,0.58,0.58,0.29,0.56,0.6,0.48,0.42,0.55,0.29,0.58,0.55,0.33,0.58,0.48,0.55,0.44,0.58,0.5,0.4,0.5,0.44,0.33,0.48,0.4,0.29,0.5,0.5,0.33,0.29,0.55,0.58,0.55,0.55,0.33,0.55,0.42,0.33,0.55,0.58,0.48,0.55,0.55,0.6,0.29,0.29,0.61,0.29,0.58,0.56" style="fill:rgb(0,0,0);font-family:URWPalladioL-Roma;font-size:8.97px;stroke:none;">scanner, photogrammetric and acoustic non-destructive techniques in the characterization of stone building</text>
   <text y="304.434" x="98.05,105.967,110.451,113.374,117.668,121.21,123.819,128.303,130.912,134.714" svgx:width="0.88,0.5,0.33,0.48,0.4,0.29,0.5,0.29,0.42,0.25" style="fill:rgb(0,0,0);font-family:URWPalladioL-Roma;font-size:8.97px;stroke:none;">materials.</text>
   <text y="304.434" x="140.093,146.567,151.05,155.04,157.2825,160.42,166.894,170.382,174.363,177.851,181.5,183.992" svgx:width="0.72,0.5,0.5,0.25,0.55,0.72,0.39,0.44,0.39,0.41,0.28,0.25" style="fill:rgb(0,0,0);font-family:URWPalladioL-Ital;font-size:8.97px;stroke:none;">Adv. Geosci.</text>
   <text y="304.434" x="189.372,193.855,198.338,202.822" svgx:width="0.5,0.5,0.5,0.5" style="fill:rgb(0,0,0);font-family:URWPalladioL-Bold;font-size:8.97px;stroke:none;">2018</text>
   <text y="304.434" x="207.305" svgx:width="0.25" style="fill:rgb(0,0,0);font-family:URWPalladioL-Roma;font-size:8.97px;stroke:none;">,</text>
   <text y="304.434" x="211.788,216.271" svgx:width="0.5,0.5" style="fill:rgb(0,0,0);font-family:URWPalladioL-Ital;font-size:8.97px;stroke:none;">45</text>
   <text y="304.434" x="220.754,222.9965,225.237,229.72,234.204,238.687,243.17,247.653,249.8955,253.033" svgx:width="0.25,0.55,0.5,0.5,0.5,0.5,0.5,0.25,0.55,0.33" style="fill:rgb(0,0,0);font-family:URWPalladioL-Roma;font-size:8.97px;stroke:none;">, 57–62. [</text>
   <text y="304.434" x="256.019,262.376,265.756,270.652,274.454,278.256,284.245,288.54" svgx:width="0.71,0.4,0.55,0.42,0.42,0.67,0.48,0.33" style="fill:rgb(8,117,183);font-family:URWPalladioL-Roma;font-size:8.97px;stroke:none;">CrossRef</text>
   <text y="304.434" x="291.526" svgx:width="0.33" style="fill:rgb(0,0,0);font-family:URWPalladioL-Roma;font-size:8.97px;stroke:none;">]</text>
   <text y="317.346" x="76.535,81.018,85.501,87.74350000000001,98.05,106.363,110.756,113.621,116.485,120.694,123.251,125.49350000000001,127.689,134.393,136.59,138.8325,141.028,145.606,148.918,153.716,156.273,159.999,162.556,164.79850000000002,166.993,171.607,173.803,176.0455,178.241,185.077,190.376,194.277,198.486,201.043,203.6,206.157,208.39950000000002,210.595,214.742,216.939,221.095,223.292,229.522,231.719,233.9615,236.156,241.464,245.857,251.138,256.419,261.217,266.331,270.54,272.7825,274.978,281.682,283.879,286.1215,288.316,293.624,297.833,300.39,305.689,309.414,314.212,316.4545,318.649,322.709,324.906,327.1485,329.343,333.957,336.821,341.03,343.956,348.35,353.464,356.021,358.578,362.787,365.0295,367.224,375.537,377.7795,379.974,388.287,393.586,396.143,399.007,401.564,405.29,409.191,413.585,416.142,420.4476,422.592,425.896,430.105,434.006,438.804,443.918,447.644,450.508,453.909,459.207,463.109,465.973,468.531,473.328,478.5306,480.683,485.481,488.4411,490.648,495.762,500.155,503.02,508.318,511.789,516.183" svgx:width="0.5,0.5,0.25,0.55,0.95,0.5,0.33,0.33,0.48,0.29,0.25,0.55,0.76,0.25,0.25,0.55,0.61,0.4,0.55,0.29,0.42,0.29,0.25,0.55,0.52,0.25,0.25,0.55,0.78,0.6,0.44,0.48,0.29,0.29,0.29,0.25,0.55,0.6,0.25,0.6,0.25,0.71,0.25,0.25,0.55,0.6,0.5,0.6,0.6,0.55,0.58,0.48,0.25,0.55,0.76,0.25,0.25,0.55,0.6,0.48,0.29,0.6,0.42,0.55,0.25,0.55,0.56,0.25,0.25,0.55,0.52,0.33,0.48,0.33,0.5,0.58,0.29,0.29,0.48,0.25,0.55,0.95,0.25,0.55,0.95,0.6,0.29,0.33,0.29,0.42,0.44,0.5,0.29,0.48,0.55,0.4,0.48,0.44,0.55,0.58,0.42,0.33,0.4,0.6,0.44,0.33,0.29,0.55,0.58,0.55,0.55,0.33,0.55,0.58,0.5,0.33,0.6,0.4,0.5,0.29" style="fill:rgb(0,0,0);font-family:URWPalladioL-Roma;font-size:8.97px;stroke:none;">20. Mattei, G.; Troisi, S.; Aucelli, P.P.C.; Pappone, G.; Peluso, F.; Stefanile, M. Multiscale reconstruction of natural</text>
   <text y="330.257" x="98.05,102.533,107.752,113.2237,115.463,119.946,123.326,127.307,132.526,137.009,141.304,146.2,148.809,153.704,158.69,161.299,165.28,169.763,172.36430000000001,174.614,180.021,185.239,190.718,195.013,198.554,206.032,210.516,213.439,217.734,221.322,223.508,226.117,230.6,235.819,241.297,245.099,249.08,253.563,258.952,263.2576,265.48,270.438,275.46119999999996,277.665,282.561,287.949,290.872,293.482,297.463,301.946,304.5473,306.788,311.271,316.489,321.9607,324.21,328.693,332.674,337.569,342.976,346.778,349.701,352.31,356.2568,358.524,362.326,366.621,371.839,375.641,380.536,384.078,387.88,390.1225,393.26,396.281,401.4836,403.733,409.148,412.529,417.424,421.405,425.7,429.995,435.474,438.083,443.301,448.287,452.0544,454.321,459.217,462.1771,464.444,467.367,472.586,476.89160000000004,479.113,483.596,488.079,492.563,497.048,499.288,502.309,507.788,513.266" svgx:width="0.5,0.58,0.61,0.55,0.5,0.4,0.44,0.58,0.5,0.48,0.55,0.29,0.55,0.56,0.29,0.44,0.5,0.29,0.55,0.6,0.58,0.61,0.48,0.4,0.83,0.5,0.33,0.48,0.4,0.55,0.29,0.5,0.58,0.61,0.42,0.44,0.5,0.6,0.48,0.55,0.55,0.56,0.55,0.55,0.6,0.33,0.29,0.44,0.5,0.29,0.55,0.5,0.58,0.61,0.55,0.5,0.44,0.55,0.6,0.42,0.33,0.29,0.44,0.55,0.42,0.48,0.58,0.42,0.55,0.4,0.42,0.25,0.55,0.34,0.58,0.55,0.6,0.4,0.55,0.44,0.48,0.48,0.61,0.29,0.58,0.56,0.42,0.55,0.55,0.33,0.55,0.33,0.58,0.48,0.55,0.5,0.5,0.5,0.5,0.55,0.34,0.61,0.61,0.61" style="fill:rgb(0,0,0);font-family:URWPalladioL-Roma;font-size:8.97px;stroke:none;">and archaeological underwater landscape by optical and acoustic sensors. In Proceedings of the 2018 IEEE</text>
   <text y="343.169" x="98.05,101.111,106.397,109.358,113.709,117.297,122.583,127.125,130.086,132.729,137.688,142.974,147.516,150.1173,152.393,160.659,165.618,169.206,174.256,178.107,183.394,188.353,193.735,196.046,201.005,206.20759999999999,208.535,217.128,221.478,224.439,227.864,232.823,235.466,240.425,245.476,250.4992,252.76,255.785,260.744,264.33200000000005,266.575,269.536,274.823,279.1286,281.408,286.176,290.527,295.069,297.3115,299.583,305.133,309.674,313.262,315.905,318.1475,320.41,323.471,326.432,330.974,333.617,337.677,339.9195,342.182,346.723,351.265,355.806,360.291,362.591,369.731,373.763,376.724,381.684,386.707,391.057,394.64500000000004,396.88,401.421,405.962,410.504,415.045,417.2875,419.56,425.109,429.46,434.002,437.589,442.876,445.519,450.805,455.8282,458.09,461.051,465.98449999999997,468.253,476.846,481.197,485.738,489.589,495.066,498.491,502.7966,505.076,509.844,514.195" svgx:width="0.34,0.58,0.33,0.48,0.4,0.58,0.5,0.33,0.29,0.55,0.58,0.5,0.29,0.55,1.0,0.55,0.4,0.56,0.42,0.58,0.55,0.6,0.55,0.55,0.58,0.55,0.95,0.48,0.33,0.4,0.55,0.29,0.55,0.56,0.56,0.55,0.33,0.55,0.4,0.55,0.33,0.58,0.48,0.55,0.52,0.48,0.5,0.25,0.55,0.61,0.5,0.4,0.29,0.25,0.55,0.34,0.33,0.5,0.29,0.56,0.25,0.55,0.5,0.5,0.5,0.5,0.55,0.79,0.44,0.33,0.55,0.55,0.48,0.4,0.55,0.5,0.5,0.5,0.5,0.25,0.55,0.61,0.48,0.5,0.4,0.58,0.29,0.58,0.56,0.55,0.33,0.55,0.55,0.95,0.48,0.5,0.42,0.6,0.4,0.48,0.55,0.52,0.48,0.5" style="fill:rgb(0,0,0);font-family:URWPalladioL-Roma;font-size:8.97px;stroke:none;">International Workshop on Metrology for the Sea, Bari, Italy, 8–10 October 2018; Learning to Measure Sea</text>
   <text y="356.08" x="98.05,105.51,109.805,114.288,116.897,119.82,125.0226,127.28,132.696,137.179,140.721,145.204,153.122,157.417,160.34,164.635,168.176,171.9434,174.22,177.205,185.688,189.983,192.906,196.286,201.182,205.889,210.184,214.667,217.653,219.8955,223.033,228.511,232.994,236.536,239.145,241.38750000000002,243.629,246.65,249.573,254.056,256.666,261.651,263.8935,266.134,271.523,276.912,279.1545,281.395,285.878,290.361,294.845,299.328,303.811" svgx:width="0.83,0.48,0.5,0.29,0.33,0.58,0.55,0.6,0.5,0.4,0.5,0.88,0.48,0.33,0.48,0.4,0.42,0.55,0.33,0.95,0.48,0.33,0.4,0.55,0.52,0.48,0.5,0.33,0.25,0.55,0.61,0.5,0.4,0.29,0.25,0.55,0.34,0.33,0.5,0.29,0.56,0.25,0.55,0.6,0.6,0.25,0.55,0.5,0.5,0.5,0.5,0.5,0.25" style="fill:rgb(0,0,0);font-family:URWPalladioL-Roma;font-size:8.97px;stroke:none;">Health Parameters (MetroSea): Bari, Italy; pp. 46–49.</text>
   <text y="368.992" x="76.535,81.018,85.501,87.74350000000001,98.05,105.005,107.606,112.657,117.127,120.497,124.779,129.249,131.4915,133.728,139.19,141.424,146.726,148.96,151.20250000000001,153.439,161.896,166.777,170.147,174.429,179.632,184.513,186.7555,188.992,196.429,198.664,205.619,207.854,210.09650000000002,212.333,217.026,221.308,226.278,230.748,233.349,237.631,241.422,243.6645,245.9,252.855,255.09,261.062,263.297,265.53950000000003,267.784,273.184,278.387,282.856,290.75,292.9925,295.229,300.038,302.273,309.094,311.329,313.5715,315.816,321.216,323.817,326.418,329.02,333.49,336.86,339.837,345.299,347.9,350.814,353.729,356.33,360.612,362.85450000000003,365.091,370.553,372.788,379.743,381.977,384.2195,386.456,392.794,397.997,400.598,403.2,406.99,411.871,417.074,419.3165,421.552,425.799,428.034,433.496,435.7385,437.974,446.431,450.713,454.083,459.054,461.655,466.858,471.8812,474.072,481.027,486.23,494.123,498.593,503.796,508.999,513.281" svgx:width="0.5,0.5,0.25,0.55,0.78,0.29,0.56,0.5,0.4,0.48,0.5,0.25,0.55,0.61,0.25,0.72,0.25,0.25,0.55,0.95,0.55,0.4,0.48,0.58,0.55,0.25,0.55,0.83,0.25,0.78,0.25,0.25,0.55,0.52,0.48,0.56,0.5,0.29,0.48,0.42,0.25,0.55,0.78,0.25,0.67,0.25,0.25,0.55,0.6,0.58,0.5,0.88,0.25,0.55,0.61,0.25,0.76,0.25,0.25,0.55,0.6,0.29,0.29,0.29,0.5,0.4,0.33,0.61,0.29,0.33,0.33,0.29,0.48,0.25,0.55,0.61,0.25,0.78,0.25,0.25,0.55,0.71,0.58,0.29,0.29,0.42,0.55,0.58,0.25,0.55,0.6,0.25,0.61,0.25,0.55,0.95,0.48,0.4,0.56,0.29,0.58,0.56,0.55,0.78,0.58,0.88,0.5,0.58,0.58,0.48,0.61" style="fill:rgb(0,0,0);font-family:URWPalladioL-Roma;font-size:8.97px;stroke:none;">21. Alvarez, L.V.; Moreno, H.A.; Segales, A.R.; Pham, T.G.; Pillar-Little, E.A.; Chilson, P.B. Merging Unmanned</text>
   <text y="381.904" x="97.701,104.614,108.87,112.38,114.966,119.409,122.0103,124.234,128.899,133.839,137.607,140.503,144.76,152.606,156.3734,158.621,161.58,168.493,175.406,180.071,183.0311,185.27,188.264,196.11,200.553,205.493,209.75,213.26,218.2832,220.448,224.891,230.062,235.5337,237.731,243.16,247.105,252.277,257.21049999999997,259.376,264.041,268.893,274.251,279.422,284.852,287.437,292.609,297.549,301.3164,303.556,310.967,313.553,316.449,321.65160000000003,323.869,328.312,333.51460000000003,335.722,342.635,348.065,352.507,357.848,360.744,363.33,368.351,372.6566,374.855,379.52,383.963,391.809,397.149,399.726,402.312,407.483,412.5062,414.672,419.292,423.549,427.494,432.665,437.837,440.423,445.399,450.757,455.06260000000003,457.261,460.22,465.072,468.66,470.821,476.25,480.693,483.589,488.761,493.701,501.547,505.804,508.7,512.21,514.796" svgx:width="0.78,0.48,0.4,0.29,0.5,0.29,0.55,0.52,0.56,0.42,0.33,0.48,0.88,0.42,0.55,0.33,0.78,0.78,0.52,0.33,0.55,0.34,0.88,0.5,0.56,0.48,0.4,0.56,0.55,0.5,0.58,0.61,0.55,0.61,0.44,0.58,0.55,0.55,0.52,0.55,0.6,0.58,0.61,0.29,0.58,0.56,0.42,0.55,0.83,0.29,0.33,0.58,0.55,0.5,0.58,0.55,0.78,0.61,0.5,0.6,0.33,0.29,0.56,0.48,0.55,0.52,0.5,0.88,0.6,0.29,0.29,0.58,0.56,0.55,0.61,0.48,0.44,0.58,0.58,0.29,0.56,0.6,0.48,0.55,0.33,0.55,0.4,0.55,0.61,0.5,0.33,0.58,0.56,0.88,0.48,0.33,0.4,0.29,0.44" style="fill:rgb(0,0,0);font-family:URWPalladioL-Roma;font-size:8.97px;stroke:none;">Aerial Systems (UAS) Imagery and Echo Soundings with an Adaptive Sampling Technique for Bathymetric</text>
   <text y="394.815" x="98.05,102.757,108.164,111.706,116.772,121.067,126.052,129.854" svgx:width="0.52,0.6,0.4,0.56,0.48,0.56,0.42,0.25" style="fill:rgb(0,0,0);font-family:URWPalladioL-Roma;font-size:8.97px;stroke:none;">Surveys.</text>
   <text y="394.815" x="135.234,141.215,144.703,151.678,155.659,158.645,162.1433,164.375,169.36,172.848,177.833,181.321" svgx:width="0.67,0.39,0.78,0.44,0.33,0.39,0.55,0.56,0.39,0.56,0.39,0.25" style="fill:rgb(0,0,0);font-family:URWPalladioL-Ital;font-size:8.97px;stroke:none;">Remote Sens.</text>
   <text y="394.815" x="186.7,191.183,195.666,200.15" svgx:width="0.5,0.5,0.5,0.5" style="fill:rgb(0,0,0);font-family:URWPalladioL-Bold;font-size:8.97px;stroke:none;">2018</text>
   <text y="394.815" x="204.633" svgx:width="0.25" style="fill:rgb(0,0,0);font-family:URWPalladioL-Roma;font-size:8.97px;stroke:none;">,</text>
   <text y="394.815" x="209.116,213.599" svgx:width="0.5,0.5" style="fill:rgb(0,0,0);font-family:URWPalladioL-Ital;font-size:8.97px;stroke:none;">10</text>
   <text y="394.815" x="218.082,220.3245,222.565,227.048,231.532,236.015,240.498,242.7405,245.878" svgx:width="0.25,0.55,0.5,0.5,0.5,0.5,0.25,0.55,0.33" style="fill:rgb(0,0,0);font-family:URWPalladioL-Roma;font-size:8.97px;stroke:none;">, 1362. [</text>
   <text y="394.815" x="248.864,255.221,258.601,263.497,267.299,271.1,277.09,281.385" svgx:width="0.71,0.4,0.55,0.42,0.42,0.67,0.48,0.33" style="fill:rgb(8,117,183);font-family:URWPalladioL-Roma;font-size:8.97px;stroke:none;">CrossRef</text>
   <text y="394.815" x="284.371" svgx:width="0.33" style="fill:rgb(0,0,0);font-family:URWPalladioL-Roma;font-size:8.97px;stroke:none;">]</text>
   <text y="407.727" x="76.535,81.018,85.501,87.74350000000001,98.05,106.43,109.008,111.586,114.164,118.408,121.242,123.48450000000001,125.707,131.12,133.335,137.986,140.2,142.4425,144.665,152.691,157.528,160.416,165.572,169.815,173.314,177.071,182.395,187.232,192.069,197.224,199.4665,201.689,206.34,208.555,210.7975,213.02,218.937,223.367,228.523,233.448,236.026,241.182,243.4245,245.638,250.289,252.503,254.7455,256.968,263.249,267.678,270.256,275.669,279.912,283.412,287.841,292.997,295.2395,297.462,302.113,304.327,306.5695,308.792,314.205,318.448,322.878,328.202,332.445,335.28,337.5225,339.736,345.654,347.868,350.1105,352.333,358.765,363.008,367.437,370.325,372.903,378.059,382.985,385.2275,387.449,390.399,392.614,398.027,400.2695,402.483,407.895,411.652,414.54,417.117,424.94,429.369,432.257,434.835,439.991,445.01419999999996,447.167,452.579,456.079,458.656,461.606,464.5661,466.736,471.573,474.5331,476.773,482.185,484.763,488.094,492.338,496.271,499.159,501.737,506.574,511.73,516.159" svgx:width="0.5,0.5,0.25,0.55,0.95,0.29,0.29,0.29,0.48,0.4,0.25,0.55,0.61,0.25,0.52,0.25,0.25,0.55,1.0,0.55,0.33,0.58,0.48,0.4,0.42,0.6,0.55,0.55,0.58,0.25,0.55,0.52,0.25,0.25,0.55,0.67,0.5,0.58,0.56,0.29,0.58,0.25,0.55,0.52,0.25,0.25,0.55,0.71,0.5,0.29,0.61,0.48,0.4,0.5,0.58,0.25,0.55,0.52,0.25,0.25,0.55,0.61,0.48,0.5,0.6,0.48,0.4,0.25,0.55,0.67,0.25,0.25,0.55,0.73,0.48,0.5,0.33,0.29,0.58,0.56,0.25,0.55,0.33,0.25,0.61,0.25,0.55,0.61,0.42,0.33,0.29,0.88,0.5,0.33,0.29,0.58,0.56,0.55,0.61,0.4,0.29,0.33,0.33,0.55,0.55,0.33,0.55,0.61,0.29,0.4,0.48,0.44,0.33,0.29,0.55,0.58,0.5,0.29" style="fill:rgb(0,0,0);font-family:URWPalladioL-Roma;font-size:8.97px;stroke:none;">22. Miller, B.S.; Wotherspoon, S.; Rankin, S.; Calderan, S.; Leaper, R.; Keating, J.L. Estimating drift of directional</text>
   <text y="420.638" x="98.05,101.852,106.747,111.966,116.862,121.82,127.227,132.122,137.108,140.8754,143.151,146.137,149.517,154.413,164.572,169.055,173.036,177.932,183.338,187.14,190.063,192.672,196.6188,198.895,203.854,208.148,212.632,216.173,218.783,224.001,228.986,232.788" svgx:width="0.42,0.55,0.58,0.55,0.55,0.6,0.55,0.56,0.42,0.55,0.33,0.4,0.55,0.88,0.5,0.44,0.55,0.6,0.42,0.33,0.29,0.44,0.55,0.55,0.48,0.5,0.4,0.29,0.58,0.56,0.42,0.25" style="fill:rgb(0,0,0);font-family:URWPalladioL-Roma;font-size:8.97px;stroke:none;">sonobuoys fromacoustic bearings.</text>
   <text y="420.638" x="238.167,241.153,243.3955,245.636,252.11,255.759,259.74,264.725,268.213,271.199,273.4415,276.579,281.564,285.545,289.195,291.4375,294.575,301.048,308.024" svgx:width="0.33,0.25,0.55,0.72,0.41,0.44,0.56,0.39,0.33,0.25,0.55,0.56,0.44,0.41,0.25,0.55,0.72,0.78,0.25" style="fill:rgb(0,0,0);font-family:URWPalladioL-Ital;font-size:8.97px;stroke:none;">J. Acoust. Soc. Am.</text>
   <text y="420.638" x="313.403,317.886,322.369,326.853" svgx:width="0.5,0.5,0.5,0.5" style="fill:rgb(0,0,0);font-family:URWPalladioL-Bold;font-size:8.97px;stroke:none;">2018</text>
   <text y="420.638" x="331.335" svgx:width="0.25" style="fill:rgb(0,0,0);font-family:URWPalladioL-Roma;font-size:8.97px;stroke:none;">,</text>
   <text y="420.638" x="335.819,340.302,344.785" svgx:width="0.5,0.5,0.5" style="fill:rgb(0,0,0);font-family:URWPalladioL-Ital;font-size:8.97px;stroke:none;">143</text>
   <text y="420.638" x="349.268,351.5105,353.751,358.234,362.718,367.201,371.684,376.167,378.4095,381.547" svgx:width="0.25,0.55,0.5,0.5,0.5,0.5,0.5,0.25,0.55,0.33" style="fill:rgb(0,0,0);font-family:URWPalladioL-Roma;font-size:8.97px;stroke:none;">, 25–30. [</text>
   <text y="420.638" x="384.533,390.89,394.27,399.166,402.968,406.77,412.759,417.054" svgx:width="0.71,0.4,0.55,0.42,0.42,0.67,0.48,0.33" style="fill:rgb(8,117,183);font-family:URWPalladioL-Roma;font-size:8.97px;stroke:none;">CrossRef</text>
   <text y="420.638" x="420.04,423.00010000000003,425.267" svgx:width="0.33,0.55,0.33" style="fill:rgb(0,0,0);font-family:URWPalladioL-Roma;font-size:8.97px;stroke:none;">] [</text>
   <text y="420.638" x="428.253,433.669,439.076,444.034,452.516,456.811" svgx:width="0.6,0.6,0.55,0.95,0.48,0.61" style="fill:rgb(8,117,183);font-family:URWPalladioL-Roma;font-size:8.97px;stroke:none;">PubMed</text>
   <text y="420.638" x="462.29" svgx:width="0.33" style="fill:rgb(0,0,0);font-family:URWPalladioL-Roma;font-size:8.97px;stroke:none;">]</text>
   <text y="433.55" x="76.535,81.018,85.501,87.74350000000001,98.05,102.682,107.817,112.634,116.119,118.996,121.563,125.304,127.54650000000001,129.76,138.106,140.312,146.206,148.411,150.6535,152.867,158.761,163.578,168.457,172.198,177.015,182.15,184.3925,186.606,191.238,193.444,195.6865,197.899,200.837,205.655,210.789,215.016,218.757,220.9995,223.212,227.95,230.156,238.158,240.364,242.6065,244.82,251.551,256.369,260.78,266.171,268.4135,270.627,278.62,280.826,287.231,289.437,291.6795,293.893,299.284,304.604,309.739,313.48,316.418,321.235,324.561,329.952,332.1945,334.408,340.663,342.869,348.26,350.5025,352.715,358.044,363.179,367.997,370.873,375.69,380.596,384.081,388.492,396.283,404.074,408.3,411.176,414.661,417.229,421.1758,423.387,426.263,429.748,434.16,438.077,442.983,445.55,450.685,455.7082,457.841,462.658,465.6181,467.846,472.257,476.483,479.81,484.627,490.018,494.923,500.058,504.47,512.252,514.819" svgx:width="0.5,0.5,0.25,0.55,0.52,0.58,0.55,0.4,0.33,0.29,0.42,0.25,0.55,0.95,0.25,0.67,0.25,0.25,0.55,0.67,0.55,0.55,0.42,0.55,0.58,0.25,0.55,0.52,0.25,0.25,0.55,0.33,0.55,0.58,0.48,0.42,0.25,0.55,0.61,0.25,1.0,0.25,0.25,0.55,0.76,0.55,0.5,0.61,0.25,0.55,1.0,0.25,0.73,0.25,0.25,0.55,0.61,0.6,0.58,0.42,0.33,0.55,0.4,0.61,0.25,0.55,0.71,0.25,0.61,0.25,0.55,0.6,0.58,0.55,0.33,0.55,0.56,0.4,0.5,0.88,0.88,0.48,0.33,0.4,0.29,0.44,0.55,0.33,0.4,0.5,0.44,0.56,0.29,0.58,0.56,0.55,0.55,0.33,0.55,0.5,0.48,0.4,0.55,0.61,0.56,0.58,0.5,0.88,0.29,0.44" style="fill:rgb(0,0,0);font-family:URWPalladioL-Roma;font-size:8.97px;stroke:none;">23. Shortis, M.R.; Robson, S.; Jones, T.W.; Goad, W.K.; Lunsford, C.B. Photogrammetric tracking of aerodynamic</text>
   <text y="446.462" x="98.05,101.909,107.397,110.991,114.022,118.573,122.613,126.973,130.7404,133.079,137.63,142.927,148.3987,150.735,155.286,159.645,163.085,168.054,171.913,177.383,181.933,185.974,190.2796,192.581,200.617,205.586,211.147,215.506,218.155,221.9224,224.261,228.812,231.77210000000002,234.026,239.323,243.874,247.732,252.217,254.531,257.179,261.73,267.026,272.086,274.735,279.094,284.11719999999997,286.402,289.833,294.193,298.051,302.411,306.961,310.401,314.442,319.6446,321.987,326.027,330.387,335.683,338.65,343.01,345.94,348.1825,351.373,354.44,359.6426,361.985,367.482,370.922,375.891,379.932,384.282,388.642,394.202,396.851,402.147,407.207,410.9744,413.323,418.292,421.2521,423.571,426.538,431.834,436.13960000000003,438.442,441.509,446.287,451.784,457.863,462.5274,464.889,471.969,477.266,482.563,487.113,489.762,493.5294,495.868,500.837,503.7971,506.116,509.083,514.38" svgx:width="0.42,0.6,0.4,0.33,0.5,0.44,0.48,0.42,0.55,0.5,0.58,0.61,0.55,0.5,0.48,0.4,0.55,0.42,0.6,0.5,0.44,0.48,0.55,0.88,0.55,0.61,0.48,0.29,0.42,0.55,0.5,0.33,0.55,0.58,0.5,0.42,0.5,0.55,0.29,0.5,0.58,0.56,0.29,0.48,0.56,0.55,0.4,0.48,0.42,0.48,0.5,0.4,0.44,0.58,0.55,0.44,0.48,0.58,0.33,0.48,0.4,0.25,0.55,0.34,0.58,0.55,0.6,0.4,0.55,0.44,0.48,0.48,0.61,0.29,0.58,0.56,0.42,0.55,0.55,0.33,0.55,0.33,0.58,0.48,0.55,0.34,0.52,0.6,0.67,0.52,0.55,0.78,0.58,0.58,0.5,0.29,0.42,0.55,0.55,0.33,0.55,0.33,0.58,0.48" style="fill:rgb(0,0,0);font-family:URWPalladioL-Roma;font-size:8.97px;stroke:none;">surfaces and aerospace models at nasa langley research center. In Proceedings of the ISPRS Annals of the</text>
   <text y="459.373" x="98.05,103.357,108.471,113.269,116.134,120.932,125.817,129.288,133.682,141.441,149.2,153.409,156.273,159.744,163.637,165.8795,167.819,173.689,177.898,185.657,190.455,193.319,197.6246,199.453,204.066,208.275,213.389,217.115,219.672,224.786,229.8092,231.596,235.99,241.104,246.5757,248.397,253.01,258.291,262.685,265.549,268.106,272.5,275.1013,276.981,279.942,285.056,287.974,292.772,296.242,304.001,308.395,311.259,313.817,318.614,323.8166,325.653,330.266,334.167,336.724,340.933,346.048,349.949,354.158,357.884,360.1265,362.075,367.418,372.215,374.772,380.071,387.83,392.1356,393.963,396.925,399.886,402.847,405.773,410.167,412.4095,414.349,418.743,423.136,427.53,432.015,433.848,439.709,445.57,448.531,451.492,454.5418,456.378,459.339,463.952,469.26,475.13,479.7944,481.667,487.897,492.695,497.809,502.695,506.007,510.216,513.942,517.668" svgx:width="0.6,0.58,0.55,0.33,0.55,0.56,0.4,0.5,0.88,0.88,0.48,0.33,0.4,0.56,0.25,0.55,0.67,0.48,0.88,0.55,0.33,0.48,0.55,0.52,0.48,0.58,0.42,0.29,0.58,0.56,0.55,0.5,0.58,0.61,0.55,0.52,0.6,0.5,0.33,0.29,0.5,0.29,0.55,0.34,0.58,0.33,0.55,0.4,0.88,0.5,0.33,0.29,0.55,0.58,0.55,0.52,0.44,0.29,0.48,0.58,0.44,0.48,0.42,0.25,0.55,0.72,0.55,0.29,0.6,0.88,0.48,0.55,0.34,0.34,0.34,0.33,0.5,0.25,0.55,0.5,0.5,0.5,0.5,0.55,0.67,0.67,0.34,0.34,0.34,0.55,0.34,0.52,0.6,0.67,0.52,0.55,0.71,0.55,0.58,0.56,0.4,0.48,0.42,0.42,0.25" style="fill:rgb(0,0,0);font-family:URWPalladioL-Roma;font-size:8.97px;stroke:none;">Photogrammetry, Remote Sensing and Spatial Information Sciences, Volume III-5, 2016 XXIII ISPRS Congress,</text>
   <text y="472.285" x="98.05,103.466,107.007,111.491,116.476,121.883,126.178,128.4205,130.661,137.018,141.501,145.796,149.777,154.996,157.23850000000002,159.479,163.962,168.445,172.928,177.412,181.89700000000002,184.136,187.122,192.529,195.138,200.1612,202.365,206.848,211.332,215.815,220.298,222.5405,224.781,230.17,235.559,237.8015,240.042,244.525,249.008,253.492,257.975,262.458" svgx:width="0.6,0.4,0.5,0.56,0.6,0.48,0.25,0.55,0.71,0.5,0.48,0.44,0.58,0.25,0.55,0.5,0.5,0.5,0.5,0.5,0.55,0.33,0.6,0.29,0.56,0.55,0.5,0.5,0.5,0.5,0.25,0.55,0.6,0.6,0.25,0.55,0.5,0.5,0.5,0.5,0.5,0.25" style="fill:rgb(0,0,0);font-family:URWPalladioL-Roma;font-size:8.97px;stroke:none;">Prague, Czech, 12–19 July 2016; pp. 27–34.</text>
   <text y="485.196" x="76.535,81.018,85.501,87.74350000000001,98.05,106.363,111.16,113.717,117.443,121.837,126.951,129.1935,131.309,136.678,138.875,141.1175,143.259,150.57,154.779,157.336,162.45,167.336,171.545,174.102,178.311,180.5535,182.661,188.891,191.088,193.3305,195.472,201.702,206.816,211.21,214.681,219.54,224.338,229.452,234.566,237.123,241.332,244.144,246.3865,248.493,252.65,254.847,257.0895,259.231,264.117,268.915,274.213,278.115,283.229,287.438,290.241,292.4835,294.599,298.747,300.944,303.1865,305.328,312.033,315.433,320.732,324.458,328.184,332.393,337.507,345.266,349.475,354.36,358.569,361.372,363.6145,365.731,369.878,372.075,374.3175,376.46,383.164,388.463,391.02,393.577,396.134,400.343,408.102,410.659,415.773,418.01550000000003,420.132,424.745,426.941,429.1835,431.326,437.706,442.503,446.712,451.827,454.384,456.6265,458.742,467.055,469.2975,471.404,478.205,483.091,488.205,492.599,500.358,502.915,506.8618,508.978,513.371" svgx:width="0.5,0.5,0.25,0.55,0.95,0.55,0.29,0.42,0.5,0.58,0.25,0.55,0.61,0.25,0.25,0.55,0.83,0.48,0.29,0.58,0.56,0.48,0.29,0.48,0.25,0.55,0.71,0.25,0.25,0.55,0.71,0.58,0.5,0.4,0.55,0.55,0.58,0.58,0.29,0.48,0.4,0.25,0.55,0.6,0.25,0.25,0.55,0.56,0.55,0.6,0.44,0.58,0.48,0.4,0.25,0.55,0.6,0.25,0.25,0.55,0.76,0.4,0.6,0.42,0.42,0.48,0.58,0.88,0.48,0.56,0.48,0.4,0.25,0.55,0.6,0.25,0.25,0.55,0.76,0.6,0.29,0.29,0.29,0.48,0.88,0.29,0.58,0.25,0.55,0.52,0.25,0.25,0.55,0.73,0.55,0.48,0.58,0.29,0.25,0.55,0.95,0.25,0.55,0.77,0.56,0.58,0.5,0.88,0.29,0.44,0.55,0.5,0.61" style="fill:rgb(0,0,0);font-family:URWPalladioL-Roma;font-size:8.97px;stroke:none;">24. Moisan, E.; Heinkele, C.; Charbonnier, P.; Foucher, P.; Grussenmeyer, P.; Guillemin, S.; Koehl, M. Dynamic 3d</text>
   <text y="498.108" x="98.05,106.126,111.119,116.707,121.088,123.75,126.411,131.734,136.7572,139.096,144.09,147.05010000000001,149.412,153.89700000000002,156.263,160.323,164.896,170.219,174.792,177.453,180.499,183.48,188.995,194.318,199.641,204.022,206.6233,208.96,214.475,218.353,221.014,226.337,231.3602,233.699,239.196,244.519,249.512,252.494,257.487,262.572,266.185,270.758,278.834,286.909,291.29,294.272,297.884,300.546,304.4928,306.884,311.456,316.779,322.2507,324.645,329.702,334.275,337.257,342.579,347.664,355.74,360.121,363.102,366.715,369.376,373.3228,375.714,381.302,385.875,388.857,393.43,395.6725,398.954,402.036,407.2386,409.636,415.16,418.617,423.61,427.671,432.052,436.433,442.021,444.682,450.005,455.09,458.8574,461.245,466.239,469.1991,471.561,474.543,479.866,484.1716,486.524,491.097,495.67,500.242,504.72700000000003,507.093,511.666" svgx:width="0.88,0.55,0.61,0.48,0.29,0.29,0.58,0.56,0.55,0.55,0.33,0.55,0.5,0.55,0.44,0.5,0.58,0.5,0.29,0.33,0.33,0.6,0.58,0.58,0.48,0.29,0.55,0.6,0.42,0.29,0.58,0.56,0.55,0.6,0.58,0.55,0.33,0.55,0.56,0.4,0.5,0.88,0.88,0.48,0.33,0.4,0.29,0.44,0.55,0.5,0.58,0.61,0.55,0.55,0.5,0.33,0.58,0.56,0.88,0.48,0.33,0.4,0.29,0.44,0.55,0.61,0.5,0.33,0.5,0.25,0.55,0.34,0.58,0.55,0.6,0.4,0.55,0.44,0.48,0.48,0.61,0.29,0.58,0.56,0.42,0.55,0.55,0.33,0.55,0.33,0.58,0.48,0.55,0.5,0.5,0.5,0.5,0.55,0.5,0.77" style="fill:rgb(0,0,0);font-family:URWPalladioL-Roma;font-size:8.97px;stroke:none;">modeling of a canal-tunnel using photogrammetric and bathymetric data. In Proceedings of the 2017 3D</text>
   <text y="511.02" x="97.728,103.709,106.318,109.86,112.783,118.189,122.673,125.2743,127.523,133.513,137.808,141.789,146.685,151.903,155.705,158.628,162.098,167.505,171.486,174.409,177.018,181.914,187.11659999999998,189.374,193.857,199.075,204.5467,206.795,212.776,215.385,219.187,224.594,229.077,231.686,234.295,238.778,243.262,246.185,248.794,253.69,258.8926,261.15,266.045,269.0051,271.273,277.63,282.526,290.443,295.832,298.441,302.736,307.4004,309.604,316.58,319.96,323.941,329.16,331.769,334.692,338.987,342.968,345.891,351.298,354.678,358.973,362.775,365.0175,367.258,374.709,379.192,382.178,387.567,390.176,392.785,397.681,399.9235,402.164,409.005,412.386,416.681,420.976,424.957,429.252,431.4945,433.735,438.218,442.701,447.18600000000004,449.426,457.908,462.391,465.772,469.753,474.9556,477.204,481.687,486.17,490.654,495.137" svgx:width="0.72,0.29,0.4,0.33,0.6,0.5,0.29,0.55,0.67,0.48,0.44,0.55,0.58,0.42,0.33,0.4,0.6,0.44,0.33,0.29,0.55,0.58,0.55,0.5,0.58,0.61,0.55,0.72,0.29,0.42,0.6,0.5,0.29,0.29,0.5,0.5,0.33,0.29,0.55,0.58,0.55,0.55,0.33,0.55,0.71,0.55,0.88,0.6,0.29,0.48,0.52,0.55,0.78,0.4,0.44,0.58,0.29,0.33,0.48,0.44,0.33,0.6,0.4,0.48,0.42,0.25,0.55,0.83,0.5,0.33,0.6,0.29,0.29,0.55,0.25,0.55,0.76,0.4,0.48,0.48,0.44,0.48,0.25,0.55,0.5,0.5,0.5,0.55,0.95,0.5,0.4,0.44,0.58,0.55,0.5,0.5,0.5,0.5,0.25" style="fill:rgb(0,0,0);font-family:URWPalladioL-Roma;font-size:8.97px;stroke:none;">Virtual Reconstruction and Visualization of Complex Architectures, Nafplio, Greece, 1–3 March 2017.</text>
   <text y="523.931" x="76.535,81.018,85.501,87.74350000000001,98.05,103.935,109.07,113.481,118.616,123.522,125.76450000000001,127.969,134.798,137.003,139.2455,141.45,146.841,149.408,151.6505,153.864,158.496,160.702,162.9445,165.148,170.539,174.951,177.518,179.7605,181.965,187.85,190.056,192.29850000000002,194.502,199.567,203.978,209.113,214.019,216.2615,218.465,223.353,225.559,227.8015,230.006,236.261,241.396,246.717,248.95950000000002,251.163,256.051,258.2935,260.507,265.898,270.441,275.744,279.97,283.455,286.023,293.813,298.04,303.174,306.051,310.462,313.06329999999997,315.28,319.912,322.788,328.108,333.499,338.5222,340.646,345.463,350.66560000000004,352.839,361.185,365.411,369.329,374.464,378.875,384.01,386.578,390.495,394.907,397.50829999999996,399.715,405.044,408.37,413.188,418.49,422.716,426.202,429.078,431.645,435.871,439.612,441.85450000000003,444.059,449.45,454.585,458.811,462.129,467.034,472.05719999999997,474.189,481.018,483.586,487.327,491.068,493.635,498.929,503.34,506.217,508.784,513.602" svgx:width="0.5,0.5,0.25,0.55,0.67,0.58,0.5,0.58,0.56,0.25,0.55,0.77,0.25,0.25,0.55,0.61,0.29,0.25,0.55,0.52,0.25,0.25,0.55,0.61,0.5,0.29,0.25,0.55,0.67,0.25,0.25,0.55,0.67,0.5,0.58,0.56,0.25,0.55,0.67,0.25,0.25,0.55,0.71,0.58,0.6,0.25,0.55,0.67,0.25,0.55,0.61,0.52,0.6,0.48,0.4,0.29,0.88,0.48,0.58,0.33,0.5,0.29,0.55,0.52,0.33,0.6,0.61,0.56,0.55,0.55,0.58,0.55,0.95,0.48,0.44,0.58,0.5,0.58,0.29,0.44,0.5,0.29,0.55,0.6,0.4,0.55,0.6,0.48,0.4,0.33,0.29,0.48,0.42,0.25,0.55,0.61,0.58,0.48,0.4,0.56,0.56,0.55,0.77,0.29,0.42,0.42,0.29,0.6,0.5,0.33,0.29,0.55,0.58" style="fill:rgb(0,0,0);font-family:URWPalladioL-Roma;font-size:8.97px;stroke:none;">25. Zhang, D.; Li, S.; Bai, X.; Yang, Y.; Chu, Y. Experimental Study on Mechanical Properties, Energy Dissipation</text>
   <text y="536.843" x="98.05,104.28,109.394,113.788,117.259,121.652,125.554,128.418,132.627,136.098,138.655,142.381,145.245,147.802,151.704,155.47140000000002,156.862,161.255,166.369,173.179,180.016,183.917,188.715,194.014,197.739,200.604,203.161,207.1078,208.495,213.864,221.623,224.18,227.905,231.631,234.188,238.986,245.532,250.84,255.233,258.704,263.098,270.857,275.066,277.93,282.139,285.61,289.3774,290.768,295.566,298.5261,299.933,306.163,310.961,318.72,324.001,327.305,331.514,335.239,338.965,341.522,346.32,352.875,357.752,362.145,364.702,367.259,372.558,375.871,380.1766,381.512,386.31,389.2701,390.677,395.29,399.684,404.798,410.167,413.892,416.757,421.555,426.669,430.9746,432.31,436.923,442.204,446.413,450.315,452.872,460.631,464.84,469.954,473.7214,475.112,481.342,486.14,491.254,494.118,498.512,501.069,506.183,508.74,513.854" svgx:width="0.71,0.58,0.5,0.4,0.5,0.44,0.33,0.48,0.4,0.29,0.42,0.33,0.29,0.44,0.42,0.55,0.5,0.58,0.61,0.78,0.44,0.55,0.6,0.42,0.33,0.29,0.44,0.55,0.61,0.88,0.29,0.42,0.42,0.29,0.55,0.58,0.6,0.5,0.4,0.5,0.88,0.48,0.33,0.48,0.4,0.42,0.55,0.55,0.33,0.55,0.71,0.55,0.88,0.6,0.4,0.48,0.42,0.42,0.29,0.55,0.58,0.56,0.5,0.29,0.29,0.6,0.4,0.48,0.55,0.55,0.33,0.55,0.52,0.5,0.58,0.61,0.42,0.33,0.55,0.58,0.48,0.55,0.52,0.6,0.48,0.44,0.29,0.88,0.48,0.58,0.42,0.55,0.71,0.55,0.58,0.33,0.5,0.29,0.58,0.29,0.58,0.56" style="fill:rgb(0,0,0);font-family:URWPalladioL-Roma;font-size:8.97px;stroke:none;">Characteristics andAcoustic EmissionParameters of CompressionFailure of Sandstone Specimens Containing</text>
   <text y="549.754" x="98.05,103.528,108.73060000000001,110.989,116.467,120.448,125.667,129.961,132.571,137.466,142.6686,144.926,149.912,152.521,157.004,164.482,168.284" svgx:width="0.61,0.58,0.55,0.61,0.44,0.58,0.48,0.29,0.55,0.58,0.55,0.56,0.29,0.5,0.83,0.42,0.25" style="fill:rgb(0,0,0);font-family:URWPalladioL-Roma;font-size:8.97px;stroke:none;">En Echelon Flaws.</text>
   <text y="549.754" x="173.663,180.137,184.62,189.103,191.596,193.8385,196.976,201.961,205.61,208.103" svgx:width="0.72,0.5,0.5,0.28,0.25,0.55,0.56,0.41,0.28,0.25" style="fill:rgb(0,0,0);font-family:URWPalladioL-Ital;font-size:8.97px;stroke:none;">Appl. Sci.</text>
   <text y="549.754" x="213.483,217.966,222.449,226.933" svgx:width="0.5,0.5,0.5,0.5" style="fill:rgb(0,0,0);font-family:URWPalladioL-Bold;font-size:8.97px;stroke:none;">2019</text>
   <text y="549.754" x="231.415" svgx:width="0.25" style="fill:rgb(0,0,0);font-family:URWPalladioL-Roma;font-size:8.97px;stroke:none;">,</text>
   <text y="549.754" x="235.899" svgx:width="0.5" style="fill:rgb(0,0,0);font-family:URWPalladioL-Ital;font-size:8.97px;stroke:none;">9</text>
   <text y="549.754" x="240.382,242.6245,244.865,249.348,253.832,258.315,260.5575,263.695" svgx:width="0.25,0.55,0.5,0.5,0.5,0.25,0.55,0.33" style="fill:rgb(0,0,0);font-family:URWPalladioL-Roma;font-size:8.97px;stroke:none;">, 596. [</text>
   <text y="549.754" x="266.68,273.038,276.418,281.314,285.115,288.917,294.907,299.202" svgx:width="0.71,0.4,0.55,0.42,0.42,0.67,0.48,0.33" style="fill:rgb(8,117,183);font-family:URWPalladioL-Roma;font-size:8.97px;stroke:none;">CrossRef</text>
   <text y="549.754" x="302.187" svgx:width="0.33" style="fill:rgb(0,0,0);font-family:URWPalladioL-Roma;font-size:8.97px;stroke:none;">]</text>
   <text y="562.666" x="76.535,81.018,85.501,87.74350000000001,98.05,104.429,107.9,112.294,117.592,121.318,123.5605,125.677,132.056" svgx:width="0.5,0.5,0.25,0.55,0.73,0.4,0.5,0.6,0.42,0.25,0.55,0.73,0.25" style="fill:rgb(0,0,0);font-family:URWPalladioL-Roma;font-size:8.97px;stroke:none;">26. Kraus, K.</text>
   <text y="562.666" x="136.413,141.782,146.175,150.077,153.003,156.904,161.298,164.716,168.618,175.454,182.29,185.708,188.635,192.053,196.446,198.6885,201.736,208.08,211.499,215.4,222.236,225.655,228.581,231.999,236.484,238.554,240.997,244.257,248.158,257.156,260.082,266.919,270.82,275.214,278.632,282.13030000000003,284.212,288.113,292.999,297.48400000000004,299.554,304.439,308.341,311.759,315.177,318.6753,320.757,325.643,329.219,333.112,337.997" svgx:width="0.61,0.5,0.44,0.33,0.44,0.5,0.39,0.44,0.78,0.78,0.39,0.33,0.39,0.5,0.25,0.55,0.72,0.39,0.44,0.78,0.39,0.33,0.39,0.5,0.55,0.28,0.39,0.44,0.78,0.33,0.78,0.44,0.5,0.39,0.39,0.55,0.44,0.56,0.5,0.55,0.56,0.44,0.39,0.39,0.39,0.55,0.56,0.41,0.44,0.56,0.39" style="fill:rgb(0,0,0);font-family:URWPalladioL-Ital;font-size:8.97px;stroke:none;">Photogrammetry: Geometry fromImages and Laser Scans</text>
   <text y="562.666" x="341.419,343.6615,345.795,350.189,355.303,360.7747,362.833,367.042,372.411,374.608,376.8505,378.993,386.954,391.347,393.904,396.769,400.978,404.56600000000003,406.61,411.979,416.2846,418.35,425.054,428.446,433.745,438.63,441.495,445.704,449.175,451.4175,454.474,459.842,464.051,467.522,470.079,472.636,477.75,479.9925,482.126,488.831,493.04,496.511,504.27,508.663,513.777,517.661" svgx:width="0.25,0.55,0.5,0.58,0.61,0.55,0.48,0.61,0.25,0.25,0.55,1.0,0.5,0.29,0.33,0.48,0.4,0.55,0.61,0.48,0.55,0.76,0.4,0.6,0.56,0.33,0.48,0.4,0.25,0.55,0.61,0.48,0.4,0.29,0.29,0.58,0.25,0.55,0.76,0.48,0.4,0.88,0.5,0.58,0.56,0.25" style="fill:rgb(0,0,0);font-family:URWPalladioL-Roma;font-size:8.97px;stroke:none;">, 2nd ed.; Walter de Gruyter: Berlin, Germany,</text>
   <text y="575.578" x="98.05,102.533,107.016,111.5,115.983,118.22550000000001,120.466,125.944,130.84,133.449,138.856,146.773,151.0786,153.31,157.793,160.0355,162.276,167.665,173.054,175.2965,177.537,182.02,186.504,190.987,195.47" svgx:width="0.5,0.5,0.5,0.5,0.25,0.55,0.72,0.55,0.29,0.6,0.88,0.48,0.55,0.5,0.25,0.55,0.6,0.6,0.25,0.55,0.5,0.5,0.5,0.5,0.25" style="fill:rgb(0,0,0);font-family:URWPalladioL-Roma;font-size:8.97px;stroke:none;">2000; Volume 1, pp. 4–27.</text>
   <text y="588.489" x="76.535,81.018,85.501,87.74350000000001,98.05,103.419,108.533,112.927,115.484,119.693,123.163,127.557,132.355,134.5975,136.581,142.451,144.648,151.959,154.155,156.3975,158.452,165.157,169.366,174.735,179.128,186.887,189.1295,191.114,195.727,197.924,202.537,204.734,206.97650000000002,209.031,215.858,218.415,226.174,230.568,235.682,239.408,243.801,246.0435,248.028,254.864,257.1065,259.091,263.976,268.37,272.096,275.0561,276.99,281.199,286.48,289.037,294.318,299.116,301.673,306.066,309.654,311.567,314.871,319.08,322.806,327.199,334.958,340.239,342.796,345.353,350.467,355.49019999999996,357.383,362.181,365.1411,367.136,370.001,373.472,376.029,381.143,385.941,389.842,395.141,397.698,402.091,405.67900000000003,407.592,410.149,412.706,417.82,422.029,426.423,430.011,431.923,435.649,439.551,443.944,449.058,454.172,458.381,461.843,465.6104,467.599,470.156,477.915,482.309,487.194,491.403,495.17040000000003,497.159,502.457,506.183,508.74,513.854" svgx:width="0.5,0.5,0.25,0.55,0.61,0.58,0.5,0.29,0.48,0.4,0.5,0.55,0.25,0.55,0.67,0.25,0.83,0.25,0.25,0.55,0.76,0.48,0.61,0.5,0.88,0.25,0.55,0.52,0.25,0.52,0.25,0.25,0.55,0.78,0.29,0.88,0.5,0.58,0.42,0.5,0.25,0.55,0.78,0.25,0.55,0.56,0.5,0.42,0.33,0.55,0.48,0.6,0.29,0.6,0.55,0.29,0.5,0.4,0.55,0.4,0.48,0.42,0.5,0.88,0.6,0.29,0.29,0.58,0.56,0.55,0.55,0.33,0.55,0.33,0.4,0.29,0.58,0.55,0.44,0.6,0.29,0.5,0.4,0.55,0.29,0.29,0.58,0.48,0.5,0.4,0.55,0.42,0.44,0.5,0.58,0.58,0.48,0.4,0.42,0.55,0.29,0.88,0.5,0.56,0.48,0.42,0.55,0.6,0.42,0.29,0.58,0.56" style="fill:rgb(0,0,0);font-family:URWPalladioL-Roma;font-size:8.97px;stroke:none;">27. Bhalerao, R.H.; Gedam, S.S.; Almansa, A. Fast epipolar resampling of trinocular linear scanners images using</text>
   <text y="601.401" x="98.05,104.477,109.753,114.285,119.561,125.1,128.681,133.213,138.253,142.786,147.318,152.594,155.613,160.098,162.385,167.941,176.517,182.88569999999999,185.183,190.722,195.254,198.21,202.742,206.586,210.928,213.883,216.12550000000002,219.286,222.341,227.5436,229.856,235.331,238.748,243.698,247.723,252.065,256.407,261.946,264.584,269.859,274.9,278.6674,280.982,285.932,288.8921,291.19,294.145,299.421,303.7266,306.002,310.534,315.067,319.599,324.084,326.371,329.426,334.965,340.503,345.9747,348.272,353.031,357.373,361.398,366.348,371.624,377.0957,379.401,382.456,387.732,390.687,395.029,398.61,403.886,408.418,411.374,414.012,418.961,424.237,428.769,431.3703,433.646,440.073,445.023,450.299,453.317,457.66,461.077,465.419,470.695,474.72,479.02560000000005,481.301,486.251,491.4536,493.766,496.821,504.825,509.358,514.398" svgx:width="0.71,0.58,0.5,0.58,0.61,0.4,0.5,0.56,0.5,0.5,0.58,0.33,0.5,0.55,0.61,0.95,0.71,0.55,0.61,0.5,0.33,0.5,0.42,0.48,0.33,0.25,0.55,0.34,0.58,0.55,0.6,0.4,0.55,0.44,0.48,0.48,0.61,0.29,0.58,0.56,0.42,0.55,0.55,0.33,0.55,0.33,0.58,0.48,0.55,0.5,0.5,0.5,0.5,0.55,0.34,0.61,0.61,0.61,0.55,0.52,0.48,0.44,0.55,0.58,0.61,0.55,0.34,0.58,0.33,0.48,0.4,0.58,0.5,0.33,0.29,0.55,0.58,0.5,0.29,0.55,0.71,0.55,0.58,0.33,0.48,0.4,0.48,0.58,0.44,0.48,0.55,0.55,0.58,0.55,0.34,0.88,0.5,0.56,0.48" style="fill:rgb(0,0,0);font-family:URWPalladioL-Roma;font-size:8.97px;stroke:none;">Chandrayaan-1 TMC dataset. In Proceedings of the 2013 IEEE Second International Conference on Image</text>
   <text y="614.312" x="98.05,101.072,106.29,109.276,114.172,117.713,125.631,130.114,133.037,135.646,140.542,145.7446,148.002,153.418,156.798,161.694,165.675,169.97,173.771,177.573,180.182,185.401,190.4242,192.628,195.613,198.635,204.992,208.014,211.036,216.451,219.437,223.92,228.404,232.887,237.37,240.356,242.5985,244.839,249.546,254.765,257.374,265.291,267.901,272.384,274.6265,276.867,279.889,285.107,290.586,293.195,297.678,299.9205,302.161,306.644,311.128,315.611,320.096,322.336,329.276,333.571,337.552,341.847,349.764,354.722,359.017,362.605,364.801,369.284,373.767,378.25,382.733,384.9755,387.217,392.605,397.994,400.23650000000004,402.477,406.961,411.444,415.927,420.41,424.893" svgx:width="0.34,0.58,0.33,0.55,0.4,0.88,0.5,0.33,0.29,0.55,0.58,0.55,0.6,0.4,0.55,0.44,0.48,0.42,0.42,0.29,0.58,0.56,0.55,0.33,0.34,0.71,0.34,0.34,0.6,0.33,0.5,0.5,0.5,0.5,0.33,0.25,0.55,0.52,0.58,0.29,0.88,0.29,0.5,0.25,0.55,0.34,0.58,0.61,0.29,0.5,0.25,0.55,0.5,0.5,0.5,0.5,0.55,0.77,0.48,0.44,0.48,0.88,0.55,0.48,0.4,0.55,0.5,0.5,0.5,0.5,0.25,0.55,0.6,0.6,0.25,0.55,0.5,0.5,0.5,0.5,0.5,0.25" style="fill:rgb(0,0,0);font-family:URWPalladioL-Roma;font-size:8.97px;stroke:none;">Information Processing (ICIIP-2013), Shimla, India, 9–11 December 2013; pp. 12–16.</text>
   <text y="627.224" x="76.535,81.018,85.501,87.74350000000001,98.05,105.659,110.232,113.845,116.826,119.488,123.868,127.957,130.1995,133.325,139.434,141.721,144.803,147.089,149.3315,152.888,157.689,161.75,167.073" svgx:width="0.5,0.5,0.25,0.55,0.83,0.5,0.4,0.33,0.29,0.48,0.56,0.25,0.55,0.67,0.25,0.34,0.25,0.25,0.55,0.52,0.44,0.58,0.5" style="fill:rgb(0,0,0);font-family:URWPalladioL-Roma;font-size:8.97px;stroke:none;">28. Hartley, R.I.; Scha</text>
   <text y="627.224" x="171.642" svgx:width="0.61" style="fill:rgb(0,0,0);font-family:Rpxr;font-size:8.97px;stroke:none;">ﬀ</text>
   <text y="627.224" x="177.202,181.775,184.436,187.098,190.079,194.652,199.737,203.825,206.0675,209.194,213.456,215.6985,218.824,224.934,229.314,233.375,238.369,243.691,247.569,250.551,254.09,259.605,263.666,266.647,269.309,274.302,279.50460000000004,282.716,285.762,289.21,294.203,302.09659999999997,305.361,310.858,314.306,319.299,321.439,325.82,329.881,332.862,335.524,340.517,345.84,349.6074,352.809,358.324,362.202,364.863,370.186,375.20919999999995,378.353,383.438,387.051,391.624,395.501,399.379,407.455,412.028,417.35,422.55260000000004,425.755,428.737,433.118,438.44,442.318,447.312,450.924,454.802" svgx:width="0.5,0.29,0.29,0.33,0.5,0.56,0.56,0.25,0.55,0.56,0.25,0.55,0.67,0.48,0.44,0.55,0.58,0.42,0.33,0.4,0.6,0.44,0.33,0.29,0.55,0.58,0.55,0.33,0.4,0.55,0.88,0.55,0.6,0.4,0.55,0.23,0.48,0.44,0.33,0.29,0.55,0.58,0.42,0.55,0.6,0.42,0.29,0.58,0.56,0.55,0.56,0.4,0.5,0.42,0.42,0.88,0.5,0.58,0.58,0.55,0.33,0.48,0.58,0.42,0.55,0.4,0.42,0.25" style="fill:rgb(0,0,0);font-family:URWPalladioL-Roma;font-size:8.97px;stroke:none;">alitzky, F. Reconstruction from projections using grassmann tensors.</text>
   <text y="627.224" x="462.751,465.797,468.842,474.942" svgx:width="0.33,0.33,0.67,0.72" style="fill:rgb(0,0,0);font-family:URWPalladioL-Ital;font-size:8.97px;stroke:none;">IJCV</text>
   <text y="627.224" x="484.915,489.398,493.881,498.365" svgx:width="0.5,0.5,0.5,0.5" style="fill:rgb(0,0,0);font-family:URWPalladioL-Bold;font-size:8.97px;stroke:none;">2009</text>
   <text y="627.224" x="502.848" svgx:width="0.25" style="fill:rgb(0,0,0);font-family:URWPalladioL-Roma;font-size:8.97px;stroke:none;">,</text>
   <text y="627.224" x="508.429,513.002" svgx:width="0.5,0.5" style="fill:rgb(0,0,0);font-family:URWPalladioL-Ital;font-size:8.97px;stroke:none;">83</text>
   <text y="627.224" x="517.575" svgx:width="0.25" style="fill:rgb(0,0,0);font-family:URWPalladioL-Roma;font-size:8.97px;stroke:none;">,</text>
   <text y="640.136" x="98.05,102.533,107.016,111.5,115.983,120.466,124.949,129.432,131.6745,134.812" svgx:width="0.5,0.5,0.5,0.5,0.5,0.5,0.5,0.25,0.55,0.33" style="fill:rgb(0,0,0);font-family:URWPalladioL-Roma;font-size:8.97px;stroke:none;">274–293. [</text>
   <text y="640.136" x="137.798,144.155,147.536,152.431,156.233,160.035,166.024,170.319" svgx:width="0.71,0.4,0.55,0.42,0.42,0.67,0.48,0.33" style="fill:rgb(8,117,183);font-family:URWPalladioL-Roma;font-size:8.97px;stroke:none;">CrossRef</text>
   <text y="640.136" x="173.305" svgx:width="0.33" style="fill:rgb(0,0,0);font-family:URWPalladioL-Roma;font-size:8.97px;stroke:none;">]</text>
   <text y="653.047" x="76.535,81.018,85.501,87.74350000000001,98.05,103.92,108.718,114.086" svgx:width="0.5,0.5,0.25,0.55,0.67,0.55,0.61,0.4" style="fill:rgb(0,0,0);font-family:URWPalladioL-Roma;font-size:8.97px;stroke:none;">29. Rodr</text>
   <text y="653.047" x="117.558" svgx:width="0.29" style="fill:rgb(0,0,0);font-family:VnURWPalladioL;font-size:8.97px;stroke:none;">í</text>
   <text y="653.047" x="120.131,125.017,130.315,134.524,140.341" svgx:width="0.56,0.6,0.48,0.5,0.61" style="fill:rgb(0,0,0);font-family:URWPalladioL-Roma;font-size:8.97px;stroke:none;">guezL</text>
   <text y="653.047" x="145.71" svgx:width="0.55" style="fill:rgb(0,0,0);font-family:VnURWPalladioL;font-size:8.97px;stroke:none;">ó</text>
   <text y="653.047" x="150.606,155.887,160.096,164.49,166.73250000000002,168.11,174.946,177.143,182.512,184.7545,186.132,192.968,195.526,200.411,204.62,209.479,212.95,217.344,219.901,223.8478,225.226,230.595,235.876,238.433,243.714,248.512,251.069,255.462,259.05,260.357,266.587,271.384,276.498,280.224,283.089,286.56,290.953,293.51,298.624,301.489,305.2564,306.638,309.564,314.362,317.95000000000005,319.256" svgx:width="0.6,0.48,0.5,0.25,0.55,0.78,0.25,0.61,0.25,0.55,0.78,0.29,0.56,0.48,0.55,0.4,0.5,0.29,0.44,0.55,0.61,0.6,0.29,0.6,0.55,0.29,0.5,0.4,0.55,0.71,0.55,0.58,0.42,0.33,0.4,0.5,0.29,0.58,0.33,0.42,0.55,0.33,0.55,0.4,0.55,0.61" style="fill:rgb(0,0,0);font-family:URWPalladioL-Roma;font-size:8.97px;stroke:none;">pez, A.L. Algebraic Epipolar Constraints for E</text>
   <text y="653.047" x="324.627" svgx:width="0.92" style="fill:rgb(0,0,0);font-family:Rpxr;font-size:8.97px;stroke:none;">ﬃ</text>
   <text y="653.047" x="332.702,336.603,339.16,343.37,348.484,351.4441,352.772,357.385,360.249,363.65,368.949,372.85,375.715,381.013,384.317,388.526,391.083,395.292,399.018,402.7854,404.167,412.48,417.778,420.335,423.2,425.757,430.722,433.279,437.488,446.24,454.552,459.35,462.215,464.772,469.569,476.107,481.476,485.202,488.066,490.623,498.382,502.776,505.64,508.197,512.995,518.109" svgx:width="0.44,0.29,0.48,0.58,0.33,0.55,0.52,0.33,0.4,0.6,0.44,0.33,0.6,0.4,0.48,0.29,0.48,0.42,0.42,0.55,0.95,0.6,0.29,0.33,0.29,0.56,0.29,0.48,0.83,0.95,0.55,0.33,0.29,0.55,0.58,0.61,0.42,0.33,0.29,0.88,0.5,0.33,0.29,0.55,0.58,0.25" style="fill:rgb(0,0,0);font-family:URWPalladioL-Roma;font-size:8.97px;stroke:none;">cient Structureless MultiviewMotionEstimation.</text>
   <text y="665.959" x="98.05,103.466,108.684,110.926,117.866,120.1085,122.349,127.845,133.064,137.359,141.16,143.77,147.571,149.8135,152.055,157.04,161.523,165.504,170.911,173.52,176.443,181.46620000000001,183.67,188.566,191.5261,193.793,196.815,202.033,205.019,209.915,213.457,221.374,225.857,228.78,231.389,235.37,239.172,241.4145,243.655,250.631,255.85,258.459,263.525,267.82,271.362,275.163,277.773,280.696,285.7192,287.923,292.818,295.7781,298.046,306.528,311.935,315.315,319.296,321.905,326.388,328.6305,330.872,335.857,340.152,345.11,348.58,353.987,358.47,362.012,367.0352,369.239,373.722,378.205,382.688,387.172" svgx:width="0.6,0.58,0.25,0.77,0.25,0.55,0.61,0.58,0.48,0.42,0.29,0.42,0.25,0.55,0.56,0.5,0.44,0.6,0.29,0.33,0.56,0.55,0.55,0.33,0.55,0.34,0.58,0.33,0.55,0.4,0.88,0.5,0.33,0.29,0.44,0.42,0.25,0.55,0.78,0.58,0.29,0.56,0.48,0.4,0.42,0.29,0.33,0.56,0.55,0.55,0.33,0.55,0.95,0.6,0.4,0.44,0.29,0.5,0.25,0.55,0.56,0.48,0.55,0.4,0.6,0.5,0.4,0.56,0.55,0.5,0.5,0.5,0.5,0.25" style="fill:rgb(0,0,0);font-family:URWPalladioL-Roma;font-size:8.97px;stroke:none;">Ph.D. Thesis, Faculty of Informatics, University of Murcia, February 2013.</text>
   <text y="678.871" x="76.535,81.018,85.501,87.74350000000001,98.05,105.165,110.488,118.564,123.137,128.725,133.298,138.355,142.928,148.516,151.178,155.75,161.073,163.31550000000001,166.021,173.136,175.423,183.032,185.319,187.5615,190.477,196.586,201.58,206.637,210.515,215.509,220.831,223.0735,225.779,230.581,232.867,235.1095,238.035,243.623,248.616,252.997,258.32,266.395,268.6375,271.343,274.389,276.675,278.9175,281.833,286.635,291.958,296.951,300.564,303.545,306.207,310.085,312.3275,315.032,323.684,325.971,328.2135,331.129,339.452,343.832,349.155,353.728,358.109,360.77,363.0125,365.718,372.358,374.644,376.8865,379.803,384.888,388.5,391.161,394.143,398.021,402.081,407.404,409.6465,412.352,419.431,421.6735,424.379,431.3756,434.156,438.216,443.21,451.286,456.782,461.355,464.968,467.629,471.507,476.5,481.7026,484.484,489.478,492.4381,495.194,500.782,505.163,510.486,514.364" svgx:width="0.5,0.5,0.25,0.55,0.78,0.58,0.88,0.5,0.61,0.5,0.55,0.5,0.61,0.29,0.5,0.58,0.25,0.55,0.78,0.25,0.83,0.25,0.25,0.55,0.67,0.55,0.55,0.42,0.55,0.58,0.25,0.55,0.52,0.25,0.25,0.55,0.61,0.55,0.48,0.58,0.88,0.25,0.55,0.33,0.25,0.25,0.55,0.52,0.58,0.55,0.4,0.33,0.29,0.42,0.25,0.55,0.95,0.25,0.25,0.55,1.0,0.48,0.58,0.5,0.48,0.29,0.25,0.55,0.73,0.25,0.25,0.55,0.56,0.4,0.29,0.33,0.42,0.44,0.58,0.25,0.55,0.77,0.25,0.55,0.78,0.55,0.44,0.55,0.88,0.6,0.5,0.4,0.29,0.42,0.55,0.58,0.55,0.55,0.33,0.55,0.61,0.48,0.58,0.42,0.48" style="fill:rgb(0,0,0);font-family:URWPalladioL-Roma;font-size:8.97px;stroke:none;">30. Ahmadabadian, A.H.; Robson, S.; Boehm, J.; Shortis, M.; Wenzel, K.; Fritsch, D. A comparison of dense</text>
   <text y="691.782" x="98.05,106.126,110.699,113.68,117.741,123.064,125.725,131.048,136.0712,139.032,143.605,146.266,151.351,156.345,159.957,162.619,165.6,170.923,178.999,182.7664,185.785,188.831,193.824,197.412,200.336,204.214,208.274,212.847,215.509,219.889,225.3607,228.377,232.254,237.769,241.382,244.427,249.0,253.061,257.3666,260.35,263.798,268.179,272.24,277.233,282.556,286.434,289.415,292.955,298.469,302.53,305.512,308.173,313.167,318.3696,321.398,326.913,330.79,333.452,338.775,343.79819999999995,346.759,350.637,353.618,357.999,361.447,365.828,370.76149999999996,373.73,377.79,382.363,390.439,394.82,398.432,402.91700000000003,405.904,409.517,412.178,417.263,421.141" svgx:width="0.88,0.5,0.33,0.44,0.58,0.29,0.58,0.56,0.55,0.5,0.29,0.56,0.55,0.4,0.29,0.33,0.58,0.88,0.42,0.55,0.33,0.55,0.4,0.55,0.42,0.44,0.5,0.29,0.48,0.61,0.55,0.42,0.6,0.4,0.33,0.5,0.44,0.48,0.55,0.4,0.48,0.44,0.55,0.58,0.42,0.33,0.4,0.6,0.44,0.33,0.29,0.55,0.58,0.55,0.6,0.42,0.29,0.58,0.56,0.55,0.42,0.33,0.48,0.4,0.48,0.55,0.55,0.44,0.5,0.88,0.48,0.4,0.5,0.55,0.4,0.29,0.56,0.42,0.25" style="fill:rgb(0,0,0);font-family:URWPalladioL-Roma;font-size:8.97px;stroke:none;">matching algorithms for scaled surface reconstruction using stereo camera rigs.</text>
   <text y="691.782" x="428.55,434.138,440.238" svgx:width="0.61,0.67,0.56" style="fill:rgb(0,0,0);font-family:URWPalladioL-Ital;font-size:8.97px;stroke:none;">PRS</text>
   <text y="691.782" x="448.225,452.708,457.191,461.675" svgx:width="0.5,0.5,0.5,0.5" style="fill:rgb(0,0,0);font-family:URWPalladioL-Bold;font-size:8.97px;stroke:none;">2013</text>
   <text y="691.782" x="466.158" svgx:width="0.25" style="fill:rgb(0,0,0);font-family:URWPalladioL-Roma;font-size:8.97px;stroke:none;">,</text>
   <text y="691.782" x="471.513,476.086" svgx:width="0.5,0.5" style="fill:rgb(0,0,0);font-family:URWPalladioL-Ital;font-size:8.97px;stroke:none;">78</text>
   <text y="691.782" x="480.658,482.9005,486.017,490.59,495.163,499.736,504.309,508.882,513.455,518.028" svgx:width="0.25,0.55,0.5,0.5,0.5,0.5,0.5,0.5,0.5,0.25" style="fill:rgb(0,0,0);font-family:URWPalladioL-Roma;font-size:8.97px;stroke:none;">, 157–167.</text>
   <text y="704.694" x="98.05" svgx:width="0.33" style="fill:rgb(0,0,0);font-family:URWPalladioL-Roma;font-size:8.97px;stroke:none;">[</text>
   <text y="704.694" x="101.036,107.393,110.773,115.669,119.471,123.272,129.262,133.557" svgx:width="0.71,0.4,0.55,0.42,0.42,0.67,0.48,0.33" style="fill:rgb(8,117,183);font-family:URWPalladioL-Roma;font-size:8.97px;stroke:none;">CrossRef</text>
   <text y="704.694" x="136.543" svgx:width="0.33" style="fill:rgb(0,0,0);font-family:URWPalladioL-Roma;font-size:8.97px;stroke:none;">]</text>
   <text y="717.605" x="76.535,81.018,85.501,87.74350000000001,98.05,105.028,110.022,114.403,118.28,122.661,125.323,129.703,131.9455,135.483,144.135,146.422,148.6645,152.833,157.634,162.957,167.53,172.697,177.078,179.74,183.828,186.0705,189.608,197.208,199.494,201.7365,205.906,212.39,217.905,221.517,224.179,228.56,232.437,236.315,238.5575,242.095,247.683,249.97,252.2125,256.372,263.981,268.975,274.471,279.968,284.349,286.5915,290.129,297.738,300.024,302.2665,306.436,311.237,315.618,318.279,321.261,325.834,328.0765,331.614,336.415,338.702,347.354,349.5965,353.134,361.786,367.3,369.962,372.943,375.605,378.65,383.818,386.479,390.86,398.30510000000004,401.981,405.859,408.84,413.221,416.669,421.05,425.9835,429.546,432.592,437.585,441.173,444.691,448.752,453.746,461.821,469.897,475.412,480.735,483.396,486.378,491.40119999999996,494.956,500.453,505.776,510.769,513.751" svgx:width="0.5,0.5,0.25,0.55,0.76,0.55,0.48,0.42,0.48,0.29,0.48,0.25,0.55,0.95,0.25,0.25,0.55,0.52,0.58,0.5,0.56,0.48,0.29,0.56,0.25,0.55,0.83,0.25,0.25,0.55,0.71,0.6,0.4,0.29,0.48,0.42,0.42,0.25,0.55,0.61,0.25,0.25,0.55,0.83,0.55,0.6,0.6,0.48,0.25,0.55,0.83,0.25,0.25,0.55,0.52,0.48,0.29,0.33,0.5,0.25,0.55,0.52,0.25,0.95,0.25,0.55,0.95,0.6,0.29,0.33,0.29,0.33,0.56,0.29,0.48,0.83,0.55,0.42,0.33,0.48,0.4,0.48,0.55,0.55,0.33,0.55,0.4,0.55,0.44,0.55,0.88,0.88,0.6,0.58,0.29,0.33,0.56,0.55,0.6,0.58,0.55,0.33,0.55" style="fill:rgb(0,0,0);font-family:URWPalladioL-Roma;font-size:8.97px;stroke:none;">31. Goesele, M.; Snavely, N.; Curless, B.; Hoppe, H.; Seitz, S.M. Multi-view stereo for community photo</text>
   <text y="730.517" x="98.05,102.111,107.104,109.766,112.427,116.808,120.869,123.85,126.512,131.505,136.828,140.706,142.9485,146.925,150.007,155.2096,157.826,163.35,166.808,171.801,175.862,180.243,184.623,190.211,192.873,198.196,203.281,207.04840000000002,209.664,214.658,217.6181,220.2,223.182,228.505,232.8106,235.391,239.964,244.537,249.11,253.59500000000003,256.189,259.271,264.859,270.447,275.9187,278.541,283.114,287.687,290.668,295.8706,298.497,301.579,306.902,309.883,314.264,317.877,323.2,327.772,330.754,333.415,338.409,343.732,348.305,350.9063,353.472,359.956,364.95,370.273,373.318,377.699,381.147,385.528,390.85,394.911,399.2166,401.798,406.791,411.9936,414.62,421.104,426.098,434.174,439.67,445.185,448.167,452.547,456.13500000000005,458.666,464.775,467.437,471.314,473.976,478.969,484.292,486.5345,489.149,492.194,496.767,502.09,506.471,509.132,512.58,517.574" svgx:width="0.44,0.55,0.29,0.29,0.48,0.44,0.33,0.29,0.55,0.58,0.42,0.25,0.55,0.34,0.58,0.55,0.6,0.4,0.55,0.44,0.48,0.48,0.61,0.29,0.58,0.56,0.42,0.55,0.55,0.33,0.55,0.33,0.58,0.48,0.55,0.5,0.5,0.5,0.5,0.55,0.34,0.61,0.61,0.61,0.55,0.5,0.5,0.33,0.58,0.55,0.34,0.58,0.33,0.48,0.4,0.58,0.5,0.33,0.29,0.55,0.58,0.5,0.29,0.55,0.71,0.55,0.58,0.33,0.48,0.4,0.48,0.58,0.44,0.48,0.55,0.55,0.58,0.55,0.71,0.55,0.88,0.6,0.6,0.33,0.48,0.4,0.55,0.72,0.29,0.42,0.29,0.55,0.58,0.25,0.55,0.33,0.5,0.58,0.48,0.29,0.4,0.55,0.25" style="fill:rgb(0,0,0);font-family:URWPalladioL-Roma;font-size:8.97px;stroke:none;">collections. In Proceedings of the 2007 IEEE 11th International Conference on Computer Vision, Janeiro,</text>
   <text y="743.429" x="98.05,103.528,107.07,111.553,116.037,118.646,121.255,123.4975,125.738,130.221,134.705,139.188,143.671,148.156,150.396,157.443,161.425,164.348,169.243,174.202,178.497,182.085,184.28,188.763,193.246,197.729,202.213,204.4555,206.696,212.085,217.474,219.7165,221.957,226.44,230.923,235.406" svgx:width="0.61,0.4,0.5,0.5,0.29,0.29,0.25,0.55,0.5,0.5,0.5,0.5,0.5,0.55,0.79,0.44,0.33,0.55,0.55,0.48,0.4,0.55,0.5,0.5,0.5,0.5,0.25,0.55,0.6,0.6,0.25,0.55,0.5,0.5,0.5,0.25" style="fill:rgb(0,0,0);font-family:URWPalladioL-Roma;font-size:8.97px;stroke:none;">Brazil, 14–20 October 2007; pp. 1–8.</text>
   <text y="756.34" x="76.535,81.018,85.501,87.74350000000001,98.05,105.659,110.232,113.845,119.012,123.393,127.481,129.7235,132.639,138.227,140.514,145.315,147.602,149.8445,153.062,157.863,163.186,168.179,171.792,174.774,177.435,181.313,183.5555,186.471,195.123,197.409,203.519,205.7615,208.668,215.152,219.725,222.386,225.048,230.105,233.718,238.291,241.272,243.934,248.927,254.12959999999998,257.122,260.999,263.981,268.554,273.611,276.273,278.934,281.596,284.568,289.59119999999996,292.525,297.518,300.4781,303.427,307.999,313.20160000000004,316.194,321.709,327.032,332.62,337.0,340.613,348.241,352.813,355.795,360.176,363.764,366.651,370.529,373.51,377.891,381.348,385.729,390.722,393.768,398.935,401.597,407.185,411.566,416.49949999999995,419.422,423.299,428.384,432.262,435.244,439.625,447.7,449.9425,454.377,457.038,465.114,470.61,473.272,475.933,479.994,484.567,487.548,490.21,495.203,500.526,504.2934,507.266,510.312,515.305" svgx:width="0.5,0.5,0.25,0.55,0.83,0.5,0.4,0.56,0.48,0.56,0.25,0.55,0.61,0.25,0.52,0.25,0.25,0.55,0.52,0.58,0.55,0.4,0.33,0.29,0.42,0.25,0.55,0.95,0.25,0.67,0.25,0.55,0.71,0.5,0.29,0.29,0.55,0.4,0.5,0.33,0.29,0.55,0.58,0.55,0.42,0.33,0.5,0.55,0.29,0.29,0.29,0.33,0.56,0.55,0.55,0.33,0.55,0.5,0.58,0.55,0.6,0.58,0.61,0.48,0.4,0.83,0.5,0.33,0.48,0.4,0.55,0.42,0.33,0.48,0.4,0.48,0.55,0.33,0.56,0.29,0.61,0.48,0.55,0.55,0.42,0.56,0.42,0.33,0.48,0.88,0.25,0.55,0.29,0.88,0.6,0.29,0.29,0.44,0.5,0.33,0.29,0.55,0.58,0.42,0.55,0.33,0.55,0.4" style="fill:rgb(0,0,0);font-family:URWPalladioL-Roma;font-size:8.97px;stroke:none;">32. Harvey, E.S.; Shortis, M.R. Calibration stability of an underwater stereo-video system: implications for</text>
   <text y="769.252" x="98.05,105.967,110.262,114.745,118.547,123.954,127.334,131.629,139.546,143.841,149.06,152.0201,154.224,158.708,162.689,166.67,172.077,175.618,180.102,184.083,189.1062,191.31,195.793,201.011,206.4827,208.731,214.12,217.5,221.795,225.776,228.386,232.187,234.797,239.692,244.911" svgx:width="0.88,0.48,0.5,0.42,0.6,0.4,0.48,0.88,0.48,0.58,0.33,0.55,0.5,0.44,0.44,0.6,0.4,0.5,0.44,0.56,0.55,0.5,0.58,0.61,0.55,0.6,0.4,0.48,0.44,0.29,0.42,0.29,0.55,0.58,0.25" style="fill:rgb(0,0,0);font-family:URWPalladioL-Roma;font-size:8.97px;stroke:none;">measurement accuracy and precision.</text>
   <text y="769.252" x="250.289,258.753,264.232" svgx:width="0.94,0.61,0.56" style="fill:rgb(0,0,0);font-family:URWPalladioL-Ital;font-size:8.97px;stroke:none;">MTS</text>
   <text y="769.252" x="271.459,275.942,280.425,284.909" svgx:width="0.5,0.5,0.5,0.5" style="fill:rgb(0,0,0);font-family:URWPalladioL-Bold;font-size:8.97px;stroke:none;">1998</text>
   <text y="769.252" x="289.391" svgx:width="0.25" style="fill:rgb(0,0,0);font-family:URWPalladioL-Roma;font-size:8.97px;stroke:none;">,</text>
   <text y="769.252" x="293.874,298.357" svgx:width="0.5,0.5" style="fill:rgb(0,0,0);font-family:URWPalladioL-Ital;font-size:8.97px;stroke:none;">32</text>
   <text y="769.252" x="302.841,305.0835,307.324,311.807,316.291,320.774,325.257" svgx:width="0.25,0.55,0.5,0.5,0.5,0.5,0.25" style="fill:rgb(0,0,0);font-family:URWPalladioL-Roma;font-size:8.97px;stroke:none;">, 3–17.</text>
  </g>
 </g>
</svg>
