<?xml version="1.0" encoding="UTF-8"?>
<svg height="718.667" width="4134.348" xmlns="http://www.w3.org/2000/svg">
 <g id="page" xmlns:svgx="http://www.xml-cml.org/schema/svgx">
  <g begin="text">
   <text y="62.979" x="76.312,80.743,83.844,88.275,91.375,94.914,98.015" svgx:width="0.56,0.39,0.56,0.39,0.44,0.39,0.39" style="fill:rgb(0,0,0);font-family:URWPalladioL-Ital;font-size:7.97px;stroke:none;">Sensors</text>
   <text y="62.979" x="103.107,107.092,111.077,115.062" svgx:width="0.5,0.5,0.5,0.5" style="fill:rgb(0,0,0);font-family:URWPalladioL-Bold;font-size:7.97px;stroke:none;">2019</text>
   <text y="62.979" x="119.047" svgx:width="0.25" style="fill:rgb(0,0,0);font-family:URWPalladioL-Roma;font-size:7.97px;stroke:none;">,</text>
   <text y="62.979" x="123.032,127.017" svgx:width="0.5,0.5" style="fill:rgb(0,0,0);font-family:URWPalladioL-Ital;font-size:7.97px;stroke:none;">19</text>
   <text y="62.979" x="131.003,132.9955,134.988,138.973,142.958,146.943,150.92800000000003,495.794,499.779,501.772,506.123,508.7531,510.77,514.755" svgx:width="0.25,0.55,0.5,0.5,0.5,0.5,0.55,0.5,0.55,0.55,0.33,0.55,0.5,0.5" style="fill:rgb(0,0,0);font-family:URWPalladioL-Roma;font-size:7.97px;stroke:none;">, 4881 8 of 17</text>
  </g>
  <g begin="text">
   <text y="-309.087" x="76.108,80.554,83.668,88.115,91.228,94.781,97.895,101.009" svgx:width="0.56,0.39,0.56,0.39,0.44,0.39,0.39,0.25" style="fill:rgb(0,0,0);font-family:PalatinoLinotype,Italic;font-size:7.98px;stroke:none;">Sensors </text>
   <text y="-309.087" x="102.988,107.008,111.028,115.049" svgx:width="0.5,0.5,0.5,0.5" style="fill:rgb(0,0,0);font-family:PalatinoLinotype,Bold;font-size:7.98px;stroke:none;">2019</text>
   <text y="-309.087" x="119.068,121.047" svgx:width="0.25,0.25" style="fill:rgb(0,0,0);font-family:PalatinoLinotype;font-size:7.98px;stroke:none;">, </text>
   <text y="-309.087" x="123.027,127.048" svgx:width="0.5,0.5" style="fill:rgb(0,0,0);font-family:PalatinoLinotype,Italic;font-size:7.98px;stroke:none;">19</text>
   <text y="-309.087" x="131.067,133.06,135.04,139.155,141.135,145.569,151.868,157.196,159.176,163.993,168.915,173.788,179.116,181.096,186.496,191.417,197.177,199.863,204.737,212.777,214.772,492.147,496.166,498.161,499.706,504.091,506.731,508.726,510.271,514.29,518.308" svgx:width="0.25,0.25,0.52,0.25,0.56,0.79,0.67,0.25,0.6,0.61,0.61,0.67,0.25,0.67,0.61,0.72,0.34,0.61,1.0,0.25,0.55,0.5,0.25,0.55,0.55,0.33,0.25,0.55,0.5,0.5,0.25" style="fill:rgb(0,0,0);font-family:PalatinoLinotype;font-size:7.98px;stroke:none;">, x FOR PEER REVIEW 7 of 16 </text>
   <text y="428.973" x="76.108" svgx:width="0.25" style="fill:rgb(0,0,0);font-family:TimesNewRoman;font-size:9.0px;stroke:none;"> </text>
   <text y="-284.187" x="97.348,103.486,109.314,114.109,116.989,121.234,125.615,130.621,133.533,138.329,144.391,147.271,155.623,158.535,164.363,170.481,173.361,176.623,182.661,188.489,194.317,199.112,202.024,204.904,213.184,218.164,222.409,225.288,228.621,234.088,238.042,246.803,251.599,257.717,260.597,266.134,271.652,274.532,277.864,280.776,284.109,286.928,291.934,294.814,300.351,305.818,310.824,314.778,320.84,325.108,327.987,333.437,336.753,339.633,344.622,349.662,354.651,357.53,361.958,370.785,373.604,378.645,381.464,386.453,391.493,394.313,398.741,407.567,410.447,415.487,418.307,423.296,426.176,430.603,439.43,442.31,446.738,452.187,456.124,460.061,464.84,469.067,475.068,480.518,486.329,492.43,495.37,501.18,506.73,509.61,512.788,518.309" svgx:width="0.61,0.58,0.48,0.25,0.42,0.44,0.5,0.29,0.48,0.61,0.25,0.83,0.29,0.58,0.61,0.25,0.33,0.6,0.58,0.58,0.48,0.29,0.25,0.83,0.5,0.42,0.25,0.33,0.55,0.4,0.88,0.48,0.61,0.25,0.55,0.56,0.25,0.33,0.29,0.33,0.25,0.5,0.25,0.55,0.55,0.5,0.4,0.61,0.42,0.25,0.55,0.33,0.25,0.5,0.5,0.5,0.25,0.44,0.88,0.25,0.5,0.25,0.5,0.5,0.25,0.44,0.88,0.25,0.5,0.25,0.5,0.25,0.44,0.88,0.25,0.44,0.55,0.4,0.4,0.48,0.42,0.6,0.55,0.58,0.61,0.29,0.58,0.56,0.25,0.33,0.55,0.25" style="fill:rgb(0,0,0);font-family:PalatinoLinotype;font-size:10.02px;stroke:none;">The scaled wind tunnel was formed by (i) 6 boards of 122 cm × 52 cm × 1 cm corresponding to </text>
   <text y="-270.687" x="76.108,79.346,85.166,89.133,93.941,98.75,101.089,106.569,109.869,112.209,115.447,121.267,126.075,128.355,131.235,136.215,139.453,144.253,148.22,153.239,156.118,158.458,162.659,168.719,172.686,175.986,181.005,185.463,190.203,194.465,196.744,202.224,205.57,207.91,211.148,216.968,221.707,224.047,228.248,233.888,239.888,244.928,248.894,253.634,255.913,261.912,265.872,268.797,273.055,281.876,284.156,289.175,295.016,301.077,303.416,306.716,309.656,312.535,315.835,318.175,323.155,325.494,331.012,336.473,341.453,345.413,351.544,355.746,358.085,363.565,366.865,369.144,374.124,379.164,381.504,385.962,394.723,397.003,402.022,404.302,409.281,414.322,416.661,421.119,429.881,432.16,437.179,439.459,444.439,446.778,451.236,460.058,462.397,468.336,471.276,476.295,480.753,485.493,491.555,493.894,498.913,502.092,504.431,507.67,513.489,518.298" svgx:width="0.33,0.58,0.4,0.48,0.48,0.25,0.55,0.33,0.25,0.33,0.58,0.48,0.25,0.29,0.5,0.33,0.48,0.4,0.5,0.29,0.25,0.42,0.6,0.4,0.33,0.5,0.44,0.48,0.42,0.25,0.55,0.33,0.25,0.33,0.58,0.48,0.25,0.42,0.56,0.6,0.5,0.4,0.48,0.25,0.6,0.4,0.29,0.42,0.88,0.25,0.5,0.58,0.61,0.25,0.33,0.29,0.29,0.33,0.25,0.5,0.25,0.55,0.55,0.5,0.4,0.61,0.42,0.25,0.55,0.33,0.25,0.5,0.5,0.25,0.44,0.88,0.25,0.5,0.25,0.5,0.5,0.25,0.44,0.88,0.25,0.5,0.25,0.5,0.25,0.44,0.88,0.25,0.6,0.29,0.5,0.44,0.48,0.61,0.25,0.5,0.33,0.25,0.33,0.58,0.48,0.25" style="fill:rgb(0,0,0);font-family:PalatinoLinotype;font-size:10.02px;stroke:none;">three of the lateral surfaces of the square prism and (ii) 2 boards of 10 cm × 52 cm × 1 cm placed at the </text>
   <text y="-257.248" x="76.108,81.634,86.418,91.974,94.914,100.731,106.547,109.487,115.304,120.86,123.74,128.78,134.539,140.646,143.526,148.566,151.805,154.745,157.996,163.813,168.597,171.537,176.322,182.138,188.245,191.125,196.581,199.941,202.881,206.132,211.949,216.733,219.673,222.925,228.952,234.768,240.585,245.369,248.27,251.15,254.51,260.509,264.451,267.391,271.625,280.386,283.326,288.852,293.847,298.081,302.865,307.099,310.407,313.347,316.579,322.014,324.894,329.934,332.814,335.754,341.215,349.536,352.476,355.708,361.504,366.269,369.149,373.41,376.649,382.084,386.044,391.084,396.662,401.427,404.367,409.803,413.162,416.042,420.304,425.284,431.08,437.201,440.081,445.121,450.101,453.041,457.483,466.305,469.184,475.306,480.105,484.87,490.857,493.377,496.316,506.301,509.241,512.473,518.269" svgx:width="0.55,0.48,0.56,0.29,0.58,0.58,0.29,0.58,0.56,0.25,0.5,0.58,0.61,0.25,0.5,0.33,0.25,0.33,0.58,0.48,0.25,0.48,0.58,0.61,0.25,0.55,0.33,0.25,0.33,0.58,0.48,0.25,0.33,0.6,0.58,0.58,0.48,0.29,0.25,0.33,0.6,0.4,0.29,0.42,0.88,0.25,0.55,0.5,0.42,0.48,0.42,0.33,0.25,0.33,0.55,0.25,0.5,0.29,0.29,0.55,0.83,0.25,0.33,0.58,0.48,0.25,0.42,0.33,0.55,0.4,0.5,0.56,0.48,0.25,0.55,0.33,0.25,0.42,0.5,0.58,0.61,0.25,0.5,0.5,0.25,0.44,0.88,0.25,0.61,0.48,0.48,0.6,0.25,0.25,1.0,0.29,0.33,0.58,0.25" style="fill:rgb(0,0,0);font-family:PalatinoLinotype;font-size:10.02px;stroke:none;">beginning and at the end of the tunnel (prism bases) to allow the storage of sand 10 cm deep. With </text>
   <text y="-243.748" x="76.108,79.372,85.202,89.999,94.246,99.043,101.563,107.684,110.597,119.443,124.241,130.0,134.262,137.176,142.644,148.474,152.721,155.224,157.744,161.008,166.838,171.635,174.095,177.43,180.344,186.103,191.143,194.057,196.517,200.763,203.677,208.685,213.483,216.003,221.404,224.763,227.283,230.548,236.378,241.175,243.695,247.942,252.323,257.331,260.245,265.043,271.163,273.683,281.964,284.903,290.733,296.788,299.308,302.547,308.607,314.366,320.186,324.995,327.921,330.441,334.9,340.381,346.223,350.481,353.72,357.62,363.672,368.131,371.369,376.169,382.301,384.821,393.188,398.168,402.426,404.886,409.906,414.886,419.906,422.426,426.808,435.629,438.149,443.169,445.629,450.609,455.649,458.169,462.628,471.45,473.91,478.93,481.39,486.37,491.41,493.93,498.389,507.21,509.67" svgx:width="0.33,0.58,0.48,0.42,0.48,0.25,0.61,0.29,0.88,0.48,0.58,0.42,0.29,0.55,0.58,0.42,0.25,0.25,0.33,0.58,0.48,0.25,0.33,0.29,0.58,0.5,0.29,0.25,0.42,0.29,0.5,0.48,0.25,0.55,0.33,0.25,0.33,0.58,0.48,0.25,0.42,0.44,0.5,0.29,0.48,0.61,0.25,0.83,0.29,0.58,0.61,0.25,0.33,0.6,0.58,0.58,0.48,0.29,0.25,0.44,0.55,0.58,0.42,0.33,0.4,0.6,0.44,0.33,0.48,0.61,0.25,0.83,0.5,0.42,0.25,0.5,0.5,0.5,0.25,0.44,0.88,0.25,0.5,0.25,0.5,0.5,0.25,0.44,0.88,0.25,0.5,0.25,0.5,0.5,0.25,0.44,0.88,0.25,0.25" style="fill:rgb(0,0,0);font-family:PalatinoLinotype;font-size:10.02px;stroke:none;">these dimensions, the final size of the scaled wind tunnel constructed was 244 cm × 52 cm × 52 cm. </text>
   <text y="-230.248" x="97.348,103.497,109.336,114.143,116.648,117.863,123.862,128.902,134.741,139.481,142.404,146.605,149.10999999999999,150.326,158.606,163.406,167.371,172.177,174.682,175.838,180.855,185.056,189.312,194.118,202.94,208.458,211.381,216.12,222.249,224.754,225.91,230.927,236.765,242.826,245.331,246.547,250.802,255.543,260.56,263.483,268.222,274.284,276.789,278.005,286.368,289.291,292.53,298.289,300.794,302.01,306.211,309.151,312.031,314.97,319.426,324.868,330.69,335.429,337.93399999999997,339.15,342.406,347.867,350.372,351.587,357.599,361.547,366.337,371.988,376.778,382.599,385.778,388.283,389.498,392.755,398.576,403.366,405.871,407.086,409.992,415.393,419.631,423.87,426.375,427.59,433.051,436.378,438.883,440.038,444.276,449.276,455.098,461.21,463.715,464.931,468.187,474.009,477.957,483.418,489.45,495.011,500.832,503.337,504.553,507.731,513.551,518.34" svgx:width="0.61,0.58,0.48,0.25,0.55,0.6,0.5,0.58,0.48,0.29,0.42,0.25,0.55,0.83,0.48,0.4,0.48,0.25,0.55,0.5,0.42,0.42,0.48,0.88,0.55,0.29,0.48,0.61,0.25,0.55,0.5,0.58,0.61,0.25,0.55,0.42,0.48,0.5,0.29,0.48,0.61,0.25,0.55,0.83,0.29,0.33,0.58,0.25,0.55,0.42,0.29,0.29,0.29,0.44,0.55,0.58,0.48,0.25,0.55,0.33,0.55,0.25,0.55,0.6,0.4,0.48,0.56,0.48,0.58,0.33,0.25,0.55,0.33,0.58,0.48,0.25,0.55,0.29,0.55,0.42,0.42,0.25,0.55,0.55,0.33,0.25,0.55,0.42,0.5,0.58,0.61,0.25,0.55,0.33,0.58,0.4,0.55,0.6,0.56,0.58,0.25,0.55,0.33,0.58,0.48,0.25" style="fill:rgb(0,0,0);font-family:PalatinoLinotype;font-size:10.02px;stroke:none;">The panels were assembled and sealed with silicone to prevent the loss of sand through the </text>
   <text y="-216.748" x="76.109,78.443,84.475,90.297,94.736,97.992,100.933,106.394,112.216,116.454,118.949,121.454,122.97,130.756,134.012,136.517,138.093,141.35,147.171,151.961,154.466,156.042,160.832,166.653,172.766,175.271,176.847,182.308,185.668,188.173,189.749,193.006,198.828,203.617,206.12199999999999,207.698,210.955,216.987,222.809,228.63,233.42,236.361,238.882,241.387,242.903,247.944,250.44899999999998,251.965,257.496,262.537,268.098,270.603,272.179,280.526,285.526,289.764,292.269,293.845,296.786,302.248,306.687,311.687,314.943,319.733,325.845,328.35,329.926,333.183,338.644,341.149,342.725,346.963,350.22,355.681,359.629,364.418,366.923,368.499,371.799,377.62,382.409,384.914,386.49,390.729,395.77,401.591,407.704,410.209,411.785,416.574,421.735,427.747,432.536,435.477,438.418,443.218,449.331,451.836,453.412,458.943,464.504,467.009,468.585,471.842,477.663,482.453,484.95799999999997,486.474,491.474,494.415,498.362,501.689,504.63,510.092,518.438" svgx:width="0.23,0.6,0.58,0.44,0.33,0.29,0.55,0.58,0.42,0.25,0.25,0.55,0.78,0.33,0.25,0.55,0.33,0.58,0.48,0.25,0.55,0.48,0.58,0.61,0.25,0.55,0.55,0.33,0.25,0.55,0.33,0.58,0.48,0.25,0.55,0.33,0.6,0.58,0.58,0.48,0.29,0.25,0.25,0.55,0.5,0.25,0.55,0.55,0.5,0.56,0.25,0.55,0.83,0.5,0.42,0.25,0.55,0.29,0.55,0.44,0.5,0.33,0.48,0.61,0.25,0.55,0.33,0.55,0.25,0.55,0.42,0.33,0.55,0.4,0.48,0.25,0.55,0.33,0.58,0.48,0.25,0.55,0.42,0.5,0.58,0.61,0.25,0.55,0.48,0.52,0.6,0.48,0.29,0.29,0.48,0.61,0.25,0.55,0.55,0.56,0.25,0.55,0.33,0.58,0.48,0.25,0.55,0.5,0.29,0.4,0.33,0.29,0.55,0.83,0.25" style="fill:rgb(0,0,0);font-family:PalatinoLinotype;font-size:10.02px;stroke:none;">junctions. At the end of the tunnel, a bag was located to store the sand expelled by the airflow </text>
   <text y="-203.248" x="76.109,80.55,84.501,89.294,94.297,97.556,102.349,108.464,110.984,116.518,122.036,124.556,127.816,133.64,138.433,140.953,144.283,149.286,155.11,157.608" svgx:width="0.44,0.4,0.48,0.5,0.33,0.48,0.61,0.25,0.55,0.56,0.25,0.33,0.58,0.48,0.25,0.33,0.5,0.58,0.25,0.25" style="fill:rgb(0,0,0);font-family:PalatinoLinotype;font-size:10.02px;stroke:none;">created by the fan. </text>
   <text y="-177.748" x="76.109,81.137,83.597,88.625,91.148,93.608,99.197,103.664,109.182,114.162" svgx:width="0.5,0.25,0.5,0.25,0.25,0.56,0.44,0.56,0.5,0.25" style="fill:rgb(0,0,0);font-family:PalatinoLinotype,Italic;font-size:10.02px;stroke:none;">3.2. Sand </text>
   <text y="-158.248" x="97.349,103.498,109.337,114.144,117.324,121.579,126.035,131.015,133.955,138.762,144.891,148.071,156.352,159.292,165.13,171.26,174.44,177.678,183.738,189.577,195.416,200.222,203.145,206.326,214.606,219.646,223.902,227.082,233.211,237.952,242.207,245.13,250.708,256.468,261.274,267.403,270.524,278.887,281.81,285.049,290.868,294.049,299.066,302.246,306.211,311.018,315.273,320.012,323.977,329.557,335.035,337.958,341.923,345.104,348.342,353.803,356.983,362.0,366.456,370.912,376.961,385.723,391.783,394.662,399.703,402.941,407.741,410.921,415.938,419.058,424.075,429.092,432.273,436.728,445.49,448.67,454.509,457.432,463.01,468.849,472.029,477.046,485.868,491.268,497.328,503.167,506.406,509.586,515.064,518.407" svgx:width="0.61,0.58,0.48,0.25,0.42,0.44,0.5,0.29,0.48,0.61,0.25,0.83,0.29,0.58,0.61,0.25,0.33,0.6,0.58,0.58,0.48,0.29,0.25,0.83,0.5,0.42,0.25,0.61,0.48,0.42,0.29,0.56,0.58,0.48,0.61,0.25,0.83,0.29,0.33,0.58,0.25,0.5,0.25,0.4,0.48,0.42,0.48,0.4,0.56,0.55,0.29,0.4,0.25,0.33,0.55,0.25,0.5,0.44,0.44,0.6,0.88,0.6,0.29,0.5,0.33,0.48,0.25,0.5,0.25,0.5,0.5,0.25,0.44,0.88,0.25,0.58,0.29,0.56,0.58,0.25,0.5,0.88,0.55,0.6,0.58,0.33,0.25,0.55,0.33,0.25" style="fill:rgb(0,0,0);font-family:PalatinoLinotype;font-size:10.02px;stroke:none;">The scaled wind tunnel was designed with a reservoir to accumulate a 10 cm high amount of </text>
   <text y="-144.808" x="76.109,80.343,85.383,91.201,97.309,99.814,101.149,104.401,109.858,112.363,113.698,118.132,123.589,129.237,134.022,137.966,140.471,141.806,144.746,147.984,152.219,154.724,156.058,161.585,166.581,170.816,175.601,178.092,180.597,181.932,187.994,192.974,198.531,201.471,207.288,212.846,215.351,216.625,219.565,225.385,228.637,234.094,236.599,237.934,242.974,247.416,251.85,257.307,263.335,269.153,272.405,274.90999999999997,276.245,279.498,285.315,290.101,292.606,293.94,300.049,302.989,311.75,316.55,322.367,326.602,329.542,335.002,340.82,345.055,347.56,348.894,354.351,357.711,360.216,361.55,364.803,370.621,373.56,377.822,380.327,381.662,387.189,392.185,396.419,401.205,403.71,405.044,408.367,413.363,418.403,423.443,425.948,427.283,431.718,440.551,443.056,444.391,449.431,451.936,453.271,458.267,463.307,467.741,476.575,479.935,482.44,483.714,488.71,494.528,500.636,503.141,504.476,507.728,513.546,518.406" svgx:width="0.42,0.5,0.58,0.61,0.25,0.55,0.33,0.55,0.25,0.55,0.44,0.55,0.56,0.48,0.4,0.25,0.55,0.29,0.33,0.42,0.25,0.55,0.55,0.5,0.42,0.48,0.25,0.25,0.55,0.61,0.5,0.56,0.29,0.58,0.56,0.25,0.55,0.29,0.58,0.33,0.55,0.25,0.55,0.5,0.44,0.44,0.55,0.6,0.58,0.33,0.25,0.55,0.33,0.58,0.48,0.25,0.55,0.61,0.29,0.88,0.48,0.58,0.42,0.29,0.55,0.58,0.42,0.25,0.55,0.55,0.33,0.25,0.55,0.33,0.58,0.29,0.42,0.25,0.55,0.55,0.5,0.42,0.48,0.25,0.55,0.33,0.5,0.5,0.5,0.25,0.55,0.44,0.88,0.25,0.55,0.5,0.25,0.55,0.5,0.5,0.44,0.88,0.33,0.25,0.55,0.5,0.58,0.61,0.25,0.55,0.33,0.58,0.48,0.25" style="fill:rgb(0,0,0);font-family:PalatinoLinotype;font-size:10.02px;stroke:none;">sand to cover its base. Taking into account the dimensions of this base (244 cm × 52cm) and the </text>
   <text y="-131.308" x="76.109,81.11,86.762,91.552,95.452,100.453,106.015,110.756,113.216,119.329,124.119,129.942,134.182,137.088,140.346,145.908,148.368,153.83,157.157,159.617,162.875,168.697,173.488,175.948,181.48,186.22,191.221,195.603,201.426,203.886,208.125,213.126,218.949,225.01,227.47,233.503,237.742,242.533,248.646,251.046,254.373,259.374,264.375,269.376,274.377,276.777,282.339,287.901,291.099" svgx:width="0.5,0.56,0.48,0.4,0.5,0.56,0.48,0.25,0.61,0.48,0.58,0.42,0.29,0.33,0.56,0.25,0.55,0.33,0.25,0.33,0.58,0.48,0.25,0.55,0.48,0.5,0.44,0.58,0.25,0.42,0.5,0.58,0.61,0.25,0.6,0.42,0.48,0.61,0.25,0.33,0.5,0.5,0.5,0.5,0.25,0.56,0.56,0.32,0.88" style="fill:rgb(0,0,0);font-family:PalatinoLinotype;font-size:10.02px;stroke:none;">average density of the beach sand used (1600 kg/m</text>
   <text y="-133.827" x="299.968" svgx:width="0.5" style="fill:rgb(0,0,0);font-family:PalatinoLinotype;font-size:6.0px;stroke:none;">3</text>
   <text y="-131.307" x="302.968,306.328,308.788,311.187,316.227,318.687,321.926,327.369,330.607,335.589,338.529,340.929,345.969,354.79,360.233,366.247,372.051,375.289,377.749,383.192,386.552,388.952,393.934,398.974,403.955,406.415,411.958,417.501,419.961,425.404,428.713,431.113,435.333,440.373,446.177,452.271,454.731,463.059,468.099,472.32,474.78,480.583,485.355,490.126,496.221,500.992,507.086,509.546,512.785,518.227" svgx:width="0.33,0.25,0.25,0.5,0.25,0.33,0.55,0.33,0.5,0.29,0.25,0.5,0.88,0.55,0.6,0.58,0.33,0.25,0.55,0.33,0.25,0.5,0.5,0.5,0.25,0.56,0.56,0.25,0.55,0.33,0.25,0.42,0.5,0.58,0.61,0.25,0.83,0.5,0.42,0.25,0.58,0.48,0.48,0.61,0.48,0.61,0.25,0.33,0.55,0.25" style="fill:rgb(0,0,0);font-family:PalatinoLinotype;font-size:10.02px;stroke:none;">), a total amount of 200 kg of sand was needed to </text>
   <text y="-117.807" x="76.108,79.444,82.359,85.273,88.188,90.708,93.974,99.804,104.603,107.063,111.02,115.818,120.066,124.806,128.763,134.424,139.894,142.808,146.765,149.269" svgx:width="0.33,0.29,0.29,0.29,0.25,0.33,0.58,0.48,0.25,0.4,0.48,0.42,0.48,0.4,0.56,0.55,0.29,0.4,0.25,0.25" style="fill:rgb(0,0,0);font-family:PalatinoLinotype;font-size:10.02px;stroke:none;">fill the reservoir. </text>
   <text y="-104.307" x="97.349,103.487,109.314,114.11,116.81,122.848,127.093,131.889,134.589,139.99,143.289,145.99,151.527,156.267,161.273,165.718,171.546,174.186,178.43,183.436,189.196,195.317,197.957,200.869,209.713,215.731,218.643,221.555,226.295,230.54,233.24,236.502,242.33,247.07,249.77,254.566,259.732,262.644,266.888,270.151,274.89,280.718,285.163,289.958,292.659,298.125,301.458,304.158,308.403,311.548,314.476,318.937,324.52,328.721,331.238,333.879,338.901,341.829,347.347,352.387,357.126,359.646,362.286,366.547,372.391,377.202,380.082,383.01,387.211,389.728,392.368,397.391,403.234,409.295,411.988,417.457,420.721,426.551,431.348,435.304,437.944,443.984,449.744,458.099,463.107,468.936,472.201,476.998,483.119,485.819,491.288,496.827,499.17,503.967,508.349,511.587,515.834,518.337" svgx:width="0.61,0.58,0.48,0.25,0.6,0.42,0.48,0.25,0.55,0.33,0.25,0.55,0.48,0.5,0.44,0.58,0.25,0.42,0.5,0.58,0.61,0.25,0.29,0.88,0.6,0.29,0.29,0.48,0.42,0.25,0.33,0.58,0.48,0.25,0.48,0.52,0.29,0.42,0.33,0.48,0.58,0.44,0.48,0.25,0.55,0.33,0.25,0.42,0.33,0.29,0.44,0.56,0.42,0.25,0.25,0.5,0.29,0.56,0.5,0.48,0.25,0.25,0.42,0.58,0.48,0.29,0.29,0.42,0.25,0.25,0.5,0.58,0.61,0.25,0.55,0.33,0.58,0.48,0.4,0.25,0.6,0.58,0.83,0.5,0.58,0.33,0.48,0.61,0.25,0.55,0.55,0.23,0.48,0.44,0.33,0.42,0.25,0.25" style="fill:rgb(0,0,0);font-family:PalatinoLinotype;font-size:10.02px;stroke:none;">The use of beach sand implies the existence of sticks, algae, shells, and other unwanted objects. </text>
   <text y="-90.807" x="76.107,82.247,87.716,90.476,95.273,98.187,101.101,109.947,112.861,118.62,123.628,126.893,131.69,134.391,137.655,143.485,148.282,152.529,157.326,160.027,162.941,171.786,177.806,183.846,187.802,190.716,193.894,196.834,201.632,205.878,208.638,213.646,219.405,225.525,228.285,231.549,236.907,239.667,245.482,250.883,259.715,265.17,270.725,275.508,281.324,284.224,289.218,294.001,296.761,300.011,305.827,310.61,313.37,316.62,322.175,328.181,332.965,335.724,341.179,344.5,347.259,352.814,356.756,361.75,364.65,370.41,372.93,375.747,378.986,384.789,389.561,392.32,396.541,401.581,407.384,413.479,416.238,422.252,426.473,431.244,437.338,440.098,443.038,448.797,451.557,454.795,460.599,465.37,468.13,472.901,478.044,484.037,488.809,492.739,495.679,504.498,509.27,515.073,518.252" svgx:width="0.61,0.55,0.25,0.48,0.29,0.29,0.88,0.29,0.58,0.5,0.33,0.48,0.25,0.33,0.58,0.48,0.42,0.48,0.25,0.29,0.88,0.6,0.6,0.4,0.29,0.33,0.29,0.48,0.42,0.25,0.5,0.58,0.61,0.25,0.33,0.55,0.25,0.58,0.55,0.88,0.55,0.56,0.48,0.58,0.29,0.5,0.48,0.25,0.33,0.58,0.48,0.25,0.33,0.56,0.6,0.48,0.25,0.55,0.33,0.25,0.56,0.4,0.5,0.29,0.58,0.25,0.25,0.33,0.58,0.48,0.25,0.42,0.5,0.58,0.61,0.25,0.6,0.42,0.48,0.61,0.25,0.29,0.58,0.25,0.33,0.58,0.48,0.25,0.48,0.52,0.6,0.48,0.4,0.29,0.88,0.48,0.58,0.33,0.25" style="fill:rgb(0,0,0);font-family:PalatinoLinotype;font-size:10.02px;stroke:none;">To eliminate these impurities and to homogenize the type of grain, the sand used in the experiment </text>
   <text y="-77.308" x="76.107,84.464,89.474,93.722,96.22699999999999,98.463,102.711,105.627,110.427,116.088,120.888,126.95,129.455,131.96,134.135,140.277,146.109,150.908,153.41299999999998,155.649,159.897,162.813,167.613,173.274,178.074,180.579,182.754,188.796,193.045,197.844,203.966,206.471,208.707,214.538,219.548,225.671,228.176,230.351,235.361,237.86599999999999,240.101,244.35,249.961,256.003,261.013,264.913,269.713,272.218,274.453,283.301,288.1,292.349,298.18,300.685,302.847,308.311,314.326,319.118,324.943,327.852,333.676,339.24,341.745,343.981,349.445,352.774,355.279,357.455,362.495,365.0,367.175,376.016,384.856,387.354,389.859,392.095,400.445,403.353,406.613,412.437,414.942,417.178,422.218,424.723,426.898,433.034,438.598,441.506,446.299,450.25,452.755,454.99,463.831,468.624,472.865,478.69,481.195,483.37,489.195,495.23,504.07,509.604,514.397,518.348" svgx:width="0.83,0.5,0.42,0.25,0.55,0.42,0.29,0.48,0.56,0.48,0.61,0.25,0.25,0.55,0.61,0.58,0.48,0.25,0.55,0.42,0.29,0.48,0.56,0.48,0.25,0.55,0.6,0.42,0.48,0.61,0.25,0.55,0.58,0.5,0.61,0.25,0.55,0.5,0.25,0.55,0.42,0.56,0.6,0.5,0.4,0.48,0.25,0.55,0.88,0.48,0.42,0.58,0.25,0.55,0.55,0.6,0.48,0.58,0.29,0.58,0.56,0.25,0.55,0.55,0.33,0.25,0.55,0.5,0.25,0.55,0.88,0.88,0.25,0.25,0.55,0.83,0.29,0.33,0.58,0.25,0.55,0.5,0.25,0.55,0.61,0.56,0.29,0.48,0.4,0.25,0.55,0.88,0.48,0.42,0.58,0.25,0.55,0.58,0.6,0.88,0.55,0.48,0.4,0.25" style="fill:rgb(0,0,0);font-family:PalatinoLinotype;font-size:10.02px;stroke:none;">was sieved. The sieve used had a square mesh opening of 1 mm, with a Tyler mesh number </text>
   <text y="-63.808" x="76.107,79.452,88.308,93.115,97.372,103.211,106.389,109.268,112.208,118.048,122.855,126.155,128.675,134.154,137.454,139.974,144.954,149.994,152.454,155.798,160.055,164.862,169.603,172.123,178.253,183.061,186.299,191.279,194.203,197.083,201.339,203.859,206.783,212.543,215.063,220.642,223.522,229.101,235.151,239.117,243.857,246.377,251.357,255.739,259.083,261.543" svgx:width="0.33,0.88,0.48,0.42,0.58,0.32,0.29,0.29,0.58,0.48,0.33,0.25,0.55,0.33,0.25,0.5,0.5,0.25,0.33,0.42,0.48,0.48,0.25,0.61,0.48,0.33,0.5,0.29,0.29,0.42,0.25,0.29,0.58,0.25,0.56,0.29,0.56,0.6,0.4,0.48,0.25,0.5,0.44,0.33,0.25,0.25" style="fill:rgb(0,0,0);font-family:PalatinoLinotype;font-size:10.02px;stroke:none;">(mesh/line) of 16 (see details in Figure 4c). </text>
   <text y="-38.308" x="76.107,81.11,83.608,88.611,91.109,93.569,99.133,103.575,109.139,111.659,116.041,121.619,126.622,129.142,136.369,139.148,143.039,145.559,153.347,156.126,158.904,161.683,167.247,171.138,175.029,178.919" svgx:width="0.5,0.25,0.5,0.25,0.25,0.56,0.44,0.56,0.25,0.44,0.56,0.5,0.25,0.72,0.28,0.39,0.25,0.78,0.28,0.28,0.28,0.56,0.39,0.39,0.39,0.25" style="fill:rgb(0,0,0);font-family:PalatinoLinotype,Italic;font-size:10.02px;stroke:none;">3.3. Fan and Air Diffuser </text>
   <text y="-18.868" x="97.348,105.149,107.654,110.85,115.104,119.91,123.088,125.59299999999999,128.788,134.265,137.565,140.07,143.265,149.293,153.257,157.997,160.918,163.84,172.694,175.616,181.375,186.391,190.291,195.868,198.373,201.569,204.807,209.607,213.861,217.039,221.294,223.799,226.994,235.357,240.163,244.126,248.866,251.371,254.566,258.948,263.988,267.952,271.916,274.796,279.601,285.73,288.235,291.43,296.907,302.955,306.133,308.638,311.834,315.072,320.533,323.038,326.233,331.213,337.033,342.049,344.971,350.489,355.529,360.268,362.77299999999997,365.969,369.207,375.027,379.832,382.337,385.533,391.292,396.753,405.607,411.084,416.661,421.466,427.304,430.184,435.2,440.216,443.454,446.376,451.777,457.615,460.12,463.315,466.237,471.996,474.501,477.697,480.935,486.755,491.56,494.065,497.261,501.462,506.502,512.262,518.324" svgx:width="0.78,0.25,0.55,0.42,0.48,0.33,0.25,0.55,0.55,0.33,0.25,0.55,0.6,0.4,0.48,0.29,0.29,0.88,0.29,0.58,0.5,0.4,0.56,0.25,0.55,0.33,0.48,0.42,0.33,0.42,0.25,0.55,0.83,0.48,0.4,0.48,0.25,0.55,0.44,0.5,0.4,0.4,0.29,0.48,0.61,0.25,0.55,0.55,0.6,0.33,0.25,0.55,0.33,0.55,0.25,0.55,0.5,0.58,0.5,0.29,0.56,0.5,0.48,0.25,0.55,0.33,0.58,0.48,0.25,0.55,0.58,0.55,0.88,0.55,0.56,0.48,0.58,0.29,0.5,0.5,0.33,0.29,0.55,0.58,0.25,0.55,0.29,0.58,0.25,0.55,0.33,0.58,0.48,0.25,0.55,0.42,0.5,0.58,0.61,0.25" style="fill:rgb(0,0,0);font-family:PalatinoLinotype;font-size:10.02px;stroke:none;">A set of preliminary tests were carried out to analyze the homogenization in the sand </text>
   <text y="-5.368" x="76.107,82.213,85.153,89.386,92.636,96.578,99.518,104.976,111.036,114.286,117.226,122.681,128.497,131.137,136.131,139.071,144.526,150.341,155.896,158.597,161.847,167.663,172.447,175.087,179.319,183.752,188.792,191.732,196.516,202.622,205.322,213.663,216.603,222.418,228.524,231.225,234.475,240.501,246.317,252.133,256.916,259.856,262.556,268.663,274.689,279.472,282.173,285.423,290.878,293.578,296.829,302.607,307.348,310.048,315.057,317.972,321.929,325.265,328.179,333.649,341.93,344.63,349.078,353.035,357.774,362.814,366.08,370.879,376.94,379.64,385.18,390.75,393.451,396.716,402.547,407.345,409.986,413.321,418.33,424.09,426.79,432.831,437.079,441.877,447.999,450.503,453.203,460.997,466.757,469.457,474.256,479.355,484.364,493.126,499.147,502.061,506.86,509.56,515.03,518.366" svgx:width="0.61,0.29,0.42,0.33,0.4,0.29,0.55,0.6,0.33,0.29,0.55,0.58,0.25,0.5,0.29,0.55,0.58,0.56,0.25,0.33,0.58,0.48,0.25,0.42,0.44,0.5,0.29,0.48,0.61,0.25,0.83,0.29,0.58,0.61,0.25,0.33,0.6,0.58,0.58,0.48,0.29,0.25,0.61,0.6,0.48,0.25,0.33,0.55,0.25,0.33,0.58,0.48,0.25,0.5,0.29,0.4,0.33,0.29,0.55,0.83,0.25,0.44,0.4,0.48,0.5,0.33,0.48,0.61,0.25,0.55,0.56,0.25,0.33,0.58,0.48,0.25,0.33,0.5,0.58,0.25,0.6,0.42,0.48,0.61,0.25,0.25,0.78,0.58,0.25,0.48,0.52,0.5,0.88,0.6,0.29,0.48,0.25,0.55,0.33,0.25" style="fill:rgb(0,0,0);font-family:PalatinoLinotype;font-size:10.02px;stroke:none;">distribution along the scaled wind tunnel due to the airflow created by the fan used. An example of </text>
   <text y="8.132" x="76.107,79.371,85.199,89.996,92.516,96.471,101.267,105.513,111.552,114.465,117.728,121.974,124.494,129.962,135.42,138.683,143.69,146.603,152.432,157.228,163.347,165.867,170.249,175.289,181.118,183.638,189.176,193.972,196.432,200.678,205.474,210.271,216.1,218.62,221.532,227.361,229.821,235.389,238.302,243.87,249.909,253.809,258.608,261.128,266.135,271.142,273.644,276.164,284.518,290.347,295.143,299.067,303.867,306.387,311.397,313.857,317.123,321.081,325.881,331.712,337.835,340.355,345.826,349.162,351.682,355.931,360.941,366.772,372.833,375.353,380.363,384.812,389.261,395.303,404.065,410.125,413.041,418.051,421.317,424.233,429.634,435.453,437.973,440.889,445.138,447.658,453.129,458.67,462.918,467.658,471.616,477.277,482.076,488.199,490.659,496.129,501.961,504.481,507.748,513.579,518.379" svgx:width="0.33,0.58,0.48,0.25,0.4,0.48,0.42,0.6,0.29,0.33,0.42,0.25,0.55,0.55,0.33,0.5,0.29,0.58,0.48,0.61,0.25,0.44,0.5,0.58,0.25,0.55,0.48,0.25,0.42,0.48,0.48,0.58,0.25,0.29,0.58,0.25,0.56,0.29,0.56,0.6,0.4,0.48,0.25,0.5,0.5,0.25,0.25,0.83,0.58,0.48,0.4,0.48,0.25,0.5,0.25,0.33,0.4,0.48,0.58,0.61,0.25,0.55,0.33,0.25,0.42,0.5,0.58,0.61,0.25,0.5,0.44,0.44,0.6,0.88,0.6,0.29,0.5,0.33,0.29,0.55,0.58,0.25,0.29,0.42,0.25,0.55,0.55,0.42,0.48,0.4,0.56,0.48,0.61,0.25,0.55,0.58,0.25,0.33,0.58,0.48,0.25" style="fill:rgb(0,0,0);font-family:PalatinoLinotype;font-size:10.02px;stroke:none;">the results obtained can be seen in Figure 5a, where a trend of sand accumulation is observed on the </text>
   <text y="21.632" x="76.107,80.061,82.973,88.54,94.368,97.63,99.97,104.214,107.126,113.244,118.04,120.38,125.846,129.179,131.519,134.697,140.517,145.312,147.652,156.005,158.917,164.744,170.862,173.202,176.465,182.503,188.33,194.09,198.885,201.797,204.298,206.638,212.776,218.604,221.516,225.76,228.1,234.118,239.945,244.741,250.5,255.967,264.811,269.607,275.434,280.901,286.729,289.068,291.98,296.225,298.587,302.969,307.949,313.985,318.227,323.021,329.137,331.477,337.012,342.577,344.917,348.177,354.003,358.796,361.076,366.08,368.99,372.942,376.272,379.182,384.647,392.998,395.337,399.78,403.68,408.474,413.478,416.738,421.532,427.648,429.928,435.463,441.029,443.368,446.629,452.454,457.248,459.588,468.429,473.894,479.549,484.343,493.185,497.978,503.804,507.064,509.404,514.869,518.289" svgx:width="0.4,0.29,0.56,0.58,0.33,0.25,0.42,0.29,0.61,0.48,0.25,0.55,0.33,0.25,0.33,0.58,0.48,0.25,0.83,0.29,0.58,0.61,0.25,0.33,0.6,0.58,0.58,0.48,0.29,0.25,0.25,0.61,0.58,0.29,0.42,0.25,0.6,0.58,0.48,0.58,0.55,0.88,0.48,0.58,0.55,0.58,0.25,0.29,0.42,0.25,0.44,0.5,0.6,0.42,0.48,0.61,0.25,0.55,0.56,0.25,0.33,0.58,0.48,0.25,0.5,0.29,0.4,0.33,0.29,0.55,0.83,0.25,0.44,0.4,0.48,0.5,0.33,0.48,0.61,0.25,0.55,0.56,0.25,0.33,0.58,0.48,0.25,0.88,0.55,0.56,0.48,0.88,0.48,0.58,0.33,0.25,0.55,0.33,0.25" style="fill:rgb(0,0,0);font-family:PalatinoLinotype;font-size:10.02px;stroke:none;">right side of the wind tunnel. This phenomenon is caused by the airflow created by the movement of </text>
   <text y="35.132" x="76.107,79.353,85.163,89.942,92.822,98.342,101.236,106.276,112.398,117.176,121.404,123.888,126.767,135.103,140.914,143.853,148.295,154.106,156.925,159.865,165.625,168.505,171.444,174.683,178.91,181.79,186.569,192.379,196.807,202.257,208.278,214.089,217.334,222.113,226.049,228.929,237.265,240.205,243.45,249.261,252.08,255.326,261.136,265.915,268.795,277.13,282.119,285.059,287.939,292.166,295.046,300.496,303.808,306.687,309.942,315.762,320.549,323.429,329.439,333.385,338.844,342.098,347.557,350.812,356.371,362.381,367.168,369.988,374.425,378.371,383.158,388.156,391.411,396.198,400.435,403.254,408.252,411.132,415.368,424.204,429.202,432.106,435.01,437.889,441.144,447.174,451.12,456.649,462.679,465.583,470.37,476.19,480.627,485.366,488.186,493.645,499.464,502.344,507.745,513.504,518.244" svgx:width="0.33,0.58,0.48,0.25,0.55,0.29,0.5,0.61,0.48,0.42,0.25,0.25,0.83,0.58,0.29,0.44,0.58,0.25,0.29,0.58,0.25,0.29,0.33,0.42,0.25,0.48,0.58,0.44,0.55,0.6,0.58,0.33,0.48,0.4,0.25,0.83,0.29,0.33,0.58,0.25,0.33,0.58,0.48,0.25,0.83,0.5,0.29,0.29,0.42,0.25,0.55,0.33,0.25,0.33,0.58,0.48,0.25,0.6,0.4,0.55,0.33,0.55,0.33,0.56,0.6,0.48,0.25,0.44,0.4,0.48,0.5,0.33,0.48,0.42,0.25,0.5,0.25,0.42,0.88,0.5,0.29,0.29,0.25,0.33,0.6,0.4,0.55,0.6,0.29,0.48,0.58,0.44,0.48,0.25,0.55,0.58,0.25,0.55,0.58,0.48,0.25" style="fill:rgb(0,0,0);font-family:PalatinoLinotype;font-size:10.02px;stroke:none;">the blades, which in its encounter with the walls of the prototype creates a small turbulence on one </text>
   <text y="48.632" x="76.107,80.341,83.281,89.388,94.172,97.413,102.869,106.228,109.469,112.72,118.537,123.321,126.562,129.74,135.74,141.557,147.373,152.158,155.098,157.618,160.858,166.986,172.441,175.682,181.689,185.632,190.416,196.063,200.847,206.664,209.915,213.156,216.407,222.224,225.164,229.425,232.666,237.45,240.81,244.17,248.969,253.403,256.581,259.822,264.862,270.682,276.789,280.029,283.281,288.688,291.927,295.186,299.086,304.65,307.89,316.651,321.691,327.256,332.048,335.288,338.547,344.372,349.111,352.351,358.366,362.317,367.78,371.04,376.504,379.763,385.327,391.342,396.135,399.375,407.724,413.188,417.139,422.703,425.943,434.223,437.103,440.362,446.187,449.426,454.429,457.669,466.51,471.973,475.924,480.717,483.897,486.806,491.809,500.65,503.559,509.383,514.386,518.337" svgx:width="0.42,0.29,0.61,0.48,0.25,0.55,0.33,0.25,0.33,0.58,0.48,0.25,0.33,0.6,0.58,0.58,0.48,0.29,0.25,0.25,0.61,0.55,0.25,0.6,0.4,0.48,0.56,0.48,0.58,0.33,0.25,0.33,0.58,0.29,0.42,0.25,0.48,0.33,0.33,0.48,0.44,0.33,0.25,0.5,0.58,0.61,0.25,0.33,0.55,0.25,0.33,0.4,0.56,0.25,0.88,0.5,0.56,0.48,0.25,0.33,0.58,0.48,0.25,0.6,0.4,0.55,0.33,0.55,0.33,0.56,0.6,0.48,0.25,0.83,0.55,0.4,0.56,0.25,0.83,0.29,0.33,0.58,0.25,0.5,0.25,0.88,0.55,0.4,0.48,0.25,0.29,0.5,0.88,0.29,0.58,0.5,0.4,0.25" style="fill:rgb(0,0,0);font-family:PalatinoLinotype;font-size:10.02px;stroke:none;">side of the tunnel. To prevent this effect and to try make the prototype work with a more laminar </text>
   <text y="62.072" x="76.107,79.45,82.372,87.849,96.211,99.271,103.473,106.413,115.266,118.146,121.068,126.048,130.012,133.072,136.31,141.771,144.831,148.07,153.889,158.695,161.755,167.232,173.07,177.875,180.935,189.298,194.104,197.164,201.619,206.635,212.472,215.532,218.832,221.772,227.61,233.738,236.798,239.72,245.557,248.617,254.377,259.417,262.655,268.716,272.679,277.485,279.996,282.996,288.012,293.85,296.85,301.866,304.788,308.751,311.751,317.88,320.802,324.101,327.461,333.461,337.722,342.528,346.492,349.552,357.833,362.873,367.127,370.127,376.255,381.061,385.315,388.195,393.772,399.61,404.416,410.544,413.544,418.56,424.397,430.459,433.519,439.066,445.114,448.036,450.957,454.196,457.256,461.511,467.539,472.344,476.726,479.648,482.947,485.869,490.251,495.267,498.147,501.069,506.646,509.706,512.944,518.345" svgx:width="0.33,0.29,0.55,0.83,0.25,0.42,0.29,0.88,0.29,0.29,0.5,0.4,0.25,0.33,0.55,0.25,0.33,0.58,0.48,0.25,0.55,0.58,0.48,0.25,0.83,0.48,0.25,0.44,0.5,0.58,0.25,0.33,0.29,0.58,0.61,0.25,0.29,0.58,0.25,0.58,0.5,0.33,0.6,0.4,0.48,0.25,0.25,0.5,0.58,0.25,0.5,0.29,0.4,0.25,0.61,0.29,0.33,0.33,0.6,0.42,0.48,0.4,0.25,0.83,0.5,0.42,0.25,0.61,0.48,0.42,0.29,0.56,0.58,0.48,0.61,0.25,0.5,0.58,0.61,0.25,0.55,0.6,0.29,0.29,0.33,0.25,0.42,0.6,0.48,0.44,0.29,0.33,0.29,0.44,0.5,0.29,0.29,0.56,0.25,0.33,0.55,0.25" style="fill:rgb(0,0,0);font-family:PalatinoLinotype;font-size:10.02px;stroke:none;">flow similar to the one we can find in nature, an air diffuser was designed and built specifically to </text>
   <text y="75.572" x="76.107,80.554,86.384,91.392,97.221,103.051,107.849,110.762,113.282,118.29,124.05,130.17,132.69,135.604,140.612,149.458,152.371,158.131,163.171,166.436,171.233,173.753,177.018,182.847,187.645,190.105,195.113,198.027,201.982,205.317,208.231,213.7,222.055,224.575,229.372,234.54,240.561,245.3,248.214,251.128,255.868,261.988,264.508,270.047,275.616,278.136,281.401,287.231,292.028,294.488,297.823,302.831,308.59,311.05" svgx:width="0.44,0.58,0.5,0.58,0.58,0.48,0.29,0.25,0.5,0.58,0.61,0.25,0.29,0.5,0.88,0.29,0.58,0.5,0.33,0.48,0.25,0.33,0.58,0.48,0.25,0.5,0.29,0.4,0.33,0.29,0.55,0.83,0.25,0.48,0.52,0.6,0.48,0.29,0.29,0.48,0.61,0.25,0.55,0.56,0.25,0.33,0.58,0.48,0.25,0.33,0.5,0.58,0.25,0.25" style="fill:rgb(0,0,0);font-family:PalatinoLinotype;font-size:10.02px;stroke:none;">channel and laminate the airflow expelled by the fan. </text>
   <text y="356.071" x="470.007" svgx:width="0.25" style="fill:rgb(0,0,0);font-family:PalatinoLinotype;font-size:10.02px;stroke:none;"> </text>
   <text y="372.393" x="97.348,102.366,105.36,110.36,115.856,119.353,123.849,125.949,130.446,132.692" svgx:width="0.56,0.33,0.56,0.61,0.39,0.5,0.25,0.5,0.25,0.25" style="fill:rgb(0,0,0);font-family:PalatinoLinotype,Bold;font-size:9.0px;stroke:none;">Figure 5. </text>
   <text y="372.393" x="134.788" svgx:width="0.33" style="fill:rgb(0,0,0);font-family:PalatinoLinotype;font-size:9.0px;stroke:none;">(</text>
   <text y="372.393" x="137.788" svgx:width="0.5" style="fill:rgb(0,0,0);font-family:PalatinoLinotype,Bold;font-size:9.0px;stroke:none;">a</text>
   <text y="372.393" x="142.288,145.285,147.265,154.267,158.263,162.259,167.686,175.633,181.06,183.679,188.179,191.113,193.732,198.646,203.884,205.924,210.838,213.835,215.875,219.691,224.191,229.429,234.928,236.969,241.883,247.121,249.161,252.095,257.333,261.593,263.633,267.188,269.807,274.811,280.049,282.983,285.023,288.839,291.419,296.918,301.177,303.218,308.132,311.129,313.108,316.043,321.283,325.543,327.583,330.519,335.948,341.188,346.428,350.74,353.361,355.401,359.399,363.901,369.33,373.148,377.407,382.929,384.969,389.948,394.866,396.907,399.785,405.005,409.318,411.358,414.294,419.723,423.279,428.258,433.687,436.308,440.621,445.86,449.858,454.171,457.989,459.969,464.885,467.883,469.924,472.86,478.099,482.412,484.453,487.451,491.953,497.113" svgx:width="0.33,0.25,0.78,0.44,0.44,0.6,0.88,0.6,0.29,0.5,0.33,0.29,0.55,0.58,0.25,0.55,0.33,0.25,0.42,0.5,0.58,0.61,0.25,0.55,0.58,0.25,0.33,0.58,0.48,0.25,0.4,0.29,0.56,0.58,0.33,0.25,0.42,0.29,0.61,0.48,0.25,0.55,0.33,0.25,0.33,0.58,0.48,0.25,0.33,0.6,0.58,0.58,0.48,0.29,0.25,0.44,0.5,0.6,0.42,0.48,0.61,0.25,0.55,0.56,0.25,0.33,0.58,0.48,0.25,0.33,0.6,0.4,0.55,0.6,0.29,0.48,0.58,0.44,0.48,0.42,0.25,0.55,0.33,0.25,0.33,0.58,0.48,0.25,0.33,0.5,0.58,0.25" style="fill:rgb(0,0,0);font-family:PalatinoLinotype;font-size:9.0px;stroke:none;">) Accumulation of sand on the right side of the tunnel caused by the turbulences of the fan </text>
   <text y="385.413" x="97.348,102.328,104.949,109.452,114.954,119.267,123.086,125.126,130.106,134.42,137.42,142.336,145.894,150.208,152.248,155.126,160.346,164.66,166.7,169.322,174.563,178.381,182.695,186.253,189.189,191.811,196.728,201.969,204.009,208.926,211.925,213.905,216.842,222.083,226.396,228.437,233.938,236.56,239.56,242.559,247.989,251.808,256.122,259.679,261.932,263.972" svgx:width="0.55,0.29,0.5,0.61,0.48,0.42,0.25,0.55,0.48,0.33,0.55,0.4,0.48,0.25,0.33,0.58,0.48,0.25,0.29,0.58,0.42,0.48,0.4,0.33,0.29,0.55,0.58,0.25,0.55,0.33,0.25,0.33,0.58,0.48,0.25,0.61,0.29,0.33,0.33,0.6,0.42,0.48,0.4,0.25,0.25,0.33" style="fill:rgb(0,0,0);font-family:PalatinoLinotype;font-size:9.0px;stroke:none;">blades before the insertion of the diffuser; (</text>
   <text y="385.413" x="266.968" svgx:width="0.61" style="fill:rgb(0,0,0);font-family:PalatinoLinotype,Bold;font-size:9.0px;stroke:none;">b</text>
   <text y="385.413" x="272.429,275.429,277.47,282.477,286.036,290.953,296.195,299.133,301.173,306.261,308.884,313.199,320.708,322.749,327.666,330.667,332.647,335.584,340.826,345.141,347.181,352.683,355.306,358.307,361.307,366.738,370.557,374.849,378.413,380.453,383.081,388.328,390.368,393.246,398.466,402.786,404.827,407.833,410.461,415.708,420.217,422.845,424.885,429.394,433.176,437.001,441.321,449.243,454.221,456.849,461.827,464.086,466.127" svgx:width="0.33,0.25,0.56,0.4,0.55,0.58,0.33,0.25,0.56,0.29,0.48,0.83,0.25,0.55,0.33,0.25,0.33,0.58,0.48,0.25,0.61,0.29,0.33,0.33,0.6,0.42,0.48,0.4,0.25,0.29,0.58,0.25,0.33,0.58,0.48,0.25,0.33,0.29,0.58,0.5,0.29,0.25,0.5,0.42,0.42,0.48,0.88,0.55,0.29,0.56,0.25,0.25,0.33" style="fill:rgb(0,0,0);font-family:PalatinoLinotype;font-size:9.0px;stroke:none;">) Front view of the diffuser in the final assembly; (</text>
   <text y="385.413" x="469.108" svgx:width="0.44" style="fill:rgb(0,0,0);font-family:PalatinoLinotype,Bold;font-size:9.0px;stroke:none;">c</text>
   <text y="385.413" x="473.129,476.139,478.119,483.632,488.145,492.155,497.073" svgx:width="0.33,0.25,0.61,0.5,0.44,0.56,0.25" style="fill:rgb(0,0,0);font-family:PalatinoLinotype;font-size:9.0px;stroke:none;">) Back </text>
   <text y="398.433" x="97.349,102.444,105.073,109.394,116.91,119.189,124.113,127.053,129.333,132.277,137.525,141.846,144.066,149.575,152.204,155.211,158.151,163.588,167.414,171.735,175.3,177.579,182.998,185.627,190.137,194.143,198.403,203.924,206.204,208.833,213.992,216.272,219.15,224.37,228.691,230.971,233.915,239.352,244.6,249.848,254.168,256.797,259.057,261.337" svgx:width="0.56,0.29,0.48,0.83,0.25,0.55,0.33,0.25,0.33,0.58,0.48,0.25,0.61,0.29,0.33,0.33,0.6,0.42,0.48,0.4,0.25,0.6,0.29,0.5,0.44,0.48,0.61,0.25,0.29,0.58,0.25,0.33,0.58,0.48,0.25,0.33,0.6,0.58,0.58,0.48,0.29,0.25,0.25,0.33" style="fill:rgb(0,0,0);font-family:PalatinoLinotype;font-size:9.0px;stroke:none;">view of the diffuser placed in the tunnel; (</text>
   <text y="398.433" x="264.209" svgx:width="0.61" style="fill:rgb(0,0,0);font-family:PalatinoLinotype,Bold;font-size:9.0px;stroke:none;">d</text>
   <text y="398.433" x="269.729,272.669,274.949,280.388,283.011,287.514,292.756,295.694,297.973,303.062,305.685,309.999,317.439,319.719,324.637,327.637,329.858,332.795,338.037,342.351,344.631,348.451,352.45,356.954,359.577,363.891,369.352,371.632,379.142,381.764,387.006,392.467,394.747,397.625,403.025,408.267,413.508,417.823,420.445,422.699" svgx:width="0.33,0.25,0.6,0.29,0.5,0.58,0.33,0.25,0.56,0.29,0.48,0.83,0.25,0.55,0.33,0.25,0.33,0.58,0.48,0.25,0.42,0.44,0.5,0.29,0.48,0.61,0.25,0.83,0.29,0.58,0.61,0.25,0.33,0.6,0.58,0.58,0.48,0.29,0.25,0.25" style="fill:rgb(0,0,0);font-family:PalatinoLinotype;font-size:9.0px;stroke:none;">) Plant view of the scaled wind tunnel. </text>
  </g>
  <rect style="stroke:blue;stroke-width:0.3;" x="124.348" y="48.743" height="264.78" width="345.72" title="8"/>
  <text y="48.743" class="image" id="image.8.1" width="345" height="264" x="124.348">image.8.1.124_470.49_314</text>
  <rect style="stroke:blue;stroke-width:0.3;" x="124.348" y="48.743" height="264.78" width="345.72" title="8"/>
  <text y="48.743" class="image" id="image.8.2" width="345" height="264" x="124.348">image.8.2.124_470.49_314</text>
  <g begin="text">
   <text y="372.266" x="97.795,102.78,105.766,110.751,116.23,119.718,124.203,126.443,130.926" svgx:width="0.56,0.33,0.56,0.61,0.39,0.5,0.55,0.5,0.25" style="fill:rgb(0,0,0);font-family:URWPalladioL-Bold;font-size:8.97px;stroke:none;">Figure 5.</text>
   <text y="372.266" x="136.302" svgx:width="0.33" style="fill:rgb(0,0,0);font-family:URWPalladioL-Roma;font-size:8.97px;stroke:none;">(</text>
   <text y="372.266" x="139.252" svgx:width="0.5" style="fill:rgb(0,0,0);font-family:URWPalladioL-Bold;font-size:8.97px;stroke:none;">a</text>
   <text y="372.266" x="143.735,146.69510000000002,148.926,155.818,159.752,163.685,169.027,176.849,182.191,184.769,189.198,192.086,194.664,199.501,204.7036,206.889,211.726,214.6861,216.918,220.674,225.103,230.259,235.73069999999998,237.913,242.75,247.9526,250.138,253.026,258.182,262.48760000000004,264.667,268.166,270.744,275.669,280.825,283.7851,285.954,289.71,292.288,297.701,302.00660000000005,304.177,309.014,311.9741,314.205,317.093,322.249,326.55460000000005,328.733,331.621,336.963,342.119,347.275,351.518,354.11929999999995,356.337,360.262,364.691,370.033,373.789,378.033,383.5047,385.687,390.586,395.6092,397.752,400.64,405.796,410.1016,412.281,415.169,420.511,424.01,428.909,434.251,436.829,441.063,446.219,450.152,454.396,458.1634,460.393,465.23,468.19010000000003,470.421,473.309,478.465,482.7706,484.95,487.9,492.329" svgx:width="0.33,0.55,0.78,0.44,0.44,0.6,0.88,0.6,0.29,0.5,0.33,0.29,0.55,0.58,0.55,0.55,0.33,0.55,0.42,0.5,0.58,0.61,0.55,0.55,0.58,0.55,0.33,0.58,0.48,0.55,0.4,0.29,0.56,0.58,0.33,0.55,0.42,0.29,0.61,0.48,0.55,0.55,0.33,0.55,0.33,0.58,0.48,0.55,0.33,0.6,0.58,0.58,0.48,0.29,0.55,0.44,0.5,0.6,0.42,0.48,0.61,0.55,0.55,0.56,0.55,0.33,0.58,0.48,0.55,0.33,0.6,0.4,0.55,0.6,0.29,0.48,0.58,0.44,0.48,0.42,0.55,0.55,0.33,0.55,0.33,0.58,0.48,0.55,0.33,0.5,0.58" style="fill:rgb(0,0,0);font-family:URWPalladioL-Roma;font-size:8.97px;stroke:none;">) Accumulation of sand on the right side of the tunnel caused by the turbulences of the fan</text>
   <text y="385.088" x="97.795,102.743,105.348,109.822,115.289,119.576,123.34339999999999,125.607,130.555,134.842,137.822,142.707,146.081,150.3866,152.613,155.531,160.739,165.0446,167.262,169.866,175.074,178.868,183.154,186.689,189.606,192.21,197.096,202.2986,204.55,209.436,212.39610000000002,214.653,217.57,222.778,227.0836,229.302,234.769" svgx:width="0.55,0.29,0.5,0.61,0.48,0.42,0.55,0.55,0.48,0.33,0.55,0.4,0.48,0.55,0.33,0.58,0.48,0.55,0.29,0.58,0.42,0.48,0.4,0.33,0.29,0.55,0.58,0.55,0.55,0.33,0.55,0.33,0.58,0.48,0.55,0.61,0.29" style="fill:rgb(0,0,0);font-family:URWPalladioL-Roma;font-size:8.97px;stroke:none;">blades before the insertion of the di</text>
   <text y="385.088" x="237.376" svgx:width="0.61" style="fill:rgb(0,0,0);font-family:Rpxr;font-size:8.97px;stroke:none;">ﬀ</text>
   <text y="385.088" x="242.817,248.213,252.007,256.293,259.828,262.0705,264.302" svgx:width="0.6,0.42,0.48,0.4,0.25,0.55,0.33" style="fill:rgb(0,0,0);font-family:URWPalladioL-Roma;font-size:8.97px;stroke:none;">user; (</text>
   <text y="385.088" x="267.286" svgx:width="0.61" style="fill:rgb(0,0,0);font-family:URWPalladioL-Bold;font-size:8.97px;stroke:none;">b</text>
   <text y="385.088" x="272.764,275.7241,277.981,282.956,286.33,291.216,296.424,299.3841,301.587,306.643,309.247,313.533,320.97810000000004,323.233,328.119,331.07910000000004,333.345,336.262,341.47,345.77560000000005,347.994,353.461" svgx:width="0.33,0.55,0.56,0.4,0.55,0.58,0.33,0.55,0.56,0.29,0.48,0.83,0.55,0.55,0.33,0.55,0.33,0.58,0.48,0.55,0.61,0.29" style="fill:rgb(0,0,0);font-family:URWPalladioL-Roma;font-size:8.97px;stroke:none;">) Front view of the di</text>
   <text y="385.088" x="356.066" svgx:width="0.61" style="fill:rgb(0,0,0);font-family:Rpxr;font-size:8.97px;stroke:none;">ﬀ</text>
   <text y="385.088" x="361.506,366.902,370.696,374.982,378.57000000000005,380.754,383.358,388.5606,390.812,393.729,398.937,403.24260000000004,405.461,410.875,416.083,420.557,423.1583,425.407,429.881,433.675,437.47,441.756,449.657,454.606,457.21,462.185,464.4275,466.66" svgx:width="0.6,0.42,0.48,0.4,0.55,0.29,0.58,0.55,0.33,0.58,0.48,0.55,0.61,0.58,0.5,0.29,0.55,0.5,0.42,0.42,0.48,0.88,0.55,0.29,0.56,0.25,0.55,0.33" style="fill:rgb(0,0,0);font-family:URWPalladioL-Roma;font-size:8.97px;stroke:none;">user in the ﬁnal assembly; (</text>
   <text y="385.088" x="469.64" svgx:width="0.44" style="fill:rgb(0,0,0);font-family:URWPalladioL-Bold;font-size:8.97px;stroke:none;">c</text>
   <text y="385.088" x="473.621,476.5811,478.838,484.305,488.78,492.753" svgx:width="0.33,0.55,0.61,0.5,0.44,0.56" style="fill:rgb(0,0,0);font-family:URWPalladioL-Roma;font-size:8.97px;stroke:none;">) Back</text>
   <text y="397.91" x="97.544,102.61,105.219,109.514,116.95909999999999,119.234,124.129,127.0891,129.357,132.28,137.498,141.8036,144.035,149.513" svgx:width="0.56,0.29,0.48,0.83,0.55,0.55,0.33,0.55,0.33,0.58,0.48,0.55,0.61,0.29" style="fill:rgb(0,0,0);font-family:URWPalladioL-Roma;font-size:8.97px;stroke:none;">view of the di</text>
   <text y="397.91" x="152.122" svgx:width="0.61" style="fill:rgb(0,0,0);font-family:Rpxr;font-size:8.97px;stroke:none;">ﬀ</text>
   <text y="397.91" x="157.573,162.98,166.781,171.076,174.664,176.86,182.249,184.858,189.341,193.322,197.617,203.0887,205.337,207.946,213.1486,215.406,218.329,223.548,227.8536,230.084,233.007,238.414,243.633,248.851,253.146,255.755,257.9975,260.238" svgx:width="0.6,0.42,0.48,0.4,0.55,0.6,0.29,0.5,0.44,0.48,0.61,0.55,0.29,0.58,0.55,0.33,0.58,0.48,0.55,0.33,0.6,0.58,0.58,0.48,0.29,0.25,0.55,0.33" style="fill:rgb(0,0,0);font-family:URWPalladioL-Roma;font-size:8.97px;stroke:none;">user placed in the tunnel; (</text>
   <text y="397.91" x="263.223" svgx:width="0.61" style="fill:rgb(0,0,0);font-family:URWPalladioL-Bold;font-size:8.97px;stroke:none;">d</text>
   <text y="397.91" x="268.701,271.66110000000003,273.928,279.344,281.953,286.437,291.655,294.6151,296.82,301.886,304.495,308.79,316.23510000000005,318.509,323.405,326.3651,328.632,331.555,336.774,341.0796,343.31,347.112,351.093,355.576,358.186,362.481,367.9527,370.201,377.679,380.288,385.506,390.97769999999997,393.226,396.149,401.556,406.775,411.993,416.288,418.897" svgx:width="0.33,0.55,0.6,0.29,0.5,0.58,0.33,0.55,0.56,0.29,0.48,0.83,0.55,0.55,0.33,0.55,0.33,0.58,0.48,0.55,0.42,0.44,0.5,0.29,0.48,0.61,0.55,0.83,0.29,0.58,0.61,0.55,0.33,0.6,0.58,0.58,0.48,0.29,0.25" style="fill:rgb(0,0,0);font-family:URWPalladioL-Roma;font-size:8.97px;stroke:none;">) Plant view of the scaled wind tunnel.</text>
   <text y="418.992" x="76.535,81.516,84.007,88.988,91.478,94.966,102.159,106.214,110.637,116.176,120.052,123.369,126.139,130.2226,132.684,138.223,142.278,145.974,149.85,153.725,159.264,163.1484,165.631,170.612,174.487,178.363,181.68,185.556,190.537,193.02700000000002,196.515,203.16,205.929,210.353,214.228,218.104,220.873,224.928,229.351,232.1398,234.612,239.035,244.574,249.554,252.046,257.585,262.009,267.548,270.318,274.4016,276.863,283.508,287.383,292.365,296.24,299.558,303.981,306.7698,309.241,316.434,320.489,324.913,330.452,334.327,337.645,340.414,344.4976,346.96,352.499,356.554,360.25,364.125,368.001,373.54" svgx:width="0.5,0.25,0.5,0.25,0.55,0.72,0.41,0.44,0.56,0.39,0.33,0.28,0.41,0.55,0.56,0.41,0.39,0.39,0.39,0.56,0.39,0.55,0.61,0.39,0.39,0.33,0.39,0.5,0.25,0.55,0.67,0.28,0.44,0.39,0.39,0.28,0.41,0.44,0.28,0.55,0.44,0.56,0.5,0.55,0.56,0.44,0.56,0.28,0.41,0.55,0.67,0.39,0.5,0.39,0.33,0.44,0.28,0.55,0.72,0.41,0.44,0.56,0.39,0.33,0.28,0.41,0.55,0.56,0.41,0.39,0.39,0.39,0.56,0.39" style="fill:rgb(0,0,0);font-family:URWPalladioL-Ital;font-size:9.96px;stroke:none;">3.4. Acoustic Screens Tested: Classical and Sonic Crystal Acoustic Screens</text>
   <text y="438.479" x="97.795,103.78,109.462,113.143,117.82,122.60079999999999,124.986,132.582,138.547,142.687,145.17700000000002,147.637,152.968,158.65,163.4308,165.816,170.151,172.992,177.874,182.014,186.153,188.994,193.3764,195.829,200.71,206.393,212.4686,214.858,218.04,226.183,231.661,234.013,239.412,244.294,248.434,253.11,259.1856,261.575,266.906,272.6828,275.088,278.271,283.953,288.7338,291.119,295.259,300.59,306.272,309.113,313.4954,315.947,320.282,324.139,329.567,333.707,336.89,341.771,344.613,348.7962,351.252,354.434,359.111,363.446,369.128,374.811,380.141,382.982,388.313,393.742,398.067,400.557,403.007,411.15,415.826,419.497,424.2778,426.673,432.639,437.315,441.455,444.296,449.725,455.407,460.084,466.1596,468.548,473.43,479.112,485.18760000000003,487.577,492.976,498.864,501.705,504.546,507.8328,510.228,513.411" svgx:width="0.61,0.58,0.4,0.48,0.48,0.55,0.78,0.61,0.42,0.25,0.55,0.55,0.58,0.48,0.55,0.44,0.29,0.5,0.42,0.42,0.29,0.44,0.55,0.5,0.58,0.61,0.55,0.33,0.83,0.55,0.55,0.55,0.5,0.42,0.48,0.61,0.55,0.55,0.58,0.55,0.33,0.58,0.48,0.55,0.42,0.55,0.58,0.29,0.44,0.55,0.44,0.4,0.56,0.42,0.33,0.5,0.29,0.42,0.55,0.33,0.48,0.44,0.58,0.58,0.55,0.29,0.55,0.56,0.56,0.25,0.55,0.83,0.48,0.4,0.48,0.55,0.61,0.48,0.42,0.29,0.56,0.58,0.48,0.61,0.55,0.5,0.58,0.61,0.55,0.55,0.6,0.29,0.29,0.33,0.55,0.33,0.55" style="fill:rgb(0,0,0);font-family:URWPalladioL-Roma;font-size:9.96px;stroke:none;">Three ABs, one classic and two based on the sonic crystals technology, were designed and built to</text>
   <text y="451.988" x="76.535,80.958,85.94,89.875,93.81,99.3876,101.84,107.28,113.287,116.5738,119.025,122.273,128.072,130.971,135.1542,137.685,145.994,151.434,155.369,160.908" svgx:width="0.44,0.5,0.4,0.4,0.56,0.55,0.55,0.6,0.33,0.55,0.33,0.58,0.29,0.42,0.55,0.83,0.55,0.4,0.56,0.25" style="fill:rgb(0,0,0);font-family:URWPalladioL-Roma;font-size:9.96px;stroke:none;">carry out this work.</text>
   <text y="465.498" x="97.795,104.024,109.938,114.7188,119.064,123.576,126.533,131.614,135.922,140.231,143.188,147.7,152.781,155.6694,159.986,167.891,174.1,176.59,180.899,189.374,195.288,198.245,202.757,208.5338,212.929,218.548,224.1256,228.446,234.655,239.522,245.67,251.584,254.542,257.854,260.811,266.36,272.1368,276.532,279.489,283.6722,288.055,293.035,297.384,301.896,307.444,313.358,316.671,319.628,325.542,331.67,337.218,343.346,347.5292,351.912,360.387,365.468,368.425,371.382,373.872,378.618,383.13,388.678,394.592,398.901,401.858,406.166,409.479,414.347,420.4226,424.813,430.362,433.64880000000005,437.993,443.074,448.8508,453.246,462.859,470.725,476.30260000000004,480.622,486.73,491.811,497.725,502.592,505.4804,509.807,515.356" svgx:width="0.61,0.58,0.48,0.55,0.44,0.29,0.5,0.42,0.42,0.29,0.44,0.5,0.29,0.55,0.78,0.61,0.25,0.55,0.83,0.58,0.29,0.44,0.58,0.55,0.55,0.56,0.55,0.61,0.48,0.61,0.58,0.29,0.33,0.29,0.55,0.58,0.55,0.29,0.42,0.55,0.5,0.55,0.44,0.55,0.58,0.33,0.29,0.58,0.6,0.55,0.6,0.42,0.55,0.83,0.5,0.29,0.29,0.25,0.55,0.44,0.55,0.58,0.42,0.29,0.42,0.33,0.48,0.61,0.55,0.55,0.33,0.55,0.5,0.58,0.55,0.95,0.77,0.56,0.55,0.6,0.5,0.58,0.48,0.29,0.55,0.55,0.33" style="fill:rgb(0,0,0);font-family:URWPalladioL-Roma;font-size:9.96px;stroke:none;">The classical AB, which by deﬁnition is a continuous wall, consisted of an MDF panel of</text>
   <text y="479.007" x="76.535,81.541,86.547,89.051,94.031,96.55,100.995" svgx:width="0.5,0.5,0.25,0.5,0.55,0.44,0.88" style="fill:rgb(0,0,0);font-family:URWPalladioL-Roma;font-size:9.96px;stroke:none;">37.5 cm</text>
   <text y="479.007" x="112.335" svgx:width="0.67" style="fill:rgb(0,0,0);font-family:Pxsy;font-size:9.96px;stroke:none;">×</text>
   <text y="479.007" x="121.495,126.501,131.481,134.001,138.446" svgx:width="0.5,0.5,0.55,0.44,0.88" style="fill:rgb(0,0,0);font-family:URWPalladioL-Roma;font-size:9.96px;stroke:none;">52 cm</text>
   <text y="479.007" x="149.785" svgx:width="0.67" style="fill:rgb(0,0,0);font-family:Pxsy;font-size:9.96px;stroke:none;">×</text>
   <text y="479.007" x="158.946,163.926,166.445,170.891,182.235,187.241,193.068,199.14360000000002,201.679,210.029,215.036,219.2192,221.774,227.791,230.705,235.711,240.157,244.953,251.0286,253.563,256.477,262.25379999999996,264.797,269.042,275.08,279.525,285.30179999999996,287.856,292.836,295.355,303.705,308.712,314.2896,316.772,320.036,325.863,330.869,334.15580000000006,336.626,339.89,345.717,350.4978,353.017,356.281,360.235,365.242,371.069,375.314,380.971,385.767,389.722,393.967,398.973,401.8614,404.38,408.625,413.421,417.867,421.131,424.045,429.511,435.2878,437.832,443.298,446.58480000000003,449.126,452.39,458.217,462.9978,465.516,469.761,474.207,479.213,482.127,486.923,492.9986,495.533,503.884,506.797,512.624" svgx:width="0.5,0.55,0.44,0.88,0.5,0.58,0.61,0.55,0.83,0.5,0.42,0.55,0.6,0.29,0.5,0.44,0.48,0.61,0.55,0.29,0.58,0.55,0.42,0.6,0.44,0.58,0.55,0.5,0.55,0.83,0.5,0.56,0.55,0.33,0.58,0.5,0.33,0.55,0.33,0.58,0.48,0.55,0.33,0.4,0.5,0.58,0.42,0.56,0.48,0.4,0.42,0.5,0.29,0.55,0.42,0.48,0.44,0.33,0.29,0.55,0.58,0.55,0.55,0.33,0.55,0.33,0.58,0.48,0.55,0.42,0.44,0.5,0.29,0.48,0.61,0.55,0.83,0.29,0.58,0.61" style="fill:rgb(0,0,0);font-family:URWPalladioL-Roma;font-size:9.96px;stroke:none;">1 cmand was placed in such a way that the transversal section of the scaled wind</text>
   <text y="492.516" x="76.535,79.718,85.605,91.287,96.97,101.646,104.5344,106.938,115.081,119.962,124.1452,126.562,130.897,136.228,144.849,150.707,153.548,158.225,161.408,166.084,168.926,174.50359999999998,176.814,181.149,186.48,191.996,196.673,200.344,205.021,210.986,213.476,216.903,222.888,228.57,231.411,235.5942,238.001,243.43,246.271,251.953,258.0286,260.379,265.71,268.9968,271.411,279.007,285.0826,287.423,290.264,294.4472,296.855,302.742,306.882,312.769,317.651,320.492,323.333,328.91060000000004,331.222,337.187,341.864,346.003,348.844,354.273,359.955,364.632,370.7076,373.048,376.231,381.709,384.012,388.894,392.077,395.259,399.936,405.618,411.506,416.387,419.57,424.3508,426.697,432.38,437.711,440.552,444.691,449.4718,451.828,454.669,460.44579999999996,462.802,467.78200000000004,470.135,478.277,481.118,487.084,491.8648,494.211,498.067,502.949,508.631,514.06" svgx:width="0.33,0.6,0.58,0.58,0.48,0.29,0.55,0.83,0.5,0.42,0.55,0.44,0.55,0.88,0.6,0.29,0.48,0.33,0.48,0.29,0.56,0.55,0.44,0.55,0.56,0.48,0.4,0.48,0.61,0.25,0.55,0.61,0.58,0.29,0.42,0.55,0.56,0.29,0.58,0.61,0.55,0.55,0.33,0.55,0.78,0.61,0.55,0.29,0.42,0.55,0.6,0.42,0.6,0.5,0.29,0.29,0.56,0.55,0.61,0.48,0.42,0.29,0.56,0.58,0.48,0.61,0.55,0.33,0.55,0.55,0.5,0.33,0.33,0.48,0.58,0.6,0.5,0.33,0.48,0.55,0.58,0.55,0.29,0.42,0.48,0.55,0.29,0.58,0.55,0.5,0.55,0.83,0.29,0.61,0.48,0.55,0.4,0.5,0.58,0.56,0.48" style="fill:rgb(0,0,0);font-family:URWPalladioL-Roma;font-size:9.96px;stroke:none;">tunnel was completely covered. This kind of AB is usually designed to attenuate noise in a wide range</text>
   <text y="506.026" x="76.535,81.898,85.1848,87.665,90.936,94.639,99.344,104.845,110.769,115.474,121.191,125.552,128.411,133.116,137.2992,139.786,145.788,151.702,156.4828,158.912,162.114,167.592,169.973,172.831,176.033,180.2162,182.703,188.165,192.87,198.234,206.907,211.613,214.815,218.695,221.554,225.9364,228.41,232.772,238.489,243.4,247.28,252.192,256.554,259.756,264.461,268.341,271.2,275.365,278.567,281.426,285.787,289.952,292.442,294.903,299.815,303.9982,306.484,309.343,312.62980000000005,315.04,319.402,324.765,333.439,339.343,342.201,346.907,350.109,354.814,357.673,363.2506,365.639,370.001,375.364,380.914,385.62,389.5,393.6832,396.16,399.362,405.079,409.8598,412.279,415.138,417.997,423.714,428.4948,430.924,436.287,439.5738,442.053,446.218,449.077,454.539,460.256,463.5428,465.953,471.385,476.09,479.293,487.485,492.191,496.896,502.6728,505.118,508.32,514.037" svgx:width="0.55,0.33,0.55,0.33,0.4,0.48,0.56,0.6,0.48,0.58,0.44,0.29,0.48,0.42,0.55,0.61,0.6,0.48,0.55,0.33,0.55,0.55,0.29,0.33,0.42,0.55,0.56,0.48,0.55,0.88,0.48,0.33,0.4,0.29,0.44,0.55,0.44,0.58,0.5,0.4,0.5,0.44,0.33,0.48,0.4,0.29,0.42,0.33,0.29,0.44,0.42,0.25,0.55,0.5,0.42,0.55,0.29,0.33,0.55,0.44,0.55,0.88,0.6,0.29,0.48,0.33,0.48,0.29,0.56,0.55,0.44,0.55,0.56,0.48,0.4,0.42,0.55,0.33,0.58,0.48,0.55,0.29,0.29,0.58,0.48,0.55,0.55,0.33,0.55,0.42,0.29,0.56,0.58,0.33,0.55,0.55,0.48,0.33,0.83,0.48,0.48,0.58,0.55,0.33,0.58,0.48" style="fill:rgb(0,0,0);font-family:URWPalladioL-Roma;font-size:9.96px;stroke:none;">of frequencies due to its geometric characteristics, as it completely covers the line of sight between the</text>
   <text y="519.535" x="76.535,80.759,86.199,92.206,98.004,104.0796,106.582,110.806,116.246,122.253,126.009,130.433,135.2138,137.695,142.677,148.475,154.5506,157.053,160.301,166.099,170.8798,173.361,177.117,181.889,186.313,191.085,193.984,199.613,204.385,207.583,210.073,212.564,217.546,223.174,228.614,231.513,237.6,240.499,246.298,251.8756,254.328,257.575,263.374,268.1548,270.636,273.884,277.819,282.801,288.599,292.823,301.62,304.519,308.743,312.967,315.867,321.306,327.08279999999996,329.595,335.035,338.32180000000005,340.843,346.641,352.081,354.98,359.204,363.976" svgx:width="0.42,0.55,0.6,0.58,0.61,0.55,0.42,0.55,0.6,0.4,0.44,0.48,0.55,0.5,0.58,0.61,0.55,0.33,0.58,0.48,0.55,0.4,0.48,0.44,0.48,0.29,0.56,0.48,0.4,0.25,0.55,0.5,0.56,0.55,0.29,0.61,0.29,0.58,0.56,0.55,0.33,0.58,0.48,0.55,0.33,0.4,0.5,0.58,0.42,0.88,0.29,0.42,0.42,0.29,0.55,0.58,0.55,0.55,0.33,0.55,0.58,0.55,0.29,0.42,0.48,0.25" style="fill:rgb(0,0,0);font-family:URWPalladioL-Roma;font-size:9.96px;stroke:none;">sound source and the receiver, avoiding the transmission of noise.</text>
   <text y="533.045" x="97.795,105.594,111.37079999999999,113.87,117.105,122.88,127.6608,130.133,135.551,138.786,144.561,149.314,153.298,155.734,161.509,166.47,172.245,178.308,180.798,183.299,188.261,194.036,200.1116,202.599,207.56,211.7432,214.268,220.232,223.973,228.726,234.332,237.22,242.637,248.621,252.828,255.716,261.2936,263.733,268.486,273.606,279.57,282.457,287.419,290.306,296.081,300.834,306.9096,309.398,312.285,318.0618,320.561,323.795,329.571,334.3518,336.824,339.712,345.487,348.721,352.462,357.88,363.943,369.926,374.332,377.567,380.454,385.872,391.6488,394.148,398.355,403.108,407.514,410.748,413.636,419.054,424.829,427.319,429.82,434.027,439.445,445.22,448.108,452.4904,455.014,459.42,463.339,468.856,473.063,476.298,481.26,484.147,488.3302,490.855,495.26,500.222,505.99879999999996,508.497,513.985" svgx:width="0.79,0.58,0.55,0.33,0.58,0.48,0.55,0.55,0.33,0.58,0.48,0.4,0.55,0.58,0.5,0.58,0.61,0.25,0.55,0.5,0.58,0.61,0.55,0.5,0.42,0.55,0.6,0.4,0.48,0.56,0.29,0.55,0.6,0.42,0.29,0.56,0.55,0.48,0.52,0.6,0.29,0.5,0.29,0.58,0.48,0.61,0.55,0.29,0.58,0.55,0.33,0.58,0.48,0.55,0.29,0.58,0.33,0.4,0.55,0.61,0.6,0.44,0.33,0.29,0.55,0.58,0.55,0.42,0.48,0.44,0.33,0.29,0.55,0.58,0.25,0.55,0.42,0.55,0.58,0.29,0.44,0.55,0.44,0.4,0.56,0.42,0.33,0.5,0.29,0.42,0.55,0.44,0.5,0.58,0.55,0.55,0.48" style="fill:rgb(0,0,0);font-family:URWPalladioL-Roma;font-size:9.96px;stroke:none;">On the other hand, and as previously explained in the introduction section, sonic crystals can be</text>
   <text y="546.554" x="76.535,82.713,87.557,93.675,99.56,104.404,110.47959999999999,113.07,118.126,122.3092,124.901,129.881,132.434,138.32,143.163,146.46,151.303,155.126,160.647,166.269,171.113,176.998,181.842,187.363,193.461,197.6442,200.226,209.154,214.21,217.507,222.351,226.345,229.288,234.344,237.23239999999998,239.774,243.141,248.662,252.656,261.585,266.429,272.5046,275.095,280.687,286.26460000000003,288.797,293.853,297.847,301.841,306.897,312.52,316.7032,319.295,324.816,328.1028,330.661,335.717,340.206,345.728,351.825,356.113,359.409,362.352,366.7344,369.329,373.617,378.106,383.162,386.459,389.756,394.599,398.411,403.255,407.249,411.4322,414.024,418.868,427.797,433.389,438.233,444.411,450.59,455.433,461.5086,464.099,467.042,472.81879999999995,475.415,480.471,483.413,486.669,489.159,492.686,498.885,504.77,509.613,513.901" svgx:width="0.61,0.48,0.61,0.58,0.48,0.61,0.55,0.5,0.42,0.55,0.5,0.55,0.58,0.48,0.33,0.48,0.4,0.55,0.56,0.48,0.58,0.48,0.55,0.6,0.42,0.55,0.88,0.5,0.33,0.48,0.4,0.29,0.5,0.29,0.55,0.33,0.55,0.4,0.88,0.48,0.61,0.55,0.55,0.56,0.55,0.5,0.4,0.4,0.5,0.56,0.42,0.55,0.55,0.33,0.55,0.5,0.44,0.55,0.6,0.42,0.33,0.29,0.44,0.55,0.42,0.44,0.5,0.33,0.33,0.48,0.4,0.48,0.4,0.42,0.55,0.48,0.88,0.55,0.48,0.61,0.61,0.48,0.61,0.55,0.29,0.58,0.55,0.5,0.29,0.4,0.25,0.55,0.61,0.58,0.48,0.42,0.48" style="fill:rgb(0,0,0);font-family:URWPalladioL-Roma;font-size:9.96px;stroke:none;">deﬁned as a heterogeneous material formed by arrays of acoustic scatterers embedded in air. These</text>
   <text y="560.063" x="76.535,85.288,90.244,93.476,98.224,102.14,105.024,109.981,112.865,117.0482,119.547,125.504,129.241,133.99,138.193,142.941,148.71,151.9968,154.42,158.623,163.371,168.972,173.72,177.636,182.592,185.4804,187.955,193.912,197.649,203.062,209.019,213.768,217.683,220.915,223.799,228.548,232.7312,235.229,238.966,243.714,246.599,251.555,254.787,259.535,265.61060000000003,268.07,271.301,276.779,279.192,282.424,288.193,292.9738,295.419,299.821,305.223,310.992,314.224,317.961,323.373,326.2614,328.736,334.149,337.43580000000003,339.928,344.884,349.285,354.698,360.675,364.878,368.11,370.994,375.37640000000005,377.874,386.141,391.098,396.698,401.447,405.6302,408.128" svgx:width="0.88,0.5,0.33,0.48,0.4,0.29,0.5,0.29,0.42,0.55,0.6,0.4,0.48,0.42,0.48,0.58,0.33,0.55,0.42,0.48,0.56,0.48,0.4,0.5,0.29,0.55,0.6,0.4,0.55,0.6,0.48,0.4,0.33,0.29,0.48,0.42,0.55,0.4,0.48,0.29,0.5,0.33,0.48,0.61,0.55,0.33,0.55,0.55,0.33,0.58,0.48,0.55,0.44,0.55,0.58,0.33,0.4,0.55,0.29,0.55,0.55,0.33,0.55,0.5,0.44,0.55,0.6,0.42,0.33,0.29,0.44,0.55,0.83,0.5,0.56,0.48,0.42,0.55,0.33" style="fill:rgb(0,0,0);font-family:URWPalladioL-Roma;font-size:9.96px;stroke:none;">materials present several properties related to the control of acoustic waves [</text>
   <text y="560.063" x="411.432,416.413" svgx:width="0.5,0.5" style="fill:rgb(8,117,183);font-family:URWPalladioL-Roma;font-size:9.96px;stroke:none;">40</text>
   <text y="560.063" x="421.395" svgx:width="0.5" style="fill:rgb(0,0,0);font-family:URWPalladioL-Roma;font-size:9.96px;stroke:none;">–</text>
   <text y="560.063" x="426.351,431.332" svgx:width="0.5,0.5" style="fill:rgb(8,117,183);font-family:URWPalladioL-Roma;font-size:9.96px;stroke:none;">42</text>
   <text y="560.063" x="436.314,439.615,442.105,444.571,450.053,456.031,459.31780000000003,461.74,464.972,470.741,475.5218,477.968,486.721,491.677,494.562,500.3388,502.809,508.221,513.991" svgx:width="0.33,0.25,0.55,0.55,0.6,0.33,0.55,0.33,0.58,0.48,0.55,0.88,0.5,0.29,0.58,0.55,0.55,0.58,0.48" style="fill:rgb(0,0,0);font-family:URWPalladioL-Roma;font-size:9.96px;stroke:none;">], but the main one</text>
   <text y="573.573" x="76.535,80.216,84.892,87.734,92.615,95.798,100.475,106.55059999999999,108.774,111.956,117.434,119.621,125.303,130.634,133.475,137.615,142.3958,144.634,149.516,152.699,155.882,160.558,166.241,172.128,177.01,180.192,183.034,188.364,194.1408,196.38,201.262,206.944,213.0196,215.253,221.14,225.28,229.956,236.0316,238.255,241.096,246.8728,249.112,252.295,257.977,262.7578,264.997,270.962,275.639,279.779,282.62,288.048,293.8248,296.064,301.395,304.6818,306.979,314.575,320.541,324.7242,327.023,329.865,334.0482,336.338,339.52,345.203,349.9838,352.223,356.899,361.937,364.778,368.918,372.101,376.777,382.46,386.795,391.5758,393.805,399.135,402.4218,404.72,410.119,415.001,420.683,426.649,432.077,436.959,442.826,447.0092,449.309,452.15,457.92679999999996,460.166,463.349,469.031,473.8118,476.051,479.302,482.973,487.65,493.117,499.005,503.681,509.364,513.699" svgx:width="0.4,0.48,0.29,0.5,0.33,0.48,0.61,0.55,0.33,0.55,0.55,0.58,0.55,0.29,0.42,0.48,0.55,0.5,0.33,0.33,0.48,0.58,0.6,0.5,0.33,0.29,0.55,0.58,0.55,0.5,0.58,0.61,0.55,0.6,0.42,0.48,0.61,0.55,0.29,0.58,0.55,0.33,0.58,0.48,0.55,0.61,0.48,0.42,0.29,0.56,0.58,0.55,0.55,0.33,0.55,0.78,0.61,0.42,0.55,0.29,0.42,0.55,0.33,0.58,0.48,0.55,0.48,0.52,0.29,0.42,0.33,0.48,0.58,0.44,0.48,0.55,0.55,0.33,0.55,0.55,0.5,0.58,0.61,0.56,0.5,0.6,0.42,0.55,0.29,0.58,0.55,0.33,0.58,0.48,0.55,0.33,0.4,0.48,0.56,0.6,0.48,0.58,0.44,0.56" style="fill:rgb(0,0,0);font-family:URWPalladioL-Roma;font-size:9.96px;stroke:none;">related to noise attenuation and used in the design of ABs is the existence of bandgaps in the frequency</text>
   <text y="587.082" x="76.535,82.683,88.177,97.062,102.093,105.021,110.877,113.36699999999999,116.874,123.022,128.054,133.91,140.058,145.652,150.684,156.731,160.9142,163.473,168.504,172.297,177.0778,179.582,182.933,186.737,191.556,197.191,203.259,208.078,213.935,218.402,223.97959999999998,226.462,230.437,235.468,241.324,246.919,251.738,255.9212,258.48,266.872,272.728,277.548,281.342,286.1228,288.637,293.668,298.135,303.629,309.697,313.963,317.244,320.172,324.55440000000004,327.115,335.507,340.538,346.223,351.043,355.2262,357.774,362.242,367.273,373.129,378.985,384.479,387.7658,390.235,395.799,400.5798,403.094,406.375,410.349,415.38,421.237,425.503,434.388,437.316,440.596,443.877,448.696,454.77160000000003,457.31,460.59,466.446,470.24,475.734,481.801,487.396,493.1728,495.727,499.994,505.488,511.344,514.272" svgx:width="0.61,0.55,0.88,0.5,0.29,0.58,0.25,0.55,0.61,0.5,0.58,0.61,0.56,0.5,0.6,0.42,0.55,0.5,0.4,0.48,0.55,0.33,0.4,0.48,0.56,0.6,0.48,0.58,0.44,0.56,0.55,0.4,0.5,0.58,0.56,0.48,0.42,0.55,0.83,0.58,0.48,0.4,0.48,0.55,0.5,0.44,0.55,0.6,0.42,0.33,0.29,0.44,0.55,0.83,0.5,0.56,0.48,0.42,0.55,0.44,0.5,0.58,0.58,0.55,0.33,0.55,0.55,0.48,0.55,0.33,0.4,0.5,0.58,0.42,0.88,0.29,0.33,0.33,0.48,0.61,0.55,0.33,0.58,0.4,0.55,0.6,0.56,0.58,0.55,0.42,0.55,0.58,0.29,0.44" style="fill:rgb(0,0,0);font-family:URWPalladioL-Roma;font-size:9.96px;stroke:none;">domain. Bandgaps are frequency ranges where acoustic waves cannot be transmitted through sonic</text>
   <text y="600.592" x="76.535,81.047,85.061,90.711,95.019,98.332,103.413,106.37,110.679,113.169,116.237,121.318,127.232,133.3076,136.358,139.671,145.585,150.452,153.409,157.393,160.34,165.207,170.451,173.408,177.717,181.029,185.897,191.811,196.323,201.1038,204.097,207.054,211.2372,214.279,220.488,226.615,231.3958,234.399,237.712,243.19,246.167,252.376,256.39,261.471,267.121,272.771,275.595,279.7782,282.821,285.778,290.859,299.12579999999997,302.25" svgx:width="0.44,0.4,0.56,0.42,0.33,0.5,0.29,0.42,0.25,0.55,0.5,0.58,0.61,0.55,0.33,0.58,0.48,0.29,0.4,0.55,0.48,0.52,0.29,0.42,0.33,0.48,0.58,0.44,0.48,0.55,0.29,0.42,0.55,0.61,0.6,0.48,0.55,0.33,0.55,0.55,0.61,0.4,0.5,0.56,0.56,0.28,0.42,0.55,0.29,0.5,0.83,0.55,0.33" style="fill:rgb(0,0,0);font-family:URWPalladioL-Roma;font-size:9.96px;stroke:none;">crystals, and their existence is due to Bragg’s law [</text>
   <text y="600.592" x="305.633,310.614" svgx:width="0.5,0.5" style="fill:rgb(8,117,183);font-family:URWPalladioL-Roma;font-size:9.96px;stroke:none;">43</text>
   <text y="600.592" x="315.596" svgx:width="0.25" style="fill:rgb(0,0,0);font-family:URWPalladioL-Roma;font-size:9.96px;stroke:none;">,</text>
   <text y="600.592" x="318.136,323.117" svgx:width="0.5,0.5" style="fill:rgb(8,117,183);font-family:URWPalladioL-Roma;font-size:9.96px;stroke:none;">44</text>
   <text y="600.592" x="328.099,331.483,333.973,338.779,345.008,350.923,355.79,358.747,362.731,365.677,369.986,372.943,378.024,382.8048,385.808,390.889,396.803,402.8786,405.918,412.026,417.574,421.883,424.84,428.153,431.11,436.658,442.4348,445.489,448.446,454.2228,457.276,460.589,466.503,471.2838,474.277,477.661,481.502,486.37,492.06,498.188,503.055,508.97,513.482" svgx:width="0.33,0.25,0.55,0.61,0.58,0.48,0.29,0.4,0.55,0.42,0.29,0.5,0.48,0.55,0.5,0.58,0.61,0.55,0.6,0.55,0.42,0.29,0.33,0.29,0.55,0.58,0.55,0.29,0.58,0.55,0.33,0.58,0.48,0.55,0.33,0.4,0.48,0.56,0.6,0.48,0.58,0.44,0.56" style="fill:rgb(0,0,0);font-family:URWPalladioL-Roma;font-size:9.96px;stroke:none;">]. Their size and position in the frequency</text>
   <text y="614.101" x="76.535,82.671,88.154,97.021,102.042,104.965,110.7418,113.29,119.426,124.236,130.271,135.082,140.926,147.062,151.2452,153.811,159.294,165.07080000000002,167.619,170.892,176.737,181.5178,184.028,189.611,194.422,199.905,208.772,213.582,216.856,220.823,223.745,228.1274,230.684,236.72,241.741,245.708,250.729,259.596,264.406,267.68,272.49,276.457,280.6402,283.206,288.689,291.97580000000005,294.513,297.787,303.632,308.4128,310.922,315.18,320.663,326.508,329.43,333.8124,336.369,340.828,344.795,350.378,354.636,357.91,362.931,365.854,370.112,372.60200000000003,375.113,379.371,385.426,389.885,395.66179999999997,398.21,403.231,407.4142,409.969,413.314,416.236,419.5228,422.07,425.344,431.189,435.9698,438.479,444.063,446.985,452.83,458.9056,461.446,466.929,470.2158,472.754,477.213,481.179,486.763,491.021,494.295,499.316,502.238,505.16,508.083,513.927" svgx:width="0.61,0.55,0.88,0.5,0.29,0.58,0.55,0.61,0.48,0.6,0.48,0.58,0.61,0.42,0.55,0.55,0.58,0.55,0.33,0.58,0.48,0.55,0.56,0.48,0.55,0.88,0.48,0.33,0.4,0.29,0.44,0.55,0.6,0.5,0.4,0.5,0.88,0.48,0.33,0.48,0.4,0.42,0.55,0.55,0.33,0.55,0.33,0.58,0.48,0.55,0.42,0.55,0.58,0.29,0.44,0.55,0.44,0.4,0.56,0.42,0.33,0.5,0.29,0.42,0.25,0.55,0.42,0.6,0.44,0.58,0.55,0.5,0.42,0.55,0.33,0.29,0.33,0.55,0.33,0.58,0.48,0.55,0.56,0.29,0.58,0.61,0.55,0.55,0.33,0.55,0.44,0.4,0.56,0.42,0.33,0.5,0.29,0.29,0.29,0.58,0.48" style="fill:rgb(0,0,0);font-family:URWPalladioL-Roma;font-size:9.96px;stroke:none;">domain depends on the geometric parameters of the sonic crystals, such as (i) the kind of crystalline</text>
   <text y="627.61" x="76.535,81.616,85.63,89.644,94.725,100.3026,103.22,106.177,111.9538,114.937,123.412,129.326,132.283,136.795,142.5718,145.564,148.877,154.791,159.5718,162.504,166.813,171.325,176.406,179.718,183.031,187.899,191.73,196.597,200.611,204.7942,207.765,212.846,216.687,221.4678,224.4,229.481,233.495,237.509,242.59,248.504,254.154,259.022,265.23,267.72,270.708,274.092,277.049,280.006,283.2928,286.235,289.548,295.462,300.2428,303.175,309.384,312.341,316.649,319.962,325.043,330.957,335.469,340.2498,343.182,348.801,353.669,356.982,365.457,370.324,375.192,380.9688,383.951,387.264,393.178,398.046,406.8108,409.874,413.258,418.908,423.776,429.69,434.557,438.571,443.652,446.609,449.566,455.1436,458.062,463.712,469.626,475.174,483.649,489.4258,492.409,497.49,501.6732,504.644,507.956,513.87" svgx:width="0.5,0.4,0.4,0.5,0.56,0.55,0.29,0.58,0.55,0.83,0.58,0.29,0.44,0.58,0.55,0.33,0.58,0.48,0.55,0.42,0.44,0.5,0.33,0.33,0.48,0.4,0.48,0.4,0.42,0.55,0.5,0.4,0.48,0.55,0.5,0.4,0.4,0.5,0.58,0.56,0.48,0.61,0.25,0.55,0.33,0.29,0.29,0.33,0.55,0.33,0.58,0.48,0.55,0.61,0.29,0.42,0.33,0.5,0.58,0.44,0.48,0.55,0.55,0.48,0.33,0.83,0.48,0.48,0.58,0.55,0.33,0.58,0.48,0.88,0.55,0.33,0.56,0.48,0.58,0.48,0.4,0.5,0.29,0.29,0.56,0.55,0.56,0.58,0.55,0.83,0.58,0.55,0.5,0.42,0.55,0.33,0.58,0.48" style="fill:rgb(0,0,0);font-family:URWPalladioL-Roma;font-size:9.96px;stroke:none;">array in which the scatterers are arranged, (ii) the distance between them (generally known as the</text>
   <text y="641.12" x="76.535,79.492,84.573,87.886,91.199,94.156,98.668,103.4488,106.858,111.37,116.918,122.832,127.141,130.454,135.535,141.449,144.762,148.146,150.636,154.212,159.761,163.745,167.087,170.471,173.428,176.385,179.342,182.6288,186.049,189.362,195.276,200.0568,203.467,207.775,213.903,217.917,221.301,226.382,230.894,235.6748,239.084,244.165,247.996,252.863,257.843,261.267,266.816,270.1028,273.512,276.825,282.739,287.5198,290.93,295.238,299.75,304.831,308.144,311.457,316.324,320.155,325.023,329.037,333.2202,336.668,342.776,347.643,351.62699999999995,354.98,359.289,365.416,369.43,372.814,377.895,382.407,387.1878,390.587,396.715,402.629,405.586,408.87280000000004,412.222,417.77,421.0568,424.477,427.79,433.704,438.4848,441.894,446.406,450.42,456.07,460.379,463.692,468.772,471.73,474.687,477.644,483.558,488.3388,491.738,494.695,499.776,503.089,506.402,509.359,513.871" svgx:width="0.29,0.5,0.33,0.33,0.29,0.44,0.48,0.55,0.44,0.55,0.58,0.42,0.33,0.5,0.58,0.33,0.33,0.25,0.55,0.55,0.4,0.55,0.33,0.29,0.29,0.29,0.33,0.55,0.33,0.58,0.48,0.55,0.42,0.6,0.4,0.33,0.5,0.44,0.48,0.55,0.5,0.4,0.48,0.5,0.55,0.55,0.33,0.55,0.33,0.58,0.48,0.55,0.42,0.44,0.5,0.33,0.33,0.48,0.4,0.48,0.4,0.42,0.55,0.6,0.48,0.4,0.55,0.42,0.6,0.4,0.33,0.5,0.44,0.48,0.55,0.6,0.58,0.29,0.33,0.55,0.55,0.33,0.55,0.33,0.58,0.48,0.55,0.44,0.4,0.56,0.42,0.33,0.5,0.29,0.29,0.29,0.58,0.48,0.55,0.29,0.5,0.33,0.33,0.29,0.44,0.48" style="fill:rgb(0,0,0);font-family:URWPalladioL-Roma;font-size:9.96px;stroke:none;">lattice constant), or (iii) the surface area of the scatterers per surface unit of the crystalline lattice</text>
   <text y="654.629" x="76.207,79.574,84.064,89.12,92.063,95.005,99.849,105.9246,108.515,114.633,117.575,120.518,123.461,129.346,134.9236,137.466,140.833,145.889,150.379,153.675,159.197,163.191,166.558,169.048,172.575,178.773,184.659,187.601,191.7842,194.376,197.744,202.8,207.289,210.5758,213.084,216.026,224.955,231.032,233.975,236.918,241.761,245.9442,248.536,251.833,257.718,262.774,266.071,268.56100000000004,271.096,279.53,285.415,288.358,291.3,296.0808,298.631,303.121,306.064,311.12,315.407,319.695,322.637,327.127,332.183,335.0714,337.623,345.491,351.669,355.8522,358.444,366.878,372.399,376.393,381.9706,384.503,387.799,393.277,395.818,400.874,404.171,407.467,412.311,418.196,424.294,429.35,432.646,437.4268,439.978,444.958,447.531,455.965,458.907,465.086,469.8668,472.417,478.494,483.55,487.545,490.83180000000004,493.339,498.86,502.14680000000004,504.715,508.011,513.897" svgx:width="0.33,0.44,0.5,0.29,0.29,0.48,0.61,0.55,0.61,0.29,0.29,0.29,0.58,0.56,0.55,0.33,0.5,0.44,0.33,0.55,0.4,0.33,0.25,0.55,0.61,0.58,0.29,0.42,0.55,0.33,0.5,0.44,0.33,0.55,0.29,0.88,0.6,0.29,0.29,0.48,0.42,0.55,0.33,0.58,0.5,0.33,0.25,0.55,0.83,0.58,0.29,0.29,0.48,0.55,0.44,0.29,0.5,0.42,0.42,0.29,0.44,0.5,0.29,0.55,0.78,0.61,0.42,0.55,0.83,0.55,0.4,0.56,0.55,0.33,0.55,0.55,0.5,0.33,0.33,0.48,0.58,0.6,0.5,0.33,0.48,0.55,0.5,0.55,0.83,0.29,0.61,0.48,0.55,0.6,0.5,0.4,0.33,0.55,0.55,0.33,0.55,0.33,0.58,0.48" style="fill:rgb(0,0,0);font-family:URWPalladioL-Roma;font-size:9.96px;stroke:none;">(called ﬁlling factor). This fact implies that, while classical ABs work to attenuate a wide part of the</text>
   <text y="668.138" x="76.535,79.919,83.75,88.617,94.308,100.436,105.303,111.217,115.729,121.3066,124.286,128.594,134.701,139.569,144.081,147.394,151.326,157.454,166.427,168.917,171.985,177.32,184.525,192.431,197.766,201.9492,204.981,210.062,214.574,217.8608,220.793,225.874,230.0572,233.089,238.069,241.076,247.224,250.181,253.493,258.361,261.633,264.123,267.181,272.262,275.575,278.888,283.755,289.67,295.797,300.878,304.191,307.148,313.062,318.63960000000003,321.619,326.59900000000005,329.606,333.914,340.022,344.889,349.401,352.358,358.506,362.8884,365.924,371.005,376.919,382.9946,386.034,388.992,391.949,400.922,403.879,407.191,412.059,418.13460000000003,421.174,424.558,428.389,433.257,438.947,445.075,449.942,455.857,460.368,465.9456,468.925,472.939,478.02,483.934,489.584,494.451,496.94100000000003,501.727,507.956,513.871" svgx:width="0.33,0.4,0.48,0.56,0.6,0.48,0.58,0.44,0.56,0.55,0.42,0.6,0.48,0.44,0.33,0.4,0.6,0.88,0.25,0.55,0.52,0.71,0.78,0.52,0.42,0.55,0.5,0.44,0.33,0.55,0.5,0.42,0.55,0.5,0.55,0.61,0.29,0.33,0.48,0.4,0.25,0.55,0.5,0.33,0.33,0.48,0.58,0.6,0.5,0.33,0.29,0.58,0.56,0.55,0.5,0.55,0.42,0.6,0.48,0.44,0.29,0.61,0.44,0.55,0.5,0.58,0.61,0.55,0.29,0.29,0.88,0.29,0.33,0.48,0.61,0.55,0.33,0.4,0.48,0.56,0.6,0.48,0.58,0.44,0.56,0.55,0.4,0.5,0.58,0.56,0.48,0.25,0.55,0.61,0.58,0.48" style="fill:rgb(0,0,0);font-family:URWPalladioL-Roma;font-size:9.96px;stroke:none;">frequency spectrum, SCASs act as a ﬁlter, attenuating a speciﬁc and limited frequency range. The</text>
   <text y="681.648" x="76.535,82.744" svgx:width="0.61,0.29" style="fill:rgb(0,0,0);font-family:URWPalladioL-Roma;font-size:9.96px;stroke:none;">di</text>
   <text y="681.648" x="85.701" svgx:width="0.61" style="fill:rgb(0,0,0);font-family:Rpxr;font-size:9.96px;stroke:none;">ﬀ</text>
   <text y="681.648" x="91.88,96.748,100.579,105.446,111.36,114.6468,117.437,125.912,130.993,136.57059999999998,139.407,144.955,148.2418,151.103,159.578,165.127,169.141,174.791,177.748,183.662,189.2396,192.076,197.624,200.9108,203.772,209.392,214.94,218.253,224.0298,226.931,232.581,235.538,241.452,247.661,251.8442,254.734,260.282,263.5688,266.43,274.336,280.545,284.7282,287.618,291.002,295.513,298.471,303.551,307.86,312.169,315.126,319.638,324.719,327.6074,330.44,335.521,341.435,347.5106,350.408,355.743,362.947,370.853,376.188,379.4748,382.336,391.309,396.39,402.04,406.908,411.0912,413.98,416.937,420.22380000000004,423.014,428.756,433.623,437.637,443.2146,446.051,452.26" svgx:width="0.48,0.4,0.48,0.58,0.33,0.55,0.83,0.5,0.56,0.55,0.55,0.33,0.55,0.83,0.55,0.4,0.56,0.29,0.58,0.56,0.55,0.55,0.33,0.55,0.55,0.55,0.33,0.58,0.55,0.56,0.29,0.58,0.61,0.42,0.55,0.55,0.33,0.55,0.78,0.61,0.42,0.55,0.33,0.44,0.29,0.5,0.42,0.42,0.29,0.44,0.5,0.29,0.55,0.5,0.58,0.61,0.55,0.52,0.71,0.78,0.52,0.33,0.55,0.88,0.5,0.56,0.48,0.42,0.55,0.29,0.33,0.55,0.56,0.48,0.4,0.56,0.55,0.61,0.29" style="fill:rgb(0,0,0);font-family:URWPalladioL-Roma;font-size:9.96px;stroke:none;">erent way of working of both kinds of ABs (classical and SCAS) makes it very di</text>
   <text y="681.648" x="455.221" svgx:width="0.92" style="fill:rgb(0,0,0);font-family:Rpxr;font-size:9.96px;stroke:none;">ﬃ</text>
   <text y="681.648" x="464.56,469.072,475.199,478.157,481.4438,484.233,487.546,493.024,495.859,500.37,505.451,509.465,513.479" svgx:width="0.44,0.6,0.29,0.33,0.55,0.33,0.55,0.55,0.44,0.5,0.4,0.4,0.56" style="fill:rgb(0,0,0);font-family:URWPalladioL-Roma;font-size:9.96px;stroke:none;">cult to carry</text>
   <text y="695.157" x="76.535,81.926,87.879,91.1658,93.595,98.575,101.03,106.559,112.512,117.448,123.195,126.413,129.286,132.505,137.441,140.66,143.533,149.111,153.8918,156.338,160.524,163.743,169.696,175.728,181.3056,183.716,189.106,194.8828,197.35,203.096,208.487,219.219,222.437,228.183,232.9638,235.41,244.128,249.519,255.097,259.826,268.544,273.273,279.019,282.30580000000003,284.736,290.126,293.4128,295.912,300.098,305.034,310.78,316.8556,319.311,322.184,327.9608,330.428,333.646,339.392,344.1728,346.619,352.079,357.015,361.202,365.931,370.1142,372.615,378.005,381.2918,383.791,387.009,392.755,397.5358,399.982,407.664,413.696,417.8792,420.38,423.253,428.999,435.002,440.955,445.684,451.43,455.814,460.543,464.7262,467.227,470.446,476.192,480.9728,483.419,488.355,492.739,498.129,504.083,508.269,511.487,514.36" svgx:width="0.55,0.6,0.33,0.55,0.5,0.55,0.56,0.6,0.5,0.58,0.33,0.29,0.33,0.5,0.33,0.29,0.56,0.48,0.55,0.42,0.33,0.6,0.61,0.56,0.55,0.55,0.58,0.55,0.58,0.55,0.83,0.33,0.58,0.48,0.55,0.88,0.55,0.56,0.48,0.88,0.48,0.58,0.33,0.55,0.55,0.33,0.55,0.42,0.5,0.58,0.61,0.55,0.29,0.58,0.55,0.33,0.58,0.48,0.55,0.55,0.5,0.42,0.48,0.42,0.55,0.55,0.33,0.55,0.33,0.58,0.48,0.55,0.78,0.61,0.42,0.55,0.29,0.58,0.61,0.6,0.48,0.58,0.44,0.48,0.42,0.55,0.33,0.58,0.48,0.55,0.5,0.44,0.55,0.6,0.42,0.33,0.29,0.44" style="fill:rgb(0,0,0);font-family:URWPalladioL-Roma;font-size:9.96px;stroke:none;">out a quantitative study on howthe movement of sand in the bases of the ABs inﬂuences the acoustic</text>
   <text y="708.667" x="76.535,81.516,84.764,88.012,92.784,98.582,104.59,109.571,112.819,115.718,121.158,126.9348,129.446,134.428,138.851,144.649,147.548,152.321,157.949,162.721,168.809,171.299,173.79,178.014,180.913,186.711,191.135,195.9158,198.398,201.645,207.444,210.343,214.5262,217.057,222.039,225.287,228.534,233.306,239.105,245.112,250.093,253.341,256.24,261.68,267.4568,269.969,272.868,277.0512,279.583,285.381,290.82,294.1068,296.559,300.982,306.422,315.219,321.206,326.188,330.123,335.104,340.614,343.513,348.2938,350.775,353.675,359.4518,361.963,366.945,372.743,378.3206,380.773,385.196,390.178,394.402,399.174" svgx:width="0.5,0.33,0.33,0.48,0.58,0.6,0.5,0.33,0.29,0.55,0.58,0.55,0.5,0.44,0.58,0.29,0.48,0.56,0.48,0.61,0.25,0.55,0.42,0.29,0.58,0.44,0.48,0.55,0.33,0.58,0.29,0.42,0.55,0.5,0.33,0.33,0.48,0.58,0.6,0.5,0.33,0.29,0.55,0.58,0.55,0.29,0.42,0.55,0.58,0.55,0.33,0.55,0.44,0.55,0.88,0.6,0.5,0.4,0.5,0.55,0.29,0.48,0.55,0.29,0.58,0.55,0.5,0.58,0.56,0.55,0.44,0.5,0.42,0.48,0.25" style="fill:rgb(0,0,0);font-family:URWPalladioL-Roma;font-size:9.96px;stroke:none;">attenuation achieved, since this attenuation is not comparable in any case.</text>
  </g>
 </g>
</svg>
