<?xml version="1.0" encoding="UTF-8"?>
<svg height="335.464" width="4087.56" xmlns="http://www.w3.org/2000/svg">
 <g id="page" xmlns:svgx="http://www.xml-cml.org/schema/svgx">
  <g begin="text">
   <text y="62.979" x="76.535,84.059,87.598,90.252,93.352,96.452,98.668,102.207,104.422" svgx:width="0.94,0.44,0.33,0.39,0.39,0.28,0.44,0.28,0.39" style="fill:rgb(0,0,0);font-family:URWPalladioL-Ital;font-size:7.97px;stroke:none;">Materials</text>
   <text y="62.979" x="109.515,113.5,117.485,121.47" svgx:width="0.5,0.5,0.5,0.5" style="fill:rgb(0,0,0);font-family:URWPalladioL-Bold;font-size:7.97px;stroke:none;">2019</text>
   <text y="62.979" x="125.455" svgx:width="0.25" style="fill:rgb(0,0,0);font-family:URWPalladioL-Roma;font-size:7.97px;stroke:none;">,</text>
   <text y="62.979" x="129.44,133.425" svgx:width="0.5,0.5" style="fill:rgb(0,0,0);font-family:URWPalladioL-Ital;font-size:7.97px;stroke:none;">12</text>
   <text y="62.979" x="137.41,139.4025,141.395,145.38,149.365,153.35,157.335,491.809,495.794,499.779,501.772,506.123,508.7531,510.77,514.755" svgx:width="0.25,0.55,0.5,0.5,0.5,0.5,0.55,0.5,0.5,0.55,0.55,0.33,0.55,0.5,0.5" style="fill:rgb(0,0,0);font-family:URWPalladioL-Roma;font-size:7.97px;stroke:none;">, 1957 13 of 13</text>
   <text y="97.848" x="76.535,81.018,85.501,87.74350000000001,98.05,105.165,110.25,115.765,120.338,125.926,130.307,133.755,138.748,140.9905,144.73,151.845,154.132,156.3745,160.826,167.942,170.603,175.597,180.919,184.797,189.791,192.0335,195.772,198.818,201.104,208.219,210.506,212.7485,217.201" svgx:width="0.5,0.5,0.25,0.55,0.78,0.56,0.6,0.5,0.61,0.48,0.4,0.55,0.25,0.55,0.78,0.25,0.25,0.55,0.78,0.29,0.55,0.58,0.42,0.55,0.25,0.55,0.33,0.25,0.78,0.25,0.25,0.55,0.6" style="fill:rgb(0,0,0);font-family:URWPalladioL-Roma;font-size:8.97px;stroke:none;">12. Aguadero, A.; Alonso, J.A.; P</text>
   <text y="97.848" x="222.727" svgx:width="0.48" style="fill:rgb(0,0,0);font-family:VnURWPalladioL;font-size:8.97px;stroke:none;">é</text>
   <text y="97.848" x="227.022,230.47,234.851,239.424,242.469,248.953,253.947,256.608,259.27,261.5125,265.251,272.33,274.616,276.8585,281.311,288.39,292.6956,296.466,302.054,306.539,310.312,316.796,321.369,324.031,326.692,331.073,333.3155,337.045,343.529,345.816,348.0585,352.52,357.605,361.986,365.598" svgx:width="0.4,0.48,0.5,0.33,0.71,0.55,0.29,0.29,0.25,0.55,0.77,0.25,0.25,0.55,0.77,0.48,0.55,0.61,0.5,0.55,0.71,0.5,0.29,0.29,0.48,0.25,0.55,0.71,0.25,0.25,0.55,0.56,0.48,0.4,0.58" style="fill:rgb(0,0,0);font-family:URWPalladioL-Roma;font-size:8.97px;stroke:none;">rez-Coll, D.; De La Calle, C.; Fern</text>
   <text y="97.848" x="370.921" svgx:width="0.5" style="fill:rgb(0,0,0);font-family:VnURWPalladioL;font-size:8.97px;stroke:none;">á</text>
   <text y="97.848" x="375.404,380.727,386.315,390.696,395.269,398.314" svgx:width="0.58,0.61,0.48,0.5,0.33,0.77" style="fill:rgb(0,0,0);font-family:URWPalladioL-Roma;font-size:8.97px;stroke:none;">ndez-D</text>
   <text y="97.848" x="405.392" svgx:width="0.29" style="fill:rgb(0,0,0);font-family:VnURWPalladioL;font-size:8.97px;stroke:none;">í</text>
   <text y="97.848" x="407.966,412.539,417.112,419.35450000000003,423.084,431.736,434.022,438.97,441.257,443.4995,447.951,454.929,459.923,464.916,470.505,474.885,480.208,485.202,490.717,495.802,501.124,503.36650000000003,507.106,510.151,512.438,518.026" svgx:width="0.5,0.5,0.25,0.55,0.95,0.25,0.61,0.25,0.25,0.55,0.76,0.55,0.55,0.61,0.48,0.58,0.55,0.6,0.56,0.58,0.25,0.55,0.33,0.25,0.61,0.25" style="fill:rgb(0,0,0);font-family:URWPalladioL-Roma;font-size:8.97px;stroke:none;">az, M.T.; Goodenough, J.B.</text>
   <text y="110.76" x="98.05,102.748,106.283,112.627" svgx:width="0.52,0.4,0.71,0.55" style="fill:rgb(0,0,0);font-family:URWPalladioL-Roma;font-size:8.97px;stroke:none;">SrCo</text>
   <text y="112.552" x="117.513,121.0,122.743,126.23" svgx:width="0.5,0.25,0.5,0.5" style="fill:rgb(0,0,0);font-family:URWPalladioL-Roma;font-size:6.97px;stroke:none;">0.95</text>
   <text y="110.76" x="130.216,134.914" svgx:width="0.52,0.55" style="fill:rgb(0,0,0);font-family:URWPalladioL-Roma;font-size:8.97px;stroke:none;">Sb</text>
   <text y="112.552" x="139.862,143.349,145.092,148.579" svgx:width="0.5,0.25,0.5,0.5" style="fill:rgb(0,0,0);font-family:URWPalladioL-Roma;font-size:6.97px;stroke:none;">0.05</text>
   <text y="110.76" x="152.564" svgx:width="0.79" style="fill:rgb(0,0,0);font-family:URWPalladioL-Roma;font-size:8.97px;stroke:none;">O</text>
   <text y="112.552" x="159.598" svgx:width="0.5" style="fill:rgb(0,0,0);font-family:URWPalladioL-Roma;font-size:6.97px;stroke:none;">3</text>
   <text y="112.552" x="163.085" svgx:width="0.67" style="fill:rgb(0,0,0);font-family:Pxsy;font-size:6.97px;stroke:none;">−</text>
   <text y="112.552" x="167.75" svgx:width="0.63" style="fill:rgb(0,0,0);font-family:EURM7;font-size:6.97px;stroke:none;">δ</text>
   <text y="110.76" x="174.866,179.34,183.1074,185.38,189.354,193.828,196.745,201.953,206.839,212.306,216.6116,218.839,226.74,231.214,234.132,238.418,241.953,244.557,249.031,251.63230000000001,253.872,256.852,261.738,265.326,267.518,272.726,275.33,280.306,285.5086,287.76,293.138,298.024,305.487,309.773,313.36100000000005,315.554,321.021,325.308,330.516,334.31,336.914,339.831,344.8542,347.052,350.846,355.732,358.336,360.94,366.4117,368.645,373.531,378.148,380.752,386.22,390.52560000000005,392.752,395.732,401.128,405.414,408.01529999999997,410.264,414.237,418.524,421.128,423.732,427.526" svgx:width="0.5,0.42,0.55,0.44,0.5,0.33,0.58,0.55,0.61,0.48,0.55,0.88,0.5,0.33,0.48,0.4,0.29,0.5,0.29,0.55,0.33,0.55,0.4,0.55,0.58,0.29,0.56,0.58,0.55,0.6,0.55,0.83,0.48,0.4,0.55,0.61,0.48,0.58,0.42,0.29,0.33,0.56,0.55,0.42,0.55,0.29,0.29,0.61,0.55,0.55,0.52,0.29,0.61,0.48,0.55,0.33,0.6,0.48,0.29,0.55,0.44,0.48,0.29,0.29,0.42,0.25" style="fill:rgb(0,0,0);font-family:URWPalladioL-Roma;font-size:8.97px;stroke:none;">as cathode material for high power density solid oxide fuel cells.</text>
   <text y="110.76" x="432.909,438.878,443.352,446.833,453.795,456.0375,459.182,467.629,471.602,474.582,478.063,480.873" svgx:width="0.67,0.5,0.39,0.78,0.25,0.55,0.94,0.44,0.33,0.39,0.39,0.25" style="fill:rgb(0,0,0);font-family:URWPalladioL-Ital;font-size:8.97px;stroke:none;">Chem. Mater.</text>
   <text y="110.76" x="486.26,490.743,495.226,499.71" svgx:width="0.5,0.5,0.5,0.5" style="fill:rgb(0,0,0);font-family:URWPalladioL-Bold;font-size:8.97px;stroke:none;">2010</text>
   <text y="110.76" x="504.193" svgx:width="0.25" style="fill:rgb(0,0,0);font-family:URWPalladioL-Roma;font-size:8.97px;stroke:none;">,</text>
   <text y="110.76" x="508.676,513.15" svgx:width="0.5,0.5" style="fill:rgb(0,0,0);font-family:URWPalladioL-Ital;font-size:8.97px;stroke:none;">22</text>
   <text y="110.76" x="517.624" svgx:width="0.25" style="fill:rgb(0,0,0);font-family:URWPalladioL-Roma;font-size:8.97px;stroke:none;">,</text>
   <text y="123.672" x="98.05,102.533,107.016,111.5,115.983,120.466,124.949,129.432,131.6745,134.812" svgx:width="0.5,0.5,0.5,0.5,0.5,0.5,0.5,0.25,0.55,0.33" style="fill:rgb(0,0,0);font-family:URWPalladioL-Roma;font-size:8.97px;stroke:none;">789–798. [</text>
   <text y="123.672" x="137.798,144.155,147.536,152.431,156.233,160.035,166.024,170.319" svgx:width="0.71,0.4,0.55,0.42,0.42,0.67,0.48,0.33" style="fill:rgb(8,117,183);font-family:URWPalladioL-Roma;font-size:8.97px;stroke:none;">CrossRef</text>
   <text y="123.672" x="173.305" svgx:width="0.33" style="fill:rgb(0,0,0);font-family:URWPalladioL-Roma;font-size:8.97px;stroke:none;">]</text>
   <text y="136.583" x="76.535,81.018,85.501,87.74350000000001,98.05,104.534,109.107,112.985,117.046,122.039,125.917,128.1595,132.008,137.459,139.745,141.9875,146.623,151.708,156.089,159.701" svgx:width="0.5,0.5,0.25,0.55,0.71,0.5,0.42,0.44,0.55,0.42,0.25,0.55,0.72,0.25,0.25,0.55,0.56,0.48,0.4,0.58" style="fill:rgb(0,0,0);font-family:URWPalladioL-Roma;font-size:8.97px;stroke:none;">13. Cascos, V.; Fern</text>
   <text y="136.583" x="165.021" svgx:width="0.5" style="fill:rgb(0,0,0);font-family:VnURWPalladioL;font-size:8.97px;stroke:none;">á</text>
   <text y="136.583" x="169.504,174.827,180.415,184.796,189.369,192.414" svgx:width="0.58,0.61,0.48,0.5,0.33,0.77" style="fill:rgb(0,0,0);font-family:URWPalladioL-Roma;font-size:8.97px;stroke:none;">ndez-D</text>
   <text y="136.583" x="199.493" svgx:width="0.29" style="fill:rgb(0,0,0);font-family:VnURWPalladioL;font-size:8.97px;stroke:none;">í</text>
   <text y="136.583" x="202.066,206.639,211.212,213.4545,217.303,225.955,228.241,233.189,235.475,237.7175,242.353,249.468,252.13,257.123,262.446,266.315,271.308,273.5505,277.409,280.454,282.74,289.856,292.0985,295.947,300.748,303.73,307.269,312.784,316.845,319.826,325.341,328.954,333.527,336.12829999999997,339.993,344.566,349.888,355.3597,359.29,363.671,366.332,370.713,374.774,377.755,381.368,384.029,388.09,392.663,395.2643,399.129,403.19,408.513,413.085,416.698,421.271,425.332,428.313,432.694,436.306,438.968,443.541,448.114,451.095,453.756,458.75,463.9526,467.877,472.871,475.8311,479.721,482.703,488.026,492.33160000000004,496.211,501.534,506.527,511.695,516.075" svgx:width="0.5,0.5,0.25,0.55,0.95,0.25,0.61,0.25,0.25,0.55,0.78,0.29,0.55,0.58,0.42,0.55,0.25,0.55,0.33,0.25,0.78,0.25,0.55,0.52,0.33,0.4,0.6,0.44,0.33,0.6,0.4,0.5,0.29,0.55,0.5,0.58,0.61,0.55,0.48,0.29,0.48,0.44,0.33,0.4,0.29,0.44,0.5,0.29,0.55,0.44,0.58,0.5,0.4,0.5,0.44,0.33,0.48,0.4,0.29,0.5,0.5,0.33,0.29,0.55,0.58,0.55,0.55,0.33,0.55,0.33,0.58,0.48,0.55,0.58,0.55,0.56,0.48,0.29" style="fill:rgb(0,0,0);font-family:URWPalladioL-Roma;font-size:8.97px;stroke:none;">az, M.T.; Alonso, J.A. Structural and electrical characterization of the novel</text>
   <text y="149.495" x="98.05,102.682,106.167,112.423" svgx:width="0.52,0.4,0.71,0.55" style="fill:rgb(0,0,0);font-family:URWPalladioL-Roma;font-size:8.97px;stroke:none;">SrCo</text>
   <text y="151.286" x="117.24" svgx:width="0.5" style="fill:rgb(0,0,0);font-family:URWPalladioL-Roma;font-size:6.97px;stroke:none;">1</text>
   <text y="151.286" x="120.727" svgx:width="0.67" style="fill:rgb(0,0,0);font-family:Pxsy;font-size:6.97px;stroke:none;">−</text>
   <text y="151.286" x="125.393" svgx:width="0.52" style="fill:rgb(0,0,0);font-family:URWPalladioL-Roma;font-size:6.97px;stroke:none;">x</text>
   <text y="149.495" x="129.489,134.403" svgx:width="0.61,0.29" style="fill:rgb(0,0,0);font-family:URWPalladioL-Roma;font-size:8.97px;stroke:none;">Ti</text>
   <text y="150.84" x="136.972" svgx:width="0.52" style="fill:rgb(0,0,0);font-family:URWPalladioL-Roma;font-size:6.97px;stroke:none;">x</text>
   <text y="149.495" x="141.068" svgx:width="0.79" style="fill:rgb(0,0,0);font-family:URWPalladioL-Roma;font-size:8.97px;stroke:none;">O</text>
   <text y="151.286" x="148.003" svgx:width="0.5" style="fill:rgb(0,0,0);font-family:URWPalladioL-Roma;font-size:6.97px;stroke:none;">3</text>
   <text y="151.286" x="151.49" svgx:width="0.67" style="fill:rgb(0,0,0);font-family:Pxsy;font-size:6.97px;stroke:none;">−</text>
   <text y="151.286" x="156.156" svgx:width="0.63" style="fill:rgb(0,0,0);font-family:EURM7;font-size:6.97px;stroke:none;">δ</text>
   <text y="149.495" x="163.276,166.214" svgx:width="0.33,0.52" style="fill:rgb(0,0,0);font-family:URWPalladioL-Roma;font-size:8.97px;stroke:none;">(x</text>
   <text y="149.495" x="173.015" svgx:width="0.67" style="fill:rgb(0,0,0);font-family:Rpxr;font-size:8.97px;stroke:none;">=</text>
   <text y="149.495" x="181.166,185.577,187.783,192.195,196.606,198.8485,201.062,205.473,207.679,212.16400000000002,214.34,218.752,223.887,229.3587,231.527,235.939,238.145,242.556,246.967,249.92710000000002,252.155,257.458,261.684,265.002,269.819,274.804,278.545,283.45,286.018,288.894,293.12,296.861,299.1035,302.217,307.608,312.592,317.004,319.571,324.892,329.303,332.179,334.747,339.564,344.76660000000004,346.949,351.36,355.1274,357.351,361.269,365.68,368.556,373.691,378.509,383.899,388.2046,390.375,398.166,402.578,405.454,409.68,413.165,415.733,420.144,422.712,426.4794,428.702,431.27,436.4726,438.646,442.387,447.204,449.772,452.339,457.8107,459.98,464.797,469.35,471.917,477.308,481.6136,483.784,486.722,492.042,496.268,498.86929999999995,501.086,505.003,509.229,511.797,514.364,518.105" svgx:width="0.5,0.25,0.5,0.5,0.25,0.55,0.5,0.25,0.5,0.55,0.5,0.58,0.61,0.55,0.5,0.25,0.5,0.5,0.33,0.55,0.6,0.48,0.4,0.55,0.56,0.42,0.56,0.29,0.33,0.48,0.42,0.25,0.55,0.61,0.56,0.5,0.29,0.6,0.5,0.33,0.29,0.55,0.58,0.55,0.5,0.42,0.55,0.44,0.5,0.33,0.58,0.55,0.61,0.48,0.55,0.88,0.5,0.33,0.48,0.4,0.29,0.5,0.29,0.42,0.55,0.29,0.58,0.55,0.42,0.55,0.29,0.29,0.61,0.55,0.55,0.52,0.29,0.61,0.48,0.55,0.33,0.6,0.48,0.29,0.55,0.44,0.48,0.29,0.29,0.42,0.25" style="fill:rgb(0,0,0);font-family:URWPalladioL-Roma;font-size:8.97px;stroke:none;">0.05, 0.1 and 0.15) perovskites: Evaluation as cathode materials in solid oxide fuel cells.</text>
   <text y="162.406" x="97.755,103.736,107.224,112.209,115.697,121.677,123.91950000000001,127.057,132.536,137.521,141.009,144.335,148.819" svgx:width="0.67,0.39,0.56,0.39,0.72,0.25,0.55,0.61,0.56,0.39,0.39,0.5,0.5" style="fill:rgb(0,0,0);font-family:URWPalladioL-Ital;font-size:8.97px;stroke:none;">Renew. Energy</text>
   <text y="162.406" x="155.542,160.025,164.508,168.992" svgx:width="0.5,0.5,0.5,0.5" style="fill:rgb(0,0,0);font-family:URWPalladioL-Bold;font-size:8.97px;stroke:none;">2019</text>
   <text y="162.406" x="173.475" svgx:width="0.25" style="fill:rgb(0,0,0);font-family:URWPalladioL-Roma;font-size:8.97px;stroke:none;">,</text>
   <text y="162.406" x="177.958,182.441,186.924" svgx:width="0.5,0.5,0.5" style="fill:rgb(0,0,0);font-family:URWPalladioL-Ital;font-size:8.97px;stroke:none;">133</text>
   <text y="162.406" x="191.408,193.6505,195.891,200.374,204.858,209.341,213.824,218.307,222.79,227.274,229.5165,232.653" svgx:width="0.25,0.55,0.5,0.5,0.5,0.5,0.5,0.5,0.5,0.25,0.55,0.33" style="fill:rgb(0,0,0);font-family:URWPalladioL-Roma;font-size:8.97px;stroke:none;">, 205–215. [</text>
   <text y="162.406" x="235.639,241.996,245.377,250.272,254.074,257.876,263.866,268.16" svgx:width="0.71,0.4,0.55,0.42,0.42,0.67,0.48,0.33" style="fill:rgb(8,117,183);font-family:URWPalladioL-Roma;font-size:8.97px;stroke:none;">CrossRef</text>
   <text y="162.406" x="271.146" svgx:width="0.33" style="fill:rgb(0,0,0);font-family:URWPalladioL-Roma;font-size:8.97px;stroke:none;">]</text>
   <text y="175.318" x="76.535,81.018,85.501,87.74350000000001,98.05,104.534,109.107,112.985,117.046,122.039,125.917,128.1595,131.642,137.093,139.38,141.6225,145.708,150.501,153.958,158.951,164.274,168.335,173.329,177.206,182.2,184.4425,187.925,193.513,195.8,198.04250000000002,202.128,207.213,211.594,215.207" svgx:width="0.5,0.5,0.25,0.55,0.71,0.5,0.42,0.44,0.55,0.42,0.25,0.55,0.72,0.25,0.25,0.55,0.61,0.4,0.55,0.58,0.44,0.55,0.42,0.55,0.25,0.55,0.61,0.25,0.25,0.55,0.56,0.48,0.4,0.58" style="fill:rgb(0,0,0);font-family:URWPalladioL-Roma;font-size:8.97px;stroke:none;">14. Cascos, V.; Troncoso, L.; Fern</text>
   <text y="175.318" x="220.526" svgx:width="0.5" style="fill:rgb(0,0,0);font-family:VnURWPalladioL;font-size:8.97px;stroke:none;">á</text>
   <text y="175.318" x="225.009,230.332,235.92,240.301,244.874,247.919,254.998,257.659,262.232,266.805,269.0475,272.53,281.182,283.469,288.416,290.703,292.9455,297.022,304.138,306.799,311.793,317.116,320.993,325.987,328.22950000000003,331.721,334.767,337.053,344.169,346.4115,349.894,354.695,358.308,364.792" svgx:width="0.58,0.61,0.48,0.5,0.33,0.77,0.29,0.5,0.5,0.25,0.55,0.95,0.25,0.61,0.25,0.25,0.55,0.78,0.29,0.55,0.58,0.42,0.55,0.25,0.55,0.33,0.25,0.78,0.25,0.55,0.52,0.4,0.71,0.55" style="fill:rgb(0,0,0);font-family:URWPalladioL-Roma;font-size:8.97px;stroke:none;">ndez-Diaz, M.T.; Alonso, J.A. SrCo</text>
   <text y="177.11" x="369.783" svgx:width="0.5" style="fill:rgb(0,0,0);font-family:URWPalladioL-Roma;font-size:6.97px;stroke:none;">1</text>
   <text y="177.11" x="373.27" svgx:width="0.67" style="fill:rgb(0,0,0);font-family:Pxsy;font-size:6.97px;stroke:none;">−</text>
   <text y="177.11" x="377.936" svgx:width="0.52" style="fill:rgb(0,0,0);font-family:URWPalladioL-Roma;font-size:6.97px;stroke:none;">x</text>
   <text y="175.318" x="382.032,388.141" svgx:width="0.67,0.6" style="fill:rgb(0,0,0);font-family:URWPalladioL-Roma;font-size:8.97px;stroke:none;">Ru</text>
   <text y="176.663" x="393.656" svgx:width="0.52" style="fill:rgb(0,0,0);font-family:URWPalladioL-Roma;font-size:6.97px;stroke:none;">x</text>
   <text y="175.318" x="397.753" svgx:width="0.79" style="fill:rgb(0,0,0);font-family:URWPalladioL-Roma;font-size:8.97px;stroke:none;">O</text>
   <text y="177.11" x="404.941" svgx:width="0.5" style="fill:rgb(0,0,0);font-family:URWPalladioL-Roma;font-size:6.97px;stroke:none;">3</text>
   <text y="177.11" x="408.428" svgx:width="0.67" style="fill:rgb(0,0,0);font-family:Pxsy;font-size:6.97px;stroke:none;">−</text>
   <text y="177.11" x="413.094" svgx:width="0.63" style="fill:rgb(0,0,0);font-family:EURM7;font-size:6.97px;stroke:none;">δ</text>
   <text y="175.318" x="421.406,424.452" svgx:width="0.33,0.52" style="fill:rgb(0,0,0);font-family:URWPalladioL-Roma;font-size:8.97px;stroke:none;">(x</text>
   <text y="175.318" x="432.612" svgx:width="0.67" style="fill:rgb(0,0,0);font-family:Rpxr;font-size:8.97px;stroke:none;">=</text>
   <text y="175.318" x="442.171,446.744,449.03,453.603,458.176,460.4185,464.203,468.776,471.062,475.635,477.8775,481.662,486.235,491.558,497.0297,500.585,505.158,507.444,512.017,516.59" svgx:width="0.5,0.25,0.5,0.5,0.25,0.55,0.5,0.25,0.5,0.25,0.55,0.5,0.58,0.61,0.55,0.5,0.25,0.5,0.5,0.33" style="fill:rgb(0,0,0);font-family:URWPalladioL-Roma;font-size:8.97px;stroke:none;">0.05, 0.1, and 0.15)</text>
   <text y="188.23" x="98.05,103.574,107.955,111.403,116.396,121.564,125.441,130.526,133.188,136.169,140.55,144.31740000000002,147.885,155.0,158.7674,162.344,169.533,175.048,178.029,183.526,187.907,191.51,194.556,199.549,203.162,211.238,213.899,219.222,224.2452,227.773,234.257,238.83,241.812,247.135,252.128,257.716,262.02160000000003,265.554,274.206,278.779,281.76,286.141,289.754,292.415,296.988,299.5893,303.106,305.768,310.9706,314.548,317.63,322.953,325.934,330.315,333.927,342.003,346.384,351.972,354.633,359.206,362.188,366.569,369.614,374.397,378.778,386.854,392.341,396.722,400.335,404.907,407.889,413.404,416.861,421.1666,424.699,429.5,434.494,437.155,439.817,445.2887,448.862,456.05,460.77,463.431,469.019,473.32460000000003,476.857,481.942,487.457,491.838,494.4393,497.956,504.44,508.821,511.483,514.144,518.022" svgx:width="0.6,0.48,0.4,0.55,0.56,0.42,0.56,0.29,0.33,0.48,0.42,0.55,0.78,0.42,0.55,0.79,0.6,0.33,0.6,0.48,0.4,0.33,0.55,0.4,0.88,0.29,0.58,0.56,0.55,0.71,0.5,0.33,0.58,0.55,0.61,0.48,0.55,0.95,0.5,0.33,0.48,0.4,0.29,0.5,0.29,0.55,0.29,0.58,0.55,0.34,0.58,0.33,0.48,0.4,0.88,0.48,0.61,0.29,0.5,0.33,0.48,0.33,0.61,0.48,0.88,0.6,0.48,0.4,0.5,0.33,0.6,0.4,0.48,0.55,0.52,0.55,0.29,0.29,0.61,0.55,0.79,0.52,0.29,0.61,0.48,0.55,0.56,0.6,0.48,0.29,0.55,0.71,0.48,0.29,0.29,0.42,0.25" style="fill:rgb(0,0,0);font-family:URWPalladioL-Roma;font-size:8.97px;stroke:none;">Perovskites As Outperforming Cathode Material in Intermediate-Temperature Solid Oxide Fuel Cells.</text>
   <text y="201.141" x="97.728,104.202,110.182,115.2052,117.409,123.883,128.366,132.849,135.342,137.58450000000002,140.722,146.2,151.186,154.674,158.0,162.483,166.96800000000002,169.208,177.672,181.654,184.639,188.127,190.952" svgx:width="0.72,0.67,0.56,0.55,0.72,0.5,0.5,0.28,0.25,0.55,0.61,0.56,0.39,0.39,0.5,0.5,0.55,0.94,0.44,0.33,0.39,0.39,0.25" style="fill:rgb(0,0,0);font-family:URWPalladioL-Ital;font-size:8.97px;stroke:none;">ACS Appl. Energy Mater.</text>
   <text y="201.141" x="196.33,200.813,205.296,209.78" svgx:width="0.5,0.5,0.5,0.5" style="fill:rgb(0,0,0);font-family:URWPalladioL-Bold;font-size:8.97px;stroke:none;">2018</text>
   <text y="201.141" x="214.263" svgx:width="0.25" style="fill:rgb(0,0,0);font-family:URWPalladioL-Roma;font-size:8.97px;stroke:none;">,</text>
   <text y="201.141" x="218.746" svgx:width="0.5" style="fill:rgb(0,0,0);font-family:URWPalladioL-Ital;font-size:8.97px;stroke:none;">1</text>
   <text y="201.141" x="223.229,225.47150000000002,227.712,232.195,236.679,241.162,245.645,250.128,254.611,259.095,263.578,268.061,270.3035,273.441" svgx:width="0.25,0.55,0.5,0.5,0.5,0.5,0.5,0.5,0.5,0.5,0.5,0.25,0.55,0.33" style="fill:rgb(0,0,0);font-family:URWPalladioL-Roma;font-size:8.97px;stroke:none;">, 4505–4513. [</text>
   <text y="201.141" x="276.427,282.784,286.164,291.06,294.862,298.663,304.653,308.948" svgx:width="0.71,0.4,0.55,0.42,0.42,0.67,0.48,0.33" style="fill:rgb(8,117,183);font-family:URWPalladioL-Roma;font-size:8.97px;stroke:none;">CrossRef</text>
   <text y="201.141" x="311.934" svgx:width="0.33" style="fill:rgb(0,0,0);font-family:URWPalladioL-Roma;font-size:8.97px;stroke:none;">]</text>
   <text y="214.053" x="76.535,81.018,85.501,87.74350000000001,98.05,103.992,108.848,114.283" svgx:width="0.5,0.5,0.25,0.55,0.67,0.55,0.61,0.4" style="fill:rgb(0,0,0);font-family:URWPalladioL-Roma;font-size:8.97px;stroke:none;">15. Rodr</text>
   <text y="214.053" x="117.796" svgx:width="0.29" style="fill:rgb(0,0,0);font-family:VnURWPalladioL;font-size:8.97px;stroke:none;">í</text>
   <text y="214.053" x="120.37,125.315,130.679,134.939,139.387,142.349,148.655,153.102,156.616,161.641,166.089,168.17,172.617,175.206,177.4485,179.671,182.633,184.87550000000002,187.107,193.048,197.309,201.258,205.519,210.695,213.6551,215.836,220.284,225.718,230.744,235.191,240.368,244.317,248.578,252.3454,254.591,257.179,262.3816,264.606,272.46,276.907,281.853,287.029,291.29,294.19,296.778,300.7248,302.969,306.74,309.64,313.082,318.445,322.395,325.294,330.658,334.011,338.31660000000005,340.513,345.948,350.208,353.108,357.368,360.882,368.736,371.324,376.501,380.948,383.848,386.436,391.293,396.4956,398.711,403.63,408.65319999999997,410.825,416.002,420.263,425.626,428.526,431.87,436.727,441.9296,444.154,449.499,454.356,461.774,467.209,471.469,475.057,477.224,482.659" svgx:width="0.56,0.6,0.48,0.5,0.33,0.71,0.5,0.4,0.56,0.5,0.23,0.5,0.29,0.25,0.55,0.33,0.25,0.55,0.67,0.48,0.44,0.48,0.58,0.33,0.55,0.5,0.61,0.56,0.5,0.58,0.44,0.48,0.42,0.55,0.29,0.58,0.55,0.88,0.5,0.56,0.58,0.48,0.33,0.29,0.44,0.55,0.42,0.33,0.4,0.6,0.44,0.33,0.6,0.4,0.48,0.55,0.61,0.48,0.33,0.48,0.4,0.88,0.29,0.58,0.5,0.33,0.29,0.55,0.58,0.55,0.55,0.56,0.55,0.58,0.48,0.6,0.33,0.4,0.55,0.58,0.55,0.6,0.55,0.83,0.61,0.48,0.4,0.55,0.61,0.29" style="fill:rgb(0,0,0);font-family:URWPalladioL-Roma;font-size:8.97px;stroke:none;">guez-Carvajal, J. Recent advances in magnetic structure determination by neutron powder di</text>
   <text y="214.053" x="485.247" svgx:width="0.61" style="fill:rgb(0,0,0);font-family:Rpxr;font-size:8.97px;stroke:none;">ﬀ</text>
   <text y="214.053" x="490.655,494.168,498.616,502.565,505.465,508.053,512.909,518.086" svgx:width="0.4,0.5,0.44,0.33,0.29,0.55,0.58,0.25" style="fill:rgb(0,0,0);font-family:URWPalladioL-Roma;font-size:8.97px;stroke:none;">raction.</text>
   <text y="226.964" x="97.773,103.251,107.735,112.218,115.706,117.94850000000001,121.086,126.5577,128.806,134.786,138.767,143.753,148.236,151.724,156.709,160.197,162.4395,165.577,174.041,178.022,181.008,183.994,187.482" svgx:width="0.61,0.5,0.5,0.39,0.25,0.55,0.61,0.55,0.67,0.44,0.56,0.5,0.39,0.56,0.39,0.25,0.55,0.94,0.44,0.33,0.33,0.39,0.39" style="fill:rgb(0,0,0);font-family:URWPalladioL-Ital;font-size:8.97px;stroke:none;">Phys. B Condens. Matter</text>
   <text y="226.964" x="193.21,197.693,202.176,206.66" svgx:width="0.5,0.5,0.5,0.5" style="fill:rgb(0,0,0);font-family:URWPalladioL-Bold;font-size:8.97px;stroke:none;">1993</text>
   <text y="226.964" x="211.142" svgx:width="0.25" style="fill:rgb(0,0,0);font-family:URWPalladioL-Roma;font-size:8.97px;stroke:none;">,</text>
   <text y="226.964" x="215.626,220.109,224.592" svgx:width="0.5,0.5,0.5" style="fill:rgb(0,0,0);font-family:URWPalladioL-Ital;font-size:8.97px;stroke:none;">192</text>
   <text y="226.964" x="229.075,231.3175,233.558,238.041,242.525,247.008,251.491,255.974,258.2165,261.354" svgx:width="0.25,0.55,0.5,0.5,0.5,0.5,0.5,0.25,0.55,0.33" style="fill:rgb(0,0,0);font-family:URWPalladioL-Roma;font-size:8.97px;stroke:none;">, 55–69. [</text>
   <text y="226.964" x="264.34,270.697,274.077,278.973,282.775,286.577,292.566,296.861" svgx:width="0.71,0.4,0.55,0.42,0.42,0.67,0.48,0.33" style="fill:rgb(8,117,183);font-family:URWPalladioL-Roma;font-size:8.97px;stroke:none;">CrossRef</text>
   <text y="226.964" x="299.847" svgx:width="0.33" style="fill:rgb(0,0,0);font-family:URWPalladioL-Roma;font-size:8.97px;stroke:none;">]</text>
   <text y="239.876" x="76.535,81.018,85.501,87.74350000000001,98.05,102.701,107.857,112.286,117.442,122.598,127.435,132.59,134.8325,137.055,142.973,145.188,152.044,154.28650000000002,156.5,162.418,166.661,171.667,174.245,178.001,182.244,187.7157,189.907" svgx:width="0.5,0.5,0.25,0.55,0.52,0.58,0.5,0.58,0.58,0.55,0.58,0.25,0.55,0.67,0.25,0.77,0.25,0.55,0.67,0.48,0.56,0.29,0.42,0.48,0.61,0.55,0.61" style="fill:rgb(0,0,0);font-family:URWPalladioL-Roma;font-size:8.97px;stroke:none;">16. Shannon, R.D. Revised E</text>
   <text y="239.876" x="195.317" svgx:width="0.61" style="fill:rgb(0,0,0);font-family:Rpxr;font-size:8.97px;stroke:none;">ﬀ</text>
   <text y="239.876" x="200.703,204.946,208.88,211.768,214.346,219.351,223.6566,225.835,228.821,233.658,238.814,241.391,245.3378,247.575,253.493,257.922,263.335,265.913,268.5143,270.741,275.17,280.326,285.7977,287.98,292.631,297.556,301.312,304.2,308.444,316.266,320.695,323.583,326.161,330.1078,332.345,336.996,339.884,345.226,350.638,353.216,357.46,361.2274,363.457,368.294,371.2541,373.494,376.479,381.635,384.523,388.767,392.266,396.695,399.583,404.42,412.242,414.82,419.1256,421.305,428.162,430.74,434.496,437.384,441.813,446.969,450.902,455.146,458.9134,461.152,463.73,468.93260000000004,471.127,478.497,482.927,485.505,488.083,493.495,497.739,501.5064,503.745,508.174,513.33" svgx:width="0.48,0.44,0.33,0.29,0.56,0.48,0.55,0.34,0.55,0.58,0.29,0.44,0.55,0.67,0.5,0.61,0.29,0.29,0.55,0.5,0.58,0.61,0.55,0.52,0.56,0.42,0.33,0.48,0.88,0.5,0.33,0.29,0.44,0.55,0.52,0.33,0.6,0.61,0.29,0.48,0.42,0.55,0.55,0.33,0.55,0.34,0.58,0.33,0.48,0.4,0.5,0.33,0.55,0.88,0.29,0.48,0.55,0.77,0.29,0.42,0.33,0.5,0.58,0.44,0.48,0.42,0.55,0.29,0.58,0.55,0.83,0.5,0.29,0.29,0.61,0.48,0.42,0.55,0.5,0.58,0.61" style="fill:rgb(0,0,0);font-family:URWPalladioL-Roma;font-size:8.97px;stroke:none;">ective Ionic Radii and Systematic Studies of Interatomie Distances in Halides and</text>
   <text y="252.788" x="98.05,104.407,109.626,114.109,116.718,121.013,125.909,130.894,135.189,140.407,143.016,148.495,152.79,156.592" svgx:width="0.71,0.58,0.5,0.29,0.48,0.55,0.56,0.48,0.58,0.29,0.61,0.48,0.42,0.25" style="fill:rgb(0,0,0);font-family:URWPalladioL-Roma;font-size:8.97px;stroke:none;">Chaleogenides.</text>
   <text y="252.788" x="161.971,168.445,172.094,175.08,179.061,181.3035,184.441,190.421,193.909,198.393,201.88,204.866" svgx:width="0.72,0.41,0.33,0.44,0.25,0.55,0.67,0.39,0.5,0.39,0.33,0.25" style="fill:rgb(0,0,0);font-family:URWPalladioL-Ital;font-size:8.97px;stroke:none;">Acta. Cryst.</text>
   <text y="252.788" x="210.246,214.729,219.212,223.696" svgx:width="0.5,0.5,0.5,0.5" style="fill:rgb(0,0,0);font-family:URWPalladioL-Bold;font-size:8.97px;stroke:none;">1976</text>
   <text y="252.788" x="228.178" svgx:width="0.25" style="fill:rgb(0,0,0);font-family:URWPalladioL-Roma;font-size:8.97px;stroke:none;">,</text>
   <text y="252.788" x="232.662,237.145" svgx:width="0.5,0.5" style="fill:rgb(0,0,0);font-family:URWPalladioL-Ital;font-size:8.97px;stroke:none;">32</text>
   <text y="252.788" x="241.628,243.8705,246.111,250.594,255.078,259.561,264.044,268.527,273.01,277.494,279.73650000000004,282.874" svgx:width="0.25,0.55,0.5,0.5,0.5,0.5,0.5,0.5,0.5,0.25,0.55,0.33" style="fill:rgb(0,0,0);font-family:URWPalladioL-Roma;font-size:8.97px;stroke:none;">, 751–767. [</text>
   <text y="252.788" x="285.859,292.216,295.597,300.492,304.294,308.096,314.086,318.38" svgx:width="0.71,0.4,0.55,0.42,0.42,0.67,0.48,0.33" style="fill:rgb(8,117,183);font-family:URWPalladioL-Roma;font-size:8.97px;stroke:none;">CrossRef</text>
   <text y="252.788" x="321.366" svgx:width="0.33" style="fill:rgb(0,0,0);font-family:URWPalladioL-Roma;font-size:8.97px;stroke:none;">]</text>
   <text y="265.699" x="76.535,81.018,85.501,87.74350000000001,98.05,105.089,110.616,113.249,117.583,120.496,122.7385,125.001,129.751,132.013,137.541,139.7835,142.046,147.076,151.6,155.617,158.566,163.506,167.079,170.84640000000002,173.159,180.062,185.002,190.113,194.447,198.02,203.286,205.919,211.184,216.2072,218.458,225.569,230.237,235.267,240.298,244.631,249.8336,252.14,258.184,262.517,268.045,273.5,277.517,280.467,283.099,288.039,293.2416,295.548,298.181,303.3836,305.69,310.44,315.379,318.012,320.645,326.1167,328.416,335.527,340.196,342.819,348.347,352.6526,354.933,359.954,365.41,369.743,372.3443,374.62,381.034,385.368,388.0,390.6013,392.877,399.291,403.815,406.764,412.029,416.969,422.497,426.831,430.666" svgx:width="0.5,0.5,0.25,0.55,0.78,0.61,0.29,0.48,0.4,0.25,0.55,0.52,0.25,0.61,0.25,0.55,0.56,0.5,0.44,0.33,0.55,0.4,0.42,0.55,0.76,0.55,0.56,0.48,0.4,0.58,0.29,0.58,0.56,0.55,0.79,0.52,0.56,0.56,0.48,0.58,0.55,0.67,0.48,0.61,0.6,0.44,0.33,0.29,0.55,0.58,0.55,0.29,0.58,0.55,0.52,0.55,0.29,0.29,0.61,0.55,0.79,0.52,0.29,0.61,0.48,0.55,0.56,0.6,0.48,0.29,0.55,0.71,0.48,0.29,0.29,0.55,0.71,0.5,0.33,0.58,0.55,0.61,0.48,0.42,0.25" style="fill:rgb(0,0,0);font-family:URWPalladioL-Roma;font-size:8.97px;stroke:none;">17. Adler, S.B. Factors Governing Oxygen Reduction in Solid Oxide Fuel Cell Cathodes.</text>
   <text y="265.699" x="436.077,442.111,446.635,450.154,457.193,459.4355,462.603,468.638,472.157,476.183" svgx:width="0.67,0.5,0.39,0.78,0.25,0.55,0.67,0.39,0.5,0.25" style="fill:rgb(0,0,0);font-family:URWPalladioL-Ital;font-size:8.97px;stroke:none;">Chem. Rev.</text>
   <text y="265.699" x="481.59,486.073,490.556,495.04" svgx:width="0.5,0.5,0.5,0.5" style="fill:rgb(0,0,0);font-family:URWPalladioL-Bold;font-size:8.97px;stroke:none;">2004</text>
   <text y="265.699" x="499.523" svgx:width="0.25" style="fill:rgb(0,0,0);font-family:URWPalladioL-Roma;font-size:8.97px;stroke:none;">,</text>
   <text y="265.699" x="504.029,508.553,513.076" svgx:width="0.5,0.5,0.5" style="fill:rgb(0,0,0);font-family:URWPalladioL-Ital;font-size:8.97px;stroke:none;">104</text>
   <text y="265.699" x="517.599" svgx:width="0.25" style="fill:rgb(0,0,0);font-family:URWPalladioL-Roma;font-size:8.97px;stroke:none;">,</text>
   <text y="278.611" x="98.05,102.533,107.016,111.5,115.983,120.466,124.949,129.432,133.916,138.399,140.6415,143.779" svgx:width="0.5,0.5,0.5,0.5,0.5,0.5,0.5,0.5,0.5,0.25,0.55,0.33" style="fill:rgb(0,0,0);font-family:URWPalladioL-Roma;font-size:8.97px;stroke:none;">4791–4844. [</text>
   <text y="278.611" x="146.764,153.122,156.502,161.398,165.199,169.001,174.991,179.286" svgx:width="0.71,0.4,0.55,0.42,0.42,0.67,0.48,0.33" style="fill:rgb(8,117,183);font-family:URWPalladioL-Roma;font-size:8.97px;stroke:none;">CrossRef</text>
   <text y="278.611" x="182.271,185.2311,187.499" svgx:width="0.33,0.55,0.33" style="fill:rgb(0,0,0);font-family:URWPalladioL-Roma;font-size:8.97px;stroke:none;">] [</text>
   <text y="278.611" x="190.485,195.9,201.307,206.266,214.748,219.043" svgx:width="0.6,0.6,0.55,0.95,0.48,0.61" style="fill:rgb(8,117,183);font-family:URWPalladioL-Roma;font-size:8.97px;stroke:none;">PubMed</text>
   <text y="278.611" x="224.521" svgx:width="0.33" style="fill:rgb(0,0,0);font-family:URWPalladioL-Roma;font-size:8.97px;stroke:none;">]</text>
  </g>
  <rect style="stroke:blue;stroke-width:0.3;" x="77.56" y="251.335" height="29.098" width="83.136" title="13"/>
  <text y="251.335" class="image" id="image.13.1" width="83" height="29" x="77.56">image.13.1.78_161.251_280</text>
  <rect style="stroke:blue;stroke-width:0.3;" x="77.56" y="251.335" height="29.098" width="83.136" title="13"/>
  <text y="251.335" class="image" id="image.13.2" width="83" height="29" x="77.56">image.13.2.78_161.251_280</text>
  <g begin="text">
   <text y="299.641" x="167.778" svgx:width="0.91" style="fill:rgb(0,0,0);font-family:Rpcxr;font-size:8.97px;stroke:none;">©</text>
   <text y="299.641" x="178.159,182.669,187.179,191.689,196.174,198.445,203.434,208.4572,210.695,213.635,218.885,223.1906,225.452,229.962,235.401,238.342,243.592,248.517,252.08,255.904,258.1465,261.316,266.828,269.452,273.457,277.778,283.028,286.852,291.173,295.47860000000003,297.749,306.282,313.264,318.703,321.743,323.9855,326.253,331.764,336.274,340.099,344.419,347.044,349.2865,351.545,356.281,363.804,366.429,369.369,373.879,378.2,381.763,384.388,388.898,394.148,399.659,401.9015,405.071,410.6,415.85,418.475,422.24240000000003,424.546,429.056,432.619,435.559,438.184,442.189,444.814,449.11960000000005,451.381,454.006,457.7734,460.076,464.586,469.78860000000003,472.091,477.016,482.437,486.758,491.9606,494.254,498.764,502.769,506.774,511.095,514.919" svgx:width="0.5,0.5,0.5,0.5,0.55,0.55,0.56,0.55,0.33,0.58,0.48,0.55,0.5,0.6,0.33,0.58,0.55,0.4,0.42,0.25,0.55,0.61,0.29,0.44,0.48,0.58,0.42,0.48,0.48,0.55,0.95,0.77,0.6,0.34,0.25,0.55,0.61,0.5,0.42,0.48,0.29,0.25,0.55,0.52,0.83,0.29,0.33,0.5,0.48,0.4,0.29,0.5,0.58,0.61,0.25,0.55,0.61,0.58,0.29,0.42,0.55,0.5,0.4,0.33,0.29,0.44,0.29,0.48,0.55,0.29,0.42,0.55,0.5,0.58,0.55,0.55,0.6,0.48,0.58,0.55,0.5,0.44,0.44,0.48,0.42,0.42" style="fill:rgb(0,0,0);font-family:URWPalladioL-Roma;font-size:8.97px;stroke:none;">2019 by the authors. Licensee MDPI, Basel, Switzerland. This article is an open access</text>
   <text y="312.552" x="169.401,173.898,177.45,180.382,182.999,186.992,189.609,193.9146,196.147,201.642,204.259,208.072,211.004,214.556,217.173,222.147,227.57,230.501,234.809,240.2807,242.534,247.957,253.192,258.686,262.994,266.58200000000005,268.777,271.709,276.943,281.2486,283.472,286.404,290.712,294.264,302.205,305.9724,308.249,312.745,317.979,323.4507,325.705,329.698,334.608,339.842,345.337,347.954,350.886,353.503,358.413,363.647,367.4144,369.691,374.601,377.5611,379.826,382.758,387.992,392.29760000000005,394.53,400.907,404.297,408.605,413.102,416.033,418.65,423.732,428.03760000000005,430.27,436.646,441.556,449.497,457.439,462.349,467.583,471.35040000000004,473.626,480.623,483.555,486.478,490.03,492.647,497.621,503.044,505.975,508.592,513.503" svgx:width="0.5,0.4,0.33,0.29,0.44,0.29,0.48,0.55,0.61,0.29,0.42,0.33,0.4,0.29,0.55,0.6,0.33,0.48,0.61,0.55,0.6,0.58,0.61,0.48,0.4,0.55,0.33,0.58,0.48,0.55,0.33,0.48,0.4,0.88,0.42,0.55,0.5,0.58,0.61,0.55,0.44,0.55,0.58,0.61,0.29,0.33,0.29,0.55,0.58,0.42,0.55,0.55,0.33,0.55,0.33,0.58,0.48,0.55,0.71,0.4,0.48,0.5,0.33,0.29,0.56,0.48,0.55,0.71,0.55,0.88,0.88,0.55,0.58,0.42,0.55,0.78,0.33,0.33,0.4,0.29,0.55,0.6,0.33,0.29,0.55,0.58" style="fill:rgb(0,0,0);font-family:URWPalladioL-Roma;font-size:8.97px;stroke:none;">article distributed under the terms and conditions of the Creative Commons Attribution</text>
   <text y="325.464" x="169.105,172.091,178.448,184.8167,187.047,192.525,198.506,201.4661,203.733,206.342,208.952,212.933,217.228,222.446,226.248,230.5536,232.784,235.77,240.989,243.912,246.835,252.224" svgx:width="0.33,0.71,0.71,0.55,0.61,0.67,0.33,0.55,0.29,0.29,0.44,0.48,0.58,0.42,0.48,0.55,0.33,0.58,0.33,0.33,0.6,0.25" style="fill:rgb(0,0,0);font-family:URWPalladioL-Roma;font-size:8.97px;stroke:none;">(CC BY) license (http:</text>
   <text y="325.464" x="254.464,257.037" svgx:width="0.29,0.29" style="fill:rgb(0,0,0);font-family:Rpxr;font-size:8.97px;stroke:none;">//</text>
   <text y="325.464" x="259.611,263.592,266.972,271.267,275.75,278.674,281.283,286.349,290.644,294.625,299.52,307.438,315.355,320.251,325.469,329.271,331.513,336.408,339.788" svgx:width="0.44,0.4,0.48,0.5,0.33,0.29,0.56,0.48,0.44,0.55,0.88,0.88,0.55,0.58,0.42,0.25,0.55,0.4,0.56" style="fill:rgb(0,0,0);font-family:URWPalladioL-Roma;font-size:8.97px;stroke:none;">creativecommons.org</text>
   <text y="325.464" x="344.773" svgx:width="0.29" style="fill:rgb(0,0,0);font-family:Rpxr;font-size:8.97px;stroke:none;">/</text>
   <text y="325.464" x="347.346,349.955,352.564,356.546,360.84,366.059,369.861,374.156" svgx:width="0.29,0.29,0.44,0.48,0.58,0.42,0.48,0.42" style="fill:rgb(0,0,0);font-family:URWPalladioL-Roma;font-size:8.97px;stroke:none;">licenses</text>
   <text y="325.464" x="377.957" svgx:width="0.29" style="fill:rgb(0,0,0);font-family:Rpxr;font-size:8.97px;stroke:none;">/</text>
   <text y="325.464" x="380.53,385.488" svgx:width="0.55,0.56" style="fill:rgb(0,0,0);font-family:URWPalladioL-Roma;font-size:8.97px;stroke:none;">by</text>
   <text y="325.464" x="390.474" svgx:width="0.29" style="fill:rgb(0,0,0);font-family:Rpxr;font-size:8.97px;stroke:none;">/</text>
   <text y="325.464" x="393.047,397.53,399.772" svgx:width="0.5,0.25,0.5" style="fill:rgb(0,0,0);font-family:URWPalladioL-Roma;font-size:8.97px;stroke:none;">4.0</text>
   <text y="325.464" x="404.255" svgx:width="0.29" style="fill:rgb(0,0,0);font-family:Rpxr;font-size:8.97px;stroke:none;">/</text>
   <text y="325.464" x="406.828,409.814" svgx:width="0.33,0.25" style="fill:rgb(0,0,0);font-family:URWPalladioL-Roma;font-size:8.97px;stroke:none;">).</text>
  </g>
 </g>
</svg>
