<?xml version="1.0" encoding="UTF-8"?>
<svg height="751.486" width="530.2955" xmlns="http://www.w3.org/2000/svg">
 <g id="page" xmlns:svgx="http://www.xml-cml.org/schema/svgx">
  <g begin="text">
   <text y="62.979" x="76.535,84.059,87.598,90.252,93.352,96.452,98.668,102.207,104.422" svgx:width="0.94,0.44,0.33,0.39,0.39,0.28,0.44,0.28,0.39" style="fill:rgb(0,0,0);font-family:URWPalladioL-Ital;font-size:7.97px;stroke:none;">Materials</text>
   <text y="62.979" x="109.515,113.5,117.485,121.47" svgx:width="0.5,0.5,0.5,0.5" style="fill:rgb(0,0,0);font-family:URWPalladioL-Bold;font-size:7.97px;stroke:none;">2019</text>
   <text y="62.979" x="125.455" svgx:width="0.25" style="fill:rgb(0,0,0);font-family:URWPalladioL-Roma;font-size:7.97px;stroke:none;">,</text>
   <text y="62.979" x="129.44,133.425" svgx:width="0.5,0.5" style="fill:rgb(0,0,0);font-family:URWPalladioL-Ital;font-size:7.97px;stroke:none;">12</text>
   <text y="62.979" x="137.41,139.4025,141.395,145.38,149.365,153.35,157.335,491.809,495.794,499.779,501.772,506.123,508.7531,510.77,514.755" svgx:width="0.25,0.55,0.5,0.5,0.5,0.5,0.55,0.5,0.5,0.55,0.55,0.33,0.55,0.5,0.5" style="fill:rgb(0,0,0);font-family:URWPalladioL-Roma;font-size:7.97px;stroke:none;">, 1957 12 of 13</text>
   <text y="97.848" x="76.535,81.516,84.006,87.494,94.687,100.226,106.313,110.737,114.054,120.141,124.565,127.882,133.421,139.509" svgx:width="0.5,0.25,0.55,0.72,0.56,0.61,0.44,0.33,0.61,0.44,0.33,0.56,0.61,0.44" style="fill:rgb(0,0,0);font-family:URWPalladioL-Bold;font-size:9.96px;stroke:none;">4. Conclusions</text>
   <text y="117.335" x="97.795,101.089,106.8658,109.269,112.455,118.143,122.9238,125.317,131.19,134.875,139.556,143.7,148.382,154.07,157.3568,159.748,167.899,173.235,177.096,182.53,185.02,187.465,195.616,200.3968,202.79,208.478,213.364,218.886,223.6668,226.06,232.031,236.713,240.857,243.701,249.135,254.823,259.504,265.5796,267.968,272.94800000000004,275.347,281.035,286.371,291.883,296.565,299.4534,301.901,306.24,311.127,314.313,320.001,325.337,331.309,336.0898,338.482,347.112,351.999,355.185,359.866,363.727,366.571,371.457,374.3454,376.794,382.198,387.7756,390.124,395.998,400.885,404.745,407.931,410.775,415.662,418.506,421.35,426.92760000000004,429.276,432.961,437.642,443.516,446.36,451.247,455.586,458.43,464.118,469.6956,472.044,477.175,481.159,483.528,488.932,494.50960000000003,496.859,502.83,507.81,510.209,513.053" svgx:width="0.34,0.58,0.55,0.33,0.58,0.48,0.55,0.6,0.4,0.48,0.42,0.48,0.58,0.33,0.55,0.83,0.55,0.4,0.56,0.25,0.55,0.83,0.48,0.55,0.58,0.5,0.56,0.48,0.55,0.61,0.48,0.42,0.29,0.56,0.58,0.48,0.61,0.55,0.5,0.55,0.58,0.55,0.56,0.48,0.29,0.55,0.44,0.5,0.33,0.58,0.55,0.61,0.48,0.55,0.88,0.5,0.33,0.48,0.4,0.29,0.5,0.29,0.55,0.55,0.56,0.55,0.6,0.5,0.4,0.33,0.29,0.5,0.29,0.29,0.56,0.55,0.4,0.48,0.6,0.29,0.5,0.44,0.29,0.58,0.56,0.55,0.52,0.4,0.55,0.55,0.56,0.55,0.61,0.5,0.55,0.29,0.58" style="fill:rgb(0,0,0);font-family:URWPalladioL-Roma;font-size:9.96px;stroke:none;">In the present work, we have designed a novel cathode material by partially replacing Sr by Ba in</text>
   <text y="130.845" x="76.535,81.802,85.765,92.878" svgx:width="0.52,0.4,0.71,0.55" style="fill:rgb(0,0,0);font-family:URWPalladioL-Roma;font-size:9.96px;stroke:none;">SrCo</text>
   <text y="132.71" x="98.356,102.142,104.035,107.82" svgx:width="0.5,0.25,0.5,0.5" style="fill:rgb(0,0,0);font-family:URWPalladioL-Roma;font-size:7.57px;stroke:none;">0.95</text>
   <text y="130.845" x="112.104,118.806" svgx:width="0.67,0.6" style="fill:rgb(0,0,0);font-family:URWPalladioL-Roma;font-size:9.96px;stroke:none;">Ru</text>
   <text y="132.71" x="124.855,128.641,130.534,134.32" svgx:width="0.5,0.25,0.5,0.5" style="fill:rgb(0,0,0);font-family:URWPalladioL-Roma;font-size:7.57px;stroke:none;">0.05</text>
   <text y="130.845" x="138.603" svgx:width="0.79" style="fill:rgb(0,0,0);font-family:URWPalladioL-Roma;font-size:9.96px;stroke:none;">O</text>
   <text y="132.71" x="146.489" svgx:width="0.5" style="fill:rgb(0,0,0);font-family:URWPalladioL-Roma;font-size:7.57px;stroke:none;">3</text>
   <text y="132.71" x="150.275" svgx:width="0.67" style="fill:rgb(0,0,0);font-family:Pxsy;font-size:7.57px;stroke:none;">−</text>
   <text y="132.71" x="155.34" svgx:width="0.63" style="fill:rgb(0,0,0);font-family:EURM7;font-size:7.57px;stroke:none;">δ</text>
   <text y="130.845" x="163.077,169.106,173.912,177.694,183.172,188.84,193.094,198.672,201.591,204.862,209.667,212.157,215.667,224.776,229.5568,232.079,237.918,242.934,248.593,253.3738,255.896,260.15,265.989,271.466,279.833,285.6098,288.16,296.527,299.447,302.717,308.49379999999996,311.044,316.06,321.8368,324.387,332.724,338.783,346.4522,349.046,353.3,356.571,362.62,368.75,374.3276,376.816,380.086,385.925,390.941,394.2278,396.7,399.97,405.809,408.729,412.9122,415.47,419.925,425.402,434.261,440.29,445.768,451.818,457.656,463.7316,466.274,469.194,473.3772,475.945,480.199,483.47,488.486,494.034,496.953,499.872,502.792,507.808,512.614" svgx:width="0.6,0.48,0.4,0.55,0.56,0.42,0.56,0.29,0.33,0.48,0.25,0.55,1.0,0.48,0.55,0.58,0.5,0.56,0.48,0.55,0.42,0.58,0.55,0.83,0.58,0.55,0.83,0.29,0.33,0.58,0.55,0.5,0.58,0.55,0.83,0.6,0.77,0.55,0.42,0.33,0.6,0.61,0.56,0.55,0.33,0.58,0.5,0.33,0.55,0.33,0.58,0.29,0.42,0.55,0.44,0.55,0.88,0.6,0.55,0.6,0.58,0.61,0.55,0.29,0.42,0.55,0.42,0.33,0.5,0.55,0.29,0.29,0.29,0.5,0.48,0.61" style="fill:rgb(0,0,0);font-family:URWPalladioL-Roma;font-size:9.96px;stroke:none;">perovskite. We have shown with an NPD study that this compound is stabilized</text>
   <text y="144.354" x="76.535,79.446,85.22279999999999,87.768,92.748,95.26,98.52,103.312,106.572,110.523,115.525,121.086,126.547,132.369,137.37,140.2584,142.771,148.783,153.574,157.345,162.806,168.458,172.699,178.26,181.171,184.431,189.2118,191.723,195.964,199.225,203.096,209.127,213.569,216.829,222.861,226.632,231.4128,233.914,238.915,242.2018,244.676,250.988,256.379,258.869,261.38,267.492,272.283,278.334,284.156,288.947,295.0226,297.549,300.46,306.23679999999996,308.782,312.043,317.864,322.6448,325.146,331.187" svgx:width="0.29,0.58,0.55,0.5,0.55,0.33,0.48,0.33,0.4,0.5,0.56,0.55,0.58,0.5,0.29,0.55,0.6,0.48,0.4,0.55,0.56,0.42,0.56,0.29,0.33,0.48,0.55,0.42,0.33,0.4,0.6,0.44,0.33,0.6,0.4,0.48,0.55,0.5,0.33,0.55,0.67,0.61,0.25,0.55,0.61,0.48,0.61,0.58,0.48,0.61,0.55,0.29,0.58,0.55,0.33,0.58,0.48,0.55,0.6,0.5" style="fill:rgb(0,0,0);font-family:URWPalladioL-Roma;font-size:9.96px;stroke:none;">in a tetragonal perovskite structure at RT, deﬁned in the P4</text>
   <text y="144.354" x="336.191" svgx:width="0.29" style="fill:rgb(0,0,0);font-family:Rpxr;font-size:9.96px;stroke:none;">/</text>
   <text y="144.354" x="339.062,347.894,356.726,368.049,373.61,377.391,382.853,388.874,394.886,397.37600000000003,399.887,408.229,411.14,414.4,420.17679999999996,422.722,427.724,433.50079999999997,436.036,440.827,445.988,452.0,457.001,462.822,468.934,473.725,479.80060000000003,482.327,488.358,494.18,497.091,500.351,503.682,508.123,512.914,515.825" svgx:width="0.88,0.88,0.88,0.56,0.4,0.55,0.6,0.6,0.25,0.55,0.83,0.29,0.33,0.58,0.55,0.5,0.58,0.55,0.48,0.52,0.6,0.5,0.58,0.61,0.48,0.61,0.55,0.6,0.58,0.29,0.33,0.33,0.44,0.48,0.29,0.29" style="fill:rgb(0,0,0);font-family:URWPalladioL-Roma;font-size:9.96px;stroke:none;">mmmgroup, with an expanded unit-cell</text>
   <text y="157.864" x="76.256,81.879,87.313,90.21,96.211,104.999,109.7798,112.255,120.555,123.451,126.696,132.4728,134.987,138.739,143.506,147.726,153.707,158.475,162.894,166.1808,168.626,171.871,177.34900000000002,179.803,183.048,188.84,193.6208,196.096,202.077,207.054,210.806,215.573,221.365,224.6518,227.098,231.517,236.951,245.739,251.721,257.155,263.157,268.949,275.03,277.52,281.012,287.113,292.905,297.6858,300.17,303.415,308.182,311.427,315.358,320.334,325.868,331.302,337.095,342.071,344.9594,347.455,351.675,357.677,363.658,368.426,372.357,376.577,379.821,383.673,389.674,394.093,397.338,403.339,407.092,411.8728,414.347,417.243,421.4262,423.961,430.042,436.044,440.8248,443.299,446.544,452.022,454.476,457.721,463.513,468.2938,470.769,473.665,479.099,484.891,490.425,493.739,497.671,502.647,508.439,513.973" svgx:width="0.56,0.55,0.29,0.6,0.88,0.48,0.55,0.83,0.29,0.33,0.58,0.55,0.4,0.48,0.42,0.6,0.48,0.44,0.33,0.55,0.33,0.55,0.55,0.33,0.58,0.48,0.55,0.6,0.5,0.4,0.48,0.58,0.33,0.55,0.44,0.55,0.88,0.6,0.55,0.6,0.58,0.61,0.25,0.55,0.61,0.58,0.48,0.55,0.33,0.48,0.33,0.4,0.5,0.56,0.55,0.58,0.5,0.29,0.55,0.42,0.6,0.6,0.48,0.4,0.42,0.33,0.4,0.6,0.44,0.33,0.6,0.4,0.48,0.55,0.29,0.42,0.55,0.61,0.6,0.48,0.55,0.33,0.55,0.55,0.33,0.58,0.48,0.55,0.29,0.55,0.58,0.56,0.33,0.4,0.5,0.58,0.56,0.48" style="fill:rgb(0,0,0);font-family:URWPalladioL-Roma;font-size:9.96px;stroke:none;">volume with respect to the parent compound. The tetragonal superstructure is due to the long-range</text>
   <text y="171.373" x="76.535,82.067,85.887,92.077,96.931,100.933,103.881,109.778,115.35560000000001,117.894,123.426,126.7128,129.292,134.824,140.052,145.686,151.319,156.172,161.9488,164.551,170.276,175.342,179.841,184.907,190.803,195.302,198.25,203.104,207.2872,209.882,214.948,217.896,223.428,229.325,234.90259999999998,237.441,240.744,246.641" svgx:width="0.55,0.4,0.61,0.48,0.4,0.29,0.58,0.56,0.55,0.55,0.33,0.55,0.55,0.52,0.56,0.56,0.48,0.58,0.55,0.56,0.5,0.44,0.5,0.58,0.44,0.29,0.48,0.42,0.55,0.5,0.29,0.55,0.58,0.56,0.55,0.33,0.58,0.48" style="fill:rgb(0,0,0);font-family:URWPalladioL-Roma;font-size:9.96px;stroke:none;">ordering of oxygen vacancies along the</text>
   <text y="171.373" x="253.979" svgx:width="0.41" style="fill:rgb(0,0,0);font-family:URWPalladioL-Ital;font-size:9.96px;stroke:none;">c</text>
   <text y="171.373" x="258.102,261.476,266.542,271.77,274.718,279.014,281.504,285.033,291.244,297.14" svgx:width="0.33,0.5,0.52,0.29,0.42,0.25,0.55,0.61,0.58,0.48" style="fill:rgb(0,0,0);font-family:URWPalladioL-Roma;font-size:9.96px;stroke:none;">-axis. The</text>
   <text y="171.373" x="304.477,309.543" svgx:width="0.5,0.41" style="fill:rgb(0,0,0);font-family:URWPalladioL-Ital;font-size:9.96px;stroke:none;">dc</text>
   <text y="171.373" x="316.151,320.65,326.182,332.078,338.269,344.379,348.877,352.18,355.129,360.853,363.802,367.105,372.68260000000004,375.22,379.516,384.369,389.223,398.169,402.3522,404.948,408.251,413.729,416.265,421.868,426.6488,429.214,433.509" svgx:width="0.44,0.55,0.58,0.61,0.6,0.44,0.33,0.29,0.56,0.29,0.33,0.56,0.55,0.42,0.48,0.48,0.88,0.42,0.55,0.33,0.55,0.55,0.55,0.48,0.55,0.42,0.6" style="fill:rgb(0,0,0);font-family:URWPalladioL-Roma;font-size:9.96px;stroke:none;">conductivity seems to be su</text>
   <text y="171.373" x="439.615" svgx:width="0.92" style="fill:rgb(0,0,0);font-family:Rpxr;font-size:9.96px;stroke:none;">ﬃ</text>
   <text y="171.373" x="448.926,453.425,456.373,461.226,467.123,470.4098,472.908,476.282,481.814,485.798,488.299,493.279,495.847,501.48,507.012,512.545" svgx:width="0.44,0.29,0.48,0.58,0.33,0.55,0.33,0.55,0.4,0.55,0.5,0.55,0.56,0.55,0.55,0.61" style="fill:rgb(0,0,0);font-family:URWPalladioL-Roma;font-size:9.96px;stroke:none;">cient for a good</text>
   <text y="184.882" x="76.236,82.104,86.78,90.637,93.888,99.219,103.075,111.696,116.578,122.26,126.595,131.3758,133.352,138.233,142.4162,144.453,148.787,153.669,156.852,162.534,167.865,173.83,178.6108,180.596,189.217,194.099,197.282,201.959,205.815,208.656,213.538,216.4264,218.459,221.3,227.07680000000002,229.062,234.187,241.861,247.29,254.212,256.702,258.732,268.418,273.846,279.177,284.508,290.5836,292.553,296.888,302.57,307.247,315.868,318.709,323.044,327.925,330.8134,332.846,337.181,342.512,351.133,357.001,361.882,365.065,367.906,373.305,376.146,378.988,381.829,385.012,390.5896,392.52,400.662,405.544,409.7272,411.763,417.094,422.493,426.633,431.309,435.166,440.682,445.359,451.4346,453.414,461.556,464.397,467.58,473.35679999999996,475.342,478.525,484.207,488.9878,490.963,496.929,502.055,509.504" svgx:width="0.6,0.48,0.4,0.33,0.55,0.4,0.88,0.5,0.58,0.44,0.48,0.55,0.5,0.42,0.55,0.44,0.5,0.33,0.58,0.55,0.61,0.48,0.55,0.88,0.5,0.33,0.48,0.4,0.29,0.5,0.29,0.55,0.29,0.58,0.55,0.52,0.79,0.56,0.71,0.25,0.55,0.78,0.56,0.55,0.55,0.61,0.55,0.44,0.58,0.48,0.88,0.29,0.44,0.5,0.29,0.55,0.44,0.55,0.88,0.6,0.5,0.33,0.29,0.55,0.29,0.29,0.29,0.33,0.56,0.55,0.83,0.5,0.42,0.55,0.55,0.55,0.42,0.48,0.4,0.56,0.48,0.61,0.55,0.83,0.29,0.33,0.58,0.55,0.33,0.58,0.48,0.55,0.61,0.52,0.76,0.95" style="fill:rgb(0,0,0);font-family:URWPalladioL-Roma;font-size:9.96px;stroke:none;">performance as cathode material in SOFC. Agood chemical compatibility was observed with the LSGM</text>
   <text y="198.392" x="76.535,81.388,84.337,89.19,93.688,96.991,100.811,106.343,109.292,114.925,118.228,123.0088,125.564,128.938,134.47,138.454,140.954,146.02,151.0,153.558,159.455,161.94500000000002,165.473,171.684,177.581,182.3618,184.917,191.128,197.318,204.3896,206.984,212.516,215.8028,218.362,221.665,227.562,230.51,234.6932,237.289,246.235,251.301,254.604,259.457,263.46,266.408,271.474,274.3624,276.905,279.853,284.0362,286.631,292.528,295.477,301.11,307.007,311.86,315.844,318.334,321.637,327.534,332.6,338.3768,340.979,344.282,350.179,355.711,360.007,364.7878,367.342,373.452,377.748,383.858,388.924,391.872,394.82,400.3976,402.926,409.015,412.845,417.698,421.994,426.848,432.744,436.047,440.901,446.9766,449.563,452.512,458.2888,460.891,464.194,470.091,474.8718,477.426,482.958,486.261,492.158,497.011,500.995,503.496,507.994,512.848,515.796" svgx:width="0.48,0.29,0.48,0.44,0.33,0.4,0.55,0.29,0.56,0.33,0.48,0.55,0.33,0.55,0.4,0.55,0.5,0.5,0.55,0.58,0.25,0.55,0.61,0.58,0.48,0.55,0.61,0.61,0.71,0.55,0.55,0.33,0.55,0.33,0.58,0.29,0.42,0.55,0.88,0.5,0.33,0.48,0.4,0.29,0.5,0.29,0.55,0.29,0.42,0.55,0.58,0.29,0.56,0.58,0.48,0.4,0.55,0.33,0.58,0.5,0.58,0.55,0.33,0.58,0.55,0.42,0.48,0.55,0.6,0.42,0.6,0.5,0.29,0.29,0.56,0.55,0.6,0.4,0.48,0.42,0.48,0.58,0.33,0.48,0.61,0.55,0.29,0.58,0.55,0.33,0.58,0.48,0.55,0.55,0.33,0.58,0.48,0.4,0.55,0.44,0.48,0.29,0.29" style="fill:rgb(0,0,0);font-family:URWPalladioL-Roma;font-size:9.96px;stroke:none;">electrolyte for 12 h. The TEC of this material is higher than those usually presented in the other cell</text>
   <text y="211.901" x="76.535,80.981,86.447,95.288,101.306,106.772,112.6,117.396,123.223,126.487,130.732,133.222,135.728,141.265,147.303,150.5898,153.05,155.963,159.2498,161.721,164.634,168.81719999999999,171.363,175.808,181.635,186.642,190.596,195.603,200.048,203.312,208.108,212.063,214.977,219.222,222.486,225.4,229.7824,232.338,237.805,241.0918,243.622,249.64,254.436,258.22,263.687,269.344,273.589,279.156,282.06,285.324,290.12,294.3032,296.858,300.122,305.949,310.956,314.24280000000005,316.713,321.158,326.625,332.452,335.716,340.723,343.636,349.4128,351.946,359.045,364.512,367.002,370.499,373.874,379.701,382.965,387.761,391.535,396.331,400.577,403.841,406.754,412.582,418.148,421.062,425.528,428.01800000000003,430.524,435.53,441.30679999999995,443.84,449.958,453.332,458.5112,461.082,463.995,469.822,475.479,480.275,484.521,487.785,490.698,496.265,501.271,504.535,507.449,512.916" svgx:width="0.44,0.55,0.88,0.6,0.55,0.58,0.48,0.58,0.33,0.42,0.25,0.55,0.55,0.6,0.33,0.55,0.29,0.33,0.55,0.29,0.42,0.55,0.44,0.58,0.5,0.4,0.5,0.44,0.33,0.48,0.4,0.29,0.42,0.33,0.29,0.44,0.55,0.55,0.33,0.55,0.6,0.48,0.4,0.55,0.56,0.42,0.56,0.29,0.33,0.48,0.42,0.55,0.33,0.58,0.5,0.33,0.55,0.44,0.55,0.58,0.33,0.5,0.29,0.58,0.55,0.71,0.55,0.25,0.55,0.34,0.58,0.33,0.48,0.4,0.48,0.42,0.33,0.29,0.58,0.56,0.29,0.56,0.25,0.55,0.5,0.58,0.55,0.61,0.34,0.52,0.55,0.29,0.58,0.56,0.48,0.42,0.33,0.29,0.56,0.5,0.33,0.29,0.55,0.58" style="fill:rgb(0,0,0);font-family:URWPalladioL-Roma;font-size:9.96px;stroke:none;">components, but it is characteristic of perovskites that contain Co. Interestingly, an EIS investigation</text>
   <text y="225.411" x="76.535,82.663,88.577,94.318,99.186,102.143,105.1,109.2832,111.98,116.96000000000001,119.631,122.589,128.137,136.612,141.479,145.46300000000002,148.064,154.172,159.72,162.677,167.758,171.772,174.729,179.81,184.891,188.204,191.161,196.709,202.4858,205.194,209.025,213.893,218.201,221.158,225.467,228.78,233.861,239.775,244.287,249.0678,251.725,255.038,260.952,266.033,271.8098,274.518,277.831,283.745,288.5258,291.184,297.291,302.372,306.203,311.071,316.985,320.27180000000004,322.868,327.38,332.929,341.902,348.009,353.557,359.685,365.599,371.808,374.298,376.94,380.252,385.801,391.451,396.318,399.631,405.545,410.413,414.397,416.998,425.473,428.43,431.743,437.5198,440.228,445.208,447.88,451.711,456.578,461.659,465.968,471.516,477.43,482.511,488.131,491.088,495.8688,498.526,501.839,507.387,510.7,515.781" svgx:width="0.6,0.58,0.56,0.48,0.29,0.29,0.42,0.55,0.5,0.55,0.29,0.55,0.83,0.48,0.4,0.55,0.6,0.55,0.29,0.5,0.4,0.29,0.5,0.5,0.33,0.29,0.55,0.58,0.55,0.4,0.48,0.42,0.29,0.42,0.33,0.5,0.58,0.44,0.48,0.55,0.33,0.58,0.5,0.58,0.55,0.33,0.58,0.48,0.55,0.6,0.5,0.4,0.48,0.58,0.33,0.55,0.44,0.55,0.88,0.6,0.55,0.6,0.58,0.61,0.25,0.55,0.33,0.55,0.56,0.48,0.33,0.58,0.48,0.4,0.55,0.83,0.29,0.33,0.58,0.55,0.5,0.55,0.4,0.48,0.5,0.42,0.55,0.58,0.5,0.55,0.29,0.48,0.55,0.33,0.55,0.33,0.5,0.29" style="fill:rgb(0,0,0);font-family:URWPalladioL-Roma;font-size:9.96px;stroke:none;">unveils a lower polarization resistance than the parent compound, together with a reasonable total</text>
   <text y="238.92" x="76.535,81.047,86.595,92.509,98.718,104.846,109.358,112.671,115.628,121.369,124.326,127.639,132.181,134.67100000000002,138.604,146.51,149.467,152.3554,155.045,158.358,164.272,169.14,173.449,178.2298,180.948,187.055,190.886,196.435,202.542,207.409,211.423,214.736,217.693,222.561,226.7442,229.491,238.464,243.545,249.195,253.9758,256.684,259.997,265.911,268.868,273.0512,275.799,284.772,289.853,293.165,298.033,302.047,305.004,310.085,312.97339999999997,315.664,320.644,323.376,329.026,334.575,340.123,346.1986,348.954,353.466,358.547,361.859,367.774,373.322,379.531,384.3118,387.02,391.532,396.613,402.527,408.736,411.693,417.902,422.983,426.296,431.0768,433.785,437.169,442.717,446.70099999999996,449.353,453.662,459.21,462.167,465.124,471.19960000000003,473.955,479.503,484.747,487.704,493.913,498.6938,501.402,504.786,510.914,515.781" svgx:width="0.44,0.55,0.58,0.61,0.6,0.44,0.33,0.29,0.56,0.29,0.33,0.56,0.25,0.55,0.78,0.29,0.29,0.55,0.33,0.58,0.48,0.42,0.48,0.55,0.6,0.4,0.55,0.6,0.48,0.4,0.33,0.29,0.48,0.42,0.55,0.88,0.5,0.56,0.48,0.55,0.33,0.58,0.29,0.42,0.55,0.88,0.5,0.33,0.48,0.4,0.29,0.5,0.29,0.55,0.5,0.55,0.56,0.55,0.55,0.61,0.55,0.44,0.5,0.33,0.58,0.55,0.61,0.48,0.55,0.44,0.5,0.58,0.61,0.29,0.61,0.5,0.33,0.48,0.55,0.33,0.55,0.4,0.55,0.42,0.55,0.29,0.29,0.61,0.55,0.55,0.52,0.29,0.61,0.48,0.55,0.33,0.6,0.48,0.29" style="fill:rgb(0,0,0);font-family:URWPalladioL-Roma;font-size:9.96px;stroke:none;">conductivity. All these properties make this material a good cathode candidate for solid oxide fuel</text>
   <text y="252.429" x="76.535,80.958,85.73,88.63,91.529,95.7122,98.244,104.231,109.003,112.938,116.256,121.695,125.631,134.428,137.327,143.125,148.7026,151.155,156.136,159.4228,161.875,164.774,170.572,173.82,178.592,182.527,191.324,196.096,202.183,205.082,210.064,213.311,218.0918,220.574,223.822,228.594,237.391,243.379,248.151,252.086,257.067,260.315,266.322,270.078,274.85,279.0332,281.565,284.883,288.24,293.799,297.117,302.347,310.178,315.717,322.781,326.098" svgx:width="0.44,0.48,0.29,0.29,0.42,0.55,0.6,0.48,0.4,0.33,0.55,0.4,0.88,0.29,0.58,0.56,0.55,0.5,0.33,0.55,0.29,0.58,0.33,0.48,0.4,0.88,0.48,0.61,0.29,0.5,0.33,0.48,0.55,0.33,0.48,0.88,0.6,0.48,0.4,0.5,0.33,0.6,0.4,0.48,0.42,0.55,0.33,0.34,0.61,0.33,0.52,0.79,0.56,0.71,0.33,0.25" style="fill:rgb(0,0,0);font-family:URWPalladioL-Roma;font-size:9.96px;stroke:none;">cells performing at intermediate temperatures (IT-SOFC).</text>
   <text y="274.517" x="76.186,83.162,88.64,91.626,97.105,102.09,105.5883,107.497,113.97,118.956,124.434,127.42,130.908,133.894,139.372,144.851,147.837,150.822,155.808,161.286,165.267" svgx:width="0.78,0.61,0.33,0.61,0.56,0.39,0.55,0.72,0.56,0.61,0.33,0.39,0.33,0.61,0.61,0.33,0.33,0.56,0.61,0.44,0.25" style="fill:rgb(0,0,0);font-family:URWPalladioL-Bold;font-size:8.97px;stroke:none;">Author Contributions:</text>
   <text y="274.517" x="170.486,176.716,181.514,186.628,190.529,194.738,200.019,202.884,208.183,212.576,215.133,217.69,222.084,226.477,229.342,231.899,236.697,241.811,244.0535,245.993,248.919,251.116,257.953,260.149,266.986,269.182,271.4245,273.4,278.286,283.584,288.699,294.067,296.624,301.739,306.76219999999995,308.549,312.942,316.844,321.764,327.063,329.62,333.346,335.903,338.767,341.324,346.122,351.236,353.4785,355.419,358.345,360.542,367.378,369.575,376.402,378.608,380.8505,382.826,385.787,390.901,395.866,400.075,403.8,406.665,409.222,414.108,418.501,421.366,423.923,428.72,433.835,436.0775,438.017,440.943,443.14,449.976,452.173,459.01,461.206,463.4485,465.389,470.002,472.199,476.812,479.009,481.2515,483.192,488.376,490.573,496.803,499.0,501.2425,503.182,508.551,510.748,515.467,517.663" svgx:width="0.71,0.55,0.58,0.44,0.48,0.6,0.33,0.6,0.5,0.29,0.29,0.5,0.5,0.33,0.29,0.55,0.58,0.25,0.55,0.33,0.25,0.78,0.25,0.78,0.25,0.25,0.55,0.56,0.6,0.58,0.61,0.29,0.58,0.56,0.55,0.5,0.44,0.56,0.6,0.29,0.42,0.29,0.33,0.29,0.55,0.58,0.25,0.55,0.33,0.25,0.78,0.25,0.78,0.25,0.25,0.55,0.34,0.58,0.56,0.48,0.42,0.33,0.29,0.56,0.5,0.33,0.29,0.55,0.58,0.25,0.55,0.33,0.25,0.78,0.25,0.78,0.25,0.25,0.55,0.52,0.25,0.52,0.25,0.25,0.55,0.72,0.25,0.71,0.25,0.25,0.55,0.61,0.25,0.61,0.25,0.25" style="fill:rgb(0,0,0);font-family:URWPalladioL-Roma;font-size:8.97px;stroke:none;">Conceptualization, J.A.A.; Funding acquisition, J.A.A.; Investigation, J.A.A., S.S., V.C., L.T.,</text>
   <text y="284.649" x="76.186,83.12,85.348,90.794,93.022,98.468,100.696,102.9385,105.161,113.592,115.82,120.624,122.852,126.979,129.207,132.175,139.073,141.301,143.5435,145.776,154.207,158.476,161.382,166.569,171.435,176.881,181.747,184.34,189.207,194.162,198.119,200.3615,202.593,205.552,207.781,214.715,216.943,223.877,226.105,228.3475,230.579,235.258,237.486,242.165,244.394,246.6365,248.859,254.144,256.372,262.691,264.919,267.1615,269.384,274.83,277.058,281.862,284.09,286.3325,288.555,295.489,297.718,303.163,305.391,310.837,313.065,315.3075,317.53,325.962,328.19,332.994,335.222,339.348,341.577,344.544,351.443,353.671,355.9135,358.145,363.528,366.888,371.755,373.84,378.109,382.066,385.0261,387.209,391.665,397.111,404.981,407.574,412.761,415.355,419.134,422.039,425.56,430.016,432.922,435.515,440.382,445.569,447.8115,450.034,453.002,455.23,462.164,464.392,471.326,473.554,475.7965,478.028,483.982,488.251,492.03,496.896,502.271,505.631,509.588,513.857,517.636" svgx:width="0.78,0.25,0.61,0.25,0.61,0.25,0.25,0.55,0.95,0.25,0.61,0.25,0.56,0.25,0.33,0.77,0.25,0.25,0.55,0.95,0.48,0.33,0.58,0.55,0.61,0.55,0.29,0.55,0.56,0.56,0.25,0.55,0.33,0.25,0.78,0.25,0.78,0.25,0.25,0.55,0.52,0.25,0.52,0.25,0.25,0.55,0.72,0.25,0.71,0.25,0.25,0.55,0.61,0.25,0.61,0.25,0.25,0.55,0.78,0.25,0.61,0.25,0.61,0.25,0.25,0.55,0.95,0.25,0.61,0.25,0.56,0.25,0.33,0.77,0.25,0.25,0.55,0.6,0.4,0.55,0.23,0.48,0.44,0.33,0.55,0.5,0.61,0.88,0.29,0.58,0.29,0.42,0.33,0.4,0.5,0.33,0.29,0.55,0.58,0.25,0.55,0.33,0.25,0.78,0.25,0.78,0.25,0.25,0.55,0.67,0.48,0.42,0.55,0.6,0.4,0.44,0.48,0.42,0.25" style="fill:rgb(0,0,0);font-family:URWPalladioL-Roma;font-size:8.97px;stroke:none;">A.L.L., M.T.F.-D.; Methodology, J.A.A., S.S., V.C., L.T., A.L.L., M.T.F.-D.; Project administration, J.A.A.; Resources,</text>
   <text y="294.781" x="76.383,79.429,81.715,88.83,91.117,98.232,100.519,102.76150000000001,105.037,113.515,117.127,119.789,122.77,125.432,130.754,135.839,144.985,149.979,153.591,156.253,161.338,163.999,169.322,173.895,176.49630000000002,178.779,184.367,187.979,192.552,195.598,198.579,200.82150000000001,203.097,206.143,208.429,215.544,217.831,224.946,227.233,229.4755,231.741,236.543,238.829,243.631,245.917,248.1595,250.435,255.877,258.164,264.648,266.934,269.17650000000003,271.452,277.04,279.327,284.265,286.552,288.7945,291.07,298.185,300.472,306.06,308.346,313.934,316.221,318.4635,320.73,329.381,331.668,336.616,338.902,343.164,345.45,348.496,355.575,357.861,360.1035,362.37,370.857,374.47,377.131,380.113,382.774,388.097,393.182,402.328,405.776,410.156,415.324,417.985,422.366,429.8111,432.216,439.2126,441.554,445.935,451.523,454.184,457.165,459.827,465.15,470.235,472.4775,474.753,477.798,480.085,487.2,489.487,496.602,498.888,501.1305,503.397,508.199,510.485,515.287,517.573" svgx:width="0.33,0.25,0.78,0.25,0.78,0.25,0.25,0.55,1.0,0.4,0.29,0.33,0.29,0.58,0.56,1.0,0.55,0.4,0.29,0.56,0.29,0.58,0.5,0.29,0.55,0.61,0.4,0.5,0.33,0.33,0.25,0.55,0.33,0.25,0.78,0.25,0.78,0.25,0.25,0.55,0.52,0.25,0.52,0.25,0.25,0.55,0.72,0.25,0.71,0.25,0.25,0.55,0.61,0.25,0.61,0.25,0.25,0.55,0.78,0.25,0.61,0.25,0.61,0.25,0.25,0.55,0.95,0.25,0.61,0.25,0.56,0.25,0.33,0.77,0.25,0.25,0.55,1.0,0.4,0.29,0.33,0.29,0.58,0.56,1.0,0.4,0.48,0.56,0.29,0.48,0.83,0.55,0.78,0.55,0.48,0.61,0.29,0.33,0.29,0.58,0.56,0.25,0.55,0.33,0.25,0.78,0.25,0.78,0.25,0.25,0.55,0.52,0.25,0.52,0.25,0.25" style="fill:rgb(0,0,0);font-family:URWPalladioL-Roma;font-size:8.97px;stroke:none;">J.A.A.; Writing—original draft, J.A.A., S.S., V.C., L.T., A.L.L., M.T.F.-D.; Writing—review &amp; editing, J.A.A., S.S.,</text>
   <text y="304.913" x="76.213,81.53,83.772,90.129,92.37,94.61250000000001,96.854,102.332,104.574,109.407,111.648,113.8905,116.131,123.107,125.349,130.827,133.069,138.547,140.789,143.0315,145.272,153.754,155.996,160.829,163.071,167.231,169.473,172.458,179.398" svgx:width="0.72,0.25,0.71,0.25,0.25,0.55,0.61,0.25,0.61,0.25,0.25,0.55,0.78,0.25,0.61,0.25,0.61,0.25,0.25,0.55,0.95,0.25,0.61,0.25,0.56,0.25,0.33,0.77,0.25" style="fill:rgb(0,0,0);font-family:URWPalladioL-Roma;font-size:8.97px;stroke:none;">V.C., L.T., A.L.L., M.T.F.-D.</text>
   <text y="321.022" x="76.535,81.52,86.999,92.477,97.956,100.942,106.42,111.405" svgx:width="0.56,0.61,0.61,0.61,0.33,0.61,0.56,0.25" style="fill:rgb(0,0,0);font-family:URWPalladioL-Bold;font-size:8.97px;stroke:none;">Funding:</text>
   <text y="321.022" x="118.699,124.305,129.628,132.29,136.0574,139.368,142.816,147.197,151.075,155.456,160.029,163.476,167.537,172.7396,176.061,183.689,188.261,192.0284,195.34,198.386,203.901,209.223,214.811,219.192,224.6637,227.972,233.03,238.0532,241.316,246.117,251.614,256.187,261.51,264.171,268.049,273.2516,276.573,285.224,287.886,293.209,295.87,299.748,302.729,306.342,311.36519999999996,314.628,319.621,322.5811,325.859,328.941,334.264,339.852,345.367,349.245,352.226,355.839,360.8622,364.125,368.697,374.02,379.4917,382.809,389.294,394.287,402.363,407.859,412.24,415.222,417.883,420.865,423.526,428.693,433.074,438.397,442.778,446.656,450.533,452.7755,456.25,461.746,465.203,470.197,472.337,476.718,480.778,483.73810000000003,486.952,492.275,497.789,505.865,510.923,515.303" svgx:width="0.61,0.58,0.29,0.42,0.55,0.4,0.48,0.42,0.48,0.5,0.4,0.44,0.58,0.55,0.83,0.5,0.42,0.55,0.33,0.6,0.58,0.61,0.48,0.61,0.55,0.55,0.56,0.55,0.52,0.6,0.5,0.58,0.29,0.42,0.58,0.55,0.95,0.29,0.58,0.29,0.42,0.33,0.4,0.56,0.55,0.55,0.33,0.55,0.34,0.58,0.61,0.6,0.42,0.33,0.4,0.56,0.55,0.5,0.58,0.61,0.55,0.71,0.55,0.88,0.6,0.48,0.33,0.29,0.33,0.29,0.56,0.48,0.58,0.48,0.42,0.42,0.25,0.55,0.6,0.4,0.55,0.23,0.48,0.44,0.33,0.55,0.58,0.6,0.88,0.55,0.48,0.4" style="fill:rgb(0,0,0);font-family:URWPalladioL-Roma;font-size:8.97px;stroke:none;">This research was funded by Spanish Ministry of Industry and Competitiveness, project number</text>
   <text y="331.154" x="76.535,85.017,91.33,96.826,101.309,105.792,110.276,114.759,117.745,122.228,126.711,131.194,135.677,140.161,143.146,149.136,151.3785,153.619,158.327,163.715,168.199,170.808,176.026" svgx:width="0.95,0.78,0.61,0.5,0.5,0.5,0.5,0.33,0.5,0.5,0.5,0.5,0.5,0.33,0.67,0.25,0.55,0.52,0.6,0.5,0.29,0.58,0.25" style="fill:rgb(0,0,0);font-family:URWPalladioL-Roma;font-size:8.97px;stroke:none;">MAT2017-84496-R, Spain.</text>
   <text y="347.264" x="76.186,83.162,87.143,92.621,98.1,103.085,110.554,113.54,118.023,123.502,128.487,136.458,140.941,146.42,149.406,153.387" svgx:width="0.78,0.44,0.61,0.61,0.56,0.83,0.33,0.5,0.61,0.56,0.89,0.5,0.61,0.33,0.44,0.25" style="fill:rgb(0,0,0);font-family:URWPalladioL-Bold;font-size:8.97px;stroke:none;">Acknowledgments:</text>
   <text y="347.264" x="158.76,166.91,171.2156,173.444,176.37,181.593,186.081,191.305,196.3282,198.521,201.447,206.671,210.9766,213.205,218.635,223.858,228.346,233.57,237.555,240.167,244.654,247.2553,249.492,253.298,258.71,264.104,269.498,274.399,277.944,280.9041,283.105,288.005,290.9651,293.229,296.155,301.379,305.68460000000005,307.904,312.616,318.01,322.498,327.721,330.333,334.139,339.3416,341.597,350.088,352.7,357.923,360.535,364.341,367.267,370.812,375.8352,378.028,382.929,385.8891,388.152,391.177,396.401,401.885,407.297,411.102,414.028,417.574,422.5972,424.799,429.286,434.51,439.9817,442.22,448.583,453.484,461.409,466.803,471.103,474.029,476.64,479.566,482.178,487.249,491.548,496.772,501.071,504.877,508.6444,510.917,513.843" svgx:width="1.0,0.48,0.55,0.33,0.58,0.5,0.58,0.56,0.55,0.33,0.58,0.48,0.55,0.61,0.58,0.5,0.58,0.44,0.29,0.5,0.29,0.55,0.42,0.6,0.6,0.6,0.55,0.4,0.33,0.55,0.55,0.33,0.55,0.33,0.58,0.48,0.55,0.52,0.6,0.5,0.58,0.29,0.42,0.58,0.55,0.95,0.29,0.58,0.29,0.42,0.33,0.4,0.56,0.55,0.55,0.33,0.55,0.34,0.58,0.61,0.6,0.42,0.33,0.4,0.56,0.55,0.5,0.58,0.61,0.55,0.71,0.55,0.88,0.6,0.48,0.33,0.29,0.33,0.29,0.56,0.48,0.58,0.48,0.42,0.42,0.55,0.33,0.55" style="fill:rgb(0,0,0);font-family:URWPalladioL-Roma;font-size:8.97px;stroke:none;">We thank the ﬁnancial support of the Spanish Ministry of Industry and Competitiveness to</text>
   <text y="357.396" x="76.535,79.458,84.676,88.9816,91.213,96.602,99.982,104.878,106.976,111.271,115.252,118.21209999999999,120.417,128.899,135.211,140.708,145.191,149.674,154.157,158.64,161.626,166.109,170.593,175.076,179.559,184.042,187.028,193.018,195.2605,197.501,205.642,209.9476,212.179,215.102,220.32,224.803,230.022,235.0452,237.249,240.172,245.39,249.69559999999998,251.927,254.949,260.167,263.969,266.892,269.501,272.424,277.831,280.79110000000003,282.995,288.474,292.957,298.364,302.659,305.644,311.123,315.606,320.825,325.81,330.105,335.171,337.78,342.9826,345.24,348.226,351.248,356.726,362.205,365.1651,367.432,370.418,375.313,378.901,381.097,389.014,393.497,398.483,401.092,406.31,411.3332,413.537,418.02,420.63,423.2313,425.48,428.466,432.949,436.931,439.54,442.149,444.758,447.681,450.29,454.585,458.3524,460.629,465.112,470.178,474.661,477.27,479.88,484.363,489.321,491.93,496.225" svgx:width="0.33,0.58,0.48,0.55,0.6,0.4,0.55,0.23,0.48,0.44,0.33,0.55,0.95,0.78,0.61,0.5,0.5,0.5,0.5,0.33,0.5,0.5,0.5,0.5,0.5,0.33,0.67,0.25,0.55,1.0,0.48,0.55,0.33,0.58,0.5,0.58,0.56,0.55,0.33,0.58,0.48,0.55,0.34,0.58,0.42,0.33,0.29,0.33,0.6,0.33,0.55,0.61,0.5,0.6,0.48,0.33,0.61,0.5,0.58,0.56,0.48,0.56,0.29,0.58,0.55,0.33,0.34,0.61,0.61,0.33,0.55,0.33,0.55,0.4,0.55,0.88,0.5,0.56,0.29,0.58,0.56,0.55,0.5,0.29,0.29,0.55,0.33,0.5,0.44,0.29,0.29,0.29,0.33,0.29,0.48,0.42,0.55,0.5,0.56,0.5,0.29,0.29,0.5,0.55,0.29,0.48,0.25" style="fill:rgb(0,0,0);font-family:URWPalladioL-Roma;font-size:8.97px;stroke:none;">the project MAT2017-84496-R. We thank the Institut Laue-Langevin (ILL) for making all facilities available.</text>
   <text y="373.506" x="76.535,83.009,87.994,93.473,98.951,101.937,105.918,108.904,112.85079999999999,115.126,120.112,123.6103,125.841,129.329,134.808,137.793,142.277,145.765,150.248,154.229,157.215" svgx:width="0.72,0.56,0.61,0.61,0.33,0.44,0.33,0.44,0.55,0.56,0.39,0.55,0.39,0.61,0.33,0.5,0.39,0.5,0.44,0.33,0.25" style="fill:rgb(0,0,0);font-family:URWPalladioL-Bold;font-size:8.97px;stroke:none;">Conﬂicts of Interest:</text>
   <text y="373.506" x="162.594,168.09,173.309,177.6146,179.845,184.329,189.735,192.658,197.877,202.772,206.314,210.0814,212.358,217.836,222.131,226.112,228.721,233.204,236.585,240.8906,243.121,248.34,253.2735,255.477,259.458,264.354,269.572,275.024,277.633,281.614,284.5741,286.779,291.674,294.6341,296.902,299.511,304.729,307.652,311.947,315.328,319.623,323.424,326.347" svgx:width="0.61,0.58,0.48,0.55,0.5,0.6,0.33,0.58,0.55,0.4,0.42,0.55,0.61,0.48,0.44,0.29,0.5,0.4,0.48,0.55,0.58,0.55,0.55,0.44,0.55,0.58,0.61,0.29,0.44,0.33,0.55,0.55,0.33,0.55,0.29,0.58,0.33,0.48,0.4,0.48,0.42,0.33,0.25" style="fill:rgb(0,0,0);font-family:URWPalladioL-Roma;font-size:8.97px;stroke:none;">The authors declare no conﬂict of interest.</text>
   <text y="399.807" x="76.535,83.728,88.709,92.585,97.566,101.441,106.423,112.51,116.933,121.915" svgx:width="0.72,0.5,0.39,0.5,0.39,0.5,0.61,0.44,0.5,0.44" style="fill:rgb(0,0,0);font-family:URWPalladioL-Bold;font-size:9.96px;stroke:none;">References</text>
   <text y="418.696" x="76.535,81.018,83.26050000000001,98.05,105.061,109.062,112.459,116.775,120.596,122.83850000000001,125.093,131.968,134.221,137.222,139.475,146.017,148.2595,150.522,156.542,160.858,164.859,169.176,174.42,177.3801,179.602,184.107,189.613,194.704,199.21,204.455,208.456,212.772,216.5394,218.837,221.459,226.6616,228.947,231.948,237.382,241.698,244.29930000000002,246.573,250.574,254.89,257.513,260.11429999999996,262.379,265.316,269.633,273.634,278.878,284.123,289.043,291.665,296.585,301.596,306.6192,308.85,313.355,318.6,324.0717,326.35,328.972,331.909,335.6764,337.983,342.489,347.904,353.32,355.942,358.565,362.566,367.071,370.009,372.631,377.551,382.796,386.617" svgx:width="0.5,0.25,0.55,0.78,0.44,0.4,0.48,0.42,0.25,0.55,0.76,0.25,0.33,0.25,0.73,0.25,0.55,0.67,0.48,0.44,0.48,0.58,0.33,0.55,0.5,0.61,0.56,0.5,0.58,0.44,0.48,0.42,0.55,0.29,0.58,0.55,0.33,0.6,0.48,0.29,0.55,0.44,0.48,0.29,0.29,0.55,0.33,0.48,0.44,0.58,0.58,0.55,0.29,0.55,0.56,0.56,0.55,0.5,0.58,0.61,0.55,0.29,0.33,0.42,0.55,0.5,0.6,0.6,0.29,0.29,0.44,0.5,0.33,0.29,0.55,0.58,0.42,0.25" style="fill:rgb(0,0,0);font-family:URWPalladioL-Roma;font-size:8.97px;stroke:none;">1. Acres, G.J.K. Recent advances in fuel cell technology and its applications.</text>
   <text y="418.696" x="392.019,395.02,397.2625,399.516,405.022,409.023,415.529,419.035,422.53330000000005,424.793,429.794,433.795,438.805,442.158,445.825,449.33" svgx:width="0.33,0.25,0.55,0.61,0.44,0.72,0.39,0.39,0.55,0.56,0.44,0.56,0.39,0.41,0.39,0.39" style="fill:rgb(0,0,0);font-family:URWPalladioL-Ital;font-size:8.97px;stroke:none;">J. Power Sources</text>
   <text y="418.696" x="455.078,459.561,464.044,468.528" svgx:width="0.5,0.5,0.5,0.5" style="fill:rgb(0,0,0);font-family:URWPalladioL-Bold;font-size:8.97px;stroke:none;">2001</text>
   <text y="418.696" x="473.011" svgx:width="0.25" style="fill:rgb(0,0,0);font-family:URWPalladioL-Roma;font-size:8.97px;stroke:none;">,</text>
   <text y="418.696" x="477.511,482.017,486.522" svgx:width="0.5,0.5,0.5" style="fill:rgb(0,0,0);font-family:URWPalladioL-Ital;font-size:8.97px;stroke:none;">100</text>
   <text y="418.696" x="491.028,493.2705,495.525,500.03,504.536,509.041,513.547,518.053" svgx:width="0.25,0.55,0.5,0.5,0.5,0.5,0.5,0.25" style="fill:rgb(0,0,0);font-family:URWPalladioL-Roma;font-size:8.97px;stroke:none;">, 60–66.</text>
   <text y="431.608" x="98.05" svgx:width="0.33" style="fill:rgb(0,0,0);font-family:URWPalladioL-Roma;font-size:8.97px;stroke:none;">[</text>
   <text y="431.608" x="101.036,107.393,110.773,115.669,119.471,123.272,129.262,133.557" svgx:width="0.71,0.4,0.55,0.42,0.42,0.67,0.48,0.33" style="fill:rgb(8,117,183);font-family:URWPalladioL-Roma;font-size:8.97px;stroke:none;">CrossRef</text>
   <text y="431.608" x="136.543" svgx:width="0.33" style="fill:rgb(0,0,0);font-family:URWPalladioL-Roma;font-size:8.97px;stroke:none;">]</text>
   <text y="444.519" x="76.535,81.018,83.26050000000001,98.05,102.771,108.006,112.502,117.413,119.6555,121.909,127.908,130.156,132.3985,134.653,140.651,145.885,150.796,156.219,158.4615,160.715,168.881,171.13,173.3725,175.626,181.625,186.859,192.282,194.52450000000002,196.778,202.777,205.0195,207.274,214.27,219.765,224.846,229.343,234.577,238.57,242.878,248.34969999999998,250.621,254.434,259.435,264.669,267.601,272.835,277.143,280.956,283.573,287.3404,289.625,294.536,297.4961,299.779,307.72,312.216,315.148,319.456,323.008,325.625,330.122,332.739,336.5064,338.801,341.795,346.706,350.29400000000004,352.506,355.123,360.358,363.289,367.597,371.15,379.091,383.398,388.893,391.51,396.007,398.939,403.247,406.241,409.173,413.481,421.422,426.827,431.135,434.687,439.184,442.116,447.539,450.929,455.2346,457.485,461.298,466.209,468.826,471.443,476.9147,479.177,484.087,488.728,491.345,496.84,501.1456,503.396,506.391,511.814,516.122" svgx:width="0.5,0.25,0.55,0.52,0.58,0.5,0.55,0.25,0.55,0.67,0.25,0.25,0.55,0.67,0.58,0.55,0.6,0.25,0.55,1.0,0.25,0.25,0.55,0.67,0.58,0.6,0.25,0.55,0.67,0.25,0.55,0.78,0.61,0.56,0.5,0.58,0.44,0.48,0.61,0.55,0.42,0.56,0.58,0.33,0.58,0.48,0.42,0.29,0.42,0.55,0.55,0.33,0.55,0.88,0.5,0.33,0.48,0.4,0.29,0.5,0.29,0.42,0.55,0.33,0.55,0.4,0.55,0.29,0.58,0.33,0.48,0.4,0.88,0.48,0.61,0.29,0.5,0.33,0.48,0.33,0.33,0.48,0.88,0.6,0.48,0.4,0.5,0.33,0.6,0.4,0.48,0.55,0.42,0.55,0.29,0.29,0.61,0.55,0.55,0.52,0.29,0.61,0.48,0.55,0.33,0.6,0.48,0.29" style="fill:rgb(0,0,0);font-family:URWPalladioL-Roma;font-size:8.97px;stroke:none;">2. Shao, Z.; Zhou, W.; Zhu, Z. Advanced synthesis of materials for intermediate-temperature solid oxide fuel</text>
   <text y="457.431" x="98.05,102.031,106.326,108.935,111.544,115.346" svgx:width="0.44,0.48,0.29,0.29,0.42,0.25" style="fill:rgb(0,0,0);font-family:URWPalladioL-Roma;font-size:8.97px;stroke:none;">cells.</text>
   <text y="457.431" x="120.726,126.204,129.531,133.512,137.995,140.2375,143.375,151.839,155.82,158.806,162.294,165.119,167.3615,170.498,175.484,179.133,181.626" svgx:width="0.61,0.39,0.44,0.5,0.25,0.55,0.94,0.44,0.33,0.39,0.39,0.25,0.55,0.56,0.41,0.28,0.25" style="fill:rgb(0,0,0);font-family:URWPalladioL-Ital;font-size:8.97px;stroke:none;">Prog. Mater. Sci.</text>
   <text y="457.431" x="187.005,191.488,195.971,200.455" svgx:width="0.5,0.5,0.5,0.5" style="fill:rgb(0,0,0);font-family:URWPalladioL-Bold;font-size:8.97px;stroke:none;">2012</text>
   <text y="457.431" x="204.938" svgx:width="0.25" style="fill:rgb(0,0,0);font-family:URWPalladioL-Roma;font-size:8.97px;stroke:none;">,</text>
   <text y="457.431" x="209.421,213.904" svgx:width="0.5,0.5" style="fill:rgb(0,0,0);font-family:URWPalladioL-Ital;font-size:8.97px;stroke:none;">57</text>
   <text y="457.431" x="218.387,220.6295,222.87,227.353,231.837,236.32,240.803,245.286,249.769,254.253,256.4955,259.632" svgx:width="0.25,0.55,0.5,0.5,0.5,0.5,0.5,0.5,0.5,0.25,0.55,0.33" style="fill:rgb(0,0,0);font-family:URWPalladioL-Roma;font-size:8.97px;stroke:none;">, 804–874. [</text>
   <text y="457.431" x="262.618,268.975,272.356,277.251,281.053,284.855,290.844,295.139" svgx:width="0.71,0.4,0.55,0.42,0.42,0.67,0.48,0.33" style="fill:rgb(8,117,183);font-family:URWPalladioL-Roma;font-size:8.97px;stroke:none;">CrossRef</text>
   <text y="457.431" x="298.125" svgx:width="0.33" style="fill:rgb(0,0,0);font-family:URWPalladioL-Roma;font-size:8.97px;stroke:none;">]</text>
   <text y="470.343" x="76.535,81.018,83.26050000000001,98.05,105.352,107.909,111.811,116.925,121.722,124.279,128.673,132.399,134.6415,136.599,139.525,141.722,148.523,150.7655,152.714,160.025,162.582,167.468,172.582,175.139,177.696,182.582,187.696,190.56,194.3274,196.289,199.216,202.519,207.317,217.08,219.944,225.058,229.3636,231.262,235.656,240.049,244.443,248.92800000000003,250.84,258.142,262.535,265.4,267.957,272.755,277.869,282.262,284.8633,286.823,291.436,295.337,297.894,302.095,307.209,311.11,315.41560000000004,317.323,322.208,327.006,332.305,337.419,342.787,347.181,350.046,352.603,357.4,362.6026,364.518,369.131,373.929,376.486,379.043,384.5147,386.406,393.313,397.847,400.404,405.773,410.07860000000005,411.986,416.871,422.17,426.379,428.9803,430.931,437.161,441.37,443.927,446.5283,448.487,453.795,457.098,461.896,469.655,472.212,475.938,480.147,482.3895,484.391,489.699,493.011,497.809,502.695,506.007,510.216,513.942,517.668" svgx:width="0.5,0.25,0.55,0.83,0.29,0.44,0.58,0.55,0.29,0.5,0.42,0.25,0.55,0.33,0.25,0.77,0.25,0.55,0.83,0.29,0.56,0.58,0.29,0.29,0.56,0.58,0.33,0.42,0.55,0.33,0.4,0.55,0.88,0.33,0.58,0.48,0.55,0.5,0.5,0.5,0.5,0.55,0.83,0.5,0.33,0.29,0.55,0.58,0.5,0.29,0.55,0.52,0.44,0.29,0.48,0.58,0.44,0.48,0.55,0.56,0.55,0.6,0.58,0.61,0.5,0.33,0.29,0.55,0.58,0.55,0.52,0.55,0.29,0.29,0.61,0.55,0.79,0.52,0.29,0.61,0.48,0.55,0.56,0.6,0.48,0.29,0.55,0.71,0.48,0.29,0.29,0.55,0.6,0.4,0.55,0.88,0.29,0.42,0.48,0.25,0.55,0.6,0.4,0.55,0.56,0.4,0.48,0.42,0.42,0.25" style="fill:rgb(0,0,0);font-family:URWPalladioL-Roma;font-size:8.97px;stroke:none;">3. Nicholas, J.D. Highlights fromthe 2013 National Science Foundation Solid Oxide Fuel Cell Promise, Progress,</text>
   <text y="483.254" x="98.05,102.533,107.752,113.2237,115.472,120.887,124.429,127.038,131.934,135.476,138.085,141.008,143.617,147.912,151.67940000000002,153.956,156.941,161.649,168.696,173.682,180.039,183.025,188.44,193.856,199.272,202.2321,204.499,212.641,217.536,221.078,226.063,229.865,235.084,239.979,245.368" svgx:width="0.5,0.58,0.61,0.55,0.6,0.4,0.29,0.55,0.4,0.29,0.33,0.29,0.48,0.42,0.55,0.33,0.52,0.79,0.56,0.71,0.33,0.6,0.6,0.6,0.33,0.55,1.0,0.55,0.4,0.56,0.42,0.58,0.55,0.6,0.25" style="fill:rgb(0,0,0);font-family:URWPalladioL-Roma;font-size:8.97px;stroke:none;">and Priorities (SOFC-PPP) Workshop.</text>
   <text y="483.254" x="250.746,253.732,258.717,261.703,265.191,268.679,271.171,275.152,278.802,282.3003,284.531,292.996,296.977,301.46" svgx:width="0.33,0.56,0.33,0.39,0.39,0.28,0.44,0.41,0.39,0.55,0.94,0.44,0.5,0.25" style="fill:rgb(0,0,0);font-family:URWPalladioL-Ital;font-size:8.97px;stroke:none;">Interface Mag.</text>
   <text y="483.254" x="306.839,311.322,315.805,320.289" svgx:width="0.5,0.5,0.5,0.5" style="fill:rgb(0,0,0);font-family:URWPalladioL-Bold;font-size:8.97px;stroke:none;">2016</text>
   <text y="483.254" x="324.772" svgx:width="0.25" style="fill:rgb(0,0,0);font-family:URWPalladioL-Roma;font-size:8.97px;stroke:none;">,</text>
   <text y="483.254" x="329.255,333.738" svgx:width="0.5,0.5" style="fill:rgb(0,0,0);font-family:URWPalladioL-Ital;font-size:8.97px;stroke:none;">22</text>
   <text y="483.254" x="338.222,340.4645,342.705,347.188,351.672,356.155,360.638,365.121,367.3635,370.501" svgx:width="0.25,0.55,0.5,0.5,0.5,0.5,0.5,0.25,0.55,0.33" style="fill:rgb(0,0,0);font-family:URWPalladioL-Roma;font-size:8.97px;stroke:none;">, 49–54. [</text>
   <text y="483.254" x="373.487,379.844,383.224,388.12,391.922,395.724,401.713,406.008" svgx:width="0.71,0.4,0.55,0.42,0.42,0.67,0.48,0.33" style="fill:rgb(8,117,183);font-family:URWPalladioL-Roma;font-size:8.97px;stroke:none;">CrossRef</text>
   <text y="483.254" x="408.994" svgx:width="0.33" style="fill:rgb(0,0,0);font-family:URWPalladioL-Roma;font-size:8.97px;stroke:none;">]</text>
   <text y="496.166" x="76.535,81.018,83.26050000000001,98.05,105.165,110.25,115.765,120.338,125.926,130.307,133.755,138.748,140.9905,146.687,153.802,156.089,158.3315,165.719,170.804,175.377,183.005,187.065,191.446,194.428,197.409,199.6515,205.348,210.936,213.222,215.46450000000002,222.853,227.636,232.209,237.724,242.781,245.0235,250.72,255.521,257.808,260.0505,267.438,275.761,280.754,285.748,288.409,291.071,295.451,299.54,301.7825,307.478,313.587,315.874,318.11650000000003,325.504,334.202,339.717,341.9595,347.655,354.295,356.581,361.52,363.807,366.0495,373.446,379.546,385.061,387.3035,392.991,400.591,402.877,405.1195,412.517,419.157,421.818,424.479,429.802,434.183,437.128,439.3705,445.066,448.112,450.398,457.514,459.8,462.0425,469.431,474.232,479.317,481.979,487.301,492.624,497.005,499.959,502.2015,507.888,512.69,514.976,518.022" svgx:width="0.5,0.25,0.55,0.78,0.56,0.6,0.5,0.61,0.48,0.4,0.55,0.25,0.55,0.78,0.25,0.25,0.55,0.56,0.5,0.83,0.44,0.48,0.33,0.33,0.25,0.55,0.61,0.25,0.25,0.55,0.61,0.5,0.6,0.55,0.25,0.55,0.52,0.25,0.25,0.55,1.0,0.55,0.55,0.29,0.29,0.48,0.56,0.25,0.55,0.67,0.25,0.25,0.55,1.0,0.6,0.25,0.55,0.73,0.25,0.61,0.25,0.25,0.55,0.67,0.6,0.25,0.55,0.83,0.25,0.25,0.55,0.73,0.29,0.29,0.58,0.48,0.4,0.25,0.55,0.33,0.25,0.78,0.25,0.25,0.55,0.52,0.56,0.29,0.58,0.58,0.48,0.4,0.25,0.55,0.52,0.25,0.33,0.25" style="fill:rgb(0,0,0);font-family:URWPalladioL-Roma;font-size:8.97px;stroke:none;">4. Aguadero, A.; Fawcett, L.; Taub, S.; Woolley, R.; Wu, K.T.; Xu, N.; Kilner, J.A.; Skinner, S.J.</text>
   <text y="509.077" x="98.05,106.396,110.808,113.684,117.91,121.396,123.963,128.374,130.942,134.70940000000002,136.906,142.297,146.523,151.508,155.734,158.302,163.119,168.422,176.212,180.439,185.574,188.53410000000002,190.673,193.611,198.429,202.017,204.146,206.713,211.848,214.724,218.951,222.436,230.226,234.453,239.843,242.411,246.822,249.699,253.925,256.863,259.739,263.965,271.756,277.059,281.285,284.77,289.181,292.058,297.378,300.695,305.0006,307.145,310.886,315.703,318.27,320.838,326.3097,328.461,333.278,337.831,340.398,345.789,350.0946,352.239,356.465,359.032,363.259,367.176,370.052,373.379,378.196,382.113,387.248,391.474,399.265,401.833,405.75,410.161,412.7623,414.952,420.343,424.569,429.554,432.122,436.039,440.265,444.006" svgx:width="0.95,0.5,0.33,0.48,0.4,0.29,0.5,0.29,0.42,0.55,0.61,0.48,0.56,0.48,0.29,0.55,0.6,0.88,0.48,0.58,0.33,0.55,0.33,0.55,0.4,0.55,0.29,0.58,0.33,0.48,0.4,0.88,0.48,0.61,0.29,0.5,0.33,0.48,0.33,0.33,0.48,0.88,0.6,0.48,0.4,0.5,0.33,0.6,0.4,0.48,0.55,0.42,0.55,0.29,0.29,0.61,0.55,0.55,0.52,0.29,0.61,0.48,0.55,0.48,0.29,0.48,0.44,0.33,0.4,0.55,0.44,0.58,0.48,0.88,0.29,0.44,0.5,0.29,0.55,0.61,0.48,0.56,0.29,0.44,0.48,0.42,0.25" style="fill:rgb(0,0,0);font-family:URWPalladioL-Roma;font-size:8.97px;stroke:none;">Materials development for intermediate-temperature solid oxide electrochemical devices.</text>
   <text y="509.077" x="449.342,452.28,454.5225,456.709,465.038,468.955,471.893,475.326,478.096,480.3385,483.434,488.339,491.93,494.383" svgx:width="0.33,0.25,0.55,0.94,0.44,0.33,0.39,0.39,0.25,0.55,0.56,0.41,0.28,0.25" style="fill:rgb(0,0,0);font-family:URWPalladioL-Ital;font-size:8.97px;stroke:none;">J. Mater. Sci.</text>
   <text y="509.077" x="499.723,504.206,508.689,513.173" svgx:width="0.5,0.5,0.5,0.5" style="fill:rgb(0,0,0);font-family:URWPalladioL-Bold;font-size:8.97px;stroke:none;">2012</text>
   <text y="509.077" x="517.655" svgx:width="0.25" style="fill:rgb(0,0,0);font-family:URWPalladioL-Roma;font-size:8.97px;stroke:none;">,</text>
   <text y="521.989" x="97.826,102.309" svgx:width="0.5,0.5" style="fill:rgb(0,0,0);font-family:URWPalladioL-Ital;font-size:8.97px;stroke:none;">47</text>
   <text y="521.989" x="106.793,109.03550000000001,111.276,115.759,120.243,124.726,129.209,133.692,138.175,142.659,147.142,151.625,153.8675,157.005" svgx:width="0.25,0.55,0.5,0.5,0.5,0.5,0.5,0.5,0.5,0.5,0.5,0.25,0.55,0.33" style="fill:rgb(0,0,0);font-family:URWPalladioL-Roma;font-size:8.97px;stroke:none;">, 3925–3948. [</text>
   <text y="521.989" x="159.991,166.348,169.728,174.624,178.426,182.227,188.217,192.512" svgx:width="0.71,0.4,0.55,0.42,0.42,0.67,0.48,0.33" style="fill:rgb(8,117,183);font-family:URWPalladioL-Roma;font-size:8.97px;stroke:none;">CrossRef</text>
   <text y="521.989" x="195.498" svgx:width="0.33" style="fill:rgb(0,0,0);font-family:URWPalladioL-Roma;font-size:8.97px;stroke:none;">]</text>
   <text y="534.901" x="76.535,81.018,83.26050000000001,98.05,104.534,109.857,114.238,119.561,121.80350000000001,124.17,131.249,133.535,135.7775,138.181,144.666,149.989,154.369,159.692,161.9345,164.302,170.786,173.072,175.3145,177.718,183.819,189.141,193.714,199.037,204.122,206.36450000000002,208.732,214.832,217.118,219.3605,221.764,227.352,231.925,234.587,239.672,244.052,248.433,250.6755,253.043,259.143,261.429,270.081,272.368,274.6105,277.014,283.498,286.159,291.674,295.735,299.796,302.457,304.6995,307.066,311.328,313.615,315.8575,318.261,323.062,328.385,332.958,337.952,340.1945,342.561,348.661,350.9035,353.271,359.755,364.749,372.824,378.321,383.314,387.192,389.854,392.835,395.497,400.49,405.813,410.386,412.9873,415.37,419.751,425.074,430.159,432.82,438.143,442.524,446.905,450.517,453.179,458.501,463.52419999999995,465.9,470.894,473.8541,476.262,481.759,486.14,489.597,494.59,499.758,503.636,508.721,511.382,514.364" svgx:width="0.5,0.25,0.55,0.71,0.58,0.48,0.58,0.25,0.55,0.77,0.25,0.25,0.55,0.71,0.58,0.48,0.58,0.25,0.55,0.71,0.25,0.25,0.55,0.67,0.58,0.5,0.58,0.56,0.25,0.55,0.67,0.25,0.25,0.55,0.61,0.5,0.29,0.56,0.48,0.48,0.25,0.55,0.67,0.25,0.95,0.25,0.25,0.55,0.71,0.29,0.6,0.44,0.44,0.29,0.25,0.55,0.56,0.25,0.25,0.55,0.52,0.58,0.5,0.55,0.25,0.55,0.67,0.25,0.55,0.71,0.55,0.88,0.6,0.55,0.42,0.29,0.33,0.29,0.55,0.58,0.5,0.29,0.55,0.48,0.58,0.56,0.29,0.58,0.48,0.48,0.4,0.29,0.58,0.56,0.55,0.55,0.33,0.55,0.6,0.48,0.4,0.55,0.56,0.42,0.56,0.29,0.33,0.48" style="fill:rgb(0,0,0);font-family:URWPalladioL-Roma;font-size:8.97px;stroke:none;">5. Chen, D.; Chen, C.; Zhang, Z.; Baiyee, Z.M.; Ciucci, F.; Shao, Z. Compositional engineering of perovskite</text>
   <text y="547.812" x="98.05,103.044,107.763,110.424,116.012,120.393,124.1604,127.435,130.481,135.474,139.06199999999998,142.251,147.574,150.236,155.321,160.643,163.305,168.3282,171.554" svgx:width="0.55,0.52,0.29,0.61,0.48,0.42,0.55,0.33,0.55,0.4,0.55,0.58,0.29,0.56,0.58,0.29,0.56,0.55,0.48" style="fill:rgb(0,0,0);font-family:URWPalladioL-Roma;font-size:8.97px;stroke:none;">oxides for highly e</text>
   <text y="547.812" x="175.936" svgx:width="0.92" style="fill:rgb(0,0,0);font-family:Rpxr;font-size:8.97px;stroke:none;">ﬃ</text>
   <text y="547.812" x="184.34,188.401,191.062,195.443,200.766,203.7261,206.912,211.905,216.624,221.709,226.794,231.175,236.3776,239.662,243.11,247.491,253.079,258.594,262.655,265.636,268.298,273.291,278.4936,281.779,285.236,289.616,294.189,298.25,301.232,303.893,308.886,314.209,318.087" svgx:width="0.44,0.29,0.48,0.58,0.33,0.55,0.55,0.52,0.56,0.56,0.48,0.58,0.55,0.4,0.48,0.61,0.6,0.44,0.33,0.29,0.55,0.58,0.55,0.4,0.48,0.5,0.44,0.33,0.29,0.55,0.58,0.42,0.25" style="fill:rgb(0,0,0);font-family:URWPalladioL-Roma;font-size:8.97px;stroke:none;">cient oxygen reduction reactions.</text>
   <text y="547.812" x="326.278,332.881,338.981,344.00419999999997,347.231,353.834,358.407,362.98,365.522,367.7645,373.717,382.35,386.411,389.457,393.014,395.904,398.1465,404.099,407.145,412.23,415.275,418.833,422.39,424.933,428.994,432.716,436.274" svgx:width="0.72,0.67,0.56,0.55,0.72,0.5,0.5,0.28,0.25,0.55,0.94,0.44,0.33,0.39,0.39,0.25,0.55,0.33,0.56,0.33,0.39,0.39,0.28,0.44,0.41,0.39,0.39" style="fill:rgb(0,0,0);font-family:URWPalladioL-Ital;font-size:8.97px;stroke:none;">ACS Appl. Mater. Interfaces</text>
   <text y="547.812" x="442.998,447.481,451.964,456.448" svgx:width="0.5,0.5,0.5,0.5" style="fill:rgb(0,0,0);font-family:URWPalladioL-Bold;font-size:8.97px;stroke:none;">2015</text>
   <text y="547.812" x="460.93" svgx:width="0.25" style="fill:rgb(0,0,0);font-family:URWPalladioL-Roma;font-size:8.97px;stroke:none;">,</text>
   <text y="547.812" x="466.612" svgx:width="0.5" style="fill:rgb(0,0,0);font-family:URWPalladioL-Ital;font-size:8.97px;stroke:none;">7</text>
   <text y="547.812" x="471.185,473.4275,476.865,481.437,486.01,490.583,495.156,499.729,504.302,508.875,513.448,518.02" svgx:width="0.25,0.55,0.5,0.5,0.5,0.5,0.5,0.5,0.5,0.5,0.5,0.25" style="fill:rgb(0,0,0);font-family:URWPalladioL-Roma;font-size:8.97px;stroke:none;">, 8562–8571.</text>
   <text y="560.724" x="98.05" svgx:width="0.33" style="fill:rgb(0,0,0);font-family:URWPalladioL-Roma;font-size:8.97px;stroke:none;">[</text>
   <text y="560.724" x="101.036,107.393,110.773,115.669,119.471,123.272,129.262,133.557" svgx:width="0.71,0.4,0.55,0.42,0.42,0.67,0.48,0.33" style="fill:rgb(8,117,183);font-family:URWPalladioL-Roma;font-size:8.97px;stroke:none;">CrossRef</text>
   <text y="560.724" x="136.543,139.50310000000002,141.77" svgx:width="0.33,0.55,0.33" style="fill:rgb(0,0,0);font-family:URWPalladioL-Roma;font-size:8.97px;stroke:none;">] [</text>
   <text y="560.724" x="144.756,150.172,155.578,160.537,169.019,173.314" svgx:width="0.6,0.6,0.55,0.95,0.48,0.61" style="fill:rgb(8,117,183);font-family:URWPalladioL-Roma;font-size:8.97px;stroke:none;">PubMed</text>
   <text y="560.724" x="178.792" svgx:width="0.33" style="fill:rgb(0,0,0);font-family:URWPalladioL-Roma;font-size:8.97px;stroke:none;">]</text>
   <text y="573.636" x="76.535,81.018,83.26050000000001,98.05,104.15,109.473,114.467,119.981,122.2235,126.877,135.2,137.486,139.7285,145.571,148.617,151.278,156.601,158.8435,163.497,171.819,174.106,176.3485,182.182,188.282,193.605,199.119,201.3615,206.025,212.125,214.411,216.6535,222.487,227.288,232.611,237.184,242.178,244.4205,249.073,255.174,257.4165,262.079,266.88,269.862,273.401,278.916,282.977,285.958,291.473,295.086,299.658,302.32,304.5625,309.216,313.597,316.258,320.639,324.699,327.681,331.294,333.955,338.016,342.589,345.1903,349.859,354.432,359.755,365.2267,369.953,374.333,376.995,381.376,385.436,388.418,391.866,396.859,400.92,406.243,410.624,418.699,421.361,425.421,429.994,432.5953,437.274,441.335,446.658,451.231,454.843,459.416,463.477,466.449,470.83,474.442,477.104,481.677,486.25,489.231,491.892,496.886,502.209,505.9764,510.705,515.699" svgx:width="0.5,0.25,0.55,0.67,0.58,0.55,0.6,0.25,0.55,1.0,0.25,0.25,0.55,0.33,0.29,0.58,0.25,0.55,1.0,0.25,0.25,0.55,0.67,0.58,0.6,0.25,0.55,0.67,0.25,0.25,0.55,0.52,0.58,0.5,0.55,0.25,0.55,0.67,0.25,0.55,0.52,0.33,0.4,0.6,0.44,0.33,0.6,0.4,0.5,0.29,0.25,0.55,0.48,0.29,0.48,0.44,0.33,0.4,0.29,0.44,0.5,0.29,0.55,0.5,0.58,0.61,0.55,0.48,0.29,0.48,0.44,0.33,0.4,0.55,0.44,0.58,0.48,0.88,0.29,0.44,0.5,0.29,0.55,0.44,0.58,0.5,0.4,0.5,0.44,0.33,0.48,0.4,0.29,0.5,0.5,0.33,0.29,0.55,0.58,0.42,0.55,0.55,0.33" style="fill:rgb(0,0,0);font-family:URWPalladioL-Roma;font-size:8.97px;stroke:none;">6. Zhou, W.; Jin, W.; Zhu, Z.; Shao, Z. Structural, electrical and electrochemical characterizations of</text>
   <text y="586.547" x="98.05,102.71,106.217,113.593" svgx:width="0.52,0.4,0.83,0.55" style="fill:rgb(0,0,0);font-family:URWPalladioL-Roma;font-size:8.97px;stroke:none;">SrNb</text>
   <text y="588.339" x="118.502,121.989,123.732" svgx:width="0.5,0.25,0.5" style="fill:rgb(0,0,0);font-family:URWPalladioL-Roma;font-size:6.97px;stroke:none;">0.1</text>
   <text y="586.547" x="127.718,134.012" svgx:width="0.71,0.55" style="fill:rgb(0,0,0);font-family:URWPalladioL-Roma;font-size:8.97px;stroke:none;">Co</text>
   <text y="588.339" x="138.858,142.345,144.088" svgx:width="0.5,0.25,0.5" style="fill:rgb(0,0,0);font-family:URWPalladioL-Roma;font-size:6.97px;stroke:none;">0.9</text>
   <text y="586.547" x="148.073" svgx:width="0.79" style="fill:rgb(0,0,0);font-family:URWPalladioL-Roma;font-size:8.97px;stroke:none;">O</text>
   <text y="588.339" x="155.05" svgx:width="0.5" style="fill:rgb(0,0,0);font-family:URWPalladioL-Roma;font-size:6.97px;stroke:none;">3</text>
   <text y="588.339" x="158.537" svgx:width="0.67" style="fill:rgb(0,0,0);font-family:Pxsy;font-size:6.97px;stroke:none;">−</text>
   <text y="588.339" x="163.203" svgx:width="0.63" style="fill:rgb(0,0,0);font-family:EURM7;font-size:6.97px;stroke:none;">δ</text>
   <text y="586.547" x="170.321,174.759,178.5264,180.769,185.25400000000002,187.453,191.394,195.833,198.727,203.893,208.74,214.163,218.4686,220.661,225.508,228.46810000000002,230.709,234.473,239.32,241.903,244.486,249.9577,252.156,257.002,261.583,264.166,269.59,273.8956,276.087,279.043,284.396,288.648,291.2493,293.477,297.418,301.67,304.253,306.836,310.6034,312.846,317.693,323.028,327.279,330.786,335.224,338.118,340.701,345.867,350.8902,353.049,357.957,362.209,364.793,369.639,379.288,383.727,388.165" svgx:width="0.5,0.42,0.55,0.5,0.55,0.44,0.5,0.33,0.58,0.55,0.61,0.48,0.55,0.55,0.33,0.55,0.42,0.55,0.29,0.29,0.61,0.55,0.55,0.52,0.29,0.61,0.48,0.55,0.33,0.6,0.48,0.29,0.55,0.44,0.48,0.29,0.29,0.42,0.55,0.55,0.6,0.48,0.4,0.5,0.33,0.29,0.58,0.56,0.55,0.55,0.48,0.29,0.55,0.83,0.5,0.5,0.5" style="fill:rgb(0,0,0);font-family:URWPalladioL-Roma;font-size:8.97px;stroke:none;">as a cathode of solid oxide fuel cells operating below600</text>
   <text y="583.292" x="394.85" svgx:width="0.52" style="fill:rgb(0,0,0);font-family:Pxsy;font-size:6.97px;stroke:none;">◦</text>
   <text y="586.547" x="398.996,405.29" svgx:width="0.71,0.25" style="fill:rgb(0,0,0);font-family:URWPalladioL-Roma;font-size:8.97px;stroke:none;">C.</text>
   <text y="586.547" x="409.754,412.71,417.645,420.601,422.8435,425.972,428.928,431.1705,433.393,440.299,444.737,449.176,452.469,456.41,460.848,464.302,469.3252,471.483,476.906,481.842,485.295,488.588,493.027" svgx:width="0.33,0.56,0.33,0.25,0.55,0.33,0.25,0.55,0.78,0.5,0.5,0.39,0.44,0.5,0.39,0.56,0.55,0.61,0.56,0.39,0.39,0.5,0.5" style="fill:rgb(0,0,0);font-family:URWPalladioL-Ital;font-size:8.97px;stroke:none;">Int. J. Hydrogen Energy</text>
   <text y="586.547" x="499.709,504.192,508.675,513.159" svgx:width="0.5,0.5,0.5,0.5" style="fill:rgb(0,0,0);font-family:URWPalladioL-Bold;font-size:8.97px;stroke:none;">2010</text>
   <text y="586.547" x="517.642" svgx:width="0.25" style="fill:rgb(0,0,0);font-family:URWPalladioL-Roma;font-size:8.97px;stroke:none;">,</text>
   <text y="599.459" x="98.05,102.533" svgx:width="0.5,0.5" style="fill:rgb(0,0,0);font-family:URWPalladioL-Ital;font-size:8.97px;stroke:none;">35</text>
   <text y="599.459" x="107.017,109.2595,111.5,115.983,120.467,124.95,129.433,133.916,138.399,142.883,147.366,151.849,154.0915,157.229" svgx:width="0.25,0.55,0.5,0.5,0.5,0.5,0.5,0.5,0.5,0.5,0.5,0.25,0.55,0.33" style="fill:rgb(0,0,0);font-family:URWPalladioL-Roma;font-size:8.97px;stroke:none;">, 1356–1366. [</text>
   <text y="599.459" x="160.215,166.572,169.952,174.848,178.65,182.451,188.441,192.736" svgx:width="0.71,0.4,0.55,0.42,0.42,0.67,0.48,0.33" style="fill:rgb(8,117,183);font-family:URWPalladioL-Roma;font-size:8.97px;stroke:none;">CrossRef</text>
   <text y="599.459" x="195.722" svgx:width="0.33" style="fill:rgb(0,0,0);font-family:URWPalladioL-Roma;font-size:8.97px;stroke:none;">]</text>
   <text y="612.37" x="76.535,81.018,83.26050000000001,98.05,105.129,109.51,114.832,119.917,122.15950000000001,126.722,132.822,135.109,142.297,144.583,146.8255,152.531,157.808,162.381,167.704,172.789,175.0315,179.593,187.916,190.202,195.004,197.29,199.5325,205.238,210.817,213.478,218.993,221.2355,225.807,234.12,236.407,238.64950000000002,244.354,250.839,256.161,260.542,265.865,268.1075,272.669,279.154,281.44,286.242,288.4845,293.055,299.165,303.545,306.207,310.78,313.761,316.423,321.416,326.739,330.617,335.94,338.601,343.983,348.616,353.673,358.054,361.035,368.663,373.044,377.425,382.62760000000003,387.265,390.247,393.859,398.432,403.755,407.633,413.129,418.123,421.736,424.6961,429.235,434.732,438.18,443.173,448.67,453.051,456.663,459.645,462.306,466.687,470.4544,475.083,479.655,484.978,490.4497,495.093,500.59,505.913,510.486,514.363" svgx:width="0.5,0.25,0.55,0.77,0.48,0.58,0.56,0.25,0.55,0.67,0.25,0.79,0.25,0.25,0.55,0.67,0.5,0.58,0.56,0.25,0.55,1.0,0.25,0.52,0.25,0.25,0.55,0.61,0.29,0.6,0.25,0.55,1.0,0.25,0.25,0.55,0.71,0.58,0.48,0.58,0.25,0.55,0.71,0.25,0.52,0.25,0.55,0.67,0.48,0.29,0.5,0.33,0.29,0.55,0.58,0.42,0.58,0.29,0.6,0.55,0.55,0.48,0.33,0.83,0.48,0.48,0.58,0.55,0.33,0.4,0.5,0.58,0.42,0.6,0.55,0.4,0.33,0.55,0.6,0.4,0.55,0.6,0.48,0.4,0.33,0.29,0.48,0.42,0.55,0.5,0.58,0.61,0.55,0.6,0.58,0.5,0.42,0.48" style="fill:rgb(0,0,0);font-family:URWPalladioL-Roma;font-size:8.97px;stroke:none;">7. Deng, Z.Q.; Yang, W.S.; Liu, W.; Chen, C.S. Relationship between transport properties and phase</text>
   <text y="625.282" x="98.05,100.973,104.515,108.998,114.216,118.018,121.004,125.9,129.441,137.359,141.842,144.765,147.374,152.27,157.488,161.2554,163.532,166.141,171.34359999999998,173.601,181.518,184.127,188.754,193.049,198.527,201.513,205.494,210.39,215.608,221.087,226.494,230.475,233.398,236.007,241.225,246.2482,248.452,253.348,257.975,260.584,266.062,270.357,274.159" svgx:width="0.33,0.4,0.5,0.58,0.42,0.33,0.55,0.4,0.88,0.5,0.33,0.29,0.55,0.58,0.42,0.55,0.29,0.58,0.55,0.88,0.29,0.52,0.48,0.61,0.33,0.44,0.55,0.58,0.61,0.6,0.44,0.33,0.29,0.58,0.56,0.55,0.55,0.52,0.29,0.61,0.48,0.42,0.25" style="fill:rgb(0,0,0);font-family:URWPalladioL-Roma;font-size:8.97px;stroke:none;">transformations in mixed-conducting oxides.</text>
   <text y="625.282" x="279.537,282.523,284.76550000000003,287.006,291.991,295.972,298.465,300.958,305.44300000000004,307.683,312.668,315.654,319.635,322.621,326.11929999999995,328.35,334.331,338.814,342.302,349.278" svgx:width="0.33,0.25,0.55,0.56,0.44,0.28,0.28,0.5,0.55,0.56,0.33,0.44,0.33,0.39,0.55,0.67,0.5,0.39,0.78,0.25" style="fill:rgb(0,0,0);font-family:URWPalladioL-Ital;font-size:8.97px;stroke:none;">J. Solid State Chem.</text>
   <text y="625.282" x="354.656,359.139,363.622,368.106" svgx:width="0.5,0.5,0.5,0.5" style="fill:rgb(0,0,0);font-family:URWPalladioL-Bold;font-size:8.97px;stroke:none;">2006</text>
   <text y="625.282" x="372.589" svgx:width="0.25" style="fill:rgb(0,0,0);font-family:URWPalladioL-Roma;font-size:8.97px;stroke:none;">,</text>
   <text y="625.282" x="377.072,381.555,386.038" svgx:width="0.5,0.5,0.5" style="fill:rgb(0,0,0);font-family:URWPalladioL-Ital;font-size:8.97px;stroke:none;">179</text>
   <text y="625.282" x="390.522,392.7645,395.005,399.488,403.972,408.455,412.938,417.421,421.905,426.388,428.6305,431.768" svgx:width="0.25,0.55,0.5,0.5,0.5,0.5,0.5,0.5,0.5,0.25,0.55,0.33" style="fill:rgb(0,0,0);font-family:URWPalladioL-Roma;font-size:8.97px;stroke:none;">, 362–369. [</text>
   <text y="625.282" x="434.753,441.111,444.491,449.387,453.188,456.99,462.98,467.275" svgx:width="0.71,0.4,0.55,0.42,0.42,0.67,0.48,0.33" style="fill:rgb(8,117,183);font-family:URWPalladioL-Roma;font-size:8.97px;stroke:none;">CrossRef</text>
   <text y="625.282" x="470.26" svgx:width="0.33" style="fill:rgb(0,0,0);font-family:URWPalladioL-Roma;font-size:8.97px;stroke:none;">]</text>
   <text y="638.194" x="76.535,81.018,83.26050000000001,98.05,105.129,109.4346,112.894,115.555,120.04,123.503,129.987,134.56,137.221,139.883,144.263,146.5055,149.934,156.418,158.704,160.94650000000001,164.942,172.057,177.142,182.657,187.23,192.818,197.199,200.647,205.64,207.8825,211.311,218.426,220.713,222.9555,226.95,234.065,236.727,241.72,247.043,250.921,255.914,258.1565,261.576,264.621,266.908,274.023,276.309,278.55150000000003,282.547,287.632,292.013,295.625" svgx:width="0.5,0.25,0.55,0.77,0.48,0.55,0.29,0.5,0.55,0.71,0.5,0.29,0.29,0.48,0.25,0.55,0.71,0.25,0.25,0.55,0.78,0.56,0.6,0.5,0.61,0.48,0.4,0.55,0.25,0.55,0.78,0.25,0.25,0.55,0.78,0.29,0.55,0.58,0.42,0.55,0.25,0.55,0.33,0.25,0.78,0.25,0.25,0.55,0.56,0.48,0.4,0.58" style="fill:rgb(0,0,0);font-family:URWPalladioL-Roma;font-size:8.97px;stroke:none;">8. De la Calle, C.; Aguadero, A.; Alonso, J.A.; Fern</text>
   <text y="638.194" x="300.951" svgx:width="0.5" style="fill:rgb(0,0,0);font-family:VnURWPalladioL;font-size:8.97px;stroke:none;">á</text>
   <text y="638.194" x="305.434,310.757,316.345,320.726,325.299,328.344" svgx:width="0.58,0.61,0.48,0.5,0.33,0.77" style="fill:rgb(0,0,0);font-family:URWPalladioL-Roma;font-size:8.97px;stroke:none;">ndez-D</text>
   <text y="638.194" x="335.423" svgx:width="0.29" style="fill:rgb(0,0,0);font-family:VnURWPalladioL;font-size:8.97px;stroke:none;">í</text>
   <text y="638.194" x="337.996,342.569,347.142,349.3845,352.812,361.464,363.75,368.689,370.9315,374.359,380.844,385.837,389.45,392.898,397.279,399.94,404.513,407.494,410.156,415.149,420.3516,423.856,428.914,433.294,436.276,443.904,448.284,452.665,457.86760000000004,461.363,464.82,469.201,473.261,478.255,483.578,487.455,490.437,493.976,499.491,503.552,506.533,509.195,514.362" svgx:width="0.5,0.5,0.25,0.55,0.95,0.25,0.61,0.25,0.55,0.71,0.55,0.4,0.4,0.48,0.29,0.5,0.33,0.29,0.55,0.58,0.55,0.55,0.48,0.33,0.83,0.48,0.48,0.58,0.55,0.4,0.48,0.44,0.55,0.58,0.42,0.33,0.4,0.6,0.44,0.33,0.29,0.56,0.48" style="fill:rgb(0,0,0);font-family:URWPalladioL-Roma;font-size:8.97px;stroke:none;">az, M.T. Correlation between reconstructive</text>
   <text y="651.105" x="97.781,103.278,108.6,113.173,117.051,121.3566,124.679,127.66,131.273,135.846,141.168,145.046,147.708,150.689,153.35,158.344,163.667,167.4344,170.791,175.364,180.687,186.1587,189.522,192.503,196.116,200.689,206.012,209.889,215.386,220.379,223.992,226.9521,230.229,235.726,239.174,244.167,249.664,254.045,257.657,260.639,263.3,267.681,271.4484,274.806,277.851,281.299,286.293,294.1866,297.615,302.417,306.029,312.513,317.507" svgx:width="0.6,0.58,0.5,0.42,0.48,0.55,0.33,0.4,0.5,0.58,0.42,0.29,0.33,0.29,0.55,0.58,0.42,0.55,0.5,0.58,0.61,0.55,0.33,0.4,0.5,0.58,0.42,0.6,0.55,0.4,0.33,0.55,0.6,0.4,0.55,0.6,0.48,0.4,0.33,0.29,0.48,0.42,0.55,0.33,0.4,0.55,0.88,0.55,0.52,0.4,0.71,0.55,0.79" style="fill:rgb(0,0,0);font-family:URWPalladioL-Roma;font-size:8.97px;stroke:none;">phase transitions and transport properties from SrCoO</text>
   <text y="652.897" x="324.7,328.187,329.93" svgx:width="0.5,0.25,0.5" style="fill:rgb(0,0,0);font-family:URWPalladioL-Roma;font-size:6.97px;stroke:none;">2.5</text>
   <text y="651.105" x="337.164,342.222,345.67,350.663,358.291,363.613,371.689,374.351,377.012,379.673,384.054,387.667,390.328,393.31,397.69,399.9325,405.126,412.1226,415.497,420.82,425.201,430.716,433.688,437.145,442.139,447.3416,450.708,456.296" svgx:width="0.55,0.4,0.55,0.83,0.58,0.88,0.29,0.29,0.29,0.48,0.4,0.29,0.33,0.48,0.25,0.55,0.78,0.55,0.58,0.48,0.6,0.33,0.4,0.55,0.58,0.55,0.61,0.29" style="fill:rgb(0,0,0);font-family:URWPalladioL-Roma;font-size:8.97px;stroke:none;">brownmillerite: A neutron di</text>
   <text y="651.105" x="458.957" svgx:width="0.61" style="fill:rgb(0,0,0);font-family:Rpxr;font-size:8.97px;stroke:none;">ﬀ</text>
   <text y="651.105" x="464.518,468.131,472.703,476.764,479.746,482.407,487.401,492.60360000000003,495.97,499.848,502.829,508.344,513.932,518.02" svgx:width="0.4,0.5,0.44,0.33,0.29,0.55,0.58,0.55,0.42,0.33,0.6,0.61,0.56,0.25" style="fill:rgb(0,0,0);font-family:URWPalladioL-Roma;font-size:8.97px;stroke:none;">raction study.</text>
   <text y="664.017" x="97.799,102.784,106.765,109.258,111.751,116.236,118.476,123.461,126.447,130.428,133.414,136.9123,139.143,144.128,147.778,150.27" svgx:width="0.56,0.44,0.28,0.28,0.5,0.55,0.56,0.33,0.44,0.33,0.39,0.55,0.56,0.41,0.28,0.25" style="fill:rgb(0,0,0);font-family:URWPalladioL-Ital;font-size:8.97px;stroke:none;">Solid State Sci.</text>
   <text y="664.017" x="154.753,159.236,163.719,168.203" svgx:width="0.5,0.5,0.5,0.5" style="fill:rgb(0,0,0);font-family:URWPalladioL-Bold;font-size:8.97px;stroke:none;">2008</text>
   <text y="664.017" x="172.686" svgx:width="0.25" style="fill:rgb(0,0,0);font-family:URWPalladioL-Roma;font-size:8.97px;stroke:none;">,</text>
   <text y="664.017" x="177.169,181.652" svgx:width="0.5,0.5" style="fill:rgb(0,0,0);font-family:URWPalladioL-Ital;font-size:8.97px;stroke:none;">10</text>
   <text y="664.017" x="186.135,188.3775,190.618,195.101,199.585,204.068,208.551,213.034,217.517,222.001,226.484,230.967,233.20950000000002,236.347" svgx:width="0.25,0.55,0.5,0.5,0.5,0.5,0.5,0.5,0.5,0.5,0.5,0.25,0.55,0.33" style="fill:rgb(0,0,0);font-family:URWPalladioL-Roma;font-size:8.97px;stroke:none;">, 1924–1935. [</text>
   <text y="664.017" x="239.333,245.69,249.07,253.966,257.768,261.569,267.559,271.854" svgx:width="0.71,0.4,0.55,0.42,0.42,0.67,0.48,0.33" style="fill:rgb(8,117,183);font-family:URWPalladioL-Roma;font-size:8.97px;stroke:none;">CrossRef</text>
   <text y="664.017" x="274.84" svgx:width="0.33" style="fill:rgb(0,0,0);font-family:URWPalladioL-Roma;font-size:8.97px;stroke:none;">]</text>
   <text y="676.928" x="76.535,81.018,83.26050000000001,98.05,104.28,108.674,112.399,116.301,121.098,124.824,127.0665,129.121,134.314,136.511,138.7535,140.852,145.43,148.743,153.54,158.654,162.556,167.354,171.079,175.877,178.11950000000002,180.174,185.543,187.74,189.98250000000002,192.089,198.926,201.483,206.28,211.394,215.12,219.918,222.1605,224.215,227.141,229.338,236.174,238.4165,240.471,247.773,251.982,261.41,264.337,268.73,276.489,279.046,281.603,284.16,288.369,292.13640000000004,294.204,299.001,301.9611,304.028" svgx:width="0.5,0.25,0.55,0.71,0.5,0.42,0.44,0.55,0.42,0.25,0.55,0.72,0.25,0.25,0.55,0.61,0.4,0.55,0.58,0.44,0.55,0.42,0.55,0.25,0.55,0.61,0.25,0.25,0.55,0.78,0.29,0.55,0.58,0.42,0.55,0.25,0.55,0.33,0.25,0.78,0.25,0.55,0.83,0.48,0.83,0.33,0.5,0.88,0.29,0.29,0.29,0.48,0.42,0.55,0.55,0.33,0.55,0.95" style="fill:rgb(0,0,0);font-family:URWPalladioL-Roma;font-size:8.97px;stroke:none;">9. Cascos, V.; Troncoso, L.; Alonso, J.A. Newfamilies of M</text>
   <text y="673.674" x="312.338" svgx:width="0.58" style="fill:rgb(0,0,0);font-family:URWPalladioL-Roma;font-size:6.97px;stroke:none;">n</text>
   <text y="673.674" x="316.397" svgx:width="0.67" style="fill:rgb(0,0,0);font-family:Rpxr;font-size:6.97px;stroke:none;">+</text>
   <text y="676.928" x="321.561,324.487,329.856,334.654,339.935,344.144,349.6157,351.613,356.226,359.697,365.927" svgx:width="0.33,0.61,0.55,0.6,0.48,0.61,0.55,0.52,0.4,0.71,0.55" style="fill:rgb(0,0,0);font-family:URWPalladioL-Roma;font-size:8.97px;stroke:none;">-doped SrCo</text>
   <text y="678.72" x="370.726" svgx:width="0.5" style="fill:rgb(0,0,0);font-family:URWPalladioL-Roma;font-size:6.97px;stroke:none;">1</text>
   <text y="678.72" x="374.213" svgx:width="0.67" style="fill:rgb(0,0,0);font-family:Pxsy;font-size:6.97px;stroke:none;">−</text>
   <text y="678.72" x="378.878" svgx:width="0.52" style="fill:rgb(0,0,0);font-family:URWPalladioL-Roma;font-size:6.97px;stroke:none;">x</text>
   <text y="676.928" x="382.975" svgx:width="0.95" style="fill:rgb(0,0,0);font-family:URWPalladioL-Roma;font-size:8.97px;stroke:none;">M</text>
   <text y="678.273" x="391.287" svgx:width="0.52" style="fill:rgb(0,0,0);font-family:URWPalladioL-Roma;font-size:6.97px;stroke:none;">x</text>
   <text y="676.928" x="395.384" svgx:width="0.79" style="fill:rgb(0,0,0);font-family:URWPalladioL-Roma;font-size:8.97px;stroke:none;">O</text>
   <text y="678.72" x="402.291" svgx:width="0.5" style="fill:rgb(0,0,0);font-family:URWPalladioL-Roma;font-size:6.97px;stroke:none;">3</text>
   <text y="678.72" x="405.778" svgx:width="0.67" style="fill:rgb(0,0,0);font-family:Pxsy;font-size:6.97px;stroke:none;">−</text>
   <text y="678.72" x="410.443" svgx:width="0.63" style="fill:rgb(0,0,0);font-family:EURM7;font-size:6.97px;stroke:none;">δ</text>
   <text y="676.928" x="417.417,422.698,426.907,430.22,435.017,439.982,443.708,448.594,451.151,454.015,458.224,461.9914,464.05,469.331,473.54,477.011,479.937,484.735,488.206,495.965,498.522,503.636,508.6592,510.621,515.015" svgx:width="0.6,0.48,0.4,0.55,0.56,0.42,0.56,0.29,0.33,0.48,0.42,0.55,0.6,0.48,0.4,0.33,0.55,0.4,0.88,0.29,0.58,0.56,0.55,0.5,0.42" style="fill:rgb(0,0,0);font-family:URWPalladioL-Roma;font-size:8.97px;stroke:none;">perovskites performing as</text>
   <text y="689.84" x="98.05,102.031,106.514,109.437,114.656,119.551,125.03,129.325,133.0924,135.368,137.977,143.1796,145.437,149.239,154.135,156.744,159.353,164.832,167.818,172.713,177.34,179.949,185.428,189.7336,191.964,194.95,200.357,204.652,207.2533,209.502,213.483,217.778,220.388,222.997,226.799" svgx:width="0.44,0.5,0.33,0.58,0.55,0.61,0.48,0.42,0.55,0.29,0.58,0.55,0.42,0.55,0.29,0.29,0.61,0.33,0.55,0.52,0.29,0.61,0.48,0.55,0.33,0.6,0.48,0.29,0.55,0.44,0.48,0.29,0.29,0.42,0.25" style="fill:rgb(0,0,0);font-family:URWPalladioL-Roma;font-size:8.97px;stroke:none;">cathodes in solid-oxide fuel cells.</text>
   <text y="689.84" x="232.177,235.163,240.148,243.134,245.3765,248.514,251.5,253.7425,255.983,262.959,267.442,271.925,275.252,279.233,283.716,287.204,292.2272,294.431,299.909,304.895,308.382,311.709,316.192" svgx:width="0.33,0.56,0.33,0.25,0.55,0.33,0.25,0.55,0.78,0.5,0.5,0.39,0.44,0.5,0.39,0.56,0.55,0.61,0.56,0.39,0.39,0.5,0.5" style="fill:rgb(0,0,0);font-family:URWPalladioL-Ital;font-size:8.97px;stroke:none;">Int. J. Hydrogen Energy</text>
   <text y="689.84" x="322.916,327.399,331.882,336.366" svgx:width="0.5,0.5,0.5,0.5" style="fill:rgb(0,0,0);font-family:URWPalladioL-Bold;font-size:8.97px;stroke:none;">2015</text>
   <text y="689.84" x="340.848" svgx:width="0.25" style="fill:rgb(0,0,0);font-family:URWPalladioL-Roma;font-size:8.97px;stroke:none;">,</text>
   <text y="689.84" x="345.332,349.815" svgx:width="0.5,0.5" style="fill:rgb(0,0,0);font-family:URWPalladioL-Ital;font-size:8.97px;stroke:none;">40</text>
   <text y="689.84" x="354.298,356.5405,358.781,363.264,367.748,372.231,376.714,381.197,385.681,390.164,394.647,399.13,403.613,408.097,410.3395,413.476" svgx:width="0.25,0.55,0.5,0.5,0.5,0.5,0.5,0.5,0.5,0.5,0.5,0.5,0.5,0.25,0.55,0.33" style="fill:rgb(0,0,0);font-family:URWPalladioL-Roma;font-size:8.97px;stroke:none;">, 11333–11341. [</text>
   <text y="689.84" x="416.462,422.819,426.2,431.095,434.897,438.699,444.689,448.983" svgx:width="0.71,0.4,0.55,0.42,0.42,0.67,0.48,0.33" style="fill:rgb(8,117,183);font-family:URWPalladioL-Roma;font-size:8.97px;stroke:none;">CrossRef</text>
   <text y="689.84" x="451.969" svgx:width="0.33" style="fill:rgb(0,0,0);font-family:URWPalladioL-Roma;font-size:8.97px;stroke:none;">]</text>
   <text y="702.752" x="76.535,81.018,85.501,87.74350000000001,98.05,102.852,106.299,111.293,116.616,120.677,125.67,129.548,134.541,136.7835,140.139,145.727,148.013,150.2555,154.15,161.128,165.701,169.149,174.737,179.118,183.206,185.4485,188.803,197.455,199.741,206.226,208.512,210.7545,214.649,219.734,224.115,227.727" svgx:width="0.5,0.5,0.25,0.55,0.61,0.4,0.55,0.58,0.44,0.55,0.42,0.55,0.25,0.55,0.61,0.25,0.25,0.55,0.76,0.5,0.4,0.61,0.48,0.56,0.25,0.55,0.95,0.25,0.71,0.25,0.25,0.55,0.56,0.48,0.4,0.58" style="fill:rgb(0,0,0);font-family:URWPalladioL-Roma;font-size:8.97px;stroke:none;">10. Troncoso, L.; Gardey, M.C.; Fern</text>
   <text y="702.752" x="233.05" svgx:width="0.5" style="fill:rgb(0,0,0);font-family:VnURWPalladioL;font-size:8.97px;stroke:none;">á</text>
   <text y="702.752" x="237.533,242.856,248.444,252.825,257.398,260.443" svgx:width="0.58,0.61,0.48,0.5,0.33,0.77" style="fill:rgb(0,0,0);font-family:URWPalladioL-Roma;font-size:8.97px;stroke:none;">ndez-D</text>
   <text y="702.752" x="267.522" svgx:width="0.29" style="fill:rgb(0,0,0);font-family:VnURWPalladioL;font-size:8.97px;stroke:none;">í</text>
   <text y="702.752" x="270.095,274.668,279.241,281.4835,284.838,293.49,295.776,300.724,303.011,305.25350000000003,309.138,316.254,318.915,323.909,329.231,333.109,338.103,340.3455,343.7,346.745,349.032,356.147,358.3895,361.744,369.345,373.725,381.17010000000005,384.664,388.121,393.444,397.824,403.147,405.809,411.323,419.399,422.445,428.033,433.026,438.523,442.904,448.3757,451.802,456.604,460.216,466.701" svgx:width="0.5,0.5,0.25,0.55,0.95,0.25,0.61,0.25,0.25,0.55,0.78,0.29,0.55,0.58,0.42,0.55,0.25,0.55,0.33,0.25,0.78,0.25,0.55,0.83,0.48,0.83,0.55,0.4,0.58,0.48,0.58,0.29,0.6,0.88,0.33,0.61,0.55,0.6,0.48,0.61,0.55,0.52,0.4,0.71,0.55" style="fill:rgb(0,0,0);font-family:URWPalladioL-Roma;font-size:8.97px;stroke:none;">az, M.T.; Alonso, J.A. New rhenium-doped SrCo</text>
   <text y="704.543" x="471.692" svgx:width="0.5" style="fill:rgb(0,0,0);font-family:URWPalladioL-Roma;font-size:6.97px;stroke:none;">1</text>
   <text y="704.543" x="475.179" svgx:width="0.67" style="fill:rgb(0,0,0);font-family:Pxsy;font-size:6.97px;stroke:none;">−</text>
   <text y="704.543" x="479.845" svgx:width="0.52" style="fill:rgb(0,0,0);font-family:URWPalladioL-Roma;font-size:6.97px;stroke:none;">x</text>
   <text y="702.752" x="483.941,490.05" svgx:width="0.67,0.48" style="fill:rgb(0,0,0);font-family:URWPalladioL-Roma;font-size:8.97px;stroke:none;">Re</text>
   <text y="704.096" x="494.431" svgx:width="0.52" style="fill:rgb(0,0,0);font-family:URWPalladioL-Roma;font-size:6.97px;stroke:none;">x</text>
   <text y="702.752" x="498.528" svgx:width="0.79" style="fill:rgb(0,0,0);font-family:URWPalladioL-Roma;font-size:8.97px;stroke:none;">O</text>
   <text y="704.543" x="505.716" svgx:width="0.5" style="fill:rgb(0,0,0);font-family:URWPalladioL-Roma;font-size:6.97px;stroke:none;">3</text>
   <text y="704.543" x="509.203" svgx:width="0.67" style="fill:rgb(0,0,0);font-family:Pxsy;font-size:6.97px;stroke:none;">−</text>
   <text y="704.543" x="513.869" svgx:width="0.63" style="fill:rgb(0,0,0);font-family:EURM7;font-size:6.97px;stroke:none;">δ</text>
   <text y="715.663" x="98.05,103.466,107.761,111.141,116.037,121.103,124.904,129.89,132.499,135.422,139.717,143.48440000000002,145.76,151.176,155.471,159.013,161.998,166.894,170.436,178.353,180.962,186.181,191.20420000000001,193.408,197.891,201.6584,203.934,210.291,214.775,217.698,222.916,227.812,233.29,237.585,241.35240000000002,243.629,246.238,251.4406,253.698,258.405,263.301,265.91,268.519,273.9907,276.239,283.287,287.914,290.523,296.001,300.3066,302.538,307.523,312.93,317.225,319.8263,322.076,328.433,332.728,335.337,337.946,341.748" svgx:width="0.6,0.48,0.4,0.55,0.56,0.42,0.56,0.29,0.33,0.48,0.42,0.55,0.6,0.48,0.4,0.33,0.55,0.4,0.88,0.29,0.58,0.56,0.55,0.5,0.42,0.55,0.71,0.5,0.33,0.58,0.55,0.61,0.48,0.42,0.55,0.29,0.58,0.55,0.52,0.55,0.29,0.29,0.61,0.55,0.79,0.52,0.29,0.61,0.48,0.55,0.56,0.6,0.48,0.29,0.55,0.71,0.48,0.29,0.29,0.42,0.25" style="fill:rgb(0,0,0);font-family:URWPalladioL-Roma;font-size:8.97px;stroke:none;">Perovskites Performing as Cathodes in Solid Oxide Fuel Cells.</text>
   <text y="715.663" x="347.125,355.589,359.57,362.556,366.044,369.532,372.025,376.006,378.498" svgx:width="0.94,0.44,0.33,0.39,0.39,0.28,0.44,0.28,0.39" style="fill:rgb(0,0,0);font-family:URWPalladioL-Ital;font-size:8.97px;stroke:none;">Materials</text>
   <text y="715.663" x="384.227,388.71,393.193,397.677" svgx:width="0.5,0.5,0.5,0.5" style="fill:rgb(0,0,0);font-family:URWPalladioL-Bold;font-size:8.97px;stroke:none;">2016</text>
   <text y="715.663" x="402.16" svgx:width="0.25" style="fill:rgb(0,0,0);font-family:URWPalladioL-Roma;font-size:8.97px;stroke:none;">,</text>
   <text y="715.663" x="406.643" svgx:width="0.5" style="fill:rgb(0,0,0);font-family:URWPalladioL-Ital;font-size:8.97px;stroke:none;">9</text>
   <text y="715.663" x="411.126,413.3685,415.609,420.092,424.576,429.059,431.30150000000003,434.439" svgx:width="0.25,0.55,0.5,0.5,0.5,0.25,0.55,0.33" style="fill:rgb(0,0,0);font-family:URWPalladioL-Roma;font-size:8.97px;stroke:none;">, 717. [</text>
   <text y="715.663" x="437.424,443.782,447.162,452.058,455.859,459.661,465.651,469.946" svgx:width="0.71,0.4,0.55,0.42,0.42,0.67,0.48,0.33" style="fill:rgb(8,117,183);font-family:URWPalladioL-Roma;font-size:8.97px;stroke:none;">CrossRef</text>
   <text y="715.663" x="472.931,475.8911,478.159" svgx:width="0.33,0.55,0.33" style="fill:rgb(0,0,0);font-family:URWPalladioL-Roma;font-size:8.97px;stroke:none;">] [</text>
   <text y="715.663" x="481.145,486.56,491.967,496.926,505.408,509.703" svgx:width="0.6,0.6,0.55,0.95,0.48,0.61" style="fill:rgb(8,117,183);font-family:URWPalladioL-Roma;font-size:8.97px;stroke:none;">PubMed</text>
   <text y="715.663" x="515.181" svgx:width="0.33" style="fill:rgb(0,0,0);font-family:URWPalladioL-Roma;font-size:8.97px;stroke:none;">]</text>
   <text y="728.575" x="76.535,81.018,85.501,87.74350000000001,98.05,104.388,108.858,112.648,116.617,121.498,125.289,127.53150000000001,129.776,135.077,137.312,139.55450000000002,141.809,148.764,151.365,156.246,161.449,165.239,170.12,172.3625,174.608,177.585,179.82,186.775,189.009,191.2515,193.497,198.467,202.749,206.281" svgx:width="0.5,0.5,0.25,0.55,0.71,0.5,0.42,0.44,0.55,0.42,0.25,0.55,0.72,0.25,0.25,0.55,0.78,0.29,0.55,0.58,0.42,0.55,0.25,0.55,0.33,0.25,0.78,0.25,0.25,0.55,0.56,0.48,0.4,0.58" style="fill:rgb(0,0,0);font-family:URWPalladioL-Roma;font-size:8.97px;stroke:none;">11. Cascos, V.; Alonso, J.A.; Fern</text>
   <text y="728.575" x="211.487" svgx:width="0.5" style="fill:rgb(0,0,0);font-family:VnURWPalladioL;font-size:8.97px;stroke:none;">á</text>
   <text y="728.575" x="215.97,221.173,226.635,230.917,235.387,238.363" svgx:width="0.58,0.61,0.48,0.5,0.33,0.77" style="fill:rgb(0,0,0);font-family:URWPalladioL-Roma;font-size:8.97px;stroke:none;">ndez-D</text>
   <text y="728.575" x="245.283" svgx:width="0.29" style="fill:rgb(0,0,0);font-family:VnURWPalladioL;font-size:8.97px;stroke:none;">í</text>
   <text y="728.575" x="247.856,252.326,256.796,259.0385,261.283,269.74,271.975,276.793,279.0355,281.281,288.709" svgx:width="0.5,0.5,0.25,0.55,0.95,0.25,0.61,0.25,0.55,0.83,0.55" style="fill:rgb(0,0,0);font-family:URWPalladioL-Roma;font-size:8.97px;stroke:none;">az, M.T. Nb</text>
   <text y="725.32" x="293.653" svgx:width="0.5" style="fill:rgb(0,0,0);font-family:URWPalladioL-Roma;font-size:6.97px;stroke:none;">5</text>
   <text y="725.32" x="297.14" svgx:width="0.67" style="fill:rgb(0,0,0);font-family:Rpxr;font-size:6.97px;stroke:none;">+</text>
   <text y="728.575" x="302.304,305.281,310.743,315.624,320.997,325.279,330.7507,332.993,337.687,341.218,347.556,352.437" svgx:width="0.33,0.61,0.55,0.6,0.48,0.61,0.55,0.52,0.4,0.71,0.55,0.79" style="fill:rgb(0,0,0);font-family:URWPalladioL-Roma;font-size:8.97px;stroke:none;">-doped SrCoO</text>
   <text y="730.366" x="359.463" svgx:width="0.5" style="fill:rgb(0,0,0);font-family:URWPalladioL-Roma;font-size:6.97px;stroke:none;">3</text>
   <text y="730.366" x="362.95" svgx:width="0.67" style="fill:rgb(0,0,0);font-family:Pxsy;font-size:6.97px;stroke:none;">−</text>
   <text y="730.366" x="367.616" svgx:width="0.63" style="fill:rgb(0,0,0);font-family:EURM7;font-size:6.97px;stroke:none;">δ</text>
   <text y="728.575" x="374.741,380.114,384.396,387.766,392.647,397.698,401.488,406.458,409.06,411.974,416.256,420.0234,422.299,426.769,430.5364,432.812,438.185,443.066,445.98,450.262,455.465,458.379,460.98,465.45,468.05129999999997,470.304,474.273,478.743,481.657,486.86,491.741,497.203,501.485,505.2524,507.528,510.505,515.386" svgx:width="0.6,0.48,0.4,0.55,0.56,0.42,0.56,0.29,0.33,0.48,0.42,0.55,0.5,0.42,0.55,0.6,0.55,0.33,0.48,0.58,0.33,0.29,0.5,0.29,0.55,0.44,0.5,0.33,0.58,0.55,0.61,0.48,0.42,0.55,0.33,0.55,0.4" style="fill:rgb(0,0,0);font-family:URWPalladioL-Roma;font-size:8.97px;stroke:none;">perovskites as potential cathodes for</text>
   <text y="741.486" x="98.05,101.852,106.747,109.357,111.966,117.444,120.43,125.326,129.952,132.562,138.04,142.3456,144.577,147.562,152.969,157.264,159.86530000000002,162.115,166.096,170.391,173.0,175.609,179.411" svgx:width="0.42,0.55,0.29,0.29,0.61,0.33,0.55,0.52,0.29,0.61,0.48,0.55,0.33,0.6,0.48,0.29,0.55,0.44,0.48,0.29,0.29,0.42,0.25" style="fill:rgb(0,0,0);font-family:URWPalladioL-Roma;font-size:8.97px;stroke:none;">solid-oxide fuel cells.</text>
   <text y="741.486" x="184.79,193.254,197.235,200.221,203.709,207.197,209.69,213.671,216.163" svgx:width="0.94,0.44,0.33,0.39,0.39,0.28,0.44,0.28,0.39" style="fill:rgb(0,0,0);font-family:URWPalladioL-Ital;font-size:8.97px;stroke:none;">Materials</text>
   <text y="741.486" x="221.892,226.375,230.858,235.342" svgx:width="0.5,0.5,0.5,0.5" style="fill:rgb(0,0,0);font-family:URWPalladioL-Bold;font-size:8.97px;stroke:none;">2016</text>
   <text y="741.486" x="239.825" svgx:width="0.25" style="fill:rgb(0,0,0);font-family:URWPalladioL-Roma;font-size:8.97px;stroke:none;">,</text>
   <text y="741.486" x="244.308" svgx:width="0.5" style="fill:rgb(0,0,0);font-family:URWPalladioL-Ital;font-size:8.97px;stroke:none;">9</text>
   <text y="741.486" x="248.791,251.0335,253.274,257.757,262.241,266.724,268.9665,272.104" svgx:width="0.25,0.55,0.5,0.5,0.5,0.25,0.55,0.33" style="fill:rgb(0,0,0);font-family:URWPalladioL-Roma;font-size:8.97px;stroke:none;">, 579. [</text>
   <text y="741.486" x="275.09,281.447,284.827,289.723,293.524,297.326,303.316,307.611" svgx:width="0.71,0.4,0.55,0.42,0.42,0.67,0.48,0.33" style="fill:rgb(8,117,183);font-family:URWPalladioL-Roma;font-size:8.97px;stroke:none;">CrossRef</text>
   <text y="741.486" x="310.596,313.5561,315.824" svgx:width="0.33,0.55,0.33" style="fill:rgb(0,0,0);font-family:URWPalladioL-Roma;font-size:8.97px;stroke:none;">] [</text>
   <text y="741.486" x="318.81,324.225,329.632,334.591,343.073,347.368" svgx:width="0.6,0.6,0.55,0.95,0.48,0.61" style="fill:rgb(8,117,183);font-family:URWPalladioL-Roma;font-size:8.97px;stroke:none;">PubMed</text>
   <text y="741.486" x="352.846" svgx:width="0.33" style="fill:rgb(0,0,0);font-family:URWPalladioL-Roma;font-size:8.97px;stroke:none;">]</text>
  </g>
 </g>
</svg>
