<?xml version="1.0" encoding="UTF-8"?>
<svg height="770.03" width="530.535" xmlns="http://www.w3.org/2000/svg">
 <g id="page" xmlns:svgx="http://www.xml-cml.org/schema/svgx">
  <g begin="text">
   <text y="62.979" x="76.535,84.059,86.274,89.518,92.475,96.014,102.215,105.753,108.997,112.982,115.198,119.629,122.73" svgx:width="0.94,0.28,0.41,0.39,0.44,0.78,0.44,0.41,0.5,0.28,0.56,0.39,0.39" style="fill:rgb(0,0,0);font-family:URWPalladioL-Ital;font-size:7.97px;stroke:none;">Micromachines</text>
   <text y="62.979" x="127.822,131.807,135.792,139.777" svgx:width="0.5,0.5,0.5,0.5" style="fill:rgb(0,0,0);font-family:URWPalladioL-Bold;font-size:7.97px;stroke:none;">2019</text>
   <text y="62.979" x="143.763" svgx:width="0.25" style="fill:rgb(0,0,0);font-family:URWPalladioL-Roma;font-size:7.97px;stroke:none;">,</text>
   <text y="62.979" x="147.748,151.733" svgx:width="0.5,0.5" style="fill:rgb(0,0,0);font-family:URWPalladioL-Ital;font-size:7.97px;stroke:none;">10</text>
   <text y="62.979" x="155.718,157.7105,159.703,163.688,167.673,171.65800000000002,491.809,495.794,499.779,501.772,506.123,508.7531,510.77,514.755" svgx:width="0.25,0.55,0.5,0.5,0.5,0.55,0.5,0.5,0.55,0.55,0.33,0.55,0.5,0.5" style="fill:rgb(0,0,0);font-family:URWPalladioL-Roma;font-size:7.97px;stroke:none;">, 288 16 of 22</text>
   <text y="97.848" x="76.535,82.5,85.342,89.481,93.816,99.147,104.663,109.34,113.324,115.696,118.879,124.561,129.3418,131.737,134.988,140.875,144.058,149.946,153.626,158.4068,160.802,166.768,171.435,176.951,181.628,184.469,189.8,195.667,204.288,208.965,214.647,217.83,222.0132,224.469,227.31,233.0868,235.492,238.675,244.357,249.1378,251.533,255.214,259.891,262.732,267.613,270.796,275.473,281.5486,283.938,289.845,294.521,297.362,303.328,305.818,309.283,315.249,320.13,324.27,328.947,335.0226,337.412,342.742,348.5188,350.924,354.107,359.789,364.5698,366.965,371.642,376.68,381.015,385.691,388.533,391.374,396.05,401.733,405.01980000000003,407.405,412.287,416.622,422.304,425.145,429.822,435.338,440.015,448.636,453.312,458.995,462.177,466.3602,468.817,474.147,480.035,483.217,486.059,488.9,494.582,499.259,505.3346,507.723,513.054" svgx:width="0.61,0.29,0.42,0.44,0.55,0.56,0.48,0.4,0.55,0.33,0.58,0.48,0.55,0.33,0.6,0.33,0.6,0.4,0.48,0.55,0.61,0.48,0.56,0.48,0.29,0.55,0.6,0.88,0.48,0.58,0.33,0.42,0.55,0.29,0.58,0.55,0.33,0.58,0.48,0.55,0.4,0.48,0.29,0.5,0.33,0.48,0.61,0.55,0.61,0.48,0.29,0.61,0.25,0.55,0.61,0.5,0.42,0.48,0.61,0.55,0.55,0.58,0.55,0.33,0.58,0.48,0.55,0.48,0.52,0.44,0.48,0.29,0.29,0.48,0.58,0.33,0.55,0.5,0.44,0.58,0.29,0.48,0.56,0.48,0.88,0.48,0.58,0.33,0.42,0.55,0.55,0.6,0.33,0.29,0.29,0.58,0.48,0.61,0.55,0.55,0.58" style="fill:rgb(0,0,0);font-family:URWPalladioL-Roma;font-size:9.96px;stroke:none;">discover the future developments in the related ﬁeld. Based on the excellent achievements outlined on</text>
   <text y="111.358" x="76.535,79.783,85.581,90.3618,92.844,97.825,103.334,108.774,114.403,119.1838,121.666,127.653,132.634,136.57,139.817,144.042,146.532,149.023,153.247,158.687,167.484,172.2648,174.746,179.17,184.609,190.407,194.831,197.73,203.737,207.962,210.861,216.3,222.099,226.2822,228.813,233.237,238.218,243.9948,246.507,252.016,256.7968,259.279,265.366,269.301,274.283,282.591,288.3678,290.88,295.862,300.0452,302.576,305.894,311.334,314.233,317.132,322.571,330.88" svgx:width="0.33,0.58,0.48,0.55,0.5,0.55,0.55,0.56,0.48,0.55,0.6,0.5,0.4,0.33,0.42,0.25,0.55,0.42,0.55,0.88,0.48,0.55,0.44,0.55,0.58,0.44,0.29,0.6,0.42,0.29,0.55,0.58,0.42,0.55,0.44,0.5,0.58,0.55,0.55,0.48,0.55,0.61,0.4,0.5,0.83,0.58,0.55,0.5,0.42,0.55,0.33,0.55,0.29,0.29,0.55,0.83,0.42" style="fill:rgb(0,0,0);font-family:URWPalladioL-Roma;font-size:9.96px;stroke:none;">the above parts, some conclusions can be drawn as follows</text>
   <text y="134.83" x="76.207,79.458,84.34,87.6268,99.598,105.17,110.643,114.627,117.087,120.354,126.187,130.9678,133.474,137.723,143.767,147.725,151.063,156.074,160.524,165.3048,167.82,173.844,177.622,183.094,189.158,192.074,196.8548,199.361,208.21,213.683,219.806,224.607,227.4954,230.009,234.459,239.931,243.89,247.669,252.469,256.719,262.742,268.214,274.047,280.171,283.088,288.921,294.4986,296.989,300.246,305.724,308.214,313.686,319.519,324.2998,326.805,330.143,334.943,339.744,345.868,348.358,350.859,353.775,359.55179999999996,362.094,367.105,373.229,379.352,382.269,385.536,388.453,393.925,399.7018,402.254,405.521,410.999,413.479,416.746,422.579,427.3598,429.865,435.438,441.271,446.743,455.102,460.87879999999996,463.42,466.758,471.769,476.219,479.486,484.958,488.917,493.167,495.657,498.168,502.417,508.461,512.911" svgx:width="0.33,0.5,0.33,0.55,0.56,0.55,0.4,0.55,0.33,0.58,0.48,0.55,0.42,0.6,0.4,0.33,0.5,0.44,0.48,0.55,0.6,0.4,0.55,0.61,0.29,0.48,0.55,0.88,0.55,0.61,0.48,0.29,0.55,0.44,0.55,0.4,0.4,0.48,0.42,0.6,0.55,0.58,0.61,0.29,0.58,0.56,0.55,0.33,0.55,0.55,0.55,0.58,0.48,0.55,0.33,0.48,0.48,0.61,0.25,0.55,0.29,0.58,0.55,0.5,0.61,0.61,0.29,0.33,0.29,0.55,0.58,0.55,0.33,0.55,0.55,0.33,0.58,0.48,0.55,0.56,0.58,0.55,0.83,0.58,0.55,0.33,0.5,0.44,0.33,0.55,0.4,0.42,0.25,0.55,0.42,0.6,0.44,0.58" style="fill:rgb(0,0,0);font-family:URWPalladioL-Roma;font-size:9.96px;stroke:none;">(1) For the surface proﬁle model corresponding to one feed, in addition to the known factors, such</text>
   <text y="148.339" x="99.598,104.679,108.8622,112.107,115.491,120.359,125.226,131.3016,134.545,138.559,143.639,146.952,151.7328,154.939,161.047,165.914,169.898,173.038,176.869,181.736,187.478,193.026,195.983,202.111,205.423,208.381,213.929,219.7058,222.963,228.044,233.958,240.0336,243.287,246.599,252.148,257.696,260.5844,263.763,268.275,273.823,277.837,283.751,288.619,292.603,295.752,301.666,307.215,311.523,316.3038,319.5,323.514,328.595,334.804,337.761,343.889,348.197,350.687,354.01,357.323,363.237,368.0178,371.224,374.537,380.085,385.634,388.5224,391.7,396.568,402.777,408.427,413.2078,416.414,424.889,429.97,435.711,438.668,444.583,449.45,453.759,457.9422,461.177,466.258,472.172,478.24760000000003,481.501,490.474,495.555,498.867,503.735,507.749,510.706,515.787" svgx:width="0.5,0.42,0.55,0.33,0.48,0.48,0.61,0.55,0.4,0.5,0.33,0.48,0.55,0.6,0.48,0.4,0.55,0.4,0.48,0.56,0.55,0.29,0.6,0.33,0.29,0.55,0.58,0.55,0.5,0.58,0.61,0.55,0.33,0.55,0.55,0.29,0.55,0.44,0.55,0.4,0.58,0.48,0.4,0.55,0.58,0.55,0.42,0.48,0.55,0.4,0.5,0.61,0.29,0.6,0.42,0.25,0.55,0.33,0.58,0.48,0.55,0.33,0.55,0.55,0.29,0.55,0.48,0.61,0.56,0.48,0.55,0.83,0.5,0.56,0.29,0.58,0.48,0.42,0.42,0.55,0.5,0.58,0.61,0.55,0.88,0.5,0.33,0.48,0.4,0.29,0.5,0.29" style="fill:rgb(0,0,0);font-family:URWPalladioL-Roma;font-size:9.96px;stroke:none;">as feed rate per revolution and tool corner nose radius, the tool edge waviness and material</text>
   <text y="161.849" x="99.598,105.563,110.24,116.108,120.784,126.467,132.432,137.109,142.791,146.0778,148.151,151.402,156.284,160.619,163.802,169.133,172.989,177.1722,179.316,182.157,187.839,192.174,195.015,200.903,206.868,209.709,215.391,220.96859999999998,222.997,226.18,231.862,236.6428,238.726,247.347,252.228,255.411,260.088,263.944,266.786,271.667,274.55539999999996,276.686,280.825,286.693,290.55,293.391,299.073,304.6506,306.688,312.088,316.969,321.304,326.8816,328.92,333.801,339.484,345.5596,347.626,356.247,361.129,364.312,368.988,372.845,375.686,380.568,383.4564,385.596,391.464,394.305,399.186,403.326,406.509,409.35,413.73240000000004,415.862,420.002,422.843,428.808,433.5888,435.672,441.608,446.939,457.259,461.398,467.081,472.411,478.299,481.14,487.2156,489.292,494.174,497.015,501.155,506.633,508.663,514.062" svgx:width="0.61,0.48,0.6,0.48,0.58,0.61,0.48,0.58,0.33,0.55,0.33,0.5,0.44,0.33,0.55,0.4,0.42,0.55,0.29,0.58,0.44,0.29,0.6,0.61,0.29,0.58,0.56,0.55,0.33,0.58,0.48,0.55,0.88,0.5,0.33,0.48,0.4,0.29,0.5,0.29,0.55,0.42,0.6,0.4,0.29,0.58,0.56,0.55,0.55,0.5,0.44,0.56,0.55,0.5,0.58,0.61,0.55,0.88,0.5,0.33,0.48,0.4,0.29,0.5,0.29,0.55,0.6,0.29,0.5,0.42,0.33,0.29,0.44,0.55,0.42,0.29,0.61,0.48,0.55,0.61,0.55,0.83,0.42,0.58,0.55,0.6,0.29,0.61,0.55,0.5,0.29,0.42,0.55,0.55,0.55,0.48" style="fill:rgb(0,0,0);font-family:URWPalladioL-Roma;font-size:9.96px;stroke:none;">dependent factors including the material spring back and material plastic side ﬂowshould also be</text>
   <text y="175.358" x="99.598,105.037,107.884,113.412,118.098,123.8748,126.297,130.983,136.677,142.018,147.918,153.357,159.1338,161.555,166.447,169.636,172.826,177.512,183.206,186.395,189.242,194.584,200.278,202.768,206.265,211.704,217.604,221.468,224.658,230.351,235.038,238.902,247.541,252.882,256.561,261.247,263.737,266.207,269.396,275.09,279.8708,282.281,285.128,290.822,296.77,302.669,307.356,313.049,317.393,322.17379999999997,324.584,333.223,337.909,342.253,347.946,352.838,358.532,361.379,365.527,376.67,381.562,387.256,393.3316,395.748,398.937,404.631,409.41179999999997,411.822,416.165,421.507,425.371,429.06,433.746,437.894,443.774,449.115,454.809,460.787,463.634,469.328,474.9056,477.272,485.91,491.252,497.23,501.916,504.763,507.61,513.303" svgx:width="0.56,0.29,0.56,0.48,0.58,0.55,0.48,0.58,0.55,0.6,0.56,0.58,0.55,0.5,0.33,0.33,0.48,0.58,0.33,0.29,0.55,0.58,0.25,0.55,0.56,0.6,0.4,0.33,0.58,0.48,0.4,0.88,0.55,0.4,0.48,0.25,0.55,0.33,0.58,0.48,0.55,0.29,0.58,0.61,0.6,0.48,0.58,0.44,0.48,0.55,0.88,0.48,0.44,0.58,0.5,0.58,0.29,0.42,0.88,0.5,0.58,0.61,0.55,0.33,0.58,0.48,0.55,0.44,0.55,0.4,0.4,0.48,0.42,0.6,0.55,0.58,0.61,0.29,0.58,0.56,0.55,0.88,0.55,0.61,0.48,0.29,0.29,0.58,0.56" style="fill:rgb(0,0,0);font-family:URWPalladioL-Roma;font-size:9.96px;stroke:none;">given enough attention. Furthermore, the inﬂuence mechanismand the corresponding modeling</text>
   <text y="188.867" x="99.598,108.571,113.438,116.751,122.665,128.214,134.423,138.6062,141.627,147.176,150.4628,153.446,156.758,162.673,167.4538,170.436,175.985,179.297,185.212,190.079,194.06300000000002,196.989,200.373,205.454,209.966,213.279,218.827,222.841,227.15,229.64000000000001,232.678,236.986,243.114,247.626,253.4028,256.436,261.517,265.7002,268.722,274.931,279.798,285.905,289.218,294.9948,298.018,303.567,306.85380000000004,309.847,314.359,320.486,323.7728,326.695,331.776,337.69,343.7656,346.795,351.104,357.211,360.168,366.082,372.291,375.248,380.0288,383.002,387.31,393.418,398.285,403.153,409.362,411.85200000000003,414.9,419.981,423.812,428.5928,431.575,437.784,442.652,446.961,451.828,455.842,461.583,466.451,472.52660000000003,475.556,478.869,484.34700000000004,487.303,490.687,496.815,500.828,504.141,510.055,514.923" svgx:width="0.88,0.48,0.33,0.58,0.55,0.61,0.42,0.55,0.55,0.33,0.55,0.33,0.58,0.48,0.55,0.55,0.33,0.58,0.48,0.4,0.55,0.33,0.5,0.44,0.33,0.55,0.4,0.42,0.25,0.55,0.42,0.6,0.44,0.58,0.55,0.5,0.42,0.55,0.61,0.48,0.6,0.33,0.58,0.55,0.55,0.33,0.55,0.44,0.6,0.33,0.55,0.5,0.58,0.61,0.55,0.42,0.6,0.29,0.58,0.61,0.29,0.48,0.55,0.42,0.6,0.48,0.48,0.61,0.25,0.55,0.5,0.4,0.48,0.55,0.61,0.48,0.42,0.48,0.4,0.56,0.48,0.61,0.55,0.33,0.55,0.55,0.33,0.6,0.4,0.33,0.58,0.48,0.4" style="fill:rgb(0,0,0);font-family:URWPalladioL-Roma;font-size:9.96px;stroke:none;">methods of the other factors, such as depth of cut and spindle speed, are deserved to further</text>
   <text y="202.377" x="99.598,104.021,106.921,111.902,115.837,118.736,124.764,129.536,135.6116,138.113,143.095,148.893,154.9686,157.471,161.695,167.702,173.212,177.436,182.208,187.787,193.794,198.566,204.365,207.612,210.512,216.0896,218.541,221.441,227.239,230.487,235.259,240.798,244.733,249.714,252.962,257.734,263.8096,266.312,269.211,275.009,278.257,283.735,286.187,289.435,295.233,300.0138,302.496,306.72,312.728,316.663,319.981,324.962,329.385,334.1658,336.648,339.896,345.335,351.323,356.763,362.302,366.237,371.218,377.206,383.004,388.58160000000004,391.034,399.831,405.27,411.358,416.13,419.029" svgx:width="0.44,0.29,0.5,0.4,0.29,0.61,0.48,0.61,0.55,0.5,0.58,0.61,0.55,0.42,0.6,0.55,0.42,0.48,0.56,0.6,0.48,0.58,0.33,0.29,0.56,0.55,0.29,0.58,0.33,0.48,0.56,0.4,0.5,0.33,0.48,0.61,0.55,0.29,0.58,0.33,0.55,0.55,0.33,0.58,0.48,0.55,0.42,0.6,0.4,0.33,0.5,0.44,0.48,0.55,0.33,0.55,0.6,0.55,0.56,0.4,0.5,0.6,0.58,0.56,0.55,0.88,0.55,0.61,0.48,0.29,0.25" style="fill:rgb(0,0,0);font-family:URWPalladioL-Roma;font-size:9.96px;stroke:none;">clariﬁed and subsequently integrated into the surface topography model.</text>
   <text y="216.882" x="76.207,79.458,84.34,87.6268,99.6,105.028,110.359,114.34299999999999,115.758,118.941,124.623,129.40380000000002,130.843,134.982,140.87,144.726,147.977,152.859,157.194,161.9748,163.413,166.596,171.927,177.795,183.125,188.554,192.41,197.292,203.16,208.842,215.823,218.664,225.889,229.072,234.754,239.5348,240.973,244.83,249.711,255.677,258.518,263.4,266.28839999999997,267.783,273.749,276.59,280.271,284.947,289.282,292.465,295.306,300.637,306.319,308.809,310.498,313.681,319.363,324.1438,325.582,328.297,331.479,335.336,338.177,348.341,354.208,358.065,360.906,366.588,370.923,373.764,379.632,382.473,387.15,389.93879999999996,391.407,394.248,398.4312,399.93,404.607,409.645,412.828,417.504,423.186,427.326,430.167,435.684,440.36,443.201,450.182,454.859,463.48,469.338,472.179,477.51,482.938,487.615,495.133,497.974,505.199,508.381,514.064" svgx:width="0.33,0.5,0.33,0.55,0.56,0.55,0.4,0.55,0.33,0.58,0.48,0.55,0.42,0.6,0.4,0.33,0.5,0.44,0.48,0.55,0.33,0.55,0.6,0.55,0.56,0.4,0.5,0.6,0.58,0.56,0.29,0.58,0.33,0.58,0.48,0.55,0.4,0.5,0.61,0.29,0.5,0.29,0.55,0.61,0.29,0.4,0.48,0.44,0.33,0.29,0.55,0.58,0.25,0.55,0.33,0.58,0.48,0.55,0.28,0.33,0.4,0.29,0.88,0.6,0.4,0.29,0.58,0.44,0.29,0.6,0.29,0.48,0.28,0.55,0.29,0.42,0.55,0.48,0.52,0.33,0.48,0.58,0.42,0.29,0.56,0.48,0.29,0.56,0.48,0.88,0.6,0.29,0.55,0.56,0.48,0.61,0.29,0.58,0.33,0.58,0.48" style="fill:rgb(0,0,0);font-family:URWPalladioL-Roma;font-size:9.96px;stroke:none;">(2) For the surface topographyinthe radial direction, the ‘trimprinciple’ is extensivelyemployedinthe</text>
   <text y="230.392" x="99.598,103.977,108.909,111.779,116.158,122.105,124.975,129.907,133.122,135.992,141.378,147.1548,149.623,155.008,158.2948,160.788,164.003,169.743,174.5238,176.973,181.352,186.737,192.123,195.841,201.867,204.737,210.478,215.409,218.624,223.4048,225.844,231.417,236.348,239.218,245.166,249.89,254.07319999999999,256.577,259.447,265.2238,267.683,270.898,276.638,281.4188,283.868,289.608,294.333,297.203,302.686,308.427,311.71380000000005,314.137,320.164,323.034,326.752,331.477,335.856,339.071,341.941,347.326,353.067,355.557,359.053,364.537,370.485,374.38,377.596,383.336,388.06,391.956,400.665,406.051,409.769,414.493,416.983,419.464,423.183,427.907,432.089,436.813,441.745,445.453,449.832,455.573,460.297,464.193,468.3762,470.88,476.62,481.552,487.124,491.9048,494.354,503.063,507.994,514.021" svgx:width="0.44,0.5,0.29,0.44,0.6,0.29,0.5,0.33,0.29,0.55,0.58,0.55,0.55,0.33,0.55,0.33,0.58,0.48,0.55,0.44,0.55,0.55,0.4,0.61,0.29,0.58,0.5,0.33,0.48,0.55,0.56,0.5,0.29,0.6,0.48,0.42,0.55,0.29,0.58,0.55,0.33,0.58,0.48,0.55,0.58,0.48,0.29,0.56,0.58,0.33,0.55,0.61,0.29,0.4,0.48,0.44,0.33,0.29,0.55,0.58,0.25,0.55,0.56,0.6,0.4,0.33,0.58,0.48,0.4,0.88,0.55,0.4,0.48,0.25,0.55,0.4,0.48,0.42,0.48,0.5,0.4,0.44,0.58,0.48,0.4,0.42,0.55,0.58,0.5,0.56,0.48,0.55,0.88,0.5,0.61,0.48" style="fill:rgb(0,0,0);font-family:URWPalladioL-Roma;font-size:9.96px;stroke:none;">calculation of the coordinate values in the height direction. Furthermore, researchers have made</text>
   <text y="243.901" x="99.598,105.026,108.707,113.384,118.266,121.5528,123.479" svgx:width="0.56,0.4,0.48,0.5,0.33,0.55,0.48" style="fill:rgb(0,0,0);font-family:URWPalladioL-Roma;font-size:9.96px;stroke:none;">great e</text>
   <text y="243.901" x="128.159" svgx:width="0.61" style="fill:rgb(0,0,0);font-family:Rpxr;font-size:9.96px;stroke:none;">ﬀ</text>
   <text y="243.901" x="134.095,139.426,143.282,146.5688,148.506,153.837,159.6138,161.55,164.732,170.415,175.1958,177.132,179.973,188.594,194.462,199.343,203.678,206.9648,208.902,214.233,217.5198,219.524,225.041,227.882,233.281,237.137,242.019,245.202,248.043,253.374,259.1508,261.087,266.486,271.163,274.346,282.488,287.165,291.841,297.6178,299.564,305.53,308.371,313.252,321.873,327.204,332.887,338.9626,340.892,344.075,349.406,354.737,357.6254,359.609,364.49,370.173,376.2486,378.179,386.321,391.652,395.509,400.937,406.805,409.646,414.323,418.658,423.334,425.824,427.903,432.785,438.467,444.5426,446.473,449.656,455.338,460.1188,462.046,466.722,471.76,477.628,481.309,485.986,490.125,494.265,497.106,502.437,508.2138,510.16,515.49" svgx:width="0.55,0.4,0.33,0.55,0.55,0.58,0.55,0.33,0.58,0.48,0.55,0.29,0.88,0.6,0.5,0.44,0.33,0.55,0.55,0.33,0.55,0.56,0.29,0.55,0.4,0.5,0.33,0.29,0.55,0.58,0.55,0.55,0.48,0.33,0.83,0.48,0.48,0.58,0.55,0.61,0.29,0.5,0.88,0.55,0.58,0.61,0.55,0.33,0.55,0.55,0.29,0.55,0.5,0.58,0.61,0.55,0.83,0.55,0.4,0.56,0.6,0.29,0.48,0.44,0.48,0.25,0.55,0.5,0.58,0.61,0.55,0.33,0.58,0.48,0.55,0.48,0.52,0.6,0.4,0.48,0.42,0.42,0.29,0.55,0.58,0.55,0.55,0.33" style="fill:rgb(0,0,0);font-family:URWPalladioL-Roma;font-size:9.96px;stroke:none;">ort on the impact of vibration between diamond tool and workpiece, and the expression of</text>
   <text y="257.411" x="99.598,105.28,110.162,114.018,122.639,127.97,133.653,136.494,140.8764,143.113,148.63,151.471,156.87,160.726,165.608,168.791,171.632,176.963,182.7398,184.92,190.885,195.562,201.078,205.755,208.596,213.927,219.795,223.9782,226.219,229.47,233.151,238.482,249.387,252.57,258.252,263.0328,265.204,273.825,279.156,284.838,290.169,293.42,296.671,300.352,305.029,310.496,316.383,321.06,326.742,331.077,336.6546,338.79,344.307,347.148,352.547,356.403,361.285,364.468,367.309,372.64,378.41679999999997,380.597,383.78,389.258,391.395,394.578,400.26,405.0408,407.222,415.843,421.73,424.571,427.754,430.595,433.846,437.098,440.769,445.445,450.913,456.8,461.477,467.159,471.494,477.07160000000005,479.207,484.723,487.564,492.963,496.82,501.702,504.884,507.726,513.056" svgx:width="0.58,0.5,0.4,0.88,0.55,0.58,0.29,0.44,0.55,0.56,0.29,0.55,0.4,0.5,0.33,0.29,0.55,0.58,0.55,0.61,0.48,0.56,0.48,0.29,0.55,0.6,0.42,0.55,0.33,0.4,0.55,0.88,0.33,0.58,0.48,0.55,0.88,0.55,0.58,0.55,0.33,0.33,0.4,0.48,0.56,0.6,0.48,0.58,0.44,0.56,0.55,0.56,0.29,0.55,0.4,0.5,0.33,0.29,0.55,0.58,0.55,0.33,0.55,0.55,0.33,0.58,0.48,0.55,0.88,0.6,0.29,0.33,0.29,0.33,0.33,0.4,0.48,0.56,0.6,0.48,0.58,0.44,0.56,0.55,0.56,0.29,0.55,0.4,0.5,0.33,0.29,0.55,0.58" style="fill:rgb(0,0,0);font-family:URWPalladioL-Roma;font-size:9.96px;stroke:none;">harmonic vibration develops fromthe mono-frequency vibration to the multi-frequency vibration</text>
   <text y="270.92" x="99.598,104.49,110.184,116.25959999999999,118.666,127.304,133.204,136.05,139.24,142.087,145.345,151.322,154.169,157.857,162.544,166.887,170.077,172.924,178.265,184.0418,186.464,191.991,194.838,200.248,204.113,209.004,212.194,215.041,220.382,226.076,228.566,232.044,240.184,244.87,248.558,253.244,256.091,261.785,264.27500000000003,266.735,269.925,275.403,277.771,280.618,289.257,295.136,298.825,304.166,309.694,314.4748,316.885,320.074,325.768,330.54879999999997,332.959,338.838,342.527,347.213,353.19,356.037,360.381,363.57,366.417,371.759,377.5358,379.957,384.849,389.193,393.537,399.436,403.3,408.192,412.536,416.87,419.36,421.82,425.009,430.703,435.4838,437.894,441.582,446.268,451.16,454.007,457.265,460.454,463.301,471.94,476.7208,479.131,484.658,487.505,492.915,496.78,501.671,504.861,507.707,513.049" svgx:width="0.5,0.58,0.61,0.55,0.88,0.6,0.29,0.33,0.29,0.33,0.61,0.29,0.4,0.48,0.44,0.33,0.29,0.55,0.58,0.55,0.56,0.29,0.55,0.4,0.5,0.33,0.29,0.55,0.58,0.25,0.55,0.83,0.48,0.4,0.48,0.29,0.58,0.25,0.55,0.33,0.55,0.55,0.29,0.88,0.6,0.4,0.55,0.56,0.48,0.55,0.33,0.58,0.48,0.55,0.6,0.4,0.48,0.61,0.29,0.44,0.33,0.29,0.55,0.58,0.55,0.5,0.44,0.44,0.6,0.4,0.5,0.44,0.56,0.25,0.55,0.33,0.58,0.48,0.55,0.4,0.48,0.5,0.29,0.33,0.33,0.29,0.88,0.48,0.55,0.56,0.29,0.55,0.4,0.5,0.33,0.29,0.55,0.58" style="fill:rgb(0,0,0);font-family:URWPalladioL-Roma;font-size:9.96px;stroke:none;">and multi-direction vibration. Herein, to improve the prediction accuracy, the real-time vibration</text>
   <text y="284.429" x="99.598,103.801,106.686,112.197,117.966,122.923,125.8114,128.286,133.242,139.011,145.0866,147.556,152.304,156.22,159.947,165.359,169.34300000000002,171.763,176.164,181.577,190.33,196.287,201.7,207.469,212.217,217.986,221.218,225.4012,227.899,231.636,236.385,239.269,244.226,247.457,252.205,258.2806,260.74,263.972,269.45,271.872,280.625,285.582,289.983,295.752,298.637,304.406,309.1868,311.633,314.864,320.277,325.689,328.5774,331.052,336.008,340.1912,342.689,350.957,355.705,358.59,361.47839999999997,363.962,368.919,373.1022,375.6,380.001,385.979,389.21,392.442,395.326,401.096,406.6736,409.085,412.317,417.729,423.142,426.0304,428.514,433.471,437.198,441.9788,444.434,448.171,452.92,457.321,462.733,471.486,480.239,484.987,490.757,496.813,501.562,507.6376,510.097,513.328" svgx:width="0.42,0.29,0.56,0.58,0.5,0.29,0.55,0.5,0.58,0.61,0.55,0.48,0.4,0.4,0.55,0.4,0.55,0.44,0.55,0.88,0.6,0.55,0.58,0.48,0.58,0.33,0.42,0.55,0.4,0.48,0.29,0.5,0.33,0.48,0.61,0.55,0.33,0.55,0.55,0.88,0.5,0.44,0.58,0.29,0.58,0.48,0.55,0.33,0.55,0.55,0.29,0.55,0.5,0.42,0.55,0.83,0.48,0.29,0.29,0.55,0.5,0.42,0.55,0.44,0.6,0.33,0.33,0.29,0.58,0.56,0.55,0.33,0.55,0.55,0.29,0.55,0.5,0.4,0.48,0.55,0.4,0.48,0.44,0.55,0.88,0.88,0.48,0.58,0.61,0.48,0.61,0.55,0.33,0.55" style="fill:rgb(0,0,0);font-family:URWPalladioL-Roma;font-size:9.96px;stroke:none;">signal and error components related to machine tool as well as cutting tool are recommended to</text>
   <text y="297.939" x="99.598,105.107,109.8878,112.37,116.793,122.233,127.673,133.66,138.432,142.367,147.349,150.597,155.369,161.4446,163.946,166.846,172.644,175.892,181.37,183.822,187.07,192.868,197.6488,200.131,203.448,209.456,212.703,218.711,222.467,227.2478,229.729,233.954,239.961,243.896,247.214,252.195,256.618,261.3988,263.881,267.129,272.569,278.556,283.996,289.535,293.47,298.451,304.439,310.237,315.81460000000004,318.267,327.064,332.504,338.591,343.363,346.262" svgx:width="0.55,0.48,0.55,0.44,0.55,0.55,0.6,0.48,0.4,0.5,0.33,0.48,0.61,0.55,0.29,0.58,0.33,0.55,0.55,0.33,0.58,0.48,0.55,0.33,0.6,0.33,0.6,0.4,0.48,0.55,0.42,0.6,0.4,0.33,0.5,0.44,0.48,0.55,0.33,0.55,0.6,0.55,0.56,0.4,0.5,0.6,0.58,0.56,0.55,0.88,0.55,0.61,0.48,0.29,0.25" style="fill:rgb(0,0,0);font-family:URWPalladioL-Roma;font-size:9.96px;stroke:none;">be cooperated into the future surface topography model.</text>
   <text y="312.444" x="76.207,79.458,84.34,87.6268,99.6,107.157,111.833,115.085,119.761,124.096,127.279,131.4622,133.889,136.73,142.5068,144.892,148.075,153.757,158.5378,160.914,169.056,174.387,178.244,183.8216,186.142,194.763,199.645,202.828,207.505,211.361,214.202,219.084,221.9724,224.405,233.026,237.908,241.09,244.947,247.788,252.96720000000002,255.306,260.988,265.87,271.376,276.1568,278.533,283.51300000000003,285.894,291.323,294.994,299.671,304.552,307.83880000000005,310.215,313.056,321.677,327.545,332.427,336.762,340.0488,342.424,347.755,353.5318,355.907,359.09,364.773,369.5538,371.929,377.836,383.518,388.4,391.28839999999997,393.721,398.603,402.938,408.62,411.461,416.138,421.654,426.331,432.4066,434.766,438.906,444.793,448.65,451.901,456.782,461.117,465.8978,468.274,471.457,476.787,482.655,487.986,493.414,497.271,502.153,508.02,513.703" svgx:width="0.33,0.5,0.33,0.55,0.77,0.48,0.33,0.48,0.44,0.33,0.42,0.55,0.29,0.58,0.55,0.33,0.58,0.48,0.55,0.83,0.55,0.4,0.56,0.55,0.88,0.5,0.33,0.48,0.4,0.29,0.5,0.29,0.55,0.88,0.5,0.33,0.4,0.29,0.52,0.55,0.58,0.5,0.56,0.48,0.55,0.5,0.55,0.56,0.4,0.48,0.5,0.33,0.55,0.29,0.88,0.6,0.5,0.44,0.33,0.55,0.55,0.58,0.55,0.33,0.58,0.48,0.55,0.61,0.58,0.5,0.29,0.55,0.5,0.44,0.58,0.29,0.48,0.56,0.48,0.61,0.55,0.42,0.6,0.4,0.33,0.5,0.44,0.48,0.55,0.33,0.55,0.6,0.55,0.56,0.4,0.5,0.6,0.58,0.56" style="fill:rgb(0,0,0);font-family:URWPalladioL-Roma;font-size:9.96px;stroke:none;">(3) Defects in the work material matrix have a great impact on the ﬁnal achieved surface topography</text>
   <text y="325.954" x="99.598,102.439,108.21579999999999,110.552,116.518,119.359,124.241,132.862,138.193,143.875,149.9506,152.271,155.454,161.341,165.198,170.88,173.721,179.404,184.9816,187.253,193.121,196.802,202.133,206.468,211.144,215.284,219.424,221.91400000000002,224.305,232.448,238.13,240.971,245.306,251.08280000000002,253.42,256.261,260.4442,262.831,267.166,270.007,275.338,279.478,284.155,286.986,292.5636,294.845,299.727,303.867,308.006,313.337,317.672,320.513,325.395,328.578,333.254,339.3296,341.651,349.793,352.635,355.817,361.5938,363.931,372.073,377.404,381.261,386.83860000000004,389.12,397.741,402.623,405.806,410.482,414.339,417.18,422.062,424.9504,427.324,431.464,436.795,439.636,442.477,448.442,451.283,457.19,461.525,466.407,469.59,472.431,477.762,483.5388,485.875,491.743,495.424,500.754,505.089,509.766,513.906,518.045" svgx:width="0.29,0.58,0.55,0.61,0.29,0.5,0.88,0.55,0.58,0.61,0.55,0.33,0.6,0.4,0.58,0.29,0.58,0.56,0.55,0.6,0.4,0.55,0.44,0.48,0.42,0.42,0.25,0.55,0.83,0.58,0.29,0.44,0.58,0.55,0.29,0.42,0.55,0.44,0.29,0.55,0.42,0.48,0.29,0.56,0.55,0.5,0.42,0.42,0.55,0.44,0.29,0.5,0.33,0.48,0.61,0.55,0.83,0.29,0.33,0.58,0.55,0.83,0.55,0.4,0.56,0.55,0.88,0.5,0.33,0.48,0.4,0.29,0.5,0.29,0.55,0.42,0.55,0.29,0.29,0.61,0.29,0.61,0.44,0.5,0.33,0.29,0.55,0.58,0.55,0.6,0.4,0.55,0.44,0.48,0.42,0.42,0.25" style="fill:rgb(0,0,0);font-family:URWPalladioL-Roma;font-size:9.96px;stroke:none;">in diamond turning process, which is closely associated with work material solidiﬁcation process.</text>
   <text y="339.463" x="99.598,105.248,110.796,114.78,117.94,121.253,127.167,131.9478,135.175,139.483,142.44,148.355,154.005,156.962,161.7428,164.959,169.471,173.485,179.135,183.443,186.756,191.837,194.72539999999998,197.934,206.907,211.988,215.301,220.168,224.182,227.139,232.22,235.177,237.667,241.01,244.323,250.237,255.0178,258.245,261.202,267.116,273.294,279.422,284.29,290.204,294.716,299.4968,302.713,308.261,311.54780000000005,314.785,318.098,324.012,328.7928,332.01,337.66,341.674,346.755,349.712,355.48879999999997,358.766,364.314,368.328,371.285,376.153,382.067,385.38,390.461,393.773,396.73,402.279,408.0558,411.323,415.632,421.546,427.094,433.222,436.179,442.2546,445.528,451.147,455.9278,459.145,462.528,468.656,472.67,475.983,481.897,486.764,490.748,493.918,497.231,502.312,507.962,512.83" svgx:width="0.56,0.55,0.4,0.55,0.33,0.58,0.48,0.55,0.42,0.29,0.58,0.56,0.29,0.48,0.55,0.44,0.4,0.56,0.42,0.33,0.5,0.29,0.55,0.88,0.5,0.33,0.48,0.4,0.29,0.5,0.29,0.25,0.55,0.33,0.58,0.48,0.55,0.29,0.58,0.61,0.6,0.48,0.58,0.44,0.48,0.55,0.55,0.33,0.55,0.33,0.58,0.48,0.55,0.56,0.4,0.5,0.29,0.58,0.55,0.55,0.4,0.29,0.48,0.58,0.33,0.5,0.33,0.29,0.55,0.58,0.55,0.42,0.58,0.55,0.6,0.29,0.61,0.55,0.55,0.48,0.55,0.33,0.6,0.4,0.33,0.58,0.48,0.4,0.55,0.33,0.5,0.56,0.48,0.58" style="fill:rgb(0,0,0);font-family:URWPalladioL-Roma;font-size:9.96px;stroke:none;">For the single crystal material, the inﬂuence of the grain orientation should be further taken</text>
   <text y="352.973" x="99.598,102.509,108.33,111.591,117.06899999999999,119.553,124.554,128.995,133.436,138.898,144.929,150.751,154.011,156.501,160.033,165.594,171.055,175.03900000000002,177.507,180.768,186.589,191.3698,193.891,199.903,205.364,208.275,213.826,218.267,222.218,227.779,232.02,235.281,240.282,243.193,246.104,249.015,254.836,259.6168,262.138,270.48,275.941,279.892,285.4696,287.954,296.786,301.787,305.048,309.839,313.79,316.701,321.702,324.613,327.103,329.614,335.726" svgx:width="0.29,0.58,0.33,0.55,0.55,0.5,0.44,0.44,0.55,0.6,0.58,0.33,0.25,0.55,0.56,0.55,0.4,0.55,0.33,0.58,0.48,0.55,0.6,0.55,0.29,0.56,0.44,0.4,0.56,0.42,0.33,0.5,0.29,0.29,0.29,0.58,0.48,0.55,0.83,0.55,0.4,0.56,0.55,0.88,0.5,0.33,0.48,0.4,0.29,0.5,0.29,0.25,0.55,0.61,0.29" style="fill:rgb(0,0,0);font-family:URWPalladioL-Roma;font-size:9.96px;stroke:none;">into account. For the polycrystalline work material, di</text>
   <text y="352.973" x="338.639" svgx:width="0.61" style="fill:rgb(0,0,0);font-family:Rpxr;font-size:9.96px;stroke:none;">ﬀ</text>
   <text y="352.973" x="344.72,349.511,353.282,358.073,363.895,367.1818,369.656,374.447,379.608,385.62,390.411,394.362,397.273,406.105,410.896,416.718,419.978,424.98,427.8684,430.391,434.162,438.953,443.194,449.225,452.136,455.397,459.5802,462.149,467.15,470.921,475.7018,478.212,483.674,489.205,493.446,498.237,502.188,507.84,512.631" svgx:width="0.48,0.4,0.48,0.58,0.33,0.55,0.48,0.52,0.6,0.48,0.4,0.29,0.88,0.48,0.58,0.33,0.5,0.29,0.55,0.4,0.48,0.42,0.6,0.29,0.33,0.42,0.55,0.5,0.4,0.48,0.55,0.55,0.55,0.42,0.48,0.4,0.56,0.48,0.61" style="fill:rgb(0,0,0);font-family:URWPalladioL-Roma;font-size:9.96px;stroke:none;">erent experimental results are observed</text>
   <text y="366.482" x="99.598,102.982,108.53,112.514,116.355,119.668,125.582,130.3628,134.25,139.331,142.288,148.416,157.388,160.346,166.26,169.217,175.344,184.1088,188.128,193.209,196.166,199.123,204.672,210.2496,214.132,219.213,225.127,231.20260000000002,235.147,239.659,245.207,251.314,257.422,262.289,266.27299999999997,270.104,279.077,284.158,287.47,292.338,296.352,299.309,304.39,307.2784,311.158,319.633,325.547,330.414,336.19079999999997,340.139,344.651,350.199,356.114,360.422,363.379,369.588,374.456,378.47,381.427,387.341,392.9186,396.802,400.114,406.029,410.8098,414.697,420.347,424.361,429.441,432.399,438.1758,442.123,447.743,453.291,459.419,465.333,471.542,476.623,480.637,485.179,487.669,495.158,503.613,508.694,512.535" svgx:width="0.33,0.55,0.4,0.55,0.33,0.58,0.48,0.55,0.5,0.29,0.6,0.88,0.29,0.58,0.29,0.6,0.88,0.55,0.5,0.29,0.29,0.55,0.56,0.55,0.5,0.58,0.61,0.55,0.44,0.55,0.6,0.6,0.48,0.4,0.55,0.88,0.5,0.33,0.48,0.4,0.29,0.5,0.29,0.55,0.83,0.58,0.48,0.58,0.55,0.44,0.55,0.58,0.42,0.29,0.61,0.48,0.4,0.29,0.58,0.56,0.55,0.33,0.58,0.48,0.55,0.56,0.4,0.5,0.29,0.58,0.55,0.55,0.55,0.6,0.58,0.61,0.5,0.4,0.56,0.25,0.55,0.83,0.5,0.4,0.61" style="fill:rgb(0,0,0);font-family:URWPalladioL-Roma;font-size:9.96px;stroke:none;">for the aluminium alloy and copper material when considering the grain boundary. Hard</text>
   <text y="379.991" x="99.299,105.406,110.487,114.501,117.814,120.771,125.283,128.24,133.107,137.2902,140.119,148.594,151.551,154.864,160.778,163.735,169.51180000000002,172.342,175.655,181.569,186.3498,189.14,195.247,200.796,203.753,209.403,213.914,217.928,223.578,227.887,231.2,236.281,239.238,242.195,245.152,251.066,255.8468,258.627,267.102,272.65,276.664,282.2416,285.017,293.99,299.071,302.384,307.251,311.265,314.222,319.303,322.1914,324.963,330.044,333.875,338.6558,341.446,345.277,350.144,354.453,360.56,366.109,372.023,376.331,379.288,384.908,387.865,392.6458,395.436,398.82,404.368,408.352,411.075,414.388,420.302,425.0828,427.872,432.181,436.693,440.707,445.788,449.1,453.612,459.526,464.394,468.5772,471.396,476.476,482.391,488.4666,491.303,495.317,500.397,503.355,507.663,512.531" svgx:width="0.6,0.5,0.4,0.33,0.29,0.44,0.29,0.48,0.42,0.55,0.83,0.29,0.33,0.58,0.29,0.58,0.55,0.33,0.58,0.48,0.55,0.6,0.55,0.29,0.56,0.44,0.4,0.56,0.42,0.33,0.5,0.29,0.29,0.29,0.58,0.48,0.55,0.83,0.55,0.4,0.56,0.55,0.88,0.5,0.33,0.48,0.4,0.29,0.5,0.29,0.55,0.5,0.4,0.48,0.55,0.4,0.48,0.42,0.6,0.55,0.58,0.42,0.29,0.55,0.29,0.48,0.55,0.33,0.55,0.4,0.55,0.33,0.58,0.48,0.55,0.42,0.44,0.4,0.5,0.33,0.44,0.58,0.48,0.42,0.55,0.5,0.58,0.61,0.55,0.4,0.5,0.29,0.42,0.48,0.61" style="fill:rgb(0,0,0);font-family:URWPalladioL-Roma;font-size:9.96px;stroke:none;">particles within the polycrystalline work material are responsible for the scratches and raised</text>
   <text y="393.501" x="99.598,103.852,107.122,111.005,117.054,121.509,124.779,130.829,134.611,139.416,143.5992,146.158,151.636,157.4128,159.963,163.233,169.072,173.8528,176.365,185.224,190.24,194.695,200.533,203.453,209.292,214.097,220.17260000000002,222.715,226.969,233.018,236.981,240.322,245.338,249.792,254.598,257.088,260.597,266.175,272.224,276.187,279.458,285.297,290.102,294.065,302.923,308.401,312.183,316.989,319.479,321.985,324.904,330.743,336.843,342.892,347.698,353.536,357.991,360.91,366.749,372.32660000000004,374.815,378.156,383.172,387.626,390.897,396.374,400.337,404.5202,407.079,409.998,415.77479999999997,418.325,422.107,426.913,429.832,434.848,438.119,441.038,446.516,452.2928,454.843,458.113,463.591,466.079,469.35,475.188,479.9688,482.482,487.498,496.357,501.905,504.824,509.629,515.468" svgx:width="0.42,0.33,0.4,0.6,0.44,0.33,0.6,0.4,0.48,0.42,0.55,0.55,0.58,0.55,0.33,0.58,0.48,0.55,0.88,0.5,0.44,0.58,0.29,0.58,0.48,0.61,0.55,0.42,0.6,0.4,0.33,0.5,0.44,0.48,0.25,0.55,0.56,0.6,0.4,0.33,0.58,0.48,0.4,0.88,0.55,0.4,0.48,0.25,0.55,0.29,0.58,0.61,0.6,0.48,0.58,0.44,0.29,0.58,0.56,0.55,0.33,0.5,0.44,0.33,0.55,0.4,0.42,0.55,0.29,0.58,0.55,0.4,0.48,0.29,0.5,0.33,0.29,0.55,0.58,0.55,0.33,0.55,0.55,0.33,0.58,0.48,0.55,0.5,0.88,0.55,0.29,0.48,0.58,0.33" style="fill:rgb(0,0,0);font-family:URWPalladioL-Roma;font-size:9.96px;stroke:none;">structures on the machined surface. Furthermore, inﬂuencing factors in relation to the ambient</text>
   <text y="407.01" x="99.598,104.466,110.38,116.121,119.078,122.909,128.458,134.372,143.345,148.212,154.127,157.4138,160.528,165.609,171.524,177.5996,180.822,184.134,190.049,194.8298,198.005,203.747,208.828,211.785,214.742,220.951,226.032,229.345,232.302,237.85,243.6268,246.843,250.227,255.775,259.759,262.879,266.191,272.106,276.8868,280.062,286.17,290.001,294.868,301.077,304.034,308.546,311.859,314.816,320.364,326.14079999999996,329.368,334.449,338.96,343.472,349.6,353.614,358.695,363.207,368.7846,371.946,376.254,382.169,387.717,393.845,396.802,402.87760000000003,406.1,411.181,414.138,418.446,423.92400000000004,427.074,432.693,437.4738,440.65,445.162,450.71,456.625,461.136,466.004,470.018,475.932,480.8,486.8756,490.098,495.646,501.4228,504.649,507.962,513.876" svgx:width="0.48,0.58,0.56,0.29,0.4,0.55,0.58,0.88,0.48,0.58,0.33,0.55,0.5,0.58,0.61,0.55,0.33,0.58,0.48,0.55,0.56,0.5,0.29,0.29,0.61,0.5,0.33,0.29,0.55,0.58,0.55,0.33,0.55,0.4,0.55,0.33,0.58,0.48,0.55,0.6,0.4,0.48,0.61,0.29,0.44,0.33,0.29,0.55,0.58,0.55,0.5,0.44,0.44,0.6,0.4,0.5,0.44,0.56,0.55,0.42,0.58,0.55,0.6,0.29,0.61,0.55,0.5,0.29,0.42,0.55,0.55,0.55,0.48,0.55,0.44,0.55,0.58,0.44,0.48,0.4,0.58,0.48,0.61,0.55,0.55,0.58,0.55,0.33,0.58,0.48" style="fill:rgb(0,0,0);font-family:URWPalladioL-Roma;font-size:9.96px;stroke:none;">environment and the validation for the prediction accuracy should also be concerned on the</text>
   <text y="420.52" x="99.598,103.822,109.83,113.765,117.082,122.064,126.487,131.2678,133.75,136.998,142.437,148.425,153.864,159.403,163.339,168.32,174.307,180.106,185.68359999999998,188.136,196.933,202.372,208.459,213.231,216.13" svgx:width="0.42,0.6,0.4,0.33,0.5,0.44,0.48,0.55,0.33,0.55,0.6,0.55,0.56,0.4,0.5,0.6,0.58,0.56,0.55,0.88,0.55,0.61,0.48,0.29,0.25" style="fill:rgb(0,0,0);font-family:URWPalladioL-Roma;font-size:9.96px;stroke:none;">surface topography model.</text>
   <text y="452.57" x="76.186,83.162,88.64,91.626,97.105,102.09,105.5883,107.828,114.302,119.287,124.766,127.752,131.24,134.225,139.704,145.182,148.168,151.154,156.139,161.618,165.599" svgx:width="0.78,0.61,0.33,0.61,0.56,0.39,0.55,0.72,0.56,0.61,0.33,0.39,0.33,0.61,0.61,0.33,0.33,0.56,0.61,0.44,0.25" style="fill:rgb(0,0,0);font-family:URWPalladioL-Bold;font-size:8.97px;stroke:none;">Author Contributions:</text>
   <text y="452.57" x="171.005,177.489,179.776,187.385,189.6275,191.921,196.494,201.817,207.2887,209.664,217.987,220.273,226.373,228.66,230.9025,234.101,242.589,246.201,248.863,251.844,254.506,259.828,264.913,274.059,281.248,284.86,287.522,292.607,295.268,300.591,305.164,307.76529999999997,310.075,317.154,320.766,325.339,328.385,331.3451,333.625,339.149,342.597,346.978,352.475,357.047,360.66,365.233,368.214,370.876,375.869,381.192,383.4345,385.738,392.222,394.508,402.118,404.3605,406.654,411.227,416.55,422.0217,424.397,432.719,435.006,441.106,443.392,445.6345,448.834,457.321,460.934,463.595,466.577,469.238,474.561,479.646,488.792,494.901,499.282,504.449,507.111,511.491" svgx:width="0.71,0.25,0.83,0.25,0.55,0.5,0.58,0.61,0.55,1.0,0.25,0.67,0.25,0.25,0.55,1.0,0.4,0.29,0.33,0.29,0.58,0.56,1.0,0.79,0.4,0.29,0.56,0.29,0.58,0.5,0.29,0.55,0.77,0.4,0.5,0.33,0.33,0.55,0.6,0.4,0.48,0.6,0.5,0.4,0.5,0.33,0.29,0.55,0.58,0.25,0.55,0.71,0.25,0.83,0.25,0.55,0.5,0.58,0.61,0.55,1.0,0.25,0.67,0.25,0.25,0.55,1.0,0.4,0.29,0.33,0.29,0.58,0.56,1.0,0.67,0.48,0.56,0.29,0.48,0.83" style="fill:rgb(0,0,0);font-family:URWPalladioL-Roma;font-size:8.97px;stroke:none;">C.H. and W.Z.: Writing—Original Draft Preparation; C.H. and W.Z.: Writing—Review</text>
   <text y="462.702" x="76.186,83.18260000000001,85.403,90.882,96.36,98.97,101.893,104.502,109.72,114.706" svgx:width="0.78,0.55,0.61,0.61,0.29,0.33,0.29,0.58,0.56,0.25" style="fill:rgb(0,0,0);font-family:URWPalladioL-Roma;font-size:8.97px;stroke:none;">&amp; Editing.</text>
   <text y="478.811" x="76.535,81.52,86.999,92.477,97.956,100.942,106.42,111.405" svgx:width="0.56,0.61,0.61,0.61,0.33,0.61,0.56,0.25" style="fill:rgb(0,0,0);font-family:URWPalladioL-Bold;font-size:8.97px;stroke:none;">Funding:</text>
   <text y="478.811" x="116.78,122.271,127.484,130.091,133.85840000000002,136.119,139.496,143.787,147.585,151.875,156.354,159.731,163.708,168.9106,171.152,178.622,183.101,186.8684,189.129,192.112,197.513,202.727,208.2,212.49,217.9617,220.194,225.147,230.1702,232.358,235.278,240.491,244.7966,247.012,254.456,258.935,261.855,267.256,270.794,275.273,277.8743,280.11,284.813,288.79,291.396,295.687,300.9,304.877,309.18260000000004,311.398,316.379,321.269,326.671,331.884,337.357,341.836,344.756,347.362,352.253,357.4556,359.697,364.588,367.54810000000003,369.801,376.152,381.365,383.971,389.185,393.67,395.894,398.877,406.32,411.211,413.4535,416.585,421.064,425.543,430.022,434.5,438.979,443.458,447.937,452.415,455.37510000000003,457.629,462.107,467.32,472.7917,475.033,477.953,483.166,487.4716,489.687,494.39,498.367,500.974,505.264,510.477,514.455" svgx:width="0.61,0.58,0.29,0.42,0.55,0.4,0.48,0.42,0.48,0.5,0.4,0.44,0.58,0.55,0.83,0.5,0.42,0.55,0.33,0.6,0.58,0.61,0.48,0.61,0.55,0.55,0.56,0.55,0.33,0.58,0.48,0.55,0.83,0.5,0.33,0.6,0.4,0.5,0.29,0.55,0.52,0.44,0.29,0.48,0.58,0.44,0.48,0.55,0.56,0.55,0.6,0.58,0.61,0.5,0.33,0.29,0.55,0.58,0.55,0.55,0.33,0.55,0.71,0.58,0.29,0.58,0.5,0.55,0.33,0.83,0.55,0.25,0.55,0.5,0.5,0.5,0.5,0.5,0.5,0.5,0.5,0.33,0.55,0.5,0.58,0.61,0.55,0.33,0.58,0.48,0.55,0.52,0.44,0.29,0.48,0.58,0.44,0.48" style="fill:rgb(0,0,0);font-family:URWPalladioL-Roma;font-size:8.97px;stroke:none;">This research was funded by the Natural Science Foundation of China (No. 51675133) and the Science</text>
   <text y="488.943" x="76.535,82.892,88.111,92.594,95.203,97.812,102.107,107.326,112.311,116.6166,118.847,124.263,127.643,132.539,134.637,138.932,142.913,145.87310000000002,148.078,151.064,158.515,163.41,165.6525,168.79,174.287,180.267,184.751,189.234,193.717,198.2,202.683,207.167,211.65,214.636,219.119,223.602,228.085,232.568,235.554,240.037,244.521,247.506" svgx:width="0.71,0.58,0.5,0.29,0.29,0.48,0.58,0.56,0.48,0.55,0.6,0.4,0.55,0.23,0.48,0.44,0.33,0.55,0.33,0.83,0.55,0.25,0.55,0.61,0.67,0.5,0.5,0.5,0.5,0.5,0.5,0.5,0.33,0.5,0.5,0.5,0.5,0.33,0.5,0.5,0.33,0.25" style="fill:rgb(0,0,0);font-family:URWPalladioL-Roma;font-size:8.97px;stroke:none;">Challenge Project (No. TZ2018006-0202-02).</text>
   <text y="505.053" x="76.186,83.162,87.143,92.621,98.1,103.085,110.554,113.54,118.023,123.502,128.487,136.458,140.941,146.42,149.406,153.387" svgx:width="0.78,0.44,0.61,0.61,0.56,0.83,0.33,0.5,0.61,0.56,0.89,0.5,0.61,0.33,0.44,0.25" style="fill:rgb(0,0,0);font-family:URWPalladioL-Bold;font-size:8.97px;stroke:none;">Acknowledgments:</text>
   <text y="505.053" x="158.766,164.339,169.631,173.9366,176.232,180.778,186.26,189.224,194.515,199.48,203.062,206.82940000000002,209.163,216.745,221.709,227.192,229.838,235.3097,237.639,240.284,242.93,247.985,252.2906,254.577,257.541,262.4745,264.751,267.715,273.006,277.552,282.844,287.86719999999997,290.135,294.909,300.391,302.518,308.001,312.547,317.74960000000004,320.084,328.349,332.895,338.186,343.20919999999995,345.487,348.515,351.942,356.906,364.7996,367.171,374.108,379.591,384.137,389.428,394.483,400.038,405.003,410.294,415.31719999999996,417.595,424.668,429.96,432.606,437.743,442.098,445.689,449.544,452.19,455.154,460.17719999999997,462.445,467.41,470.37010000000004,472.683,477.429,481.784,485.821,491.112,496.404,501.368,504.014,508.978,514.033" svgx:width="0.61,0.58,0.48,0.55,0.5,0.6,0.33,0.58,0.55,0.4,0.42,0.55,0.83,0.55,0.6,0.29,0.61,0.55,0.29,0.29,0.56,0.48,0.55,0.33,0.55,0.55,0.33,0.58,0.5,0.58,0.56,0.55,0.52,0.6,0.23,0.6,0.5,0.58,0.55,1.0,0.5,0.58,0.56,0.55,0.33,0.4,0.55,0.88,0.55,0.76,0.6,0.5,0.58,0.56,0.61,0.55,0.58,0.56,0.55,0.78,0.58,0.29,0.56,0.48,0.4,0.42,0.29,0.33,0.56,0.55,0.55,0.33,0.55,0.61,0.48,0.44,0.58,0.58,0.55,0.29,0.55,0.56,0.56" style="fill:rgb(0,0,0);font-family:URWPalladioL-Roma;font-size:8.97px;stroke:none;">The authors would like to thank Sujuan Wang from Guangdong University of Technology</text>
   <text y="515.185" x="76.535,81.018,86.237,91.7087,93.957,98.664,103.883,109.289,114.31,116.9113,119.161,127.303,131.786,137.004,142.0272,144.231,147.217,150.597,155.493,165.652,173.112,177.595,181.137,186.095,188.705,193.9076,196.165,199.186,204.405,208.207,211.13,213.739,216.662,222.069,224.992,229.2976,231.528,236.424,239.38410000000002,241.651,246.323,250.618,254.599,259.817,265.036,269.931,272.541,277.436,282.422,287.4452,289.648,292.634,297.53,301.118,303.313,306.236,311.455,315.75,318.359,321.947,324.142,329.361,333.656,336.265,341.647,343.895,346.504,351.70660000000004,353.964,359.353,364.249,366.858,369.467,373.269,378.488,381.097,386.315,391.3382,393.542,396.465,401.684,404.293,408.0604,410.336,414.819,418.361,421.284,423.893,427.874,430.484,434.779" svgx:width="0.5,0.58,0.61,0.55,0.52,0.58,0.6,0.56,0.29,0.55,1.0,0.5,0.58,0.56,0.55,0.33,0.4,0.55,0.88,0.83,0.5,0.4,0.55,0.29,0.58,0.55,0.34,0.58,0.42,0.33,0.29,0.33,0.6,0.33,0.48,0.55,0.55,0.33,0.55,0.61,0.48,0.44,0.58,0.58,0.55,0.29,0.55,0.56,0.56,0.55,0.33,0.55,0.4,0.55,0.33,0.58,0.48,0.29,0.4,0.55,0.58,0.48,0.29,0.6,0.55,0.29,0.58,0.55,0.6,0.55,0.29,0.29,0.42,0.58,0.29,0.58,0.56,0.55,0.33,0.58,0.29,0.42,0.55,0.5,0.4,0.33,0.29,0.44,0.29,0.48,0.25" style="fill:rgb(0,0,0);font-family:URWPalladioL-Roma;font-size:8.97px;stroke:none;">and Shuqi Wang fromHarbin Institute of Technology for their help in polishing this article.</text>
   <text y="531.295" x="76.535,83.009,87.994,93.473,98.951,101.937,105.918,108.904,112.85079999999999,115.126,120.112,123.6103,125.841,129.329,134.808,137.793,142.277,145.765,150.248,154.229,157.215" svgx:width="0.72,0.56,0.61,0.61,0.33,0.44,0.33,0.44,0.55,0.56,0.39,0.55,0.39,0.61,0.33,0.5,0.39,0.5,0.44,0.33,0.25" style="fill:rgb(0,0,0);font-family:URWPalladioL-Bold;font-size:8.97px;stroke:none;">Conﬂicts of Interest:</text>
   <text y="531.295" x="162.594,168.09,173.309,177.6146,179.845,184.329,189.735,192.658,197.877,202.772,206.314,210.0814,212.358,217.836,222.131,226.112,228.721,233.204,236.585,240.8906,243.121,248.34,253.2735,255.477,259.458,264.354,269.572,275.024,277.633,281.614,284.5741,286.779,291.674,294.6341,296.902,299.511,304.729,307.652,311.947,315.328,319.623,323.424,326.347" svgx:width="0.61,0.58,0.48,0.55,0.5,0.6,0.33,0.58,0.55,0.4,0.42,0.55,0.61,0.48,0.44,0.29,0.5,0.4,0.48,0.55,0.58,0.55,0.55,0.44,0.55,0.58,0.61,0.29,0.44,0.33,0.55,0.55,0.33,0.55,0.29,0.58,0.33,0.48,0.4,0.48,0.42,0.33,0.25" style="fill:rgb(0,0,0);font-family:URWPalladioL-Roma;font-size:8.97px;stroke:none;">The authors declare no conﬂict of interest.</text>
   <text y="554.508" x="76.535,84.834,90.373,99.23,104.211,110.298,114.722,118.039,123.02,126.338,132.425,136.301" svgx:width="0.83,0.56,0.89,0.5,0.61,0.44,0.33,0.5,0.33,0.61,0.39,0.5" style="fill:rgb(0,0,0);font-family:URWPalladioL-Bold;font-size:9.96px;stroke:none;">Nomenclature</text>
   <text y="573.574" x="76.535" svgx:width="0.72" style="fill:rgb(0,0,0);font-family:URWPalladioL-Ital;font-size:8.97px;stroke:none;">A</text>
   <text y="573.574" x="127.283,134.259,142.176,147.565,150.174,152.783,155.706,161.113,166.592,170.8976,173.128,178.024,180.9841,183.251,186.174,191.393,195.6986,197.929,205.847,210.742,215.961,220.856,223.842,226.828,230.208,234.503,239.524,244.931,249.226,254.445,258.426,263.44919999999996,265.653,270.719,273.328,278.286,281.828,286.311,289.234,291.843,296.739" svgx:width="0.78,0.88,0.6,0.29,0.29,0.33,0.6,0.61,0.48,0.55,0.55,0.33,0.55,0.33,0.58,0.48,0.55,0.88,0.55,0.58,0.55,0.33,0.33,0.4,0.48,0.56,0.6,0.48,0.58,0.44,0.56,0.55,0.56,0.29,0.55,0.4,0.5,0.33,0.29,0.55,0.58" style="fill:rgb(0,0,0);font-family:URWPalladioL-Roma;font-size:8.97px;stroke:none;">Amplitude of the mono-frequency vibration</text>
   <text y="586.004" x="76.535" svgx:width="0.61" style="fill:rgb(0,0,0);font-family:URWPalladioL-Ital;font-size:8.97px;stroke:none;">E</text>
   <text y="586.004" x="127.283,132.439,137.334,142.553,147.538,150.031,153.79840000000002,156.074,163.991,168.887,174.366,179.772,182.382,187.788,191.55540000000002,193.832,198.727,201.68710000000002,203.955,206.878,212.096,216.4016,218.633,226.111,231.006,234.548,239.5712,241.775,249.692,254.176,257.099,261.393,264.935,267.544,272.028" svgx:width="0.67,0.55,0.58,0.56,0.28,0.42,0.55,0.88,0.55,0.61,0.6,0.29,0.6,0.42,0.55,0.55,0.33,0.55,0.33,0.58,0.48,0.55,0.83,0.55,0.4,0.56,0.55,0.88,0.5,0.33,0.48,0.4,0.29,0.5,0.29" style="fill:rgb(0,0,0);font-family:URWPalladioL-Roma;font-size:8.97px;stroke:none;">Yong’s modulus of the work material</text>
   <text y="598.435" x="76.535" svgx:width="0.56" style="fill:rgb(0,0,0);font-family:URWPalladioL-Ital;font-size:8.97px;stroke:none;">F</text>
   <text y="598.435" x="81.521" svgx:width="0.33" style="fill:rgb(0,0,0);font-family:URWPalladioL-Roma;font-size:8.97px;stroke:none;">(</text>
   <text y="598.435" x="84.506" svgx:width="0.5" style="fill:rgb(0,0,0);font-family:URWPalladioL-Ital;font-size:8.97px;stroke:none;">x</text>
   <text y="598.435" x="88.99,91.95009999999999,127.285,131.993,137.4,140.941,143.927,148.41,152.391,156.6966,158.928,164.317,167.697,172.593,178.017,180.627,184.9326,187.163,189.772,194.97459999999998,197.232,202.128,207.346,211.6516,213.883,216.869,221.164,225.459,230.9307,233.179,236.72,241.204,244.127" svgx:width="0.33,0.55,0.52,0.6,0.4,0.33,0.5,0.44,0.48,0.55,0.6,0.4,0.55,0.61,0.29,0.48,0.55,0.29,0.58,0.55,0.55,0.58,0.48,0.55,0.33,0.48,0.48,0.61,0.55,0.4,0.5,0.33,0.48" style="fill:rgb(0,0,0);font-family:URWPalladioL-Roma;font-size:8.97px;stroke:none;">) Surface proﬁle in one feed rate</text>
   <text y="610.865" x="76.535" svgx:width="0.78" style="fill:rgb(0,0,0);font-family:URWPalladioL-Ital;font-size:8.97px;stroke:none;">H</text>
   <text y="610.865" x="127.283,134.743,139.226,142.607,148.085,153.303,157.598,161.4,165.16740000000001,167.444,172.339,175.2991,177.567,180.49,185.708,190.0136,192.245,199.723,204.618,208.16,213.1832,215.387,223.304,227.787,230.71,235.005,238.547,241.156,245.64" svgx:width="0.83,0.5,0.4,0.61,0.58,0.48,0.42,0.42,0.55,0.55,0.33,0.55,0.33,0.58,0.48,0.55,0.83,0.55,0.4,0.56,0.55,0.88,0.5,0.33,0.48,0.4,0.29,0.5,0.29" style="fill:rgb(0,0,0);font-family:URWPalladioL-Roma;font-size:8.97px;stroke:none;">Hardness of the work material</text>
   <text y="623.296" x="76.535" svgx:width="0.67" style="fill:rgb(0,0,0);font-family:URWPalladioL-Ital;font-size:8.97px;stroke:none;">R</text>
   <text y="624.641" x="82.516,84.789,88.13" svgx:width="0.33,0.48,0.83" style="fill:rgb(0,0,0);font-family:URWPalladioL-Roma;font-size:6.97px;stroke:none;">tew</text>
   <text y="623.296" x="94.444" svgx:width="0.33" style="fill:rgb(0,0,0);font-family:URWPalladioL-Roma;font-size:8.97px;stroke:none;">(</text>
   <text y="623.296" x="97.43" svgx:width="0.5" style="fill:rgb(0,0,0);font-family:URWPalladioL-Ital;font-size:8.97px;stroke:none;">x</text>
   <text y="623.296" x="101.913,104.8731,127.279,131.986,137.393,140.935,143.921,148.404,152.385,156.6906,158.921,164.31,167.691,172.586,178.011,180.62,184.9256,187.157,189.766,194.96859999999998,197.226,202.122,207.34,211.6456,213.876,216.862,221.157,225.452,230.9237,233.172,236.714,241.197,244.12,248.4256,250.657,258.135,260.744,263.667,268.8696,271.127,275.108,280.004,285.222,289.024,291.633,297.112,301.406,304.948,309.431,312.354,314.964,319.859,325.0616,327.319,332.215,335.1751,337.442,340.365,345.261,350.157,352.75829999999996,355.008,359.303,364.781,369.766,374.07160000000005,376.303,383.781,388.264,393.33,395.939,401.158,405.453,409.254" svgx:width="0.33,0.55,0.52,0.6,0.4,0.33,0.5,0.44,0.48,0.55,0.6,0.4,0.55,0.61,0.29,0.48,0.55,0.29,0.58,0.55,0.55,0.58,0.48,0.55,0.33,0.48,0.48,0.61,0.55,0.4,0.5,0.33,0.48,0.55,0.83,0.29,0.33,0.58,0.55,0.44,0.55,0.58,0.42,0.29,0.61,0.48,0.4,0.5,0.33,0.29,0.55,0.58,0.55,0.55,0.33,0.55,0.33,0.55,0.55,0.29,0.55,0.48,0.61,0.56,0.48,0.55,0.83,0.5,0.56,0.29,0.58,0.48,0.42,0.42" style="fill:rgb(0,0,0);font-family:URWPalladioL-Roma;font-size:8.97px;stroke:none;">) Surface proﬁle in one feed rate with consideration of tool edge waviness</text>
   <text y="635.726" x="76.535" svgx:width="0.67" style="fill:rgb(0,0,0);font-family:URWPalladioL-Ital;font-size:8.97px;stroke:none;">R</text>
   <text y="637.518" x="82.516,84.789,88.13,93.946,96.268,102.084" svgx:width="0.33,0.48,0.83,0.33,0.83,0.29" style="fill:rgb(0,0,0);font-family:URWPalladioL-Roma;font-size:6.97px;stroke:none;">tew-wi</text>
   <text y="635.726" x="104.612" svgx:width="0.33" style="fill:rgb(0,0,0);font-family:URWPalladioL-Roma;font-size:8.97px;stroke:none;">(</text>
   <text y="635.726" x="107.597" svgx:width="0.5" style="fill:rgb(0,0,0);font-family:URWPalladioL-Ital;font-size:8.97px;stroke:none;">x</text>
   <text y="635.726" x="112.081,115.0411,127.279,134.255,138.236,141.159,143.768,148.834,153.1396,155.371,158.294,163.189,168.085,170.68630000000002,172.936,177.231,182.709,187.695,192.0006,194.231,199.62,203.0,207.896,213.321,215.93,220.2356,222.466,225.076,230.27859999999998,232.536,237.431,242.65,246.9556,249.186,252.172,256.467,260.762,266.2337,268.482,272.024,276.507,279.43,283.73560000000003,285.966,288.952,296.43,299.039,301.962,307.181,312.077,317.483,320.4431,322.648,326.629,331.525,336.743,340.545,343.154,348.633,352.927,356.469,360.952,363.875,366.485,371.38,376.5826,378.84,383.736,386.6961,388.963,391.886,397.105,401.41060000000004,403.641,406.564,411.46,416.356,418.9573,421.207,425.501,430.98,435.965,440.2706,442.502,449.98,454.463,459.529,462.138,467.357,471.651,475.453,479.255" svgx:width="0.33,0.55,0.78,0.44,0.33,0.29,0.56,0.48,0.55,0.33,0.55,0.55,0.29,0.55,0.48,0.61,0.56,0.48,0.55,0.6,0.4,0.55,0.61,0.29,0.48,0.55,0.29,0.58,0.55,0.55,0.58,0.48,0.55,0.33,0.48,0.48,0.61,0.55,0.4,0.5,0.33,0.48,0.55,0.33,0.83,0.29,0.33,0.58,0.55,0.6,0.33,0.55,0.44,0.55,0.58,0.42,0.29,0.61,0.48,0.4,0.5,0.33,0.29,0.55,0.58,0.55,0.55,0.33,0.55,0.33,0.58,0.48,0.55,0.33,0.55,0.55,0.29,0.55,0.48,0.61,0.56,0.48,0.55,0.83,0.5,0.56,0.29,0.58,0.48,0.42,0.42,0.33" style="fill:rgb(0,0,0);font-family:URWPalladioL-Roma;font-size:8.97px;stroke:none;">) Active tool edge proﬁle in one feed rate (without consideration of the tool edge waviness)</text>
   <text y="648.156" x="76.535,81.52" svgx:width="0.56,0.61" style="fill:rgb(0,0,0);font-family:URWPalladioL-Ital;font-size:8.97px;stroke:none;">SP</text>
   <text y="648.156" x="127.283,133.434,138.5,142.795,146.337,150.82,155.805,160.1106,162.342,166.143,173.621,177.916,180.526,183.135,185.744,190.962,195.9852,198.189,201.731,206.214,209.137,211.747,216.68050000000002,218.884,221.493,226.69559999999998,228.953,231.876,237.095,241.4006,243.631,247.173,251.656,257.134,259.744,264.227,266.82829999999996,269.078,274.556,277.165,280.546,284.841,288.822,291.745,294.354,299.25" svgx:width="0.78,0.56,0.48,0.4,0.5,0.56,0.48,0.55,0.42,0.83,0.48,0.29,0.29,0.29,0.58,0.56,0.55,0.4,0.5,0.33,0.29,0.55,0.55,0.29,0.58,0.55,0.33,0.58,0.48,0.55,0.4,0.5,0.61,0.29,0.5,0.29,0.55,0.61,0.29,0.4,0.48,0.44,0.33,0.29,0.55,0.58" style="fill:rgb(0,0,0);font-family:URWPalladioL-Roma;font-size:8.97px;stroke:none;">Average swelling ratio in the radial direction</text>
   <text y="660.587" x="76.535,81.52" svgx:width="0.56,0.67" style="fill:rgb(0,0,0);font-family:URWPalladioL-Ital;font-size:8.97px;stroke:none;">SR</text>
   <text y="662.398" x="87.501" svgx:width="0.28" style="fill:rgb(0,0,0);font-family:URWPalladioL-Ital;font-size:6.97px;stroke:none;">i</text>
   <text y="660.587" x="127.283,132.761,137.657,141.638,146.121,148.72230000000002,150.972,154.774,162.252,166.547,169.156,171.765,174.375,179.593,184.6162,186.82,190.362,194.845,197.768,200.377" svgx:width="0.61,0.55,0.44,0.5,0.29,0.55,0.42,0.83,0.48,0.29,0.29,0.29,0.58,0.56,0.55,0.4,0.5,0.33,0.29,0.55" style="fill:rgb(0,0,0);font-family:URWPalladioL-Roma;font-size:8.97px;stroke:none;">Local swelling ratio</text>
   <text y="660.587" x="207.513,212.498" svgx:width="0.56,0.61" style="fill:rgb(0,0,0);font-family:URWPalladioL-Ital;font-size:8.97px;stroke:none;">SP</text>
   <text y="662.398" x="217.977" svgx:width="0.28" style="fill:rgb(0,0,0);font-family:URWPalladioL-Ital;font-size:6.97px;stroke:none;">i</text>
   <text y="660.587" x="222.655,227.138,230.09810000000002,232.303,235.226,240.444" svgx:width="0.5,0.33,0.55,0.33,0.58,0.48" style="fill:rgb(0,0,0);font-family:URWPalladioL-Roma;font-size:8.97px;stroke:none;">at the</text>
   <text y="660.587" x="246.981" svgx:width="0.28" style="fill:rgb(0,0,0);font-family:URWPalladioL-Ital;font-size:8.97px;stroke:none;">i</text>
   <text y="660.587" x="249.473,252.396,257.5986,259.856,263.398,267.881,273.36,275.969,280.452,283.0533,285.303,289.105,293.399,297.381,300.304,302.913,307.808" svgx:width="0.33,0.58,0.55,0.4,0.5,0.61,0.29,0.5,0.29,0.55,0.42,0.48,0.44,0.33,0.29,0.55,0.58" style="fill:rgb(0,0,0);font-family:URWPalladioL-Roma;font-size:8.97px;stroke:none;">th radial section</text>
   <text y="673.017" x="76.535" svgx:width="0.39" style="fill:rgb(0,0,0);font-family:URWPalladioL-Ital;font-size:8.97px;stroke:none;">e</text>
   <text y="673.017" x="127.283,133.558,138.39,141.885,145.222,149.461,153.39,156.3501,158.514,162.443,167.275" svgx:width="0.71,0.55,0.4,0.4,0.48,0.44,0.33,0.55,0.44,0.55,0.48" style="fill:rgb(0,0,0);font-family:URWPalladioL-Roma;font-size:8.97px;stroke:none;">Correct coe</text>
   <text y="673.017" x="171.514" svgx:width="0.92" style="fill:rgb(0,0,0);font-family:Rpxr;font-size:8.97px;stroke:none;">ﬃ</text>
   <text y="673.017" x="179.647,183.576,186.152,190.391,195.541,198.5011,200.665,204.595,209.427,214.577,218.33,220.905,226.312,230.551,234.047,236.622,241.773,246.7962,248.932,251.817,256.968,261.27360000000004,263.455,266.03,271.181,276.562,281.898,286.137,291.288,295.217,299.5226,301.695,306.527,309.4871,311.713,315.465,318.35,321.846,326.271,328.846,334.0486,336.245,341.157,344.652,349.077,354.484,357.06,361.299,366.449,369.4091,371.582,375.335,378.22,381.547,385.786,390.937,395.857,398.742,403.893,408.132,413.283,415.858,421.009,426.0322,428.177" svgx:width="0.44,0.29,0.48,0.58,0.33,0.55,0.44,0.55,0.58,0.42,0.29,0.61,0.48,0.4,0.29,0.58,0.56,0.55,0.33,0.58,0.48,0.55,0.29,0.58,0.61,0.6,0.48,0.58,0.44,0.48,0.55,0.55,0.33,0.55,0.42,0.33,0.4,0.5,0.29,0.58,0.55,0.56,0.4,0.5,0.61,0.29,0.48,0.58,0.33,0.55,0.42,0.33,0.4,0.48,0.58,0.56,0.33,0.58,0.48,0.58,0.29,0.58,0.56,0.55,0.48" style="fill:rgb(0,0,0);font-family:URWPalladioL-Roma;font-size:8.97px;stroke:none;">cient considering the inﬂuence of strain gradient strengthening e</text>
   <text y="673.017" x="432.413" svgx:width="0.61" style="fill:rgb(0,0,0);font-family:Rpxr;font-size:8.97px;stroke:none;">ﬀ</text>
   <text y="673.017" x="437.794,442.033,445.962,448.9221,451.086,455.918,458.8781,461.104,468.485,473.317,476.813,481.83619999999996,483.981,491.796,496.221,499.106,503.345,506.84,509.416,513.841" svgx:width="0.48,0.44,0.33,0.55,0.55,0.33,0.55,0.83,0.55,0.4,0.56,0.55,0.88,0.5,0.33,0.48,0.4,0.29,0.5,0.29" style="fill:rgb(0,0,0);font-family:URWPalladioL-Roma;font-size:8.97px;stroke:none;">ect of work material</text>
   <text y="685.448" x="76.535" svgx:width="0.28" style="fill:rgb(0,0,0);font-family:URWPalladioL-Ital;font-size:8.97px;stroke:none;">f</text>
   <text y="685.448" x="127.283,132.268,136.563,140.858,146.3297,148.578,152.12,156.603,159.526,163.8316,166.063,171.452,175.746,179.334,181.53,184.91,189.205,194.271,199.167,201.776,207.183,210.106,212.715,217.611" svgx:width="0.56,0.48,0.48,0.61,0.55,0.4,0.5,0.33,0.48,0.55,0.6,0.48,0.4,0.55,0.4,0.48,0.56,0.55,0.29,0.6,0.33,0.29,0.55,0.58" style="fill:rgb(0,0,0);font-family:URWPalladioL-Roma;font-size:8.97px;stroke:none;">Feed rate per revolution</text>
   <text y="697.878" x="76.535" svgx:width="0.28" style="fill:rgb(0,0,0);font-family:URWPalladioL-Ital;font-size:8.97px;stroke:none;">f</text>
   <text y="699.223" x="80.238" svgx:width="0.58" style="fill:rgb(0,0,0);font-family:URWPalladioL-Roma;font-size:6.97px;stroke:none;">n</text>
   <text y="697.878" x="127.283,131.99,137.379,139.988,145.207,150.685,153.295,157.6006,159.831,163.211,168.107,171.03,175.513,178.436,181.046,185.941,191.1436,193.401,196.387,199.767,204.062,209.084,214.49,218.785,224.004,227.985,233.00820000000002,235.212,237.821,243.0236,245.281,250.759,253.369,257.852,265.769,270.665,275.883,281.3547,283.603,286.526,291.933,295.475,300.693,303.302,308.521" svgx:width="0.52,0.6,0.29,0.58,0.61,0.29,0.48,0.55,0.4,0.55,0.33,0.5,0.33,0.29,0.55,0.58,0.55,0.33,0.4,0.48,0.56,0.6,0.48,0.58,0.44,0.56,0.55,0.29,0.58,0.55,0.61,0.29,0.5,0.88,0.55,0.58,0.61,0.55,0.33,0.6,0.4,0.58,0.29,0.58,0.56" style="fill:rgb(0,0,0);font-family:URWPalladioL-Roma;font-size:8.97px;stroke:none;">Spindle rotation frequency in diamond turning</text>
   <text y="710.308" x="76.535" svgx:width="0.28" style="fill:rgb(0,0,0);font-family:URWPalladioL-Ital;font-size:8.97px;stroke:none;">f</text>
   <text y="711.653" x="79.028" svgx:width="0.44" style="fill:rgb(0,0,0);font-family:URWPalladioL-Ital;font-size:6.97px;stroke:none;">z</text>
   <text y="710.308" x="127.283,133.264,135.873,140.831,144.373,148.856,151.779,154.388,159.284,164.48659999999998,166.744,169.73,173.11,177.405,182.426,187.833,192.128,197.346,201.328,206.3512,208.554,211.164,216.36659999999998,218.624,224.102,226.711,231.195,239.112,244.008,249.226,254.6977,256.946,259.869,265.276,268.818,274.036,276.645,281.864" svgx:width="0.72,0.29,0.55,0.4,0.5,0.33,0.29,0.55,0.58,0.55,0.33,0.4,0.48,0.56,0.6,0.48,0.58,0.44,0.56,0.55,0.29,0.58,0.55,0.61,0.29,0.5,0.88,0.55,0.58,0.61,0.55,0.33,0.6,0.4,0.58,0.29,0.58,0.56" style="fill:rgb(0,0,0);font-family:URWPalladioL-Roma;font-size:8.97px;stroke:none;">Vibration frequency in diamond turning</text>
   <text y="722.739" x="76.535" svgx:width="0.5" style="fill:rgb(0,0,0);font-family:URWPalladioL-Ital;font-size:8.97px;stroke:none;">h</text>
   <text y="722.739" x="127.283,133.64,138.536,143.754,146.677,151.161,155.142,158.1021,160.306,165.785,170.08,175.468,178.392,183.59459999999999,185.852,188.461,193.6636,195.921,198.844,204.062,208.3676,210.599,214.401,218.382,221.923,226.407,229.33,233.311,238.5136,240.771,243.694,247.989,251.79" svgx:width="0.71,0.55,0.58,0.33,0.5,0.44,0.33,0.55,0.61,0.48,0.6,0.33,0.58,0.55,0.29,0.58,0.55,0.33,0.58,0.48,0.55,0.42,0.44,0.4,0.5,0.33,0.44,0.58,0.55,0.33,0.48,0.42,0.33" style="fill:rgb(0,0,0);font-family:URWPalladioL-Roma;font-size:8.97px;stroke:none;">Contact depth in the scratch test</text>
   <text y="735.169" x="76.535" svgx:width="0.5" style="fill:rgb(0,0,0);font-family:URWPalladioL-Ital;font-size:8.97px;stroke:none;">h</text>
   <text y="736.514" x="81.019" svgx:width="0.5" style="fill:rgb(0,0,0);font-family:URWPalladioL-Roma;font-size:6.97px;stroke:none;">a</text>
   <text y="735.169" x="127.283,134.743,139.038,141.647,146.632,151.851,154.8111,157.016,160.997,165.892,173.81,179.198,184.094,189.313,193.607,198.826,201.7861,203.991,206.6,211.818,217.297,222.703,226.685,230.979,236.4507,238.699,243.658,248.6812,250.885,253.808,259.026,263.33160000000004,265.563,273.48,277.963,280.886,285.181,288.723,291.332,295.815,298.4163,300.666,304.468,307.077,312.556,316.8616,319.092,324.544,329.439" svgx:width="0.83,0.48,0.29,0.56,0.58,0.33,0.55,0.44,0.55,0.88,0.6,0.55,0.58,0.48,0.58,0.33,0.55,0.29,0.58,0.61,0.6,0.44,0.48,0.61,0.55,0.55,0.56,0.55,0.33,0.58,0.48,0.55,0.88,0.5,0.33,0.48,0.4,0.29,0.5,0.29,0.55,0.42,0.29,0.61,0.48,0.55,0.61,0.55,0.83" style="fill:rgb(0,0,0);font-family:URWPalladioL-Roma;font-size:8.97px;stroke:none;">Height component induced by the material side ﬂow</text>
   <text y="747.6" x="76.535" svgx:width="0.5" style="fill:rgb(0,0,0);font-family:URWPalladioL-Ital;font-size:8.97px;stroke:none;">h</text>
   <text y="749.391" x="81.019,86.417,92.575,94.604" svgx:width="0.77,0.88,0.29,0.58" style="fill:rgb(0,0,0);font-family:URWPalladioL-Roma;font-size:6.97px;stroke:none;">Dmin</text>
   <text y="747.6" x="127.283,135.765,138.374,143.593,146.202,154.119,159.526,169.685,175.092,180.31,185.789,190.084,193.069,197.965,201.507,209.424,213.719,219.1907,221.439,225.42,230.639,233.248,238.63,240.878,243.801,249.02,251.629,255.61,260.595,265.814,270.109,273.91" svgx:width="0.95,0.29,0.58,0.29,0.88,0.6,0.88,0.6,0.58,0.61,0.48,0.33,0.55,0.4,0.88,0.48,0.61,0.55,0.44,0.58,0.29,0.6,0.55,0.33,0.58,0.29,0.44,0.56,0.58,0.48,0.42,0.42" style="fill:rgb(0,0,0);font-family:URWPalladioL-Roma;font-size:8.97px;stroke:none;">Minimumundeformed chip thickness</text>
   <text y="760.03" x="76.535" svgx:width="0.44" style="fill:rgb(0,0,0);font-family:URWPalladioL-Ital;font-size:8.97px;stroke:none;">k</text>
   <text y="760.03" x="127.283,133.64,138.536,142.078,145.458,149.753,153.555,158.943,163.839,169.057,174.536,177.145,182.364,187.3872,189.591,192.2,194.809,200.027,204.322,208.806,212.394,214.589,218.57,223.466" svgx:width="0.71,0.55,0.4,0.4,0.48,0.42,0.6,0.55,0.58,0.61,0.29,0.58,0.56,0.55,0.29,0.29,0.58,0.48,0.5,0.4,0.55,0.44,0.55,0.48" style="fill:rgb(0,0,0);font-family:URWPalladioL-Roma;font-size:8.97px;stroke:none;">Corresponding linear coe</text>
   <text y="760.03" x="227.759" svgx:width="0.92" style="fill:rgb(0,0,0);font-family:Rpxr;font-size:8.97px;stroke:none;">ﬃ</text>
   <text y="760.03" x="235.999,239.98,242.589,246.884,252.103,255.06310000000002,257.267,259.877,265.0796,267.337,270.717,275.012,277.621,282.104,285.027,287.636,292.532,297.7346,299.992,302.915,307.8485,310.052,312.975,318.194,322.49960000000004,324.73,328.712,333.607,338.826,341.749,346.232,350.213,353.17310000000003,355.378,360.336,364.631,369.849,374.333,379.399,382.008,386.903" svgx:width="0.44,0.29,0.48,0.58,0.33,0.55,0.29,0.58,0.55,0.4,0.48,0.29,0.5,0.33,0.29,0.55,0.58,0.55,0.33,0.55,0.55,0.33,0.58,0.48,0.55,0.44,0.55,0.58,0.33,0.5,0.44,0.33,0.55,0.55,0.48,0.58,0.5,0.56,0.29,0.55,0.4" style="fill:rgb(0,0,0);font-family:URWPalladioL-Roma;font-size:8.97px;stroke:none;">cient in relation to the contact behavior</text>
  </g>
 </g>
</svg>
