<?xml version="1.0" encoding="UTF-8"?>
<svg height="766.34" width="530.3485000000001" xmlns="http://www.w3.org/2000/svg">
 <g id="page" xmlns:svgx="http://www.xml-cml.org/schema/svgx">
  <g begin="text">
   <text y="62.979" x="76.535,84.059,86.274,89.518,92.475,96.014,102.215,105.753,108.997,112.982,115.198,119.629,122.73" svgx:width="0.94,0.28,0.41,0.39,0.44,0.78,0.44,0.41,0.5,0.28,0.56,0.39,0.39" style="fill:rgb(0,0,0);font-family:URWPalladioL-Ital;font-size:7.97px;stroke:none;">Micromachines</text>
   <text y="62.979" x="127.822,131.807,135.792,139.777" svgx:width="0.5,0.5,0.5,0.5" style="fill:rgb(0,0,0);font-family:URWPalladioL-Bold;font-size:7.97px;stroke:none;">2019</text>
   <text y="62.979" x="143.763" svgx:width="0.25" style="fill:rgb(0,0,0);font-family:URWPalladioL-Roma;font-size:7.97px;stroke:none;">,</text>
   <text y="62.979" x="147.748,151.733" svgx:width="0.5,0.5" style="fill:rgb(0,0,0);font-family:URWPalladioL-Ital;font-size:7.97px;stroke:none;">10</text>
   <text y="62.979" x="155.718,157.7105,159.703,163.688,167.673,171.65800000000002,491.809,495.794,499.779,501.772,506.123,508.7531,510.77,514.755" svgx:width="0.25,0.55,0.5,0.5,0.5,0.55,0.5,0.5,0.55,0.55,0.33,0.55,0.5,0.5" style="fill:rgb(0,0,0);font-family:URWPalladioL-Roma;font-size:7.97px;stroke:none;">, 288 18 of 22</text>
   <text y="97.848" x="76.535,81.018,85.501,87.74350000000001,98.05,103.43,105.992,108.23450000000001,110.43,115.81,118.011,120.2535,122.449,128.691,133.49,136.052,138.615,141.177,146.301,150.035,152.2775,154.472,159.095,161.296,163.5385,165.734,172.584,175.147,177.709,181.926,187.051,189.2935,191.48,196.358,198.6005,200.796,207.716,213.008,215.879,218.441,222.35,226.753,229.3543,231.543" svgx:width="0.5,0.5,0.25,0.55,0.61,0.29,0.25,0.55,0.61,0.25,0.25,0.55,0.71,0.55,0.29,0.29,0.29,0.58,0.42,0.25,0.55,0.52,0.25,0.25,0.55,0.78,0.29,0.29,0.48,0.58,0.25,0.55,0.67,0.25,0.55,0.79,0.6,0.33,0.29,0.44,0.5,0.29,0.55,0.48" style="fill:rgb(0,0,0);font-family:URWPalladioL-Roma;font-size:8.97px;stroke:none;">16. Li, L.; Collins, S.; Allen, Y. Optical e</text>
   <text y="97.848" x="235.764" svgx:width="0.61" style="fill:rgb(0,0,0);font-family:Rpxr;font-size:8.97px;stroke:none;">ﬀ</text>
   <text y="97.848" x="241.118,245.336,249.245,252.115,255.88240000000002,258.085,262.884,265.8441,268.052,271.786,277.095,280.573,283.505,287.908,291.817,296.12260000000003,298.271,303.598,308.723,311.285,315.018,320.2206,322.371,327.24,332.2632,334.372,339.681,342.243,345.114,348.592,352.994,358.286,361.597,365.814,369.724,372.286,376.019,378.582,383.389,388.5916,390.75,394.483,397.046,402.17,407.066,409.628,413.9336,416.073,421.365,426.173,428.735,433.859,436.8191,438.966,444.346,446.908,451.311,459.086,463.893,469.018,474.48969999999997,476.625,484.4,488.803,492.712,497.836,500.399,505.523,508.086,513.21,518.106" svgx:width="0.48,0.44,0.33,0.42,0.55,0.55,0.33,0.55,0.42,0.6,0.4,0.33,0.5,0.44,0.48,0.55,0.61,0.58,0.29,0.42,0.58,0.55,0.55,0.56,0.55,0.6,0.29,0.33,0.4,0.5,0.6,0.4,0.48,0.44,0.29,0.42,0.29,0.55,0.58,0.55,0.42,0.29,0.58,0.56,0.29,0.48,0.55,0.6,0.55,0.29,0.58,0.33,0.55,0.61,0.29,0.5,0.88,0.55,0.58,0.61,0.55,0.88,0.5,0.44,0.58,0.29,0.58,0.29,0.58,0.56,0.25" style="fill:rgb(0,0,0);font-family:URWPalladioL-Roma;font-size:8.97px;stroke:none;">ects of surface ﬁnish by ultraprecision single point diamond machining.</text>
   <text y="110.76" x="97.504,101.987,105.475,109.456,114.442,117.929,120.17150000000001,123.309,129.783,134.768,143.233,148.7047,150.953,153.939,156.1815,158.422,166.886,170.867,175.852,180.838,183.33,185.57250000000002,188.71,193.696,197.345,199.838,202.0805,205.217,210.696,215.681,220.164" svgx:width="0.61,0.39,0.44,0.56,0.39,0.25,0.55,0.72,0.56,0.94,0.61,0.55,0.33,0.25,0.55,0.94,0.44,0.56,0.56,0.28,0.25,0.55,0.56,0.41,0.28,0.25,0.55,0.61,0.56,0.5,0.25" style="fill:rgb(0,0,0);font-family:URWPalladioL-Ital;font-size:8.97px;stroke:none;">Trans. ASME J. Manuf. Sci. Eng.</text>
   <text y="110.76" x="225.542,230.025,234.508,238.992" svgx:width="0.5,0.5,0.5,0.5" style="fill:rgb(0,0,0);font-family:URWPalladioL-Bold;font-size:8.97px;stroke:none;">2010</text>
   <text y="110.76" x="243.475" svgx:width="0.25" style="fill:rgb(0,0,0);font-family:URWPalladioL-Roma;font-size:8.97px;stroke:none;">,</text>
   <text y="110.76" x="247.958,252.441,256.924" svgx:width="0.5,0.5,0.5" style="fill:rgb(0,0,0);font-family:URWPalladioL-Ital;font-size:8.97px;stroke:none;">132</text>
   <text y="110.76" x="261.408,263.6505,265.891,270.374,274.858,279.341,283.824,288.307,292.79,297.274,301.757,306.24,310.723,315.207,317.4495,320.586" svgx:width="0.25,0.55,0.5,0.5,0.5,0.5,0.5,0.5,0.5,0.5,0.5,0.5,0.5,0.25,0.55,0.33" style="fill:rgb(0,0,0);font-family:URWPalladioL-Roma;font-size:8.97px;stroke:none;">, 10021–10029. [</text>
   <text y="110.76" x="323.572,329.929,333.31,338.205,342.007,345.809,351.798,356.093" svgx:width="0.71,0.4,0.55,0.42,0.42,0.67,0.48,0.33" style="fill:rgb(8,117,183);font-family:URWPalladioL-Roma;font-size:8.97px;stroke:none;">CrossRef</text>
   <text y="110.76" x="359.079" svgx:width="0.33" style="fill:rgb(0,0,0);font-family:URWPalladioL-Roma;font-size:8.97px;stroke:none;">]</text>
   <text y="123.672" x="76.535,81.018,85.501,87.74350000000001,98.05,105.028,109.601,115.189,119.57,122.231,130.307,134.88,142.507,145.169,149.742,151.9845,155.11,160.698,162.985,167.786,170.073,172.31550000000001,175.871,182.511,187.504,193.019,196.632,201.205,203.44750000000002,206.573,215.225,217.512,226.163,228.45,230.6925,234.239,242.891,247.464,252.549,256.427,261.42,266.935,272.523,274.76550000000003,277.892,282.839,285.126,293.778,296.064,303.18,305.466,307.7085,311.255,316.843,319.505,323.885,331.513,336.086,338.3285,341.454,344.537,346.823,355.475,357.761,360.00350000000003,363.56,368.361,373.355,376.016,378.678,386.753,391.326,396.649,398.8915,402.018,409.627,411.913,419.522,421.7645,424.891,431.0,435.994,441.509,446.594,451.917,457.239,461.62,465.498,469.2654,472.458,477.955,482.527,486.14,490.713,498.789,503.169,506.151,510.532,514.144,518.022" svgx:width="0.5,0.5,0.25,0.55,0.76,0.5,0.61,0.48,0.29,0.88,0.5,0.83,0.29,0.5,0.25,0.55,0.61,0.25,0.52,0.25,0.25,0.55,0.73,0.55,0.6,0.4,0.5,0.25,0.55,0.95,0.25,0.95,0.25,0.25,0.55,0.95,0.5,0.56,0.42,0.55,0.6,0.61,0.25,0.55,0.61,0.25,0.95,0.25,0.78,0.25,0.25,0.55,0.61,0.29,0.48,0.83,0.5,0.25,0.55,0.34,0.25,0.95,0.25,0.25,0.55,0.52,0.55,0.29,0.29,0.88,0.5,0.58,0.25,0.55,0.83,0.25,0.83,0.25,0.55,0.67,0.55,0.6,0.56,0.58,0.58,0.48,0.42,0.42,0.55,0.6,0.5,0.4,0.5,0.88,0.48,0.33,0.48,0.4,0.42,0.25" style="fill:rgb(0,0,0);font-family:URWPalladioL-Roma;font-size:8.97px;stroke:none;">17. Gadelmawla, E.S.; Koura, M.M.; Maksoud, T.M.A.; Elewa, I.M.; Soliman, H.H. Roughness parameters.</text>
   <text y="136.583" x="98.05,101.036,103.27850000000001,105.519,113.983,117.964,120.95,124.438,127.263,129.5055,132.642,138.121,141.447,145.428,149.078,152.566,156.054,159.542,161.7845,164.921,169.405,172.893,176.542,181.025,186.01,189.991,192.484" svgx:width="0.33,0.25,0.55,0.94,0.44,0.33,0.39,0.39,0.25,0.55,0.61,0.39,0.44,0.41,0.39,0.39,0.39,0.25,0.55,0.61,0.39,0.41,0.5,0.56,0.44,0.28,0.25" style="fill:rgb(0,0,0);font-family:URWPalladioL-Ital;font-size:8.97px;stroke:none;">J. Mater. Process. Technol.</text>
   <text y="136.583" x="197.863,202.346,206.829,211.313" svgx:width="0.5,0.5,0.5,0.5" style="fill:rgb(0,0,0);font-family:URWPalladioL-Bold;font-size:8.97px;stroke:none;">2002</text>
   <text y="136.583" x="215.796" svgx:width="0.25" style="fill:rgb(0,0,0);font-family:URWPalladioL-Roma;font-size:8.97px;stroke:none;">,</text>
   <text y="136.583" x="220.279,224.762,229.245" svgx:width="0.5,0.5,0.5" style="fill:rgb(0,0,0);font-family:URWPalladioL-Ital;font-size:8.97px;stroke:none;">123</text>
   <text y="136.583" x="233.728,235.97050000000002,238.211,242.694,247.178,251.661,256.144,260.627,265.11,269.594,271.8365,274.973" svgx:width="0.25,0.55,0.5,0.5,0.5,0.5,0.5,0.5,0.5,0.25,0.55,0.33" style="fill:rgb(0,0,0);font-family:URWPalladioL-Roma;font-size:8.97px;stroke:none;">, 133–145. [</text>
   <text y="136.583" x="277.959,284.316,287.697,292.592,296.394,300.196,306.186,310.48" svgx:width="0.71,0.4,0.55,0.42,0.42,0.67,0.48,0.33" style="fill:rgb(8,117,183);font-family:URWPalladioL-Roma;font-size:8.97px;stroke:none;">CrossRef</text>
   <text y="136.583" x="313.466" svgx:width="0.33" style="fill:rgb(0,0,0);font-family:URWPalladioL-Roma;font-size:8.97px;stroke:none;">]</text>
   <text y="149.495" x="76.535,81.018,85.501,87.74350000000001,98.05,105.659,110.04,112.28250000000001,115.189,121.673,123.96,129.548,131.834,134.0765,137.285,145.608,150.181,155.503,160.588,162.8305,165.728,170.53,172.816,175.862,178.148,180.3905,183.608,189.709,194.702,200.025,205.11,207.35250000000002,210.25,218.572,220.859,223.904,226.191,228.4335,231.651,237.751,243.074,247.647,252.97,258.055,260.2975,263.194,267.996,270.282,275.23,277.4725,280.37,283.452,288.775,294.336,299.851,304.231,309.554,313.615,317.92060000000004,320.858,325.852,328.8121,331.751,334.732,339.726,344.719,347.3203,350.243,354.624,360.212,365.297,369.60260000000005,372.541,380.168,384.741,389.908,392.57,397.893,402.273,406.151,409.9184,412.883,417.876,423.0786,426.061,429.043,434.366,438.6716,441.6,447.188" svgx:width="0.5,0.5,0.25,0.55,0.83,0.48,0.25,0.55,0.71,0.25,0.61,0.25,0.25,0.55,1.0,0.5,0.58,0.56,0.25,0.55,0.52,0.25,0.33,0.25,0.25,0.55,0.67,0.55,0.58,0.56,0.25,0.55,1.0,0.25,0.33,0.25,0.25,0.55,0.67,0.58,0.5,0.58,0.56,0.25,0.55,0.52,0.25,0.61,0.25,0.55,0.34,0.58,0.61,0.6,0.48,0.58,0.44,0.48,0.55,0.55,0.33,0.55,0.33,0.55,0.55,0.29,0.55,0.48,0.61,0.56,0.48,0.55,0.83,0.5,0.56,0.29,0.58,0.48,0.42,0.42,0.55,0.55,0.58,0.55,0.33,0.58,0.48,0.55,0.61,0.29" style="fill:rgb(0,0,0);font-family:URWPalladioL-Roma;font-size:8.97px;stroke:none;">18. He, C.L.; Wang, S.J.; Zong, W.J.; Zhang, S.T. Inﬂuence of tool edge waviness on the di</text>
   <text y="149.495" x="449.853" svgx:width="0.61" style="fill:rgb(0,0,0);font-family:Rpxr;font-size:8.97px;stroke:none;">ﬀ</text>
   <text y="149.495" x="455.414,459.027,463.599,467.66,470.642,473.303,478.297,483.49960000000004,486.482" svgx:width="0.4,0.5,0.44,0.33,0.29,0.55,0.58,0.55,0.48" style="fill:rgb(0,0,0);font-family:URWPalladioL-Roma;font-size:8.97px;stroke:none;">raction e</text>
   <text y="149.495" x="490.859" svgx:width="0.61" style="fill:rgb(0,0,0);font-family:Rpxr;font-size:8.97px;stroke:none;">ﬀ</text>
   <text y="149.495" x="496.419,500.8,504.861,507.8211,510.705,515.698" svgx:width="0.48,0.44,0.33,0.55,0.55,0.33" style="fill:rgb(0,0,0);font-family:URWPalladioL-Roma;font-size:8.97px;stroke:none;">ect of</text>
   <text y="162.406" x="98.05,103.528,106.138,110.621,118.538,123.434,128.652,134.131,137.117,140.04,145.446,148.988,154.207,158.501,163.9727,166.204,171.099,176.479,179.402,182.011,185.992,189.794,192.03650000000002,195.165,198.088,203.307,207.601,212.497,215.877,220.172,223.095,225.705,229.686,234.169,236.77030000000002,239.002,242.804,245.413,253.33,258.737,261.346,265.829,268.752,271.362,276.257,281.4596,283.69,288.174,293.392,298.8637,301.094,305.389,310.016,315.404,319.699,323.241,325.85,333.768,338.063,343.281,346.204,350.687,353.2883,355.511,360.577,365.06,367.67,370.279,375.757,380.24,383.163,385.773,390.668,395.887" svgx:width="0.61,0.29,0.5,0.88,0.55,0.58,0.61,0.33,0.33,0.6,0.4,0.58,0.48,0.61,0.55,0.55,0.6,0.33,0.29,0.44,0.42,0.25,0.55,0.33,0.58,0.48,0.55,0.4,0.48,0.33,0.29,0.44,0.5,0.29,0.55,0.42,0.29,0.88,0.6,0.29,0.5,0.33,0.29,0.55,0.58,0.55,0.5,0.58,0.61,0.55,0.48,0.52,0.6,0.48,0.4,0.29,0.88,0.48,0.58,0.33,0.5,0.29,0.55,0.56,0.5,0.29,0.29,0.61,0.5,0.33,0.29,0.55,0.58,0.25" style="fill:rgb(0,0,0);font-family:URWPalladioL-Roma;font-size:8.97px;stroke:none;">diamond-turned optics: theoretical simulation and experimental validation.</text>
   <text y="162.406" x="401.259,407.733,412.216,416.699,418.9415,422.07,429.046,433.529,436.515" svgx:width="0.72,0.5,0.5,0.25,0.55,0.78,0.5,0.33,0.25" style="fill:rgb(0,0,0);font-family:URWPalladioL-Ital;font-size:8.97px;stroke:none;">App. Opt.</text>
   <text y="162.406" x="441.889,446.372,450.855,455.339" svgx:width="0.5,0.5,0.5,0.5" style="fill:rgb(0,0,0);font-family:URWPalladioL-Bold;font-size:8.97px;stroke:none;">2019</text>
   <text y="162.406" x="459.822" svgx:width="0.25" style="fill:rgb(0,0,0);font-family:URWPalladioL-Roma;font-size:8.97px;stroke:none;">,</text>
   <text y="162.406" x="464.287,468.77" svgx:width="0.5,0.5" style="fill:rgb(0,0,0);font-family:URWPalladioL-Ital;font-size:8.97px;stroke:none;">58</text>
   <text y="162.406" x="473.254,475.4965,477.719,482.203,486.686,491.169,495.652,500.135,504.619,509.102,513.585,518.068" svgx:width="0.25,0.55,0.5,0.5,0.5,0.5,0.5,0.5,0.5,0.5,0.5,0.25" style="fill:rgb(0,0,0);font-family:URWPalladioL-Roma;font-size:8.97px;stroke:none;">, 1596–1605.</text>
   <text y="175.318" x="98.05" svgx:width="0.33" style="fill:rgb(0,0,0);font-family:URWPalladioL-Roma;font-size:8.97px;stroke:none;">[</text>
   <text y="175.318" x="101.036,107.393,110.773,115.669,119.471,123.273,129.262,133.557" svgx:width="0.71,0.4,0.55,0.42,0.42,0.67,0.48,0.33" style="fill:rgb(8,117,183);font-family:URWPalladioL-Roma;font-size:8.97px;stroke:none;">CrossRef</text>
   <text y="175.318" x="136.543" svgx:width="0.33" style="fill:rgb(0,0,0);font-family:URWPalladioL-Roma;font-size:8.97px;stroke:none;">]</text>
   <text y="188.23" x="76.535,81.018,85.501,87.74350000000001,98.05,104.15,109.144,114.467,119.552,121.79450000000001,124.124,132.447,134.734,137.779,140.065,142.3075,144.666,152.275,157.79,162.363,167.686,172.771,175.0135,177.344,182.447,184.733,186.9755,189.334,195.434,200.757,205.329,210.652,215.737,217.9795,220.31,225.423,227.709,229.9515,232.3,237.102,242.617,247.939,250.1815,252.521,257.46,259.7025,262.033,268.517,273.511,278.834,282.711,287.092,290.705,295.872,300.445,303.427,306.088,311.082,316.2846,318.7,321.361,325.934,333.37910000000005,335.848,340.842,343.8021,346.174,350.051,355.566,359.179,362.224,366.797,370.858,375.16360000000003,377.525,380.982,385.976,391.491,396.576,401.899,407.221,411.602,415.48,419.2474,421.644,424.306,429.5086,431.915,435.793,438.454,443.777,448.862,451.523,455.82860000000005,458.19,463.687,468.681,471.342,476.665,479.62510000000003,481.942,487.53,490.191,494.764,502.84,507.833,513.156" svgx:width="0.5,0.5,0.25,0.55,0.67,0.55,0.58,0.56,0.25,0.55,1.0,0.25,0.33,0.25,0.25,0.55,0.83,0.6,0.5,0.58,0.56,0.25,0.55,0.67,0.25,0.25,0.55,0.67,0.58,0.5,0.58,0.56,0.25,0.55,0.67,0.25,0.25,0.55,0.52,0.6,0.58,0.25,0.55,0.61,0.25,0.55,0.71,0.55,0.58,0.42,0.48,0.4,0.56,0.5,0.33,0.29,0.55,0.58,0.55,0.29,0.5,0.83,0.55,0.55,0.33,0.55,0.42,0.6,0.4,0.33,0.5,0.44,0.48,0.55,0.4,0.55,0.6,0.56,0.58,0.58,0.48,0.42,0.42,0.55,0.29,0.58,0.55,0.42,0.29,0.58,0.56,0.29,0.48,0.55,0.6,0.55,0.29,0.58,0.33,0.55,0.61,0.29,0.5,0.88,0.55,0.58,0.61" style="fill:rgb(0,0,0);font-family:URWPalladioL-Roma;font-size:8.97px;stroke:none;">19. Zong, W.J.; Huang, Y.; Zhang, Y.; Sun, T. Conservation law of surface roughness in single point diamond</text>
   <text y="201.141" x="98.05,100.973,106.38,109.922,115.14,117.749,122.968,127.953" svgx:width="0.33,0.6,0.4,0.58,0.29,0.58,0.56,0.25" style="fill:rgb(0,0,0);font-family:URWPalladioL-Roma;font-size:8.97px;stroke:none;">turning.</text>
   <text y="201.141" x="133.333,136.319,141.304,144.29,146.5325,149.67,152.656,154.8985,157.139,165.603,169.584,173.234,177.717,179.95950000000002,183.097,187.58,191.561,195.542,198.035,201.5333,203.764,212.228,216.209,221.195,226.18,228.673" svgx:width="0.33,0.56,0.33,0.25,0.55,0.33,0.25,0.55,0.94,0.44,0.41,0.5,0.25,0.55,0.61,0.44,0.44,0.28,0.39,0.55,0.94,0.44,0.56,0.56,0.28,0.25" style="fill:rgb(0,0,0);font-family:URWPalladioL-Ital;font-size:8.97px;stroke:none;">Int. J. Mach. Tools Manuf.</text>
   <text y="201.141" x="234.051,238.534,243.017,247.501" svgx:width="0.5,0.5,0.5,0.5" style="fill:rgb(0,0,0);font-family:URWPalladioL-Bold;font-size:8.97px;stroke:none;">2014</text>
   <text y="201.141" x="251.984" svgx:width="0.25" style="fill:rgb(0,0,0);font-family:URWPalladioL-Roma;font-size:8.97px;stroke:none;">,</text>
   <text y="201.141" x="256.467,260.95" svgx:width="0.5,0.5" style="fill:rgb(0,0,0);font-family:URWPalladioL-Ital;font-size:8.97px;stroke:none;">84</text>
   <text y="201.141" x="265.433,267.6755,269.916,274.399,278.883,283.366,287.849,292.332,294.5745,297.712" svgx:width="0.25,0.55,0.5,0.5,0.5,0.5,0.5,0.25,0.55,0.33" style="fill:rgb(0,0,0);font-family:URWPalladioL-Roma;font-size:8.97px;stroke:none;">, 58–63. [</text>
   <text y="201.141" x="300.698,307.055,310.435,315.331,319.133,322.935,328.924,333.219" svgx:width="0.71,0.4,0.55,0.42,0.42,0.67,0.48,0.33" style="fill:rgb(8,117,183);font-family:URWPalladioL-Roma;font-size:8.97px;stroke:none;">CrossRef</text>
   <text y="201.141" x="336.205" svgx:width="0.33" style="fill:rgb(0,0,0);font-family:URWPalladioL-Roma;font-size:8.97px;stroke:none;">]</text>
   <text y="214.053" x="76.535,81.018,85.501,87.74350000000001,98.05,103.638,108.019,112.4,114.64250000000001,118.966,127.289,129.575,135.163,137.45,139.6925,145.041,151.525,156.848,161.229,166.744,172.066,177.151,179.39350000000002,183.718,190.202,192.489,196.751,199.037,201.2795,206.619,211.402,216.396,218.6385,222.962,227.764,230.00650000000002,234.331,242.982,247.555,250.537,254.918,258.53,261.191,265.764,268.426,272.1934,276.593,279.254,284.577,290.165,295.68,299.732,304.112,309.5837,313.99,319.157,321.818,326.876,330.489,335.061,338.043,340.704,345.698,350.9006,355.301,357.962,363.1646,367.565,373.08,375.742,378.723,382.336,386.909,389.954,395.451,398.899,403.279,407.34,410.002,413.879,416.541,421.534,426.7366,431.137,439.213,443.786,447.847,453.169,455.831,461.154,463.815,469.138,474.223" svgx:width="0.5,0.5,0.25,0.55,0.61,0.48,0.48,0.25,0.55,1.0,0.25,0.61,0.25,0.25,0.55,0.71,0.58,0.48,0.6,0.58,0.56,0.25,0.55,0.71,0.25,0.56,0.25,0.25,0.55,0.61,0.55,0.25,0.55,0.52,0.25,0.55,0.95,0.5,0.33,0.48,0.4,0.29,0.5,0.29,0.42,0.55,0.29,0.58,0.61,0.6,0.44,0.48,0.61,0.55,0.56,0.29,0.55,0.4,0.5,0.33,0.29,0.55,0.58,0.55,0.29,0.58,0.55,0.6,0.29,0.33,0.4,0.5,0.33,0.6,0.4,0.48,0.44,0.29,0.42,0.29,0.55,0.58,0.55,0.88,0.5,0.44,0.58,0.29,0.58,0.29,0.58,0.56,0.25" style="fill:rgb(0,0,0);font-family:URWPalladioL-Roma;font-size:8.97px;stroke:none;">20. Lee, W.B.; Cheung, C.F.; To, S. Materials induced vibration in ultra-precision machining.</text>
   <text y="214.053" x="485.77,488.816,491.0585,495.382,504.016,508.076,511.122,514.68,517.579" svgx:width="0.33,0.25,0.55,0.94,0.44,0.33,0.39,0.39,0.25" style="fill:rgb(0,0,0);font-family:URWPalladioL-Ital;font-size:8.97px;stroke:none;">J. Mater.</text>
   <text y="226.964" x="97.773,103.251,106.578,110.559,114.208,117.696,121.184,124.672,126.9145,129.155,133.639,137.127,140.776,145.259,150.244,154.225,156.718" svgx:width="0.61,0.39,0.44,0.41,0.39,0.39,0.39,0.25,0.55,0.61,0.39,0.41,0.5,0.56,0.44,0.28,0.25" style="fill:rgb(0,0,0);font-family:URWPalladioL-Ital;font-size:8.97px;stroke:none;">Process. Technol.</text>
   <text y="226.964" x="162.096,166.579,171.062,175.546" svgx:width="0.5,0.5,0.5,0.5" style="fill:rgb(0,0,0);font-family:URWPalladioL-Bold;font-size:8.97px;stroke:none;">1999</text>
   <text y="226.964" x="180.029" svgx:width="0.25" style="fill:rgb(0,0,0);font-family:URWPalladioL-Roma;font-size:8.97px;stroke:none;">,</text>
   <text y="226.964" x="184.512,188.995" svgx:width="0.5,0.5" style="fill:rgb(0,0,0);font-family:URWPalladioL-Ital;font-size:8.97px;stroke:none;">89</text>
   <text y="226.964" x="193.479,195.72150000000002,197.962,202.445,206.929,211.412,215.895,220.378,224.861,229.345,231.5875,234.724" svgx:width="0.25,0.55,0.5,0.5,0.5,0.5,0.5,0.5,0.5,0.25,0.55,0.33" style="fill:rgb(0,0,0);font-family:URWPalladioL-Roma;font-size:8.97px;stroke:none;">, 318–325. [</text>
   <text y="226.964" x="237.71,244.067,247.448,252.343,256.145,259.947,265.937,270.231" svgx:width="0.71,0.4,0.55,0.42,0.42,0.67,0.48,0.33" style="fill:rgb(8,117,183);font-family:URWPalladioL-Roma;font-size:8.97px;stroke:none;">CrossRef</text>
   <text y="226.964" x="273.217" svgx:width="0.33" style="fill:rgb(0,0,0);font-family:URWPalladioL-Roma;font-size:8.97px;stroke:none;">]</text>
   <text y="239.876" x="76.535,81.018,85.501,87.74350000000001,98.05,103.468,107.716,111.964,114.2065,116.415,124.458,126.675,132.093,134.31,136.5525,138.771,145.058,150.219,154.467,159.814,164.975,169.906,172.1485,174.357,180.644,182.861,186.967,189.20950000000002,191.428,198.4246,200.561,205.98,210.91,216.071,220.505,228.335,230.916,234.8628,237.097,240.857,246.204,249.707,252.66,257.093,261.031,265.33660000000003,267.513,270.404,275.246,280.575,285.417,290.348,293.85,298.284,303.614,308.775,313.79819999999995,315.94,323.77,328.612,334.03,338.278,340.8793,343.102,346.055,350.897,354.485,356.634,359.525,364.686,368.9916,371.177,376.507,379.841,384.089,389.507,392.088,396.025,398.916,401.496,406.338,411.54060000000004,413.743,418.585,421.5451,423.772,428.933,433.367,438.528,443.37,446.323,450.083,455.43,458.933,461.886,466.32,470.257,474.56260000000003,476.739,481.67,485.918,491.079,495.326,498.829,503.263,506.154,508.734,513.576" svgx:width="0.5,0.5,0.25,0.55,0.61,0.48,0.48,0.25,0.55,1.0,0.25,0.61,0.25,0.25,0.55,0.71,0.58,0.48,0.6,0.58,0.56,0.25,0.55,0.71,0.25,0.56,0.25,0.55,0.78,0.55,0.61,0.56,0.58,0.5,0.88,0.29,0.44,0.55,0.42,0.6,0.4,0.33,0.5,0.44,0.48,0.55,0.33,0.55,0.6,0.55,0.56,0.4,0.5,0.6,0.58,0.56,0.55,0.88,0.55,0.61,0.48,0.29,0.55,0.33,0.55,0.4,0.55,0.33,0.58,0.48,0.55,0.6,0.4,0.48,0.61,0.29,0.44,0.33,0.29,0.55,0.58,0.55,0.55,0.33,0.55,0.58,0.5,0.58,0.55,0.33,0.42,0.6,0.4,0.33,0.5,0.44,0.48,0.55,0.56,0.48,0.58,0.48,0.4,0.5,0.33,0.29,0.55,0.58" style="fill:rgb(0,0,0);font-family:URWPalladioL-Roma;font-size:8.97px;stroke:none;">21. Lee, W.B.; Cheung, C.F. A dynamic surface topography model for the prediction of nano-surface generation</text>
   <text y="252.788" x="98.05,100.659,105.86160000000001,108.119,113.526,116.135,119.058,122.6,127.083,130.069,135.458,138.838,143.133,147.114,149.723,153.525,156.134,161.03,166.2326,168.49,176.407,180.891,184.872,190.09,192.699,197.918,200.527,205.745,210.731" svgx:width="0.29,0.58,0.55,0.6,0.29,0.33,0.4,0.5,0.33,0.6,0.4,0.48,0.44,0.29,0.42,0.29,0.55,0.58,0.55,0.88,0.5,0.44,0.58,0.29,0.58,0.29,0.58,0.56,0.25" style="fill:rgb(0,0,0);font-family:URWPalladioL-Roma;font-size:8.97px;stroke:none;">in ultra-precision machining.</text>
   <text y="252.788" x="216.109,219.095,224.08,227.066,229.3085,232.446,235.432,237.6745,239.915,248.379,251.867,255.516,260.0,262.2425,265.379,270.365,274.014,276.507" svgx:width="0.33,0.56,0.33,0.25,0.55,0.33,0.25,0.55,0.94,0.39,0.41,0.5,0.25,0.55,0.56,0.41,0.28,0.25" style="fill:rgb(0,0,0);font-family:URWPalladioL-Ital;font-size:8.97px;stroke:none;">Int. J. Mech. Sci.</text>
   <text y="252.788" x="281.886,286.369,290.852,295.336" svgx:width="0.5,0.5,0.5,0.5" style="fill:rgb(0,0,0);font-family:URWPalladioL-Bold;font-size:8.97px;stroke:none;">2001</text>
   <text y="252.788" x="299.819" svgx:width="0.25" style="fill:rgb(0,0,0);font-family:URWPalladioL-Roma;font-size:8.97px;stroke:none;">,</text>
   <text y="252.788" x="304.302,308.785" svgx:width="0.5,0.5" style="fill:rgb(0,0,0);font-family:URWPalladioL-Ital;font-size:8.97px;stroke:none;">43</text>
   <text y="252.788" x="313.268,315.5105,317.751,322.234,326.718,331.201,335.684,340.167,344.651,349.134,351.3765,354.514" svgx:width="0.25,0.55,0.5,0.5,0.5,0.5,0.5,0.5,0.5,0.25,0.55,0.33" style="fill:rgb(0,0,0);font-family:URWPalladioL-Roma;font-size:8.97px;stroke:none;">, 961–991. [</text>
   <text y="252.788" x="357.499,363.857,367.237,372.133,375.934,379.736,385.726,390.021" svgx:width="0.71,0.4,0.55,0.42,0.42,0.67,0.48,0.33" style="fill:rgb(8,117,183);font-family:URWPalladioL-Roma;font-size:8.97px;stroke:none;">CrossRef</text>
   <text y="252.788" x="393.006" svgx:width="0.33" style="fill:rgb(0,0,0);font-family:URWPalladioL-Roma;font-size:8.97px;stroke:none;">]</text>
   <text y="265.699" x="76.535,81.018,85.501,87.74350000000001,98.05,103.279,108.735,110.9775,113.222,120.224,122.486,124.72850000000001,126.983,133.886,138.409,143.675,145.91750000000002,148.171,152.921,155.182,157.4245,159.67,167.894,172.833,178.099,183.129,185.3715,187.625,192.665,194.926,197.1685,199.414,206.941,211.881,217.146,222.176,224.4185,226.673,233.576,235.837,238.0795,240.334,246.377,250.901,256.166,264.155,268.678,273.944,276.1865,278.431,286.99,289.251,291.4935,293.748,298.959,303.483,308.422,310.66450000000003,312.91,315.922,318.16450000000003,320.419,327.53,332.967,335.907,338.54,346.529,349.161,353.685,358.018,363.48969999999997,365.781,368.73,373.67,378.61,381.2113,383.468,388.905,393.429,396.378,401.5806,403.878,408.908,413.242,418.507,422.841,426.414,430.938,433.887,436.52,441.46,446.6626,448.951,451.964,456.903,460.49100000000004,462.702,465.715,470.239,474.075,477.0351,479.259,482.208,487.148,492.087,494.68829999999997,496.946,500.782,505.115,508.689,513.8" svgx:width="0.5,0.5,0.25,0.55,0.67,0.6,0.25,0.55,0.77,0.25,0.25,0.55,0.76,0.5,0.58,0.25,0.55,0.52,0.25,0.25,0.55,1.0,0.55,0.58,0.56,0.25,0.55,0.67,0.25,0.25,0.55,0.83,0.55,0.58,0.56,0.25,0.55,0.76,0.25,0.25,0.55,0.67,0.5,0.58,0.88,0.5,0.58,0.25,0.55,0.95,0.25,0.25,0.55,0.67,0.5,0.55,0.25,0.55,0.33,0.25,0.55,0.79,0.6,0.33,0.29,0.88,0.29,0.5,0.48,0.61,0.55,0.33,0.55,0.55,0.29,0.55,0.6,0.5,0.33,0.58,0.55,0.56,0.48,0.58,0.48,0.4,0.5,0.33,0.29,0.55,0.58,0.55,0.33,0.55,0.4,0.55,0.33,0.5,0.42,0.33,0.55,0.33,0.55,0.55,0.29,0.55,0.42,0.48,0.4,0.56,0.55" style="fill:rgb(0,0,0);font-family:URWPalladioL-Roma;font-size:8.97px;stroke:none;">22. Yu, D.; Gan, S.; Wong, Y.; Hong, G.; Rahman, M.; Yao, J. Optimized tool path generation for fast tool servo</text>
   <text y="278.611" x="98.05,103.528,106.138,110.621,118.538,123.434,128.652,134.12369999999999,136.372,139.295,144.702,148.244,153.462,156.072,161.29,166.3132,168.517,173.413,176.37310000000002,178.64,186.557,189.167,193.148,196.528,201.424,204.409,208.211,211.134,214.604,220.011,223.992,226.915,232.322,235.702,239.997,245.4687,247.717,251.519,256.926,260.467,263.453,267.936,271.917,276.212,280.014" svgx:width="0.61,0.29,0.5,0.88,0.55,0.58,0.61,0.55,0.33,0.6,0.4,0.58,0.29,0.58,0.56,0.55,0.55,0.33,0.55,0.88,0.29,0.44,0.4,0.55,0.33,0.42,0.33,0.4,0.6,0.44,0.33,0.6,0.4,0.48,0.61,0.55,0.42,0.6,0.4,0.33,0.5,0.44,0.48,0.42,0.25" style="fill:rgb(0,0,0);font-family:URWPalladioL-Roma;font-size:8.97px;stroke:none;">diamond turning of micro-structured surfaces.</text>
   <text y="278.611" x="285.392,288.378,293.363,296.349,298.5915,301.729,304.715,306.9575,309.198,315.672,320.155,324.145,326.3875,329.525,337.989,341.97,346.955,351.941,354.433,356.6755,359.813,364.296,367.784,371.434,375.917,380.902,384.883,387.376" svgx:width="0.33,0.56,0.33,0.25,0.55,0.33,0.25,0.55,0.72,0.5,0.5,0.25,0.55,0.94,0.44,0.56,0.56,0.28,0.25,0.55,0.61,0.39,0.41,0.5,0.56,0.44,0.28,0.25" style="fill:rgb(0,0,0);font-family:URWPalladioL-Ital;font-size:8.97px;stroke:none;">Int. J. Adv. Manuf. Technol.</text>
   <text y="278.611" x="392.754,397.237,401.72,406.204" svgx:width="0.5,0.5,0.5,0.5" style="fill:rgb(0,0,0);font-family:URWPalladioL-Bold;font-size:8.97px;stroke:none;">2012</text>
   <text y="278.611" x="410.687" svgx:width="0.25" style="fill:rgb(0,0,0);font-family:URWPalladioL-Roma;font-size:8.97px;stroke:none;">,</text>
   <text y="278.611" x="415.17,419.653" svgx:width="0.5,0.5" style="fill:rgb(0,0,0);font-family:URWPalladioL-Ital;font-size:8.97px;stroke:none;">63</text>
   <text y="278.611" x="424.137,426.3795,428.62,433.103,437.587,442.07,446.553,451.036,455.52,460.003,464.486,468.969,471.2115,474.349" svgx:width="0.25,0.55,0.5,0.5,0.5,0.5,0.5,0.5,0.5,0.5,0.5,0.25,0.55,0.33" style="fill:rgb(0,0,0);font-family:URWPalladioL-Roma;font-size:8.97px;stroke:none;">, 1137–1152. [</text>
   <text y="278.611" x="477.335,483.692,487.072,491.968,495.77,499.572,505.561,509.856" svgx:width="0.71,0.4,0.55,0.42,0.42,0.67,0.48,0.33" style="fill:rgb(8,117,183);font-family:URWPalladioL-Roma;font-size:8.97px;stroke:none;">CrossRef</text>
   <text y="278.611" x="512.842" svgx:width="0.33" style="fill:rgb(0,0,0);font-family:URWPalladioL-Roma;font-size:8.97px;stroke:none;">]</text>
   <text y="291.522" x="76.535,81.018,85.501,87.74350000000001,98.05,104.15,109.144,114.467,119.552,121.79450000000001,125.112,133.426,135.712,138.758,141.044,143.28650000000002,147.117,152.705,155.366,157.60850000000002,160.927,167.027,169.314,176.502,178.789,181.0315,184.861,189.663,195.178,200.501,202.7435,206.061,211.0,213.286,215.5285,219.359,225.843,231.166,235.547,240.87,245.955,248.19750000000002,251.515,258.155,260.442,262.6845,266.505,272.093,274.755,276.9975,280.315,287.394,289.681,291.9235,295.753,302.832,307.826,313.148,318.234,320.4765,323.794,328.596,330.8385,334.147,339.753,345.076,349.38160000000005,352.731,357.789,362.362,366.239,368.901,372.8478,376.236,378.897,382.775,386.653,392.168,396.548,400.3154,403.691,406.353,411.5556,414.95,420.538,424.918,428.796,431.458,436.543,441.7456,445.13,449.703,455.026,460.4977,463.888,466.934,471.507,476.564,480.177,482.838,486.899,491.472,494.453,497.115,502.108,507.3106,510.705,515.699" svgx:width="0.5,0.5,0.25,0.55,0.67,0.55,0.58,0.56,0.25,0.55,1.0,0.25,0.33,0.25,0.25,0.55,0.61,0.29,0.25,0.55,0.67,0.25,0.79,0.25,0.25,0.55,0.52,0.6,0.58,0.25,0.55,0.61,0.25,0.25,0.55,0.71,0.58,0.48,0.58,0.56,0.25,0.55,0.73,0.25,0.25,0.55,0.61,0.29,0.25,0.55,0.77,0.25,0.25,0.55,0.77,0.55,0.58,0.56,0.25,0.55,0.52,0.25,0.55,0.61,0.58,0.48,0.55,0.55,0.5,0.42,0.29,0.44,0.55,0.29,0.42,0.42,0.6,0.48,0.42,0.55,0.29,0.58,0.55,0.61,0.48,0.42,0.29,0.56,0.58,0.55,0.5,0.58,0.61,0.55,0.33,0.5,0.55,0.4,0.29,0.44,0.5,0.33,0.29,0.55,0.58,0.55,0.55,0.33" style="fill:rgb(0,0,0);font-family:URWPalladioL-Roma;font-size:8.97px;stroke:none;">23. Zong, W.J.; Li, Z.Q.; Sun, T.; Cheng, K.; Li, D.; Dong, S. The basic issues in design and fabrication of</text>
   <text y="304.434" x="98.05,103.638,106.299,110.872,118.948,123.942,129.264,134.852,137.898,141.959,147.474,150.455,153.437,156.098,161.421,166.4442,168.893,171.874,176.868,181.861,184.523,188.2904,190.788,193.833,198.827,202.415,204.826,210.341,213.003,215.984,219.597,224.17,227.215,232.712,236.16,240.54,244.601,247.263,251.14,253.802,258.795,263.99760000000003,266.514,271.087,276.401,281.8727,284.385,289.708,294.281,299.604,304.597,312.673,317.054,320.035,323.648,326.309,330.2558,332.757,340.832,345.405,349.466,354.789,357.45,362.773,365.435,370.757,375.842" svgx:width="0.61,0.29,0.5,0.88,0.55,0.58,0.61,0.33,0.44,0.6,0.33,0.33,0.29,0.58,0.56,0.55,0.33,0.55,0.55,0.29,0.42,0.55,0.33,0.55,0.4,0.55,0.6,0.29,0.33,0.4,0.5,0.33,0.6,0.4,0.48,0.44,0.29,0.42,0.29,0.55,0.58,0.55,0.5,0.58,0.61,0.55,0.58,0.5,0.58,0.55,0.88,0.48,0.33,0.4,0.29,0.44,0.55,0.88,0.5,0.44,0.58,0.29,0.58,0.29,0.58,0.56,0.25" style="fill:rgb(0,0,0);font-family:URWPalladioL-Roma;font-size:8.97px;stroke:none;">diamond-cutting tools for ultra-precision and nanometric machining.</text>
   <text y="304.434" x="381.701,384.747,389.832,392.877,395.1195,398.74,401.785,404.02750000000003,406.458,415.092,419.153,422.875,427.448,429.6905,433.31,437.911,441.971,446.032,448.565,452.0633,454.519,463.153,467.214,472.299,477.384,479.926" svgx:width="0.33,0.56,0.33,0.25,0.55,0.33,0.25,0.55,0.94,0.44,0.41,0.5,0.25,0.55,0.61,0.44,0.44,0.28,0.39,0.55,0.94,0.44,0.56,0.56,0.28,0.25" style="fill:rgb(0,0,0);font-family:URWPalladioL-Ital;font-size:8.97px;stroke:none;">Int. J. Mach. Tools Manuf.</text>
   <text y="304.434" x="485.785,490.268,494.751,499.235" svgx:width="0.5,0.5,0.5,0.5" style="fill:rgb(0,0,0);font-family:URWPalladioL-Bold;font-size:8.97px;stroke:none;">2010</text>
   <text y="304.434" x="503.718" svgx:width="0.25" style="fill:rgb(0,0,0);font-family:URWPalladioL-Roma;font-size:8.97px;stroke:none;">,</text>
   <text y="304.434" x="508.429,513.002" svgx:width="0.5,0.5" style="fill:rgb(0,0,0);font-family:URWPalladioL-Ital;font-size:8.97px;stroke:none;">50</text>
   <text y="304.434" x="517.575" svgx:width="0.25" style="fill:rgb(0,0,0);font-family:URWPalladioL-Roma;font-size:8.97px;stroke:none;">,</text>
   <text y="317.346" x="98.05,102.533,107.016,111.5,115.983,120.466,124.949,129.432,131.6745,134.812" svgx:width="0.5,0.5,0.5,0.5,0.5,0.5,0.5,0.25,0.55,0.33" style="fill:rgb(0,0,0);font-family:URWPalladioL-Roma;font-size:8.97px;stroke:none;">411–419. [</text>
   <text y="317.346" x="137.798,144.155,147.536,152.431,156.233,160.035,166.024,170.319" svgx:width="0.71,0.4,0.55,0.42,0.42,0.67,0.48,0.33" style="fill:rgb(8,117,183);font-family:URWPalladioL-Roma;font-size:8.97px;stroke:none;">CrossRef</text>
   <text y="317.346" x="173.305" svgx:width="0.33" style="fill:rgb(0,0,0);font-family:URWPalladioL-Roma;font-size:8.97px;stroke:none;">]</text>
   <text y="330.257" x="76.535,81.018,85.501,87.74350000000001,98.05,101.039,105.526,110.75,115.74,117.9825,120.237,124.949,127.193,129.4355,131.69,136.402,141.625,144.237,152.162,154.774,159.262,164.674,166.9165,169.171,174.161,176.405,178.6475,180.902,183.926,186.852,191.753,193.9955,196.249,200.962,203.205,205.44750000000002,207.702,214.55,219.038,223.938,226.1805,228.435,236.585,238.82750000000001,241.081,248.0776,250.308,258.233,260.845,264.83,268.214,273.1475,275.367,280.268,285.662,288.588,291.2,295.185,299.673,302.2743,304.537,309.931,313.315,318.216,323.179,327.4846,329.731,332.72,337.62,341.208,343.41,347.709,353.193,358.183,362.4886,364.735,368.72,373.621,378.844,381.77,386.671,392.083,395.67100000000005,397.881,402.18,407.251,411.739,414.351,419.763,424.251,427.177,429.788,434.689,439.89160000000004,442.156,447.057,450.0171,452.299,457.783,460.394,464.882,472.807,477.708,482.931,488.4027,490.668,494.653,500.065,502.991,505.917,508.529,513.753" svgx:width="0.5,0.5,0.25,0.55,0.33,0.5,0.58,0.56,0.25,0.55,0.52,0.25,0.25,0.55,0.52,0.58,0.29,0.88,0.29,0.5,0.6,0.25,0.55,0.67,0.25,0.25,0.55,0.34,0.33,0.55,0.25,0.55,0.52,0.25,0.25,0.55,0.76,0.5,0.55,0.25,0.55,1.0,0.25,0.55,0.78,0.55,0.88,0.29,0.44,0.4,0.55,0.55,0.55,0.6,0.33,0.29,0.44,0.5,0.29,0.55,0.6,0.4,0.55,0.55,0.48,0.55,0.33,0.55,0.4,0.55,0.48,0.61,0.56,0.48,0.55,0.44,0.55,0.58,0.33,0.55,0.6,0.4,0.55,0.48,0.56,0.5,0.29,0.6,0.5,0.33,0.29,0.55,0.58,0.55,0.55,0.33,0.55,0.61,0.29,0.5,0.88,0.55,0.58,0.61,0.55,0.44,0.6,0.33,0.33,0.29,0.58,0.56" style="fill:rgb(0,0,0);font-family:URWPalladioL-Roma;font-size:8.97px;stroke:none;">24. Jang, S.; Shimizu, Y.; Ito, S.; Gao, W. A micro optical probe for edge contour evaluation of diamond cutting</text>
   <text y="343.169" x="98.05,100.973,105.869,110.764,113.374,117.175" svgx:width="0.33,0.55,0.55,0.29,0.42,0.25" style="fill:rgb(0,0,0);font-family:URWPalladioL-Roma;font-size:8.97px;stroke:none;">tools.</text>
   <text y="343.169" x="122.555,125.541,127.7835,130.024,135.009,138.497,143.483,146.971,149.2135,152.35,157.336,160.824,165.809,169.297,171.5395,174.677,179.662,184.145,187.633,190.619" svgx:width="0.33,0.25,0.55,0.56,0.39,0.56,0.39,0.25,0.55,0.56,0.39,0.56,0.39,0.25,0.55,0.56,0.5,0.39,0.33,0.25" style="fill:rgb(0,0,0);font-family:URWPalladioL-Ital;font-size:8.97px;stroke:none;">J. Sens. Sens. Syst.</text>
   <text y="343.169" x="195.998,200.481,204.964,209.448" svgx:width="0.5,0.5,0.5,0.5" style="fill:rgb(0,0,0);font-family:URWPalladioL-Bold;font-size:8.97px;stroke:none;">2014</text>
   <text y="343.169" x="213.931" svgx:width="0.25" style="fill:rgb(0,0,0);font-family:URWPalladioL-Roma;font-size:8.97px;stroke:none;">,</text>
   <text y="343.169" x="218.414" svgx:width="0.5" style="fill:rgb(0,0,0);font-family:URWPalladioL-Ital;font-size:8.97px;stroke:none;">3</text>
   <text y="343.169" x="222.897,225.1395,227.38,231.863,236.347,240.83,245.313,249.796,252.0385,255.176" svgx:width="0.25,0.55,0.5,0.5,0.5,0.5,0.5,0.25,0.55,0.33" style="fill:rgb(0,0,0);font-family:URWPalladioL-Roma;font-size:8.97px;stroke:none;">, 69–76. [</text>
   <text y="343.169" x="258.162,264.519,267.899,272.795,276.597,280.399,286.388,290.683" svgx:width="0.71,0.4,0.55,0.42,0.42,0.67,0.48,0.33" style="fill:rgb(8,117,183);font-family:URWPalladioL-Roma;font-size:8.97px;stroke:none;">CrossRef</text>
   <text y="343.169" x="293.669" svgx:width="0.33" style="fill:rgb(0,0,0);font-family:URWPalladioL-Roma;font-size:8.97px;stroke:none;">]</text>
   <text y="356.08" x="76.535,81.018,85.501,87.74350000000001,98.05,105.406,109.64,111.88250000000001,114.087,120.356,122.566,127.968,130.178,132.4205,134.634,140.53,145.358,150.503,155.418,157.6605,159.865,167.875,170.085,173.029,175.24,177.48250000000002,179.695,184.337,189.668,194.813,197.0555,199.26,204.017,206.2595,208.464,215.413,218.905,221.477,226.393,228.966,234.111,237.8784,240.096,243.04,247.867,251.45499999999998,253.596,256.478,261.624,265.92960000000005,268.104,271.853,274.425,278.846,283.15160000000003,285.317" svgx:width="0.5,0.5,0.25,0.55,0.83,0.48,0.25,0.55,0.71,0.25,0.61,0.25,0.25,0.55,0.67,0.55,0.58,0.56,0.25,0.55,1.0,0.25,0.33,0.25,0.25,0.55,0.52,0.6,0.58,0.25,0.55,0.61,0.25,0.55,0.79,0.4,0.29,0.56,0.29,0.58,0.42,0.55,0.33,0.55,0.4,0.55,0.33,0.58,0.48,0.55,0.42,0.29,0.5,0.48,0.55,0.48" style="fill:rgb(0,0,0);font-family:URWPalladioL-Roma;font-size:8.97px;stroke:none;">25. He, C.L.; Zong, W.J.; Sun, T. Origins for the size e</text>
   <text y="356.08" x="289.551" svgx:width="0.61" style="fill:rgb(0,0,0);font-family:Rpxr;font-size:8.97px;stroke:none;">ﬀ</text>
   <text y="356.08" x="294.926,299.161,303.086,306.0461,308.205,313.032,315.9921,318.213,321.961,327.292,330.785,333.729,338.149,342.074,346.37960000000004,348.555,351.879,356.706,362.037,366.953,372.098,377.243,381.478,385.227,388.9944,391.212,393.785,398.98760000000004,401.176,406.577,409.15,413.571,421.377,426.204,431.35,436.8217,438.988,441.87,447.201,450.693,455.839,458.411,463.557,468.472" svgx:width="0.48,0.44,0.33,0.55,0.55,0.33,0.55,0.42,0.6,0.4,0.33,0.5,0.44,0.48,0.55,0.4,0.55,0.6,0.56,0.58,0.58,0.48,0.42,0.42,0.55,0.29,0.58,0.55,0.61,0.29,0.5,0.88,0.55,0.58,0.61,0.55,0.33,0.6,0.4,0.58,0.29,0.58,0.56,0.25" style="fill:rgb(0,0,0);font-family:URWPalladioL-Roma;font-size:8.97px;stroke:none;">ect of surface roughness in diamond turning.</text>
   <text y="356.08" x="473.818,476.762,481.678,484.622,486.8645,489.97,492.914,495.1565,497.361,505.707,509.632,513.231,517.651" svgx:width="0.33,0.56,0.33,0.25,0.55,0.33,0.25,0.55,0.94,0.44,0.41,0.5,0.25" style="fill:rgb(0,0,0);font-family:URWPalladioL-Ital;font-size:8.97px;stroke:none;">Int. J. Mach.</text>
   <text y="368.992" x="97.504,101.987,105.968,109.949,112.4606,114.684,123.148,127.129,132.114,137.1,139.592" svgx:width="0.61,0.44,0.44,0.28,0.55,0.94,0.44,0.56,0.56,0.28,0.25" style="fill:rgb(0,0,0);font-family:URWPalladioL-Ital;font-size:8.97px;stroke:none;">Tool Manuf.</text>
   <text y="368.992" x="144.971,149.454,153.937,158.421" svgx:width="0.5,0.5,0.5,0.5" style="fill:rgb(0,0,0);font-family:URWPalladioL-Bold;font-size:8.97px;stroke:none;">2016</text>
   <text y="368.992" x="162.904" svgx:width="0.25" style="fill:rgb(0,0,0);font-family:URWPalladioL-Roma;font-size:8.97px;stroke:none;">,</text>
   <text y="368.992" x="167.387,171.87,176.353" svgx:width="0.5,0.5,0.5" style="fill:rgb(0,0,0);font-family:URWPalladioL-Ital;font-size:8.97px;stroke:none;">106</text>
   <text y="368.992" x="180.837,183.0795,185.32,189.803,194.287,198.77,203.253,207.736,209.9785,213.116" svgx:width="0.25,0.55,0.5,0.5,0.5,0.5,0.5,0.25,0.55,0.33" style="fill:rgb(0,0,0);font-family:URWPalladioL-Roma;font-size:8.97px;stroke:none;">, 22–42. [</text>
   <text y="368.992" x="216.102,222.459,225.839,230.735,234.537,238.339,244.328,248.623" svgx:width="0.71,0.4,0.55,0.42,0.42,0.67,0.48,0.33" style="fill:rgb(8,117,183);font-family:URWPalladioL-Roma;font-size:8.97px;stroke:none;">CrossRef</text>
   <text y="368.992" x="251.609" svgx:width="0.33" style="fill:rgb(0,0,0);font-family:URWPalladioL-Roma;font-size:8.97px;stroke:none;">]</text>
   <text y="381.904" x="76.535,81.018,85.501,87.74350000000001,98.05,102.739,108.124,113.321,118.287,120.52950000000001,122.752,129.7,131.932,139.354,141.586,143.82850000000002,146.061,152.026,156.491,159.403,164.6,169.066,176.951,179.1935,181.417,189.865,192.097,194.33950000000002,196.572,202.028,206.904,212.102,214.3445,216.567,224.676,226.9185,229.15" svgx:width="0.5,0.5,0.25,0.55,0.52,0.6,0.58,0.56,0.25,0.55,0.78,0.25,0.83,0.25,0.25,0.55,0.67,0.5,0.33,0.58,0.5,0.88,0.25,0.55,0.95,0.25,0.25,0.55,0.61,0.55,0.58,0.25,0.55,1.0,0.25,0.55,0.61" style="fill:rgb(0,0,0);font-family:URWPalladioL-Roma;font-size:8.97px;stroke:none;">26. Sung, A.N.; Ratnam, M.; Loh, W. E</text>
   <text y="381.904" x="234.603" svgx:width="0.61" style="fill:rgb(0,0,0);font-family:Rpxr;font-size:8.97px;stroke:none;">ﬀ</text>
   <text y="381.904" x="240.032,244.31,248.275,251.23510000000002,253.419,258.295,261.2551,263.51,266.422,271.298,276.174,278.77529999999996,281.005,286.203,291.079,294.866,299.1716,301.385,306.752,310.119,314.995,320.398,322.997,327.30260000000004,329.507,332.418,337.295,339.893,344.171,347.699,352.164,357.361,361.327,365.6326,367.837,372.713,377.91560000000004,380.152,383.939,389.324,392.851,395.825,400.291,404.256,408.5616,410.766,414.133,419.009,424.394,429.359,434.557,439.755,444.032,447.819,451.5864,453.838,456.437,461.63960000000003,463.876,469.279,474.477,477.075,480.862,486.06460000000004,488.292,491.203,496.589,500.116,505.314,507.912,513.11,518.075" svgx:width="0.48,0.44,0.33,0.55,0.55,0.33,0.55,0.33,0.55,0.55,0.29,0.55,0.58,0.55,0.42,0.48,0.55,0.6,0.4,0.55,0.61,0.29,0.48,0.55,0.33,0.55,0.29,0.48,0.4,0.5,0.58,0.44,0.48,0.55,0.55,0.58,0.55,0.42,0.6,0.4,0.33,0.5,0.44,0.48,0.55,0.4,0.55,0.6,0.56,0.58,0.58,0.48,0.42,0.42,0.55,0.29,0.58,0.55,0.61,0.58,0.29,0.42,0.58,0.55,0.33,0.6,0.4,0.58,0.29,0.58,0.56,0.25" style="fill:rgb(0,0,0);font-family:URWPalladioL-Roma;font-size:8.97px;stroke:none;">ect of tool nose proﬁle tolerance on surface roughness in ﬁnish turning.</text>
   <text y="394.815" x="98.05,101.036,106.021,109.007,111.24950000000001,114.387,117.373,119.61550000000001,121.856,128.33,132.813,136.803,139.0455,142.183,150.647,154.628,159.613,164.599,167.091,169.33350000000002,172.471,176.954,180.442,184.092,188.575,193.56,197.541,200.034" svgx:width="0.33,0.56,0.33,0.25,0.55,0.33,0.25,0.55,0.72,0.5,0.5,0.25,0.55,0.94,0.44,0.56,0.56,0.28,0.25,0.55,0.61,0.39,0.41,0.5,0.56,0.44,0.28,0.25" style="fill:rgb(0,0,0);font-family:URWPalladioL-Ital;font-size:8.97px;stroke:none;">Int. J. Adv. Manuf. Technol.</text>
   <text y="394.815" x="205.413,209.896,214.379,218.863" svgx:width="0.5,0.5,0.5,0.5" style="fill:rgb(0,0,0);font-family:URWPalladioL-Bold;font-size:8.97px;stroke:none;">2015</text>
   <text y="394.815" x="223.346" svgx:width="0.25" style="fill:rgb(0,0,0);font-family:URWPalladioL-Roma;font-size:8.97px;stroke:none;">,</text>
   <text y="394.815" x="227.829,232.312" svgx:width="0.5,0.5" style="fill:rgb(0,0,0);font-family:URWPalladioL-Ital;font-size:8.97px;stroke:none;">76</text>
   <text y="394.815" x="236.795,239.0375,241.278,245.761,250.245,254.728,259.211,263.694,268.177,272.661,277.144,281.627,283.8695,287.007" svgx:width="0.25,0.55,0.5,0.5,0.5,0.5,0.5,0.5,0.5,0.5,0.5,0.25,0.55,0.33" style="fill:rgb(0,0,0);font-family:URWPalladioL-Roma;font-size:8.97px;stroke:none;">, 2083–2098. [</text>
   <text y="394.815" x="289.993,296.35,299.73,304.626,308.428,312.229,318.219,322.514" svgx:width="0.71,0.4,0.55,0.42,0.42,0.67,0.48,0.33" style="fill:rgb(8,117,183);font-family:URWPalladioL-Roma;font-size:8.97px;stroke:none;">CrossRef</text>
   <text y="394.815" x="325.5" svgx:width="0.33" style="fill:rgb(0,0,0);font-family:URWPalladioL-Roma;font-size:8.97px;stroke:none;">]</text>
   <text y="407.727" x="76.535,81.018,85.501,87.74350000000001,98.05,102.852,108.366,113.689,118.774,121.01650000000001,123.859,130.965,133.252,140.852,143.138,145.3805,148.498,154.086,159.079,164.402,166.6445,169.487,177.801,180.087,184.459,186.745,188.9875,192.105,198.214,202.787,205.768,211.091,215.664,223.74,225.98250000000002,228.816,237.468,239.754,248.406,250.6485,253.491,258.292,260.954,269.029,274.544,277.206,281.779,284.76,287.412,292.406,297.6086,300.527,305.1,310.597,316.093,319.541,324.535,329.108,333.168,338.3706,341.29,344.335,349.329,352.91700000000003,355.731,359.609,365.124,368.736,371.782,376.355,380.415,384.72060000000005,387.595,391.043,396.036,401.551,406.636,411.959,417.282,421.662,425.54,429.30740000000003,432.207,434.869,440.192,443.173,447.554,451.167,456.334,460.907,463.50829999999996,466.367,471.863,475.311,479.692,485.28,487.941,492.002,494.984,497.645,502.639,507.8416,510.76,513.421" svgx:width="0.5,0.5,0.25,0.55,0.52,0.6,0.58,0.56,0.25,0.55,0.78,0.25,0.83,0.25,0.25,0.55,0.61,0.55,0.58,0.25,0.55,1.0,0.25,0.6,0.25,0.25,0.55,0.67,0.5,0.33,0.58,0.5,0.88,0.25,0.55,0.95,0.25,0.95,0.25,0.55,0.52,0.29,0.88,0.6,0.29,0.5,0.33,0.29,0.55,0.58,0.55,0.5,0.6,0.6,0.4,0.55,0.5,0.44,0.58,0.55,0.33,0.55,0.4,0.55,0.42,0.6,0.4,0.33,0.5,0.44,0.48,0.55,0.4,0.55,0.6,0.56,0.58,0.58,0.48,0.42,0.42,0.55,0.29,0.58,0.33,0.48,0.4,0.56,0.5,0.29,0.55,0.6,0.4,0.48,0.61,0.29,0.44,0.33,0.29,0.55,0.58,0.55,0.29,0.58" style="fill:rgb(0,0,0);font-family:URWPalladioL-Roma;font-size:8.97px;stroke:none;">27. Sung, A.N.; Loh, W.P.; Ratnam, M.M. Simulation approach for surface roughness interval prediction in</text>
   <text y="420.638" x="98.05,103.475,108.693,111.302,115.104,120.323,122.932,128.15,133.1732,135.377,138.3,143.707,147.249,152.467,155.076,160.295,165.28" svgx:width="0.61,0.58,0.29,0.42,0.58,0.29,0.58,0.56,0.55,0.33,0.6,0.4,0.58,0.29,0.58,0.56,0.25" style="fill:rgb(0,0,0);font-family:URWPalladioL-Roma;font-size:8.97px;stroke:none;">ﬁnishing turning.</text>
   <text y="420.638" x="170.659,173.645,178.63,181.616,183.85850000000002,186.996,189.982,192.2245,194.465,199.45,201.943,208.919,213.904,216.397,220.378,223.364,225.6065,228.743,237.208,241.189,245.672,249.16,251.653" svgx:width="0.33,0.56,0.33,0.25,0.55,0.33,0.25,0.55,0.56,0.28,0.78,0.56,0.28,0.44,0.33,0.25,0.55,0.94,0.44,0.5,0.39,0.28,0.25" style="fill:rgb(0,0,0);font-family:URWPalladioL-Ital;font-size:8.97px;stroke:none;">Int. J. Simulat. Model.</text>
   <text y="420.638" x="257.031,261.514,265.997,270.481" svgx:width="0.5,0.5,0.5,0.5" style="fill:rgb(0,0,0);font-family:URWPalladioL-Bold;font-size:8.97px;stroke:none;">2016</text>
   <text y="420.638" x="274.964" svgx:width="0.25" style="fill:rgb(0,0,0);font-family:URWPalladioL-Roma;font-size:8.97px;stroke:none;">,</text>
   <text y="420.638" x="279.447,283.93" svgx:width="0.5,0.5" style="fill:rgb(0,0,0);font-family:URWPalladioL-Ital;font-size:8.97px;stroke:none;">15</text>
   <text y="420.638" x="288.414,290.6565,292.897,297.38,301.864,306.347,310.83,315.313,317.5555,320.693" svgx:width="0.25,0.55,0.5,0.5,0.5,0.5,0.5,0.25,0.55,0.33" style="fill:rgb(0,0,0);font-family:URWPalladioL-Roma;font-size:8.97px;stroke:none;">, 42–55. [</text>
   <text y="420.638" x="323.679,330.036,333.416,338.312,342.114,345.916,351.905,356.2" svgx:width="0.71,0.4,0.55,0.42,0.42,0.67,0.48,0.33" style="fill:rgb(8,117,183);font-family:URWPalladioL-Roma;font-size:8.97px;stroke:none;">CrossRef</text>
   <text y="420.638" x="359.186" svgx:width="0.33" style="fill:rgb(0,0,0);font-family:URWPalladioL-Roma;font-size:8.97px;stroke:none;">]</text>
   <text y="433.55" x="76.535,81.018,85.501,87.74350000000001,98.05,105.458,109.723,111.9655,114.192,120.505,122.731,128.171,130.397,132.6395,134.867,140.805,145.667,150.849,155.799,158.0415,160.269,168.344,170.57,173.535,175.761,178.0035,180.231,186.169,191.538,195.803,198.0455,200.273,206.585,208.811,214.75,216.976,219.2185,221.445,226.12,231.489,236.671,238.9135,241.14,245.939,248.1815,250.409,257.336,262.53860000000003,264.762,269.213,273.167,277.12,282.489,286.006,290.458,293.36,297.66560000000004,299.869,304.32,311.2269,313.456,317.231,322.6,326.117,329.081,333.533,337.487,341.79260000000005,343.995,346.898,351.759,357.11,361.971,366.922,370.439,374.891,380.242,385.424,390.44719999999995,392.618,400.48,405.341,410.781,415.046,417.6473,419.881,422.846,427.698,431.286,433.459,437.234,439.825,445.007,449.957,452.548,456.813,459.778,465.129,469.99,472.581,477.763,480.7231,482.91,488.35,490.941,495.392,503.254,508.116,513.298" svgx:width="0.5,0.5,0.25,0.55,0.83,0.48,0.25,0.55,0.71,0.25,0.61,0.25,0.25,0.55,0.67,0.55,0.58,0.56,0.25,0.55,1.0,0.25,0.33,0.25,0.25,0.55,0.67,0.6,0.48,0.25,0.55,0.71,0.25,0.67,0.25,0.25,0.55,0.52,0.6,0.58,0.25,0.55,0.61,0.25,0.55,0.78,0.58,0.55,0.5,0.44,0.44,0.6,0.4,0.5,0.33,0.48,0.55,0.5,0.77,0.55,0.42,0.6,0.4,0.33,0.5,0.44,0.48,0.55,0.33,0.55,0.6,0.55,0.56,0.4,0.5,0.6,0.58,0.56,0.55,0.88,0.55,0.61,0.48,0.29,0.55,0.33,0.55,0.4,0.55,0.42,0.29,0.58,0.56,0.29,0.48,0.33,0.6,0.55,0.29,0.58,0.33,0.55,0.61,0.29,0.5,0.88,0.55,0.58,0.61" style="fill:rgb(0,0,0);font-family:URWPalladioL-Roma;font-size:8.97px;stroke:none;">28. He, C.L.; Zong, W.J.; Xue, C.X.; Sun, T. An accurate 3D surface topography model for single-point diamond</text>
   <text y="446.462" x="98.05,100.973,106.38,109.922,115.14,117.749,122.968,127.953" svgx:width="0.33,0.6,0.4,0.58,0.29,0.58,0.56,0.25" style="fill:rgb(0,0,0);font-family:URWPalladioL-Roma;font-size:8.97px;stroke:none;">turning.</text>
   <text y="446.462" x="133.333,136.319,141.304,144.29,146.5325,149.67,152.656,154.8985,157.139,165.603,169.584,173.234,177.717,179.95950000000002,183.097,187.58,191.561,195.542,198.035,201.5333,203.764,212.228,216.209,221.195,226.18,228.673" svgx:width="0.33,0.56,0.33,0.25,0.55,0.33,0.25,0.55,0.94,0.44,0.41,0.5,0.25,0.55,0.61,0.44,0.44,0.28,0.39,0.55,0.94,0.44,0.56,0.56,0.28,0.25" style="fill:rgb(0,0,0);font-family:URWPalladioL-Ital;font-size:8.97px;stroke:none;">Int. J. Mach. Tools Manuf.</text>
   <text y="446.462" x="234.051,238.534,243.017,247.501" svgx:width="0.5,0.5,0.5,0.5" style="fill:rgb(0,0,0);font-family:URWPalladioL-Bold;font-size:8.97px;stroke:none;">2018</text>
   <text y="446.462" x="251.984" svgx:width="0.25" style="fill:rgb(0,0,0);font-family:URWPalladioL-Roma;font-size:8.97px;stroke:none;">,</text>
   <text y="446.462" x="256.467,260.95,265.433" svgx:width="0.5,0.5,0.5" style="fill:rgb(0,0,0);font-family:URWPalladioL-Ital;font-size:8.97px;stroke:none;">134</text>
   <text y="446.462" x="269.916,272.1585,274.399,278.882,283.366,287.849,292.332,296.815,299.0575,302.195" svgx:width="0.25,0.55,0.5,0.5,0.5,0.5,0.5,0.25,0.55,0.33" style="fill:rgb(0,0,0);font-family:URWPalladioL-Roma;font-size:8.97px;stroke:none;">, 42–68. [</text>
   <text y="446.462" x="305.181,311.538,314.918,319.814,323.616,327.418,333.407,337.702" svgx:width="0.71,0.4,0.55,0.42,0.42,0.67,0.48,0.33" style="fill:rgb(8,117,183);font-family:URWPalladioL-Roma;font-size:8.97px;stroke:none;">CrossRef</text>
   <text y="446.462" x="340.688" svgx:width="0.33" style="fill:rgb(0,0,0);font-family:URWPalladioL-Roma;font-size:8.97px;stroke:none;">]</text>
   <text y="459.373" x="76.535,81.018,85.501,87.74350000000001,98.05,104.69,110.205,113.817,119.14,121.801,126.374,134.002,138.575,143.898,146.1405,148.891,155.0,157.287,159.5295,162.518,169.158,171.819,175.697,183.325,187.898,193.22,196.202,201.196,203.4385,206.189,213.167,215.454,217.69650000000001,220.685,227.325,232.318,234.56050000000002,237.312,242.26,244.5025,247.253,252.055,257.57,261.182,264.228,268.801,272.862,277.16760000000005,279.949,283.397,288.391,293.906,298.991,304.314,309.636,314.017,317.895,321.6624,324.48,329.473,332.4331,335.235,339.72,342.515,345.497,353.124,358.118,361.163,364.209,367.657,372.038,377.159,382.674,387.055,392.378,396.438,401.46119999999996,404.231,408.611,411.273,413.934,416.596,422.092,425.074,427.735,431.796,436.369,438.9703,441.746,446.914,449.575,454.624,458.236,462.809,465.79,468.452,473.445,478.6476,481.485,484.466,488.847,493.566,496.548,502.062,505.675,508.336,513.659" svgx:width="0.5,0.5,0.25,0.55,0.73,0.6,0.4,0.58,0.29,0.5,0.83,0.5,0.58,0.25,0.55,0.67,0.25,0.25,0.55,0.73,0.29,0.42,0.83,0.5,0.58,0.33,0.55,0.25,0.55,0.76,0.25,0.25,0.55,0.73,0.55,0.25,0.55,0.61,0.25,0.55,0.52,0.6,0.4,0.33,0.5,0.44,0.48,0.55,0.4,0.55,0.6,0.56,0.58,0.58,0.48,0.42,0.42,0.55,0.55,0.33,0.55,0.5,0.55,0.33,0.83,0.55,0.33,0.33,0.4,0.48,0.56,0.6,0.48,0.58,0.44,0.56,0.55,0.48,0.29,0.29,0.29,0.6,0.33,0.29,0.44,0.5,0.29,0.55,0.56,0.29,0.55,0.4,0.5,0.33,0.29,0.55,0.58,0.55,0.33,0.48,0.52,0.33,0.6,0.4,0.29,0.58,0.56" style="fill:rgb(0,0,0);font-family:URWPalladioL-Roma;font-size:8.97px;stroke:none;">29. Kurniawan, R.; Kiswanto, G.; Ko, T. Surface roughness of a two-frequency elliptical vibration texturing</text>
   <text y="472.285" x="97.755,100.741,106.237,111.223,116.701,123.175,128.671,131.6311,133.899,141.816,146.111,149.034,154.252,159.148,164.6197,166.868,169.854,174.749,178.337,180.533,188.45,191.059,195.04,198.421,203.316,206.302,211.781,214.39,222.307,227.696,230.305,234.6106,236.842,242.231,246.714,249.637,252.56,256.855,260.397,265.5996,267.857,273.245,276.626,281.521,285.502,289.797,293.599,297.401" svgx:width="0.33,0.61,0.56,0.61,0.72,0.61,0.33,0.55,0.88,0.48,0.33,0.58,0.55,0.61,0.55,0.33,0.55,0.4,0.55,0.88,0.29,0.44,0.4,0.55,0.33,0.61,0.29,0.88,0.6,0.29,0.48,0.55,0.6,0.5,0.33,0.33,0.48,0.4,0.58,0.55,0.6,0.4,0.55,0.44,0.48,0.42,0.42,0.25" style="fill:rgb(0,0,0);font-family:URWPalladioL-Roma;font-size:8.97px;stroke:none;">(TFEVT) method for micro-dimple pattern process.</text>
   <text y="472.285" x="302.777,305.763,310.748,313.734,315.9765,319.114,322.1,324.34250000000003,326.583,335.047,339.028,342.678,347.161,349.4035,352.541,357.024,361.005,364.986,367.479,370.9773,373.208,381.672,385.653,390.639,395.624,398.117" svgx:width="0.33,0.56,0.33,0.25,0.55,0.33,0.25,0.55,0.94,0.44,0.41,0.5,0.25,0.55,0.61,0.44,0.44,0.28,0.39,0.55,0.94,0.44,0.56,0.56,0.28,0.25" style="fill:rgb(0,0,0);font-family:URWPalladioL-Ital;font-size:8.97px;stroke:none;">Int. J. Mach. Tools Manuf.</text>
   <text y="472.285" x="403.496,407.979,412.462,416.946" svgx:width="0.5,0.5,0.5,0.5" style="fill:rgb(0,0,0);font-family:URWPalladioL-Bold;font-size:8.97px;stroke:none;">2017</text>
   <text y="472.285" x="421.428" svgx:width="0.25" style="fill:rgb(0,0,0);font-family:URWPalladioL-Roma;font-size:8.97px;stroke:none;">,</text>
   <text y="472.285" x="425.912,430.395,434.878" svgx:width="0.5,0.5,0.5" style="fill:rgb(0,0,0);font-family:URWPalladioL-Ital;font-size:8.97px;stroke:none;">116</text>
   <text y="472.285" x="439.361,441.6035,443.844,448.327,452.811,457.294,461.777,466.26,468.5025,471.64" svgx:width="0.25,0.55,0.5,0.5,0.5,0.5,0.5,0.25,0.55,0.33" style="fill:rgb(0,0,0);font-family:URWPalladioL-Roma;font-size:8.97px;stroke:none;">, 77–95. [</text>
   <text y="472.285" x="474.626,480.983,484.363,489.259,493.061,496.863,502.852,507.147" svgx:width="0.71,0.4,0.55,0.42,0.42,0.67,0.48,0.33" style="fill:rgb(8,117,183);font-family:URWPalladioL-Roma;font-size:8.97px;stroke:none;">CrossRef</text>
   <text y="472.285" x="510.133" svgx:width="0.33" style="fill:rgb(0,0,0);font-family:URWPalladioL-Roma;font-size:8.97px;stroke:none;">]</text>
   <text y="485.196" x="76.535,81.018,85.501,87.74350000000001,98.05,104.15,109.144,114.467,119.552,121.79450000000001,124.701,133.023,135.31,138.355,140.642,142.8845,146.102,151.69,154.351,156.5935,159.5,165.6,167.887,170.1295,173.347,179.447,184.77,189.343,194.666,199.751,201.9935,204.9,210.488,212.774,215.0165,218.234,223.822,226.484,231.056,236.379,241.464,243.7065,246.613,251.717,254.003,256.2455,259.463,264.265,269.779,275.102,277.3445,280.251,285.19,287.476,289.7185,292.936,300.052,305.375,307.6175,310.524,317.008,319.294,326.904,329.19,331.4325,334.65,340.75,346.073,350.646,355.969,361.054,363.2965,366.203,369.248,371.535,375.797,378.083,380.32550000000003,383.543,389.643,394.966,399.96,405.475,407.71750000000003,410.624,416.212,418.498,420.7405,423.958,432.281,436.854,442.176,447.261,449.50350000000003,452.41,455.456,457.6985,460.605,465.69,468.351,473.674,476.336,479.317,483.62260000000003,486.561,490.941,493.603,497.984,506.059,510.44,515.763" svgx:width="0.5,0.5,0.25,0.55,0.67,0.55,0.58,0.56,0.25,0.55,1.0,0.25,0.33,0.25,0.25,0.55,0.61,0.29,0.25,0.55,0.67,0.25,0.25,0.55,0.67,0.58,0.5,0.58,0.56,0.25,0.55,0.61,0.25,0.25,0.55,0.61,0.29,0.5,0.58,0.56,0.25,0.55,0.67,0.25,0.25,0.55,0.52,0.6,0.58,0.25,0.55,0.61,0.25,0.25,0.55,0.78,0.58,0.25,0.55,0.71,0.25,0.83,0.25,0.25,0.55,0.67,0.58,0.5,0.58,0.56,0.25,0.55,0.33,0.25,0.56,0.25,0.25,0.55,0.67,0.58,0.55,0.6,0.25,0.55,0.61,0.25,0.25,0.55,1.0,0.5,0.58,0.56,0.25,0.55,0.33,0.25,0.55,0.56,0.29,0.58,0.29,0.33,0.48,0.55,0.48,0.29,0.48,0.88,0.48,0.58,0.33" style="fill:rgb(0,0,0);font-family:URWPalladioL-Roma;font-size:8.97px;stroke:none;">30. Zong, W.J.; Li, Z.; Zhang, L.; Liang, Y.; Sun, T.; An, C.H.; Zhang, J.F.; Zhou, L.; Wang, J. Finite element</text>
   <text y="498.108" x="98.05,101.901,104.544,112.565,118.042,120.685,125.226,128.187,130.83,135.79,140.99259999999998,143.31,148.27,151.23010000000002,153.529,159.078,161.722,166.263,174.283,179.243,184.529,190.0007,192.313,195.274,200.233,205.193,207.79430000000002,210.07,215.12,219.471,224.43,232.451,236.801,239.762,243.35,245.993,250.344,254.1114,256.43" svgx:width="0.42,0.29,0.88,0.6,0.29,0.5,0.33,0.29,0.55,0.58,0.55,0.55,0.33,0.55,0.61,0.29,0.5,0.88,0.55,0.58,0.61,0.55,0.33,0.55,0.55,0.29,0.55,0.56,0.48,0.55,0.88,0.48,0.33,0.4,0.29,0.48,0.42,0.55,0.5" style="fill:rgb(0,0,0);font-family:URWPalladioL-Roma;font-size:8.97px;stroke:none;">simulation of diamond tool geometries a</text>
   <text y="498.108" x="260.972" svgx:width="0.61" style="fill:rgb(0,0,0);font-family:Rpxr;font-size:8.97px;stroke:none;">ﬀ</text>
   <text y="498.108" x="266.494,270.845,274.878,277.839,280.482,285.768,290.79119999999995,293.053,296.014,301.3,305.60560000000004,307.885,312.427,319.3339,321.691,325.542,331.019,334.607,337.632,342.173,346.206,350.51160000000004,352.791,355.752,360.712,366.17,371.13,376.18,379.768,384.309,389.768,395.054,400.07719999999995,402.339,404.982,410.18460000000005,412.503,418.025,423.04819999999995,425.31,429.342,434.819,437.78,440.742,443.385,448.671,453.69419999999997,455.956,460.915,463.87510000000003,466.174,472.768,479.798,485.18,487.519,491.552,495.139,500.19,504.041,507.002,511.543,514.186,518.038" svgx:width="0.48,0.44,0.33,0.29,0.58,0.56,0.55,0.33,0.58,0.48,0.55,0.5,0.77,0.55,0.42,0.6,0.4,0.33,0.5,0.44,0.48,0.55,0.33,0.55,0.6,0.55,0.56,0.4,0.5,0.6,0.58,0.56,0.55,0.29,0.58,0.55,0.61,0.56,0.55,0.44,0.6,0.33,0.33,0.29,0.58,0.56,0.55,0.55,0.33,0.55,0.73,0.77,0.6,0.55,0.44,0.4,0.56,0.42,0.33,0.5,0.29,0.42,0.25" style="fill:rgb(0,0,0);font-family:URWPalladioL-Roma;font-size:8.97px;stroke:none;">ecting the 3D surface topography in ﬂy cutting of KDP crystals.</text>
   <text y="511.02" x="98.05,101.036,106.021,109.007,111.24950000000001,114.387,117.373,119.61550000000001,121.856,128.33,132.813,136.803,139.0455,142.183,150.647,154.628,159.613,164.599,167.091,169.33350000000002,172.471,176.954,180.442,184.092,188.575,193.56,197.541,200.034" svgx:width="0.33,0.56,0.33,0.25,0.55,0.33,0.25,0.55,0.72,0.5,0.5,0.25,0.55,0.94,0.44,0.56,0.56,0.28,0.25,0.55,0.61,0.39,0.41,0.5,0.56,0.44,0.28,0.25" style="fill:rgb(0,0,0);font-family:URWPalladioL-Ital;font-size:8.97px;stroke:none;">Int. J. Adv. Manuf. Technol.</text>
   <text y="511.02" x="205.413,209.896,214.379,218.863" svgx:width="0.5,0.5,0.5,0.5" style="fill:rgb(0,0,0);font-family:URWPalladioL-Bold;font-size:8.97px;stroke:none;">2013</text>
   <text y="511.02" x="223.346" svgx:width="0.25" style="fill:rgb(0,0,0);font-family:URWPalladioL-Roma;font-size:8.97px;stroke:none;">,</text>
   <text y="511.02" x="227.829,232.312" svgx:width="0.5,0.5" style="fill:rgb(0,0,0);font-family:URWPalladioL-Ital;font-size:8.97px;stroke:none;">68</text>
   <text y="511.02" x="236.795,239.0375,241.278,245.761,250.245,254.728,259.211,263.694,268.177,272.661,277.144,281.627,283.8695,287.007" svgx:width="0.25,0.55,0.5,0.5,0.5,0.5,0.5,0.5,0.5,0.5,0.5,0.25,0.55,0.33" style="fill:rgb(0,0,0);font-family:URWPalladioL-Roma;font-size:8.97px;stroke:none;">, 1927–1936. [</text>
   <text y="511.02" x="289.993,296.35,299.73,304.626,308.428,312.229,318.219,322.514" svgx:width="0.71,0.4,0.55,0.42,0.42,0.67,0.48,0.33" style="fill:rgb(8,117,183);font-family:URWPalladioL-Roma;font-size:8.97px;stroke:none;">CrossRef</text>
   <text y="511.02" x="325.5" svgx:width="0.33" style="fill:rgb(0,0,0);font-family:URWPalladioL-Roma;font-size:8.97px;stroke:none;">]</text>
   <text y="523.931" x="76.535,81.018,85.501,87.74350000000001,98.05,103.911,109.21,114.007,116.24950000000001,118.26,124.49,126.687,128.9295,130.993,136.854,141.968,146.766,152.064,154.3065,156.317,162.178,164.375,166.6175,168.689,174.058,176.615,181.914,184.1565,186.158,193.065,195.261,197.5035,199.576,207.537,211.93,217.045,221.93,224.1725,226.183,232.053,234.25,236.4925,238.564,243.933,246.49,251.604,253.84650000000002,255.848,258.774,260.971,263.2135,265.286,271.147,276.445,278.6875,280.698,284.846,287.042,289.2845,291.357,297.218,302.332,306.725,311.84,316.725,318.96750000000003,320.978,326.839,329.0815,331.083,337.92,343.034,347.427,349.984,354.87,357.734,360.291,364.193,368.586,371.1873,373.2,376.064,380.862,386.143,390.941,395.826,399.297,403.691,408.972,414.086,419.1092,421.019,424.745,427.302,435.061,440.359,442.916,447.31,450.174,452.731,457.529,462.7316,464.699,469.497,472.4571,474.479,482.238,484.795,488.697,492.001" svgx:width="0.5,0.5,0.25,0.55,0.67,0.6,0.55,0.25,0.55,0.71,0.25,0.25,0.55,0.67,0.58,0.55,0.6,0.25,0.55,0.67,0.25,0.25,0.55,0.61,0.29,0.6,0.25,0.55,0.79,0.25,0.25,0.55,1.0,0.5,0.58,0.56,0.25,0.55,0.67,0.25,0.25,0.55,0.61,0.29,0.58,0.25,0.55,0.33,0.25,0.25,0.55,0.67,0.6,0.25,0.55,0.6,0.25,0.25,0.55,0.67,0.58,0.5,0.58,0.56,0.25,0.55,0.67,0.25,0.55,0.78,0.58,0.5,0.29,0.56,0.33,0.29,0.44,0.5,0.29,0.55,0.33,0.55,0.6,0.55,0.56,0.4,0.5,0.6,0.58,0.56,0.55,0.42,0.29,0.88,0.6,0.29,0.5,0.33,0.29,0.55,0.58,0.55,0.55,0.33,0.55,0.88,0.29,0.44,0.4,0.55" style="fill:rgb(0,0,0);font-family:URWPalladioL-Roma;font-size:8.97px;stroke:none;">31. Zuo, C.; Zhou, X.; Liu, Q.; Wang, R.; Lin, J.; Xu, P.; Zhang, X. Analytical topography simulation of micro</text>
   <text y="523.931" x="496.799" svgx:width="0.29" style="fill:rgb(0,0,0);font-family:Rpxr;font-size:8.97px;stroke:none;">/</text>
   <text y="523.931" x="499.321,504.435,508.829,513.943" svgx:width="0.58,0.5,0.58,0.55" style="fill:rgb(0,0,0);font-family:URWPalladioL-Roma;font-size:8.97px;stroke:none;">nano</text>
   <text y="536.843" x="98.05,100.976,105.275,109.906,112.832,118.245,121.628,125.927,129.6944,131.959,136.949,141.248,146.472,150.771,154.317,158.804,161.73,166.029,171.5007,173.739,178.64,183.84259999999998,186.089,189.078,192.462,196.761,201.06,204.049,208.95,212.495,222.646,226.452,231.864,235.409,238.398,242.885,246.871,251.17,254.9374,257.201,259.813,265.0156,267.263,272.746,277.647,283.059,288.023,290.634,294.934,297.922,300.911,304.295,308.594,313.62,319.032,323.332,328.555,332.54,337.5632,339.757,344.056,346.668,349.279,351.891,357.285,360.211,362.823,366.808,371.296,373.8973,376.134,381.205,383.817,388.78,392.325,396.813,399.739,402.351,407.251,412.4536,414.71,418.695,424.107,427.024,429.95,432.562,437.785,442.8082,445.011,449.974,454.462,458.267,462.566,468.0377,470.276,475.177,480.37960000000004,482.626,488.11,490.722,495.21,503.135,508.036,513.259" svgx:width="0.33,0.48,0.52,0.33,0.6,0.4,0.48,0.42,0.55,0.56,0.48,0.58,0.48,0.4,0.5,0.33,0.48,0.61,0.55,0.55,0.58,0.55,0.33,0.4,0.48,0.48,0.33,0.55,0.4,0.88,0.42,0.6,0.4,0.33,0.5,0.44,0.48,0.42,0.55,0.29,0.58,0.55,0.61,0.55,0.6,0.55,0.29,0.48,0.33,0.33,0.4,0.48,0.56,0.6,0.48,0.58,0.44,0.56,0.55,0.48,0.29,0.29,0.29,0.6,0.33,0.29,0.44,0.5,0.29,0.55,0.56,0.29,0.55,0.4,0.5,0.33,0.29,0.55,0.58,0.55,0.44,0.6,0.33,0.33,0.29,0.58,0.56,0.55,0.55,0.5,0.42,0.48,0.61,0.55,0.55,0.58,0.55,0.61,0.29,0.5,0.88,0.55,0.58,0.61" style="fill:rgb(0,0,0);font-family:URWPalladioL-Roma;font-size:8.97px;stroke:none;">textures generated on freeformsurfaces in double-frequency elliptical vibration cutting based on diamond</text>
   <text y="549.754" x="98.05,100.973,106.38,109.922,115.14,117.749,122.968,127.953" svgx:width="0.33,0.6,0.4,0.58,0.29,0.58,0.56,0.25" style="fill:rgb(0,0,0);font-family:URWPalladioL-Roma;font-size:8.97px;stroke:none;">turning.</text>
   <text y="549.754" x="133.333,137.816,141.304,145.285,150.271,153.758,156.00050000000002,159.138,165.612,170.597,179.062,184.5337,186.782,189.768,192.0105,194.251,202.715,206.696,211.681,216.667,219.159,221.4015,224.539,229.525,233.174,235.667,237.9095,241.046,246.525,251.51,255.993" svgx:width="0.61,0.39,0.44,0.56,0.39,0.25,0.55,0.72,0.56,0.94,0.61,0.55,0.33,0.25,0.55,0.94,0.44,0.56,0.56,0.28,0.25,0.55,0.56,0.41,0.28,0.25,0.55,0.61,0.56,0.5,0.25" style="fill:rgb(0,0,0);font-family:URWPalladioL-Ital;font-size:8.97px;stroke:none;">Trans. ASME J. Manuf. Sci. Eng.</text>
   <text y="549.754" x="261.371,265.854,270.337,274.821" svgx:width="0.5,0.5,0.5,0.5" style="fill:rgb(0,0,0);font-family:URWPalladioL-Bold;font-size:8.97px;stroke:none;">2018</text>
   <text y="549.754" x="279.304" svgx:width="0.25" style="fill:rgb(0,0,0);font-family:URWPalladioL-Roma;font-size:8.97px;stroke:none;">,</text>
   <text y="549.754" x="283.787,288.27,292.753" svgx:width="0.5,0.5,0.5" style="fill:rgb(0,0,0);font-family:URWPalladioL-Ital;font-size:8.97px;stroke:none;">140</text>
   <text y="549.754" x="297.237,299.47950000000003,301.72,306.203,310.687,315.17,319.653,324.136,328.62,330.8625,333.999" svgx:width="0.25,0.55,0.5,0.5,0.5,0.5,0.5,0.5,0.25,0.55,0.33" style="fill:rgb(0,0,0);font-family:URWPalladioL-Roma;font-size:8.97px;stroke:none;">, 101010. [</text>
   <text y="549.754" x="336.985,343.342,346.723,351.618,355.42,359.222,365.211,369.506" svgx:width="0.71,0.4,0.55,0.42,0.42,0.67,0.48,0.33" style="fill:rgb(8,117,183);font-family:URWPalladioL-Roma;font-size:8.97px;stroke:none;">CrossRef</text>
   <text y="549.754" x="372.492" svgx:width="0.33" style="fill:rgb(0,0,0);font-family:URWPalladioL-Roma;font-size:8.97px;stroke:none;">]</text>
   <text y="562.666" x="76.535,81.018,85.501,87.74350000000001,98.05,104.534,109.857,112.519,115.18,120.768,124.646,126.88850000000001,129.713,134.66,136.947,144.556,146.842,153.327,155.613,157.8555,160.954,165.756,170.137,175.222,177.883,182.968,187.541,189.7835,192.608,199.248,201.534,203.7765,206.875,211.658,216.039,220.612,226.118,231.203,235.776,238.01850000000002,240.851,246.961,249.247,251.48950000000002,254.588,259.856,264.429,272.505,277.078,282.401,286.781,289.0235,291.857,296.961,299.247,301.4895,304.588,311.667,316.66,320.273,325.596,328.641,333.022,335.684,341.272,343.5145,346.338,353.417,355.704,357.9465,361.045,366.633,371.014,375.394,377.6365,380.461,387.54,389.826,395.414,397.701,399.94350000000003,403.042,411.694,414.355,419.678,421.9205,424.745,429.546,431.833,434.07550000000003,437.174,445.661,449.274,451.935,457.02,462.343,465.324,467.5665,470.391,474.754,477.04,483.68,485.9225,488.756,493.557,499.072,502.685,505.73,510.303,514.364" svgx:width="0.5,0.5,0.25,0.55,0.71,0.58,0.29,0.29,0.61,0.42,0.25,0.55,0.61,0.25,0.83,0.25,0.71,0.25,0.25,0.55,0.52,0.48,0.56,0.29,0.56,0.5,0.25,0.55,0.73,0.25,0.25,0.55,0.61,0.48,0.5,0.6,0.56,0.5,0.25,0.55,0.67,0.25,0.25,0.55,0.67,0.5,0.88,0.5,0.58,0.48,0.25,0.55,0.67,0.25,0.25,0.55,0.77,0.55,0.4,0.58,0.33,0.48,0.29,0.61,0.25,0.55,0.77,0.25,0.25,0.55,0.61,0.48,0.48,0.25,0.55,0.77,0.25,0.61,0.25,0.25,0.55,0.95,0.29,0.58,0.25,0.55,0.52,0.25,0.25,0.55,1.0,0.4,0.29,0.56,0.58,0.33,0.25,0.55,0.6,0.25,0.73,0.25,0.55,0.52,0.6,0.4,0.33,0.5,0.44,0.48" style="fill:rgb(0,0,0);font-family:URWPalladioL-Roma;font-size:8.97px;stroke:none;">32. Childs, T.H.C.; Sekiya, K.; Tezuka, R.; Yamane, Y.; Dornfeld, D.; Lee, D.E.; Min, S.; Wright, P.K. Surface</text>
   <text y="575.578" x="98.05,103.475,108.693,111.302,115.104,120.323,124.617,128.3844,130.661,133.647,137.027,141.923,152.082,155.005,160.411,163.953,169.172,171.781,176.999,182.0222,184.226,188.709,193.928,199.3997,201.648,204.634,209.117,213.098,215.707,220.926,225.9492,228.152,235.63,238.24,241.163,246.3656,248.623,252.003,256.899,262.306,267.524,272.9957,275.244,280.463,285.358,289.16,293.455,298.9267,301.175,304.098,308.994,313.889,316.499,320.3" svgx:width="0.61,0.58,0.29,0.42,0.58,0.48,0.42,0.55,0.33,0.4,0.55,0.88,0.33,0.6,0.4,0.58,0.29,0.58,0.56,0.55,0.5,0.58,0.61,0.55,0.33,0.5,0.44,0.29,0.58,0.56,0.55,0.83,0.29,0.33,0.58,0.55,0.4,0.55,0.6,0.58,0.61,0.55,0.58,0.55,0.42,0.48,0.61,0.55,0.33,0.55,0.55,0.29,0.42,0.25" style="fill:rgb(0,0,0);font-family:URWPalladioL-Roma;font-size:8.97px;stroke:none;">ﬁnishes fromturning and facing with round nosed tools.</text>
   <text y="575.578" x="325.678,331.659,334.644,340.625,346.0967,348.345,354.819,359.804,364.789" svgx:width="0.67,0.33,0.67,0.61,0.55,0.72,0.56,0.56,0.25" style="fill:rgb(0,0,0);font-family:URWPalladioL-Ital;font-size:8.97px;stroke:none;">CIRP Ann.</text>
   <text y="575.578" x="370.168,374.651,379.134,383.618" svgx:width="0.5,0.5,0.5,0.5" style="fill:rgb(0,0,0);font-family:URWPalladioL-Bold;font-size:8.97px;stroke:none;">2008</text>
   <text y="575.578" x="388.101" svgx:width="0.25" style="fill:rgb(0,0,0);font-family:URWPalladioL-Roma;font-size:8.97px;stroke:none;">,</text>
   <text y="575.578" x="392.584,397.067" svgx:width="0.5,0.5" style="fill:rgb(0,0,0);font-family:URWPalladioL-Ital;font-size:8.97px;stroke:none;">57</text>
   <text y="575.578" x="401.551,403.7935,406.034,410.517,415.001,419.484,423.967,428.45,430.6925,433.83" svgx:width="0.25,0.55,0.5,0.5,0.5,0.5,0.5,0.25,0.55,0.33" style="fill:rgb(0,0,0);font-family:URWPalladioL-Roma;font-size:8.97px;stroke:none;">, 89–92. [</text>
   <text y="575.578" x="436.816,443.173,446.553,451.449,455.251,459.053,465.042,469.337" svgx:width="0.71,0.4,0.55,0.42,0.42,0.67,0.48,0.33" style="fill:rgb(8,117,183);font-family:URWPalladioL-Roma;font-size:8.97px;stroke:none;">CrossRef</text>
   <text y="575.578" x="472.323" svgx:width="0.33" style="fill:rgb(0,0,0);font-family:URWPalladioL-Roma;font-size:8.97px;stroke:none;">]</text>
   <text y="588.489" x="76.535,81.018,85.501,87.74350000000001,98.05,104.28,109.394,111.951,114.508,119.877,123.603,125.8455,127.996,132.724,134.921,142.231,144.428,150.658,152.855,155.0975,157.266,164.067,168.865,172.336,177.45,180.376,184.585,187.142,192.511,194.7535,196.905,203.706,205.903,208.1455,210.314,215.683,219.892,224.101,226.3435,228.494,235.295,237.492,239.7345,241.903,250.216,252.773,257.887,260.1295,262.28,266.894,269.09,271.3325,273.501,278.115,282.324,287.209,289.766,294.652,299.046,301.2885,303.439,309.819,312.015,314.2575,316.426,320.987,325.196,329.589,334.888,339.774,344.167,346.4095,348.57,354.439,356.636,358.87850000000003,361.047,366.082,370.476,378.235,382.628,387.742,391.951,394.19350000000003,396.345,401.213,403.45550000000003,405.606,410.993,416.107,420.41260000000005,422.513,425.07,430.184,435.526,440.825,445.034,450.148,454.05,458.35560000000004,460.464,465.262,468.2221,470.385,474.286,479.585,482.449,485.314,487.871,492.985,498.0082,500.068,504.277,509.645,514.531" svgx:width="0.5,0.5,0.25,0.55,0.71,0.58,0.29,0.29,0.61,0.42,0.25,0.55,0.61,0.25,0.83,0.25,0.71,0.25,0.25,0.55,0.77,0.55,0.4,0.58,0.33,0.48,0.29,0.61,0.25,0.55,0.77,0.25,0.25,0.55,0.61,0.48,0.48,0.25,0.55,0.77,0.25,0.25,0.55,0.95,0.29,0.58,0.25,0.55,0.52,0.25,0.25,0.55,0.52,0.48,0.56,0.29,0.56,0.5,0.25,0.55,0.73,0.25,0.25,0.55,0.61,0.48,0.5,0.6,0.56,0.5,0.25,0.55,0.67,0.25,0.25,0.55,0.67,0.5,0.88,0.5,0.58,0.48,0.25,0.55,0.67,0.25,0.55,0.61,0.58,0.48,0.55,0.29,0.58,0.61,0.6,0.48,0.58,0.44,0.48,0.55,0.55,0.33,0.55,0.44,0.6,0.33,0.33,0.29,0.58,0.56,0.55,0.48,0.61,0.56,0.48" style="fill:rgb(0,0,0);font-family:URWPalladioL-Roma;font-size:8.97px;stroke:none;">33. Childs, T.H.C.; Dornfeld, D.; Lee, D.; Min, S.; Sekiya, K.; Tezuka, R.; Yamane, Y. The inﬂuence of cutting edge</text>
   <text y="601.401" x="98.05,101.928,107.251,111.823,115.436,120.933,126.255,130.636,134.514,138.28140000000002,140.706,145.699,150.9016,153.345,157.223,162.738,166.35,169.396,173.969,178.029,182.3346,184.724,190.257,195.58,198.241,202.119,207.3216,209.765,212.426,217.62859999999998,220.063,223.109,227.682,231.742,234.404,239.727,244.7502,247.125,254.753,257.414,260.396,265.59860000000003,268.042,271.49,276.483,281.998,287.321,292.7927,295.232,300.555,305.548,309.426,313.807,319.2787,321.709,325.77,331.284,334.266,337.247,339.909,345.232,350.2552,352.63,355.612,360.606,365.599,368.261,372.138" svgx:width="0.42,0.58,0.5,0.4,0.6,0.58,0.48,0.42,0.42,0.55,0.55,0.58,0.55,0.42,0.6,0.4,0.33,0.5,0.44,0.48,0.55,0.61,0.58,0.29,0.42,0.58,0.55,0.29,0.58,0.55,0.33,0.5,0.44,0.29,0.58,0.56,0.55,0.83,0.29,0.33,0.58,0.55,0.4,0.55,0.6,0.58,0.61,0.55,0.58,0.55,0.42,0.48,0.61,0.55,0.44,0.6,0.33,0.33,0.29,0.58,0.56,0.55,0.33,0.55,0.55,0.29,0.42,0.25" style="fill:rgb(0,0,0);font-family:URWPalladioL-Roma;font-size:8.97px;stroke:none;">sharpness on surface ﬁnish in facing with round nosed cutting tools.</text>
   <text y="601.401" x="377.795,383.895,386.941,393.041,398.5127,400.943,403.988,406.2305,408.598,417.231,421.292,426.377,431.462,434.005,436.2475,439.657,444.742,448.464,451.007,453.2495,456.659,461.25,464.807,468.53,473.103,478.188,482.248,484.791" svgx:width="0.67,0.33,0.67,0.61,0.55,0.33,0.25,0.55,0.94,0.44,0.56,0.56,0.28,0.25,0.55,0.56,0.41,0.28,0.25,0.55,0.61,0.39,0.41,0.5,0.56,0.44,0.28,0.25" style="fill:rgb(0,0,0);font-family:URWPalladioL-Ital;font-size:8.97px;stroke:none;">CIRP J. Manuf. Sci. Technol.</text>
   <text y="601.401" x="490.446,494.929,499.412,503.896" svgx:width="0.5,0.5,0.5,0.5" style="fill:rgb(0,0,0);font-family:URWPalladioL-Bold;font-size:8.97px;stroke:none;">2008</text>
   <text y="601.401" x="508.378" svgx:width="0.25" style="fill:rgb(0,0,0);font-family:URWPalladioL-Roma;font-size:8.97px;stroke:none;">,</text>
   <text y="601.401" x="513.002" svgx:width="0.5" style="fill:rgb(0,0,0);font-family:URWPalladioL-Ital;font-size:8.97px;stroke:none;">1</text>
   <text y="601.401" x="517.575" svgx:width="0.25" style="fill:rgb(0,0,0);font-family:URWPalladioL-Roma;font-size:8.97px;stroke:none;">,</text>
   <text y="614.312" x="98.05,102.533,107.016,111.5,115.983,120.466,122.7085,125.846" svgx:width="0.5,0.5,0.5,0.5,0.5,0.25,0.55,0.33" style="fill:rgb(0,0,0);font-family:URWPalladioL-Roma;font-size:8.97px;stroke:none;">70–75. [</text>
   <text y="614.312" x="128.832,135.189,138.569,143.465,147.267,151.068,157.058,161.353" svgx:width="0.71,0.4,0.55,0.42,0.42,0.67,0.48,0.33" style="fill:rgb(8,117,183);font-family:URWPalladioL-Roma;font-size:8.97px;stroke:none;">CrossRef</text>
   <text y="614.312" x="164.339" svgx:width="0.33" style="fill:rgb(0,0,0);font-family:URWPalladioL-Roma;font-size:8.97px;stroke:none;">]</text>
   <text y="627.224" x="76.535,81.018,85.501,87.74350000000001,98.05,103.218,108.62,113.098,118.312,120.5545,122.781,128.756,130.995,133.978,136.218,138.4605,140.687,146.662,151.875,156.766,162.167,164.4095,166.637,175.111,177.35,179.5925,181.829,188.762,193.653,198.866,203.846,206.0885,208.316,213.019,215.2615,217.489" svgx:width="0.5,0.5,0.25,0.55,0.67,0.6,0.5,0.58,0.25,0.55,0.67,0.25,0.33,0.25,0.25,0.55,0.67,0.58,0.55,0.6,0.25,0.55,0.95,0.25,0.25,0.55,0.77,0.55,0.58,0.56,0.25,0.55,0.52,0.25,0.55,0.61" style="fill:rgb(0,0,0);font-family:URWPalladioL-Roma;font-size:8.97px;stroke:none;">34. Yuan, Z.J.; Zhou, M.; Dong, S. E</text>
   <text y="627.224" x="222.959" svgx:width="0.61" style="fill:rgb(0,0,0);font-family:Rpxr;font-size:8.97px;stroke:none;">ﬀ</text>
   <text y="627.224" x="228.406,232.697,236.674,239.63410000000002,241.824,246.715,249.67510000000001,251.928,257.401,260.008,264.487,272.396,277.287,282.5,287.9717,290.203,293.123,298.014,302.905,305.50629999999995,307.742,311.54,316.753,321.232,324.77,330.154,335.367,339.657,343.455,347.2224,349.484,354.374,359.57660000000004,361.818,369.727,372.334,377.547,380.154,388.063,393.465,403.604,407.582,412.983,415.903,418.823,421.43,426.643,431.66619999999995,433.854,436.774,441.987,444.594,448.571,453.551,458.764,463.055,466.853,470.6204,472.881,477.36,482.573,488.0447,490.277,494.075,499.476,503.014,505.997,510.476,514.453" svgx:width="0.48,0.44,0.33,0.55,0.55,0.33,0.55,0.61,0.29,0.5,0.88,0.55,0.58,0.61,0.55,0.33,0.55,0.55,0.29,0.55,0.42,0.58,0.5,0.4,0.6,0.58,0.48,0.42,0.42,0.55,0.55,0.58,0.55,0.88,0.29,0.58,0.29,0.88,0.6,0.88,0.44,0.6,0.33,0.33,0.29,0.58,0.56,0.55,0.33,0.58,0.29,0.44,0.56,0.58,0.48,0.42,0.42,0.55,0.5,0.58,0.61,0.55,0.42,0.6,0.4,0.33,0.5,0.44,0.48" style="fill:rgb(0,0,0);font-family:URWPalladioL-Roma;font-size:8.97px;stroke:none;">ect of diamond tool sharpness on minimumcutting thickness and surface</text>
   <text y="640.136" x="98.05,100.688,105.964,108.919,113.261,118.301,121.882,124.52,127.475,132.4982,134.763,138.788,144.254,147.21,150.165,152.803,158.079,163.1022,165.367,169.21,174.677,178.257,181.276,185.809,189.833,194.1386,196.424,199.062,204.337,207.293,211.635,216.675,220.256,222.894,225.849,230.8722,233.137,235.775,240.9776,243.299,248.765,251.403,254.358,257.939,262.472,267.92,271.337,275.679,279.704,282.342,286.186,288.824,293.773,298.97560000000004,301.297,309.301,313.834,317.859,323.135,325.773,331.048,333.686,338.962,344.002" svgx:width="0.29,0.58,0.33,0.48,0.56,0.4,0.29,0.33,0.56,0.55,0.44,0.6,0.33,0.33,0.29,0.58,0.56,0.55,0.42,0.6,0.4,0.33,0.5,0.44,0.48,0.55,0.29,0.58,0.33,0.48,0.56,0.4,0.29,0.33,0.56,0.55,0.29,0.58,0.55,0.6,0.29,0.33,0.4,0.5,0.6,0.4,0.48,0.44,0.29,0.42,0.29,0.55,0.58,0.55,0.88,0.5,0.44,0.58,0.29,0.58,0.29,0.58,0.56,0.25" style="fill:rgb(0,0,0);font-family:URWPalladioL-Roma;font-size:8.97px;stroke:none;">integrity cutting surface integrity in ultraprecision machining.</text>
   <text y="640.136" x="349.422,352.441,354.6835,356.955,365.512,369.537,372.556,376.082,378.947,381.1895,384.368,389.906,393.27,397.294,400.984,404.51,408.037,411.563,413.8055,416.984,421.534,425.061,428.75,433.283,438.323,442.348,444.868" svgx:width="0.33,0.25,0.55,0.94,0.44,0.33,0.39,0.39,0.25,0.55,0.61,0.39,0.44,0.41,0.39,0.39,0.39,0.25,0.55,0.61,0.39,0.41,0.5,0.56,0.44,0.28,0.25" style="fill:rgb(0,0,0);font-family:URWPalladioL-Ital;font-size:8.97px;stroke:none;">J. Mater. Process. Technol.</text>
   <text y="640.136" x="450.287,454.77,459.253,463.737" svgx:width="0.5,0.5,0.5,0.5" style="fill:rgb(0,0,0);font-family:URWPalladioL-Bold;font-size:8.97px;stroke:none;">1996</text>
   <text y="640.136" x="468.219" svgx:width="0.25" style="fill:rgb(0,0,0);font-family:URWPalladioL-Roma;font-size:8.97px;stroke:none;">,</text>
   <text y="640.136" x="472.735,477.267" svgx:width="0.5,0.5" style="fill:rgb(0,0,0);font-family:URWPalladioL-Ital;font-size:8.97px;stroke:none;">62</text>
   <text y="640.136" x="481.8,484.0425,486.314,490.847,495.379,499.912,504.444,508.977,513.509,518.042" svgx:width="0.25,0.55,0.5,0.5,0.5,0.5,0.5,0.5,0.5,0.25" style="fill:rgb(0,0,0);font-family:URWPalladioL-Roma;font-size:8.97px;stroke:none;">, 327–330.</text>
   <text y="653.047" x="98.05" svgx:width="0.33" style="fill:rgb(0,0,0);font-family:URWPalladioL-Roma;font-size:8.97px;stroke:none;">[</text>
   <text y="653.047" x="101.036,107.393,110.773,115.669,119.471,123.272,129.262,133.557" svgx:width="0.71,0.4,0.55,0.42,0.42,0.67,0.48,0.33" style="fill:rgb(8,117,183);font-family:URWPalladioL-Roma;font-size:8.97px;stroke:none;">CrossRef</text>
   <text y="653.047" x="136.543" svgx:width="0.33" style="fill:rgb(0,0,0);font-family:URWPalladioL-Roma;font-size:8.97px;stroke:none;">]</text>
   <text y="665.959" x="76.535,81.018,85.501,87.74350000000001,98.05,103.638,106.299,111.814,114.0565,116.881,122.981,125.268,127.51050000000001,130.609,137.688,142.068,147.684,152.677,155.622,157.86450000000002,160.689,166.798,169.085,174.673,176.959,179.2015,182.3,188.94,193.513,199.01,204.003,208.997,211.951,214.1935,217.018,221.819,224.106,231.084,233.3265,236.16,243.275,248.4776,251.378,255.951,261.274,265.847,268.508,273.593,276.575,279.236,283.297,287.87,290.4713,293.311,301.387,306.381,311.969,316.349,318.95029999999997,321.8,324.846,329.839,333.427,336.232,339.214,344.537,348.8426,351.707,357.194,360.651,365.032,370.62,373.282,377.342,380.324,382.985,387.979,393.1816,396.082,401.075,404.0351,406.91,414.986,417.647,422.97,425.632,433.707,439.222,447.1156,450.078,454.139,459.462,462.123,467.505,470.4,473.382,478.704,481.366,485.426,490.512,495.834,500.215,504.093,507.8604,510.76,513.422" svgx:width="0.5,0.5,0.25,0.55,0.61,0.29,0.6,0.25,0.55,0.67,0.25,0.25,0.55,0.77,0.48,0.72,0.55,0.4,0.25,0.55,0.67,0.25,0.61,0.25,0.25,0.55,0.73,0.5,0.6,0.55,0.55,0.4,0.25,0.55,0.52,0.25,0.76,0.25,0.55,0.78,0.58,0.55,0.5,0.58,0.5,0.29,0.56,0.33,0.29,0.44,0.5,0.29,0.55,0.88,0.55,0.61,0.48,0.29,0.55,0.33,0.55,0.4,0.55,0.33,0.58,0.48,0.55,0.6,0.4,0.48,0.61,0.29,0.44,0.33,0.29,0.55,0.58,0.55,0.55,0.33,0.55,0.88,0.29,0.58,0.29,0.88,0.6,0.88,0.55,0.44,0.58,0.29,0.6,0.55,0.33,0.58,0.29,0.44,0.56,0.58,0.48,0.42,0.42,0.55,0.29,0.58" style="fill:rgb(0,0,0);font-family:URWPalladioL-Roma;font-size:8.97px;stroke:none;">35. Liu, X.; DeVor, R.E.; Kapoor, S.G. An analytical model for the prediction of minimum chip thickness in</text>
   <text y="678.871" x="98.05,105.967,108.577,112.558,115.938,120.834,128.751,133.234,137.215,142.434,145.043,150.261,152.871,158.089,163.074" svgx:width="0.88,0.29,0.44,0.4,0.55,0.88,0.5,0.44,0.58,0.29,0.58,0.29,0.58,0.56,0.25" style="fill:rgb(0,0,0);font-family:URWPalladioL-Roma;font-size:8.97px;stroke:none;">micromachining.</text>
   <text y="678.871" x="168.454,172.937,176.425,180.406,185.392,188.879,191.1215,194.259,200.733,205.718,214.183,219.6547,221.903,224.889,227.13150000000002,229.372,237.836,241.817,246.802,251.788,254.28,256.5225,259.66,264.646,268.295,270.788,273.0305,276.167,281.646,286.631,291.114" svgx:width="0.61,0.39,0.44,0.56,0.39,0.25,0.55,0.72,0.56,0.94,0.61,0.55,0.33,0.25,0.55,0.94,0.44,0.56,0.56,0.28,0.25,0.55,0.56,0.41,0.28,0.25,0.55,0.61,0.56,0.5,0.25" style="fill:rgb(0,0,0);font-family:URWPalladioL-Ital;font-size:8.97px;stroke:none;">Trans. ASME J. Manuf. Sci. Eng.</text>
   <text y="678.871" x="296.492,300.975,305.458,309.942" svgx:width="0.5,0.5,0.5,0.5" style="fill:rgb(0,0,0);font-family:URWPalladioL-Bold;font-size:8.97px;stroke:none;">2006</text>
   <text y="678.871" x="314.425" svgx:width="0.25" style="fill:rgb(0,0,0);font-family:URWPalladioL-Roma;font-size:8.97px;stroke:none;">,</text>
   <text y="678.871" x="318.908,323.391,327.874" svgx:width="0.5,0.5,0.5" style="fill:rgb(0,0,0);font-family:URWPalladioL-Ital;font-size:8.97px;stroke:none;">128</text>
   <text y="678.871" x="332.358,334.6005,336.841,341.324,345.808,350.291,354.774,359.257,363.741,368.224,370.4665,373.604" svgx:width="0.25,0.55,0.5,0.5,0.5,0.5,0.5,0.5,0.5,0.25,0.55,0.33" style="fill:rgb(0,0,0);font-family:URWPalladioL-Roma;font-size:8.97px;stroke:none;">, 474–481. [</text>
   <text y="678.871" x="376.589,382.947,386.327,391.223,395.024,398.826,404.816,409.111" svgx:width="0.71,0.4,0.55,0.42,0.42,0.67,0.48,0.33" style="fill:rgb(8,117,183);font-family:URWPalladioL-Roma;font-size:8.97px;stroke:none;">CrossRef</text>
   <text y="678.871" x="412.096" svgx:width="0.33" style="fill:rgb(0,0,0);font-family:URWPalladioL-Roma;font-size:8.97px;stroke:none;">]</text>
   <text y="691.782" x="76.535,81.018,85.501,87.74350000000001,98.05,101.014,105.905,110.303,117.639,122.037,124.27950000000001,126.479,133.78,135.979,138.22150000000002,140.421,145.038,150.158,152.717,160.484,164.882,170.257,174.655,176.8975,179.097,183.715,185.914,188.1565,190.347,194.912,199.31,204.429,208.827,213.718,218.116,220.35850000000002,222.558,229.876,232.075,234.3175,236.508,243.422,248.541,256.308,261.111,264.585,267.145,269.3875,271.587,278.298,280.5405,282.732,289.575,294.7776,296.937,301.335,304.203,309.005,316.772,319.332,323.061,325.929,328.489,332.4358,334.628,339.026,344.146,348.544,351.103,355.994,359.723,362.283,366.0504,368.256,373.058,376.0181,378.221,383.341,387.739,392.858,397.661,405.428,409.641,412.508,415.983,418.543,422.4898,424.682,428.588,433.707,436.267,441.649,443.796,447.103,451.317,459.083,463.886,468.856,473.254,475.8553,478.057,482.455,486.2224,488.418" svgx:width="0.5,0.5,0.25,0.55,0.34,0.56,0.5,0.83,0.5,0.25,0.55,0.83,0.25,0.25,0.55,0.52,0.58,0.29,0.88,0.5,0.61,0.5,0.25,0.55,0.52,0.25,0.25,0.55,0.61,0.5,0.58,0.5,0.56,0.5,0.25,0.55,0.83,0.25,0.25,0.55,0.79,0.58,0.88,0.55,0.4,0.29,0.25,0.55,0.76,0.25,0.55,0.78,0.58,0.55,0.5,0.33,0.55,0.88,0.29,0.42,0.33,0.29,0.44,0.55,0.5,0.58,0.5,0.29,0.56,0.42,0.29,0.42,0.55,0.55,0.33,0.55,0.58,0.5,0.58,0.55,0.88,0.48,0.33,0.4,0.29,0.44,0.55,0.44,0.58,0.29,0.6,0.55,0.4,0.48,0.88,0.55,0.56,0.5,0.29,0.55,0.5,0.42,0.55,0.5" style="fill:rgb(0,0,0);font-family:URWPalladioL-Roma;font-size:8.97px;stroke:none;">36. Ikawa, N.; Shimada, S.; Tanaka, H.; Ohmori, G. An atomistic analysis of nanometric chip removal as a</text>
   <text y="691.782" x="492.819" svgx:width="0.61" style="fill:rgb(0,0,0);font-family:Rpxr;font-size:8.97px;stroke:none;">ﬀ</text>
   <text y="691.782" x="498.167,502.38,506.286,509.153,513.367" svgx:width="0.48,0.44,0.33,0.48,0.61" style="fill:rgb(0,0,0);font-family:URWPalladioL-Roma;font-size:8.97px;stroke:none;">ected</text>
   <text y="704.694" x="98.05,103.008,108.0312,110.235,113.158,118.054,122.95,125.559,128.545,136.023,140.918,144.46,149.4832,151.687,154.296,159.515,162.438,166.733,170.274,174.758,178.739,181.662,184.271,189.167,194.3696,196.627,199.236,204.43859999999998,206.696,212.174,214.784,219.267,227.184,232.08,237.298,242.7697,245.018,247.941,253.348,256.89,262.108,264.717,269.936,274.921" svgx:width="0.55,0.56,0.55,0.33,0.55,0.55,0.29,0.33,0.83,0.55,0.4,0.56,0.55,0.29,0.58,0.33,0.48,0.4,0.5,0.44,0.33,0.29,0.55,0.58,0.55,0.29,0.58,0.55,0.61,0.29,0.5,0.88,0.55,0.58,0.61,0.55,0.33,0.6,0.4,0.58,0.29,0.58,0.56,0.25" style="fill:rgb(0,0,0);font-family:URWPalladioL-Roma;font-size:8.97px;stroke:none;">by tool-work interaction in diamond turning.</text>
   <text y="704.694" x="280.299,286.28,289.265,295.246,300.7177,302.966,309.44,314.425,319.41" svgx:width="0.67,0.33,0.67,0.61,0.55,0.72,0.56,0.56,0.25" style="fill:rgb(0,0,0);font-family:URWPalladioL-Ital;font-size:8.97px;stroke:none;">CIRP Ann.</text>
   <text y="704.694" x="324.79,329.273,333.756,338.24" svgx:width="0.5,0.5,0.5,0.5" style="fill:rgb(0,0,0);font-family:URWPalladioL-Bold;font-size:8.97px;stroke:none;">1991</text>
   <text y="704.694" x="342.722" svgx:width="0.25" style="fill:rgb(0,0,0);font-family:URWPalladioL-Roma;font-size:8.97px;stroke:none;">,</text>
   <text y="704.694" x="347.205,351.688" svgx:width="0.5,0.5" style="fill:rgb(0,0,0);font-family:URWPalladioL-Ital;font-size:8.97px;stroke:none;">40</text>
   <text y="704.694" x="356.172,358.41450000000003,360.655,365.138,369.622,374.105,378.588,383.071,387.555,392.038,394.2805,397.418" svgx:width="0.25,0.55,0.5,0.5,0.5,0.5,0.5,0.5,0.5,0.25,0.55,0.33" style="fill:rgb(0,0,0);font-family:URWPalladioL-Roma;font-size:8.97px;stroke:none;">, 551–554. [</text>
   <text y="704.694" x="400.403,406.761,410.141,415.037,418.838,422.64,428.63,432.924" svgx:width="0.71,0.4,0.55,0.42,0.42,0.67,0.48,0.33" style="fill:rgb(8,117,183);font-family:URWPalladioL-Roma;font-size:8.97px;stroke:none;">CrossRef</text>
   <text y="704.694" x="435.91" svgx:width="0.33" style="fill:rgb(0,0,0);font-family:URWPalladioL-Roma;font-size:8.97px;stroke:none;">]</text>
   <text y="717.605" x="76.535,81.018,85.501,87.74350000000001,98.05,106.626,111.158,113.796,118.138,123.178,125.816,130.349,135.625,137.8675,140.13,148.705,150.972,153.21450000000002,155.468,164.043,168.993,172.836,175.792,180.741,183.76,188.292,190.5345,192.798,201.373,203.639,210.556,212.822,215.0645,217.328,222.803,227.335,230.916,235.956,238.1985,240.453,245.212,247.478,252.237,254.503,256.7455,259.009,262.027,267.493,272.769,275.0115,277.275,285.85,288.116,293.655,295.921,302.838,305.08050000000003,307.334,315.91,320.859,326.398,330.74,333.378,336.016,341.292,346.31519999999995,348.571,353.521,356.4811,358.769,366.774,369.412,374.688,377.325,385.33,390.796,401.04,406.506,411.782,415.807,421.273,424.23310000000004,426.458,430.483,435.759,438.397,443.779,446.084,449.039,454.315,456.953,460.978,466.018,471.294,475.636,479.479,483.2464,485.553,488.191,493.3936,495.706,503.71,506.348,510.373,513.79" svgx:width="0.5,0.5,0.25,0.55,0.95,0.5,0.29,0.48,0.56,0.29,0.5,0.58,0.25,0.55,0.95,0.25,0.25,0.55,0.95,0.55,0.42,0.33,0.55,0.33,0.5,0.25,0.55,0.95,0.25,0.76,0.25,0.25,0.55,0.6,0.5,0.4,0.56,0.25,0.55,0.52,0.25,0.52,0.25,0.25,0.55,0.33,0.6,0.58,0.25,0.55,0.95,0.25,0.61,0.25,0.76,0.25,0.55,0.95,0.55,0.61,0.48,0.29,0.29,0.58,0.56,0.55,0.55,0.33,0.55,0.88,0.29,0.58,0.29,0.88,0.6,0.88,0.6,0.58,0.44,0.6,0.33,0.55,0.44,0.58,0.29,0.6,0.55,0.33,0.58,0.29,0.44,0.56,0.58,0.48,0.42,0.42,0.55,0.29,0.58,0.55,0.88,0.29,0.44,0.4,0.55" style="fill:rgb(0,0,0);font-family:URWPalladioL-Roma;font-size:8.97px;stroke:none;">37. Malekian, M.; Mostofa, M.G.; Park, S.S.; Jun, M.B.G. Modeling of minimumuncut chip thickness in micro</text>
   <text y="730.517" x="98.05,105.967,110.451,114.432,119.65,122.259,127.478,130.087,135.305,140.3282,142.532,147.428,150.3881,152.655,157.139,159.748,165.155,173.072,175.681,180.9,186.306,194.224" svgx:width="0.88,0.5,0.44,0.58,0.29,0.58,0.29,0.58,0.56,0.55,0.55,0.33,0.55,0.5,0.29,0.6,0.88,0.29,0.58,0.6,0.88,0.25" style="fill:rgb(0,0,0);font-family:URWPalladioL-Roma;font-size:8.97px;stroke:none;">machining of aluminum.</text>
   <text y="730.517" x="199.603,202.589,204.8315,207.072,215.536,219.517,222.503,225.991,228.816,231.0585,234.195,239.674,243.0,246.981,250.631,254.119,257.607,261.095,263.33750000000003,266.474,270.958,274.446,278.095,282.578,287.563,291.544,294.037" svgx:width="0.33,0.25,0.55,0.94,0.44,0.33,0.39,0.39,0.25,0.55,0.61,0.39,0.44,0.41,0.39,0.39,0.39,0.25,0.55,0.61,0.39,0.41,0.5,0.56,0.44,0.28,0.25" style="fill:rgb(0,0,0);font-family:URWPalladioL-Ital;font-size:8.97px;stroke:none;">J. Mater. Process. Technol.</text>
   <text y="730.517" x="299.415,303.898,308.381,312.865" svgx:width="0.5,0.5,0.5,0.5" style="fill:rgb(0,0,0);font-family:URWPalladioL-Bold;font-size:8.97px;stroke:none;">2012</text>
   <text y="730.517" x="317.348" svgx:width="0.25" style="fill:rgb(0,0,0);font-family:URWPalladioL-Roma;font-size:8.97px;stroke:none;">,</text>
   <text y="730.517" x="321.831,326.314,330.797" svgx:width="0.5,0.5,0.5" style="fill:rgb(0,0,0);font-family:URWPalladioL-Ital;font-size:8.97px;stroke:none;">212</text>
   <text y="730.517" x="335.281,337.5235,339.764,344.247,348.731,353.214,357.697,362.18,366.664,371.147,373.3895,376.527" svgx:width="0.25,0.55,0.5,0.5,0.5,0.5,0.5,0.5,0.5,0.25,0.55,0.33" style="fill:rgb(0,0,0);font-family:URWPalladioL-Roma;font-size:8.97px;stroke:none;">, 553–559. [</text>
   <text y="730.517" x="379.512,385.87,389.25,394.146,397.947,401.749,407.739,412.034" svgx:width="0.71,0.4,0.55,0.42,0.42,0.67,0.48,0.33" style="fill:rgb(8,117,183);font-family:URWPalladioL-Roma;font-size:8.97px;stroke:none;">CrossRef</text>
   <text y="730.517" x="415.019" svgx:width="0.33" style="fill:rgb(0,0,0);font-family:URWPalladioL-Roma;font-size:8.97px;stroke:none;">]</text>
   <text y="743.429" x="76.535,81.018,85.501,87.74350000000001,98.05,102.767,107.672,112.901,115.1435,117.393,122.11,124.356,132.855,135.101,137.3435,139.594,145.083,147.697,155.631,157.8735,160.114,167.589,169.835,174.552,176.798,179.0405,181.29,188.28,193.509,198.737,200.9795,203.23,206.221,208.467,215.942,218.1845,220.426" svgx:width="0.5,0.5,0.25,0.55,0.52,0.55,0.58,0.25,0.55,0.52,0.25,0.95,0.25,0.25,0.55,0.61,0.29,0.88,0.25,0.55,0.83,0.25,0.52,0.25,0.25,0.55,0.78,0.58,0.58,0.25,0.55,0.33,0.25,0.83,0.25,0.55,0.61" style="fill:rgb(0,0,0);font-family:URWPalladioL-Roma;font-size:8.97px;stroke:none;">38. Son, S.M.; Lim, H.S.; Ahn, J.H. E</text>
   <text y="743.429" x="225.919" svgx:width="0.61" style="fill:rgb(0,0,0);font-family:Rpxr;font-size:8.97px;stroke:none;">ﬀ</text>
   <text y="743.429" x="231.382,235.686,239.675,242.603,246.37040000000002,248.659,253.564,256.5241,258.793,261.722,266.951,271.25660000000005,273.501,276.492,280.041,282.656,286.645,289.574,292.188,297.093,302.29560000000004,304.568,308.557,313.463" svgx:width="0.48,0.44,0.33,0.42,0.55,0.55,0.33,0.55,0.33,0.58,0.48,0.55,0.33,0.4,0.29,0.44,0.33,0.29,0.55,0.58,0.55,0.44,0.55,0.48" style="fill:rgb(0,0,0);font-family:URWPalladioL-Roma;font-size:8.97px;stroke:none;">ects of the friction coe</text>
   <text y="743.429" x="317.763" svgx:width="0.92" style="fill:rgb(0,0,0);font-family:Rpxr;font-size:8.97px;stroke:none;">ﬃ</text>
   <text y="743.429" x="326.02,330.009,332.623,336.927,342.156,345.1161,347.331,352.236,357.4386,359.702,362.631,367.86,372.16560000000004,374.41,382.343,384.957,390.186,392.801,400.734,406.151,416.331,420.32,425.737,428.666,431.595,434.209,439.438,444.46119999999996,446.671,449.6,454.828,457.443,461.432,466.427,471.656,475.96,479.769,483.5364,485.824,488.439,493.64160000000004,495.914,503.847,506.461,510.45,513.838" svgx:width="0.44,0.29,0.48,0.58,0.33,0.55,0.55,0.58,0.55,0.33,0.58,0.48,0.55,0.88,0.29,0.58,0.29,0.88,0.6,0.88,0.44,0.6,0.33,0.33,0.29,0.58,0.56,0.55,0.33,0.58,0.29,0.44,0.56,0.58,0.48,0.42,0.42,0.55,0.29,0.58,0.55,0.88,0.29,0.44,0.4,0.55" style="fill:rgb(0,0,0);font-family:URWPalladioL-Roma;font-size:8.97px;stroke:none;">cient on the minimumcutting thickness in micro</text>
   <text y="756.34" x="98.05,102.031,107.438,110.361,113.284,115.893,121.112,126.097" svgx:width="0.44,0.6,0.33,0.33,0.29,0.58,0.56,0.25" style="fill:rgb(0,0,0);font-family:URWPalladioL-Roma;font-size:8.97px;stroke:none;">cutting.</text>
   <text y="756.34" x="131.477,134.463,139.448,142.434,144.6765,147.814,150.8,153.04250000000002,155.283,163.747,167.728,171.377,175.861,178.1035,181.241,185.724,189.705,193.686,196.179,199.6773,201.908,210.372,214.353,219.339,224.324,226.817" svgx:width="0.33,0.56,0.33,0.25,0.55,0.33,0.25,0.55,0.94,0.44,0.41,0.5,0.25,0.55,0.61,0.44,0.44,0.28,0.39,0.55,0.94,0.44,0.56,0.56,0.28,0.25" style="fill:rgb(0,0,0);font-family:URWPalladioL-Ital;font-size:8.97px;stroke:none;">Int. J. Mach. Tools Manuf.</text>
   <text y="756.34" x="232.195,236.678,241.161,245.645" svgx:width="0.5,0.5,0.5,0.5" style="fill:rgb(0,0,0);font-family:URWPalladioL-Bold;font-size:8.97px;stroke:none;">2005</text>
   <text y="756.34" x="250.128" svgx:width="0.25" style="fill:rgb(0,0,0);font-family:URWPalladioL-Roma;font-size:8.97px;stroke:none;">,</text>
   <text y="756.34" x="254.611,259.094" svgx:width="0.5,0.5" style="fill:rgb(0,0,0);font-family:URWPalladioL-Ital;font-size:8.97px;stroke:none;">45</text>
   <text y="756.34" x="263.577,265.8195,268.06,272.543,277.027,281.51,285.993,290.476,294.959,299.443,301.6855,304.823" svgx:width="0.25,0.55,0.5,0.5,0.5,0.5,0.5,0.5,0.5,0.25,0.55,0.33" style="fill:rgb(0,0,0);font-family:URWPalladioL-Roma;font-size:8.97px;stroke:none;">, 529–535. [</text>
   <text y="756.34" x="307.808,314.166,317.546,322.441,326.243,330.045,336.035,340.329" svgx:width="0.71,0.4,0.55,0.42,0.42,0.67,0.48,0.33" style="fill:rgb(8,117,183);font-family:URWPalladioL-Roma;font-size:8.97px;stroke:none;">CrossRef</text>
   <text y="756.34" x="343.315" svgx:width="0.33" style="fill:rgb(0,0,0);font-family:URWPalladioL-Roma;font-size:8.97px;stroke:none;">]</text>
  </g>
 </g>
</svg>
