<?xml version="1.0" encoding="UTF-8"?>
<svg height="769.809" width="530.485" xmlns="http://www.w3.org/2000/svg">
 <g id="page" xmlns:svgx="http://www.xml-cml.org/schema/svgx">
  <g begin="text">
   <text y="62.979" x="76.535,84.059,87.598,89.813,92.914,96.157,100.589,102.804,105.905" svgx:width="0.94,0.44,0.28,0.39,0.41,0.56,0.28,0.39,0.39" style="fill:rgb(0,0,0);font-family:URWPalladioL-Ital;font-size:7.97px;stroke:none;">Molecules</text>
   <text y="62.979" x="110.998,114.983,118.968,122.953" svgx:width="0.5,0.5,0.5,0.5" style="fill:rgb(0,0,0);font-family:URWPalladioL-Bold;font-size:7.97px;stroke:none;">2019</text>
   <text y="62.979" x="126.938" svgx:width="0.25" style="fill:rgb(0,0,0);font-family:URWPalladioL-Roma;font-size:7.97px;stroke:none;">,</text>
   <text y="62.979" x="130.923,134.908" svgx:width="0.5,0.5" style="fill:rgb(0,0,0);font-family:URWPalladioL-Ital;font-size:7.97px;stroke:none;">24</text>
   <text y="62.979" x="138.893,140.8855,142.878,146.863,150.848,154.833,158.818,495.794,499.779,501.772,506.123,508.7531,510.77,514.755" svgx:width="0.25,0.55,0.5,0.5,0.5,0.5,0.55,0.5,0.55,0.55,0.33,0.55,0.5,0.5" style="fill:rgb(0,0,0);font-family:URWPalladioL-Roma;font-size:7.97px;stroke:none;">, 1402 2 of 18</text>
   <text y="97.848" x="76.535,82.449,87.53,93.6056,96.249,101.229,103.83,109.48,112.437,117.985,123.605,128.686,131.5744,134.153,137.11,146.083,152.19,157.271,161.783,165.0698,167.606,173.154,178.9308,181.568,184.881,190.795,195.5758,198.172,201.556,207.105,212.653,218.7286,221.372,224.329,230.243,236.452,242.58,246.888,250.201,254.215,258.757,261.247,263.808,267.192,272.74,278.288,284.3636,287.007,293.115,296.946,302.494,308.703,314.83,319.342,322.655,325.612,331.161,337.075,339.565,342.125,346.434,352.561,358.669,364.776,367.733,373.3106,375.893,380.405,386.319,391.4,394.357,400.271,404.58,407.07,409.63,414.711,420.625,426.7006,429.334,433.846,439.394,443.408,447.249,452.117,456.426,462.533,468.081,473.995,480.204,483.161,489.076,494.65360000000004,497.225,500.183,505.05,510.7,515.781" svgx:width="0.58,0.5,0.61,0.55,0.5,0.55,0.56,0.29,0.55,0.55,0.5,0.29,0.55,0.29,0.88,0.6,0.5,0.44,0.33,0.55,0.55,0.58,0.55,0.33,0.58,0.48,0.55,0.33,0.55,0.55,0.61,0.55,0.29,0.58,0.61,0.6,0.42,0.33,0.4,0.56,0.25,0.55,0.33,0.55,0.55,0.61,0.55,0.6,0.4,0.55,0.61,0.6,0.44,0.33,0.29,0.55,0.58,0.25,0.55,0.42,0.6,0.6,0.6,0.29,0.56,0.55,0.44,0.58,0.5,0.29,0.58,0.42,0.25,0.55,0.5,0.58,0.61,0.55,0.44,0.55,0.4,0.4,0.48,0.42,0.6,0.55,0.58,0.61,0.29,0.58,0.56,0.55,0.29,0.48,0.56,0.5,0.29" style="fill:rgb(0,0,0);font-family:URWPalladioL-Roma;font-size:9.96px;stroke:none;">had a global impact on the food industry, food production, supply chains, and corresponding legal</text>
   <text y="111.358" x="76.535,80.22,84.901,90.335,96.228,99.072,103.959,107.145,109.989,115.325,121.013,125.1962,127.64" svgx:width="0.4,0.48,0.56,0.6,0.29,0.5,0.33,0.29,0.55,0.58,0.42,0.55,0.33" style="fill:rgb(0,0,0);font-family:URWPalladioL-Roma;font-size:9.96px;stroke:none;">regulations [</text>
   <text y="111.358" x="130.893" svgx:width="0.5" style="fill:rgb(8,117,183);font-family:URWPalladioL-Roma;font-size:9.96px;stroke:none;">7</text>
   <text y="111.358" x="135.874" svgx:width="0.25" style="fill:rgb(0,0,0);font-family:URWPalladioL-Roma;font-size:9.96px;stroke:none;">,</text>
   <text y="111.358" x="138.318" svgx:width="0.5" style="fill:rgb(8,117,183);font-family:URWPalladioL-Roma;font-size:9.96px;stroke:none;">8</text>
   <text y="111.358" x="143.299,146.554,149.044,152.085,155.379,158.6658,161.047,165.191,168.377,172.062,177.398,183.086,188.52,191.364,196.9416,199.281,203.962,208.301,213.989,219.326,224.007,230.0826,232.461,235.305,241.08180000000002,243.475,246.662,252.35,257.1308,259.523,265.436,270.117,272.962,279.0376,281.415,286.752,290.03880000000004,292.489,295.743,301.079,306.416,312.4916,314.87,320.343,326.236,331.123,333.967,336.811,339.997,345.57460000000003,347.923,352.262,357.598,363.286,366.473,370.147,375.484,378.328,380.818,383.263,386.107,390.789,395.675,401.647,404.481,410.169,415.7466,418.095,421.281,426.759,429.1,434.08000000000004,436.469,440.613,443.799,447.483,452.82,458.508,464.0856,466.424,470.568,473.754,476.598,485.228,491.121,493.965,499.859,504.0422,506.485,509.739,515.076" svgx:width="0.33,0.25,0.55,0.34,0.33,0.55,0.42,0.33,0.4,0.55,0.58,0.56,0.29,0.56,0.55,0.48,0.44,0.58,0.55,0.48,0.61,0.55,0.29,0.58,0.55,0.33,0.58,0.48,0.55,0.61,0.48,0.29,0.61,0.55,0.55,0.33,0.55,0.33,0.55,0.55,0.61,0.55,0.56,0.6,0.5,0.29,0.29,0.33,0.56,0.55,0.44,0.55,0.58,0.33,0.4,0.55,0.29,0.25,0.55,0.29,0.48,0.5,0.61,0.29,0.58,0.56,0.55,0.33,0.55,0.55,0.5,0.55,0.42,0.33,0.4,0.55,0.58,0.56,0.55,0.42,0.33,0.29,0.88,0.6,0.29,0.6,0.42,0.55,0.33,0.55,0.4" style="fill:rgb(0,0,0);font-family:URWPalladioL-Roma;font-size:9.96px;stroke:none;">]. It strongly echoed in the ﬁeld of food quality control, leading to a strong stimulus for</text>
   <text y="124.867" x="76.535,82.513,87.199,92.726,97.413,100.259,105.601,111.481,120.119,124.806,130.5,133.7868,136.174,141.065,146.759,152.8346,155.212,158.401,164.095,168.8758,171.266,176.158,182.136,187.027,192.907,196.096,200.988,204.177,207.024,212.366,218.14280000000002,220.535,225.877,229.1638,231.619,236.511,242.489,247.175,252.654,258.553,263.444,266.634,271.4148,273.795,278.687,284.381,289.272,292.119,297.559,300.748,303.595,307.939,312.83,315.7184,318.162,321.851,327.192,333.092,336.281,339.128,344.822,349.508,353.6912,356.131" svgx:width="0.61,0.48,0.56,0.48,0.29,0.55,0.6,0.88,0.48,0.58,0.33,0.55,0.5,0.58,0.61,0.55,0.33,0.58,0.48,0.55,0.5,0.61,0.5,0.6,0.33,0.5,0.33,0.29,0.55,0.58,0.55,0.55,0.33,0.55,0.5,0.61,0.48,0.56,0.6,0.5,0.33,0.48,0.55,0.5,0.58,0.5,0.29,0.56,0.33,0.29,0.44,0.5,0.29,0.55,0.4,0.55,0.6,0.33,0.29,0.58,0.48,0.42,0.55,0.33" style="fill:rgb(0,0,0);font-family:URWPalladioL-Roma;font-size:9.96px;stroke:none;">development and the adaptation of adequate analytical routines [</text>
   <text y="124.867" x="359.391" svgx:width="0.5" style="fill:rgb(8,117,183);font-family:URWPalladioL-Roma;font-size:9.96px;stroke:none;">8</text>
   <text y="124.867" x="364.372" svgx:width="0.5" style="fill:rgb(0,0,0);font-family:URWPalladioL-Roma;font-size:9.96px;stroke:none;">–</text>
   <text y="124.867" x="369.264,374.245" svgx:width="0.5,0.5" style="fill:rgb(8,117,183);font-family:URWPalladioL-Roma;font-size:9.96px;stroke:none;">10</text>
   <text y="124.867" x="379.226,382.484,384.974,388.011,398.108,403.802,409.701,418.34,423.75,428.436,432.41999999999996,434.775,440.117,443.40380000000005,445.86,451.202,454.391,460.085,464.771,468.755,471.12,474.378,479.72,485.062,491.1376,493.514,497.662,502.554,505.812,510.498,513.687" svgx:width="0.33,0.25,0.55,0.78,0.58,0.6,0.88,0.55,0.48,0.4,0.55,0.55,0.33,0.55,0.55,0.33,0.58,0.48,0.4,0.55,0.33,0.55,0.55,0.61,0.55,0.42,0.5,0.33,0.48,0.33,0.56" style="fill:rgb(0,0,0);font-family:URWPalladioL-Roma;font-size:9.96px;stroke:none;">]. Anumber of other food safety</text>
   <text y="138.377" x="76.535,79.431,85.224,89.643,92.539,98.62,103.387,109.18,112.424,116.6072,119.122,122.019,127.7958,130.299,134.051,138.819,143.238,148.005,153.797,157.0838,159.52,165.054,169.821,174.797,178.729,182.9122,185.427,191.219,196.196,201.819,206.5998,209.074,211.961,217.753,223.834,229.835,234.254,239.022,245.0976,247.591,253.573,258.549,262.48,265.725,268.621,273.04,279.041,281.938,286.914,290.89799999999997,293.323,299.305,303.057,307.824,312.044,316.264,322.266,326.018,330.79879999999997,333.263,338.697,344.4738,346.978,350.223,356.015,358.911,363.0942,365.609,370.586,374.338,379.105,384.08500000000004,386.56,391.994,395.28080000000006,397.796,402.773,408.565,413.541,416.438,421.971,425.216,428.112,432.531,437.507,440.3954,442.882,447.301,453.093,457.86,466.649,469.545,473.765,477.009,480.941,486.5186,488.952" svgx:width="0.29,0.58,0.44,0.29,0.61,0.48,0.58,0.33,0.42,0.55,0.29,0.58,0.55,0.4,0.48,0.44,0.48,0.58,0.33,0.55,0.56,0.48,0.5,0.4,0.42,0.55,0.58,0.5,0.56,0.48,0.55,0.29,0.58,0.61,0.6,0.44,0.48,0.61,0.55,0.6,0.5,0.4,0.33,0.29,0.44,0.6,0.29,0.5,0.4,0.55,0.6,0.4,0.48,0.42,0.42,0.6,0.4,0.48,0.55,0.55,0.58,0.55,0.33,0.58,0.29,0.42,0.55,0.5,0.4,0.48,0.5,0.55,0.55,0.33,0.55,0.5,0.58,0.5,0.29,0.56,0.33,0.29,0.44,0.5,0.29,0.55,0.44,0.58,0.48,0.88,0.29,0.42,0.33,0.4,0.56,0.55,0.33" style="fill:rgb(0,0,0);font-family:URWPalladioL-Roma;font-size:9.96px;stroke:none;">incidents in recent years have induced particular pressure on this area of analytical chemistry [</text>
   <text y="138.377" x="492.268,497.249" svgx:width="0.5,0.5" style="fill:rgb(8,117,183);font-family:URWPalladioL-Roma;font-size:9.96px;stroke:none;">11</text>
   <text y="138.377" x="502.231" svgx:width="0.25" style="fill:rgb(0,0,0);font-family:URWPalladioL-Roma;font-size:9.96px;stroke:none;">,</text>
   <text y="138.377" x="504.719,509.7" svgx:width="0.5,0.5" style="fill:rgb(8,117,183);font-family:URWPalladioL-Roma;font-size:9.96px;stroke:none;">12</text>
   <text y="138.377" x="514.681,517.995" svgx:width="0.33,0.25" style="fill:rgb(0,0,0);font-family:URWPalladioL-Roma;font-size:9.96px;stroke:none;">].</text>
   <text y="151.886" x="76.226,82.211,87.893,92.6738,94.884,103.505,108.181,111.364,117.047,122.377,128.343,132.5262,134.806,137.989,143.671,148.553,151.8398,154.05,158.931,162.612,167.3928,169.603,175.002,179.883,184.023,188.7,194.7756,196.989,202.32,208.0968,210.316,215.832,218.673,224.072,227.929,232.811,235.993,238.835,244.165,249.848,254.729,257.61740000000003,259.884,264.024,269.892,274.568,278.903,282.086,285.767,291.098,295.237,299.572,304.903,310.771,316.34860000000003,318.513,321.764,324.605,330.288,333.539,337.396,342.277,345.958,350.635,356.7106,358.914,362.165,365.455,371.977,375.228,377.718,379.993,386.515,391.397,400.018,404.899,410.6758,412.895,417.777,423.459,429.5346,431.739,437.421,442.098,446.979,450.66,453.911,456.752,462.435,465.686,469.542,474.424,478.105,482.782,488.8576,491.061,494.312,502.425,505.716,512.238,515.489" svgx:width="0.61,0.58,0.48,0.55,0.88,0.48,0.33,0.58,0.55,0.61,0.42,0.55,0.33,0.58,0.5,0.33,0.55,0.5,0.4,0.48,0.55,0.55,0.5,0.42,0.48,0.61,0.55,0.55,0.58,0.55,0.56,0.29,0.55,0.4,0.5,0.33,0.29,0.55,0.58,0.5,0.29,0.55,0.42,0.6,0.48,0.44,0.33,0.4,0.55,0.42,0.44,0.55,0.6,0.56,0.55,0.33,0.29,0.58,0.33,0.4,0.5,0.4,0.48,0.61,0.55,0.33,0.34,0.67,0.33,0.25,0.55,0.67,0.5,0.88,0.5,0.58,0.55,0.5,0.58,0.61,0.55,0.58,0.48,0.5,0.4,0.33,0.29,0.58,0.33,0.4,0.5,0.4,0.48,0.61,0.55,0.33,0.83,0.34,0.67,0.33,0.33" style="fill:rgb(0,0,0);font-family:URWPalladioL-Roma;font-size:9.96px;stroke:none;">The methods that are based on vibrational spectroscopy [infrared (IR), Raman and near-infrared (NIR)]</text>
   <text y="165.395" x="76.535,82.235,87.131,92.664,97.4448,99.853,105.268,109.959,114.308,119.655,128.302,133.0828,135.5,141.386,146.282,150.151,153.343,156.193,160.541,166.447,169.297,174.193,178.061,180.911,186.4886,188.854,191.703,200.351,206.237,211.584,215.452,218.645,223.541,229.241,232.5278,234.941,239.632,242.481,247.172,255.82,260.511,266.21,269.403,273.5862,276.053,281.4,284.6868,287.168,290.361,296.06,298.91,303.0932,305.56,310.251,313.336,316.597,321.944,325.812,329.09880000000004,331.502,334.352,340.12879999999996,342.559,346.907,352.254,357.954,361.146,364.838,370.185,373.035,375.885,378.735,384.434,390.01160000000004,392.377,395.569,401.269,406.0498,408.457,411.718,417.066,422.413,428.4886,430.903,435.056,439.952,443.213,447.904,451.097,456.6746,459.039,463.936,467.2228,469.636,474.327,479.86,484.551,488.419,493.9966,496.361,500.514,503.706,508.603,514.048" svgx:width="0.58,0.5,0.56,0.48,0.55,0.55,0.48,0.44,0.55,0.88,0.48,0.55,0.6,0.5,0.4,0.33,0.29,0.44,0.6,0.29,0.5,0.4,0.29,0.56,0.55,0.29,0.88,0.6,0.55,0.4,0.33,0.5,0.58,0.33,0.55,0.48,0.29,0.48,0.88,0.48,0.58,0.33,0.42,0.55,0.55,0.33,0.55,0.33,0.58,0.29,0.42,0.55,0.48,0.33,0.33,0.55,0.4,0.33,0.55,0.29,0.58,0.55,0.44,0.55,0.58,0.33,0.4,0.55,0.29,0.29,0.29,0.58,0.56,0.55,0.33,0.58,0.48,0.55,0.33,0.55,0.55,0.61,0.55,0.42,0.5,0.33,0.48,0.33,0.56,0.55,0.5,0.33,0.55,0.48,0.56,0.48,0.4,0.56,0.55,0.42,0.33,0.5,0.56,0.48" style="fill:rgb(0,0,0);font-family:URWPalladioL-Roma;font-size:9.96px;stroke:none;">have become particularly important elements of this effort in controlling the food safety at every stage</text>
   <text y="178.905" x="76.535,81.975,85.2618,87.783,90.682,93.93,98.1132,100.644,106.632,110.388,115.827,121.915,127.922,132.345,135.593,138.492,143.932,149.7088,152.221,157.202,163.0,169.0756,171.578,175.802,181.81,187.797,193.785,196.684,202.2616,204.714" svgx:width="0.55,0.33,0.55,0.29,0.33,0.42,0.55,0.6,0.4,0.55,0.61,0.6,0.44,0.33,0.29,0.55,0.58,0.55,0.5,0.58,0.61,0.55,0.42,0.6,0.6,0.6,0.29,0.56,0.55,0.33" style="fill:rgb(0,0,0);font-family:URWPalladioL-Roma;font-size:9.96px;stroke:none;">of its production and supply [</text>
   <text y="178.905" x="208.031,213.013" svgx:width="0.5,0.5" style="fill:rgb(8,117,183);font-family:URWPalladioL-Roma;font-size:9.96px;stroke:none;">13</text>
   <text y="178.905" x="217.994" svgx:width="0.5" style="fill:rgb(0,0,0);font-family:URWPalladioL-Roma;font-size:9.96px;stroke:none;">–</text>
   <text y="178.905" x="222.975,227.956" svgx:width="0.5,0.5" style="fill:rgb(8,117,183);font-family:URWPalladioL-Roma;font-size:9.96px;stroke:none;">15</text>
   <text y="178.905" x="232.938,236.255" svgx:width="0.33,0.25" style="fill:rgb(0,0,0);font-family:URWPalladioL-Roma;font-size:9.96px;stroke:none;">].</text>
   <text y="192.414" x="97.745,104.432,107.287,112.805,116.717,121.697,124.908,127.763,133.21,139.022,144.002,146.8904,150.302,154.509,160.515,165.281,169.691,172.902,176.631,182.078,186.285,190.695,196.142,202.148,207.7256,211.131,215.338,218.549,223.528,229.341,235.448,239.6312,243.1,248.547,254.573,257.8598,261.219,266.198,270.3812,273.85,278.83000000000004,282.264,288.076,293.523,299.336,302.618,305.473,311.286,316.926,321.905,326.112,328.968,334.607,339.373,341.863,345.501,353.874,356.73,362.837,367.603,370.458,376.03560000000004,379.442,384.421,390.426,396.432,399.288,402.143,406.553,411.533,417.051,419.906,424.672,427.16200000000003,430.799,433.655,439.102,447.475,450.757,455.168,460.614,464.821,468.032,470.522,474.15,479.129,484.942,491.0176,494.494,500.083,506.109,508.964,513.375" svgx:width="0.72,0.29,0.55,0.4,0.5,0.33,0.29,0.55,0.58,0.5,0.29,0.55,0.42,0.6,0.48,0.44,0.33,0.4,0.55,0.42,0.44,0.55,0.6,0.56,0.55,0.42,0.33,0.5,0.58,0.61,0.42,0.55,0.55,0.6,0.33,0.55,0.5,0.42,0.55,0.5,0.55,0.58,0.55,0.58,0.33,0.29,0.58,0.56,0.5,0.42,0.29,0.56,0.48,0.25,0.55,0.83,0.29,0.61,0.48,0.29,0.56,0.55,0.5,0.6,0.6,0.29,0.29,0.44,0.5,0.55,0.29,0.48,0.25,0.55,0.29,0.55,0.83,0.33,0.44,0.55,0.42,0.33,0.25,0.55,0.5,0.58,0.61,0.55,0.56,0.6,0.29,0.44,0.56" style="fill:rgb(0,0,0);font-family:URWPalladioL-Roma;font-size:9.96px;stroke:none;">Vibrational spectroscopy stands out as a non-invasive, widely applicable, low-cost, and quick</text>
   <text y="205.924" x="76.535,79.746,82.602,91.473,96.239,99.521,102.732,108.179,111.461,115.191,119.957,124.164,130.19,133.045,136.3318,141.317,146.296,152.109,157.088,159.943,165.492,168.703,171.558,175.969,180.948,183.8364,188.854,197.725,202.491,205.702,211.515,216.962,223.069,225.559,236.34,242.468,248.28,253.046,256.776,261.542,264.824,270.271,274.0,278.766,281.25600000000003,286.906,289.761,293.04780000000005,298.033,302.443,307.89,316.761,322.279,325.134,330.947,335.713,339.8962,344.97,349.95,356.057,361.697,366.676,372.489,375.7,380.679,386.227,390.993,395.1762,400.261,403.472,409.285,414.264,417.55080000000004,422.526,427.505,431.234,436.0148,441.061,446.873,449.729,455.277,461.09,463.945,469.5226,474.544,480.184,485.163,488.019,494.045,498.81,504.8856,509.968,512.824" svgx:width="0.33,0.29,0.88,0.48,0.33,0.33,0.55,0.33,0.4,0.48,0.42,0.6,0.29,0.33,0.55,0.5,0.58,0.5,0.29,0.56,0.33,0.29,0.44,0.5,0.29,0.55,0.88,0.48,0.33,0.58,0.55,0.61,0.25,0.55,0.61,0.58,0.48,0.4,0.48,0.33,0.55,0.4,0.48,0.25,0.55,0.29,0.33,0.55,0.44,0.55,0.88,0.55,0.29,0.58,0.48,0.42,0.55,0.5,0.61,0.56,0.5,0.58,0.33,0.5,0.56,0.48,0.42,0.55,0.33,0.58,0.5,0.33,0.55,0.5,0.4,0.48,0.55,0.58,0.29,0.56,0.58,0.29,0.56,0.55,0.56,0.5,0.29,0.6,0.48,0.61,0.55,0.29,0.58" style="fill:rgb(0,0,0);font-family:URWPalladioL-Roma;font-size:9.96px;stroke:none;">time-to-result analytical method. Therefore, it combines advantages that are highly valued in</text>
   <text y="219.433" x="76.535,81.514,87.327,92.306,95.162,100.71,103.921,106.777,111.187,116.166,119.0544,121.572,125.983,131.795,136.561,145.432,148.288,152.495,155.706,159.618,164.059,166.549,169.831,177.595,182.361,186.568,192.573,195.429,198.64,203.42079999999999,205.956,211.474,216.24,219.096,224.908,230.48559999999998,233.017,238.566,242.295,247.742,253.768,259.773,264.539,270.6146,273.197,276.408,281.855,287.404,292.169,295.381,301.193,305.959,309.14,311.63,314.149,317.361,323.173,327.9538,330.5,336.048,340.814,346.39160000000004,348.913,355.02,357.876,361.158,364.44,369.206,372.936,377.702,383.514,387.924,392.69,396.8732,399.458,404.437,413.309,418.755,424.568,430.1456,432.667,435.878,441.691,446.457,450.664,455.4448,457.98,461.191,467.004,470.743,475.509,480.2898,482.826,488.374,491.23,497.042,503.15,507.3332,509.907,515.354" svgx:width="0.5,0.58,0.5,0.29,0.56,0.33,0.29,0.44,0.5,0.29,0.55,0.44,0.58,0.48,0.88,0.29,0.42,0.33,0.4,0.56,0.25,0.55,0.77,0.48,0.42,0.6,0.29,0.33,0.48,0.55,0.55,0.48,0.29,0.58,0.56,0.55,0.56,0.4,0.55,0.6,0.6,0.48,0.61,0.55,0.33,0.55,0.56,0.48,0.33,0.58,0.48,0.4,0.25,0.55,0.33,0.58,0.48,0.55,0.56,0.48,0.56,0.55,0.61,0.29,0.33,0.33,0.48,0.4,0.48,0.58,0.44,0.48,0.42,0.55,0.5,0.88,0.55,0.58,0.56,0.55,0.33,0.58,0.48,0.42,0.48,0.55,0.33,0.58,0.4,0.48,0.48,0.55,0.56,0.29,0.58,0.61,0.42,0.55,0.55,0.33" style="fill:rgb(0,0,0);font-family:URWPalladioL-Roma;font-size:9.96px;stroke:none;">analytical chemistry. Despite being grouped together, the key differences among these three kinds of</text>
   <text y="232.942" x="76.535,79.652,84.277,88.558,94.2,99.841,102.613,108.037,113.886,118.512,122.6952,125.041,129.124,134.766,140.053,145.901,148.673,154.7486,157.056,162.412,167.1928,169.484,175.125,180.412,183.528,188.154,194.082,196.572,199.506,202.732,209.4052,211.677,214.863,219.696,224.529,229.362,234.195,239.027,243.86,248.693,253.673,255.972,260.253" svgx:width="0.33,0.48,0.44,0.58,0.58,0.29,0.56,0.6,0.48,0.42,0.55,0.42,0.58,0.55,0.6,0.29,0.61,0.55,0.55,0.48,0.55,0.58,0.55,0.33,0.48,0.61,0.25,0.55,0.34,0.67,0.55,0.33,0.5,0.5,0.5,0.5,0.5,0.5,0.5,0.5,0.55,0.44,0.88" style="fill:rgb(0,0,0);font-family:URWPalladioL-Roma;font-size:9.96px;stroke:none;">techniques should be noted. IR (4000–400 cm</text>
   <text y="229.326" x="268.974" svgx:width="0.78" style="fill:rgb(0,0,0);font-family:CMSY10;font-size:7.89px;stroke:none;">−</text>
   <text y="229.326" x="275.126" svgx:width="0.5" style="fill:rgb(0,0,0);font-family:URWPalladioL-Roma;font-size:7.57px;stroke:none;">1</text>
   <text y="232.942" x="279.322,282.60880000000003,284.954,289.037,294.866,299.492,303.772,306.889,310.509,315.795,319.879,324.159,329.446,335.275,340.8526,343.116,347.741,350.513,356.362,360.642,363.414,369.341,374.174,377.291,381.917,386.1002,388.446,392.726,398.368,402.994,411.604,414.376,418.656,423.489,426.37739999999997,428.716,431.488,437.129,440.315,445.602,449.399,458.009,462.842,465.959,468.73,474.017,479.7938,482.105,485.29,488.91,494.197,505.253,508.37,514.011" svgx:width="0.33,0.55,0.42,0.6,0.48,0.44,0.33,0.4,0.55,0.42,0.44,0.55,0.6,0.56,0.55,0.48,0.29,0.6,0.44,0.29,0.61,0.5,0.33,0.48,0.42,0.55,0.44,0.58,0.48,0.88,0.29,0.44,0.5,0.29,0.55,0.29,0.58,0.33,0.55,0.4,0.88,0.5,0.33,0.29,0.55,0.58,0.55,0.33,0.4,0.55,0.88,0.33,0.58,0.48" style="fill:rgb(0,0,0);font-family:URWPalladioL-Roma;font-size:9.96px;stroke:none;">) spectroscopy elucidates chemical information fromthe</text>
   <text y="246.452" x="76.535,79.689,85.478,91.063,96.931,101.715,110.238,114.817,120.402,123.487,128.271,131.15939999999998,133.231,138.649,141.393,146.694,150.453,155.237,158.323,161.066,166.299,171.884,176.668,179.5564,181.628,184.713,188.472,193.256,198.84,202.882,205.626,208.711,211.455,216.688,222.272,226.314,228.804,231.645,234.838,240.6148,242.639,246.876,252.109,257.694,260.779,264.538,269.322,273.364,276.449,278.939,281.058,284.143,289.727,294.5078,296.523,300.565,303.308,308.639,314.224,319.008,321.89639999999997,323.977,327.063,332.647,337.431,340.7178,342.733,350.778,355.562,359.7452,361.82,370.344,374.923,379.707,383.749,389.538,393.121,397.701,403.77660000000003,405.785,408.528,414.3048,416.329,424.345,427.537,436.178,439.334,444.216,449.097,451.488,456.37,461.252,466.133,471.015,475.897,480.778,485.66,490.64000000000004,493.012,497.336" svgx:width="0.33,0.6,0.58,0.61,0.5,0.88,0.48,0.58,0.33,0.5,0.29,0.55,0.56,0.29,0.55,0.4,0.5,0.33,0.29,0.55,0.58,0.5,0.29,0.55,0.33,0.4,0.5,0.58,0.42,0.29,0.33,0.29,0.55,0.58,0.42,0.25,0.55,0.34,0.58,0.55,0.44,0.55,0.58,0.33,0.4,0.5,0.42,0.33,0.25,0.55,0.33,0.58,0.48,0.55,0.42,0.29,0.56,0.58,0.5,0.29,0.55,0.33,0.58,0.5,0.33,0.55,0.83,0.5,0.42,0.55,0.88,0.48,0.5,0.42,0.6,0.4,0.48,0.61,0.55,0.29,0.58,0.55,0.83,0.34,0.67,0.33,0.5,0.5,0.25,0.5,0.5,0.5,0.5,0.5,0.5,0.5,0.5,0.55,0.44,0.88" style="fill:rgb(0,0,0);font-family:URWPalladioL-Roma;font-size:9.96px;stroke:none;">fundamental vibrational transitions. In contrast, the signal that was measured in NIR(10,000–4000 cm</text>
   <text y="242.835" x="506.135" svgx:width="0.78" style="fill:rgb(0,0,0);font-family:CMSY10;font-size:7.89px;stroke:none;">−</text>
   <text y="242.835" x="512.287" svgx:width="0.5" style="fill:rgb(0,0,0);font-family:URWPalladioL-Roma;font-size:7.57px;stroke:none;">1</text>
   <text y="246.452" x="516.483" svgx:width="0.33" style="fill:rgb(0,0,0);font-family:URWPalladioL-Roma;font-size:9.96px;stroke:none;">)</text>
   <text y="259.961" x="76.535,80.742,86.748,91.514,95.924,99.135,102.864,108.311,112.518,116.928,122.375,128.381,133.9586,136.795,142.242,146.154,149.009,154.558,157.413,163.226,168.205,171.416,176.182,180.3652,183.245,186.527,190.256,195.703,204.4678,207.43,210.641,216.453,221.2338,224.085,228.851,233.993,238.403,241.259,244.47,249.449,252.66,255.516,260.962,266.775,270.9582,273.837,279.284,282.5708,285.422,291.234,294.09,299.638,305.451,310.217,314.20099999999996,316.995,322.584,328.6,333.589,339.391,342.603,347.583,350.448,353.659,357.571,362.55,368.363,372.57,375.425,378.637,381.492,386.939,392.751,396.958,399.44800000000004,402.354,411.226,416.672,420.879,424.09,426.946,432.52360000000004,435.35,438.632,441.488,445.4,449.607,452.89380000000006,455.673,461.12,466.76,471.526,475.438,478.649,484.096,489.909,494.675,498.8582,501.737,506.716,512.529" svgx:width="0.42,0.6,0.48,0.44,0.33,0.4,0.55,0.42,0.44,0.55,0.6,0.56,0.55,0.55,0.4,0.29,0.56,0.29,0.58,0.5,0.33,0.48,0.42,0.55,0.33,0.4,0.55,0.88,0.55,0.33,0.58,0.48,0.55,0.48,0.52,0.44,0.29,0.33,0.5,0.33,0.29,0.55,0.58,0.42,0.55,0.55,0.33,0.55,0.58,0.29,0.56,0.58,0.48,0.4,0.55,0.56,0.6,0.5,0.58,0.33,0.5,0.55,0.33,0.4,0.5,0.58,0.42,0.29,0.33,0.29,0.55,0.58,0.42,0.25,0.55,0.88,0.55,0.42,0.33,0.29,0.56,0.55,0.33,0.29,0.4,0.42,0.33,0.55,0.55,0.56,0.48,0.4,0.33,0.55,0.58,0.48,0.42,0.55,0.5,0.58,0.61" style="fill:rgb(0,0,0);font-family:URWPalladioL-Roma;font-size:9.96px;stroke:none;">spectroscopy originates from the excitations of higher quanta transitions, mostly first overtones and</text>
   <text y="273.471" x="76.535,82.053,84.908,90.721,95.7,99.613,105.1906,107.671,112.081,117.528,126.399,131.917,134.773,140.585,145.564,148.776,151.631,157.078,162.89,167.07319999999999,169.607" svgx:width="0.55,0.29,0.58,0.5,0.4,0.56,0.55,0.44,0.55,0.88,0.55,0.29,0.58,0.5,0.33,0.29,0.55,0.58,0.42,0.55,0.33" style="fill:rgb(0,0,0);font-family:URWPalladioL-Roma;font-size:9.96px;stroke:none;">binary combinations [</text>
   <text y="273.471" x="172.893,177.775" svgx:width="0.5,0.5" style="fill:rgb(8,117,183);font-family:URWPalladioL-Roma;font-size:9.96px;stroke:none;">16</text>
   <text y="273.471" x="182.657" svgx:width="0.5" style="fill:rgb(0,0,0);font-family:URWPalladioL-Roma;font-size:9.96px;stroke:none;">–</text>
   <text y="273.471" x="187.636,192.518" svgx:width="0.5,0.5" style="fill:rgb(8,117,183);font-family:URWPalladioL-Roma;font-size:9.96px;stroke:none;">18</text>
   <text y="273.471" x="197.399,200.681,203.17100000000002,206.321,213.008,217.987,226.858,231.838,237.6148,240.16,244.367,250.373,255.139,259.549,262.76,266.5,271.946,276.153,280.564,286.01,292.016,297.59360000000004,300.074,305.054,307.909,312.116,317.594,320.073,326.078,329.808,335.255,340.894,343.75,349.857,354.623,358.8062,361.35,364.195,370.008,373.29,378.737,382.649,391.521,396.5,399.711,402.567,408.013,413.78979999999996,416.346,420.075,424.841,430.39,435.369,439.098,445.206,448.061,453.874,459.45160000000004,461.942,465.224,471.25,477.063,483.17,488.15,497.021,501.787,507.599,510.81,515.79" svgx:width="0.33,0.25,0.55,0.67,0.5,0.88,0.5,0.58,0.55,0.42,0.6,0.48,0.44,0.33,0.4,0.55,0.42,0.44,0.55,0.6,0.56,0.55,0.5,0.29,0.42,0.55,0.55,0.6,0.4,0.55,0.56,0.29,0.61,0.48,0.42,0.55,0.29,0.58,0.33,0.55,0.4,0.88,0.5,0.33,0.29,0.55,0.58,0.55,0.4,0.48,0.56,0.5,0.4,0.61,0.29,0.58,0.56,0.55,0.33,0.6,0.58,0.61,0.5,0.88,0.48,0.58,0.33,0.5,0.29" style="fill:rgb(0,0,0);font-family:URWPalladioL-Roma;font-size:9.96px;stroke:none;">]. Raman spectroscopy also provides information regarding fundamental</text>
   <text y="286.98" x="76.256,81.896,84.751,90.269,94.182,99.161,102.372,105.227,110.674,116.487,120.694,123.184,125.673,131.191,137.217,140.5038,142.958,146.17,151.982,155.712,161.158,167.184,172.733,178.5098,181.075,186.05499999999998,188.585,194.692,197.548,201.755,204.966,207.821,213.634,218.044,221.255,224.111,229.68859999999998,232.19,238.297,241.152,244.435,247.717,252.483,256.212,260.978,266.791,270.0778,272.532,280.905,286.352,290.264,295.813,298.668,304.481,310.0586,312.549,318.555,322.467,325.323,331.135,335.546,338.401,344.407,347.262,352.0428,354.558,357.77,363.582,368.561,374.33779999999996,376.904,380.227,386.9002,389.444,393.651,399.657,404.422,408.833,412.044,415.773,421.22,425.427,429.837,435.284,441.29,445.73,448.22,451.421,457.549,463.361,468.1418,470.657,476.765,479.62,482.902,486.185,490.951,494.68,499.446,505.258,509.669,514.435" svgx:width="0.56,0.29,0.55,0.4,0.5,0.33,0.29,0.55,0.58,0.42,0.25,0.55,0.55,0.6,0.33,0.55,0.33,0.58,0.4,0.55,0.6,0.56,0.58,0.55,0.5,0.55,0.61,0.29,0.42,0.33,0.29,0.58,0.44,0.33,0.29,0.56,0.55,0.61,0.29,0.33,0.33,0.48,0.4,0.48,0.58,0.33,0.55,0.83,0.55,0.4,0.56,0.29,0.58,0.56,0.55,0.6,0.4,0.29,0.58,0.44,0.29,0.6,0.29,0.48,0.55,0.33,0.58,0.5,0.58,0.55,0.34,0.67,0.55,0.42,0.6,0.48,0.44,0.33,0.4,0.55,0.42,0.44,0.55,0.6,0.56,0.25,0.55,0.61,0.58,0.48,0.55,0.61,0.29,0.33,0.33,0.48,0.4,0.48,0.58,0.44,0.48,0.42" style="fill:rgb(0,0,0);font-family:URWPalladioL-Roma;font-size:9.96px;stroke:none;">vibrations, but through a distinctly different working principle than IR spectroscopy. The differences</text>
   <text y="300.489" x="76.535,79.39,85.1668,89.176,92.388,98.2,102.9808,106.929,115.302,120.282,125.922,130.688,133.543,138.309,144.121,149.67,152.881,158.6578,162.667,166.396,171.162,176.711,179.566,185.013,190.825,195.0082,198.995,203.975,209.787,215.86260000000001,219.868,225.894,231.706,237.814,242.58,246.492,249.347,254.896,257.751,263.564,269.14160000000004,273.075,279.081,284.893,290.442,294.649,297.504,301.915,306.894,309.7824,313.723,319.241,324.22,328.63,334.178,339.727,343.456,348.903,354.929,360.741,366.8166,370.822,374.033,377.945,382.925,388.737,392.944,395.8,400.779,403.99,408.7708,412.719,415.575,421.387,424.599,430.077,434.019,440.126,442.981,447.188,450.399,453.255,459.067,463.478,466.76480000000004,470.652,476.759,479.615,482.897,486.179,490.945,494.675,499.441,505.253,509.663,514.429" svgx:width="0.29,0.58,0.55,0.33,0.58,0.48,0.55,0.83,0.5,0.56,0.48,0.29,0.48,0.58,0.56,0.33,0.58,0.55,0.4,0.48,0.56,0.29,0.55,0.58,0.42,0.55,0.5,0.58,0.61,0.55,0.6,0.58,0.61,0.48,0.4,0.29,0.56,0.29,0.58,0.56,0.55,0.6,0.58,0.56,0.42,0.29,0.44,0.5,0.29,0.55,0.55,0.5,0.44,0.56,0.56,0.4,0.55,0.6,0.58,0.61,0.55,0.33,0.4,0.5,0.58,0.42,0.29,0.5,0.33,0.48,0.55,0.29,0.58,0.33,0.55,0.55,0.61,0.29,0.42,0.33,0.29,0.58,0.44,0.33,0.55,0.61,0.29,0.33,0.33,0.48,0.4,0.48,0.58,0.44,0.48,0.42" style="fill:rgb(0,0,0);font-family:URWPalladioL-Roma;font-size:9.96px;stroke:none;">in the wavelength regions and underlying physical background translate into distinct differences</text>
   <text y="313.999" x="76.535,79.39,85.1668,88.993,92.205,98.017,102.7978,106.573,109.429,115.242,119.449,122.66,126.491,132.517,141.388,146.154,151.966,155.178,160.157,163.368,166.223,171.67,177.4468,181.273,186.253,192.065,198.1406,201.963,206.942,212.948,218.953,221.809,224.664,229.074,234.054,239.572,242.427,245.283,248.138,251.349,256.9266,260.688,266.135,269.4218,273.207,276.419,282.231,286.997,291.204,295.9848,299.76,308.632,313.397,316.609,322.421,327.868,333.975,338.182,340.672,347.663,353.77,358.75,363.16,368.9368,372.763,378.21,381.4968,385.282,388.493,394.306,399.072,403.279,408.0598,411.835,415.046,419.812,424.223,430.035,435.848,438.703,444.292,450.318,455.084,459.2672,463.081,468.528,471.81,475.093,479.859,483.84299999999996,487.561,493.587,499.4,502.255,507.844,513.87" svgx:width="0.29,0.58,0.55,0.33,0.58,0.48,0.55,0.29,0.58,0.42,0.33,0.4,0.6,0.88,0.48,0.58,0.33,0.5,0.33,0.29,0.55,0.58,0.55,0.5,0.58,0.61,0.55,0.5,0.6,0.6,0.29,0.29,0.44,0.5,0.55,0.29,0.29,0.29,0.33,0.56,0.55,0.55,0.33,0.55,0.33,0.58,0.48,0.42,0.48,0.55,0.88,0.48,0.33,0.58,0.55,0.61,0.42,0.25,0.55,0.61,0.5,0.44,0.58,0.55,0.55,0.33,0.55,0.33,0.58,0.48,0.42,0.48,0.55,0.33,0.48,0.44,0.58,0.58,0.29,0.56,0.6,0.48,0.42,0.55,0.55,0.33,0.33,0.48,0.4,0.55,0.6,0.58,0.29,0.56,0.6,0.48" style="fill:rgb(0,0,0);font-family:URWPalladioL-Roma;font-size:9.96px;stroke:none;">in the instrumentation and applicability of these methods. Each of these techniques offer unique</text>
   <text y="327.508" x="76.535,81.509,87.611,93.245,98.219,104.026,107.234,112.209,117.752,122.513,126.716,129.206,131.609,137.122,143.142,146.4288,148.816,152.096,157.537,161.52100000000002,163.902,167.11,172.917,177.6978,180.135,186.236,190.998,194.206,198.967,203.373,206.581,209.433,214.875,220.682,226.732,232.316,238.336,243.31,249.117,252.325,255.178,258.457,261.31,265.715,270.69,273.898,276.751,282.192,287.9688,290.456,295.897,299.1838,301.643,310.506,315.267,318.119,323.094,331.956,334.809,340.616,345.3968,347.834,352.24,357.681,363.488,366.696,371.457,377.264,380.55080000000004,382.929,385.782,391.55879999999996,394.045,402.908,405.76,408.613,414.156,416.646,419.059,427.394,430.714,437.3872,439.85,444.053,450.053,454.814,459.22,462.428,466.154,471.595,475.798,480.204,485.645,491.645,497.2226,499.645,508.507,513.482" svgx:width="0.5,0.61,0.56,0.5,0.58,0.33,0.5,0.56,0.48,0.42,0.25,0.55,0.55,0.6,0.33,0.55,0.33,0.55,0.4,0.55,0.33,0.58,0.48,0.55,0.61,0.48,0.33,0.48,0.44,0.33,0.29,0.55,0.58,0.61,0.56,0.6,0.5,0.58,0.33,0.29,0.33,0.29,0.44,0.5,0.33,0.29,0.55,0.58,0.55,0.55,0.33,0.55,0.88,0.48,0.29,0.5,0.88,0.29,0.58,0.48,0.55,0.44,0.55,0.58,0.33,0.48,0.58,0.33,0.55,0.29,0.58,0.55,0.88,0.29,0.29,0.56,0.25,0.55,0.83,0.34,0.67,0.55,0.42,0.6,0.48,0.44,0.33,0.4,0.55,0.42,0.44,0.55,0.6,0.56,0.55,0.88,0.5,0.56" style="fill:rgb(0,0,0);font-family:URWPalladioL-Roma;font-size:9.96px;stroke:none;">advantages, but for the detection/quantification of melamine content in milk, NIR spectroscopy may</text>
   <text y="341.018" x="76.535,82.053,86.8338,89.339,92.621,97.601,103.24,108.687,112.417,117.182,123.2576,125.8" svgx:width="0.55,0.48,0.55,0.33,0.5,0.56,0.55,0.4,0.48,0.61,0.55,0.33" style="fill:rgb(0,0,0);font-family:URWPalladioL-Roma;font-size:9.96px;stroke:none;">be favored [</text>
   <text y="341.018" x="129.087" svgx:width="0.5" style="fill:rgb(8,117,183);font-family:URWPalladioL-Roma;font-size:9.96px;stroke:none;">9</text>
   <text y="341.018" x="133.969,137.251,139.741,142.901,150.6698,153.226,159.038,165.064,173.936,179.453,184.219,188.203,190.642,196.088,199.3748,201.891,205.173,210.152,214.563,217.774,223.22,227.133,231.3162,233.85,238.26,243.707,249.519,252.73,256.643,259.498,265.016,271.042,274.253,279.0338,281.539,284.75,290.228,292.707,295.918,301.731,304.586,308.7692,311.313,314.596,319.575,323.985,327.27180000000004,329.717" svgx:width="0.33,0.25,0.55,0.78,0.55,0.58,0.6,0.88,0.55,0.48,0.4,0.55,0.55,0.33,0.55,0.33,0.5,0.44,0.33,0.55,0.4,0.42,0.55,0.44,0.55,0.58,0.33,0.4,0.29,0.55,0.6,0.33,0.48,0.55,0.33,0.55,0.55,0.33,0.58,0.29,0.42,0.55,0.33,0.5,0.44,0.33,0.55,0.33" style="fill:rgb(0,0,0);font-family:URWPalladioL-Roma;font-size:9.96px;stroke:none;">]. A number of factors contribute to this fact [</text>
   <text y="341.018" x="332.995,337.877" svgx:width="0.5,0.5" style="fill:rgb(8,117,183);font-family:URWPalladioL-Roma;font-size:9.96px;stroke:none;">19</text>
   <text y="341.018" x="342.758,346.04,348.53000000000003,351.69,360.043,362.899,368.447,374.26,379.026,383.01,385.458,389.665,394.644,403.516,409.521,412.377,417.1578,419.653,425.293,430.739,433.595,439.621,448.492,453.2728,455.778,459.507,464.273,468.48,474.506,477.362,480.573,483.428,489.241,494.8186,497.309,500.592,504.321,509.768" svgx:width="0.33,0.25,0.55,0.83,0.29,0.56,0.58,0.48,0.4,0.55,0.42,0.5,0.88,0.6,0.29,0.48,0.55,0.56,0.55,0.29,0.6,0.88,0.48,0.55,0.4,0.48,0.42,0.6,0.29,0.33,0.29,0.58,0.56,0.55,0.33,0.4,0.55,0.88" style="fill:rgb(0,0,0);font-family:URWPalladioL-Roma;font-size:9.96px;stroke:none;">]. Higher sample volume resulting from</text>
   <text y="354.527" x="76.535,79.39,84.837,93.1038,96.127,104.47,107.793,114.46620000000001,117.396,122.375,127.893,132.1,137.547,141.459,147.465,150.676,153.531,159.171,162.027,165.238,170.8156,173.703,179.149,182.4358,185.348,194.219,199.199,202.41,205.621,210.387,214.371,217.205,220.061,225.83780000000002,228.79,234.338,239.104,244.917,249.683,253.595,258.574,261.43,263.92,266.897,271.876,277.689,283.76460000000003,286.712,295.086,300.065,303.276,308.042,311.223,313.713,316.69,319.545,325.3218,328.274,334.28,339.259,343.172,346.383,349.238,353.648,359.674,362.53,367.509,370.68,373.17,376.147,381.126,383.982,386.837,392.284,400.657,404.8402,407.781,411.063,416.51,420.49399999999997,423.338,432.21,437.656,441.386,446.1668,449.068,453.275,456.486,460.399,465.378,468.233,473.782,479.594,482.805,486.088,491.534,495.447,503.82,508.799,512.529" svgx:width="0.29,0.55,0.83,0.55,0.83,0.34,0.67,0.55,0.5,0.55,0.42,0.55,0.4,0.6,0.33,0.29,0.56,0.29,0.33,0.56,0.55,0.55,0.33,0.55,0.88,0.5,0.33,0.33,0.48,0.4,0.55,0.29,0.58,0.55,0.56,0.48,0.58,0.48,0.4,0.5,0.29,0.25,0.55,0.5,0.58,0.61,0.55,0.83,0.5,0.33,0.48,0.4,0.25,0.55,0.29,0.58,0.55,0.6,0.5,0.4,0.33,0.29,0.44,0.6,0.29,0.5,0.4,0.25,0.55,0.5,0.29,0.29,0.55,0.83,0.42,0.55,0.33,0.55,0.4,0.55,0.88,0.55,0.4,0.48,0.55,0.42,0.33,0.4,0.5,0.29,0.56,0.58,0.33,0.33,0.55,0.4,0.83,0.5,0.4,0.61" style="fill:rgb(0,0,0);font-family:URWPalladioL-Roma;font-size:9.96px;stroke:none;">low NIR absorptivity of matter in general, and water, in particular, allows for more straightforward</text>
   <text y="368.036" x="76.535,85.058,89.637,94.421,98.463,104.253,107.836,112.415,120.939,125.518,131.102,134.3888,136.453,141.686,144.9728,147.104,150.19,153.949,158.733,164.317,168.359,176.883,179.626,182.711,185.797,190.581,196.165,200.402,205.1828,207.247,212.48,216.464,218.504,222.077,226.656,229.81,232.553,237.132,241.369,244.455,249.239,254.823,259.061,263.8418,265.905,271.138,274.4248,276.556,279.642,285.226,290.0068,292.07,300.594,303.337,306.081,311.65860000000004,313.677,317.719,322.503,331.026,336.796,339.54,344.119,346.60900000000004,349.459,355.347,360.931,365.7118,367.775,371.817,376.602,385.125,389.9058,391.969,400.492,405.276,410.85360000000003,412.872,418.174,422.9548,425.018,429.802,434.039,439.624,442.367,446.947,452.365,456.944,463.0196,465.077,473.122,475.866,478.951,484.7278,486.801,493.557,499.444,505.868,509.022,512.214" svgx:width="0.88,0.48,0.5,0.42,0.6,0.4,0.48,0.88,0.48,0.58,0.33,0.55,0.55,0.33,0.55,0.33,0.4,0.5,0.58,0.42,0.88,0.29,0.33,0.33,0.5,0.58,0.44,0.48,0.55,0.55,0.4,0.55,0.4,0.48,0.33,0.29,0.48,0.44,0.33,0.5,0.58,0.44,0.48,0.55,0.55,0.33,0.55,0.33,0.58,0.48,0.55,0.88,0.29,0.29,0.56,0.55,0.42,0.5,0.88,0.6,0.29,0.48,0.25,0.55,0.61,0.58,0.48,0.55,0.42,0.5,0.88,0.48,0.55,0.88,0.5,0.56,0.55,0.55,0.48,0.55,0.5,0.44,0.58,0.29,0.48,0.56,0.48,0.61,0.55,0.83,0.29,0.33,0.58,0.55,0.78,0.61,0.67,0.33,0.34,0.67" style="fill:rgb(0,0,0);font-family:URWPalladioL-Roma;font-size:9.96px;stroke:none;">measurement of transmittance or reflectance of the milk sample. The same may be achieved with ATR-IR</text>
   <text y="381.546" x="76.207,79.361,86.859,89.944,93.029,97.608,103.193,108.983,113.767,116.852,121.431,127.50659999999999,129.515,134.494,139.727,142.813,147.597,150.4854,152.556,158.981,163.56,166.713,169.457,174.036,178.273,181.358,184.102,189.335,195.11180000000002,197.146,200.338,206.762,210.0488,212.132,216.916,222.686,228.457,232.04,237.273,242.057,246.294,251.879,254.369,256.516,262.101,267.334,275.379,279.958,285.377,289.956,292.983,295.473,297.591,300.676,306.261,311.0418,313.066,316.219,318.963,324.264,328.843,332.827,334.819,340.589,344.172,349.405,354.706,359.4868,361.512,365.749,370.982,379.505,385.276,390.06,393.145,395.888,401.19,403.933,406.677,409.42,412.506,418.0836,420.053,425.286,428.57280000000003,430.665,438.681,441.874,450.514,453.258,458.842,462.885,465.97,469.651,475.44,483.964,488.543,494.127,497.213,501.997,505.082,507.825,513.058" svgx:width="0.33,0.78,0.33,0.33,0.48,0.58,0.6,0.5,0.33,0.48,0.61,0.55,0.61,0.55,0.33,0.5,0.29,0.55,0.67,0.48,0.33,0.29,0.48,0.44,0.33,0.29,0.55,0.58,0.55,0.34,0.67,0.33,0.55,0.5,0.6,0.6,0.4,0.55,0.5,0.44,0.58,0.25,0.55,0.58,0.55,0.83,0.48,0.56,0.48,0.4,0.25,0.55,0.33,0.58,0.48,0.55,0.33,0.29,0.55,0.48,0.4,0.55,0.6,0.4,0.55,0.55,0.48,0.55,0.44,0.55,0.88,0.6,0.5,0.33,0.29,0.55,0.29,0.29,0.29,0.33,0.56,0.55,0.55,0.33,0.55,0.83,0.34,0.67,0.29,0.58,0.42,0.33,0.4,0.6,0.88,0.48,0.58,0.33,0.5,0.33,0.29,0.55,0.58" style="fill:rgb(0,0,0);font-family:URWPalladioL-Roma;font-size:9.96px;stroke:none;">(Attenuated Total Reflection IR) approach; however, the fiber probe compatibility of NIRinstrumentation</text>
   <text y="395.055" x="76.535,82.083,84.939,90.579,95.345,99.5282,102.417,105.273,108.5598,111.339,115.546,121.572,127.578,132.344,136.256,139.112,144.558,148.542,151.336,154.619,157.474,162.24,167.382,170.237,175.755,178.611,181.466,184.322,187.533,193.11059999999998,195.947,198.802,204.5788,207.47,213.283,216.138,221.687,227.499,230.782,236.421,241.868,244.724,250.75,259.621,264.4018,267.252,272.232,278.044,283.024,285.879,291.427,295.634,298.49,302.697,305.187,309.383,317.726,321.049,327.7222,330.601,334.808,340.814,345.58,349.99,353.201,356.931,362.377,366.584,370.995,376.441,382.447,388.0246,390.861,395.84,398.696,402.903,408.38100000000003,411.215,416.733,421.499,427.312,432.078,435.36,438.215,441.426,445.6092,448.489,451.771,455.511,460.958,469.7228,472.684,475.896,481.708,486.4888,489.34,492.195,497.174,500.904,506.452,511.218,515.425" svgx:width="0.56,0.29,0.56,0.48,0.42,0.55,0.29,0.33,0.55,0.42,0.6,0.6,0.48,0.4,0.29,0.55,0.4,0.55,0.33,0.29,0.48,0.52,0.29,0.55,0.29,0.29,0.29,0.33,0.56,0.55,0.29,0.58,0.55,0.58,0.29,0.56,0.58,0.33,0.56,0.55,0.29,0.6,0.88,0.48,0.55,0.5,0.58,0.5,0.29,0.56,0.42,0.29,0.42,0.25,0.55,0.83,0.34,0.67,0.55,0.42,0.6,0.48,0.44,0.33,0.4,0.55,0.42,0.44,0.55,0.6,0.56,0.55,0.5,0.29,0.42,0.55,0.55,0.55,0.48,0.58,0.48,0.33,0.29,0.33,0.42,0.55,0.33,0.4,0.55,0.88,0.55,0.33,0.58,0.48,0.55,0.29,0.5,0.4,0.56,0.48,0.42,0.33" style="fill:rgb(0,0,0);font-family:URWPalladioL-Roma;font-size:9.96px;stroke:none;">gives it superior flexibility in high-volume analysis. NIR spectroscopy also benefits from the largest</text>
   <text y="408.565" x="76.535,79.62,84.853,87.597,92.176,95.935,100.719,106.303,110.541,115.3218,117.385,120.538,125.772,129.756,131.796,134.881,140.465,145.2458,147.319,151.361,156.145,164.669,170.439,173.182,177.9628,180.026,182.77,188.355,193.939,199.172,207.696,212.929,218.26,222.839,228.423,233.002,235.746,238.831,243.049,245.53900000000002,248.389,254.814,259.598,268.121,272.905,278.68179999999995,280.765,284.807,290.577,295.156,299.393,302.478,306.052,311.285,315.327,319.564,324.797,330.568,336.1456,338.163,340.907,345.0902,347.224,351.266,357.055,359.799,362.884,367.668,372.97,375.713,380.4938,382.557,385.711,390.944,394.928,396.968,400.053,405.638,410.4188,412.482,421.005,425.584,430.368,434.411,440.2,443.783,448.362,456.886,461.465,467.049,470.3358,472.4,477.633,480.9198,483.052,487.836,493.205,498.995,503.574,508.807,514.597" svgx:width="0.33,0.55,0.29,0.48,0.4,0.5,0.58,0.44,0.48,0.55,0.33,0.55,0.4,0.55,0.33,0.58,0.48,0.55,0.42,0.5,0.88,0.6,0.29,0.48,0.55,0.29,0.58,0.58,0.55,0.88,0.55,0.56,0.48,0.58,0.48,0.29,0.33,0.56,0.25,0.55,0.67,0.5,0.88,0.5,0.58,0.55,0.42,0.6,0.48,0.44,0.33,0.4,0.55,0.42,0.44,0.55,0.6,0.56,0.55,0.29,0.42,0.55,0.42,0.6,0.29,0.33,0.5,0.55,0.29,0.48,0.55,0.33,0.55,0.4,0.55,0.33,0.58,0.48,0.55,0.88,0.48,0.5,0.42,0.6,0.4,0.48,0.88,0.48,0.58,0.33,0.55,0.55,0.33,0.55,0.5,0.56,0.6,0.48,0.55,0.6,0.42" style="fill:rgb(0,0,0);font-family:URWPalladioL-Roma;font-size:9.96px;stroke:none;">tolerance for the sample inhomogeneity. Raman spectroscopy is suitable for the measurement of aqueous</text>
   <text y="422.074" x="76.535,80.622,85.46,94.079,99.914,102.688,107.319,111.406,113.896,116.254,121.615,127.469,130.7558,133.058,136.247,141.538,145.52200000000002,147.808,151.895,154.669,163.289,166.063,168.837,173.675,177.65900000000002,179.954,184.792,190.439,195.277,198.051,203.442,206.562,209.336,213.621,218.459,221.3474,223.701,228.539,234.374,240.209,242.983,245.757,250.042,254.88,258.0,260.774,266.066,271.713,275.8962,278.279,284.775,289.613,298.232,303.07,308.8468,311.185,313.96,319.607,323.694,326.814,330.536,336.391,345.01,349.64,355.288,358.408,363.245,366.365,369.139,374.431,380.20779999999996,382.547,385.321,389.5042,391.887,397.179,400.368,403.487,408.118,413.8948,416.233,424.852,430.144,433.768,438.54879999999997,440.866,445.497,450.492,456.327,460.958,466.605,470.693,473.467,478.946,483.577,486.067,489.036,494.427,497.201,502.849,507.686,510.461,513.235,517.52" svgx:width="0.42,0.5,0.88,0.6,0.29,0.48,0.42,0.25,0.55,0.55,0.6,0.33,0.55,0.33,0.55,0.4,0.55,0.42,0.29,0.88,0.29,0.29,0.5,0.4,0.55,0.5,0.58,0.5,0.29,0.56,0.33,0.29,0.44,0.5,0.29,0.55,0.5,0.6,0.6,0.29,0.29,0.44,0.5,0.33,0.29,0.55,0.58,0.42,0.55,0.67,0.5,0.88,0.5,0.58,0.55,0.29,0.58,0.42,0.33,0.4,0.6,0.88,0.48,0.58,0.33,0.5,0.33,0.29,0.55,0.58,0.55,0.29,0.42,0.55,0.55,0.33,0.33,0.48,0.58,0.55,0.88,0.55,0.4,0.48,0.55,0.48,0.52,0.6,0.48,0.58,0.42,0.29,0.56,0.48,0.25,0.55,0.56,0.29,0.58,0.5,0.29,0.29,0.56,0.25" style="fill:rgb(0,0,0);font-family:URWPalladioL-Roma;font-size:9.96px;stroke:none;">samples, but for similar analytical applications Raman instrumentation is often more expensive. Finally,</text>
   <text y="435.583" x="76.535,79.368,85.14479999999999,87.585,95.862,99.159,105.8322,108.243,112.417,118.376,123.104,127.48,130.666,134.366,139.77,143.944,148.32,153.724,159.683,164.078,166.568,168.958,173.938,176.348,180.522,183.708,187.408,192.812,198.579,204.084,206.917,212.4946,214.872,219.046,222.232,225.065,233.867,239.846,242.679,247.619,250.805,255.534,261.6096,264.043,270.102,274.831,280.426,285.155,287.988,293.392,299.351,308.152,312.881,318.648,321.93480000000005,324.284,327.54,332.944,336.928,339.276,348.078,350.911,356.678,359.511,364.451,367.637,373.616,377.497,380.33,385.27,390.211,393.397,396.23,401.634,407.4108,409.851" svgx:width="0.29,0.58,0.55,0.83,0.34,0.67,0.55,0.42,0.6,0.48,0.44,0.33,0.4,0.55,0.42,0.44,0.55,0.6,0.56,0.25,0.55,0.5,0.55,0.42,0.33,0.4,0.55,0.58,0.56,0.29,0.56,0.55,0.42,0.33,0.29,0.88,0.6,0.29,0.5,0.33,0.48,0.61,0.55,0.61,0.48,0.56,0.48,0.29,0.55,0.6,0.88,0.48,0.58,0.33,0.55,0.33,0.55,0.4,0.55,0.88,0.29,0.58,0.29,0.5,0.33,0.6,0.4,0.29,0.5,0.5,0.33,0.29,0.55,0.58,0.55,0.33" style="fill:rgb(0,0,0);font-family:URWPalladioL-Roma;font-size:9.96px;stroke:none;">in NIR spectroscopy, a strongly stimulated development for miniaturization [</text>
   <text y="435.583" x="413.104,417.986" svgx:width="0.5,0.5" style="fill:rgb(8,117,183);font-family:URWPalladioL-Roma;font-size:9.96px;stroke:none;">20</text>
   <text y="435.583" x="422.868" svgx:width="0.25" style="fill:rgb(0,0,0);font-family:URWPalladioL-Roma;font-size:9.96px;stroke:none;">,</text>
   <text y="435.583" x="425.287,430.169" svgx:width="0.5,0.5" style="fill:rgb(8,117,183);font-family:URWPalladioL-Roma;font-size:9.96px;stroke:none;">21</text>
   <text y="435.583" x="435.051,438.3378,440.758,446.524,451.465,455.6482,458.089,462.464,468.443,471.276,480.078,482.911,488.678,493.618,496.804,501.533,507.6086,510.042,512.875" svgx:width="0.33,0.55,0.58,0.5,0.42,0.55,0.44,0.6,0.29,0.88,0.29,0.58,0.5,0.33,0.48,0.61,0.55,0.29,0.58" style="fill:rgb(0,0,0);font-family:URWPalladioL-Roma;font-size:9.96px;stroke:none;">] has culminated in</text>
   <text y="449.093" x="76.535,82.348,85.203,90.751,96.564,99.42,104.9976,107.488,112.467,115.75,119.032,124.479,128.208,134.315,139.295,144.813,147.668,152.4488,154.964,163.835,166.691,171.101,174.831,180.277,183.56,187.767,193.772,198.538,202.948,206.16,209.889,215.336,224.207,228.973,232.184,236.95,240.862,245.069,247.559,250.048,258.422,264.234,267.09,271.5,277.2768,279.833,284.812,288.542,293.3228,295.828,300.807,306.447,311.426,314.281,317.137,322.116,327.634,330.49,335.2708,337.776,343.802,349.614,355.721,360.487,364.471,366.92,371.899,376.878,381.858,384.378,392.182,397.415,405.0842,407.709,413.522,418.969,427.342,432.321,438.429,443.408,448.956,453.1392,455.684" svgx:width="0.58,0.29,0.56,0.58,0.29,0.56,0.55,0.5,0.33,0.33,0.55,0.4,0.61,0.5,0.55,0.29,0.48,0.55,0.88,0.29,0.44,0.4,0.55,0.33,0.42,0.6,0.48,0.44,0.33,0.4,0.55,0.88,0.48,0.33,0.48,0.4,0.42,0.25,0.55,0.83,0.58,0.29,0.44,0.58,0.55,0.5,0.4,0.48,0.55,0.5,0.56,0.5,0.29,0.29,0.5,0.55,0.29,0.48,0.55,0.6,0.58,0.61,0.48,0.4,0.55,0.5,0.5,0.5,0.55,0.78,0.52,0.77,0.55,0.58,0.55,0.83,0.5,0.61,0.5,0.56,0.42,0.55,0.33" style="fill:rgb(0,0,0);font-family:URWPalladioL-Roma;font-size:9.96px;stroke:none;">highly affordable micro-spectrometers, which are available under 300 USD nowadays [</text>
   <text y="449.093" x="458.962,463.844" svgx:width="0.5,0.5" style="fill:rgb(8,117,183);font-family:URWPalladioL-Roma;font-size:9.96px;stroke:none;">22</text>
   <text y="449.093" x="468.726,472.008,474.498,477.679,481.002,486.7788,489.334,494.314,496.834,501.041,504.252,508.164,511.02,515.43" svgx:width="0.33,0.25,0.55,0.34,0.58,0.55,0.5,0.55,0.42,0.33,0.4,0.29,0.44,0.33" style="fill:rgb(0,0,0);font-family:URWPalladioL-Roma;font-size:9.96px;stroke:none;">]. In a strict</text>
   <text y="462.602" x="76.535,81.383,87.229,93.076,95.856,98.636,102.929,107.777,110.903,113.683,118.985,124.7618,127.107,130.233,135.711,137.999,146.636,151.276,154.055,158.903,167.539,170.319,175.978,180.7588,183.081,189.027,193.667,196.793,201.432,205.726,208.852,211.632,216.935,222.593,228.489,233.931,239.797,244.645,250.303,253.429,256.209,259.335,264.183,267.309,270.089,275.391,281.05,283.54,285.888,290.735,293.515,296.4034,298.748,301.875,307.533,311.164,315.804,320.5848,322.907,326.033,330.673,334.966,340.625,346.284,349.063,354.505,360.371,365.011,369.1942,371.57,377.228,382.076,387.566,392.3468,394.669,400.041,404.681,409.321,415.0978,417.443,421.538,427.405,431.698,435.992,440.632,444.727,448.823,452.018,457.885,460.665,463.445,469.0226,471.309,477.176,481.271,485.911,491.9866,494.31,497.09,502.86679999999996,505.212,508.338,513.997" svgx:width="0.5,0.6,0.6,0.29,0.29,0.44,0.5,0.33,0.29,0.55,0.58,0.55,0.33,0.55,0.55,0.88,0.48,0.29,0.5,0.88,0.29,0.58,0.48,0.55,0.61,0.48,0.33,0.48,0.44,0.33,0.29,0.55,0.58,0.61,0.56,0.6,0.5,0.58,0.33,0.29,0.33,0.5,0.33,0.29,0.55,0.58,0.25,0.55,0.5,0.29,0.29,0.55,0.33,0.58,0.4,0.48,0.48,0.55,0.33,0.48,0.44,0.58,0.58,0.29,0.56,0.6,0.48,0.42,0.55,0.58,0.5,0.56,0.48,0.55,0.55,0.48,0.48,0.58,0.55,0.42,0.6,0.44,0.44,0.48,0.42,0.42,0.33,0.6,0.29,0.29,0.56,0.55,0.6,0.42,0.48,0.61,0.55,0.29,0.58,0.55,0.33,0.58,0.48" style="fill:rgb(0,0,0);font-family:URWPalladioL-Roma;font-size:9.96px;stroke:none;">application to melamine detection/quantitation, all three techniques have been successfully used in the</text>
   <text y="476.112" x="76.535,79.351,82.168,85.335,90.035,93.894,98.805,101.972,107.915,111.593,116.3738,118.759,123.67,126.907,129.397,132.38,140.618,145.99,154.248,158.949,164.511,169.212,172.329,174.81900000000002,177.2,185.428,188.705,195.37820000000002,197.766,201.915,207.838,212.539,216.888,220.055,223.734,229.106,233.255,237.605,242.977,248.9,254.4776,256.838,262.861,267.562,276.311,281.683,287.416,291.565,294.732,298.591,303.502,306.669,311.369,315.5522,317.984,321.151,326.884,331.6648,334.05,339.492,344.193,348.342,351.6288,353.975,358.886,364.618,369.529,372.346,377.818,380.985,383.801,388.151,393.062,395.9504,398.344,404.267,408.967,412.826,416.063,421.435,425.294,434.043,438.954,444.687,449.037,453.8178,456.203,459.019,464.7958,467.217,470.385,476.117,478.934,483.1172,485.548,489.898,494.809,498.958,503.7388,506.124" svgx:width="0.29,0.29,0.33,0.48,0.4,0.5,0.33,0.6,0.4,0.48,0.55,0.5,0.33,0.25,0.55,0.83,0.55,0.83,0.48,0.56,0.48,0.4,0.25,0.55,0.83,0.34,0.67,0.55,0.42,0.6,0.48,0.44,0.33,0.4,0.55,0.42,0.44,0.55,0.6,0.56,0.55,0.61,0.48,0.88,0.55,0.58,0.42,0.33,0.4,0.5,0.33,0.48,0.42,0.55,0.33,0.58,0.48,0.55,0.55,0.48,0.42,0.33,0.55,0.5,0.58,0.5,0.29,0.56,0.33,0.29,0.44,0.5,0.29,0.55,0.6,0.48,0.4,0.33,0.55,0.4,0.88,0.5,0.58,0.44,0.48,0.55,0.29,0.58,0.55,0.33,0.58,0.29,0.42,0.55,0.44,0.5,0.42,0.48,0.55,0.33" style="fill:rgb(0,0,0);font-family:URWPalladioL-Roma;font-size:9.96px;stroke:none;">literature 9]. However, NIR spectroscopy demonstrates the best analytical performance in this case [</text>
   <text y="476.112" x="509.362" svgx:width="0.5" style="fill:rgb(8,117,183);font-family:URWPalladioL-Roma;font-size:9.96px;stroke:none;">9</text>
   <text y="476.112" x="514.243,517.48" svgx:width="0.33,0.25" style="fill:rgb(0,0,0);font-family:URWPalladioL-Roma;font-size:9.96px;stroke:none;">],</text>
   <text y="489.621" x="76.535,81.875,87.6518,90.044,93.192,98.532,104.508,106.881,112.221,115.5078,117.91,120.699,123.847,128.0302,130.443,136.331,140.166,145.048,149.372,152.52,155.319,159.643,164.525,167.4134,169.785,174.667,180.654,186.183,191.065,196.764,199.912,204.794,210.233,214.906,219.0892,221.501" svgx:width="0.55,0.58,0.55,0.33,0.55,0.6,0.55,0.55,0.33,0.55,0.29,0.33,0.42,0.55,0.6,0.4,0.5,0.44,0.33,0.29,0.44,0.5,0.29,0.55,0.5,0.61,0.56,0.5,0.58,0.33,0.5,0.56,0.48,0.42,0.55,0.33" style="fill:rgb(0,0,0);font-family:URWPalladioL-Roma;font-size:9.96px;stroke:none;">on top of its practical advantages [</text>
   <text y="489.621" x="224.719,229.6" svgx:width="0.5,0.5" style="fill:rgb(8,117,183);font-family:URWPalladioL-Roma;font-size:9.96px;stroke:none;">23</text>
   <text y="489.621" x="234.482" svgx:width="0.25" style="fill:rgb(0,0,0);font-family:URWPalladioL-Roma;font-size:9.96px;stroke:none;">,</text>
   <text y="489.621" x="236.873,241.755" svgx:width="0.5,0.5" style="fill:rgb(8,117,183);font-family:URWPalladioL-Roma;font-size:9.96px;stroke:none;">24</text>
   <text y="489.621" x="246.636,249.854" svgx:width="0.33,0.25" style="fill:rgb(0,0,0);font-family:URWPalladioL-Roma;font-size:9.96px;stroke:none;">].</text>
   <text y="503.13" x="97.795,104.006,109.903,114.6838,117.248,123.145,128.211,131.514,137.624,141.443,146.2238,148.789,154.321,157.6078,160.188,168.607,172.022,178.6952,181.272,185.568,191.658,196.511,201.009,204.312,208.314,213.29399999999998,215.873,219.247,224.779,230.503,235.357,239.359,242.307,247.373,253.007,255.955,261.852,267.4296,269.978,275.51,281.234,286.087,290.09,293.393,298.925,304.821,309.675,313.8582,316.453,321.519,327.416,333.4916,336.099,340.597,346.129,355.076,360.679,363.627,369.524,374.59,377.893,380.841,386.374,392.27,396.566,399.8528,402.433" svgx:width="0.61,0.58,0.48,0.55,0.58,0.5,0.33,0.6,0.4,0.48,0.55,0.55,0.33,0.55,0.83,0.34,0.67,0.55,0.42,0.6,0.48,0.44,0.33,0.4,0.5,0.55,0.33,0.55,0.56,0.48,0.4,0.29,0.5,0.56,0.29,0.58,0.56,0.55,0.55,0.56,0.48,0.4,0.33,0.55,0.58,0.48,0.42,0.55,0.5,0.58,0.61,0.55,0.44,0.55,0.88,0.55,0.29,0.58,0.5,0.33,0.29,0.55,0.58,0.42,0.33,0.55,0.33" style="fill:rgb(0,0,0);font-family:URWPalladioL-Roma;font-size:9.96px;stroke:none;">The nature of NIR spectra (overlaying overtones and combinations) [</text>
   <text y="503.13" x="405.806,410.787" svgx:width="0.5,0.5" style="fill:rgb(8,117,183);font-family:URWPalladioL-Roma;font-size:9.96px;stroke:none;">16</text>
   <text y="503.13" x="415.768" svgx:width="0.5" style="fill:rgb(0,0,0);font-family:URWPalladioL-Roma;font-size:9.96px;stroke:none;">–</text>
   <text y="503.13" x="420.834,425.815" svgx:width="0.5,0.5" style="fill:rgb(8,117,183);font-family:URWPalladioL-Roma;font-size:9.96px;stroke:none;">18</text>
   <text y="503.13" x="430.797,434.08380000000005,436.663,439.612,444.678,448.498,454.131,458.984,461.932,467.50960000000003,470.058,473.007,475.955,484.902,487.85,491.153,495.3362,497.931,501.234,507.131,511.984,514.933" svgx:width="0.33,0.55,0.29,0.5,0.4,0.56,0.48,0.29,0.56,0.55,0.29,0.29,0.88,0.29,0.33,0.42,0.55,0.33,0.58,0.48,0.29,0.4" style="fill:rgb(0,0,0);font-family:URWPalladioL-Roma;font-size:9.96px;stroke:none;">] largely limits their</text>
   <text y="516.64" x="76.535,79.492,85.406,88.719,93.587,97.601,103.708,107.539,112.406,115.719,120.8,126.42,129.377,132.334,135.291,138.604,144.1816,147.78" svgx:width="0.29,0.58,0.33,0.48,0.4,0.6,0.4,0.48,0.33,0.5,0.55,0.29,0.29,0.29,0.33,0.56,0.55,0.33" style="fill:rgb(0,0,0);font-family:URWPalladioL-Roma;font-size:9.96px;stroke:none;">interpretability [</text>
   <text y="516.64" x="151.164,156.145" svgx:width="0.5,0.5" style="fill:rgb(8,117,183);font-family:URWPalladioL-Roma;font-size:9.96px;stroke:none;">25</text>
   <text y="516.64" x="161.127" svgx:width="0.25" style="fill:rgb(0,0,0);font-family:URWPalladioL-Roma;font-size:9.96px;stroke:none;">,</text>
   <text y="516.64" x="163.668,168.649" svgx:width="0.5,0.5" style="fill:rgb(8,117,183);font-family:URWPalladioL-Roma;font-size:9.96px;stroke:none;">26</text>
   <text y="516.64" x="173.63,177.014,179.50400000000002,185.743,192.948,198.862,203.729,212.702,218.251,227.224,232.091,235.404,239.418,242.375,246.7574,250.413,259.386,264.253,267.566,273.48,279.029,285.238,289.4212,293.072,299.281,304.759,308.346,314.26,319.808,323.0948,326.647,332.754,336.585,342.134,347.875,350.832,357.041,361.8218,365.435,371.542,377.456,383.106,387.415,390.372,394.884,399.965,402.85339999999997,406.448,409.405,415.319,419.628,422.585,428.235,434.149,437.462,441.6452,445.297,450.845,456.6218,460.286,463.598,469.512,474.2928,477.896,482.977,488.891,493.972,496.929,502.579,507.66,512.528" svgx:width="0.33,0.25,0.55,0.71,0.58,0.48,0.88,0.55,0.88,0.48,0.33,0.4,0.29,0.44,0.55,0.88,0.48,0.33,0.58,0.55,0.61,0.42,0.55,0.61,0.55,0.55,0.58,0.55,0.33,0.55,0.6,0.4,0.55,0.56,0.29,0.61,0.48,0.55,0.6,0.58,0.56,0.42,0.29,0.44,0.5,0.29,0.55,0.29,0.58,0.42,0.29,0.56,0.58,0.33,0.42,0.55,0.55,0.58,0.55,0.33,0.58,0.48,0.55,0.5,0.58,0.5,0.29,0.56,0.5,0.48,0.61" style="fill:rgb(0,0,0);font-family:URWPalladioL-Roma;font-size:9.96px;stroke:none;">]. Chemometric methods do not provide physical insights on the analyzed</text>
   <text y="530.149" x="76.535,80.844,85.925,94.897,101.005,103.962,108.829,111.31899999999999,116.166,121.247,127.161,133.2366,137.699,146.144,149.568,156.24120000000002,160.695,165.004,171.111,175.979,180.491,183.804,187.635,193.183,197.492,202.003,207.552,213.659,219.23659999999998,223.648,226.605,230.7882,235.243,240.791,244.175,247.488,252.355,258.1318,262.609,268.736,273.045,277.912,283.9876,288.45,293.531,297.7142,302.179,307.159,311.589,316.67,322.289,325.246,330.327,334.839,340.489,343.873,349.493,355.041,360.284,365.365,367.855,376.523,379.948,385.72479999999996,390.201,394.713,400.261,406.175,409.488,413.502,418.583,422.892,426.204,428.694,433.541,436.925,442.473,446.457,450.816,454.241,460.9142,465.368,470.449,476.363,482.4386,486.901,493.689,498.77,507.743,512.824" svgx:width="0.42,0.5,0.88,0.6,0.29,0.48,0.25,0.55,0.5,0.58,0.61,0.55,0.83,0.34,0.67,0.55,0.42,0.6,0.48,0.44,0.33,0.4,0.55,0.42,0.44,0.55,0.6,0.56,0.55,0.29,0.42,0.55,0.55,0.33,0.33,0.48,0.58,0.55,0.6,0.42,0.48,0.61,0.55,0.5,0.42,0.55,0.5,0.55,0.5,0.55,0.29,0.5,0.44,0.56,0.33,0.55,0.55,0.52,0.5,0.25,0.55,0.34,0.58,0.55,0.44,0.55,0.58,0.33,0.4,0.5,0.42,0.33,0.25,0.55,0.33,0.55,0.4,0.55,0.34,0.67,0.55,0.5,0.58,0.61,0.55,0.67,0.5,0.88,0.5,0.58" style="fill:rgb(0,0,0);font-family:URWPalladioL-Roma;font-size:9.96px;stroke:none;">sample, and NIR spectroscopy is often used as a “black-box”. In contrast, for IR and Raman</text>
   <text y="543.658" x="76.535,80.844,86.951,91.818,96.33,99.643,103.474,109.022,113.331,117.843,123.391,129.499,134.051,136.541,139.427,142.739,148.654,151.611,155.7942,158.683,161.641,164.598,173.571,176.528,179.84,184.921,188.234,191.191,196.74,202.51680000000002,205.418,208.375,212.5582,215.447,218.405,223.272,227.581,231.7642,234.653,238.962,243.83,249.571,254.438,258.28,263.0608,265.911,272.12,278.248,283.0288,285.879,289.192,294.67,297.515,300.472,303.774,307.9572,310.857,319.83,325.378,329.209,333.9898,336.841,341.15,344.107,353.08,359.187,362.144,366.9248,369.786,374.094,380.202,385.069,389.581,392.894,396.908,401.88800000000003,404.753,413.228,416.185,419.497,425.2738,428.176,437.149,440.106,443.063,449.272,454.139,458.123,460.917,464.301,470.429,476.343,482.552,487.633,496.606,501.473,507.387,510.7,515.781" svgx:width="0.42,0.6,0.48,0.44,0.33,0.4,0.55,0.42,0.44,0.55,0.6,0.56,0.25,0.55,0.33,0.58,0.29,0.42,0.55,0.29,0.29,0.88,0.29,0.33,0.5,0.33,0.29,0.55,0.58,0.55,0.29,0.42,0.55,0.29,0.48,0.42,0.42,0.55,0.42,0.48,0.56,0.48,0.4,0.48,0.55,0.61,0.6,0.48,0.55,0.33,0.55,0.55,0.29,0.33,0.42,0.55,0.88,0.55,0.4,0.48,0.55,0.42,0.29,0.88,0.6,0.29,0.48,0.55,0.42,0.6,0.48,0.44,0.33,0.4,0.5,0.55,0.83,0.29,0.33,0.58,0.55,0.88,0.29,0.29,0.61,0.48,0.4,0.55,0.33,0.6,0.58,0.61,0.5,0.88,0.48,0.58,0.33,0.5,0.29" style="fill:rgb(0,0,0);font-family:URWPalladioL-Roma;font-size:9.96px;stroke:none;">spectroscopy, this limitation is less severe due to its more simple spectra with milder fundamental</text>
   <text y="557.168" x="76.535,82.155,87.235,93.15,99.2256,102.56,108.108,113.849,118.717,122.731,125.688,130.769,136.876,142.983,145.94,151.855,157.43259999999998,160.695" svgx:width="0.55,0.5,0.58,0.61,0.55,0.55,0.56,0.48,0.4,0.29,0.5,0.6,0.6,0.29,0.58,0.56,0.55,0.33" style="fill:rgb(0,0,0);font-family:URWPalladioL-Roma;font-size:9.96px;stroke:none;">band overlapping [</text>
   <text y="557.168" x="164.08,169.061" svgx:width="0.5,0.5" style="fill:rgb(8,117,183);font-family:URWPalladioL-Roma;font-size:9.96px;stroke:none;">27</text>
   <text y="557.168" x="174.043" svgx:width="0.25" style="fill:rgb(0,0,0);font-family:URWPalladioL-Roma;font-size:9.96px;stroke:none;">,</text>
   <text y="557.168" x="176.583,181.564" svgx:width="0.5,0.5" style="fill:rgb(8,117,183);font-family:URWPalladioL-Roma;font-size:9.96px;stroke:none;">28</text>
   <text y="557.168" x="186.546,189.93,192.42000000000002,197.673,204.878,210.426,213.383,219.298,223.81,226.767,232.975,237.843,243.757,247.07,250.027,254.569,257.05899999999997,260.484,266.174,272.302,277.383,283.297,286.61,292.737,301.5018,304.911,309.423,315.337,320.205,329.178,332.135,336.443,339.756,343.77,349.3476,352.611,358.159,361.37,364.744,369.612,373.626,377.8092,381.135,386.216,389.417,392.801,398.349,402.18,408.389,413.47,419.09,422.047,426.8278,430.115,439.088,443.956,447.269,453.183,458.731,464.94,469.1232,472.44,475.823,481.738,486.819,490.832,499.805,505.354,511.268,514.225" svgx:width="0.33,0.25,0.55,0.71,0.55,0.29,0.58,0.44,0.29,0.61,0.48,0.58,0.33,0.29,0.56,0.25,0.55,0.56,0.6,0.5,0.58,0.33,0.6,0.88,0.55,0.44,0.58,0.48,0.88,0.29,0.42,0.33,0.4,0.56,0.55,0.55,0.33,0.33,0.48,0.4,0.42,0.55,0.5,0.33,0.33,0.55,0.4,0.61,0.5,0.55,0.29,0.48,0.55,0.88,0.48,0.33,0.58,0.55,0.61,0.42,0.55,0.33,0.58,0.5,0.4,0.88,0.55,0.58,0.29,0.44" style="fill:rgb(0,0,0);font-family:URWPalladioL-Roma;font-size:9.96px;stroke:none;">]. Coincidently, quantum chemistry offers affordable methods (harmonic</text>
   <text y="570.677" x="76.535,81.586,87.657,93.729,97.537,103.053,108.266,111.205,120.125,125.177,128.47,131.409,136.925,142.805,146.0918,148.674,152.038,157.554,161.538,164.039,167.332,173.212,177.9928,180.556,185.607,191.779,196.618,202.276,208.367,213.418,216.711,221.55,224.49,230.0676,232.612,237.663,242.148,246.634,252.725,256.716,261.767,265.06,269.8408,272.394,276.677,279.617,288.537,294.629,297.568,302.619,305.913,308.852,314.368,320.1448,322.753,328.269,331.55580000000003,334.128,337.532,344.2052,346.786,351.837,357.716,363.7916,366.394,373.142,378.193,387.113,392.164,397.94079999999997,400.539,404.822,410.893,415.732,420.218,423.511,427.501,432.481,435.058" svgx:width="0.5,0.6,0.6,0.4,0.55,0.52,0.29,0.88,0.5,0.33,0.29,0.55,0.58,0.33,0.55,0.33,0.55,0.4,0.55,0.33,0.58,0.48,0.55,0.5,0.61,0.48,0.56,0.6,0.5,0.33,0.48,0.29,0.56,0.55,0.5,0.44,0.44,0.6,0.4,0.5,0.33,0.48,0.55,0.42,0.29,0.88,0.6,0.29,0.5,0.33,0.29,0.55,0.58,0.55,0.55,0.33,0.55,0.34,0.67,0.55,0.5,0.58,0.61,0.55,0.67,0.5,0.88,0.5,0.58,0.55,0.42,0.6,0.48,0.44,0.33,0.4,0.5,0.55,0.33" style="fill:rgb(0,0,0);font-family:URWPalladioL-Roma;font-size:9.96px;stroke:none;">approximation) for the adequately accurate simulation of IR and Raman spectra [</text>
   <text y="570.677" x="438.422,443.403" svgx:width="0.5,0.5" style="fill:rgb(8,117,183);font-family:URWPalladioL-Roma;font-size:9.96px;stroke:none;">29</text>
   <text y="570.677" x="448.384" svgx:width="0.25" style="fill:rgb(0,0,0);font-family:URWPalladioL-Roma;font-size:9.96px;stroke:none;">,</text>
   <text y="570.677" x="450.91,455.891" svgx:width="0.5,0.5" style="fill:rgb(8,117,183);font-family:URWPalladioL-Roma;font-size:9.96px;stroke:none;">30</text>
   <text y="570.677" x="460.873,464.237,466.72700000000003,469.884,473.288,479.0648,481.673,486.158,491.674,497.554,500.847,504.837,509.888,514.172,517.465" svgx:width="0.33,0.25,0.55,0.34,0.58,0.55,0.44,0.55,0.58,0.33,0.4,0.5,0.42,0.33,0.25" style="fill:rgb(0,0,0);font-family:URWPalladioL-Roma;font-size:9.96px;stroke:none;">]. In contrast,</text>
   <text y="584.187" x="76.236,82.343,86.174,91.042,97.251,100.208,104.72,108.032,110.99,116.538,122.31479999999999,125.297,130.846,134.1328,137.065,145.509,148.934,155.6072,158.557,164.177,169.258,175.172,181.381,185.5642,188.525,192.356,197.223,202.914,209.041,211.998,215.84,220.6208,223.542,227.373,232.241,236.549,242.098,248.225,252.067,256.568,261.3488,264.281,267.238,273.152,276.465,281.333,287.247,291.555,294.513,300.254,305.0348,307.957,313.038,318.952,324.866,329.947,333.961,342.934,348.482,354.396,357.353,361.7354,364.7,373.673,378.541,381.854,387.768,393.316,399.525,403.7082,406.669" svgx:width="0.6,0.4,0.48,0.61,0.29,0.44,0.33,0.29,0.55,0.58,0.55,0.55,0.33,0.55,0.83,0.34,0.67,0.55,0.55,0.5,0.58,0.61,0.42,0.55,0.4,0.48,0.56,0.6,0.29,0.4,0.48,0.55,0.4,0.48,0.42,0.55,0.6,0.4,0.44,0.48,0.55,0.29,0.58,0.33,0.48,0.58,0.42,0.29,0.56,0.48,0.55,0.5,0.58,0.58,0.5,0.4,0.88,0.55,0.58,0.29,0.44,0.55,0.88,0.48,0.33,0.58,0.55,0.61,0.42,0.55,0.33" style="fill:rgb(0,0,0);font-family:URWPalladioL-Roma;font-size:9.96px;stroke:none;">prediction of NIR bands require resource intensive anharmonic methods [</text>
   <text y="584.187" x="410.054,415.035" svgx:width="0.5,0.5" style="fill:rgb(8,117,183);font-family:URWPalladioL-Roma;font-size:9.96px;stroke:none;">31</text>
   <text y="584.187" x="420.016" svgx:width="0.25" style="fill:rgb(0,0,0);font-family:URWPalladioL-Roma;font-size:9.96px;stroke:none;">,</text>
   <text y="584.187" x="422.557,427.538" svgx:width="0.5,0.5" style="fill:rgb(8,117,183);font-family:URWPalladioL-Roma;font-size:9.96px;stroke:none;">32</text>
   <text y="584.187" x="432.519,435.903,438.39300000000003,442.569,448.798,454.712,459.4928,462.415,468.624,471.581,474.792,478.166,483.034,486.875,491.742,497.656,502.168,506.9488,509.871,512.828" svgx:width="0.33,0.25,0.55,0.61,0.58,0.48,0.55,0.61,0.29,0.33,0.33,0.48,0.4,0.48,0.58,0.44,0.48,0.55,0.29,0.58" style="fill:rgb(0,0,0);font-family:URWPalladioL-Roma;font-size:9.96px;stroke:none;">]. The difference in</text>
   <text y="597.696" x="76.535,80.227,84.918,89.07,94.417,100.323,104.005,108.353,113.1338,115.551,121.535,126.226,134.873,139.77,145.47,151.5456,153.951,157.212,162.911,167.808,171.676,180.324,185.671,191.37,194.22,198.6024,201.076,206.609,210.761,213.251,216.324,221.22,226.92,232.62,237.516,241.385,250.032,255.379,261.079,263.929,268.3114,270.784,275.68,281.566,287.452,291.144,296.491,301.544,304.394,313.042,317.938,321.131,323.981,329.328,335.027,338.3138,340.786,343.636,347.8192,350.285,354.438,357.288,362.733,368.432,371.282,377.207,381.555,386.452,392.151,395.344,397.834,400.299,405.196,410.896,416.9716,419.386,422.579,428.279,432.97,438.317,441.999,446.69,449.883,452.732,457.081,461.977,464.86539999999997,467.334,475.472,478.773,485.44620000000003,487.812,491.964,495.157,501.062,507.046,509.896,514.586" svgx:width="0.4,0.48,0.42,0.55,0.6,0.4,0.44,0.48,0.55,0.61,0.48,0.88,0.5,0.58,0.61,0.55,0.33,0.58,0.5,0.4,0.88,0.55,0.58,0.29,0.44,0.55,0.56,0.42,0.25,0.55,0.5,0.58,0.58,0.5,0.4,0.88,0.55,0.58,0.29,0.44,0.55,0.5,0.6,0.6,0.4,0.55,0.52,0.29,0.88,0.5,0.33,0.29,0.55,0.58,0.33,0.55,0.29,0.42,0.55,0.42,0.29,0.56,0.58,0.29,0.61,0.44,0.5,0.58,0.33,0.25,0.55,0.5,0.58,0.61,0.55,0.33,0.58,0.48,0.55,0.4,0.48,0.33,0.29,0.44,0.5,0.29,0.55,0.83,0.34,0.67,0.55,0.42,0.33,0.6,0.61,0.29,0.48,0.42" style="fill:rgb(0,0,0);font-family:URWPalladioL-Roma;font-size:9.96px;stroke:none;">resource demand (harmonic vs. anharmonic approximation) is signiﬁcant, and theoretical NIR studies</text>
   <text y="611.205" x="76.535,82.083,85.3698,88.241,92.753,98.302,107.275,113.382,116.339,121.207,126.38619999999999,129.234,138.207,143.756,146.713,151.58,156.092,162.22,165.177,170.044,174.2272,177.127,183.041,188.122,193.864,198.6448,201.505,207.054,212.968,215.925,221.5026,224.349,228.19,233.058,237.57,242.437,248.352,251.664,254.621,260.1986,263.046,268.127,274.234,280.341,285.209,290.29,294.121,298.988,305.0636,307.981" svgx:width="0.55,0.33,0.55,0.44,0.55,0.88,0.6,0.29,0.48,0.52,0.55,0.88,0.55,0.29,0.48,0.44,0.6,0.29,0.48,0.42,0.55,0.58,0.5,0.56,0.48,0.55,0.55,0.58,0.29,0.56,0.55,0.4,0.48,0.44,0.48,0.58,0.33,0.29,0.56,0.55,0.5,0.6,0.6,0.48,0.5,0.4,0.48,0.61,0.55,0.33" style="fill:rgb(0,0,0);font-family:URWPalladioL-Roma;font-size:9.96px;stroke:none;">of complex molecules have only recently appeared [</text>
   <text y="611.205" x="311.363,316.344" svgx:width="0.5,0.5" style="fill:rgb(8,117,183);font-family:URWPalladioL-Roma;font-size:9.96px;stroke:none;">33</text>
   <text y="611.205" x="321.326" svgx:width="0.5" style="fill:rgb(0,0,0);font-family:URWPalladioL-Roma;font-size:9.96px;stroke:none;">–</text>
   <text y="611.205" x="326.407,331.388" svgx:width="0.5,0.5" style="fill:rgb(8,117,183);font-family:URWPalladioL-Roma;font-size:9.96px;stroke:none;">38</text>
   <text y="611.205" x="336.369,339.753,342.243,346.246,352.455,357.536,360.849,365.716,368.674,373.216,375.706,378.602,387.077,391.8578,394.718,400.633,405.714,411.455,416.2358,419.107,422.938,427.805,433.913,439.461,443.475,446.788,451.655,457.7306,460.638,463.951,469.865,474.6458,477.517,483.208,489.335,494.416,500.33,503.643,509.771" svgx:width="0.33,0.25,0.55,0.61,0.5,0.33,0.48,0.29,0.56,0.25,0.55,0.83,0.48,0.55,0.58,0.5,0.56,0.48,0.55,0.4,0.48,0.6,0.55,0.4,0.33,0.48,0.61,0.55,0.33,0.58,0.48,0.55,0.56,0.6,0.5,0.58,0.33,0.6,0.88" style="fill:rgb(0,0,0);font-family:URWPalladioL-Roma;font-size:9.96px;stroke:none;">]. Lately, we have reported the quantum</text>
   <text y="624.715" x="76.535,85.508,90.375,94.887,100.802,105.882,111.797,114.754,119.266,124.347,127.2354,131.226,135.738,140.819,143.776,148.288,154.415,157.373,162.453,165.766,168.723,174.272,180.186,184.3692,188.407,193.955,197.2418,201.262,209.706,213.131,219.8042,223.841,228.15,234.257,239.125,243.636,246.939,250.953,255.933,259.956,265.505,268.7918,272.811,278.553,283.634,287.647,290.605,296.153,302.281,306.4642,310.512,319.485,325.033,327.98,332.847,337.359,343.487,346.444,351.311,355.4942,359.543,362.5,368.2768,372.336,376.645,382.193,385.15,391.278,394.591,397.548,403.096,409.01,411.5,415.829,418.786,421.743,427.434,433.561,436.519,442.727,445.217,449.536,454.617,460.531,466.6066,470.662,474.971,480.519,483.476,486.434,492.50960000000003,496.565,500.874,504.186,509.267,512.58,517.448" svgx:width="0.88,0.48,0.44,0.58,0.5,0.58,0.29,0.44,0.5,0.29,0.55,0.44,0.5,0.29,0.44,0.6,0.29,0.5,0.33,0.29,0.55,0.58,0.42,0.55,0.55,0.33,0.55,0.83,0.34,0.67,0.55,0.42,0.6,0.48,0.44,0.33,0.4,0.5,0.55,0.55,0.33,0.55,0.56,0.5,0.4,0.29,0.55,0.6,0.42,0.55,0.88,0.55,0.29,0.48,0.44,0.6,0.29,0.48,0.42,0.55,0.29,0.58,0.55,0.42,0.55,0.29,0.6,0.33,0.29,0.55,0.58,0.25,0.55,0.29,0.29,0.56,0.6,0.29,0.61,0.25,0.55,0.5,0.58,0.61,0.55,0.42,0.55,0.29,0.29,0.61,0.55,0.42,0.33,0.5,0.33,0.48,0.25" style="fill:rgb(0,0,0);font-family:URWPalladioL-Roma;font-size:9.96px;stroke:none;">mechanical calculations of NIR spectra of various molecules in solution, liquid, and solid state,</text>
   <text y="638.224" x="76.535,79.492,85.406,89.918,92.875,99.003,105.212,108.169,114.083,119.6606,122.365,126.674,132.588,138.136,142.15,145.463,148.7498,151.489" svgx:width="0.29,0.58,0.44,0.29,0.6,0.61,0.29,0.58,0.56,0.55,0.42,0.58,0.55,0.4,0.33,0.33,0.55,0.33" style="fill:rgb(0,0,0);font-family:URWPalladioL-Roma;font-size:9.96px;stroke:none;">including short- [</text>
   <text y="638.224" x="154.872,159.853" svgx:width="0.5,0.5" style="fill:rgb(8,117,183);font-family:URWPalladioL-Roma;font-size:9.96px;stroke:none;">34</text>
   <text y="638.224" x="164.834,168.218,170.708,173.431,182.404,187.271,193.48,196.437,202.565,211.538,214.8248,217.564" svgx:width="0.33,0.25,0.55,0.88,0.48,0.61,0.29,0.6,0.88,0.33,0.55,0.33" style="fill:rgb(0,0,0);font-family:URWPalladioL-Roma;font-size:9.96px;stroke:none;">], medium- [</text>
   <text y="638.224" x="220.943,225.924" svgx:width="0.5,0.5" style="fill:rgb(8,117,183);font-family:URWPalladioL-Roma;font-size:9.96px;stroke:none;">35</text>
   <text y="638.224" x="230.906,234.29,236.78,239.503,244.584,250.498,256.5736,259.339,262.296,267.844,273.759,279.409,282.792,287.304,293.218,298.299,301.257,307.0338,309.813" svgx:width="0.33,0.25,0.55,0.5,0.58,0.61,0.55,0.29,0.55,0.58,0.56,0.33,0.44,0.58,0.5,0.29,0.58,0.55,0.33" style="fill:rgb(0,0,0);font-family:URWPalladioL-Roma;font-size:9.96px;stroke:none;">], and long-chain [</text>
   <text y="638.224" x="313.196,318.177" svgx:width="0.5,0.5" style="fill:rgb(8,117,183);font-family:URWPalladioL-Roma;font-size:9.96px;stroke:none;">36</text>
   <text y="638.224" x="323.158,326.44480000000004,329.184,332.568,337.649,340.951,344.264,349.8416,352.556,357.637,362.149,365.106,371.315,375.624,378.11400000000003,381.69,387.92,393.834,398.701,403.01,407.7908,410.509,414.818,418.131,424.258,430.467,433.424,438.292,442.4752,445.243,449.754,455.303,461.43,464.387,470.4626,473.228,479.142,484.223,489.965,494.7458,497.474,503.094,507.962,512.829" svgx:width="0.33,0.55,0.33,0.5,0.33,0.33,0.56,0.55,0.5,0.44,0.29,0.61,0.42,0.25,0.55,0.61,0.58,0.48,0.42,0.48,0.55,0.42,0.33,0.6,0.61,0.29,0.48,0.42,0.55,0.44,0.55,0.6,0.29,0.61,0.55,0.58,0.5,0.56,0.48,0.55,0.55,0.48,0.48,0.58" style="fill:rgb(0,0,0);font-family:URWPalladioL-Roma;font-size:9.96px;stroke:none;">] fatty acids. These studies could have been</text>
   <text y="651.734" x="76.535,82.53,86.746,91.509,97.584,100.074,102.565,107.327,109.813,115.341,117.827,120.317,122.808,126.119,131.548,135.532,137.971,141.212,146.999,151.7798,154.257,157.15,162.937,166.178,170.941,174.868,180.844,184.592,189.355,192.596,197.567,200.809,203.702,209.131,214.9078,217.413,222.841,226.1278,228.648,231.889,237.676,242.4568,244.934,253.714,258.476,263.447,269.234,272.127,277.914,283.442,286.753,292.748,295.6364,298.137,306.4,309.75,316.4232,318.888,324.386,329.357,335.144,341.219,345.4022,347.93,351.172,356.958,361.93,365.21680000000003,367.667,370.56,376.346,382.392,388.387,393.15,398.936,403.351,408.1318,410.609,413.85,419.637,424.4178,426.895,431.31,437.096,441.859,450.638,456.067,464.846,469.609,472.85,476.777,479.671,484.0534,486.581,495.36,500.789,506.864,511.627,514.52" svgx:width="0.6,0.42,0.48,0.61,0.25,0.55,0.48,0.25,0.56,0.25,0.25,0.55,0.33,0.55,0.4,0.55,0.33,0.58,0.48,0.55,0.29,0.58,0.33,0.48,0.4,0.6,0.4,0.48,0.33,0.5,0.33,0.29,0.55,0.58,0.55,0.55,0.33,0.55,0.33,0.58,0.48,0.55,0.88,0.48,0.5,0.58,0.29,0.58,0.56,0.33,0.6,0.29,0.55,0.83,0.34,0.67,0.55,0.55,0.5,0.58,0.61,0.42,0.55,0.33,0.58,0.5,0.33,0.55,0.29,0.58,0.61,0.6,0.48,0.58,0.44,0.48,0.55,0.33,0.58,0.48,0.55,0.44,0.58,0.48,0.88,0.55,0.88,0.48,0.33,0.4,0.29,0.44,0.55,0.88,0.55,0.61,0.48,0.29,0.42" style="fill:rgb(0,0,0);font-family:URWPalladioL-Roma;font-size:9.96px;stroke:none;">used, e.g., for the interpretation of the meaningful NIR bands that inﬂuence the chemometric models</text>
   <text y="665.243" x="76.535,82.663,86.971,91.839,97.9146,100.923,103.881,109.6578,112.671,118.361,124.489,129.57,135.484,138.797,141.754,147.902,152.414,157.494,160.807,163.764,169.313,175.0898,178.093,183.641,186.9278,189.901,193.213,199.128,203.90879999999999,206.871,211.383,216.931,222.845,226.158,231.026,236.94,240.2268,243.128,248.677,251.9638,254.936,261.044,266.958,272.608,275.921,281.469,287.576,293.491,298.571,302.585,311.558,316.639,321.151,326.019,332.146,335.459,338.416,342.928,348.009,350.8974,353.842,358.354,363.902,372.875,378.982,384.531,390.648,396.562,402.771,406.9542,409.956,412.913,418.6898,421.703,427.617,432.698,436.01,442.138,446.152,451.233,454.1214,457.066,463.275,467.207,473.335,478.985,483.1682,486.169" svgx:width="0.6,0.42,0.48,0.61,0.55,0.29,0.58,0.55,0.56,0.6,0.5,0.58,0.33,0.29,0.61,0.44,0.5,0.33,0.29,0.55,0.58,0.55,0.55,0.33,0.55,0.33,0.58,0.48,0.55,0.44,0.55,0.58,0.33,0.48,0.58,0.33,0.55,0.55,0.33,0.55,0.6,0.58,0.56,0.33,0.55,0.6,0.58,0.5,0.4,0.88,0.5,0.44,0.48,0.6,0.33,0.29,0.44,0.5,0.29,0.55,0.44,0.55,0.88,0.6,0.55,0.6,0.58,0.61,0.42,0.55,0.29,0.58,0.55,0.58,0.5,0.33,0.6,0.4,0.5,0.29,0.55,0.61,0.4,0.6,0.56,0.42,0.55,0.33" style="fill:rgb(0,0,0);font-family:URWPalladioL-Roma;font-size:9.96px;stroke:none;">used in quantiﬁcation of the content of phytopharmaceutical compounds in natural drugs [</text>
   <text y="665.243" x="489.553,494.534" svgx:width="0.5,0.5" style="fill:rgb(8,117,183);font-family:URWPalladioL-Roma;font-size:9.96px;stroke:none;">37</text>
   <text y="665.243" x="499.516" svgx:width="0.5" style="fill:rgb(0,0,0);font-family:URWPalladioL-Roma;font-size:9.96px;stroke:none;">–</text>
   <text y="665.243" x="504.597,509.578" svgx:width="0.5,0.5" style="fill:rgb(8,117,183);font-family:URWPalladioL-Roma;font-size:9.96px;stroke:none;">39</text>
   <text y="665.243" x="514.559,517.943" svgx:width="0.33,0.25" style="fill:rgb(0,0,0);font-family:URWPalladioL-Roma;font-size:9.96px;stroke:none;">].</text>
   <text y="678.752" x="76.535,84.475,90.25179999999999,92.83,96.123,102.002,106.7828,109.326,114.842,118.135,124.015,128.854,132.83800000000002,135.319,141.198,146.249,152.129,158.301,160.791,163.312,167.595,170.535,179.455,185.546,188.486,193.537,196.831,199.77,205.286,211.165,215.3482,217.924,223.439,226.7258,229.278,232.683,239.3562,241.916,246.199,252.271,257.11,261.595,264.888,268.879,273.85900000000004,276.405,279.344,285.1208,287.699,292.184,296.174,301.791,306.074,309.368,314.419,317.358,320.298,323.238,329.117,333.8978,336.441,342.512,348.392,353.443,357.726,362.5068,365.04,368.333,374.213,379.264,382.55080000000004,385.042,391.134,395.417,400.1978,402.731,407.711,410.257,416.328,420.137,425.653,431.724,436.563,440.54699999999997,443.038,446.847,451.686,457.757,461.565,466.404,470.688,475.527,481.406,484.699,489.75,493.044,495.983,501.499,507.2758,509.863,515.379" svgx:width="0.79,0.58,0.55,0.33,0.58,0.48,0.55,0.55,0.33,0.58,0.48,0.4,0.55,0.58,0.5,0.58,0.61,0.25,0.55,0.42,0.29,0.88,0.6,0.29,0.5,0.33,0.29,0.55,0.58,0.42,0.55,0.55,0.33,0.55,0.34,0.67,0.55,0.42,0.6,0.48,0.44,0.33,0.4,0.5,0.55,0.29,0.58,0.55,0.44,0.4,0.56,0.42,0.33,0.5,0.29,0.29,0.29,0.58,0.48,0.55,0.6,0.58,0.5,0.42,0.48,0.55,0.33,0.58,0.5,0.33,0.55,0.6,0.42,0.48,0.55,0.5,0.55,0.6,0.4,0.55,0.6,0.48,0.4,0.55,0.4,0.48,0.6,0.4,0.48,0.42,0.48,0.58,0.33,0.5,0.33,0.29,0.55,0.58,0.55,0.55,0.33" style="fill:rgb(0,0,0);font-family:URWPalladioL-Roma;font-size:9.96px;stroke:none;">On the other hand, simulations of IR spectra in crystalline phase that use a proper representation of</text>
   <text y="692.262" x="76.535,79.434,85.232,91.26,97.058,99.957,103.205,107.9858,110.468,114.891,118.826,124.365,128.59,131.837,136.819,139.70739999999998,142.208,145.108,150.089,153.337,156.584,159.484,163.907,168.6878,171.17,176.679,182.2566,184.709,189.689,192.181,195.429,201.227,204.983,209.755,214.527,217.844,223.932,226.831,235.628,240.4,246.198,250.422,253.321,258.761,264.559,269.54,272.4284,274.93,278.248,283.229,290.94,294.2268,296.748,302.736,307.508,311.443,314.342,319.782,325.869,328.768,333.1504,335.682,344.479,349.919,356.006,360.778,363.6664,366.168,369.924,374.696,383.493,388.474,391.373,397.14979999999997,399.662,404.434,410.013,416.021,421.002,423.901,426.8,432.37760000000003,434.83,438.765,443.746,447.502,452.274" svgx:width="0.29,0.58,0.61,0.58,0.29,0.33,0.48,0.55,0.44,0.4,0.56,0.42,0.33,0.5,0.29,0.55,0.29,0.5,0.33,0.33,0.29,0.44,0.48,0.55,0.55,0.56,0.55,0.5,0.55,0.33,0.58,0.4,0.48,0.48,0.33,0.61,0.29,0.88,0.48,0.58,0.42,0.29,0.55,0.58,0.5,0.29,0.55,0.33,0.5,0.77,0.33,0.55,0.6,0.48,0.4,0.29,0.55,0.61,0.29,0.44,0.55,0.88,0.55,0.61,0.48,0.29,0.55,0.4,0.48,0.88,0.5,0.29,0.58,0.55,0.48,0.56,0.6,0.5,0.29,0.29,0.56,0.55,0.4,0.5,0.4,0.48,0.25" style="fill:rgb(0,0,0);font-family:URWPalladioL-Roma;font-size:9.96px;stroke:none;">inﬁnite crystal lattice by a three-dimensional (3D) periodic model remain equally rare.</text>
   <text y="705.771" x="97.795,101.152,106.9288,109.431,112.679,118.477,123.2578,125.72,128.619,131.518,134.766,139.538,143.474,148.455,151.703,157.71,161.466,166.2468,168.719,172.943,178.42100000000002,180.863,184.181,189.162,192.36,194.85000000000002,197.331,202.91,208.918,213.899,219.697,222.945,228.943,240.22,244.644,250.442,255.214,264.011,266.91,271.333,276.315,279.2034,281.695,286.118,291.099,293.998,298.422,304.429,307.328,312.31,315.557,318.457,323.896,329.6728,332.165,337.794,340.693,346.202,350.138,355.119,358.367,361.266,366.705,372.504,377.485,380.3734,382.865,387.089,390.337,396.344,402.431,405.33,410.102,414.2852,416.807,422.247,425.53380000000004,428.035,436.832,441.604,444.503,449.485,458.282,461.181,466.979,471.7598,474.232,480.03,485.011,490.64,495.4208,497.893,503.402,508.174,512.946" svgx:width="0.34,0.58,0.55,0.33,0.58,0.48,0.55,0.29,0.29,0.33,0.48,0.4,0.5,0.33,0.6,0.4,0.48,0.55,0.42,0.55,0.55,0.33,0.5,0.4,0.25,0.55,0.56,0.6,0.5,0.58,0.33,0.6,0.88,0.44,0.58,0.48,0.88,0.29,0.44,0.5,0.29,0.55,0.44,0.5,0.29,0.44,0.6,0.29,0.5,0.33,0.29,0.55,0.58,0.55,0.56,0.29,0.55,0.4,0.5,0.33,0.29,0.55,0.58,0.5,0.29,0.55,0.42,0.33,0.6,0.61,0.29,0.48,0.42,0.55,0.55,0.33,0.55,0.88,0.48,0.29,0.5,0.88,0.29,0.58,0.48,0.55,0.58,0.5,0.56,0.48,0.55,0.55,0.48,0.48,0.58" style="fill:rgb(0,0,0);font-family:URWPalladioL-Roma;font-size:9.96px;stroke:none;">In the literature so far, quantumchemical calculation vibrational studies of melamine have been</text>
   <text y="719.281" x="76.535,79.492,82.449,91.422,94.379,97.692,102.56,108.6356,112.203,115.516,120.994,124.499,130.647,136.561,139.518,142.831,147.6118,151.143,160.116,165.665,171.874,176.741,179.698,183.8812,187.441,192.522,198.437,204.51260000000002,208.08,213.994,219.075,223.089,232.062,237.611,243.525,246.482,250.8644,254.428,259.509,265.617,271.724,275.565,281.113,286.357,289.314,298.287,303.368,306.681,309.638,315.186,320.96279999999996,324.535" svgx:width="0.29,0.29,0.88,0.29,0.33,0.48,0.61,0.55,0.33,0.55,0.55,0.61,0.58,0.29,0.33,0.48,0.55,0.88,0.55,0.61,0.48,0.29,0.42,0.55,0.5,0.58,0.61,0.55,0.58,0.5,0.4,0.88,0.55,0.58,0.29,0.44,0.55,0.5,0.6,0.6,0.4,0.55,0.52,0.29,0.88,0.5,0.33,0.29,0.55,0.58,0.55,0.33" style="fill:rgb(0,0,0);font-family:URWPalladioL-Roma;font-size:9.96px;stroke:none;">limited to ﬁnite models and harmonic approximation [</text>
   <text y="719.281" x="327.918,332.899" svgx:width="0.5,0.5" style="fill:rgb(8,117,183);font-family:URWPalladioL-Roma;font-size:9.96px;stroke:none;">40</text>
   <text y="719.281" x="337.881" svgx:width="0.25" style="fill:rgb(0,0,0);font-family:URWPalladioL-Roma;font-size:9.96px;stroke:none;">,</text>
   <text y="719.281" x="340.421,345.402" svgx:width="0.5,0.5" style="fill:rgb(8,117,183);font-family:URWPalladioL-Roma;font-size:9.96px;stroke:none;">41</text>
   <text y="719.281" x="350.384,353.768,356.258,362.233,371.846,374.803,378.644,383.156,388.023,392.332,396.844,402.82,406.406,411.274,414.56080000000003,418.021,423.102,426.059,428.54900000000004,434.534,440.448,445.529,451.271,456.0518,459.573,465.487,470.568,474.582,483.555,489.103,495.018,497.975,502.487,507.567,510.525,513.482" svgx:width="0.33,0.25,0.55,0.95,0.29,0.4,0.44,0.48,0.42,0.44,0.6,0.55,0.48,0.33,0.55,0.5,0.29,0.25,0.55,0.58,0.5,0.56,0.48,0.55,0.58,0.5,0.4,0.88,0.55,0.58,0.29,0.44,0.5,0.29,0.29,0.56" style="fill:rgb(0,0,0);font-family:URWPalladioL-Roma;font-size:9.96px;stroke:none;">]. Mircescu et al. have harmonically</text>
   <text y="732.79" x="76.535,81.047,86.128,89.085,93.597,99.724,102.681,107.762,111.075,115.943,122.01859999999999,125.871,129.295,135.9682,139.803,144.884,150.798,156.8736,160.726,167.514,172.595,181.568,186.649,192.4258,196.292,200.601,206.708,211.576,216.088,219.4,223.414,228.39399999999998,232.215,237.763,241.0498,244.866,253.839,258.707,261.664,266.745,275.717,278.675,284.589,289.3698,293.176" svgx:width="0.44,0.5,0.29,0.44,0.6,0.29,0.5,0.33,0.48,0.61,0.55,0.34,0.67,0.55,0.5,0.58,0.61,0.55,0.67,0.5,0.88,0.5,0.58,0.55,0.42,0.6,0.48,0.44,0.33,0.4,0.5,0.55,0.55,0.33,0.55,0.88,0.48,0.29,0.5,0.88,0.29,0.58,0.48,0.55,0.33" style="fill:rgb(0,0,0);font-family:URWPalladioL-Roma;font-size:9.96px;stroke:none;">calculated IR and Raman spectra of melamine [</text>
   <text y="732.79" x="296.561,301.542" svgx:width="0.5,0.5" style="fill:rgb(8,117,183);font-family:URWPalladioL-Roma;font-size:9.96px;stroke:none;">40</text>
   <text y="732.79" x="306.524,309.908,312.398,319.226,325.456,331.37,336.237,341.81460000000004,345.606,351.521,356.602,362.343,367.1238,370.94,377.068,381.376,386.244,392.31960000000004,396.172,399.485,405.399,410.1798,413.986,418.294,421.251,427.165,432.815,435.773,440.5538,444.359,453.332,458.881,461.838,466.705,471.217,477.345,480.302,485.0828,488.889,497.861,503.41,509.619,514.486,517.443" svgx:width="0.33,0.25,0.55,0.61,0.58,0.48,0.56,0.55,0.58,0.5,0.56,0.48,0.55,0.6,0.42,0.48,0.61,0.55,0.33,0.58,0.48,0.55,0.42,0.29,0.58,0.56,0.29,0.48,0.55,0.88,0.55,0.29,0.48,0.44,0.6,0.29,0.48,0.55,0.88,0.55,0.61,0.48,0.29,0.25" style="fill:rgb(0,0,0);font-family:URWPalladioL-Roma;font-size:9.96px;stroke:none;">]. They have used the single molecule model,</text>
   <text y="746.299" x="76.535,81.417,87.099,93.1746,95.369,99.703,102.545,108.432,112.572,115.754,120.431,124.41499999999999,126.592,131.922,135.2088,137.478,142.359,147.339,149.545,158.166,162.843,165.684,170.566,179.187,182.028,187.71,192.4908,194.691,203.312,208.643,211.484,216.161,220.496,226.383,229.224,233.901,238.04,240.53,243.508,249.493,255.175,259.852,265.4296,267.584,273.267,278.148,283.664,288.4448,290.645,294.98,300.311,308.932,314.8,319.681,323.352,328.029,334.1046,336.299,339.482,345.164,349.9448,352.145,356.284,362.152,366.829,371.164,374.346,378.203,383.183,385.389,388.572,394.254,399.136,402.42280000000005,404.623,412.765,417.442,421.123,425.9038,428.103,432.438,437.32,440.161,444.496,450.374,453.215,458.096,461.279,465.956,472.0316,474.225,482.368,485.209,488.392,494.1688,496.379,499.561,505.244,509.92,514.06" svgx:width="0.5,0.58,0.61,0.55,0.44,0.29,0.6,0.42,0.33,0.48,0.4,0.55,0.55,0.33,0.55,0.5,0.5,0.55,0.88,0.48,0.29,0.5,0.88,0.29,0.58,0.48,0.55,0.88,0.55,0.29,0.48,0.44,0.6,0.29,0.48,0.42,0.25,0.55,0.61,0.58,0.48,0.56,0.55,0.58,0.5,0.56,0.48,0.55,0.44,0.55,0.88,0.6,0.5,0.4,0.48,0.61,0.55,0.33,0.58,0.48,0.55,0.42,0.6,0.48,0.44,0.33,0.4,0.5,0.55,0.33,0.58,0.5,0.33,0.55,0.83,0.48,0.4,0.48,0.55,0.44,0.5,0.29,0.44,0.6,0.29,0.5,0.33,0.48,0.61,0.55,0.83,0.29,0.33,0.58,0.55,0.33,0.58,0.48,0.42,0.48" style="fill:rgb(0,0,0);font-family:URWPalladioL-Roma;font-size:9.96px;stroke:none;">and cluster of 10 melamine molecules. They have compared the spectra that were calculated with these</text>
   <text y="759.809" x="76.535,79.718,87.86,93.338,95.329,100.211,106.079,111.947,115.618,120.948,125.83,130.165,135.847,140.524,144.7072,146.802,151.683,157.366,163.44160000000002,165.469,167.754,173.641,179.607,185.035,189.712,195.7876,197.815,200.998,206.68,211.562,214.8488,216.883,220.066,225.748,230.5288,232.563,237.445,242.42499999999998,244.455,253.076,258.407,261.248,265.924,270.259,276.147,278.988,283.7688,285.803,290.137,292.979,298.866,303.006,306.188,310.865,314.849,316.86,325.481,330.812,336.777,341.454,344.3424,346.433,349.274,353.951,358.832,364.798,368.9812,371.076,374.258,379.736,381.718,386.69800000000004,388.737,394.137,398.813,401.996,405.179,409.856,413.84,415.85,421.318,427.205,432.087,434.928,437.769,440.952,446.5296,448.519,453.849,457.1358,459.239,462.422,468.104,472.8848,474.909,479.244,484.125,486.967,491.302,497.189,500.03,504.912,508.095,512.771" svgx:width="0.33,0.83,0.55,0.55,0.5,0.6,0.6,0.4,0.55,0.5,0.44,0.58,0.48,0.42,0.55,0.5,0.58,0.61,0.55,0.23,0.6,0.61,0.56,0.48,0.61,0.55,0.33,0.58,0.5,0.33,0.55,0.33,0.58,0.48,0.55,0.5,0.5,0.55,0.88,0.55,0.29,0.48,0.44,0.6,0.29,0.48,0.55,0.44,0.29,0.6,0.42,0.33,0.48,0.4,0.55,0.88,0.55,0.61,0.48,0.29,0.55,0.29,0.48,0.5,0.61,0.42,0.55,0.33,0.55,0.55,0.5,0.55,0.55,0.48,0.33,0.33,0.48,0.4,0.55,0.56,0.6,0.5,0.29,0.29,0.33,0.56,0.55,0.55,0.33,0.55,0.33,0.58,0.48,0.55,0.44,0.5,0.29,0.44,0.6,0.29,0.5,0.33,0.48,0.61" style="fill:rgb(0,0,0);font-family:URWPalladioL-Roma;font-size:9.96px;stroke:none;">two approaches and judged that the 10 molecule cluster model leads to a better quality of the calculated</text>
  </g>
 </g>
</svg>
