<?xml version="1.0" encoding="UTF-8"?>
<svg height="731.452" width="530.537" xmlns="http://www.w3.org/2000/svg">
 <g id="page" xmlns:svgx="http://www.xml-cml.org/schema/svgx">
  <g begin="text">
   <text y="62.979" x="76.535,84.059,87.598,89.813,92.914,96.157,100.589,102.804,105.905" svgx:width="0.94,0.44,0.28,0.39,0.41,0.56,0.28,0.39,0.39" style="fill:rgb(0,0,0);font-family:URWPalladioL-Ital;font-size:7.97px;stroke:none;">Molecules</text>
   <text y="62.979" x="110.998,114.983,118.968,122.953" svgx:width="0.5,0.5,0.5,0.5" style="fill:rgb(0,0,0);font-family:URWPalladioL-Bold;font-size:7.97px;stroke:none;">2019</text>
   <text y="62.979" x="126.938" svgx:width="0.25" style="fill:rgb(0,0,0);font-family:URWPalladioL-Roma;font-size:7.97px;stroke:none;">,</text>
   <text y="62.979" x="130.923,134.908" svgx:width="0.5,0.5" style="fill:rgb(0,0,0);font-family:URWPalladioL-Ital;font-size:7.97px;stroke:none;">24</text>
   <text y="62.979" x="138.893,140.8855,142.878,146.863,150.848,154.833,158.818,495.794,499.779,501.772,506.123,508.7531,510.77,514.755" svgx:width="0.25,0.55,0.5,0.5,0.5,0.5,0.55,0.5,0.55,0.55,0.33,0.55,0.5,0.5" style="fill:rgb(0,0,0);font-family:URWPalladioL-Roma;font-size:7.97px;stroke:none;">, 1402 9 of 18</text>
   <text y="97.848" x="76.535,80.25,84.969,90.447,93.315,98.694,104.4708,106.932,112.311,115.5978,118.085,122.46,126.352,131.83,136.008,139.22,144.146,147.014,149.881,152.748,158.482,163.2628,165.705,169.882,175.262,179.154,184.603,187.47,191.8524,194.347,199.274,203.649,206.516,212.5916,215.039" svgx:width="0.4,0.48,0.56,0.29,0.55,0.58,0.55,0.55,0.33,0.55,0.44,0.4,0.56,0.42,0.33,0.5,0.29,0.29,0.29,0.58,0.48,0.55,0.42,0.55,0.4,0.55,0.29,0.44,0.55,0.5,0.44,0.29,0.61,0.55,0.33" style="fill:rgb(0,0,0);font-family:URWPalladioL-Roma;font-size:9.96px;stroke:none;">region of crystalline sorbic acid [</text>
   <text y="97.848" x="218.319,223.3" svgx:width="0.5,0.5" style="fill:rgb(8,117,183);font-family:URWPalladioL-Roma;font-size:9.96px;stroke:none;">35</text>
   <text y="97.848" x="228.281,231.562,234.05200000000002,236.528,244.716,248.036,254.7092,257.121,262.57,267.496,273.23,279.251,283.4342,285.931,291.311,294.5978,297.094,305.795,310.514,313.382,318.308,327.008,329.875,335.61,340.3908,342.822,346.537,351.256,356.823,361.543,366.47,369.3584,371.839,376.017,381.958,385.85,391.772,395.664,398.531,402.709,405.576,411.311,416.789,419.656,425.2336,427.637,430.504,435.884,446.604,450.782,455.501,461.236,465.413,468.281,471.493,474.36,479.927,482.794,486.006,491.5836,493.977,497.189,502.66700000000003,505.072,508.284,514.018" svgx:width="0.33,0.25,0.55,0.83,0.34,0.67,0.55,0.55,0.5,0.58,0.61,0.42,0.55,0.55,0.33,0.55,0.88,0.48,0.29,0.5,0.88,0.29,0.58,0.48,0.55,0.4,0.48,0.56,0.48,0.5,0.29,0.55,0.42,0.6,0.4,0.6,0.4,0.29,0.42,0.29,0.58,0.56,0.29,0.56,0.55,0.29,0.55,0.83,0.42,0.48,0.58,0.42,0.29,0.33,0.29,0.56,0.29,0.33,0.56,0.55,0.33,0.55,0.55,0.33,0.58,0.48" style="fill:rgb(0,0,0);font-family:URWPalladioL-Roma;font-size:9.96px;stroke:none;">], NIR bands of melamine reveal surprisingly lowsensitivity to the</text>
   <text y="111.358" x="76.535,82.24,87.691,93.681,97.377,102.729,108.18,112.875,118.581,121.845,127.267,132.619,138.325,144.314,147.167,152.872,158.323,160.81300000000002,163.852,169.861,175.567,178.42,182.6032,185.056,190.409,194.762,199.114,205.025,208.898,213.0812,215.525,221.514,226.21,230.367,236.259,239.111,242.307,247.0878,249.483,252.679,258.384,263.1648,265.56,268.825,273.726,278.079,281.36580000000004,283.745,286.941,292.647,297.548,300.83480000000003,303.224,311.88,316.576,319.429,324.33,332.987,335.839,341.545,346.3258,348.721,351.574,357.279,360.465,365.161,369.033,373.935,378.287,381.483,385.6662,388.12,392.276,395.472,399.168,404.521,410.226,415.677,418.529,424.1066,426.45,431.352,437.057,443.1326,445.527,448.38,451.6668,454.056,457.321,462.673,466.545,475.202,479.3852,481.829,490.485,496.396,499.249,502.445,505.297,511.189,514.042" svgx:width="0.58,0.56,0.61,0.4,0.55,0.56,0.48,0.58,0.33,0.55,0.55,0.58,0.61,0.29,0.58,0.56,0.25,0.55,0.61,0.58,0.29,0.42,0.55,0.55,0.44,0.44,0.6,0.4,0.42,0.55,0.61,0.48,0.42,0.6,0.29,0.33,0.48,0.55,0.33,0.58,0.48,0.55,0.33,0.5,0.44,0.33,0.55,0.33,0.58,0.5,0.33,0.55,0.88,0.48,0.29,0.5,0.88,0.29,0.58,0.48,0.55,0.29,0.58,0.33,0.48,0.4,0.5,0.44,0.33,0.42,0.55,0.42,0.33,0.4,0.55,0.58,0.56,0.29,0.56,0.55,0.5,0.58,0.61,0.55,0.29,0.33,0.55,0.33,0.55,0.4,0.88,0.42,0.55,0.88,0.6,0.29,0.33,0.29,0.6,0.29,0.48" style="fill:rgb(0,0,0);font-family:URWPalladioL-Roma;font-size:9.96px;stroke:none;">hydrogen-bonding. This occurs despite the fact that melamine interacts strongly and it forms multiple</text>
   <text y="124.867" x="76.535,82.351,87.906,94.012,97.779,103.235,108.791,113.577,119.393,122.72,128.246,133.702,139.518,145.623,149.8062,152.348,155.256,161.0328,163.56,167.996,171.943,177.499,181.736,184.993,189.99,192.898,195.805,198.713,204.529,209.3098,211.803,216.04,219.298,224.294,227.551,232.338,236.575,239.065,241.561,246.557,250.7402,253.282,257.059,261.836,266.272,271.059,276.874,280.132,283.04,288.61760000000004,291.094,297.199,301.986,310.809,316.265,322.08,326.317,329.575,333.522,338.518,341.776,346.562,352.6376,355.156,360.681,366.2586,368.725,374.491,380.516,385.513,391.28979999999996,393.816,398.603,401.88980000000004,404.349,409.345,412.253,414.743,417.239" svgx:width="0.58,0.56,0.61,0.4,0.55,0.56,0.48,0.58,0.33,0.55,0.55,0.58,0.61,0.42,0.55,0.29,0.58,0.55,0.44,0.4,0.56,0.42,0.33,0.5,0.29,0.29,0.29,0.58,0.48,0.55,0.42,0.33,0.5,0.33,0.48,0.42,0.25,0.55,0.5,0.42,0.55,0.4,0.48,0.44,0.48,0.58,0.33,0.29,0.56,0.55,0.61,0.48,0.88,0.55,0.58,0.42,0.33,0.4,0.5,0.33,0.48,0.61,0.55,0.55,0.56,0.55,0.67,0.6,0.5,0.58,0.55,0.48,0.33,0.55,0.5,0.29,0.25,0.55,0.33" style="fill:rgb(0,0,0);font-family:URWPalladioL-Roma;font-size:9.96px;stroke:none;">hydrogen-bonds in crystalline states, as recently demonstrated by Yuan et al. [</text>
   <text y="124.867" x="420.569,425.55" svgx:width="0.5,0.5" style="fill:rgb(8,117,183);font-family:URWPalladioL-Roma;font-size:9.96px;stroke:none;">41</text>
   <text y="124.867" x="430.531,433.858,436.348,439.444,448.517,453.2978,455.792,464.126,467.034,469.941,472.82939999999996,475.337,481.443,484.35,488.587,493.024,499.049,503.286,507.4692,510.021,512.929" svgx:width="0.33,0.25,0.55,1.0,0.48,0.55,0.83,0.29,0.29,0.29,0.55,0.61,0.29,0.42,0.44,0.6,0.42,0.42,0.55,0.29,0.58" style="fill:rgb(0,0,0);font-family:URWPalladioL-Roma;font-size:9.96px;stroke:none;">]. We will discuss in</text>
   <text y="138.377" x="76.535,82.622,87.394,90.642,95.623,98.522,101.41040000000001,103.912,107.16,112.958,117.7388,120.221,123.977,128.749,133.73,137.954,143.394,149.192,153.3752,155.907,159.225,164.664,168.648,171.09,175.314,181.322,185.745,191.5218,194.034,200.121,203.02,207.244,210.492,213.391,219.189,223.613,226.861,229.76,235.389,240.161,245.959,250.731,254.955,259.13820000000004,261.67,267.11,270.39680000000004,272.918,281.197,284.554,291.2272,293.7,297.456,302.228,307.767,310.666,316.106,321.8828,324.395,329.834,333.12080000000003,335.642,344.439,349.211,352.111,357.092,365.889,368.788,374.586,379.3668,381.849,384.748,390.52479999999997,393.037,398.267,403.039,407.463,410.711,413.61,419.049" svgx:width="0.61,0.48,0.33,0.5,0.29,0.29,0.55,0.33,0.58,0.48,0.55,0.4,0.48,0.5,0.42,0.55,0.58,0.42,0.55,0.33,0.55,0.4,0.55,0.42,0.6,0.44,0.58,0.55,0.61,0.29,0.42,0.33,0.29,0.58,0.44,0.33,0.29,0.56,0.48,0.58,0.48,0.42,0.42,0.55,0.55,0.33,0.55,0.83,0.34,0.67,0.55,0.4,0.48,0.56,0.29,0.55,0.58,0.55,0.55,0.33,0.55,0.88,0.48,0.29,0.5,0.88,0.29,0.58,0.48,0.55,0.29,0.58,0.55,0.52,0.48,0.44,0.33,0.29,0.55,0.58" style="fill:rgb(0,0,0);font-family:URWPalladioL-Roma;font-size:9.96px;stroke:none;">detail the reasons for such distinctiveness of NIR region of melamine in Section</text>
   <text y="138.377" x="427.338,432.319,434.81" svgx:width="0.5,0.25,0.5" style="fill:rgb(8,117,183);font-family:URWPalladioL-Roma;font-size:9.96px;stroke:none;">2.3</text>
   <text y="138.377" x="439.791" svgx:width="0.25" style="fill:rgb(0,0,0);font-family:URWPalladioL-Roma;font-size:9.96px;stroke:none;">.</text>
   <text y="151.886" x="97.795,103.792,109.486,114.2668,116.657,121.549,126.988,130.667,135.353,140.039,148.678,153.364,159.058,162.3448,164.732,172.891,175.738,178.928,184.7048,187.107,190.286,195.98,200.7608,203.151,207.837,212.885,218.765,223.451,227.316,230.163,238.801,243.488,249.181,252.371,257.262,260.1504,262.594,266.742,272.622,277.308,281.652,284.841,288.618,294.517,305.641,308.488,312.6712,315.121,319.269,322.116,324.963,330.402,336.096,339.285,342.132,347.7096,350.047,352.894,358.236,366.395,371.081,375.065,377.43,380.277,386.05379999999997,388.456,391.645,397.339,402.1198,404.501,409.392,414.284,419.176,424.067,428.959,433.85,438.742,443.634,448.61400000000003,451.01,455.354" svgx:width="0.61,0.58,0.48,0.55,0.5,0.56,0.4,0.48,0.48,0.88,0.48,0.58,0.33,0.55,0.83,0.29,0.33,0.58,0.55,0.33,0.58,0.48,0.55,0.48,0.52,0.6,0.48,0.4,0.29,0.88,0.48,0.58,0.33,0.5,0.29,0.55,0.42,0.6,0.48,0.44,0.33,0.4,0.6,0.88,0.29,0.42,0.55,0.42,0.29,0.29,0.56,0.58,0.33,0.29,0.56,0.55,0.29,0.55,0.83,0.48,0.4,0.55,0.29,0.58,0.55,0.33,0.58,0.48,0.55,0.5,0.5,0.5,0.5,0.5,0.5,0.5,0.5,0.5,0.55,0.44,0.88" style="fill:rgb(0,0,0);font-family:URWPalladioL-Roma;font-size:9.96px;stroke:none;">The agreement with the experimental spectrumis slightly lower in the 5200–4000 cm</text>
   <text y="148.27" x="464.086" svgx:width="0.78" style="fill:rgb(0,0,0);font-family:CMSY10;font-size:7.89px;stroke:none;">−</text>
   <text y="148.27" x="470.313" svgx:width="0.5" style="fill:rgb(0,0,0);font-family:URWPalladioL-Roma;font-size:7.57px;stroke:none;">1</text>
   <text y="151.886" x="477.078,480.766,485.452,490.892,493.739,499.081,504.774,507.264,509.705,514.597" svgx:width="0.4,0.48,0.56,0.29,0.55,0.58,0.25,0.55,0.5,0.42" style="fill:rgb(0,0,0);font-family:URWPalladioL-Roma;font-size:9.96px;stroke:none;">region, as</text>
   <text y="165.395" x="76.535,79.718,85.4,90.1808,92.137,94.978,99.655,105.171,109.848,112.7364,114.749,120.08,123.3668,125.391,130.79,135.672,141.354,147.42960000000002,149.379,154.71,160.226,164.903,168.76,171.601,176.482,182.35,188.218,191.059,196.741,202.3186,204.23,207.071,211.2542,213.261,218.777,223.454,227.31,232.8876,234.799,240.481,243.322,248.751,254.5278,256.493,259.676,265.358,270.035,273.716,278.392,280.882,283.782,287.072,292.8488,294.804,299.139,304.47,310.152,313.335,317.192,322.074,326.213,329.396,331.886,333.985,337.168,342.85,347.6308,349.587,355.474,361.342,367.209,371.886,375.87,377.803,385.916,389.206,397.788,401.469,406.146,411.574,414.415,419.746,425.52279999999996,427.479,430.73,435.065,439.946,442.43600000000004,445.336,450.317,455.299,460.28,465.261,470.242,475.224,480.205,485.186,490.166,492.658,497.082" svgx:width="0.33,0.58,0.48,0.55,0.29,0.48,0.56,0.48,0.29,0.55,0.55,0.33,0.55,0.55,0.5,0.58,0.61,0.55,0.55,0.56,0.48,0.4,0.29,0.5,0.6,0.6,0.29,0.58,0.56,0.55,0.29,0.42,0.55,0.56,0.48,0.4,0.56,0.55,0.58,0.29,0.56,0.58,0.55,0.33,0.58,0.48,0.4,0.48,0.25,0.55,0.34,0.58,0.55,0.44,0.55,0.58,0.33,0.4,0.5,0.42,0.33,0.25,0.55,0.33,0.58,0.48,0.55,0.6,0.6,0.6,0.48,0.4,0.55,0.83,0.34,0.67,0.4,0.48,0.56,0.29,0.55,0.58,0.55,0.33,0.44,0.5,0.25,0.55,0.5,0.5,0.5,0.5,0.5,0.5,0.5,0.5,0.5,0.55,0.44,0.88" style="fill:rgb(0,0,0);font-family:URWPalladioL-Roma;font-size:9.96px;stroke:none;">the level of band overlapping is very high there. In contrast, the upper NIRregion (ca. 6900–6450 cm</text>
   <text y="161.779" x="505.974" svgx:width="0.78" style="fill:rgb(0,0,0);font-family:CMSY10;font-size:7.89px;stroke:none;">−</text>
   <text y="161.779" x="512.201" svgx:width="0.5" style="fill:rgb(0,0,0);font-family:URWPalladioL-Roma;font-size:7.57px;stroke:none;">1</text>
   <text y="165.395" x="516.485" svgx:width="0.33" style="fill:rgb(0,0,0);font-family:URWPalladioL-Roma;font-size:9.96px;stroke:none;">)</text>
   <text y="178.905" x="76.117,84.592,89.673,93.8562,98.92,104.001,108.513,113.025,119.152,123.166,128.247,131.56,136.428,139.385,144.96259999999998,149.963,153.804,158.672,164.779,168.61,174.159,180.367,186.495,191.007,195.874,201.9496,207.022,209.979,215.75580000000002,220.822,224.135,230.049,234.8298,239.855,244.367,249.448,252.405,256.917,263.044,266.001,271.082,274.395,277.352,282.9,288.67679999999996,293.753,297.137,302.787,305.744,311.394,317.522,321.353" svgx:width="0.83,0.5,0.42,0.55,0.5,0.44,0.44,0.6,0.4,0.5,0.33,0.48,0.29,0.56,0.55,0.4,0.48,0.6,0.4,0.55,0.61,0.6,0.44,0.48,0.61,0.55,0.29,0.58,0.55,0.33,0.58,0.48,0.55,0.44,0.5,0.29,0.44,0.6,0.29,0.5,0.33,0.29,0.55,0.58,0.55,0.33,0.56,0.29,0.56,0.6,0.4,0.48" style="fill:rgb(0,0,0);font-family:URWPalladioL-Roma;font-size:9.96px;stroke:none;">was accurately reproduced in the calculation (Figure</text>
   <text y="178.905" x="331.159" svgx:width="0.5" style="fill:rgb(8,117,183);font-family:URWPalladioL-Roma;font-size:9.96px;stroke:none;">4</text>
   <text y="178.905" x="336.24,344.146,347.53,350.02,354.999,361.228,367.142,371.9228,376.948,383.096,387.11,391.419,394.7058,399.67,405.219,410.96,415.828,419.842,423.154,428.703,434.617,439.484,443.6672,448.722,453.802,459.717,465.7926,470.864,474.177,480.091,484.8718,489.897,495.517,498.474,504.388,509.469,513.483" svgx:width="0.78,0.33,0.25,0.55,0.61,0.58,0.48,0.55,0.61,0.4,0.42,0.33,0.55,0.55,0.56,0.48,0.4,0.33,0.55,0.58,0.48,0.42,0.55,0.5,0.58,0.61,0.55,0.33,0.58,0.48,0.55,0.55,0.29,0.58,0.5,0.4,0.56" style="fill:rgb(0,0,0);font-family:URWPalladioL-Roma;font-size:9.96px;stroke:none;">A). The ﬁrst overtones and the binary</text>
   <text y="192.414" x="76.535,81.047,86.595,95.568,101.188,104.145,110.059,115.14,118.453,121.41,126.958,132.872,137.0552,140.229,145.849,150.93,156.844,163.053,167.2362,170.41,175.959,179.2458,182.381,190.825" svgx:width="0.44,0.55,0.88,0.55,0.29,0.58,0.5,0.33,0.29,0.55,0.58,0.42,0.55,0.55,0.5,0.58,0.61,0.42,0.55,0.55,0.33,0.55,0.83,0.83" style="fill:rgb(0,0,0);font-family:URWPalladioL-Roma;font-size:9.96px;stroke:none;">combinations bands of NH</text>
   <text y="194.234" x="199.284" svgx:width="0.5" style="fill:rgb(0,0,0);font-family:URWPalladioL-Roma;font-size:7.57px;stroke:none;">2</text>
   <text y="192.414" x="206.615,210.924,214.236,218.067,222.935,226.248,230.76,236.674,239.631,245.545,251.12259999999998,254.244,263.216,268.765,274.974,279.841,284.0242,287.198,293.306,298.854,304.961,311.089,314.046,319.127,322.44,327.2208,330.356,333.669,339.583,342.54,346.7232,349.887,353.728,358.596,364.246,367.203,372.751,378.52779999999996,381.714,385.098,390.179,394.3622,397.526,400.838,406.753,411.5338,414.669,420.776,424.79,427.747,436.72,441.801,445.815,451.3926,454.513,459.025,464.573,470.488,473.8,477.814,480.771,486.391,492.519,495.831,498.788,504.337,510.251,514.56,517.944" svgx:width="0.42,0.33,0.4,0.48,0.33,0.44,0.58,0.29,0.58,0.56,0.55,0.88,0.55,0.61,0.48,0.42,0.55,0.6,0.55,0.6,0.6,0.29,0.5,0.33,0.48,0.55,0.33,0.58,0.29,0.42,0.55,0.4,0.48,0.56,0.29,0.55,0.58,0.55,0.33,0.5,0.42,0.55,0.33,0.58,0.48,0.55,0.6,0.4,0.29,0.88,0.5,0.4,0.56,0.55,0.44,0.55,0.58,0.33,0.4,0.29,0.55,0.6,0.33,0.29,0.55,0.58,0.42,0.33,0.25" style="fill:rgb(0,0,0);font-family:URWPalladioL-Roma;font-size:9.96px;stroke:none;">stretching modes populate this region (as the primary contributions).</text>
   <text y="205.924" x="76.535,81.87,84.827,93.8,96.757,99.714,104.795,108.779,111.451,114.764,120.24199999999999,122.944,128.493,131.805,137.72,142.587,146.571,149.243,154.893,157.85,163.764,169.973,174.1562,176.924,182.472,185.7588,188.488,195.266,198.65,206.9168,209.747,215.488,218.445,224.065,228.079,233.16,236.472,239.429,244.978,250.892,255.0752,257.833,261.216,266.084,268.624,274.274,276.815,279.305,282.038,290.025,298.48,301.864,304.354,307.036,310.349,316.263,321.131,325.439,330.2198,332.949,341.922,347.47,353.679,358.547,362.7302,365.497,370.578,374.409,379.1898,381.919,386.786,392.03,398.137,403.005,407.517,410.829,415.697,421.7726,424.538,427.495,433.2718,436.051,439.364,445.278,450.0588,452.788,455.745,458.702,462.015,466.882,470.896,475.977,479.29,485.417,489.248,494.0288,496.758,500.071,505.54900000000004,508.251,513.871" svgx:width="0.52,0.29,0.88,0.29,0.29,0.5,0.4,0.55,0.33,0.55,0.55,0.55,0.33,0.58,0.48,0.4,0.55,0.56,0.29,0.58,0.61,0.42,0.55,0.55,0.33,0.55,0.67,0.33,0.83,0.55,0.56,0.29,0.55,0.4,0.5,0.33,0.29,0.55,0.58,0.42,0.55,0.33,0.48,0.25,0.56,0.25,0.25,0.55,0.79,0.83,0.33,0.25,0.55,0.33,0.58,0.48,0.42,0.48,0.55,0.88,0.55,0.61,0.48,0.42,0.55,0.5,0.4,0.48,0.55,0.48,0.52,0.6,0.48,0.44,0.33,0.48,0.61,0.55,0.29,0.58,0.55,0.33,0.58,0.48,0.55,0.29,0.29,0.33,0.48,0.4,0.5,0.33,0.6,0.4,0.48,0.55,0.33,0.55,0.55,0.55,0.48" style="fill:rgb(0,0,0);font-family:URWPalladioL-Roma;font-size:9.96px;stroke:none;">Similar to other kinds of X-H vibrations (e.g., OH), these modes are expected in the literature to be</text>
   <text y="219.433" x="76.535,80.844,85.711,91.625,95.934,98.891,102.204,105.161,110.902,115.6828,118.493,121.806,127.28399999999999,130.078,133.391,139.305,144.0858,146.896,155.869,161.417,164.374,169.242,173.753,179.881,182.838,187.706,192.014,194.80280000000002,197.552,202.064,207.979,212.846,221.819,224.776,229.288,234.369,237.2574,240.049,245.964,250.831,253.788,259.438,265.352,270.972,276.52,280.361,286.276,291.824,297.372,303.581,306.071,308.896,313.763,316.304,321.954,324.494,326.98400000000004,329.819,335.926,339.757,345.306,351.22,356.0008,358.811,362.124,367.60200000000003,370.395,374.226,379.094,385.303,388.687,392.995,398.91,401.867,405.251,408.563,411.52,417.435,423.0126,425.808,428.765,434.54179999999997,437.403,443.317,448.967,455.176,459.007,464.555,470.205,475.073,480.987,484.371,489.99,495.539,501.453,507.662,512.529" svgx:width="0.42,0.48,0.58,0.42,0.29,0.33,0.29,0.56,0.48,0.55,0.33,0.55,0.55,0.33,0.58,0.48,0.55,0.88,0.55,0.29,0.48,0.44,0.6,0.29,0.48,0.42,0.28,0.55,0.44,0.58,0.48,0.88,0.29,0.44,0.5,0.29,0.55,0.58,0.48,0.29,0.56,0.58,0.55,0.55,0.4,0.58,0.55,0.55,0.61,0.25,0.55,0.48,0.25,0.56,0.25,0.25,0.55,0.6,0.4,0.55,0.58,0.48,0.55,0.33,0.55,0.55,0.4,0.48,0.61,0.33,0.42,0.58,0.29,0.33,0.33,0.29,0.58,0.56,0.55,0.29,0.58,0.55,0.58,0.56,0.61,0.4,0.55,0.56,0.48,0.58,0.33,0.55,0.55,0.58,0.61,0.48,0.61" style="fill:rgb(0,0,0);font-family:URWPalladioL-Roma;font-size:9.96px;stroke:none;">sensitive to the molecules’ chemical neighborhood, e.g., prone to red-shifting in hydrogen-bonded</text>
   <text y="232.942" x="76.535,80.896,86.26,94.934,100.837,103.696,108.401,113.47,118.175,122.34,124.83,127.88,133.902,139.619,142.478,146.6612,149.138,153.843,156.927,160.208,164.914,169.275,172.5618,174.963,180.68,185.591,189.7742,192.242,197.674,202.379,207.084,212.8608,215.296,219.658,222.516,227.222,232.133,236.013,238.862,244.43959999999998,246.819,252.182,257.614,261.779,266.485,270.365,275.915,280.62,286.6956,289.107,292.378,297.742,301.726,304.107,309.019,311.877,316.239,321.602,327.319,332.683,335.541,339.7242,342.201" svgx:width="0.44,0.55,0.88,0.6,0.29,0.48,0.52,0.48,0.42,0.25,0.55,0.61,0.58,0.29,0.42,0.55,0.48,0.33,0.33,0.48,0.44,0.33,0.55,0.58,0.5,0.42,0.55,0.55,0.48,0.48,0.58,0.55,0.44,0.29,0.48,0.5,0.4,0.29,0.56,0.55,0.55,0.55,0.42,0.48,0.4,0.56,0.48,0.61,0.55,0.33,0.55,0.4,0.55,0.5,0.29,0.44,0.55,0.58,0.55,0.29,0.42,0.55,0.33" style="fill:rgb(0,0,0);font-family:URWPalladioL-Roma;font-size:9.96px;stroke:none;">complexes. This effect has been clearly observed for alcohols [</text>
   <text y="232.942" x="345.47,350.451" svgx:width="0.5,0.5" style="fill:rgb(8,117,183);font-family:URWPalladioL-Roma;font-size:9.96px;stroke:none;">58</text>
   <text y="232.942" x="355.432,358.71880000000004,361.188,366.552,370.536,372.927,375.786,381.5628,383.988,389.351,395.275,399.25899999999996,401.64,405.343,410.049,414.41,419.115,424.832,428.1188,430.52,438.683,441.993,448.6662,451.05,453.909,459.626,465.176,469.881,474.046,477.249,480.107,485.569,490.48,493.683,496.541,501.905,507.68179999999995,510.107,515.47" svgx:width="0.33,0.55,0.55,0.4,0.55,0.29,0.58,0.55,0.55,0.6,0.4,0.55,0.4,0.48,0.44,0.48,0.58,0.33,0.55,0.83,0.34,0.67,0.55,0.29,0.58,0.56,0.48,0.42,0.33,0.29,0.56,0.5,0.33,0.29,0.55,0.58,0.55,0.55,0.33" style="fill:rgb(0,0,0);font-family:URWPalladioL-Roma;font-size:9.96px;stroke:none;">] or in our recent NIR investigation of</text>
   <text y="246.452" x="76.535,79.848,85.762,91.412,100.385,105.933,108.82140000000001,111.563" svgx:width="0.33,0.58,0.56,0.88,0.55,0.29,0.55,0.33" style="fill:rgb(0,0,0);font-family:URWPalladioL-Roma;font-size:9.96px;stroke:none;">thymol [</text>
   <text y="246.452" x="114.946,119.927" svgx:width="0.5,0.5" style="fill:rgb(8,117,183);font-family:URWPalladioL-Roma;font-size:9.96px;stroke:none;">37</text>
   <text y="246.452" x="124.909,128.293,130.78300000000002,134.461,139.796,145.924,149.938,156.045,160.059,163.016,167.325,170.282,176.196,181.846,184.803,189.355,191.845,194.609,197.566,203.3428,206.153,209.466,215.38,220.1608,222.92,227.432,232.513,236.821,241.6018,244.362,249.91,253.1968,255.966,264.939,269.807,272.764,277.845,286.818,289.775,295.689,300.4698,303.229,306.186,309.4728,312.161,321.134,326.215,331.7926,334.538,340.157,344.9378,347.697,352.209,357.758,363.672,368.184,371.141,377.268,383.477,388.345,394.42060000000004,397.226,400.539,406.453,411.534,414.8208,417.52,420.832,426.747,431.5278,434.287,440.435,444.448,448.757,452.04380000000003,454.742,460.291,466.032,470.9,474.914,478.227,483.775,489.689,494.557,498.7402,501.538,506.619,512.533" svgx:width="0.33,0.25,0.55,0.52,0.6,0.4,0.6,0.4,0.29,0.42,0.29,0.58,0.56,0.29,0.56,0.25,0.55,0.29,0.58,0.55,0.33,0.58,0.48,0.55,0.44,0.5,0.42,0.48,0.55,0.55,0.33,0.55,0.88,0.48,0.29,0.5,0.88,0.29,0.58,0.48,0.55,0.29,0.33,0.55,0.88,0.5,0.56,0.55,0.55,0.48,0.55,0.44,0.55,0.58,0.44,0.29,0.6,0.61,0.48,0.61,0.55,0.33,0.58,0.5,0.33,0.55,0.33,0.58,0.48,0.55,0.61,0.4,0.42,0.33,0.55,0.55,0.56,0.48,0.4,0.33,0.55,0.58,0.48,0.42,0.55,0.5,0.58,0.61" style="fill:rgb(0,0,0);font-family:URWPalladioL-Roma;font-size:9.96px;stroke:none;">]. Surprisingly, in the case of melamine it may be concluded that the ﬁrst overtones and</text>
   <text y="259.961" x="76.535,82.033,84.927,90.713,95.685,99.612,105.1896,107.616,112.03,117.459,126.238,131.737,134.63,140.417,145.388,148.629,151.523,156.951,162.738,166.9212,169.429,174.928,179.899,185.686,191.761,195.9442,198.452,203.881,207.1678,209.667,217.93" svgx:width="0.55,0.29,0.58,0.5,0.4,0.56,0.55,0.44,0.55,0.88,0.55,0.29,0.58,0.5,0.33,0.29,0.55,0.58,0.42,0.55,0.55,0.5,0.58,0.61,0.42,0.55,0.55,0.33,0.55,0.83,0.83" style="fill:rgb(0,0,0);font-family:URWPalladioL-Roma;font-size:9.96px;stroke:none;">binary combinations bands of NH</text>
   <text y="261.781" x="226.201" svgx:width="0.5" style="fill:rgb(0,0,0);font-family:URWPalladioL-Roma;font-size:7.57px;stroke:none;">2</text>
   <text y="259.961" x="232.96,237.176,240.417,244.165,248.928,252.169,256.584,262.37,265.264,271.05,276.62760000000003,279.054,287.834,293.262,299.337,304.1,308.2832,310.791,315.763,319.511,324.2918,326.749,332.725,336.473,341.902,347.878,352.64,356.568,359.461,365.03860000000003,367.465,371.213,375.976,381.951,385.7,391.128,397.203,403.199,407.613,412.376,418.451,420.94100000000003,423.412,428.175,433.792,438.555,444.3318,446.817,449.711,455.4878,457.973,461.214,467.001,471.7818,474.239,478.455,481.348,490.128,496.103,498.997,501.89,507.905,512.668" svgx:width="0.42,0.33,0.4,0.48,0.33,0.44,0.58,0.29,0.58,0.56,0.55,0.88,0.55,0.61,0.48,0.42,0.55,0.5,0.4,0.48,0.55,0.6,0.4,0.55,0.6,0.48,0.4,0.29,0.56,0.55,0.4,0.48,0.6,0.4,0.55,0.61,0.6,0.44,0.48,0.61,0.25,0.55,0.48,0.56,0.48,0.58,0.55,0.29,0.58,0.55,0.33,0.58,0.48,0.55,0.42,0.29,0.88,0.6,0.29,0.29,0.61,0.48,0.61" style="fill:rgb(0,0,0);font-family:URWPalladioL-Roma;font-size:9.96px;stroke:none;">stretching modes are properly reproduced, even in the simpliﬁed</text>
   <text y="273.471" x="76.535,80.958,85.94,90.164,94.9448,97.427,102.866,106.1528,108.674,113.656,119.4328,121.945,124.844,129.068,134.507,137.406,142.388,145.636,150.408,156.4836,158.985,167.782,173.222,176.121,180.893,185.317,191.324,194.223,198.995,201.485,203.977,207.294,212.734,216.71800000000002,219.16,227.468,233.267,236.166,240.589,246.3658,248.878,252.126,257.924,262.7048,265.187,268.086,273.884,277.132,281.904,285.66,288.977,297.774,303.214,306.113,310.885,315.309,321.316,324.215,329.196,333.18,335.622,338.521,344.32,347.568,352.34,356.275,361.256,365.68,368.927,371.826,377.266,383.064,387.2472,389.779,394.76,398.516,403.2968,405.779,411.577,417.017,420.3038,422.755,426.511,431.283,437.341,442.113,446.536,449.784,454.556,460.6316,463.134,466.451,471.991,474.89,480.429,486.436,490.192" svgx:width="0.44,0.5,0.42,0.48,0.55,0.55,0.33,0.55,0.5,0.58,0.55,0.29,0.42,0.55,0.29,0.5,0.33,0.48,0.61,0.55,0.88,0.55,0.29,0.48,0.44,0.6,0.29,0.48,0.25,0.55,0.33,0.55,0.4,0.55,0.83,0.58,0.29,0.44,0.58,0.55,0.33,0.58,0.48,0.55,0.29,0.58,0.33,0.48,0.4,0.33,0.88,0.55,0.29,0.48,0.44,0.6,0.29,0.5,0.4,0.55,0.29,0.58,0.33,0.48,0.4,0.5,0.44,0.33,0.29,0.55,0.58,0.42,0.55,0.5,0.4,0.48,0.55,0.58,0.55,0.33,0.55,0.4,0.48,0.61,0.48,0.44,0.33,0.48,0.61,0.55,0.33,0.56,0.29,0.56,0.6,0.4,0.48" style="fill:rgb(0,0,0);font-family:URWPalladioL-Roma;font-size:9.96px;stroke:none;">case of an isolated molecule, for which the inter-molecular interactions are not reﬂected (Figure</text>
   <text y="273.471" x="497.455" svgx:width="0.5" style="fill:rgb(8,117,183);font-family:URWPalladioL-Roma;font-size:9.96px;stroke:none;">4</text>
   <text y="273.471" x="502.436,510.187,513.505" svgx:width="0.78,0.33,0.25" style="fill:rgb(0,0,0);font-family:URWPalladioL-Roma;font-size:9.96px;stroke:none;">A).</text>
   <text y="296.684" x="76.535,81.516,84.007,88.988,91.478,94.567,101.76,107.33760000000001,109.79,113.108,118.647,121.964,129.715,133.591,138.572,141.89,146.86999999999998,149.362,156.555,162.094,166.517,169.287,174.268,178.144,180.913,184.7974,187.279,191.703,194.4918,196.963,200.28,205.262,209.1464,211.628,219.379,223.254,226.024,231.005,233.775,239.3526,241.805,246.228,249.01680000000002,251.488,259.239,262.557,269.2302,271.692,277.78,282.203,287.742,292.723,296.60740000000004,299.09,303.513,306.30179999999996,308.773,315.418,319.294,324.275,328.15,331.468,335.891,338.661,341.431,344.2,349.739,353.6234,356.106,365.51,369.386,372.155,376.579,384.33,387.099,392.638" svgx:width="0.5,0.25,0.5,0.25,0.55,0.72,0.56,0.55,0.33,0.56,0.33,0.78,0.39,0.5,0.33,0.5,0.55,0.72,0.56,0.44,0.28,0.5,0.39,0.28,0.39,0.55,0.44,0.28,0.55,0.33,0.5,0.39,0.55,0.78,0.39,0.28,0.5,0.28,0.56,0.55,0.44,0.28,0.55,0.78,0.33,0.67,0.55,0.61,0.44,0.56,0.5,0.39,0.55,0.44,0.28,0.55,0.67,0.39,0.5,0.39,0.33,0.44,0.28,0.28,0.28,0.56,0.39,0.55,0.94,0.39,0.28,0.44,0.78,0.28,0.56,0.39" style="fill:rgb(0,0,0);font-family:URWPalladioL-Ital;font-size:9.96px;stroke:none;">2.3. An In-Depth Analysis of the Origin of NIR Bands of Crystalline Melamine</text>
   <text y="316.171" x="97.795,106.115,112.153,120.994,125.79,129.564,135.031,141.069,145.2522,147.807,153.274,158.931,163.727,167.682,170.595,175.601,181.619,187.636,190.55,196.377,201.9546,204.437,209.974,214.98,220.807,226.925,231.1082,233.663,239.681,245.148,251.165,257.203,260.116,265.122,268.386,273.1668,275.665,283.986,287.36,294.0332,296.541,300.787,306.804,311.6,316.046,319.31,323.265,328.245,330.764,336.231,339.5178,342.058,346.854,352.511,357.307,363.0838,365.627,369.402,374.198,377.111,382.117,385.382,388.295,393.952,398.748,401.662,407.2396,409.722,413.967,416.881,425.722,431.739,434.653,439.4338,441.942,450.783,456.249,459.163,463.959,468.405,474.442,477.356,482.152,486.3352,488.88" svgx:width="0.83,0.6,0.88,0.48,0.4,0.55,0.6,0.42,0.55,0.55,0.56,0.48,0.4,0.29,0.5,0.6,0.6,0.29,0.58,0.56,0.55,0.55,0.5,0.58,0.61,0.42,0.55,0.6,0.55,0.6,0.6,0.29,0.5,0.33,0.48,0.55,0.83,0.34,0.67,0.55,0.42,0.6,0.48,0.44,0.33,0.4,0.5,0.55,0.55,0.33,0.55,0.48,0.56,0.48,0.58,0.55,0.4,0.48,0.29,0.5,0.33,0.29,0.56,0.48,0.29,0.56,0.55,0.42,0.29,0.88,0.6,0.29,0.48,0.55,0.88,0.55,0.29,0.48,0.44,0.6,0.29,0.48,0.42,0.55,0.33" style="fill:rgb(0,0,0);font-family:URWPalladioL-Roma;font-size:9.96px;stroke:none;">Numerous overlapping bands populate NIR spectra of even relatively simple molecules [</text>
   <text y="316.171" x="492.218,497.199" svgx:width="0.5,0.5" style="fill:rgb(8,117,183);font-family:URWPalladioL-Roma;font-size:9.96px;stroke:none;">16</text>
   <text y="316.171" x="502.181" svgx:width="0.25" style="fill:rgb(0,0,0);font-family:URWPalladioL-Roma;font-size:9.96px;stroke:none;">,</text>
   <text y="316.171" x="504.684,509.665" svgx:width="0.5,0.5" style="fill:rgb(8,117,183);font-family:URWPalladioL-Roma;font-size:9.96px;stroke:none;">31</text>
   <text y="316.171" x="514.647,517.981" svgx:width="0.33,0.25" style="fill:rgb(0,0,0);font-family:URWPalladioL-Roma;font-size:9.96px;stroke:none;">].</text>
   <text y="329.68" x="76.226,82.217,87.905,90.749,94.9322,97.375,106.005,110.892,116.326,120.998,125.1812,127.624,130.81,136.498,141.179,144.023,148.007,150.357,156.328,161.009,164.196,169.082,171.926,174.77,179.452,185.5276,187.906,192.792,198.48,203.367,206.211,211.645,215.789,218.633,222.8162,225.249,231.221,234.065,237.144,243.056,247.396,253.289,256.133,259.319,261.809,264.245,269.132,274.82,280.8956,283.274,286.46,292.148,296.9288,299.302,302.146,307.834,311.02,315.702,319.562,325.436,329.12,333.802,336.988,341.874,345.061,347.905,353.241,359.01779999999997,361.402,366.738,370.0248,372.475,375.661,381.349,386.1298,388.503,391.347,396.028,400.915,406.887,409.731,415.419,420.9966,423.325,427.665,433.001,438.689,441.875,445.735,448.579,453.984,459.877,463.064,465.908,471.244,476.932,481.1152,483.558,486.402,490.5852,493.019,498.707,504.043,507.32980000000003,509.712,514.598" svgx:width="0.61,0.58,0.29,0.42,0.55,0.88,0.5,0.56,0.48,0.42,0.55,0.33,0.58,0.48,0.29,0.4,0.55,0.61,0.48,0.33,0.5,0.29,0.29,0.48,0.61,0.55,0.5,0.58,0.5,0.29,0.56,0.42,0.29,0.42,0.55,0.61,0.29,0.33,0.61,0.44,0.6,0.29,0.33,0.25,0.55,0.5,0.58,0.61,0.55,0.33,0.58,0.48,0.55,0.29,0.58,0.33,0.48,0.4,0.6,0.4,0.48,0.33,0.5,0.33,0.29,0.55,0.58,0.55,0.55,0.33,0.55,0.33,0.58,0.48,0.55,0.29,0.48,0.5,0.61,0.29,0.58,0.56,0.55,0.44,0.55,0.58,0.33,0.4,0.29,0.55,0.6,0.33,0.29,0.55,0.58,0.42,0.55,0.29,0.42,0.55,0.58,0.55,0.33,0.55,0.5,0.42" style="fill:rgb(0,0,0);font-family:URWPalladioL-Roma;font-size:9.96px;stroke:none;">This makes their detailed analysis difﬁcult, and the interpretation of the leading contributions is not as</text>
   <text y="343.189" x="76.535,80.844,84.156,88.17,93.251,96.208,101.858,107.773,111.085,114.469,120.018,124.032,132.506,137.587,141.418,147.49360000000001,150.127,155.208,159.3912,162.017,164.974,168.2608,170.786,173.743,177.9262,180.542,183.925,189.474,193.458,195.988,199.3,205.215,209.9958,212.582,217.094,222.642,226.656,230.487,235.355,239.663,245.77,251.319,257.233,263.442,266.399,272.313,277.8906,280.463,283.888,290.5612,293.175,297.484,303.591,308.459,312.971,316.284,320.297,325.378,327.868,331.028,336.343,341.821,344.381,350.001,354.868,358.181,361.494,366.361,370.34499999999997,372.875,377.742,380.7,386.827,391.339,394.296,400.505,405.586,408.899,413.6798,416.266,419.579,425.493,430.361,434.669,439.4498,442.036,444.994,450.908,457.086,463.214,468.081,473.995,478.507,483.375,487.5582,490.173,495.254,501.168,507.2436,509.877,513.19" svgx:width="0.42,0.33,0.4,0.5,0.29,0.56,0.58,0.33,0.33,0.55,0.4,0.83,0.5,0.4,0.61,0.55,0.5,0.42,0.55,0.29,0.33,0.55,0.29,0.42,0.55,0.33,0.55,0.4,0.55,0.33,0.58,0.48,0.55,0.44,0.55,0.4,0.4,0.48,0.42,0.6,0.55,0.58,0.61,0.29,0.58,0.56,0.55,0.34,0.67,0.55,0.42,0.6,0.48,0.44,0.33,0.4,0.5,0.25,0.55,0.61,0.55,0.55,0.55,0.48,0.33,0.33,0.48,0.4,0.55,0.48,0.29,0.6,0.44,0.29,0.61,0.5,0.33,0.48,0.55,0.33,0.58,0.48,0.42,0.48,0.55,0.29,0.58,0.61,0.6,0.48,0.58,0.44,0.48,0.42,0.55,0.5,0.58,0.61,0.55,0.33,0.55" style="fill:rgb(0,0,0);font-family:URWPalladioL-Roma;font-size:9.96px;stroke:none;">straightforward as it is for the corresponding IR spectra. To better elucidate these inﬂuences and to</text>
   <text y="356.699" x="76.236,82.104,85.785,90.461,94.601,99.277,104.96,108.2468,110.574,113.747,119.429,124.106,135.158,137.999,143.7758,146.112,151.09199999999998,153.425,157.76,160.601,165.278,170.159,174.143,176.447,185.068,189.95,195.632,201.314,205.991,209.105,211.595,213.987,222.13,226.9108,229.237,234.92,239.801,245.318,250.0988,252.425,258.391,263.067,268.584,273.26,276.101,281.432,287.3,291.977,298.0526,300.373,305.353,307.686,313.651,318.328,324.01,328.15,330.991,334.174,339.7516,342.033,350.654,355.536,361.512,363.835,367.086,371.421,376.752,379.593,384.924,388.78,397.401,402.283,408.151,411.43780000000004,413.823,419.154,422.4408,424.836,428.976,434.844,439.52,443.855,447.038,450.895,455.776,458.6644,461.048,465.383,470.714,476.396,479.579,483.436,486.277,491.676,497.563,500.746,503.587,508.918,514.6" svgx:width="0.6,0.4,0.48,0.42,0.48,0.58,0.33,0.55,0.33,0.58,0.48,0.88,0.29,0.58,0.55,0.5,0.55,0.44,0.29,0.48,0.5,0.4,0.55,0.88,0.5,0.58,0.58,0.48,0.4,0.25,0.55,0.83,0.48,0.55,0.58,0.5,0.56,0.48,0.55,0.61,0.48,0.56,0.48,0.29,0.55,0.6,0.48,0.61,0.55,0.5,0.55,0.61,0.48,0.58,0.42,0.29,0.33,0.56,0.55,0.88,0.5,0.6,0.55,0.33,0.44,0.55,0.29,0.55,0.4,0.88,0.5,0.6,0.33,0.55,0.55,0.33,0.55,0.42,0.6,0.48,0.44,0.33,0.4,0.5,0.29,0.55,0.44,0.55,0.58,0.33,0.4,0.29,0.55,0.6,0.33,0.29,0.55,0.58,0.42" style="fill:rgb(0,0,0);font-family:URWPalladioL-Roma;font-size:9.96px;stroke:none;">present themin a clear manner, we have developed a density map (colormap) of spectral contributions</text>
   <text y="370.208" x="76.535,79.848,85.326,87.876,93.79,96.747,102.397,108.311,111.268,114.225,119.875,125.79,129.07680000000002,131.582,134.895,140.809,145.5898,148.156,157.129,162.677,168.886,173.753,177.93619999999999,180.542,186.09,189.3768,191.953,194.91,200.825,204.137,209.005,212.836,217.703,222.012,225.2988,227.804,230.761,236.5378,239.155,244.135,246.716,251.024,254.337,258.351,263.432,266.389,272.039,277.953,281.266,284.65,290.198,294.212,302.687,307.768,311.599,317.6746,320.287,328.762,333.843,339.42060000000004,341.973,345.357,351.007,353.964,359.614,365.741,369.582" svgx:width="0.33,0.55,0.55,0.58,0.29,0.56,0.58,0.29,0.29,0.56,0.58,0.33,0.55,0.33,0.58,0.48,0.55,0.88,0.55,0.61,0.48,0.42,0.55,0.55,0.33,0.55,0.29,0.58,0.33,0.48,0.4,0.48,0.42,0.33,0.55,0.29,0.58,0.55,0.5,0.55,0.42,0.33,0.4,0.5,0.29,0.56,0.58,0.33,0.33,0.55,0.4,0.83,0.5,0.4,0.61,0.55,0.83,0.5,0.56,0.55,0.33,0.56,0.29,0.56,0.6,0.4,0.48" style="fill:rgb(0,0,0);font-family:URWPalladioL-Roma;font-size:9.96px;stroke:none;">to highlight the modes of interest in a straightforward way (Figure</text>
   <text y="370.208" x="376.919" svgx:width="0.5" style="fill:rgb(8,117,183);font-family:URWPalladioL-Roma;font-size:9.96px;stroke:none;">5</text>
   <text y="370.208" x="382.0,385.384,387.874,391.014,397.243,403.157,407.9378,410.504,415.016,420.565,423.522,429.07,433.054,435.563,439.577,444.658,450.572,456.222,461.0028,463.569,468.081,473.63,477.644,481.475,486.342,490.651,496.758,502.306,508.221,514.429" svgx:width="0.33,0.25,0.55,0.61,0.58,0.48,0.55,0.44,0.55,0.29,0.55,0.4,0.55,0.4,0.5,0.58,0.56,0.48,0.55,0.44,0.55,0.4,0.4,0.48,0.42,0.6,0.55,0.58,0.61,0.42" style="fill:rgb(0,0,0);font-family:URWPalladioL-Roma;font-size:9.96px;stroke:none;">). The color range corresponds</text>
   <text y="383.718" x="76.535,79.835,85.31299999999999,87.841,91.141,97.032,101.8128,104.371,108.662,114.331,120.434,125.495,129.311,134.0918,136.639,140.455,145.982,151.509,154.808,159.657,165.73260000000002,168.331,171.277,177.168,180.468,185.316,191.207,195.499,198.444,201.744,207.3216,209.852,213.85,218.911,222.211,225.156,230.63400000000001,233.163,238.689,241.9758,244.54,247.84,253.731,258.5118,261.069,265.361,270.209,273.155,278.003,282.497,285.797,290.646,296.7216,299.31,303.602,306.547,315.485,321.589,324.534,329.595,332.895,337.743,343.8186,346.408,352.005,357.066,362.957,369.142,373.3252,375.913,379.213,384.69100000000003,387.23,390.53,396.421,401.2018,403.749,407.049,412.575,415.875,420.936,423.82439999999997,426.361,429.307,435.198,438.498,443.346,449.237,453.529,456.474,459.774,465.3516,467.882,473.408,476.69480000000004,479.269,488.207,493.733,499.918,504.766,507.712,512.55" svgx:width="0.33,0.55,0.55,0.33,0.58,0.48,0.55,0.42,0.56,0.6,0.5,0.4,0.48,0.55,0.4,0.55,0.55,0.33,0.48,0.61,0.55,0.29,0.58,0.33,0.48,0.58,0.42,0.29,0.33,0.56,0.55,0.4,0.5,0.33,0.29,0.55,0.55,0.55,0.33,0.55,0.33,0.58,0.48,0.55,0.42,0.48,0.29,0.48,0.44,0.33,0.48,0.61,0.55,0.42,0.29,0.88,0.6,0.29,0.5,0.33,0.48,0.61,0.55,0.55,0.5,0.58,0.61,0.42,0.55,0.33,0.55,0.55,0.33,0.58,0.48,0.55,0.33,0.55,0.33,0.5,0.29,0.55,0.29,0.58,0.33,0.48,0.58,0.42,0.29,0.33,0.56,0.55,0.55,0.33,0.55,0.88,0.55,0.61,0.48,0.29,0.48,0.61" style="fill:rgb(0,0,0);font-family:URWPalladioL-Roma;font-size:9.96px;stroke:none;">to the square rooted intensity ratio of the selected simulated bands to the total intensity of modeled</text>
   <text y="397.227" x="76.535,80.696,86.593,91.294,95.651,98.85,102.648,108.565,119.713,124.619,127.9058,130.311,135.218,140.929,146.5066,148.868,154.324,157.18,162.724,167.424,173.20080000000002,175.628,183.812,188.719,194.263,198.964,204.675,210.593,219.258,224.684,229.385" svgx:width="0.42,0.6,0.48,0.44,0.33,0.4,0.6,0.88,0.5,0.33,0.55,0.5,0.58,0.56,0.55,0.56,0.29,0.56,0.48,0.58,0.55,0.83,0.5,0.56,0.48,0.58,0.6,0.88,0.55,0.48,0.4" style="fill:rgb(0,0,0);font-family:URWPalladioL-Roma;font-size:9.96px;stroke:none;">spectrumat any given wavenumber</text>
   <text y="397.227" x="235.869" svgx:width="0.5" style="fill:rgb(0,0,0);font-family:PazoMath-Italic;font-size:9.96px;stroke:none;">ν</text>
   <text y="399.047" x="240.975" svgx:width="0.29" style="fill:rgb(0,0,0);font-family:URWPalladioL-Roma;font-size:7.57px;stroke:none;">i</text>
   <text y="397.227" x="246.163,251.07,256.781,262.8566,265.259,270.166,276.162,282.158,285.013,288.212,291.068,296.426,302.137,307.044,309.9,312.755,318.3326,320.704,326.602,330.301,335.659,341.557,346.915,350.791,353.99,356.846,362.204,367.915,372.821,375.677,378.533,383.439,388.14,394.2156,396.618,399.817,405.295,407.658,410.857,416.569,421.3498,423.762,428.119,433.025,435.881,440.238,446.155,449.011,453.917,457.117,461.817,467.8926,470.296,473.151,478.862,482.062,486.762,492.473,496.634,499.49,502.689,508.26660000000004,510.638,515.544" svgx:width="0.5,0.58,0.61,0.55,0.5,0.61,0.61,0.29,0.33,0.29,0.55,0.58,0.5,0.29,0.29,0.56,0.55,0.6,0.4,0.55,0.6,0.55,0.4,0.33,0.29,0.55,0.58,0.5,0.29,0.29,0.5,0.48,0.61,0.55,0.33,0.55,0.55,0.33,0.58,0.48,0.55,0.44,0.5,0.29,0.44,0.6,0.29,0.5,0.33,0.48,0.61,0.55,0.29,0.58,0.33,0.48,0.58,0.42,0.29,0.33,0.56,0.55,0.5,0.33" style="fill:rgb(0,0,0);font-family:URWPalladioL-Roma;font-size:9.96px;stroke:none;">and additionally proportionalized to the calculated intensity at</text>
   <text y="410.736" x="76.535,79.848,85.762,90.843,94.1298,96.899,103.007,108.555,111.512,117.426,120.739,123.229,127.141,133.37,139.284,144.0648,146.896,152.546,155.503,160.37,163.327,169.536,174.404,180.4796,183.356,189.098,194.179,197.136,203.263,208.0438,210.875,214.889,219.97,225.884,231.534,236.401,240.5842,243.454,246.837,250.679,256.227,264.99179999999996,267.944,272.92400000000004,275.768,279.152,285.066,290.544,293.369,297.881,303.429,309.343,312.656,316.67,319.627,325.236,331.364,334.677,337.634,343.182,349.096,352.38280000000003,355.234,358.547,364.02500000000003,366.839,371.819,374.664,378.047,381.36,387.274,392.0548,394.886,403.33,406.755,413.4282,416.297,420.605,426.713,431.58,436.092,439.405,443.337,449.465,458.22979999999995,461.182,464.139,468.3222,471.191,474.148,480.062,486.241,492.368,497.236,503.15,507.662,512.529" svgx:width="0.33,0.58,0.5,0.33,0.55,0.6,0.55,0.29,0.58,0.33,0.25,0.55,0.61,0.58,0.48,0.55,0.56,0.29,0.48,0.29,0.61,0.48,0.61,0.55,0.56,0.5,0.29,0.6,0.48,0.55,0.4,0.5,0.58,0.56,0.48,0.42,0.55,0.33,0.4,0.55,0.88,0.55,0.5,0.55,0.33,0.58,0.55,0.55,0.44,0.55,0.58,0.33,0.4,0.29,0.55,0.6,0.33,0.29,0.55,0.58,0.33,0.55,0.33,0.55,0.55,0.5,0.55,0.33,0.33,0.58,0.48,0.55,0.83,0.34,0.67,0.55,0.42,0.6,0.48,0.44,0.33,0.4,0.6,0.88,0.55,0.29,0.42,0.55,0.29,0.58,0.61,0.6,0.48,0.58,0.44,0.48,0.61" style="fill:rgb(0,0,0);font-family:URWPalladioL-Roma;font-size:9.96px;stroke:none;">that point. The yielded value ranges from 0 (no contribution) to 1 (the NIR spectrum is inﬂuenced</text>
   <text y="424.246" x="76.535,82.155,87.7326,90.64,93.952,99.867,104.6478,107.569,111.878,116.745,119.703,124.57,129.082,132.395,137.262,143.3376,146.306,155.279,160.828,167.036,171.904,178.062,187.035,192.583,198.792,203.66,207.8432,210.814,215.681,221.595,224.898,227.855,231.696,236.564,239.521,245.171,248.555,251.04500000000002,255.221,261.45,267.364,272.1448,275.067,279.579,285.127,289.141,292.972,297.84,302.148,308.256,313.804,319.718,325.927,328.884,334.798,340.3756,343.284,347.795,353.344,356.301,361.849,365.83299999999997,368.708,374.45,379.531,383.545,386.502,391.369,395.5522,398.513,401.897,405.728,411.276,420.0408,423.085,428.704,431.661,436.742,441.254,446.83160000000004,449.739,453.052,458.53000000000003,461.435,469.91,475.825,478.782,482.094,486.962,489.452,492.429,497.51,503.424,509.4996,512.468,515.425" svgx:width="0.55,0.56,0.55,0.33,0.58,0.48,0.55,0.42,0.48,0.29,0.48,0.44,0.33,0.48,0.61,0.55,0.88,0.55,0.61,0.48,0.61,0.88,0.55,0.61,0.48,0.42,0.55,0.48,0.58,0.33,0.29,0.4,0.48,0.29,0.56,0.33,0.25,0.55,0.61,0.58,0.48,0.55,0.44,0.55,0.4,0.4,0.48,0.42,0.6,0.55,0.58,0.61,0.29,0.58,0.56,0.55,0.44,0.55,0.29,0.55,0.4,0.55,0.56,0.5,0.4,0.29,0.48,0.42,0.55,0.33,0.4,0.55,0.88,0.55,0.55,0.29,0.5,0.44,0.56,0.55,0.33,0.55,0.55,0.83,0.58,0.29,0.33,0.48,0.25,0.55,0.5,0.58,0.61,0.55,0.29,0.33" style="fill:rgb(0,0,0);font-family:URWPalladioL-Roma;font-size:9.96px;stroke:none;">by the selected mode/modes entirely). The corresponding color varies from black to white, and it</text>
   <text y="437.755" x="76.535,85.314,90.286,95.8636,98.3,103.798,108.5788,111.046,117.121,120.014,123.763,128.525,132.94,136.181,139.074,144.6516,147.088,149.982,155.768,159.01,163.772,167.699,173.675,177.423,182.186,185.427,190.19,196.2656,198.75,203.722,207.9052,210.423,213.664,219.451,224.2318,226.699,229.593,235.379,238.621,243.383,249.17,253.385,256.279,259.52,265.0976,267.534,272.963,276.24980000000005,278.759,283.73900000000003,286.216,291.744,294.638,300.255,305.018,310.79479999999995,313.29,322.069,327.498,333.573,338.3538,340.821,345.793,349.07980000000003,351.52,356.5,358.977,364.495,367.388,373.006,377.768,383.54479999999995,386.041,394.333,399.304,404.922,409.684,415.471,421.466,430.246,435.744,440.507,444.434,446.92400000000004,449.415,452.656,458.443,463.2238,465.691,470.106,475.535,478.428,483.857,487.784,491.015,495.987,501.485,504.378,509.1588,511.626,514.52" svgx:width="0.88,0.5,0.56,0.55,0.55,0.48,0.55,0.61,0.29,0.4,0.48,0.44,0.33,0.29,0.56,0.55,0.29,0.58,0.33,0.48,0.4,0.6,0.4,0.48,0.33,0.48,0.61,0.55,0.5,0.42,0.55,0.33,0.58,0.48,0.55,0.29,0.58,0.33,0.48,0.58,0.42,0.29,0.33,0.56,0.55,0.55,0.33,0.55,0.5,0.55,0.56,0.29,0.56,0.48,0.58,0.55,0.88,0.55,0.61,0.48,0.55,0.5,0.33,0.55,0.5,0.55,0.56,0.29,0.56,0.48,0.58,0.55,0.83,0.5,0.56,0.48,0.58,0.6,0.88,0.55,0.48,0.4,0.25,0.55,0.33,0.58,0.48,0.55,0.44,0.55,0.29,0.55,0.4,0.33,0.5,0.55,0.29,0.48,0.55,0.29,0.42" style="fill:rgb(0,0,0);font-family:URWPalladioL-Roma;font-size:9.96px;stroke:none;">may be directly interpreted as the intensity of a given mode at a given wavenumber; the colortable is</text>
   <text y="451.264" x="76.236,82.104,85.785,90.461,94.601,99.277,104.96,108.143,112.819,118.8946,121.216,127.103,132.785,138.751,143.427,147.284,152.966,157.643,162.524,165.707,171.4838,173.821,177.003,182.686,187.4668,189.793,195.7,201.129,207.016,210.697,215.373,217.863,220.88,226.865,232.547,237.3278,239.655,243.795,249.262,255.149,260.031,263.712,268.4928,270.819,274.5,279.831,285.162,288.4488,290.776,295.657,298.499,301.34,306.67,314.813,318.9962,321.384,324.635,329.966,333.95,336.253,340.93,343.771,349.658,353.993,356.835,362.8,367.682,370.864,373.706,379.388,384.9656,387.257,390.098,394.775,398.915,403.0982,405.485,411.353,415.024,420.355,426.037,431.368,437.255,442.937,447.272,451.949,458.0246,460.355,464.69,470.021,475.703,478.886,482.743,485.584,490.983,496.87,500.053,502.894,508.225,513.907,518.047" svgx:width="0.6,0.4,0.48,0.42,0.48,0.58,0.33,0.48,0.61,0.55,0.6,0.58,0.61,0.48,0.4,0.58,0.48,0.5,0.33,0.58,0.55,0.33,0.58,0.48,0.55,0.61,0.56,0.6,0.4,0.48,0.25,0.55,0.61,0.58,0.48,0.55,0.42,0.56,0.6,0.5,0.4,0.48,0.55,0.4,0.55,0.55,0.33,0.55,0.5,0.29,0.29,0.55,0.83,0.42,0.55,0.33,0.55,0.4,0.55,0.48,0.29,0.6,0.44,0.29,0.61,0.5,0.33,0.29,0.58,0.56,0.55,0.29,0.48,0.42,0.42,0.55,0.6,0.4,0.55,0.58,0.55,0.6,0.58,0.44,0.48,0.61,0.55,0.44,0.55,0.58,0.33,0.4,0.29,0.55,0.6,0.33,0.29,0.55,0.58,0.42,0.25" style="fill:rgb(0,0,0);font-family:URWPalladioL-Roma;font-size:9.96px;stroke:none;">presented underneath the ﬁgure. The square root allows for elucidating less pronounced contributions.</text>
   <text y="464.774" x="76.226,82.211,87.893,92.6738,94.835,100.8,105.477,111.159,115.299,118.14,121.323,126.9006,129.016,137.637,142.519,148.387,152.5702,154.782,157.965,163.647,168.529,171.8158,173.977,178.858,182.539,187.3198,189.471,195.436,200.113,203.296,207.973,211.829,220.45,223.291,228.974,233.65,239.72560000000001,241.881,245.132,250.463,254.447,256.584,262.101,266.982,270.839,273.68,279.011,284.898,289.0812,291.303,295.442,300.119,302.96,307.637,311.972,315.155,317.996,323.327,329.009,333.1922,335.404,340.735,344.02180000000004,346.251,354.872,360.203,366.168,370.845,374.984,378.236,383.566,386.818,390.069,392.91,398.592,401.775,406.452,410.132,414.809,418.949,422.23580000000004,424.397,429.278,432.119,434.961,440.291,450.689,453.941,459.271,463.255,465.393,471.28,476.963,481.639,487.107,492.994,495.835,501.351,506.682,511.017,515.899" svgx:width="0.61,0.58,0.48,0.55,0.61,0.48,0.58,0.42,0.29,0.33,0.56,0.55,0.88,0.5,0.6,0.42,0.55,0.33,0.58,0.5,0.33,0.55,0.5,0.4,0.48,0.55,0.61,0.48,0.33,0.48,0.4,0.88,0.29,0.58,0.48,0.61,0.55,0.33,0.55,0.4,0.55,0.56,0.5,0.4,0.29,0.55,0.6,0.42,0.55,0.42,0.48,0.29,0.48,0.44,0.33,0.29,0.55,0.58,0.42,0.55,0.55,0.33,0.55,0.88,0.55,0.61,0.48,0.42,0.33,0.55,0.33,0.33,0.29,0.58,0.33,0.48,0.4,0.48,0.42,0.33,0.55,0.5,0.29,0.29,0.55,0.83,0.33,0.55,0.4,0.55,0.6,0.58,0.48,0.56,0.6,0.29,0.56,0.55,0.44,0.5,0.29" style="fill:rgb(0,0,0);font-family:URWPalladioL-Roma;font-size:9.96px;stroke:none;">The density maps that are determined for various selections of modes-of-interest allowfor unequivocal</text>
   <text y="478.283" x="76.535,81.616,87.53,93.6056,96.361,99.674,105.588,111.136,114.967,120.516,126.643,132.293,138.06980000000001,140.829,145.91,151.824,156.905,159.862,165.512,169.821,172.778,176.9612,179.708,185.257,188.5438,191.252,194.565,200.479,205.2598,207.968,210.925,216.84,223.018,229.146,234.013,239.927,243.24,246.197,251.278,254.16639999999998,256.857,263.066,267.933,271.246,276.114,280.128,289.101,292.058,297.972,303.053,308.967,312.28,316.4632,319.21,322.167,327.94379999999995,330.693,334.006,339.92,344.7008,347.409,355.854,359.278,365.95120000000003,368.688,372.997,379.104,383.972,388.483,391.796,395.729,401.856,410.6208,413.451,419.0,422.2868,425.005,429.517,433.521,439.171,443.479,446.792,451.873,454.83,457.787,460.744,466.659,471.4398,474.148,483.121,487.988,490.945,496.026,504.999,507.956,513.871" svgx:width="0.5,0.58,0.61,0.55,0.33,0.58,0.55,0.4,0.55,0.6,0.56,0.58,0.55,0.5,0.58,0.5,0.29,0.56,0.42,0.29,0.42,0.55,0.55,0.33,0.55,0.33,0.58,0.48,0.55,0.29,0.58,0.61,0.6,0.48,0.58,0.33,0.29,0.5,0.29,0.55,0.61,0.48,0.33,0.48,0.4,0.88,0.29,0.58,0.5,0.58,0.33,0.42,0.55,0.29,0.58,0.55,0.33,0.58,0.48,0.55,0.83,0.34,0.67,0.55,0.42,0.6,0.48,0.44,0.33,0.4,0.6,0.88,0.55,0.55,0.33,0.55,0.44,0.4,0.56,0.42,0.33,0.5,0.29,0.29,0.29,0.58,0.48,0.55,0.88,0.48,0.29,0.5,0.88,0.29,0.58,0.48" style="fill:rgb(0,0,0);font-family:URWPalladioL-Roma;font-size:9.96px;stroke:none;">and thorough analysis of the inﬂuential determinants in the NIR spectrum of crystalline melamine</text>
   <text y="491.793" x="76.207,79.525,85.064,87.963,93.502,99.51,103.265" svgx:width="0.33,0.56,0.29,0.56,0.6,0.4,0.48" style="fill:rgb(0,0,0);font-family:URWPalladioL-Roma;font-size:9.96px;stroke:none;">(Figure</text>
   <text y="491.793" x="110.528" svgx:width="0.5" style="fill:rgb(8,117,183);font-family:URWPalladioL-Roma;font-size:9.96px;stroke:none;">5</text>
   <text y="491.793" x="115.509,118.827,121.317,123.808,132.117,137.915,140.814,143.714,148.4948,150.976,156.515,161.288,166.06,172.047,174.946,180.745,186.3226,188.774,192.022,197.82,202.6008,205.083,211.111,216.65,222.657,226.413,231.1938,233.676,238.099,243.539,252.336,258.323,263.305,267.728,271.01480000000004,273.466,278.448,284.246,290.3216,292.824,297.596,302.577,306.801,312.3786,314.831,318.079,323.557,326.009,329.765,334.537,339.519,345.606" svgx:width="0.33,0.25,0.55,0.83,0.58,0.29,0.29,0.48,0.55,0.56,0.48,0.48,0.6,0.29,0.58,0.56,0.55,0.33,0.58,0.48,0.55,0.61,0.56,0.6,0.4,0.48,0.55,0.44,0.55,0.88,0.6,0.5,0.44,0.33,0.55,0.5,0.58,0.61,0.55,0.48,0.5,0.42,0.56,0.55,0.33,0.55,0.55,0.4,0.48,0.5,0.61,0.25" style="fill:rgb(0,0,0);font-family:URWPalladioL-Roma;font-size:9.96px;stroke:none;">), while keeping the ﬁgure compact and easy to read.</text>
   <text y="505.302" x="97.745,103.873,109.685,114.4658,117.408,123.434,129.44,135.445,140.211,144.19500000000002,147.071,155.414,158.736,165.4092,168.38,172.109,176.875,182.424,185.279,190.726,196.5028,199.485,202.768,207.178,212.157,214.64700000000002,219.118,224.097,229.077,234.056,239.035,244.015,248.994,253.973,258.953,263.933,266.889,271.299" svgx:width="0.61,0.58,0.48,0.55,0.6,0.6,0.6,0.48,0.4,0.55,0.83,0.34,0.67,0.55,0.4,0.48,0.56,0.29,0.55,0.58,0.55,0.33,0.44,0.5,0.25,0.55,0.5,0.5,0.5,0.5,0.5,0.5,0.5,0.5,0.5,0.55,0.44,0.88" style="fill:rgb(0,0,0);font-family:URWPalladioL-Roma;font-size:9.96px;stroke:none;">The upper NIR region (ca. 6900–6500 cm</text>
   <text y="501.686" x="280.277" svgx:width="0.78" style="fill:rgb(0,0,0);font-family:CMSY10;font-size:7.89px;stroke:none;">−</text>
   <text y="501.686" x="286.429" svgx:width="0.5" style="fill:rgb(0,0,0);font-family:URWPalladioL-Roma;font-size:7.57px;stroke:none;">1</text>
   <text y="505.302" x="290.625,293.9118,296.864,299.72,303.9032,306.874,311.853,314.709,323.58,329.027,333.234,336.5208,339.402,344.168,349.98,353.191,356.047,359.776,364.542,367.398,372.97560000000004,375.893,381.899,387.345,393.351,399.377,402.232,407.212,410.423,415.189,421.26460000000003,424.253,429.771,435.34860000000003,438.266,441.478,447.29,452.0708,455.013,458.295,461.151,465.063,469.27,472.5568,475.428,480.875,486.515,491.281,495.193,498.404,503.851,509.663,514.429" svgx:width="0.33,0.55,0.29,0.42,0.55,0.5,0.29,0.88,0.55,0.42,0.33,0.55,0.48,0.58,0.33,0.29,0.4,0.48,0.29,0.56,0.55,0.6,0.55,0.6,0.6,0.29,0.5,0.33,0.48,0.61,0.55,0.55,0.56,0.55,0.33,0.58,0.48,0.55,0.33,0.29,0.4,0.42,0.33,0.55,0.55,0.56,0.48,0.4,0.33,0.55,0.58,0.48,0.42" style="fill:rgb(0,0,0);font-family:URWPalladioL-Roma;font-size:9.96px;stroke:none;">) is almost entirely populated by the first overtones</text>
   <text y="518.811" x="76.535,81.49,87.274,93.3496,95.829,99.024,104.808,109.5888,112.018,117.509,120.35,126.135,131.089,134.983,140.5606,142.981,147.37,152.79,161.618,167.109,169.95,175.734,180.689,183.884,186.726,192.146,197.9228,200.408,205.898,210.853,216.637,222.715,226.8982,229.368,234.788,238.0748,240.532,248.834" svgx:width="0.5,0.58,0.61,0.55,0.33,0.58,0.48,0.55,0.55,0.29,0.58,0.5,0.4,0.56,0.55,0.44,0.55,0.88,0.55,0.29,0.58,0.5,0.33,0.29,0.55,0.58,0.55,0.55,0.5,0.58,0.61,0.42,0.55,0.55,0.33,0.55,0.83,0.83" style="fill:rgb(0,0,0);font-family:URWPalladioL-Roma;font-size:9.96px;stroke:none;">and the binary combination bands of NH</text>
   <text y="520.631" x="257.159" svgx:width="0.5" style="fill:rgb(0,0,0);font-family:URWPalladioL-Roma;font-size:7.57px;stroke:none;">2</text>
   <text y="518.811" x="263.829,268.015,271.211,274.922,279.664,282.86,287.248,293.033,295.874,301.658,307.23560000000003,309.657,318.484,323.904,329.982,334.724,338.9072,341.388,344.654,350.176,353.017,358.538,364.535,368.246" svgx:width="0.42,0.33,0.4,0.48,0.33,0.44,0.58,0.29,0.58,0.56,0.55,0.88,0.55,0.61,0.48,0.42,0.55,0.33,0.56,0.29,0.56,0.6,0.4,0.48" style="fill:rgb(0,0,0);font-family:URWPalladioL-Roma;font-size:9.96px;stroke:none;">stretching modes (Figure</text>
   <text y="518.811" x="375.466" svgx:width="0.5" style="fill:rgb(8,117,183);font-family:URWPalladioL-Roma;font-size:9.96px;stroke:none;">5</text>
   <text y="518.811" x="380.421,383.687,386.177,389.198,397.045,400.24,406.024,410.767,414.751,417.137,420.333,426.117,431.072,436.8488,439.323,442.518,448.303,451.144,455.3272,457.808,462.55,467.667,472.056,476.798,482.774,485.97,488.811,494.231,500.015,502.505,504.92,508.115,513.899" svgx:width="0.33,0.25,0.55,0.79,0.33,0.58,0.48,0.4,0.55,0.33,0.58,0.5,0.58,0.55,0.33,0.58,0.29,0.42,0.55,0.48,0.52,0.44,0.48,0.6,0.33,0.29,0.55,0.58,0.25,0.55,0.33,0.58,0.48" style="fill:rgb(0,0,0);font-family:URWPalladioL-Roma;font-size:9.96px;stroke:none;">). Other than this exception, the</text>
   <text y="532.321" x="76.535,81.934,87.524,92.248,96.125,99.308,104.707,110.468,115.2488,117.66,123.129,128.064,133.826,139.879,144.0622,146.517,151.915,155.2018,157.636,166.429,171.153,173.983,178.919,187.712,190.542,196.303,201.0838,203.495,212.288,217.223,222.8006,225.19,230.66,235.4408,237.851,243.904,248.628,252.798,257.17,261.047,263.878,269.347,274.071,280.14660000000003,282.592,287.527,291.7102,294.165,299.926,305.325,311.086,314.339,319.063,323.233,327.403,332.127,337.888,341.071,343.901,348.837,351.7254,354.135,357.388,362.787,366.77099999999996,369.132,372.315,378.076,382.8568,385.268,390.667,393.85,399.611,404.335,408.31899999999996,410.68,414.377,419.101,424.6,427.43,432.829,438.59,442.7732,445.228,450.627,453.91380000000004,456.348,464.617,467.91,474.58320000000003,477.006,481.176,487.128,491.852,496.223,499.406,503.203,509.176,517.969" svgx:width="0.55,0.56,0.48,0.4,0.33,0.55,0.58,0.48,0.55,0.55,0.5,0.58,0.61,0.42,0.55,0.55,0.33,0.55,0.88,0.48,0.29,0.5,0.88,0.29,0.58,0.48,0.55,0.88,0.5,0.56,0.55,0.55,0.48,0.55,0.61,0.48,0.42,0.44,0.4,0.29,0.55,0.48,0.61,0.55,0.5,0.42,0.55,0.58,0.55,0.58,0.33,0.48,0.42,0.42,0.48,0.58,0.33,0.29,0.5,0.29,0.55,0.33,0.55,0.4,0.55,0.33,0.58,0.48,0.55,0.55,0.33,0.58,0.48,0.4,0.55,0.4,0.48,0.56,0.29,0.55,0.58,0.42,0.55,0.55,0.33,0.55,0.83,0.34,0.67,0.55,0.42,0.6,0.48,0.44,0.33,0.4,0.6,0.88,0.25" style="fill:rgb(0,0,0);font-family:URWPalladioL-Roma;font-size:9.96px;stroke:none;">overtone bands of melamine may be described as non-essential for the other regions of NIR spectrum.</text>
   <text y="545.83" x="76.535,79.858,85.671,89.878,93.089,97.855,102.834,108.941,111.431,114.672,117.884,123.696,128.4768,131.592,136.002,141.449,150.32,155.838,158.694,164.506,169.485,172.697,175.552,180.999,186.7758,189.941,195.459,200.438,206.251,212.358,216.5412,219.695,222.977,228.495,231.351,237.163,242.143,246.055,251.6326,254.743,259.154,264.59,273.461,278.979,281.835,287.647,292.627,295.838,298.693,304.14,309.953,314.1362,317.3,320.501,326.313,331.0938,334.219,343.09,348.537,352.744,355.955,358.445,361.687,364.898,369.664,373.576,379.388,384.368,388.28,393.8576,396.958,401.368,406.815,415.687,421.204,424.06,429.872,434.852,438.063,440.918,446.365,452.178,456.3612,459.515,462.726,468.204,471.302,476.28200000000004,479.411,484.929,487.785,491.07180000000005,494.126,496.981,501.747,505.954,510.161,514.927" svgx:width="0.34,0.58,0.42,0.33,0.48,0.5,0.61,0.25,0.55,0.33,0.58,0.48,0.55,0.44,0.55,0.88,0.55,0.29,0.58,0.5,0.33,0.29,0.55,0.58,0.55,0.55,0.5,0.58,0.61,0.42,0.55,0.33,0.55,0.29,0.58,0.5,0.4,0.56,0.55,0.44,0.55,0.88,0.55,0.29,0.58,0.5,0.33,0.29,0.55,0.58,0.42,0.55,0.33,0.58,0.48,0.55,0.88,0.55,0.42,0.33,0.25,0.55,0.33,0.48,0.4,0.58,0.5,0.4,0.56,0.55,0.44,0.55,0.88,0.55,0.29,0.58,0.5,0.33,0.29,0.55,0.58,0.42,0.55,0.33,0.55,0.55,0.5,0.55,0.55,0.29,0.33,0.55,0.29,0.48,0.42,0.42,0.48,0.4" style="fill:rgb(0,0,0);font-family:URWPalladioL-Roma;font-size:9.96px;stroke:none;">Instead, the combination bands (binary combinations the most, ternary combinations to a bit lesser</text>
   <text y="559.34" x="76.535,82.642,87.408,92.957,96.686,101.452,106.218,109.5048,112.152,118.158,121.013,125.993,131.57059999999998,134.193,137.405,143.217,147.9978,150.635,156.641,160.553,163.409,172.28,177.259,181.172,186.7496,189.362,193.102,198.548,201.404,206.1848,208.822,212.033,217.846,222.612,226.341,231.107,233.597,237.163,244.968,250.516,255.495,258.351,264.163,266.653,269.295,272.506,278.319,283.0998,285.737,290.147,295.594,304.465,309.983,312.839,318.651,323.63,326.842,329.697,335.144,340.956,345.1392,347.816,351.027,356.839,361.819,365.10580000000004,367.682,370.527,376.34,381.98,387.427,390.282,395.922,400.7028,403.34,407.547,410.758,414.498,419.264,422.475,426.885,432.698,435.553,441.366,446.9436,449.556,457.899" svgx:width="0.61,0.48,0.56,0.4,0.48,0.48,0.33,0.55,0.6,0.29,0.5,0.56,0.55,0.33,0.58,0.48,0.55,0.6,0.4,0.29,0.88,0.5,0.4,0.56,0.55,0.4,0.55,0.29,0.48,0.55,0.33,0.58,0.48,0.4,0.48,0.25,0.55,0.78,0.56,0.5,0.29,0.58,0.25,0.55,0.33,0.58,0.48,0.55,0.44,0.55,0.88,0.55,0.29,0.58,0.5,0.33,0.29,0.55,0.58,0.42,0.55,0.33,0.58,0.5,0.33,0.55,0.29,0.58,0.56,0.55,0.29,0.56,0.48,0.55,0.42,0.33,0.4,0.48,0.33,0.44,0.58,0.29,0.58,0.56,0.55,0.83,0.83" style="fill:rgb(0,0,0);font-family:URWPalladioL-Roma;font-size:9.96px;stroke:none;">degree) play the primary role there. Again, the combinations that involve stretching NH</text>
   <text y="561.16" x="466.268" svgx:width="0.5" style="fill:rgb(0,0,0);font-family:URWPalladioL-Roma;font-size:7.57px;stroke:none;">2</text>
   <text y="559.34" x="473.114,481.985,487.432,493.539,498.305,502.4882,505.164,510.144,513.873" svgx:width="0.88,0.55,0.61,0.48,0.42,0.55,0.5,0.4,0.48" style="fill:rgb(0,0,0);font-family:URWPalladioL-Roma;font-size:9.96px;stroke:none;">modes are</text>
   <text y="572.849" x="76.535,79.746,85.559,90.3398,93.129,102.001,107.447,111.654,114.9408,117.66,120.516,129.387,135.392,140.839,144.752,147.963,152.942,158.755,162.0418,164.77,168.053,173.032,177.442,180.653,186.1,189.271,191.761,195.784,201.912,207.724,212.5048,215.285,219.695,225.142,229.054,232.794,237.56,241.767,247.772,253.219,259.032,265.139,267.994,273.807,279.38460000000003,282.15,287.668,290.523,296.336,301.315,305.227,310.8046,313.58,317.991,323.437,332.309,337.827,340.682,346.495,351.474,354.685,357.54,362.987,368.8,372.9832,375.801,381.807,385.547,390.993,396.633,399.489,405.596,410.3768,413.156,418.796,423.562,427.474,433.0516,435.827,440.034,443.246,446.975,452.422,458.234,463.8116,466.587,469.443,475.255,478.538,481.393,487.419,492.185,497.997,502.408,507.1888,509.968,512.824" svgx:width="0.33,0.58,0.48,0.55,0.88,0.55,0.42,0.33,0.55,0.29,0.88,0.6,0.55,0.4,0.33,0.5,0.58,0.33,0.55,0.33,0.5,0.44,0.33,0.55,0.4,0.25,0.55,0.61,0.58,0.48,0.55,0.44,0.55,0.4,0.4,0.48,0.42,0.6,0.55,0.58,0.61,0.29,0.58,0.56,0.55,0.55,0.29,0.58,0.5,0.4,0.56,0.55,0.44,0.55,0.88,0.55,0.29,0.58,0.5,0.33,0.29,0.55,0.58,0.42,0.55,0.6,0.4,0.55,0.56,0.29,0.61,0.48,0.55,0.56,0.48,0.4,0.56,0.55,0.42,0.33,0.4,0.55,0.58,0.56,0.55,0.29,0.58,0.33,0.29,0.6,0.48,0.58,0.44,0.48,0.55,0.29,0.58" style="fill:rgb(0,0,0);font-family:URWPalladioL-Roma;font-size:9.96px;stroke:none;">the most important factor. The corresponding binary combinations provide very strong influence in</text>
   <text y="586.358" x="76.535,79.746,85.559,90.3398,93.556,98.535,103.515,108.494,113.473,118.453,123.432,128.411,133.391,138.37099999999998,141.612,146.022" svgx:width="0.33,0.58,0.48,0.55,0.5,0.5,0.5,0.5,0.5,0.5,0.5,0.5,0.5,0.55,0.44,0.88" style="fill:rgb(0,0,0);font-family:URWPalladioL-Roma;font-size:9.96px;stroke:none;">the 6900–6500 cm</text>
   <text y="582.742" x="154.996" svgx:width="0.78" style="fill:rgb(0,0,0);font-family:CMSY10;font-size:7.89px;stroke:none;">−</text>
   <text y="582.742" x="161.148" svgx:width="0.5" style="fill:rgb(0,0,0);font-family:URWPalladioL-Roma;font-size:7.57px;stroke:none;">1</text>
   <text y="586.358" x="168.578,172.307,177.073,182.622,185.477,190.924,196.70080000000002,199.978,204.957,210.77,216.84560000000002,220.109,223.32,229.132,232.862,238.309,244.335,249.883,255.696,261.142,267.168,270.45480000000003,273.621,278.601,281.832,287.35,291.079,296.526,301.505,307.5806,310.844,315.833,320.813,325.792,330.771,335.751,340.73,345.709,350.689,355.66900000000004,358.899,363.31" svgx:width="0.4,0.48,0.56,0.29,0.55,0.58,0.55,0.5,0.58,0.61,0.55,0.33,0.58,0.4,0.55,0.6,0.56,0.58,0.55,0.6,0.33,0.55,0.5,0.55,0.55,0.4,0.55,0.5,0.61,0.55,0.5,0.5,0.5,0.5,0.5,0.5,0.5,0.5,0.5,0.55,0.44,0.88" style="fill:rgb(0,0,0);font-family:URWPalladioL-Roma;font-size:9.96px;stroke:none;">region and throughout a broad 5100–4000 cm</text>
   <text y="582.742" x="372.286" svgx:width="0.78" style="fill:rgb(0,0,0);font-family:CMSY10;font-size:7.89px;stroke:none;">−</text>
   <text y="582.742" x="378.438" svgx:width="0.5" style="fill:rgb(0,0,0);font-family:URWPalladioL-Roma;font-size:7.57px;stroke:none;">1</text>
   <text y="586.358" x="385.868,389.597,394.363,399.912,402.767,408.214,414.026,416.516,421.841,427.054,431.82,435.732,441.545,446.524,450.436,456.0136,459.216,463.626,469.073,477.944,483.462,486.318,492.13,497.11,500.321,503.176,508.623,514.436" svgx:width="0.4,0.48,0.56,0.29,0.55,0.58,0.25,0.55,0.61,0.48,0.4,0.58,0.5,0.4,0.56,0.55,0.44,0.55,0.88,0.55,0.29,0.58,0.5,0.33,0.29,0.55,0.58,0.42" style="fill:rgb(0,0,0);font-family:URWPalladioL-Roma;font-size:9.96px;stroke:none;">region. Ternary combinations</text>
   <text y="599.868" x="76.535,79.746,85.559,90.538,93.8248,96.249,99.104,104.917,110.557,116.004,118.859,124.499,129.2798,131.765,140.108" svgx:width="0.33,0.58,0.5,0.33,0.55,0.29,0.58,0.56,0.55,0.29,0.56,0.48,0.55,0.83,0.83" style="fill:rgb(0,0,0);font-family:URWPalladioL-Roma;font-size:9.96px;stroke:none;">that involve NH</text>
   <text y="601.688" x="148.471" svgx:width="0.5" style="fill:rgb(0,0,0);font-family:URWPalladioL-Roma;font-size:7.57px;stroke:none;">2</text>
   <text y="599.868" x="155.166,159.373,162.584,166.314,171.079,174.291,178.701,184.513,187.369,193.181,198.7586,201.23,210.101,215.548,221.655,226.421,230.6042,233.128,238.574,244.387,247.242,252.81959999999998,255.291,260.839,263.694,269.334,274.1148,276.6,284.973,289.739,294.719,300.2966,302.767,305.622,311.435,314.717,317.573,323.599,328.364,334.177,338.587,343.3678,345.853,348.708,354.4848,357.021,360.232,366.044,370.8248,373.31,377.04,381.806,387.354,390.209,395.656,401.4328,403.968,409.415,412.70180000000005,415.197,420.177,425.156,430.135,435.115,440.094,445.073,450.052,455.032,460.012,462.511,466.921" svgx:width="0.42,0.33,0.4,0.48,0.33,0.44,0.58,0.29,0.58,0.56,0.55,0.88,0.55,0.61,0.48,0.42,0.55,0.55,0.58,0.29,0.56,0.55,0.56,0.29,0.56,0.48,0.55,0.83,0.48,0.5,0.56,0.55,0.29,0.58,0.33,0.29,0.6,0.48,0.58,0.44,0.48,0.55,0.29,0.58,0.55,0.33,0.58,0.48,0.55,0.4,0.48,0.56,0.29,0.55,0.58,0.55,0.55,0.33,0.55,0.5,0.5,0.5,0.5,0.5,0.5,0.5,0.5,0.5,0.55,0.44,0.88" style="fill:rgb(0,0,0);font-family:URWPalladioL-Roma;font-size:9.96px;stroke:none;">stretching modes only give weak influence in the region of 6500–6000 cm</text>
   <text y="596.251" x="475.896" svgx:width="0.78" style="fill:rgb(0,0,0);font-family:CMSY10;font-size:7.89px;stroke:none;">−</text>
   <text y="596.251" x="482.048" svgx:width="0.5" style="fill:rgb(0,0,0);font-family:URWPalladioL-Roma;font-size:7.57px;stroke:none;">1</text>
   <text y="599.868" x="486.244,488.73400000000004,491.193,499.566,505.379,510.145,513.874" svgx:width="0.25,0.55,0.83,0.58,0.48,0.4,0.48" style="fill:rgb(0,0,0);font-family:URWPalladioL-Roma;font-size:9.96px;stroke:none;">, where</text>
   <text y="613.377" x="76.535,79.746,85.559,90.3398,93.109,97.316,103.322,108.088,112.498,115.709,119.621,124.601,127.4894,130.24,133.096,135.951,141.764,146.53,150.737,156.549,161.529,167.534,172.3148,175.085,177.94,182.1232,184.931,188.844,193.823,197.034,202.847,207.613,211.597,214.309,217.592,220.447,225.426,228.638,231.12800000000001,235.09,241.218,247.03,251.8108,254.581,260.393,263.249,268.797,274.61,277.465,283.0426,285.798,291.804,297.25,303.256,309.282,312.137,317.117,320.328,325.094,331.1696,333.985,337.715,342.481,348.029,350.884,356.331,362.1078,364.928,370.446,375.212,378.423,386.796,391.562,396.328,402.10479999999995,404.925,409.904,414.884,419.863,424.842,429.822,434.801,439.78,444.76,449.74,452.523,456.934" svgx:width="0.33,0.58,0.48,0.55,0.42,0.6,0.48,0.44,0.33,0.4,0.5,0.29,0.55,0.29,0.29,0.58,0.48,0.42,0.58,0.5,0.6,0.48,0.55,0.29,0.42,0.55,0.4,0.5,0.33,0.58,0.48,0.4,0.55,0.33,0.29,0.5,0.33,0.25,0.55,0.61,0.58,0.48,0.55,0.58,0.29,0.56,0.58,0.29,0.56,0.55,0.6,0.55,0.6,0.6,0.29,0.5,0.33,0.48,0.61,0.55,0.4,0.48,0.56,0.29,0.55,0.58,0.55,0.55,0.48,0.33,0.83,0.48,0.48,0.58,0.55,0.5,0.5,0.5,0.5,0.5,0.5,0.5,0.5,0.5,0.55,0.44,0.88" style="fill:rgb(0,0,0);font-family:URWPalladioL-Roma;font-size:9.96px;stroke:none;">the spectral lineshape is rather flat. The highly populated region between 5100–4000 cm</text>
   <text y="609.761" x="465.911" svgx:width="0.78" style="fill:rgb(0,0,0);font-family:CMSY10;font-size:7.89px;stroke:none;">−</text>
   <text y="609.761" x="472.063" svgx:width="0.5" style="fill:rgb(0,0,0);font-family:URWPalladioL-Roma;font-size:7.57px;stroke:none;">1</text>
   <text y="613.377" x="479.043,481.898,486.0812,488.89,497.761,503.208,507.415,510.626,513.482" svgx:width="0.29,0.42,0.55,0.88,0.55,0.42,0.33,0.29,0.56" style="fill:rgb(0,0,0);font-family:URWPalladioL-Roma;font-size:9.96px;stroke:none;">is mostly</text>
   <text y="626.887" x="76.535,79.304,84.94,88.122,90.891,96.734,101.355,106.991,111.267,115.888,121.9636,124.273,129.623,135.20059999999998,137.456,140.57,146.206,150.9868,153.29,157.566,162.847,171.449,176.799,179.568,185.204,190.032,193.145,195.914,201.195,206.831,211.0142,213.374,218.655,221.9418,224.291,228.37,231.483,235.1,239.721,242.834,247.11,252.746,255.515,261.151,266.72860000000003,268.994,277.596,282.877,288.798,293.419,297.6022,299.962,308.081,310.849,313.963,319.7398,322.052,327.974,332.595,335.778,341.059,344.852,353.454,358.282,361.395,364.164,369.445,375.2218,377.544,386.146,391.427,397.349,401.97,406.1532,408.512,413.793,417.07980000000003,419.429,427.519" svgx:width="0.29,0.58,0.33,0.29,0.6,0.48,0.58,0.44,0.48,0.61,0.55,0.55,0.56,0.55,0.33,0.58,0.48,0.55,0.44,0.55,0.88,0.55,0.29,0.58,0.5,0.33,0.29,0.55,0.58,0.42,0.55,0.55,0.33,0.55,0.42,0.33,0.4,0.48,0.33,0.44,0.58,0.29,0.58,0.56,0.55,0.88,0.55,0.61,0.48,0.42,0.55,0.83,0.29,0.33,0.58,0.55,0.61,0.48,0.33,0.55,0.4,0.88,0.5,0.33,0.29,0.55,0.58,0.55,0.88,0.55,0.61,0.48,0.42,0.55,0.55,0.33,0.55,0.83,0.83" style="fill:rgb(0,0,0);font-family:URWPalladioL-Roma;font-size:9.96px;stroke:none;">influenced by the combinations of stretching modes with deformation modes of NH</text>
   <text y="628.707" x="435.633" svgx:width="0.5" style="fill:rgb(0,0,0);font-family:URWPalladioL-Roma;font-size:7.57px;stroke:none;">2</text>
   <text y="626.887" x="442.29,447.67,451.286,456.567,462.41,468.233,472.312,474.802,477.741,483.682,489.318,494.0988,496.393,501.674,504.788,510.423,515.045" svgx:width="0.56,0.4,0.55,0.6,0.6,0.42,0.25,0.55,0.61,0.58,0.48,0.55,0.55,0.33,0.58,0.48,0.4" style="fill:rgb(0,0,0);font-family:URWPalladioL-Roma;font-size:9.96px;stroke:none;">groups. The other</text>
   <text y="640.396" x="76.535,79.39,85.203,88.485,91.341,97.367,102.133,107.945,111.156,114.012,118.991,121.8794,125.048,128.33,133.309,137.72,140.931,146.377,150.36100000000002,153.491,156.346" svgx:width="0.29,0.58,0.33,0.29,0.6,0.48,0.58,0.33,0.29,0.5,0.29,0.55,0.33,0.5,0.44,0.33,0.55,0.4,0.55,0.29,0.42" style="fill:rgb(0,0,0);font-family:URWPalladioL-Roma;font-size:9.96px;stroke:none;">influential factor is</text>
   <text y="640.396" x="163.871" svgx:width="0.5" style="fill:rgb(0,0,0);font-family:PazoMath-Italic;font-size:9.96px;stroke:none;">ν</text>
   <text y="640.396" x="168.877,175.98,179.262,187.5288,190.806,199.678,205.124,211.232,216.0128,219.198,222.481,227.999,233.445,236.646,242.4228,245.66,248.515,254.2918,257.529,261.441,264.297,270.109,275.6866,278.859,283.838,288.0212,291.246,299.619,304.385,307.241,310.1294,313.287,318.266,322.4492,325.674,331.192,335.958,339.169,347.543,352.308,357.074,362.8508,366.088,373.1596,376.392,381.371,384.582,390.029,398.9,403.0832,406.298,409.154,414.9308,418.167,422.08,424.935,430.748,436.3256,439.497,444.476,450.289,456.3646,459.597,467.94" svgx:width="0.71,0.33,0.83,0.55,0.88,0.55,0.61,0.48,0.55,0.33,0.55,0.55,0.33,0.58,0.55,0.29,0.58,0.55,0.4,0.29,0.58,0.56,0.55,0.5,0.42,0.55,0.83,0.48,0.29,0.29,0.55,0.5,0.42,0.55,0.55,0.48,0.33,0.83,0.48,0.48,0.58,0.55,0.71,0.55,0.5,0.33,0.55,0.88,0.42,0.55,0.29,0.58,0.55,0.4,0.29,0.58,0.56,0.55,0.5,0.58,0.61,0.55,0.83,0.83" style="fill:rgb(0,0,0);font-family:URWPalladioL-Roma;font-size:9.96px;stroke:none;">C-N mode (both in ring as well as between C atoms in ring and NH</text>
   <text y="642.216" x="476.301" svgx:width="0.5" style="fill:rgb(0,0,0);font-family:URWPalladioL-Roma;font-size:7.57px;stroke:none;">2</text>
   <text y="640.396" x="483.696,489.244,492.974,498.421,504.446,510.452,514.659,517.941" svgx:width="0.56,0.4,0.55,0.6,0.6,0.42,0.33,0.25" style="fill:rgb(0,0,0);font-family:URWPalladioL-Roma;font-size:9.96px;stroke:none;">groups).</text>
   <text y="653.905" x="76.535,84.61,89.875,97.969,102.576,108.028,112.635,115.68,118.17,120.503,123.607,129.226,134.0068,136.299,144.393,149.206,154.57,159.933,162.694,168.312,173.8896,176.141,184.206" svgx:width="0.83,0.55,0.83,0.48,0.56,0.48,0.4,0.25,0.55,0.33,0.58,0.48,0.55,0.83,0.5,0.56,0.56,0.29,0.58,0.56,0.55,0.83,0.83" style="fill:rgb(0,0,0);font-family:URWPalladioL-Roma;font-size:9.96px;stroke:none;">However, the wagging NH</text>
   <text y="655.725" x="192.289" svgx:width="0.5" style="fill:rgb(0,0,0);font-family:URWPalladioL-Roma;font-size:7.57px;stroke:none;">2</text>
   <text y="653.905" x="198.95,207.526,212.791,218.694,223.301,227.4842,229.834,234.647,238.252,243.0328,245.325,248.085,252.899,256.494,261.857,266.464,269.225,274.80260000000004,277.054,281.12,286.945,292.751,298.556,302.161,306.768,310.835,314.902,319.509,325.413,327.903,330.835,336.758,342.377,347.1578,349.45,358.025,363.291,369.194,373.801,377.9842,380.334,383.438,389.057,393.87,397.15680000000003,399.43,405.334,410.812,413.064,418.683,423.948,427.2348,429.518,432.278,437.897,441.07,443.83,449.655,454.262,459.881,464.145,468.9258,471.217,479.282,482.494,489.16720000000004,491.423,495.028,499.635,504.999,507.759,513.024" svgx:width="0.88,0.55,0.61,0.48,0.42,0.55,0.5,0.4,0.48,0.55,0.29,0.5,0.4,0.56,0.48,0.29,0.56,0.55,0.42,0.6,0.6,0.6,0.4,0.48,0.42,0.42,0.48,0.61,0.25,0.55,0.61,0.58,0.48,0.55,0.88,0.55,0.61,0.48,0.42,0.55,0.33,0.58,0.5,0.33,0.55,0.61,0.55,0.55,0.58,0.55,0.33,0.55,0.29,0.58,0.33,0.29,0.6,0.48,0.58,0.44,0.48,0.55,0.83,0.34,0.67,0.55,0.4,0.48,0.56,0.29,0.55,0.58" style="fill:rgb(0,0,0);font-family:URWPalladioL-Roma;font-size:9.96px;stroke:none;">modes are largely suppressed. The modes that do not influence NIR region</text>
   <text y="667.415" x="76.535,81.368,84.988,89.7688,92.079,96.912,101.0952,103.461,106.647,111.933,114.705,117.476,122.763,130.89,134.973,137.46300000000002,139.806,145.092,150.566,155.192,158.989,162.106,167.393,173.034,177.66,181.8432,184.209,189.496" svgx:width="0.5,0.4,0.48,0.55,0.5,0.42,0.55,0.33,0.55,0.29,0.29,0.55,0.83,0.42,0.25,0.55,0.55,0.56,0.48,0.4,0.33,0.55,0.58,0.48,0.42,0.55,0.55,0.33" style="fill:rgb(0,0,0);font-family:URWPalladioL-Roma;font-size:9.96px;stroke:none;">are as follows; overtones of</text>
   <text y="667.415" x="195.27" svgx:width="0.46" style="fill:rgb(0,0,0);font-family:PazoMath-Italic;font-size:9.96px;stroke:none;">δ</text>
   <text y="669.235" x="199.869,201.997" svgx:width="0.29,0.6" style="fill:rgb(0,0,0);font-family:URWPalladioL-Roma;font-size:7.57px;stroke:none;">ip</text>
   <text y="667.415" x="206.958,210.755,213.527,219.168,224.554" svgx:width="0.4,0.29,0.58,0.56,0.25" style="fill:rgb(0,0,0);font-family:URWPalladioL-Roma;font-size:9.96px;stroke:none;">ring,</text>
   <text y="667.415" x="229.511" svgx:width="0.46" style="fill:rgb(0,0,0);font-family:PazoMath-Italic;font-size:9.96px;stroke:none;">δ</text>
   <text y="669.235" x="234.11,236.238" svgx:width="0.29,0.6" style="fill:rgb(0,0,0);font-family:URWPalladioL-Roma;font-size:7.57px;stroke:none;">ip</text>
   <text y="667.415" x="241.199,248.093,251.279,259.376,262.562" svgx:width="0.71,0.33,0.83,0.33,0.83" style="fill:rgb(0,0,0);font-family:URWPalladioL-Roma;font-size:9.96px;stroke:none;">C-N(H</text>
   <text y="669.235" x="270.681" svgx:width="0.5" style="fill:rgb(0,0,0);font-family:URWPalladioL-Roma;font-size:7.57px;stroke:none;">2</text>
   <text y="667.415" x="274.878,278.064" svgx:width="0.33,0.25" style="fill:rgb(0,0,0);font-family:URWPalladioL-Roma;font-size:9.96px;stroke:none;">),</text>
   <text y="667.415" x="283.021" svgx:width="0.46" style="fill:rgb(0,0,0);font-family:PazoMath-Italic;font-size:9.96px;stroke:none;">δ</text>
   <text y="668.909" x="287.621,291.679,295.738" svgx:width="0.55,0.55,0.6" style="fill:rgb(0,0,0);font-family:URWPalladioL-Roma;font-size:7.57px;stroke:none;">oop</text>
   <text y="667.415" x="300.698,304.495,307.267,312.908,318.294" svgx:width="0.4,0.29,0.58,0.56,0.25" style="fill:rgb(0,0,0);font-family:URWPalladioL-Roma;font-size:9.96px;stroke:none;">ring,</text>
   <text y="667.415" x="323.251" svgx:width="0.46" style="fill:rgb(0,0,0);font-family:PazoMath-Italic;font-size:9.96px;stroke:none;">δ</text>
   <text y="668.909" x="327.851,331.909,335.968" svgx:width="0.55,0.55,0.6" style="fill:rgb(0,0,0);font-family:URWPalladioL-Roma;font-size:7.57px;stroke:none;">oop</text>
   <text y="667.415" x="340.928,347.822,351.008,359.105,362.291" svgx:width="0.71,0.33,0.83,0.33,0.83" style="fill:rgb(0,0,0);font-family:URWPalladioL-Roma;font-size:9.96px;stroke:none;">C-N(H</text>
   <text y="669.235" x="370.411" svgx:width="0.5" style="fill:rgb(0,0,0);font-family:URWPalladioL-Roma;font-size:7.57px;stroke:none;">2</text>
   <text y="667.415" x="374.607,377.793" svgx:width="0.33,0.25" style="fill:rgb(0,0,0);font-family:URWPalladioL-Roma;font-size:9.96px;stroke:none;">),</text>
   <text y="667.415" x="382.75" svgx:width="0.46" style="fill:rgb(0,0,0);font-family:PazoMath-Italic;font-size:9.96px;stroke:none;">δ</text>
   <text y="669.466" x="387.35,390.129,394.187,397.473" svgx:width="0.4,0.55,0.44,0.56" style="fill:rgb(0,0,0);font-family:URWPalladioL-Roma;font-size:7.57px;stroke:none;">rock</text>
   <text y="667.415" x="402.093,410.19" svgx:width="0.83,0.83" style="fill:rgb(0,0,0);font-family:URWPalladioL-Roma;font-size:9.96px;stroke:none;">NH</text>
   <text y="669.235" x="418.31" svgx:width="0.5" style="fill:rgb(0,0,0);font-family:URWPalladioL-Roma;font-size:7.57px;stroke:none;">2</text>
   <text y="667.415" x="422.506" svgx:width="0.25" style="fill:rgb(0,0,0);font-family:URWPalladioL-Roma;font-size:9.96px;stroke:none;">,</text>
   <text y="667.415" x="427.464" svgx:width="0.46" style="fill:rgb(0,0,0);font-family:PazoMath-Italic;font-size:9.96px;stroke:none;">δ</text>
   <text y="669.235" x="432.064,434.457,440.696,442.823,445.958" svgx:width="0.33,0.83,0.29,0.42,0.33" style="fill:rgb(0,0,0);font-family:URWPalladioL-Roma;font-size:7.57px;stroke:none;">twist</text>
   <text y="667.415" x="448.836,456.934" svgx:width="0.83,0.83" style="fill:rgb(0,0,0);font-family:URWPalladioL-Roma;font-size:9.96px;stroke:none;">NH</text>
   <text y="669.235" x="465.053" svgx:width="0.5" style="fill:rgb(0,0,0);font-family:URWPalladioL-Roma;font-size:7.57px;stroke:none;">2</text>
   <text y="667.415" x="469.249" svgx:width="0.25" style="fill:rgb(0,0,0);font-family:URWPalladioL-Roma;font-size:9.96px;stroke:none;">,</text>
   <text y="667.415" x="474.207" svgx:width="0.46" style="fill:rgb(0,0,0);font-family:PazoMath-Italic;font-size:9.96px;stroke:none;">δ</text>
   <text y="668.909" x="478.806,485.045,488.755,492.889" svgx:width="0.83,0.5,0.56,0.56" style="fill:rgb(0,0,0);font-family:URWPalladioL-Roma;font-size:7.57px;stroke:none;">wagg</text>
   <text y="667.415" x="497.51,505.608" svgx:width="0.83,0.83" style="fill:rgb(0,0,0);font-family:URWPalladioL-Roma;font-size:9.96px;stroke:none;">NH</text>
   <text y="669.235" x="513.727" svgx:width="0.5" style="fill:rgb(0,0,0);font-family:URWPalladioL-Roma;font-size:7.57px;stroke:none;">2</text>
   <text y="667.415" x="517.923" svgx:width="0.25" style="fill:rgb(0,0,0);font-family:URWPalladioL-Roma;font-size:9.96px;stroke:none;">.</text>
   <text y="680.924" x="97.795,103.78,109.462,114.2428,116.326,121.208,126.89,131.771,134.613,140.041,144.181,147.022,151.2052,153.358,158.689,161.9758,164.127,167.31,172.992,177.7728,179.866,187.979,191.269,197.9422,199.978,208.599,213.93,219.895,224.572,228.7552,230.899,234.58,239.256,244.772,249.449,254.331,257.172,261.3552,263.499,268.47900000000004,270.577,274.717,277.899,281.678,287.565,291.9,295.083,300.97,304.827,309.709,312.5974,314.737,320.604,325.486,328.669,331.852,336.528,340.385,346.067,348.557,351.496,357.481,363.163,367.9438,370.026,378.648,383.978,389.944,394.62,398.8032,400.957,404.14,409.822,414.704,417.99080000000004,420.073,422.915,428.597,434.113,439.444,442.285,447.801,452.5818,454.665,457.506,463.188,466.44,472.307,475.148,480.03,485.712,490.4928,492.586,497.467,500.65,505.981,514.602" svgx:width="0.61,0.58,0.48,0.55,0.5,0.58,0.5,0.29,0.56,0.42,0.29,0.42,0.55,0.55,0.33,0.55,0.33,0.58,0.48,0.55,0.83,0.34,0.67,0.55,0.88,0.55,0.61,0.48,0.42,0.55,0.4,0.48,0.56,0.48,0.5,0.29,0.42,0.55,0.5,0.55,0.42,0.33,0.4,0.6,0.44,0.33,0.6,0.4,0.5,0.29,0.55,0.6,0.5,0.33,0.33,0.48,0.4,0.58,0.25,0.55,0.61,0.58,0.48,0.55,0.88,0.55,0.61,0.48,0.42,0.55,0.33,0.58,0.5,0.33,0.55,0.29,0.58,0.56,0.55,0.29,0.56,0.48,0.55,0.29,0.58,0.33,0.6,0.29,0.5,0.58,0.48,0.55,0.5,0.33,0.55,0.88,0.42" style="fill:rgb(0,0,0);font-family:URWPalladioL-Roma;font-size:9.96px;stroke:none;">The analysis of the NIR modes reveals a structural pattern. The modes that involve in-plane atoms</text>
   <text y="694.434" x="76.535,82.726,85.674,89.97,96.059,99.008,104.074,108.572,113.425,122.372,127.225,133.122,136.425,140.6082,143.203,146.506,151.36,157.256,163.3316,165.919,169.222,174.70000000000002,177.237,180.185,189.132,195.221,200.287,204.785,208.0718,210.561,218.98,222.395,229.06820000000002,231.645,235.941,242.031,246.884,251.382,254.685,258.606,264.716,273.4808,276.145,279.965,284.818,287.766,292.832,296.135,299.084,304.808,309.661,312.61,318.18760000000003,320.725,325.021,328.324,332.327,335.275,341.172,346.805,351.658,355.642,358.133,361.436,367.332,372.398,378.1748,380.778,384.081,389.977,395.509,399.805,404.5858,407.131,410.434,416.331,421.397,424.6838,427.182,430.13,436.027,441.752,447.284,450.232,455.957,460.7378,463.292,468.824,474.934,478.237,481.611,487.143,490.517,493.891,499.98,502.928,507.994,513.891" svgx:width="0.61,0.29,0.42,0.6,0.29,0.5,0.44,0.48,0.88,0.48,0.58,0.33,0.42,0.55,0.33,0.48,0.58,0.61,0.55,0.33,0.55,0.55,0.29,0.88,0.6,0.5,0.44,0.33,0.55,0.83,0.34,0.67,0.55,0.42,0.6,0.48,0.44,0.33,0.4,0.6,0.88,0.55,0.4,0.48,0.29,0.5,0.33,0.29,0.56,0.48,0.29,0.56,0.55,0.42,0.33,0.4,0.29,0.58,0.56,0.48,0.4,0.55,0.33,0.58,0.5,0.58,0.55,0.33,0.58,0.55,0.42,0.48,0.55,0.33,0.58,0.5,0.33,0.55,0.29,0.58,0.56,0.55,0.29,0.56,0.48,0.55,0.55,0.6,0.33,0.33,0.55,0.33,0.33,0.6,0.29,0.5,0.58,0.48" style="fill:rgb(0,0,0);font-family:URWPalladioL-Roma;font-size:9.96px;stroke:none;">displacements tend to impact NIR spectrum relatively stringer than those that involve out-of-plane</text>
   <text y="707.943" x="76.535,85.508,91.056,94.369,97.326,102.875,108.789,113.097,115.58699999999999,120.2,126.43,132.344,135.301,139.4842,142.597,148.146,153.765,158.074,162.941,166.955,172.697,177.778,181.09,184.047,189.596,195.3728,198.498,206.973,209.93,212.887,215.7754,218.821,224.441,229.2218,232.296,238.505,241.462,245.77,250.282,256.41,260.719,265.027,269.895,275.9706,279.081,282.038,287.8148,290.94,297.149,302.016,305.329,310.41,313.367,316.2554,319.312,322.269,328.0458,331.16,336.495,341.363,345.875,349.188,352.145,357.693" svgx:width="0.88,0.55,0.33,0.29,0.55,0.58,0.42,0.25,0.55,0.61,0.58,0.29,0.42,0.55,0.55,0.55,0.42,0.48,0.4,0.56,0.5,0.33,0.29,0.55,0.58,0.55,0.83,0.29,0.29,0.29,0.55,0.55,0.48,0.55,0.61,0.29,0.42,0.44,0.6,0.42,0.42,0.48,0.61,0.55,0.29,0.58,0.55,0.61,0.48,0.33,0.5,0.29,0.29,0.55,0.29,0.58,0.55,0.52,0.48,0.44,0.33,0.29,0.55,0.58" style="fill:rgb(0,0,0);font-family:URWPalladioL-Roma;font-size:9.96px;stroke:none;">motions. This observation will be discussed in detail in Section</text>
   <text y="707.943" x="366.595,371.676,374.216" svgx:width="0.5,0.25,0.5" style="fill:rgb(8,117,183);font-family:URWPalladioL-Roma;font-size:9.96px;stroke:none;">2.4</text>
   <text y="707.943" x="379.297,381.78700000000003,384.937,388.25,393.798,399.448,404.316,407.628,413.543,418.41,422.394,425.412,433.887,436.844,440.156,445.9328,449.058,452.371,458.285,463.0658,466.13,470.642,476.19,482.105,486.616,489.573,495.701,500.01,502.967,508.515,514.429" svgx:width="0.25,0.55,0.33,0.55,0.56,0.48,0.33,0.58,0.48,0.4,0.55,0.83,0.29,0.33,0.58,0.55,0.33,0.58,0.48,0.55,0.44,0.55,0.58,0.44,0.29,0.6,0.42,0.29,0.55,0.58,0.42" style="fill:rgb(0,0,0);font-family:URWPalladioL-Roma;font-size:9.96px;stroke:none;">, together with the conclusions</text>
   <text y="721.452" x="76.535,82.622,86.557,91.539,99.847,105.62379999999999,108.136,111.454,115.21,120.649,131.937,135.185,140.983,145.7638,148.246,153.227,159.025,164.007,166.906,172.445,176.669,179.568,183.7512,186.283,191.723,195.0098,197.531,200.888,207.5612,210.034,214.258,220.245,225.017,229.441,232.689,236.544,242.552,253.839,259.279,262.5658,265.087,273.884,278.656,281.555,286.537,295.333,298.233,304.031,308.8118,311.294,314.611,319.841,324.614,329.037,332.285,335.184,340.623" svgx:width="0.61,0.4,0.5,0.83,0.58,0.55,0.33,0.4,0.55,0.88,0.33,0.58,0.48,0.55,0.5,0.58,0.5,0.29,0.56,0.42,0.29,0.42,0.55,0.55,0.33,0.55,0.34,0.67,0.55,0.42,0.6,0.48,0.44,0.33,0.4,0.6,0.88,0.55,0.33,0.55,0.88,0.48,0.29,0.5,0.88,0.29,0.58,0.48,0.55,0.33,0.52,0.48,0.44,0.33,0.29,0.55,0.58" style="fill:rgb(0,0,0);font-family:URWPalladioL-Roma;font-size:9.96px;stroke:none;">drawn fromthe analysis of IR spectrumof melamine (Section</text>
   <text y="721.452" x="348.912,353.894,356.384" svgx:width="0.5,0.25,0.5" style="fill:rgb(8,117,183);font-family:URWPalladioL-Roma;font-size:9.96px;stroke:none;">2.1</text>
   <text y="721.452" x="361.366,364.683" svgx:width="0.33,0.25" style="fill:rgb(0,0,0);font-family:URWPalladioL-Roma;font-size:9.96px;stroke:none;">).</text>
  </g>
 </g>
</svg>
