<?xml version="1.0" encoding="UTF-8"?>
<svg height="1134.64" width="4198.112" xmlns="http://www.w3.org/2000/svg">
 <g id="page" xmlns:svgx="http://www.xml-cml.org/schema/svgx">
  <g begin="text">
   <text y="62.979" x="76.535,82.736,86.274,90.706,94.245,100.445,103.984,106.638,109.738,112.839,115.055,118.593,120.809" svgx:width="0.78,0.44,0.56,0.44,0.78,0.44,0.33,0.39,0.39,0.28,0.44,0.28,0.39" style="fill:rgb(0,0,0);font-family:URWPalladioL-Ital;font-size:7.97px;stroke:none;">Nanomaterials</text>
   <text y="62.979" x="125.901,129.886,133.871,137.856" svgx:width="0.5,0.5,0.5,0.5" style="fill:rgb(0,0,0);font-family:URWPalladioL-Bold;font-size:7.97px;stroke:none;">2019</text>
   <text y="62.979" x="141.842" svgx:width="0.25" style="fill:rgb(0,0,0);font-family:URWPalladioL-Roma;font-size:7.97px;stroke:none;">,</text>
   <text y="62.979" x="145.827" svgx:width="0.5" style="fill:rgb(0,0,0);font-family:URWPalladioL-Ital;font-size:7.97px;stroke:none;">9</text>
   <text y="62.979" x="149.812,151.80450000000002,153.797,157.782,161.767,165.752,169.73700000000002,495.794,499.779,501.772,506.123,508.7531,510.77,514.755" svgx:width="0.25,0.55,0.5,0.5,0.5,0.5,0.55,0.5,0.55,0.55,0.33,0.55,0.5,0.5" style="fill:rgb(0,0,0);font-family:URWPalladioL-Roma;font-size:7.97px;stroke:none;">, 1294 8 of 14</text>
   <text y="97.848" x="97.795,101.105,104.3918,106.793,109.652,113.8352,116.292,121.754,127.471,132.834,141.027,146.8038,149.229,152.431,158.148,163.06,166.3468,168.738,171.94,177.657,182.4378,184.847,190.005,193.207,197.912,201.792,207.509,210.781,216.763,222.126,224.985,233.659,238.364,242.348,244.729,248.433,253.138,255.996,260.908,264.11,266.969,272.332,278.049,282.214,287.931,290.79,296.766,299.169,305.171,309.876,314.041,318.403,322.283,325.141,330.573,335.279,339.4622,341.929,345.131,350.848,355.6288,358.029,364.031,368.736,374.64,379.345,385.062,391.064,395.77,401.487,405.848,410.6288,413.039,418.402,421.6888,424.149,430.121,436.044,441.408,445.111,449.816,453.981,458.343,463.048,468.765,473.127,477.9078,480.317,484.011,488.716,492.881,498.785,504.148,509.865,514.03" svgx:width="0.34,0.33,0.55,0.29,0.42,0.55,0.56,0.58,0.55,0.83,0.58,0.55,0.33,0.58,0.5,0.33,0.55,0.33,0.58,0.48,0.55,0.52,0.33,0.48,0.4,0.58,0.33,0.72,0.55,0.29,0.88,0.48,0.4,0.55,0.4,0.48,0.29,0.5,0.33,0.29,0.55,0.58,0.42,0.58,0.29,0.6,0.55,0.61,0.48,0.42,0.44,0.4,0.29,0.55,0.48,0.42,0.55,0.33,0.58,0.48,0.55,0.61,0.48,0.6,0.48,0.58,0.61,0.48,0.58,0.44,0.48,0.55,0.55,0.33,0.55,0.61,0.6,0.55,0.4,0.48,0.42,0.44,0.48,0.58,0.44,0.48,0.55,0.4,0.48,0.42,0.6,0.55,0.58,0.42,0.48" style="fill:rgb(0,0,0);font-family:URWPalladioL-Roma;font-size:9.96px;stroke:none;">It is known that the Stern-Volmer relationship describes the dependence of ﬂuorescence response</text>
   <text y="111.358" x="76.535,79.744,85.222,87.608,90.817,96.546,101.3268,103.751,108.121,113.496,119.224,123.595,128.309,134.038,137.247,141.135,146.056,149.265,152.13,157.504,163.2808,165.723,171.097,174.3838,176.865,182.377,188.313,193.027,198.756,203.126,208.855,213.57,216.72,219.21,221.671,226.592" svgx:width="0.33,0.55,0.55,0.33,0.58,0.48,0.55,0.44,0.55,0.58,0.44,0.48,0.58,0.33,0.4,0.5,0.33,0.29,0.55,0.58,0.55,0.55,0.33,0.55,0.56,0.6,0.48,0.58,0.44,0.58,0.48,0.4,0.25,0.55,0.5,0.42" style="fill:rgb(0,0,0);font-family:URWPalladioL-Roma;font-size:9.96px;stroke:none;">to the concentration of quencher, as</text>
   <text y="111.358" x="233.257" svgx:width="0.56" style="fill:rgb(0,0,0);font-family:URWPalladioL-Ital;font-size:9.96px;stroke:none;">S</text>
   <text y="111.358" x="241.22" svgx:width="0.67" style="fill:rgb(0,0,0);font-family:Rpxr;font-size:9.96px;stroke:none;">=</text>
   <text y="111.358" x="250.296" svgx:width="0.56" style="fill:rgb(0,0,0);font-family:URWPalladioL-Ital;font-size:9.96px;stroke:none;">F</text>
   <text y="113.223" x="255.769" svgx:width="0.5" style="fill:rgb(0,0,0);font-family:URWPalladioL-Roma;font-size:7.57px;stroke:none;">0</text>
   <text y="111.358" x="260.053" svgx:width="0.29" style="fill:rgb(0,0,0);font-family:Rpxr;font-size:9.96px;stroke:none;">/</text>
   <text y="111.358" x="262.878" svgx:width="0.56" style="fill:rgb(0,0,0);font-family:URWPalladioL-Ital;font-size:9.96px;stroke:none;">F</text>
   <text y="111.358" x="268.35" svgx:width="0.67" style="fill:rgb(0,0,0);font-family:Rpxr;font-size:9.96px;stroke:none;">=</text>
   <text y="111.358" x="277.426" svgx:width="0.5" style="fill:rgb(0,0,0);font-family:URWPalladioL-Roma;font-size:9.96px;stroke:none;">1</text>
   <text y="111.358" x="282.347" svgx:width="0.67" style="fill:rgb(0,0,0);font-family:Rpxr;font-size:9.96px;stroke:none;">+</text>
   <text y="111.358" x="288.932" svgx:width="0.44" style="fill:rgb(0,0,0);font-family:URWPalladioL-Ital;font-size:9.96px;stroke:none;">k</text>
   <text y="112.852" x="293.352" svgx:width="0.56" style="fill:rgb(0,0,0);font-family:URWPalladioL-Roma;font-size:7.57px;stroke:none;">q</text>
   <text y="111.358" x="298.091" svgx:width="0.52" style="fill:rgb(0,0,0);font-family:Rpxmi;font-size:9.96px;stroke:none;">τ</text>
   <text y="113.223" x="303.271" svgx:width="0.5" style="fill:rgb(0,0,0);font-family:URWPalladioL-Roma;font-size:7.57px;stroke:none;">0</text>
   <text y="111.358" x="310.046,313.324,321.06,324.338,326.82800000000003,329.289,337.479,342.193,345.904,350.619" svgx:width="0.33,0.79,0.33,0.25,0.55,0.83,0.48,0.4,0.48,0.25" style="fill:rgb(0,0,0);font-family:URWPalladioL-Roma;font-size:9.96px;stroke:none;">[Q]. Here,</text>
   <text y="111.358" x="355.568" svgx:width="0.44" style="fill:rgb(0,0,0);font-family:URWPalladioL-Ital;font-size:9.96px;stroke:none;">k</text>
   <text y="112.852" x="359.988" svgx:width="0.56" style="fill:rgb(0,0,0);font-family:URWPalladioL-Roma;font-size:7.57px;stroke:none;">q</text>
   <text y="111.358" x="367.217,370.081,374.2642,376.745,379.954,385.683,390.4638,392.888,398.4,404.335,409.05,414.779,419.149,424.878,429.592,433.57599999999996,435.971,439.859,444.78,447.989,452.7698,455.194,459.565,464.939" svgx:width="0.29,0.42,0.55,0.33,0.58,0.48,0.55,0.56,0.6,0.48,0.58,0.44,0.58,0.48,0.4,0.55,0.4,0.5,0.33,0.48,0.55,0.44,0.55,0.48" style="fill:rgb(0,0,0);font-family:URWPalladioL-Roma;font-size:9.96px;stroke:none;">is the quencher rate coe</text>
   <text y="111.358" x="469.653" svgx:width="0.92" style="fill:rgb(0,0,0);font-family:Rpxr;font-size:9.96px;stroke:none;">ﬃ</text>
   <text y="111.358" x="478.699,483.069,485.934,490.648,496.377,499.66380000000004,502.076,506.998,512.726" svgx:width="0.44,0.29,0.48,0.58,0.33,0.55,0.5,0.58,0.61" style="fill:rgb(0,0,0);font-family:URWPalladioL-Roma;font-size:9.96px;stroke:none;">cient and</text>
   <text y="124.867" x="76.535" svgx:width="0.52" style="fill:rgb(0,0,0);font-family:Rpxmi;font-size:9.96px;stroke:none;">τ</text>
   <text y="126.732" x="81.716" svgx:width="0.5" style="fill:rgb(0,0,0);font-family:URWPalladioL-Roma;font-size:7.57px;stroke:none;">0</text>
   <text y="124.867" x="88.483,91.397,95.5802,98.125,101.389,107.216,111.9968,114.495,117.409,120.322,123.657,128.453,131.717,134.63,143.471,148.2518,150.75,156.217,159.5038,162.034,165.298,171.125,175.9058,178.404,183.2,192.041,194.955,199.2,203.446,206.359,212.016,216.7968,219.295,224.091,229.258,233.703,236.617,239.881,244.677,250.7526,253.277,257.523,260.787,265.793,269.057,273.8378,276.336,284.686,287.6,290.864,296.691,302.158,308.195,311.4818,313.942,318.922,321.432,327.039,333.076,337.872,343.699,348.145,353.972,358.768,362.75199999999995,365.206,371.224,374.998,379.794,384.039,388.835,394.663,397.927,400.41700000000003,403.914,407.248,415.118,418.4048,420.935,423.849,428.0322,430.577,433.841,439.668,444.4488,446.947,451.393,456.86,462.687,467.132,471.928,477.756,481.02,484.975,489.981,493.245,496.158,501.625,507.4018,509.935,515.402" svgx:width="0.29,0.42,0.55,0.33,0.58,0.48,0.55,0.29,0.29,0.33,0.48,0.33,0.29,0.88,0.48,0.55,0.55,0.33,0.55,0.33,0.58,0.48,0.55,0.48,0.88,0.29,0.42,0.42,0.29,0.56,0.48,0.55,0.48,0.52,0.44,0.29,0.33,0.48,0.61,0.55,0.42,0.33,0.5,0.33,0.48,0.55,0.83,0.29,0.33,0.58,0.55,0.6,0.33,0.55,0.5,0.55,0.56,0.6,0.48,0.58,0.44,0.58,0.48,0.4,0.55,0.6,0.4,0.48,0.42,0.48,0.58,0.33,0.25,0.55,0.33,0.79,0.33,0.55,0.29,0.42,0.55,0.33,0.58,0.48,0.55,0.44,0.55,0.58,0.44,0.48,0.58,0.33,0.4,0.5,0.33,0.29,0.55,0.58,0.55,0.55,0.33" style="fill:rgb(0,0,0);font-family:URWPalladioL-Roma;font-size:9.96px;stroke:none;">is the lifetime of the emissive excited state without a quencher present. [Q] is the concentration of</text>
   <text y="138.377" x="76.535,79.832,85.717,90.4978,93.058,98.721,104.818,109.662,115.547,120.037,125.922,130.766,134.75,137.258,145.206,147.696,150.232,156.43,162.315,167.159,170.971,175.815,179.182,184.704,188.516,193.359" svgx:width="0.33,0.58,0.48,0.55,0.56,0.6,0.48,0.58,0.44,0.58,0.48,0.4,0.55,0.79,0.25,0.55,0.61,0.58,0.48,0.4,0.48,0.33,0.55,0.4,0.48,0.25" style="fill:rgb(0,0,0);font-family:URWPalladioL-Roma;font-size:9.96px;stroke:none;">the quencher Q. Therefore,</text>
   <text y="138.377" x="198.391" svgx:width="0.56" style="fill:rgb(0,0,0);font-family:URWPalladioL-Ital;font-size:9.96px;stroke:none;">S</text>
   <text y="138.377" x="206.51,209.453,213.6362,216.238,221.759,225.04579999999999,227.624,230.567,233.509,239.394,244.238,249.294,253.27800000000002,255.786,261.964,266.808,272.885,277.729,283.614,289.793,294.636,300.522,305.011,309.7918,312.353,320.786,323.729,327.025,332.80179999999996,335.408,338.775,346.724,350.0108,352.589,358.666,362.478,367.999,373.713,376.655,382.834,387.677,393.75260000000003,396.353,399.65,405.535,410.591" svgx:width="0.29,0.42,0.55,0.55,0.33,0.55,0.29,0.29,0.58,0.48,0.5,0.4,0.55,0.61,0.48,0.6,0.48,0.58,0.61,0.48,0.58,0.44,0.48,0.55,0.83,0.29,0.33,0.58,0.55,0.33,0.79,0.33,0.55,0.6,0.4,0.55,0.56,0.29,0.61,0.48,0.61,0.55,0.33,0.58,0.5,0.33" style="fill:rgb(0,0,0);font-family:URWPalladioL-Roma;font-size:9.96px;stroke:none;">is of linear dependence with [Q] provided that</text>
   <text y="138.377" x="416.385" svgx:width="0.44" style="fill:rgb(0,0,0);font-family:URWPalladioL-Ital;font-size:9.96px;stroke:none;">k</text>
   <text y="139.871" x="420.924" svgx:width="0.56" style="fill:rgb(0,0,0);font-family:URWPalladioL-Roma;font-size:7.57px;stroke:none;">q</text>
   <text y="138.377" x="428.16,433.216,439.101" svgx:width="0.5,0.58,0.61" style="fill:rgb(0,0,0);font-family:URWPalladioL-Roma;font-size:9.96px;stroke:none;">and</text>
   <text y="138.377" x="447.777" svgx:width="0.52" style="fill:rgb(0,0,0);font-family:Rpxmi;font-size:9.96px;stroke:none;">τ</text>
   <text y="140.241" x="452.957" svgx:width="0.5" style="fill:rgb(0,0,0);font-family:URWPalladioL-Roma;font-size:7.57px;stroke:none;">0</text>
   <text y="138.377" x="459.739,464.795,468.607,473.3878,475.949,480.438,485.96,491.845,496.132,499.429,504.485,510.37,513.667,517.954" svgx:width="0.5,0.4,0.48,0.55,0.44,0.55,0.58,0.42,0.33,0.5,0.58,0.33,0.42,0.25" style="fill:rgb(0,0,0);font-family:URWPalladioL-Roma;font-size:9.96px;stroke:none;">are constants.</text>
   <text y="151.886" x="76.226,82.278,88.024,92.8048,95.231,100.415,103.633,108.362,112.262,118.008,121.296,127.318,132.709,135.582,144.3,149.029,153.013,155.407,159.129,163.858,166.731,171.668,174.886,177.759,183.15,188.896,193.072,198.818,201.691,207.667,210.103,212.976,217.1592,219.64,224.369,228.556,231.774,236.711,242.17,245.043,247.916,252.103,257.849,262.578,268.6536,271.088,276.548,281.484,285.671,290.4,296.4756,298.91,304.301,310.07779999999997,312.525,317.505,319.94,328.657,334.048,340.08,344.809,347.6974,350.151,353.024,358.77,364.348,369.739,372.612,378.19,381.063,386.809,392.38660000000004,394.776,400.809,406.199,412.153,417.613,420.486,425.2668,427.693,436.411,441.801,444.674,449.403,453.787,459.74,462.613,467.342,471.529,474.019,477.482,485.696,491.087,499.321,504.05,509.628,514.357,517.517" svgx:width="0.61,0.58,0.48,0.55,0.52,0.33,0.48,0.4,0.58,0.33,0.72,0.55,0.29,0.88,0.48,0.4,0.55,0.4,0.48,0.29,0.5,0.33,0.29,0.55,0.58,0.42,0.58,0.29,0.6,0.55,0.29,0.42,0.55,0.48,0.42,0.33,0.5,0.55,0.29,0.29,0.42,0.58,0.48,0.61,0.55,0.55,0.5,0.42,0.48,0.61,0.55,0.55,0.58,0.55,0.5,0.55,0.88,0.55,0.61,0.48,0.29,0.55,0.29,0.58,0.56,0.55,0.29,0.56,0.29,0.58,0.56,0.55,0.61,0.55,0.6,0.55,0.29,0.48,0.55,0.88,0.55,0.29,0.48,0.44,0.6,0.29,0.48,0.42,0.25,0.55,0.83,0.55,0.83,0.48,0.56,0.48,0.4,0.25" style="fill:rgb(0,0,0);font-family:URWPalladioL-Roma;font-size:9.96px;stroke:none;">The Stern-Volmer relationship is established based on a model involving double molecules. However,</text>
   <text y="165.395" x="76.535,79.848,85.762,90.5428,93.454,96.412,102.326,105.639,110.506,114.52,123.493,129.041,131.998,136.866,141.378,147.505,150.462,155.543,159.52700000000002,162.372,168.581,173.449,178.53,183.041,186.354,189.311,195.053,200.134,203.446,206.403,211.952,217.7288,220.691,226.9" svgx:width="0.33,0.58,0.48,0.55,0.29,0.58,0.33,0.48,0.4,0.88,0.55,0.29,0.48,0.44,0.6,0.29,0.5,0.4,0.55,0.61,0.48,0.5,0.44,0.33,0.29,0.56,0.5,0.33,0.29,0.55,0.58,0.55,0.61,0.29" style="fill:rgb(0,0,0);font-family:URWPalladioL-Roma;font-size:9.96px;stroke:none;">the intermolecular deactivation di</text>
   <text y="165.395" x="229.856" svgx:width="0.61" style="fill:rgb(0,0,0);font-family:Rpxr;font-size:9.96px;stroke:none;">ﬀ</text>
   <text y="165.395" x="236.035,240.903,244.916,249.0992,252.05,255.434,259.265,264.813,273.57779999999997,276.611,279.924,285.838,290.6188,293.521,299.628,303.469,308.336,312.645,317.513,323.427,326.71380000000005,329.554,335.763,340.631,343.944,348.811,353.323,356.636,359.593,365.141,371.055,373.545,376.502,384.977,390.891,395.759,399.6,404.3808,407.282,411.591,416.458,422.2,427.067,431.081,436.162,439.05039999999997,441.944,444.902,450.816,457.025,459.982,465.723,468.68,474.889,481.017,486.098,488.9864,491.88,497.784,502.651,507.732,513.474" svgx:width="0.48,0.4,0.42,0.55,0.33,0.4,0.55,0.88,0.55,0.33,0.58,0.48,0.55,0.6,0.4,0.48,0.42,0.48,0.58,0.33,0.55,0.61,0.48,0.33,0.48,0.44,0.33,0.29,0.55,0.58,0.25,0.55,0.83,0.58,0.48,0.4,0.48,0.55,0.42,0.48,0.56,0.48,0.4,0.5,0.29,0.55,0.29,0.58,0.61,0.29,0.56,0.29,0.61,0.6,0.5,0.29,0.55,0.58,0.48,0.5,0.56,0.56" style="fill:rgb(0,0,0);font-family:URWPalladioL-Roma;font-size:9.96px;stroke:none;">ers from the present detection, where several individual heavy</text>
   <text y="178.905" x="76.535,85.394,90.199,93.47,98.486,101.37440000000001,103.893,106.813,112.29,118.129,122.3122,124.871,127.79,133.629,136.9,141.705,145.658,150.674,155.128,158.41479999999999,160.887,169.254,172.173,175.444,181.2208,183.771,188.75099999999998,191.275,199.16,206.8292,209.413,214.43,218.683,222.937,227.742,236.601,242.149,245.068,249.874,255.9496,258.482,264.029,269.6066,272.095,277.07500000000005,279.6,288.458,293.474,296.745,300.708,303.627,308.8062,311.292,316.769,320.05580000000003,322.588,326.842,332.891,338.921,343.726,347.71,350.177,354.631,359.437,362.356,365.276,369.529,372.019,375.519,381.669,387.507,392.313,396.105,400.91,404.251,409.729,413.511,418.317,420.807,423.313,426.583,432.422,437.2028,439.706,443.488,448.293,452.547,458.596,461.516,464.786,468.9692,471.528,474.447,480.2238,482.774,488.352,491.272,496.85,502.899,506.681" svgx:width="0.88,0.48,0.33,0.5,0.29,0.55,0.29,0.55,0.58,0.42,0.55,0.29,0.58,0.33,0.48,0.4,0.5,0.44,0.33,0.55,0.83,0.29,0.33,0.58,0.55,0.5,0.55,0.79,0.77,0.55,0.5,0.42,0.42,0.48,0.88,0.55,0.29,0.48,0.61,0.55,0.55,0.56,0.55,0.5,0.55,0.88,0.5,0.33,0.4,0.29,0.52,0.55,0.55,0.33,0.55,0.42,0.6,0.6,0.48,0.4,0.55,0.44,0.48,0.29,0.29,0.42,0.25,0.55,0.61,0.58,0.48,0.4,0.48,0.33,0.55,0.4,0.48,0.25,0.55,0.33,0.58,0.48,0.55,0.4,0.48,0.42,0.6,0.29,0.33,0.42,0.55,0.29,0.58,0.55,0.56,0.29,0.56,0.6,0.4,0.48" style="fill:rgb(0,0,0);font-family:URWPalladioL-Roma;font-size:9.96px;stroke:none;">metal ions interact with a QD assembled by a matrix of super cells. Therefore, the results in Figure</text>
   <text y="178.905" x="513.975" svgx:width="0.5" style="fill:rgb(8,117,183);font-family:URWPalladioL-Roma;font-size:9.96px;stroke:none;">7</text>
   <text y="192.414" x="76.535,82.622,87.394,93.023,95.922,100.904,104.151,108.9318,111.414,114.732,118.488,123.927,135.215,138.463,144.261,149.0418,151.523,154.423,157.322,163.12,167.892,172.873,176.857,179.299,183.723,189.162,193.097,196.853,201.625,204.525,209.506,212.754,215.653,221.092,226.86880000000002,229.381,234.362,240.161,246.2366,248.738,251.986,257.785,262.5658,265.047,269.271,274.044,279.842,284.066,286.965,292.763,298.3406,300.793,309.59,314.362,318.786,324.584,329.565,335.363,338.262,342.487,353.774,359.572,364.345,369.117,375.204,379.3872,381.919,385.236,391.244,395.179,398.427,404.225,408.997,412.981,415.423,421.51,424.409,428.633,433.057,439.064,443.288,447.512,450.412,455.851,461.649,465.874" svgx:width="0.61,0.48,0.56,0.29,0.5,0.33,0.48,0.55,0.33,0.4,0.55,0.88,0.33,0.58,0.48,0.55,0.29,0.29,0.58,0.48,0.5,0.4,0.55,0.44,0.55,0.4,0.4,0.48,0.29,0.5,0.33,0.29,0.55,0.58,0.55,0.5,0.58,0.61,0.55,0.33,0.58,0.48,0.55,0.42,0.48,0.58,0.42,0.29,0.58,0.56,0.55,0.88,0.48,0.44,0.58,0.5,0.58,0.29,0.42,0.88,0.58,0.48,0.48,0.61,0.42,0.55,0.33,0.6,0.4,0.33,0.58,0.48,0.4,0.55,0.61,0.29,0.42,0.44,0.6,0.42,0.42,0.29,0.55,0.58,0.42,0.25" style="fill:rgb(0,0,0);font-family:URWPalladioL-Roma;font-size:9.96px;stroke:none;">deviate fromthe linear correlation and the sensing mechanismneeds further discussions.</text>
   <text y="215.627" x="76.535,81.516,84.007,88.988,91.478,94.966,100.505,103.275,107.15,111.026,114.3128,116.834,122.921,126.796,129.566,135.105,139.16,141.929,146.911,149.68,153.5644,156.046,162.692,167.115,169.885,173.939,179.479,182.248,186.672,189.989,192.759,197.182" svgx:width="0.5,0.25,0.5,0.25,0.55,0.56,0.28,0.39,0.39,0.33,0.55,0.61,0.39,0.28,0.56,0.41,0.28,0.5,0.28,0.39,0.55,0.67,0.44,0.28,0.41,0.56,0.28,0.44,0.33,0.28,0.44,0.56" style="fill:rgb(0,0,0);font-family:URWPalladioL-Ital;font-size:9.96px;stroke:none;">3.3. First Principle Calculation</text>
   <text y="235.114" x="97.696,105.4648,108.468,111.648,114.402,118.213,122.318,125.6048,128.486,134.39,138.201,140.955,146.666,150.975,153.728,159.632,162.386,167.1668,170.12,174.428,179.306,182.06,186.368,192.293,195.047,199.924,203.034,205.788,211.133,216.90980000000002,219.913,225.624,230.501,234.6842,237.665,243.082,247.746,252.41,258.1868,261.19,265.854,274.624,280.528,283.282,288.627,294.074,298.738,304.8136,307.813,310.993,316.338,320.322,323.218,326.399,332.323,336.134,339.243,344.954,349.618,353.602,356.488,362.493,365.247,369.353,373.661,379.586,383.691,387.796,390.55,395.895,401.67179999999996,404.675,410.02,413.3068,416.27,419.379,425.09,429.8708,432.823,435.577,441.288,444.388,449.052,452.862,457.74,462.049,465.158,467.912,473.257,479.0338,482.037,487.453,492.118,495.227,503.499,508.163,512.827" svgx:width="0.78,0.55,0.33,0.29,0.4,0.42,0.33,0.55,0.6,0.4,0.29,0.58,0.44,0.29,0.6,0.29,0.48,0.55,0.44,0.5,0.29,0.44,0.6,0.29,0.5,0.33,0.29,0.55,0.58,0.55,0.58,0.5,0.42,0.55,0.55,0.48,0.48,0.58,0.55,0.48,0.88,0.6,0.29,0.55,0.56,0.48,0.61,0.55,0.33,0.55,0.4,0.55,0.33,0.6,0.4,0.33,0.58,0.48,0.4,0.55,0.61,0.29,0.42,0.44,0.6,0.42,0.42,0.29,0.55,0.58,0.55,0.55,0.33,0.55,0.33,0.58,0.48,0.55,0.29,0.58,0.33,0.48,0.4,0.5,0.44,0.33,0.29,0.55,0.58,0.55,0.55,0.48,0.33,0.83,0.48,0.48,0.58" style="fill:rgb(0,0,0);font-family:URWPalladioL-Roma;font-size:9.96px;stroke:none;">A first principle calculation has been employed for further discussion of the interaction between</text>
   <text y="248.624" x="76.535,81.561,87.154" svgx:width="0.52,0.58,0.79" style="fill:rgb(0,0,0);font-family:URWPalladioL-Roma;font-size:9.96px;stroke:none;">SnO</text>
   <text y="250.488" x="94.802" svgx:width="0.5" style="fill:rgb(0,0,0);font-family:URWPalladioL-Roma;font-size:7.57px;stroke:none;">2</text>
   <text y="248.624" x="101.349,108.973,116.477,120.6602,122.936,127.714,133.307,139.3826,141.627,147.221,151.789,156.566,161.99,167.5676,169.763,178.353,182.921,185.966,190.744,193.6324,195.879,198.576,203.811,209.405,213.426,215.916,219.148,225.05,230.644,235.4248,237.65,241.87,246.648,249.345,253.565,259.367,262.064,266.841,269.887,272.584,277.819,283.5958,285.851,293.952,298.73,302.9132,305.179,307.876,316.465,322.248,324.945,329.513,338.102,342.67,348.264,351.309,355.878,361.9536,364.198,369.503,374.28,378.301,382.869,388.94460000000004,391.189,396.425,402.2018,404.456,407.502,413.095,417.8758,420.102,425.984,430.552,436.145,440.166,442.863,445.909,451.4866,453.682,456.797,462.599,468.193,472.413,475.458,478.155,483.39,489.16679999999997,491.422,494.468,500.061,504.629,509.864,513.597" svgx:width="0.79,0.77,0.42,0.55,0.5,0.58,0.61,0.55,0.58,0.48,0.5,0.56,0.56,0.55,0.88,0.48,0.33,0.5,0.29,0.55,0.29,0.55,0.58,0.42,0.25,0.55,0.61,0.58,0.48,0.55,0.44,0.5,0.29,0.44,0.6,0.29,0.5,0.33,0.29,0.55,0.58,0.55,0.83,0.5,0.42,0.55,0.29,0.88,0.6,0.29,0.48,0.88,0.48,0.58,0.33,0.48,0.61,0.55,0.55,0.5,0.42,0.48,0.61,0.55,0.55,0.58,0.55,0.33,0.58,0.48,0.55,0.61,0.48,0.58,0.42,0.29,0.33,0.56,0.55,0.33,0.6,0.58,0.44,0.33,0.29,0.55,0.58,0.55,0.33,0.58,0.48,0.55,0.4,0.56" style="fill:rgb(0,0,0);font-family:URWPalladioL-Roma;font-size:9.96px;stroke:none;">QDs and heavy metal ions. The calculation was implemented based on the density function theory</text>
   <text y="262.133" x="76.207,79.388,87.05,92.496,98.522,101.8088,104.355,107.109,112.88579999999999,115.483,118.592,124.303,129.0838,131.62,138.621,143.499,152.268,157.685,161.495,164.249,170.255,175.702,180.4828,183.028,187.134,191.798,197.286,203.21,207.874,213.585,216.695,219.449,224.326,227.21439999999998,229.732,232.842,238.187,241.297,246.174,249.0624,251.59,256.255,261.966,266.63,270.258,275.705,281.2826,283.814,289.718,294.595,298.894,304.341,309.218,314.665,319.4458,321.992,325.172,332.174,339.877,345.008,351.034,357.04,362.974,366.2608,368.807" svgx:width="0.33,0.77,0.56,0.61,0.33,0.55,0.29,0.58,0.55,0.33,0.58,0.48,0.55,0.71,0.5,0.88,0.55,0.4,0.29,0.61,0.56,0.48,0.55,0.42,0.48,0.56,0.6,0.48,0.58,0.33,0.29,0.5,0.29,0.55,0.33,0.55,0.33,0.5,0.29,0.55,0.48,0.58,0.48,0.4,0.56,0.56,0.55,0.6,0.5,0.44,0.56,0.5,0.56,0.48,0.55,0.33,0.71,0.78,0.52,0.61,0.61,0.6,0.33,0.55,0.33" style="fill:rgb(0,0,0);font-family:URWPalladioL-Roma;font-size:9.96px;stroke:none;">(DFT) in the Cambridge sequential total energy package (CASTEP) [</text>
   <text y="262.133" x="371.993,376.775" svgx:width="0.5,0.5" style="fill:rgb(8,117,183);font-family:URWPalladioL-Roma;font-size:9.96px;stroke:none;">51</text>
   <text y="262.133" x="381.557,384.738,387.228,391.16,397.186,402.897,407.6778,410.224,416.158,420.822,424.45,430.456,435.12,443.392,446.572,452.578,458.502,462.313,467.76,472.424,475.605,481.611,485.421,491.132,496.01,500.674,504.302,510.013,515.358" svgx:width="0.33,0.25,0.55,0.61,0.58,0.48,0.55,0.6,0.48,0.4,0.61,0.48,0.83,0.33,0.61,0.6,0.4,0.56,0.48,0.33,0.61,0.4,0.58,0.5,0.48,0.4,0.58,0.55,0.33" style="fill:rgb(0,0,0);font-family:URWPalladioL-Roma;font-size:9.96px;stroke:none;">]. The Perdew-Burke-Ernzerhof</text>
   <text y="275.642" x="76.207,79.388,85.322,91.328,97.333,100.6198,104.02,107.201,113.125,118.836,123.145,126.254,129.008,134.353,140.12980000000002,143.57,151.842,156.719,160.9022,164.331,170.255,174.36,179.025,185.10060000000001,188.526,191.635,197.113,200.486,206.492,211.156,215.262,219.57,223.381,226.135,231.551,236.3318,239.721,242.831,248.542,253.3228,256.712,261.376,266.417,270.725,276.436,281.314,287.025,292.471,297.136,300.316,304.625,309.97,313.781,317.409,322.073,324.827,329.704,332.814,335.568,340.913,346.6898,350.13,352.884,358.595,361.704,366.368,370.179,375.057,379.365,382.475,385.229,390.574,396.3508,399.791,402.544,408.32079999999996,411.761,414.871,420.582,425.3628,428.752,434.199,438.863,444.574,449.238,453.049,457.926,460.68,463.434,468.312,472.976,478.982,482.162,487.609,491.42,496.298,502.303,505.057,509.721,515.432" svgx:width="0.33,0.6,0.61,0.61,0.33,0.55,0.33,0.6,0.58,0.44,0.33,0.29,0.55,0.58,0.55,0.83,0.5,0.42,0.55,0.6,0.42,0.48,0.61,0.55,0.33,0.55,0.55,0.61,0.48,0.42,0.44,0.4,0.29,0.55,0.48,0.55,0.33,0.58,0.48,0.55,0.48,0.52,0.44,0.58,0.5,0.58,0.56,0.48,0.33,0.44,0.55,0.4,0.4,0.48,0.29,0.5,0.33,0.29,0.55,0.58,0.55,0.29,0.58,0.33,0.48,0.4,0.5,0.44,0.33,0.29,0.55,0.58,0.55,0.29,0.58,0.55,0.33,0.58,0.48,0.55,0.56,0.48,0.58,0.48,0.4,0.5,0.29,0.29,0.5,0.48,0.61,0.33,0.56,0.4,0.5,0.61,0.29,0.48,0.58,0.33" style="fill:rgb(0,0,0);font-family:URWPalladioL-Roma;font-size:9.96px;stroke:none;">(PBE) function was used to describe the exchange-correlation interaction in the generalized-gradient</text>
   <text y="289.152" x="76.535,81.221,86.894,92.566,96.052,101.187,106.03,108.676,117.102,121.788,124.776,127.422,132.557,138.3338,140.231,143.287,150.541,157.795,165.196,168.252,170.74200000000002,172.684,178.474,183.961,188.7418,190.63,194.574,197.561,201.145,206.837,210.976,213.964,219.656,223.317,228.004,230.89239999999998,232.836,241.262,246.398,252.168,256.649,259.5374,261.482,269.429,274.116,278.2992,280.257,284.729,288.673,291.661,296.347,301.551,304.197,306.843,310.787,316.274,320.755,326.8306,328.722,333.926,338.612,342.557,347.038,353.1136,354.995,360.131,365.90779999999995,367.805,371.388,377.08,380.068,382.713,385.359,390.1398,392.028,396.958,402.445" svgx:width="0.5,0.6,0.6,0.4,0.55,0.52,0.29,0.88,0.5,0.33,0.29,0.55,0.58,0.55,0.33,0.76,0.76,0.78,0.33,0.25,0.55,0.61,0.58,0.48,0.55,0.42,0.33,0.4,0.6,0.44,0.33,0.6,0.4,0.5,0.29,0.55,0.88,0.55,0.61,0.48,0.29,0.55,0.83,0.5,0.42,0.55,0.48,0.42,0.33,0.5,0.55,0.29,0.29,0.42,0.58,0.48,0.61,0.55,0.55,0.5,0.42,0.48,0.61,0.55,0.55,0.58,0.55,0.4,0.6,0.33,0.29,0.29,0.48,0.55,0.52,0.58,0.79" style="fill:rgb(0,0,0);font-family:URWPalladioL-Roma;font-size:9.96px;stroke:none;">approximation (GGA). The structural model was established based on rutile SnO</text>
   <text y="291.017" x="409.948" svgx:width="0.5" style="fill:rgb(0,0,0);font-family:URWPalladioL-Roma;font-size:7.57px;stroke:none;">2</text>
   <text y="289.152" x="416.246,419.234,423.715,426.703,430.364,435.05,440.283,445.419,450.906,455.592,458.4804,460.425,466.117,471.604,474.25,477.5368,479.425,483.564,488.046,490.691,493.337,497.5202,499.469,507.416,510.062,513.049" svgx:width="0.33,0.48,0.33,0.4,0.5,0.56,0.55,0.58,0.5,0.29,0.55,0.6,0.58,0.29,0.33,0.55,0.44,0.48,0.29,0.29,0.42,0.55,0.83,0.29,0.33,0.58" style="fill:rgb(0,0,0);font-family:URWPalladioL-Roma;font-size:9.96px;stroke:none;">tetragonal unit cells with</text>
   <text y="302.661" x="76.535,79.243,84.039,87.097,90.155,92.863,97.1,101.8808,104.124,108.361,113.617,119.233,123.27,126.328,131.124,136.74,139.797,143.9802,146.263,151.519" svgx:width="0.29,0.5,0.33,0.33,0.29,0.44,0.48,0.55,0.44,0.55,0.58,0.42,0.33,0.5,0.58,0.33,0.42,0.55,0.55,0.33" style="fill:rgb(0,0,0);font-family:URWPalladioL-Roma;font-size:9.96px;stroke:none;">lattice constants of</text>
   <text y="302.661" x="157.081" svgx:width="0.44" style="fill:rgb(0,0,0);font-family:URWPalladioL-Ital;font-size:9.96px;stroke:none;">a</text>
   <text y="302.661" x="163.751" svgx:width="0.67" style="fill:rgb(0,0,0);font-family:Rpxr;font-size:9.96px;stroke:none;">=</text>
   <text y="302.661" x="172.67" svgx:width="0.46" style="fill:rgb(0,0,0);font-family:URWPalladioL-Ital;font-size:9.96px;stroke:none;">b</text>
   <text y="302.661" x="179.531" svgx:width="0.67" style="fill:rgb(0,0,0);font-family:Rpxr;font-size:9.96px;stroke:none;">=</text>
   <text y="302.661" x="188.45,193.246,195.545,200.341,205.137,209.934,214.914,217.168,227.171,231.967,237.583" svgx:width="0.5,0.25,0.5,0.5,0.5,0.5,0.55,0.78,0.5,0.58,0.61" style="fill:rgb(0,0,0);font-family:URWPalladioL-Roma;font-size:9.96px;stroke:none;">4.7373 Åand</text>
   <text y="302.661" x="245.923" svgx:width="0.41" style="fill:rgb(0,0,0);font-family:URWPalladioL-Ital;font-size:9.96px;stroke:none;">c</text>
   <text y="302.661" x="252.224" svgx:width="0.67" style="fill:rgb(0,0,0);font-family:Rpxr;font-size:9.96px;stroke:none;">=</text>
   <text y="302.661" x="261.143,265.939,268.238,273.034,277.83,282.627,287.607,289.861,299.864" svgx:width="0.5,0.25,0.5,0.5,0.5,0.5,0.55,0.78,0.33" style="fill:rgb(0,0,0);font-family:URWPalladioL-Roma;font-size:9.96px;stroke:none;">3.1864 Å[</text>
   <text y="302.661" x="302.993,307.775" svgx:width="0.5,0.5" style="fill:rgb(8,117,183);font-family:URWPalladioL-Roma;font-size:9.96px;stroke:none;">52</text>
   <text y="302.661" x="312.557,315.685,318.175,321.42,327.346,332.962,337.7428,339.976,343.104,347.9,352.697,357.493,360.7798,363.059,368.865,371.573,376.369,381.985,386.7658,388.999,397.133,399.841,402.899,408.6758,410.953,414.011,419.626,424.4068,426.641,429.349,434.605,442.739,447.326,451.362,454.64880000000005,456.858,461.445,467.061,471.647,475.215,480.57,486.1476,488.365" svgx:width="0.33,0.25,0.55,0.61,0.58,0.48,0.55,0.33,0.5,0.5,0.5,0.33,0.55,0.6,0.29,0.5,0.58,0.48,0.55,0.83,0.29,0.33,0.58,0.55,0.33,0.58,0.48,0.55,0.29,0.55,0.83,0.48,0.42,0.33,0.55,0.48,0.58,0.48,0.4,0.56,0.56,0.55,0.33" style="fill:rgb(0,0,0);font-family:URWPalladioL-Roma;font-size:9.96px;stroke:none;">]. The (110) plane with the lowest energy [</text>
   <text y="302.661" x="491.489,496.271" svgx:width="0.5,0.5" style="fill:rgb(8,117,183);font-family:URWPalladioL-Roma;font-size:9.96px;stroke:none;">53</text>
   <text y="302.661" x="501.053" svgx:width="0.5" style="fill:rgb(0,0,0);font-family:URWPalladioL-Roma;font-size:9.96px;stroke:none;">–</text>
   <text y="302.661" x="505.849,510.631" svgx:width="0.5,0.5" style="fill:rgb(8,117,183);font-family:URWPalladioL-Roma;font-size:9.96px;stroke:none;">55</text>
   <text y="302.661" x="515.413" svgx:width="0.33" style="fill:rgb(0,0,0);font-family:URWPalladioL-Roma;font-size:9.96px;stroke:none;">]</text>
   <text y="316.171" x="76.117,84.389,89.266,93.4492,96.654,100.963,106.674,112.019,116.124,120.788,126.56479999999999,129.792,134.67,138.8532,142.057,145.167,150.878,155.65879999999999,158.824,162.93,168.854,172.665,175.845,180.723,185.032,189.8128,192.988,195.742,201.453,204.563,209.227,213.038,217.916,222.224,225.334,229.998,236.0736,239.286,247.558,250.312,253.421,259.1978,262.414,268.125,272.789,277.667,283.205,288.7826,291.945,300.714,305.379,308.478,313.356,316.2444,319.402,322.156,327.501,333.212,337.317,339.807,345.619,351.645,357.356,362.1368,365.313,369.622,373.432,378.879,382.984,386.094,390.972,393.86039999999997,397.008,402.912,405.666,410.543,416.254,421.0348,424.201,432.473,437.35,441.5332,444.748,449.057,451.811,456.475,461.353,466.891,471.555,477.6306,480.843,484.024,487.651,492.997,501.7618,505.059,508.168,513.879" svgx:width="0.83,0.5,0.42,0.55,0.44,0.58,0.55,0.42,0.48,0.58,0.55,0.5,0.42,0.55,0.33,0.58,0.48,0.55,0.42,0.6,0.4,0.33,0.5,0.44,0.48,0.55,0.29,0.58,0.33,0.48,0.4,0.5,0.44,0.33,0.48,0.61,0.55,0.83,0.29,0.33,0.58,0.55,0.58,0.48,0.5,0.56,0.56,0.55,0.88,0.48,0.33,0.5,0.29,0.55,0.29,0.55,0.58,0.42,0.25,0.55,0.61,0.58,0.48,0.55,0.44,0.4,0.56,0.42,0.33,0.5,0.29,0.55,0.6,0.29,0.5,0.58,0.48,0.55,0.83,0.5,0.42,0.55,0.44,0.29,0.48,0.5,0.56,0.48,0.61,0.55,0.33,0.4,0.55,0.88,0.55,0.33,0.58,0.48" style="fill:rgb(0,0,0);font-family:URWPalladioL-Roma;font-size:9.96px;stroke:none;">was chosen as the surface interacted with heavy metal ions. The crystal plane was cleaved from the</text>
   <text y="329.68" x="76.535,81.822,87.663,90.739,93.463,102.138,104.862,109.687,114.301,120.3766,122.675,126.736,132.124,136.185,139.261,143.875,154.983,160.27,163.5568,165.849,170.926,176.575" svgx:width="0.55,0.6,0.33,0.29,0.88,0.29,0.5,0.48,0.61,0.55,0.42,0.56,0.42,0.33,0.48,0.88,0.55,0.33,0.55,0.52,0.58,0.79" style="fill:rgb(0,0,0);font-family:URWPalladioL-Roma;font-size:9.96px;stroke:none;">optimized systemof SnO</text>
   <text y="331.545" x="184.302" svgx:width="0.5" style="fill:rgb(0,0,0);font-family:URWPalladioL-Roma;font-size:7.57px;stroke:none;">2</text>
   <text y="329.68" x="188.411,190.901,193.156,201.338,206.988,209.712,213.974,219.7508,222.056,226.318,231.606,237.255,240.331,245.156,247.88,253.53,258.143,264.2186,266.517" svgx:width="0.25,0.55,0.83,0.58,0.29,0.44,0.58,0.55,0.44,0.55,0.58,0.33,0.5,0.29,0.58,0.48,0.61,0.55,0.5" style="fill:rgb(0,0,0);font-family:URWPalladioL-Roma;font-size:9.96px;stroke:none;">, which contained 2</text>
   <text y="329.68" x="273.781" svgx:width="0.67" style="fill:rgb(0,0,0);font-family:Pxsy;font-size:9.96px;stroke:none;">×</text>
   <text y="329.68" x="282.681" svgx:width="0.5" style="fill:rgb(0,0,0);font-family:URWPalladioL-Roma;font-size:9.96px;stroke:none;">2</text>
   <text y="329.68" x="289.94" svgx:width="0.67" style="fill:rgb(0,0,0);font-family:Pxsy;font-size:9.96px;stroke:none;">×</text>
   <text y="329.68" x="298.839,303.819,306.097,314.772,319.597,322.673,326.442,329.167,334.34619999999995,336.585,341.873,345.1598,347.452,353.312,358.962,361.686,364.9728,367.194,371.456,376.07,378.795,381.519,385.58,388.07,391.33,401.382,406.86,411.686,415.948,421.808,427.669,438.776,442.365,446.979,452.367,455.091,460.379,466.1558,468.471,473.758,477.0448,479.337,484.162,489.142,491.42,501.472,509.655,514.48" svgx:width="0.5,0.55,0.88,0.5,0.33,0.4,0.29,0.52,0.55,0.55,0.33,0.55,0.6,0.58,0.29,0.33,0.55,0.44,0.48,0.29,0.29,0.42,0.25,0.55,0.78,0.56,0.5,0.44,0.6,0.6,0.88,0.4,0.48,0.56,0.29,0.55,0.58,0.55,0.55,0.33,0.55,0.5,0.5,0.55,0.78,0.83,0.5,0.42" style="fill:rgb(0,0,0);font-family:URWPalladioL-Roma;font-size:9.96px;stroke:none;">2 matrix of unit cells. Avacuumregion of 10 Åwas</text>
   <text y="343.189" x="76.535,81.231,83.882,87.835,93.31299999999999,95.417,99.907,108.35,114.034,116.686,121.832,127.075,131.566,137.6416,139.784,142.778,148.256,150.36,156.044,159.527,164.017,169.349,173.839,179.338,182.6248,184.767,187.761,193.259,198.03979999999999,200.186,202.837,208.335,211.329,215.82,219.488,224.184,228.332,231.326,233.977,239.123,244.8998,247.058,252.272,256.763,259.756,267.72,272.21,276.701,282.4778,284.635,289.331,295.113,297.206,301.902,306.051,310.541,316.039,319.3258,321.459,324.11,328.806,334.05,338.541,342.209,346.162,348.652,351.856,357.657,363.155,367.9358,370.072,375.854,379.523,382.174,384.825,387.476,392.622,398.326,400.977,406.75379999999996,408.912,413.608,418.754,424.252,429.0328,431.178,439.142,443.838,448.0212,450.226,454.179,458.875,467.318,473.002,475.653,480.143,486.2186,488.361,494.065,498.017,500.669,506.167,511.7446,513.847" svgx:width="0.5,0.29,0.42,0.55,0.55,0.48,0.88,0.6,0.29,0.55,0.56,0.48,0.61,0.55,0.33,0.55,0.55,0.6,0.4,0.48,0.56,0.48,0.58,0.33,0.55,0.33,0.58,0.48,0.55,0.29,0.58,0.33,0.48,0.4,0.5,0.44,0.33,0.29,0.55,0.58,0.55,0.55,0.48,0.33,0.83,0.48,0.48,0.58,0.55,0.5,0.61,0.23,0.5,0.44,0.48,0.58,0.33,0.55,0.29,0.5,0.56,0.48,0.4,0.42,0.25,0.55,0.61,0.58,0.48,0.55,0.61,0.4,0.29,0.29,0.29,0.55,0.6,0.29,0.58,0.55,0.5,0.55,0.58,0.48,0.55,0.83,0.5,0.42,0.55,0.42,0.5,0.88,0.6,0.29,0.48,0.61,0.55,0.6,0.42,0.29,0.58,0.56,0.55,0.5" style="fill:rgb(0,0,0);font-family:URWPalladioL-Roma;font-size:9.96px;stroke:none;">also employed to prevent the interaction between adjacent layers. The Brillouin zone was sampled using a</text>
   <text y="356.699" x="76.535" svgx:width="0.5" style="fill:rgb(0,0,0);font-family:URWPalladioL-Roma;font-size:9.96px;stroke:none;">2</text>
   <text y="356.699" x="83.533" svgx:width="0.67" style="fill:rgb(0,0,0);font-family:Pxsy;font-size:9.96px;stroke:none;">×</text>
   <text y="356.699" x="92.311" svgx:width="0.5" style="fill:rgb(0,0,0);font-family:URWPalladioL-Roma;font-size:9.96px;stroke:none;">2</text>
   <text y="356.699" x="99.309" svgx:width="0.67" style="fill:rgb(0,0,0);font-family:Pxsy;font-size:9.96px;stroke:none;">×</text>
   <text y="356.699" x="108.086,113.066,115.086,120.319,123.375,129.048,134.183,136.829,142.316,145.6028,147.618,156.659,161.794,167.281,172.514,178.001,183.137,186.798,190.733,193.72,196.776,202.478,207.164,211.304,216.8816,218.851,227.277,231.758,235.703,241.19,243.68,246.833,249.928,255.7048,257.729,262.864,266.34,272.11,276.592,280.57599999999996,282.567,285.554,291.032,293.004,297.143,301.83,304.476,308.615,314.307,316.953,321.64,324.627,329.4078,331.413,334.4,339.887,344.6678,346.683,351.369,357.139,361.083,366.219,369.88,375.553,378.54,381.186,386.322,392.0988,394.123,398.604,404.091,408.572,412.058,417.291,422.8686,424.828,429.964,433.2508,435.334,440.821,445.302,449.988,455.309,460.88660000000004,462.856,471.282,475.764,478.751,483.438,486.3264,488.397,491.043,496.179,501.666,505.8492,507.914,513.05" svgx:width="0.5,0.55,0.56,0.33,0.6,0.55,0.29,0.58,0.33,0.55,0.95,0.55,0.58,0.56,0.58,0.55,0.4,0.42,0.33,0.33,0.6,0.5,0.44,0.56,0.55,0.88,0.48,0.42,0.58,0.25,0.55,0.34,0.58,0.55,0.55,0.4,0.61,0.48,0.4,0.55,0.33,0.55,0.55,0.44,0.5,0.29,0.44,0.6,0.29,0.5,0.33,0.48,0.55,0.33,0.58,0.48,0.55,0.5,0.61,0.42,0.55,0.4,0.6,0.33,0.29,0.55,0.58,0.55,0.48,0.58,0.48,0.4,0.56,0.56,0.55,0.55,0.33,0.55,0.58,0.48,0.5,0.56,0.56,0.55,0.88,0.48,0.33,0.5,0.29,0.55,0.29,0.55,0.58,0.42,0.55,0.55,0.58" style="fill:rgb(0,0,0);font-family:URWPalladioL-Roma;font-size:9.96px;stroke:none;">1 k-point Monkhorst-Pack mesh. In order to calculate the adsorption energy of heavy metal ions on</text>
   <text y="370.208" x="76.535,81.511,87.048" svgx:width="0.52,0.58,0.79" style="fill:rgb(0,0,0);font-family:URWPalladioL-Roma;font-size:9.96px;stroke:none;">SnO</text>
   <text y="372.073" x="94.62" svgx:width="0.5" style="fill:rgb(0,0,0);font-family:URWPalladioL-Roma;font-size:7.57px;stroke:none;">2</text>
   <text y="370.208" x="101.16,105.141,110.885,114.58,117.664,122.393,126.571,131.093,133.583,135.793,140.976,146.513,151.2938,153.47,158.445,164.2218,166.407,171.136,174.151,179.334,190.271,198.291,203.02,207.2032,209.435,212.952,217.475,225.978,231.161,236.53,241.053,247.1286,249.31,252.394,255.901,261.084,272.021,275.036,280.573,285.3538,287.53,290.614,295.343,300.073,304.802,308.08880000000005,310.32,314.497,318.192,323.473,327.454,330.469,335.199,338.0874,340.293,344.273,350.018,353.712,356.796,361.526,365.704,370.4848,372.66,375.744,380.926,384.90999999999997,387.055,392.035,394.218,399.943,405.125,407.796,413.333,416.61980000000005,418.772,424.595,429.118,432.202,436.724,440.902,444.1888,446.351,451.08,455.2632,457.494,460.509,466.047,470.8278,473.003,477.732,483.556,487.536,492.719,496.414,502.138,505.153,507.824,513.006" svgx:width="0.42,0.6,0.4,0.33,0.5,0.44,0.48,0.25,0.55,0.55,0.58,0.48,0.55,0.52,0.58,0.55,0.5,0.33,0.55,0.88,0.83,0.5,0.42,0.55,0.4,0.48,0.88,0.55,0.56,0.48,0.61,0.55,0.33,0.4,0.55,0.88,0.33,0.58,0.48,0.55,0.33,0.5,0.5,0.5,0.33,0.55,0.44,0.4,0.56,0.42,0.33,0.5,0.29,0.55,0.42,0.6,0.4,0.33,0.5,0.44,0.48,0.55,0.33,0.55,0.4,0.55,0.5,0.55,0.6,0.55,0.29,0.58,0.33,0.55,0.61,0.48,0.33,0.48,0.44,0.33,0.55,0.5,0.42,0.55,0.33,0.58,0.48,0.55,0.5,0.61,0.42,0.55,0.4,0.6,0.33,0.29,0.55,0.58" style="fill:rgb(0,0,0);font-family:URWPalladioL-Roma;font-size:9.96px;stroke:none;">surface, one Sn atomwas removed fromthe (110) crystal surface for a point defect as the adsorption</text>
   <text y="383.718" x="76.535,80.64,83.394,86.504,91.168,93.658,96.137,101.015,105.1982,107.712,111.817,117.528,122.873,131.145,136.92180000000002,139.437,142.191,147.9678,150.493,155.94,158.694,164.14,170.065,173.703" svgx:width="0.42,0.29,0.33,0.48,0.25,0.55,0.5,0.42,0.55,0.42,0.58,0.55,0.83,0.58,0.55,0.29,0.58,0.55,0.56,0.29,0.56,0.6,0.4,0.48" style="fill:rgb(0,0,0);font-family:URWPalladioL-Roma;font-size:9.96px;stroke:none;">site, as shown in Figure</text>
   <text y="383.718" x="180.958" svgx:width="0.5" style="fill:rgb(8,117,183);font-family:URWPalladioL-Roma;font-size:9.96px;stroke:none;">8</text>
   <text y="383.718" x="185.836,190.714,193.204,196.933,202.959,208.67,213.4508,215.925,220.031,225.477,229.583,232.692,237.357,248.717,253.382,259.093,263.757,267.385,272.832,278.4096,280.87,289.141,294.019,298.2022,300.716,303.469,309.18,315.186,317.94,322.249,327.126,330.236,334.9,340.9756,343.497,348.913" svgx:width="0.5,0.25,0.55,0.61,0.58,0.48,0.55,0.42,0.56,0.42,0.33,0.48,0.88,0.48,0.58,0.48,0.4,0.56,0.56,0.55,0.83,0.5,0.42,0.55,0.29,0.58,0.61,0.29,0.44,0.5,0.33,0.48,0.61,0.55,0.55,0.56" style="fill:rgb(0,0,0);font-family:URWPalladioL-Roma;font-size:9.96px;stroke:none;">a. The systemenergy was indicated by</text>
   <text y="383.718" x="356.949" svgx:width="0.61" style="fill:rgb(0,0,0);font-family:URWPalladioL-Ital;font-size:9.96px;stroke:none;">E</text>
   <text y="385.603" x="362.979,366.613,369.407" svgx:width="0.5,0.39,0.28" style="fill:rgb(0,0,0);font-family:URWPalladioL-Ital;font-size:7.57px;stroke:none;">def</text>
   <text y="383.718" x="371.835,374.325,378.054,384.08,389.791,394.455,400.166,402.656,405.135,408.245,413.956,418.7368,421.211,426.922,431.587,436.464,442.002,447.5796,450.04,458.81,463.474,466.584,471.462,474.3504,476.807,479.561,484.906,490.617,494.8002,497.313,505.585,510.249,513.877" svgx:width="0.25,0.55,0.61,0.58,0.48,0.58,0.25,0.55,0.33,0.58,0.48,0.55,0.58,0.48,0.5,0.56,0.56,0.55,0.88,0.48,0.33,0.5,0.29,0.55,0.29,0.55,0.58,0.42,0.55,0.83,0.48,0.4,0.48" style="fill:rgb(0,0,0);font-family:URWPalladioL-Roma;font-size:9.96px;stroke:none;">. Then, the heavy metal ions were</text>
   <text y="397.227" x="76.535,79.205,84.743,87.758,91.275,96.458,102.281,108.025,112.203,116.725,122.80059999999999,124.992,129.722,135.259,141.3346,143.535,148.718,154.256,159.0368,161.222,166.404,169.6908,171.942,174.957,180.494,185.017,195.963,203.984,208.713,212.8962,215.137,219.867,225.69,229.67,234.853,238.548,243.8,248.322,254.3976,256.599,261.781,267.5578,269.762,272.777,278.315,283.0958,285.291,289.271,291.941,294.956,299.7368,301.923,307.105,310.39180000000005,312.643,318.466,322.988,326.072,330.595,334.773,337.788,340.278,342.497,347.227,351.4102,353.661,357.641,363.179,368.362,376.382,382.1588,384.363,387.033,392.8098,395.024,400.305,402.975,408.256,414.001,417.508" svgx:width="0.29,0.58,0.33,0.4,0.55,0.61,0.6,0.44,0.48,0.61,0.55,0.5,0.58,0.61,0.55,0.55,0.58,0.48,0.55,0.55,0.33,0.55,0.33,0.58,0.48,0.88,0.83,0.5,0.42,0.55,0.5,0.61,0.42,0.55,0.4,0.55,0.48,0.61,0.55,0.55,0.58,0.55,0.33,0.58,0.48,0.55,0.42,0.29,0.33,0.48,0.55,0.55,0.33,0.55,0.61,0.48,0.33,0.48,0.44,0.33,0.25,0.55,0.5,0.42,0.55,0.42,0.58,0.55,0.83,0.58,0.55,0.29,0.58,0.55,0.56,0.29,0.56,0.6,0.4,0.48" style="fill:rgb(0,0,0);font-family:URWPalladioL-Roma;font-size:9.96px;stroke:none;">introduced and one of themwas adsorbed on the site of defect, as shown in Figure</text>
   <text y="397.227" x="424.484" svgx:width="0.5" style="fill:rgb(8,117,183);font-family:URWPalladioL-Roma;font-size:9.96px;stroke:none;">8</text>
   <text y="397.227" x="429.214,434.465,436.955,440.19,446.033,451.57,456.3508,458.536,462.517,467.798,471.779,474.794,479.316,490.273,494.796,500.333,504.856,508.363,513.644" svgx:width="0.55,0.25,0.55,0.61,0.58,0.48,0.55,0.42,0.56,0.42,0.33,0.48,0.88,0.48,0.58,0.48,0.4,0.56,0.56" style="fill:rgb(0,0,0);font-family:URWPalladioL-Roma;font-size:9.96px;stroke:none;">b. The systemenergy</text>
   <text y="410.736" x="76.535,81.322,84.443,87.495,92.072,96.056,98.245,100.948,106.552,109.604,114.181,117.921,122.708,126.936,129.988,132.691,137.936,143.71280000000002,145.974,154.092,158.879,163.0622,165.351,171.244,175.822,181.426,186.672,189.724,194.301,200.3766,202.628,207.944" svgx:width="0.5,0.33,0.33,0.48,0.4,0.55,0.29,0.58,0.33,0.48,0.4,0.5,0.44,0.33,0.29,0.55,0.58,0.55,0.83,0.5,0.42,0.55,0.61,0.48,0.58,0.55,0.33,0.48,0.61,0.55,0.55,0.56" style="fill:rgb(0,0,0);font-family:URWPalladioL-Roma;font-size:9.96px;stroke:none;">after interaction was denoted by</text>
   <text y="410.736" x="215.723" svgx:width="0.61" style="fill:rgb(0,0,0);font-family:URWPalladioL-Ital;font-size:9.96px;stroke:none;">E</text>
   <text y="412.622" x="221.64,227.379,230.173,232.543,235.753" svgx:width="0.78,0.39,0.33,0.44,0.28" style="fill:rgb(0,0,0);font-family:URWPalladioL-Ital;font-size:7.57px;stroke:none;">metal</text>
   <text y="410.736" x="238.181,240.67100000000002,243.905,249.819,255.424,261.238,265.266,267.75600000000003,270.003,273.055,278.66,283.4408,285.67,290.457,296.351,300.38,305.625,309.365,315.159,318.211,320.913,326.159,331.9358,334.197,338.774,344.379,348.956,352.516,357.861,363.4386,365.64" svgx:width="0.25,0.55,0.61,0.58,0.6,0.42,0.25,0.55,0.33,0.58,0.48,0.55,0.5,0.61,0.42,0.55,0.4,0.6,0.33,0.29,0.55,0.58,0.55,0.48,0.58,0.48,0.4,0.56,0.56,0.55,0.33" style="fill:rgb(0,0,0);font-family:URWPalladioL-Roma;font-size:9.96px;stroke:none;">. Thus, the adsorption energy (</text>
   <text y="410.736" x="368.766" svgx:width="0.61" style="fill:rgb(0,0,0);font-family:URWPalladioL-Ital;font-size:9.96px;stroke:none;">E</text>
   <text y="412.622" x="374.684,377.894,381.529" svgx:width="0.44,0.5,0.39" style="fill:rgb(0,0,0);font-family:URWPalladioL-Ital;font-size:7.57px;stroke:none;">ads</text>
   <text y="410.736" x="384.797,388.08380000000005,390.352,395.597,398.8838,401.152,404.204,409.808,414.5888,416.829,420.858,426.652,431.229,435.458,438.16,441.281,443.984,448.3664,450.646,456.25,460.828,465.615,471.05,476.62760000000003,478.828,487.434,492.012,495.063,499.85,502.7384,504.986,507.689,512.934" svgx:width="0.33,0.55,0.55,0.33,0.55,0.33,0.58,0.48,0.55,0.42,0.6,0.48,0.44,0.29,0.33,0.29,0.44,0.55,0.58,0.48,0.5,0.56,0.56,0.55,0.88,0.48,0.33,0.5,0.29,0.55,0.29,0.55,0.58" style="fill:rgb(0,0,0);font-family:URWPalladioL-Roma;font-size:9.96px;stroke:none;">) of the specific heavy metal ion</text>
   <text y="424.246" x="76.535,81.775,87.5518,89.815,92.864,98.463,103.2438,105.476,110.507,116.106" svgx:width="0.55,0.58,0.55,0.33,0.58,0.48,0.55,0.52,0.58,0.79" style="fill:rgb(0,0,0);font-family:URWPalladioL-Roma;font-size:9.96px;stroke:none;">on the SnO</text>
   <text y="426.11" x="123.762" svgx:width="0.5" style="fill:rgb(0,0,0);font-family:URWPalladioL-Roma;font-size:7.57px;stroke:none;">2</text>
   <text y="424.246" x="130.311,137.942,147.895,151.92,157.728,161.464,164.582,169.364,173.589,178.3698,180.602,184.826,190.067,195.875,198.575,204.6506,206.903,212.214,216.9948,219.227,223.451,228.233,230.933,235.157,240.966,243.665,248.448,251.496,256.069,262.1446,264.398,269.18,273.404,277.628,282.868,286.425,292.313,295.013,300.612,306.18960000000004,308.393,311.441,316.919,319.122,325.01,330.39,336.198,340.98,344.029,346.729,351.969,357.7458,360.009,363.127,367.909,371.027" svgx:width="0.79,0.77,0.42,0.6,0.4,0.33,0.5,0.44,0.48,0.55,0.44,0.55,0.6,0.29,0.61,0.55,0.55,0.48,0.55,0.44,0.5,0.29,0.44,0.6,0.29,0.5,0.33,0.48,0.61,0.55,0.5,0.44,0.44,0.55,0.4,0.61,0.29,0.58,0.56,0.55,0.33,0.55,0.55,0.61,0.56,0.6,0.5,0.33,0.29,0.55,0.58,0.55,0.33,0.5,0.33,0.25" style="fill:rgb(0,0,0);font-family:URWPalladioL-Roma;font-size:9.96px;stroke:none;">QDsurface could be calculated according to Equation (3):</text>
   <text y="449.013" x="256.608" svgx:width="0.61" style="fill:rgb(0,0,0);font-family:URWPalladioL-Ital;font-size:9.96px;stroke:none;">E</text>
   <text y="451.048" x="262.695,266.057,269.843" svgx:width="0.44,0.5,0.39" style="fill:rgb(0,0,0);font-family:URWPalladioL-Ital;font-size:7.57px;stroke:none;">ads</text>
   <text y="449.013" x="276.178" svgx:width="0.78" style="fill:rgb(0,0,0);font-family:CMR10;font-size:10.38px;stroke:none;">=</text>
   <text y="449.013" x="287.14" svgx:width="0.61" style="fill:rgb(0,0,0);font-family:URWPalladioL-Ital;font-size:9.96px;stroke:none;">E</text>
   <text y="451.048" x="293.227,299.118,302.063,304.584,307.946" svgx:width="0.78,0.39,0.33,0.44,0.28" style="fill:rgb(0,0,0);font-family:URWPalladioL-Ital;font-size:7.57px;stroke:none;">metal</text>
   <text y="449.013" x="312.486" svgx:width="0.67" style="fill:rgb(0,0,0);font-family:Pxsy;font-size:9.96px;stroke:none;">−</text>
   <text y="449.013" x="321.088" svgx:width="0.61" style="fill:rgb(0,0,0);font-family:URWPalladioL-Ital;font-size:9.96px;stroke:none;">E</text>
   <text y="451.048" x="327.175,330.961,333.9133,335.042" svgx:width="0.5,0.39,0.55,0.28" style="fill:rgb(0,0,0);font-family:URWPalladioL-Ital;font-size:7.57px;stroke:none;">de f</text>
   <text y="449.013" x="507.124,510.442,515.423" svgx:width="0.33,0.5,0.33" style="fill:rgb(0,0,0);font-family:URWPalladioL-Roma;font-size:9.96px;stroke:none;">(3)</text>
  </g>
  <g begin="text">
   <text y="460.386" x="99.12,104.683,107.871,111.869,115.11,120.673,123.861,126.257,129.056,131.855,133.856,137.098,139.097,141.896" svgx:width="0.78,0.44,0.56,0.44,0.78,0.44,0.33,0.39,0.39,0.28,0.44,0.28,0.39,0.25" style="fill:rgb(0,0,0);font-family:PalatinoLinotype,Italic;font-size:7.18px;stroke:none;">Nanomaterials </text>
   <text y="460.386" x="143.67,147.288,150.907,154.525" svgx:width="0.5,0.5,0.5,0.5" style="fill:rgb(0,0,0);font-family:PalatinoLinotype,Bold;font-size:7.18px;stroke:none;">2019</text>
   <text y="460.386" x="158.142,159.924" svgx:width="0.25,0.25" style="fill:rgb(0,0,0);font-family:PalatinoLinotype;font-size:7.18px;stroke:none;">, </text>
   <text y="460.386" x="161.705" svgx:width="0.5" style="fill:rgb(0,0,0);font-family:PalatinoLinotype,Italic;font-size:7.18px;stroke:none;">9</text>
   <text y="460.386" x="165.324,167.123,168.905,172.616,174.397,178.395,184.044,188.846,190.628,194.97,199.363,203.755,208.557,210.339,215.141,219.533,224.723,227.208,231.601,238.837,240.63199999999998,473.556,477.173,478.968,480.359,484.306,486.682,488.47700000000003,489.867,493.484,497.101" svgx:width="0.25,0.25,0.52,0.25,0.56,0.79,0.67,0.25,0.6,0.61,0.61,0.67,0.25,0.67,0.61,0.72,0.34,0.61,1.0,0.25,0.55,0.5,0.25,0.55,0.55,0.33,0.25,0.55,0.5,0.5,0.25" style="fill:rgb(0,0,0);font-family:PalatinoLinotype;font-size:7.18px;stroke:none;">, x FOR PEER REVIEW 9 of 14 </text>
   <text y="1124.64" x="99.12" svgx:width="0.25" style="fill:rgb(0,0,0);font-family:TimesNewRoman;font-size:8.1px;stroke:none;"> </text>
   <text y="724.446" x="408.108" svgx:width="0.25" style="fill:rgb(0,0,0);font-family:PalatinoLinotype;font-size:9.02px;stroke:none;"> </text>
   <text y="739.134" x="118.236,122.76,125.461,129.969,134.922,138.077,142.131,144.156,146.019,150.073,152.102" svgx:width="0.56,0.33,0.56,0.61,0.39,0.5,0.25,0.55,0.5,0.25,0.25" style="fill:rgb(0,0,0);font-family:PalatinoLinotype,Bold;font-size:8.1px;stroke:none;">Figure 8. </text>
   <text y="739.134" x="155.982,160.24,162.886,166.092,170.952,174.554,177.2,182.06,185.246,189.301,191.664,193.689,195.552,202.682,207.111,212.066,215.951,218.314,220.339,222.148,226.576,229.279,231.304,233.167,236.372,241.232,243.878,246.241,248.604,252.489,254.514,256.378,260.636,265.356" svgx:width="0.52,0.33,0.4,0.6,0.44,0.33,0.6,0.4,0.5,0.29,0.25,0.55,0.88,0.55,0.61,0.48,0.29,0.25,0.55,0.55,0.33,0.25,0.55,0.4,0.6,0.33,0.29,0.29,0.48,0.25,0.55,0.52,0.58,0.79" style="fill:rgb(0,0,0);font-family:PalatinoLinotype;font-size:8.1px;stroke:none;">Structural model of rutile SnO</text>
   <text y="739.134" x="271.758" svgx:width="0.5" style="fill:rgb(0,0,0);font-family:PalatinoLinotype;font-size:4.97px;stroke:none;">2</text>
   <text y="739.134" x="274.188,276.21299999999997,278.076,281.515,285.996,289.435,292.081,295.966,303.095,305.12,306.983,313.744,316.105,318.751,323.47,325.495,327.304,331.731,336.45,340.335,342.35999999999996,344.223,348.48,353.199,355.224,357.087,361.669,365.724,369.325,373.38,378.099,381.665,386.145,388.16999999999996,390.033" svgx:width="0.25,0.55,0.42,0.56,0.42,0.33,0.48,0.88,0.25,0.55,0.83,0.29,0.33,0.58,0.25,0.55,0.55,0.58,0.48,0.25,0.55,0.52,0.58,0.25,0.55,0.56,0.5,0.44,0.5,0.58,0.44,0.56,0.25,0.55,0.33" style="fill:rgb(0,0,0);font-family:PalatinoLinotype;font-size:8.1px;stroke:none;"> system with one Sn vacancy (</text>
   <text y="739.134" x="392.718" svgx:width="0.5" style="fill:rgb(0,0,0);font-family:PalatinoLinotype,Bold;font-size:8.1px;stroke:none;">a</text>
   <text y="739.134" x="396.768,399.471,401.496,403.359,407.844,411.729,414.432,418.86,422.066,425.951,427.976,429.839,433.835,438.533,443.488,445.513,447.376" svgx:width="0.33,0.25,0.55,0.55,0.48,0.33,0.55,0.4,0.48,0.25,0.55,0.5,0.58,0.61,0.25,0.55,0.33" style="fill:rgb(0,0,0);font-family:PalatinoLinotype;font-size:8.1px;stroke:none;">) before and (</text>
   <text y="739.134" x="450.066" svgx:width="0.61" style="fill:rgb(0,0,0);font-family:PalatinoLinotype,Bold;font-size:8.1px;stroke:none;">b</text>
   <text y="739.134" x="455.033,457.734,459.75899999999996,461.622,465.675,468.376,471.02,474.903,477.981" svgx:width="0.33,0.25,0.55,0.5,0.33,0.33,0.48,0.4,0.25" style="fill:rgb(0,0,0);font-family:PalatinoLinotype;font-size:8.1px;stroke:none;">) after </text>
   <text y="750.798" x="118.235,120.597,125.316,127.962,131.847,135.051,139.106,142.707,145.353,147.715,152.142,156.861,158.886,159.615,166.311,168.687,171.277,175.975,178.0,178.729,183.448,187.333,191.388,195.969,200.45,202.475,203.204,210.334,214.222,216.867,220.922,223.245,225.27,225.944,228.306,232.734,237.453,240.892,242.89,244.915,245.644,251.951,254.596,259.024,266.154,269.557,271.582,272.311,276.739,279.385,281.40999999999997,282.139,286.024,290.079,293.68,298.324,300.349,301.079,304.957,307.313,311.191,318.342,322.22,326.933,329.523,331.548,332.223,336.271,339.469,343.347,345.37199999999996,346.101,348.457,353.169,358.117,360.439,364.034,368.082,370.721,374.6,379.515,381.53999999999996,382.269,386.694,391.175,393.2,393.929,397.524,401.945,404.301,408.722,411.919,415.352,417.376,419.40099999999995,420.13,424.632,427.829,431.878,436.38,438.405,439.134,441.83,446.25,449.448,451.47299999999996,452.202,456.453,461.166,463.189,465.214,465.943,469.141,473.019,477.967" svgx:width="0.29,0.58,0.33,0.48,0.4,0.5,0.44,0.33,0.29,0.55,0.58,0.25,0.55,0.83,0.29,0.33,0.58,0.25,0.55,0.58,0.48,0.5,0.56,0.56,0.25,0.55,0.88,0.48,0.33,0.5,0.29,0.25,0.55,0.29,0.55,0.58,0.42,0.25,0.25,0.55,0.78,0.33,0.55,0.88,0.42,0.25,0.55,0.55,0.33,0.25,0.55,0.48,0.5,0.44,0.58,0.25,0.55,0.48,0.29,0.48,0.88,0.48,0.58,0.33,0.25,0.55,0.5,0.4,0.48,0.25,0.55,0.29,0.58,0.61,0.29,0.44,0.5,0.33,0.48,0.61,0.25,0.55,0.55,0.56,0.25,0.55,0.44,0.55,0.29,0.55,0.4,0.42,0.25,0.25,0.55,0.56,0.4,0.5,0.56,0.25,0.55,0.33,0.55,0.4,0.25,0.55,0.52,0.58,0.25,0.25,0.55,0.4,0.48,0.61,0.25" style="fill:rgb(0,0,0);font-family:PalatinoLinotype;font-size:8.1px;stroke:none;">interaction with heavy metal ions. Atoms of each element are indicated by colors: gray for Sn, red </text>
   <text y="762.517" x="118.235,120.926,125.342,128.535,130.587,136.947,138.999,143.042,147.75,152.693,154.745,159.217,161.568,166.446,170.319,172.317,175.008,179.424,182.617,184.669,189.377,193.25,197.294,201.864,206.361,208.413,215.559,219.432,222.066,226.11,228.46,230.512,232.863,237.279,241.986,245.414,247.433" svgx:width="0.33,0.55,0.4,0.25,0.79,0.25,0.5,0.58,0.61,0.25,0.55,0.29,0.6,0.48,0.25,0.33,0.55,0.4,0.25,0.58,0.48,0.5,0.56,0.56,0.25,0.88,0.48,0.33,0.5,0.29,0.25,0.29,0.55,0.58,0.42,0.25,0.25" style="fill:rgb(0,0,0);font-family:PalatinoLinotype;font-size:8.1px;stroke:none;">for O and blue for heavy metal ions. </text>
   <text y="785.196" x="118.236,123.764,129.013,133.332,136.14,140.144,144.653,147.278,151.221,156.659,159.283,163.792,166.732,169.356,174.28,179.529,182.337,185.899,190.219,194.042,199.442,202.066,205.006,208.83,211.638,216.562,219.565,222.319,226.828,232.338,236.162,241.085,244.648,250.067,253.007,255.631,260.555,265.764,268.518,272.785,278.022,282.346,285.911,290.929,295.947,298.701,303.213,306.779,311.102,313.91,316.538,319.166,322.993,325.854,330.177,335.691,338.499,341.127,346.379,349.187,354.719,359.231,364.143,366.789,371.113,373.867,378.379,380.637,383.446,388.463" svgx:width="0.61,0.58,0.48,0.25,0.44,0.5,0.29,0.44,0.6,0.29,0.5,0.33,0.29,0.55,0.58,0.25,0.4,0.48,0.42,0.6,0.29,0.33,0.42,0.25,0.55,0.33,0.25,0.5,0.61,0.42,0.55,0.4,0.6,0.33,0.29,0.55,0.58,0.25,0.48,0.58,0.48,0.4,0.56,0.56,0.25,0.5,0.4,0.48,0.25,0.29,0.29,0.42,0.33,0.48,0.61,0.25,0.29,0.58,0.25,0.61,0.5,0.55,0.29,0.48,0.25,0.5,0.25,0.25,0.56,0.48" style="fill:rgb(0,0,0);font-family:PalatinoLinotype;font-size:9.02px;stroke:none;">The calculation results of adsorption energy are listed in Table 1. Fe</text>
   <text y="782.928" x="392.772,395.472" svgx:width="0.5,0.5" style="fill:rgb(0,0,0);font-family:PalatinoLinotype;font-size:5.4px;stroke:none;">3+</text>
   <text y="785.196" x="398.172,400.98,405.496,410.75,416.267,419.021,426.521" svgx:width="0.25,0.5,0.58,0.61,0.25,0.83,0.29" style="fill:rgb(0,0,0);font-family:PalatinoLinotype;font-size:9.02px;stroke:none;"> and Ni</text>
   <text y="782.928" x="429.168,431.868" svgx:width="0.5,0.5" style="fill:rgb(0,0,0);font-family:PalatinoLinotype;font-size:5.4px;stroke:none;">2+</text>
   <text y="785.196" x="434.514,437.322,441.144,446.391,451.313,458.832,461.64,464.263,468.77,472.33,477.342,481.66" svgx:width="0.25,0.42,0.58,0.55,0.83,0.25,0.29,0.5,0.4,0.56,0.48,0.25" style="fill:rgb(0,0,0);font-family:PalatinoLinotype;font-size:9.02px;stroke:none;"> show large </text>
   <text y="785.196" x="484.41" svgx:width="0.61" style="fill:rgb(0,0,0);font-family:PalatinoLinotype,Italic;font-size:9.02px;stroke:none;">E</text>
   <text y="785.196" x="489.918,492.305,494.994" svgx:width="0.44,0.5,0.39" style="fill:rgb(0,0,0);font-family:PalatinoLinotype,Italic;font-size:5.4px;stroke:none;">ads</text>
   <text y="785.196" x="497.1" svgx:width="0.25" style="fill:rgb(0,0,0);font-family:PalatinoLinotype;font-size:9.02px;stroke:none;"> </text>
   <text y="797.346" x="99.12,104.196,108.733,111.324,116.778,121.106,124.887,127.155,132.087,135.057,137.271,141.788,146.27,148.533,153.014,157.532,159.746,164.263,169.519,174.974,177.188,181.705,183.919,188.436,192.918,195.186,199.453,205.985,208.199,210.467,217.996,223.253,225.845,228.491,232.757,235.025,237.94,243.177,247.505,249.719,254.236,259.691,263.523,268.455,272.025,277.424,280.339,282.985,287.917,293.173,295.441,299.769,304.952,309.28,312.79,317.812,320.444,324.772,328.553,330.767,333.778,338.71,342.281,344.549,350.921" svgx:width="0.56,0.5,0.29,0.6,0.48,0.42,0.25,0.55,0.33,0.25,0.5,0.5,0.25,0.5,0.5,0.25,0.5,0.58,0.61,0.25,0.5,0.25,0.5,0.5,0.25,0.48,0.72,0.25,0.25,0.83,0.58,0.29,0.29,0.48,0.25,0.33,0.58,0.48,0.25,0.5,0.61,0.42,0.55,0.4,0.6,0.33,0.29,0.55,0.58,0.25,0.48,0.58,0.48,0.4,0.56,0.29,0.48,0.42,0.25,0.33,0.55,0.4,0.25,0.71,0.61" style="fill:rgb(0,0,0);font-family:PalatinoLinotype;font-size:9.02px;stroke:none;">values of 13.46 and 7.65 eV, while the adsorption energies for Cd</text>
   <text y="795.078" x="356.376,359.076" svgx:width="0.5,0.5" style="fill:rgb(0,0,0);font-family:PalatinoLinotype;font-size:5.4px;stroke:none;">2+</text>
   <text y="797.346" x="361.722,363.936,368.453,373.71,379.165,381.433,386.888" svgx:width="0.25,0.5,0.58,0.61,0.25,0.6,0.55" style="fill:rgb(0,0,0);font-family:PalatinoLinotype;font-size:9.02px;stroke:none;"> and Pb</text>
   <text y="795.078" x="391.854,394.554" svgx:width="0.5,0.5" style="fill:rgb(0,0,0);font-family:PalatinoLinotype;font-size:5.4px;stroke:none;">2+</text>
   <text y="797.346" x="397.254,399.468,403.973,407.532,411.798,414.012,419.059,424.493,427.113,430.05,434.366,436.58,439.2,444.12,451.638,453.889,456.157,461.681,466.926,471.192,474.756,479.072,482.072,486.992,490.551,494.816,497.084" svgx:width="0.25,0.5,0.4,0.48,0.25,0.56,0.6,0.29,0.33,0.48,0.25,0.29,0.55,0.83,0.25,0.25,0.61,0.58,0.48,0.4,0.48,0.33,0.55,0.4,0.48,0.25,0.25" style="fill:rgb(0,0,0);font-family:PalatinoLinotype;font-size:9.02px;stroke:none;"> are quite low. Therefore, </text>
   <text y="809.442" x="99.12,102.056,107.301,111.617,113.872,115.397,120.408" svgx:width="0.33,0.58,0.48,0.25,0.55,0.56,0.48" style="fill:rgb(0,0,0);font-family:PalatinoLinotype;font-size:9.02px;stroke:none;">the Fe</text>
   <text y="807.174" x="124.716,127.416" svgx:width="0.5,0.5" style="fill:rgb(0,0,0);font-family:PalatinoLinotype;font-size:5.4px;stroke:none;">3+</text>
   <text y="809.442" x="130.116,132.371,133.842,138.358,143.612,149.129,151.384,152.855,160.355" svgx:width="0.25,0.55,0.5,0.58,0.61,0.25,0.55,0.83,0.29" style="fill:rgb(0,0,0);font-family:PalatinoLinotype;font-size:9.02px;stroke:none;"> and Ni</text>
   <text y="807.174" x="163.002,165.702" svgx:width="0.5,0.5" style="fill:rgb(0,0,0);font-family:PalatinoLinotype;font-size:5.4px;stroke:none;">2+</text>
   <text y="809.442" x="168.402,170.65699999999998,172.128,174.774,179.689,184.927,188.708,190.963,192.488,197.024,200.534,204.8,207.055,208.58,216.519,221.973,225.971,231.209,233.464,234.989,239.255,243.791,247.572,250.218,254.537,258.047,260.302,261.828,264.742,269.657,271.912,273.437,278.404,282.723,284.978,286.503,289.149,294.387,297.302,301.621,305.131,309.613,313.611,316.525,320.845,326.354,328.609,330.134,337.641,340.287,343.201,348.439,350.694,352.22,356.972,362.156" svgx:width="0.25,0.55,0.29,0.55,0.58,0.42,0.25,0.55,0.5,0.4,0.48,0.25,0.55,0.88,0.6,0.44,0.58,0.25,0.55,0.48,0.5,0.42,0.29,0.48,0.4,0.25,0.55,0.33,0.55,0.25,0.55,0.55,0.48,0.25,0.55,0.29,0.58,0.33,0.48,0.4,0.5,0.44,0.33,0.48,0.61,0.25,0.55,0.83,0.29,0.33,0.58,0.25,0.55,0.52,0.58,0.79" style="fill:rgb(0,0,0);font-family:PalatinoLinotype;font-size:9.02px;stroke:none;"> ions are much easier to be interacted with SnO</text>
   <text y="809.442" x="369.228" svgx:width="0.5" style="fill:rgb(0,0,0);font-family:PalatinoLinotype;font-size:5.4px;stroke:none;">2</text>
   <text y="809.442" x="371.928,374.183,375.708,382.796,389.776,393.6,395.855,397.326,401.835,407.084,412.594,414.849,416.32,419.26,424.508,428.828,431.08299999999997,432.608,436.612,441.536,446.785,450.789,453.413,458.813,462.636,465.261,470.121,475.359,477.614,479.139,481.764,485.545,487.8,489.325,491.949,497.133" svgx:width="0.25,0.55,0.79,0.77,0.42,0.25,0.55,0.5,0.58,0.61,0.25,0.55,0.33,0.58,0.48,0.25,0.55,0.44,0.55,0.58,0.44,0.29,0.6,0.42,0.29,0.55,0.58,0.25,0.55,0.29,0.42,0.25,0.55,0.29,0.58,0.25" style="fill:rgb(0,0,0);font-family:PalatinoLinotype;font-size:9.02px;stroke:none;"> QDs and the conclusion is in </text>
   <text y="821.592" x="99.12,103.622,108.629,112.183,116.496,120.808,128.694,133.006,138.247,141.18,143.448,150.962,153.579,156.511,161.753,164.021,166.953,172.195,176.507,178.775,182.772,187.688,191.243,194.753,199.066,201.683,206.184,209.117,211.734,216.651,221.892,224.16,229.14,233.452,236.385,243.899,248.211,252.523,257.707,259.921,262.917,265.534,270.964,275.881,279.436,283.748,287.565,291.561,295.874,301.115,305.059,309.396,311.61,315.12,319.44,323.256,328.669,333.585,338.827,342.643,346.909,349.177,353.679,358.863,364.366,366.579,369.196,374.113,379.354,381.622,385.132,389.668,395.171,397.788,403.219,407.035,409.282,411.55,414.582,417.443,419.657,427.17,431.672,435.489,437.757,441.753,446.67,451.911,455.908,458.525,463.956,469.459,473.724,479.227,481.495,484.428,489.669,494.171,497.103" svgx:width="0.5,0.56,0.4,0.48,0.48,0.88,0.48,0.58,0.33,0.25,0.83,0.29,0.33,0.58,0.25,0.33,0.58,0.48,0.25,0.44,0.55,0.4,0.4,0.48,0.29,0.5,0.33,0.29,0.55,0.58,0.25,0.55,0.48,0.33,0.83,0.48,0.48,0.58,0.25,0.33,0.29,0.6,0.55,0.4,0.48,0.42,0.44,0.48,0.58,0.44,0.48,0.25,0.4,0.48,0.42,0.6,0.55,0.58,0.42,0.48,0.25,0.5,0.58,0.61,0.25,0.29,0.55,0.58,0.25,0.4,0.5,0.61,0.29,0.6,0.42,0.25,0.25,0.34,0.33,0.25,0.83,0.5,0.42,0.25,0.44,0.55,0.58,0.44,0.29,0.6,0.61,0.48,0.61,0.25,0.33,0.58,0.5,0.33,0.25" style="fill:rgb(0,0,0);font-family:PalatinoLinotype;font-size:9.02px;stroke:none;">agreement with the correlation between fluorescence response and ion radius. It was concluded that </text>
   <text y="833.742" x="99.12,102.054,107.297,111.612,113.934,116.931,119.55,124.983,129.901,133.458,137.772,141.59,145.589,149.855,155.093,159.091,163.406,165.728,171.142,175.456,179.013,182.011,186.929,190.486,198.371,202.853,208.096,212.095,216.409,218.731,221.35,225.168,227.49,232.995,237.309,242.723,247.038,252.281,257.736,262.05,267.293,270.227,272.55,277.468,282.711,285.033,287.968,293.211,297.525,299.838,304.348,309.803,313.628,318.552,322.115,327.536,330.477,333.102,338.027,343.276,345.598,349.919,355.168,359.488,362.998,368.013,373.028,375.35,380.275,383.279,385.601,390.85,395.171,399.681,404.703,409.718,411.986,419.95,424.27,427.211,431.721,434.346,436.614,439.239,444.164,449.413,453.238,455.452,457.774,465.225,470.14,477.662,481.983,487.079,491.399,494.962,497.176" svgx:width="0.33,0.58,0.48,0.25,0.33,0.29,0.6,0.55,0.4,0.48,0.42,0.44,0.48,0.58,0.44,0.48,0.25,0.6,0.48,0.4,0.33,0.55,0.4,0.88,0.5,0.58,0.44,0.48,0.25,0.29,0.42,0.25,0.61,0.48,0.6,0.48,0.58,0.61,0.48,0.58,0.33,0.25,0.55,0.58,0.25,0.33,0.58,0.48,0.25,0.5,0.61,0.42,0.55,0.4,0.6,0.33,0.29,0.55,0.58,0.25,0.48,0.58,0.48,0.4,0.56,0.56,0.25,0.55,0.33,0.25,0.58,0.48,0.5,0.56,0.56,0.25,0.88,0.48,0.33,0.5,0.29,0.25,0.29,0.55,0.58,0.42,0.25,0.25,0.83,0.55,0.83,0.48,0.56,0.48,0.4,0.25,0.25" style="fill:rgb(0,0,0);font-family:PalatinoLinotype;font-size:9.02px;stroke:none;">the fluorescence performance is dependent on the adsorption energy of heavy metal ions. However, </text>
   <text y="845.892" x="99.12,103.624,108.868,111.623,114.242,119.486,124.577,128.892,132.402,136.237,140.552,143.306,147.306,152.167,155.724,159.282,163.597,166.217,170.721,173.656,176.276,181.196,186.379,189.187,196.704,201.208,205.027,207.836,212.755,217.737,221.556,225.872,229.429,234.52,238.786,244.295,247.104,252.086,256.401,259.262,266.768,271.083,275.398,280.642,283.396,287.901,293.406,297.226,302.086,305.644,311.059,313.995,316.614,321.534,326.778,329.586,333.901,339.084,343.4,346.957,351.967,356.933,359.687,364.191,369.435,374.941,377.749,380.748,383.367,388.801,393.72,397.278,401.593,405.412,409.411,413.726,418.91,422.909,427.225,430.033,433.59,437.856,441.675,447.09,452.01,457.254,461.073,465.338,468.146,471.145,476.064,479.622,482.43,487.44" svgx:width="0.5,0.58,0.25,0.29,0.58,0.56,0.48,0.4,0.42,0.48,0.25,0.44,0.55,0.4,0.4,0.48,0.29,0.5,0.33,0.29,0.55,0.58,0.25,0.83,0.5,0.42,0.25,0.55,0.55,0.42,0.48,0.4,0.56,0.48,0.61,0.25,0.55,0.48,0.33,0.83,0.48,0.48,0.58,0.25,0.5,0.61,0.42,0.55,0.4,0.6,0.33,0.29,0.55,0.58,0.25,0.48,0.58,0.48,0.4,0.56,0.56,0.25,0.5,0.58,0.61,0.25,0.33,0.29,0.6,0.55,0.4,0.48,0.42,0.44,0.48,0.58,0.44,0.48,0.25,0.4,0.48,0.42,0.6,0.55,0.58,0.42,0.48,0.25,0.33,0.55,0.4,0.25,0.56,0.48" style="fill:rgb(0,0,0);font-family:PalatinoLinotype;font-size:9.02px;stroke:none;">an inverse correlation was observed between adsorption energy and fluorescence response for Fe</text>
   <text y="843.624" x="491.754,494.454" svgx:width="0.5,0.5" style="fill:rgb(0,0,0);font-family:PalatinoLinotype;font-size:5.4px;stroke:none;">3+</text>
   <text y="845.892" x="497.1" svgx:width="0.25" style="fill:rgb(0,0,0);font-family:PalatinoLinotype;font-size:9.02px;stroke:none;"> </text>
   <text y="858.042" x="99.12,103.636,108.89,114.407,117.161,124.661" svgx:width="0.5,0.58,0.61,0.25,0.83,0.29" style="fill:rgb(0,0,0);font-family:PalatinoLinotype;font-size:9.02px;stroke:none;">and Ni</text>
   <text y="855.774" x="127.308,130.008" svgx:width="0.5,0.5" style="fill:rgb(0,0,0);font-family:PalatinoLinotype;font-size:5.4px;stroke:none;">2+</text>
   <text y="858.042" x="132.654,134.905,137.713,140.749,143.609,146.417,149.038,152.858,155.666,160.677,165.921,170.842,178.359,183.543,186.351,189.287,194.532,199.037,201.974,204.782,207.642,212.88,217.196,220.004,223.004,225.624,231.058,235.979,239.489,243.808,247.628,251.629,255.945,261.128,265.128,269.445,272.253,275.811,280.077,283.897,289.313,294.233,299.478,303.298,307.564,310.372,312.992,316.812,319.621,322.557,327.802,332.118,334.926,338.926,343.847,349.03,352.866,357.131,362.206,367.641,371.957,377.201,381.202,385.518,388.326,393.187,396.211,399.019,401.955,407.2,411.465,414.274,419.32,424.754,429.07,434.315,438.316,443.56,446.181,451.365,456.375,459.183,464.044,467.068,469.876,474.141,479.379,483.695,487.254,492.22,497.186" svgx:width="0.25,0.25,0.34,0.33,0.25,0.29,0.42,0.25,0.56,0.58,0.55,0.83,0.58,0.25,0.33,0.58,0.5,0.33,0.25,0.33,0.58,0.48,0.25,0.33,0.29,0.6,0.55,0.4,0.48,0.42,0.44,0.48,0.58,0.44,0.48,0.25,0.4,0.48,0.42,0.6,0.55,0.58,0.42,0.48,0.25,0.29,0.42,0.25,0.33,0.58,0.48,0.25,0.44,0.55,0.58,0.42,0.48,0.56,0.6,0.48,0.58,0.44,0.48,0.25,0.55,0.33,0.25,0.33,0.58,0.48,0.25,0.56,0.6,0.48,0.58,0.44,0.58,0.29,0.58,0.56,0.25,0.55,0.33,0.25,0.48,0.58,0.48,0.4,0.56,0.56,0.25" style="fill:rgb(0,0,0);font-family:PalatinoLinotype;font-size:9.02px;stroke:none;">. It is known that the fluorescence response is the consequence of the quenching of energy </text>
   <text y="870.192" x="99.12,103.436,111.395,114.016,117.836,121.656,124.276,129.197,134.379,136.809,142.315,147.749,151.258,153.849,159.094,164.104,166.534,169.47,174.715,178.98,181.41,184.346,187.905,192.41,197.655,201.475,204.096,206.955,209.6,214.52,219.765,222.195,227.054,230.077,232.453,236.769,239.389,243.705,247.706,250.642,254.2,259.06,264.297,268.117,270.492,273.492,277.05,281.97,289.93,292.385,295.304,300.53,304.828,307.259,311.241,316.143,321.37,326.858,332.275,336.257,339.175,341.821,346.723,351.95,354.38,359.346,363.833,369.06,374.548,376.979,379.897,384.799,387.229,390.148,395.374,399.672,402.103,407.176,411.664,414.31,418.575,423.802,427.784,432.082,434.513,439.478,444.014,449.241,454.729,456.962,459.392,464.899,470.126,474.423,477.964,482.262,484.638,489.174,492.738,497.036" svgx:width="0.48,0.88,0.29,0.42,0.42,0.29,0.55,0.58,0.25,0.61,0.6,0.4,0.29,0.58,0.56,0.25,0.33,0.58,0.48,0.25,0.33,0.4,0.5,0.58,0.42,0.29,0.33,0.29,0.55,0.58,0.25,0.55,0.33,0.25,0.48,0.29,0.48,0.44,0.33,0.4,0.55,0.58,0.42,0.25,0.33,0.4,0.55,0.88,0.25,0.33,0.58,0.48,0.25,0.44,0.55,0.58,0.61,0.6,0.44,0.33,0.29,0.55,0.58,0.25,0.55,0.5,0.58,0.61,0.25,0.33,0.55,0.25,0.33,0.58,0.48,0.25,0.56,0.5,0.29,0.48,0.58,0.44,0.48,0.25,0.55,0.5,0.58,0.61,0.25,0.25,0.61,0.58,0.48,0.4,0.48,0.25,0.5,0.4,0.48,0.25" style="fill:rgb(0,0,0);font-family:PalatinoLinotype;font-size:9.02px;stroke:none;">emission during the transition of electrons from the conduction band to the valence band. There are </text>
   <text y="882.342" x="99.12,102.941,107.259,112.353,116.67,120.231,124.738,127.36,129.791,137.243,141.779,146.792,150.613,152.99,155.928,160.85,163.28,166.84,171.158,173.781,178.098,182.606,186.427,190.745,193.176,196.114,201.36,205.678,208.054,212.372,217.619,221.937,225.497,230.509,235.521,237.774,240.204,244.026,249.462,253.465,258.648,261.024,265.532,269.353,271.73,275.551,279.869,282.492,285.493,288.494,293.574,299.011,303.33,308.577,312.521,317.768,320.392,325.639,330.652,332.906,335.337,338.847,343.167,346.989,351.912,357.096,361.632,366.815,370.813,375.132,377.563,381.882,387.129,391.448,395.009,400.022,404.989,407.42,410.359,413.92,418.428,423.676,427.498,430.5,434.819,438.38,440.758,443.76,449.783,455.292,460.819,463.821,466.075,468.506,472.772,477.416,481.419,484.042,486.981,491.904,497.152" svgx:width="0.42,0.48,0.56,0.48,0.4,0.5,0.29,0.25,0.83,0.5,0.56,0.42,0.25,0.33,0.55,0.25,0.4,0.48,0.29,0.48,0.5,0.42,0.48,0.25,0.33,0.58,0.48,0.25,0.48,0.58,0.48,0.4,0.56,0.56,0.25,0.25,0.42,0.6,0.44,0.58,0.25,0.5,0.42,0.25,0.42,0.48,0.29,0.33,0.33,0.56,0.6,0.48,0.58,0.44,0.58,0.29,0.58,0.56,0.25,0.25,0.4,0.48,0.42,0.55,0.58,0.5,0.58,0.44,0.48,0.25,0.48,0.58,0.48,0.4,0.56,0.56,0.25,0.33,0.4,0.5,0.58,0.42,0.33,0.48,0.4,0.25,0.33,0.67,0.61,0.61,0.33,0.25,0.25,0.48,0.52,0.44,0.29,0.33,0.55,0.58,0.25" style="fill:rgb(0,0,0);font-family:PalatinoLinotype;font-size:9.02px;stroke:none;">several ways to release the energy, such as self-quenching, resonance energy transfer (RET), exciton </text>
   <text y="894.438" x="99.12,103.114,108.028,113.456,118.865,121.48,124.094,129.278,134.282,136.928,141.427,146.665,152.165,154.865,160.275,165.514,170.428,173.358,178.272,180.886,186.124,191.624,197.052,200.996,205.306,210.806,213.506,217.815,220.43,224.739,228.734,231.663,235.216,240.13,245.368,248.068,250.998,254.55,259.049,264.288,268.102,271.095,275.404,278.957,281.657,284.65,290.087,295.587,301.105,304.098,306.803,309.801,314.304,318.808,321.806,324.055,326.701,333.711,341.669,346.587,351.83,356.839,359.539,362.473,367.657,371.971,375.789,380.103,382.353,385.053,390.494,395.999,401.454,404.154,406.773,412.016,417.106,421.967,424.586,429.675,433.99,437.808,440.508,443.442,448.685,453.0,455.7,458.634,462.191,466.694,471.878,475.696,478.694,483.008,486.565,489.265,494.125,497.149" svgx:width="0.44,0.55,0.6,0.6,0.29,0.29,0.58,0.56,0.25,0.5,0.58,0.61,0.25,0.6,0.58,0.55,0.33,0.55,0.29,0.58,0.61,0.6,0.44,0.48,0.61,0.25,0.48,0.29,0.48,0.44,0.33,0.4,0.55,0.58,0.25,0.33,0.4,0.5,0.58,0.42,0.33,0.48,0.4,0.25,0.33,0.6,0.61,0.61,0.33,0.25,0.33,0.5,0.5,0.33,0.25,0.25,0.78,0.88,0.55,0.58,0.56,0.25,0.33,0.58,0.48,0.42,0.48,0.25,0.25,0.6,0.61,0.61,0.25,0.29,0.58,0.56,0.55,0.29,0.56,0.48,0.42,0.25,0.33,0.58,0.48,0.25,0.33,0.4,0.5,0.58,0.42,0.33,0.48,0.4,0.25,0.55,0.33,0.25" style="fill:rgb(0,0,0);font-family:PalatinoLinotype;font-size:9.02px;stroke:none;">coupling and photoinduced electron transfer (PET) [25]. Among these, PET involves the transfer of </text>
   <text y="906.588" x="99.12,103.437,106.06,110.378,114.38,117.318,120.878,125.8,131.047,134.869,137.124,139.459,144.444,148.762,151.622,159.129,163.447,167.765,173.011,175.266,177.602,182.109,187.355,189.60999999999999,191.946,196.263,200.915,204.858,207.504,210.442,214.76,220.268,222.523,224.859,227.86,230.482,235.918,240.84,244.401,248.666,252.488,256.431,260.749,265.996,269.998,274.316,276.57099999999997,278.906,283.413,288.426,292.743,297.99,300.928,303.183,305.453,309.935,315.173,320.692,322.947,325.282,329.8,332.055,334.39,339.413,342.984,347.845,353.299,358.557,364.012,366.267,368.602,372.435,375.349,379.867,382.782,387.11,389.365,391.701,395.533,400.932,405.261,409.274,411.907,416.173,420.005,422.26,424.596,428.609,432.18,436.508,441.026,443.941,446.587,451.771,456.791,459.046,461.381,465.899,468.154,470.435,474.448,479.706,484.224,487.795,492.818,497.146" svgx:width="0.48,0.29,0.48,0.44,0.33,0.4,0.55,0.58,0.42,0.25,0.55,0.55,0.48,0.33,0.83,0.48,0.48,0.58,0.25,0.55,0.5,0.58,0.25,0.55,0.48,0.52,0.44,0.29,0.33,0.48,0.61,0.25,0.55,0.33,0.29,0.6,0.55,0.4,0.48,0.42,0.44,0.48,0.58,0.44,0.48,0.25,0.55,0.5,0.56,0.48,0.58,0.33,0.25,0.55,0.5,0.58,0.61,0.25,0.55,0.5,0.25,0.55,0.56,0.4,0.55,0.6,0.58,0.61,0.25,0.55,0.42,0.33,0.5,0.33,0.48,0.25,0.55,0.42,0.6,0.48,0.44,0.29,0.48,0.42,0.25,0.55,0.44,0.4,0.48,0.5,0.33,0.29,0.58,0.56,0.25,0.55,0.5,0.25,0.55,0.44,0.58,0.5,0.4,0.56,0.48,0.25" style="fill:rgb(0,0,0);font-family:PalatinoLinotype;font-size:9.02px;stroke:none;">electrons between an excited fluorescence agent and a ground state species creating a charge </text>
   <text y="918.738" x="99.12,102.939,107.254,112.669,117.174,120.683,125.22,128.155,130.775,135.694,140.938,143.19299999999998,144.016,147.014,151.519,156.023,159.022,161.272,163.527,164.404,173.417,178.661,182.976,188.22,190.475,191.298,195.803,201.308,205.127,210.046,213.604,218.587,222.902,228.407,230.662,231.539,236.458,241.702,243.957,244.834,247.77,253.02,257.34,259.59499999999997,260.471,264.307,266.953,269.867,274.187,276.442,277.319,282.234,285.258,287.513,288.335,293.088,298.326,300.581,301.457,306.48,310.962,314.959,319.495,324.733,328.731,333.751,336.019,338.274,339.097,344.606,347.252,352.274,356.81,359.456,363.721,368.959,371.874,374.129,375.006,382.511" svgx:width="0.42,0.48,0.6,0.5,0.4,0.5,0.33,0.29,0.55,0.58,0.25,0.55,0.33,0.5,0.5,0.33,0.25,0.25,0.55,1.0,0.58,0.48,0.58,0.25,0.55,0.5,0.61,0.42,0.55,0.4,0.55,0.48,0.61,0.25,0.55,0.55,0.58,0.25,0.55,0.33,0.58,0.48,0.25,0.55,0.42,0.29,0.33,0.48,0.25,0.55,0.55,0.33,0.25,0.55,0.52,0.58,0.25,0.55,0.56,0.5,0.44,0.5,0.58,0.44,0.56,0.25,0.25,0.55,0.61,0.29,0.56,0.5,0.29,0.48,0.58,0.33,0.25,0.55,0.83,0.29" style="fill:rgb(0,0,0);font-family:PalatinoLinotype;font-size:9.02px;stroke:none;">separation [56]. When adsorbed on the site of Sn vacancy, divalent Ni</text>
   <text y="916.47" x="385.158,387.858" svgx:width="0.5,0.5" style="fill:rgb(0,0,0);font-family:PalatinoLinotype;font-size:5.4px;stroke:none;">2+</text>
   <text y="918.738" x="390.558,392.813,393.69,396.336,401.251,406.456,410.291,412.546,413.369,421.289,425.825,430.845,433.1,433.977,439.182,443.718,448.794,453.114,455.36899999999997,456.246,460.712,462.967,463.844,467.624,470.521,474.085,478.999,484.237,489.257,493.577,497.087" svgx:width="0.25,0.55,0.29,0.55,0.58,0.42,0.25,0.55,0.88,0.5,0.56,0.25,0.55,0.58,0.5,0.56,0.48,0.25,0.55,0.5,0.25,0.55,0.42,0.33,0.4,0.55,0.58,0.56,0.48,0.4,0.25" style="fill:rgb(0,0,0);font-family:PalatinoLinotype;font-size:9.02px;stroke:none;"> ions may have a stronger </text>
   <text y="930.888" x="99.12,101.766,107.003,109.933,114.243,117.795,120.819,125.128,128.681,132.99,138.229,142.223,146.533,148.78799999999998,150.961,153.821,158.736,160.99099999999999,163.164,168.601,174.101,179.619,181.874,184.047,186.977,192.215,196.751,201.935,204.19,206.308,209.238,212.791,215.437,220.513,225.049,227.695,232.004,237.243,240.173,242.428,244.547,249.551" svgx:width="0.29,0.58,0.33,0.48,0.4,0.33,0.48,0.4,0.48,0.58,0.44,0.48,0.25,0.55,0.33,0.55,0.25,0.55,0.6,0.61,0.61,0.25,0.55,0.33,0.58,0.5,0.58,0.25,0.55,0.33,0.4,0.29,0.56,0.5,0.29,0.48,0.58,0.33,0.25,0.55,0.56,0.48" style="fill:rgb(0,0,0);font-family:PalatinoLinotype;font-size:9.02px;stroke:none;">interference to PET than trivalent Fe</text>
   <text y="928.62" x="253.884,256.584" svgx:width="0.5,0.5" style="fill:rgb(0,0,0);font-family:PalatinoLinotype;font-size:5.4px;stroke:none;">3+</text>
   <text y="930.888" x="259.23,261.485,263.658,266.278,271.199,276.444,280.264,282.514,284.769,286.942,292.467,297.712,302.028,305.586,309.853,312.822,317.742,321.301,325.617,327.868,330.123,332.296,335.232,340.477,344.793,347.048,349.167,353.897,359.142" svgx:width="0.25,0.55,0.29,0.55,0.58,0.42,0.25,0.25,0.55,0.61,0.58,0.48,0.4,0.48,0.33,0.55,0.4,0.48,0.25,0.25,0.55,0.33,0.58,0.48,0.25,0.55,0.52,0.58,0.79" style="fill:rgb(0,0,0);font-family:PalatinoLinotype;font-size:9.02px;stroke:none;"> ions. Therefore, the SnO</text>
   <text y="930.888" x="366.15" svgx:width="0.5" style="fill:rgb(0,0,0);font-family:PalatinoLinotype;font-size:5.4px;stroke:none;">2</text>
   <text y="930.888" x="368.85,371.105,373.278,380.37,387.353,391.18,393.435,395.608,399.435,404.688,409.615,417.067,419.322,421.441,425.954,428.209,430.382,438.348,443.276,446.841,451.108,453.363,455.536,459.363,461.991,467.008,472.26,474.888,477.895,480.523,484.466,488.979,494.231,497.174" svgx:width="0.25,0.55,0.79,0.77,0.42,0.25,0.55,0.42,0.58,0.55,0.83,0.25,0.55,0.5,0.25,0.55,0.88,0.55,0.4,0.48,0.25,0.55,0.42,0.29,0.56,0.58,0.29,0.33,0.29,0.44,0.5,0.58,0.33,0.25" style="fill:rgb(0,0,0);font-family:PalatinoLinotype;font-size:9.02px;stroke:none;"> QDs show a more significant </text>
   <text y="943.038" x="99.12,102.13,104.761,110.161,115.076,118.646,122.972,126.803,130.814,135.141,140.397,144.341,148.66,150.928,153.789,158.704,160.972,168.473" svgx:width="0.33,0.29,0.6,0.55,0.4,0.48,0.42,0.44,0.48,0.58,0.44,0.48,0.25,0.33,0.55,0.25,0.83,0.29" style="fill:rgb(0,0,0);font-family:PalatinoLinotype;font-size:9.02px;stroke:none;">fluorescence to Ni</text>
   <text y="940.77" x="171.102,173.802" svgx:width="0.5,0.5" style="fill:rgb(0,0,0);font-family:PalatinoLinotype;font-size:5.4px;stroke:none;">2+</text>
   <text y="943.038" x="176.448,178.716,183.033,188.125,192.442,197.688,199.956,202.893,208.077,212.998,218.433,223.444,228.69,230.958,235.924" svgx:width="0.25,0.48,0.56,0.48,0.58,0.25,0.33,0.58,0.55,0.6,0.56,0.58,0.25,0.56,0.48" style="fill:rgb(0,0,0);font-family:PalatinoLinotype;font-size:9.02px;stroke:none;"> even though Fe</text>
   <text y="940.77" x="240.222,242.922" svgx:width="0.5,0.5" style="fill:rgb(0,0,0);font-family:PalatinoLinotype;font-size:5.4px;stroke:none;">3+</text>
   <text y="943.038" x="245.622,247.89,253.12,257.656,261.46,263.728,268.723,272.267,276.567,281.103,284.024,288.325,291.868,294.082,298.618,304.127,307.932,312.837,316.38,321.781,324.702,327.348,332.253,337.482,339.75,344.051,349.28,353.581,357.124,362.119,367.114,369.35" svgx:width="0.25,0.58,0.5,0.42,0.25,0.56,0.4,0.48,0.5,0.33,0.48,0.4,0.25,0.5,0.61,0.42,0.55,0.4,0.6,0.33,0.29,0.55,0.58,0.25,0.48,0.58,0.48,0.4,0.56,0.56,0.25,0.25" style="fill:rgb(0,0,0);font-family:PalatinoLinotype;font-size:9.02px;stroke:none;"> has greater adsorption energy. </text>
   <text y="965.772" x="118.236,123.642,127.695,132.648,135.348,139.401,141.42600000000002,143.344,147.339,149.391" svgx:width="0.67,0.5,0.61,0.33,0.5,0.25,0.55,0.5,0.25,0.25" style="fill:rgb(0,0,0);font-family:PalatinoLinotype,Bold;font-size:8.1px;stroke:none;">Table 1. </text>
   <text y="965.772" x="153.282,159.588,164.541,167.945,172.32,175.523,180.395,183.04,185.401,189.828,194.546,196.571,198.38,202.264,206.982,210.866,214.07,218.55,220.926,224.81,228.249,230.274,232.082,236.509,239.155,241.18,242.989,247.707,251.591,255.645,260.226,264.652,266.67699999999996,268.486,275.616,279.504,282.148,286.203,288.564,290.589,292.344,294.705,299.132,303.85,307.254,309.279,311.087,313.789,316.992,321.419,328.548,330.573,332.329,335.03,337.391,340.595,344.033,346.678,348.703,350.512,355.384,358.587,360.949,365.667,369.232,371.608,376.48,378.841,382.675,384.7,386.455,390.056,394.11,396.471,400.072,404.932,407.307,411.361,413.952,416.313,420.74,425.458,427.483,429.291,433.775,437.771,441.174,445.062,450.015,452.03999999999996,453.849,458.276,462.919,464.94399999999996,466.753,469.398,474.116,478.0" svgx:width="0.78,0.61,0.42,0.55,0.4,0.6,0.33,0.29,0.55,0.58,0.25,0.55,0.48,0.58,0.48,0.4,0.56,0.29,0.48,0.42,0.25,0.55,0.55,0.33,0.25,0.55,0.58,0.48,0.5,0.56,0.56,0.25,0.55,0.88,0.48,0.33,0.5,0.29,0.25,0.55,0.29,0.55,0.58,0.42,0.25,0.55,0.33,0.4,0.55,0.88,0.25,0.55,0.33,0.29,0.4,0.42,0.33,0.25,0.55,0.6,0.4,0.29,0.58,0.44,0.29,0.6,0.29,0.48,0.25,0.55,0.44,0.5,0.29,0.44,0.6,0.29,0.5,0.33,0.29,0.55,0.58,0.25,0.55,0.55,0.5,0.42,0.48,0.61,0.25,0.55,0.55,0.58,0.25,0.55,0.33,0.58,0.48,0.25" style="fill:rgb(0,0,0);font-family:PalatinoLinotype;font-size:8.1px;stroke:none;">Adsorption energies of heavy metal ions from first principle calculation based on the </text>
   <text y="977.491" x="118.236,123.182,127.059,131.769,135.201,137.555,140.192,144.692,146.744,149.438,154.319,159.03,162.623,165.261,167.614,172.034,176.745,178.796,181.434,186.145,190.021,194.441,197.637,202.137,204.189" svgx:width="0.61,0.48,0.58,0.42,0.29,0.33,0.56,0.25,0.33,0.6,0.58,0.44,0.33,0.29,0.55,0.58,0.25,0.33,0.58,0.48,0.55,0.4,0.56,0.25,0.25" style="fill:rgb(0,0,0);font-family:PalatinoLinotype;font-size:8.1px;stroke:none;">density function theory. </text>
   <text y="995.688" x="122.448,129.937,134.422,138.958,143.983,148.974,151.242,160.236,164.772,167.752,172.288,175.267,177.481,180.966,185.956,191.443,193.698,201.271,208.263,213.75,217.73,222.721,226.206,231.692,234.716,237.685,242.676,248.163,250.431,255.872,261.359,265.895,269.404,274.394,279.385,281.599,284.622,289.104,296.097,299.076,301.331,308.91,312.414,317.424,322.931,325.199,331.572,336.108,341.614,344.614,350.12,354.12,356.388,359.388,366.4,369.4,371.655,379.119,384.148,387.147,392.653,397.664,401.119,405.655,409.655,413.599,418.104,423.61,427.554,432.09,434.304,440.739,445.245,449.245,454.751,459.762,465.268,469.212,473.694" svgx:width="0.83,0.5,0.5,0.56,0.56,0.25,1.0,0.5,0.33,0.5,0.33,0.25,0.39,0.56,0.61,0.25,0.55,0.78,0.61,0.44,0.56,0.39,0.61,0.33,0.33,0.56,0.61,0.25,0.61,0.61,0.5,0.39,0.56,0.56,0.25,0.33,0.5,0.78,0.33,0.25,0.55,0.39,0.56,0.61,0.25,0.71,0.5,0.61,0.33,0.61,0.44,0.25,0.33,0.78,0.33,0.25,0.55,0.56,0.33,0.61,0.56,0.39,0.5,0.44,0.44,0.5,0.61,0.44,0.5,0.25,0.71,0.5,0.44,0.61,0.56,0.61,0.44,0.5,0.25" style="fill:rgb(0,0,0);font-family:PalatinoLinotype,Bold;font-size:9.02px;stroke:none;">Heavy Metal Ion Adsorption Energy (eV) Ion Radius (Å) Fluorescence Response </text>
  </g>
  <g begin="text">
   <text y="1008.27" x="148.314,154.686" svgx:width="0.71,0.61" style="fill:rgb(0,0,0);font-family:PalatinoLinotype;font-size:9.02px;stroke:none;">Cd</text>
   <text y="1006.002" x="160.194,162.894" svgx:width="0.5,0.5" style="fill:rgb(0,0,0);font-family:PalatinoLinotype;font-size:5.4px;stroke:none;">2+</text>
   <text y="1008.27" x="165.594,167.849,242.328,246.864,249.078,253.614,258.096,260.351,334.614,339.15,343.632,345.887,418.476,423.012,425.226,429.762,434.244" svgx:width="0.25,0.55,0.5,0.25,0.5,0.5,0.25,0.55,0.5,0.5,0.25,0.55,0.5,0.25,0.5,0.5,0.25" style="fill:rgb(0,0,0);font-family:PalatinoLinotype;font-size:9.02px;stroke:none;"> 4.21 78 1.14 </text>
  </g>
  <g begin="text">
   <text y="1020.42" x="149.556,154.576" svgx:width="0.56,0.48" style="fill:rgb(0,0,0);font-family:PalatinoLinotype;font-size:9.02px;stroke:none;">Fe</text>
   <text y="1018.152" x="158.898,161.598" svgx:width="0.5,0.5" style="fill:rgb(0,0,0);font-family:PalatinoLinotype;font-size:5.4px;stroke:none;">3+</text>
   <text y="1020.42" x="164.298,166.553,240.06,244.592,249.074,251.352,255.834,260.316,262.57099999999997,331.218,335.751,340.233,342.511,346.993,349.248,418.488,423.021,425.235,429.767,434.249" svgx:width="0.25,0.55,0.5,0.5,0.25,0.5,0.5,0.25,0.55,0.5,0.5,0.25,0.5,0.25,0.55,0.5,0.25,0.5,0.5,0.25" style="fill:rgb(0,0,0);font-family:PalatinoLinotype;font-size:9.02px;stroke:none;"> 13.46 64.5 2.13 </text>
   <text y="1032.57" x="149.178,156.684" svgx:width="0.83,0.29" style="fill:rgb(0,0,0);font-family:PalatinoLinotype;font-size:9.02px;stroke:none;">Ni</text>
   <text y="1030.302" x="159.33,162.03" svgx:width="0.5,0.5" style="fill:rgb(0,0,0);font-family:PalatinoLinotype;font-size:5.4px;stroke:none;">2+</text>
   <text y="1032.57" x="164.676,166.93099999999998,242.328,246.864,249.078,253.614,258.096,260.351,334.614,339.15,343.632,345.887,418.476,423.012,425.226,429.762,434.244" svgx:width="0.25,0.55,0.5,0.25,0.5,0.5,0.25,0.55,0.5,0.5,0.25,0.55,0.5,0.25,0.5,0.5,0.25" style="fill:rgb(0,0,0);font-family:PalatinoLinotype;font-size:9.02px;stroke:none;"> 7.65 69 2.48 </text>
   <text y="1044.666" x="149.016,154.47" svgx:width="0.6,0.55" style="fill:rgb(0,0,0);font-family:PalatinoLinotype;font-size:9.02px;stroke:none;">Pb</text>
   <text y="1042.398" x="159.438,162.138" svgx:width="0.5,0.5" style="fill:rgb(0,0,0);font-family:PalatinoLinotype;font-size:5.4px;stroke:none;">2+</text>
   <text y="1044.666" x="164.838,167.093,242.328,246.864,249.078,253.614,258.096,260.351,332.346,336.882,341.364,345.846,348.101,418.476,423.012,425.226,429.762,434.244" svgx:width="0.25,0.55,0.5,0.25,0.5,0.5,0.25,0.55,0.5,0.5,0.5,0.25,0.55,0.5,0.25,0.5,0.5,0.25" style="fill:rgb(0,0,0);font-family:PalatinoLinotype;font-size:9.02px;stroke:none;"> 5.39 119 1.03 </text>
  </g>
  <g begin="text">
   <text y="1068.534" x="99.12,103.627,105.88,110.387,112.64,114.854,123.365,126.871,130.54,135.047,139.049,144.061,146.566,150.021,157.035,159.303,163.306,165.811,168.079,173.091,175.596,180.608,184.611,188.117,191.572,195.078,198.746,202.201,207.222,210.89,214.396,216.664,222.677,226.184,229.638,234.175,238.177,243.189,246.695,250.15" svgx:width="0.5,0.25,0.5,0.25,0.25,0.94,0.39,0.41,0.5,0.44,0.56,0.28,0.39,0.78,0.25,0.44,0.28,0.25,0.56,0.28,0.56,0.44,0.39,0.39,0.39,0.41,0.39,0.56,0.41,0.39,0.25,0.67,0.39,0.39,0.5,0.44,0.56,0.39,0.39,0.25" style="fill:rgb(0,0,0);font-family:PalatinoLinotype,Italic;font-size:9.02px;stroke:none;">3.4. Mechanism of Fluorescence Response </text>
   <text y="1086.084" x="118.236,125.246,129.063,131.763,135.581,140.823,145.74,153.255,158.497,161.197,163.815,168.999,171.699,174.632,179.874,184.188,186.942,190.759,193.693,197.248,202.68,206.678,209.611,215.043,218.553,223.055,225.673,228.427,236.384,241.301,246.805,251.118,253.736,256.49,261.351,264.375,267.129,270.063,275.305,279.571,282.325,287.053,292.296" svgx:width="0.78,0.42,0.25,0.42,0.58,0.55,0.83,0.58,0.25,0.29,0.58,0.25,0.33,0.58,0.48,0.25,0.42,0.33,0.4,0.6,0.44,0.33,0.6,0.4,0.5,0.29,0.25,0.88,0.55,0.61,0.48,0.29,0.25,0.55,0.33,0.25,0.33,0.58,0.48,0.25,0.52,0.58,0.79" style="fill:rgb(0,0,0);font-family:PalatinoLinotype;font-size:9.02px;stroke:none;">As shown in the structural model of the SnO</text>
   <text y="1086.084" x="299.352" svgx:width="0.5" style="fill:rgb(0,0,0);font-family:PalatinoLinotype;font-size:5.4px;stroke:none;">2</text>
   <text y="1086.084" x="301.998,304.752,308.573,313.539,317.36,320.297,324.614,332.574,335.329,337.95,343.134,345.888,350.854,353.5,358.511,363.946,367.506,371.823,374.078,375.009,379.515,381.767,384.521,387.381,392.619,396.936,399.69,402.312,407.557,410.495,414.811,418.321,422.857,426.859,429.796,432.417,437.338,442.522,445.276,450.26,454.577,457.514,465.033,469.35,473.667,478.912,481.612,489.104" svgx:width="0.25,0.42,0.56,0.42,0.33,0.48,0.88,0.25,0.29,0.58,0.25,0.56,0.29,0.56,0.6,0.4,0.48,0.25,0.55,0.5,0.25,0.25,0.33,0.58,0.48,0.25,0.29,0.58,0.33,0.48,0.4,0.5,0.44,0.33,0.29,0.55,0.58,0.25,0.55,0.48,0.33,0.83,0.48,0.48,0.58,0.25,0.83,0.29" style="fill:rgb(0,0,0);font-family:PalatinoLinotype;font-size:9.02px;stroke:none;"> system in Figure 8, the interaction between Ni</text>
   <text y="1083.816" x="491.7,494.4" svgx:width="0.5,0.5" style="fill:rgb(0,0,0);font-family:PalatinoLinotype;font-size:5.4px;stroke:none;">2+</text>
   <text y="1086.084" x="497.1" svgx:width="0.25" style="fill:rgb(0,0,0);font-family:PalatinoLinotype;font-size:9.02px;stroke:none;"> </text>
   <text y="1098.234" x="99.12,103.633,108.885,114.399,116.721,121.459,126.711" svgx:width="0.5,0.58,0.61,0.25,0.52,0.58,0.79" style="fill:rgb(0,0,0);font-family:PalatinoLinotype;font-size:9.02px;stroke:none;">and SnO</text>
   <text y="1098.234" x="133.788" svgx:width="0.5" style="fill:rgb(0,0,0);font-family:PalatinoLinotype;font-size:5.4px;stroke:none;">2</text>
   <text y="1098.234" x="136.488,138.864,145.952,152.865,156.688,159.065,161.689,165.512,167.889,173.399,177.665,181.489,185.493,189.055,191.679,196.666,200.932,206.387,208.764,213.751,218.765,221.087,225.596,227.972,235.424" svgx:width="0.25,0.79,0.77,0.42,0.25,0.29,0.42,0.25,0.61,0.48,0.42,0.44,0.4,0.29,0.55,0.48,0.61,0.25,0.55,0.56,0.25,0.5,0.25,0.83,0.29" style="fill:rgb(0,0,0);font-family:PalatinoLinotype;font-size:9.02px;stroke:none;"> QDs is described by a Ni</text>
   <text y="1095.966" x="238.062,240.762" svgx:width="0.5,0.5" style="fill:rgb(0,0,0);font-family:PalatinoLinotype;font-size:5.4px;stroke:none;">2+</text>
   <text y="1098.234" x="243.462,245.784,248.407,253.329,258.575,260.897,265.215,270.462,273.4,277.718,281.278,283.901,289.147,294.159,296.482,300.989,303.311,308.044,313.29,315.612,320.706,325.213,329.215,333.722,338.969,342.913,347.925,350.301,355.223,360.47,362.846,365.706,370.944,375.262,377.638,384.725,391.703,394.079,397.901,403.337,406.897,409.898,414.405,418.349,422.667,424.92,427.296,430.333,433.271,435.647,438.27,442.092,444.468,449.48,454.727,459.649,467.168,472.352,474.728,477.666,482.913,487.42,490.358,492.734,497.162" svgx:width="0.25,0.29,0.55,0.58,0.25,0.48,0.58,0.33,0.48,0.4,0.29,0.58,0.56,0.25,0.5,0.25,0.52,0.58,0.25,0.56,0.5,0.44,0.5,0.58,0.44,0.56,0.25,0.55,0.58,0.25,0.33,0.58,0.48,0.25,0.79,0.77,0.25,0.42,0.6,0.4,0.33,0.5,0.44,0.48,0.25,0.25,0.34,0.33,0.25,0.29,0.42,0.25,0.56,0.58,0.55,0.83,0.58,0.25,0.33,0.58,0.5,0.33,0.25,0.5,0.25" style="fill:rgb(0,0,0);font-family:PalatinoLinotype;font-size:9.02px;stroke:none;"> ion entering a Sn vacancy on the QD surface. It is known that a </text>
  </g>
  <rect style="stroke:blue;stroke-width:0.3;" x="188.112" y="431.457" height="250.614" width="219.348" title="8"/>
  <text y="431.457" class="image" id="image.8.1" width="219" height="250" x="188.112">image.8.1.188_407.431_682</text>
  <rect style="stroke:blue;stroke-width:0.3;" x="188.112" y="431.457" height="250.614" width="219.348" title="8"/>
  <text y="431.457" class="image" id="image.8.2" width="219" height="250" x="188.112">image.8.2.188_407.431_682</text>
  <g begin="text">
   <text y="740.62" x="97.795,102.78,105.766,110.751,116.23,119.718,124.203,126.075,130.558" svgx:width="0.56,0.33,0.56,0.61,0.39,0.5,0.55,0.5,0.25" style="fill:rgb(0,0,0);font-family:URWPalladioL-Bold;font-size:8.97px;stroke:none;">Figure 8.</text>
   <text y="740.62" x="135.814,140.427,143.292,146.692,151.991,155.892,158.757,164.056,167.527,171.92,174.5213,176.349,184.108,188.905,194.274,198.483,201.0843,202.912,207.71,210.67010000000002,212.508,215.908,221.207,224.071,226.628,229.185,233.4906,235.266,239.879,244.993" svgx:width="0.52,0.33,0.4,0.6,0.44,0.33,0.6,0.4,0.5,0.29,0.55,0.88,0.55,0.61,0.48,0.29,0.55,0.55,0.33,0.55,0.4,0.6,0.33,0.29,0.29,0.48,0.55,0.52,0.58,0.79" style="fill:rgb(0,0,0);font-family:URWPalladioL-Roma;font-size:8.97px;stroke:none;">Structural model of rutile SnO</text>
   <text y="742.412" x="251.9" svgx:width="0.5" style="fill:rgb(0,0,0);font-family:URWPalladioL-Roma;font-size:6.97px;stroke:none;">2</text>
   <text y="740.62" x="257.758,261.484,266.369,270.095,272.96,277.169,286.799,294.128,296.685,299.549,304.7516,306.535,311.333,316.447,320.75260000000003,322.527,327.141,332.34360000000004,334.126,339.091,343.485,347.386,351.78,356.894,360.795,365.8182,367.561" svgx:width="0.42,0.56,0.42,0.33,0.48,0.88,0.83,0.29,0.33,0.58,0.55,0.55,0.58,0.48,0.55,0.52,0.58,0.55,0.56,0.5,0.44,0.5,0.58,0.44,0.56,0.55,0.33" style="fill:rgb(0,0,0);font-family:URWPalladioL-Roma;font-size:8.97px;stroke:none;">systemwith one Sn vacancy (</text>
   <text y="740.62" x="370.483" svgx:width="0.5" style="fill:rgb(0,0,0);font-family:URWPalladioL-Bold;font-size:8.97px;stroke:none;">a</text>
   <text y="740.62" x="374.966,377.9261,379.764,384.623,388.832,391.758,396.556,399.869,404.17460000000005,405.949,410.343,415.457,420.9287,422.697" svgx:width="0.33,0.55,0.55,0.48,0.33,0.55,0.4,0.48,0.55,0.5,0.58,0.61,0.55,0.33" style="fill:rgb(0,0,0);font-family:URWPalladioL-Roma;font-size:8.97px;stroke:none;">) before and (</text>
   <text y="740.62" x="425.623" svgx:width="0.61" style="fill:rgb(0,0,0);font-family:URWPalladioL-Bold;font-size:8.97px;stroke:none;">b</text>
   <text y="740.62" x="431.102,434.0621,435.9,440.293,443.219,446.084,450.293,453.88100000000003,455.635,458.193,463.307,466.171,470.38,473.851,478.245,482.146,485.011,487.568,492.365" svgx:width="0.33,0.55,0.5,0.33,0.33,0.48,0.4,0.55,0.29,0.58,0.33,0.48,0.4,0.5,0.44,0.33,0.29,0.55,0.58" style="fill:rgb(0,0,0);font-family:URWPalladioL-Roma;font-size:8.97px;stroke:none;">) after interaction</text>
   <text y="753.442" x="97.419,104.852,107.446,110.351,115.5536,117.766,122.954,127.223,131.679,136.715,141.7382,143.907,151.777,156.046,158.952,163.408,166.0093,168.23,170.823,175.689,180.877,184.656,186.8985,190.021,196.955,199.86,204.727,212.597,216.36440000000002,218.604,223.47,226.4301,228.675,232.944,237.4,241.358,246.5606,248.773,253.042,255.636,259.905,267.775,272.044,277.231,280.1911,282.373,286.83,290.181,294.4866,296.687,299.281,304.468,309.913,312.507,316.464,320.92,323.826,328.095,333.5667,335.769,340.697,345.7202,347.89,351.847,356.713,359.307,364.173,367.694,371.473,373.7155,376.829,381.784,385.305,389.761,394.7842,396.954,399.922,404.788,408.37600000000003,410.536,415.216,420.403,422.6455,424.868,428.228,432.497,437.9687,440.171,443.139,448.005,451.593,453.754,460.8403,462.996,467.452,472.639,478.1107,480.313,485.242,487.835,493.21" svgx:width="0.83,0.29,0.33,0.58,0.55,0.58,0.48,0.5,0.56,0.56,0.55,0.88,0.48,0.33,0.5,0.29,0.55,0.29,0.55,0.58,0.42,0.25,0.55,0.78,0.33,0.55,0.88,0.42,0.55,0.55,0.33,0.55,0.48,0.5,0.44,0.58,0.55,0.48,0.29,0.48,0.88,0.48,0.58,0.33,0.55,0.5,0.4,0.48,0.55,0.29,0.58,0.61,0.29,0.44,0.5,0.33,0.48,0.61,0.55,0.55,0.56,0.55,0.44,0.55,0.29,0.55,0.4,0.42,0.25,0.55,0.56,0.4,0.5,0.56,0.55,0.33,0.55,0.4,0.55,0.52,0.58,0.25,0.55,0.4,0.48,0.61,0.55,0.33,0.55,0.4,0.55,0.79,0.55,0.5,0.58,0.61,0.55,0.55,0.29,0.6,0.48" style="fill:rgb(0,0,0);font-family:URWPalladioL-Roma;font-size:8.97px;stroke:none;">with heavy metal ions. Atoms of each element are indicated by colors: gray for Sn, red for O and blue</text>
   <text y="766.264" x="97.795,100.781,105.676,109.264,111.46,116.678,120.973,125.456,130.522,135.5452,137.749,145.667,149.962,152.885,157.368,159.9693,162.219,164.828,169.723,174.942,178.744" svgx:width="0.33,0.55,0.4,0.55,0.58,0.48,0.5,0.56,0.56,0.55,0.88,0.48,0.33,0.5,0.29,0.55,0.29,0.55,0.58,0.42,0.25" style="fill:rgb(0,0,0);font-family:URWPalladioL-Roma;font-size:8.97px;stroke:none;">for heavy metal ions.</text>
  </g>
 </g>
</svg>
