<?xml version="1.0" encoding="UTF-8"?>
<svg height="763.581" width="530.495" xmlns="http://www.w3.org/2000/svg">
 <g id="page" xmlns:svgx="http://www.xml-cml.org/schema/svgx">
  <g begin="text">
   <text y="62.979" x="76.535,84.059,87.598,90.252,93.352,96.452,98.668,102.207,104.422" svgx:width="0.94,0.44,0.33,0.39,0.39,0.28,0.44,0.28,0.39" style="fill:rgb(0,0,0);font-family:URWPalladioL-Ital;font-size:7.97px;stroke:none;">Materials</text>
   <text y="62.979" x="109.515,113.5,117.485,121.47" svgx:width="0.5,0.5,0.5,0.5" style="fill:rgb(0,0,0);font-family:URWPalladioL-Bold;font-size:7.97px;stroke:none;">2019</text>
   <text y="62.979" x="125.455" svgx:width="0.25" style="fill:rgb(0,0,0);font-family:URWPalladioL-Roma;font-size:7.97px;stroke:none;">,</text>
   <text y="62.979" x="129.44,133.425" svgx:width="0.5,0.5" style="fill:rgb(0,0,0);font-family:URWPalladioL-Ital;font-size:7.97px;stroke:none;">12</text>
   <text y="62.979" x="137.41,139.4025,141.395,145.38,149.365,153.35,157.335,491.809,495.794,499.779,501.772,506.123,508.7531,510.77,514.755" svgx:width="0.25,0.55,0.5,0.5,0.5,0.5,0.55,0.5,0.5,0.55,0.55,0.33,0.55,0.5,0.5" style="fill:rgb(0,0,0);font-family:URWPalladioL-Roma;font-size:7.97px;stroke:none;">, 2049 11 of 13</text>
   <text y="97.848" x="76.535,79.848,85.762,90.5428,93.576,96.534,100.842,106.391,109.703,113.534,119.083,125.19,128.147,132.52939999999998,135.606,141.815" svgx:width="0.33,0.58,0.48,0.55,0.29,0.42,0.55,0.33,0.4,0.55,0.6,0.29,0.44,0.55,0.61,0.29" style="fill:rgb(0,0,0);font-family:URWPalladioL-Roma;font-size:9.96px;stroke:none;">the isotropic Bi</text>
   <text y="99.713" x="144.767" svgx:width="0.5" style="fill:rgb(0,0,0);font-family:URWPalladioL-Roma;font-size:7.57px;stroke:none;">2</text>
   <text y="97.848" x="149.051,154.366" svgx:width="0.61,0.48" style="fill:rgb(0,0,0);font-family:URWPalladioL-Roma;font-size:9.96px;stroke:none;">Te</text>
   <text y="99.713" x="159.231" svgx:width="0.5" style="fill:rgb(0,0,0);font-family:URWPalladioL-Roma;font-size:7.57px;stroke:none;">3</text>
   <text y="97.848" x="166.459,172.566,178.115,181.072,186.722,191.234,195.248,200.898,205.206,208.519,213.6,216.557,219.047,223.945,229.595,235.143,239.127,242.094,245.406,251.321,256.1018,259.135,264.47,270.384,275.719" svgx:width="0.6,0.55,0.29,0.56,0.44,0.4,0.56,0.42,0.33,0.5,0.29,0.25,0.55,0.56,0.55,0.4,0.55,0.33,0.58,0.48,0.55,0.52,0.58,0.52,0.48" style="fill:rgb(0,0,0);font-family:URWPalladioL-Roma;font-size:9.96px;stroke:none;">polycrystal. For the SnSe</text>
   <text y="97.848" x="280.585" svgx:width="0.29" style="fill:rgb(0,0,0);font-family:Rpxr;font-size:9.96px;stroke:none;">/</text>
   <text y="97.848" x="283.502,290.707,296.255,302.362,308.47,313.337,317.32099999999997,320.298,324.81,330.358,339.331,345.439,350.987,355.296,358.253,361.565,366.3458,369.37,374.451,377.73780000000005,380.71,385.791,390.872,395.85200000000003,398.89,406.267,408.757,411.755,415.068,420.982,425.7628,428.796,431.753,440.726,446.833,450.664,456.213,461.954,466.822,475.795,480.662,486.576,489.86280000000005,492.836,495.793,501.5698,504.644,507.957,513.871" svgx:width="0.71,0.55,0.6,0.6,0.48,0.4,0.55,0.44,0.55,0.88,0.6,0.55,0.42,0.29,0.33,0.48,0.55,0.5,0.33,0.55,0.5,0.5,0.5,0.55,0.73,0.25,0.55,0.33,0.58,0.48,0.55,0.29,0.88,0.6,0.4,0.55,0.56,0.48,0.88,0.48,0.58,0.33,0.55,0.29,0.58,0.55,0.33,0.58,0.48" style="fill:rgb(0,0,0);font-family:URWPalladioL-Roma;font-size:9.96px;stroke:none;">Copper composite at 700 K, the improvement in the</text>
   <text y="111.358" x="76.535,85.508,90.589,95.832,98.789,107.762,113.89,122.6548,126.409" svgx:width="0.88,0.5,0.52,0.29,0.88,0.6,0.88,0.55,0.67" style="fill:rgb(0,0,0);font-family:URWPalladioL-Roma;font-size:9.96px;stroke:none;">maximum Z</text>
   <text y="112.852" x="133.189,135.657,138.648,142.434,146.841" svgx:width="0.33,0.4,0.5,0.58,0.42" style="fill:rgb(0,0,0);font-family:URWPalladioL-Roma;font-size:7.57px;stroke:none;">trans</text>
   <text y="111.358" x="150.549,156.62460000000002,160.325,165.406,171.32" svgx:width="0.61,0.55,0.5,0.58,0.61" style="fill:rgb(0,0,0);font-family:URWPalladioL-Roma;font-size:9.96px;stroke:none;">T and</text>
   <text y="111.358" x="181.201" svgx:width="0.68" style="fill:rgb(0,0,0);font-family:PazoMath;font-size:9.96px;stroke:none;">∆</text>
   <text y="111.358" x="188.06" svgx:width="0.61" style="fill:rgb(0,0,0);font-family:URWPalladioL-Roma;font-size:9.96px;stroke:none;">T</text>
   <text y="112.852" x="194.289,200.975,204.761" svgx:width="0.88,0.5,0.52" style="fill:rgb(0,0,0);font-family:URWPalladioL-Roma;font-size:7.57px;stroke:none;">max</text>
   <text y="111.358" x="212.714,216.098,221.646,225.63,229.207,233.719,239.267,248.24,254.347,259.895,264.204,267.161,270.474,275.2548,278.888,287.363,290.32,293.633,299.40979999999996,303.093,308.428,314.343,319.678,324.4588,328.092,332.4,335.357,341.271,346.921,349.879,354.6598,358.303,362.815,366.829,372.479,376.787,380.1,385.181,388.0694,391.684,396.196,401.745,410.718,416.825,422.373,428.287,433.155,439.069,442.35580000000004,445.928,454.403,459.484,463.6672,467.339,472.42,476.6032,480.275,489.248,495.376,499.888,505.66479999999996,509.348,514.429" svgx:width="0.33,0.55,0.4,0.55,0.44,0.55,0.88,0.6,0.55,0.42,0.29,0.33,0.48,0.55,0.83,0.29,0.33,0.58,0.55,0.52,0.58,0.52,0.48,0.55,0.42,0.29,0.58,0.56,0.29,0.48,0.55,0.44,0.4,0.56,0.42,0.33,0.5,0.29,0.55,0.44,0.55,0.88,0.6,0.55,0.58,0.48,0.58,0.33,0.55,0.83,0.5,0.42,0.55,0.5,0.42,0.55,0.88,0.6,0.44,0.58,0.55,0.5,0.42" style="fill:rgb(0,0,0);font-family:URWPalladioL-Roma;font-size:9.96px;stroke:none;">for composite with SnSe single crystal component was as much as</text>
   <text y="124.867" x="76.535,81.616,86.697,95.0634,97.936,102.448,107.996,116.969,123.076,128.157,131.988,136.856,142.9316,145.758,149.07,154.548,157.322,161.834,167.382,176.355,182.462,188.011,192.319,195.276,198.589,203.3698,206.149,214.624,217.581,220.894,226.6708,229.511,232.469,236.777,242.326,245.638,249.469,255.018,261.125,264.082,268.4644,271.297,276.632,282.546,287.881,292.66179999999997,295.442,301.549,307.097,310.054,315.704,320.216,324.23,329.88,334.189,337.501,342.582,345.4704,348.243,352.754,358.303,367.276,373.383,378.931,384.846,389.713,395.627,398.94,403.249,405.73900000000003,409.895,415.545,421.093,425.077,427.81,431.123,437.037,441.8178,444.597,448.022" svgx:width="0.5,0.5,0.84,0.55,0.44,0.55,0.88,0.6,0.5,0.4,0.48,0.61,0.55,0.33,0.55,0.55,0.44,0.55,0.88,0.6,0.55,0.42,0.29,0.33,0.48,0.55,0.83,0.29,0.33,0.58,0.55,0.29,0.42,0.55,0.33,0.4,0.55,0.6,0.29,0.44,0.55,0.52,0.58,0.52,0.48,0.55,0.6,0.55,0.29,0.56,0.44,0.4,0.56,0.42,0.33,0.5,0.29,0.55,0.44,0.55,0.88,0.6,0.55,0.58,0.48,0.58,0.33,0.42,0.25,0.55,0.56,0.55,0.4,0.55,0.33,0.58,0.48,0.55,0.34,0.58" style="fill:rgb(0,0,0);font-family:URWPalladioL-Roma;font-size:9.96px;stroke:none;">51% compared to composite with isotropic SnSe polycrystal components. For the In</text>
   <text y="126.732" x="453.939" svgx:width="0.5" style="fill:rgb(0,0,0);font-family:URWPalladioL-Roma;font-size:7.57px;stroke:none;">4</text>
   <text y="124.867" x="458.223,463.558" svgx:width="0.52,0.48" style="fill:rgb(0,0,0);font-family:URWPalladioL-Roma;font-size:9.96px;stroke:none;">Se</text>
   <text y="126.732" x="468.426,472.212,474.105,477.891" svgx:width="0.5,0.25,0.5,0.5" style="fill:rgb(0,0,0);font-family:URWPalladioL-Roma;font-size:7.57px;stroke:none;">2.25</text>
   <text y="124.867" x="482.174" svgx:width="0.29" style="fill:rgb(0,0,0);font-family:Rpxr;font-size:9.96px;stroke:none;">/</text>
   <text y="124.867" x="485.091,492.296,497.844,503.951,510.059,514.926" svgx:width="0.71,0.55,0.6,0.6,0.48,0.4" style="fill:rgb(0,0,0);font-family:URWPalladioL-Roma;font-size:9.96px;stroke:none;">Copper</text>
   <text y="138.377" x="76.535,81.047,86.595,95.568,101.675,107.224,111.532,114.49,117.802,122.67,125.16,128.086,131.399,137.313,142.0938,144.985,149.294,152.251,158.165,163.815,166.772,171.64,175.024,179.536,183.549,189.199,193.508,196.821,201.902,204.79039999999998,207.653,211.037,216.586,220.6,229.3648,232.377,237.926,241.2128,244.114,247.539" svgx:width="0.44,0.55,0.88,0.6,0.55,0.42,0.29,0.33,0.48,0.25,0.55,0.33,0.58,0.48,0.55,0.42,0.29,0.58,0.56,0.29,0.48,0.33,0.44,0.4,0.56,0.42,0.33,0.5,0.29,0.55,0.33,0.55,0.4,0.88,0.55,0.55,0.33,0.55,0.34,0.58" style="fill:rgb(0,0,0);font-family:URWPalladioL-Roma;font-size:9.96px;stroke:none;">composite, the single-crystal form of In</text>
   <text y="140.241" x="253.45" svgx:width="0.5" style="fill:rgb(0,0,0);font-family:URWPalladioL-Roma;font-size:7.57px;stroke:none;">4</text>
   <text y="138.377" x="257.734,263.069" svgx:width="0.52,0.48" style="fill:rgb(0,0,0);font-family:URWPalladioL-Roma;font-size:9.96px;stroke:none;">Se</text>
   <text y="140.241" x="267.936,271.722,273.615,277.401" svgx:width="0.5,0.25,0.5,0.5" style="fill:rgb(0,0,0);font-family:URWPalladioL-Roma;font-size:7.57px;stroke:none;">2.25</text>
   <text y="138.377" x="284.486,290.4,295.481,301.5566,304.495,309.576,315.49,318.447,322.755,328.304,331.617,335.448,340.996,347.103,350.06,354.4424,357.377,362.712,367.579,372.447,378.066,382.934,387.446,393.02360000000004,395.89,401.998,405.839,411.387,417.494,422.362,426.366,429.678,432.635,437.503,441.812,444.302,447.238,452.858,458.985,462.27180000000004,465.092,468.405,474.319,479.187,483.028,487.8088,490.69,495.771,499.612,504.3928,507.274,513.188" svgx:width="0.58,0.5,0.61,0.55,0.5,0.58,0.29,0.42,0.55,0.33,0.4,0.55,0.6,0.29,0.44,0.55,0.52,0.48,0.48,0.55,0.48,0.44,0.56,0.55,0.6,0.4,0.55,0.6,0.48,0.4,0.33,0.29,0.48,0.42,0.25,0.55,0.55,0.6,0.33,0.55,0.33,0.58,0.48,0.4,0.48,0.55,0.5,0.4,0.48,0.55,0.58,0.55" style="fill:rgb(0,0,0);font-family:URWPalladioL-Roma;font-size:9.96px;stroke:none;">had anisotropic Seebeck properties, but there are no</text>
   <text y="151.886" x="76.535,81.283,86.398,89.283,93.486,96.717,99.602,105.371,110.9486,113.391,117.594,120.825,126.803,132.859,135.744,140.492,144.6752,147.193,150.93,155.679,161.19,166.147,169.884,175.94,178.825,184.594,190.17159999999998,192.614,195.845,201.615,206.3958,208.861" svgx:width="0.48,0.52,0.29,0.42,0.33,0.29,0.58,0.56,0.55,0.42,0.33,0.6,0.61,0.29,0.48,0.42,0.55,0.4,0.48,0.56,0.5,0.4,0.61,0.29,0.58,0.56,0.55,0.33,0.58,0.48,0.55,0.48" style="fill:rgb(0,0,0);font-family:URWPalladioL-Roma;font-size:9.96px;stroke:none;">existing studies regarding the e</text>
   <text y="151.886" x="213.613" svgx:width="0.61" style="fill:rgb(0,0,0);font-family:Rpxr;font-size:9.96px;stroke:none;">ﬀ</text>
   <text y="151.886" x="219.64,224.388,228.79,232.021,234.906,240.506,245.2868,247.763,253.72,257.457,262.87,268.817,273.566,277.481,280.713,283.597,288.346,292.5292,295.056,300.469,303.7558,306.278,312.235,317.648,320.532,326.044,330.445,334.361,339.872,344.075,347.307,352.263,355.148,359.3312,361.849,370.116,373.001,376.232,382.0088,384.509,389.466,395.235,398.12,402.323,407.735,410.967,414.704,420.116,426.074,428.958,433.34040000000005,435.868,441.072,445.82,450.568,456.05,460.798,465.2,470.7776,473.209,479.167,482.904,488.316,494.274,499.022,502.938,506.169,509.054,513.802,518.005" svgx:width="0.48,0.44,0.33,0.29,0.56,0.48,0.55,0.6,0.4,0.55,0.6,0.48,0.4,0.33,0.29,0.48,0.42,0.55,0.55,0.33,0.55,0.6,0.55,0.29,0.56,0.44,0.4,0.56,0.42,0.33,0.5,0.29,0.42,0.55,0.83,0.29,0.33,0.58,0.55,0.5,0.58,0.29,0.42,0.55,0.33,0.4,0.55,0.6,0.29,0.44,0.55,0.52,0.48,0.48,0.55,0.48,0.44,0.56,0.55,0.6,0.4,0.55,0.6,0.48,0.4,0.33,0.29,0.48,0.42,0.25" style="fill:rgb(0,0,0);font-family:URWPalladioL-Roma;font-size:9.96px;stroke:none;">ective properties of polycrystals with anisotropic Seebeck properties.</text>
   <text y="165.395" x="76.226,82.4,88.262,93.087,96.884,101.709,105.063,110.562,114.359,119.184,121.67399999999999,124.2,127.483,133.345,138.1258,140.668,145.14,150.639,159.533,165.586,170.623,174.601,177.532,181.803,187.302,193.0788,195.652,201.151,206.92780000000002,209.511,212.795,218.657,223.4378,225.969,230.441,235.941,241.44,244.371,247.302,253.164,258.7416,261.262,267.316,272.14,276.119,279.473,284.972,288.951,297.844,302.88,308.742,313.215,318.039,322.2222,324.808,328.162,333.661,337.645,340.127,343.411,349.273,354.0538,356.595,359.99" svgx:width="0.61,0.58,0.48,0.4,0.48,0.33,0.55,0.4,0.48,0.25,0.55,0.33,0.58,0.48,0.55,0.44,0.55,0.88,0.6,0.5,0.4,0.29,0.42,0.55,0.58,0.55,0.55,0.58,0.55,0.33,0.58,0.48,0.55,0.44,0.55,0.55,0.29,0.29,0.58,0.56,0.55,0.6,0.48,0.4,0.33,0.55,0.4,0.88,0.5,0.58,0.44,0.48,0.42,0.55,0.33,0.55,0.4,0.55,0.33,0.58,0.48,0.55,0.34,0.58" style="fill:rgb(0,0,0);font-family:URWPalladioL-Roma;font-size:9.96px;stroke:none;">Therefore, the comparison on the cooling performances for the In</text>
   <text y="167.26" x="365.85" svgx:width="0.5" style="fill:rgb(0,0,0);font-family:URWPalladioL-Roma;font-size:7.57px;stroke:none;">4</text>
   <text y="165.395" x="370.134,375.422" svgx:width="0.52,0.48" style="fill:rgb(0,0,0);font-family:URWPalladioL-Roma;font-size:9.96px;stroke:none;">Se</text>
   <text y="167.26" x="380.247,384.033,385.926,389.712" svgx:width="0.5,0.25,0.5,0.5" style="fill:rgb(0,0,0);font-family:URWPalladioL-Roma;font-size:7.57px;stroke:none;">2.25</text>
   <text y="165.395" x="393.995" svgx:width="0.29" style="fill:rgb(0,0,0);font-family:Rpxr;font-size:9.96px;stroke:none;">/</text>
   <text y="165.395" x="396.886,404.027,409.527,415.58,421.633,426.458,430.442,432.934,437.406,442.906,451.8,457.853,463.352,467.623,470.554,473.837,478.6178,481.15,486.72,491.544,494.828,503.228,508.053,512.877" svgx:width="0.71,0.55,0.6,0.6,0.48,0.4,0.55,0.44,0.55,0.88,0.6,0.55,0.42,0.29,0.33,0.48,0.55,0.55,0.48,0.33,0.83,0.48,0.48,0.58" style="fill:rgb(0,0,0);font-family:URWPalladioL-Roma;font-size:9.96px;stroke:none;">Copper composite between</text>
   <text y="178.905" x="76.535,80.958,86.398,95.195,101.182,106.622,110.846,113.745,116.993,121.765,125.9482,128.48,136.789,139.688,142.936,148.71280000000002,151.225,154.124,158.348,163.787,167.035,170.791,176.231,182.218,185.117,189.49939999999998,192.031,197.013,202.811,208.88660000000002,211.389,216.37,222.168,225.067,229.291,234.731,237.979,241.735,247.174,253.162,256.061,260.4434,262.975,266.332" svgx:width="0.44,0.55,0.88,0.6,0.55,0.42,0.29,0.33,0.48,0.42,0.55,0.83,0.29,0.33,0.58,0.55,0.29,0.42,0.55,0.33,0.4,0.55,0.6,0.29,0.44,0.55,0.5,0.58,0.61,0.55,0.5,0.58,0.29,0.42,0.55,0.33,0.4,0.55,0.6,0.29,0.44,0.55,0.34,0.58" style="fill:rgb(0,0,0);font-family:URWPalladioL-Roma;font-size:9.96px;stroke:none;">composites with isotropic and anisotropic In</text>
   <text y="180.77" x="272.129" svgx:width="0.5" style="fill:rgb(0,0,0);font-family:URWPalladioL-Roma;font-size:7.57px;stroke:none;">4</text>
   <text y="178.905" x="276.413,281.643" svgx:width="0.52,0.48" style="fill:rgb(0,0,0);font-family:URWPalladioL-Roma;font-size:9.96px;stroke:none;">Se</text>
   <text y="180.77" x="286.416,290.202,292.095,295.88" svgx:width="0.5,0.25,0.5,0.5" style="fill:rgb(0,0,0);font-family:URWPalladioL-Roma;font-size:7.57px;stroke:none;">2.25</text>
   <text y="178.905" x="302.655,308.643,314.441,319.422,323.646,328.4268,330.909,336.896,340.652,346.092,352.079,356.852,360.787,364.035,366.934,371.706,375.8892,378.421,386.729,391.711,395.8942,398.426,404.224,409.663,412.94980000000004,415.402,421.389,425.145,429.917,434.141,438.914,444.712,447.96,452.732,458.819" svgx:width="0.6,0.58,0.5,0.42,0.48,0.55,0.6,0.4,0.55,0.6,0.48,0.4,0.33,0.29,0.48,0.42,0.55,0.83,0.5,0.42,0.55,0.58,0.55,0.33,0.55,0.6,0.4,0.48,0.42,0.48,0.58,0.33,0.48,0.61,0.25" style="fill:rgb(0,0,0);font-family:URWPalladioL-Roma;font-size:9.96px;stroke:none;">phase properties was not presented.</text>
   <text y="202.118" x="76.535,81.516,84.006,87.494,94.687,100.226,106.313,110.737,114.054,120.141,124.565,127.882,133.421,139.509" svgx:width="0.5,0.25,0.55,0.72,0.56,0.61,0.44,0.33,0.61,0.44,0.33,0.56,0.61,0.44" style="fill:rgb(0,0,0);font-family:URWPalladioL-Bold;font-size:9.96px;stroke:none;">5. Conclusions</text>
   <text y="221.605" x="97.795,104.024,109.938,112.896,117.0792,121.005,125.313,128.626,134.754,140.963,146.54059999999998,150.423,153.38,159.295,165.036,169.903,174.212,177.525,180.482,186.132,191.213,194.526,199.393,205.4686,209.403,212.715,218.63,223.4108,227.308,230.621,234.634,239.715,245.63,249.938,255.68,260.547,264.561,268.87,273.6508,277.538,280.851,286.765,291.632,295.646,304.619,310.168,315.035,317.992,322.86,327.372,330.684,334.698,337.655,342.0374,345.978,352.085,355.916,361.465,367.572,372.439,376.453,379.766,382.723,387.591,391.7742,395.7,401.248,404.5348,408.443,414.591,420.21,424.041,429.59,435.717,439.9002,443.837,448.348,453.897,462.87,468.977,474.525,478.834,481.791,485.104,489.971,494.1542,498.081,506.555,509.513,512.825" svgx:width="0.61,0.58,0.29,0.42,0.55,0.42,0.33,0.6,0.61,0.56,0.55,0.29,0.58,0.56,0.48,0.42,0.33,0.29,0.56,0.5,0.33,0.48,0.61,0.55,0.33,0.58,0.48,0.55,0.33,0.4,0.5,0.58,0.42,0.56,0.48,0.4,0.42,0.48,0.55,0.33,0.58,0.48,0.4,0.88,0.55,0.48,0.29,0.48,0.44,0.33,0.4,0.29,0.44,0.55,0.6,0.4,0.55,0.6,0.48,0.4,0.33,0.29,0.48,0.42,0.55,0.55,0.33,0.55,0.61,0.55,0.4,0.55,0.6,0.42,0.55,0.44,0.55,0.88,0.6,0.55,0.42,0.29,0.33,0.48,0.42,0.55,0.83,0.29,0.33,0.58" style="fill:rgb(0,0,0);font-family:URWPalladioL-Roma;font-size:9.96px;stroke:none;">This study investigated the transverse thermoelectric properties of ﬁbrous composites with</text>
   <text y="235.114" x="76.535,81.616,87.53,90.487,94.796,100.344,103.657,107.488,113.036,119.144,122.101,126.4834,130.098,134.61,140.158,149.131,155.239,160.787,166.701,171.569,177.483,180.7698,184.271,193.244,198.325,201.638,206.505,210.519,213.476,218.557,221.514,225.823,228.31300000000002,234.806,242.5748,246.187,255.16,260.241,263.554,269.468,274.335,283.308,288.389,291.702,294.659,299.171,304.252,307.1404,310.695,319.667,325.216,331.425,336.292,339.18039999999996,342.725,351.2,356.281,360.4642,364.065,369.684,375.812,378.769,381.726,385.0128,388.514,391.898,397.446,401.43,404.936,411.043,414.884,419.752,425.96,428.918,433.429,436.742,439.699,445.613,451.1906,454.739,458.052,463.966,468.7468,472.309,475.621,479.635,484.716,490.63,494.939,500.681,505.548,509.562,513.871" svgx:width="0.5,0.58,0.29,0.42,0.55,0.33,0.4,0.55,0.6,0.29,0.44,0.55,0.44,0.55,0.88,0.6,0.55,0.58,0.48,0.58,0.33,0.55,0.88,0.5,0.33,0.48,0.4,0.29,0.5,0.29,0.42,0.25,0.55,0.78,0.55,0.88,0.5,0.33,0.58,0.48,0.88,0.5,0.33,0.29,0.44,0.5,0.29,0.55,0.88,0.55,0.61,0.48,0.29,0.55,0.83,0.5,0.42,0.55,0.55,0.6,0.29,0.29,0.33,0.55,0.33,0.55,0.4,0.55,0.6,0.4,0.48,0.61,0.29,0.44,0.33,0.29,0.58,0.56,0.55,0.33,0.58,0.48,0.55,0.33,0.4,0.5,0.58,0.42,0.56,0.48,0.4,0.42,0.48" style="fill:rgb(0,0,0);font-family:URWPalladioL-Roma;font-size:9.96px;stroke:none;">anisotropic component materials. A mathematical model was built for predicting the transverse</text>
   <text y="248.624" x="76.535,79.848,85.762,90.63,94.643,103.616,109.165,114.032,116.989,121.857,126.369,129.682,133.695,136.653,141.03539999999998,144.67,150.818,156.468,162.596,166.437,171.2178,174.81,180.359,183.6458,187.248,196.221,201.089,205.103,208.06,211.3468,214.889,218.273" svgx:width="0.33,0.58,0.48,0.4,0.88,0.55,0.48,0.29,0.48,0.44,0.33,0.4,0.29,0.44,0.55,0.61,0.56,0.6,0.4,0.48,0.55,0.55,0.33,0.55,0.88,0.48,0.4,0.29,0.33,0.55,0.33,0.67" style="fill:rgb(0,0,0);font-family:URWPalladioL-Roma;font-size:9.96px;stroke:none;">thermoelectric ﬁgure of merit (Z</text>
   <text y="250.118" x="225.047,227.515,230.506,234.292,238.699" svgx:width="0.33,0.4,0.5,0.58,0.42" style="fill:rgb(0,0,0);font-family:URWPalladioL-Roma;font-size:7.57px;stroke:none;">trans</text>
   <text y="248.624" x="242.407,248.636,251.9228,255.526,260.607,266.521,272.5966,276.246,285.219,290.3,295.543,298.5,307.473,313.601,322.3658,326.08,330.592,336.14,341.688,344.645,347.602,353.517,359.0946,362.672,367.184,372.265,378.373,383.453,387.965,390.922,394.235,399.81260000000003,403.401" svgx:width="0.61,0.33,0.55,0.5,0.58,0.61,0.55,0.88,0.5,0.52,0.29,0.88,0.6,0.88,0.55,0.44,0.55,0.55,0.29,0.29,0.58,0.56,0.55,0.44,0.5,0.6,0.5,0.44,0.29,0.33,0.56,0.55,0.33" style="fill:rgb(0,0,0);font-family:URWPalladioL-Roma;font-size:9.96px;stroke:none;">T) and maximum cooling capacity (</text>
   <text y="248.624" x="406.905" svgx:width="0.68" style="fill:rgb(0,0,0);font-family:PazoMath;font-size:9.96px;stroke:none;">∆</text>
   <text y="248.624" x="413.765" svgx:width="0.61" style="fill:rgb(0,0,0);font-family:URWPalladioL-Roma;font-size:9.96px;stroke:none;">T</text>
   <text y="250.118" x="419.994,426.68,430.466" svgx:width="0.88,0.5,0.52" style="fill:rgb(0,0,0);font-family:URWPalladioL-Roma;font-size:7.57px;stroke:none;">max</text>
   <text y="248.624" x="434.87,438.15680000000003,441.76,447.308,450.5948,454.208,457.521,463.435,468.2158,471.808,476.32,481.869,490.841,496.949,502.497,506.806,509.763,513.076,517.943" svgx:width="0.33,0.55,0.55,0.33,0.55,0.33,0.58,0.48,0.55,0.44,0.55,0.88,0.6,0.55,0.42,0.29,0.33,0.48,0.25" style="fill:rgb(0,0,0);font-family:URWPalladioL-Roma;font-size:9.96px;stroke:none;">) of the composite.</text>
   <text y="262.133" x="76.226,82.211,87.893,92.6738,94.845" svgx:width="0.61,0.58,0.48,0.55,0.48" style="fill:rgb(0,0,0);font-family:URWPalladioL-Roma;font-size:9.96px;stroke:none;">The e</text>
   <text y="262.133" x="99.525" svgx:width="0.61" style="fill:rgb(0,0,0);font-family:Rpxr;font-size:9.96px;stroke:none;">ﬀ</text>
   <text y="262.133" x="105.461,110.138,114.473,117.655,120.497,126.013,130.689,136.372,141.048,145.188,149.3712,151.603,156.933,160.2198,162.469,165.652,171.334,176.1148,178.286,186.907,191.789,194.971,200.654,205.33,213.951,218.833,222.016,224.857,229.192,234.074,236.9624,239.19,247.811,253.141,259.107,263.783,266.6714,268.899,277.042,281.924,286.1072,288.348,293.864,298.541,302.397,305.239,311.145,315.822,321.8976,324.062,329.461,335.03860000000003,337.165,343.072,348.754,351.595,354.778,359.5588,361.739,366.416,369.257,373.934,382.555,387.231,392.914,396.2008,398.371,402.511,405.352,413.973,419.86,422.701,427.583,430.766,433.607,438.938,444.62,448.76,451.25,454.618,460.603,466.285,471.0658,473.237,478.118,483.547,487.227,491.904,496.581,505.202,509.878,515.561" svgx:width="0.48,0.44,0.33,0.29,0.56,0.48,0.58,0.48,0.42,0.42,0.55,0.55,0.33,0.55,0.33,0.58,0.48,0.55,0.88,0.5,0.33,0.58,0.48,0.88,0.5,0.33,0.29,0.44,0.5,0.29,0.55,0.88,0.55,0.61,0.48,0.29,0.55,0.83,0.5,0.42,0.55,0.56,0.48,0.4,0.29,0.61,0.48,0.61,0.55,0.55,0.56,0.55,0.61,0.58,0.29,0.33,0.48,0.55,0.48,0.29,0.48,0.88,0.48,0.58,0.33,0.55,0.42,0.29,0.88,0.6,0.29,0.5,0.33,0.29,0.55,0.58,0.42,0.25,0.55,0.61,0.58,0.48,0.55,0.5,0.56,0.4,0.48,0.48,0.88,0.48,0.58,0.33" style="fill:rgb(0,0,0);font-family:URWPalladioL-Roma;font-size:9.96px;stroke:none;">ectiveness of the mathematical model was veriﬁed by ﬁnite element simulations. The agreement</text>
   <text y="275.642" x="76.535,81.616,90.589,96.137,102.051,107.6286,110.323,113.636,119.55,124.3308,127.039,130.352,138.827,144.305,147.007,152.088,158.196,164.303,168.134,173.682,178.763,183.275,189.189,194.057,198.2402,200.987,203.944,209.859,216.067,219.024,223.536,228.617,231.93,236.798,242.8736,245.638,248.951,254.855,259.936,263.2228,265.881,269.194,275.108,279.8888,282.597,291.57,296.651,299.964,305.878,310.745,319.718,324.799,328.112,331.069,335.581,340.662,343.55039999999997,346.241,355.214,360.762,366.971,371.838,374.7264,377.417,381.929,387.01,392.78679999999997,395.556,399.865,404.732,408.746,414.488,419.2688,421.977,427.058,431.2412,433.988,439.069,444.8458,447.605" svgx:width="0.5,0.88,0.55,0.58,0.56,0.55,0.33,0.58,0.48,0.55,0.33,0.83,0.55,0.55,0.5,0.6,0.6,0.4,0.55,0.5,0.44,0.58,0.48,0.42,0.55,0.29,0.58,0.61,0.29,0.44,0.5,0.33,0.48,0.61,0.55,0.33,0.58,0.5,0.33,0.55,0.33,0.58,0.48,0.55,0.88,0.5,0.33,0.58,0.48,0.88,0.5,0.33,0.29,0.44,0.5,0.29,0.55,0.88,0.55,0.61,0.48,0.29,0.55,0.44,0.5,0.58,0.55,0.42,0.48,0.4,0.56,0.48,0.55,0.5,0.42,0.55,0.5,0.58,0.55,0.48" style="fill:rgb(0,0,0);font-family:URWPalladioL-Roma;font-size:9.96px;stroke:none;">among the two approaches indicated that the mathematical model can serve as an e</text>
   <text y="275.642" x="452.477" svgx:width="0.92" style="fill:rgb(0,0,0);font-family:Rpxr;font-size:9.96px;stroke:none;">ﬃ</text>
   <text y="275.642" x="461.815,466.327,469.284,474.151,480.066,483.3528,486.0,489.313,494.861,500.41,503.2984,505.989,509.372,514.921" svgx:width="0.44,0.29,0.48,0.58,0.33,0.55,0.33,0.55,0.55,0.29,0.55,0.33,0.55,0.4" style="fill:rgb(0,0,0);font-family:URWPalladioL-Roma;font-size:9.96px;stroke:none;">cient tool for</text>
   <text y="289.152" x="76.535,80.738,85.486,88.371,93.119,97.52,100.752,103.637,109.406,114.98360000000001,117.425,122.382,128.151,134.22660000000002,136.716,140.919,145.32,149.057,153.805,158.553,164.323,167.197,172.967,178.5446,180.986,186.944,190.681,196.093,200.296,206.254,211.002,215.403,218.635,221.519,227.289,232.86659999999998,235.308,239.709,244.666,250.435,256.492,259.376,265.433,270.389,273.621,278.369,282.5522,285.08,288.381,293.794,297.77799999999996,300.217,306.214,311.696,315.423,320.836,326.813,330.9962,333.524,336.756,340.671,345.628,351.397,355.6,361.201,365.949,369.864,374.067,378.8478,381.324,384.555,390.324,395.073,398.988,407.741,413.154,417.902,420.786,425.535,429.936,433.167,437.083,439.968,444.35040000000004,446.877,451.278,456.69,465.443,471.401,476.813,481.016,483.901,487.133,491.881,496.06419999999997,498.592,506.859,509.744,512.975" svgx:width="0.42,0.48,0.29,0.48,0.44,0.33,0.29,0.58,0.56,0.55,0.5,0.58,0.61,0.55,0.42,0.44,0.4,0.48,0.48,0.58,0.29,0.58,0.56,0.55,0.6,0.4,0.55,0.42,0.6,0.48,0.44,0.33,0.29,0.58,0.56,0.55,0.44,0.5,0.58,0.61,0.29,0.61,0.5,0.33,0.48,0.42,0.55,0.33,0.55,0.4,0.55,0.61,0.55,0.4,0.55,0.6,0.42,0.55,0.33,0.4,0.5,0.58,0.42,0.56,0.48,0.4,0.42,0.48,0.55,0.33,0.58,0.48,0.4,0.88,0.55,0.48,0.29,0.48,0.44,0.33,0.4,0.29,0.44,0.55,0.44,0.55,0.88,0.6,0.55,0.42,0.29,0.33,0.48,0.42,0.55,0.83,0.29,0.33,0.58" style="fill:rgb(0,0,0);font-family:URWPalladioL-Roma;font-size:9.96px;stroke:none;">selecting and screening prospecting candidates for ﬁbrous transverse thermoelectric composites with</text>
   <text y="302.661" x="76.535,81.471,87.218,90.091,94.277,99.667,102.886,106.608,111.999,117.932,120.805,125.18740000000001,127.687,136.404,141.341,144.56,149.289,153.188,156.062,160.998,163.88639999999998,166.369,170.752,176.143,184.861,190.795,196.185,201.931,206.66,212.406,215.625,219.811,222.30100000000002,225.784,233.5528,235.963,240.347,245.283,249.469,254.2498,256.696,260.883,264.101,270.054,276.087,281.6646,284.074,290.027,294.214,297.087,302.833,308.41060000000004,310.82,315.756,321.502,324.375,328.561,333.952,337.171,340.893,346.283,352.217,355.09,359.4724,361.971,368.004" svgx:width="0.5,0.58,0.29,0.42,0.55,0.33,0.4,0.55,0.6,0.29,0.44,0.55,0.88,0.5,0.33,0.48,0.4,0.29,0.5,0.29,0.55,0.44,0.55,0.88,0.6,0.55,0.58,0.48,0.58,0.33,0.42,0.25,0.55,0.78,0.55,0.44,0.5,0.42,0.48,0.55,0.42,0.33,0.6,0.61,0.56,0.55,0.6,0.42,0.29,0.58,0.56,0.55,0.5,0.58,0.29,0.42,0.55,0.33,0.4,0.55,0.6,0.29,0.44,0.55,0.61,0.29" style="fill:rgb(0,0,0);font-family:URWPalladioL-Roma;font-size:9.96px;stroke:none;">anisotropic material components. A case study using anisotropic Bi</text>
   <text y="304.526" x="370.875" svgx:width="0.5" style="fill:rgb(0,0,0);font-family:URWPalladioL-Roma;font-size:7.57px;stroke:none;">2</text>
   <text y="302.661" x="375.159,380.293" svgx:width="0.61,0.48" style="fill:rgb(0,0,0);font-family:URWPalladioL-Roma;font-size:9.96px;stroke:none;">Te</text>
   <text y="304.526" x="385.023" svgx:width="0.5" style="fill:rgb(0,0,0);font-family:URWPalladioL-Roma;font-size:7.57px;stroke:none;">3</text>
   <text y="302.661" x="391.805,397.739,403.129,406.002,411.492,415.875,419.775,425.264,429.45,432.669,437.605,440.4934,442.976,447.913,452.0962,454.597,457.815,463.561,468.3418,470.788,479.506,484.443,487.661,491.561,494.434,499.6132,502.026,506.963,512.709" svgx:width="0.6,0.55,0.29,0.56,0.44,0.4,0.56,0.42,0.33,0.5,0.29,0.55,0.5,0.42,0.55,0.33,0.58,0.48,0.55,0.88,0.5,0.33,0.4,0.29,0.52,0.55,0.5,0.58,0.61" style="fill:rgb(0,0,0);font-family:URWPalladioL-Roma;font-size:9.96px;stroke:none;">polycrystal as the matrix and</text>
   <text y="316.171" x="76.535,79.434,83.658,89.098,92.346,96.102,101.541,107.529,110.428,114.8104,117.342,124.405,129.845,135.832,141.82,146.592,150.57600000000002,153.018,157.999,162.1822,164.714,167.962,173.76,178.5408,181.023,187.05,192.559,197.331,201.315,203.757,212.066,217.047,221.2302,223.762,229.75,234.522,238.457,241.775,247.214,251.149,259.946,264.718,270.7936,273.296,278.278,284.076,290.15160000000003,292.654" svgx:width="0.29,0.42,0.55,0.33,0.4,0.55,0.6,0.29,0.44,0.55,0.71,0.55,0.6,0.6,0.48,0.4,0.55,0.5,0.42,0.55,0.33,0.58,0.48,0.55,0.61,0.55,0.48,0.4,0.55,0.83,0.5,0.42,0.55,0.6,0.48,0.4,0.33,0.55,0.4,0.88,0.48,0.61,0.55,0.5,0.58,0.61,0.55,0.5" style="fill:rgb(0,0,0);font-family:URWPalladioL-Roma;font-size:9.96px;stroke:none;">isotropic Copper as the ﬁber was performed and a</text>
   <text y="316.171" x="300.249" svgx:width="0.68" style="fill:rgb(0,0,0);font-family:PazoMath;font-size:9.96px;stroke:none;">∆</text>
   <text y="316.171" x="307.108" svgx:width="0.61" style="fill:rgb(0,0,0);font-family:URWPalladioL-Roma;font-size:9.96px;stroke:none;">T</text>
   <text y="317.665" x="313.215,319.901,323.687" svgx:width="0.88,0.5,0.52" style="fill:rgb(0,0,0);font-family:URWPalladioL-Roma;font-size:7.57px;stroke:none;">max</text>
   <text y="316.171" x="330.582,336.022,339.3088,341.83,346.811,351.791,354.283,361.5538,364.007,372.315,377.297,381.4802,384.011,387.767,392.539,397.521,401.944,407.742,412.515,418.602" svgx:width="0.55,0.33,0.55,0.5,0.5,0.55,0.73,0.55,0.83,0.5,0.42,0.55,0.4,0.48,0.5,0.44,0.58,0.48,0.61,0.25" style="fill:rgb(0,0,0);font-family:URWPalladioL-Roma;font-size:9.96px;stroke:none;">of 34 K was reached.</text>
   <text y="329.68" x="97.795,103.78,109.462,114.2428,116.14,121.657,126.538,130.395,133.236,138.118,143.8,148.135,152.9158,154.803,157.644,163.4208,165.328,168.511,174.193,178.9738,180.871,189.492,194.374,199.412,202.253,210.874,216.761,227.384" svgx:width="0.61,0.58,0.48,0.55,0.56,0.5,0.4,0.29,0.5,0.58,0.44,0.48,0.55,0.29,0.58,0.55,0.33,0.58,0.48,0.55,0.88,0.5,0.52,0.29,0.88,0.6,0.88,0.67" style="fill:rgb(0,0,0);font-family:URWPalladioL-Roma;font-size:9.96px;stroke:none;">The variance in the maximumZ</text>
   <text y="331.174" x="233.891,236.359,239.35,243.136,247.543" svgx:width="0.33,0.4,0.5,0.58,0.42" style="fill:rgb(0,0,0);font-family:URWPalladioL-Roma;font-size:7.57px;stroke:none;">trans</text>
   <text y="329.68" x="251.251,257.3266,259.237,264.119,269.801" svgx:width="0.61,0.55,0.5,0.58,0.61" style="fill:rgb(0,0,0);font-family:URWPalladioL-Roma;font-size:9.96px;stroke:none;">T and</text>
   <text y="329.68" x="277.887" svgx:width="0.68" style="fill:rgb(0,0,0);font-family:PazoMath;font-size:9.96px;stroke:none;">∆</text>
   <text y="329.68" x="284.746" svgx:width="0.61" style="fill:rgb(0,0,0);font-family:URWPalladioL-Roma;font-size:9.96px;stroke:none;">T</text>
   <text y="331.174" x="290.731,297.417,301.203" svgx:width="0.88,0.5,0.52" style="fill:rgb(0,0,0);font-family:URWPalladioL-Roma;font-size:7.57px;stroke:none;">max</text>
   <text y="329.68" x="307.606,313.122,318.004,320.845,326.732,331.409,335.5922,337.55,340.801,346.132,350.116,351.98,357.38,362.71,365.893,371.66979999999995,373.577,376.76,382.442,387.2228,389.12,391.961,396.843,402.271,406.948,410.619,415.296,421.3716,423.263,428.144,433.827,439.9026,441.794,447.7,453.099,456.78,462.111,467.989,472.1722,474.13,477.313,481.169,486.051,491.733,495.873,501.389,506.066,509.922,514.062" svgx:width="0.56,0.5,0.29,0.6,0.48,0.42,0.55,0.33,0.55,0.4,0.55,0.55,0.55,0.33,0.58,0.55,0.33,0.58,0.48,0.55,0.29,0.5,0.56,0.48,0.4,0.48,0.61,0.55,0.5,0.58,0.61,0.55,0.61,0.55,0.4,0.55,0.6,0.42,0.55,0.33,0.4,0.5,0.58,0.42,0.56,0.48,0.4,0.42,0.48" style="fill:rgb(0,0,0);font-family:URWPalladioL-Roma;font-size:9.96px;stroke:none;">values for both the layered and ﬁbrous transverse</text>
   <text y="343.189" x="76.535,79.848,85.762,90.63,94.643,103.616,109.165,114.032,116.989,121.857,126.369,129.682,133.695,136.653,141.03539999999998,144.528,149.04,154.588,163.561,169.668,175.217,179.525,182.482,185.795,190.663,194.8462,198.345,206.82,211.901,216.0842,219.573,222.53,228.445,234.186,239.053,243.362,246.675,249.632,255.282,260.363,263.676,268.543,274.6186,278.126,286.601,289.558,292.871,298.64779999999996,302.148,305.99,310.857,315.166,321.273,326.141,330.652,333.9388,337.329,340.642,346.12,349.564,352.876,358.791,363.5718,367.022,373.129,378.677,382.986,387.295,390.252,395.871,398.828,403.6088,407.07,412.151,418.065,421.022,425.33,430.879,434.192,438.023,443.571,449.678,452.635,457.0174,460.511,466.618,470.459,476.008,482.115,486.982,490.996,494.309,497.266,502.134,506.3172,509.806,515.354" svgx:width="0.33,0.58,0.48,0.4,0.88,0.55,0.48,0.29,0.48,0.44,0.33,0.4,0.29,0.44,0.55,0.44,0.55,0.88,0.6,0.55,0.42,0.29,0.33,0.48,0.42,0.55,0.83,0.5,0.42,0.55,0.29,0.58,0.56,0.48,0.42,0.33,0.29,0.56,0.5,0.33,0.48,0.61,0.55,0.83,0.29,0.33,0.58,0.55,0.4,0.48,0.42,0.6,0.48,0.44,0.33,0.55,0.33,0.55,0.55,0.33,0.58,0.48,0.55,0.6,0.55,0.42,0.42,0.29,0.55,0.29,0.48,0.55,0.5,0.58,0.29,0.42,0.55,0.33,0.4,0.55,0.6,0.29,0.44,0.55,0.6,0.4,0.55,0.6,0.48,0.4,0.33,0.29,0.48,0.42,0.55,0.55,0.33" style="fill:rgb(0,0,0);font-family:URWPalladioL-Roma;font-size:9.96px;stroke:none;">thermoelectric composites was investigated with respect to the possible anisotropic properties of</text>
   <text y="356.699" x="76.535,81.047,86.595,95.568,101.675,107.224,113.138,118.006,123.92,127.2068,131.165,137.272,143.187,148.268,152.576,157.444,159.934,167.799,174.028,179.942,184.7228,188.732,192.573,197.441,201.749,207.877,210.834,214.147,218.3302,222.388,226.697,232.611,238.159,246.634,251.502,257.5776,261.643,264.956,270.87,275.951,279.23780000000005,283.197,288.816,294.3936,298.399,303.266,309.18,315.095,320.176,326.09,330.602,333.559,339.463,345.04060000000004,349.045,352.358,358.272,363.0528,367.073,372.153,378.068,381.025,385.333,390.882,394.195,398.036,403.584,409.691,412.648,417.03040000000004,421.093,427.2,431.031,436.58,442.727,445.685,450.4658,454.485,460.033,463.31980000000004,467.35,473.457,479.005,481.962,487.612,492.124,496.138,501.788,506.097,509.41,514.49,517.448" svgx:width="0.44,0.55,0.88,0.6,0.55,0.58,0.48,0.58,0.33,0.55,0.6,0.58,0.5,0.42,0.48,0.25,0.55,0.61,0.58,0.48,0.55,0.4,0.48,0.42,0.6,0.29,0.33,0.42,0.55,0.42,0.58,0.55,0.83,0.48,0.61,0.55,0.33,0.58,0.5,0.33,0.55,0.55,0.56,0.55,0.48,0.58,0.58,0.5,0.58,0.44,0.29,0.58,0.56,0.55,0.33,0.58,0.48,0.55,0.5,0.58,0.29,0.42,0.55,0.33,0.4,0.55,0.6,0.29,0.44,0.55,0.6,0.4,0.55,0.61,0.29,0.48,0.55,0.55,0.33,0.55,0.6,0.55,0.29,0.56,0.44,0.4,0.56,0.42,0.33,0.5,0.29,0.25" style="fill:rgb(0,0,0);font-family:URWPalladioL-Roma;font-size:9.96px;stroke:none;">component phase. The results showed that by enhancing the anisotropic proﬁle of polycrystal,</text>
   <text y="370.208" x="76.535,79.718,85.4,90.1808,92.4,101.021,105.903,110.941,113.782,122.403,128.291,139.225" svgx:width="0.33,0.58,0.48,0.55,0.88,0.5,0.52,0.29,0.88,0.6,0.88,0.67" style="fill:rgb(0,0,0);font-family:URWPalladioL-Roma;font-size:9.96px;stroke:none;">the maximumZ</text>
   <text y="371.702" x="145.74,148.208,151.199,154.985,159.392" svgx:width="0.33,0.4,0.5,0.58,0.42" style="fill:rgb(0,0,0);font-family:URWPalladioL-Roma;font-size:7.57px;stroke:none;">trans</text>
   <text y="370.208" x="163.1,169.1756,171.409,176.29,181.973" svgx:width="0.61,0.55,0.5,0.58,0.61" style="fill:rgb(0,0,0);font-family:URWPalladioL-Roma;font-size:9.96px;stroke:none;">T and</text>
   <text y="370.208" x="190.379" svgx:width="0.68" style="fill:rgb(0,0,0);font-family:PazoMath;font-size:9.96px;stroke:none;">∆</text>
   <text y="370.208" x="197.238" svgx:width="0.61" style="fill:rgb(0,0,0);font-family:URWPalladioL-Roma;font-size:9.96px;stroke:none;">T</text>
   <text y="371.702" x="203.223,209.909,213.695" svgx:width="0.88,0.5,0.52" style="fill:rgb(0,0,0);font-family:URWPalladioL-Roma;font-size:7.57px;stroke:none;">max</text>
   <text y="370.208" x="220.42,223.671,229.002,232.98600000000002,235.182,240.581,245.912,249.095,254.8718,257.091,260.274,265.956,270.7368,272.957,275.798,280.679,286.108,290.784,294.455,299.132,305.2076,307.421,312.303,317.985,324.0606,326.274,332.181,337.58,341.251,346.582,352.469,356.6522,358.933,362.115,365.972,370.854,376.536,380.676,386.192,390.869,394.725,398.865,403.6458,405.865,409.048,414.73,419.407,423.263,431.884,437.215,441.892,444.733,449.41,453.744,456.927,460.784,463.615,467.9974,470.274,474.609,479.94,488.561,494.428,499.759,503.899,506.74,509.923,514.599" svgx:width="0.33,0.55,0.4,0.55,0.55,0.55,0.33,0.58,0.55,0.33,0.58,0.48,0.55,0.29,0.5,0.56,0.48,0.4,0.48,0.61,0.55,0.5,0.58,0.61,0.55,0.61,0.55,0.4,0.55,0.6,0.42,0.55,0.33,0.4,0.5,0.58,0.42,0.56,0.48,0.4,0.42,0.48,0.55,0.33,0.58,0.48,0.4,0.88,0.55,0.48,0.29,0.48,0.44,0.33,0.4,0.29,0.44,0.55,0.44,0.55,0.88,0.6,0.55,0.42,0.29,0.33,0.48,0.42" style="fill:rgb(0,0,0);font-family:URWPalladioL-Roma;font-size:9.96px;stroke:none;">for both the layered and ﬁbrous transverse thermoelectric composites</text>
   <text y="383.718" x="76.535,80.888,85.789,91.5658,93.985,99.406,104.1868,106.592,109.444,118.101,123.992,127.688,133.041,138.579,143.275,149.265,151.755,155.196,160.646,165.999,169.983,172.361,175.557,181.263,186.0438,188.458,193.605,199.3,204.447" svgx:width="0.44,0.5,0.58,0.55,0.55,0.48,0.55,0.29,0.88,0.6,0.4,0.55,0.56,0.48,0.61,0.25,0.55,0.56,0.55,0.4,0.55,0.33,0.58,0.48,0.55,0.52,0.58,0.52,0.48" style="fill:rgb(0,0,0);font-family:URWPalladioL-Roma;font-size:9.96px;stroke:none;">can be improved. For the SnSe</text>
   <text y="383.718" x="209.148" svgx:width="0.29" style="fill:rgb(0,0,0);font-family:Rpxr;font-size:9.96px;stroke:none;">/</text>
   <text y="383.718" x="211.961,218.911,224.264,230.156,236.047,240.743,244.727,247.105,251.458,256.811,265.467,271.359,276.711,280.868,283.72,286.916,291.6968,294.102,299.004,302.29080000000005,304.689,309.591,314.493,319.473,321.884,329.001,331.491,333.942,337.138,342.844,347.6248,350.029,352.882,361.538,367.43,371.126,376.478,382.017,386.713,395.369,400.065,405.77,409.0568,411.456,416.809,420.09580000000005,422.563,431.219,436.121,441.179,444.032,452.688,458.6,469.746" svgx:width="0.71,0.55,0.6,0.6,0.48,0.4,0.55,0.44,0.55,0.88,0.6,0.55,0.42,0.29,0.33,0.48,0.55,0.5,0.33,0.55,0.5,0.5,0.5,0.55,0.73,0.25,0.55,0.33,0.58,0.48,0.55,0.29,0.88,0.6,0.4,0.55,0.56,0.48,0.88,0.48,0.58,0.33,0.55,0.55,0.33,0.55,0.88,0.5,0.52,0.29,0.88,0.6,0.88,0.67" style="fill:rgb(0,0,0);font-family:URWPalladioL-Roma;font-size:9.96px;stroke:none;">Copper composite at 700 K, the improvement of maximumZ</text>
   <text y="385.212" x="476.284,478.752,481.743,485.529,489.936" svgx:width="0.33,0.4,0.5,0.58,0.42" style="fill:rgb(0,0,0);font-family:URWPalladioL-Roma;font-size:7.57px;stroke:none;">trans</text>
   <text y="383.718" x="493.644,499.7196,502.143,507.045,512.75" svgx:width="0.61,0.55,0.5,0.58,0.61" style="fill:rgb(0,0,0);font-family:URWPalladioL-Roma;font-size:9.96px;stroke:none;">T and</text>
   <text y="397.227" x="76.66" svgx:width="0.68" style="fill:rgb(0,0,0);font-family:PazoMath;font-size:9.96px;stroke:none;">∆</text>
   <text y="397.227" x="83.519" svgx:width="0.61" style="fill:rgb(0,0,0);font-family:URWPalladioL-Roma;font-size:9.96px;stroke:none;">T</text>
   <text y="398.721" x="89.742,96.428,100.214" svgx:width="0.88,0.5,0.52" style="fill:rgb(0,0,0);font-family:URWPalladioL-Roma;font-size:7.57px;stroke:none;">max</text>
   <text y="397.227" x="107.109,112.845,117.921,120.875,126.997,131.859,136.0422,138.651,142.032,147.574,151.55800000000002,154.082,157.391,163.3,168.0808,170.65,175.157,180.7,189.664,195.765,201.308,205.613,208.567,211.877,216.6578,219.226,227.693,230.647,233.957,239.7338,242.352,247.439,253.337,256.291,260.595,266.138,269.448,273.285,278.828,284.93,287.884,292.26640000000003,294.878,300.208,306.117,311.446,316.2268,318.796,323.101,326.055,331.963,337.608,340.562,345.425,348.805,353.313,357.323,362.967,367.272,370.581,375.657,378.5454,381.109,385.616,391.159,400.123,406.224,411.767,417.676,422.538,428.447,431.756,435.93919999999997,438.548,443.055,448.131,453.90779999999995,456.527,462.141,466.9218,469.501,474.577,478.7602,481.369,490.333,496.454,500.962,506.73879999999997,509.357,514.433" svgx:width="0.56,0.5,0.29,0.6,0.48,0.42,0.55,0.33,0.55,0.4,0.55,0.33,0.58,0.48,0.55,0.44,0.55,0.88,0.6,0.55,0.42,0.29,0.33,0.48,0.55,0.83,0.29,0.33,0.58,0.55,0.5,0.58,0.29,0.42,0.55,0.33,0.4,0.55,0.6,0.29,0.44,0.55,0.52,0.58,0.52,0.48,0.55,0.42,0.29,0.58,0.56,0.29,0.48,0.33,0.44,0.4,0.56,0.42,0.33,0.5,0.29,0.55,0.44,0.55,0.88,0.6,0.55,0.58,0.48,0.58,0.33,0.42,0.55,0.44,0.5,0.58,0.55,0.55,0.48,0.55,0.5,0.42,0.55,0.88,0.6,0.44,0.58,0.55,0.5,0.42" style="fill:rgb(0,0,0);font-family:URWPalladioL-Roma;font-size:9.96px;stroke:none;">values for the composite with anisotropic SnSe single-crystal components can be as much as</text>
   <text y="410.736" x="76.535,81.516,86.498,97.357,101.78,107.22,116.017,122.004,126.986,130.742,135.514,141.58960000000002,144.091,147.339,152.817,155.269,158.517,164.315,169.0958,171.578,176.002,181.441,190.238,196.226,201.665,205.889,208.788,212.036,216.808,220.9912,223.523,231.832,234.731,237.979,243.75580000000002,246.268,249.167,253.391,258.831,262.078,265.834,271.274,277.261,280.161,284.5434,287.075,292.305,298.103,303.334,308.1148,310.596,316.584,322.023,324.923,330.462,334.885,338.82,344.36,348.584,351.832,356.813,359.712,363.936" svgx:width="0.5,0.5,0.84,0.44,0.55,0.88,0.6,0.5,0.4,0.48,0.61,0.55,0.33,0.55,0.55,0.33,0.58,0.48,0.55,0.44,0.55,0.88,0.6,0.55,0.42,0.29,0.33,0.48,0.42,0.55,0.83,0.29,0.33,0.58,0.55,0.29,0.42,0.55,0.33,0.4,0.55,0.6,0.29,0.44,0.55,0.52,0.58,0.52,0.48,0.55,0.6,0.55,0.29,0.56,0.44,0.4,0.56,0.42,0.33,0.5,0.29,0.42,0.25" style="fill:rgb(0,0,0);font-family:URWPalladioL-Roma;font-size:9.96px;stroke:none;">51%compared to the composites with isotropic SnSe polycrystals.</text>
   <text y="424.246" x="97.795,103.78,109.462,112.303,116.4862,118.532,122.672,125.855,131.742,137.708,143.2856,145.225,150.107,152.948,157.088,162.566,164.508,168.648,174.33,179.661,187.803,192.48,198.5556,200.535,203.718,209.4,214.282,217.5688,219.544,222.727,228.409,233.1898,235.175,240.057,242.898,245.739,251.167,256.85,265.471,270.147,275.83,279.1168,281.102,286.433,289.7198,291.773,294.956,300.638,305.4188,307.404,311.739,317.07,325.691,331.559,336.89,342.572,347.249,352.931,356.114,358.828,363.0112,365.057,367.898,373.229,377.564,382.445,385.3334,387.376,393.244,396.915,402.245,408.113,412.79,416.646,419.829,425.4066,427.347,432.229,437.267,441.943,446.1262,448.172,451.013,456.78979999999996,458.785,461.968,467.65,472.4308,474.416,478.751,484.082,492.703,498.571,503.901,508.041,510.882,514.065" svgx:width="0.61,0.58,0.29,0.42,0.55,0.42,0.33,0.6,0.61,0.56,0.55,0.5,0.29,0.42,0.55,0.55,0.42,0.58,0.55,0.83,0.48,0.61,0.55,0.33,0.58,0.5,0.33,0.55,0.33,0.58,0.48,0.55,0.5,0.29,0.29,0.56,0.58,0.88,0.48,0.58,0.33,0.55,0.55,0.33,0.55,0.33,0.58,0.48,0.55,0.44,0.55,0.88,0.6,0.55,0.58,0.48,0.58,0.33,0.28,0.42,0.55,0.29,0.55,0.44,0.5,0.29,0.55,0.6,0.4,0.55,0.6,0.48,0.4,0.33,0.56,0.55,0.5,0.52,0.48,0.42,0.55,0.29,0.58,0.55,0.33,0.58,0.48,0.55,0.44,0.55,0.88,0.6,0.55,0.42,0.29,0.33,0.48" style="fill:rgb(0,0,0);font-family:URWPalladioL-Roma;font-size:9.96px;stroke:none;">This study also showed that the alignment of the component’s local property axes in the composite</text>
   <text y="437.755" x="76.535,80.87,85.752,91.52879999999999,93.562,96.403,101.08,105.962,112.0376,114.056,117.238,122.716,124.698,128.837,131.678,137.107,142.789,145.63,151.537,155.872,160.754,166.436,169.7228,171.747,177.263,182.145,186.002,188.843,193.724,199.407,203.742,208.5228,210.547,213.388,219.1648,221.208,224.391,230.073,234.8538,236.878" svgx:width="0.44,0.5,0.58,0.55,0.29,0.48,0.5,0.61,0.55,0.33,0.55,0.55,0.42,0.29,0.56,0.58,0.29,0.61,0.44,0.5,0.58,0.33,0.55,0.56,0.5,0.4,0.29,0.5,0.58,0.44,0.48,0.55,0.29,0.58,0.55,0.33,0.58,0.48,0.55,0.67" style="fill:rgb(0,0,0);font-family:URWPalladioL-Roma;font-size:9.96px;stroke:none;">can lead to signiﬁcant variance in the Z</text>
   <text y="439.249" x="243.387,245.855,248.846,252.632,257.039" svgx:width="0.33,0.4,0.5,0.58,0.42" style="fill:rgb(0,0,0);font-family:URWPalladioL-Roma;font-size:7.57px;stroke:none;">trans</text>
   <text y="437.755" x="260.747,266.8226,268.86,273.742,279.424" svgx:width="0.61,0.55,0.5,0.58,0.61" style="fill:rgb(0,0,0);font-family:URWPalladioL-Roma;font-size:9.96px;stroke:none;">T and</text>
   <text y="437.755" x="287.644" svgx:width="0.68" style="fill:rgb(0,0,0);font-family:PazoMath;font-size:9.96px;stroke:none;">∆</text>
   <text y="437.755" x="294.503" svgx:width="0.61" style="fill:rgb(0,0,0);font-family:URWPalladioL-Roma;font-size:9.96px;stroke:none;">T</text>
   <text y="439.249" x="300.488,307.174,310.96" svgx:width="0.88,0.5,0.52" style="fill:rgb(0,0,0);font-family:URWPalladioL-Roma;font-size:7.57px;stroke:none;">max</text>
   <text y="437.755" x="317.494,323.01,327.892,330.733,336.62,341.297,345.4802,347.565,352.896,356.18280000000004,358.275,361.458,367.141,371.9218,373.946,378.281,383.611,392.232,398.1,403.431,407.571,410.412,413.595,418.271,420.761,424.08,429.509,434.84,438.82399999999996,440.825,444.007,449.69,454.4708,456.495,462.46" svgx:width="0.56,0.5,0.29,0.6,0.48,0.42,0.55,0.55,0.33,0.55,0.33,0.58,0.48,0.55,0.44,0.55,0.88,0.6,0.55,0.42,0.29,0.33,0.48,0.25,0.55,0.56,0.55,0.4,0.55,0.33,0.58,0.48,0.55,0.61,0.29" style="fill:rgb(0,0,0);font-family:URWPalladioL-Roma;font-size:9.96px;stroke:none;">values of the composite. For the Bi</text>
   <text y="439.62" x="465.303" svgx:width="0.5" style="fill:rgb(0,0,0);font-family:URWPalladioL-Roma;font-size:7.57px;stroke:none;">2</text>
   <text y="437.755" x="469.587,474.654" svgx:width="0.61,0.48" style="fill:rgb(0,0,0);font-family:URWPalladioL-Roma;font-size:9.96px;stroke:none;">Te</text>
   <text y="439.62" x="479.332" svgx:width="0.5" style="fill:rgb(0,0,0);font-family:URWPalladioL-Roma;font-size:7.57px;stroke:none;">3</text>
   <text y="437.755" x="483.616" svgx:width="0.29" style="fill:rgb(0,0,0);font-family:Rpxr;font-size:9.96px;stroke:none;">/</text>
   <text y="437.755" x="486.418,493.34,498.671,504.539,510.407,515.083" svgx:width="0.71,0.55,0.6,0.6,0.48,0.4" style="fill:rgb(0,0,0);font-family:URWPalladioL-Roma;font-size:9.96px;stroke:none;">Copper</text>
   <text y="451.264" x="76.535,80.87,86.201,94.822,100.69,106.02,110.16,113.001,116.184,120.861,123.351,125.762,128.945,134.627,139.4078,141.754,147.72" svgx:width="0.44,0.55,0.88,0.6,0.55,0.42,0.29,0.33,0.48,0.25,0.55,0.33,0.58,0.48,0.55,0.61,0.29" style="fill:rgb(0,0,0);font-family:URWPalladioL-Roma;font-size:9.96px;stroke:none;">composite, the di</text>
   <text y="451.264" x="150.565" svgx:width="0.61" style="fill:rgb(0,0,0);font-family:Rpxr;font-size:9.96px;stroke:none;">ﬀ</text>
   <text y="451.264" x="156.501,161.178,164.858,169.535,175.217,179.552,184.3328,186.68,189.521,195.2978,197.654,200.836,206.519,211.2998,213.656,216.838,222.521,227.197,231.054,239.675,245.006,249.682,252.524,257.2,261.535,264.718,268.574,271.416,275.7984,278.201,284.069,288.746,292.602,295.853,301.184,305.041,313.662,318.543,324.226,328.561,333.3418,335.688,340.023,344.904,350.792,354.931,359.608,365.6836,368.034,373.433,379.0106,381.312,384.495,390.177,394.9578,397.304,402.186,405.027,407.868,413.297,418.979,427.6,432.277,437.959,441.24580000000003,443.602,448.933,452.2198,454.635,457.817,463.5,468.2808,470.627,475.509,481.191,484.032,488.172,493.503,496.685,500.366,505.697,511.565,514.406" svgx:width="0.48,0.4,0.48,0.58,0.44,0.48,0.55,0.29,0.58,0.55,0.33,0.58,0.48,0.55,0.33,0.58,0.48,0.4,0.88,0.55,0.48,0.29,0.48,0.44,0.33,0.4,0.29,0.44,0.55,0.6,0.48,0.4,0.33,0.55,0.4,0.88,0.5,0.58,0.44,0.48,0.55,0.44,0.5,0.6,0.42,0.48,0.61,0.55,0.55,0.56,0.55,0.33,0.58,0.48,0.55,0.5,0.29,0.29,0.56,0.58,0.88,0.48,0.58,0.33,0.55,0.55,0.33,0.55,0.33,0.58,0.48,0.55,0.5,0.58,0.29,0.42,0.55,0.33,0.4,0.55,0.6,0.29,0.44" style="fill:rgb(0,0,0);font-family:URWPalladioL-Roma;font-size:9.96px;stroke:none;">erence in the thermoelectric performance caused by the alignment of the anisotropic</text>
   <text y="464.774" x="76.535,80.985,86.457,95.307,101.33,106.803,112.636,117.436,123.269,126.537,129.323,133.5062,136.058,142.081,145.87,151.342,157.365,162.166,166.115,169.382,174.9596,177.45,182.461,187.633,190.55,194.7332,197.285,205.643,210.654,214.8372,217.399,222.411,227.422,235.841,238.33100000000002,241.834,247.406,252.879,256.863,259.323,262.59,268.423,273.2038,275.72,280.981,286.814,292.076" svgx:width="0.44,0.55,0.88,0.6,0.55,0.58,0.48,0.58,0.33,0.28,0.42,0.55,0.6,0.4,0.55,0.6,0.48,0.4,0.33,0.56,0.55,0.5,0.52,0.29,0.42,0.55,0.83,0.5,0.42,0.55,0.5,0.5,0.84,0.25,0.55,0.56,0.55,0.4,0.55,0.33,0.58,0.48,0.55,0.52,0.58,0.52,0.48" style="fill:rgb(0,0,0);font-family:URWPalladioL-Roma;font-size:9.96px;stroke:none;">component’s property axis was 50%. For the SnSe</text>
   <text y="464.774" x="296.873" svgx:width="0.29" style="fill:rgb(0,0,0);font-family:Rpxr;font-size:9.96px;stroke:none;">/</text>
   <text y="464.774" x="299.749,306.855,312.327,318.351,324.374,329.175,333.159,335.619,340.069,345.541,354.391,360.414,365.887,370.136,373.053,376.32,381.121,383.611,386.122,389.389,395.222,398.139,402.3222,404.874,410.997" svgx:width="0.71,0.55,0.6,0.6,0.48,0.4,0.55,0.44,0.55,0.88,0.6,0.55,0.42,0.29,0.33,0.48,0.25,0.55,0.33,0.58,0.29,0.42,0.55,0.61,0.29" style="fill:rgb(0,0,0);font-family:URWPalladioL-Roma;font-size:9.96px;stroke:none;">Copper composite, this di</text>
   <text y="464.774" x="413.916" svgx:width="0.61" style="fill:rgb(0,0,0);font-family:Rpxr;font-size:9.96px;stroke:none;">ﬀ</text>
   <text y="464.774" x="420.01,424.811,428.589,433.39,439.223,443.673,448.4538,450.969,455.77,460.941,465.391,470.192,474.983,481.106,485.907,491.9826,494.526,499.538,504.549,509.56,517.979" svgx:width="0.48,0.4,0.48,0.58,0.44,0.48,0.55,0.48,0.52,0.44,0.48,0.48,0.61,0.48,0.61,0.55,0.5,0.5,0.5,0.84,0.25" style="fill:rgb(0,0,0);font-family:URWPalladioL-Roma;font-size:9.96px;stroke:none;">erence exceeded 400%.</text>
   <text y="478.283" x="76.226,82.455,88.369,91.327,95.5102,98.47,104.679,107.636,111.945,116.457,120.288,125.155,131.263,136.344,142.258,146.77,152.3476,155.255,163.73,168.811,172.9942,175.954,184.927,190.008,192.965,198.88,201.837,207.41459999999998,210.322,214.834,219.915,226.042,230.351,235.218,241.2936,244.262,249.882,255.4596,258.367,261.68,267.594,272.3748,275.287,281.028,286.109,290.123,293.08,298.161,304.075,308.587,313.3678,316.29,319.247,325.0238,327.996,331.309,337.223,342.0038,344.926,350.007,355.921,358.878,363.186,368.735,372.048,375.879,381.427,387.534,390.491,394.8734,397.838,403.946,407.787,413.335,419.442,424.31,428.324,431.637,434.594,439.461,443.6442,446.595,451.676,460.649,466.197,472.111,477.6886,480.596,486.805" svgx:width="0.61,0.58,0.29,0.42,0.55,0.61,0.29,0.42,0.44,0.4,0.48,0.6,0.5,0.58,0.44,0.56,0.55,0.83,0.5,0.42,0.55,0.88,0.5,0.29,0.58,0.29,0.56,0.55,0.44,0.5,0.6,0.42,0.48,0.61,0.55,0.55,0.56,0.55,0.33,0.58,0.48,0.55,0.56,0.5,0.4,0.29,0.5,0.58,0.44,0.48,0.55,0.29,0.58,0.55,0.33,0.58,0.48,0.55,0.5,0.58,0.29,0.42,0.55,0.33,0.4,0.55,0.6,0.29,0.44,0.55,0.6,0.4,0.55,0.6,0.48,0.4,0.33,0.29,0.48,0.42,0.55,0.5,0.88,0.55,0.58,0.56,0.55,0.61,0.29" style="fill:rgb(0,0,0);font-family:URWPalladioL-Roma;font-size:9.96px;stroke:none;">This discrepancy was mainly caused by the variance in the anisotropic properties among di</text>
   <text y="478.283" x="489.765" svgx:width="0.61" style="fill:rgb(0,0,0);font-family:Rpxr;font-size:9.96px;stroke:none;">ﬀ</text>
   <text y="478.283" x="495.944,500.812,504.643,509.51,515.424" svgx:width="0.48,0.4,0.48,0.58,0.33" style="fill:rgb(0,0,0);font-family:URWPalladioL-Roma;font-size:9.96px;stroke:none;">erent</text>
   <text y="491.793" x="76.535,85.332,90.313,93.561,98.333,102.268,105.168,110.149,113.0374,115.539,121.526,125.282,130.722,136.709,141.481,145.416,148.664,154.24159999999998,156.694,161.675,166.816,169.715,173.8982,176.43,182.517,185.416,189.172,193.944,198.368,201.615,204.515,209.954,215.752,219.9352,222.467,225.366,231.14280000000002,233.655,236.903,242.701,247.4818,249.964,254.387,259.827,268.624,274.611,280.051,285.849,290.621,296.419,299.7058,302.158,308.145,313.944,318.925,323.149,327.921" svgx:width="0.88,0.5,0.33,0.48,0.4,0.29,0.5,0.29,0.55,0.6,0.4,0.55,0.6,0.48,0.4,0.33,0.56,0.55,0.5,0.52,0.29,0.42,0.55,0.61,0.29,0.4,0.48,0.44,0.33,0.29,0.55,0.58,0.42,0.55,0.29,0.58,0.55,0.33,0.58,0.48,0.55,0.44,0.55,0.88,0.6,0.55,0.58,0.48,0.58,0.33,0.55,0.6,0.58,0.5,0.42,0.48,0.25" style="fill:rgb(0,0,0);font-family:URWPalladioL-Roma;font-size:9.96px;stroke:none;">material property axis directions in the component phase.</text>
   <text y="513.88" x="76.186,83.162,88.64,91.626,97.105,102.09,105.5883,107.828,114.302,119.287,124.766,127.752,131.24,134.226,139.704,145.182,148.168,151.154,156.139,161.618,165.599" svgx:width="0.78,0.61,0.33,0.61,0.56,0.39,0.55,0.72,0.56,0.61,0.33,0.39,0.33,0.61,0.61,0.33,0.33,0.56,0.61,0.44,0.25" style="fill:rgb(0,0,0);font-family:URWPalladioL-Bold;font-size:8.97px;stroke:none;">Author Contributions:</text>
   <text y="513.88" x="170.988,177.275,182.117,187.278,191.215,195.463,200.793,203.683,209.031,213.465,216.045,218.626,223.06,227.493,230.384,232.965,237.807,242.968,245.2105,247.437,252.855,255.072,262.042,264.2845,266.503,270.937,276.098,281.5697,283.768,287.874,290.091,296.015,298.232,300.47450000000003,302.701,310.531,314.779,317.67,322.822,327.664,333.082,337.924,340.504,345.346,350.277,354.214,356.4565,358.683,364.101,366.318,373.288,375.505,377.7475,379.975,383.735,388.577,391.53,394.42,401.816,406.25,409.593,413.841,416.0835,418.301,422.407,424.624,432.667,434.884,437.1265,439.353,444.364,448.798,451.378,453.959,459.377,463.811,466.702,469.282,474.124,479.285,481.52750000000003,483.754,489.173,491.39,498.36,500.577,502.8195,505.046,509.959,512.176,518.09" svgx:width="0.71,0.55,0.58,0.44,0.48,0.6,0.33,0.6,0.5,0.29,0.29,0.5,0.5,0.33,0.29,0.55,0.58,0.25,0.55,0.61,0.25,0.79,0.25,0.55,0.5,0.58,0.61,0.55,0.56,0.25,0.67,0.25,0.25,0.55,0.88,0.48,0.33,0.58,0.55,0.61,0.55,0.29,0.55,0.56,0.56,0.25,0.55,0.61,0.25,0.79,0.25,0.25,0.55,0.42,0.55,0.33,0.33,0.83,0.5,0.4,0.48,0.25,0.55,0.56,0.25,1.0,0.25,0.25,0.55,0.56,0.5,0.29,0.29,0.61,0.5,0.33,0.29,0.55,0.58,0.25,0.55,0.61,0.25,0.79,0.25,0.25,0.55,0.67,0.25,0.67,0.25" style="fill:rgb(0,0,0);font-family:URWPalladioL-Roma;font-size:8.97px;stroke:none;">Conceptualization, B.Q. and F.R.; methodology, B.Q.; software, F.W.; validation, B.Q., Y.Z.</text>
   <text y="524.012" x="76.535,81.108,86.431,91.9027,94.47,99.408,101.695,110.018,112.304,114.54650000000001,117.142,124.77,128.382,131.044,134.025,136.686,142.009,147.094,156.24,161.234,164.846,167.508,172.593,175.254,180.577,185.15,187.75130000000001,190.262,195.85,199.463,204.036,207.081,210.0411,212.505,218.001,221.458,225.839,231.336,235.908,239.521,244.094,247.075,249.737,254.73,260.053,262.2955,264.836,270.424,272.711,279.899,282.186,284.4285,287.024,294.651,298.264,300.925,303.907,306.568,311.891,316.976,326.122,329.57,333.951,339.118,341.779,346.16,353.60510000000005,356.239,360.812,366.134,371.6057,374.174,378.554,384.142,386.804,389.785,392.447,397.77,402.855,405.0975,407.638,411.9,414.186,420.295,422.582,424.8245,427.365,432.468,434.755,440.855,443.0975,445.593,450.165,455.488,460.9597,463.527,468.466,470.752,479.075,481.362,483.60450000000003,486.2,489.245,494.76,500.083,505.671,508.332,513.655" svgx:width="0.5,0.58,0.61,0.55,0.61,0.25,1.0,0.25,0.25,0.55,0.83,0.4,0.29,0.33,0.29,0.58,0.56,1.0,0.55,0.4,0.29,0.56,0.29,0.58,0.5,0.29,0.55,0.61,0.4,0.5,0.33,0.33,0.55,0.6,0.4,0.48,0.6,0.5,0.4,0.5,0.33,0.29,0.55,0.58,0.25,0.55,0.61,0.25,0.79,0.25,0.25,0.55,0.83,0.4,0.29,0.33,0.29,0.58,0.56,1.0,0.4,0.48,0.56,0.29,0.48,0.83,0.55,0.5,0.58,0.61,0.55,0.48,0.61,0.29,0.33,0.29,0.58,0.56,0.25,0.55,0.56,0.25,0.67,0.25,0.25,0.55,0.67,0.25,0.67,0.25,0.55,0.5,0.58,0.61,0.55,0.61,0.25,1.0,0.25,0.25,0.55,0.33,0.6,0.58,0.61,0.29,0.58,0.56" style="fill:rgb(0,0,0);font-family:URWPalladioL-Roma;font-size:8.97px;stroke:none;">and T.W.; writing—original draft preparation, B.Q.; writing—review and editing, F.R., Y.Z. and T.W.; funding</text>
   <text y="534.144" x="76.535,81.018,84.999,90.02,95.427,98.036,101.838,104.447,107.37,109.98,114.875,120.094,122.3365,124.577,130.055,132.297,139.345,141.5875,143.828,148.311,153.529,159.0007,161.25,165.41,167.652,173.641" svgx:width="0.5,0.44,0.56,0.6,0.29,0.42,0.29,0.33,0.29,0.55,0.58,0.25,0.55,0.61,0.25,0.79,0.25,0.55,0.5,0.58,0.61,0.55,0.56,0.25,0.67,0.25" style="fill:rgb(0,0,0);font-family:URWPalladioL-Roma;font-size:8.97px;stroke:none;">acquisition, B.Q. and F.R.</text>
   <text y="550.254" x="76.535,81.52,86.999,92.477,97.956,100.942,106.42,111.405" svgx:width="0.56,0.61,0.61,0.61,0.33,0.61,0.56,0.25" style="fill:rgb(0,0,0);font-family:URWPalladioL-Bold;font-size:8.97px;stroke:none;">Funding:</text>
   <text y="550.254" x="116.785,122.281,127.5,130.109,133.87640000000002,136.152,139.533,143.828,147.629,151.924,156.408,159.788,163.769,168.9716,171.229,178.707,183.19,186.9574,189.234,192.219,197.626,202.845,208.323,212.618,218.0897,220.338,225.296,230.3192,232.523,235.446,240.665,244.9706,247.201,253.559,257.853,263.072,265.995,269.537,274.02,276.62129999999996,278.871,283.578,288.474,293.88,296.803,302.0056,304.263,311.239,316.458,319.067,324.133,328.428,331.97,335.771,338.381,341.304,346.32719999999995,348.531,353.014,358.232,363.7037,365.952,370.624,374.919,382.836,388.225,390.834,395.13960000000003,397.37,404.346,409.565,412.174,417.24,421.535,425.077,428.878,431.488,434.411,438.401" svgx:width="0.61,0.58,0.29,0.42,0.55,0.4,0.48,0.42,0.48,0.5,0.4,0.44,0.58,0.55,0.83,0.5,0.42,0.55,0.33,0.6,0.58,0.61,0.48,0.61,0.55,0.55,0.56,0.55,0.33,0.58,0.48,0.55,0.71,0.48,0.58,0.33,0.4,0.5,0.29,0.55,0.52,0.55,0.6,0.33,0.58,0.55,0.78,0.58,0.29,0.56,0.48,0.4,0.42,0.29,0.33,0.56,0.55,0.5,0.58,0.61,0.55,0.61,0.48,0.88,0.6,0.29,0.48,0.55,0.78,0.58,0.29,0.56,0.48,0.4,0.42,0.29,0.33,0.56,0.25" style="fill:rgb(0,0,0);font-family:URWPalladioL-Roma;font-size:8.97px;stroke:none;">This research was funded by the Central South University and Temple University.</text>
   <text y="566.363" x="76.535,83.009,87.994,93.473,98.951,101.937,105.918,108.904,112.85079999999999,115.126,120.112,123.6103,125.841,129.329,134.808,137.793,142.277,145.765,150.248,154.229,157.215" svgx:width="0.72,0.56,0.61,0.61,0.33,0.44,0.33,0.44,0.55,0.56,0.39,0.55,0.39,0.61,0.33,0.5,0.39,0.5,0.44,0.33,0.25" style="fill:rgb(0,0,0);font-family:URWPalladioL-Bold;font-size:8.97px;stroke:none;">Conﬂicts of Interest:</text>
   <text y="566.363" x="162.594,168.09,173.309,177.6146,179.845,184.329,189.735,192.658,197.877,202.772,206.314,210.0814,212.358,217.836,222.131,226.112,228.721,233.204,236.585,240.8906,243.121,248.34,253.2735,255.477,259.458,264.354,269.572,275.024,277.633,281.614,284.5741,286.779,291.674,294.6341,296.902,299.511,304.729,307.652,311.947,315.328,319.623,323.424,326.347" svgx:width="0.61,0.58,0.48,0.55,0.5,0.6,0.33,0.58,0.55,0.4,0.42,0.55,0.61,0.48,0.44,0.29,0.5,0.4,0.48,0.55,0.58,0.55,0.55,0.44,0.55,0.58,0.61,0.29,0.44,0.33,0.55,0.55,0.33,0.55,0.29,0.58,0.33,0.48,0.4,0.48,0.42,0.33,0.25" style="fill:rgb(0,0,0);font-family:URWPalladioL-Roma;font-size:8.97px;stroke:none;">The authors declare no conﬂict of interest.</text>
   <text y="592.665" x="76.535,83.728,88.709,92.585,97.566,101.441,106.423,112.51,116.933,121.915" svgx:width="0.72,0.5,0.39,0.5,0.39,0.5,0.61,0.44,0.5,0.44" style="fill:rgb(0,0,0);font-family:URWPalladioL-Bold;font-size:9.96px;stroke:none;">References</text>
   <text y="611.554" x="76.535,81.018,83.26050000000001,98.05,104.159,108.54,113.863,116.1055,118.546,122.917,125.204,127.4465,129.969,135.557,138.218,143.733,145.9755,148.416,153.519,155.805,158.0475,160.57,168.179,172.56,174.8025,177.243,180.288,182.575,184.8175,187.34,192.928,197.098,199.34050000000002,201.79,206.729,209.015,211.2575,213.78,220.758,225.331,230.325,232.5675,235.007,238.053,240.339,242.5815,245.104,251.204,256.719,258.9615,261.402,268.38,270.6225,273.072,279.181,283.562,287.623,292.004,297.326,300.28610000000003,302.704,307.277,312.865,318.032,322.605,327.928,331.989,336.369,340.13640000000004,342.643,345.305,350.5076,353.024,355.685,361.008,366.002,369.459,374.544,379.117,384.439,387.101,391.0478,393.558,401.633,406.206,409.188,413.569,417.181,419.842,424.415,427.0163,429.473,432.454,437.777,442.158,445.771,453.846,458.84,463.221,465.882,470.263,474.324,477.305,480.918,483.579,487.64,491.517" svgx:width="0.5,0.25,0.55,0.67,0.48,0.58,0.25,0.55,0.6,0.25,0.25,0.55,0.61,0.29,0.6,0.25,0.55,0.67,0.25,0.25,0.55,0.83,0.48,0.25,0.55,0.33,0.25,0.25,0.55,0.61,0.56,0.25,0.55,0.61,0.25,0.25,0.55,0.76,0.5,0.55,0.25,0.55,0.33,0.25,0.25,0.55,0.67,0.6,0.25,0.55,0.76,0.25,0.55,0.67,0.48,0.44,0.48,0.58,0.33,0.55,0.5,0.61,0.56,0.5,0.58,0.44,0.48,0.42,0.55,0.29,0.58,0.55,0.29,0.58,0.55,0.4,0.56,0.5,0.58,0.29,0.44,0.55,0.88,0.5,0.33,0.48,0.4,0.29,0.5,0.29,0.55,0.33,0.58,0.48,0.4,0.88,0.55,0.48,0.29,0.48,0.44,0.33,0.4,0.29,0.44,0.42,0.25" style="fill:rgb(0,0,0);font-family:URWPalladioL-Roma;font-size:8.97px;stroke:none;">1. Ren, P.; Liu, Y.; He, J.; Lv, T.; Gao, J.; Xu, G. Recent advances in inorganic material thermoelectrics.</text>
   <text y="611.554" x="497.414,500.46,505.545,509.605,512.998,517.571" svgx:width="0.33,0.56,0.44,0.39,0.5,0.25" style="fill:rgb(0,0,0);font-family:URWPalladioL-Ital;font-size:8.97px;stroke:none;">Inorg.</text>
   <text y="624.465" x="97.755,103.736,108.219,111.707,118.683,120.92550000000001,124.062,129.048,132.374,136.355,141.341,144.326" svgx:width="0.67,0.5,0.39,0.78,0.25,0.55,0.56,0.39,0.44,0.56,0.33,0.25" style="fill:rgb(0,0,0);font-family:URWPalladioL-Ital;font-size:8.97px;stroke:none;">Chem. Front.</text>
   <text y="624.465" x="149.705,154.188,158.671,163.155" svgx:width="0.5,0.5,0.5,0.5" style="fill:rgb(0,0,0);font-family:URWPalladioL-Bold;font-size:8.97px;stroke:none;">2018</text>
   <text y="624.465" x="167.638" svgx:width="0.25" style="fill:rgb(0,0,0);font-family:URWPalladioL-Roma;font-size:8.97px;stroke:none;">,</text>
   <text y="624.465" x="172.121" svgx:width="0.5" style="fill:rgb(0,0,0);font-family:URWPalladioL-Ital;font-size:8.97px;stroke:none;">5</text>
   <text y="624.465" x="176.604,178.84650000000002,181.087,185.57,190.054,194.537,199.02,203.503,207.986,212.47,216.953,221.436,223.6785,226.816" svgx:width="0.25,0.55,0.5,0.5,0.5,0.5,0.5,0.5,0.5,0.5,0.5,0.25,0.55,0.33" style="fill:rgb(0,0,0);font-family:URWPalladioL-Roma;font-size:8.97px;stroke:none;">, 2380–2398. [</text>
   <text y="624.465" x="229.802,236.159,239.539,244.435,248.237,252.038,258.028,262.323" svgx:width="0.71,0.4,0.55,0.42,0.42,0.67,0.48,0.33" style="fill:rgb(8,117,183);font-family:URWPalladioL-Roma;font-size:8.97px;stroke:none;">CrossRef</text>
   <text y="624.465" x="265.309" svgx:width="0.33" style="fill:rgb(0,0,0);font-family:URWPalladioL-Roma;font-size:8.97px;stroke:none;">]</text>
   <text y="637.377" x="76.535,81.018,83.26050000000001,98.05,102.628,109.956,114.35,119.464,123.858,126.10050000000001,127.619,132.232,134.428,136.6705,138.418,144.279,149.393,154.691,156.9335,158.452,161.378,163.575,165.8175,167.564,172.599,176.993,182.107,184.3495,185.868,190.736,192.933,195.1755,196.922,202.291,204.848,207.09050000000002,208.609,213.978,216.22050000000002,217.739,226.139,230.041,234.838,242.597,247.878,251.191,255.4,260.514,264.723,269.837,273.563,276.12,281.085,285.3906,286.858,290.162,294.371,299.335,301.892,306.101,315.003,319.8,322.7601,324.291,327.155,332.269,336.478,339.949,347.708,352.506,356.715,359.272,363.481,367.382,370.247,373.718,376.275,380.2218,381.741,384.605,388.814,392.716,397.83,402.944,407.741,410.298,415.096,419.982,424.867,427.1095,429.859,438.171,442.565,445.429,449.638,453.109,455.666,460.06,462.617,466.342,468.5845,470.244,474.637,479.918,485.199,487.757,490.314,494.215,498.609,501.473,504.03,508.828,513.942,517.668" svgx:width="0.5,0.25,0.55,0.61,0.83,0.5,0.58,0.5,0.25,0.55,0.52,0.25,0.25,0.55,0.67,0.58,0.6,0.25,0.55,0.33,0.25,0.25,0.55,0.67,0.5,0.58,0.25,0.55,0.67,0.25,0.25,0.55,0.61,0.29,0.25,0.55,0.61,0.25,0.55,0.78,0.44,0.55,0.88,0.6,0.4,0.48,0.58,0.48,0.58,0.42,0.29,0.56,0.48,0.55,0.4,0.48,0.56,0.29,0.48,0.83,0.55,0.33,0.55,0.33,0.58,0.48,0.4,0.88,0.55,0.48,0.29,0.48,0.44,0.33,0.4,0.29,0.44,0.55,0.33,0.48,0.44,0.58,0.58,0.55,0.29,0.55,0.56,0.56,0.25,0.55,0.95,0.5,0.33,0.48,0.4,0.29,0.5,0.29,0.42,0.25,0.55,0.5,0.6,0.6,0.29,0.29,0.44,0.5,0.33,0.29,0.55,0.58,0.42,0.25" style="fill:rgb(0,0,0);font-family:URWPalladioL-Roma;font-size:8.97px;stroke:none;">2. Twaha, S.; Zhu, J.; Yan, Y.; Li, B. Acomprehensive reviewof thermoelectric technology: Materials, applications,</text>
   <text y="650.289" x="98.05,105.967,110.863,116.341,120.636,123.246,125.855,128.464,133.682,138.7052,140.909,145.393,150.611,156.0827,158.331,163.72,168.015,171.557,174.542,179.438,182.98,190.897,195.38,200.599,204.58,208.8856,211.116,213.726,221.643,227.032,230.412,235.308,240.374,244.669,252.586,256.881,262.099,265.022" svgx:width="0.88,0.55,0.61,0.48,0.29,0.29,0.29,0.58,0.56,0.55,0.5,0.58,0.61,0.55,0.6,0.48,0.4,0.33,0.55,0.4,0.88,0.5,0.58,0.44,0.48,0.55,0.29,0.88,0.6,0.4,0.55,0.56,0.48,0.88,0.48,0.58,0.33,0.25" style="fill:rgb(0,0,0);font-family:URWPalladioL-Roma;font-size:8.97px;stroke:none;">modelling and performance improvement.</text>
   <text y="650.289" x="270.4,276.381,279.869,284.854,288.342,294.322,296.5645,299.702,304.688,309.673,313.161,316.147,320.128,322.62,327.606,329.8485,332.985,338.464,343.449,346.937,350.264,354.747,359.232,361.472,367.452,370.94,374.93" svgx:width="0.67,0.39,0.56,0.39,0.72,0.25,0.55,0.56,0.56,0.39,0.33,0.44,0.28,0.56,0.25,0.55,0.61,0.56,0.39,0.39,0.5,0.5,0.55,0.67,0.39,0.5,0.25" style="fill:rgb(0,0,0);font-family:URWPalladioL-Ital;font-size:8.97px;stroke:none;">Renew. Sustain. Energy Rev.</text>
   <text y="650.289" x="380.309,384.792,389.275,393.759" svgx:width="0.5,0.5,0.5,0.5" style="fill:rgb(0,0,0);font-family:URWPalladioL-Bold;font-size:8.97px;stroke:none;">2016</text>
   <text y="650.289" x="398.242" svgx:width="0.25" style="fill:rgb(0,0,0);font-family:URWPalladioL-Roma;font-size:8.97px;stroke:none;">,</text>
   <text y="650.289" x="402.725,407.208" svgx:width="0.5,0.5" style="fill:rgb(0,0,0);font-family:URWPalladioL-Ital;font-size:8.97px;stroke:none;">65</text>
   <text y="650.289" x="411.691,413.9335,416.174,420.657,425.141,429.624,434.107,438.59,443.074,447.557,449.7995,452.937" svgx:width="0.25,0.55,0.5,0.5,0.5,0.5,0.5,0.5,0.5,0.25,0.55,0.33" style="fill:rgb(0,0,0);font-family:URWPalladioL-Roma;font-size:8.97px;stroke:none;">, 698–726. [</text>
   <text y="650.289" x="455.922,462.28,465.66,470.556,474.357,478.159,484.149,488.444" svgx:width="0.71,0.4,0.55,0.42,0.42,0.67,0.48,0.33" style="fill:rgb(8,117,183);font-family:URWPalladioL-Roma;font-size:8.97px;stroke:none;">CrossRef</text>
   <text y="650.289" x="491.429" svgx:width="0.33" style="fill:rgb(0,0,0);font-family:URWPalladioL-Roma;font-size:8.97px;stroke:none;">]</text>
   <text y="663.2" x="76.535,81.018,83.26050000000001,98.054,104.896,109.791,112.401,117.879,121.681,129.598,132.207,137.686,139.9285,142.169,149.629,151.871,154.857" svgx:width="0.5,0.25,0.55,0.76,0.55,0.29,0.61,0.42,0.88,0.29,0.61,0.25,0.55,0.83,0.25,0.33,0.25" style="fill:rgb(0,0,0);font-family:URWPalladioL-Roma;font-size:8.97px;stroke:none;">3. Goldsmid, H.J.</text>
   <text y="663.2" x="159.335,162.321,167.306,170.292,173.619,177.6,182.083,187.068,190.717,193.703,196.196,200.177,205.2002,207.404,210.39,214.33679999999998,216.612,222.091,226.574,230.062,233.55,240.526,244.507,247.995,250.487,253.975,257.625,260.611,264.098,266.591,270.24,272.733,275.719" svgx:width="0.33,0.56,0.33,0.39,0.44,0.5,0.56,0.41,0.33,0.28,0.44,0.56,0.55,0.33,0.44,0.55,0.61,0.5,0.39,0.39,0.78,0.44,0.39,0.28,0.39,0.41,0.33,0.39,0.28,0.41,0.28,0.33,0.5" style="fill:rgb(0,0,0);font-family:URWPalladioL-Ital;font-size:8.97px;stroke:none;">Introduction to Thermoelectricity</text>
   <text y="663.2" x="280.2,282.4425,284.683,289.391,294.779,298.321,300.93,306.149,311.134,315.429,318.971,321.2135,324.351,329.829,334.124,337.666,340.275,342.884,348.103,350.3455,352.586,359.427,363.722,367.264,375.181,379.664,384.883,388.873,391.1155,393.356,397.839,402.322,406.806,411.289" svgx:width="0.25,0.55,0.52,0.6,0.4,0.29,0.58,0.56,0.48,0.4,0.25,0.55,0.61,0.48,0.4,0.29,0.29,0.58,0.25,0.55,0.76,0.48,0.4,0.88,0.5,0.58,0.56,0.25,0.55,0.5,0.5,0.5,0.5,0.25" style="fill:rgb(0,0,0);font-family:URWPalladioL-Roma;font-size:8.97px;stroke:none;">; Springer: Berlin, Germany, 2016.</text>
   <text y="676.112" x="76.535,81.018,83.26050000000001,98.05,105.413,109.652,111.89450000000001,114.104,117.051,119.263,121.50550000000001,123.723,128.334,131.83,134.405,137.29,140.175,142.41750000000002,144.636,149.397,151.609,159.981,162.2235,164.433,171.318,176.725,181.725,186.15,191.301,195.23,199.469,203.2364,205.46,208.036,213.2386,215.425,218.31,223.461,227.7,231.196,239.01,243.842,248.081,250.657,254.896,258.825,261.71,265.206,267.781,271.7278,273.949,281.764,286.189,289.074,293.313,296.809,299.384,303.809,306.384,310.1514,312.375,315.712,319.951,323.703,327.942,332.367,335.704,339.633,344.784,347.0265,350.138,355.545,360.368,365.2,370.121,372.696,377.847,382.87019999999995,385.015,389.909,394.334,398.263,403.28619999999995,405.423,409.848,414.998,420.4697,422.644,430.459,435.291,440.291,442.866,448.017,453.04019999999997,455.176,458.123,462.955,466.451,473.832,478.257,481.593,487.0" svgx:width="0.5,0.25,0.55,0.83,0.48,0.25,0.55,0.33,0.25,0.25,0.55,0.61,0.4,0.29,0.33,0.33,0.25,0.55,0.61,0.25,0.95,0.25,0.55,0.78,0.61,0.56,0.5,0.58,0.44,0.48,0.42,0.55,0.29,0.58,0.55,0.33,0.58,0.48,0.4,0.88,0.55,0.48,0.29,0.48,0.44,0.33,0.4,0.29,0.44,0.55,0.88,0.5,0.33,0.48,0.4,0.29,0.5,0.29,0.42,0.55,0.4,0.48,0.42,0.48,0.5,0.4,0.44,0.58,0.25,0.55,0.61,0.55,0.55,0.56,0.29,0.58,0.56,0.55,0.55,0.5,0.44,0.56,0.55,0.5,0.58,0.61,0.55,0.88,0.55,0.56,0.29,0.58,0.56,0.55,0.33,0.55,0.4,0.83,0.5,0.4,0.61,0.25" style="fill:rgb(0,0,0);font-family:URWPalladioL-Roma;font-size:8.97px;stroke:none;">4. He, J.; Tritt, T.M. Advances in thermoelectric materials research: Looking back and moving forward.</text>
   <text y="676.112" x="492.351,497.272,500.873,503.334,506.776,511.697,515.299" svgx:width="0.56,0.41,0.28,0.39,0.56,0.41,0.39" style="fill:rgb(0,0,0);font-family:URWPalladioL-Ital;font-size:8.97px;stroke:none;">Science</text>
   <text y="689.023" x="98.05,102.533,107.016,111.5" svgx:width="0.5,0.5,0.5,0.5" style="fill:rgb(0,0,0);font-family:URWPalladioL-Bold;font-size:8.97px;stroke:none;">2017</text>
   <text y="689.023" x="115.983" svgx:width="0.25" style="fill:rgb(0,0,0);font-family:URWPalladioL-Roma;font-size:8.97px;stroke:none;">,</text>
   <text y="689.023" x="120.466,124.949,129.432" svgx:width="0.5,0.5,0.5" style="fill:rgb(0,0,0);font-family:URWPalladioL-Ital;font-size:8.97px;stroke:none;">357</text>
   <text y="689.023" x="133.916,136.1585,138.399,142.694,147.177,151.661,156.646,161.129,165.612,170.095,174.579,176.82150000000001,179.958" svgx:width="0.25,0.55,0.48,0.5,0.5,0.56,0.5,0.5,0.5,0.5,0.25,0.55,0.33" style="fill:rgb(0,0,0);font-family:URWPalladioL-Roma;font-size:8.97px;stroke:none;">, eaak9997. [</text>
   <text y="689.023" x="182.944,189.301,192.682,197.577,201.379,205.181,211.171,215.465" svgx:width="0.71,0.4,0.55,0.42,0.42,0.67,0.48,0.33" style="fill:rgb(8,117,183);font-family:URWPalladioL-Roma;font-size:8.97px;stroke:none;">CrossRef</text>
   <text y="689.023" x="218.451,221.4111,223.679" svgx:width="0.33,0.55,0.33" style="fill:rgb(0,0,0);font-family:URWPalladioL-Roma;font-size:8.97px;stroke:none;">] [</text>
   <text y="689.023" x="226.664,232.08,237.487,242.445,250.928,255.222" svgx:width="0.6,0.6,0.55,0.95,0.48,0.61" style="fill:rgb(8,117,183);font-family:URWPalladioL-Roma;font-size:8.97px;stroke:none;">PubMed</text>
   <text y="689.023" x="260.701" svgx:width="0.33" style="fill:rgb(0,0,0);font-family:URWPalladioL-Roma;font-size:8.97px;stroke:none;">]</text>
   <text y="701.935" x="76.535,81.018,83.26050000000001,98.05,103.327,107.9,113.223,115.4655,117.75,123.85,126.137,128.3795,130.664,136.188,141.181,146.696,152.284,156.665,159.326,161.5685,163.854,169.442,171.728,173.97050000000002,176.255,184.907,189.48,191.7225,194.007,199.119,201.406,203.6485,205.933,211.521,214.183,219.697,221.9395,224.225,232.547,234.834,237.0765,239.361,242.406,247.4,251.278,256.6,259.262,261.5045,263.789,270.767,273.054,275.2965,277.581,285.903,290.476,295.799,300.884,303.1265,305.411,313.02,315.307,317.5495,319.834,325.422,329.995,335.318,337.5605,339.845,344.948,347.235,349.4775,351.762,360.084,364.657,369.98,375.065,377.3075,379.592,386.671,388.957,391.1995,393.484,399.969,405.292,409.672,414.995,417.2375,419.522,426.501,428.787,431.0295,433.323,439.433,443.804,449.127,451.3695,453.663,459.764,462.0065,464.291,469.879,474.598,480.095,484.475,488.088,490.749,498.825,503.206,508.529,511.51,516.083" svgx:width="0.5,0.25,0.55,0.67,0.5,0.58,0.25,0.55,0.67,0.25,0.25,0.55,0.6,0.55,0.6,0.61,0.48,0.29,0.25,0.55,0.61,0.25,0.25,0.55,0.95,0.5,0.25,0.55,0.67,0.25,0.25,0.55,0.61,0.29,0.6,0.25,0.55,1.0,0.25,0.25,0.55,0.33,0.55,0.42,0.58,0.29,0.25,0.55,0.76,0.25,0.25,0.55,1.0,0.5,0.58,0.56,0.25,0.55,0.83,0.25,0.25,0.55,0.61,0.5,0.58,0.25,0.55,0.67,0.25,0.25,0.55,1.0,0.5,0.58,0.56,0.25,0.55,0.77,0.25,0.25,0.55,0.71,0.58,0.48,0.58,0.25,0.55,0.76,0.25,0.25,0.55,0.67,0.48,0.58,0.25,0.55,0.67,0.25,0.55,0.61,0.52,0.6,0.48,0.4,0.29,0.88,0.48,0.58,0.33,0.5,0.29" style="fill:rgb(0,0,0);font-family:URWPalladioL-Roma;font-size:8.97px;stroke:none;">5. Yan, X.; Poudel, B.; Ma, Y.; Liu, W.; Joshi, G.; Wang, H.; Lan, Y.; Wang, D.; Chen, G.; Ren, Z. Experimental</text>
   <text y="714.847" x="98.05,101.928,104.909,110.424,116.012,118.674,123.054,126.8214,129.52,134.514,139.7166,142.434,147.007,152.33,154.991,158.869,163.863,166.844,170.292,175.286,180.782,183.444,187.39079999999998,190.093,193.074,198.397,202.778,206.39,214.466,219.46,223.84,226.502,230.883,234.943,237.925,241.537,244.199,248.1458,250.857,256.344,259.801,264.795,270.291,274.672,278.285,281.266,283.928,288.308,292.0754,294.774,299.347,304.67,310.1417,312.846,316.724,319.706,323.254,328.769,332.83,335.811,341.326,344.774,349.155,352.9224,355.621,360.614,363.5741,366.257,371.58,374.626,377.607,382.692,388.189,392.49460000000005,395.158,400.746" svgx:width="0.42,0.33,0.6,0.61,0.29,0.48,0.42,0.55,0.55,0.58,0.55,0.5,0.58,0.29,0.42,0.55,0.33,0.4,0.55,0.6,0.29,0.44,0.55,0.33,0.58,0.48,0.4,0.88,0.55,0.48,0.29,0.48,0.44,0.33,0.4,0.29,0.44,0.55,0.6,0.4,0.55,0.6,0.48,0.4,0.33,0.29,0.48,0.42,0.55,0.5,0.58,0.61,0.55,0.42,0.33,0.4,0.6,0.44,0.33,0.6,0.4,0.48,0.42,0.55,0.55,0.33,0.55,0.58,0.33,0.33,0.56,0.6,0.48,0.55,0.61,0.29" style="fill:rgb(0,0,0);font-family:URWPalladioL-Roma;font-size:8.97px;stroke:none;">studies on anisotropic thermoelectric properties and structures of n-type Bi</text>
   <text y="716.638" x="403.406" svgx:width="0.5" style="fill:rgb(0,0,0);font-family:URWPalladioL-Roma;font-size:6.97px;stroke:none;">2</text>
   <text y="714.847" x="407.391,412.174" svgx:width="0.61,0.48" style="fill:rgb(0,0,0);font-family:URWPalladioL-Roma;font-size:8.97px;stroke:none;">Te</text>
   <text y="716.638" x="416.553,420.04,421.7825,424.224" svgx:width="0.5,0.25,0.55,0.5" style="fill:rgb(0,0,0);font-family:URWPalladioL-Roma;font-size:6.97px;stroke:none;">2. 7</text>
   <text y="714.847" x="428.209,433.011" svgx:width="0.52,0.48" style="fill:rgb(0,0,0);font-family:URWPalladioL-Roma;font-size:8.97px;stroke:none;">Se</text>
   <text y="716.638" x="437.391,440.878,442.6205,445.062" svgx:width="0.5,0.25,0.55,0.5" style="fill:rgb(0,0,0);font-family:URWPalladioL-Roma;font-size:6.97px;stroke:none;">0. 3</text>
   <text y="714.847" x="449.048" svgx:width="0.25" style="fill:rgb(0,0,0);font-family:URWPalladioL-Roma;font-size:8.97px;stroke:none;">.</text>
   <text y="714.847" x="455.522,462.637,466.698,471.783,475.7298,478.432,483.517,487.075,490.12,493.166" svgx:width="0.78,0.44,0.56,0.44,0.55,0.56,0.39,0.33,0.33,0.25" style="fill:rgb(0,0,0);font-family:URWPalladioL-Ital;font-size:8.97px;stroke:none;">Nano Lett.</text>
   <text y="714.847" x="499.642,504.125,508.608,513.092" svgx:width="0.5,0.5,0.5,0.5" style="fill:rgb(0,0,0);font-family:URWPalladioL-Bold;font-size:8.97px;stroke:none;">2010</text>
   <text y="714.847" x="517.575" svgx:width="0.25" style="fill:rgb(0,0,0);font-family:URWPalladioL-Roma;font-size:8.97px;stroke:none;">,</text>
   <text y="727.758" x="97.602,102.085" svgx:width="0.5,0.5" style="fill:rgb(0,0,0);font-family:URWPalladioL-Ital;font-size:8.97px;stroke:none;">10</text>
   <text y="727.758" x="106.569,108.81150000000001,111.052,115.535,120.019,124.502,128.985,133.468,137.951,142.435,146.918,151.401,153.64350000000002,156.781" svgx:width="0.25,0.55,0.5,0.5,0.5,0.5,0.5,0.5,0.5,0.5,0.5,0.25,0.55,0.33" style="fill:rgb(0,0,0);font-family:URWPalladioL-Roma;font-size:8.97px;stroke:none;">, 3373–3378. [</text>
   <text y="727.758" x="159.767,166.124,169.504,174.4,178.202,182.003,187.993,192.288" svgx:width="0.71,0.4,0.55,0.42,0.42,0.67,0.48,0.33" style="fill:rgb(8,117,183);font-family:URWPalladioL-Roma;font-size:8.97px;stroke:none;">CrossRef</text>
   <text y="727.758" x="195.274,198.2341,200.501" svgx:width="0.33,0.55,0.33" style="fill:rgb(0,0,0);font-family:URWPalladioL-Roma;font-size:8.97px;stroke:none;">] [</text>
   <text y="727.758" x="203.487,208.903,214.309,219.268,227.75,232.045" svgx:width="0.6,0.6,0.55,0.95,0.48,0.61" style="fill:rgb(8,117,183);font-family:URWPalladioL-Roma;font-size:8.97px;stroke:none;">PubMed</text>
   <text y="727.758" x="237.523" svgx:width="0.33" style="fill:rgb(0,0,0);font-family:URWPalladioL-Roma;font-size:8.97px;stroke:none;">]</text>
   <text y="740.67" x="76.535,81.018,83.26050000000001,98.05,106.466,111.813,114.05550000000001,116.291,119.244,121.461,123.7035,125.93,130.586,135.933,141.094,143.3365,145.564,150.485,152.702,154.9445,157.18,162.536,166.784,169.365,171.60750000000002,173.834,181.877,184.094,189.512,191.729,193.97150000000002,196.198,203.576,208.924,213.358,218.519,223.449,225.69150000000002,227.919,233.337,235.554,237.7965,240.032,245.947,251.294,253.53650000000002,255.763,263.806,266.023,268.26550000000003,270.502,276.416,281.577,286.011,291.172,296.103,298.3455,300.572,307.542,309.7845,312.012,317.368,322.21,324.79,329.721,335.05,339.981,343.483,346.827,351.668,354.24,358.54560000000004,360.749,365.91,370.344,375.505,380.347,383.229,388.576,393.48,397.78560000000004,399.989,405.354,407.925,418.017,420.97,425.812,429.40000000000003,431.567,436.958,441.206,445.782,448.362,453.266,455.847,460.1526,462.347,465.238,470.399,474.647,478.149,485.98,490.812,495.06,497.641,501.888,505.826,508.716,512.219,514.8" svgx:width="0.5,0.25,0.55,1.0,0.6,0.25,0.55,0.33,0.25,0.25,0.55,0.52,0.6,0.58,0.25,0.55,0.67,0.25,0.25,0.55,0.6,0.48,0.29,0.25,0.55,1.0,0.25,0.61,0.25,0.25,0.55,0.83,0.6,0.5,0.58,0.56,0.25,0.55,0.61,0.25,0.25,0.55,0.67,0.6,0.25,0.55,1.0,0.25,0.25,0.55,0.67,0.58,0.5,0.58,0.56,0.25,0.55,0.79,0.25,0.55,0.6,0.55,0.29,0.56,0.6,0.56,0.4,0.4,0.55,0.29,0.48,0.55,0.58,0.5,0.58,0.55,0.33,0.6,0.55,0.48,0.55,0.61,0.29,0.88,0.33,0.55,0.4,0.55,0.61,0.48,0.52,0.29,0.55,0.29,0.48,0.55,0.33,0.58,0.48,0.4,0.88,0.55,0.48,0.29,0.48,0.44,0.33,0.4,0.29,0.44" style="fill:rgb(0,0,0);font-family:URWPalladioL-Roma;font-size:8.97px;stroke:none;">6. Wu, J.; Sun, Y.; Pei, W.B.; Huang, L.; Xu, W.; Zhang, Q. Polypyrrole nanotube ﬁlmfor ﬂexible thermoelectric</text>
   <text y="753.581" x="98.05,102.533,107.922,113.311,115.92,118.529,122.51,126.994,129.917,132.526,137.421,142.64" svgx:width="0.5,0.6,0.6,0.29,0.29,0.44,0.5,0.33,0.29,0.55,0.58,0.25" style="fill:rgb(0,0,0);font-family:URWPalladioL-Roma;font-size:8.97px;stroke:none;">application.</text>
   <text y="753.581" x="148.019,153.004,157.488,162.473,165.459,169.942,172.1845,175.322,183.786,187.274,190.26" svgx:width="0.56,0.5,0.56,0.33,0.5,0.25,0.55,0.94,0.39,0.33,0.25" style="fill:rgb(0,0,0);font-family:URWPalladioL-Ital;font-size:8.97px;stroke:none;">Synth. Met.</text>
   <text y="753.581" x="195.639,200.122,204.605,209.089" svgx:width="0.5,0.5,0.5,0.5" style="fill:rgb(0,0,0);font-family:URWPalladioL-Bold;font-size:8.97px;stroke:none;">2014</text>
   <text y="753.581" x="213.572" svgx:width="0.25" style="fill:rgb(0,0,0);font-family:URWPalladioL-Roma;font-size:8.97px;stroke:none;">,</text>
   <text y="753.581" x="218.055,222.538,227.021" svgx:width="0.5,0.5,0.5" style="fill:rgb(0,0,0);font-family:URWPalladioL-Ital;font-size:8.97px;stroke:none;">196</text>
   <text y="753.581" x="231.505,233.7475,235.988,240.471,244.955,249.438,253.921,258.404,262.887,267.371,269.6135,272.751" svgx:width="0.25,0.55,0.5,0.5,0.5,0.5,0.5,0.5,0.5,0.25,0.55,0.33" style="fill:rgb(0,0,0);font-family:URWPalladioL-Roma;font-size:8.97px;stroke:none;">, 173–177. [</text>
   <text y="753.581" x="275.736,282.094,285.474,290.369,294.171,297.973,303.963,308.257" svgx:width="0.71,0.4,0.55,0.42,0.42,0.67,0.48,0.33" style="fill:rgb(8,117,183);font-family:URWPalladioL-Roma;font-size:8.97px;stroke:none;">CrossRef</text>
   <text y="753.581" x="311.243" svgx:width="0.33" style="fill:rgb(0,0,0);font-family:URWPalladioL-Roma;font-size:8.97px;stroke:none;">]</text>
  </g>
 </g>
</svg>
