<?xml version="1.0" encoding="UTF-8"?>
<svg height="597.338" width="4117.773" xmlns="http://www.w3.org/2000/svg">
 <g id="page" xmlns:svgx="http://www.xml-cml.org/schema/svgx">
  <g begin="text">
   <text y="514.091" x="51.817,56.393,61.399,65.5434,67.52,71.886,76.196,80.855,88.447,92.757,95.774,99.14,103.4438,105.39,110.049,114.858,117.875,120.287,127.879,130.292,134.345,138.572,141.589,144.001,148.66,153.666,157.1728,159.133,166.212,170.415,173.78,177.9244,179.826,184.741,189.052,192.417,195.086,199.744,203.109,210.702,215.012,219.7143,221.72,226.636,230.258,232.67,237.676,241.97979999999998,244.0,247.017,252.023,256.1674,258.173,261.795,264.812,269.039,274.046,278.961,283.188,286.462,291.16429999999997,293.208,297.949,302.864,305.276,309.364,312.73,317.388,322.303,325.32,327.732,335.325,337.653,341.706,346.017,350.7193,352.79,358.659,363.317,367.78020000000004,369.798,374.539,378.766,382.389,384.801,388.3078,390.207,393.829,398.139,401.156,402.9891,404.889,411.968,414.38,417.397" svgx:width="0.55,0.6,0.52,0.55,0.54,0.52,0.56,0.92,0.52,0.36,0.41,0.54,0.55,0.56,0.59,0.36,0.29,0.92,0.29,0.49,0.51,0.36,0.29,0.56,0.6,0.44,0.55,0.85,0.52,0.41,0.52,0.55,0.59,0.52,0.41,0.32,0.56,0.41,0.92,0.52,0.59,0.55,0.59,0.44,0.29,0.6,0.54,0.55,0.36,0.6,0.52,0.55,0.44,0.36,0.51,0.6,0.59,0.51,0.41,0.59,0.55,0.57,0.59,0.29,0.55,0.41,0.56,0.59,0.36,0.29,0.92,0.29,0.49,0.52,0.59,0.55,0.71,0.56,0.56,0.55,0.57,0.51,0.44,0.29,0.44,0.55,0.44,0.52,0.36,0.23,0.55,0.85,0.29,0.36,0.6" style="fill:rgb(0,0,0);font-family:AdvOT863180fb;font-size:7.97px;stroke:none;">The geometry optimizations were performed using the standard bulk-optimized DZP basis set, with</text>
   <text y="524.579" x="39.855,44.165,49.172,53.482,56.847,61.331,65.6348,68.371,71.993,77.0,79.412,82.203,85.07220000000001,87.873,92.788,97.015,100.381,104.483,112.076,116.386,119.403,123.714,126.9817,129.654,133.276,137.586,140.45520000000002,143.317,146.208,150.6712,153.521,157.773,162.762,167.3049,170.189,177.781,182.092,187.3522,190.2,194.428,199.434,204.1363,206.981,210.603,215.519,217.931,220.343,223.2122,226.03,231.036,235.694,239.06,246.3924,249.329,252.952,257.262,260.1312,262.936,265.953,270.4162,273.197,277.938,279.836,284.578,289.319,291.1521,293.889,298.465,303.471,307.6154,310.443,314.322,318.98,323.987,327.609,330.626,334.853,339.86,342.877,346.242,350.121,355.036,358.402,361.634,365.945,370.951,373.8202,376.714,380.909,385.485,392.8971,395.819,398.231,405.824,410.051,414.535,418.845" svgx:width="0.52,0.6,0.52,0.41,0.54,0.54,0.55,0.44,0.6,0.29,0.32,0.36,0.55,0.59,0.51,0.41,0.51,0.92,0.52,0.36,0.52,0.41,0.55,0.44,0.52,0.36,0.55,0.36,0.56,0.55,0.57,0.57,0.57,0.55,0.92,0.52,0.66,0.55,0.51,0.6,0.59,0.55,0.44,0.59,0.29,0.29,0.36,0.55,0.6,0.56,0.41,0.92,0.55,0.44,0.52,0.36,0.55,0.36,0.56,0.55,0.57,0.23,0.57,0.57,0.23,0.55,0.55,0.6,0.52,0.55,0.47,0.56,0.6,0.44,0.36,0.51,0.6,0.36,0.41,0.47,0.59,0.41,0.41,0.52,0.6,0.36,0.55,0.52,0.55,0.93,0.55,0.29,0.92,0.51,0.54,0.52,0.44" style="fill:rgb(0,0,0);font-family:AdvOT863180fb;font-size:7.97px;stroke:none;">energy shift parameter set to 100 meV and split norm set to 0.25. The constant-current STM images</text>
   <text y="535.011" x="39.855,46.934,51.137,54.502,58.6464,62.249,67.164,70.412,75.071,79.986,84.901,88.78,93.091,97.79329999999999,101.536,106.277,110.504,114.127,118.437,123.13929999999999,126.82,131.478,136.26000000000002,139.973,142.99,147.996,152.1404,155.79,159.928,164.238,167.604,171.226,175.884,178.553,181.222,184.587,190.713,194.94,202.533,206.76,211.766,216.548,220.247,224.475,229.39,234.305,237.67,242.074,246.649,249.061,256.654,260.881,263.898,266.31,270.968,275.75,279.433" svgx:width="0.85,0.52,0.41,0.52,0.55,0.59,0.41,0.56,0.59,0.59,0.47,0.52,0.59,0.55,0.57,0.51,0.44,0.52,0.59,0.55,0.56,0.6,0.55,0.36,0.6,0.52,0.55,0.55,0.52,0.41,0.44,0.56,0.32,0.32,0.41,0.74,0.51,0.92,0.51,0.6,0.6,0.55,0.51,0.59,0.59,0.41,0.56,0.55,0.29,0.92,0.51,0.36,0.29,0.56,0.6,0.55,0.35" style="fill:rgb(0,0,0);font-family:AdvOT863180fb;font-size:7.97px;stroke:none;">were produced based on the Tersoff-Hamann approximation [</text>
   <text y="535.011" x="282.388" svgx:width="0.57" style="fill:rgb(0,122,173);font-family:AdvOT863180fb;font-size:7.97px;stroke:none;">7</text>
   <text y="535.011" x="287.15,289.93949999999995,293.556,298.471,302.093,304.505,309.512,313.8158,317.48,320.497,325.504,329.64840000000004,333.354,337.664,340.076,344.56,348.774,353.78,358.014,362.241,364.653,369.569,373.879,377.3858,380.974,385.201,390.208,394.9103,398.605,402.915,405.327,409.811,414.025,419.031" svgx:width="0.35,0.55,0.59,0.44,0.29,0.6,0.54,0.55,0.36,0.6,0.52,0.55,0.52,0.29,0.54,0.52,0.6,0.54,0.51,0.29,0.59,0.52,0.44,0.55,0.51,0.6,0.59,0.55,0.52,0.29,0.54,0.52,0.6,0.41" style="fill:rgb(0,0,0);font-family:AdvOT863180fb;font-size:7.97px;stroke:none;">] using the eigenvalues and eigen-</text>
   <text y="545.499" x="39.855,42.524,47.439,52.446,56.325,59.342,61.754,66.412,71.419,74.9258,76.817,81.475,84.02539999999999,86.001,89.018,94.025,98.16940000000001,100.117,105.333,109.991,114.998,120.004,123.369,127.68,132.686,136.913,146.264,150.574,155.221,160.136,164.363,167.381,169.793,174.451,179.233,181.242" svgx:width="0.32,0.59,0.6,0.47,0.36,0.29,0.56,0.6,0.44,0.55,0.56,0.32,0.55,0.36,0.6,0.52,0.55,0.64,0.56,0.6,0.6,0.41,0.52,0.6,0.51,0.92,0.52,0.58,0.59,0.51,0.36,0.29,0.56,0.6,0.55,0.35" style="fill:rgb(0,0,0);font-family:AdvOT863180fb;font-size:7.97px;stroke:none;">functions of the Kohn-Shamequation [</text>
   <text y="545.499" x="184.139" svgx:width="0.57" style="fill:rgb(0,122,173);font-family:AdvOT863180fb;font-size:7.97px;stroke:none;">8</text>
   <text y="545.499" x="188.901,191.69050000000001,193.606,196.275,200.934,204.2017,206.022,210.08669999999998,212.032,215.397,219.707,222.009,226.236,230.626,234.936,239.63830000000002,241.681,245.908,248.925,253.472,261.065,263.477,267.2229,269.119,272.741,275.758,279.124,284.039,287.918,290.935,295.85,299.216,303.526,305.3591,307.158,311.183,315.841,319.1087,320.991,324.008,329.015,331.427,334.9338,336.865,341.78,346.695,350.061,354.976,359.634,363.257,367.4014,369.235,376.314,380.45840000000004,382.331,387.246,391.556,394.921,397.59,402.249,405.614,413.207,417.517" svgx:width="0.35,0.55,0.32,0.56,0.41,0.55,0.51,0.55,0.41,0.52,0.29,0.51,0.55,0.52,0.59,0.55,0.51,0.36,0.56,0.92,0.29,0.47,0.55,0.44,0.36,0.41,0.59,0.47,0.36,0.59,0.41,0.52,0.23,0.55,0.5,0.56,0.41,0.55,0.36,0.6,0.29,0.44,0.55,0.59,0.59,0.41,0.59,0.56,0.44,0.52,0.55,0.85,0.52,0.55,0.59,0.52,0.41,0.32,0.56,0.41,0.92,0.52,0.59" style="fill:rgb(0,0,0);font-family:AdvOT863180fb;font-size:7.97px;stroke:none;">] for a relaxed atomic structure. For this purpose we performed</text>
   <text y="555.93" x="39.855,44.082,48.997,53.913,56.325,59.342,61.754,66.412,71.419,75.646,77.9573,80.105,84.415,89.331,93.475,96.84,100.72,104.947,107.359,111.238,116.153,118.565,122.793,125.81,128.222,132.828,137.61,139.915,144.83,148.452,150.864,155.871,160.1748,162.364,165.381,170.388,174.5324,176.764,179.995,184.305,186.718,190.945,195.359,199.669,204.37130000000002,206.641,210.868,213.885,218.432,226.025,228.437,232.18290000000002,234.362,237.985,241.002,244.367,249.282,253.161,256.179,261.094,264.351,268.4954,270.758,274.985,279.991,284.69329999999997,286.915,289.932,294.939,299.08340000000004,301.314,304.937,309.852,313.217,315.886,320.113,323.993,328.1374,330.34,334.998,339.808,342.825,345.237,352.829,355.241,359.295,363.605,368.3073,370.534,375.275,379.503,383.125,385.537,389.0438,391.226,394.849,399.159,402.02819999999997,404.209,407.226,411.105,416.021,419.038" svgx:width="0.51,0.59,0.59,0.29,0.36,0.29,0.56,0.6,0.51,0.29,0.55,0.52,0.59,0.5,0.41,0.47,0.51,0.29,0.47,0.59,0.29,0.51,0.36,0.29,0.56,0.6,0.55,0.59,0.44,0.29,0.6,0.54,0.55,0.36,0.6,0.52,0.55,0.41,0.52,0.29,0.51,0.55,0.52,0.59,0.55,0.51,0.36,0.56,0.92,0.29,0.47,0.55,0.44,0.36,0.41,0.59,0.47,0.36,0.59,0.41,0.52,0.55,0.51,0.6,0.59,0.55,0.36,0.6,0.52,0.55,0.44,0.59,0.41,0.32,0.51,0.47,0.52,0.55,0.56,0.59,0.36,0.29,0.92,0.29,0.49,0.52,0.59,0.55,0.57,0.51,0.44,0.29,0.44,0.55,0.44,0.52,0.36,0.55,0.36,0.47,0.59,0.36,0.41" style="fill:rgb(0,0,0);font-family:AdvOT863180fb;font-size:7.97px;stroke:none;">additional SCF-calculation using the relaxed atomic structure and the surface optimized basis set (cut-</text>
   <text y="566.418" x="39.855,44.513,47.182,49.7324,51.533,54.898,59.016,63.931,66.343,68.6543,70.468,73.137,77.795,81.0627,82.827,86.449,89.814,91.6471,93.428,98.343,101.708,103.5411,105.276,109.503,114.51,119.2123,121.093,126.008,129.373,134.031,137.397,142.138,144.55,147.567,151.794,154.206,157.7128,159.472,163.7,167.065,171.2094,172.965,178.054" svgx:width="0.56,0.32,0.32,0.55,0.41,0.51,0.59,0.29,0.29,0.55,0.32,0.56,0.41,0.55,0.44,0.41,0.23,0.55,0.59,0.41,0.23,0.55,0.51,0.6,0.59,0.55,0.59,0.41,0.56,0.41,0.57,0.29,0.36,0.51,0.29,0.44,0.55,0.51,0.41,0.52,0.55,0.61,0.44" style="fill:rgb(0,0,0);font-family:AdvOT863180fb;font-size:7.97px;stroke:none;">off radii for s-, p-, and d-orbitals are Rs</text>
   <text y="566.418" x="183.402" svgx:width="0.77" style="fill:rgb(0,0,0);font-family:AdvP4C4E74;font-size:7.97px;stroke:none;">¼</text>
   <text y="566.418" x="191.452,195.9949,197.858,202.774,207.432,212.438,215.376,217.2091,218.948,224.037,228.952" svgx:width="0.57,0.55,0.59,0.56,0.6,0.41,0.23,0.55,0.61,0.59,0.59" style="fill:rgb(0,0,0);font-family:AdvOT863180fb;font-size:7.97px;stroke:none;">9 Bohr, Rpd</text>
   <text y="566.418" x="235.559" svgx:width="0.77" style="fill:rgb(0,0,0);font-family:AdvP4C4E74;font-size:7.97px;stroke:none;">¼</text>
   <text y="566.418" x="243.609,247.521,252.0639,253.927,258.842,263.501,268.507,271.7747,273.543,276.212,280.87,284.1377,285.901,290.211,292.624,295.4932,297.353" svgx:width="0.57,0.57,0.55,0.59,0.56,0.6,0.41,0.55,0.32,0.56,0.41,0.55,0.52,0.29,0.36,0.55,0.35" style="fill:rgb(0,0,0);font-family:AdvOT863180fb;font-size:7.97px;stroke:none;">11 Bohr for Si) [</text>
   <text y="566.418" x="300.246,304.498" svgx:width="0.57,0.57" style="fill:rgb(0,122,173);font-family:AdvOT863180fb;font-size:7.97px;stroke:none;">10</text>
   <text y="566.418" x="309.26,312.194,314.0271,315.78,320.355,325.362,329.50640000000004,331.313,334.678,338.989,342.611,347.413,349.825,352.842,355.254,360.261,364.56480000000005,366.462,368.874,373.532,377.411,381.639,383.9503,385.737,390.652,394.962,399.968,403.591,406.003,409.02,413.3238,415.102,419.76" svgx:width="0.35,0.23,0.55,0.55,0.6,0.52,0.55,0.41,0.52,0.44,0.59,0.29,0.36,0.29,0.6,0.54,0.55,0.29,0.56,0.47,0.51,0.29,0.55,0.59,0.52,0.6,0.44,0.29,0.36,0.54,0.55,0.56,0.32" style="fill:rgb(0,0,0);font-family:AdvOT863180fb;font-size:7.97px;stroke:none;">]. The resulting local density of</text>
   <text y="576.85" x="39.855,44.165,46.577,50.887,54.766,57.784,61.057,65.715,70.722,73.134,76.8799,81.919,85.541,88.558,92.786,95.695,100.005,103.5118,108.564,111.581,115.634,121.503,127.371,131.682,134.5512,139.578,144.681,147.093,151.403,154.9098,159.931,167.009,171.212,174.578,178.7224,183.742,188.657,192.279,196.589,201.2913,206.418,209.309,213.7722,218.891,223.806,227.054,231.712,236.628,241.543,245.422,249.5664,254.662,257.68,262.686,266.8304,271.897,275.776,280.003,282.415,286.294,291.209,293.621,297.849,300.866,305.176,309.87829999999997,314.925,319.12,323.695,331.1071,336.297,338.709,346.302,350.529,354.891,359.202,362.7088,367.761,370.173,374.955,380.063,383.08,388.086,392.23040000000003,397.297,405.926,410.236,414.811" svgx:width="0.52,0.29,0.52,0.47,0.36,0.41,0.56,0.6,0.29,0.47,0.55,0.44,0.36,0.51,0.36,0.52,0.44,0.55,0.36,0.49,0.71,0.71,0.52,0.36,0.55,0.61,0.29,0.52,0.44,0.55,0.85,0.52,0.41,0.52,0.55,0.59,0.44,0.52,0.59,0.55,0.36,0.56,0.55,0.59,0.41,0.56,0.59,0.59,0.47,0.52,0.55,0.36,0.6,0.52,0.55,0.47,0.51,0.29,0.47,0.59,0.29,0.51,0.36,0.52,0.59,0.55,0.52,0.55,0.93,0.55,0.29,0.92,0.51,0.54,0.52,0.44,0.55,0.29,0.6,0.55,0.36,0.6,0.52,0.55,1.04,0.52,0.55,0.93" style="fill:rgb(0,0,0);font-family:AdvOT863180fb;font-size:7.97px;stroke:none;">electronic states (LDOS) ﬁles were used to produce the calculated STM images in the WSxM</text>
   <text y="587.338" x="39.856,43.478,48.136,50.91,53.928,60.775,65.002,68.368,72.5124,75.118" svgx:width="0.44,0.56,0.32,0.36,0.85,0.51,0.41,0.52,0.55,0.35" style="fill:rgb(0,0,0);font-family:AdvOT863180fb;font-size:7.97px;stroke:none;">software [</text>
   <text y="587.338" x="78.01" svgx:width="0.57" style="fill:rgb(0,122,173);font-family:AdvOT863180fb;font-size:7.97px;stroke:none;">9</text>
   <text y="587.338" x="82.772,85.706" svgx:width="0.35,0.23" style="fill:rgb(0,0,0);font-family:AdvOT863180fb;font-size:7.97px;stroke:none;">].</text>
  </g>
  <rect style="stroke:blue;stroke-width:0.3;" x="107.773" y="183.635" height="371.792" width="246.719" title="8"/>
  <text y="183.635" class="image" id="image.8.1" width="246" height="371" x="107.773">image.8.1.108_354.184_555</text>
  <rect style="stroke:blue;stroke-width:0.3;" x="107.773" y="183.635" height="371.792" width="246.719" title="8"/>
  <text y="183.635" class="image" id="image.8.2" width="246" height="371" x="107.773">image.8.2.108_354.184_555</text>
  <g begin="text">
   <text y="450.879" x="39.855,43.305,45.358,48.941,50.536,52.214,55.861" svgx:width="0.54,0.32,0.56,0.25,0.55,0.57,0.25" style="fill:rgb(0,0,0);font-family:AdvOTb83ee1dd.B;font-size:6.38px;stroke:none;">Fig. 6.</text>
   <text y="450.879" x="60.605,62.925,66.177,68.47380000000001,70.186,74.7,78.481,82.2452,83.906,89.746,93.329,97.11,100.426,102.2762,103.975,107.559,109.6006,111.345,113.666,117.517,120.8346,122.457,124.778,127.787,131.018,134.665,136.986,139.574,141.895" svgx:width="0.36,0.51,0.36,0.55,0.71,0.59,0.59,0.55,0.92,0.56,0.59,0.52,0.29,0.55,0.56,0.32,0.55,0.36,0.6,0.52,0.55,0.36,0.57,0.57,0.57,0.36,0.41,0.36,0.57" style="fill:rgb(0,0,0);font-family:AdvOT863180fb;font-size:6.38px;stroke:none;">(a) UBB model of the (110)-(5</text>
   <text y="450.879" code="1" x="147.232" svgx:width="0.77" style="fill:rgb(0,0,0);font-family:AdvP4C4E74;font-size:6.38px;stroke:none;">?</text>
   <text y="450.879" x="153.808,157.455,159.7518,161.405,164.192,166.047,167.902,169.758,172.742,176.325,180.153,181.872,185.124,188.975,192.73919999999998,194.402,197.851,201.167,203.755,209.596,212.847,216.699,218.554,222.335,229.78,232.566,236.347,238.936,240.989,244.24,247.224,250.54,253.326,254.7934,256.483,260.003,263.854,267.1716,268.842,272.094,274.415,277.998,283.839,286.6462,288.232,291.815,293.8566,295.545,297.866,301.717,305.0346,306.71,310.622,313.21,315.996,318.2928,319.976,323.228,327.079,330.8432,332.506,335.292,338.608,341.592,345.175,349.026,352.7902,354.504,356.825,359.833,363.064,366.711,369.00780000000003,370.718,372.573,375.825,379.052,382.367,384.956,387.76320000000004,389.427,392.679,395.267,398.5846,400.142,405.983,409.235,411.823,415.343,418.658" svgx:width="0.57,0.36,0.55,0.44,0.29,0.29,0.29,0.47,0.56,0.6,0.55,0.51,0.6,0.59,0.55,0.54,0.52,0.41,0.92,0.51,0.6,0.29,0.59,0.92,0.44,0.59,0.41,0.32,0.51,0.47,0.52,0.44,0.23,0.55,0.55,0.6,0.52,0.55,0.51,0.36,0.56,0.92,0.44,0.55,0.56,0.32,0.55,0.36,0.6,0.52,0.55,0.61,0.41,0.44,0.36,0.55,0.51,0.6,0.59,0.55,0.44,0.52,0.47,0.56,0.6,0.59,0.55,0.36,0.57,0.57,0.57,0.36,0.55,0.29,0.51,0.54,0.52,0.41,0.44,0.55,0.51,0.41,0.52,0.55,0.92,0.51,0.41,0.55,0.52,0.59" style="fill:rgb(0,0,0);font-family:AdvOT863180fb;font-size:6.38px;stroke:none;">8) silicon and germaniumsurfaces. The atoms of the ﬁrst and second (110) layers are marked</text>
   <text y="459.439" x="39.855,41.711,45.539,47.905,51.553,53.408,57.189,60.5066,62.872,66.124,69.975,73.7392,76.082,79.532,82.12,85.436,88.751,92.603,94.07039999999999,96.379,98.968,102.283,105.07,108.85,112.166,115.15,117.471,119.227,122.677,125.992,127.732,130.906,132.3734,134.704,138.887,142.668,146.449,148.305,150.625,152.481,156.064,159.915,163.167,165.0172,167.361,170.613,172.934,176.517,182.357,185.1642,187.431,190.683,194.534,198.29819999999998,200.641,203.892,206.213,209.797,215.637,218.4442,220.71,223.497,225.818,228.406,231.99,235.841,239.29,241.146,244.5912,246.79,249.576,253.428,255.283,257.449,259.66,262.976,266.7402,269.128,271.181,273.77,277.353,283.2226,285.456,287.776,291.628,294.943,296.798,299.4138,301.784,303.639,307.42,310.736,313.987,315.8372,318.169,320.024,323.276,325.597,327.918,329.773,332.757,336.07460000000003,338.466,342.247,345.83,348.616,350.472,352.792,354.648,358.231,362.082,364.8892,367.267,370.518,373.107,376.42460000000005,378.662,384.502,387.754,390.343,393.862,397.178,400.9422,403.267,405.123,408.95099999999996,411.318,413.906,417.222,421.003" svgx:width="0.29,0.6,0.55,0.57,0.29,0.59,0.52,0.55,0.51,0.6,0.59,0.55,0.54,0.41,0.52,0.52,0.6,0.23,0.55,0.41,0.52,0.44,0.59,0.52,0.47,0.36,0.29,0.54,0.52,0.29,0.54,0.23,0.55,0.66,0.59,0.59,0.29,0.36,0.29,0.56,0.6,0.51,0.29,0.55,0.51,0.36,0.56,0.92,0.44,0.55,0.51,0.6,0.59,0.55,0.51,0.36,0.56,0.92,0.44,0.55,0.44,0.36,0.41,0.56,0.6,0.54,0.29,0.54,0.55,0.44,0.6,0.29,0.32,0.36,0.52,0.59,0.55,0.32,0.41,0.56,0.92,0.55,0.36,0.6,0.52,0.29,0.41,0.55,0.29,0.59,0.52,0.51,0.29,0.55,0.29,0.51,0.36,0.36,0.29,0.47,0.52,0.55,0.59,0.56,0.44,0.29,0.36,0.29,0.56,0.6,0.44,0.55,0.51,0.41,0.52,0.55,0.92,0.51,0.41,0.55,0.52,0.59,0.55,0.29,0.6,0.55,0.41,0.52,0.59,0.23" style="fill:rgb(0,0,0);font-family:AdvOT863180fb;font-size:6.38px;stroke:none;">in blue and green, respectively. Additional atoms and atoms strongly shifted from their ideal lattice positions are marked in red.</text>
   <text y="468.0" x="39.855,42.176,45.823" svgx:width="0.36,0.57,0.36" style="fill:rgb(0,0,0);font-family:AdvOT863180fb;font-size:6.38px;stroke:none;">(b)</text>
   <text y="468.0" x="48.132" svgx:width="0.75" style="fill:rgb(0,0,0);font-family:AdvPS44A44B;font-size:6.38px;stroke:none;">e</text>
   <text y="468.0" x="52.951,55.272,58.588,60.8848,62.816,66.597,69.849,71.705,74.689,78.469,80.325,83.577,85.898,89.213,92.9772,94.906,97.889,101.473,105.324,108.11,110.431,113.683,117.534,119.855,122.443,125.521,129.302,131.891,134.479,137.795,141.646,143.94279999999998,145.875,149.19,152.71,158.6434,160.502,162.357,168.198,171.449,174.899,178.214,181.0212,182.896,186.677,189.464,191.319,195.17,198.6152,200.585,202.906,206.757,210.0746,211.981,217.821,221.405,225.186,228.501,230.357,231.8244,233.809,236.595,240.446,244.029,249.474,253.302,255.182,257.038,260.866,262.836,265.157,268.409,270.73,272.1974,274.118,277.37,281.221,284.9852,286.932,290.18580000000003,292.09,295.342,298.129,300.915,304.696,310.536,312.392,316.243,319.6882,321.685,324.472,326.327,328.182,330.038,333.022,336.605,340.433,342.379,345.165,348.946,351.535,353.588,356.839,359.823,363.139,364.6064,366.588,368.909,372.556,374.876,376.3434,378.267,380.587,384.368" svgx:width="0.36,0.52,0.36,0.55,0.59,0.51,0.29,0.47,0.59,0.29,0.51,0.36,0.52,0.59,0.55,0.47,0.56,0.6,0.44,0.36,0.51,0.6,0.36,0.41,0.47,0.59,0.41,0.41,0.52,0.6,0.36,0.55,0.52,0.55,0.93,0.55,0.29,0.92,0.51,0.54,0.52,0.44,0.55,0.59,0.44,0.29,0.6,0.54,0.55,0.36,0.6,0.52,0.55,0.92,0.56,0.59,0.52,0.29,0.23,0.55,0.44,0.6,0.56,0.85,0.6,0.55,0.29,0.6,0.55,0.36,0.51,0.36,0.23,0.55,0.51,0.6,0.59,0.55,0.51,0.55,0.51,0.44,0.44,0.59,0.92,0.29,0.6,0.54,0.55,0.44,0.29,0.29,0.29,0.47,0.56,0.6,0.55,0.44,0.59,0.41,0.32,0.51,0.47,0.52,0.23,0.55,0.36,0.57,0.36,0.23,0.55,0.36,0.59,0.36" style="fill:rgb(0,0,0);font-family:AdvOT863180fb;font-size:6.38px;stroke:none;">(e) Calculated constant-current STM images using the model, shown in (a), and a assuming silicon surface. (b), (d)</text>
   <text y="468.0" x="388.632" svgx:width="0.68" style="fill:rgb(0,0,0);font-family:AdvOTb92eb7df.I;font-size:6.38px;stroke:none;">U</text>
   <text y="468.0" x="394.868,399.7806,401.671" svgx:width="0.77,0.55,0.77" style="fill:rgb(0,0,0);font-family:AdvP4C4E74;font-size:6.38px;stroke:none;">¼ þ</text>
   <text y="468.0" x="406.604,409.722,411.182,414.8186,416.752,420.935" svgx:width="0.57,0.23,0.57,0.55,0.66,0.23" style="fill:rgb(0,0,0);font-family:AdvOT863180fb;font-size:6.38px;stroke:none;">1.0 V.</text>
   <text y="476.56" x="39.856,42.177,45.161,47.481,48.9484,51.081,53.402,56.718" svgx:width="0.36,0.47,0.36,0.23,0.55,0.36,0.52,0.36" style="fill:rgb(0,0,0);font-family:AdvOT863180fb;font-size:6.38px;stroke:none;">(c), (e)</text>
   <text y="476.56" x="61.173" svgx:width="0.68" style="fill:rgb(0,0,0);font-family:AdvOTb92eb7df.I;font-size:6.38px;stroke:none;">U</text>
   <text y="476.56" x="67.635,72.5476,74.666" svgx:width="0.77,0.55,0.77" style="fill:rgb(0,0,0);font-family:AdvP4C4E74;font-size:6.38px;stroke:none;">¼ ?</text>
   <text y="476.56" x="79.597,82.715,84.175,87.8116,89.972,94.154,95.6214,97.739,101.259,105.11,108.4276,110.552,114.333,118.184,120.04,122.33680000000001,124.499,127.483,130.799,132.654,134.5042,136.689,138.544,141.3512,143.435,147.019,150.799,153.12,154.976,156.831,160.682,163.998,167.76219999999998,169.968,171.824,175.65200000000002,177.792,180.113,183.365,185.686,187.1534,189.302,191.622,195.27,197.5668,199.733,202.985,206.836,210.6002,212.716,215.037,218.021,220.342,221.8094,223.999,227.518,231.369,234.6866,236.812,238.667,244.508,247.759,251.209,254.5266,256.598,259.385,261.24,264.358,267.67560000000003,269.808,271.664,275.49199999999996,277.689,280.01,283.791,286.112,287.5794,289.708,292.029,295.345,297.64180000000005,299.8,301.656,304.46320000000003,306.547,309.835,313.482" svgx:width="0.57,0.23,0.57,0.55,0.66,0.23,0.55,0.55,0.6,0.52,0.55,0.59,0.6,0.29,0.36,0.55,0.47,0.52,0.29,0.29,0.55,0.29,0.44,0.55,0.56,0.59,0.36,0.29,0.29,0.6,0.52,0.59,0.55,0.29,0.6,0.55,0.36,0.51,0.36,0.23,0.55,0.36,0.57,0.36,0.55,0.51,0.6,0.59,0.55,0.36,0.47,0.36,0.23,0.55,0.55,0.6,0.52,0.55,0.29,0.92,0.51,0.54,0.52,0.55,0.44,0.29,0.49,0.52,0.55,0.29,0.6,0.55,0.36,0.59,0.36,0.23,0.55,0.36,0.52,0.36,0.55,0.29,0.44,0.55,0.57,0.57,0.57" style="fill:rgb(0,0,0);font-family:AdvOT863180fb;font-size:6.38px;stroke:none;">1.0 V. The unit cell is outlined in (a), (b) and (c). The image size in (d), (e) is 150</text>
   <text y="476.56" code="1" x="319.239" svgx:width="0.77" style="fill:rgb(0,0,0);font-family:AdvP4C4E74;font-size:6.38px;stroke:none;">?</text>
   <text y="476.56" x="326.099,329.331,332.978,336.6146,338.798" svgx:width="0.57,0.57,0.57,0.55,0.66" style="fill:rgb(0,0,0);font-family:AdvOT863180fb;font-size:6.38px;stroke:none;">150 Å</text>
   <text y="473.726" x="342.992" svgx:width="0.57" style="fill:rgb(0,0,0);font-family:AdvOT863180fb;font-size:4.46px;stroke:none;">2</text>
   <text y="476.561" x="345.713" svgx:width="0.23" style="fill:rgb(0,0,0);font-family:AdvOT863180fb;font-size:6.38px;stroke:none;">.</text>
   <text y="50.058" x="168.32,172.037,173.44060000000002,175.521,178.836,182.419,185.805,188.655,192.239,195.886,199.1398,201.26,203.2378,205.399,209.779,213.165,215.352,218.73340000000002,220.876,222.668,226.3046,228.417,231.866,234.385,236.176,239.302,241.1522,243.27,246.79,250.29899999999998,252.455,254.776,258.295,261.815,265.334,268.854,271.2784,273.375,276.55,280.069,283.589,287.108,290.44" svgx:width="0.58,0.22,0.55,0.52,0.56,0.53,0.45,0.56,0.57,0.51,0.55,0.31,0.55,0.69,0.53,0.34,0.53,0.55,0.28,0.57,0.55,0.54,0.4,0.28,0.48,0.29,0.55,0.55,0.55,0.55,0.36,0.55,0.55,0.55,0.55,0.38,0.55,0.55,0.55,0.55,0.55,0.55,0.55" style="fill:rgb(0,0,0);font-family:AdvOTb92eb7df.I;font-size:6.38px;stroke:none;">R. Zhachuk / Data in brief 28 (2020) 104847</text>
   <text y="50.058" x="39.853" svgx:width="0.57" style="fill:rgb(0,0,0);font-family:AdvOT863180fb;font-size:6.38px;stroke:none;">8</text>
  </g>
 </g>
</svg>
