<?xml version="1.0" encoding="UTF-8"?>
<svg height="1021.914" width="4174.43" xmlns="http://www.w3.org/2000/svg">
 <g id="page" xmlns:svgx="http://www.xml-cml.org/schema/svgx">
  <g begin="text">
   <text y="62.979" x="76.312,80.743,83.844,88.275,91.375,94.914,98.015" svgx:width="0.56,0.39,0.56,0.39,0.44,0.39,0.39" style="fill:rgb(0,0,0);font-family:URWPalladioL-Ital;font-size:7.97px;stroke:none;">Sensors</text>
   <text y="62.979" x="103.107,107.092,111.077,115.062" svgx:width="0.5,0.5,0.5,0.5" style="fill:rgb(0,0,0);font-family:URWPalladioL-Bold;font-size:7.97px;stroke:none;">2019</text>
   <text y="62.979" x="119.047" svgx:width="0.25" style="fill:rgb(0,0,0);font-family:URWPalladioL-Roma;font-size:7.97px;stroke:none;">,</text>
   <text y="62.979" x="123.032,127.017" svgx:width="0.5,0.5" style="fill:rgb(0,0,0);font-family:URWPalladioL-Ital;font-size:7.97px;stroke:none;">19</text>
   <text y="62.979" x="131.003,132.9955,134.988,138.973,142.958,146.943,150.92800000000003,491.809,495.794,499.779,501.772,506.123,508.7531,510.77,514.755" svgx:width="0.25,0.55,0.5,0.5,0.5,0.5,0.55,0.5,0.5,0.55,0.55,0.33,0.55,0.5,0.5" style="fill:rgb(0,0,0);font-family:URWPalladioL-Roma;font-size:7.97px;stroke:none;">, 4980 17 of 26</text>
   <text y="97.848" x="99.598,103.907,109.557,115.471,119.983,125.897,129.728,135.276,141.19,146.739,152.866,157.0492,160.0,164.512,167.469,173.017,177.529,183.1066,186.004,190.313,195.963,200.271,203.584,208.452,217.2168,220.25,225.869,230.737,235.249,240.797,249.77,254.637,258.8202,261.761,267.888,273.803,278.111,283.761,289.675,294.187,300.101,303.943,309.491,315.405,318.362,323.443,328.311,334.52,337.01,341.541,349.447,352.404,355.717,361.631,367.18,373.307,378.957,384.7338,387.697,391.009,396.923,401.7038,404.616,408.925,414.575,418.883,422.196,427.064,435.8288,438.851,443.363,448.911,452.925,456.767,461.634,466.146,469.459,473.6422,476.592,479.905,485.819,488.776,492.9592,495.9,500.767,504.781,508.622,514.171,517.443" svgx:width="0.42,0.56,0.58,0.44,0.58,0.4,0.55,0.58,0.55,0.6,0.42,0.55,0.44,0.29,0.55,0.44,0.56,0.55,0.42,0.56,0.42,0.33,0.48,0.88,0.55,0.55,0.48,0.44,0.55,0.88,0.48,0.42,0.55,0.6,0.58,0.42,0.56,0.58,0.44,0.58,0.4,0.55,0.58,0.29,0.5,0.48,0.61,0.25,0.55,0.78,0.29,0.33,0.58,0.55,0.6,0.56,0.58,0.55,0.33,0.58,0.48,0.55,0.42,0.56,0.42,0.33,0.48,0.88,0.55,0.44,0.55,0.4,0.4,0.48,0.44,0.33,0.42,0.55,0.33,0.58,0.29,0.42,0.55,0.48,0.4,0.4,0.55,0.4,0.25" style="fill:rgb(0,0,0);font-family:URWPalladioL-Roma;font-size:9.96px;stroke:none;">synchronous clock system becomes unsynchronized. Although the system corrects this error,</text>
   <text y="111.358" x="99.598,102.497,105.7838,108.236,112.46,115.708,118.607,121.506,124.3944,126.896" svgx:width="0.29,0.33,0.55,0.42,0.33,0.29,0.29,0.29,0.55,0.5" style="fill:rgb(0,0,0);font-family:URWPalladioL-Roma;font-size:9.96px;stroke:none;">it still a</text>
   <text y="111.358" x="131.876" svgx:width="0.61" style="fill:rgb(0,0,0);font-family:Rpxr;font-size:9.96px;stroke:none;">ﬀ</text>
   <text y="111.358" x="137.933,142.705,147.128,150.376,154.5592,157.091,160.339,166.137,170.9178,173.4,179.427,185.225,190.207,193.09539999999998,195.597,201.584,207.024,211.248,214.147,217.395,220.294,225.733,231.532,234.431,240.229,245.8066,248.259,253.24,257.663,262.087,268.094,272.03,277.011,281.434,285.868" svgx:width="0.48,0.44,0.33,0.42,0.55,0.33,0.58,0.48,0.55,0.61,0.58,0.5,0.29,0.55,0.6,0.55,0.42,0.29,0.33,0.29,0.55,0.58,0.29,0.58,0.56,0.55,0.5,0.44,0.44,0.6,0.4,0.5,0.44,0.56,0.25" style="fill:rgb(0,0,0);font-family:URWPalladioL-Roma;font-size:9.96px;stroke:none;">ects the ﬁnal positioning accuracy.</text>
   <text y="125.863" x="76.207,79.458,84.34,87.6268,99.6,102.89,108.6668,110.759,113.942,119.625,124.4058,126.478,134.074,143.838,149.9136,151.99,156.13,158.971,164.399,170.082,174.963,177.85139999999998,179.991,183.174,187.031,191.912,197.595,201.734,210.355,213.197,217.336,221.476,224.317,229.648,235.4248,237.507,243.375,247.056,252.387,256.722,261.398,265.538,269.678,272.168,274.364,277.205,280.4918,282.575,285.416,289.5992,291.733,297.698" svgx:width="0.33,0.5,0.33,0.55,0.34,0.58,0.55,0.33,0.58,0.48,0.55,0.78,1.0,0.61,0.55,0.42,0.29,0.56,0.58,0.5,0.29,0.55,0.33,0.4,0.5,0.58,0.42,0.88,0.29,0.42,0.42,0.29,0.55,0.58,0.55,0.6,0.4,0.55,0.44,0.48,0.42,0.42,0.25,0.55,0.29,0.33,0.55,0.29,0.42,0.55,0.61,0.29" style="fill:rgb(0,0,0);font-family:URWPalladioL-Roma;font-size:9.96px;stroke:none;">(2) In the UWB signal transmission process, it is di</text>
   <text y="125.863" x="300.544" svgx:width="0.92" style="fill:rgb(0,0,0);font-family:Rpxr;font-size:9.96px;stroke:none;">ﬃ</text>
   <text y="125.863" x="309.517,313.852,319.739,322.58,325.8668,327.95,331.133,336.611,338.641,343.318,349.0,353.14,359.027,362.708,367.4888,369.571,372.754,378.436,383.318,386.6048,388.688,391.861,397.543,402.3238,404.407,409.084,414.766,420.282,423.123,426.804,432.135,437.817,446.438,451.115,456.797,460.08380000000005,462.167,465.008,469.1912,471.325,475.66,480.991,489.612,495.479,498.321,502.997,506.18,510.857,513.698" svgx:width="0.44,0.6,0.29,0.33,0.55,0.33,0.55,0.55,0.48,0.58,0.42,0.6,0.4,0.48,0.55,0.33,0.58,0.5,0.33,0.55,0.33,0.58,0.48,0.55,0.48,0.58,0.56,0.29,0.4,0.55,0.58,0.88,0.48,0.58,0.33,0.55,0.29,0.42,0.55,0.44,0.55,0.88,0.6,0.29,0.48,0.33,0.48,0.29,0.56" style="fill:rgb(0,0,0);font-family:URWPalladioL-Roma;font-size:9.96px;stroke:none;">cult to ensure that the environment is completely</text>
   <text y="139.373" x="99.598,105.764,113.697,118.995,121.485,124.001,130.187,136.061,140.8418,143.378,147.657,150.593,156.205,162.078,167.124,170.01239999999999,172.544,180.961,183.897,186.834,189.7224,192.264,197.845,202.6258,205.161,208.966,213.8,219.936,224.77,229.251,232.541,237.376,243.4516,246.024,251.07,256.944,263.0196,265.593,269.398,274.232,277.593,281.579,286.625,291.106,294.396,299.23,305.3056,307.879,313.389,321.806,324.743,330.617,336.19460000000004,338.721,342.011,347.48900000000003,350.004,355.514,361.095,365.374,368.664,373.71,378.191,381.128,385.962,390.1452,392.723,397.769,403.643,409.7186,412.292,417.802,421.092,426.966,431.8,435.784,438.269,441.63,446.676,451.157,454.447,459.957,463.943,468.223,470.713,473.228,478.274,484.148,490.22360000000003,492.807,495.744,499.03080000000006,501.516,509.933,512.87,515.807" svgx:width="0.61,0.79,0.52,0.25,0.55,0.61,0.58,0.48,0.55,0.42,0.29,0.56,0.58,0.5,0.29,0.55,0.83,0.29,0.29,0.29,0.55,0.55,0.48,0.55,0.4,0.48,0.61,0.48,0.44,0.33,0.48,0.61,0.55,0.5,0.58,0.61,0.55,0.4,0.48,0.33,0.4,0.5,0.44,0.33,0.48,0.61,0.55,0.55,0.83,0.29,0.58,0.56,0.55,0.33,0.55,0.55,0.55,0.55,0.42,0.33,0.5,0.44,0.29,0.48,0.42,0.55,0.5,0.58,0.61,0.55,0.55,0.33,0.58,0.48,0.4,0.55,0.33,0.5,0.44,0.33,0.55,0.4,0.42,0.25,0.55,0.5,0.58,0.61,0.55,0.29,0.33,0.55,0.83,0.29,0.29,0.29" style="fill:rgb(0,0,0);font-family:URWPalladioL-Roma;font-size:9.96px;stroke:none;">LOS. The signal will be reﬂected and refracted owing to obstacles and other factors, and it will</text>
   <text y="152.882" x="99.598,105.107,109.879,114.303,119.742,128.539,133.3198,135.802,144.081,150.168,157.999,163.229,165.71900000000002,168.21,174.317,180.116,183.015,187.19819999999999,189.73,198.038,200.938,203.837,206.72539999999998,209.226,212.125,216.898,221.879,227.9546,230.457,233.704,239.18200000000002,241.635,246.61499999999998,249.107,252.863,257.635,263.722,269.729,274.153,277.4,280.3,285.739,291.51579999999996,294.028,296.927,302.7038,305.216,308.464,314.262,319.0428,321.525,327.552,333.35,338.332,341.2204,343.721,349.709,355.149,359.373,362.272,365.52,368.419,373.858,379.657,382.556,388.354,393.9316,396.384,401.365,405.788,410.212,416.219,420.155,425.136,429.559,433.993" svgx:width="0.55,0.48,0.44,0.55,0.88,0.48,0.55,0.83,0.61,0.79,0.52,0.25,0.55,0.61,0.58,0.29,0.42,0.55,0.83,0.29,0.29,0.29,0.55,0.29,0.48,0.5,0.61,0.55,0.33,0.55,0.55,0.5,0.55,0.4,0.48,0.61,0.6,0.44,0.33,0.29,0.55,0.58,0.55,0.29,0.58,0.55,0.33,0.58,0.48,0.55,0.61,0.58,0.5,0.29,0.55,0.6,0.55,0.42,0.29,0.33,0.29,0.55,0.58,0.29,0.58,0.56,0.55,0.5,0.44,0.44,0.6,0.4,0.5,0.44,0.56,0.25" style="fill:rgb(0,0,0);font-family:URWPalladioL-Roma;font-size:9.96px;stroke:none;">become NLOS. This will lead to a reduction in the ﬁnal positioning accuracy.</text>
   <text y="167.388" x="76.207,79.458,84.34,87.6268,99.598,105.691,110.468,114.896,119.882,125.896,130.124,134.9048,137.384,140.635,146.439,151.2198,153.699,157.928,163.472,167.701,170.952,175.729,187.017,189.919,195.69580000000002,198.207,203.193,208.96980000000002,211.48,214.382,220.186,226.279,231.724,237.17,241.154,243.582,248.359,254.163,259.797,262.699,266.459,271.904,277.708,286.514,291.291,297.095,300.38180000000006,302.829,307.815,313.619,319.69460000000004,322.196,325.447,331.251,336.0318,338.511,347.316,352.761,358.396,361.298,367.102,372.6796,375.13,380.934,386.379,392.472,397.2528,399.732,402.634,406.8172,409.346,413.773,416.675,422.12,426.349,431.1298,433.609,436.86,442.338,444.788,448.039,453.843,458.6238,461.103,469.909,475.354,478.605,484.05,488.034,490.472,496.466,501.911,510.228,515.005" svgx:width="0.33,0.5,0.33,0.55,0.61,0.48,0.44,0.5,0.6,0.42,0.48,0.55,0.33,0.58,0.48,0.55,0.42,0.56,0.42,0.33,0.48,0.88,0.29,0.58,0.55,0.5,0.58,0.55,0.29,0.58,0.61,0.55,0.55,0.4,0.55,0.48,0.58,0.56,0.29,0.4,0.55,0.58,0.88,0.48,0.58,0.33,0.55,0.5,0.58,0.61,0.55,0.33,0.58,0.48,0.55,0.88,0.55,0.56,0.29,0.58,0.56,0.55,0.58,0.55,0.61,0.48,0.55,0.29,0.42,0.55,0.44,0.29,0.55,0.42,0.48,0.55,0.33,0.55,0.55,0.33,0.58,0.48,0.55,0.88,0.55,0.33,0.55,0.4,0.55,0.6,0.55,0.83,0.48,0.4" style="fill:rgb(0,0,0);font-family:URWPalladioL-Roma;font-size:9.96px;stroke:none;">(3) Because the systemin an indoor environment and the moving node is close to the motor power</text>
   <text y="180.897" x="99.598,103.831,109.85,115.85,121.849,124.754,129.196,131.686,134.187,137.442,143.252,148.0328,150.519,156.329,161.779,164.684,168.917,173.6978,176.184,179.089,183.87,189.511,194.292,197.1804,199.693,205.143,208.4298,210.953,214.207,220.017,224.7978,227.284,232.066,237.876,241.13,244.035,247.799,252.5798,255.076,259.308,264.859,269.091,272.346,277.127,288.427,291.332,295.5152,298.051,300.956,306.765,311.198,314.961,319.743,324.734,328.966,333.748,339.847,342.337,344.839,353.164,358.974,361.879,366.311,372.08779999999996,374.607,378.37,383.152,389.251,395.27,399.703,404.484,408.6672,411.203,414.457,420.267,425.0478,427.544,433.543,438.994,443.226,446.131,449.386,452.291,457.741,463.551,466.456,472.266,477.84360000000004,480.302,485.293,489.725,494.157,500.177,504.12,509.111,513.543,517.986" svgx:width="0.42,0.6,0.6,0.6,0.29,0.56,0.25,0.55,0.33,0.58,0.48,0.55,0.58,0.55,0.29,0.42,0.48,0.55,0.29,0.48,0.56,0.48,0.29,0.55,0.55,0.33,0.55,0.33,0.58,0.48,0.55,0.48,0.58,0.33,0.29,0.4,0.48,0.55,0.42,0.56,0.42,0.33,0.48,0.88,0.29,0.42,0.55,0.29,0.58,0.44,0.4,0.48,0.5,0.42,0.48,0.61,0.25,0.55,0.83,0.58,0.29,0.44,0.58,0.55,0.4,0.48,0.61,0.6,0.44,0.48,0.42,0.55,0.33,0.58,0.48,0.55,0.6,0.55,0.42,0.29,0.33,0.29,0.55,0.58,0.29,0.58,0.56,0.55,0.5,0.44,0.44,0.6,0.4,0.5,0.44,0.56,0.25" style="fill:rgb(0,0,0);font-family:URWPalladioL-Roma;font-size:9.96px;stroke:none;">supply, the noise level of the entire systemis increased, which reduces the positioning accuracy.</text>
   <text y="194.407" x="99.209,106.805,110.0918,111.979,115.162,120.845,125.6258,127.513,131.653,136.534,145.155,149.9358,151.824,155.007,157.848,166.469,171.145,173.63500000000002,175.685,178.868,184.55,189.3308,191.219,195.075,199.957,205.639,211.605,216.935,225.556,231.239,235.915,240.055,244.2382,246.186,251.517,254.8038,256.76,259.943,265.625,270.4058,272.294,277.976,283.307,286.148,290.287,295.0678,296.956,299.797,302.98,307.119,311.796,314.637,317.9238,319.89,328.511,333.393,338.9706,340.813,343.654,348.331,353.212,359.2876,361.169,364.352,369.83,371.675,374.858,380.54,385.3208,387.208,392.09,397.958,403.825,408.502,413.384,417.24,422.122,427.804,432.139,436.9198,438.808,444.138,447.4248,449.381,453.521,458.852,467.473,472.2538,474.151,479.033,484.715,490.046,498.667,503.548,506.389,509.231,513.907,518.047" svgx:width="0.78,0.33,0.55,0.33,0.58,0.48,0.55,0.42,0.5,0.88,0.48,0.55,0.33,0.29,0.88,0.48,0.25,0.55,0.33,0.58,0.48,0.55,0.4,0.5,0.58,0.61,0.55,0.88,0.58,0.48,0.42,0.42,0.55,0.55,0.33,0.55,0.33,0.58,0.48,0.55,0.58,0.55,0.29,0.42,0.48,0.55,0.29,0.33,0.42,0.48,0.29,0.33,0.55,0.88,0.5,0.56,0.55,0.29,0.48,0.5,0.61,0.55,0.33,0.55,0.55,0.33,0.58,0.48,0.55,0.5,0.6,0.6,0.48,0.5,0.4,0.5,0.58,0.44,0.48,0.55,0.55,0.33,0.55,0.42,0.55,0.88,0.48,0.55,0.5,0.58,0.55,0.88,0.5,0.29,0.29,0.48,0.42,0.25" style="fill:rgb(0,0,0);font-family:URWPalladioL-Roma;font-size:9.96px;stroke:none;">At the same time, the randomness of the noise itself may lead to the appearance of some anomalies.</text>
   <text y="217.62" x="76.535,81.516,84.007,88.988,91.478,94.966,101.611,106.034,110.458,114.333,119.314,122.084,127.623,132.047,135.364,139.2484,141.73,148.375,152.799,155.568,159.623,165.162,167.932,172.355,175.673,178.442,182.866,188.4436,190.896,193.665,198.089,201.9734,204.455,207.772,215.523,220.505,224.201,228.624,233.605,237.481,242.46099999999998,244.953,252.704,257.685,262.108,269.859,273.735,277.052,280.928,284.8124,287.294,293.381,297.804,301.68,304.449,307.767,310.537,314.96,320.499,323.269,328.808,333.788,336.28,345.685,349.56,352.878,357.859,362.282" svgx:width="0.5,0.25,0.5,0.25,0.55,0.67,0.44,0.44,0.39,0.5,0.28,0.56,0.44,0.33,0.39,0.55,0.67,0.44,0.28,0.41,0.56,0.28,0.44,0.33,0.28,0.44,0.56,0.55,0.28,0.44,0.39,0.55,0.33,0.78,0.5,0.39,0.44,0.5,0.39,0.5,0.55,0.78,0.5,0.44,0.78,0.39,0.33,0.39,0.39,0.55,0.61,0.44,0.39,0.28,0.33,0.28,0.44,0.56,0.28,0.56,0.5,0.55,0.94,0.39,0.33,0.5,0.44,0.5" style="fill:rgb(0,0,0);font-family:URWPalladioL-Ital;font-size:9.96px;stroke:none;">3.3. Coordinate Calculation for Improved Odometer Positioning Method</text>
   <text y="237.107" x="97.795,107.957,113.871,118.739,124.5158,127.752,131.065,136.979,141.7598,144.946,147.903,156.876,162.983,166.824,172.373,178.114,182.982,189.0576,192.29,197.838,204.047,209.596,218.569,223.436,226.749,231.616,235.60000000000002,238.73,244.837,250.385,254.694,257.651,260.964,263.921,269.469,275.383,278.341,284.255,289.8326,293.004,301.977,306.845,310.157,316.072,321.62,327.6956,330.938,335.45,340.531,343.478,347.99,354.118,357.075,362.156,365.468,370.336,374.5192,377.754,381.067,386.981,391.7618,394.948,399.46,405.008,410.556,414.387,420.596,423.553,429.468,434.549,437.861,442.729,447.037,449.527,452.83,455.787,459.0738,462.209,468.123,472.991,477.858,484.067,488.2502,491.475,494.788,500.266,503.436,509.563,513.872" svgx:width="1.0,0.58,0.48,0.58,0.55,0.33,0.58,0.48,0.55,0.29,0.88,0.6,0.4,0.55,0.56,0.48,0.61,0.55,0.55,0.61,0.55,0.88,0.48,0.33,0.48,0.4,0.55,0.6,0.55,0.42,0.29,0.33,0.29,0.55,0.58,0.29,0.58,0.56,0.55,0.88,0.48,0.33,0.58,0.55,0.61,0.55,0.44,0.5,0.29,0.44,0.6,0.29,0.5,0.33,0.48,0.42,0.55,0.33,0.58,0.48,0.55,0.44,0.55,0.55,0.4,0.61,0.29,0.58,0.5,0.33,0.48,0.42,0.25,0.55,0.29,0.33,0.55,0.58,0.48,0.48,0.61,0.42,0.55,0.33,0.55,0.55,0.6,0.42,0.48" style="fill:rgb(0,0,0);font-family:URWPalladioL-Roma;font-size:9.96px;stroke:none;">When the improved odometer positioning method calculates the coordinates, it needs to use</text>
   <text y="250.616" x="76.535,79.806,85.644,90.4248,92.938,98.777,103.582,108.598,114.728,117.648,123.486,129.0636,131.552,136.569,142.407,147.985,150.905,155.6858,158.188,162.643,167.659,170.578,175.033,181.082,184.001,189.018,192.288,197.094,203.1696,205.711,211.259,216.83659999999998,219.325,222.596,228.435,233.2158,235.728,238.999,242.961,247.978,254.107,257.027,260.297,263.217,268.694,274.533,279.549,282.43739999999997,284.947,290.424,296.554,302.032,310.89,315.696,318.966,323.772,327.756,330.223,336.252,341.73,345.984,348.903,352.173,355.093,360.571,366.409,369.329,375.168,380.7456,383.234,392.092,396.898,400.168,406.007,411.485,417.5606,420.102,425.118,430.957,437.0326,439.565,442.836,448.674,453.4548,455.968,461.807,466.612,471.628,477.758,480.678,486.516,492.09360000000004,494.582,499.598,505.437,511.015,513.935" svgx:width="0.33,0.58,0.48,0.55,0.58,0.48,0.5,0.61,0.29,0.58,0.56,0.55,0.5,0.58,0.56,0.29,0.48,0.55,0.44,0.5,0.29,0.44,0.6,0.29,0.5,0.33,0.48,0.61,0.55,0.55,0.56,0.55,0.33,0.58,0.48,0.55,0.33,0.4,0.5,0.61,0.29,0.33,0.29,0.55,0.58,0.5,0.29,0.55,0.55,0.61,0.55,0.88,0.48,0.33,0.48,0.4,0.55,0.6,0.55,0.42,0.29,0.33,0.29,0.55,0.58,0.29,0.58,0.56,0.55,0.88,0.48,0.33,0.58,0.55,0.61,0.55,0.5,0.58,0.61,0.55,0.33,0.58,0.48,0.55,0.58,0.48,0.5,0.61,0.29,0.58,0.56,0.55,0.5,0.58,0.56,0.29,0.48" style="fill:rgb(0,0,0);font-family:URWPalladioL-Roma;font-size:9.96px;stroke:none;">the heading angle calculated by the traditional odometer positioning method and the heading angle</text>
   <text y="264.125" x="76.535,85.156,89.833,94.714,98.854,104.741,108.422,113.099,119.1746,121.525,126.924,132.5016,134.812,137.995,143.678,148.4588,150.815,154.105,163.341,173.397,178.279,182.4622,184.879,188.062,193.744,198.5248,200.891,203.732,209.414,215.282,221.169,224.352,226.842,230.269,236.254,241.936,246.613,250.284,254.96,258.211,263.542,267.223,271.9,274.39,276.811,279.993,285.676,290.4568,292.813,298.495,303.172,308.053,314.019,316.86,322.542,328.1196,330.431,335.313,340.995,346.423,349.264,354.0448,356.401,359.242,363.4252,365.842,371.749,375.606,379.746,383.0328,385.398,389.733,394.615,397.456,401.791,407.678,410.52,415.401,418.584,423.261,429.33660000000003,431.687,434.869,440.34700000000004,442.661,447.991,453.39,456.573,461.455,464.296,470.0728,472.439,475.622,483.764,489.242,491.555,495.695,500.372,503.555,507.7382,510.155,515.485" svgx:width="0.88,0.48,0.5,0.42,0.6,0.4,0.48,0.61,0.55,0.55,0.56,0.55,0.33,0.58,0.48,0.55,0.34,0.95,0.78,0.5,0.42,0.55,0.33,0.58,0.48,0.55,0.29,0.58,0.6,0.6,0.33,0.25,0.55,0.61,0.58,0.48,0.4,0.48,0.33,0.55,0.4,0.48,0.25,0.55,0.33,0.58,0.48,0.55,0.58,0.48,0.5,0.61,0.29,0.58,0.56,0.55,0.5,0.58,0.56,0.29,0.48,0.55,0.29,0.42,0.55,0.61,0.4,0.42,0.33,0.55,0.44,0.5,0.29,0.44,0.6,0.29,0.5,0.33,0.48,0.61,0.55,0.33,0.55,0.55,0.55,0.55,0.33,0.5,0.29,0.58,0.55,0.33,0.83,0.55,0.55,0.42,0.48,0.33,0.42,0.55,0.55,0.33" style="fill:rgb(0,0,0);font-family:URWPalladioL-Roma;font-size:9.96px;stroke:none;">measured by the IMUas the input. Therefore, the heading angle is ﬁrst calculated to obtain two sets of</text>
   <text y="277.635" x="76.535,82.333,87.105,92.087,98.174,101.073,106.871,112.4486,114.901,119.882,125.681,131.22,134.119,138.891,143.115,145.60500000000002,149.093,155.2,160.998,165.77,171.568,174.05800000000002,176.55,179.797,185.596,190.3768,192.858,197.282,202.721,208.161,211.917,218.004,220.903,226.701,231.683,234.93,239.702,243.8852,246.417,251.398,255.154,259.9348,262.417,266.841,271.822,274.721,279.144,285.152,288.051,293.032,296.28,301.052,307.139" svgx:width="0.58,0.48,0.5,0.61,0.29,0.58,0.56,0.55,0.5,0.58,0.56,0.29,0.48,0.42,0.25,0.55,0.61,0.58,0.48,0.58,0.25,0.55,0.33,0.58,0.48,0.55,0.44,0.55,0.55,0.4,0.61,0.29,0.58,0.5,0.33,0.48,0.42,0.55,0.5,0.4,0.48,0.55,0.44,0.5,0.29,0.44,0.6,0.29,0.5,0.33,0.48,0.61,0.25" style="fill:rgb(0,0,0);font-family:URWPalladioL-Roma;font-size:9.96px;stroke:none;">heading angles. Then, the coordinates are calculated.</text>
   <text y="291.144" x="97.795,101.113,106.094,109.3808,111.902,115.259,124.684,132.4528,134.926,140.724,145.496,150.477,156.564,159.463,165.262,170.8396,173.292,178.273,184.071,189.61,192.509,197.28979999999999,199.772,208.569,213.341,218.322,222.547,228.554,232.31,237.082,245.879,250.651,256.449" svgx:width="0.33,0.5,0.33,0.55,0.34,0.95,0.78,0.55,0.58,0.48,0.5,0.61,0.29,0.58,0.56,0.55,0.5,0.58,0.56,0.29,0.48,0.55,0.88,0.48,0.5,0.42,0.6,0.4,0.48,0.88,0.48,0.58,0.33" style="fill:rgb(0,0,0);font-family:URWPalladioL-Roma;font-size:9.96px;stroke:none;">(1) IMU heading angle measurement</text>
   <text y="304.654" x="97.795,103.963,109.819,114.5998,117.135,122.991,127.811,132.842,138.99,141.918,147.774,153.3516,155.854,160.885,166.741,172.336,175.264,180.0448,182.579,190.971,196.002,200.1852,202.754,211.639,216.459,221.49,225.756,231.824,235.617,240.437,246.51260000000002,249.081,254.645,260.2226,262.725,266.005,271.861,276.6418,279.177,282.568,292.086,299.8548,302.41,307.441,313.298,319.3736,321.931,328.019,333.704,338.4848,341.019,345.285,350.105,353.385,357.5682,360.137,365.631,368.9178,371.477,376.297,381.489,387.537,392.356,396.331,399.259,408.144,412.964,418.82,422.1,427.131,430.01939999999996,432.545,438.693,443.724,447.004,451.98400000000004,454.531,462.923,467.743,471.536,476.3168,478.841,484.335,489.9,493.18,498.211,501.139,506.995,511.815,517.963" svgx:width="0.61,0.58,0.48,0.55,0.58,0.48,0.5,0.61,0.29,0.58,0.56,0.55,0.5,0.58,0.56,0.29,0.48,0.55,0.83,0.5,0.42,0.55,0.88,0.48,0.5,0.42,0.6,0.4,0.48,0.61,0.55,0.55,0.56,0.55,0.33,0.58,0.48,0.55,0.34,0.95,0.78,0.55,0.5,0.58,0.61,0.55,0.61,0.56,0.48,0.55,0.42,0.48,0.33,0.42,0.55,0.55,0.33,0.55,0.48,0.52,0.6,0.48,0.4,0.29,0.88,0.48,0.58,0.33,0.5,0.29,0.55,0.61,0.5,0.33,0.5,0.55,0.83,0.48,0.4,0.48,0.55,0.55,0.55,0.33,0.5,0.29,0.58,0.48,0.61,0.25" style="fill:rgb(0,0,0);font-family:URWPalladioL-Roma;font-size:9.96px;stroke:none;">The heading angle was measured by the IMU and ﬁve sets of experimental data were obtained.</text>
   <text y="318.163" x="76.535,84.366,90.164,94.9448,97.427,101.651,106.423,109.7098,112.161,117.601,120.8878,123.409,129.207,133.979,138.961,145.048,147.947,153.745,159.3226,161.775,166.756,172.555,178.094,180.993,185.7738,188.256,192.679,198.477,203.458,209.257,214.796,219.568,223.7512,226.283,231.264,235.4472,237.979,242.203,248.001,253.441,261.75,267.5268,270.039,272.938,278.71479999999997,281.227,286.766,289.665,295.204,301.211,304.967" svgx:width="0.79,0.58,0.48,0.55,0.42,0.48,0.33,0.55,0.55,0.33,0.55,0.58,0.48,0.5,0.61,0.29,0.58,0.56,0.55,0.5,0.58,0.56,0.29,0.48,0.55,0.44,0.58,0.5,0.58,0.56,0.48,0.42,0.55,0.5,0.42,0.55,0.42,0.58,0.55,0.83,0.58,0.55,0.29,0.58,0.55,0.56,0.29,0.56,0.6,0.4,0.48" style="fill:rgb(0,0,0);font-family:URWPalladioL-Roma;font-size:9.96px;stroke:none;">One set of heading angle changes as shown in Figure</text>
   <text y="318.163" x="312.23,317.211" svgx:width="0.5,0.5" style="fill:rgb(8,117,183);font-family:URWPalladioL-Roma;font-size:9.96px;stroke:none;">11</text>
   <text y="318.163" x="322.193" svgx:width="0.25" style="fill:rgb(0,0,0);font-family:URWPalladioL-Roma;font-size:9.96px;stroke:none;">.</text>
  </g>
  <g begin="text">
   <text y="273.854" x="77.79,82.236,85.35,89.797,92.91,96.463,99.577,102.691" svgx:width="0.56,0.39,0.56,0.39,0.44,0.39,0.39,0.25" style="fill:rgb(0,0,0);font-family:PalatinoLinotype,Italic;font-size:7.98px;stroke:none;">Sensors </text>
   <text y="273.854" x="104.67,108.69,112.71,116.731" svgx:width="0.5,0.5,0.5,0.5" style="fill:rgb(0,0,0);font-family:PalatinoLinotype,Bold;font-size:7.98px;stroke:none;">2019</text>
   <text y="273.854" x="120.75,122.729" svgx:width="0.25,0.25" style="fill:rgb(0,0,0);font-family:PalatinoLinotype;font-size:7.98px;stroke:none;">, </text>
   <text y="273.854" x="124.709,128.73" svgx:width="0.5,0.5" style="fill:rgb(0,0,0);font-family:PalatinoLinotype,Italic;font-size:7.98px;stroke:none;">19</text>
   <text y="273.854" x="132.749,134.742,136.721,140.837,142.817,147.251,153.55,158.878,160.858,165.675,170.597,175.47,180.798,182.778,188.178,193.099,198.859,201.545,206.419,214.459,216.454,489.809,493.828,497.847,499.842,501.387,505.773,508.412,510.407,511.952,515.971,519.99" svgx:width="0.25,0.25,0.52,0.25,0.56,0.79,0.67,0.25,0.6,0.61,0.61,0.67,0.25,0.67,0.61,0.72,0.34,0.61,1.0,0.25,0.55,0.5,0.5,0.25,0.55,0.55,0.33,0.25,0.55,0.5,0.5,0.25" style="fill:rgb(0,0,0);font-family:PalatinoLinotype;font-size:7.98px;stroke:none;">, x FOR PEER REVIEW 18 of 26 </text>
   <text y="1011.914" x="77.79" svgx:width="0.25" style="fill:rgb(0,0,0);font-family:TimesNewRoman;font-size:9.0px;stroke:none;"> </text>
   <text y="298.754" x="99.03,102.375,107.355,110.699,113.219,116.604,126.026,133.829,136.349,142.189,146.929,151.947,158.008,160.932,166.771,172.35,174.81,179.828,185.668,191.186,194.126,198.933,201.453,210.275,215.015,220.033,224.234,230.284,234.25,239.058,247.879,252.687,258.526,261.705" svgx:width="0.33,0.5,0.33,0.25,0.34,0.95,0.78,0.25,0.58,0.48,0.5,0.61,0.29,0.58,0.56,0.25,0.5,0.58,0.56,0.29,0.48,0.25,0.88,0.48,0.5,0.42,0.6,0.4,0.48,0.88,0.48,0.58,0.33,0.25" style="fill:rgb(0,0,0);font-family:PalatinoLinotype;font-size:10.02px;stroke:none;">(1) IMU heading angle measurement </text>
   <text y="312.254" x="99.03,105.171,111.002,115.8,118.321,124.151,128.95,133.959,140.021,142.936,148.766,154.284,156.744,161.753,167.584,173.154,176.034,180.832,183.352,191.633,196.673,200.92,203.44,212.287,217.028,222.037,226.238,232.279,236.236,241.035,247.156,249.676,255.134,260.712,263.232,266.497,272.328,277.067,279.587,282.963,292.441,300.236,302.696,307.705,313.535,319.596,322.116,325.416,328.356,334.016,338.815,341.335,345.582,350.381,353.646,357.894,360.414,365.815,369.174,371.634,376.433,381.602,387.623,392.363,396.319,399.234,408.081,412.88,418.71,421.976,426.985,429.9,432.42,438.481,443.521,446.786,451.795,454.315,462.671,467.47,471.426,476.225,478.745,484.215,489.755,493.021,498.03,500.944,506.775,511.514,517.636,520.14" svgx:width="0.61,0.58,0.48,0.25,0.58,0.48,0.5,0.61,0.29,0.58,0.56,0.25,0.5,0.58,0.56,0.29,0.48,0.25,0.83,0.5,0.42,0.25,0.88,0.48,0.5,0.42,0.6,0.4,0.48,0.61,0.25,0.55,0.56,0.25,0.33,0.58,0.48,0.25,0.34,0.95,0.78,0.25,0.5,0.58,0.61,0.25,0.33,0.29,0.56,0.48,0.25,0.42,0.48,0.33,0.42,0.25,0.55,0.33,0.25,0.48,0.52,0.6,0.48,0.4,0.29,0.88,0.48,0.58,0.33,0.5,0.29,0.25,0.61,0.5,0.33,0.5,0.25,0.83,0.48,0.4,0.48,0.25,0.55,0.55,0.33,0.5,0.29,0.58,0.48,0.61,0.25,0.25" style="fill:rgb(0,0,0);font-family:PalatinoLinotype;font-size:10.02px;stroke:none;">The heading angle was measured by the IMU and five sets of experimental data were obtained. </text>
   <text y="325.693" x="77.79,85.672,91.511,96.318,98.838,103.093,107.9,111.138,113.658,119.059,122.419,124.939,130.777,135.518,140.535,146.664,149.587,155.346,160.925,163.384,168.401,174.24,179.818,182.698,187.505,190.025,194.406,200.226,205.243,211.082,216.66,221.4,225.656,228.116,233.133,237.388,239.848,244.104,249.942,255.343,263.684,269.522,272.042,274.965,280.804,283.324,288.842,291.782,297.3,303.36,307.325,312.131,314.591,319.608,324.588,327.048" svgx:width="0.79,0.58,0.48,0.25,0.42,0.48,0.33,0.25,0.55,0.33,0.25,0.58,0.48,0.5,0.61,0.29,0.58,0.56,0.25,0.5,0.58,0.56,0.29,0.48,0.25,0.44,0.58,0.5,0.58,0.56,0.48,0.42,0.25,0.5,0.42,0.25,0.42,0.58,0.55,0.83,0.58,0.25,0.29,0.58,0.25,0.56,0.29,0.56,0.6,0.4,0.48,0.25,0.5,0.5,0.25,0.25" style="fill:rgb(0,0,0);font-family:PalatinoLinotype;font-size:10.02px;stroke:none;">One set of heading angle changes as shown in Figure 11. </text>
   <text y="549.314" x="433.35" svgx:width="0.25" style="fill:rgb(0,0,0);font-family:TimesNewRoman;font-size:10.5px;stroke:none;"> </text>
   <text y="573.254" x="111.09,116.112,119.109,124.113,129.612,133.113,137.613,139.893,144.393,148.893,151.143" svgx:width="0.56,0.33,0.56,0.61,0.39,0.5,0.25,0.5,0.5,0.25,0.25" style="fill:rgb(0,0,0);font-family:PalatinoLinotype,Bold;font-size:9.0px;stroke:none;">Figure 11. </text>
   <text y="573.254" x="153.39,160.865,165.164,169.651,175.173,177.812,183.032,188.024,190.303,194.791,200.016,205.008,207.647,211.946,214.225,218.247,223.467,227.954,233.179,238.171,242.469,246.31,248.59,256.525,260.823,265.31,269.152,274.566,278.108,282.407,287.928,290.208,295.172,300.164,302.443,307.345,312.57,316.869,319.148,324.05,327.034,329.31,332.311,334.934,339.974,344.294,346.574,349.154,354.374,358.689,362.248,365.185,367.808,372.311,374.934,377.214,385.164,389.479,393.982,397.802,403.233,406.791,411.106,419.056,423.371,428.613,431.55,433.83,439.261,444.502,447.125,450.062,453.882,456.162,459.162,462.199,470.716,477.722,481.542,484.542" svgx:width="0.83,0.48,0.5,0.61,0.29,0.58,0.56,0.25,0.5,0.58,0.56,0.29,0.48,0.25,0.44,0.58,0.5,0.58,0.56,0.48,0.42,0.25,0.88,0.48,0.5,0.42,0.6,0.4,0.48,0.61,0.25,0.55,0.56,0.25,0.55,0.58,0.48,0.25,0.55,0.33,0.25,0.33,0.29,0.56,0.48,0.25,0.29,0.58,0.48,0.4,0.33,0.29,0.5,0.29,0.25,0.88,0.48,0.5,0.42,0.6,0.4,0.48,0.88,0.48,0.58,0.33,0.25,0.6,0.58,0.29,0.33,0.42,0.25,0.33,0.34,0.95,0.78,0.42,0.33,0.25" style="fill:rgb(0,0,0);font-family:PalatinoLinotype;font-size:9.0px;stroke:none;">Heading angle changes measured by one of five inertial measurement units (IMUs).</text>
   <text y="573.254" x="486.691" svgx:width="0.25" style="fill:rgb(0,0,0);font-family:PalatinoLinotype,Bold;font-size:9.0px;stroke:none;"> </text>
   <text y="598.394" x="99.03,102.405,108.234,110.455,116.024,118.938,124.456,130.516,134.472,139.269,141.43,146.438,151.446,153.949,156.169,159.347,165.167,169.965,172.185,175.52,178.433,182.389,186.636,189.9,192.121,196.367,199.632,204.64,210.209,215.006,217.167,220.081,224.327,226.548,229.812,235.642,240.439,242.66,246.906,250.171,255.179,259.135,262.313,265.673,271.713,277.733,279.893,285.362,291.382,296.18,300.135,305.143,308.37,311.31,316.771,322.589,324.75,328.985,332.238,337.235,342.794,347.58,350.072,352.293,360.075,363.329,365.549,368.802,374.621,377.524,381.759,383.98,387.233,390.136,398.971,403.757,406.249,408.47,411.723,417.542,422.328,424.549,430.658,435.444,438.347,441.287,446.867,451.667,455.612,461.17,463.39,467.335,472.793,478.321,483.779,487.032,489.253,493.488,496.742,501.739,505.684,508.937,513.797,519.978" svgx:width="0.34,0.58,0.25,0.56,0.29,0.56,0.6,0.4,0.48,0.25,0.5,0.5,0.25,0.25,0.33,0.58,0.48,0.25,0.33,0.29,0.4,0.42,0.33,0.25,0.42,0.33,0.5,0.56,0.48,0.25,0.29,0.42,0.25,0.33,0.58,0.48,0.25,0.42,0.33,0.5,0.4,0.33,0.33,0.6,0.6,0.25,0.55,0.6,0.48,0.4,0.5,0.33,0.29,0.55,0.58,0.25,0.42,0.33,0.5,0.56,0.48,0.25,0.25,0.78,0.33,0.25,0.33,0.58,0.29,0.42,0.25,0.33,0.29,0.88,0.48,0.25,0.25,0.33,0.58,0.48,0.25,0.61,0.48,0.29,0.29,0.56,0.48,0.4,0.56,0.25,0.4,0.55,0.55,0.55,0.33,0.25,0.42,0.33,0.5,0.4,0.33,0.48,0.61,0.25" style="fill:rgb(0,0,0);font-family:PalatinoLinotype;font-size:10.02px;stroke:none;">In Figure 11, the first stage is the start-up operation stage. At this time, the delivery robot started </text>
   <text y="611.894" x="77.79,82.83,88.649,94.746,97.566,106.389,111.835,117.471,122.245,128.342,131.162,134.34,139.801,142.621,145.862,151.669,156.444,159.203,162.563,165.503,169.436,173.659,176.9,179.66,184.645,189.685,193.668,196.488,199.729,205.746,209.679,215.485,218.425,224.245,229.791,232.65,238.652,244.103,247.042,252.802,256.048,258.533,261.353,264.71,270.521,273.341,276.587,282.399,285.295,289.523,292.343,298.345,302.283,307.734,312.163,316.942,321.171,325.399,327.884,330.704,333.95,339.762,344.541,347.361,350.607,356.419,361.198,366.689,370.589,375.389,378.657,381.575,386.026,391.038,393.956,396.775,402.609,407.348,412.36,418.422,421.339,427.099,432.672,435.432,440.444,446.278,451.796,454.736,459.538,462.357,471.207,475.947,480.959,485.21,491.254,495.214,500.015,506.076,508.896,514.439,520.012" svgx:width="0.5,0.58,0.61,0.25,0.88,0.55,0.56,0.48,0.61,0.25,0.33,0.55,0.25,0.33,0.58,0.48,0.25,0.33,0.29,0.4,0.42,0.33,0.25,0.5,0.5,0.4,0.25,0.33,0.6,0.4,0.58,0.29,0.58,0.56,0.25,0.6,0.55,0.29,0.58,0.33,0.25,0.25,0.34,0.58,0.25,0.33,0.58,0.29,0.42,0.25,0.6,0.4,0.55,0.44,0.48,0.42,0.42,0.25,0.25,0.33,0.58,0.48,0.25,0.33,0.58,0.48,0.55,0.4,0.48,0.33,0.29,0.44,0.5,0.29,0.25,0.58,0.48,0.5,0.61,0.29,0.58,0.56,0.25,0.5,0.58,0.56,0.29,0.48,0.25,0.88,0.48,0.5,0.42,0.6,0.4,0.48,0.61,0.25,0.55,0.56,0.25" style="fill:rgb(0,0,0);font-family:PalatinoLinotype;font-size:10.02px;stroke:none;">and moved to the first 90° turning point. In this process, the theoretical heading angle measured by </text>
   <text y="625.394" x="77.79,81.035,86.846,91.624,94.144,97.5,106.958,114.759,117.219,120.159,124.421,126.881,131.921,135.882,138.366" svgx:width="0.33,0.58,0.48,0.25,0.34,0.95,0.78,0.25,0.29,0.42,0.25,0.5,0.4,0.25,0.25" style="fill:rgb(0,0,0);font-family:PalatinoLinotype;font-size:10.02px;stroke:none;">the IMU is 0°. </text>
   <text y="638.894" x="99.03,102.391,108.206,110.711,111.506,114.756,120.572,125.356,127.86099999999999,128.655,132.888,137.671,142.104,147.559,153.375,159.481,161.986,162.78,167.013,170.263,175.257,180.812,185.596,188.085,190.59,191.384,194.635,200.451,205.234,207.739,208.534,214.64,219.423,222.363,225.303,230.943,235.727,239.669,245.224,247.72899999999998,248.523,252.465,257.92,263.445,268.9,272.151,274.656,275.45,279.392,284.847,288.098,293.138,296.388,301.172,307.278,309.783,310.59,313.835,319.644,323.58,329.029,335.049,340.598,346.408,348.913,349.707,354.695,359.735,363.721,366.204,369.445,374.485,380.304,386.405,388.90999999999997,389.704,392.949,398.758,403.536,406.041,406.835,410.08,415.889,420.667,426.116,430.052,434.829,438.074,441.014,445.44,450.48,453.374,456.615,462.424,467.202,472.242,478.303,481.243,487.062,492.612,495.852,500.892,506.712,512.261,515.154,519.932" svgx:width="0.34,0.58,0.25,0.55,0.33,0.58,0.48,0.25,0.55,0.42,0.48,0.44,0.55,0.58,0.61,0.25,0.55,0.42,0.33,0.5,0.56,0.48,0.25,0.25,0.55,0.33,0.58,0.48,0.25,0.55,0.61,0.48,0.29,0.29,0.56,0.48,0.4,0.56,0.25,0.55,0.4,0.55,0.55,0.55,0.33,0.25,0.55,0.4,0.55,0.33,0.5,0.33,0.48,0.61,0.25,0.55,0.33,0.58,0.4,0.55,0.6,0.56,0.58,0.25,0.55,0.5,0.5,0.4,0.25,0.25,0.5,0.58,0.61,0.25,0.55,0.33,0.58,0.48,0.25,0.55,0.33,0.58,0.48,0.55,0.4,0.48,0.33,0.29,0.44,0.5,0.29,0.25,0.58,0.48,0.5,0.61,0.29,0.58,0.56,0.25,0.5,0.58,0.56,0.29,0.48,0.25" style="fill:rgb(0,0,0);font-family:PalatinoLinotype;font-size:10.02px;stroke:none;">In the second stage, the delivery robot rotated through 90°, and the theoretical heading angle </text>
   <text y="652.393" x="77.791,82.831,86.19,89.442,94.226,98.169,100.67399999999999,102.31,105.561,111.588,115.531,121.348,124.287,130.107,135.663,138.168,139.803,148.145,153.185,157.419,159.924,161.551,166.531,171.511,176.551,180.512,183.032,185.537,187.172,193.317,199.152,203.954,209.789,212.297,214.802,216.437,219.676,225.495,230.298,232.803,234.438,238.399,243.873,249.391,254.852,258.09,260.59499999999997,262.231,271.052,276.513,282.154,286.953,293.078,295.58299999999997,297.219,300.137,305.972,308.477,310.112,315.125,317.63,319.266,323.517,326.756,330.716,335.696,338.615,344.189,350.024,353.262,355.767,357.403,363.528,366.408,370.307,375.107,379.559,382.797,385.716,391.19,397.025,399.53,401.165,406.178,411.696,416.709,419.628,425.387,427.847,430.352,431.987,435.948,440.751,445.764,450.216,456.05,460.853,466.978,469.483,471.119,474.357,480.177,484.979,487.484,489.059,493.311,498.113,502.565,508.039,513.874,519.999" svgx:width="0.5,0.33,0.33,0.48,0.4,0.25,0.55,0.33,0.6,0.4,0.58,0.29,0.58,0.56,0.25,0.55,0.83,0.5,0.42,0.25,0.55,0.5,0.5,0.5,0.4,0.25,0.25,0.55,0.61,0.58,0.48,0.58,0.25,0.25,0.55,0.33,0.58,0.48,0.25,0.55,0.4,0.55,0.55,0.55,0.33,0.25,0.55,0.88,0.55,0.56,0.48,0.61,0.25,0.55,0.29,0.58,0.25,0.55,0.5,0.25,0.55,0.42,0.33,0.4,0.5,0.29,0.56,0.58,0.33,0.25,0.55,0.61,0.29,0.4,0.48,0.44,0.33,0.29,0.55,0.58,0.25,0.55,0.5,0.56,0.5,0.29,0.58,0.25,0.25,0.55,0.4,0.48,0.5,0.44,0.58,0.48,0.61,0.25,0.55,0.33,0.58,0.48,0.25,0.55,0.42,0.48,0.44,0.55,0.58,0.61,0.25" style="fill:rgb(0,0,0);font-family:PalatinoLinotype;font-size:10.02px;stroke:none;">after turning was −90°. Then, the robot moved in a straight direction again, reached the second </text>
   <text y="665.893" x="77.791,81.044,87.073,91.018,96.837,99.777,105.596,111.154,113.65899999999999,114.454,120.463,125.921,128.861,134.68,137.934,140.426,142.93099999999998,143.725,148.765,154.525,160.634,163.13899999999998,163.934,167.878,173.336,176.59,181.63,184.883,189.67,195.779,199.02,202.273,208.092,212.037,217.495,223.524,229.082,234.9,238.141,243.181,248.161,252.156,254.648,257.888,265.671,268.924,271.429,272.224,275.477,281.296,284.236,288.497,291.002,291.797,295.05,298.05,306.883,311.667,314.157,317.398,320.649,326.466,331.251,333.756,334.55,337.802,343.618,348.403,353.859,357.802,362.586,365.838,368.778,373.211,378.206,381.146,383.651,384.446,390.262,395.047,400.087,406.208,409.148,414.908,420.464,423.704,428.744,434.504,440.06,443.0,447.784,451.024,455.257,461.074,466.53,472.557,475.497,481.618,484.123,484.917,490.443,495.228,497.733,498.528,503.523,508.563,513.558,517.551,520.041" svgx:width="0.33,0.6,0.4,0.58,0.29,0.58,0.56,0.25,0.55,0.6,0.55,0.29,0.58,0.33,0.25,0.25,0.55,0.5,0.58,0.61,0.25,0.55,0.4,0.55,0.33,0.5,0.33,0.48,0.61,0.25,0.33,0.58,0.4,0.55,0.6,0.56,0.58,0.25,0.5,0.5,0.4,0.25,0.25,0.78,0.33,0.25,0.55,0.33,0.58,0.29,0.42,0.25,0.55,0.33,0.29,0.88,0.48,0.25,0.25,0.33,0.58,0.48,0.25,0.55,0.33,0.58,0.48,0.55,0.4,0.48,0.33,0.29,0.44,0.5,0.29,0.25,0.55,0.58,0.48,0.5,0.61,0.29,0.58,0.56,0.25,0.5,0.58,0.56,0.29,0.48,0.25,0.42,0.58,0.55,0.6,0.29,0.61,0.25,0.55,0.55,0.48,0.25,0.55,0.5,0.5,0.5,0.4,0.25,0.25" style="fill:rgb(0,0,0);font-family:PalatinoLinotype;font-size:10.02px;stroke:none;">turning point, and rotated through 90°. At this time, the theoretical heading angle should be 180°. </text>
   <text y="679.333" x="77.791,83.918,89.734,94.519,97.099,105.932,110.716,115.711,119.945,125.972,129.915,134.699,143.532,148.316,154.133,157.384,159.965,166.072,171.112,174.363,179.358,181.939,187.394,190.716,193.236,196.488,202.304,207.089,209.669,213.031,222.494,230.275,232.855,238.672,243.712,247.945,250.465,255.25,259.193,263.136,268.591,272.534,276.768,279.258,281.778,286.818,292.638,298.745,301.325,304.576,310.351,315.137,317.718,320.971,326.79,331.576,337.034,340.979,345.766,349.019,351.922,356.304,361.344,364.246,366.827,370.726,375.766,381.585,387.143,391.883,394.463,399.921,403.244,405.824,408.727,411.981,416.216,418.796,427.558,432.357,437.354,441.59,447.619,451.564,456.35,465.185,469.971,475.79,479.043,481.624,487.204,492.244,495.147,501.176,505.962,510.198,512.778,515.681,519.916" svgx:width="0.61,0.58,0.48,0.25,0.88,0.48,0.5,0.42,0.6,0.4,0.48,0.88,0.48,0.58,0.33,0.25,0.61,0.5,0.33,0.5,0.25,0.55,0.33,0.25,0.33,0.58,0.48,0.25,0.34,0.95,0.78,0.25,0.58,0.5,0.42,0.25,0.48,0.4,0.4,0.55,0.4,0.42,0.25,0.25,0.5,0.58,0.61,0.25,0.33,0.58,0.48,0.25,0.33,0.58,0.48,0.55,0.4,0.48,0.33,0.29,0.44,0.5,0.29,0.25,0.4,0.5,0.58,0.56,0.48,0.25,0.55,0.33,0.25,0.29,0.33,0.42,0.25,0.88,0.48,0.5,0.42,0.6,0.4,0.48,0.88,0.48,0.58,0.33,0.25,0.56,0.5,0.29,0.6,0.48,0.42,0.25,0.29,0.42,0.25" style="fill:rgb(0,0,0);font-family:PalatinoLinotype;font-size:10.02px;stroke:none;">The measurement data of the IMU has errors, and the theoretical range of its measurement values is </text>
   <text y="692.833" x="77.791,81.15,86.13,91.121,96.161,101.152,105.141,107.627,110.027,115.018,120.058,125.049,129.038,132.398,134.858,137.257,145.575,150.355,156.168,160.598,165.378,167.864,170.324,179.153,183.934,188.974,193.175,199.198,203.137,207.917,216.746,221.527,227.339,230.587,233.047,239.15,244.19,247.437,252.428,254.888,259.118,262.058,270.819,273.759,276.656,281.696,285.635,288.095,291.342,296.794,299.254,302.501,308.314,313.094,315.691,319.952,323.19,328.003,334.002,336.462,340.663,343.603,349.187,354.947,359.97,362.899,365.359,373.639,376.568,379.497,382.377,384.836,390.354,395.154,397.614,403.132,407.931,413.776,418.589,422.488,427.529,430.767,435.567,441.702,444.162,449.185,452.423,454.823,459.846,462.246,466.507,472.506,477.319,481.781,484.661,488.02,490.9,495.342,497.802,501.04,503.98,512.802,517.601,520.001" svgx:width="0.33,0.5,0.5,0.5,0.5,0.4,0.25,0.25,0.5,0.5,0.5,0.4,0.33,0.25,0.25,0.83,0.48,0.58,0.44,0.48,0.25,0.25,0.88,0.48,0.5,0.42,0.6,0.4,0.48,0.88,0.48,0.58,0.33,0.25,0.61,0.5,0.33,0.5,0.25,0.42,0.29,0.88,0.29,0.29,0.5,0.4,0.25,0.33,0.55,0.25,0.33,0.58,0.48,0.25,0.42,0.33,0.48,0.6,0.25,0.42,0.29,0.56,0.58,0.5,0.29,0.25,0.83,0.29,0.29,0.29,0.25,0.55,0.48,0.25,0.56,0.48,0.58,0.48,0.4,0.5,0.33,0.48,0.61,0.25,0.5,0.33,0.25,0.5,0.25,0.42,0.6,0.48,0.44,0.29,0.33,0.29,0.44,0.25,0.33,0.29,0.88,0.48,0.25,0.25" style="fill:rgb(0,0,0);font-family:PalatinoLinotype;font-size:10.02px;stroke:none;">(−180°, 180°]. Hence, measurement data similar to the step signal will be generated at a specific time. </text>
   <text y="706.333" x="77.791,83.936,89.771,94.573,97.07799999999999,98.053,104.178,108.981,111.9,114.819,120.483,125.223,129.183,134.757,137.262,138.177,142.138,147.612,153.156,158.63,161.868,164.373,165.348,173.708,176.627,179.546,182.465,184.97,185.945,189.183,194.942,199.745,205.58,208.085,209.06,213.021,217.823,221.062,227.122,231.083,236.917,239.422,240.397,243.636,249.097,251.602,252.577,255.815,261.635,266.437,268.942,269.917,274.169,277.407,282.42,286.381,289.619,292.559,298.319,303.871,306.376,307.35,313.375,318.849,321.768,327.602,330.84,333.34499999999997,334.319,339.983,342.902,347.915,350.42,351.394,354.631,360.45,365.252,367.757,368.731,372.63,377.429,386.279,391.292,394.211,399.97,402.889,408.723,414.297,416.802,417.776,421.014,427.073,430.972,436.79,439.709,445.544,451.118,453.623,454.597,460.622,466.096,469.015,474.849,478.087,482.347,484.852,485.766,490.745,496.564,502.689,505.194,506.168,509.405,515.224,519.962" svgx:width="0.61,0.58,0.48,0.25,0.55,0.61,0.48,0.29,0.29,0.56,0.48,0.4,0.56,0.25,0.55,0.4,0.55,0.55,0.55,0.33,0.25,0.55,0.83,0.29,0.29,0.29,0.25,0.55,0.33,0.58,0.48,0.58,0.25,0.55,0.4,0.48,0.33,0.6,0.4,0.58,0.25,0.55,0.33,0.55,0.25,0.55,0.33,0.58,0.48,0.25,0.55,0.42,0.33,0.5,0.4,0.33,0.29,0.58,0.56,0.25,0.55,0.6,0.55,0.29,0.58,0.33,0.25,0.55,0.56,0.29,0.5,0.25,0.55,0.33,0.58,0.48,0.25,0.55,0.4,0.48,0.88,0.5,0.29,0.58,0.29,0.58,0.56,0.25,0.55,0.33,0.6,0.4,0.58,0.29,0.58,0.56,0.25,0.55,0.6,0.55,0.29,0.58,0.33,0.42,0.25,0.55,0.5,0.58,0.61,0.25,0.55,0.33,0.58,0.48,0.25" style="fill:rgb(0,0,0);font-family:PalatinoLinotype;font-size:10.02px;stroke:none;">The delivery robot will then return to the starting point via the remaining turning points and the </text>
   <text y="719.833" x="77.791,82.04,85.308,89.267,94.278,97.194,102.767,108.599,111.867,114.387,120.41,125.421,128.688,134.521,136.981,139.501,145.073,147.99,153.508,159.568,163.527,168.266,170.786,175.797,180.808,183.268,187.518,193.277,198.749,207.107,211.356,213.876,217.144,222.976,227.777,230.297,234.256,238.995,243.245,246.512,249.032,254.043,256.564,260.813,265.614,268.881,273.131,275.651,281.051,284.411,286.931,292.764,297.503,302.514,308.576,311.493,317.326,322.898,325.418,330.429,336.188,341.761,344.677,349.417,353.678,356.198,365.047,369.786,374.797,378.999,385.042,389.001,393.801,399.925,402.445,407.902,413.481,416.001,419.268,425.101,429.84,432.36,435.738,445.218,453.014,455.474" svgx:width="0.42,0.33,0.4,0.5,0.29,0.56,0.58,0.33,0.25,0.6,0.5,0.33,0.58,0.25,0.25,0.56,0.29,0.56,0.6,0.4,0.48,0.25,0.5,0.5,0.25,0.42,0.58,0.55,0.83,0.42,0.25,0.33,0.58,0.48,0.25,0.4,0.48,0.42,0.33,0.25,0.5,0.25,0.42,0.48,0.33,0.42,0.25,0.55,0.33,0.25,0.58,0.48,0.5,0.61,0.29,0.58,0.56,0.25,0.5,0.58,0.56,0.29,0.48,0.42,0.25,0.88,0.48,0.5,0.42,0.6,0.4,0.48,0.61,0.25,0.55,0.56,0.25,0.33,0.58,0.48,0.25,0.34,0.95,0.78,0.25,0.25" style="fill:rgb(0,0,0);font-family:PalatinoLinotype;font-size:10.02px;stroke:none;">straight path. Figure 12 shows the rest 4 sets of heading angles measured by the IMU. </text>
   <text y="881.594" x="509.13" svgx:width="0.25" style="fill:rgb(0,0,0);font-family:PalatinoLinotype;font-size:12.0px;stroke:none;"> </text>
   <text y="896.294" x="158.67" svgx:width="0.33" style="fill:rgb(0,0,0);font-family:PalatinoLinotype;font-size:10.02px;stroke:none;">(</text>
   <text y="896.294" x="162.03" svgx:width="0.5" style="fill:rgb(0,0,0);font-family:PalatinoLinotype,Bold;font-size:10.02px;stroke:none;">a</text>
   <text y="896.294" x="167.01,170.369,172.889,179.002,184.803,189.603,192.063,197.103,202.922,209.014,211.535,216.304,221.444,227.436,232.236,236.196,239.136,247.953,252.753,258.554,261.791,264.296,353.111" svgx:width="0.33,0.25,0.61,0.58,0.48,0.25,0.5,0.58,0.61,0.25,0.48,0.52,0.6,0.48,0.4,0.29,0.88,0.48,0.58,0.33,0.25,0.55,0.33" style="fill:rgb(0,0,0);font-family:PalatinoLinotype;font-size:10.02px;stroke:none;">) The 2nd experiment (</text>
   <text y="896.294" x="356.49" svgx:width="0.61" style="fill:rgb(0,0,0);font-family:PalatinoLinotype,Bold;font-size:10.02px;stroke:none;">b</text>
   <text y="896.294" x="362.61,365.939,368.459,374.593,380.417,385.208,387.668,392.67,396.62,402.734,405.254,409.994,415.153,421.167,425.958,429.908,432.816,441.656,446.447,452.271,455.53" svgx:width="0.33,0.25,0.61,0.58,0.48,0.25,0.5,0.4,0.61,0.25,0.48,0.52,0.6,0.48,0.4,0.29,0.88,0.48,0.58,0.33,0.25" style="fill:rgb(0,0,0);font-family:PalatinoLinotype;font-size:10.02px;stroke:none;">) The 3rd experiment </text>
  </g>
  <rect style="stroke:blue;stroke-width:0.3;" x="164.43" y="294.484" height="213.0" width="268.98" title="17"/>
  <text y="294.484" class="image" id="image.17.1" width="268" height="213" x="164.43">image.17.1.164_433.294_507</text>
  <rect style="stroke:blue;stroke-width:0.3;" x="164.43" y="294.484" height="213.0" width="268.98" title="17"/>
  <text y="294.484" class="image" id="image.17.2" width="268" height="213" x="164.43">image.17.2.164_433.294_507</text>
  <rect style="stroke:blue;stroke-width:0.3;" x="88.65" y="685.204" height="154.5" width="420.48" title="17"/>
  <text y="685.204" class="image" id="image.17.3" width="420" height="154" x="88.65">image.17.3.89_509.685_840</text>
  <rect style="stroke:blue;stroke-width:0.3;" x="88.65" y="685.204" height="154.5" width="420.48" title="17"/>
  <text y="685.204" class="image" id="image.17.4" width="420" height="154" x="88.65">image.17.4.89_509.685_840</text>
  <g begin="text">
   <text y="558.749" x="110.386,115.371,118.357,123.342,128.821,132.309,136.794,139.034,143.517,148.0" svgx:width="0.56,0.33,0.56,0.61,0.39,0.5,0.55,0.5,0.5,0.25" style="fill:rgb(0,0,0);font-family:URWPalladioL-Bold;font-size:8.97px;stroke:none;">Figure 11.</text>
   <text y="558.749" x="153.379,160.839,165.134,169.617,175.096,177.705,182.923,187.9462,190.15,194.633,199.852,204.837,207.446,211.7516,213.983,217.964,223.182,227.666,232.884,237.869,242.164,245.9314,248.208,256.125,260.42,264.903,268.705,274.112,277.492,281.787,287.2587,289.507,294.465,299.48819999999995,301.692,306.588,311.806,316.1116,318.343,323.238,326.1981,328.466,333.891,338.957,343.2626,345.493,348.102,353.321,357.616,361.157,364.08,366.69,371.173,373.7743,376.024,383.941,388.236,392.719,396.521,401.928,405.308,409.603,417.52,421.815,427.033,429.9931,432.198,437.605,442.823,445.432,448.355,452.1224,454.399,457.385,460.406,468.889,475.864,479.666,482.652" svgx:width="0.83,0.48,0.5,0.61,0.29,0.58,0.56,0.55,0.5,0.58,0.56,0.29,0.48,0.55,0.44,0.58,0.5,0.58,0.56,0.48,0.42,0.55,0.88,0.48,0.5,0.42,0.6,0.4,0.48,0.61,0.55,0.55,0.56,0.55,0.55,0.58,0.48,0.55,0.55,0.33,0.55,0.61,0.56,0.48,0.55,0.29,0.58,0.48,0.4,0.33,0.29,0.5,0.29,0.55,0.88,0.48,0.5,0.42,0.6,0.4,0.48,0.88,0.48,0.58,0.33,0.55,0.6,0.58,0.29,0.33,0.42,0.55,0.33,0.34,0.95,0.78,0.42,0.33,0.25" style="fill:rgb(0,0,0);font-family:URWPalladioL-Roma;font-size:8.97px;stroke:none;">Heading angle changes measured by one of ﬁve inertial measurement units (IMUs).</text>
   <text y="582.083" x="97.795,101.119,106.8958,109.354,114.838,117.708,123.192,129.14,132.848" svgx:width="0.34,0.58,0.55,0.56,0.29,0.56,0.6,0.4,0.48" style="fill:rgb(0,0,0);font-family:URWPalladioL-Roma;font-size:9.96px;stroke:none;">In Figure</text>
   <text y="582.083" x="140.068,144.999" svgx:width="0.5,0.5" style="fill:rgb(8,117,183);font-family:URWPalladioL-Roma;font-size:9.96px;stroke:none;">11</text>
   <text y="582.083" x="149.931,152.42100000000002,154.892,158.107,163.847,168.6278,171.067,177.034,180.93,185.112,188.3988,190.813,194.995,198.21,203.141,208.625,213.4058,215.845,218.715,222.8982,225.392,228.608,234.348,239.1288,241.558,245.74,248.955,253.886,257.782,260.998,264.282,270.229,276.205,278.652,284.038,289.965,294.69,298.585,303.517,306.732,309.602,314.988,320.7648,323.223,327.405,330.62,335.552,341.026,345.75,348.24,351.717,359.391,362.67780000000005,365.092,368.307,374.047,376.917,381.1002,383.594,386.81,389.68,398.389,403.113,405.603,408.074,411.29,417.03,421.8108,424.24,430.266,434.99,437.861,440.731,446.303,451.028,454.923,460.5006,462.903,466.621,472.006,477.46,482.846,486.13280000000003,488.546,492.728,495.944,500.875,504.771,507.986,512.711" svgx:width="0.25,0.55,0.33,0.58,0.48,0.55,0.61,0.4,0.42,0.33,0.55,0.42,0.33,0.5,0.56,0.48,0.55,0.29,0.42,0.55,0.33,0.58,0.48,0.55,0.42,0.33,0.5,0.4,0.33,0.33,0.6,0.6,0.55,0.55,0.6,0.48,0.4,0.5,0.33,0.29,0.55,0.58,0.55,0.42,0.33,0.5,0.56,0.48,0.25,0.55,0.78,0.33,0.55,0.33,0.58,0.29,0.42,0.55,0.33,0.29,0.88,0.48,0.25,0.55,0.33,0.58,0.48,0.55,0.61,0.48,0.29,0.29,0.56,0.48,0.4,0.56,0.55,0.4,0.55,0.55,0.55,0.33,0.55,0.42,0.33,0.5,0.4,0.33,0.48,0.61" style="fill:rgb(0,0,0);font-family:URWPalladioL-Roma;font-size:9.96px;stroke:none;">, the ﬁrst stage is the start-up operation stage. At this time, the delivery robot started</text>
   <text y="595.592" x="76.535,81.591,87.476,93.5516,96.132,105.061,110.582,116.296,121.139,127.21459999999999,129.795,133.092,138.57000000000002,141.09,144.387,150.272,155.0528,157.593,163.711,167.705,171.993,175.2798,177.777,182.833" svgx:width="0.5,0.58,0.61,0.55,0.88,0.55,0.56,0.48,0.61,0.55,0.33,0.55,0.55,0.33,0.58,0.48,0.55,0.61,0.4,0.42,0.33,0.55,0.5,0.5" style="fill:rgb(0,0,0);font-family:URWPalladioL-Roma;font-size:9.96px;stroke:none;">and moved to the ﬁrst 90</text>
   <text y="591.976" x="187.885" svgx:width="0.52" style="fill:rgb(0,0,0);font-family:Pxsy;font-size:7.57px;stroke:none;">◦</text>
   <text y="595.592" x="194.822,198.119,204.216,208.21,214.096,217.038,222.923,228.5006,231.023,237.1,242.622,245.564,251.449,254.746,257.236,260.753,264.16,269.9368,272.533,275.83,281.715,284.657,288.8402,291.422,297.5,301.312,306.833,311.323,316.166,320.454,324.741,327.231,329.747,333.043,338.929,343.7098,346.25,349.546,355.431,360.275,365.796,369.619,374.462,377.759,380.701,385.191,390.247,393.1354,395.667,401.552,406.396,411.452,417.631,420.573,426.458,432.03560000000004,434.558,439.614,445.499,451.122,454.064,458.8448,461.385,470.314,475.158,480.214,484.501,490.599,494.411,499.255,505.3306,507.911,513.503" svgx:width="0.33,0.6,0.4,0.58,0.29,0.58,0.56,0.55,0.6,0.55,0.29,0.58,0.33,0.25,0.55,0.34,0.58,0.55,0.33,0.58,0.29,0.42,0.55,0.6,0.4,0.55,0.44,0.48,0.42,0.42,0.25,0.55,0.33,0.58,0.48,0.55,0.33,0.58,0.48,0.55,0.4,0.48,0.33,0.29,0.44,0.5,0.29,0.55,0.58,0.48,0.5,0.61,0.29,0.58,0.56,0.55,0.5,0.58,0.56,0.29,0.48,0.55,0.88,0.48,0.5,0.42,0.6,0.4,0.48,0.61,0.55,0.55,0.56" style="fill:rgb(0,0,0);font-family:URWPalladioL-Roma;font-size:9.96px;stroke:none;">turning point. In this process, the theoretical heading angle measured by</text>
   <text y="609.102" x="76.535,79.783,85.581,90.3618,92.844,96.201,105.626,113.3948,115.867,118.766,122.9492,125.481" svgx:width="0.33,0.58,0.48,0.55,0.34,0.95,0.78,0.55,0.29,0.42,0.55,0.5" style="fill:rgb(0,0,0);font-family:URWPalladioL-Roma;font-size:9.96px;stroke:none;">the IMU is 0</text>
   <text y="605.485" x="130.463" svgx:width="0.52" style="fill:rgb(0,0,0);font-family:Pxsy;font-size:7.57px;stroke:none;">◦</text>
   <text y="609.102" x="134.921" svgx:width="0.25" style="fill:rgb(0,0,0);font-family:URWPalladioL-Roma;font-size:9.96px;stroke:none;">.</text>
   <text y="622.611" x="97.795,101.22,106.9968,109.979,113.292,119.206,123.9868,126.919,131.228,136.095,140.607,146.155,152.069,158.1446,161.124,165.432,168.745,173.826,179.476,184.344,186.834,189.821,193.133,199.048,203.8288,206.761,212.969,217.837,220.794,223.751,229.493,234.36,238.374,243.95159999999998,246.869,250.7,256.249,261.868,267.417,270.7038,273.575,277.416,282.964,286.277,291.358,294.671,299.538,305.6136,308.592,311.905,317.819,321.65,327.199,333.326,338.976,344.7528,347.736,352.817" svgx:width="0.34,0.58,0.55,0.33,0.58,0.48,0.55,0.42,0.48,0.44,0.55,0.58,0.61,0.55,0.42,0.33,0.5,0.56,0.48,0.25,0.55,0.33,0.58,0.48,0.55,0.61,0.48,0.29,0.29,0.56,0.48,0.4,0.56,0.55,0.4,0.55,0.55,0.55,0.33,0.55,0.4,0.55,0.33,0.5,0.33,0.48,0.61,0.55,0.33,0.58,0.4,0.55,0.6,0.56,0.58,0.55,0.5,0.5" style="fill:rgb(0,0,0);font-family:URWPalladioL-Roma;font-size:9.96px;stroke:none;">In the second stage, the delivery robot rotated through 90</text>
   <text y="618.995" x="357.899" svgx:width="0.52" style="fill:rgb(0,0,0);font-family:Pxsy;font-size:7.57px;stroke:none;">◦</text>
   <text y="622.611" x="362.357,364.84700000000004,367.834,372.915,378.829,384.9046,387.884,391.196,397.111,401.8918,404.823,408.136,414.05,418.918,424.466,428.297,433.165,436.477,439.435,443.946,449.027,451.9154,454.83,460.744,465.611,470.692,476.901,479.858,485.773,491.35060000000004,494.268,499.349,505.263,510.913,513.87" svgx:width="0.25,0.55,0.5,0.58,0.61,0.55,0.33,0.58,0.48,0.55,0.33,0.58,0.48,0.55,0.4,0.48,0.33,0.29,0.44,0.5,0.29,0.55,0.58,0.48,0.5,0.61,0.29,0.58,0.56,0.55,0.5,0.58,0.56,0.29,0.48" style="fill:rgb(0,0,0);font-family:URWPalladioL-Roma;font-size:9.96px;stroke:none;">, and the theoretical heading angle</text>
   <text y="636.12" x="76.535,81.616,85.0,88.313,93.18,97.164,100.619,103.931,110.059,114.073,119.987,122.944,128.858,134.4356,137.923,146.398,151.479" svgx:width="0.5,0.33,0.33,0.48,0.4,0.55,0.33,0.6,0.4,0.58,0.29,0.58,0.56,0.55,0.83,0.5,0.42" style="fill:rgb(0,0,0);font-family:URWPalladioL-Roma;font-size:9.96px;stroke:none;">after turning was</text>
   <text y="636.12" x="159.21" svgx:width="0.67" style="fill:rgb(0,0,0);font-family:Pxsy;font-size:9.96px;stroke:none;">−</text>
   <text y="636.12" x="165.875,170.956" svgx:width="0.5,0.5" style="fill:rgb(0,0,0);font-family:URWPalladioL-Roma;font-size:9.96px;stroke:none;">90</text>
   <text y="632.504" x="176.036" svgx:width="0.52" style="fill:rgb(0,0,0);font-family:Pxsy;font-size:7.57px;stroke:none;">◦</text>
   <text y="636.12" x="180.495,182.985,189.315,195.545,201.459,206.326,212.241,214.73100000000002,218.429,221.742,227.656,232.4368,235.948,239.779,245.328,250.947,256.496,259.7828,263.233,272.206,277.754,283.496,288.363,294.4386,297.986,300.943,306.71979999999996,310.282,315.262,318.777,323.086,326.399,330.413,335.494,338.451,344.101,350.015,353.3018,356.752,362.961,365.918,369.749,374.617,379.129,382.441,385.399,390.947,396.7238,400.286,405.367,411.017,416.097,419.055,424.969,427.459,431.157,434.999,439.866,444.947,449.459,455.373,460.241,466.3166,469.864,473.177,479.091,483.8718,487.383,491.691,496.559,501.071,506.619,512.533" svgx:width="0.25,0.55,0.61,0.58,0.48,0.58,0.25,0.55,0.33,0.58,0.48,0.55,0.4,0.55,0.55,0.55,0.33,0.55,0.88,0.55,0.56,0.48,0.61,0.55,0.29,0.58,0.55,0.5,0.55,0.42,0.33,0.4,0.5,0.29,0.56,0.58,0.33,0.55,0.61,0.29,0.4,0.48,0.44,0.33,0.29,0.55,0.58,0.55,0.5,0.56,0.5,0.29,0.58,0.25,0.55,0.4,0.48,0.5,0.44,0.58,0.48,0.61,0.55,0.33,0.58,0.48,0.55,0.42,0.48,0.44,0.55,0.58,0.61" style="fill:rgb(0,0,0);font-family:URWPalladioL-Roma;font-size:9.96px;stroke:none;">. Then, the robot moved in a straight direction again, reached the second</text>
   <text y="649.63" x="76.535,79.848,85.975,89.989,95.903,98.861,104.775,110.35260000000001,113.26,119.367,124.916,127.873,133.787,137.1,139.59,142.557,147.637,153.552,159.6276,162.596,166.437,171.985,175.298,180.379,183.692,188.559,194.6346,197.593,200.906,206.82,210.661,216.21,222.337,227.987,233.7638,236.737,241.818" svgx:width="0.33,0.6,0.4,0.58,0.29,0.58,0.56,0.55,0.6,0.55,0.29,0.58,0.33,0.25,0.55,0.5,0.58,0.61,0.55,0.4,0.55,0.33,0.5,0.33,0.48,0.61,0.55,0.33,0.58,0.4,0.55,0.6,0.56,0.58,0.55,0.5,0.5" style="fill:rgb(0,0,0);font-family:URWPalladioL-Roma;font-size:9.96px;stroke:none;">turning point, and rotated through 90</text>
   <text y="646.013" x="246.896" svgx:width="0.52" style="fill:rgb(0,0,0);font-family:Pxsy;font-size:7.57px;stroke:none;">◦</text>
   <text y="649.63" x="251.354,253.84400000000002,258.417,266.322,269.60880000000003,272.47,275.783,281.697,284.654,288.8372,291.788,295.101,298.058,307.031,311.898,314.38800000000003,317.365,320.678,326.592,331.3728,334.295,337.608,343.522,348.389,353.938,357.769,362.636,365.949,368.906,373.418,378.499,381.3874,384.291,390.205,395.073,400.154,406.363,409.32,415.234,420.8116,423.719,428.8,434.714,440.364,443.321,448.1018,451.024,455.333,461.247,466.795,472.923,475.88,481.9556,484.924,490.544,495.3248,498.246,503.327,508.408" svgx:width="0.25,0.55,0.78,0.33,0.55,0.33,0.58,0.29,0.42,0.55,0.33,0.29,0.88,0.48,0.25,0.55,0.33,0.58,0.48,0.55,0.33,0.58,0.48,0.55,0.4,0.48,0.33,0.29,0.44,0.5,0.29,0.55,0.58,0.48,0.5,0.61,0.29,0.58,0.56,0.55,0.5,0.58,0.56,0.29,0.48,0.55,0.42,0.58,0.55,0.6,0.29,0.61,0.55,0.55,0.48,0.55,0.5,0.5,0.5" style="fill:rgb(0,0,0);font-family:URWPalladioL-Roma;font-size:9.96px;stroke:none;">. At this time, the theoretical heading angle should be 180</text>
   <text y="646.013" x="513.485" svgx:width="0.52" style="fill:rgb(0,0,0);font-family:Pxsy;font-size:7.57px;stroke:none;">◦</text>
   <text y="649.63" x="517.943" svgx:width="0.25" style="fill:rgb(0,0,0);font-family:URWPalladioL-Roma;font-size:9.96px;stroke:none;">.</text>
   <text y="663.139" x="76.226,82.455,88.369,93.1498,96.072,105.045,109.913,114.993,119.302,125.43,129.261,134.128,143.101,147.969,153.883,157.1698,160.031,166.24,171.321,174.633,179.613,182.549,188.098,191.3848,194.317,197.63,203.544,208.3248,211.236,214.661,224.274,232.0428,235.015,240.929,246.01,250.1932,253.154,258.022,262.035,265.866,271.415,275.429,279.737,282.22700000000003,285.194,290.275,296.189,302.26460000000003,305.233,308.546,314.46,319.2408,322.163,325.476,331.39,336.258,341.806,345.637,350.504,353.817,356.774,361.286,366.367,369.2554,372.159,376.173,381.254,387.168,392.818,397.5988,400.521,406.069,409.35580000000004,412.289,415.246,418.558,422.7412,425.702,434.675,439.532,444.613,448.922,455.05,458.891,463.758,472.731,477.599,483.513,486.7998,489.661,495.402,500.483,503.44,509.568,514.435" svgx:width="0.61,0.58,0.48,0.55,0.88,0.48,0.5,0.42,0.6,0.4,0.48,0.88,0.48,0.58,0.33,0.55,0.61,0.5,0.33,0.5,0.55,0.55,0.33,0.55,0.33,0.58,0.48,0.55,0.34,0.95,0.78,0.55,0.58,0.5,0.42,0.55,0.48,0.4,0.4,0.55,0.4,0.42,0.25,0.55,0.5,0.58,0.61,0.55,0.33,0.58,0.48,0.55,0.33,0.58,0.48,0.55,0.4,0.48,0.33,0.29,0.44,0.5,0.29,0.55,0.4,0.5,0.58,0.56,0.48,0.55,0.55,0.33,0.55,0.29,0.33,0.42,0.55,0.88,0.48,0.5,0.42,0.6,0.4,0.48,0.88,0.48,0.58,0.33,0.55,0.56,0.5,0.29,0.6,0.48,0.42" style="fill:rgb(0,0,0);font-family:URWPalladioL-Roma;font-size:9.96px;stroke:none;">The measurement data of the IMU has errors, and the theoretical range of its measurement values</text>
   <text y="676.649" x="76.535,79.492,83.6752,86.565" svgx:width="0.29,0.42,0.55,0.33" style="fill:rgb(0,0,0);font-family:URWPalladioL-Roma;font-size:9.96px;stroke:none;">is (</text>
   <text y="676.649" x="89.948" svgx:width="0.67" style="fill:rgb(0,0,0);font-family:Pxsy;font-size:9.96px;stroke:none;">−</text>
   <text y="676.649" x="96.613,101.694,106.775" svgx:width="0.5,0.5,0.5" style="fill:rgb(0,0,0);font-family:URWPalladioL-Roma;font-size:9.96px;stroke:none;">180</text>
   <text y="673.032" x="111.856" svgx:width="0.52" style="fill:rgb(0,0,0);font-family:Pxsy;font-size:7.57px;stroke:none;">◦</text>
   <text y="676.649" x="116.314,118.80399999999999,121.69,126.771,131.851" svgx:width="0.25,0.55,0.5,0.5,0.5" style="fill:rgb(0,0,0);font-family:URWPalladioL-Roma;font-size:9.96px;stroke:none;">, 180</text>
   <text y="673.032" x="136.929" svgx:width="0.52" style="fill:rgb(0,0,0);font-family:Pxsy;font-size:7.57px;stroke:none;">◦</text>
   <text y="676.649" x="141.387,144.771,147.261,151.62,160.075,164.942,170.856,175.368,180.236,182.726,185.601,194.574,199.442,204.523,208.831,214.959,218.8,223.668,232.64,237.508,243.422,246.7088,249.489,255.698,260.779,264.091,269.071,271.936,276.245,279.202,288.175,291.132,294.089,299.17,303.154,305.948,309.261,314.73900000000003,317.573,320.886,326.8,331.5808,334.432,338.74,342.053,346.921,352.897,355.792,360.101,363.058,368.708,374.622,379.703,382.59139999999996,385.424,393.899,396.856,399.813,402.7014,405.534,411.154,415.9348,418.785,424.435,429.303,435.217,440.085,444.098,449.179,452.492,457.36,463.4356,466.322,471.403,474.68980000000005,477.48,482.46000000000004,485.325,489.634,495.741,500.609,505.12,508.078,514.225" svgx:width="0.33,0.25,0.55,0.83,0.48,0.58,0.44,0.48,0.25,0.55,0.88,0.48,0.5,0.42,0.6,0.4,0.48,0.88,0.48,0.58,0.33,0.55,0.61,0.5,0.33,0.5,0.55,0.42,0.29,0.88,0.29,0.29,0.5,0.4,0.55,0.33,0.55,0.55,0.33,0.58,0.48,0.55,0.42,0.33,0.48,0.6,0.55,0.42,0.29,0.56,0.58,0.5,0.29,0.55,0.83,0.29,0.29,0.29,0.55,0.55,0.48,0.55,0.56,0.48,0.58,0.48,0.4,0.5,0.33,0.48,0.61,0.55,0.5,0.33,0.55,0.5,0.55,0.42,0.6,0.48,0.44,0.29,0.61,0.44" style="fill:rgb(0,0,0);font-family:URWPalladioL-Roma;font-size:9.96px;stroke:none;">]. Hence, measurement data similar to the step signal will be generated at a speciﬁc</text>
   <text y="690.158" x="76.535,79.721,82.565,91.195,95.876,98.366,101.799,107.79,113.478,118.2588,120.642,126.613,131.295,134.139,136.983,142.505,147.186,151.047,156.6246,158.963,162.648,167.984,173.389,178.725,182.0118,184.383,192.534,195.378,198.223,201.1114,203.549,206.735,212.423,217.105,222.8818,225.275,228.96,233.641,236.827,242.72,246.581,252.3578,254.751,257.937,263.415,265.746,268.932,274.621,279.4018,281.784,285.928,289.114,294.001,297.861,301.048,303.892,309.58,315.1576,317.496,323.37,328.706,331.55,337.238,340.5248,342.907,348.429,351.273,356.25300000000004,358.642,361.828,367.516,372.2968,374.67,378.354,383.036,391.666,396.552,399.396,405.084,407.928,413.617,419.19460000000004,421.533,424.719,430.612,434.473,440.161,443.005,448.693,454.2706,456.609,462.483,467.819,470.663,476.351,479.537,483.7202,486.154,491.041,496.729,502.8046,505.183,508.369,514.057" svgx:width="0.33,0.29,0.88,0.48,0.25,0.55,0.61,0.58,0.48,0.55,0.61,0.48,0.29,0.29,0.56,0.48,0.4,0.56,0.55,0.4,0.55,0.55,0.55,0.33,0.55,0.83,0.29,0.29,0.29,0.55,0.33,0.58,0.48,0.58,0.55,0.4,0.48,0.33,0.6,0.4,0.58,0.55,0.33,0.55,0.55,0.33,0.58,0.48,0.55,0.42,0.33,0.5,0.4,0.33,0.29,0.58,0.56,0.55,0.6,0.55,0.29,0.58,0.33,0.55,0.56,0.29,0.5,0.55,0.33,0.58,0.48,0.55,0.4,0.48,0.88,0.5,0.29,0.58,0.29,0.58,0.56,0.55,0.33,0.6,0.4,0.58,0.29,0.58,0.56,0.55,0.6,0.55,0.29,0.58,0.33,0.42,0.55,0.5,0.58,0.61,0.55,0.33,0.58,0.48" style="fill:rgb(0,0,0);font-family:URWPalladioL-Roma;font-size:9.96px;stroke:none;">time. The delivery robot will then return to the starting point via the remaining turning points and the</text>
   <text y="703.667" x="76.535,80.759,84.007,87.942,92.923,95.823,101.362,107.16,110.4468,112.898,118.886,123.867,127.115,132.913,135.40300000000002,138.891,144.43,147.329,152.868,158.876,162.632" svgx:width="0.42,0.33,0.4,0.5,0.29,0.56,0.58,0.33,0.55,0.6,0.5,0.33,0.58,0.25,0.55,0.56,0.29,0.56,0.6,0.4,0.48" style="fill:rgb(0,0,0);font-family:URWPalladioL-Roma;font-size:9.96px;stroke:none;">straight path. Figure</text>
   <text y="703.667" x="169.895,174.876" svgx:width="0.5,0.5" style="fill:rgb(8,117,183);font-family:URWPalladioL-Roma;font-size:9.96px;stroke:none;">12</text>
   <text y="703.667" x="182.348,186.572,192.37,197.81,206.118,210.3012,212.833,216.081,221.879,226.6598,229.142,232.898,237.67,241.894,245.1808,247.633,252.613,255.105,259.329,264.101,267.349,271.5322,274.063,279.503,282.7898,285.311,291.109,295.881,300.863,306.95,309.849,315.647,321.2246,323.677,328.658,334.457,339.996,342.895,347.667,351.8502,354.382,363.179,367.951,372.932,377.156,383.164,386.92,391.692,397.7676,400.27,405.779,411.3566,413.809,417.057,422.855,427.6358,430.118,433.475,442.9,450.651" svgx:width="0.42,0.58,0.55,0.83,0.42,0.55,0.33,0.58,0.48,0.55,0.4,0.48,0.42,0.33,0.55,0.5,0.55,0.42,0.48,0.33,0.42,0.55,0.55,0.33,0.55,0.58,0.48,0.5,0.61,0.29,0.58,0.56,0.55,0.5,0.58,0.56,0.29,0.48,0.42,0.55,0.88,0.48,0.5,0.42,0.6,0.4,0.48,0.61,0.55,0.55,0.56,0.55,0.33,0.58,0.48,0.55,0.34,0.95,0.78,0.25" style="fill:rgb(0,0,0);font-family:URWPalladioL-Roma;font-size:9.96px;stroke:none;">shows the rest 4 sets of heading angles measured by the IMU.</text>
  </g>
 </g>
</svg>
