<?xml version="1.0" encoding="UTF-8"?>
<svg height="776.732" width="530.533" xmlns="http://www.w3.org/2000/svg">
 <g id="page" xmlns:svgx="http://www.xml-cml.org/schema/svgx">
  <g begin="text">
   <text y="62.979" x="76.535,84.059,87.598,89.813,92.914,96.157,100.589,102.804,105.905" svgx:width="0.94,0.44,0.28,0.39,0.41,0.56,0.28,0.39,0.39" style="fill:rgb(0,0,0);font-family:URWPalladioL-Ital;font-size:7.97px;stroke:none;">Molecules</text>
   <text y="62.979" x="110.998,114.983,118.968,122.953" svgx:width="0.5,0.5,0.5,0.5" style="fill:rgb(0,0,0);font-family:URWPalladioL-Bold;font-size:7.97px;stroke:none;">2019</text>
   <text y="62.979" x="126.938" svgx:width="0.25" style="fill:rgb(0,0,0);font-family:URWPalladioL-Roma;font-size:7.97px;stroke:none;">,</text>
   <text y="62.979" x="130.923,134.908" svgx:width="0.5,0.5" style="fill:rgb(0,0,0);font-family:URWPalladioL-Ital;font-size:7.97px;stroke:none;">24</text>
   <text y="62.979" x="138.893,140.8855,142.878,146.863,150.848,154.833,158.818,499.779,503.764,505.757,510.108,512.7381,514.755" svgx:width="0.25,0.55,0.5,0.5,0.5,0.5,0.55,0.5,0.55,0.55,0.33,0.55,0.5" style="fill:rgb(0,0,0);font-family:URWPalladioL-Roma;font-size:7.97px;stroke:none;">, 2667 7 of 9</text>
   <text y="97.848" x="76.535,81.516,84.006,87.494,97.456,102.438,105.755,110.737,114.612,117.93,122.911,126.228,130.6104,133.142,138.124,144.211,150.28660000000002,152.789,162.751,167.733,171.05,177.137,182.676,188.764" svgx:width="0.5,0.25,0.55,1.0,0.5,0.33,0.5,0.39,0.33,0.5,0.33,0.44,0.55,0.5,0.61,0.61,0.55,1.0,0.5,0.33,0.61,0.56,0.61,0.44" style="fill:rgb(0,0,0);font-family:URWPalladioL-Bold;font-size:9.96px;stroke:none;">3. Materials and Methods</text>
   <text y="117.335" x="97.795,105.701,108.658,111.5464,114.938,119.45,124.531,127.488,132.0,138.127,141.084,146.165,149.478,152.435,157.984,163.898,168.0812,171.529,180.004,184.872,188.703,193.4838,196.904,203.011,207.878,211.882,215.266,220.814,224.828,233.801,238.669,244.74460000000002,248.211,256.686,259.643,262.956,268.7328,272.193,275.505,281.42,286.2008,289.61,296.398,299.355,304.223,310.137,316.051,321.031,324.455,329.536,335.014,338.478,341.436,347.35,350.307,353.62,356.577,362.055,365.448,369.757,372.714,381.687,387.814,390.771,395.852,399.165,402.122,407.67,413.4468,416.908,423.015,428.096,432.608,438.258,443.339,448.989,453.7698,457.179" svgx:width="0.78,0.29,0.29,0.55,0.44,0.5,0.29,0.44,0.6,0.29,0.5,0.33,0.29,0.55,0.58,0.42,0.55,0.83,0.48,0.4,0.48,0.55,0.6,0.48,0.4,0.33,0.55,0.4,0.88,0.48,0.61,0.55,0.83,0.29,0.33,0.58,0.55,0.33,0.58,0.48,0.55,0.72,0.29,0.48,0.58,0.58,0.5,0.55,0.5,0.55,0.55,0.29,0.58,0.29,0.33,0.29,0.55,0.55,0.42,0.29,0.88,0.6,0.29,0.5,0.33,0.29,0.55,0.58,0.55,0.6,0.5,0.44,0.56,0.5,0.56,0.48,0.55,0.33" style="fill:rgb(0,0,0);font-family:URWPalladioL-Roma;font-size:9.96px;stroke:none;">All calculations were performed with the Vienna ab initio simulation package [</text>
   <text y="117.335" x="460.563,465.544" svgx:width="0.5,0.5" style="fill:rgb(8,117,183);font-family:URWPalladioL-Roma;font-size:9.96px;stroke:none;">32</text>
   <text y="117.335" x="470.526" svgx:width="0.25" style="fill:rgb(0,0,0);font-family:URWPalladioL-Roma;font-size:9.96px;stroke:none;">,</text>
   <text y="117.335" x="473.067,478.048" svgx:width="0.5,0.5" style="fill:rgb(8,117,183);font-family:URWPalladioL-Roma;font-size:9.96px;stroke:none;">33</text>
   <text y="117.335" x="483.029,486.3158,489.736,493.12,499.349,507.255,512.59,517.447" svgx:width="0.33,0.55,0.33,0.72,0.78,0.52,0.6,0.25" style="fill:rgb(0,0,0);font-family:URWPalladioL-Roma;font-size:9.96px;stroke:none;">] (VASP,</text>
   <text y="130.845" x="76.535,82.052,87.013,92.53,98.514,101.401,104.636,109.598,112.8848,115.323,118.627,124.611,128.595,131.031,137.024,142.799,148.316,152.523,155.411,160.9886,163.419,168.836,172.1228,174.631,182.351,188.126,191.014,196.62,201.373,205.293,209.5,212.387,215.622,220.584,223.8708,226.319,235.696,238.583,243.336,249.111,251.601,254.083,263.46,266.347,271.1,276.875,279.365,281.847,289.567,295.55,299.757,302.992,306.911,309.799,314.76,318.0468,320.565,325.527,331.302,337.37760000000003,339.855,343.09,348.865,353.6458,356.108,362.102,366.855,370.596,376.658,381.411,389.687,394.648,400.711,406.695,410.614,416.131,420.884,425.846,431.908,435.828,441.603,446.564,451.317,455.058,460.833,466.251,469.5378,472.046,475.35,481.343,487.406,493.469,496.7558,499.274,502.509,508.026,513.989" svgx:width="0.56,0.5,0.56,0.6,0.29,0.33,0.5,0.33,0.55,0.33,0.6,0.4,0.55,0.6,0.58,0.56,0.42,0.29,0.56,0.55,0.55,0.33,0.55,0.78,0.58,0.29,0.56,0.48,0.4,0.42,0.29,0.33,0.5,0.33,0.55,1.0,0.29,0.48,0.58,0.25,0.55,1.0,0.29,0.48,0.58,0.25,0.55,0.78,0.6,0.42,0.33,0.4,0.29,0.5,0.33,0.55,0.5,0.58,0.61,0.55,0.33,0.58,0.48,0.55,0.6,0.48,0.4,0.61,0.48,0.83,0.5,0.61,0.6,0.4,0.56,0.48,0.5,0.61,0.4,0.58,0.5,0.48,0.4,0.58,0.55,0.33,0.55,0.33,0.6,0.61,0.61,0.33,0.55,0.33,0.56,0.6,0.48" style="fill:rgb(0,0,0);font-family:URWPalladioL-Roma;font-size:9.96px;stroke:none;">Fakultät für Physik of Universität Wien, Wien, Austria) and the Perdew–Burke–Ernzerhof (PBE) type</text>
   <text y="144.354" x="76.535,81.963,86.64,92.322,96.999,100.855,105.737,108.578,111.419,116.301,120.978,128.603,134.031,137.888,142.77,148.735,151.576,156.253,161.935,165.2218,166.778,171.659,177.527,183.395,187.076,192.406,197.444,200.285,208.906,213.788,216.971,219.812,225.143,232.485" svgx:width="0.56,0.48,0.58,0.48,0.4,0.5,0.29,0.29,0.5,0.48,0.61,0.56,0.4,0.5,0.61,0.29,0.48,0.58,0.33,0.55,0.5,0.6,0.6,0.4,0.55,0.52,0.29,0.88,0.5,0.33,0.29,0.55,0.58,0.33" style="fill:rgb(0,0,0);font-family:URWPalladioL-Roma;font-size:9.96px;stroke:none;">generalizedgradient approximation[</text>
   <text y="144.354" x="235.738,240.719" svgx:width="0.5,0.5" style="fill:rgb(8,117,183);font-family:URWPalladioL-Roma;font-size:9.96px;stroke:none;">34</text>
   <text y="144.354" x="245.7,248.9868,250.611,253.862,261.312,268.761,276.357,279.64380000000006,281.268,289.41,294.292,298.4752,300.101,304.983,310.851,316.719,319.56,322.401,327.077,334.703,337.885,344.876,350.841,355.518,359.658,363.993,367.849,370.69,376.089,380.8698,382.426,385.609,391.291,396.0718,397.627,402.304,407.342,411.677,417.359,422.241,427.923,433.351,438.028,441.279,445.614,450.945,454.802,458.482,463.159,466.0,470.882,474.065,476.906,482.237,489.579,494.255,499.938,504.614,508.295,513.723,518.039" svgx:width="0.33,0.55,0.33,0.76,0.76,0.78,0.33,0.55,0.83,0.5,0.42,0.55,0.5,0.6,0.6,0.29,0.29,0.48,0.61,0.33,0.55,0.61,0.48,0.42,0.44,0.4,0.29,0.55,0.48,0.55,0.33,0.58,0.48,0.55,0.48,0.52,0.44,0.58,0.5,0.58,0.56,0.48,0.33,0.44,0.55,0.4,0.4,0.48,0.29,0.5,0.33,0.29,0.55,0.58,0.48,0.58,0.48,0.4,0.56,0.56,0.25" style="fill:rgb(0,0,0);font-family:URWPalladioL-Roma;font-size:9.96px;stroke:none;">] (GGA) was appliedtodescribe the exchange-correlationenergy.</text>
   <text y="157.864" x="76.037,84.883,89.6638,91.365,97.253,101.392,106.069,113.841,118.821,120.519,126.387,130.067,135.398,137.683,142.359,146.694,149.877,155.208,158.889,162.14,167.022,172.909,178.337,186.958,191.635,197.317,200.5,205.177,211.142,214.393,222.536,227.418,232.934,237.7148,239.407,248.028,252.705,255.888,261.57,266.901,274.672" svgx:width="1.0,0.48,0.55,0.6,0.42,0.48,0.61,0.5,0.55,0.6,0.4,0.55,0.23,0.48,0.44,0.33,0.55,0.4,0.33,0.5,0.6,0.56,0.88,0.48,0.58,0.33,0.48,0.61,0.33,0.83,0.5,0.56,0.48,0.55,0.88,0.48,0.33,0.58,0.55,0.61,0.33" style="fill:rgb(0,0,0);font-family:URWPalladioL-Roma;font-size:9.96px;stroke:none;">We useda projector-augmented-wave method[</text>
   <text y="157.864" x="277.925,282.906" svgx:width="0.5,0.5" style="fill:rgb(8,117,183);font-family:URWPalladioL-Roma;font-size:9.96px;stroke:none;">32</text>
   <text y="157.864" x="287.888,291.1748,292.945,296.197,301.527,305.51099999999997,307.19,310.373,316.055,320.8358,322.528,325.369,330.7,336.383,339.224,343.6064,345.365,351.233,355.372,360.049,365.936,371.902,377.232,380.484,386.351,391.682,394.865,399.542,405.224,408.407,411.248,416.13,418.971,423.11,425.6,428.812,438.048,443.379,449.061,454.49,460.172,465.503,469.359,473.499,476.682,479.933,485.83,490.712,495.047,502.272" svgx:width="0.33,0.55,0.33,0.55,0.4,0.55,0.33,0.58,0.48,0.55,0.29,0.55,0.58,0.29,0.44,0.55,0.6,0.42,0.48,0.6,0.61,0.55,0.33,0.6,0.55,0.33,0.48,0.58,0.33,0.29,0.5,0.29,0.42,0.25,0.55,0.95,0.55,0.58,0.56,0.58,0.55,0.4,0.42,0.33,0.33,0.6,0.5,0.44,0.56,0.33" style="fill:rgb(0,0,0);font-family:URWPalladioL-Roma;font-size:9.96px;stroke:none;">] for the ionic pseudo-potentials. Monkhorst-Pack[</text>
   <text y="157.864" x="505.526,510.507" svgx:width="0.5,0.5" style="fill:rgb(8,117,183);font-family:URWPalladioL-Roma;font-size:9.96px;stroke:none;">35</text>
   <text y="157.864" x="515.489" svgx:width="0.33" style="fill:rgb(0,0,0);font-family:URWPalladioL-Roma;font-size:9.96px;stroke:none;">]</text>
   <text y="171.373" x="76.535,85.156,89.833,93.972,99.655,104.331,108.5142,110.902,116.233,119.5198,121.925" svgx:width="0.88,0.48,0.42,0.58,0.48,0.42,0.55,0.55,0.33,0.55,0.5" style="fill:rgb(0,0,0);font-family:URWPalladioL-Roma;font-size:9.96px;stroke:none;">meshes of 4</text>
   <text y="171.373" x="129.241" svgx:width="0.67" style="fill:rgb(0,0,0);font-family:Pxsy;font-size:9.96px;stroke:none;">×</text>
   <text y="171.373" x="138.341" svgx:width="0.5" style="fill:rgb(0,0,0);font-family:URWPalladioL-Roma;font-size:9.96px;stroke:none;">4</text>
   <text y="171.373" x="145.658" svgx:width="0.67" style="fill:rgb(0,0,0);font-family:Pxsy;font-size:9.96px;stroke:none;">×</text>
   <text y="171.373" x="154.758,159.738,162.071,170.213,175.095,179.2782,181.676,187.563,191.703,196.379,202.4546,204.776,207.958,213.436,215.73,219.87,224.751,233.372,239.24,242.081,246.8618,249.189,252.372,258.054,262.8348,265.172,268.843,273.519,277.854,280.695,286.563,290.244,295.575,299.91,304.791,307.6794,310.064,314.203,320.071,324.953,329.288,333.964,336.454,339.871,345.856,351.538,356.3188,358.656,363.332,369.015,373.691,377.362,382.791,388.3686,390.66,394.995,400.882,404.065" svgx:width="0.5,0.55,0.83,0.5,0.42,0.55,0.6,0.42,0.48,0.61,0.55,0.33,0.55,0.55,0.42,0.5,0.88,0.6,0.29,0.48,0.55,0.33,0.58,0.48,0.55,0.4,0.48,0.44,0.29,0.6,0.4,0.55,0.44,0.5,0.29,0.55,0.42,0.6,0.5,0.44,0.48,0.25,0.55,0.61,0.58,0.48,0.55,0.48,0.58,0.48,0.4,0.56,0.56,0.55,0.44,0.6,0.33,0.55" style="fill:rgb(0,0,0);font-family:URWPalladioL-Roma;font-size:9.96px;stroke:none;">4 was used to sample the reciprocal space. The energy cuto</text>
   <text y="171.373" x="409.395" svgx:width="0.61" style="fill:rgb(0,0,0);font-family:Rpxr;font-size:9.96px;stroke:none;">ﬀ</text>
   <text y="171.373" x="417.766,425.909,430.79,434.9732,437.361,441.501,446.177,449.46380000000005,451.801,454.984,460.462,462.746,468.145,472.9258,475.262,480.144,485.026,490.00600000000003,492.338,497.015,504.1862,506.505,509.756,515.087" svgx:width="0.83,0.5,0.42,0.55,0.42,0.48,0.33,0.55,0.33,0.55,0.55,0.55,0.48,0.55,0.5,0.5,0.5,0.55,0.48,0.72,0.55,0.33,0.55,0.4" style="fill:rgb(0,0,0);font-family:URWPalladioL-Roma;font-size:9.96px;stroke:none;">was set to be 700 eV for</text>
   <text y="184.882" x="76.535,82.155,87.703,91.016,96.7928,99.643,105.852,108.809,116.715" svgx:width="0.55,0.55,0.33,0.58,0.55,0.61,0.29,0.78,0.29" style="fill:rgb(0,0,0);font-family:URWPalladioL-Roma;font-size:9.96px;stroke:none;">both LiAl</text>
   <text y="186.747" x="119.669" svgx:width="0.5" style="fill:rgb(0,0,0);font-family:URWPalladioL-Roma;font-size:7.57px;stroke:none;">2</text>
   <text y="184.882" x="123.953,127.337,135.324,143.779" svgx:width="0.33,0.79,0.83,0.33" style="fill:rgb(0,0,0);font-family:URWPalladioL-Roma;font-size:9.96px;stroke:none;">(OH)</text>
   <text y="186.747" x="147.162" svgx:width="0.5" style="fill:rgb(0,0,0);font-family:URWPalladioL-Roma;font-size:7.57px;stroke:none;">6</text>
   <text y="184.882" x="151.446,158.651,161.5394,164.321,169.402,175.316" svgx:width="0.71,0.29,0.55,0.5,0.58,0.61" style="fill:rgb(0,0,0);font-family:URWPalladioL-Roma;font-size:9.96px;stroke:none;">Cl and</text>
   <text y="184.882" x="184.233" svgx:width="0.58" style="fill:rgb(0,0,0);font-family:Rpxmi;font-size:9.96px;stroke:none;">γ</text>
   <text y="184.882" x="190.031,193.415,201.321,204.278,207.662,215.649,224.104" svgx:width="0.33,0.78,0.29,0.33,0.79,0.83,0.33" style="fill:rgb(0,0,0);font-family:URWPalladioL-Roma;font-size:9.96px;stroke:none;">-Al(OH)</text>
   <text y="186.747" x="227.487" svgx:width="0.5" style="fill:rgb(0,0,0);font-family:URWPalladioL-Roma;font-size:7.57px;stroke:none;">3</text>
   <text y="184.882" x="231.771,234.261,238.458,244.687,250.601,255.468,259.777,264.5578,267.358,271.666,276.534,279.847,283.16,286.117,292.031,297.681,301.8642,304.692,309.56,315.474,319.783,325.91,329.752,334.5328,337.322,340.635,346.549,351.3298,354.13,358.642,363.723,366.68,371.192,377.319,380.276,385.357,388.67,393.538,399.6136,402.46,405.772,411.321,414.634,419.715,422.60339999999997,425.375,430.242,436.156,441.024,444.865,450.515,456.0926,458.868,464.417,467.7038,470.514,473.826,479.741,484.5218,487.321,491.63,497.28,501.589,504.901,509.769" svgx:width="0.25,0.55,0.61,0.58,0.48,0.42,0.48,0.55,0.42,0.48,0.33,0.33,0.29,0.58,0.56,0.42,0.55,0.48,0.58,0.42,0.6,0.4,0.48,0.55,0.33,0.58,0.48,0.55,0.44,0.5,0.29,0.44,0.6,0.29,0.5,0.33,0.48,0.61,0.55,0.33,0.55,0.33,0.5,0.29,0.55,0.48,0.58,0.48,0.4,0.56,0.56,0.55,0.55,0.33,0.55,0.33,0.58,0.48,0.55,0.42,0.56,0.42,0.33,0.48,0.88" style="fill:rgb(0,0,0);font-family:URWPalladioL-Roma;font-size:9.96px;stroke:none;">. These settings ensure the calculated total energy of the system</text>
   <text y="198.392" x="76.535,81.047,86.595,92.509,98.251,103.118,106.949,112.599,117.467,121.6502,124.916,128.228,133.70600000000002,136.927,141.90699999999998,145.148,154.121,158.988,165.035,167.525,170.715,176.944,182.858,187.6388,190.866,195.734,201.648,206.515,210.356,216.006,221.5836,224.796,229.308,235.436,238.749" svgx:width="0.44,0.55,0.58,0.56,0.48,0.4,0.56,0.48,0.42,0.55,0.33,0.55,0.55,0.5,0.55,0.88,0.48,0.72,0.25,0.55,0.61,0.58,0.48,0.55,0.48,0.58,0.48,0.4,0.56,0.56,0.55,0.44,0.6,0.33,0.55" style="fill:rgb(0,0,0);font-family:URWPalladioL-Roma;font-size:9.96px;stroke:none;">converges to 1 meV. The energy cuto</text>
   <text y="198.392" x="244.295" svgx:width="0.61" style="fill:rgb(0,0,0);font-family:Rpxr;font-size:9.96px;stroke:none;">ﬀ</text>
   <text y="198.392" x="253.615,258.696,264.61,270.6856,273.959,278.471,284.019,289.933,295.675,300.542,304.373,310.023,314.891,320.805,325.317,330.0978,333.335,337.847,341.86,344.818,348.13,352.988,357.002,359.959,364.939,368.19,371.574,377.122,381.106,384.276,387.589,393.503,398.2838,401.511,406.378,412.292,417.16,420.991,426.641,432.21860000000004,435.431,440.512,446.426,452.5016,455.775,459.159,464.707,468.548,473.06,477.8408,481.068,489.543,494.41,498.241,503.0218,506.249,510.557,515.425" svgx:width="0.5,0.58,0.61,0.55,0.44,0.55,0.58,0.56,0.48,0.4,0.56,0.48,0.58,0.44,0.48,0.55,0.44,0.4,0.29,0.33,0.48,0.4,0.29,0.5,0.55,0.33,0.55,0.4,0.55,0.33,0.58,0.48,0.55,0.48,0.58,0.48,0.4,0.56,0.56,0.55,0.5,0.58,0.61,0.55,0.33,0.55,0.4,0.44,0.48,0.55,0.83,0.48,0.4,0.48,0.55,0.42,0.48,0.33" style="fill:rgb(0,0,0);font-family:URWPalladioL-Roma;font-size:9.96px;stroke:none;">and convergence criteria for the energy and force were set</text>
   <text y="211.901" x="76.535,79.848,85.326,87.947,93.566,98.3468,100.974" svgx:width="0.33,0.55,0.55,0.55,0.48,0.55,0.5" style="fill:rgb(0,0,0);font-family:URWPalladioL-Roma;font-size:9.96px;stroke:none;">to be 1</text>
   <text y="211.901" x="108.602" svgx:width="0.67" style="fill:rgb(0,0,0);font-family:Pxsy;font-size:9.96px;stroke:none;">×</text>
   <text y="211.901" x="117.813,122.894" svgx:width="0.5,0.5" style="fill:rgb(0,0,0);font-family:URWPalladioL-Roma;font-size:9.96px;stroke:none;">10</text>
   <text y="208.285" x="127.975" svgx:width="0.67" style="fill:rgb(0,0,0);font-family:Pxsy;font-size:7.57px;stroke:none;">−</text>
   <text y="208.285" x="133.041" svgx:width="0.5" style="fill:rgb(0,0,0);font-family:URWPalladioL-Roma;font-size:7.57px;stroke:none;">5</text>
   <text y="211.901" x="139.871,144.739,151.9102,154.626,159.707,165.621,171.69660000000002,174.37,179.451,181.992,187.073,192.154,197.134,199.785,204.653" svgx:width="0.48,0.72,0.55,0.5,0.58,0.61,0.55,0.5,0.25,0.5,0.5,0.5,0.55,0.48,0.72" style="fill:rgb(0,0,0);font-family:URWPalladioL-Roma;font-size:9.96px;stroke:none;">eV and 0.001 eV</text>
   <text y="211.901" x="211.986" svgx:width="0.29" style="fill:rgb(0,0,0);font-family:Rpxr;font-size:9.96px;stroke:none;">/</text>
   <text y="211.901" x="214.902,222.808,225.298,227.899,231.73,236.598,240.906,247.013,251.881,256.393,259.706,262.663,268.404,273.272,276.229,280.771,283.261,286.97,293.199,299.113,303.8938,306.521,312.141,317.689,323.603,329.812,332.769,338.683,344.2606,346.884,352.991,356.822,362.371,368.478,373.346,377.359,380.672,383.629,388.497,392.6802,395.346,403.821,408.688,412.53,417.3108,419.938,425.019,430.933,436.014,438.971,444.621,449.702,454.569,460.6446,463.329,468.948,474.5256,477.139,483.266,487.575,490.532,496.446,502.02360000000004,504.647,507.96,513.874" svgx:width="0.78,0.25,0.55,0.4,0.48,0.42,0.6,0.48,0.44,0.33,0.29,0.56,0.48,0.29,0.56,0.25,0.55,0.61,0.58,0.48,0.55,0.55,0.55,0.58,0.61,0.29,0.58,0.56,0.55,0.6,0.4,0.55,0.6,0.48,0.4,0.33,0.29,0.48,0.42,0.55,0.83,0.48,0.4,0.48,0.55,0.5,0.58,0.5,0.29,0.56,0.5,0.48,0.61,0.55,0.55,0.56,0.55,0.6,0.42,0.29,0.58,0.56,0.55,0.33,0.58,0.48" style="fill:rgb(0,0,0);font-family:URWPalladioL-Roma;font-size:9.96px;stroke:none;">Å, respectively. The bonding properties were analyzed by using the</text>
   <text y="225.411" x="76.535,82.744,90.731,96.94,102.275,108.504,114.713,121.3862,124.468,128.98,134.529,140.738,145.5188,148.572,157.047,160.004,163.317,169.09380000000002,172.199,175.511,181.426,186.2068,189.26,193.772,197.786,203.436,207.745,211.058,216.138,219.0264,222.063,227.611,231.625,237.245,240.202,243.514,248.595,251.4834,254.52,262.974,268.055,277.028,279.985,282.942,286.255,291.804,297.58079999999995,300.685,306.792,312.341,318.448,324.576,327.533,332.614,335.926,338.883,344.432,350.2088,353.313,356.697,363.902,371.889,380.344,386.482,389.76880000000006,392.833" svgx:width="0.61,0.79,0.61,0.52,0.61,0.61,0.67,0.55,0.44,0.55,0.61,0.48,0.55,0.83,0.29,0.33,0.58,0.55,0.33,0.58,0.48,0.55,0.44,0.4,0.56,0.42,0.33,0.5,0.29,0.55,0.55,0.4,0.55,0.29,0.33,0.5,0.29,0.55,0.83,0.5,0.88,0.29,0.29,0.33,0.55,0.58,0.55,0.6,0.55,0.6,0.6,0.29,0.5,0.33,0.29,0.55,0.58,0.55,0.33,0.71,0.79,0.83,0.6,0.33,0.55,0.33" style="fill:rgb(0,0,0);font-family:URWPalladioL-Roma;font-size:9.96px;stroke:none;">LOBSTER code with the crystal orbital Hamilton population (COHP) [</text>
   <text y="225.411" x="396.219,401.2" svgx:width="0.5,0.5" style="fill:rgb(8,117,183);font-family:URWPalladioL-Roma;font-size:9.96px;stroke:none;">36</text>
   <text y="225.411" x="406.182" svgx:width="0.5" style="fill:rgb(0,0,0);font-family:URWPalladioL-Roma;font-size:9.96px;stroke:none;">–</text>
   <text y="225.411" x="411.263,416.244" svgx:width="0.5,0.5" style="fill:rgb(8,117,183);font-family:URWPalladioL-Roma;font-size:9.96px;stroke:none;">39</text>
   <text y="225.411" x="421.225,424.609,427.099,432.068,438.297,444.211,448.9918,452.046,457.665,462.746,467.055,470.012,474.1952,477.288,481.597,486.464,489.7508,492.744,498.292,501.5788,504.644,507.956,513.871" svgx:width="0.33,0.25,0.55,0.61,0.58,0.48,0.55,0.55,0.5,0.42,0.29,0.42,0.55,0.42,0.48,0.33,0.55,0.55,0.33,0.55,0.33,0.58,0.48" style="fill:rgb(0,0,0);font-family:URWPalladioL-Roma;font-size:9.96px;stroke:none;">]. The basis set of the</text>
   <text y="238.92" x="76.535,81.283,90.036,95.994,98.878,104.291,109.802,114.551,120.6266,123.095,129.053,133.256,138.004,143.982,150.038,155.451,161.408,166.821,170.052,174.8,180.57,183.791,186.676,191.632,194.517,198.7002,201.208,206.621,209.9078,212.41,220.657,223.14700000000002,225.613,233.405,235.895,238.371,246.083,248.968,251.458,253.924,260.953,263.837,266.327,268.803,273.76,279.529,285.6046,288.074,294.131,297.01939999999996,299.493,304.45,308.187,312.9678,315.423,320.38" svgx:width="0.48,0.88,0.6,0.29,0.55,0.56,0.48,0.61,0.55,0.6,0.42,0.48,0.6,0.61,0.55,0.6,0.55,0.33,0.48,0.58,0.33,0.29,0.5,0.29,0.42,0.55,0.55,0.33,0.55,0.83,0.25,0.55,0.79,0.25,0.55,0.78,0.29,0.25,0.55,0.71,0.29,0.25,0.55,0.5,0.58,0.61,0.55,0.61,0.29,0.55,0.5,0.4,0.48,0.55,0.5,0.42" style="fill:rgb(0,0,0);font-family:URWPalladioL-Roma;font-size:9.96px;stroke:none;">employed pseudopotentials of H, O, Al, Cl, and Li are 1s</text>
   <text y="235.303" x="324.58" svgx:width="0.5" style="fill:rgb(0,0,0);font-family:URWPalladioL-Roma;font-size:7.57px;stroke:none;">1</text>
   <text y="238.92" x="328.864,331.354,333.83,338.787" svgx:width="0.25,0.55,0.5,0.42" style="fill:rgb(0,0,0);font-family:URWPalladioL-Roma;font-size:9.96px;stroke:none;">, 2s</text>
   <text y="235.303" x="342.987" svgx:width="0.5" style="fill:rgb(0,0,0);font-family:URWPalladioL-Roma;font-size:7.57px;stroke:none;">2</text>
   <text y="238.92" x="347.271,352.227" svgx:width="0.5,0.6" style="fill:rgb(0,0,0);font-family:URWPalladioL-Roma;font-size:9.96px;stroke:none;">2p</text>
   <text y="235.303" x="358.185" svgx:width="0.5" style="fill:rgb(0,0,0);font-family:URWPalladioL-Roma;font-size:7.57px;stroke:none;">4</text>
   <text y="238.92" x="362.469,364.959,367.435,372.392" svgx:width="0.25,0.55,0.5,0.42" style="fill:rgb(0,0,0);font-family:URWPalladioL-Roma;font-size:9.96px;stroke:none;">, 3s</text>
   <text y="235.303" x="376.592" svgx:width="0.5" style="fill:rgb(0,0,0);font-family:URWPalladioL-Roma;font-size:7.57px;stroke:none;">2</text>
   <text y="238.92" x="380.876,385.832" svgx:width="0.5,0.6" style="fill:rgb(0,0,0);font-family:URWPalladioL-Roma;font-size:9.96px;stroke:none;">3p</text>
   <text y="235.303" x="391.79" svgx:width="0.5" style="fill:rgb(0,0,0);font-family:URWPalladioL-Roma;font-size:7.57px;stroke:none;">1</text>
   <text y="238.92" x="396.074,398.564,401.04,405.997" svgx:width="0.25,0.55,0.5,0.42" style="fill:rgb(0,0,0);font-family:URWPalladioL-Roma;font-size:9.96px;stroke:none;">, 3s</text>
   <text y="235.303" x="410.197" svgx:width="0.5" style="fill:rgb(0,0,0);font-family:URWPalladioL-Roma;font-size:7.57px;stroke:none;">2</text>
   <text y="238.92" x="414.481,419.437" svgx:width="0.5,0.6" style="fill:rgb(0,0,0);font-family:URWPalladioL-Roma;font-size:9.96px;stroke:none;">3p</text>
   <text y="235.303" x="425.395" svgx:width="0.5" style="fill:rgb(0,0,0);font-family:URWPalladioL-Roma;font-size:7.57px;stroke:none;">5</text>
   <text y="238.92" x="429.678,432.168,434.644,439.601,445.37,451.4456,453.905,458.861" svgx:width="0.25,0.55,0.5,0.58,0.61,0.55,0.5,0.42" style="fill:rgb(0,0,0);font-family:URWPalladioL-Roma;font-size:9.96px;stroke:none;">, and 2s</text>
   <text y="235.303" x="463.068" svgx:width="0.5" style="fill:rgb(0,0,0);font-family:URWPalladioL-Roma;font-size:7.57px;stroke:none;">1</text>
   <text y="238.92" x="467.351,469.841,473.319,478.83,484.242,488.226,490.636,498.348,501.689,511.066" svgx:width="0.25,0.55,0.56,0.55,0.4,0.55,0.78,0.34,0.95,0.77" style="fill:rgb(0,0,0);font-family:URWPalladioL-Roma;font-size:9.96px;stroke:none;">. For AIMD</text>
   <text y="252.429" x="76.535,80.675,83.516,92.137,98.024,100.865,105.747,108.93,111.771,117.102,122.784,126.924,129.41400000000002,131.581,136.912,142.594,145.435,151.0126,153.011,156.194,161.876" svgx:width="0.42,0.29,0.88,0.6,0.29,0.5,0.33,0.29,0.55,0.58,0.42,0.25,0.55,0.55,0.58,0.29,0.56,0.55,0.33,0.58,0.48" style="fill:rgb(0,0,0);font-family:URWPalladioL-Roma;font-size:9.96px;stroke:none;">simulations, only the</text>
   <text y="252.429" x="168.703" svgx:width="0.62" style="fill:rgb(0,0,0);font-family:SFRM1000;font-size:9.96px;stroke:none;">Г</text>
   <text y="252.429" x="176.953,182.821,188.152,190.993,196.675,199.9618,202.006,210.148,215.03,219.2132,221.318,227.205,231.345,236.021,242.0966,244.135,247.317,252.79500000000002,254.796,258.936,263.818,272.439,278.306,281.147,285.9278,287.972,291.155,296.837,301.6178,303.662,309.627,313.484,316.325,319.166,322.007,327.338,333.225,336.066,341.84279999999995,343.897,348.778,354.109,359.791,364.5718,366.626,371.956,375.24280000000005,377.356,380.538,386.221,391.0018,393.045" svgx:width="0.6,0.55,0.29,0.58,0.33,0.55,0.83,0.5,0.42,0.55,0.6,0.42,0.48,0.61,0.55,0.33,0.55,0.55,0.42,0.5,0.88,0.6,0.29,0.48,0.55,0.33,0.58,0.48,0.55,0.61,0.4,0.29,0.29,0.29,0.55,0.6,0.29,0.58,0.55,0.5,0.55,0.58,0.48,0.55,0.55,0.33,0.55,0.33,0.58,0.48,0.55,0.5" style="fill:rgb(0,0,0);font-family:URWPalladioL-Roma;font-size:9.96px;stroke:none;">point was used to sample the Brillouin zone of the 2</text>
   <text y="252.429" x="400.073" svgx:width="0.67" style="fill:rgb(0,0,0);font-family:Pxsy;font-size:9.96px;stroke:none;">×</text>
   <text y="252.429" x="408.887" svgx:width="0.5" style="fill:rgb(0,0,0);font-family:URWPalladioL-Roma;font-size:9.96px;stroke:none;">2</text>
   <text y="252.429" x="415.918" svgx:width="0.67" style="fill:rgb(0,0,0);font-family:Pxsy;font-size:9.96px;stroke:none;">×</text>
   <text y="252.429" x="424.732,429.71200000000005,431.762,435.901,441.789,447.656,452.333,456.014,460.349,465.025,467.866,470.7544,472.856,477.19,482.521,488.204,491.386,496.268,499.109,504.791,507.633,513.315" svgx:width="0.5,0.55,0.42,0.6,0.6,0.48,0.4,0.44,0.48,0.29,0.29,0.55,0.44,0.55,0.58,0.33,0.5,0.29,0.58,0.29,0.58,0.56" style="fill:rgb(0,0,0);font-family:URWPalladioL-Roma;font-size:9.96px;stroke:none;">1 supercell containing</text>
   <text y="265.939" x="76.037,81.023,86.01,90.99000000000001,93.479,98.465,101.716,107.161,115.967,120.196,122.68599999999999,126.179,132.292,138.096,142.8768,145.356,149.585,152.487,161.292,167.306,170.208,175.194,178.445,181.347,186.792,192.5688,195.089,203.407,208.393,212.5762,215.104,219.532,224.977,230.781,236.874,242.888,247.316,250.567,255.344,261.4196,263.93,266.832,272.6088,275.119,280.09900000000005,282.599,287.026,292.013,297.817,303.262,309.066,311.968,316.396,321.382,324.2704,326.767,331.544,337.348,341.576,346.353,355.159,360.674,363.576,368.3568,370.836,379.153,382.055,385.306,391.08279999999996,393.603,398.583,401.073,409.36,414.805" svgx:width="0.5,0.5,0.5,0.55,0.5,0.33,0.55,0.88,0.42,0.25,0.55,0.61,0.58,0.48,0.55,0.42,0.29,0.88,0.6,0.29,0.5,0.33,0.29,0.55,0.58,0.55,0.83,0.5,0.42,0.55,0.44,0.55,0.58,0.61,0.6,0.44,0.33,0.48,0.61,0.55,0.29,0.58,0.55,0.5,0.55,0.44,0.5,0.58,0.55,0.58,0.29,0.44,0.5,0.29,0.55,0.48,0.58,0.42,0.48,0.88,0.55,0.29,0.48,0.55,0.83,0.29,0.33,0.58,0.55,0.5,0.55,0.83,0.55,0.42" style="fill:rgb(0,0,0);font-family:URWPalladioL-Roma;font-size:9.96px;stroke:none;">128 atoms. The simulation was conducted in a canonical ensemble with a Nos</text>
   <text y="265.939" x="419.036" svgx:width="0.48" style="fill:rgb(0,0,0);font-family:VnURWPalladioL;font-size:9.96px;stroke:none;">é</text>
   <text y="265.939" x="426.296,429.547,435.351,440.128,444.067,452.873,458.318,462.546,465.797,470.784,474.0708,476.518,479.769,485.247,487.707,492.135,497.58,503.384,506.635,510.395,515.84" svgx:width="0.33,0.58,0.48,0.4,0.88,0.55,0.42,0.33,0.5,0.33,0.55,0.33,0.55,0.55,0.44,0.55,0.58,0.33,0.4,0.55,0.29" style="fill:rgb(0,0,0);font-family:URWPalladioL-Roma;font-size:9.96px;stroke:none;">thermostat to control</text>
   <text y="279.448" x="76.535,79.718,85.4,90.1808,92.459,95.642,100.319,108.94,114.807,119.484,123.34,128.222,131.405,137.292,140.973,145.65,148.14000000000001,151.537,159.65,164.327,172.47,175.653,180.983,186.666,189.38,193.5632,195.902,200.578,206.046,211.933,216.815,219.998,222.839,228.17,233.852,238.0352,240.374,245.705,248.9918,251.338,259.959,265.29,268.473,271.314,276.645,282.42179999999996,284.709,292.852,297.528,301.209,305.9898,308.268,311.109,316.792,319.974,324.651,330.079,333.936,338.818,342.001,346.677,352.75260000000003,355.025,360.912,365.052,367.893,373.575,379.1526,381.386,384.569,390.251,395.0318,397.31,403.256,407.932,411.789,414.63,419.307,422.59380000000004,424.872,429.754,432.595,438.023,443.354,447.21,450.052,453.234,458.917,469.92,478.063,480.904,484.087,489.86379999999997,492.151,497.13100000000003,499.415,502.598,505.439,514.06" svgx:width="0.33,0.58,0.48,0.55,0.33,0.48,0.88,0.6,0.48,0.4,0.5,0.33,0.6,0.4,0.48,0.25,0.55,0.83,0.48,0.83,0.33,0.55,0.58,0.28,0.42,0.55,0.48,0.56,0.6,0.5,0.33,0.29,0.55,0.58,0.42,0.55,0.55,0.33,0.55,0.88,0.55,0.33,0.29,0.55,0.58,0.55,0.83,0.48,0.4,0.48,0.55,0.29,0.58,0.33,0.48,0.56,0.4,0.5,0.33,0.48,0.61,0.55,0.6,0.42,0.29,0.58,0.56,0.55,0.33,0.58,0.48,0.55,0.72,0.48,0.4,0.29,0.48,0.33,0.55,0.5,0.29,0.56,0.55,0.4,0.29,0.33,0.58,0.88,0.83,0.29,0.33,0.58,0.55,0.5,0.55,0.33,0.29,0.88,0.48" style="fill:rgb(0,0,0);font-family:URWPalladioL-Roma;font-size:9.96px;stroke:none;">the temperature. Newton’s equations of motion were integrated using the Verlet algorithmwith a time</text>
   <text y="292.958" x="76.535,80.759,84.007,88.779,94.755,97.257,102.697,105.9838,108.505,113.485,115.977,119.294,123.4772,126.009,128.908,134.6848,137.197,142.177,144.669,148.893,151.792,160.589,166.597,169.496,174.477,177.725,180.624,186.064,191.8408,194.353,198.288,203.269,209.067,214.607,219.3878,221.869,227.309,230.5958,233.117,238.098,243.078,245.57,251.558,255.782" svgx:width="0.42,0.33,0.48,0.6,0.55,0.55,0.33,0.55,0.5,0.55,0.33,0.42,0.55,0.29,0.58,0.55,0.5,0.55,0.42,0.29,0.88,0.6,0.29,0.5,0.33,0.29,0.55,0.58,0.55,0.4,0.5,0.58,0.56,0.48,0.55,0.55,0.33,0.55,0.5,0.5,0.55,0.6,0.42,0.25" style="fill:rgb(0,0,0);font-family:URWPalladioL-Roma;font-size:9.96px;stroke:none;">step of 1 fs in a simulation range of 10 ps.</text>
   <text y="316.171" x="76.535,81.516,84.006,87.494,94.687,100.226,106.313,110.737,114.054,120.141,124.565,127.882,133.421,139.509" svgx:width="0.5,0.25,0.55,0.72,0.56,0.61,0.44,0.33,0.61,0.44,0.33,0.56,0.61,0.44" style="fill:rgb(0,0,0);font-family:URWPalladioL-Bold;font-size:9.96px;stroke:none;">4. Conclusions</text>
   <text y="335.657" x="97.795,101.085,106.86179999999999,109.208,112.391,118.073,120.915,125.0982,127.505,135.647,140.978,144.835,150.263,152.75300000000001,155.155,158.338,164.02,168.8008,171.137,176.019,179.202,184.533,193.154,195.995,200.3774,202.78,206.92,210.103,213.881,219.769,224.103,227.286,233.174,236.845,241.6258,243.972,248.854,254.536,260.6116,262.942,267.619,270.46,275.136,279.471,282.654,286.335,291.666,297.348,300.189,304.57140000000004,306.965,311.105,314.287,318.066,323.953,328.288,331.471,337.358,341.029,345.8098,348.157,353.487,356.77380000000005,359.179,365.145,367.986,375.582" svgx:width="0.34,0.58,0.55,0.33,0.58,0.29,0.42,0.55,0.83,0.55,0.4,0.56,0.25,0.55,0.33,0.58,0.48,0.55,0.5,0.33,0.55,0.88,0.29,0.44,0.55,0.42,0.33,0.4,0.6,0.44,0.33,0.6,0.4,0.48,0.55,0.5,0.58,0.61,0.55,0.48,0.29,0.48,0.44,0.33,0.4,0.55,0.58,0.29,0.44,0.55,0.42,0.33,0.4,0.6,0.44,0.33,0.6,0.4,0.48,0.55,0.55,0.33,0.55,0.61,0.29,0.78,0.29" style="fill:rgb(0,0,0);font-family:URWPalladioL-Roma;font-size:9.96px;stroke:none;">In this work, the atomic structure and electronic structure of LiAl</text>
   <text y="337.522" x="378.425" svgx:width="0.5" style="fill:rgb(0,0,0);font-family:URWPalladioL-Roma;font-size:7.57px;stroke:none;">2</text>
   <text y="335.657" x="382.709,385.96,393.634,401.757" svgx:width="0.33,0.79,0.83,0.33" style="fill:rgb(0,0,0);font-family:URWPalladioL-Roma;font-size:9.96px;stroke:none;">(OH)</text>
   <text y="337.522" x="405.008" svgx:width="0.5" style="fill:rgb(0,0,0);font-family:URWPalladioL-Roma;font-size:7.57px;stroke:none;">6</text>
   <text y="335.657" x="409.292,416.214,419.1024,421.496,429.639,434.315,437.996,442.7768,445.114,449.253,452.436,458.323,464.289,467.13,471.807,477.8826,480.223,485.622,490.503,494.643,499.32,505.3956,507.726,513.057" svgx:width="0.71,0.29,0.55,0.83,0.48,0.4,0.48,0.55,0.42,0.33,0.6,0.61,0.29,0.48,0.61,0.55,0.55,0.5,0.42,0.48,0.61,0.55,0.55,0.58" style="fill:rgb(0,0,0);font-family:URWPalladioL-Roma;font-size:9.96px;stroke:none;">Cl were studied based on</text>
   <text y="349.167" x="76.535,79.728,85.427,90.2078,92.625,98.55,102.419,106.571,109.8578,112.261,118.146,122.015,124.865,130.564,134.912,137.762,143.648,146.498,151.189,155.3722,157.848,162.196,167.093,169.943,174.291,180.187,183.036,187.933,191.126,193.975,199.323,205.022,209.175,211.66500000000002,215.148,221.132,223.982,231.601" svgx:width="0.33,0.58,0.48,0.55,0.61,0.4,0.42,0.33,0.55,0.6,0.4,0.29,0.58,0.44,0.29,0.6,0.29,0.48,0.42,0.55,0.44,0.5,0.29,0.44,0.6,0.29,0.5,0.33,0.29,0.55,0.58,0.42,0.25,0.55,0.61,0.29,0.78,0.29" style="fill:rgb(0,0,0);font-family:URWPalladioL-Roma;font-size:9.96px;stroke:none;">the ﬁrst principles calculations. LiAl</text>
   <text y="351.032" x="234.452" svgx:width="0.5" style="fill:rgb(0,0,0);font-family:URWPalladioL-Roma;font-size:7.57px;stroke:none;">2</text>
   <text y="349.167" x="238.736,241.997,249.695,257.843" svgx:width="0.33,0.79,0.83,0.33" style="fill:rgb(0,0,0);font-family:URWPalladioL-Roma;font-size:9.96px;stroke:none;">(OH)</text>
   <text y="351.032" x="261.104" svgx:width="0.5" style="fill:rgb(0,0,0);font-family:URWPalladioL-Roma;font-size:7.57px;stroke:none;">6</text>
   <text y="349.167" x="265.388,272.331,275.2194,277.688,285.846,290.752,294.9352,297.402,301.554,307.254,312.601,320.769,326.5458,328.976,332.168,337.646,340.013,345.428,350.2088,352.626,357.606,360.02,368.188,371.038,377.021,381.712,384.973,390.418,395.315,401.291,403.708,406.558,412.257,416.41,422.315,425.165,430.061,433.254,438.601,442.585,444.967,453.134,455.984,459.177,464.9538,467.383,472.363,474.777,479.125,484.022,486.872,491.22,497.125,499.975,504.872,508.064,512.755" svgx:width="0.71,0.29,0.55,0.83,0.5,0.42,0.55,0.42,0.58,0.55,0.83,0.58,0.55,0.33,0.55,0.55,0.55,0.48,0.55,0.5,0.55,0.83,0.29,0.61,0.48,0.33,0.56,0.5,0.6,0.55,0.29,0.58,0.42,0.6,0.29,0.5,0.33,0.55,0.4,0.55,0.83,0.29,0.33,0.58,0.55,0.5,0.55,0.44,0.5,0.29,0.44,0.6,0.29,0.5,0.33,0.48,0.61" style="fill:rgb(0,0,0);font-family:URWPalladioL-Roma;font-size:9.96px;stroke:none;">Cl was shown to be a wide-gap insulator with a calculated</text>
   <text y="362.676" x="76.535,81.934,86.816,92.498,98.5736,100.963,106.391,111.273,117.249,119.64,124.971,128.2578,130.722,135.603,139.284,144.615,150.502,156.184,162.2596,164.649,169.629,172.03,176.707,182.467,184.95700000000002,187.408,193.393,199.075,203.8558,206.251,209.922,214.599,218.738,224.626,227.467,230.649,234.8322,237.289,240.54,244.221,249.551,260.672,263.855,269.537,274.3178,276.713,284.309,287.599,296.835,304.50419999999997,306.892,311.031,313.872,322.493,328.381,331.222,336.103,339.286,342.127,347.458,353.2348,355.64,359.78,365.462,370.793,381.435,384.618,390.3,395.181,398.4678,400.864,405.844,408.245,414.21,418.887,421.728,424.569,427.752,433.434,436.275,441.157,444.34,447.181,452.512,458.2888,460.694,466.561,470.232,475.563,479.898,484.575,488.714,492.8972,495.353,499.493,502.676,507.558,511.414,514.597" svgx:width="0.55,0.5,0.58,0.61,0.55,0.56,0.5,0.6,0.55,0.55,0.33,0.55,0.5,0.4,0.55,0.6,0.58,0.61,0.55,0.5,0.55,0.48,0.72,0.25,0.55,0.61,0.58,0.48,0.55,0.4,0.48,0.42,0.6,0.29,0.33,0.42,0.55,0.33,0.4,0.55,0.88,0.33,0.58,0.48,0.55,0.78,0.34,0.95,0.77,0.55,0.42,0.29,0.88,0.6,0.29,0.5,0.33,0.29,0.55,0.58,0.55,0.42,0.58,0.55,0.83,0.33,0.58,0.5,0.33,0.55,0.5,0.55,0.61,0.48,0.29,0.29,0.33,0.58,0.29,0.5,0.33,0.29,0.55,0.58,0.55,0.6,0.4,0.55,0.44,0.48,0.42,0.42,0.55,0.42,0.33,0.5,0.4,0.33,0.42" style="fill:rgb(0,0,0);font-family:URWPalladioL-Roma;font-size:9.96px;stroke:none;">band gap of around 5 eV. The results fromthe AIMD simulation showthat a delithiation process starts</text>
   <text y="376.186" x="76.535,79.718,85.196,87.167,92.498,96.833,101.168,107.055,111.039,113.03,117.912,123.594,129.6696,131.688,134.529,139.206,144.088,150.053,154.2362,156.311,159.494,164.972,166.944,170.126,175.809,180.5898,182.604,185.855,191.186,195.043,203.664,208.545,211.728,214.569,219.9,225.67680000000001,227.711,233.041,236.3278,238.411,244.377" svgx:width="0.33,0.55,0.55,0.55,0.44,0.44,0.6,0.4,0.55,0.5,0.58,0.61,0.55,0.29,0.48,0.5,0.61,0.42,0.55,0.33,0.55,0.55,0.33,0.58,0.48,0.55,0.33,0.55,0.4,0.88,0.5,0.33,0.29,0.55,0.58,0.55,0.55,0.33,0.55,0.61,0.29" style="fill:rgb(0,0,0);font-family:URWPalladioL-Roma;font-size:9.96px;stroke:none;">to occur and leads to the formation of Li</text>
   <text y="378.05" x="247.217,251.003,253.524" svgx:width="0.5,0.33,0.52" style="fill:rgb(0,0,0);font-family:URWPalladioL-Roma;font-size:7.57px;stroke:none;">1-x</text>
   <text y="376.186" x="257.929,265.525" svgx:width="0.78,0.29" style="fill:rgb(0,0,0);font-family:URWPalladioL-Roma;font-size:9.96px;stroke:none;">Al</text>
   <text y="378.05" x="268.366" svgx:width="0.5" style="fill:rgb(0,0,0);font-family:URWPalladioL-Roma;font-size:7.57px;stroke:none;">2</text>
   <text y="376.186" x="272.649,275.9,283.574,291.697" svgx:width="0.33,0.79,0.83,0.33" style="fill:rgb(0,0,0);font-family:URWPalladioL-Roma;font-size:9.96px;stroke:none;">(OH)</text>
   <text y="378.05" x="294.949" svgx:width="0.5" style="fill:rgb(0,0,0);font-family:URWPalladioL-Roma;font-size:7.57px;stroke:none;">6</text>
   <text y="376.186" x="299.233,306.155" svgx:width="0.71,0.29" style="fill:rgb(0,0,0);font-family:URWPalladioL-Roma;font-size:9.96px;stroke:none;">Cl</text>
   <text y="378.05" x="308.996,312.782,315.303" svgx:width="0.5,0.33,0.52" style="fill:rgb(0,0,0);font-family:URWPalladioL-Roma;font-size:7.57px;stroke:none;">1-x</text>
   <text y="376.186" x="321.829,325.08" svgx:width="0.33,0.5" style="fill:rgb(0,0,0);font-family:URWPalladioL-Roma;font-size:9.96px;stroke:none;">(0</text>
   <text y="376.186" x="332.083" svgx:width="0.67" style="fill:rgb(0,0,0);font-family:Rpxr;font-size:9.96px;stroke:none;">&lt;</text>
   <text y="376.186" x="340.736" svgx:width="0.52" style="fill:rgb(0,0,0);font-family:URWPalladioL-Roma;font-size:9.96px;stroke:none;">x</text>
   <text y="376.186" x="347.895" svgx:width="0.67" style="fill:rgb(0,0,0);font-family:Rpxr;font-size:9.96px;stroke:none;">&lt;</text>
   <text y="376.186" x="356.547,361.429,364.7158,366.799,371.68,374.96680000000003,376.991,380.174,384.851,393.472,399.33,404.007,407.863,412.745,415.928,421.815,425.496,430.172,434.3552,436.431,442.113,444.954,450.383,456.065,460.742,464.726,466.726,469.909,475.592,480.473,486.2498,488.274,494.191,499.073,503.954,508.934,510.955,518.043" svgx:width="0.5,0.33,0.55,0.5,0.33,0.55,0.33,0.48,0.88,0.6,0.48,0.4,0.5,0.33,0.6,0.4,0.48,0.42,0.55,0.58,0.29,0.56,0.58,0.48,0.4,0.55,0.33,0.58,0.5,0.58,0.55,0.61,0.5,0.5,0.5,0.55,0.73,0.25" style="fill:rgb(0,0,0);font-family:URWPalladioL-Roma;font-size:9.96px;stroke:none;">1) at temperatures higher than ~450 K.</text>
   <text y="389.695" x="76.147,83.813,87.9962,90.483,95.46300000000001,97.902,101.607,106.327,110.504,116.446,119.313,122.525,125.015,127.481,130.693,136.428,141.2088,143.64,149.66" svgx:width="0.78,0.42,0.55,0.5,0.55,0.4,0.48,0.42,0.6,0.29,0.33,0.25,0.55,0.33,0.58,0.48,0.55,0.61,0.29" style="fill:rgb(0,0,0);font-family:URWPalladioL-Roma;font-size:9.96px;stroke:none;">As a result, the Li</text>
   <text y="386.079" x="152.526" svgx:width="0.67" style="fill:rgb(0,0,0);font-family:Rpxr;font-size:7.57px;stroke:none;">+</text>
   <text y="389.695" x="160.58,163.447,168.827,174.561,178.7442,181.232,185.41,188.622,193.548,197.44,200.7268,203.145,206.357,211.835,214.22,219.669,224.388,228.763,234.143,242.843,247.6238,250.055,258.755,264.135,269.584,272.451,275.318,280.0988,282.531,287.457,291.6402,294.128,296.995,302.729,306.01,310.73,314.622,318.327,323.046,329.1216,331.559,334.84,338.555,343.935,355.128,358.34,364.074,368.8548,371.287,375.661,381.396,386.322,392.057,397.525,402.3058,404.738,410.117,413.40380000000005,415.891,419.103,424.838,429.6188,432.05,437.972,442.898,446.79,450.002,452.87,457.796,460.6844,463.156,467.531,472.911,478.29,481.995,488.015,490.882,496.617,501.543,504.755,507.623,513.002" svgx:width="0.29,0.55,0.58,0.42,0.55,0.42,0.33,0.5,0.4,0.33,0.55,0.33,0.55,0.55,0.55,0.48,0.44,0.55,0.88,0.48,0.55,0.88,0.55,0.55,0.29,0.29,0.48,0.55,0.5,0.42,0.55,0.29,0.58,0.33,0.48,0.4,0.4,0.48,0.61,0.55,0.33,0.4,0.55,0.88,0.33,0.58,0.48,0.55,0.44,0.58,0.5,0.58,0.56,0.48,0.55,0.55,0.33,0.55,0.33,0.58,0.48,0.55,0.6,0.5,0.4,0.33,0.29,0.5,0.29,0.55,0.44,0.55,0.55,0.4,0.61,0.29,0.58,0.5,0.33,0.29,0.55,0.58" style="fill:rgb(0,0,0);font-family:URWPalladioL-Roma;font-size:9.96px;stroke:none;">ions start to become mobile as inferred fromthe change of the partial coordination</text>
   <text y="403.204" x="76.535,82.449,88.577,97.55,103.169,108.037,112.021,115.109,118.493,124.631,131.836,140.28,143.664,146.154,149.263,157.738,163.653,168.52,172.351,177.219,182.3,186.4832,189.667,192.98,198.894,203.6748,206.82,214.726,217.683,222.764,230.63240000000002,233.81,238.322,243.87,249.419,253.25,259.458,262.416,268.33,273.411,276.723,279.681,285.229,291.00579999999997,294.202,302.677,307.758,311.9412,315.125,319.434,322.746,327.827,333.447,336.404,341.1848,344.33,350.458,356.372,359.685,362.642,365.5304,368.648,373.728,378.809,383.89,388.87,392.03,399.408,401.898,405.007,411.216,416.297,420.605,425.473,431.5486,434.74,440.289,446.06579999999997,449.262,452.574,458.488,463.2688,466.415,470.723,474.036,477.969,484.096,488.608,491.921,498.049,501.88,506.6608,509.806,515.354" svgx:width="0.58,0.6,0.88,0.55,0.48,0.4,0.55,0.33,0.6,0.71,0.83,0.33,0.25,0.55,0.83,0.58,0.48,0.4,0.48,0.5,0.42,0.55,0.33,0.58,0.48,0.55,0.78,0.29,0.5,0.79,0.55,0.44,0.55,0.55,0.4,0.61,0.29,0.58,0.5,0.33,0.29,0.55,0.58,0.55,0.83,0.5,0.42,0.55,0.42,0.33,0.5,0.55,0.29,0.48,0.55,0.6,0.58,0.33,0.29,0.29,0.55,0.5,0.5,0.5,0.5,0.55,0.73,0.25,0.55,0.61,0.5,0.42,0.48,0.61,0.55,0.55,0.58,0.55,0.33,0.58,0.48,0.55,0.42,0.33,0.4,0.6,0.44,0.33,0.6,0.4,0.48,0.55,0.55,0.33" style="fill:rgb(0,0,0);font-family:URWPalladioL-Roma;font-size:9.96px;stroke:none;">number (PCN), whereas the Al–O coordination was stable until 1100 K. Based on the structure of</text>
   <text y="416.714" x="76.535,82.701,85.638,93.49" svgx:width="0.61,0.29,0.78,0.29" style="fill:rgb(0,0,0);font-family:URWPalladioL-Roma;font-size:9.96px;stroke:none;">LiAl</text>
   <text y="418.579" x="96.427" svgx:width="0.5" style="fill:rgb(0,0,0);font-family:URWPalladioL-Roma;font-size:7.57px;stroke:none;">2</text>
   <text y="416.714" x="100.711,104.072,112.004,120.401" svgx:width="0.33,0.79,0.83,0.33" style="fill:rgb(0,0,0);font-family:URWPalladioL-Roma;font-size:9.96px;stroke:none;">(OH)</text>
   <text y="418.579" x="123.761" svgx:width="0.5" style="fill:rgb(0,0,0);font-family:URWPalladioL-Roma;font-size:7.57px;stroke:none;">6</text>
   <text y="416.714" x="128.045,135.2,138.137,140.627,143.143,146.433,152.306,157.0868,159.633,162.923,171.34,176.818,179.333,188.244,193.755,198.034,201.3208,203.817,209.882,213.687,219.197,224.778,229.824,235.405,238.342,243.1228,245.658,251.724,256.77,260.06,265.934,274.35,279.396,285.008,289.1912,291.769,295.13,300.64,304.62399999999997,307.119,310.409,316.283,321.0638,323.6,329.766,332.6544,335.196,341.362" svgx:width="0.71,0.29,0.25,0.55,0.33,0.58,0.48,0.55,0.33,0.83,0.55,0.55,0.88,0.55,0.42,0.33,0.55,0.6,0.4,0.55,0.55,0.5,0.55,0.29,0.48,0.55,0.6,0.5,0.33,0.58,0.83,0.5,0.56,0.42,0.55,0.33,0.55,0.4,0.55,0.33,0.58,0.48,0.55,0.61,0.29,0.55,0.61,0.29" style="fill:rgb(0,0,0);font-family:URWPalladioL-Roma;font-size:9.96px;stroke:none;">Cl, the two most probable pathways for the Li di</text>
   <text y="416.714" x="344.294" svgx:width="0.61" style="fill:rgb(0,0,0);font-family:Rpxr;font-size:9.96px;stroke:none;">ﬀ</text>
   <text y="416.714" x="350.43,356.516,360.795,363.731,369.242,375.0188,377.598,386.015,390.849,394.664,399.4448,401.98,406.461,412.335,417.845,422.124,426.958,432.7348,435.315,440.361,446.234,452.3096,454.893,458.183,464.057,468.8378,471.374,476.42,482.294,487.34,490.276,495.888,500.167,503.103,507.2862,509.865,515.375" svgx:width="0.6,0.42,0.29,0.55,0.58,0.55,0.83,0.48,0.4,0.48,0.55,0.44,0.58,0.55,0.42,0.48,0.58,0.55,0.5,0.58,0.61,0.55,0.33,0.58,0.48,0.55,0.5,0.58,0.5,0.29,0.56,0.42,0.29,0.42,0.55,0.55,0.33" style="fill:rgb(0,0,0);font-family:URWPalladioL-Roma;font-size:9.96px;stroke:none;">usion were chosen and the analysis of</text>
   <text y="430.223" x="76.535,79.757,85.509,90.2898,92.743,97.131,102.072,104.948,109.336,115.296,118.172,123.113,126.335,131.069,137.1446,139.608,143.334,148.067,152.258,158.217,161.093,164.315,168.4982,171.006,173.882,178.615,183.557,189.6326,192.096,195.318,200.79600000000002,203.214,206.436,214.678,220.156,222.575,225.451,230.847,241.589,246.323,252.075,256.809,260.535,266.03,271.6076,274.025,279.49,284.432,288.335,292.239,295.115,299.849,303.753,307.943,310.433,312.914,318.31,324.062,328.8428,331.296,339.539,342.415,345.636,351.388,354.264,360.0408,362.516,365.738,371.49,376.2708,378.724,384.763,387.639,395.328" svgx:width="0.33,0.58,0.48,0.55,0.44,0.5,0.29,0.44,0.6,0.29,0.5,0.33,0.48,0.61,0.55,0.4,0.48,0.42,0.6,0.29,0.33,0.42,0.55,0.29,0.48,0.5,0.61,0.55,0.33,0.55,0.55,0.33,0.83,0.55,0.55,0.29,0.55,0.83,0.48,0.58,0.48,0.4,0.56,0.56,0.55,0.55,0.5,0.4,0.4,0.29,0.48,0.4,0.42,0.25,0.55,0.55,0.58,0.48,0.55,0.83,0.29,0.33,0.58,0.29,0.58,0.55,0.33,0.58,0.48,0.55,0.61,0.29,0.78,0.29" style="fill:rgb(0,0,0);font-family:URWPalladioL-Roma;font-size:9.96px;stroke:none;">the calculated results lead to two lowenergy barriers, one within the LiAl</text>
   <text y="432.088" x="398.209" svgx:width="0.5" style="fill:rgb(0,0,0);font-family:URWPalladioL-Roma;font-size:7.57px;stroke:none;">2</text>
   <text y="430.223" x="402.493,405.784,413.552,421.775" svgx:width="0.33,0.79,0.83,0.33" style="fill:rgb(0,0,0);font-family:URWPalladioL-Roma;font-size:9.96px;stroke:none;">(OH)</text>
   <text y="432.088" x="425.065" svgx:width="0.5" style="fill:rgb(0,0,0);font-family:URWPalladioL-Roma;font-size:7.57px;stroke:none;">6</text>
   <text y="430.223" x="431.85,434.726,439.667,445.162,449.896,453.8,457.9832,460.491,465.432,471.184,477.25960000000003,479.723,482.945,488.696,493.4768,495.931,501.327,504.549,510.3,515.034" svgx:width="0.29,0.5,0.56,0.48,0.4,0.42,0.55,0.5,0.58,0.61,0.55,0.33,0.58,0.48,0.55,0.55,0.33,0.58,0.48,0.4" style="fill:rgb(0,0,0);font-family:URWPalladioL-Roma;font-size:9.96px;stroke:none;">layers and the other</text>
   <text y="443.733" x="76.535,82.044,86.816,90.064,98.373,103.145,107.917,113.6938,116.196,120.42,126.428,130.851,136.6278,139.13,142.029,147.01,152.55,157.322,161.257,165.481,167.971,171.459,177.566,183.364,188.1448,190.617,195.04,200.021,202.921,207.344,213.351,216.25,221.232,224.48,229.252,235.32760000000002,237.819,240.719,245.7,249.456,254.995,259.7758,262.248,268.335" svgx:width="0.55,0.48,0.33,0.83,0.48,0.48,0.58,0.55,0.42,0.6,0.44,0.58,0.55,0.29,0.5,0.56,0.48,0.4,0.42,0.25,0.55,0.61,0.58,0.48,0.55,0.44,0.5,0.29,0.44,0.6,0.29,0.5,0.33,0.48,0.61,0.55,0.29,0.5,0.4,0.56,0.48,0.55,0.61,0.29" style="fill:rgb(0,0,0);font-family:URWPalladioL-Roma;font-size:9.96px;stroke:none;">between such layers. The calculated large di</text>
   <text y="443.733" x="271.237" svgx:width="0.61" style="fill:rgb(0,0,0);font-family:Rpxr;font-size:9.96px;stroke:none;">ﬀ</text>
   <text y="443.733" x="277.295,283.302,287.527,290.426,295.865,301.6418,304.144,308.568,314.007" svgx:width="0.6,0.42,0.29,0.55,0.58,0.55,0.44,0.55,0.48" style="fill:rgb(0,0,0);font-family:URWPalladioL-Roma;font-size:9.96px;stroke:none;">usion coe</text>
   <text y="443.733" x="318.78" svgx:width="0.92" style="fill:rgb(0,0,0);font-family:Rpxr;font-size:9.96px;stroke:none;">ﬃ</text>
   <text y="443.733" x="327.936,332.359,335.259,340.031,345.829,349.077,351.567,354.048,359.029,361.52,366.501" svgx:width="0.44,0.29,0.48,0.58,0.33,0.25,0.55,0.5,0.25,0.5,0.5" style="fill:rgb(0,0,0);font-family:URWPalladioL-Roma;font-size:9.96px;stroke:none;">cient, 3.13</text>
   <text y="443.733" x="373.418" svgx:width="0.67" style="fill:rgb(0,0,0);font-family:Pxsy;font-size:9.96px;stroke:none;">×</text>
   <text y="443.733" x="382.015,386.996" svgx:width="0.5,0.5" style="fill:rgb(0,0,0);font-family:URWPalladioL-Roma;font-size:9.96px;stroke:none;">10</text>
   <text y="440.116" x="391.978" svgx:width="0.67" style="fill:rgb(0,0,0);font-family:Pxsy;font-size:7.57px;stroke:none;">−</text>
   <text y="440.116" x="397.043" svgx:width="0.5" style="fill:rgb(0,0,0);font-family:URWPalladioL-Roma;font-size:7.57px;stroke:none;">5</text>
   <text y="443.733" x="401.327,405.382" svgx:width="0.41,0.78" style="fill:rgb(0,0,0);font-family:URWPalladioL-Ital;font-size:9.96px;stroke:none;">cm</text>
   <text y="440.116" x="413.133" svgx:width="0.5" style="fill:rgb(0,0,0);font-family:URWPalladioL-Roma;font-size:7.57px;stroke:none;">2</text>
   <text y="443.733" x="417.541" svgx:width="0.61" style="fill:rgb(0,0,0);font-family:URWPalladioL-Roma;font-size:9.96px;stroke:none;">/</text>
   <text y="443.733" x="423.703" svgx:width="0.39" style="fill:rgb(0,0,0);font-family:URWPalladioL-Ital;font-size:9.96px;stroke:none;">s</text>
   <text y="443.733" x="427.578,430.068,432.549,437.989,441.2758,443.787,447.035,452.833,457.6138,460.096,466.183" svgx:width="0.25,0.55,0.55,0.33,0.55,0.33,0.58,0.48,0.55,0.61,0.29" style="fill:rgb(0,0,0);font-family:URWPalladioL-Roma;font-size:9.96px;stroke:none;">, of the Li</text>
   <text y="440.116" x="469.078" svgx:width="0.67" style="fill:rgb(0,0,0);font-family:Rpxr;font-size:7.57px;stroke:none;">+</text>
   <text y="443.733" x="477.124,480.023,485.463,491.2398,493.742,496.641,502.4178,504.92,508.167,513.966" svgx:width="0.29,0.55,0.58,0.55,0.29,0.58,0.55,0.33,0.58,0.48" style="fill:rgb(0,0,0);font-family:URWPalladioL-Roma;font-size:9.96px;stroke:none;">ion in the</text>
   <text y="457.242" x="76.535,82.513,85.36,92.971" svgx:width="0.61,0.29,0.78,0.29" style="fill:rgb(0,0,0);font-family:URWPalladioL-Roma;font-size:9.96px;stroke:none;">LiAl</text>
   <text y="459.107" x="95.818" svgx:width="0.5" style="fill:rgb(0,0,0);font-family:URWPalladioL-Roma;font-size:7.57px;stroke:none;">2</text>
   <text y="457.242" x="100.102,103.36,111.049,119.189" svgx:width="0.33,0.79,0.83,0.33" style="fill:rgb(0,0,0);font-family:URWPalladioL-Roma;font-size:9.96px;stroke:none;">(OH)</text>
   <text y="459.107" x="122.447" svgx:width="0.5" style="fill:rgb(0,0,0);font-family:URWPalladioL-Roma;font-size:7.57px;stroke:none;">6</text>
   <text y="457.242" x="126.731,133.667,136.5554,139.009,147.648,152.539,155.729,160.415,164.279,167.126,172.018,174.9064,177.359,182.251,185.5378,187.935,192.827,197.718,202.69799999999998,205.105,212.3758,214.702,218.85,224.75,230.189,235.629,240.315,244.463,247.652,251.8352,254.285,259.265,261.672,267.366,270.212,275.652,281.42879999999997,283.841,289.818" svgx:width="0.71,0.29,0.55,0.88,0.5,0.33,0.48,0.4,0.29,0.5,0.29,0.55,0.5,0.33,0.55,0.5,0.5,0.5,0.55,0.73,0.55,0.42,0.6,0.56,0.56,0.48,0.42,0.33,0.42,0.55,0.5,0.55,0.58,0.29,0.56,0.58,0.55,0.61,0.29" style="fill:rgb(0,0,0);font-family:URWPalladioL-Roma;font-size:9.96px;stroke:none;">Cl material at 500 K suggests a high Li</text>
   <text y="453.626" x="292.668" svgx:width="0.67" style="fill:rgb(0,0,0);font-family:Rpxr;font-size:7.57px;stroke:none;">+</text>
   <text y="457.242" x="300.726,303.573,308.915,314.6918,317.103,321.447,326.789,332.483,338.46,344.359,348.703,351.893,354.74,360.267,363.114,366.303,370.637,373.127,376.576,382.573,388.267,393.0478,395.448,401.142,403.989,409.428,415.2048,417.617,426.255,431.597,437.007,439.854,442.701,445.548,448.737,454.31460000000004,456.671,462.013,465.2998,467.766,470.955,476.649,481.4298,483.83,489.807" svgx:width="0.29,0.55,0.58,0.55,0.44,0.55,0.58,0.61,0.6,0.44,0.33,0.29,0.56,0.29,0.33,0.56,0.25,0.55,0.61,0.58,0.48,0.55,0.58,0.29,0.56,0.58,0.55,0.88,0.55,0.55,0.29,0.29,0.29,0.33,0.56,0.55,0.55,0.33,0.55,0.33,0.58,0.48,0.55,0.61,0.29" style="fill:rgb(0,0,0);font-family:URWPalladioL-Roma;font-size:9.96px;stroke:none;">ion conductivity. The high mobility of the Li</text>
   <text y="453.626" x="492.652" svgx:width="0.67" style="fill:rgb(0,0,0);font-family:Rpxr;font-size:7.57px;stroke:none;">+</text>
   <text y="457.242" x="500.71,503.557,508.899,514.592" svgx:width="0.29,0.55,0.58,0.42" style="fill:rgb(0,0,0);font-family:URWPalladioL-Roma;font-size:9.96px;stroke:none;">ions</text>
   <text y="470.751" x="76.535,79.763,85.17,90.676,95.42,98.648,104.411,109.155,113.139,115.552,123.811,126.693,129.921,135.6978,138.16,141.389,147.152,151.9328,154.381,160.145,163.026,168.532,174.30880000000002,176.781,180.98,184.208,189.16,194.636,197.518,200.4,203.281,206.51,212.08759999999998,214.491,219.898,223.1848,225.681,228.91,234.673,239.4538,241.902,245.2,252.904" svgx:width="0.33,0.55,0.56,0.48,0.33,0.58,0.48,0.4,0.55,0.83,0.29,0.33,0.58,0.55,0.33,0.58,0.48,0.55,0.58,0.29,0.56,0.58,0.55,0.42,0.33,0.5,0.55,0.29,0.29,0.29,0.33,0.56,0.55,0.55,0.33,0.55,0.33,0.58,0.48,0.55,0.33,0.78,0.29" style="fill:rgb(0,0,0);font-family:URWPalladioL-Roma;font-size:9.96px;stroke:none;">together with the high stability of the [Al</text>
   <text y="472.616" x="255.784" svgx:width="0.5" style="fill:rgb(0,0,0);font-family:URWPalladioL-Roma;font-size:7.57px;stroke:none;">2</text>
   <text y="470.751" x="260.068,263.366,271.149,279.388" svgx:width="0.33,0.79,0.83,0.33" style="fill:rgb(0,0,0);font-family:URWPalladioL-Roma;font-size:9.96px;stroke:none;">(OH)</text>
   <text y="472.616" x="282.686" svgx:width="0.5" style="fill:rgb(0,0,0);font-family:URWPalladioL-Roma;font-size:7.57px;stroke:none;">6</text>
   <text y="470.751" x="286.97,290.25680000000006,292.753,296.051,299.962,304.914,313.658,318.402,326.66,332.067,335.979,341.5566,343.961,346.842,352.606,358.657,361.538,365.935,370.887,374.115,378.8958,381.344,384.572,390.336,395.287,398.5738,401.001,404.229,409.993,414.7738,417.212,420.44,423.322,426.55,429.432,434.2128,436.661,441.058,446.465,455.209,461.161,466.568,472.539,478.303,484.3786,486.839,495.583,500.534,506.1116,508.516,513.992" svgx:width="0.33,0.55,0.33,0.4,0.5,0.88,0.48,0.83,0.55,0.4,0.56,0.55,0.29,0.58,0.61,0.29,0.44,0.5,0.33,0.48,0.55,0.33,0.58,0.5,0.33,0.55,0.33,0.58,0.48,0.55,0.33,0.29,0.33,0.29,0.48,0.55,0.44,0.55,0.88,0.6,0.55,0.6,0.58,0.61,0.55,0.88,0.5,0.56,0.55,0.55,0.48" style="fill:rgb(0,0,0);font-family:URWPalladioL-Roma;font-size:9.96px;stroke:none;">] framework indicate that the title compound may be</text>
   <text y="484.261" x="76.535,79.783,84.555,88.978,94.777,100.575,103.474,107.897,112.879,115.778,118.677,124.25460000000001,126.707,129.606,138.403,144.39,149.83,153.765,157.013,161.994,167.792,171.0788,173.531,178.512,182.6952,185.227,190.207,192.699,196.923,202.93,208.918,213.69,217.625,220.524,225.964,231.762,234.661,239.0434,241.575,245.999,251.438,257.237,263.324,269.331,273.755,277.002,282.442,286.426,288.868,293.849,297.1358,299.588,305.386,308.285,313.824,319.6008,322.113,325.361,330.133,338.93,344.917,349.69,353.625,358.606,361.854,367.861,371.617,376.389,380.614" svgx:width="0.33,0.48,0.44,0.58,0.58,0.29,0.44,0.5,0.29,0.29,0.56,0.55,0.29,0.88,0.6,0.55,0.4,0.33,0.5,0.58,0.33,0.55,0.5,0.42,0.55,0.5,0.55,0.42,0.6,0.6,0.48,0.4,0.29,0.55,0.58,0.29,0.44,0.55,0.44,0.55,0.58,0.61,0.6,0.44,0.33,0.55,0.4,0.55,0.5,0.33,0.55,0.58,0.29,0.56,0.58,0.55,0.33,0.48,0.88,0.6,0.48,0.4,0.5,0.33,0.6,0.4,0.48,0.42,0.25" style="fill:rgb(0,0,0);font-family:URWPalladioL-Roma;font-size:9.96px;stroke:none;">technically important as a superionic conductor at high temperatures.</text>
   <text y="506.348" x="76.535,82.013,87.492,92.97,98.449,101.435,105.918,113.889,118.372,123.851,126.837,131.32,134.808,139.8312,142.035,151.001,155.484,158.47,162.953,166.441,169.427,173.91,176.896,180.877" svgx:width="0.61,0.61,0.61,0.61,0.33,0.5,0.89,0.5,0.61,0.33,0.5,0.39,0.56,0.55,1.0,0.5,0.33,0.5,0.39,0.33,0.5,0.33,0.44,0.25" style="fill:rgb(0,0,0);font-family:URWPalladioL-Bold;font-size:8.97px;stroke:none;">Supplementary Materials:</text>
   <text y="506.348" x="186.256,190.963,196.37,201.759,207.148,209.757,214.052,221.969,226.264,231.483,234.406,238.889,242.431,247.45420000000001,249.657,258.14,262.623,265.546,269.841,273.383,275.992,280.475,283.084,286.8514,289.128,293.611,296.991,301.2966,303.528,308.011,313.077,317.56,320.169,322.778,327.262,332.22,334.829,339.13460000000003,341.366,346.261,351.48,354.089,356.698,361.917,366.212" svgx:width="0.52,0.6,0.6,0.6,0.29,0.48,0.88,0.48,0.58,0.33,0.5,0.4,0.56,0.55,0.95,0.5,0.33,0.48,0.4,0.29,0.5,0.29,0.42,0.55,0.5,0.4,0.48,0.55,0.5,0.56,0.5,0.29,0.29,0.5,0.55,0.29,0.48,0.55,0.55,0.58,0.29,0.29,0.58,0.48,0.25" style="fill:rgb(0,0,0);font-family:URWPalladioL-Roma;font-size:8.97px;stroke:none;">Supplementary Materials are available online.</text>
   <text y="522.458" x="76.186,83.162,88.64,91.626,97.105,102.09,105.5883,107.811,114.284,119.27,124.748,127.734,131.222,134.208,139.686,145.165,148.15,151.136,156.121,161.6,165.581" svgx:width="0.78,0.61,0.33,0.61,0.56,0.39,0.55,0.72,0.56,0.61,0.33,0.39,0.33,0.61,0.61,0.33,0.33,0.56,0.61,0.44,0.25" style="fill:rgb(0,0,0);font-family:URWPalladioL-Bold;font-size:8.97px;stroke:none;">Author Contributions:</text>
   <text y="522.458" x="170.957,177.257,179.478,187.538,189.78050000000002,191.998,197.427,200.013,205.4847,207.673,213.013,217.456,220.966,223.92610000000002,226.093,230.944,233.9041,236.143,239.039,244.211,248.5166,250.697,256.038,259.388,263.644,266.23,268.815,276.661,279.247,284.419,288.861,292.371,297.39419999999996,299.542,303.487,307.93,310.516,314.461,319.819,322.405,326.848,329.745,332.33,337.182,342.353,346.1204,348.36,352.803,357.974,363.4457,365.634,370.566,372.787,378.714,380.9565,383.165,388.506,392.762,396.272,399.231,404.082,407.592,415.438,419.695,425.1667,427.363,431.806,434.392,436.9933,439.208,443.153,447.596,450.181,454.127,459.485,462.071,466.513,469.41,471.996,476.848,482.019,485.7864,488.017,492.46,497.631,503.10269999999997,505.3,510.729,513.314" svgx:width="0.71,0.25,1.0,0.25,0.55,0.61,0.29,0.61,0.55,0.6,0.5,0.4,0.33,0.55,0.55,0.33,0.55,0.33,0.58,0.48,0.55,0.6,0.4,0.48,0.29,0.29,0.88,0.29,0.58,0.5,0.4,0.56,0.55,0.44,0.5,0.29,0.44,0.6,0.29,0.5,0.33,0.29,0.55,0.58,0.42,0.55,0.5,0.58,0.61,0.55,0.67,0.25,0.67,0.25,0.55,0.6,0.48,0.4,0.33,0.55,0.4,0.88,0.48,0.61,0.55,0.5,0.29,0.29,0.55,0.44,0.5,0.29,0.44,0.6,0.29,0.5,0.33,0.29,0.55,0.58,0.42,0.55,0.5,0.58,0.61,0.55,0.61,0.29,0.61" style="fill:rgb(0,0,0);font-family:URWPalladioL-Roma;font-size:8.97px;stroke:none;">C.W. did part of the preliminary calculations and Y.Z. performed all calculations and did</text>
   <text y="532.59" x="76.535,81.045,83.67,86.2713,88.532,94.043,98.553,101.494,105.979,108.241,112.246,117.496,121.816,125.821,130.837,134.6044,136.898,139.839,144.764,149.779,154.1,157.04,162.29,166.611,170.19899999999998,172.411,179.934,182.558,185.499,190.70159999999998,192.986,199.002,201.257,207.653,209.8955,212.145,216.88,219.135,226.117,228.3595,230.609,236.12,240.441,244.266,246.891,251.906,257.156,261.476,266.9477,269.225,272.165,277.415,281.72060000000005,283.973,287.797,290.422,298.387,303.817,306.442,310.952,313.893,316.517,321.442,326.692,330.4594,332.754,337.264,342.514,347.9857,350.262,352.887,357.208,361.718,367.229,371.55,377.0217,379.298,382.239,387.488,391.7936,394.046,399.467,402.868,407.793,409.904,414.224,418.229,421.17,423.4125,426.564,431.588,433.843,439.86,442.115,444.3575,446.607,452.623,454.878,461.274,463.529,465.7715,468.021,471.024,473.279,479.828,482.083,484.32550000000003,486.575,491.085,496.335,501.8067,504.083,508.819,511.074,518.056" svgx:width="0.5,0.29,0.29,0.55,0.61,0.5,0.33,0.5,0.55,0.44,0.58,0.48,0.44,0.56,0.42,0.55,0.33,0.55,0.56,0.48,0.33,0.58,0.48,0.4,0.55,0.83,0.29,0.33,0.58,0.55,0.67,0.25,0.71,0.25,0.55,0.52,0.25,0.77,0.25,0.55,0.61,0.48,0.42,0.29,0.56,0.58,0.48,0.61,0.55,0.33,0.58,0.48,0.55,0.42,0.29,0.88,0.6,0.29,0.5,0.33,0.29,0.55,0.58,0.42,0.55,0.5,0.58,0.61,0.55,0.29,0.48,0.5,0.61,0.48,0.61,0.55,0.33,0.58,0.48,0.55,0.6,0.4,0.55,0.23,0.48,0.44,0.33,0.25,0.55,0.67,0.25,0.67,0.25,0.25,0.55,0.67,0.25,0.71,0.25,0.25,0.55,0.33,0.25,0.73,0.25,0.25,0.55,0.5,0.58,0.61,0.55,0.52,0.25,0.77,0.25" style="fill:rgb(0,0,0);font-family:URWPalladioL-Roma;font-size:8.97px;stroke:none;">all data checks together with X.C. S.D. designed the simulations and leaded the project. Y.Z., X.C., J.K., and S.D.</text>
   <text y="542.722" x="76.535,82.013,84.623,88.424,92.406,97.812,101.614,105.416,109.711,115.1827,117.431,120.354,125.572,129.8776,132.109,135.489,139.784,143.586,148.992,151.602,154.525,158.29240000000001,160.568,165.051,170.27,175.7417,177.99,185.468,188.848,193.744,196.667,200.9726,203.203,206.126,211.345,215.6506,217.881,225.799,230.282,235.5,240.907,244.709,248.69,252.232,254.841,260.23,263.153,265.3955,268.533,275.508,278.118,280.7193,282.968,287.452,292.858,295.781,301.0,305.896,309.437,313.2044,315.481,320.959,323.568,327.37,331.351,336.758,340.56,344.361,348.656,354.1277,356.376,360.86,366.078,371.5497,373.798,378.281,383.67,389.059,392.439,397.335,402.401,406.696,412.1677,414.416,417.339,422.557,426.86260000000004,429.094,434.519,439.737,444.22,446.8213,449.071,454.137,458.432,461.974,465.775,468.385,473.28,478.499" svgx:width="0.61,0.29,0.42,0.44,0.6,0.42,0.42,0.48,0.61,0.55,0.33,0.58,0.48,0.55,0.4,0.48,0.42,0.6,0.29,0.33,0.42,0.55,0.5,0.58,0.61,0.55,0.83,0.4,0.55,0.33,0.48,0.55,0.33,0.58,0.48,0.55,0.88,0.5,0.58,0.6,0.42,0.44,0.4,0.29,0.6,0.33,0.25,0.55,0.78,0.29,0.29,0.55,0.5,0.6,0.33,0.58,0.55,0.4,0.42,0.55,0.61,0.29,0.42,0.44,0.6,0.42,0.42,0.48,0.61,0.55,0.5,0.58,0.61,0.55,0.5,0.6,0.6,0.4,0.55,0.56,0.48,0.61,0.55,0.33,0.58,0.48,0.55,0.61,0.58,0.5,0.29,0.55,0.56,0.48,0.4,0.42,0.29,0.55,0.58,0.25" style="fill:rgb(0,0,0);font-family:URWPalladioL-Roma;font-size:8.97px;stroke:none;">discussed the results and wrote the manuscript. All authors discussed and approved the ﬁnal version.</text>
   <text y="558.831" x="76.535,81.52,86.999,92.477,97.956,100.942,106.42,111.405" svgx:width="0.56,0.61,0.61,0.61,0.33,0.61,0.56,0.25" style="fill:rgb(0,0,0);font-family:URWPalladioL-Bold;font-size:8.97px;stroke:none;">Funding:</text>
   <text y="558.831" x="117.25,122.856,128.179,130.841,134.60840000000002,137.188,144.815,149.809,153.421,158.4442,160.985,163.646,167.4134,169.993,175.527,180.849,185.422,190.745,194.806,197.467,202.04,204.701,207.363,212.3862,214.926,218.804,224.319,229.816,235.312,240.306,243.918,246.9,251.281,256.7527,259.338,264.396,269.4192,271.959,274.941,280.263,284.5686,287.114,294.714,299.287,302.268,304.929,309.923,315.246,319.819,322.4203,324.959,332.559,337.132,340.113,345.628,349.241,353.813,356.41429999999997,358.944,363.746,367.806,370.468,374.849,380.171,384.232,388.53760000000005,391.082,396.167,401.161,406.676,411.999,417.587,422.159,425.141,427.802,432.796,437.9986,440.597,445.591,448.5511,451.106,457.59,462.913,465.574,470.897,475.382,477.948,480.994,485.567,490.14,494.713,499.285,503.858,508.431,513.004,517.577" svgx:width="0.61,0.58,0.29,0.42,0.55,0.83,0.55,0.4,0.56,0.55,0.29,0.42,0.55,0.61,0.58,0.5,0.58,0.44,0.29,0.5,0.29,0.29,0.56,0.55,0.42,0.6,0.6,0.6,0.55,0.4,0.33,0.48,0.61,0.55,0.55,0.56,0.55,0.33,0.58,0.48,0.55,0.83,0.5,0.33,0.29,0.55,0.58,0.5,0.29,0.55,0.83,0.5,0.33,0.6,0.4,0.5,0.29,0.55,0.52,0.44,0.29,0.48,0.58,0.44,0.48,0.55,0.56,0.55,0.6,0.58,0.61,0.5,0.33,0.29,0.55,0.58,0.55,0.55,0.33,0.55,0.71,0.58,0.29,0.58,0.5,0.55,0.33,0.5,0.5,0.5,0.5,0.5,0.5,0.5,0.5,0.25" style="fill:rgb(0,0,0);font-family:URWPalladioL-Roma;font-size:8.97px;stroke:none;">This work is ﬁnancially supported by the National Natural Science Foundation of China (61874122,</text>
   <text y="568.964" x="76.535,81.108,85.681,90.254,94.826,99.399,103.972,108.545,113.118,116.163,118.4055,123.901,126.882,132.205,136.5106,140.967,145.768,148.75,152.362,156.935,159.917,164.297,169.382,172.044,175.9908,180.485,186.009,189.622,192.283,197.277,200.889,203.551,206.532,211.5552,215.998,222.107,226.488,230.366,234.747,239.32,242.768,246.828,252.0306,256.532,262.056,265.513,270.507,275.592,279.204,283.777,291.6706,296.234,301.227,304.1871,308.653,311.635,316.958,321.26360000000005,325.719,332.204,337.526,340.188,345.511,349.892,353.769,358.07460000000003,362.531,369.646,373.707,378.28,383.868,388.249,396.324,401.3472,405.79,410.784,413.7441,418.21,423.012,427.072,429.734,434.115,439.437,443.498,447.879,451.6464,456.137,459.183,465.283,472.362,477.95,482.523,487.096,491.669,496.241,500.814,505.387,509.96,514.533,517.578" svgx:width="0.5,0.5,0.5,0.5,0.5,0.5,0.5,0.5,0.33,0.25,0.55,0.33,0.58,0.48,0.55,0.52,0.33,0.4,0.5,0.33,0.48,0.56,0.29,0.44,0.55,0.6,0.4,0.29,0.55,0.4,0.29,0.33,0.56,0.55,0.67,0.48,0.42,0.48,0.5,0.4,0.44,0.58,0.55,0.6,0.4,0.55,0.56,0.4,0.5,0.88,0.55,0.55,0.33,0.55,0.33,0.58,0.48,0.55,0.71,0.58,0.29,0.58,0.48,0.42,0.48,0.55,0.78,0.44,0.5,0.61,0.48,0.88,0.56,0.55,0.55,0.33,0.55,0.52,0.44,0.29,0.48,0.58,0.44,0.48,0.42,0.55,0.33,0.67,0.77,0.61,0.5,0.5,0.5,0.5,0.5,0.5,0.5,0.5,0.33,0.25" style="fill:rgb(0,0,0);font-family:URWPalladioL-Roma;font-size:8.97px;stroke:none;">21703251); the Strategic Priority Research Program of the Chinese Academy of Sciences (XDB20000000);</text>
   <text y="579.096" x="76.535,83.986,88.469,91.392,94.002,98.897,104.116,108.599,111.2003,113.459,119.968,124.263,129.2862,131.499,137.489,141.783,145.585,149.88,154.363,157.744,161.725,166.92759999999998,169.194,173.677,178.895,184.3667,186.624,193.564,197.859,202.925,207.22,209.829,214.725,220.114,228.031,232.326,237.545,240.5051,242.718,248.134,251.514,256.41,261.395,264.937,269.42,279.588,284.484,287.4441,289.72,296.077,301.296,303.905,309.123,313.608,315.857,318.843,323.326,327.81,332.293,336.776,342.757,347.742,353.22,357.704,362.187,366.67,371.153,375.636,380.12,384.603,387.589,389.8315,392.09,396.573,401.056,405.541,407.79,410.713,415.196,417.805,422.1,427.319,430.242,434.0094,436.294,441.683,445.063,449.959,454.944,458.486,462.969,473.137,478.033,480.9931,483.269,489.626,496.602,501.2664,503.56,508.043,513.262" svgx:width="0.83,0.5,0.33,0.29,0.55,0.58,0.5,0.29,0.55,0.73,0.48,0.56,0.55,0.67,0.48,0.42,0.48,0.5,0.4,0.44,0.58,0.55,0.5,0.58,0.61,0.55,0.77,0.48,0.56,0.48,0.29,0.55,0.6,0.88,0.48,0.58,0.33,0.55,0.6,0.4,0.55,0.56,0.4,0.5,0.88,0.55,0.33,0.55,0.71,0.58,0.29,0.58,0.5,0.55,0.33,0.5,0.5,0.5,0.5,0.67,0.56,0.61,0.5,0.5,0.5,0.5,0.5,0.5,0.5,0.33,0.25,0.55,0.5,0.5,0.5,0.55,0.33,0.5,0.29,0.48,0.58,0.33,0.42,0.55,0.6,0.4,0.55,0.56,0.4,0.5,0.88,0.55,0.33,0.55,0.71,0.78,0.52,0.55,0.5,0.58,0.61" style="fill:rgb(0,0,0);font-family:URWPalladioL-Roma;font-size:8.97px;stroke:none;">National Key Research and Development Programof China (2016YFB0701001); 100 talents programof CAS and</text>
   <text y="589.228" x="76.535,81.52,86.927,89.025,91.634,96.118,101.3206,103.578,108.993,112.374,117.269,122.335,124.945,130.163,134.144,138.439" svgx:width="0.56,0.6,0.23,0.29,0.5,0.58,0.55,0.6,0.4,0.55,0.56,0.29,0.58,0.44,0.48,0.25" style="fill:rgb(0,0,0);font-family:URWPalladioL-Roma;font-size:8.97px;stroke:none;">Fujian Province.</text>
   <text y="605.337" x="76.535,83.009,87.994,93.473,98.951,101.937,105.918,108.904,112.85079999999999,115.126,120.112,123.6103,125.841,129.329,134.808,137.793,142.277,145.765,150.248,154.229,157.215" svgx:width="0.72,0.56,0.61,0.61,0.33,0.44,0.33,0.44,0.55,0.56,0.39,0.55,0.39,0.61,0.33,0.5,0.39,0.5,0.44,0.33,0.25" style="fill:rgb(0,0,0);font-family:URWPalladioL-Bold;font-size:8.97px;stroke:none;">Conﬂicts of Interest:</text>
   <text y="605.337" x="162.594,168.09,173.309,177.6146,179.845,184.329,189.735,192.658,197.877,202.772,206.314,210.0814,212.358,217.836,222.131,226.112,228.721,233.204,236.585,240.8906,243.121,248.34,253.2735,255.477,259.458,264.354,269.572,275.024,277.633,281.614,284.5741,286.779,291.674,294.6341,296.902,299.511,304.729,307.652,311.947,315.328,319.623,323.424,326.347" svgx:width="0.61,0.58,0.48,0.55,0.5,0.6,0.33,0.58,0.55,0.4,0.42,0.55,0.61,0.48,0.44,0.29,0.5,0.4,0.48,0.55,0.58,0.55,0.55,0.44,0.55,0.58,0.61,0.29,0.44,0.33,0.55,0.55,0.33,0.55,0.29,0.58,0.33,0.48,0.4,0.48,0.42,0.33,0.25" style="fill:rgb(0,0,0);font-family:URWPalladioL-Roma;font-size:8.97px;stroke:none;">The authors declare no conﬂict of interest.</text>
   <text y="631.639" x="76.535,83.728,88.709,92.585,97.566,101.441,106.423,112.51,116.933,121.915" svgx:width="0.72,0.5,0.39,0.5,0.39,0.5,0.61,0.44,0.5,0.44" style="fill:rgb(0,0,0);font-family:URWPalladioL-Bold;font-size:9.96px;stroke:none;">References</text>
   <text y="650.528" x="76.535,81.018,83.26050000000001,98.05,106.702,111.695,117.018,121.591,127.088,131.661,134.642,138.255,142.827,145.0695,147.492,153.08,155.366,157.60850000000002,160.104,165.628,170.201,173.813,176.475,182.063,186.636,188.8785,191.3,197.94,200.1825,202.604,209.60060000000001,212.097,215.554,219.935,225.102,227.764,232.145,239.5901,242.15,247.144,252.3466,254.844,257.826,263.149,267.4546,269.907,273.364,277.745,281.806,286.187,291.51,294.4701,296.869,302.366,305.813,310.807,315.892,319.349,323.73,327.608,331.485,333.7275,336.186,340.238,345.561,350.134,352.795,355.456,359.837,365.16,370.245,374.626,378.3934,380.891,385.464,390.786,396.2577,398.752,404.249,408.63,412.242,416.12,421.617,425.997,430.058,433.04,435.701,440.868,445.1736,447.627,452.621,455.5811,458.044,460.705,465.278,470.363,474.744,478.192,482.573,488.0447,490.548,496.136,501.13,506.644,511.702,514.363" svgx:width="0.5,0.25,0.55,0.95,0.55,0.58,0.5,0.6,0.5,0.33,0.4,0.5,0.25,0.55,0.61,0.25,0.25,0.55,0.6,0.5,0.4,0.29,0.61,0.5,0.25,0.55,0.73,0.25,0.55,0.78,0.55,0.4,0.48,0.56,0.29,0.48,0.83,0.55,0.55,0.58,0.55,0.33,0.58,0.48,0.55,0.4,0.48,0.44,0.48,0.58,0.33,0.55,0.6,0.4,0.55,0.56,0.4,0.48,0.42,0.42,0.25,0.55,0.44,0.58,0.5,0.29,0.29,0.48,0.58,0.56,0.48,0.42,0.55,0.5,0.58,0.61,0.55,0.6,0.48,0.4,0.42,0.6,0.48,0.44,0.33,0.29,0.56,0.48,0.55,0.55,0.33,0.55,0.29,0.5,0.56,0.48,0.4,0.48,0.61,0.55,0.61,0.55,0.6,0.55,0.29,0.48" style="fill:rgb(0,0,0);font-family:URWPalladioL-Roma;font-size:8.97px;stroke:none;">1. Mohapatra, L.; Parida, K. A review on the recent progress, challenges and perspective of layered double</text>
   <text y="663.439" x="98.05,103.268,108.254,113.732,117.113,122.008,126.635,129.244,134.723,139.017,142.7844,145.061,149.544,153.31140000000002,155.587,160.976,164.357,169.252,177.17,179.779,183.581,186.19,191.408,196.4312,198.635,204.024,209.242,214.138,217.061,221.957,225.938,230.421,233.344,237.827,240.436,245.422,249.224,252.147,255.948" svgx:width="0.58,0.56,0.61,0.4,0.55,0.52,0.29,0.61,0.48,0.42,0.55,0.5,0.42,0.55,0.6,0.4,0.55,0.88,0.29,0.42,0.29,0.58,0.56,0.55,0.6,0.58,0.55,0.33,0.55,0.44,0.5,0.33,0.5,0.29,0.56,0.42,0.33,0.42,0.25" style="fill:rgb(0,0,0);font-family:URWPalladioL-Roma;font-size:8.97px;stroke:none;">hydroxides as promising photocatalysts.</text>
   <text y="663.439" x="261.326,264.312,266.5545,268.795,277.259,281.24,284.226,287.714,290.539,292.7815,295.918,301.899,306.382,309.87,316.846,319.0885,322.226" svgx:width="0.33,0.25,0.55,0.94,0.44,0.33,0.39,0.39,0.25,0.55,0.67,0.5,0.39,0.78,0.25,0.55,0.72" style="fill:rgb(0,0,0);font-family:URWPalladioL-Ital;font-size:8.97px;stroke:none;">J. Mater. Chem. A</text>
   <text y="663.439" x="330.941,335.424,339.907,344.391" svgx:width="0.5,0.5,0.5,0.5" style="fill:rgb(0,0,0);font-family:URWPalladioL-Bold;font-size:8.97px;stroke:none;">2016</text>
   <text y="663.439" x="348.873" svgx:width="0.25" style="fill:rgb(0,0,0);font-family:URWPalladioL-Roma;font-size:8.97px;stroke:none;">,</text>
   <text y="663.439" x="353.357" svgx:width="0.5" style="fill:rgb(0,0,0);font-family:URWPalladioL-Ital;font-size:8.97px;stroke:none;">4</text>
   <text y="663.439" x="357.84,360.0825,362.323,366.806,371.29,375.773,380.256,384.739,389.222,393.706,398.189,402.672,407.155,411.639,413.8815,417.018" svgx:width="0.25,0.55,0.5,0.5,0.5,0.5,0.5,0.5,0.5,0.5,0.5,0.5,0.5,0.25,0.55,0.33" style="fill:rgb(0,0,0);font-family:URWPalladioL-Roma;font-size:8.97px;stroke:none;">, 10744–10766. [</text>
   <text y="663.439" x="420.004,426.361,429.742,434.637,438.439,442.241,448.23,452.525" svgx:width="0.71,0.4,0.55,0.42,0.42,0.67,0.48,0.33" style="fill:rgb(8,117,183);font-family:URWPalladioL-Roma;font-size:8.97px;stroke:none;">CrossRef</text>
   <text y="663.439" x="455.511" svgx:width="0.33" style="fill:rgb(0,0,0);font-family:URWPalladioL-Roma;font-size:8.97px;stroke:none;">]</text>
   <text y="676.351" x="76.535,81.018,83.26050000000001,98.05,103.135,107.516,112.839,117.924,120.16650000000001,122.734,125.78,128.066,133.005,135.291,137.5335,140.248,147.858,152.238,154.4805,157.04,162.152,164.439,168.692,170.978,173.22050000000002,175.935,181.523,184.185,189.699,191.94150000000002,194.501,199.613,201.9,209.5,211.786,214.0285,216.734,223.813,229.328,231.5705,234.139,239.242,241.528,246.632,248.918,251.1605,253.866,259.454,262.115,264.3575,266.926,274.005,276.291,283.48,285.7225,288.29,293.092,298.607,304.103,309.6,314.594,318.206,321.188,325.568,331.0397,333.681,337.741,342.314,345.296,349.869,352.53,357.615,361.493,364.474,368.2414,370.876,375.934,380.507,384.385,388.765,394.2367,396.868,401.862,407.06460000000004,409.709,412.371,416.943,422.028,426.409,429.866,434.247,439.7187,442.35,447.938,452.932,458.447,463.504,466.166,470.4716,473.071,478.393,483.479,489.067,492.524,497.517,502.236,504.898,510.486,514.867" svgx:width="0.5,0.25,0.55,0.56,0.48,0.58,0.56,0.25,0.55,0.33,0.25,0.61,0.25,0.25,0.55,0.83,0.48,0.25,0.55,0.67,0.25,0.56,0.25,0.25,0.55,0.61,0.29,0.6,0.25,0.55,0.67,0.25,0.83,0.25,0.25,0.55,0.77,0.6,0.25,0.55,0.67,0.25,0.67,0.25,0.25,0.55,0.61,0.29,0.25,0.55,0.77,0.25,0.79,0.25,0.55,0.52,0.6,0.6,0.6,0.55,0.4,0.33,0.48,0.61,0.55,0.44,0.5,0.33,0.5,0.29,0.56,0.42,0.33,0.42,0.55,0.55,0.5,0.42,0.48,0.61,0.55,0.55,0.58,0.55,0.29,0.5,0.56,0.48,0.4,0.48,0.61,0.55,0.61,0.55,0.6,0.55,0.29,0.48,0.55,0.58,0.56,0.61,0.4,0.55,0.52,0.29,0.61,0.48,0.42" style="fill:rgb(0,0,0);font-family:URWPalladioL-Roma;font-size:8.97px;stroke:none;">2. Feng, J.T.; He, Y.F.; Liu, Y.N.; Du, Y.Y.; Li, D.Q. Supported catalysts based on layered double hydroxides</text>
   <text y="689.263" x="98.05,101.096,106.089,109.67699999999999,112.884,116.945,121.518,124.499,129.072,131.734,136.819,139.8,142.462,146.40879999999999,149.705,154.699,159.418,162.079,167.667,172.24,175.222,177.883,182.877,188.0796,191.382,195.955,201.278,206.7497,210.058,215.381,220.466,226.054,229.502,234.495,239.58,243.961,249.284,253.857,256.838,259.5,264.493,269.816,272.0585,277.123,284.102,288.482,293.805,298.186,301.798,306.371,308.97229999999996,312.215,315.261,320.776,326.099,330.159,333.141,335.802,340.796,346.119,350.692,353.353,356.014,358.996,364.01919999999996,367.264,371.836,377.159,382.6307,385.93,391.427,394.884,399.877,407.953,410.614,414.492,417.154,422.476,427.4992,430.744,435.317,440.814,446.31,448.971,451.633,455.694,460.266,463.248,465.909,470.903,476.10560000000004,479.408,484.905,488.353,493.347,497.224,502.721,507.102,511.162,514.144,518.022" svgx:width="0.33,0.55,0.4,0.55,0.44,0.5,0.33,0.5,0.29,0.56,0.33,0.29,0.44,0.55,0.55,0.52,0.29,0.61,0.5,0.33,0.29,0.55,0.58,0.55,0.5,0.58,0.61,0.55,0.58,0.56,0.61,0.4,0.55,0.56,0.48,0.58,0.5,0.33,0.29,0.55,0.58,0.25,0.55,0.76,0.48,0.58,0.48,0.4,0.5,0.29,0.55,0.33,0.6,0.58,0.44,0.33,0.29,0.55,0.58,0.5,0.29,0.29,0.33,0.56,0.55,0.5,0.58,0.61,0.55,0.6,0.4,0.55,0.88,0.29,0.42,0.29,0.58,0.56,0.55,0.5,0.6,0.6,0.29,0.29,0.44,0.5,0.33,0.29,0.55,0.58,0.55,0.6,0.4,0.55,0.42,0.6,0.48,0.44,0.33,0.42,0.25" style="fill:rgb(0,0,0);font-family:URWPalladioL-Roma;font-size:8.97px;stroke:none;">for catalytic oxidation and hydrogenation: General functionality and promising application prospects.</text>
   <text y="702.174" x="97.755,103.736,108.219,111.707,118.683,120.92550000000001,124.062,129.048,133.029,136.678,138.9205,142.058,148.039,151.527,155.517" svgx:width="0.67,0.5,0.39,0.78,0.25,0.55,0.56,0.44,0.41,0.25,0.55,0.67,0.39,0.5,0.25" style="fill:rgb(0,0,0);font-family:URWPalladioL-Ital;font-size:8.97px;stroke:none;">Chem. Soc. Rev.</text>
   <text y="702.174" x="159.999,164.482,168.965,173.449" svgx:width="0.5,0.5,0.5,0.5" style="fill:rgb(0,0,0);font-family:URWPalladioL-Bold;font-size:8.97px;stroke:none;">2015</text>
   <text y="702.174" x="177.931" svgx:width="0.25" style="fill:rgb(0,0,0);font-family:URWPalladioL-Roma;font-size:8.97px;stroke:none;">,</text>
   <text y="702.174" x="182.415,186.898" svgx:width="0.5,0.5" style="fill:rgb(0,0,0);font-family:URWPalladioL-Ital;font-size:8.97px;stroke:none;">44</text>
   <text y="702.174" x="191.381,193.6235,195.864,200.347,204.831,209.314,213.797,218.28,222.763,227.247,231.73,236.213,238.4555,241.593" svgx:width="0.25,0.55,0.5,0.5,0.5,0.5,0.5,0.5,0.5,0.5,0.5,0.25,0.55,0.33" style="fill:rgb(0,0,0);font-family:URWPalladioL-Roma;font-size:8.97px;stroke:none;">, 5291–5319. [</text>
   <text y="702.174" x="244.579,250.936,254.316,259.212,263.014,266.815,272.805,277.1" svgx:width="0.71,0.4,0.55,0.42,0.42,0.67,0.48,0.33" style="fill:rgb(8,117,183);font-family:URWPalladioL-Roma;font-size:8.97px;stroke:none;">CrossRef</text>
   <text y="702.174" x="280.086,283.0461,285.313" svgx:width="0.33,0.55,0.33" style="fill:rgb(0,0,0);font-family:URWPalladioL-Roma;font-size:8.97px;stroke:none;">] [</text>
   <text y="702.174" x="288.299,293.715,299.121,304.08,312.562,316.857" svgx:width="0.6,0.6,0.55,0.95,0.48,0.61" style="fill:rgb(8,117,183);font-family:URWPalladioL-Roma;font-size:8.97px;stroke:none;">PubMed</text>
   <text y="702.174" x="322.335" svgx:width="0.33" style="fill:rgb(0,0,0);font-family:URWPalladioL-Roma;font-size:8.97px;stroke:none;">]</text>
   <text y="715.086" x="76.535,81.018,83.26050000000001,98.05,105.087,110.051,115.534,117.77650000000001,120.034,125.108,127.381,132.936,135.209,137.4515,139.718,145.783,151.074,155.62,160.912,165.967,168.20950000000002,170.467,175.24,177.513,182.423,184.696,186.9385,189.206,194.697,199.243,204.535,206.7775,209.035,213.945,216.218,218.4605,220.727,226.792,232.274,234.5165,236.775,241.548,243.821,252.422,254.695,256.9375,259.204,265.269,270.56,275.524,281.007,283.2495,285.507,292.581,294.854,303.118,305.391,307.6335,309.901,315.393,320.875,323.1175,325.385,333.985,336.258,338.5005,340.759,346.005,350.551,355.842,358.0845,360.343,367.907,370.18,372.4225,374.69,382.254,386.8,392.092,394.3345,396.592,399.62,401.893,407.448,409.721,411.9635,414.231,422.495,426.85,429.496,431.7385,433.997,442.598,444.871,447.1135,449.38,454.935,460.072,464.618,469.91,473.765,476.0075,478.265,485.302,487.575,494.512,496.785,499.02750000000003,501.295,505.65,508.6101,510.841,515.387,518.033" svgx:width="0.5,0.25,0.55,0.77,0.55,0.6,0.25,0.55,0.67,0.25,0.61,0.25,0.25,0.55,0.67,0.58,0.5,0.58,0.56,0.25,0.55,0.52,0.25,0.61,0.25,0.25,0.55,0.6,0.5,0.58,0.25,0.55,0.61,0.25,0.25,0.55,0.67,0.6,0.25,0.55,0.52,0.25,0.95,0.25,0.25,0.55,0.67,0.58,0.55,0.6,0.25,0.55,0.78,0.25,1.0,0.25,0.25,0.55,0.6,0.6,0.25,0.55,0.95,0.25,0.25,0.55,0.67,0.5,0.58,0.25,0.55,0.83,0.25,0.25,0.55,0.83,0.5,0.58,0.25,0.55,0.33,0.25,0.61,0.25,0.25,0.55,1.0,0.48,0.29,0.25,0.55,0.95,0.25,0.25,0.55,0.61,0.56,0.5,0.58,0.42,0.25,0.55,0.77,0.25,0.76,0.25,0.25,0.55,0.48,0.33,0.55,0.5,0.29,0.25" style="fill:rgb(0,0,0);font-family:URWPalladioL-Roma;font-size:8.97px;stroke:none;">3. Dou, Y.B.; Zhang, S.T.; Pan, T.; Xu, S.M.; Zhou, A.W.; Pu, M.; Yan, H.; Han, J.B.; Wei, M.; Evans, D.G.; et al.</text>
   <text y="727.997" x="97.773,102.885,105.547" svgx:width="0.61,0.29,0.79" style="fill:rgb(0,0,0);font-family:URWPalladioL-Roma;font-size:8.97px;stroke:none;">TiO</text>
   <text y="729.789" x="112.735" svgx:width="0.5" style="fill:rgb(0,0,0);font-family:URWPalladioL-Roma;font-size:6.97px;stroke:none;">2</text>
   <text y="727.997" x="119.681,126.4085,129.476,132.137,136.71,141.795,146.176,149.624,154.005,159.4767,162.556,168.144,173.138,178.653,183.71,186.372,190.6776,193.706,199.029,204.114,209.702,213.159,218.153,222.863,225.524,231.113,235.4186,238.457,242.517,247.511,250.959,255.34,258.385,262.263,267.586,271.966,274.628,277.22929999999997,280.253,285.575,290.148,295.471,300.465,304.342,309.839,315.162,319.543,322.99,327.371,331.1384,334.212,341.84,344.501,347.483,352.6856,355.769,358.43,363.003,366.451,371.536,375.917,378.578,383.60119999999995,386.626,391.007,396.33,401.653,406.226,411.549,415.609,419.99,425.4617,428.532,434.029,439.352,444.345,447.327,452.32,456.381,460.954,463.935,468.508,471.17,476.255,479.236,481.898,485.8448,488.921,493.494,497.555,500.537,503.198,508.365,511.027,514.008" svgx:width="0.75,0.55,0.29,0.5,0.56,0.48,0.4,0.48,0.61,0.55,0.61,0.55,0.6,0.55,0.29,0.48,0.55,0.58,0.56,0.61,0.4,0.55,0.52,0.29,0.61,0.48,0.55,0.44,0.55,0.4,0.48,0.33,0.42,0.58,0.48,0.29,0.29,0.55,0.58,0.5,0.58,0.55,0.42,0.6,0.58,0.48,0.4,0.48,0.42,0.55,0.83,0.29,0.33,0.58,0.55,0.29,0.5,0.4,0.56,0.48,0.29,0.56,0.55,0.48,0.58,0.58,0.5,0.58,0.44,0.48,0.61,0.55,0.6,0.58,0.55,0.33,0.55,0.44,0.5,0.33,0.5,0.29,0.56,0.33,0.29,0.44,0.55,0.5,0.44,0.33,0.29,0.56,0.29,0.33,0.56" style="fill:rgb(0,0,0);font-family:URWPalladioL-Roma;font-size:8.97px;stroke:none;">@ layered double hydroxide core-shell nanospheres with largely enhanced photocatalytic activity</text>
   <text y="740.909" x="98.05,100.973,105.869,113.347,117.83,121.21,126.68169999999999,128.93" svgx:width="0.33,0.55,0.83,0.5,0.4,0.61,0.55,0.79" style="fill:rgb(0,0,0);font-family:URWPalladioL-Roma;font-size:8.97px;stroke:none;">toward O</text>
   <text y="742.701" x="135.978" svgx:width="0.5" style="fill:rgb(0,0,0);font-family:URWPalladioL-Roma;font-size:6.97px;stroke:none;">2</text>
   <text y="740.909" x="142.205,147.19,151.485,156.704,160.999,164.54,169.024,171.947,174.556,179.451,184.67" svgx:width="0.56,0.48,0.58,0.48,0.4,0.5,0.33,0.29,0.55,0.58,0.25" style="fill:rgb(0,0,0);font-family:URWPalladioL-Roma;font-size:8.97px;stroke:none;">generation.</text>
   <text y="740.909" x="190.049,196.523,201.006,204.996,207.23850000000002,210.376,215.361,220.346,225.332,228.981,231.967,234.20950000000002,237.347,245.811,249.792,252.778,256.266,259.09" svgx:width="0.72,0.5,0.5,0.25,0.55,0.56,0.56,0.56,0.41,0.33,0.25,0.55,0.94,0.44,0.33,0.39,0.39,0.25" style="fill:rgb(0,0,0);font-family:URWPalladioL-Ital;font-size:8.97px;stroke:none;">Adv. Funct. Mater.</text>
   <text y="740.909" x="264.469,268.952,273.435,277.919" svgx:width="0.5,0.5,0.5,0.5" style="fill:rgb(0,0,0);font-family:URWPalladioL-Bold;font-size:8.97px;stroke:none;">2015</text>
   <text y="740.909" x="282.402" svgx:width="0.25" style="fill:rgb(0,0,0);font-family:URWPalladioL-Roma;font-size:8.97px;stroke:none;">,</text>
   <text y="740.909" x="286.885,291.368" svgx:width="0.5,0.5" style="fill:rgb(0,0,0);font-family:URWPalladioL-Ital;font-size:8.97px;stroke:none;">25</text>
   <text y="740.909" x="295.851,298.0935,300.334,304.817,309.301,313.784,318.267,322.75,327.234,331.717,336.2,340.683,342.9255,346.063" svgx:width="0.25,0.55,0.5,0.5,0.5,0.5,0.5,0.5,0.5,0.5,0.5,0.25,0.55,0.33" style="fill:rgb(0,0,0);font-family:URWPalladioL-Roma;font-size:8.97px;stroke:none;">, 2243–2249. [</text>
   <text y="740.909" x="349.049,355.406,358.786,363.682,367.484,371.285,377.275,381.57" svgx:width="0.71,0.4,0.55,0.42,0.42,0.67,0.48,0.33" style="fill:rgb(8,117,183);font-family:URWPalladioL-Roma;font-size:8.97px;stroke:none;">CrossRef</text>
   <text y="740.909" x="384.556" svgx:width="0.33" style="fill:rgb(0,0,0);font-family:URWPalladioL-Roma;font-size:8.97px;stroke:none;">]</text>
   <text y="753.821" x="76.535,81.018,83.26050000000001,98.05,105.019,109.972,114.263,116.87,119.476,124.367,126.60950000000001,128.855,133.557,135.797,138.0395,140.293,145.766,150.657,153.264,157.062,162.275,166.754,171.734,173.97650000000002,176.222,181.695,183.934,186.1765,188.431,196.904,201.795,207.008,209.928,214.407,219.62,223.911,226.1535,228.399,235.332,237.5745,239.819,247.263,249.87,252.852,257.833,262.13860000000005,264.372,268.349,272.828,275.748,280.226,282.833,287.813,291.611,294.531,298.2984,300.578,306.051,310.341,313.88,316.486,321.547,325.838,331.3097,333.559,336.542,339.919,344.81,354.967,360.181,365.161,370.634,374.011,378.902,381.822,386.3,388.907,392.884,395.491,398.411,402.702,405.684,408.291,410.898,415.878,420.1836,422.417,427.8,431.177,435.468,439.445,444.846,448.384,452.182,457.073,460.611,464.3784,466.658,469.64,474.531,478.119,480.327,485.54,490.52,495.993,499.37,504.261,509.241,513.532" svgx:width="0.5,0.25,0.55,0.78,0.55,0.48,0.29,0.29,0.55,0.25,0.55,0.52,0.25,0.25,0.55,0.61,0.55,0.29,0.42,0.58,0.5,0.56,0.25,0.55,0.61,0.25,0.25,0.55,0.95,0.55,0.58,0.33,0.5,0.58,0.48,0.25,0.55,0.77,0.25,0.55,0.83,0.29,0.33,0.56,0.48,0.55,0.44,0.5,0.33,0.5,0.29,0.56,0.42,0.33,0.42,0.55,0.61,0.48,0.4,0.29,0.56,0.48,0.61,0.55,0.33,0.4,0.55,0.88,0.58,0.56,0.61,0.4,0.55,0.33,0.5,0.29,0.44,0.29,0.33,0.48,0.33,0.29,0.29,0.56,0.48,0.55,0.6,0.4,0.48,0.44,0.6,0.4,0.42,0.55,0.4,0.42,0.55,0.33,0.55,0.4,0.55,0.58,0.56,0.61,0.4,0.55,0.56,0.48,0.58" style="fill:rgb(0,0,0);font-family:URWPalladioL-Roma;font-size:8.97px;stroke:none;">4. Abello, S.; Bolshak, E.; Montane, D. Ni-Fe catalysts derived fromhydrotalcite-like precursors for hydrogen</text>
   <text y="766.732" x="97.781,103.17,106.55,111.446,116.924,122.331,126.312,129.235,131.844,136.74,141.9426,144.2,149.158,154.1812,156.385,160.68,163.603,168.822,173.305,178.523,183.419,186.02030000000002,188.27,192.072,194.995,199.29,203.773,213.932,217.312,221.607,224.593,229.488,233.03,240.948,243.557,248.775,253.76" svgx:width="0.6,0.4,0.55,0.61,0.6,0.44,0.33,0.29,0.55,0.58,0.55,0.55,0.56,0.55,0.48,0.33,0.58,0.5,0.58,0.55,0.29,0.55,0.42,0.33,0.48,0.5,0.88,0.4,0.48,0.33,0.55,0.4,0.88,0.29,0.58,0.56,0.25" style="fill:rgb(0,0,0);font-family:URWPalladioL-Roma;font-size:8.97px;stroke:none;">production by ethanol steamreforming.</text>
   <text y="766.732" x="259.139,265.613,270.096,274.579,277.072,279.3145,282.452,288.432,292.413,295.399,299.38,301.873,304.1155,307.253,311.234,314.22,320.693,324.181,329.167" svgx:width="0.72,0.5,0.5,0.28,0.25,0.55,0.67,0.44,0.33,0.44,0.28,0.25,0.55,0.44,0.33,0.72,0.39,0.56,0.25" style="fill:rgb(0,0,0);font-family:URWPalladioL-Ital;font-size:8.97px;stroke:none;">Appl. Catal. a-Gen.</text>
   <text y="766.732" x="334.545,339.028,343.511,347.995" svgx:width="0.5,0.5,0.5,0.5" style="fill:rgb(0,0,0);font-family:URWPalladioL-Bold;font-size:8.97px;stroke:none;">2013</text>
   <text y="766.732" x="352.478" svgx:width="0.25" style="fill:rgb(0,0,0);font-family:URWPalladioL-Roma;font-size:8.97px;stroke:none;">,</text>
   <text y="766.732" x="356.961,361.444,365.927" svgx:width="0.5,0.5,0.5" style="fill:rgb(0,0,0);font-family:URWPalladioL-Ital;font-size:8.97px;stroke:none;">450</text>
   <text y="766.732" x="370.411,372.6535,374.894,379.377,383.861,388.344,392.827,397.31,401.794,406.277,408.5195,411.657" svgx:width="0.25,0.55,0.5,0.5,0.5,0.5,0.5,0.5,0.5,0.25,0.55,0.33" style="fill:rgb(0,0,0);font-family:URWPalladioL-Roma;font-size:8.97px;stroke:none;">, 261–274. [</text>
   <text y="766.732" x="414.642,421.0,424.38,429.276,433.077,436.879,442.869,447.164" svgx:width="0.71,0.4,0.55,0.42,0.42,0.67,0.48,0.33" style="fill:rgb(8,117,183);font-family:URWPalladioL-Roma;font-size:8.97px;stroke:none;">CrossRef</text>
   <text y="766.732" x="450.149" svgx:width="0.33" style="fill:rgb(0,0,0);font-family:URWPalladioL-Roma;font-size:8.97px;stroke:none;">]</text>
  </g>
 </g>
</svg>
