<?xml version="1.0" encoding="UTF-8"?>
<svg height="784.327" width="530.535" xmlns="http://www.w3.org/2000/svg">
 <g id="page" xmlns:svgx="http://www.xml-cml.org/schema/svgx">
  <g begin="text">
   <text y="62.979" x="76.535,84.059,87.598,90.252,93.352,96.452,98.668,102.207,104.422" svgx:width="0.94,0.44,0.33,0.39,0.39,0.28,0.44,0.28,0.39" style="fill:rgb(0,0,0);font-family:URWPalladioL-Ital;font-size:7.97px;stroke:none;">Materials</text>
   <text y="62.979" x="109.515,113.5,117.485,121.47" svgx:width="0.5,0.5,0.5,0.5" style="fill:rgb(0,0,0);font-family:URWPalladioL-Bold;font-size:7.97px;stroke:none;">2019</text>
   <text y="62.979" x="125.455" svgx:width="0.25" style="fill:rgb(0,0,0);font-family:URWPalladioL-Roma;font-size:7.97px;stroke:none;">,</text>
   <text y="62.979" x="129.44,133.425" svgx:width="0.5,0.5" style="fill:rgb(0,0,0);font-family:URWPalladioL-Ital;font-size:7.97px;stroke:none;">12</text>
   <text y="62.979" x="137.41,139.4025,141.395,145.38,149.365,153.35,157.335,495.794,499.779,501.772,506.123,508.7531,510.77,514.755" svgx:width="0.25,0.55,0.5,0.5,0.5,0.5,0.55,0.5,0.55,0.55,0.33,0.55,0.5,0.5" style="fill:rgb(0,0,0);font-family:URWPalladioL-Roma;font-size:7.97px;stroke:none;">, 2657 6 of 15</text>
   <text y="96.861" x="176.709,181.694,186.178,191.656,194.642,199.127,201.367,205.85" svgx:width="0.67,0.5,0.61,0.33,0.5,0.55,0.5,0.25" style="fill:rgb(0,0,0);font-family:URWPalladioL-Bold;font-size:8.97px;stroke:none;">Table 2.</text>
   <text y="96.861" x="211.23,216.646,221.129,224.671,229.154,237.071,241.366,244.289,248.584,252.172,254.367,258.851,264.069,269.5407,271.789,276.748,280.128,284.423,288.906,293.891,299.37,304.265,311.743,316.9456,319.203,323.005,325.928,329.309,333.603,338.822,343.807,346.73,351.93260000000004,354.19,359.086,362.0461,364.313,369.702,374.598,377.207,382.192,386.487,389.41,394.629,399.614,402.223,406.518,411.737,416.031" svgx:width="0.6,0.5,0.4,0.5,0.88,0.48,0.33,0.48,0.4,0.55,0.5,0.58,0.61,0.55,0.55,0.4,0.48,0.5,0.56,0.61,0.55,0.83,0.58,0.55,0.42,0.33,0.4,0.48,0.58,0.56,0.33,0.58,0.55,0.55,0.33,0.55,0.6,0.55,0.29,0.56,0.48,0.33,0.58,0.56,0.29,0.48,0.58,0.48,0.25" style="fill:rgb(0,0,0);font-family:URWPalladioL-Roma;font-size:8.97px;stroke:none;">Parameter and breakdown strength of polyethylene.</text>
  </g>
  <path style="fill:none;stroke:rgb(0,0,0);stroke-width:1.0;" d="M90.94 107.08 L504.34 107.08 "/>
  <g begin="text">
   <text y="117.941" x="125.606,134.572,139.056,142.041,146.525,150.013,152.998,157.482,160.4421,212.741,218.22,223.698,228.182,233.66,238.145,240.385,245.863,250.347,253.834,258.318,266.289,270.772,273.758,278.241,281.73929999999996,310.493,316.967,322.445,326.929,330.417,334.9,338.881,341.867,346.35,349.838,352.824,356.805,359.79,362.776,366.7228,368.999,374.979,378.467,382.951,387.434,392.912,398.391,403.376,410.845,416.3167,418.565,424.044,427.03,430.517,435.001,440.479,445.464,448.45,453.9217,456.17,459.156,464.635" svgx:width="1.0,0.5,0.33,0.5,0.39,0.33,0.5,0.33,0.55,0.61,0.61,0.5,0.61,0.5,0.55,0.61,0.5,0.39,0.5,0.89,0.5,0.33,0.5,0.39,0.55,0.72,0.61,0.5,0.39,0.5,0.44,0.33,0.5,0.39,0.33,0.44,0.33,0.33,0.44,0.55,0.67,0.39,0.5,0.5,0.61,0.61,0.56,0.83,0.61,0.55,0.61,0.33,0.39,0.5,0.61,0.56,0.33,0.61,0.55,0.33,0.61,0.78" style="fill:rgb(0,0,0);font-family:URWPalladioL-Bold;font-size:8.97px;stroke:none;">Material Shape Parameter Characteristic Breakdown Strength (kV</text>
   <text y="117.941" x="471.61" svgx:width="0.29" style="fill:rgb(0,0,0);font-family:Rpxb;font-size:8.97px;stroke:none;">/</text>
   <text y="117.941" x="474.255,482.226,490.197" svgx:width="0.89,0.89,0.33" style="fill:rgb(0,0,0);font-family:URWPalladioL-Bold;font-size:8.97px;stroke:none;">mm)</text>
  </g>
  <path style="fill:none;stroke:rgb(0,0,0);stroke-width:0.8;" d="M90.94 123.33 L504.34 123.33 "/>
  <g begin="text">
   <text y="133.939" x="131.38,136.858,143.798,149.214,154.6857,237.148,241.631,243.872,248.356,252.839,257.324,391.755,396.239,400.722,405.205,407.447" svgx:width="0.61,0.77,0.6,0.61,0.55,0.5,0.25,0.5,0.5,0.5,0.55,0.5,0.5,0.5,0.25,0.5" style="fill:rgb(0,0,0);font-family:URWPalladioL-Roma;font-size:8.97px;stroke:none;">LDPE 7.791 328.0</text>
   <text y="145.136" x="128.641,134.119,139.598,146.538,151.954,157.4257,237.152,241.636,243.877,248.36,252.844,257.329,391.751,396.234,400.717,405.201,407.442" svgx:width="0.61,0.61,0.77,0.6,0.61,0.55,0.5,0.25,0.5,0.5,0.5,0.55,0.5,0.5,0.5,0.25,0.5" style="fill:rgb(0,0,0);font-family:URWPalladioL-Roma;font-size:8.97px;stroke:none;">LLDPE 5.277 377.3</text>
   <text y="156.333" x="129.878,138.36,145.3,150.716,156.1877,237.152,241.635,243.877,248.36,252.843,257.328,391.751,396.234,400.717,405.2,407.442" svgx:width="0.95,0.77,0.6,0.61,0.55,0.5,0.25,0.5,0.5,0.5,0.55,0.5,0.5,0.5,0.25,0.5" style="fill:rgb(0,0,0);font-family:URWPalladioL-Roma;font-size:8.97px;stroke:none;">MDPE 6.654 421.7</text>
   <text y="167.53" x="130.389,137.849,144.789,150.205,155.6767,237.152,241.635,243.877,248.36,252.843,257.328,391.751,396.234,400.717,405.2,407.442" svgx:width="0.83,0.77,0.6,0.61,0.55,0.5,0.25,0.5,0.5,0.5,0.55,0.5,0.5,0.5,0.25,0.5" style="fill:rgb(0,0,0);font-family:URWPalladioL-Roma;font-size:8.97px;stroke:none;">HDPE 9.577 452.6</text>
  </g>
  <path style="fill:none;stroke:rgb(0,0,0);stroke-width:0.3;" d="M90.94 173.17 L504.34 173.17 "/>
  <g begin="text">
   <text y="195.787" x="76.535,81.516,84.007,88.988,91.478,94.966,101.611,106.034,111.573,116.555,122.094,126.149,129.466,132.236,137.217,139.987,143.304,148.284,150.776,155.758,159.633,163.508" svgx:width="0.5,0.25,0.5,0.25,0.55,0.67,0.44,0.56,0.5,0.56,0.41,0.33,0.28,0.5,0.28,0.33,0.5,0.55,0.61,0.39,0.39,0.33" style="fill:rgb(0,0,0);font-family:URWPalladioL-Ital;font-size:9.96px;stroke:none;">3.4. Conductivity Test</text>
   <text y="219.0" x="76.535,81.516,84.007,88.988,91.479,96.46,98.94999999999999,102.438,109.501,114.941,120.739,126.826,132.834,137.257,140.505,143.404,148.844,154.6208,157.132,164.196,170.203,174.139,177.894,182.667,188.465,191.7518,194.203,200.31,206.109,210.881,216.32,220.255" svgx:width="0.5,0.25,0.5,0.25,0.5,0.25,0.55,0.71,0.55,0.58,0.61,0.6,0.44,0.33,0.29,0.55,0.58,0.55,0.71,0.6,0.4,0.4,0.48,0.58,0.33,0.55,0.61,0.58,0.48,0.55,0.4,0.56" style="fill:rgb(0,0,0);font-family:URWPalladioL-Roma;font-size:9.96px;stroke:none;">3.4.1. Conduction Current Theory</text>
   <text y="238.487" x="76.207,79.525,84.506,87.7928,90.314,95.524,99.46,104.441,110.429,114.6122,117.143,122.125,127.923,133.9986,136.501,140.725,146.712,151.694,156.117,160.8978,163.38,167.803,173.601,178.583,182.339,187.878" svgx:width="0.33,0.5,0.33,0.55,0.61,0.4,0.5,0.6,0.42,0.55,0.5,0.58,0.61,0.55,0.42,0.6,0.5,0.44,0.48,0.55,0.44,0.58,0.5,0.4,0.56,0.48" style="fill:rgb(0,0,0);font-family:URWPalladioL-Roma;font-size:9.96px;stroke:none;">(a) Traps and space charge</text>
   <text y="257.974" x="97.795,103.872,109.641,114.389,118.126,122.9068,125.362,130.319,134.046,138.8268,141.282,150.035,154.992,160.761,166.33859999999999,168.761,171.645,177.058,181.459,186.415,189.3,192.185,197.141,201.889,207.96460000000002,210.424,214.627,217.859,222.815,226.047,230.795,234.9782,237.486,240.371,246.14780000000002,248.628,251.86,257.629,262.4098,264.855,268.156,273.569,277.484,282.966,285.851,291.907,297.964,302.712,308.48879999999997,310.97,316.451,321.408,327.177,333.25260000000003,335.722,341.233,346.19,352.166,354.625,360.038,363.32480000000004,365.827,369.058,374.828,379.6088,382.054,388.012,393.424,396.309,401.82,410.573,415.321,418.503,420.993,424.471,430.548,436.317,441.065,445.268,450.04879999999997,452.494,455.379,460.791,465.193,470.149,473.034,475.918,480.875,485.623,491.6986,494.168,498.371,501.602,506.559,509.79,514.539" svgx:width="0.61,0.58,0.48,0.4,0.48,0.55,0.5,0.4,0.48,0.55,0.88,0.5,0.58,0.56,0.55,0.29,0.55,0.44,0.5,0.29,0.29,0.5,0.48,0.61,0.55,0.42,0.33,0.5,0.33,0.48,0.42,0.55,0.29,0.58,0.55,0.33,0.58,0.48,0.55,0.33,0.55,0.4,0.55,0.29,0.61,0.61,0.48,0.58,0.55,0.55,0.5,0.58,0.61,0.55,0.56,0.5,0.6,0.55,0.55,0.33,0.55,0.33,0.58,0.48,0.55,0.6,0.55,0.29,0.56,0.88,0.48,0.4,0.25,0.55,0.61,0.58,0.48,0.42,0.48,0.55,0.29,0.55,0.44,0.5,0.29,0.29,0.5,0.48,0.61,0.55,0.42,0.33,0.5,0.33,0.48,0.42" style="fill:rgb(0,0,0);font-family:URWPalladioL-Roma;font-size:9.96px;stroke:none;">There are many localized states in the forbidden band gap of the polymer. These localized states</text>
   <text y="271.483" x="76.535,81.047,86.128,91.9048,94.796,99.308,104.389,110.496,113.809,119.936,123.767,128.5478,131.389,134.701,140.616,145.3968,148.227,152.739,157.82,161.834,165.848,168.805,173.672,177.686,181.8692,184.749,187.706,193.4828,196.374,199.686,205.601,210.3818,213.212,222.185,227.266,230.578,235.446,239.46,242.417,247.498,250.38639999999998,253.209,256.522,262.0,264.824,268.208,273.756,277.77,286.53479999999996,289.487,294.46700000000004,297.322,301.63,307.737,312.818,317.33,322.1108,324.952,329.464,335.378,340.459,344.29,349.94,354.807,357.297,360.162,368.637,374.552,377.509,382.021,387.7978,390.689,395.77,400.281,403.594,407.7772,410.647,415.728,419.9112,422.79,427.77000000000004,430.625,433.938,437.952,443.032,449.14,451.63,455.938,462.167,468.081,472.949,476.79,481.658,485.042,490.59,494.421,499.288,501.778,504.644,507.957,513.871" svgx:width="0.44,0.5,0.58,0.55,0.44,0.5,0.6,0.33,0.6,0.4,0.48,0.55,0.33,0.58,0.48,0.55,0.44,0.5,0.4,0.4,0.29,0.48,0.4,0.42,0.55,0.29,0.58,0.55,0.33,0.58,0.48,0.55,0.88,0.5,0.33,0.48,0.4,0.29,0.5,0.29,0.55,0.33,0.55,0.55,0.33,0.55,0.4,0.88,0.55,0.5,0.55,0.42,0.6,0.5,0.44,0.48,0.55,0.44,0.58,0.5,0.4,0.56,0.48,0.25,0.55,0.83,0.58,0.29,0.44,0.58,0.55,0.5,0.44,0.33,0.42,0.55,0.5,0.42,0.55,0.5,0.55,0.33,0.4,0.5,0.6,0.25,0.55,0.61,0.58,0.48,0.4,0.48,0.33,0.55,0.4,0.48,0.25,0.55,0.33,0.58,0.48" style="fill:rgb(0,0,0);font-family:URWPalladioL-Roma;font-size:9.96px;stroke:none;">can capture the carriers in the material to form a space charge, which acts as a trap. Therefore, the</text>
   <text y="284.992" x="76.535,79.399,84.774,89.144,94.065,96.93,99.794,104.716,109.43,115.5056,117.925,122.098,125.307,130.229,133.438,138.2188,140.643,143.507,147.6902,150.161,155.083,157.947,162.12,167.598,169.975,174.345,179.267,182.131,184.996,189.71,195.78560000000002,198.215,203.195,205.617,208.826,212.714,217.635,223.551,226.041,229.496,234.664,240.579,245.501,249.871,254.6518,257.066,261.437,267.165,272.087,275.798,281.27,286.0508,288.466,291.33,295.5132,297.994,302.167,307.542,316.233,320.948,324.157,327.021,335.712,340.427,344.6102,347.081,350.792,355.507,358.784,363.499,367.387,371.098,375.813,381.8886,384.307,387.516,392.994,395.371,400.292,404.4752,406.956,410.165,414.043,418.975,424.88,430.796,435.511,441.58660000000003,444.015,448.386,454.114,459.036,462.747,468.219,472.934,475.42400000000004,478.879,484.017,487.895,492.817,498.733,502.9162,505.396,510.318,514.029" svgx:width="0.29,0.55,0.44,0.5,0.29,0.29,0.5,0.48,0.61,0.55,0.42,0.33,0.5,0.33,0.48,0.55,0.29,0.42,0.55,0.5,0.29,0.42,0.55,0.55,0.44,0.5,0.29,0.29,0.48,0.61,0.55,0.5,0.55,0.33,0.4,0.5,0.6,0.25,0.55,0.52,0.6,0.5,0.44,0.48,0.55,0.44,0.58,0.5,0.4,0.56,0.48,0.55,0.29,0.42,0.55,0.42,0.55,0.88,0.48,0.33,0.29,0.88,0.48,0.42,0.55,0.4,0.48,0.33,0.48,0.4,0.4,0.48,0.61,0.55,0.33,0.55,0.55,0.5,0.42,0.55,0.33,0.4,0.5,0.6,0.6,0.48,0.61,0.55,0.44,0.58,0.5,0.4,0.56,0.48,0.25,0.55,0.61,0.4,0.5,0.6,0.42,0.55,0.5,0.4,0.48" style="fill:rgb(0,0,0);font-family:URWPalladioL-Roma;font-size:9.96px;stroke:none;">localized state is also called a trap. Space charge is sometimes referred to as trapped charge. Traps are</text>
   <text y="298.502" x="76.535,85.402,90.424,93.346,99.19,102.113,107.6906,110.197,114.656,119.677,125.732,129.99,134.8,140.87560000000002,143.437,148.99,154.5676,157.074,161.533,165.5,171.083,175.341,178.615,183.636,186.52439999999999,189.059,191.981,200.849,206.884,211.694,215.661,219.005,223.815,228.274,231.548,234.47,239.953,245.798,248.288,250.809,255.268,260.289,266.345,270.602,275.413,281.4886,284.049,289.602,295.1796,297.687,301.944,305.218,309.105,315.16,319.619,322.893,328.948,332.915,337.936,340.82439999999997,343.359,349.495,354.305,357.649,362.459,366.918,370.192,374.3752,376.95,382.433,386.417,388.901,391.823,400.69,406.726,412.781,416.748,419.67,422.944,425.866,430.677,434.935,437.425,439.946,445.429,449.41299999999995,451.896,457.449,462.933,466.206,472.051,474.541,478.076,483.339,487.305,492.326,498.362,502.5452,505.12,510.141,513.927" svgx:width="0.88,0.5,0.29,0.58,0.29,0.56,0.55,0.44,0.5,0.6,0.42,0.48,0.61,0.55,0.55,0.56,0.55,0.44,0.4,0.56,0.42,0.33,0.5,0.29,0.55,0.29,0.88,0.6,0.48,0.4,0.33,0.48,0.44,0.33,0.29,0.55,0.58,0.25,0.55,0.44,0.5,0.6,0.42,0.48,0.61,0.55,0.55,0.56,0.55,0.42,0.33,0.4,0.6,0.44,0.33,0.6,0.4,0.5,0.29,0.55,0.61,0.48,0.33,0.48,0.44,0.33,0.42,0.55,0.55,0.4,0.55,0.29,0.88,0.6,0.6,0.4,0.29,0.33,0.29,0.48,0.42,0.25,0.55,0.55,0.4,0.55,0.55,0.55,0.33,0.58,0.25,0.55,0.61,0.4,0.5,0.6,0.42,0.55,0.5,0.4,0.48" style="fill:rgb(0,0,0);font-family:URWPalladioL-Roma;font-size:9.96px;stroke:none;">mainly caused by crystal imperfection, caused by structural defects or impurities, or both. Traps are</text>
   <text y="312.011" x="76.535,80.216,85.547,91.434,96.862,102.545,105.386,110.9636,113.157,119.123,121.964,127.48,130.321,136.287,140.963,147.0386,149.262,152.103,157.786,160.968,166.446,168.642,171.825,179.968,185.446,187.642,190.825,196.253,202.121,206.798,210.937,213.42700000000002,215.751,224.372,229.253,232.094,237.777,240.618,246.19559999999998,248.389,251.641,256.971,260.828,269.449,274.126,280.2016,282.434,287.833,293.41060000000004,295.605,299.745,302.928,306.706,312.593,316.928,320.111,325.998,329.855,334.737,337.6254,339.921,345.886,350.563,353.814,358.491,362.826,366.009,370.1922,372.482,377.812,381.796,384.012,388.347,394.029,398.706,407.327,410.168,414.503,419.385,422.2734,424.569,430.534,435.211,438.462,443.139,447.474,450.657,454.796,457.286,460.674,463.964,467.2508,469.49,472.331,476.5142,478.814,484.243,488.919,494.602,499.278,503.135,508.016,510.858,513.699" svgx:width="0.4,0.55,0.6,0.56,0.58,0.29,0.56,0.55,0.61,0.29,0.56,0.29,0.61,0.48,0.61,0.55,0.29,0.58,0.33,0.55,0.55,0.33,0.83,0.55,0.55,0.33,0.56,0.6,0.48,0.42,0.25,0.55,0.88,0.5,0.29,0.58,0.29,0.56,0.55,0.33,0.55,0.4,0.88,0.48,0.61,0.55,0.55,0.56,0.55,0.42,0.33,0.4,0.6,0.44,0.33,0.6,0.4,0.5,0.29,0.55,0.61,0.48,0.33,0.48,0.44,0.33,0.42,0.55,0.55,0.4,0.55,0.44,0.58,0.48,0.88,0.29,0.44,0.5,0.29,0.55,0.61,0.48,0.33,0.48,0.44,0.33,0.42,0.25,0.55,0.34,0.33,0.55,0.29,0.42,0.55,0.56,0.48,0.58,0.48,0.4,0.5,0.29,0.29,0.56" style="fill:rgb(0,0,0);font-family:URWPalladioL-Roma;font-size:9.96px;stroke:none;">roughly divided into two types, mainly formed by structural defects or chemical defects. It is generally</text>
   <text y="325.521" x="76.535,81.973,86.683,89.544,92.406,97.116,102.671,107.381,113.4566,115.877,119.083,124.806,129.722,133.0088,135.406,141.414,144.275,148.444,152.81,156.517,161.227,164.433,169.2138,171.631,174.836,178.72,183.637,189.547,195.456,198.318,204.041,209.6186,211.986,214.847,219.557,225.113,229.823,232.684,236.8672,239.341,244.258,247.965,252.7458,255.163,260.079,264.249,268.418,273.787,278.153,281.014,285.931,289.136,293.846,299.9216,302.332,310.533,313.394,316.6,322.3768,324.811,329.177,334.899,339.609,348.292,351.153,355.519,360.436,363.32439999999997,365.785,368.646,377.329,383.239,389.168,393.052,395.914,399.119,401.981,406.691,410.8742,413.338,419.346,424.715,430.624,435.335,441.4106,443.83,446.692,452.4688,454.902,458.108,463.831,468.6118,471.019,473.88,478.797,482.002,485.208,488.069,492.435,497.145,499.635,502.091,507.008,512.731" svgx:width="0.55,0.48,0.29,0.29,0.48,0.56,0.48,0.61,0.55,0.33,0.58,0.5,0.33,0.55,0.61,0.29,0.42,0.44,0.4,0.48,0.33,0.48,0.55,0.33,0.4,0.5,0.6,0.6,0.29,0.58,0.56,0.55,0.29,0.48,0.56,0.48,0.29,0.42,0.55,0.5,0.4,0.48,0.55,0.5,0.42,0.42,0.55,0.44,0.29,0.5,0.33,0.48,0.61,0.55,0.83,0.29,0.33,0.58,0.55,0.44,0.58,0.48,0.88,0.29,0.44,0.5,0.29,0.55,0.29,0.88,0.6,0.6,0.4,0.29,0.33,0.29,0.48,0.42,0.55,0.61,0.55,0.6,0.48,0.61,0.55,0.29,0.58,0.55,0.33,0.58,0.48,0.55,0.29,0.5,0.33,0.33,0.29,0.44,0.48,0.25,0.55,0.5,0.58,0.61" style="fill:rgb(0,0,0);font-family:URWPalladioL-Roma;font-size:9.96px;stroke:none;">believed that discrete trapping levels are associated with chemical impurities doped in the lattice, and</text>
   <text y="339.03" x="76.256,81.835,87.842,92.824,97.048,99.947,103.265,107.688,113.128,118.926,122.174,125.073,130.871,136.878,142.318,148.325,152.5082,155.04,158.288,162.223,167.205,173.192,179.18,182.079,187.877,193.4546,195.907,198.806,203.578,209.207,213.979,216.878,221.06119999999999,223.593,228.574,232.33,237.1108,239.593,243.349,248.121,251.02,256.001,259.249,264.021,270.0966,272.599,275.847,281.325,283.777,286.676,295.473,301.461,306.233,310.168,313.485,318.257,322.681,325.929,328.828,334.267,340.066,344.2492,346.78,352.22,355.50680000000006,358.028,362.452,366.387,371.926,376.15,379.398,384.379,387.2674,389.769,393.993,397.241,401.097,407.104,411.527,414.775,420.783,424.539,429.3198,431.801" svgx:width="0.56,0.6,0.5,0.42,0.29,0.33,0.44,0.55,0.58,0.33,0.29,0.58,0.6,0.55,0.6,0.42,0.55,0.33,0.4,0.5,0.6,0.6,0.29,0.58,0.56,0.55,0.29,0.48,0.56,0.48,0.29,0.42,0.55,0.5,0.4,0.48,0.55,0.4,0.48,0.29,0.5,0.33,0.48,0.61,0.55,0.33,0.55,0.55,0.29,0.88,0.6,0.48,0.4,0.33,0.48,0.44,0.33,0.29,0.55,0.58,0.42,0.55,0.55,0.33,0.55,0.44,0.4,0.56,0.42,0.33,0.5,0.29,0.55,0.42,0.33,0.4,0.6,0.44,0.33,0.6,0.4,0.48,0.55,0.33" style="fill:rgb(0,0,0);font-family:URWPalladioL-Roma;font-size:9.96px;stroke:none;">quasi-continuous trapping levels are related to imperfections of crystal structure [</text>
   <text y="339.03" x="435.119,440.1" svgx:width="0.5,0.5" style="fill:rgb(8,117,183);font-family:URWPalladioL-Roma;font-size:9.96px;stroke:none;">25</text>
   <text y="339.03" x="445.081,448.399" svgx:width="0.33,0.25" style="fill:rgb(0,0,0);font-family:URWPalladioL-Roma;font-size:9.96px;stroke:none;">].</text>
   <text y="358.517" x="76.207,79.525,85.034,88.3208,90.842,96.072,102.06,107.041,111.465,116.2458,118.727,123.151,128.949,133.93,137.686,143.225,148.0058,150.488,153.387,156.286,165.083,167.982,171.23,176.002,182.07760000000002,184.58,189.003,195.011,198.946,202.702,207.474,213.272,216.5588,219.011,222.328,227.559,234.622,240.709,247.773" svgx:width="0.33,0.55,0.33,0.55,0.52,0.6,0.5,0.44,0.48,0.55,0.44,0.58,0.5,0.4,0.56,0.48,0.55,0.29,0.29,0.88,0.29,0.33,0.48,0.61,0.55,0.44,0.6,0.4,0.4,0.48,0.58,0.33,0.55,0.33,0.52,0.71,0.61,0.71,0.33" style="fill:rgb(0,0,0);font-family:URWPalladioL-Roma;font-size:9.96px;stroke:none;">(b) Space charge limited current (SCLC)</text>
   <text y="378.004" x="97.795,103.878,109.653,114.4338,116.886,121.292,127.275,131.195,134.936,139.689,145.464,148.699,152.003,157.609,163.027,165.915,169.149,174.111,179.628,184.40879999999999,186.862,191.267,197.042,202.004,205.923,210.885,215.29,218.525,223.278,227.198,230.085,234.292,237.527,240.415,244.82,249.0032,251.508,256.926,260.2128,262.711,265.946,271.721,276.5018,278.965,285.027,287.915,292.668,295.555,300.308,304.714,307.949,311.868,314.756,319.1384,321.642,326.048,331.466,340.228,346.191,349.079,354.6566,357.076,365.352,368.239,371.474,377.25079999999997,379.73,387.529,393.304,402.066,404.825,409.0082,411.513,414.4,419.361,427.6278,430.118,435.079,438.36580000000004,440.795,443.682,449.1,457.3668,459.866,464.619,467.507,472.26,476.665,479.9,483.82,486.707,491.0894,493.593,499.597,504.35,507.237,513.3,517.507" svgx:width="0.61,0.58,0.48,0.55,0.44,0.6,0.4,0.4,0.48,0.58,0.33,0.33,0.56,0.55,0.29,0.33,0.5,0.56,0.48,0.55,0.44,0.58,0.5,0.4,0.5,0.44,0.33,0.48,0.4,0.29,0.42,0.33,0.29,0.44,0.42,0.55,0.55,0.33,0.55,0.33,0.58,0.48,0.55,0.61,0.29,0.48,0.29,0.48,0.44,0.33,0.4,0.29,0.44,0.55,0.44,0.55,0.88,0.6,0.29,0.56,0.55,0.83,0.29,0.33,0.58,0.55,0.79,0.58,0.88,0.28,0.42,0.55,0.29,0.5,0.83,0.55,0.5,0.33,0.55,0.29,0.55,0.83,0.55,0.48,0.29,0.48,0.44,0.33,0.4,0.29,0.44,0.55,0.61,0.48,0.29,0.61,0.42,0.25" style="fill:rgb(0,0,0);font-family:URWPalladioL-Roma;font-size:9.96px;stroke:none;">The current-voltage characteristics of the dielectric comply with Ohm’s law at low electric ﬁelds,</text>
   <text y="391.513" x="76.535,79.446,81.946,86.738,89.238,91.728,94.239,99.241,102.5278,104.992,108.253,114.074,118.8548,121.366,126.897,131.689,137.25,140.161,145.982,151.803,154.714,160.536,166.1136,168.588,174.049,177.3358,179.87,185.882,189.663,194.454,198.695,202.936,208.967,212.918,215.819,220.82,225.822,229.082,231.993,237.454,243.276,245.76600000000002,249.287,259.29,265.111,269.902,275.67879999999997,278.214,281.475,287.297,292.0778,294.578,300.23,305.691,308.602,311.863,316.864,322.425,327.2058,329.717,333.048,338.509,342.493,344.951,349.742,352.652,357.444,361.885,365.146,369.097,372.007,376.3894,378.949,385.0,389.792,392.702,398.7776,401.304,404.215,410.037,413.297,418.089,423.91,428.151,431.062,434.322,439.884,443.17080000000004,445.715,449.486,454.277,459.279,463.72,469.541,474.332,478.5152,481.064,486.04400000000004,488.566,493.007,497.798,501.749,505.01,510.011,512.922" svgx:width="0.29,0.25,0.48,0.25,0.25,0.55,0.5,0.33,0.55,0.33,0.58,0.48,0.55,0.55,0.48,0.56,0.29,0.58,0.58,0.29,0.58,0.56,0.55,0.55,0.33,0.55,0.6,0.4,0.48,0.42,0.42,0.6,0.4,0.29,0.5,0.5,0.33,0.29,0.55,0.58,0.25,0.55,1.0,0.58,0.48,0.58,0.55,0.33,0.58,0.48,0.55,0.56,0.55,0.29,0.33,0.5,0.56,0.48,0.55,0.33,0.55,0.4,0.55,0.48,0.29,0.48,0.44,0.33,0.4,0.29,0.44,0.55,0.61,0.48,0.29,0.61,0.55,0.29,0.58,0.33,0.48,0.58,0.42,0.29,0.33,0.56,0.33,0.55,0.4,0.48,0.5,0.44,0.58,0.48,0.42,0.55,0.5,0.55,0.44,0.48,0.4,0.33,0.5,0.29,0.58" style="fill:rgb(0,0,0);font-family:URWPalladioL-Roma;font-size:9.96px;stroke:none;">i.e., at the beginning of pressurization. When the voltage (or electric ﬁeld intensity) reaches a certain</text>
   <text y="405.023" x="76.256,81.8,86.707,89.563,95.48" svgx:width="0.56,0.5,0.29,0.6,0.48" style="fill:rgb(0,0,0);font-family:URWPalladioL-Roma;font-size:9.96px;stroke:none;">value</text>
   <text y="405.023" x="102.68" svgx:width="0.78" style="fill:rgb(0,0,0);font-family:URWPalladioL-Ital;font-size:9.96px;stroke:none;">U</text>
   <text y="406.842" x="110.409" svgx:width="0.83" style="fill:rgb(0,0,0);font-family:PazoMath;font-size:7.57px;stroke:none;">Ω</text>
   <text y="405.023" x="119.794,123.062,128.42" svgx:width="0.33,0.55,0.4" style="fill:rgb(0,0,0);font-family:URWPalladioL-Roma;font-size:9.96px;stroke:none;">(or</text>
   <text y="405.023" x="134.795" svgx:width="0.61" style="fill:rgb(0,0,0);font-family:URWPalladioL-Ital;font-size:9.96px;stroke:none;">E</text>
   <text y="406.842" x="140.886" svgx:width="0.83" style="fill:rgb(0,0,0);font-family:PazoMath;font-size:7.57px;stroke:none;">Ω</text>
   <text y="405.023" x="147.771,151.039,153.529,155.994,159.194,164.905,169.6858,172.108,176.465,181.823,187.534,191.891,196.591,202.303,205.502,209.378,214.285,217.484,220.339,225.697,231.4738,233.901,239.259,242.54579999999999,245.029,248.228,253.94,258.7208,261.142,263.998,269.709,272.006,276.706,281.063,284.262,288.963,295.03860000000003,297.451,301.808,306.715,310.591,314.467,317.323,322.023,325.899,330.0822,332.563,340.747,343.602,346.458,349.3464,351.816,354.672,360.383,364.74,368.43,373.13,378.037,382.198,386.898,389.38800000000003,391.854,396.76,401.117,405.474,411.392,420.057,425.974,428.83,433.736,436.935,439.791,445.502,451.0796,453.461,458.44100000000003,460.87,463.725,468.632,472.331,477.787,482.5678,484.981,489.887,498.552,503.91,509.827,515.539" svgx:width="0.33,0.25,0.55,0.33,0.58,0.48,0.55,0.44,0.55,0.58,0.44,0.48,0.58,0.33,0.4,0.5,0.33,0.29,0.55,0.58,0.55,0.55,0.33,0.55,0.33,0.58,0.48,0.55,0.29,0.58,0.23,0.48,0.44,0.33,0.48,0.61,0.55,0.44,0.5,0.4,0.4,0.29,0.48,0.4,0.42,0.55,0.83,0.29,0.29,0.29,0.55,0.29,0.58,0.44,0.4,0.48,0.5,0.42,0.48,0.25,0.55,0.5,0.44,0.44,0.6,0.88,0.6,0.29,0.5,0.33,0.29,0.58,0.56,0.55,0.5,0.55,0.29,0.5,0.4,0.56,0.48,0.55,0.5,0.88,0.55,0.6,0.58,0.33" style="fill:rgb(0,0,0);font-family:URWPalladioL-Roma;font-size:9.96px;stroke:none;">), the concentration of the injected carriers will increase, accumulating a large amount</text>
   <text y="418.532" x="76.535,81.893,85.1798,87.644,91.804,97.702,102.609,106.966,111.7468,114.149,118.506,124.217,129.124,132.823,138.279,143.0598,145.463,150.369,156.08,162.15560000000002,164.569,168.926,173.832,179.75,183.911,186.766,192.477,198.0546,200.416,203.615,209.327,214.1078,216.51,220.671,226.568,231.475,235.832,240.6128,243.015,247.372,253.084,257.99,261.69,267.146,271.9268,274.329,277.185,280.04,288.705,291.561,294.76,299.461,305.5366,307.939,312.296,318.213,322.09,325.789,330.49,336.201,339.4,341.89,345.337,348.644,354.4208,356.848,360.047,365.748,368.604,372.7872,375.257,383.442,388.348,392.695,395.185,397.631,400.83,406.542,411.3228,413.735,418.092,424.009,427.885,431.575,436.276,441.987,445.27380000000005,447.679,453.645,459.003,467.187,470.043,475.754,481.33160000000004,483.693,486.892,492.603,496.293,501.651,507.568,513.024" svgx:width="0.55,0.33,0.55,0.42,0.6,0.5,0.44,0.48,0.55,0.44,0.58,0.5,0.4,0.56,0.48,0.55,0.5,0.58,0.61,0.55,0.44,0.5,0.6,0.42,0.29,0.58,0.56,0.55,0.33,0.58,0.48,0.55,0.42,0.6,0.5,0.44,0.48,0.55,0.44,0.58,0.5,0.4,0.56,0.48,0.55,0.29,0.29,0.88,0.29,0.33,0.48,0.61,0.55,0.44,0.6,0.4,0.4,0.48,0.58,0.33,0.25,0.55,0.34,0.58,0.55,0.33,0.58,0.29,0.42,0.55,0.83,0.5,0.56,0.25,0.55,0.33,0.58,0.48,0.55,0.44,0.6,0.4,0.4,0.48,0.58,0.33,0.55,0.61,0.55,0.83,0.29,0.58,0.56,0.55,0.33,0.58,0.4,0.55,0.6,0.56,0.58" style="fill:rgb(0,0,0);font-family:URWPalladioL-Roma;font-size:9.96px;stroke:none;">of space charge and causing the space charge limited current. In this way, the current ﬂowing through</text>
   <text y="432.042" x="76.535,79.848,85.762,90.5428,93.282,99.491,102.448,107.315,110.272,115.14,119.652,122.965,126.978,129.936,134.3184,137.1,140.057,144.2402,147.007,150.32,154.334,159.415,165.329,169.638,173.022,178.57,182.584,191.557,196.425,202.50060000000002,205.286,208.67,212.501,218.049,226.81380000000001,229.674,232.987,238.901,243.6818,246.421,250.252,255.119,260.769,263.726,269.275,275.05179999999996,277.841,283.39,286.6768,289.426,294.974,300.888,309.861,312.818,317.2004,319.982,324.494,330.622,334.636,338.467,343.334,349.249,352.53580000000005,355.214,358.526,364.004,366.727,370.04,375.954,380.7348,383.464,387.305,392.172,397.822,400.779,406.328,412.10479999999995,414.894,420.443,423.7298,426.469,430.777,436.884,441.965,446.477,451.2578,453.997,458.509,464.423,469.504,473.335,478.985,483.7658,486.505,489.462,492.419,501.392,504.349,507.662,512.529" svgx:width="0.33,0.58,0.48,0.55,0.61,0.29,0.48,0.29,0.48,0.44,0.33,0.4,0.29,0.44,0.55,0.29,0.42,0.55,0.33,0.4,0.5,0.58,0.42,0.33,0.55,0.4,0.88,0.48,0.61,0.55,0.33,0.4,0.55,0.88,0.55,0.33,0.58,0.48,0.55,0.4,0.48,0.56,0.29,0.55,0.58,0.55,0.55,0.33,0.55,0.55,0.58,0.88,0.29,0.44,0.55,0.44,0.6,0.4,0.4,0.48,0.58,0.33,0.55,0.33,0.55,0.55,0.33,0.58,0.48,0.55,0.4,0.48,0.56,0.29,0.55,0.58,0.55,0.55,0.33,0.55,0.42,0.6,0.5,0.44,0.48,0.55,0.44,0.58,0.5,0.4,0.56,0.48,0.55,0.29,0.29,0.88,0.29,0.33,0.48,0.61" style="fill:rgb(0,0,0);font-family:URWPalladioL-Roma;font-size:9.96px;stroke:none;">the dielectric is transformed from the region of ohmic current to the region of space charge limited</text>
   <text y="445.551" x="76.535,80.985,87.028,90.987,94.766,99.566,105.399,108.667,111.157,114.68,124.703,130.536,135.336,141.11280000000002,143.665,146.932,152.765,157.54579999999999,160.072,166.135,170.936,173.852,179.9276,182.472,186.721,189.988,193.767,198.567,204.4,209.973,213.24,219.01680000000002,221.569,226.58,232.603,238.627,241.543,244.46,249.261,255.3366,257.88,261.147,266.625,269.125,272.392,278.225,283.0058,285.522,294.371,299.383,302.65,307.451,311.409,314.326,319.337,322.2254,324.749,329.55,334.721,339.171,343.972,348.773,354.896,359.0792,361.642,364.909,370.742,375.5228,378.038,383.581,387.369,392.17,397.181,402.753,408.226,413.888,418.689,422.673,425.143,431.207,436.008,438.924,444.9996,447.543,451.793,455.06,458.839,463.639,469.472,475.045,478.312,484.145,486.635,489.146,494.12600000000003,496.663,499.579,504.591,508.369,513.942" svgx:width="0.44,0.6,0.4,0.4,0.48,0.58,0.33,0.25,0.55,1.0,0.58,0.48,0.58,0.55,0.33,0.58,0.48,0.55,0.61,0.48,0.29,0.61,0.55,0.42,0.33,0.4,0.48,0.58,0.56,0.33,0.58,0.55,0.5,0.6,0.6,0.29,0.29,0.48,0.61,0.55,0.33,0.55,0.55,0.33,0.58,0.48,0.55,0.88,0.5,0.33,0.48,0.4,0.29,0.5,0.29,0.55,0.48,0.52,0.44,0.48,0.48,0.61,0.42,0.55,0.33,0.58,0.48,0.55,0.55,0.4,0.48,0.5,0.56,0.55,0.56,0.48,0.4,0.55,0.61,0.48,0.29,0.61,0.55,0.42,0.33,0.4,0.48,0.58,0.56,0.33,0.58,0.25,0.55,0.5,0.55,0.29,0.5,0.4,0.56,0.48" style="fill:rgb(0,0,0);font-family:URWPalladioL-Roma;font-size:9.96px;stroke:none;">current. When the ﬁeld strength applied to the material exceeds the breakover ﬁeld strength, a large</text>
   <text y="459.06" x="76.535,81.417,85.752,90.087,95.974,104.595,110.482,113.323,118.205,121.388,124.229,129.56,135.3368,137.458,142.789,146.0758,148.257,152.591,157.473,161.33,165.186,168.027,172.704,176.561,180.7442,182.926,187.808,193.49,199.56560000000002,201.672,205.811,211.679,216.561,220.896,225.6768,227.789,232.124,237.806,242.688,246.368,251.797,256.5778,258.69,261.531,264.372,272.993,275.834,279.017,283.694,289.7696,291.875,296.21,302.098,305.954,309.635,314.312,319.994,323.28080000000006,325.393,333.536,336.377,339.218,342.1064,344.275,349.606,353.941,358.276,364.163,368.147,370.246,373.087,378.86379999999997,380.985,384.168,389.851,394.6318,396.744,399.585,405.267,409.407,415.294,418.135,423.017,426.2,429.041,434.371,440.054,442.544,444.769,452.912,458.594,461.435,465.77,471.54679999999996,473.669,482.29,487.172,492.74960000000004,494.816,499.151,504.033,509.92,514.06" svgx:width="0.5,0.44,0.44,0.6,0.88,0.6,0.29,0.5,0.33,0.29,0.55,0.58,0.55,0.55,0.33,0.55,0.44,0.5,0.4,0.4,0.29,0.48,0.4,0.42,0.55,0.5,0.58,0.61,0.55,0.42,0.6,0.5,0.44,0.48,0.55,0.44,0.58,0.5,0.4,0.56,0.48,0.55,0.29,0.29,0.88,0.29,0.33,0.48,0.61,0.55,0.44,0.6,0.4,0.4,0.48,0.58,0.33,0.55,0.83,0.29,0.29,0.29,0.55,0.55,0.44,0.44,0.6,0.4,0.55,0.29,0.58,0.55,0.33,0.58,0.48,0.55,0.29,0.58,0.42,0.6,0.29,0.5,0.33,0.29,0.55,0.58,0.25,0.55,0.83,0.58,0.29,0.44,0.58,0.55,0.88,0.5,0.56,0.55,0.44,0.5,0.6,0.42,0.48" style="fill:rgb(0,0,0);font-family:URWPalladioL-Roma;font-size:9.96px;stroke:none;">accumulation of carriers and space charge limited current will occur in the insulation, which may cause</text>
   <text y="472.57" x="76.256,81.84,86.781,90.685,93.561,98.957,104.916,109.0992,111.607,116.549,122.043,124.919,130.671,136.24859999999998,138.667,143.055,148.451,154.202,160.241,163.117,166.339,169.215,174.611,180.362,184.553,187.043,190.552,196.61,202.362,208.321,212.512,215.002,217.483,220.704,226.456,231.2368,233.7,239.166,242.882,247.616,252.557,258.052,263.448,269.032,273.766,277.75,280.18,285.764,291.16,294.036,297.257,302.199,307.694" svgx:width="0.56,0.5,0.4,0.29,0.55,0.6,0.42,0.55,0.5,0.56,0.29,0.58,0.56,0.55,0.44,0.55,0.58,0.61,0.29,0.33,0.29,0.55,0.58,0.42,0.25,0.55,0.61,0.58,0.6,0.42,0.25,0.55,0.33,0.58,0.48,0.55,0.55,0.4,0.48,0.5,0.56,0.55,0.56,0.48,0.4,0.55,0.56,0.55,0.29,0.33,0.5,0.56,0.48" style="fill:rgb(0,0,0);font-family:URWPalladioL-Roma;font-size:9.96px;stroke:none;">various aging conditions. Thus, the breakover voltage</text>
   <text y="472.57" x="314.927" svgx:width="0.78" style="fill:rgb(0,0,0);font-family:URWPalladioL-Ital;font-size:9.96px;stroke:none;">U</text>
   <text y="474.389" x="322.71" svgx:width="0.83" style="fill:rgb(0,0,0);font-family:PazoMath;font-size:7.57px;stroke:none;">Ω</text>
   <text y="472.57" x="332.098,335.389,340.785,344.769,347.189,351.923,354.799,359.533,363.921,367.143,371.047,373.922,378.30440000000004,380.811,386.79,391.524,394.4,400.4756,402.948,405.824,411.576,414.798,419.532,425.284,429.474,432.35,435.572" svgx:width="0.33,0.55,0.4,0.55,0.48,0.29,0.48,0.44,0.33,0.4,0.29,0.44,0.55,0.61,0.48,0.29,0.61,0.55,0.29,0.58,0.33,0.48,0.58,0.42,0.29,0.33,0.56" style="fill:rgb(0,0,0);font-family:URWPalladioL-Roma;font-size:9.96px;stroke:none;">(or electric ﬁeld intensity</text>
   <text y="472.57" x="443.565" svgx:width="0.61" style="fill:rgb(0,0,0);font-family:URWPalladioL-Ital;font-size:9.96px;stroke:none;">E</text>
   <text y="474.389" x="449.698" svgx:width="0.83" style="fill:rgb(0,0,0);font-family:PazoMath;font-size:7.57px;stroke:none;">Ω</text>
   <text y="472.57" x="456.583,459.86980000000005,462.374,465.25,469.4332,471.941,476.131,481.527,490.254,494.988,498.21,501.086,509.812,514.546" svgx:width="0.33,0.55,0.29,0.42,0.55,0.42,0.55,0.88,0.48,0.33,0.29,0.88,0.48,0.42" style="fill:rgb(0,0,0);font-family:URWPalladioL-Roma;font-size:9.96px;stroke:none;">) is sometimes</text>
   <text y="486.079" x="76.535,80.295,85.072,88.392,93.169,97.108,100.868,105.645,111.72059999999999,114.221,117.472,122.94999999999999,125.401,130.387,134.5702,137.108,140.349,146.153,150.9338,153.423,158.2,161.102,165.879,170.307,173.558,177.497,180.399,184.7814,187.31,193.403,198.18,203.725,207.664,212.65,218.744,223.73,226.981,229.883,235.328,241.1048,243.615,246.866,252.67,256.43,261.207,265.435,271.239,276.684,279.586,285.6616,288.163,293.608,296.89480000000003,299.412,302.663,308.467,313.2478,315.727,321.82,324.722,329.499,332.401,337.178,341.606,344.857,348.796,351.698,356.0804,358.609,367.415,372.401,375.652,380.429,384.368,387.27,392.256,395.158,397.648,400.144,408.462,414.266,417.168,421.595,427.3718,429.883,432.785,436.9682,439.496,442.747,448.551,453.3318,455.811,458.713,464.807,469.583,474.57,477.4584,479.955,484.183,487.085,490.336,496.35,501.336,504.587,507.489,512.934" svgx:width="0.4,0.48,0.33,0.48,0.4,0.4,0.48,0.61,0.55,0.33,0.55,0.55,0.5,0.42,0.55,0.33,0.58,0.48,0.55,0.48,0.29,0.48,0.44,0.33,0.4,0.29,0.44,0.55,0.61,0.48,0.56,0.4,0.5,0.61,0.5,0.33,0.29,0.55,0.58,0.55,0.33,0.58,0.4,0.48,0.42,0.58,0.55,0.29,0.61,0.55,0.55,0.33,0.55,0.33,0.58,0.48,0.55,0.61,0.29,0.48,0.29,0.48,0.44,0.33,0.4,0.29,0.44,0.55,0.88,0.5,0.33,0.48,0.4,0.29,0.5,0.29,0.25,0.55,0.83,0.58,0.29,0.44,0.58,0.55,0.29,0.42,0.55,0.33,0.58,0.48,0.55,0.29,0.61,0.48,0.5,0.29,0.55,0.42,0.29,0.33,0.6,0.5,0.33,0.29,0.55,0.58" style="fill:rgb(0,0,0);font-family:URWPalladioL-Roma;font-size:9.96px;stroke:none;">referred to as the electric degradation threshold of the dielectric material, which is the ideal situation</text>
   <text y="499.589" x="76.117,84.26,87.101,90.284,95.966,101.297,107.184,110.4708,112.778,115.961,119.818,124.699,130.567,134.707,137.197,140.604,146.589,152.271,156.948,160.619,165.3998,167.707,172.589,176.269,181.0498,183.348,186.189,191.871,196.548,202.064,204.905,208.088,212.97,218.369,221.21,226.7876,229.05,234.566,239.448,243.305,246.146,251.476,257.364,261.5472,263.905,267.088,270.945,275.826,281.694,285.8772,288.245,291.496,296.827,300.811,303.086,306.268,311.951,316.7318,319.039,323.921,328.256,331.438,337.326,342.207,345.0954,347.46,353.425,356.267,360.943,363.784,368.461,372.796,375.979,379.835,382.667,387.0494,389.413,398.034,402.916,406.099,410.775,414.632,417.473,422.355,425.196,429.3792,431.747,436.629,440.8122,443.17,451.791,456.468,462.15,465.333,468.174,473.505,479.187,483.864,489.9396,492.241,497.122,502.522,507.852,513.369,518.045" svgx:width="0.83,0.29,0.33,0.58,0.55,0.6,0.33,0.55,0.33,0.4,0.5,0.6,0.42,0.25,0.55,0.61,0.58,0.48,0.4,0.48,0.55,0.5,0.4,0.48,0.55,0.29,0.58,0.48,0.56,0.29,0.33,0.5,0.55,0.29,0.56,0.55,0.56,0.5,0.4,0.29,0.55,0.6,0.42,0.55,0.33,0.4,0.5,0.6,0.42,0.55,0.33,0.55,0.4,0.55,0.33,0.58,0.48,0.55,0.5,0.44,0.33,0.6,0.5,0.29,0.55,0.61,0.29,0.48,0.29,0.48,0.44,0.33,0.4,0.29,0.44,0.55,0.88,0.5,0.33,0.48,0.4,0.29,0.5,0.29,0.42,0.55,0.5,0.42,0.55,0.88,0.48,0.58,0.33,0.29,0.55,0.58,0.48,0.61,0.55,0.5,0.55,0.55,0.56,0.48,0.25" style="fill:rgb(0,0,0);font-family:URWPalladioL-Roma;font-size:9.96px;stroke:none;">without traps. There are inevitably various traps for the actual dielectric materials as mentioned above.</text>
   <text y="513.098" x="76.037,86.199,92.113,96.981,102.75779999999999,105.781,109.094,115.008,119.875,123.706,128.48680000000002,131.46,136.541,140.372,145.1528,148.115,151.428,155.442,160.523,166.63,170.939,173.429,176.467,179.779,185.694,190.4748,193.437,196.75,200.764,205.845,211.952,218.059,221.016,226.93,232.5076,235.466,241.015,244.3018,247.274,250.587,256.501,261.2818,264.255,267.212,273.126,275.504,280.371,284.883,288.196,293.064,299.13960000000003,302.159,306.67,312.585,317.665,321.497,327.147,331.9278,334.89,339.402,344.483,350.61,354.919,359.786,363.9692,366.981,370.294,376.208,380.9888,383.961,389.581,393.412,398.279,403.36,409.01,414.559,420.3,425.168,429.152,432.068,437.799,443.347,446.304,449.617,454.698,460.348,465.1288,468.102,471.414,476.892,479.849,485.468,490.2488,493.211,502.184,508.312,512.824" svgx:width="1.0,0.58,0.48,0.58,0.55,0.33,0.58,0.48,0.4,0.48,0.55,0.5,0.4,0.48,0.55,0.33,0.4,0.5,0.6,0.42,0.25,0.55,0.33,0.58,0.48,0.55,0.33,0.4,0.5,0.6,0.6,0.29,0.58,0.56,0.55,0.55,0.33,0.55,0.33,0.58,0.48,0.55,0.29,0.58,0.23,0.48,0.44,0.33,0.48,0.61,0.55,0.44,0.58,0.5,0.4,0.56,0.48,0.55,0.44,0.5,0.6,0.42,0.48,0.42,0.55,0.33,0.58,0.48,0.55,0.55,0.4,0.48,0.5,0.56,0.55,0.56,0.48,0.4,0.55,0.56,0.55,0.29,0.33,0.5,0.56,0.48,0.55,0.33,0.55,0.55,0.55,0.48,0.55,0.88,0.6,0.44,0.58" style="fill:rgb(0,0,0);font-family:URWPalladioL-Roma;font-size:9.96px;stroke:none;">When there are traps, the trapping of the injected charge causes the breakover voltage to be much</text>
   <text y="526.607" x="76.535,79.492,84.573,88.404,94.054,98.922,102.90599999999999,105.588,108.9,114.815,119.896,125.6728,128.472,136.947,142.861,147.729,153.50580000000002,156.295,159.608,165.522,170.39,174.221,179.0018,181.741,184.698,188.8812,191.659,197.573,203.05100000000002,205.773,209.086,213.1,218.181,224.288,226.77800000000002,229.522,234.603,240.517,246.5926,249.388,252.701,258.615,263.3958,266.135,270.647,276.774,280.788,284.619,289.487,295.401,298.68780000000004,301.366,304.323,308.5062,311.284,320.257,325.338,331.547,336.3278,339.066,343.375,352.348,357.429,360.386,363.343,368.211,371.493,373.983,378.007,385.913,390.0962,392.873,396.186,402.1,406.8808,409.62,415.362,420.91,423.867,427.18,432.261,437.911" svgx:width="0.29,0.5,0.4,0.56,0.48,0.4,0.55,0.33,0.58,0.5,0.58,0.55,0.83,0.58,0.48,0.58,0.55,0.33,0.58,0.48,0.4,0.48,0.55,0.29,0.42,0.55,0.58,0.55,0.55,0.33,0.4,0.5,0.6,0.25,0.55,0.5,0.58,0.61,0.55,0.33,0.58,0.48,0.55,0.44,0.6,0.4,0.4,0.48,0.58,0.33,0.55,0.29,0.42,0.55,0.88,0.5,0.61,0.48,0.55,0.42,0.88,0.5,0.29,0.29,0.48,0.4,0.25,0.55,0.78,0.42,0.55,0.33,0.58,0.48,0.55,0.56,0.55,0.29,0.33,0.5,0.56,0.48" style="fill:rgb(0,0,0);font-family:URWPalladioL-Roma;font-size:9.96px;stroke:none;">larger than when there is no trap, and the current is made smaller. As the voltage</text>
   <text y="526.607" x="445.434" svgx:width="0.78" style="fill:rgb(0,0,0);font-family:URWPalladioL-Ital;font-size:9.96px;stroke:none;">U</text>
   <text y="526.607" x="456.192,461.273,467.38,473.487,476.445,479.402,484.269,490.3446,493.13,496.443,501.921,504.644,507.956,513.871" svgx:width="0.5,0.6,0.6,0.29,0.29,0.48,0.61,0.55,0.33,0.55,0.55,0.33,0.58,0.48" style="fill:rgb(0,0,0);font-family:URWPalladioL-Roma;font-size:9.96px;stroke:none;">applied to the</text>
   <text y="540.117" x="76.535,85.226,90.148,93.357,98.072,101.96,104.824,109.745,112.63340000000001,115.1,117.964,123.693,128.063,131.774,136.489,141.411,145.584,150.299,154.472,156.96200000000002,159.433,162.642,168.371,173.1518,175.576,180.497,189.189,194.563,200.498,206.227,209.5138,211.926,217.3,220.5868,223.078,225.943,231.671,233.975,238.689,243.06,246.268,250.983,257.0586,259.488,263.858,269.587,274.508,278.219,283.692,288.4728,290.897,293.761,299.49,303.86,307.571,312.286,317.207,321.381,326.096,330.269,332.759,335.23,340.151,345.88,351.9556,354.384,357.593,363.322,368.1028,370.527,373.736,377.624,382.545,388.461,392.6442,395.135,397.999,403.7758,406.218,409.427,415.156,419.9368,422.37,431.062,435.983,439.192,443.907,447.795,450.659,455.581,458.4694,460.935,465.857,469.568,474.3488,476.773,482.246,486.134,491.055,497.069,503.005,507.926,510.79,513.655" svgx:width="0.88,0.5,0.33,0.48,0.4,0.29,0.5,0.29,0.55,0.29,0.58,0.44,0.4,0.48,0.5,0.42,0.48,0.42,0.25,0.55,0.33,0.58,0.48,0.55,0.5,0.88,0.55,0.6,0.58,0.33,0.55,0.55,0.33,0.55,0.29,0.58,0.23,0.48,0.44,0.33,0.48,0.61,0.55,0.44,0.58,0.5,0.4,0.56,0.48,0.55,0.29,0.58,0.44,0.4,0.48,0.5,0.42,0.48,0.42,0.25,0.55,0.5,0.58,0.61,0.55,0.33,0.58,0.48,0.55,0.33,0.4,0.5,0.6,0.42,0.55,0.29,0.58,0.55,0.33,0.58,0.48,0.55,0.88,0.5,0.33,0.48,0.4,0.29,0.5,0.29,0.55,0.5,0.4,0.48,0.55,0.56,0.4,0.5,0.61,0.6,0.5,0.29,0.29,0.56" style="fill:rgb(0,0,0);font-family:URWPalladioL-Roma;font-size:9.96px;stroke:none;">material increases, the amount of injected charge increases, and the traps in the material are gradually</text>
   <text y="553.626" x="76.535,82.502,85.372,88.242,92.967,98.993,101.48299999999999,104.96,114.823,120.563,125.288,131.0648,133.523,136.739,142.479,147.2598,149.699,155.271,160.656,163.526,166.742,171.673,177.157,181.9378,184.377,188.095,192.819,197.751,202.13,207.87,212.595,216.7782,219.272,224.25199999999998,226.699,231.078,235.802,239.698,242.914,247.845,250.715,256.4918,258.951,264.523,269.455,272.325,278.272" svgx:width="0.61,0.29,0.29,0.48,0.61,0.25,0.55,1.0,0.58,0.48,0.58,0.55,0.33,0.58,0.48,0.55,0.56,0.55,0.29,0.33,0.5,0.56,0.48,0.55,0.4,0.48,0.5,0.44,0.58,0.48,0.42,0.55,0.5,0.55,0.44,0.48,0.4,0.33,0.5,0.29,0.58,0.55,0.56,0.5,0.29,0.6,0.48" style="fill:rgb(0,0,0);font-family:URWPalladioL-Roma;font-size:9.96px;stroke:none;">ﬁlled. When the voltage reaches a certain value</text>
   <text y="553.626" x="285.487" svgx:width="0.78" style="fill:rgb(0,0,0);font-family:URWPalladioL-Ital;font-size:9.96px;stroke:none;">U</text>
   <text y="555.121" x="293.161" svgx:width="0.78" style="fill:rgb(0,0,0);font-family:URWPalladioL-Ital;font-size:7.57px;stroke:none;">m</text>
   <text y="553.626" x="299.55,302.04,304.511,307.726,313.467,318.2478,320.686,323.902,327.798,332.729,338.657,342.8402,345.334,350.265,353.984,358.7648,361.203,367.171,370.041,372.911,377.635,383.661,386.151,388.622,393.554,399.294,405.3696,407.816,411.031,416.771,421.5518,423.991,426.861,432.602,434.909,439.634,444.013,447.228,451.953,458.0286,460.474,465.199,468.069,472.793,477.172,480.388,484.106,489.491,495.231,499.4142,501.909,510.134,513.005,515.875" svgx:width="0.25,0.55,0.33,0.58,0.48,0.55,0.33,0.4,0.5,0.6,0.42,0.55,0.5,0.4,0.48,0.55,0.61,0.29,0.29,0.48,0.61,0.25,0.55,0.5,0.58,0.61,0.55,0.33,0.58,0.48,0.55,0.29,0.58,0.23,0.48,0.44,0.33,0.48,0.61,0.55,0.48,0.29,0.48,0.44,0.33,0.4,0.55,0.58,0.42,0.55,0.83,0.29,0.29,0.29" style="fill:rgb(0,0,0);font-family:URWPalladioL-Roma;font-size:9.96px;stroke:none;">, the traps are ﬁlled, and the injected electrons will</text>
   <text y="567.136" x="76.535,82.385,87.863,90.367,93.292,98.781,104.631,110.22,115.035,119.01899999999999,121.499,125.962,130.988,137.05,141.302,146.0828,148.61,151.887,155.857,160.884,166.925,172.966,175.892,181.742,187.31959999999998,189.824,194.086,199.56400000000002,202.068,205.345,211.195,216.221,219.5078,221.981,225.258,231.109,235.8898,238.417,242.88,248.941,252.912,256.702,261.517,267.367,270.65380000000005,273.137,276.062,281.8388,284.406,287.683,293.533,298.3138,300.841,303.766,309.617,313.879,319.94,322.866,327.892,331.169,334.094,339.582,345.3588,347.916,350.841,356.691,361.155,364.944,369.759,374.785,379.048,383.863,388.0462,390.618,394.88,400.358,402.861,407.124,412.974,418.0,421.971,428.012,430.937,436.51460000000003,439.019,442.296,448.147,453.173,456.45980000000003,458.933,461.858,465.14480000000003,467.628,470.905,476.967,480.937,486.788,490.9712,493.543,496.82,502.298,504.801,508.078,513.929" svgx:width="0.58,0.55,0.55,0.29,0.55,0.58,0.56,0.48,0.4,0.55,0.44,0.5,0.6,0.42,0.48,0.55,0.33,0.4,0.5,0.6,0.6,0.29,0.58,0.56,0.55,0.42,0.55,0.55,0.33,0.58,0.5,0.33,0.55,0.33,0.58,0.48,0.55,0.44,0.6,0.4,0.4,0.48,0.58,0.33,0.55,0.29,0.58,0.55,0.33,0.58,0.48,0.55,0.29,0.58,0.42,0.6,0.29,0.5,0.33,0.29,0.55,0.58,0.55,0.29,0.58,0.44,0.4,0.48,0.5,0.42,0.48,0.42,0.55,0.42,0.55,0.55,0.42,0.58,0.5,0.4,0.6,0.29,0.56,0.55,0.33,0.58,0.5,0.33,0.55,0.29,0.33,0.55,0.33,0.6,0.4,0.58,0.42,0.55,0.33,0.55,0.55,0.33,0.58,0.48" style="fill:rgb(0,0,0);font-family:URWPalladioL-Roma;font-size:9.96px;stroke:none;">no longer cause trapping so that the current in the insulation increases so sharply that it turns to the</text>
   <text y="580.645" x="76.535,80.366,85.234,90.884,93.841,99.389,105.16579999999999,107.874,113.423,116.7098,119.377,123.686,129.793,134.874,139.386,144.1668,146.825,151.336,157.251,162.332,166.163,171.813,176.5938,179.251,182.208,185.165,194.138,197.095,200.408,205.275,211.35060000000001,214.055,218.567,224.695,228.709,232.55,237.417,243.332,246.6188,249.215,257.69,260.647,263.96,269.874,275.423,281.55,284.83680000000004,287.424,290.737,294.751,299.832,305.939,310.247,312.737,316.517,324.423,327.70980000000003,330.307,333.62,339.534,342.491,346.6742,349.371,352.683,355.64,364.613,369.481,371.971,374.613,377.925,383.84,388.6208,391.278,397.487,402.354,408.269,412.577,415.534,418.847" svgx:width="0.4,0.48,0.56,0.29,0.55,0.58,0.55,0.55,0.33,0.55,0.42,0.6,0.5,0.44,0.48,0.55,0.44,0.58,0.5,0.4,0.56,0.48,0.55,0.29,0.29,0.88,0.29,0.33,0.48,0.61,0.55,0.44,0.6,0.4,0.4,0.48,0.58,0.33,0.55,0.83,0.29,0.33,0.58,0.55,0.6,0.33,0.55,0.33,0.4,0.5,0.6,0.42,0.25,0.55,0.78,0.33,0.55,0.33,0.58,0.29,0.42,0.55,0.33,0.29,0.88,0.48,0.25,0.55,0.33,0.58,0.48,0.55,0.61,0.48,0.58,0.42,0.29,0.33,0.56" style="fill:rgb(0,0,0);font-family:URWPalladioL-Roma;font-size:9.96px;stroke:none;">region of space charge limited current without traps. At this time, the density</text>
   <text y="580.645" x="427.065" svgx:width="0.33" style="fill:rgb(0,0,0);font-family:URWPalladioL-Ital;font-size:9.96px;stroke:none;">J</text>
   <text y="580.645" x="433.268,438.816,442.1028,444.771,448.084,453.998,458.7788,461.437,465.745,471.853,476.934,481.445,486.2258,488.884,493.396,499.31,504.391,508.222,513.872" svgx:width="0.55,0.33,0.55,0.33,0.58,0.48,0.55,0.42,0.6,0.5,0.44,0.48,0.55,0.44,0.58,0.5,0.4,0.56,0.48" style="fill:rgb(0,0,0);font-family:URWPalladioL-Roma;font-size:9.96px;stroke:none;">of the space charge</text>
   <text y="594.154" x="76.535,79.434,82.333,91.13,94.029,97.277,102.049,108.1246,110.627,115.05,121.058,124.993,128.749,133.521,139.319,142.6058,145.058,148.375,153.815,156.714,159.613,165.053,173.361,177.5442,180.076,187.14,192.121,195.02,201.107,205.879,210.552,213.321,217.5042,220.036,222.935,227.917,236.1838,238.716,247.025,249.924,253.172,258.9488,261.461,264.708,268.644,273.625,279.601,282.103,288.131,291.03,293.929,296.828,302.626,308.2036,310.656,316.096,320.08,322.522,330.83,333.729,336.977,342.775,348.215,354.222,357.5088,359.961,363.209,367.144,372.125,378.113,382.337,384.827,387.318,392.3,396.4832,399.014,403.239,409.037,414.476,422.785,428.5618,431.074,433.973,439.7498,442.262,447.801,450.7,456.24,462.247,466.003" svgx:width="0.29,0.29,0.88,0.29,0.33,0.48,0.61,0.55,0.44,0.6,0.4,0.4,0.48,0.58,0.33,0.55,0.33,0.55,0.29,0.29,0.55,0.83,0.42,0.55,0.71,0.5,0.29,0.61,0.48,0.4,0.28,0.42,0.55,0.29,0.5,0.83,0.55,0.83,0.29,0.33,0.58,0.55,0.33,0.4,0.5,0.6,0.55,0.61,0.29,0.29,0.29,0.58,0.56,0.55,0.55,0.4,0.55,0.83,0.29,0.33,0.58,0.55,0.6,0.33,0.55,0.33,0.4,0.5,0.6,0.42,0.25,0.55,0.5,0.42,0.55,0.42,0.58,0.55,0.83,0.58,0.55,0.29,0.58,0.55,0.56,0.29,0.56,0.6,0.4,0.48" style="fill:rgb(0,0,0);font-family:URWPalladioL-Roma;font-size:9.96px;stroke:none;">limited current follows Calder’s law with trap ﬁlling or without traps, as shown in Figure</text>
   <text y="594.154" x="473.266" svgx:width="0.5" style="fill:rgb(8,117,183);font-family:URWPalladioL-Roma;font-size:9.96px;stroke:none;">5</text>
   <text y="594.154" x="480.738" svgx:width="0.33" style="fill:rgb(0,0,0);font-family:URWPalladioL-Roma;font-size:9.96px;stroke:none;">[</text>
   <text y="594.154" x="484.055,489.036" svgx:width="0.5,0.5" style="fill:rgb(8,117,183);font-family:URWPalladioL-Roma;font-size:9.96px;stroke:none;">26</text>
   <text y="594.154" x="494.018,497.335" svgx:width="0.33,0.25" style="fill:rgb(0,0,0);font-family:URWPalladioL-Roma;font-size:9.96px;stroke:none;">].</text>
   <text y="607.664" x="97.795,103.902,109.7,114.4808,116.963,121.735,126.876,132.863,136.619,141.391,145.615,149.84,152.739,158.178,163.9548,166.467,171.907,175.1938,177.715,180.963,186.761,191.5418,194.024,200.111,204.883,210.681,214.905,217.804,221.052,226.62959999999998,229.082,234.522,237.8088,240.33,243.578,249.376,254.1568,256.639,260.863,266.85,271.832,276.255,281.0358,283.518,287.941,293.739,298.721,302.477,308.016,312.7968,315.279,318.178,321.077,329.874,332.773,336.021,340.793,346.8686,349.371,353.794,359.801,363.737,367.493,372.265,378.063,381.3498,383.801,386.701,390.8842,393.415,398.397,402.5802,405.111,408.429,413.869,416.768,419.667,425.106,433.415,437.639" svgx:width="0.61,0.58,0.48,0.55,0.48,0.52,0.6,0.4,0.48,0.42,0.42,0.29,0.55,0.58,0.55,0.55,0.33,0.55,0.33,0.58,0.48,0.55,0.61,0.48,0.58,0.42,0.29,0.33,0.56,0.55,0.55,0.33,0.55,0.33,0.58,0.48,0.55,0.42,0.6,0.5,0.44,0.48,0.55,0.44,0.58,0.5,0.4,0.56,0.48,0.55,0.29,0.29,0.88,0.29,0.33,0.48,0.61,0.55,0.44,0.6,0.4,0.4,0.48,0.58,0.33,0.55,0.29,0.42,0.55,0.5,0.42,0.55,0.33,0.55,0.29,0.29,0.55,0.83,0.42,0.25" style="fill:rgb(0,0,0);font-family:URWPalladioL-Roma;font-size:9.96px;stroke:none;">The expression of the density of the space charge limited current is as follows:</text>
   <text y="638.289" x="259.286" svgx:width="0.33" style="fill:rgb(0,0,0);font-family:URWPalladioL-Ital;font-size:9.96px;stroke:none;">J</text>
   <text y="638.289" x="265.744" svgx:width="0.78" style="fill:rgb(0,0,0);font-family:CMR10;font-size:10.38px;stroke:none;">=</text>
   <text y="623.487" code="32" x="276.706" svgx:width="0.4" style="fill:rgb(0,0,0);font-family:Pxex;font-size:9.96px;stroke:none;">?</text>
   <text y="631.545" x="281.906" svgx:width="0.5" style="fill:rgb(0,0,0);font-family:URWPalladioL-Roma;font-size:9.96px;stroke:none;">9</text>
  </g>
  <path style="fill:none;stroke:rgb(0,0,0);stroke-width:0.8;" d="M281.91 635.59 L286.89 635.59 "/>
  <g begin="text">
   <text y="645.124" x="281.906" svgx:width="0.5" style="fill:rgb(0,0,0);font-family:URWPalladioL-Roma;font-size:9.96px;stroke:none;">8</text>
   <text y="638.289" x="288.083" svgx:width="0.49" style="fill:rgb(0,0,0);font-family:Rpxmi;font-size:9.96px;stroke:none;">ε</text>
   <text y="639.784" x="293.005" svgx:width="0.39" style="fill:rgb(0,0,0);font-family:URWPalladioL-Ital;font-size:7.57px;stroke:none;">r</text>
   <text y="638.289" x="296.448" svgx:width="0.49" style="fill:rgb(0,0,0);font-family:Rpxmi;font-size:9.96px;stroke:none;">ε</text>
   <text y="639.971" x="301.37" svgx:width="0.5" style="fill:rgb(0,0,0);font-family:URWPalladioL-Roma;font-size:7.57px;stroke:none;">0</text>
   <text y="638.289" x="305.654" svgx:width="0.61" style="fill:rgb(0,0,0);font-family:Rpxmi;font-size:9.96px;stroke:none;">µ</text>
   <text y="631.545" x="312.936" svgx:width="0.78" style="fill:rgb(0,0,0);font-family:URWPalladioL-Ital;font-size:9.96px;stroke:none;">U</text>
   <text y="627.928" x="320.886" svgx:width="0.5" style="fill:rgb(0,0,0);font-family:URWPalladioL-Roma;font-size:7.57px;stroke:none;">2</text>
  </g>
  <path style="fill:none;stroke:rgb(0,0,0);stroke-width:0.59;" d="M312.94 635.59 L325.17 635.59 "/>
  <g begin="text">
   <text y="645.722" x="314.421" svgx:width="0.5" style="fill:rgb(0,0,0);font-family:URWPalladioL-Ital;font-size:9.96px;stroke:none;">d</text>
   <text y="642.843" x="319.402" svgx:width="0.5" style="fill:rgb(0,0,0);font-family:URWPalladioL-Roma;font-size:7.57px;stroke:none;">3</text>
   <text y="623.487" code="33" x="326.366" svgx:width="0.4" style="fill:rgb(0,0,0);font-family:Pxex;font-size:9.96px;stroke:none;">?</text>
   <text y="638.289" x="330.371" svgx:width="0.61" style="fill:rgb(0,0,0);font-family:Rpxmi;font-size:9.96px;stroke:none;">θ</text>
   <text y="638.289" x="507.124,510.441,515.423" svgx:width="0.33,0.5,0.33" style="fill:rgb(0,0,0);font-family:URWPalladioL-Roma;font-size:9.96px;stroke:none;">(2)</text>
   <text y="667.639" x="76.117,84.318,90.041,94.751,98.458" svgx:width="0.83,0.58,0.48,0.4,0.48" style="fill:rgb(0,0,0);font-family:URWPalladioL-Roma;font-size:9.96px;stroke:none;">where</text>
   <text y="667.639" x="105.653" svgx:width="0.49" style="fill:rgb(0,0,0);font-family:Rpxmi;font-size:9.96px;stroke:none;">ε</text>
   <text y="669.504" x="110.575" svgx:width="0.5" style="fill:rgb(0,0,0);font-family:URWPalladioL-Roma;font-size:7.57px;stroke:none;">0</text>
   <text y="667.639" x="117.346,120.207,124.3902,126.864,130.07,135.793,140.5738,142.991,148.546,153.463,157.829,163.758,169.688,180.858,186.866,189.727,194.437,197.299,202.009,206.375,209.58,213.464,216.326,220.70839999999998,223.18,227.545,232.914,238.637,242.806,246.012,250.929,256.651,259.857" svgx:width="0.29,0.42,0.55,0.33,0.58,0.48,0.55,0.56,0.5,0.44,0.6,0.6,0.88,0.61,0.29,0.48,0.29,0.48,0.44,0.33,0.4,0.29,0.44,0.55,0.44,0.55,0.58,0.42,0.33,0.5,0.58,0.33,0.25" style="fill:rgb(0,0,0);font-family:URWPalladioL-Roma;font-size:9.96px;stroke:none;">is the vacuumdielectric constant,</text>
   <text y="667.639" x="264.802" svgx:width="0.49" style="fill:rgb(0,0,0);font-family:Rpxmi;font-size:9.96px;stroke:none;">ε</text>
   <text y="669.134" x="269.724" svgx:width="0.39" style="fill:rgb(0,0,0);font-family:URWPalladioL-Ital;font-size:7.57px;stroke:none;">r</text>
   <text y="667.639" x="275.655,278.516,282.6992,285.173,288.379,294.102,298.8828,301.3,305.007,309.717,312.578,317.495,320.7,323.562,329.117,333.8978,336.315,342.323,345.185,349.895,352.756,357.466,361.832,365.038,368.922,371.783,376.16540000000003,378.637,383.003,388.372,394.094,398.264,401.469,406.386,412.109,415.314" svgx:width="0.29,0.42,0.55,0.33,0.58,0.48,0.55,0.4,0.48,0.29,0.5,0.33,0.29,0.56,0.48,0.55,0.61,0.29,0.48,0.29,0.48,0.44,0.33,0.4,0.29,0.44,0.55,0.44,0.55,0.58,0.42,0.33,0.5,0.58,0.33,0.25" style="fill:rgb(0,0,0);font-family:URWPalladioL-Roma;font-size:9.96px;stroke:none;">is the relative dielectric constant,</text>
   <text y="667.639" x="420.257" svgx:width="0.61" style="fill:rgb(0,0,0);font-family:Rpxmi;font-size:9.96px;stroke:none;">µ</text>
   <text y="667.639" x="428.832,431.693,435.8762,438.35,441.556,447.279,452.0598,454.477,460.386,465.096,468.98,477.663,482.373,487.29,492.727,495.589,498.45,501.312,504.517,508.873" svgx:width="0.29,0.42,0.55,0.33,0.58,0.48,0.55,0.6,0.48,0.4,0.88,0.48,0.5,0.55,0.29,0.29,0.29,0.33,0.56,0.25" style="fill:rgb(0,0,0);font-family:URWPalladioL-Roma;font-size:9.96px;stroke:none;">is the permeability,</text>
   <text y="667.639" x="513.824" svgx:width="0.5" style="fill:rgb(0,0,0);font-family:URWPalladioL-Ital;font-size:9.96px;stroke:none;">d</text>
   <text y="681.149" x="76.535,79.376,83.5592,85.927,89.11,94.792,99.5728,101.881,107.846,110.687,115.364,118.205,122.882,127.217,130.399,134.256,137.097,141.4794,143.834,147.017,152.699,155.54,159.875,165.303,170.986,175.662,179.802,183.942" svgx:width="0.29,0.42,0.55,0.33,0.58,0.48,0.55,0.61,0.29,0.48,0.29,0.48,0.44,0.33,0.4,0.29,0.44,0.55,0.33,0.58,0.29,0.44,0.56,0.58,0.48,0.42,0.42,0.25" style="fill:rgb(0,0,0);font-family:URWPalladioL-Roma;font-size:9.96px;stroke:none;">is the dielectric thickness,</text>
   <text y="681.149" x="188.812" svgx:width="0.61" style="fill:rgb(0,0,0);font-family:Rpxmi;font-size:9.96px;stroke:none;">θ</text>
   <text y="681.149" x="197.338,200.179,204.3622,206.73,209.913,215.595,220.3758,222.684,227.019,232.349,238.032,241.214,244.885,250.216,253.1044,255.469,261.337,266.218,270.075,274.957,283.578,288.254,291.437,296.114,300.09799999999996,302.382,307.713,310.99980000000005,313.375,316.558,322.241,327.0218,329.319,332.502,336.358,341.24,347.108" svgx:width="0.29,0.42,0.55,0.33,0.58,0.48,0.55,0.44,0.55,0.58,0.33,0.4,0.55,0.29,0.55,0.6,0.5,0.4,0.5,0.88,0.48,0.33,0.48,0.4,0.55,0.55,0.33,0.55,0.33,0.58,0.48,0.55,0.33,0.4,0.5,0.6,0.25" style="fill:rgb(0,0,0);font-family:URWPalladioL-Roma;font-size:9.96px;stroke:none;">is the control parameter of the trap.</text>
   <text y="681.149" x="353.137" svgx:width="0.79" style="fill:rgb(0,0,0);font-family:PazoMath;font-size:9.96px;stroke:none;">Θ</text>
   <text y="681.149" x="363.502" svgx:width="0.67" style="fill:rgb(0,0,0);font-family:Rpxr;font-size:9.96px;stroke:none;">=</text>
   <text y="681.149" x="372.443" svgx:width="0.56" style="fill:rgb(0,0,0);font-family:URWPalladioL-Ital;font-size:9.96px;stroke:none;">n</text>
   <text y="681.149" x="377.872" svgx:width="0.29" style="fill:rgb(0,0,0);font-family:Rpxr;font-size:9.96px;stroke:none;">/</text>
   <text y="681.149" x="380.674" svgx:width="0.33" style="fill:rgb(0,0,0);font-family:URWPalladioL-Roma;font-size:9.96px;stroke:none;">(</text>
   <text y="681.149" x="383.925" svgx:width="0.56" style="fill:rgb(0,0,0);font-family:URWPalladioL-Ital;font-size:9.96px;stroke:none;">n</text>
   <text y="681.149" x="391.763" svgx:width="0.67" style="fill:rgb(0,0,0);font-family:Rpxr;font-size:9.96px;stroke:none;">+</text>
   <text y="681.149" x="400.704" svgx:width="0.56" style="fill:rgb(0,0,0);font-family:URWPalladioL-Ital;font-size:9.96px;stroke:none;">n</text>
   <text y="682.643" x="406.133" svgx:width="0.33" style="fill:rgb(0,0,0);font-family:URWPalladioL-Ital;font-size:7.57px;stroke:none;">t</text>
   <text y="681.149" x="409.152,412.403,414.89300000000003,417.265,425.408,431.09,433.931,438.266,444.0428,446.36,449.201,453.3842,455.752,458.935,464.618,469.3988,471.706,475.562,480.444,483.627,486.468,491.946,494.21,499.541,502.8278,505.194,508.377,514.059" svgx:width="0.33,0.25,0.55,0.83,0.58,0.29,0.44,0.58,0.55,0.29,0.42,0.55,0.33,0.58,0.48,0.55,0.4,0.5,0.33,0.29,0.55,0.55,0.55,0.33,0.55,0.33,0.58,0.48" style="fill:rgb(0,0,0);font-family:URWPalladioL-Roma;font-size:9.96px;stroke:none;">), which is the ratio of the</text>
   <text y="694.658" x="76.535,79.803,83.502,88.203,92.9838,95.386,99.743,104.65,108.526,112.402,115.258,119.958,123.942,126.327,130.684,136.042,141.743,146.1,150.801,156.512,159.711,163.588,168.494,171.693,174.549,179.907,185.68380000000002,188.111,191.31,196.788,199.15,202.35,208.061,212.8418,215.254,218.453,223.811,227.01,231.917,234.8054,237.255,241.612,246.519,250.395,254.271,257.127,261.827,265.811,268.186,272.543,277.901,283.612,287.969,292.67,298.381,301.58,305.456,310.363,313.562,316.418,321.776,327.487" svgx:width="0.33,0.4,0.48,0.48,0.55,0.44,0.5,0.4,0.4,0.29,0.48,0.4,0.55,0.44,0.55,0.58,0.44,0.48,0.58,0.33,0.4,0.5,0.33,0.29,0.55,0.58,0.55,0.33,0.55,0.55,0.33,0.58,0.48,0.55,0.33,0.55,0.33,0.5,0.29,0.55,0.44,0.5,0.4,0.4,0.29,0.48,0.4,0.55,0.44,0.55,0.58,0.44,0.48,0.58,0.33,0.4,0.5,0.33,0.29,0.55,0.58,0.25" style="fill:rgb(0,0,0);font-family:URWPalladioL-Roma;font-size:9.96px;stroke:none;">free carrier concentration to the total carrier concentration.</text>
   <text y="694.658" x="333.429" svgx:width="0.56" style="fill:rgb(0,0,0);font-family:URWPalladioL-Ital;font-size:9.96px;stroke:none;">n</text>
   <text y="696.152" x="338.885" svgx:width="0.33" style="fill:rgb(0,0,0);font-family:URWPalladioL-Ital;font-size:7.57px;stroke:none;">t</text>
   <text y="694.658" x="344.391,347.247,351.4302,353.89,357.089,362.8,367.5808,369.994,373.193,377.069,381.975,387.873,393.771,398.471,404.5466,406.95,411.307,416.214,420.09,423.966,426.822,431.522,435.506,437.881,442.238,447.596,453.307,457.664,462.365,468.076,471.275,475.151,480.058,483.257,486.113,491.471,497.182,499.672,502.128,507.034,512.746" svgx:width="0.29,0.42,0.55,0.33,0.58,0.48,0.55,0.33,0.4,0.5,0.6,0.6,0.48,0.61,0.55,0.44,0.5,0.4,0.4,0.29,0.48,0.4,0.55,0.44,0.55,0.58,0.44,0.48,0.58,0.33,0.4,0.5,0.33,0.29,0.55,0.58,0.25,0.55,0.5,0.58,0.61" style="fill:rgb(0,0,0);font-family:URWPalladioL-Roma;font-size:9.96px;stroke:none;">is the trapped carrier concentration, and</text>
   <text y="708.168" x="76.535" svgx:width="0.56" style="fill:rgb(0,0,0);font-family:URWPalladioL-Ital;font-size:9.96px;stroke:none;">n</text>
   <text y="708.168" x="84.565,87.464,91.6472,94.179,97.427,103.225,108.0058,110.488,113.805,117.561,122.333,127.1138,129.596,134.019,139.001,142.936,146.871,149.77,154.542,158.526,160.968,165.392,170.831,176.629,181.053,185.825,191.623,194.871,198.806,203.787,207.035,209.934,215.374,221.172,223.662,226.153,230.378,233.277,239.075,243.498" svgx:width="0.29,0.42,0.55,0.33,0.58,0.48,0.55,0.33,0.4,0.48,0.48,0.55,0.44,0.5,0.4,0.4,0.29,0.48,0.4,0.55,0.44,0.55,0.58,0.44,0.48,0.58,0.33,0.4,0.5,0.33,0.29,0.55,0.58,0.25,0.55,0.42,0.29,0.58,0.44,0.48" style="fill:rgb(0,0,0);font-family:URWPalladioL-Roma;font-size:9.96px;stroke:none;">is the free carrier concentration; since</text>
   <text y="708.168" x="250.76" svgx:width="0.56" style="fill:rgb(0,0,0);font-family:URWPalladioL-Ital;font-size:9.96px;stroke:none;">n</text>
   <text y="709.662" x="256.299" svgx:width="0.33" style="fill:rgb(0,0,0);font-family:URWPalladioL-Ital;font-size:7.57px;stroke:none;">t</text>
   <text y="708.168" x="261.809,268.474" svgx:width="0.67,0.67" style="fill:rgb(0,0,0);font-family:Rpxr;font-size:9.96px;stroke:none;">&gt;&gt;</text>
   <text y="708.168" x="277.63" svgx:width="0.56" style="fill:rgb(0,0,0);font-family:URWPalladioL-Ital;font-size:9.96px;stroke:none;">n</text>
   <text y="708.168" x="283.169" svgx:width="0.25" style="fill:rgb(0,0,0);font-family:URWPalladioL-Roma;font-size:9.96px;stroke:none;">,</text>
   <text y="708.168" x="288.15" svgx:width="0.61" style="fill:rgb(0,0,0);font-family:Rpxmi;font-size:9.96px;stroke:none;">θ</text>
   <text y="708.168" x="296.758" svgx:width="0.67" style="fill:rgb(0,0,0);font-family:Pxsy;font-size:9.96px;stroke:none;">≈</text>
   <text y="708.168" x="305.914" svgx:width="0.56" style="fill:rgb(0,0,0);font-family:URWPalladioL-Ital;font-size:9.96px;stroke:none;">n</text>
   <text y="708.168" x="311.453" svgx:width="0.29" style="fill:rgb(0,0,0);font-family:Rpxr;font-size:9.96px;stroke:none;">/</text>
   <text y="708.168" x="314.312" svgx:width="0.56" style="fill:rgb(0,0,0);font-family:URWPalladioL-Ital;font-size:9.96px;stroke:none;">n</text>
   <text y="709.662" x="319.851" svgx:width="0.33" style="fill:rgb(0,0,0);font-family:URWPalladioL-Ital;font-size:7.57px;stroke:none;">t</text>
   <text y="708.168" x="322.871,325.361,327.852,333.86,338.084,344.091,349.073,351.972,354.871" svgx:width="0.25,0.55,0.6,0.42,0.6,0.5,0.29,0.29,0.56" style="fill:rgb(0,0,0);font-family:URWPalladioL-Roma;font-size:9.96px;stroke:none;">, usually</text>
   <text y="708.168" x="362.9" svgx:width="0.61" style="fill:rgb(0,0,0);font-family:Rpxmi;font-size:9.96px;stroke:none;">θ</text>
   <text y="708.168" x="371.508" svgx:width="0.67" style="fill:rgb(0,0,0);font-family:Pxsy;font-size:9.96px;stroke:none;">≤</text>
   <text y="708.168" x="380.663,385.644" svgx:width="0.5,0.5" style="fill:rgb(0,0,0);font-family:URWPalladioL-Roma;font-size:9.96px;stroke:none;">10</text>
   <text y="704.551" x="390.626" svgx:width="0.67" style="fill:rgb(0,0,0);font-family:Pxsy;font-size:7.57px;stroke:none;">−</text>
   <text y="704.551" x="395.691" svgx:width="0.5" style="fill:rgb(0,0,0);font-family:URWPalladioL-Roma;font-size:7.57px;stroke:none;">7</text>
   <text y="708.168" x="402.466" svgx:width="0.33" style="fill:rgb(0,0,0);font-family:URWPalladioL-Roma;font-size:9.96px;stroke:none;">[</text>
   <text y="708.168" x="405.784,410.765" svgx:width="0.5,0.5" style="fill:rgb(8,117,183);font-family:URWPalladioL-Roma;font-size:9.96px;stroke:none;">24</text>
   <text y="708.168" x="415.746,419.064" svgx:width="0.33,0.25" style="fill:rgb(0,0,0);font-family:URWPalladioL-Roma;font-size:9.96px;stroke:none;">].</text>
   <text y="721.677" x="97.795,103.969,109.831,114.6118,117.154,122.724,126.521,131.345,136.382,141.982,147.481,153.172,157.996,161.98000000000002,164.473,170.164,175.663,178.594,181.878,186.914,192.514" svgx:width="0.61,0.58,0.48,0.55,0.55,0.4,0.48,0.5,0.56,0.55,0.56,0.48,0.4,0.55,0.56,0.55,0.29,0.33,0.5,0.56,0.48" style="fill:rgb(0,0,0);font-family:URWPalladioL-Roma;font-size:9.96px;stroke:none;">The breakover voltage</text>
   <text y="721.677" x="199.84" svgx:width="0.78" style="fill:rgb(0,0,0);font-family:URWPalladioL-Ital;font-size:9.96px;stroke:none;">U</text>
   <text y="723.496" x="207.77" svgx:width="0.83" style="fill:rgb(0,0,0);font-family:PazoMath;font-size:7.57px;stroke:none;">Ω</text>
   <text y="721.677" x="217.154,222.653,225.9398,228.505,231.789,237.651,242.4318,244.973,249.244,255.297,260.334,264.806,269.5868,272.128,276.6,282.462,287.498,291.295,296.896,301.6768,304.218,307.149,310.08,318.974,321.905,325.188,330.013,336.0886,338.665,343.137,349.21,353.189,356.996,361.821,367.683,370.9698,373.464,377.936,382.972,388.74879999999996,391.332,396.902,401.6828,404.225,409.049,414.247,420.3,424.097,428.922,433.192,437.463,442.287,448.3626,450.939,455.976,460.1592,462.744,468.898,474.539,480.612,485.648,488.932,491.863,497.362,503.1388,505.722,509.076,514.112,517.466" svgx:width="0.55,0.33,0.55,0.33,0.58,0.48,0.55,0.42,0.6,0.5,0.44,0.48,0.55,0.44,0.58,0.5,0.4,0.56,0.48,0.55,0.29,0.29,0.88,0.29,0.33,0.48,0.61,0.55,0.44,0.6,0.4,0.4,0.48,0.58,0.33,0.55,0.44,0.5,0.58,0.55,0.55,0.48,0.55,0.48,0.52,0.6,0.4,0.48,0.42,0.42,0.48,0.61,0.55,0.5,0.42,0.55,0.61,0.56,0.6,0.5,0.33,0.29,0.55,0.58,0.55,0.33,0.5,0.33,0.25" style="fill:rgb(0,0,0);font-family:URWPalladioL-Roma;font-size:9.96px;stroke:none;">of the space charge limited current can be expressed as Equation (3),</text>
   <text y="735.186" x="76.535,81.516,87.315" svgx:width="0.5,0.58,0.61" style="fill:rgb(0,0,0);font-family:URWPalladioL-Roma;font-size:9.96px;stroke:none;">and</text>
   <text y="735.186" x="95.893" svgx:width="0.56" style="fill:rgb(0,0,0);font-family:URWPalladioL-Ital;font-size:9.96px;stroke:none;">n</text>
   <text y="736.681" x="101.432" svgx:width="0.33" style="fill:rgb(0,0,0);font-family:URWPalladioL-Ital;font-size:7.57px;stroke:none;">t</text>
   <text y="735.186" x="106.942,111.365,116.347,122.12379999999999,124.636,130.145,134.9258,137.408,142.18,147.32,153.308,157.064,161.836,166.06,170.284,175.056,181.13160000000002,183.634,188.615,192.7982,195.33,201.417,206.996,213.004,217.985,221.233,224.132,229.572,235.3488,237.86,241.178,246.159,249.477" svgx:width="0.44,0.5,0.58,0.55,0.55,0.48,0.55,0.48,0.52,0.6,0.4,0.48,0.42,0.42,0.48,0.61,0.55,0.5,0.42,0.55,0.61,0.56,0.6,0.5,0.33,0.29,0.55,0.58,0.55,0.33,0.5,0.33,0.25" style="fill:rgb(0,0,0);font-family:URWPalladioL-Roma;font-size:9.96px;stroke:none;">can be expressed as Equation (4):</text>
   <text y="765.812" x="267.854" svgx:width="0.78" style="fill:rgb(0,0,0);font-family:URWPalladioL-Ital;font-size:9.96px;stroke:none;">U</text>
   <text y="767.631" x="275.699" svgx:width="0.83" style="fill:rgb(0,0,0);font-family:PazoMath;font-size:7.57px;stroke:none;">Ω</text>
   <text y="765.812" x="285.476" svgx:width="0.78" style="fill:rgb(0,0,0);font-family:CMR10;font-size:10.38px;stroke:none;">=</text>
   <text y="759.067" x="300.099" svgx:width="0.5" style="fill:rgb(0,0,0);font-family:URWPalladioL-Roma;font-size:9.96px;stroke:none;">8</text>
   <text y="759.067" x="305.08,308.955,314.495" svgx:width="0.39,0.56,0.5" style="fill:rgb(0,0,0);font-family:URWPalladioL-Ital;font-size:9.96px;stroke:none;">end</text>
   <text y="755.451" x="319.476" svgx:width="0.5" style="fill:rgb(0,0,0);font-family:URWPalladioL-Roma;font-size:7.57px;stroke:none;">2</text>
  </g>
  <path style="fill:none;stroke:rgb(0,0,0);stroke-width:0.59;" d="M297.63 763.11 L326.23 763.11 "/>
  <g begin="text">
   <text y="772.646" x="297.633" svgx:width="0.5" style="fill:rgb(0,0,0);font-family:URWPalladioL-Roma;font-size:9.96px;stroke:none;">9</text>
   <text y="772.646" x="302.614" svgx:width="0.49" style="fill:rgb(0,0,0);font-family:EURM10;font-size:9.96px;stroke:none;">ε</text>
   <text y="774.141" x="307.46" svgx:width="0.39" style="fill:rgb(0,0,0);font-family:URWPalladioL-Ital;font-size:7.57px;stroke:none;">r</text>
   <text y="772.646" x="310.904" svgx:width="0.49" style="fill:rgb(0,0,0);font-family:Rpxmi;font-size:9.96px;stroke:none;">ε</text>
   <text y="774.327" x="315.825" svgx:width="0.5" style="fill:rgb(0,0,0);font-family:URWPalladioL-Roma;font-size:7.57px;stroke:none;">0</text>
   <text y="772.646" x="320.109" svgx:width="0.61" style="fill:rgb(0,0,0);font-family:Rpxmi;font-size:9.96px;stroke:none;">θ</text>
   <text y="765.812" x="507.124,510.441,515.423" svgx:width="0.33,0.5,0.33" style="fill:rgb(0,0,0);font-family:URWPalladioL-Roma;font-size:9.96px;stroke:none;">(3)</text>
  </g>
 </g>
</svg>
