<?xml version="1.0" encoding="UTF-8"?>
<svg height="809.37" width="4486.363" xmlns="http://www.w3.org/2000/svg">
 <g id="page" xmlns:svgx="http://www.xml-cml.org/schema/svgx">
  <path style="fill:rgb(29,120,121);stroke:none;stroke-width:1.0;" d="M76.54 49.3 L110.49 49.3 L110.49 83.25 L76.54 83.25 L76.54 49.3 "/>
  <g begin="text">
   <text y="73.031" x="115.009,134.613,147.211,154.216,165.404,176.592,190.602,197.607,208.794" svgx:width="0.78,0.5,0.28,0.44,0.44,0.56,0.28,0.44,0.39" style="fill:rgb(29,120,121);font-family:TimesNewRomanPS-BoldItalicMT;font-size:25.2px;stroke:none;">molecules</text>
  </g>
  <path style="fill:rgb(148,198,200);stroke:none;stroke-width:1.0;" d="M100.42 67.69 L97.8 69.24 L97.82 70.41 L100.94 68.56 C101.18 68.42 101.26 68.11 101.11 67.86 C100.97 67.63 100.66 67.55 100.42 67.69 ZM107.94 58.49 C107.8 58.25 107.49 58.17 107.25 58.31 L102.72 61.0 C102.69 61.02 102.67 61.03 102.65 61.05 L96.34 57.51 L96.16 52.24 C96.15 51.96 95.92 51.75 95.64 51.76 C95.36 51.77 95.14 52.0 95.15 52.28 L95.33 57.55 C95.33 57.59 95.34 57.63 95.35 57.67 L90.86 60.34 L90.9 61.49 L95.98 58.47 L102.15 61.93 L102.24 69.0 L97.83 71.61 L97.84 72.78 L102.82 69.83 C102.85 69.86 102.88 69.89 102.92 69.91 L107.43 72.62 C107.48 72.65 107.52 72.67 107.57 72.68 C107.78 72.73 108.01 72.65 108.13 72.45 C108.27 72.21 108.2 71.9 107.96 71.76 L103.44 69.04 C103.38 69.0 103.31 68.98 103.25 68.97 L103.16 61.91 C103.19 61.9 103.21 61.89 103.23 61.87 L107.77 59.18 C108.01 59.04 108.09 58.73 107.94 58.49 ZM100.49 63.33 C100.7 63.39 100.94 63.29 101.05 63.09 C101.19 62.85 101.1 62.54 100.86 62.4 L96.25 59.82 C96.01 59.68 95.7 59.77 95.56 60.01 C95.43 60.25 95.51 60.56 95.76 60.7 L100.36 63.28 C100.41 63.31 100.45 63.32 100.49 63.33 "/>
  <path style="fill:rgb(148,198,200);stroke:none;stroke-width:1.0;" d="M89.77 78.43 L83.6 74.97 L83.51 67.9 L89.59 64.29 L95.76 67.75 L95.84 74.82 L89.77 78.43 ZM101.34 77.74 L96.86 75.05 L96.77 67.73 C96.8 67.72 96.82 67.71 96.84 67.7 L101.38 65.01 C101.62 64.86 101.7 64.55 101.55 64.31 C101.41 64.069 101.1 63.99 100.86 64.129 L96.33 66.83 C96.3 66.84 96.28 66.86 96.26 66.87 L89.95 63.33 L89.77 58.07 C89.76 57.79 89.52 57.57 89.25 57.58 C88.97 57.59 88.75 57.82 88.76 58.1 L88.93 63.37 C88.94 63.41 88.94 63.45 88.96 63.49 L82.75 67.18 L82.5 67.62 L82.59 74.98 C82.58 74.98 82.58 74.99 82.58 74.99 L78.05 77.68 C77.81 77.82 77.73 78.13 77.87 78.37 C77.94 78.49 78.05 78.57 78.18 78.6 C78.31 78.64 78.44 78.62 78.56 78.55 L83.1 75.86 C83.1 75.86 83.1 75.85 83.1 75.85 L89.52 79.46 L90.03 79.45 L96.18 75.8 C96.22 75.83 96.25 75.87 96.3 75.89 L100.82 78.61 C100.86 78.64 100.91 78.66 100.95 78.67 C101.16 78.72 101.39 78.64 101.51 78.44 C101.66 78.2 101.58 77.89 101.34 77.74 ZM85.58 68.77 C85.58 68.49 85.35 68.27 85.07 68.27 C84.79 68.27 84.56 68.5 84.57 68.78 L84.63 74.06 C84.63 74.3 84.8 74.49 85.01 74.55 C85.05 74.56 85.1 74.56 85.14 74.56 C85.42 74.56 85.65 74.33 85.64 74.05 L85.58 68.77 ZM94.1 69.15 C94.31 69.21 94.55 69.12 94.66 68.91 C94.8 68.67 94.71 68.36 94.47 68.22 L89.86 65.64 C89.62 65.5 89.31 65.59 89.17 65.83 C89.04 66.07 89.12 66.38 89.37 66.52 L93.97 69.11 C94.01 69.13 94.06 69.14 94.1 69.15 ZM89.49 76.21 C89.25 76.35 89.17 76.66 89.31 76.9 C89.38 77.02 89.49 77.1 89.62 77.13 C89.74 77.16 89.88 77.15 90.0 77.08 L94.54 74.38 C94.78 74.24 94.86 73.93 94.72 73.69 C94.58 73.45 94.27 73.37 94.03 73.51 L89.49 76.21 "/>
  <rect style="stroke:blue;stroke-width:0.3;" x="476.363" y="13.209" height="27.476" width="41.6" title="1"/>
  <text y="13.209" class="image" id="image.1.1" width="41" height="27" x="476.363">image.1.1.476_518.13_41</text>
  <rect style="stroke:blue;stroke-width:0.3;" x="476.363" y="13.209" height="27.476" width="41.6" title="1"/>
  <text y="13.209" class="image" id="image.1.2" width="41" height="27" x="476.363">image.1.2.476_518.13_41</text>
  <rect style="stroke:blue;stroke-width:0.3;" x="476.363" y="13.209" height="27.476" width="41.6" title="1"/>
  <text y="13.209" class="image" id="image.1.3" width="41" height="27" x="476.363">image.1.3.476_518.13_41</text>
  <rect style="stroke:blue;stroke-width:0.3;" x="476.363" y="13.209" height="27.476" width="41.6" title="1"/>
  <text y="13.209" class="image" id="image.1.4" width="41" height="27" x="476.363">image.1.4.476_518.13_41</text>
  <rect style="stroke:blue;stroke-width:0.3;" x="476.363" y="13.209" height="27.476" width="41.6" title="1"/>
  <text y="13.209" class="image" id="image.1.5" width="41" height="27" x="476.363">image.1.5.476_518.13_41</text>
  <rect style="stroke:blue;stroke-width:0.3;" x="476.363" y="13.209" height="27.476" width="41.6" title="1"/>
  <text y="13.209" class="image" id="image.1.6" width="41" height="27" x="476.363">image.1.6.476_518.13_41</text>
  <rect style="stroke:blue;stroke-width:0.3;" x="476.363" y="13.209" height="27.476" width="41.6" title="1"/>
  <text y="13.209" class="image" id="image.1.7" width="41" height="27" x="476.363">image.1.7.476_518.13_41</text>
  <rect style="stroke:blue;stroke-width:0.3;" x="476.363" y="13.209" height="27.476" width="41.6" title="1"/>
  <text y="13.209" class="image" id="image.1.8" width="41" height="27" x="476.363">image.1.8.476_518.13_41</text>
  <g begin="text">
   <text y="108.46" x="76.177,83.37,87.245,90.563,93.333,97.387,100.157" svgx:width="0.72,0.39,0.33,0.28,0.41,0.28,0.39" style="fill:rgb(0,0,0);font-family:URWPalladioL-Ital;font-size:9.96px;stroke:none;">Article</text>
   <text y="127.727" x="76.535,87.492,97.463,108.42,114.391,125.348,134.314,142.277,151.243,159.205,163.6875,168.172,181.119,192.076,201.042,208.018,216.985,224.947,230.918,239.885,246.861,252.832,261.799,270.765,276.737,282.708,292.679,303.636,308.11850000000004,312.602,321.569,332.526,343.4633,347.966,361.918,372.874,378.846,384.818,394.788,403.755,409.726,420.683,429.65,440.607" svgx:width="0.61,0.56,0.61,0.33,0.61,0.5,0.44,0.5,0.44,0.25,0.55,0.72,0.61,0.5,0.39,0.5,0.44,0.33,0.5,0.39,0.33,0.5,0.5,0.33,0.33,0.56,0.61,0.25,0.55,0.5,0.61,0.61,0.55,0.78,0.61,0.33,0.33,0.56,0.5,0.33,0.61,0.5,0.61,0.33" style="fill:rgb(0,0,0);font-family:URWPalladioL-Bold;font-size:17.93px;stroke:none;">Syntheses, Characterization, and Antioxidant</text>
   <text y="149.052" x="76.535,87.492,97.463,106.429,112.401,123.358,132.324,138.296,144.267,154.238,165.1753,169.678,179.649,186.64170000000001,191.108,204.055" svgx:width="0.61,0.56,0.5,0.33,0.61,0.5,0.33,0.33,0.56,0.61,0.55,0.56,0.39,0.55,0.72,0.61" style="fill:rgb(0,0,0);font-family:URWPalladioL-Bold;font-size:17.93px;stroke:none;">Evaluation of Cu</text>
   <text y="142.542" x="215.011" svgx:width="0.5" style="fill:rgb(0,0,0);font-family:URWPalladioL-Bold;font-size:13.63px;stroke:none;">2</text>
   <text y="142.542" x="221.826" svgx:width="0.71" style="fill:rgb(0,0,0);font-family:Rpxb;font-size:13.63px;stroke:none;">+</text>
   <text y="149.052" x="232.014,236.4965,240.98,258.913" svgx:width="0.25,0.55,1.0,0.61" style="fill:rgb(0,0,0);font-family:URWPalladioL-Bold;font-size:17.93px;stroke:none;">, Mn</text>
   <text y="142.542" x="269.87" svgx:width="0.5" style="fill:rgb(0,0,0);font-family:URWPalladioL-Bold;font-size:13.63px;stroke:none;">2</text>
   <text y="142.542" x="276.684" svgx:width="0.71" style="fill:rgb(0,0,0);font-family:Rpxb;font-size:13.63px;stroke:none;">+</text>
   <text y="149.052" x="286.872,291.35450000000003,295.838,304.805,315.762,326.6993,331.202,341.172" svgx:width="0.25,0.55,0.5,0.61,0.61,0.55,0.56,0.5" style="fill:rgb(0,0,0);font-family:URWPalladioL-Bold;font-size:17.93px;stroke:none;">, and Fe</text>
   <text y="142.542" x="350.139" svgx:width="0.5" style="fill:rgb(0,0,0);font-family:URWPalladioL-Bold;font-size:13.63px;stroke:none;">3</text>
   <text y="142.542" x="356.953" svgx:width="0.71" style="fill:rgb(0,0,0);font-family:Rpxb;font-size:13.63px;stroke:none;">+</text>
   <text y="149.052" x="371.625,384.572,394.543,410.485,421.442,427.414,436.38,445.347,454.313,462.2022,466.758,481.697,487.668,493.64,504.5773,509.08" svgx:width="0.72,0.56,0.89,0.61,0.33,0.5,0.5,0.5,0.44,0.55,0.83,0.33,0.33,0.61,0.55,0.5" style="fill:rgb(0,0,0);font-family:URWPalladioL-Bold;font-size:17.93px;stroke:none;">Complexes with a</text>
   <text y="169.316" x="75.639,84.605,93.57000000000001,98.055,115.988,124.954,140.896,151.853,160.82,167.796,176.762,187.6993,192.202,203.159,218.097,228.409,242.36,248.332,263.27,272.236,279.212,285.184,295.154,304.121,315.0583,319.561,337.494,346.46,354.422,361.398,371.369,379.331,389.302,397.264,403.235" svgx:width="0.5,0.5,0.55,1.0,0.5,0.89,0.61,0.5,0.39,0.5,0.61,0.55,0.61,0.83,0.67,0.78,0.33,0.83,0.5,0.39,0.33,0.56,0.5,0.61,0.55,1.0,0.5,0.44,0.39,0.56,0.44,0.56,0.44,0.33,0.5" style="fill:rgb(0,0,0);font-family:URWPalladioL-Bold;font-size:17.93px;stroke:none;">14 Membered EDTA-Derived Macrocycle</text>
   <text y="199.007" x="76.207,82.115,87.096,93.183,96.501,99.818,105.89359999999999,108.396,114.483,120.022,126.11,131.091,134.966,139.948,146.035,151.016" svgx:width="0.67,0.5,0.61,0.33,0.33,0.61,0.55,0.61,0.56,0.61,0.5,0.39,0.5,0.61,0.5,0.44" style="fill:rgb(0,0,0);font-family:URWPalladioL-Bold;font-size:9.96px;stroke:none;">Yedith Soberanes</text>
   <text y="195.391" x="157.93,162.215,164.608" svgx:width="0.5,0.25,0.5" style="fill:rgb(0,0,0);font-family:URWPalladioL-Bold;font-size:7.57px;stroke:none;">1,2</text>
  </g>
  <path style="fill:rgb(179,201,62);stroke:none;stroke-width:1.0;" d="M488.21 73.6 L488.21 67.02 L486.5 73.6 L484.72 73.6 L482.96 67.02 L482.96 73.6 L480.84 73.6 L480.84 64.4 L484.52 64.4 L485.85 69.29 L487.12 64.4 L490.82 64.4 L490.82 73.6 L488.21 73.6 M499.31 72.31 C498.49 73.17 497.42 73.6 496.11 73.6 L492.4 73.6 L492.4 64.4 L495.94 64.4 C497.48 64.4 498.63 64.86 499.39 65.78 C500.16 66.7 500.54 67.75 500.54 68.96 C500.54 70.33 500.13 71.45 499.31 72.31 M497.18 67.22 C496.89 66.73 496.48 66.49 495.95 66.49 L495.21 66.49 L495.21 71.48 L495.95 71.48 C496.41 71.48 496.8 71.25 497.12 70.8 C497.44 70.35 497.6 69.73 497.6 68.95 C497.6 68.28 497.46 67.7 497.18 67.22 M508.61 69.45 C508.0 69.98 507.19 70.25 506.17 70.25 L504.58 70.25 L504.58 73.6 L501.73 73.6 L501.73 64.4 L505.65 64.4 C506.62 64.4 507.36 64.519 507.87 64.739 C508.38 64.97 508.78 65.31 509.08 65.77 C509.38 66.23 509.53 66.75 509.53 67.33 C509.53 68.2 509.22 68.91 508.61 69.45 M505.58 66.49 L504.55 66.49 L504.55 68.29 L505.49 68.29 C506.31 68.29 506.73 67.98 506.73 67.36 C506.73 66.78 506.35 66.49 505.58 66.49 M510.57 73.6 L510.57 64.4 L513.38 64.4 L513.38 73.6 L510.57 73.6 M517.09 75.98 L517.09 62.89 L517.78 62.41 L517.78 76.45 L517.09 75.98 M507.15 82.56 L507.16 81.75 L517.11 75.98 L517.78 76.44 L507.15 82.56 M496.57 76.42 L497.23 75.95 L507.17 81.75 L507.17 82.56 L496.57 76.42 M515.98 75.58 L507.45 80.51 L507.46 79.7 L515.98 74.79 L515.98 75.58 M477.26 75.03 L476.56 75.5 L476.56 61.46 L477.26 61.93 L477.26 75.03 M487.18 56.15 L477.23 61.92 L476.56 61.46 L487.19 55.34 L487.18 56.15 M497.11 61.95 L487.17 56.15 L487.17 55.34 L497.77 61.49 L497.11 61.95 M486.88 58.2 L478.36 63.12 L478.37 62.33 L486.89 57.39 L486.88 58.2 M177.96 194.47 C177.96 196.98 175.93 199.01 173.42 199.01 C170.92 199.01 168.89 196.98 168.89 194.47 C168.89 191.97 170.92 189.94 173.42 189.94 C175.93 189.94 177.96 191.97 177.96 194.47 "/>
  <path style="fill:rgb(255,255,255);stroke:none;stroke-width:1.0;" d="M173.24 193.12 L173.24 196.13 L173.85 196.13 C174.38 196.13 174.79 196.0 175.09 195.73 C175.39 195.46 175.54 195.08 175.54 194.59 C175.54 194.1 175.38 193.74 175.08 193.49 C174.77 193.25 174.37 193.12 173.87 193.12 L173.24 193.12 ZM172.7 196.58 L172.7 192.67 L173.89 192.67 C174.53 192.67 175.05 192.85 175.47 193.19 C175.89 193.54 176.1 194.0 176.1 194.58 C176.1 195.18 175.89 195.67 175.47 196.03 C175.05 196.4 174.51 196.58 173.85 196.58 L172.7 196.58 "/>
  <path style="fill:rgb(255,255,255);stroke:none;stroke-width:1.0;" d="M171.93 196.58 L171.39 196.58 L171.39 192.68 L171.93 192.68 L171.93 196.58 "/>
  <path style="fill:rgb(255,255,255);stroke:none;stroke-width:1.0;" d="M172.02 192.03 C172.02 192.22 171.87 192.38 171.68 192.38 C171.49 192.38 171.34 192.22 171.34 192.03 C171.34 191.85 171.49 191.69 171.68 191.69 C171.87 191.69 172.02 191.85 172.02 192.03 "/>
  <g begin="text">
   <text y="199.007" x="177.96,180.45000000000002,182.941,190.134,195.673,200.097,205.077,207.569,213.656,216.974,221.955,228.042,233.022,235.514,243.813,248.794,254.333,259.315,263.19,267.065" svgx:width="0.25,0.55,0.72,0.56,0.44,0.5,0.55,0.61,0.33,0.5,0.61,0.5,0.55,0.83,0.5,0.56,0.5,0.39,0.39,0.56" style="fill:rgb(0,0,0);font-family:URWPalladioL-Bold;font-size:9.96px;stroke:none;">, Rosa Elena Navarro</text>
   <text y="195.391" x="275.095" svgx:width="0.5" style="fill:rgb(0,0,0);font-family:URWPalladioL-Bold;font-size:7.57px;stroke:none;">1</text>
   <text y="199.007" x="279.379,281.869,284.36,294.323,299.862,303.18,308.719,317.576,320.893,325.317,331.404,334.6908,337.212,341.087,347.175,352.714,358.801" svgx:width="0.25,0.55,1.0,0.56,0.33,0.56,0.89,0.33,0.44,0.61,0.33,0.55,0.39,0.61,0.56,0.61,0.5" style="fill:rgb(0,0,0);font-family:URWPalladioL-Bold;font-size:9.96px;stroke:none;">, Motomichi Inoue</text>
   <text y="195.391" x="366.272" svgx:width="0.5" style="fill:rgb(0,0,0);font-family:URWPalladioL-Bold;font-size:7.57px;stroke:none;">1</text>
   <text y="199.007" x="370.556" svgx:width="0.25" style="fill:rgb(0,0,0);font-family:URWPalladioL-Bold;font-size:9.96px;stroke:none;">,</text>
   <text y="212.516" x="76.535,82.622,88.709,92.585,95.902,101.989,108.077,113.057,115.549,119.982,122.472,124.963,131.608,136.59" svgx:width="0.61,0.61,0.39,0.33,0.61,0.61,0.5,0.55,0.56,0.25,0.55,0.78,0.5,0.33" style="fill:rgb(0,0,0);font-family:URWPalladioL-Bold;font-size:9.96px;stroke:none;">Enrique F. Vel</text>
   <text y="212.516" x="139.907" svgx:width="0.5" style="fill:rgb(0,0,0);font-family:VnURWPalladioL-Bold;font-size:9.96px;stroke:none;">á</text>
   <text y="212.516" x="144.889,149.87,155.957,162.045,167.026,172.007,175.325,182.518,188.057,194.144,197.462,201.337,206.318,210.194,215.175" svgx:width="0.5,0.61,0.61,0.5,0.5,0.33,0.72,0.56,0.61,0.33,0.39,0.5,0.39,0.5,0.44" style="fill:rgb(0,0,0);font-family:URWPalladioL-Bold;font-size:9.96px;stroke:none;">zquez-Contreras</text>
   <text y="208.9" x="222.089" svgx:width="0.5" style="fill:rgb(0,0,0);font-family:URWPalladioL-Bold;font-size:7.57px;stroke:none;">1</text>
  </g>
  <path style="fill:rgb(179,201,62);stroke:none;stroke-width:1.0;" d="M235.44 207.98 C235.44 210.49 233.41 212.52 230.91 212.52 C228.4 212.52 226.37 210.49 226.37 207.98 C226.37 205.48 228.4 203.45 230.91 203.45 C233.41 203.45 235.44 205.48 235.44 207.98 "/>
  <path style="fill:rgb(255,255,255);stroke:none;stroke-width:1.0;" d="M230.72 206.63 L230.72 209.64 L231.33 209.64 C231.86 209.64 232.28 209.51 232.57 209.24 C232.87 208.97 233.02 208.59 233.02 208.1 C233.02 207.61 232.87 207.25 232.56 207.0 C232.25 206.75 231.85 206.63 231.35 206.63 L230.72 206.63 ZM230.18 210.09 L230.18 206.18 L231.38 206.18 C232.01 206.18 232.54 206.36 232.96 206.7 C233.38 207.04 233.59 207.51 233.59 208.09 C233.59 208.69 233.38 209.18 232.96 209.54 C232.54 209.91 231.99 210.09 231.33 210.09 L230.18 210.09 "/>
  <path style="fill:rgb(255,255,255);stroke:none;stroke-width:1.0;" d="M229.41 210.09 L228.87 210.09 L228.87 206.19 L229.41 206.19 L229.41 210.09 "/>
  <path style="fill:rgb(255,255,255);stroke:none;stroke-width:1.0;" d="M229.51 205.54 C229.51 205.73 229.35 205.89 229.16 205.89 C228.98 205.89 228.82 205.73 228.82 205.54 C228.82 205.35 228.98 205.2 229.16 205.2 C229.35 205.2 229.51 205.35 229.51 205.54 "/>
  <g begin="text">
   <text y="212.516" x="235.444,237.934,240.425,250.388,255.369,258.687,262.004,266.428,270.851,275.831,278.323,284.968,289.949,293.267,296.584,300.46,305.441,311.5166,314.019,319.558,325.097,328.973,332.848,337.83" svgx:width="0.25,0.55,1.0,0.5,0.33,0.33,0.44,0.44,0.5,0.55,0.67,0.5,0.33,0.33,0.39,0.5,0.61,0.55,0.67,0.56,0.39,0.39,0.5,0.44" style="fill:rgb(0,0,0);font-family:URWPalladioL-Bold;font-size:9.96px;stroke:none;">, Melissa Beltran Torres</text>
   <text y="208.9" x="344.743" svgx:width="0.5" style="fill:rgb(0,0,0);font-family:URWPalladioL-Bold;font-size:7.57px;stroke:none;">1</text>
   <text y="212.516" x="349.027,351.517,354.008,362.307,368.394,372.818,376.135,381.117,386.656,392.2336,394.686,400.773,406.86,412.399" svgx:width="0.25,0.55,0.83,0.61,0.44,0.33,0.5,0.56,0.56,0.55,0.61,0.61,0.56,0.56" style="fill:rgb(0,0,0);font-family:URWPalladioL-Bold;font-size:9.96px;stroke:none;">, Gustavo Lugo</text>
   <text y="208.9" x="420.429" svgx:width="0.5" style="fill:rgb(0,0,0);font-family:URWPalladioL-Bold;font-size:7.57px;stroke:none;">3</text>
   <text y="212.516" x="424.713" svgx:width="0.25" style="fill:rgb(0,0,0);font-family:URWPalladioL-Bold;font-size:9.96px;stroke:none;">,</text>
   <text y="226.026" x="76.535,83.728,89.267,94.806,99.788,103.663,106.981,112.5586,115.011,122.204,124.69399999999999,127.185,133.272,138.811,142.129,147.11,150.428,155.967,159.284,169.247,175.334,181.421,187.508" svgx:width="0.72,0.56,0.56,0.5,0.39,0.33,0.56,0.55,0.72,0.25,0.55,0.61,0.56,0.33,0.5,0.33,0.56,0.33,1.0,0.61,0.61,0.61,0.56" style="fill:rgb(0,0,0);font-family:URWPalladioL-Bold;font-size:9.96px;stroke:none;">Rogerio R. Sotelo-Mundo</text>
   <text y="222.409" x="195.538" svgx:width="0.5" style="fill:rgb(0,0,0);font-family:URWPalladioL-Bold;font-size:7.57px;stroke:none;">2</text>
  </g>
  <path style="fill:rgb(179,201,62);stroke:none;stroke-width:1.0;" d="M208.89 221.49 C208.89 224.0 206.86 226.03 204.36 226.03 C201.85 226.03 199.82 224.0 199.82 221.49 C199.82 218.99 201.85 216.96 204.36 216.96 C206.86 216.96 208.89 218.99 208.89 221.49 "/>
  <path style="fill:rgb(255,255,255);stroke:none;stroke-width:1.0;" d="M204.17 220.14 L204.17 223.15 L204.78 223.15 C205.31 223.15 205.72 223.02 206.02 222.75 C206.32 222.48 206.47 222.1 206.47 221.61 C206.47 221.12 206.32 220.76 206.01 220.51 C205.7 220.26 205.3 220.14 204.8 220.14 L204.17 220.14 ZM203.63 223.6 L203.63 219.69 L204.82 219.69 C205.46 219.69 205.99 219.87 206.41 220.21 C206.83 220.55 207.04 221.02 207.04 221.6 C207.04 222.2 206.83 222.69 206.41 223.05 C205.99 223.42 205.44 223.6 204.78 223.6 L203.63 223.6 "/>
  <path style="fill:rgb(255,255,255);stroke:none;stroke-width:1.0;" d="M202.86 223.6 L202.32 223.6 L202.32 219.7 L202.86 219.7 L202.86 223.6 "/>
  <path style="fill:rgb(255,255,255);stroke:none;stroke-width:1.0;" d="M202.95 219.05 C202.95 219.24 202.8 219.4 202.61 219.4 C202.42 219.4 202.27 219.24 202.27 219.05 C202.27 218.86 202.42 218.71 202.61 218.71 C202.8 218.71 202.95 218.86 202.95 219.05 "/>
  <g begin="text">
   <text y="226.026" x="211.384,216.365,222.452,228.5276,231.03,238.781,242.099,247.08,252.06,254.552,258.427,260.91700000000003,263.409,269.496,274.477,277.795,282.776,287.757,292.739,296.435,299.752,309.715,314.696,320.783,324.101,330.188" svgx:width="0.5,0.61,0.61,0.55,0.78,0.33,0.5,0.5,0.55,0.39,0.25,0.55,0.61,0.5,0.33,0.5,0.5,0.5,0.39,0.33,1.0,0.5,0.61,0.33,0.61,0.5" style="fill:rgb(0,0,0);font-family:URWPalladioL-Bold;font-size:9.96px;stroke:none;">and Alex J. Salazar-Medina</text>
   <text y="222.409" x="337.66,341.946" svgx:width="0.5,0.25" style="fill:rgb(0,0,0);font-family:URWPalladioL-Bold;font-size:7.57px;stroke:none;">4,</text>
   <text y="226.026" x="344.335" svgx:width="0.44" style="fill:rgb(0,0,0);font-family:URWPalladioL-Bold;font-size:9.96px;stroke:none;">*</text>
   <text y="240.853" x="82.205" svgx:width="0.5" style="fill:rgb(0,0,0);font-family:URWPalladioL-Roma;font-size:6.97px;stroke:none;">1</text>
   <text y="244.108" x="97.313,104.114,108.323,113.604,117.998,121.469,124.333,128.727,136.486,140.695,145.809,148.673,153.6065,155.624,160.993,165.2986,167.364,170.325,175.439,180.404,184.613,188.338,191.203,193.76,198.646,203.039,206.941" svgx:width="0.77,0.48,0.6,0.5,0.4,0.33,0.5,0.88,0.48,0.58,0.33,0.55,0.55,0.61,0.48,0.55,0.34,0.58,0.56,0.48,0.42,0.33,0.29,0.56,0.5,0.44,0.29" style="fill:rgb(0,0,0);font-family:URWPalladioL-Roma;font-size:8.97px;stroke:none;">Departamento de Investigaci</text>
   <text y="244.108" x="209.495" svgx:width="0.55" style="fill:rgb(0,0,0);font-family:VnURWPalladioL;font-size:8.97px;stroke:none;">ó</text>
   <text y="244.108" x="214.391,219.59359999999998,221.658,225.867,231.06959999999998,233.143,238.45,243.248" svgx:width="0.58,0.55,0.48,0.58,0.55,0.6,0.55,0.29" style="fill:rgb(0,0,0);font-family:URWPalladioL-Roma;font-size:8.97px;stroke:none;">n en Pol</text>
   <text y="244.108" x="245.804" svgx:width="0.29" style="fill:rgb(0,0,0);font-family:VnURWPalladioL;font-size:8.97px;stroke:none;">í</text>
   <text y="244.108" x="248.377,256.136,260.345,263.658,268.455,272.2224,274.334,279.3572,281.381,289.694,294.087,296.952,301.152,304.623,307.18,311.574,314.131,318.34,322.065,324.3075,326.441,333.278,338.392,340.949,345.913,350.122,353.593,357.319,359.876,365.245,369.639,375.1107,377.16,382.529,386.8346,388.9,393.513,398.311,403.425,408.223,411.693,416.087,418.3295,420.454,427.765,431.974,435.445,443.204,448.002,451.727,454.284,456.841,459.398,464.3315,466.349,470.962,475.76,480.874,485.672,489.143,493.628,495.698,500.091,504.485,508.878,513.272,517.665" svgx:width="0.88,0.48,0.4,0.55,0.42,0.55,0.56,0.55,0.95,0.5,0.33,0.48,0.4,0.29,0.5,0.29,0.48,0.42,0.25,0.55,0.78,0.58,0.29,0.56,0.48,0.4,0.42,0.29,0.61,0.5,0.61,0.55,0.61,0.48,0.55,0.52,0.55,0.58,0.55,0.4,0.5,0.25,0.55,0.83,0.48,0.4,0.88,0.55,0.42,0.29,0.29,0.29,0.55,0.55,0.52,0.55,0.58,0.55,0.4,0.5,0.55,0.5,0.5,0.5,0.5,0.5,0.25" style="fill:rgb(0,0,0);font-family:URWPalladioL-Roma;font-size:8.97px;stroke:none;">meros y Materiales, Universidad de Sonora, Hermosillo Sonora 83000,</text>
   <text y="256.213" x="97.447,105.929,110.224,114.851,117.46,121.441,126.337,128.5795,130.82,135.805,140.1,145.579,148.188,151.111,156.329,160.813,165.296,171.994,176.979,184.896,189.38,191.989,194.598,196.84,200.821,205.716,215.875,218.861,223.846,226.088,230.795,233.037,236.023,238.2655,240.506,244.048,249.266,253.749,258.815,263.299,266.84,270.221,275.116,281.814,286.799,292.206,296.689,301.675,309.592,314.075,317.877,320.119,325.525,329.327,334.223,339.441,341.683,349.6,354.2644,356.468,359.454,365.444,367.685,373.164,375.406,382.857,385.098,388.084,390.3265,392.567,400.485,405.38,408.303,413.199,421.116,423.725,427.707,432.925,435.534,438.143,443.362,448.258,453.664,457.959,464.657,468.638,473.534,478.16,480.402,485.621,489.915,492.87510000000003,495.08,498.066,506.548,508.79,511.811,514.053,517.039" svgx:width="0.95,0.48,0.52,0.29,0.44,0.55,0.25,0.55,0.56,0.48,0.61,0.29,0.33,0.58,0.5,0.5,0.75,0.56,0.88,0.5,0.29,0.29,0.25,0.44,0.55,0.88,0.33,0.67,0.25,0.52,0.25,0.33,0.25,0.55,0.4,0.58,0.5,0.56,0.5,0.4,0.4,0.55,0.75,0.56,0.6,0.5,0.56,0.88,0.5,0.42,0.25,0.6,0.42,0.55,0.58,0.25,0.88,0.52,0.55,0.33,0.67,0.25,0.61,0.25,0.83,0.25,0.33,0.25,0.55,0.88,0.55,0.33,0.55,0.88,0.29,0.44,0.58,0.29,0.29,0.58,0.55,0.6,0.48,0.75,0.44,0.55,0.52,0.25,0.58,0.48,0.33,0.55,0.33,0.95,0.25,0.34,0.25,0.33,0.25" style="fill:rgb(0,0,0);font-family:URWPalladioL-Roma;font-size:8.97px;stroke:none;">Mexico; yedith16@gmail.com(Y.S.); rnavarro@guaymas.uson.mx (R.E.N.); motomichiinoue@cox.net (M.I.);</text>
   <text y="268.317" x="97.447,101.742,106.808,109.417,113.9,118.922,123.405,130.103,135.088,140.495,144.978,149.963,157.881,162.364,166.165,168.407,173.814,177.616,182.511,187.73,189.971,197.889,202.5534,204.757,207.743,213.221,215.463,219.623,221.865,227.182,229.423,232.409,238.766,241.008,243.994,246.2365,248.477,256.394,260.689,263.299,265.908,269.71,273.511,277.994,282.953,285.876,290.359,294.842,301.54,306.526,314.443,318.926,321.535,324.144,326.386,330.367,335.263,345.422,348.408,356.89,359.131,364.61,366.851,371.684,373.926" svgx:width="0.48,0.56,0.29,0.5,0.56,0.5,0.75,0.56,0.6,0.5,0.56,0.88,0.5,0.42,0.25,0.6,0.42,0.55,0.58,0.25,0.88,0.52,0.55,0.33,0.61,0.25,0.56,0.25,0.72,0.25,0.33,0.71,0.25,0.33,0.25,0.55,0.88,0.48,0.29,0.29,0.42,0.42,0.5,0.55,0.33,0.5,0.5,0.75,0.56,0.88,0.5,0.29,0.29,0.25,0.44,0.55,0.88,0.33,0.95,0.25,0.61,0.25,0.61,0.25,0.33" style="fill:rgb(0,0,0);font-family:URWPalladioL-Roma;font-size:8.97px;stroke:none;">evlzqz@guaymas.uson.mx (E.F.V.-C.); melissabt21@gmail.com(M.B.T.)</text>
   <text y="277.167" x="82.205" svgx:width="0.5" style="fill:rgb(0,0,0);font-family:URWPalladioL-Roma;font-size:6.97px;stroke:none;">2</text>
   <text y="280.422" x="97.398,102.876,107.36,112.318,117.214,120.755,125.239,128.162,133.057,136.599,139.208,144.1415,146.346,151.824,156.1296,158.361,163.839,167.641,170.564,174.034,179.441,183.422,186.345,191.751,195.293,199.77800000000002,202.018,207.496,210.106,215.001,222.919,227.814,230.424,234.718,238.7,244.106,246.715,251.199,254.077,256.3195,258.56,264.917,269.212,274.431,277.354,280.734,285.66749999999996,287.871,293.35,297.65560000000005,299.886,302.908,308.126,313.192,317.487,321.289,324.212,326.821,331.807,336.29,340.271" svgx:width="0.61,0.5,0.55,0.55,0.4,0.5,0.33,0.55,0.4,0.29,0.55,0.55,0.61,0.48,0.55,0.61,0.42,0.33,0.4,0.6,0.44,0.33,0.6,0.4,0.5,0.55,0.61,0.29,0.55,0.88,0.55,0.29,0.48,0.44,0.6,0.29,0.5,0.4,0.25,0.55,0.71,0.48,0.58,0.33,0.4,0.55,0.55,0.61,0.48,0.55,0.34,0.58,0.56,0.48,0.42,0.33,0.29,0.56,0.5,0.44,0.29" style="fill:rgb(0,0,0);font-family:URWPalladioL-Roma;font-size:8.97px;stroke:none;">Laboratorio de Estructura Biomolecular, Centro de Investigaci</text>
   <text y="280.422" x="342.876" svgx:width="0.55" style="fill:rgb(0,0,0);font-family:VnURWPalladioL;font-size:8.97px;stroke:none;">ó</text>
   <text y="280.422" x="347.772,352.9746,355.232,359.527,364.7296,366.987,373.963,376.572,379.181,387.099,391.394,396.612,399.535,404.018,407.999" svgx:width="0.58,0.55,0.48,0.58,0.55,0.78,0.29,0.29,0.88,0.48,0.58,0.33,0.5,0.44,0.29" style="fill:rgb(0,0,0);font-family:URWPalladioL-Roma;font-size:8.97px;stroke:none;">n en Alimentaci</text>
   <text y="280.422" x="410.607" svgx:width="0.55" style="fill:rgb(0,0,0);font-family:VnURWPalladioL;font-size:8.97px;stroke:none;">ó</text>
   <text y="280.422" x="415.503,420.7056,422.963,427.9862,430.19,437.13,441.425,445.227,449.71,453.252,456.632,461.528,464.137,466.746,471.67949999999996,473.883,480.859,483.101,489.458,491.699" svgx:width="0.58,0.55,0.56,0.55,0.77,0.48,0.42,0.5,0.4,0.4,0.55,0.29,0.29,0.55,0.55,0.78,0.25,0.71,0.25,0.25" style="fill:rgb(0,0,0);font-family:URWPalladioL-Roma;font-size:8.97px;stroke:none;">n y Desarrollo A.C.,</text>
   <text y="292.527" x="97.447,104.907,109.202,112.744,120.661,125.557,129.358,131.968,134.577,137.186,142.082,144.3245,146.565,151.272,156.168,161.386,166.282,169.824,174.30900000000003,176.549,181.032,185.515,189.998,194.481,198.965,201.2075,203.448,211.93,216.225,220.852,223.461,227.442,232.338,234.5805,236.821,240.363,243.904,247.706,254.404,258.385,260.994,265.477,270.956,273.198,281.115" svgx:width="0.83,0.48,0.4,0.88,0.55,0.42,0.29,0.29,0.29,0.55,0.25,0.55,0.52,0.55,0.58,0.55,0.4,0.5,0.55,0.5,0.5,0.5,0.5,0.5,0.25,0.55,0.95,0.48,0.52,0.29,0.44,0.55,0.25,0.55,0.4,0.4,0.42,0.75,0.44,0.29,0.5,0.61,0.25,0.88,0.52" style="fill:rgb(0,0,0);font-family:URWPalladioL-Roma;font-size:8.97px;stroke:none;">Hermosillo, Sonora 83304, Mexico; rrs@ciad.mx</text>
   <text y="301.377" x="82.205" svgx:width="0.5" style="fill:rgb(0,0,0);font-family:URWPalladioL-Roma;font-size:6.97px;stroke:none;">3</text>
   <text y="304.631" x="97.398,104.338,108.633,114.022,118.505,122.047,124.97,129.453,137.37,141.665,146.884,149.807,154.7405,156.944,162.422,166.7276,168.959,171.981,177.199,182.184,186.479,191.698,194.307,198.602" svgx:width="0.77,0.48,0.6,0.5,0.4,0.33,0.5,0.88,0.48,0.58,0.33,0.55,0.55,0.61,0.48,0.55,0.34,0.58,0.56,0.48,0.58,0.29,0.48,0.4" style="fill:rgb(0,0,0);font-family:URWPalladioL-Roma;font-size:8.97px;stroke:none;">Departamento de Ingenier</text>
   <text y="304.631" x="202.142" svgx:width="0.29" style="fill:rgb(0,0,0);font-family:VnURWPalladioL;font-size:8.97px;stroke:none;">í</text>
   <text y="304.631" x="204.715,209.20000000000002,211.44,218.487" svgx:width="0.5,0.55,0.79,0.6" style="fill:rgb(0,0,0);font-family:URWPalladioL-Roma;font-size:8.97px;stroke:none;">a Qu</text>
   <text y="304.631" x="223.894" svgx:width="0.29" style="fill:rgb(0,0,0);font-family:VnURWPalladioL;font-size:8.97px;stroke:none;">í</text>
   <text y="304.631" x="226.467,234.384,236.994,240.975,245.458,247.7005,249.941,256.917,262.135,264.745,269.811,274.105,277.647,281.449,284.058,289.537,294.02,299.4917,301.74,307.218,311.52360000000004,313.755,318.462,323.358,328.576,333.472,337.014,341.497,343.7395,345.98,353.44,357.735,361.277,369.194,374.09,377.892,380.501,383.11,385.719,390.615,392.8575,395.098,399.805,404.701,409.92,414.815,418.357,422.84200000000004,425.082,429.565,434.048,438.531,443.015,447.5,449.739,458.222,462.517,467.143,469.752,473.733,478.629" svgx:width="0.88,0.29,0.44,0.5,0.25,0.55,0.78,0.58,0.29,0.56,0.48,0.4,0.42,0.29,0.61,0.5,0.61,0.55,0.61,0.48,0.55,0.52,0.55,0.58,0.55,0.4,0.5,0.25,0.55,0.83,0.48,0.4,0.88,0.55,0.42,0.29,0.29,0.29,0.55,0.25,0.55,0.52,0.55,0.58,0.55,0.4,0.5,0.55,0.5,0.5,0.5,0.5,0.5,0.55,0.95,0.48,0.52,0.29,0.44,0.55,0.25" style="fill:rgb(0,0,0);font-family:URWPalladioL-Roma;font-size:8.97px;stroke:none;">mica, Universidad de Sonora, Hermosillo, Sonora 83000 Mexico;</text>
   <text y="316.736" x="97.447,102.432,107.839,111.641,114.564,119.047,124.113,129.009,131.618,137.025,142.01,146.906,152.294,158.992,163.978,171.895,176.378,178.987,181.597,183.838,187.819,192.715" svgx:width="0.56,0.6,0.42,0.33,0.5,0.56,0.55,0.29,0.6,0.56,0.55,0.6,0.75,0.56,0.88,0.5,0.29,0.29,0.25,0.44,0.55,0.88" style="fill:rgb(0,0,0);font-family:URWPalladioL-Roma;font-size:8.97px;stroke:none;">gustavolugop@gmail.com</text>
   <text y="325.586" x="82.205" svgx:width="0.5" style="fill:rgb(0,0,0);font-family:URWPalladioL-Roma;font-size:6.97px;stroke:none;">4</text>
   <text y="328.841" x="97.398" svgx:width="0.71" style="fill:rgb(0,0,0);font-family:URWPalladioL-Roma;font-size:8.97px;stroke:none;">C</text>
   <text y="328.841" x="103.755" svgx:width="0.5" style="fill:rgb(0,0,0);font-family:VnURWPalladioL;font-size:8.97px;stroke:none;">á</text>
   <text y="328.841" x="108.238,111.161,115.456,120.934,124.476,128.959,132.7264,135.003,141.36,148.407,155.859,162.834,169.192,175.172,180.175,183.161,190.101,194.396,199.785,204.268,207.81,210.733,215.216,223.133,227.428,232.647,235.57,240.5035,242.707,248.186,252.4916,254.722,257.744,262.962,268.028,272.323,276.125,279.048,281.657,286.642,291.126,295.107" svgx:width="0.33,0.48,0.61,0.4,0.5,0.42,0.55,0.71,0.79,0.83,0.78,0.71,0.67,0.61,0.33,0.77,0.48,0.6,0.5,0.4,0.33,0.5,0.88,0.48,0.58,0.33,0.55,0.55,0.61,0.48,0.55,0.34,0.58,0.56,0.48,0.42,0.33,0.29,0.56,0.5,0.44,0.29" style="fill:rgb(0,0,0);font-family:URWPalladioL-Roma;font-size:8.97px;stroke:none;">tedras CONACYT-Departamento de Investigaci</text>
   <text y="328.841" x="297.713" svgx:width="0.55" style="fill:rgb(0,0,0);font-family:VnURWPalladioL;font-size:8.97px;stroke:none;">ó</text>
   <text y="328.841" x="302.609,307.8116,310.069,314.364,319.5666,321.824,327.24,332.135" svgx:width="0.58,0.55,0.48,0.58,0.55,0.6,0.55,0.29" style="fill:rgb(0,0,0);font-family:URWPalladioL-Roma;font-size:8.97px;stroke:none;">n en Pol</text>
   <text y="328.841" x="334.744" svgx:width="0.29" style="fill:rgb(0,0,0);font-family:VnURWPalladioL;font-size:8.97px;stroke:none;">í</text>
   <text y="328.841" x="337.317,345.234,349.529,352.91,357.805,361.5724,363.849,368.87219999999996,371.076,379.558,384.041,386.964,391.259,394.801,397.41,401.893,404.502,408.797,412.599,414.8415,417.082,424.058,429.276,431.886,436.952,441.246,444.788,448.59,451.199,456.678,461.161,466.6327,468.881,474.359,478.6646,480.896,485.603,490.499,495.717,500.613,504.155,508.638" svgx:width="0.88,0.48,0.4,0.55,0.42,0.55,0.56,0.55,0.95,0.5,0.33,0.48,0.4,0.29,0.5,0.29,0.48,0.42,0.25,0.55,0.78,0.58,0.29,0.56,0.48,0.4,0.42,0.29,0.61,0.5,0.61,0.55,0.61,0.48,0.55,0.52,0.55,0.58,0.55,0.4,0.5,0.25" style="fill:rgb(0,0,0);font-family:URWPalladioL-Roma;font-size:8.97px;stroke:none;">meros y Materiales, Universidad de Sonora,</text>
   <text y="340.945" x="97.447,104.907,109.202,112.744,120.661,125.557,129.358,131.968,134.577,137.186,142.082,144.3245,146.565,151.272,156.168,161.386,166.282,169.824,174.30900000000003,176.549,181.032,185.515,189.998,194.481,198.965,201.2075,203.448,211.93,216.225,220.852,223.461,227.442" svgx:width="0.83,0.48,0.4,0.88,0.55,0.42,0.29,0.29,0.29,0.55,0.25,0.55,0.52,0.55,0.58,0.55,0.4,0.5,0.55,0.5,0.5,0.5,0.5,0.5,0.25,0.55,0.95,0.48,0.52,0.29,0.44,0.55" style="fill:rgb(0,0,0);font-family:URWPalladioL-Roma;font-size:8.97px;stroke:none;">Hermosillo, Sonora 83000, Mexico</text>
   <text y="353.05" x="81.407" svgx:width="0.44" style="fill:rgb(0,0,0);font-family:URWPalladioL-Bold;font-size:8.97px;stroke:none;">*</text>
   <text y="353.05" x="97.447,103.804,108.7,112.242,115.622,119.917,123.719,129.107,134.003,139.221,144.7,148.995,154.213,158.194,162.489,164.7315,167.869,172.352,174.962,179.256,183.883,186.125,189.926,194.41,197.019,201.502,205.985,210.469,214.01,220.708,226.115,231.333,233.943,237.744,242.64,247.858,250.1,258.017,262.644,264.8865,267.127,271.799,276.094,278.703,280.944" svgx:width="0.71,0.55,0.4,0.4,0.48,0.42,0.6,0.55,0.58,0.61,0.48,0.58,0.44,0.48,0.25,0.55,0.5,0.29,0.48,0.52,0.25,0.42,0.5,0.29,0.5,0.5,0.5,0.4,0.75,0.6,0.58,0.29,0.42,0.55,0.58,0.25,0.88,0.52,0.25,0.55,0.61,0.48,0.29,0.25,0.25" style="fill:rgb(0,0,0);font-family:URWPalladioL-Roma;font-size:8.97px;stroke:none;">Correspondence: alex.salazar@unison.mx; Tel.:</text>
   <text y="353.05" x="285.426" svgx:width="0.67" style="fill:rgb(0,0,0);font-family:Rpxr;font-size:8.97px;stroke:none;">+</text>
   <text y="353.05" x="291.424,295.907,300.39,303.376,307.859,312.343,316.826,319.812,324.295,328.778,333.261,336.247,340.73,345.214,349.697" svgx:width="0.5,0.5,0.33,0.5,0.5,0.5,0.33,0.5,0.5,0.5,0.33,0.5,0.5,0.5,0.5" style="fill:rgb(0,0,0);font-family:URWPalladioL-Roma;font-size:8.97px;stroke:none;">52-662-259-2161</text>
   <text y="379.054" x="82.205,88.195,92.489,96.471,100.765,103.375,108.441,112.736,118.214,120.4565,123.594,128.077,132.562,134.802,141.778,147.185,152.17,157.577,161.378,164.3381,166.543,171.026,175.509,179.993,184.476,186.7185,188.959,195.935,199.916,203.897,208.192,213.581,216.504,220.799,226.277,228.5195,231.657,236.14,240.625,242.865,247.572,251.867,257.256,260.179,264.474,272.391,277.35,281.645,285.233,287.428,291.911,296.394,300.878,305.361,307.6035,309.844,315.26,320.666,325.625,328.234,330.843,334.645,339.863,344.158,349.637,351.8795,355.017,359.502,361.742,368.789,372.77,375.693,380.589,385.547,389.842,393.43,395.626,400.109,404.592,409.075" svgx:width="0.67,0.48,0.44,0.48,0.29,0.56,0.48,0.61,0.25,0.55,0.5,0.5,0.55,0.78,0.6,0.56,0.6,0.42,0.33,0.55,0.5,0.5,0.5,0.5,0.25,0.55,0.78,0.44,0.44,0.48,0.6,0.33,0.48,0.61,0.25,0.55,0.5,0.5,0.55,0.52,0.48,0.6,0.33,0.48,0.88,0.55,0.48,0.4,0.55,0.5,0.5,0.5,0.5,0.25,0.55,0.6,0.6,0.55,0.29,0.29,0.42,0.58,0.48,0.61,0.25,0.55,0.5,0.55,0.79,0.44,0.33,0.55,0.55,0.48,0.4,0.55,0.5,0.5,0.5,0.5" style="fill:rgb(0,0,0);font-family:URWPalladioL-Roma;font-size:8.97px;stroke:none;">Received: 31 August 2019; Accepted: 21 September 2019; Published: 1 October 2019</text>
  </g>
  <path style="fill:rgb(255,207,0);stroke:none;stroke-width:1.0;" d="M477.39 375.47 L475.25 377.61 L469.5 371.86 L471.64 369.72 L475.25 373.33 L482.59 365.99 C481.08 364.03 478.7 362.77 476.03 362.77 C471.45 362.77 467.74 366.48 467.74 371.06 C467.74 375.64 471.45 379.35 476.03 379.35 C480.61 379.35 484.32 375.64 484.32 371.06 C484.32 370.29 484.21 369.55 484.02 368.85 L477.39 375.47 "/>
  <g begin="text">
   <text y="370.131" code="1" x="487.076,490.658,494.948,498.979,502.561,506.671,508.458,510.68,514.915" svgx:width="0.46,0.54,0.5,0.46,0.5,0.2,0.29,0.54,0.35" style="fill:rgb(4,5,8);font-family:SourceSansRoman-Regular;font-size:7.87px;stroke:none;">?????????</text>
   <text y="370.131" code="1" x="517.85" svgx:width="0.2" style="fill:rgb(4,5,8);font-family:SourceSansRoman.613wght;font-size:6.99px;stroke:none;">?</text>
   <text y="377.281" code="1" x="487.076,491.858,496.861,501.682,506.142,509.467,514.071" svgx:width="0.57,0.57,0.57,0.53,0.38,0.52,0.44" style="fill:rgb(4,5,8);font-family:SourceSansRoman-Bold;font-size:7.87px;stroke:none;">???????</text>
  </g>
  <g begin="text">
   <text y="403.186" x="81.816,89.567,95.654,100.077,103.395,107.27,112.252,116.675,119.993" svgx:width="0.78,0.61,0.44,0.33,0.39,0.5,0.44,0.33,0.25" style="fill:rgb(0,0,0);font-family:URWPalladioL-Bold;font-size:9.96px;stroke:none;">Abstract:</text>
   <text y="403.186" x="125.965,132.029,137.787,142.5678,145.009,152.023" svgx:width="0.61,0.58,0.48,0.55,0.71,0.6" style="fill:rgb(0,0,0);font-family:URWPalladioL-Roma;font-size:9.96px;stroke:none;">The Cu</text>
   <text y="399.57" x="157.986" svgx:width="0.5" style="fill:rgb(0,0,0);font-family:URWPalladioL-Roma;font-size:7.57px;stroke:none;">2</text>
   <text y="399.57" x="161.771" svgx:width="0.67" style="fill:rgb(0,0,0);font-family:Rpxr;font-size:7.57px;stroke:none;">+</text>
   <text y="403.186" x="167.335,169.82500000000002,172.291,181.65" svgx:width="0.25,0.55,0.95,0.58" style="fill:rgb(0,0,0);font-family:URWPalladioL-Roma;font-size:9.96px;stroke:none;">, Mn</text>
   <text y="399.57" x="187.407" svgx:width="0.5" style="fill:rgb(0,0,0);font-family:URWPalladioL-Roma;font-size:7.57px;stroke:none;">2</text>
   <text y="399.57" x="191.193" svgx:width="0.67" style="fill:rgb(0,0,0);font-family:Rpxr;font-size:7.57px;stroke:none;">+</text>
   <text y="403.186" x="196.756,199.246,201.712,206.659,212.416,218.4916,220.944,226.444" svgx:width="0.25,0.55,0.5,0.58,0.61,0.55,0.56,0.48" style="fill:rgb(0,0,0);font-family:URWPalladioL-Roma;font-size:9.96px;stroke:none;">, and Fe</text>
   <text y="399.57" x="231.181" svgx:width="0.5" style="fill:rgb(0,0,0);font-family:URWPalladioL-Roma;font-size:7.57px;stroke:none;">3</text>
   <text y="399.57" x="234.967" svgx:width="0.67" style="fill:rgb(0,0,0);font-family:Rpxr;font-size:7.57px;stroke:none;">+</text>
   <text y="403.186" x="243.011,247.403,252.805,261.54,267.486,270.365,275.103,280.208,284.947,289.1302,291.625,297.026,300.31280000000004,302.794,307.774,310.223,315.169,320.149,322.599,331.334,336.073,344.808,350.279,355.018,358.748,363.486,369.5616,372.014,380.749,385.696,390.088,393.808,399.209,403.602,409.102,413.495,416.373,421.1538,423.595,431.846,436.584,440.314,445.0948,447.536,451.73,457.231,462.989,466.214,471.971,476.71,480.905,483.783,488.73,493.468,499.5436,501.996,506.943,512.7" svgx:width="0.44,0.55,0.88,0.6,0.29,0.48,0.52,0.48,0.42,0.55,0.55,0.33,0.55,0.5,0.55,0.5,0.5,0.55,0.88,0.48,0.88,0.55,0.48,0.4,0.48,0.61,0.55,0.88,0.5,0.44,0.4,0.55,0.44,0.56,0.44,0.29,0.48,0.55,0.83,0.48,0.4,0.48,0.55,0.42,0.56,0.58,0.33,0.58,0.48,0.42,0.29,0.5,0.48,0.61,0.55,0.5,0.58,0.61" style="fill:rgb(0,0,0);font-family:URWPalladioL-Roma;font-size:9.96px;stroke:none;">complexes of a 14 membered macrocycle were synthesized and</text>
   <text y="416.696" x="82.205,85.492,91.36,96.189,99.123,103.107,105.586,110.627,116.494,119.781,122.715,128.22,133.422,136.356,142.516,147.558,153.425,156.7118,159.192,163.669,168.71,174.769,179.81,184.287,187.211,190.497,193.431,198.261,202.4442,205.016,213.424,218.254,222.065,226.8458,229.364,234.193,239.89,244.931,247.865,253.944,258.985,262.272,267.102,273.1776,275.742,280.783,286.389,291.43,294.364,300.231,304.506,307.7928,310.273,318.117,324.277,330.458,335.6372,338.231,343.272,349.14,355.2156,357.78,365.584,371.673,377.763,386.02979999999997,388.622,392.604,397.645,403.805,406.739,411.216,416.257,419.191,423.465,425.955,428.466,436.875,439.809,443.095,448.8718,451.443,454.73,460.598,465.3788,467.907,473.412,478.988,481.347,486.176,490.653,493.94,496.873,502.57,507.3508,509.879,515.384" svgx:width="0.33,0.58,0.48,0.29,0.4,0.55,0.5,0.58,0.33,0.29,0.55,0.52,0.29,0.61,0.5,0.58,0.33,0.55,0.44,0.5,0.6,0.5,0.44,0.29,0.33,0.29,0.48,0.42,0.55,0.83,0.48,0.4,0.48,0.55,0.48,0.56,0.5,0.29,0.6,0.5,0.33,0.48,0.61,0.55,0.5,0.56,0.5,0.29,0.58,0.42,0.33,0.55,0.78,0.61,0.61,0.52,0.55,0.5,0.58,0.61,0.55,0.77,0.6,0.6,0.83,0.55,0.4,0.5,0.61,0.29,0.44,0.5,0.29,0.42,0.25,0.55,0.83,0.29,0.33,0.58,0.55,0.33,0.58,0.48,0.55,0.55,0.55,0.23,0.48,0.44,0.33,0.29,0.56,0.48,0.55,0.55,0.33" style="fill:rgb(0,0,0);font-family:URWPalladioL-Roma;font-size:9.96px;stroke:none;">their antioxidant capacities were evaluated against ABTS and DPPH radicals, with the objective of</text>
   <text y="430.205" x="82.205,86.606,92.019,94.903,97.788,102.536,106.937,110.169,113.054,118.823,124.4006,126.813,129.697,135.466,139.669,142.554,148.066,153.835,157.066,161.2492,163.748,166.622,172.392,175.623,181.101,183.514,186.745,192.514,197.2948,199.741,205.223,208.107,213.52,222.273,225.157,233.91,238.659,241.89,244.775,249.1574,251.654,255.391,260.804,263.688,268.4688,270.915,276.327,279.6138,282.096,285.328,291.097,295.8778,298.324,302.725,307.473,313.242,316.474,320.39,325.346,328.2344,330.709,339.462,344.21,347.442,352.398,355.2864,357.761,360.645,366.058,371.827,376.03,378.52,381.988,388.064,393.833,398.6138,401.06,409.813,414.769,419.171,422.908,428.32,432.721,438.233,442.634,445.519,450.267,452.757,455.223,460.18,465.662,471.143,474.88,479.629,485.229,488.114,493.07,496.302,501.05,507.1256,509.585,514.542" svgx:width="0.44,0.55,0.29,0.29,0.48,0.44,0.33,0.29,0.58,0.56,0.55,0.29,0.58,0.42,0.29,0.56,0.58,0.33,0.42,0.55,0.29,0.58,0.33,0.55,0.55,0.33,0.58,0.48,0.55,0.55,0.29,0.55,0.88,0.29,0.88,0.48,0.33,0.29,0.44,0.55,0.4,0.55,0.29,0.48,0.55,0.55,0.33,0.55,0.33,0.58,0.48,0.55,0.44,0.48,0.58,0.33,0.4,0.5,0.29,0.55,0.88,0.48,0.33,0.5,0.29,0.55,0.29,0.55,0.58,0.42,0.25,0.55,0.61,0.58,0.48,0.55,0.88,0.5,0.44,0.4,0.55,0.44,0.56,0.44,0.29,0.48,0.25,0.55,0.5,0.55,0.55,0.4,0.48,0.56,0.29,0.5,0.33,0.48,0.61,0.55,0.5,0.42" style="fill:rgb(0,0,0);font-family:URWPalladioL-Roma;font-size:9.96px;stroke:none;">collecting insights into the biomimetic role of the central metal ions. The macrocycle, abbreviated as</text>
   <text y="443.715" x="82.205" svgx:width="0.83" style="fill:rgb(0,0,0);font-family:URWPalladioL-Roma;font-size:9.96px;stroke:none;">H</text>
   <text y="445.579" x="90.585" svgx:width="0.5" style="fill:rgb(0,0,0);font-family:URWPalladioL-Roma;font-size:7.57px;stroke:none;">2</text>
   <text y="443.715" x="94.869,101.023,106.059,111.095,113.585,116.111,119.042,123.2252,125.811,130.791,133.335,139.489,144.313,148.292,151.223,156.914,161.95,165.233,168.164,173.855,178.6358,181.178,186.677,189.9638,192.529,198.683,206.479,211.918,219.6868,222.252,226.724,232.324,236.796,239.727,242.658,247.694,252.519,258.5946,261.161,269.561,272.492,275.776,281.5528,284.135,289.172,291.69,296.726,300.08,306.234,309.165,314.201,323.095,326.026,331.888,336.712,339.202,341.728,346.764,352.626,358.7016,361.278,364.562,370.424,375.2048,377.746,386.64,392.139,398.294,403.118,407.097,412.133,415.416,420.241,423.172,428.74960000000004,431.26,437.384,442.208,447.406,450.337,455.906,458.837,463.6178,466.16,475.054,480.09,484.562,488.359,493.858,498.331,503.931,508.403,511.334,514.265" svgx:width="0.61,0.5,0.5,0.25,0.55,0.29,0.42,0.55,0.5,0.55,0.61,0.48,0.4,0.29,0.56,0.5,0.33,0.29,0.56,0.48,0.55,0.55,0.33,0.55,0.61,0.77,0.61,0.78,0.55,0.44,0.56,0.44,0.29,0.29,0.5,0.48,0.61,0.55,0.83,0.29,0.33,0.58,0.55,0.5,0.25,0.5,0.33,0.61,0.29,0.5,0.88,0.29,0.58,0.48,0.25,0.55,0.5,0.58,0.61,0.55,0.33,0.58,0.48,0.55,0.88,0.55,0.61,0.48,0.4,0.5,0.33,0.48,0.29,0.56,0.55,0.61,0.48,0.52,0.29,0.55,0.29,0.48,0.55,0.88,0.5,0.44,0.4,0.55,0.44,0.56,0.44,0.29,0.29,0.44" style="fill:rgb(0,0,0);font-family:URWPalladioL-Roma;font-size:9.96px;stroke:none;">L14, is a derivative of EDTA cyclized with 1,4-diamine, and the moderately ﬂexible macrocyclic</text>
   <text y="457.224" x="82.205,85.589,89.603,94.684,103.657,108.4378,112.65,118.757,123.625,127.639,136.612,139.569,142.881,147.0642,151.316,154.629,160.543,165.3238,169.536,172.92,178.468,182.482,191.455,196.536,199.849,202.806,208.354,214.13080000000002,218.404,223.953,227.2398,231.462,234.846,244.459,250.668,255.749" svgx:width="0.33,0.4,0.5,0.88,0.48,0.55,0.6,0.48,0.4,0.88,0.29,0.33,0.42,0.55,0.33,0.58,0.48,0.55,0.33,0.55,0.4,0.88,0.5,0.33,0.29,0.55,0.58,0.55,0.55,0.33,0.55,0.33,0.95,0.61,0.5,0.5" style="fill:rgb(0,0,0);font-family:URWPalladioL-Roma;font-size:9.96px;stroke:none;">frame permits the formation of [ML14</text>
   <text y="457.224" x="260.827" svgx:width="0.25" style="fill:rgb(0,0,0);font-family:Pxsy;font-size:9.96px;stroke:none;">·</text>
   <text y="457.224" x="263.318" svgx:width="0.83" style="fill:rgb(0,0,0);font-family:URWPalladioL-Roma;font-size:9.96px;stroke:none;">H</text>
   <text y="459.089" x="271.772" svgx:width="0.5" style="fill:rgb(0,0,0);font-family:URWPalladioL-Roma;font-size:7.57px;stroke:none;">2</text>
   <text y="457.224" x="276.056,284.043,287.32980000000003,291.553,296.065,301.979,306.846,309.803,314.884,318.197,323.065,327.2482,331.499,339.974,342.931,346.244,352.0208,356.284,361.832,366.344,369.657,374.738,380.652,385.519,391.728,395.742,400.823,403.71139999999997,407.906,412.418,417.966,423.515,427.356,433.565,436.522,442.436,447.517,450.83,453.787,459.335,465.11179999999996,469.375,475.025,479.892,485.441,494.414,499.281,502.594,506.608,509.565,514.433" svgx:width="0.79,0.33,0.55,0.44,0.58,0.48,0.29,0.5,0.33,0.48,0.42,0.55,0.83,0.29,0.33,0.58,0.55,0.55,0.44,0.33,0.5,0.58,0.48,0.61,0.4,0.5,0.29,0.55,0.44,0.55,0.55,0.4,0.61,0.29,0.58,0.5,0.33,0.29,0.55,0.58,0.55,0.56,0.48,0.55,0.88,0.48,0.33,0.4,0.29,0.48,0.42" style="fill:rgb(0,0,0);font-family:URWPalladioL-Roma;font-size:9.96px;stroke:none;">O] chelates with octahedral coordination geometries</text>
   <text y="470.733" x="82.205,86.606,92.019,100.772,109.525,114.937,120.71379999999999,123.214,128.171,136.924,142.336,148.105,153.68259999999998,156.115,159.346,165.116,169.8968,172.372,181.125,185.873,189.104,194.061,196.9494,199.444,202.328,207.741,213.51,217.713,220.203,223.72,229.796,235.566,240.3468,242.822,251.575,256.323,259.555,264.511,267.3994,269.894,274.295,279.707,288.46,294.418,297.303,302.051,307.166,311.914,316.0972,318.625,326.892,331.64,335.378,340.1588,342.634,347.035,352.804,357.761,361.676,366.633,371.034,374.265,379.014,382.929,385.814,390.77,395.518,401.5936,404.073,409.555,415.1326,417.574,422.323,425.207,429.955,434.357,437.588,441.325,446.738,450.941,456.898,460.814,465.77,471.282,474.583,477.467,482.88,488.649,491.534,496.49,501.447,504.678,507.563,512.975" svgx:width="0.44,0.55,0.88,0.88,0.55,0.58,0.55,0.5,0.88,0.55,0.58,0.56,0.55,0.33,0.58,0.48,0.55,0.88,0.48,0.33,0.5,0.29,0.55,0.29,0.55,0.58,0.42,0.25,0.55,0.61,0.58,0.48,0.55,0.88,0.48,0.33,0.5,0.29,0.55,0.44,0.55,0.88,0.6,0.29,0.48,0.52,0.48,0.42,0.55,0.83,0.48,0.4,0.48,0.55,0.44,0.58,0.5,0.4,0.5,0.44,0.33,0.48,0.4,0.29,0.5,0.48,0.61,0.55,0.55,0.56,0.55,0.48,0.29,0.48,0.44,0.33,0.4,0.55,0.42,0.6,0.4,0.5,0.56,0.33,0.29,0.55,0.58,0.29,0.5,0.5,0.33,0.29,0.55,0.58" style="fill:rgb(0,0,0);font-family:URWPalladioL-Roma;font-size:9.96px;stroke:none;">common among the metal ions. The metal complexes were characterized by electrospray-ionization</text>
   <text y="484.243" x="82.205,91.178,96.259,100.567,104.75019999999999,107.437,111.745,117.853,122.72,127.232,130.545,134.386,139.934,148.907,153.775,157.088,161.102,165.644,168.13400000000001,170.766,176.416,181.964,188.092,192.105,195.063,199.93,203.91400000000002,206.505,209.818,213.831,218.912,224.827,229.135,232.519,238.067,242.081,250.8458,253.625,256.582,262.497,265.88,269.894,274.975,278.806,283.674,289.7496,292.454,296.762,302.87,307.737,312.249,315.562,319.393,324.941,329.25,333.762,339.31,345.417,349.96,352.45,355.081,360.162,366.076,372.15160000000003,374.856,381.644,386.725,395.698,400.779,406.5558,409.254,414.335,420.249,426.32460000000003,429.029,435.807,439.191,443.205,448.286,453.8636,456.496,462.604,468.518,474.066,477.379,482.927,487.795,490.752,495.62,500.131,503.444,507.275,512.824" svgx:width="0.88,0.5,0.42,0.42,0.55,0.42,0.6,0.48,0.44,0.33,0.4,0.55,0.88,0.48,0.33,0.4,0.56,0.25,0.55,0.56,0.55,0.6,0.4,0.29,0.48,0.4,0.55,0.33,0.4,0.5,0.58,0.42,0.33,0.55,0.4,0.88,0.55,0.29,0.58,0.33,0.4,0.5,0.4,0.48,0.61,0.55,0.42,0.6,0.48,0.44,0.33,0.4,0.55,0.42,0.44,0.55,0.6,0.56,0.25,0.55,0.5,0.58,0.61,0.55,0.67,0.5,0.88,0.5,0.58,0.55,0.5,0.58,0.61,0.55,0.67,0.33,0.4,0.5,0.56,0.55,0.6,0.58,0.55,0.33,0.55,0.48,0.29,0.48,0.44,0.33,0.4,0.55,0.58" style="fill:rgb(0,0,0);font-family:URWPalladioL-Roma;font-size:9.96px;stroke:none;">mass spectrometry, Fourier transform infrared spectroscopy, and Raman and X-ray photoelectron</text>
   <text y="497.752" x="82.205,86.345,92.212,96.889,101.224,104.407,108.088,113.418,117.558,121.893,127.224,133.092,135.933,140.31539999999998,142.396,151.017,155.694,158.877,164.559,169.89,175.855,179.995,182.485,184.642,189.524,193.7072,195.802,203.944,208.621,211.462,214.35039999999998,216.441,221.323,225.5062,227.591,230.774,236.456,241.133,244.989,253.61,258.941,264.37,268.226,273.108,278.624,281.465,290.086,294.763,297.946,301.802,304.643,309.0254,311.117,315.998,321.68,326.562,329.403,334.832,338.971,341.813,345.952,348.442,350.648,353.831,359.513,364.2938,366.328,371.659,375.994,379.177,384.059,389.741,394.417,400.383,404.239,409.121,412.00939999999997,414.091,418.426,423.756,429.087,432.768,438.733,441.574,447.257,452.138,455.321,458.162,463.493,469.2698,471.314,476.742,481.419,486.749,495.37,500.047,503.23,507.087,509.928,514.604" svgx:width="0.42,0.6,0.48,0.44,0.33,0.4,0.55,0.42,0.44,0.55,0.6,0.29,0.44,0.55,0.88,0.48,0.33,0.58,0.55,0.61,0.42,0.25,0.55,0.5,0.42,0.55,0.83,0.48,0.29,0.29,0.55,0.5,0.42,0.55,0.33,0.58,0.48,0.4,0.88,0.55,0.56,0.4,0.5,0.56,0.29,0.88,0.48,0.33,0.4,0.29,0.44,0.55,0.5,0.58,0.5,0.29,0.56,0.42,0.29,0.42,0.25,0.55,0.33,0.58,0.48,0.55,0.55,0.44,0.33,0.5,0.58,0.48,0.61,0.4,0.5,0.29,0.55,0.44,0.55,0.55,0.4,0.61,0.29,0.58,0.5,0.33,0.29,0.55,0.58,0.55,0.56,0.48,0.55,0.88,0.48,0.33,0.4,0.29,0.48,0.42" style="fill:rgb(0,0,0);font-family:URWPalladioL-Roma;font-size:9.96px;stroke:none;">spectroscopic methods, as well as thermogravimetric analysis; the octahedral coordination geometries</text>
   <text y="511.262" x="81.786,90.203,93.14,96.43,102.2068,104.796,113.213,118.259,121.549,126.383,130.367,132.862,137.343,142.853,148.364,152.168,158.335,161.271,167.145,172.191,175.481,178.418,183.928,189.7048,192.295,200.711,205.546,209.35,214.1308,216.677,222.188,228.253,231.543,234.48,243.391,246.328,251.374,256.208,262.28360000000004,264.867,270.448,276.0256,278.552,286.363,291.974,298.0496,300.654,305.135,310.181,313.117,317.598,323.684,326.621,331.667,334.957,337.893,343.404,349.277,353.556,356.046,359.581,365.768,371.641,376.4218,378.968,384.014,389.888,393.178,396.115,401.625,406.833,409.769,415.936,420.982,426.855,430.14180000000005,432.638,437.684,441.963,446.242,451.288,456.9,461.0832,463.671,467.95,473.824,479.334,487.751,492.585,498.6606,501.244,504.534,510.408,515.454" svgx:width="0.83,0.29,0.33,0.58,0.55,0.83,0.5,0.33,0.48,0.4,0.55,0.44,0.55,0.55,0.4,0.61,0.29,0.58,0.5,0.33,0.29,0.55,0.58,0.55,0.83,0.48,0.4,0.48,0.55,0.55,0.6,0.33,0.29,0.88,0.29,0.5,0.48,0.61,0.55,0.55,0.56,0.55,0.77,0.56,0.61,0.55,0.44,0.5,0.29,0.44,0.6,0.29,0.5,0.33,0.29,0.55,0.58,0.42,0.25,0.55,0.61,0.58,0.48,0.55,0.5,0.58,0.33,0.29,0.55,0.52,0.29,0.61,0.5,0.58,0.33,0.55,0.5,0.42,0.42,0.5,0.56,0.42,0.55,0.42,0.58,0.55,0.83,0.48,0.61,0.55,0.33,0.58,0.5,0.33" style="fill:rgb(0,0,0);font-family:URWPalladioL-Roma;font-size:9.96px;stroke:none;">with water coordination were optimized by DFT calculations. The antioxidant assays showed that</text>
   <text y="524.771" x="82.205,85.589,91.239,96.106,102.315,107.396" svgx:width="0.33,0.56,0.48,0.61,0.5,0.5" style="fill:rgb(0,0,0);font-family:URWPalladioL-Roma;font-size:9.96px;stroke:none;">[FeL14</text>
   <text y="524.771" x="112.477" svgx:width="0.25" style="fill:rgb(0,0,0);font-family:Pxsy;font-size:9.96px;stroke:none;">·</text>
   <text y="524.771" x="114.967" svgx:width="0.83" style="fill:rgb(0,0,0);font-family:URWPalladioL-Roma;font-size:9.96px;stroke:none;">H</text>
   <text y="526.636" x="123.422" svgx:width="0.5" style="fill:rgb(0,0,0);font-family:URWPalladioL-Roma;font-size:7.57px;stroke:none;">2</text>
   <text y="524.771" x="127.706,135.693" svgx:width="0.79,0.33" style="fill:rgb(0,0,0);font-family:URWPalladioL-Roma;font-size:9.96px;stroke:none;">O]</text>
   <text y="521.155" x="139.077" svgx:width="0.67" style="fill:rgb(0,0,0);font-family:Rpxr;font-size:7.57px;stroke:none;">+</text>
   <text y="524.771" x="147.545,156.02,161.101,165.2842,168.316,173.397,179.016,181.973,186.7538,189.747,193.06,198.538,201.515,205.823,210.335,215.416,221.157,226.025,231.939,237.589,242.3698,245.353,249.661,255.311,261.226,264.538,270.453,275.32,278.633,281.59,285.9724,289.008,293.022,298.103,304.312,307.269,311.781,316.862,319.819,324.0022,327.034,335.509,338.466,341.779,347.5558,350.599,359.572,365.12,371.329,376.197,380.211,385.292,388.604,393.3848,396.378,400.89,405.971,412.078,417.159,421.671,424.628,427.941,432.483,434.973,438.032,446.507,452.421,457.288,461.119,465.987,471.068,475.2512,478.283,481.596,487.51,492.2908,495.284,500.832,504.145,510.059,514.926" svgx:width="0.83,0.5,0.42,0.55,0.5,0.55,0.29,0.48,0.55,0.33,0.55,0.55,0.42,0.44,0.5,0.56,0.48,0.58,0.56,0.48,0.55,0.42,0.56,0.58,0.33,0.58,0.48,0.33,0.29,0.44,0.55,0.4,0.5,0.61,0.29,0.44,0.5,0.29,0.42,0.55,0.83,0.29,0.33,0.58,0.55,0.88,0.55,0.61,0.48,0.4,0.5,0.33,0.48,0.55,0.44,0.5,0.6,0.5,0.44,0.29,0.33,0.56,0.25,0.55,0.83,0.58,0.48,0.4,0.48,0.5,0.42,0.55,0.33,0.58,0.48,0.55,0.55,0.33,0.58,0.48,0.4" style="fill:rgb(0,0,0);font-family:URWPalladioL-Roma;font-size:9.96px;stroke:none;">was able to scavenge synthetic radicals with moderate capacity, whereas the other</text>
   <text y="538.28" x="82.205,90.984,95.747,98.988,103.96,106.8484,109.329,113.743,119.53,124.292,127.186,132.157,135.398,140.161,144.3442,146.852,152.927,155.821,161.8966,164.371,170.158,175.587,178.8738,181.304,185.519,191.306,196.735,205.0018,207.503,211.718,214.612,220.14,225.926,228.82,234.835,239.25,244.221,250.008,253.2948,255.735,260.706,265.12,268.362,271.255,276.873,279.766,282.997,287.422,289.91200000000003,293.397,299.492,305.269,310.0498,312.517,319.159,324.13,332.91,337.881,343.65779999999995,346.143,350.359,356.335,361.097,365.512,368.753,372.601,378.596,389.851,395.28,398.5668,401.067,408.762,414.768,420.773,429.0398,431.521,434.414,440.19079999999997,442.677,446.892,452.321,455.215,461.21,464.451,467.345,472.773,478.5498,481.036,485.251,491.247,496.775,502.303,507.066,511.281,514.523" svgx:width="0.88,0.48,0.33,0.5,0.29,0.55,0.44,0.58,0.48,0.29,0.5,0.33,0.48,0.42,0.55,0.61,0.29,0.61,0.55,0.58,0.55,0.33,0.55,0.42,0.58,0.55,0.83,0.55,0.42,0.29,0.56,0.58,0.29,0.61,0.44,0.5,0.58,0.33,0.55,0.5,0.44,0.33,0.29,0.56,0.29,0.33,0.56,0.25,0.55,0.61,0.58,0.48,0.55,0.67,0.5,0.88,0.5,0.58,0.55,0.42,0.6,0.48,0.44,0.33,0.4,0.6,0.88,0.55,0.33,0.55,0.77,0.6,0.6,0.83,0.55,0.29,0.58,0.55,0.42,0.55,0.29,0.6,0.33,0.29,0.55,0.58,0.55,0.42,0.6,0.56,0.56,0.48,0.42,0.33,0.42" style="fill:rgb(0,0,0);font-family:URWPalladioL-Roma;font-size:9.96px;stroke:none;">metal chelates did not show signiﬁcant activity. The Raman spectrumof DPPH in solution suggests</text>
   <text y="551.79" x="82.205,85.518,91.432,96.513,99.7998,102.559,105.516,111.43,114.743,119.611,123.625,128.706,133.218,136.53,139.487,145.036,150.8128,153.694,162.169,167.25,171.4332,174.292,179.84,185.947,190.815,194.829,199.91,203.223,206.18,211.921,216.7018,219.522,225.142,230.009,233.322,241.797,246.664,251.532,257.3088,260.19,263.503,269.417,274.1978,277.018,282.668" svgx:width="0.33,0.58,0.5,0.33,0.55,0.29,0.58,0.33,0.48,0.4,0.5,0.44,0.33,0.29,0.55,0.58,0.55,0.83,0.5,0.42,0.55,0.55,0.6,0.48,0.4,0.5,0.33,0.29,0.56,0.48,0.55,0.55,0.48,0.33,0.83,0.48,0.48,0.58,0.55,0.33,0.58,0.48,0.55,0.56,0.48" style="fill:rgb(0,0,0);font-family:URWPalladioL-Roma;font-size:9.96px;stroke:none;">that interaction was operative between the Fe</text>
   <text y="548.173" x="287.535" svgx:width="0.5" style="fill:rgb(0,0,0);font-family:URWPalladioL-Roma;font-size:7.57px;stroke:none;">3</text>
   <text y="548.173" x="291.321" svgx:width="0.67" style="fill:rgb(0,0,0);font-family:Rpxr;font-size:7.57px;stroke:none;">+</text>
   <text y="551.79" x="299.622,304.134,310.048,314.916,317.873,322.954,326.266,331.0468,333.867,338.948,344.863,350.9386,353.815,357.128,363.042,367.8228,370.643,374.657,379.738,385.947,388.904,393.416,398.497,401.3854,404.188,408.496,413.974,416.788,421.869,426.0522,428.911,432.224,437.702,440.516,445.018,450.099,456.226,460.535,465.3158,468.146,472.455,476.967,482.048,487.789,492.657,498.571,504.221,507.178,513.092" svgx:width="0.44,0.58,0.48,0.29,0.5,0.33,0.48,0.55,0.5,0.58,0.61,0.55,0.33,0.58,0.48,0.55,0.4,0.5,0.61,0.29,0.44,0.5,0.29,0.55,0.42,0.55,0.55,0.5,0.42,0.55,0.33,0.55,0.55,0.44,0.5,0.6,0.42,0.48,0.55,0.42,0.44,0.5,0.56,0.48,0.58,0.56,0.29,0.58,0.56" style="fill:rgb(0,0,0);font-family:URWPalladioL-Roma;font-size:9.96px;stroke:none;">chelate and the radical so as to cause scavenging</text>
   <text y="565.299" x="82.205,86.54,91.422,97.289,102.171,107.57,110.411,113.252,116.094,119.276,123.602,126.092,129.479,135.464,141.146,145.9268,148.186,153.868,158.75,161.933,167.82,171.501,176.2818,178.54,183.871,187.1578,189.485,192.668,198.35,203.1308,205.389,209.724,214.401,220.083,223.266,227.122,232.004,234.89239999999998,237.198,245.819,250.496,253.679,258.56,261.4484,263.764,266.605,271.936,277.618,281.8012,284.121,286.962,291.1452,293.464,298.444,300.709,305.044,310.374,316.057,319.24,322.92,328.251,331.092,333.933,336.775,342.457,348.0346,350.248,353.499,358.381,362.716,365.899,371.229,375.21299999999997,377.439,380.69,386.021,390.005,392.24,397.122,402.804,405.987,408.828,414.159,419.197,422.038,428.003,432.885,438.567,441.85380000000004,444.113,448.448,453.329,459.197,464.079,468.414,471.255,474.438,478.763,481.253,483.596,488.478,492.6612,494.97,499.647,505.163,509.84,513.696" svgx:width="0.44,0.5,0.6,0.5,0.55,0.29,0.29,0.29,0.33,0.56,0.25,0.55,0.61,0.58,0.48,0.55,0.58,0.5,0.33,0.6,0.4,0.48,0.55,0.55,0.33,0.55,0.33,0.58,0.48,0.55,0.44,0.48,0.58,0.33,0.4,0.5,0.29,0.55,0.88,0.48,0.33,0.5,0.29,0.55,0.29,0.55,0.58,0.42,0.55,0.29,0.42,0.55,0.5,0.55,0.44,0.55,0.58,0.33,0.4,0.55,0.29,0.29,0.29,0.58,0.56,0.55,0.33,0.5,0.44,0.33,0.55,0.4,0.55,0.33,0.55,0.4,0.55,0.5,0.58,0.33,0.29,0.55,0.52,0.29,0.61,0.5,0.58,0.33,0.55,0.44,0.5,0.6,0.5,0.44,0.29,0.33,0.56,0.25,0.55,0.5,0.42,0.55,0.48,0.56,0.48,0.4,0.56" style="fill:rgb(0,0,0);font-family:URWPalladioL-Roma;font-size:9.96px;stroke:none;">capability. The nature of the central metal ions is a controlling factor for antioxidant capacity, as every</text>
   <text y="578.809" x="82.205,91.002,95.774,99.022,104.003,106.8914,109.393,113.816,119.615,124.387,127.286,132.267,135.515,140.29579999999999,142.778,147.201,152.182,156.118,160.053,162.952,167.724,171.9072,174.439,177.687,183.485,188.2658,190.747,194.972,199.953,208.75,213.5308,216.013,220.436,225.876,231.315,235.071,241.158,244.057,249.856,254.837,258.085,260.984,266.423,272.1998,274.712,280.251,285.024,290.463,299.26,304.032,307.28,311.215,315.649" svgx:width="0.88,0.48,0.33,0.5,0.29,0.55,0.44,0.58,0.48,0.29,0.5,0.33,0.48,0.55,0.44,0.5,0.4,0.4,0.29,0.48,0.42,0.55,0.33,0.58,0.48,0.55,0.42,0.5,0.88,0.48,0.55,0.44,0.55,0.55,0.4,0.61,0.29,0.58,0.5,0.33,0.29,0.55,0.58,0.55,0.56,0.48,0.55,0.88,0.48,0.33,0.4,0.56,0.25" style="fill:rgb(0,0,0);font-family:URWPalladioL-Roma;font-size:9.96px;stroke:none;">metal chelate carries the same coordination geometry.</text>
   <text y="604.273" x="82.205,89.956,94.937,100.476,108.775,114.314,118.19,124.277,128.7" svgx:width="0.78,0.5,0.56,0.83,0.56,0.39,0.61,0.44,0.25" style="fill:rgb(0,0,0);font-family:URWPalladioL-Bold;font-size:9.96px;stroke:none;">Keywords:</text>
   <text y="604.273" x="134.681,137.935,141.878,146.87,152.679,156.912,159.817,163.071,165.976,171.427,177.2038,179.732,188.547,193.328,196.583,201.574,204.4624,206.964,211.397,216.847,225.662,231.661,234.566,239.348,244.499,249.28,253.513,256.003,258.504,267.319,272.31,276.742,280.506,285.956,290.388,295.939,300.371,303.276,308.057,310.547,313.049,317.481,322.931,328.382,332.145,338.245,341.15,346.959,351.951,355.205,358.11,363.56,369.3368,371.866,376.298,382.108,386.889,395.704,398.609,402.842,406.086,410.029,415.579,418.069,420.571,423.825,429.635,434.416,439.867,443.63,448.412,451.666,454.571,459.003,463.995,466.8834,469.395,473.827,478.819,481.723,486.156,492.175,495.08,500.071,503.326,506.231,511.681,517.491" svgx:width="0.33,0.4,0.5,0.58,0.42,0.29,0.33,0.29,0.55,0.58,0.55,0.88,0.48,0.33,0.5,0.29,0.55,0.44,0.55,0.88,0.6,0.29,0.48,0.52,0.48,0.42,0.25,0.55,0.88,0.5,0.44,0.4,0.55,0.44,0.56,0.44,0.29,0.48,0.25,0.55,0.44,0.55,0.55,0.4,0.61,0.29,0.58,0.5,0.33,0.29,0.55,0.58,0.55,0.44,0.58,0.48,0.88,0.29,0.42,0.33,0.4,0.56,0.25,0.55,0.33,0.58,0.48,0.55,0.4,0.48,0.33,0.29,0.44,0.5,0.29,0.55,0.44,0.5,0.29,0.44,0.6,0.29,0.5,0.33,0.29,0.55,0.58,0.25" style="fill:rgb(0,0,0);font-family:URWPalladioL-Roma;font-size:9.96px;stroke:none;">transition metal complexes; macrocycle; coordination chemistry; theoretical calculation;</text>
   <text y="617.783" x="82.205,87.186,92.985,96.232,99.131,104.571,109.712,112.611,118.698,123.679,129.478" svgx:width="0.5,0.58,0.33,0.29,0.55,0.52,0.29,0.61,0.5,0.58,0.33" style="fill:rgb(0,0,0);font-family:URWPalladioL-Roma;font-size:9.96px;stroke:none;">antioxidant</text>
  </g>
  <path style="fill:none;stroke:rgb(0,0,0);stroke-width:1.0;" d="M76.54 634.14 L518.74 634.14 "/>
  <g begin="text">
   <text y="666.126" x="76.535,81.516,84.006,87.494,91.369,97.456,100.774,104.649,110.189,116.276,122.363,126.786,130.104,133.421,138.961" svgx:width="0.5,0.25,0.55,0.39,0.61,0.33,0.39,0.56,0.61,0.61,0.44,0.33,0.33,0.56,0.61" style="fill:rgb(0,0,0);font-family:URWPalladioL-Bold;font-size:9.96px;stroke:none;">1. Introduction</text>
   <text y="685.613" x="97.795,103.914,109.724,114.5048,116.991,122.991,126.754,131.536,137.176,141.958,147.768,151.022,153.927,159.377,165.15380000000002,167.683,173.133,177.11700000000002,179.562,183.325,188.107,194.206,200.226,204.658,207.912,210.817,216.268,222.0448,224.563,230.014,233.3008,235.833,240.266,245.047,247.952,250.8404,253.343,259.442,264.433,273.248,278.239,283.789,288.5698,291.057,295.489,300.48,306.5,310.732,315.514,321.5896,324.109,329.629,335.20660000000004,337.665,340.989,344.753,349.534,354.3148,356.802,360.745,365.736,371.835,374.74,379.172,384.164,387.069,391.2522,393.797,396.702,400.8852,403.42,408.87,412.15680000000003,414.68,420.231,423.994,428.776,433.767,437.0538,439.517,443.949,449.969,453.912,457.675,462.457,468.266,471.55280000000005,474.006,478.998,484.808,490.8836,493.393,497.336,500.241,504.473,507.378,513.188" svgx:width="0.61,0.58,0.48,0.55,0.6,0.4,0.48,0.56,0.48,0.58,0.33,0.29,0.55,0.58,0.55,0.55,0.4,0.55,0.4,0.48,0.61,0.6,0.44,0.33,0.29,0.55,0.58,0.55,0.55,0.33,0.55,0.44,0.48,0.29,0.29,0.55,0.61,0.5,0.88,0.5,0.56,0.48,0.55,0.44,0.5,0.6,0.42,0.48,0.61,0.55,0.55,0.56,0.55,0.33,0.4,0.48,0.48,0.55,0.4,0.5,0.61,0.29,0.44,0.5,0.29,0.42,0.55,0.29,0.42,0.55,0.55,0.33,0.55,0.56,0.4,0.48,0.5,0.33,0.55,0.44,0.6,0.4,0.4,0.48,0.58,0.33,0.55,0.5,0.58,0.61,0.55,0.4,0.29,0.42,0.29,0.58,0.56" style="fill:rgb(0,0,0);font-family:URWPalladioL-Roma;font-size:9.96px;stroke:none;">The prevention or reduction of cell damage caused by free radicals is of great current and rising</text>
   <text y="699.123" x="76.535,80.87,86.201,91.883,96.218,100.895,104.751,110.433,112.923,116.233,125.449,128.29,131.473,137.24980000000002,139.255,142.438,148.12,152.9008,154.896,157.737,163.419,166.602,171.279,176.961,180.144,182.985,188.316,194.0928,196.097,201.428,204.7148,206.778,210.918,216.249,219.09,224.606,227.447,233.129,238.70659999999998,240.657,243.84,249.522,252.363,256.5462,258.602,264.47,268.15,273.481,278.88,281.722,286.398,295.019,297.509,299.637,304.617,306.618,314.761,317.602,323.567,328.3478,330.343,335.859,340.741,344.597,347.439,352.115,355.298,360.8756,362.826,368.156,371.44280000000003,373.507,377.646,383.075,388.757,391.94,397.622,402.299,405.482,408.323,412.7054,414.757,419.639,425.321,428.504,431.345,436.676,441.714,444.555,450.52,455.402,461.084,464.267,468.4502,470.506,475.387,481.07,487.1456,489.134,492.991,497.872,503.838,506.679,511.014,515.896" svgx:width="0.44,0.55,0.58,0.44,0.48,0.4,0.58,0.25,0.55,1.0,0.29,0.33,0.58,0.55,0.33,0.58,0.48,0.55,0.29,0.58,0.33,0.48,0.58,0.33,0.29,0.55,0.58,0.55,0.55,0.33,0.55,0.42,0.55,0.29,0.56,0.29,0.58,0.56,0.55,0.33,0.58,0.29,0.42,0.55,0.6,0.4,0.55,0.55,0.29,0.48,0.88,0.25,0.55,0.5,0.55,0.83,0.29,0.61,0.48,0.55,0.56,0.5,0.4,0.29,0.48,0.33,0.56,0.55,0.55,0.33,0.55,0.42,0.56,0.58,0.33,0.58,0.48,0.33,0.29,0.44,0.55,0.5,0.58,0.33,0.29,0.55,0.52,0.29,0.61,0.5,0.58,0.33,0.42,0.55,0.5,0.58,0.61,0.55,0.4,0.5,0.61,0.29,0.44,0.5,0.29" style="fill:rgb(0,0,0);font-family:URWPalladioL-Roma;font-size:9.96px;stroke:none;">concern. With the intention of solving this problem, a wide variety of synthetic antioxidants and radical</text>
   <text y="712.632" x="76.535,80.692,85.044,89.946,95.485,100.18,105.886,111.336,116.032,119.904,124.0872,126.561,132.266,137.168,142.707,147.4878,149.902,155.323,160.019,164.715,170.4918,172.93,178.92,183.615,189.154,193.85,196.703,202.055,207.947,212.643,218.7186,221.132,223.985,229.76180000000002,232.19,238.082,243.787,248.689,252.561,261.217,266.119,270.472,275.167,281.079,284.275,287.127,291.48,296.382,299.2704,301.734,306.636,312.341,318.4166,320.831,326.536,332.448,335.643,339.516,342.368,345.564,348.417,353.769,359.475,364.377,367.2654,369.729,375.66,380.356,383.208,389.198,393.3812,395.864" svgx:width="0.42,0.44,0.5,0.56,0.48,0.58,0.56,0.48,0.4,0.42,0.55,0.58,0.5,0.56,0.48,0.55,0.55,0.48,0.48,0.58,0.55,0.61,0.48,0.56,0.48,0.29,0.55,0.6,0.48,0.61,0.55,0.29,0.58,0.55,0.6,0.58,0.5,0.4,0.88,0.5,0.44,0.48,0.6,0.33,0.29,0.44,0.5,0.29,0.55,0.5,0.58,0.61,0.55,0.58,0.6,0.33,0.4,0.29,0.33,0.29,0.55,0.58,0.5,0.29,0.55,0.61,0.48,0.29,0.61,0.42,0.55,0.33" style="fill:rgb(0,0,0);font-family:URWPalladioL-Roma;font-size:9.96px;stroke:none;">scavengers have been developed in pharmaceutical and nutritional ﬁelds [</text>
   <text y="712.632" x="399.125" svgx:width="0.5" style="fill:rgb(8,117,183);font-family:URWPalladioL-Roma;font-size:9.96px;stroke:none;">1</text>
   <text y="712.632" x="404.107,407.371,409.861,413.342,421.498,426.85,435.507,440.202,445.555,449.711,452.907,457.809,461.965,464.818,469.0012,471.475,476.376,481.827,486.728,489.581,495.287,499.443,502.7298,505.139,508.335,514.04" svgx:width="0.33,0.25,0.55,0.83,0.55,0.88,0.48,0.55,0.42,0.33,0.5,0.42,0.29,0.42,0.55,0.5,0.56,0.5,0.29,0.58,0.42,0.33,0.55,0.33,0.58,0.48" style="fill:rgb(0,0,0);font-family:URWPalladioL-Roma;font-size:9.96px;stroke:none;">]. Homeostasis against the</text>
   <text y="726.141" x="76.535,81.616,86.128,89.441,92.398,97.946,103.72279999999999,106.563,112.112,115.3988,118.209,121.593,125.424,130.291,135.0718,137.872,141.886,146.967,153.176,156.133,160.645,165.726,168.683,172.8662,175.694,180.775,186.689,192.7646,195.601,200.682,205.194,208.507,211.464,217.205,221.9858,224.786,230.335,235.578,241.228,246.878,251.746,257.5228,260.363,264.672,270.779,275.646,280.158,283.115,287.983,292.1662,294.994,297.952,302.1352,304.973,313.946,319.027,321.984,327.899,331.211,336.292,339.249,345.164,350.031,356.1066,358.943,361.9,367.67679999999996,370.528,375.039,379.907,382.864,385.821,390.0042,392.833,398.452,404.0296,406.805,411.785,414.6,418.908,425.015,429.883,434.395,437.352,442.433,445.39,448.347,453.428,458.295,464.3706,467.207,472.288,478.203,481.515,484.472,490.021,495.264,498.221,504.43,509.511,515.425" svgx:width="0.5,0.44,0.33,0.29,0.55,0.58,0.55,0.55,0.33,0.55,0.33,0.4,0.48,0.48,0.55,0.4,0.5,0.61,0.29,0.44,0.5,0.29,0.42,0.55,0.5,0.58,0.61,0.55,0.5,0.44,0.33,0.29,0.56,0.48,0.55,0.55,0.52,0.56,0.56,0.48,0.58,0.55,0.42,0.6,0.48,0.44,0.29,0.48,0.42,0.55,0.29,0.42,0.55,0.88,0.5,0.29,0.58,0.33,0.5,0.29,0.58,0.48,0.61,0.55,0.29,0.58,0.55,0.44,0.48,0.29,0.29,0.42,0.55,0.55,0.56,0.55,0.5,0.55,0.42,0.6,0.48,0.44,0.29,0.5,0.29,0.29,0.5,0.48,0.61,0.55,0.5,0.58,0.33,0.29,0.55,0.52,0.29,0.61,0.5,0.58,0.33" style="fill:rgb(0,0,0);font-family:URWPalladioL-Roma;font-size:9.96px;stroke:none;">action of free radicals and active oxygen species is maintained in cells by a specialized antioxidant</text>
   <text y="739.651" x="76.535,82.438,87.296,90.602,99.06,104.598,108.604,114.243,116.73299999999999,119.283,127.742,133.644,138.502,142.326,147.1068,149.689,153.989,160.104,166.2,171.058,174.881,180.419,185.652,188.603,194.8,199.5808,202.163,208.36,211.311,215.611,224.567,230.682,233.988,239.059,243.36,248.1408,250.723,255.226,260.763,266.666,272.396,277.254,281.26,284.566,288.7492,291.371" svgx:width="0.58,0.48,0.33,0.83,0.55,0.4,0.56,0.25,0.55,0.83,0.58,0.48,0.4,0.48,0.55,0.42,0.6,0.6,0.48,0.4,0.55,0.52,0.29,0.61,0.48,0.55,0.61,0.29,0.42,0.88,0.6,0.33,0.5,0.42,0.48,0.55,0.44,0.55,0.58,0.56,0.48,0.4,0.33,0.42,0.55,0.79" style="fill:rgb(0,0,0);font-family:URWPalladioL-Roma;font-size:9.96px;stroke:none;">network, where superoxide dismutase converts O</text>
   <text y="741.516" x="299.339" svgx:width="0.5" style="fill:rgb(0,0,0);font-family:URWPalladioL-Roma;font-size:7.57px;stroke:none;">2</text>
   <text y="736.034" x="303.623,307.583" svgx:width="0.52,0.67" style="fill:rgb(0,0,0);font-family:Pxsy;font-size:7.57px;stroke:none;">•−</text>
   <text y="739.651" x="315.65,318.956,324.434,326.999" svgx:width="0.33,0.55,0.55,0.83" style="fill:rgb(0,0,0);font-family:URWPalladioL-Roma;font-size:9.96px;stroke:none;">to H</text>
   <text y="741.516" x="335.434" svgx:width="0.5" style="fill:rgb(0,0,0);font-family:URWPalladioL-Roma;font-size:7.57px;stroke:none;">2</text>
   <text y="739.651" x="339.718" svgx:width="0.79" style="fill:rgb(0,0,0);font-family:URWPalladioL-Roma;font-size:9.96px;stroke:none;">O</text>
   <text y="741.516" x="347.689" svgx:width="0.5" style="fill:rgb(0,0,0);font-family:URWPalladioL-Roma;font-size:7.57px;stroke:none;">2</text>
   <text y="739.651" x="354.476,360.014,363.998,366.525,375.48,381.017,383.969,388.827,393.33,399.445,402.397,407.468,411.452,413.969,419.506,424.739,430.378,436.017,440.875,446.778,449.26800000000003,452.843,459.06,464.962,469.7428,472.325,476.625,482.741,487.244,491.747,496.605,500.905,505.205,508.157,513.887" svgx:width="0.55,0.4,0.55,0.88,0.55,0.29,0.48,0.44,0.6,0.29,0.5,0.4,0.55,0.55,0.52,0.56,0.56,0.48,0.58,0.25,0.55,0.61,0.58,0.48,0.55,0.42,0.6,0.44,0.44,0.48,0.42,0.42,0.29,0.56,0.48" style="fill:rgb(0,0,0);font-family:URWPalladioL-Roma;font-size:9.96px;stroke:none;">or molecular oxygen. The successive</text>
   <text y="753.16" x="76.535,81.047,86.595,92.509,98.251,103.118,107.132,111.441,114.398,119.946,125.72279999999999,129.56,135.108,138.3948,142.191" svgx:width="0.44,0.55,0.58,0.56,0.48,0.4,0.42,0.29,0.55,0.58,0.55,0.55,0.33,0.55,0.83" style="fill:rgb(0,0,0);font-family:URWPalladioL-Roma;font-size:9.96px;stroke:none;">conversion of H</text>
   <text y="755.025" x="150.648" svgx:width="0.5" style="fill:rgb(0,0,0);font-family:URWPalladioL-Roma;font-size:7.57px;stroke:none;">2</text>
   <text y="753.16" x="154.932" svgx:width="0.79" style="fill:rgb(0,0,0);font-family:URWPalladioL-Roma;font-size:9.96px;stroke:none;">O</text>
   <text y="755.025" x="162.919" svgx:width="0.5" style="fill:rgb(0,0,0);font-family:URWPalladioL-Roma;font-size:7.57px;stroke:none;">2</text>
   <text y="753.16" x="170.904,174.217,179.69500000000002,183.464,191.939,197.02,200.333,205.2,209.184,212.913,217.994,223.908,229.9836,233.816,239.364,244.608,250.258,255.908,260.775,266.55179999999996,270.399,273.346,277.5292,281.363,285.875,290.956,294.269,299.35,302.307,307.957,313.038,317.905,323.9806,327.813,333.433,339.0106,342.782,347.293,352.374,355.687,360.768,363.725,368.806,373.115,377.8958,381.681,386.762,392.676,398.7516,402.584,408.691,413.559,417.4,422.948,428.192,431.139,437.348,442.429,446.737,451.5178,455.314,460.182,466.096,471.177,476.827,485.8,490.667,494.8502,498.675" svgx:width="0.33,0.55,0.55,0.83,0.5,0.33,0.48,0.4,0.55,0.5,0.58,0.61,0.55,0.55,0.52,0.56,0.56,0.48,0.58,0.55,0.29,0.42,0.55,0.44,0.5,0.33,0.5,0.29,0.56,0.5,0.48,0.61,0.55,0.55,0.56,0.55,0.44,0.5,0.33,0.5,0.29,0.5,0.42,0.48,0.55,0.5,0.58,0.61,0.55,0.6,0.48,0.4,0.55,0.52,0.29,0.61,0.5,0.42,0.48,0.55,0.48,0.58,0.5,0.56,0.88,0.48,0.42,0.55,0.33" style="fill:rgb(0,0,0);font-family:URWPalladioL-Roma;font-size:9.96px;stroke:none;">to water and oxygen is catalyzed by catalase and peroxidase enzymes [</text>
   <text y="753.16" x="502.056" svgx:width="0.5" style="fill:rgb(8,117,183);font-family:URWPalladioL-Roma;font-size:9.96px;stroke:none;">2</text>
   <text y="753.16" x="507.038" svgx:width="0.25" style="fill:rgb(0,0,0);font-family:URWPalladioL-Roma;font-size:9.96px;stroke:none;">,</text>
   <text y="753.16" x="509.578" svgx:width="0.5" style="fill:rgb(8,117,183);font-family:URWPalladioL-Roma;font-size:9.96px;stroke:none;">3</text>
   <text y="753.16" x="514.559,517.943" svgx:width="0.33,0.25" style="fill:rgb(0,0,0);font-family:URWPalladioL-Roma;font-size:9.96px;stroke:none;">].</text>
   <text y="799.37" x="76.535,84.059,87.598,89.813,92.914,96.157,100.589,102.804,105.905" svgx:width="0.94,0.44,0.28,0.39,0.41,0.56,0.28,0.39,0.39" style="fill:rgb(0,0,0);font-family:URWPalladioL-Ital;font-size:7.97px;stroke:none;">Molecules</text>
   <text y="799.37" x="110.998,114.983,118.968,122.953" svgx:width="0.5,0.5,0.5,0.5" style="fill:rgb(0,0,0);font-family:URWPalladioL-Bold;font-size:7.97px;stroke:none;">2019</text>
   <text y="799.37" x="126.938" svgx:width="0.25" style="fill:rgb(0,0,0);font-family:URWPalladioL-Roma;font-size:7.97px;stroke:none;">,</text>
   <text y="799.37" x="130.923,134.908" svgx:width="0.5,0.5" style="fill:rgb(0,0,0);font-family:URWPalladioL-Ital;font-size:7.97px;stroke:none;">24</text>
   <text y="799.37" x="138.893,140.8855,142.878,146.863,150.848,154.833,158.818,160.81050000000002,162.803,167.673,172.025,174.344,176.337,180.322,184.307,186.299,190.284,194.269,198.254" svgx:width="0.25,0.55,0.5,0.5,0.5,0.5,0.25,0.55,0.61,0.55,0.29,0.25,0.5,0.5,0.25,0.5,0.5,0.5,0.5" style="fill:rgb(0,0,0);font-family:URWPalladioL-Roma;font-size:7.97px;stroke:none;">, 3556; doi:10.3390</text>
   <text y="799.37" x="202.239" svgx:width="0.29" style="fill:rgb(0,0,0);font-family:Rpxr;font-size:7.97px;stroke:none;">/</text>
   <text y="799.37" x="204.527,211.565,215.916,218.236,222.053,225.592,230.398,232.717,236.535,239.914,243.899,247.884,251.869,255.854,259.839,263.825,267.81,271.795,396.527,403.174,409.821,415.735,417.727,424.765,429.634,434.424,436.744,438.736,442.275,446.627" svgx:width="0.88,0.55,0.29,0.48,0.44,0.6,0.29,0.48,0.42,0.5,0.5,0.5,0.5,0.5,0.5,0.5,0.5,0.55,0.83,0.83,0.83,0.25,0.88,0.61,0.6,0.29,0.25,0.44,0.55,0.88" style="fill:rgb(0,0,0);font-family:URWPalladioL-Roma;font-size:7.97px;stroke:none;">molecules24193556 www.mdpi.com</text>
   <text y="799.37" x="453.665" svgx:width="0.29" style="fill:rgb(0,0,0);font-family:Rpxr;font-size:7.97px;stroke:none;">/</text>
   <text y="799.37" x="455.953,457.818,462.17,466.976,470.124,474.762,478.747" svgx:width="0.23,0.55,0.6,0.4,0.58,0.5,0.29" style="fill:rgb(0,0,0);font-family:URWPalladioL-Roma;font-size:7.97px;stroke:none;">journal</text>
   <text y="799.37" x="481.066" svgx:width="0.29" style="fill:rgb(0,0,0);font-family:Rpxr;font-size:7.97px;stroke:none;">/</text>
   <text y="799.37" x="483.353,490.391,494.742,497.062,500.879,504.418,509.224,511.543,515.361" svgx:width="0.88,0.55,0.29,0.48,0.44,0.6,0.29,0.48,0.42" style="fill:rgb(0,0,0);font-family:URWPalladioL-Roma;font-size:7.97px;stroke:none;">molecules</text>
  </g>
 </g>
</svg>
