<?xml version="1.0" encoding="UTF-8"?>
<svg height="774.244" width="4165.638" xmlns="http://www.w3.org/2000/svg">
 <g id="page" xmlns:svgx="http://www.xml-cml.org/schema/svgx">
  <path style="fill:rgb(206,221,228);stroke:none;stroke-width:1.0;" d="M382.56 8.59 L382.56 26.39 L548.65 26.39 C548.65 26.39 554.31 26.39 554.31 20.72 L554.31 8.59 Z"/>
  <g begin="text">
   <text y="764.23" x="550.106" svgx:width="0.45" style="fill:rgb(206,221,228);font-family:Corbel2;font-size:10.0px;stroke:none;">3</text>
   <text y="764.244" x="40.794,45.842,50.946,53.586,58.562,64.818,69.81,72.45,77.05,79.69" svgx:width="0.58,0.58,0.28,0.57,0.73,0.57,0.28,0.52,0.28,0.58" style="fill:rgb(0,0,0);font-family:Corbel-Bold2;font-size:8.0px;stroke:none;">Scientific</text>
   <text y="764.244" x="84.65" svgx:width="0.2" style="fill:rgb(0,0,0);font-family:Corbel2;font-size:8.0px;stroke:none;"> </text>
   <text y="764.244" x="86.25,91.706,96.682,101.922,108.226,113.682,118.674" svgx:width="0.63,0.57,0.6,0.73,0.63,0.57,0.58" style="fill:rgb(0,0,0);font-family:Corbel-Bold2;font-size:8.0px;stroke:none;">RepoRtS</text>
   <text y="764.244" x="123.57,125.01,126.826" svgx:width="0.2,0.23,0.2" style="fill:rgb(0,0,0);font-family:Corbel2;font-size:8.0px;stroke:none;"> | </text>
   <text y="764.244" x="128.266,129.722,131.178,132.634,134.09,135.546,137.002,138.458,139.914,142.186,146.122,150.058,153.994,157.93,160.202,161.658,165.594,167.282,171.218,175.154,179.09,183.026,186.962" svgx:width="0.18,0.18,0.18,0.18,0.18,0.18,0.18,0.18,0.28,0.49,0.49,0.49,0.49,0.28,0.18,0.49,0.21,0.49,0.49,0.49,0.49,0.49,0.18" style="fill:rgb(0,0,0);font-family:MyriadPro-It;font-size:8.0px;stroke:none;"> (2019) 9:18354 </text>
   <text y="764.244" x="188.418,189.858,191.674" svgx:width="0.2,0.23,0.2" style="fill:rgb(0,0,0);font-family:Corbel2;font-size:8.0px;stroke:none;"> | </text>
   <text y="764.244" x="193.114,197.37,200.146,202.922,207.17,210.402,212.514,214.714,216.914,221.202,225.466,227.322,229.434,233.698,236.378,240.626,242.826,246.93,251.034,253.146,257.25,261.354,265.458,269.562,271.762,274.994,279.098,283.202,287.306,291.41,295.514,298.178,302.282,306.386,310.49,313.154,317.258,321.362,325.466,329.57,333.674,336.338" svgx:width="0.53,0.35,0.35,0.53,0.4,0.26,0.28,0.28,0.54,0.53,0.23,0.26,0.53,0.34,0.53,0.28,0.51,0.51,0.26,0.51,0.51,0.51,0.51,0.28,0.4,0.51,0.51,0.51,0.51,0.51,0.33,0.51,0.51,0.51,0.33,0.51,0.51,0.51,0.51,0.51,0.33,0.51" style="fill:rgb(0,0,0);font-family:Corbel;font-size:8.0px;stroke:none;">https://doi.org/10.1038/s41598-019-54753-3</text>
  </g>
  <g begin="text">
   <text y="22.277" x="389.724,397.484,405.243,412.702,415.869,421.732,427.216,431.234,437.005,440.9,446.465,449.633,454.583,460.508,469.466,472.746,477.349,482.299,485.139,490.699,496.562,500.58,503.419,507.14,509.979,514.93,518.825,524.391,530.295,536.219,540.115,544.133" svgx:width="0.71,0.71,0.71,0.26,0.53,0.49,0.35,0.52,0.34,0.5,0.26,0.44,0.53,0.83,0.28,0.4,0.44,0.23,0.5,0.53,0.35,0.23,0.32,0.23,0.44,0.34,0.5,0.53,0.53,0.34,0.35,0.4" style="fill:rgb(0,0,0);font-family:Corbel2;font-size:10.25px;stroke:none;">www.nature.com/scientificreports</text>
  </g>
  <path style="fill:none;stroke:rgb(0,0,0);stroke-width:1.0;" d="M40.64 752.55 L554.64 752.55 "/>
  <g begin="text">
   <text y="22.46" x="40.638,48.208,55.778,63.055,66.145,71.865,77.215,81.135,86.765,90.565,95.995,99.085,103.915,109.695,118.435,121.635,126.125,130.955,133.725,139.15,144.87,148.79,151.56,155.19,157.96,162.79,166.59,172.02,177.78,183.56,187.36,191.28,195.77" svgx:width="0.71,0.71,0.71,0.26,0.53,0.49,0.35,0.52,0.34,0.5,0.26,0.44,0.53,0.83,0.28,0.4,0.44,0.23,0.5,0.53,0.35,0.23,0.32,0.23,0.44,0.34,0.5,0.53,0.53,0.34,0.35,0.4,0.28" style="fill:rgb(0,0,0);font-family:Corbel2;font-size:10.0px;stroke:none;">www.nature.com/scientificreports/</text>
  </g>
  <g begin="text">
   <text y="550.0" x="155.638,158.91,162.839,166.813,170.121,173.429,178.258,181.7,184.166,189.067,193.391,195.656,199.841,201.857,205.209,207.675,215.096,217.602,219.957,223.876,227.269,229.285,232.026,236.67,238.686,243.343,246.615,250.562,254.806,257.268,261.809,266.611,269.927,272.192,276.377,278.393,282.987,287.613,291.038,294.917,298.566,302.711,306.631,311.433,313.449,318.269,322.107,324.438,326.792,331.625,339.046,342.299,344.765,349.702,354.396,359.224,363.085,367.005,371.811,373.827,377.629,382.459,386.378,391.28,395.469,399.348,402.701,404.717,407.183,412.155,414.171,416.877,421.705,426.606,429.914,432.655,436.53" svgx:width="0.37,0.43,0.44,0.37,0.37,0.53,0.37,0.27,0.55,0.47,0.25,0.46,0.23,0.37,0.27,0.82,0.27,0.25,0.44,0.37,0.23,0.31,0.51,0.23,0.52,0.37,0.43,0.46,0.27,0.51,0.53,0.37,0.25,0.46,0.23,0.51,0.51,0.37,0.43,0.37,0.46,0.43,0.53,0.23,0.53,0.43,0.25,0.27,0.53,0.82,0.36,0.27,0.55,0.53,0.53,0.42,0.43,0.53,0.23,0.42,0.53,0.44,0.55,0.47,0.43,0.37,0.23,0.27,0.55,0.23,0.31,0.53,0.55,0.37,0.31,0.43,0.55" style="fill:rgb(0,0,0);font-family:MinionPro-Regular;font-size:9.0px;stroke:none;">reassuringly similar to previously observed helium-induced changes in tunsten</text>
   <text y="546.94" x="441.425,444.265" svgx:width="0.48,0.48" style="fill:rgb(0,0,255);font-family:MinionPro-Regular;font-size:5.85px;stroke:none;">14</text>
   <text y="550.0" x="447.106,449.122,453.654,458.627,460.643,466.921,471.776,474.242,478.045,482.905,484.921,487.769,492.59,496.464,498.48,503.13,507.31,512.158,516.698,519.547,524.367,528.242,531.599,534.033,537.39,539.406,543.947,548.668,551.467" svgx:width="0.23,0.51,0.55,0.23,0.69,0.53,0.27,0.42,0.53,0.23,0.31,0.53,0.43,0.23,0.53,0.46,0.52,0.51,0.31,0.53,0.43,0.37,0.27,0.37,0.23,0.51,0.53,0.31,0.36" style="fill:rgb(0,0,0);font-family:MinionPro-Regular;font-size:9.0px;stroke:none;"> on which the hypothesis out-</text>
   <text y="559.999" x="155.641,157.918,160.33,165.217,169.086,173.838,175.674,179.553,184.206,188.652,192.747,196.572,198.408,200.793,204.096,205.932,210.549,214.473,217.847,221.717,226.415" svgx:width="0.25,0.27,0.55,0.43,0.53,0.23,0.44,0.51,0.51,0.46,0.43,0.23,0.27,0.37,0.23,0.51,0.44,0.37,0.43,0.53,0.23" style="fill:rgb(0,0,0);font-family:MinionPro-Regular;font-size:9.0px;stroke:none;">lined above is based.</text>
   <text y="569.998" x="167.638,173.632,176.86,181.459,184.723,188.035,191.248,194.63,198.505,202.381,205.178,207.599,212.087,217.019,218.963,224.525,229.646,237.674,239.618,246.998,249.419,253.235,256.463,261.062,265.325,268.673,272.459,277.118,281.858,285.17,287.114,289.919,294.734,297.962,302.459,307.247,311.528,316.343,318.287,321.092,325.869,329.703,331.647,335.463,339.297,344.055,346.851,350.079,353.913,355.857,360.345,363.018,364.962,368.922,370.866,375.767,379.644,384.537,389.136,392.349,394.77,399.663,404.424,408.258,413.016,415.77,417.714,420.135,425.067,427.011,429.815,434.591,438.425,440.369,442.79,449.996,454.655,456.965,460.842,465.599,468.296,472.173,476.934,478.878,486.227,490.013,492.711,496.545,499.944,502.389,506.391,508.677,510.621,514.38,516.666,520.55,524.427,527.736,529.956,534.096,536.04,539.314,544.09,548.542,554.707" svgx:width="0.67,0.37,0.51,0.37,0.37,0.36,0.37,0.43,0.42,0.31,0.27,0.51,0.55,0.23,0.62,0.57,0.89,0.23,0.82,0.27,0.42,0.37,0.51,0.47,0.37,0.44,0.52,0.53,0.37,0.23,0.31,0.53,0.37,0.51,0.53,0.47,0.53,0.23,0.31,0.53,0.43,0.23,0.42,0.43,0.55,0.31,0.37,0.43,0.23,0.51,0.3,0.23,0.44,0.23,0.55,0.44,0.55,0.51,0.36,0.27,0.55,0.53,0.43,0.55,0.31,0.23,0.27,0.55,0.23,0.31,0.53,0.43,0.23,0.27,0.82,0.52,0.25,0.44,0.55,0.31,0.43,0.53,0.23,0.82,0.44,0.31,0.43,0.37,0.27,0.44,0.25,0.23,0.42,0.25,0.43,0.44,0.37,0.25,0.46,0.23,0.37,0.53,0.51,0.69,0.23" style="fill:rgb(0,0,0);font-family:MinionPro-Regular;font-size:9.0px;stroke:none;">Cross-section TEM micrographs through the centre of a nano-indent in the implanted material clearly show </text>
   <text y="579.997" x="155.641,160.393,164.218,166.801,170.671,174.54,177.285,179.058,181.811,185.033,188.903,192.728,194.501,198.281,202.763,207.65,211.475,214.778,216.551,219.665,224.426,226.838,231.077,233.129" svgx:width="0.53,0.43,0.3,0.43,0.42,0.31,0.23,0.3,0.37,0.43,0.43,0.23,0.42,0.51,0.55,0.43,0.37,0.23,0.35,0.53,0.27,0.47,0.23,0.23" style="fill:rgb(0,0,0);font-family:MinionPro-Regular;font-size:9.0px;stroke:none;">defect free zones (Fig. </text>
   <text y="579.997" x="234.886,239.206,242.32,247.072" svgx:width="0.48,0.35,0.53,0.35" style="fill:rgb(0,0,255);font-family:MinionPro-Regular;font-size:9.0px;stroke:none;">1(d)</text>
   <text y="579.997" x="250.186,253.3,255.352,257.125,259.537,264.388,267.646,272.254,274.666,278.059,280.471,285.322,289.534,291.307,295.114,299.596,304.519,309.334,314.086,317.911,322.797,326.604,330.429,332.202,334.614,339.537,341.31,344.109,348.879,352.704,354.477,359.085,362.307,366.799,371.595,376.185,379.56,383.43,388.182,389.955,397.29,401.16,404.913,409.692,413.562,418.485,420.87,424.173,431.544,433.317,437.799,440.463,442.236,446.988,450.813,453.396,457.266,461.135,463.88,465.653,468.875,472.7,480.034,484.48,488.647,492.642,494.919,496.692,501.121,505.252,507.025,511.3,513.577,515.989,520.741,524.566,526.339,531.091,533.476,536.743,539.02,543.69,547.524,551.475" svgx:width="0.35,0.23,0.23,0.27,0.55,0.37,0.52,0.27,0.37,0.27,0.55,0.47,0.23,0.42,0.51,0.55,0.54,0.53,0.43,0.55,0.42,0.43,0.23,0.27,0.55,0.23,0.31,0.53,0.43,0.23,0.52,0.37,0.51,0.52,0.51,0.37,0.43,0.53,0.23,0.82,0.43,0.42,0.53,0.44,0.55,0.27,0.37,0.82,0.23,0.51,0.3,0.23,0.53,0.43,0.3,0.43,0.42,0.31,0.23,0.37,0.43,0.82,0.51,0.46,0.44,0.25,0.23,0.51,0.46,0.23,0.47,0.25,0.27,0.53,0.43,0.23,0.53,0.27,0.37,0.25,0.51,0.42,0.44,0.36" style="fill:rgb(0,0,0);font-family:MinionPro-Regular;font-size:9.0px;stroke:none;">), inspiring confidence in the proposed mechanism of defect removal by glide disloca-</text>
   <text y="589.996" x="155.641,158.431,160.843,165.325,170.176,173.479,175.324,177.736,182.659,184.504,186.781,191.451,195.285,199.281,201.558,203.943,207.318,211.187,215.939,217.784,221.654,224.876,228.755,232.679,235.982,238.034,239.879,249.482,253.307,256.682,260.507,262.352,265.619,267.896,270.2,274.916,276.761,280.513,285.293,289.163,294.086,298.973,302.762,305.012,308.315,310.16,314.03,317.252,321.077,322.922,325.505,329.997,334.776,339.662,344.414,346.259,348.95,353.54,355.385,360.038,363.863,365.708,370.469,374.339,377.678,381.674,383.995,386.272,390.061,392.338,394.183,396.874,401.464,403.309,406.108,410.878,414.703,416.548,419.653,423.973,428.293,432.613,435.718,437.563,442.315,444.727,447.949,451.819,455.689,458.479,460.891,465.373,470.296,472.141,476.011,480.898,485.65,487.495,491.365,494.587,498.412,500.257,504.01,506.287,510.165,514.036,517.258,521.127,525.879,527.724,532.206,534.87,536.715,544.05,548.64,551.898,554.643" svgx:width="0.31,0.27,0.51,0.55,0.37,0.23,0.27,0.55,0.23,0.25,0.51,0.42,0.44,0.25,0.27,0.37,0.43,0.53,0.23,0.44,0.37,0.43,0.44,0.37,0.23,0.23,1.07,0.43,0.37,0.43,0.23,0.37,0.25,0.27,0.52,0.23,0.42,0.53,0.44,0.55,0.55,0.43,0.25,0.37,0.23,0.44,0.37,0.43,0.23,0.3,0.51,0.53,0.55,0.53,0.23,0.31,0.51,0.23,0.51,0.43,0.23,0.52,0.44,0.37,0.44,0.25,0.25,0.43,0.25,0.23,0.31,0.51,0.23,0.31,0.53,0.43,0.23,0.34,0.48,0.48,0.48,0.34,0.23,0.53,0.27,0.37,0.43,0.42,0.31,0.27,0.51,0.55,0.23,0.44,0.55,0.53,0.23,0.44,0.37,0.43,0.23,0.42,0.25,0.43,0.44,0.37,0.43,0.53,0.23,0.51,0.3,0.23,0.82,0.51,0.37,0.31,0.23" style="fill:rgb(0,0,0);font-family:MinionPro-Regular;font-size:9.0px;stroke:none;">tions in localised areas. These slip channels are found to be parallel to the [111] direction and are cleared of most </text>
   <text y="599.995" x="155.641,159.872,162.294,165.633,168.045,172.591,174.904,178.765,180.745,185.533,189.394,192.014,195.92,199.827,202.608,205.947,208.035,210.015,219.69,222.112,225.451,227.431,232.013,236.621,240.032,243.893,247.53,251.733,255.55,258.377,260.825,265.344,270.303,272.283,274.704,278.043,280.023,283.362,285.81,293.217,295.711,298.051,301.959,305.334,307.314,310.042,314.668,316.648,319.952,322.265,324.606,329.358,331.338,335.128,339.944,343.851,348.81,353.734,357.559,359.846,363.185,365.165,369.747,374.355,377.767,381.628,385.265,389.397,393.303,398.091,400.071,402.519,407.478,409.458,413.986,416.822,421.629,425.49,428.865,430.845,433.293,436.723,440.098,444.085,448.873,451.349,455.165,457.893,461.8,466.588,468.568,475.949,479.766,482.494,486.355,489.785,492.261,496.293,498.58" svgx:width="0.46,0.27,0.37,0.27,0.51,0.25,0.43,0.23,0.53,0.43,0.3,0.43,0.42,0.31,0.37,0.23,0.23,1.07,0.27,0.37,0.23,0.51,0.51,0.37,0.43,0.37,0.46,0.44,0.31,0.27,0.51,0.55,0.23,0.27,0.37,0.23,0.37,0.27,0.82,0.27,0.25,0.44,0.37,0.23,0.31,0.51,0.23,0.37,0.25,0.27,0.52,0.23,0.42,0.53,0.44,0.55,0.55,0.43,0.25,0.37,0.23,0.51,0.51,0.37,0.43,0.37,0.46,0.43,0.53,0.23,0.27,0.55,0.23,0.51,0.31,0.53,0.43,0.37,0.23,0.27,0.37,0.37,0.44,0.53,0.27,0.44,0.31,0.43,0.53,0.23,0.82,0.44,0.31,0.43,0.37,0.27,0.44,0.25,0.37" style="fill:rgb(0,0,0);font-family:MinionPro-Regular;font-size:9.0px;stroke:none;">visible defects. This observation is similar to slip channels observed in other irradiated materials</text>
   <text y="596.94" x="501.915,504.746" svgx:width="0.48,0.48" style="fill:rgb(0,0,255);font-family:MinionPro-Regular;font-size:5.85px;stroke:none;">19</text>
   <text y="596.94" x="507.578" svgx:width="0.23" style="fill:rgb(0,0,0);font-family:MinionPro-Regular;font-size:5.85px;stroke:none;">,</text>
   <text y="596.94" x="508.935,511.766" svgx:width="0.48,0.48" style="fill:rgb(0,0,255);font-family:MinionPro-Regular;font-size:5.85px;stroke:none;">20</text>
   <text y="596.94" x="514.598" svgx:width="0.23" style="fill:rgb(0,0,0);font-family:MinionPro-Regular;font-size:5.85px;stroke:none;">,</text>
   <text y="596.94" x="515.955,518.786" svgx:width="0.48,0.48" style="fill:rgb(0,0,255);font-family:MinionPro-Regular;font-size:5.85px;stroke:none;">22</text>
   <text y="596.94" x="521.618" svgx:width="0.23" style="fill:rgb(0,0,0);font-family:MinionPro-Regular;font-size:5.85px;stroke:none;">,</text>
   <text y="596.94" x="522.975,525.806" svgx:width="0.48,0.48" style="fill:rgb(0,0,255);font-family:MinionPro-Regular;font-size:5.85px;stroke:none;">24</text>
   <text y="596.94" x="528.638" svgx:width="0.23" style="fill:rgb(0,0,0);font-family:MinionPro-Regular;font-size:5.85px;stroke:none;">,</text>
   <text y="596.94" x="529.995,532.826" svgx:width="0.48,0.48" style="fill:rgb(0,0,255);font-family:MinionPro-Regular;font-size:5.85px;stroke:none;">28</text>
   <text y="596.94" x="535.658" svgx:width="0.23" style="fill:rgb(0,0,0);font-family:MinionPro-Regular;font-size:5.85px;stroke:none;">,</text>
   <text y="596.94" x="537.015,539.846" svgx:width="0.48,0.48" style="fill:rgb(0,0,255);font-family:MinionPro-Regular;font-size:5.85px;stroke:none;">29</text>
   <text y="600.0" x="542.687,544.775,546.755,549.716,554.639" svgx:width="0.23,0.23,0.34,0.55,0.23" style="fill:rgb(0,0,0);font-family:MinionPro-Regular;font-size:9.0px;stroke:none;">. In </text>
   <text y="609.999" x="155.642,158.999,163.462,170.779,174.586,176.305,180.121,184.026,187.383,191.19,194.475,196.509,198.228,201.009,205.76,209.567,211.286,215.093,219.323,224.101,227.908,231.283,233.677,240.993,244.8,249.534,252.315,256.292,258.595,260.791,264.904,266.623,271.149,275.703,279.06,282.867,286.448,290.525,294.376,299.11,300.829,304.077,306.336,308.622,313.32,315.039,318.774,323.534,327.386,332.291,337.16,340.931,343.162,346.447,348.166,351.927,356.526,361.304,365.165,369.016,372.337,374.056,377.79,380.049,383.91,387.762,391.047,393.242,397.355,399.074,403.808,407.615,414.94,418.792,421.996,425.811,429.573,432.245,436.097,440.776,442.81,444.529,450.702,452.988,455.768,460.556,462.275,465.524,470.284,474.137,477.547,482.245,483.964,488.598,493.071,497.832,502.701,507.462,511.313,514.688,517.082,520.889,524.174,525.893,529.25,533.057,537.8,541.651,544.972,548.733,551.46" svgx:width="0.37,0.51,0.82,0.43,0.23,0.42,0.44,0.37,0.43,0.37,0.23,0.23,0.31,0.53,0.43,0.23,0.43,0.47,0.52,0.43,0.37,0.27,0.82,0.43,0.55,0.31,0.44,0.25,0.25,0.46,0.23,0.51,0.51,0.37,0.43,0.37,0.46,0.43,0.53,0.23,0.37,0.25,0.27,0.52,0.23,0.42,0.53,0.44,0.55,0.55,0.43,0.25,0.37,0.23,0.44,0.52,0.52,0.43,0.44,0.37,0.23,0.42,0.25,0.43,0.44,0.37,0.25,0.46,0.23,0.53,0.43,0.82,0.44,0.37,0.42,0.44,0.31,0.43,0.53,0.23,0.23,0.69,0.27,0.31,0.53,0.23,0.37,0.53,0.44,0.37,0.52,0.23,0.51,0.51,0.53,0.55,0.53,0.44,0.37,0.27,0.43,0.37,0.23,0.37,0.43,0.52,0.44,0.37,0.44,0.31,0.36" style="fill:rgb(0,0,0);font-family:MinionPro-Regular;font-size:9.0px;stroke:none;">some cases, the experimentally observed slip channels appear clearly demarcated, with sharp boundaries separat-</text>
   <text y="619.998" x="155.642,158.054,162.905,167.117,168.854,171.653,176.423,180.248,181.985,185.738,190.517,194.387,199.31,204.197,207.986,210.236,213.539,215.276,218.03,221.252,225.734,233.105,234.842,237.641,242.411,246.236,247.973,251.231,256.01,259.403,262.625,267.116,271.895,276.782,281.534,283.946,288.797,293.009,294.746,302.09,305.87,308.66,312.052,314.464" svgx:width="0.27,0.55,0.47,0.23,0.31,0.53,0.43,0.23,0.42,0.53,0.44,0.55,0.55,0.43,0.25,0.37,0.23,0.3,0.37,0.51,0.82,0.23,0.31,0.53,0.43,0.23,0.37,0.53,0.37,0.37,0.51,0.53,0.55,0.53,0.27,0.55,0.47,0.23,0.82,0.44,0.31,0.37,0.27,0.47" style="fill:rgb(0,0,0);font-family:MinionPro-Regular;font-size:9.0px;stroke:none;">ing the channels from the surrounding matrix</text>
   <text y="616.94" x="318.703,321.511" svgx:width="0.48,0.48" style="fill:rgb(0,0,255);font-family:MinionPro-Regular;font-size:5.85px;stroke:none;">30</text>
   <text y="620.0" x="324.319,326.371,328.108,333.265,337.513,341.383,348.583,353.236,355.513,359.338,362.641,364.378,366.79,371.677,375.429,377.598,382.377,387.129,390.954,392.691,397.577,401.402,406.073,408.863,412.085,416.567,421.49,424.694,427.106,430.499,433.838,437.789,442.568,446.348,449.039,452.909,457.661,459.398,463.205,467.696,472.313,477.11,480.935,484.274,486.011,489.125,491.537,494.929,498.268,502.219,506.971,509.41,513.19,515.881,519.751,524.503,526.24,530.02,532.765,534.502,538.822,543.142,547.462,548.581,554.638" svgx:width="0.23,0.23,0.57,0.47,0.44,0.82,0.52,0.25,0.43,0.37,0.23,0.27,0.55,0.42,0.25,0.53,0.53,0.43,0.23,0.55,0.43,0.53,0.31,0.37,0.51,0.55,0.36,0.27,0.37,0.37,0.44,0.53,0.44,0.31,0.43,0.53,0.23,0.42,0.51,0.52,0.52,0.43,0.37,0.23,0.35,0.27,0.37,0.37,0.44,0.53,0.27,0.44,0.31,0.43,0.53,0.23,0.44,0.31,0.23,0.48,0.48,0.48,0.23,0.67,0.23" style="fill:rgb(0,0,0);font-family:MinionPro-Regular;font-size:9.0px;stroke:none;">. Examples include neutron-irradated copper (irradiated at 300 K </text>
   <text y="629.999" x="155.641,161.882,164.236,167.083,171.939,173.95,178.32,180.421,184.792" svgx:width="0.69,0.27,0.31,0.53,0.23,0.48,0.23,0.48,0.23" style="fill:rgb(0,0,0);font-family:MinionPro-Regular;font-size:9.0px;stroke:none;">with 2.5 </text>
   <text y="629.999" x="185.962" svgx:width="0.78" style="fill:rgb(0,0,0);font-family:EuclidSymbol;font-size:9.0px;stroke:none;">×</text>
   <text y="629.999" x="193.018,194.188,198.557" svgx:width="0.23,0.48,0.48" style="fill:rgb(0,0,0);font-family:MinionPro-Regular;font-size:9.0px;stroke:none;"> 10</text>
   <text y="626.94" x="202.931,205.771" svgx:width="0.48,0.48" style="fill:rgb(0,0,0);font-family:MinionPro-Regular;font-size:5.85px;stroke:none;">18</text>
   <text y="630.0" x="208.611,210.623,215.559,219.433,224.153,226.993,230.264,234.796,239.696,243.048,245.059,249.906,253.78,257.169,259.18,263.036" svgx:width="0.23,0.55,0.43,0.53,0.31,0.37,0.51,0.55,0.37,0.23,0.52,0.43,0.37,0.23,0.42,0.82" style="fill:rgb(0,0,0);font-family:MinionPro-Regular;font-size:9.0px;stroke:none;"> neutrons per cm</text>
   <text y="626.94" x="270.456" svgx:width="0.48" style="fill:rgb(0,0,0);font-family:MinionPro-Regular;font-size:5.85px;stroke:none;">2</text>
   <text y="630.0" x="273.296" svgx:width="0.35" style="fill:rgb(0,0,0);font-family:MinionPro-Regular;font-size:9.0px;stroke:none;">)</text>
   <text y="626.94" x="276.459,279.299" svgx:width="0.48,0.48" style="fill:rgb(0,0,255);font-family:MinionPro-Regular;font-size:5.85px;stroke:none;">19</text>
   <text y="630.0" x="282.139,284.151,288.07,293.007,297.808,299.819,302.28,305.552,310.083,315.056,317.067,319.528,324.059,329.032,331.043,333.505,336.948,340.335,344.336,349.137,351.626,355.455,358.195,362.114,366.916,368.927,373.567,377.44,380.694,385.063,389.433,395.467,398.64,401.893,406.262,410.632,418.637,423.61,425.62,428.784,431.245,434.688,438.075,442.076,446.877,449.366,453.195,455.936,459.854,464.656,466.667,469.408,474.047,476.059,480.059,482.07,486.872,491.511,494.936,498.809,500.821,505.352,508.066,510.077,514.447" svgx:width="0.23,0.44,0.55,0.53,0.23,0.27,0.37,0.51,0.55,0.23,0.27,0.51,0.55,0.23,0.27,0.37,0.37,0.44,0.53,0.27,0.44,0.31,0.43,0.53,0.23,0.53,0.43,0.36,0.48,0.48,0.67,0.37,0.36,0.48,0.48,0.89,0.55,0.23,0.35,0.27,0.37,0.37,0.44,0.53,0.27,0.44,0.31,0.43,0.53,0.23,0.31,0.51,0.23,0.44,0.23,0.53,0.51,0.37,0.43,0.23,0.51,0.3,0.23,0.48,0.23" style="fill:rgb(0,0,0);font-family:MinionPro-Regular;font-size:9.0px;stroke:none;"> and iron ion irradiated Fe-12Cr-20Mn (irradiated to a dose of 1 </text>
   <text y="630.0" x="515.617" svgx:width="0.78" style="fill:rgb(0,0,0);font-family:EuclidSymbol;font-size:9.0px;stroke:none;">×</text>
   <text y="630.0" x="522.673,523.843,528.213" svgx:width="0.23,0.48,0.48" style="fill:rgb(0,0,0);font-family:MinionPro-Regular;font-size:9.0px;stroke:none;"> 10</text>
   <text y="626.94" x="532.588,535.428" svgx:width="0.48,0.48" style="fill:rgb(0,0,0);font-family:MinionPro-Regular;font-size:5.85px;stroke:none;">16</text>
   <text y="630.0" x="538.268,539.438,541.899,546.43,551.33,554.633" svgx:width="0.23,0.27,0.51,0.55,0.37,0.23" style="fill:rgb(0,0,0);font-family:MinionPro-Regular;font-size:9.0px;stroke:none;"> ions </text>
   <text y="639.999" x="155.633,160.558,164.509,167.974,170.269,174.202" svgx:width="0.52,0.43,0.37,0.23,0.42,0.82" style="fill:rgb(0,0,0);font-family:MinionPro-Regular;font-size:9.0px;stroke:none;">per cm</text>
   <text y="636.94" x="181.715" svgx:width="0.48" style="fill:rgb(0,0,0);font-family:MinionPro-Regular;font-size:5.85px;stroke:none;">2</text>
   <text y="640.0" x="184.607,187.847,190.025,192.32,195.374,200.423,202.718,206.651,211.262,216.143,219.063,222.528,226.581,229.969,232.84,235.018,237.313,240.241,245.141,249.092,251.387,254.784,257.187,259.619,264.461,266.756,270.639,275.547,279.546,284.595,289.612,293.53,295.909,299.338,301.633,307.856,311.807,314.102,318.776,323.474,326.978,330.929,334.659,338.882,342.833,345.128,350.037,353.956,358.179,362.13,364.425,368.502,370.797,373.2,377.151,380.539,383.968,386.263,392.485,396.403,398.854,401.257,404.587,409.465,413.416,418.357,423.373,427.372,432.25,434.545,439.327,443.947,448.852,453.869,458.777,462.776,466.506,470.763,473.058,479.38,481.813,484.741,489.673,491.968,494.896,499.795,503.746,506.041,509.429,514.334,517.855,521.207,525.828,530.733,535.749,540.627,543.165,548.145,552.514,554.566" svgx:width="0.35,0.23,0.23,0.34,0.55,0.23,0.42,0.51,0.55,0.31,0.37,0.44,0.37,0.31,0.23,0.23,0.31,0.53,0.43,0.23,0.37,0.25,0.27,0.52,0.23,0.42,0.53,0.44,0.55,0.55,0.43,0.25,0.37,0.23,0.69,0.43,0.23,0.51,0.51,0.37,0.43,0.37,0.46,0.43,0.23,0.53,0.44,0.46,0.43,0.23,0.44,0.23,0.25,0.43,0.37,0.37,0.23,0.69,0.43,0.25,0.25,0.36,0.53,0.43,0.54,0.55,0.43,0.53,0.23,0.51,0.51,0.53,0.55,0.53,0.44,0.37,0.46,0.23,0.69,0.27,0.31,0.53,0.23,0.31,0.53,0.43,0.23,0.37,0.53,0.37,0.37,0.51,0.53,0.55,0.53,0.27,0.55,0.47,0.23,0.23" style="fill:rgb(0,0,0);font-family:MinionPro-Regular;font-size:9.0px;stroke:none;">). In contrast, the slip channels we observe have a less well-defined boundary with the surrounding, </text>
   <text y="649.999" x="155.636,160.442,162.854,167.129,171.899,175.724,179.063,180.94,185.692,189.517,192.1,195.97,199.839,202.584,204.465,209.217,213.042,217.893,221.196,223.5,226.272,230.403,232.284,239.628,243.408,246.098,249.923,253.316,255.755,259.751,261.974,264.026,265.902,272.121,274.002,277.305,279.717,287.088,289.545,291.849,295.719,299.058,300.935,305.48,310.052,313.427,317.252,320.852,325.019,328.799,331.589,334.001,338.482,343.405,345.286,349.768,352.432,354.308,357.575,359.852,362.156,366.872,368.749,373.366,377.236,382.123,386.848,390.151,392.028,398.22,400.524,403.323,408.129,410.01,414.762,417.174,422.276,427.028,430.403,434.228,436.104,440.757,445.248,450.027,454.914,459.693,463.563,466.956,469.368,473.193,476.496,478.373,484.565,486.869,489.668,494.474,496.35,499.149,503.919,507.744,509.625,512.883,517.662,521.055,524.277,528.768,533.547,538.434,543.186,545.598,550.449,554.661" svgx:width="0.53,0.27,0.47,0.53,0.43,0.37,0.23,0.53,0.43,0.3,0.43,0.42,0.31,0.23,0.53,0.43,0.55,0.37,0.27,0.31,0.46,0.23,0.82,0.44,0.31,0.43,0.37,0.27,0.44,0.25,0.23,0.23,0.69,0.23,0.37,0.27,0.82,0.27,0.25,0.44,0.37,0.23,0.51,0.51,0.37,0.43,0.37,0.46,0.44,0.31,0.27,0.51,0.55,0.23,0.51,0.3,0.23,0.37,0.25,0.27,0.52,0.23,0.51,0.44,0.55,0.53,0.37,0.23,0.69,0.27,0.31,0.53,0.23,0.53,0.27,0.56,0.53,0.37,0.43,0.23,0.51,0.51,0.53,0.55,0.53,0.44,0.37,0.27,0.43,0.37,0.23,0.69,0.27,0.31,0.53,0.23,0.31,0.53,0.43,0.23,0.37,0.53,0.37,0.37,0.51,0.53,0.55,0.53,0.27,0.55,0.47,0.23" style="fill:rgb(0,0,0);font-family:MinionPro-Regular;font-size:9.0px;stroke:none;">higher defect density material. A similar observation of slip bands with diffuse boundaries with the surrounding </text>
   <text y="659.998" x="155.636,162.98,166.76,169.55,172.943,175.355,179.603,181.398,187.563,191.487,194.79,196.584,203.928,207.879,212.631,216.456,218.252,220.664,225.587,227.381,231.701,233.753,238.073,242.393,246.713,247.841,252.485,257.246,261.197,262.992,267.879,271.704,276.375,279.165,282.387,286.869,291.792,294.996,297.408,300.801,304.14,308.091,312.843,315.281,319.061,321.752,325.622,330.374,332.169,336.821,340.628,344.435,346.231,350.398,354.268,359.164,363.115,367.867,370.171,374.95" svgx:width="0.82,0.44,0.31,0.37,0.27,0.47,0.23,0.69,0.44,0.37,0.23,0.82,0.44,0.53,0.43,0.23,0.27,0.55,0.23,0.48,0.23,0.48,0.48,0.48,0.23,0.53,0.52,0.44,0.23,0.55,0.43,0.53,0.31,0.37,0.51,0.55,0.36,0.27,0.37,0.37,0.44,0.53,0.27,0.44,0.31,0.43,0.53,0.23,0.51,0.42,0.42,0.23,0.46,0.44,0.55,0.44,0.53,0.27,0.53,0.82" style="fill:rgb(0,0,0);font-family:MinionPro-Regular;font-size:9.0px;stroke:none;">matrix was made in 0.012 dpa neutron-irradiated bcc vanadium</text>
   <text y="656.94" x="382.32,385.128" svgx:width="0.48,0.48" style="fill:rgb(0,0,255);font-family:MinionPro-Regular;font-size:5.85px;stroke:none;">21</text>
   <text y="660.0" x="387.936,389.988,391.783,394.707,399.63,401.426,404.225,408.995,412.82,414.614,418.448,422.372,425.747,429.572,431.367,435.849,438.513,440.308,444.475,448.345,453.241,457.192,461.944,464.248,469.027,476.398,478.45,480.245,483.044,487.814,491.639,493.434,498.186,500.598,505.701,510.453,513.828,517.653,519.447,524.1,528.591,533.37,538.257,543.036,546.906,550.506,554.637" svgx:width="0.23,0.23,0.34,0.55,0.23,0.31,0.53,0.43,0.23,0.42,0.44,0.37,0.43,0.23,0.51,0.3,0.23,0.46,0.44,0.55,0.44,0.53,0.27,0.53,0.82,0.23,0.23,0.31,0.53,0.43,0.23,0.53,0.27,0.56,0.53,0.37,0.43,0.23,0.51,0.51,0.53,0.55,0.53,0.44,0.37,0.46,0.23" style="fill:rgb(0,0,0);font-family:MinionPro-Regular;font-size:9.0px;stroke:none;">. In the case of vanadium, the diffuse boundary </text>
   <text y="669.999" x="155.637,160.344,164.223,167.049,173.196,177.121,181.0,185.977,188.002,190.855,195.679,199.558,201.583,204.904,207.235,209.593,214.363,216.388,221.059,224.983,229.924,234.704,238.061,240.086,244.011,248.952,253.758,255.783,258.636,263.461,267.34,269.365,276.764,280.598,283.442,286.89,289.356,293.658,295.764,297.789,304.008,307.987,311.344,313.369,317.257,321.091,325.898,329.327,333.251,338.057,340.082,344.564,348.749,350.774,354.339,360.486,364.419,368.47,372.988,375.013,378.82,383.653,387.578,392.555,397.496,401.34,403.671,406.137,411.042,415.137,418.8,420.825,423.237,425.343,429.168,431.274,433.299,437.304,439.329,442.641,445.494,449.329,452.074,455.953,457.978,461.785,464.116,468.76,472.189,476.068,478.093,480.838,485.482,487.507,490.36,495.185,499.064,501.089,503.943,508.803,512.079,515.958,519.279,524.103,528.685,531.016,535.822,537.847,542.653,547.297,550.726,554.551" svgx:width="0.51,0.43,0.31,0.69,0.43,0.43,0.55,0.23,0.31,0.53,0.43,0.23,0.37,0.25,0.27,0.52,0.23,0.51,0.44,0.55,0.53,0.37,0.23,0.44,0.55,0.53,0.23,0.31,0.53,0.43,0.23,0.82,0.44,0.31,0.37,0.27,0.47,0.23,0.23,0.69,0.44,0.37,0.23,0.42,0.44,0.53,0.37,0.43,0.53,0.23,0.51,0.46,0.23,0.4,0.69,0.43,0.44,0.5,0.23,0.42,0.53,0.44,0.55,0.55,0.43,0.25,0.27,0.55,0.47,0.4,0.23,0.27,0.23,0.43,0.23,0.23,0.44,0.23,0.37,0.31,0.44,0.31,0.43,0.23,0.42,0.25,0.51,0.37,0.43,0.23,0.31,0.51,0.23,0.31,0.53,0.43,0.23,0.31,0.53,0.37,0.43,0.37,0.53,0.51,0.25,0.53,0.23,0.53,0.51,0.37,0.43,0.23" style="fill:rgb(0,0,0);font-family:MinionPro-Regular;font-size:9.0px;stroke:none;">between the slip bands and the matrix, was caused by “weak channeling” i.e. a state close to the threshold dose </text>
   <text y="679.998" x="155.637,158.335,162.931,166.387,168.628,172.495,177.39,181.374,186.414,191.415,195.319,197.713,200.242,205.209,209.562,211.731,213.972,220.314,225.199,229.141,232.479,236.421,238.662,241.576,246.46,250.402,253.738,257.68,259.921,262.421,265.841,268.082,271.454,276.35,283.649,287.573,290.102,294.044,298.911,301.773,304.014,308.883,312.825,315.523,319.508,323.492,326.354,328.595,333.464,337.406,342.371,345.791,348.21,351.097,355.345,357.586,360.392,365.099,367.34,369.869,374.909,377.328,380.233,382.786,386.681,389.486,393.428,395.669,399.537,404.431,408.416,413.456,418.457,422.362,424.756,427.285,432.25,436.603,438.772,441.013,445.601,450.387,453.249,455.49,461.832,466.717,470.659,473.996,477.938,480.179,483.093,487.978,491.92,494.161,498.028,502.922,506.907,511.947,516.948,520.852,523.216,526.636,528.877,532.862,536.199,540.141,542.382,547.384,551.989,554.734" svgx:width="0.3,0.51,0.37,0.23,0.42,0.53,0.44,0.55,0.55,0.43,0.25,0.27,0.55,0.47,0.23,0.23,0.69,0.53,0.43,0.37,0.43,0.23,0.31,0.53,0.43,0.37,0.43,0.23,0.27,0.37,0.23,0.37,0.53,0.8,0.42,0.27,0.43,0.55,0.31,0.23,0.53,0.43,0.3,0.43,0.42,0.31,0.23,0.53,0.43,0.55,0.37,0.27,0.31,0.46,0.23,0.31,0.51,0.23,0.27,0.55,0.27,0.31,0.27,0.44,0.31,0.43,0.23,0.42,0.53,0.44,0.55,0.55,0.43,0.25,0.27,0.55,0.47,0.23,0.23,0.51,0.53,0.31,0.23,0.69,0.53,0.43,0.37,0.43,0.23,0.31,0.53,0.43,0.23,0.42,0.53,0.44,0.55,0.55,0.43,0.25,0.37,0.23,0.44,0.37,0.43,0.23,0.55,0.51,0.31,0.23" style="fill:rgb(0,0,0);font-family:MinionPro-Regular;font-size:9.0px;stroke:none;">for channeling, where there is sufficient defect density to initiate channeling, but where the channels are not </text>
   <text y="689.997" x="155.637,159.498,164.031,171.282,175.986,178.317,182.196,184.938,188.777,191.043,195.228,197.244,202.05,205.929,208.563,212.483,216.405,219.204,221.22,224.025,227.297,231.218" svgx:width="0.42,0.51,0.82,0.52,0.25,0.43,0.31,0.43,0.25,0.46,0.23,0.53,0.43,0.3,0.43,0.42,0.31,0.23,0.3,0.37,0.43,0.43" style="fill:rgb(0,0,0);font-family:MinionPro-Regular;font-size:9.0px;stroke:none;">completely defect free</text>
   <text y="686.94" x="235.073,237.916" svgx:width="0.48,0.48" style="fill:rgb(0,0,255);font-family:MinionPro-Regular;font-size:5.85px;stroke:none;">21</text>
   <text y="686.94" x="240.759" svgx:width="0.23" style="fill:rgb(0,0,0);font-family:MinionPro-Regular;font-size:5.85px;stroke:none;">,</text>
   <text y="686.94" x="242.122,244.965" svgx:width="0.48,0.48" style="fill:rgb(0,0,255);font-family:MinionPro-Regular;font-size:5.85px;stroke:none;">27</text>
   <text y="690.0" x="247.804,249.91,251.926,257.962,261.823,265.684,270.218,273.49,278.296,280.762,285.664,289.99,292.255,295.78,297.886,299.902,302.368,307.345,309.361,313.582,317.503,322.45,326.455,331.261,333.616,338.449,345.874,347.89,351.769,356.071,360.92,365.564,368.99,372.91,377.716,379.732,382.474,387.118,389.134,393.994,396.46,400.785,405.606,409.485,412.878,414.894,419.724,423.645,431.04,434.997,439.187,443.066,445.082,447.413,451.362,455.507,459.347,461.648,465.005,467.021,471.553,474.271,476.287,480.661,482.767,487.141,491.515,493.531,497.452,502.39,507.196,509.212,513.586,515.692,520.066,524.44,525.517,530.212,535.024,539.029,541.135,543.151,546.001,550.821,554.646" svgx:width="0.23,0.23,0.69,0.42,0.42,0.51,0.37,0.53,0.27,0.55,0.47,0.25,0.46,0.23,0.23,0.27,0.55,0.23,0.46,0.44,0.55,0.44,0.53,0.27,0.53,0.82,0.23,0.43,0.47,0.52,0.51,0.37,0.43,0.53,0.23,0.31,0.51,0.23,0.53,0.27,0.47,0.53,0.43,0.37,0.23,0.53,0.44,0.82,0.44,0.47,0.43,0.23,0.25,0.43,0.46,0.43,0.25,0.37,0.23,0.51,0.3,0.23,0.48,0.23,0.48,0.48,0.23,0.44,0.55,0.53,0.23,0.48,0.23,0.48,0.48,0.23,0.53,0.52,0.44,0.23,0.23,0.31,0.53,0.43,0.23" style="fill:rgb(0,0,0);font-family:MinionPro-Regular;font-size:9.0px;stroke:none;">. Accordingly, in vanadium exposed to higher damage levels of 0.12 and 0.69 dpa, the </text>
   <text y="699.999" x="155.644,157.98,162.709,166.602,170.656,172.996,175.44,178.873,182.802,187.617,189.66,194.335,198.264,203.21,207.993,211.355,213.398,219.549,223.433,226.714,230.598,232.641,235.283,239.833,244.67,249.617,254.427,256.47,259.221,263.869,265.912,270.625,274.553,278.419,282.959,290.353,294.236,296.279,300.145,304.686,311.944,316.656,318.991,322.875,325.625,329.473,331.745,335.935,337.978,341.789,344.125,348.062,351.992,355.272,359.201,364.011,366.054,370.595,373.317,375.36,379.415,381.795,384.131,386.174,390.984,394.868,397.51,401.439,405.367,408.171,411.532,413.647,415.69,419.619,424.565,429.376,431.419,438.812,443.353,446.633,450.517,452.56,456.371,458.707,462.645,466.574,469.935,472.208,476.402,478.445,483.26,487.143,494.546,498.474,501.756,505.648,509.487,512.236,516.165,520.98,523.023,525.835,529.117,533.657,541.087,543.13,545.987,550.816,554.641" svgx:width="0.25,0.51,0.42,0.44,0.25,0.27,0.37,0.43,0.53,0.23,0.51,0.44,0.55,0.53,0.37,0.23,0.69,0.43,0.37,0.43,0.23,0.3,0.51,0.53,0.55,0.53,0.23,0.31,0.51,0.23,0.51,0.43,0.42,0.51,0.82,0.43,0.23,0.42,0.51,0.82,0.52,0.25,0.43,0.31,0.43,0.25,0.46,0.23,0.42,0.25,0.43,0.44,0.37,0.43,0.53,0.23,0.51,0.3,0.23,0.44,0.25,0.25,0.23,0.53,0.43,0.3,0.43,0.42,0.31,0.37,0.23,0.23,0.44,0.55,0.53,0.23,0.82,0.51,0.37,0.43,0.23,0.42,0.25,0.43,0.44,0.37,0.25,0.46,0.23,0.53,0.43,0.82,0.44,0.37,0.42,0.44,0.31,0.43,0.53,0.23,0.3,0.37,0.51,0.82,0.23,0.31,0.53,0.43,0.23" style="fill:rgb(0,0,0);font-family:MinionPro-Regular;font-size:9.0px;stroke:none;">localised bands were found to become completely cleared of all defects, and more clearly demarcated from the </text>
   <text y="709.998" x="155.644,158.943,163.761,167.195,170.457,174.989,179.807,184.735,189.527,191.979,196.87,201.123,203.103,210.487,214.308,217.137,220.571,223.023" svgx:width="0.37,0.53,0.37,0.37,0.51,0.53,0.55,0.53,0.27,0.55,0.47,0.23,0.82,0.44,0.31,0.37,0.27,0.47" style="fill:rgb(0,0,0);font-family:MinionPro-Regular;font-size:9.0px;stroke:none;">surrounding matrix</text>
   <text y="706.94" x="227.307,230.141" svgx:width="0.48,0.48" style="fill:rgb(0,0,255);font-family:MinionPro-Regular;font-size:5.85px;stroke:none;">21</text>
   <text y="706.94" x="232.975" svgx:width="0.23" style="fill:rgb(0,0,0);font-family:MinionPro-Regular;font-size:5.85px;stroke:none;">,</text>
   <text y="706.94" x="234.332,237.167" svgx:width="0.48,0.48" style="fill:rgb(0,0,255);font-family:MinionPro-Regular;font-size:5.85px;stroke:none;">27</text>
   <text y="710.0" x="240.003,242.096,244.076,248.328,250.78,258.191,260.688,263.032,266.943,270.322,272.302,276.886,281.499,284.914,288.779,292.419,296.627,300.446,303.277,305.729,310.251,315.142,318.486,320.466,324.988,327.692,329.672,333.466,338.285,342.196,347.158,352.086,355.915,358.206,361.548,363.528,368.321,372.258,376.394,380.222,382.54,387.071,391.719,394.172,399.063,403.315,405.295,408.601,413.421,417.331,420.801,425.637,429.503,432.314,434.407,436.387,442.52,446.35,448.711,451.029,453.009,457.802,461.666,466.522,471.449,475.359,480.151,482.131,486.825,491.356,496.175,501.102,505.922,509.831,513.265,515.717,519.582,522.926,524.906,531.138,533.482,536.321,541.168,543.148,545.987,550.797,554.622" svgx:width="0.23,0.23,0.47,0.27,0.82,0.27,0.25,0.44,0.37,0.23,0.51,0.51,0.37,0.43,0.37,0.46,0.44,0.31,0.27,0.51,0.55,0.37,0.23,0.51,0.3,0.23,0.42,0.53,0.44,0.55,0.55,0.43,0.25,0.37,0.23,0.53,0.43,0.46,0.43,0.25,0.51,0.52,0.27,0.55,0.47,0.23,0.37,0.53,0.44,0.37,0.52,0.43,0.37,0.23,0.23,0.69,0.43,0.25,0.25,0.23,0.53,0.43,0.54,0.55,0.43,0.53,0.23,0.51,0.51,0.53,0.55,0.53,0.44,0.37,0.27,0.43,0.37,0.23,0.69,0.27,0.31,0.53,0.23,0.31,0.53,0.43,0.23" style="fill:rgb(0,0,0);font-family:MinionPro-Regular;font-size:9.0px;stroke:none;">. Similar observations of channels developing sharper, well defined boundaries with the </text>
   <text y="719.999" x="155.637,158.885,163.655,167.038,170.251,174.732,179.502,184.379,189.122,191.525,196.366,200.569,202.297,209.631,213.401,216.181,219.564,221.967,226.206,228.249,229.977,236.159,238.453,241.243,246.04,247.768,250.171,255.048,258.846,262.059,265.927,269.841,273.135,275.538,280.379,284.582,286.31,291.053,295.634,298.998,302.759,304.802,306.53,312.613,316.429,319.642,323.458,325.186,328.551,332.411,336.227,341.141,342.869,345.272,350.186,351.914,356.791,360.607,365.268,368.048,371.26,375.732,380.646,382.374,384.777,388.16,391.49,395.432,400.175,402.604,406.374,409.055,412.915,417.658,419.386,423.993,428.763,431.975,435.791,437.519,439.922,443.134,447.606,452.52,454.248,457.353,461.996,465.812,468.574,474.658,478.518,482.334,487.248,488.976,493.287,495.33,499.641,501.369,505.229,510.106,514.849,516.577,520.888,522.931,527.242,531.553,532.602,537.236,541.987,545.929" svgx:width="0.37,0.53,0.37,0.37,0.51,0.53,0.55,0.53,0.27,0.55,0.47,0.23,0.82,0.44,0.31,0.37,0.27,0.47,0.23,0.23,0.69,0.27,0.31,0.53,0.23,0.27,0.55,0.42,0.37,0.43,0.44,0.37,0.27,0.55,0.47,0.23,0.53,0.51,0.37,0.43,0.23,0.23,0.69,0.43,0.37,0.43,0.23,0.37,0.43,0.43,0.55,0.23,0.27,0.55,0.23,0.55,0.43,0.53,0.31,0.37,0.51,0.55,0.23,0.27,0.37,0.37,0.44,0.53,0.27,0.44,0.31,0.43,0.53,0.23,0.52,0.53,0.37,0.43,0.23,0.27,0.37,0.51,0.55,0.23,0.35,0.51,0.43,0.31,0.69,0.43,0.43,0.55,0.23,0.48,0.23,0.48,0.23,0.44,0.55,0.53,0.23,0.48,0.23,0.48,0.48,0.23,0.53,0.52,0.44,0.35" style="fill:rgb(0,0,0);font-family:MinionPro-Regular;font-size:9.0px;stroke:none;">surrounding matrix, with increasing dose, were seen in neutron irradiated pure iron (between 0.4 and 0.79 dpa)</text>
   <text y="716.94" x="549.028,551.831" svgx:width="0.48,0.48" style="fill:rgb(0,0,255);font-family:MinionPro-Regular;font-size:5.85px;stroke:none;">28</text>
   <text y="720.0" x="554.638" svgx:width="0.23" style="fill:rgb(0,0,0);font-family:MinionPro-Regular;font-size:9.0px;stroke:none;"> </text>
   <text y="729.999" x="155.641,159.484,164.344,169.069,170.779,173.164,178.06,179.77,184.63,188.428,193.072,195.835,199.03,203.485,208.381,211.558,213.943,217.308,220.62,224.544,229.269,231.681,235.434,238.098,241.941,246.666,248.376,252.129,254.514,257.709,261.516,265.485,267.735,272.154,276.258,279.435,283.728,285.438,288.525,293.151,296.949,299.694,305.76,309.603,313.401,318.297,320.007,324.3,326.325,330.618,332.328,336.171,341.031,345.756,347.466,351.759,353.784,358.077,359.167,363.784,368.518,372.442" svgx:width="0.44,0.55,0.53,0.23,0.27,0.55,0.23,0.55,0.43,0.53,0.31,0.37,0.51,0.55,0.36,0.27,0.37,0.37,0.44,0.53,0.27,0.44,0.31,0.43,0.53,0.23,0.42,0.27,0.37,0.42,0.44,0.25,0.51,0.46,0.36,0.48,0.23,0.35,0.51,0.43,0.31,0.69,0.43,0.43,0.55,0.23,0.48,0.23,0.48,0.23,0.44,0.55,0.53,0.23,0.48,0.23,0.48,0.23,0.53,0.52,0.44,0.35" style="fill:rgb(0,0,0);font-family:MinionPro-Regular;font-size:9.0px;stroke:none;">and in neutron-irradiated zircaloy-4 (between 0.1 and 0.8 dpa)</text>
   <text y="726.94" x="375.526,378.317" svgx:width="0.48,0.48" style="fill:rgb(0,0,255);font-family:MinionPro-Regular;font-size:5.85px;stroke:none;">22</text>
   <text y="730.0" x="381.107,383.132,384.842,394.418,398.216,401.564,405.362,407.072,411.653,414.848,418.717,422.884,425.269,429.733,434.458,437.734,439.444,443.962,448.507,451.855,455.653,459.225,463.365,467.118,469.881,472.266,476.721,481.545,484.821,486.531,488.916,496.089,500.715,502.902,507.006,508.716,511.488,516.24,519.993,522.711,524.421,527.193,531.936,535.734,537.444,541.737,546.031,550.324,554.644" svgx:width="0.23,0.23,1.07,0.43,0.37,0.43,0.23,0.52,0.37,0.43,0.46,0.27,0.51,0.53,0.37,0.23,0.51,0.51,0.37,0.43,0.37,0.46,0.44,0.31,0.27,0.51,0.55,0.37,0.23,0.27,0.82,0.52,0.25,0.46,0.23,0.31,0.53,0.44,0.31,0.23,0.31,0.53,0.43,0.23,0.48,0.48,0.48,0.48,0.23" style="fill:rgb(0,0,0);font-family:MinionPro-Regular;font-size:9.0px;stroke:none;">. These previous observations imply that the 3000 </text>
  </g>
  <rect style="stroke:blue;stroke-width:0.3;" x="155.638" y="64.138" height="366.72" width="396.0" title="3"/>
  <text y="64.138" class="image" id="image.3.1" width="396" height="366" x="155.638">image.3.1.156_552.64_431</text>
  <rect style="stroke:blue;stroke-width:0.3;" x="155.638" y="64.138" height="366.72" width="396.0" title="3"/>
  <text y="64.138" class="image" id="image.3.2" width="396" height="366" x="155.638">image.3.2.156_552.64_431</text>
  <path style="fill:none;stroke:rgb(206,221,228);stroke-width:0.3;" d="M159.13 521.76 L552.64 521.76 "/>
  <path style="fill:none;stroke:rgb(206,221,228);stroke-width:1.0;" d="M156.14 521.76 L156.14 521.76 M554.14 521.76 L554.14 521.76 "/>
  <g begin="text">
   <text y="431.763" x="155.638,160.552,163.207,167.662,172.657,176.221,180.154,181.909,186.409" svgx:width="0.55,0.29,0.49,0.56,0.4,0.44,0.22,0.5,0.25" style="fill:rgb(0,0,0);font-family:MinionPro-Bold;font-size:9.0px;stroke:none;">Figure 1.</text>
   <text y="431.763" x="188.695,190.765,193.195" svgx:width="0.23,0.55,0.35" style="fill:rgb(0,0,0);font-family:MinionPro-Regular;font-size:9.0px;stroke:none;"> (</text>
   <text y="431.763" x="196.309" svgx:width="0.47" style="fill:rgb(0,0,0);font-family:MinionPro-Bold;font-size:9.0px;stroke:none;">a</text>
   <text y="431.763" x="200.503,203.617,205.453,209.611,214.723,222.742,224.578,231.949,234.361,238.168,241.39,245.98,250.236,253.575,257.355,262.008,266.742,270.045,271.881,276.363,279.027,280.863,283.662,288.431,292.256,294.092,298.988,302.858,307.745,312.335,315.539,317.951,322.838,327.59,331.415,336.167,338.912,340.748,348.092,352.043,356.795,360.62,362.456,368.648,370.952,373.751,378.557,380.393,384.344,386.18,390.5,392.552,396.872" svgx:width="0.35,0.23,0.47,0.57,0.89,0.23,0.82,0.27,0.42,0.37,0.51,0.47,0.37,0.44,0.52,0.53,0.37,0.23,0.51,0.3,0.23,0.31,0.53,0.43,0.23,0.55,0.44,0.55,0.51,0.36,0.27,0.55,0.53,0.43,0.55,0.31,0.23,0.82,0.44,0.53,0.43,0.23,0.69,0.27,0.31,0.53,0.23,0.44,0.23,0.48,0.23,0.48,0.23" style="fill:rgb(0,0,0);font-family:MinionPro-Regular;font-size:9.0px;stroke:none;">) SEM micrographs of the nano-indent made with a 4.2 </text>
   <text y="431.763" x="398.026" svgx:width="0.5" style="fill:rgb(0,0,0);font-family:STIXGeneral-Regular;font-size:9.0px;stroke:none;">µ</text>
   <text y="431.763" x="402.526,409.897,411.733,415.072,419.023,423.775,426.079,430.831,434.134,435.97,439.228,443.881,448.651,452.476,455.869,458.281,462.115,466.111,468.388,470.224,472.636,477.523,482.275,486.1,490.852,493.543,497.368,500.707,502.543,505.332,507.636,512.352,514.188,516.6,521.523,523.359,526.158,530.928,534.753" svgx:width="0.82,0.23,0.37,0.44,0.53,0.27,0.53,0.37,0.23,0.37,0.52,0.53,0.43,0.37,0.27,0.42,0.44,0.25,0.23,0.27,0.55,0.53,0.43,0.55,0.31,0.43,0.37,0.23,0.31,0.27,0.52,0.23,0.27,0.55,0.23,0.31,0.53,0.43,0.23" style="fill:rgb(0,0,0);font-family:MinionPro-Regular;font-size:9.0px;stroke:none;">m radius spherical indenter tip in the </text>
   <text y="441.762" x="155.638,160.417,165.34,167.752,174.952,179.605,181.909,185.778,190.53,193.222,197.091,201.843,203.679,208.44,212.31,215.739,218.484,220.32,224.802,227.466,229.302,232.659,236.529,243.729,248.382,250.659,254.484,256.32,260.19,265.077,269.829,271.665" svgx:width="0.53,0.55,0.27,0.82,0.52,0.25,0.44,0.55,0.31,0.43,0.53,0.23,0.52,0.44,0.37,0.31,0.23,0.51,0.3,0.23,0.37,0.44,0.82,0.52,0.25,0.43,0.23,0.44,0.55,0.53,0.23,0.35" style="fill:rgb(0,0,0);font-family:MinionPro-Regular;font-size:9.0px;stroke:none;">unimplanted part of sample and (</text>
   <text y="441.762" x="274.779" svgx:width="0.53" style="fill:rgb(0,0,0);font-family:MinionPro-Bold;font-size:9.0px;stroke:none;">b</text>
   <text y="441.762" x="279.585,282.699,284.535,288.693,293.805,301.824,303.66,308.142,310.806,312.642,315.414,321.507,326.097,327.933,330.345,335.231,339.983,343.808,348.56,351.305,354.608,356.444,363.788,367.739,372.491,376.316,378.152,380.564,385.487,387.323,390.122,394.892,398.717,400.553,405.323,409.112,411.389,413.693,418.472,425.843,429.047,431.459,438.659,443.312,445.616,449.486,454.238,456.929,460.799,465.551,467.387,472.147,476.017,479.446,482.191,484.027,488.509,491.173,493.009,496.366,500.236,507.436,512.089,514.366,518.137,520.189,522.025,531.628,535.453,537.289,543.174,545.227" svgx:width="0.35,0.23,0.47,0.57,0.89,0.23,0.51,0.3,0.23,0.31,0.69,0.51,0.23,0.27,0.55,0.53,0.43,0.55,0.31,0.37,0.23,0.82,0.44,0.53,0.43,0.23,0.27,0.55,0.23,0.31,0.53,0.43,0.23,0.53,0.43,0.25,0.27,0.53,0.82,0.36,0.27,0.82,0.52,0.25,0.44,0.55,0.31,0.43,0.53,0.23,0.52,0.44,0.37,0.31,0.23,0.51,0.3,0.23,0.37,0.44,0.82,0.52,0.25,0.43,0.23,0.23,1.07,0.43,0.23,0.65,0.23,0.23" style="fill:rgb(0,0,0);font-family:MinionPro-Regular;font-size:9.0px;stroke:none;">) SEM of two indents made in the helium-implanted part of sample. The X, </text>
   <text y="451.761" x="155.638,161.344,163.18,167.05,171.937,176.689,178.525,183.952,185.788,189.739,193.915,197.74,201.043,202.879,206.659,211.276,215.929,218.206,220.618,224.443,227.746,229.582,232.273,236.863,238.699,243.352,247.843,250.642,255.448,257.284" svgx:width="0.63,0.23,0.44,0.55,0.53,0.23,0.6,0.23,0.44,0.47,0.43,0.37,0.23,0.44,0.52,0.52,0.25,0.27,0.43,0.37,0.23,0.31,0.51,0.23,0.51,0.51,0.31,0.53,0.23,0.35" style="fill:rgb(0,0,0);font-family:MinionPro-Regular;font-size:9.0px;stroke:none;">Y and Z axes applies to both (</text>
   <text y="451.761" x="260.398" svgx:width="0.47" style="fill:rgb(0,0,0);font-family:MinionPro-Bold;font-size:9.0px;stroke:none;">a</text>
   <text y="451.761" x="264.592,267.706,269.542,273.412,278.299,283.051,284.887" svgx:width="0.35,0.23,0.44,0.55,0.53,0.23,0.35" style="fill:rgb(0,0,0);font-family:MinionPro-Regular;font-size:9.0px;stroke:none;">) and (</text>
   <text y="451.761" x="288.001" svgx:width="0.53" style="fill:rgb(0,0,0);font-family:MinionPro-Bold;font-size:9.0px;stroke:none;">b</text>
   <text y="451.761" x="292.807,295.921,297.973,299.809" svgx:width="0.35,0.23,0.23,0.35" style="fill:rgb(0,0,0);font-family:MinionPro-Regular;font-size:9.0px;stroke:none;">). (</text>
   <text y="451.761" x="302.923" svgx:width="0.42" style="fill:rgb(0,0,0);font-family:MinionPro-Bold;font-size:9.0px;stroke:none;">c</text>
   <text y="451.761" x="306.721,309.835,311.671,316.593,321.228,325.179,329.931,331.767,335.862,339.687,342.972,346.23,350.982,354.285,356.121,360.873,363.258,366.516,371.168,373.472,377.423,381.23,385.055,392.39,396.215,400.967,403.712,405.548,409.417,414.196,417.796,421.891,425.716,427.552,430.135,434.617,437.956,439.792,442.59,447.361,451.186,453.022,457.801,462.724,465.136,472.336,476.989,479.293,483.163,487.915,490.606,494.476,499.228,501.064,504.935,509.822,514.574,516.41,521.18,524.969,527.246,529.55,534.329,541.7" svgx:width="0.35,0.23,0.54,0.51,0.44,0.53,0.23,0.46,0.43,0.37,0.37,0.53,0.37,0.23,0.53,0.27,0.37,0.52,0.25,0.44,0.42,0.43,0.82,0.43,0.55,0.31,0.23,0.42,0.53,0.37,0.46,0.43,0.23,0.3,0.51,0.37,0.23,0.31,0.53,0.43,0.23,0.53,0.55,0.27,0.82,0.52,0.25,0.44,0.55,0.31,0.43,0.53,0.23,0.44,0.55,0.53,0.23,0.53,0.43,0.25,0.27,0.53,0.82,0.36" style="fill:rgb(0,0,0);font-family:MinionPro-Regular;font-size:9.0px;stroke:none;">) Load versus displacement curve for the unimplanted and helium-</text>
   <text y="461.76" x="155.638,158.05,165.25,169.903,172.207,176.077,180.829,183.52,187.389,192.141,193.977,196.632,201.411,206.262,210.474,213.732,216.423,220.248,225.171,227.007,230.363,234.234,241.433,246.086,248.363,252.188,254.024,257.948,261.251,263.087,267.632,272.105,274.904,278.774,281.186,286.073,289.943,294.695,296.531,299.284,302.506,306.988,314.359,316.195,321.091,324.961,329.848,334.438,337.642,340.054,344.941,349.693,353.518,358.27,361.069,364.849,367.639,370.051,374.533,379.456,381.292,385.162,390.049,394.801,396.637,401.245,404.467,408.337,413.089,415.501,419.371,422.062,425.931,430.683,432.519,436.947,441.078,442.914,448.899,453.921,458.682,463.794,465.846,467.682" svgx:width="0.27,0.82,0.52,0.25,0.44,0.55,0.31,0.43,0.53,0.23,0.31,0.53,0.55,0.47,0.37,0.31,0.43,0.55,0.23,0.37,0.44,0.82,0.52,0.25,0.43,0.23,0.44,0.37,0.23,0.51,0.51,0.31,0.44,0.27,0.55,0.43,0.53,0.23,0.3,0.37,0.51,0.82,0.23,0.55,0.44,0.55,0.51,0.36,0.27,0.55,0.53,0.43,0.55,0.31,0.44,0.31,0.27,0.51,0.55,0.23,0.44,0.55,0.53,0.23,0.52,0.37,0.43,0.53,0.27,0.42,0.31,0.43,0.53,0.23,0.51,0.46,0.23,0.67,0.56,0.53,0.57,0.23,0.23,0.35" style="fill:rgb(0,0,0);font-family:MinionPro-Regular;font-size:9.0px;stroke:none;">implanted tungsten sample as obtained from nano-indentation and predicted by CPFE. (</text>
   <text y="461.76" x="470.796" svgx:width="0.55" style="fill:rgb(0,0,0);font-family:MinionPro-Bold;font-size:9.0px;stroke:none;">d</text>
   <text y="461.76" x="475.719,478.833,480.669,486.222,491.334,499.353,501.189,508.56,510.972,514.779,518.001,522.591,526.848,530.187,533.967,538.62,543.354,546.657" svgx:width="0.35,0.23,0.62,0.57,0.89,0.23,0.82,0.27,0.42,0.37,0.51,0.47,0.37,0.44,0.52,0.53,0.37,0.23" style="fill:rgb(0,0,0);font-family:MinionPro-Regular;font-size:9.0px;stroke:none;">) TEM micrographs </text>
   <text y="471.759" x="155.638,160.12,162.784,164.62,168.571,170.407,175.168,178.237,183.529,186.733,189.01,191.422,196.66,199.864,204.354,209.025,211.77,213.606,217.413,220.634,225.224,228.482,231.785,234.989,238.364,242.234,246.104,248.893,251.305,255.787,260.71,262.546,265.3,268.522,273.004,280.375,282.211,285.01,289.78,293.605,295.441,297.853,302.74,307.492,311.317,316.069,318.814,322.018,325.825,329.65,334.402,337.192,340.414,344.239,346.075,348.487,353.41,355.246,358.045,362.815,366.64,368.476,370.888,378.087,382.74,385.044,388.914,393.666,396.357,400.227,404.979,406.815,410.172,414.042,421.242,425.895,428.172,431.943,433.995,435.831,439.098,443.868,448.314,454.506,456.918,461.769,465.981,467.817,470.616,475.386,479.211,481.047,485.655,488.877,492.702,496.077,499.902,504.789,508.596,512.421,514.257,518.738,521.402,523.238,526.505,528.782,531.086,535.802" svgx:width="0.51,0.3,0.23,0.44,0.23,0.53,0.34,0.59,0.36,0.25,0.27,0.58,0.36,0.51,0.53,0.31,0.23,0.42,0.37,0.51,0.37,0.37,0.36,0.37,0.43,0.42,0.31,0.27,0.51,0.55,0.23,0.3,0.37,0.51,0.82,0.23,0.31,0.53,0.43,0.23,0.27,0.55,0.53,0.43,0.55,0.31,0.36,0.42,0.43,0.55,0.31,0.37,0.43,0.23,0.27,0.55,0.23,0.31,0.53,0.43,0.23,0.27,0.82,0.52,0.25,0.44,0.55,0.31,0.43,0.53,0.23,0.37,0.44,0.82,0.52,0.25,0.43,0.23,0.23,0.37,0.53,0.51,0.69,0.27,0.55,0.47,0.23,0.31,0.53,0.43,0.23,0.52,0.37,0.43,0.37,0.43,0.55,0.42,0.43,0.23,0.51,0.3,0.23,0.37,0.25,0.27,0.52,0.23" style="fill:rgb(0,0,0);font-family:MinionPro-Regular;font-size:9.0px;stroke:none;">of a FIB-lift-out cross-section from the indent-centre in the implanted sample, showing the presence of slip </text>
   <text y="481.758" x="155.638,159.391,164.17,168.04,172.963,177.85,181.639,183.889,187.192,189.028,193.68,197.505,202.392,206.271,210.051,212.85,217.656,219.492,222.291,227.061,230.886,232.722,235.134,240.02,244.772,248.597,253.349,256.094,258.146,259.982,269.585,273.41,275.246,277.658,282.509,285.884,289.709,292.454,294.29,296.702,301.625,303.461" svgx:width="0.42,0.53,0.44,0.55,0.55,0.43,0.25,0.37,0.23,0.51,0.43,0.55,0.43,0.44,0.31,0.53,0.23,0.31,0.53,0.43,0.23,0.27,0.55,0.53,0.43,0.55,0.31,0.23,0.23,1.07,0.43,0.23,0.27,0.55,0.37,0.43,0.31,0.23,0.27,0.55,0.23,0.35" style="fill:rgb(0,0,0);font-family:MinionPro-Regular;font-size:9.0px;stroke:none;">channels beneath the indent. The inset in (</text>
   <text y="481.758" x="306.575" svgx:width="0.55" style="fill:rgb(0,0,0);font-family:MinionPro-Bold;font-size:9.0px;stroke:none;">d</text>
   <text y="481.758" x="311.498,314.612,316.448,319.715,324.485,328.931,335.096,338.399,340.235,344.186,346.022,349.775,352.052,356.642,360.017,363.842,367.046,371.717,376.433,378.269,382.751,385.415,387.251,390.05,394.82,398.645,400.481,403.747,406.024,408.328,413.044,414.88,418.633,423.412,427.282,432.205,437.092,440.881,443.158,444.994,448.864,453.751,458.503,460.339,465.091,468.916,473.524,475.936,479.806,482.551,485.854,487.69,490.488,495.258,499.083,500.919,505.672,508.083,513.187,517.939,521.314,525.139" svgx:width="0.35,0.23,0.37,0.53,0.51,0.69,0.37,0.23,0.44,0.23,0.42,0.25,0.51,0.37,0.43,0.36,0.53,0.52,0.23,0.51,0.3,0.23,0.31,0.53,0.43,0.23,0.37,0.25,0.27,0.52,0.23,0.42,0.53,0.44,0.55,0.55,0.43,0.25,0.23,0.44,0.55,0.53,0.23,0.53,0.43,0.52,0.27,0.42,0.31,0.37,0.23,0.31,0.53,0.43,0.23,0.53,0.27,0.56,0.53,0.37,0.43,0.23" style="fill:rgb(0,0,0);font-family:MinionPro-Regular;font-size:9.0px;stroke:none;">) shows a close-up of the slip channel and depicts the diffuse </text>
   <text y="491.757" x="155.638,160.291,164.782,169.561,174.448,179.227,183.097,186.697,190.828,192.664,197.317,201.142,203.914,210.007,213.877,217.702,222.625,224.461,227.26,232.03,235.855,237.691,241.444,246.223,250.093,255.016,259.903,263.692,265.969,267.805,271.675,276.562,281.314,283.15,285.949,290.719,294.544,296.38,299.638,304.417,307.81,311.032,315.523,320.302,325.189,329.941,332.353,337.204,341.416,343.252,350.596,354.376,357.165,360.558,362.97,367.218,369.27,371.106,380.709,384.534,386.37,390.626,393.848,397.718,401.543,406.466,408.302,412.172,416.915,421.567,425.392,427.228,430.45,434.275,438.883,442.105,445.93,449.305,453.13,457.881,460.626,463.929,465.765,468.564,473.334,477.159,478.995,482.802,486.402,490.533,493.791,496.59,500.586,502.863,504.699,509.181,512.574,514.986,518.811,523.563,526.362,530.141,532.931,535.343,539.825,544.748,546.584,551.066,553.73" svgx:width="0.51,0.51,0.53,0.55,0.53,0.44,0.37,0.46,0.23,0.51,0.43,0.31,0.69,0.43,0.43,0.55,0.23,0.31,0.53,0.43,0.23,0.42,0.53,0.44,0.55,0.55,0.43,0.25,0.23,0.44,0.55,0.53,0.23,0.31,0.53,0.43,0.23,0.37,0.53,0.37,0.37,0.51,0.53,0.55,0.53,0.27,0.55,0.47,0.23,0.82,0.44,0.31,0.37,0.27,0.47,0.23,0.23,1.07,0.43,0.23,0.47,0.37,0.43,0.43,0.55,0.23,0.42,0.53,0.51,0.43,0.23,0.37,0.43,0.52,0.37,0.43,0.37,0.43,0.55,0.31,0.37,0.23,0.31,0.53,0.43,0.23,0.42,0.37,0.46,0.37,0.31,0.44,0.25,0.23,0.51,0.37,0.27,0.43,0.55,0.31,0.44,0.31,0.27,0.51,0.55,0.23,0.51,0.3,0.23" style="fill:rgb(0,0,0);font-family:MinionPro-Regular;font-size:9.0px;stroke:none;">boundary between the channel and the surrounding matrix. The green cube represents the crystal orientation of </text>
   <text y="501.756" x="155.638,158.437,163.207,167.032,168.868,174.421,179.533,187.552,189.388,191.692,195.562,202.897,206.686,209.008,211.312,215.263,217.315,219.151,223.147,225.397,228.772,233.362,235.198,237.61,242.497,247.249,249.661,253.494,257.274,259.965,263.835,268.587,270.423,274.851,278.982,280.818,284.04,287.91,292.662,294.498,297.612,303.498,305.334,309.285,313.533,315.918,319.221,322.335,324.171,328.041,332.928,337.68,339.516,344.025,346.328,350.279,354.032,358.496,360.332,363.446,368.873,370.709,374.66,378.908,381.293,384.596,387.71,389.546,393.416,396.809,400.031,404.477,410.642,413.945,415.781,419.048,423.818,428.264,434.456,436.868,441.719,445.931,447.767,450.566,455.336,459.161,460.997,464.354,468.224,475.559,479.384,481.22,485.027,489.698,494.18,497.402,502.154,504.566,509.462,513.242,515.933,519.758,521.594,524.348,527.687,531.557,538.892,542.717,544.553,548.477,551.78" svgx:width="0.31,0.53,0.43,0.23,0.62,0.57,0.89,0.23,0.25,0.44,0.82,0.43,0.25,0.25,0.44,0.23,0.23,0.44,0.25,0.37,0.51,0.23,0.27,0.55,0.53,0.27,0.42,0.44,0.31,0.43,0.53,0.23,0.51,0.46,0.23,0.37,0.43,0.53,0.23,0.35,0.65,0.23,0.44,0.47,0.27,0.37,0.35,0.23,0.44,0.55,0.53,0.23,0.51,0.25,0.44,0.42,0.5,0.23,0.35,0.6,0.23,0.44,0.47,0.27,0.37,0.35,0.23,0.44,0.37,0.37,0.51,0.69,0.37,0.23,0.37,0.53,0.51,0.69,0.27,0.55,0.47,0.23,0.31,0.53,0.43,0.23,0.37,0.44,0.82,0.43,0.23,0.42,0.51,0.51,0.37,0.53,0.27,0.55,0.44,0.31,0.43,0.23,0.3,0.37,0.44,0.82,0.43,0.23,0.44,0.37,0.23" style="fill:rgb(0,0,0);font-family:MinionPro-Regular;font-size:9.0px;stroke:none;">the TEM lamella, also indicated by red (X axis) and black (Z axis) arrows showing the same coordinate frame as </text>
   <text y="511.755" x="155.638,158.05,162.973,164.809" svgx:width="0.27,0.55,0.23,0.35" style="fill:rgb(0,0,0);font-family:MinionPro-Regular;font-size:9.0px;stroke:none;">in (</text>
   <text y="511.755" x="167.923" svgx:width="0.47" style="fill:rgb(0,0,0);font-family:MinionPro-Bold;font-size:9.0px;stroke:none;">a</text>
   <text y="511.755" x="172.117,175.231" svgx:width="0.35,0.23" style="fill:rgb(0,0,0);font-family:MinionPro-Regular;font-size:9.0px;stroke:none;">).</text>
  </g>
 </g>
</svg>
