<?xml version="1.0" encoding="UTF-8"?>
<svg height="738.126" width="530.3585" xmlns="http://www.w3.org/2000/svg">
 <g id="page" xmlns:svgx="http://www.xml-cml.org/schema/svgx">
  <g begin="text">
   <text y="62.979" x="76.535,84.059,87.598,90.252,93.352,96.452,98.668,102.207,104.422" svgx:width="0.94,0.44,0.33,0.39,0.39,0.28,0.44,0.28,0.39" style="fill:rgb(0,0,0);font-family:URWPalladioL-Ital;font-size:7.97px;stroke:none;">Materials</text>
   <text y="62.979" x="109.515,113.5,117.485,121.47" svgx:width="0.5,0.5,0.5,0.5" style="fill:rgb(0,0,0);font-family:URWPalladioL-Bold;font-size:7.97px;stroke:none;">2019</text>
   <text y="62.979" x="125.455" svgx:width="0.25" style="fill:rgb(0,0,0);font-family:URWPalladioL-Roma;font-size:7.97px;stroke:none;">,</text>
   <text y="62.979" x="129.44,133.425" svgx:width="0.5,0.5" style="fill:rgb(0,0,0);font-family:URWPalladioL-Ital;font-size:7.97px;stroke:none;">12</text>
   <text y="62.979" x="137.41,139.4025,141.395,145.38,149.365,153.35,157.335,491.809,495.794,499.779,501.772,506.123,508.7531,510.77,514.755" svgx:width="0.25,0.55,0.5,0.5,0.5,0.5,0.55,0.5,0.5,0.55,0.55,0.33,0.55,0.5,0.5" style="fill:rgb(0,0,0);font-family:URWPalladioL-Roma;font-size:7.97px;stroke:none;">, 3464 27 of 32</text>
   <text y="97.848" x="76.535,84.807,89.779,95.396,98.29,104.076,109.6536,112.09,114.983,120.7598,123.256,132.035,134.928,140.715,146.7906,149.276,152.517,158.304,163.0848,165.552,170.523,174.739,177.98,183.409,189.196,192.089,196.305,202.091,204.984,210.771,216.34859999999998,218.785,223.756,228.171,233.957,236.851,241.613,247.231,251.993,260.773,265.535,271.322,274.563,278.7462,281.265,284.158,289.9348,292.43,295.672,301.458,306.2388,308.706,312.922,318.45,324.237,327.478,333.265,338.027,342.243,345.136,349.3192,351.838,357.267,360.5538,363.063,368.85,373.612,381.8788,384.39,393.17,398.598,401.492,406.254,410.669,416.664,419.557,424.32,428.5032,431.021,436.45,439.7368,442.247,447.218,450.111,458.891,464.319,468.535,471.82180000000005,474.252,479.223,485.01,490.5876,493.024,497.24,503.026,507.998,513.973" svgx:width="0.83,0.5,0.56,0.29,0.58,0.56,0.55,0.29,0.58,0.55,0.88,0.29,0.58,0.61,0.55,0.33,0.58,0.48,0.55,0.5,0.42,0.33,0.55,0.58,0.29,0.42,0.58,0.29,0.58,0.56,0.55,0.5,0.44,0.58,0.29,0.48,0.56,0.48,0.88,0.48,0.58,0.33,0.42,0.55,0.29,0.58,0.55,0.33,0.58,0.48,0.55,0.42,0.56,0.58,0.33,0.58,0.48,0.42,0.29,0.42,0.55,0.55,0.33,0.55,0.58,0.48,0.83,0.55,0.88,0.55,0.29,0.48,0.44,0.6,0.29,0.48,0.42,0.55,0.55,0.33,0.55,0.5,0.29,0.88,0.55,0.42,0.33,0.55,0.5,0.58,0.56,0.55,0.42,0.58,0.5,0.6,0.48" style="fill:rgb(0,0,0);font-family:URWPalladioL-Roma;font-size:9.96px;stroke:none;">Having in mind the astonishing achievements in the synthesis of new molecules of almost any shape</text>
   <text y="111.358" x="76.535,81.417,87.099,93.1746,95.134,99.274,103.95,109.418,115.305,119.982,125.664,129.999,134.676,138.815,141.305,143.404,146.587,152.269,156.946,160.627,165.4078,167.373,172.255,175.926,180.7068,182.672,188.355,193.833,195.755,201.721,207.051,212.939,218.338,221.521,225.7042,227.72,230.903,236.586,241.467,244.7538,246.72,249.561,255.33780000000002,257.313,260.496,266.178,270.9588,272.925,278.607,283.284,288.165,292.149,294.082,297.333,303.22,306.403,312.291,315.971,320.7518,322.718,327.69800000000004,329.66,335.088,338.769,343.445,348.327,351.6138,353.58,359.262,365.149,373.77,379.17,383.846,387.83,389.773,395.103,398.38980000000004,400.415,406.097,410.773,420.986,425.126,431.013,436.412,440.552,443.735,448.616,454.299,458.633,463.31,467.4932,469.52,477.662,480.503,483.344,486.2324,488.246,493.127,498.995,504.863,509.539,514.421,517.545" svgx:width="0.5,0.58,0.61,0.55,0.42,0.48,0.56,0.6,0.48,0.58,0.44,0.48,0.42,0.25,0.55,0.33,0.58,0.48,0.4,0.48,0.55,0.5,0.4,0.48,0.55,0.58,0.55,0.55,0.61,0.55,0.6,0.55,0.33,0.42,0.55,0.33,0.58,0.5,0.33,0.55,0.29,0.58,0.55,0.33,0.58,0.48,0.55,0.58,0.48,0.5,0.4,0.55,0.33,0.6,0.33,0.6,0.4,0.48,0.55,0.5,0.55,0.56,0.4,0.48,0.5,0.33,0.55,0.58,0.6,0.88,0.55,0.48,0.4,0.55,0.55,0.33,0.55,0.58,0.48,0.83,0.42,0.6,0.55,0.42,0.33,0.5,0.58,0.44,0.48,0.42,0.55,0.83,0.29,0.29,0.29,0.55,0.5,0.6,0.6,0.48,0.5,0.4,0.25" style="fill:rgb(0,0,0);font-family:URWPalladioL-Roma;font-size:9.96px;stroke:none;">and sequences, there are no doubts that in the near future a great number of newsubstances will appear,</text>
   <text y="124.867" x="76.535,79.718,85.4,90.1808,92.234,98.102,101.783,107.114,112.982,117.658,121.515,124.698,127.539,132.215,136.3982,138.503,143.834,147.1208,149.243,157.385,163.068,165.909,170.244,176.0208,178.084,182.965,186.646,191.4268,193.48,199.163,204.044,207.725,213.8006,215.848,219.031,224.50900000000001,226.51,229.351,237.972,242.854,248.282,251.123,256.805,261.5858,263.64,268.522,271.8088,273.862,277.045,282.727,287.5078,289.562,295.429,299.11,303.787,307.926,312.603,318.285,321.57180000000005,323.626,326.809,329.65,338.271,342.948,345.438,348.767,354.751,360.434,365.2148,367.258,372.775,377.656,381.513,384.354,389.685,395.572,399.7552,401.869,405.052,410.481,416.348,421.025,425.2082,427.322,432.653,435.93980000000005,438.062,443.393,447.249,450.091,454.767,460.449,463.632,468.514,471.697,474.538,479.869,485.551,490.433,493.3214,495.432,500.762,504.443,510.409,515.085" svgx:width="0.33,0.58,0.48,0.55,0.6,0.4,0.55,0.6,0.48,0.4,0.33,0.29,0.48,0.42,0.55,0.55,0.33,0.55,0.83,0.58,0.29,0.44,0.58,0.55,0.5,0.4,0.48,0.55,0.58,0.5,0.4,0.61,0.55,0.33,0.55,0.55,0.29,0.88,0.5,0.56,0.29,0.58,0.48,0.55,0.5,0.33,0.55,0.33,0.58,0.48,0.55,0.6,0.4,0.48,0.42,0.48,0.58,0.33,0.55,0.33,0.29,0.88,0.48,0.25,0.55,0.61,0.58,0.48,0.55,0.56,0.5,0.4,0.29,0.55,0.6,0.42,0.55,0.33,0.56,0.6,0.48,0.42,0.55,0.55,0.33,0.55,0.55,0.4,0.29,0.48,0.58,0.33,0.5,0.33,0.29,0.55,0.58,0.5,0.29,0.55,0.55,0.4,0.61,0.48,0.4" style="fill:rgb(0,0,0);font-family:URWPalladioL-Roma;font-size:9.96px;stroke:none;">the properties of which are hard to imagine at the present time. The various types of orientational order</text>
   <text y="138.377" x="76.535,80.801,86.658,92.152,98.219,101.147,107.2226,109.781,115.345,120.1258,122.65,127.681,133.4578,136.033,140.853,145.119,149.386,154.205,160.062,163.342,166.27,171.301,174.18939999999998,176.715,180.065,184.885,189.916,193.196,199.264,203.057,207.8378,210.363,215.857,219.1438,221.693,227.549,232.369,240.761,243.689,249.26659999999998,251.779,256.045,261.64,267.496,270.776,276.632,281.452,285.719,288.647,293.678,298.498,304.5736,307.131,316.016,321.047,324.327,329.147,333.122,336.05,341.081,344.009,348.275,350.765,354.273,360.441,366.297,372.364,376.631,379.121,381.642,384.922,390.778,395.5588,398.083,401.877,407.371,410.299,415.0798,417.604,423.098,426.38480000000004,428.934,436.763,443.474,450.608,457.742,465.5108,468.066,473.097,477.2802,479.849,484.829,487.366,493.433,499.289,502.217,507.852,513.92" svgx:width="0.42,0.58,0.55,0.6,0.29,0.61,0.55,0.55,0.48,0.55,0.5,0.58,0.55,0.48,0.42,0.42,0.48,0.58,0.33,0.29,0.5,0.29,0.55,0.33,0.48,0.5,0.33,0.6,0.4,0.48,0.55,0.55,0.33,0.55,0.58,0.48,0.83,0.29,0.56,0.55,0.42,0.56,0.58,0.33,0.58,0.48,0.42,0.29,0.5,0.48,0.61,0.55,0.88,0.5,0.33,0.48,0.4,0.29,0.5,0.29,0.42,0.25,0.55,0.61,0.58,0.6,0.42,0.25,0.55,0.33,0.58,0.48,0.55,0.4,0.55,0.29,0.48,0.55,0.55,0.33,0.55,0.78,0.67,0.71,0.71,0.78,0.55,0.5,0.42,0.55,0.5,0.55,0.6,0.58,0.29,0.56,0.6,0.48" style="fill:rgb(0,0,0);font-family:URWPalladioL-Roma;font-size:9.96px;stroke:none;">should be an essential feature of newly synthesized materials. Thus, the role of AXCCA as a unique</text>
   <text y="151.886" x="76.535,79.783,85.222,90.662,93.55040000000001,96.052,98.951,104.72779999999999,107.24,113.885,117.202,121.138,126.119,131.6966,134.149,138.373,141.621,147.628,153.715,156.614,161.386,165.5692,168.101,173.541,176.8278,179.349,184.789,188.724,191.623,196.395,202.193,205.441,210.422,213.67,216.569,222.009,227.807,232.788,235.6764,238.178,243.618,247.374,253.461,258.233,262.217,264.659,269.64,275.438,281.5136,284.016,288.997,294.796,300.335,306.342,309.241,314.223,318.207,320.649,325.072,330.512,334.447,338.203,342.975,345.874,350.855,354.103,357.002,362.442,368.24,372.4232,374.955,383.264,386.163,389.062,391.9504,394.452,399.891,405.689,408.588,414.16560000000004,416.618,419.517,425.316,429.739,433.495,438.267,443.248,447.473,452.2538,454.735,463.044,465.943,469.191,474.96779999999995,477.48,480.728,483.627,492.424,497.196" svgx:width="0.33,0.55,0.55,0.29,0.55,0.29,0.58,0.55,0.67,0.33,0.4,0.5,0.56,0.55,0.42,0.33,0.6,0.61,0.29,0.48,0.42,0.55,0.55,0.33,0.55,0.55,0.4,0.29,0.48,0.58,0.33,0.5,0.33,0.29,0.55,0.58,0.5,0.29,0.55,0.55,0.4,0.61,0.48,0.4,0.55,0.5,0.58,0.61,0.55,0.5,0.58,0.56,0.6,0.29,0.5,0.4,0.55,0.44,0.55,0.4,0.4,0.48,0.29,0.5,0.33,0.29,0.55,0.58,0.42,0.55,0.83,0.29,0.29,0.29,0.55,0.55,0.58,0.29,0.56,0.55,0.29,0.58,0.44,0.4,0.48,0.5,0.42,0.48,0.55,0.83,0.29,0.33,0.58,0.55,0.33,0.29,0.88,0.48,0.25" style="fill:rgb(0,0,0);font-family:URWPalladioL-Roma;font-size:9.96px;stroke:none;">tool in X-ray studies of orientational order and angular correlations will only increase with time.</text>
   <text y="173.973" x="76.535,81.52,86.999,92.477,97.956,100.942,106.42,111.405" svgx:width="0.56,0.61,0.61,0.61,0.33,0.61,0.56,0.25" style="fill:rgb(0,0,0);font-family:URWPalladioL-Bold;font-size:8.97px;stroke:none;">Funding:</text>
   <text y="173.973" x="117.429,123.035,128.358,131.02,134.78740000000002,137.458,140.915,145.296,149.174,153.555,158.127,161.575,165.636,170.83859999999999,173.52,178.093,181.0531,183.635,190.75,197.235,202.036,208.9429,211.685,219.312,223.885,227.6524,230.324,233.369,238.884,244.207,249.795,254.176,259.6477,262.325,267.382,272.4052,275.028,282.144,284.43,289.231,291.4735,294.088,301.167,305.547,311.044,315.617,319.229,322.211,330.287,334.667,339.99,342.9501,345.533,350.526,353.4861,356.132,361.72,367.043,371.424,374.872,379.957,384.054,386.2965,388.984" svgx:width="0.61,0.58,0.29,0.42,0.55,0.4,0.48,0.42,0.48,0.5,0.4,0.44,0.58,0.55,0.5,0.33,0.55,0.78,0.71,0.52,0.77,0.55,0.83,0.5,0.42,0.55,0.33,0.6,0.58,0.61,0.48,0.61,0.55,0.55,0.56,0.55,0.78,0.25,0.52,0.25,0.55,0.77,0.48,0.6,0.5,0.4,0.33,0.88,0.48,0.58,0.33,0.55,0.55,0.33,0.55,0.61,0.58,0.48,0.4,0.56,0.56,0.25,0.55,0.79" style="fill:rgb(0,0,0);font-family:URWPalladioL-Roma;font-size:8.97px;stroke:none;">This research at UCSD was funded by U.S. Department of Energy, O</text>
   <text y="173.973" x="396.169" svgx:width="0.92" style="fill:rgb(0,0,0);font-family:Rpxr;font-size:8.97px;stroke:none;">ﬃ</text>
   <text y="173.973" x="404.574,408.635,412.9406,415.576,420.57,423.5301,426.185,430.987,435.048,437.7,442.081,447.403,451.464,455.845,458.08750000000003,460.784" svgx:width="0.44,0.48,0.55,0.55,0.33,0.55,0.52,0.44,0.29,0.48,0.58,0.44,0.48,0.25,0.55,0.79" style="fill:rgb(0,0,0);font-family:URWPalladioL-Roma;font-size:8.97px;stroke:none;">ce of Science, O</text>
   <text y="173.973" x="467.968" svgx:width="0.92" style="fill:rgb(0,0,0);font-family:Rpxr;font-size:8.97px;stroke:none;">ﬃ</text>
   <text y="173.973" x="476.373,480.434,484.73960000000005,487.375,492.369,495.32910000000004,497.975,503.563,508.136,512.014,514.675" svgx:width="0.44,0.48,0.55,0.55,0.33,0.55,0.61,0.5,0.42,0.29,0.44" style="fill:rgb(0,0,0);font-family:URWPalladioL-Roma;font-size:8.97px;stroke:none;">ce of Basic</text>
   <text y="184.105" x="76.535,81.904,87.018,91.227,94.54,99.425,104.4482,106.095,110.708,114.609,117.166,121.375,126.49,130.391,134.6,138.326,140.5685,142.394,147.693,152.807,158.176,162.385,165.97299999999998,167.648,173.878,178.676,183.79,186.655,190.125,194.519,198.42,201.285,205.0524,206.795,214.097,218.894,221.1365,224.079,230.88,236.249,239.175,243.788,250.018,254.412,258.805,263.199,267.592,271.986,276.379,280.773,283.01550000000003,285.957,291.344,296.458,300.76360000000005,302.451,305.755,309.964,313.689,317.898,322.292,325.605,329.506,334.7086,336.404,341.202,344.1621,345.92,351.79,353.987,360.366,362.6085,364.347,368.74,373.854,379.3257,381.007,383.968,386.165,393.001,395.198,400.383,402.6255,404.372,411.7,416.094,419.8614,421.603,424.529,429.828,434.942,440.311,444.52,449.9917,451.673,456.532,461.55519999999996,463.201,466.066,471.18,475.48560000000003,477.182,484.492,488.701,491.259,499.017,504.132,508.929,511.486,514.351" svgx:width="0.61,0.58,0.48,0.4,0.56,0.56,0.55,0.52,0.44,0.29,0.48,0.58,0.44,0.48,0.42,0.25,0.55,0.6,0.58,0.61,0.48,0.4,0.55,0.71,0.55,0.58,0.33,0.4,0.5,0.44,0.33,0.42,0.55,0.83,0.55,0.25,0.55,0.77,0.61,0.33,0.52,0.71,0.5,0.5,0.5,0.5,0.5,0.5,0.5,0.25,0.55,0.61,0.58,0.48,0.55,0.4,0.48,0.42,0.48,0.5,0.4,0.44,0.58,0.55,0.55,0.33,0.55,0.67,0.25,0.73,0.25,0.55,0.5,0.58,0.61,0.55,0.34,0.25,0.78,0.25,0.72,0.25,0.55,0.83,0.5,0.42,0.55,0.33,0.6,0.58,0.61,0.48,0.61,0.55,0.55,0.56,0.55,0.33,0.58,0.48,0.55,0.83,0.48,0.29,0.88,0.58,0.55,0.29,0.33,0.5" style="fill:rgb(0,0,0);font-family:URWPalladioL-Roma;font-size:8.97px;stroke:none;">Energy Sciences, under Contracts No. DE-SC0001805. The research of R.K. and I.A.V. was funded by the Helmholtz</text>
   <text y="194.237" x="76.186,83.078,86.834,90.59,95.427,99.361,101.939,106.368,109.256,111.834,116.671,121.827,125.5944,127.833,130.818,135.974,138.552,141.431,144.009,148.438,151.326,153.904,158.91,163.2156,165.403,169.832,174.988,180.4597,182.651,190.013,194.256,197.144,204.532,209.369,212.868,217.794,220.372,225.528,230.5512,232.694,237.62,242.962,248.118,253.5897,255.781,260.21,265.366,270.8377,273.029,275.917,281.064,285.36960000000005,287.557,293.475,298.817,302.573,306.329,308.907,313.336,318.53860000000003,320.742,325.393,329.326,331.904,336.148,341.303,345.237,349.48,351.7225,353.936,358.862,362.361,366.79,371.946,374.90610000000004,377.084,382.24,387.582,395.404,400.303,404.546,408.134,410.296,417.666,423.584,428.235,433.16,436.11,440.54,444.969,449.399,453.828,456.0705,459.196,464.627,469.783,474.08860000000004,476.267,479.607,483.851,487.607,491.85,496.279,499.619,503.553,508.7556,510.95,515.787" svgx:width="0.78,0.42,0.42,0.55,0.44,0.29,0.5,0.33,0.29,0.55,0.58,0.42,0.55,0.34,0.58,0.29,0.33,0.29,0.5,0.33,0.29,0.56,0.48,0.55,0.5,0.58,0.61,0.55,0.83,0.48,0.33,0.83,0.55,0.4,0.56,0.29,0.58,0.56,0.55,0.56,0.6,0.58,0.61,0.55,0.5,0.58,0.61,0.55,0.33,0.58,0.48,0.55,0.67,0.6,0.42,0.42,0.29,0.5,0.58,0.55,0.52,0.44,0.29,0.48,0.58,0.44,0.48,0.25,0.55,0.56,0.4,0.5,0.58,0.33,0.55,0.58,0.6,0.88,0.55,0.48,0.4,0.55,0.83,0.67,0.52,0.56,0.33,0.5,0.5,0.5,0.5,0.25,0.55,0.61,0.58,0.48,0.55,0.4,0.48,0.42,0.48,0.5,0.4,0.44,0.58,0.55,0.55,0.33" style="fill:rgb(0,0,0);font-family:URWPalladioL-Roma;font-size:8.97px;stroke:none;">Associations Initiative and Networking Fund and the Russian Science, grant number HRSF-0002. The research of</text>
   <text y="204.369" x="76.535,82.096,84.371,87.438,89.713,96.866,99.1085,101.38,108.971,113.521,117.2884,119.619,122.649,128.137,133.434,138.994,143.354,148.8257,151.153,156.186,161.2092,163.485,166.452,171.749,176.0546,178.347,184.426,189.914,193.773,197.632,200.28,204.83,210.0326,212.366,217.144,221.185,223.833,228.192,233.489,237.53,241.8356,244.128,249.188,254.157,259.645,264.942,270.502,275.053,278.02,280.668,285.637,290.934,293.17650000000003,295.457,300.517,304.112,308.662,313.959,316.9191,319.165,324.462,329.949,337.986,343.018,347.378,350.966,353.211,357.762,362.312,365.343,369.893,374.444,377.474,382.025,386.575,391.126,395.676,400.227,402.4695,405.633,411.211,416.508,420.8136,423.106,426.546,430.906,434.764,439.124,443.674,447.105,451.146,456.34860000000003,458.682,463.651,466.6111,468.92,477.53,479.805,484.583,486.82550000000003,489.097,493.647,498.944,504.4157,506.743,510.984,513.26,518.038" svgx:width="0.61,0.25,0.34,0.25,0.79,0.25,0.55,0.83,0.5,0.42,0.55,0.33,0.6,0.58,0.61,0.48,0.61,0.55,0.55,0.56,0.55,0.33,0.58,0.48,0.55,0.67,0.6,0.42,0.42,0.29,0.5,0.58,0.55,0.52,0.44,0.29,0.48,0.58,0.44,0.48,0.55,0.56,0.55,0.6,0.58,0.61,0.5,0.33,0.29,0.55,0.58,0.25,0.55,0.56,0.4,0.5,0.58,0.33,0.55,0.58,0.6,0.88,0.55,0.48,0.4,0.55,0.5,0.5,0.33,0.5,0.5,0.33,0.5,0.5,0.5,0.5,0.5,0.25,0.55,0.61,0.58,0.48,0.55,0.4,0.48,0.42,0.48,0.5,0.4,0.44,0.58,0.55,0.55,0.33,0.55,0.95,0.25,0.52,0.25,0.55,0.5,0.58,0.61,0.55,0.56,0.25,0.52,0.25" style="fill:rgb(0,0,0);font-family:URWPalladioL-Roma;font-size:8.97px;stroke:none;">B.I.O. was funded by the Russian Science Foundation, grant number 18-12-00108. The research of M.S. and F.S.</text>
   <text y="214.501" x="76.159,83.637,88.12,91.8874,94.164,97.149,102.556,107.775,113.253,117.548,123.0197,125.268,130.226,135.2492,137.453,140.376,145.595,149.9006,152.131,159.071,164.057,170.898,173.1405,175.381,180.367,183.908,188.391,193.61,196.57010000000002,198.775,203.993,209.4,217.317,222.275,226.57,230.112,233.8794,236.155,240.863,247.22,254.68,260.159,264.642,269.125,273.608" svgx:width="0.83,0.5,0.42,0.55,0.33,0.6,0.58,0.61,0.48,0.61,0.55,0.55,0.56,0.55,0.33,0.58,0.48,0.55,0.77,0.56,0.76,0.25,0.55,0.56,0.4,0.5,0.58,0.33,0.55,0.58,0.6,0.88,0.55,0.48,0.4,0.42,0.55,0.52,0.71,0.83,0.61,0.5,0.5,0.5,0.5" style="fill:rgb(0,0,0);font-family:URWPalladioL-Roma;font-size:8.97px;stroke:none;">was funded by the DFG, grant numbers SCHE1905</text>
   <text y="214.501" x="278.089" svgx:width="0.29" style="fill:rgb(0,0,0);font-family:Rpxr;font-size:8.97px;stroke:none;">/</text>
   <text y="214.501" x="280.662,285.145,287.3875,289.628,294.336,300.693,308.153,313.632,318.115,322.598,327.081" svgx:width="0.5,0.25,0.55,0.52,0.71,0.83,0.61,0.5,0.5,0.5,0.5" style="fill:rgb(0,0,0);font-family:URWPalladioL-Roma;font-size:8.97px;stroke:none;">3, SCHE1905</text>
   <text y="214.501" x="331.564" svgx:width="0.29" style="fill:rgb(0,0,0);font-family:Rpxr;font-size:8.97px;stroke:none;">/</text>
   <text y="214.501" x="334.137,338.622,340.862,345.345,350.563,356.0347,358.284,362.991,369.348,376.808,382.798,387.281,391.764" svgx:width="0.5,0.55,0.5,0.58,0.61,0.55,0.52,0.71,0.83,0.67,0.5,0.5,0.5" style="fill:rgb(0,0,0);font-family:URWPalladioL-Roma;font-size:8.97px;stroke:none;">4 and SCHR700</text>
   <text y="214.501" x="396.247" svgx:width="0.29" style="fill:rgb(0,0,0);font-family:Rpxr;font-size:8.97px;stroke:none;">/</text>
   <text y="214.501" x="398.821,403.304,407.787,410.773,415.256" svgx:width="0.5,0.5,0.33,0.5,0.25" style="fill:rgb(0,0,0);font-family:URWPalladioL-Roma;font-size:8.97px;stroke:none;">25-1.</text>
   <text y="230.611" x="76.186,83.162,87.143,92.621,98.1,103.085,110.554,113.54,118.023,123.502,128.487,136.458,140.941,146.42,149.406,153.387" svgx:width="0.78,0.44,0.61,0.61,0.56,0.83,0.33,0.5,0.61,0.56,0.89,0.5,0.61,0.33,0.44,0.25" style="fill:rgb(0,0,0);font-family:URWPalladioL-Bold;font-size:8.97px;stroke:none;">Acknowledgments:</text>
   <text y="230.611" x="158.682,164.068,169.183,173.4886,175.465,179.859,185.157,188.022,193.136,197.934,201.405,205.1724,207.204,211.598,215.499,220.385,225.499,230.297,237.625,240.182,244.391,249.76,254.646,258.9516,260.928,264.654,269.953,275.234,280.515,285.313,288.783,291.7431,293.731,298.124,303.238,308.7097,310.681,316.05,318.607,322.332,326.234,331.533,335.258,338.984,341.541,346.339,351.453,355.2204,357.252,362.05,365.0101,367.05,369.914,375.029,379.3346,381.311,386.592,389.905,394.703,396.759,400.968,404.869,407.82910000000004,409.808,417.136,419.693,422.558,427.7606,429.746,435.115,437.3575,439.385,447.346,451.555,455.457,460.342,464.551,468.022,470.887,473.1295,475.192,479.586,484.7,490.1717,492.143,496.044,500.438,503.75,507.959,510.885,516.184" svgx:width="0.61,0.58,0.48,0.55,0.5,0.6,0.33,0.58,0.55,0.4,0.42,0.55,0.5,0.44,0.56,0.58,0.55,0.83,0.29,0.48,0.61,0.56,0.48,0.55,0.42,0.6,0.6,0.6,0.55,0.4,0.33,0.55,0.5,0.58,0.61,0.55,0.61,0.29,0.42,0.44,0.6,0.42,0.42,0.29,0.55,0.58,0.42,0.55,0.55,0.33,0.55,0.33,0.58,0.48,0.55,0.6,0.4,0.55,0.23,0.48,0.44,0.33,0.55,0.83,0.29,0.33,0.58,0.55,0.61,0.25,0.55,1.0,0.48,0.44,0.56,0.48,0.4,0.33,0.25,0.55,0.5,0.58,0.61,0.55,0.44,0.5,0.4,0.48,0.33,0.6,0.29" style="fill:rgb(0,0,0);font-family:URWPalladioL-Roma;font-size:8.97px;stroke:none;">The authors acknowledge support and discussions of the project with E. Weckert, and careful</text>
   <text y="240.743" x="76.535,79.915,84.21,88.693,94.172,96.781,102.0,107.0232,109.227,114.122,117.0821,119.35,122.273,127.491,131.7966,134.028,141.945,146.428,151.647,157.053,160.855,164.836,168.378,170.987,176.376,179.33610000000002,181.541,186.499,191.5222,193.726,199.715,201.9575,204.199,211.04,215.335,220.553,224.095,229.08,233.375" svgx:width="0.4,0.48,0.5,0.61,0.29,0.58,0.56,0.55,0.55,0.33,0.55,0.33,0.58,0.48,0.55,0.88,0.5,0.58,0.6,0.42,0.44,0.4,0.29,0.6,0.33,0.55,0.55,0.56,0.55,0.67,0.25,0.55,0.76,0.48,0.58,0.4,0.56,0.48,0.25" style="fill:rgb(0,0,0);font-family:URWPalladioL-Roma;font-size:8.97px;stroke:none;">reading of the manuscript by R. Gehrke.</text>
   <text y="256.853" x="76.535,83.009,87.994,93.473,98.951,101.937,105.918,108.904,112.85079999999999,115.126,120.112,123.6103,125.841,129.329,134.808,137.793,142.277,145.765,150.248,154.229,157.215" svgx:width="0.72,0.56,0.61,0.61,0.33,0.44,0.33,0.44,0.55,0.56,0.39,0.55,0.39,0.61,0.33,0.5,0.39,0.5,0.44,0.33,0.25" style="fill:rgb(0,0,0);font-family:URWPalladioL-Bold;font-size:8.97px;stroke:none;">Conﬂicts of Interest:</text>
   <text y="256.853" x="162.594,168.09,173.309,177.6146,179.845,184.329,189.735,192.658,197.877,202.772,206.314,210.0814,212.358,217.836,222.131,226.112,228.721,233.204,236.585,240.8906,243.121,248.34,253.2735,255.477,259.458,264.354,269.572,275.024,277.633,281.614,284.5741,286.779,291.674,294.6341,296.902,299.511,304.729,307.652,311.947,315.328,319.623,323.424,326.347" svgx:width="0.61,0.58,0.48,0.55,0.5,0.6,0.33,0.58,0.55,0.4,0.42,0.55,0.61,0.48,0.44,0.29,0.5,0.4,0.48,0.55,0.58,0.55,0.55,0.44,0.55,0.58,0.61,0.29,0.44,0.33,0.55,0.55,0.33,0.55,0.29,0.58,0.33,0.48,0.4,0.48,0.42,0.33,0.25" style="fill:rgb(0,0,0);font-family:URWPalladioL-Roma;font-size:8.97px;stroke:none;">The authors declare no conﬂict of interest.</text>
   <text y="283.154" x="76.535,83.728,88.709,92.585,97.566,101.441,106.423,112.51,116.933,121.915" svgx:width="0.72,0.5,0.39,0.5,0.39,0.5,0.61,0.44,0.5,0.44" style="fill:rgb(0,0,0);font-family:URWPalladioL-Bold;font-size:9.96px;stroke:none;">References</text>
   <text y="302.043" x="76.535,81.018,83.26050000000001,97.938,103.967,108.876,113.063,115.407,120.087,122.432,127.341,129.5835,131.51,135.459,137.442,139.6845,141.611,146.776,151.871,156.524,160.526,165.435,168.952,173.632,177.317,179.5595,181.486,185.998" svgx:width="0.5,0.25,0.55,0.71,0.58,0.5,0.29,0.56,0.29,0.58,0.25,0.55,0.6,0.25,0.25,0.55,0.61,0.6,0.55,0.48,0.58,0.42,0.56,0.56,0.25,0.55,0.61,0.25" style="fill:rgb(0,0,0);font-family:URWPalladioL-Roma;font-size:8.97px;stroke:none;">1. Chaikin, P.; Lubensky, T.</text>
   <text y="302.043" x="190.171,195.336,198.544,200.774,205.454,208.821,211.051,215.238,217.468,220.676,224.1743,226.07,229.763,232.2746,234.179,239.838,243.531,248.211,252.398,255.606,260.286,263.494,266.703,271.188,273.075,281.175,284.868,287.583,290.298,293.506,297.00429999999994,298.9,304.065,308.252,312.439,315.647,317.877,321.244" svgx:width="0.61,0.39,0.28,0.56,0.41,0.28,0.5,0.28,0.39,0.39,0.55,0.44,0.28,0.55,0.67,0.44,0.56,0.5,0.39,0.56,0.39,0.39,0.5,0.55,0.94,0.44,0.33,0.33,0.39,0.39,0.55,0.61,0.5,0.5,0.39,0.28,0.41,0.39" style="fill:rgb(0,0,0);font-family:URWPalladioL-Ital;font-size:8.97px;stroke:none;">Principles of Condensed Matter Physics</text>
   <text y="302.043" x="324.448,326.6905,328.617,334.646,338.832,346.395,351.049,354.31,356.654,361.819,366.5,370.8056,372.687,379.324,384.233,386.578,391.337,395.339,398.6,402.117,404.461,407.114,412.13719999999995,413.981,419.084,422.178,426.179,429.696,433.213,435.45550000000003,438.281,444.309,448.496,456.059,460.712,463.973,466.318,471.483,476.163,480.165,482.4075,484.334,490.971,497.149,499.3915,501.318,505.505,509.692,513.878,518.065" svgx:width="0.25,0.55,0.71,0.5,0.88,0.55,0.4,0.29,0.61,0.56,0.48,0.55,0.78,0.58,0.29,0.56,0.48,0.4,0.42,0.29,0.33,0.56,0.55,0.6,0.4,0.48,0.42,0.42,0.25,0.55,0.71,0.5,0.88,0.55,0.4,0.29,0.61,0.56,0.48,0.25,0.55,0.78,0.73,0.25,0.55,0.5,0.5,0.5,0.5,0.25" style="fill:rgb(0,0,0);font-family:URWPalladioL-Roma;font-size:8.97px;stroke:none;">; Cambridge University Press: Cambridge, UK, 1995.</text>
   <text y="314.955" x="76.535,81.018,83.26050000000001,97.983,102.469,106.55,108.978,111.406,116.393,121.152,125.233,127.916,130.1585,132.191,134.988,137.055,142.113" svgx:width="0.5,0.25,0.55,0.52,0.48,0.29,0.29,0.58,0.56,0.48,0.4,0.25,0.55,0.33,0.25,0.72,0.25" style="fill:rgb(0,0,0);font-family:URWPalladioL-Roma;font-size:8.97px;stroke:none;">2. Selinger, J.V.</text>
   <text y="314.955" x="146.388,149.185,153.944,156.741,159.872,163.646,167.912,172.671,176.119,178.916,181.229,185.003,190.0262,191.969,194.766,198.7128,200.747,203.545,207.811,211.3093,213.308,218.551,222.817,226.106,229.88,233.17,237.655,239.644,243.417,245.9286,247.938,252.697,256.47,258.784,261.7441,263.789,271.96,275.734,278.531,281.328,284.618" svgx:width="0.33,0.56,0.33,0.39,0.44,0.5,0.56,0.41,0.33,0.28,0.44,0.56,0.55,0.33,0.44,0.55,0.33,0.5,0.39,0.55,0.61,0.5,0.39,0.44,0.39,0.5,0.55,0.44,0.28,0.55,0.56,0.44,0.28,0.33,0.55,0.94,0.44,0.33,0.33,0.39,0.39" style="fill:rgb(0,0,0);font-family:URWPalladioL-Ital;font-size:8.97px;stroke:none;">Introduction to the Theory of Soft Matter</text>
   <text y="314.955" x="287.904,290.1465,292.179,296.665,301.819,305.162,307.59,312.577,317.336,321.417,325.005,326.967,329.8,334.787,337.523,341.604,344.946,349.934,354.2,356.935,359.363,364.034,369.021,373.287,375.88829999999996,377.923,383.104,388.276,393.008,395.436,397.864,401.461,406.449,408.876,413.864,418.622,420.8645,423.794,429.899,434.886,439.152,446.787,449.0295,451.062,455.548,462.752,465.18,467.915,472.182,476.263,479.605,482.033,486.299,491.287,496.529,498.7715,500.804,505.07,509.336,513.602,517.868" svgx:width="0.25,0.55,0.52,0.6,0.4,0.29,0.58,0.56,0.48,0.4,0.55,0.34,0.58,0.33,0.48,0.4,0.58,0.5,0.33,0.29,0.55,0.58,0.5,0.29,0.55,0.6,0.6,0.55,0.29,0.29,0.42,0.58,0.29,0.58,0.56,0.25,0.55,0.71,0.58,0.5,0.88,0.25,0.55,0.52,0.83,0.29,0.33,0.5,0.48,0.4,0.29,0.5,0.58,0.61,0.25,0.55,0.5,0.5,0.5,0.5,0.25" style="fill:rgb(0,0,0);font-family:URWPalladioL-Roma;font-size:8.97px;stroke:none;">; Springer International Publishing: Cham, Switzerland, 2016.</text>
   <text y="327.866" x="76.535,81.018,83.26050000000001,98.054,104.994,109.2996,111.531,118.372,122.667,127.886,133.104,137.399,141.201,143.4435,145.684,149.943,152.185,159.026,161.26850000000002,163.509,168.208,173.103,176.089,179.0491,181.254,189.171,193.654,196.577,199.5,203.795,206.673" svgx:width="0.5,0.25,0.55,0.77,0.48,0.55,0.76,0.48,0.58,0.58,0.48,0.42,0.25,0.55,0.6,0.25,0.76,0.25,0.55,0.52,0.55,0.33,0.33,0.55,0.88,0.5,0.33,0.33,0.48,0.4,0.25" style="fill:rgb(0,0,0);font-family:URWPalladioL-Roma;font-size:8.97px;stroke:none;">3. De Gennes, P.G. Soft matter.</text>
   <text y="327.866" x="212.057,218.038,221.526,225.516,227.7585,230.895,239.36,243.341,247.824,250.06650000000002,253.204,258.682,263.166,267.649,271.137" svgx:width="0.67,0.39,0.5,0.25,0.55,0.94,0.44,0.5,0.25,0.55,0.61,0.5,0.5,0.39,0.25" style="fill:rgb(0,0,0);font-family:URWPalladioL-Ital;font-size:8.97px;stroke:none;">Rev. Mod. Phys.</text>
   <text y="327.866" x="276.516,280.999,285.482,289.966" svgx:width="0.5,0.5,0.5,0.5" style="fill:rgb(0,0,0);font-family:URWPalladioL-Bold;font-size:8.97px;stroke:none;">1992</text>
   <text y="327.866" x="294.448" svgx:width="0.25" style="fill:rgb(0,0,0);font-family:URWPalladioL-Roma;font-size:8.97px;stroke:none;">,</text>
   <text y="327.866" x="298.932,303.415" svgx:width="0.5,0.5" style="fill:rgb(0,0,0);font-family:URWPalladioL-Ital;font-size:8.97px;stroke:none;">64</text>
   <text y="327.866" x="307.898,310.14050000000003,312.381,316.864,321.348,325.831,328.0735,331.211" svgx:width="0.25,0.55,0.5,0.5,0.5,0.25,0.55,0.33" style="fill:rgb(0,0,0);font-family:URWPalladioL-Roma;font-size:8.97px;stroke:none;">, 645. [</text>
   <text y="327.866" x="334.197,340.554,343.934,348.83,352.631,356.433,362.423,366.718" svgx:width="0.71,0.4,0.55,0.42,0.42,0.67,0.48,0.33" style="fill:rgb(8,117,183);font-family:URWPalladioL-Roma;font-size:8.97px;stroke:none;">CrossRef</text>
   <text y="327.866" x="369.703" svgx:width="0.33" style="fill:rgb(0,0,0);font-family:URWPalladioL-Roma;font-size:8.97px;stroke:none;">]</text>
   <text y="340.778" x="76.535,81.018,83.26050000000001,98.054,101.04,105.936,111.154,115.449,119.251,121.49350000000001,123.734,129.724,131.965,138.941,141.183,146.661" svgx:width="0.5,0.25,0.55,0.33,0.55,0.58,0.48,0.42,0.25,0.55,0.67,0.25,0.78,0.25,0.61,0.25" style="fill:rgb(0,0,0);font-family:URWPalladioL-Roma;font-size:8.97px;stroke:none;">4. Jones, R.A.L.</text>
   <text y="340.778" x="151.14,156.125,160.106,162.599,165.5591,167.826,173.807,177.788,182.773,187.257,190.745,195.73,199.218,202.706,207.191,209.431,217.895,221.876,224.862,227.848,231.335" svgx:width="0.56,0.44,0.28,0.33,0.55,0.67,0.44,0.56,0.5,0.39,0.56,0.39,0.39,0.5,0.55,0.94,0.44,0.33,0.33,0.39,0.39" style="fill:rgb(0,0,0);font-family:URWPalladioL-Ital;font-size:8.97px;stroke:none;">Soft Condensed Matter</text>
   <text y="340.778" x="234.822,237.0645,239.305,246.353,250.979,253.965,258.861,262.241,267.7127,269.961,276.937,282.156,284.765,289.831,294.126,297.668,301.469,304.078,307.002,312.0252,314.228,319.644,323.024,327.319,331.121,334.923,337.1655,340.303,347.754,352.049,359.4941,361.768,366.924,371.82,375.361,380.347,382.5895,384.83,392.281,397.266,399.5085,401.749,408.725,413.433,420.409,422.6515,424.892,429.375,433.858,438.341,442.825" svgx:width="0.25,0.55,0.79,0.52,0.33,0.55,0.4,0.61,0.55,0.78,0.58,0.29,0.56,0.48,0.4,0.42,0.29,0.33,0.56,0.55,0.6,0.4,0.48,0.42,0.42,0.25,0.55,0.83,0.48,0.83,0.55,0.67,0.55,0.4,0.56,0.25,0.55,0.83,0.67,0.25,0.55,0.78,0.52,0.78,0.25,0.55,0.5,0.5,0.5,0.5,0.25" style="fill:rgb(0,0,0);font-family:URWPalladioL-Roma;font-size:8.97px;stroke:none;">; Oxford University Press: New York, NY, USA, 2002.</text>
   <text y="353.69" x="76.535,81.018,83.26050000000001,98.05,105.059,110.52,114.097,117.013,119.25550000000001,121.523,128.569,130.833,137.254,139.518,141.7605,144.028,148.782,152.803,158.074,161.488,165.826,168.461,173.469,177.807,180.723,182.96550000000002,185.224,189.435,191.699,193.94150000000002,196.209,202.258,204.894,207.846,210.481,214.819,218.858,221.1005,223.368,229.943,232.207,239.252,241.516,243.7585,246.026,252.601,256.115,261.566,267.009,272.452,276.98,279.2225,281.49,286.878,289.142,291.3845,293.652,300.227,303.731,309.192,314.227,316.4695,318.737,321.753,324.017,326.2595,328.527,335.536,340.481,344.321,348.342,353.612,355.85450000000003,358.122,365.657,367.921,370.1635,372.431,377.185,380.137,383.642,389.103,392.055,397.326,399.56850000000003,401.836,407.369,409.61150000000004,411.87,417.919,422.447,427.89,430.525,435.9967,438.305,444.354,449.299,454.759,459.795,465.065,469.403,474.674,477.309,482.58,487.60319999999996,489.861,492.496,497.6986,500.013,505.564,510.835,513.47" svgx:width="0.5,0.25,0.55,0.77,0.6,0.4,0.4,0.25,0.55,0.78,0.25,0.71,0.25,0.25,0.55,0.52,0.44,0.58,0.4,0.48,0.29,0.55,0.48,0.4,0.25,0.55,0.56,0.25,0.25,0.55,0.67,0.29,0.33,0.29,0.48,0.56,0.25,0.55,0.73,0.25,0.78,0.25,0.25,0.55,0.73,0.4,0.6,0.6,0.6,0.5,0.25,0.55,0.72,0.25,0.25,0.55,0.73,0.4,0.6,0.56,0.25,0.55,0.33,0.25,0.25,0.55,0.77,0.55,0.42,0.44,0.58,0.25,0.55,0.83,0.25,0.25,0.55,0.52,0.33,0.4,0.6,0.33,0.58,0.25,0.55,0.61,0.25,0.55,0.67,0.5,0.6,0.29,0.61,0.55,0.67,0.55,0.6,0.56,0.58,0.48,0.58,0.29,0.58,0.56,0.55,0.29,0.58,0.55,0.61,0.58,0.29,0.58" style="fill:rgb(0,0,0);font-family:URWPalladioL-Roma;font-size:8.97px;stroke:none;">5. Dürr, A.C.; Schreiber, F.; Ritley, K.A.; Kruppa, V.; Krug, J.; Dosch, H.; Struth, B. Rapid Roughening in Thin</text>
   <text y="366.601" x="98.05,102.961,105.531,108.101,118.143,124.881,128.211,133.033,140.399,143.278,148.48059999999998,150.662,155.484,158.44410000000002,160.668,165.084,170.2866,172.468,179.41,182.73,187.641,192.057,197.197,199.767,203.7138,205.932,210.568,214.799,222.598,225.168,229.089,233.911,239.051,244.448,249.773,253.695,256.574,261.396,264.98400000000004,267.128,270.069,276.905,279.475,282.045,287.185,292.582,296.812,301.952,306.774,312.082,316.313,319.801,324.712,327.282,331.513,336.653,340.883,343.824" svgx:width="0.56,0.29,0.29,0.88,0.76,0.4,0.55,0.83,0.33,0.58,0.55,0.55,0.33,0.55,0.5,0.58,0.55,0.79,0.4,0.56,0.5,0.58,0.29,0.44,0.55,0.52,0.48,0.88,0.29,0.44,0.55,0.58,0.61,0.6,0.44,0.33,0.55,0.4,0.55,0.33,0.77,0.29,0.29,0.58,0.61,0.48,0.58,0.55,0.6,0.48,0.4,0.56,0.29,0.48,0.58,0.48,0.33,0.25" style="fill:rgb(0,0,0);font-family:URWPalladioL-Roma;font-size:8.97px;stroke:none;">FilmGrowth of an Organic Semiconductor (Diindenoperylene).</text>
   <text y="366.601" x="349.177,354.573,358.989,363.405,366.841,369.0835,372.193,378.084,381.519,385.441,387.6835,390.793,395.703,399.139,402.08,405.021" svgx:width="0.61,0.5,0.5,0.39,0.25,0.55,0.67,0.39,0.5,0.25,0.55,0.56,0.39,0.33,0.33,0.25" style="fill:rgb(0,0,0);font-family:URWPalladioL-Ital;font-size:8.97px;stroke:none;">Phys. Rev. Lett.</text>
   <text y="366.601" x="410.372,414.855,419.338,423.822" svgx:width="0.5,0.5,0.5,0.5" style="fill:rgb(0,0,0);font-family:URWPalladioL-Bold;font-size:8.97px;stroke:none;">2003</text>
   <text y="366.601" x="428.304" svgx:width="0.25" style="fill:rgb(0,0,0);font-family:URWPalladioL-Roma;font-size:8.97px;stroke:none;">,</text>
   <text y="366.601" x="432.756,437.172" svgx:width="0.5,0.5" style="fill:rgb(0,0,0);font-family:URWPalladioL-Ital;font-size:8.97px;stroke:none;">90</text>
   <text y="366.601" x="441.588,443.83050000000003,446.039,450.455,454.871,459.287,463.703,468.119,472.535,474.77750000000003,477.887" svgx:width="0.25,0.55,0.5,0.5,0.5,0.5,0.5,0.5,0.25,0.55,0.33" style="fill:rgb(0,0,0);font-family:URWPalladioL-Roma;font-size:8.97px;stroke:none;">, 016104. [</text>
   <text y="366.601" x="480.828,487.09,490.42,495.242,498.987,502.731,508.631,512.862" svgx:width="0.71,0.4,0.55,0.42,0.42,0.67,0.48,0.33" style="fill:rgb(8,117,183);font-family:URWPalladioL-Roma;font-size:8.97px;stroke:none;">CrossRef</text>
   <text y="366.601" x="515.803" svgx:width="0.33" style="fill:rgb(0,0,0);font-family:URWPalladioL-Roma;font-size:8.97px;stroke:none;">]</text>
   <text y="379.513" x="98.05" svgx:width="0.33" style="fill:rgb(0,0,0);font-family:URWPalladioL-Roma;font-size:8.97px;stroke:none;">[</text>
   <text y="379.513" x="101.036,106.452,111.858,116.817,125.299,129.594" svgx:width="0.6,0.6,0.55,0.95,0.48,0.61" style="fill:rgb(8,117,183);font-family:URWPalladioL-Roma;font-size:8.97px;stroke:none;">PubMed</text>
   <text y="379.513" x="135.072" svgx:width="0.33" style="fill:rgb(0,0,0);font-family:URWPalladioL-Roma;font-size:8.97px;stroke:none;">]</text>
   <text y="392.424" x="76.535,81.018,83.26050000000001,98.05,105.165,110.68,113.726,119.314,123.695,127.143,132.465,136.846,139.508,145.096,149.476,151.7185,154.433,161.549,163.835,166.07750000000001,169.003,174.591,178.039,183.032,187.093,192.416,194.6585,197.373,204.012,206.299,208.5415,211.466,219.066,224.06" svgx:width="0.5,0.25,0.55,0.78,0.6,0.33,0.61,0.48,0.4,0.58,0.48,0.29,0.61,0.48,0.25,0.55,0.78,0.25,0.25,0.55,0.61,0.4,0.55,0.44,0.58,0.25,0.55,0.73,0.25,0.25,0.55,0.83,0.55,0.56" style="fill:rgb(0,0,0);font-family:URWPalladioL-Roma;font-size:8.97px;stroke:none;">6. Aufderheide, A.; Broch, K.; Nov</text>
   <text y="392.424" x="229.224" svgx:width="0.5" style="fill:rgb(0,0,0);font-family:VnURWPalladioL;font-size:8.97px;stroke:none;">á</text>
   <text y="392.424" x="233.707,238.792,241.0345,243.749,246.795,249.081,251.3235,254.248,261.858,264.51,269.833,275.421,279.801,283.259,288.581,293.575,296.62,301.001,303.946,306.18850000000003,308.903,316.019,318.305,320.5475,323.472,331.072,335.453,339.066,344.233,349.227,351.4695,354.174,360.284,362.57,364.8125,367.738,374.716,379.097,382.709,385.371,389.943,394.004,399.327,401.5695,404.284,411.399,413.686,415.9285,418.853,424.441,429.014,434.337,438.718,442.33,444.47,448.851,453.232,455.47450000000003,458.18,464.289,466.576,468.81850000000003,471.743,476.544,480.605,485.928,489.376,493.757,496.418,501.476,505.856,508.81,511.0525,513.767,518.02" svgx:width="0.56,0.25,0.55,0.33,0.25,0.25,0.55,0.83,0.29,0.58,0.61,0.48,0.4,0.58,0.55,0.33,0.48,0.4,0.25,0.55,0.78,0.25,0.25,0.55,0.83,0.48,0.4,0.56,0.55,0.25,0.55,0.67,0.25,0.25,0.55,0.76,0.48,0.4,0.29,0.5,0.44,0.58,0.25,0.55,0.78,0.25,0.25,0.55,0.61,0.5,0.58,0.48,0.4,0.23,0.48,0.48,0.25,0.55,0.67,0.25,0.25,0.55,0.52,0.44,0.58,0.4,0.48,0.29,0.55,0.48,0.4,0.25,0.55,0.56,0.25" style="fill:rgb(0,0,0);font-family:URWPalladioL-Roma;font-size:8.97px;stroke:none;">k, J.; Hinderhofer, A.; Nervo, R.; Gerlach, A.; Banerjee, R.; Schreiber, F.</text>
   <text y="405.336" x="98.05,106.702,109.363,114.082,116.744,122.067,127.152,130.197,132.859,138.181,143.77,149.284,153.345,157.726,163.1977,166.186,173.301,178.624,181.285,185.163,190.157,193.138,196.586,201.58,207.076,209.738,213.6848,216.67,223.154,228.148,231.761,235.208,239.589,242.251,246.824,249.805,252.466,257.46,262.783,266.5504,269.532,272.194,277.39660000000003,280.388,289.04,294.034,296.695,301.067,305.128,310.642,313.304,317.877,321.46500000000003,324.361,330.845,334.458,339.543,343.421,346.402,350.975,353.636,356.298,358.959,364.282,368.5876,371.535,376.336,381.421,385.299,388.28,392.661,400.737,404.615" svgx:width="0.95,0.29,0.52,0.29,0.58,0.56,0.33,0.29,0.58,0.61,0.6,0.44,0.48,0.61,0.55,0.78,0.58,0.29,0.42,0.55,0.33,0.4,0.55,0.6,0.29,0.44,0.55,0.71,0.55,0.4,0.4,0.48,0.29,0.5,0.33,0.29,0.55,0.58,0.42,0.55,0.29,0.58,0.55,0.95,0.55,0.29,0.48,0.44,0.6,0.29,0.5,0.4,0.55,0.71,0.4,0.56,0.42,0.33,0.5,0.29,0.29,0.29,0.58,0.48,0.55,0.52,0.56,0.42,0.33,0.48,0.88,0.42,0.25" style="fill:rgb(0,0,0);font-family:URWPalladioL-Roma;font-size:8.97px;stroke:none;">Mixing-induced Anisotropic Correlations in Molecular Crystalline Systems.</text>
   <text y="405.336" x="411.922,417.51,422.083,426.656,430.213,432.45550000000003,437.521,443.621,447.179,451.258,453.5005,458.565,463.65,467.208,470.253,473.299" svgx:width="0.61,0.5,0.5,0.39,0.25,0.55,0.67,0.39,0.5,0.25,0.55,0.56,0.39,0.33,0.33,0.25" style="fill:rgb(0,0,0);font-family:URWPalladioL-Ital;font-size:8.97px;stroke:none;">Phys. Rev. Lett.</text>
   <text y="405.336" x="480.61,485.093,489.576,494.06" svgx:width="0.5,0.5,0.5,0.5" style="fill:rgb(0,0,0);font-family:URWPalladioL-Bold;font-size:8.97px;stroke:none;">2012</text>
   <text y="405.336" x="498.543" svgx:width="0.25" style="fill:rgb(0,0,0);font-family:URWPalladioL-Roma;font-size:8.97px;stroke:none;">,</text>
   <text y="405.336" x="503.856,508.429,513.002" svgx:width="0.5,0.5,0.5" style="fill:rgb(0,0,0);font-family:URWPalladioL-Ital;font-size:8.97px;stroke:none;">109</text>
   <text y="405.336" x="517.575" svgx:width="0.25" style="fill:rgb(0,0,0);font-family:URWPalladioL-Roma;font-size:8.97px;stroke:none;">,</text>
   <text y="418.248" x="97.602,102.085,106.568,111.052,115.535,120.018,124.501,126.74350000000001,129.881" svgx:width="0.5,0.5,0.5,0.5,0.5,0.5,0.25,0.55,0.33" style="fill:rgb(0,0,0);font-family:URWPalladioL-Roma;font-size:8.97px;stroke:none;">156102. [</text>
   <text y="418.248" x="132.867,139.224,142.604,147.5,151.302,155.104,161.093,165.388" svgx:width="0.71,0.4,0.55,0.42,0.42,0.67,0.48,0.33" style="fill:rgb(8,117,183);font-family:URWPalladioL-Roma;font-size:8.97px;stroke:none;">CrossRef</text>
   <text y="418.248" x="168.374,171.3341,173.601" svgx:width="0.33,0.55,0.33" style="fill:rgb(0,0,0);font-family:URWPalladioL-Roma;font-size:8.97px;stroke:none;">] [</text>
   <text y="418.248" x="176.587,182.003,187.409,192.368,200.85,205.145" svgx:width="0.6,0.6,0.55,0.95,0.48,0.61" style="fill:rgb(8,117,183);font-family:URWPalladioL-Roma;font-size:8.97px;stroke:none;">PubMed</text>
   <text y="418.248" x="210.623" svgx:width="0.33" style="fill:rgb(0,0,0);font-family:URWPalladioL-Roma;font-size:8.97px;stroke:none;">]</text>
   <text y="431.159" x="76.535,81.018,83.26050000000001,98.05,104.429,109.728,113.199,116.064,120.457,122.6995,124.613,130.483,132.68,136.827,139.024,141.2665,143.277,150.113,152.67,155.535,159.929,163.241,167.45,170.007,172.564,175.121,177.36350000000002,179.278,187.59,189.787,192.0295,194.031,199.558,203.952,207.423,210.287,214.681,219.795,224.68,229.074,234.188,237.053,240.778,243.0205,244.935,247.896,250.093,256.929,259.1715,261.085,265.699,268.563,271.955,277.254,281.155,284.02,289.318,292.789,297.183,299.7843,301.699,308.535,313.65,318.043,320.6,325.486,329.211,331.768,335.5354,337.454,342.823,347.84619999999995,349.668,355.529,358.455,364.325,368.718,373.7412,375.563,378.524,383.638,386.503,390.712,395.826,399.552,402.109,404.974,409.99719999999996,411.819,418.655,423.769,428.655,433.953,436.51,440.904,444.492,446.334,452.564,455.877,460.675,464.4,468.1674,470.086,476.316,481.113,484.584,487.897,492.106,494.663,499.057,501.921,504.478,509.276,514.39,518.116" svgx:width="0.5,0.25,0.55,0.73,0.6,0.4,0.33,0.5,0.25,0.55,0.67,0.25,0.6,0.25,0.25,0.55,0.78,0.29,0.33,0.5,0.4,0.48,0.29,0.29,0.29,0.25,0.55,0.95,0.25,0.25,0.55,0.72,0.5,0.4,0.33,0.5,0.58,0.56,0.5,0.58,0.33,0.42,0.25,0.55,0.34,0.25,0.78,0.25,0.55,0.52,0.33,0.4,0.6,0.44,0.33,0.6,0.4,0.5,0.29,0.55,0.78,0.58,0.5,0.29,0.56,0.42,0.29,0.42,0.55,0.61,0.56,0.55,0.67,0.33,0.67,0.5,0.56,0.55,0.34,0.58,0.33,0.48,0.58,0.42,0.29,0.33,0.56,0.55,0.78,0.58,0.56,0.6,0.29,0.5,0.4,0.55,0.71,0.4,0.55,0.42,0.42,0.55,0.71,0.55,0.4,0.4,0.48,0.29,0.5,0.33,0.29,0.55,0.58,0.42,0.25" style="fill:rgb(0,0,0);font-family:URWPalladioL-Roma;font-size:8.97px;stroke:none;">7. Kurta, R.P.; Altarelli, M.; Vartanyants, I.A. Structural Analysis By X-Ray Intensity Angular Cross Correlations.</text>
   <text y="444.071" x="97.728,104.202,108.685,112.675,114.9175,118.055,124.035,128.519,132.007,138.982,141.2245,144.362,149.841,154.324,158.807,162.295" svgx:width="0.72,0.5,0.5,0.25,0.55,0.67,0.5,0.39,0.78,0.25,0.55,0.61,0.5,0.5,0.39,0.25" style="fill:rgb(0,0,0);font-family:URWPalladioL-Ital;font-size:8.97px;stroke:none;">Adv. Chem. Phys.</text>
   <text y="444.071" x="167.674,172.157,176.64,181.124" svgx:width="0.5,0.5,0.5,0.5" style="fill:rgb(0,0,0);font-family:URWPalladioL-Bold;font-size:8.97px;stroke:none;">2016</text>
   <text y="444.071" x="185.607" svgx:width="0.25" style="fill:rgb(0,0,0);font-family:URWPalladioL-Roma;font-size:8.97px;stroke:none;">,</text>
   <text y="444.071" x="190.09,194.573,199.056" svgx:width="0.5,0.5,0.5" style="fill:rgb(0,0,0);font-family:URWPalladioL-Ital;font-size:8.97px;stroke:none;">161</text>
   <text y="444.071" x="203.54,205.7825,208.023,212.506,214.7485,217.886" svgx:width="0.25,0.55,0.5,0.25,0.55,0.33" style="fill:rgb(0,0,0);font-family:URWPalladioL-Roma;font-size:8.97px;stroke:none;">, 1. [</text>
   <text y="444.071" x="220.872,227.229,230.61,235.505,239.307,243.109,249.098,253.393" svgx:width="0.71,0.4,0.55,0.42,0.42,0.67,0.48,0.33" style="fill:rgb(8,117,183);font-family:URWPalladioL-Roma;font-size:8.97px;stroke:none;">CrossRef</text>
   <text y="444.071" x="256.379" svgx:width="0.33" style="fill:rgb(0,0,0);font-family:URWPalladioL-Roma;font-size:8.97px;stroke:none;">]</text>
   <text y="456.982" x="76.535,81.018,83.26050000000001,98.05,104.69,109.263,117.338,119.5805,123.439,129.539,131.7815,135.639,142.718,147.099,150.08,154.461,158.073,166.149,168.811,174.133,178.706,181.688,184.349,189.343,194.54559999999998,198.479,203.473,206.43310000000002,210.332,218.984,223.557,227.618,231.065,236.059,244.135,249.128,251.79,256.17,260.231,265.746,268.407,272.98,276.56800000000004,280.407,285.208,288.19,291.729,297.244,301.305,304.286,309.801,313.249,317.55460000000005,321.444,324.105,329.30760000000004,333.242,338.043,343.037,345.698,351.213,354.194,356.856,361.849,367.0516,370.986,376.044,381.06719999999996,384.942,389.744,395.24,399.813,402.795,405.456,410.029,412.6303,416.504,422.989,427.982,431.595,435.043,439.423,442.085,446.658,449.639,452.301,457.294,462.4966,466.431,471.424,474.3841,478.284,483.085,487.146,491.719,494.7,497.682,502.063,505.675,508.337,513.659" svgx:width="0.5,0.25,0.55,0.73,0.5,0.88,0.25,0.55,0.67,0.25,0.55,0.77,0.48,0.33,0.48,0.4,0.88,0.29,0.58,0.5,0.33,0.29,0.55,0.58,0.55,0.55,0.33,0.55,0.95,0.5,0.44,0.4,0.55,0.88,0.55,0.29,0.48,0.44,0.6,0.29,0.5,0.4,0.55,0.52,0.33,0.4,0.6,0.44,0.33,0.6,0.4,0.48,0.55,0.29,0.58,0.55,0.52,0.55,0.29,0.6,0.33,0.29,0.55,0.58,0.55,0.55,0.56,0.55,0.52,0.6,0.5,0.33,0.29,0.5,0.29,0.55,0.71,0.55,0.4,0.4,0.48,0.29,0.5,0.33,0.29,0.55,0.58,0.55,0.55,0.33,0.55,0.52,0.44,0.5,0.33,0.33,0.48,0.4,0.29,0.58,0.56" style="fill:rgb(0,0,0);font-family:URWPalladioL-Roma;font-size:8.97px;stroke:none;">8. Kam, Z. Determination of Macromolecular Structure in Solution by Spatial Correlation of Scattering</text>
   <text y="469.894" x="98.05,103.035,105.645,111.051,115.032,117.955,123.362,127.845,130.768,133.378,138.273,143.492,147.293" svgx:width="0.56,0.29,0.6,0.44,0.33,0.6,0.5,0.33,0.29,0.55,0.58,0.42,0.25" style="fill:rgb(0,0,0);font-family:URWPalladioL-Roma;font-size:8.97px;stroke:none;">Fluctuations.</text>
   <text y="469.894" x="152.673,161.137,165.118,168.768,172.094,176.075,183.051,187.032,189.525,193.013,196.662,201.647,204.14,207.628" svgx:width="0.94,0.44,0.41,0.39,0.44,0.78,0.44,0.28,0.39,0.41,0.56,0.28,0.39,0.39" style="fill:rgb(0,0,0);font-family:URWPalladioL-Ital;font-size:8.97px;stroke:none;">Macromolecules</text>
   <text y="469.894" x="213.356,217.839,222.322,226.806" svgx:width="0.5,0.5,0.5,0.5" style="fill:rgb(0,0,0);font-family:URWPalladioL-Bold;font-size:8.97px;stroke:none;">1977</text>
   <text y="469.894" x="231.289" svgx:width="0.25" style="fill:rgb(0,0,0);font-family:URWPalladioL-Roma;font-size:8.97px;stroke:none;">,</text>
   <text y="469.894" x="235.772,240.255" svgx:width="0.5,0.5" style="fill:rgb(0,0,0);font-family:URWPalladioL-Ital;font-size:8.97px;stroke:none;">10</text>
   <text y="469.894" x="244.739,246.9815,249.222,253.705,258.189,262.672,267.155,271.638,276.121,280.605,282.8475,285.985" svgx:width="0.25,0.55,0.5,0.5,0.5,0.5,0.5,0.5,0.5,0.25,0.55,0.33" style="fill:rgb(0,0,0);font-family:URWPalladioL-Roma;font-size:8.97px;stroke:none;">, 927–934. [</text>
   <text y="469.894" x="288.97,295.328,298.708,303.603,307.405,311.207,317.197,321.491" svgx:width="0.71,0.4,0.55,0.42,0.42,0.67,0.48,0.33" style="fill:rgb(8,117,183);font-family:URWPalladioL-Roma;font-size:8.97px;stroke:none;">CrossRef</text>
   <text y="469.894" x="324.477" svgx:width="0.33" style="fill:rgb(0,0,0);font-family:URWPalladioL-Roma;font-size:8.97px;stroke:none;">]</text>
   <text y="482.806" x="76.535,81.018,83.26050000000001,98.05,104.429,108.823,116.582,118.8245,120.87,126.731,128.9735,131.019,136.406,141.52,145.8256,147.811,153.681,157.89,161.791,166.589,171.703,175.429,178.294,181.694,186.993,190.894,193.759,196.316,201.114,206.3166,208.319,213.117,216.0771,218.134,222.747,225.612,229.004,234.302,238.204,241.068,246.367,249.68,253.9856,255.98,258.906,262.21,267.008,276.858,282.227,284.784,288.993,292.895,295.759,299.072,303.87,309.0726,311.075,319.387,321.945,325.846,329.15,333.948,338.833,342.304,346.698,351.979,357.093,360.8604,362.91,367.708,370.66810000000004,372.725,378.595,382.988,388.102,393.471,398.269,406.028,408.585,413.60819999999995,415.553,422.46,425.931,428.488,432.697,437.811,440.675,444.884,450.3557,452.345,457.652,462.045,465.516,468.381,470.938,474.839,477.396,481.605,485.331" svgx:width="0.5,0.25,0.55,0.73,0.5,0.88,0.25,0.55,0.67,0.25,0.55,0.61,0.58,0.48,0.55,0.67,0.48,0.44,0.55,0.58,0.42,0.33,0.4,0.6,0.44,0.33,0.29,0.55,0.58,0.55,0.55,0.33,0.55,0.52,0.33,0.4,0.6,0.44,0.33,0.6,0.4,0.48,0.55,0.33,0.4,0.55,0.88,0.61,0.29,0.48,0.44,0.33,0.4,0.55,0.58,0.55,0.95,0.29,0.44,0.4,0.55,0.56,0.4,0.5,0.6,0.58,0.42,0.55,0.55,0.33,0.55,0.67,0.5,0.58,0.61,0.55,0.88,0.29,0.56,0.55,0.79,0.4,0.29,0.48,0.58,0.33,0.48,0.61,0.55,0.6,0.5,0.4,0.33,0.29,0.44,0.29,0.48,0.42,0.25" style="fill:rgb(0,0,0);font-family:URWPalladioL-Roma;font-size:8.97px;stroke:none;">9. Kam, Z. The Reconstruction of Structure fromElectron Micrographs of Randomly Oriented Particles.</text>
   <text y="482.806" x="490.616,493.542,495.7845,497.83,503.199,507.593,511.011,514.912,517.663" svgx:width="0.33,0.25,0.55,0.61,0.5,0.39,0.44,0.39,0.25" style="fill:rgb(0,0,0);font-family:URWPalladioL-Ital;font-size:8.97px;stroke:none;">J. Theor.</text>
   <text y="495.717" x="97.773,103.251,105.744,109.725,112.218" svgx:width="0.61,0.28,0.44,0.28,0.25" style="fill:rgb(0,0,0);font-family:URWPalladioL-Ital;font-size:8.97px;stroke:none;">Biol.</text>
   <text y="495.717" x="117.597,122.08,126.563,131.047" svgx:width="0.5,0.5,0.5,0.5" style="fill:rgb(0,0,0);font-family:URWPalladioL-Bold;font-size:8.97px;stroke:none;">1980</text>
   <text y="495.717" x="135.53" svgx:width="0.25" style="fill:rgb(0,0,0);font-family:URWPalladioL-Roma;font-size:8.97px;stroke:none;">,</text>
   <text y="495.717" x="140.013,144.496" svgx:width="0.5,0.5" style="fill:rgb(0,0,0);font-family:URWPalladioL-Ital;font-size:8.97px;stroke:none;">82</text>
   <text y="495.717" x="148.979,151.22150000000002,153.462,157.945,162.429,166.912,171.395,175.878,178.1205,181.258" svgx:width="0.25,0.55,0.5,0.5,0.5,0.5,0.5,0.25,0.55,0.33" style="fill:rgb(0,0,0);font-family:URWPalladioL-Roma;font-size:8.97px;stroke:none;">, 15–39. [</text>
   <text y="495.717" x="184.244,190.601,193.981,198.877,202.679,206.481,212.47,216.765" svgx:width="0.71,0.4,0.55,0.42,0.42,0.67,0.48,0.33" style="fill:rgb(8,117,183);font-family:URWPalladioL-Roma;font-size:8.97px;stroke:none;">CrossRef</text>
   <text y="495.717" x="219.751" svgx:width="0.33" style="fill:rgb(0,0,0);font-family:URWPalladioL-Roma;font-size:8.97px;stroke:none;">]</text>
   <text y="508.629" x="76.535,81.018,85.501,87.74350000000001,98.05,104.768,108.246" svgx:width="0.5,0.5,0.25,0.55,0.76,0.4,0.29" style="fill:rgb(0,0,0);font-family:URWPalladioL-Roma;font-size:8.97px;stroke:none;">10. Gri</text>
   <text y="508.629" x="110.809" svgx:width="0.92" style="fill:rgb(0,0,0);font-family:Rpxr;font-size:8.97px;stroke:none;">ﬃ</text>
   <text y="508.629" x="118.9,124.025,126.26750000000001,128.471,136.448,138.65,145.368,147.569,149.8115,152.007,157.325,162.634,166.368,170.585,174.486,176.7285,178.932,183.088,185.29,192.607,194.8495,197.053,203.903,209.028,211.898,214.461,218.37,223.178,226.656,229.975,234.193,236.746,241.149,244.019,246.581,251.389,256.513,260.2804,262.492,265.054,270.2566,272.415,277.795,280.357,285.253,290.377,293.3371,295.493,300.116,304.025,308.428,311.298,314.168,318.386,321.697,325.914,331.3857,333.539,338.409,343.43219999999997,345.541,352.858,357.665,362.79,366.523,371.815,376.939,381.157,384.635,387.197,391.107,395.509,398.1103,400.317,405.635,410.037,413.515,416.386,418.948,422.857,425.42,429.637,433.37" svgx:width="0.58,0.25,0.55,1.0,0.25,0.76,0.25,0.25,0.55,0.6,0.6,0.42,0.48,0.56,0.25,0.55,0.6,0.25,0.83,0.25,0.55,0.78,0.58,0.33,0.29,0.44,0.55,0.4,0.4,0.48,0.29,0.5,0.33,0.29,0.55,0.58,0.42,0.55,0.29,0.58,0.55,0.61,0.29,0.56,0.58,0.33,0.55,0.52,0.44,0.5,0.33,0.33,0.48,0.4,0.48,0.61,0.55,0.55,0.56,0.55,0.83,0.55,0.58,0.42,0.6,0.58,0.48,0.4,0.29,0.44,0.5,0.29,0.55,0.6,0.5,0.4,0.33,0.29,0.44,0.29,0.48,0.42,0.25" style="fill:rgb(0,0,0);font-family:URWPalladioL-Roma;font-size:8.97px;stroke:none;">n, W.G.; Pusey, P.N. Anticorrelations in Light Scattered by Nonspherical Particles.</text>
   <text y="508.629" x="438.708,444.088,448.49,452.893,456.318,458.5605,461.654,467.527,470.952,474.861,477.1035,480.206,485.102,488.527,491.459,494.391" svgx:width="0.61,0.5,0.5,0.39,0.25,0.55,0.67,0.39,0.5,0.25,0.55,0.56,0.39,0.33,0.33,0.25" style="fill:rgb(0,0,0);font-family:URWPalladioL-Ital;font-size:8.97px;stroke:none;">Phys. Rev. Lett.</text>
   <text y="508.629" x="499.727,504.21,508.693,513.177" svgx:width="0.5,0.5,0.5,0.5" style="fill:rgb(0,0,0);font-family:URWPalladioL-Bold;font-size:8.97px;stroke:none;">1979</text>
   <text y="508.629" x="517.66" svgx:width="0.25" style="fill:rgb(0,0,0);font-family:URWPalladioL-Roma;font-size:8.97px;stroke:none;">,</text>
   <text y="521.541" x="97.826,102.309" svgx:width="0.5,0.5" style="fill:rgb(0,0,0);font-family:URWPalladioL-Ital;font-size:8.97px;stroke:none;">43</text>
   <text y="521.541" x="106.793,109.03550000000001,111.276,115.759,120.243,124.726,129.209,133.692,138.175,142.659,147.142,151.625,153.8675,157.005" svgx:width="0.25,0.55,0.5,0.5,0.5,0.5,0.5,0.5,0.5,0.5,0.5,0.25,0.55,0.33" style="fill:rgb(0,0,0);font-family:URWPalladioL-Roma;font-size:8.97px;stroke:none;">, 1100–1104. [</text>
   <text y="521.541" x="159.991,166.348,169.728,174.624,178.426,182.227,188.217,192.512" svgx:width="0.71,0.4,0.55,0.42,0.42,0.67,0.48,0.33" style="fill:rgb(8,117,183);font-family:URWPalladioL-Roma;font-size:8.97px;stroke:none;">CrossRef</text>
   <text y="521.541" x="195.498" svgx:width="0.33" style="fill:rgb(0,0,0);font-family:URWPalladioL-Roma;font-size:8.97px;stroke:none;">]</text>
   <text y="534.452" x="76.535,81.018,85.501,87.74350000000001,98.05,104.534,107.196,111.769,115.381,120.466,122.7085,125.643,133.243,135.529,142.645,144.931,147.17350000000002,150.437,157.552,161.613,166.698,171.079,174.691,178.569,183.563,188.885,191.1275,194.071,199.659,201.945,204.991,207.277,209.5195,212.783,220.392,225.907,229.355,234.943,237.18550000000002,240.129,247.244,249.531,252.576,254.8185,257.753,264.237,267.685,272.679,276.556,280.434,283.48,287.54,292.534,296.146,299.604,303.984,306.646,311.219,314.2,316.862,321.855,327.05760000000004,330.068,333.15,338.473,341.454,345.835,351.158,355.036,357.697,360.679,365.70219999999995,368.654,373.739,376.4,381.915,385.976,388.957,394.472,399.045,402.027,404.688,409.681,414.8836,417.904,422.705,428.202,432.582,436.643,439.625,443.073,448.066,451.944,456.005,460.998,466.495,471.5182,474.47,481.585,487.082,492.578,495.24,497.901,502.282,507.7537,510.769,513.751" svgx:width="0.5,0.5,0.25,0.55,0.71,0.29,0.5,0.4,0.56,0.25,0.55,0.83,0.25,0.78,0.25,0.25,0.55,0.78,0.44,0.56,0.48,0.4,0.42,0.55,0.58,0.25,0.55,0.61,0.25,0.33,0.25,0.25,0.55,0.83,0.6,0.4,0.61,0.25,0.55,0.78,0.25,0.33,0.25,0.55,0.71,0.4,0.55,0.42,0.42,0.33,0.44,0.55,0.4,0.4,0.48,0.29,0.5,0.33,0.29,0.55,0.58,0.55,0.34,0.58,0.33,0.48,0.58,0.42,0.29,0.33,0.56,0.55,0.56,0.29,0.6,0.44,0.33,0.6,0.5,0.33,0.29,0.55,0.58,0.55,0.52,0.6,0.48,0.44,0.33,0.4,0.55,0.42,0.44,0.55,0.6,0.56,0.55,0.78,0.6,0.6,0.29,0.29,0.48,0.61,0.55,0.33,0.55" style="fill:rgb(0,0,0);font-family:URWPalladioL-Roma;font-size:8.97px;stroke:none;">11. Clark, N.A.; Ackerson, B.J.; Hurd, A.J. Cross-correlation Intensity Fluctuation Spectroscopy Applied to</text>
   <text y="547.364" x="98.05,104.407,109.303,111.912,114.521,119.417,122.026,127.505,131.988,134.5893,136.839,141.546,146.953,150.755,156.143,160.438,165.657,169.458,172.068,176.963,182.182,185.984" svgx:width="0.71,0.55,0.29,0.29,0.55,0.29,0.61,0.5,0.29,0.55,0.52,0.6,0.42,0.6,0.48,0.58,0.42,0.29,0.55,0.58,0.42,0.25" style="fill:rgb(0,0,0);font-family:URWPalladioL-Roma;font-size:8.97px;stroke:none;">Colloidal Suspensions.</text>
   <text y="547.364" x="191.362,196.84,201.324,205.807,209.295,211.5375,214.675,220.655,224.143,228.133,230.37550000000002,233.513,238.498,241.986,244.972,247.958" svgx:width="0.61,0.5,0.5,0.39,0.25,0.55,0.67,0.39,0.5,0.25,0.55,0.56,0.39,0.33,0.33,0.25" style="fill:rgb(0,0,0);font-family:URWPalladioL-Ital;font-size:8.97px;stroke:none;">Phys. Rev. Lett.</text>
   <text y="547.364" x="253.338,257.821,262.304,266.788" svgx:width="0.5,0.5,0.5,0.5" style="fill:rgb(0,0,0);font-family:URWPalladioL-Bold;font-size:8.97px;stroke:none;">1983</text>
   <text y="547.364" x="271.27" svgx:width="0.25" style="fill:rgb(0,0,0);font-family:URWPalladioL-Roma;font-size:8.97px;stroke:none;">,</text>
   <text y="547.364" x="275.754,280.237" svgx:width="0.5,0.5" style="fill:rgb(0,0,0);font-family:URWPalladioL-Ital;font-size:8.97px;stroke:none;">50</text>
   <text y="547.364" x="284.72,286.96250000000003,289.203,293.686,298.17,302.653,307.136,309.37850000000003,312.516" svgx:width="0.25,0.55,0.5,0.5,0.5,0.5,0.25,0.55,0.33" style="fill:rgb(0,0,0);font-family:URWPalladioL-Roma;font-size:8.97px;stroke:none;">, 1459. [</text>
   <text y="547.364" x="315.502,321.859,325.239,330.135,333.937,337.738,343.728,348.023" svgx:width="0.71,0.4,0.55,0.42,0.42,0.67,0.48,0.33" style="fill:rgb(8,117,183);font-family:URWPalladioL-Roma;font-size:8.97px;stroke:none;">CrossRef</text>
   <text y="547.364" x="351.009" svgx:width="0.33" style="fill:rgb(0,0,0);font-family:URWPalladioL-Roma;font-size:8.97px;stroke:none;">]</text>
   <text y="560.275" x="76.535,81.018,85.501,87.74350000000001,98.05,106.29,111.24,115.264,120.54,125.816,130.158,133.077,135.3195,137.574,141.898,144.164,146.4065,148.669,155.586,161.052,164.007,166.962,169.2045,171.459,177.886,180.152,182.3945,184.657,191.71,197.176,200.131,204.473,209.749,213.33,215.968,220.31,223.265,228.541,230.7835,233.046,237.942,240.208,242.4505,244.704,251.72,256.063,264.067,272.071,276.414,279.332,281.5745,283.838,288.733,290.999,293.24150000000003,295.505,301.043,306.509,311.55,316.082,320.424,324.549,326.7915,329.045,334.439,336.705,338.9475,341.21,348.336,351.916,354.871,357.509,362.042,364.2845,366.538,373.591,375.857,382.873,385.14,387.3825,389.645,396.661,402.127,405.708,408.346,410.5885,412.851,419.904,422.17,424.4125,426.676,432.722,437.671,442.947,445.903,450.852,456.128,460.47,462.71250000000003,464.966,469.182,471.448,473.6905,475.953,482.87,486.45,491.917,496.93,501.272,503.91,506.15250000000003,508.415,515.332,517.598" svgx:width="0.5,0.5,0.25,0.55,1.0,0.55,0.44,0.58,0.58,0.48,0.4,0.25,0.55,0.6,0.25,0.25,0.55,0.76,0.6,0.33,0.33,0.25,0.55,0.71,0.25,0.25,0.55,0.78,0.6,0.33,0.48,0.58,0.4,0.29,0.48,0.33,0.58,0.25,0.55,0.61,0.25,0.25,0.55,0.77,0.48,0.88,0.88,0.48,0.4,0.25,0.55,0.61,0.25,0.25,0.55,0.61,0.6,0.56,0.5,0.48,0.56,0.25,0.55,0.72,0.25,0.25,0.55,0.79,0.4,0.33,0.29,0.5,0.25,0.55,0.78,0.25,0.77,0.25,0.25,0.55,0.77,0.6,0.4,0.29,0.25,0.55,0.78,0.25,0.25,0.55,0.67,0.55,0.58,0.33,0.55,0.58,0.48,0.25,0.55,0.56,0.25,0.25,0.55,0.76,0.4,0.6,0.55,0.48,0.29,0.25,0.55,0.76,0.25,0.25" style="fill:rgb(0,0,0);font-family:URWPalladioL-Roma;font-size:8.97px;stroke:none;">12. Wochner, P.; Gutt, C.; Autenrieth, T.; Demmer, T.; Bugaev, V.; Ortiz, A.D.; Duri, A.; Zontone, F.; Grübel, G.;</text>
   <text y="573.187" x="98.05,105.129,110.122,114.0,118.061,123.384,125.62650000000001,128.725,136.334,138.5765,141.666,147.766,150.812,154.424,158.997,164.02020000000002,167.137,173.621,177.078,182.072,185.95,189.7174,192.873,199.357,204.351,207.963,211.42,215.801,218.463,223.036,226.017,228.678,233.672,238.8746,242.04,249.156,254.479,259.051,261.713,266.798,270.676,273.337,277.1044,280.27,287.385,292.708,296.768,301.762,306.929,311.31,314.923,318.6904,321.855,329.464,332.126,337.714,343.302,347.683,352.8856,356.051,361.639,366.633,370.693,375.266,377.8673,380.982,385.784,390.869,398.944,407.02,411.401,414.382,417.995,420.656,425.037,428.8044,431.97,434.631,439.8336,442.999,450.078,452.74,456.617,461.611,465.068,470.656,475.037,478.485,482.866,488.3377,491.508,500.16,504.733,507.715,510.696,515.077,518.022" svgx:width="0.77,0.55,0.42,0.44,0.58,0.25,0.55,0.83,0.25,0.55,0.67,0.33,0.4,0.5,0.56,0.55,0.71,0.4,0.55,0.42,0.42,0.55,0.71,0.55,0.4,0.4,0.48,0.29,0.5,0.33,0.29,0.55,0.58,0.55,0.78,0.58,0.5,0.29,0.56,0.42,0.29,0.42,0.55,0.78,0.58,0.44,0.55,0.56,0.48,0.4,0.42,0.55,0.83,0.29,0.61,0.61,0.48,0.58,0.55,0.61,0.55,0.44,0.5,0.29,0.55,0.52,0.56,0.88,0.88,0.48,0.33,0.4,0.29,0.48,0.42,0.55,0.29,0.58,0.55,0.77,0.29,0.42,0.55,0.4,0.61,0.48,0.4,0.48,0.61,0.55,0.95,0.5,0.33,0.33,0.48,0.4,0.25" style="fill:rgb(0,0,0);font-family:URWPalladioL-Roma;font-size:8.97px;stroke:none;">Dosch, H. X-ray Cross Correlation Analysis Uncovers Hidden Local Symmetries in Disordered Matter.</text>
   <text y="586.099" x="97.773,103.251,106.578,110.559,114.208,116.4505,118.692,125.667,129.649,132.634,135.127,137.36950000000002,140.507,146.981,150.63,154.611,159.094,161.3365,164.474,169.459,173.109,175.601,177.8435,180.981,187.957,192.942" svgx:width="0.61,0.39,0.44,0.41,0.25,0.55,0.78,0.44,0.33,0.28,0.25,0.55,0.72,0.41,0.44,0.5,0.25,0.55,0.56,0.41,0.28,0.25,0.55,0.78,0.56,0.72" style="fill:rgb(0,0,0);font-family:URWPalladioL-Ital;font-size:8.97px;stroke:none;">Proc. Natl. Acad. Sci. USA</text>
   <text y="586.099" x="201.656,206.139,210.622,215.106" svgx:width="0.5,0.5,0.5,0.5" style="fill:rgb(0,0,0);font-family:URWPalladioL-Bold;font-size:8.97px;stroke:none;">2009</text>
   <text y="586.099" x="219.589" svgx:width="0.25" style="fill:rgb(0,0,0);font-family:URWPalladioL-Roma;font-size:8.97px;stroke:none;">,</text>
   <text y="586.099" x="224.072,228.555,233.038" svgx:width="0.5,0.5,0.5" style="fill:rgb(0,0,0);font-family:URWPalladioL-Ital;font-size:8.97px;stroke:none;">106</text>
   <text y="586.099" x="237.521,239.7635,242.004,246.487,250.971,255.454,259.937,264.42,268.903,273.387,277.87,282.353,286.836,291.32,293.5625,296.699" svgx:width="0.25,0.55,0.5,0.5,0.5,0.5,0.5,0.5,0.5,0.5,0.5,0.5,0.5,0.25,0.55,0.33" style="fill:rgb(0,0,0);font-family:URWPalladioL-Roma;font-size:8.97px;stroke:none;">, 11511–11514. [</text>
   <text y="586.099" x="299.685,306.042,309.423,314.318,318.12,321.922,327.911,332.206" svgx:width="0.71,0.4,0.55,0.42,0.42,0.67,0.48,0.33" style="fill:rgb(8,117,183);font-family:URWPalladioL-Roma;font-size:8.97px;stroke:none;">CrossRef</text>
   <text y="586.099" x="335.192" svgx:width="0.33" style="fill:rgb(0,0,0);font-family:URWPalladioL-Roma;font-size:8.97px;stroke:none;">]</text>
   <text y="599.01" x="76.535,81.018,85.501,87.74350000000001,98.05,102.673,106.582,111.707,115.026,119.834,124.051,126.86,129.1025,131.298,139.627,141.828,148.679,150.88,153.1225,155.318,162.036,167.345,170.216,173.086,175.32850000000002,177.524,183.767,185.968,188.2105,190.406,197.124,200.602,205.911,210.78,214.998,217.56,219.8025,221.998,228.716,230.95850000000002,233.154,239.397,244.521,248.924,252.402,256.804,260.714,263.584,267.802,271.28,273.842,277.575,280.446,283.008,286.917,290.6844,292.887,297.695,300.6551,302.854,309.705,314.829,319.725,325.034,327.596,331.999,335.58700000000005,337.713,343.956,347.275,352.083,355.816,359.5834,361.786,368.029,372.836,376.314,379.625,383.843,386.405,390.807,393.678,396.24,401.048,406.172,409.93940000000003,412.142,416.764,419.635,424.944,430.324,432.886,437.104,442.5757,444.72,449.59,454.61319999999995,456.722,462.101,464.664,469.559,474.684,477.64410000000004,479.791,484.413,488.323,492.725,495.596,498.466,502.684,506.162,508.724,513.848" svgx:width="0.5,0.5,0.25,0.55,0.52,0.44,0.58,0.4,0.55,0.48,0.4,0.25,0.55,0.95,0.25,0.78,0.25,0.25,0.55,0.76,0.6,0.33,0.33,0.25,0.55,0.71,0.25,0.25,0.55,0.76,0.4,0.6,0.55,0.48,0.29,0.25,0.55,0.76,0.25,0.55,0.71,0.58,0.5,0.4,0.5,0.44,0.33,0.48,0.4,0.29,0.42,0.33,0.29,0.44,0.42,0.55,0.55,0.33,0.55,0.78,0.58,0.56,0.6,0.29,0.5,0.4,0.55,0.71,0.4,0.55,0.42,0.42,0.55,0.71,0.55,0.4,0.4,0.48,0.29,0.5,0.33,0.29,0.55,0.58,0.42,0.55,0.52,0.33,0.6,0.61,0.29,0.48,0.61,0.55,0.55,0.56,0.55,0.61,0.29,0.56,0.58,0.33,0.55,0.52,0.44,0.5,0.33,0.33,0.48,0.4,0.29,0.58,0.56" style="fill:rgb(0,0,0);font-family:URWPalladioL-Roma;font-size:8.97px;stroke:none;">13. Schroer, M.A.; Gutt, C.; Grübel, G. Characteristics of Angular Cross Correlations Studied by Light Scattering</text>
   <text y="611.922" x="98.05,101.036,104.416,109.312,119.471,124.16,131.638,136.534,139.52,146.46,149.069,156.986,161.281,166.499,170.301,172.91,177.806,183.025,187.508,190.10930000000002,192.359,200.841,203.45,207.431,210.811,215.707,219.509,224.898,230.116,234.411,237.791,242.0966,244.328,249.313,251.922,254.532,262.449,266.251" svgx:width="0.33,0.4,0.55,0.88,0.61,0.83,0.55,0.33,0.77,0.29,0.88,0.48,0.58,0.42,0.29,0.55,0.58,0.5,0.29,0.55,0.95,0.29,0.44,0.4,0.55,0.42,0.6,0.58,0.48,0.4,0.48,0.55,0.56,0.29,0.29,0.88,0.42,0.25" style="fill:rgb(0,0,0);font-family:URWPalladioL-Roma;font-size:8.97px;stroke:none;">fromTwo-Dimensional Microsphere Films.</text>
   <text y="611.922" x="271.629,277.107,281.591,286.074,289.562,291.8045,294.942,300.922,304.41,308.4,310.6425,313.78" svgx:width="0.61,0.5,0.5,0.39,0.25,0.55,0.67,0.39,0.5,0.25,0.55,0.61" style="fill:rgb(0,0,0);font-family:URWPalladioL-Ital;font-size:8.97px;stroke:none;">Phys. Rev. E</text>
   <text y="611.922" x="321.5,325.983,330.466,334.95" svgx:width="0.5,0.5,0.5,0.5" style="fill:rgb(0,0,0);font-family:URWPalladioL-Bold;font-size:8.97px;stroke:none;">2014</text>
   <text y="611.922" x="339.432" svgx:width="0.25" style="fill:rgb(0,0,0);font-family:URWPalladioL-Roma;font-size:8.97px;stroke:none;">,</text>
   <text y="611.922" x="343.916,348.399" svgx:width="0.5,0.5" style="fill:rgb(0,0,0);font-family:URWPalladioL-Ital;font-size:8.97px;stroke:none;">90</text>
   <text y="611.922" x="352.882,355.1245,357.365,361.848,366.332,370.815,375.298,379.781,384.265,386.5075,389.644" svgx:width="0.25,0.55,0.5,0.5,0.5,0.5,0.5,0.5,0.25,0.55,0.33" style="fill:rgb(0,0,0);font-family:URWPalladioL-Roma;font-size:8.97px;stroke:none;">, 012309. [</text>
   <text y="611.922" x="392.63,398.987,402.368,407.263,411.065,414.867,420.856,425.151" svgx:width="0.71,0.4,0.55,0.42,0.42,0.67,0.48,0.33" style="fill:rgb(8,117,183);font-family:URWPalladioL-Roma;font-size:8.97px;stroke:none;">CrossRef</text>
   <text y="611.922" x="428.137" svgx:width="0.33" style="fill:rgb(0,0,0);font-family:URWPalladioL-Roma;font-size:8.97px;stroke:none;">]</text>
   <text y="624.833" x="76.535,81.018,85.501,87.74350000000001,98.05,104.677,110.181,113.786,116.762,121.326,123.5685,125.844,131.942,134.223,138.577,140.859,143.10150000000002,145.378,152.342,155.792,160.776,166.353,171.93,174.1725,176.449,182.026,184.308,186.5505,188.826,197.461,200.117,205.192,209.756,214.831,219.203,221.859,226.935,231.498,236.811,239.0535,241.329,246.906,249.188,251.4305,253.706,260.671,265.655,269.096,274.08,279.127,282.103,285.973,290.957,295.119,297.36150000000004,299.637,306.812,309.094,314.187,316.469,318.7115,320.987,326.062,329.668,334.232,337.207,342.191,347.768,353.345,356.001,358.2435,360.52,363.596,365.878,368.1205,370.396,375.991,380.364,385.676,391.253,393.909,396.885,399.86,402.517,404.7595,407.035,410.111,412.393,414.6355,416.911,421.703,427.189,430.722,436.226,441.538,446.613,448.8555,451.131,459.766,462.048,464.2905,466.566,473.531,477.136,479.793,484.868,489.851,493.457,496.113,500.677,505.989,508.2315,510.508,515.3,517.582" svgx:width="0.5,0.5,0.25,0.55,0.73,0.6,0.4,0.33,0.5,0.25,0.55,0.67,0.25,0.6,0.25,0.25,0.55,0.76,0.4,0.55,0.61,0.61,0.25,0.55,0.61,0.25,0.25,0.55,0.95,0.29,0.56,0.5,0.56,0.48,0.29,0.56,0.5,0.58,0.25,0.55,0.61,0.25,0.25,0.55,0.76,0.55,0.4,0.55,0.55,0.33,0.42,0.55,0.56,0.25,0.55,0.79,0.25,0.67,0.25,0.25,0.55,0.56,0.4,0.5,0.33,0.55,0.61,0.61,0.29,0.25,0.55,0.34,0.25,0.25,0.55,0.72,0.48,0.58,0.61,0.29,0.33,0.33,0.29,0.25,0.55,0.34,0.25,0.25,0.55,0.52,0.6,0.4,0.6,0.58,0.56,0.25,0.55,0.95,0.25,0.25,0.55,0.76,0.4,0.29,0.56,0.55,0.4,0.29,0.5,0.58,0.25,0.55,0.52,0.25,0.25" style="fill:rgb(0,0,0);font-family:URWPalladioL-Roma;font-size:8.97px;stroke:none;">14. Kurta, R.P.; Grodd, L.; Mikayelyan, E.; Gorobtsov, O.Y.; Fratoddi, I.; Venditti, I.; Sprung, M.; Grigorian, S.;</text>
   <text y="637.745" x="97.728,103.328,107.78,111.297,114.2,118.652,123.833,128.784,133.236,138.418,141.32,145.095,147.3375,149.565,152.565,154.791,161.718,163.9605,166.179,170.854,173.756,177.202,182.571,186.524,189.427,194.795,198.312,202.764,205.36530000000002,207.599,212.977,216.324,221.186,226.537,230.802,234.319,237.221,239.812,244.077,247.8444,250.096,254.957" svgx:width="0.72,0.5,0.4,0.33,0.5,0.58,0.56,0.5,0.58,0.33,0.42,0.25,0.55,0.34,0.25,0.78,0.25,0.55,0.52,0.33,0.4,0.6,0.44,0.33,0.6,0.4,0.5,0.29,0.55,0.6,0.4,0.55,0.6,0.48,0.4,0.33,0.29,0.48,0.42,0.55,0.55,0.33" style="fill:rgb(0,0,0);font-family:URWPalladioL-Roma;font-size:8.97px;stroke:none;">Vartanyants, I.A. Structural Properties of</text>
   <text y="637.745" x="260.159" svgx:width="0.61" style="fill:rgb(0,0,0);font-family:EURM10;font-size:8.97px;stroke:none;">π</text>
   <text y="637.745" x="265.62" svgx:width="0.33" style="fill:rgb(0,0,0);font-family:URWPalladioL-Roma;font-size:8.97px;stroke:none;">-</text>
   <text y="637.745" x="268.585" svgx:width="0.61" style="fill:rgb(0,0,0);font-family:EURM10;font-size:8.97px;stroke:none;">π</text>
   <text y="637.745" x="276.285,282.598,287.459,292.641,294.724,300.093,305.044,309.496,312.398,316.663,322.1347,324.338,331.737,336.002,338.904,346.33,351.191,354.708,359.7312,361.902,364.493,369.6956,371.91,377.288,382.149,384.74,389.691,397.553,401.817,405.40500000000003,407.578,413.036,418.218,420.809,426.01160000000004,428.226,433.176,435.767,438.358,446.22,449.98740000000004,452.239,456.913,459.807,465.176,470.616,473.207,477.472,482.9437,485.155,490.079,495.1022,497.264,503.203,506.168,509.685,514.137" svgx:width="0.71,0.55,0.58,0.23,0.6,0.56,0.5,0.33,0.48,0.61,0.55,0.83,0.48,0.33,0.83,0.55,0.4,0.56,0.55,0.29,0.58,0.55,0.6,0.55,0.29,0.56,0.88,0.48,0.4,0.55,0.61,0.58,0.29,0.58,0.55,0.56,0.29,0.29,0.88,0.42,0.55,0.52,0.33,0.6,0.61,0.29,0.48,0.61,0.55,0.55,0.56,0.55,0.67,0.33,0.4,0.5,0.56" style="fill:rgb(0,0,0);font-family:URWPalladioL-Roma;font-size:8.97px;stroke:none;">Conjugated Network in Polymer Thin Films Studied by X-ray</text>
   <text y="650.657" x="98.05,104.407,107.788,112.683,116.485,120.287,123.272,129.63,134.525,138.067,141.447,145.742,148.352,152.835,155.758,158.367,163.263,168.4656,170.723,177.699,182.917,187.4,190.009,194.995,198.796,201.406,205.207" svgx:width="0.71,0.4,0.55,0.42,0.42,0.33,0.71,0.55,0.4,0.4,0.48,0.29,0.5,0.33,0.29,0.55,0.58,0.55,0.78,0.58,0.5,0.29,0.56,0.42,0.29,0.42,0.25" style="fill:rgb(0,0,0);font-family:URWPalladioL-Roma;font-size:8.97px;stroke:none;">Cross-Correlation Analysis.</text>
   <text y="650.657" x="210.586,213.572,215.8145,218.055,223.533,228.017,232.5,235.988,238.2305,241.368,247.348,251.329,256.315,258.807,261.0495,264.187,269.172,272.66,275.485" svgx:width="0.33,0.25,0.55,0.61,0.5,0.5,0.39,0.25,0.55,0.67,0.44,0.56,0.28,0.25,0.55,0.56,0.39,0.39,0.25" style="fill:rgb(0,0,0);font-family:URWPalladioL-Ital;font-size:8.97px;stroke:none;">J. Phys. Conf. Ser.</text>
   <text y="650.657" x="280.864,285.347,289.83,294.314" svgx:width="0.5,0.5,0.5,0.5" style="fill:rgb(0,0,0);font-family:URWPalladioL-Bold;font-size:8.97px;stroke:none;">2014</text>
   <text y="650.657" x="298.797" svgx:width="0.25" style="fill:rgb(0,0,0);font-family:URWPalladioL-Roma;font-size:8.97px;stroke:none;">,</text>
   <text y="650.657" x="303.28,307.763,312.246" svgx:width="0.5,0.5,0.5" style="fill:rgb(0,0,0);font-family:URWPalladioL-Ital;font-size:8.97px;stroke:none;">499</text>
   <text y="650.657" x="316.73,318.9725,321.213,325.696,330.18,334.663,339.146,343.629,345.8715,349.009" svgx:width="0.25,0.55,0.5,0.5,0.5,0.5,0.5,0.25,0.55,0.33" style="fill:rgb(0,0,0);font-family:URWPalladioL-Roma;font-size:8.97px;stroke:none;">, 12021. [</text>
   <text y="650.657" x="351.995,358.352,361.732,366.628,370.43,374.232,380.221,384.516" svgx:width="0.71,0.4,0.55,0.42,0.42,0.67,0.48,0.33" style="fill:rgb(8,117,183);font-family:URWPalladioL-Roma;font-size:8.97px;stroke:none;">CrossRef</text>
   <text y="650.657" x="387.502" svgx:width="0.33" style="fill:rgb(0,0,0);font-family:URWPalladioL-Roma;font-size:8.97px;stroke:none;">]</text>
   <text y="663.568" x="76.535,81.018,85.501,87.74350000000001,98.05,104.449,109.764,113.245,116.119,120.526,122.7685,124.985,130.873,133.077,137.246,139.449,141.69150000000002,143.909,150.634,153.957,158.769,164.155,169.54,171.7825,173.991,179.376,181.58,183.82250000000002,186.049,194.387,196.952,201.852,206.259,211.16,215.382,217.946,222.847,227.254,232.384,234.6265,236.844,242.229,244.432,246.6745,248.892,255.617,260.43,263.753,268.565,273.439,276.313,280.05,284.862,288.846,291.0885,293.306,300.234,302.437,307.32,309.524,311.7665,313.983,319.862,324.269,326.834,332.149,336.556,341.686,346.815,351.716,355.621,357.8635,360.081,363.051,365.254,372.112,374.315,376.5575,378.775,383.676,387.157,391.564,394.437,399.25,404.635,410.021,412.585,414.8275,417.045,420.016,422.219,424.4615,426.679,432.055,436.277,441.407,446.792,449.357,452.222,455.095,457.66,459.90250000000003,462.12,465.09,467.294,469.5365,471.762,477.65,482.965,486.702,490.439,495.252,497.4945,499.703,508.041,510.244,515.453,517.657" svgx:width="0.5,0.5,0.25,0.55,0.73,0.6,0.4,0.33,0.5,0.25,0.55,0.67,0.25,0.6,0.25,0.25,0.55,0.76,0.4,0.55,0.61,0.61,0.25,0.55,0.61,0.25,0.25,0.55,0.95,0.29,0.56,0.5,0.56,0.48,0.29,0.56,0.5,0.58,0.25,0.55,0.61,0.25,0.25,0.55,0.76,0.55,0.4,0.55,0.55,0.33,0.42,0.55,0.56,0.25,0.55,0.79,0.25,0.67,0.25,0.25,0.55,0.67,0.5,0.29,0.6,0.5,0.58,0.58,0.56,0.56,0.25,0.55,0.34,0.25,0.78,0.25,0.25,0.55,0.56,0.4,0.5,0.33,0.55,0.61,0.61,0.29,0.25,0.55,0.34,0.25,0.25,0.55,0.72,0.48,0.58,0.61,0.29,0.33,0.33,0.29,0.25,0.55,0.34,0.25,0.25,0.55,0.67,0.6,0.42,0.42,0.55,0.25,0.55,0.95,0.25,0.72,0.25,0.25" style="fill:rgb(0,0,0);font-family:URWPalladioL-Roma;font-size:8.97px;stroke:none;">15. Kurta, R.P.; Grodd, L.; Mikayelyan, E.; Gorobtsov, O.Y.; Zaluzhnyy, I.A.; Fratoddi, I.; Venditti, I.; Russo, M.V.;</text>
   <text y="676.48" x="98.05,102.739,108.106,111.562,116.947,122.145,127.11,129.3525,131.575,140.024,142.256,144.4985,146.73,152.357,156.822,160.349,163.252,167.717,172.915,177.88,182.345,187.543,190.454,194.241,196.48350000000002,198.715,201.725,203.957,210.905,213.138,215.3805,217.603,221.881,224.8411,227.034,231.499,234.098,236.34050000000002,239.465,244.922,249.798,253.763,258.228,260.8293,263.06,267.748,270.659,274.116,279.501,283.466,286.377,291.762,295.129,299.43460000000005,301.639,306.516,309.47610000000003,311.731,316.419,320.697,328.583,331.182,335.147,338.674,343.64,347.426,350.338,354.803,357.402,360.0,362.599,367.797,372.10260000000005,374.307,379.701,384.167,391.597,397.0687,399.304,404.269,406.868,409.467,417.352,421.1194,423.381,428.775,432.132,437.009,441.947,446.225,451.6967,453.923,458.862,463.8852,466.06,473.481,477.946,483.144,488.02,490.994,495.87,499.835,505.22,509.007,513.284" svgx:width="0.52,0.6,0.4,0.6,0.58,0.56,0.25,0.55,0.95,0.25,0.25,0.55,0.72,0.5,0.4,0.33,0.5,0.58,0.56,0.5,0.58,0.33,0.42,0.25,0.55,0.34,0.25,0.78,0.25,0.25,0.55,0.48,0.33,0.55,0.5,0.29,0.25,0.55,0.61,0.55,0.44,0.5,0.29,0.55,0.52,0.33,0.4,0.6,0.44,0.33,0.6,0.4,0.48,0.55,0.55,0.33,0.55,0.52,0.48,0.88,0.29,0.44,0.4,0.56,0.42,0.33,0.5,0.29,0.29,0.29,0.58,0.48,0.55,0.6,0.5,0.83,0.61,0.55,0.56,0.29,0.29,0.88,0.42,0.55,0.6,0.4,0.55,0.55,0.48,0.61,0.55,0.55,0.56,0.55,0.83,0.5,0.58,0.55,0.33,0.55,0.44,0.6,0.42,0.48,0.61" style="fill:rgb(0,0,0);font-family:URWPalladioL-Roma;font-size:8.97px;stroke:none;">Sprung, M.; Vartanyants, I.A.; et al. Local Structure of Semicrystalline P3HT Films Probed by Nanofocused</text>
   <text y="689.391" x="98.05,104.407,109.303,114.521,118.816,122.197,126.491,131.71,134.67010000000002,136.875,142.855,145.841,149.383,153.866,158.851,162.653" svgx:width="0.71,0.55,0.58,0.48,0.4,0.48,0.58,0.33,0.55,0.67,0.33,0.4,0.5,0.56,0.42,0.25" style="fill:rgb(0,0,0);font-family:URWPalladioL-Roma;font-size:8.97px;stroke:none;">Coherent X-rays.</text>
   <text y="689.391" x="168.032,173.51,177.994,182.477,185.965,188.2075,191.345,197.325,201.808,205.296,212.272,214.5145,217.652,223.633,228.116,231.604,238.58,240.82250000000002,243.96,249.438,253.921,258.404,261.892" svgx:width="0.61,0.5,0.5,0.39,0.25,0.55,0.67,0.5,0.39,0.78,0.25,0.55,0.67,0.5,0.39,0.78,0.25,0.55,0.61,0.5,0.5,0.39,0.25" style="fill:rgb(0,0,0);font-family:URWPalladioL-Ital;font-size:8.97px;stroke:none;">Phys. Chem. Chem. Phys.</text>
   <text y="689.391" x="267.271,271.754,276.237,280.721" svgx:width="0.5,0.5,0.5,0.5" style="fill:rgb(0,0,0);font-family:URWPalladioL-Bold;font-size:8.97px;stroke:none;">2015</text>
   <text y="689.391" x="285.204" svgx:width="0.25" style="fill:rgb(0,0,0);font-family:URWPalladioL-Roma;font-size:8.97px;stroke:none;">,</text>
   <text y="689.391" x="289.687,294.17" svgx:width="0.5,0.5" style="fill:rgb(0,0,0);font-family:URWPalladioL-Ital;font-size:8.97px;stroke:none;">17</text>
   <text y="689.391" x="298.654,300.8965,303.137,307.62,312.104,316.587,321.07,325.553,330.036,334.52,339.003,343.486,345.7285,348.866" svgx:width="0.25,0.55,0.5,0.5,0.5,0.5,0.5,0.5,0.5,0.5,0.5,0.25,0.55,0.33" style="fill:rgb(0,0,0);font-family:URWPalladioL-Roma;font-size:8.97px;stroke:none;">, 7404–7410. [</text>
   <text y="689.391" x="351.852,358.209,361.589,366.485,370.287,374.088,380.078,384.373" svgx:width="0.71,0.4,0.55,0.42,0.42,0.67,0.48,0.33" style="fill:rgb(8,117,183);font-family:URWPalladioL-Roma;font-size:8.97px;stroke:none;">CrossRef</text>
   <text y="689.391" x="387.359,390.3191,392.586" svgx:width="0.33,0.55,0.33" style="fill:rgb(0,0,0);font-family:URWPalladioL-Roma;font-size:8.97px;stroke:none;">] [</text>
   <text y="689.391" x="395.572,400.988,406.394,411.353,419.835,424.13" svgx:width="0.6,0.6,0.55,0.95,0.48,0.61" style="fill:rgb(8,117,183);font-family:URWPalladioL-Roma;font-size:8.97px;stroke:none;">PubMed</text>
   <text y="689.391" x="429.608" svgx:width="0.33" style="fill:rgb(0,0,0);font-family:URWPalladioL-Roma;font-size:8.97px;stroke:none;">]</text>
   <text y="702.303" x="76.535,81.018,85.501,87.74350000000001,98.05,104.69,110.205,113.817,116.799,121.372,123.6145,127.801,133.91,136.197,140.559,142.846,145.0885,150.226,157.415,161.293,164.274,167.722,172.716,177.883,181.761,186.846,189.507,192.169,194.41150000000002,198.598,204.186,206.473,209.555,211.841,214.08350000000002,219.213,224.014,226.676,231.998,237.083,241.464,244.409,246.6515,250.839,257.954,260.24,262.4825,267.621,274.599,279.593,283.041,288.034,293.092,296.073,299.951,304.945,309.115,311.3575,315.545,322.733,325.02,330.123,332.409,334.6515,339.781,344.582,349.905,354.478,359.536,364.108,366.77,369.431,374.754,376.9965,381.184,388.299,390.585,392.8275,397.957,405.036,409.608,414.931,417.593,422.678,427.251,431.631,435.802,438.0445,442.231,449.31,451.596,453.8385,458.977,464.245,468.626,471.671,476.244,481.567,486.561,490.731,492.9735,497.16,504.349,506.635,515.287,517.574" svgx:width="0.5,0.5,0.25,0.55,0.73,0.6,0.4,0.33,0.5,0.25,0.55,0.67,0.25,0.6,0.25,0.25,0.55,0.79,0.42,0.33,0.4,0.55,0.56,0.42,0.56,0.29,0.29,0.25,0.55,0.61,0.25,0.34,0.25,0.25,0.55,0.52,0.29,0.58,0.56,0.48,0.4,0.25,0.55,0.78,0.25,0.25,0.55,0.76,0.55,0.4,0.55,0.55,0.33,0.42,0.55,0.56,0.25,0.55,0.79,0.25,0.67,0.25,0.25,0.55,0.52,0.58,0.5,0.55,0.5,0.29,0.29,0.58,0.25,0.55,0.78,0.25,0.25,0.55,0.77,0.5,0.58,0.29,0.56,0.5,0.48,0.56,0.25,0.55,0.77,0.25,0.25,0.55,0.67,0.48,0.33,0.5,0.58,0.55,0.56,0.25,0.55,0.79,0.25,0.95,0.25,0.25" style="fill:rgb(0,0,0);font-family:URWPalladioL-Roma;font-size:8.97px;stroke:none;">16. Kurta, R.P.; Ostrovskii, B.I.; Singer, A.; Gorobtsov, O.Y.; Shabalin, A.; Dzhigaev, D.; Yefanov, O.M.;</text>
   <text y="715.215" x="98.05,103.941,108.763,113.179,118.505,121.075,125.985,130.401,132.64350000000002,134.835,141.706,143.914,149.134,151.342,153.58450000000002,155.784,160.421,165.729,169.147,174.472,179.613,184.523,186.7655,188.957,197.312,199.52,201.76250000000002,203.962,209.509,213.925,217.413,220.292,224.708,229.848,234.759,239.175,244.315,247.194,250.939,253.1815,255.382,258.358,260.566,267.428,269.6705,271.871,277.762,280.703,284.191,288.607,293.6302,295.743,302.005,305.335,310.157,313.902,317.646,320.587,326.849,331.672,335.16,338.481,342.711,345.281,349.697,352.577,355.147,359.969,365.1716,367.335,374.206,379.346,383.762,386.332,391.243,394.988,397.558,401.3254,403.537,408.359,411.3191,413.526,418.922,421.492,426.438,431.764,434.334,439.8057,441.956,448.217,451.706,456.617,460.361,463.241,467.656,470.2573,472.452,480.807,485.038,492.836,497.72,501.209,505.625,510.765,514.996" svgx:width="0.67,0.55,0.5,0.6,0.29,0.56,0.5,0.25,0.55,0.78,0.25,0.72,0.25,0.25,0.55,0.52,0.6,0.4,0.6,0.58,0.56,0.25,0.55,0.95,0.25,0.25,0.55,0.72,0.5,0.4,0.33,0.5,0.58,0.56,0.5,0.58,0.33,0.42,0.25,0.55,0.34,0.25,0.78,0.25,0.55,0.67,0.33,0.4,0.5,0.56,0.55,0.71,0.4,0.55,0.42,0.42,0.33,0.71,0.55,0.4,0.4,0.48,0.29,0.5,0.33,0.29,0.55,0.58,0.55,0.78,0.58,0.5,0.29,0.56,0.42,0.29,0.42,0.55,0.55,0.33,0.55,0.61,0.29,0.56,0.6,0.29,0.61,0.55,0.71,0.4,0.56,0.42,0.33,0.5,0.29,0.55,0.95,0.48,0.88,0.55,0.4,0.5,0.58,0.48,0.42" style="fill:rgb(0,0,0);font-family:URWPalladioL-Roma;font-size:8.97px;stroke:none;">Zozulya, A.V.; Sprung, M.; Vartanyants, I.A. X-ray Cross-Correlation Analysis of Liquid Crystal Membranes</text>
   <text y="728.126" x="98.05,100.654,105.8566,108.108,111.025,116.233,120.5386,122.757,128.725,131.329,135.302,137.906,143.114,145.718,148.636,153.6592,155.848,160.734,163.69410000000002,165.96,168.877,174.085,178.3906,180.609,188.054,192.34,196.957,201.432,204.349,206.953,210.926,213.906,218.604,226.505,230.792,234.765,237.682,240.286,244.2328,246.505,251.91,257.118,261.592,265.386,269.69160000000005,271.91,276.59,280.125,284.599,289.807,293.601,296.205,299.122,301.726,306.612,311.82" svgx:width="0.29,0.58,0.55,0.33,0.58,0.48,0.55,0.72,0.29,0.44,0.29,0.58,0.29,0.33,0.56,0.55,0.55,0.33,0.55,0.33,0.58,0.48,0.55,0.83,0.48,0.52,0.5,0.33,0.29,0.44,0.33,0.52,0.88,0.48,0.44,0.33,0.29,0.44,0.55,0.6,0.58,0.5,0.42,0.48,0.55,0.61,0.4,0.5,0.58,0.42,0.29,0.33,0.29,0.55,0.58,0.25" style="fill:rgb(0,0,0);font-family:URWPalladioL-Roma;font-size:8.97px;stroke:none;">in the Vicinity of the Hexatic-Smectic Phase Transition.</text>
   <text y="728.126" x="317.194,322.661,327.136,331.61,335.091,337.3335,340.469,346.438,349.919,353.901,356.1435,359.27" svgx:width="0.61,0.5,0.5,0.39,0.25,0.55,0.67,0.39,0.5,0.25,0.55,0.61" style="fill:rgb(0,0,0);font-family:URWPalladioL-Ital;font-size:8.97px;stroke:none;">Phys. Rev. E</text>
   <text y="728.126" x="366.981,371.464,375.947,380.431" svgx:width="0.5,0.5,0.5,0.5" style="fill:rgb(0,0,0);font-family:URWPalladioL-Bold;font-size:8.97px;stroke:none;">2013</text>
   <text y="728.126" x="384.914" svgx:width="0.25" style="fill:rgb(0,0,0);font-family:URWPalladioL-Roma;font-size:8.97px;stroke:none;">,</text>
   <text y="728.126" x="389.393,393.867" svgx:width="0.5,0.5" style="fill:rgb(0,0,0);font-family:URWPalladioL-Ital;font-size:8.97px;stroke:none;">88</text>
   <text y="728.126" x="398.341,400.5835,402.824,407.298,411.773,416.247,420.721,425.195,429.67,431.9125,435.039" svgx:width="0.25,0.55,0.5,0.5,0.5,0.5,0.5,0.5,0.25,0.55,0.33" style="fill:rgb(0,0,0);font-family:URWPalladioL-Roma;font-size:8.97px;stroke:none;">, 044501. [</text>
   <text y="728.126" x="438.019,444.363,447.737,452.622,456.417,460.211,466.188,470.475" svgx:width="0.71,0.4,0.55,0.42,0.42,0.67,0.48,0.33" style="fill:rgb(8,117,183);font-family:URWPalladioL-Roma;font-size:8.97px;stroke:none;">CrossRef</text>
   <text y="728.126" x="473.454,476.4141,478.68" svgx:width="0.33,0.55,0.33" style="fill:rgb(0,0,0);font-family:URWPalladioL-Roma;font-size:8.97px;stroke:none;">] [</text>
   <text y="728.126" x="481.66,487.065,492.461,497.41,505.875,510.161" svgx:width="0.6,0.6,0.55,0.95,0.48,0.61" style="fill:rgb(8,117,183);font-family:URWPalladioL-Roma;font-size:8.97px;stroke:none;">PubMed</text>
   <text y="728.126" x="515.629" svgx:width="0.33" style="fill:rgb(0,0,0);font-family:URWPalladioL-Roma;font-size:8.97px;stroke:none;">]</text>
  </g>
 </g>
</svg>
