<?xml version="1.0" encoding="UTF-8"?>
<svg height="766.34" width="530.3575" xmlns="http://www.w3.org/2000/svg">
 <g id="page" xmlns:svgx="http://www.xml-cml.org/schema/svgx">
  <g begin="text">
   <text y="62.979" x="76.535,84.059,87.598,90.252,93.352,96.452,98.668,102.207,104.422" svgx:width="0.94,0.44,0.33,0.39,0.39,0.28,0.44,0.28,0.39" style="fill:rgb(0,0,0);font-family:URWPalladioL-Ital;font-size:7.97px;stroke:none;">Materials</text>
   <text y="62.979" x="109.515,113.5,117.485,121.47" svgx:width="0.5,0.5,0.5,0.5" style="fill:rgb(0,0,0);font-family:URWPalladioL-Bold;font-size:7.97px;stroke:none;">2019</text>
   <text y="62.979" x="125.455" svgx:width="0.25" style="fill:rgb(0,0,0);font-family:URWPalladioL-Roma;font-size:7.97px;stroke:none;">,</text>
   <text y="62.979" x="129.44,133.425" svgx:width="0.5,0.5" style="fill:rgb(0,0,0);font-family:URWPalladioL-Ital;font-size:7.97px;stroke:none;">12</text>
   <text y="62.979" x="137.41,139.4025,141.395,145.38,149.365,153.35,157.335,491.809,495.794,499.779,501.772,506.123,508.7531,510.77,514.755" svgx:width="0.25,0.55,0.5,0.5,0.5,0.5,0.55,0.5,0.5,0.55,0.55,0.33,0.55,0.5,0.5" style="fill:rgb(0,0,0);font-family:URWPalladioL-Roma;font-size:7.97px;stroke:none;">, 3464 28 of 32</text>
   <text y="97.848" x="76.535,81.018,85.501,87.74350000000001,98.05,104.15,108.723,111.384,116.899,121.472,126.795,132.118,137.203,141.291,143.5335,149.577,152.659,154.946,162.061,164.347,166.58950000000002,174.508,181.148,186.663,190.276,193.257,197.83,200.07250000000002,206.116,212.225,214.512,218.883,221.17,223.4125,231.331,236.132,241.647,244.309,249.394,253.966,259.289,264.283,269.45,274.023,276.26550000000003,282.309,287.897,290.184,297.299,299.585,301.8275,309.755,316.734,321.727,325.175,330.169,335.226,338.208,342.085,347.079,351.249,353.49150000000003,359.536,366.724,369.01,374.114,376.4,378.6425,386.561,391.363,396.685,401.258,406.316,410.889,413.55,416.212,421.534,423.7765,429.82,436.936,439.222,446.201,448.487,450.72950000000003,458.657,464.757,469.751,474.324,479.838,482.5,487.585,492.158,494.4005,500.444,507.559,509.846,515.287,517.574" svgx:width="0.5,0.5,0.25,0.55,0.67,0.5,0.29,0.6,0.5,0.58,0.58,0.56,0.56,0.25,0.55,0.34,0.25,0.78,0.25,0.25,0.55,0.73,0.6,0.4,0.33,0.5,0.25,0.55,0.67,0.25,0.6,0.25,0.25,0.55,0.52,0.6,0.29,0.56,0.5,0.58,0.55,0.56,0.5,0.25,0.55,0.61,0.25,0.78,0.25,0.25,0.55,0.76,0.55,0.4,0.55,0.55,0.33,0.42,0.55,0.56,0.25,0.55,0.79,0.25,0.67,0.25,0.25,0.55,0.52,0.58,0.5,0.55,0.5,0.29,0.29,0.58,0.25,0.55,0.78,0.25,0.76,0.25,0.25,0.55,0.67,0.55,0.5,0.6,0.29,0.56,0.5,0.25,0.55,0.78,0.25,0.72,0.25,0.25" style="fill:rgb(0,0,0);font-family:URWPalladioL-Roma;font-size:8.97px;stroke:none;">17. Zaluzhnyy, I.A.; Kurta, R.P.; Sulyanova, E.A.; Gorobtsov, O.Y.; Shabalin, A.G.; Zozulya, A.V.;</text>
   <text y="110.76" x="98.05,106.702,111.083,116.405,121.92,125.798,131.121,135.502,140.825,145.91,150.903,155.074,157.31650000000002,162.354,169.469,171.755,176.127,178.414,180.6565,187.065,191.867,197.363,200.903,206.418,211.741,216.826,219.0685,224.106,232.757,235.044,237.28650000000002,243.705,250.345" svgx:width="0.95,0.48,0.58,0.6,0.42,0.58,0.48,0.58,0.56,0.55,0.56,0.25,0.55,0.78,0.25,0.6,0.25,0.25,0.55,0.52,0.6,0.4,0.6,0.58,0.56,0.25,0.55,0.95,0.25,0.25,0.55,0.73,0.4" style="fill:rgb(0,0,0);font-family:URWPalladioL-Roma;font-size:8.97px;stroke:none;">Menushenkov, A.P.; Sprung, M.; Kr</text>
   <text y="110.76" x="253.955" svgx:width="0.55" style="fill:rgb(0,0,0);font-family:VnURWPalladioL;font-size:8.97px;stroke:none;">ó</text>
   <text y="110.76" x="258.851,266.479,270.539,275.112,281.313,280.197,285.52,289.398,294.483,297.144,304.424,311.54,313.826,322.478" svgx:width="0.83,0.44,0.5,0.56,0.33,0.58,0.42,0.56,0.29,0.25,0.78,0.25,0.25,0.76" style="fill:rgb(0,0,0);font-family:URWPalladioL-Roma;font-size:8.97px;stroke:none;">wczy´nski,A.;G</text>
   <text y="110.76" x="329.46" svgx:width="0.55" style="fill:rgb(0,0,0);font-family:VnURWPalladioL;font-size:8.97px;stroke:none;">ó</text>
   <text y="110.76" x="334.355,337.803,342.184,346.244,351.329,355.902,358.1445,363.182,368.77,371.057,373.2995,379.718,384.099,387.0591,392.074,396.647,399.308,401.5505,412.99,417.792,420.773,424.312,429.827,433.888,436.869,442.384,445.997,450.57,453.1713,458.225,463.026,466.008,471.523,477.111,479.772,484.153,487.92040000000003,493.024,498.018,500.9781,506.057,509.038,514.361" svgx:width="0.4,0.48,0.44,0.56,0.5,0.25,0.55,0.61,0.25,0.25,0.55,0.48,0.33,0.55,0.5,0.29,0.25,0.55,0.52,0.33,0.4,0.6,0.44,0.33,0.6,0.4,0.5,0.29,0.55,0.52,0.33,0.6,0.61,0.29,0.48,0.42,0.55,0.55,0.33,0.55,0.33,0.58,0.48" style="fill:rgb(0,0,0);font-family:URWPalladioL-Roma;font-size:8.97px;stroke:none;">recka, E.; et al. Structural Studies of the</text>
   <text y="123.672" x="98.05,103.638,108.632,113.954,119.542,122.588,129.777,133.389,136.051,140.431,145.754,148.736,153.308,156.29,158.951,163.945,169.268,173.841,176.44230000000002,179.721,186.91,190.367,195.955,200.336,203.924,207.168,211.741,217.063,222.5347,225.871,233.48,237.861,242.58,247.153,250.134,252.796,256.856,259.902,264.703,272.779,277.16,281.221,284.202,286.864,290.8108,294.144,298.945,302.558,307.13,312.453,316.331,318.992,321.974,324.635,329.629,334.83160000000004,338.171,340.832,346.0346,349.375,354.963,357.624,362.746,368.261,370.922,376.3937,379.738,386.223,389.835,394.92,398.798,401.78,406.352,409.014,412.7814,416.111,421.105,424.06510000000003,427.369,433.149,437.722,441.335,443.996,448.99,454.505,458.2724,461.602,468.086,473.08,481.155,486.652,491.645,495.523,498.185,501.166,503.828,508.821,514.144,518.022" svgx:width="0.61,0.55,0.58,0.61,0.33,0.79,0.4,0.29,0.48,0.58,0.33,0.5,0.33,0.29,0.55,0.58,0.5,0.29,0.55,0.79,0.4,0.61,0.48,0.4,0.55,0.5,0.58,0.61,0.55,0.83,0.48,0.52,0.5,0.33,0.29,0.44,0.33,0.52,0.88,0.48,0.44,0.33,0.29,0.44,0.55,0.61,0.4,0.5,0.58,0.42,0.29,0.33,0.29,0.55,0.58,0.55,0.29,0.58,0.55,0.61,0.29,0.56,0.6,0.29,0.61,0.55,0.71,0.4,0.56,0.42,0.33,0.5,0.29,0.42,0.55,0.55,0.33,0.55,0.72,0.5,0.4,0.29,0.55,0.6,0.42,0.55,0.71,0.55,0.88,0.6,0.55,0.42,0.29,0.33,0.29,0.55,0.58,0.42,0.25" style="fill:rgb(0,0,0);font-family:URWPalladioL-Roma;font-size:8.97px;stroke:none;">Bond-Orientational Order and Hexatic-Smectic Transition in Liquid Crystals of Various Compositions.</text>
   <text y="136.583" x="97.799,102.784,106.765,109.258,112.21809999999999,114.485,122.95,126.931,129.917,132.902,136.39" svgx:width="0.56,0.44,0.28,0.33,0.55,0.94,0.44,0.33,0.33,0.39,0.39" style="fill:rgb(0,0,0);font-family:URWPalladioL-Ital;font-size:8.97px;stroke:none;">Soft Matter</text>
   <text y="136.583" x="142.12,146.603,151.086,155.57" svgx:width="0.5,0.5,0.5,0.5" style="fill:rgb(0,0,0);font-family:URWPalladioL-Bold;font-size:8.97px;stroke:none;">2017</text>
   <text y="136.583" x="160.052" svgx:width="0.25" style="fill:rgb(0,0,0);font-family:URWPalladioL-Roma;font-size:8.97px;stroke:none;">,</text>
   <text y="136.583" x="164.536,169.019" svgx:width="0.5,0.5" style="fill:rgb(0,0,0);font-family:URWPalladioL-Ital;font-size:8.97px;stroke:none;">13</text>
   <text y="136.583" x="173.502,175.74450000000002,177.985,182.468,186.952,191.435,195.918,200.401,204.884,209.368,213.851,218.334,220.5765,223.714" svgx:width="0.25,0.55,0.5,0.5,0.5,0.5,0.5,0.5,0.5,0.5,0.5,0.25,0.55,0.33" style="fill:rgb(0,0,0);font-family:URWPalladioL-Roma;font-size:8.97px;stroke:none;">, 3240–3252. [</text>
   <text y="136.583" x="226.7,233.057,236.437,241.333,245.135,248.936,254.926,259.221" svgx:width="0.71,0.4,0.55,0.42,0.42,0.67,0.48,0.33" style="fill:rgb(8,117,183);font-family:URWPalladioL-Roma;font-size:8.97px;stroke:none;">CrossRef</text>
   <text y="136.583" x="262.207,265.1671,267.434" svgx:width="0.33,0.55,0.33" style="fill:rgb(0,0,0);font-family:URWPalladioL-Roma;font-size:8.97px;stroke:none;">] [</text>
   <text y="136.583" x="270.42,275.836,281.242,286.201,294.683,298.978" svgx:width="0.6,0.6,0.55,0.95,0.48,0.61" style="fill:rgb(8,117,183);font-family:URWPalladioL-Roma;font-size:8.97px;stroke:none;">PubMed</text>
   <text y="136.583" x="304.456" svgx:width="0.33" style="fill:rgb(0,0,0);font-family:URWPalladioL-Roma;font-size:8.97px;stroke:none;">]</text>
   <text y="149.495" x="76.535,81.018,85.501,87.74350000000001,98.05,104.043,108.535,111.149,116.567,121.059,126.288,131.517,136.512,140.51,142.7525,145.002,148.03,150.276,157.266,159.512,161.7545,164.004,170.527,175.944,179.493,182.422,186.914,189.1565,191.397,197.399,199.645,203.912,206.158,208.4005,210.651,217.64,222.869,228.359" svgx:width="0.5,0.5,0.25,0.55,0.67,0.5,0.29,0.6,0.5,0.58,0.58,0.56,0.56,0.25,0.55,0.34,0.25,0.78,0.25,0.25,0.55,0.73,0.6,0.4,0.33,0.5,0.25,0.55,0.67,0.25,0.6,0.25,0.25,0.55,0.78,0.58,0.61,0.4" style="fill:rgb(0,0,0);font-family:URWPalladioL-Roma;font-size:8.97px;stroke:none;">18. Zaluzhnyy, I.A.; Kurta, R.P.; Andr</text>
   <text y="149.495" x="231.909" svgx:width="0.48" style="fill:rgb(0,0,0);font-family:VnURWPalladioL;font-size:8.97px;stroke:none;">é</text>
   <text y="149.495" x="236.204,238.44650000000001,240.696,247.686,249.932,252.1745,254.415,261.27,266.176,269.563,274.468,279.437,282.365,286.175,291.08,295.168,297.4105,299.651,306.713,308.959,313.954,316.201,318.44350000000003,320.693,326.694,331.6,335.409,339.713,341.95550000000003,344.205,352.704,354.95,357.1925,359.433,364.15,369.145,374.051,379.45,382.065,387.294,390.223,394.032,398.335,402.423,404.6655,406.906,411.183,413.429,415.6715,417.912,423.402,427.705,431.515,435.818,441.307,443.922,449.151,451.3935,453.643,456.671,458.917,461.1595,463.409,469.402,474.307,478.799,484.217,486.831,491.826,496.319,498.5615,500.802,507.792,510.038,515.365,517.611" svgx:width="0.25,0.55,0.78,0.25,0.25,0.55,0.76,0.55,0.4,0.55,0.55,0.33,0.42,0.55,0.56,0.25,0.55,0.79,0.25,0.67,0.25,0.25,0.55,0.67,0.55,0.42,0.48,0.25,0.55,0.95,0.25,0.25,0.55,0.52,0.56,0.55,0.6,0.29,0.58,0.33,0.42,0.48,0.56,0.25,0.55,0.6,0.25,0.25,0.55,0.61,0.48,0.42,0.48,0.61,0.29,0.58,0.25,0.55,0.34,0.25,0.25,0.55,0.67,0.55,0.5,0.6,0.29,0.56,0.5,0.25,0.55,0.78,0.25,0.72,0.25,0.25" style="fill:rgb(0,0,0);font-family:URWPalladioL-Roma;font-size:8.97px;stroke:none;">, A.; Gorobtsov, O.Y.; Rose, M.; Skopintsev, P.; Besedin, I.; Zozulya, A.V.;</text>
   <text y="162.406" x="98.05,102.852,108.348,111.887,117.402,122.725,127.81,130.0525,133.087,141.739,144.026,146.26850000000002,149.668,154.47,158.531,163.854,167.301,171.682,174.344,179.401,183.782,186.736,188.9785,192.004,196.266,198.552,200.7945,204.195,208.576,211.5361,214.548,219.112,221.773,224.0155,229.438,236.626,242.141,246.714,252.037,255.018,257.68,260.725,265.81,268.471,273.794,278.81719999999996,281.861,288.976,294.299,299.384,304.899,307.56,312.133,315.721,318.736,325.221,330.214,333.827,337.275,341.656,344.317,348.89,351.871,354.533,359.526,364.849,368.6164,371.708,376.766,381.147,384.128,391.756,396.137,400.517,405.7196,408.831,411.812,417.135,421.4406,424.498,431.613,434.594,439.588,447.664,450.325,454.2718,457.376,462.964,467.537,470.519,473.5,476.162,480.222,484.5276,487.585,492.158,497.48,502.9517,506.059,509.041,514.363" svgx:width="0.52,0.6,0.4,0.6,0.58,0.56,0.25,0.55,0.95,0.25,0.25,0.55,0.52,0.44,0.58,0.4,0.48,0.29,0.55,0.48,0.4,0.25,0.55,0.56,0.25,0.25,0.55,0.48,0.33,0.55,0.5,0.29,0.25,0.55,0.79,0.6,0.5,0.58,0.33,0.29,0.33,0.56,0.29,0.58,0.56,0.55,0.78,0.58,0.56,0.6,0.29,0.5,0.4,0.55,0.71,0.55,0.4,0.4,0.48,0.29,0.5,0.33,0.29,0.55,0.58,0.42,0.55,0.55,0.48,0.33,0.83,0.48,0.48,0.58,0.55,0.33,0.58,0.48,0.55,0.78,0.33,0.55,0.88,0.29,0.44,0.55,0.61,0.5,0.33,0.33,0.29,0.44,0.48,0.55,0.5,0.58,0.61,0.55,0.33,0.58,0.48" style="fill:rgb(0,0,0);font-family:URWPalladioL-Roma;font-size:8.97px;stroke:none;">Sprung, M.; Schreiber, F.; et al. Quantifying Angular Correlations between the Atomic Lattice and the</text>
   <text y="175.318" x="98.05,102.663,107.962,113.243,117.452,120.923,123.48,127.873,130.738,133.602,136.16,140.061,144.3666,146.493,151.291,154.2511,156.431,163.733,168.127,173.241,178.039,181.94,185.411,190.297,194.022,196.887,201.281,203.838,207.6054,209.786,216.623,220.349,224.074,228.283,236.042,240.902,243.459,247.668,253.1397,255.26,262.588,265.145,268.01,273.2126,275.338,282.139,284.696,288.009,292.218,296.12,298.984,301.541,306.339,311.453,315.846,318.4473,320.627,325.996,328.553,333.667,338.552,341.109,346.223,351.109" svgx:width="0.52,0.6,0.6,0.48,0.4,0.29,0.5,0.33,0.33,0.29,0.44,0.48,0.55,0.55,0.33,0.55,0.83,0.5,0.58,0.55,0.44,0.4,0.56,0.42,0.33,0.5,0.29,0.42,0.55,0.78,0.42,0.42,0.48,0.88,0.55,0.29,0.48,0.61,0.55,0.83,0.29,0.33,0.58,0.55,0.77,0.29,0.4,0.48,0.44,0.33,0.29,0.55,0.58,0.5,0.29,0.55,0.61,0.29,0.58,0.56,0.29,0.58,0.56,0.25" style="fill:rgb(0,0,0);font-family:URWPalladioL-Roma;font-size:8.97px;stroke:none;">Superlattice of Nanocrystals Assembled with Directional Linking.</text>
   <text y="175.318" x="356.433,363.269,367.171,372.056,376.0028,378.181,383.067,386.485,389.411,392.337" svgx:width="0.78,0.44,0.56,0.44,0.55,0.56,0.39,0.33,0.33,0.25" style="fill:rgb(0,0,0);font-family:URWPalladioL-Ital;font-size:8.97px;stroke:none;">Nano Lett.</text>
   <text y="175.318" x="397.662,402.145,406.628,411.112" svgx:width="0.5,0.5,0.5,0.5" style="fill:rgb(0,0,0);font-family:URWPalladioL-Bold;font-size:8.97px;stroke:none;">2017</text>
   <text y="175.318" x="415.595" svgx:width="0.25" style="fill:rgb(0,0,0);font-family:URWPalladioL-Roma;font-size:8.97px;stroke:none;">,</text>
   <text y="175.318" x="420.016,424.41" svgx:width="0.5,0.5" style="fill:rgb(0,0,0);font-family:URWPalladioL-Ital;font-size:8.97px;stroke:none;">17</text>
   <text y="175.318" x="428.804,431.0465,433.224,437.617,442.011,446.404,450.798,455.191,459.585,463.979,468.372,472.766,475.0085,478.091" svgx:width="0.25,0.55,0.5,0.5,0.5,0.5,0.5,0.5,0.5,0.5,0.5,0.25,0.55,0.33" style="fill:rgb(0,0,0);font-family:URWPalladioL-Roma;font-size:8.97px;stroke:none;">, 3511–3517. [</text>
   <text y="175.318" x="481.017,487.247,490.559,495.357,499.083,502.809,508.678,512.887" svgx:width="0.71,0.4,0.55,0.42,0.42,0.67,0.48,0.33" style="fill:rgb(8,117,183);font-family:URWPalladioL-Roma;font-size:8.97px;stroke:none;">CrossRef</text>
   <text y="175.318" x="515.813" svgx:width="0.33" style="fill:rgb(0,0,0);font-family:URWPalladioL-Roma;font-size:8.97px;stroke:none;">]</text>
   <text y="188.23" x="98.05" svgx:width="0.33" style="fill:rgb(0,0,0);font-family:URWPalladioL-Roma;font-size:8.97px;stroke:none;">[</text>
   <text y="188.23" x="101.036,106.452,111.858,116.817,125.299,129.594" svgx:width="0.6,0.6,0.55,0.95,0.48,0.61" style="fill:rgb(8,117,183);font-family:URWPalladioL-Roma;font-size:8.97px;stroke:none;">PubMed</text>
   <text y="188.23" x="135.072" svgx:width="0.33" style="fill:rgb(0,0,0);font-family:URWPalladioL-Roma;font-size:8.97px;stroke:none;">]</text>
   <text y="201.141" x="76.535,81.018,85.501,87.74350000000001,98.05,103.594,107.941,113.222,121.234,126.279,131.751,137.032,139.672,144.019,146.941,149.1835,151.441,155.661,157.929,160.1715,162.439,167.203,171.232,176.513,181.984,184.625,189.162,191.4045,193.663,197.882,200.151,202.39350000000002,204.66,209.424,213.453,218.734,222.155,227.109,231.456,234.378,236.6205,238.878,247.462,249.731,256.79,259.059,261.30150000000003,263.569,268.614,272.035,276.381,281.662,286.199,290.546,293.186,295.4285,297.696,303.24,305.509,307.7515,310.009,315.554,320.091,325.372,330.417,334.763,337.0055,339.273,346.823,349.091,351.3335,353.592,360.515,364.099,369.571,374.589,378.935,381.576,383.81850000000003,386.077,393.0,395.2425,397.51,405.059,409.406,412.364,416.71,420.131,425.086,430.131,434.477,439.758,444.105,449.059,454.531,458.2984,460.61,466.155,471.109,475.138,479.675,482.2763,484.557,491.689,495.11,500.654,505.0,508.588,510.817,513.457" svgx:width="0.5,0.5,0.25,0.55,0.61,0.48,0.58,0.88,0.56,0.6,0.58,0.29,0.48,0.4,0.25,0.55,0.56,0.25,0.25,0.55,0.52,0.44,0.58,0.6,0.29,0.5,0.25,0.55,0.56,0.25,0.25,0.55,0.52,0.44,0.58,0.4,0.55,0.48,0.4,0.25,0.55,0.95,0.25,0.78,0.25,0.25,0.55,0.56,0.4,0.48,0.58,0.5,0.48,0.29,0.25,0.55,0.61,0.25,0.25,0.55,0.61,0.5,0.58,0.56,0.48,0.25,0.55,0.83,0.25,0.25,0.55,0.76,0.4,0.6,0.55,0.48,0.29,0.25,0.55,0.76,0.25,0.55,0.83,0.48,0.33,0.48,0.4,0.55,0.56,0.48,0.58,0.48,0.55,0.6,0.42,0.55,0.61,0.55,0.44,0.5,0.29,0.55,0.79,0.4,0.61,0.48,0.4,0.55,0.29,0.58" style="fill:rgb(0,0,0);font-family:URWPalladioL-Roma;font-size:8.97px;stroke:none;">19. Lehmkühler, F.; Schulz, F.; Schroer, M.A.; Frenzel, L.; Lange, H.; Grübel, G. Heterogeneous Local Order in</text>
   <text y="214.053" x="98.05,102.663,106.872,109.429,112.355,115.281,122.118,125.844,129.569,133.778,141.537,146.396,148.954,153.163,158.6347,160.438,167.74,172.134,177.248,182.046,187.327,191.72,195.191,198.056,200.613,204.514,207.071,211.3766,213.196,218.081,220.638,223.196,230.955,234.72240000000002,236.587,242.457,246.666,251.631,255.84,260.233,262.79,266.999,272.4707,274.275,279.134,284.1572,285.935,291.796,294.722,298.184,302.578,307.60119999999995,309.379,315.609,318.913,323.711,327.437,331.162,334.088,340.318,345.116,348.587,351.9,356.109,358.666,363.059,365.924,368.481,373.279,378.393,382.118" svgx:width="0.52,0.48,0.29,0.33,0.33,0.78,0.42,0.42,0.48,0.88,0.55,0.29,0.48,0.61,0.55,0.83,0.5,0.58,0.55,0.6,0.5,0.4,0.33,0.29,0.44,0.29,0.48,0.55,0.56,0.29,0.29,0.88,0.42,0.55,0.67,0.48,0.56,0.48,0.5,0.29,0.48,0.61,0.55,0.55,0.56,0.55,0.67,0.33,0.4,0.5,0.56,0.55,0.71,0.4,0.55,0.42,0.42,0.33,0.71,0.55,0.4,0.4,0.48,0.29,0.5,0.33,0.29,0.55,0.58,0.42,0.25" style="fill:rgb(0,0,0);font-family:URWPalladioL-Roma;font-size:8.97px;stroke:none;">Self-Assembled Nanoparticle Films Revealed by X-ray Cross-Correlations.</text>
   <text y="214.053" x="387.343,390.269,397.105,402.966,406.385" svgx:width="0.33,0.78,0.67,0.39,0.33" style="fill:rgb(0,0,0);font-family:URWPalladioL-Ital;font-size:8.97px;stroke:none;">IUCrJ</text>
   <text y="214.053" x="411.444,415.927,420.41,424.894" svgx:width="0.5,0.5,0.5,0.5" style="fill:rgb(0,0,0);font-family:URWPalladioL-Bold;font-size:8.97px;stroke:none;">2018</text>
   <text y="214.053" x="429.376" svgx:width="0.25" style="fill:rgb(0,0,0);font-family:URWPalladioL-Roma;font-size:8.97px;stroke:none;">,</text>
   <text y="214.053" x="433.549" svgx:width="0.5" style="fill:rgb(0,0,0);font-family:URWPalladioL-Ital;font-size:8.97px;stroke:none;">5</text>
   <text y="214.053" x="437.943,440.1855,442.117,446.51,450.904,455.297,459.691,464.084,468.478,472.872,475.1145,478.091" svgx:width="0.25,0.55,0.5,0.5,0.5,0.5,0.5,0.5,0.5,0.25,0.55,0.33" style="fill:rgb(0,0,0);font-family:URWPalladioL-Roma;font-size:8.97px;stroke:none;">, 354–360. [</text>
   <text y="214.053" x="481.017,487.247,490.56,495.358,499.083,502.809,508.679,512.888" svgx:width="0.71,0.4,0.55,0.42,0.42,0.67,0.48,0.33" style="fill:rgb(8,117,183);font-family:URWPalladioL-Roma;font-size:8.97px;stroke:none;">CrossRef</text>
   <text y="214.053" x="515.814" svgx:width="0.33" style="fill:rgb(0,0,0);font-family:URWPalladioL-Roma;font-size:8.97px;stroke:none;">]</text>
   <text y="226.964" x="98.05" svgx:width="0.33" style="fill:rgb(0,0,0);font-family:URWPalladioL-Roma;font-size:8.97px;stroke:none;">[</text>
   <text y="226.964" x="101.036,106.452,111.858,116.817,125.299,129.594" svgx:width="0.6,0.6,0.55,0.95,0.48,0.61" style="fill:rgb(8,117,183);font-family:URWPalladioL-Roma;font-size:8.97px;stroke:none;">PubMed</text>
   <text y="226.964" x="135.072" svgx:width="0.33" style="fill:rgb(0,0,0);font-family:URWPalladioL-Roma;font-size:8.97px;stroke:none;">]</text>
   <text y="239.876" x="76.535,81.018,85.501,87.74350000000001,98.05,104.879,109.1846,111.355,114.293,118.519,123.839,126.0815,128.295,136.297,138.503,145.844,148.05,150.29250000000002,152.505,159.44,163.181,166.057,169.383,174.201,179.186,182.927,187.832,190.4,192.967,195.20950000000002,197.423,202.814,205.019,207.993,210.198,212.44050000000001,214.663,219.295,224.43,228.841,231.409,235.82,240.726,243.293,248.428,253.245,257.233,259.4755,261.689,268.553,270.759,278.091,280.3335,282.546,287.179,290.055,293.469,298.789,302.707,305.583,310.903,314.23,318.53560000000004,320.706,325.117,330.252,335.7237,337.893,342.798,345.366,350.686,354.603,357.48,362.8,367.211,370.088,372.655,377.472,382.607,386.37440000000004,388.598,393.415,396.37510000000003,398.603,403.235,411.026,415.252,419.17,422.046,424.613,428.5598,430.781,439.127,443.353,451.144,456.023,459.508,463.92,469.055,473.281,477.022" svgx:width="0.5,0.5,0.25,0.55,0.77,0.48,0.55,0.33,0.48,0.6,0.25,0.55,1.0,0.25,0.83,0.25,0.25,0.55,0.79,0.42,0.33,0.4,0.55,0.56,0.42,0.56,0.29,0.29,0.25,0.55,0.61,0.25,0.34,0.25,0.25,0.55,0.52,0.58,0.5,0.29,0.5,0.56,0.29,0.58,0.55,0.56,0.25,0.55,0.78,0.25,0.83,0.25,0.55,0.52,0.33,0.4,0.6,0.44,0.33,0.6,0.4,0.48,0.55,0.5,0.58,0.61,0.55,0.56,0.29,0.6,0.44,0.33,0.6,0.5,0.33,0.29,0.55,0.58,0.42,0.55,0.55,0.33,0.55,0.52,0.88,0.48,0.44,0.33,0.29,0.44,0.55,0.95,0.48,0.88,0.55,0.4,0.5,0.58,0.48,0.42,0.25" style="fill:rgb(0,0,0);font-family:URWPalladioL-Roma;font-size:8.97px;stroke:none;">20. De Jeu, W.H.; Ostrovskii, B.I.; Shalaginov, A.N. Structure and Fluctuations of Smectic Membranes.</text>
   <text y="239.876" x="482.391,488.276,491.708,495.625,497.8675,500.999,509.327,513.245,517.656" svgx:width="0.67,0.39,0.5,0.25,0.55,0.94,0.44,0.5,0.25" style="fill:rgb(0,0,0);font-family:URWPalladioL-Ital;font-size:8.97px;stroke:none;">Rev. Mod.</text>
   <text y="252.788" x="97.773,103.251,107.735,112.218,115.706" svgx:width="0.61,0.5,0.5,0.39,0.25" style="fill:rgb(0,0,0);font-family:URWPalladioL-Ital;font-size:8.97px;stroke:none;">Phys.</text>
   <text y="252.788" x="121.085,125.568,130.051,134.535" svgx:width="0.5,0.5,0.5,0.5" style="fill:rgb(0,0,0);font-family:URWPalladioL-Bold;font-size:8.97px;stroke:none;">2003</text>
   <text y="252.788" x="139.018" svgx:width="0.25" style="fill:rgb(0,0,0);font-family:URWPalladioL-Roma;font-size:8.97px;stroke:none;">,</text>
   <text y="252.788" x="143.501,147.984" svgx:width="0.5,0.5" style="fill:rgb(0,0,0);font-family:URWPalladioL-Ital;font-size:8.97px;stroke:none;">75</text>
   <text y="252.788" x="152.467,154.70950000000002,156.95,161.433,165.917,170.4,174.883,179.366,183.849,188.333,190.5755,193.712" svgx:width="0.25,0.55,0.5,0.5,0.5,0.5,0.5,0.5,0.5,0.25,0.55,0.33" style="fill:rgb(0,0,0);font-family:URWPalladioL-Roma;font-size:8.97px;stroke:none;">, 181–235. [</text>
   <text y="252.788" x="196.698,203.055,206.436,211.331,215.133,218.935,224.925,229.219" svgx:width="0.71,0.4,0.55,0.42,0.42,0.67,0.48,0.33" style="fill:rgb(8,117,183);font-family:URWPalladioL-Roma;font-size:8.97px;stroke:none;">CrossRef</text>
   <text y="252.788" x="232.205" svgx:width="0.33" style="fill:rgb(0,0,0);font-family:URWPalladioL-Roma;font-size:8.97px;stroke:none;">]</text>
   <text y="265.699" x="76.535,81.018,85.501,87.74350000000001,98.05,102.687,105.566,109.982,115.122,117.692,121.923,125.835,128.0775,130.278,137.626,139.834,145.23" svgx:width="0.5,0.5,0.25,0.55,0.52,0.33,0.5,0.58,0.29,0.48,0.56,0.25,0.55,0.83,0.25,0.61,0.25" style="fill:rgb(0,0,0);font-family:URWPalladioL-Roma;font-size:8.97px;stroke:none;">21. Stanley, H.E.</text>
   <text y="265.699" x="149.672,152.613,157.524,160.465,163.741,167.663,172.079,176.989,180.584,183.525,185.98,189.901,194.9242,197.038,199.979,203.9258,206.134,211.531,215.947,219.868,223.304,226.8023,228.974,233.372,236.808,240.729,245.639,249.075,251.53,254.471,256.927,260.848,265.759,269.2573,271.429,275.35,280.261,284.74600000000004,286.911,292.802,296.237,298.693,301.634,304.089,307.684,311.605,314.1166,316.295,321.691,326.107,329.543,334.453,338.374,345.237,348.672,353.583" svgx:width="0.33,0.56,0.33,0.39,0.44,0.5,0.56,0.41,0.33,0.28,0.44,0.56,0.55,0.33,0.44,0.55,0.61,0.5,0.44,0.39,0.39,0.55,0.61,0.39,0.44,0.56,0.39,0.28,0.33,0.28,0.44,0.56,0.39,0.55,0.44,0.56,0.5,0.55,0.67,0.39,0.28,0.33,0.28,0.41,0.44,0.28,0.55,0.61,0.5,0.39,0.56,0.44,0.78,0.39,0.56,0.44" style="fill:rgb(0,0,0);font-family:URWPalladioL-Ital;font-size:8.97px;stroke:none;">Introduction to Phase Transitions and Critical Phenomena</text>
   <text y="265.699" x="357.508,359.7505,361.95,368.892,373.45,376.391,381.213,384.542,390.0137,392.173,399.044,404.185,406.755,411.745,415.975,419.464,423.208,425.779,428.658,433.6812,435.794,441.128,444.458,448.689,452.433,456.178,458.4205,461.521,468.861,473.091,482.691,487.752,492.574,496.063,500.973,503.2155,505.416,512.755,517.657" svgx:width="0.25,0.55,0.79,0.52,0.33,0.55,0.4,0.61,0.55,0.78,0.58,0.29,0.56,0.48,0.4,0.42,0.29,0.33,0.56,0.55,0.6,0.4,0.48,0.42,0.42,0.25,0.55,0.83,0.48,0.83,0.67,0.55,0.4,0.56,0.25,0.55,0.83,0.67,0.25" style="fill:rgb(0,0,0);font-family:URWPalladioL-Roma;font-size:8.97px;stroke:none;">; Oxford University Press: NewYork, NY,</text>
   <text y="278.611" x="98.05,105.026,109.733,116.709,118.95150000000001,121.192,125.675,130.159,134.642,139.125" svgx:width="0.78,0.52,0.78,0.25,0.55,0.5,0.5,0.5,0.5,0.25" style="fill:rgb(0,0,0);font-family:URWPalladioL-Roma;font-size:8.97px;stroke:none;">USA, 1987.</text>
   <text y="291.522" x="76.535,81.018,85.501,87.74350000000001,98.054,104.564,107.173,111.468,119.385,123.869,129.087,131.3295,133.57,142.052,144.294,146.53650000000002,148.777,154.256,158.739,163.805,167.185,171.48,176.69,179.613,184.508,189.574,192.184,196.165,201.383,203.62550000000002,205.866,212.914,215.156,222.096" svgx:width="0.5,0.5,0.25,0.55,0.73,0.29,0.48,0.88,0.5,0.58,0.25,0.55,0.95,0.25,0.25,0.55,0.61,0.5,0.56,0.4,0.48,0.58,0.33,0.55,0.56,0.29,0.44,0.58,0.25,0.55,0.79,0.25,0.77,0.25" style="fill:rgb(0,0,0);font-family:URWPalladioL-Roma;font-size:8.97px;stroke:none;">22. Kleman, M.; Lavrentovich, O.D.</text>
   <text y="291.522" x="226.582,231.567,235.548,238.041,241.0011,243.268,251.733,255.714,258.7,261.685,265.173,268.6713,270.903,276.381,280.865,285.348,288.836,291.328,294.978,298.466,300.7085,303.845,310.319,315.3422,317.546,320.532,325.517,328.503,331.83,335.811,340.294,345.279,348.928,351.914,354.407,358.388" svgx:width="0.56,0.44,0.28,0.33,0.55,0.94,0.44,0.33,0.33,0.39,0.39,0.55,0.61,0.5,0.5,0.39,0.28,0.41,0.39,0.25,0.55,0.72,0.56,0.55,0.33,0.56,0.33,0.39,0.44,0.5,0.56,0.41,0.33,0.28,0.44,0.56" style="fill:rgb(0,0,0);font-family:URWPalladioL-Ital;font-size:8.97px;stroke:none;">Soft Matter Physics: An Introduction</text>
   <text y="291.522" x="363.372,365.6145,367.855,372.563,377.951,381.493,384.102,389.321,394.306,398.601,402.143,404.3855,407.523,414.974,419.269,426.71410000000003,428.988,434.144,439.039,442.581,447.566,449.8085,452.05,459.501,464.486,466.7285,468.969,475.945,480.653,487.628,489.8705,492.112,496.595,501.078,505.561,510.044" svgx:width="0.25,0.55,0.52,0.6,0.4,0.29,0.58,0.56,0.48,0.4,0.25,0.55,0.83,0.48,0.83,0.55,0.67,0.55,0.4,0.56,0.25,0.55,0.83,0.67,0.25,0.55,0.78,0.52,0.78,0.25,0.55,0.5,0.5,0.5,0.5,0.25" style="fill:rgb(0,0,0);font-family:URWPalladioL-Roma;font-size:8.97px;stroke:none;">; Springer: New York, NY, USA, 2003.</text>
   <text y="304.434" x="76.535,81.018,85.501,87.74350000000001,98.054,103.533,108.016,113.234,118.713,123.196,128.603,130.84550000000002,133.086,138.565,140.806,147.746,149.988,152.2305,154.471,159.949,162.559,165.544,169.346,173.327,178.546,181.155,184.069,188.552,190.7945,193.035,198.514,200.755,209.238" svgx:width="0.5,0.5,0.25,0.55,0.61,0.5,0.58,0.61,0.5,0.6,0.25,0.55,0.61,0.25,0.77,0.25,0.25,0.55,0.61,0.29,0.33,0.42,0.44,0.58,0.29,0.33,0.5,0.25,0.55,0.61,0.25,0.95,0.25" style="fill:rgb(0,0,0);font-family:URWPalladioL-Roma;font-size:8.97px;stroke:none;">23. Landau, L.D.; Lifschitz, E.M.</text>
   <text y="304.434" x="213.725,218.71,221.696,225.677,228.663,231.156,234.644,237.629,240.122,243.771,247.752,250.2636,252.487,257.965,262.448,266.932,270.42,272.912,276.562" svgx:width="0.56,0.33,0.44,0.33,0.28,0.39,0.33,0.28,0.41,0.44,0.28,0.55,0.61,0.5,0.5,0.39,0.28,0.41,0.39" style="fill:rgb(0,0,0);font-family:URWPalladioL-Ital;font-size:8.97px;stroke:none;">Statistical Physics</text>
   <text y="304.434" x="280.048,282.2905,284.531,289.947,294.242,297.622,302.607,307.091,315.008,319.904,325.122,327.3645,330.502,337.953,342.248,349.6931,351.967,357.123,362.019,365.561,370.546,372.7885,375.029,382.48,387.465,389.7075,391.949,398.925,403.632,410.608,412.8505,415.091,419.574,424.057,428.541,433.024" svgx:width="0.25,0.55,0.6,0.48,0.4,0.56,0.5,0.88,0.55,0.58,0.25,0.55,0.83,0.48,0.83,0.55,0.67,0.55,0.4,0.56,0.25,0.55,0.83,0.67,0.25,0.55,0.78,0.52,0.78,0.25,0.55,0.5,0.5,0.5,0.5,0.25" style="fill:rgb(0,0,0);font-family:URWPalladioL-Roma;font-size:8.97px;stroke:none;">; Pergamon: New York, NY, USA, 1980.</text>
   <text y="317.346" x="76.535,81.018,85.501,87.74350000000001,98.05,103.135,106.583,110.964,116.287,121.372,125.752,128.414,130.6565,132.978,140.056" svgx:width="0.5,0.5,0.25,0.55,0.56,0.4,0.48,0.58,0.56,0.48,0.29,0.25,0.55,0.77,0.25" style="fill:rgb(0,0,0);font-family:URWPalladioL-Roma;font-size:8.97px;stroke:none;">24. Frenkel, D.</text>
   <text y="317.346" x="144.614,149.699,152.242,156.476,161.561,164.104,168.676,172.234,174.47650000000002,176.798,181.883,185.285,188.843,192.4,196.461,199.004,204.08,208.56500000000003,210.93,214.99,220.075,224.56,226.916,233.52,236.062,240.123,243.681,247.1793,249.515,254.107,257.664,261.725,266.81,270.368,272.91,275.956,278.498,282.559" svgx:width="0.56,0.28,0.46,0.56,0.28,0.5,0.39,0.25,0.55,0.56,0.39,0.39,0.39,0.44,0.28,0.56,0.5,0.55,0.44,0.56,0.5,0.55,0.72,0.28,0.44,0.39,0.39,0.55,0.61,0.39,0.44,0.56,0.39,0.28,0.33,0.28,0.44,0.56" style="fill:rgb(0,0,0);font-family:URWPalladioL-Ital;font-size:8.97px;stroke:none;">Liquids, Freezing and Glass Transition</text>
   <text y="317.346" x="287.643,289.8855,292.216,299.825,304.398,309.721,313.599,317.979,323.302,325.5445,327.866,330.911,333.198,336.243,340.606,342.892,345.1345,347.456,353.044,357.425,362.592,366.973,370.851,375.972,381.487,385.868,388.1105,390.432,397.511,399.797,402.03950000000003,404.361,410.461,413.122,418.445,423.768,426.814,429.859,435.374,439.252,442.233,444.895,450.217,452.4595,454.781,457.827,460.113,462.3555,464.677,470.265,475.853,479.731,482.017,484.2595,486.59,492.178,494.84,498.717,503.098,508.265,510.927,515.308" svgx:width="0.25,0.55,0.83,0.5,0.58,0.42,0.48,0.58,0.25,0.55,0.33,0.25,0.33,0.6,0.25,0.25,0.55,0.61,0.48,0.56,0.48,0.42,0.56,0.6,0.48,0.25,0.55,0.77,0.25,0.25,0.55,0.67,0.29,0.58,0.58,0.33,0.33,0.6,0.42,0.33,0.29,0.58,0.25,0.55,0.33,0.25,0.25,0.55,0.61,0.61,0.42,0.25,0.25,0.55,0.61,0.29,0.42,0.48,0.56,0.29,0.48,0.4" style="fill:rgb(0,0,0);font-family:URWPalladioL-Roma;font-size:8.97px;stroke:none;">; Hansen, J.-P., Levesque, D., Zinn-Justin, J., Eds.; Elsevier</text>
   <text y="330.257" x="98.05,102.757,106.738,109.348,113.643,118.861,122.842,127.1476,129.379,134.794,140.201,145.159,147.769,150.378,154.18,159.398,163.693,167.235,171.00240000000002,173.278,178.757,180.998,186.315,188.557,190.7995,193.937,200.913,208.83,212.632,215.555,219.85,223.23,228.708,233.192,241.109,243.35150000000002,245.592,251.089,256.307,260.61260000000004,262.844,270.295,274.589,279.655,283.95,287.492,290.101,294.585,299.803,305.281,309.083,311.32550000000003,313.566,318.05,322.533,327.016,331.499,333.74150000000003,335.982,341.371,346.76,349.0025,351.243,355.727,360.21,364.693,369.176,373.659,378.143,382.626" svgx:width="0.52,0.44,0.29,0.48,0.58,0.44,0.48,0.55,0.6,0.6,0.55,0.29,0.29,0.42,0.58,0.48,0.4,0.42,0.55,0.61,0.25,0.72,0.25,0.25,0.55,0.78,0.88,0.42,0.33,0.48,0.4,0.61,0.5,0.88,0.25,0.55,0.61,0.58,0.48,0.55,0.83,0.48,0.56,0.48,0.4,0.29,0.5,0.58,0.61,0.42,0.25,0.55,0.5,0.5,0.5,0.5,0.25,0.55,0.6,0.6,0.25,0.55,0.5,0.5,0.5,0.5,0.5,0.5,0.5,0.25" style="fill:rgb(0,0,0);font-family:URWPalladioL-Roma;font-size:8.97px;stroke:none;">Science Publishers B.V.: Amsterdam, The Neverlands, 1991; pp. 691–762.</text>
   <text y="343.169" x="76.535,81.018,85.501,87.74350000000001,98.05,105.129,109.4346,112.025,119.003,123.384,128.706,134.02,138.401,142.279,144.5215,147.08,151.452,153.738,160.717,163.003,165.2455,167.933,173.457,176.904,181.898,185.776,188.757,190.9995,193.559,196.604" svgx:width="0.5,0.5,0.25,0.55,0.77,0.48,0.55,0.76,0.48,0.58,0.58,0.48,0.42,0.25,0.55,0.6,0.25,0.76,0.25,0.25,0.55,0.6,0.4,0.55,0.42,0.33,0.25,0.55,0.33,0.25" style="fill:rgb(0,0,0);font-family:URWPalladioL-Roma;font-size:8.97px;stroke:none;">25. De Gennes, P.G.; Prost, J.</text>
   <text y="343.169" x="201.397,206.985,211.558,215.0563,217.622,223.21,227.782,232.355,235.913,238.456,242.178,245.6763,248.251,252.311,254.8226,257.36,262.445,264.987,269.222,274.307,276.849,281.334,283.937,290.037,293.595,298.168,301.726,304.771,308.832,311.374" svgx:width="0.61,0.5,0.39,0.55,0.61,0.5,0.5,0.39,0.28,0.41,0.39,0.55,0.44,0.28,0.55,0.56,0.28,0.46,0.56,0.28,0.5,0.55,0.67,0.39,0.5,0.39,0.33,0.44,0.28,0.39" style="fill:rgb(0,0,0);font-family:URWPalladioL-Ital;font-size:8.97px;stroke:none;">The Physics of Liquid Crystals</text>
   <text y="343.169" x="314.93,317.1725,319.796,324.368,329.691,335.1627,337.785,342.166,347.754,350.04,352.2825,354.979,362.168,366.887,369.932,374.926,378.374,383.8457,386.468,393.583,398.906,401.568,406.735,411.116,414.728,418.606,421.267,424.249,429.2722,431.849,437.373,440.821,445.202,449.079,452.957,455.1995,458.92,466.52,470.901,478.34610000000004,481.044,486.312,491.305,494.918,500.003,502.2455,504.868,512.469,517.572" svgx:width="0.25,0.55,0.5,0.58,0.61,0.55,0.48,0.61,0.25,0.25,0.55,0.79,0.52,0.33,0.55,0.4,0.61,0.55,0.78,0.58,0.29,0.56,0.48,0.4,0.42,0.29,0.33,0.56,0.55,0.6,0.4,0.48,0.42,0.42,0.25,0.55,0.83,0.48,0.83,0.55,0.67,0.55,0.4,0.56,0.25,0.55,0.83,0.67,0.25" style="fill:rgb(0,0,0);font-family:URWPalladioL-Roma;font-size:8.97px;stroke:none;">, 2nd ed.; Oxford University Press: New York, NY,</text>
   <text y="356.08" x="98.05,105.026,109.733,116.709,118.95150000000001,121.192,125.675,130.159,134.642,139.125" svgx:width="0.78,0.52,0.78,0.25,0.55,0.5,0.5,0.5,0.5,0.25" style="fill:rgb(0,0,0);font-family:URWPalladioL-Roma;font-size:8.97px;stroke:none;">USA, 1993.</text>
   <text y="368.992" x="76.535,81.018,85.501,87.74350000000001,98.05,105.239,109.116,116.744,121.317,123.978,129.566,131.8085,134.267,138.63,140.916,143.1585,145.699,151.223,153.885,158.265,161.878,166.451,171.774,175.652,180.737,183.398,185.6405,188.09,192.461" svgx:width="0.5,0.5,0.25,0.55,0.79,0.42,0.83,0.5,0.29,0.61,0.25,0.55,0.6,0.25,0.25,0.55,0.6,0.29,0.48,0.4,0.5,0.58,0.42,0.56,0.29,0.25,0.55,0.6,0.25" style="fill:rgb(0,0,0);font-family:URWPalladioL-Roma;font-size:8.97px;stroke:none;">26. Oswald, P.; Pieranski, P.</text>
   <text y="368.992" x="197.156,202.241,209.356,212.914,216.636,219.682,222.224,225.90169999999998,228.352,232.413,237.498,241.983,244.485,250.585,254.646,257.189,262.274,269.389,274.474,278.535,282.03330000000005,284.498,289.583,292.125,296.36,301.445,303.987,308.47200000000004,310.975,317.075,320.632,325.205,328.763,331.809,335.869,338.412" svgx:width="0.56,0.78,0.39,0.41,0.33,0.28,0.41,0.55,0.44,0.56,0.5,0.55,0.67,0.44,0.28,0.56,0.78,0.56,0.44,0.39,0.55,0.56,0.28,0.46,0.56,0.28,0.5,0.55,0.67,0.39,0.5,0.39,0.33,0.44,0.28,0.39" style="fill:rgb(0,0,0);font-family:URWPalladioL-Ital;font-size:8.97px;stroke:none;">Smectic and Columnar Liquid Crystals</text>
   <text y="368.992" x="341.968,344.2105,346.751,351.534,356.107,361.192,363.854,368.847,372.435,374.865,379.438,384.761,390.2327,392.763,397.848,401.461,406.034,411.357,415.417,418.079,421.8464,424.362,431.34,434.788,439.782,445.296,450.793,453.0355,456.555,462.143,467.136,471.197,475.682,478.184,484.294,488.867,491.848,496.842,502.165,504.4075,506.902,511.987,517.575" svgx:width="0.25,0.55,0.61,0.5,0.56,0.29,0.55,0.4,0.55,0.5,0.58,0.61,0.55,0.56,0.4,0.5,0.58,0.44,0.29,0.42,0.55,0.76,0.4,0.55,0.6,0.6,0.25,0.55,0.61,0.55,0.44,0.5,0.55,0.67,0.5,0.33,0.55,0.58,0.25,0.55,0.56,0.61,0.25" style="fill:rgb(0,0,0);font-family:URWPalladioL-Roma;font-size:8.97px;stroke:none;">; Taylor and Francis Group: Boca Raton, FL,</text>
   <text y="381.904" x="98.05,105.026,109.733,116.709,118.95150000000001,121.192,125.675,130.159,134.642,139.125" svgx:width="0.78,0.52,0.78,0.25,0.55,0.5,0.5,0.5,0.5,0.25" style="fill:rgb(0,0,0);font-family:URWPalladioL-Roma;font-size:8.97px;stroke:none;">USA, 2006.</text>
   <text y="394.815" x="76.535,81.018,85.501,87.74350000000001,98.05,105.659,110.232,112.894,118.39,122.771,126.383,129.045,134.368,136.6105,139.974,145.562,147.849,150.931,153.217,155.45950000000002,159.372,166.972,171.353,174.014,177.892,182.886,188.209,190.4515,193.815,200.894,203.18,209.29,211.5325,214.905,220.511,225.834,230.215,235.209,238.821,243.8442,247.226,252.22,255.1801,258.585,263.387,271.014,276.008,279.053,286.132,288.793,296.869,301.25,306.573,310.45,313.112,318.105,323.428,328.001,330.60229999999996,333.982,342.634,347.015,349.676,352.658,355.319,360.642,365.727" svgx:width="0.5,0.5,0.25,0.55,0.83,0.5,0.29,0.6,0.48,0.4,0.29,0.58,0.25,0.55,0.61,0.25,0.34,0.25,0.25,0.55,0.83,0.48,0.29,0.42,0.55,0.58,0.25,0.55,0.77,0.25,0.67,0.25,0.55,0.61,0.58,0.48,0.55,0.4,0.56,0.55,0.55,0.33,0.55,0.61,0.83,0.55,0.33,0.77,0.29,0.88,0.48,0.58,0.42,0.29,0.55,0.58,0.5,0.29,0.55,0.95,0.48,0.29,0.33,0.29,0.58,0.56,0.25" style="fill:rgb(0,0,0);font-family:URWPalladioL-Roma;font-size:8.97px;stroke:none;">27. Halperin, B.I.; Nelson, D.R. Theory of Two-Dimensional Melting.</text>
   <text y="394.815" x="374.401,379.989,384.562,389.135,392.692,394.9345,401.363,407.463,411.021,415.1,417.34250000000003,423.77,428.855,432.412,435.458,438.503" svgx:width="0.61,0.5,0.5,0.39,0.25,0.55,0.67,0.39,0.5,0.25,0.55,0.56,0.39,0.33,0.33,0.25" style="fill:rgb(0,0,0);font-family:URWPalladioL-Ital;font-size:8.97px;stroke:none;">Phys. Rev. Lett.</text>
   <text y="394.815" x="447.174,451.657,456.14,460.624" svgx:width="0.5,0.5,0.5,0.5" style="fill:rgb(0,0,0);font-family:URWPalladioL-Bold;font-size:8.97px;stroke:none;">1978</text>
   <text y="394.815" x="465.107" svgx:width="0.25" style="fill:rgb(0,0,0);font-family:URWPalladioL-Roma;font-size:8.97px;stroke:none;">,</text>
   <text y="394.815" x="470.987,475.56" svgx:width="0.5,0.5" style="fill:rgb(0,0,0);font-family:URWPalladioL-Ital;font-size:8.97px;stroke:none;">41</text>
   <text y="394.815" x="480.133,482.3755,486.014,490.587,495.159,499.732,504.305,508.878,513.451,518.024" svgx:width="0.25,0.55,0.5,0.5,0.5,0.5,0.5,0.5,0.5,0.25" style="fill:rgb(0,0,0);font-family:URWPalladioL-Roma;font-size:8.97px;stroke:none;">, 121–124.</text>
   <text y="407.727" x="98.05" svgx:width="0.33" style="fill:rgb(0,0,0);font-family:URWPalladioL-Roma;font-size:8.97px;stroke:none;">[</text>
   <text y="407.727" x="101.036,107.393,110.773,115.669,119.471,123.272,129.262,133.557" svgx:width="0.71,0.4,0.55,0.42,0.42,0.67,0.48,0.33" style="fill:rgb(8,117,183);font-family:URWPalladioL-Roma;font-size:8.97px;stroke:none;">CrossRef</text>
   <text y="407.727" x="136.543" svgx:width="0.33" style="fill:rgb(0,0,0);font-family:URWPalladioL-Roma;font-size:8.97px;stroke:none;">]</text>
   <text y="420.638" x="76.535,81.018,85.501,87.74350000000001,97.938,105.071,109.089,111.443,114.974,119.585,124.514,126.7565,128.673,135.302,137.293,142.984" svgx:width="0.5,0.5,0.25,0.55,0.83,0.48,0.29,0.42,0.55,0.58,0.25,0.55,0.77,0.25,0.67,0.25" style="fill:rgb(0,0,0);font-family:URWPalladioL-Roma;font-size:8.97px;stroke:none;">28. Nelson, D.R.</text>
   <text y="420.638" x="147.173,153.837,157.058,159.297,162.519,165.899,168.625,172.1233,174.014,177.723,182.422,186.907,188.803,194.971,198.192,201.9,208.564,211.786,214.511,217.733,222.21800000000002,224.104,226.343,231.3662,233.22,238.901,242.609,247.309,251.512,254.734,259.433,262.654,265.867,270.35200000000003,272.248,280.381,284.089,286.814,289.54,292.761,296.25930000000005,298.151,303.337,307.541,311.744,314.966,317.205,320.585" svgx:width="0.78,0.39,0.28,0.39,0.41,0.33,0.39,0.55,0.44,0.56,0.5,0.55,0.72,0.39,0.44,0.78,0.39,0.33,0.39,0.5,0.55,0.28,0.56,0.55,0.67,0.44,0.56,0.5,0.39,0.56,0.39,0.39,0.5,0.55,0.94,0.44,0.33,0.33,0.39,0.39,0.55,0.61,0.5,0.5,0.39,0.28,0.41,0.39" style="fill:rgb(0,0,0);font-family:URWPalladioL-Ital;font-size:8.97px;stroke:none;">Defects and Geometry in Condensed Matter Physics</text>
   <text y="420.638" x="323.809,326.05150000000003,327.977,334.031,338.234,345.827,350.5,353.775,356.129,361.315,366.014,370.31960000000004,372.2,378.864,383.793,386.147,390.926,394.944,398.218,401.749,404.103,406.767,411.79019999999997,413.644,418.768,421.874,425.892,429.423,432.954,435.1965,438.025,444.078,448.282,455.875,460.548,463.822,466.176,471.362,476.061,480.079,482.3215,484.247,490.911,497.115,499.3575,501.275,505.478,509.682,513.886,518.089" svgx:width="0.25,0.55,0.71,0.5,0.88,0.55,0.4,0.29,0.61,0.56,0.48,0.55,0.78,0.58,0.29,0.56,0.48,0.4,0.42,0.29,0.33,0.56,0.55,0.6,0.4,0.48,0.42,0.42,0.25,0.55,0.71,0.5,0.88,0.55,0.4,0.29,0.61,0.56,0.48,0.25,0.55,0.78,0.73,0.25,0.55,0.5,0.5,0.5,0.5,0.25" style="fill:rgb(0,0,0);font-family:URWPalladioL-Roma;font-size:8.97px;stroke:none;">; Cambridge University Press: Cambridge, UK, 2002.</text>
   <text y="433.55" x="76.535,81.018,85.501,87.74350000000001,98.05,104.69,109.683,113.561,116.543,120.923,124.536,127.197,129.859,132.84,137.413,139.65550000000002,142.315,145.361,147.647,156.299,158.5415,161.201,167.841,172.835,176.712,179.694,184.075,187.687,190.349,193.01,195.992,200.564,205.137,210.735,216.057,221.051,226.566,229.227,233.608,237.486,241.2534,243.979,249.503,254.826,259.911,263.789,266.45,270.511,274.389,276.6315,280.562,287.5586,290.293,296.403,300.783,305.951,308.612,312.993,320.4381,323.227,328.221,331.1811,333.882,340.522,344.902,349.92519999999996,352.603,355.685,359.563,363.441,368.956,373.336,377.214" svgx:width="0.5,0.5,0.25,0.55,0.73,0.55,0.42,0.33,0.48,0.4,0.29,0.29,0.33,0.5,0.25,0.55,0.33,0.25,0.95,0.25,0.55,0.73,0.55,0.42,0.33,0.48,0.4,0.29,0.29,0.33,0.5,0.5,0.61,0.58,0.55,0.6,0.29,0.48,0.42,0.42,0.55,0.6,0.58,0.56,0.42,0.29,0.44,0.42,0.25,0.55,0.78,0.55,0.67,0.48,0.56,0.29,0.48,0.83,0.55,0.55,0.33,0.55,0.73,0.48,0.56,0.55,0.34,0.42,0.42,0.6,0.48,0.42,0.25" style="fill:rgb(0,0,0);font-family:URWPalladioL-Roma;font-size:8.97px;stroke:none;">29. Kosterlitz, J.M. Kosterlitz–Thouless Physics: A Review of Key Issues.</text>
   <text y="433.55" x="383.755,389.855,393.413,397.986,400.2285,404.525,410.113,413.515,417.576,422.149,424.3915,428.688,434.276,438.849,443.422,446.979" svgx:width="0.67,0.39,0.5,0.25,0.55,0.61,0.39,0.44,0.5,0.25,0.55,0.61,0.5,0.5,0.39,0.25" style="fill:rgb(0,0,0);font-family:URWPalladioL-Ital;font-size:8.97px;stroke:none;">Rep. Prog. Phys.</text>
   <text y="433.55" x="453.52,458.003,462.486,466.97" svgx:width="0.5,0.5,0.5,0.5" style="fill:rgb(0,0,0);font-family:URWPalladioL-Bold;font-size:8.97px;stroke:none;">2016</text>
   <text y="433.55" x="471.453" svgx:width="0.25" style="fill:rgb(0,0,0);font-family:URWPalladioL-Roma;font-size:8.97px;stroke:none;">,</text>
   <text y="433.55" x="476.447,481.02" svgx:width="0.5,0.5" style="fill:rgb(0,0,0);font-family:URWPalladioL-Ital;font-size:8.97px;stroke:none;">79</text>
   <text y="433.55" x="485.592,487.8345,490.586,495.158,499.731,504.304,508.877,513.45,518.023" svgx:width="0.25,0.55,0.5,0.5,0.5,0.5,0.5,0.5,0.25" style="fill:rgb(0,0,0);font-family:URWPalladioL-Roma;font-size:8.97px;stroke:none;">, 026001.</text>
   <text y="446.462" x="98.05" svgx:width="0.33" style="fill:rgb(0,0,0);font-family:URWPalladioL-Roma;font-size:8.97px;stroke:none;">[</text>
   <text y="446.462" x="101.036,107.393,110.773,115.669,119.471,123.272,129.262,133.557" svgx:width="0.71,0.4,0.55,0.42,0.42,0.67,0.48,0.33" style="fill:rgb(8,117,183);font-family:URWPalladioL-Roma;font-size:8.97px;stroke:none;">CrossRef</text>
   <text y="446.462" x="136.543" svgx:width="0.33" style="fill:rgb(0,0,0);font-family:URWPalladioL-Roma;font-size:8.97px;stroke:none;">]</text>
   <text y="459.373" x="76.535,81.018,85.501,87.74350000000001,98.05,102.767,105.696,109.999,112.614,117.842,123.071,127.564,130.951,136.44,139.369,141.6115,143.852,148.12,150.366,153.358,155.604,157.84650000000002,160.087,167.553,171.856,174.471,178.28,183.186,188.414,190.6565,192.898,199.842,202.089,208.09,210.336,212.57850000000002,214.819,220.821,225.726,230.955,234.944,240.173,244.477,247.406,250.334,252.949,255.19150000000002,257.432,265.931,268.1735,270.414,275.904,280.809,286.038,291.528,294.519,301.581,305.13,307.744,312.048,317.277,320.206,324.698,327.627,330.241,335.147,340.375,344.868,347.4693,349.71,356.772,360.159,365.648,369.952,373.54,375.738,378.352,383.5546,385.818,391.308,393.922,398.953,404.371,406.985,412.475,416.24240000000003,418.512,423.004,428.233,433.7047,435.96,442.815,445.429,449.921,453.731,457.54,461.844,465.653" svgx:width="0.5,0.5,0.25,0.55,0.52,0.33,0.48,0.29,0.58,0.58,0.5,0.4,0.61,0.33,0.25,0.55,0.6,0.25,0.33,0.25,0.25,0.55,0.83,0.48,0.29,0.42,0.55,0.58,0.25,0.55,0.77,0.25,0.67,0.25,0.25,0.55,0.67,0.55,0.58,0.44,0.58,0.48,0.33,0.33,0.29,0.25,0.55,0.95,0.25,0.55,0.61,0.55,0.58,0.61,0.33,0.79,0.4,0.29,0.48,0.58,0.33,0.5,0.33,0.29,0.55,0.58,0.5,0.29,0.55,0.79,0.4,0.61,0.48,0.4,0.55,0.29,0.58,0.55,0.61,0.29,0.56,0.6,0.29,0.61,0.42,0.55,0.5,0.58,0.61,0.55,0.76,0.29,0.5,0.42,0.42,0.48,0.42,0.25" style="fill:rgb(0,0,0);font-family:URWPalladioL-Roma;font-size:8.97px;stroke:none;">30. Steinhardt, P.J.; Nelson, D.R.; Ronchetti, M. Bond-Orientational Order in Liquids and Glasses.</text>
   <text y="459.373" x="471.032,476.521,481.014,485.506,489.001,491.2435,494.382,500.375,503.87,507.868,510.1105,513.249" svgx:width="0.61,0.5,0.5,0.39,0.25,0.55,0.67,0.39,0.5,0.25,0.55,0.61" style="fill:rgb(0,0,0);font-family:URWPalladioL-Ital;font-size:8.97px;stroke:none;">Phys. Rev. B</text>
   <text y="472.285" x="97.602,102.085,106.568,111.052" svgx:width="0.5,0.5,0.5,0.5" style="fill:rgb(0,0,0);font-family:URWPalladioL-Bold;font-size:8.97px;stroke:none;">1983</text>
   <text y="472.285" x="115.535" svgx:width="0.25" style="fill:rgb(0,0,0);font-family:URWPalladioL-Roma;font-size:8.97px;stroke:none;">,</text>
   <text y="472.285" x="120.018,124.501" svgx:width="0.5,0.5" style="fill:rgb(0,0,0);font-family:URWPalladioL-Ital;font-size:8.97px;stroke:none;">28</text>
   <text y="472.285" x="128.984,131.22650000000002,133.467,137.95,142.434,146.917,151.4,155.883,160.366,164.85,167.0925,170.229" svgx:width="0.25,0.55,0.5,0.5,0.5,0.5,0.5,0.5,0.5,0.25,0.55,0.33" style="fill:rgb(0,0,0);font-family:URWPalladioL-Roma;font-size:8.97px;stroke:none;">, 784–805. [</text>
   <text y="472.285" x="173.215,179.572,182.953,187.848,191.65,195.452,201.441,205.736" svgx:width="0.71,0.4,0.55,0.42,0.42,0.67,0.48,0.33" style="fill:rgb(8,117,183);font-family:URWPalladioL-Roma;font-size:8.97px;stroke:none;">CrossRef</text>
   <text y="472.285" x="208.722" svgx:width="0.33" style="fill:rgb(0,0,0);font-family:URWPalladioL-Roma;font-size:8.97px;stroke:none;">]</text>
   <text y="485.196" x="76.535,81.018,85.501,87.74350000000001,98.05,106.702,111.275,114.887,117.869,120.53,125.853,128.0955,130.453,137.569,139.855,145.306,147.54850000000002,149.906,157.095,160.707,163.369,167.75,173.072,176.054,180.627,183.608,186.27,191.263,196.586,201.159,203.7603,206.134,213.323,216.771,222.359,226.74,230.328,232.675,237.669,240.62910000000002,243.028,248.616,251.278,256.399,261.914,264.575,270.163,273.9304,276.355,280.928,286.251,291.7227,294.153,301.131,303.792,308.365,312.243,316.121,320.502" svgx:width="0.5,0.5,0.25,0.55,0.95,0.5,0.4,0.33,0.29,0.58,0.25,0.55,0.78,0.25,0.72,0.25,0.55,0.79,0.4,0.29,0.48,0.58,0.33,0.5,0.33,0.29,0.55,0.58,0.5,0.29,0.55,0.79,0.4,0.61,0.48,0.4,0.55,0.55,0.33,0.55,0.61,0.29,0.56,0.6,0.29,0.61,0.42,0.55,0.5,0.58,0.61,0.55,0.76,0.29,0.5,0.42,0.42,0.48,0.42" style="fill:rgb(0,0,0);font-family:URWPalladioL-Roma;font-size:8.97px;stroke:none;">31. Martin, A.V. Orientational Order of Liquids and Glasses</text>
   <text y="485.196" x="326.697,331.27,333.812" svgx:width="0.5,0.28,0.44" style="fill:rgb(0,0,0);font-family:URWPalladioL-Ital;font-size:8.97px;stroke:none;">via</text>
   <text y="485.196" x="340.189,345.274,347.935,353.45,357.511,360.492,366.007,370.58,373.562,376.223,381.217,386.4196,388.853,395.932" svgx:width="0.56,0.29,0.6,0.44,0.33,0.6,0.5,0.33,0.29,0.55,0.58,0.55,0.77,0.29" style="fill:rgb(0,0,0);font-family:URWPalladioL-Roma;font-size:8.97px;stroke:none;">Fluctuation Di</text>
   <text y="485.196" x="398.594" svgx:width="0.61" style="fill:rgb(0,0,0);font-family:Rpxr;font-size:8.97px;stroke:none;">ﬀ</text>
   <text y="485.196" x="404.155,407.768,412.34,416.401,419.383,422.044,427.038,432.36" svgx:width="0.4,0.5,0.44,0.33,0.29,0.55,0.58,0.25" style="fill:rgb(0,0,0);font-family:URWPalladioL-Roma;font-size:8.97px;stroke:none;">raction.</text>
   <text y="485.196" x="438.007,441.053,448.168,454.268,457.826" svgx:width="0.33,0.78,0.67,0.39,0.33" style="fill:rgb(0,0,0);font-family:URWPalladioL-Ital;font-size:8.97px;stroke:none;">IUCrJ</text>
   <text y="485.196" x="463.411,467.894,472.377,476.861" svgx:width="0.5,0.5,0.5,0.5" style="fill:rgb(0,0,0);font-family:URWPalladioL-Bold;font-size:8.97px;stroke:none;">2017</text>
   <text y="485.196" x="481.344" svgx:width="0.25" style="fill:rgb(0,0,0);font-family:URWPalladioL-Roma;font-size:8.97px;stroke:none;">,</text>
   <text y="485.196" x="485.965" svgx:width="0.5" style="fill:rgb(0,0,0);font-family:URWPalladioL-Ital;font-size:8.97px;stroke:none;">4</text>
   <text y="485.196" x="490.538,492.7805,495.157,499.729,504.302,508.875,513.448,518.021" svgx:width="0.25,0.55,0.5,0.5,0.5,0.5,0.5,0.25" style="fill:rgb(0,0,0);font-family:URWPalladioL-Roma;font-size:8.97px;stroke:none;">, 24–36.</text>
   <text y="498.108" x="98.05" svgx:width="0.33" style="fill:rgb(0,0,0);font-family:URWPalladioL-Roma;font-size:8.97px;stroke:none;">[</text>
   <text y="498.108" x="101.036,107.393,110.773,115.669,119.471,123.272,129.262,133.557" svgx:width="0.71,0.4,0.55,0.42,0.42,0.67,0.48,0.33" style="fill:rgb(8,117,183);font-family:URWPalladioL-Roma;font-size:8.97px;stroke:none;">CrossRef</text>
   <text y="498.108" x="136.543,139.50310000000002,141.77" svgx:width="0.33,0.55,0.33" style="fill:rgb(0,0,0);font-family:URWPalladioL-Roma;font-size:8.97px;stroke:none;">] [</text>
   <text y="498.108" x="144.756,150.172,155.578,160.537,169.019,173.314" svgx:width="0.6,0.6,0.55,0.95,0.48,0.61" style="fill:rgb(8,117,183);font-family:URWPalladioL-Roma;font-size:8.97px;stroke:none;">PubMed</text>
   <text y="498.108" x="178.792" svgx:width="0.33" style="fill:rgb(0,0,0);font-family:URWPalladioL-Roma;font-size:8.97px;stroke:none;">]</text>
   <text y="511.02" x="76.535,81.018,85.501,87.74350000000001,97.938,102.372,105.041,108.322,112.534,117.474,122.67,127.352,132.478,135.599,140.308,142.5505,144.485,150.701,152.696,155.428" svgx:width="0.5,0.5,0.25,0.55,0.52,0.33,0.4,0.5,0.58,0.61,0.55,0.6,0.4,0.56,0.25,0.55,0.73,0.25,0.33,0.25" style="fill:rgb(0,0,0);font-family:URWPalladioL-Roma;font-size:8.97px;stroke:none;">32. Strandburg, K.J.</text>
   <text y="511.02" x="159.633,164.83,168.545,173.254,177.466,180.197,186.875,190.103,192.346,195.574,200.283,203.014,206.73,209.461,211.705,215.42,220.129,223.845,226.3566,228.27,234.947,238.175,242.387,245.615,249.1133,251.033,253.277,258.30019999999996,260.167,265.86,269.576,274.284,278.497,281.725,286.433,289.661,292.889,297.374,299.292,307.441,311.157,313.888,316.619,319.847,323.34529999999995,325.257,329.965,334.178,337.405,340.137,343.365,350.042" svgx:width="0.61,0.44,0.56,0.5,0.33,0.78,0.39,0.28,0.39,0.56,0.33,0.44,0.33,0.28,0.44,0.56,0.44,0.28,0.55,0.78,0.39,0.5,0.39,0.39,0.55,0.28,0.56,0.55,0.67,0.44,0.56,0.5,0.39,0.56,0.39,0.39,0.5,0.55,0.94,0.44,0.33,0.33,0.39,0.39,0.55,0.56,0.5,0.39,0.33,0.39,0.78,0.39" style="fill:rgb(0,0,0);font-family:URWPalladioL-Ital;font-size:8.97px;stroke:none;">Bond-Orientational Order in Condensed Matter Systems</text>
   <text y="511.02" x="353.269,355.5115,357.446,361.88,366.987,370.269,372.627,377.567,382.276,386.302,389.423,392.154,397.342,401.368,404.649,407.008,411.22,415.929,418.1715,421.01,428.158,432.184,441.539,446.407,451.028,454.309,459.017,461.2595,463.194,470.342,475.042,477.2845,479.227,485.905,490.339,497.016,499.2585,501.193,505.405,509.617,513.829,518.042" svgx:width="0.25,0.55,0.52,0.6,0.4,0.29,0.58,0.56,0.48,0.4,0.33,0.72,0.48,0.4,0.29,0.5,0.56,0.25,0.55,0.83,0.48,0.83,0.67,0.55,0.4,0.56,0.25,0.55,0.83,0.67,0.25,0.55,0.78,0.52,0.78,0.25,0.55,0.5,0.5,0.5,0.5,0.25" style="fill:rgb(0,0,0);font-family:URWPalladioL-Roma;font-size:8.97px;stroke:none;">; Springer-Verlag: NewYork, NY, USA, 1992.</text>
   <text y="523.931" x="76.535,81.018,85.501,87.74350000000001,98.05,103.395,105.971,111.121,116.528,120.953,125.874,128.1165,130.334,136.246,138.458,140.7005,142.928,151.299,156.132,161.282,165.211,168.096,172.928,178.079,180.32150000000001,182.548,189.398,191.611,197.018,199.23,201.4725,203.699,210.549,214.974,219.974,224.213,228.134,230.3765,232.603,237.249,239.462,245.736,247.949,250.19150000000002,252.409,259.161,263.993,268.825,274.233,279.127,283.056,285.2985,287.516,290.463,292.676,300.702,302.9445,305.172,311.074,314.021,317.508,321.933,326.95619999999997,329.11,336.066,340.96,344.713,348.952,352.447,357.448,361.873,364.758,367.333,372.165,377.36760000000004,379.563,384.395,387.3551,389.599,394.084,396.272,400.918,403.803,408.228,412.157,417.078,421.317,426.7887,428.972,436.335,440.574,445.141,449.566,452.451,455.026,458.9728,461.212,466.619,469.195,474.15,479.487,482.062,487.47,490.417,496.691,500.187,505.107,508.86,511.745,516.169" svgx:width="0.5,0.5,0.25,0.55,0.6,0.29,0.58,0.61,0.5,0.56,0.25,0.55,0.67,0.25,0.25,0.55,0.95,0.55,0.58,0.44,0.33,0.55,0.58,0.25,0.55,0.77,0.25,0.61,0.25,0.25,0.55,0.77,0.5,0.56,0.48,0.56,0.25,0.55,0.52,0.25,0.71,0.25,0.25,0.55,0.76,0.55,0.55,0.61,0.55,0.56,0.25,0.55,0.33,0.25,1.0,0.25,0.55,0.67,0.33,0.4,0.5,0.56,0.55,0.79,0.55,0.42,0.48,0.4,0.56,0.5,0.33,0.29,0.55,0.58,0.55,0.55,0.33,0.55,0.5,0.55,0.52,0.33,0.5,0.44,0.56,0.48,0.61,0.55,0.83,0.48,0.52,0.5,0.33,0.29,0.44,0.55,0.61,0.29,0.56,0.6,0.29,0.61,0.33,0.71,0.4,0.56,0.42,0.33,0.5,0.29" style="fill:rgb(0,0,0);font-family:URWPalladioL-Roma;font-size:8.97px;stroke:none;">33. Pindak, R.; Moncton, D.E.; Davey, S.C.; Goodby, J.W. X-ray Observation of a Stacked Hexatic Liquid-Crystal</text>
   <text y="536.843" x="98.05,103.5217,105.77,111.186,116.404,120.887,124.689,128.984" svgx:width="0.61,0.55,0.6,0.58,0.5,0.42,0.48,0.25" style="fill:rgb(0,0,0);font-family:URWPalladioL-Roma;font-size:8.97px;stroke:none;">B Phase.</text>
   <text y="536.843" x="134.364,139.842,144.326,148.809,152.297,154.5395,157.677,163.657,167.145,171.135,173.3775,176.515,181.5,184.988,187.974,190.96" svgx:width="0.61,0.5,0.5,0.39,0.25,0.55,0.67,0.39,0.5,0.25,0.55,0.56,0.39,0.33,0.33,0.25" style="fill:rgb(0,0,0);font-family:URWPalladioL-Ital;font-size:8.97px;stroke:none;">Phys. Rev. Lett.</text>
   <text y="536.843" x="196.339,200.822,205.305,209.789" svgx:width="0.5,0.5,0.5,0.5" style="fill:rgb(0,0,0);font-family:URWPalladioL-Bold;font-size:8.97px;stroke:none;">1981</text>
   <text y="536.843" x="214.272" svgx:width="0.25" style="fill:rgb(0,0,0);font-family:URWPalladioL-Roma;font-size:8.97px;stroke:none;">,</text>
   <text y="536.843" x="218.755,223.238" svgx:width="0.5,0.5" style="fill:rgb(0,0,0);font-family:URWPalladioL-Ital;font-size:8.97px;stroke:none;">46</text>
   <text y="536.843" x="227.721,229.9635,232.204,236.687,241.171,245.654,250.137,254.62,259.103,263.587,268.07,272.553,274.7955,277.933" svgx:width="0.25,0.55,0.5,0.5,0.5,0.5,0.5,0.5,0.5,0.5,0.5,0.25,0.55,0.33" style="fill:rgb(0,0,0);font-family:URWPalladioL-Roma;font-size:8.97px;stroke:none;">, 1135–1138. [</text>
   <text y="536.843" x="280.919,287.276,290.656,295.552,299.354,303.155,309.145,313.44" svgx:width="0.71,0.4,0.55,0.42,0.42,0.67,0.48,0.33" style="fill:rgb(8,117,183);font-family:URWPalladioL-Roma;font-size:8.97px;stroke:none;">CrossRef</text>
   <text y="536.843" x="316.426" svgx:width="0.33" style="fill:rgb(0,0,0);font-family:URWPalladioL-Roma;font-size:8.97px;stroke:none;">]</text>
   <text y="549.754" x="76.535,81.018,85.501,87.74350000000001,98.05,104.429,108.638,111.195,118.954,121.1965,123.286,127.443,129.64,131.8825,134.007,142.319,146.713,150.026,154.235,157.099,159.3415,161.431,168.136,170.332,172.5745,174.708,179.664,184.462,189.66459999999998,191.72,198.425,201.896,207.194,212.308,217.168,221.377,224.68,229.566,231.8085,233.907,241.218,243.415,250.725,252.9675,255.057,259.943,263.414,267.807,272.921,277.807,280.25,284.0174,286.12,292.35,297.147,302.261,305.987,308.852,313.245,318.359,321.3191,323.359,325.916,331.1186,333.174,336.039,341.153,345.45860000000005,347.497,354.808,359.017,363.551,367.945,370.809,373.366,377.3128,379.403,384.711,389.825,394.218,397.944,402.153" svgx:width="0.5,0.5,0.25,0.55,0.73,0.48,0.29,0.88,0.25,0.55,0.6,0.25,0.25,0.55,0.95,0.5,0.4,0.48,0.33,0.25,0.55,0.76,0.25,0.25,0.55,0.56,0.55,0.58,0.55,0.76,0.4,0.6,0.58,0.55,0.48,0.4,0.56,0.25,0.55,0.83,0.25,0.83,0.25,0.55,0.56,0.4,0.5,0.58,0.56,0.28,0.42,0.55,0.71,0.55,0.58,0.42,0.33,0.5,0.58,0.33,0.55,0.29,0.58,0.55,0.33,0.58,0.48,0.55,0.83,0.48,0.52,0.5,0.33,0.29,0.44,0.55,0.6,0.58,0.5,0.42,0.48,0.25" style="fill:rgb(0,0,0);font-family:URWPalladioL-Roma;font-size:8.97px;stroke:none;">34. Keim, P.; Maret, G.; von Grünberg, H.H. Frank’s Constant in the Hexatic Phase.</text>
   <text y="549.754" x="407.456,412.825,417.218,421.612,425.03,427.2725,430.329,436.19,439.608,443.509,445.7515,448.808" svgx:width="0.61,0.5,0.5,0.39,0.25,0.55,0.67,0.39,0.5,0.25,0.55,0.61" style="fill:rgb(0,0,0);font-family:URWPalladioL-Ital;font-size:8.97px;stroke:none;">Phys. Rev. E</text>
   <text y="549.754" x="456.319,460.802,465.285,469.769" svgx:width="0.5,0.5,0.5,0.5" style="fill:rgb(0,0,0);font-family:URWPalladioL-Bold;font-size:8.97px;stroke:none;">2007</text>
   <text y="549.754" x="474.252" svgx:width="0.25" style="fill:rgb(0,0,0);font-family:URWPalladioL-Roma;font-size:8.97px;stroke:none;">,</text>
   <text y="549.754" x="478.608,483.002" svgx:width="0.5,0.5" style="fill:rgb(0,0,0);font-family:URWPalladioL-Ital;font-size:8.97px;stroke:none;">75</text>
   <text y="549.754" x="487.395,489.6375,491.753,496.147,500.54,504.934,509.327,513.721,518.115" svgx:width="0.25,0.55,0.5,0.5,0.5,0.5,0.5,0.5,0.25" style="fill:rgb(0,0,0);font-family:URWPalladioL-Roma;font-size:8.97px;stroke:none;">, 031402.</text>
   <text y="562.666" x="98.05" svgx:width="0.33" style="fill:rgb(0,0,0);font-family:URWPalladioL-Roma;font-size:8.97px;stroke:none;">[</text>
   <text y="562.666" x="101.036,107.393,110.773,115.669,119.471,123.272,129.262,133.557" svgx:width="0.71,0.4,0.55,0.42,0.42,0.67,0.48,0.33" style="fill:rgb(8,117,183);font-family:URWPalladioL-Roma;font-size:8.97px;stroke:none;">CrossRef</text>
   <text y="562.666" x="136.543,139.50310000000002,141.77" svgx:width="0.33,0.55,0.33" style="fill:rgb(0,0,0);font-family:URWPalladioL-Roma;font-size:8.97px;stroke:none;">] [</text>
   <text y="562.666" x="144.756,150.172,155.578,160.537,169.019,173.314" svgx:width="0.6,0.6,0.55,0.95,0.48,0.61" style="fill:rgb(8,117,183);font-family:URWPalladioL-Roma;font-size:8.97px;stroke:none;">PubMed</text>
   <text y="562.666" x="178.792" svgx:width="0.33" style="fill:rgb(0,0,0);font-family:URWPalladioL-Roma;font-size:8.97px;stroke:none;">]</text>
   <text y="575.578" x="76.535,81.018,85.501,87.74350000000001,98.05,105.129,109.51,115.024,118.006,121.884,125.944,131.267,133.929,138.502,143.824,149.412,153.793,156.738,158.9805,161.732,166.533,168.82,171.0625,174.033,181.642,186.636,190.248,195.571,197.8135,200.565,205.503,207.79,210.0325,213.012,218.6,223.593,231.221,235.602,240.925,243.16750000000002,245.909,253.518,255.805,258.0475,261.027,269.679,274.252,277.7,282.08,285.062,287.3045,290.055,297.034,299.32,301.5625,304.533,311.173,315.554,318.215,326.291,328.5335,331.284,335.647,337.8895,340.641,345.442,353.06,358.054,361.099,368.178,370.84,378.915,383.296,388.619,392.497,395.158,400.152,405.475,410.047,412.6483,415.416,424.068,428.449,431.11,434.092,436.753,442.076,447.0992,449.859,455.374,460.696,466.284,470.665,474.25300000000004,476.985,484.173,489.688,494.069,499.392,503.453,508.775,513.156" svgx:width="0.5,0.5,0.25,0.55,0.77,0.48,0.6,0.33,0.42,0.44,0.58,0.29,0.5,0.58,0.61,0.48,0.4,0.25,0.55,0.52,0.25,0.25,0.55,0.83,0.55,0.4,0.58,0.25,0.55,0.61,0.25,0.25,0.55,0.61,0.55,0.83,0.48,0.58,0.25,0.55,0.83,0.25,0.25,0.55,0.95,0.5,0.4,0.48,0.33,0.25,0.55,0.76,0.25,0.25,0.55,0.73,0.48,0.29,0.88,0.25,0.55,0.6,0.25,0.55,0.61,0.83,0.55,0.33,0.77,0.29,0.88,0.48,0.58,0.42,0.29,0.55,0.58,0.5,0.29,0.55,0.95,0.48,0.29,0.33,0.29,0.58,0.56,0.55,0.6,0.58,0.61,0.48,0.4,0.55,0.79,0.6,0.48,0.58,0.44,0.58,0.48,0.61" style="fill:rgb(0,0,0);font-family:URWPalladioL-Roma;font-size:8.97px;stroke:none;">35. Deutschländer, S.; Horn, T.; Löwen, H.; Maret, G.; Keim, P. Two-Dimensional Melting under Quenched</text>
   <text y="588.489" x="98.05,104.99,107.599,111.401,116.297,119.677,125.155,129.45,132.329" svgx:width="0.77,0.29,0.42,0.55,0.4,0.61,0.48,0.4,0.25" style="fill:rgb(0,0,0);font-family:URWPalladioL-Roma;font-size:8.97px;stroke:none;">Disorder.</text>
   <text y="588.489" x="137.708,143.186,147.67,152.153,155.641,157.8835,161.021,167.001,170.489,174.479,176.72150000000002,179.859,184.844,188.332,191.318,194.304" svgx:width="0.61,0.5,0.5,0.39,0.25,0.55,0.67,0.39,0.5,0.25,0.55,0.56,0.39,0.33,0.33,0.25" style="fill:rgb(0,0,0);font-family:URWPalladioL-Ital;font-size:8.97px;stroke:none;">Phys. Rev. Lett.</text>
   <text y="588.489" x="199.684,204.167,208.65,213.134" svgx:width="0.5,0.5,0.5,0.5" style="fill:rgb(0,0,0);font-family:URWPalladioL-Bold;font-size:8.97px;stroke:none;">2013</text>
   <text y="588.489" x="217.616" svgx:width="0.25" style="fill:rgb(0,0,0);font-family:URWPalladioL-Roma;font-size:8.97px;stroke:none;">,</text>
   <text y="588.489" x="222.099,226.582,231.065" svgx:width="0.5,0.5,0.5" style="fill:rgb(0,0,0);font-family:URWPalladioL-Ital;font-size:8.97px;stroke:none;">111</text>
   <text y="588.489" x="235.549,237.7915,240.032,244.515,248.999,253.482,257.965,262.448,266.931,269.1735,272.311" svgx:width="0.25,0.55,0.5,0.5,0.5,0.5,0.5,0.5,0.25,0.55,0.33" style="fill:rgb(0,0,0);font-family:URWPalladioL-Roma;font-size:8.97px;stroke:none;">, 098301. [</text>
   <text y="588.489" x="275.297,281.654,285.035,289.93,293.732,297.534,303.523,307.818" svgx:width="0.71,0.4,0.55,0.42,0.42,0.67,0.48,0.33" style="fill:rgb(8,117,183);font-family:URWPalladioL-Roma;font-size:8.97px;stroke:none;">CrossRef</text>
   <text y="588.489" x="310.804" svgx:width="0.33" style="fill:rgb(0,0,0);font-family:URWPalladioL-Roma;font-size:8.97px;stroke:none;">]</text>
   <text y="601.401" x="76.535,81.018,85.501,87.74350000000001,98.05,105.129,109.51,113.122,117.695,121.573,124.234,126.4765,129.1,136.215,138.502,140.74450000000002,143.532,150.172,155.165,160.332,164.905,168.966,172.844,175.0865,177.709,184.825,187.111,193.211,195.498,197.7405,200.528,207.607,212.6,217.923,223.008,228.002,230.24450000000002,232.867,238.967,241.254,243.4965,246.284,253.893,258.466,262.079,265.06,273.136,277.709,283.032,288.354,290.5965,293.22,297.582,299.8245,302.448,309.637,314.8396,317.538,320.52,325.843,330.14860000000004,332.803,341.454,345.835,348.817,353.39,357.267,360.249,364.822,369.879,372.541,375.202,377.864,380.845,385.8682,388.509,393.503,396.4631,399.118,402.1,407.423,411.72860000000003,414.383,421.992,426.373,431.092,435.665,438.646,441.308,445.2548,447.947,453.471,458.794,463.367,467.245,471.55060000000003,474.205,481.284,486.798,490.411,493.072,498.395,503.41819999999996,506.059,509.041,514.364" svgx:width="0.5,0.5,0.25,0.55,0.77,0.48,0.4,0.5,0.42,0.29,0.25,0.55,0.78,0.25,0.25,0.55,0.73,0.55,0.56,0.5,0.44,0.42,0.25,0.55,0.78,0.25,0.67,0.25,0.25,0.55,0.77,0.55,0.58,0.56,0.55,0.25,0.55,0.67,0.25,0.25,0.55,0.83,0.5,0.4,0.33,0.88,0.5,0.58,0.58,0.25,0.55,0.6,0.25,0.55,0.79,0.58,0.55,0.33,0.58,0.48,0.55,0.95,0.48,0.33,0.5,0.42,0.33,0.5,0.55,0.29,0.29,0.29,0.33,0.56,0.55,0.55,0.33,0.55,0.33,0.58,0.48,0.55,0.83,0.48,0.52,0.5,0.33,0.29,0.44,0.55,0.6,0.58,0.5,0.42,0.48,0.55,0.77,0.6,0.4,0.29,0.58,0.56,0.55,0.33,0.58,0.48" style="fill:rgb(0,0,0);font-family:URWPalladioL-Roma;font-size:8.97px;stroke:none;">36. Derzsi, A.; Kovacs, A.Z.; Donko, Z.; Hartmann, P. On the Metastability of the Hexatic Phase During the</text>
   <text y="614.312" x="98.05,106.532,110.827,113.436,116.359,118.969,124.187,129.2102,131.414,136.31,139.2701,141.537,146.226,153.704,158.6,161.586,168.526,171.135,179.052,183.347,188.566,192.368,194.977,199.872,205.091,209.574,212.17530000000002,214.425,220.782,226.001,230.484,233.864,238.849,243.144,248.6157,250.864,256.28,260.763,264.305,267.228,269.837,273.818,276.428,280.7336,282.964,287.671,292.567,295.176,297.786,303.264,307.066" svgx:width="0.95,0.48,0.29,0.33,0.29,0.58,0.56,0.55,0.55,0.33,0.55,0.61,0.83,0.55,0.33,0.77,0.29,0.88,0.48,0.58,0.42,0.29,0.55,0.58,0.5,0.29,0.55,0.71,0.58,0.5,0.4,0.56,0.48,0.61,0.55,0.6,0.5,0.4,0.33,0.29,0.44,0.29,0.48,0.55,0.52,0.55,0.29,0.29,0.61,0.42,0.25" style="fill:rgb(0,0,0);font-family:URWPalladioL-Roma;font-size:8.97px;stroke:none;">Melting of Two-Dimensional Charged Particle Solids.</text>
   <text y="614.312" x="312.443,317.921,322.405,326.888,330.376,332.6185,335.756,341.234,343.727,347.708,351.196,358.172,362.153" svgx:width="0.61,0.5,0.5,0.39,0.25,0.55,0.61,0.28,0.44,0.39,0.78,0.44,0.39" style="fill:rgb(0,0,0);font-family:URWPalladioL-Ital;font-size:8.97px;stroke:none;">Phys. Plasmas</text>
   <text y="614.312" x="367.882,372.365,376.848,381.332" svgx:width="0.5,0.5,0.5,0.5" style="fill:rgb(0,0,0);font-family:URWPalladioL-Bold;font-size:8.97px;stroke:none;">2014</text>
   <text y="614.312" x="385.814" svgx:width="0.25" style="fill:rgb(0,0,0);font-family:URWPalladioL-Roma;font-size:8.97px;stroke:none;">,</text>
   <text y="614.312" x="390.298,394.781" svgx:width="0.5,0.5" style="fill:rgb(0,0,0);font-family:URWPalladioL-Ital;font-size:8.97px;stroke:none;">21</text>
   <text y="614.312" x="399.264,401.5065,403.747,408.23,412.714,417.197,421.68,426.163,428.4055,431.543" svgx:width="0.25,0.55,0.5,0.5,0.5,0.5,0.5,0.25,0.55,0.33" style="fill:rgb(0,0,0);font-family:URWPalladioL-Roma;font-size:8.97px;stroke:none;">, 23706. [</text>
   <text y="614.312" x="434.529,440.886,444.266,449.162,452.964,456.766,462.755,467.05" svgx:width="0.71,0.4,0.55,0.42,0.42,0.67,0.48,0.33" style="fill:rgb(8,117,183);font-family:URWPalladioL-Roma;font-size:8.97px;stroke:none;">CrossRef</text>
   <text y="614.312" x="470.036" svgx:width="0.33" style="fill:rgb(0,0,0);font-family:URWPalladioL-Roma;font-size:8.97px;stroke:none;">]</text>
   <text y="627.224" x="76.535,81.018,85.501,87.74350000000001,98.05,104.69,109.263,114.759,117.805,122.186,125.131,127.3735,131.02,135.822,138.108,144.593,146.879,149.1215,153.437,160.076,163.689,168.262,173.777,176.758,182.081,184.3235,187.962,196.275,198.5175,202.156,206.957,214.585,219.578,222.624,229.703,232.364,240.44,244.821,250.143,254.021,256.683,261.676,266.999,271.572,274.1733,277.828,286.479,290.86,293.522,296.503,299.165,304.487,309.572,311.8145,317.703,322.788,326.245,331.239,339.13259999999997,342.909,348.497,351.158,356.28,361.794,364.456,370.044,373.089,380.699,385.08,389.799,394.372,397.353,400.015,403.9618,407.669,414.154,419.147,423.528,428.247,430.909,434.787,437.768,442.149,447.472,451.532,455.8376,459.507,462.489,467.42249999999996,471.077,477.561,482.555,487.877,490.859,493.52,498.843,504.358,509.352,514.867" svgx:width="0.5,0.5,0.25,0.55,0.73,0.5,0.6,0.33,0.48,0.4,0.25,0.55,0.52,0.25,0.71,0.25,0.25,0.55,0.73,0.4,0.5,0.6,0.33,0.58,0.25,0.55,1.0,0.25,0.55,0.61,0.83,0.55,0.33,0.77,0.29,0.88,0.48,0.58,0.42,0.29,0.55,0.58,0.5,0.29,0.55,0.95,0.48,0.29,0.33,0.29,0.58,0.56,0.25,0.55,0.56,0.4,0.55,0.88,0.55,0.61,0.29,0.56,0.6,0.29,0.61,0.33,0.83,0.48,0.52,0.5,0.33,0.29,0.44,0.55,0.71,0.55,0.48,0.52,0.29,0.42,0.33,0.48,0.58,0.44,0.48,0.55,0.33,0.55,0.55,0.71,0.55,0.58,0.33,0.29,0.58,0.6,0.55,0.6,0.42" style="fill:rgb(0,0,0);font-family:URWPalladioL-Roma;font-size:8.97px;stroke:none;">37. Kapfer, S.C.; Krauth, W. Two-Dimensional Melting: From Liquid-Hexatic Coexistence to Continuous</text>
   <text y="640.136" x="97.773,102.462,106.004,110.487,115.706,119.508,122.117,125.04,127.649,132.545,137.763,141.565" svgx:width="0.61,0.4,0.5,0.58,0.42,0.29,0.33,0.29,0.55,0.58,0.42,0.25" style="fill:rgb(0,0,0);font-family:URWPalladioL-Roma;font-size:8.97px;stroke:none;">Transitions.</text>
   <text y="640.136" x="146.944,152.422,156.906,161.389,164.877,167.11950000000002,170.257,176.237,179.725,183.715,185.9575,189.095,194.08,197.568,200.554,203.54" svgx:width="0.61,0.5,0.5,0.39,0.25,0.55,0.67,0.39,0.5,0.25,0.55,0.56,0.39,0.33,0.33,0.25" style="fill:rgb(0,0,0);font-family:URWPalladioL-Ital;font-size:8.97px;stroke:none;">Phys. Rev. Lett.</text>
   <text y="640.136" x="208.919,213.402,217.885,222.369" svgx:width="0.5,0.5,0.5,0.5" style="fill:rgb(0,0,0);font-family:URWPalladioL-Bold;font-size:8.97px;stroke:none;">2015</text>
   <text y="640.136" x="226.851" svgx:width="0.25" style="fill:rgb(0,0,0);font-family:URWPalladioL-Roma;font-size:8.97px;stroke:none;">,</text>
   <text y="640.136" x="231.335,235.818,240.301" svgx:width="0.5,0.5,0.5" style="fill:rgb(0,0,0);font-family:URWPalladioL-Ital;font-size:8.97px;stroke:none;">114</text>
   <text y="640.136" x="244.784,247.0265,249.267,253.75,258.234,262.717,267.2,271.683,276.166,278.4085,281.546" svgx:width="0.25,0.55,0.5,0.5,0.5,0.5,0.5,0.5,0.25,0.55,0.33" style="fill:rgb(0,0,0);font-family:URWPalladioL-Roma;font-size:8.97px;stroke:none;">, 035702. [</text>
   <text y="640.136" x="284.532,290.889,294.27,299.165,302.967,306.769,312.758,317.053" svgx:width="0.71,0.4,0.55,0.42,0.42,0.67,0.48,0.33" style="fill:rgb(8,117,183);font-family:URWPalladioL-Roma;font-size:8.97px;stroke:none;">CrossRef</text>
   <text y="640.136" x="320.039" svgx:width="0.33" style="fill:rgb(0,0,0);font-family:URWPalladioL-Roma;font-size:8.97px;stroke:none;">]</text>
   <text y="653.047" x="76.535,81.018,85.501,87.74350000000001,98.05,104.69,110.205,113.817,116.799,121.372,123.6145,126.073,132.182,134.468,138.84,141.126,143.3685,145.91,153.025,155.686,158.668,163.241,166.698,171.079,173.74,176.401,179.063,181.3055,183.764,192.416,194.702,196.9445,199.485,205.265,209.838,213.451,216.432,221.005,226.328,231.413,235.986,241.309,244.29,248.168,250.4105,252.869,255.951,258.237,265.353,267.5955,270.063,276.163,279.209,282.821,287.394,292.4172,294.894,301.378,304.826,309.819,313.697,317.575,320.62,327.105,332.098,335.711,339.159,343.54,346.201,350.774,353.755,356.417,361.41,366.61260000000004,369.148,376.263,381.586,386.159,388.82,393.905,397.783,400.444,404.2114,406.746,411.739,414.6991,417.199,424.278,426.939,430.817,435.811,439.259,444.847,449.228,452.676,457.056,462.5277,465.059,470.647,475.97,479.847,484.228,492.304,497.362,500.023,504.404,508.1714,510.705,515.699" svgx:width="0.5,0.5,0.25,0.55,0.73,0.6,0.4,0.33,0.5,0.25,0.55,0.67,0.25,0.6,0.25,0.25,0.55,0.78,0.29,0.33,0.5,0.4,0.48,0.29,0.29,0.29,0.25,0.55,0.95,0.25,0.25,0.55,0.72,0.5,0.4,0.33,0.5,0.58,0.56,0.5,0.58,0.33,0.42,0.25,0.55,0.34,0.25,0.78,0.25,0.55,0.67,0.33,0.4,0.5,0.56,0.55,0.71,0.4,0.55,0.42,0.42,0.33,0.71,0.55,0.4,0.4,0.48,0.29,0.5,0.33,0.29,0.55,0.58,0.55,0.78,0.58,0.5,0.29,0.56,0.42,0.29,0.42,0.55,0.55,0.33,0.55,0.77,0.29,0.42,0.55,0.4,0.61,0.48,0.4,0.48,0.61,0.55,0.61,0.58,0.42,0.48,0.88,0.55,0.29,0.48,0.42,0.55,0.55,0.33" style="fill:rgb(0,0,0);font-family:URWPalladioL-Roma;font-size:8.97px;stroke:none;">38. Kurta, R.P.; Altarelli, M.; Vartanyants, I.A. X-ray Cross-Correlation Analysis of Disordered Ensembles of</text>
   <text y="665.959" x="98.05,103.466,107.949,111.491,114.414,117.023,121.004,123.613,127.908,131.71,133.95250000000001,137.09,142.505,147.401,150.324,154.619,159.837,162.761,165.37,169.853,172.462,176.2294,178.506,182.989,188.207,193.6787,195.927,201.406,204.015,211.932,214.542,217.465,221.948,224.871,227.48,232.376,237.594,241.396" svgx:width="0.6,0.5,0.4,0.33,0.29,0.44,0.29,0.48,0.42,0.25,0.55,0.6,0.55,0.33,0.48,0.58,0.33,0.29,0.5,0.29,0.42,0.55,0.5,0.58,0.61,0.55,0.61,0.29,0.88,0.29,0.33,0.5,0.33,0.29,0.55,0.58,0.42,0.25" style="fill:rgb(0,0,0);font-family:URWPalladioL-Roma;font-size:8.97px;stroke:none;">Particles: Potentials and Limitations.</text>
   <text y="665.959" x="246.774,253.248,257.731,261.721,263.9635,267.101,273.081,277.063,282.048,286.531,290.019,295.004,298.492,300.7345,303.872,312.336,316.317,319.303,322.289,325.777,329.2753,331.507,336.985,341.468,345.951,349.439" svgx:width="0.72,0.5,0.5,0.25,0.55,0.67,0.44,0.56,0.5,0.39,0.56,0.39,0.25,0.55,0.94,0.44,0.33,0.33,0.39,0.39,0.55,0.61,0.5,0.5,0.39,0.25" style="fill:rgb(0,0,0);font-family:URWPalladioL-Ital;font-size:8.97px;stroke:none;">Adv. Condens. Matter Phys.</text>
   <text y="665.959" x="354.818,359.301,363.784,368.268" svgx:width="0.5,0.5,0.5,0.5" style="fill:rgb(0,0,0);font-family:URWPalladioL-Bold;font-size:8.97px;stroke:none;">2013</text>
   <text y="665.959" x="372.75" svgx:width="0.25" style="fill:rgb(0,0,0);font-family:URWPalladioL-Roma;font-size:8.97px;stroke:none;">,</text>
   <text y="665.959" x="377.234,381.717,386.2,390.684" svgx:width="0.5,0.5,0.5,0.5" style="fill:rgb(0,0,0);font-family:URWPalladioL-Ital;font-size:8.97px;stroke:none;">2013</text>
   <text y="665.959" x="395.166,397.4085,399.649,404.132,408.616,413.099,417.582,422.065,426.549,428.7915,431.928" svgx:width="0.25,0.55,0.5,0.5,0.5,0.5,0.5,0.5,0.25,0.55,0.33" style="fill:rgb(0,0,0);font-family:URWPalladioL-Roma;font-size:8.97px;stroke:none;">, 959835. [</text>
   <text y="665.959" x="434.914,441.271,444.652,449.547,453.349,457.151,463.14,467.435" svgx:width="0.71,0.4,0.55,0.42,0.42,0.67,0.48,0.33" style="fill:rgb(8,117,183);font-family:URWPalladioL-Roma;font-size:8.97px;stroke:none;">CrossRef</text>
   <text y="665.959" x="470.421" svgx:width="0.33" style="fill:rgb(0,0,0);font-family:URWPalladioL-Roma;font-size:8.97px;stroke:none;">]</text>
   <text y="678.871" x="76.535,81.018,85.501,87.74350000000001,98.05,103.567,106.971,111.901,115.91,120.93,123.17250000000001,125.435,128.442,130.699,137.688,139.945,142.1875,144.46,151.485,156.74,161.254,164.658,169.588,174.843,178.87,181.1125,183.376,190.4,192.658,194.9005,197.163,202.68,205.307,208.711,213.732,218.057,223.312,227.637,232.151,237.596,239.8385,242.101,248.133,250.39,253.397,255.654,257.8965,260.169,265.685,270.787,275.302,280.557,284.385,287.392,292.908,298.353,301.297,304.24,308.565,311.969,316.899,322.416,325.359,327.6015,329.865,336.42,338.677,346.885,349.142,351.3845,353.648,359.164,361.792,364.735,368.564,371.507,375.832,378.74,380.9825,383.245,386.252,388.509,395.498,397.755,399.9975,402.261,409.773,414.703,418.269,423.524,425.7665,428.03,432.328,434.585,443.127,445.384,447.6265,449.899,454.639,457.582,461.907,467.334,472.589,476.914,482.169,485.997,490.927,496.182,498.4245,500.688,507.577,509.834,515.351,517.608" svgx:width="0.5,0.5,0.25,0.55,0.61,0.4,0.55,0.44,0.56,0.25,0.55,0.33,0.25,0.77,0.25,0.25,0.55,0.78,0.58,0.5,0.4,0.55,0.58,0.56,0.25,0.55,0.78,0.25,0.25,0.55,0.61,0.29,0.4,0.56,0.48,0.58,0.48,0.5,0.6,0.25,0.55,0.67,0.25,0.33,0.25,0.25,0.55,0.61,0.56,0.5,0.58,0.42,0.33,0.61,0.6,0.33,0.33,0.48,0.4,0.55,0.61,0.33,0.25,0.55,0.73,0.25,1.0,0.25,0.25,0.55,0.61,0.29,0.33,0.42,0.33,0.48,0.4,0.25,0.55,0.33,0.25,0.77,0.25,0.25,0.55,0.83,0.55,0.4,0.58,0.25,0.55,0.6,0.25,0.95,0.25,0.25,0.55,0.52,0.33,0.48,0.6,0.58,0.48,0.58,0.42,0.55,0.58,0.25,0.55,0.76,0.25,0.61,0.25,0.25" style="fill:rgb(0,0,0);font-family:URWPalladioL-Roma;font-size:8.97px;stroke:none;">39. Brock, J.D.; Aharony, A.; Birgeneau, R.J.; Evans-Lutterodt, K.W.; Litster, J.D.; Horn, P.M.; Stephenson, G.B.;</text>
   <text y="691.782" x="97.773,102.38,106.809,108.882,113.781,118.21,123.136,128.292,132.048,137.204,139.44650000000001,141.66,148.552,150.766,156.684,158.9265,161.14,168.103,171.602,174.18,178.424,183.579,186.467,190.897,193.785,196.363,201.2,206.355,210.785,213.3863,215.604,220.033,225.189,230.6607,232.843,238.194,243.031,246.787,249.365,252.253,254.831,259.668,264.823,269.253,271.85429999999997,274.072,281.026,284.366,289.779,294.022,297.61,299.763,302.34,307.5426,309.738,314.223,316.408,321.351,323.929,326.507,329.386,333.63,339.1017,341.284,348.654,352.898,357.469,361.898,364.786,367.364,371.3108,373.539,378.951,381.529,386.49,391.832,394.41,399.823,402.773,409.054,412.553,417.478,421.234,424.122,428.552,431.1533,433.371,438.722,443.878,448.307,452.063,456.307" svgx:width="0.61,0.5,0.23,0.55,0.5,0.56,0.58,0.42,0.58,0.25,0.55,0.78,0.25,0.67,0.25,0.55,0.79,0.4,0.29,0.48,0.58,0.33,0.5,0.33,0.29,0.55,0.58,0.5,0.29,0.55,0.5,0.58,0.61,0.55,0.6,0.55,0.42,0.29,0.33,0.29,0.55,0.58,0.5,0.29,0.55,0.79,0.4,0.61,0.48,0.4,0.55,0.29,0.58,0.55,0.5,0.55,0.61,0.29,0.29,0.33,0.48,0.61,0.55,0.83,0.48,0.52,0.5,0.33,0.29,0.44,0.55,0.61,0.29,0.56,0.6,0.29,0.61,0.33,0.71,0.4,0.56,0.42,0.33,0.5,0.29,0.55,0.6,0.58,0.5,0.42,0.48,0.25" style="fill:rgb(0,0,0);font-family:URWPalladioL-Roma;font-size:8.97px;stroke:none;">Tajbakhsh, A.R. Orientational and Positional Order in a Tilted Hexatic Liquid-Crystal Phase.</text>
   <text y="691.782" x="461.661,467.074,471.503,475.933,479.379,481.6215,484.729,490.638,494.084,498.026,500.2685,503.377,508.303,511.749,514.699,517.649" svgx:width="0.61,0.5,0.5,0.39,0.25,0.55,0.67,0.39,0.5,0.25,0.55,0.56,0.39,0.33,0.33,0.25" style="fill:rgb(0,0,0);font-family:URWPalladioL-Ital;font-size:8.97px;stroke:none;">Phys. Rev. Lett.</text>
   <text y="704.694" x="97.602,102.085,106.568,111.052" svgx:width="0.5,0.5,0.5,0.5" style="fill:rgb(0,0,0);font-family:URWPalladioL-Bold;font-size:8.97px;stroke:none;">1986</text>
   <text y="704.694" x="115.535" svgx:width="0.25" style="fill:rgb(0,0,0);font-family:URWPalladioL-Roma;font-size:8.97px;stroke:none;">,</text>
   <text y="704.694" x="120.018,124.501" svgx:width="0.5,0.5" style="fill:rgb(0,0,0);font-family:URWPalladioL-Ital;font-size:8.97px;stroke:none;">57</text>
   <text y="704.694" x="128.984,131.22650000000002,133.467,137.95,142.434,146.917,151.4,155.883,160.366,162.60850000000002,165.746" svgx:width="0.25,0.55,0.5,0.5,0.5,0.5,0.5,0.5,0.25,0.55,0.33" style="fill:rgb(0,0,0);font-family:URWPalladioL-Roma;font-size:8.97px;stroke:none;">, 98–101. [</text>
   <text y="704.694" x="168.732,175.089,178.47,183.365,187.167,190.969,196.958,201.253" svgx:width="0.71,0.4,0.55,0.42,0.42,0.67,0.48,0.33" style="fill:rgb(8,117,183);font-family:URWPalladioL-Roma;font-size:8.97px;stroke:none;">CrossRef</text>
   <text y="704.694" x="204.239" svgx:width="0.33" style="fill:rgb(0,0,0);font-family:URWPalladioL-Roma;font-size:8.97px;stroke:none;">]</text>
   <text y="717.605" x="76.535,81.018,85.501,87.74350000000001,98.05,105.117,110.403,114.944,118.369,123.328,128.614,132.674,134.9165,137.161,144.228,146.499,148.7415,151.004,156.553,159.197,162.621,167.671,172.022,177.308,181.659,186.2,191.677,193.9195,196.173,202.232,204.511,207.527,209.798,212.0405,214.303,219.853,223.277,228.236,232.269,237.319,239.5615,241.815,244.84,247.11,254.141,256.411,258.6535,260.908,266.457,269.1,272.061,275.913,278.874,283.224,286.149,288.3915,290.645,293.67,295.94,302.971,305.2135,307.458,316.05,321.527,324.17,327.131,329.775,333.807,337.395,340.038,342.999,345.642,349.675,354.217,356.86,359.503,362.464,367.4872,369.74,372.383,377.5856,379.885,387.442,391.793,396.48,401.021,403.982,406.625,410.5718,412.884,418.433,421.076,426.163,431.64,434.283,439.7547,442.058,448.498,452.086,457.136,460.987,463.948,468.489,471.133,474.984" svgx:width="0.5,0.5,0.25,0.55,0.78,0.58,0.5,0.4,0.55,0.58,0.56,0.25,0.55,0.78,0.25,0.25,0.55,0.61,0.29,0.4,0.56,0.48,0.58,0.48,0.5,0.6,0.25,0.55,0.67,0.25,0.33,0.25,0.25,0.55,0.61,0.4,0.55,0.44,0.56,0.25,0.55,0.33,0.25,0.77,0.25,0.25,0.55,0.61,0.29,0.33,0.42,0.33,0.48,0.4,0.25,0.55,0.33,0.25,0.77,0.25,0.55,0.95,0.6,0.29,0.33,0.29,0.44,0.4,0.29,0.33,0.29,0.44,0.5,0.29,0.29,0.33,0.56,0.55,0.29,0.58,0.55,0.83,0.48,0.52,0.5,0.33,0.29,0.44,0.55,0.61,0.29,0.56,0.6,0.29,0.61,0.55,0.71,0.4,0.56,0.42,0.33,0.5,0.29,0.42,0.25" style="fill:rgb(0,0,0);font-family:URWPalladioL-Roma;font-size:8.97px;stroke:none;">40. Aharony, A.; Birgeneau, R.J.; Brock, J.D.; Litster, J.D. Multicriticality in Hexatic Liquid Crystals.</text>
   <text y="717.605" x="480.382,485.932,490.473,495.015,498.548,500.7905,503.952,510.011,513.544,517.586" svgx:width="0.61,0.5,0.5,0.39,0.25,0.55,0.67,0.39,0.5,0.25" style="fill:rgb(0,0,0);font-family:URWPalladioL-Ital;font-size:8.97px;stroke:none;">Phys. Rev.</text>
   <text y="730.517" x="97.799,102.784,106.272,109.258,112.244" svgx:width="0.56,0.39,0.33,0.33,0.25" style="fill:rgb(0,0,0);font-family:URWPalladioL-Ital;font-size:8.97px;stroke:none;">Lett.</text>
   <text y="730.517" x="117.624,122.107,126.59,131.074" svgx:width="0.5,0.5,0.5,0.5" style="fill:rgb(0,0,0);font-family:URWPalladioL-Bold;font-size:8.97px;stroke:none;">1986</text>
   <text y="730.517" x="135.557" svgx:width="0.25" style="fill:rgb(0,0,0);font-family:URWPalladioL-Roma;font-size:8.97px;stroke:none;">,</text>
   <text y="730.517" x="140.04,144.523" svgx:width="0.5,0.5" style="fill:rgb(0,0,0);font-family:URWPalladioL-Ital;font-size:8.97px;stroke:none;">57</text>
   <text y="730.517" x="149.006,151.2485,153.489,157.972,162.456,166.939,171.422,175.905,180.388,184.872,189.355,193.838,196.0805,199.218" svgx:width="0.25,0.55,0.5,0.5,0.5,0.5,0.5,0.5,0.5,0.5,0.5,0.25,0.55,0.33" style="fill:rgb(0,0,0);font-family:URWPalladioL-Roma;font-size:8.97px;stroke:none;">, 1012–1015. [</text>
   <text y="730.517" x="202.204,208.561,211.941,216.837,220.639,224.44,230.43,234.725" svgx:width="0.71,0.4,0.55,0.42,0.42,0.67,0.48,0.33" style="fill:rgb(8,117,183);font-family:URWPalladioL-Roma;font-size:8.97px;stroke:none;">CrossRef</text>
   <text y="730.517" x="237.711" svgx:width="0.33" style="fill:rgb(0,0,0);font-family:URWPalladioL-Roma;font-size:8.97px;stroke:none;">]</text>
   <text y="743.429" x="76.535,81.018,85.501,87.74350000000001,98.05,103.419,106.732,111.529,115.431,120.316,122.55850000000001,124.543,127.469,129.666,136.467,138.664,140.9065,142.961,150.263,155.061,160.175,162.41750000000002,164.41,171.211,173.408,178.276,180.473,182.71550000000002,184.77,193.082,196.984,203.214,205.771,210.164,212.721,217.835,220.07750000000001,222.062,227.431,229.628,235.497,237.694,239.9365,242.0,247.369,249.926,252.79,256.516,259.381,263.59,266.393,268.6355,270.619,273.545,275.742,282.543,284.74,286.9825,289.046,294.415,296.972,300.276,305.161,309.37,314.484,318.693,323.087,328.386,330.62850000000003,332.621,338.491,340.687,343.614,345.81,348.0525,350.107,356.944,362.058,366.451,369.764,374.562,379.676,383.56,385.8025,387.795,394.631,396.828,399.0705,401.125,408.436,413.233,416.704,421.818,424.0605,426.054,430.201,432.398,440.711,442.907,445.1495,447.204,452.573,455.13,459.524,464.638,469.523,471.76550000000003,473.759,476.685,478.882,484.743,486.9855,488.969,496.28,500.489,505.023,509.417,512.281,514.838" svgx:width="0.5,0.5,0.25,0.55,0.61,0.4,0.55,0.44,0.56,0.25,0.55,0.33,0.25,0.77,0.25,0.25,0.55,0.83,0.55,0.58,0.25,0.55,0.77,0.25,0.67,0.25,0.25,0.55,0.95,0.44,0.71,0.29,0.5,0.29,0.58,0.25,0.55,0.61,0.25,0.67,0.25,0.25,0.55,0.61,0.29,0.33,0.42,0.33,0.48,0.4,0.25,0.55,0.33,0.25,0.77,0.25,0.25,0.55,0.61,0.29,0.4,0.56,0.48,0.58,0.48,0.5,0.6,0.25,0.55,0.67,0.25,0.33,0.25,0.25,0.55,0.78,0.58,0.5,0.4,0.55,0.58,0.56,0.25,0.55,0.78,0.25,0.25,0.55,0.83,0.55,0.4,0.58,0.25,0.55,0.6,0.25,0.95,0.25,0.25,0.55,0.61,0.29,0.5,0.58,0.56,0.25,0.55,0.33,0.25,0.67,0.25,0.55,0.83,0.48,0.52,0.5,0.33,0.29,0.44" style="fill:rgb(0,0,0);font-family:URWPalladioL-Roma;font-size:8.97px;stroke:none;">41. Brock, J.D.; Noh, D.Y.; McClain, B.R.; Litster, J.D.; Birgeneau, R.J.; Aharony, A.; Horn, P.M.; Liang, J.Z. Hexatic</text>
   <text y="756.34" x="98.05,105.098,108.478,113.956,118.251,121.793,124.402,129.621,134.6442,136.848,139.457,144.65959999999998,146.917,151.902,155.283,159.577,163.872,166.482,171.5052,173.709,178.416,183.823,187.624,193.013,197.308,202.527,208.005,212.3,217.7717,220.02,225.498,228.108,233.129,238.536,241.145,246.6167,248.865,255.222,258.764,263.749,267.551,270.474,274.957,277.5583,279.808,284.793,287.402,290.012,297.929,301.731" svgx:width="0.79,0.4,0.61,0.48,0.4,0.29,0.58,0.56,0.55,0.29,0.58,0.55,0.56,0.4,0.48,0.48,0.29,0.56,0.55,0.52,0.6,0.42,0.6,0.48,0.58,0.61,0.48,0.61,0.55,0.61,0.29,0.56,0.6,0.29,0.61,0.55,0.71,0.4,0.56,0.42,0.33,0.5,0.29,0.55,0.56,0.29,0.29,0.88,0.42,0.25" style="fill:rgb(0,0,0);font-family:URWPalladioL-Roma;font-size:8.97px;stroke:none;">Ordering in Freely Suspended Liquid Crystal Films.</text>
   <text y="756.34" x="307.108,312.586,317.07,321.553,325.041,327.2835,330.421,335.899,338.885,344.866,348.847,353.832,358.315,361.803,366.788,370.276,372.5185,375.656,384.12,388.102,391.087,394.073,397.561" svgx:width="0.61,0.5,0.5,0.39,0.25,0.55,0.61,0.33,0.67,0.44,0.56,0.5,0.39,0.56,0.39,0.25,0.55,0.94,0.44,0.33,0.33,0.39,0.39" style="fill:rgb(0,0,0);font-family:URWPalladioL-Ital;font-size:8.97px;stroke:none;">Phys. B-Condens. Matter</text>
   <text y="756.34" x="403.289,407.772,412.255,416.739" svgx:width="0.5,0.5,0.5,0.5" style="fill:rgb(0,0,0);font-family:URWPalladioL-Bold;font-size:8.97px;stroke:none;">1989</text>
   <text y="756.34" x="421.222" svgx:width="0.25" style="fill:rgb(0,0,0);font-family:URWPalladioL-Roma;font-size:8.97px;stroke:none;">,</text>
   <text y="756.34" x="425.705,430.188" svgx:width="0.5,0.5" style="fill:rgb(0,0,0);font-family:URWPalladioL-Ital;font-size:8.97px;stroke:none;">74</text>
   <text y="756.34" x="434.672,436.91450000000003,439.155,443.638,448.122,452.605,457.088,461.571,466.055,470.538,472.7805,475.918" svgx:width="0.25,0.55,0.5,0.5,0.5,0.5,0.5,0.5,0.5,0.25,0.55,0.33" style="fill:rgb(0,0,0);font-family:URWPalladioL-Roma;font-size:8.97px;stroke:none;">, 197–213. [</text>
   <text y="756.34" x="478.903,485.261,488.641,493.537,497.338,501.14,507.13,511.424" svgx:width="0.71,0.4,0.55,0.42,0.42,0.67,0.48,0.33" style="fill:rgb(8,117,183);font-family:URWPalladioL-Roma;font-size:8.97px;stroke:none;">CrossRef</text>
   <text y="756.34" x="514.41" svgx:width="0.33" style="fill:rgb(0,0,0);font-family:URWPalladioL-Roma;font-size:8.97px;stroke:none;">]</text>
  </g>
 </g>
</svg>
