<?xml version="1.0" encoding="UTF-8"?>
<svg height="511.962" width="529.969" xmlns="http://www.w3.org/2000/svg">
 <g id="page" xmlns:svgx="http://www.xml-cml.org/schema/svgx">
  <g begin="text">
   <text y="62.979" x="76.535,84.059,87.598,90.252,93.352,96.452,98.668,102.207,104.422" svgx:width="0.94,0.44,0.33,0.39,0.39,0.28,0.44,0.28,0.39" style="fill:rgb(0,0,0);font-family:URWPalladioL-Ital;font-size:7.97px;stroke:none;">Materials</text>
   <text y="62.979" x="109.515,113.5,117.485,121.47" svgx:width="0.5,0.5,0.5,0.5" style="fill:rgb(0,0,0);font-family:URWPalladioL-Bold;font-size:7.97px;stroke:none;">2019</text>
   <text y="62.979" x="125.455" svgx:width="0.25" style="fill:rgb(0,0,0);font-family:URWPalladioL-Roma;font-size:7.97px;stroke:none;">,</text>
   <text y="62.979" x="129.44,133.425" svgx:width="0.5,0.5" style="fill:rgb(0,0,0);font-family:URWPalladioL-Ital;font-size:7.97px;stroke:none;">12</text>
   <text y="62.979" x="137.41,139.4025,141.395,145.38,149.365,153.35,157.335,491.809,495.794,499.779,501.772,506.123,508.7531,510.77,514.755" svgx:width="0.25,0.55,0.5,0.5,0.5,0.5,0.55,0.5,0.5,0.55,0.55,0.33,0.55,0.5,0.5" style="fill:rgb(0,0,0);font-family:URWPalladioL-Roma;font-size:7.97px;stroke:none;">, 3464 17 of 32</text>
   <text y="97.848" x="76.535,81.516,84.007,88.988,91.478,94.966,101.611,106.034,108.804,111.573,115.997,118.766,123.748,128.171,130.9598,133.431,138.971,143.952,147.827,151.145,155.02,162.771" svgx:width="0.5,0.25,0.5,0.25,0.55,0.67,0.44,0.28,0.28,0.44,0.28,0.5,0.44,0.28,0.55,0.56,0.5,0.39,0.33,0.39,0.78,0.39" style="fill:rgb(0,0,0);font-family:URWPalladioL-Ital;font-size:9.96px;stroke:none;">4.3. Colloidal Systems</text>
   <text y="117.335" x="97.795,105.701,111.615,117.163,120.476,126.39,131.258,135.24200000000002,138.646,141.603,150.576,156.683,162.231,166.245,169.558,174.639,180.553,183.8398,187.229,192.31,198.225,204.3006,207.807,210.764,216.678,219.991,224.859,230.773,235.082,238.039,243.78,248.648,251.605,257.1826,260.618,264.927,268.24,274.367,280.576,283.533,288.401,294.4766,297.983,302.495,305.452,310.533,314.842,319.0252,322.524,328.073,331.3598,334.82,339.129,344.677,348.061,351.3478,354.748,363.721,368.802,372.114,375.427,380.295,384.279,387.672,391.981,397.631,401.939,405.252,410.12,418.8848,422.466,427.547,431.378,436.1588,439.62,444.131,449.68,452.637,455.594,461.142,464.099,470.308,475.389,478.2774,481.72,486.029,491.679,495.987,499.3,504.168,513.141,517.449" svgx:width="0.78,0.58,0.55,0.33,0.58,0.48,0.4,0.55,0.29,0.88,0.6,0.55,0.4,0.33,0.5,0.58,0.33,0.55,0.5,0.58,0.61,0.55,0.29,0.58,0.33,0.48,0.58,0.42,0.29,0.56,0.48,0.29,0.56,0.55,0.42,0.33,0.6,0.61,0.29,0.48,0.61,0.55,0.44,0.29,0.5,0.42,0.42,0.55,0.55,0.33,0.55,0.42,0.55,0.33,0.33,0.55,0.88,0.5,0.33,0.33,0.48,0.4,0.55,0.42,0.56,0.42,0.33,0.48,0.88,0.55,0.5,0.4,0.48,0.55,0.44,0.55,0.29,0.29,0.55,0.29,0.61,0.5,0.29,0.55,0.42,0.56,0.42,0.33,0.48,0.88,0.42,0.25" style="fill:rgb(0,0,0);font-family:URWPalladioL-Roma;font-size:9.96px;stroke:none;">Another important and intensively studied class of soft matter system are colloidal systems,</text>
   <text y="130.845" x="76.535,79.832,85.717,90.4978,93.038,99.135,105.021,107.963,113.626,119.724,124.5048,127.045,133.122,136.934,142.455,148.533,153.376,157.371,160.667,163.61,168.453,172.6362,175.218,180.74,184.0268,186.594,195.028,200.913,203.856,208.345,214.231,216.721,219.236,223.524,229.621,234.111,239.8878,242.474,247.53,251.7132,254.295,257.591,263.689,269.574,274.63,280.222,283.164,287.9448,290.486,296.563,302.448,307.969,311.266,316.787,322.672,325.615,329.9974,332.582,338.174,343.23,349.115,355.294,360.916,365.972,371.948,374.527,379.583,385.468,391.5436,394.124,397.946,402.79,407.077,413.155,418.676,424.561,428.849,433.6298,436.17,439.466,444.944,447.465,452.308,457.526,460.823,465.666,469.661,475.546,480.602,483.49039999999997,486.022,490.31,493.606,496.549,505.478,511.575,514.518,517.46" svgx:width="0.33,0.58,0.48,0.55,0.6,0.58,0.29,0.56,0.6,0.48,0.55,0.6,0.4,0.55,0.6,0.48,0.4,0.33,0.29,0.48,0.42,0.55,0.55,0.33,0.55,0.83,0.58,0.29,0.44,0.58,0.25,0.55,0.42,0.6,0.44,0.58,0.55,0.5,0.42,0.55,0.33,0.6,0.58,0.5,0.55,0.29,0.48,0.55,0.6,0.58,0.55,0.33,0.55,0.58,0.29,0.44,0.55,0.55,0.5,0.58,0.61,0.56,0.5,0.6,0.55,0.5,0.58,0.61,0.55,0.4,0.48,0.42,0.6,0.55,0.58,0.42,0.48,0.55,0.33,0.55,0.55,0.48,0.52,0.33,0.48,0.4,0.58,0.5,0.29,0.55,0.42,0.33,0.29,0.88,0.6,0.29,0.29,0.25" style="fill:rgb(0,0,0);font-family:URWPalladioL-Roma;font-size:9.96px;stroke:none;">the unique properties of which, such as tunable photonic bandgap and response to external stimuli,</text>
   <text y="144.354" x="76.535,85.508,90.589,96.239,101.0198,103.616,106.929,112.843,117.711,126.47579999999999,129.204,134.285,137.598,140.91,144.924,150.005,154.517,157.83,160.787,166.528,171.3088,173.906,177.29,182.838,186.822,189.362,198.335,203.416,209.33,214.9076,217.5,222.581,228.688,234.796,237.753,240.71,245.222,250.303,253.615,256.573,262.121,268.035,272.2182,274.854" svgx:width="0.88,0.5,0.56,0.48,0.55,0.33,0.58,0.48,0.88,0.55,0.5,0.33,0.33,0.4,0.5,0.44,0.33,0.29,0.56,0.48,0.55,0.33,0.55,0.4,0.55,0.88,0.5,0.58,0.56,0.55,0.5,0.6,0.6,0.29,0.29,0.44,0.5,0.33,0.29,0.55,0.58,0.42,0.55,0.33" style="fill:rgb(0,0,0);font-family:URWPalladioL-Roma;font-size:9.96px;stroke:none;">make them attractive for many applications [</text>
   <text y="144.354" x="278.238,283.219" svgx:width="0.5,0.5" style="fill:rgb(8,117,183);font-family:URWPalladioL-Roma;font-size:9.96px;stroke:none;">77</text>
   <text y="144.354" x="288.2" svgx:width="0.5" style="fill:rgb(0,0,0);font-family:URWPalladioL-Roma;font-size:9.96px;stroke:none;">–</text>
   <text y="144.354" x="293.281,298.262" svgx:width="0.5,0.5" style="fill:rgb(8,117,183);font-family:URWPalladioL-Roma;font-size:9.96px;stroke:none;">82</text>
   <text y="144.354" x="303.244,306.628,309.118,312.725,319.503,322.887,326.901,331.982,337.632,341.8152,344.45,349.531,353.372,358.1528,360.75,365.617,369.926,376.033,380.901,385.413,388.37,393.451,396.408,399.365,404.9426,407.525,416.0,420.867,423.825,426.7134,429.302,433.61,439.738,442.695,446.008,450.875,456.9506,459.594,462.978,468.527,472.51099999999997,475.05,479.359,482.672,486.604,492.732,497.244,500.557,506.684,510.698,515.779" svgx:width="0.33,0.25,0.55,0.67,0.33,0.4,0.5,0.56,0.42,0.55,0.5,0.4,0.48,0.55,0.48,0.42,0.6,0.48,0.44,0.29,0.5,0.29,0.29,0.56,0.55,0.83,0.48,0.29,0.29,0.55,0.42,0.6,0.29,0.33,0.48,0.61,0.55,0.33,0.55,0.4,0.55,0.42,0.33,0.4,0.6,0.44,0.33,0.6,0.4,0.5,0.29" style="fill:rgb(0,0,0);font-family:URWPalladioL-Roma;font-size:9.96px;stroke:none;">]. X-rays are especially well suited for structural</text>
   <text y="157.864" x="76.535,80.814,84.104,90.19,96.356,99.293,104.127,108.3102,110.909,116.419,119.7058,122.283,126.763,132.274,135.211,138.147,143.658,146.594,152.761,157.807,160.69539999999998,163.236,167.515,173.127,177.406,180.696,185.53,194.441,198.6242,201.223,207.389,213.475,218.2558,220.812,224.102,229.58,232.115,235.405,241.279,246.113,249.049,253.03300000000002,255.529,261.402,264.339,269.95,275.72679999999997,278.327,284.392,289.226,295.1,299.934,303.224,307.21,312.256,315.546,318.483,323.994,329.7708,332.37,335.307,340.141,346.014,351.626,354.916,360.789,363.279,366.824,375.221,380.731,389.148,393.982,399.684,404.518,407.768,410.258,412.794,416.084,421.958,426.7388,429.295,432.231,438.105,441.395,446.229,450.216,456.281,460.086,464.92,468.21,473.256,476.546,479.483,484.993,490.7698,493.369,498.88,502.1668,504.743,508.033,513.907" svgx:width="0.42,0.33,0.6,0.61,0.29,0.48,0.42,0.55,0.55,0.33,0.55,0.44,0.55,0.29,0.29,0.55,0.29,0.61,0.5,0.29,0.55,0.42,0.56,0.42,0.33,0.48,0.88,0.42,0.55,0.61,0.6,0.48,0.55,0.33,0.55,0.55,0.33,0.58,0.48,0.29,0.4,0.55,0.58,0.29,0.56,0.58,0.55,0.6,0.48,0.58,0.48,0.33,0.4,0.5,0.33,0.29,0.55,0.58,0.55,0.29,0.48,0.58,0.56,0.33,0.58,0.25,0.55,0.83,0.55,0.83,0.48,0.56,0.48,0.4,0.25,0.55,0.33,0.58,0.48,0.55,0.29,0.58,0.33,0.48,0.4,0.6,0.4,0.48,0.33,0.5,0.33,0.29,0.55,0.58,0.55,0.55,0.33,0.55,0.33,0.58,0.48" style="fill:rgb(0,0,0);font-family:URWPalladioL-Roma;font-size:9.96px;stroke:none;">studies of colloidal systems due to their high penetration length. However, the interpretation of the</text>
   <text y="171.373" x="76.535,80.814,85.295,90.341,93.631,96.921,101.755,105.742,108.678,114.552,120.12960000000001,122.646,128.812,133.858,137.148,142.128,144.687,148.048,151.852,157.363,168.757,174.338,180.423,183.36,188.9376,191.464,195.945,201.445,204.382,207.319,212.829,215.766,221.932,226.978,229.8664,232.408,236.889,240.875,246.486,250.765,254.055,259.101,262.038,266.2212,268.8,274.865,280.375,284.655,288.934,293.768,298.047,302.326,305.263,311.136,316.71360000000004,319.23,324.932,329.978,333.965,336.901,342.412,348.497,352.6802,355.269,361.435,366.269,369.63,374.464,378.945,382.235,386.4182,388.997,391.934,396.1172,398.695,404.781,409.06,415.146,420.192,423.128,426.065,431.6426,434.169,438.65,444.524,449.57,452.506,455.443,460.277,466.151,471.762,474.699,480.573,486.184,488.67400000000004,492.189,500.04,504.319,507.256,513.13" svgx:width="0.42,0.44,0.5,0.33,0.33,0.48,0.4,0.29,0.58,0.56,0.55,0.61,0.5,0.33,0.5,0.55,0.33,0.4,0.55,0.88,0.55,0.6,0.29,0.56,0.55,0.44,0.55,0.29,0.29,0.55,0.29,0.61,0.5,0.29,0.55,0.44,0.4,0.56,0.42,0.33,0.5,0.29,0.42,0.55,0.6,0.55,0.42,0.42,0.48,0.42,0.42,0.29,0.58,0.56,0.55,0.56,0.5,0.4,0.29,0.55,0.6,0.42,0.55,0.61,0.48,0.33,0.48,0.44,0.33,0.42,0.55,0.29,0.42,0.55,0.6,0.42,0.6,0.5,0.29,0.29,0.56,0.55,0.44,0.58,0.5,0.29,0.29,0.48,0.58,0.56,0.29,0.58,0.56,0.25,0.55,0.78,0.42,0.29,0.58,0.56" style="fill:rgb(0,0,0);font-family:URWPalladioL-Roma;font-size:9.96px;stroke:none;">scattering data frombulk colloidal crystals possessing various defects is usually challenging. Using</text>
   <text y="184.882" x="76.535,80.87,86.201,91.883,96.56,100.24,104.917,110.599,113.8858,115.862,122.374,125.625,129.482,134.363,139.9406,141.871,147.837" svgx:width="0.44,0.55,0.58,0.48,0.4,0.48,0.58,0.33,0.55,0.67,0.33,0.4,0.5,0.56,0.55,0.61,0.29" style="fill:rgb(0,0,0);font-family:URWPalladioL-Roma;font-size:9.96px;stroke:none;">coherent X-ray di</text>
   <text y="184.882" x="150.676" svgx:width="0.61" style="fill:rgb(0,0,0);font-family:Rpxr;font-size:9.96px;stroke:none;">ﬀ</text>
   <text y="184.882" x="156.612,160.469,165.35,169.685,172.868,175.709,181.04,186.722,189.21200000000002,191.321,194.162,197.4488,199.424,207.567,212.449,216.6322,218.678,224.643,229.32,237.941,243.271,248.954,253.093,256.276,260.133,265.014,268.197,272.874,278.94960000000003,280.919,284.102,289.784,294.666,297.9528,299.928,307.524,314.036,320.958,327.881,337.556,340.397,344.5802,346.617,350.951,355.833,361.701,366.583,371.982,374.823,379.6038,381.579,384.762,390.24,392.172,398.138,402.814,405.997,410.674,415.009,418.29580000000004,420.271,423.942,429.273,432.456,437.338,440.52,443.362,448.692,454.375,459.256,462.14439999999996,464.187,468.326,473.755,482.376,490.997,495.674,498.847,502.703,508.2806,510.221,513.062" svgx:width="0.4,0.5,0.44,0.33,0.29,0.55,0.58,0.25,0.55,0.29,0.33,0.55,0.83,0.5,0.42,0.55,0.61,0.48,0.88,0.55,0.58,0.42,0.33,0.4,0.5,0.33,0.48,0.61,0.55,0.33,0.58,0.5,0.33,0.55,0.78,0.67,0.71,0.71,0.78,0.29,0.42,0.55,0.44,0.5,0.6,0.5,0.55,0.29,0.48,0.55,0.33,0.55,0.55,0.61,0.48,0.33,0.48,0.44,0.33,0.55,0.4,0.55,0.33,0.5,0.33,0.29,0.55,0.58,0.5,0.29,0.55,0.42,0.56,0.88,0.88,0.48,0.33,0.4,0.56,0.55,0.29,0.58" style="fill:rgb(0,0,0);font-family:URWPalladioL-Roma;font-size:9.96px;stroke:none;">raction, it was demonstrated that AXCCAis capable to detect rotational symmetry in</text>
   <text y="198.392" x="76.535,81.515,83.828,86.669,92.0,96.335,101.217,104.1054,106.469,111.351,115.208,119.064,123.946,129.628,135.057,139.733,148.354,153.031,158.713,161.9998,164.307,169.638,172.9248,175.301,179.636,184.967,187.808,190.649,195.98,198.821,204.786,209.668,212.5564,214.93,220.798,225.68,229.536,232.719,235.56,239.895,242.736,247.413,251.5962,253.964,258.641,264.157,268.834,274.6108,276.928,279.769,285.5458,287.863,291.046,296.728,299.569,303.904,309.4816,311.744,316.079,321.41,324.251,327.092,332.423,335.264,341.229,346.111,348.9994,351.364,357.27,360.112,368.733,372.9162,375.284" svgx:width="0.5,0.55,0.29,0.55,0.44,0.5,0.29,0.55,0.5,0.4,0.4,0.5,0.58,0.56,0.48,0.88,0.48,0.58,0.33,0.55,0.55,0.33,0.55,0.44,0.55,0.29,0.29,0.55,0.29,0.61,0.5,0.29,0.55,0.6,0.5,0.4,0.33,0.29,0.44,0.29,0.48,0.42,0.55,0.48,0.56,0.48,0.58,0.55,0.29,0.58,0.55,0.33,0.58,0.29,0.44,0.56,0.55,0.44,0.55,0.29,0.29,0.55,0.29,0.61,0.5,0.29,0.55,0.61,0.29,0.88,0.42,0.55,0.33" style="fill:rgb(0,0,0);font-family:URWPalladioL-Roma;font-size:9.96px;stroke:none;">a local arrangement of colloidal particles even in thick colloidal ﬁlms [</text>
   <text y="198.392" x="378.537,383.518" svgx:width="0.5,0.5" style="fill:rgb(8,117,183);font-family:URWPalladioL-Roma;font-size:9.96px;stroke:none;">12</text>
   <text y="198.392" x="388.5,391.751,394.241,397.648,400.939,406.7158,409.042,413.377,418.708,424.39,427.573,431.429,436.311,440.451,443.73780000000005,446.045,449.228,454.706,456.97,460.153,465.836,470.6168,472.924,478.792,482.472,487.149,492.665,495.506,500.837,506.724,510.864,513.695" svgx:width="0.33,0.25,0.55,0.34,0.58,0.55,0.44,0.55,0.58,0.33,0.4,0.5,0.42,0.33,0.55,0.33,0.55,0.55,0.33,0.58,0.48,0.55,0.6,0.4,0.48,0.56,0.29,0.55,0.6,0.42,0.29,0.56" style="fill:rgb(0,0,0);font-family:URWPalladioL-Roma;font-size:9.96px;stroke:none;">]. In contrast to the previously</text>
   <text y="211.901" x="76.535,82.5,85.342,89.481,93.816,99.703,103.843,107.983,112.659,118.7346,121.027,126.992,134.0636,136.316,140.456,145.884,150.024,153.207,157.883,166.504,170.6872,173.046,181.188,184.029,187.212,192.9888,195.296,198.479,204.161,208.9418,211.24,214.081,219.412,225.094,230.523,233.774,237.63,242.512,248.194,253.623,258.4038,260.701,266.666,276.742,282.073,285.754,291.719,296.396,299.51,302.0,304.372,307.214,312.9908,315.298,323.44,329.123,331.964,336.299,342.07579999999996,344.383,347.566,353.248,358.0288,360.326,365.208,370.89,373.731,377.871,383.202,386.385,390.056,395.386,401.254,406.83160000000004,409.084,414.415,417.70180000000005,420.068,423.251,428.933,433.7138,436.012,441.977" svgx:width="0.61,0.29,0.42,0.44,0.6,0.42,0.42,0.48,0.61,0.55,0.61,0.71,0.55,0.42,0.56,0.42,0.33,0.48,0.88,0.42,0.55,0.83,0.29,0.33,0.58,0.55,0.33,0.58,0.48,0.55,0.29,0.55,0.58,0.56,0.33,0.4,0.5,0.58,0.56,0.48,0.55,0.61,0.79,0.55,0.4,0.61,0.48,0.4,0.25,0.55,0.29,0.58,0.55,0.83,0.58,0.29,0.44,0.58,0.55,0.33,0.58,0.48,0.55,0.5,0.58,0.29,0.42,0.55,0.33,0.4,0.55,0.6,0.56,0.55,0.55,0.33,0.55,0.33,0.58,0.48,0.55,0.61,0.29" style="fill:rgb(0,0,0);font-family:URWPalladioL-Roma;font-size:9.96px;stroke:none;">discussed LC systems with the long-range BOorder, in which the anisotropy of the di</text>
   <text y="211.901" x="444.823" svgx:width="0.61" style="fill:rgb(0,0,0);font-family:Rpxr;font-size:9.96px;stroke:none;">ﬀ</text>
   <text y="211.901" x="450.759,454.616,459.497,463.832,467.015,469.856,475.187,480.9638,483.271,489.139,494.02,497.203,500.386,505.063,508.919,514.602" svgx:width="0.4,0.5,0.44,0.33,0.29,0.55,0.58,0.55,0.6,0.5,0.33,0.33,0.48,0.4,0.58,0.42" style="fill:rgb(0,0,0);font-family:URWPalladioL-Roma;font-size:9.96px;stroke:none;">raction patterns</text>
   <text y="225.411" x="76.535,80.87,85.752,91.52879999999999,93.689,99.088,103.8688,106.03,111.361,114.612,117.795,122.472,128.2488,130.409,135.086,139.967,144.107,146.948,149.789,155.36659999999998,157.483,160.324,166.289,170.966,176.648,179.831,182.672,188.579,193.256,199.3316,201.477,206.876,212.4536,214.569,217.742,223.425,228.2058,230.366,236.254,241.936,246.818,249.659,255.624,260.301,266.3766,268.521,273.198,278.627,283.303,285.793,288.048,291.231,296.913,301.6938,303.855,308.19,313.521,319.203,323.88,327.56,332.237,337.919,341.2058,343.358,349.323" svgx:width="0.44,0.5,0.58,0.55,0.55,0.48,0.55,0.55,0.33,0.33,0.48,0.58,0.55,0.48,0.5,0.42,0.29,0.29,0.56,0.55,0.29,0.61,0.48,0.58,0.33,0.29,0.61,0.48,0.61,0.55,0.55,0.56,0.55,0.33,0.58,0.48,0.55,0.6,0.58,0.5,0.29,0.61,0.48,0.61,0.55,0.48,0.56,0.48,0.25,0.55,0.33,0.58,0.48,0.55,0.44,0.55,0.58,0.48,0.4,0.48,0.58,0.33,0.55,0.61,0.29" style="fill:rgb(0,0,0);font-family:URWPalladioL-Roma;font-size:9.96px;stroke:none;">can be often easily identiﬁed by the unaided eye, the coherent di</text>
   <text y="225.411" x="352.164" svgx:width="0.61" style="fill:rgb(0,0,0);font-family:Rpxr;font-size:9.96px;stroke:none;">ﬀ</text>
   <text y="225.411" x="358.1,361.957,366.838,371.173,374.356,377.197,382.528,388.3048,390.466,396.333,401.215,404.398,407.581,412.257,416.114,421.796,425.9792,428.201,431.452,435.123,440.454,451.34,455.675,461.006,463.847,466.688,472.019,474.86,480.825,485.0082,487.22,493.108,497.247,503.135,508.016,510.857,513.698" svgx:width="0.4,0.5,0.44,0.33,0.29,0.55,0.58,0.55,0.6,0.5,0.33,0.33,0.48,0.4,0.58,0.42,0.55,0.33,0.4,0.55,0.88,0.44,0.55,0.29,0.29,0.55,0.29,0.61,0.42,0.55,0.6,0.42,0.6,0.5,0.29,0.29,0.56" style="fill:rgb(0,0,0);font-family:URWPalladioL-Roma;font-size:9.96px;stroke:none;">raction patterns fromcolloids usually</text>
   <text y="238.92" x="76.535,80.927,86.329,92.087,96.281,99.16,103.355,106.6418,109.063,114.464,117.7508,120.242,123.467,129.224,134.0048,136.446,141.393,147.338,153.284,158.23,161.96,166.699,172.456,175.681,178.56,184.1376,186.544,190.451,195.398,201.155,207.2,212.601,223.82,228.014,233.96,238.699,243.091,248.592,251.47,256.209,260.3922,262.887,267.833,270.712,276.114,281.871,287.4486,289.845,293.07,298.828,303.6088,306.049,310.244,314.636,319.583,322.808,326.033,330.772,334.679,337.558,343.316,348.8936,351.299,355.207,358.086,363.843,369.344,371.834,375.309,381.374,387.131,393.097,397.291,399.781,402.248,409.944,416.543,423.557,430.571,438.3398,440.751,443.629,447.8122,450.307,453.186,458.96279999999996,461.417,470.152,475.099,480.856,486.4336,488.84,493.232,498.179,502.373,507.112,511.2952,513.79" svgx:width="0.44,0.55,0.58,0.42,0.29,0.42,0.33,0.55,0.55,0.33,0.55,0.33,0.58,0.48,0.55,0.5,0.6,0.6,0.5,0.4,0.48,0.58,0.33,0.29,0.56,0.55,0.4,0.5,0.58,0.61,0.55,0.88,0.42,0.6,0.48,0.44,0.56,0.29,0.48,0.42,0.55,0.5,0.29,0.55,0.58,0.56,0.55,0.33,0.58,0.48,0.55,0.42,0.44,0.5,0.33,0.33,0.48,0.4,0.29,0.58,0.56,0.55,0.4,0.29,0.58,0.56,0.25,0.55,0.61,0.58,0.6,0.42,0.25,0.55,0.78,0.67,0.71,0.71,0.78,0.55,0.29,0.42,0.55,0.29,0.58,0.55,0.88,0.5,0.58,0.56,0.55,0.44,0.5,0.42,0.48,0.42,0.55,0.5" style="fill:rgb(0,0,0);font-family:URWPalladioL-Roma;font-size:9.96px;stroke:none;">consist of the apparently randomspeckles along the scattering ring. Thus, AXCCA is in many cases a</text>
   <text y="252.429" x="76.535,82.542,88.341,91.24,96.819,102.826,107.60679999999999,110.089,113.337,118.109,122.532,128.331,134.129,137.028,142.607,148.614,153.3948,155.877,164.186,169.984,172.883,177.307,183.0838,185.596,190.577,193.476,196.375,201.815,210.123,214.3062,216.838,222.278,228.076,232.8568,235.339,238.587,244.065,246.517,250.741,253.989,259.996,266.083,271.66060000000004,274.113,277.361,283.159,287.9398,290.422,293.321,298.761,303.184,308.165,311.0534,313.555,318.995,322.751,328.838,333.61,337.594,340.036,342.935,348.7118,351.224,355.647,361.087,363.986,366.885,372.325,375.224,381.311,385.4942,388.026" svgx:width="0.6,0.58,0.29,0.56,0.6,0.48,0.55,0.33,0.48,0.44,0.58,0.58,0.29,0.56,0.6,0.48,0.55,0.83,0.58,0.29,0.44,0.58,0.55,0.5,0.29,0.29,0.55,0.83,0.42,0.55,0.55,0.58,0.48,0.55,0.33,0.55,0.55,0.42,0.33,0.6,0.61,0.56,0.55,0.33,0.58,0.48,0.55,0.29,0.55,0.44,0.5,0.29,0.55,0.55,0.4,0.61,0.48,0.4,0.55,0.29,0.58,0.55,0.44,0.55,0.29,0.29,0.55,0.29,0.61,0.42,0.55,0.33" style="fill:rgb(0,0,0);font-family:URWPalladioL-Roma;font-size:9.96px;stroke:none;">unique technique which allows one to study the local order in colloids [</text>
   <text y="252.429" x="391.343,396.325" svgx:width="0.5,0.5" style="fill:rgb(8,117,183);font-family:URWPalladioL-Roma;font-size:9.96px;stroke:none;">83</text>
   <text y="252.429" x="401.306,404.623" svgx:width="0.33,0.25" style="fill:rgb(0,0,0);font-family:URWPalladioL-Roma;font-size:9.96px;stroke:none;">].</text>
   <text y="265.939" x="97.795,101.22,106.9968,110.142,113.973,118.84,122.224,127.092,130.923,135.79,141.704,146.216,150.9968,154.092" svgx:width="0.34,0.58,0.55,0.4,0.48,0.33,0.48,0.4,0.48,0.58,0.44,0.48,0.55,0.33" style="fill:rgb(0,0,0);font-family:URWPalladioL-Roma;font-size:9.96px;stroke:none;">In reference [</text>
   <text y="265.939" x="157.474,162.455" svgx:width="0.5,0.5" style="fill:rgb(8,117,183);font-family:URWPalladioL-Roma;font-size:9.96px;stroke:none;">84</text>
   <text y="265.939" x="167.437,170.821,173.311,176.491,183.269,186.653,190.667,195.748,201.32559999999998,204.406,210.615" svgx:width="0.33,0.25,0.55,0.67,0.33,0.4,0.5,0.56,0.55,0.61,0.29" style="fill:rgb(0,0,0);font-family:URWPalladioL-Roma;font-size:9.96px;stroke:none;">], X-ray di</text>
   <text y="265.939" x="213.569" svgx:width="0.61" style="fill:rgb(0,0,0);font-family:Rpxr;font-size:9.96px;stroke:none;">ﬀ</text>
   <text y="265.939" x="219.748,223.762,228.843,233.355,236.667,239.625,245.173,250.9498,254.095,262.57,265.527,268.84,274.61679999999996,277.752,282.732,285.841,290.922,296.003,300.983,304.081,309.995,318.7598,321.976,327.596,332.463,337.544,346.30879999999996,349.515,357.99,363.071,367.2542,370.387,374.899,380.448,389.42,395.04,397.997,403.911,408.779,414.8546,417.996,426.47,429.428,432.74,438.5168,441.652,449.558,456.336,463.541,470.746,478.5148,481.659,484.972,490.45,493.518,497.827,501.14,507.267,513.476" svgx:width="0.4,0.5,0.44,0.33,0.29,0.55,0.58,0.55,0.83,0.29,0.33,0.58,0.55,0.5,0.55,0.5,0.5,0.5,0.55,0.58,0.88,0.55,0.55,0.48,0.5,0.88,0.55,0.83,0.5,0.42,0.55,0.44,0.55,0.88,0.55,0.29,0.58,0.48,0.61,0.55,0.83,0.29,0.33,0.58,0.55,0.78,0.67,0.71,0.71,0.78,0.55,0.33,0.55,0.55,0.42,0.33,0.6,0.61,0.56" style="fill:rgb(0,0,0);font-family:URWPalladioL-Roma;font-size:9.96px;stroke:none;">raction with a 400 nm beam was combined with AXCCA to study</text>
   <text y="279.448" x="76.535,79.806,85.644,90.4248,92.948,97.202,100.472,104.355,110.404,114.859,118.129,124.179,127.961,132.7418,135.254,140.732,144.0188,146.571,151.551,154.085,160.215,164.178,169.7556,172.244,176.698,182.176,185.095,188.014,193.492,196.411,202.541,207.557,210.44539999999998,212.975,219.044,221.964,233.32,237.775,243.252,249.091,253.345,256.264,260.518,263.789,266.708,272.547,278.12460000000004,280.613,286.09,289.3768,291.929,296.183,302.212,308.051,312.857,316.819,319.739,324.193,329.209,332.0974,334.617,338.871,341.79,344.709,347.629,352.083,357.06300000000005,359.597,365.436,370.452,376.291,381.769,387.798,392.814,396.777,400.048,402.967,407.421,410.341,415.146,419.3292,421.898,427.376,430.6628,433.204,438.221,443.237,445.745,450.725,453.259,458.275,464.114,470.1896,472.742,477.758,482.774,485.282,490.262,492.787,498.625,509.982,512.901" svgx:width="0.33,0.58,0.48,0.55,0.42,0.33,0.4,0.6,0.44,0.33,0.6,0.4,0.48,0.55,0.55,0.33,0.55,0.5,0.55,0.61,0.4,0.56,0.55,0.44,0.55,0.29,0.29,0.55,0.29,0.61,0.5,0.29,0.55,0.61,0.29,0.88,0.44,0.55,0.58,0.42,0.29,0.42,0.33,0.29,0.58,0.56,0.55,0.55,0.33,0.55,0.42,0.6,0.58,0.48,0.4,0.29,0.44,0.5,0.29,0.55,0.42,0.29,0.29,0.29,0.44,0.5,0.55,0.58,0.5,0.58,0.55,0.6,0.5,0.4,0.33,0.29,0.44,0.29,0.48,0.42,0.55,0.55,0.33,0.55,0.5,0.5,0.25,0.5,0.55,0.5,0.58,0.61,0.55,0.5,0.5,0.25,0.5,0.55,0.58,0.88,0.29,0.58" style="fill:rgb(0,0,0);font-family:URWPalladioL-Roma;font-size:9.96px;stroke:none;">the structure of a dry colloidal ﬁlmconsisting of spherical silica nanoparticles of 19.3 and 12.2 nmin</text>
   <text y="292.958" x="76.535,82.64,85.548,90.544,99.368,104.154,107.412,112.198,115.406,117.896,121.391,129.165,135.171,141.176,144.084,149.64,152.548,158.363,163.9406,166.407,174.182,180.847,187.931,195.016,202.7848,205.278,208.536,214.014,216.49,219.398,225.213,231.319,234.226,239.872,242.78,248.885,254.911,259.907,262.7954,265.303,271.408" svgx:width="0.61,0.29,0.5,0.88,0.48,0.33,0.48,0.4,0.25,0.55,0.78,0.6,0.6,0.29,0.56,0.29,0.58,0.56,0.55,0.78,0.67,0.71,0.71,0.78,0.55,0.33,0.55,0.55,0.29,0.58,0.61,0.29,0.56,0.29,0.61,0.6,0.5,0.29,0.55,0.61,0.29" style="fill:rgb(0,0,0);font-family:URWPalladioL-Roma;font-size:9.96px;stroke:none;">diameter. Applying AXCCA to individual di</text>
   <text y="292.958" x="274.313" svgx:width="0.61" style="fill:rgb(0,0,0);font-family:Rpxr;font-size:9.96px;stroke:none;">ﬀ</text>
   <text y="292.958" x="280.389,284.336,289.332,293.769,297.026,299.934,305.39,311.16679999999997,313.694,319.699,324.696,327.953,331.211,335.997,339.944,345.76,349.9432,352.485,357.481,363.297,369.37260000000003,371.89,376.327,381.783,384.691,387.598,392.385,396.821,400.079,402.987,408.802,414.37960000000004,416.856,422.962,427.958,431.216,436.196,438.7,443.696,446.98280000000005,449.442,455.547" svgx:width="0.4,0.5,0.44,0.33,0.29,0.55,0.58,0.55,0.6,0.5,0.33,0.33,0.48,0.4,0.58,0.42,0.55,0.5,0.58,0.61,0.55,0.44,0.55,0.29,0.29,0.48,0.44,0.33,0.29,0.58,0.56,0.55,0.61,0.5,0.33,0.5,0.55,0.5,0.33,0.55,0.61,0.29" style="fill:rgb(0,0,0);font-family:URWPalladioL-Roma;font-size:9.96px;stroke:none;">raction patterns and collecting data at di</text>
   <text y="292.958" x="458.454" svgx:width="0.61" style="fill:rgb(0,0,0);font-family:Rpxr;font-size:9.96px;stroke:none;">ﬀ</text>
   <text y="292.958" x="464.529,469.315,473.083,477.869,483.685,486.97180000000003,489.43,493.667,499.673,504.669,507.926,510.834,515.83" svgx:width="0.48,0.4,0.48,0.58,0.33,0.55,0.42,0.6,0.5,0.33,0.29,0.5,0.29" style="fill:rgb(0,0,0);font-family:URWPalladioL-Roma;font-size:9.96px;stroke:none;">erent spatial</text>
   <text y="306.467" x="76.236,82.343,87.892,92.2,95.157,98.47,101.427,106.976,112.89,117.0732,119.871,125.419,131.1958,134.016,137.329,143.243,148.0238,150.783,155.092,160.173,169.146,175.253,178.21,183.078,185.568,188.342,191.654,197.568,202.3488,205.109,210.19,216.317,219.63,225.544,231.092,235.106,239.2892,242.088,250.563,255.43,259.271,264.0518,266.811,271.892,277.512,280.469,285.2498,288.009,291.322,296.8,299.543,305.091,310.711,315.019,319.887,323.901,329.642,334.4228,337.192,341.704,347.618,352.699,358.614,364.264,369.131,373.31419999999997,376.112,381.661,384.94780000000003,387.717,391.03,396.944,401.7248,404.494,409.006,414.555,417.512,420.469,426.017,428.974,435.183,440.264,443.1524,445.894,450.406,454.419,460.069,464.378,467.691,472.772,475.6604,478.401,482.71,486.023,489.956,496.083,500.595,503.908,510.035,513.877" svgx:width="0.6,0.55,0.42,0.29,0.33,0.29,0.55,0.58,0.42,0.55,0.55,0.58,0.55,0.33,0.58,0.48,0.55,0.42,0.5,0.88,0.6,0.29,0.48,0.25,0.55,0.33,0.58,0.48,0.55,0.5,0.6,0.33,0.58,0.55,0.4,0.42,0.55,0.83,0.48,0.4,0.48,0.55,0.5,0.55,0.29,0.48,0.55,0.33,0.55,0.55,0.55,0.55,0.42,0.48,0.4,0.56,0.48,0.55,0.44,0.58,0.5,0.58,0.56,0.48,0.42,0.55,0.55,0.33,0.55,0.33,0.58,0.48,0.55,0.44,0.55,0.29,0.29,0.55,0.29,0.61,0.5,0.29,0.55,0.44,0.4,0.56,0.42,0.33,0.5,0.29,0.55,0.42,0.33,0.4,0.6,0.44,0.33,0.6,0.4,0.48" style="fill:rgb(0,0,0);font-family:URWPalladioL-Roma;font-size:9.96px;stroke:none;">positions on the sample, the authors were able to observe changes of the colloidal crystal structure</text>
   <text y="319.976" x="76.535,82.007,87.67,92.471,96.455,98.925,102.192,108.025,112.8058,115.312,119.561,124.011,129.022,134.855,140.688,145.489,151.5646,154.108,159.119,162.898,167.699,172.71,175.20000000000002,178.703,182.081,187.8578,190.399,195.972,198.888,204.461,210.504,214.293" svgx:width="0.55,0.56,0.48,0.4,0.55,0.33,0.58,0.48,0.55,0.42,0.44,0.5,0.58,0.58,0.48,0.61,0.55,0.5,0.4,0.48,0.5,0.25,0.55,0.34,0.58,0.55,0.56,0.29,0.56,0.6,0.4,0.48" style="fill:rgb(0,0,0);font-family:URWPalladioL-Roma;font-size:9.96px;stroke:none;">over the scanned area. In Figure</text>
   <text y="319.976" x="221.579,226.59" svgx:width="0.5,0.5" style="fill:rgb(8,117,183);font-family:URWPalladioL-Roma;font-size:9.96px;stroke:none;">12</text>
   <text y="319.976" x="231.601,234.091,236.602,239.87,245.703,250.4838,252.989,257.238,263.262,268.273,271.54,274.457,279.468,282.385,285.301,290.8786,293.369,297.148,301.948,306.198,311.67,314.587,320.249,325.05,331.1256,333.659,342.509,347.52,353.543,357.7262,360.289,365.761,369.04780000000005,371.584,374.851,383.21,388.688,391.178,396.189,402.022,407.594,413.638,416.554,421.565,425.549,428.02,433.592,439.064,445.108,449.067,451.983,456.784,460.768,463.228,467.678,473.151,482.0,488.024,493.496,499.329,504.13,509.963,513.23,517.479" svgx:width="0.25,0.55,0.33,0.58,0.48,0.55,0.42,0.6,0.5,0.33,0.29,0.5,0.29,0.29,0.56,0.55,0.4,0.48,0.42,0.55,0.29,0.56,0.48,0.61,0.55,0.88,0.5,0.6,0.42,0.55,0.55,0.33,0.55,0.33,0.83,0.55,0.55,0.5,0.58,0.56,0.6,0.29,0.5,0.4,0.55,0.56,0.55,0.6,0.4,0.29,0.48,0.4,0.55,0.44,0.55,0.88,0.6,0.55,0.58,0.48,0.58,0.33,0.42,0.25" style="fill:rgb(0,0,0);font-family:URWPalladioL-Roma;font-size:9.96px;stroke:none;">, the spatially resolved maps of two angular Fourier components,</text>
   <text y="337.836" x="76.535,81.212,86.728,91.61,94.451,100.338,105.22,108.403,113.079,119.15459999999999,121.525,126.924,132.5016,134.832,142.428,148.94,155.862,162.784,172.86,177.742" svgx:width="0.48,0.56,0.5,0.29,0.6,0.5,0.33,0.48,0.61,0.55,0.55,0.56,0.55,0.78,0.67,0.71,0.71,0.78,0.5,0.42" style="fill:rgb(0,0,0);font-family:URWPalladioL-Roma;font-size:9.96px;stroke:none;">evaluated by AXCCAas</text>
   <text y="328.251" code="12" x="184.367" svgx:width="0.24" style="fill:rgb(0,0,0);font-family:Pxex;font-size:9.96px;stroke:none;">?</text>
   <text y="332.715" code="12" x="184.367" svgx:width="0.24" style="fill:rgb(0,0,0);font-family:Pxex;font-size:9.96px;stroke:none;">?</text>
   <text y="337.178" code="12" x="184.367" svgx:width="0.24" style="fill:rgb(0,0,0);font-family:Pxex;font-size:9.96px;stroke:none;">?</text>
   <text y="335.654" x="187.451" svgx:width="0.33" style="fill:rgb(0,0,0);font-family:URWPalladioL-Roma;font-size:9.96px;stroke:none;">ˆ</text>
   <text y="337.836" x="186.798" svgx:width="0.33" style="fill:rgb(0,0,0);font-family:URWPalladioL-Ital;font-size:9.96px;stroke:none;">I</text>
   <text y="339.871" x="190.116" svgx:width="0.28" style="fill:rgb(0,0,0);font-family:URWPalladioL-Ital;font-size:7.57px;stroke:none;">l</text>
   <text y="337.731" x="192.843" svgx:width="0.39" style="fill:rgb(0,0,0);font-family:CMR10;font-size:10.38px;stroke:none;">(</text>
   <text y="337.836" x="196.992" svgx:width="0.78" style="fill:rgb(0,0,0);font-family:URWPalladioL-Ital;font-size:9.96px;stroke:none;">Q</text>
   <text y="337.731" x="204.868" svgx:width="0.39" style="fill:rgb(0,0,0);font-family:CMR10;font-size:10.38px;stroke:none;">)</text>
   <text y="328.252" code="12" x="209.017" svgx:width="0.24" style="fill:rgb(0,0,0);font-family:Pxex;font-size:9.96px;stroke:none;">?</text>
   <text y="332.715" code="12" x="209.017" svgx:width="0.24" style="fill:rgb(0,0,0);font-family:Pxex;font-size:9.96px;stroke:none;">?</text>
   <text y="337.178" code="12" x="209.017" svgx:width="0.24" style="fill:rgb(0,0,0);font-family:Pxex;font-size:9.96px;stroke:none;">?</text>
   <text y="337.836" x="214.34" svgx:width="0.78" style="fill:rgb(0,0,0);font-family:CMR10;font-size:10.38px;stroke:none;">=</text>
   <text y="324.963" code="113" x="226.962" svgx:width="0.87" style="fill:rgb(0,0,0);font-family:Pxex;font-size:9.96px;stroke:none;">?</text>
  </g>
  <path style="fill:none;stroke:rgb(0,0,0);stroke-width:1.0;" d="M235.6 324.67 L261.149 324.67 "/>
  <g begin="text">
   <text y="335.469" x="238.01" svgx:width="0.33" style="fill:rgb(0,0,0);font-family:URWPalladioL-Roma;font-size:9.96px;stroke:none;">ˆ</text>
   <text y="337.836" x="235.599" svgx:width="0.67" style="fill:rgb(0,0,0);font-family:URWPalladioL-Ital;font-size:9.96px;stroke:none;">C</text>
   <text y="339.871" x="242.244" svgx:width="0.28" style="fill:rgb(0,0,0);font-family:URWPalladioL-Ital;font-size:7.57px;stroke:none;">l</text>
   <text y="337.731" x="244.972" svgx:width="0.39" style="fill:rgb(0,0,0);font-family:CMR10;font-size:10.38px;stroke:none;">(</text>
   <text y="337.836" x="249.121" svgx:width="0.78" style="fill:rgb(0,0,0);font-family:URWPalladioL-Ital;font-size:9.96px;stroke:none;">Q</text>
   <text y="337.731" x="256.997" svgx:width="0.39" style="fill:rgb(0,0,0);font-family:CMR10;font-size:10.38px;stroke:none;">)</text>
   <text y="337.836" x="261.146,263.636,266.067,274.209,279.892,284.568,288.249" svgx:width="0.25,0.55,0.83,0.58,0.48,0.4,0.48" style="fill:rgb(0,0,0);font-family:URWPalladioL-Roma;font-size:9.96px;stroke:none;">, where</text>
   <text y="335.469" x="297.818" svgx:width="0.33" style="fill:rgb(0,0,0);font-family:URWPalladioL-Roma;font-size:9.96px;stroke:none;">ˆ</text>
   <text y="337.836" x="295.407" svgx:width="0.67" style="fill:rgb(0,0,0);font-family:URWPalladioL-Ital;font-size:9.96px;stroke:none;">C</text>
   <text y="339.871" x="302.052" svgx:width="0.28" style="fill:rgb(0,0,0);font-family:URWPalladioL-Ital;font-size:7.57px;stroke:none;">l</text>
   <text y="337.731" x="304.78" svgx:width="0.39" style="fill:rgb(0,0,0);font-family:CMR10;font-size:10.38px;stroke:none;">(</text>
   <text y="337.836" x="308.929" svgx:width="0.78" style="fill:rgb(0,0,0);font-family:URWPalladioL-Ital;font-size:9.96px;stroke:none;">Q</text>
   <text y="337.731" x="316.804" svgx:width="0.39" style="fill:rgb(0,0,0);font-family:CMR10;font-size:10.38px;stroke:none;">)</text>
   <text y="337.836" x="323.435,328.317,331.997,336.7778,339.154,342.337,348.019,352.7998,355.176,359.511,364.841,368.698,372.379,377.055,381.195,387.063,392.394,398.076,404.041,406.882,412.565,418.1426,420.473,425.901,431.232,437.119,440.976,443.817,448.494,452.478,454.83,459.165,464.496,473.117,478.985,484.315,489.998,494.674,500.357,503.54,507.7232,510.159,515.49" svgx:width="0.5,0.4,0.48,0.55,0.33,0.58,0.48,0.55,0.44,0.55,0.4,0.4,0.48,0.42,0.6,0.55,0.58,0.61,0.29,0.58,0.56,0.55,0.56,0.55,0.6,0.4,0.29,0.48,0.4,0.55,0.44,0.55,0.88,0.6,0.55,0.58,0.48,0.58,0.33,0.42,0.55,0.55,0.33" style="fill:rgb(0,0,0);font-family:URWPalladioL-Roma;font-size:9.96px;stroke:none;">are the corresponding Fourier components of</text>
   <text y="353.359" x="76.535,79.848,85.762,90.5428,93.292,99.206,104.754,108.768,117.741,122.822,125.779,128.736,133.817,138.685,144.7606,147.556,154.761,161.966,166.701,169.191,171.904,176.985,180.826,185.6068,188.356,192.665,198.579,204.127,212.602,218.516,221.006,225.061,231.29,237.204,241.9848,244.734,249.043,252.0,257.65,263.564,268.645,271.5334,274.264,279.345" svgx:width="0.33,0.58,0.48,0.55,0.58,0.55,0.4,0.88,0.5,0.29,0.29,0.5,0.48,0.61,0.55,0.71,0.71,0.56,0.25,0.55,0.5,0.4,0.48,0.55,0.42,0.58,0.55,0.83,0.58,0.25,0.55,0.61,0.58,0.48,0.55,0.42,0.29,0.56,0.58,0.5,0.29,0.55,0.5,0.33" style="fill:rgb(0,0,0);font-family:URWPalladioL-Roma;font-size:9.96px;stroke:none;">the normalized CCF, are shown. The signal at</text>
   <text y="353.359" x="285.325" svgx:width="0.78" style="fill:rgb(0,0,0);font-family:URWPalladioL-Ital;font-size:9.96px;stroke:none;">Q</text>
   <text y="355.167" x="293.076" svgx:width="0.5" style="fill:rgb(0,0,0);font-family:URWPalladioL-Roma;font-size:7.57px;stroke:none;">1</text>
   <text y="353.359" x="300.492" svgx:width="0.78" style="fill:rgb(0,0,0);font-family:CMR10;font-size:10.38px;stroke:none;">=</text>
   <text y="353.359" x="311.694,316.775,319.315,324.396,329.37600000000003,332.142,337.94" svgx:width="0.5,0.25,0.5,0.5,0.55,0.58,0.88" style="fill:rgb(0,0,0);font-family:URWPalladioL-Roma;font-size:9.96px;stroke:none;">0.16 nm</text>
   <text y="349.742" x="346.737" svgx:width="0.67" style="fill:rgb(0,0,0);font-family:Pxsy;font-size:7.57px;stroke:none;">−</text>
   <text y="349.742" x="351.802" svgx:width="0.5" style="fill:rgb(0,0,0);font-family:URWPalladioL-Roma;font-size:7.57px;stroke:none;">1</text>
   <text y="353.359" x="358.75,363.831,369.745" svgx:width="0.5,0.58,0.61" style="fill:rgb(0,0,0);font-family:URWPalladioL-Roma;font-size:9.96px;stroke:none;">and</text>
   <text y="353.359" x="378.618" svgx:width="0.78" style="fill:rgb(0,0,0);font-family:URWPalladioL-Ital;font-size:9.96px;stroke:none;">Q</text>
   <text y="355.04" x="386.369" svgx:width="0.5" style="fill:rgb(0,0,0);font-family:URWPalladioL-Roma;font-size:7.57px;stroke:none;">2</text>
   <text y="353.359" x="393.785" svgx:width="0.78" style="fill:rgb(0,0,0);font-family:CMR10;font-size:10.38px;stroke:none;">=</text>
   <text y="353.359" x="404.988,410.069,412.609,417.69,422.67,425.435,431.233" svgx:width="0.5,0.25,0.5,0.5,0.55,0.58,0.88" style="fill:rgb(0,0,0);font-family:URWPalladioL-Roma;font-size:9.96px;stroke:none;">0.31 nm</text>
   <text y="349.742" x="440.03" svgx:width="0.67" style="fill:rgb(0,0,0);font-family:Pxsy;font-size:7.57px;stroke:none;">−</text>
   <text y="349.742" x="445.095" svgx:width="0.5" style="fill:rgb(0,0,0);font-family:URWPalladioL-Roma;font-size:7.57px;stroke:none;">1</text>
   <text y="353.359" x="452.043,456.555,462.103,466.117,469.948,474.816,479.124,485.232,490.78,496.694,502.903,507.0862,509.884,513.187" svgx:width="0.44,0.55,0.4,0.4,0.48,0.42,0.6,0.55,0.58,0.61,0.42,0.55,0.33,0.55" style="fill:rgb(0,0,0);font-family:URWPalladioL-Roma;font-size:9.96px;stroke:none;">corresponds to</text>
   <text y="366.868" x="76.535,79.825,85.699,90.4798,93.015,97.294,101.775,106.821,110.111,113.401,118.236,122.222,125.159,131.032,136.6096,139.116,142.477,146.282,151.792,163.186,166.123,171.169,174.973,180.585,185.419,189.40300000000002,191.888,196.934,202.808,208.8836,211.456,215.736,224.647,229.693,232.63,235.567,240.401,244.38500000000002,246.86,252.925,257.971,261.957,265.247,268.184,272.665,275.602,280.436,284.715,287.205,289.721,293.526,298.36,302.639,308.704,313.538,318.019,321.309,324.246,329.948,334.782,337.719,342.23,344.72,348.235,354.421,360.295,365.0758,367.602,376.513,381.559,387.624,391.8072,394.386,399.896,403.18280000000004,405.73,411.603,414.54,420.151,426.025,430.859,434.84299999999996,437.328,442.838,446.643,452.809,457.644,461.628,464.113,468.594,474.104,483.015,489.081,494.591,500.464,505.299,511.172,514.462" svgx:width="0.33,0.58,0.48,0.55,0.42,0.44,0.5,0.33,0.33,0.48,0.4,0.29,0.58,0.56,0.55,0.33,0.4,0.55,0.88,0.29,0.5,0.4,0.56,0.48,0.4,0.55,0.5,0.58,0.61,0.55,0.42,0.88,0.5,0.29,0.29,0.48,0.4,0.55,0.6,0.5,0.4,0.33,0.29,0.44,0.29,0.48,0.42,0.25,0.55,0.4,0.48,0.42,0.6,0.48,0.44,0.33,0.29,0.56,0.48,0.29,0.56,0.25,0.55,0.61,0.58,0.48,0.55,0.88,0.5,0.6,0.42,0.55,0.55,0.33,0.55,0.58,0.29,0.56,0.58,0.48,0.4,0.55,0.55,0.4,0.61,0.48,0.4,0.55,0.44,0.55,0.88,0.6,0.55,0.58,0.48,0.58,0.33,0.42" style="fill:rgb(0,0,0);font-family:URWPalladioL-Roma;font-size:9.96px;stroke:none;">the scattering fromlarger and smaller particles, respectively. The maps of higher order components</text>
   <text y="380.378" x="76.535" svgx:width="0.28" style="fill:rgb(0,0,0);font-family:URWPalladioL-Ital;font-size:9.96px;stroke:none;">l</text>
   <text y="380.378" x="82.239" svgx:width="0.78" style="fill:rgb(0,0,0);font-family:CMR10;font-size:10.38px;stroke:none;">=</text>
   <text y="380.378" x="93.244,98.325,100.815,105.042,110.022,112.649,116.958,122.872,128.42,136.68679999999998,139.415,145.33,150.878,159.14479999999998,161.873,165.186,171.1,175.8808,178.488,184.697,192.5654,195.204,200.752,204.593,210.802,215.67,219.654,222.204,226.716,232.63,237.711,243.625,249.275,254.143,258.32620000000003,260.971,267.18,272.048,278.155,283.023,288.937,295.146,298.103,304.017,309.5946,312.187,317.736,323.51279999999997,326.17,329.483,335.397,340.1778,342.784,345.742,351.29,355.802,360.883,363.77139999999997,366.36,370.374,375.455,378.768,381.725,387.20300000000003,389.803,395.423,400.29,403.603,412.078,416.946,421.813,427.58979999999997,430.248,433.56,439.474,444.2548,446.862,452.776,458.904,467.877,473.496,478.364,482.34799999999996,484.898,490.446,493.73280000000005,496.35,499.307,504.388,508.219,513.869" svgx:width="0.5,0.25,0.55,0.5,0.55,0.42,0.58,0.55,0.83,0.55,0.58,0.55,0.83,0.55,0.33,0.58,0.48,0.55,0.61,0.79,0.55,0.55,0.4,0.61,0.48,0.4,0.55,0.44,0.58,0.5,0.58,0.56,0.48,0.42,0.55,0.61,0.48,0.6,0.48,0.58,0.61,0.29,0.58,0.56,0.55,0.55,0.58,0.55,0.33,0.58,0.48,0.55,0.29,0.55,0.44,0.5,0.29,0.55,0.4,0.5,0.33,0.29,0.55,0.55,0.55,0.48,0.33,0.83,0.48,0.48,0.58,0.55,0.33,0.58,0.48,0.55,0.58,0.6,0.88,0.55,0.48,0.4,0.55,0.55,0.33,0.55,0.29,0.5,0.4,0.56,0.48" style="fill:rgb(0,0,0);font-family:URWPalladioL-Roma;font-size:9.96px;stroke:none;">4, 6 show how the BO order changes depending on the local ratio between the number of large</text>
   <text y="393.887" x="76.535,81.516,87.315,93.39059999999999,95.892,100.116,108.913,113.895,116.794,119.6824,122.184,128.171,133.152,137.088,140.335,143.235,147.658,150.557,155.329,159.5122,162.044,165.362,170.901,173.8,179.339,185.346,189.102" svgx:width="0.5,0.58,0.61,0.55,0.42,0.88,0.5,0.29,0.29,0.55,0.6,0.5,0.4,0.33,0.29,0.44,0.29,0.48,0.42,0.55,0.33,0.56,0.29,0.56,0.6,0.4,0.48" style="fill:rgb(0,0,0);font-family:URWPalladioL-Roma;font-size:9.96px;stroke:none;">and small particles (Figure</text>
   <text y="393.887" x="196.365,201.346" svgx:width="0.5,0.5" style="fill:rgb(8,117,183);font-family:URWPalladioL-Roma;font-size:9.96px;stroke:none;">12</text>
   <text y="393.887" x="206.328,210.751,215.732,219.05,222.367" svgx:width="0.44,0.5,0.33,0.33,0.25" style="fill:rgb(0,0,0);font-family:URWPalladioL-Roma;font-size:9.96px;stroke:none;">c–f).</text>
   <text y="407.396" x="97.795,103.13,106.087,115.06,118.017,120.974,126.055,130.03900000000002,132.894,137.203,143.31,148.391,151.704,154.661,159.742,162.699,165.656,171.2336,174.131,177.972,182.84,187.148,192.697,195.654,201.395,206.263,212.3386,215.296,224.269,229.35,235.458,239.6412,242.591,251.066,255.934,259.765,264.5458,267.467,271.298,276.166,279.479,283.493,286.45,291.317,297.059,301.926,308.0016,310.96,314.344,319.892,323.876,326.731,330.044,335.958,340.7388,343.651,349.758,355.672,360.753,365.062" svgx:width="0.52,0.29,0.88,0.29,0.29,0.5,0.4,0.55,0.42,0.6,0.5,0.33,0.29,0.5,0.29,0.29,0.56,0.55,0.4,0.48,0.42,0.55,0.29,0.56,0.48,0.61,0.55,0.88,0.5,0.6,0.42,0.55,0.83,0.48,0.4,0.48,0.55,0.4,0.48,0.33,0.4,0.29,0.48,0.56,0.48,0.61,0.55,0.33,0.55,0.4,0.55,0.33,0.58,0.48,0.55,0.6,0.58,0.5,0.42,0.48" style="fill:rgb(0,0,0);font-family:URWPalladioL-Roma;font-size:9.96px;stroke:none;">Similar spatially resolved maps were retrieved for the phase</text>
   <text y="407.396" x="372.885" svgx:width="0.83" style="fill:rgb(0,0,0);font-family:PazoMath;font-size:9.96px;stroke:none;">Ω</text>
   <text y="409.432" x="381.288" svgx:width="0.28" style="fill:rgb(0,0,0);font-family:URWPalladioL-Ital;font-size:7.57px;stroke:none;">l</text>
   <text y="409.432" x="383.488" svgx:width="0.78" style="fill:rgb(0,0,0);font-family:CMR10;font-size:7.89px;stroke:none;">=</text>
   <text y="409.432" x="389.715" svgx:width="0.5" style="fill:rgb(0,0,0);font-family:URWPalladioL-Roma;font-size:7.57px;stroke:none;">4</text>
   <text y="407.396" x="396.826,402.374,405.66080000000005,408.583,411.896,417.81,422.5908,425.503,431.417,436.965,440.979,449.952,455.033,457.99,460.947,466.028,470.896,476.9716,479.94,482.897,488.811,492.124,496.991,502.905,507.214,510.161,513.474" svgx:width="0.55,0.33,0.55,0.33,0.58,0.48,0.55,0.58,0.55,0.4,0.88,0.5,0.29,0.29,0.5,0.48,0.61,0.55,0.29,0.58,0.33,0.48,0.58,0.42,0.29,0.33,0.56" style="fill:rgb(0,0,0);font-family:URWPalladioL-Roma;font-size:9.96px;stroke:none;">of the normalized intensity</text>
   <text y="420.906" x="76.535,81.417,87.099,92.527,98.415,101.256,106.137,110.121,112.171,117.6,122.93,128.818,132.674,135.515,140.192,144.17600000000002,146.226,150.561,155.892,164.513,170.38,175.711,181.393,186.07,191.752,194.935" svgx:width="0.5,0.58,0.56,0.6,0.29,0.5,0.4,0.55,0.56,0.55,0.6,0.4,0.29,0.48,0.4,0.55,0.44,0.55,0.88,0.6,0.55,0.58,0.48,0.58,0.33,0.42" style="fill:rgb(0,0,0);font-family:URWPalladioL-Roma;font-size:9.96px;stroke:none;">angular Fourier components</text>
   <text y="418.724" x="201.911" svgx:width="0.33" style="fill:rgb(0,0,0);font-family:URWPalladioL-Roma;font-size:9.96px;stroke:none;">ˆ</text>
   <text y="420.906" x="201.258" svgx:width="0.33" style="fill:rgb(0,0,0);font-family:URWPalladioL-Ital;font-size:9.96px;stroke:none;">I</text>
   <text y="422.941" x="204.576" svgx:width="0.28" style="fill:rgb(0,0,0);font-family:URWPalladioL-Ital;font-size:7.57px;stroke:none;">l</text>
   <text y="420.801" x="207.303" svgx:width="0.39" style="fill:rgb(0,0,0);font-family:CMR10;font-size:10.38px;stroke:none;">(</text>
   <text y="420.906" x="211.453" svgx:width="0.78" style="fill:rgb(0,0,0);font-family:URWPalladioL-Ital;font-size:9.96px;stroke:none;">Q</text>
   <text y="420.801" x="219.328" svgx:width="0.39" style="fill:rgb(0,0,0);font-family:CMR10;font-size:10.38px;stroke:none;">)</text>
   <text y="420.906" x="226.369" svgx:width="0.78" style="fill:rgb(0,0,0);font-family:CMR10;font-size:10.38px;stroke:none;">=</text>
   <text y="411.322" code="12" x="237.331" svgx:width="0.24" style="fill:rgb(0,0,0);font-family:Pxex;font-size:9.96px;stroke:none;">?</text>
   <text y="415.785" code="12" x="237.331" svgx:width="0.24" style="fill:rgb(0,0,0);font-family:Pxex;font-size:9.96px;stroke:none;">?</text>
   <text y="420.248" code="12" x="237.331" svgx:width="0.24" style="fill:rgb(0,0,0);font-family:Pxex;font-size:9.96px;stroke:none;">?</text>
   <text y="418.724" x="240.414" svgx:width="0.33" style="fill:rgb(0,0,0);font-family:URWPalladioL-Roma;font-size:9.96px;stroke:none;">ˆ</text>
   <text y="420.906" x="239.762" svgx:width="0.33" style="fill:rgb(0,0,0);font-family:URWPalladioL-Ital;font-size:9.96px;stroke:none;">I</text>
   <text y="422.941" x="243.079" svgx:width="0.28" style="fill:rgb(0,0,0);font-family:URWPalladioL-Ital;font-size:7.57px;stroke:none;">l</text>
   <text y="420.801" x="245.807" svgx:width="0.39" style="fill:rgb(0,0,0);font-family:CMR10;font-size:10.38px;stroke:none;">(</text>
   <text y="420.906" x="249.956" svgx:width="0.78" style="fill:rgb(0,0,0);font-family:URWPalladioL-Ital;font-size:9.96px;stroke:none;">Q</text>
   <text y="420.801" x="257.832" svgx:width="0.39" style="fill:rgb(0,0,0);font-family:CMR10;font-size:10.38px;stroke:none;">)</text>
   <text y="411.322" code="12" x="261.981" svgx:width="0.24" style="fill:rgb(0,0,0);font-family:Pxex;font-size:9.96px;stroke:none;">?</text>
   <text y="415.785" code="12" x="261.981" svgx:width="0.24" style="fill:rgb(0,0,0);font-family:Pxex;font-size:9.96px;stroke:none;">?</text>
   <text y="420.248" code="12" x="261.981" svgx:width="0.24" style="fill:rgb(0,0,0);font-family:Pxex;font-size:9.96px;stroke:none;">?</text>
   <text y="420.906" x="264.412,268.287,273.269" svgx:width="0.39,0.5,0.5" style="fill:rgb(0,0,0);font-family:URWPalladioL-Ital;font-size:9.96px;stroke:none;">exp</text>
   <text y="420.801" x="278.374" svgx:width="0.39" style="fill:rgb(0,0,0);font-family:CMR10;font-size:10.38px;stroke:none;">(</text>
   <text y="420.906" x="282.524" svgx:width="0.28" style="fill:rgb(0,0,0);font-family:URWPalladioL-Ital;font-size:9.96px;stroke:none;">i</text>
   <text y="420.906" x="285.418" svgx:width="0.83" style="fill:rgb(0,0,0);font-family:PazoMath;font-size:9.96px;stroke:none;">Ω</text>
   <text y="422.941" x="293.821" svgx:width="0.28" style="fill:rgb(0,0,0);font-family:URWPalladioL-Ital;font-size:7.57px;stroke:none;">l</text>
   <text y="420.801" x="296.549" svgx:width="0.39" style="fill:rgb(0,0,0);font-family:CMR10;font-size:10.38px;stroke:none;">(</text>
   <text y="420.906" x="300.698" svgx:width="0.78" style="fill:rgb(0,0,0);font-family:URWPalladioL-Ital;font-size:9.96px;stroke:none;">Q</text>
   <text y="420.801" x="308.574,312.85" svgx:width="0.39,0.39" style="fill:rgb(0,0,0);font-family:CMR10;font-size:10.38px;stroke:none;">))</text>
   <text y="420.906" x="316.997,319.487,321.617,329.76,335.442,338.283,342.618,348.3948,350.477,354.812,359.694,365.4708,367.554,372.953,377.7338,379.816,384.493,390.009,394.891,397.732,403.619,408.501,411.684,416.361,422.4366,424.503,429.385,433.5682,435.702,438.885,444.567,449.3478,451.421,456.302,461.985,467.413,473.3,476.142,481.023,485.007,487.067,492.495,497.826,503.713,507.57,510.411,515.088" svgx:width="0.25,0.55,0.83,0.58,0.29,0.44,0.58,0.55,0.44,0.5,0.58,0.55,0.55,0.48,0.55,0.48,0.56,0.5,0.29,0.6,0.5,0.33,0.48,0.61,0.55,0.5,0.42,0.55,0.33,0.58,0.48,0.55,0.5,0.58,0.56,0.6,0.29,0.5,0.4,0.55,0.56,0.55,0.6,0.4,0.29,0.48,0.4" style="fill:rgb(0,0,0);font-family:URWPalladioL-Roma;font-size:9.96px;stroke:none;">, which can be evaluated as the angular Fourier</text>
   <text y="434.415" x="76.535,81.047,86.595" svgx:width="0.44,0.55,0.48" style="fill:rgb(0,0,0);font-family:URWPalladioL-Roma;font-size:9.96px;stroke:none;">coe</text>
   <text y="434.415" x="91.463" svgx:width="0.92" style="fill:rgb(0,0,0);font-family:Rpxr;font-size:9.96px;stroke:none;">ﬃ</text>
   <text y="434.415" x="100.802,105.314,108.271,113.138,119.053,122.365,126.5482,129.215,134.763,138.0498,140.677,143.99,149.904,154.6848,157.312,161.621,166.133,171.213,174.526,177.839,182.707,186.72,189.678,195.592,201.1696,203.782,206.739,212.653,215.966,220.834,226.748,231.057,234.014,237.326,242.90359999999998,245.507,250.588,253.545,259.093,265.007,270.5846,273.198,276.511,282.425" svgx:width="0.44,0.29,0.48,0.58,0.33,0.42,0.55,0.55,0.33,0.55,0.33,0.58,0.48,0.55,0.42,0.44,0.5,0.33,0.33,0.48,0.4,0.29,0.58,0.56,0.55,0.29,0.58,0.33,0.48,0.58,0.42,0.29,0.33,0.56,0.55,0.5,0.29,0.55,0.58,0.56,0.55,0.33,0.58,0.48" style="fill:rgb(0,0,0);font-family:URWPalladioL-Roma;font-size:9.96px;stroke:none;">cients of the scattering intensity along the</text>
   <text y="434.415" x="289.832" svgx:width="0.78" style="fill:rgb(0,0,0);font-family:URWPalladioL-Ital;font-size:9.96px;stroke:none;">Q</text>
   <text y="434.415" x="297.738,301.122,305.136,308.093,314.007,319.5846,322.198,325.582,329.89,334.758,339.5388,342.155,348.364,354.055,360.183,365.264,368.576,371.533,377.082,382.8588,385.536,388.92,394.001,397.385,400.769,403.259,406.937,413.167,419.081,422.038,426.2212,428.887,434.994,440.908,445.989,450.298,455.0788,457.706,463.397,469.524,474.605,480.519,483.832,486.789,492.937,497.805,501.9882,504.644,507.956,513.87" svgx:width="0.33,0.4,0.29,0.58,0.56,0.55,0.33,0.42,0.48,0.48,0.55,0.61,0.56,0.6,0.5,0.33,0.29,0.55,0.58,0.55,0.33,0.5,0.33,0.33,0.25,0.55,0.61,0.58,0.29,0.42,0.55,0.6,0.58,0.5,0.42,0.48,0.55,0.56,0.6,0.5,0.58,0.33,0.29,0.61,0.48,0.42,0.55,0.33,0.58,0.48" style="fill:rgb(0,0,0);font-family:URWPalladioL-Roma;font-size:9.96px;stroke:none;">-ring (see Equation (8)). This phase quantiﬁes the</text>
   <text y="447.925" x="76.535,82.083,86.097,89.054,93.922,99.836,103.149,108.23,111.543,114.5,120.048,125.8248,128.726,134.275,137.5618,140.423,143.735,149.65,154.4308,157.281,161.793,167.341,170.298,173.255,178.804,181.761,187.97,193.051,195.93939999999998,198.772,203.284,207.298,212.948,217.256,220.569,225.65,228.5384,231.371,235.68,238.992,242.925,249.053,253.565,256.877,263.005,266.836,271.6168,274.467,282.942,285.9,289.212,294.98879999999997,297.891,301.732,306.599,310.908,317.015,321.883,326.395,329.6818,332.471,335.784,341.262,344.097,349.077,351.941,355.773,360.64,364.024,368.891,372.722,377.59,383.504,388.016,392.7968,395.648,400.729,405.972,408.929,413.238,415.728,420.087,425.422,433.897,439.375,442.209,451.182,456.263,462.37,466.5532,469.443,474.524,477.81080000000003,480.601,486.81" svgx:width="0.55,0.4,0.29,0.48,0.58,0.33,0.5,0.33,0.29,0.55,0.58,0.55,0.55,0.33,0.55,0.33,0.58,0.48,0.55,0.44,0.55,0.29,0.29,0.55,0.29,0.61,0.5,0.29,0.55,0.44,0.4,0.56,0.42,0.33,0.5,0.29,0.55,0.42,0.33,0.4,0.6,0.44,0.33,0.6,0.4,0.48,0.55,0.83,0.29,0.33,0.58,0.55,0.4,0.48,0.42,0.6,0.48,0.44,0.33,0.55,0.33,0.55,0.55,0.5,0.55,0.4,0.48,0.33,0.48,0.4,0.48,0.58,0.44,0.48,0.55,0.5,0.52,0.29,0.42,0.25,0.55,0.61,0.83,0.55,0.55,0.88,0.5,0.6,0.42,0.55,0.5,0.33,0.55,0.61,0.29" style="fill:rgb(0,0,0);font-family:URWPalladioL-Roma;font-size:9.96px;stroke:none;">orientation of the colloidal crystal structure with respect to a reference axis. Two maps at di</text>
   <text y="447.925" x="489.765" svgx:width="0.61" style="fill:rgb(0,0,0);font-family:Rpxr;font-size:9.96px;stroke:none;">ﬀ</text>
   <text y="447.925" x="495.944,500.812,504.643,509.51,515.424" svgx:width="0.48,0.4,0.48,0.58,0.33" style="fill:rgb(0,0,0);font-family:URWPalladioL-Roma;font-size:9.96px;stroke:none;">erent</text>
   <text y="461.434" x="76.147" svgx:width="0.78" style="fill:rgb(0,0,0);font-family:URWPalladioL-Ital;font-size:9.96px;stroke:none;">Q</text>
   <text y="461.434" x="84.053,87.437,93.178,98.259,101.216,107.344,112.211,116.3942,119.63,122.587,128.3638,131.61,137.26,140.218,145.868,151.995,155.826" svgx:width="0.33,0.56,0.5,0.29,0.6,0.48,0.42,0.55,0.29,0.58,0.55,0.56,0.29,0.56,0.6,0.4,0.48" style="fill:rgb(0,0,0);font-family:URWPalladioL-Roma;font-size:9.96px;stroke:none;">-values in Figure</text>
   <text y="461.434" x="163.803,168.884" svgx:width="0.5,0.5" style="fill:rgb(8,117,183);font-family:URWPalladioL-Roma;font-size:9.96px;stroke:none;">12</text>
   <text y="461.434" x="177.075,182.725,185.265,191.0418,194.289,198.597,204.512,210.06,218.3268,221.645,224.957,230.871,235.6518,238.849,243.716,248.96,251.917,256.225,259.538,264.406,270.32,274.832,279.6128,282.809,288.357,291.64380000000006,294.85,300.958,306.039,309.351,313.863,319.778,324.645,328.8282,332.063,337.612,340.89880000000005,344.105,348.414,351.371,360.344,363.301,366.258,371.339,375.323,378.462,384.011,388.024,390.982,395.849,401.763,405.076,410.157,413.47,416.427,421.975,427.889,432.0722,435.308,443.783,446.74,450.052,455.967,458.924,464.70079999999996,467.947,471.26,477.174,481.9548,485.151,489.46,494.541,503.514,509.621,512.578,517.446" svgx:width="0.56,0.25,0.58,0.55,0.42,0.58,0.55,0.83,0.55,0.33,0.58,0.48,0.55,0.48,0.52,0.29,0.42,0.33,0.48,0.58,0.44,0.48,0.55,0.55,0.33,0.55,0.6,0.5,0.33,0.44,0.58,0.48,0.42,0.55,0.55,0.33,0.55,0.42,0.29,0.88,0.29,0.29,0.5,0.4,0.55,0.55,0.4,0.29,0.48,0.58,0.33,0.5,0.33,0.29,0.55,0.58,0.42,0.55,0.83,0.29,0.33,0.58,0.29,0.58,0.55,0.33,0.58,0.48,0.55,0.42,0.5,0.88,0.6,0.29,0.48,0.25" style="fill:rgb(0,0,0);font-family:URWPalladioL-Roma;font-size:9.96px;stroke:none;">g,h show the existence of patches of similar orientations within the sample,</text>
   <text y="474.943" x="76.117,84.276,89.97,92.817,97.161,102.9378,105.34,109.028,113.714,117.862,122.548,131.187,136.597,139.444,144.2248,146.625,149.814,155.508,160.2888,162.679,168.657,172.521,177.961,180.808,186.502,192.0796,194.436,197.694,201.372,206.714,212.408,215.6948,218.092,223.434,226.7208,229.176,233.324,236.171,239.018,241.865,246.209,251.189,253.595,259.475,264.367,268.231,271.421,274.267,278.611,281.458,286.2388,288.629,292.777,298.677,302.825,308.705,313.391,319.085,323.233,326.08,331.421,337.115,341.263,343.753,347.192,354.803,360.5798,362.992,367.884,373.577,378.469,381.316,386.658,392.097,397.439,403.338,407.5212,409.971,414.863,420.743,426.622,430.311,435.652,440.544,444.888,450.66479999999996,453.067,461.226,466.92,469.767,474.11,479.8868,482.299,485.146,490.84,495.184,498.031,503.93,509.907,514.594" svgx:width="0.83,0.58,0.29,0.44,0.58,0.55,0.4,0.48,0.42,0.48,0.88,0.55,0.29,0.48,0.55,0.33,0.58,0.48,0.55,0.61,0.4,0.56,0.29,0.58,0.56,0.55,0.33,0.4,0.55,0.58,0.33,0.55,0.55,0.33,0.55,0.42,0.29,0.29,0.29,0.44,0.5,0.55,0.6,0.5,0.4,0.33,0.29,0.44,0.29,0.48,0.55,0.42,0.6,0.42,0.6,0.48,0.58,0.42,0.29,0.55,0.58,0.42,0.25,0.55,0.78,0.58,0.55,0.5,0.58,0.5,0.29,0.55,0.56,0.55,0.6,0.42,0.55,0.5,0.6,0.6,0.4,0.55,0.5,0.44,0.58,0.55,0.83,0.58,0.29,0.44,0.58,0.55,0.29,0.58,0.44,0.29,0.6,0.61,0.48,0.42" style="fill:rgb(0,0,0);font-family:URWPalladioL-Roma;font-size:9.96px;stroke:none;">which resemble the drying front of silica particle suspensions. An analogous approach which includes</text>
   <text y="488.453" x="76.535,81.515,84.217,88.729,94.278,103.251,108.87,111.827,117.741,122.822,126.135,129.092,134.64,140.4168,143.146,148.694,151.9808,154.68,157.992,163.907,168.6878,171.376,174.759,180.308,184.82,190.947,195.256,200.123,206.1986,208.934,215.712,219.096,223.11,228.19,233.7676,236.432,242.051,246.919,252.0,260.7648,263.574,268.655,274.569,280.6446,283.38,291.285,298.063,305.268,312.473,320.2418,322.98,331.455,336.536,340.7192,343.436,349.564,353.872,358.74,364.8156,367.55,370.507,376.2838,379.023" svgx:width="0.5,0.55,0.44,0.55,0.88,0.55,0.29,0.58,0.5,0.33,0.29,0.55,0.58,0.55,0.55,0.33,0.55,0.33,0.58,0.48,0.55,0.33,0.55,0.44,0.6,0.42,0.48,0.61,0.55,0.67,0.33,0.4,0.5,0.56,0.55,0.55,0.48,0.5,0.88,0.55,0.5,0.58,0.61,0.55,0.78,0.67,0.71,0.71,0.78,0.55,0.83,0.5,0.42,0.55,0.6,0.42,0.48,0.61,0.55,0.29,0.58,0.55,0.33" style="fill:rgb(0,0,0);font-family:URWPalladioL-Roma;font-size:9.96px;stroke:none;">a combination of the focused X-ray beam and AXCCA was used in [</text>
   <text y="488.453" x="382.406,387.387" svgx:width="0.5,0.5" style="fill:rgb(8,117,183);font-family:URWPalladioL-Roma;font-size:9.96px;stroke:none;">19</text>
   <text y="488.453" x="392.369,395.65580000000006,398.354,401.667,407.145,409.807,412.764,418.678,424.419,429.287,433.596,436.908,439.866,445.516,450.596,453.909,458.6898,461.378,467.485,472.566,475.879,480.391,486.305,491.173,495.3562,498.083,506.558,509.515,512.828" svgx:width="0.33,0.55,0.33,0.55,0.55,0.29,0.58,0.56,0.48,0.42,0.33,0.29,0.56,0.5,0.33,0.48,0.55,0.6,0.5,0.33,0.44,0.58,0.48,0.42,0.55,0.83,0.29,0.33,0.58" style="fill:rgb(0,0,0);font-family:URWPalladioL-Roma;font-size:9.96px;stroke:none;">] to investigate patches with</text>
   <text y="501.962" x="76.535,79.853,85.292,91.3,95.055,98.3418,100.864,105.845,111.643,117.7186,120.221,124.445,127.344,132.485,135.803,141.242,144.141,150.2166,152.719,158.159,162.094,164.993,169.765,175.563,178.811,183.792,187.04,189.939,195.379,201.177,206.158,209.04639999999998,211.548,216.988,220.744,226.831,231.603,235.58700000000002,238.029,240.928,246.7048,249.217,252.464,258.263,263.0438,265.525,271.553,274.452,285.74,291.179,294.4658,296.987,301.211,305.984,308.883,312.2,315.518,320.499,324.723,328.947,333.719,342.516,348.026,350.925,355.697,361.7726,364.275,369.814,375.254,378.153,384.22860000000003,386.73,392.529,397.51,403.308,408.748,414.735,419.717,423.652,426.9,429.799,434.222,437.121,441.893,446.118" svgx:width="0.33,0.55,0.6,0.4,0.33,0.55,0.5,0.58,0.61,0.55,0.42,0.29,0.52,0.33,0.55,0.29,0.61,0.55,0.55,0.4,0.29,0.48,0.58,0.33,0.5,0.33,0.29,0.55,0.58,0.5,0.29,0.55,0.55,0.4,0.61,0.48,0.4,0.55,0.29,0.58,0.55,0.33,0.58,0.48,0.55,0.61,0.29,0.88,0.55,0.33,0.55,0.42,0.48,0.29,0.33,0.33,0.5,0.42,0.42,0.48,0.88,0.55,0.29,0.48,0.61,0.55,0.56,0.55,0.29,0.61,0.55,0.58,0.5,0.58,0.55,0.6,0.5,0.4,0.33,0.29,0.44,0.29,0.48,0.42,0.25" style="fill:rgb(0,0,0);font-family:URWPalladioL-Roma;font-size:9.96px;stroke:none;">four- and sixfold orientational order in the ﬁlmof self-assembled gold nanoparticles.</text>
  </g>
 </g>
</svg>
