<?xml version="1.0" encoding="UTF-8"?>
<svg height="774.244" width="4165.638" xmlns="http://www.w3.org/2000/svg">
 <g id="page" xmlns:svgx="http://www.xml-cml.org/schema/svgx">
  <path style="fill:rgb(131,144,151);stroke:none;stroke-width:1.0;" d="M382.56 8.59 L382.56 26.39 L548.65 26.39 C548.65 26.39 554.31 26.39 554.31 20.72 L554.31 8.59 Z"/>
  <g begin="text">
   <text y="764.23" x="550.106" svgx:width="0.45" style="fill:rgb(131,144,151);font-family:Corbel2;font-size:10.0px;stroke:none;">3</text>
   <text y="764.244" x="40.794,45.642,50.786,53.186,58.026,64.026,68.898,71.298,75.762,78.162" svgx:width="0.55,0.59,0.25,0.55,0.7,0.56,0.25,0.5,0.25,0.59" style="fill:rgb(131,144,151);font-family:Corbel2;font-size:8.0px;stroke:none;">Scientific</text>
   <text y="764.244" x="83.162" svgx:width="0.2" style="fill:rgb(0,0,0);font-family:Corbel2;font-size:8.0px;stroke:none;"> </text>
   <text y="764.244" x="84.762,90.218,95.194,100.434,106.738,112.194,117.186" svgx:width="0.63,0.57,0.6,0.73,0.63,0.57,0.58" style="fill:rgb(131,144,151);font-family:Corbel-Bold2;font-size:8.0px;stroke:none;">RepoRts</text>
   <text y="764.244" x="122.082,123.522,125.338" svgx:width="0.2,0.23,0.2" style="fill:rgb(0,0,0);font-family:Corbel2;font-size:8.0px;stroke:none;"> | </text>
   <text y="764.244" x="126.778,128.234,129.69,131.146,132.602,134.058,135.514,136.97,138.426,139.882,142.154,146.09,150.026,153.962,157.898,160.17,161.626,165.562,167.25,171.186,175.122,179.058,182.994" svgx:width="0.18,0.18,0.18,0.18,0.18,0.18,0.18,0.18,0.18,0.28,0.49,0.49,0.49,0.49,0.28,0.18,0.49,0.21,0.49,0.49,0.49,0.49,0.18" style="fill:rgb(0,0,0);font-family:MyriadPro-It;font-size:8.0px;stroke:none;"> (2019) 9:6275 </text>
   <text y="764.244" x="184.45,185.89,187.706" svgx:width="0.2,0.23,0.2" style="fill:rgb(0,0,0);font-family:Corbel2;font-size:8.0px;stroke:none;"> | </text>
   <text y="764.244" x="189.146,193.402,196.178,198.954,203.202,206.434,208.546,210.746,212.946,217.234,221.498,223.354,225.466,229.73,232.41,236.658,238.858,242.962,247.066,249.178,253.282,257.386,261.49,265.594,267.794,271.026,275.13,279.234,283.338,287.442,291.546,294.21,298.314,302.418,306.522,309.186,313.29,317.394,321.498,325.602,329.706,332.37" svgx:width="0.53,0.35,0.35,0.53,0.4,0.26,0.28,0.28,0.54,0.53,0.23,0.26,0.53,0.34,0.53,0.28,0.51,0.51,0.26,0.51,0.51,0.51,0.51,0.28,0.4,0.51,0.51,0.51,0.51,0.51,0.33,0.51,0.51,0.51,0.33,0.51,0.51,0.51,0.51,0.51,0.33,0.51" style="fill:rgb(0,0,0);font-family:Corbel;font-size:8.0px;stroke:none;">https://doi.org/10.1038/s41598-019-42561-8</text>
  </g>
  <g begin="text">
   <text y="22.277" x="389.724,397.484,405.243,412.702,415.869,421.732,427.216,431.234,437.005,440.9,446.465,449.633,454.583,460.508,469.466,472.746,477.349,482.299,485.139,490.699,496.562,500.58,503.419,507.14,509.979,514.93,518.825,524.391,530.295,536.219,540.115,544.133" svgx:width="0.71,0.71,0.71,0.26,0.53,0.49,0.35,0.52,0.34,0.5,0.26,0.44,0.53,0.83,0.28,0.4,0.44,0.23,0.5,0.53,0.35,0.23,0.32,0.23,0.44,0.34,0.5,0.53,0.53,0.34,0.35,0.4" style="fill:rgb(255,255,255);font-family:Corbel2;font-size:10.25px;stroke:none;">www.nature.com/scientificreports</text>
  </g>
  <path style="fill:none;stroke:rgb(0,0,0);stroke-width:1.0;" d="M40.64 752.55 L554.64 752.55 "/>
  <g begin="text">
   <text y="22.46" x="40.638,48.208,55.778,63.055,66.145,71.865,77.215,81.135,86.765,90.565,95.995,99.085,103.915,109.695,118.435,121.635,126.125,130.955,133.725,139.15,144.87,148.79,151.56,155.19,157.96,162.79,166.59,172.02,177.78,183.56,187.36,191.28,195.77" svgx:width="0.71,0.71,0.71,0.26,0.53,0.49,0.35,0.52,0.34,0.5,0.26,0.44,0.53,0.83,0.28,0.4,0.44,0.23,0.5,0.53,0.35,0.23,0.32,0.23,0.44,0.34,0.5,0.53,0.53,0.34,0.35,0.4,0.28" style="fill:rgb(255,255,255);font-family:Corbel2;font-size:10.0px;stroke:none;">www.nature.com/scientificreports/</text>
  </g>
  <g begin="text">
   <text y="487.01" x="167.638,177.261,181.104,183.066,187.836,191.679,194.389,198.232,201.644,209.033,211.463,216.369,220.258,225.028,226.99,230.231,234.04,236.363,240.162,242.972,245.402,249.902,254.773,258.059,262.883,265.206,269.94,271.902,276.575,280.418,283.21,289.322,293.211,297.054,301.995,303.957,307.782,311.401,315.55,318.827,321.646,325.661,327.956,329.918,337.272,341.774,345.222,349.894,354.683,359.23,361.525,366.133,370.58,374.729,376.691,380.58,385.487,390.257,392.219,397.016,401.957,404.28,407.043,409.005,412.831,416.638,418.98,421.275,423.237,427.206,431.472,433.877,437.198,439.16,441.763,446.264,449.621" svgx:width="1.07,0.43,0.23,0.53,0.43,0.31,0.43,0.37,0.82,0.27,0.55,0.43,0.53,0.23,0.37,0.43,0.25,0.44,0.31,0.27,0.51,0.55,0.37,0.53,0.27,0.52,0.23,0.51,0.43,0.31,0.69,0.43,0.43,0.55,0.23,0.42,0.37,0.46,0.37,0.31,0.44,0.25,0.23,0.82,0.51,0.37,0.52,0.53,0.51,0.25,0.51,0.47,0.46,0.23,0.44,0.55,0.53,0.23,0.53,0.55,0.27,0.31,0.23,0.42,0.43,0.25,0.25,0.23,0.44,0.47,0.27,0.37,0.23,0.3,0.51,0.37,0.23" style="fill:rgb(0,0,0);font-family:MinionPro-Regular;font-size:9.0px;stroke:none;">The determined relationship between crystal morphology and unit cell axis for </text>
   <text y="487.01" x="451.583,456.562,461.215,468.317" svgx:width="0.55,0.53,0.79,0.48" style="fill:rgb(0,0,0);font-family:MinionPro-It;font-size:9.0px;stroke:none;">Pnm2</text>
   <text y="488.81" x="472.649" svgx:width="0.48" style="fill:rgb(0,0,0);font-family:MinionPro-Regular;font-size:5.85px;stroke:none;">1</text>
   <text y="487.01" x="475.47,478.692,484.786,488.107,490.069,492.474,495.795,497.757,501.044,505.833,510.299,516.51,521.451,523.413,525.843,530.784,532.745,537.524,539.954,544.212,546.282" svgx:width="0.36,0.69,0.37,0.23,0.27,0.37,0.23,0.37,0.53,0.51,0.69,0.55,0.23,0.27,0.55,0.23,0.53,0.27,0.47,0.23,0.23" style="fill:rgb(0,0,0);font-family:MinionPro-Regular;font-size:9.0px;stroke:none;">-As is shown in Fig. </text>
   <text y="487.01" x="548.244" svgx:width="0.48" style="fill:rgb(0,0,255);font-family:MinionPro-Regular;font-size:9.0px;stroke:none;">2</text>
   <text y="487.01" x="552.582,554.634" svgx:width="0.23,0.23" style="fill:rgb(0,0,0);font-family:MinionPro-Regular;font-size:9.0px;stroke:none;">. </text>
   <text y="497.009" x="155.637,162.036,164.493,167.441,173.809,176.401,181.504,183.961,188.79,193.457,198.416,203.48,208.435,212.482,216.259,220.57,223.027,227.073,232.137,237.069,239.526,242.96,245.926,249.496,252.111,256.068,259.034,261.626,266.284,271.312,274.795,277.252,281.91,287.013,289.47,292.446,297.392,301.397,303.854,307.841,311.617,315.928,319.363,322.338,326.511,328.968,331.425,334.859,339.818,343.387,346.231,350.362,354.349,358.354,360.811,364.858,368.257,372.262,374.719,379.441,384.193,387.744,391.749,395.525,399.797,403.843,408.775,411.232,416.17,420.216,423.735,427.908,430.406,432.863,436.828,439.285,441.742,444.61,449.38,451.837,454.812,459.759,463.764,466.221,470.973,474.352,478.483,482.911,485.472,488.955,491.187,493.644,499.377,504.324,508.329,510.786,514.22,517.187,520.792,525.751,529.797,532.629,537.588,540.986,544.991,547.448,552.107,554.771" svgx:width="0.69,0.23,0.31,0.69,0.27,0.55,0.23,0.51,0.51,0.53,0.55,0.53,0.44,0.37,0.46,0.23,0.44,0.55,0.53,0.23,0.37,0.31,0.37,0.27,0.44,0.31,0.27,0.51,0.55,0.37,0.23,0.51,0.55,0.23,0.31,0.53,0.43,0.23,0.42,0.37,0.46,0.37,0.31,0.44,0.25,0.23,0.37,0.53,0.37,0.3,0.44,0.42,0.43,0.23,0.44,0.37,0.43,0.23,0.51,0.51,0.37,0.43,0.37,0.46,0.43,0.53,0.23,0.52,0.44,0.37,0.44,0.25,0.25,0.43,0.25,0.23,0.31,0.51,0.23,0.31,0.53,0.43,0.23,0.51,0.36,0.44,0.47,0.27,0.37,0.23,0.23,0.62,0.53,0.43,0.23,0.37,0.31,0.37,0.53,0.42,0.31,0.53,0.37,0.43,0.23,0.51,0.3,0.23" style="fill:rgb(0,0,0);font-family:MinionPro-Regular;font-size:9.0px;stroke:none;">A twin boundary and striations on the crystal surface are observed parallel to the b-axis. The structure of </text>
   <text y="507.809" x="155.637,160.596,165.231,172.314" svgx:width="0.55,0.53,0.79,0.48" style="fill:rgb(0,0,0);font-family:MinionPro-It;font-size:9.0px;stroke:none;">Pnm2</text>
   <text y="509.61" x="176.608" svgx:width="0.48" style="fill:rgb(0,0,0);font-family:MinionPro-Regular;font-size:5.85px;stroke:none;">1</text>
   <text y="507.81" x="179.416,182.62,188.695,191.998,193.753,197.56,202.042,206.893,210.196,212.581,215.839,218.584,221.887,223.642,228.124,230.788,232.543,236.494,238.249,243.01,246.961,250.714,255.213,257.625,262.476,266.688,268.443,272.925,275.589" svgx:width="0.36,0.69,0.37,0.23,0.42,0.51,0.55,0.37,0.27,0.37,0.31,0.37,0.23,0.51,0.3,0.23,0.44,0.23,0.52,0.44,0.42,0.5,0.27,0.55,0.47,0.23,0.51,0.3,0.23" style="fill:rgb(0,0,0);font-family:MinionPro-Regular;font-size:9.0px;stroke:none;">-As consists of a packing of </text>
  </g>
  <g begin="text">
   <text y="507.612" x="277.04,282.513,287.7" svgx:width="0.6,0.48,0.79" style="fill:rgb(0,0,0);font-family:MinionPro-It;font-size:8.93px;stroke:none;">R3m</text>
  </g>
  <g begin="text">
   <text y="507.81" x="294.608" svgx:width="0.33" style="fill:rgb(0,0,0);font-family:MinionPro-It;font-size:9.0px;stroke:none;">-</text>
   <text y="507.81" x="297.614,299.369,303.239,308.126,312.878" svgx:width="0.23,0.44,0.55,0.53,0.23" style="fill:rgb(0,0,0);font-family:MinionPro-Regular;font-size:9.0px;stroke:none;"> and </text>
   <text y="507.81" x="314.633,319.7,326.72,330.932" svgx:width="0.58,0.79,0.49,0.49" style="fill:rgb(0,0,0);font-family:MinionPro-It;font-size:9.0px;stroke:none;">Bmab</text>
   <text y="507.81" x="335.297,338.501,344.576,347.879,349.634,354.431,358.913,362.342,365.131,367.543,372.025,376.876,380.179,381.934,385.048,389.809,392.221,396.46,398.512" svgx:width="0.36,0.69,0.37,0.23,0.52,0.51,0.37,0.31,0.27,0.51,0.55,0.37,0.23,0.35,0.53,0.27,0.47,0.23,0.23" style="fill:rgb(0,0,0);font-family:MinionPro-Regular;font-size:9.0px;stroke:none;">-As portions (Fig. </text>
   <text y="507.81" x="400.259,404.579" svgx:width="0.48,0.51" style="fill:rgb(0,0,255);font-family:MinionPro-Regular;font-size:9.0px;stroke:none;">1b</text>
   <text y="507.81" x="409.151,412.265,414.317,416.072,421.544,426.035,428.834,433.64,435.395,440.192,444.674,448.103,450.892,453.304,457.786,462.637,465.94,467.695,471.565,474.787,478.612,480.367,485.127,488.997,492.336,496.332,498.654,500.931,504.72,506.997,508.753,511.444,516.034,517.789,520.588,525.358,529.183,530.938,535.51,538.714,542.665,546.913,549.297,552.6,554.652" svgx:width="0.35,0.23,0.23,0.59,0.51,0.31,0.53,0.23,0.52,0.51,0.37,0.31,0.27,0.51,0.55,0.37,0.23,0.44,0.37,0.43,0.23,0.52,0.44,0.37,0.44,0.25,0.25,0.43,0.25,0.23,0.31,0.51,0.23,0.31,0.53,0.43,0.23,0.51,0.36,0.44,0.47,0.27,0.37,0.23,0.23" style="fill:rgb(0,0,0);font-family:MinionPro-Regular;font-size:9.0px;stroke:none;">). Both portions are parallel to the b-axis, </text>
   <text y="517.809" x="155.63,159.5,164.387,169.139,170.948,173.719,179.911,182.323,187.246,192.169,194.581,199.432,203.644,205.453,209.324,214.211,218.963,220.772,224.03,226.82,230.213,232.651,236.431,239.221,241.633,246.115,250.966,254.269,256.078,260.749,264.556,268.426,273.205,276.544,278.353,282.997,287.776,291.601,293.41,296.101,300.691,302.5,305.298,310.068,313.893,315.702,319.456,324.234,328.104,332.956,337.096,340.921,342.73,345.142,350.065,351.874,354.672,359.442,363.267,365.076,369.873,373.698,377.091,379.503,384.174,388.926,391.338,395.145,397.449,400.221,404.352,406.161,410.643,413.307,415.116,417.915,422.685,426.51,428.319,433.116,437.598,441.026,443.816,446.228,450.71,455.561,458.864,460.916,462.725,468.944,470.753,474.56,478.385,481.814,484.613,488.483,490.895,495.818,497.627,500.399,506.591,509.003,513.926,515.735,519.542,523.142,527.273,530.531,533.33,537.326,539.602,541.411,547.603,550.06,552.382,554.659" svgx:width="0.44,0.55,0.53,0.23,0.31,0.69,0.27,0.55,0.55,0.27,0.55,0.47,0.23,0.44,0.55,0.53,0.23,0.37,0.31,0.37,0.27,0.44,0.31,0.27,0.51,0.55,0.37,0.23,0.51,0.42,0.42,0.53,0.37,0.23,0.53,0.53,0.43,0.23,0.31,0.51,0.23,0.31,0.53,0.43,0.23,0.42,0.53,0.44,0.55,0.47,0.43,0.23,0.27,0.55,0.23,0.31,0.53,0.43,0.23,0.52,0.43,0.37,0.27,0.51,0.53,0.27,0.42,0.27,0.31,0.46,0.23,0.51,0.3,0.23,0.31,0.53,0.43,0.23,0.52,0.51,0.37,0.31,0.27,0.51,0.55,0.37,0.23,0.23,0.69,0.23,0.42,0.43,0.37,0.31,0.44,0.27,0.55,0.23,0.31,0.69,0.27,0.55,0.23,0.42,0.37,0.46,0.37,0.31,0.44,0.25,0.23,0.69,0.27,0.25,0.25,0.23" style="fill:rgb(0,0,0);font-family:MinionPro-Regular;font-size:9.0px;stroke:none;">and twinning and striations occur due to the change in the periodicity of the portions. A certain twin crystal will </text>
   <text y="528.609" x="155.63,159.383,164.162,168.032,172.883,177.023,180.848,182.684,185.483,190.253,194.078,195.914,199.253,203.033,205.823,208.235,212.825,214.661,219.143,221.807,223.643,227.522,231.473,235.226,240.032" svgx:width="0.42,0.53,0.44,0.55,0.47,0.43,0.23,0.31,0.53,0.43,0.23,0.37,0.44,0.31,0.27,0.51,0.23,0.51,0.3,0.23,0.43,0.44,0.42,0.53,0.23" style="fill:rgb(0,0,0);font-family:MinionPro-Regular;font-size:9.0px;stroke:none;">change the ratio of each </text>
  </g>
  <g begin="text">
   <text y="528.412" x="241.6,247.073,252.26" svgx:width="0.6,0.48,0.79" style="fill:rgb(0,0,0);font-family:MinionPro-It;font-size:8.93px;stroke:none;">R3m</text>
  </g>
  <g begin="text">
   <text y="528.61" x="259.168" svgx:width="0.33" style="fill:rgb(0,0,0);font-family:MinionPro-It;font-size:9.0px;stroke:none;">-</text>
   <text y="528.61" x="262.174,264.01,267.88,272.767,277.519" svgx:width="0.23,0.44,0.55,0.53,0.23" style="fill:rgb(0,0,0);font-family:MinionPro-Regular;font-size:9.0px;stroke:none;"> and </text>
   <text y="528.61" x="279.355,284.422,291.442,295.654" svgx:width="0.58,0.79,0.49,0.49" style="fill:rgb(0,0,0);font-family:MinionPro-It;font-size:9.0px;stroke:none;">Bmab</text>
   <text y="528.61" x="300.037,303.241,309.316,312.619,314.455,319.251,323.733,327.162,329.952,332.364,336.846,341.769" svgx:width="0.36,0.69,0.37,0.23,0.52,0.51,0.37,0.31,0.27,0.51,0.55,0.23" style="fill:rgb(0,0,0);font-family:MinionPro-Regular;font-size:9.0px;stroke:none;">-As portion.</text>
   <text y="546.662" x="155.638,161.528,165.438,169.051,174.621,179.151,183.061,188.631,192.244,197.509,200.149,202.419,208.074,213.689,217.599,220.202,228.842,231.445,236.24,241.504,245.414,248.017,253.672,259.336,261.606,267.296,272.55,274.82,279.18,281.783,290.423,295.993,298.633,303.897,307.807,310.41,316.065,321.729,323.999,329.263,334.928,340.622,342.892,348.136,350.776,356.02,360.55,364.46,368.073,373.728,379.393,381.996,386.526,388.796,393.156,397.066,400.68,406.25,410.78,414.69,420.26,423.874,429.118,431.388,433.991,439.656" svgx:width="0.58,0.38,0.35,0.55,0.44,0.38,0.55,0.35,0.51,0.25,0.21,0.55,0.55,0.38,0.25,0.85,0.25,0.47,0.51,0.38,0.25,0.55,0.56,0.21,0.56,0.51,0.21,0.42,0.25,0.85,0.55,0.25,0.51,0.38,0.25,0.55,0.56,0.21,0.51,0.56,0.56,0.21,0.51,0.25,0.51,0.44,0.38,0.35,0.55,0.56,0.25,0.44,0.21,0.42,0.38,0.35,0.55,0.44,0.38,0.55,0.35,0.51,0.21,0.25,0.56,0.21" style="fill:rgb(0,0,0);font-family:Corbel-Bold2;font-size:10.0px;stroke:none;">structural optimization by simulation and electronic structure in </text>
   <text y="546.662" x="441.926,447.906,453.41,461.525" svgx:width="0.59,0.54,0.8,0.52" style="fill:rgb(0,0,0);font-family:Corbel-BoldItalic;font-size:10.0px;stroke:none;">Pnm2</text>
   <text y="548.662" x="466.765" svgx:width="0.53" style="fill:rgb(0,0,0);font-family:Corbel-Bold;font-size:6.5px;stroke:none;">1</text>
   <text y="546.662" x="470.269,473.712,480.402,484.762,487.802" svgx:width="0.33,0.66,0.42,0.29,0.21" style="fill:rgb(0,0,0);font-family:Corbel-Bold2;font-size:10.0px;stroke:none;">-As. </text>
   <text y="546.662" x="497.918,503.191,507.556,512.469,516.411,519.921,522.45,529.902,533.844,538.713,541.628,545.74,548.179,550.509,554.64" svgx:width="0.57,0.47,0.52,0.43,0.37,0.27,0.82,0.43,0.55,0.31,0.44,0.25,0.25,0.46,0.23" style="fill:rgb(0,0,0);font-family:MinionPro-Regular;font-size:9.0px;stroke:none;">Experimentally </text>
   <text y="556.661" x="155.639,160.481,164.396,167.181,171.096,174.582,182.043,184.545,189.526,193.488,198.33,200.499,205.368,210.381,212.78,215.615,217.784,221.681,225.564,227.979,230.346,232.515,236.412,240.988,245.932,249.284,252.177,256.14,260.986,263.821,267.214,269.356,271.525,275.422,279.304,281.72,284.087,286.256,290.445,295.065,297.328,302.197,309.625,313.54,315.709,319.674,324.654,329.496,331.665,335.539,338.324,342.899,350.36,352.862,356.759,358.928,362.825,367.59,372.165,375.481,380.323,382.825,387.816,391.688,394.474,398.389,401.782,403.951,406.627,411.203,414.632" svgx:width="0.53,0.43,0.31,0.43,0.37,0.82,0.27,0.55,0.43,0.53,0.23,0.53,0.55,0.27,0.31,0.23,0.42,0.43,0.25,0.25,0.23,0.42,0.51,0.55,0.37,0.31,0.44,0.55,0.31,0.37,0.23,0.23,0.42,0.43,0.25,0.25,0.23,0.46,0.51,0.25,0.53,0.82,0.43,0.23,0.44,0.55,0.53,0.23,0.44,0.31,0.51,0.82,0.27,0.42,0.23,0.42,0.51,0.51,0.37,0.53,0.27,0.55,0.44,0.31,0.43,0.37,0.23,0.3,0.51,0.37,0.23" style="fill:rgb(0,0,0);font-family:MinionPro-Regular;font-size:9.0px;stroke:none;">determined unit cell constants, cell volume and atomic coordinates for </text>
   <text y="556.661" x="416.801,421.854,426.584,433.761" svgx:width="0.55,0.53,0.79,0.48" style="fill:rgb(0,0,0);font-family:MinionPro-It;font-size:9.0px;stroke:none;">Pnm2</text>
   <text y="558.462" x="438.218" svgx:width="0.48" style="fill:rgb(0,0,0);font-family:MinionPro-Regular;font-size:5.85px;stroke:none;">1</text>
   <text y="556.662" x="441.086,444.38,450.549,453.942,456.111,462.298,466.213,469.528,473.443,475.612,481.799,485.682,488.097,490.464,492.633,497.219,501.929,504.813,507.315,514.776,517.278,521.148,525.111,529.953,532.122,536.644,540.865,543.034,545.927,550.79,554.615" svgx:width="0.36,0.69,0.37,0.23,0.69,0.43,0.37,0.43,0.23,0.69,0.43,0.25,0.25,0.23,0.51,0.52,0.31,0.27,0.82,0.27,0.42,0.43,0.53,0.23,0.51,0.46,0.23,0.31,0.53,0.43,0.23" style="fill:rgb(0,0,0);font-family:MinionPro-Regular;font-size:9.0px;stroke:none;">-As were well optimized by the </text>
   <text y="566.661" x="155.642,159.089,161.645,168.991,173.962,176.413,180.339,183.275,185.831,190.46,195.527,197.723,200.072,206.831,209.387,214.501,218.47,221.838,225.807,230.841,234.792,238.761,242.208,244.557,249.357,253.326,256.244,262.484,266.5,270.469,275.536,277.885,282.685,286.654,289.383,294.012,297.38,301.349,303.698,307.715,312.748,317.644,319.993,324.01,329.341,333.31,336.793,339.142,343.779,348.543,351.479,354.035,361.55,364.106,368.03,371.956,374.892,377.448,382.077,387.144,389.493,392.223,396.852,400.335,402.684,406.708,410.803,414.703,419.653,422.002,426.91,430.926,434.409,438.426,445.907,449.876,452.714,456.683,460.166,462.515,468.754,472.723,476.092,480.061,482.41,487.039,492.072,496.041,498.39,503.334,507.303,510.672,514.623,518.592,523.49,526.379,528.728,533.357,536.84,539.189,541.61,545.579,548.984,552.431,554.483" svgx:width="0.37,0.27,0.82,0.53,0.25,0.44,0.31,0.27,0.51,0.55,0.23,0.23,0.74,0.27,0.56,0.43,0.37,0.43,0.55,0.42,0.43,0.37,0.23,0.51,0.43,0.31,0.69,0.43,0.43,0.55,0.23,0.51,0.43,0.3,0.51,0.37,0.43,0.23,0.44,0.55,0.53,0.23,0.44,0.58,0.43,0.37,0.23,0.51,0.52,0.31,0.27,0.82,0.27,0.42,0.44,0.31,0.27,0.51,0.55,0.23,0.3,0.51,0.37,0.23,0.43,0.44,0.42,0.53,0.23,0.52,0.44,0.37,0.44,0.82,0.43,0.31,0.43,0.37,0.23,0.69,0.43,0.37,0.43,0.23,0.51,0.55,0.43,0.23,0.52,0.43,0.37,0.42,0.43,0.55,0.31,0.23,0.51,0.37,0.23,0.25,0.43,0.37,0.37,0.23,0.23" style="fill:rgb(0,0,0);font-family:MinionPro-Regular;font-size:9.0px;stroke:none;">simulation. Differences between before and after optimization for each parameter were one percent or less. </text>
   <text y="576.66" x="155.642,161.748,166.18,170.329,174.31,176.569,180.376,185.114,187.841,189.56,194.198,198.666,203.538,208.272,210.666,215.502,219.696,221.415,224.511,227.755,230.531,233.738,238.206,243.041,247.235,248.954,253.593,258.061,262.932,267.666,270.06,274.897,279.091,282.187,284.221,285.94,290.089,293.945,298.85,300.569,305.303,309.11,312.431,314.15,321.983,325.916,329.897,332.133,335.418,337.137,341.775,346.243,351.114,355.848,358.242,363.079,367.273,368.992,372.088,378.167,382.031,386.012,390.458,392.177,396.816,401.283,406.156,410.89,413.284,418.12,422.314,425.41,427.444,429.163,433.019,437.892,442.626,444.345,448.2,452.938,455.713,458.107,461.293,465.93,470.398,475.27,480.004,482.398,487.235,491.429,493.148,495.542,500.447" svgx:width="0.67,0.51,0.46,0.44,0.25,0.43,0.55,0.31,0.23,0.51,0.51,0.55,0.53,0.27,0.55,0.47,0.23,0.35,0.37,0.31,0.37,0.51,0.55,0.47,0.23,0.51,0.51,0.55,0.53,0.27,0.55,0.47,0.35,0.23,0.23,0.46,0.44,0.55,0.23,0.53,0.43,0.37,0.23,0.97,0.44,0.44,0.25,0.37,0.23,0.51,0.51,0.55,0.53,0.27,0.55,0.47,0.23,0.35,0.69,0.43,0.44,0.5,0.23,0.51,0.51,0.55,0.53,0.27,0.55,0.47,0.35,0.23,0.23,0.44,0.55,0.53,0.23,0.44,0.55,0.31,0.27,0.36,0.51,0.51,0.55,0.53,0.27,0.55,0.47,0.23,0.27,0.55,0.23" style="fill:rgb(0,0,0);font-family:MinionPro-Regular;font-size:9.0px;stroke:none;">Covalent bonding (strong bonding), van der Waals bonding (weak bonding), and anti-bonding in </text>
   <text y="576.66" x="502.166,507.111,511.728,518.796" svgx:width="0.55,0.53,0.79,0.48" style="fill:rgb(0,0,0);font-family:MinionPro-It;font-size:9.0px;stroke:none;">Pnm2</text>
   <text y="578.462" x="523.241" svgx:width="0.48" style="fill:rgb(0,0,0);font-family:MinionPro-Regular;font-size:5.85px;stroke:none;">1</text>
   <text y="576.662" x="526.04,529.226,533.081,536.351,539.711,543.518,548.424,550.818,554.625" svgx:width="0.36,0.44,0.37,0.37,0.43,0.55,0.27,0.42,0.23" style="fill:rgb(0,0,0);font-family:MinionPro-Regular;font-size:9.0px;stroke:none;">-arsenic </text>
   <text y="586.661" x="155.636,159.506,162.728,166.553,168.398,171.665,176.435,180.881,187.073,191.996,193.841,196.253,201.176,203.021,207.782,210.194,214.432,216.484" svgx:width="0.44,0.37,0.43,0.23,0.37,0.53,0.51,0.69,0.55,0.23,0.27,0.55,0.23,0.53,0.27,0.47,0.23,0.23" style="fill:rgb(0,0,0);font-family:MinionPro-Regular;font-size:9.0px;stroke:none;">are shown in Fig. </text>
   <text y="586.661" x="218.321" svgx:width="0.48" style="fill:rgb(0,0,255);font-family:MinionPro-Regular;font-size:9.0px;stroke:none;">3</text>
   <text y="586.661" x="222.641,224.693,226.538,232.757,234.602,237.401,242.207,245.429,249.299,253.124,256.328,261.08,263.492,270.826,274.651,279.502,282.805,285.217,289.699,294.595,298.591,300.868,302.713,305.935,309.76,314.367,317.589,321.414,324.789,328.614,333.366,336.165,339.945,342.735,345.147,349.629,354.552,356.397,360.879,363.543,365.388,370.041,374.523,379.41,384.135,387.438,389.283,393.153,398.04,402.792,404.637,408.507,413.259,416.049,418.461,421.665,426.318,430.8,435.687,440.412,443.715,445.56,449.43,452.652,457.143,461.922,466.809,471.561,473.406,479.481,482.784,487.104,488.949,492.729,495.42,499.902,507.273,509.118,511.53,516.453" svgx:width="0.23,0.23,0.69,0.23,0.31,0.53,0.37,0.43,0.43,0.36,0.53,0.27,0.82,0.43,0.55,0.37,0.27,0.51,0.55,0.44,0.25,0.23,0.37,0.43,0.52,0.37,0.43,0.37,0.43,0.55,0.31,0.44,0.31,0.27,0.51,0.55,0.23,0.51,0.3,0.23,0.51,0.51,0.55,0.53,0.37,0.23,0.44,0.55,0.53,0.23,0.44,0.55,0.31,0.27,0.36,0.51,0.51,0.55,0.53,0.37,0.23,0.44,0.37,0.51,0.53,0.55,0.53,0.23,0.69,0.37,0.48,0.23,0.44,0.31,0.51,0.82,0.23,0.27,0.55,0.23" style="fill:rgb(0,0,0);font-family:MinionPro-Regular;font-size:9.0px;stroke:none;">. A three-dimensional representation of bonds and anti-bonds around As1 atom in </text>
   <text y="586.661" x="518.298,523.257,527.892,534.975" svgx:width="0.55,0.53,0.79,0.48" style="fill:rgb(0,0,0);font-family:MinionPro-It;font-size:9.0px;stroke:none;">Pnm2</text>
   <text y="588.462" x="539.248" svgx:width="0.48" style="fill:rgb(0,0,0);font-family:MinionPro-Regular;font-size:5.85px;stroke:none;">1</text>
   <text y="586.662" x="542.056,545.26,551.335,554.638" svgx:width="0.36,0.69,0.37,0.23" style="fill:rgb(0,0,0);font-family:MinionPro-Regular;font-size:9.0px;stroke:none;">-As </text>
   <text y="596.661" x="155.641,158.08,161.437,163.462,165.928,170.87,175.676,178.142,182.03,185.864,188.61,192.534,197.34,199.365,201.831,206.808,208.833,214.044,218.346,221.091,224.97,229.912,234.718,238.642,243.448,245.473,252.196,256.03,258.884,262.889,264.914,269.729,272.195,276.488,278.594,280.622,284.996,287.102,289.127,295.374,300.18,303.024,305.49,308.748,313.455,317.992,322.933,327.739,330.205,335.111,339.377,341.402,343.841,347.198,349.223,353.822,358.448,361.877,365.756,369.41,373.559,377.483,382.289,384.314,388.85,393.872,396.141,400.326,402.351,406.275,413.664,418.201,423.106,427.372,429.397,433.231,435.976,440.513,447.866,451.223,453.248,455.714,460.691,462.716,466.649,470.654,474.461,479.321,481.346,483.704,487.548,491.661,495.54,498.366,500.472,502.497,507.988,511.912,516.889,518.914,523.72,527.599,530.992,533.017,540.92,544.925,548.975,551.279,554.582" svgx:width="0.27,0.37,0.23,0.27,0.55,0.53,0.27,0.42,0.44,0.31,0.43,0.53,0.23,0.27,0.55,0.23,0.57,0.47,0.31,0.43,0.55,0.53,0.43,0.53,0.23,0.74,0.44,0.31,0.44,0.23,0.53,0.27,0.47,0.23,0.23,0.48,0.23,0.23,0.69,0.55,0.31,0.27,0.36,0.51,0.51,0.55,0.53,0.27,0.55,0.47,0.23,0.27,0.37,0.23,0.51,0.51,0.37,0.43,0.37,0.46,0.43,0.53,0.23,0.51,0.55,0.25,0.46,0.23,0.44,0.82,0.51,0.55,0.47,0.23,0.44,0.31,0.51,0.82,0.37,0.23,0.27,0.55,0.23,0.43,0.44,0.42,0.53,0.23,0.25,0.44,0.46,0.43,0.37,0.23,0.23,0.7,0.44,0.55,0.23,0.53,0.43,0.37,0.23,0.97,0.44,0.44,0.25,0.37,0.23" style="fill:rgb(0,0,0);font-family:MinionPro-Regular;font-size:9.0px;stroke:none;">is indicated in Extended Data Fig. 1. Anti-bonding is observed only among atoms in each layer. Van der Waals </text>
   <text y="606.66" x="155.641,160.419,165.027,170.039,174.917,177.455,182.432,186.77,189.047,191.557,194.986,197.263,201.934,206.632,210.133,214.084,217.809,222.029,226.025,230.903,233.18,235.718,240.767,243.044,245.582,250.46,253.375,256.84,260.961,263.391,267.305,271.49,275.441,278.906,281.183,284.423,290.623,294.052" svgx:width="0.51,0.51,0.55,0.53,0.27,0.55,0.47,0.23,0.27,0.37,0.23,0.51,0.51,0.37,0.43,0.37,0.46,0.43,0.53,0.23,0.27,0.55,0.23,0.27,0.55,0.31,0.37,0.44,0.25,0.44,0.46,0.43,0.37,0.23,0.35,0.69,0.37,0.48" style="fill:rgb(0,0,0);font-family:MinionPro-Regular;font-size:9.0px;stroke:none;">bonding is observed in intralayer (As1</text>
   <text y="606.66" x="298.498" svgx:width="1.0" style="fill:rgb(0,0,0);font-family:EuclidSymbol;font-size:9.0px;stroke:none;">…</text>
   <text y="606.66" x="307.633,313.834,317.262" svgx:width="0.69,0.37,0.48" style="fill:rgb(0,0,0);font-family:MinionPro-Regular;font-size:9.0px;stroke:none;">As4</text>
   <text y="606.66" x="321.709" svgx:width="0.25" style="fill:rgb(0,0,0);font-family:EuclidSymbol;font-size:9.0px;stroke:none;">′</text>
   <text y="606.66" x="324.067,326.344,330.34,335.352,340.23,342.507,348.707,352.136" svgx:width="0.23,0.44,0.55,0.53,0.23,0.69,0.37,0.48" style="fill:rgb(0,0,0);font-family:MinionPro-Regular;font-size:9.0px;stroke:none;"> and As4</text>
   <text y="606.66" x="356.582" svgx:width="1.0" style="fill:rgb(0,0,0);font-family:EuclidSymbol;font-size:9.0px;stroke:none;">…</text>
   <text y="606.66" x="365.719,371.92,375.348" svgx:width="0.69,0.37,0.48" style="fill:rgb(0,0,0);font-family:MinionPro-Regular;font-size:9.0px;stroke:none;">As1</text>
   <text y="606.66" x="379.795" svgx:width="0.25" style="fill:rgb(0,0,0);font-family:EuclidSymbol;font-size:9.0px;stroke:none;">′</text>
   <text y="606.66" x="382.153,385.393,387.67,391.666,396.678,401.556,403.833,406.757,411.653,415.604,417.881,421.228,425.179,432.648,436.643,439.181,444.23,446.768,451.744,456.082,458.359,462.967,467.979,471.93,475.359,477.636,481.631,484.979,488.93,491.207,493.745,498.794,501.071,503.609,508.487,511.303,515.254,518.683,521.112,525.027,529.212,533.163,536.628,538.905,542.145,546.041,548.219,552.583,554.635" svgx:width="0.35,0.23,0.44,0.55,0.53,0.23,0.31,0.53,0.43,0.23,0.37,0.43,0.82,0.44,0.27,0.55,0.27,0.55,0.47,0.23,0.51,0.55,0.43,0.37,0.23,0.44,0.37,0.43,0.23,0.27,0.55,0.23,0.27,0.55,0.31,0.43,0.37,0.25,0.44,0.46,0.43,0.37,0.23,0.35,0.43,0.23,0.47,0.23,0.23" style="fill:rgb(0,0,0);font-family:MinionPro-Regular;font-size:9.0px;stroke:none;">) and the remaining ones are in interlayer (e.g. </text>
   <text y="616.659" x="155.632,161.707,165.01" svgx:width="0.69,0.37,0.48" style="fill:rgb(0,0,0);font-family:MinionPro-Regular;font-size:9.0px;stroke:none;">As1</text>
   <text y="616.659" x="169.33" svgx:width="1.0" style="fill:rgb(0,0,0);font-family:EuclidSymbol;font-size:9.0px;stroke:none;">…</text>
   <text y="616.659" x="178.33,184.405,187.708,192.028,194.08,195.916,201.991,205.294" svgx:width="0.69,0.37,0.48,0.23,0.23,0.69,0.37,0.48" style="fill:rgb(0,0,0);font-family:MinionPro-Regular;font-size:9.0px;stroke:none;">As3, As2</text>
   <text y="616.659" x="209.614" svgx:width="1.0" style="fill:rgb(0,0,0);font-family:EuclidSymbol;font-size:9.0px;stroke:none;">…</text>
   <text y="616.659" x="218.614,224.689,227.992" svgx:width="0.69,0.37,0.48" style="fill:rgb(0,0,0);font-family:MinionPro-Regular;font-size:9.0px;stroke:none;">As4</text>
   <text y="616.659" x="232.312" svgx:width="0.25" style="fill:rgb(0,0,0);font-family:EuclidSymbol;font-size:9.0px;stroke:none;">′</text>
   <text y="616.659" x="234.535,236.371,240.241,245.128,249.88,251.716,257.791,261.094" svgx:width="0.23,0.44,0.55,0.53,0.23,0.69,0.37,0.48" style="fill:rgb(0,0,0);font-family:MinionPro-Regular;font-size:9.0px;stroke:none;"> and As2</text>
   <text y="616.659" x="265.414" svgx:width="1.0" style="fill:rgb(0,0,0);font-family:EuclidSymbol;font-size:9.0px;stroke:none;">…</text>
   <text y="616.659" x="274.414,280.489,283.792" svgx:width="0.69,0.37,0.48" style="fill:rgb(0,0,0);font-family:MinionPro-Regular;font-size:9.0px;stroke:none;">As3</text>
   <text y="616.659" x="288.121" svgx:width="0.25" style="fill:rgb(0,0,0);font-family:EuclidSymbol;font-size:9.0px;stroke:none;">′</text>
   <text y="616.659" x="290.344,293.458" svgx:width="0.35,0.23" style="fill:rgb(0,0,0);font-family:MinionPro-Regular;font-size:9.0px;stroke:none;">).</text>
   <text y="626.658" x="167.638,172.507,176.377,179.806,182.596,185.035,189.03,191.307,193.134,197.617,200.956,205.42,207.724,210.523,214.519,216.796,220.0,224.482,227.821,232.285,234.589,237.388,241.383,243.66,245.487,249.294,253.776,257.169,260.391,264.179,266.483,270.263,273.053,275.465,279.947,284.798,288.101,289.928,294.41,297.074,298.901,301.7,306.47,310.295,312.122,316.775,321.257,326.144,330.896,332.723,337.169,341.264,345.089,348.391,350.695,354.475,359.191,361.018,365.815,370.306,374.923,379.747,382.052,385.832,388.622,391.034,395.515,400.366,403.669,405.496,407.908,412.831" svgx:width="0.56,0.44,0.37,0.31,0.27,0.44,0.25,0.23,0.51,0.37,0.51,0.27,0.31,0.44,0.25,0.36,0.51,0.37,0.51,0.27,0.31,0.44,0.25,0.23,0.42,0.51,0.37,0.37,0.43,0.25,0.44,0.31,0.27,0.51,0.55,0.37,0.23,0.51,0.3,0.23,0.31,0.53,0.43,0.23,0.51,0.51,0.55,0.53,0.23,0.51,0.46,0.43,0.37,0.25,0.44,0.52,0.23,0.52,0.51,0.52,0.53,0.25,0.44,0.31,0.27,0.51,0.55,0.37,0.23,0.27,0.55,0.23" style="fill:rgb(0,0,0);font-family:MinionPro-Regular;font-size:9.0px;stroke:none;">Partial orbital-orbital correlations of the bond overlap populations in </text>
   <text y="626.658" x="414.658,419.617,424.252,431.335" svgx:width="0.55,0.53,0.79,0.48" style="fill:rgb(0,0,0);font-family:MinionPro-It;font-size:9.0px;stroke:none;">Pnm2</text>
   <text y="628.462" x="435.612" svgx:width="0.48" style="fill:rgb(0,0,0);font-family:MinionPro-Regular;font-size:5.85px;stroke:none;">1</text>
   <text y="626.662" x="438.42,441.624,444.396,448.527,453.324,457.149,458.976,462.846,466.131,469.505,473.33,478.253,480.665,484.472,486.299,490.106,493.706,497.837,501.095,503.894,507.89,510.167,511.994,515.864,519.086,522.911,524.738,527.996,532.775,540.146,547.49,551.441" svgx:width="0.36,0.31,0.46,0.52,0.43,0.23,0.44,0.37,0.37,0.43,0.55,0.27,0.42,0.23,0.42,0.37,0.46,0.37,0.31,0.44,0.25,0.23,0.44,0.37,0.43,0.23,0.37,0.53,0.82,0.82,0.44,0.36" style="fill:rgb(0,0,0);font-family:MinionPro-Regular;font-size:9.0px;stroke:none;">-type arsenic crystal are summa-</text>
   <text y="636.661" x="155.64,159.076,161.533,165.358,169.27,174.067,176.056,178.513,183.481,185.47,190.669,194.962,197.696,201.566,206.495,211.292,215.205,220.002,221.991,228.702,232.525,235.367,239.363,241.352,246.12,250.041,254.594,256.916,260.786,262.775,267.14,269.237,271.226,275.858,280.383,283.767,285.756,289.608,294.096,298.308,302.347,304.669,308.539,313.333,316.123,318.112,322.807,327.332,332.262,337.059,339.516,344.409,348.666,350.655,353.814,357.115,359.948,363.213,367.737,372.631,376.888,378.877,383.573,388.098,393.028,397.825,400.282,405.176,409.433,412.592,414.689,416.678,419.52,424.333,428.203,430.192,434.044,438.569,443.363,446.195,449.632,452.05,456.566,461.279,464.112,466.569,471.093,476.061,478.05,482.574,485.283" svgx:width="0.37,0.27,0.42,0.43,0.53,0.23,0.27,0.55,0.23,0.57,0.47,0.31,0.43,0.55,0.53,0.43,0.53,0.23,0.74,0.44,0.31,0.44,0.23,0.62,0.44,0.51,0.25,0.43,0.23,0.48,0.23,0.23,0.53,0.51,0.37,0.23,0.42,0.51,0.46,0.44,0.25,0.43,0.55,0.31,0.23,0.51,0.51,0.55,0.53,0.27,0.55,0.47,0.23,0.35,0.37,0.31,0.37,0.51,0.55,0.47,0.23,0.51,0.51,0.55,0.53,0.27,0.55,0.47,0.35,0.23,0.23,0.31,0.53,0.43,0.23,0.42,0.51,0.55,0.31,0.37,0.27,0.51,0.53,0.31,0.27,0.51,0.55,0.23,0.51,0.3,0.23" style="fill:rgb(0,0,0);font-family:MinionPro-Regular;font-size:9.0px;stroke:none;">rized in Extended Data Table 2. For covalent bonding (strong bonding), the contribution of </text>
   <text y="636.661" x="487.272,491.61" svgx:width="0.49,0.49" style="fill:rgb(0,0,0);font-family:MinionPro-It;font-size:9.0px;stroke:none;">pp</text>
   <text y="636.661" x="495.939,497.928,502.571,506.852,511.359,514.794,517.251,522.048,524.505,528.33,532.153,534.985,537.442,541.966,546.934,548.923,551.35,554.653" svgx:width="0.23,0.53,0.46,0.51,0.37,0.27,0.53,0.27,0.42,0.44,0.31,0.27,0.51,0.55,0.23,0.27,0.37,0.23" style="fill:rgb(0,0,0);font-family:MinionPro-Regular;font-size:9.0px;stroke:none;"> hybridization is </text>
   <text y="646.66" x="155.64,158.493,163.317,167.196,169.221,171.578,175.502,178.823,183.017,186.896,190.208,193.007,195.113,197.138,201.062,206.003,210.809" svgx:width="0.31,0.53,0.43,0.23,0.25,0.44,0.37,0.47,0.43,0.37,0.31,0.23,0.23,0.44,0.55,0.53,0.23" style="fill:rgb(0,0,0);font-family:MinionPro-Regular;font-size:9.0px;stroke:none;">the largest, and </text>
   <text y="646.66" x="212.834,217.226" svgx:width="0.49,0.51" style="fill:rgb(0,0,0);font-family:MinionPro-It;font-size:9.0px;stroke:none;">pd</text>
   <text y="646.66" x="221.853,223.878,227.802,232.743,237.549" svgx:width="0.23,0.44,0.55,0.53,0.23" style="fill:rgb(0,0,0);font-family:MinionPro-Regular;font-size:9.0px;stroke:none;"> and </text>
   <text y="646.66" x="239.574,242.688" svgx:width="0.34,0.51" style="fill:rgb(0,0,0);font-family:MinionPro-It;font-size:9.0px;stroke:none;">sd</text>
   <text y="646.66" x="247.314,249.339,254.172,258.015,262.164,266.043,268.068,271.379,276.176,280.802,284.231,288.155,292.718,297.551,301.43,306.236,309.035,311.06,314.921,319.457,324.263,327.107,330.553,332.983,337.51,342.234,345.078,347.544,352.079,356.984,360.341,362.447,364.472,369.997,374.533,379.474,384.28,386.746,391.651,395.917,397.942,402.477,405.87,410.388,412.745,415.598,419.648,421.951,425.308,427.333,430.609,434.488,437.341,441.265,443.731,448.708,450.733,457.987,462.82,466.626,471.486,473.511,478.047,480.765,482.79,485.643,490.467,494.346" svgx:width="0.23,0.53,0.44,0.46,0.43,0.23,0.37,0.53,0.51,0.37,0.43,0.51,0.53,0.43,0.55,0.31,0.23,0.42,0.51,0.55,0.31,0.37,0.27,0.51,0.53,0.31,0.27,0.51,0.55,0.37,0.23,0.23,0.59,0.51,0.55,0.53,0.27,0.55,0.47,0.23,0.51,0.37,0.51,0.27,0.31,0.44,0.25,0.37,0.23,0.37,0.43,0.31,0.44,0.27,0.55,0.23,0.82,0.53,0.42,0.53,0.23,0.51,0.3,0.23,0.31,0.53,0.43,0.23" style="fill:rgb(0,0,0);font-family:MinionPro-Regular;font-size:9.0px;stroke:none;"> have subsequent contributions. Bonding orbitals retain much of the </text>
   <text y="646.66" x="496.371" svgx:width="0.49" style="fill:rgb(0,0,0);font-family:MinionPro-It;font-size:9.0px;stroke:none;">p</text>
   <text y="646.66" x="500.808,504.066,506.397,508.908,513.345,517.224,519.249,523.056,527.889,531.813,535.206,539.211,543.135,545.88,549.759,552.585,554.637" svgx:width="0.36,0.25,0.27,0.5,0.43,0.23,0.42,0.53,0.44,0.37,0.44,0.42,0.31,0.43,0.37,0.23,0.23" style="fill:rgb(0,0,0);font-family:MinionPro-Regular;font-size:9.0px;stroke:none;">-like character. </text>
   <text y="656.659" x="155.631,161.751,166.233,170.985,173.774,177.167,179.544,184.017,188.688,191.478,193.89,198.372,203.294,205.076,209.558,212.222" svgx:width="0.67,0.51,0.55,0.31,0.37,0.27,0.51,0.53,0.31,0.27,0.51,0.55,0.23,0.51,0.3,0.23" style="fill:rgb(0,0,0);font-family:MinionPro-Regular;font-size:9.0px;stroke:none;">Contribution of </text>
   <text y="656.659" x="214.004,216.956" svgx:width="0.34,0.49" style="fill:rgb(0,0,0);font-family:MinionPro-It;font-size:9.0px;stroke:none;">sp</text>
   <text y="656.659" x="221.331,223.113,227.712,231.951,236.415,239.808,242.22,246.972,249.384,253.164,256.944,259.734,262.146,266.628,271.551,273.333,279.498,283.422,286.725,288.507,293.394,297.885,300.63,302.412,306.957,311.529,314.904,318.729,322.329,326.424,330.294,334.992,337.044,338.826,343.416,347.898,351.237,353.019,357.186,361.056,365.979,367.761,372.513,376.338,379.677,381.459,389.307,393.258,397.254,399.504,402.807,404.589,409.242,413.724,418.611,423.363,425.775,430.626,434.838,436.62,439.734,445.827,449.706,453.702,458.166,459.948,464.601,469.083,473.97,478.722,481.134,485.985,490.197,493.311,495.363,497.145,500.952,505.434,510.186,512.976,516.369,518.745,523.218,527.889,530.679,533.091,537.573,542.424,545.727,547.509,551.991,554.655" svgx:width="0.23,0.53,0.46,0.51,0.37,0.27,0.53,0.27,0.42,0.44,0.31,0.27,0.51,0.55,0.23,0.69,0.44,0.37,0.23,0.55,0.51,0.31,0.23,0.51,0.51,0.37,0.43,0.37,0.46,0.43,0.53,0.23,0.23,0.53,0.51,0.37,0.23,0.46,0.44,0.55,0.23,0.53,0.43,0.37,0.23,0.97,0.44,0.44,0.25,0.37,0.23,0.51,0.51,0.55,0.53,0.27,0.55,0.47,0.23,0.35,0.69,0.43,0.44,0.5,0.23,0.51,0.51,0.55,0.53,0.27,0.55,0.47,0.35,0.23,0.23,0.42,0.51,0.55,0.31,0.37,0.27,0.51,0.53,0.31,0.27,0.51,0.55,0.37,0.23,0.51,0.3,0.23" style="fill:rgb(0,0,0);font-family:MinionPro-Regular;font-size:9.0px;stroke:none;"> hybridization was not observed. For van der Waals bonding (weak bonding), contributions of </text>
   <text y="666.658" x="155.631,158.664" svgx:width="0.34,0.51" style="fill:rgb(0,0,0);font-family:MinionPro-It;font-size:9.0px;stroke:none;">sd</text>
   <text y="666.658" x="163.209,164.919,168.762,173.625,178.352" svgx:width="0.23,0.44,0.55,0.53,0.23" style="fill:rgb(0,0,0);font-family:MinionPro-Regular;font-size:9.0px;stroke:none;"> and </text>
   <text y="666.658" x="180.062,184.373" svgx:width="0.49,0.51" style="fill:rgb(0,0,0);font-family:MinionPro-It;font-size:9.0px;stroke:none;">pd</text>
   <text y="666.658" x="188.931,190.641,195.216,199.43,203.87,207.237,209.622,214.347,216.732,220.485,224.24,227.006,229.391,233.849,238.745,240.455,244.3,247.498,251.296,253.006,255.391,262.566,267.339,271.795,275.2,277.974,281.82,286.546,289.264,291.289,292.999,296.844,301.707,306.432" svgx:width="0.23,0.53,0.46,0.51,0.37,0.27,0.53,0.27,0.42,0.44,0.31,0.27,0.51,0.55,0.23,0.44,0.37,0.43,0.23,0.27,0.82,0.52,0.51,0.37,0.31,0.44,0.55,0.31,0.23,0.23,0.44,0.55,0.53,0.23" style="fill:rgb(0,0,0);font-family:MinionPro-Regular;font-size:9.0px;stroke:none;"> hybridization are important, and </text>
   <text y="666.658" x="308.142,312.408" svgx:width="0.49,0.49" style="fill:rgb(0,0,0);font-family:MinionPro-It;font-size:9.0px;stroke:none;">pp</text>
   <text y="666.658" x="316.794,318.504,323.259,327.158,330.434,332.144,335.377,340.095,344.64,347.99,351.835,356.32,361.072,364.87,369.597,372.315,374.025,377.805,382.262,386.99,389.755,393.123,395.474,399.923,404.57,407.334,409.719,414.176,419.003,422.279,424.304,426.014,428.708,431.426,433.136,435.496,438.772,440.482,443.725,448.47,452.891,459.059,463.955,465.665,468.44,473.195,476.949,479.667" svgx:width="0.23,0.53,0.44,0.37,0.23,0.37,0.53,0.51,0.37,0.43,0.51,0.53,0.43,0.55,0.31,0.23,0.42,0.51,0.55,0.31,0.37,0.27,0.51,0.53,0.31,0.27,0.51,0.55,0.37,0.23,0.23,0.34,0.31,0.23,0.27,0.37,0.23,0.37,0.53,0.51,0.69,0.55,0.23,0.31,0.53,0.44,0.31,0.23" style="fill:rgb(0,0,0);font-family:MinionPro-Regular;font-size:9.0px;stroke:none;"> has subsequent contributions. It is shown that </text>
   <text y="666.658" x="481.377" svgx:width="0.51" style="fill:rgb(0,0,0);font-family:MinionPro-It;font-size:9.0px;stroke:none;">d</text>
   <text y="666.658" x="485.967,489.146,493.601,496.916,501.353,503.63,506.404,510.374,512.6,515.878,517.588,521.371,525.826,530.553,533.318,536.687,539.038,543.486,548.13,550.797,554.622" svgx:width="0.36,0.51,0.37,0.51,0.27,0.31,0.44,0.25,0.37,0.23,0.42,0.51,0.55,0.31,0.37,0.27,0.51,0.53,0.31,0.43,0.23" style="fill:rgb(0,0,0);font-family:MinionPro-Regular;font-size:9.0px;stroke:none;">-orbitals contribute </text>
   <text y="676.657" x="155.631,159.865,163.064,166.921,170.678,173.454,175.645,179.753,181.463,183.853,188.753,190.463,194.247,198.67,202.815,206.787,209.042,212.844,217.573,220.296,222.006,226.635,231.095,235.959,240.661,243.941,245.651,249.499,254.362,259.092,260.802,264.604,267.84,272.613,276.461,280.245,282.661,286.634,288.933,291.124,295.232,296.942,299.332,304.231,305.941,310.085,313.933,318.832,320.542,325.271,329.073,332.389,334.099,341.923,345.852,349.825,352.052,355.333,357.043,361.672,366.132,370.996,375.698,378.978,381.008,382.718,392.297,396.1" svgx:width="0.47,0.37,0.43,0.44,0.31,0.25,0.46,0.23,0.27,0.55,0.23,0.42,0.51,0.46,0.44,0.25,0.43,0.55,0.31,0.23,0.51,0.51,0.55,0.53,0.37,0.23,0.44,0.55,0.53,0.23,0.43,0.37,0.52,0.43,0.42,0.27,0.44,0.25,0.25,0.46,0.23,0.27,0.55,0.23,0.46,0.44,0.55,0.23,0.53,0.43,0.37,0.23,0.97,0.44,0.44,0.25,0.37,0.23,0.51,0.51,0.55,0.53,0.37,0.23,0.23,1.07,0.43,0.23" style="fill:rgb(0,0,0);font-family:MinionPro-Regular;font-size:9.0px;stroke:none;">greatly in covalent bonds and especially in van der Waals bonds. The </text>
   <text y="676.657" x="397.81" svgx:width="0.51" style="fill:rgb(0,0,0);font-family:MinionPro-It;font-size:9.0px;stroke:none;">d</text>
   <text y="676.657" x="402.402,404.112,407.879,410.133,413.98,417.827,420.594,423.794,428.252,433.081,436.36,438.07,441.917,445.116,448.919,450.629,454.602,456.829,460.181,464.748,466.458,469.658,473.459,476.695,481.469,485.928,490.756,494.036,496.389,500.876,503.13,506.932,508.642,511.203,515.662,518.978,520.688,524.472,528.976,533.723,537.526,540.805,543.195,547.654,552.554,554.606" svgx:width="0.23,0.43,0.25,0.43,0.42,0.31,0.37,0.51,0.55,0.37,0.23,0.44,0.37,0.43,0.23,0.44,0.25,0.37,0.51,0.23,0.37,0.43,0.37,0.52,0.51,0.55,0.37,0.27,0.51,0.25,0.43,0.23,0.3,0.51,0.37,0.23,0.42,0.51,0.53,0.43,0.37,0.27,0.51,0.55,0.23,0.23" style="fill:rgb(0,0,0);font-family:MinionPro-Regular;font-size:9.0px;stroke:none;"> electrons are also responsible for cohesion. </text>
   <text y="686.656" x="155.631,161.632,166.258,169.684,174.262,176.483,181.205,183.947,187.826,189.842,194.063,198.11,200.331,205.164,209.043,212.4,214.416,218.949,221.667,223.683,228.495,232.417,235.897,238.738,241.229,245.276,247.607,249.623,254.156,257.549,262.064,264.42,267.27,271.317,273.648,276.906,281.44,284.833,289.348,291.703,294.554,298.601,300.932,302.948,306.809,311.343,314.787,318.061,321.901,324.255,328.088,330.928,333.394,337.928,342.831,346.188,348.204,350.838,355.372,358.765,360.781,364.702,369.506,372.347,374.813,378.071,382.775,387.309,392.247,397.053,399.519,404.421,408.687,410.703,414.624,417.898,421.777,423.793,428.596,431.905,436.763,440.81,443.183,445.449,449.634,451.65,454.005,457.926,461.244,465.436,469.315,472.708,474.724,477.574,482.404,486.326,491.303,493.319,496.169,500.99,505.634,509.061,512.94,514.956,517.59,522.123,525.516,527.532,531.753,535.674,540.651,542.667,547.473,551.352,554.691" svgx:width="0.69,0.51,0.37,0.51,0.25,0.53,0.31,0.43,0.23,0.46,0.44,0.25,0.53,0.43,0.37,0.23,0.51,0.3,0.23,0.52,0.44,0.37,0.31,0.27,0.44,0.25,0.23,0.51,0.37,0.51,0.27,0.31,0.44,0.25,0.36,0.51,0.37,0.51,0.27,0.31,0.44,0.25,0.23,0.42,0.51,0.37,0.37,0.43,0.25,0.44,0.31,0.27,0.51,0.55,0.37,0.23,0.3,0.51,0.37,0.23,0.44,0.55,0.31,0.27,0.36,0.51,0.51,0.55,0.53,0.27,0.55,0.47,0.23,0.44,0.37,0.43,0.23,0.53,0.37,0.53,0.44,0.25,0.25,0.46,0.23,0.25,0.44,0.37,0.47,0.43,0.37,0.23,0.31,0.53,0.44,0.55,0.23,0.31,0.53,0.51,0.37,0.43,0.23,0.3,0.51,0.37,0.23,0.46,0.44,0.55,0.23,0.53,0.43,0.37,0.23" style="fill:rgb(0,0,0);font-family:MinionPro-Regular;font-size:9.0px;stroke:none;">Absolute values of partial orbital-orbital correlations for anti-bonding are usually larger than those for van der </text>
   <text y="696.655" x="155.631,163.479,167.43,171.426,173.676,176.979,178.815,183.468,187.95,192.837,197.589,200.001,204.852,209.091,211.143,212.979,218.451,222.933,227.82,232.572,234.408,238.854,242.949,246.774,250.076,252.38,256.16,260.876,264.18,266.016,269.885,273.107,276.932,278.768,283.529,287.399,290.828,293.618,296.03,299.9,304.724,307.027,310.898,314.2,316.414,320.545,322.381,325.684,333.028,337.024,339.346,341.623,343.459,345.871,350.794,352.63,355.429,360.199,364.024,365.86,371.935,375.238,379.558,382.762,388.837,392.14,396.46,398.296,402.166,407.054,411.806,413.642,419.717,423.02,427.34,430.544,436.619,439.922,444.242,446.078,450.245,454.115,459.038,460.874,465.626,469.451,472.79,474.626,482.474,486.425,490.421,492.671,495.974,497.81,502.463,506.945,511.831,516.557,519.86" svgx:width="0.97,0.44,0.44,0.25,0.37,0.23,0.51,0.51,0.55,0.53,0.27,0.55,0.47,0.23,0.23,0.59,0.51,0.55,0.53,0.23,0.51,0.46,0.43,0.37,0.25,0.44,0.52,0.37,0.23,0.44,0.37,0.43,0.23,0.52,0.44,0.37,0.31,0.27,0.42,0.53,0.25,0.44,0.37,0.25,0.46,0.23,0.37,0.82,0.44,0.25,0.25,0.23,0.27,0.55,0.23,0.31,0.53,0.43,0.23,0.69,0.37,0.48,0.36,0.69,0.37,0.48,0.23,0.44,0.55,0.53,0.23,0.69,0.37,0.48,0.36,0.69,0.37,0.48,0.23,0.46,0.44,0.55,0.23,0.53,0.43,0.37,0.23,0.97,0.44,0.44,0.25,0.37,0.23,0.51,0.51,0.55,0.53,0.37,0.23" style="fill:rgb(0,0,0);font-family:MinionPro-Regular;font-size:9.0px;stroke:none;">Waals bonding. Bond overlaps are particularly small in the As1-As3 and As2-As4 van der Waals bonds.</text>
   <text y="706.654" x="167.628,177.231,181.056,182.793,186.582,188.859,192.729,196.599,199.389,202.61,207.092,212.015,213.752,217.559,222.041,226.964,231.779,235.992,240.771,244.11,247.889,250.679,253.091,257.573,262.496,264.233,268.715,271.379,273.116,279.191,282.494,284.231,286.616,289.919,291.656,295.976" svgx:width="1.07,0.43,0.23,0.43,0.25,0.43,0.42,0.31,0.37,0.51,0.55,0.23,0.42,0.51,0.55,0.54,0.47,0.53,0.37,0.44,0.31,0.27,0.51,0.55,0.23,0.51,0.3,0.23,0.69,0.37,0.23,0.27,0.37,0.23,0.48,0.23" style="fill:rgb(0,0,0);font-family:MinionPro-Regular;font-size:9.0px;stroke:none;">The electron configuration of As is 4 </text>
   <text y="706.654" x="297.111" svgx:width="0.34" style="fill:rgb(0,0,0);font-family:MinionPro-It;font-size:9.0px;stroke:none;">s</text>
   <text y="703.602" x="300.151" svgx:width="0.48" style="fill:rgb(0,0,0);font-family:MinionPro-Regular;font-size:5.85px;stroke:none;">2</text>
   <text y="706.662" x="302.959" svgx:width="0.23" style="fill:rgb(0,0,0);font-family:MinionPro-Regular;font-size:9.0px;stroke:none;"> </text>
   <text y="706.662" x="304.696,308.989" svgx:width="0.48,0.51" style="fill:rgb(0,0,0);font-family:MinionPro-It;font-size:9.0px;stroke:none;">3d</text>
   <text y="703.602" x="313.562,316.37" svgx:width="0.48,0.48" style="fill:rgb(0,0,0);font-family:MinionPro-Regular;font-size:5.85px;stroke:none;">10</text>
   <text y="706.662" x="319.178" svgx:width="0.23" style="fill:rgb(0,0,0);font-family:MinionPro-Regular;font-size:9.0px;stroke:none;"> </text>
   <text y="706.662" x="320.915,325.208" svgx:width="0.48,0.49" style="fill:rgb(0,0,0);font-family:MinionPro-It;font-size:9.0px;stroke:none;">4p</text>
   <text y="703.602" x="329.583" svgx:width="0.48" style="fill:rgb(0,0,0);font-family:MinionPro-Regular;font-size:5.85px;stroke:none;">3</text>
   <text y="706.662" x="332.391,334.443,336.18,342.03,344.721,349.203,356.574,358.986,362.793,364.53,369.417,373.242,375.987,377.724,381.477,386.256,390.126,393.393,397.533,401.358,403.095,406.965,411.852,416.604,418.341,422.148,426.63,431.382,434.172,437.565,439.941,444.414,449.085,451.875,454.287,458.768,463.619,466.922,468.659,473.141,475.805,477.542,481.421,485.372,489.125,493.931,495.668,500.15,503.489,507.953,510.257,513.056,517.052,519.329,521.066,523.757,528.347,530.084,533.864,536.555,541.037,548.408,550.82,554.627" svgx:width="0.23,0.23,0.69,0.31,0.51,0.82,0.27,0.42,0.23,0.55,0.43,0.31,0.23,0.42,0.53,0.44,0.37,0.47,0.43,0.23,0.44,0.55,0.53,0.23,0.42,0.51,0.55,0.31,0.37,0.27,0.51,0.53,0.31,0.27,0.51,0.55,0.37,0.23,0.51,0.3,0.23,0.43,0.44,0.42,0.53,0.23,0.51,0.37,0.51,0.27,0.31,0.44,0.25,0.23,0.31,0.51,0.23,0.44,0.31,0.51,0.82,0.27,0.42,0.23" style="fill:rgb(0,0,0);font-family:MinionPro-Regular;font-size:9.0px;stroke:none;">. Atomic net charge and contributions of each orbital to atomic </text>
   <text y="716.661" x="155.64,159.387,164.161,168.026,171.287,175.422,179.238,180.966,183.369,188.283" svgx:width="0.42,0.53,0.44,0.37,0.47,0.43,0.23,0.27,0.55,0.23" style="fill:rgb(0,0,0);font-family:MinionPro-Regular;font-size:9.0px;stroke:none;">charge in </text>
   <text y="716.661" x="190.011,194.964,199.59,206.668" svgx:width="0.55,0.53,0.79,0.48" style="fill:rgb(0,0,0);font-family:MinionPro-It;font-size:9.0px;stroke:none;">Pnm2</text>
   <text y="718.462" x="210.974" svgx:width="0.48" style="fill:rgb(0,0,0);font-family:MinionPro-Regular;font-size:5.85px;stroke:none;">1</text>
   <text y="716.662" x="213.778,216.973,223.043,226.337,228.065,231.863,235.457,239.579,242.832,245.625,249.616,251.861,255.155,256.883,260.747,263.964,267.78,269.508,272.76,277.53,284.892,292.231,296.096,299.483,301.886,305.657,309.522,314.265,315.993,318.396,323.31,325.038,329.757,333.631,338.135,340.403,344.219" svgx:width="0.36,0.69,0.37,0.23,0.42,0.37,0.46,0.37,0.31,0.44,0.25,0.37,0.23,0.44,0.37,0.43,0.23,0.37,0.53,0.82,0.82,0.44,0.37,0.27,0.42,0.43,0.53,0.23,0.27,0.55,0.23,0.62,0.44,0.51,0.25,0.43,0.23" style="fill:rgb(0,0,0);font-family:MinionPro-Regular;font-size:9.0px;stroke:none;">-As crystals are summarized in Table </text>
   <text y="716.662" x="346.015" svgx:width="0.48" style="fill:rgb(0,0,255);font-family:MinionPro-Regular;font-size:9.0px;stroke:none;">1</text>
   <text y="716.662" x="350.326,352.369,354.097,363.695,367.511,369.239,376.568,381.149,384.402,387.138,388.866,391.269,398.463,403.255,407.732,411.155,413.949,417.813,422.56,425.296,427.024,430.241,434.057,437.309,442.128,444.291,447.027,448.755,451.135,454.429,456.157,458.951,463.724,467.499,470.235,471.963,474.648,479.134,481.927,485.918,488.186,489.914,493.662,498.435,502.3,505.561,509.696,513.512,516.806,518.534,522.399,525.615,529.431,531.159,534.907,537.175,541.048,544.913,548.211,550.419,554.55" svgx:width="0.23,0.23,1.07,0.43,0.23,0.82,0.51,0.37,0.31,0.23,0.27,0.82,0.52,0.51,0.37,0.31,0.44,0.55,0.31,0.23,0.37,0.43,0.37,0.53,0.25,0.31,0.23,0.27,0.37,0.23,0.31,0.53,0.44,0.31,0.23,0.31,0.51,0.31,0.44,0.25,0.23,0.42,0.53,0.44,0.37,0.47,0.43,0.37,0.23,0.44,0.37,0.43,0.23,0.42,0.25,0.43,0.44,0.37,0.25,0.46,0.23" style="fill:rgb(0,0,0);font-family:MinionPro-Regular;font-size:9.0px;stroke:none;">. The most important result is that total charges are clearly </text>
   <text y="726.661" x="155.629,160.381,162.73,166.924,169.336,174.088,177.958,182.71,184.573,186.985,191.737,194.428,199.018,200.881,205.678,210.268,213.571,215.874,218.664,221.013,225.108,228.933,230.796,234.666,239.553,244.305,246.168,251.055,254.88,259.092,262.871,265.661,268.01,272.105,275.93,277.793,280.205,285.128,286.991,289.789,294.56,298.385,300.248,306.323,309.626,313.946,315.998,317.861,323.936,327.239" svgx:width="0.53,0.27,0.46,0.27,0.53,0.43,0.53,0.23,0.27,0.55,0.31,0.51,0.23,0.52,0.51,0.37,0.27,0.31,0.27,0.46,0.43,0.23,0.44,0.55,0.53,0.23,0.55,0.43,0.47,0.44,0.31,0.27,0.46,0.43,0.23,0.27,0.55,0.23,0.31,0.53,0.43,0.23,0.69,0.37,0.48,0.23,0.23,0.69,0.37,0.48" style="fill:rgb(0,0,0);font-family:MinionPro-Regular;font-size:9.0px;stroke:none;">divided into positive and negative in the As1, As1</text>
   <text y="726.661" x="331.559" svgx:width="0.25" style="fill:rgb(0,0,0);font-family:EuclidSymbol;font-size:9.0px;stroke:none;">′</text>
   <text y="726.661" x="333.782,335.834,337.697,343.772,347.075,351.395,353.447,355.31,361.385,364.688" svgx:width="0.23,0.23,0.69,0.37,0.48,0.23,0.23,0.69,0.37,0.48" style="fill:rgb(0,0,0);font-family:MinionPro-Regular;font-size:9.0px;stroke:none;">, As2, As2</text>
   <text y="726.661" x="369.008" svgx:width="0.25" style="fill:rgb(0,0,0);font-family:EuclidSymbol;font-size:9.0px;stroke:none;">′</text>
   <text y="726.661" x="371.231,373.094,376.964,381.852,386.604,388.467,394.542,397.845,402.165,404.217,406.08,412.155,415.458" svgx:width="0.23,0.44,0.55,0.53,0.23,0.69,0.37,0.48,0.23,0.23,0.69,0.37,0.48" style="fill:rgb(0,0,0);font-family:MinionPro-Regular;font-size:9.0px;stroke:none;"> and As3, As3</text>
   <text y="726.661" x="419.778" svgx:width="0.25" style="fill:rgb(0,0,0);font-family:EuclidSymbol;font-size:9.0px;stroke:none;">′</text>
   <text y="726.661" x="422.001,424.053,425.916,431.991,435.294,439.614,441.666,443.529,449.604,452.907" svgx:width="0.23,0.23,0.69,0.37,0.48,0.23,0.23,0.69,0.37,0.48" style="fill:rgb(0,0,0);font-family:MinionPro-Regular;font-size:9.0px;stroke:none;">, As4, As4</text>
   <text y="726.661" x="457.227" svgx:width="0.25" style="fill:rgb(0,0,0);font-family:EuclidSymbol;font-size:9.0px;stroke:none;">′</text>
   <text y="726.661" x="459.45,461.313,466.109,470.591,474.02,476.81,479.222,483.704,488.555,491.858,493.91,495.773,498.996,502.821,506.078,510.875,514.745,518.615,521.405,523.754,527.849,531.637,533.851,537.326,539.378,541.241,550.844,554.669" svgx:width="0.23,0.52,0.51,0.37,0.31,0.27,0.51,0.55,0.37,0.23,0.23,0.37,0.43,0.37,0.52,0.43,0.42,0.31,0.27,0.46,0.43,0.25,0.46,0.23,0.23,1.07,0.43,0.23" style="fill:rgb(0,0,0);font-family:MinionPro-Regular;font-size:9.0px;stroke:none;"> portions, respectively. The </text>
   <text y="736.66" x="155.629,160.426,164.366,168.603,171.084,174.907,177.739,180.196,184.721,189.689,191.678,194.474,197.738,202.263,209.679,211.668,216.033,218.13,222.495,226.86,231.225,233.214,237.739,240.448,242.437,245.278,250.09,253.96,255.949,259.781,263.919,267.789,271.173,275.121,279.303,283.173,285.162,288.958,293.78,297.692,301.002,305.185,309.055,311.044,315.568,318.277,320.266,324.304,326.669,328.991,330.98,334.802,337.536,342.06,349.402,352.75,354.739,357.196,362.125,366.922,369.379,373.255,377.078,379.812,383.682,387.03,389.019,392.85,395.172,399.085,402.998,405.83,409.095,413.619,418.587,420.576,423.409,426.793,430.706,435.599,438.947,441.573,445.443,448.257,450.354,452.343,457.056,461.59,464.432,468.47,470.792,472.781,476.576,481.398,485.311,488.621,492.803,496.673,500.021,502.01,506.535,509.244,511.233,515.598,517.695,522.06,526.425,528.414,531.039,535.564,538.948,540.937,547.055,550.403,554.723" svgx:width="0.53,0.43,0.46,0.27,0.44,0.31,0.27,0.51,0.55,0.23,0.3,0.37,0.51,0.82,0.23,0.48,0.23,0.48,0.48,0.48,0.23,0.51,0.3,0.23,0.31,0.53,0.43,0.23,0.44,0.46,0.43,0.37,0.44,0.47,0.43,0.23,0.42,0.53,0.44,0.37,0.47,0.43,0.23,0.51,0.3,0.23,0.44,0.25,0.25,0.23,0.44,0.31,0.51,0.82,0.37,0.23,0.27,0.55,0.53,0.27,0.42,0.44,0.31,0.43,0.37,0.23,0.43,0.25,0.43,0.42,0.31,0.37,0.51,0.55,0.23,0.31,0.37,0.44,0.55,0.37,0.3,0.43,0.37,0.23,0.23,0.62,0.51,0.31,0.44,0.25,0.23,0.42,0.53,0.44,0.37,0.47,0.43,0.37,0.23,0.51,0.3,0.23,0.48,0.23,0.48,0.48,0.23,0.3,0.51,0.37,0.23,0.69,0.37,0.48,0.23" style="fill:rgb(0,0,0);font-family:MinionPro-Regular;font-size:9.0px;stroke:none;">deviation from 5.000 of the average charge of all atoms indicates electron transfer. Total charges of 4.97 for As2 </text>
  </g>
  <rect style="stroke:blue;stroke-width:0.3;" x="155.638" y="64.138" height="127.68" width="324.0" title="3"/>
  <text y="64.138" class="image" id="image.3.1" width="324" height="127" x="155.638">image.3.1.156_480.64_192</text>
  <rect style="stroke:blue;stroke-width:0.3;" x="155.638" y="64.138" height="127.68" width="324.0" title="3"/>
  <text y="64.138" class="image" id="image.3.2" width="324" height="127" x="155.638">image.3.2.156_480.64_192</text>
  <path style="fill:none;stroke:rgb(131,144,151);stroke-width:0.3;" d="M159.13 242.72 L552.64 242.72 "/>
  <path style="fill:none;stroke:rgb(131,144,151);stroke-width:1.0;" d="M156.14 242.72 L156.14 242.72 M554.14 242.72 L554.14 242.72 "/>
  <g begin="text">
   <text y="192.723" x="155.638,160.552,163.207,167.662,172.657,176.221,180.154,181.909,186.409" svgx:width="0.55,0.29,0.49,0.56,0.4,0.44,0.22,0.5,0.25" style="fill:rgb(0,0,0);font-family:MinionPro-Bold;font-size:9.0px;stroke:none;">Figure 2.</text>
   <text y="192.723" x="188.695,190.765,193.195,197.353,202.465,210.484,212.32,214.732,222.076,225.982,230.122,233.947,235.783,240.265,242.929,244.765,248.572,252.172,256.303,259.561,262.36,266.355,268.632,270.468,274.374,278.64,282.897,286.119,289.944,294.156,297.936,300.627,304.452,306.288,310.77,313.434" svgx:width="0.23,0.55,0.47,0.57,0.89,0.23,0.27,0.82,0.44,0.47,0.43,0.23,0.51,0.3,0.23,0.42,0.37,0.46,0.37,0.31,0.44,0.25,0.23,0.44,0.47,0.47,0.37,0.43,0.47,0.44,0.31,0.43,0.23,0.51,0.3,0.23" style="fill:rgb(0,0,0);font-family:MinionPro-Regular;font-size:9.0px;stroke:none;"> SEM image of crystal aggregate of </text>
   <text y="192.723" x="315.27,320.229,324.864,331.947" svgx:width="0.55,0.53,0.79,0.48" style="fill:rgb(0,0,0);font-family:MinionPro-It;font-size:9.0px;stroke:none;">Pnm2</text>
   <text y="194.523" x="336.257" svgx:width="0.48" style="fill:rgb(0,0,0);font-family:MinionPro-Regular;font-size:5.85px;stroke:none;">1</text>
   <text y="192.723" x="339.065,342.269,346.139,349.361,353.186,356.561,360.386,365.309,367.721,371.528,373.364,377.234,382.121,386.873,388.709,391.508,396.278,400.103,401.939,405.161,408.95,411.253,415.033,417.823,420.235,424.717,429.568,432.835,437.641,439.945,444.661,446.497,451.15,454.975,457.746,463.839,467.709,471.534,476.457,478.293,482.1,485.7,489.831,493.089,495.888,499.884,502.161,503.997,511.332,515.814,519.243,523.896,528.666,533.193,535.47,540.06,544.488,548.619" svgx:width="0.36,0.44,0.37,0.43,0.37,0.43,0.55,0.27,0.42,0.23,0.44,0.55,0.53,0.23,0.31,0.53,0.43,0.23,0.37,0.43,0.25,0.44,0.31,0.27,0.51,0.55,0.37,0.53,0.27,0.52,0.23,0.51,0.43,0.31,0.69,0.43,0.43,0.55,0.23,0.42,0.37,0.46,0.37,0.31,0.44,0.25,0.23,0.82,0.51,0.37,0.52,0.53,0.51,0.25,0.51,0.47,0.46,0.23" style="fill:rgb(0,0,0);font-family:MinionPro-Regular;font-size:9.0px;stroke:none;">-aresenic and the relationship between crystal morphology </text>
   <text y="202.722" x="155.636,159.506,164.393,169.145,170.981,173.285,177.065,179.72,182.51,184.922,188.729,192.554,194.39,198.341,202.589,204.974,208.277,210.329,212.165,218.285,222.767,229.967,234.728,238.598,241.991,244.376,247.751,252.233,257.156,258.992,263.474,266.138,267.974,271.781,275.38,279.511,282.769,285.568,289.564,291.841,293.677,301.012,305.494,308.922,313.575,318.345,322.872,325.149,329.739,334.167,338.298,340.134,346.326,348.63,351.429,356.235,358.071,362.85,367.773,370.077,372.822,374.658,376.962,380.742,383.397,386.187,388.599,392.406,396.231,398.067,401.937,406.824,411.576,413.412,417.192,419.883,424.365,431.736,434.148,437.955,439.791,443.661,447.053,450.392,454.262,459.113,463.253,467.078,474.413,478.238,482.99,485.735,487.787" svgx:width="0.44,0.55,0.53,0.23,0.25,0.44,0.31,0.31,0.27,0.42,0.43,0.23,0.44,0.47,0.27,0.37,0.23,0.23,0.67,0.51,0.82,0.52,0.44,0.37,0.27,0.37,0.51,0.55,0.23,0.51,0.3,0.23,0.42,0.37,0.46,0.37,0.31,0.44,0.25,0.23,0.82,0.51,0.37,0.52,0.53,0.51,0.25,0.51,0.47,0.46,0.23,0.69,0.27,0.31,0.53,0.23,0.53,0.55,0.27,0.31,0.23,0.25,0.44,0.31,0.31,0.27,0.42,0.43,0.23,0.44,0.55,0.53,0.23,0.44,0.31,0.51,0.82,0.27,0.42,0.23,0.44,0.37,0.37,0.44,0.55,0.47,0.43,0.82,0.43,0.55,0.31,0.23,0.23" style="fill:rgb(0,0,0);font-family:MinionPro-Regular;font-size:9.0px;stroke:none;">and lattice axis. Comparison of crystal morphology with unit lattice and atomic arrangement. </text>
   <text y="202.722" x="489.623,494.582,499.217,506.3" svgx:width="0.55,0.53,0.79,0.48" style="fill:rgb(0,0,0);font-family:MinionPro-It;font-size:9.0px;stroke:none;">Pnm2</text>
   <text y="204.523" x="510.627" svgx:width="0.48" style="fill:rgb(0,0,0);font-family:MinionPro-Regular;font-size:5.85px;stroke:none;">1</text>
   <text y="202.723" x="513.435,516.639,520.509,523.794,527.169,530.994,535.917,538.329,542.136" svgx:width="0.36,0.44,0.37,0.37,0.43,0.55,0.27,0.42,0.23" style="fill:rgb(0,0,0);font-family:MinionPro-Regular;font-size:9.0px;stroke:none;">-arsenic </text>
   <text y="212.722" x="155.64,159.447,163.047,167.178,170.436,173.234,177.23,179.48,182.783,184.619,187.202,191.684,195.077,202.448,204.284,208.208,211.511,213.347,217.857,220.16,224.111,228.863,232.733,237.485,239.321,243.128,246.728,250.859,254.117,256.916,260.911,263.161,266.464,268.516,270.352,276.58,281.386,283.798,287.551,292.357,294.193,297.46,302.229,306.675,312.84,314.676,319.437,323.307,326.646,330.642,332.964,335.241,339.029,341.306,343.142,347.399,350.621,355.067,361.232,364.031,368.837,370.673,374.669,376.946,381.427,386.279,390.491,392.327,395.126,399.896,403.721,405.557,410.129,413.333,417.284,421.532,423.917,427.22,429.272,431.108,435.887,440.558,445.04,448.379,450.215,454.471,457.693,462.14,468.305,471.103,475.909,477.745,480.157,485.08,486.916,489.715,494.485,498.31,500.146,504.898,507.31,510.532,514.401,518.271,521.061,523.473,527.955,532.878" svgx:width="0.42,0.37,0.46,0.37,0.31,0.44,0.25,0.37,0.23,0.3,0.51,0.37,0.82,0.23,0.44,0.37,0.23,0.51,0.25,0.44,0.53,0.43,0.53,0.23,0.42,0.37,0.46,0.37,0.31,0.44,0.25,0.37,0.23,0.23,0.69,0.53,0.27,0.42,0.53,0.23,0.37,0.53,0.51,0.69,0.23,0.52,0.44,0.37,0.44,0.25,0.25,0.43,0.25,0.23,0.47,0.37,0.51,0.69,0.31,0.53,0.23,0.44,0.25,0.51,0.55,0.47,0.23,0.31,0.53,0.43,0.23,0.51,0.36,0.44,0.47,0.27,0.37,0.23,0.23,0.56,0.51,0.51,0.37,0.23,0.47,0.37,0.51,0.69,0.31,0.53,0.23,0.27,0.55,0.23,0.31,0.53,0.43,0.23,0.53,0.27,0.37,0.43,0.42,0.31,0.27,0.51,0.55,0.23" style="fill:rgb(0,0,0);font-family:MinionPro-Regular;font-size:9.0px;stroke:none;">crystals form as bladed crystals, which show parallel growth along the b-axis. Poor growth in the direction </text>
   <text y="222.721" x="155.64,160.437,164.262,167.69,172.487,176.312,181.199,185.951,188.363,192.233,197.057,199.36,203.23,206.569,208.405,211.096,215.686,217.522,220.321,225.091,228.916,230.752,234.559,237.763,241.714,245.962,248.347,251.65,253.486,256.708,260.533,263.791,268.614,270.783,273.528,276.831,278.667,281.079,286.002,287.838,291.789,293.625,296.424,301.23,303.642,308.565,310.401,315.054,317.358,321.138,323.829,327.654,329.49,332.757,337.536,341.316,346.112,349.883,351.935,353.771,359.243,363.113,366.947,370.727,375.479,378.853,382.678,384.514,389.311,393.136,396.529,398.941,403.611,408.363,410.775,414.582,416.886,419.658,423.789,425.625,428.01,431.313,433.149,436.416,441.186,445.668,449.097,451.842,453.678,456.09,461.013,462.849,465.647,470.417,474.242,476.078,480.65,483.854,487.805,492.053,494.438,497.741,499.577,504.329,506.741,509.963,513.833,517.703,520.493,522.905,527.387,532.31,534.362" svgx:width="0.52,0.43,0.37,0.52,0.43,0.55,0.53,0.27,0.42,0.53,0.25,0.44,0.37,0.23,0.31,0.51,0.23,0.31,0.53,0.43,0.23,0.42,0.36,0.44,0.47,0.27,0.37,0.23,0.37,0.43,0.37,0.53,0.25,0.31,0.37,0.23,0.27,0.55,0.23,0.44,0.23,0.31,0.53,0.27,0.55,0.23,0.52,0.25,0.44,0.31,0.43,0.23,0.37,0.53,0.44,0.52,0.43,0.23,0.23,0.59,0.43,0.42,0.44,0.53,0.37,0.43,0.23,0.52,0.43,0.37,0.27,0.51,0.53,0.27,0.42,0.27,0.31,0.46,0.23,0.27,0.37,0.23,0.37,0.53,0.51,0.37,0.31,0.23,0.27,0.55,0.23,0.31,0.53,0.43,0.23,0.51,0.36,0.44,0.47,0.27,0.37,0.23,0.53,0.27,0.37,0.43,0.42,0.31,0.27,0.51,0.55,0.23,0.23" style="fill:rgb(0,0,0);font-family:MinionPro-Regular;font-size:9.0px;stroke:none;">perpendicular to the c-axis results in a thin plate shape. Because periodicity is short in the b-axis direction, </text>
   <text y="232.72" x="155.64,160.599,165.234,172.317" svgx:width="0.55,0.53,0.79,0.48" style="fill:rgb(0,0,0);font-family:MinionPro-It;font-size:9.0px;stroke:none;">Pnm2</text>
   <text y="234.523" x="176.608" svgx:width="0.48" style="fill:rgb(0,0,0);font-family:MinionPro-Regular;font-size:5.85px;stroke:none;">1</text>
   <text y="232.723" x="179.416,182.62,186.49,189.775,193.15,196.975,201.898,204.31,208.117,209.953,213.76,217.36,221.491,224.749,227.548,231.544,233.794,237.097,238.933,241.624,245.449,250.336,255.061,258.364,260.2,262.891,267.481,269.317,273.106,275.383,279.865,284.716,288.928,292.707,295.398,299.223,301.059,303.471,308.394,310.23,313.029,317.835,320.22,323.523,325.359,330.111,332.523,335.745,339.615,343.485,346.275,348.687,353.169,358.092,360.144,361.98,365.851,370.738,375.49,377.326,380.125,384.895,388.72,390.556,394.363,397.963,402.094,405.352,408.151,412.146,414.396,417.699,419.535,423.459,426.717,429.975,434.754,442.089,445.914,447.75,451.701,453.537,458.046,460.349,464.3,469.052,472.922,477.674,479.51,482.777,487.556,491.336,496.133,499.904" svgx:width="0.36,0.44,0.37,0.37,0.43,0.55,0.27,0.42,0.23,0.42,0.37,0.46,0.37,0.31,0.44,0.25,0.37,0.23,0.31,0.43,0.55,0.53,0.37,0.23,0.31,0.51,0.23,0.43,0.25,0.51,0.55,0.47,0.44,0.31,0.43,0.23,0.27,0.55,0.23,0.31,0.53,0.27,0.37,0.23,0.53,0.27,0.37,0.43,0.42,0.31,0.27,0.51,0.55,0.23,0.23,0.44,0.55,0.53,0.23,0.31,0.53,0.43,0.23,0.42,0.37,0.46,0.37,0.31,0.44,0.25,0.37,0.23,0.44,0.37,0.37,0.53,0.82,0.43,0.23,0.44,0.23,0.51,0.25,0.44,0.53,0.43,0.53,0.23,0.37,0.53,0.44,0.52,0.43,0.23" style="fill:rgb(0,0,0);font-family:MinionPro-Regular;font-size:9.0px;stroke:none;">-arsenic crystals tends to elongate in this direction, and the crystals assume a bladed shape.</text>
  </g>
  <rect style="stroke:blue;stroke-width:0.3;" x="155.638" y="274.148" height="164.88" width="240.0" title="3"/>
  <text y="274.148" class="image" id="image.3.3" width="240" height="164" x="155.638">image.3.3.156_396.274_439</text>
  <rect style="stroke:blue;stroke-width:0.3;" x="155.638" y="274.148" height="164.88" width="240.0" title="3"/>
  <text y="274.148" class="image" id="image.3.4" width="240" height="164" x="155.638">image.3.4.156_396.274_439</text>
  <path style="fill:none;stroke:rgb(131,144,151);stroke-width:1.0;" d="M159.13 459.93 L552.64 459.93 "/>
  <path style="fill:none;stroke:rgb(131,144,151);stroke-width:1.0;" d="M156.14 459.93 L156.14 459.93 M554.14 459.93 L554.14 459.93 "/>
  <g begin="text">
   <text y="439.933" x="155.638,160.552,163.207,167.662,172.657,176.221,180.154,181.909,186.409" svgx:width="0.55,0.29,0.49,0.56,0.4,0.44,0.22,0.5,0.25" style="fill:rgb(0,0,0);font-family:MinionPro-Bold;font-size:9.0px;stroke:none;">Figure 3.</text>
   <text y="439.933" x="188.695,190.765,193.195,199.315,203.761,207.928,211.924,214.201,218.026,222.777,225.522,227.358,232.011,236.493,241.38,246.132,248.544,253.395,257.607,259.443,262.557,265.815,268.604,271.827,276.309,281.16,285.372,287.208,291.861,296.343,301.23,305.982,308.394,313.245,317.457,320.571,322.623,324.459,328.626,332.496,337.419,339.255,344.007,347.832,351.171,353.007,360.855,364.806,368.802,371.052,374.355,376.191,380.843,385.325,390.212,394.964,397.376,402.227,406.439,408.275,411.389,417.482,421.361,425.357,429.821,431.657,436.309,440.791,445.678,450.43,452.842,457.693,461.905,465.019,466.855,470.725,475.612,480.364,482.2,486.07,490.822,493.612,496.024,499.228,503.88,508.362,513.249,518.001,520.413,525.264,529.476,531.312,533.724,538.647" svgx:width="0.23,0.55,0.67,0.51,0.46,0.44,0.25,0.43,0.55,0.31,0.23,0.51,0.51,0.55,0.53,0.27,0.55,0.47,0.23,0.35,0.37,0.31,0.37,0.51,0.55,0.47,0.23,0.51,0.51,0.55,0.53,0.27,0.55,0.47,0.35,0.23,0.23,0.46,0.44,0.55,0.23,0.53,0.43,0.37,0.23,0.97,0.44,0.44,0.25,0.37,0.23,0.51,0.51,0.55,0.53,0.27,0.55,0.47,0.23,0.35,0.69,0.43,0.44,0.5,0.23,0.51,0.51,0.55,0.53,0.27,0.55,0.47,0.35,0.23,0.44,0.55,0.53,0.23,0.44,0.55,0.31,0.27,0.36,0.51,0.51,0.55,0.53,0.27,0.55,0.47,0.23,0.27,0.55,0.23" style="fill:rgb(0,0,0);font-family:MinionPro-Regular;font-size:9.0px;stroke:none;"> Covalent bonding (strong bonding), van der Waals bonding (weak bonding) and anti-bonding in </text>
   <text y="449.932" x="155.638,160.597,165.232,172.315" svgx:width="0.55,0.53,0.79,0.48" style="fill:rgb(0,0,0);font-family:MinionPro-It;font-size:9.0px;stroke:none;">Pnm2</text>
   <text y="451.733" x="176.608" svgx:width="0.48" style="fill:rgb(0,0,0);font-family:MinionPro-Regular;font-size:5.85px;stroke:none;">1</text>
   <text y="449.933" x="179.416,182.62,186.49,189.775,193.15,196.975,201.898,204.31,208.117" svgx:width="0.36,0.44,0.37,0.37,0.43,0.55,0.27,0.42,0.23" style="fill:rgb(0,0,0);font-family:MinionPro-Regular;font-size:9.0px;stroke:none;">-arsenic.</text>
  </g>
 </g>
</svg>
