<?xml version="1.0" encoding="UTF-8"?>
<svg height="767.134" width="561.91" xmlns="http://www.w3.org/2000/svg">
 <g id="page" xmlns:svgx="http://www.xml-cml.org/schema/svgx">
  <g begin="text">
   <text y="139.294" x="43.597,53.179,61.017,68.995,72.622,81.618,88.006" svgx:width="0.69,0.56,0.57,0.26,0.64,0.46,0.5" style="fill:rgb(0,0,0);font-family:AdvOTea1a7398;font-size:13.95px;stroke:none;">ARTICLE</text>
   <text y="187.143" x="43.597,60.094899999999996,67.976,75.675,87.367,95.568,114.983,120.459,132.892,144.345,152.044,157.519,169.953,182.386,190.85,196.326,208.759,219.208,230.9,243.333,253.782,259.257,266.956,272.58,283.77,295.48589999999996,303.477,314.93,327.363,339.7962,347.754,355.955,368.388,380.821,393.255,403.704,411.3552,419.47,431.162,436.637,448.329,459.28,466.979,475.181,487.614,500.0472,508.081,520.036,531.489" svgx:width="0.69,0.55,0.32,0.49,0.34,0.81,0.23,0.52,0.48,0.32,0.23,0.52,0.52,0.35,0.23,0.52,0.44,0.49,0.52,0.44,0.23,0.32,0.23,0.47,0.49,0.55,0.48,0.52,0.52,0.55,0.34,0.52,0.52,0.52,0.44,0.32,0.55,0.49,0.23,0.49,0.46,0.32,0.34,0.52,0.52,0.55,0.5,0.48,0.44" style="fill:rgb(0,0,0);font-family:AdvOTea1a7398;font-size:23.91px;stroke:none;">A termination-insensitive and robust electron gas</text>
   <text y="212.995" x="43.597,55.05,62.7012,70.697,78.396,90.829,102.5449,110.553,122.986,134.678,142.377,154.069,162.27,174.704,180.179,192.612,200.311,212.004,220.205,227.163,238.616,249.566,261.2819,269.347,281.781,288.7149,296.729,304.428,321.596,334.0292,342.085,353.035,365.469,384.884,397.317,402.793,414.485,425.72270000000003,433.644,446.077,457.267,462.743,475.176,486.868" svgx:width="0.48,0.32,0.55,0.32,0.52,0.49,0.55,0.52,0.49,0.32,0.49,0.34,0.52,0.23,0.52,0.32,0.49,0.34,0.29,0.48,0.46,0.49,0.55,0.52,0.29,0.55,0.32,0.72,0.52,0.55,0.46,0.52,0.81,0.52,0.23,0.49,0.47,0.55,0.52,0.47,0.23,0.52,0.49,0.44" style="fill:rgb(0,0,0);font-family:AdvOTea1a7398;font-size:23.91px;stroke:none;">at the heterointerface of two complex oxides</text>
   <text y="240.038" x="43.597,53.526,58.885,64.583,70.063,73.531,80.151,85.849,91.099,96.797" svgx:width="0.91,0.49,0.52,0.5,0.55,0.6,0.52,0.48,0.52,0.5" style="fill:rgb(0,0,0);font-family:AdvOTea1a7398;font-size:10.96px;stroke:none;">Meng Zhang</text>
  </g>
  <path style="fill:rgb(146,205,29);stroke:none;stroke-width:1.0;" d="M112.07 237.26 C112.07 239.7 110.1 241.67 107.66 241.67 C105.21 241.67 103.24 239.7 103.24 237.26 C103.24 234.82 105.21 232.84 107.66 232.84 C110.1 232.84 112.07 234.82 112.07 237.26 "/>
  <path style="fill:rgb(255,255,255);stroke:none;stroke-width:1.0;" d="M107.35 238.79 L108.2 238.79 C109.4 238.79 109.67 237.87 109.67 237.42 C109.67 236.67 109.2 236.04 108.17 236.04 L107.35 236.04 L107.35 238.79 ZM106.82 235.57 L108.25 235.57 C109.62 235.57 110.22 236.54 110.22 237.42 C110.22 238.36 109.48 239.26 108.26 239.26 L106.82 239.26 L106.82 235.57 "/>
  <path style="fill:rgb(255,255,255);stroke:none;stroke-width:1.0;" d="M106.12 234.8 C106.12 234.99 105.97 235.15 105.78 235.15 C105.58 235.15 105.43 234.99 105.43 234.8 C105.43 234.61 105.58 234.45 105.78 234.45 C105.97 234.45 106.12 234.61 106.12 234.8 "/>
  <g begin="text">
   <text y="236.013" x="114.746,117.85,119.761" svgx:width="0.35,0.22,0.56" style="fill:rgb(0,0,0);font-family:AdvOTea1a7398;font-size:8.77px;stroke:none;">1,6</text>
   <text y="240.038" x="124.668,127.0792,130.564,137.183,142.432,144.9528,148.478,156.117" svgx:width="0.22,0.55,0.6,0.48,0.23,0.55,0.7,0.52" style="fill:rgb(0,0,0);font-family:AdvOTea1a7398;font-size:10.96px;stroke:none;">, Kai Du</text>
   <text y="236.013" x="161.801,166.457,168.368" svgx:width="0.53,0.22,0.56" style="fill:rgb(0,0,0);font-family:AdvOTea1a7398;font-size:8.77px;stroke:none;">2,6</text>
   <text y="240.038" x="173.31,175.7212,179.206,185.475,187.984,193.234,198.932,203.721,209.42,215.119,220.368,226.067,231.547,235.049,241.208,246.567" svgx:width="0.22,0.55,0.57,0.23,0.48,0.52,0.44,0.52,0.52,0.48,0.52,0.5,0.55,0.56,0.49,0.52" style="fill:rgb(0,0,0);font-family:AdvOTea1a7398;font-size:10.96px;stroke:none;">, Tianshuang Ren</text>
   <text y="236.013" x="252.227" svgx:width="0.35" style="fill:rgb(0,0,0);font-family:AdvOTea1a7398;font-size:8.77px;stroke:none;">1</text>
   <text y="240.038" x="255.345,257.7562,261.241,268.879,274.24940000000004,277.738,284.007,286.517,291.766" svgx:width="0.22,0.55,0.7,0.49,0.55,0.57,0.23,0.48,0.52" style="fill:rgb(0,0,0);font-family:AdvOTea1a7398;font-size:10.96px;stroke:none;">, He Tian</text>
  </g>
  <path style="fill:rgb(146,205,29);stroke:none;stroke-width:1.0;" d="M307.32 237.26 C307.32 239.7 305.35 241.67 302.91 241.67 C300.46 241.67 298.49 239.7 298.49 237.26 C298.49 234.82 300.46 232.84 302.91 232.84 C305.35 232.84 307.32 234.82 307.32 237.26 "/>
  <path style="fill:rgb(255,255,255);stroke:none;stroke-width:1.0;" d="M302.6 238.79 L303.45 238.79 C304.65 238.79 304.93 237.87 304.93 237.42 C304.93 236.67 304.45 236.04 303.42 236.04 L302.6 236.04 L302.6 238.79 ZM302.07 235.57 L303.51 235.57 C304.87 235.57 305.47 236.54 305.47 237.42 C305.47 238.36 304.73 239.26 303.51 239.26 L302.07 239.26 L302.07 235.57 "/>
  <path style="fill:rgb(255,255,255);stroke:none;stroke-width:1.0;" d="M301.37 234.8 C301.37 234.99 301.22 235.15 301.03 235.15 C300.83 235.15 300.68 234.99 300.68 234.8 C300.68 234.61 300.83 234.45 301.03 234.45 C301.22 234.45 301.37 234.61 301.37 234.8 "/>
  <g begin="text">
   <text y="236.013" x="309.94" svgx:width="0.53" style="fill:rgb(0,0,0);font-family:AdvOTea1a7398;font-size:8.77px;stroke:none;">2</text>
   <text y="240.038" x="314.589,317.0002,320.485,327.104,332.4744,335.962,342.581,348.28,353.529,359.228" svgx:width="0.22,0.55,0.6,0.49,0.55,0.6,0.52,0.48,0.52,0.5" style="fill:rgb(0,0,0);font-family:AdvOTea1a7398;font-size:10.96px;stroke:none;">, Ze Zhang</text>
   <text y="236.013" x="364.705" svgx:width="0.53" style="fill:rgb(0,0,0);font-family:AdvOTea1a7398;font-size:8.77px;stroke:none;">2</text>
   <text y="240.038" x="369.354,371.7652,375.25,382.889,388.138,391.897,397.596,400.105,405.80420000000004,409.323,416.172,418.58320000000003,422.022,429.66,437.529,442.778,448.477" svgx:width="0.22,0.55,0.7,0.48,0.34,0.52,0.23,0.52,0.55,0.63,0.22,0.55,0.7,0.72,0.48,0.52,0.5" style="fill:rgb(0,0,0);font-family:AdvOTea1a7398;font-size:10.96px;stroke:none;">, Harold Y. Hwang</text>
   <text y="236.013" x="453.94,458.499,460.41" svgx:width="0.52,0.22,0.58" style="fill:rgb(0,0,0);font-family:AdvOTea1a7398;font-size:8.77px;stroke:none;">3,4</text>
   <text y="240.038" x="469.077,476.5298,479.962,486.811,492.06,497.759,505.628,511.3272,514.828,521.677,524.187" svgx:width="0.68,0.55,0.63,0.48,0.52,0.72,0.52,0.55,0.63,0.23,0.49" style="fill:rgb(0,0,0);font-family:AdvOTea1a7398;font-size:10.96px;stroke:none;">&amp; Yanwu Xie</text>
  </g>
  <path style="fill:rgb(146,205,29);stroke:none;stroke-width:1.0;" d="M539.37 237.26 C539.37 239.7 537.39 241.67 534.95 241.67 C532.51 241.67 530.53 239.7 530.53 237.26 C530.53 234.82 532.51 232.84 534.95 232.84 C537.39 232.84 539.37 234.82 539.37 237.26 "/>
  <path style="fill:rgb(255,255,255);stroke:none;stroke-width:1.0;" d="M534.64 238.79 L535.49 238.79 C536.69 238.79 536.97 237.87 536.97 237.42 C536.97 236.67 536.5 236.04 535.46 236.04 L534.64 236.04 L534.64 238.79 ZM534.11 235.57 L535.55 235.57 C536.92 235.57 537.52 236.54 537.52 237.42 C537.52 238.36 536.77 239.26 535.55 239.26 L534.11 239.26 L534.11 235.57 "/>
  <path style="fill:rgb(255,255,255);stroke:none;stroke-width:1.0;" d="M533.42 234.8 C533.42 234.99 533.26 235.15 533.07 235.15 C532.88 235.15 532.72 234.99 532.72 234.8 C532.72 234.61 532.88 234.45 533.07 234.45 C533.26 234.45 533.42 234.61 533.42 234.8 "/>
  <g begin="text">
   <text y="236.013" x="541.984,545.088,546.999" svgx:width="0.35,0.22,0.53" style="fill:rgb(0,0,0);font-family:AdvOTea1a7398;font-size:8.77px;stroke:none;">1,5</text>
   <text y="292.025" x="43.597,49.011,53.932,58.567400000000006,61.965,66.101,68.268,73.19,77.922,80.089,84.718,88.068,92.403,95.649,100.183,104.319,107.366,111.9,114.0758,117.466,122.293,125.539,130.953,133.121" svgx:width="0.57,0.52,0.49,0.55,0.44,0.23,0.52,0.5,0.23,0.49,0.35,0.46,0.34,0.48,0.44,0.32,0.48,0.23,0.55,0.51,0.34,0.57,0.23,0.74" style="fill:rgb(0,0,0);font-family:AdvOTea1a7398;font-size:9.46px;stroke:none;">The single-crystal SrTiO</text>
   <text y="293.612" x="140.145" svgx:width="0.52" style="fill:rgb(0,0,0);font-family:AdvOTea1a7398;font-size:6.31px;stroke:none;">3</text>
   <text y="292.025" x="147.232,150.97,156.781,162.593,165.943,169.727,173.083,178.005,182.538,186.7004,190.034,193.082,199.877,204.7962,208.233,213.154,215.322,218.076,220.83,225.458,228.705,233.333,238.254,241.28119999999998,244.742,248.878,253.8,257.046,259.801,264.334,268.669,273.3044,276.66,279.707,284.336,287.582,295.267,297.435,302.356,306.89,309.937,312.105,317.026,321.948,326.084,328.1652,331.594,337.008,339.176" svgx:width="0.4,0.61,0.61,0.35,0.4,0.55,0.52,0.48,0.44,0.55,0.32,0.72,0.52,0.55,0.52,0.23,0.29,0.29,0.49,0.34,0.49,0.52,0.32,0.55,0.44,0.52,0.34,0.29,0.48,0.46,0.49,0.55,0.32,0.49,0.34,0.81,0.23,0.52,0.48,0.32,0.23,0.52,0.52,0.44,0.22,0.55,0.57,0.23,0.74" style="fill:rgb(0,0,0);font-family:AdvOTea1a7398;font-size:9.46px;stroke:none;">(001) has two different surface terminations, TiO</text>
   <text y="293.612" x="346.224" svgx:width="0.53" style="fill:rgb(0,0,0);font-family:AdvOTea1a7398;font-size:6.31px;stroke:none;">2</text>
   <text y="292.025" x="353.367,357.9,362.822,367.7412,371.112,375.939,379.185,386.18,388.26120000000003,391.635,398.63,403.551" svgx:width="0.48,0.52,0.52,0.55,0.51,0.34,0.74,0.22,0.55,0.74,0.52,0.49" style="fill:rgb(0,0,0);font-family:AdvOTea1a7398;font-size:9.46px;stroke:none;">and SrO. One</text>
   <text y="305.971" x="43.597,51.282,56.204,60.34,63.367200000000004,66.161,69.407,74.035,81.721,86.254,89.5,93.835,98.369,103.29,105.458,110.0934,112.818,117.74,122.662,126.798,131.426,134.672,139.102,143.635,146.683,148.85,153.772,158.69119999999998,161.517,163.684,168.6032,171.382,176.303,179.549,184.08,188.51,190.677,195.599,200.52,204.6824,207.438,211.574,214.621,219.543,224.465,226.632,231.26,235.42239999999998,238.165,240.332,244.49439999999998,247.236,250.283,255.205,259.738,262.7652,265.547,270.468,275.39,277.557,282.0978,284.822,287.87,292.792,297.4274,300.186,305.108,309.736,312.784,317.412,320.658,325.58,327.747,332.669,335.716,340.345,343.591,346.345,350.879,355.213,359.842,364.0044,366.8,373.596,375.763,378.811,383.73019999999997,386.529,391.943,394.11" svgx:width="0.81,0.52,0.44,0.32,0.55,0.34,0.49,0.81,0.48,0.34,0.46,0.48,0.52,0.23,0.49,0.55,0.52,0.52,0.44,0.49,0.34,0.47,0.48,0.32,0.23,0.52,0.52,0.55,0.23,0.52,0.55,0.52,0.34,0.49,0.47,0.23,0.52,0.52,0.44,0.55,0.44,0.32,0.52,0.52,0.23,0.49,0.44,0.55,0.23,0.44,0.55,0.32,0.52,0.48,0.32,0.55,0.52,0.52,0.23,0.48,0.55,0.32,0.52,0.49,0.55,0.52,0.49,0.32,0.49,0.34,0.52,0.23,0.52,0.32,0.49,0.34,0.29,0.48,0.46,0.49,0.44,0.55,0.72,0.23,0.32,0.52,0.55,0.57,0.23,0.74" style="fill:rgb(0,0,0);font-family:AdvOTea1a7398;font-size:9.46px;stroke:none;">most remarkable observation in previous studies is that only the heterointerfaces with TiO</text>
   <text y="307.559" x="401.102" svgx:width="0.53" style="fill:rgb(0,0,0);font-family:AdvOTea1a7398;font-size:6.31px;stroke:none;">2</text>
   <text y="305.972" x="404.844" svgx:width="0.35" style="fill:rgb(0,0,0);font-family:AdvOTea1a7398;font-size:9.46px;stroke:none;">-</text>
   <text y="319.918" x="43.596,46.644,51.272,54.518,62.204,64.371,69.293,73.826,76.874,81.502,86.4212,91.388,96.215,99.461,104.875,107.042" svgx:width="0.32,0.49,0.34,0.81,0.23,0.52,0.48,0.32,0.49,0.52,0.55,0.51,0.34,0.57,0.23,0.74" style="fill:rgb(0,0,0);font-family:AdvOTea1a7398;font-size:9.46px;stroke:none;">terminated SrTiO</text>
   <text y="321.505" x="114.066" svgx:width="0.52" style="fill:rgb(0,0,0);font-family:AdvOTea1a7398;font-size:6.31px;stroke:none;">3</text>
   <text y="319.918" x="117.751,119.8322,124.782,131.577,136.499,138.666,143.001,147.9202,152.844,157.766,161.902,166.823,171.357,173.524,175.692,180.2328,185.159,189.494,194.415,202.101,207.022,209.19,214.111,218.739,222.9014,227.848,234.644,236.811,239.859,244.7782,249.731,254.653,259.574,261.742,266.275,269.4914,274.506,279.427,283.857,286.024,290.946,295.574,299.7364,304.666,308.802,313.723,318.058,322.9772,327.91,332.443,336.6054,341.516,345.851,350.384,356.887,359.054" svgx:width="0.22,0.55,0.72,0.52,0.23,0.46,0.52,0.55,0.52,0.44,0.52,0.48,0.23,0.23,0.48,0.55,0.46,0.52,0.81,0.52,0.23,0.52,0.49,0.44,0.55,0.72,0.23,0.32,0.52,0.55,0.52,0.52,0.23,0.48,0.34,0.55,0.52,0.47,0.23,0.52,0.49,0.44,0.55,0.44,0.52,0.46,0.52,0.55,0.48,0.44,0.55,0.46,0.48,0.69,0.23,0.74" style="fill:rgb(0,0,0);font-family:AdvOTea1a7398;font-size:9.46px;stroke:none;">, which usually combines with polar oxides such as LaAlO</text>
   <text y="321.505" x="366.066" svgx:width="0.52" style="fill:rgb(0,0,0);font-family:AdvOTea1a7398;font-size:6.31px;stroke:none;">3</text>
   <text y="319.918" x="369.751,371.8322,376.781,381.703,386.625,390.761,393.7882,398.778,403.312" svgx:width="0.22,0.55,0.52,0.52,0.44,0.32,0.55,0.48,0.52" style="fill:rgb(0,0,0);font-family:AdvOTea1a7398;font-size:9.46px;stroke:none;">, host an</text>
   <text y="333.864" x="43.597,48.225,50.393,55.021,59.356,62.403,65.65,70.571,75.4902,77.953,82.685,87.219,91.355,93.4362,95.867,102.464,107.092,110.339,114.9744,117.411,124.206,128.8414,131.243,135.379,140.301,145.222,152.03320000000002,154.487,157.535,162.456,166.99,170.0172,172.515,177.05579999999998,179.432,182.679,187.6,192.522,197.443,201.579,204.6062,207.098,211.726,213.894,218.522,222.857,225.904,229.151,234.072,238.9912,241.454,246.186,250.72,254.8824,257.328,261.663,266.196,271.1152,273.542,278.463,283.0984,285.504,290.236,294.864,299.786,304.414,307.66,312.194,315.242,319.87,324.7892,327.286,332.208,336.836,339.884,346.679,351.307,355.936,360.85519999999997,363.343,367.8838,370.259,375.181,380.103,385.024,388.375,393.296,398.218,400.385,404.919" svgx:width="0.49,0.23,0.49,0.46,0.32,0.34,0.52,0.52,0.55,0.5,0.48,0.44,0.22,0.55,0.7,0.49,0.34,0.49,0.55,0.72,0.49,0.55,0.44,0.52,0.52,0.72,0.55,0.32,0.52,0.48,0.32,0.55,0.48,0.55,0.34,0.52,0.52,0.52,0.44,0.32,0.55,0.49,0.23,0.49,0.46,0.32,0.34,0.52,0.52,0.55,0.5,0.48,0.44,0.55,0.46,0.48,0.52,0.55,0.52,0.49,0.55,0.5,0.49,0.52,0.49,0.34,0.48,0.32,0.49,0.52,0.55,0.52,0.49,0.32,0.72,0.49,0.49,0.52,0.55,0.48,0.55,0.52,0.52,0.52,0.35,0.52,0.52,0.23,0.48,0.34" style="fill:rgb(0,0,0);font-family:AdvOTea1a7398;font-size:9.46px;stroke:none;">electron gas. Here we show that a robust electron gas can be generated between a non-polar</text>
   <text y="347.81" x="43.597,48.519,52.948,55.116,60.037,64.665,66.7462,69.335,75.44,79.973,86.57,89.325" svgx:width="0.52,0.47,0.23,0.52,0.49,0.22,0.55,0.64,0.48,0.7,0.29,0.74" style="fill:rgb(0,0,0);font-family:AdvOTea1a7398;font-size:9.46px;stroke:none;">oxide, CaHfO</text>
   <text y="349.398" x="96.321" svgx:width="0.52" style="fill:rgb(0,0,0);font-family:AdvOTea1a7398;font-size:6.31px;stroke:none;">3</text>
   <text y="347.811" x="100.006,102.0872,104.655,109.189,114.11,119.0292,121.606,126.433,129.68,135.093,137.261" svgx:width="0.22,0.55,0.48,0.52,0.52,0.55,0.51,0.34,0.57,0.23,0.74" style="fill:rgb(0,0,0);font-family:AdvOTea1a7398;font-size:9.46px;stroke:none;">, and SrTiO</text>
   <text y="349.398" x="144.283" svgx:width="0.52" style="fill:rgb(0,0,0);font-family:AdvOTea1a7398;font-size:6.31px;stroke:none;">3</text>
   <text y="347.811" x="150.52,154.258,160.069,165.881,169.231,173.015,175.578,182.374,184.541,187.589,192.5082,195.137,199.765,201.932,204.98,209.902,214.53,217.7464,220.365,223.412,228.04,231.287,238.972,241.139,246.061,250.595,253.642,255.81,260.731,265.653,267.73420000000004,270.31,276.718,281.639,283.807,285.974,290.309,294.94440000000003,297.523,300.57,305.492,310.1274,312.716,319.512,324.14,326.308,328.475,331.825,336.16,341.082,346.003,352.799,357.71819999999997,360.338,364.966,367.133,371.761,376.096,379.144,382.39,387.312,392.2312,394.807,399.539,404.073" svgx:width="0.4,0.61,0.61,0.35,0.4,0.55,0.72,0.23,0.32,0.52,0.55,0.49,0.23,0.32,0.52,0.49,0.34,0.55,0.32,0.49,0.34,0.81,0.23,0.52,0.48,0.32,0.23,0.52,0.52,0.22,0.55,0.68,0.52,0.23,0.23,0.46,0.49,0.55,0.32,0.52,0.49,0.55,0.72,0.49,0.23,0.23,0.35,0.46,0.52,0.52,0.72,0.52,0.55,0.49,0.23,0.49,0.46,0.32,0.34,0.52,0.52,0.55,0.5,0.48,0.44" style="fill:rgb(0,0,0);font-family:AdvOTea1a7398;font-size:9.46px;stroke:none;">(001) with either termination. Unlike the well-known electron gas</text>
   <text y="361.757" x="43.597,48.519,51.2624,54.142,58.476,63.01,69.512,71.68" svgx:width="0.52,0.29,0.55,0.46,0.48,0.69,0.23,0.74" style="fill:rgb(0,0,0);font-family:AdvOTea1a7398;font-size:9.46px;stroke:none;">of LaAlO</text>
   <text y="363.345" x="78.69" svgx:width="0.52" style="fill:rgb(0,0,0);font-family:AdvOTea1a7398;font-size:6.31px;stroke:none;">3</text>
   <text y="361.757" x="82.375,87.202,92.029,95.275,100.689,102.856" svgx:width="0.51,0.51,0.34,0.57,0.23,0.74" style="fill:rgb(0,0,0);font-family:AdvOTea1a7398;font-size:9.46px;stroke:none;">/SrTiO</text>
   <text y="363.345" x="109.871" svgx:width="0.52" style="fill:rgb(0,0,0);font-family:AdvOTea1a7398;font-size:6.31px;stroke:none;">3</text>
   <text y="361.757" x="113.556,115.63719999999999,118.488,121.536,126.457,131.0924,133.965,138.887,142.133,146.762,150.898,155.526,160.447,163.4742,166.393,171.315,176.236,180.8714,183.741,188.662,191.40540000000001,194.285,200.39,204.923,211.52,214.274" svgx:width="0.22,0.55,0.32,0.52,0.49,0.55,0.52,0.34,0.49,0.44,0.49,0.52,0.32,0.55,0.52,0.52,0.49,0.55,0.52,0.29,0.55,0.64,0.48,0.7,0.29,0.74" style="fill:rgb(0,0,0);font-family:AdvOTea1a7398;font-size:9.46px;stroke:none;">, the present one of CaHfO</text>
   <text y="363.345" x="221.272" svgx:width="0.52" style="fill:rgb(0,0,0);font-family:AdvOTea1a7398;font-size:6.31px;stroke:none;">3</text>
   <text y="361.757" x="224.957,229.784,234.611,237.858,243.271,245.439" svgx:width="0.51,0.51,0.34,0.57,0.23,0.74" style="fill:rgb(0,0,0);font-family:AdvOTea1a7398;font-size:9.46px;stroke:none;">/SrTiO</text>
   <text y="363.345" x="252.454" svgx:width="0.52" style="fill:rgb(0,0,0);font-family:AdvOTea1a7398;font-size:6.31px;stroke:none;">3</text>
   <text y="361.757" x="259.03,263.658,267.794,271.93,276.558,281.48,284.527,286.695,291.228,293.396,295.563,300.1038,302.966,307.888,312.421,316.5834,319.407,324.329,329.2482,332.163,336.497,339.744,341.911,344.959,347.126,351.461,355.995,358.1708,361.019,364.067,368.988,371.156,375.491,379.825,384.747,389.375,393.511,397.6734,400.534,405.456" svgx:width="0.49,0.44,0.44,0.49,0.52,0.32,0.23,0.48,0.23,0.23,0.48,0.55,0.52,0.48,0.44,0.55,0.52,0.52,0.55,0.46,0.34,0.23,0.32,0.23,0.46,0.48,0.23,0.55,0.32,0.52,0.23,0.46,0.46,0.52,0.49,0.44,0.44,0.55,0.52,0.29" style="fill:rgb(0,0,0);font-family:AdvOTea1a7398;font-size:9.46px;stroke:none;">essentially has no critical thickness of</text>
   <text y="375.703" x="43.597,49.701,54.235,60.832,63.586" svgx:width="0.64,0.48,0.7,0.29,0.74" style="fill:rgb(0,0,0);font-family:AdvOTea1a7398;font-size:9.46px;stroke:none;">CaHfO</text>
   <text y="377.291" x="70.583" svgx:width="0.52" style="fill:rgb(0,0,0);font-family:AdvOTea1a7398;font-size:6.31px;stroke:none;">3</text>
   <text y="375.704" x="74.268,76.3492,80.277,84.612,89.145,94.0642,98.022,102.158,107.08,110.326,114.755,116.923,121.352,125.98740000000001,129.996,134.5368,138.443,140.611,145.532,150.454,155.186,158.537,161.584,163.752,171.437,176.07240000000002,180.055,184.977,189.406,193.94,198.672,203.3,208.2192,212.2,216.734,221.655,226.577,231.205,235.738,237.906,240.073,244.995,249.725,253.698,258.232,261.2592,265.207,270.129,272.296,277.029,281.9482,285.9,288.947,293.576,301.261,306.183,310.811,314.057,318.591,321.638,326.56,329.806,334.434,336.51520000000005,340.495,345.028,349.95,354.8692,358.863,361.03,364.078,368.24039999999997,372.129,375.177,378.423,382.957,387.878,392.014,396.936,401.857,405.104" svgx:width="0.22,0.55,0.46,0.48,0.52,0.55,0.44,0.52,0.34,0.47,0.23,0.47,0.49,0.55,0.48,0.55,0.23,0.52,0.52,0.5,0.35,0.32,0.23,0.81,0.49,0.55,0.52,0.47,0.48,0.5,0.49,0.52,0.55,0.48,0.52,0.52,0.49,0.48,0.23,0.23,0.52,0.5,0.55,0.48,0.32,0.55,0.52,0.23,0.5,0.52,0.55,0.32,0.49,0.81,0.52,0.49,0.34,0.48,0.32,0.52,0.34,0.49,0.22,0.55,0.48,0.52,0.52,0.55,0.23,0.32,0.44,0.55,0.32,0.34,0.48,0.52,0.44,0.52,0.52,0.34,0.32" style="fill:rgb(0,0,0);font-family:AdvOTea1a7398;font-size:9.46px;stroke:none;">, can survive a long-time oxygen annealing at high temperature, and its transport</text>
   <text y="389.65" x="43.597,48.518,51.765,56.686,61.608,66.236,69.482,72.53,74.697,79.326,83.4884,87.873,92.407,95.653,100.28840000000001,104.711,108.847,111.894,116.428,121.349,123.517,128.1524,132.547,137.469,142.39,147.312,151.94,155.1564,159.589,164.217,168.647,173.568,178.49,182.626,187.548,190.794,195.42940000000002,199.841,202.889,207.8082,212.2,218.996,223.529,226.577,231.205,234.4214,238.846,243.379,248.301,253.22019999999998,257.611,262.533,265.58,270.502,275.13,278.3464,282.839,287.761,292.682,294.85,299.383,302.5994,306.99,311.126,316.048,318.215,322.644,327.273,332.194,335.242,339.378,341.4592,345.881,351.001,355.54179999999997,359.941,364.569,366.736,371.364,375.699,378.747,381.993,386.915,391.051,394.098,398.632,401.679,403.847" svgx:width="0.52,0.34,0.52,0.52,0.49,0.34,0.32,0.23,0.49,0.44,0.55,0.48,0.34,0.49,0.55,0.44,0.32,0.48,0.52,0.23,0.49,0.55,0.52,0.52,0.52,0.49,0.34,0.55,0.49,0.47,0.52,0.52,0.44,0.52,0.34,0.49,0.55,0.32,0.52,0.55,0.72,0.48,0.32,0.49,0.34,0.55,0.48,0.52,0.52,0.55,0.52,0.32,0.52,0.49,0.34,0.55,0.52,0.52,0.23,0.48,0.34,0.55,0.44,0.52,0.23,0.47,0.49,0.52,0.32,0.44,0.22,0.55,0.54,0.48,0.55,0.49,0.23,0.49,0.46,0.32,0.34,0.52,0.44,0.32,0.48,0.32,0.23,0.46" style="fill:rgb(0,0,0);font-family:AdvOTea1a7398;font-size:9.46px;stroke:none;">properties are stable under exposure to water and other polar solvents. By electrostatic</text>
   <text y="403.596" x="43.597,48.329,52.863,55.91,58.078,62.999,67.729,72.169,75.217,80.139,83.385,88.307,93.228,97.96,102.8792,107.319,113.424,117.957,124.554,127.308" svgx:width="0.5,0.48,0.32,0.23,0.52,0.5,0.55,0.32,0.52,0.34,0.52,0.52,0.5,0.52,0.55,0.64,0.48,0.7,0.29,0.74" style="fill:rgb(0,0,0);font-family:AdvOTea1a7398;font-size:9.46px;stroke:none;">gating through CaHfO</text>
   <text y="405.184" x="134.362" svgx:width="0.52" style="fill:rgb(0,0,0);font-family:AdvOTea1a7398;font-size:6.31px;stroke:none;">3</text>
   <text y="403.597" x="138.047,140.1282,144.511,149.443,154.071,156.238,161.16,164.51,169.138,171.893,174.647,179.275,183.61,186.6372,191.168,196.09,200.579,205.008,207.176,211.51,216.139,220.3014,224.73,229.263,232.51,237.1454,241.567,246.489,251.117,258.802,263.724,268.645,272.781,275.829,279.075,283.609,286.657,291.285,296.2042,300.697,305.619,309.755,311.922,316.844,321.574,326.039,332.143,336.677,343.274,346.028" svgx:width="0.22,0.55,0.52,0.49,0.23,0.52,0.35,0.49,0.29,0.29,0.49,0.46,0.32,0.55,0.52,0.49,0.47,0.23,0.46,0.49,0.44,0.55,0.48,0.34,0.49,0.55,0.52,0.49,0.81,0.52,0.52,0.44,0.32,0.34,0.48,0.32,0.49,0.52,0.55,0.52,0.44,0.23,0.52,0.5,0.55,0.64,0.48,0.7,0.29,0.74" style="fill:rgb(0,0,0);font-family:AdvOTea1a7398;font-size:9.46px;stroke:none;">, ﬁeld-effect devices are demonstrated using CaHfO</text>
   <text y="405.184" x="353.027" svgx:width="0.52" style="fill:rgb(0,0,0);font-family:AdvOTea1a7398;font-size:6.31px;stroke:none;">3</text>
   <text y="403.597" x="356.712,361.539,366.366,369.612,375.026,377.193" svgx:width="0.51,0.51,0.34,0.57,0.23,0.74" style="fill:rgb(0,0,0);font-family:AdvOTea1a7398;font-size:9.46px;stroke:none;">/SrTiO</text>
   <text y="405.184" x="384.208" svgx:width="0.52" style="fill:rgb(0,0,0);font-family:AdvOTea1a7398;font-size:6.31px;stroke:none;">3</text>
   <text y="403.597" x="392.372,397.293,401.921,404.844" svgx:width="0.52,0.49,0.32,0.35" style="fill:rgb(0,0,0);font-family:AdvOTea1a7398;font-size:9.46px;stroke:none;">het-</text>
   <text y="417.543" x="43.596,48.225,51.471,56.393,58.56,63.482,66.529,71.157,74.404,77.158,81.691,86.026,90.654,94.8164,97.114,103.91,106.077,109.125,114.0442,116.276,121.198,126.119,129.167,134.0862,136.402,139.449,144.077,147.324,155.009,157.176,162.098,166.631,169.679,171.846,176.768,181.69,185.826,187.9072,190.202,195.616,200.537,205.166,209.302,213.9374,216.224,219.47,224.099,228.235,233.156,235.324,238.371,242.5334,244.797,248.933,253.854,258.776,265.5872,267.814,270.861,275.783,280.316,283.34319999999997,285.672,288.719,293.641,298.2764,300.525,305.153,307.321,311.949,316.284,319.331,322.578,327.499,332.4182,334.71,339.443,343.976,348.1384,350.357,353.604,358.232,363.153,368.075,371.321,374.369,378.997,383.9162,386.243,388.411,393.3302,395.597,398.645,403.566" svgx:width="0.49,0.34,0.52,0.23,0.52,0.32,0.49,0.34,0.29,0.48,0.46,0.49,0.44,0.55,0.72,0.23,0.32,0.52,0.55,0.52,0.52,0.32,0.52,0.55,0.32,0.49,0.34,0.81,0.23,0.52,0.48,0.32,0.23,0.52,0.52,0.44,0.22,0.55,0.57,0.52,0.49,0.44,0.49,0.55,0.34,0.49,0.44,0.52,0.23,0.32,0.44,0.55,0.44,0.52,0.52,0.72,0.55,0.32,0.52,0.48,0.32,0.55,0.32,0.52,0.49,0.55,0.49,0.23,0.49,0.46,0.32,0.34,0.52,0.52,0.55,0.5,0.48,0.44,0.55,0.34,0.49,0.52,0.52,0.34,0.32,0.49,0.52,0.55,0.23,0.52,0.55,0.32,0.52,0.49" style="fill:rgb(0,0,0);font-family:AdvOTea1a7398;font-size:9.46px;stroke:none;">erointerfaces with both terminations. These results show that the electron gas reported in the</text>
   <text y="431.489" x="43.596,48.518,51.764,56.393,60.529,65.157,70.078,73.1052,76.308,80.444,83.492,88.413,93.335,97.8758,101.026,103.193,107.3554,110.493,115.415,120.336,122.504,127.425,132.347,136.9824,140.143,144.676,149.598,154.5172,157.718,162.639,165.886,170.807,178.492,180.66,184.796,186.963,191.885,196.61499999999998,199.783,202.537,207.459,210.6754,213.843,218.376,223.298,228.219,230.387,232.554,236.889,241.423,244.47,246.638,251.559,256.481,260.6434,263.845,266.013,270.93219999999997,274.05,278.971,283.401,285.568,290.49,295.1254,298.314,302.943,305.11,309.738,314.073,317.12,320.367,325.288,330.21,332.377,336.712,340.848" svgx:width="0.52,0.34,0.49,0.44,0.49,0.52,0.32,0.55,0.44,0.32,0.52,0.52,0.48,0.55,0.23,0.44,0.55,0.52,0.52,0.23,0.52,0.52,0.49,0.55,0.48,0.52,0.52,0.55,0.52,0.34,0.52,0.81,0.23,0.44,0.23,0.52,0.5,0.55,0.29,0.52,0.34,0.55,0.48,0.52,0.52,0.23,0.23,0.46,0.48,0.32,0.23,0.52,0.52,0.44,0.55,0.23,0.52,0.55,0.52,0.47,0.23,0.52,0.49,0.55,0.49,0.23,0.49,0.46,0.32,0.34,0.52,0.52,0.23,0.46,0.44,0.22" style="fill:rgb(0,0,0);font-family:AdvOTea1a7398;font-size:9.46px;stroke:none;">present study is unique and promising for applications in oxide electronics.</text>
  </g>
  <g begin="text">
   <text y="157.493" x="46.602,50.834,53.655,56.477,60.789,64.439,66.511,70.656,74.8,79.03,83.174,85.247,87.239,91.384,94.373,98.986,103.13,106.366,111.347,113.34,116.576,121.557,125.869,130.516,134.66,138.217,143.031,146.267,151.081,155.64,159.872,162.606,167.588,170.824,175.295,178.029,181.264,185.576,190.558,194.87,199.429,202.162" svgx:width="0.53,0.35,0.35,0.54,0.46,0.26,0.52,0.52,0.54,0.52,0.26,0.25,0.52,0.38,0.53,0.52,0.41,0.63,0.25,0.41,0.63,0.54,0.58,0.52,0.46,0.6,0.41,0.6,0.57,0.53,0.34,0.63,0.41,0.57,0.34,0.41,0.54,0.63,0.54,0.57,0.34,0.55" style="fill:rgb(255,255,255);font-family:AdvOTcb88df00;font-size:7.97px;stroke:none;">https://doi.org/10.1038/s41467-019-12036-5</text>
  </g>
  <g begin="text">
   <text y="157.798" x="234.595,242.685,249.621,256.557" svgx:width="0.78,0.67,0.67,0.72" style="fill:rgb(240,132,26);font-family:Arial-BoldMT;font-size:10.4px;stroke:none;">OPEN</text>
  </g>
  <path style="fill:rgb(236,126,28);stroke:none;stroke-width:1.0;" d="M43.6 676.4 L551.68 676.4 L551.68 737.23 L43.6 737.23 M43.6 676.12 L551.68 676.12 L551.91 676.29 L551.91 676.52 L551.68 676.69 L43.6 676.69 L43.37 676.52 L43.37 676.29 Z"/>
  <g begin="text">
   <text y="684.51" x="43.597" svgx:width="0.34" style="fill:rgb(0,0,0);font-family:AdvOTf23bb480;font-size:6.38px;stroke:none;">1</text>
   <text y="687.401" x="47.112,49.184,53.249,55.815,59.633,62.199,66.344,68.081,71.485,75.135,76.873,81.017,82.755,84.416,88.481,92.299,94.865,98.6109,101.254,106.395,110.213,114.277,116.844,120.662,123.2124,125.859,129.924,132.1556,134.817,140.707,144.771,148.589,152.654,155.22,159.195,165.6507,168.323,170.395,174.46,176.699,180.764,183.331,189.802,193.62,196.186,197.924,201.989,206.054,207.7277,210.333,215.147,219.212,223.029,224.767,226.504,230.322,234.387,238.372,240.947,245.092,247.658,251.723,255.373,257.111,261.175,264.826,268.65160000000003,271.278,276.004,279.822,283.5679,286.188,289.839,293.656,297.801,301.866,304.432,308.25,310.816,314.881,317.369,321.11490000000003,323.776,327.84,330.0716,332.677,338.567,342.632,346.449,350.514,353.08,357.145,363.60069999999996,366.239,370.719,374.536,378.187,382.251,386.316,390.381,392.118,396.183,400.168,403.9139,406.492,410.31,414.374,418.51840000000004,421.119,426.674,430.492,434.142,435.88,439.53,443.348,445.0217,447.652,451.469,455.534,459.6784,462.279,467.834,471.651,475.796,479.614,482.18,484.747,491.218,495.036,499.101,501.6514,504.289,508.353,510.5846,513.246,517.391,521.456,525.186,528.589,530.326,533.977,537.284" svgx:width="0.26,0.51,0.32,0.48,0.32,0.52,0.22,0.43,0.46,0.22,0.52,0.22,0.22,0.51,0.48,0.32,0.47,0.55,0.64,0.48,0.51,0.32,0.48,0.32,0.55,0.51,0.28,0.55,0.74,0.51,0.48,0.51,0.32,0.51,0.81,0.55,0.26,0.51,0.28,0.51,0.32,0.81,0.48,0.32,0.22,0.51,0.51,0.21,0.55,0.6,0.51,0.48,0.22,0.22,0.48,0.51,0.5,0.55,0.52,0.32,0.51,0.46,0.22,0.51,0.46,0.48,0.55,0.59,0.48,0.47,0.55,0.46,0.48,0.52,0.51,0.32,0.48,0.32,0.51,0.32,0.47,0.55,0.51,0.28,0.55,0.74,0.51,0.48,0.51,0.32,0.51,0.81,0.55,0.56,0.48,0.46,0.51,0.51,0.51,0.22,0.51,0.5,0.47,0.55,0.48,0.51,0.52,0.55,0.7,0.48,0.46,0.22,0.46,0.48,0.21,0.55,0.48,0.51,0.52,0.55,0.7,0.48,0.52,0.48,0.32,0.32,0.81,0.48,0.51,0.32,0.55,0.51,0.28,0.55,0.52,0.51,0.47,0.43,0.22,0.46,0.43,0.21" style="fill:rgb(0,0,0);font-family:AdvOTf23bb480;font-size:7.97px;stroke:none;">Interdisciplinary Center of Quantum Information, Zhejiang Province Key Laboratory of Quantum Technology and Device, and Department of Physics,</text>
   <text y="697.379" x="43.597,48.411,52.476,56.293,58.031,59.768,63.586,67.651,71.636,74.098,79.406,83.471,85.209,88.859,92.677,95.243,98.646,100.384,102.95,106.68,108.3537,110.779,114.923,117.657,122.471,127.285,131.517,135.7411,138.218,143.774,147.591,151.656,155.641,159.124,163.189,167.254,171.319,172.99269999999999,175.409,180.55,184.615,186.352,190.417,194.235" svgx:width="0.6,0.51,0.48,0.22,0.22,0.48,0.51,0.5,0.55,0.67,0.51,0.22,0.46,0.48,0.32,0.43,0.22,0.32,0.47,0.21,0.55,0.52,0.34,0.6,0.6,0.53,0.53,0.55,0.7,0.48,0.51,0.5,0.44,0.51,0.51,0.51,0.21,0.55,0.64,0.51,0.22,0.51,0.48,0.21" style="fill:rgb(0,0,0);font-family:AdvOTf23bb480;font-size:7.97px;stroke:none;">Zhejiang University, 310027 Hangzhou, China.</text>
   <text y="694.431" x="198.368" svgx:width="0.53" style="fill:rgb(0,0,0);font-family:AdvOTf23bb480;font-size:6.38px;stroke:none;">2</text>
   <text y="697.379" x="203.131,208.271,212.089,216.154,218.72,222.538,225.0884,227.566,231.631,233.8626,236.353,240.338,242.075,245.893,249.544,252.11,254.676,258.741,262.8057,265.323,272.544,274.281,277.932,280.498,284.563,287.966,291.515,295.58,299.725,303.455,305.1287,307.616,311.681,314.247,318.065,320.631,324.4566,326.949,331.675,335.493,339.2389,341.745,345.396,349.213,353.358,357.423,359.989,363.807,366.373,370.438,372.926,376.6719,379.162,383.227,385.4586,388.007,392.071,393.809,395.546,397.284,400.934,404.999,409.06370000000004,411.535,418.756,422.573,425.14,428.957,431.524,433.261,437.079,438.817,442.22,443.8937,446.344,450.162,454.227,458.3714,460.858,464.923,468.573,472.638,476.703,480.768,482.52139999999997,484.953,489.018,491.2496,493.797,501.018,504.835,507.402,511.219,513.786,515.523,519.341,521.079,524.5061,526.906,530.97,534.621,536.358,540.176,544.241,547.891" svgx:width="0.64,0.48,0.51,0.32,0.48,0.32,0.55,0.51,0.28,0.55,0.5,0.22,0.48,0.46,0.32,0.32,0.51,0.51,0.55,0.91,0.22,0.46,0.32,0.51,0.43,0.46,0.51,0.52,0.47,0.21,0.55,0.51,0.32,0.48,0.32,0.48,0.55,0.59,0.48,0.47,0.55,0.46,0.48,0.52,0.51,0.32,0.48,0.32,0.51,0.32,0.47,0.55,0.51,0.28,0.55,0.51,0.22,0.22,0.22,0.46,0.51,0.51,0.55,0.91,0.48,0.32,0.48,0.32,0.22,0.48,0.22,0.43,0.21,0.55,0.48,0.51,0.52,0.55,0.51,0.46,0.51,0.51,0.51,0.22,0.55,0.51,0.28,0.55,0.91,0.48,0.32,0.48,0.32,0.22,0.48,0.22,0.43,0.55,0.51,0.46,0.22,0.48,0.51,0.46,0.48" style="fill:rgb(0,0,0);font-family:AdvOTf23bb480;font-size:7.97px;stroke:none;">Center of Electron Microscopy, State Key Laboratory of Silicon Materials, and School of Materials Science</text>
   <text y="707.357" x="43.596,47.414,51.479,55.6234,58.223,62.208,66.273,70.258,71.995,76.06,79.878,83.696,86.262,88.0,92.064,96.049,97.7227,100.29,105.104,109.168,112.986,114.724,116.461,120.279,124.344,128.329,130.961,136.269,140.334,142.071,145.721,149.539,152.105,155.509,157.246,159.813,163.543,165.2167,167.812,171.956,174.69,179.504,184.318,188.55,192.7741,195.365,200.92,204.738,208.802,212.787,216.27,220.335,224.4,228.465,230.1387,232.726,237.866,241.931,243.669,247.734,251.551" svgx:width="0.48,0.51,0.52,0.55,0.5,0.51,0.5,0.22,0.51,0.48,0.48,0.32,0.22,0.51,0.5,0.21,0.55,0.6,0.51,0.48,0.22,0.22,0.48,0.51,0.5,0.55,0.67,0.51,0.22,0.46,0.48,0.32,0.43,0.22,0.32,0.47,0.21,0.55,0.52,0.34,0.6,0.6,0.53,0.53,0.55,0.7,0.48,0.51,0.5,0.44,0.51,0.51,0.51,0.21,0.55,0.64,0.51,0.22,0.51,0.48,0.21" style="fill:rgb(0,0,0);font-family:AdvOTf23bb480;font-size:7.97px;stroke:none;">and Engineering, Zhejiang University, 310027 Hangzhou, China.</text>
   <text y="704.409" x="255.798" svgx:width="0.52" style="fill:rgb(0,0,0);font-family:AdvOTf23bb480;font-size:6.38px;stroke:none;">3</text>
   <text y="707.357" x="260.447,265.923,269.74,273.885,277.703,279.44,281.178,285.0036,287.603,291.254,295.071,299.216,303.281,305.847,309.665,312.231,316.296,318.862,322.60790000000003,325.191,327.43,331.495,334.04540000000003,336.7,342.175,346.32,349.97,353.788,357.853,361.503,365.321,369.46540000000005,372.076,379.297,383.115,385.681,389.499,392.065,393.803,397.621,399.358,402.761,404.4347,406.999,412.554,416.372,420.517,424.334,426.901,429.467,435.939,439.757,443.822,446.3724,449.009,453.074,455.3056,457.967,463.443,467.587,471.732,473.469,475.207,479.024,483.1684,485.746,489.891,493.956,497.686,501.089,502.827,506.477,509.88,511.5537,514.15,518.215,520.781,524.599,528.664,530.903,534.968,537.534" svgx:width="0.69,0.48,0.52,0.48,0.22,0.22,0.48,0.55,0.46,0.48,0.52,0.51,0.32,0.48,0.32,0.51,0.32,0.47,0.55,0.28,0.51,0.32,0.55,0.69,0.52,0.46,0.48,0.51,0.46,0.48,0.52,0.55,0.91,0.48,0.32,0.48,0.32,0.22,0.48,0.22,0.43,0.21,0.55,0.7,0.48,0.52,0.48,0.32,0.32,0.81,0.48,0.51,0.32,0.55,0.51,0.28,0.55,0.69,0.52,0.52,0.22,0.22,0.48,0.52,0.55,0.52,0.51,0.47,0.43,0.22,0.46,0.43,0.21,0.55,0.51,0.32,0.48,0.51,0.28,0.51,0.32,0.52" style="fill:rgb(0,0,0);font-family:AdvOTf23bb480;font-size:7.97px;stroke:none;">Geballe Laboratory for Advanced Materials, Department of Applied Physics, Stanford</text>
   <text y="717.335" x="43.596,48.905,52.969,54.707,58.357,62.175,64.741,68.145,69.882,72.449,76.179,77.8527,79.88,83.945,86.511,90.329,94.394,96.633,100.698,103.265,107.409,109.0827,111.118,116.259,121.7583,123.761,128.24,132.966,137.111,141.925,146.157,147.8307,149.897,155.205,159.27,164.745" svgx:width="0.67,0.51,0.22,0.46,0.48,0.32,0.43,0.22,0.32,0.47,0.21,0.55,0.51,0.32,0.48,0.51,0.28,0.51,0.32,0.52,0.21,0.55,0.64,0.69,0.55,0.56,0.59,0.52,0.6,0.53,0.21,0.55,0.67,0.51,0.69,0.21" style="fill:rgb(0,0,0);font-family:AdvOTf23bb480;font-size:7.97px;stroke:none;">University, Stanford, CA 94305, USA.</text>
   <text y="714.387" x="168.435" svgx:width="0.59" style="fill:rgb(0,0,0);font-family:AdvOTf23bb480;font-size:6.38px;stroke:none;">4</text>
   <text y="717.335" x="173.537,177.602,180.168,183.986,188.051,190.29,194.355,196.922,201.0664,203.131,205.203,209.268,212.671,215.238,216.975,219.542,223.607,226.173,229.9986,232.045,234.284,238.349,240.89939999999999,242.986,250.207,254.025,256.591,260.409,262.975,264.713,268.531,270.268,273.69509999999997,275.698,279.516,283.581,287.72540000000004,289.815,293.8,297.865,301.683,304.249,308.234,311.9799,314.023,318.088,321.738,323.476,327.293,331.358,335.008,338.826,342.229,343.9027,345.885,349.949,353.6,359.075,364.1758,366.294,371.849,375.667,378.233,379.971,384.036,388.1,391.918,393.6714,395.717,401.193,404.843,408.494,412.311,414.049,417.771,420.337,424.155,426.722,430.786,433.3364,435.459,439.11,442.927,447.072,451.137,453.703,457.521,460.087,464.152,466.64,470.37,472.0437,474.124,481.345,485.162,489.227,490.965,495.0297,497.084,501.229,505.046,507.613,511.175,512.8487,514.885,520.026,525.5252999999999,527.585,532.065,536.791,541.605,545.837,550.069" svgx:width="0.51,0.32,0.48,0.51,0.28,0.51,0.32,0.52,0.55,0.26,0.51,0.43,0.32,0.22,0.32,0.51,0.32,0.48,0.55,0.28,0.51,0.32,0.55,0.91,0.48,0.32,0.48,0.32,0.22,0.48,0.22,0.43,0.55,0.48,0.51,0.52,0.55,0.5,0.51,0.48,0.32,0.5,0.47,0.55,0.51,0.46,0.22,0.48,0.51,0.46,0.48,0.43,0.21,0.55,0.51,0.46,0.69,0.64,0.55,0.7,0.48,0.32,0.22,0.51,0.51,0.48,0.22,0.55,0.69,0.46,0.46,0.48,0.22,0.48,0.32,0.48,0.32,0.51,0.32,0.55,0.46,0.48,0.52,0.51,0.32,0.48,0.32,0.51,0.32,0.47,0.21,0.55,0.91,0.48,0.51,0.22,0.51,0.55,0.52,0.48,0.32,0.45,0.21,0.55,0.64,0.69,0.55,0.56,0.59,0.6,0.53,0.53,0.21" style="fill:rgb(0,0,0);font-family:AdvOTf23bb480;font-size:7.97px;stroke:none;">Stanford Institute for Materials and Energy Sciences, SLAC National Accelerator Laboratory, Menlo Park, CA 94025,</text>
   <text y="727.256" x="43.596,48.905,52.969,58.445" svgx:width="0.67,0.51,0.69,0.21" style="fill:rgb(0,0,0);font-family:AdvOTf23bb480;font-size:7.97px;stroke:none;">USA.</text>
   <text y="724.365" x="62.306" svgx:width="0.53" style="fill:rgb(0,0,0);font-family:AdvOTf23bb480;font-size:6.38px;stroke:none;">5</text>
   <text y="727.256" x="67.011,72.152,76.217,77.954,79.692,83.509,87.654,91.719,94.285,98.103,100.669,102.407,106.057,109.8826,112.026,114.098,118.163,122.228,126.293,129.943,133.761,136.327,138.065,142.129,146.19369999999998,148.366,153.507,157.325,161.389,163.956,167.773,170.3234,172.574,176.639,178.87060000000002,181.078,186.554,190.698,194.348,198.166,202.231,205.881,209.699,213.8434,216.001,223.222,224.96,228.61,231.176,235.241,238.644,241.211,243.777,247.842,251.492,254.059,258.124,260.619,264.437,267.84,269.5137,271.731,277.286,281.104,285.169,286.906,288.644,292.709,296.694,298.887,304.195,308.26,309.998,313.648,317.466,320.032,323.435,325.173,327.739,331.469,333.1427,335.341,339.573,342.307,347.121,351.935,356.414,360.5584,362.724,368.28,372.097,376.162,377.9,379.637,383.702,387.687,389.3607,391.525,396.666,400.73,402.468,406.533,410.35" svgx:width="0.64,0.51,0.22,0.22,0.48,0.52,0.51,0.32,0.48,0.32,0.22,0.46,0.48,0.55,0.26,0.51,0.51,0.51,0.46,0.48,0.32,0.22,0.51,0.51,0.55,0.64,0.48,0.51,0.32,0.48,0.32,0.55,0.51,0.28,0.55,0.69,0.52,0.46,0.48,0.51,0.46,0.48,0.52,0.55,0.91,0.22,0.46,0.32,0.51,0.43,0.32,0.32,0.51,0.46,0.32,0.51,0.32,0.48,0.43,0.21,0.55,0.7,0.48,0.51,0.22,0.22,0.51,0.5,0.55,0.67,0.51,0.22,0.46,0.48,0.32,0.43,0.22,0.32,0.47,0.21,0.55,0.53,0.34,0.6,0.6,0.56,0.52,0.55,0.7,0.48,0.51,0.22,0.22,0.51,0.5,0.21,0.55,0.64,0.51,0.22,0.51,0.48,0.21" style="fill:rgb(0,0,0);font-family:AdvOTf23bb480;font-size:7.97px;stroke:none;">Collaborative Innovation Center of Advanced Microstructures, Nanjing University, 210093 Nanjing, China.</text>
   <text y="723.742" x="414.198" svgx:width="0.56" style="fill:rgb(0,0,0);font-family:AdvOTf23bb480;font-size:5.31px;stroke:none;">6</text>
   <text y="727.256" x="417.543,422.022,426.087,429.905,433.308,437.1336,439.37,443.188,447.253,449.819,453.884,457.949,460.515,463.9421,466.073,469.723,473.788,477.853,480.419,482.986,484.723,488.868,492.932,495.499,499.317,503.4614,505.645,509.463,513.607,517.672,521.49,523.227,524.965,528.695,530.4484000000001,532.631,539.852,543.67,547.735" svgx:width="0.56,0.51,0.48,0.43,0.48,0.55,0.48,0.51,0.32,0.51,0.51,0.32,0.43,0.55,0.46,0.51,0.51,0.32,0.32,0.22,0.52,0.51,0.32,0.48,0.52,0.55,0.48,0.52,0.51,0.48,0.22,0.22,0.47,0.22,0.55,0.91,0.48,0.51,0.5" style="fill:rgb(0,0,0);font-family:AdvOTf23bb480;font-size:7.97px;stroke:none;">These authors contributed equally: Meng</text>
   <text y="737.234" x="43.596,48.41,52.475,56.292,60.357,64.342,66.0157,68.597,73.324,77.142,78.8954,81.524,87.079,91.144,92.8177,95.413,100.554,104.619,107.185,109.752,113.569,116.973,121.117,125.182,129.247,133.391,137.14,141.204,144.855,148.6806,151.313,155.131,159.196,163.3404,165.996,168.563,172.381,176.525,180.59,184.408,187.811,190.377,193.8041,196.384,198.624,202.689,205.2394,207.893,214.365,218.183,220.749,224.567,227.133,228.871,232.689,234.426,237.85309999999998,240.436,243.839,247.904,251.969,256.033,257.771,261.91540000000003,264.53,268.675,272.5006,275.132,278.95,283.095,287.239,289.806,293.623,297.027,300.43,304.159,308.3034,310.962,313.529,317.5937,320.26,325.816,327.474,331.953,333.62669999999997,336.248,339.316,343.134,349.606,353.424,355.161,356.899" svgx:width="0.6,0.51,0.48,0.51,0.5,0.21,0.55,0.59,0.48,0.22,0.55,0.7,0.51,0.21,0.55,0.64,0.51,0.32,0.32,0.48,0.43,0.52,0.51,0.51,0.52,0.48,0.51,0.46,0.48,0.55,0.48,0.51,0.52,0.55,0.32,0.48,0.52,0.51,0.48,0.43,0.32,0.43,0.55,0.28,0.51,0.32,0.55,0.81,0.48,0.32,0.48,0.32,0.22,0.48,0.22,0.43,0.55,0.43,0.51,0.51,0.51,0.22,0.52,0.55,0.52,0.48,0.55,0.48,0.52,0.52,0.32,0.48,0.43,0.43,0.48,0.52,0.55,0.32,0.51,0.55,0.7,0.21,0.56,0.21,0.55,0.38,0.48,0.81,0.48,0.22,0.22,0.22" style="fill:rgb(0,0,0);font-family:AdvOTf23bb480;font-size:7.97px;stroke:none;">Zhang, Kai Du. Correspondence and requests for materials should be addressed to H.T. (email:</text>
   <text y="737.234" x="361.247,365.312,369.13,371.696,373.434,377.251,381.316,388.035,391.518,393.256,397.248,398.906,402.723,406.868,410.933,412.59,416.241" svgx:width="0.51,0.48,0.32,0.22,0.48,0.51,0.84,0.44,0.22,0.51,0.21,0.48,0.52,0.51,0.21,0.46,0.51" style="fill:rgb(0,0,255);font-family:AdvOTf23bb480;font-size:7.97px;stroke:none;">hetian@zju.edu.cn</text>
   <text y="737.234" x="420.265,423.29359999999997,425.991,430.056,432.6064,435.289,437.855,441.91970000000003,444.529,449.423,451.081,456.062,457.7357,460.347,463.416,467.233,473.705,477.523,479.26,480.998" svgx:width="0.38,0.55,0.51,0.32,0.55,0.32,0.51,0.55,0.61,0.21,0.63,0.21,0.55,0.38,0.48,0.81,0.48,0.22,0.22,0.22" style="fill:rgb(0,0,0);font-family:AdvOTf23bb480;font-size:7.97px;stroke:none;">) or to Y.X. (email:</text>
   <text y="737.234" x="485.349,489.079,494.889,498.54,500.277,504.095,510.814,514.297,516.034,520.099,521.757,525.574,529.719,533.708,535.366,539.016" svgx:width="0.47,0.73,0.46,0.22,0.48,0.84,0.44,0.22,0.51,0.21,0.48,0.52,0.51,0.21,0.46,0.51" style="fill:rgb(0,0,255);font-family:AdvOTf23bb480;font-size:7.97px;stroke:none;">ywxie@zju.edu.cn</text>
   <text y="737.234" x="543.063" svgx:width="0.38" style="fill:rgb(0,0,0);font-family:AdvOTf23bb480;font-size:7.97px;stroke:none;">)</text>
   <text y="757.134" x="43.597,48.284,52.904,56.751,61.303,65.083,68.443,70.753,75.09,80.06,86.153,92.245,96.798,101.485,103.234,107.659,112.279,116.126,117.874,122.844,127.531" svgx:width="0.7,0.69,0.57,0.68,0.56,0.5,0.55,0.64,0.74,0.91,0.91,0.68,0.7,0.26,0.64,0.69,0.57,0.26,0.74,0.7,0.51" style="fill:rgb(236,126,28);font-family:AdvOTea1a7398;font-size:6.72px;stroke:none;">NATURE COMMUNICATIONS</text>
   <text y="757.134" x="132.151,133.8982,136.119,136.119,136.119,136.185,136.185,136.185,136.185,136.185,136.185,136.185,138.842,142.521,146.65,149.03,152.81,155.466,155.466,157.847,161.976,163.55,167.471,171.6,175.171,178.95,178.95,180.12,181.8672,183.011,186.508,188.673,190.839,194.335,197.274,198.74,202.17,205.6,209.097,212.594,214.248,215.714,219.211,221.518,225.247,228.676,231.057,235.186,236.652,239.033,243.162,246.659,250.531,253.961,256.9,260.821,263.201,267.122,270.901,274.472,276.853,280.982,283.362,287.142,289.522,291.903,295.474,299.603,303.198,306.978,309.358,312.9196,314.083,315.83020000000005,316.974,321.803,326.631,331.46,332.926,336.423,339.644,341.809,345.306,347.613,350.901,352.367,355.581,359.078,364.539,367.968,371.465,374.687,376.852,380.349,382.656,385.944,389.024,392.521,398.1,403.561,407.058,410.555,412.095,415.175,418.396,420.561,422.101,425.598,429.095" svgx:width="0.26,0.55,0.0,0.0,0.55,0.0,0.0,0.0,0.0,0.0,0.0,0.4,0.53,0.61,0.35,0.56,0.4,0.0,0.35,0.61,0.22,0.58,0.61,0.53,0.56,0.0,0.55,0.26,0.55,0.52,0.32,0.32,0.52,0.44,0.22,0.51,0.51,0.52,0.52,0.23,0.22,0.52,0.34,0.5,0.51,0.35,0.61,0.22,0.35,0.61,0.52,0.56,0.51,0.44,0.58,0.35,0.58,0.56,0.53,0.35,0.61,0.35,0.56,0.35,0.35,0.53,0.61,0.52,0.56,0.35,0.53,0.55,0.26,0.55,0.72,0.72,0.72,0.22,0.52,0.48,0.32,0.52,0.34,0.49,0.22,0.46,0.52,0.81,0.51,0.52,0.48,0.32,0.52,0.34,0.49,0.46,0.52,0.81,0.81,0.52,0.52,0.23,0.46,0.48,0.32,0.23,0.52,0.52,0.44" style="fill:rgb(0,0,0);font-family:AdvOTea1a7398;font-size:6.72px;stroke:none;">| (2019) 10:4026 | https://doi.org/10.1038/s41467-019-12036-5 | www.nature.com/naturecommunications</text>
   <text y="757.134" x="547.483" svgx:width="0.58" style="fill:rgb(0,0,0);font-family:AdvTTda6f6cb8.B;font-size:7.22px;stroke:none;">1</text>
  </g>
  <path style="fill:rgb(255,204,0);stroke:none;stroke-width:0.25;" d="M33.6 71.81 M33.6 37.7 L51.41 37.7 C59.23 37.7 65.97 35.01 72.4 30.83 C74.74 29.3 77.12 27.85 79.6 26.55 C80.15 26.26 80.71 25.99 81.27 25.73 C81.13 25.79 84.15 24.65 82.24 25.27 C83.63 24.82 85.06 24.54 86.5 24.37 C91.82 23.72 97.05 25.54 101.77 27.81 C112.32 32.87 121.38 40.64 131.89 45.79 C139.4 49.46 147.96 48.55 156.08 48.55 L306.35 48.55 C307.31 48.55 308.27 47.5 309.23 47.5 L154.85 47.5 C151.61 47.5 148.36 47.58 145.13 47.43 C138.82 47.15 133.53 44.28 128.199 41.1 C122.6 37.75 117.15 34.16 111.63 30.69 C106.37 27.37 100.63 24.3 94.41 23.4 C85.83 22.14 77.09 27.04 70.16 31.46 C68.0 32.84 65.83 34.76 63.33 35.46 C61.21 36.05 59.0 36.35 56.81 36.54 C55.31 36.67 53.8 36.65 52.29 36.65 L36.48 36.65 C35.51 36.65 34.55 37.7 33.6 37.7 "/>
  <path style="fill:rgb(227,31,37);stroke:none;stroke-width:0.25;" d="M33.6 39.5 L45.82 39.5 C51.36 39.5 56.53 39.74 61.78 37.81 C65.76 36.35 68.72 34.02 71.25 30.61 C73.82 27.17 75.79 22.08 79.91 20.22 C78.96 20.56 78.02 20.91 77.08 21.25 C79.85 20.33 81.97 22.31 83.67 24.27 C85.79 26.72 87.52 29.54 89.52 32.09 C93.07 36.61 97.45 40.82 103.46 41.3 C110.77 41.88 119.26 39.07 125.14 34.84 C127.6 33.06 129.68 30.83 132.11 29.02 C132.72 28.57 133.94 28.3 132.07 28.75 C132.52 28.64 133.0 28.64 133.46 28.67 C134.4 28.73 135.3 29.35 136.05 29.87 C138.1 31.29 139.84 33.22 141.64 34.93 C144.27 37.44 147.04 39.73 150.06 41.76 C152.14 43.15 154.16 44.63 156.47 45.6 C158.81 46.59 161.45 46.74 163.95 46.74 L290.52 46.74 C291.48 46.74 292.44 45.69 293.4 45.69 L167.5 45.69 C164.32 45.69 161.25 45.46 158.33 44.1 C152.78 41.51 147.83 37.06 143.46 32.87 C140.6 30.13 137.83 26.61 133.55 28.12 C132.23 28.59 130.9 29.02 129.699 29.75 C126.99 31.4 124.77 33.96 122.26 35.89 C118.43 38.82 113.68 40.19 108.88 40.27 C103.85 40.34 99.94 38.77 96.24 35.33 C91.7 31.11 89.13 24.86 84.3 21.02 C81.71 18.96 77.63 20.5 75.29 22.35 C71.59 25.27 69.73 30.29 66.65 33.81 C65.19 35.47 63.1 37.43 60.91 37.98 C57.28 38.88 53.29 38.46 49.6 38.46 L36.48 38.46 C35.51 38.46 34.55 39.5 33.6 39.5 "/>
  <path style="fill:rgb(239,127,28);stroke:none;stroke-width:0.25;" d="M33.6 35.89 C39.08 35.89 44.55 35.85 50.02 35.89 C55.17 35.92 60.36 36.41 65.39 37.51 C71.51 38.85 77.67 42.34 84.07 40.93 C87.01 40.28 90.13 38.95 92.35 36.91 C95.09 34.37 96.6 30.77 98.39 27.58 C99.14 26.23 99.99 24.94 101.1 23.86 C101.95 23.03 103.49 22.83 101.24 23.32 C102.3 23.09 103.44 23.24 104.48 23.5 C109.17 24.66 109.94 31.28 110.6 35.15 C111.13 38.25 111.57 41.36 112.21 44.44 C112.86 47.63 113.58 51.01 115.81 53.5 C118.46 56.45 123.1 56.1 126.49 54.94 C131.97 53.07 137.24 51.44 143.04 50.84 C147.04 50.43 151.07 50.36 155.09 50.36 L318.09 50.36 C319.06 50.36 320.02 49.31 320.97 49.31 L168.43 49.31 C157.64 49.31 146.34 48.58 135.91 51.63 C131.91 52.8 128.27 54.89 124.15 54.71 C117.86 54.45 116.22 48.62 115.09 43.39 C113.71 37.03 113.8 18.76 102.68 22.7 C100.51 23.47 98.75 24.14 97.24 25.97 C95.47 28.14 94.36 30.84 92.98 33.25 C91.46 35.91 89.57 38.33 86.86 39.86 C86.27 40.15 86.3 40.16 86.95 39.88 C86.42 40.02 85.87 40.09 85.32 40.17 C84.31 40.3 83.28 40.28 82.26 40.19 C79.31 39.92 76.4 38.79 73.59 37.93 C61.45 34.21 49.0 34.84 36.48 34.84 C35.51 34.84 34.55 35.89 33.6 35.89 "/>
  <path style="fill:rgb(153,166,169);stroke:none;stroke-width:0.25;" d="M43.26 57.72 C43.44 57.72 45.33 57.63 45.78 57.63 C46.23 57.63 47.98 57.72 48.23 57.72 C48.48 57.72 48.81 57.74 48.81 57.52 C48.81 57.3 48.25 57.25 47.96 57.12 C47.58 56.96 47.28 56.76 47.2 56.38 C47.06 55.7 47.04 54.74 47.04 52.72 C47.04 51.23 47.06 49.64 47.49 48.89 C47.8 48.35 48.63 47.68 49.58 47.68 C50.52 47.68 51.08 47.86 51.62 48.49 C52.16 49.12 52.14 50.47 52.14 52.76 C52.14 54.62 52.14 55.57 52.05 56.24 C51.96 56.89 51.64 57.02 51.13 57.2 C50.72 57.34 50.21 57.32 50.21 57.55 C50.21 57.7 50.41 57.72 50.86 57.72 C51.19 57.72 52.7 57.63 53.37 57.63 C54.04 57.63 55.46 57.72 55.75 57.72 C56.04 57.72 56.25 57.68 56.25 57.5 C56.25 57.3 55.89 57.29 55.62 57.21 C54.52 56.92 54.52 56.98 54.52 53.9 C54.52 53.12 54.54 52.04 54.54 50.33 C54.54 49.52 54.45 48.29 54.02 47.68 C53.42 46.85 52.56 46.24 51.08 46.24 C48.72 46.24 47.69 48.2 47.26 48.2 C47.11 48.2 47.08 48.02 47.08 47.86 L47.08 46.65 C47.08 46.36 47.04 46.13 46.84 46.13 C46.72 46.13 46.56 46.25 46.47 46.33 C45.44 47.21 44.44 47.89 43.36 48.26 C43.26 48.29 43.18 48.33 43.18 48.47 C43.18 48.63 43.42 48.63 43.82 48.69 C44.12 48.72 44.37 48.85 44.48 48.99 C44.72 49.3 44.72 50.27 44.72 51.82 C44.72 54.08 44.7 55.54 44.57 56.38 C44.48 56.94 44.19 57.03 43.64 57.18 C43.2 57.29 42.82 57.32 42.82 57.54 C42.82 57.7 42.93 57.72 43.26 57.72 ZM61.7 55.79 C61.28 56.38 60.79 56.74 60.16 56.74 C59.57 56.74 58.78 56.33 58.78 55.3 C58.78 53.46 61.5 52.13 61.84 52.13 C62.11 52.13 62.24 52.26 62.24 52.63 C62.24 53.88 62.18 55.09 61.7 55.79 ZM64.31 57.79 C65.91 57.79 66.87 56.4 66.87 55.95 C66.87 55.86 66.83 55.75 66.72 55.75 C66.56 55.75 66.13 56.42 65.34 56.42 C64.58 56.42 64.42 55.66 64.42 54.87 C64.42 54.08 64.62 49.88 64.62 48.31 C64.62 46.4 62.89 46.09 61.39 46.09 C58.25 46.09 56.43 48.47 56.43 49.61 C56.43 50.02 56.79 50.2 57.04 50.2 C57.5 50.2 58.15 49.91 58.31 49.41 C58.67 48.22 59.21 46.69 60.87 46.69 C61.5 46.69 61.93 46.8 62.25 47.44 C62.42 47.77 62.38 48.33 62.38 49.05 C62.38 51.52 62.34 51.21 60.0 52.38 C58.54 53.12 56.65 54.02 56.65 55.9 C56.65 56.74 57.26 57.97 58.79 57.97 C60.34 57.97 61.44 57.0 62.02 56.17 C62.04 56.13 62.07 56.11 62.13 56.11 C62.22 56.11 62.25 56.19 62.27 56.28 C62.52 57.07 63.23 57.79 64.31 57.79 ZM91.94 57.72 C92.14 57.72 92.48 57.72 92.48 57.54 C92.48 57.3 92.25 57.32 91.96 57.27 C91.62 57.2 90.5 57.03 90.21 56.58 C89.96 56.2 89.99 54.67 89.99 52.71 C89.99 50.6 90.03 49.16 90.48 48.65 C90.64 48.47 90.82 48.15 91.27 48.15 C92.16 48.15 92.35 49.16 93.33 49.16 C94.07 49.16 94.72 48.61 94.72 47.75 C94.72 46.9 94.09 46.2 93.11 46.2 C91.4 46.2 90.52 48.13 90.16 48.13 C90.08 48.13 90.01 48.09 90.01 47.86 L90.01 46.56 C90.01 46.22 89.89 46.13 89.76 46.13 C89.65 46.13 89.51 46.16 89.16 46.51 C88.48 47.17 86.97 48.02 86.59 48.16 C86.26 48.29 86.1 48.35 86.1 48.51 C86.1 48.6 86.23 48.63 86.39 48.65 C87.62 48.72 87.67 49.03 87.67 52.1 C87.67 55.16 87.63 56.11 87.47 56.57 C87.31 57.02 86.5 57.18 86.28 57.23 C86.01 57.3 85.7 57.34 85.7 57.54 C85.7 57.7 86.01 57.72 86.23 57.72 C86.44 57.72 88.19 57.63 89.0 57.63 C89.81 57.63 91.74 57.72 91.94 57.72 ZM99.8 46.65 C101.31 46.65 101.84 47.75 101.84 48.26 C101.84 49.57 99.82 49.68 98.38 49.68 C97.15 49.68 96.79 49.59 96.79 49.26 C96.79 48.38 97.8 46.65 99.8 46.65 ZM99.26 57.95 C102.03 57.95 104.14 55.41 104.14 54.96 C104.14 54.87 104.11 54.8 103.96 54.8 C103.78 54.8 102.81 56.35 100.59 56.35 C97.64 56.35 96.49 54.04 96.49 51.41 C96.49 50.31 96.74 50.29 97.33 50.29 C99.6 50.29 101.53 50.43 103.1 50.43 C103.82 50.43 104.18 50.43 104.18 49.77 C104.18 47.91 102.34 46.09 99.93 46.09 C96.68 46.09 93.91 48.61 93.91 52.28 C93.91 55.75 96.25 57.95 99.26 57.95 ZM77.43 57.95 C79.63 57.95 81.0 56.04 81.29 56.04 C81.47 56.04 81.5 56.24 81.5 56.44 C81.5 56.94 81.47 57.25 81.47 57.63 C81.47 57.92 81.52 58.04 81.7 58.04 C81.76 58.04 81.99 57.95 82.14 57.9 C82.98 57.54 84.95 57.05 85.43 56.96 C85.76 56.91 85.88 56.83 85.88 56.71 C85.88 56.6 85.81 56.53 85.7 56.53 C85.6 56.53 85.18 56.57 85.0 56.57 C84.48 56.57 84.23 56.49 84.1 56.26 C83.92 55.93 83.9 54.87 83.9 53.43 C83.9 51.05 84.08 48.02 84.08 47.08 C84.08 46.74 83.97 46.6 83.56 46.61 L79.9 46.71 C79.54 46.72 79.47 46.8 79.47 46.96 C79.47 47.14 79.67 47.14 80.19 47.21 C80.66 47.26 81.05 47.3 81.31 47.53 C81.61 47.8 81.61 49.12 81.61 51.82 C81.61 53.12 81.59 54.67 81.31 55.2 C80.91 55.92 79.93 56.37 78.98 56.37 C77.27 56.37 76.67 55.5 76.67 54.26 C76.71 49.23 76.74 48.22 76.74 47.16 C76.74 46.61 76.69 46.49 76.17 46.51 L70.64 46.72 C70.45 46.72 70.35 46.6 70.35 46.34 C70.35 45.84 70.4 45.08 70.4 44.6 C70.4 44.38 70.31 44.27 70.15 44.27 C69.99 44.27 69.91 44.45 69.77 44.67 C69.16 45.59 67.88 46.6 67.01 47.21 C66.63 47.48 66.42 47.5 66.42 47.73 C66.42 47.82 66.51 47.86 66.61 47.86 L67.41 47.86 C67.93 47.86 67.95 48.24 67.95 48.56 C67.95 48.89 67.82 53.54 67.82 54.53 C67.82 56.51 68.26 57.95 70.2 57.95 C72.01 57.95 73.7 56.44 73.7 56.2 C73.7 56.13 73.65 56.08 73.56 56.08 C73.46 56.08 72.54 56.53 71.7 56.53 C71.05 56.53 70.67 56.37 70.42 55.92 C70.15 55.41 70.17 54.65 70.17 53.41 C70.17 50.43 70.2 49.07 70.26 48.16 C70.29 47.57 70.35 47.53 70.71 47.52 C71.08 47.5 71.63 47.48 72.29 47.48 C74.33 47.48 74.36 47.48 74.36 48.51 C74.36 49.03 74.28 53.21 74.28 54.64 C74.28 57.2 76.12 57.95 77.43 57.95 ZM123.14 68.04 L124.08 65.04 L124.11 65.04 L124.98 68.04 L123.14 68.04 ZM122.62 61.78 L119.03 71.52 L122.05 71.52 L122.48 70.13 L125.58 70.13 L125.99 71.52 L129.1 71.52 L125.55 61.78 L122.62 61.78 ZM106.39 71.52 M116.4 67.7 C116.22 68.61 115.83 69.32 114.82 69.32 C113.41 69.32 112.96 67.96 112.96 66.65 C112.96 65.34 113.41 63.98 114.82 63.98 C116.06 63.98 116.33 65.05 116.39 65.41 L119.3 65.41 C119.04 62.97 117.57 61.56 114.9 61.55 C111.9 61.55 109.96 63.58 109.96 66.65 C109.96 69.53 111.75 71.75 114.9 71.75 C117.75 71.75 119.35 69.66 119.35 67.7 L116.4 67.7 ZM156.57 66.99 L156.54 66.99 L153.71 61.78 L150.64 61.78 L150.64 71.52 L153.47 71.52 L153.47 66.2 L153.5 66.2 L156.49 71.52 L159.41 71.52 L159.41 61.78 L156.57 61.78 L156.57 66.99 ZM165.72 65.59 C164.35 65.2 162.95 65.05 162.9 64.36 C162.9 63.81 163.57 63.7 163.98 63.7 C164.28 63.7 164.62 63.77 164.86 63.95 C165.11 64.11 165.27 64.36 165.22 64.73 L168.05 64.73 C167.97 62.35 166.1 61.55 163.99 61.55 C161.99 61.55 160.06 62.52 160.06 64.769 C160.06 66.73 161.82 67.15 163.36 67.59 C165.04 68.07 165.46 68.2 165.46 68.71 C165.46 69.43 164.71 69.6 164.22 69.6 C163.66 69.6 163.01 69.47 162.79 68.89 C162.72 68.71 162.68 68.49 162.68 68.24 L159.68 68.24 C159.71 71.35 162.86 71.75 163.96 71.75 C166.13 71.75 168.46 70.93 168.46 68.39 C168.46 66.61 167.1 65.97 165.72 65.59 ZM127.71 64.28 L130.44 64.28 L130.44 71.52 L133.44 71.52 L133.44 64.28 L136.16 64.28 L136.16 61.78 L127.71 61.78 L127.71 64.28 ZM145.1 69.32 C144.34 69.32 143.16 68.82 143.16 66.65 C143.16 64.48 144.34 63.98 145.1 63.98 C145.86 63.98 147.04 64.48 147.04 66.65 C147.04 68.82 145.86 69.32 145.1 69.32 ZM145.1 61.55 C142.14 61.55 140.16 63.68 140.16 66.65 C140.16 69.62 142.14 71.75 145.1 71.75 C148.06 71.75 150.04 69.62 150.04 66.65 C150.04 63.68 148.06 61.55 145.1 61.55 ZM136.59 71.52 M92.89 67.09 C92.89 68.08 92.89 69.32 91.47 69.32 C90.01 69.32 90.01 68.08 90.01 67.09 L90.01 61.78 L87.01 61.78 L87.01 67.75 C87.01 70.45 88.48 71.75 91.46 71.75 C94.43 71.75 95.89 70.45 95.89 67.75 L95.89 61.78 L92.89 61.78 L92.89 67.09 ZM68.34 67.51 L68.31 67.51 L66.92 61.78 L62.65 61.78 L62.65 71.52 L65.489 71.52 L65.489 65.269 L65.51 65.269 L67.21 71.52 L69.44 71.52 L71.13 65.269 L71.16 65.269 L71.16 71.52 L74.0 71.52 L74.0 61.78 L69.73 61.78 L68.34 67.51 ZM57.14 69.32 C56.38 69.32 55.2 68.82 55.2 66.65 C55.2 64.48 56.38 63.98 57.14 63.98 C57.9 63.98 59.08 64.48 59.08 66.65 C59.08 68.82 57.9 69.32 57.14 69.32 ZM57.14 61.55 C54.18 61.55 52.2 63.68 52.2 66.65 C52.2 69.62 54.18 71.75 57.14 71.75 C60.1 71.75 62.08 69.62 62.08 66.65 C62.08 63.68 60.1 61.55 57.14 61.55 ZM47.39 69.32 C45.98 69.32 45.53 67.96 45.53 66.65 C45.53 65.34 45.98 63.98 47.39 63.98 C48.63 63.98 48.9 65.05 48.96 65.41 L51.87 65.41 C51.61 62.97 50.14 61.56 47.47 61.55 C44.47 61.55 42.53 63.58 42.53 66.65 C42.53 69.53 44.32 71.75 47.47 71.75 C50.32 71.75 51.92 69.66 51.92 67.7 L48.97 67.7 C48.79 68.61 48.4 69.32 47.39 69.32 ZM80.53 67.51 L80.5 67.51 L79.11 61.78 L74.84 61.78 L74.84 71.52 L77.68 71.52 L77.68 65.269 L77.71 65.269 L79.4 71.52 L81.64 71.52 L83.32 65.269 L83.35 65.269 L83.35 71.52 L86.19 71.52 L86.19 61.78 L81.92 61.78 L80.53 67.51 ZM102.67 66.99 L102.64 66.99 L99.8 61.78 L96.73 61.78 L96.73 71.52 L99.57 71.52 L99.57 66.2 L99.6 66.2 L102.58 71.52 L105.5 71.52 L105.5 61.78 L102.67 61.78 L102.67 66.99 "/>
  <g begin="text">
   <text y="334.035" transform="matrix(0.0,-1.0,1.0,0.0,-323.547,344.523)" rotateDegrees="-90" matrix="[0.0,4.9813,-4.9813,0.0,10.4882,448.3274]" x="10.488,12.25200000000001,14.897000000000048,17.487000000000023,20.39100000000002,23.036,25.836000000000013,28.48100000000005,31.28000000000003,34.24200000000002,37.301000000000045,39.26800000000003,41.23600000000005,42.322,43.408000000000015" svgx:width="0.35,0.53,0.52,0.58,0.53,0.56,0.53,0.56,0.56,0.61,0.4,0.4,0.22,0.22,0.22" style="fill:rgb(255,255,255);font-family:AdvOTea1a7398;font-size:4.98px;stroke:none;">1234567890():,;</text>
  </g>
 </g>
</svg>
