<?xml version="1.0" encoding="UTF-8"?>
<svg height="809.37" width="4486.363" xmlns="http://www.w3.org/2000/svg">
 <g id="page" xmlns:svgx="http://www.xml-cml.org/schema/svgx">
  <path style="fill:rgb(29,120,121);stroke:none;stroke-width:1.0;" d="M76.54 49.3 L110.49 49.3 L110.49 83.25 L76.54 83.25 L76.54 49.3 "/>
  <g begin="text">
   <text y="73.031" x="115.009,134.613,147.211,154.216,165.404,176.592,190.602,197.607,208.794" svgx:width="0.78,0.5,0.28,0.44,0.44,0.56,0.28,0.44,0.39" style="fill:rgb(29,120,121);font-family:TimesNewRomanPS-BoldItalicMT;font-size:25.2px;stroke:none;">molecules</text>
  </g>
  <path style="fill:rgb(148,198,200);stroke:none;stroke-width:1.0;" d="M100.42 67.69 L97.8 69.24 L97.82 70.41 L100.94 68.56 C101.18 68.42 101.26 68.11 101.11 67.86 C100.97 67.63 100.66 67.55 100.42 67.69 ZM107.94 58.49 C107.8 58.25 107.49 58.17 107.25 58.31 L102.72 61.0 C102.69 61.02 102.67 61.03 102.65 61.05 L96.34 57.51 L96.16 52.24 C96.15 51.96 95.92 51.75 95.64 51.76 C95.36 51.77 95.14 52.0 95.15 52.28 L95.33 57.55 C95.33 57.59 95.34 57.63 95.35 57.67 L90.86 60.34 L90.9 61.49 L95.98 58.47 L102.15 61.93 L102.24 69.0 L97.83 71.61 L97.84 72.78 L102.82 69.83 C102.85 69.86 102.88 69.89 102.92 69.91 L107.43 72.62 C107.48 72.65 107.52 72.67 107.57 72.68 C107.78 72.73 108.01 72.65 108.13 72.45 C108.27 72.21 108.2 71.9 107.96 71.76 L103.44 69.04 C103.38 69.0 103.31 68.98 103.25 68.97 L103.16 61.91 C103.19 61.9 103.21 61.89 103.23 61.87 L107.77 59.18 C108.01 59.04 108.09 58.73 107.94 58.49 ZM100.49 63.33 C100.7 63.39 100.94 63.29 101.05 63.09 C101.19 62.85 101.1 62.54 100.86 62.4 L96.25 59.82 C96.01 59.68 95.7 59.77 95.56 60.01 C95.43 60.25 95.51 60.56 95.76 60.7 L100.36 63.28 C100.41 63.31 100.45 63.32 100.49 63.33 "/>
  <path style="fill:rgb(148,198,200);stroke:none;stroke-width:1.0;" d="M89.77 78.43 L83.6 74.97 L83.51 67.9 L89.59 64.29 L95.76 67.75 L95.84 74.82 L89.77 78.43 ZM101.34 77.74 L96.86 75.05 L96.77 67.73 C96.8 67.72 96.82 67.71 96.84 67.7 L101.38 65.01 C101.62 64.86 101.7 64.55 101.55 64.31 C101.41 64.069 101.1 63.99 100.86 64.129 L96.33 66.83 C96.3 66.84 96.28 66.86 96.26 66.87 L89.95 63.33 L89.77 58.07 C89.76 57.79 89.52 57.57 89.25 57.58 C88.97 57.59 88.75 57.82 88.76 58.1 L88.93 63.37 C88.94 63.41 88.94 63.45 88.96 63.49 L82.75 67.18 L82.5 67.62 L82.59 74.98 C82.58 74.98 82.58 74.99 82.58 74.99 L78.05 77.68 C77.81 77.82 77.73 78.13 77.87 78.37 C77.94 78.49 78.05 78.57 78.18 78.6 C78.31 78.64 78.44 78.62 78.56 78.55 L83.1 75.86 C83.1 75.86 83.1 75.85 83.1 75.85 L89.52 79.46 L90.03 79.45 L96.18 75.8 C96.22 75.83 96.25 75.87 96.3 75.89 L100.82 78.61 C100.86 78.64 100.91 78.66 100.95 78.67 C101.16 78.72 101.39 78.64 101.51 78.44 C101.66 78.2 101.58 77.89 101.34 77.74 ZM85.58 68.77 C85.58 68.49 85.35 68.27 85.07 68.27 C84.79 68.27 84.56 68.5 84.57 68.78 L84.63 74.06 C84.63 74.3 84.8 74.49 85.01 74.55 C85.05 74.56 85.1 74.56 85.14 74.56 C85.42 74.56 85.65 74.33 85.64 74.05 L85.58 68.77 ZM94.1 69.15 C94.31 69.21 94.55 69.12 94.66 68.91 C94.8 68.67 94.71 68.36 94.47 68.22 L89.86 65.64 C89.62 65.5 89.31 65.59 89.17 65.83 C89.04 66.07 89.12 66.38 89.37 66.52 L93.97 69.11 C94.01 69.13 94.06 69.14 94.1 69.15 ZM89.49 76.21 C89.25 76.35 89.17 76.66 89.31 76.9 C89.38 77.02 89.49 77.1 89.62 77.13 C89.74 77.16 89.88 77.15 90.0 77.08 L94.54 74.38 C94.78 74.24 94.86 73.93 94.72 73.69 C94.58 73.45 94.27 73.37 94.03 73.51 L89.49 76.21 "/>
  <rect style="stroke:blue;stroke-width:0.3;" x="476.363" y="13.209" height="27.476" width="41.6" title="1"/>
  <text y="13.209" class="image" id="image.1.1" width="41" height="27" x="476.363">image.1.1.476_518.13_41</text>
  <rect style="stroke:blue;stroke-width:0.3;" x="476.363" y="13.209" height="27.476" width="41.6" title="1"/>
  <text y="13.209" class="image" id="image.1.2" width="41" height="27" x="476.363">image.1.2.476_518.13_41</text>
  <rect style="stroke:blue;stroke-width:0.3;" x="476.363" y="13.209" height="27.476" width="41.6" title="1"/>
  <text y="13.209" class="image" id="image.1.3" width="41" height="27" x="476.363">image.1.3.476_518.13_41</text>
  <rect style="stroke:blue;stroke-width:0.3;" x="476.363" y="13.209" height="27.476" width="41.6" title="1"/>
  <text y="13.209" class="image" id="image.1.4" width="41" height="27" x="476.363">image.1.4.476_518.13_41</text>
  <rect style="stroke:blue;stroke-width:0.3;" x="476.363" y="13.209" height="27.476" width="41.6" title="1"/>
  <text y="13.209" class="image" id="image.1.5" width="41" height="27" x="476.363">image.1.5.476_518.13_41</text>
  <rect style="stroke:blue;stroke-width:0.3;" x="476.363" y="13.209" height="27.476" width="41.6" title="1"/>
  <text y="13.209" class="image" id="image.1.6" width="41" height="27" x="476.363">image.1.6.476_518.13_41</text>
  <rect style="stroke:blue;stroke-width:0.3;" x="476.363" y="13.209" height="27.476" width="41.6" title="1"/>
  <text y="13.209" class="image" id="image.1.7" width="41" height="27" x="476.363">image.1.7.476_518.13_41</text>
  <rect style="stroke:blue;stroke-width:0.3;" x="476.363" y="13.209" height="27.476" width="41.6" title="1"/>
  <text y="13.209" class="image" id="image.1.8" width="41" height="27" x="476.363">image.1.8.476_518.13_41</text>
  <g begin="text">
   <text y="108.46" x="76.177,83.37,87.245,90.563,93.333,97.387,100.157" svgx:width="0.72,0.39,0.33,0.28,0.41,0.28,0.39" style="fill:rgb(0,0,0);font-family:URWPalladioL-Ital;font-size:9.96px;stroke:none;">Article</text>
   <text y="127.727" x="76.535,87.492,94.468,103.434,114.391,123.358,130.333,139.3,145.271,151.243,161.214,172.1513,176.654,186.624,193.6167,198.084,209.04,216.016,225.987,235.958,244.924,252.886,258.858,267.824,274.8,284.771,295.728,304.693,309.177,322.125,332.095,338.067,351.014,357.99,367.961,375.923,381.895,390.861,396.833,404.72220000000004,409.278,421.239,430.206,438.168,447.134,458.0713,462.574,472.545" svgx:width="0.61,0.39,0.5,0.61,0.5,0.39,0.5,0.33,0.33,0.56,0.61,0.55,0.56,0.39,0.55,0.61,0.39,0.56,0.56,0.5,0.44,0.33,0.5,0.39,0.56,0.61,0.5,0.55,0.72,0.56,0.33,0.72,0.39,0.56,0.44,0.33,0.5,0.33,0.44,0.55,0.67,0.5,0.44,0.5,0.61,0.55,0.56,0.61" style="fill:rgb(0,0,0);font-family:URWPalladioL-Bold;font-size:17.93px;stroke:none;">Preparation of Progesterone Co-Crystals Based on</text>
   <text y="147.991" x="76.535,89.482,96.458,106.429,114.391,120.363,129.329,135.2459,139.784,150.741,161.698,171.669,177.64,188.597,197.563,206.53,213.506,219.477,230.434,240.4748,244.888,255.845,261.817,268.793,277.759,283.731,292.697,302.668,308.639,317.606" svgx:width="0.72,0.39,0.56,0.44,0.33,0.5,0.33,0.55,0.61,0.61,0.56,0.33,0.61,0.5,0.5,0.39,0.33,0.61,0.56,0.55,0.61,0.33,0.39,0.5,0.33,0.5,0.56,0.33,0.5,0.44" style="fill:rgb(0,0,0);font-family:URWPalladioL-Bold;font-size:17.93px;stroke:none;">Crystal Engineering Strategies</text>
   <text y="177.683" x="76.535,84.834,90.921,95.902,101.989,108.077,111.3638,113.885,120.53,125.511,131.598" svgx:width="0.83,0.61,0.5,0.61,0.61,0.33,0.55,0.67,0.5,0.61,0.56" style="fill:rgb(0,0,0);font-family:URWPalladioL-Bold;font-size:9.96px;stroke:none;">Huahui Zeng</text>
   <text y="174.066" x="139.628,143.914" svgx:width="0.5,0.25" style="fill:rgb(0,0,0);font-family:URWPalladioL-Bold;font-size:7.57px;stroke:none;">1,</text>
   <text y="174.066" x="146.303" svgx:width="0.5" style="fill:rgb(0,0,0);font-family:Pxbsy;font-size:7.57px;stroke:none;">†</text>
   <text y="177.683" x="150.587,153.077,155.568,159.444,162.761,168.848,174.4256,176.878,183.523,186.841,192.38,198.467" svgx:width="0.25,0.55,0.39,0.33,0.61,0.56,0.55,0.67,0.33,0.56,0.61,0.56" style="fill:rgb(0,0,0);font-family:URWPalladioL-Bold;font-size:9.96px;stroke:none;">, Jing Xiong</text>
   <text y="174.066" x="206.497,210.783" svgx:width="0.5,0.25" style="fill:rgb(0,0,0);font-family:URWPalladioL-Bold;font-size:7.57px;stroke:none;">2,</text>
   <text y="174.066" x="213.172" svgx:width="0.5" style="fill:rgb(0,0,0);font-family:Pxbsy;font-size:7.57px;stroke:none;">†</text>
   <text y="177.683" x="217.456,219.946,222.437,229.082,235.169,241.257,246.238,252.325,257.9026,260.355,267.0,273.087,278.068" svgx:width="0.25,0.55,0.67,0.61,0.61,0.5,0.61,0.56,0.55,0.67,0.61,0.5,0.56" style="fill:rgb(0,0,0);font-family:URWPalladioL-Bold;font-size:9.96px;stroke:none;">, Zhuang Zhao</text>
   <text y="174.066" x="286.098" svgx:width="0.5" style="fill:rgb(0,0,0);font-family:URWPalladioL-Bold;font-size:7.57px;stroke:none;">3</text>
   <text y="177.683" x="290.382,292.872,295.363,299.239,302.556,308.643,314.183,319.722,323.0088,325.53,333.829,337.147,342.128" svgx:width="0.25,0.55,0.39,0.33,0.61,0.56,0.56,0.33,0.55,0.83,0.33,0.5,0.56" style="fill:rgb(0,0,0);font-family:URWPalladioL-Bold;font-size:9.96px;stroke:none;">, Jingyi Qiao</text>
   <text y="174.066" x="350.158" svgx:width="0.5" style="fill:rgb(0,0,0);font-family:URWPalladioL-Bold;font-size:7.57px;stroke:none;">1</text>
  </g>
  <path style="fill:rgb(179,201,62);stroke:none;stroke-width:1.0;" d="M488.21 73.6 L488.21 67.02 L486.5 73.6 L484.72 73.6 L482.96 67.02 L482.96 73.6 L480.84 73.6 L480.84 64.4 L484.52 64.4 L485.85 69.29 L487.12 64.4 L490.82 64.4 L490.82 73.6 L488.21 73.6 M499.31 72.31 C498.49 73.17 497.42 73.6 496.11 73.6 L492.4 73.6 L492.4 64.4 L495.94 64.4 C497.48 64.4 498.63 64.86 499.39 65.78 C500.16 66.7 500.54 67.75 500.54 68.96 C500.54 70.33 500.13 71.45 499.31 72.31 M497.18 67.22 C496.89 66.73 496.48 66.49 495.95 66.49 L495.21 66.49 L495.21 71.48 L495.95 71.48 C496.41 71.48 496.8 71.25 497.12 70.8 C497.44 70.35 497.6 69.73 497.6 68.95 C497.6 68.28 497.46 67.7 497.18 67.22 M508.61 69.45 C508.0 69.98 507.19 70.25 506.17 70.25 L504.58 70.25 L504.58 73.6 L501.73 73.6 L501.73 64.4 L505.65 64.4 C506.62 64.4 507.36 64.519 507.87 64.739 C508.38 64.97 508.78 65.31 509.08 65.77 C509.38 66.23 509.53 66.75 509.53 67.33 C509.53 68.2 509.22 68.91 508.61 69.45 M505.58 66.49 L504.55 66.49 L504.55 68.29 L505.49 68.29 C506.31 68.29 506.73 67.98 506.73 67.36 C506.73 66.78 506.35 66.49 505.58 66.49 M510.57 73.6 L510.57 64.4 L513.38 64.4 L513.38 73.6 L510.57 73.6 M517.09 75.98 L517.09 62.89 L517.78 62.41 L517.78 76.45 L517.09 75.98 M507.15 82.56 L507.16 81.75 L517.11 75.98 L517.78 76.44 L507.15 82.56 M496.57 76.42 L497.23 75.95 L507.17 81.75 L507.17 82.56 L496.57 76.42 M515.98 75.58 L507.45 80.51 L507.46 79.7 L515.98 74.79 L515.98 75.58 M477.26 75.03 L476.56 75.5 L476.56 61.46 L477.26 61.93 L477.26 75.03 M487.18 56.15 L477.23 61.92 L476.56 61.46 L487.19 55.34 L487.18 56.15 M497.11 61.95 L487.17 56.15 L487.17 55.34 L497.77 61.49 L497.11 61.95 M486.88 58.2 L478.36 63.12 L478.37 62.33 L486.89 57.39 L486.88 58.2 M363.51 173.15 C363.51 175.65 361.48 177.68 358.98 177.68 C356.47 177.68 354.44 175.65 354.44 173.15 C354.44 170.64 356.47 168.61 358.98 168.61 C361.48 168.61 363.51 170.64 363.51 173.15 "/>
  <path style="fill:rgb(255,255,255);stroke:none;stroke-width:1.0;" d="M358.79 171.8 L358.79 174.81 L359.4 174.81 C359.93 174.81 360.34 174.67 360.64 174.4 C360.94 174.13 361.09 173.75 361.09 173.27 C361.09 172.78 360.94 172.41 360.63 172.17 C360.32 171.92 359.92 171.8 359.42 171.8 L358.79 171.8 ZM358.25 175.25 L358.25 171.35 L359.44 171.35 C360.08 171.35 360.61 171.52 361.03 171.87 C361.45 172.21 361.66 172.67 361.66 173.25 C361.66 173.86 361.45 174.34 361.03 174.71 C360.61 175.07 360.06 175.25 359.4 175.25 L358.25 175.25 "/>
  <path style="fill:rgb(255,255,255);stroke:none;stroke-width:1.0;" d="M357.48 175.26 L356.94 175.26 L356.94 171.36 L357.48 171.36 L357.48 175.26 "/>
  <path style="fill:rgb(255,255,255);stroke:none;stroke-width:1.0;" d="M357.57 170.71 C357.57 170.9 357.42 171.05 357.23 171.05 C357.04 171.05 356.89 170.9 356.89 170.71 C356.89 170.52 357.04 170.37 357.23 170.37 C357.42 170.37 357.57 170.52 357.57 170.71 "/>
  <g begin="text">
   <text y="177.683" x="363.513,366.003,368.494,376.793,382.88,387.862,393.949,397.266,400.584,405.564,408.056,414.701" svgx:width="0.25,0.55,0.83,0.61,0.5,0.61,0.33,0.33,0.5,0.55,0.67,0.61" style="fill:rgb(0,0,0);font-family:URWPalladioL-Bold;font-size:9.96px;stroke:none;">, Duanjie Xu</text>
   <text y="174.066" x="423.278" svgx:width="0.5" style="fill:rgb(0,0,0);font-family:URWPalladioL-Bold;font-size:7.57px;stroke:none;">1</text>
   <text y="177.683" x="427.562,430.052,432.543,442.506,445.823,451.911,457.45,461.873,466.855,472.9306,475.432,485.395,488.712,493.694" svgx:width="0.25,0.55,1.0,0.33,0.61,0.56,0.44,0.5,0.61,0.55,1.0,0.33,0.5,0.56" style="fill:rgb(0,0,0);font-family:URWPalladioL-Bold;font-size:9.96px;stroke:none;">, Mingsan Miao</text>
   <text y="174.066" x="501.724,506.01" svgx:width="0.5,0.25" style="fill:rgb(0,0,0);font-family:URWPalladioL-Bold;font-size:7.57px;stroke:none;">1,</text>
   <text y="177.683" x="508.399,512.822" svgx:width="0.44,0.25" style="fill:rgb(0,0,0);font-family:URWPalladioL-Bold;font-size:9.96px;stroke:none;">*,</text>
   <text y="191.192" x="76.535,82.622,87.603,93.67859999999999,96.181,104.48" svgx:width="0.61,0.5,0.61,0.55,0.83,0.5" style="fill:rgb(0,0,0);font-family:URWPalladioL-Bold;font-size:9.96px;stroke:none;">Lan He</text>
   <text y="187.576" x="111.952,116.237" svgx:width="0.5,0.25" style="fill:rgb(0,0,0);font-family:URWPalladioL-Bold;font-size:7.57px;stroke:none;">2,</text>
   <text y="191.192" x="118.627,123.0094,125.541,130.522,136.609,142.68460000000002,145.187,151.832,155.15,160.131,166.218,171.757,176.739,180.056,185.038,191.125,196.7026,199.155,208.38" svgx:width="0.44,0.55,0.5,0.61,0.61,0.55,0.67,0.33,0.5,0.61,0.56,0.5,0.33,0.5,0.61,0.56,0.55,1.0,0.61" style="fill:rgb(0,0,0);font-family:URWPalladioL-Bold;font-size:9.96px;stroke:none;">* and Xiangxiang Wu</text>
   <text y="187.576" x="216.958,221.243" svgx:width="0.5,0.25" style="fill:rgb(0,0,0);font-family:URWPalladioL-Bold;font-size:7.57px;stroke:none;">1,</text>
   <text y="191.192" x="223.633" svgx:width="0.44" style="fill:rgb(0,0,0);font-family:URWPalladioL-Bold;font-size:9.96px;stroke:none;">*</text>
   <text y="206.02" x="82.205" svgx:width="0.5" style="fill:rgb(0,0,0);font-family:URWPalladioL-Roma;font-size:6.97px;stroke:none;">1</text>
   <text y="209.274" x="97.398,104.374,108.355,112.838,118.317,122.612,130.529,135.5522,137.756,142.651,145.61110000000002,147.879,154.236,159.454,162.064,167.282,171.577,175.379,179.6846,181.915,190.398,194.692,200.171,202.78,206.761,209.37,214.589,218.884,221.1265,223.367,230.827,235.122,240.34,244.824,250.0266,252.284,259.259,264.478,267.087,272.153,276.448,279.99,283.792,286.401,289.324,294.3472,296.551,301.446,304.40610000000004,306.674,313.031,318.249,320.859,326.077,330.372,334.174,338.4796,340.71,349.192,353.487,358.966,361.575,365.556,368.165,373.384,377.679,379.9215,382.162,388.142,393.361,397.656,402.874,407.86,412.343,417.561,422.457,427.839,430.105,434.588,439.072,443.555,448.038,452.521,457.005,459.2475,461.488,468.948,473.234,478.452,482.935,488.154,490.3965,492.637,498.994,504.213,506.822,512.04,516.523" svgx:width="0.78,0.44,0.5,0.61,0.48,0.88,0.56,0.55,0.55,0.33,0.55,0.71,0.58,0.29,0.58,0.48,0.42,0.48,0.55,0.95,0.48,0.61,0.29,0.44,0.29,0.58,0.48,0.25,0.55,0.83,0.48,0.58,0.5,0.58,0.55,0.78,0.58,0.29,0.56,0.48,0.4,0.42,0.29,0.33,0.56,0.55,0.55,0.33,0.55,0.71,0.58,0.29,0.58,0.48,0.42,0.48,0.55,0.95,0.48,0.61,0.29,0.44,0.29,0.58,0.48,0.25,0.55,0.67,0.58,0.48,0.58,0.56,0.5,0.58,0.55,0.6,0.55,0.5,0.5,0.5,0.5,0.5,0.5,0.25,0.55,0.83,0.48,0.58,0.5,0.58,0.25,0.55,0.71,0.58,0.29,0.58,0.5,0.25" style="fill:rgb(0,0,0);font-family:URWPalladioL-Roma;font-size:8.97px;stroke:none;">Academy of Chinese Medicine, Henan University of Chinese Medicine, Zhengzhou 450046, Henan, China;</text>
   <text y="221.379" x="97.447,102.665,107.884,112.367,116.662,121.88,126.866,133.564,138.782,143.265,147.246,150.169,154.151,162.068,164.309,168.604,174.083,179.49,181.731,185.712,190.91459999999998,193.172,196.158,203.618,205.86,211.84,214.082,217.068,219.31050000000002,221.551,226.572,229.181,233.665,238.56,240.658,243.268,248.486,253.471,258.457,261.066,265.549,270.032,274.516,281.213,285.697,290.18,294.663,296.905,300.886,305.781,315.94,318.926,321.912,324.154,331.201,333.443,336.429,338.6715,340.912,345.538,350.945,356.424,361.83,366.314,371.532,373.63,376.239,380.534,385.018,389.501,393.984,400.682,405.165,409.648,414.131,416.373,420.354,425.25,435.409,438.395,445.335,447.576,453.557,455.798" svgx:width="0.58,0.58,0.5,0.48,0.58,0.56,0.75,0.58,0.5,0.44,0.33,0.44,0.88,0.25,0.48,0.61,0.6,0.25,0.44,0.58,0.55,0.33,0.83,0.25,0.67,0.25,0.33,0.25,0.55,0.56,0.29,0.5,0.55,0.23,0.29,0.58,0.56,0.56,0.29,0.5,0.5,0.5,0.75,0.5,0.5,0.5,0.25,0.44,0.55,0.88,0.33,0.33,0.25,0.79,0.25,0.33,0.25,0.55,0.52,0.6,0.61,0.6,0.5,0.58,0.23,0.29,0.48,0.5,0.5,0.5,0.75,0.5,0.5,0.5,0.25,0.44,0.55,0.88,0.33,0.77,0.25,0.67,0.25,0.33" style="fill:rgb(0,0,0);font-family:URWPalladioL-Roma;font-size:8.97px;stroke:none;">hhzeng@hactcm.edu.cn (H.Z.); qiaojingyi618@126.com(J.Q.); xuduanjie123@163.com(D.X.)</text>
   <text y="230.229" x="82.205" svgx:width="0.5" style="fill:rgb(0,0,0);font-family:URWPalladioL-Roma;font-size:6.97px;stroke:none;">2</text>
   <text y="233.484" x="97.398,104.849,109.332,112.255,114.865,119.76,124.979,129.462,132.0633,134.313,137.334,142.553,146.355,149.278,151.887,154.81,160.217,163.14,167.435,171.2024,173.478,176.464,181.359,184.947,187.143,192.128,197.024,201.919,207.3907,209.639,214.123,219.341,224.8127,227.061,234.001,237.471,242.878,247.9012,250.105,256.462,261.358,266.576,269.499,272.879,277.775,280.384,282.6265,284.868,290.346,294.641,297.25,299.348,301.957,307.176,312.19919999999996,314.403,318.886,323.369,327.852,332.336,336.819,341.302,343.5445,345.785,352.143,357.361,359.97,365.189,369.672,371.91450000000003,374.155,378.782,381.391,386.287,391.505,396.49,398.588,401.198,406.416,411.401,418.099,423.318,425.927,428.913,434.391,438.372,440.614,445.51,448.89,453.875,456.117,460.098" svgx:width="0.83,0.5,0.33,0.29,0.55,0.58,0.5,0.29,0.55,0.34,0.58,0.42,0.33,0.29,0.33,0.6,0.33,0.48,0.42,0.55,0.33,0.55,0.4,0.55,0.56,0.55,0.55,0.61,0.55,0.5,0.58,0.61,0.55,0.77,0.4,0.6,0.56,0.55,0.71,0.55,0.58,0.33,0.4,0.55,0.29,0.25,0.55,0.61,0.48,0.29,0.23,0.29,0.58,0.56,0.55,0.5,0.5,0.5,0.5,0.5,0.5,0.25,0.55,0.71,0.58,0.29,0.58,0.5,0.25,0.55,0.52,0.29,0.55,0.58,0.56,0.23,0.29,0.58,0.56,0.75,0.58,0.29,0.33,0.61,0.44,0.25,0.55,0.4,0.56,0.25,0.44,0.58" style="fill:rgb(0,0,0);font-family:URWPalladioL-Roma;font-size:8.97px;stroke:none;">National Institutes for Food and Drug Control, Beijing 102629, China; xiongjing@nifdc.org.cn</text>
   <text y="242.334" x="82.205" svgx:width="0.5" style="fill:rgb(0,0,0);font-family:URWPalladioL-Roma;font-size:6.97px;stroke:none;">3</text>
   <text y="245.588" x="97.398,104.239,109.646,114.129,119.348,124.333,128.96,131.56130000000002,133.811,136.832,142.051,145.852,148.775,151.385,154.308,159.714,162.638,166.9436,169.174,172.16,177.056,180.644,182.839,187.824,192.72,197.615,203.0867,205.336,209.819,215.037,220.5087,222.757,229.697,233.167,238.574,243.59720000000002,245.801,252.158,257.054,262.272,265.195,268.576,273.471,276.08,278.3225,280.564,288.015,292.498,297.716,302.935,305.544,310.762,315.7852,317.989,322.473,326.956,331.439,335.922,340.405,344.889,347.1315,349.372,356.213,361.62,366.103,371.322,376.307,380.934,383.543,385.7855,388.026,394.383,399.602,402.211,407.429,411.913,414.1555,416.396,421.381,425.676,430.661,436.05,440.345,443.887,447.688,452.584,457.803,462.286,464.895,469.378,473.861,480.559,484.361,486.97,492.189,496.672,498.914,502.886,507.781" svgx:width="0.76,0.6,0.5,0.58,0.56,0.52,0.29,0.55,0.34,0.58,0.42,0.33,0.29,0.33,0.6,0.33,0.48,0.55,0.33,0.55,0.4,0.55,0.56,0.55,0.55,0.61,0.55,0.5,0.58,0.61,0.55,0.77,0.4,0.6,0.56,0.55,0.71,0.55,0.58,0.33,0.4,0.55,0.29,0.25,0.55,0.83,0.5,0.58,0.58,0.29,0.58,0.56,0.55,0.5,0.5,0.5,0.5,0.5,0.5,0.25,0.55,0.76,0.6,0.5,0.58,0.56,0.52,0.29,0.25,0.55,0.71,0.58,0.29,0.58,0.5,0.25,0.55,0.56,0.48,0.56,0.6,0.48,0.4,0.42,0.55,0.58,0.5,0.29,0.5,0.5,0.75,0.42,0.29,0.58,0.5,0.25,0.44,0.55,0.88" style="fill:rgb(0,0,0);font-family:URWPalladioL-Roma;font-size:8.97px;stroke:none;">Guangxi Institute for Food and Drug Control, Nanning 530021, Guangxi, China; keypersonal_1@sina.com</text>
   <text y="257.693" x="81.407" svgx:width="0.44" style="fill:rgb(0,0,0);font-family:URWPalladioL-Bold;font-size:8.97px;stroke:none;">*</text>
   <text y="257.693" x="97.447,103.753,108.61,112.123,115.477,119.737,123.508,128.854,133.711,138.887,144.322,148.582,153.759,157.708,161.969,164.2115,167.332,175.186,177.775,182.222,187.079,194.933,197.521,202.698,207.643,211.414,215.862,221.038,227.683,232.13,236.577,241.025,243.248,247.198,252.054,262.15,265.111,273.526,275.749,284.164,286.388,289.349,291.5915,293.815,298.991,303.252,305.84,310.287,315.464,319.911,324.359,328.806,333.253,339.898,344.345,346.925,349.513,354.458,359.822,364.999,367.222,371.171,376.028,386.123,389.085,394.52,396.744,404.144,406.368,409.33,411.5725,413.795,421.213,426.576,431.166,435.756,438.718,443.165,447.612,452.06,458.704,463.151,467.598,472.046,474.269,478.219,483.075,493.171,496.133,502.065,504.289,512.365,514.589,517.551" svgx:width="0.71,0.55,0.4,0.4,0.48,0.42,0.6,0.55,0.58,0.61,0.48,0.58,0.44,0.48,0.25,0.55,0.88,0.29,0.5,0.55,0.88,0.29,0.58,0.56,0.42,0.5,0.58,0.75,0.5,0.5,0.5,0.25,0.44,0.55,0.88,0.33,0.95,0.25,0.95,0.25,0.33,0.25,0.55,0.58,0.48,0.29,0.5,0.58,0.5,0.5,0.5,0.5,0.75,0.5,0.29,0.29,0.56,0.6,0.58,0.25,0.44,0.55,0.88,0.33,0.61,0.25,0.83,0.25,0.33,0.25,0.55,0.83,0.6,0.52,0.52,0.33,0.5,0.5,0.5,0.75,0.5,0.5,0.5,0.25,0.44,0.55,0.88,0.33,0.67,0.25,1.0,0.25,0.33,0.25" style="fill:rgb(0,0,0);font-family:URWPalladioL-Roma;font-size:8.97px;stroke:none;">Correspondence: miaomingsan@163.com(M.M.); helan1961@aliyun.com(L.H.); wuxx-415@126.com(X.W.);</text>
   <text y="269.798" x="97.169,101.84,106.135,108.745,110.986" svgx:width="0.61,0.48,0.29,0.25,0.25" style="fill:rgb(0,0,0);font-family:URWPalladioL-Roma;font-size:8.97px;stroke:none;">Tel.:</text>
   <text y="269.798" x="115.47" svgx:width="0.67" style="fill:rgb(0,0,0);font-family:Rpxr;font-size:8.97px;stroke:none;">+</text>
   <text y="269.798" x="121.468,125.951,130.434,133.42,137.903,142.387,146.87,149.856,154.339,158.822,163.305,167.788,172.272,176.755,181.238,185.723,187.963,190.949,199.431,201.672,210.155,212.396,215.382" svgx:width="0.5,0.5,0.33,0.5,0.5,0.5,0.33,0.5,0.5,0.5,0.5,0.5,0.5,0.5,0.5,0.55,0.33,0.95,0.25,0.95,0.25,0.33,0.25" style="fill:rgb(0,0,0);font-family:URWPalladioL-Roma;font-size:8.97px;stroke:none;">86-371-65962546 (M.M.);</text>
   <text y="269.798" x="219.865" svgx:width="0.67" style="fill:rgb(0,0,0);font-family:Rpxr;font-size:8.97px;stroke:none;">+</text>
   <text y="269.798" x="225.863,230.346,234.829,237.815,242.298,246.782,249.767,254.251,258.734,263.217,267.7,272.183,276.667,281.15,285.635,287.875,290.861,296.339,298.581,306.041,308.282,311.268" svgx:width="0.5,0.5,0.33,0.5,0.5,0.33,0.5,0.5,0.5,0.5,0.5,0.5,0.5,0.5,0.55,0.33,0.61,0.25,0.83,0.25,0.33,0.25" style="fill:rgb(0,0,0);font-family:URWPalladioL-Roma;font-size:8.97px;stroke:none;">86-10-67095301 (L.H.);</text>
   <text y="269.798" x="315.751" svgx:width="0.67" style="fill:rgb(0,0,0);font-family:Rpxr;font-size:8.97px;stroke:none;">+</text>
   <text y="269.798" x="321.75,326.233,330.716,333.702,338.185,342.669,347.152,350.138,354.621,359.104,363.587,368.07,372.554,377.037,381.52,386.005,388.245,391.231,397.211,399.453,407.594,409.836" svgx:width="0.5,0.5,0.33,0.5,0.5,0.5,0.33,0.5,0.5,0.5,0.5,0.5,0.5,0.5,0.5,0.55,0.33,0.67,0.25,1.0,0.25,0.33" style="fill:rgb(0,0,0);font-family:URWPalladioL-Roma;font-size:8.97px;stroke:none;">86-371-65680206 (X.W.)</text>
   <text y="281.902" x="82.205" svgx:width="0.5" style="fill:rgb(0,0,0);font-family:Pxsy;font-size:8.97px;stroke:none;">†</text>
   <text y="281.902" x="97.447,102.943,108.162,112.457,116.259,120.5646,122.795,127.278,132.685,135.608,140.826,145.722,149.264,153.03140000000002,155.307,159.288,164.184,169.402,172.325,175.867,178.476,183.435,188.842,191.765,196.059,201.5307,203.78,208.074,213.096,218.502,222.986,225.595,228.204,232.194" svgx:width="0.61,0.58,0.48,0.42,0.48,0.55,0.5,0.6,0.33,0.58,0.55,0.4,0.42,0.55,0.44,0.55,0.58,0.33,0.4,0.29,0.55,0.6,0.33,0.48,0.61,0.55,0.48,0.56,0.6,0.5,0.29,0.29,0.56,0.25" style="fill:rgb(0,0,0);font-family:URWPalladioL-Roma;font-size:8.97px;stroke:none;">These authors contributed equally.</text>
   <text y="307.906" x="82.205,88.195,92.489,96.471,100.765,103.375,108.441,112.736,118.214,120.4565,123.594,128.079,130.319,137.366,141.347,144.27,149.166,154.124,158.419,162.007,164.203,168.686,173.169,177.652,182.136,184.3785,186.619,193.595,197.576,201.557,205.852,211.24,214.164,218.458,223.937,226.17950000000002,229.317,233.8,238.28500000000003,240.525,247.572,251.553,254.476,259.372,264.331,268.625,272.213,274.409,278.892,283.375,287.858,292.342,294.5845,296.825,302.241,307.647,312.606,315.215,317.824,321.626,326.844,331.139,336.618,338.8605,341.998,346.481,350.966,353.206,360.253,364.234,367.157,372.053,377.011,381.306,384.894,387.09,391.573,396.056,400.539" svgx:width="0.67,0.48,0.44,0.48,0.29,0.56,0.48,0.61,0.25,0.55,0.5,0.55,0.79,0.44,0.33,0.55,0.55,0.48,0.4,0.55,0.5,0.5,0.5,0.5,0.25,0.55,0.78,0.44,0.44,0.48,0.6,0.33,0.48,0.61,0.25,0.55,0.5,0.5,0.55,0.79,0.44,0.33,0.55,0.55,0.48,0.4,0.55,0.5,0.5,0.5,0.5,0.25,0.55,0.6,0.6,0.55,0.29,0.29,0.42,0.58,0.48,0.61,0.25,0.55,0.5,0.5,0.55,0.79,0.44,0.33,0.55,0.55,0.48,0.4,0.55,0.5,0.5,0.5,0.5" style="fill:rgb(0,0,0);font-family:URWPalladioL-Roma;font-size:8.97px;stroke:none;">Received: 5 October 2019; Accepted: 26 October 2019; Published: 31 October 2019</text>
  </g>
  <path style="fill:rgb(255,207,0);stroke:none;stroke-width:1.0;" d="M477.39 304.33 L475.25 306.47 L469.5 300.71 L471.64 298.57 L475.25 302.18 L482.59 294.85 C481.08 292.89 478.7 291.62 476.03 291.62 C471.45 291.62 467.74 295.33 467.74 299.91 C467.74 304.49 471.45 308.2 476.03 308.2 C480.61 308.2 484.32 304.49 484.32 299.91 C484.32 299.15 484.21 298.4 484.02 297.7 L477.39 304.33 "/>
  <g begin="text">
   <text y="298.983" code="1" x="487.076,490.658,494.948,498.979,502.561,506.671,508.458,510.68,514.915" svgx:width="0.46,0.54,0.5,0.46,0.5,0.2,0.29,0.54,0.35" style="fill:rgb(4,5,8);font-family:SourceSansRoman-Regular;font-size:7.87px;stroke:none;">?????????</text>
   <text y="298.983" code="1" x="517.85" svgx:width="0.2" style="fill:rgb(4,5,8);font-family:SourceSansRoman.613wght;font-size:6.99px;stroke:none;">?</text>
   <text y="306.133" code="1" x="487.076,491.858,496.861,501.682,506.142,509.467,514.071" svgx:width="0.57,0.57,0.57,0.53,0.38,0.52,0.44" style="fill:rgb(4,5,8);font-family:SourceSansRoman-Bold;font-size:7.87px;stroke:none;">???????</text>
  </g>
  <g begin="text">
   <text y="332.039" x="81.816,89.567,95.654,100.077,103.395,107.27,112.252,116.675,119.993" svgx:width="0.78,0.61,0.44,0.33,0.39,0.5,0.44,0.33,0.25" style="fill:rgb(0,0,0);font-family:URWPalladioL-Bold;font-size:9.96px;stroke:none;">Abstract:</text>
   <text y="332.039" x="125.992,132.062,137.826,141.559,146.303,151.0838,153.542,157.939,163.345,166.643,169.941,175.348,179.259,188.003,192.747,196.659,200.8422,203.363,208.77,212.0568,214.573,219.524,222.822,227.219,232.982,235.864,241.271,245.004,250.411,253.709,258.66,261.958,267.721,270.603,273.821,277.555,282.962,287.913,293.677,296.558,299.44,302.322,308.085,312.8658,315.334,318.632,325.653,333.882,341.586,344.884,347.374,349.865,354.817,357.292,362.244,365.541,371.592,374.474,380.237,385.743,391.794,395.517,400.924,406.034,411.54,417.016,421.76,427.523,432.475,437.882,440.763,445.1454,447.665,452.617,457.014,459.895,465.9706,468.452,471.749,479.414,487.653,493.704,497.001,499.491,501.973,506.924,512.687" svgx:width="0.61,0.58,0.4,0.48,0.48,0.55,0.44,0.55,0.33,0.33,0.55,0.4,0.88,0.48,0.4,0.42,0.55,0.55,0.33,0.55,0.5,0.33,0.44,0.58,0.29,0.55,0.4,0.55,0.33,0.5,0.33,0.58,0.29,0.33,0.4,0.55,0.5,0.58,0.29,0.29,0.29,0.58,0.48,0.55,0.33,0.71,0.83,0.78,0.33,0.25,0.55,0.5,0.25,0.5,0.33,0.61,0.29,0.58,0.56,0.61,0.4,0.55,0.52,0.56,0.55,0.48,0.58,0.5,0.55,0.29,0.44,0.55,0.5,0.44,0.29,0.61,0.55,0.33,0.77,0.83,0.61,0.33,0.25,0.55,0.5,0.58,0.61" style="fill:rgb(0,0,0);font-family:URWPalladioL-Roma;font-size:9.96px;stroke:none;">Three co-formers of 2-chloro-4-nitroaniline (CNA), 2,5-dihydroxybenzoic acid (DHB), and</text>
   <text y="345.548" x="82.205,87.107,89.557" svgx:width="0.5,0.25,0.5" style="fill:rgb(0,0,0);font-family:URWPalladioL-Roma;font-size:9.96px;stroke:none;">4,4</text>
   <text y="341.932" code="48" x="94.459" svgx:width="0.37" style="fill:rgb(0,0,0);font-family:Pxsy;font-size:7.57px;stroke:none;">?</text>
   <text y="345.548" x="97.72,100.984,106.406,109.258,115.15,120.856,125.551,131.257,136.609,139.4974,141.942,145.207,152.794,160.5,168.087,171.3738,173.832,182.008,186.704,190.399,195.1798,197.566,201.722,206.418,209.271,213.966,218.319,221.515,226.211,232.28660000000002,234.681,237.876,243.354,245.709,251.601,255.297,259.992,265.884,270.786,274.482,279.2628,281.657,284.853,290.559,295.3398,297.725,302.078,307.43,310.695,315.047,318.919,324.37,328.527,331.722,336.624,339.5124,341.957,347.309,350.59580000000005,353.054,358.946,362.642,367.994,373.445,378.141,382.297,385.493,390.189,393.884,399.237,404.942,409.7228,412.118,415.383,421.304,427.853,435.558,443.038,446.32480000000004,448.773,454.194,459.095,463.252,467.948,474.0236,476.418,481.77,487.54679999999996,489.956,494.308,498.181,503.631,507.788,510.984,515.885" svgx:width="0.33,0.55,0.29,0.6,0.58,0.48,0.58,0.55,0.29,0.55,0.33,0.77,0.79,0.77,0.33,0.55,0.83,0.48,0.4,0.48,0.55,0.42,0.48,0.29,0.48,0.44,0.33,0.48,0.61,0.55,0.33,0.55,0.55,0.6,0.4,0.48,0.6,0.5,0.4,0.48,0.55,0.33,0.58,0.48,0.55,0.44,0.55,0.33,0.44,0.4,0.56,0.42,0.33,0.5,0.29,0.55,0.55,0.33,0.55,0.6,0.4,0.55,0.56,0.48,0.42,0.33,0.48,0.4,0.55,0.58,0.48,0.55,0.33,0.6,0.67,0.79,0.76,0.33,0.55,0.55,0.5,0.42,0.48,0.61,0.55,0.55,0.58,0.55,0.44,0.4,0.56,0.42,0.33,0.5,0.29" style="fill:rgb(0,0,0);font-family:URWPalladioL-Roma;font-size:9.96px;stroke:none;">-biphenol (DOD) were selected to prepare the co-crystal of progesterone (PROG) based on crystal</text>
   <text y="359.058" x="82.205,87.073,92.987,98.637,101.594,107.508,112.376,117.243,121.257,124.214,130.128,135.70559999999998,139.223,143.532,146.845,150.858,155.939,159.252,164.12,169.77,172.727,177.594,181.903,184.393,190.815,197.044,202.958,207.826,212.134,216.91479999999999,220.447,224.959,230.507,233.891,238.403,242.417,248.067,252.375,255.688,260.769,263.726,267.9092,271.49,279.965,284.832,288.663,293.4438,296.986,301.294,307.422,311.934,316.446,321.303,325.612,329.92,333.304,339.432,342.389,345.346,350.9236,354.451,359.999,365.619,368.932,374.013,376.97,382.884,387.751,393.8266,397.405,403.147,406.104,411.084,414.64,418.948,421.905,427.454,435.7208,439.374,444.241,449.983,455.064,461.171,466.719,470.733,475.814,479.127,482.084,487.632,493.4088,497.001,500.385,504.216,509.765" svgx:width="0.48,0.58,0.56,0.29,0.58,0.48,0.48,0.4,0.29,0.58,0.56,0.55,0.42,0.33,0.4,0.5,0.33,0.48,0.56,0.29,0.48,0.42,0.25,0.55,0.61,0.58,0.48,0.42,0.48,0.55,0.44,0.55,0.33,0.44,0.4,0.56,0.42,0.33,0.5,0.29,0.42,0.55,0.83,0.48,0.4,0.48,0.55,0.42,0.6,0.44,0.44,0.48,0.42,0.42,0.33,0.6,0.29,0.29,0.56,0.55,0.55,0.55,0.33,0.5,0.29,0.58,0.48,0.61,0.55,0.56,0.29,0.5,0.55,0.42,0.29,0.55,0.83,0.55,0.48,0.56,0.5,0.6,0.55,0.4,0.5,0.33,0.29,0.55,0.58,0.55,0.33,0.4,0.55,0.88" style="fill:rgb(0,0,0);font-family:URWPalladioL-Roma;font-size:9.96px;stroke:none;">engineering strategies. These co-crystals were successfully obtained via slow evaporation from</text>
   <text y="372.567" x="82.205,88.341" svgx:width="0.61,0.29" style="fill:rgb(0,0,0);font-family:URWPalladioL-Roma;font-size:9.96px;stroke:none;">di</text>
   <text y="372.567" x="91.263" svgx:width="0.61" style="fill:rgb(0,0,0);font-family:Rpxr;font-size:9.96px;stroke:none;">ﬀ</text>
   <text y="372.567" x="97.368,102.178,105.964,110.774,116.619,119.9058,122.383,126.641,132.124,135.047,141.102,144.376,147.298,152.781,158.626,162.8092,165.364,170.386,176.23,182.3056,184.857,193.232,198.042,201.828,206.6088,209.119,213.577,219.422,224.443,228.41,233.431,237.89,241.164,245.974,249.941,252.863,257.884,262.694,268.7696,271.321,276.874,282.45160000000004,284.938,289.196,292.118,297.963,303.546,306.469,311.279,314.623,319.082,323.049,328.632,332.89,336.164,341.185,344.0734,346.598,353.296,356.64,360.607,365.628,371.2056,373.692,379.828" svgx:width="0.48,0.4,0.48,0.58,0.33,0.55,0.42,0.55,0.29,0.6,0.33,0.29,0.55,0.58,0.42,0.55,0.5,0.58,0.61,0.55,0.83,0.48,0.4,0.48,0.55,0.44,0.58,0.5,0.4,0.5,0.44,0.33,0.48,0.4,0.29,0.5,0.48,0.61,0.55,0.55,0.56,0.55,0.42,0.29,0.58,0.56,0.29,0.48,0.33,0.44,0.4,0.56,0.42,0.33,0.5,0.29,0.55,0.67,0.33,0.4,0.5,0.56,0.55,0.61,0.29" style="fill:rgb(0,0,0);font-family:URWPalladioL-Roma;font-size:9.96px;stroke:none;">erent solutions and were characterized by single-crystal X-ray di</text>
   <text y="372.567" x="382.755" svgx:width="0.61" style="fill:rgb(0,0,0);font-family:Rpxr;font-size:9.96px;stroke:none;">ﬀ</text>
   <text y="372.567" x="388.86,392.827,397.848,402.307,405.58,408.503,413.986,419.76279999999997,422.321,426.579,432.614,437.425,441.883,445.157,448.943,454.426,458.684,463.143,468.626,474.661,479.14,481.63,484.131,490.167,495.65,504.025,510.161,514.971" svgx:width="0.4,0.5,0.44,0.33,0.29,0.55,0.58,0.55,0.42,0.6,0.48,0.44,0.33,0.4,0.55,0.42,0.44,0.55,0.6,0.56,0.25,0.55,0.6,0.55,0.83,0.61,0.48,0.4" style="fill:rgb(0,0,0);font-family:URWPalladioL-Roma;font-size:9.96px;stroke:none;">raction spectroscopy, powder</text>
   <text y="386.076" x="81.876,88.488,91.789,95.704,100.661,106.2386,108.66,114.717" svgx:width="0.67,0.33,0.4,0.5,0.56,0.55,0.61,0.29" style="fill:rgb(0,0,0);font-family:URWPalladioL-Roma;font-size:9.96px;stroke:none;">X-ray di</text>
   <text y="386.076" x="117.598" svgx:width="0.61" style="fill:rgb(0,0,0);font-family:Rpxr;font-size:9.96px;stroke:none;">ﬀ</text>
   <text y="386.076" x="123.625,127.541,132.497,136.898,140.13,143.014,148.427,154.196,156.686,159.162,162.503,169.1762,171.603,175.806,181.763,186.512,190.913,194.145,197.882,203.294,207.497,211.898,217.311,223.268,227.68,230.17000000000002,232.636,237.592,243.362,249.4376,251.906,257.963" svgx:width="0.4,0.5,0.44,0.33,0.29,0.55,0.58,0.25,0.55,0.34,0.67,0.55,0.42,0.6,0.48,0.44,0.33,0.4,0.55,0.42,0.44,0.55,0.6,0.56,0.25,0.55,0.5,0.58,0.61,0.55,0.61,0.29" style="fill:rgb(0,0,0);font-family:URWPalladioL-Roma;font-size:9.96px;stroke:none;">raction, IR spectroscopy, and di</text>
   <text y="386.076" x="260.848" svgx:width="0.61" style="fill:rgb(0,0,0);font-family:Rpxr;font-size:9.96px;stroke:none;">ﬀ</text>
   <text y="386.076" x="266.875,271.623,275.36,280.109,285.878,289.109,291.994,296.95,299.8384,302.313,306.516,310.918,315.874,321.643,327.412,330.297,336.066,341.6436,344.066,348.467,353.424,356.308,361.721,365.636,368.521,377.274,382.022,385.254,389.169,393.57,396.06,399.538,407.21" svgx:width="0.48,0.4,0.48,0.58,0.33,0.29,0.5,0.29,0.55,0.42,0.44,0.5,0.58,0.58,0.29,0.58,0.56,0.55,0.44,0.5,0.29,0.55,0.4,0.29,0.88,0.48,0.33,0.4,0.56,0.25,0.55,0.77,0.29" style="fill:rgb(0,0,0);font-family:URWPalladioL-Roma;font-size:9.96px;stroke:none;">erential scanning calorimetry. Di</text>
   <text y="386.076" x="410.095" svgx:width="0.61" style="fill:rgb(0,0,0);font-family:Rpxr;font-size:9.96px;stroke:none;">ﬀ</text>
   <text y="386.076" x="416.122,420.87,424.607,429.356,435.125,438.4118,440.845,446.326,449.211,454.98,461.037,463.921,469.691,475.2686,477.68,483.45,488.198,491.43,499.697,505.109,509.025,514.536" svgx:width="0.48,0.4,0.48,0.58,0.33,0.55,0.55,0.29,0.58,0.61,0.29,0.58,0.56,0.55,0.58,0.48,0.33,0.83,0.55,0.4,0.56,0.42" style="fill:rgb(0,0,0);font-family:URWPalladioL-Roma;font-size:9.96px;stroke:none;">erent binding networks</text>
   <text y="399.586" x="81.786,90.062,94.815,98.555,103.3358,105.809,111.227,116.714,120.921,125.674,129.594,135.2,139.953,146.0286,148.516,151.404,157.1808,159.69,162.924,168.699,173.4798,175.953,180.359,185.776,189.081,193.486,197.406,202.923,207.13,210.365,215.326,218.21439999999998,220.714,224.922,228.156,231.997,237.98,242.386,245.621,251.604,255.345,260.098,264.2812,266.806,272.223,275.50980000000004,278.038,284.031,290.66,298.459,306.03,308.52,311.011,317.094,322.869,327.6498,330.123,336.116,342.744,350.544,358.115,361.419,368.454,376.7,384.4688,386.93,391.336,396.754,400.058,404.464,408.373,413.891,418.098,421.333,426.294,429.1824,431.692,437.467,442.428,448.5036,450.992,454.226,460.001,464.7818,467.255,470.559,475.521,479.728,482.963,487.716,491.923,495.20980000000003,497.668,501.588,506.549,509.784,514.537" svgx:width="0.83,0.48,0.4,0.48,0.55,0.55,0.55,0.42,0.48,0.4,0.56,0.48,0.61,0.55,0.29,0.58,0.55,0.33,0.58,0.48,0.55,0.44,0.55,0.33,0.44,0.4,0.56,0.42,0.33,0.5,0.29,0.55,0.42,0.33,0.4,0.6,0.44,0.33,0.6,0.4,0.48,0.42,0.55,0.55,0.33,0.55,0.6,0.67,0.79,0.76,0.25,0.55,0.61,0.58,0.48,0.55,0.6,0.67,0.79,0.76,0.33,0.71,0.83,0.78,0.55,0.44,0.55,0.33,0.44,0.4,0.56,0.42,0.33,0.5,0.29,0.55,0.58,0.5,0.61,0.55,0.33,0.58,0.48,0.55,0.33,0.5,0.42,0.33,0.48,0.42,0.33,0.55,0.4,0.5,0.33,0.48,0.42" style="fill:rgb(0,0,0);font-family:URWPalladioL-Roma;font-size:9.96px;stroke:none;">were observed in the co-crystal structures of PROG. The PROG-CNA co-crystal had the fastest rates</text>
   <text y="413.095" x="82.205,87.286,93.2,99.2756,101.96,107.874,110.831,116.481,122.395,127.263,131.571,134.8578,137.435,141.947,147.495,153.409,157.921,162.788,168.703,172.015,176.029,181.11,184.423,187.38,192.929,198.843,203.0262,205.702,211.25,214.5368,217.185,223.323,230.111,238.098,245.66760000000002,248.412,251.369,257.1458,259.834,265.972,272.181,277.36019999999996,280.066,284.375,289.923,292.88,299.008,302.321,305.278,310.826,316.6028,319.291,323.803,329.351,338.324,344.432,349.512,353.344,358.211,364.2866,366.981,375.456,378.413,381.726,387.5028,390.19,396.328,403.116,411.103,418.6726,421.408,426.956,430.94,433.52,439.069,442.382,448.296,453.163,457.147,459.728,464.24,469.788,473.172,477.684,481.698,487.348,491.656,494.969,500.05,503.007,507.1902,509.866,512.824" svgx:width="0.5,0.58,0.61,0.55,0.58,0.29,0.56,0.58,0.48,0.42,0.33,0.55,0.44,0.55,0.58,0.44,0.48,0.58,0.33,0.4,0.5,0.33,0.29,0.55,0.58,0.42,0.55,0.55,0.33,0.55,0.6,0.67,0.79,0.76,0.55,0.29,0.58,0.55,0.6,0.61,0.52,0.55,0.42,0.55,0.29,0.6,0.33,0.29,0.55,0.58,0.55,0.44,0.55,0.88,0.6,0.5,0.4,0.48,0.61,0.55,0.83,0.29,0.33,0.58,0.55,0.6,0.67,0.79,0.76,0.55,0.55,0.4,0.55,0.55,0.33,0.58,0.48,0.4,0.55,0.44,0.55,0.33,0.44,0.4,0.56,0.42,0.33,0.5,0.29,0.42,0.55,0.29,0.58" style="fill:rgb(0,0,0);font-family:URWPalladioL-Roma;font-size:9.96px;stroke:none;">and highest concentrations of PROG in PBS solution compared with PROG or other co-crystals in</text>
   <text y="426.605" x="82.205,85.518,91.432,96.2128,99.013,105.222,108.179,112.487,116.796,122.344,125.301,131.429,134.742,137.699,143.247,149.02380000000002,151.864,156.732,161.976,168.083,172.95,176.964,179.921,188.894,193.762,199.676,202.989,207.297,209.787,213.984,220.213,226.127,229.084,233.2672,236.106,245.079,248.036,253.686,259.6,262.88680000000005,265.626,271.246,276.0268,278.827,283.908,287.22,290.533,294.547,297.504,303.124,309.251,312.564,317.645,323.264,326.222,331.0028,333.792,337.105,342.583,345.367,354.339,359.888,363.719,368.4998,371.3,375.608,378.921,384.002,389.621,392.578,397.3588,400.159,405.24,411.154,417.2296,420.076,425.157,430.777,436.905,442.819,449.028,454.109,460.023,463.30980000000005,466.039,468.996,474.91,478.223,483.09,487.104,492.185,496.697,500.01,502.967,508.515,514.429" svgx:width="0.33,0.58,0.48,0.55,0.61,0.29,0.42,0.42,0.55,0.29,0.6,0.33,0.29,0.55,0.58,0.55,0.48,0.52,0.6,0.48,0.4,0.29,0.88,0.48,0.58,0.33,0.42,0.25,0.55,0.61,0.58,0.29,0.42,0.55,0.88,0.29,0.56,0.58,0.33,0.55,0.55,0.48,0.55,0.5,0.33,0.33,0.4,0.29,0.55,0.6,0.33,0.5,0.55,0.29,0.48,0.55,0.33,0.55,0.55,0.88,0.55,0.4,0.48,0.55,0.42,0.33,0.5,0.55,0.29,0.48,0.55,0.5,0.58,0.61,0.55,0.5,0.55,0.6,0.58,0.61,0.5,0.58,0.33,0.55,0.29,0.58,0.33,0.48,0.4,0.5,0.44,0.33,0.29,0.55,0.58,0.42" style="fill:rgb(0,0,0);font-family:URWPalladioL-Roma;font-size:9.96px;stroke:none;">the dissolution experiments. This might be attributable to more stable and abundant interactions</text>
   <text y="440.114" x="82.205,87.604,92.281,95.464,103.606,108.283,112.96,118.73679999999999,120.878,124.06,129.743,134.5238,136.645,142.543,149.064,156.738,166.424,171.305,176.988,183.0636,185.189,192.111,200.224,210.046,218.667,223.998,226.839,231.516,235.851,241.738,244.579,249.256,253.396,255.886,259.234,266.908,272.795,276.779,278.888,281.729,287.411,292.927,297.604,301.744,304.927,307.768,313.196,318.078,321.261,324.102,329.433,335.115,339.2982,341.49,347.358,351.029,356.36,361.876,364.717,370.683,375.4638,377.595,383.463,388.794,392.933,395.774,398.957,401.798,407.315,412.0958,414.227,418.367,424.254,430.122,435.99,441.32,445.177,448.46380000000005,450.586,453.837,459.168,463.152,465.26,468.443,474.125,478.9058,481.038,485.177,489.854,492.695,497.372,501.707,504.89,507.731,513.062" svgx:width="0.55,0.48,0.33,0.83,0.48,0.48,0.58,0.55,0.33,0.58,0.48,0.55,0.6,0.67,0.79,0.76,0.5,0.58,0.61,0.55,0.71,0.83,0.78,0.88,0.55,0.29,0.48,0.44,0.6,0.29,0.48,0.42,0.25,0.55,0.79,0.6,0.4,0.55,0.29,0.58,0.56,0.48,0.42,0.33,0.29,0.56,0.5,0.33,0.29,0.55,0.58,0.42,0.55,0.6,0.4,0.55,0.56,0.29,0.61,0.48,0.55,0.6,0.55,0.42,0.29,0.33,0.29,0.56,0.48,0.55,0.42,0.6,0.6,0.6,0.55,0.4,0.33,0.55,0.33,0.55,0.4,0.55,0.33,0.58,0.48,0.55,0.42,0.48,0.29,0.48,0.44,0.33,0.29,0.55,0.58" style="fill:rgb(0,0,0);font-family:URWPalladioL-Roma;font-size:9.96px;stroke:none;">between the PROGand CNAmolecules. Our investigations provide positive support for the selection</text>
   <text y="453.623" x="82.205,87.645,90.9318,93.453,97.677,103.684,106.583,109.831,114.813,120.322,123.221,128.0018,130.484,134.907,140.347,143.664,146.982,152.421,156.357,165.154,169.926,173.861,178.0442,180.576,186.583,190.807,193.706,199.505,205.08259999999999,207.535,211.958,215.893,221.432,225.656,228.904,233.886,236.77439999999999,239.275,244.047,249.846,255.385,258.284,264.082,268.854,273.626,277.562,280.461,286.259,291.83660000000003,294.289,298.513,301.761,305.696,310.677,313.925,318.697,324.236,327.135,331.908,336.132" svgx:width="0.55,0.33,0.55,0.42,0.6,0.29,0.33,0.5,0.55,0.29,0.48,0.55,0.44,0.55,0.33,0.33,0.55,0.4,0.88,0.48,0.4,0.42,0.55,0.6,0.42,0.29,0.58,0.56,0.55,0.44,0.4,0.56,0.42,0.33,0.5,0.29,0.55,0.48,0.58,0.56,0.29,0.58,0.48,0.48,0.4,0.29,0.58,0.56,0.55,0.42,0.33,0.4,0.5,0.33,0.48,0.56,0.29,0.48,0.42,0.25" style="fill:rgb(0,0,0);font-family:URWPalladioL-Roma;font-size:9.96px;stroke:none;">of suitable co-formers using crystal engineering strategies.</text>
   <text y="479.088" x="82.205,89.956,94.937,100.476,108.775,114.314,118.19,124.277,128.7" svgx:width="0.78,0.5,0.56,0.83,0.56,0.39,0.61,0.44,0.25" style="fill:rgb(0,0,0);font-family:URWPalladioL-Bold;font-size:9.96px;stroke:none;">Keywords:</text>
   <text y="479.088" x="134.677,139.1,143.036,148.575,152.799,156.047,161.028,163.91639999999998,166.418,171.19,176.988,182.527,185.426,191.225,195.997,200.769,204.704,207.603,213.401,218.941,221.431,223.922,229.909,233.665,239.105,244.644,249.416,253.64,256.888,261.66,265.416,270.856,276.654,281.426,283.916,286.407,290.831,296.27,299.588,304.011,307.947,313.486,317.71,320.958,325.939,328.838" svgx:width="0.44,0.4,0.56,0.42,0.33,0.5,0.29,0.55,0.48,0.58,0.56,0.29,0.58,0.48,0.48,0.4,0.29,0.58,0.56,0.25,0.55,0.6,0.4,0.55,0.56,0.48,0.42,0.33,0.48,0.4,0.55,0.58,0.48,0.25,0.55,0.44,0.55,0.33,0.44,0.4,0.56,0.42,0.33,0.5,0.29,0.42" style="fill:rgb(0,0,0);font-family:URWPalladioL-Roma;font-size:9.96px;stroke:none;">crystal engineering; progesterone; co-crystals</text>
  </g>
  <path style="fill:none;stroke:rgb(0,0,0);stroke-width:1.0;" d="M76.54 498.04 L518.74 498.04 "/>
  <g begin="text">
   <text y="530.032" x="76.535,81.516,84.006,87.494,91.369,97.456,100.774,104.649,110.189,116.276,122.363,126.786,130.104,133.421,138.961" svgx:width="0.5,0.25,0.55,0.39,0.61,0.33,0.39,0.56,0.61,0.61,0.44,0.33,0.33,0.56,0.61" style="fill:rgb(0,0,0);font-family:URWPalladioL-Bold;font-size:9.96px;stroke:none;">1. Introduction</text>
   <text y="549.519" x="97.795,101.216,106.99279999999999,109.602,113.439,118.302,122.809,127.672,133.58,136.8668,139.367,145.011,149.874,154.95,158.96,163.265,165.755,168.28,174.188,179.731,185.467,190.329,193.2174,195.761,200.268,204.278,209.923,214.227,217.537,222.613,225.5014,228.054,232.917,238.825,244.47,247.424,253.332,258.195,263.058,267.068,270.022,275.93,281.5076,284.052,288.356,291.666,295.676,300.752,304.061,308.924,314.568,317.523,322.385,326.5682,329.167,335.075,340.151,345.887,350.6678,353.227,358.841,363.703,368.566,374.34279999999995,376.952" svgx:width="0.34,0.58,0.55,0.4,0.48,0.44,0.48,0.58,0.33,0.55,0.56,0.48,0.5,0.4,0.42,0.25,0.55,0.58,0.55,0.56,0.48,0.29,0.55,0.44,0.4,0.56,0.42,0.33,0.5,0.29,0.55,0.48,0.58,0.56,0.29,0.58,0.48,0.48,0.4,0.29,0.58,0.56,0.55,0.42,0.33,0.4,0.5,0.33,0.48,0.56,0.29,0.48,0.42,0.55,0.58,0.5,0.56,0.48,0.55,0.55,0.48,0.48,0.58,0.55,0.48" style="fill:rgb(0,0,0);font-family:URWPalladioL-Roma;font-size:9.96px;stroke:none;">In recent years, novel crystal engineering strategies have been e</text>
   <text y="549.519" x="381.819" svgx:width="0.61" style="fill:rgb(0,0,0);font-family:Rpxr;font-size:9.96px;stroke:none;">ﬀ</text>
   <text y="549.519" x="387.991,392.854,397.361,400.671,403.625,409.361,414.223,417.178,422.7556,425.299,431.502,436.365,442.101,446.963,449.918,455.46,461.562,466.424,472.4996,475.104,478.414,483.892,486.444,495.408,500.951,507.154,510.108,513.489" svgx:width="0.48,0.44,0.33,0.29,0.56,0.48,0.29,0.56,0.55,0.61,0.48,0.56,0.48,0.29,0.55,0.6,0.48,0.61,0.55,0.33,0.55,0.55,0.88,0.55,0.61,0.29,0.33,0.56" style="fill:rgb(0,0,0);font-family:URWPalladioL-Roma;font-size:9.96px;stroke:none;">ectively developed to modify</text>
   <text y="563.028" x="76.535,79.848,85.762,90.5428,93.16,97.672,103.586,108.667,112.681,117.762,122.274,125.586,130.454,134.468,137.425,141.733,145.046,148.003,152.515,156.69819999999999,159.344,164.892,168.1788,170.807,175.78699999999998,178.418,184.159,189.24,193.254,196.211,201.079,204.391,209.96859999999998,212.572,218.12,221.4068,224.024,230.131,236.046,241.127,245.14,254.113,259.194,263.706,268.574,274.701,278.014,280.971,285.483,290.564,293.4524,296.051,302.159,306.0,311.548,317.757,323.885,328.386,331.699,335.8822,338.538" svgx:width="0.33,0.58,0.48,0.55,0.44,0.58,0.5,0.4,0.5,0.44,0.33,0.48,0.4,0.29,0.42,0.33,0.29,0.44,0.42,0.55,0.55,0.33,0.55,0.5,0.55,0.56,0.5,0.4,0.29,0.48,0.33,0.56,0.55,0.55,0.33,0.55,0.6,0.58,0.5,0.4,0.88,0.5,0.44,0.48,0.6,0.33,0.29,0.44,0.5,0.29,0.55,0.6,0.4,0.55,0.61,0.6,0.44,0.33,0.42,0.55,0.33" style="fill:rgb(0,0,0);font-family:URWPalladioL-Roma;font-size:9.96px;stroke:none;">the characteristics of a variety of pharmaceutical products [</text>
   <text y="563.028" x="341.925" svgx:width="0.5" style="fill:rgb(8,117,183);font-family:URWPalladioL-Roma;font-size:9.96px;stroke:none;">1</text>
   <text y="563.028" x="346.906" svgx:width="0.25" style="fill:rgb(0,0,0);font-family:URWPalladioL-Roma;font-size:9.96px;stroke:none;">,</text>
   <text y="563.028" x="349.447" svgx:width="0.5" style="fill:rgb(8,117,183);font-family:URWPalladioL-Roma;font-size:9.96px;stroke:none;">2</text>
   <text y="563.028" x="354.428,357.812,360.302,363.95,371.856,380.828,386.377,392.291,397.8686,400.471,406.579,412.493,417.574,421.588,430.561,435.641,440.153,445.021,451.148,454.461,457.418,461.93,467.011,469.8994,472.499,476.807,482.356,485.313,488.27,494.479,497.863,502.171,505.484,510.565,513.878" svgx:width="0.33,0.25,0.55,0.78,0.88,0.55,0.58,0.56,0.55,0.6,0.58,0.5,0.4,0.88,0.5,0.44,0.48,0.6,0.33,0.29,0.44,0.5,0.29,0.55,0.42,0.55,0.29,0.29,0.61,0.33,0.42,0.33,0.5,0.33,0.48" style="fill:rgb(0,0,0);font-family:URWPalladioL-Roma;font-size:9.96px;stroke:none;">]. Among pharmaceutical solid-state</text>
   <text y="576.538" x="76.535,81.047,86.595,95.568,101.675,104.633,109.5,114.744,119.611,123.92,126.41,130.586,135.098,140.646,144.03,148.542,152.556,158.206,162.514,165.827,170.908,173.865,178.0482,181.974,187.889,192.97,198.711,203.4918,207.379,212.46,215.773,219.085,223.099,228.18,232.692,236.005,240.872,246.94760000000002,250.882,253.839,259.753,264.265,268.096,272.964,278.045,282.353,285.31,291.224,296.8016,300.675,305.756,309.069,312.381,317.249,323.163,326.476,329.433,334.981,340.896,343.386,350.854,358.059,363.607,366.991,371.503,375.517,381.167,385.476,388.788,393.869,396.826,401.0092,404.936,410.017,413.848,418.6288,422.516,431.489,437.037,439.994,444.862,449.373,455.501,458.458,463.539,467.52299999999997,471.353,475.865,481.414,490.387,496.494,499.451,504.318,509.562,514.43" svgx:width="0.44,0.55,0.88,0.6,0.29,0.48,0.52,0.48,0.42,0.25,0.55,0.44,0.55,0.33,0.44,0.4,0.56,0.42,0.33,0.5,0.29,0.42,0.55,0.58,0.5,0.56,0.48,0.55,0.5,0.33,0.33,0.4,0.5,0.44,0.33,0.48,0.61,0.55,0.29,0.58,0.44,0.4,0.48,0.5,0.42,0.29,0.58,0.56,0.55,0.5,0.33,0.33,0.48,0.58,0.33,0.29,0.55,0.58,0.25,0.55,0.71,0.55,0.33,0.44,0.4,0.56,0.42,0.33,0.5,0.29,0.42,0.55,0.5,0.4,0.48,0.55,0.88,0.55,0.29,0.48,0.44,0.6,0.29,0.5,0.4,0.55,0.44,0.55,0.88,0.6,0.29,0.48,0.52,0.48,0.42" style="fill:rgb(0,0,0);font-family:URWPalladioL-Roma;font-size:9.96px;stroke:none;">complexes, co-crystals have attracted increasing attention. Co-crystals are molecular complexes</text>
   <text y="590.047" x="76.535,80.963,86.408,95.214,101.207,106.652,110.881,115.657,121.73259999999999,124.244,129.689,132.9758,135.513,138.764,147.081,152.559,155.019,160.464,164.448,166.896,175.702,181.147,184.907,189.6878,192.177,196.605,202.05,207.854,212.082,215.333,218.235,221.486,227.5,232.277,238.081,241.332,245.5152,248.063,256.38,262.184,265.086,269.514,275.2908,277.811,282.797,286.557,291.3378,293.827,299.342,304.787,310.8,316.604,322.6796,325.201,328.103,333.8798,336.4,339.651,345.455,350.2358,352.725,358.738,364.542,367.444,370.73080000000004,373.189,377.617,382.393,385.295,388.1834,390.701,393.952,399.756,403.515,408.96,414.974,420.518,426.29479999999995,428.816,434.45,439.436,443.376,446.278,451.723,457.736,461.9192,464.458,470.262,475.707,481.511,485.938,491.383,497.018,502.004,504.906,509.683,515.487" svgx:width="0.44,0.55,0.88,0.6,0.55,0.42,0.48,0.61,0.55,0.55,0.33,0.55,0.33,0.83,0.55,0.55,0.55,0.4,0.55,0.88,0.55,0.4,0.48,0.55,0.44,0.55,0.58,0.42,0.33,0.29,0.33,0.6,0.48,0.58,0.33,0.42,0.55,0.83,0.58,0.29,0.44,0.58,0.55,0.5,0.4,0.48,0.55,0.55,0.55,0.6,0.58,0.61,0.55,0.29,0.58,0.55,0.33,0.58,0.48,0.55,0.6,0.58,0.29,0.33,0.55,0.44,0.48,0.29,0.29,0.55,0.33,0.58,0.4,0.55,0.6,0.56,0.58,0.55,0.56,0.5,0.4,0.29,0.55,0.6,0.42,0.55,0.58,0.55,0.58,0.44,0.55,0.56,0.5,0.29,0.48,0.58,0.33" style="fill:rgb(0,0,0);font-family:URWPalladioL-Roma;font-size:9.96px;stroke:none;">composed of two or more constituents which are bound in the unit cell through various noncovalent</text>
   <text y="603.556" x="76.535,79.376,85.058,88.241,92.918,96.774,101.656,105.991,109.174,112.015,117.346,123.028,127.2112,128.671,132.811,138.698,143.033,150.229,155.11,159.2932,160.754,166.436,171.864,177.83,181.511,186.841,192.27,196.946,204.132,209.531,214.862,220.544,226.51,229.351,235.033,240.462" svgx:width="0.29,0.58,0.33,0.48,0.4,0.5,0.44,0.33,0.29,0.55,0.58,0.42,0.55,0.42,0.6,0.44,0.58,0.5,0.42,0.55,0.58,0.56,0.61,0.4,0.55,0.56,0.48,0.58,0.55,0.55,0.58,0.61,0.29,0.58,0.56,0.25" style="fill:rgb(0,0,0);font-family:URWPalladioL-Roma;font-size:9.96px;stroke:none;">interactions suchas hydrogenbonding,</text>
   <text y="603.556" x="244.611" svgx:width="0.61" style="fill:rgb(0,0,0);font-family:EURM10;font-size:9.96px;stroke:none;">π</text>
   <text y="603.556" x="250.679" svgx:width="0.33" style="fill:rgb(0,0,0);font-family:URWPalladioL-Roma;font-size:9.96px;stroke:none;">-</text>
   <text y="603.556" x="253.93" svgx:width="0.61" style="fill:rgb(0,0,0);font-family:EURM10;font-size:9.96px;stroke:none;">π</text>
   <text y="603.556" x="261.506,265.646,268.829,273.71,278.045,283.474,286.315,291.997,297.425,299.915,301.575,306.457,312.139,319.608,325.739,330.621,337.816,343.782,348.458,352.442,353.819,362.664,367.546,372.427,375.269,379.4522,380.922,383.763,389.445,392.628,397.304,401.161,406.043,410.378,413.56,416.402,421.732,427.415,431.5982,433.058" svgx:width="0.42,0.33,0.5,0.44,0.56,0.29,0.58,0.56,0.25,0.55,0.5,0.58,0.61,0.72,0.5,0.58,0.61,0.48,0.4,0.55,1.0,0.5,0.5,0.29,0.42,0.55,0.29,0.58,0.33,0.48,0.4,0.5,0.44,0.33,0.29,0.55,0.58,0.42,0.55,0.33" style="fill:rgb(0,0,0);font-family:URWPalladioL-Roma;font-size:9.96px;stroke:none;">stacking, andVander Waals interactions [</text>
   <text y="603.556" x="436.31" svgx:width="0.5" style="fill:rgb(8,117,183);font-family:URWPalladioL-Roma;font-size:9.96px;stroke:none;">3</text>
   <text y="603.556" x="441.291,444.542,447.032,450.146,456.131,461.814,467.994,473.862,477.542,482.219,488.087,492.968,496.825,501.707,504.889,507.731,513.061" svgx:width="0.33,0.25,0.55,0.61,0.58,0.48,0.6,0.4,0.48,0.6,0.5,0.4,0.5,0.33,0.29,0.55,0.58" style="fill:rgb(0,0,0);font-family:URWPalladioL-Roma;font-size:9.96px;stroke:none;">]. Thepreparation</text>
   <text y="617.066" x="76.535,82.024,85.3108,87.874,92.337,97.826,101.173,105.636,109.607,115.196,119.458,122.735,127.761,130.687,134.8702,137.442,140.789,146.278,150.262,152.751,157.731,160.28,165.869,168.795,174.474,179.289,185.0658,187.633,191.895,197.956,203.515,207.777,211.054,216.081,221.931,226.394,231.1748,233.712" svgx:width="0.55,0.33,0.55,0.44,0.55,0.33,0.44,0.4,0.56,0.42,0.33,0.5,0.29,0.42,0.55,0.33,0.55,0.4,0.55,0.5,0.55,0.56,0.29,0.56,0.48,0.58,0.55,0.42,0.6,0.55,0.42,0.33,0.5,0.58,0.44,0.48,0.55,0.55" style="fill:rgb(0,0,0);font-family:URWPalladioL-Roma;font-size:9.96px;stroke:none;">of co-crystals for a given substance o</text>
   <text y="617.066" x="239.202" svgx:width="0.61" style="fill:rgb(0,0,0);font-family:Rpxr;font-size:9.96px;stroke:none;">ﬀ</text>
   <text y="617.066" x="245.314,250.129,254.1,258.2832,260.865,264.142,269.992,274.7728,277.3,282.326,288.468,294.148,299.174,305.024,308.301,313.328,318.917,323.6978,326.235,331.723,335.00980000000004,337.574,342.6,345.525,348.802,353.617,357.588,360.513,366.363,371.9406,374.445,377.722,383.573,388.3538,390.891,396.932,402.783,408.372,412.634,415.559,420.022,425.048,427.9364,430.477,435.503,441.353,447.4286,449.998,456.039,461.89,466.916,470.887,479.753,484.789,489.242,494.057,500.119,503.396,506.321,510.784,515.81" svgx:width="0.48,0.4,0.42,0.55,0.33,0.58,0.48,0.55,0.5,0.61,0.56,0.5,0.58,0.33,0.5,0.56,0.48,0.55,0.55,0.33,0.55,0.5,0.29,0.33,0.48,0.4,0.29,0.58,0.56,0.55,0.33,0.58,0.48,0.55,0.6,0.58,0.56,0.42,0.29,0.44,0.5,0.29,0.55,0.5,0.58,0.61,0.55,0.6,0.58,0.5,0.4,0.88,0.5,0.44,0.48,0.6,0.33,0.29,0.44,0.5,0.29" style="fill:rgb(0,0,0);font-family:URWPalladioL-Roma;font-size:9.96px;stroke:none;">ers the advantage of altering the physical and pharmaceutical</text>
   <text y="630.575" x="76.236,82.104,85.785,91.115,96.983,101.66,105.516,108.699,111.54,116.217,120.4002,122.827,128.157,131.4438,133.879,137.062,142.744,147.5248,149.9,155.866,159.644,165.532,171.1096,173.43,181.573,184.414,187.597,193.279,198.61,204.497,207.7838,210.16,218.781,224.112,230.077,232.918,236.169,241.598,244.439,250.121,255.6986,258.02,260.861,264.044,268.2272,270.654,279.275,284.605,287.446,292.123,296.458,302.345,305.186,310.068,314.05199999999996,316.405,319.656,324.987,328.843,337.464,343.351,346.193,351.074,353.564,356.991,362.117,367.984,372.661,376.996,379.837,385.744,390.079,394.96,397.802,400.643,404.968,407.458,409.889,414.224,419.554,422.805,427.14,430.997,436.425,440.565,443.748,448.63,451.471,455.6542,458.08,466.223,469.064,472.247,478.0238,480.409,483.592,489.274,494.0548,496.421,500.561,505.443,514.064" svgx:width="0.6,0.4,0.55,0.6,0.48,0.4,0.33,0.29,0.48,0.42,0.55,0.55,0.33,0.55,0.33,0.58,0.48,0.55,0.61,0.4,0.6,0.56,0.55,0.83,0.29,0.33,0.58,0.55,0.6,0.33,0.55,0.88,0.55,0.61,0.29,0.33,0.56,0.29,0.58,0.56,0.55,0.29,0.33,0.42,0.55,0.88,0.55,0.29,0.48,0.44,0.6,0.29,0.5,0.4,0.55,0.33,0.55,0.4,0.88,0.6,0.29,0.5,0.25,0.55,0.52,0.6,0.48,0.44,0.29,0.61,0.44,0.5,0.29,0.29,0.56,0.25,0.55,0.44,0.55,0.33,0.44,0.4,0.56,0.42,0.33,0.5,0.29,0.42,0.55,0.83,0.29,0.33,0.58,0.55,0.33,0.58,0.48,0.55,0.42,0.5,0.88,0.48" style="fill:rgb(0,0,0);font-family:URWPalladioL-Roma;font-size:9.96px;stroke:none;">properties of the drug without modifying its molecular formula. Speciﬁcally, co-crystals with the same</text>
   <text y="644.085" x="76.535,81.566,86.034,89.314,92.242,97.927,102.7078,105.212,111.26,117.116,122.147,126.122,135.007,140.038,144.505,149.325,155.393,158.673,161.601,166.069,171.1,173.98839999999998,176.503,179.431,185.288,190.882,194.676,199.495,205.643,208.572,213.391,219.248,222.5348,224.993,228.344,236.172,242.25,245.641,248.9278,251.467,256.498,262.354,268.4296,270.967,277.115" svgx:width="0.5,0.44,0.33,0.29,0.56,0.48,0.55,0.6,0.58,0.5,0.4,0.88,0.5,0.44,0.48,0.6,0.33,0.29,0.44,0.5,0.29,0.55,0.29,0.58,0.56,0.4,0.48,0.61,0.29,0.48,0.58,0.33,0.55,0.33,0.78,0.6,0.34,0.33,0.55,0.5,0.58,0.61,0.55,0.61,0.29" style="fill:rgb(0,0,0);font-family:URWPalladioL-Roma;font-size:9.96px;stroke:none;">active pharmaceutical ingredient (API) and di</text>
   <text y="644.085" x="280.047" svgx:width="0.61" style="fill:rgb(0,0,0);font-family:Rpxr;font-size:9.96px;stroke:none;">ﬀ</text>
   <text y="644.085" x="286.165,290.985,294.778,299.598,305.454,308.74080000000004,311.21,315.677,321.171,330.056,336.104,339.032,343.852,352.737,357.556,363.413,366.693,371.724,375.699,381.27660000000003,383.758,388.226,393.72,397.071,401.538,405.513,411.108,415.374,418.654,423.685,426.5734,429.079,432.429,437.923,441.898,450.783,455.603,459.577,463.7602,466.319,469.67,476.804,483.938,489.533,493.799,497.0858,499.615,508.5,513.531" svgx:width="0.48,0.4,0.48,0.58,0.33,0.55,0.44,0.55,0.88,0.6,0.29,0.48,0.88,0.48,0.58,0.33,0.5,0.4,0.56,0.55,0.44,0.55,0.33,0.44,0.4,0.56,0.42,0.33,0.5,0.29,0.55,0.33,0.55,0.4,0.88,0.48,0.4,0.42,0.55,0.33,0.71,0.71,0.56,0.42,0.33,0.55,0.88,0.5,0.56" style="fill:rgb(0,0,0);font-family:URWPalladioL-Roma;font-size:9.96px;stroke:none;">erent complementary co-crystal formers (CCFs) may</text>
   <text y="657.594" x="76.535,80.704,86.427,91.796,102.494,106.664,109.869,113.753,116.615,122.082,124.943,130.666,136.133,138.995,144.5726,146.96,152.968,155.829,161.385,166.095,169.979,174.148,178.9288,181.346,185.712,191.435,196.351,200.235,205.152,209.518,212.723,217.433,221.317,224.179,228.348,231.554,234.415,238.781,242.95,245.44,247.906,256.107,261.83,264.691,269.057,274.8338,277.277,282.194,285.901,290.6818,293.109,299.117,301.978,305.685,310.395,314.761,317.967,320.828,326.4056,328.783,332.49,337.2,340.062,344.978,348.184,352.894,358.9696,361.399,364.605,370.083,372.472,375.677,381.4,386.1808,388.608,394.331,399.247,402.453,408.382,412.079,416.8598,419.287,424.656,427.94280000000003,430.428,433.633,439.356,444.1368,446.564,453.535,460.507,466.0846,468.472,472.838,478.207,486.889,492.799,498.168,503.891,508.601,514.324,517.529" svgx:width="0.42,0.58,0.55,0.83,0.42,0.33,0.4,0.29,0.56,0.29,0.58,0.56,0.29,0.56,0.55,0.61,0.29,0.56,0.48,0.4,0.42,0.48,0.55,0.44,0.58,0.5,0.4,0.5,0.44,0.33,0.48,0.4,0.29,0.42,0.33,0.29,0.44,0.42,0.25,0.55,0.83,0.58,0.29,0.44,0.58,0.55,0.5,0.4,0.48,0.55,0.61,0.29,0.4,0.48,0.44,0.33,0.29,0.56,0.55,0.4,0.48,0.29,0.5,0.33,0.48,0.61,0.55,0.33,0.55,0.55,0.33,0.58,0.48,0.55,0.58,0.5,0.33,0.6,0.4,0.48,0.55,0.55,0.33,0.55,0.33,0.58,0.48,0.55,0.71,0.71,0.56,0.55,0.44,0.55,0.88,0.6,0.55,0.58,0.48,0.58,0.33,0.25" style="fill:rgb(0,0,0);font-family:URWPalladioL-Roma;font-size:9.96px;stroke:none;">showstrikingly diverse characteristics, which are directly related to the nature of the CCF component,</text>
   <text y="671.103" x="76.535,80.675,86.562,90.897,96.6738,98.991,103.872,108.0552,110.424,113.265,116.448,120.63119999999999,122.999,131.62,136.296,139.138,142.32,145.162,150.844,156.42159999999998,158.684,164.552,169.882,172.724,178.406,181.589,184.079,186.461,190.6,195.931,198.772,204.659,210.059,212.9,215.741,218.582,221.765,226.08,228.57000000000002,230.952,236.351,239.192,244.523,249.405,254.921,259.803,262.644,265.485,270.367,275.766,278.607,281.448,284.289,287.472,291.797,294.28700000000003,296.659,302.342,307.77,313.199,316.879,322.21,326.35,330.685,336.016,341.883,344.724,349.059,351.9,355.083,359.409,361.899,364.271,369.152,374.835,380.9106,383.212,387.546,393.229,397.905,406.526,409.368,413.702,418.584,421.4724,423.847,427.986,431.159,436.051,441.44,444.281,447.122,449.964,453.146,458.72360000000003,460.996" svgx:width="0.42,0.6,0.44,0.58,0.55,0.5,0.42,0.55,0.29,0.33,0.42,0.55,0.88,0.48,0.29,0.33,0.29,0.58,0.56,0.55,0.6,0.55,0.29,0.58,0.33,0.25,0.55,0.42,0.55,0.29,0.6,0.55,0.29,0.29,0.29,0.33,0.56,0.25,0.55,0.55,0.29,0.55,0.5,0.56,0.5,0.29,0.29,0.5,0.55,0.29,0.29,0.29,0.33,0.56,0.25,0.55,0.58,0.56,0.56,0.4,0.55,0.42,0.44,0.55,0.6,0.29,0.44,0.29,0.33,0.56,0.25,0.55,0.5,0.58,0.61,0.55,0.44,0.58,0.48,0.88,0.29,0.44,0.5,0.29,0.55,0.42,0.33,0.5,0.55,0.29,0.29,0.29,0.33,0.56,0.55,0.33" style="fill:rgb(0,0,0);font-family:URWPalladioL-Roma;font-size:9.96px;stroke:none;">such as its melting point, solubility, bioavailability, hygroscopicity, and chemical stability [</text>
   <text y="671.103" x="464.243" svgx:width="0.5" style="fill:rgb(8,117,183);font-family:URWPalladioL-Roma;font-size:9.96px;stroke:none;">4</text>
   <text y="671.103" x="469.224" svgx:width="0.25" style="fill:rgb(0,0,0);font-family:URWPalladioL-Roma;font-size:9.96px;stroke:none;">,</text>
   <text y="671.103" x="471.665" svgx:width="0.5" style="fill:rgb(8,117,183);font-family:URWPalladioL-Roma;font-size:9.96px;stroke:none;">5</text>
   <text y="671.103" x="476.646,479.897,482.387,485.794,493.351,498.028,502.167,508.035,510.876,514.059" svgx:width="0.33,0.25,0.55,0.77,0.48,0.42,0.6,0.29,0.33,0.48" style="fill:rgb(0,0,0);font-family:URWPalladioL-Roma;font-size:9.96px;stroke:none;">]. Despite</text>
   <text y="684.613" x="76.535,79.848,85.762,90.5428,93.475,96.432,105.405,111.512,117.06,121.074,124.387,129.468,135.382,139.894,144.6748,147.607,153.155,156.4418,159.374,163.886,169.435,172.819,177.33,181.344,186.994,191.303,194.616,199.697,202.654,206.962,209.452,212.44,217.42,220.366,224.674,230.324,234.633,237.946,242.813,251.786,256.867,260.18,263.137,267.5194,270.484,274.793,278.105,284.233,290.442,296.0196,298.937,304.486,307.7728,310.715,314.028,319.942,324.809,327.766,331.75,334.626,338.934,342.247,346.18,352.307,356.819,360.132,366.26,370.091,374.8718,377.803,382.884,388.799,394.8746,397.853,403.401,406.68780000000004,409.63,412.943,418.857,423.6378,426.56,430.401,435.269,438.226,443.307,446.619,449.577,455.125,460.9018,463.874,469.494,474.361,477.674,486.149,491.017,495.884,501.6608,504.644,507.956,513.87" svgx:width="0.33,0.58,0.48,0.55,0.29,0.88,0.6,0.55,0.4,0.33,0.5,0.58,0.44,0.48,0.55,0.55,0.33,0.55,0.44,0.55,0.33,0.44,0.4,0.56,0.42,0.33,0.5,0.29,0.42,0.25,0.55,0.5,0.55,0.42,0.56,0.42,0.33,0.48,0.88,0.5,0.33,0.29,0.44,0.55,0.42,0.33,0.6,0.61,0.56,0.55,0.55,0.33,0.55,0.33,0.58,0.48,0.29,0.4,0.55,0.42,0.33,0.4,0.6,0.44,0.33,0.6,0.4,0.48,0.55,0.5,0.58,0.61,0.55,0.55,0.33,0.55,0.33,0.58,0.48,0.55,0.4,0.48,0.29,0.5,0.33,0.29,0.55,0.58,0.55,0.55,0.48,0.33,0.83,0.48,0.48,0.58,0.55,0.33,0.58,0.48" style="fill:rgb(0,0,0);font-family:URWPalladioL-Roma;font-size:9.96px;stroke:none;">the importance of co-crystals, a systematic study of their structure and of the relation between the</text>
   <text y="698.122" x="76.535,80.844,84.156,88.089,94.217,98.728,102.041,108.169,112.0,116.7808,119.845,124.926,130.84,136.9156,140.026,143.339,149.253,154.03379999999999,157.098,166.071,170.939,175.45,181.365,186.446,192.36,195.317,199.829,204.91,207.7984,210.844,216.951,220.793,226.341,232.448,237.316,241.33,244.642,247.6,252.467,256.65020000000004,259.753,265.302,268.58880000000005,271.663,274.965,280.88,285.6608,288.725,293.236,298.785,302.169,306.681,310.695,316.345,320.653,323.966,329.047,331.9354,334.981,339.29,342.603,345.56,348.517,351.4054,354.451,358.293,363.16,372.133,377.214,380.171,386.085,390.2682,393.371,398.351,401.43,405.444,410.525,414.538,417.496,420.808,426.3856,429.426" svgx:width="0.42,0.33,0.4,0.6,0.44,0.33,0.6,0.4,0.48,0.55,0.5,0.58,0.61,0.55,0.33,0.58,0.48,0.55,0.88,0.48,0.44,0.58,0.5,0.58,0.29,0.44,0.5,0.29,0.55,0.6,0.4,0.55,0.6,0.48,0.4,0.33,0.29,0.48,0.42,0.55,0.55,0.33,0.55,0.33,0.58,0.48,0.55,0.44,0.55,0.33,0.44,0.4,0.56,0.42,0.33,0.5,0.29,0.55,0.42,0.33,0.29,0.29,0.29,0.55,0.4,0.48,0.88,0.5,0.29,0.58,0.42,0.55,0.5,0.55,0.4,0.5,0.4,0.29,0.33,0.56,0.55,0.33" style="fill:rgb(0,0,0);font-family:URWPalladioL-Roma;font-size:9.96px;stroke:none;">structure and the mechanical properties of the co-crystal still remains a rarity [</text>
   <text y="698.122" x="432.815" svgx:width="0.5" style="fill:rgb(8,117,183);font-family:URWPalladioL-Roma;font-size:9.96px;stroke:none;">6</text>
   <text y="698.122" x="437.796" svgx:width="0.25" style="fill:rgb(0,0,0);font-family:URWPalladioL-Roma;font-size:9.96px;stroke:none;">,</text>
   <text y="698.122" x="440.336" svgx:width="0.5" style="fill:rgb(8,117,183);font-family:URWPalladioL-Roma;font-size:9.96px;stroke:none;">7</text>
   <text y="698.122" x="445.318,448.702,451.192,456.191,463.396,468.944,474.858,479.167,484.035,489.725,495.853,500.72,506.635,509.947,512.904,517.447" svgx:width="0.33,0.25,0.55,0.71,0.55,0.58,0.42,0.48,0.56,0.6,0.48,0.58,0.33,0.29,0.56,0.25" style="fill:rgb(0,0,0);font-family:URWPalladioL-Roma;font-size:9.96px;stroke:none;">]. Consequently,</text>
   <text y="711.632" x="76.535,79.838,85.735,90.5158,93.08,97.579,103.689,107.691,111.521,116.374,122.271,125.5578,128.066,134.257,139.11,144.835,149.688,152.636,158.168,164.258,173.204,178.057,183.954,187.2408,189.75,195.282,198.5688,201.158,207.247,213.144,218.21,222.212,231.159,236.225,240.723,245.577,251.686,254.989,257.938,262.436,267.502,270.3904,272.943,279.032,282.852,288.384,294.575,300.684,305.183,308.486,312.6692,315.275,319.104,323.958,326.906,329.854,334.708,339.004,341.494,344.029,347.332,352.81,355.367,360.34700000000004,362.925,365.874,370.939,374.759,380.393,385.17379999999997,387.748,392.602,397.83,401.133,405.986,411.883,415.186,417.676,420.211,425.743,431.5198,434.132,438.986,447.932,454.022,456.97,460.972,463.92,468.419,473.485,476.3734,478.936,487.883,492.736,496.039,501.936,507.468,513.658,517.954" svgx:width="0.33,0.58,0.48,0.55,0.44,0.6,0.4,0.4,0.48,0.58,0.33,0.55,0.61,0.48,0.56,0.48,0.29,0.55,0.6,0.88,0.48,0.58,0.33,0.55,0.55,0.33,0.55,0.6,0.58,0.5,0.4,0.88,0.5,0.44,0.48,0.6,0.33,0.29,0.44,0.5,0.29,0.55,0.6,0.4,0.55,0.61,0.6,0.44,0.33,0.42,0.55,0.4,0.48,0.29,0.29,0.48,0.42,0.25,0.55,0.33,0.55,0.55,0.5,0.55,0.29,0.5,0.4,0.56,0.48,0.55,0.48,0.52,0.33,0.48,0.58,0.33,0.25,0.55,0.55,0.58,0.55,0.48,0.88,0.6,0.29,0.4,0.29,0.44,0.5,0.29,0.55,0.88,0.48,0.33,0.58,0.55,0.61,0.42,0.25" style="fill:rgb(0,0,0);font-family:URWPalladioL-Roma;font-size:9.96px;stroke:none;">the current development of pharmaceutical products relies, to a large extent, on empirical methods.</text>
   <text y="725.141" x="76.147,83.898,89.696,94.677,97.577,103.116,107.34,110.239,114.4222,116.964,121.945,127.743,133.8186,136.331,141.31099999999998,143.823,149.91,154.682,159.454,165.43,167.942,173.95,179.748,185.835,190.607,194.542,198.767,202.014,206.996,212.794,218.881,221.78,227.578,233.1556,235.618,241.058,244.3448,246.876,250.124,255.922,260.7028,263.195,267.419,272.191,275.09,278.408,281.725,286.706,290.931,295.155,299.927,308.724,314.233,317.132,322.7096,325.172,329.028,335.035,337.934,342.706,346.8892,349.431,354.412,360.211,366.2866,368.808,374.248,377.5348,380.066,383.314,389.112,393.8928,396.385,401.894,404.793,410.591,416.679,419.578,425.376,430.9536,433.416,442.213,447.652,453.739,458.511,462.6942,465.236,470.746,475.518,478.765,487.074,491.846,496.618,502.3948,504.917,508.165,513.963" svgx:width="0.78,0.58,0.5,0.29,0.56,0.42,0.29,0.42,0.55,0.5,0.58,0.61,0.55,0.5,0.55,0.61,0.48,0.48,0.6,0.55,0.6,0.58,0.61,0.48,0.4,0.42,0.33,0.5,0.58,0.61,0.29,0.58,0.56,0.55,0.55,0.33,0.55,0.33,0.58,0.48,0.55,0.42,0.48,0.29,0.33,0.33,0.5,0.42,0.42,0.48,0.88,0.55,0.29,0.56,0.55,0.4,0.6,0.29,0.48,0.42,0.55,0.5,0.58,0.61,0.55,0.55,0.33,0.55,0.33,0.58,0.48,0.55,0.55,0.29,0.58,0.61,0.29,0.58,0.56,0.55,0.88,0.55,0.61,0.48,0.42,0.55,0.55,0.48,0.33,0.83,0.48,0.48,0.58,0.55,0.33,0.58,0.48" style="fill:rgb(0,0,0);font-family:URWPalladioL-Roma;font-size:9.96px;stroke:none;">Analysis and a deep understanding of the self-assembly rules and of the binding modes between the</text>
   <text y="738.65" x="76.147,84.053,90.191,93.5774,96.359,101.44,107.354,113.4296,116.307,122.516" svgx:width="0.78,0.6,0.34,0.55,0.5,0.58,0.61,0.55,0.61,0.29" style="fill:rgb(0,0,0);font-family:URWPalladioL-Roma;font-size:9.96px;stroke:none;">API and di</text>
   <text y="738.65" x="125.478" svgx:width="0.61" style="fill:rgb(0,0,0);font-family:Rpxr;font-size:9.96px;stroke:none;">ﬀ</text>
   <text y="738.65" x="131.656,136.524,140.355,145.222,151.136,154.4228,157.203,164.408,171.612,177.262,181.4452,184.315,193.288,198.369,203.9466,206.762,211.63,216.873,222.981,225.938,231.019,233.976,239.7528,242.634,248.548,254.096,262.3628,265.325,268.638,274.552,279.3328,282.163,291.136,296.684,299.642,304.509,309.021,315.149,318.106,322.973,327.1562,330.026,332.983,338.897,342.21,347.077,351.091,356.172,360.684,363.97080000000005,366.74,375.215,378.172,381.485,387.2618,390.153,395.021,400.102,404.614,410.39079999999996,413.271,418.82,422.133,428.047,432.914,436.89799999999997,439.672,444.753,450.667,456.7426,459.62,465.534,471.082,479.3488,482.311,485.624,491.10200000000003,493.916,498.225,503.092,506.049,510.917,515.429" svgx:width="0.48,0.4,0.48,0.58,0.33,0.55,0.71,0.71,0.56,0.42,0.55,0.88,0.5,0.56,0.55,0.48,0.52,0.6,0.29,0.5,0.29,0.58,0.55,0.58,0.55,0.83,0.55,0.33,0.58,0.48,0.55,0.88,0.55,0.29,0.48,0.44,0.6,0.29,0.48,0.42,0.55,0.29,0.58,0.33,0.48,0.4,0.5,0.44,0.33,0.55,0.83,0.29,0.33,0.58,0.55,0.48,0.5,0.44,0.58,0.55,0.55,0.33,0.58,0.48,0.4,0.55,0.5,0.58,0.61,0.55,0.58,0.55,0.83,0.55,0.33,0.55,0.55,0.42,0.48,0.29,0.48,0.44,0.33" style="fill:rgb(0,0,0);font-family:URWPalladioL-Roma;font-size:9.96px;stroke:none;">erent CCFs may explain how the molecules interact with each other and how to select</text>
   <text y="752.16" x="76.535,80.675,86.562,89.403,92.586,97.468,102.867,105.708,110.4888,112.435,119.357,126.279,131.708,135.8912,137.907,141.09,146.568,148.471,153.9,158.576,164.259,168.935,172.792,177.674,180.856,185.6368,187.583,193.451,197.132,201.809,207.774,210.615,214.95,218.133,223.015,228.414,231.255,236.0358,237.982,242.121,245.304,249.083,254.97,259.305,262.488,268.375,272.056,276.732,280.872,283.362,286.652,292.08,297.411,301.395,303.318,306.501,312.183,315.024,319.2072,321.214,324.895,329.572,334.453,338.593,343.924,349.606,352.096,354.185,358.52,362.377,367.805,371.945,375.127,380.009,382.8974,384.91,389.05,392.233,396.011,401.899,406.234,409.416,415.304,418.975,423.7558,425.702,431.569,435.25,439.927,445.892,448.733,453.068,456.251,459.092,464.423,470.1998,472.156,476.491,481.821,487.504,491.643,494.826,497.667,500.85,506.737,509.92,514.597" svgx:width="0.42,0.6,0.29,0.33,0.5,0.55,0.29,0.48,0.55,0.71,0.71,0.56,0.42,0.55,0.33,0.55,0.55,0.56,0.48,0.58,0.48,0.4,0.5,0.33,0.48,0.55,0.6,0.4,0.48,0.61,0.29,0.44,0.33,0.5,0.55,0.29,0.48,0.55,0.42,0.33,0.4,0.6,0.44,0.33,0.6,0.4,0.48,0.42,0.25,0.55,0.56,0.55,0.4,0.55,0.33,0.58,0.29,0.42,0.55,0.4,0.48,0.5,0.42,0.55,0.58,0.25,0.55,0.44,0.4,0.56,0.42,0.33,0.5,0.29,0.55,0.42,0.33,0.4,0.6,0.44,0.33,0.6,0.4,0.48,0.55,0.6,0.4,0.48,0.61,0.29,0.44,0.33,0.29,0.55,0.58,0.55,0.44,0.55,0.58,0.42,0.33,0.29,0.33,0.6,0.33,0.48,0.42" style="fill:rgb(0,0,0);font-family:URWPalladioL-Roma;font-size:9.96px;stroke:none;">suitable CCFs to generate predictable structures. For this reason, crystal structure prediction constitutes</text>
   <text y="765.669" x="76.535,79.783,85.581,90.3618,92.844,101.641,106.622,109.521,115.2978,117.81,121.128,126.567,130.991,136.998,141.1812,143.713,149.152,152.4388,154.961,158.208,164.007,168.7878,171.269,176.898,181.88,186.104,189.3908,191.842,200.639,205.62,207.952,213.391,217.326,220.226,223.473,229.0506,231.503,236.943,240.2298,242.751,247.174,251.11,256.649,260.873,264.121,269.102,272.001,274.9,280.34,285.879,289.814,294.796,300.783,306.581,309.48,313.86240000000004,316.394,321.376,325.311,328.559,331.458,335.881,338.78,343.553,347.777" svgx:width="0.33,0.58,0.48,0.55,0.88,0.5,0.29,0.58,0.55,0.33,0.55,0.44,0.6,0.42,0.55,0.55,0.33,0.55,0.33,0.58,0.48,0.55,0.56,0.5,0.42,0.33,0.55,0.88,0.5,0.23,0.55,0.4,0.29,0.33,0.56,0.55,0.55,0.33,0.55,0.44,0.4,0.56,0.42,0.33,0.5,0.29,0.29,0.55,0.56,0.4,0.5,0.6,0.58,0.29,0.44,0.55,0.5,0.4,0.33,0.29,0.44,0.29,0.48,0.42,0.25" style="fill:rgb(0,0,0);font-family:URWPalladioL-Roma;font-size:9.96px;stroke:none;">the main focus of the vast majority of crystallographic articles.</text>
   <text y="799.37" x="76.535,84.059,87.598,89.813,92.914,96.157,100.589,102.804,105.905" svgx:width="0.94,0.44,0.28,0.39,0.41,0.56,0.28,0.39,0.39" style="fill:rgb(0,0,0);font-family:URWPalladioL-Ital;font-size:7.97px;stroke:none;">Molecules</text>
   <text y="799.37" x="110.998,114.983,118.968,122.953" svgx:width="0.5,0.5,0.5,0.5" style="fill:rgb(0,0,0);font-family:URWPalladioL-Bold;font-size:7.97px;stroke:none;">2019</text>
   <text y="799.37" x="126.938" svgx:width="0.25" style="fill:rgb(0,0,0);font-family:URWPalladioL-Roma;font-size:7.97px;stroke:none;">,</text>
   <text y="799.37" x="130.923,134.908" svgx:width="0.5,0.5" style="fill:rgb(0,0,0);font-family:URWPalladioL-Ital;font-size:7.97px;stroke:none;">24</text>
   <text y="799.37" x="138.893,140.8855,142.878,146.863,150.848,154.833,158.818,160.81050000000002,162.803,167.673,172.025,174.344,176.337,180.322,184.307,186.299,190.284,194.269,198.254" svgx:width="0.25,0.55,0.5,0.5,0.5,0.5,0.25,0.55,0.61,0.55,0.29,0.25,0.5,0.5,0.25,0.5,0.5,0.5,0.5" style="fill:rgb(0,0,0);font-family:URWPalladioL-Roma;font-size:7.97px;stroke:none;">, 3936; doi:10.3390</text>
   <text y="799.37" x="202.239" svgx:width="0.29" style="fill:rgb(0,0,0);font-family:Rpxr;font-size:7.97px;stroke:none;">/</text>
   <text y="799.37" x="204.527,211.565,215.916,218.236,222.053,225.592,230.398,232.717,236.535,239.914,243.899,247.884,251.869,255.854,259.839,263.825,267.81,271.795,396.527,403.174,409.821,415.735,417.727,424.765,429.634,434.424,436.744,438.736,442.275,446.627" svgx:width="0.88,0.55,0.29,0.48,0.44,0.6,0.29,0.48,0.42,0.5,0.5,0.5,0.5,0.5,0.5,0.5,0.5,0.55,0.83,0.83,0.83,0.25,0.88,0.61,0.6,0.29,0.25,0.44,0.55,0.88" style="fill:rgb(0,0,0);font-family:URWPalladioL-Roma;font-size:7.97px;stroke:none;">molecules24213936 www.mdpi.com</text>
   <text y="799.37" x="453.665" svgx:width="0.29" style="fill:rgb(0,0,0);font-family:Rpxr;font-size:7.97px;stroke:none;">/</text>
   <text y="799.37" x="455.953,457.818,462.17,466.976,470.124,474.762,478.747" svgx:width="0.23,0.55,0.6,0.4,0.58,0.5,0.29" style="fill:rgb(0,0,0);font-family:URWPalladioL-Roma;font-size:7.97px;stroke:none;">journal</text>
   <text y="799.37" x="481.066" svgx:width="0.29" style="fill:rgb(0,0,0);font-family:Rpxr;font-size:7.97px;stroke:none;">/</text>
   <text y="799.37" x="483.353,490.391,494.742,497.062,500.879,504.418,509.224,511.543,515.361" svgx:width="0.88,0.55,0.29,0.48,0.44,0.6,0.29,0.48,0.42" style="fill:rgb(0,0,0);font-family:URWPalladioL-Roma;font-size:7.97px;stroke:none;">molecules</text>
  </g>
 </g>
</svg>
