<?xml version="1.0" encoding="UTF-8"?>
<svg height="774.867" width="530.429" xmlns="http://www.w3.org/2000/svg">
 <g id="page" xmlns:svgx="http://www.xml-cml.org/schema/svgx">
  <g begin="text">
   <text y="62.979" x="76.535,84.059,87.598,89.813,92.914,96.157,100.589,102.804,105.905" svgx:width="0.94,0.44,0.28,0.39,0.41,0.56,0.28,0.39,0.39" style="fill:rgb(0,0,0);font-family:URWPalladioL-Ital;font-size:7.97px;stroke:none;">Molecules</text>
   <text y="62.979" x="110.998,114.983,118.968,122.953" svgx:width="0.5,0.5,0.5,0.5" style="fill:rgb(0,0,0);font-family:URWPalladioL-Bold;font-size:7.97px;stroke:none;">2019</text>
   <text y="62.979" x="126.938" svgx:width="0.25" style="fill:rgb(0,0,0);font-family:URWPalladioL-Roma;font-size:7.97px;stroke:none;">,</text>
   <text y="62.979" x="130.923,134.908" svgx:width="0.5,0.5" style="fill:rgb(0,0,0);font-family:URWPalladioL-Ital;font-size:7.97px;stroke:none;">24</text>
   <text y="62.979" x="138.893,140.8855,142.878,146.863,150.848,154.833,158.818,495.794,499.779,501.772,506.123,508.7531,510.77,514.755" svgx:width="0.25,0.55,0.5,0.5,0.5,0.5,0.55,0.5,0.55,0.55,0.33,0.55,0.5,0.5" style="fill:rgb(0,0,0);font-family:URWPalladioL-Roma;font-size:7.97px;stroke:none;">, 1107 6 of 18</text>
   <text y="97.848" x="97.795,105.701,111.615,116.696,119.653,125.303,129.612,132.569,136.7522,140.444,145.993,149.2798,152.954,156.266,162.18,166.9608,170.615,176.722,180.736,183.693,189.607,194.119,197.076,203.184,208.264,211.1524,214.788,219.097,222.41,226.424,231.505,234.462,240.2388,243.953,249.034,254.277,259.145,263.453,265.943,269.835,278.31,284.224,287.181,291.693,297.46979999999996,301.174,305.686,310.767,316.5438,320.248,325.867,330.6478,334.312,340.419,345.287,349.301,352.685,358.233,362.247,371.22,376.087,382.1626,385.863,391.991,396.299,399.256,405.171,410.7486,414.387,417.7,423.614,428.3948,432.059,437.282,445.188,450.523,457.728,462.809,465.6974,469.332,473.641,478.509,482.523,488.264,493.132,497.116,500.712" svgx:width="0.78,0.58,0.5,0.29,0.56,0.42,0.29,0.42,0.55,0.55,0.33,0.55,0.33,0.58,0.48,0.55,0.6,0.4,0.29,0.58,0.44,0.29,0.6,0.5,0.29,0.55,0.42,0.33,0.4,0.5,0.29,0.58,0.55,0.5,0.52,0.48,0.42,0.25,0.55,0.83,0.58,0.29,0.44,0.58,0.55,0.44,0.5,0.58,0.55,0.55,0.48,0.55,0.6,0.48,0.4,0.33,0.55,0.4,0.88,0.48,0.61,0.55,0.6,0.42,0.29,0.58,0.56,0.55,0.33,0.58,0.48,0.55,0.6,0.78,0.52,0.71,0.5,0.29,0.55,0.42,0.48,0.4,0.56,0.48,0.4,0.55,0.33" style="fill:rgb(0,0,0);font-family:URWPalladioL-Roma;font-size:9.96px;stroke:none;">Analysis of the principal strain axes, which can be performed using the PASCal server [</text>
   <text y="97.848" x="504.099,509.08" svgx:width="0.5,0.5" style="fill:rgb(8,117,183);font-family:URWPalladioL-Roma;font-size:9.96px;stroke:none;">29</text>
   <text y="97.848" x="514.061,517.445" svgx:width="0.33,0.25" style="fill:rgb(0,0,0);font-family:URWPalladioL-Roma;font-size:9.96px;stroke:none;">],</text>
   <text y="111.358" x="76.535,81.616,84.573,87.53,93.078,101.553,105.7362,110.516,116.207,122.334,127.415,133.33,136.642,139.599,142.983,148.633,151.59,157.505,163.08259999999999,167.819,171.132,177.046,181.8268,186.568,191.079,196.628,205.601,211.708,215.539,220.406,224.715,229.024,231.981,237.6,240.557,243.515,246.472,249.784,255.36159999999998,260.099,265.647,268.9338,273.685,278.665,283.42,292.393,297.474,300.787,305.654,309.668,312.625,317.706,320.5944,325.328,330.408,336.323,342.3986,347.186,350.143,356.352,361.219,367.133,370.446,373.403,376.787,382.437,385.394,391.308,396.8856,401.613,404.925,410.839,415.6198,420.371,426.58,429.537,433.368,438.236,442.748,446.06,449.018,454.566,460.48,464.789,467.279,472.532,481.007,486.921,489.868,494.38,500.1568,504.958,510.039,513.87" svgx:width="0.5,0.29,0.29,0.55,0.83,0.42,0.55,0.56,0.6,0.5,0.58,0.33,0.29,0.33,0.56,0.29,0.58,0.56,0.55,0.33,0.58,0.48,0.55,0.44,0.55,0.88,0.6,0.4,0.48,0.42,0.42,0.29,0.55,0.29,0.29,0.29,0.33,0.56,0.55,0.55,0.33,0.55,0.5,0.55,0.88,0.5,0.33,0.48,0.4,0.29,0.5,0.29,0.55,0.5,0.58,0.61,0.55,0.29,0.61,0.48,0.58,0.33,0.29,0.33,0.56,0.29,0.58,0.56,0.55,0.33,0.58,0.48,0.55,0.61,0.29,0.4,0.48,0.44,0.33,0.29,0.55,0.58,0.42,0.25,0.55,0.83,0.58,0.29,0.44,0.58,0.55,0.5,0.4,0.48" style="fill:rgb(0,0,0);font-family:URWPalladioL-Roma;font-size:9.96px;stroke:none;">allows quantifying the compressibility of a material and identifying the directions, which are</text>
   <text y="124.867" x="76.535,79.848,85.762,90.5428,94.227,103.2,108.748,113.057,116.3438,119.957,122.914,131.887,137.994,143.542,147.556,150.869,155.95,161.864,165.1508,168.774,177.747,182.615,187.126,193.041,198.122,204.036,206.993,211.505,216.586,219.543,222.5,228.0776,231.737,234.694,240.4708,244.206,247.518,253.432,258.2128,261.887,266.399,270.413,276.063,280.372,283.684,288.765,291.6534,295.32,299.628,302.941,306.874,313.001,317.513,320.826,326.954,330.785,335.652,338.142,344.595,350.824,356.738,361.605,365.914,370.6948,374.369,383.342,388.423,392.965,395.455,399.377,404.925,408.909,412.526,421.499,426.58,432.1576,435.828,441.742,447.29,450.603,453.093,457.015,461.527,467.075,470.032,475.947,480.458,483.416,489.624,494.4048,498.079,506.554,509.511,512.824" svgx:width="0.33,0.58,0.48,0.55,0.88,0.55,0.42,0.33,0.55,0.29,0.88,0.6,0.55,0.4,0.33,0.5,0.58,0.33,0.55,0.88,0.48,0.44,0.58,0.5,0.58,0.29,0.44,0.5,0.29,0.29,0.56,0.55,0.29,0.58,0.55,0.33,0.58,0.48,0.55,0.44,0.4,0.56,0.42,0.33,0.5,0.29,0.55,0.42,0.33,0.4,0.6,0.44,0.33,0.6,0.4,0.48,0.25,0.55,0.61,0.58,0.48,0.42,0.48,0.55,0.88,0.5,0.56,0.25,0.55,0.55,0.4,0.55,0.88,0.5,0.56,0.55,0.58,0.55,0.33,0.25,0.55,0.44,0.55,0.29,0.58,0.44,0.29,0.61,0.48,0.55,0.83,0.29,0.33,0.58" style="fill:rgb(0,0,0);font-family:URWPalladioL-Roma;font-size:9.96px;stroke:none;">the most important mechanically in the crystal structure. These may, or may not, coincide with</text>
   <text y="138.377" x="76.535,81.047,85.061,90.711,95.019,98.332,103.413,106.37,109.327,114.876,120.526,124.54,129.621,135.728,141.642,144.599,148.98139999999998,151.936,158.145,161.102,164.943,169.811,174.322,177.635,180.582,186.131,192.045,196.2282,199.189,202.146,207.9228,210.885,214.198,220.112,224.8928,227.804,230.761,236.31,244.785,248.169,252.477,258.127,267.1,276.073,280.941,284.253,288.267,293.8446,296.742,301.051,306.701,311.009,314.322,319.19,328.163,332.471,334.961,337.928,343.548,349.675,352.96180000000004,355.813,360.325,365.406,371.1828,374.145,379.765,384.5458,387.457,392.325,395.536,398.91,403.777,408.289,411.602,414.559,420.3,425.168,428.125,433.7026,436.61,439.567,442.524,448.438,454.088,458.956,465.0316,467.99,471.303,476.781,479.676,482.989,488.903,493.6838,496.595,505.568,511.117,515.425" svgx:width="0.44,0.4,0.56,0.42,0.33,0.5,0.29,0.29,0.55,0.56,0.4,0.5,0.6,0.58,0.29,0.44,0.55,0.61,0.29,0.4,0.48,0.44,0.33,0.29,0.55,0.58,0.42,0.55,0.29,0.58,0.55,0.33,0.58,0.48,0.55,0.29,0.55,0.83,0.33,0.42,0.56,0.88,0.88,0.48,0.33,0.4,0.56,0.55,0.42,0.56,0.42,0.33,0.48,0.88,0.42,0.25,0.55,0.55,0.6,0.33,0.55,0.44,0.5,0.58,0.55,0.55,0.48,0.55,0.48,0.33,0.33,0.48,0.44,0.33,0.29,0.56,0.48,0.29,0.56,0.55,0.29,0.29,0.58,0.56,0.48,0.61,0.55,0.33,0.55,0.55,0.33,0.58,0.48,0.55,0.88,0.55,0.42,0.33" style="fill:rgb(0,0,0);font-family:URWPalladioL-Roma;font-size:9.96px;stroke:none;">crystallographic directions in the low-symmetry systems, but can be effectively linked to the most</text>
   <text y="151.886" x="76.535,79.492,88.465,94.572,100.121,104.135,107.447,112.528,118.442,121.72879999999999,124.977,127.934,133.848,137.161,142.028,146.042,155.015,160.563,163.52,168.388,172.9,179.027,181.985,187.065,191.049,194.291,197.248,203.162,206.475,211.342,215.356,220.437,224.949,228.262,231.219,236.767,242.681,246.99,249.48000000000002,254.804,262.57280000000003,265.921,270.23,276.358,285.331,294.303,299.384,303.398,308.97560000000004,312.27,317.818,321.1048,324.423,327.736,333.65,338.4308,341.729,346.037,349.35,353.364,358.445,361.402,367.17879999999997,370.538,373.85,378.718,384.632,388.941,394.489,398.47299999999996,401.724,406.805,412.72,417.8,420.758,426.408,430.716,433.673,437.8562,441.193,444.577,450.125" svgx:width="0.29,0.88,0.6,0.55,0.4,0.33,0.5,0.58,0.33,0.55,0.29,0.58,0.33,0.48,0.4,0.88,0.55,0.29,0.48,0.44,0.6,0.29,0.5,0.4,0.55,0.29,0.58,0.33,0.48,0.4,0.5,0.44,0.33,0.29,0.55,0.58,0.42,0.25,0.55,0.78,0.55,0.42,0.6,0.88,0.88,0.5,0.4,0.56,0.55,0.55,0.33,0.55,0.33,0.58,0.48,0.55,0.42,0.33,0.4,0.5,0.29,0.58,0.55,0.33,0.48,0.58,0.42,0.55,0.4,0.55,0.5,0.58,0.5,0.29,0.56,0.42,0.29,0.42,0.55,0.33,0.55,0.4" style="fill:rgb(0,0,0);font-family:URWPalladioL-Roma;font-size:9.96px;stroke:none;">important intermolecular interactions. A summary of the strain tensor analysis for</text>
   <text y="151.886" x="457.484,462.714" svgx:width="0.5,0.5" style="fill:rgb(0,0,0);font-family:URWPalladioL-Bold;font-size:9.96px;stroke:none;">1a</text>
   <text y="151.886" x="471.038,473.995,478.1782,481.525,487.175,490.132,495.874,500.741,506.51779999999997,509.866,512.824" svgx:width="0.29,0.42,0.55,0.56,0.29,0.56,0.48,0.58,0.55,0.29,0.58" style="fill:rgb(0,0,0);font-family:URWPalladioL-Roma;font-size:9.96px;stroke:none;">is given in</text>
   <text y="165.395" x="76.226,81.417,86.398,91.907,94.806" svgx:width="0.61,0.5,0.55,0.29,0.48" style="fill:rgb(0,0,0);font-family:URWPalladioL-Roma;font-size:9.96px;stroke:none;">Table</text>
   <text y="165.395" x="102.069" svgx:width="0.5" style="fill:rgb(8,117,183);font-family:URWPalladioL-Roma;font-size:9.96px;stroke:none;">2</text>
   <text y="165.395" x="107.05" svgx:width="0.25" style="fill:rgb(0,0,0);font-family:URWPalladioL-Roma;font-size:9.96px;stroke:none;">.</text>
   <text y="187.536" x="97.499,102.484,106.968,112.446,115.432,119.917,122.157,126.64" svgx:width="0.67,0.5,0.61,0.33,0.5,0.55,0.5,0.25" style="fill:rgb(0,0,0);font-family:URWPalladioL-Bold;font-size:8.97px;stroke:none;">Table 2.</text>
   <text y="187.536" x="131.661,137.097,142.258,146.5636,148.749,151.64,155.888,163.718,169.048,173.295,176.798,181.232,184.123,189.47,192.804,197.1096,199.295,202.248,209.148,212.1081,214.344,218.778,223.939,229.4107,231.601,236.93,240.265,244.512,248.272,252.032,257.379,260.723,264.97,267.923,270.504,275.665,281.083,286.43,290.368,294.615,300.0867,302.277,306.037,308.928,312.431,316.864,319.445,324.606,328.366,330.6085,333.359,338.262,342.696,346.456,350.704,356.1757,358.366,363.207,368.4096,370.612,374.86,379.436,384.765,389.013,392.515,395.096,402.926,407.174,412.335,415.226,419.66,422.2613,424.484,429.902,434.327,437.218,441.70300000000003,443.895,446.848,452.267,455.2271,457.463,461.897,467.058,472.5297,474.72,479.624,484.058,487.818,492.065" svgx:width="0.61,0.58,0.48,0.55,0.33,0.48,0.88,0.6,0.48,0.4,0.5,0.33,0.6,0.4,0.48,0.55,0.33,0.78,0.33,0.55,0.5,0.58,0.61,0.55,0.6,0.4,0.48,0.42,0.42,0.6,0.4,0.48,0.33,0.29,0.58,0.61,0.6,0.44,0.48,0.61,0.55,0.42,0.33,0.4,0.5,0.29,0.58,0.42,0.25,0.55,0.55,0.5,0.42,0.48,0.61,0.55,0.55,0.58,0.55,0.48,0.52,0.6,0.48,0.4,0.29,0.88,0.48,0.58,0.33,0.5,0.29,0.55,0.61,0.5,0.33,0.5,0.55,0.33,0.61,0.33,0.55,0.5,0.58,0.61,0.55,0.55,0.5,0.42,0.48,0.61" style="fill:rgb(0,0,0);font-family:URWPalladioL-Roma;font-size:8.97px;stroke:none;">The temperature (A) and pressure-induced strains: based on experimental data (B) and based</text>
   <text y="200.358" x="97.795,102.671,107.87360000000001,110.119,113.03,118.228,122.506,127.382,130.749,135.026,137.938,140.537,144.502,148.967,151.56830000000002,153.816,159.183,162.541,166.819,172.276,174.874,178.84,181.751,184.35,189.226,194.423,198.1904,200.46,203.434,209.766,212.74,214.98250000000002,217.223,222.697,227.895" svgx:width="0.55,0.58,0.55,0.33,0.58,0.48,0.55,0.4,0.48,0.33,0.29,0.44,0.5,0.29,0.55,0.6,0.4,0.48,0.61,0.29,0.44,0.33,0.29,0.55,0.58,0.42,0.55,0.33,0.71,0.33,0.25,0.55,0.61,0.58,0.48" style="fill:rgb(0,0,0);font-family:URWPalladioL-Roma;font-size:8.97px;stroke:none;">on theoretical predictions (C). The</text>
   <text y="200.358" x="234.534" svgx:width="0.53" style="fill:rgb(0,0,0);font-family:PazoMath-Italic;font-size:8.97px;stroke:none;">α</text>
   <text y="200.358" x="241.629,246.094,251.292,256.76370000000003,258.999,265.5471,267.733,270.332,275.529,280.986,283.585,287.55,292.015,294.926,299.2316,301.446,305.911,309.876,313.841,318.717,322.084,327.541,330.139,335.337,340.302,342.901,347.9242,350.117,353.028,358.226,362.5316,364.754,367.666,371.943,379.829,385.196,389.474,393.001,397.467,400.378,405.763,409.13,413.408,416.3681,418.632,423.508,427.096,429.286,434.645,438.011,442.289,446.076,449.862,455.247,458.614,462.9196,465.142,467.741,472.939,478.395,483.78,487.746,492.023" svgx:width="0.5,0.58,0.61,0.55,0.73,0.55,0.29,0.58,0.61,0.29,0.44,0.5,0.33,0.48,0.55,0.5,0.44,0.44,0.55,0.4,0.61,0.29,0.58,0.56,0.29,0.56,0.55,0.33,0.58,0.48,0.55,0.33,0.48,0.88,0.6,0.48,0.4,0.5,0.33,0.6,0.4,0.48,0.33,0.55,0.55,0.4,0.55,0.6,0.4,0.48,0.42,0.42,0.6,0.4,0.48,0.55,0.29,0.58,0.61,0.6,0.44,0.48,0.61" style="fill:rgb(0,0,0);font-family:URWPalladioL-Roma;font-size:8.97px;stroke:none;">and K indicate accordingly the temperature- or pressure induced</text>
   <text y="213.18" x="97.795,101.597,104.52,108.062,112.545,115.154,120.3566,122.614,127.68,132.163,134.772,140.179,144.474,148.2414,150.517,155.001,157.61,162.506,167.724,172.7472,174.951,177.874,183.092,187.3976,189.629,195.018,198.559,201.169,206.387,210.368,212.977,218.366,222.849,225.4503,227.7,232.183,236.81,241.105,244.907,247.14950000000002,249.39,253.873,256.1155,258.356,263.2895,265.556,270.04,275.258,280.7297,282.978,286.9248,289.201,291.81,297.028,302.507,305.116,309.097,313.58,316.503,320.8086,323.04,327.021,330.563,335.548,339.35,342.273,346.756,349.365,351.975,356.87,361.856,365.397,369.88,375.269,380.488,383.097,387.0438,389.32,394.798,397.407,400.788,405.082,409.064,411.987,414.596,419.491,424.71,428.512" svgx:width="0.42,0.33,0.4,0.5,0.29,0.58,0.55,0.56,0.5,0.29,0.6,0.48,0.42,0.55,0.5,0.29,0.55,0.58,0.56,0.55,0.33,0.58,0.48,0.55,0.6,0.4,0.29,0.58,0.44,0.29,0.6,0.5,0.29,0.55,0.5,0.52,0.48,0.42,0.25,0.55,0.5,0.25,0.55,0.55,0.55,0.5,0.58,0.61,0.55,0.44,0.55,0.29,0.58,0.61,0.29,0.44,0.5,0.33,0.48,0.55,0.44,0.4,0.56,0.42,0.33,0.5,0.29,0.29,0.55,0.56,0.4,0.5,0.6,0.58,0.29,0.44,0.55,0.61,0.29,0.4,0.48,0.44,0.33,0.29,0.55,0.58,0.42,0.25" style="fill:rgb(0,0,0);font-family:URWPalladioL-Roma;font-size:8.97px;stroke:none;">strain values along the principal axes, a, b and c indicate crystallographic directions.</text>
  </g>
  <path style="fill:none;stroke:rgb(0,0,0);stroke-width:1.0;" d="M141.73 223.4 L453.55 223.4 "/>
  <g begin="text">
   <text y="234.26" x="171.587" svgx:width="0.33" style="fill:rgb(0,0,0);font-family:URWPalladioL-Roma;font-size:8.97px;stroke:none;">(</text>
   <text y="234.26" x="174.573" svgx:width="0.78" style="fill:rgb(0,0,0);font-family:URWPalladioL-Bold;font-size:8.97px;stroke:none;">A</text>
   <text y="234.26" x="181.549" svgx:width="0.33" style="fill:rgb(0,0,0);font-family:URWPalladioL-Roma;font-size:8.97px;stroke:none;">)</text>
  </g>
  <path style="fill:none;stroke:rgb(0,0,0);stroke-width:0.8;" d="M141.73 239.51 L453.55 239.51 "/>
  <g begin="text">
   <text y="250.219" x="272.441,278.798,283.694,291.611,297.0,301.896,307.114,311.409,316.627,319.5871,321.792,326.275,328.884,333.78,338.999,344.0222,346.226,349.149,354.367,358.67260000000005,360.904,367.261,370.802,375.788,379.589,382.513,386.996,389.605,392.214,397.11,402.095,405.637,410.12,415.509,420.727,423.337,427.2838,429.559,436.535,441.162,443.771" svgx:width="0.71,0.55,0.88,0.6,0.55,0.58,0.48,0.58,0.33,0.55,0.5,0.29,0.55,0.58,0.56,0.55,0.33,0.58,0.48,0.55,0.71,0.4,0.56,0.42,0.33,0.5,0.29,0.29,0.55,0.56,0.4,0.5,0.6,0.58,0.29,0.44,0.55,0.78,0.52,0.29,0.42" style="fill:rgb(0,0,0);font-family:URWPalladioL-Roma;font-size:8.97px;stroke:none;">Component along the Crystallographic Axis</text>
  </g>
  <path style="fill:none;stroke:rgb(0,0,0);stroke-width:0.5;" d="M141.73 255.47 L453.55 255.47 "/>
  <g begin="text">
   <text y="266.63" x="147.706,153.122,156.663,159.273,164.491,168.472,171.081,176.47,180.953,183.5543,185.804,190.287,194.914,197.523,201.325,203.5675,205.808" svgx:width="0.6,0.4,0.29,0.58,0.44,0.29,0.6,0.5,0.29,0.55,0.5,0.52,0.29,0.42,0.25,0.55,0.29" style="fill:rgb(0,0,0);font-family:URWPalladioL-Roma;font-size:8.97px;stroke:none;">Principal axis, i</text>
   <text y="266.63" x="221.564" svgx:width="0.53" style="fill:rgb(0,0,0);font-family:PazoMath-Italic;font-size:8.97px;stroke:none;">α</text>
   <text y="266.63" x="226.522" svgx:width="0.39" style="fill:rgb(0,0,0);font-family:CMR10;font-size:9.34px;stroke:none;">(</text>
   <text y="266.63" x="230.772,239.514" svgx:width="0.94,0.67" style="fill:rgb(0,0,0);font-family:URWPalladioL-Ital;font-size:8.97px;stroke:none;">MK</text>
   <text y="263.376" x="245.838" svgx:width="0.78" style="fill:rgb(0,0,0);font-family:CMSY10;font-size:7.27px;stroke:none;">−</text>
   <text y="263.376" x="251.574" svgx:width="0.5" style="fill:rgb(0,0,0);font-family:URWPalladioL-Roma;font-size:6.97px;stroke:none;">1</text>
   <text y="266.63" x="255.671" svgx:width="0.39" style="fill:rgb(0,0,0);font-family:CMR10;font-size:9.34px;stroke:none;">)</text>
   <text y="266.63" x="286.271,290.75600000000003,319.787,325.2587,392.03" svgx:width="0.5,0.55,0.61,0.55,0.44" style="fill:rgb(0,0,0);font-family:URWPalladioL-Bold;font-size:8.97px;stroke:none;">a b c</text>
  </g>
  <path style="fill:none;stroke:rgb(0,0,0);stroke-width:0.5;" d="M141.73 271.88 L453.55 271.88 "/>
  <g begin="text">
   <text y="282.59" x="175.819,180.304,228.479,232.962,237.445,241.928,244.914,249.397" svgx:width="0.5,0.55,0.5,0.5,0.5,0.33,0.5,0.33" style="fill:rgb(0,0,0);font-family:URWPalladioL-Roma;font-size:8.97px;stroke:none;">3 100(3)</text>
   <text y="282.59" x="272.553" svgx:width="0.78" style="fill:rgb(0,0,0);font-family:CMSY10;font-size:9.34px;stroke:none;">−</text>
   <text y="282.59" x="279.928,284.411,286.653,291.136,295.619,300.102,304.587,320.286,324.771,381.688,386.171,388.413,392.896,397.379,401.862" svgx:width="0.5,0.25,0.5,0.5,0.5,0.5,0.55,0.5,0.55,0.5,0.25,0.5,0.5,0.5,0.5" style="fill:rgb(0,0,0);font-family:URWPalladioL-Roma;font-size:8.97px;stroke:none;">0.9498 0 0.3130</text>
   <text y="293.549" x="175.819,180.304,230.72,235.203,239.687,242.672,247.156,250.11610000000002,286.267,290.752,320.286,324.771,391.775" svgx:width="0.5,0.55,0.5,0.5,0.33,0.5,0.33,0.55,0.5,0.55,0.5,0.55,0.5" style="fill:rgb(0,0,0);font-family:URWPalladioL-Roma;font-size:8.97px;stroke:none;">2 40(1) 0 1 0</text>
   <text y="304.508" x="175.819,180.304,230.72,235.203,239.687,242.672,247.156" svgx:width="0.5,0.55,0.5,0.5,0.33,0.5,0.33" style="fill:rgb(0,0,0);font-family:URWPalladioL-Roma;font-size:8.97px;stroke:none;">1 22(1)</text>
   <text y="304.508" x="272.553" svgx:width="0.78" style="fill:rgb(0,0,0);font-family:CMSY10;font-size:9.34px;stroke:none;">−</text>
   <text y="304.508" x="279.928,284.411,286.653,291.136,295.619,300.102,304.587,320.286" svgx:width="0.5,0.25,0.5,0.5,0.5,0.5,0.55,0.5" style="fill:rgb(0,0,0);font-family:URWPalladioL-Roma;font-size:8.97px;stroke:none;">0.5189 0</text>
   <text y="304.508" x="378.058" svgx:width="0.78" style="fill:rgb(0,0,0);font-family:CMSY10;font-size:9.34px;stroke:none;">−</text>
   <text y="304.508" x="385.432,389.915,392.157,396.64,401.123,405.606" svgx:width="0.5,0.25,0.5,0.5,0.5,0.5" style="fill:rgb(0,0,0);font-family:URWPalladioL-Roma;font-size:8.97px;stroke:none;">0.8548</text>
  </g>
  <path style="fill:none;stroke:rgb(0,0,0);stroke-width:0.5;" d="M141.73 309.76 L453.55 309.76 "/>
  <g begin="text">
   <text y="320.468" x="172.085" svgx:width="0.33" style="fill:rgb(0,0,0);font-family:URWPalladioL-Roma;font-size:8.97px;stroke:none;">(</text>
   <text y="320.468" x="175.071" svgx:width="0.67" style="fill:rgb(0,0,0);font-family:URWPalladioL-Bold;font-size:8.97px;stroke:none;">B</text>
   <text y="320.468" x="181.051" svgx:width="0.33" style="fill:rgb(0,0,0);font-family:URWPalladioL-Roma;font-size:8.97px;stroke:none;">)</text>
  </g>
  <path style="fill:none;stroke:rgb(0,0,0);stroke-width:0.5;" d="M141.73 325.72 L453.55 325.72 "/>
  <g begin="text">
   <text y="336.427" x="272.441,278.798,283.694,291.611,297.0,301.896,307.114,311.409,316.627,319.5871,321.792,326.275,328.884,333.78,338.999,344.0222,346.226,349.149,354.367,358.67260000000005,360.904,367.261,370.802,375.788,379.589,382.513,386.996,389.605,392.214,397.11,402.095,405.637,410.12,415.509,420.727,423.337,427.2838,429.559,436.535,441.162,443.771" svgx:width="0.71,0.55,0.88,0.6,0.55,0.58,0.48,0.58,0.33,0.55,0.5,0.29,0.55,0.58,0.56,0.55,0.33,0.58,0.48,0.55,0.71,0.4,0.56,0.42,0.33,0.5,0.29,0.29,0.55,0.56,0.4,0.5,0.6,0.58,0.29,0.44,0.55,0.78,0.52,0.29,0.42" style="fill:rgb(0,0,0);font-family:URWPalladioL-Roma;font-size:8.97px;stroke:none;">Component along the Crystallographic Axis</text>
  </g>
  <path style="fill:none;stroke:rgb(0,0,0);stroke-width:0.5;" d="M141.73 341.68 L453.55 341.68 "/>
  <g begin="text">
   <text y="352.838" x="147.706,153.122,156.663,159.273,164.491,168.472,171.081,176.47,180.953,183.5543,185.804,190.287,194.914,197.523,201.325,203.5675,205.808" svgx:width="0.6,0.4,0.29,0.58,0.44,0.29,0.6,0.5,0.29,0.55,0.5,0.52,0.29,0.42,0.25,0.55,0.29" style="fill:rgb(0,0,0);font-family:URWPalladioL-Roma;font-size:8.97px;stroke:none;">Principal axis, i</text>
   <text y="352.838" x="220.492" svgx:width="0.67" style="fill:rgb(0,0,0);font-family:URWPalladioL-Ital;font-size:8.97px;stroke:none;">K</text>
   <text y="352.838" x="226.841" svgx:width="0.39" style="fill:rgb(0,0,0);font-family:CMR10;font-size:9.34px;stroke:none;">(</text>
   <text y="352.838" x="230.804,236.901,242.738" svgx:width="0.61,0.61,0.44" style="fill:rgb(0,0,0);font-family:URWPalladioL-Ital;font-size:8.97px;stroke:none;">TPa</text>
   <text y="349.584" x="246.918" svgx:width="0.78" style="fill:rgb(0,0,0);font-family:CMSY10;font-size:7.27px;stroke:none;">−</text>
   <text y="349.584" x="252.654" svgx:width="0.5" style="fill:rgb(0,0,0);font-family:URWPalladioL-Roma;font-size:6.97px;stroke:none;">1</text>
   <text y="352.838" x="256.751" svgx:width="0.39" style="fill:rgb(0,0,0);font-family:CMR10;font-size:9.34px;stroke:none;">)</text>
   <text y="352.838" x="286.271,290.75600000000003,319.787,325.2587,392.03" svgx:width="0.5,0.55,0.61,0.55,0.44" style="fill:rgb(0,0,0);font-family:URWPalladioL-Bold;font-size:8.97px;stroke:none;">a b c</text>
  </g>
  <path style="fill:none;stroke:rgb(0,0,0);stroke-width:0.5;" d="M141.73 358.09 L453.55 358.09 "/>
  <g begin="text">
   <text y="368.798" x="175.819,180.304,228.479,232.962,237.445,240.431,244.914,249.397,252.3571,276.18,280.663,282.905,287.388,291.871,296.354,300.839,320.286,324.771,381.688,386.171,388.412,392.896,397.379,401.862" svgx:width="0.5,0.55,0.5,0.5,0.33,0.5,0.5,0.33,0.55,0.5,0.25,0.5,0.5,0.5,0.5,0.55,0.5,0.55,0.5,0.25,0.5,0.5,0.5,0.5" style="fill:rgb(0,0,0);font-family:URWPalladioL-Roma;font-size:8.97px;stroke:none;">1 26(18) 0.9996 0 0.0268</text>
   <text y="379.757" x="175.819,180.304,228.479,232.962,237.445,240.431,244.914,249.397,252.3571,286.267" svgx:width="0.5,0.55,0.5,0.5,0.33,0.5,0.5,0.33,0.55,0.5" style="fill:rgb(0,0,0);font-family:URWPalladioL-Roma;font-size:8.97px;stroke:none;">2 17(10) 0</text>
   <text y="379.757" x="316.652" svgx:width="0.78" style="fill:rgb(0,0,0);font-family:CMSY10;font-size:9.34px;stroke:none;">−</text>
   <text y="379.757" x="324.027,328.512,391.777" svgx:width="0.5,0.55,0.5" style="fill:rgb(0,0,0);font-family:URWPalladioL-Roma;font-size:8.97px;stroke:none;">1 0</text>
   <text y="390.716" x="175.819,180.304,230.72,235.203,239.687,242.672,247.156,250.11610000000002,276.18,280.663,282.905,287.388,291.871,296.354,300.839,320.286,324.771,381.688,386.171,388.412,392.896,397.379,401.862" svgx:width="0.5,0.55,0.5,0.5,0.33,0.5,0.33,0.55,0.5,0.25,0.5,0.5,0.5,0.5,0.55,0.5,0.55,0.5,0.25,0.5,0.5,0.5,0.5" style="fill:rgb(0,0,0);font-family:URWPalladioL-Roma;font-size:8.97px;stroke:none;">3 11(4) 0.1353 0 0.9908</text>
  </g>
  <path style="fill:none;stroke:rgb(0,0,0);stroke-width:0.5;" d="M141.73 395.97 L453.55 395.97 "/>
  <g begin="text">
   <text y="406.676" x="171.838" svgx:width="0.33" style="fill:rgb(0,0,0);font-family:URWPalladioL-Roma;font-size:8.97px;stroke:none;">(</text>
   <text y="406.676" x="174.824" svgx:width="0.72" style="fill:rgb(0,0,0);font-family:URWPalladioL-Bold;font-size:8.97px;stroke:none;">C</text>
   <text y="406.676" x="181.298" svgx:width="0.33" style="fill:rgb(0,0,0);font-family:URWPalladioL-Roma;font-size:8.97px;stroke:none;">)</text>
  </g>
  <path style="fill:none;stroke:rgb(0,0,0);stroke-width:0.5;" d="M141.73 411.93 L453.55 411.93 "/>
  <g begin="text">
   <text y="422.635" x="272.441,278.798,283.694,291.611,297.0,301.896,307.114,311.409,316.627,319.5871,321.792,326.275,328.884,333.78,338.999,344.0222,346.226,349.149,354.367,358.67260000000005,360.904,367.261,370.802,375.788,379.589,382.513,386.996,389.605,392.214,397.11,402.095,405.637,410.12,415.509,420.727,423.337,427.2838,429.559,436.535,441.162,443.771" svgx:width="0.71,0.55,0.88,0.6,0.55,0.58,0.48,0.58,0.33,0.55,0.5,0.29,0.55,0.58,0.56,0.55,0.33,0.58,0.48,0.55,0.71,0.4,0.56,0.42,0.33,0.5,0.29,0.29,0.55,0.56,0.4,0.5,0.6,0.58,0.29,0.44,0.55,0.78,0.52,0.29,0.42" style="fill:rgb(0,0,0);font-family:URWPalladioL-Roma;font-size:8.97px;stroke:none;">Component along the Crystallographic Axis</text>
  </g>
  <path style="fill:none;stroke:rgb(0,0,0);stroke-width:0.5;" d="M141.73 427.89 L453.55 427.89 "/>
  <g begin="text">
   <text y="439.046" x="147.706,153.122,156.663,159.273,164.491,168.472,171.081,176.47,180.953,183.5543,185.804,190.287,194.914,197.523,201.325,203.5675,205.808" svgx:width="0.6,0.4,0.29,0.58,0.44,0.29,0.6,0.5,0.29,0.55,0.5,0.52,0.29,0.42,0.25,0.55,0.29" style="fill:rgb(0,0,0);font-family:URWPalladioL-Roma;font-size:8.97px;stroke:none;">Principal axis, i</text>
   <text y="439.046" x="220.492" svgx:width="0.67" style="fill:rgb(0,0,0);font-family:URWPalladioL-Ital;font-size:8.97px;stroke:none;">K</text>
   <text y="439.046" x="226.841" svgx:width="0.39" style="fill:rgb(0,0,0);font-family:CMR10;font-size:9.34px;stroke:none;">(</text>
   <text y="439.046" x="230.804,236.901,242.738" svgx:width="0.61,0.61,0.44" style="fill:rgb(0,0,0);font-family:URWPalladioL-Ital;font-size:8.97px;stroke:none;">TPa</text>
   <text y="435.791" x="246.918" svgx:width="0.78" style="fill:rgb(0,0,0);font-family:CMSY10;font-size:7.27px;stroke:none;">−</text>
   <text y="435.791" x="252.654" svgx:width="0.5" style="fill:rgb(0,0,0);font-family:URWPalladioL-Roma;font-size:6.97px;stroke:none;">1</text>
   <text y="439.046" x="256.751" svgx:width="0.39" style="fill:rgb(0,0,0);font-family:CMR10;font-size:9.34px;stroke:none;">)</text>
   <text y="439.046" x="286.271,290.75600000000003,319.787,325.2587,392.03" svgx:width="0.5,0.55,0.61,0.55,0.44" style="fill:rgb(0,0,0);font-family:URWPalladioL-Bold;font-size:8.97px;stroke:none;">a b c</text>
  </g>
  <path style="fill:none;stroke:rgb(0,0,0);stroke-width:0.5;" d="M141.73 444.3 L453.55 444.3 "/>
  <g begin="text">
   <text y="455.006" x="175.819,180.304,223.995,228.479,232.962,235.203,239.687,242.672,247.156,249.397,253.88,256.8401,276.18,280.663,282.905,287.388,291.871,296.354,300.839,320.286" svgx:width="0.5,0.55,0.5,0.5,0.25,0.5,0.33,0.5,0.25,0.5,0.33,0.55,0.5,0.25,0.5,0.5,0.5,0.5,0.55,0.5" style="fill:rgb(0,0,0);font-family:URWPalladioL-Roma;font-size:8.97px;stroke:none;">1 14.4(0.6) 0.9994 0</text>
   <text y="455.006" x="378.058" svgx:width="0.78" style="fill:rgb(0,0,0);font-family:CMSY10;font-size:9.34px;stroke:none;">−</text>
   <text y="455.006" x="385.432,389.915,392.157,396.64,401.123,405.606" svgx:width="0.5,0.25,0.5,0.5,0.5,0.5" style="fill:rgb(0,0,0);font-family:URWPalladioL-Roma;font-size:8.97px;stroke:none;">0.0349</text>
   <text y="465.965" x="175.819,180.304,223.995,228.479,232.962,235.203,239.687,242.672,247.156,249.397,253.88" svgx:width="0.5,0.55,0.5,0.5,0.25,0.5,0.33,0.5,0.25,0.5,0.33" style="fill:rgb(0,0,0);font-family:URWPalladioL-Roma;font-size:8.97px;stroke:none;">2 12.2(1.9)</text>
   <text y="465.965" x="272.553" svgx:width="0.78" style="fill:rgb(0,0,0);font-family:CMSY10;font-size:9.34px;stroke:none;">−</text>
   <text y="465.965" x="279.928,284.411,286.653,291.136,295.619,300.102,304.587,320.286" svgx:width="0.5,0.25,0.5,0.5,0.5,0.5,0.55,0.5" style="fill:rgb(0,0,0);font-family:URWPalladioL-Roma;font-size:8.97px;stroke:none;">0.2095 0</text>
   <text y="465.965" x="378.058" svgx:width="0.78" style="fill:rgb(0,0,0);font-family:CMSY10;font-size:9.34px;stroke:none;">−</text>
   <text y="465.965" x="385.432,389.915,392.157,396.64,401.123,405.606" svgx:width="0.5,0.25,0.5,0.5,0.5,0.5" style="fill:rgb(0,0,0);font-family:URWPalladioL-Roma;font-size:8.97px;stroke:none;">0.9778</text>
   <text y="476.924" x="175.819,180.304,226.237,230.72,232.962,237.445,240.431,244.914,247.156,251.639,254.59910000000002,286.267" svgx:width="0.5,0.55,0.5,0.25,0.5,0.33,0.5,0.25,0.5,0.33,0.55,0.5" style="fill:rgb(0,0,0);font-family:URWPalladioL-Roma;font-size:8.97px;stroke:none;">3 6.2(2.6) 0</text>
   <text y="476.924" x="316.652" svgx:width="0.78" style="fill:rgb(0,0,0);font-family:CMSY10;font-size:9.34px;stroke:none;">−</text>
   <text y="476.924" x="324.027,328.512,391.777" svgx:width="0.5,0.55,0.5" style="fill:rgb(0,0,0);font-family:URWPalladioL-Roma;font-size:8.97px;stroke:none;">1 0</text>
  </g>
  <path style="fill:none;stroke:rgb(0,0,0);stroke-width:0.5;" d="M141.73 482.33 L453.55 482.33 "/>
  <g begin="text">
   <text y="508.188" x="97.795,101.22,107.134,110.447,115.314,119.145,124.013,128.321,131.634,134.591,140.505,146.155,149.112,154.68959999999998,159.691,164.558,170.473,176.021,182.149,187.799,193.713" svgx:width="0.34,0.58,0.33,0.48,0.4,0.48,0.42,0.33,0.29,0.58,0.56,0.29,0.56,0.55,0.48,0.58,0.55,0.6,0.56,0.58,0.25" style="fill:rgb(0,0,0);font-family:URWPalladioL-Roma;font-size:9.96px;stroke:none;">Interestingly enough,</text>
   <text y="508.188" x="201.913,207.143" svgx:width="0.5,0.5" style="fill:rgb(0,0,0);font-family:URWPalladioL-Bold;font-size:9.96px;stroke:none;">1a</text>
   <text y="508.188" x="217.176,221.485,227.399,232.947,241.422,246.29,252.3656,257.427,260.74,266.654,271.4348,276.45,282.1,285.931,290.799,295.88,299.192,304.06,308.368,311.6548,316.61,321.122,326.67,335.643,341.75,345.581,350.449,354.757,359.066,362.023,367.643,370.6,373.557,376.514,379.827,385.4046,390.405,393.362,399.1388,404.195,407.507,413.422,418.2028,423.218,429.427,432.384,436.225,441.092,445.604,448.907,451.864,457.412,463.18879999999996,468.255,473.803" svgx:width="0.42,0.58,0.55,0.83,0.48,0.61,0.55,0.33,0.58,0.48,0.55,0.56,0.4,0.48,0.5,0.33,0.48,0.42,0.33,0.55,0.44,0.55,0.88,0.6,0.4,0.48,0.42,0.42,0.29,0.55,0.29,0.29,0.29,0.33,0.56,0.55,0.29,0.58,0.55,0.33,0.58,0.48,0.55,0.61,0.29,0.4,0.48,0.44,0.33,0.29,0.55,0.58,0.55,0.55,0.33" style="fill:rgb(0,0,0);font-family:URWPalladioL-Roma;font-size:9.96px;stroke:none;">showed the greatest compressibility in the direction of</text>
   <text y="508.188" x="482.116" svgx:width="0.61" style="fill:rgb(0,0,0);font-family:EURM10;font-size:9.96px;stroke:none;">π</text>
   <text y="508.188" x="488.184,491.568,495.877,499.189,504.27,508.782,514.432" svgx:width="0.33,0.42,0.33,0.5,0.44,0.56,0.42" style="fill:rgb(0,0,0);font-family:URWPalladioL-Roma;font-size:9.96px;stroke:none;">-stacks</text>
   <text y="521.698" x="76.207,79.518,84.489,90.465,96.44,100.189,105.617,110.589,115.003,120.79,123.683,129.47,135.0476,137.494,142.465,153.312,158.284,161.5708,164.031,169.002,171.488,176.468,178.955,186.541,192.546,197.52599999999998,200.013,204.985,209.399,213.814,219.242,222.991,229.066,231.959,237.746,243.3236,245.769,249.011,254.489,256.935,261.698,266.828,272.804,277.566,281.493,284.387,293.166,297.929,303.715,306.957,310.268,312.758,315.865,321.96,327.747,330.64,334.8232,337.351,340.245,344.4282,346.956,351.927,354.821,359.036,364.514,366.971,370.212,375.999,380.7798,383.257,389.332,392.225,395.973,400.736,405.151,408.392,411.285,416.714,422.4908,424.996,430.425,433.71180000000004,436.231,439.473,445.259,450.0398,452.517,455.411,460.382,464.131,469.659,474.421,478.637,481.9238,484.374,487.615,493.402,498.164,502.092,510.871,515.842" svgx:width="0.33,0.5,0.6,0.6,0.4,0.55,0.5,0.44,0.58,0.29,0.58,0.56,0.55,0.5,0.84,0.5,0.33,0.55,0.5,0.25,0.5,0.55,0.76,0.6,0.5,0.55,0.5,0.44,0.44,0.55,0.4,0.61,0.29,0.58,0.56,0.55,0.33,0.55,0.55,0.48,0.52,0.6,0.48,0.4,0.29,0.88,0.48,0.58,0.33,0.33,0.25,0.55,0.61,0.58,0.29,0.42,0.55,0.29,0.42,0.55,0.5,0.29,0.42,0.55,0.55,0.33,0.58,0.48,0.55,0.61,0.29,0.4,0.48,0.44,0.33,0.29,0.55,0.58,0.55,0.55,0.33,0.55,0.33,0.58,0.48,0.55,0.29,0.5,0.4,0.56,0.48,0.42,0.33,0.55,0.33,0.58,0.48,0.4,0.88,0.5,0.29" style="fill:rgb(0,0,0);font-family:URWPalladioL-Roma;font-size:9.96px;stroke:none;">(approaching 5%at 2.2 GPa according to experiment). This is also the direction of the largest thermal</text>
   <text y="535.207" x="76.535,81.403,86.646,92.753,97.834,103.748,108.057,111.014,116.563,122.477,124.967,129.265,134.6,140.727,145.239,151.0158,154.039,159.01899999999998,161.996,166.508,172.056,175.014,180.928,185.44,188.397,194.606,199.473,205.387,209.899,214.6798,217.642,220.6,224.7832,227.784,230.741,236.51780000000002,239.541,244.622,249.134,253.646,259.194,263.025,269.234,274.315,280.229,284.741,289.5218,292.484,300.959,303.917,307.229,313.00579999999997,316.019,319.332,325.246,330.0268,333.0,338.548,344.655,350.763,356.311,360.62,363.577,366.889,371.6698,374.633,380.252,385.12,391.034,396.115,401.856,404.814,410.362,414.346,417.252,422.8,426.08680000000004,429.06,434.608,438.449,444.099,449.18,455.094,458.051,462.4334,465.439,474.412,479.493,482.806,487.673,491.687,494.644,499.725,502.682,506.8652,509.867,512.824" svgx:width="0.48,0.52,0.6,0.5,0.58,0.42,0.29,0.55,0.58,0.25,0.55,0.52,0.6,0.44,0.58,0.55,0.5,0.55,0.44,0.55,0.29,0.58,0.44,0.29,0.61,0.48,0.58,0.44,0.48,0.55,0.29,0.42,0.55,0.29,0.58,0.55,0.5,0.44,0.44,0.55,0.4,0.61,0.5,0.58,0.44,0.48,0.55,0.83,0.29,0.33,0.58,0.55,0.33,0.58,0.48,0.55,0.55,0.6,0.6,0.55,0.42,0.29,0.33,0.48,0.55,0.55,0.48,0.58,0.5,0.56,0.29,0.55,0.4,0.55,0.55,0.33,0.55,0.55,0.4,0.56,0.5,0.58,0.29,0.44,0.55,0.88,0.5,0.33,0.48,0.4,0.29,0.5,0.29,0.42,0.55,0.29,0.58" style="fill:rgb(0,0,0);font-family:URWPalladioL-Roma;font-size:9.96px;stroke:none;">expansion. Such a coincidence is in accordance with the opposite behavior of organic materials in</text>
   <text y="548.716" x="76.535,80.325,85.14,89.402,95.443,100.932,106.782,111.044,115.8248,118.342,121.619,127.097,129.581,134.607,140.3838,142.94,145.865,151.716,156.179,159.969,164.784,169.81,174.072,178.8528,181.37,184.295,190.0718,192.629,197.434,200.359,203.636,209.486,214.301,218.285,220.755,224.032,228.847,237.723,243.764,248.579,252.55,257.576,260.853,266.915,270.705,275.4858,278.002,283.491,287.47499999999997,289.935,295.976,299.776,304.591,308.853,313.115,319.177,322.966,327.7468,330.254" svgx:width="0.4,0.48,0.42,0.6,0.55,0.58,0.42,0.48,0.55,0.33,0.55,0.55,0.5,0.58,0.55,0.29,0.58,0.44,0.4,0.48,0.5,0.42,0.48,0.55,0.29,0.58,0.55,0.48,0.29,0.33,0.58,0.48,0.4,0.55,0.33,0.48,0.88,0.6,0.48,0.4,0.5,0.33,0.6,0.4,0.48,0.55,0.55,0.4,0.55,0.6,0.4,0.48,0.42,0.42,0.6,0.4,0.48,0.55,0.33" style="fill:rgb(0,0,0);font-family:URWPalladioL-Roma;font-size:9.96px;stroke:none;">response to an increase in either temperature or pressure [</text>
   <text y="548.716" x="333.606,338.587" svgx:width="0.5,0.5" style="fill:rgb(8,117,183);font-family:URWPalladioL-Roma;font-size:9.96px;stroke:none;">30</text>
   <text y="548.716" x="343.569" svgx:width="0.25" style="fill:rgb(0,0,0);font-family:URWPalladioL-Roma;font-size:9.96px;stroke:none;">,</text>
   <text y="548.716" x="346.082,351.063" svgx:width="0.5,0.5" style="fill:rgb(8,117,183);font-family:URWPalladioL-Roma;font-size:9.96px;stroke:none;">31</text>
   <text y="548.716" x="356.044,359.391,361.88100000000003,364.991,372.892,378.6688,381.225,384.502,390.352,395.1328,397.64,403.129,406.406,412.256,417.071,421.055,423.525,429.375,434.401,440.252,446.394,448.884,451.39,454.667,460.517,465.2978,467.805,473.947,476.872,480.662,485.477,489.94,493.217,496.142,501.631,507.40779999999995,509.964,512.889" svgx:width="0.33,0.25,0.55,0.79,0.58,0.55,0.33,0.58,0.48,0.55,0.55,0.33,0.58,0.48,0.4,0.55,0.58,0.5,0.58,0.61,0.25,0.55,0.33,0.58,0.48,0.55,0.61,0.29,0.4,0.48,0.44,0.33,0.29,0.55,0.58,0.55,0.29,0.58" style="fill:rgb(0,0,0);font-family:URWPalladioL-Roma;font-size:9.96px;stroke:none;">]. On the other hand, the direction in</text>
   <text y="562.226" x="76.117,84.592,90.506,93.463,97.975,103.889,106.37899999999999,109.458,114.539,119.051,123.563,129.111,132.952,139.161,142.118,148.032,153.6096,156.599,159.912,165.39000000000001,168.387,171.699,177.614,182.481,188.029,191.861,196.728,200.041,202.998,207.51,212.591,215.4794,218.474,224.582,228.413,233.28,239.489,242.446,246.958,250.271,253.228,258.776,264.69,268.999,271.48900000000003,274.578,279.558,282.575,287.087,291.101,296.751,301.06,304.373,309.453,312.34139999999996,315.337,318.294,322.4772,325.529,328.842,334.756,339.53679999999997,342.54,345.497,350.365,355.446,359.755,363.0418,365.994,370.506,376.054,385.027,391.134,394.965,399.833,404.142,408.45,411.407,417.027,419.984,424.7648,427.778,430.735,434.9182,437.97,441.801,447.35,453.477,459.127,465.041,467.999,473.57660000000004,476.575,481.656,484.613,490.162,496.076,501.65360000000004,504.642,507.955,513.869" svgx:width="0.83,0.58,0.29,0.44,0.58,0.25,0.55,0.5,0.44,0.44,0.55,0.4,0.61,0.29,0.58,0.56,0.55,0.33,0.55,0.55,0.33,0.58,0.48,0.55,0.4,0.48,0.33,0.29,0.44,0.5,0.29,0.55,0.6,0.4,0.48,0.61,0.29,0.44,0.33,0.29,0.55,0.58,0.42,0.25,0.55,0.5,0.55,0.44,0.4,0.56,0.42,0.33,0.5,0.29,0.55,0.29,0.42,0.55,0.33,0.58,0.48,0.55,0.29,0.48,0.5,0.42,0.33,0.55,0.44,0.55,0.88,0.6,0.4,0.48,0.42,0.42,0.29,0.55,0.29,0.48,0.55,0.29,0.42,0.55,0.4,0.55,0.6,0.56,0.58,0.29,0.56,0.55,0.5,0.29,0.55,0.58,0.56,0.55,0.33,0.58,0.48" style="fill:rgb(0,0,0);font-family:URWPalladioL-Roma;font-size:9.96px;stroke:none;">which, according to theoretical predictions, a crystal is the least compressible is roughly along the</text>
   <text y="575.735" x="76.535,82.744,85.701,89.532,94.4,98.911,102.224,105.181,110.73,116.5068,119.581,125.129,128.41580000000002,131.439,134.752,140.666,145.4468,148.461,153.542,158.053,162.921,166.234,171.884,174.841,179.708,185.622,190.4028,193.417,196.801,200.814,205.895,211.545,220.518,225.386,231.3,234.613,237.103,240.192,243.149,248.9258,251.99,260.465,266.379,269.336,273.848,279.6248,282.699,285.656,291.57,294.883,299.75,303.764,312.737,318.285,321.243,326.11,330.622,336.739,339.696,344.777,348.76099999999997,351.728,354.685,360.599,363.912,368.78,372.794,377.875,382.386,385.699,388.656,394.205,400.119,404.3022,407.354,411.866,417.414,423.328,427.637,430.594,434.903,438.18980000000005,441.142,450.115,455.196,458.153,464.067,467.024,472.6016,475.601,481.149,484.43580000000003,487.46" svgx:width="0.61,0.29,0.4,0.48,0.44,0.33,0.29,0.55,0.58,0.55,0.55,0.33,0.55,0.33,0.58,0.48,0.55,0.5,0.44,0.48,0.33,0.56,0.29,0.48,0.58,0.48,0.55,0.33,0.4,0.5,0.56,0.88,0.48,0.58,0.33,0.25,0.55,0.29,0.58,0.55,0.83,0.58,0.29,0.44,0.58,0.55,0.29,0.58,0.33,0.48,0.4,0.88,0.55,0.29,0.48,0.44,0.6,0.29,0.5,0.4,0.55,0.29,0.58,0.33,0.48,0.4,0.5,0.44,0.33,0.29,0.55,0.58,0.42,0.55,0.44,0.55,0.58,0.42,0.29,0.42,0.33,0.55,0.88,0.5,0.29,0.58,0.29,0.56,0.55,0.55,0.33,0.55,0.83" style="fill:rgb(0,0,0);font-family:URWPalladioL-Roma;font-size:9.96px;stroke:none;">direction of the acetylene fragment, in which intermolecular interactions consist mainly of H</text>
   <text y="575.735" x="496.044,498.9504,500.828,503.7344,505.622" svgx:width="0.28,0.55,0.28,0.55,0.28" style="fill:rgb(0,0,0);font-family:CMSY10;font-size:10.38px;stroke:none;">· · ·</text>
   <text y="575.735" x="510.286" svgx:width="0.83" style="fill:rgb(0,0,0);font-family:URWPalladioL-Roma;font-size:9.96px;stroke:none;">H</text>
   <text y="589.245" x="76.535,80.945,86.368,92.149,95.387,100.354,104.764,108.002,112.213,114.70299999999999,117.786,123.874,129.655,134.413,138.624,143.4048,145.855,150.822,154.566,159.3468,161.807,167.588,173.011,176.2978,178.723,184.335,189.093,193.016,198.59359999999998,201.022,205.233,208.471,213.438,218.93,221.821,224.711,227.602,232.568,235.458,241.239,246.8166,249.235,253.993,259.605,264.363,270.1398,272.627,277.593,280.87980000000005,283.304,288.271,297.041,302.534,305.424,310.182,315.963,319.24980000000005,321.684,326.094,331.518,337.299,343.367,346.258,349.496,352.386,357.81,363.59,367.7732,370.275,373.583,377.794,382.552,387.3328,389.793,394.968,399.934,405.427,408.317" svgx:width="0.44,0.55,0.58,0.33,0.5,0.44,0.33,0.42,0.25,0.55,0.61,0.58,0.48,0.42,0.48,0.55,0.5,0.4,0.48,0.55,0.58,0.55,0.33,0.55,0.56,0.48,0.4,0.56,0.55,0.42,0.33,0.5,0.55,0.29,0.29,0.29,0.5,0.29,0.58,0.56,0.55,0.48,0.56,0.48,0.58,0.55,0.5,0.33,0.55,0.5,0.88,0.55,0.29,0.48,0.58,0.33,0.55,0.44,0.55,0.58,0.61,0.29,0.33,0.29,0.55,0.58,0.42,0.55,0.33,0.42,0.48,0.48,0.55,0.61,0.5,0.55,0.29,0.48" style="fill:rgb(0,0,0);font-family:URWPalladioL-Roma;font-size:9.96px;stroke:none;">contacts. These are not very stabilizing even at ambient conditions (see Table</text>
   <text y="589.245" x="415.548" svgx:width="0.5" style="fill:rgb(8,117,183);font-family:URWPalladioL-Roma;font-size:9.96px;stroke:none;">1</text>
   <text y="589.245" x="420.515,423.005,425.481,428.719,434.5,439.2808,441.741,450.512,455.935,458.825,463.583,467.993,473.983,476.873,481.631,485.81419999999997,488.315,492.06,496.818,499.708,504.675,507.913,512.671" svgx:width="0.25,0.55,0.33,0.58,0.48,0.55,0.88,0.55,0.29,0.48,0.44,0.6,0.29,0.48,0.42,0.55,0.4,0.48,0.29,0.5,0.33,0.48,0.61" style="fill:rgb(0,0,0);font-family:URWPalladioL-Roma;font-size:9.96px;stroke:none;">, the molecules related</text>
   <text y="602.754" x="76.535,82.155" svgx:width="0.55,0.56" style="fill:rgb(0,0,0);font-family:URWPalladioL-Roma;font-size:9.96px;stroke:none;">by</text>
   <text y="602.754" x="90.823" svgx:width="0.78" style="fill:rgb(0,0,0);font-family:CMSY10;font-size:10.38px;stroke:none;">−</text>
   <text y="602.754" x="99.017,104.261,106.75099999999999,109.799,115.37660000000001,118.335,124.41059999999999,127.389,132.47,138.628,143.709" svgx:width="0.52,0.25,0.55,0.56,0.55,0.61,0.55,0.5,0.61,0.5,0.25" style="fill:rgb(0,0,0);font-family:URWPalladioL-Roma;font-size:9.96px;stroke:none;">x, y + 1/2,</text>
   <text y="602.754" x="149.368" svgx:width="0.78" style="fill:rgb(0,0,0);font-family:CMSY10;font-size:10.38px;stroke:none;">−</text>
   <text y="602.754" x="157.563,162.54299999999998,165.54,171.6156,174.584,179.665,185.823,190.803,193.8,198.109,203.759,212.732,221.705,226.572,229.885,233.899,239.549,242.8358,245.829,250.91,256.824,262.8996,265.929,274.902,279.983,285.5606,288.519,294.138,298.9188,301.902,306.769,312.013,318.12,322.988,327.5,330.812,335.68,341.7556,344.785,348.098,353.576,356.532,362.152,367.019,371.531,377.079,386.052,390.8328,393.816,397.647,402.514,408.622,414.749,417.706,422.015,424.972,430.714,435.4948,438.477,444.219,449.086,453.1,458.67760000000004,461.646,467.337,473.464,476.422,480.933,486.583,489.54,495.11760000000004,498.076,506.551,509.509,512.821" svgx:width="0.5,0.55,0.61,0.55,0.5,0.61,0.5,0.55,0.42,0.56,0.88,0.88,0.48,0.33,0.4,0.56,0.33,0.55,0.5,0.58,0.61,0.55,0.88,0.5,0.56,0.55,0.55,0.48,0.55,0.48,0.52,0.6,0.48,0.44,0.33,0.48,0.61,0.55,0.33,0.55,0.55,0.55,0.48,0.44,0.55,0.88,0.48,0.55,0.4,0.48,0.6,0.6,0.29,0.42,0.29,0.56,0.48,0.55,0.56,0.48,0.4,0.56,0.55,0.56,0.6,0.29,0.44,0.56,0.29,0.56,0.55,0.83,0.29,0.33,0.58" style="fill:rgb(0,0,0);font-family:URWPalladioL-Roma;font-size:9.96px;stroke:none;">z + 1/2 symmetry) and may be expected to become repulsive very quickly with</text>
   <text y="616.263" x="76.535,80.759,86.557,91.997,95.932,99.18,103.952,109.75,112.649,118.448,124.0256,126.478,129.377,135.175,138.423,143.195,147.13,155.927,161.367,164.266,169.038,173.461,179.469,182.368,187.349,191.333,193.775,199.862,202.761,206.985,210.233,215.214,221.013,225.436,230.208,234.432" svgx:width="0.42,0.58,0.55,0.4,0.33,0.48,0.58,0.29,0.58,0.56,0.55,0.29,0.58,0.33,0.48,0.4,0.88,0.55,0.29,0.48,0.44,0.6,0.29,0.5,0.4,0.55,0.61,0.29,0.42,0.33,0.5,0.58,0.44,0.48,0.42,0.25" style="fill:rgb(0,0,0);font-family:URWPalladioL-Roma;font-size:9.96px;stroke:none;">shortening intermolecular distances.</text>
   <text y="629.773" x="97.795,104.024,109.938,114.806,118.82,127.793,132.874,135.76239999999999,138.514,143.381,148.625,154.732,159.813,165.727,170.036,172.993,178.541,184.3178,187.138,190.095,194.2782,197.086,200.399,206.313,211.0938,213.874,218.182,227.155,232.236,235.193,238.15,243.018,247.327,250.6138,253.322,256.279,262.0558,264.876,268.707,274.255,280.383,286.033,291.947,294.904,300.4816,303.237,306.621,311.702,316.783,321.864,325.1508,327.941,334.149,337.107,340.938,345.805,350.317,353.63,356.587,362.135,368.049,370.539,373.323,376.28,378.821,383.688,386.229,388.719,391.503,394.46,400.23679999999996,403.057,406.37,412.284,417.0648,419.834,426.043,429.0,432.841,437.709,442.221,445.534,448.491,454.039,459.81579999999997,462.636,465.593,471.3698,474.19,482.665,488.579,491.536,496.048,501.8248,504.645,507.958,513.872" svgx:width="0.61,0.58,0.48,0.4,0.88,0.5,0.29,0.55,0.48,0.52,0.6,0.5,0.58,0.42,0.29,0.55,0.58,0.55,0.29,0.42,0.55,0.33,0.58,0.48,0.55,0.42,0.88,0.5,0.29,0.29,0.48,0.42,0.33,0.55,0.29,0.58,0.55,0.4,0.55,0.6,0.56,0.58,0.29,0.56,0.55,0.33,0.5,0.5,0.5,0.33,0.55,0.61,0.29,0.4,0.48,0.44,0.33,0.29,0.55,0.58,0.25,0.55,0.29,0.25,0.48,0.25,0.25,0.55,0.29,0.58,0.55,0.33,0.58,0.48,0.55,0.61,0.29,0.4,0.48,0.44,0.33,0.29,0.55,0.58,0.55,0.29,0.58,0.55,0.83,0.58,0.29,0.44,0.58,0.55,0.33,0.58,0.48" style="fill:rgb(0,0,0);font-family:URWPalladioL-Roma;font-size:9.96px;stroke:none;">Thermal expansion is the smallest in roughly [203] direction, i.e., in the direction in which the</text>
   <text y="643.282" x="76.535,83.697,88.748" svgx:width="0.71,0.5,0.83" style="fill:rgb(0,0,0);font-family:URWPalladioL-Roma;font-size:9.96px;stroke:none;">C–H</text>
   <text y="643.282" x="97.278,100.18440000000001,102.072,104.97840000000001,106.856" svgx:width="0.28,0.55,0.28,0.55,0.28" style="fill:rgb(0,0,0);font-family:CMSY10;font-size:10.38px;stroke:none;">· · ·</text>
   <text y="643.282" x="111.52,119.38839999999999,121.955,130.36,133.724,139.311,144.827,150.706,156.878,161.06119999999999,163.667,168.718,172.526,177.3068,179.861,185.932,189.75,194.589,198.873,203.712,209.591,212.884,215.374,218.521,226.381,230.866,235.351,240.867,244.675,250.848,253.788,259.667,265.2446,267.789,271.082,276.56,279.093,283.932,288.215,291.509,294.448,303.369,308.42,311.713,316.552,320.7352,323.34,328.856,332.1428,334.715,337.655,343.534,346.828,351.667,355.657,364.577,370.093,373.032,377.871,382.357,388.448,391.388,396.439,400.423,402.924,405.864,411.744,415.037,419.876,423.866,428.917,433.402,436.696,439.635,445.151,450.9278,453.536,458.375,464.254,469.093,472.902,478.518,481.458,486.297,490.58,493.07,495.611,498.904,504.784,509.623,513.906" svgx:width="0.79,0.55,0.83,0.33,0.55,0.55,0.58,0.61,0.42,0.55,0.5,0.4,0.48,0.55,0.6,0.4,0.48,0.42,0.48,0.58,0.33,0.25,0.55,0.78,0.44,0.44,0.55,0.4,0.61,0.29,0.58,0.56,0.55,0.33,0.55,0.55,0.48,0.42,0.33,0.29,0.88,0.5,0.33,0.48,0.42,0.55,0.55,0.33,0.55,0.29,0.58,0.33,0.48,0.4,0.88,0.55,0.29,0.48,0.44,0.6,0.29,0.5,0.4,0.55,0.29,0.58,0.33,0.48,0.4,0.5,0.44,0.33,0.29,0.55,0.58,0.55,0.48,0.58,0.48,0.4,0.56,0.29,0.48,0.42,0.25,0.55,0.33,0.58,0.48,0.42,0.48" style="fill:rgb(0,0,0);font-family:URWPalladioL-Roma;font-size:9.96px;stroke:none;">O H-bonds are present. According to estimates of intermolecular interaction energies, these</text>
   <text y="656.792" x="76.535,82.58,85.458,89.188,93.927,98.319,101.544,104.423,109.824,115.582,120.529,123.4174,125.89,128.769,134.527,137.752,142.491,146.398,151.345,155.737,158.962,161.841,167.243,173.0,177.1832,179.668,185.713,191.191,193.597,199.355,204.756,208.0428,210.465,215.203,218.32,221.614,226.353,230.745,233.97,236.849,242.438,247.177,250.056,255.6336,258.039,266.29,269.169,272.394,278.152,282.346,285.571,290.518,296.275,302.3506,304.803,309.195,314.597,323.332,329.278,333.007,337.746,341.941,346.135,349.014,354.416,360.173,362.663,365.13,370.6,376.566,379.8528,382.264,385.489,391.247,395.985,401.56260000000003,403.969,408.163,412.902,417.641,428.859,432.084,437.562,439.969,444.915,449.308,452.5948,455.016,459.962,464.1452,466.64,471.587,475.979,478.858,483.804,492.54,498.485,502.68,507.66,510.099,512.978" svgx:width="0.61,0.29,0.4,0.48,0.44,0.33,0.29,0.55,0.58,0.5,0.29,0.55,0.29,0.58,0.33,0.48,0.4,0.5,0.44,0.33,0.29,0.55,0.58,0.42,0.55,0.61,0.55,0.55,0.58,0.55,0.33,0.55,0.48,0.33,0.33,0.48,0.44,0.33,0.29,0.56,0.48,0.29,0.56,0.55,0.83,0.29,0.33,0.58,0.42,0.33,0.5,0.58,0.61,0.55,0.44,0.55,0.88,0.6,0.4,0.48,0.42,0.42,0.29,0.55,0.58,0.25,0.55,0.55,0.6,0.33,0.55,0.33,0.58,0.48,0.56,0.55,0.42,0.48,0.48,0.88,0.33,0.55,0.55,0.5,0.44,0.33,0.55,0.5,0.42,0.55,0.5,0.44,0.29,0.5,0.88,0.6,0.42,0.5,0.55,0.29,0.58" style="fill:rgb(0,0,0);font-family:URWPalladioL-Roma;font-size:9.96px;stroke:none;">directional interactions do not effectively withstand compression, but they seemto act as “clamps” in</text>
   <text y="670.301" x="76.535,79.783,85.581,90.3618,92.844,97.267,102.248,106.473,111.2538,113.735,119.175,122.4618,124.983,127.882,133.68,136.928,141.7,147.499,151.723,154.622,157.939,163.479,166.378,172.176,177.75359999999998,180.206,189.003,194.442,197.341,202.114,206.537,212.544,215.444,220.425,224.40900000000002,226.851,232.48,235.379,240.888,244.823,249.805,253.052,255.951,261.391,267.189,271.413" svgx:width="0.33,0.58,0.48,0.55,0.44,0.5,0.42,0.48,0.55,0.55,0.33,0.55,0.29,0.58,0.33,0.48,0.58,0.42,0.29,0.33,0.56,0.29,0.58,0.56,0.55,0.88,0.55,0.29,0.48,0.44,0.6,0.29,0.5,0.4,0.55,0.56,0.29,0.55,0.4,0.5,0.33,0.29,0.55,0.58,0.42,0.25" style="fill:rgb(0,0,0);font-family:URWPalladioL-Roma;font-size:9.96px;stroke:none;">the case of intensifying molecular vibrations.</text>
   <text y="683.81" x="97.795,104.024,109.938,114.7188,119.999,125.618,131.746,134.703,140.2806,145.556,154.529,160.077,166.286,172.413,175.371,181.498" svgx:width="0.61,0.58,0.48,0.55,0.55,0.6,0.29,0.56,0.55,0.88,0.55,0.61,0.6,0.29,0.6,0.42" style="fill:rgb(0,0,0);font-family:URWPalladioL-Roma;font-size:9.96px;stroke:none;">The bulk modulus</text>
   <text y="683.81" x="191.323" svgx:width="0.61" style="fill:rgb(0,0,0);font-family:URWPalladioL-Ital;font-size:9.96px;stroke:none;">B</text>
   <text y="685.555" x="197.285" svgx:width="0.5" style="fill:rgb(0,0,0);font-family:URWPalladioL-Roma;font-size:7.57px;stroke:none;">0</text>
   <text y="683.81" x="206.765,212.313" svgx:width="0.55,0.33" style="fill:rgb(0,0,0);font-family:URWPalladioL-Roma;font-size:9.96px;stroke:none;">of</text>
   <text y="683.81" x="221.018,226.248" svgx:width="0.5,0.5" style="fill:rgb(0,0,0);font-family:URWPalladioL-Bold;font-size:9.96px;stroke:none;">1a</text>
   <text y="683.81" x="231.355,233.845,239.769,244.637,248.945,252.258,255.215,264.188,269.269,272.582,277.449,283.5246,288.851,292.235,296.066,301.614,310.37879999999996,315.79,319.103,325.017,329.884,335.433,339.264,344.131,347.444,350.401,354.913,359.994,362.8824,368.144,372.656,377.737,380.694,385.206,391.333,394.29,399.371,402.684,405.641,411.189,417.104,421.2872,426.615,432.743,437.051,440.008,445.923,451.5006,456.765,461.745,467.039,470.352,476.266,479.223,483.064,489.13960000000003,494.466,500.014,503.845,510.054,514.922" svgx:width="0.25,0.55,0.48,0.42,0.33,0.29,0.88,0.5,0.33,0.48,0.61,0.55,0.33,0.4,0.55,0.88,0.55,0.33,0.58,0.48,0.55,0.4,0.48,0.33,0.29,0.44,0.5,0.29,0.55,0.44,0.5,0.29,0.44,0.6,0.29,0.5,0.33,0.29,0.55,0.58,0.42,0.55,0.6,0.42,0.29,0.58,0.56,0.55,0.5,0.55,0.33,0.58,0.29,0.4,0.61,0.55,0.55,0.4,0.61,0.48,0.4" style="fill:rgb(0,0,0);font-family:URWPalladioL-Roma;font-size:9.96px;stroke:none;">, estimated from theoretical calculations using a third order</text>
   <text y="697.32" x="76.535,82.744,85.701,89.532,94.044,99.958,105.039,114.652,120.78,124.794,130.708,135.789,141.439,147.353,152.434,158.2108,164.191,169.059,174.749,180.877,185.958,189.271,192.228,197.776,203.55280000000002,209.523,215.072,218.3588,224.299,228.607,231.92,237.001,240.314,245.0948,251.014" svgx:width="0.61,0.29,0.4,0.44,0.58,0.5,0.95,0.6,0.4,0.58,0.5,0.56,0.58,0.5,0.58,0.55,0.48,0.56,0.6,0.5,0.33,0.29,0.55,0.58,0.55,0.55,0.33,0.55,0.42,0.33,0.5,0.33,0.48,0.55,0.33" style="fill:rgb(0,0,0);font-family:URWPalladioL-Roma;font-size:9.96px;stroke:none;">Birch–Murnaghan equation of state [</text>
   <text y="697.32" x="254.398,259.379" svgx:width="0.5,0.5" style="fill:rgb(8,117,183);font-family:URWPalladioL-Roma;font-size:9.96px;stroke:none;">32</text>
   <text y="697.32" x="264.36,267.744,270.23400000000004,276.961,281.828,287.519,293.646,298.727,301.684,305.8672,311.826,316.907,321.988,324.528,329.609,332.993,338.074,341.36080000000004,347.301,355.055,361.192,366.273,368.76300000000003,375.48,380.561,386.475,392.55060000000003,398.527,401.484,404.797,408.9802,414.938,421.147,426.015,430.029,432.986,438.727,443.808,447.121,450.078,455.82,460.6008,466.53,472.739,475.52779999999996,481.397,487.4726,493.388,498.469,501.009,506.09,509.474,514.555,517.939" svgx:width="0.33,0.25,0.55,0.48,0.56,0.6,0.5,0.29,0.42,0.55,0.5,0.5,0.25,0.5,0.33,0.5,0.33,0.55,0.76,0.6,0.5,0.25,0.55,0.5,0.58,0.61,0.55,0.29,0.33,0.42,0.55,0.61,0.48,0.4,0.29,0.56,0.5,0.33,0.29,0.56,0.48,0.55,0.61,0.28,0.55,0.61,0.55,0.5,0.25,0.5,0.33,0.5,0.33,0.25" style="fill:rgb(0,0,0);font-family:URWPalladioL-Roma;font-size:9.96px;stroke:none;">], equals 14.3(4) GPa, and its derivative B’ = 8.1(4).</text>
   <text y="710.829" x="76.859" svgx:width="0.61" style="fill:rgb(0,0,0);font-family:URWPalladioL-Ital;font-size:9.96px;stroke:none;">B</text>
   <text y="712.573" x="82.822" svgx:width="0.5" style="fill:rgb(0,0,0);font-family:URWPalladioL-Roma;font-size:7.57px;stroke:none;">0</text>
   <text y="710.829" x="89.998" svgx:width="0.78" style="fill:rgb(0,0,0);font-family:CMSY10;font-size:10.38px;stroke:none;">≈</text>
   <text y="710.829" x="100.682,105.454,109.678,112.926,115.825,124.622,129.603,132.851,137.623,143.6986,147.992,153.612,159.18959999999998,163.54,168.51999999999998,172.909,177.217,182.085,186.597,192.145,198.059,204.268,207.652,213.201,217.032,223.241,228.108,232.092,236.4,242.609,245.566,249.407,253.919,259.833,263.217,272.83,278.958,282.972,288.886,293.967,299.617,305.531,310.612,316.3888,320.804,325.672,331.363,337.49,342.571,345.884,348.841,354.389,360.1658,364.592,370.14,373.4268,377.802,382.111,385.424,390.505,393.817,398.5978,402.963,406.347,411.895,415.87899999999996,420.198,423.51,429.424,434.2048,438.57,441.954,446.822,455.0888,459.575,464.442,469.686,475.793,480.661,484.674,487.632,496.604,501.472,507.386,510.699,515.78" svgx:width="0.48,0.42,0.33,0.29,0.88,0.5,0.33,0.48,0.61,0.55,0.55,0.56,0.55,0.5,0.55,0.42,0.48,0.44,0.55,0.58,0.61,0.33,0.55,0.4,0.61,0.48,0.4,0.55,0.61,0.29,0.4,0.44,0.58,0.33,0.95,0.6,0.4,0.58,0.5,0.56,0.58,0.5,0.58,0.55,0.48,0.56,0.6,0.5,0.33,0.29,0.55,0.58,0.55,0.55,0.33,0.55,0.42,0.33,0.5,0.33,0.48,0.55,0.33,0.55,0.4,0.55,0.33,0.58,0.48,0.55,0.33,0.48,0.83,0.55,0.48,0.52,0.6,0.48,0.4,0.29,0.88,0.48,0.58,0.33,0.5,0.29" style="fill:rgb(0,0,0);font-family:URWPalladioL-Roma;font-size:9.96px;stroke:none;">estimated by a second-order Birch-Murnaghan equation of state for the few experimental</text>
   <text y="724.339" x="76.535,82.083,87.703,92.012,96.879,100.893,106.634,111.715,115.028,117.985,123.534,129.448,133.6312,136.896,139.854,144.0372,147.312,152.393,157.474,160.858,165.939,169.2258,172.463,180.216,186.354,191.435,193.925,199.026,205.255,211.169,215.9498,219.187,224.929,230.009,232.967,239.094,243.8748,247.102,252.65" svgx:width="0.55,0.55,0.42,0.48,0.4,0.56,0.5,0.33,0.29,0.55,0.58,0.42,0.55,0.29,0.42,0.55,0.5,0.5,0.33,0.5,0.33,0.55,0.76,0.6,0.5,0.25,0.55,0.61,0.58,0.48,0.55,0.56,0.5,0.29,0.6,0.48,0.55,0.55,0.33" style="fill:rgb(0,0,0);font-family:URWPalladioL-Roma;font-size:9.96px;stroke:none;">observations is 13(3) GPa. The value of</text>
   <text y="724.339" x="259.503" svgx:width="0.61" style="fill:rgb(0,0,0);font-family:URWPalladioL-Ital;font-size:9.96px;stroke:none;">B</text>
   <text y="726.083" x="265.466" svgx:width="0.5" style="fill:rgb(0,0,0);font-family:URWPalladioL-Roma;font-size:7.57px;stroke:none;">0</text>
   <text y="724.339" x="272.894,281.369,286.45,290.6332,293.899,299.813,302.77,308.42,314.334,319.202,323.186,326.366,329.678,335.593,340.674,346.45079999999996,349.728,353.569,358.436,364.544,370.092,374.106,377.419,382.286,388.3616,391.635,395.019,400.567,404.551,407.721,413.27,416.583,422.497,427.364,431.34799999999996,434.528,439.752,447.657,456.112,460.2952,463.561,466.518,472.432,478.173,483.041,487.35,490.662,493.619,499.269,504.35,507.663,512.531" svgx:width="0.83,0.5,0.42,0.55,0.58,0.29,0.56,0.58,0.48,0.4,0.55,0.33,0.58,0.5,0.58,0.55,0.4,0.48,0.6,0.55,0.4,0.33,0.48,0.61,0.55,0.33,0.55,0.4,0.55,0.55,0.33,0.58,0.48,0.4,0.55,0.6,0.78,0.83,0.42,0.55,0.29,0.58,0.56,0.48,0.42,0.33,0.29,0.56,0.5,0.33,0.48,0.61" style="fill:rgb(0,0,0);font-family:URWPalladioL-Roma;font-size:9.96px;stroke:none;">was higher than reported for other PAHs investigated</text>
   <text y="737.848" x="76.535,81.616,84.9028,88.018,93.932,96.889,102.539,108.3158,111.543,117.65,121.481,126.348,130.657,134.966,141.093,144.934,149.7148,152.891" svgx:width="0.5,0.33,0.55,0.58,0.29,0.56,0.58,0.55,0.6,0.4,0.48,0.42,0.42,0.6,0.4,0.48,0.55,0.33" style="fill:rgb(0,0,0);font-family:URWPalladioL-Roma;font-size:9.96px;stroke:none;">at high pressure [</text>
   <text y="737.848" x="156.272,161.253" svgx:width="0.5,0.5" style="fill:rgb(8,117,183);font-family:URWPalladioL-Roma;font-size:9.96px;stroke:none;">23</text>
   <text y="737.848" x="166.235" svgx:width="0.25" style="fill:rgb(0,0,0);font-family:URWPalladioL-Roma;font-size:9.96px;stroke:none;">,</text>
   <text y="737.848" x="168.775,173.756" svgx:width="0.5,0.5" style="fill:rgb(8,117,183);font-family:URWPalladioL-Roma;font-size:9.96px;stroke:none;">26</text>
   <text y="737.848" x="178.738,182.0248,185.211,188.595,191.552,194.093,198.96,201.501,203.991,207.13,212.211,214.752,219.732,222.922,230.675,236.813,241.79299999999998,244.983,248.367,253.915,257.899,261.019,267.126,273.04,277.908,283.822,288.903,294.817,298.13,304.044,307.875,312.742,318.656,323.524,326.014,329.306,334.387,336.927,341.90700000000004,345.098,352.851,358.989,363.969,367.159,370.543,376.091,380.075,383.194,387.127,393.255,398.874,402.715,407.583,413.497,418.365,420.855,424.137,429.685,433.669,436.788,441.869,444.409,449.389,452.58,455.964,461.512,465.496,468.615,474.722,479.59,485.504,488.817,493.898,498.41,503.277,509.191,514.059,517.443" svgx:width="0.33,0.55,0.33,0.29,0.25,0.48,0.25,0.25,0.55,0.5,0.25,0.5,0.55,0.76,0.6,0.5,0.55,0.33,0.55,0.4,0.55,0.6,0.58,0.48,0.58,0.5,0.58,0.33,0.58,0.4,0.48,0.58,0.48,0.25,0.55,0.5,0.25,0.5,0.55,0.76,0.6,0.5,0.55,0.33,0.55,0.4,0.55,0.4,0.6,0.55,0.4,0.48,0.58,0.48,0.25,0.55,0.55,0.4,0.55,0.5,0.25,0.5,0.55,0.33,0.55,0.4,0.55,0.6,0.48,0.58,0.33,0.5,0.44,0.48,0.58,0.48,0.33,0.25" style="fill:rgb(0,0,0);font-family:URWPalladioL-Roma;font-size:9.96px;stroke:none;">] (i.e., 5.7 GPa for phenanthrene, 8.2 GPa for rubrene, or 9.6 for pentacene),</text>
   <text y="751.357" x="76.535,79.486,85.389,91.586,94.537,99.04,104.111,107.417,110.368,116.271,121.8486,124.405,127.711,133.614,138.685,141.9718,144.496,148.999,153.005,158.644,162.944,166.25,171.321,174.273,178.4562,181.068,186.605" svgx:width="0.29,0.58,0.61,0.29,0.44,0.5,0.33,0.29,0.58,0.56,0.55,0.33,0.58,0.5,0.33,0.55,0.44,0.4,0.56,0.42,0.33,0.5,0.29,0.42,0.55,0.55,0.33" style="fill:rgb(0,0,0);font-family:URWPalladioL-Roma;font-size:9.96px;stroke:none;">indicating that crystals of</text>
   <text y="751.357" x="192.604,197.834" svgx:width="0.5,0.5" style="fill:rgb(0,0,0);font-family:URWPalladioL-Bold;font-size:9.96px;stroke:none;">1a</text>
   <text y="751.357" x="205.438,210.509,214.332,219.1128,221.696,224.647,230.4238,233.044,236.422,241.493,245.996,249.2828,251.797,256.097,259.048,262.0,267.638,273.541,276.847,279.799,285.3766,287.943,293.845,298.916,302.74,308.936,313.794,317.77799999999996,320.295,323.602,329.504,334.575,340.35179999999997,342.973,346.279,352.181,356.9618,359.545,364.615,370.224,375.761,381.492,386.35,389.727,394.23,397.181,400.487,405.345,411.42060000000004,414.037,420.132,425.67,428.621,434.26,439.331,443.155,448.692,457.647,462.718,466.025,468.976,473.3584,475.984,484.939,490.01,493.317,498.175,502.181,505.132,510.203,513.154,517.454" svgx:width="0.5,0.4,0.48,0.55,0.29,0.58,0.55,0.33,0.5,0.44,0.33,0.55,0.42,0.29,0.29,0.56,0.58,0.33,0.29,0.56,0.55,0.58,0.5,0.4,0.61,0.48,0.4,0.55,0.33,0.58,0.5,0.58,0.55,0.33,0.58,0.48,0.55,0.5,0.55,0.55,0.56,0.48,0.33,0.44,0.29,0.33,0.48,0.61,0.55,0.6,0.55,0.29,0.56,0.5,0.4,0.55,0.88,0.5,0.33,0.29,0.44,0.55,0.88,0.5,0.33,0.48,0.4,0.29,0.5,0.29,0.42,0.25" style="fill:rgb(0,0,0);font-family:URWPalladioL-Roma;font-size:9.96px;stroke:none;">are in fact slightly harder than the above-cited polyaromatic materials,</text>
   <text y="764.867" x="76.535,79.783,85.581,91.021,97.028,102.567,108.34379999999999,110.856,115.08,118.328,121.227,124.126,127.01440000000001,129.516,133.272,138.044,140.943,145.924,149.172,152.071,157.7,162.472,165.371,170.9486,173.401,177.625,183.065,186.383,189.63" svgx:width="0.33,0.58,0.55,0.6,0.56,0.58,0.55,0.42,0.33,0.29,0.29,0.29,0.55,0.4,0.48,0.29,0.5,0.33,0.29,0.56,0.48,0.29,0.56,0.55,0.42,0.55,0.33,0.33,0.25" style="fill:rgb(0,0,0);font-family:URWPalladioL-Roma;font-size:9.96px;stroke:none;">though still relatively soft.</text>
  </g>
 </g>
</svg>
