<?xml version="1.0" encoding="UTF-8"?>
<svg height="738.361" width="530.039" xmlns="http://www.w3.org/2000/svg">
 <g id="page" xmlns:svgx="http://www.xml-cml.org/schema/svgx">
  <g begin="text">
   <text y="62.979" x="76.535,82.736,86.274,90.706,94.245,100.445,103.984,106.638,109.738,112.839,115.055,118.593,120.809" svgx:width="0.78,0.44,0.56,0.44,0.78,0.44,0.33,0.39,0.39,0.28,0.44,0.28,0.39" style="fill:rgb(0,0,0);font-family:URWPalladioL-Ital;font-size:7.97px;stroke:none;">Nanomaterials</text>
   <text y="62.979" x="125.901,129.886,133.871,137.856" svgx:width="0.5,0.5,0.5,0.5" style="fill:rgb(0,0,0);font-family:URWPalladioL-Bold;font-size:7.97px;stroke:none;">2019</text>
   <text y="62.979" x="141.842" svgx:width="0.25" style="fill:rgb(0,0,0);font-family:URWPalladioL-Roma;font-size:7.97px;stroke:none;">,</text>
   <text y="62.979" x="145.827" svgx:width="0.5" style="fill:rgb(0,0,0);font-family:URWPalladioL-Ital;font-size:7.97px;stroke:none;">9</text>
   <text y="62.979" x="149.812,151.80450000000002,153.797,157.782,161.767,165.752,169.73700000000002,495.794,499.779,501.772,506.123,508.7531,510.77,514.755" svgx:width="0.25,0.55,0.5,0.5,0.5,0.5,0.55,0.5,0.55,0.55,0.33,0.55,0.5,0.5" style="fill:rgb(0,0,0);font-family:URWPalladioL-Roma;font-size:7.97px;stroke:none;">, 1251 2 of 13</text>
   <text y="97.848" x="76.535,81.571,86.551,89.095" svgx:width="0.5,0.5,0.55,0.33" style="fill:rgb(0,0,0);font-family:URWPalladioL-Roma;font-size:9.96px;stroke:none;">50 [</text>
   <text y="97.848" x="92.453" svgx:width="0.5" style="fill:rgb(8,117,183);font-family:URWPalladioL-Roma;font-size:9.96px;stroke:none;">4</text>
   <text y="97.848" x="97.435,100.7218,103.277,107.749,116.643,119.133,121.659,125.013,130.512,134.496,136.978,142.84,147.665,152.862,157.898,163.76,166.691,169.975,173.772,179.272,185.134,189.958,195.155,200.191,205.228,210.264,215.3,218.231,222.501,228.001,236.401,242.475,246.453,249.737,254.773,257.704,260.987,266.023,271.885" svgx:width="0.33,0.55,0.44,0.88,0.25,0.55,0.33,0.55,0.4,0.55,0.58,0.48,0.52,0.5,0.58,0.29,0.33,0.4,0.55,0.58,0.48,0.52,0.5,0.5,0.5,0.5,0.29,0.42,0.55,0.83,0.6,0.4,0.33,0.5,0.29,0.33,0.5,0.58,0.48" style="fill:rgb(0,0,0);font-family:URWPalladioL-Roma;font-size:9.96px;stroke:none;">] cm; for hexanitrohexaazaisowurtzitane</text>
   <text y="97.848" x="276.712" svgx:width="0.29" style="fill:rgb(0,0,0);font-family:Rpxr;font-size:9.96px;stroke:none;">/</text>
   <text y="97.848" x="279.603,282.887,286.865,289.796,295.658,298.589,301.873,305.67,311.169,314.453,319.952,322.883,328.957,333.781,339.643,344.42379999999997,346.956,350.31,357.451,363.605,366.959,371.995" svgx:width="0.33,0.4,0.29,0.58,0.29,0.33,0.4,0.55,0.33,0.55,0.29,0.6,0.48,0.58,0.48,0.55,0.33,0.71,0.61,0.33,0.5,0.5" style="fill:rgb(0,0,0);font-family:URWPalladioL-Roma;font-size:9.96px;stroke:none;">trinitrotoluene (CL-20</text>
   <text y="97.848" x="377.036" svgx:width="0.29" style="fill:rgb(0,0,0);font-family:Rpxr;font-size:9.96px;stroke:none;">/</text>
   <text y="97.848" x="379.927,386.101,394.471,400.646,403.93280000000004,406.487,410.959,416.459,420.931,424.909,430.51,434.78,438.064,443.1,446.031,448.521,451.047,454.33,460.192,464.9728,467.505,473.195,478.232,481.163,487.236,492.061,496.2442,498.819,504.51,509.546,513.524" svgx:width="0.61,0.83,0.61,0.33,0.55,0.44,0.55,0.44,0.4,0.56,0.42,0.33,0.5,0.29,0.25,0.55,0.33,0.58,0.48,0.55,0.56,0.5,0.29,0.6,0.48,0.42,0.55,0.56,0.5,0.4,0.56" style="fill:rgb(0,0,0);font-family:URWPalladioL-Roma;font-size:9.96px;stroke:none;">TNT) cocrystal, the values vary</text>
   <text y="111.358" x="76.535,79.786,83.467,88.798,99.791,104.673,109.653,111.927" svgx:width="0.33,0.4,0.55,0.88,0.5,0.5,0.55,0.33" style="fill:rgb(0,0,0);font-family:URWPalladioL-Roma;font-size:9.96px;stroke:none;">from30 [</text>
   <text y="111.358" x="115.175" svgx:width="0.5" style="fill:rgb(8,117,183);font-family:URWPalladioL-Roma;font-size:9.96px;stroke:none;">4</text>
   <text y="111.358" x="120.156,123.4428,125.78,128.963,134.441,136.666,141.548,146.528,148.802" svgx:width="0.33,0.55,0.33,0.55,0.55,0.5,0.5,0.55,0.33" style="fill:rgb(0,0,0);font-family:URWPalladioL-Roma;font-size:9.96px;stroke:none;">] to 99 [</text>
   <text y="111.358" x="152.053" svgx:width="0.5" style="fill:rgb(8,117,183);font-family:URWPalladioL-Roma;font-size:9.96px;stroke:none;">5</text>
   <text y="111.358" x="157.035,160.3218,162.659,166.994,175.615,178.10500000000002,181.502,187.487,193.169,197.846,201.527,206.203,209.454,214.785,218.456,223.133,225.62300000000002,227.975,231.158,236.841" svgx:width="0.33,0.55,0.44,0.88,0.25,0.55,0.61,0.58,0.48,0.4,0.48,0.33,0.55,0.4,0.48,0.25,0.55,0.33,0.58,0.48" style="fill:rgb(0,0,0);font-family:URWPalladioL-Roma;font-size:9.96px;stroke:none;">] cm. Therefore, the</text>
   <text y="111.358" x="243.887" svgx:width="0.5" style="fill:rgb(0,0,0);font-family:URWPalladioL-Ital;font-size:9.96px;stroke:none;">h</text>
   <text y="113.223" x="248.769,252.555,256.341" svgx:width="0.5,0.5,0.84" style="fill:rgb(0,0,0);font-family:URWPalladioL-Roma;font-size:7.57px;stroke:none;">50%</text>
   <text y="111.358" x="265.571,271.087,275.969,278.81,284.697,289.374,293.5572,295.886,301.852,306.528,310.385,313.226,318.742,323.419,329.4946,331.757,335.008,338.689,344.019,355.013,358.196,363.878,368.6588,370.927,375.067,379.949,388.57,393.3508,395.619,400.295,405.333,411.201,415.878,419.734,422.575,431.196,435.873,441.555,444.738,448.9212,451.25,456.132,459.803,464.5838,466.852,471.187,476.518,485.139,491.007,495.888,499.745,504.627,510.026,512.867,517.544" svgx:width="0.56,0.5,0.29,0.6,0.48,0.42,0.55,0.61,0.48,0.4,0.29,0.56,0.48,0.61,0.55,0.33,0.4,0.55,0.88,0.33,0.58,0.48,0.55,0.42,0.5,0.88,0.48,0.55,0.48,0.52,0.6,0.48,0.4,0.29,0.88,0.48,0.58,0.33,0.42,0.55,0.5,0.4,0.48,0.55,0.44,0.55,0.88,0.6,0.5,0.4,0.5,0.55,0.29,0.48,0.25" style="fill:rgb(0,0,0);font-family:URWPalladioL-Roma;font-size:9.96px;stroke:none;">values derived fromthe same experiments are comparable,</text>
   <text y="124.867" x="76.117,84.26,89.942,92.783,95.624,100.4048,102.615,105.798,111.48,116.811,120.95,125.7308,127.951,131.202,134.873,140.204,151.139,157.104" svgx:width="0.83,0.58,0.29,0.29,0.48,0.55,0.33,0.58,0.55,0.42,0.48,0.55,0.33,0.4,0.55,0.88,0.61,0.29" style="fill:rgb(0,0,0);font-family:URWPalladioL-Roma;font-size:9.96px;stroke:none;">while those fromdi</text>
   <text y="124.867" x="159.949" svgx:width="0.61" style="fill:rgb(0,0,0);font-family:Rpxr;font-size:9.96px;stroke:none;">ﬀ</text>
   <text y="124.867" x="165.885,170.562,174.242,178.919,184.601,187.8878,190.098,194.775,200.242,206.13,208.971,214.838,223.459,228.136,233.818,237.1048,239.315,243.65,248.532,254.30880000000002,256.528,261.859,267.541,270.382,275.9596,278.134,283.533,288.3138,290.524,296.411,300.551,305.227,311.3026,313.507,316.758,322.089,326.073,328.269,333.249,335.465,340.932,346.819,351.701,357.383,360.566,363.407,366.59,371.472,374.655,377.496,383.012,387.7928,390.003,394.338,399.668,408.289,414.157,419.039,422.895,425.736,429.876,435.207,440.9838,443.203,448.534,451.8208,454.109,457.292,462.974,467.7548,469.964,478.585,483.262,487.597,493.279,498.161,503.843,506.684,511.019,515.901" svgx:width="0.48,0.4,0.48,0.58,0.33,0.55,0.48,0.56,0.6,0.29,0.6,0.88,0.48,0.58,0.33,0.55,0.44,0.5,0.58,0.55,0.55,0.58,0.29,0.56,0.55,0.55,0.48,0.55,0.6,0.42,0.48,0.61,0.55,0.33,0.55,0.4,0.55,0.5,0.55,0.56,0.6,0.5,0.58,0.33,0.29,0.33,0.5,0.33,0.29,0.56,0.48,0.55,0.44,0.55,0.88,0.6,0.5,0.4,0.29,0.42,0.55,0.58,0.55,0.55,0.33,0.55,0.33,0.58,0.48,0.55,0.88,0.48,0.44,0.58,0.5,0.58,0.29,0.44,0.5,0.29" style="fill:rgb(0,0,0);font-family:URWPalladioL-Roma;font-size:9.96px;stroke:none;">erent equipment can only be used for a quantitative comparison of the mechanical</text>
   <text y="138.377" x="76.535,80.759,85.531,91.329,95.554,98.453,101.701,104.6,110.229,113.128,116.375,121.9526,124.405,129.387,138.184,143.623,149.421,154.99859999999998,157.451,163.08,168.061,171.997,174.896,180.335,186.343,190.5262,193.058,197.83,203.628,208.4,212.156,217.695,222.467,225.715,228.614,232.9964,235.528,239.752,242.651,248.45,253.989,256.888,261.6688,264.151,268.574,272.509,278.048,282.273,285.52,290.502,293.401,297.625" svgx:width="0.42,0.48,0.58,0.42,0.29,0.33,0.29,0.56,0.29,0.33,0.56,0.55,0.5,0.88,0.55,0.58,0.56,0.55,0.56,0.5,0.4,0.29,0.55,0.6,0.42,0.55,0.48,0.58,0.48,0.4,0.56,0.48,0.33,0.29,0.44,0.55,0.42,0.29,0.58,0.56,0.29,0.48,0.55,0.44,0.4,0.56,0.42,0.33,0.5,0.29,0.42,0.25" style="fill:rgb(0,0,0);font-family:URWPalladioL-Roma;font-size:9.96px;stroke:none;">sensitivity among various energetic single crystals.</text>
   <text y="151.886" x="97.795,107.314,110.242,113.522,119.2988,121.854,125.134,130.99,135.7708,138.285,142.26,147.291,153.339,156.267,162.3426,164.89,167.818,173.674,178.142,181.935,186.755,191.786,196.053,200.8338,203.348,208.842,212.1288,214.668,219.135,224.629,233.514,239.562,245.629,248.91,253.941,257.221,260.149,265.643,271.499,276.53,279.41839999999996,281.934,286.401,291.432,297.48,302.511,308.075,311.004,313.932,316.86,320.14,325.7176,328.21,333.241,339.097,345.1726,347.721,351.001,356.857,361.6378,364.152,370.3,375.12,380.805,385.625,388.553,394.047,400.094,408.979,413.799,419.655,422.9418,425.411,430.905,434.1918,436.731,445.616,450.647,453.927,458.747,462.722,465.65,470.681,473.5694,476.084,484.969,490.463,496.611,501.431,504.359,507.287,513.143" svgx:width="1.0,0.29,0.33,0.58,0.55,0.33,0.58,0.48,0.55,0.4,0.5,0.6,0.29,0.61,0.55,0.29,0.58,0.44,0.4,0.48,0.5,0.42,0.48,0.55,0.55,0.33,0.55,0.44,0.55,0.88,0.6,0.6,0.33,0.5,0.33,0.29,0.55,0.58,0.5,0.29,0.55,0.44,0.5,0.6,0.5,0.55,0.29,0.29,0.29,0.33,0.56,0.55,0.5,0.58,0.61,0.55,0.33,0.58,0.48,0.55,0.61,0.48,0.56,0.48,0.29,0.55,0.6,0.88,0.48,0.58,0.33,0.55,0.55,0.33,0.55,0.88,0.5,0.33,0.48,0.4,0.29,0.5,0.29,0.55,0.88,0.55,0.61,0.48,0.29,0.29,0.58,0.56" style="fill:rgb(0,0,0);font-family:URWPalladioL-Roma;font-size:9.96px;stroke:none;">With the rapid increase of computational capability and the development of material modeling</text>
   <text y="165.395" x="76.535,85.508,90.375,93.688,99.602,105.151,111.36,115.668,118.158,121.024,123.981,129.062,132.893,138.543,143.41,146.794,151.103,155.615,160.695,163.653,168.4338,171.274,176.355,179.668,185.216,194.189,197.146,201.455,204.767,207.725,212.10739999999998,214.98,219.289,222.246,231.219,237.346,240.303,245.384,248.697,251.654,257.203,262.97979999999995,265.871,271.49,276.358,280.87,286.418,295.391,300.258,304.4412,307.311,312.291,315.145,321.253,326.801,335.276,340.144,344.158,347.541,353.669,356.5574,359.37,362.683,368.231,373.779,376.6674,379.49,382.874,388.423,392.407,395.18,401.308,407.222,413.431,418.298,422.312,426.621,429.934,435.015,440.929,447.138,450.095,456.009,461.58660000000003,464.413,467.726,473.64,478.4208,481.251,487.358,493.273,498.923,503.231,506.188,510.7,515.781" svgx:width="0.88,0.48,0.33,0.58,0.55,0.61,0.42,0.25,0.55,0.29,0.5,0.4,0.56,0.48,0.33,0.42,0.44,0.5,0.29,0.48,0.55,0.5,0.33,0.55,0.88,0.29,0.42,0.33,0.29,0.44,0.55,0.42,0.29,0.88,0.6,0.29,0.5,0.33,0.29,0.55,0.58,0.55,0.55,0.48,0.44,0.55,0.88,0.48,0.42,0.55,0.5,0.55,0.6,0.55,0.83,0.48,0.4,0.33,0.6,0.29,0.55,0.33,0.55,0.55,0.29,0.55,0.33,0.55,0.4,0.55,0.6,0.58,0.61,0.48,0.4,0.42,0.33,0.5,0.58,0.61,0.29,0.58,0.56,0.55,0.33,0.58,0.48,0.55,0.6,0.58,0.56,0.42,0.29,0.44,0.5,0.29" style="fill:rgb(0,0,0);font-family:URWPalladioL-Roma;font-size:9.96px;stroke:none;">methods, large-scale atomistic simulation becomes a powerful tool for understanding the physical</text>
   <text y="178.905" x="76.236,82.343,86.174,91.723,96.235,101.102,105.411,109.719,114.587,118.7702,121.771,127.32,130.6068,133.579,142.552,147.633,150.946,155.813,159.827,162.784,167.865,170.823,175.0062,178.007,184.135,190.049,196.258,201.125,205.109,208.025,212.893,218.136,221.439,225.28,230.147,239.12,243.9008,246.864,251.376,256.924,262.838,269.047,272.004,275.317,278.274,283.822,289.736,293.9192,296.921" svgx:width="0.6,0.4,0.55,0.44,0.48,0.42,0.42,0.48,0.42,0.55,0.55,0.33,0.55,0.88,0.5,0.33,0.48,0.4,0.29,0.5,0.29,0.42,0.55,0.6,0.58,0.61,0.48,0.4,0.55,0.48,0.52,0.33,0.4,0.48,0.88,0.48,0.55,0.44,0.55,0.58,0.61,0.29,0.33,0.29,0.55,0.58,0.42,0.55,0.33" style="fill:rgb(0,0,0);font-family:URWPalladioL-Roma;font-size:9.96px;stroke:none;">processes of materials under extreme conditions [</text>
   <text y="178.905" x="300.304" svgx:width="0.5" style="fill:rgb(8,117,183);font-family:URWPalladioL-Roma;font-size:9.96px;stroke:none;">6</text>
   <text y="178.905" x="305.285" svgx:width="0.25" style="fill:rgb(0,0,0);font-family:URWPalladioL-Roma;font-size:9.96px;stroke:none;">,</text>
   <text y="178.905" x="307.826" svgx:width="0.5" style="fill:rgb(8,117,183);font-family:URWPalladioL-Roma;font-size:9.96px;stroke:none;">7</text>
   <text y="178.905" x="312.807,316.191,318.681,323.375,331.83,337.378,345.853,350.721,356.462,361.33,364.602,367.092,370.12,373.077,378.8538,381.867,385.698,390.565,395.077,399.945,405.859,409.1458,412.048,418.256,423.124,427.636,432.717,438.926,443.793,448.102,450.592,453.62,456.932,462.847,467.714,471.545,476.3258,479.288,485.203,490.284,494.4672,497.468,503.088,507.955,512.823" svgx:width="0.33,0.25,0.55,0.83,0.55,0.83,0.48,0.56,0.48,0.4,0.25,0.55,0.29,0.58,0.55,0.4,0.48,0.44,0.48,0.58,0.33,0.55,0.61,0.48,0.44,0.5,0.61,0.48,0.42,0.25,0.55,0.33,0.58,0.48,0.4,0.48,0.55,0.58,0.5,0.42,0.55,0.55,0.48,0.48,0.58" style="fill:rgb(0,0,0);font-family:URWPalladioL-Roma;font-size:9.96px;stroke:none;">]. However, in recent decades, there has been</text>
   <text y="192.414" x="76.535,81.515,85.416,89.725,93.038,96.869,102.417,108.331,113.9086,117.782,121.095,125.962,131.876,138.085,142.953,148.867,153.379,158.95659999999998,162.829,165.787,171.56380000000001,175.501,178.814,184.728,189.5088,193.396,196.353,199.31,202.623,207.491,211.505,216.586,219.898,226.026,229.857,234.6378,238.525,241.838,247.316,251.187,256.054,259.011,265.139,269.651,272.608,278.817,283.898,287.211,291.9918,295.879,299.191,305.106,309.8868,313.774,318.082,322.95,328.864,333.173,336.13,339.442,342.4,348.141,351.098,354.411,359.9886,363.861,369.41,372.69680000000005,376.594,381.462,387.376,392.243,396.074,401.724,406.592,409.905,412.862,417.24440000000004,421.174,425.483,428.44,434.354,440.004,442.961,447.7418,451.629,456.141,460.155,465.805,470.114,473.426,478.507,481.464,485.6472,489.574,495.193,500.7706,504.644,507.956,513.871" svgx:width="0.5,0.55,0.42,0.33,0.4,0.55,0.58,0.56,0.55,0.33,0.48,0.58,0.61,0.48,0.58,0.44,0.56,0.55,0.29,0.58,0.55,0.33,0.58,0.48,0.55,0.29,0.29,0.33,0.48,0.4,0.5,0.33,0.6,0.4,0.48,0.55,0.33,0.55,0.55,0.48,0.29,0.6,0.44,0.29,0.61,0.5,0.33,0.48,0.55,0.33,0.58,0.48,0.55,0.42,0.48,0.58,0.42,0.29,0.33,0.29,0.56,0.29,0.33,0.56,0.55,0.55,0.33,0.55,0.48,0.58,0.48,0.4,0.56,0.48,0.33,0.29,0.44,0.55,0.42,0.29,0.58,0.56,0.29,0.48,0.55,0.44,0.4,0.56,0.42,0.33,0.5,0.29,0.42,0.55,0.55,0.56,0.55,0.33,0.58,0.48" style="fill:rgb(0,0,0);font-family:URWPalladioL-Roma;font-size:9.96px;stroke:none;">a strong tendency in the literature to elucidate the sensitivity of energetic single crystals by the</text>
   <text y="205.924" x="76.535,81.403,84.36,89.227,93.739,97.052,100.883,106.431,112.20779999999999,115.15,121.359,126.226,132.141,136.449,139.406,142.719,148.29659999999998,151.164,157.271,161.112,166.66,172.768,177.635,181.649,184.962,187.919,192.787,196.9702,199.89,202.847,208.62380000000002,211.566,216.546,219.441,223.75,228.617,234.725,239.805,243.819,248.9,252.213,256.9938,259.885,268.858,274.407,277.364,282.231,286.743,292.871,295.828,300.6088,303.5,309.048,312.33480000000003,315.227,321.436,331.049,333.539,336.394,340.702,346.83,351.342,357.11879999999996,360.051,365.132,369.3152,372.245,377.112,380.069,384.937,389.449,392.762,396.593,402.141,406.45,409.762,414.843,418.156,421.113,425.4954,428.43,434.537,440.085,443.398,448.266,454.18,457.493,460.45,465.531,468.488,470.978,473.904,482.877,488.425,491.382,496.25,500.762,506.889,509.846,514.927" svgx:width="0.48,0.29,0.48,0.44,0.33,0.4,0.55,0.58,0.55,0.61,0.48,0.58,0.42,0.29,0.33,0.56,0.55,0.6,0.4,0.55,0.6,0.48,0.4,0.33,0.29,0.48,0.42,0.55,0.29,0.58,0.55,0.5,0.55,0.42,0.48,0.6,0.5,0.4,0.5,0.33,0.48,0.55,0.88,0.55,0.29,0.48,0.44,0.6,0.29,0.48,0.55,0.55,0.33,0.55,0.61,0.95,0.25,0.55,0.42,0.6,0.44,0.58,0.55,0.5,0.42,0.55,0.48,0.29,0.48,0.44,0.33,0.4,0.55,0.42,0.33,0.5,0.33,0.29,0.44,0.55,0.6,0.55,0.33,0.48,0.58,0.33,0.29,0.5,0.29,0.25,0.55,0.88,0.55,0.29,0.48,0.44,0.6,0.29,0.5,0.4" style="fill:rgb(0,0,0);font-family:URWPalladioL-Roma;font-size:9.96px;stroke:none;">electron density properties in a separate molecule of EM, such as electrostatic potential, molecular</text>
   <text y="219.433" x="76.535,81.403,84.36,89.227,93.739,97.052,100.883,106.431,112.345,117.213,122.863,127.944,131.257,134.214,139.955,142.912,146.225,149.182,154.05,158.358,160.848,163.449,169.557,174.637,178.651,181.964,184.921,190.002,192.8904,195.5,200.581,203.893,209.442,218.415,221.372,225.7544,228.424,232.936,238.85,243.931,247.762,253.412,258.28,262.588,265.07800000000003,267.679,276.652,282.201,285.158,290.025,294.537,300.665,303.622,308.703,312.68699999999995,315.247,323.722,328.59,331.547,337.197,343.111,346.424,350.732,353.22200000000004,355.823,361.565,364.522,370.141,374.155,379.236,382.549,385.506,391.054,396.969,402.05,404.9384,407.547,411.856,415.169,420.249,423.562,428.43,432.738,435.228,437.829,443.378,448.621,454.271,459.921,464.789,470.56579999999997,473.233,478.853,483.934,486.891,491.972,497.886,502.398,507.1788,509.806,515.354" svgx:width="0.48,0.29,0.48,0.44,0.33,0.4,0.55,0.58,0.48,0.56,0.5,0.33,0.29,0.56,0.29,0.33,0.29,0.48,0.42,0.25,0.55,0.6,0.5,0.4,0.33,0.29,0.5,0.29,0.55,0.5,0.33,0.55,0.88,0.29,0.44,0.55,0.44,0.58,0.5,0.4,0.56,0.48,0.42,0.25,0.55,0.88,0.55,0.29,0.48,0.44,0.6,0.29,0.5,0.4,0.55,0.83,0.48,0.29,0.56,0.58,0.33,0.42,0.25,0.55,0.56,0.29,0.55,0.4,0.5,0.33,0.29,0.55,0.58,0.5,0.29,0.55,0.42,0.33,0.5,0.33,0.48,0.42,0.25,0.55,0.55,0.52,0.56,0.56,0.48,0.58,0.55,0.55,0.5,0.29,0.5,0.58,0.44,0.48,0.55,0.55,0.33" style="fill:rgb(0,0,0);font-family:URWPalladioL-Roma;font-size:9.96px;stroke:none;">electronegativities, partial atomic charges, molecular weights, vibrational states, oxygen balance of</text>
   <text y="232.942" x="76.535,79.848,85.762,90.5428,93.688,102.661,108.21,111.167,116.034,120.546,126.674,129.631,134.498,138.807,141.297,144.548,150.757,155.625,158.937,164.486,170.4,175.481,178.794,181.751,187.299,193.07580000000002,196.272,201.922,207.003,211.18619999999999,214.37,218.882,224.431,230.345,234.857,239.724,245.638,248.951,252.965,258.046,261.359,264.316,269.864,275.778,279.9612,283.146,288.227,294.141,300.2166,303.398,309.313,314.18,319.261,322.574,326.7572,329.941,335.489,338.7758,341.932,348.141,353.008,356.321,361.87,367.784,372.865,376.178,379.135,384.683,390.4598,393.656" svgx:width="0.33,0.58,0.48,0.55,0.88,0.55,0.29,0.48,0.44,0.6,0.29,0.48,0.42,0.25,0.55,0.61,0.48,0.33,0.55,0.58,0.5,0.33,0.29,0.55,0.58,0.55,0.56,0.5,0.42,0.55,0.44,0.55,0.58,0.44,0.48,0.58,0.33,0.4,0.5,0.33,0.29,0.55,0.58,0.42,0.55,0.5,0.58,0.61,0.55,0.58,0.48,0.5,0.33,0.42,0.55,0.55,0.33,0.55,0.61,0.48,0.33,0.55,0.58,0.5,0.33,0.29,0.55,0.58,0.55,0.33" style="fill:rgb(0,0,0);font-family:URWPalladioL-Roma;font-size:9.96px;stroke:none;">the molecules, detonation gas concentrations and heats of detonation [</text>
   <text y="232.942" x="397.042" svgx:width="0.5" style="fill:rgb(8,117,183);font-family:URWPalladioL-Roma;font-size:9.96px;stroke:none;">1</text>
   <text y="232.942" x="402.023,405.407,407.897,413.14,419.369,425.284,430.151,434.46,439.2408,442.386,448.077,454.204,459.285,465.199,468.512,471.469,474.782,477.739,482.607,486.7902,489.964,492.921,498.571,504.485,510.033,513.875" svgx:width="0.33,0.25,0.55,0.61,0.58,0.48,0.42,0.48,0.55,0.56,0.6,0.5,0.58,0.33,0.29,0.33,0.29,0.48,0.42,0.55,0.29,0.56,0.58,0.55,0.4,0.48" style="fill:rgb(0,0,0);font-family:URWPalladioL-Roma;font-size:9.96px;stroke:none;">]. These quantities ignore</text>
   <text y="246.452" x="76.535,79.848,85.762,90.5428,94.847,101.056,105.923,109.307,114.855,118.869,127.842,132.923,136.236,139.193,144.741,150.51780000000002,154.883,160.431,163.7178,168.032,171.345,177.259,182.03979999999999,186.354,190.866,196.78,201.648,210.621,213.578,218.09,223.171,226.05939999999998,230.345,235.964,241.513,247.427,253.636,257.944,260.434,265.139,268.452,274.366,279.1468,283.461,292.434,297.982,301.295,304.252,309.8,315.5768,319.932,325.48,328.76680000000005,333.091,336.404,342.318,347.0988,351.403,360.376,365.924,368.881,373.749,378.261,384.388,387.345,392.213,396.521,399.011,403.716,407.029,412.943,417.7238,422.028,424.985,430.899,436.813,441.681" svgx:width="0.33,0.58,0.48,0.55,0.61,0.48,0.33,0.55,0.4,0.88,0.5,0.33,0.29,0.55,0.58,0.55,0.55,0.33,0.55,0.33,0.58,0.48,0.55,0.44,0.58,0.48,0.88,0.29,0.44,0.5,0.29,0.55,0.55,0.55,0.58,0.61,0.42,0.25,0.55,0.33,0.58,0.48,0.55,0.88,0.55,0.33,0.29,0.55,0.58,0.55,0.55,0.33,0.55,0.33,0.58,0.48,0.55,0.88,0.55,0.29,0.48,0.44,0.6,0.29,0.48,0.42,0.25,0.55,0.33,0.58,0.48,0.55,0.29,0.58,0.58,0.48,0.4" style="fill:rgb(0,0,0);font-family:URWPalladioL-Roma;font-size:9.96px;stroke:none;">the deformation of the chemical bonds, the motion of the molecules, the inner</text>
   <text y="246.452" x="445.699" svgx:width="0.29" style="fill:rgb(0,0,0);font-family:Rpxr;font-size:9.96px;stroke:none;">/</text>
   <text y="246.452" x="448.616,451.573,457.487,460.8,465.668,469.652,473.899,482.872,488.42,491.377,496.245,500.756,506.884,509.841,514.922" svgx:width="0.29,0.58,0.33,0.48,0.4,0.55,0.88,0.55,0.29,0.48,0.44,0.6,0.29,0.5,0.4" style="fill:rgb(0,0,0);font-family:URWPalladioL-Roma;font-size:9.96px;stroke:none;">inter molecular</text>
   <text y="259.961" x="76.535,80.91,86.644,91.364,100.064,102.931,107.306,112.232,115.1204,117.592,121.307,126.027,130.953,135.328,138.54,141.407,146.787,152.521,156.7042,159.192,164.118,169.853,175.92860000000002,178.366,181.578,187.312,192.0928,194.525,198.702,204.181,212.881,221.581,226.301,229.513,233.405,236.272,240.647,245.573,248.4614,250.933,255.111,258.323,262.136,268.078,272.452,275.664,281.606,285.32,290.1008,292.533,297.912,301.1988,303.686,306.898,312.633,317.4138,319.845,324.22,328.112,333.59,337.768,340.98,345.906,348.774,352.951,355.44100000000003,357.907,362.834,368.568,374.6436,377.081,380.293,386.028,390.747,394.462,399.182,404.63,410.2076,412.601,416.976,421.903,427.637,433.372,438.751,442.0378,444.456,448.831,454.211,462.911,468.832,472.547,477.267,483.001,487.721,493.455,497.633,500.5,506.067,510.787,513.654" svgx:width="0.44,0.58,0.48,0.88,0.29,0.44,0.5,0.29,0.55,0.4,0.48,0.5,0.44,0.33,0.29,0.55,0.58,0.42,0.55,0.5,0.58,0.61,0.55,0.33,0.58,0.48,0.55,0.42,0.56,0.88,0.88,0.48,0.33,0.4,0.29,0.44,0.5,0.29,0.55,0.42,0.33,0.4,0.6,0.44,0.33,0.6,0.4,0.48,0.55,0.55,0.33,0.55,0.33,0.58,0.48,0.55,0.44,0.4,0.56,0.42,0.33,0.5,0.29,0.42,0.25,0.55,0.5,0.58,0.61,0.55,0.33,0.58,0.48,0.4,0.48,0.55,0.56,0.55,0.44,0.5,0.58,0.58,0.55,0.33,0.55,0.44,0.55,0.88,0.6,0.4,0.48,0.58,0.48,0.58,0.42,0.29,0.56,0.48,0.29,0.56" style="fill:rgb(0,0,0);font-family:URWPalladioL-Roma;font-size:9.96px;stroke:none;">chemical reactions and the symmetrical structure of the crystals, and thereby cannot comprehensively</text>
   <text y="273.471" x="76.535,80.958,86.757,91.738,95.673,100.654,105.078,108.326,113.098,117.033,119.932,124.913,129.6938,132.176,135.424,141.222,146.0028,148.485,152.241,157.013,161.994,166.418,169.665,172.564,178.004,183.7808,186.293,189.192,194.99,197.889,201.137,204.036,209.018,212.265,215.165,220.604,226.38080000000002,228.893,234.333,237.6198,240.141,245.122,250.89880000000002,253.411,258.183,263.981,268.753,272.509,278.048,282.821,286.068,288.967,293.3494,295.882,300.106,303.005,308.803,314.342,317.241,322.0218,324.504,328.928,332.863,338.402,342.626,345.874,350.855,353.7434,356.245,362.252,368.051,374.138,378.91,382.894,385.336,389.56,395.358,400.798,405.221,410.76" svgx:width="0.44,0.58,0.5,0.4,0.5,0.44,0.33,0.48,0.4,0.29,0.5,0.48,0.55,0.33,0.58,0.48,0.55,0.4,0.48,0.5,0.44,0.33,0.29,0.55,0.58,0.55,0.29,0.58,0.29,0.33,0.29,0.5,0.33,0.29,0.55,0.58,0.55,0.55,0.33,0.55,0.5,0.58,0.55,0.48,0.58,0.48,0.4,0.56,0.48,0.33,0.29,0.44,0.55,0.42,0.29,0.58,0.56,0.29,0.48,0.55,0.44,0.4,0.56,0.42,0.33,0.5,0.29,0.55,0.6,0.58,0.61,0.48,0.4,0.55,0.42,0.58,0.55,0.44,0.56,0.25" style="fill:rgb(0,0,0);font-family:URWPalladioL-Roma;font-size:9.96px;stroke:none;">characterize the reaction initiation of an energetic single crystal under shock.</text>
   <text y="286.98" x="97.795,103.11,108.588,113.373,116.686,122.6,125.557,129.74020000000002,134.591,139.459,145.373,151.582,154.072,159.396,167.871,172.6518,177.454,183.663,188.53,194.272,199.139,202.096,207.645,213.752,218.619,224.6946,229.554,234.635" svgx:width="0.61,0.55,0.55,0.33,0.58,0.29,0.42,0.55,0.48,0.58,0.61,0.25,0.55,0.83,0.48,0.55,0.61,0.48,0.56,0.48,0.29,0.55,0.6,0.48,0.61,0.55,0.5,0.58" style="fill:rgb(0,0,0);font-family:URWPalladioL-Roma;font-size:9.96px;stroke:none;">To this end, we developed an</text>
   <text y="286.98" x="245.263,249.775,254.35660000000001,259.195,262.02,267.67,270.495,273.879,276.704" svgx:width="0.44,0.46,0.55,0.28,0.56,0.28,0.33,0.28,0.44" style="fill:rgb(0,0,0);font-family:URWPalladioL-Ital;font-size:9.96px;stroke:none;">ab initio</text>
   <text y="286.98" x="285.938,294.911,300.459,303.416,308.284,312.796,318.923,321.88,326.961,330.945,335.69,341.899,347.549,353.463,358.544,367.517,370.474,374.986,379.1692,384.02,392.993,397.861,401.173,407.088,412.636,418.71160000000003,423.56" svgx:width="0.88,0.55,0.29,0.48,0.44,0.6,0.29,0.5,0.4,0.55,0.61,0.56,0.58,0.5,0.88,0.29,0.44,0.42,0.55,0.88,0.48,0.33,0.58,0.55,0.61,0.55,0.33" style="fill:rgb(0,0,0);font-family:URWPalladioL-Roma;font-size:9.96px;stroke:none;">molecular dynamics method [</text>
   <text y="286.98" x="426.945" svgx:width="0.5" style="fill:rgb(8,117,183);font-family:URWPalladioL-Roma;font-size:9.96px;stroke:none;">8</text>
   <text y="286.98" x="431.926,435.2128,440.025,445.106,451.02,457.0956,461.954,466.822,472.065,475.378,480.246,486.16,492.369,497.236,503.3116,508.16,511.117,514.43" svgx:width="0.33,0.55,0.5,0.58,0.61,0.55,0.48,0.52,0.33,0.48,0.58,0.61,0.48,0.61,0.55,0.29,0.33,0.42" style="fill:rgb(0,0,0);font-family:URWPalladioL-Roma;font-size:9.96px;stroke:none;">] and extended its</text>
   <text y="300.489" x="76.535,81.047,86.595,95.568,101.675,107.803,111.116,116.197,119.509,122.467,128.015,133.929,139.01,141.89839999999998,145.808,150.32,155.401,161.508,166.589,172.209,175.166,178.123,181.08,184.393,189.9706,193.884,199.504,205.08159999999998,208.985,211.942,220.915,227.022,230.863,236.411,242.153,245.11,251.024,256.6016,260.515,263.828,269.742,274.5228,278.441,282.953,288.501,294.71,299.578,302.402,306.5852,310.552,316.66,321.741,325.754,330.835,333.792,336.75,341.617,344.5054,348.415,352.927,358.008,360.965,365.477,371.605,374.562,379.643,382.956,385.913,391.461,397.2378,401.216" svgx:width="0.44,0.55,0.88,0.6,0.6,0.33,0.5,0.33,0.29,0.55,0.58,0.5,0.29,0.55,0.44,0.5,0.6,0.5,0.55,0.29,0.29,0.29,0.33,0.56,0.55,0.55,0.56,0.55,0.29,0.88,0.6,0.4,0.55,0.56,0.29,0.58,0.56,0.55,0.33,0.58,0.48,0.55,0.44,0.55,0.61,0.48,0.28,0.42,0.55,0.6,0.5,0.4,0.5,0.29,0.29,0.48,0.29,0.55,0.44,0.5,0.29,0.44,0.6,0.29,0.5,0.33,0.29,0.55,0.58,0.55,0.48" style="fill:rgb(0,0,0);font-family:URWPalladioL-Roma;font-size:9.96px;stroke:none;">computational capability by improving the code’s parallel calculation e</text>
   <text y="300.489" x="406.084" svgx:width="0.92" style="fill:rgb(0,0,0);font-family:Rpxr;font-size:9.96px;stroke:none;">ﬃ</text>
   <text y="300.489" x="415.422,419.934,422.891,427.758,433.673,438.185,442.727,445.217,452.807,462.045,466.8258,470.753,476.861,481.728,485.742,489.126,494.674,498.688,507.661,512.529" svgx:width="0.44,0.29,0.48,0.58,0.44,0.56,0.25,0.55,1.0,0.48,0.55,0.6,0.48,0.4,0.33,0.55,0.4,0.88,0.48,0.61" style="fill:rgb(0,0,0);font-family:URWPalladioL-Roma;font-size:9.96px;stroke:none;">ciency. We performed</text>
   <text y="313.999" x="76.535,80.844,86.758,92.306,96.818,102.3956,106.055,114.53,119.611,125.353,130.1338,133.817,138.126,141.083,150.056,156.184,159.141,164.222,167.534,170.491,176.04,181.8168,185.541,188.854,193.721,198.03,201.343,205.5262,209.249,214.797,220.5738,224.298,229.379,234.35899999999998,238.058,241.37,247.02,253.117,257.985,262.1682,265.891,271.439,274.72580000000005,278.41,283.278,289.192,294.06,297.901,303.551,308.418,311.731,314.688,319.0704,322.787,327.096,330.053,335.967,341.617,344.574,349.3548,353.029,357.541,361.555,367.205,371.513,374.826,379.907,382.864,387.173,389.663,393.585,402.06,405.017,408.33,414.10679999999996,417.831,422.698,427.779,432.291,438.0678,441.803,446.111,449.068,458.041,464.169,467.126,472.207,475.52,480.387,486.4626,490.183,499.156,504.705,510.913,515.781" svgx:width="0.42,0.58,0.55,0.44,0.56,0.55,0.83,0.5,0.56,0.48,0.55,0.42,0.29,0.88,0.6,0.29,0.5,0.33,0.29,0.55,0.58,0.55,0.33,0.48,0.42,0.33,0.42,0.55,0.55,0.58,0.55,0.5,0.5,0.55,0.33,0.56,0.6,0.48,0.42,0.55,0.55,0.33,0.55,0.48,0.58,0.48,0.4,0.56,0.48,0.33,0.29,0.44,0.55,0.42,0.29,0.58,0.56,0.29,0.48,0.55,0.44,0.4,0.56,0.42,0.33,0.5,0.29,0.42,0.25,0.55,0.83,0.29,0.33,0.58,0.55,0.48,0.5,0.44,0.58,0.55,0.42,0.29,0.88,0.6,0.29,0.5,0.33,0.48,0.61,0.55,0.88,0.55,0.61,0.48,0.29" style="fill:rgb(0,0,0);font-family:URWPalladioL-Roma;font-size:9.96px;stroke:none;">shock wave simulation tests on 11 types of energetic single crystals, with each simulated model</text>
   <text y="327.508" x="76.535,81.047,86.595,95.568,101.675,107.224,111.532,116.4,122.4756,125.444,130.992,134.2788,137.222,143.38,148.461,153.542,158.622,163.602,166.539,171.619,174.932,180.481,189.454,193.762,196.252,200.835,208.822,214.5988,217.571,220.884,226.798,231.5788,234.511,240.131,245.212,249.52,252.477,256.66020000000003,259.621,265.169,268.4558,271.399,274.711,280.626,285.4068,288.328,292.84,297.921,300.878,305.39,311.518,314.475,319.556,322.868,325.826,331.374,337.288,341.597,344.087,347.064,355.539,360.3198,363.241,369.349,373.18,378.728,384.835,390.384,394.692,399.56,405.6356,408.614,413.594,416.53,419.843,425.757,430.625,436.173,440.014,444.882,448.194,451.141,455.653,460.734,463.62239999999997,466.537,469.494,475.408,481.617,484.574,489.086,494.167,497.479,503.028,507.012,509.877,513.19" svgx:width="0.44,0.55,0.88,0.6,0.55,0.42,0.48,0.61,0.55,0.55,0.33,0.55,0.61,0.5,0.5,0.5,0.5,0.55,0.5,0.33,0.55,0.88,0.42,0.25,0.55,0.79,0.58,0.55,0.33,0.58,0.48,0.55,0.55,0.5,0.42,0.29,0.42,0.55,0.55,0.33,0.55,0.33,0.58,0.48,0.55,0.44,0.5,0.29,0.44,0.6,0.29,0.5,0.33,0.29,0.55,0.58,0.42,0.25,0.55,0.83,0.48,0.55,0.6,0.4,0.55,0.6,0.55,0.42,0.48,0.61,0.55,0.5,0.55,0.33,0.58,0.48,0.55,0.4,0.48,0.33,0.29,0.44,0.5,0.29,0.55,0.29,0.58,0.61,0.29,0.44,0.5,0.33,0.55,0.4,0.55,0.33,0.55" style="fill:rgb(0,0,0);font-family:URWPalladioL-Roma;font-size:9.96px;stroke:none;">composed of ~1000 atoms. On the basis of the calculations, we proposed a theoretical indicator to</text>
   <text y="341.018" x="76.535,81.047,86.961,92.042,96.056,101.137,105.649,108.961,113.829,117.843,120.8,125.881,130.6618,133.767,137.079,142.983,147.7638,150.869,155.178,161.092,166.64,171.152,176.72959999999998,179.82,188.295,193.376,199.117,203.8978,206.993,211.301,216.169,222.083,226.392,229.349,232.662,235.619,241.36,244.317,247.63,253.20759999999999,256.288,261.836,265.12280000000004,268.238,273.106,279.02,283.888,287.719,293.369,298.236,301.549,304.506,308.8884,312.036,316.345,319.302,325.216,330.866,333.823,338.6038,341.698,346.21,350.224,355.874,360.183,363.496,368.576,371.534,375.842,378.332,381.533,390.008,395.922,398.879,403.391,409.1678,412.313,415.27,419.4532,422.597,427.464,432.708,438.815,443.683,448.194,451.507,456.375,462.4506,465.592,468.904,474.382,477.471,483.09,487.8708,490.966,497.093,501.402,506.269,509.653,515.781" svgx:width="0.44,0.58,0.5,0.4,0.5,0.44,0.33,0.48,0.4,0.29,0.5,0.48,0.55,0.33,0.58,0.48,0.55,0.42,0.58,0.55,0.44,0.56,0.55,0.83,0.5,0.56,0.48,0.55,0.42,0.48,0.58,0.42,0.29,0.33,0.29,0.56,0.29,0.33,0.56,0.55,0.55,0.33,0.55,0.48,0.58,0.48,0.4,0.56,0.48,0.33,0.29,0.44,0.55,0.42,0.29,0.58,0.56,0.29,0.48,0.55,0.44,0.4,0.56,0.42,0.33,0.5,0.29,0.42,0.25,0.55,0.83,0.58,0.29,0.44,0.58,0.55,0.29,0.42,0.55,0.48,0.52,0.6,0.48,0.44,0.33,0.48,0.61,0.55,0.33,0.55,0.55,0.55,0.48,0.55,0.6,0.42,0.48,0.33,0.6,0.29" style="fill:rgb(0,0,0);font-family:URWPalladioL-Roma;font-size:9.96px;stroke:none;">characterize the shock wave sensitivity of energetic single crystals, which is expected to be useful</text>
   <text y="354.527" x="76.535,79.892,85.397,89.381,91.88,95.167,101.035,105.8158,108.364,113.194,118.89,123.931,126.865,132.945,137.986,141.273,144.206,149.711,155.48780000000002,158.079,163.121,168.988,175.0636,177.649,182.69,188.85,191.209,197.289,201.564,204.851,213.753,218.582,224.45,227.7368,230.237,235.742,239.0288,241.6,244.887,250.755,255.5358,258.084,262.359,268.227,273.732,278.208,283.78560000000004,286.304,290.579,295.408,301.276,305.551,308.485,311.772,314.706,320.402,323.336,326.623,332.2006,334.729,340.234,343.5208,346.091,351.959,357.464,363.16,367.99,370.8784,373.424,379.584,389.122,393.397,395.887,399.436,408.601,413.3818,415.93,420.971,423.905,428.18,433.658,436.185,439.986,444.816,450.512,455.341,460.383,463.316,468.146,474.2216,476.806,480.093,485.961,490.7418,493.291,497.565,503.433,508.938,513.415" svgx:width="0.33,0.55,0.4,0.55,0.33,0.58,0.48,0.55,0.48,0.56,0.5,0.29,0.6,0.5,0.33,0.29,0.55,0.58,0.55,0.5,0.58,0.61,0.55,0.5,0.61,0.23,0.6,0.42,0.33,0.88,0.48,0.58,0.33,0.55,0.55,0.33,0.55,0.33,0.58,0.48,0.55,0.42,0.58,0.55,0.44,0.56,0.55,0.42,0.48,0.58,0.42,0.29,0.33,0.29,0.56,0.29,0.33,0.56,0.55,0.55,0.33,0.55,0.58,0.55,0.56,0.48,0.29,0.55,0.61,0.95,0.42,0.25,0.55,1.0,0.48,0.55,0.5,0.29,0.42,0.55,0.55,0.4,0.48,0.56,0.48,0.5,0.29,0.48,0.61,0.55,0.33,0.58,0.48,0.55,0.42,0.58,0.55,0.44,0.56" style="fill:rgb(0,0,0);font-family:URWPalladioL-Roma;font-size:9.96px;stroke:none;">for the evaluation and adjustment of the shock sensitivity of novel EMs. We also revealed the shock</text>
   <text y="368.036" x="76.535,80.216,84.892,89.774,94.109,97.292,100.133,105.464,111.2408,113.548,116.389,122.071,124.912,128.095,130.936,135.818,139.001,141.842,147.173,152.9498,155.267,163.888,168.564,172.899,178.581,183.463,189.145,191.987,196.126,204.747,207.23700000000002,209.619,212.87,218.201,224.088,229.771,235.8466,238.148,241.399,246.281,250.615,253.798,259.129,262.986,267.1692,269.527,272.71,278.392,283.274,286.56080000000003,288.868,293.203,298.085,303.86179999999996,306.179,309.02,314.702,320.384,323.226,328.625,331.466,334.75280000000004,337.06,340.243,345.925,350.7058,353.014,357.153,362.836,368.166,372.501,378.0786,380.332,384.471,389.148,394.83,398.97,401.811,404.994,407.835,413.351,416.192,419.375,424.9526,427.215,432.546,435.8328,438.209,444.174,453.41,457.5932,459.961,464.843,470.525,476.6006,478.902,484.77,488.441,493.772,499.288,502.129,508.095,512.771" svgx:width="0.4,0.48,0.5,0.44,0.33,0.29,0.55,0.58,0.55,0.29,0.58,0.29,0.33,0.29,0.5,0.33,0.29,0.55,0.58,0.55,0.88,0.48,0.44,0.58,0.5,0.58,0.29,0.42,0.88,0.25,0.55,0.33,0.55,0.6,0.58,0.61,0.55,0.33,0.5,0.44,0.33,0.55,0.4,0.42,0.55,0.33,0.58,0.5,0.33,0.55,0.44,0.5,0.58,0.55,0.29,0.58,0.58,0.29,0.55,0.29,0.33,0.55,0.33,0.58,0.48,0.55,0.42,0.58,0.55,0.44,0.56,0.55,0.42,0.48,0.58,0.42,0.29,0.33,0.29,0.56,0.29,0.33,0.56,0.55,0.55,0.33,0.55,0.61,0.95,0.42,0.55,0.5,0.58,0.61,0.55,0.6,0.4,0.55,0.56,0.29,0.61,0.48,0.61" style="fill:rgb(0,0,0);font-family:URWPalladioL-Roma;font-size:9.96px;stroke:none;">reaction initiation mechanism, found factors that can inhibit the shock sensitivity of EMs and provided</text>
   <text y="381.546" x="76.535,79.783,85.581,90.353,95.793,99.549,104.321,107.569,110.468,114.891,119.872,122.7604,125.262,129.118,135.125,138.024,142.796,146.9792,149.511,152.829,158.268,162.252,164.694,168.918,174.457,180.256,183.503,189.302,194.074,198.298,201.197,206.178,209.077,214.876,220.4536,222.905,228.704,234.143,239.772,244.544,247.4324,249.934,256.021,265.446,269.6292,272.161,280.469,283.368,286.616,292.39279999999997,294.905,297.804,303.244,311.5108,314.043,318.267,324.066,329.505,333.929,339.5066,341.959,346.183,350.955,356.753,360.977,363.876,367.124,370.023,375.652,378.551,381.799,386.232" svgx:width="0.33,0.58,0.48,0.55,0.4,0.48,0.33,0.29,0.44,0.5,0.29,0.55,0.4,0.6,0.29,0.48,0.42,0.55,0.33,0.55,0.4,0.55,0.42,0.56,0.58,0.33,0.58,0.48,0.42,0.29,0.5,0.29,0.58,0.56,0.55,0.58,0.55,0.56,0.48,0.29,0.55,0.61,0.95,0.42,0.55,0.83,0.29,0.33,0.58,0.55,0.29,0.55,0.83,0.55,0.42,0.58,0.55,0.44,0.56,0.55,0.42,0.48,0.58,0.42,0.29,0.33,0.29,0.56,0.29,0.33,0.56,0.25" style="fill:rgb(0,0,0);font-family:URWPalladioL-Roma;font-size:9.96px;stroke:none;">theoretical rules for synthesizing novel EMs with low shock sensitivity.</text>
   <text y="404.759" x="76.535,81.516,84.006,87.494,97.456,102.438,105.755,111.842,117.382,123.469,129.008,132.326,137.865,143.404" svgx:width="0.5,0.25,0.55,1.0,0.5,0.33,0.61,0.56,0.61,0.56,0.33,0.56,0.56,0.56" style="fill:rgb(0,0,0);font-family:URWPalladioL-Bold;font-size:9.96px;stroke:none;">2. Methodology</text>
   <text y="427.972" x="76.535,81.516,84.007,88.988,91.478,94.966,104.37,109.91,112.679,115.997,118.766,122.642,126.697,131.12,133.89,137.77439999999999,140.256,145.795,148.565,156.315,161.855,164.624,169.048,172.365,175.135,179.558,185.13559999999998,187.588,196.993,200.868,204.186,209.167,213.59,218.57,221.062,225.486,228.2748,230.746,236.285,241.267,245.69,249.745,254.1274,256.659,265.864,270.288,275.269,279.15340000000003,281.635,286.616,290.492,294.367,297.685" svgx:width="0.5,0.25,0.5,0.25,0.55,0.94,0.56,0.28,0.33,0.28,0.39,0.41,0.44,0.28,0.39,0.55,0.56,0.28,0.78,0.56,0.28,0.44,0.33,0.28,0.44,0.56,0.55,0.94,0.39,0.33,0.5,0.44,0.5,0.55,0.44,0.28,0.55,0.56,0.5,0.44,0.41,0.44,0.55,0.94,0.44,0.5,0.39,0.55,0.61,0.39,0.39,0.33,0.39" style="fill:rgb(0,0,0);font-family:URWPalladioL-Ital;font-size:9.96px;stroke:none;">2.1. Multiscale Simulation Method of Shock Wave Tests</text>
   <text y="447.459" x="97.795,103.334,106.233,111.773,117.78,121.536" svgx:width="0.56,0.29,0.56,0.6,0.4,0.48" style="fill:rgb(0,0,0);font-family:URWPalladioL-Roma;font-size:9.96px;stroke:none;">Figure</text>
   <text y="447.459" x="128.799" svgx:width="0.5" style="fill:rgb(8,117,183);font-family:URWPalladioL-Roma;font-size:9.96px;stroke:none;">1</text>
   <text y="447.459" x="133.78,138.76,141.252,145.476,149.899,155.698,160.47,169.267,174.248,177.486,180.385,184.808,189.79,192.689,195.588,201.16559999999998,203.618,207.842,213.64,219.08,227.388,231.5712,234.103,237.351,243.149,247.9298,250.412,254.636,257.535,266.332,272.34,275.239,280.22,283.468,288.24,294.3156,296.808,302.895,308.434,314.232,319.214,328.011,330.91,335.333,340.314,343.2024,345.704,349.928,355.727,361.166,365.59,371.1676,373.619,379.607,383.363,388.802,393.226,397.998,402.222,406.4052,408.937,411.836,417.6128,420.115,425.095,427.587,431.811,434.71,440.508,446.048,448.947,453.7278,456.209,460.633,464.568,470.107,474.331,477.579,482.561,485.46,487.95,491.437,499.188,502.4748,504.927,508.174,513.973" svgx:width="0.5,0.55,0.42,0.44,0.58,0.48,0.88,0.5,0.33,0.29,0.44,0.5,0.29,0.29,0.56,0.55,0.42,0.58,0.55,0.83,0.42,0.55,0.33,0.58,0.48,0.55,0.42,0.29,0.88,0.6,0.29,0.5,0.33,0.48,0.61,0.55,0.61,0.56,0.58,0.5,0.88,0.29,0.44,0.5,0.29,0.55,0.42,0.58,0.55,0.44,0.56,0.55,0.6,0.4,0.55,0.44,0.48,0.42,0.42,0.55,0.29,0.58,0.55,0.5,0.55,0.42,0.29,0.58,0.56,0.29,0.48,0.55,0.44,0.4,0.56,0.42,0.33,0.5,0.29,0.25,0.55,0.78,0.33,0.55,0.33,0.58,0.48" style="fill:rgb(0,0,0);font-family:URWPalladioL-Roma;font-size:9.96px;stroke:none;">a schematically shows the simulated dynamical shock process in a single crystal. At the</text>
   <text y="460.968" x="76.535,81.934,86.611,92.039,94.88,100.563,106.245,109.086,114.768,120.3456,122.081,130.224,135.906,140.583,146.3598,148.159,151.342,157.024,161.8048,163.585,167.725,173.407,178.738,183.073,188.6506,190.395,198.538,203.419,208.936,213.7168,215.497,219.178,223.854,228.736,233.071,238.753,243.43,247.6132,249.454,252.636,258.319,263.0998,264.889,269.029,271.87,277.553,282.981,285.822,290.6028,292.383,296.718,300.575,306.003,310.143,313.326,318.207,321.048,323.538,325.5,328.683,334.366,339.1468,340.927,345.066,347.907,356.528,362.416,365.257,370.138,373.321,376.162,381.493,387.2698,389.06,392.741,397.417,402.846,405.687,411.018,416.79479999999995,418.594,422.734,425.916,430.798,434.655,437.828,442.0112,443.862,447.044,452.522,454.26,460.147,465.829,471.794,476.471,480.152,485.58,491.058,492.795,495.637,500.518,503.701,506.884,509.725,514.06" svgx:width="0.55,0.48,0.56,0.29,0.58,0.58,0.29,0.58,0.56,0.55,0.83,0.58,0.48,0.58,0.55,0.33,0.58,0.48,0.55,0.42,0.58,0.55,0.44,0.56,0.55,0.83,0.5,0.56,0.48,0.55,0.4,0.48,0.5,0.44,0.58,0.48,0.42,0.55,0.33,0.58,0.48,0.55,0.42,0.29,0.58,0.56,0.29,0.48,0.55,0.44,0.4,0.56,0.42,0.33,0.5,0.29,0.25,0.55,0.33,0.58,0.48,0.55,0.42,0.29,0.88,0.6,0.29,0.5,0.33,0.29,0.55,0.58,0.55,0.4,0.48,0.56,0.29,0.55,0.58,0.55,0.42,0.33,0.5,0.4,0.33,0.42,0.55,0.33,0.55,0.55,0.6,0.58,0.61,0.48,0.4,0.56,0.55,0.55,0.29,0.5,0.33,0.33,0.29,0.44,0.48" style="fill:rgb(0,0,0);font-family:URWPalladioL-Roma;font-size:9.96px;stroke:none;">beginning when the shock wave reaches the single crystal, the simulation region starts to undergo lattice</text>
   <text y="474.477" x="76.535,81.616,87.53,93.6056,96.544,105.517,111.065,114.022,118.89,123.401,129.529,132.486,137.567,141.55100000000002,144.376,150.584,155.452,158.836,164.384,168.398,177.371,182.452,185.765,188.722,194.27,200.184,202.674,207.155,216.769,219.726,223.038,228.81480000000002,231.747,235.06,240.974,245.7548,248.646,251.603,257.518,262.029,265.86,270.728,275.809,280.118,284.8988,287.79,293.338,296.62480000000005,299.527,303.835,306.792,315.765,321.893,324.85,329.931,333.244,336.201,341.749,347.5258,350.468,353.781,356.738,365.711,370.578,373.068,375.995,379.307,385.222,390.0028,392.894,397.202,400.159,409.132,415.26,418.217,423.298,426.611,429.568,435.116,440.89279999999997,443.825,447.666,452.534,458.184,461.141,466.689,472.4658,475.398,481.048,485.062,490.143,496.352,502.479,507.56,510.517,513.474" svgx:width="0.5,0.58,0.61,0.55,0.88,0.55,0.29,0.48,0.44,0.6,0.29,0.5,0.4,0.55,0.61,0.48,0.33,0.55,0.4,0.88,0.5,0.33,0.29,0.55,0.58,0.25,0.55,1.0,0.29,0.33,0.58,0.55,0.33,0.58,0.48,0.55,0.29,0.58,0.44,0.4,0.48,0.5,0.42,0.48,0.55,0.55,0.33,0.55,0.42,0.29,0.88,0.6,0.29,0.5,0.33,0.29,0.55,0.58,0.55,0.33,0.29,0.88,0.48,0.25,0.55,0.33,0.58,0.48,0.55,0.42,0.29,0.88,0.6,0.29,0.5,0.33,0.29,0.55,0.58,0.55,0.4,0.48,0.56,0.29,0.55,0.58,0.55,0.56,0.4,0.5,0.61,0.6,0.5,0.29,0.29,0.56" style="fill:rgb(0,0,0);font-family:URWPalladioL-Roma;font-size:9.96px;stroke:none;">and molecular deformation. With the increase of simulation time, the simulation region gradually</text>
   <text y="487.987" x="76.535,79.492,84.36,89.441,95.182,100.05,104.2332,107.732,111.045,116.959,121.7398,125.21,133.685,138.766,144.508,149.2888,152.749,156.133,159.974,165.522,171.437,174.7238,178.123,181.954,186.822,189.779,194.86,198.172,201.129,206.871,211.6518,215.122,218.435,223.913,227.357,230.67,236.584,241.3648,244.825,250.953,256.867,261.176,267.09,272.638,277.15,282.8,287.668,293.7436,297.261,306.233,311.314,314.627,319.495,323.509,326.466,331.547,334.504,336.994,343.192,349.421,355.336,360.1168,363.577,372.55,378.098,381.055,385.923,390.435,396.562,399.519,404.387,408.5702,412.079,415.036,420.8128,424.324,427.637,433.551,438.3318,441.793,446.101,449.058,458.031,464.159,467.116,472.197,475.51,480.377,486.4526,489.97,493.801,498.668,504.318,507.276,512.824" svgx:width="0.29,0.48,0.5,0.56,0.48,0.42,0.55,0.33,0.58,0.48,0.55,0.83,0.5,0.56,0.48,0.55,0.33,0.4,0.55,0.58,0.33,0.55,0.4,0.48,0.29,0.5,0.33,0.29,0.56,0.48,0.55,0.33,0.55,0.55,0.33,0.58,0.48,0.55,0.6,0.58,0.42,0.58,0.55,0.44,0.56,0.48,0.61,0.55,0.88,0.5,0.33,0.48,0.4,0.29,0.5,0.29,0.25,0.55,0.61,0.58,0.48,0.55,0.88,0.55,0.29,0.48,0.44,0.6,0.29,0.48,0.42,0.55,0.29,0.58,0.55,0.33,0.58,0.48,0.55,0.42,0.29,0.88,0.6,0.29,0.5,0.33,0.48,0.61,0.55,0.4,0.48,0.56,0.29,0.55,0.58" style="fill:rgb(0,0,0);font-family:URWPalladioL-Roma;font-size:9.96px;stroke:none;">leaves the wave front relative to the unshocked material. The molecules in the simulated region</text>
   <text y="501.496" x="76.535,81.616,85.447,90.2278,92.936,96.249,102.163,107.031,112.8078,115.557,120.068,125.617,134.59,140.697,144.538,149.406,153.714,158.023,162.89,168.9656,171.711,175.024,180.502,183.184,187.025,191.892,196.973,201.485,204.798,207.288,209.98,214.848,220.589,225.457,231.371,234.684,240.811,245.892,248.85,251.807,257.3846,260.078,263.909,268.777,273.858,278.37,284.284,287.241,293.155,298.7326,301.417,304.73,310.644,315.4248,318.133,325.338,331.252,336.333,342.44,351.413,356.494,362.408,367.489,370.873,376.421,382.549,388.199,394.327,399.194,402.48080000000004,405.118,408.502,415.707,419.091,422.37780000000004,425.087,429.395,432.708,437.789,441.102,445.8828,448.591,457.066,462.98,467.848,473.6248,476.373,479.686,485.6,490.3808,493.09,497.398,503.312,508.861,513.373" svgx:width="0.5,0.4,0.48,0.55,0.33,0.58,0.48,0.58,0.55,0.44,0.55,0.88,0.6,0.4,0.48,0.42,0.42,0.48,0.61,0.55,0.33,0.55,0.55,0.4,0.48,0.5,0.44,0.33,0.25,0.55,0.48,0.56,0.48,0.58,0.33,0.6,0.5,0.29,0.29,0.56,0.55,0.4,0.48,0.5,0.44,0.58,0.29,0.58,0.56,0.55,0.33,0.58,0.48,0.55,0.71,0.58,0.5,0.6,0.88,0.5,0.58,0.5,0.33,0.55,0.6,0.56,0.6,0.48,0.33,0.55,0.33,0.71,0.33,0.33,0.55,0.42,0.33,0.5,0.33,0.48,0.55,0.83,0.58,0.48,0.58,0.55,0.33,0.58,0.48,0.55,0.42,0.58,0.55,0.44,0.56" style="fill:rgb(0,0,0);font-family:URWPalladioL-Roma;font-size:9.96px;stroke:none;">are then compressed to react, eventually reaching the Chapman–Jouguet (CJ) state when the shock</text>
   <text y="515.006" x="76.117,84.393,89.354,94.96,99.7408,102.214,108.177,111.918,117.336,123.3,128.261,133.778,138.739,141.974,146.727,150.9102,153.435,157.642,160.877,165.63,170.591,176.654,179.542,182.429,186.835,189.32500000000002,192.828,201.838,206.6188,209.092,211.969,220.731,226.695,229.582,234.335,243.097,247.85,253.625,256.86,261.613,267.6886,270.176,273.411,279.186,283.9668,286.44,295.201,301.185,304.072,307.307,310.195,314.402,318.808,323.769,326.656,331.4368,333.91,338.117,343.892,349.31,353.716,359.2936,361.733,364.968,369.721,374.127,379.902,385.677,388.564,394.121,400.105,404.8858,407.358,410.662,420.049,425.259,430.468,436.551,439.8378,442.346" svgx:width="0.83,0.5,0.56,0.48,0.55,0.6,0.4,0.55,0.6,0.5,0.56,0.5,0.33,0.48,0.42,0.55,0.42,0.33,0.48,0.5,0.61,0.29,0.29,0.56,0.25,0.55,1.0,0.48,0.55,0.29,0.88,0.6,0.29,0.48,0.88,0.48,0.58,0.33,0.48,0.61,0.55,0.33,0.58,0.48,0.55,0.88,0.6,0.29,0.33,0.29,0.42,0.44,0.5,0.29,0.48,0.55,0.42,0.58,0.55,0.44,0.56,0.55,0.33,0.48,0.44,0.58,0.58,0.29,0.56,0.6,0.48,0.55,0.33,0.95,0.52,0.52,0.61,0.33,0.55,0.33" style="fill:rgb(0,0,0);font-family:URWPalladioL-Roma;font-size:9.96px;stroke:none;">wave propagates steadily. We implemented the multiscale shock technique (MSST) [</text>
   <text y="515.006" x="445.654" svgx:width="0.5" style="fill:rgb(8,117,183);font-family:URWPalladioL-Roma;font-size:9.96px;stroke:none;">9</text>
   <text y="515.006" x="450.635" svgx:width="0.25" style="fill:rgb(0,0,0);font-family:URWPalladioL-Roma;font-size:9.96px;stroke:none;">,</text>
   <text y="515.006" x="453.116,458.097" svgx:width="0.5,0.5" style="fill:rgb(8,117,183);font-family:URWPalladioL-Roma;font-size:9.96px;stroke:none;">10</text>
   <text y="515.006" x="463.079,466.36580000000004,468.884,471.771,477.5478,480.047,483.282,489.057,493.8378,496.3,504.556,507.444,512.961" svgx:width="0.33,0.55,0.29,0.58,0.55,0.33,0.58,0.48,0.55,0.83,0.29,0.56,0.58" style="fill:rgb(0,0,0);font-family:URWPalladioL-Roma;font-size:9.96px;stroke:none;">] in the High</text>
   <text y="528.515" x="76.147,84.053,88.565,93.077,99.204,103.218,108.299,112.811,118.38860000000001,121.631,126.712,130.015,135.563,144.536,147.493,151.802,155.115,158.072,162.4544,165.754,171.089,174.046,183.019,189.147,192.104,197.185,200.498,203.455,209.003,214.7798,218.088,221.472,227.02,231.00400000000002,234.194,240.403,246.317,251.185,255.016,260.666,265.533,268.846,271.803,276.1854,279.486,289.099,294.18,297.492,302.36,306.374,309.331,314.412,317.369,321.5522,324.838,328.222,336.677,344.582,349.917,356.126,365.739,369.0258,372.294,378.401,383.482,387.994,393.644,398.725,404.375,409.1558,412.403" svgx:width="0.78,0.44,0.44,0.6,0.4,0.5,0.44,0.56,0.55,0.5,0.33,0.55,0.88,0.29,0.42,0.33,0.29,0.44,0.55,0.52,0.29,0.88,0.6,0.29,0.5,0.33,0.29,0.55,0.58,0.55,0.33,0.55,0.4,0.55,0.61,0.58,0.48,0.4,0.56,0.48,0.33,0.29,0.44,0.55,0.95,0.5,0.33,0.48,0.4,0.29,0.5,0.29,0.42,0.55,0.33,0.83,0.78,0.52,0.61,0.95,0.33,0.55,0.6,0.5,0.44,0.56,0.5,0.56,0.48,0.55,0.33" style="fill:rgb(0,0,0);font-family:URWPalladioL-Roma;font-size:9.96px;stroke:none;">Accuracy atomistic Simulation for Energetic Materials (HASEM) package [</text>
   <text y="528.515" x="415.792" svgx:width="0.5" style="fill:rgb(8,117,183);font-family:URWPalladioL-Roma;font-size:9.96px;stroke:none;">8</text>
   <text y="528.515" x="420.773,424.157,426.647,430.03,434.339,439.817,443.058,448.139,452.3222,455.608,458.921,464.399,467.64,472.151,477.232,483.34,486.652,492.78,496.611,501.3918,504.649,507.962,513.876" svgx:width="0.33,0.25,0.55,0.42,0.55,0.55,0.5,0.42,0.55,0.33,0.55,0.55,0.44,0.5,0.6,0.33,0.6,0.4,0.48,0.55,0.33,0.58,0.48" style="fill:rgb(0,0,0);font-family:URWPalladioL-Roma;font-size:9.96px;stroke:none;">], so as to capture the</text>
   <text y="542.024" x="76.535,81.571,84.855,90.354,99.248,102.179,106.5614,109.139,118.032,123.532,126.815,129.746,135.246,141.108,145.2912,147.876,152.912,158.774,164.8496,167.416,170.7,176.562,181.3428,183.884,188.356,194.218,199.043,207.937,210.868,215.34,220.376,223.2644,225.795,229.602,234.427,239.463,243.935,247.218,250.149,255.649,261.511,265.6942,268.269,273.769,277.05580000000003,279.61,282.541,288.403,294.265,299.09" svgx:width="0.5,0.33,0.55,0.88,0.29,0.44,0.55,0.88,0.55,0.33,0.29,0.55,0.58,0.42,0.55,0.5,0.58,0.61,0.55,0.33,0.58,0.48,0.55,0.44,0.58,0.48,0.88,0.29,0.44,0.5,0.29,0.55,0.4,0.48,0.5,0.44,0.33,0.29,0.55,0.58,0.42,0.55,0.55,0.33,0.55,0.29,0.58,0.58,0.48,0.4" style="fill:rgb(0,0,0);font-family:URWPalladioL-Roma;font-size:9.96px;stroke:none;">atomic motions and the chemical reactions of inner</text>
   <text y="542.024" x="303.073" svgx:width="0.29" style="fill:rgb(0,0,0);font-family:Rpxr;font-size:9.96px;stroke:none;">/</text>
   <text y="542.024" x="305.964,308.895,314.757,318.041,322.865,326.849,329.331,338.225,343.725,346.656,351.48,355.952,362.026,364.957,369.781,373.9642,376.55,382.049,387.82579999999996,390.399,393.683,399.545,404.3258,406.867,413.021,417.846,423.708,427.978,430.909,434.193,439.7706,442.281,445.635,451.708,457.57,462.042,465.326,468.257,473.756,479.618,484.655,487.54339999999996,490.083,493.367,499.229,504.054,509.553,513.531" svgx:width="0.29,0.58,0.33,0.48,0.4,0.55,0.88,0.55,0.29,0.48,0.44,0.6,0.29,0.48,0.42,0.55,0.55,0.58,0.55,0.33,0.58,0.48,0.55,0.61,0.48,0.58,0.42,0.29,0.33,0.56,0.55,0.33,0.6,0.58,0.44,0.33,0.29,0.55,0.58,0.5,0.29,0.55,0.33,0.58,0.48,0.55,0.4,0.56" style="fill:rgb(0,0,0);font-family:URWPalladioL-Roma;font-size:9.96px;stroke:none;">inter molecules on the density functional theory</text>
   <text y="555.534" x="76.207,79.525,87.236,92.775,98.882,102.1688,104.69,109.671,114.095,118.518,124.526,128.461,133.442,137.866,143.4436,145.895,148.794,153.567,159.195,163.968,166.867" svgx:width="0.33,0.77,0.56,0.61,0.33,0.55,0.5,0.44,0.44,0.6,0.4,0.5,0.44,0.56,0.55,0.29,0.48,0.56,0.48,0.29,0.25" style="fill:rgb(0,0,0);font-family:URWPalladioL-Roma;font-size:9.96px;stroke:none;">(DFT) accuracy level.</text>
   <text y="578.747" x="76.535,81.516,84.007,88.988,91.479,96.46,98.94999999999999,102.438,109.501,114.941,120.739,123.987,126.886,132.684,138.692,144.699,155.987,162.094,167.892,172.664,178.104,182.039,187.61659999999998,190.069,197.78,202.552,206.776,211.199,215.135,218.034,224.021,227.269,230.168,235.608,241.3848,243.897,249.336,252.6228,255.144,258.392,264.19,268.9708,271.453,276.684,282.482,287.921,292.345,297.92260000000005,300.375,309.421,314.402,320.031,324.8118,327.294,332.524,335.772,339.627,345.635,350.058,353.306,359.313,363.069" svgx:width="0.5,0.25,0.5,0.25,0.5,0.25,0.55,0.71,0.55,0.58,0.33,0.29,0.58,0.6,0.6,0.88,0.61,0.58,0.48,0.55,0.4,0.56,0.55,0.77,0.48,0.42,0.44,0.4,0.29,0.6,0.33,0.29,0.55,0.58,0.55,0.55,0.33,0.55,0.33,0.58,0.48,0.55,0.52,0.58,0.55,0.44,0.56,0.55,1.0,0.5,0.56,0.48,0.55,0.52,0.33,0.4,0.6,0.44,0.33,0.6,0.4,0.48" style="fill:rgb(0,0,0);font-family:URWPalladioL-Roma;font-size:9.96px;stroke:none;">2.1.1. ContinuumTheory Description of the Shock Wave Structure</text>
   <text y="598.234" x="97.795,104.024,109.938,114.7188,118.718,123.027,128.941,134.489,139.001,144.5786,148.564,157.039,162.12,167.861,172.6418,176.651,182.758,186.589,192.138,198.245,203.326,208.976,214.057,217.37,220.327,225.875,231.6518,235.701,244.176,249.257,253.4402,257.478,266.451,272.0,278.208,283.076,286.033,288.99,293.858,299.9336,303.989,310.117,314.425,317.382,323.297,328.87460000000004,332.859,336.172,342.086,346.8668,350.866,356.414,362.328,367.196,370.58,376.789,379.746,388.719,393.586,399.5,403.809,406.766,412.314,418.229,423.31,426.1984,430.179,436.388,442.515,445.473,450.34,454.32399999999996,458.266,463.134,468.824,474.952,480.033,483.346,486.303,491.851,497.765,501.9482,505.997,509.38,514.929" svgx:width="0.61,0.58,0.48,0.55,0.42,0.58,0.55,0.44,0.56,0.55,0.83,0.5,0.56,0.48,0.55,0.6,0.4,0.55,0.6,0.5,0.56,0.5,0.33,0.29,0.55,0.58,0.55,0.83,0.5,0.42,0.55,0.88,0.55,0.61,0.48,0.29,0.29,0.48,0.61,0.55,0.6,0.42,0.29,0.58,0.56,0.55,0.33,0.58,0.48,0.55,0.55,0.58,0.48,0.33,0.61,0.29,0.88,0.48,0.58,0.42,0.29,0.55,0.58,0.5,0.29,0.55,0.61,0.6,0.29,0.48,0.4,0.55,0.48,0.56,0.6,0.5,0.33,0.29,0.55,0.58,0.42,0.55,0.33,0.55,0.4" style="fill:rgb(0,0,0);font-family:URWPalladioL-Roma;font-size:9.96px;stroke:none;">The shock wave propagation was modelled using the one-dimensional Euler equations for</text>
   <text y="611.743" x="76.535,80.87,86.201,94.822,100.69,104.37,109.047,113.187,117.326,120.167,125.567,128.408,133.1888,135.32,141.256,146.587,156.975" svgx:width="0.44,0.55,0.88,0.6,0.4,0.48,0.42,0.42,0.29,0.55,0.29,0.48,0.55,0.61,0.55,0.83,0.33" style="fill:rgb(0,0,0);font-family:URWPalladioL-Roma;font-size:9.96px;stroke:none;">compressible ﬂow[</text>
   <text y="611.743" x="160.224" svgx:width="0.5" style="fill:rgb(8,117,183);font-family:URWPalladioL-Roma;font-size:9.96px;stroke:none;">9</text>
   <text y="611.743" x="165.205" svgx:width="0.25" style="fill:rgb(0,0,0);font-family:URWPalladioL-Roma;font-size:9.96px;stroke:none;">,</text>
   <text y="611.743" x="167.646,172.627" svgx:width="0.5,0.5" style="fill:rgb(8,117,183);font-family:URWPalladioL-Roma;font-size:9.96px;stroke:none;">10</text>
   <text y="611.743" x="177.609,180.86,183.35000000000002,185.595,193.738,199.42,202.261,206.596,212.3728,214.514,222.657,227.334,231.015,235.79579999999999,237.927,241.608,246.284,252.152,255.833,260.51,264.649,269.326,275.008,278.191,282.868,288.9436,291.069,296.468,302.04560000000004,304.142,307.325,313.007,317.7878,319.92,324.255,329.585,335.268,339.407,344.084,347.94,353.457,358.338,361.521,364.362,369.693,375.46979999999996,377.621,382.952,386.2388,388.439,397.06,401.942,406.081,410.221,412.711,414.956,423.577,428.908,437.529,442.206,447.888,451.071,456.958,465.579,468.069,470.314,475.196,480.878,486.9536,489.079,493.756,499.438,504.115,507.796,513.224,517.549" svgx:width="0.33,0.25,0.55,0.83,0.58,0.29,0.44,0.58,0.55,0.83,0.48,0.4,0.48,0.55,0.4,0.48,0.6,0.4,0.48,0.42,0.48,0.58,0.33,0.48,0.61,0.55,0.55,0.56,0.55,0.33,0.58,0.48,0.55,0.44,0.55,0.58,0.42,0.48,0.4,0.56,0.5,0.33,0.29,0.55,0.58,0.55,0.55,0.33,0.55,0.88,0.5,0.42,0.42,0.25,0.55,0.88,0.55,0.88,0.48,0.58,0.33,0.6,0.88,0.25,0.55,0.5,0.58,0.61,0.55,0.48,0.58,0.48,0.4,0.56,0.56,0.25" style="fill:rgb(0,0,0);font-family:URWPalladioL-Roma;font-size:9.96px;stroke:none;">], which were represented by the conservation of mass, momentum, and energy,</text>
   <text y="625.253" x="76.535,80.291,85.063,89.287,95.275,100.047,104.47,107.718,110.617,116.246,121.018,123.917,128.35,130.84,133.332,136.231,142.0078,144.52,147.768,153.566,158.3468,160.829,164.584,169.357,174.896,177.795,183.234,189.033,193.2162,195.747,201.257,206.029,209.346,214.786,218.542,223.3228,225.805,230.786,236.584,242.6596,245.162,250.143,253.461,256.709,261.481,265.465,267.907,271.154,276.953,281.7338,284.215,288.439,294.238,299.677,304.101,309.6786,312.131,320.439,325.421,331.05,335.8308,338.312,341.211,347.01,350.257,355.03,358.965,362.282,367.264,371.687,376.459" svgx:width="0.4,0.48,0.42,0.6,0.48,0.44,0.33,0.29,0.56,0.48,0.29,0.56,0.25,0.55,0.29,0.58,0.55,0.33,0.58,0.48,0.55,0.4,0.48,0.56,0.29,0.55,0.58,0.42,0.55,0.55,0.48,0.33,0.55,0.4,0.48,0.55,0.5,0.58,0.61,0.55,0.5,0.33,0.33,0.48,0.4,0.55,0.33,0.58,0.48,0.55,0.42,0.58,0.55,0.44,0.56,0.55,0.83,0.5,0.56,0.48,0.55,0.29,0.58,0.33,0.48,0.4,0.33,0.5,0.44,0.48,0.25" style="fill:rgb(0,0,0);font-family:URWPalladioL-Roma;font-size:9.96px;stroke:none;">respectively, in the regions before and after the shock wave interface.</text>
   <text y="652.595" x="257.473" svgx:width="0.56" style="fill:rgb(0,0,0);font-family:URWPalladioL-Ital;font-size:9.96px;stroke:none;">u</text>
   <text y="652.595" x="265.904" svgx:width="0.78" style="fill:rgb(0,0,0);font-family:CMR10;font-size:10.38px;stroke:none;">=</text>
   <text y="652.595" x="276.866" svgx:width="0.5" style="fill:rgb(0,0,0);font-family:URWPalladioL-Ital;font-size:9.96px;stroke:none;">v</text>
   <text y="654.63" x="281.847,284.792,288.578,291.94,295.022" svgx:width="0.39,0.5,0.44,0.41,0.44" style="fill:rgb(0,0,0);font-family:URWPalladioL-Ital;font-size:7.57px;stroke:none;">shock</text>
   <text y="652.595" x="299.044" svgx:width="0.39" style="fill:rgb(0,0,0);font-family:CMR10;font-size:10.38px;stroke:none;">(</text>
   <text y="652.595" x="303.193" svgx:width="0.5" style="fill:rgb(0,0,0);font-family:URWPalladioL-Roma;font-size:9.96px;stroke:none;">1</text>
   <text y="652.595" x="310.112" svgx:width="0.67" style="fill:rgb(0,0,0);font-family:Pxsy;font-size:9.96px;stroke:none;">−</text>
   <text y="645.014" x="319.909" svgx:width="0.57" style="fill:rgb(0,0,0);font-family:Rpxmi;font-size:9.96px;stroke:none;">ρ</text>
   <text y="646.695" x="325.558" svgx:width="0.5" style="fill:rgb(0,0,0);font-family:URWPalladioL-Roma;font-size:7.57px;stroke:none;">0</text>
  </g>
  <path style="fill:none;stroke:rgb(0,0,0);stroke-width:1.0;" d="M319.91 649.9 L329.84 649.9 "/>
  <g begin="text">
   <text y="659.429" x="322.051" svgx:width="0.57" style="fill:rgb(0,0,0);font-family:Rpxmi;font-size:9.96px;stroke:none;">ρ</text>
   <text y="652.595" x="331.162" svgx:width="0.39" style="fill:rgb(0,0,0);font-family:CMR10;font-size:10.38px;stroke:none;">)</text>
   <text y="652.595" x="335.312,337.802,507.127,510.445,515.426" svgx:width="0.25,0.55,0.33,0.5,0.33" style="fill:rgb(0,0,0);font-family:URWPalladioL-Roma;font-size:9.96px;stroke:none;">, (1)</text>
   <text y="686.782" x="240.742" svgx:width="0.5" style="fill:rgb(0,0,0);font-family:URWPalladioL-Ital;font-size:9.96px;stroke:none;">p</text>
   <text y="686.782" x="247.66" svgx:width="0.67" style="fill:rgb(0,0,0);font-family:Pxsy;font-size:9.96px;stroke:none;">−</text>
   <text y="686.782" x="256.262" svgx:width="0.5" style="fill:rgb(0,0,0);font-family:URWPalladioL-Ital;font-size:9.96px;stroke:none;">p</text>
   <text y="688.463" x="261.244" svgx:width="0.5" style="fill:rgb(0,0,0);font-family:URWPalladioL-Roma;font-size:7.57px;stroke:none;">0</text>
   <text y="686.782" x="268.419" svgx:width="0.78" style="fill:rgb(0,0,0);font-family:CMR10;font-size:10.38px;stroke:none;">=</text>
   <text y="686.782" x="279.381" svgx:width="0.5" style="fill:rgb(0,0,0);font-family:URWPalladioL-Ital;font-size:9.96px;stroke:none;">v</text>
   <text y="688.817" x="284.362,287.307,291.093,294.455,297.536" svgx:width="0.39,0.5,0.44,0.41,0.44" style="fill:rgb(0,0,0);font-family:URWPalladioL-Ital;font-size:7.57px;stroke:none;">shock</text>
   <text y="682.667" x="301.434" svgx:width="0.5" style="fill:rgb(0,0,0);font-family:URWPalladioL-Roma;font-size:7.57px;stroke:none;">2</text>
   <text y="686.782" x="305.718" svgx:width="0.57" style="fill:rgb(0,0,0);font-family:Rpxmi;font-size:9.96px;stroke:none;">ρ</text>
   <text y="688.463" x="311.367" svgx:width="0.5" style="fill:rgb(0,0,0);font-family:URWPalladioL-Roma;font-size:7.57px;stroke:none;">0</text>
   <text y="686.782" x="315.775" svgx:width="0.39" style="fill:rgb(0,0,0);font-family:CMR10;font-size:10.38px;stroke:none;">(</text>
   <text y="686.782" x="319.925" svgx:width="0.5" style="fill:rgb(0,0,0);font-family:URWPalladioL-Roma;font-size:9.96px;stroke:none;">1</text>
   <text y="686.782" x="326.843" svgx:width="0.67" style="fill:rgb(0,0,0);font-family:Pxsy;font-size:9.96px;stroke:none;">−</text>
   <text y="679.2" x="336.641" svgx:width="0.57" style="fill:rgb(0,0,0);font-family:Rpxmi;font-size:9.96px;stroke:none;">ρ</text>
   <text y="680.882" x="342.29" svgx:width="0.5" style="fill:rgb(0,0,0);font-family:URWPalladioL-Roma;font-size:7.57px;stroke:none;">0</text>
  </g>
  <path style="fill:none;stroke:rgb(0,0,0);stroke-width:0.59;" d="M336.64 684.08 L346.57 684.08 "/>
  <g begin="text">
   <text y="693.616" x="338.783" svgx:width="0.57" style="fill:rgb(0,0,0);font-family:Rpxmi;font-size:9.96px;stroke:none;">ρ</text>
   <text y="686.782" x="347.894" svgx:width="0.39" style="fill:rgb(0,0,0);font-family:CMR10;font-size:10.38px;stroke:none;">)</text>
   <text y="686.782" x="352.043,354.533,507.121,510.438,515.42" svgx:width="0.25,0.55,0.33,0.5,0.33" style="fill:rgb(0,0,0);font-family:URWPalladioL-Roma;font-size:9.96px;stroke:none;">, (2)</text>
   <text y="719.846" x="213.022" svgx:width="0.39" style="fill:rgb(0,0,0);font-family:URWPalladioL-Ital;font-size:9.96px;stroke:none;">e</text>
   <text y="719.846" x="218.834" svgx:width="0.67" style="fill:rgb(0,0,0);font-family:Pxsy;font-size:9.96px;stroke:none;">−</text>
   <text y="719.846" x="227.437" svgx:width="0.39" style="fill:rgb(0,0,0);font-family:URWPalladioL-Ital;font-size:9.96px;stroke:none;">e</text>
   <text y="721.527" x="231.312" svgx:width="0.5" style="fill:rgb(0,0,0);font-family:URWPalladioL-Roma;font-size:7.57px;stroke:none;">0</text>
   <text y="719.846" x="238.488" svgx:width="0.78" style="fill:rgb(0,0,0);font-family:CMR10;font-size:10.38px;stroke:none;">=</text>
   <text y="719.846" x="249.449" svgx:width="0.5" style="fill:rgb(0,0,0);font-family:URWPalladioL-Ital;font-size:9.96px;stroke:none;">p</text>
   <text y="721.527" x="254.431" svgx:width="0.5" style="fill:rgb(0,0,0);font-family:URWPalladioL-Roma;font-size:7.57px;stroke:none;">0</text>
   <text y="719.846" x="258.839" svgx:width="0.39" style="fill:rgb(0,0,0);font-family:CMR10;font-size:10.38px;stroke:none;">(</text>
   <text y="713.101" x="266.66" svgx:width="0.5" style="fill:rgb(0,0,0);font-family:URWPalladioL-Roma;font-size:9.96px;stroke:none;">1</text>
  </g>
  <path style="fill:none;stroke:rgb(0,0,0);stroke-width:0.59;" d="M264.18 717.15 L274.12 717.15 "/>
  <g begin="text">
   <text y="726.68" x="264.184" svgx:width="0.57" style="fill:rgb(0,0,0);font-family:Rpxmi;font-size:9.96px;stroke:none;">ρ</text>
   <text y="728.361" x="269.833" svgx:width="0.5" style="fill:rgb(0,0,0);font-family:URWPalladioL-Roma;font-size:7.57px;stroke:none;">0</text>
   <text y="719.846" x="277.249" svgx:width="0.67" style="fill:rgb(0,0,0);font-family:Pxsy;font-size:9.96px;stroke:none;">−</text>
   <text y="713.101" x="287.381" svgx:width="0.5" style="fill:rgb(0,0,0);font-family:URWPalladioL-Roma;font-size:9.96px;stroke:none;">1</text>
  </g>
  <path style="fill:none;stroke:rgb(0,0,0);stroke-width:0.59;" d="M287.05 717.15 L292.7 717.15 "/>
  <g begin="text">
   <text y="726.68" x="287.047" svgx:width="0.57" style="fill:rgb(0,0,0);font-family:Rpxmi;font-size:9.96px;stroke:none;">ρ</text>
   <text y="719.846" x="294.016,298.0642,300.223" svgx:width="0.39,0.55,0.78" style="fill:rgb(0,0,0);font-family:CMR10;font-size:10.38px;stroke:none;">) +</text>
   <text y="713.004" x="311.554" svgx:width="0.5" style="fill:rgb(0,0,0);font-family:URWPalladioL-Ital;font-size:9.96px;stroke:none;">v</text>
   <text y="715.039" x="316.535,319.48,323.266,326.628,329.71" svgx:width="0.39,0.5,0.44,0.41,0.44" style="fill:rgb(0,0,0);font-family:URWPalladioL-Ital;font-size:7.57px;stroke:none;">shock</text>
   <text y="709.388" x="333.607" svgx:width="0.5" style="fill:rgb(0,0,0);font-family:URWPalladioL-Roma;font-size:7.57px;stroke:none;">2</text>
  </g>
  <path style="fill:none;stroke:rgb(0,0,0);stroke-width:0.59;" d="M311.55 717.15 L337.89 717.15 "/>
  <g begin="text">
   <text y="726.68" x="322.232" svgx:width="0.5" style="fill:rgb(0,0,0);font-family:URWPalladioL-Roma;font-size:9.96px;stroke:none;">2</text>
   <text y="719.846" x="339.211" svgx:width="0.39" style="fill:rgb(0,0,0);font-family:CMR10;font-size:10.38px;stroke:none;">(</text>
   <text y="719.846" x="343.361" svgx:width="0.5" style="fill:rgb(0,0,0);font-family:URWPalladioL-Roma;font-size:9.96px;stroke:none;">1</text>
   <text y="719.846" x="350.279" svgx:width="0.67" style="fill:rgb(0,0,0);font-family:Pxsy;font-size:9.96px;stroke:none;">−</text>
   <text y="712.264" x="360.077" svgx:width="0.57" style="fill:rgb(0,0,0);font-family:Rpxmi;font-size:9.96px;stroke:none;">ρ</text>
   <text y="713.945" x="365.726" svgx:width="0.5" style="fill:rgb(0,0,0);font-family:URWPalladioL-Roma;font-size:7.57px;stroke:none;">0</text>
  </g>
  <path style="fill:none;stroke:rgb(0,0,0);stroke-width:0.59;" d="M360.08 717.15 L370.01 717.15 "/>
  <g begin="text">
   <text y="726.68" x="362.219" svgx:width="0.57" style="fill:rgb(0,0,0);font-family:Rpxmi;font-size:9.96px;stroke:none;">ρ</text>
   <text y="719.846" x="371.33" svgx:width="0.39" style="fill:rgb(0,0,0);font-family:CMR10;font-size:10.38px;stroke:none;">)</text>
   <text y="710.494" x="375.479" svgx:width="0.5" style="fill:rgb(0,0,0);font-family:URWPalladioL-Roma;font-size:7.57px;stroke:none;">2</text>
   <text y="719.846" x="379.763,382.253,507.125,510.442,515.424" svgx:width="0.25,0.55,0.33,0.5,0.33" style="fill:rgb(0,0,0);font-family:URWPalladioL-Roma;font-size:9.96px;stroke:none;">, (3)</text>
  </g>
 </g>
</svg>
