<?xml version="1.0" encoding="UTF-8"?>
<svg height="768.821" width="530.434" xmlns="http://www.w3.org/2000/svg">
 <g id="page" xmlns:svgx="http://www.xml-cml.org/schema/svgx">
  <g begin="text">
   <text y="62.979" x="76.535,84.059,87.598,90.252,93.352,96.452,98.668,102.207,104.422" svgx:width="0.94,0.44,0.33,0.39,0.39,0.28,0.44,0.28,0.39" style="fill:rgb(0,0,0);font-family:URWPalladioL-Ital;font-size:7.97px;stroke:none;">Materials</text>
   <text y="62.979" x="109.515,113.5,117.485,121.47" svgx:width="0.5,0.5,0.5,0.5" style="fill:rgb(0,0,0);font-family:URWPalladioL-Bold;font-size:7.97px;stroke:none;">2019</text>
   <text y="62.979" x="125.455" svgx:width="0.25" style="fill:rgb(0,0,0);font-family:URWPalladioL-Roma;font-size:7.97px;stroke:none;">,</text>
   <text y="62.979" x="129.44,133.425" svgx:width="0.5,0.5" style="fill:rgb(0,0,0);font-family:URWPalladioL-Ital;font-size:7.97px;stroke:none;">12</text>
   <text y="62.979" x="137.41,139.4025,141.395,145.38,149.365,153.35000000000002,495.794,499.779,501.772,506.123,508.7531,510.77,514.755" svgx:width="0.25,0.55,0.5,0.5,0.5,0.55,0.5,0.55,0.55,0.33,0.55,0.5,0.5" style="fill:rgb(0,0,0);font-family:URWPalladioL-Roma;font-size:7.97px;stroke:none;">, 700 7 of 14</text>
   <text y="97.848" x="97.795,103.76,108.642,112.782,117.458,123.53359999999999,125.874,131.205,136.98180000000002,139.348,142.531,148.213,152.9938,155.34,160.222,165.621,170.952,176.468,181.2488,183.595,189.561,192.402,196.542,200.876,206.764,210.903,215.043,217.884,223.215,228.9918,231.348,233.83800000000002,236.259,241.141,244.4278,246.774,251.754,254.106,260.013,263.87,268.009,271.29580000000004,273.643,279.071,281.912,284.753,293.374,299.242,303.382,308.058,310.548,312.969,318.3,323.982,328.7628,331.11,339.731,342.572,348.0,353.683,356.9698,359.316,363.993,369.031,374.898,379.575,383.91,387.19680000000005,389.543,392.726,398.409,403.29,406.57680000000005,408.933,414.264,419.78,424.457,428.314,433.195,436.036,438.9244,441.328,446.21,452.097,457.135,461.812,464.995,467.836,472.21840000000003,474.621,480.489,484.17,489.501,495.368,500.045,503.901,507.084,509.925,514.602" svgx:width="0.61,0.5,0.42,0.48,0.61,0.55,0.55,0.58,0.55,0.33,0.58,0.48,0.55,0.5,0.55,0.55,0.56,0.48,0.55,0.61,0.29,0.42,0.44,0.6,0.42,0.42,0.29,0.55,0.58,0.55,0.25,0.55,0.5,0.33,0.55,0.5,0.55,0.61,0.4,0.42,0.33,0.55,0.56,0.29,0.29,0.88,0.6,0.42,0.48,0.25,0.55,0.55,0.58,0.48,0.55,0.88,0.29,0.56,0.58,0.33,0.55,0.48,0.52,0.6,0.48,0.44,0.33,0.55,0.33,0.58,0.5,0.33,0.55,0.55,0.56,0.48,0.4,0.5,0.29,0.29,0.55,0.5,0.6,0.52,0.48,0.33,0.29,0.44,0.55,0.6,0.4,0.55,0.6,0.48,0.4,0.33,0.29,0.48,0.42" style="fill:rgb(0,0,0);font-family:URWPalladioL-Roma;font-size:9.96px;stroke:none;">Based on the above discussion , at a ﬁrst glimpse, one might expect that overall auxetic properties</text>
   <text y="111.358" x="76.117,84.592,89.46,94.54,100.19,105.058,110.8348,113.502,121.977,124.935,128.247,134.02380000000002,136.682,139.639,145.553,150.065,153.896,158.763,163.844,168.153,171.11,177.024" svgx:width="0.83,0.48,0.5,0.56,0.48,0.58,0.55,0.83,0.29,0.33,0.58,0.55,0.29,0.58,0.44,0.4,0.48,0.5,0.42,0.29,0.58,0.56" style="fill:rgb(0,0,0);font-family:URWPalladioL-Roma;font-size:9.96px;stroke:none;">weaken with increasing</text>
   <text y="111.358" x="185.33" svgx:width="0.56" style="fill:rgb(0,0,0);font-family:PazoMath-Italic;font-size:9.96px;stroke:none;">σ</text>
   <text y="107.741" code="48" x="191.208" svgx:width="0.28" style="fill:rgb(0,0,0);font-family:CMSY10;font-size:7.89px;stroke:none;">?</text>
   <text y="111.358" x="194.098" svgx:width="0.61" style="fill:rgb(0,0,0);font-family:URWPalladioL-Roma;font-size:9.96px;stroke:none;">/</text>
   <text y="111.358" x="200.384" svgx:width="0.56" style="fill:rgb(0,0,0);font-family:PazoMath-Italic;font-size:9.96px;stroke:none;">σ</text>
   <text y="111.358" x="206.168,208.65800000000002,211.899,217.214,222.692,225.293,228.25,234.164,239.905,244.773,249.081,252.394,255.351,261.001,266.082,269.395,274.1758,276.783,280.095,286.01,288.967,293.275,295.765,298.356,301.669,307.583,312.3638,314.971,319.28,325.407,329.421,332.805,337.886,342.398,347.265,351.4482,354.104,359.653,362.93980000000005,365.567,368.88,374.794,379.5748,382.181,388.319,393.868,396.825,401.133,405.442,410.99,416.904,419.729,423.9122,426.568,430.582,435.663,438.976,441.933,447.411,450.002,452.959,458.7358,461.403,464.716,470.63,475.4108,478.018,482.326,488.434,494.348,499.215,503.229,506.186,510.698,515.779" svgx:width="0.25,0.55,0.61,0.55,0.55,0.29,0.58,0.56,0.48,0.42,0.33,0.29,0.56,0.5,0.33,0.48,0.55,0.33,0.58,0.29,0.42,0.25,0.55,0.33,0.58,0.48,0.55,0.42,0.6,0.4,0.33,0.5,0.44,0.48,0.42,0.55,0.55,0.33,0.55,0.33,0.58,0.48,0.55,0.6,0.55,0.29,0.42,0.42,0.55,0.58,0.28,0.42,0.55,0.4,0.5,0.33,0.29,0.55,0.55,0.29,0.58,0.55,0.33,0.58,0.48,0.55,0.42,0.6,0.58,0.48,0.4,0.29,0.44,0.5,0.29" style="fill:rgb(0,0,0);font-family:URWPalladioL-Roma;font-size:9.96px;stroke:none;">. To investigate this, the surfaces of the Poisson’s ratio in the spherical</text>
   <text y="124.867" x="76.535,81.047,86.595,92.144,95.975,102.184,105.141,111.055,116.136,119.449,124.2298,127.446,131.755,137.405,141.713,145.026,149.893,158.6578,161.996,167.91,172.991,178.733,183.5138,186.73,192.339,197.207,202.075,207.8518,211.119,217.226,220.183,225.731,229.044,232.357,237.224,243.2996,246.563" svgx:width="0.44,0.55,0.55,0.4,0.61,0.29,0.58,0.5,0.33,0.48,0.55,0.42,0.56,0.42,0.33,0.48,0.88,0.55,0.58,0.5,0.56,0.48,0.55,0.55,0.48,0.48,0.58,0.55,0.6,0.29,0.55,0.33,0.33,0.48,0.61,0.55,0.33" style="fill:rgb(0,0,0);font-family:URWPalladioL-Roma;font-size:9.96px;stroke:none;">coordinate system have been plotted (</text>
   <text y="124.867" x="250.07" svgx:width="0.5" style="fill:rgb(0,0,0);font-family:PazoMath-Italic;font-size:9.96px;stroke:none;">ν</text>
   <text y="124.867" x="258.303,264.044,269.125,272.082,278.21,283.078,287.2612,290.516,296.43,301.511,307.253,312.0338,315.24,320.859,325.727,330.594,336.3708,339.638,343.947,349.028,358.001,364.108,367.065,371.933,378.0086,381.272,384.229,390.00579999999997,393.273,399.427" svgx:width="0.56,0.5,0.29,0.6,0.48,0.42,0.55,0.58,0.5,0.56,0.48,0.55,0.55,0.48,0.48,0.58,0.55,0.42,0.5,0.88,0.6,0.29,0.48,0.61,0.55,0.29,0.58,0.55,0.61,0.5" style="fill:rgb(0,0,0);font-family:URWPalladioL-Roma;font-size:9.96px;stroke:none;">values have been sampled in ~5</text>
   <text y="124.867" x="406.805" svgx:width="0.78" style="fill:rgb(0,0,0);font-family:CMSY10;font-size:10.38px;stroke:none;">×</text>
   <text y="124.867" x="417.172,422.253" svgx:width="0.5,0.5" style="fill:rgb(0,0,0);font-family:URWPalladioL-Roma;font-size:9.96px;stroke:none;">10</text>
   <text y="121.251" x="427.334" svgx:width="0.5" style="fill:rgb(0,0,0);font-family:URWPalladioL-Roma;font-size:7.57px;stroke:none;">5</text>
   <text y="124.867" x="434.745,440.954,443.911,447.742,452.61,457.121,460.434,463.391,468.94,474.854,479.0372,482.292,485.676,491.225,495.209,498.368,503.236,508.317,512.829" svgx:width="0.61,0.29,0.4,0.48,0.44,0.33,0.29,0.55,0.58,0.42,0.55,0.33,0.55,0.4,0.55,0.48,0.5,0.44,0.58" style="fill:rgb(0,0,0);font-family:URWPalladioL-Roma;font-size:9.96px;stroke:none;">directions for each</text>
   <text y="138.377" x="76.236,82.343,85.3,90.849,94.162,97.545,100.035,105.35,111.0,113.957,119.607,125.734,129.565" svgx:width="0.6,0.29,0.55,0.33,0.33,0.25,0.55,0.56,0.29,0.56,0.6,0.4,0.48" style="fill:rgb(0,0,0);font-family:URWPalladioL-Roma;font-size:9.96px;stroke:none;">plot). Figure</text>
   <text y="138.377" x="137.654" svgx:width="0.5" style="fill:rgb(8,117,183);font-family:URWPalladioL-Roma;font-size:9.96px;stroke:none;">6</text>
   <text y="138.377" x="145.946,152.054,155.895,160.762,165.071,169.938,175.853,179.165,183.474,185.964,190.547,193.931,199.012,202.2988,205.617,208.929,214.844,219.6248,222.922,227.231,233.359,237.373,240.756,245.837,250.349,255.217,259.40020000000004,262.747,268.295,271.58180000000004,274.89,283.863,288.944,294.188,297.145,306.117,311.198,314.156,316.646,320.09,323.474,329.093,332.37980000000005,335.699,340.78,346.521,351.389,355.403,360.483,366.133,371.001,373.491,376.935,382.016,387.931,394.0066,397.351,400.735,405.246,408.5328,411.852,415.164,421.079,425.8598,429.157,435.071,439.939,445.589,450.67,453.983,456.94,462.681,467.4618,470.77,476.877,481.958,485.972,489.2588,492.496,498.045,501.33180000000004,504.65,507.963,513.877" svgx:width="0.6,0.4,0.48,0.42,0.48,0.58,0.33,0.42,0.25,0.55,0.33,0.5,0.33,0.55,0.33,0.58,0.48,0.55,0.42,0.6,0.4,0.33,0.5,0.44,0.48,0.42,0.55,0.55,0.33,0.55,0.88,0.5,0.52,0.29,0.88,0.5,0.29,0.25,0.55,0.33,0.55,0.33,0.55,0.5,0.56,0.48,0.4,0.5,0.56,0.48,0.25,0.55,0.5,0.58,0.61,0.55,0.33,0.44,0.33,0.55,0.33,0.58,0.48,0.55,0.58,0.48,0.56,0.5,0.33,0.29,0.56,0.48,0.55,0.6,0.5,0.4,0.33,0.55,0.55,0.33,0.55,0.33,0.58,0.48" style="fill:rgb(0,0,0);font-family:URWPalladioL-Roma;font-size:9.96px;stroke:none;">presents: (a) the surfaces of maximal, (b) average, and (c) the negative part of the</text>
   <text y="151.886" x="76.535,85.174,88.021,93.714,96.561,105.2,110.092,112.9804,115.424,121.333,126.674,129.521,133.669,137.817,143.159,148.853,151.573,155.7562,158.206,162.07,166.962,170.151,172.998,178.476,180.834,184.092,189.434,193.418,195.783,199.931,204.618,207.465,212.151,216.495,219.684,224.37,230.4456,232.833,238.36,243.252,246.099,251.998,256.684,260.8672,263.317,268.659" svgx:width="0.88,0.29,0.58,0.29,0.88,0.5,0.29,0.55,0.6,0.55,0.29,0.42,0.42,0.55,0.58,0.28,0.42,0.55,0.4,0.5,0.33,0.29,0.55,0.55,0.33,0.55,0.4,0.55,0.42,0.48,0.29,0.48,0.44,0.33,0.48,0.61,0.55,0.56,0.5,0.29,0.6,0.48,0.42,0.55,0.55,0.33" style="fill:rgb(0,0,0);font-family:URWPalladioL-Roma;font-size:9.96px;stroke:none;">minimal Poisson’s ratio for selected values of</text>
   <text y="151.886" x="274.532" svgx:width="0.56" style="fill:rgb(0,0,0);font-family:PazoMath-Italic;font-size:9.96px;stroke:none;">σ</text>
   <text y="148.27" code="48" x="280.41" svgx:width="0.28" style="fill:rgb(0,0,0);font-family:CMSY10;font-size:7.89px;stroke:none;">?</text>
   <text y="151.886" x="283.3" svgx:width="0.61" style="fill:rgb(0,0,0);font-family:URWPalladioL-Roma;font-size:9.96px;stroke:none;">/</text>
   <text y="151.886" x="289.587" svgx:width="0.56" style="fill:rgb(0,0,0);font-family:PazoMath-Italic;font-size:9.96px;stroke:none;">σ</text>
   <text y="151.886" x="297.857,301.115,303.962,309.73879999999997,312.141,315.829,320.515,324.663,330.543,335.229,339.573,342.762,345.609,351.137,355.9178,358.308,362.652,367.993,370.84,376.74,385.378,391.072,395.22,398.478,400.968,404.015,410.013,415.706" svgx:width="0.33,0.29,0.58,0.55,0.4,0.48,0.42,0.6,0.48,0.44,0.33,0.29,0.56,0.48,0.55,0.44,0.55,0.29,0.6,0.88,0.58,0.42,0.33,0.25,0.55,0.61,0.58,0.48" style="fill:rgb(0,0,0);font-family:URWPalladioL-Roma;font-size:9.96px;stroke:none;">(in respective columns). The</text>
   <text y="151.886" code="126" x="421.91" svgx:width="0.5" style="fill:rgb(0,0,0);font-family:CMMI10;font-size:10.38px;stroke:none;">?</text>
   <text y="151.886" x="423.001" svgx:width="0.61" style="fill:rgb(0,0,0);font-family:URWPalladioL-Bold;font-size:9.96px;stroke:none;">n</text>
   <text y="151.886" x="429.213,432.471,438.448,441.295,444.984,449.67,454.014,457.203,460.05,465.392,471.085,475.2682,477.719,480.976,483.823,489.59979999999996,492.002,500.161,505.855,508.702,513.046" svgx:width="0.33,0.61,0.29,0.4,0.48,0.44,0.33,0.29,0.55,0.58,0.42,0.55,0.33,0.29,0.58,0.55,0.83,0.58,0.29,0.44,0.58" style="fill:rgb(0,0,0);font-family:URWPalladioL-Roma;font-size:9.96px;stroke:none;">-directions (in which</text>
   <text y="165.395" x="76.535,79.848,85.762,90.5428,93.587,98.454,103.698,107.01,111.878,115.892,121.806,126.887,129.7754,132.791,137.1,140.412,144.254,149.121,153.43,157.6132,160.685,163.642,167.8252,170.908,175.989,182.096,188.204,191.161,194.118,198.985,205.194,208.4808,211.525,216.606,220.447,225.2278,228.262,232.103,236.97,243.078,246.909,251.776,256.085,260.952,266.866,270.179,275.047,281.12260000000003,284.213,289.761,295.5378,298.622,303.49,308.571,313.083,318.8598,321.954,328.061,331.018,336.567,339.85380000000004,342.836,348.456,354.03360000000004,357.053,363.16,368.708,371.666,376.747,380.731,383.718,388.798,394.713,400.78860000000003,403.868,408.949,414.04,416.987,425.96,432.088,435.401,441.315,446.396,449.2844,452.31,457.391,463.305,468.955,471.912,476.78" svgx:width="0.33,0.58,0.48,0.55,0.48,0.52,0.33,0.48,0.4,0.58,0.5,0.29,0.55,0.42,0.33,0.4,0.48,0.42,0.42,0.55,0.29,0.42,0.55,0.5,0.6,0.6,0.29,0.29,0.48,0.61,0.33,0.55,0.5,0.4,0.48,0.55,0.4,0.48,0.6,0.4,0.48,0.42,0.48,0.58,0.33,0.48,0.61,0.55,0.55,0.58,0.55,0.48,0.5,0.44,0.58,0.55,0.6,0.29,0.55,0.33,0.55,0.55,0.56,0.55,0.6,0.55,0.29,0.5,0.4,0.55,0.5,0.58,0.61,0.55,0.5,0.5,0.29,0.88,0.6,0.33,0.58,0.5,0.29,0.55,0.5,0.58,0.56,0.29,0.48,0.42" style="fill:rgb(0,0,0);font-family:URWPalladioL-Roma;font-size:9.96px;stroke:none;">the external stress is applied) are represented on each plot by polar and azimuthal angles</text>
   <text y="165.395" x="484.167" svgx:width="0.44" style="fill:rgb(0,0,0);font-family:PazoMath-Italic;font-size:9.96px;stroke:none;">θ</text>
   <text y="165.395" x="491.968,497.049,502.963" svgx:width="0.5,0.58,0.61" style="fill:rgb(0,0,0);font-family:URWPalladioL-Roma;font-size:9.96px;stroke:none;">and</text>
   <text y="165.395" x="512.748" svgx:width="0.59" style="fill:rgb(0,0,0);font-family:PazoMath-Italic;font-size:9.96px;stroke:none;">ϕ</text>
   <text y="178.905" x="76.207,79.591,83.9,88.767,93.5478,96.429,102.079,105.036,110.686,116.814,120.645" svgx:width="0.33,0.42,0.48,0.48,0.55,0.56,0.29,0.56,0.6,0.4,0.48" style="fill:rgb(0,0,0);font-family:URWPalladioL-Roma;font-size:9.96px;stroke:none;">(see Figure</text>
   <text y="178.905" x="128.307" svgx:width="0.5" style="fill:rgb(8,117,183);font-family:URWPalladioL-Roma;font-size:9.96px;stroke:none;">2</text>
   <text y="178.905" x="133.388,136.772,139.262,142.188,147.269,153.183,159.2586,162.186,165.499,171.413,176.1938,179.075,185.284,188.241,192.55,195.863,200.944,206.858,211.37" svgx:width="0.33,0.25,0.55,0.5,0.58,0.61,0.55,0.33,0.58,0.48,0.55,0.61,0.29,0.42,0.33,0.5,0.58,0.44,0.48" style="fill:rgb(0,0,0);font-family:URWPalladioL-Roma;font-size:9.96px;stroke:none;">), and the distance</text>
   <text y="178.905" x="219.154" svgx:width="0.28" style="fill:rgb(0,0,0);font-family:URWPalladioL-Ital;font-size:9.96px;stroke:none;">l</text>
   <text y="178.905" x="225.142,230.762,235.629,238.942,247.417,252.284,257.152,262.92879999999997,265.861,269.173,275.087,279.8678,282.749,288.857,294.405,297.362,303.276,306.56280000000004,309.384,314.932,320.7088,323.641,326.953,332.868,337.6488,340.53,344.838,350.966,354.98,358.364,363.445,367.957,372.7378,375.619,380.7,386.614,392.6896,395.617,398.93,404.844,409.6248,412.506,418.054,422.068,425.025,430.675,433.633,439.40979999999996,442.341,447.89,451.1768,454.068,457.381,463.295,468.0758,470.957,475.469,481.017,486.566,490.397,496.605,499.563,505.477,510.558,513.87" svgx:width="0.55,0.48,0.33,0.83,0.48,0.48,0.58,0.55,0.33,0.58,0.48,0.55,0.6,0.55,0.29,0.58,0.33,0.55,0.55,0.58,0.55,0.33,0.58,0.48,0.55,0.42,0.6,0.4,0.33,0.5,0.44,0.48,0.55,0.5,0.58,0.61,0.55,0.33,0.58,0.48,0.55,0.55,0.4,0.29,0.56,0.29,0.58,0.55,0.55,0.33,0.55,0.33,0.58,0.48,0.55,0.44,0.55,0.55,0.4,0.61,0.29,0.58,0.5,0.33,0.48" style="fill:rgb(0,0,0);font-family:URWPalladioL-Roma;font-size:9.96px;stroke:none;">between the point on the surface and the origin of the coordinate</text>
   <text y="192.414" x="76.535,80.759,86.298,90.522,93.77,98.542,109.83,112.729,116.953,119.443,121.935,125.69,130.463,134.687,140.674,145.446,149.87,153.117,156.017,161.645,166.418,169.317,173.75,176.24,178.731,183.503,189.082,195.09,200.071,202.9594,205.461,208.709" svgx:width="0.42,0.56,0.42,0.33,0.48,0.88,0.29,0.42,0.25,0.55,0.4,0.48,0.42,0.6,0.48,0.44,0.33,0.29,0.56,0.48,0.29,0.56,0.25,0.55,0.48,0.56,0.6,0.5,0.29,0.55,0.33,0.55" style="fill:rgb(0,0,0);font-family:URWPalladioL-Roma;font-size:9.96px;stroke:none;">systemis, respectively, equal to</text>
   <text y="192.414" x="216.763" svgx:width="0.5" style="fill:rgb(0,0,0);font-family:PazoMath-Italic;font-size:9.96px;stroke:none;">ν</text>
   <text y="188.798" x="221.868,228.554,232.34" svgx:width="0.88,0.5,0.52" style="fill:rgb(0,0,0);font-family:URWPalladioL-Roma;font-size:7.57px;stroke:none;">max</text>
   <text y="194.875" x="221.465" svgx:width="0.56" style="fill:rgb(0,0,0);font-family:URWPalladioL-Ital;font-size:7.57px;stroke:none;">n</text>
   <text y="192.414" x="239.236,242.554,247.993,251.977,254.419,257.737,262.718,266.035" svgx:width="0.33,0.55,0.4,0.55,0.33,0.5,0.33,0.25" style="fill:rgb(0,0,0);font-family:URWPalladioL-Roma;font-size:9.96px;stroke:none;">for (a),</text>
   <text y="192.414" code="104" x="271.141" svgx:width="0.39" style="fill:rgb(0,0,0);font-family:CMSY10;font-size:10.38px;stroke:none;">?</text>
   <text y="192.414" x="275.415" svgx:width="0.5" style="fill:rgb(0,0,0);font-family:PazoMath-Italic;font-size:9.96px;stroke:none;">ν</text>
   <text y="193.909" x="280.117" svgx:width="0.56" style="fill:rgb(0,0,0);font-family:URWPalladioL-Ital;font-size:7.57px;stroke:none;">n</text>
   <text y="192.414" code="105" x="285.044" svgx:width="0.39" style="fill:rgb(0,0,0);font-family:CMSY10;font-size:10.38px;stroke:none;">?</text>
   <text y="192.414" x="291.684,295.002,300.441,304.42499999999995,306.867,310.185,315.694,319.011,321.50100000000003,323.993,328.974,334.772,340.8476,343.35,346.598,352.396,357.1768,359.659,362.976,368.416,371.315,374.214,379.654,387.963,390.862,396.66,402.23760000000004,404.69,408.007,413.447,417.431,419.873,423.19,427.614,430.931" svgx:width="0.33,0.55,0.4,0.55,0.33,0.55,0.33,0.25,0.55,0.5,0.58,0.61,0.55,0.33,0.58,0.48,0.55,0.33,0.55,0.29,0.29,0.55,0.83,0.29,0.58,0.56,0.55,0.33,0.55,0.4,0.55,0.33,0.44,0.33,0.25" style="fill:rgb(0,0,0);font-family:URWPalladioL-Roma;font-size:9.96px;stroke:none;">for (b), and the following for (c):</text>
   <text y="227.958" x="232.651" svgx:width="0.28" style="fill:rgb(0,0,0);font-family:URWPalladioL-Ital;font-size:9.96px;stroke:none;">l</text>
   <text y="227.958" x="238.736" svgx:width="0.78" style="fill:rgb(0,0,0);font-family:CMR10;font-size:10.38px;stroke:none;">=</text>
   <text y="207.534" x="249.822" svgx:width="0.89" style="fill:rgb(0,0,0);font-family:CMEX10;font-size:9.96px;stroke:none;"></text>
   <text y="216.501" x="249.822" svgx:width="0.89" style="fill:rgb(0,0,0);font-family:CMEX10;font-size:9.96px;stroke:none;"></text>
   <text y="234.434" x="249.822" svgx:width="0.89" style="fill:rgb(0,0,0);font-family:CMEX10;font-size:9.96px;stroke:none;"></text>
   <text y="218.268" x="258.918" svgx:width="0.28" style="fill:rgb(0,0,0);font-family:CMSY10;font-size:10.38px;stroke:none;">|</text>
   <text y="218.268" x="262.046" svgx:width="0.5" style="fill:rgb(0,0,0);font-family:PazoMath-Italic;font-size:9.96px;stroke:none;">ν</text>
   <text y="214.651" x="267.152,273.838,276.041" svgx:width="0.88,0.29,0.58" style="fill:rgb(0,0,0);font-family:URWPalladioL-Roma;font-size:7.57px;stroke:none;">min</text>
   <text y="220.728" x="266.748" svgx:width="0.56" style="fill:rgb(0,0,0);font-family:URWPalladioL-Ital;font-size:7.57px;stroke:none;">n</text>
   <text y="218.268" x="281.07" svgx:width="0.28" style="fill:rgb(0,0,0);font-family:CMSY10;font-size:10.38px;stroke:none;">|</text>
   <text y="218.268" x="294.036,302.345,308.143,312.915" svgx:width="0.83,0.58,0.48,0.58" style="fill:rgb(0,0,0);font-family:URWPalladioL-Roma;font-size:9.96px;stroke:none;">when</text>
   <text y="218.268" x="321.329" svgx:width="0.5" style="fill:rgb(0,0,0);font-family:PazoMath-Italic;font-size:9.96px;stroke:none;">ν</text>
   <text y="214.651" x="326.435,333.121,335.324" svgx:width="0.88,0.29,0.58" style="fill:rgb(0,0,0);font-family:URWPalladioL-Roma;font-size:7.57px;stroke:none;">min</text>
   <text y="220.728" x="326.031" svgx:width="0.56" style="fill:rgb(0,0,0);font-family:URWPalladioL-Ital;font-size:7.57px;stroke:none;">n</text>
   <text y="218.268" x="343.12" svgx:width="0.78" style="fill:rgb(0,0,0);font-family:CMMI10;font-size:10.38px;stroke:none;">&lt;</text>
   <text y="218.268" x="354.082,359.063" svgx:width="0.5,0.25" style="fill:rgb(0,0,0);font-family:URWPalladioL-Roma;font-size:9.96px;stroke:none;">0,</text>
   <text y="239.151" x="258.793,263.773,294.041,302.349,308.148,312.92" svgx:width="0.5,0.55,0.83,0.58,0.48,0.58" style="fill:rgb(0,0,0);font-family:URWPalladioL-Roma;font-size:9.96px;stroke:none;">0 when</text>
   <text y="239.151" x="321.329" svgx:width="0.5" style="fill:rgb(0,0,0);font-family:PazoMath-Italic;font-size:9.96px;stroke:none;">ν</text>
   <text y="235.535" x="326.435,333.121,335.324" svgx:width="0.88,0.29,0.58" style="fill:rgb(0,0,0);font-family:URWPalladioL-Roma;font-size:7.57px;stroke:none;">min</text>
   <text y="241.612" x="326.031" svgx:width="0.56" style="fill:rgb(0,0,0);font-family:URWPalladioL-Ital;font-size:7.57px;stroke:none;">n</text>
   <text y="239.151" x="343.12" svgx:width="0.78" style="fill:rgb(0,0,0);font-family:CMSY10;font-size:10.38px;stroke:none;">≥</text>
   <text y="239.151" x="354.082,359.063" svgx:width="0.5,0.25" style="fill:rgb(0,0,0);font-family:URWPalladioL-Roma;font-size:9.96px;stroke:none;">0.</text>
   <text y="227.958" x="507.124,510.441,515.423" svgx:width="0.33,0.5,0.33" style="fill:rgb(0,0,0);font-family:URWPalladioL-Roma;font-size:9.96px;stroke:none;">(7)</text>
   <text y="258.973" x="97.795,101.22,104.5068,107.489,112.001,117.082,122.85879999999999,125.953,131.573,136.3538,139.398,143.706,148.574,153.431,159.20780000000002,162.302,165.615,171.529,176.61,179.8968,182.88,187.961,194.089,199.332,204.2,207.512,210.47,214.8524,217.939,224.046,227.877,233.425,239.532,244.4,248.414,251.727,254.684,259.551" svgx:width="0.34,0.33,0.55,0.44,0.5,0.58,0.55,0.55,0.48,0.55,0.42,0.48,0.48,0.58,0.55,0.33,0.58,0.5,0.33,0.55,0.5,0.6,0.52,0.48,0.33,0.29,0.44,0.55,0.6,0.4,0.55,0.6,0.48,0.4,0.33,0.29,0.48,0.42" style="fill:rgb(0,0,0);font-family:URWPalladioL-Roma;font-size:9.96px;stroke:none;">It can be seen that auxetic properties</text>
   <text y="258.973" x="266.818,271.899,276.2814,279.368,285.018,289.53" svgx:width="0.5,0.44,0.55,0.56,0.44,0.33" style="fill:rgb(0,0,0);font-family:URWPalladioL-Ital;font-size:9.96px;stroke:none;">do not</text>
   <text y="258.973" x="295.867,301.608,306.689,312.604,315.561,319.869,325.6458,328.741,331.698,337.47479999999996,340.569,343.882,349.796,354.5768,357.621,360.933,365.791,369.103,373.117,378.198,383.848,389.397,395.311,400.392,403.2804,406.306,410.615,416.265,420.573,423.886,428.754,437.726,441.9092,444.992,453.467,456.424,459.737,465.5138,468.608,474.522,479.603,485.518,491.066,494.023,499.104,504.754,509.621,513.635,517.944" svgx:width="0.56,0.5,0.58,0.29,0.42,0.58,0.55,0.29,0.58,0.55,0.33,0.58,0.48,0.55,0.33,0.48,0.33,0.4,0.5,0.56,0.55,0.58,0.5,0.29,0.55,0.42,0.56,0.42,0.33,0.48,0.88,0.42,0.55,0.83,0.29,0.33,0.58,0.55,0.58,0.5,0.58,0.55,0.29,0.5,0.56,0.48,0.4,0.42,0.25" style="fill:rgb(0,0,0);font-family:URWPalladioL-Roma;font-size:9.96px;stroke:none;">vanish in the tetragonal systems with nanolayers.</text>
   <text y="272.483" x="76.535,84.99,90.538,99.013,103.881,109.622,114.49,117.762,120.252,123.086,128.635,134.549,139.3298,142.13,146.642,151.723,157.49980000000002,160.36,166.274,171.823,175.135,178.093,182.604,187.3848,190.185,193.498,199.412,204.493,207.7798,210.529,213.913,219.461" svgx:width="0.83,0.55,0.83,0.48,0.56,0.48,0.4,0.25,0.55,0.55,0.58,0.48,0.55,0.44,0.5,0.58,0.55,0.58,0.55,0.33,0.29,0.44,0.48,0.55,0.33,0.58,0.5,0.33,0.55,0.33,0.55,0.4" style="fill:rgb(0,0,0);font-family:URWPalladioL-Roma;font-size:9.96px;stroke:none;">However, one can notice that for</text>
   <text y="272.483" x="226.317" svgx:width="0.56" style="fill:rgb(0,0,0);font-family:PazoMath-Italic;font-size:9.96px;stroke:none;">σ</text>
   <text y="268.866" code="48" x="232.195" svgx:width="0.28" style="fill:rgb(0,0,0);font-family:CMSY10;font-size:7.89px;stroke:none;">?</text>
   <text y="272.483" x="235.085" svgx:width="0.61" style="fill:rgb(0,0,0);font-family:URWPalladioL-Roma;font-size:9.96px;stroke:none;">/</text>
   <text y="272.483" x="241.372" svgx:width="0.56" style="fill:rgb(0,0,0);font-family:PazoMath-Italic;font-size:9.96px;stroke:none;">σ</text>
   <text y="272.483" x="250.47" svgx:width="0.78" style="fill:rgb(0,0,0);font-family:CMR10;font-size:10.38px;stroke:none;">=</text>
   <text y="272.483" x="261.854,266.935,269.475,274.556,279.637,284.617,287.437,290.75,296.664,301.531,307.1086,309.905,314.986,318.817,323.5978,326.398,330.706,333.663,339.313,345.227,348.185,354.332,358.844,363.925,369.839,373.152,376.109,381.6866,384.483,392.958,397.825,402.906,408.556,413.424,417.40799999999996,420.151,423.464,429.378,434.459,440.373,442.863,445.698,450.565,453.106,458.756,461.296,463.786,466.611,469.568,475.34479999999996,478.195,481.508,487.422,492.2028,495.013,499.525,505.653,511.272,514.229" svgx:width="0.5,0.25,0.5,0.5,0.5,0.55,0.33,0.58,0.48,0.56,0.55,0.5,0.4,0.48,0.55,0.42,0.29,0.56,0.58,0.29,0.61,0.44,0.5,0.58,0.33,0.29,0.56,0.55,0.83,0.48,0.5,0.56,0.48,0.4,0.55,0.33,0.58,0.5,0.58,0.25,0.55,0.48,0.25,0.56,0.25,0.25,0.55,0.29,0.58,0.55,0.33,0.58,0.48,0.55,0.44,0.6,0.55,0.29,0.44" style="fill:rgb(0,0,0);font-family:URWPalladioL-Roma;font-size:9.96px;stroke:none;">1.025 they are signiﬁcantly weaker than, e.g., in the cubic</text>
   <text y="285.992" x="76.535,80.768,86.318,90.55,93.805,98.586,107.401,109.89099999999999,112.981,120.748,124.072,127.326,132.108,136.092,138.546,143.52599999999998,146.023,150.456,153.36,158.811,163.044,167.825,171.809,174.264,179.046,184.197,189.188,198.002,200.907,206.717,211.708,214.963,217.868,223.318,229.09480000000002,231.613,237.064,240.3508,242.874,248.424,251.329,256.879,262.899,266.662,271.444" svgx:width="0.42,0.56,0.42,0.33,0.48,0.88,0.25,0.55,0.78,0.33,0.33,0.48,0.4,0.55,0.5,0.55,0.44,0.29,0.55,0.42,0.48,0.4,0.55,0.48,0.52,0.5,0.88,0.29,0.58,0.5,0.33,0.29,0.55,0.58,0.55,0.55,0.33,0.55,0.56,0.29,0.56,0.6,0.4,0.48,0.42" style="fill:rgb(0,0,0);font-family:URWPalladioL-Roma;font-size:9.96px;stroke:none;">system. After a closer examination of Figures</text>
   <text y="285.992" x="278.172" svgx:width="0.5" style="fill:rgb(8,117,183);font-family:URWPalladioL-Roma;font-size:9.96px;stroke:none;">6</text>
   <text y="285.992" x="283.163,287.54540000000003,290.081,295.532,301.341,306.1218,308.619,313.051,318.042,323.81879999999995,326.338,330.57,335.352,340.1328,342.629,345.883,351.683,356.675,359.96180000000004,362.424,365.679,371.489,376.2698,378.756,384.566,389.347,394.898,399.889,403.143,406.048,411.688,416.4688,418.965,424.606,429.597,432.502,438.521,443.303,447.4862,450.021,455.472,458.7588,461.291,464.546,470.356,475.1368,477.623,483.652,489.103,492.008,496.24,500.473,505.923,511.733,514.508" svgx:width="0.44,0.55,0.55,0.58,0.48,0.55,0.44,0.5,0.58,0.55,0.42,0.48,0.48,0.55,0.33,0.58,0.5,0.33,0.55,0.33,0.58,0.48,0.55,0.58,0.48,0.56,0.5,0.33,0.29,0.56,0.48,0.55,0.56,0.5,0.29,0.6,0.48,0.42,0.55,0.55,0.33,0.55,0.33,0.58,0.48,0.55,0.6,0.55,0.29,0.42,0.42,0.55,0.58,0.28,0.42" style="fill:rgb(0,0,0);font-family:URWPalladioL-Roma;font-size:9.96px;stroke:none;">c one can see that the negative values of the Poisson’s</text>
   <text y="299.502" x="76.535,80.415,85.327,88.529,91.388,96.866,99.246,104.158,107.861,112.6418,115.071,120.435,123.7218,126.201,129.403,135.12,139.9008,142.32,146.485,151.397,160.071,164.8518,167.281,172.644,176.348,182.35,187.055,191.03900000000002,193.43,198.794,202.0808,204.56,213.234,218.145,223.607,229.324,232.182,235.385,241.308,247.31,252.0908,254.52,259.432,263.6152,266.092,268.95,274.72679999999997,277.172,280.375,286.092,290.8728,293.292,299.196,303.076,305.934,310.099,313.302,316.16,321.877,326.6578,329.078,333.439,339.362,344.795,347.653,352.03540000000004,354.52,358.685,364.146,368.311,371.514,376.219,384.893,387.383,390.462,396.484,402.201,406.9818,409.401,414.313,420.236,425.305,430.01,433.213,436.071,440.45340000000004,442.937,448.841,452.535,457.898,463.802,468.507,472.387,475.589,478.448,483.153,487.3362,489.823,495.373,500.285,506.002,508.86,513.025" svgx:width="0.4,0.5,0.33,0.29,0.55,0.55,0.5,0.4,0.48,0.55,0.55,0.33,0.55,0.33,0.58,0.48,0.55,0.42,0.5,0.88,0.48,0.55,0.55,0.4,0.61,0.48,0.4,0.55,0.55,0.33,0.55,0.88,0.5,0.56,0.58,0.29,0.33,0.6,0.61,0.48,0.55,0.5,0.42,0.55,0.29,0.58,0.55,0.33,0.58,0.48,0.55,0.6,0.4,0.29,0.42,0.33,0.29,0.58,0.48,0.55,0.44,0.6,0.55,0.29,0.44,0.55,0.42,0.56,0.42,0.33,0.48,0.88,0.25,0.55,0.61,0.58,0.48,0.55,0.5,0.6,0.52,0.48,0.33,0.29,0.44,0.55,0.6,0.4,0.55,0.6,0.48,0.4,0.33,0.29,0.48,0.42,0.55,0.56,0.5,0.58,0.29,0.42,0.58" style="fill:rgb(0,0,0);font-family:URWPalladioL-Roma;font-size:9.96px;stroke:none;">ratio are of the same order of magnitude as in the pristine cubic system. The auxetic properties vanish</text>
   <text y="313.011" x="76.535,79.492,85.2688,88.363,91.676,97.59,102.3708,105.415,111.624,114.581,118.412,123.28,127.791,131.104,134.061,139.61,145.524,149.7072,152.79,155.747,160.828,166.478,169.435,175.349,180.92659999999998,183.956,186.913,192.68980000000002,195.784,199.097,205.011" svgx:width="0.29,0.58,0.55,0.33,0.58,0.48,0.55,0.61,0.29,0.4,0.48,0.44,0.33,0.29,0.55,0.58,0.42,0.55,0.29,0.5,0.56,0.29,0.58,0.56,0.55,0.29,0.58,0.55,0.33,0.58,0.48" style="fill:rgb(0,0,0);font-family:URWPalladioL-Roma;font-size:9.96px;stroke:none;">in the directions laying in the</text>
   <text y="313.011" x="213.125,218.455" svgx:width="0.5,0.5" style="fill:rgb(0,0,0);font-family:URWPalladioL-Ital;font-size:9.96px;stroke:none;">xy</text>
   <text y="313.011" x="223.56,226.944,233.051,236.008,241.089,247.003,251.871,254.36100000000002,257.48,263.1,269.227,272.5138,275.497,280.578,284.419,289.1998,292.234,297.101,303.016,308.93,314.011,319.925,324.437,329.304,335.3796,338.47,341.427" svgx:width="0.33,0.6,0.29,0.5,0.58,0.48,0.25,0.55,0.55,0.6,0.33,0.55,0.5,0.4,0.48,0.55,0.48,0.58,0.58,0.5,0.58,0.44,0.48,0.61,0.55,0.29,0.58" style="fill:rgb(0,0,0);font-family:URWPalladioL-Roma;font-size:9.96px;stroke:none;">-plane, but are enhanced in</text>
   <text y="313.011" x="350.593,355.923" svgx:width="0.5,0.44" style="fill:rgb(0,0,0);font-family:URWPalladioL-Ital;font-size:9.96px;stroke:none;">xz</text>
   <text y="313.011" x="360.471,363.75780000000003,366.812,371.893,377.807" svgx:width="0.33,0.55,0.5,0.58,0.61" style="fill:rgb(0,0,0);font-family:URWPalladioL-Roma;font-size:9.96px;stroke:none;">- and</text>
   <text y="313.011" x="387.095,392.325" svgx:width="0.5,0.44" style="fill:rgb(0,0,0);font-family:URWPalladioL-Ital;font-size:9.96px;stroke:none;">yz</text>
   <text y="313.011" x="396.874,400.258,406.365,409.322,414.403,420.317,425.185,429.494,431.98400000000004,436.515,442.745,448.659,454.786,459.095,461.58500000000004,464.704,467.661,473.4378,476.533,482.183,485.14,490.79,496.917,500.759" svgx:width="0.33,0.6,0.29,0.5,0.58,0.48,0.42,0.25,0.55,0.61,0.58,0.6,0.42,0.25,0.55,0.29,0.58,0.55,0.56,0.29,0.56,0.6,0.4,0.48" style="fill:rgb(0,0,0);font-family:URWPalladioL-Roma;font-size:9.96px;stroke:none;">-planes. Thus, in Figure</text>
   <text y="313.011" x="508.583" svgx:width="0.5" style="fill:rgb(8,117,183);font-family:URWPalladioL-Roma;font-size:9.96px;stroke:none;">7</text>
   <text y="313.011" x="513.664" svgx:width="0.5" style="fill:rgb(0,0,0);font-family:URWPalladioL-Roma;font-size:9.96px;stroke:none;">a</text>
   <text y="326.52" x="76.535,79.848,85.762,90.5428,94.328,100.07,105.151,108.108,114.235,119.103,123.2862,127.121,132.659,135.9458,139.752,143.065,148.979,153.7598,157.545,163.683,169.231,172.189,176.497,180.806,186.354,192.268,195.093,199.2762,203.101,207.115,212.196,215.508,218.466,223.94400000000002,227.713,231.097,236.645,240.62900000000002,244.368,247.681,253.595,258.3758,262.162,266.673,271.754,276.063,280.93,285.1132,288.938,297.413,303.327,308.195,313.9718,317.808,321.121,327.035,331.8158,335.611,340.479,345.722,349.035,353.903,357.917,363.831,368.912,371.80039999999997,375.568,379.876,383.189,387.02,391.888,396.196,400.3792,404.214,412.689,417.77,421.9532,425.777,430.858,436.966,443.073,446.03,448.987,453.855,459.9306,463.762,466.72" svgx:width="0.33,0.58,0.48,0.55,0.56,0.5,0.29,0.6,0.48,0.42,0.55,0.55,0.33,0.55,0.33,0.58,0.48,0.55,0.6,0.55,0.29,0.42,0.42,0.55,0.58,0.28,0.42,0.55,0.4,0.5,0.33,0.29,0.55,0.55,0.33,0.55,0.4,0.55,0.33,0.58,0.48,0.55,0.44,0.5,0.42,0.48,0.42,0.55,0.83,0.58,0.48,0.58,0.55,0.33,0.58,0.48,0.55,0.48,0.52,0.33,0.48,0.4,0.58,0.5,0.29,0.55,0.42,0.33,0.4,0.48,0.42,0.42,0.55,0.83,0.5,0.42,0.55,0.5,0.6,0.6,0.29,0.29,0.48,0.61,0.55,0.29,0.58" style="fill:rgb(0,0,0);font-family:URWPalladioL-Roma;font-size:9.96px;stroke:none;">the values of the Poisson’s ratio for the cases when the external stress was applied in</text>
   <text y="326.52" x="476.46" svgx:width="0.28" style="fill:rgb(0,0,0);font-family:CMR10;font-size:10.38px;stroke:none;">[</text>
   <text y="326.52" x="479.464,484.545,489.626" svgx:width="0.5,0.5,0.5" style="fill:rgb(0,0,0);font-family:URWPalladioL-Roma;font-size:9.96px;stroke:none;">110</text>
   <text y="326.52" x="494.831" svgx:width="0.28" style="fill:rgb(0,0,0);font-family:CMR10;font-size:10.38px;stroke:none;">]</text>
   <text y="326.52" x="501.536,506.617,512.531" svgx:width="0.5,0.58,0.61" style="fill:rgb(0,0,0);font-family:URWPalladioL-Roma;font-size:9.96px;stroke:none;">and</text>
   <text y="340.03" x="76.66" svgx:width="0.28" style="fill:rgb(0,0,0);font-family:CMR10;font-size:10.38px;stroke:none;">[</text>
   <text y="340.03" x="79.664,84.745,89.826" svgx:width="0.5,0.5,0.5" style="fill:rgb(0,0,0);font-family:URWPalladioL-Roma;font-size:9.96px;stroke:none;">101</text>
   <text y="340.03" x="95.031" svgx:width="0.28" style="fill:rgb(0,0,0);font-family:CMR10;font-size:10.38px;stroke:none;">]</text>
   <text y="340.03" x="98.035,101.419,107.628,110.585,114.416,119.283,123.795,127.108,130.065,135.614,141.528,145.7112,148.346,154.261,159.341,165.083,169.8638,172.46,178.08,182.947,187.815,193.5918,196.239,200.751,206.299,215.272,221.38,226.46,230.292,235.159,241.2346,243.878,247.262,250.575,256.489,261.356,265.665,270.4458,273.042,279.251,282.208,286.039,290.907,295.419,298.732,301.689,307.237,313.151,317.3342,319.97,325.051,328.882,333.6628,336.259,341.127,346.817,352.945,355.902,361.644,366.724,369.682,374.549,380.463,383.74980000000005,386.286,389.243,395.0198,397.667,400.98,406.894,411.6748,414.272,418.784,424.911,430.531,433.488,437.8704,440.51,444.818,450.468,454.777,458.09,462.957,471.93,475.314,477.80400000000003,480.995,484.419,487.7058,490.242,494.754,499.835,505.61179999999996,508.249,513.868" svgx:width="0.33,0.61,0.29,0.4,0.48,0.44,0.33,0.29,0.55,0.58,0.42,0.55,0.58,0.5,0.56,0.48,0.55,0.55,0.48,0.48,0.58,0.55,0.44,0.55,0.88,0.6,0.5,0.4,0.48,0.61,0.55,0.33,0.33,0.58,0.48,0.42,0.48,0.55,0.61,0.29,0.4,0.48,0.44,0.33,0.29,0.55,0.58,0.42,0.55,0.5,0.4,0.48,0.55,0.48,0.56,0.6,0.29,0.56,0.5,0.29,0.48,0.58,0.33,0.55,0.29,0.58,0.55,0.33,0.58,0.48,0.55,0.44,0.6,0.55,0.29,0.44,0.55,0.42,0.56,0.42,0.33,0.48,0.88,0.33,0.25,0.55,0.34,0.33,0.55,0.44,0.5,0.58,0.55,0.55,0.48" style="fill:rgb(0,0,0);font-family:URWPalladioL-Roma;font-size:9.96px;stroke:none;">-directions have been compared (these directions are equivalent in the cubic system). It can be</text>
   <text y="353.539" x="76.535,80.844,85.711,90.579,96.35579999999999,99.328,102.641,108.555,113.636,116.9228,119.794,123.107,129.021,133.8018,136.724,139.681,145.595,150.107,153.948,158.816,163.896,168.205,172.9858,175.908,181.456" svgx:width="0.42,0.48,0.48,0.58,0.55,0.33,0.58,0.5,0.33,0.55,0.33,0.58,0.48,0.55,0.29,0.58,0.44,0.4,0.48,0.5,0.42,0.48,0.55,0.55,0.33" style="fill:rgb(0,0,0);font-family:URWPalladioL-Roma;font-size:9.96px;stroke:none;">seen that the increase of</text>
   <text y="353.539" x="187.806" svgx:width="0.56" style="fill:rgb(0,0,0);font-family:PazoMath-Italic;font-size:9.96px;stroke:none;">σ</text>
   <text y="349.923" code="48" x="193.684" svgx:width="0.28" style="fill:rgb(0,0,0);font-family:CMSY10;font-size:7.89px;stroke:none;">?</text>
   <text y="353.539" x="196.574" svgx:width="0.61" style="fill:rgb(0,0,0);font-family:URWPalladioL-Roma;font-size:9.96px;stroke:none;">/</text>
   <text y="353.539" x="202.86" svgx:width="0.56" style="fill:rgb(0,0,0);font-family:PazoMath-Italic;font-size:9.96px;stroke:none;">σ</text>
   <text y="353.539" x="211.484,217.225,222.306,225.263,231.391,236.1718,239.094,243.606,248.687,254.814,259.123,263.99,268.1732,271.144,274.457,280.371,285.1518,288.074,291.031,296.945,301.457,305.298,310.166,315.247,319.555,324.3358,327.258,332.806,336.0928,339.035,342.348,348.262,353.0428,355.965,362.103,367.651,370.608,374.917,379.226,384.774,390.688,393.513,397.6962,400.657,404.671,409.752,413.064,416.022,421.57,424.06,428.246,436.701,442.249,450.724,455.592,461.333,466.201,469.483,471.973,474.95,480.031,485.651,491.199,496.94,501.7208,504.643,507.956,513.87" svgx:width="0.56,0.5,0.29,0.6,0.48,0.55,0.44,0.5,0.6,0.42,0.48,0.42,0.55,0.33,0.58,0.48,0.55,0.29,0.58,0.44,0.4,0.48,0.5,0.42,0.48,0.55,0.55,0.33,0.55,0.33,0.58,0.48,0.55,0.6,0.55,0.29,0.42,0.42,0.55,0.58,0.28,0.42,0.55,0.4,0.5,0.33,0.29,0.55,0.25,0.55,0.83,0.55,0.83,0.48,0.56,0.48,0.4,0.25,0.55,0.5,0.55,0.55,0.56,0.48,0.55,0.33,0.58,0.48" style="fill:rgb(0,0,0);font-family:URWPalladioL-Roma;font-size:9.96px;stroke:none;">value causes the increase of the Poisson’s ratio. However, above the</text>
   <text y="367.049" x="76.66" svgx:width="0.56" style="fill:rgb(0,0,0);font-family:PazoMath-Italic;font-size:9.96px;stroke:none;">σ</text>
   <text y="363.432" code="48" x="82.538" svgx:width="0.28" style="fill:rgb(0,0,0);font-family:CMSY10;font-size:7.89px;stroke:none;">?</text>
   <text y="367.049" x="85.428" svgx:width="0.61" style="fill:rgb(0,0,0);font-family:URWPalladioL-Roma;font-size:9.96px;stroke:none;">/</text>
   <text y="367.049" x="91.715" svgx:width="0.56" style="fill:rgb(0,0,0);font-family:PazoMath-Italic;font-size:9.96px;stroke:none;">σ</text>
   <text y="367.049" x="101.841" svgx:width="0.78" style="fill:rgb(0,0,0);font-family:CMR10;font-size:10.38px;stroke:none;">=</text>
   <text y="367.049" x="114.254,119.335,121.875,126.956,131.936,135.312,141.45,146.998,149.955,154.264,158.572,164.121,170.035,172.86,177.0432,180.441,184.455,189.536,192.848,195.805,201.28300000000002,204.626,210.835,215.702,220.214,224.055,228.923,234.004,238.313,243.18,247.3632,250.761,253.718,259.4948,262.904,266.217,272.131" svgx:width="0.5,0.25,0.5,0.5,0.55,0.6,0.55,0.29,0.42,0.42,0.55,0.58,0.28,0.42,0.55,0.4,0.5,0.33,0.29,0.55,0.55,0.61,0.48,0.44,0.4,0.48,0.5,0.42,0.48,0.42,0.55,0.29,0.58,0.55,0.33,0.58,0.48" style="fill:rgb(0,0,0);font-family:URWPalladioL-Roma;font-size:9.96px;stroke:none;">1.03 Poisson’s ratio decreases in the</text>
   <text y="367.049" x="280.399" svgx:width="0.28" style="fill:rgb(0,0,0);font-family:CMR10;font-size:10.38px;stroke:none;">[</text>
   <text y="367.049" x="283.402,288.483,293.564" svgx:width="0.5,0.5,0.5" style="fill:rgb(0,0,0);font-family:URWPalladioL-Roma;font-size:9.96px;stroke:none;">101</text>
   <text y="367.049" x="298.77,301.903" svgx:width="0.28,0.28" style="fill:rgb(0,0,0);font-family:CMR10;font-size:10.38px;stroke:none;">][</text>
   <text y="364.767" x="305.734" svgx:width="0.33" style="fill:rgb(0,0,0);font-family:URWPalladioL-Roma;font-size:9.96px;stroke:none;">¯</text>
   <text y="367.049" x="304.902,309.883,314.964" svgx:width="0.5,0.5,0.5" style="fill:rgb(0,0,0);font-family:URWPalladioL-Roma;font-size:9.96px;stroke:none;">101</text>
   <text y="367.049" x="320.169" svgx:width="0.28" style="fill:rgb(0,0,0);font-family:CMR10;font-size:10.38px;stroke:none;">]</text>
   <text y="367.049" x="323.173,326.557,332.766,335.723,339.554,344.421,348.933,352.246,355.203,360.752,366.666,370.974,373.464,376.99,380.821,385.689,390.77,395.281,401.196,404.153,410.067,415.6446,418.989,422.302,428.216,432.9968,436.366,442.107,447.188,450.145,456.273,461.0538,464.413,469.961" svgx:width="0.33,0.61,0.29,0.4,0.48,0.44,0.33,0.29,0.55,0.58,0.42,0.25,0.55,0.4,0.48,0.5,0.44,0.58,0.29,0.58,0.56,0.55,0.33,0.58,0.48,0.55,0.56,0.5,0.29,0.6,0.48,0.55,0.55,0.33" style="fill:rgb(0,0,0);font-family:URWPalladioL-Roma;font-size:9.96px;stroke:none;">-directions, reaching the value of</text>
   <text y="367.049" x="476.742" svgx:width="0.78" style="fill:rgb(0,0,0);font-family:CMSY10;font-size:10.38px;stroke:none;">−</text>
   <text y="367.049" x="484.936,490.017,492.557,497.638,502.618,505.993,509.377,514.925" svgx:width="0.5,0.25,0.5,0.5,0.55,0.33,0.55,0.4" style="fill:rgb(0,0,0);font-family:URWPalladioL-Roma;font-size:9.96px;stroke:none;">0.11 for</text>
   <text y="380.558" x="76.66" svgx:width="0.56" style="fill:rgb(0,0,0);font-family:PazoMath-Italic;font-size:9.96px;stroke:none;">σ</text>
   <text y="376.942" code="48" x="82.538" svgx:width="0.28" style="fill:rgb(0,0,0);font-family:CMSY10;font-size:7.89px;stroke:none;">?</text>
   <text y="380.558" x="85.428" svgx:width="0.61" style="fill:rgb(0,0,0);font-family:URWPalladioL-Roma;font-size:9.96px;stroke:none;">/</text>
   <text y="380.558" x="91.715" svgx:width="0.56" style="fill:rgb(0,0,0);font-family:PazoMath-Italic;font-size:9.96px;stroke:none;">σ</text>
   <text y="380.558" x="101.259" svgx:width="0.78" style="fill:rgb(0,0,0);font-family:CMR10;font-size:10.38px;stroke:none;">=</text>
   <text y="380.558" x="113.09,118.171,120.711,125.792,130.873,135.85299999999998,138.915,143.996,147.2828,150.266,156.373,160.214,165.082,169.39,173.699,179.827,183.658" svgx:width="0.5,0.25,0.5,0.5,0.5,0.55,0.5,0.33,0.55,0.6,0.4,0.48,0.42,0.42,0.6,0.4,0.48" style="fill:rgb(0,0,0);font-family:URWPalladioL-Roma;font-size:9.96px;stroke:none;">1.054 at pressure</text>
   <text y="380.558" x="192.158" svgx:width="0.5" style="fill:rgb(0,0,0);font-family:URWPalladioL-Ital;font-size:9.96px;stroke:none;">p</text>
   <text y="376.942" x="197.358" svgx:width="0.5" style="fill:rgb(0,0,0);font-family:CMSY10;font-size:7.89px;stroke:none;">∗</text>
   <text y="380.558" x="205.657" svgx:width="0.78" style="fill:rgb(0,0,0);font-family:CMR10;font-size:10.38px;stroke:none;">=</text>
   <text y="380.558" x="217.488,222.569,227.65,232.731,235.221,238.351,246.826,252.74,255.697,260.209,265.9858,269.08,272.037,276.2202,279.303,284.384,287.341,296.314,301.862,306.171,309.4578,312.451,315.763,324.238,329.716,332.744,336.057,339.014,347.987,352.854,357.0372,360.12,363.077,368.625,377.1,381.968,385.952,388.949,392.262,398.176,403.257" svgx:width="0.5,0.5,0.5,0.25,0.55,0.83,0.58,0.29,0.44,0.58,0.55,0.29,0.42,0.55,0.5,0.29,0.88,0.55,0.42,0.33,0.55,0.33,0.83,0.55,0.55,0.33,0.29,0.88,0.48,0.42,0.55,0.29,0.55,0.83,0.48,0.4,0.55,0.33,0.58,0.5,0.58" style="fill:rgb(0,0,0);font-family:URWPalladioL-Roma;font-size:9.96px;stroke:none;">100, which is almost two times lower than</text>
   <text y="380.558" x="412.252" svgx:width="0.78" style="fill:rgb(0,0,0);font-family:CMSY10;font-size:10.38px;stroke:none;">−</text>
   <text y="380.558" x="420.446,425.527,428.067,433.148,438.229,443.209,446.271,451.819,457.439,460.752,465.833,468.79,474.704,479.571,485.64660000000003,488.737,492.121,497.67,501.654,504.651,507.964,513.878" svgx:width="0.5,0.25,0.5,0.5,0.5,0.55,0.55,0.55,0.33,0.5,0.29,0.58,0.48,0.61,0.55,0.33,0.55,0.4,0.55,0.33,0.58,0.48" style="fill:rgb(0,0,0);font-family:URWPalladioL-Roma;font-size:9.96px;stroke:none;">0.059 obtained for the</text>
   <text y="394.067" x="76.535,81.047,87.174,92.794,95.751,100.13340000000001,102.864,107.173,112.823,117.132,120.444,125.312,134.0768,136.876,140.26,143.573,149.487,154.2678,156.956,162.697,167.778,170.735,176.863" svgx:width="0.44,0.6,0.55,0.29,0.44,0.55,0.42,0.56,0.42,0.33,0.48,0.88,0.55,0.33,0.33,0.58,0.48,0.55,0.56,0.5,0.29,0.6,0.48" style="fill:rgb(0,0,0);font-family:URWPalladioL-Roma;font-size:9.96px;stroke:none;">cubic system (the value</text>
   <text y="394.067" x="184.45" svgx:width="0.56" style="fill:rgb(0,0,0);font-family:PazoMath-Italic;font-size:9.96px;stroke:none;">σ</text>
   <text y="390.451" code="48" x="190.328" svgx:width="0.28" style="fill:rgb(0,0,0);font-family:CMSY10;font-size:7.89px;stroke:none;">?</text>
   <text y="394.067" x="193.218" svgx:width="0.61" style="fill:rgb(0,0,0);font-family:URWPalladioL-Roma;font-size:9.96px;stroke:none;">/</text>
   <text y="394.067" x="199.505" svgx:width="0.56" style="fill:rgb(0,0,0);font-family:PazoMath-Italic;font-size:9.96px;stroke:none;">σ</text>
   <text y="394.067" x="208.377" svgx:width="0.78" style="fill:rgb(0,0,0);font-family:CMR10;font-size:10.38px;stroke:none;">=</text>
   <text y="394.067" x="219.537,224.618,227.158,232.239,237.32,242.29999999999998,244.998,253.473,258.554,262.7372,265.464,268.777,274.691,279.4718,282.15,288.064,291.021,296.671,302.585,307.453,311.761,315.04780000000005,317.676,323.884,326.842,331.922,340.895,345.763,349.076,353.943,357.92699999999996,360.548,366.097,369.3838,372.082,375.395,381.309,386.0898,388.778,391.735,397.649,402.161,405.118,411.246,415.555,418.512,424.06,429.8368,432.565,438.673,443.754,447.768,451.08,454.037,458.549,461.506,466.374,470.5572,473.284,477.593,480.905,487.033,493.242,496.199,501.066,507.1416,509.867,512.824" svgx:width="0.5,0.25,0.5,0.5,0.5,0.55,0.83,0.5,0.42,0.55,0.33,0.58,0.48,0.55,0.58,0.29,0.56,0.58,0.48,0.42,0.33,0.55,0.61,0.29,0.5,0.88,0.48,0.33,0.48,0.4,0.55,0.55,0.33,0.55,0.33,0.58,0.48,0.55,0.29,0.58,0.44,0.29,0.6,0.42,0.29,0.55,0.58,0.55,0.6,0.5,0.4,0.33,0.29,0.44,0.29,0.48,0.42,0.55,0.42,0.33,0.6,0.61,0.29,0.48,0.61,0.55,0.29,0.58" style="fill:rgb(0,0,0);font-family:URWPalladioL-Roma;font-size:9.96px;stroke:none;">1.054 was the highest diameter of the inclusion particles studied in</text>
   <text y="407.577" x="76.535,79.809,85.653,88.576,92.75919999999999,95.304,103.679,109.162,113.129,118.70660000000001,121.193,124.537,130.02" svgx:width="0.33,0.58,0.29,0.42,0.55,0.83,0.55,0.4,0.56,0.55,0.33,0.55,0.4" style="fill:rgb(0,0,0);font-family:URWPalladioL-Roma;font-size:9.96px;stroke:none;">this work for</text>
   <text y="407.577" x="137.133" svgx:width="0.5" style="fill:rgb(0,0,0);font-family:URWPalladioL-Ital;font-size:9.96px;stroke:none;">p</text>
   <text y="403.96" x="142.334" svgx:width="0.5" style="fill:rgb(0,0,0);font-family:CMSY10;font-size:7.89px;stroke:none;">∗</text>
   <text y="407.577" x="149.763" svgx:width="0.78" style="fill:rgb(0,0,0);font-family:CMR10;font-size:10.38px;stroke:none;">=</text>
   <text y="407.577" x="160.725,165.746,170.767,175.788,179.132,181.622,184.726,192.539,198.674,204.81,207.733,211.006,213.929,219.412,225.256,230.278,233.2,236.122,240.601,243.091,245.592,251.658,257.141,260.063,264.321,268.579,274.062,279.907,282.698,286.8812,289.427,293.393,298.414,301.688,304.611,310.089,312.564,315.486,321.26279999999997,323.811,327.085,332.93" svgx:width="0.5,0.5,0.5,0.33,0.25,0.55,0.78,0.61,0.61,0.29,0.33,0.29,0.55,0.58,0.5,0.29,0.29,0.56,0.25,0.55,0.6,0.55,0.29,0.42,0.42,0.55,0.58,0.28,0.42,0.55,0.4,0.5,0.33,0.29,0.55,0.55,0.29,0.58,0.55,0.33,0.58,0.48" style="fill:rgb(0,0,0);font-family:URWPalladioL-Roma;font-size:9.96px;stroke:none;">100). Additionally, Poisson’s ratio in the</text>
   <text y="407.577" x="340.338" svgx:width="0.28" style="fill:rgb(0,0,0);font-family:CMR10;font-size:10.38px;stroke:none;">[</text>
   <text y="407.577" x="343.342,348.363,353.384" svgx:width="0.5,0.5,0.5" style="fill:rgb(0,0,0);font-family:URWPalladioL-Roma;font-size:9.96px;stroke:none;">101</text>
   <text y="407.577" x="358.53,361.663" svgx:width="0.28,0.28" style="fill:rgb(0,0,0);font-family:CMR10;font-size:10.38px;stroke:none;">][</text>
   <text y="405.295" x="365.494" svgx:width="0.33" style="fill:rgb(0,0,0);font-family:URWPalladioL-Roma;font-size:9.96px;stroke:none;">¯</text>
   <text y="407.577" x="364.662,369.643,374.664" svgx:width="0.5,0.5,0.5" style="fill:rgb(0,0,0);font-family:URWPalladioL-Roma;font-size:9.96px;stroke:none;">101</text>
   <text y="407.577" x="379.81" svgx:width="0.28" style="fill:rgb(0,0,0);font-family:CMR10;font-size:10.38px;stroke:none;">]</text>
   <text y="407.577" x="382.814,386.158,392.294,395.216,399.002,403.812,408.271,411.545,414.467,419.95,425.795,429.9782,432.533,438.378,443.399,447.5822,450.127,455.681,460.491,465.301,471.07779999999997,473.616,478.075,483.558,492.426,498.461,504.517,507.79,512.601" svgx:width="0.33,0.61,0.29,0.4,0.48,0.44,0.33,0.29,0.55,0.58,0.42,0.55,0.58,0.5,0.42,0.55,0.55,0.48,0.48,0.58,0.55,0.44,0.55,0.88,0.6,0.6,0.33,0.48,0.61" style="fill:rgb(0,0,0);font-family:URWPalladioL-Roma;font-size:9.96px;stroke:none;">-directions has been computed</text>
   <text y="421.086" x="76.535,79.899,85.415,89.399,91.9,94.84,100.356,108.781,113.62,117.604,120.115,124.954,130.167,133.46,138.299,142.289,148.169,153.22,156.1084,158.655,164.726,168.535,173.374,177.657,181.94,188.032,191.84,196.679,200.8622,203.468,206.832,211.671,217.378,222.207,227.9838,230.592,235.077,238.017,243.532,247.816,252.5968,255.15,258.443,263.921,266.454,275.374,280.213,283.153,286.446,289.386,295.265,300.882,304.246,306.736,309.883,316.075,321.955,326.7358,329.289,335.461,340.512,343.806,348.786,351.362,357.241,362.292,368.0,372.7808,375.334,380.921,385.759,390.598,396.3748,398.973,405.044,408.853,413.692,417.975,422.814,428.693,431.987,436.826,442.90160000000003,445.503,448.443,454.21979999999996,456.817,462.434,465.374,470.991,477.082,480.891" svgx:width="0.33,0.55,0.4,0.55,0.29,0.55,0.83,0.48,0.4,0.55,0.48,0.52,0.33,0.48,0.4,0.58,0.5,0.29,0.55,0.6,0.4,0.48,0.42,0.42,0.6,0.4,0.48,0.42,0.55,0.33,0.48,0.56,0.48,0.58,0.55,0.44,0.29,0.55,0.42,0.48,0.55,0.33,0.55,0.55,0.88,0.48,0.29,0.33,0.29,0.58,0.56,0.33,0.25,0.55,0.61,0.58,0.48,0.55,0.61,0.5,0.33,0.5,0.55,0.58,0.5,0.56,0.48,0.55,0.55,0.48,0.48,0.58,0.55,0.6,0.4,0.48,0.42,0.48,0.58,0.33,0.48,0.61,0.55,0.29,0.58,0.55,0.56,0.29,0.56,0.6,0.4,0.48" style="fill:rgb(0,0,0);font-family:URWPalladioL-Roma;font-size:9.96px;stroke:none;">for lower external pressures (even close to melting). The data have been presented in Figure</text>
   <text y="421.086" x="488.225" svgx:width="0.5" style="fill:rgb(8,117,183);font-family:URWPalladioL-Roma;font-size:9.96px;stroke:none;">7</text>
   <text y="421.086" x="493.276,498.754,501.368,504.732,508.025,513.904" svgx:width="0.55,0.55,0.33,0.33,0.58,0.48" style="fill:rgb(0,0,0);font-family:URWPalladioL-Roma;font-size:9.96px;stroke:none;">b (the</text>
   <text y="434.596" x="76.535,82.653,87.659,90.923,95.903,98.412,101.746,107.213" svgx:width="0.61,0.5,0.33,0.5,0.55,0.33,0.55,0.4" style="fill:rgb(0,0,0);font-family:URWPalladioL-Roma;font-size:9.96px;stroke:none;">data for</text>
   <text y="434.596" x="114.321" svgx:width="0.5" style="fill:rgb(0,0,0);font-family:URWPalladioL-Ital;font-size:9.96px;stroke:none;">p</text>
   <text y="430.979" x="119.522" svgx:width="0.5" style="fill:rgb(0,0,0);font-family:CMSY10;font-size:7.89px;stroke:none;">∗</text>
   <text y="434.596" x="126.951" svgx:width="0.78" style="fill:rgb(0,0,0);font-family:CMR10;font-size:10.38px;stroke:none;">=</text>
   <text y="434.596" x="137.913,142.919,147.925,152.905,155.413,160.419,164.194,168.9748,171.473,174.737,180.564,185.3448,187.843,192.088,197.095,205.936,210.7168,213.215,218.221,222.4042,224.949,227.863,233.6398,236.163,241.73,244.644,250.211,256.248,260.033" svgx:width="0.5,0.5,0.5,0.55,0.5,0.4,0.48,0.55,0.33,0.58,0.48,0.55,0.42,0.5,0.88,0.48,0.55,0.5,0.42,0.55,0.29,0.58,0.55,0.56,0.29,0.56,0.6,0.4,0.48" style="fill:rgb(0,0,0);font-family:URWPalladioL-Roma;font-size:9.96px;stroke:none;">100 are the same as in Figure</text>
   <text y="434.596" x="267.302" svgx:width="0.5" style="fill:rgb(8,117,183);font-family:URWPalladioL-Roma;font-size:9.96px;stroke:none;">7</text>
   <text y="434.596" x="272.308,277.314,280.648,283.13800000000003,286.245,289.619,292.90580000000006,295.356,299.802,304.808,310.5848,313.118,318.655,323.4358,325.934,331.762,337.228,340.492,343.406,347.852,352.648,358.72360000000003,361.248,364.512,370.339,375.346,378.63280000000003,381.093,386.099,389.3858,391.846,394.76,400.226,408.577,413.373,417.35699999999997,419.811,425.828,429.603,434.399,438.644,442.889,448.927,452.702,457.497,461.6802,464.226,469.693,475.52,480.3008,482.799,486.574,491.369,496.976,503.014,505.928,509.702,514.498" svgx:width="0.5,0.33,0.25,0.55,0.34,0.33,0.55,0.44,0.5,0.58,0.55,0.55,0.48,0.55,0.58,0.55,0.33,0.29,0.44,0.48,0.61,0.55,0.33,0.58,0.5,0.33,0.55,0.5,0.33,0.55,0.29,0.55,0.83,0.48,0.4,0.55,0.6,0.4,0.48,0.42,0.42,0.6,0.4,0.48,0.42,0.55,0.55,0.58,0.48,0.55,0.4,0.48,0.56,0.6,0.29,0.4,0.48,0.42" style="fill:rgb(0,0,0);font-family:URWPalladioL-Roma;font-size:9.96px;stroke:none;">a). It can be noticed that at lower pressures one requires</text>
   <text y="448.105" x="76.535,82.287,85.163,90.658,96.41,101.143" svgx:width="0.58,0.29,0.56,0.58,0.48,0.4" style="fill:rgb(0,0,0);font-family:URWPalladioL-Roma;font-size:9.96px;stroke:none;">higher</text>
   <text y="448.105" x="107.66" svgx:width="0.56" style="fill:rgb(0,0,0);font-family:PazoMath-Italic;font-size:9.96px;stroke:none;">σ</text>
   <text y="444.489" code="48" x="113.538" svgx:width="0.28" style="fill:rgb(0,0,0);font-family:CMSY10;font-size:7.89px;stroke:none;">?</text>
   <text y="448.105" x="116.428" svgx:width="0.61" style="fill:rgb(0,0,0);font-family:URWPalladioL-Roma;font-size:9.96px;stroke:none;">/</text>
   <text y="448.105" x="122.715" svgx:width="0.56" style="fill:rgb(0,0,0);font-family:PazoMath-Italic;font-size:9.96px;stroke:none;">σ</text>
   <text y="448.105" x="130.986,136.57,141.511,144.387,150.347,155.08,159.2632,161.761,164.983,170.461,172.86,177.801,182.189,187.941,190.817,195.551,201.135,205.9158,208.359,213.339,215.791,221.83,226.563,230.951,234.677,239.411,244.353,248.543,253.3238,255.767,261.164,264.4508,266.935,272.904,279.506,281.996,284.467,287.798,293.5748,296.04,299.262,305.014,309.7948,312.238,316.626,321.568,325.758,330.5388,332.973,338.369" svgx:width="0.56,0.5,0.29,0.6,0.48,0.42,0.55,0.33,0.55,0.55,0.5,0.44,0.58,0.29,0.48,0.56,0.48,0.55,0.5,0.55,0.61,0.48,0.44,0.4,0.48,0.5,0.42,0.48,0.55,0.55,0.33,0.55,0.6,0.67,0.25,0.55,0.34,0.58,0.55,0.33,0.58,0.48,0.55,0.44,0.5,0.42,0.48,0.55,0.55,0.33" style="fill:rgb(0,0,0);font-family:URWPalladioL-Roma;font-size:9.96px;stroke:none;">values to achieve a decrease of PR. In the case of</text>
   <text y="448.105" x="344.823" svgx:width="0.5" style="fill:rgb(0,0,0);font-family:URWPalladioL-Ital;font-size:9.96px;stroke:none;">p</text>
   <text y="444.489" x="350.024" svgx:width="0.5" style="fill:rgb(0,0,0);font-family:CMSY10;font-size:7.89px;stroke:none;">∗</text>
   <text y="448.105" x="357.453" svgx:width="0.78" style="fill:rgb(0,0,0);font-family:CMR10;font-size:10.38px;stroke:none;">=</text>
   <text y="448.105" x="368.415,373.356,378.298,380.769,385.71,390.651,393.141,397.273,402.214,407.156,409.627,414.568,419.507,421.997,424.468,429.864,433.84799999999996,436.254,441.195,446.137,448.608,453.549,458.529,460.979" svgx:width="0.5,0.5,0.25,0.5,0.5,0.25,0.55,0.5,0.5,0.25,0.5,0.5,0.25,0.55,0.55,0.4,0.55,0.5,0.5,0.25,0.5,0.5,0.55,0.33" style="fill:rgb(0,0,0);font-family:URWPalladioL-Roma;font-size:9.96px;stroke:none;">20.79, 16.67, or 11.67 [</text>
   <text y="448.105" x="464.27,469.251" svgx:width="0.5,0.5" style="fill:rgb(8,117,183);font-family:URWPalladioL-Roma;font-size:9.96px;stroke:none;">96</text>
   <text y="448.105" x="474.233,477.51980000000003,480.014,485.411,491.162,495.9428,498.377,504.415,509.811,514.545" svgx:width="0.33,0.55,0.55,0.58,0.48,0.55,0.61,0.55,0.48,0.42" style="fill:rgb(0,0,0);font-family:URWPalladioL-Roma;font-size:9.96px;stroke:none;">] one does</text>
   <text y="461.614" x="76.535,82.449,87.998,91.2848,93.83,99.379,104.998,109.307,114.175,118.188,123.93,128.7108,131.318,136.398,142.313,147.89059999999998,150.493,154.802,157.759,163.409,169.323,172.28,178.428,182.94,188.021,193.935,197.2218,199.768,204.635,207.836,211.22,216.088,220.6,223.8868,226.432,229.39,235.1668,237.824,242.336,247.884,253.798,257.111,261.125,266.206,270.515,273.8018,276.348,279.66,285.13800000000003,287.739,296.214,302.128,307.209,310.49580000000003,313.042,321.517,326.598,330.7812,333.427,337.735,342.603,347.47,353.2468,355.905,358.862,364.6388,367.296,370.609,376.523,381.3038,383.921,388.433,393.514,397.822,402.6028,405.21,410.758" svgx:width="0.58,0.55,0.33,0.55,0.55,0.55,0.42,0.48,0.4,0.56,0.48,0.55,0.5,0.58,0.56,0.55,0.42,0.29,0.56,0.58,0.29,0.61,0.44,0.5,0.58,0.33,0.55,0.48,0.33,0.33,0.48,0.44,0.33,0.55,0.29,0.58,0.55,0.44,0.55,0.58,0.33,0.4,0.5,0.42,0.33,0.55,0.33,0.55,0.55,0.83,0.58,0.5,0.33,0.55,0.83,0.5,0.42,0.55,0.42,0.48,0.48,0.58,0.55,0.29,0.58,0.55,0.33,0.58,0.48,0.55,0.44,0.5,0.42,0.48,0.55,0.55,0.33" style="fill:rgb(0,0,0);font-family:URWPalladioL-Roma;font-size:9.96px;stroke:none;">not observe any signiﬁcant effect in contrast to what was seen in the case of</text>
   <text y="461.614" x="417.337" svgx:width="0.5" style="fill:rgb(0,0,0);font-family:URWPalladioL-Ital;font-size:9.96px;stroke:none;">p</text>
   <text y="457.998" x="422.537" svgx:width="0.5" style="fill:rgb(0,0,0);font-family:CMSY10;font-size:7.89px;stroke:none;">∗</text>
   <text y="461.614" x="430.025" svgx:width="0.78" style="fill:rgb(0,0,0);font-family:CMR10;font-size:10.38px;stroke:none;">=</text>
   <text y="461.614" x="441.046,446.127,451.208,456.288,458.778,462.009,465.434,468.72080000000005,471.277,475.585,480.453,485.32,494.293,498.4762,501.122,504.435,510.349,515.43" svgx:width="0.5,0.5,0.5,0.25,0.55,0.34,0.33,0.55,0.42,0.48,0.48,0.88,0.42,0.55,0.33,0.58,0.5,0.33" style="fill:rgb(0,0,0);font-family:URWPalladioL-Roma;font-size:9.96px;stroke:none;">100. It seems that</text>
   <text y="475.124" x="76.535,79.838,85.735,90.5158,93.06,99.251,102.199,111.146,115.999,121.896,126.192,129.14,134.672,140.569,144.7522,147.347,152.879,156.1658,158.726,162.029,167.925,172.7058,175.251,178.199,184.096,188.595,191.543,197.653,201.948,204.897,210.429,216.2058,218.808,224.897,229.963,233.965,237.268,240.217,244.715,247.664,252.517,256.7002,259.285,264.351,268.171,272.9518,275.507,278.81,284.342,289.82,292.346,296.642,305.588,310.654,313.603,316.551,319.041,322.164,330.594,336.126,344.576,349.429,355.154,360.007,363.28,365.77,368.285,371.659,377.768,381.771,385.074,390.97,395.824,399.808,402.308,405.256,411.153,415.652,419.472,424.325,429.391,433.687,438.4678,441.012,446.544" svgx:width="0.33,0.58,0.48,0.55,0.61,0.29,0.88,0.48,0.58,0.42,0.29,0.55,0.58,0.42,0.55,0.55,0.33,0.55,0.33,0.58,0.48,0.55,0.29,0.58,0.44,0.29,0.6,0.42,0.29,0.55,0.58,0.55,0.6,0.5,0.4,0.33,0.29,0.44,0.29,0.48,0.42,0.55,0.5,0.4,0.48,0.55,0.33,0.55,0.55,0.55,0.42,0.88,0.5,0.29,0.29,0.25,0.55,0.83,0.55,0.83,0.48,0.56,0.48,0.4,0.25,0.55,0.33,0.6,0.4,0.33,0.58,0.48,0.4,0.55,0.29,0.58,0.44,0.4,0.48,0.5,0.42,0.48,0.55,0.55,0.33" style="fill:rgb(0,0,0);font-family:URWPalladioL-Roma;font-size:9.96px;stroke:none;">the dimensions of the inclusion particles are too small. However, further increase of</text>
   <text y="475.124" x="452.521" svgx:width="0.56" style="fill:rgb(0,0,0);font-family:PazoMath-Italic;font-size:9.96px;stroke:none;">σ</text>
   <text y="471.507" code="48" x="458.399" svgx:width="0.28" style="fill:rgb(0,0,0);font-family:CMSY10;font-size:7.89px;stroke:none;">?</text>
   <text y="475.124" x="461.289" svgx:width="0.61" style="fill:rgb(0,0,0);font-family:URWPalladioL-Roma;font-size:9.96px;stroke:none;">/</text>
   <text y="475.124" x="467.576" svgx:width="0.56" style="fill:rgb(0,0,0);font-family:PazoMath-Italic;font-size:9.96px;stroke:none;">σ</text>
   <text y="475.124" x="475.835,479.209,484.741,488.561,493.059,497.913,502.0962,504.691,507.994,513.891" svgx:width="0.33,0.55,0.4,0.44,0.48,0.42,0.55,0.33,0.58,0.48" style="fill:rgb(0,0,0);font-family:URWPalladioL-Roma;font-size:9.96px;stroke:none;">forces the</text>
   <text y="488.633" x="76.535,80.759,86.298,90.522,93.77,98.542,109.83,114.811,118.0978,120.55,123.798,129.596,134.368,138.592,143.3728,145.855,151.842,155.598,160.37,164.594,168.819,174.826,178.582,183.354,187.5372,190.069,193.317,198.79500000000002,201.247,207.254,213.052,219.14,223.912,227.668,233.207,238.685,241.137,247.125,252.923,257.904,262.128,266.9088,269.391,272.639,276.574,281.555,287.354,291.578,294.477,297.725,300.624,306.063,311.83979999999997,314.352,319.333,325.132,331.2076,333.71,336.957,342.435,344.888,353.685,358.457,361.356,364.604" svgx:width="0.42,0.56,0.42,0.33,0.48,0.88,0.5,0.33,0.55,0.33,0.58,0.48,0.42,0.48,0.55,0.6,0.4,0.48,0.42,0.42,0.6,0.4,0.48,0.42,0.55,0.33,0.55,0.55,0.6,0.58,0.61,0.48,0.4,0.56,0.55,0.55,0.6,0.58,0.5,0.42,0.48,0.55,0.33,0.4,0.5,0.58,0.42,0.29,0.33,0.29,0.55,0.58,0.55,0.5,0.58,0.61,0.55,0.33,0.55,0.55,0.88,0.48,0.29,0.33,0.25" style="fill:rgb(0,0,0);font-family:URWPalladioL-Roma;font-size:9.96px;stroke:none;">systemat these pressures to undergo phase transition and to melt.</text>
   <text y="502.143" x="97.795,103.981,109.855,112.792,116.9752,119.564,123.843,127.133,133.218,139.385,144.96259999999998,147.489,150.425,156.299,162.465,165.402,169.883,174.929,178.219,183.053,187.2362,189.815,193.105,198.978,204.025,207.3118,209.807,213.097,218.971,223.7518,226.298,231.132,234.311,237.672,242.506,246.987,250.277,254.4602,257.048,262.559,265.84580000000005,268.412,271.702,277.576,282.3568,284.903,289.949,296.034,301.242,306.076,309.366,312.303,316.784,319.72,323.011,328.58860000000004,331.104,335.939,341.812,347.686,352.732,358.605,363.086,367.92,376.832,381.666,387.539,390.8258,393.322,396.683,402.193,406.17699999999996,408.672,411.962,417.836,422.6168,425.163,429.644,435.154,441.028,445.307,448.244,454.41,459.244,463.049,467.883,473.9586,476.542,482.153,486.987,492.497,501.409,506.243,509.533,513.519" svgx:width="0.61,0.58,0.29,0.42,0.55,0.42,0.33,0.6,0.61,0.56,0.55,0.29,0.58,0.61,0.29,0.44,0.5,0.33,0.48,0.42,0.55,0.33,0.58,0.5,0.33,0.55,0.33,0.58,0.48,0.55,0.48,0.33,0.33,0.48,0.44,0.33,0.42,0.55,0.55,0.33,0.55,0.33,0.58,0.48,0.55,0.5,0.6,0.52,0.48,0.33,0.29,0.44,0.29,0.33,0.56,0.55,0.48,0.58,0.58,0.5,0.58,0.44,0.48,0.88,0.48,0.58,0.33,0.55,0.33,0.55,0.4,0.55,0.33,0.58,0.48,0.55,0.44,0.55,0.58,0.42,0.29,0.61,0.48,0.4,0.48,0.61,0.55,0.56,0.48,0.55,0.88,0.48,0.33,0.4,0.56" style="fill:rgb(0,0,0);font-family:URWPalladioL-Roma;font-size:9.96px;stroke:none;">This study indicates that the effects of the auxeticity enhancement for the considered geometry</text>
   <text y="515.652" x="76.535,82.056,85.3428,87.901,91.197,97.083,101.8638,104.414,108.701,114.324,118.611,121.908,126.751,135.5158,138.158,141.1,145.2832,147.875,153.953,157.765,163.286,169.171,174.693,180.79,186.675,191.165,196.009,202.0846,204.665,213.098,218.983,223.827,229.6038,232.2,235.496,241.381,246.1618,248.703,252.515,257.359,260.301,265.357,268.654,271.596,277.31,282.0908,284.641,288.928,291.871,296.927,301.7078,304.248,309.769,313.05580000000003,315.614,318.91,324.796,329.5768,332.127,335.069,340.955,345.444,348.387,354.485,358.772,361.715,367.236,373.01279999999997,375.599,380.655,386.54,392.61560000000003,395.196,404.125,409.181,412.477,416.471,419.414,424.59319999999997,427.119,433.197,438.253,442.247,445.544,448.486,452.976,455.918,460.762,464.9452,467.527,472.371,477.589,482.078,486.922,491.766,497.944,502.1272,504.719,508.016,513.901" svgx:width="0.55,0.33,0.55,0.33,0.58,0.48,0.55,0.42,0.56,0.42,0.33,0.48,0.88,0.55,0.29,0.42,0.55,0.6,0.4,0.55,0.58,0.55,0.6,0.58,0.44,0.48,0.61,0.55,0.83,0.58,0.48,0.58,0.55,0.33,0.58,0.48,0.55,0.4,0.48,0.29,0.5,0.33,0.29,0.56,0.48,0.55,0.42,0.29,0.5,0.48,0.55,0.55,0.33,0.55,0.33,0.58,0.48,0.55,0.29,0.58,0.44,0.29,0.6,0.42,0.29,0.55,0.58,0.55,0.5,0.58,0.61,0.55,0.88,0.5,0.33,0.4,0.29,0.52,0.55,0.6,0.5,0.4,0.33,0.29,0.44,0.29,0.48,0.42,0.55,0.48,0.52,0.44,0.48,0.48,0.61,0.42,0.55,0.33,0.58,0.48" style="fill:rgb(0,0,0);font-family:URWPalladioL-Roma;font-size:9.96px;stroke:none;">of the system is pronounced when the relative size of the inclusion and matrix particles exceeds the</text>
   <text y="529.161" x="76.535,80.525,85.576,88.87,91.809,97.28699999999999,99.82,105.336,108.6228,111.195,114.489,120.368,125.1488,127.702,132.753,138.461,143.3,147.29,152.341,157.958,162.7388,165.292,171.464,174.404,178.687,181.98,187.032,192.911,197.396,202.1768,204.73,210.317,215.156,218.449,226.874,231.713,236.552,242.3288,244.927,248.22,254.099,258.8798,261.433,265.919,270.758,276.637,279.93,284.769,288.759,292.9422,295.538,301.054,304.3408,306.913,312.984,318.035,322.026,325.319,328.259,332.744,335.684,340.522,344.806,347.59479999999996,350.109,356.181,361.696,365.98,368.919,372.213,375.152,380.668,386.548,390.7312,393.326,399.418,405.297,411.469,416.308,420.292,422.794,428.411,431.35,437.058,441.897,447.67379999999997,450.271,456.343,460.151,464.99,469.273,473.557,479.648,483.467,488.2478,490.801,495.852,501.731,507.8066,510.399,515.45" svgx:width="0.4,0.5,0.33,0.29,0.55,0.55,0.55,0.33,0.55,0.33,0.58,0.48,0.55,0.5,0.56,0.48,0.4,0.5,0.56,0.48,0.55,0.61,0.29,0.42,0.33,0.5,0.58,0.44,0.48,0.55,0.55,0.48,0.33,0.83,0.48,0.48,0.58,0.55,0.33,0.58,0.48,0.55,0.44,0.48,0.58,0.33,0.48,0.4,0.42,0.55,0.55,0.33,0.55,0.6,0.5,0.4,0.33,0.29,0.44,0.29,0.48,0.42,0.28,0.55,0.6,0.55,0.42,0.29,0.33,0.29,0.55,0.58,0.42,0.55,0.6,0.58,0.61,0.48,0.4,0.55,0.56,0.29,0.56,0.48,0.58,0.55,0.6,0.4,0.48,0.42,0.42,0.6,0.4,0.48,0.55,0.5,0.58,0.61,0.55,0.5,0.33" style="fill:rgb(0,0,0);font-family:URWPalladioL-Roma;font-size:9.96px;stroke:none;">ratio of the average distance between the centers of particles’ positions under given pressure and at</text>
   <text y="542.671" x="76.535,80.958,83.858,89.297,93.521,98.3018,100.784,106.771,111.753,116.176,121.715,124.615,130.413,135.952" svgx:width="0.44,0.29,0.55,0.42,0.48,0.55,0.6,0.5,0.44,0.56,0.29,0.58,0.56,0.25" style="fill:rgb(0,0,0);font-family:URWPalladioL-Roma;font-size:9.96px;stroke:none;">close packing.</text>
   <text y="556.18" x="97.795,103.78,109.462,114.2428,116.228,120.905,123.746,128.628,132.767,135.95,138.791,143.1734,145.216,151.083,154.764,160.095,165.963,170.639,174.496,177.679,180.52,185.197,189.3802,191.426,197.391,202.068,205.25,209.927,213.784,222.405,225.246,230.928,235.605,241.6806,243.659,248.541,253.94,259.271,264.787,269.5678,271.553,274.805,280.135,284.11899999999997,286.081,289.264,294.946,299.7268,301.712,309.835,315.01419999999996,317.051,325.672,331.002,336.968,341.644,344.5324,346.575,350.715,356.143,360.283,363.465,368.142,378.862,383.744" svgx:width="0.61,0.58,0.48,0.55,0.48,0.29,0.5,0.42,0.33,0.29,0.44,0.55,0.6,0.4,0.55,0.6,0.48,0.4,0.33,0.29,0.48,0.42,0.55,0.61,0.48,0.33,0.48,0.4,0.88,0.29,0.58,0.48,0.61,0.55,0.5,0.55,0.55,0.56,0.48,0.55,0.33,0.55,0.4,0.55,0.33,0.58,0.48,0.55,0.83,0.52,0.55,0.88,0.55,0.61,0.48,0.29,0.55,0.42,0.56,0.42,0.33,0.48,0.88,0.5,0.33" style="fill:rgb(0,0,0);font-family:URWPalladioL-Roma;font-size:9.96px;stroke:none;">The elastic properties determined above for the HS model systemat</text>
   <text y="556.18" x="389.686" svgx:width="0.5" style="fill:rgb(0,0,0);font-family:URWPalladioL-Ital;font-size:9.96px;stroke:none;">p</text>
   <text y="552.564" x="394.886" svgx:width="0.5" style="fill:rgb(0,0,0);font-family:CMSY10;font-size:7.89px;stroke:none;">∗</text>
   <text y="556.18" x="402.316" svgx:width="0.78" style="fill:rgb(0,0,0);font-family:CMR10;font-size:10.38px;stroke:none;">=</text>
   <text y="556.18" x="413.277,418.159,423.04,428.02000000000004,430.013,435.695,440.577,446.093,450.8738,452.859,458.258,462.935,467.612,473.3888,475.383,479.718,485.049,493.67,499.538,504.419,508.1,512.777" svgx:width="0.5,0.5,0.5,0.55,0.58,0.5,0.56,0.48,0.55,0.55,0.48,0.48,0.58,0.55,0.44,0.55,0.88,0.6,0.5,0.4,0.48,0.61" style="fill:rgb(0,0,0);font-family:URWPalladioL-Roma;font-size:9.96px;stroke:none;">100 have been compared</text>
   <text y="569.69" x="76.117,84.26,87.101,90.284,96.0608,98.172,101.355,107.038,111.8188,113.921,117.601,122.278,126.418,132.305,135.146,138.329,142.5122,144.675,150.006,155.405,158.588,163.47,166.311,171.993,176.67,182.7456,184.851,188.103,193.433,197.417,199.496,205.11,210.998,216.426,221.308,229.45,234.42999999999998,236.539,245.16,250.49,256.456,261.132,264.0204,266.18,271.579,277.1566,279.224,285.121,287.962,293.391,296.232,301.562,309.705,313.845,319.273,322.1614,324.321,328.997,332.28380000000004,334.387,339.268,342.11,344.6,346.757" svgx:width="0.83,0.29,0.33,0.58,0.55,0.33,0.58,0.48,0.55,0.4,0.48,0.42,0.6,0.29,0.33,0.42,0.55,0.55,0.55,0.33,0.5,0.29,0.58,0.48,0.61,0.55,0.33,0.55,0.4,0.55,0.67,0.6,0.56,0.5,0.83,0.5,0.55,0.88,0.55,0.61,0.48,0.29,0.55,0.55,0.56,0.55,0.6,0.29,0.56,0.29,0.55,0.83,0.42,0.56,0.29,0.55,0.48,0.33,0.55,0.5,0.29,0.25,0.55,0.33" style="fill:rgb(0,0,0);font-family:URWPalladioL-Roma;font-size:9.96px;stroke:none;">with the results obtained for Yukawa model by Pigłowski et al. [</text>
   <text y="569.69" x="350.013,354.994" svgx:width="0.5,0.5" style="fill:rgb(8,117,183);font-family:URWPalladioL-Roma;font-size:9.96px;stroke:none;">89</text>
   <text y="569.69" x="359.976,363.227,365.717,368.665,374.65,380.333,385.1138,387.216,393.181,396.022,400.162,404.497,410.384,414.524,418.663,421.505,426.835,432.61179999999996,434.724,440.055,443.34180000000003,445.513,450.189,453.03,457.912,462.052,465.235,468.076,472.45840000000004,474.627,480.495,484.166,489.496,495.364,500.041,503.897,507.08,509.921,514.598" svgx:width="0.33,0.25,0.55,0.61,0.58,0.48,0.55,0.61,0.29,0.42,0.44,0.6,0.42,0.42,0.29,0.55,0.58,0.55,0.55,0.33,0.55,0.48,0.29,0.5,0.42,0.33,0.29,0.44,0.55,0.6,0.4,0.55,0.6,0.48,0.4,0.33,0.29,0.48,0.42" style="fill:rgb(0,0,0);font-family:URWPalladioL-Roma;font-size:9.96px;stroke:none;">]. The discussion of elastic properties</text>
   <text y="583.199" x="76.535,79.492,85.2688,88.648,91.961,97.875,102.956,106.2428,109.51,117.985,123.534,127.548,133.1256,136.439,140.951,146.499,152.414,156.925,161.793,165.807,171.721,176.589,182.6646,186.049,189.352,195.266,200.0468,203.385,206.769,209.31,213.822,216.362,220.874,223.364,228.76,233.271,237.285,242.935,247.244,250.557,255.638,258.5264,261.836,267.385,270.6718,274.01,280.118,285.198,289.212,292.525,295.482,299.994,302.951,307.819,312.0022,315.369,318.326,324.24,327.553,332.421,336.435,341.515,346.027,349.34,352.297,358.211,363.78860000000003,367.103,375.578,378.535,381.848,387.6248,391.004,396.918,401.999,405.84,412.049,415.433,419.945,425.493,429.324,434.1048,437.433,441.264,446.132,452.239,458.367,461.324,465.632,468.589,474.331,479.1118,482.44,488.324,494.451,500.101,505.182,513.657" svgx:width="0.29,0.58,0.55,0.33,0.58,0.5,0.33,0.55,0.83,0.55,0.4,0.56,0.55,0.44,0.55,0.58,0.44,0.48,0.4,0.58,0.48,0.61,0.55,0.33,0.58,0.48,0.55,0.33,0.25,0.44,0.25,0.44,0.25,0.55,0.44,0.4,0.56,0.42,0.33,0.5,0.29,0.55,0.55,0.33,0.55,0.6,0.5,0.4,0.33,0.29,0.44,0.29,0.48,0.42,0.55,0.29,0.58,0.33,0.48,0.4,0.5,0.44,0.33,0.29,0.58,0.56,0.55,0.83,0.29,0.33,0.58,0.55,0.58,0.5,0.4,0.61,0.33,0.44,0.55,0.4,0.48,0.55,0.4,0.48,0.6,0.6,0.29,0.42,0.29,0.56,0.48,0.55,0.67,0.6,0.56,0.5,0.83,0.5" style="fill:rgb(0,0,0);font-family:URWPalladioL-Roma;font-size:9.96px;stroke:none;">in that work concerned the f.c.c. crystal of particles interacting with hard-core repulsive Yukawa</text>
   <text y="596.708" x="76.236,82.259,87.732,90.999,95.8,101.633,104.9,107.817,112.828,115.744,118.234,120.735,123.652,129.4288,131.97,140.329,146.162,149.079,153.529,159.3058,161.837,167.309,173.142,177.9228,180.429,185.901,189.1878,191.724,194.991,200.824,205.6048,208.11,212.56,216.519,222.092,226.341,229.608,234.62,237.536,240.453,243.369,249.202,253.9828,256.478,262.271,268.315,273.887,278.898,287.257,292.237,294.754,297.67,302.682,308.254,313.055,317.014,321.263,323.753,326.254,331.726,335.685,338.602,343.402,349.235,352.503,357.303,363.3786,365.903,371.375,375.334,378.601,384.434,389.906,395.479,400.951,406.784,411.795,414.712,417.628,423.2056,425.686,428.953,434.431,436.911,440.178,446.012" svgx:width="0.6,0.55,0.33,0.48,0.58,0.33,0.29,0.5,0.29,0.25,0.55,0.29,0.58,0.55,0.83,0.58,0.29,0.44,0.58,0.55,0.55,0.58,0.48,0.55,0.55,0.33,0.55,0.33,0.58,0.48,0.55,0.44,0.4,0.56,0.42,0.33,0.5,0.29,0.29,0.29,0.58,0.48,0.55,0.67,0.6,0.56,0.5,0.83,0.5,0.55,0.29,0.5,0.56,0.48,0.4,0.42,0.25,0.55,0.55,0.4,0.29,0.48,0.58,0.33,0.48,0.61,0.55,0.55,0.4,0.33,0.58,0.55,0.56,0.55,0.58,0.5,0.29,0.29,0.56,0.55,0.33,0.55,0.55,0.33,0.58,0.48" style="fill:rgb(0,0,0);font-family:URWPalladioL-Roma;font-size:9.96px;stroke:none;">potential, in which one of the crystalline Yukawa layers, oriented orthogonally to the</text>
   <text y="596.708" x="453.418" svgx:width="0.28" style="fill:rgb(0,0,0);font-family:CMR10;font-size:10.38px;stroke:none;">[</text>
   <text y="596.708" x="456.422,461.433,466.444" svgx:width="0.5,0.5,0.5" style="fill:rgb(0,0,0);font-family:URWPalladioL-Roma;font-size:9.96px;stroke:none;">010</text>
   <text y="596.708" x="471.58" svgx:width="0.28" style="fill:rgb(0,0,0);font-family:CMR10;font-size:10.38px;stroke:none;">]</text>
   <text y="596.708" x="474.584,477.921,484.045,486.962,490.74,495.541,499.991,503.258,506.175,511.647,517.48" svgx:width="0.33,0.61,0.29,0.4,0.48,0.44,0.33,0.29,0.55,0.58,0.25" style="fill:rgb(0,0,0);font-family:URWPalladioL-Roma;font-size:9.96px;stroke:none;">-direction,</text>
   <text y="610.218" x="76.535,82.38,87.401,91.5842,94.149,99.703,104.513,109.323,115.09979999999999,117.668,121.454,126.264,132.3,135.222,140.243,144.702,149.512,155.5876,158.139,166.514,169.436,172.71,178.48680000000002,181.055,186.035,188.567,191.489,196.51,202.094,206.904,210.888,213.371,218.854,222.1408,224.689,233.044,238.316,242.574,245.06400000000002,248.188,254.344,260.189,264.9698,267.489,273.294,279.349,284.933,289.954,298.329,303.309,305.841,311.876,316.897,320.864,324.138,327.06,331.519,334.441,339.252,343.4352,346.0,348.922,354.767,358.041,362.851,366.818,371.839,376.298,379.571,384.382,390.4576,393.018,401.393,404.316,407.589,413.3658,415.924,418.847,424.691,429.15,432.072,438.128,442.386,445.308,450.791,456.5678,459.136,465.172,470.193,474.16,477.434,480.356,484.815,487.737,492.547,496.7302,499.296,504.779,510.623,513.546" svgx:width="0.58,0.5,0.42,0.55,0.55,0.48,0.48,0.58,0.55,0.4,0.48,0.6,0.29,0.5,0.44,0.48,0.61,0.55,0.83,0.29,0.33,0.58,0.55,0.5,0.55,0.29,0.5,0.56,0.48,0.4,0.55,0.55,0.33,0.55,0.83,0.52,0.42,0.25,0.55,0.61,0.58,0.48,0.55,0.67,0.6,0.56,0.5,0.83,0.5,0.55,0.6,0.5,0.4,0.33,0.29,0.44,0.29,0.48,0.42,0.55,0.29,0.58,0.33,0.48,0.4,0.5,0.44,0.33,0.48,0.61,0.55,0.83,0.29,0.33,0.58,0.55,0.29,0.58,0.44,0.29,0.6,0.42,0.29,0.55,0.58,0.55,0.6,0.5,0.4,0.33,0.29,0.44,0.29,0.48,0.42,0.55,0.55,0.58,0.29,0.56" style="fill:rgb(0,0,0);font-family:URWPalladioL-Roma;font-size:9.96px;stroke:none;">has been replaced with a layer of HSs. The Yukawa particles interacted with inclusion particles only</text>
   <text y="623.727" x="76.535,79.718,85.4,89.081,94.412,100.299,105.727,111.5038,113.88,117.063,122.745,127.422,130.263,134.247,136.599,142.281,147.163,150.834,156.9096,159.279,163.614,168.945,172.626,177.303,181.442,183.93200000000002,186.958,192.943,198.626,203.4068,205.782,210.459,213.3,218.182,222.321,225.504,228.345,232.7274,235.15,241.018,244.699,250.03,255.897,260.574,264.431,267.614,270.455,275.131,279.31419999999997,281.741,287.072,290.35880000000003,292.803,296.943,302.83,307.165,312.9418,315.327,320.307,322.679,326.818,332.247,336.387,339.569,344.246,355.347,361.029,365.911,371.427,376.2078,378.574,383.973,388.65,393.326,399.1028,401.489,405.628,408.811,414.698,420.664,423.505,428.181,434.2566,436.617,441.499,445.6822,448.118,453.098,455.47,458.721,464.609,470.291,474.626,477.809,480.65,485.98,491.7568,494.143,499.473,502.75980000000004,505.195,508.378,514.06" svgx:width="0.33,0.58,0.4,0.55,0.6,0.56,0.58,0.55,0.33,0.58,0.48,0.29,0.4,0.55,0.58,0.5,0.4,0.61,0.55,0.44,0.55,0.4,0.48,0.42,0.25,0.55,0.61,0.58,0.48,0.55,0.48,0.29,0.5,0.42,0.33,0.29,0.44,0.55,0.6,0.4,0.55,0.6,0.48,0.4,0.33,0.29,0.48,0.42,0.55,0.55,0.33,0.55,0.42,0.6,0.44,0.58,0.55,0.5,0.55,0.42,0.56,0.42,0.33,0.48,0.88,0.58,0.5,0.56,0.48,0.55,0.55,0.48,0.48,0.58,0.55,0.42,0.33,0.6,0.61,0.29,0.48,0.61,0.55,0.5,0.42,0.55,0.5,0.55,0.33,0.6,0.58,0.44,0.33,0.29,0.55,0.58,0.55,0.55,0.33,0.55,0.33,0.58,0.48" style="fill:rgb(0,0,0);font-family:URWPalladioL-Roma;font-size:9.96px;stroke:none;">through their hard cores. The elastic properties of such a systemhave been studied as a function of the</text>
   <text y="637.237" x="76.535,81.042,86.585,92.494,97.001,101.864,107.772,111.082,115.092,120.168,123.477,126.432,131.974,137.7508,140.37,146.471,151.547,155.557,160.633,169.597,174.46,177.77,182.632" svgx:width="0.44,0.55,0.58,0.44,0.48,0.58,0.33,0.4,0.5,0.33,0.29,0.55,0.58,0.55,0.6,0.5,0.4,0.5,0.88,0.48,0.33,0.48,0.4" style="fill:rgb(0,0,0);font-family:URWPalladioL-Roma;font-size:9.96px;stroke:none;">concentration parameter</text>
   <text y="637.237" x="189.253" svgx:width="0.41" style="fill:rgb(0,0,0);font-family:URWPalladioL-Ital;font-size:9.96px;stroke:none;">c</text>
   <text y="637.237" x="195.92,199.301,202.61,208.518,213.2988,215.868,219.878,224.954,228.264,231.218,236.696,239.248,244.791,248.0778,250.659,256.567,261.643,265.471,271.5466,274.161,280.262,285.338,289.348,292.657,295.612,300.119,303.073,307.936,312.1192,314.728,318.037,323.515,326.067,331.143,334.097,336.98539999999997,339.539,342.848,348.757,353.5378,356.107,362.208,367.284,371.294,374.603,377.558,382.065,385.019,389.882,394.0652,396.674,399.628,405.40479999999997,408.023,411.333,417.241,422.0218,424.591,428.896,434.54,438.845,442.154,447.017,455.981,459.362,461.85200000000003,464.986,471.209,477.117,481.8978,484.467,489.543,495.665,498.974,504.883,510.426,514.436" svgx:width="0.33,0.33,0.58,0.48,0.55,0.4,0.5,0.33,0.29,0.55,0.55,0.55,0.33,0.55,0.58,0.5,0.4,0.61,0.55,0.6,0.5,0.4,0.33,0.29,0.44,0.29,0.48,0.42,0.55,0.33,0.55,0.55,0.5,0.29,0.29,0.55,0.33,0.58,0.48,0.55,0.6,0.5,0.4,0.33,0.29,0.44,0.29,0.48,0.42,0.55,0.29,0.58,0.55,0.33,0.58,0.48,0.55,0.42,0.56,0.42,0.33,0.48,0.88,0.33,0.25,0.55,0.61,0.58,0.48,0.55,0.5,0.6,0.33,0.58,0.55,0.4,0.42" style="fill:rgb(0,0,0);font-family:URWPalladioL-Roma;font-size:9.96px;stroke:none;">(the ratio of hard particles to all the particles in the system). The authors</text>
   <text y="650.746" x="76.535,79.385,85.084,91.039,96.944,101.635,107.335,111.683,116.374,122.44959999999999,124.855,129.546,132.396,137.292,141.445,144.637,147.487,151.86939999999998,154.323,160.208,163.9,169.248,175.133,179.824,183.693,186.885,189.735,194.426,198.6092,201.076,206.491,212.0686,214.424,218.772,224.472,229.368,235.068,240.513,243.363,249.062,254.6396,257.005,260.197,265.897,270.6778,273.085,278.785,284.69,293.338,298.753,303.444,307.428,309.8,315.147,318.4338,320.906,326.547,332.452,337.897,342.794,350.961,355.94100000000003,358.345,361.195,366.092,371.537,376.228,380.096,384.2792,386.746,392.161,396.852,400.045,408.212,412.903,417.594,423.3708,425.791,430.139,435.486,441.186,445.339,450.029,454.378,460.283,463.476,466.325,471.849,476.6298,479.037,481.887,487.587,491.935,494.785,500.69,504.842,507.692,513.039" svgx:width="0.29,0.58,0.61,0.6,0.48,0.58,0.44,0.48,0.61,0.55,0.48,0.29,0.5,0.42,0.33,0.29,0.44,0.55,0.6,0.4,0.55,0.6,0.48,0.4,0.33,0.29,0.48,0.42,0.55,0.55,0.56,0.55,0.44,0.58,0.5,0.58,0.56,0.29,0.58,0.56,0.55,0.33,0.58,0.48,0.55,0.58,0.6,0.88,0.55,0.48,0.4,0.55,0.55,0.33,0.55,0.67,0.6,0.56,0.5,0.83,0.5,0.55,0.29,0.5,0.56,0.48,0.4,0.42,0.55,0.55,0.48,0.33,0.83,0.48,0.48,0.58,0.55,0.44,0.55,0.58,0.42,0.48,0.44,0.6,0.33,0.29,0.56,0.48,0.55,0.29,0.58,0.44,0.29,0.6,0.42,0.29,0.55,0.58" style="fill:rgb(0,0,0);font-family:URWPalladioL-Roma;font-size:9.96px;stroke:none;">inﬂuenced elastic properties by changing the number of Yukawa layers between consecutive inclusion</text>
   <text y="664.255" x="76.535,79.376,84.258,89.686,94.363,98.219,102.4022,104.409,107.661,112.337,115.413,118.664,123.34,127.675,130.858,133.699,139.216,143.892,146.733,152.3106,154.212,158.547,164.229,169.111,174.793,180.222,183.063,188.745,194.3226,196.224,199.407,205.089,209.8698,211.816,216.151,221.482,227.164,231.499,236.176,241.858,245.041,248.897,253.779,256.962,259.803,265.134,270.816,274.067,276.557,279.447,285.432,291.114,295.791,301.3686,303.269,307.409,313.091,318.422,326.565,331.241,337.3166,339.257,342.44,348.122,353.004,356.29080000000005,358.237,363.636,369.21360000000004,371.115,375.996,381.864,387.732,390.573,396.002,398.843,404.525,410.1026,412.004,415.187,420.869,425.6498,427.596,430.437,436.119,439.37,445.238,448.079,452.961,458.643,463.42379999999997,465.37,469.51,472.693,476.364,481.04,485.18,489.3632,491.37,494.621,497.462,503.23879999999997,505.195,508.378,514.06" svgx:width="0.29,0.5,0.56,0.48,0.4,0.42,0.55,0.33,0.48,0.33,0.33,0.48,0.44,0.33,0.29,0.56,0.48,0.29,0.56,0.55,0.44,0.58,0.5,0.58,0.56,0.29,0.58,0.56,0.55,0.33,0.58,0.48,0.55,0.44,0.55,0.58,0.44,0.48,0.58,0.33,0.4,0.5,0.33,0.29,0.55,0.58,0.33,0.25,0.55,0.61,0.58,0.48,0.56,0.55,0.42,0.58,0.55,0.83,0.48,0.61,0.55,0.33,0.58,0.5,0.33,0.55,0.55,0.56,0.55,0.5,0.6,0.6,0.29,0.56,0.29,0.58,0.56,0.55,0.33,0.58,0.48,0.55,0.29,0.58,0.33,0.6,0.29,0.5,0.58,0.48,0.55,0.42,0.33,0.4,0.48,0.42,0.42,0.55,0.33,0.29,0.58,0.55,0.33,0.58,0.48" style="fill:rgb(0,0,0);font-family:URWPalladioL-Roma;font-size:9.96px;stroke:none;">layers (effectively changing the concentration). They showed that by applying the in-plane stress (in the</text>
   <text y="677.765" x="76.535,82.665,85.584,89.366,94.172,98.626,101.897,104.816,110.294,116.07079999999999,118.621,124.098,127.3848,129.917,138.776,143.792,146.711,152.48780000000002,155.038,160.054,165.231,168.15,172.3332,174.892,180.921,185.938,189.9,194.917,197.836,200.755,205.561,208.4494,210.958,214.229,219.70700000000002,222.194,225.465,231.304,236.0848,238.587,241.507,247.346,251.8,254.719,260.769,265.023,267.942,273.42,279.1968,281.746,287.776,290.695,295.711,301.55,306.356,309.696,312.18600000000004,314.693,320.17,326.009,330.7898,333.293,337.747,342.763,348.53979999999996,351.09,356.568,362.115,366.369,371.175,375.137,380.806,385.5868,388.089,393.069,395.593,401.723,406.529,410.983,414.765,419.571,424.587,428.84,433.6208,436.134,441.612,444.89880000000005,447.43,450.701,456.54,461.3208,463.833,469.311,475.36,478.631,481.972,487.449,490.79,494.131,500.16,503.08,508.096,513.935" svgx:width="0.61,0.29,0.4,0.48,0.44,0.33,0.29,0.55,0.58,0.55,0.55,0.33,0.55,0.88,0.5,0.29,0.58,0.55,0.5,0.52,0.29,0.42,0.55,0.6,0.5,0.4,0.5,0.29,0.29,0.48,0.29,0.55,0.33,0.55,0.55,0.33,0.58,0.48,0.55,0.29,0.58,0.44,0.29,0.6,0.42,0.29,0.55,0.58,0.55,0.6,0.29,0.5,0.58,0.48,0.33,0.25,0.55,0.55,0.58,0.48,0.55,0.44,0.5,0.58,0.55,0.55,0.55,0.42,0.48,0.4,0.56,0.48,0.55,0.5,0.55,0.61,0.48,0.44,0.4,0.48,0.5,0.42,0.48,0.55,0.55,0.33,0.55,0.33,0.58,0.48,0.55,0.55,0.6,0.33,0.33,0.55,0.33,0.33,0.6,0.29,0.5,0.58,0.48" style="fill:rgb(0,0,0);font-family:URWPalladioL-Roma;font-size:9.96px;stroke:none;">direction of main axis parallel to the inclusion plane), one can observe a decrease of the out-of-plane</text>
   <text y="691.274" x="76.207,79.591,88.564,93.431,98.512,102.821,108.948,112.779,117.647,123.7226,127.321,130.278,136.0548,139.658,142.97,148.885,153.6658,157.227,163.436,166.393,170.224,175.092,179.604,182.917,185.874,191.422,197.1988,200.801,206.35,210.364,213.676,219.591,225.139,230.789,236.337,242.252,247.333,250.2214,253.755,257.068,262.546,266.081,269.394,275.308,280.0888,283.641,286.598,292.512,297.024,299.981,306.109,310.417,313.374,318.923,324.6998,328.302,334.409,337.366,342.447,348.362,353.229,356.5158,360.078,366.216,371.764,374.721,379.03,383.339,388.887,394.801,397.626,401.8092,405.4,409.414,414.495,417.808,420.765,426.243,429.778,434.859,439.371,443.883,449.431,458.404,464.512,469.592,475.507,478.464,483.331,489.4066,493.005,498.625,504.2026,507.74,512.821" svgx:width="0.33,0.88,0.48,0.5,0.42,0.6,0.4,0.48,0.61,0.55,0.29,0.58,0.55,0.33,0.58,0.48,0.55,0.61,0.29,0.4,0.48,0.44,0.33,0.29,0.55,0.58,0.55,0.55,0.4,0.33,0.58,0.55,0.56,0.55,0.58,0.5,0.29,0.55,0.33,0.55,0.55,0.33,0.58,0.48,0.55,0.29,0.58,0.44,0.29,0.6,0.42,0.29,0.55,0.58,0.55,0.6,0.29,0.5,0.58,0.48,0.33,0.55,0.6,0.55,0.29,0.42,0.42,0.55,0.58,0.28,0.42,0.55,0.4,0.5,0.33,0.29,0.55,0.55,0.5,0.44,0.44,0.55,0.88,0.6,0.5,0.58,0.29,0.48,0.61,0.55,0.55,0.56,0.55,0.5,0.58" style="fill:rgb(0,0,0);font-family:URWPalladioL-Roma;font-size:9.96px;stroke:none;">(measured in the direction orthogonal to the inclusion plane) Poisson’s ratio accompanied by an</text>
   <text y="704.784" x="76.535,79.452,85.285,89.734,93.513,98.314,103.325,107.574,112.3548,114.881,120.343,123.6298,126.186,129.453,135.286,140.0668,142.582,145.499,151.332,154.669,160.693,163.609,168.621,174.454,179.2348,181.76,187.813,193.286,196.202,200.452,204.701,210.173,216.006,218.793,222.9762,225.538,229.496,234.508,237.775,240.691,246.169,248.659,251.997,260.846,265.647,270.658,274.908,280.951,284.73,289.53,295.6056,298.16,301.076,306.8528,309.405,312.672,318.505,323.2858,325.811,331.935,334.852,338.63,343.431,347.881,351.148,354.064,359.537,365.31379999999996,367.865,373.889,378.9,382.859,387.87,390.786,393.703,398.504,401.3924,403.916,407.183,412.661,415.161,418.428,424.261,429.0418,431.557,434.474,440.307,444.757,447.673,453.717,457.966,460.883,466.355,472.1318,474.684,480.707,483.624,488.635,494.468,499.2488,501.774,506.785,512.618" svgx:width="0.29,0.58,0.44,0.4,0.48,0.5,0.42,0.48,0.55,0.55,0.33,0.55,0.33,0.58,0.48,0.55,0.29,0.58,0.33,0.6,0.29,0.5,0.58,0.48,0.55,0.6,0.55,0.29,0.42,0.42,0.55,0.58,0.28,0.42,0.55,0.4,0.5,0.33,0.29,0.55,0.55,0.33,0.88,0.48,0.5,0.42,0.6,0.4,0.48,0.61,0.55,0.29,0.58,0.55,0.33,0.58,0.48,0.55,0.61,0.29,0.4,0.48,0.44,0.33,0.29,0.55,0.58,0.55,0.6,0.5,0.4,0.5,0.29,0.29,0.48,0.29,0.55,0.33,0.55,0.55,0.33,0.58,0.48,0.55,0.29,0.58,0.44,0.29,0.6,0.42,0.29,0.55,0.58,0.55,0.6,0.29,0.5,0.58,0.48,0.55,0.5,0.58,0.61" style="fill:rgb(0,0,0);font-family:URWPalladioL-Roma;font-size:9.96px;stroke:none;">increase of the in-plane Poisson’s ratio (measured in the direction parallel to the inclusion plane and</text>
   <text y="718.293" x="76.535,82.083,86.097,89.41,95.324,100.873,106.523,112.071,117.985,123.066,125.9544,128.736,132.049,137.52700000000002,140.321,143.634,149.548,154.3288,157.129,163.338,166.295,170.126,174.993,179.505,182.818,185.775,191.323,197.09980000000002,199.961,205.509,208.79579999999999,211.606,216.687,222.794,228.902,231.859,234.816,239.683,245.7586,248.616,252.924,256.237,260.068,264.936,269.244,273.553,276.937,279.427,283.247,286.672,289.95880000000005,292.698,298.612,303.693,307.8762,310.725,316.344,321.212,326.08,331.85679999999996,334.707,339.016,344.93,350.478,358.953,364.72979999999995,367.581,370.893,376.807,381.888,385.1748,387.925,391.308,396.857,400.841,403.584,406.897,412.811,417.5918,420.392,426.306,429.263,434.913,440.827,445.695,450.003,453.2898,456.039,460.551,466.1,472.014,476.526,481.393,487.307,490.62,494.634,499.715,503.028,505.985,511.533,517.448" svgx:width="0.55,0.4,0.33,0.58,0.55,0.56,0.55,0.58,0.5,0.29,0.55,0.33,0.55,0.55,0.33,0.58,0.48,0.55,0.61,0.29,0.4,0.48,0.44,0.33,0.29,0.55,0.58,0.55,0.55,0.33,0.55,0.5,0.6,0.6,0.29,0.29,0.48,0.61,0.55,0.42,0.33,0.4,0.48,0.42,0.42,0.33,0.25,0.55,0.34,0.33,0.55,0.58,0.5,0.42,0.55,0.55,0.48,0.48,0.58,0.55,0.42,0.58,0.55,0.83,0.58,0.55,0.33,0.58,0.5,0.33,0.55,0.33,0.55,0.4,0.55,0.33,0.58,0.48,0.55,0.58,0.29,0.56,0.58,0.48,0.42,0.33,0.55,0.44,0.55,0.58,0.44,0.48,0.58,0.33,0.4,0.5,0.33,0.29,0.55,0.58,0.25" style="fill:rgb(0,0,0);font-family:URWPalladioL-Roma;font-size:9.96px;stroke:none;">orthogonal to the direction of applied stress). It has been shown that for the highest concentration,</text>
   <text y="731.802" x="76.66" svgx:width="0.41" style="fill:rgb(0,0,0);font-family:URWPalladioL-Ital;font-size:9.96px;stroke:none;">c</text>
   <text y="731.802" x="84.604" svgx:width="0.78" style="fill:rgb(0,0,0);font-family:CMR10;font-size:10.38px;stroke:none;">=</text>
   <text y="731.802" x="96.439,101.52,106.601,109.141,114.222,119.303,127.839,130.329,133.458,136.771,142.685,147.4658,150.52,156.069,162.196,165.509,168.893,174.441,177.825,181.209,187.316,190.273,195.354,201.269,206.0498,209.093,215.231,221.9042,224.986,228.817,233.685,238.766,243.278,249.192,254.059" svgx:width="0.5,0.5,0.25,0.5,0.5,0.84,0.25,0.55,0.33,0.58,0.48,0.55,0.55,0.6,0.33,0.33,0.55,0.33,0.33,0.6,0.29,0.5,0.58,0.48,0.55,0.6,0.67,0.55,0.4,0.48,0.5,0.44,0.58,0.48,0.42" style="fill:rgb(0,0,0);font-family:URWPalladioL-Roma;font-size:9.96px;stroke:none;">16.67%, the out-of-plane PR reaches</text>
   <text y="731.802" x="261.453" svgx:width="0.78" style="fill:rgb(0,0,0);font-family:CMSY10;font-size:10.38px;stroke:none;">−</text>
   <text y="731.802" x="269.648,274.729,277.269,282.35,287.33000000000004,290.393,298.868,304.782,307.739,312.251,318.02779999999996,321.133,324.079,328.2622,331.355,335.664,338.621,344.271,350.185,353.142,359.29,363.802,368.883,374.797,378.11,381.067,386.6446,389.674,392.631,398.18,406.655,411.522,415.506,418.503,421.816,427.73,432.811,438.58779999999996,441.683,444.995,450.91,455.6908,458.744,464.486,469.567,472.524,478.651" svgx:width="0.5,0.25,0.5,0.5,0.55,0.83,0.58,0.29,0.44,0.58,0.55,0.29,0.42,0.55,0.42,0.29,0.56,0.58,0.29,0.61,0.44,0.5,0.58,0.33,0.29,0.56,0.55,0.29,0.55,0.83,0.48,0.4,0.55,0.33,0.58,0.5,0.58,0.55,0.33,0.58,0.48,0.55,0.56,0.5,0.29,0.6,0.48" style="fill:rgb(0,0,0);font-family:URWPalladioL-Roma;font-size:9.96px;stroke:none;">0.57 which is signiﬁcantly lower than the value</text>
   <text y="731.802" x="486.605" svgx:width="0.78" style="fill:rgb(0,0,0);font-family:CMSY10;font-size:10.38px;stroke:none;">≈</text>
   <text y="731.802" x="494.799,500.957,506.038,508.578,513.659" svgx:width="0.61,0.5,0.25,0.5,0.5" style="fill:rgb(0,0,0);font-family:URWPalladioL-Roma;font-size:9.96px;stroke:none;">+0.43</text>
   <text y="745.312" x="76.535,82.083,87.703,91.016,96.097,99.054,104.968,109.835,115.91059999999999,118.839,122.223,127.771,131.755,134.58,139.56,142.445,148.552,154.68,158.521,163.3018,166.173,172.056,178.184,183.834,188.915,197.39,202.36999999999998,205.265,209.574,215.224,219.533,222.845,227.713,236.4778,239.48" svgx:width="0.55,0.55,0.33,0.5,0.29,0.58,0.48,0.61,0.55,0.33,0.55,0.4,0.55,0.5,0.55,0.6,0.6,0.4,0.48,0.55,0.67,0.6,0.56,0.5,0.83,0.5,0.55,0.42,0.56,0.42,0.33,0.48,0.88,0.55,0.33" style="fill:rgb(0,0,0);font-family:URWPalladioL-Roma;font-size:9.96px;stroke:none;">obtained for a pure Yukawa system (</text>
   <text y="745.312" x="242.986" svgx:width="0.41" style="fill:rgb(0,0,0);font-family:URWPalladioL-Ital;font-size:9.96px;stroke:none;">c</text>
   <text y="745.312" x="250.615" svgx:width="0.78" style="fill:rgb(0,0,0);font-family:CMR10;font-size:10.38px;stroke:none;">=</text>
   <text y="745.312" x="262.135,267.216,275.752,279.136,281.62600000000003,285.67,289.095,294.8718,297.803,301.116,307.03,311.8108,314.682,323.137,328.3162,331.266,335.575,341.225,345.533,348.846,353.714,362.687,365.177,368.093,371.05,376.8268,379.758,384.738,387.634,392.146,398.273,402.287,406.118,410.986,416.9,420.1868,423.007,427.316,430.629,436.756,442.965,447.508,449.998,452.914,461.389,466.1698,469.051,473.359,478.227,481.184,486.051,490.563,493.876,498.744,504.81960000000004,507.747,512.828" svgx:width="0.5,0.84,0.33,0.25,0.55,0.34,0.58,0.55,0.33,0.58,0.48,0.55,0.83,0.52,0.55,0.42,0.56,0.42,0.33,0.48,0.88,0.25,0.55,0.29,0.58,0.55,0.5,0.55,0.44,0.6,0.4,0.4,0.48,0.58,0.33,0.55,0.42,0.33,0.6,0.61,0.56,0.25,0.55,0.83,0.48,0.55,0.42,0.48,0.29,0.48,0.44,0.33,0.48,0.61,0.55,0.5,0.58" style="fill:rgb(0,0,0);font-family:URWPalladioL-Roma;font-size:9.96px;stroke:none;">0%). In the HS system, in a current study, we selected an</text>
   <text y="758.821" x="76.535,81.417,86.933,91.61,95.466,100.348,105.776" svgx:width="0.5,0.56,0.48,0.4,0.5,0.56,0.48" style="fill:rgb(0,0,0);font-family:URWPalladioL-Roma;font-size:9.96px;stroke:none;">average</text>
   <text y="758.821" x="113.063" svgx:width="0.41" style="fill:rgb(0,0,0);font-family:URWPalladioL-Ital;font-size:9.96px;stroke:none;">c</text>
   <text y="758.821" x="120.134" svgx:width="0.78" style="fill:rgb(0,0,0);font-family:CMR10;font-size:10.38px;stroke:none;">=</text>
   <text y="758.821" x="131.095,135.977,138.418,143.299,148.181,158.868,167.011,172.693,175.534,179.869,185.6458,188.041,193.469,196.31,200.987,203.828,209.9036,212.274,215.456,221.139,225.9198,228.305,236.926,239.767,245.449,248.291,256.912,262.799,273.9,279.797,285.128,287.969,292.108,296.248,301.579,307.261,309.975,314.1582,316.605,320.461,325.343,328.526,331.367" svgx:width="0.5,0.25,0.5,0.5,0.84,0.83,0.58,0.29,0.44,0.58,0.55,0.56,0.29,0.48,0.29,0.61,0.55,0.33,0.58,0.48,0.55,0.88,0.29,0.58,0.29,0.88,0.6,0.88,0.6,0.55,0.29,0.42,0.42,0.55,0.58,0.28,0.42,0.55,0.4,0.5,0.33,0.29,0.55" style="fill:rgb(0,0,0);font-family:URWPalladioL-Roma;font-size:9.96px;stroke:none;">8.33%which yield the minimumPoisson’s ratio</text>
   <text y="758.821" x="339.304" svgx:width="0.5" style="fill:rgb(0,0,0);font-family:PazoMath-Italic;font-size:9.96px;stroke:none;">ν</text>
   <text y="758.821" x="347.302,355.39840000000004,358.387" svgx:width="0.78,0.55,0.78" style="fill:rgb(0,0,0);font-family:CMSY10;font-size:10.38px;stroke:none;">≈ −</text>
   <text y="758.821" x="366.582,371.464,373.905,378.786,383.766,386.153,388.994,394.7708,397.166,402.78,408.667,414.096,418.977,427.12,432.1,434.482,438.621,444.05,448.189,451.372,456.049,464.67,467.16,470.196,479.051,483.8318,486.208,494.35,499.232,504.914,508.097,512.774" svgx:width="0.5,0.25,0.5,0.5,0.55,0.29,0.58,0.55,0.67,0.6,0.56,0.5,0.83,0.5,0.55,0.42,0.56,0.42,0.33,0.48,0.88,0.25,0.55,1.0,0.48,0.55,0.83,0.5,0.58,0.33,0.48,0.61" style="fill:rgb(0,0,0);font-family:URWPalladioL-Roma;font-size:9.96px;stroke:none;">0.27 in Yukawa system. We wanted</text>
  </g>
 </g>
</svg>
