<?xml version="1.0" encoding="UTF-8"?>
<svg height="770.163" width="530.037" xmlns="http://www.w3.org/2000/svg">
 <g id="page" xmlns:svgx="http://www.xml-cml.org/schema/svgx">
  <g begin="text">
   <text y="62.979" x="76.535,79.189,83.62,86.274,88.26650000000001,91.057,93.711,95.7035,97.696,105.219,108.758,110.974,112.96650000000001,115.756,120.187,123.431,125.647" svgx:width="0.33,0.56,0.33,0.25,0.55,0.33,0.25,0.55,0.94,0.44,0.28,0.25,0.55,0.56,0.41,0.28,0.25" style="fill:rgb(0,0,0);font-family:URWPalladioL-Ital;font-size:7.97px;stroke:none;">Int. J. Mol. Sci.</text>
   <text y="62.979" x="129.632,133.617,137.602,141.587" svgx:width="0.5,0.5,0.5,0.5" style="fill:rgb(0,0,0);font-family:URWPalladioL-Bold;font-size:7.97px;stroke:none;">2019</text>
   <text y="62.979" x="145.572" svgx:width="0.25" style="fill:rgb(0,0,0);font-family:URWPalladioL-Roma;font-size:7.97px;stroke:none;">,</text>
   <text y="62.979" x="149.557,153.542" svgx:width="0.5,0.5" style="fill:rgb(0,0,0);font-family:URWPalladioL-Ital;font-size:7.97px;stroke:none;">20</text>
   <text y="62.979" x="157.527,159.5195,161.512,165.497,169.482,173.467,177.45200000000003,495.794,499.779,501.772,506.123,508.7531,510.77,514.755" svgx:width="0.25,0.55,0.5,0.5,0.5,0.5,0.55,0.5,0.55,0.55,0.33,0.55,0.5,0.5" style="fill:rgb(0,0,0);font-family:URWPalladioL-Roma;font-size:7.97px;stroke:none;">, 3997 4 of 16</text>
   <text y="96.861" x="270.143,275.128,279.612,285.09,288.076,292.56100000000004,294.801,299.284" svgx:width="0.67,0.5,0.61,0.33,0.5,0.55,0.5,0.25" style="fill:rgb(0,0,0);font-family:URWPalladioL-Bold;font-size:8.97px;stroke:none;">Table 1.</text>
   <text y="96.861" x="304.663,310.644,314.625,319.61,322.596" svgx:width="0.67,0.44,0.56,0.33,0.25" style="fill:rgb(0,0,0);font-family:URWPalladioL-Ital;font-size:8.97px;stroke:none;">Cont.</text>
  </g>
  <path style="fill:none;stroke:rgb(0,0,0);stroke-width:1.0;" d="M76.54 107.08 L518.74 107.08 "/>
  <g begin="text">
   <text y="123.055" x="87.967,94.441,99.919,104.402,112.374,115.359,119.34,123.824,126.7841,129.051,135.525,140.51,148.481,153.96,158.945,162.926,165.912,168.898,171.884,176.869" svgx:width="0.72,0.61,0.5,0.89,0.33,0.44,0.5,0.33,0.55,0.72,0.56,0.89,0.61,0.56,0.44,0.33,0.33,0.33,0.56,0.61" style="fill:rgb(0,0,0);font-family:URWPalladioL-Bold;font-size:8.97px;stroke:none;">Chemical Composition</text>
   <text y="117.941" x="335.51,340.988,345.472,353.443,358.921,361.907" svgx:width="0.61,0.5,0.89,0.61,0.33,0.5" style="fill:rgb(0,0,0);font-family:URWPalladioL-Bold;font-size:8.97px;stroke:none;">Sample</text>
   <text y="117.941" x="366.39" svgx:width="0.29" style="fill:rgb(0,0,0);font-family:Rpxb;font-size:8.97px;stroke:none;">/</text>
   <text y="117.941" x="369.035" svgx:width="0.89" style="fill:rgb(0,0,0);font-family:URWPalladioL-Bold;font-size:8.97px;stroke:none;">%</text>
  </g>
  <path style="fill:none;stroke:rgb(0,0,0);stroke-width:0.8;" d="M193.78 123.33 L518.74 123.33 "/>
  <g begin="text">
   <text y="133.939" x="227.672,236.638,241.12300000000002,308.917,317.883,322.368,390.152,399.119,403.60400000000004,471.397,480.363" svgx:width="1.0,0.5,0.55,1.0,0.5,0.55,1.0,0.5,0.55,1.0,0.5" style="fill:rgb(0,0,0);font-family:URWPalladioL-Bold;font-size:8.97px;stroke:none;">M1 M2 M3 M4</text>
  </g>
  <path style="fill:none;stroke:rgb(0,0,0);stroke-width:0.3;" d="M76.54 139.33 L518.74 139.33 "/>
  <g begin="text">
   <text y="149.938" x="123.673,131.124" svgx:width="0.83,0.5" style="fill:rgb(0,0,0);font-family:URWPalladioL-Roma;font-size:8.97px;stroke:none;">Na</text>
   <text y="151.729" x="135.607" svgx:width="0.5" style="fill:rgb(0,0,0);font-family:URWPalladioL-Roma;font-size:6.97px;stroke:none;">2</text>
   <text y="149.938" x="139.593,146.67929999999998,226.549,231.032,233.274,237.757,242.24200000000002,307.794,312.277,314.518,319.002,323.487,389.029,393.512,395.754,400.237,404.72200000000004,470.274,474.757,476.999,481.482" svgx:width="0.79,0.55,0.5,0.25,0.5,0.5,0.55,0.5,0.25,0.5,0.5,0.55,0.5,0.25,0.5,0.5,0.55,0.5,0.25,0.5,0.5" style="fill:rgb(0,0,0);font-family:URWPalladioL-Roma;font-size:8.97px;stroke:none;">O 0.10 0.00 0.46 0.36</text>
   <text y="161.135" x="126.213,132.57,137.053,144.1393,226.556,231.039,233.281,237.764,242.24900000000002,307.792,312.275,314.516,319.0,323.485,389.036,393.519,395.761,400.244,404.72900000000004,470.272,474.755,476.997,481.48" svgx:width="0.71,0.5,0.79,0.55,0.5,0.25,0.5,0.5,0.55,0.5,0.25,0.5,0.5,0.55,0.5,0.25,0.5,0.5,0.55,0.5,0.25,0.5,0.5" style="fill:rgb(0,0,0);font-family:URWPalladioL-Roma;font-size:8.97px;stroke:none;">CaO 1.61 2.44 2.17 2.57</text>
   <text y="172.332" x="126.386" svgx:width="0.73" style="fill:rgb(0,0,0);font-family:URWPalladioL-Roma;font-size:8.97px;stroke:none;">K</text>
   <text y="174.124" x="132.895" svgx:width="0.5" style="fill:rgb(0,0,0);font-family:URWPalladioL-Roma;font-size:6.97px;stroke:none;">2</text>
   <text y="172.332" x="136.88,143.9663,226.553,231.036,233.278,237.761,242.246,307.789,312.272,314.513,318.997,323.482,389.033,393.516,395.758,400.241,404.726,470.278,474.761,477.003,481.486" svgx:width="0.79,0.55,0.5,0.25,0.5,0.5,0.55,0.5,0.25,0.5,0.5,0.55,0.5,0.25,0.5,0.5,0.55,0.5,0.25,0.5,0.5" style="fill:rgb(0,0,0);font-family:URWPalladioL-Roma;font-size:8.97px;stroke:none;">O 0.06 0.08 0.13 0.27</text>
   <text y="183.529" x="126.168,131.646,136.542,140.344,144.1114,226.556,231.039,233.281,237.764,242.24900000000002,305.55,310.033,314.516,316.758,321.241,325.726,389.036,393.519,395.761,400.244,404.72900000000004,470.272,474.755,476.996,481.48" svgx:width="0.61,0.55,0.42,0.42,0.55,0.5,0.25,0.5,0.5,0.55,0.5,0.5,0.25,0.5,0.5,0.55,0.5,0.25,0.5,0.5,0.55,0.5,0.25,0.5,0.5" style="fill:rgb(0,0,0);font-family:URWPalladioL-Roma;font-size:8.97px;stroke:none;">Loss 9.87 10.26 9.33 9.82</text>
   <text y="194.726" x="126.141,130.848,136.255,144.1486,224.314,228.797,233.281,235.522,240.005,244.49,303.308,307.791,312.275,316.758,318.999,323.483,327.968,384.553,389.036,393.519,398.002,400.244,404.727,409.212,465.788,470.271,474.755,479.238,481.48,485.963" svgx:width="0.52,0.6,0.88,0.55,0.5,0.5,0.25,0.5,0.5,0.55,0.5,0.5,0.5,0.25,0.5,0.5,0.55,0.5,0.5,0.5,0.25,0.5,0.5,0.55,0.5,0.5,0.5,0.25,0.5,0.5" style="fill:rgb(0,0,0);font-family:URWPalladioL-Roma;font-size:8.97px;stroke:none;">Sum 99.87 100.24 100.15 100.14</text>
  </g>
  <path style="fill:none;stroke:rgb(0,0,0);stroke-width:0.3;" d="M76.54 200.37 L518.74 200.37 "/>
  <g begin="text">
   <text y="222.691" x="130.399,135.384,139.868,145.346,148.332,152.817,155.057,159.54" svgx:width="0.67,0.5,0.61,0.33,0.5,0.55,0.5,0.25" style="fill:rgb(0,0,0);font-family:URWPalladioL-Bold;font-size:8.97px;stroke:none;">Table 2.</text>
   <text y="222.691" x="164.919,171.276,175.759,178.369,182.35,187.756,190.366,194.849,197.772,200.381,205.277,210.47959999999998,212.737,216.117,220.412,224.214,229.621,232.23,235.153,238.9204,241.196,246.092,249.05210000000002,251.319,253.928,258.412,263.397,267.692,271.28000000000003,273.475,277.456,282.675,287.158,290.538,295.524,299.8296,302.06,307.539,311.833,317.052,320.854,323.463,326.386,331.4092,333.613,338.509,341.4691,343.736,346.722,351.617,357.024,360.612,362.807,367.793,370.402,375.62,381.099,384.8664,387.142,392.038,394.9981,397.265,405.183,410.078,415.297,418.22,426.137,431.033,434.575,437.184,439.793,442.402,447.298,452.516,455.126,458.049,462.343" svgx:width="0.71,0.5,0.29,0.44,0.6,0.29,0.5,0.33,0.29,0.55,0.58,0.55,0.4,0.48,0.42,0.6,0.29,0.33,0.42,0.55,0.55,0.33,0.55,0.29,0.5,0.56,0.48,0.4,0.55,0.44,0.58,0.5,0.4,0.56,0.48,0.55,0.61,0.48,0.58,0.42,0.29,0.33,0.56,0.55,0.55,0.33,0.55,0.33,0.55,0.6,0.4,0.55,0.56,0.29,0.58,0.61,0.42,0.55,0.55,0.33,0.55,0.88,0.55,0.58,0.33,0.88,0.55,0.4,0.29,0.29,0.29,0.55,0.58,0.29,0.33,0.48,0.25" style="fill:rgb(0,0,0);font-family:URWPalladioL-Roma;font-size:8.97px;stroke:none;">Calculation results of layer charge density of four kinds of montmorillonite.</text>
  </g>
  <path style="fill:none;stroke:rgb(0,0,0);stroke-width:0.8;" d="M76.54 232.91 L518.74 232.91 "/>
  <g begin="text">
   <text y="243.77" x="114.454,119.932,124.918,128.899,131.885,134.87,137.856,142.842,148.3137,205.795,212.268,216.752,219.737,222.723,227.709,233.1807,279.265,288.232,292.71700000000004,345.76,354.727,359.212,412.264,421.23,425.71500000000003,478.768,487.734" svgx:width="0.61,0.56,0.44,0.33,0.33,0.33,0.56,0.61,0.55,0.72,0.5,0.33,0.33,0.56,0.61,0.55,1.0,0.5,0.55,1.0,0.5,0.55,1.0,0.5,0.55,1.0,0.5" style="fill:rgb(0,0,0);font-family:URWPalladioL-Bold;font-size:8.97px;stroke:none;">Position Cation M1 M2 M3 M4</text>
  </g>
  <path style="fill:none;stroke:rgb(0,0,0);stroke-width:0.8;" d="M76.54 249.16 L518.74 249.16 "/>
  <g begin="text">
   <text y="271.387" x="107.048,111.719,116.014,118.937,122.479,126.962,132.181,136.476,141.954,145.335,150.23" svgx:width="0.61,0.48,0.33,0.4,0.5,0.58,0.48,0.61,0.4,0.55,0.58" style="fill:rgb(0,0,0);font-family:URWPalladioL-Roma;font-size:8.97px;stroke:none;">Tetrahedron</text>
   <text y="259.769" x="215.829,220.536,223.1373,278.145,282.629,284.87,289.353,293.838,344.64,349.123,351.365,355.848,360.333,411.144,415.627,417.869,422.352,426.837,477.648,482.131,484.373,488.856" svgx:width="0.52,0.29,0.55,0.5,0.25,0.5,0.5,0.55,0.5,0.25,0.5,0.5,0.55,0.5,0.25,0.5,0.5,0.55,0.5,0.25,0.5,0.5" style="fill:rgb(0,0,0);font-family:URWPalladioL-Roma;font-size:8.97px;stroke:none;">Si 3.98 3.97 3.94 3.94</text>
   <text y="270.966" x="214.695,221.671,224.2723,278.141,282.624,284.866,289.349,293.834,344.645,349.128,351.37,355.853,360.338,411.14,415.623,417.865,422.348,426.833,477.644,482.127,484.368,488.852" svgx:width="0.78,0.29,0.55,0.5,0.25,0.5,0.5,0.55,0.5,0.25,0.5,0.5,0.55,0.5,0.25,0.5,0.5,0.55,0.5,0.25,0.5,0.5" style="fill:rgb(0,0,0);font-family:URWPalladioL-Roma;font-size:8.97px;stroke:none;">Al 0.02 0.03 0.06 0.06</text>
   <text y="282.163" x="214.111" svgx:width="0.67" style="fill:rgb(0,0,0);font-family:URWPalladioL-Roma;font-size:8.97px;stroke:none;">X</text>
   <text y="283.955" x="220.091" svgx:width="0.61" style="fill:rgb(0,0,0);font-family:URWPalladioL-Roma;font-size:6.97px;stroke:none;">T</text>
   <text y="282.163" x="275.901,280.384,284.867,287.109,291.592,296.077,342.405,346.888,351.371,353.613,358.096,362.581,408.9,413.383,417.866,420.108,424.591,429.076,475.403,479.887,484.37,486.611,491.095" svgx:width="0.5,0.5,0.25,0.5,0.5,0.55,0.5,0.5,0.25,0.5,0.5,0.55,0.5,0.5,0.25,0.5,0.5,0.55,0.5,0.5,0.25,0.5,0.5" style="fill:rgb(0,0,0);font-family:URWPalladioL-Roma;font-size:8.97px;stroke:none;">–0.02 –0.03 –0.06 –0.06</text>
  </g>
  <path style="fill:none;stroke:rgb(0,0,0);stroke-width:0.3;" d="M76.54 287.55 L518.74 287.55 "/>
  <g begin="text">
   <text y="326.218" x="107.927,114.975,118.956,121.879,126.362,131.58,135.875,141.354,144.734,149.63" svgx:width="0.79,0.44,0.33,0.5,0.58,0.48,0.61,0.4,0.55,0.58" style="fill:rgb(0,0,0);font-family:URWPalladioL-Roma;font-size:8.97px;stroke:none;">Octahedron</text>
   <text y="298.162" x="214.695,221.671,224.2723,278.141,282.624,284.866,289.349,293.834,344.645,349.128,351.37,355.853,360.338,411.14,415.623,417.865,422.348,426.833,477.644,482.127,484.368,488.852" svgx:width="0.78,0.29,0.55,0.5,0.25,0.5,0.5,0.55,0.5,0.25,0.5,0.5,0.55,0.5,0.25,0.5,0.5,0.55,0.5,0.25,0.5,0.5" style="fill:rgb(0,0,0);font-family:URWPalladioL-Roma;font-size:8.97px;stroke:none;">Al 1.55 1.52 1.49 1.38</text>
   <text y="309.897" x="210.522,215.507" svgx:width="0.56,0.48" style="fill:rgb(0,0,0);font-family:URWPalladioL-Roma;font-size:8.97px;stroke:none;">Fe</text>
   <text y="306.642" x="219.802" svgx:width="0.5" style="fill:rgb(0,0,0);font-family:URWPalladioL-Roma;font-size:6.97px;stroke:none;">2</text>
   <text y="306.642" x="223.289" svgx:width="0.67" style="fill:rgb(0,0,0);font-family:Rpxr;font-size:6.97px;stroke:none;">+</text>
   <text y="309.628" x="280.384,284.867,287.109,291.594,344.646,349.129,351.371,355.854,360.339,411.141,415.624,417.866,422.349,426.834,477.645,482.128,484.37,488.853" svgx:width="0.5,0.25,0.5,0.55,0.5,0.25,0.5,0.5,0.55,0.5,0.25,0.5,0.5,0.55,0.5,0.25,0.5,0.5" style="fill:rgb(0,0,0);font-family:URWPalladioL-Roma;font-size:8.97px;stroke:none;">0.1 0.05 0.08 0.07</text>
   <text y="321.395" x="208.312,216.794" svgx:width="0.95,0.58" style="fill:rgb(0,0,0);font-family:URWPalladioL-Roma;font-size:8.97px;stroke:none;">Mn</text>
   <text y="318.14" x="222.012" svgx:width="0.5" style="fill:rgb(0,0,0);font-family:URWPalladioL-Roma;font-size:6.97px;stroke:none;">2</text>
   <text y="318.14" x="225.499" svgx:width="0.67" style="fill:rgb(0,0,0);font-family:Rpxr;font-size:6.97px;stroke:none;">+</text>
   <text y="321.125" x="283.746,288.231,350.25,354.735,411.141,415.624,417.865,422.349,426.834,477.644,482.128,484.369,488.852" svgx:width="0.5,0.55,0.5,0.55,0.5,0.25,0.5,0.5,0.55,0.5,0.25,0.5,0.5" style="fill:rgb(0,0,0);font-family:URWPalladioL-Roma;font-size:8.97px;stroke:none;">0 0 0.02 0.01</text>
   <text y="332.354" x="215.681,220.684,223.2853,283.745,288.23,350.249,354.73400000000004,416.744,421.22900000000004,477.643,482.127,484.368,488.851" svgx:width="0.61,0.29,0.55,0.5,0.55,0.5,0.55,0.5,0.55,0.5,0.25,0.5,0.5" style="fill:rgb(0,0,0);font-family:URWPalladioL-Roma;font-size:8.97px;stroke:none;">Ti 0 0 0 0.02</text>
   <text y="343.551" x="212.754,221.236,226.2592,278.146,282.629,284.871,289.354,293.839,344.641,349.124,351.366,355.849,360.334,411.145,415.628,417.869,422.353,426.838,477.639,482.123,484.364,488.847" svgx:width="0.95,0.56,0.55,0.5,0.25,0.5,0.5,0.55,0.5,0.25,0.5,0.5,0.55,0.5,0.25,0.5,0.5,0.55,0.5,0.25,0.5,0.5" style="fill:rgb(0,0,0);font-family:URWPalladioL-Roma;font-size:8.97px;stroke:none;">Mg 0.35 0.43 0.41 0.53</text>
   <text y="354.748" x="213.507" svgx:width="0.67" style="fill:rgb(0,0,0);font-family:URWPalladioL-Roma;font-size:8.97px;stroke:none;">X</text>
   <text y="356.539" x="219.488" svgx:width="0.79" style="fill:rgb(0,0,0);font-family:URWPalladioL-Roma;font-size:6.97px;stroke:none;">O</text>
   <text y="354.748" x="275.901,280.384,284.867,287.109,291.592,296.077,342.405,346.888,351.371,353.613,358.096,362.581,408.9,413.383,417.866,420.108,424.591,429.076,475.403,479.887,484.37,486.611,491.095" svgx:width="0.5,0.5,0.25,0.5,0.5,0.55,0.5,0.5,0.25,0.5,0.5,0.55,0.5,0.5,0.25,0.5,0.5,0.55,0.5,0.5,0.25,0.5,0.5" style="fill:rgb(0,0,0);font-family:URWPalladioL-Roma;font-size:8.97px;stroke:none;">–0.36 –0.48 –0.51 –0.63</text>
  </g>
  <path style="fill:none;stroke:rgb(0,0,0);stroke-width:0.3;" d="M76.54 360.14 L518.74 360.14 "/>
  <g begin="text">
   <text y="370.746" x="209.696,214.367,219.263,222.186,226.669,229.27030000000002,275.904,280.387,284.87,287.112,291.595,296.08000000000004,342.399,346.882,351.365,353.607,358.09,362.575,408.903,413.386,417.869,420.111,424.594,429.079,475.406,479.89,484.373,486.614,491.098" svgx:width="0.61,0.55,0.33,0.5,0.29,0.55,0.5,0.5,0.25,0.5,0.5,0.55,0.5,0.5,0.25,0.5,0.5,0.55,0.5,0.5,0.25,0.5,0.5,0.55,0.5,0.5,0.25,0.5,0.5" style="fill:rgb(0,0,0);font-family:URWPalladioL-Roma;font-size:8.97px;stroke:none;">Total –0.38 –0.51 –0.57 –0.69</text>
  </g>
  <path style="fill:none;stroke:rgb(0,0,0);stroke-width:0.3;" d="M76.54 376.14 L518.74 376.14 "/>
  <g begin="text">
   <text y="408.152" x="99.382,102.404,107.622,110.545,114.84,118.382,120.991,125.474,130.46,134.754,138.34199999999998,140.538,145.245,150.634,155.117,159.098" svgx:width="0.34,0.58,0.33,0.48,0.4,0.29,0.5,0.56,0.48,0.4,0.55,0.52,0.6,0.5,0.44,0.48" style="fill:rgb(0,0,0);font-family:URWPalladioL-Roma;font-size:8.97px;stroke:none;">Interlayer Space</text>
   <text y="386.745" x="213.52,220.971,225.45600000000002,278.141,282.624,284.866,289.349,293.834,350.249,354.73400000000004,411.139,415.623,417.864,422.347,426.832,477.643,482.126,484.368,488.851" svgx:width="0.83,0.5,0.55,0.5,0.25,0.5,0.5,0.55,0.5,0.55,0.5,0.25,0.5,0.5,0.55,0.5,0.25,0.5,0.5" style="fill:rgb(0,0,0);font-family:URWPalladioL-Roma;font-size:8.97px;stroke:none;">Na 0.01 0 0.05 0.04</text>
   <text y="397.942" x="214.067,220.424,224.90900000000002,278.141,282.624,284.866,289.349,293.834,344.645,349.128,351.369,355.853,360.338,411.139,415.623,417.864,422.347,426.832,477.643,482.126,484.368,488.851" svgx:width="0.71,0.5,0.55,0.5,0.25,0.5,0.5,0.55,0.5,0.25,0.5,0.5,0.55,0.5,0.25,0.5,0.5,0.55,0.5,0.25,0.5,0.5" style="fill:rgb(0,0,0);font-family:URWPalladioL-Roma;font-size:8.97px;stroke:none;">Ca 0.16 0.25 0.21 0.26</text>
   <text y="409.139" x="216.233,222.7811,278.146,282.629,284.871,289.354,293.839,344.641,349.124,351.366,355.849,360.334,411.145,415.628,417.869,422.353,426.838,477.639,482.123,484.364,488.847" svgx:width="0.73,0.55,0.5,0.25,0.5,0.5,0.55,0.5,0.25,0.5,0.5,0.55,0.5,0.25,0.5,0.5,0.55,0.5,0.25,0.5,0.5" style="fill:rgb(0,0,0);font-family:URWPalladioL-Roma;font-size:8.97px;stroke:none;">K 0.01 0.01 0.02 0.03</text>
   <text y="420.336" x="212.754,221.236,226.2592,278.146,282.629,284.871,289.354,293.839,350.245,354.73,411.145,415.628,417.869,422.353,426.838,477.639,482.123,484.364,488.847" svgx:width="0.95,0.56,0.55,0.5,0.25,0.5,0.5,0.55,0.5,0.55,0.5,0.25,0.5,0.5,0.55,0.5,0.25,0.5,0.5" style="fill:rgb(0,0,0);font-family:URWPalladioL-Roma;font-size:8.97px;stroke:none;">Mg 0.02 0 0.04 0.05</text>
   <text y="431.533" x="214.118" svgx:width="0.67" style="fill:rgb(0,0,0);font-family:URWPalladioL-Roma;font-size:8.97px;stroke:none;">X</text>
   <text y="433.325" x="220.098" svgx:width="0.61" style="fill:rgb(0,0,0);font-family:URWPalladioL-Roma;font-size:6.97px;stroke:none;">L</text>
   <text y="431.533" x="278.142,282.625,284.867,289.35,293.83500000000004,344.646,349.129,351.371,355.854,360.339,411.141,415.624,417.865,422.349,426.834,477.644,482.128,484.369,488.852" svgx:width="0.5,0.25,0.5,0.5,0.55,0.5,0.25,0.5,0.5,0.55,0.5,0.25,0.5,0.5,0.55,0.5,0.25,0.5,0.5" style="fill:rgb(0,0,0);font-family:URWPalladioL-Roma;font-size:8.97px;stroke:none;">0.38 0.51 0.57 0.69</text>
  </g>
  <path style="fill:none;stroke:rgb(0,0,0);stroke-width:0.3;" d="M76.54 437.17 L518.74 437.17 "/>
  <g begin="text">
   <text y="460.784" x="76.535,81.516,84.007,88.988,91.478,94.966,100.505,103.275,111.026,116.565,119.334,123.758,127.075,129.845,134.268,139.8456,142.298,150.049,153.924,157.242,161.665,164.435,167.205" svgx:width="0.5,0.25,0.5,0.25,0.55,0.56,0.28,0.78,0.56,0.28,0.44,0.33,0.28,0.44,0.56,0.55,0.78,0.39,0.33,0.44,0.28,0.28,0.39" style="fill:rgb(0,0,0);font-family:URWPalladioL-Ital;font-size:9.96px;stroke:none;">2.2. Simulation Details</text>
   <text y="483.997" x="76.535,81.516,84.007,88.988,91.479,96.46,98.94999999999999,102.438,111.862,117.302,123.1,126.348,135.145,140.585,144.52,147.419,150.318,153.217,158.657,164.455,167.354,170.602,175.3828,177.865,187.289,192.729,198.816,203.588,206.487" svgx:width="0.5,0.25,0.5,0.25,0.5,0.25,0.55,0.95,0.55,0.58,0.33,0.88,0.55,0.4,0.29,0.29,0.29,0.55,0.58,0.29,0.33,0.48,0.55,0.95,0.55,0.61,0.48,0.29,0.42" style="fill:rgb(0,0,0);font-family:URWPalladioL-Roma;font-size:9.96px;stroke:none;">2.2.1. Montmorillonite Models</text>
   <text y="503.484" x="97.795,101.22,106.9968,110.772,114.084,119.999,122.956,127.1392,130.902,139.377,144.926,148.94,154.59,157.08,161.063,164.375,170.29,175.0708,178.795,184.709,190.359,196.568,200.582,205.663,208.976,211.933,217.481,223.2578,227.033,233.141,236.972,242.52,248.627,253.495,257.509,260.822,263.779,268.646,272.8292,276.603,282.151,285.43780000000004,289.173,292.486,298.4,303.1808,306.906,310.289,315.838,321.965,325.94899999999996,329.617,335.267,338.224,344.139,350.347,354.5302,358.294,363.842,367.1288,370.864,379.837,385.386,391.3,394.612,403.585,409.134,413.148,416.105,419.062,422.019,427.567,433.482,436.439,439.751,444.5318,448.267,456.742,461.61,465.441,470.2218,473.946,478.255,481.212,490.185,496.312,499.269,504.35,507.663,512.531" svgx:width="0.34,0.58,0.55,0.33,0.58,0.29,0.42,0.55,0.83,0.55,0.4,0.56,0.25,0.55,0.33,0.58,0.48,0.55,0.58,0.56,0.61,0.4,0.5,0.33,0.29,0.55,0.58,0.55,0.6,0.4,0.55,0.6,0.48,0.4,0.33,0.29,0.48,0.42,0.55,0.55,0.33,0.55,0.33,0.58,0.48,0.55,0.33,0.55,0.6,0.4,0.55,0.56,0.29,0.58,0.61,0.42,0.55,0.55,0.33,0.55,0.88,0.55,0.58,0.33,0.88,0.55,0.4,0.29,0.29,0.29,0.55,0.58,0.29,0.33,0.48,0.55,0.83,0.48,0.4,0.48,0.55,0.42,0.29,0.88,0.6,0.29,0.5,0.33,0.48,0.61" style="fill:rgb(0,0,0);font-family:URWPalladioL-Roma;font-size:9.96px;stroke:none;">In this work, the hydration properties of the four kinds of montmorillonite were simulated</text>
   <text y="516.993" x="76.535,82.155,87.7326,91.422,101.035,106.116,109.419,114.286,118.3,121.257,126.338,129.295,133.4782,137.222,142.557,145.869,151.997,158.206,161.163,166.711,171.792,174.333,179.313,183.021,187.33,190.287,199.26,205.387,208.344,213.425,216.738,219.695,225.244,231.0208,234.775,239.084,244.632,248.016,251.329,259.804,264.885,268.716,273.4968,277.201,280.585,288.491,293.003,297.515,302.382,305.339,309.353,315.003,319.312,321.802,325.744,331.079,336.16,341.9368,345.682,353.547,356.504,361.372,367.022,372.57,375.06,379.002,386.207,394.113,396.603,400.271,408.177,417.15,422.018,426.031,428.989,433.5,438.581,441.86780000000005,445.573" svgx:width="0.55,0.56,0.55,0.95,0.5,0.33,0.48,0.4,0.29,0.5,0.29,0.42,0.55,0.52,0.33,0.6,0.61,0.29,0.55,0.5,0.25,0.5,0.55,0.42,0.29,0.88,0.6,0.29,0.5,0.33,0.29,0.55,0.58,0.55,0.42,0.55,0.33,0.33,0.83,0.5,0.4,0.48,0.55,0.33,0.78,0.44,0.44,0.48,0.29,0.4,0.56,0.42,0.25,0.55,0.52,0.5,0.58,0.55,0.77,0.29,0.48,0.56,0.55,0.25,0.55,0.71,0.78,0.25,0.55,0.78,0.88,0.48,0.4,0.29,0.44,0.5,0.33,0.55,0.33" style="fill:rgb(0,0,0);font-family:URWPalladioL-Roma;font-size:9.96px;stroke:none;">by Materials Studio7.0 simulation software (Accelrys, San Diego, CA, America) [</text>
   <text y="516.993" x="448.959,453.94" svgx:width="0.5,0.5" style="fill:rgb(8,117,183);font-family:URWPalladioL-Roma;font-size:9.96px;stroke:none;">23</text>
   <text y="516.993" x="458.921,462.305,464.795,471.694,479.6,484.112,488.624,494.172,498.014,504.223,507.18,513.094" svgx:width="0.33,0.25,0.55,0.78,0.44,0.44,0.55,0.4,0.61,0.29,0.58,0.56" style="fill:rgb(0,0,0);font-family:URWPalladioL-Roma;font-size:9.96px;stroke:none;">]. According</text>
   <text y="530.503" x="76.535,79.848,85.326,88.871,94.186,99.267,104.887,107.844,112.711" svgx:width="0.33,0.55,0.55,0.61,0.5,0.55,0.29,0.48,0.42" style="fill:rgb(0,0,0);font-family:URWPalladioL-Roma;font-size:9.96px;stroke:none;">to Tables</text>
   <text y="530.503" x="120.495" svgx:width="0.5" style="fill:rgb(8,117,183);font-family:URWPalladioL-Roma;font-size:9.96px;stroke:none;">1</text>
   <text y="530.503" x="129.051,134.132,140.047" svgx:width="0.5,0.58,0.61" style="fill:rgb(0,0,0);font-family:URWPalladioL-Roma;font-size:9.96px;stroke:none;">and</text>
   <text y="530.503" x="149.731" svgx:width="0.5" style="fill:rgb(8,117,183);font-family:URWPalladioL-Roma;font-size:9.96px;stroke:none;">2</text>
   <text y="530.503" x="154.812,157.30200000000002,161.071,164.384,170.298,175.0788,178.641,182.95,187.817,196.79,199.747,203.131,209.259,215.173,218.13,221.4168,224.908,229.42,233.434,239.084,243.393,246.705,251.786,254.6744,258.219,262.527,265.84,269.783,275.9,280.412,283.725,289.853,293.694,298.4748,302.037,305.421,310.969,314.983,323.956,330.083,333.04,338.02000000000004,341.597,347.145,350.4318,354.004,362.977,368.526,374.44,377.753,386.725,392.274,396.288,399.245,402.202,405.159,410.707,416.622,419.579,422.881,427.66179999999997,431.224,439.699,444.78,448.9632,452.564,457.645,461.954,466.262,472.39,481.363,486.23,492.3056,495.914,499.227,504.705,508.251,513.87" svgx:width="0.25,0.55,0.33,0.58,0.48,0.55,0.42,0.48,0.88,0.29,0.33,0.6,0.58,0.29,0.33,0.55,0.44,0.4,0.56,0.42,0.33,0.5,0.29,0.55,0.42,0.33,0.4,0.6,0.44,0.33,0.6,0.4,0.48,0.55,0.33,0.55,0.4,0.88,0.6,0.29,0.5,0.55,0.55,0.33,0.55,0.88,0.55,0.58,0.33,0.88,0.55,0.4,0.29,0.29,0.29,0.55,0.58,0.29,0.33,0.48,0.55,0.83,0.5,0.42,0.55,0.5,0.42,0.42,0.6,0.88,0.48,0.61,0.55,0.33,0.55,0.55,0.55,0.48" style="fill:rgb(0,0,0);font-family:URWPalladioL-Roma;font-size:9.96px;stroke:none;">, the semi-unit crystal structure formula of montmorillonite was assumed to be</text>
   <text y="544.012" x="76.535" svgx:width="0.95" style="fill:rgb(0,0,0);font-family:URWPalladioL-Roma;font-size:9.96px;stroke:none;">M</text>
   <text y="545.507" x="86.017" svgx:width="0.52" style="fill:rgb(0,0,0);font-family:URWPalladioL-Roma;font-size:7.57px;stroke:none;">x</text>
   <text y="545.507" x="89.923" svgx:width="0.67" style="fill:rgb(0,0,0);font-family:Rpxr;font-size:7.57px;stroke:none;">+</text>
   <text y="545.507" x="94.989" svgx:width="0.56" style="fill:rgb(0,0,0);font-family:URWPalladioL-Roma;font-size:7.57px;stroke:none;">y</text>
   <text y="544.012" x="99.697,103.034,110.832" svgx:width="0.33,0.78,0.29" style="fill:rgb(0,0,0);font-family:URWPalladioL-Roma;font-size:9.96px;stroke:none;">(Al</text>
   <text y="545.877" x="113.748,117.534,120.055" svgx:width="0.5,0.33,0.52" style="fill:rgb(0,0,0);font-family:URWPalladioL-Roma;font-size:7.57px;stroke:none;">2-x</text>
   <text y="544.012" x="124.46,133.941" svgx:width="0.95,0.56" style="fill:rgb(0,0,0);font-family:URWPalladioL-Roma;font-size:9.96px;stroke:none;">Mg</text>
   <text y="545.507" x="139.514" svgx:width="0.52" style="fill:rgb(0,0,0);font-family:URWPalladioL-Roma;font-size:7.57px;stroke:none;">x</text>
   <text y="544.012" x="143.919,147.256,150.594,155.856" svgx:width="0.33,0.33,0.52,0.29" style="fill:rgb(0,0,0);font-family:URWPalladioL-Roma;font-size:9.96px;stroke:none;">)(Si</text>
   <text y="545.877" x="158.772,162.558,165.079" svgx:width="0.5,0.33,0.56" style="fill:rgb(0,0,0);font-family:URWPalladioL-Roma;font-size:7.57px;stroke:none;">4-y</text>
   <text y="544.012" x="169.787,177.584" svgx:width="0.78,0.29" style="fill:rgb(0,0,0);font-family:URWPalladioL-Roma;font-size:9.96px;stroke:none;">Al</text>
   <text y="545.507" x="180.5" svgx:width="0.56" style="fill:rgb(0,0,0);font-family:URWPalladioL-Roma;font-size:7.57px;stroke:none;">y</text>
   <text y="544.012" x="185.208,188.545" svgx:width="0.33,0.79" style="fill:rgb(0,0,0);font-family:URWPalladioL-Roma;font-size:9.96px;stroke:none;">)O</text>
   <text y="545.877" x="196.423,200.209" svgx:width="0.5,0.5" style="fill:rgb(0,0,0);font-family:URWPalladioL-Roma;font-size:7.57px;stroke:none;">10</text>
   <text y="544.012" x="204.493,207.83,215.708,224.047" svgx:width="0.33,0.79,0.83,0.33" style="fill:rgb(0,0,0);font-family:URWPalladioL-Roma;font-size:9.96px;stroke:none;">(OH)</text>
   <text y="545.877" x="227.384" svgx:width="0.5" style="fill:rgb(0,0,0);font-family:URWPalladioL-Roma;font-size:7.57px;stroke:none;">2</text>
   <text y="544.012" x="234.174,240.007" svgx:width="0.58,0.83" style="fill:rgb(0,0,0);font-family:URWPalladioL-Roma;font-size:9.96px;stroke:none;">nH</text>
   <text y="545.877" x="248.346" svgx:width="0.5" style="fill:rgb(0,0,0);font-family:URWPalladioL-Roma;font-size:7.57px;stroke:none;">2</text>
   <text y="544.012" x="252.63,260.508,262.998,265.519,273.877,279.71,284.511,288.29,293.0708,295.596,307.583,310.499,314.6822,317.254,320.522,326.355,331.1358,333.671,338.472,343.643,348.093,353.926,358.937,364.76,370.333,375.133,380.145,385.687,388.604,393.3848,395.92,400.37,405.381,408.648,411.565,417.037,422.87,427.0532,429.625,435.749,438.665,442.915,446.182,450.141,453.057,458.6,464.643,467.911,472.711,478.7866,481.34,486.883,491.684,494.951,503.31,508.11,512.911" svgx:width="0.79,0.25,0.55,0.83,0.58,0.48,0.4,0.48,0.55,0.95,0.29,0.42,0.55,0.33,0.58,0.48,0.55,0.48,0.52,0.44,0.58,0.5,0.58,0.56,0.48,0.5,0.55,0.29,0.48,0.55,0.44,0.5,0.33,0.29,0.55,0.58,0.42,0.55,0.61,0.29,0.42,0.33,0.4,0.29,0.55,0.6,0.33,0.48,0.61,0.55,0.55,0.48,0.33,0.83,0.48,0.48,0.58" style="fill:rgb(0,0,0);font-family:URWPalladioL-Roma;font-size:9.96px;stroke:none;">O, where Mis the exchangeable cations distributed between</text>
   <text y="557.522" x="76.535,79.728,85.427,90.2078,92.606,101.253,106.6,112.3,115.492,124.14,129.487,133.355,136.205,139.055,141.905,147.252,152.942,155.792,158.984,163.7648,166.163,169.013,173.909,179.354,184.045,187.914,192.066,195.327,202.27" svgx:width="0.33,0.58,0.48,0.55,0.88,0.55,0.58,0.33,0.88,0.55,0.4,0.29,0.29,0.29,0.55,0.58,0.29,0.33,0.48,0.55,0.29,0.5,0.56,0.48,0.4,0.42,0.33,0.71,0.5" style="fill:rgb(0,0,0);font-family:URWPalladioL-Roma;font-size:9.96px;stroke:none;">the montmorillonite layers(Ca</text>
   <text y="553.905" x="207.167" svgx:width="0.5" style="fill:rgb(0,0,0);font-family:URWPalladioL-Roma;font-size:7.57px;stroke:none;">2</text>
   <text y="553.905" x="210.953" svgx:width="0.67" style="fill:rgb(0,0,0);font-family:Rpxr;font-size:7.57px;stroke:none;">+</text>
   <text y="557.522" x="216.516,219.777,222.267,224.713,229.61,235.309,241.3846,243.771" svgx:width="0.33,0.25,0.55,0.5,0.58,0.61,0.55,0.52" style="fill:rgb(0,0,0);font-family:URWPalladioL-Roma;font-size:9.96px;stroke:none;">), and x</text>
   <text y="557.522" x="248.827" svgx:width="0.67" style="fill:rgb(0,0,0);font-family:Rpxr;font-size:9.96px;stroke:none;">+</text>
   <text y="557.522" x="255.378,260.9556,263.311,266.16,270.3432,272.79,275.983,281.683,286.4638,288.861,293.013,297.704,306.352,309.202,312.463,318.368,324.068,326.918,330.20480000000003,332.588,335.438,340.334,345.779,350.47,354.454,356.826,361.174,366.874,371.771,375.453,380.898,385.6788,388.076,394.06,398.751,404.451,408.603,411.453,414.645,418.984,421.474,424.919,430.922,436.621,441.4018,443.79,447.942,451.135,454.925,460.83,465.179,468.371,474.276,477.969,482.7498,485.137,490.553,495.244,498.094,503.441,509.14,514.585" svgx:width="0.56,0.55,0.29,0.42,0.55,0.33,0.58,0.48,0.55,0.42,0.48,0.88,0.29,0.33,0.6,0.58,0.29,0.33,0.55,0.29,0.5,0.56,0.48,0.4,0.55,0.44,0.58,0.5,0.4,0.56,0.48,0.55,0.61,0.48,0.58,0.42,0.29,0.33,0.56,0.25,0.55,0.61,0.58,0.48,0.55,0.42,0.33,0.4,0.6,0.44,0.33,0.6,0.4,0.48,0.55,0.55,0.48,0.29,0.55,0.58,0.56,0.42" style="fill:rgb(0,0,0);font-family:URWPalladioL-Roma;font-size:9.96px;stroke:none;">y is the semi-unit layer charge density. The structure belongs</text>
   <text y="571.031" x="76.535,79.848,85.326,88.18,91.483,97.397,102.1778,105.049,114.022,119.57,125.485,131.033,135.545,138.502,141.459,147.373,150.33,154.7124,157.616,164.821" svgx:width="0.33,0.55,0.55,0.33,0.58,0.48,0.55,0.88,0.55,0.58,0.55,0.44,0.29,0.29,0.58,0.29,0.44,0.55,0.71,0.5" style="fill:rgb(0,0,0);font-family:URWPalladioL-Roma;font-size:9.96px;stroke:none;">to the monoclinic C2</text>
   <text y="571.031" x="169.906" svgx:width="0.29" style="fill:rgb(0,0,0);font-family:Rpxr;font-size:9.96px;stroke:none;">/</text>
   <text y="571.031" x="172.823,181.58780000000002,184.57,188.879,194.986,200.067,204.579,209.3598,212.231,217.881,221.712,227.26,233.388,239.495,241.985,244.891,248.204,254.118,258.8988,261.76,266.271,270.285,275.935,280.244,283.557,288.638,291.52639999999997,294.379,297.336,302.417,308.067,312.935,316.919,319.723,322.68,326.8632,329.773,334.285,339.833,345.747,350.056,353.369,358.45,364.364,367.677,370.16700000000003,374.282" svgx:width="0.88,0.55,0.42,0.6,0.5,0.44,0.48,0.55,0.56,0.4,0.55,0.6,0.6,0.25,0.55,0.33,0.58,0.48,0.55,0.44,0.4,0.56,0.42,0.33,0.5,0.29,0.55,0.29,0.5,0.56,0.48,0.4,0.55,0.29,0.42,0.55,0.44,0.55,0.58,0.42,0.33,0.5,0.58,0.33,0.25,0.55,0.5" style="fill:rgb(0,0,0);font-family:URWPalladioL-Roma;font-size:9.96px;stroke:none;">m space group, the crystal layer is constant: a</text>
   <text y="571.031" x="382.138" svgx:width="0.67" style="fill:rgb(0,0,0);font-family:Rpxr;font-size:9.96px;stroke:none;">=</text>
   <text y="571.031" x="391.716,396.797,399.337,404.418,409.499,414.47900000000004,417.354,423.269,432.242,434.732,437.637" svgx:width="0.5,0.25,0.5,0.5,0.5,0.55,0.58,0.88,0.25,0.55,0.55" style="fill:rgb(0,0,0);font-family:URWPalladioL-Roma;font-size:9.96px;stroke:none;">0.523 nm, b</text>
   <text y="571.031" x="446.036" svgx:width="0.67" style="fill:rgb(0,0,0);font-family:Rpxr;font-size:9.96px;stroke:none;">=</text>
   <text y="571.031" x="455.614,460.695,463.235,468.316,473.397,478.377,481.252,487.167,496.14,498.63,501.535,506.616,512.531" svgx:width="0.5,0.25,0.5,0.5,0.5,0.55,0.58,0.88,0.25,0.55,0.5,0.58,0.61" style="fill:rgb(0,0,0);font-family:URWPalladioL-Roma;font-size:9.96px;stroke:none;">0.906 nm, and</text>
   <text y="584.54" x="76.535,79.835,85.726,90.5068,93.064,97.4464,100.048,105.767,110.828,113.774,119.877,124.6578,127.216,130.161,134.3442,136.943,142.662,147.723,151.721,154.667,159.728,165.325,168.271,173.0518,175.609" svgx:width="0.33,0.58,0.48,0.55,0.44,0.55,0.56,0.5,0.29,0.6,0.48,0.55,0.29,0.42,0.55,0.56,0.5,0.4,0.29,0.5,0.55,0.29,0.48,0.55,0.33" style="fill:rgb(0,0,0);font-family:URWPalladioL-Roma;font-size:9.96px;stroke:none;">the c value is variable [</text>
   <text y="584.54" x="178.981,183.962" svgx:width="0.5,0.5" style="fill:rgb(8,117,183);font-family:URWPalladioL-Roma;font-size:9.96px;stroke:none;">19</text>
   <text y="584.54" x="188.943" svgx:width="0.25" style="fill:rgb(0,0,0);font-family:URWPalladioL-Roma;font-size:9.96px;stroke:none;">,</text>
   <text y="584.54" x="191.474,196.455" svgx:width="0.5,0.5" style="fill:rgb(8,117,183);font-family:URWPalladioL-Roma;font-size:9.96px;stroke:none;">30</text>
   <text y="584.54" x="201.436,204.7228,207.297,215.738,221.629,226.478,232.25480000000002,234.859,238.159,244.05,248.8308,251.388,255.68,258.98,262.897,269.0,273.495,276.794,282.898,286.896,291.957,294.8454,297.393,303.496,309.387,312.333,315.61980000000005,318.122,321.068,326.129,331.757,336.605,340.589,343.093,346.039,350.2222,352.821,357.882,363.773,369.664,375.292,381.476,385.292,390.819,396.922,401.214,403.704,406.245" svgx:width="0.33,0.55,0.83,0.58,0.48,0.58,0.55,0.33,0.58,0.48,0.55,0.42,0.33,0.4,0.6,0.44,0.33,0.6,0.4,0.5,0.29,0.55,0.6,0.58,0.29,0.33,0.55,0.29,0.5,0.56,0.48,0.4,0.55,0.29,0.42,0.55,0.5,0.58,0.58,0.56,0.61,0.4,0.55,0.6,0.42,0.25,0.55,0.44" style="fill:rgb(0,0,0);font-family:URWPalladioL-Roma;font-size:9.96px;stroke:none;">] when the structural unit layer is anhydrous, c</text>
   <text y="584.54" x="413.224" svgx:width="0.67" style="fill:rgb(0,0,0);font-family:Rpxr;font-size:9.96px;stroke:none;">=</text>
   <text y="584.54" x="422.486,427.547,430.077,435.138,440.199,445.17900000000003,447.751,453.642,462.579,465.069,467.6,472.661,478.552,484.62760000000003,487.226,490.172,493.45880000000005,496.032,499.332,505.223,510.072,513.888" svgx:width="0.5,0.25,0.5,0.5,0.5,0.55,0.58,0.88,0.25,0.55,0.5,0.58,0.61,0.55,0.29,0.33,0.55,0.33,0.58,0.48,0.4,0.48" style="fill:rgb(0,0,0);font-family:URWPalladioL-Roma;font-size:9.96px;stroke:none;">0.960 nm; and if there</text>
   <text y="598.05" x="76.535,81.616,85.447,90.2278,93.77,102.244,107.325,110.638,115.506,119.49,122.975,131.948,137.496,140.453,145.321,149.832,155.96,158.917,163.785,167.9682,171.548,176.416,181.659,184.616,188.925,192.238,195.195,201.109,206.6866,210.214,215.834,220.701,224.014,232.489,237.356,242.224,248.0008,251.593,254.906,260.82,265.6008,269.133,272.09,277.171,282.821,287.688,291.702,296.011,298.50100000000003,302.25,305.563,311.477,316.2578,319.799,324.1814,327.766,333.508,338.589,341.546,347.673,352.4538,355.996,364.471,367.428,370.385,373.2734,376.787,382.529,387.609,391.623,397.2006,400.728,409.203,412.16,415.473,421.2498,424.842,428.155,434.069,438.8498,442.392,447.473,456.446,461.994,468.122,474.036,477.32280000000003,480.804,486.352,489.6388,493.191,501.666,506.747,510.06,514.927" svgx:width="0.5,0.4,0.48,0.55,0.83,0.5,0.33,0.48,0.4,0.55,0.88,0.55,0.29,0.48,0.44,0.6,0.29,0.48,0.42,0.55,0.48,0.52,0.29,0.42,0.33,0.29,0.58,0.56,0.55,0.55,0.48,0.33,0.83,0.48,0.48,0.58,0.55,0.33,0.58,0.48,0.55,0.29,0.5,0.56,0.48,0.4,0.42,0.25,0.55,0.33,0.58,0.48,0.55,0.44,0.55,0.56,0.5,0.29,0.6,0.48,0.55,0.83,0.29,0.29,0.29,0.55,0.56,0.5,0.4,0.56,0.55,0.83,0.29,0.33,0.58,0.55,0.33,0.58,0.48,0.55,0.5,0.88,0.55,0.6,0.58,0.33,0.55,0.55,0.33,0.55,0.83,0.5,0.33,0.48,0.4" style="fill:rgb(0,0,0);font-family:URWPalladioL-Roma;font-size:9.96px;stroke:none;">are water molecules existing between the layers, the c value will vary with the amount of water</text>
   <text y="611.559" x="76.535,85.446,90.957,93.893,98.728,103.208,109.294,112.231,117.065,121.2482,123.837,128.883,134.756,140.8316,143.426,146.716,152.589,157.3698,159.916,163.206,168.817,174.883,179.6638,182.22,187.73,191.0168,193.583,198.417,203.625,208.106,213.979,219.026,224.899,230.51,235.344,240.391,245.971,248.908,253.6888,256.245,260.726,265.772,269.062,271.999,277.509,283.383,287.5662,290.155,295.736,300.57,303.86,312.277,317.111,321.945,327.7218,330.321,333.258,338.304,343.915,348.75,352.736,357.015,359.505,363.05,368.318,373.364,378.945,381.882" svgx:width="0.88,0.55,0.29,0.48,0.44,0.6,0.29,0.48,0.42,0.55,0.5,0.58,0.61,0.55,0.33,0.58,0.48,0.55,0.33,0.56,0.6,0.48,0.55,0.55,0.33,0.55,0.48,0.52,0.44,0.58,0.5,0.58,0.56,0.48,0.5,0.55,0.29,0.48,0.55,0.44,0.5,0.33,0.29,0.55,0.58,0.42,0.55,0.55,0.48,0.33,0.83,0.48,0.48,0.58,0.55,0.29,0.5,0.56,0.48,0.4,0.42,0.25,0.55,0.61,0.5,0.55,0.29,0.48" style="fill:rgb(0,0,0);font-family:URWPalladioL-Roma;font-size:9.96px;stroke:none;">molecules and the type of exchangeable cations between layers. Table</text>
   <text y="611.559" x="389.209" svgx:width="0.5" style="fill:rgb(8,117,183);font-family:URWPalladioL-Roma;font-size:9.96px;stroke:none;">3</text>
   <text y="611.559" x="396.758,399.694,403.8772,406.466,409.756,415.63,420.4108,422.967,428.013,431.303,436.813,445.725,448.661,453.0434,455.635,460.116,465.626,471.137,474.941,481.108,484.044,489.918,494.964,498.254,503.088,507.2712,509.87,515.38" svgx:width="0.29,0.42,0.55,0.33,0.58,0.48,0.55,0.5,0.33,0.55,0.88,0.29,0.44,0.55,0.44,0.55,0.55,0.4,0.61,0.29,0.58,0.5,0.33,0.48,0.42,0.55,0.55,0.33" style="fill:rgb(0,0,0);font-family:URWPalladioL-Roma;font-size:9.96px;stroke:none;">is the atomic coordinates of</text>
   <text y="625.069" x="76.535,85.508,91.056,96.97,100.283,109.256,114.805,118.818,121.776,124.733,127.69,133.238,139.152,142.109,145.422,150.2028,153.125,156.082,161.8588,164.831,168.144,174.058,178.8388,181.751,185.064,190.978,194.819,199.686,204.554,207.938,214.147,217.104,226.077,230.944,236.859,241.167,244.124,249.673,255.587,260.668,263.5564,266.46,275.433,280.971,287.18,292.047,295.005,297.495,302.067,308.276,313.357,317.666,322.533,328.6086,331.577,337.125,342.9018,345.865,349.177,355.092,359.959,364.268,369.04879999999997,371.97,378.078,383.159,387.173,392.253,401.226,406.094,409.407,414.274,418.288,422.597,425.087,428.054,431.366,437.281,442.0618,444.983,453.956,459.505,465.419,468.732,477.704,483.253,487.267,490.224,493.181,496.138,501.686,507.601,510.558,513.87" svgx:width="0.88,0.55,0.58,0.33,0.88,0.55,0.4,0.29,0.29,0.29,0.55,0.58,0.29,0.33,0.48,0.55,0.29,0.58,0.55,0.33,0.58,0.48,0.55,0.33,0.58,0.4,0.48,0.48,0.33,0.61,0.29,0.88,0.48,0.58,0.42,0.29,0.55,0.58,0.5,0.29,0.55,0.88,0.55,0.61,0.48,0.29,0.25,0.55,0.61,0.5,0.42,0.48,0.61,0.55,0.55,0.58,0.55,0.33,0.58,0.48,0.42,0.48,0.55,0.6,0.5,0.4,0.5,0.88,0.48,0.33,0.48,0.4,0.42,0.25,0.55,0.33,0.58,0.48,0.55,0.88,0.55,0.58,0.33,0.88,0.55,0.4,0.29,0.29,0.29,0.55,0.58,0.29,0.33,0.48" style="fill:rgb(0,0,0);font-family:URWPalladioL-Roma;font-size:9.96px;stroke:none;">montmorillonite in the three-dimensional model. Based on these parameters, the montmorillonite</text>
   <text y="638.578" x="76.535,85.482,91.014,97.204,102.057,104.9454,107.488,111.987,117.053,122.82979999999999,125.442,131.045,135.8258,138.381,143.983,150.093,153.041,155.99,159.293,161.78300000000002,165.311,173.194,176.4808,178.979,185.069,188.898,193.752,198.048,202.901,208.798,212.101,214.591,217.116,226.063,231.595,235.891,239.1778,241.686,245.506,250.359,254.655,259.508,264.574,268.394,272.893,278.789,283.643,287.645,291.8282,294.423,300.533,304.828,309.6088,312.174,316.47,322.58,328.669,333.522,337.342,340.716,345.215,350.068,353.016,355.965,360.1482,362.743,368.275,371.5618,374.141,379.207" svgx:width="0.88,0.55,0.61,0.48,0.29,0.55,0.44,0.5,0.58,0.55,0.55,0.48,0.55,0.55,0.6,0.29,0.29,0.33,0.25,0.55,0.78,0.33,0.55,0.6,0.4,0.48,0.42,0.48,0.58,0.33,0.25,0.55,0.88,0.55,0.42,0.33,0.55,0.4,0.48,0.42,0.48,0.5,0.4,0.44,0.58,0.48,0.4,0.42,0.55,0.6,0.42,0.48,0.55,0.42,0.6,0.6,0.48,0.4,0.33,0.44,0.48,0.29,0.29,0.42,0.55,0.55,0.33,0.55,0.5,0.5" style="fill:rgb(0,0,0);font-family:URWPalladioL-Roma;font-size:9.96px;stroke:none;">model can be built. At present, most researchers use super-cells of 4a</text>
   <text y="638.578" x="386.758" svgx:width="0.67" style="fill:rgb(0,0,0);font-family:Pxsy;font-size:9.96px;stroke:none;">×</text>
   <text y="638.578" x="395.909,400.975" svgx:width="0.5,0.55" style="fill:rgb(0,0,0);font-family:URWPalladioL-Roma;font-size:9.96px;stroke:none;">2b</text>
   <text y="638.578" x="409.064" svgx:width="0.67" style="fill:rgb(0,0,0);font-family:Pxsy;font-size:9.96px;stroke:none;">×</text>
   <text y="638.578" x="418.215,423.281,427.6634,430.262,435.328,441.225,447.30060000000003,449.908,454.974" svgx:width="0.5,0.44,0.55,0.5,0.58,0.61,0.55,0.5,0.5" style="fill:rgb(0,0,0);font-family:URWPalladioL-Roma;font-size:9.96px;stroke:none;">1c and 4a</text>
   <text y="638.578" x="462.524" svgx:width="0.67" style="fill:rgb(0,0,0);font-family:Pxsy;font-size:9.96px;stroke:none;">×</text>
   <text y="638.578" x="471.675,476.741" svgx:width="0.5,0.55" style="fill:rgb(0,0,0);font-family:URWPalladioL-Roma;font-size:9.96px;stroke:none;">4b</text>
   <text y="638.578" x="484.83" svgx:width="0.67" style="fill:rgb(0,0,0);font-family:Pxsy;font-size:9.96px;stroke:none;">×</text>
   <text y="638.578" x="493.981,499.047,503.42940000000004,506.028,509.402,514.934" svgx:width="0.5,0.44,0.55,0.33,0.55,0.4" style="fill:rgb(0,0,0);font-family:URWPalladioL-Roma;font-size:9.96px;stroke:none;">1c for</text>
   <text y="652.087" x="76.535,80.776,83.687,92.519,98.55,101.461,106.462,109.723,112.634,118.095,123.8718,126.417,130.188,134.979,139.22,144.012,149.013,152.784,157.225,163.0018,165.547" svgx:width="0.42,0.29,0.88,0.6,0.29,0.5,0.33,0.29,0.55,0.58,0.55,0.4,0.48,0.42,0.48,0.5,0.4,0.44,0.58,0.55,0.33" style="fill:rgb(0,0,0);font-family:URWPalladioL-Roma;font-size:9.96px;stroke:none;">simulation research [</text>
   <text y="652.087" x="168.874,173.855" svgx:width="0.5,0.5" style="fill:rgb(8,117,183);font-family:URWPalladioL-Roma;font-size:9.96px;stroke:none;">21</text>
   <text y="652.087" x="178.837" svgx:width="0.25" style="fill:rgb(0,0,0);font-family:URWPalladioL-Roma;font-size:9.96px;stroke:none;">,</text>
   <text y="652.087" x="181.338,186.319" svgx:width="0.5,0.5" style="fill:rgb(8,117,183);font-family:URWPalladioL-Roma;font-size:9.96px;stroke:none;">31</text>
   <text y="652.087" x="191.3,194.631,197.121,200.642,207.734,213.195,219.017,223.258,226.169,232.28,237.071,241.022,243.933,249.754,255.33159999999998,257.816,261.077,266.898,271.6788,274.18,277.961,282.752,286.993,291.785,296.786,300.557,304.998,310.77479999999997,313.31,319.321,325.353,329.304,335.315,340.776,345.018,349.79879999999997,352.309,357.311,363.132,369.2076,371.744,376.185,381.646,387.468,390.729,395.52,401.341,404.62780000000004,407.103,412.564,415.85080000000005,418.385,421.646,427.468,430.378,434.5612,437.12,445.462,450.923,454.874,460.436,462.926,465.437,470.438" svgx:width="0.33,0.25,0.55,0.71,0.55,0.58,0.42,0.29,0.61,0.48,0.4,0.29,0.58,0.56,0.55,0.33,0.58,0.48,0.55,0.4,0.48,0.42,0.48,0.5,0.4,0.44,0.58,0.55,0.6,0.6,0.4,0.6,0.55,0.42,0.48,0.55,0.5,0.58,0.61,0.55,0.44,0.55,0.58,0.33,0.48,0.58,0.33,0.55,0.55,0.33,0.55,0.33,0.58,0.29,0.42,0.55,0.83,0.55,0.4,0.56,0.25,0.55,0.5,0.5" style="fill:rgb(0,0,0);font-family:URWPalladioL-Roma;font-size:9.96px;stroke:none;">]. Considering the research purpose and content of this work, 8a</text>
   <text y="652.087" x="477.94" svgx:width="0.67" style="fill:rgb(0,0,0);font-family:Pxsy;font-size:9.96px;stroke:none;">×</text>
   <text y="652.087" x="487.104,492.105" svgx:width="0.5,0.55" style="fill:rgb(0,0,0);font-family:URWPalladioL-Roma;font-size:9.96px;stroke:none;">4b</text>
   <text y="652.087" x="500.134" svgx:width="0.67" style="fill:rgb(0,0,0);font-family:Pxsy;font-size:9.96px;stroke:none;">×</text>
   <text y="652.087" x="509.298,514.299" svgx:width="0.5,0.44" style="fill:rgb(0,0,0);font-family:URWPalladioL-Roma;font-size:9.96px;stroke:none;">1c</text>
   <text y="665.597" x="76.535,80.793,86.848,92.884,97.694,101.678,104.151,107.074,112.095,115.881,121.464,126.2448,128.765,134.821,140.665,143.587,146.8738,149.342,153.8,158.611,161.533,164.42139999999998,166.946,175.321,180.342,184.5252,187.091,191.901,196.159,199.433,204.454,210.007,212.929,215.852,220.11,225.954,230.765,236.8406,239.381,242.655,248.133,250.628,254.886,257.809,266.676,272.731,275.654,280.675,283.949,288.7298,291.249,294.523,300.368,305.1488,307.659,313.503,319.087,325.222,329.189,334.21,337.484,340.406,345.89,351.66679999999997,354.225,360.26,364.046,369.529,375.565,380.375,384.341,387.615,390.538,395.348,399.5312,402.096,407.579,410.86580000000004,413.414,422.281,427.764,433.609,436.883,445.75,451.233,455.2,458.122,461.045,463.967,469.45,475.295,478.207,481.481,486.291,488.781,491.292,499.667,505.512,508.434,512.893" svgx:width="0.42,0.6,0.6,0.48,0.4,0.55,0.29,0.5,0.4,0.56,0.48,0.55,0.6,0.58,0.29,0.33,0.55,0.44,0.48,0.29,0.29,0.55,0.83,0.5,0.42,0.55,0.48,0.42,0.33,0.5,0.55,0.29,0.29,0.42,0.58,0.48,0.61,0.55,0.33,0.55,0.55,0.42,0.29,0.88,0.6,0.29,0.5,0.33,0.48,0.55,0.33,0.58,0.48,0.55,0.58,0.56,0.61,0.4,0.5,0.33,0.29,0.55,0.58,0.55,0.6,0.4,0.55,0.6,0.48,0.4,0.33,0.29,0.48,0.42,0.55,0.55,0.33,0.55,0.88,0.55,0.58,0.33,0.88,0.55,0.4,0.29,0.29,0.29,0.55,0.58,0.29,0.33,0.48,0.25,0.55,0.83,0.58,0.29,0.44,0.58" style="fill:rgb(0,0,0);font-family:URWPalladioL-Roma;font-size:9.96px;stroke:none;">super large unit cell was established to simulate the hydration properties of montmorillonite, which</text>
   <text y="679.106" x="76.535,80.892,85.799,91.5758,94.012,99.723,105.081,108.3678,110.783,116.141,121.852,124.708,130.2856,132.666,141.331,146.032,150.732,154.0188,156.434,159.633,165.344,170.1248,172.547,178.258,182.959,187.659,193.655,197.8382,200.318,205.676,208.9628,211.446,217.158,220.013,225.459,231.171,234.439,237.294,241.995,247.539,252.24,255.1284,257.598,260.453,265.36,270.816,275.516,279.5,281.895,286.252,291.963,296.87,300.569,306.026,310.8068,313.228,321.893,327.251,332.963,336.162,344.827,350.185,354.061,356.917,359.772,362.628,367.986,373.697,376.553,379.752,384.5328,386.955,395.62,400.978,406.973,411.674,414.53,417.385,423.096,428.553,431.043,433.508,438.935,444.852,448.1388,450.554,455.46,458.316,462.477,467.955,470.337,475.037,480.749,484.909,490.827,494.526,499.3068,501.719,504.918,510.63,515.536" svgx:width="0.44,0.5,0.58,0.55,0.58,0.55,0.33,0.55,0.55,0.58,0.29,0.56,0.55,0.88,0.48,0.48,0.33,0.55,0.33,0.58,0.48,0.55,0.58,0.48,0.48,0.61,0.42,0.55,0.55,0.33,0.55,0.58,0.29,0.56,0.58,0.33,0.29,0.48,0.56,0.48,0.29,0.55,0.29,0.5,0.56,0.48,0.4,0.55,0.44,0.58,0.5,0.4,0.56,0.48,0.55,0.88,0.55,0.58,0.33,0.88,0.55,0.4,0.29,0.29,0.29,0.55,0.58,0.29,0.33,0.48,0.55,0.88,0.55,0.61,0.48,0.29,0.29,0.58,0.56,0.25,0.55,0.55,0.6,0.33,0.55,0.5,0.29,0.42,0.55,0.55,0.48,0.58,0.42,0.6,0.4,0.48,0.55,0.33,0.58,0.5,0.33" style="fill:rgb(0,0,0);font-family:URWPalladioL-Roma;font-size:9.96px;stroke:none;">can not only meet the needs of high-level layer charge montmorillonite modeling, but also ensure that</text>
   <text y="692.616" x="76.535,79.783,85.581,90.3618,92.844,97.068,99.967,108.764,114.771,117.671,122.652,125.9,130.672,136.7476,139.25,142.149,147.13,152.669,157.441,161.425,163.867,168.291,174.089,179.07,182.826,188.365,193.1458,195.628,198.527,202.7102,205.242,209.665,215.105,220.903,225.127,228.026,232.25,235.498,240.27,246.068,249.3548,251.807,260.116,263.015,266.263,272.03979999999996,274.552,277.799,283.598,288.3788,290.86,295.842,300.265,303.513,309.52,314.502,317.3904,319.891,324.663,329.804,335.792,340.564,344.499,347.398,356.195,360.967,366.765,370.013,374.994,377.8824,380.384,384.608,389.59,398.387,404.374,407.273,412.045,416.27" svgx:width="0.33,0.58,0.48,0.55,0.42,0.29,0.88,0.6,0.29,0.5,0.33,0.48,0.61,0.55,0.29,0.5,0.56,0.48,0.4,0.55,0.44,0.58,0.5,0.4,0.56,0.48,0.55,0.29,0.42,0.55,0.44,0.55,0.58,0.42,0.29,0.42,0.33,0.48,0.58,0.33,0.55,0.83,0.29,0.33,0.58,0.55,0.33,0.58,0.48,0.55,0.5,0.44,0.33,0.6,0.5,0.29,0.55,0.48,0.52,0.6,0.48,0.4,0.29,0.88,0.48,0.58,0.33,0.5,0.29,0.55,0.42,0.5,0.88,0.6,0.29,0.48,0.42,0.25" style="fill:rgb(0,0,0);font-family:URWPalladioL-Roma;font-size:9.96px;stroke:none;">the simulated layer charge is consistent with the actual experimental samples.</text>
   <text y="706.125" x="97.795,105.701,110.213,114.725,120.273,124.104,130.313,133.27,139.184,144.7616,148.238,151.551,157.029,160.504,163.806,169.721,174.5018,177.992,181.305,186.955,193.062,197.93,202.1132,205.643,210.724,216.638,222.7136,226.241,230.753,236.301,242.215,245.528,250.396,256.31,259.622,263.8052,267.335,272.884,276.17080000000004,279.662,282.974,288.889,293.6698,297.16,302.028,304.985,309.852,318.825,323.693,329.607,332.92,337.1032,340.623,346.171,349.4578,352.959,357.827,362.908,367.419,373.19579999999996,376.738,385.711,391.259,397.173,400.486,409.459,415.007,419.021,421.978,424.935,427.893,433.441,439.355,442.312,445.625,450.4058,453.887,456.844,462.6208,466.162,471.477,476.558,482.177,485.134" svgx:width="0.78,0.44,0.44,0.55,0.4,0.61,0.29,0.58,0.56,0.55,0.33,0.55,0.55,0.33,0.58,0.48,0.55,0.33,0.56,0.6,0.48,0.42,0.55,0.5,0.58,0.61,0.55,0.44,0.55,0.58,0.33,0.48,0.58,0.33,0.42,0.55,0.55,0.33,0.55,0.33,0.58,0.48,0.55,0.48,0.29,0.48,0.88,0.48,0.58,0.33,0.42,0.55,0.55,0.33,0.55,0.48,0.5,0.44,0.58,0.55,0.88,0.55,0.58,0.33,0.88,0.55,0.4,0.29,0.29,0.29,0.55,0.58,0.29,0.33,0.48,0.55,0.29,0.58,0.55,0.61,0.5,0.55,0.29,0.48" style="fill:rgb(0,0,0);font-family:URWPalladioL-Roma;font-size:9.96px;stroke:none;">According to the types and contents of the elements of each montmorillonite in Table</text>
   <text y="706.125" x="493.396" svgx:width="0.5" style="fill:rgb(8,117,183);font-family:URWPalladioL-Roma;font-size:9.96px;stroke:none;">2</text>
   <text y="706.125" x="498.477,500.967,504.645,507.958,513.872" svgx:width="0.25,0.55,0.33,0.58,0.48" style="fill:rgb(0,0,0);font-family:URWPalladioL-Roma;font-size:9.96px;stroke:none;">, the</text>
   <text y="719.634" x="76.535,79.449,83.694,89.161,98.002,103.468,107.423,113.441,119.268,122.182,126.5644,129.11,133.355,139.393,144.93,149.175,152.439,155.353,158.617,164.654,167.918,170.832,176.299,182.07580000000002,184.609,190.076,193.3628,195.883,204.724,210.191,216.018,219.282,228.123,233.59,237.545,240.458,243.372,246.285,251.752,257.579,260.493,263.757,268.5378,271.036,279.387,284.393,288.5762,291.121,295.567,301.033,309.874,315.892,318.805,323.601,326.865,331.661,337.7366,340.262,345.268,351.095,357.17060000000004,359.686,364.132,368.087,373.653,377.899,381.163,386.169,389.0574,391.566,400.407,405.873,411.991,416.787,419.701,423.8842,426.429,434.779,437.693,440.957,446.7338,449.267,455.385" svgx:width="0.29,0.42,0.55,0.88,0.55,0.4,0.6,0.58,0.29,0.44,0.55,0.42,0.6,0.55,0.42,0.33,0.29,0.33,0.6,0.33,0.29,0.55,0.58,0.55,0.55,0.33,0.55,0.88,0.55,0.58,0.33,0.88,0.55,0.4,0.29,0.29,0.29,0.55,0.58,0.29,0.33,0.48,0.55,0.83,0.5,0.42,0.55,0.44,0.55,0.88,0.6,0.29,0.48,0.33,0.48,0.61,0.55,0.5,0.58,0.61,0.55,0.44,0.4,0.56,0.42,0.33,0.5,0.29,0.55,0.88,0.55,0.61,0.48,0.29,0.42,0.55,0.83,0.29,0.33,0.58,0.55,0.61,0.29" style="fill:rgb(0,0,0);font-family:URWPalladioL-Roma;font-size:9.96px;stroke:none;">isomorphic substitution of montmorillonite was completed and crystal models with di</text>
   <text y="719.634" x="458.296" svgx:width="0.61" style="fill:rgb(0,0,0);font-family:Rpxr;font-size:9.96px;stroke:none;">ﬀ</text>
   <text y="719.634" x="464.383,469.179,472.954,477.75,483.577,486.8638,489.324,493.769,499.597,504.603,508.378,513.944" svgx:width="0.48,0.4,0.48,0.58,0.33,0.55,0.44,0.58,0.5,0.4,0.56,0.48" style="fill:rgb(0,0,0);font-family:URWPalladioL-Roma;font-size:9.96px;stroke:none;">erent charge</text>
   <text y="733.144" x="76.117,84.442,89.224,92.987,97.7678,100.265,105.046,109.279,112.533,117.525,123.045,125.95,128.855,133.087,138.897,143.679,149.778,152.268,155.778,159.142,164.9188,167.447,172.898,176.661,182.76,187.542,191.526,193.981,197.235,202.71300000000002,205.171,208.944,213.726,219.825,225.845,230.277,235.0578,237.544,240.799,246.609,251.3898,253.886" svgx:width="0.83,0.48,0.4,0.48,0.55,0.48,0.42,0.33,0.5,0.55,0.29,0.29,0.42,0.58,0.48,0.61,0.25,0.55,0.34,0.58,0.55,0.55,0.4,0.61,0.48,0.4,0.55,0.33,0.55,0.55,0.4,0.48,0.61,0.6,0.44,0.48,0.55,0.33,0.58,0.48,0.55,0.48" style="fill:rgb(0,0,0);font-family:URWPalladioL-Roma;font-size:9.96px;stroke:none;">were established. In order to reduce the e</text>
   <text y="733.144" x="258.672" svgx:width="0.61" style="fill:rgb(0,0,0);font-family:Rpxr;font-size:9.96px;stroke:none;">ﬀ</text>
   <text y="733.144" x="264.741,269.523,273.955,277.2418,279.705,285.155,288.4418,290.975,294.229,300.039,304.8198,307.316,310.571,316.121,322.121,326.902,331.0852,333.63,339.081,342.36780000000005,344.901,349.133,355.153,360.673,364.906,368.16,371.065,374.319,380.339,383.593,388.375,394.4506,396.97,401.961,407.771,413.8466,416.366,419.271,425.08,428.335,433.116,437.059,439.954,444.946,453.76,456.665,462.475,467.466,471.45,473.905,478.337,483.328,486.583,489.488,494.938,500.748,504.9312,507.476,512.927" svgx:width="0.48,0.44,0.33,0.55,0.55,0.33,0.55,0.33,0.58,0.48,0.55,0.33,0.56,0.6,0.48,0.42,0.55,0.55,0.33,0.55,0.42,0.6,0.55,0.42,0.33,0.29,0.33,0.6,0.33,0.48,0.61,0.55,0.5,0.58,0.61,0.55,0.29,0.58,0.33,0.48,0.4,0.29,0.5,0.88,0.29,0.58,0.5,0.4,0.55,0.44,0.5,0.33,0.29,0.55,0.58,0.42,0.55,0.55,0.58" style="fill:rgb(0,0,0);font-family:URWPalladioL-Roma;font-size:9.96px;stroke:none;">ect of the types of substituted and interlaminar cations on</text>
   <text y="746.653" x="76.535,82.31,87.827,93.89,97.809,102.771,106.006,108.893,114.311,120.0878,122.557,128.52,132.261,137.679,143.643,148.396,152.315,155.55,158.437,163.19,167.398,169.888,172.359,175.594,181.369,186.1498,188.593,197.354,202.772,206.979,210.2658,212.685,217.646,223.134,229.117,234.892,240.955,245.916,251.691,254.9778,257.407,262.16,265.037,269.79,278.552,283.305,289.08,292.315,296.4982,299.003,301.891,307.6678,310.136,313.371,318.124,321.359,325.278,330.24,336.015,340.768,346.831,350.572,355.989,361.76579999999996,364.235,369.197,374.972,381.0476,383.505,388.923,393.329,396.563,401.525,407.3,412.053,418.116,421.857,427.274,433.0508,435.53,440.948,444.2348,446.723,455.485,460.903,466.678,469.912,478.674,484.092,488.012,490.899,493.787,496.674,502.092,507.867,510.754,513.989" svgx:width="0.58,0.56,0.61,0.4,0.5,0.33,0.29,0.55,0.58,0.55,0.6,0.4,0.55,0.6,0.48,0.4,0.33,0.29,0.48,0.42,0.25,0.55,0.33,0.58,0.48,0.55,0.88,0.55,0.42,0.33,0.55,0.5,0.55,0.6,0.58,0.61,0.5,0.58,0.33,0.55,0.48,0.29,0.48,0.88,0.48,0.58,0.33,0.42,0.55,0.29,0.58,0.55,0.33,0.48,0.33,0.4,0.5,0.58,0.48,0.61,0.4,0.55,0.58,0.55,0.5,0.58,0.61,0.55,0.55,0.44,0.33,0.5,0.58,0.48,0.61,0.4,0.55,0.58,0.55,0.55,0.33,0.55,0.88,0.55,0.58,0.33,0.88,0.55,0.4,0.29,0.29,0.29,0.55,0.58,0.29,0.33,0.48" style="fill:rgb(0,0,0);font-family:URWPalladioL-Roma;font-size:9.96px;stroke:none;">hydration properties, the most abundant elements in tetrahedron and octahedron of montmorillonite</text>
   <text y="760.163" x="76.117,84.26,88.936,92.617,97.3978,98.924,103.064,107.74,110.582,115.258,119.593,122.776,127.453,135.049,139.93,144.1132,145.7,148.883,154.565,159.3458,160.873,165.012,170.9,176.299,180.438,183.621,186.462,189.645,195.532,198.715,203.4958,205.022,209.357,214.239,217.422,220.263,225.594,231.276,235.416,237.906,239.663,243.802,250.764,258.36,261.2484,262.831,266.512,271.189,277.056,279.898,284.779,289.114,293.791,301.387,306.512,309.4004,310.984,313.825,321.138,324.321,328.997,332.18,336.037,340.919,346.601,351.277,357.243,360.924,366.254,373.567,378.449,384.131,391.727,400.963,408.022,411.703,416.38,422.247,425.088,429.97,434.305,438.982,446.578,454.173,457.0614,458.645,461.486,468.799,474.13,478.465,481.648,486.529,492.211,496.888,502.854,506.534,511.865,517.547" svgx:width="0.83,0.48,0.4,0.48,0.55,0.42,0.48,0.29,0.48,0.44,0.33,0.48,0.61,0.5,0.42,0.55,0.33,0.58,0.48,0.55,0.42,0.6,0.55,0.42,0.33,0.29,0.33,0.6,0.33,0.48,0.55,0.44,0.5,0.33,0.29,0.55,0.58,0.42,0.25,0.55,0.42,0.55,0.78,0.29,0.55,0.4,0.48,0.6,0.29,0.5,0.44,0.48,0.61,0.52,0.29,0.55,0.29,0.58,0.33,0.48,0.33,0.4,0.5,0.58,0.48,0.61,0.4,0.55,0.58,0.5,0.58,0.61,0.95,0.56,0.4,0.48,0.6,0.29,0.5,0.44,0.48,0.61,0.78,0.29,0.55,0.29,0.58,0.55,0.44,0.33,0.5,0.58,0.48,0.61,0.4,0.55,0.58,0.25" style="fill:rgb(0,0,0);font-family:URWPalladioL-Roma;font-size:9.96px;stroke:none;">were selectedas the substitute cations, soAl replacedSi intetrahedronandMgreplacedAl inoctahedron,</text>
  </g>
 </g>
</svg>
