<?xml version="1.0" encoding="UTF-8"?>
<svg height="679.126" width="490.08" xmlns="http://www.w3.org/2000/svg">
 <g id="page" xmlns:svgx="http://www.xml-cml.org/schema/svgx">
  <path style="fill:none;stroke:rgb(0,0,0);stroke-width:1.0;" d="M458.15 51.69 L480.08 51.69 "/>
  <g begin="text">
   <text y="54.66" x="467.424" svgx:width="0.38" style="fill:rgb(255,255,255);font-family:MyriadPro-BoldCond;font-size:8.97px;stroke:none;">2</text>
   <text y="71.598" transform="matrix(0.0,1.0,-1.0,0.0,539.121,-395.925)" rotateDegrees="90" matrix="[0.0,-10.9589,10.9589,0.0,467.523,628.5601]" x="467.523,464.958,460.845,457.15500000000003,453.168,451.07500000000005,447.908,443.711,440.401,438.385,434.406,431.499,427.707,423.33500000000004,418.973,414.6,412.507,410.49100000000004,407.324,402.88500000000005,400.869,396.43100000000004,392.29900000000004,390.175,385.978,383.41400000000004,379.041,375.96200000000005,373.901,369.704,365.34200000000004,362.624,358.18600000000004,354.197,352.10400000000004,349.02500000000003,346.307,343.14000000000004,340.345" svgx:width="0.25,0.38,0.35,0.36,0.19,0.29,0.38,0.3,0.18,0.36,0.25,0.35,0.4,0.4,0.4,0.19,0.18,0.29,0.41,0.18,0.41,0.4,0.19,0.38,0.25,0.4,0.28,0.19,0.38,0.4,0.25,0.41,0.36,0.19,0.28,0.25,0.29,0.25,0.36" style="fill:rgb(0,146,207);font-family:MyriadPro-Cond;font-size:10.96px;stroke:none;">royalsocietypublishing.org/journal/rsta</text>
   <text y="208.252" transform="matrix(0.0,1.0,-1.0,0.0,675.775,-259.271)" rotateDegrees="90" matrix="[0.0,-10.9589,10.9589,0.0,467.523,491.9059]" x="467.523,463.24800000000005,458.937,456.975,455.355,451.38300000000004,448.09700000000004,445.61300000000006,441.446,437.13500000000005,434.15600000000006,430.184,425.8190000000001,422.11,418.312,414.235,411.16700000000003,407.194" svgx:width="0.39,0.39,0.18,0.18,0.19,0.34,0.25,0.38,0.39,0.28,0.19,0.4,0.19,0.34,0.37,0.29,0.19,0.43" style="fill:rgb(0,146,207);font-family:MyriadPro-CondIt;font-size:10.96px;stroke:none;">Phil.Trans.R.Soc.A</text>
   <text y="274.959" transform="matrix(0.0,1.0,-1.0,0.0,742.482,-192.564)" rotateDegrees="90" matrix="[0.0,-10.9589,10.9589,0.0,467.523,425.1991]" x="467.523,463.564,459.28900000000004" svgx:width="0.36,0.35,0.35" style="fill:rgb(0,146,207);font-family:MyriadPro-BoldCond;font-size:10.96px;stroke:none;">377</text>
   <text y="287.073" transform="matrix(0.0,1.0,-1.0,0.0,754.596,-180.45)" rotateDegrees="90" matrix="[0.0,-10.9589,10.9589,0.0,467.523,413.08514]" x="467.523,463.401,459.72,455.501,452.564,448.345,444.126,440.301,436.619" svgx:width="0.19,0.34,0.38,0.27,0.38,0.38,0.34,0.34,0.31" style="fill:rgb(0,146,207);font-family:MyriadPro-Cond;font-size:10.96px;stroke:none;">:20180227</text>
   <text y="72.597" transform="matrix(0.0,1.0,-1.0,0.0,533.766,-388.572)" rotateDegrees="90" matrix="[0.0,-8.9664,8.9664,0.0,461.169,627.561]" x="461.169,457.224,453.279,449.33299999999997,445.388,441.443,437.498,433.553,429.60699999999997,425.662,421.717,417.772,413.827,409.881,405.936,401.991,398.046,394.101,390.15599999999995,386.21,382.265,378.32,374.375,370.42999999999995,366.484,362.539,358.594,354.649,350.70399999999995,346.758,342.813,338.868,334.923,330.97799999999995,327.032,323.087,319.142,315.197,311.251,307.306,303.361,299.416,295.471,291.525,287.58,283.635,279.69,275.74399999999997,271.799,267.854,263.90899999999993,259.96399999999994,256.018,252.07299999999998,248.128,244.18299999999994,240.23699999999997,236.29199999999997,232.34699999999998,228.402,224.45699999999994,220.51099999999997,216.56599999999997,212.62099999999998" svgx:width="0.25,0.25,0.25,0.25,0.25,0.25,0.25,0.25,0.25,0.25,0.25,0.25,0.25,0.25,0.25,0.25,0.25,0.25,0.25,0.25,0.25,0.25,0.25,0.25,0.25,0.25,0.25,0.25,0.25,0.25,0.25,0.25,0.25,0.25,0.25,0.25,0.25,0.25,0.25,0.25,0.25,0.25,0.25,0.25,0.25,0.25,0.25,0.25,0.25,0.25,0.25,0.25,0.25,0.25,0.25,0.25,0.25,0.25,0.25,0.25,0.25,0.25,0.25,0.25" style="fill:rgb(0,0,0);font-family:Palatino-Roman;font-size:8.97px;stroke:none;">................................................................</text>
  </g>
  <path style="fill:none;stroke:rgb(224,220,207);stroke-width:17.89;" d="M55.55 76.14 L438.85 76.14 "/>
  <g begin="text">
   <text y="54.219" x="61.524,67.003,71.299,79.217,84.114,89.333,93.136,96.06,99.603,104.087,107.011,111.3166,119.295,127.215,132.112,135.496,139.8016,147.781,152.767,157.063,162.282,166.578,170.121,174.605,177.215,179.825,184.8482,192.803,195.727,200.946,205.43,208.39010000000002,216.348,218.958,224.437,228.733,233.952,236.876,239.486,242.473,247.459,250.07,255.289,260.31219999999996,268.258,272.056,277.464,280.074,282.998,287.482,292.441,295.051,299.3566,307.336,312.555,317.452,321.255,324.179,328.663,333.649,339.057,343.352,347.155,350.1151,358.072,363.292,368.278,373.757,377.141,382.038,387.024,391.32,396.539,399.526,404.485,409.382,414.601,420.08,422.691,427.91" svgx:width="0.61,0.48,0.88,0.55,0.58,0.42,0.33,0.4,0.5,0.33,0.48,0.55,0.88,0.55,0.4,0.48,0.55,0.56,0.48,0.58,0.48,0.4,0.5,0.29,0.29,0.56,0.55,0.33,0.58,0.5,0.33,0.55,0.29,0.61,0.48,0.58,0.33,0.29,0.33,0.56,0.29,0.58,0.56,0.55,0.42,0.6,0.29,0.33,0.5,0.55,0.29,0.48,0.55,0.58,0.55,0.42,0.33,0.5,0.56,0.6,0.48,0.42,0.33,0.55,0.58,0.56,0.61,0.4,0.55,0.56,0.48,0.58,0.33,0.55,0.55,0.58,0.61,0.29,0.58,0.56" style="fill:rgb(0,0,0);font-family:Palatino-Roman;font-size:8.97px;stroke:none;">demonstrate more generally that identifying suitable host–guest hydrogen-bonding</text>
   <text y="66.171" x="61.524,66.51,70.806,75.703,83.621,87.917,90.841,94.383,96.993,101.289,105.0564,106.986,114.905,119.389,124.4122,126.265,131.656,135.04,139.937,145.004,147.614,153.093,157.3986,159.277,163.762,165.658,169.042,173.938,179.346,182.27,186.5756,188.453,191.378,196.3115,198.174,202.467,207.686,212.672,215.283,220.502,224.798,229.093,232.636,235.246,240.466,245.4892,247.342,252.562,257.548,262.508,266.05,268.66,274.1317,276.023,281.412,285.708,289.092,293.989,299.056,302.858,307.845,310.455,313.379,317.68460000000005,319.571,324.962,330.182,334.666,338.468,342.764,346.5314,348.461,355.94,358.55,361.474,366.6766,368.585,374.066,378.362,382.164,384.774,388.317,392.801,397.76,400.371,404.6766,406.563,410.545,414.087,419.074,422.876,425.8,430.284" svgx:width="0.56,0.48,0.55,0.88,0.48,0.33,0.4,0.29,0.48,0.42,0.55,0.88,0.5,0.56,0.55,0.6,0.4,0.55,0.56,0.29,0.61,0.48,0.55,0.5,0.55,0.4,0.55,0.6,0.33,0.48,0.55,0.33,0.55,0.55,0.48,0.58,0.56,0.29,0.58,0.48,0.48,0.4,0.29,0.58,0.56,0.55,0.58,0.56,0.55,0.4,0.29,0.61,0.55,0.6,0.48,0.4,0.55,0.56,0.42,0.56,0.29,0.33,0.48,0.55,0.6,0.58,0.5,0.42,0.48,0.42,0.55,0.83,0.29,0.33,0.58,0.55,0.61,0.48,0.42,0.29,0.4,0.5,0.55,0.29,0.48,0.55,0.44,0.4,0.56,0.42,0.33,0.5,0.29" style="fill:rgb(0,0,0);font-family:Palatino-Roman;font-size:8.97px;stroke:none;">geometries may provide a route to engineering hybrid perovskite phases with desirable crystal</text>
   <text y="78.132" x="61.524,65.326,68.249,71.723,77.133,81.114,84.037,89.444,92.827,97.122,100.924" svgx:width="0.42,0.33,0.4,0.6,0.44,0.33,0.6,0.4,0.48,0.42,0.25" style="fill:rgb(0,0,0);font-family:Palatino-Roman;font-size:8.97px;stroke:none;">structures.</text>
   <text y="90.085" x="70.497,75.994,81.213,83.823,87.59039999999999,90.25,94.734,98.276,101.2,103.81,107.792,110.403,114.7086,117.333,119.943,123.71039999999999,126.378,131.77,136.254,139.796,142.7561,145.349,150.246,153.20610000000002,155.871,158.795,164.014,168.3196,170.945,173.869,179.088,183.384,191.302,195.6076,198.223,200.833,204.636,208.439,213.846,218.1516,220.785,223.278,231.761,234.371,239.59,243.886,247.429,251.913,254.523,259.42,267.338,269.948,277.866,282.162,285.965,288.575,292.377,294.6195,297.255,302.475,306.96,309.883,315.291,318.834,323.318,325.91929999999996,328.556,333.04,338.259,343.7307,346.369,350.167,355.153,360.372,363.296,368.516,372.811,375.735,378.345,382.2918,384.961,387.949,391.492,395.976,403.894,408.19,415.669,420.566,424.108,429.094" svgx:width="0.61,0.58,0.29,0.42,0.55,0.5,0.4,0.33,0.29,0.44,0.29,0.48,0.55,0.29,0.42,0.55,0.6,0.5,0.4,0.33,0.55,0.55,0.33,0.55,0.33,0.58,0.48,0.55,0.33,0.58,0.48,0.88,0.48,0.55,0.29,0.42,0.42,0.6,0.48,0.55,0.28,0.95,0.29,0.58,0.48,0.4,0.5,0.29,0.55,0.88,0.29,0.88,0.48,0.42,0.29,0.42,0.25,0.55,0.58,0.5,0.33,0.6,0.4,0.5,0.29,0.55,0.5,0.58,0.61,0.55,0.42,0.56,0.58,0.33,0.58,0.48,0.33,0.29,0.44,0.55,0.33,0.4,0.5,0.88,0.48,0.83,0.55,0.4,0.56,0.42" style="fill:rgb(0,0,0);font-family:Palatino-Roman;font-size:8.97px;stroke:none;">This article is part of the theme issue ‘Mineralomimesis: natural and synthetic frameworks</text>
   <text y="102.037" x="61.524,64.133,69.3356,71.594,75.396,79.377,81.986,86.281,91.5,95.481,99.78659999999999,102.023,106.506,111.724,117.1957,119.446,122.369,126.664,130.645,135.864,141.082,145.978,148.587,153.483,158.468,163.453,165.946" svgx:width="0.29,0.58,0.55,0.42,0.44,0.29,0.48,0.58,0.44,0.48,0.55,0.5,0.58,0.61,0.55,0.33,0.48,0.44,0.58,0.58,0.55,0.29,0.55,0.56,0.56,0.28,0.25" style="fill:rgb(0,0,0);font-family:Palatino-Roman;font-size:8.97px;stroke:none;">in science and technology’.</text>
   <text y="146.586" x="55.548,59.82,62.8486,69.289,72.461,78.814,82.879,86.606,92.711,99.071,105.416,110.473,114.538,117.471,123.576" svgx:width="0.27,0.19,0.55,0.2,0.41,0.25,0.25,0.38,0.4,0.4,0.3,0.25,0.18,0.38,0.41" style="fill:rgb(0,146,207);font-family:MyriadPro-Cond;font-size:15.94px;stroke:none;">1. Introduction</text>
   <text y="164.514" x="55.548,61.045,66.265,70.5706,75.696,80.917,85.903,90.862,94.405,97.015,102.4867,107.626,113.015,117.311,120.695,125.592,130.659,134.461,139.448,142.058,144.982,149.277,153.0444,158.214,162.698,166.082,170.3876,175.514,179.99900000000002,185.144,188.131,192.615,200.533,203.143,205.753,210.7762,215.869,220.766,223.7261,228.893,236.811,241.295,244.219,248.515,252.057,254.668,259.152,261.762,265.5294,270.699,275.181,280.4,284.884,287.494,292.391,297.377,302.274,307.681,311.4484,316.618,319.228,324.4306,329.587,333.385,336.309,339.784,345.191,349.173,352.097,357.505,360.889,365.19460000000004,370.321,373.245,378.1785,383.271,386.195,391.414,395.7196,400.846,403.456,408.675,413.572,416.956,421.942,426.426,431.645,434.255" svgx:width="0.61,0.58,0.48,0.55,0.58,0.56,0.55,0.4,0.29,0.61,0.55,0.6,0.48,0.4,0.55,0.56,0.42,0.56,0.29,0.33,0.48,0.42,0.55,0.5,0.4,0.48,0.55,0.5,0.55,0.33,0.5,0.88,0.29,0.29,0.56,0.55,0.55,0.33,0.55,0.88,0.5,0.33,0.48,0.4,0.29,0.5,0.29,0.42,0.55,0.5,0.58,0.5,0.29,0.55,0.56,0.55,0.6,0.42,0.55,0.29,0.58,0.55,0.42,0.33,0.4,0.6,0.44,0.33,0.6,0.4,0.48,0.55,0.33,0.55,0.55,0.33,0.58,0.48,0.55,0.29,0.58,0.55,0.4,0.56,0.5,0.58,0.29,0.44" style="fill:rgb(0,0,0);font-family:Palatino-Roman;font-size:8.97px;stroke:none;">The hybrid perovskites are a family of materials analogous in structure to the inorganic</text>
   <text y="176.475" x="55.548,60.938,65.234,68.617,73.514,78.581,82.384,87.37,89.98,92.904,97.2,101.002,103.2445,107.023,110.048,115.2506,119.039,123.998,128.895,131.819,137.02159999999998,140.81,143.734,148.954,153.2596,157.018,159.628,164.848,169.744,173.128,178.114,182.598,187.818,190.428,194.3748,198.168,202.65,207.869,213.3407,217.122,222.341,227.327,232.287,235.829,238.439,243.9107,247.683,255.601,260.085,263.009,267.305,270.847,273.458,277.942,280.552,284.354,286.5965,290.366" svgx:width="0.6,0.48,0.4,0.55,0.56,0.42,0.56,0.29,0.33,0.48,0.42,0.25,0.55,0.34,0.58,0.55,0.55,0.55,0.33,0.58,0.55,0.33,0.58,0.48,0.55,0.29,0.58,0.55,0.4,0.56,0.5,0.58,0.29,0.44,0.55,0.5,0.58,0.61,0.55,0.58,0.56,0.55,0.4,0.29,0.61,0.55,0.88,0.5,0.33,0.48,0.4,0.29,0.5,0.29,0.42,0.25,0.55,0.28" style="fill:rgb(0,0,0);font-family:Palatino-Roman;font-size:8.97px;stroke:none;">perovskites. In both the inorganic and hybrid materials, ‘</text>
   <text y="176.475" x="292.849" svgx:width="0.67" style="fill:rgb(0,0,0);font-family:Palatino-Bold;font-size:8.97px;stroke:none;">B</text>
   <text y="176.475" x="298.834,301.82,305.622,308.231,311.154,315.449,317.9606,321.713,325.694,330.177,333.1,335.709,340.605,345.823,349.5904,353.393,357.875,361.259,365.56460000000004,369.323,371.933,374.542,379.76,384.746,389.041,394.5127,398.293,403.252,408.2752,412.01,416.492,421.711,424.32,429.215,434.434" svgx:width="0.33,0.42,0.29,0.33,0.48,0.28,0.55,0.44,0.5,0.33,0.29,0.55,0.58,0.42,0.55,0.5,0.4,0.48,0.55,0.29,0.29,0.58,0.56,0.48,0.61,0.55,0.55,0.56,0.55,0.5,0.58,0.29,0.55,0.58,0.42" style="fill:rgb(0,0,0);font-family:Palatino-Roman;font-size:8.97px;stroke:none;">-site’ cations are linked by anions</text>
   <text y="188.427" x="55.547,58.157,63.377,66.301,71.2345,76.327,80.812,85.948,89.926,95.334,100.293,102.903,106.8498,112.02,117.24,121.535,124.459,131.938,136.835,140.377,145.364,147.6065,152.735,160.214,162.824,165.748,170.95059999999998,176.098" svgx:width="0.29,0.58,0.33,0.55,0.55,0.5,0.55,0.44,0.6,0.55,0.29,0.44,0.55,0.58,0.48,0.33,0.83,0.55,0.4,0.56,0.25,0.55,0.83,0.29,0.33,0.58,0.55,0.28" style="fill:rgb(0,0,0);font-family:Palatino-Roman;font-size:8.97px;stroke:none;">into a cubic network, with ‘</text>
   <text y="188.427" x="178.598" svgx:width="0.78" style="fill:rgb(0,0,0);font-family:Palatino-Bold;font-size:8.97px;stroke:none;">A</text>
   <text y="188.427" x="185.573,188.56,192.363,194.973,197.897,202.193,204.7046,209.825,213.807,218.291,221.215,223.825,228.721,233.941,237.7084,242.878,247.774,251.756,255.738,261.146,266.535,271.522,274.132,279.351,284.3742,289.467,292.391,297.61,301.91560000000004,307.042,311.024,316.432,321.391,324.001,327.9478,333.109,335.719,340.939,343.862,348.158,351.701,355.504,358.428,361.038,365.02,369.315,373.118,375.3605,380.516,383.539,388.7416,393.898,396.822,402.041,406.3466,411.464,416.683,421.669,426.629,430.171,432.781" svgx:width="0.33,0.42,0.29,0.33,0.48,0.28,0.55,0.44,0.5,0.33,0.29,0.55,0.58,0.42,0.55,0.55,0.44,0.44,0.6,0.6,0.56,0.29,0.58,0.56,0.55,0.33,0.58,0.48,0.55,0.44,0.6,0.55,0.29,0.44,0.55,0.29,0.58,0.33,0.48,0.4,0.42,0.33,0.29,0.44,0.48,0.42,0.25,0.55,0.34,0.58,0.55,0.33,0.58,0.48,0.55,0.58,0.56,0.55,0.4,0.29,0.61" style="fill:rgb(0,0,0);font-family:Palatino-Roman;font-size:8.97px;stroke:none;">-site’ cations occupying the cubic interstices. In the hybrid</text>
   <text y="200.389" x="55.546,63.464,67.947,70.87,75.165,78.706,81.316,85.799,88.408,92.21,94.4525,97.691,102.909,107.805,115.283,119.578,124.644,128.939,131.819,134.0615,137.3,141.78500000000003,145.022,148.406,152.701,155.31,159.793,162.716,165.325,170.391,174.686,177.296,182.3192,185.512,188.122,192.605,195.989,200.975,205.2806,208.509,211.118,213.727,218.945,223.931,228.226,231.814,235.002,239.485,244.703,247.312,252.208,257.4106,260.659,264.461,269.867,273.848,279.05060000000003,282.317,286.8,290.5674,293.838,296.447,301.343,306.822,309.431,314.909,319.204,321.4465,324.685,328.666,333.652,338.135,343.353,345.963,351.441,355.7466,358.966,363.862,367.45000000000005,370.648,373.636,378.532,382.074,389.991,394.474,397.397,401.7026,404.922,409.217,413.844,419.232,423.716,428.934,434.412" svgx:width="0.88,0.5,0.33,0.48,0.4,0.29,0.5,0.29,0.42,0.25,0.55,0.58,0.55,0.83,0.48,0.56,0.48,0.4,0.25,0.55,0.5,0.55,0.4,0.48,0.29,0.5,0.33,0.29,0.56,0.48,0.29,0.56,0.55,0.29,0.5,0.4,0.56,0.48,0.55,0.29,0.29,0.58,0.56,0.48,0.4,0.55,0.5,0.58,0.29,0.55,0.58,0.55,0.42,0.6,0.44,0.58,0.55,0.5,0.42,0.55,0.29,0.55,0.61,0.29,0.61,0.48,0.25,0.55,0.44,0.56,0.5,0.58,0.29,0.61,0.48,0.55,0.55,0.4,0.55,0.33,0.55,0.4,0.88,0.5,0.33,0.48,0.55,0.48,0.52,0.6,0.5,0.58,0.61,0.42" style="fill:rgb(0,0,0);font-family:Palatino-Roman;font-size:8.97px;stroke:none;">materials, however, a relatively large linker anion such as iodide, cyanide or formate expands</text>
   <text y="212.341" x="55.546,58.47,63.689,67.9946,73.482,78.701,82.997,85.921,93.4,98.296,101.839,106.8622,112.315,116.294,121.19,129.108,134.498,138.982,142.366,146.659,152.1307,157.63,160.555,165.48850000000002,170.951,173.875,179.094,183.3996,188.886,191.497,196.716,201.612,204.996,209.983,214.467,219.686,222.296,226.2428,231.765,236.247,241.466,245.95,248.561,253.457,258.443,263.851,268.147,271.949,274.1915,279.698,284.18,286.791,289.401,294.297,301.776,304.386,309.606,314.62919999999997,320.082,323.006,328.225,332.53060000000005,338.017,340.627,345.847,348.771,353.067,356.609,360.412,363.336,365.946,368.87,371.48,375.964" svgx:width="0.33,0.58,0.48,0.55,0.58,0.48,0.33,0.83,0.55,0.4,0.56,0.55,0.44,0.55,0.88,0.6,0.5,0.4,0.48,0.61,0.55,0.33,0.55,0.55,0.33,0.58,0.48,0.55,0.29,0.58,0.55,0.4,0.56,0.5,0.58,0.29,0.44,0.55,0.5,0.58,0.5,0.29,0.55,0.56,0.6,0.48,0.42,0.25,0.55,0.5,0.29,0.29,0.55,0.83,0.29,0.58,0.56,0.55,0.33,0.58,0.48,0.55,0.29,0.58,0.33,0.48,0.4,0.42,0.33,0.29,0.33,0.29,0.5,0.29" style="fill:rgb(0,0,0);font-family:Palatino-Roman;font-size:8.97px;stroke:none;">the network compared to the inorganic analogues, allowing the interstitial</text>
   <text y="212.341" x="384.065" svgx:width="0.78" style="fill:rgb(0,0,0);font-family:Palatino-Bold;font-size:8.97px;stroke:none;">A</text>
   <text y="212.341" x="396.539,400.342,402.952,405.876,410.1816,415.668,418.592,423.52549999999997,428.987,433.946" svgx:width="0.42,0.29,0.33,0.48,0.55,0.33,0.55,0.55,0.55,0.48" style="fill:rgb(0,0,0);font-family:Palatino-Roman;font-size:8.97px;stroke:none;">site to be</text>
   <text y="224.293" x="55.546,60.443,64.425,68.407,73.814,79.204,81.814,86.11,91.5817,93.463,98.423,103.4462,105.272,109.757,111.627,117.018,121.915,124.525,129.511,133.995,136.919,141.816,149.734,152.344,156.2908,158.186,163.082,166.466,171.452,175.936,181.156,183.766,187.7128,189.616,192.226,197.123,202.32559999999998,204.206,208.009,213.417,217.399,222.6016,224.491,228.975,232.7424,234.646,239.13,244.33259999999999,246.222,250.706,253.316,258.303,263.289,265.899,270.383,278.301,286.219,291.116,296.335,298.945,304.353,312.271,314.5135,316.366,321.352,326.76,331.244,336.463,339.074,344.553,347.163,352.382,354.992,360.4,368.318,370.5605,372.413,375.4,380.296,383.839,391.757,396.241,404.16,406.77,412.249,414.859,420.079,422.689,428.096,436.015" svgx:width="0.55,0.44,0.44,0.6,0.6,0.29,0.48,0.61,0.55,0.55,0.56,0.55,0.5,0.55,0.6,0.55,0.29,0.56,0.5,0.33,0.55,0.88,0.29,0.44,0.55,0.55,0.4,0.56,0.5,0.58,0.29,0.44,0.55,0.29,0.55,0.58,0.55,0.42,0.6,0.44,0.58,0.55,0.5,0.42,0.55,0.5,0.58,0.55,0.5,0.29,0.56,0.56,0.29,0.5,0.88,0.88,0.55,0.58,0.29,0.6,0.88,0.25,0.55,0.56,0.6,0.5,0.58,0.29,0.61,0.29,0.58,0.29,0.6,0.88,0.25,0.55,0.33,0.55,0.4,0.88,0.5,0.88,0.29,0.61,0.29,0.58,0.29,0.6,0.88,0.25" style="fill:rgb(0,0,0);font-family:Palatino-Roman;font-size:8.97px;stroke:none;">occupied by a polyatomic organic ion such as an alkylammonium, guanidinium, formamidinium,</text>
   <text y="236.254" x="55.546,60.03,64.012,68.308,71.232,75.716,83.634,86.244,91.724,94.334,99.553,102.163,107.571,117.678,122.575,126.163,128.317,130.927,138.845,141.455,146.934,151.419,155.903,160.799,163.409,166.019,171.427,179.345,181.5875,183.774,189.253,191.863,196.85,201.1556,203.339,206.262,211.482,215.778,218.388,221.976,224.121,226.731,231.95,236.847,240.231,245.217,249.701,254.92,257.531,261.4778,263.705,268.187,273.406,277.891,280.501,285.397,290.383,295.791,300.087,303.889,306.1315,308.327,311.251,316.47,320.77560000000005,322.959,328.179,333.165,338.124,341.667,344.277,349.7487,351.945,359.863,364.347,367.271,371.567,375.11,377.72,382.204,384.814,388.58140000000003,390.808,395.101,399.729,404.948,407.558,412.517,415.127,418.0871,420.239,425.199,430.095,433.019" svgx:width="0.5,0.44,0.48,0.33,0.5,0.88,0.29,0.61,0.29,0.58,0.29,0.6,0.88,0.55,0.4,0.55,0.29,0.88,0.29,0.61,0.5,0.5,0.55,0.29,0.29,0.6,0.88,0.25,0.55,0.61,0.29,0.56,0.48,0.55,0.33,0.58,0.48,0.29,0.4,0.55,0.29,0.58,0.55,0.4,0.56,0.5,0.58,0.29,0.44,0.55,0.5,0.58,0.5,0.29,0.55,0.56,0.6,0.48,0.42,0.25,0.55,0.33,0.58,0.48,0.55,0.58,0.56,0.55,0.4,0.29,0.61,0.55,0.88,0.5,0.33,0.48,0.4,0.29,0.5,0.29,0.42,0.55,0.48,0.52,0.58,0.29,0.55,0.29,0.33,0.55,0.55,0.55,0.33,0.58" style="fill:rgb(0,0,0);font-family:Palatino-Roman;font-size:8.97px;stroke:none;">acetamidiniumor imidazolium. Like their inorganic analogues, the hybrid materials exhibit both</text>
   <text y="248.206" x="55.546,60.031,62.989,67.975,71.359,75.652,80.137,83.0971,86.005,91.484,94.095,99.161,103.457,107.0,110.803,113.413,116.337,121.3602,124.275,129.171,132.1311,135.111,140.503,145.399,148.323,152.619,157.839,160.762,163.373,167.857,170.4583,173.41,177.392,182.288,190.206,195.596,200.493,204.295,206.905,209.829,212.439,217.336,222.555,226.358,228.6005,231.551,239.03,241.64,244.564,249.76659999999998,252.736,257.956,263.364,268.583,274.063,277.447,281.742,287.222,290.9894,293.963,298.859,301.8191,304.8,307.724,312.943,317.239,321.041,325.3466,328.295,336.213,340.697,343.621,347.917,351.46,354.07,358.554,361.164,364.9314,367.905,371.289,375.585,380.975,385.871,389.414,392.338,396.633,402.1047,405.057,409.954,415.021,419.317,422.90500000000003,425.815,428.739,433.958" svgx:width="0.5,0.55,0.56,0.4,0.48,0.5,0.33,0.55,0.61,0.29,0.56,0.48,0.4,0.42,0.29,0.33,0.56,0.55,0.55,0.33,0.55,0.6,0.55,0.33,0.48,0.58,0.33,0.29,0.5,0.29,0.55,0.44,0.55,0.88,0.6,0.55,0.42,0.29,0.33,0.29,0.55,0.58,0.42,0.25,0.55,0.83,0.29,0.33,0.58,0.55,0.58,0.6,0.58,0.61,0.4,0.48,0.61,0.42,0.55,0.55,0.33,0.55,0.33,0.58,0.48,0.42,0.48,0.55,0.88,0.5,0.33,0.48,0.4,0.29,0.5,0.29,0.42,0.55,0.4,0.48,0.6,0.55,0.4,0.33,0.48,0.61,0.55,0.55,0.56,0.48,0.4,0.55,0.33,0.58,0.48" style="fill:rgb(0,0,0);font-family:Palatino-Roman;font-size:8.97px;stroke:none;">a great diversity of potential compositions, with hundreds of these materials reported over the</text>
   <text y="260.159" x="55.546,60.935,65.418,69.22,72.1801,74.575,80.053,84.348,88.329,92.812,98.291,102.5966,105.014" svgx:width="0.6,0.5,0.42,0.33,0.55,0.61,0.48,0.44,0.5,0.61,0.48,0.55,0.33" style="fill:rgb(0,0,0);font-family:Palatino-Roman;font-size:8.97px;stroke:none;">past decade [</text>
   <text y="260.159" x="107.999" svgx:width="0.5" style="fill:rgb(9,0,76);font-family:Palatino-Roman;font-size:8.97px;stroke:none;">1</text>
   <text y="260.159" x="112.481" svgx:width="0.25" style="fill:rgb(0,0,0);font-family:Palatino-Roman;font-size:8.97px;stroke:none;">,</text>
   <text y="260.159" x="114.722" svgx:width="0.5" style="fill:rgb(9,0,76);font-family:Palatino-Roman;font-size:8.97px;stroke:none;">2</text>
   <text y="260.159" x="119.204,122.191,124.43350000000001,126.862,131.346,136.566,142.0377,144.477,147.087,155.005,160.395,165.291,168.834,171.758,176.242,181.461,184.42110000000002,186.798,189.785,195.193,200.412,204.394,207.318,209.928,214.824,220.044,224.528,227.138,229.748,232.672,236.659,238.9015,241.322,249.24,254.137,257.939,260.89910000000003,263.294,266.281,270.765,278.683,283.58,288.987,292.79,295.4,300.42319999999995,302.816,305.426,310.646,314.628,317.238,322.645,328.125,330.735,335.954,340.9772,343.361,347.164,352.06,354.671,359.155,362.743,365.122,369.415,374.634,378.93,382.314,387.3,392.3232,394.716,398.695,403.591,408.811,413.877,418.173,421.716,425.519,428.129,433.025" svgx:width="0.33,0.25,0.55,0.5,0.58,0.61,0.55,0.29,0.88,0.6,0.55,0.4,0.33,0.5,0.58,0.33,0.55,0.33,0.6,0.58,0.44,0.33,0.29,0.55,0.58,0.5,0.29,0.29,0.33,0.56,0.25,0.55,0.88,0.55,0.42,0.33,0.55,0.33,0.5,0.88,0.55,0.6,0.42,0.29,0.56,0.55,0.29,0.58,0.44,0.29,0.6,0.61,0.29,0.58,0.56,0.55,0.42,0.55,0.29,0.5,0.4,0.55,0.48,0.58,0.48,0.4,0.56,0.56,0.55,0.44,0.55,0.58,0.56,0.48,0.4,0.42,0.29,0.55,0.58" style="fill:rgb(0,0,0);font-family:Palatino-Roman;font-size:8.97px;stroke:none;">], and important functionality, most famously including solar energy conversion</text>
   <text y="272.12" x="55.547" svgx:width="0.33" style="fill:rgb(0,0,0);font-family:Palatino-Roman;font-size:8.97px;stroke:none;">[</text>
   <text y="272.12" x="58.535" svgx:width="0.5" style="fill:rgb(9,0,76);font-family:Palatino-Roman;font-size:8.97px;stroke:none;">3</text>
   <text y="272.12" x="63.017,65.97710000000001,68.246,73.206,78.613,81.5731,83.771,88.255,90.865,94.668,99.6015,101.814,104.8,109.096,112.639,116.023,120.919,125.215,127.825,132.121,136.103,139.027,142.57,145.18,149.1268,151.39" svgx:width="0.33,0.55,0.55,0.6,0.33,0.55,0.5,0.29,0.42,0.55,0.55,0.33,0.48,0.4,0.4,0.55,0.48,0.29,0.48,0.44,0.33,0.4,0.29,0.44,0.55,0.33" style="fill:rgb(0,0,0);font-family:Palatino-Roman;font-size:8.97px;stroke:none;">] but also ferroelectric [</text>
   <text y="272.12" x="154.368" svgx:width="0.5" style="fill:rgb(9,0,76);font-family:Palatino-Roman;font-size:8.97px;stroke:none;">4</text>
   <text y="272.12" x="158.85,161.8101,164.079,168.561,173.781,179.2527,181.503,185.485,189.969,192.579,197.475,201.018,203.628,207.57479999999998,209.847,214.807,219.102,224.322,228.806,233.873,236.483,241.379,246.787,250.375,252.565" svgx:width="0.33,0.55,0.5,0.58,0.61,0.55,0.44,0.5,0.29,0.55,0.4,0.29,0.44,0.55,0.55,0.48,0.58,0.5,0.56,0.29,0.55,0.6,0.4,0.55,0.33" style="fill:rgb(0,0,0);font-family:Palatino-Roman;font-size:8.97px;stroke:none;">] and caloric behaviour [</text>
   <text y="272.12" x="255.546" svgx:width="0.5" style="fill:rgb(9,0,76);font-family:Palatino-Roman;font-size:8.97px;stroke:none;">5</text>
   <text y="272.12" x="260.029,263.017" svgx:width="0.33,0.25" style="fill:rgb(0,0,0);font-family:Palatino-Roman;font-size:8.97px;stroke:none;">].</text>
   <text y="284.072" x="67.509,73.006,78.226,82.522,85.906,90.2116,93.357,95.968,99.7354,102.934,107.227,112.294,116.589,120.132,125.15520000000001,128.286,131.67,135.963,140.447,144.25,149.146,154.34859999999998,157.534,160.458,165.3915,168.523,172.819,177.446,182.836,187.132,191.114,194.07410000000002,197.206,200.13,205.35,209.6556,212.811,218.2,223.42,227.904,231.706,236.0116,239.167,244.649,247.259,251.743,256.729,260.272,264.756,272.674,276.4414,279.631,284.528,287.48810000000003,290.684,293.608,298.827,301.437,305.2044,308.403,311.392,315.876,323.794,326.404,329.014,334.0372,337.159,342.056,345.0161,348.203,356.121,360.606,363.53,367.825,371.368,373.978,378.462,381.072,384.8394,388.038,390.963,395.8965,399.027,403.987,408.29260000000005,411.448,415.93,419.6974,422.896,426.442,429.052,433.034" svgx:width="0.61,0.58,0.48,0.4,0.48,0.55,0.29,0.42,0.55,0.48,0.56,0.48,0.4,0.56,0.55,0.4,0.48,0.5,0.42,0.55,0.58,0.55,0.33,0.55,0.55,0.48,0.52,0.6,0.48,0.44,0.33,0.55,0.33,0.58,0.48,0.55,0.6,0.58,0.5,0.42,0.48,0.55,0.61,0.29,0.5,0.56,0.4,0.5,0.88,0.42,0.55,0.55,0.33,0.55,0.33,0.58,0.29,0.42,0.55,0.33,0.5,0.88,0.29,0.29,0.56,0.55,0.55,0.33,0.55,0.88,0.5,0.33,0.48,0.4,0.29,0.5,0.29,0.42,0.55,0.33,0.55,0.55,0.55,0.48,0.55,0.5,0.42,0.55,0.4,0.29,0.44,0.58" style="fill:rgb(0,0,0);font-family:Palatino-Roman;font-size:8.97px;stroke:none;">There is every reason to expect the phase diagrams of this family of materials to be as rich</text>
   <text y="296.024" x="55.548,60.032,63.7994,66.98,69.904,75.123,80.02,83.823,88.12859999999999,91.257,96.153,99.1131,102.283,105.207,110.426,114.722,117.332,120.91999999999999,124.01,126.62,131.84,136.736,140.12,145.106,149.59,154.81,157.42,161.36679999999998,164.539,168.517,173.414,178.822,184.041,186.965,191.261,194.803,200.193,204.677,208.22,211.144,214.91140000000001,218.074" svgx:width="0.5,0.42,0.55,0.33,0.58,0.55,0.42,0.48,0.55,0.55,0.33,0.55,0.33,0.58,0.48,0.29,0.4,0.55,0.29,0.58,0.55,0.4,0.56,0.5,0.58,0.29,0.44,0.55,0.44,0.55,0.6,0.58,0.33,0.48,0.4,0.6,0.5,0.4,0.33,0.42,0.55,0.33" style="fill:rgb(0,0,0);font-family:Palatino-Roman;font-size:8.97px;stroke:none;">as those of their inorganic counterparts [</text>
   <text y="296.024" x="221.059" svgx:width="0.5" style="fill:rgb(9,0,76);font-family:Palatino-Roman;font-size:8.97px;stroke:none;">6</text>
   <text y="296.024" x="225.541,228.528,230.7705,233.91,236.933,242.152,247.632,251.927,256.223,261.703,263.9455,267.085,272.044,276.34,280.322,284.806,290.214,294.017,298.3226,301.46,304.384,309.603,313.90860000000004,317.037,322.427,327.323,329.933,334.919,339.404,342.328,347.224,355.142,357.752,361.6988,364.872,367.482,370.092,375.311,380.297,384.593,388.18100000000004,391.271,395.754,400.973,403.583,408.48,413.699,417.4664,420.638,423.248,427.544,432.763" svgx:width="0.33,0.25,0.55,0.34,0.58,0.61,0.48,0.48,0.61,0.25,0.55,0.55,0.48,0.44,0.5,0.6,0.42,0.48,0.55,0.33,0.58,0.48,0.55,0.6,0.55,0.29,0.56,0.5,0.33,0.55,0.88,0.29,0.44,0.55,0.29,0.29,0.58,0.56,0.48,0.4,0.55,0.5,0.58,0.29,0.55,0.58,0.42,0.55,0.29,0.48,0.58,0.61" style="fill:rgb(0,0,0);font-family:Palatino-Roman;font-size:8.97px;stroke:none;">]. Indeed, because the polyatomic linker anions lend</text>
   <text y="307.985" x="55.549,58.473,63.692,67.9976,70.433,73.42,76.962,81.447,89.365,93.661,101.139,106.036,109.579,114.565,118.33239999999999,120.793,125.779,129.163,133.459,137.943,140.867,145.163,148.751,151.148,156.602,160.898,165.525,168.135,173.095,175.705,178.315,180.925,183.849,187.837,190.0795,192.526,200.005,204.3106,206.737,214.655,217.265,222.251,227.471,230.43110000000001,232.834,237.317,242.536,245.46,248.07,252.052,254.662,260.052,264.536,267.46,271.7656,274.201,278.685,283.8876,286.344,290.64,295.707,300.003,305.2056,307.671,312.657,316.041,320.337,324.821,327.745,332.04,335.62800000000004,338.026,343.507,346.117,351.184,355.48,359.022,362.825,365.435,368.359,373.38219999999995,375.784,380.681,383.6411,386.108,391.499,396.719,401.203,405.005,409.301,413.0684,415.556,418.166,423.3686,425.825,428.749,433.969" svgx:width="0.33,0.58,0.48,0.55,0.33,0.4,0.5,0.88,0.48,0.83,0.55,0.4,0.56,0.42,0.55,0.56,0.4,0.48,0.5,0.33,0.48,0.4,0.55,0.61,0.48,0.52,0.29,0.55,0.29,0.29,0.29,0.33,0.56,0.25,0.55,0.83,0.48,0.55,0.88,0.29,0.56,0.58,0.33,0.55,0.5,0.58,0.33,0.29,0.44,0.29,0.6,0.5,0.33,0.48,0.55,0.5,0.58,0.55,0.48,0.56,0.48,0.58,0.55,0.56,0.4,0.48,0.5,0.33,0.48,0.4,0.55,0.61,0.29,0.56,0.48,0.4,0.42,0.29,0.33,0.56,0.55,0.55,0.33,0.55,0.6,0.58,0.5,0.42,0.48,0.42,0.55,0.29,0.58,0.55,0.33,0.58,0.48" style="fill:rgb(0,0,0);font-family:Palatino-Roman;font-size:8.97px;stroke:none;">the frameworks greater ﬂexibility, we might anticipate an even greater diversity of phases in the</text>
   <text y="319.938" x="55.549,60.768,65.754,70.714,74.256,76.866,82.3377,84.157,92.075,96.559,99.483,103.779,107.322,109.932,114.416,117.026,120.829,123.0715,124.888,130.385,135.604,138.215,141.9824,143.831,149.221,154.44,158.924,162.727,167.0326,168.847,171.772,175.315,179.799,185.018,188.821,191.431,194.355,196.965,201.862,207.06459999999998,208.89,213.85,218.146,223.365,227.849,232.916,235.526,240.423,245.83,249.418,251.185,258.664,261.274,263.884,266.4853,268.313,273.792,278.088,283.477,287.773,292.993,298.4647,300.283,305.18,310.3826,312.218,315.205,320.613,325.832,331.311,335.795,343.714,348.009,353.229,356.153,360.637,363.247,365.857,370.8802,372.652,377.871,382.167,391.464,396.856,402.075,407.061,410.864,413.474,417.456,421.2234,423.073,427.557,432.776" svgx:width="0.58,0.56,0.55,0.4,0.29,0.61,0.55,0.88,0.5,0.33,0.48,0.4,0.29,0.5,0.29,0.42,0.25,0.55,0.61,0.58,0.29,0.42,0.55,0.6,0.58,0.5,0.42,0.48,0.55,0.33,0.4,0.5,0.58,0.42,0.29,0.33,0.29,0.55,0.58,0.55,0.55,0.48,0.58,0.5,0.56,0.29,0.55,0.6,0.4,0.55,0.83,0.29,0.29,0.29,0.55,0.61,0.48,0.6,0.48,0.58,0.61,0.55,0.55,0.58,0.55,0.33,0.6,0.58,0.61,0.5,0.88,0.48,0.58,0.33,0.5,0.29,0.29,0.56,0.55,0.58,0.48,0.83,0.6,0.58,0.56,0.42,0.29,0.44,0.42,0.55,0.5,0.58,0.61" style="fill:rgb(0,0,0);font-family:Palatino-Roman;font-size:8.97px;stroke:none;">hybrid materials. This phase transition behaviour will depend on fundamentally newphysics and</text>
   <text y="331.89" x="55.549,59.531,64.75,69.046,76.964,79.574,83.377,86.301,89.844,93.831,96.07350000000001,98.511,101.534,106.73660000000001,109.175,113.157,118.054,123.273,126.197,129.74,134.224,138.026,140.98610000000002,143.381,150.86,153.47,156.394,161.5966,164.044,166.968,172.187,176.4926,178.91,181.521,186.74,191.636,195.02,200.007,204.491,209.71,212.32,216.2668,218.719,224.111,228.407,231.791,236.687,241.754,245.557,250.543,253.153,256.077,260.373,264.176,266.4185,268.856,273.753,277.136,282.123,286.607,291.826,294.436" svgx:width="0.44,0.58,0.48,0.88,0.29,0.42,0.33,0.4,0.56,0.25,0.55,0.34,0.58,0.55,0.44,0.55,0.58,0.33,0.4,0.5,0.42,0.33,0.55,0.83,0.29,0.33,0.58,0.55,0.33,0.58,0.48,0.55,0.29,0.58,0.55,0.4,0.56,0.5,0.58,0.29,0.44,0.55,0.6,0.48,0.4,0.55,0.56,0.42,0.56,0.29,0.33,0.48,0.42,0.25,0.55,0.55,0.4,0.56,0.5,0.58,0.29,0.44" style="fill:rgb(0,0,0);font-family:Palatino-Roman;font-size:8.97px;stroke:none;">chemistry. In contrast with the inorganic perovskites, organic</text>
   <text y="331.89" x="300.816" svgx:width="0.78" style="fill:rgb(0,0,0);font-family:Palatino-Bold;font-size:8.97px;stroke:none;">A</text>
   <text y="331.89" x="307.791,310.777,314.578,317.188,320.111,324.4166,326.843,330.821,335.304,338.227,340.836,345.732,350.951,354.71840000000003,357.179,362.399,366.882,371.948,376.2536,378.68,383.165,385.592,389.394,394.612,399.096,404.484,408.779,417.746,425.663,430.559,433.943" svgx:width="0.33,0.42,0.29,0.33,0.48,0.55,0.44,0.5,0.33,0.29,0.55,0.58,0.42,0.55,0.58,0.5,0.56,0.48,0.55,0.5,0.55,0.42,0.58,0.5,0.6,0.48,1.0,0.88,0.55,0.4,0.48" style="fill:rgb(0,0,0);font-family:Palatino-Roman;font-size:8.97px;stroke:none;">-site cations have a shape—more</text>
   <text y="343.851" x="55.548,58.535,63.431,66.974,74.892,79.376,81.986,84.596,88.584,90.82650000000001,93.479,96.403,101.623,105.919,110.9422,113.56,121.48,125.964,130.9872,133.605,138.824,143.308,148.375,152.6806,155.332,157.943,163.162,166.086,169.628,172.239,177.458,181.261,183.871,187.8178,190.495,194.788,197.398,201.694,205.676,208.6,212.143,214.753,218.69979999999998,221.395,226.876,229.486,234.876,239.773,242.383,246.6886,249.331,254.227,257.815,260.428,265.648,268.258,273.244,278.463,282.759,286.143,289.13,294.026,297.41,302.892,307.187,310.77500000000003,313.371,321.289,326.696,329.307,332.23,334.841,340.23,345.127,347.737,352.04260000000005,354.676,362.594,367.491,375.409,379.705,384.924,387.848,391.6154,394.301" svgx:width="0.33,0.55,0.4,0.88,0.5,0.29,0.29,0.56,0.25,0.55,0.33,0.58,0.48,0.56,0.55,0.88,0.5,0.56,0.55,0.58,0.5,0.56,0.48,0.55,0.29,0.58,0.33,0.4,0.29,0.58,0.42,0.29,0.44,0.55,0.48,0.29,0.48,0.44,0.33,0.4,0.29,0.44,0.55,0.61,0.29,0.6,0.55,0.29,0.48,0.55,0.55,0.4,0.55,0.58,0.29,0.56,0.58,0.48,0.4,0.33,0.55,0.4,0.61,0.48,0.4,0.55,0.88,0.6,0.29,0.33,0.29,0.6,0.55,0.29,0.48,0.55,0.88,0.55,0.88,0.48,0.58,0.33,0.42,0.55,0.33" style="fill:rgb(0,0,0);font-family:Palatino-Roman;font-size:8.97px;stroke:none;">formally, they may have intrinsic electric dipole or higher-order multipole moments [</text>
   <text y="343.851" x="397.288" svgx:width="0.5" style="fill:rgb(9,0,76);font-family:Palatino-Roman;font-size:8.97px;stroke:none;">7</text>
   <text y="343.851" x="401.77,404.756,413.722,421.2,426.419,429.028,433.009" svgx:width="0.33,1.0,0.83,0.58,0.29,0.44,0.58" style="fill:rgb(0,0,0);font-family:Palatino-Roman;font-size:8.97px;stroke:none;">]—which</text>
   <text y="355.803" x="55.548,63.027,65.637,68.247,70.8483,73.665,77.468,80.392,83.776,88.673,93.892,98.878,101.488,106.5112,109.283,111.893,117.112,122.565,127.972,132.268,137.487,141.469,145.7746,148.58,151.504,156.723,161.019,163.629,167.21699999999998,169.975,173.777,176.701,180.176,185.585,189.567,192.491,197.899,201.283,205.58859999999999,208.384,212.866,218.086,223.5577,226.375,231.765,235.149,240.045,245.435,249.731,253.273,256.197,258.807,263.103,266.906,269.1485,271.955,276.662,279.272,287.19,289.801,292.411,296.895,300.437,303.048,307.035,309.27750000000003,312.084,317.303,322.289,327.769,331.153,336.049,341.035,345.331,350.53360000000004,353.36,358.319,363.216,368.435,373.914,376.524,381.744,386.7672,389.529,394.489,398.784,401.708,409.187,413.483,417.779,422.9816,425.816,428.74,433.96" svgx:width="0.83,0.29,0.29,0.29,0.55,0.42,0.33,0.4,0.55,0.58,0.56,0.29,0.56,0.55,0.29,0.58,0.61,0.6,0.48,0.58,0.44,0.48,0.55,0.33,0.58,0.48,0.29,0.4,0.55,0.42,0.33,0.4,0.6,0.44,0.33,0.6,0.4,0.48,0.55,0.5,0.58,0.61,0.55,0.6,0.4,0.55,0.6,0.48,0.4,0.33,0.29,0.48,0.42,0.25,0.55,0.52,0.29,0.88,0.29,0.29,0.5,0.4,0.29,0.56,0.25,0.55,0.58,0.56,0.61,0.4,0.55,0.56,0.48,0.58,0.55,0.55,0.55,0.58,0.61,0.29,0.58,0.56,0.55,0.55,0.48,0.33,0.83,0.48,0.48,0.58,0.55,0.33,0.58,0.48" style="fill:rgb(0,0,0);font-family:Palatino-Roman;font-size:8.97px;stroke:none;">will strongly inﬂuence their structure and properties. Similarly, hydrogen bonding between the</text>
   <text y="367.755" x="55.548,60.445,63.828,68.815,73.299,78.518,81.128,85.0748,88.58,93.566,98.974,103.27,107.073,110.03309999999999,113.481,117.463,121.947,124.871,127.481,132.377,137.5796,141.071,145.555,150.775,156.2467,159.73,164.213,169.432,172.042,176.939,182.158,184.768,188.7148,192.22,195.207,198.749,203.234,211.152,215.448,222.927,227.823,231.366,236.38920000000002,239.817,247.737,252.221,257.2442,260.689,266.169,269.711,274.195,282.114,286.598,289.522,292.132,296.114,300.598,303.208,305.818,310.84119999999996,314.269,318.251,323.47,327.954,333.174,338.16,342.46560000000005,345.936,348.86,354.08,358.3856,361.847,365.231,369.524,372.135,376.619,379.543,382.153,387.22,391.52560000000005,394.987,398.79,401.714,406.198,411.157,413.767,416.377,418.988,421.911,426.9342,430.371,435.268" svgx:width="0.55,0.4,0.56,0.5,0.58,0.29,0.44,0.55,0.56,0.6,0.48,0.42,0.33,0.55,0.44,0.5,0.33,0.29,0.55,0.58,0.55,0.5,0.58,0.61,0.55,0.5,0.58,0.29,0.55,0.58,0.29,0.44,0.55,0.33,0.4,0.5,0.88,0.48,0.83,0.55,0.4,0.56,0.55,0.88,0.5,0.56,0.55,0.61,0.4,0.5,0.88,0.5,0.33,0.29,0.44,0.5,0.29,0.29,0.56,0.55,0.44,0.58,0.5,0.58,0.56,0.48,0.55,0.33,0.58,0.48,0.55,0.4,0.48,0.29,0.5,0.33,0.29,0.56,0.48,0.55,0.42,0.33,0.5,0.55,0.29,0.29,0.29,0.33,0.56,0.55,0.55,0.33" style="fill:rgb(0,0,0);font-family:Palatino-Roman;font-size:8.97px;stroke:none;">organic guest cation and anionic framework may dramatically change the relative stability of</text>
   <text y="379.717" x="55.548,61.026,63.636,66.462,69.45,73.745,77.129,81.424,86.643,89.6031,92.951,96.749,99.673,103.147,108.554,112.535,115.458,120.865,124.249,128.542,132.343,134.5855,137.969,143.465,148.684,152.979,156.78,161.0856,164.466,168.76,171.586,174.574,178.869,182.85,185.773,189.5404,192.964,198.183,202.666,207.732,212.0376,215.418,220.314,225.532,228.141,233.1642,236.511,239.895,244.188,248.17,252.464,257.683,260.606,263.215,268.23819999999995,271.594,276.554,280.848,285.834,291.241,296.4436,299.845,302.768,307.70149999999995,311.048,316.007,320.31260000000003,323.693,327.987,332.614,338.003,340.612,345.508,348.892,353.187,358.6587,362.052,366.535,371.753,377.2247,380.618,384.002,388.297,396.215,400.698,403.307,408.50960000000003,411.911,417.303,422.198,427.094,430.636,433.245" svgx:width="0.61,0.29,0.33,0.33,0.48,0.4,0.48,0.58,0.33,0.55,0.42,0.33,0.4,0.6,0.44,0.33,0.6,0.4,0.48,0.42,0.25,0.55,0.61,0.58,0.48,0.42,0.48,0.55,0.48,0.33,0.33,0.48,0.44,0.33,0.42,0.55,0.58,0.5,0.56,0.48,0.55,0.55,0.58,0.29,0.56,0.55,0.4,0.48,0.44,0.48,0.58,0.33,0.29,0.56,0.55,0.55,0.48,0.56,0.6,0.58,0.55,0.33,0.55,0.55,0.55,0.48,0.55,0.48,0.52,0.6,0.29,0.55,0.4,0.48,0.61,0.55,0.5,0.58,0.61,0.55,0.4,0.48,0.88,0.5,0.29,0.58,0.55,0.6,0.55,0.55,0.4,0.29,0.56" style="fill:rgb(0,0,0);font-family:Palatino-Roman;font-size:8.97px;stroke:none;">different structures. These effects have only recently begun to be explored and remain poorly</text>
   <text y="391.669" x="55.548,60.956,66.175,71.654,75.95,79.493,83.295,86.219,91.116,96.012,101.492,103.73450000000001,108.116,113.274,117.569,120.5291,124.869,132.787,137.271,142.661,148.051,150.661,155.88,160.9032,165.24,169.724,174.944,180.4157,184.799,190.208,195.427,200.907,205.203,208.745,212.548,215.472,219.956,225.175,230.655,233.265,238.484,243.5072,247.835,253.225,258.444,262.928,266.731,271.0366,275.407,278.332,281.874,286.358,291.578,295.38,297.991,300.914,303.525,308.421,313.64,317.4074,321.812,324.423,329.6256,334.017,336.941,342.16,346.46560000000005,350.836,356.055,361.041,366.001,369.543,372.153,377.6247,381.999,387.389,391.685,395.069,399.965,405.032,408.835,413.821,416.431,419.355,423.651,427.4184,431.832,434.442" svgx:width="0.6,0.58,0.61,0.48,0.4,0.42,0.33,0.55,0.55,0.61,0.25,0.55,0.67,0.48,0.33,0.55,0.88,0.5,0.6,0.6,0.29,0.58,0.56,0.55,0.5,0.58,0.61,0.55,0.6,0.58,0.61,0.48,0.4,0.42,0.33,0.5,0.58,0.61,0.29,0.58,0.56,0.55,0.6,0.58,0.5,0.42,0.48,0.55,0.33,0.4,0.5,0.58,0.42,0.29,0.33,0.29,0.55,0.58,0.42,0.55,0.29,0.58,0.55,0.33,0.58,0.48,0.55,0.58,0.56,0.55,0.4,0.29,0.61,0.55,0.6,0.48,0.4,0.55,0.56,0.42,0.56,0.29,0.33,0.48,0.42,0.55,0.29,0.42" style="fill:rgb(0,0,0);font-family:Palatino-Roman;font-size:8.97px;stroke:none;">understood. Yet mapping and understanding phase transitions in the hybrid perovskites is</text>
   <text y="403.63" x="55.548,60.507,65.404,68.328,73.5306,76.419,81.316,84.2761,87.175,89.785,95.005,97.929,101.471,104.081,109.301,113.103,115.713,119.65979999999999,122.563,125.173,130.392,133.316,137.612,140.996,145.289,149.092,152.05210000000002,154.888,157.874,161.258,166.155,174.0486,176.946,181.431,184.299,188.278,191.82,196.806,200.609,203.533,208.017,210.6183,213.498,217.794,223.013,228.0,230.61,235.829,240.125,244.421,247.963,250.574,255.793,260.8162,263.65,269.042,273.337,276.88,280.683,286.072,290.368,294.35,297.274,299.884,304.951,309.25660000000005,312.115,316.599,321.819,327.2907,330.18,335.076,338.03610000000003,340.936,345.922,349.306,353.599,358.083,361.04310000000004,363.879,368.946,373.43,376.04,381.448,385.7536,388.612,391.601,396.497,400.08500000000004,402.914,408.304,413.201,416.125,420.421,425.64,428.564,431.174,435.658" svgx:width="0.55,0.55,0.33,0.58,0.55,0.55,0.33,0.55,0.29,0.58,0.33,0.4,0.29,0.58,0.42,0.29,0.44,0.55,0.29,0.58,0.33,0.48,0.4,0.48,0.42,0.33,0.55,0.33,0.4,0.55,0.88,0.55,0.5,0.55,0.44,0.4,0.56,0.42,0.33,0.5,0.29,0.55,0.48,0.58,0.56,0.29,0.58,0.48,0.48,0.4,0.29,0.58,0.56,0.55,0.6,0.48,0.4,0.42,0.6,0.48,0.44,0.33,0.29,0.56,0.48,0.55,0.5,0.58,0.61,0.55,0.55,0.33,0.55,0.56,0.4,0.48,0.5,0.33,0.55,0.56,0.5,0.29,0.6,0.48,0.55,0.33,0.55,0.4,0.55,0.6,0.55,0.33,0.48,0.58,0.33,0.29,0.5,0.29" style="fill:rgb(0,0,0);font-family:Palatino-Roman;font-size:8.97px;stroke:none;">both of intrinsic interest from a crystal engineering perspective and of great value for potential</text>
   <text y="415.582" x="55.548,60.031,65.42,70.809,73.418,76.027,80.008,84.492,87.415,90.024,94.919,100.138,103.94,106.1825,108.422,112.905,116.6724,118.953,123.438,125.676,133.596,137.891,142.374,147.593,151.3604,153.631,156.554,161.4875,163.692,166.615,172.022,177.24,181.5456,183.774,186.697,191.915,196.21,200.012,204.3176,206.546,214.463,218.946,221.869,226.164,229.706,232.315,236.798,239.408,243.209,245.7206,247.944,252.239,254.848,259.143,263.124,266.047,269.589,272.198,276.179,280.662,283.26329999999996,285.513,289.996,295.214,300.6857,302.936,310.856,315.34,320.325,325.543,329.838,332.761,335.371,339.3178,341.59,346.981,350.365,355.262,360.65,364.945,368.487,371.41,374.019,378.314,382.116" svgx:width="0.5,0.6,0.6,0.29,0.29,0.44,0.5,0.33,0.29,0.55,0.58,0.42,0.25,0.55,0.5,0.42,0.55,0.5,0.55,0.88,0.48,0.5,0.58,0.42,0.55,0.33,0.55,0.55,0.33,0.6,0.58,0.48,0.55,0.33,0.58,0.48,0.42,0.48,0.55,0.88,0.5,0.33,0.48,0.4,0.29,0.5,0.29,0.42,0.28,0.55,0.48,0.29,0.48,0.44,0.33,0.4,0.29,0.44,0.5,0.29,0.55,0.5,0.58,0.61,0.55,0.88,0.5,0.56,0.58,0.48,0.33,0.29,0.44,0.55,0.6,0.4,0.55,0.6,0.48,0.4,0.33,0.29,0.48,0.42,0.25" style="fill:rgb(0,0,0);font-family:Palatino-Roman;font-size:8.97px;stroke:none;">applications, as a means to tune these materials’ electrical and magnetic properties.</text>
   <text y="427.534" x="67.509,73.006,78.226,82.5316,85.759,90.719,95.014,98.817,101.741,104.728,109.024,113.651,119.041,121.651,126.548,129.931,134.227,139.6987,142.949,148.016,152.5,156.042,158.653,163.137,168.096,170.706,175.0116,178.24,180.85,186.05259999999998,189.31,192.234,197.453,201.7586,204.987,210.376,215.596,220.08,223.882,228.1876,231.425,236.906,239.516,244.0,248.986,252.529,257.013,264.931,268.6984,271.969,276.866,279.8261,283.094,286.018,291.237,295.54260000000005,298.78,303.999,308.985,313.944,317.487,320.097,325.5687,328.809,334.199,338.494,341.878,346.775,351.842,355.644,360.631,363.241,366.165,370.461,374.2284,377.499,380.109,383.8764,387.156,390.08,394.376,402.294,407.684,411.979,415.522,420.006,422.93,428.338,431.722,436.015" svgx:width="0.61,0.58,0.48,0.55,0.55,0.48,0.42,0.33,0.33,0.48,0.52,0.6,0.29,0.55,0.4,0.48,0.61,0.55,0.56,0.5,0.4,0.29,0.5,0.55,0.29,0.48,0.55,0.29,0.58,0.55,0.33,0.58,0.48,0.55,0.6,0.58,0.5,0.42,0.48,0.55,0.61,0.29,0.5,0.56,0.4,0.5,0.88,0.42,0.55,0.55,0.33,0.55,0.33,0.58,0.48,0.55,0.58,0.56,0.55,0.4,0.29,0.61,0.55,0.6,0.48,0.4,0.55,0.56,0.42,0.56,0.29,0.33,0.48,0.42,0.55,0.29,0.42,0.55,0.33,0.48,0.88,0.6,0.48,0.4,0.5,0.33,0.6,0.4,0.48,0.25" style="fill:rgb(0,0,0);font-family:Palatino-Roman;font-size:8.97px;stroke:none;">The best-explored variable in the phase diagrams of the hybrid perovskites is temperature,</text>
   <text y="439.496" x="55.548,63.026,65.635,68.558,73.76060000000001,76.389,84.309,88.792,94.01,99.03320000000001,101.607,106.998,112.217,116.7,120.501,124.8066,127.405,131.386,136.604,141.087,146.306,151.291,155.586,159.35340000000002,162.003,169.481,172.091,175.014,180.2166,182.844,186.228,190.523,194.325,199.713,204.008,207.989,210.94910000000002,213.524,216.447,221.3805,223.953,226.876,231.171,239.088,244.477,248.772,252.314,256.797,259.72,265.127,268.511,272.81660000000005,275.405,280.623,285.519,292.96410000000003,295.608,300.594,305.813,310.708,318.186,323.3886,326.017" svgx:width="0.83,0.29,0.33,0.58,0.55,0.88,0.5,0.58,0.56,0.55,0.6,0.58,0.5,0.42,0.48,0.55,0.44,0.58,0.5,0.58,0.56,0.48,0.42,0.55,0.83,0.29,0.33,0.58,0.55,0.4,0.48,0.42,0.6,0.48,0.44,0.33,0.55,0.33,0.55,0.55,0.33,0.48,0.88,0.6,0.48,0.4,0.5,0.33,0.6,0.4,0.48,0.55,0.58,0.55,0.83,0.55,0.56,0.58,0.55,0.83,0.58,0.55,0.33" style="fill:rgb(0,0,0);font-family:Palatino-Roman;font-size:8.97px;stroke:none;">with many phase changes with respect to temperature now known [</text>
   <text y="439.496" x="329.013" svgx:width="0.5" style="fill:rgb(9,0,76);font-family:Palatino-Roman;font-size:8.97px;stroke:none;">4</text>
   <text y="439.496" x="333.496,336.482,338.72450000000003,341.333,348.382,353.5846,356.212,359.136,364.355,368.66060000000004,371.258,376.155,379.079,384.298,388.594,392.182,394.75,399.971,404.455,409.674,415.153,417.3955,419.995,427.474,430.084,433.008" svgx:width="0.33,0.25,0.55,0.79,0.58,0.55,0.33,0.58,0.48,0.55,0.55,0.33,0.58,0.48,0.4,0.55,0.58,0.5,0.58,0.61,0.25,0.55,0.83,0.29,0.33,0.58" style="fill:rgb(0,0,0);font-family:Palatino-Roman;font-size:8.97px;stroke:none;">]. On the other hand, with</text>
   <text y="451.448" x="55.548,58.472,63.691,67.9966,71.404,75.7,80.327,84.309,88.605,93.995,96.919,99.529,104.426,109.6286,113.066,117.962,120.9221,124.37,127.294,132.514,136.8196,140.218,147.697,151.992,154.602,157.213,160.199,164.002,166.926,172.334,177.813,180.423,184.719,190.1907,193.611,196.221,200.517,205.001,210.4727,213.902,219.121,223.605,226.215,228.825,234.305,238.6106,242.018,247.409,251.705,255.089,259.986,265.052,268.855,273.841,276.451,279.375,283.6806,287.088,290.886,295.182,303.1,305.711,309.693,314.589,319.808,325.288,330.695,334.677,337.601,342.498,346.04,349.80740000000003,353.249" svgx:width="0.33,0.58,0.48,0.55,0.48,0.52,0.44,0.48,0.6,0.33,0.29,0.55,0.58,0.55,0.55,0.33,0.55,0.33,0.58,0.48,0.55,0.83,0.48,0.29,0.29,0.33,0.42,0.33,0.6,0.61,0.29,0.48,0.61,0.55,0.29,0.48,0.5,0.61,0.55,0.58,0.5,0.29,0.29,0.61,0.48,0.55,0.6,0.48,0.4,0.55,0.56,0.42,0.56,0.29,0.33,0.48,0.55,0.42,0.48,0.88,0.29,0.44,0.55,0.58,0.61,0.6,0.44,0.33,0.55,0.4,0.42,0.55,0.33" style="fill:rgb(0,0,0);font-family:Palatino-Roman;font-size:8.97px;stroke:none;">the exception of the well-studied lead halide perovskite semiconductors [</text>
   <text y="451.448" x="356.212" svgx:width="0.5" style="fill:rgb(9,0,76);font-family:Palatino-Roman;font-size:8.97px;stroke:none;">8</text>
   <text y="451.448" x="360.694" svgx:width="0.5" style="fill:rgb(0,0,0);font-family:Palatino-Roman;font-size:8.97px;stroke:none;">–</text>
   <text y="451.448" x="365.177,369.659" svgx:width="0.5,0.5" style="fill:rgb(9,0,76);font-family:Palatino-Roman;font-size:8.97px;stroke:none;">10</text>
   <text y="451.448" x="374.14,377.127,379.3695,382.797,386.181,390.474,393.084,397.569,400.493,403.103,408.17,412.465,415.075,420.09819999999996,423.473,426.459,430.755" svgx:width="0.33,0.25,0.55,0.4,0.48,0.29,0.5,0.33,0.29,0.56,0.48,0.29,0.56,0.55,0.33,0.48,0.83" style="fill:rgb(0,0,0);font-family:Palatino-Roman;font-size:8.97px;stroke:none;">], relatively few</text>
   <text y="463.4" x="55.549,59.351,62.275,65.75,71.159,75.141,78.065,83.473,87.016,91.5,94.1013,96.62,100.423,103.347,108.755,114.234,116.844,121.14,124.9074,127.449,132.345,135.3051,137.853,145.771,150.256,153.18,157.475,161.018,163.628,168.112,170.722,174.48940000000002,177.031,179.641,184.84359999999998,187.372,190.296,195.515,198.125,201.8924,204.434,207.423,211.907,219.825,222.435,225.045,230.0682,232.542,237.95,243.169,248.648,252.944,256.532,259.001,263.483,268.873,274.263,276.873,279.483,283.779,289.2507,291.771,297.162,300.546,304.839,308.642,312.444,317.852,321.236,325.5416,328.041,333.26,337.744,342.811,347.1166,349.624,354.584,358.88,363.175,368.37760000000003,370.906,374.29,378.583,383.973,388.87,392.412,395.336,399.632,405.1037,407.624" svgx:width="0.42,0.33,0.4,0.6,0.44,0.33,0.6,0.4,0.5,0.29,0.55,0.42,0.33,0.6,0.61,0.29,0.48,0.42,0.55,0.55,0.33,0.55,0.88,0.5,0.33,0.48,0.4,0.29,0.5,0.29,0.42,0.55,0.29,0.58,0.55,0.33,0.58,0.29,0.42,0.55,0.33,0.5,0.88,0.29,0.29,0.56,0.55,0.6,0.58,0.61,0.48,0.4,0.55,0.5,0.6,0.6,0.29,0.29,0.48,0.61,0.55,0.6,0.4,0.48,0.42,0.42,0.6,0.4,0.48,0.55,0.58,0.5,0.56,0.48,0.55,0.55,0.48,0.48,0.58,0.55,0.4,0.48,0.6,0.55,0.4,0.33,0.48,0.61,0.55,0.33" style="fill:rgb(0,0,0);font-family:Palatino-Roman;font-size:8.97px;stroke:none;">structural studies of materials in this family under applied pressure have been reported [</text>
   <text y="463.4" x="410.59,415.073" svgx:width="0.5,0.5" style="fill:rgb(9,0,76);font-family:Palatino-Roman;font-size:8.97px;stroke:none;">11</text>
   <text y="463.4" x="419.554" svgx:width="0.5" style="fill:rgb(0,0,0);font-family:Palatino-Roman;font-size:8.97px;stroke:none;">–</text>
   <text y="463.4" x="424.036,428.519" svgx:width="0.5,0.5" style="fill:rgb(9,0,76);font-family:Palatino-Roman;font-size:8.97px;stroke:none;">13</text>
   <text y="463.4" x="433.0,435.989" svgx:width="0.33,0.25" style="fill:rgb(0,0,0);font-family:Palatino-Roman;font-size:8.97px;stroke:none;">],</text>
   <text y="475.361" x="55.548,60.032,62.642,65.566,70.785,75.682,81.09,86.076,91.2786,94.68,97.29,102.49260000000001,105.903,109.701,114.598,122.516,126.8216,130.202,134.181,138.665,142.467,146.763,150.53040000000001,153.963,159.03,161.64,166.6,170.142,174.626,177.55,180.16,185.057,190.276,194.76,197.3613,200.754,204.557,209.947,214.243,218.225,221.148,224.532,229.429,233.232,237.214,242.11,247.5,252.5232,255.879,261.098,265.582,269.3494,272.773,275.383,280.603,283.527,287.069,289.68,294.666,300.073,302.683,307.903,312.889,315.499,320.5222,323.86,326.47,331.69,337.169,339.779,343.761,348.245,351.169,355.465,360.9367,364.33,368.128,371.052,374.527,379.934,383.916,386.84,392.248,395.79,400.275,402.87629999999996,406.269,410.247,415.466,419.95,425.17,430.156,434.452" svgx:width="0.5,0.29,0.33,0.58,0.55,0.6,0.56,0.58,0.55,0.29,0.58,0.55,0.42,0.55,0.88,0.48,0.55,0.44,0.5,0.42,0.48,0.42,0.55,0.56,0.29,0.55,0.4,0.5,0.33,0.29,0.55,0.58,0.5,0.29,0.55,0.42,0.6,0.48,0.44,0.33,0.4,0.55,0.42,0.44,0.55,0.6,0.56,0.55,0.58,0.5,0.42,0.55,0.29,0.58,0.33,0.4,0.29,0.56,0.6,0.29,0.58,0.56,0.29,0.56,0.55,0.29,0.58,0.61,0.29,0.44,0.5,0.33,0.48,0.61,0.55,0.42,0.33,0.4,0.6,0.44,0.33,0.6,0.4,0.5,0.29,0.55,0.44,0.58,0.5,0.58,0.56,0.48,0.42" style="fill:rgb(0,0,0);font-family:Palatino-Roman;font-size:8.97px;stroke:none;">although in some cases vibrational spectroscopy has intriguingly indicated structural changes</text>
   <text y="487.313" x="55.548" svgx:width="0.33" style="fill:rgb(0,0,0);font-family:Palatino-Roman;font-size:8.97px;stroke:none;">[</text>
   <text y="487.313" x="58.536,63.018" svgx:width="0.5,0.5" style="fill:rgb(9,0,76);font-family:Palatino-Roman;font-size:8.97px;stroke:none;">14</text>
   <text y="487.313" x="67.499" svgx:width="0.25" style="fill:rgb(0,0,0);font-family:Palatino-Roman;font-size:8.97px;stroke:none;">,</text>
   <text y="487.313" x="69.74,74.222" svgx:width="0.5,0.5" style="fill:rgb(9,0,76);font-family:Palatino-Roman;font-size:8.97px;stroke:none;">15</text>
   <text y="487.313" x="78.704,81.69,83.9325,86.235,89.258,94.4606,96.773,102.162,106.647,110.189,113.113,115.723,119.705,125.113,127.723,132.207,135.087,137.3295,139.614,143.412,148.802,153.098,157.08,160.004,163.388,168.284,172.087,176.069,180.965,186.355,188.965,192.9118,195.247,203.165,207.461,210.385,215.605,220.501,225.98,229.7474,232.074,237.293,241.777,246.844,251.1496,253.433,256.817,261.11,266.177,270.473,274.957,277.567,281.863,287.3347,289.648,294.867,297.478,302.464,307.683,310.67,316.06,319.443,323.739,327.542,331.345,336.752,340.136,344.44160000000005,346.716,350.698,355.917,360.401,365.62,370.607,374.902,378.6694,381.005,383.615,388.8176,391.13,399.05,403.534,408.753,413.77619999999996,416.035,423.955,428.251,431.175,435.659" svgx:width="0.33,0.25,0.55,0.34,0.58,0.55,0.6,0.5,0.4,0.33,0.29,0.44,0.6,0.29,0.5,0.4,0.25,0.55,0.42,0.6,0.48,0.44,0.33,0.4,0.55,0.42,0.44,0.55,0.6,0.29,0.44,0.55,0.88,0.48,0.33,0.58,0.55,0.61,0.42,0.55,0.58,0.5,0.56,0.48,0.55,0.4,0.48,0.56,0.48,0.5,0.29,0.48,0.61,0.55,0.58,0.29,0.56,0.58,0.33,0.6,0.4,0.48,0.42,0.42,0.6,0.4,0.48,0.55,0.44,0.58,0.5,0.58,0.56,0.48,0.42,0.55,0.29,0.58,0.55,0.88,0.5,0.58,0.56,0.55,0.88,0.48,0.33,0.5,0.29" style="fill:rgb(0,0,0);font-family:Palatino-Roman;font-size:8.97px;stroke:none;">]. In particular, spectroscopic methods have revealed high-pressure changes in many metal</text>
   <text y="499.266" x="55.547,58.534,63.43,66.973,74.891,79.375,82.299,86.6046,88.824,94.044,99.031,103.99,107.532,110.143,115.6147,117.856,123.245,127.541,130.925,135.821,140.888,144.691,149.677,152.287,155.211,159.507,163.2744,165.546" svgx:width="0.33,0.55,0.4,0.88,0.5,0.33,0.48,0.55,0.58,0.56,0.55,0.4,0.29,0.61,0.55,0.6,0.48,0.4,0.55,0.56,0.42,0.56,0.29,0.33,0.48,0.42,0.55,0.33" style="fill:rgb(0,0,0);font-family:Palatino-Roman;font-size:8.97px;stroke:none;">formate hybrid perovskites [</text>
   <text y="499.266" x="168.534,173.016" svgx:width="0.5,0.5" style="fill:rgb(9,0,76);font-family:Palatino-Roman;font-size:8.97px;stroke:none;">16</text>
   <text y="499.266" x="177.497" svgx:width="0.5" style="fill:rgb(0,0,0);font-family:Palatino-Roman;font-size:8.97px;stroke:none;">–</text>
   <text y="499.266" x="181.98,186.462" svgx:width="0.5,0.5" style="fill:rgb(9,0,76);font-family:Palatino-Roman;font-size:8.97px;stroke:none;">21</text>
   <text y="499.266" x="190.943,193.932" svgx:width="0.33,0.25" style="fill:rgb(0,0,0);font-family:Palatino-Roman;font-size:8.97px;stroke:none;">].</text>
   <text y="511.227" x="67.508,74.557,79.776,84.0816,87.103,91.081,95.977,103.896,111.814,116.71,121.9126,124.964,127.889,131.273,135.566,140.785,146.2567,149.291,151.901,157.1036,160.155,165.374,170.36,175.319,178.862,181.472,186.9437,189.978,195.367,199.663,203.047,207.944,213.011,216.813,221.799,224.41,227.333,231.629,235.3964,238.461,245.94,248.55,251.474,256.6766,259.727,265.208,267.819,271.621,276.518,279.902,285.381,289.677,293.061,297.354" svgx:width="0.79,0.58,0.48,0.55,0.44,0.55,0.88,0.88,0.55,0.58,0.55,0.33,0.4,0.48,0.58,0.61,0.55,0.29,0.58,0.55,0.58,0.56,0.55,0.4,0.29,0.61,0.55,0.6,0.48,0.4,0.55,0.56,0.42,0.56,0.29,0.33,0.48,0.42,0.55,0.83,0.29,0.33,0.58,0.55,0.61,0.29,0.42,0.55,0.4,0.61,0.48,0.4,0.48,0.61" style="fill:rgb(0,0,0);font-family:Palatino-Roman;font-size:8.97px;stroke:none;">One common trend in hybrid perovskites with disordered</text>
   <text y="511.227" x="305.854" svgx:width="0.78" style="fill:rgb(0,0,0);font-family:Palatino-Bold;font-size:8.97px;stroke:none;">A</text>
   <text y="511.227" x="312.829,315.815,319.617,322.226,325.149,329.4546,332.475,337.461,342.868,347.163,350.965,353.888,357.6554,360.728,363.338,367.10540000000003,370.17,373.093,378.311,382.795,385.7551,388.753,391.676,396.894,401.19960000000003,404.221,409.699,413.994,417.975,421.359,425.654,430.137,433.939" svgx:width="0.33,0.42,0.29,0.33,0.48,0.55,0.56,0.6,0.48,0.42,0.33,0.42,0.55,0.29,0.42,0.55,0.33,0.58,0.5,0.33,0.55,0.33,0.58,0.48,0.55,0.61,0.48,0.44,0.4,0.48,0.5,0.42,0.48" style="fill:rgb(0,0,0);font-family:Palatino-Roman;font-size:8.97px;stroke:none;">-site guests is that the decrease</text>
   <text y="523.179" x="55.547,58.156,63.358599999999996,68.354,73.42,78.315,80.925,86.3967,91.383,95.185,100.574,105.057,109.038,113.3436,118.317,125.795,128.404,131.328,136.5306,141.525,146.916,150.3,154.594,158.395,162.197,167.604,170.988,175.2936,180.258,184.239,188.722,194.129,197.931,202.226,205.9934,211.01,213.933,219.152,223.447,227.248,231.5536,236.528,240.509,244.992,247.915,250.524,255.42,260.638,264.4054,269.423,272.348,277.2815,282.22,285.209,288.593,292.888,297.183,301.666,305.9716,310.936,313.546,318.765,321.688,326.62149999999997,331.561,336.044,341.2466,346.241,351.137,354.521,359.999,364.294,367.678,371.971,377.4427,382.421,386.399,391.295,396.513,401.938,406.923,412.33,415.872,420.355,423.278,425.887,430.783,436.001" svgx:width="0.29,0.58,0.55,0.56,0.55,0.29,0.61,0.55,0.42,0.6,0.5,0.44,0.48,0.55,0.83,0.29,0.33,0.58,0.55,0.6,0.4,0.48,0.42,0.42,0.6,0.4,0.48,0.55,0.44,0.5,0.6,0.42,0.48,0.42,0.55,0.33,0.58,0.48,0.42,0.48,0.55,0.44,0.5,0.33,0.29,0.55,0.58,0.42,0.55,0.33,0.55,0.55,0.33,0.4,0.48,0.48,0.5,0.48,0.55,0.29,0.58,0.33,0.55,0.55,0.5,0.58,0.55,0.55,0.4,0.61,0.48,0.4,0.48,0.61,0.55,0.44,0.55,0.58,0.61,0.56,0.6,0.4,0.5,0.33,0.29,0.55,0.58,0.25" style="fill:rgb(0,0,0);font-family:Palatino-Roman;font-size:8.97px;stroke:none;">in void space with pressure causes these cations to freeze into an ordered conﬁguration;</text>
   <text y="535.131" x="55.547,58.47,63.689,66.298,70.0654,74.362,79.582,84.066,87.8334,92.121,97.339,102.235,109.6801,113.98,118.94,123.234,127.529,132.7316,137.007,141.302,145.104,148.027,152.51,157.468,160.077,162.687,166.488,171.707,176.002,181.4737,185.749,188.359,193.5616,197.837,202.795,207.691,210.614,215.8166,220.091,225.312,229.795,232.404,235.013,240.492,244.7976,249.042" svgx:width="0.33,0.58,0.29,0.42,0.55,0.58,0.5,0.42,0.55,0.58,0.55,0.83,0.55,0.55,0.48,0.48,0.58,0.55,0.48,0.42,0.33,0.5,0.55,0.29,0.29,0.42,0.58,0.48,0.61,0.55,0.29,0.58,0.55,0.55,0.55,0.33,0.58,0.55,0.58,0.5,0.29,0.29,0.61,0.48,0.55,0.33" style="fill:rgb(0,0,0);font-family:Palatino-Roman;font-size:8.97px;stroke:none;">this has now been established in both halide [</text>
   <text y="535.131" x="252.027,256.509" svgx:width="0.5,0.5" style="fill:rgb(9,0,76);font-family:Palatino-Roman;font-size:8.97px;stroke:none;">22</text>
   <text y="535.131" x="260.991" svgx:width="0.25" style="fill:rgb(0,0,0);font-family:Palatino-Roman;font-size:8.97px;stroke:none;">,</text>
   <text y="535.131" x="263.231,267.714" svgx:width="0.5,0.5" style="fill:rgb(9,0,76);font-family:Palatino-Roman;font-size:8.97px;stroke:none;">23</text>
   <text y="535.131" x="272.195,275.1551,279.449,283.931,289.15,294.6217,298.889,301.876,306.772,310.315,318.233,322.717,325.641,329.94660000000005,334.182,339.574,343.87,347.254,352.15,357.217,361.02,366.006,368.616,371.54,375.836,379.6034,383.9" svgx:width="0.33,0.55,0.5,0.58,0.61,0.55,0.33,0.55,0.4,0.88,0.5,0.33,0.48,0.55,0.6,0.48,0.4,0.55,0.56,0.42,0.56,0.29,0.33,0.48,0.42,0.55,0.33" style="fill:rgb(0,0,0);font-family:Palatino-Roman;font-size:8.97px;stroke:none;">] and formate perovskites [</text>
   <text y="535.131" x="386.882,391.365" svgx:width="0.5,0.5" style="fill:rgb(9,0,76);font-family:Palatino-Roman;font-size:8.97px;stroke:none;">24</text>
   <text y="535.131" x="395.846" svgx:width="0.25" style="fill:rgb(0,0,0);font-family:Palatino-Roman;font-size:8.97px;stroke:none;">,</text>
   <text y="535.131" x="398.087,402.569" svgx:width="0.5,0.5" style="fill:rgb(9,0,76);font-family:Palatino-Roman;font-size:8.97px;stroke:none;">25</text>
   <text y="535.131" x="407.051,410.037,412.2795,416.553,424.014,428.31,431.694,435.987" svgx:width="0.33,0.25,0.55,0.83,0.48,0.4,0.48,0.25" style="fill:rgb(0,0,0);font-family:Palatino-Roman;font-size:8.97px;stroke:none;">]. Here,</text>
   <text y="547.092" x="55.545,63.024,67.3296,71.106,75.088,79.985,85.204,89.007,91.617,97.096,101.392,104.97999999999999,108.719,111.329,116.548,120.351,123.275,127.571,132.055,137.5267,141.325,145.81,149.597,152.583,157.067,164.986,167.596,170.206,175.2292,178.963,183.86,186.82010000000002,190.637,198.555,203.039,205.963,210.259,213.801,216.412,220.896,223.506,227.308,229.5505,233.329,236.253,241.473,245.7786,249.555,257.473,261.769,264.693,269.177,271.7783,275.567,280.554,285.961,290.445,295.665,298.275,303.754,306.364,311.584,314.194,319.601,327.4946,331.293,334.279,339.176,342.718,350.637,355.121,358.045,362.341,366.143,368.3855,372.164,374.774,379.9766,383.775,391.254,396.473,399.083,403.065,408.2676,412.074,414.998,420.218" svgx:width="0.83,0.48,0.55,0.44,0.55,0.58,0.42,0.29,0.61,0.48,0.4,0.55,0.29,0.58,0.42,0.33,0.48,0.5,0.61,0.55,0.5,0.55,0.33,0.5,0.88,0.29,0.29,0.56,0.55,0.55,0.33,0.55,0.88,0.5,0.33,0.48,0.4,0.29,0.5,0.29,0.42,0.25,0.55,0.33,0.58,0.48,0.55,0.88,0.48,0.33,0.5,0.29,0.55,0.56,0.6,0.5,0.58,0.29,0.61,0.29,0.58,0.29,0.6,0.88,0.55,0.33,0.55,0.4,0.88,0.5,0.33,0.48,0.42,0.25,0.55,0.29,0.58,0.55,0.83,0.58,0.29,0.44,0.58,0.55,0.33,0.58,0.48" style="fill:rgb(0,0,0);font-family:Palatino-Roman;font-size:8.97px;stroke:none;">we consider instead a family of materials, the metal guanidinium formates, in which the</text>
   <text y="547.092" x="428.274" svgx:width="0.78" style="fill:rgb(0,0,0);font-family:Palatino-Bold;font-size:8.97px;stroke:none;">A</text>
   <text y="547.092" x="435.249" svgx:width="0.33" style="fill:rgb(0,0,0);font-family:Palatino-Roman;font-size:8.97px;stroke:none;">-</text>
   <text y="559.045" x="55.545,59.347,61.956,64.879,69.1846,72.871,77.856,83.263,87.558,91.36,94.283,98.0504,101.789,106.272,109.656,113.9616,117.647,122.544,125.928,131.409,135.704,139.088,143.383,148.8547,152.554,157.96,163.179,168.657,172.952,176.54,180.188,184.67,192.588,197.546,200.155,204.45,209.669,212.62910000000002,216.284,220.265,225.161,230.379,235.858,238.467,241.39,243.999,248.895,254.113,257.915,260.1575,263.864,272.0,276.3056,279.992,283.376,287.669,293.058,297.954,301.495,304.4551,308.111,311.913,314.522,319.74,324.726,327.335,331.63,334.615,338.597,342.138,347.124,350.925,353.848,358.332,360.9333,364.64,368.442,373.427,378.646,382.627,387.845,391.229,396.125,399.048,402.432,407.328,412.5306,416.238,422.223,425.209,428.751,433.234" svgx:width="0.42,0.29,0.33,0.48,0.55,0.56,0.6,0.48,0.42,0.33,0.42,0.55,0.5,0.4,0.48,0.55,0.55,0.4,0.61,0.48,0.4,0.48,0.61,0.55,0.6,0.58,0.61,0.48,0.4,0.55,0.5,0.88,0.55,0.29,0.48,0.58,0.33,0.55,0.44,0.55,0.58,0.61,0.29,0.33,0.29,0.55,0.58,0.42,0.25,0.55,1.0,0.48,0.55,0.4,0.48,0.6,0.55,0.4,0.33,0.55,0.42,0.29,0.58,0.56,0.29,0.48,0.33,0.44,0.4,0.56,0.42,0.33,0.5,0.29,0.55,0.42,0.56,0.58,0.44,0.58,0.4,0.55,0.33,0.4,0.55,0.58,0.55,0.67,0.33,0.4,0.5,0.56" style="fill:rgb(0,0,0);font-family:Palatino-Roman;font-size:8.97px;stroke:none;">site guests are ordered under ambient conditions. We report single-crystal synchrotron X-ray</text>
   <text y="570.997" x="55.545,61.025,63.635,66.461,69.449,72.992,77.476,81.458,84.382,86.992,91.889,97.108,99.35050000000001,101.365,106.757,111.653,119.132,124.612,128.907,132.495,134.46,139.68,143.976,149.383,152.307,155.691,160.588,165.79059999999998,167.823,173.305,175.915,178.741,181.728,185.27,189.754,193.736,196.66,199.27,204.167,209.3696,211.394,215.878,221.097,226.5687,228.594,234.075,238.371,243.59,247.393,250.003,252.927,257.913,260.9,263.887,269.294,274.514,278.496,281.42,284.03,288.926,294.146,298.63,301.2313,303.247,306.171,311.39,315.686,320.582,324.125,329.1482,331.127,334.115,341.056,346.042,351.54,354.50010000000003,356.544,360.526,365.01,367.62,371.602,377.009,379.62,384.104,387.028,389.638,394.534,399.754,403.5214,405.576,410.473,415.67560000000003,417.709,420.633,425.852,430.148,433.951" svgx:width="0.61,0.29,0.33,0.33,0.4,0.5,0.44,0.33,0.29,0.55,0.58,0.25,0.55,0.6,0.55,0.83,0.61,0.48,0.4,0.55,0.58,0.48,0.6,0.33,0.4,0.55,0.58,0.55,0.61,0.29,0.33,0.33,0.4,0.5,0.44,0.33,0.29,0.55,0.58,0.55,0.5,0.58,0.61,0.55,0.61,0.48,0.58,0.42,0.29,0.33,0.56,0.33,0.33,0.6,0.58,0.44,0.33,0.29,0.55,0.58,0.5,0.29,0.55,0.33,0.58,0.48,0.55,0.4,0.56,0.55,0.33,0.77,0.56,0.61,0.33,0.55,0.44,0.5,0.29,0.44,0.6,0.29,0.5,0.33,0.29,0.55,0.58,0.42,0.55,0.55,0.58,0.55,0.33,0.58,0.48,0.42,0.48" style="fill:rgb(0,0,0);font-family:Palatino-Roman;font-size:8.97px;stroke:none;">diffraction, powder neutron diffraction and density-functional theory (DFT) calculations on these</text>
   <text y="582.958" x="55.545,59.527,64.424,72.342,77.732,82.628,88.036,93.255,98.735,102.5024,105.043,110.451,115.67,121.15,125.446,129.034,131.502,136.894,140.278,144.571,148.374,152.176,157.584,160.968,165.261,167.5035,170.022,177.07,182.477,186.065,188.543,191.927,196.22,200.023,205.43,208.04,210.964,214.7314,217.282,222.763,227.059,234.977,239.874,245.093,248.896,251.82,255.362,259.847,262.77,267.0756,269.575,272.499,277.718,282.202,285.1621,287.639,290.563,295.782,300.0876,302.596,307.985,313.205,317.689,321.491,325.7966,328.305,333.786,336.396,340.88,345.867,349.409,353.893,361.812,365.5794,368.12,373.017,375.9771,378.525,381.449,386.668,390.964,394.767,399.0726,401.58,409.498,413.983,416.906,421.202,424.745,427.355,431.839,434.449" svgx:width="0.44,0.55,0.88,0.6,0.55,0.6,0.58,0.61,0.42,0.55,0.6,0.58,0.61,0.48,0.4,0.55,0.6,0.4,0.48,0.42,0.42,0.6,0.4,0.48,0.25,0.55,0.79,0.6,0.4,0.55,0.4,0.48,0.42,0.6,0.29,0.33,0.42,0.55,0.61,0.48,0.88,0.55,0.58,0.42,0.33,0.4,0.5,0.33,0.48,0.55,0.33,0.58,0.5,0.33,0.55,0.33,0.58,0.48,0.55,0.6,0.58,0.5,0.42,0.48,0.55,0.61,0.29,0.5,0.56,0.4,0.5,0.88,0.42,0.55,0.55,0.33,0.55,0.33,0.58,0.48,0.42,0.48,0.55,0.88,0.5,0.33,0.48,0.4,0.29,0.5,0.29,0.42" style="fill:rgb(0,0,0);font-family:Palatino-Roman;font-size:8.97px;stroke:none;">compounds under pressure. Our results demonstrate that the phase diagrams of these materials</text>
   <text y="594.91" x="55.545,60.029,63.413,67.7186,70.074,75.555,78.165,82.147,85.071,89.555,92.479,96.775,102.2467,104.623,109.582,114.6052,116.936,122.156,127.142,132.621,136.005,140.902,145.888,150.184,155.403,158.39,163.349,168.246,173.465,178.944,181.555,186.774,191.7972,194.109,196.719,201.939,204.863,209.159,212.701,217.185,221.167,224.091,226.701,231.598,236.817,240.58440000000002,242.974,247.933,252.229,255.153,262.632,266.927,271.223,276.42560000000003,278.81,281.734,286.954,291.25960000000003,293.614,298.6,304.008,308.492,313.711,316.321,321.801,324.411,329.63,332.24,337.648,345.5416,347.917,352.399,357.619,363.0907,365.467,368.454,373.35,376.893,384.811,389.295,392.219,396.5246,398.87,401.481,406.377,411.596,415.399,417.6415,420.007,427.486,430.096,433.02" svgx:width="0.5,0.4,0.48,0.55,0.61,0.29,0.44,0.33,0.5,0.33,0.48,0.61,0.55,0.55,0.56,0.55,0.58,0.56,0.61,0.4,0.55,0.56,0.48,0.58,0.33,0.55,0.55,0.58,0.61,0.29,0.58,0.56,0.55,0.29,0.58,0.33,0.48,0.4,0.5,0.44,0.33,0.29,0.55,0.58,0.42,0.55,0.55,0.48,0.33,0.83,0.48,0.48,0.58,0.55,0.33,0.58,0.48,0.55,0.56,0.6,0.5,0.58,0.29,0.61,0.29,0.58,0.29,0.6,0.88,0.55,0.5,0.58,0.61,0.55,0.33,0.55,0.4,0.88,0.5,0.33,0.48,0.55,0.29,0.55,0.58,0.42,0.25,0.55,0.83,0.29,0.33,0.58" style="fill:rgb(0,0,0);font-family:Palatino-Roman;font-size:8.97px;stroke:none;">are dictated by hydrogen-bonding interactions between the guanidinium and formate ions, with</text>
   <text y="606.862" x="55.545,58.155,66.074,71.463,74.073,76.684,80.666,85.15,88.074,90.684,95.58,100.8,104.56739999999999,106.839,109.827,114.724,118.312,120.502,124.483,128.026,133.012,136.815,139.739,144.223,146.82430000000002,149.074,153.367,158.586,163.573,166.183,171.402,175.698,179.994,183.536,186.146,191.366,196.38920000000002,198.584,203.48,206.4401,208.709,211.633,216.853,221.1586,223.387,228.606,233.592,238.551,242.094,244.704,250.1757,252.417,257.807,262.103,265.487,270.383,275.45,279.253,284.239,286.849,289.773,294.069,297.8364,300.108,308.026,312.922,316.306,320.6116,322.831,327.817,332.113,337.332,341.628,345.171,349.655,352.265,354.875,358.863" svgx:width="0.29,0.88,0.6,0.29,0.29,0.44,0.5,0.33,0.29,0.55,0.58,0.42,0.55,0.33,0.55,0.4,0.55,0.44,0.4,0.56,0.42,0.33,0.5,0.29,0.55,0.48,0.58,0.56,0.29,0.58,0.48,0.48,0.4,0.29,0.58,0.56,0.55,0.55,0.33,0.55,0.33,0.58,0.48,0.55,0.58,0.56,0.55,0.4,0.29,0.61,0.55,0.6,0.48,0.4,0.55,0.56,0.42,0.56,0.29,0.33,0.48,0.42,0.55,0.88,0.55,0.4,0.48,0.55,0.56,0.48,0.58,0.48,0.4,0.5,0.29,0.29,0.56,0.25" style="fill:rgb(0,0,0);font-family:Palatino-Roman;font-size:8.97px;stroke:none;">implications for crystal engineering of the hybrid perovskites more generally.</text>
   <text y="639.237" x="55.548,60.904,63.9326,70.372,75.151,80.957,84.684,91.047,96.833,100.818,103.404,113.287,118.949,122.891,128.679,132.632,135.565,141.367,144.412" svgx:width="0.34,0.19,0.55,0.35,0.36,0.25,0.4,0.36,0.25,0.55,0.62,0.36,0.25,0.36,0.25,0.18,0.36,0.19,0.29" style="fill:rgb(0,146,207);font-family:MyriadPro-Cond;font-size:15.94px;stroke:none;">2. Target materials</text>
   <text y="657.165" x="55.548,58.571,63.7736,67.507,70.431,75.651,79.9566,83.661,91.579,95.875,98.799,103.283,105.8843,109.61,114.596,120.004,124.488,129.707,132.317,137.797,140.407,145.626,148.236,153.644,161.5376,165.273,168.259,173.156,176.698,184.617,189.101,192.025,196.321,200.123,202.3655,206.081,212.436,215.423,222.875" svgx:width="0.34,0.58,0.55,0.33,0.58,0.48,0.55,0.88,0.48,0.33,0.5,0.29,0.55,0.56,0.6,0.5,0.58,0.29,0.61,0.29,0.58,0.29,0.6,0.88,0.55,0.33,0.55,0.4,0.88,0.5,0.33,0.48,0.42,0.25,0.55,0.71,0.33,0.83,0.83" style="fill:rgb(0,0,0);font-family:Palatino-Roman;font-size:8.97px;stroke:none;">In the metal guanidinium formates, C(NH</text>
   <text y="658.695" x="230.337" svgx:width="0.5" style="fill:rgb(0,0,0);font-family:Palatino-Roman;font-size:6.97px;stroke:none;">2</text>
   <text y="657.165" x="234.315" svgx:width="0.33" style="fill:rgb(0,0,0);font-family:Palatino-Roman;font-size:8.97px;stroke:none;">)</text>
   <text y="658.695" x="237.303" svgx:width="0.5" style="fill:rgb(0,0,0);font-family:Palatino-Roman;font-size:6.97px;stroke:none;">3</text>
   <text y="657.165" x="241.29" svgx:width="0.33" style="fill:rgb(0,0,0);font-family:Palatino-Roman;font-size:8.97px;stroke:none;">[</text>
   <text y="657.165" x="244.278" svgx:width="1.0" style="fill:rgb(0,0,0);font-family:Palatino-Bold;font-size:8.97px;stroke:none;">M</text>
   <text y="653.844" x="253.242,255.591" svgx:width="0.34,0.34" style="fill:rgb(0,0,0);font-family:Palatino-Roman;font-size:6.97px;stroke:none;">II</text>
   <text y="657.165" x="258.444,261.429,268.888,275.244" svgx:width="0.33,0.83,0.71,0.79" style="fill:rgb(0,0,0);font-family:Palatino-Roman;font-size:8.97px;stroke:none;">(HCO</text>
   <text y="658.695" x="282.294" svgx:width="0.5" style="fill:rgb(0,0,0);font-family:Palatino-Roman;font-size:6.97px;stroke:none;">2</text>
   <text y="657.165" x="286.272" svgx:width="0.33" style="fill:rgb(0,0,0);font-family:Palatino-Roman;font-size:8.97px;stroke:none;">)</text>
   <text y="658.695" x="289.26" svgx:width="0.5" style="fill:rgb(0,0,0);font-family:Palatino-Roman;font-size:6.97px;stroke:none;">3</text>
   <text y="657.165" x="293.247,296.2071,299.952,302.941,308.16,312.456,317.675,321.657,325.953,328.939,333.836,337.379,340.303" svgx:width="0.33,0.55,0.33,0.58,0.48,0.58,0.44,0.48,0.33,0.55,0.4,0.33,0.58" style="fill:rgb(0,0,0);font-family:Palatino-Roman;font-size:8.97px;stroke:none;">] (henceforth</text>
   <text y="657.165" x="349.229,358.194,365.662" svgx:width="1.0,0.83,0.56" style="fill:rgb(0,0,0);font-family:Palatino-Bold;font-size:8.97px;stroke:none;">MGF</text>
   <text y="657.165" x="370.649,373.637,375.8795,379.604,382.529,387.749,392.05460000000005,395.76,403.679,407.976,410.901,415.386,417.9873,421.712,424.323,429.221,434.441" svgx:width="0.33,0.25,0.55,0.33,0.58,0.48,0.55,0.88,0.48,0.33,0.5,0.29,0.55,0.29,0.55,0.58,0.42" style="fill:rgb(0,0,0);font-family:Palatino-Roman;font-size:8.97px;stroke:none;">), the metal ions</text>
   <text y="669.126" x="55.548" svgx:width="1.0" style="fill:rgb(0,0,0);font-family:Palatino-Bold;font-size:8.97px;stroke:none;">M</text>
   <text y="669.126" x="67.797,72.281,75.665,79.9706,83.234,85.844,88.454,93.674,98.66,102.956,108.4277,111.713,116.673,121.6962,124.935,127.924,132.82,136.363,144.281,148.765,151.689,155.9946,159.25,161.86,166.756,171.976,175.7434,179.059,181.669,186.888,189.812,194.74550000000002,197.984,202.46900000000002,205.742,210.962,215.258,218.182,225.661,230.558,234.1,239.086,241.32850000000002,244.603,252.082,254.692,257.616,262.8186,266.104,269.028,274.247,278.55260000000004,281.817,286.803,292.21,296.695,301.914,304.524,310.003,312.613,317.833,320.443,325.851,333.7446,337.038,339.648,344.545,349.764,353.5314,356.838,361.735,365.717,369.699,375.106,380.496,385.482,388.092,393.312,398.3352,401.574,404.498,409.718,414.02360000000004,417.296,421.278,426.686,431.645,434.255" svgx:width="0.5,0.4,0.48,0.55,0.29,0.29,0.58,0.56,0.48,0.61,0.55,0.55,0.56,0.55,0.33,0.55,0.4,0.88,0.5,0.33,0.48,0.55,0.29,0.55,0.58,0.42,0.55,0.29,0.58,0.33,0.55,0.55,0.5,0.55,0.58,0.48,0.33,0.83,0.55,0.4,0.56,0.25,0.55,0.83,0.29,0.33,0.58,0.55,0.33,0.58,0.48,0.55,0.56,0.6,0.5,0.58,0.29,0.61,0.29,0.58,0.29,0.6,0.88,0.55,0.29,0.55,0.58,0.42,0.55,0.55,0.44,0.44,0.6,0.6,0.56,0.29,0.58,0.56,0.55,0.33,0.58,0.48,0.55,0.44,0.6,0.55,0.29,0.44" style="fill:rgb(0,0,0);font-family:Palatino-Roman;font-size:8.97px;stroke:none;">are linked by formate ions into a network, with the guanidinium ions occupying the cubic</text>
  </g>
 </g>
</svg>
