<?xml version="1.0" encoding="UTF-8"?>
<svg height="767.134" width="561.91" xmlns="http://www.w3.org/2000/svg">
 <g id="page" xmlns:svgx="http://www.xml-cml.org/schema/svgx">
  <g begin="text">
   <text y="139.294" x="43.597,53.179,61.017,68.995,72.622,81.618,88.006" svgx:width="0.69,0.56,0.57,0.26,0.64,0.46,0.5" style="fill:rgb(0,0,0);font-family:AdvOTea1a7398;font-size:13.95px;stroke:none;">ARTICLE</text>
   <text y="187.143" x="43.597,57.034,68.726,81.16,89.361,94.836,106.528,118.962,126.661,138.114,145.813,151.288,163.722,176.1552,184.251,196.684,208.376,220.81,232.263,243.453,248.928,261.361,269.49039999999997,277.568,283.043,295.4762,303.477,311.176,323.609,335.32489999999996,343.333,355.766,367.458,372.933,378.409,389.36,400.813,406.3123,414.255,433.67,446.103,453.802,459.278,464.753,470.229,477.928,489.4048,497.367,509.8" svgx:width="0.56,0.49,0.52,0.34,0.23,0.49,0.52,0.32,0.48,0.32,0.23,0.52,0.52,0.55,0.52,0.49,0.52,0.48,0.47,0.23,0.52,0.34,0.55,0.23,0.52,0.55,0.32,0.52,0.49,0.55,0.52,0.49,0.23,0.23,0.46,0.48,0.23,0.55,0.81,0.52,0.32,0.23,0.23,0.23,0.32,0.48,0.55,0.52,0.29" style="fill:rgb(0,0,0);font-family:AdvOTea1a7398;font-size:23.91px;stroke:none;">Reorientation behavior in the helical motility of</text>
   <text y="212.995" x="43.597,49.072,54.548,66.503,78.936,86.401,94.865,103.066,114.758,125.207,137.64,150.074,162.507,172.956,178.431,189.621,201.3369,209.366,219.815,232.248,237.724,245.925,257.378,262.8773,270.878,283.311,291.512,303.945,316.379,321.854,333.546,341.245" svgx:width="0.23,0.23,0.5,0.52,0.32,0.35,0.34,0.49,0.44,0.52,0.52,0.52,0.44,0.23,0.47,0.49,0.55,0.44,0.52,0.23,0.34,0.48,0.23,0.55,0.52,0.34,0.52,0.52,0.23,0.49,0.32,0.44" style="fill:rgb(0,0,0);font-family:AdvOTea1a7398;font-size:23.91px;stroke:none;">light-responsive spiral droplets</text>
   <text y="240.038" x="43.597,48.726,54.085,59.783,65.142,68.901,71.411,76.43,82.12920000000001,85.436,90.455,95.705,101.403,106.423,108.932" svgx:width="0.47,0.49,0.52,0.49,0.34,0.23,0.46,0.52,0.55,0.46,0.48,0.52,0.46,0.23,0.48" style="fill:rgb(0,0,0);font-family:AdvOTea1a7398;font-size:10.96px;stroke:none;">Federico Lancia</text>
  </g>
  <path style="fill:rgb(146,205,29);stroke:none;stroke-width:1.0;" d="M123.98 237.26 C123.98 239.7 122.0 241.67 119.56 241.67 C117.12 241.67 115.14 239.7 115.14 237.26 C115.14 234.82 117.12 232.84 119.56 232.84 C122.0 232.84 123.98 234.82 123.98 237.26 "/>
  <path style="fill:rgb(255,255,255);stroke:none;stroke-width:1.0;" d="M119.26 238.79 L120.1 238.79 C121.31 238.79 121.58 237.87 121.58 237.42 C121.58 236.67 121.11 236.04 120.08 236.04 L119.26 236.04 L119.26 238.79 ZM118.72 235.57 L120.16 235.57 C121.53 235.57 122.13 236.54 122.13 237.42 C122.13 238.36 121.39 239.26 120.17 239.26 L118.72 239.26 L118.72 235.57 "/>
  <path style="fill:rgb(255,255,255);stroke:none;stroke-width:1.0;" d="M118.03 234.8 C118.03 234.99 117.87 235.15 117.68 235.15 C117.49 235.15 117.33 234.99 117.33 234.8 C117.33 234.61 117.49 234.45 117.68 234.45 C117.87 234.45 118.03 234.61 118.03 234.8 "/>
  <g begin="text">
   <text y="236.013" x="126.652" svgx:width="0.35" style="fill:rgb(0,0,0);font-family:AdvOTea1a7398;font-size:8.77px;stroke:none;">1</text>
   <text y="240.038" x="129.713,132.1242,135.439,141.708,146.957,151.977,157.226,162.245,164.7658,168.095,174.945,180.194,189.093,194.342,203.241,208.939,212.468" svgx:width="0.22,0.55,0.57,0.48,0.46,0.48,0.46,0.23,0.55,0.63,0.48,0.81,0.48,0.81,0.52,0.32,0.52" style="fill:rgb(0,0,0);font-family:AdvOTea1a7398;font-size:10.96px;stroke:none;">, Takaki Yamamoto</text>
  </g>
  <path style="fill:rgb(146,205,29);stroke:none;stroke-width:1.0;" d="M227.95 237.26 C227.95 239.7 225.97 241.67 223.54 241.67 C221.1 241.67 219.12 239.7 219.12 237.26 C219.12 234.82 221.1 232.84 223.54 232.84 C225.97 232.84 227.95 234.82 227.95 237.26 "/>
  <path style="fill:rgb(255,255,255);stroke:none;stroke-width:1.0;" d="M223.23 238.79 L224.08 238.79 C225.28 238.79 225.55 237.87 225.55 237.42 C225.55 236.67 225.08 236.04 224.05 236.04 L223.23 236.04 L223.23 238.79 ZM222.7 235.57 L224.13 235.57 C225.5 235.57 226.1 236.54 226.1 237.42 C226.1 238.36 225.36 239.26 224.14 239.26 L222.7 239.26 L222.7 235.57 "/>
  <path style="fill:rgb(255,255,255);stroke:none;stroke-width:1.0;" d="M222.0 234.8 C222.0 234.99 221.85 235.15 221.66 235.15 C221.46 235.15 221.31 234.99 221.31 234.8 C221.31 234.61 221.46 234.45 221.66 234.45 C221.85 234.45 222.0 234.61 222.0 234.8 "/>
  <g begin="text">
   <text y="236.013" x="230.57" svgx:width="0.53" style="fill:rgb(0,0,0);font-family:AdvOTea1a7398;font-size:8.77px;stroke:none;">2</text>
   <text y="240.038" x="235.275,237.6862,240.945,248.473,250.983,256.342,261.471,266.72,272.419,278.118,283.476,287.2024,290.552,296.711,301.96,307.209,312.908,317.927,323.626,329.325" svgx:width="0.22,0.55,0.69,0.23,0.49,0.47,0.48,0.52,0.52,0.49,0.34,0.55,0.56,0.48,0.48,0.52,0.46,0.52,0.52,0.52" style="fill:rgb(0,0,0);font-family:AdvOTea1a7398;font-size:10.96px;stroke:none;">, Alexander Ryabchun</text>
  </g>
  <path style="fill:rgb(146,205,29);stroke:none;stroke-width:1.0;" d="M344.86 237.26 C344.86 239.7 342.88 241.67 340.44 241.67 C338.0 241.67 336.02 239.7 336.02 237.26 C336.02 234.82 338.0 232.84 340.44 232.84 C342.88 232.84 344.86 234.82 344.86 237.26 "/>
  <path style="fill:rgb(255,255,255);stroke:none;stroke-width:1.0;" d="M340.13 238.79 L340.98 238.79 C342.18 238.79 342.46 237.87 342.46 237.42 C342.46 236.67 341.99 236.04 340.95 236.04 L340.13 236.04 L340.13 238.79 ZM339.6 235.57 L341.04 235.57 C342.4 235.57 343.01 236.54 343.01 237.42 C343.01 238.36 342.26 239.26 341.04 239.26 L339.6 239.26 L339.6 235.57 "/>
  <path style="fill:rgb(255,255,255);stroke:none;stroke-width:1.0;" d="M338.9 234.8 C338.9 234.99 338.75 235.15 338.56 235.15 C338.36 235.15 338.21 234.99 338.21 234.8 C338.21 234.61 338.36 234.45 338.56 234.45 C338.75 234.45 338.9 234.61 338.9 234.8 "/>
  <g begin="text">
   <text y="236.013" x="347.471" svgx:width="0.35" style="fill:rgb(0,0,0);font-family:AdvOTea1a7398;font-size:8.77px;stroke:none;">1</text>
   <text y="240.038" x="350.589,353.0002,356.315,362.584,367.833,373.532,378.781,382.31,387.099,392.797,398.277,403.9762,407.282,414.131,419.381,428.279,433.529,439.008,444.707,449.726,455.425" svgx:width="0.22,0.55,0.57,0.48,0.52,0.48,0.32,0.44,0.52,0.5,0.52,0.55,0.63,0.48,0.81,0.48,0.5,0.52,0.46,0.52,0.23" style="fill:rgb(0,0,0);font-family:AdvOTea1a7398;font-size:10.96px;stroke:none;">, Tadatsugu Yamaguchi</text>
   <text y="236.013" x="457.909" svgx:width="0.35" style="fill:rgb(0,0,0);font-family:AdvOTea1a7398;font-size:8.77px;stroke:none;">1</text>
   <text y="240.038" x="461.027,463.4382,466.753,476.682,481.931,486.72,491.969,496.989,499.5098,502.753,508.342,513.592,519.29" svgx:width="0.22,0.55,0.91,0.48,0.44,0.48,0.46,0.23,0.55,0.51,0.48,0.52,0.52" style="fill:rgb(0,0,0);font-family:AdvOTea1a7398;font-size:10.96px;stroke:none;">, Masaki Sano</text>
   <text y="236.013" x="525.033,529.592,531.503" svgx:width="0.52,0.22,0.58" style="fill:rgb(0,0,0);font-family:AdvOTea1a7398;font-size:8.77px;stroke:none;">3,4</text>
   <text y="240.038" x="536.598,540.982,544.252" svgx:width="0.4,0.55,0.68" style="fill:rgb(0,0,0);font-family:AdvOTea1a7398;font-size:10.96px;stroke:none;">* &amp;</text>
   <text y="255.969" x="43.598,51.236,56.486,60.014,65.713,70.962,73.472,75.982,81.3524,84.985,91.604,96.853,100.382,105.171,110.87,116.568,119.078" svgx:width="0.7,0.48,0.32,0.52,0.48,0.23,0.23,0.49,0.55,0.6,0.48,0.32,0.44,0.52,0.52,0.23,0.44" style="fill:rgb(0,0,0);font-family:AdvOTea1a7398;font-size:10.96px;stroke:none;">Nathalie Katsonis</text>
  </g>
  <path style="fill:rgb(146,205,29);stroke:none;stroke-width:1.0;" d="M133.67 253.24 C133.67 255.68 131.69 257.66 129.259 257.66 C126.81 257.66 124.84 255.68 124.84 253.24 C124.84 250.8 126.81 248.82 129.259 248.82 C131.69 248.82 133.67 250.8 133.67 253.24 "/>
  <path style="fill:rgb(255,255,255);stroke:none;stroke-width:1.0;" d="M128.949 254.77 L129.8 254.77 C131.0 254.77 131.27 253.86 131.27 253.4 C131.27 252.66 130.8 252.03 129.77 252.03 L128.949 252.03 L128.949 254.77 ZM128.419 251.55 L129.85 251.55 C131.22 251.55 131.82 252.53 131.82 253.4 C131.82 254.35 131.08 255.25 129.86 255.25 L128.419 255.25 L128.419 251.55 "/>
  <path style="fill:rgb(255,255,255);stroke:none;stroke-width:1.0;" d="M127.72 250.79 C127.72 250.98 127.57 251.13 127.38 251.13 C127.18 251.13 127.03 250.98 127.03 250.79 C127.03 250.59 127.18 250.44 127.38 250.44 C127.57 250.44 127.72 250.59 127.72 250.79 "/>
  <g begin="text">
   <text y="251.943" x="136.29" svgx:width="0.35" style="fill:rgb(0,0,0);font-family:AdvOTea1a7398;font-size:8.77px;stroke:none;">1</text>
   <text y="255.968" x="139.408" svgx:width="0.4" style="fill:rgb(0,0,0);font-family:AdvOTea1a7398;font-size:10.96px;stroke:none;">*</text>
   <text y="307.956" x="43.597,49.011,53.932,58.567400000000006,62.419,67.341,72.262,76.796,80.932,83.099,87.434,92.356,95.706,100.041,104.962,109.591,117.276,119.443,123.778,128.312,130.48780000000002,134.305,139.226,142.473,147.394,151.729,156.357,160.493,164.629,169.257,173.4194,177.278,181.414,186.335,191.257,196.178,201.1,204.346,207.394,209.561,214.483,219.213,223.085,225.253,227.42,230.174,234.822,236.863,241.0254,244.857,249.778,254.7,257.946,262.868,267.79,271.926,276.554,279.308,284.23,286.4058,290.267,297.952,302.874,307.303,311.931,319.617,324.245,329.166,332.1932,336.075,339.321,343.949,351.634,356.168,358.335,363.25419999999997,367.142,371.77,375.906,380.042,384.671,389.592,392.64,394.807,399.341,401.508,403.676" svgx:width="0.57,0.52,0.49,0.55,0.52,0.52,0.48,0.44,0.23,0.46,0.52,0.35,0.46,0.52,0.49,0.81,0.23,0.46,0.48,0.23,0.55,0.52,0.34,0.52,0.46,0.49,0.44,0.44,0.49,0.44,0.55,0.44,0.52,0.52,0.52,0.52,0.34,0.32,0.23,0.52,0.5,0.55,0.23,0.23,0.29,0.49,0.22,0.44,0.55,0.52,0.52,0.34,0.52,0.52,0.44,0.49,0.29,0.52,0.23,0.55,0.81,0.52,0.47,0.49,0.81,0.49,0.52,0.32,0.55,0.34,0.49,0.81,0.48,0.23,0.52,0.55,0.49,0.44,0.44,0.49,0.52,0.32,0.23,0.48,0.23,0.23,0.48" style="fill:rgb(0,0,0);font-family:AdvOTea1a7398;font-size:9.46px;stroke:none;">The physico-chemical processes supporting life’s purposeful movement remain essentially</text>
   <text y="321.902" x="43.597,48.518,53.44,57.775,62.696,67.618,74.414,79.335,81.41619999999999,84.189,89.016,93.644,95.811,98.565,101.916,106.837,110.084,115.005,119.927,124.555,126.723,128.89,131.057,135.979,140.709,143.546,147.881,152.802,154.97,158.216,162.749,164.9248,167.753,172.675,175.921,180.843,185.765,187.932,192.56,195.608,199.7704,202.562,207.484,210.238,212.992,217.62,220.8364,223.652,228.19279999999998,230.966,238.651,240.818,245.74,247.907,255.592,260.126,262.293,264.461,268.597,271.644,273.812,278.16360000000003,280.968,288.653,293.575,298.496,303.125,305.3008,308.067,312.989,315.7324,318.555,322.691,329.486,331.654,339.339,347.024,349.192,354.113,358.843,361.64,365.975,370.603,372.771,374.938,379.1004,381.879,386.413,391.335,396.256,398.3372,401.098,403.266" svgx:width="0.52,0.52,0.46,0.52,0.52,0.72,0.52,0.22,0.55,0.51,0.49,0.23,0.29,0.35,0.52,0.34,0.52,0.52,0.49,0.23,0.23,0.23,0.52,0.5,0.55,0.46,0.52,0.23,0.34,0.48,0.23,0.55,0.52,0.34,0.52,0.52,0.23,0.49,0.32,0.44,0.55,0.52,0.29,0.29,0.49,0.34,0.55,0.48,0.55,0.81,0.23,0.52,0.23,0.81,0.48,0.23,0.23,0.44,0.32,0.23,0.46,0.55,0.81,0.52,0.52,0.49,0.23,0.55,0.52,0.29,0.55,0.44,0.72,0.23,0.81,0.81,0.23,0.52,0.5,0.55,0.46,0.49,0.23,0.23,0.44,0.55,0.48,0.52,0.52,0.22,0.55,0.23,0.52" style="fill:rgb(0,0,0);font-family:AdvOTea1a7398;font-size:9.46px;stroke:none;">unknown. Self-propelling chiral droplets offer a minimalistic model of swimming cells and, in</text>
   <text y="335.848" x="43.597,47.733,52.654,55.901,58.655,63.189,67.523,70.571,75.104,80.026,82.998,86.348,89.595,91.762,96.097,101.0162,103.804,110.6,115.133,118.181,122.809,126.055,128.1362,130.846,135.768,139.014,143.936,148.857,151.025,155.653,158.701,162.86339999999998,165.655,170.577,173.3204,176.087,180.422,185.343,187.511,190.757,195.291,197.4668,200.181,205.103,209.731,217.416,221.95,224.997,227.165,231.51659999999998,234.309,236.477,238.644,243.566,248.487,250.655,255.5742,258.29,262.625,265.871,270.405,274.541,277.588,282.122,284.289,288.4514,291.228,293.983,298.904,301.072,303.239,308.161,314.9722,317.704,320.751,325.673,330.3084,333.068,336.115,341.037,344.283,348.911,353.445,358.367,362.5294,365.269,370.191,372.9344,375.701,380.2418,383.014,387.15,391.485,394.732,399.36,406.155" svgx:width="0.44,0.52,0.34,0.29,0.48,0.46,0.32,0.48,0.52,0.32,0.35,0.34,0.23,0.46,0.52,0.55,0.72,0.48,0.32,0.49,0.34,0.22,0.55,0.52,0.34,0.52,0.52,0.23,0.49,0.32,0.44,0.55,0.52,0.29,0.55,0.46,0.52,0.23,0.34,0.48,0.23,0.55,0.52,0.49,0.81,0.48,0.32,0.23,0.46,0.55,0.23,0.23,0.52,0.52,0.23,0.52,0.55,0.46,0.34,0.48,0.44,0.32,0.48,0.23,0.44,0.55,0.29,0.52,0.23,0.23,0.52,0.72,0.55,0.32,0.52,0.49,0.55,0.32,0.52,0.34,0.49,0.48,0.52,0.44,0.55,0.52,0.29,0.55,0.48,0.55,0.44,0.46,0.34,0.49,0.72,0.22" style="fill:rgb(0,0,0);font-family:AdvOTea1a7398;font-size:9.46px;stroke:none;">surfactant-rich water, droplets of chiral nematic liquid crystals follow the threads of a screw.</text>
   <text y="349.794" x="43.597,53.251,57.886399999999995,60.888,65.809,70.437,78.123,83.044,87.966,92.102,95.15,98.396,102.929,105.977,110.61240000000001,113.668,116.716,121.637,126.171,129.1982,132.32,135.367,140.289,144.9244,147.91,152.642,157.27,162.192,169.877,174.505,177.553,180.799,185.3398,188.388,193.31,196.0534,199.103,202.151,207.072,211.7,213.868,217.0844,220.193,223.241,226.487,231.02,233.188,237.816,242.151,245.198,250.12,253.366,257.90680000000003,260.955,263.122,267.2844,270.309,275.231,279.859,282.906,287.535,290.781,298.466,300.634,305.555,310.183,315.1022,318.157,323.079,327.6198,330.63,335.551,340.473,343.521,348.4402,351.493,354.54,359.462,364.0974,367.139,372.061,376.983,384.668,389.59,394.218,397.43440000000004,400.532,405.453" svgx:width="1.02,0.49,0.55,0.52,0.49,0.81,0.52,0.52,0.44,0.32,0.34,0.48,0.32,0.49,0.55,0.32,0.52,0.48,0.32,0.55,0.32,0.52,0.49,0.55,0.5,0.49,0.52,0.81,0.49,0.32,0.34,0.48,0.55,0.52,0.29,0.55,0.32,0.52,0.49,0.23,0.34,0.55,0.32,0.34,0.48,0.23,0.49,0.46,0.32,0.52,0.34,0.48,0.55,0.23,0.44,0.55,0.52,0.49,0.32,0.49,0.34,0.81,0.23,0.52,0.49,0.52,0.55,0.52,0.48,0.55,0.52,0.52,0.32,0.52,0.55,0.32,0.52,0.49,0.55,0.52,0.52,0.81,0.52,0.49,0.34,0.55,0.52,0.29" style="fill:rgb(0,0,0);font-family:AdvOTea1a7398;font-size:9.46px;stroke:none;">We demonstrate that the geometry of their trajectory is determined by both the number of</text>
   <text y="363.74" x="43.597,46.644,51.566,54.812,59.734,63.8964,66.841,69.008,73.93,76.0112,78.917,83.45,88.372,93.2912,96.264,99.312,104.234,108.8694,111.855,116.776,121.31,126.231,131.153,135.781,140.703,145.624,150.252,154.388,158.5504,161.46,166.382,169.136,171.2172,174.159,177.207,182.128,186.756,188.924,192.1404,195.135,199.271,204.193,206.36,209.607,214.14,216.3158,219.286,224.208,227.454,232.186,236.72,241.642,243.809,248.04,252.573,255.621,257.788,262.71,267.631,269.7122,272.69,279.098,283.234,285.401,290.323,295.053,297.975,305.66,310.582,312.749,317.377,321.712,326.634,328.801,333.335,336.5514,339.587,347.272,352.194,355.241,360.163,363.409,367.5714,370.484,375.018,379.18039999999996,382.106,387.027,391.949,396.87,399.918,404.84" svgx:width="0.32,0.52,0.34,0.52,0.44,0.55,0.23,0.52,0.22,0.55,0.48,0.52,0.52,0.55,0.32,0.52,0.49,0.55,0.52,0.48,0.52,0.52,0.49,0.52,0.52,0.49,0.44,0.44,0.55,0.52,0.29,0.22,0.55,0.32,0.52,0.49,0.23,0.34,0.55,0.44,0.52,0.23,0.34,0.48,0.23,0.55,0.52,0.34,0.5,0.48,0.52,0.23,0.45,0.48,0.32,0.23,0.52,0.52,0.22,0.55,0.68,0.44,0.23,0.52,0.5,0.55,0.81,0.52,0.23,0.49,0.46,0.52,0.23,0.48,0.34,0.55,0.81,0.52,0.32,0.52,0.34,0.44,0.55,0.48,0.44,0.55,0.52,0.52,0.52,0.32,0.52,0.35" style="fill:rgb(0,0,0);font-family:AdvOTea1a7398;font-size:9.46px;stroke:none;">turns in, and the handedness of, their spiral organization. Using molecular motors as photo-</text>
   <text y="377.686" x="43.597,45.764,50.686,55.115,59.743,62.99,66.037,68.205,73.126,75.294,79.9294,82.431,86.766,91.687,93.855,97.101,101.635,103.8108,106.242,111.164,116.085,121.007,125.54,130.462,133.51,137.67239999999998,140.144,144.678,146.845,149.013,153.934,160.73,164.89239999999998,167.357,171.692,176.613,181.535,185.964,190.592,193.839,196.886,199.054,203.975,208.70499999999998,211.237,216.158,220.786,223.834,230.63,235.258,239.886,244.80519999999999,247.293,250.539,252.707,257.439,262.361,265.408,268.666,273.588,278.121,283.043,287.964,292.592,297.5112,300.017,304.55,309.472,314.39119999999997,316.854,319.021,323.65,326.404,329.451,332.802,337.723,342.257,347.179,352.1,356.652,361.5712,364.079,367.126,370.373,374.906,377.074,381.702,386.036,389.084,394.006,397.252,399.419,404.048" svgx:width="0.23,0.52,0.47,0.49,0.34,0.32,0.23,0.52,0.23,0.49,0.55,0.46,0.52,0.23,0.34,0.48,0.23,0.55,0.52,0.52,0.52,0.48,0.52,0.32,0.44,0.55,0.48,0.23,0.23,0.52,0.72,0.44,0.55,0.46,0.52,0.52,0.47,0.49,0.34,0.32,0.23,0.52,0.5,0.55,0.52,0.49,0.32,0.72,0.49,0.49,0.52,0.55,0.34,0.23,0.5,0.52,0.32,0.35,0.52,0.48,0.52,0.52,0.49,0.52,0.55,0.48,0.52,0.52,0.55,0.23,0.49,0.29,0.32,0.35,0.52,0.48,0.52,0.52,0.49,0.52,0.55,0.32,0.34,0.48,0.23,0.49,0.46,0.32,0.52,0.34,0.23,0.49,0.44" style="fill:rgb(0,0,0);font-family:AdvOTea1a7398;font-size:9.46px;stroke:none;">invertible chiral dopants allows converting between right-handed and left-handed trajectories</text>
   <text y="391.632" x="43.597,48.518,53.052,57.974,62.507,70.192,72.36,76.695,81.228,83.395,85.563,90.096,92.1772,95.47,100.004,104.926,109.8452,113.159,118.08,121.327,126.248,131.17,133.337,137.965,141.013,145.1754,148.421,152.557,157.479,162.4,164.568,169.196,173.531,176.578,181.206,186.12519999999998,189.466,192.514,197.4332,200.748,204.884,209.806,214.14,219.05919999999998,222.348,226.882,231.8012,235.104,237.271,242.192,246.622,251.25,254.496,258.632,260.8,265.721,270.6402,273.994,277.241,281.869,286.791,290.037,292.204,296.833,301.754,304.7812,308.123,310.29,315.2092,318.498,323.0388,326.321,331.243,333.41,336.657,341.285,345.62,348.667,350.835,355.756,360.67519999999996,363.965,367.013,371.934,376.468,379.4952,382.844,385.011,389.1734,392.425,396.959,399.126,403.262" svgx:width="0.52,0.48,0.52,0.48,0.81,0.23,0.46,0.48,0.23,0.23,0.48,0.22,0.55,0.48,0.52,0.52,0.55,0.52,0.34,0.52,0.52,0.23,0.49,0.32,0.44,0.55,0.44,0.52,0.52,0.23,0.49,0.46,0.32,0.49,0.52,0.55,0.32,0.52,0.55,0.44,0.52,0.46,0.52,0.55,0.48,0.52,0.55,0.23,0.52,0.47,0.49,0.34,0.44,0.23,0.52,0.52,0.55,0.34,0.49,0.52,0.34,0.23,0.49,0.52,0.32,0.55,0.23,0.52,0.55,0.48,0.55,0.52,0.23,0.34,0.49,0.46,0.32,0.23,0.52,0.52,0.55,0.32,0.52,0.48,0.32,0.55,0.23,0.44,0.55,0.48,0.23,0.44,0.52" style="fill:rgb(0,0,0);font-family:AdvOTea1a7398;font-size:9.46px;stroke:none;">dynamically, and droplets subjected to such an inversion reorient in a direction that is also</text>
   <text y="405.578" x="43.597,48.225,53.147,57.481,62.403,67.325,71.953,76.8722,81.014,85.936,90.47680000000001,94.677,97.725,102.646,107.2814,111.401,116.323,121.244,128.93,133.851,138.479,141.6954,145.927,150.849,153.5924,157.719,161.855,166.777,168.944,172.19,176.724,178.8998,183.06,186.108,191.03,194.276,199.198,203.334,205.4152,209.593,215.006,219.928,222.095,226.2574,230.399,238.084,243.005,246.053,248.22,250.388,255.0234,259.198,264.12,268.748,273.67,278.203,282.633,284.8,289.722,292.9384,297.126,301.262,304.31,308.938,316.623,320.7854,324.906,327.66,330.906,335.828,343.4906,347.696,352.618,357.151,362.073,366.607,374.292,376.459,380.8106,384.943,387.991,391.237,395.771,400.692,404.828" svgx:width="0.49,0.52,0.46,0.52,0.52,0.49,0.52,0.55,0.52,0.48,0.55,0.32,0.52,0.49,0.55,0.52,0.52,0.81,0.52,0.49,0.34,0.55,0.52,0.29,0.55,0.44,0.52,0.23,0.34,0.48,0.23,0.55,0.32,0.52,0.34,0.52,0.44,0.22,0.55,0.57,0.52,0.23,0.44,0.55,0.81,0.52,0.32,0.23,0.23,0.49,0.55,0.52,0.49,0.52,0.48,0.47,0.23,0.52,0.34,0.55,0.44,0.32,0.49,0.81,0.44,0.55,0.29,0.34,0.52,0.81,0.55,0.52,0.48,0.52,0.48,0.81,0.23,0.46,0.55,0.32,0.34,0.48,0.52,0.44,0.35" style="fill:rgb(0,0,0);font-family:AdvOTea1a7398;font-size:9.46px;stroke:none;">encoded by the number of spiral turns. This motile behavior stems from dynamic trans-</text>
   <text y="419.524" x="43.597,51.282,53.449,57.585,61.722,63.889,68.81,73.7292,76.875,81.797,84.54039999999999,87.704,92.039,96.96,99.128,102.374,106.907,109.075,111.242,114.29,118.823,120.90419999999999,123.987,126.741,129.988,134.909,142.5716,145.757,148.804,153.726,158.3614,161.517,166.051,169.297,172.345,174.501,179.433,183.768,185.935,190.468,192.6438,195.76,203.445,208.367,210.534,215.163,219.497,224.419,226.586,231.12,234.3364,237.543,245.228,250.149,253.197,258.119,261.365,265.5274,268.61,271.658,276.5772,279.722,282.769,287.691,292.3264,295.482,297.649,299.817,304.738,309.66,311.827,316.7462,319.86,324.195,327.441,331.975,336.111,339.158,343.692,345.8678,349.0,351.167,356.08619999999996,359.261,363.596,368.517,373.436,378.368,383.29,387.918,395.603,400.231,405.153" svgx:width="0.81,0.23,0.44,0.44,0.23,0.52,0.52,0.55,0.52,0.29,0.55,0.46,0.52,0.23,0.34,0.48,0.23,0.23,0.32,0.48,0.22,0.55,0.29,0.34,0.52,0.81,0.55,0.32,0.52,0.49,0.55,0.48,0.34,0.32,0.23,0.52,0.46,0.23,0.48,0.23,0.55,0.81,0.52,0.23,0.49,0.46,0.52,0.23,0.48,0.34,0.55,0.81,0.52,0.32,0.52,0.34,0.44,0.55,0.32,0.52,0.55,0.32,0.52,0.49,0.55,0.23,0.23,0.52,0.52,0.23,0.52,0.55,0.46,0.34,0.48,0.44,0.32,0.48,0.23,0.55,0.23,0.52,0.55,0.46,0.52,0.52,0.52,0.52,0.49,0.81,0.49,0.52,0.32" style="fill:rgb(0,0,0);font-family:AdvOTea1a7398;font-size:9.46px;stroke:none;">mission of chirality, from the artiﬁcial molecular motors to the liquid crystal in conﬁnement</text>
   <text y="433.47" x="43.597,48.13,53.052,57.9712,61.852,66.48,70.91,75.538,80.46,83.507,88.429,92.962,95.13,97.228,101.7688,105.675,108.723,113.6422,117.524,120.571,125.493,130.1284,134.022,138.943,143.571,145.739,147.906,152.241,156.775,158.95080000000002,162.821,165.869,169.115,173.649,175.816,180.445,184.779,187.827,192.749,195.995,200.528,202.6092,206.531,208.698,213.6172,217.53,222.063,226.985,231.518,233.686,238.607,243.34,247.8808,251.772,258.567,260.735,263.782,268.7012,272.578,275.625,280.547,285.18240000000003,289.075,293.41,298.332,300.499,303.746,308.279,310.446,312.614,315.661,320.195,323.545,328.467,333.389,337.944,341.19,345.724,348.771,353.4,358.31919999999997,362.265,369.95,374.872,377.92,380.087,385.009,389.9282,393.843,398.376,403.298" svgx:width="0.48,0.52,0.52,0.55,0.49,0.47,0.49,0.52,0.32,0.52,0.48,0.23,0.23,0.48,0.55,0.32,0.52,0.55,0.32,0.52,0.49,0.55,0.52,0.49,0.23,0.23,0.46,0.48,0.23,0.55,0.32,0.34,0.48,0.23,0.49,0.46,0.32,0.52,0.34,0.48,0.22,0.55,0.23,0.52,0.55,0.48,0.52,0.48,0.23,0.52,0.5,0.48,0.55,0.72,0.23,0.32,0.52,0.55,0.32,0.52,0.49,0.55,0.46,0.52,0.23,0.34,0.48,0.23,0.23,0.32,0.48,0.35,0.52,0.52,0.49,0.34,0.48,0.32,0.49,0.52,0.55,0.81,0.52,0.32,0.23,0.52,0.52,0.55,0.48,0.52,0.52" style="fill:rgb(0,0,0);font-family:AdvOTea1a7398;font-size:9.46px;stroke:none;">and eventually to the helical trajectory, in analogy with the chirality-operated motion and</text>
   <text y="447.417" x="43.597,46.843,51.471,56.393,59.639,61.807,66.435,71.356,74.404,78.938,81.985,84.153,89.074,93.9932,97.171,102.093,104.8364,108.056,112.192,118.988,121.155,128.841,136.526,138.693,143.615,148.345,151.483,155.818,160.446,162.613,164.781,168.9434,172.062,176.595,181.517,186.43619999999999,189.637,194.558,199.48,201.647,205.982,210.61,212.777,214.945,219.866,222.034,226.567,229.7834,233.006,237.928,241.174,245.906,250.44,255.361,257.529,261.665,269.35,273.486" svgx:width="0.34,0.49,0.52,0.34,0.23,0.49,0.52,0.32,0.48,0.32,0.23,0.52,0.52,0.55,0.52,0.29,0.55,0.44,0.72,0.23,0.81,0.81,0.23,0.52,0.5,0.55,0.46,0.49,0.23,0.23,0.44,0.55,0.48,0.52,0.52,0.55,0.52,0.52,0.23,0.46,0.49,0.23,0.23,0.52,0.23,0.48,0.34,0.55,0.52,0.34,0.5,0.48,0.52,0.23,0.44,0.81,0.44,0.22" style="fill:rgb(0,0,0);font-family:AdvOTea1a7398;font-size:9.46px;stroke:none;">reorientation of swimming cells and unicellular organisms.</text>
  </g>
  <g begin="text">
   <text y="157.493" x="46.602,50.834,53.655,56.477,60.789,64.439,66.511,70.656,74.8,79.03,83.174,85.247,87.239,91.384,94.373,98.986,103.13,106.366,111.347,113.34,116.576,121.557,125.869,130.516,134.66,138.217,143.031,146.267,151.081,155.64,159.872,162.606,167.588,170.824,175.295,178.029,181.264,185.576,189.888,194.87,198.105,200.839" svgx:width="0.53,0.35,0.35,0.54,0.46,0.26,0.52,0.52,0.54,0.52,0.26,0.25,0.52,0.38,0.53,0.52,0.41,0.63,0.25,0.41,0.63,0.54,0.58,0.52,0.46,0.6,0.41,0.6,0.57,0.53,0.34,0.63,0.41,0.57,0.34,0.41,0.54,0.54,0.63,0.41,0.34,0.57" style="fill:rgb(255,255,255);font-family:AdvOTcb88df00;font-size:7.97px;stroke:none;">https://doi.org/10.1038/s41467-019-13201-6</text>
  </g>
  <g begin="text">
   <text y="157.798" x="234.595,242.685,249.621,256.557" svgx:width="0.78,0.67,0.67,0.72" style="fill:rgb(240,132,26);font-family:Arial-BoldMT;font-size:10.4px;stroke:none;">OPEN</text>
  </g>
  <path style="fill:rgb(236,126,28);stroke:none;stroke-width:1.0;" d="M43.6 696.36 L551.68 696.36 L551.68 737.23 L43.6 737.23 M43.6 696.08 L551.68 696.08 L551.91 696.24 L551.91 696.47 L551.68 696.64 L43.6 696.64 L43.37 696.47 L43.37 696.24 Z"/>
  <g begin="text">
   <text y="704.409" x="43.597" svgx:width="0.34" style="fill:rgb(0,0,0);font-family:AdvOTf23bb480;font-size:6.38px;stroke:none;">1</text>
   <text y="707.357" x="47.112,51.424,53.161,57.226,60.127,61.865,65.929,69.333,73.477,75.215,77.781,81.525,85.66940000000001,88.328,92.146,96.211,100.3554,103.012,107.076,113.548,117.366,119.932,122.4824,125.122,132.343,136.16,138.727,142.545,145.111,146.848,150.666,152.404,155.807,157.48069999999998,160.045,167.266,171.251,175.316" svgx:width="0.54,0.22,0.51,0.36,0.22,0.51,0.43,0.52,0.22,0.32,0.48,0.52,0.55,0.48,0.51,0.52,0.55,0.51,0.81,0.48,0.32,0.32,0.55,0.91,0.48,0.32,0.48,0.32,0.22,0.48,0.22,0.43,0.21,0.55,0.91,0.5,0.51,0.69" style="fill:rgb(0,0,0);font-family:AdvOTf23bb480;font-size:7.97px;stroke:none;">Bio-inspired and Smart Materials, MESA</text>
   <text y="707.357" x="180.738" svgx:width="0.77" style="fill:rgb(0,0,0);font-family:AdvTTab7e17fd;font-size:7.97px;stroke:none;">+</text>
   <text y="707.357" x="189.525,191.597,195.662,199.065,201.632,203.369,205.936,210.0,212.567,216.39260000000002,219.005,221.245,225.31,227.8604,230.514,236.069,239.887,243.952,248.017,250.583,254.401,258.051,262.116,266.181,270.245,271.9,275.965,279.95,283.68,285.3537,288.001,293.309,297.374,299.111,302.762,306.579,309.146,312.549,314.286,316.853,320.5989,323.151,327.216,329.4476,332.109,336.588,342.398,346.216,350.281,352.847,356.665,358.3387,360.909,365.053,370.9508,373.609,377.921,381.985,385.6512,388.292,392.524,397.338,401.57,403.2437,405.811,409.796,413.861,417.264,420.914,424.979,428.797,432.941,436.7666,439.373,443.605,447.837,452.651,457.465,462.941,466.926,468.5997,471.178,475.657,479.722,483.5476,486.145,491.701,495.518,498.085,502.15,505.967,508.534,510.271,514.089,518.154,522.298,525.702" svgx:width="0.26,0.51,0.43,0.32,0.22,0.32,0.51,0.32,0.48,0.55,0.28,0.51,0.32,0.55,0.7,0.48,0.51,0.51,0.32,0.48,0.46,0.51,0.51,0.51,0.22,0.51,0.5,0.47,0.21,0.55,0.67,0.51,0.22,0.46,0.48,0.32,0.43,0.22,0.32,0.47,0.55,0.51,0.28,0.55,0.56,0.73,0.48,0.51,0.32,0.48,0.21,0.55,0.52,0.74,0.55,0.54,0.51,0.46,0.55,0.53,0.6,0.53,0.21,0.55,0.5,0.51,0.43,0.46,0.51,0.48,0.52,0.48,0.55,0.53,0.53,0.6,0.6,0.69,0.5,0.21,0.55,0.56,0.51,0.48,0.55,0.7,0.48,0.32,0.51,0.48,0.32,0.22,0.48,0.51,0.52,0.43,0.21" style="fill:rgb(0,0,0);font-family:AdvOTf23bb480;font-size:7.97px;stroke:none;">Institute for Nanotechnology, University of Twente, PO Box 207, Enschede 7500AE, The Netherlands.</text>
   <text y="714.387" x="43.597" svgx:width="0.53" style="fill:rgb(0,0,0);font-family:AdvOTf23bb480;font-size:6.38px;stroke:none;">2</text>
   <text y="717.335" x="48.302,51.953,55.77,59.915,63.98,66.546,70.364,72.93,76.995,79.483,83.22890000000001,85.89,88.129,92.194,94.7444,97.399,101.543,105.608,109.338,112.741,114.479,118.129,121.947,123.7004,126.312,130.624,132.362,136.427,138.164,142.229,146.214,149.944,151.61769999999999,154.206,158.685,160.757,165.484,169.469,175.048,177.62,182.761,186.578,190.643,193.209,197.027,199.57739999999998,202.225,204.464,208.529,211.0794,213.734,218.045,219.783,223.848,227.251,230.981,234.384,236.951,240.768,247.24,250.6671,253.249,258.804,262.534,266.599,270.417,276.889,278.626,282.276,285.7031,288.285,292.764,296.582,299.985,303.803,307.621,310.187,313.838,317.902,319.5757,322.131,326.858,330.923,335.067,338.8926,341.521,346.0,350.232,355.046,357.947,362.761,367.575,372.301,376.534,378.2077,380.752,383.574,387.391,391.536,395.354,399.418" svgx:width="0.46,0.48,0.52,0.51,0.32,0.48,0.32,0.51,0.32,0.47,0.55,0.28,0.51,0.32,0.55,0.52,0.51,0.47,0.43,0.22,0.46,0.48,0.22,0.55,0.54,0.22,0.51,0.22,0.51,0.5,0.47,0.21,0.55,0.56,0.26,0.59,0.5,0.7,0.55,0.64,0.48,0.51,0.32,0.48,0.32,0.55,0.28,0.51,0.32,0.55,0.54,0.22,0.51,0.43,0.47,0.43,0.32,0.48,0.81,0.43,0.55,0.7,0.47,0.51,0.48,0.81,0.22,0.46,0.43,0.55,0.56,0.48,0.43,0.48,0.48,0.32,0.46,0.51,0.21,0.55,0.59,0.51,0.52,0.48,0.55,0.56,0.53,0.6,0.36,0.6,0.6,0.59,0.53,0.21,0.55,0.35,0.48,0.52,0.48,0.51,0.21" style="fill:rgb(0,0,0);font-family:AdvOTf23bb480;font-size:7.97px;stroke:none;">Laboratory for Physical Biology, RIKEN Center for Biosystems Dynamics Research, Kobe 650-0047, Japan.</text>
   <text y="714.387" x="403.71" svgx:width="0.52" style="fill:rgb(0,0,0);font-family:AdvOTf23bb480;font-size:6.38px;stroke:none;">3</text>
   <text y="717.335" x="408.359,410.431,414.496,417.899,420.466,422.203,424.77,428.834,431.401,435.2266,437.839,440.079,444.144,446.69440000000003,449.348,454.903,458.721,461.288,465.352,467.919,471.736,473.4894,476.107,480.172,483.822,485.56,489.378,493.442,497.093,500.911,504.314,505.9877,508.536,512.6,516.665,520.483,524.548,528.533,532.598,536.416,538.1694000000001,540.738,543.559,547.377" svgx:width="0.26,0.51,0.43,0.32,0.22,0.32,0.51,0.32,0.48,0.55,0.28,0.51,0.32,0.55,0.7,0.48,0.32,0.51,0.32,0.48,0.22,0.55,0.51,0.46,0.22,0.48,0.51,0.46,0.48,0.43,0.21,0.55,0.51,0.51,0.48,0.51,0.5,0.51,0.48,0.22,0.55,0.35,0.48,0.51" style="fill:rgb(0,0,0);font-family:AdvOTf23bb480;font-size:7.97px;stroke:none;">Institute for Natural Sciences, Shanghai Jao</text>
   <text y="727.256" x="43.596,48.075,52.14,56.204,60.189,62.815,68.123,72.188,73.925,77.576,81.394,83.96,87.363,89.101,91.667,95.397,97.0707,99.666,105.221,109.286,110.9597,113.556,118.115,122.929,127.711,130.394,135.949,140.014,144.078,148.063,151.714,155.679,159.744,163.562,167.6267,170.306,174.785,178.93,180.6037,183.232,190.453,192.19,196.255,200.32,204.038,208.103,212.08800000000002,214.753,220.309,222.046,225.449,228.016,230.582,232.32,235.97,238.536,240.2097,242.816,246.881,250.946,254.764,258.829,262.814,266.878,270.696,272.4494,275.018,279.251,284.065,288.879,293.111,297.837,302.651,304.3247,306.937,312.077,316.142,317.88,321.945,325.762" svgx:width="0.56,0.51,0.51,0.5,0.55,0.67,0.51,0.22,0.46,0.48,0.32,0.43,0.22,0.32,0.47,0.21,0.55,0.7,0.51,0.21,0.55,0.57,0.6,0.6,0.55,0.7,0.51,0.51,0.5,0.46,0.51,0.51,0.48,0.51,0.55,0.56,0.52,0.21,0.55,0.91,0.22,0.51,0.51,0.48,0.51,0.5,0.55,0.7,0.22,0.43,0.32,0.32,0.22,0.46,0.32,0.21,0.55,0.51,0.51,0.48,0.51,0.5,0.51,0.48,0.22,0.55,0.53,0.6,0.6,0.53,0.59,0.6,0.21,0.55,0.64,0.51,0.22,0.51,0.48,0.21" style="fill:rgb(0,0,0);font-family:AdvOTf23bb480;font-size:7.97px;stroke:none;">Tong University, No. 800 Dongchuan Rd, Minhang District, Shanghai 200240, China.</text>
   <text y="724.365" x="330.009" svgx:width="0.59" style="fill:rgb(0,0,0);font-family:AdvOTf23bb480;font-size:6.38px;stroke:none;">4</text>
   <text y="727.256" x="335.112,340.42,344.485,346.222,349.873,353.69,356.257,359.66,363.478,365.2314,367.824,372.136,373.873,377.938,379.676,383.74,387.726,391.4719,394.073,396.145,400.21,403.613,406.18,407.917,410.484,414.548,417.115,420.933,422.6067,425.197,429.677,433.741,437.5666,440.221,445.529,449.594,451.332,454.982,458.8,461.366,464.769,466.507,469.073,472.8189,475.428,479.493,481.7246,484.329,488.808,492.873,496.436,500.166,504.231,505.9047,508.537,512.769,515.67,519.815,522.716,525.4258,528.096,533.651,537.716,541.781,545.766,549.831" svgx:width="0.67,0.51,0.22,0.46,0.48,0.32,0.43,0.48,0.22,0.55,0.54,0.22,0.51,0.22,0.51,0.5,0.47,0.55,0.26,0.51,0.43,0.32,0.22,0.32,0.51,0.32,0.48,0.21,0.55,0.56,0.51,0.48,0.55,0.67,0.51,0.22,0.46,0.48,0.32,0.43,0.22,0.32,0.47,0.55,0.51,0.28,0.55,0.56,0.51,0.45,0.47,0.51,0.21,0.55,0.53,0.36,0.52,0.36,0.34,0.55,0.7,0.51,0.51,0.5,0.51,0.21" style="fill:rgb(0,0,0);font-family:AdvOTf23bb480;font-size:7.97px;stroke:none;">Universal Biology Institute, The University of Tokyo, 7-3-1 Hongo,</text>
   <text y="737.234" x="43.596,47.908,51.973,56.038,59.6,63.33,67.395,70.296,73.859,77.839,79.5127,82.148,86.627,90.692,94.255,97.985,102.0497,104.712,107.445,110.179,114.324,117.225,122.039,126.853,130.997,135.142,136.8157,139.408,142.23,146.048,150.192,154.01,158.075,159.74869999999999,162.312,165.548,169.366,175.838,179.655,181.393,183.13" svgx:width="0.54,0.51,0.51,0.45,0.47,0.51,0.36,0.45,0.51,0.21,0.55,0.56,0.51,0.45,0.47,0.51,0.55,0.34,0.34,0.52,0.36,0.6,0.6,0.52,0.52,0.21,0.55,0.35,0.48,0.52,0.48,0.51,0.21,0.55,0.41,0.48,0.81,0.48,0.22,0.22,0.22" style="fill:rgb(0,0,0);font-family:AdvOTf23bb480;font-size:7.97px;stroke:none;">Bunkyo-ku, Tokyo 113-0033, Japan. *email:</text>
   <text y="737.234" x="187.483,190.886,194.704,198.769,202.834,209.552,213.697,217.762,221.492,224.895,226.553,229.956,231.533,235.598,238.677,241.244,245.308,248.871,252.601,256.666,258.324,262.141,265.792,267.364,269.102" svgx:width="0.43,0.48,0.51,0.51,0.84,0.52,0.51,0.47,0.43,0.21,0.43,0.21,0.51,0.36,0.32,0.51,0.45,0.47,0.51,0.21,0.48,0.46,0.21,0.22,0.52" style="fill:rgb(0,0,255);font-family:AdvOTf23bb480;font-size:7.97px;stroke:none;">sano@phys.s.u-tokyo.ac.jp</text>
   <text y="737.234" x="273.26" svgx:width="0.22" style="fill:rgb(0,0,0);font-family:AdvOTf23bb480;font-size:7.97px;stroke:none;">;</text>
   <text y="737.234" x="277.682,281.747,283.404,287.469,289.127,292.69,296.507,299.074,302.477,306.542,310.507,312.245,315.648,322.367,326.431,328.998,334.808,338.626,342.691,345.257,349.075,350.733,354.728" svgx:width="0.51,0.21,0.51,0.21,0.45,0.48,0.32,0.43,0.51,0.51,0.22,0.43,0.84,0.51,0.32,0.73,0.48,0.51,0.32,0.48,0.21,0.51,0.22" style="fill:rgb(0,0,255);font-family:AdvOTf23bb480;font-size:7.97px;stroke:none;">n.h.katsonis@utwente.nl</text>
   <text y="757.134" x="43.597,48.284,52.904,56.751,61.303,65.083,68.443,70.753,75.09,80.06,86.153,92.245,96.798,101.485,103.234,107.659,112.279,116.126,117.874,122.844,127.531" svgx:width="0.7,0.69,0.57,0.68,0.56,0.5,0.55,0.64,0.74,0.91,0.91,0.68,0.7,0.26,0.64,0.69,0.57,0.26,0.74,0.7,0.51" style="fill:rgb(236,126,28);font-family:AdvOTea1a7398;font-size:6.72px;stroke:none;">NATURE COMMUNICATIONS</text>
   <text y="757.134" x="132.151,133.8982,136.119,136.119,136.119,136.185,136.185,136.185,136.185,136.185,136.185,136.185,138.842,142.521,146.65,149.03,152.81,155.466,155.466,157.847,161.976,163.55,167.121,170.692,174.189,177.968,177.968,179.138,180.8852,182.029,185.526,187.691,189.857,193.354,196.292,197.758,201.188,204.618,208.115,211.612,213.266,214.732,218.229,220.536,224.265,227.694,230.075,234.204,235.67,238.051,242.18,245.677,249.55,252.979,255.918,259.839,262.219,266.14,269.919,273.49,275.871,280.0,282.381,286.16,288.541,290.921,294.418,297.989,302.216,304.597,306.978,310.7412,311.911,313.6582,314.802,319.63,324.459,329.287,330.753,334.25,337.472,339.637,343.134,345.441,348.729,350.195,353.409,356.906,362.367,365.796,369.293,372.514,374.68,378.177,380.483,383.772,386.852,390.349,395.928,401.388,404.885,408.382,409.922,413.002,416.224,418.389,419.929,423.426,426.923" svgx:width="0.26,0.55,0.0,0.0,0.55,0.0,0.0,0.0,0.0,0.0,0.0,0.4,0.53,0.61,0.35,0.56,0.4,0.0,0.35,0.61,0.22,0.53,0.53,0.52,0.56,0.0,0.55,0.26,0.55,0.52,0.32,0.32,0.52,0.44,0.22,0.51,0.51,0.52,0.52,0.23,0.22,0.52,0.34,0.5,0.51,0.35,0.61,0.22,0.35,0.61,0.52,0.56,0.51,0.44,0.58,0.35,0.58,0.56,0.53,0.35,0.61,0.35,0.56,0.35,0.35,0.52,0.53,0.61,0.35,0.35,0.56,0.55,0.26,0.55,0.72,0.72,0.72,0.22,0.52,0.48,0.32,0.52,0.34,0.49,0.22,0.46,0.52,0.81,0.51,0.52,0.48,0.32,0.52,0.34,0.49,0.46,0.52,0.81,0.81,0.52,0.52,0.23,0.46,0.48,0.32,0.23,0.52,0.52,0.44" style="fill:rgb(0,0,0);font-family:AdvOTea1a7398;font-size:6.72px;stroke:none;">| (2019) 10:5238 | https://doi.org/10.1038/s41467-019-13201-6 | www.nature.com/naturecommunications</text>
   <text y="757.134" x="547.483" svgx:width="0.58" style="fill:rgb(0,0,0);font-family:AdvTTda6f6cb8.B;font-size:7.22px;stroke:none;">1</text>
  </g>
  <path style="fill:rgb(255,204,0);stroke:none;stroke-width:0.25;" d="M33.6 71.81 M33.6 37.7 L51.41 37.7 C59.23 37.7 65.97 35.01 72.4 30.83 C74.74 29.3 77.12 27.85 79.6 26.55 C80.15 26.26 80.71 25.99 81.27 25.73 C81.13 25.79 84.15 24.65 82.24 25.27 C83.63 24.82 85.06 24.54 86.5 24.37 C91.82 23.72 97.05 25.54 101.77 27.81 C112.32 32.87 121.38 40.64 131.89 45.79 C139.4 49.46 147.96 48.55 156.08 48.55 L306.35 48.55 C307.31 48.55 308.27 47.5 309.23 47.5 L154.85 47.5 C151.61 47.5 148.36 47.58 145.13 47.43 C138.82 47.15 133.53 44.28 128.199 41.1 C122.6 37.75 117.15 34.16 111.63 30.69 C106.37 27.37 100.63 24.3 94.41 23.4 C85.83 22.14 77.09 27.04 70.16 31.46 C68.0 32.84 65.83 34.76 63.33 35.46 C61.21 36.05 59.0 36.35 56.81 36.54 C55.31 36.67 53.8 36.65 52.29 36.65 L36.48 36.65 C35.51 36.65 34.55 37.7 33.6 37.7 "/>
  <path style="fill:rgb(227,31,37);stroke:none;stroke-width:0.25;" d="M33.6 39.5 L45.82 39.5 C51.36 39.5 56.53 39.74 61.78 37.81 C65.76 36.35 68.72 34.02 71.25 30.61 C73.82 27.17 75.79 22.08 79.91 20.22 C78.96 20.56 78.02 20.91 77.08 21.25 C79.85 20.33 81.97 22.31 83.67 24.27 C85.79 26.72 87.52 29.54 89.52 32.09 C93.07 36.61 97.45 40.82 103.46 41.3 C110.77 41.88 119.26 39.07 125.14 34.84 C127.6 33.06 129.68 30.83 132.11 29.02 C132.72 28.57 133.94 28.3 132.07 28.75 C132.52 28.64 133.0 28.64 133.46 28.67 C134.4 28.73 135.3 29.35 136.05 29.87 C138.1 31.29 139.84 33.22 141.64 34.93 C144.27 37.44 147.04 39.73 150.06 41.76 C152.14 43.15 154.16 44.63 156.47 45.6 C158.81 46.59 161.45 46.74 163.95 46.74 L290.52 46.74 C291.48 46.74 292.44 45.69 293.4 45.69 L167.5 45.69 C164.32 45.69 161.25 45.46 158.33 44.1 C152.78 41.51 147.83 37.06 143.46 32.87 C140.6 30.13 137.83 26.61 133.55 28.12 C132.23 28.59 130.9 29.02 129.699 29.75 C126.99 31.4 124.77 33.96 122.26 35.89 C118.43 38.82 113.68 40.19 108.88 40.27 C103.85 40.34 99.94 38.77 96.24 35.33 C91.7 31.11 89.13 24.86 84.3 21.02 C81.71 18.96 77.63 20.5 75.29 22.35 C71.59 25.27 69.73 30.29 66.65 33.81 C65.19 35.47 63.1 37.43 60.91 37.98 C57.28 38.88 53.29 38.46 49.6 38.46 L36.48 38.46 C35.51 38.46 34.55 39.5 33.6 39.5 "/>
  <path style="fill:rgb(239,127,28);stroke:none;stroke-width:0.25;" d="M33.6 35.89 C39.08 35.89 44.55 35.85 50.02 35.89 C55.17 35.92 60.36 36.41 65.39 37.51 C71.51 38.85 77.67 42.34 84.07 40.93 C87.01 40.28 90.13 38.95 92.35 36.91 C95.09 34.37 96.6 30.77 98.39 27.58 C99.14 26.23 99.99 24.94 101.1 23.86 C101.95 23.03 103.49 22.83 101.24 23.32 C102.3 23.09 103.44 23.24 104.48 23.5 C109.17 24.66 109.94 31.28 110.6 35.15 C111.13 38.25 111.57 41.36 112.21 44.44 C112.86 47.63 113.58 51.01 115.81 53.5 C118.46 56.45 123.1 56.1 126.49 54.94 C131.97 53.07 137.24 51.44 143.04 50.84 C147.04 50.43 151.07 50.36 155.09 50.36 L318.09 50.36 C319.06 50.36 320.02 49.31 320.97 49.31 L168.43 49.31 C157.64 49.31 146.34 48.58 135.91 51.63 C131.91 52.8 128.27 54.89 124.15 54.71 C117.86 54.45 116.22 48.62 115.09 43.39 C113.71 37.03 113.8 18.76 102.68 22.7 C100.51 23.47 98.75 24.14 97.24 25.97 C95.47 28.14 94.36 30.84 92.98 33.25 C91.46 35.91 89.57 38.33 86.86 39.86 C86.27 40.15 86.3 40.16 86.95 39.88 C86.42 40.02 85.87 40.09 85.32 40.17 C84.31 40.3 83.28 40.28 82.26 40.19 C79.31 39.92 76.4 38.79 73.59 37.93 C61.45 34.21 49.0 34.84 36.48 34.84 C35.51 34.84 34.55 35.89 33.6 35.89 "/>
  <path style="fill:rgb(153,166,169);stroke:none;stroke-width:0.25;" d="M43.26 57.72 C43.44 57.72 45.33 57.63 45.78 57.63 C46.23 57.63 47.98 57.72 48.23 57.72 C48.48 57.72 48.81 57.74 48.81 57.52 C48.81 57.3 48.25 57.25 47.96 57.12 C47.58 56.96 47.28 56.76 47.2 56.38 C47.06 55.7 47.04 54.74 47.04 52.72 C47.04 51.23 47.06 49.64 47.49 48.89 C47.8 48.35 48.63 47.68 49.58 47.68 C50.52 47.68 51.08 47.86 51.62 48.49 C52.16 49.12 52.14 50.47 52.14 52.76 C52.14 54.62 52.14 55.57 52.05 56.24 C51.96 56.89 51.64 57.02 51.13 57.2 C50.72 57.34 50.21 57.32 50.21 57.55 C50.21 57.7 50.41 57.72 50.86 57.72 C51.19 57.72 52.7 57.63 53.37 57.63 C54.04 57.63 55.46 57.72 55.75 57.72 C56.04 57.72 56.25 57.68 56.25 57.5 C56.25 57.3 55.89 57.29 55.62 57.21 C54.52 56.92 54.52 56.98 54.52 53.9 C54.52 53.12 54.54 52.04 54.54 50.33 C54.54 49.52 54.45 48.29 54.02 47.68 C53.42 46.85 52.56 46.24 51.08 46.24 C48.72 46.24 47.69 48.2 47.26 48.2 C47.11 48.2 47.08 48.02 47.08 47.86 L47.08 46.65 C47.08 46.36 47.04 46.13 46.84 46.13 C46.72 46.13 46.56 46.25 46.47 46.33 C45.44 47.21 44.44 47.89 43.36 48.26 C43.26 48.29 43.18 48.33 43.18 48.47 C43.18 48.63 43.42 48.63 43.82 48.69 C44.12 48.72 44.37 48.85 44.48 48.99 C44.72 49.3 44.72 50.27 44.72 51.82 C44.72 54.08 44.7 55.54 44.57 56.38 C44.48 56.94 44.19 57.03 43.64 57.18 C43.2 57.29 42.82 57.32 42.82 57.54 C42.82 57.7 42.93 57.72 43.26 57.72 ZM61.7 55.79 C61.28 56.38 60.79 56.74 60.16 56.74 C59.57 56.74 58.78 56.33 58.78 55.3 C58.78 53.46 61.5 52.13 61.84 52.13 C62.11 52.13 62.24 52.26 62.24 52.63 C62.24 53.88 62.18 55.09 61.7 55.79 ZM64.31 57.79 C65.91 57.79 66.87 56.4 66.87 55.95 C66.87 55.86 66.83 55.75 66.72 55.75 C66.56 55.75 66.13 56.42 65.34 56.42 C64.58 56.42 64.42 55.66 64.42 54.87 C64.42 54.08 64.62 49.88 64.62 48.31 C64.62 46.4 62.89 46.09 61.39 46.09 C58.25 46.09 56.43 48.47 56.43 49.61 C56.43 50.02 56.79 50.2 57.04 50.2 C57.5 50.2 58.15 49.91 58.31 49.41 C58.67 48.22 59.21 46.69 60.87 46.69 C61.5 46.69 61.93 46.8 62.25 47.44 C62.42 47.77 62.38 48.33 62.38 49.05 C62.38 51.52 62.34 51.21 60.0 52.38 C58.54 53.12 56.65 54.02 56.65 55.9 C56.65 56.74 57.26 57.97 58.79 57.97 C60.34 57.97 61.44 57.0 62.02 56.17 C62.04 56.13 62.07 56.11 62.13 56.11 C62.22 56.11 62.25 56.19 62.27 56.28 C62.52 57.07 63.23 57.79 64.31 57.79 ZM91.94 57.72 C92.14 57.72 92.48 57.72 92.48 57.54 C92.48 57.3 92.25 57.32 91.96 57.27 C91.62 57.2 90.5 57.03 90.21 56.58 C89.96 56.2 89.99 54.67 89.99 52.71 C89.99 50.6 90.03 49.16 90.48 48.65 C90.64 48.47 90.82 48.15 91.27 48.15 C92.16 48.15 92.35 49.16 93.33 49.16 C94.07 49.16 94.72 48.61 94.72 47.75 C94.72 46.9 94.09 46.2 93.11 46.2 C91.4 46.2 90.52 48.13 90.16 48.13 C90.08 48.13 90.01 48.09 90.01 47.86 L90.01 46.56 C90.01 46.22 89.89 46.13 89.76 46.13 C89.65 46.13 89.51 46.16 89.16 46.51 C88.48 47.17 86.97 48.02 86.59 48.16 C86.26 48.29 86.1 48.35 86.1 48.51 C86.1 48.6 86.23 48.63 86.39 48.65 C87.62 48.72 87.67 49.03 87.67 52.1 C87.67 55.16 87.63 56.11 87.47 56.57 C87.31 57.02 86.5 57.18 86.28 57.23 C86.01 57.3 85.7 57.34 85.7 57.54 C85.7 57.7 86.01 57.72 86.23 57.72 C86.44 57.72 88.19 57.63 89.0 57.63 C89.81 57.63 91.74 57.72 91.94 57.72 ZM99.8 46.65 C101.31 46.65 101.84 47.75 101.84 48.26 C101.84 49.57 99.82 49.68 98.38 49.68 C97.15 49.68 96.79 49.59 96.79 49.26 C96.79 48.38 97.8 46.65 99.8 46.65 ZM99.26 57.95 C102.03 57.95 104.14 55.41 104.14 54.96 C104.14 54.87 104.11 54.8 103.96 54.8 C103.78 54.8 102.81 56.35 100.59 56.35 C97.64 56.35 96.49 54.04 96.49 51.41 C96.49 50.31 96.74 50.29 97.33 50.29 C99.6 50.29 101.53 50.43 103.1 50.43 C103.82 50.43 104.18 50.43 104.18 49.77 C104.18 47.91 102.34 46.09 99.93 46.09 C96.68 46.09 93.91 48.61 93.91 52.28 C93.91 55.75 96.25 57.95 99.26 57.95 ZM77.43 57.95 C79.63 57.95 81.0 56.04 81.29 56.04 C81.47 56.04 81.5 56.24 81.5 56.44 C81.5 56.94 81.47 57.25 81.47 57.63 C81.47 57.92 81.52 58.04 81.7 58.04 C81.76 58.04 81.99 57.95 82.14 57.9 C82.98 57.54 84.95 57.05 85.43 56.96 C85.76 56.91 85.88 56.83 85.88 56.71 C85.88 56.6 85.81 56.53 85.7 56.53 C85.6 56.53 85.18 56.57 85.0 56.57 C84.48 56.57 84.23 56.49 84.1 56.26 C83.92 55.93 83.9 54.87 83.9 53.43 C83.9 51.05 84.08 48.02 84.08 47.08 C84.08 46.74 83.97 46.6 83.56 46.61 L79.9 46.71 C79.54 46.72 79.47 46.8 79.47 46.96 C79.47 47.14 79.67 47.14 80.19 47.21 C80.66 47.26 81.05 47.3 81.31 47.53 C81.61 47.8 81.61 49.12 81.61 51.82 C81.61 53.12 81.59 54.67 81.31 55.2 C80.91 55.92 79.93 56.37 78.98 56.37 C77.27 56.37 76.67 55.5 76.67 54.26 C76.71 49.23 76.74 48.22 76.74 47.16 C76.74 46.61 76.69 46.49 76.17 46.51 L70.64 46.72 C70.45 46.72 70.35 46.6 70.35 46.34 C70.35 45.84 70.4 45.08 70.4 44.6 C70.4 44.38 70.31 44.27 70.15 44.27 C69.99 44.27 69.91 44.45 69.77 44.67 C69.16 45.59 67.88 46.6 67.01 47.21 C66.63 47.48 66.42 47.5 66.42 47.73 C66.42 47.82 66.51 47.86 66.61 47.86 L67.41 47.86 C67.93 47.86 67.95 48.24 67.95 48.56 C67.95 48.89 67.82 53.54 67.82 54.53 C67.82 56.51 68.26 57.95 70.2 57.95 C72.01 57.95 73.7 56.44 73.7 56.2 C73.7 56.13 73.65 56.08 73.56 56.08 C73.46 56.08 72.54 56.53 71.7 56.53 C71.05 56.53 70.67 56.37 70.42 55.92 C70.15 55.41 70.17 54.65 70.17 53.41 C70.17 50.43 70.2 49.07 70.26 48.16 C70.29 47.57 70.35 47.53 70.71 47.52 C71.08 47.5 71.63 47.48 72.29 47.48 C74.33 47.48 74.36 47.48 74.36 48.51 C74.36 49.03 74.28 53.21 74.28 54.64 C74.28 57.2 76.12 57.95 77.43 57.95 ZM123.14 68.04 L124.08 65.04 L124.11 65.04 L124.98 68.04 L123.14 68.04 ZM122.62 61.78 L119.03 71.52 L122.05 71.52 L122.48 70.13 L125.58 70.13 L125.99 71.52 L129.1 71.52 L125.55 61.78 L122.62 61.78 ZM106.39 71.52 M116.4 67.7 C116.22 68.61 115.83 69.32 114.82 69.32 C113.41 69.32 112.96 67.96 112.96 66.65 C112.96 65.34 113.41 63.98 114.82 63.98 C116.06 63.98 116.33 65.05 116.39 65.41 L119.3 65.41 C119.04 62.97 117.57 61.56 114.9 61.55 C111.9 61.55 109.96 63.58 109.96 66.65 C109.96 69.53 111.75 71.75 114.9 71.75 C117.75 71.75 119.35 69.66 119.35 67.7 L116.4 67.7 ZM156.57 66.99 L156.54 66.99 L153.71 61.78 L150.64 61.78 L150.64 71.52 L153.47 71.52 L153.47 66.2 L153.5 66.2 L156.49 71.52 L159.41 71.52 L159.41 61.78 L156.57 61.78 L156.57 66.99 ZM165.72 65.59 C164.35 65.2 162.95 65.05 162.9 64.36 C162.9 63.81 163.57 63.7 163.98 63.7 C164.28 63.7 164.62 63.77 164.86 63.95 C165.11 64.11 165.27 64.36 165.22 64.73 L168.05 64.73 C167.97 62.35 166.1 61.55 163.99 61.55 C161.99 61.55 160.06 62.52 160.06 64.769 C160.06 66.73 161.82 67.15 163.36 67.59 C165.04 68.07 165.46 68.2 165.46 68.71 C165.46 69.43 164.71 69.6 164.22 69.6 C163.66 69.6 163.01 69.47 162.79 68.89 C162.72 68.71 162.68 68.49 162.68 68.24 L159.68 68.24 C159.71 71.35 162.86 71.75 163.96 71.75 C166.13 71.75 168.46 70.93 168.46 68.39 C168.46 66.61 167.1 65.97 165.72 65.59 ZM127.71 64.28 L130.44 64.28 L130.44 71.52 L133.44 71.52 L133.44 64.28 L136.16 64.28 L136.16 61.78 L127.71 61.78 L127.71 64.28 ZM145.1 69.32 C144.34 69.32 143.16 68.82 143.16 66.65 C143.16 64.48 144.34 63.98 145.1 63.98 C145.86 63.98 147.04 64.48 147.04 66.65 C147.04 68.82 145.86 69.32 145.1 69.32 ZM145.1 61.55 C142.14 61.55 140.16 63.68 140.16 66.65 C140.16 69.62 142.14 71.75 145.1 71.75 C148.06 71.75 150.04 69.62 150.04 66.65 C150.04 63.68 148.06 61.55 145.1 61.55 ZM136.59 71.52 M92.89 67.09 C92.89 68.08 92.89 69.32 91.47 69.32 C90.01 69.32 90.01 68.08 90.01 67.09 L90.01 61.78 L87.01 61.78 L87.01 67.75 C87.01 70.45 88.48 71.75 91.46 71.75 C94.43 71.75 95.89 70.45 95.89 67.75 L95.89 61.78 L92.89 61.78 L92.89 67.09 ZM68.34 67.51 L68.31 67.51 L66.92 61.78 L62.65 61.78 L62.65 71.52 L65.489 71.52 L65.489 65.269 L65.51 65.269 L67.21 71.52 L69.44 71.52 L71.13 65.269 L71.16 65.269 L71.16 71.52 L74.0 71.52 L74.0 61.78 L69.73 61.78 L68.34 67.51 ZM57.14 69.32 C56.38 69.32 55.2 68.82 55.2 66.65 C55.2 64.48 56.38 63.98 57.14 63.98 C57.9 63.98 59.08 64.48 59.08 66.65 C59.08 68.82 57.9 69.32 57.14 69.32 ZM57.14 61.55 C54.18 61.55 52.2 63.68 52.2 66.65 C52.2 69.62 54.18 71.75 57.14 71.75 C60.1 71.75 62.08 69.62 62.08 66.65 C62.08 63.68 60.1 61.55 57.14 61.55 ZM47.39 69.32 C45.98 69.32 45.53 67.96 45.53 66.65 C45.53 65.34 45.98 63.98 47.39 63.98 C48.63 63.98 48.9 65.05 48.96 65.41 L51.87 65.41 C51.61 62.97 50.14 61.56 47.47 61.55 C44.47 61.55 42.53 63.58 42.53 66.65 C42.53 69.53 44.32 71.75 47.47 71.75 C50.32 71.75 51.92 69.66 51.92 67.7 L48.97 67.7 C48.79 68.61 48.4 69.32 47.39 69.32 ZM80.53 67.51 L80.5 67.51 L79.11 61.78 L74.84 61.78 L74.84 71.52 L77.68 71.52 L77.68 65.269 L77.71 65.269 L79.4 71.52 L81.64 71.52 L83.32 65.269 L83.35 65.269 L83.35 71.52 L86.19 71.52 L86.19 61.78 L81.92 61.78 L80.53 67.51 ZM102.67 66.99 L102.64 66.99 L99.8 61.78 L96.73 61.78 L96.73 71.52 L99.57 71.52 L99.57 66.2 L99.6 66.2 L102.58 71.52 L105.5 71.52 L105.5 61.78 L102.67 61.78 L102.67 66.99 "/>
  <g begin="text">
   <text y="334.035" transform="matrix(0.0,-1.0,1.0,0.0,-323.547,344.523)" rotateDegrees="-90" matrix="[0.0,4.9813,-4.9813,0.0,10.4882,448.3274]" x="10.488,12.25200000000001,14.897000000000048,17.487000000000023,20.39100000000002,23.036,25.836000000000013,28.48100000000005,31.28000000000003,34.24200000000002,37.301000000000045,39.26800000000003,41.23600000000005,42.322,43.408000000000015" svgx:width="0.35,0.53,0.52,0.58,0.53,0.56,0.53,0.56,0.56,0.61,0.4,0.4,0.22,0.22,0.22" style="fill:rgb(255,255,255);font-family:AdvOTea1a7398;font-size:4.98px;stroke:none;">1234567890():,;</text>
  </g>
 </g>
</svg>
