<?xml version="1.0" encoding="UTF-8"?>
<svg height="819.63" width="626.42" xmlns="http://www.w3.org/2000/svg">
 <g id="page" xmlns:svgx="http://www.xml-cml.org/schema/svgx">
  <path style="fill:rgb(2,0,0);stroke:none;stroke-width:1.0;" d="M9.01 8.73 L616.42 8.73 L616.42 809.63 L9.01 809.63 M9.01 17.63 L9.01 17.35 "/>
  <path style="fill:rgb(2,0,0);stroke:none;stroke-width:1.0;" d="M17.63 8.73 L17.92 8.73 L17.63 8.73 "/>
  <path style="fill:rgb(2,0,0);stroke:none;stroke-width:1.0;" d="M607.46 8.73 L607.75 8.73 L607.46 8.73 "/>
  <path style="fill:rgb(2,0,0);stroke:none;stroke-width:1.0;" d="M616.42 17.63 L616.42 17.35 "/>
  <path style="fill:rgb(2,0,0);stroke:none;stroke-width:1.0;" d="M616.42 800.96 L616.42 800.67 "/>
  <path style="fill:rgb(2,0,0);stroke:none;stroke-width:1.0;" d="M607.46 809.63 L607.75 809.63 L607.46 809.63 "/>
  <path style="fill:rgb(2,0,0);stroke:none;stroke-width:1.0;" d="M17.63 809.63 L17.92 809.63 L17.63 809.63 "/>
  <path style="fill:rgb(2,0,0);stroke:none;stroke-width:1.0;" d="M9.01 8.73 L616.42 8.73 L616.42 809.63 L9.01 809.63 M9.01 800.96 L9.01 800.67 "/>
  <g begin="text">
   <text y="74.665" x="64.46,68.105,72.389,76.673,80.363,82.658,88.715,93.17,96.95,101.45,103.25,105.619,112.351,114.187,116.617,118.998,123.948,126.09,130.59,132.39000000000001,134.759,141.491,143.327,145.757,148.081,154.813,159.196,162.85,167.35,171.292,173.092,175.464,182.178,184.014,186.44400000000002,188.787,195.519,199.902,203.556,208.056,211.998,213.798,216.169,220.957,222.793,225.223,227.564,233.099,237.482,239.282,241.624,244.504,246.34,248.77,251.149,259.033,262.687,267.187,271.129,272.92900000000003,275.299,280.456,282.292,284.722,287.034,291.984,294.126,298.626" svgx:width="0.41,0.48,0.48,0.41,0.55,0.67,0.5,0.42,0.5,0.2,0.55,0.75,0.2,0.27,0.55,0.55,0.24,0.5,0.2,0.55,0.75,0.2,0.27,0.55,0.75,0.49,0.41,0.5,0.44,0.2,0.55,0.75,0.2,0.27,0.55,0.75,0.49,0.41,0.5,0.44,0.2,0.55,0.53,0.2,0.27,0.55,0.62,0.49,0.2,0.55,0.32,0.2,0.27,0.55,0.88,0.41,0.5,0.44,0.2,0.55,0.57,0.2,0.27,0.55,0.55,0.24,0.5,0.2" style="fill:rgb(0,0,0);font-family:AdvOT2e364b11;font-size:9.0px;stroke:none;">(60) Chen, H.; Lin, H.; Huang, Q.; Huang, F.; Xu, J.; Wang, B.; Lin,</text>
   <text y="84.7" x="60.492,65.82,67.656,70.08600000000001,73.474,78.802,83.257,87.685,92.068,93.868,97.286,100.166,102.002,104.432,107.773,115.657,119.311,123.811,127.753,129.553,133.001,138.077,139.877,143.319,148.809,152.22,156.72,161.148,164.937,168.717,170.787,174.16,178.633,183.061,187.444,191.845,193.924,197.704,200.278,204.688,208.468,211.384,215.812,219.601,222.706,226.738,228.88,231.526,235.306,238.675,245.011" svgx:width="0.59,0.2,0.27,0.55,0.59,0.5,0.49,0.49,0.2,0.55,0.32,0.2,0.27,0.55,0.88,0.41,0.5,0.44,0.2,0.55,0.56,0.2,0.55,0.61,0.55,0.5,0.49,0.42,0.42,0.23,0.55,0.5,0.49,0.49,0.49,0.23,0.42,0.29,0.49,0.42,0.32,0.49,0.42,0.34,0.45,0.24,0.29,0.42,0.55,0.7,0.5" style="fill:rgb(0,0,0);font-family:AdvOT2e364b11;font-size:9.0px;stroke:none;">Z.; Zhou, J.; Wang, Y. A novel double-perovskite Gd</text>
   <text y="86.513" x="249.505" svgx:width="0.48" style="fill:rgb(0,0,0);font-family:AdvOT2e364b11;font-size:6.03px;stroke:none;">2</text>
   <text y="84.699" x="252.397,257.725,262.225,267.994,270.136" svgx:width="0.59,0.5,0.64,0.24,0.75" style="fill:rgb(0,0,0);font-family:AdvOT2e364b11;font-size:9.0px;stroke:none;">ZnTiO</text>
   <text y="86.513" x="276.831" svgx:width="0.48" style="fill:rgb(0,0,0);font-family:AdvOT2e364b11;font-size:6.03px;stroke:none;">6</text>
   <text y="84.699" x="279.723,282.144,289.821" svgx:width="0.27,0.85,0.5" style="fill:rgb(0,0,0);font-family:AdvOT2e364b11;font-size:9.0px;stroke:none;">:Mn</text>
   <text y="81.184" x="294.293,297.163" svgx:width="0.48,0.55" style="fill:rgb(0,0,0);font-family:AdvOT2e364b11;font-size:6.03px;stroke:none;">4+</text>
   <text y="94.677" x="60.491,63.407,67.187,71.687,76.366,80.775,85.23,89.659,92.764,97.174,101.629,106.057,108.937,113.725,116.083,120.511,123.39099999999999,128.182,134.527,140.134,142.708,147.109,150.763,153.868,157.648,162.148,166.846,172.597,175.171,180.121,185.143,191.524,194.629,197.059,201.826,204.931,207.577,210.493,214.876,218.521,221.167,225.55,228.466,232.246,236.975,240.629,245.129,249.629,254.379,256.458,260.841,267.618,269.76,274.26,278.04,281.145,284.79,288.57,293.07,296.715" svgx:width="0.32,0.42,0.5,0.55,0.49,0.5,0.49,0.34,0.49,0.5,0.49,0.32,0.55,0.26,0.49,0.32,0.55,0.7,0.62,0.29,0.49,0.41,0.34,0.42,0.5,0.55,0.64,0.29,0.55,0.56,0.71,0.34,0.27,0.55,0.34,0.29,0.32,0.49,0.41,0.29,0.49,0.32,0.42,0.55,0.41,0.5,0.5,0.55,0.23,0.49,0.75,0.24,0.5,0.42,0.34,0.41,0.42,0.5,0.41,0.42" style="fill:rgb(0,0,0);font-family:AdvOT2e364b11;font-size:9.0px;stroke:none;">red phosphor for UV-based w-LEDs: structure and luminescence</text>
   <text y="104.712" x="60.491,64.901,67.817,72.245,76.655,80.435,83.351,85.997,88.139,91.919,95.024" svgx:width="0.49,0.32,0.49,0.49,0.42,0.32,0.29,0.24,0.42,0.34,0.2" style="fill:rgb(0,0,0);font-family:AdvOT2e364b11;font-size:9.0px;stroke:none;">properties.</text>
   <text y="104.712" x="99.837,102.645,104.35499999999999,107.32,114.637,118.687,121.18,124.294,127.273,128.983,131.924,137.504,141.734,144.848,151.166,152.876,155.848" svgx:width="0.31,0.19,0.55,0.81,0.45,0.28,0.35,0.33,0.19,0.55,0.62,0.47,0.35,0.7,0.19,0.55,0.62" style="fill:rgb(0,0,0);font-family:AdvOT02ce3bbb.I;font-size:9.0px;stroke:none;">J. Mater. Chem. C</text>
   <text y="104.712" x="164.466,168.939,173.413,177.886" svgx:width="0.5,0.5,0.5,0.5" style="fill:rgb(0,0,0);font-family:AdvOT51c1769e;font-size:9.0px;stroke:none;">2016</text>
   <text y="104.712" x="182.325" svgx:width="0.2" style="fill:rgb(0,0,0);font-family:AdvOT2e364b11;font-size:9.0px;stroke:none;">,</text>
   <text y="104.712" x="187.201" svgx:width="0.48" style="fill:rgb(0,0,0);font-family:AdvOT02ce3bbb.I;font-size:9.0px;stroke:none;">4</text>
   <text y="104.712" x="191.452,193.252,196.271,200.555,204.839,209.123" svgx:width="0.2,0.55,0.48,0.48,0.48,0.48" style="fill:rgb(0,0,0);font-family:AdvOT2e364b11;font-size:9.0px;stroke:none;">, 2374</text>
   <text y="104.712" x="213.449" svgx:width="0.69" style="fill:rgb(0,0,0);font-family:AdvOT8608a8d1;font-size:9.0px;stroke:none;">−</text>
   <text y="104.712" x="219.572,223.856,228.14,232.424,236.708" svgx:width="0.48,0.48,0.48,0.48,0.2" style="fill:rgb(0,0,0);font-family:AdvOT2e364b11;font-size:9.0px;stroke:none;">2381.</text>
   <text y="114.69" x="64.46,68.105,72.389,76.673,80.363,83.339,88.289,90.431,92.231,95.244,100.779,102.615,105.045,108.056,114.113,118.568,122.348,126.848,128.648,131.641,136.969,138.805,141.235,144.226,152.11,155.764,160.264,164.206,166.006,169.057,174.214,176.05,178.48000000000002,181.473,186.423,188.565,192.219,196.719,200.661,202.461,205.51,211.018,212.854,215.28400000000002,218.266,223.216,225.358,227.15800000000002,230.171,235.247,237.083,239.513,242.473,248.26,251.914,256.414,260.356,262.156,265.207,270.157,271.993,274.423,277.396,282.346,284.488,288.871,290.671,293.724,298.638" svgx:width="0.41,0.48,0.48,0.41,0.55,0.55,0.24,0.2,0.55,0.62,0.2,0.27,0.55,0.67,0.5,0.42,0.5,0.2,0.55,0.59,0.2,0.27,0.55,0.88,0.41,0.5,0.44,0.2,0.55,0.57,0.2,0.27,0.55,0.55,0.24,0.41,0.5,0.44,0.2,0.55,0.61,0.2,0.27,0.55,0.55,0.24,0.2,0.55,0.56,0.2,0.27,0.55,0.64,0.41,0.5,0.44,0.2,0.55,0.55,0.2,0.27,0.55,0.55,0.24,0.49,0.2,0.55,0.55,0.2" style="fill:rgb(0,0,0);font-family:AdvOT2e364b11;font-size:9.0px;stroke:none;">(61) Li, X.; Chen, Z.; Wang, B.; Liang, R.; Li, Y.; Kang, L.; Liu, P.</text>
   <text y="124.669" x="60.492,65.514,67.872,70.23,74.01,77.655,80.301,83.361,87.761,92.189,94.529,98.986,101.884,108.661,113.071,117.454,120.37,122.512,125.158,129.028,133.399,139.78,144.208,148.618,150.76,155.26,159.22,163.616,168.044,172.544,176.939,179.585,184.04,187.82,192.246,197.196,201.579,208.356,210.498,214.998,218.778,221.883,225.528,229.308,233.808,237.453,241.233,245.593,250.507,254.287,257.203,259.561,263.989,266.905,273.682,277.336,281.836,285.481,289.26099999999997,293.669,298.097" svgx:width="0.56,0.26,0.26,0.42,0.41,0.29,0.34,0.55,0.49,0.26,0.55,0.32,0.75,0.49,0.49,0.32,0.24,0.29,0.43,0.55,0.71,0.49,0.49,0.24,0.5,0.44,0.55,0.49,0.5,0.55,0.29,0.5,0.42,0.55,0.55,0.49,0.75,0.24,0.5,0.42,0.34,0.41,0.42,0.5,0.41,0.42,0.55,0.55,0.42,0.32,0.26,0.49,0.32,0.75,0.41,0.5,0.41,0.42,0.55,0.49,0.26" style="fill:rgb(0,0,0);font-family:AdvOT2e364b11;font-size:9.0px;stroke:none;">Effects of Impurity Doping on the Luminescence Performance of</text>
   <text y="134.704" x="60.492,68.169" svgx:width="0.85,0.5" style="fill:rgb(0,0,0);font-family:AdvOT2e364b11;font-size:9.0px;stroke:none;">Mn</text>
   <text y="131.187" x="72.624,75.494" svgx:width="0.48,0.55" style="fill:rgb(0,0,0);font-family:AdvOT2e364b11;font-size:6.03px;stroke:none;">4+</text>
   <text y="134.702" x="78.803,81.377,87.758,92.186,96.596,100.376,104.876,108.454,113.971,116.05,120.433,127.21,129.352,133.852,137.506,140.152,143.932,146.992,150.576,156.327,158.469,161.115,165.615,169.115,171.761,176.216,179.996,183.571,191.248,194.902,198.844,203.344,207.124,209.77,214.198,218.608,220.687,225.07,231.847,236.248,238.39,241.036,244.816,247.39,253.159,257.038,261.448,265.22799999999995,268.78,273.127,275.773,278.689,283.072,286.717,289.363,293.746,296.662" svgx:width="0.29,0.71,0.49,0.49,0.42,0.5,0.55,0.61,0.23,0.49,0.75,0.24,0.5,0.41,0.29,0.42,0.34,0.55,0.64,0.24,0.29,0.5,0.55,0.29,0.5,0.42,0.55,0.85,0.41,0.44,0.5,0.42,0.29,0.49,0.49,0.23,0.49,0.75,0.49,0.24,0.29,0.42,0.29,0.64,0.43,0.49,0.42,0.55,0.48,0.29,0.32,0.49,0.41,0.29,0.49,0.32,0.42" style="fill:rgb(0,0,0);font-family:AdvOT2e364b11;font-size:9.0px;stroke:none;">-Doped Aluminates with the Magnetoplumbite-Type Structure</text>
   <text y="144.681" x="60.492,62.85,67.278,70.158,73.191,78.105,80.184,83.838,88.338,90.948,93.94,99.997,104.38,106.459,109.105,111.247,115.036,118.69,121.336,123.478,127.906,132.406" svgx:width="0.26,0.49,0.32,0.55,0.55,0.23,0.41,0.5,0.29,0.55,0.67,0.49,0.23,0.29,0.24,0.42,0.41,0.29,0.24,0.49,0.5,0.2" style="fill:rgb(0,0,0);font-family:AdvOT2e364b11;font-size:9.0px;stroke:none;">for Plant Cultivation.</text>
   <text y="144.681" x="137.254,144.571,148.621,151.114,154.228,157.207,159.322,163.372,165.442" svgx:width="0.81,0.45,0.28,0.35,0.33,0.23,0.45,0.23,0.3" style="fill:rgb(0,0,0);font-family:AdvOT02ce3bbb.I;font-size:9.0px;stroke:none;">Materials</text>
   <text y="144.681" x="171.156,175.629,180.102,184.575" svgx:width="0.5,0.5,0.5,0.5" style="fill:rgb(0,0,0);font-family:AdvOT51c1769e;font-size:9.0px;stroke:none;">2019</text>
   <text y="144.681" x="189.07" svgx:width="0.2" style="fill:rgb(0,0,0);font-family:AdvOT2e364b11;font-size:9.0px;stroke:none;">,</text>
   <text y="144.681" x="193.889,198.173" svgx:width="0.48,0.48" style="fill:rgb(0,0,0);font-family:AdvOT02ce3bbb.I;font-size:9.0px;stroke:none;">12</text>
   <text y="144.681" x="202.45,204.25,207.325,211.609" svgx:width="0.2,0.55,0.48,0.48" style="fill:rgb(0,0,0);font-family:AdvOT2e364b11;font-size:9.0px;stroke:none;">, 86</text>
   <text y="144.681" x="215.886" svgx:width="0.69" style="fill:rgb(0,0,0);font-family:AdvOT8608a8d1;font-size:9.0px;stroke:none;">−</text>
   <text y="144.681" x="222.065,226.349,230.633" svgx:width="0.48,0.48,0.2" style="fill:rgb(0,0,0);font-family:AdvOT2e364b11;font-size:9.0px;stroke:none;">96.</text>
   <text y="154.716" x="64.459,68.104,72.388,76.672,80.362,83.054,90.938,95.321,97.121,99.949,106.006,107.842,110.272,112.988,117.938,120.08,121.88,124.666,127.546,129.382,131.812,134.531,140.066,144.449,146.24900000000002,149.044,155.776,157.612,160.042,162.764,170.648,175.031,176.83100000000002,179.602,182.482,184.318,186.74800000000002,189.524,194.852,199.307,202.961,207.461,211.403,213.203,215.942,218.822,220.658,223.088,225.864,231.921,234.063,235.863,238.62,243.948,245.784,248.214,250.979,255.767,259.547,264.047,267.989,269.789,272.522,277.472,279.308,281.738,284.484,290.541,294.195,298.623" svgx:width="0.41,0.48,0.48,0.41,0.55,0.88,0.49,0.2,0.55,0.67,0.2,0.27,0.55,0.55,0.24,0.2,0.55,0.32,0.2,0.27,0.55,0.62,0.49,0.2,0.55,0.75,0.2,0.27,0.55,0.88,0.49,0.2,0.55,0.32,0.2,0.27,0.55,0.59,0.5,0.41,0.5,0.44,0.2,0.55,0.32,0.2,0.27,0.55,0.67,0.24,0.2,0.55,0.59,0.2,0.27,0.55,0.53,0.42,0.5,0.44,0.2,0.55,0.55,0.2,0.27,0.55,0.67,0.41,0.49,0.2" style="fill:rgb(0,0,0);font-family:AdvOT2e364b11;font-size:9.0px;stroke:none;">(62) Wu, C.; Li, J.; Xu, H.; Wu, J.; Zhang, J.; Ci, Z.; Feng, L.; Cao,</text>
   <text y="164.694" x="60.491,66.727,68.711,71.141,77.477,82.976,87.567,91.422,96.071,100.209,102.009,108.389,113.888,115.929,118.35900000000001,124.66,132.767,136.565,141.27,145.352,147.15200000000002,153.572,158.788,160.58800000000002,166.968,172.07,175.189,179.1,183.692,187.546,190.608,194.463,197.298,199.566,204.214,208.863,210.663,217.043,220.332,223.167,226.285,230.82,234.618,237.453,241.988,245.107,248.905,250.975,257.328,261.183,265.831,270.331,276.66,281.252,285.844,290.492,293.27,297.919" svgx:width="0.67,0.2,0.27,0.55,0.59,0.5,0.41,0.5,0.44,0.2,0.55,0.59,0.2,0.27,0.55,0.88,0.41,0.5,0.44,0.2,0.55,0.56,0.2,0.55,0.55,0.32,0.42,0.49,0.41,0.32,0.41,0.29,0.24,0.49,0.5,0.2,0.55,0.34,0.29,0.32,0.49,0.41,0.29,0.49,0.32,0.41,0.23,0.55,0.41,0.5,0.5,0.55,0.49,0.5,0.49,0.29,0.49,0.29" style="fill:rgb(0,0,0);font-family:AdvOT2e364b11;font-size:9.0px;stroke:none;">C.; Zhang, Z.; Wang, Y. Preparation, structural and photo-</text>
   <text y="174.672" x="60.491,62.561,63.605,69.023,76.835,78.99499999999999,80.012,85.547,90.309,93.369,94.449,99.129,103.944,109.479,114.159,117.93900000000001,126.007,130.687,136.13,140.819,143.69899999999998,144.77,149.459,154.139,156.74900000000002,157.82,162.635,165.515,166.586,168.746,169.817,172.877,173.956,176.566,177.584,179.744,180.759,185.439,188.499,196.607,202.07,204.41,212.502,218.037,223.5,228.324,233.139,235.209,243.287,246.167,247.255,252.07,256.57,264.599,269.414,277.226,279.386,280.403,283.01300000000003,284.084,286.694,287.765,289.925,290.942,296.477" svgx:width="0.23,0.55,0.49,0.75,0.24,0.55,0.5,0.42,0.34,0.55,0.41,0.42,0.5,0.41,0.42,0.55,0.41,0.5,0.41,0.32,0.55,0.41,0.41,0.29,0.55,0.42,0.32,0.55,0.24,0.55,0.34,0.55,0.29,0.55,0.24,0.55,0.41,0.34,0.55,0.49,0.26,0.55,0.5,0.49,0.42,0.42,0.23,0.55,0.32,0.55,0.42,0.5,0.55,0.42,0.75,0.24,0.55,0.29,0.55,0.29,0.55,0.24,0.55,0.5,0.44" style="fill:rgb(0,0,0);font-family:AdvOT2e364b11;font-size:9.0px;stroke:none;">l umi nes cence char act er i s t i cs of novel r ed emi t t i ng</text>
   <text y="184.707" x="60.491,68.168" svgx:width="0.85,0.44" style="fill:rgb(0,0,0);font-family:AdvOT2e364b11;font-size:9.0px;stroke:none;">Mg</text>
   <text y="186.463" x="72.113" svgx:width="0.48" style="fill:rgb(0,0,0);font-family:AdvOT2e364b11;font-size:6.03px;stroke:none;">7</text>
   <text y="184.705" x="74.948,81.284" svgx:width="0.7,0.41" style="fill:rgb(0,0,0);font-family:AdvOT2e364b11;font-size:9.0px;stroke:none;">Ga</text>
   <text y="186.463" x="84.926" svgx:width="0.48" style="fill:rgb(0,0,0);font-family:AdvOT2e364b11;font-size:6.03px;stroke:none;">2</text>
   <text y="184.705" x="87.817,94.153,97.933" svgx:width="0.7,0.42,0.75" style="fill:rgb(0,0,0);font-family:AdvOT2e364b11;font-size:9.0px;stroke:none;">GeO</text>
   <text y="186.463" x="104.655,107.525" svgx:width="0.48,0.48" style="fill:rgb(0,0,0);font-family:AdvOT2e364b11;font-size:6.03px;stroke:none;">12</text>
   <text y="184.705" x="110.381,112.802,120.479" svgx:width="0.27,0.85,0.5" style="fill:rgb(0,0,0);font-family:AdvOT2e364b11;font-size:9.0px;stroke:none;">:Mn</text>
   <text y="181.19" x="125.008,127.878" svgx:width="0.48,0.55" style="fill:rgb(0,0,0);font-family:AdvOT2e364b11;font-size:6.03px;stroke:none;">4+</text>
   <text y="184.705" x="133.568,137.979,142.434,146.861,149.966,154.376,158.831,163.259,166.175" svgx:width="0.49,0.5,0.49,0.34,0.49,0.5,0.49,0.32,0.2" style="fill:rgb(0,0,0);font-family:AdvOT2e364b11;font-size:9.0px;stroke:none;">phosphor.</text>
   <text y="184.705" x="170.476,173.284,174.994,177.335,182.726,184.796,186.867,190.674,194.193,196.893,199.389,204.969,208.776,215.094,219.225,223.428" svgx:width="0.31,0.19,0.55,0.6,0.23,0.23,0.42,0.39,0.3,0.55,0.62,0.42,0.7,0.46,0.47,0.19" style="fill:rgb(0,0,0);font-family:AdvOT02ce3bbb.I;font-size:9.0px;stroke:none;">J. Alloys Compd.</text>
   <text y="184.705" x="227.509,231.982,236.455,240.928" svgx:width="0.5,0.5,0.5,0.5" style="fill:rgb(0,0,0);font-family:AdvOT51c1769e;font-size:9.0px;stroke:none;">2015</text>
   <text y="184.705" x="245.367" svgx:width="0.2" style="fill:rgb(0,0,0);font-family:AdvOT2e364b11;font-size:9.0px;stroke:none;">,</text>
   <text y="184.705" x="249.676,253.96,258.244" svgx:width="0.48,0.48,0.48" style="fill:rgb(0,0,0);font-family:AdvOT02ce3bbb.I;font-size:9.0px;stroke:none;">646</text>
   <text y="184.705" x="262.488,264.288,266.74,271.024,275.308" svgx:width="0.2,0.55,0.48,0.48,0.48" style="fill:rgb(0,0,0);font-family:AdvOT2e364b11;font-size:9.0px;stroke:none;">, 734</text>
   <text y="184.705" x="279.61" svgx:width="0.69" style="fill:rgb(0,0,0);font-family:AdvOT8608a8d1;font-size:9.0px;stroke:none;">−</text>
   <text y="184.705" x="285.789,290.073,294.357,298.641" svgx:width="0.48,0.48,0.48,0.2" style="fill:rgb(0,0,0);font-family:AdvOT2e364b11;font-size:9.0px;stroke:none;">740.</text>
   <text y="194.684" x="64.46,68.105,72.389,76.673,80.363,83.736,89.064,93.519,97.947,102.33,104.13,107.546,112.874,114.71,117.14,120.528,125.856,130.311,134.091,138.591,142.533,144.333,147.798,150.678,152.514,154.94400000000002,158.285,162.632,167.087,169.229,171.02900000000002,174.5,180.008,181.844,184.274,187.652,192.98,197.435,201.089,205.589,209.531,211.33100000000002,214.751,221.357,223.193,225.62300000000002,229.038,235.095,239.55,243.33,247.83,249.63000000000002,253.075,255.955,257.791,260.221,263.564,268.892,273.347,277.001,281.501,285.443,287.243,290.719,296.227,298.063" svgx:width="0.41,0.48,0.48,0.41,0.55,0.59,0.5,0.49,0.49,0.2,0.55,0.59,0.2,0.27,0.55,0.59,0.5,0.42,0.5,0.44,0.2,0.55,0.32,0.2,0.27,0.55,0.48,0.5,0.24,0.2,0.55,0.61,0.2,0.27,0.55,0.59,0.5,0.41,0.5,0.44,0.2,0.55,0.73,0.2,0.27,0.55,0.67,0.5,0.42,0.5,0.2,0.55,0.32,0.2,0.27,0.55,0.59,0.5,0.41,0.5,0.44,0.2,0.55,0.61,0.2,0.27" style="fill:rgb(0,0,0);font-family:AdvOT2e364b11;font-size:9.0px;stroke:none;">(63) Zhou, Z.; Zheng, J.; Shi, R.; Zhang, N.; Chen, J.; Zhang, R.;</text>
   <text y="204.662" x="60.492,64.839,69.222,73.65,75.45,78.577,85.309,87.145,89.575,92.693,99.029,103.457,105.536,110.009,113.888,116.993,118.79299999999999,122.004,127.026,128.826,131.982,139.659,141.495,143.925,147.062,153.398,157.781,162.209,164.00900000000001,167.188,173.245,175.04500000000002,178.186,183.703,188.113,191.225,194.123,198.623,200.765,203.411,205.553,209.963,213.109,217.456,219.598,222.244,226.024,229.153,235.867,239.512,243.157,247.54,251.95,255.604,260.104,263.749,267.619,270.765,274.419,278.919,283.419,286.526,291.314,294.968,297.884" svgx:width="0.48,0.49,0.49,0.2,0.55,0.75,0.2,0.27,0.55,0.7,0.49,0.23,0.5,0.43,0.34,0.2,0.55,0.56,0.2,0.55,0.85,0.2,0.27,0.55,0.7,0.49,0.49,0.2,0.55,0.67,0.2,0.55,0.61,0.49,0.55,0.32,0.5,0.24,0.29,0.24,0.49,0.55,0.48,0.24,0.29,0.42,0.55,0.75,0.41,0.41,0.49,0.49,0.41,0.5,0.41,0.43,0.55,0.41,0.5,0.5,0.55,0.53,0.41,0.32,0.29" style="fill:rgb(0,0,0);font-family:AdvOT2e364b11;font-size:9.0px;stroke:none;">Suo, H.; Goldys, E. M.; Guo, C. Ab Initio Site Occupancy and Far-</text>
   <text y="214.697" x="60.492,66.0,69.78,74.28,79.144,84.166,90.943,93.085,96.19,99.295,101.437,105.865,110.365,115.257,119.685,122.025,126.936,134.613" svgx:width="0.61,0.42,0.5,0.55,0.56,0.75,0.24,0.34,0.34,0.24,0.49,0.5,0.55,0.49,0.26,0.55,0.85,0.5" style="fill:rgb(0,0,0);font-family:AdvOT2e364b11;font-size:9.0px;stroke:none;">Red Emission of Mn</text>
   <text y="211.181" x="139.124,141.995" svgx:width="0.48,0.55" style="fill:rgb(0,0,0);font-family:AdvOT2e364b11;font-size:6.03px;stroke:none;">4+</text>
   <text y="214.696" x="150.18,152.322,156.822,161.688,167.745,172.128,176.529,178.671,182.316,184.89,189.804,194.259,197.913,201.018,204.798,209.706,214.656,218.31,221.955,229.632,233.574,239.343,241.485" svgx:width="0.24,0.5,0.55,0.67,0.49,0.49,0.24,0.41,0.29,0.55,0.5,0.41,0.34,0.42,0.55,0.55,0.41,0.41,0.85,0.44,0.64,0.24,0.41" style="fill:rgb(0,0,0);font-family:AdvOT2e364b11;font-size:9.0px;stroke:none;">in Cubic-Phase La(MgTi)</text>
   <text y="216.51" x="245.14,248.01,250.754" svgx:width="0.48,0.46,0.48" style="fill:rgb(0,0,0);font-family:AdvOT2e364b11;font-size:6.03px;stroke:none;">1/2</text>
   <text y="214.696" x="253.587" svgx:width="0.75" style="fill:rgb(0,0,0);font-family:AdvOT2e364b11;font-size:9.0px;stroke:none;">O</text>
   <text y="216.51" x="260.334" svgx:width="0.48" style="fill:rgb(0,0,0);font-family:AdvOT2e364b11;font-size:6.03px;stroke:none;">3</text>
   <text y="214.696" x="268.101,270.459,274.887,277.767,282.671,287.585,289.664,293.318,297.818" svgx:width="0.26,0.49,0.32,0.55,0.55,0.23,0.41,0.5,0.29" style="fill:rgb(0,0,0);font-family:AdvOT2e364b11;font-size:9.0px;stroke:none;">for Plant</text>
   <text y="224.674" x="60.491,66.548,70.931,73.01,75.656,77.798,81.587,85.241,87.887,90.029,94.457,98.957" svgx:width="0.67,0.49,0.23,0.29,0.24,0.42,0.41,0.29,0.24,0.49,0.5,0.2" style="fill:rgb(0,0,0);font-family:AdvOT2e364b11;font-size:9.0px;stroke:none;">Cultivation.</text>
   <text y="224.674" x="103.748,109.139,114.719,118.949,121.946,127.337,131.468,135.599,137.669,139.37900000000002,142.355,149.672,153.722,156.215,159.329,162.308,164.018,166.96,169.822,173.998,176.491,179.605,182.584,184.789,188.839,191.872,194.986" svgx:width="0.6,0.62,0.47,0.55,0.6,0.46,0.46,0.23,0.19,0.55,0.81,0.45,0.28,0.35,0.33,0.19,0.55,0.32,0.46,0.28,0.35,0.33,0.25,0.45,0.34,0.35,0.3" style="fill:rgb(0,0,0);font-family:AdvOT02ce3bbb.I;font-size:9.0px;stroke:none;">ACS Appl. Mater. Interfaces</text>
   <text y="224.674" x="200.75,205.223,209.696,214.169" svgx:width="0.5,0.5,0.5,0.5" style="fill:rgb(0,0,0);font-family:AdvOT51c1769e;font-size:9.0px;stroke:none;">2017</text>
   <text y="224.674" x="218.609" svgx:width="0.2" style="fill:rgb(0,0,0);font-family:AdvOT2e364b11;font-size:9.0px;stroke:none;">,</text>
   <text y="224.674" x="223.427" svgx:width="0.48" style="fill:rgb(0,0,0);font-family:AdvOT02ce3bbb.I;font-size:9.0px;stroke:none;">9</text>
   <text y="224.674" x="227.736,229.536,232.554,236.838,241.122,245.406" svgx:width="0.2,0.55,0.48,0.48,0.48,0.48" style="fill:rgb(0,0,0);font-family:AdvOT2e364b11;font-size:9.0px;stroke:none;">, 6177</text>
   <text y="224.674" x="249.733" svgx:width="0.69" style="fill:rgb(0,0,0);font-family:AdvOT8608a8d1;font-size:9.0px;stroke:none;">−</text>
   <text y="224.674" x="255.855,260.139,264.423,268.707,272.991" svgx:width="0.48,0.48,0.48,0.48,0.2" style="fill:rgb(0,0,0);font-family:AdvOT2e364b11;font-size:9.0px;stroke:none;">6185.</text>
   <text y="234.709" x="64.46,68.105,72.389,76.673,80.363,83.169,89.901,94.284,101.061,104.715,108.594,113.022,117.405,121.905,123.705,126.651,132.996,134.79600000000002,137.649,142.806,144.642,147.072,149.951,155.72,157.862,160.778,165.161,169.661,173.441,177.896,179.696,182.606,186.953,188.75300000000001,191.621,198.227,200.063,202.493,205.397,210.473,214.901,219.329,223.829,225.62900000000002,228.528,234.909,236.745,239.319,246.051,247.851,250.751,257.465,261.965,264.811,267.457,271.912,275.69199999999995,278.531,282.176,285.092,288.971,292.076,294.722,298.376" svgx:width="0.41,0.48,0.48,0.41,0.55,0.75,0.49,0.75,0.41,0.43,0.49,0.49,0.5,0.2,0.55,0.7,0.2,0.55,0.57,0.2,0.27,0.55,0.64,0.24,0.32,0.49,0.5,0.42,0.5,0.2,0.55,0.48,0.2,0.55,0.73,0.2,0.27,0.55,0.56,0.49,0.49,0.5,0.2,0.55,0.71,0.2,0.29,0.75,0.2,0.55,0.75,0.5,0.55,0.29,0.5,0.42,0.55,0.41,0.32,0.43,0.34,0.29,0.41,0.23" style="fill:rgb(0,0,0);font-family:AdvOT2e364b11;font-size:9.0px;stroke:none;">(64) Humayoun, U. B.; Tiruneh, S. N.; Yoon, D.-H. On the crystal</text>
   <text y="244.688" x="60.492,63.597,66.243,69.159,73.542,77.187,79.833,84.216,87.132,90.912,96.662,100.316,104.816,109.316,115.031,117.11,121.493,128.27,130.412,134.912,138.692,141.797,145.442,149.222,153.722,157.367,161.147,166.904,170.549,175.004,178.658,181.574,185.228,188.873,191.519,195.299,198.215,200.357,203.462,206.108,208.25,211.895,214.955,220.762,225.19,227.53,233.347,237.037,242.759,247.259,251.687,255.476,259.256,261.32599999999996,267.079,271.552,275.332,279.112,283.52200000000005,289.303,292.219,295.999" svgx:width="0.34,0.29,0.32,0.49,0.41,0.29,0.49,0.32,0.42,0.55,0.41,0.5,0.5,0.55,0.23,0.49,0.75,0.24,0.5,0.42,0.34,0.41,0.42,0.5,0.41,0.42,0.55,0.41,0.5,0.41,0.32,0.41,0.41,0.29,0.42,0.32,0.24,0.34,0.29,0.24,0.41,0.34,0.55,0.49,0.26,0.55,0.41,0.55,0.5,0.49,0.42,0.42,0.23,0.55,0.5,0.42,0.42,0.49,0.55,0.32,0.42,0.5" style="fill:rgb(0,0,0);font-family:AdvOT2e364b11;font-size:9.0px;stroke:none;">structure and luminescence characteristics of a novel deep red</text>
   <text y="254.666" x="60.492,64.272,71.049,73.191,75.837,78.483,80.625,85.125,89.085,92.07,96.417,99.333,104.283,107.937,112.284,115.929" svgx:width="0.42,0.75,0.24,0.29,0.29,0.24,0.5,0.44,0.55,0.48,0.32,0.55,0.41,0.48,0.41,0.75" style="fill:rgb(0,0,0);font-family:AdvOT2e364b11;font-size:9.0px;stroke:none;">emitting SrLaScO</text>
   <text y="256.479" x="122.627" svgx:width="0.48" style="fill:rgb(0,0,0);font-family:AdvOT2e364b11;font-size:6.03px;stroke:none;">4</text>
   <text y="254.664" x="125.518,127.939,135.616" svgx:width="0.27,0.85,0.5" style="fill:rgb(0,0,0);font-family:AdvOT2e364b11;font-size:9.0px;stroke:none;">:Mn</text>
   <text y="251.206" x="140.088,142.958" svgx:width="0.48,0.55" style="fill:rgb(0,0,0);font-family:AdvOT2e364b11;font-size:6.03px;stroke:none;">4+</text>
   <text y="254.664" x="146.268" svgx:width="0.2" style="fill:rgb(0,0,0);font-family:AdvOT2e364b11;font-size:9.0px;stroke:none;">.</text>
   <text y="254.664" x="151.086,157.206,160.725,163.839,166.539,169.568,174.329,176.444,179.927,186.245" svgx:width="0.68,0.39,0.35,0.3,0.55,0.53,0.23,0.39,0.7,0.19" style="fill:rgb(0,0,0);font-family:AdvOT02ce3bbb.I;font-size:9.0px;stroke:none;">Dyes Pigm.</text>
   <text y="254.664" x="190.941,195.414,199.887,204.36" svgx:width="0.5,0.5,0.5,0.5" style="fill:rgb(0,0,0);font-family:AdvOT51c1769e;font-size:9.0px;stroke:none;">2018</text>
   <text y="254.664" x="208.8" svgx:width="0.2" style="fill:rgb(0,0,0);font-family:AdvOT2e364b11;font-size:9.0px;stroke:none;">,</text>
   <text y="254.664" x="213.618,217.902,222.186" svgx:width="0.48,0.48,0.48" style="fill:rgb(0,0,0);font-family:AdvOT02ce3bbb.I;font-size:9.0px;stroke:none;">152</text>
   <text y="254.664" x="226.487,228.287,231.306,235.59,239.874" svgx:width="0.2,0.55,0.48,0.48,0.48" style="fill:rgb(0,0,0);font-family:AdvOT2e364b11;font-size:9.0px;stroke:none;">, 127</text>
   <text y="254.664" x="244.176" svgx:width="0.69" style="fill:rgb(0,0,0);font-family:AdvOT8608a8d1;font-size:9.0px;stroke:none;">−</text>
   <text y="254.664" x="250.355,254.639,258.923,263.207" svgx:width="0.48,0.48,0.48,0.2" style="fill:rgb(0,0,0);font-family:AdvOT2e364b11;font-size:9.0px;stroke:none;">130.</text>
   <text y="264.699" x="64.46,68.104,72.388,76.672,80.362,83.054,88.382,92.837,97.265,101.765,105.707,107.50699999999999,110.267,113.147,114.983,117.41300000000001,120.132,125.46,129.915,134.343,138.726,140.526,143.319,147.666,149.502,151.93200000000002,154.657,160.714,165.169,168.949,173.449,175.24900000000002,178.015,184.396,186.232,188.662,191.395,196.345,198.487,200.287,203.073,205.953,207.789,210.219,212.938,218.266,222.721,227.104,228.90400000000002,231.646,236.722,238.558,240.988,243.721,248.671,250.813,252.613,255.4,260.935,262.771,265.201,267.929,273.986,278.441,282.221,286.721,288.521,291.286,296.236,298.072" svgx:width="0.41,0.48,0.48,0.41,0.55,0.59,0.5,0.49,0.5,0.44,0.2,0.55,0.32,0.2,0.27,0.55,0.59,0.5,0.49,0.49,0.2,0.55,0.48,0.2,0.27,0.55,0.67,0.5,0.42,0.5,0.2,0.55,0.71,0.2,0.27,0.55,0.55,0.24,0.2,0.55,0.32,0.2,0.27,0.55,0.59,0.5,0.49,0.2,0.55,0.56,0.2,0.27,0.55,0.55,0.24,0.2,0.55,0.62,0.2,0.27,0.55,0.67,0.5,0.42,0.5,0.2,0.55,0.55,0.2,0.27" style="fill:rgb(0,0,0);font-family:AdvOT2e364b11;font-size:9.0px;stroke:none;">(65) Zhong, J.; Zhou, S.; Chen, D.; Li, J.; Zhu, Y.; Li, X.; Chen, L.;</text>
   <text y="274.678" x="60.491,63.371,65.513,67.313,69.619,74.947,76.747,79.031,84.053,88.553,93.008,96.662,101.162,104.807,108.587,113.087,115.314,117.393,121.776,128.553,130.695,135.195,138.975,142.08,145.725,149.505,154.005,157.65,161.43,163.73,168.158,170.498,172.801,176.49099999999999,178.697,183.854" svgx:width="0.32,0.24,0.2,0.55,0.59,0.2,0.55,0.56,0.5,0.5,0.41,0.5,0.41,0.42,0.5,0.55,0.23,0.49,0.75,0.24,0.5,0.42,0.34,0.41,0.42,0.5,0.41,0.42,0.55,0.49,0.26,0.55,0.41,0.55,0.57,0.41" style="fill:rgb(0,0,0);font-family:AdvOT2e364b11;font-size:9.0px;stroke:none;">Ji, Z. Enhanced luminescence of a Ba</text>
   <text y="276.491" x="187.54" svgx:width="0.48" style="fill:rgb(0,0,0);font-family:AdvOT2e364b11;font-size:6.03px;stroke:none;">2</text>
   <text y="274.677" x="190.375,196.711,201.184,205.531,209.932" svgx:width="0.7,0.5,0.48,0.49,0.75" style="fill:rgb(0,0,0);font-family:AdvOT2e364b11;font-size:9.0px;stroke:none;">GdSbO</text>
   <text y="276.491" x="216.68" svgx:width="0.48" style="fill:rgb(0,0,0);font-family:AdvOT2e364b11;font-size:6.03px;stroke:none;">6</text>
   <text y="274.677" x="219.515,221.936,229.613" svgx:width="0.27,0.85,0.5" style="fill:rgb(0,0,0);font-family:AdvOT2e364b11;font-size:9.0px;stroke:none;">:Mn</text>
   <text y="271.162" x="234.142,237.012" svgx:width="0.48,0.55" style="fill:rgb(0,0,0);font-family:AdvOT2e364b11;font-size:6.03px;stroke:none;">4+</text>
   <text y="274.677" x="242.589,245.505,249.285,253.785,256.025,260.435,264.89,269.318,272.423,276.833,281.288,285.716,288.596,290.891,294.68,296.822" svgx:width="0.32,0.42,0.5,0.55,0.49,0.5,0.49,0.34,0.49,0.5,0.49,0.32,0.55,0.42,0.24,0.41" style="fill:rgb(0,0,0);font-family:AdvOT2e364b11;font-size:9.0px;stroke:none;">red phosphor via</text>
   <text y="284.712" x="60.491,64.136,67.79,70.436,72.578,77.006,81.506,85.605,90.078,94.506,98.916,101.058,105.558,109.518,113.668,116.026,120.454,123.33399999999999,127.501,133.252,136.906,139.822,146.572,150.689,156.44,160.895,163.037,165.683,169.463,173.593,175.672,177.814,181.756,186.211,188.857,191.431,195.211,201.988,204.13,206.776,209.422,211.564,216.064,220.024,224.163,228.636,230.778,235.206,239.679,243.459,246.564" svgx:width="0.41,0.41,0.29,0.24,0.49,0.5,0.55,0.5,0.49,0.49,0.24,0.5,0.44,0.55,0.26,0.49,0.32,0.55,0.64,0.41,0.32,0.75,0.55,0.64,0.5,0.24,0.29,0.42,0.55,0.23,0.24,0.44,0.5,0.29,0.29,0.42,0.75,0.24,0.29,0.29,0.24,0.5,0.44,0.55,0.5,0.24,0.49,0.5,0.42,0.34,0.2" style="fill:rgb(0,0,0);font-family:AdvOT2e364b11;font-size:9.0px;stroke:none;">cation doping for warm white light-emitting diodes.</text>
   <text y="284.712" x="252.51,258.63,262.68,264.75,267.243,271.05,275.19,279.382,284.881,287.86,291.91,296.086,298.804" svgx:width="0.68,0.45,0.23,0.28,0.42,0.46,0.55,0.61,0.33,0.45,0.46,0.3,0.19" style="fill:rgb(0,0,0);font-family:AdvOT02ce3bbb.I;font-size:9.0px;stroke:none;">Dalton Trans.</text>
   <text y="294.69" x="60.491,64.964,69.437,73.91" svgx:width="0.5,0.5,0.5,0.5" style="fill:rgb(0,0,0);font-family:AdvOT51c1769e;font-size:9.0px;stroke:none;">2018</text>
   <text y="294.69" x="78.35" svgx:width="0.2" style="fill:rgb(0,0,0);font-family:AdvOT2e364b11;font-size:9.0px;stroke:none;">,</text>
   <text y="294.69" x="83.225,87.509" svgx:width="0.48,0.48" style="fill:rgb(0,0,0);font-family:AdvOT02ce3bbb.I;font-size:9.0px;stroke:none;">47</text>
   <text y="294.69" x="91.786,93.586,96.604,100.888,105.172,109.456" svgx:width="0.2,0.55,0.48,0.48,0.48,0.48" style="fill:rgb(0,0,0);font-family:AdvOT2e364b11;font-size:9.0px;stroke:none;">, 8248</text>
   <text y="294.69" x="113.726" svgx:width="0.69" style="fill:rgb(0,0,0);font-family:AdvOT8608a8d1;font-size:9.0px;stroke:none;">−</text>
   <text y="294.69" x="119.905,124.189,128.473,132.757,137.041" svgx:width="0.48,0.48,0.48,0.48,0.2" style="fill:rgb(0,0,0);font-family:AdvOT2e364b11;font-size:9.0px;stroke:none;">8256.</text>
   <text y="304.669" x="64.46,68.105,72.389,76.673,80.363,82.431,87.219,91.602,93.402,95.527,101.044,102.88,105.31,107.432,112.346,116.0,120.5,124.442,126.24199999999999,128.352,135.066,136.902,139.332,141.448,146.524,150.178,154.678,158.62,160.42000000000002,162.594,169.326,171.162,173.592,175.69,181.018,185.473,189.901,194.284,196.084,198.197,203.147,204.947,207.098,212.255" svgx:width="0.41,0.48,0.48,0.41,0.55,0.53,0.49,0.2,0.55,0.61,0.2,0.27,0.55,0.55,0.41,0.5,0.44,0.2,0.55,0.75,0.2,0.27,0.55,0.56,0.41,0.5,0.44,0.2,0.55,0.75,0.2,0.27,0.55,0.59,0.5,0.49,0.49,0.2,0.55,0.55,0.2,0.55,0.57,0.41" style="fill:rgb(0,0,0);font-family:AdvOT2e364b11;font-size:9.0px;stroke:none;">(66) Fu, A.; Pang, Q.; Yang, H.; Zhou, L. Ba</text>
   <text y="306.482" x="215.887" svgx:width="0.48" style="fill:rgb(0,0,0);font-family:AdvOT2e364b11;font-size:6.03px;stroke:none;">2</text>
   <text y="304.668" x="218.778,223.854,230.46,234.861" svgx:width="0.56,0.73,0.49,0.75" style="fill:rgb(0,0,0);font-family:AdvOT2e364b11;font-size:9.0px;stroke:none;">YNbO</text>
   <text y="306.482" x="241.568" svgx:width="0.48" style="fill:rgb(0,0,0);font-family:AdvOT2e364b11;font-size:6.03px;stroke:none;">6</text>
   <text y="304.668" x="244.46,246.881,254.558" svgx:width="0.27,0.85,0.5" style="fill:rgb(0,0,0);font-family:AdvOT2e364b11;font-size:9.0px;stroke:none;">:Mn</text>
   <text y="301.153" x="259.03,261.9" svgx:width="0.48,0.55" style="fill:rgb(0,0,0);font-family:AdvOT2e364b11;font-size:6.03px;stroke:none;">4+</text>
   <text y="304.668" x="265.209,267.783,272.184,275.838,278.943,282.723,287.223,289.303,292.219,295.999" svgx:width="0.29,0.49,0.41,0.34,0.42,0.5,0.55,0.32,0.42,0.5" style="fill:rgb(0,0,0);font-family:AdvOT2e364b11;font-size:9.0px;stroke:none;">-based red</text>
   <text y="314.703" x="60.491,64.901,69.356,73.784,76.889,81.299,85.754,90.182,93.062,97.455,99.813,104.241,107.121,111.515,117.266,120.92,123.836,130.586,134.929,140.68,145.135,147.277,149.923,153.703,158.06,160.139,162.281,166.223,170.678,173.324,175.898,179.678,186.455,188.597,191.243,193.889,196.031,200.531,204.491,208.856,213.329,215.471,219.899,224.372,228.152,231.212,235.615,239.26,247.144,252.094,257.116,263.497,266.602,270.247,272.677,277.0,281.914,286.369,290.797,293.443,297.871" svgx:width="0.49,0.5,0.49,0.34,0.49,0.5,0.49,0.32,0.55,0.26,0.49,0.32,0.55,0.64,0.41,0.32,0.75,0.55,0.64,0.5,0.24,0.29,0.42,0.55,0.23,0.24,0.44,0.5,0.29,0.29,0.42,0.75,0.24,0.29,0.29,0.24,0.5,0.44,0.55,0.5,0.24,0.49,0.5,0.42,0.34,0.55,0.41,0.88,0.55,0.56,0.71,0.34,0.41,0.27,0.55,0.55,0.5,0.49,0.29,0.49,0.29" style="fill:rgb(0,0,0);font-family:AdvOT2e364b11;font-size:9.0px;stroke:none;">phosphor for warm white light-emitting diodes (WLEDs): Photo-</text>
   <text y="324.681" x="60.491,62.57,66.953,73.73,75.872,80.372,84.152,87.257,90.902,94.682,99.182,101.792,104.881,108.535,113.035,117.535,120.585,123.231,127.686,131.466,134.382,141.159,144.813,146.88299999999998,149.952,153.597,158.052,161.706,164.622,168.276,171.921,174.567,178.347,181.263,183.405,186.51,189.156,191.298,194.943,198.048" svgx:width="0.23,0.49,0.75,0.24,0.5,0.42,0.34,0.41,0.42,0.5,0.29,0.55,0.41,0.5,0.5,0.55,0.29,0.5,0.42,0.32,0.75,0.41,0.23,0.55,0.41,0.5,0.41,0.32,0.41,0.41,0.29,0.42,0.32,0.24,0.34,0.29,0.24,0.41,0.34,0.2" style="fill:rgb(0,0,0);font-family:AdvOT2e364b11;font-size:9.0px;stroke:none;">luminescent and thermal characteristics.</text>
   <text y="324.681" x="202.903,209.122,213.253,215.746,217.45600000000002,220.478,227.795,231.845,234.338,237.452,240.431" svgx:width="0.69,0.46,0.28,0.19,0.55,0.81,0.45,0.28,0.35,0.33,0.19" style="fill:rgb(0,0,0);font-family:AdvOT02ce3bbb.I;font-size:9.0px;stroke:none;">Opt. Mater.</text>
   <text y="324.681" x="245.196,249.669,254.142,258.615" svgx:width="0.5,0.5,0.5,0.5" style="fill:rgb(0,0,0);font-family:AdvOT51c1769e;font-size:9.0px;stroke:none;">2017</text>
   <text y="324.681" x="263.112" svgx:width="0.2" style="fill:rgb(0,0,0);font-family:AdvOT2e364b11;font-size:9.0px;stroke:none;">,</text>
   <text y="324.681" x="267.987,272.271" svgx:width="0.48,0.48" style="fill:rgb(0,0,0);font-family:AdvOT02ce3bbb.I;font-size:9.0px;stroke:none;">70</text>
   <text y="324.681" x="276.548,278.348,281.48,285.764,290.048" svgx:width="0.2,0.55,0.48,0.48,0.48" style="fill:rgb(0,0,0);font-family:AdvOT2e364b11;font-size:9.0px;stroke:none;">, 144</text>
   <text y="324.681" x="294.293" svgx:width="0.69" style="fill:rgb(0,0,0);font-family:AdvOT8608a8d1;font-size:9.0px;stroke:none;">−</text>
   <text y="334.716" x="60.491,64.775,69.059,73.343" svgx:width="0.48,0.48,0.48,0.2" style="fill:rgb(0,0,0);font-family:AdvOT2e364b11;font-size:9.0px;stroke:none;">152.</text>
  </g>
  <g begin="text">
   <text y="55.672" x="60.491,66.851,72.731,77.931,81.242,88.282,96.762,101.922,107.652" svgx:width="0.64,0.59,0.52,0.55,0.7,0.85,0.52,0.57,0.51" style="fill:rgb(0,102,180);font-family:AdvOTce3d9a73;font-size:10.0px;stroke:none;">ACS Omega</text>
   <text y="55.672" x="535.975,540.871,543.487,546.135,548.006,551.59,553.478" svgx:width="0.61,0.33,0.33,0.23,0.45,0.24,0.5" style="fill:rgb(255,255,255);font-family:AdvOT46dcae81;font-size:8.0px;stroke:none;">Article</text>
   <text y="779.074" x="482.06,486.056,490.19,491.624" svgx:width="0.67,0.69,0.24,0.21" style="fill:rgb(0,0,0);font-family:AdvOT46dcae81;font-size:6.0px;stroke:none;">DOI:</text>
   <text y="779.074" x="494.078,497.157,500.235,501.477,504.555,507.633,510.711,513.789,515.847,518.739,521.427,523.803,527.097,532.101,535.107,538.461,541.353,542.595,545.673,549.087,552.166,555.244,558.322,561.4" svgx:width="0.51,0.51,0.21,0.51,0.51,0.51,0.51,0.34,0.48,0.45,0.4,0.55,0.83,0.5,0.56,0.48,0.21,0.51,0.57,0.51,0.51,0.51,0.51,0.51" style="fill:rgb(33,59,144);font-family:AdvOT46dcae81;font-size:6.0px;stroke:none;">10.1021/acsomega.9b01787</text>
   <text y="785.594" x="476.334,479.742,483.072,485.892,487.843,491.851,496.699,499.417,502.561" svgx:width="0.57,0.56,0.47,0.55,0.67,0.81,0.45,0.52,0.52" style="fill:rgb(0,0,0);font-family:AdvOT65f8a23b.I;font-size:6.0px;stroke:none;">ACS Omega</text>
   <text y="785.594" x="507.685,510.763,513.841,516.919,519.997,521.257,523.276,526.354,527.614,529.569,532.647,535.725,538.803,541.881" svgx:width="0.51,0.51,0.51,0.51,0.21,0.55,0.51,0.21,0.55,0.51,0.51,0.51,0.51,0.51" style="fill:rgb(0,0,0);font-family:AdvOT46dcae81;font-size:6.0px;stroke:none;">2019, 4, 13474</text>
   <text y="785.594" x="544.989" svgx:width="0.69" style="fill:rgb(0,0,0);font-family:AdvOT8608a8d1;font-size:6.0px;stroke:none;">−</text>
   <text y="785.594" x="549.071,552.149,555.227,558.305,561.383" svgx:width="0.51,0.51,0.51,0.51,0.51" style="fill:rgb(0,0,0);font-family:AdvOT46dcae81;font-size:6.0px;stroke:none;">13480</text>
   <text y="779.074" x="302.4,306.42,310.44,314.46,318.48" svgx:width="0.54,0.54,0.54,0.54,0.54" style="fill:rgb(0,0,0);font-family:AdvOTce3d9a73;font-size:7.5px;stroke:none;">13480</text>
  </g>
 </g>
</svg>
