<?xml version="1.0" encoding="UTF-8"?>
<svg height="730.906" width="530.4590000000001" xmlns="http://www.w3.org/2000/svg">
 <g id="page" xmlns:svgx="http://www.xml-cml.org/schema/svgx">
  <g begin="text">
   <text y="62.979" x="76.535,84.059,87.159,89.813,93.352,97.042,100.581,102.796,105.012,107.666,110.767" svgx:width="0.94,0.39,0.33,0.44,0.46,0.44,0.28,0.28,0.33,0.39,0.39" style="fill:rgb(0,0,0);font-family:URWPalladioL-Ital;font-size:7.97px;stroke:none;">Metabolites</text>
   <text y="62.979" x="115.859,119.844,123.829,127.814" svgx:width="0.5,0.5,0.5,0.5" style="fill:rgb(0,0,0);font-family:URWPalladioL-Bold;font-size:7.97px;stroke:none;">2019</text>
   <text y="62.979" x="131.799" svgx:width="0.25" style="fill:rgb(0,0,0);font-family:URWPalladioL-Roma;font-size:7.97px;stroke:none;">,</text>
   <text y="62.979" x="135.784" svgx:width="0.5" style="fill:rgb(0,0,0);font-family:URWPalladioL-Ital;font-size:7.97px;stroke:none;">9</text>
   <text y="62.979" x="139.769,141.7615,143.754,147.739,151.724,155.709,499.779,503.764,505.757,510.108,512.7381,514.755" svgx:width="0.25,0.55,0.5,0.5,0.5,0.55,0.5,0.55,0.55,0.33,0.55,0.5" style="fill:rgb(0,0,0);font-family:URWPalladioL-Roma;font-size:7.97px;stroke:none;">, 110 4 of 8</text>
   <text y="97.848" x="76.535,81.616,85.447,90.2278,93.099,97.611,103.159,109.287,115.394,118.351,123.219,129.2946,132.202,135.514,141.429,145.27,150.818,156.946,162.596,168.3728,171.284,174.668,180.216,186.344,190.328,193.142,198.691,202.675,205.479,214.452,220.0,223.831,228.6118,231.483,237.102,242.651,248.565,254.774,259.083,261.57300000000004,265.972,272.201,278.116,282.8968,285.768,290.279,296.194,301.061,310.034,312.991,317.503,322.584,325.4724,328.315,332.624,338.538,341.495,344.879,348.192,352.3752,355.285,360.833,364.11980000000005,366.991,370.304,376.218,380.9988,383.87,389.977,393.808,399.357,402.669,408.218,414.132,418.3152,421.215,426.296,432.21,438.2856,441.203,445.715,450.796,454.81,460.429,465.978,471.892,476.0752,478.975,482.359,487.673,492.754,498.374,501.331" svgx:width="0.5,0.4,0.48,0.55,0.44,0.55,0.6,0.6,0.29,0.48,0.61,0.55,0.33,0.58,0.4,0.55,0.6,0.56,0.58,0.55,0.33,0.55,0.6,0.4,0.55,0.55,0.4,0.55,0.88,0.55,0.4,0.48,0.55,0.55,0.55,0.58,0.61,0.42,0.25,0.55,0.61,0.58,0.48,0.55,0.44,0.58,0.48,0.88,0.29,0.44,0.5,0.29,0.55,0.42,0.58,0.29,0.33,0.33,0.42,0.55,0.55,0.33,0.55,0.33,0.58,0.48,0.55,0.6,0.4,0.55,0.33,0.55,0.58,0.42,0.55,0.5,0.58,0.61,0.55,0.44,0.5,0.4,0.55,0.55,0.58,0.42,0.55,0.33,0.61,0.5,0.55,0.29,0.48" style="fill:rgb(0,0,0);font-family:URWPalladioL-Roma;font-size:9.96px;stroke:none;">are coupled through four or more bonds. The chemical shifts of the protons and carbons (Table</text>
   <text y="97.848" x="508.983" svgx:width="0.5" style="fill:rgb(8,117,183);font-family:URWPalladioL-Roma;font-size:9.96px;stroke:none;">3</text>
   <text y="97.848" x="514.064,517.448" svgx:width="0.33,0.25" style="fill:rgb(0,0,0);font-family:URWPalladioL-Roma;font-size:9.96px;stroke:none;">),</text>
   <text y="111.358" x="76.535,81.616,85.7992,88.8,97.275,102.143,105.1,107.9884,110.923,116.004,120.1872,123.188,126.501,132.415,137.1958,140.158,147.363,152.444,160.71079999999998,163.775,168.286,173.835,179.962,186.07,189.027,191.984,197.888,203.4656,206.414,210.925,216.474,222.388,226.697,230.009,235.09,241.005,244.317,248.5002,251.502,254.886,260.434,266.054,269.366,274.447,277.404,283.319,288.186,294.2616,297.271,300.655,304.486,310.034,318.79879999999997,321.883,325.196,331.11,335.8908,338.843,347.298,352.632,360.62,367.6916,370.7,375.568,380.811,386.919,391.786,395.8,398.757,407.73,412.598,418.512,421.824,425.208,427.69800000000004,430.716,435.025,441.152,446.802,452.452,457.32,461.628,464.941,469.809,475.88460000000003,478.893,482.206,488.12,493.201,496.48780000000005,499.38,502.693,508.607,513.474" svgx:width="0.5,0.42,0.55,0.83,0.48,0.29,0.29,0.55,0.5,0.42,0.55,0.33,0.58,0.48,0.55,0.71,0.5,0.83,0.55,0.44,0.55,0.6,0.6,0.29,0.29,0.58,0.56,0.55,0.44,0.55,0.58,0.42,0.33,0.5,0.58,0.33,0.42,0.55,0.33,0.55,0.55,0.33,0.5,0.29,0.58,0.48,0.61,0.55,0.33,0.4,0.55,0.88,0.55,0.33,0.58,0.48,0.55,0.83,0.52,0.79,0.71,0.55,0.48,0.52,0.6,0.48,0.4,0.29,0.88,0.48,0.58,0.33,0.33,0.25,0.55,0.42,0.6,0.56,0.56,0.48,0.42,0.33,0.48,0.61,0.55,0.33,0.58,0.5,0.33,0.55,0.33,0.58,0.48,0.56" style="fill:rgb(0,0,0);font-family:URWPalladioL-Roma;font-size:9.96px;stroke:none;">as well as the C–H coupling constants (obtained from the HSQC experiment), suggested that they</text>
   <text y="124.867" x="76.535,82.0,86.734,89.61,95.006,100.758,106.3356,108.743,111.965,117.443,119.852,124.793,130.56980000000001,133.026,138.778,143.511,146.733,151.467,155.193,160.589,165.531,169.256,174.652,183.379,188.32,191.542,194.418,198.8004,201.297,205.487,211.427,214.303,220.0798,222.545,226.735,232.23,236.421,239.642,244.376,253.103,255.59300000000002,259.052,265.111,270.862,275.6428,278.087,283.839,288.573,291.794,296.528,300.254,305.65,310.592,314.318,319.714,328.44,333.382,336.604,339.479,343.8614,346.358,355.085,359.818,363.03,368.782,371.658,377.41,382.144,385.435,390.415,392.867,398.807,402.532,407.266,411.457,416.191,421.942,425.164,429.898,435.97360000000003,438.427,446.65,455.999,462.037,469.10859999999997,471.535,475.923,481.319,485.223,488.939,493.672,496.548,501.49,504.712,507.588,512.984" svgx:width="0.55,0.48,0.29,0.55,0.58,0.56,0.55,0.33,0.55,0.55,0.5,0.58,0.55,0.58,0.48,0.33,0.48,0.4,0.55,0.5,0.4,0.55,0.88,0.5,0.33,0.29,0.44,0.55,0.42,0.6,0.29,0.58,0.55,0.42,0.56,0.42,0.33,0.48,0.88,0.25,0.55,0.61,0.58,0.48,0.55,0.58,0.48,0.33,0.48,0.4,0.55,0.5,0.4,0.55,0.88,0.5,0.33,0.29,0.44,0.55,0.88,0.48,0.33,0.58,0.29,0.58,0.48,0.33,0.5,0.55,0.6,0.4,0.48,0.42,0.48,0.58,0.33,0.48,0.61,0.55,0.83,0.95,0.61,0.71,0.55,0.44,0.55,0.4,0.4,0.48,0.29,0.5,0.33,0.29,0.55,0.58" style="fill:rgb(0,0,0);font-family:URWPalladioL-Roma;font-size:9.96px;stroke:none;">belong to an heteroaromatic spin system. The heteroaromatic methine-2 presented HMBC correlation</text>
   <text y="138.377" x="76.117,84.592,87.549,90.862,96.63879999999999,99.398,102.711,108.625,113.4058,116.124,121.205,125.036,130.585,139.557,144.638,147.951,150.908,155.29039999999998,158.042,167.015,171.882,175.195,181.109,186.759,189.716,193.1,198.181,203.262,205.752,209.695,215.924,221.838,226.6188,229.327,232.284,237.365,240.678,243.991,248.858,252.842,255.504,264.477,269.345,272.657,278.572,284.222,287.11039999999997,289.8,295.908,299.739,304.606,308.915,313.782,319.697,323.009,327.877,333.9526,336.718,341.799,347.57579999999996,350.335,355.415,361.624,367.833,370.79,374.103,377.06,382.609,388.523,393.604,396.4924,399.183,407.637,417.25,423.459,430.5306,433.286,437.798,443.346,447.36,451.201,456.069,459.026,464.107,467.419,470.376,475.925,481.7018,484.461,492.936,495.893,499.206,504.9828,507.742,512.822" svgx:width="0.83,0.29,0.33,0.58,0.55,0.33,0.58,0.48,0.55,0.5,0.4,0.55,0.88,0.5,0.33,0.29,0.44,0.55,0.88,0.48,0.33,0.58,0.56,0.29,0.33,0.5,0.5,0.25,0.55,0.61,0.58,0.48,0.55,0.29,0.5,0.33,0.33,0.48,0.4,0.55,0.88,0.48,0.33,0.58,0.56,0.29,0.55,0.6,0.4,0.48,0.42,0.48,0.58,0.33,0.48,0.61,0.55,0.5,0.58,0.55,0.5,0.61,0.61,0.29,0.33,0.29,0.55,0.58,0.5,0.29,0.55,0.83,0.95,0.61,0.71,0.55,0.44,0.55,0.4,0.4,0.48,0.29,0.5,0.33,0.29,0.55,0.58,0.55,0.83,0.29,0.33,0.58,0.55,0.5,0.58" style="fill:rgb(0,0,0);font-family:URWPalladioL-Roma;font-size:9.96px;stroke:none;">with the aromatic methyl-11. The latter methyl presented an additional HMBC correlation with an</text>
   <text y="151.886" x="76.535,82.287,87.021,90.243,94.976,98.702,104.098,109.04,112.766,118.162,126.888,131.83,135.052,137.928,142.3104,144.816,150.35,156.31,161.251,164.473,169.207,173.111,178.863,183.804,187.708,193.2856,195.713,198.589,207.315,210.191,215.943,220.7238,223.177,227.565,232.507,236.411,241.876,247.272,253.024,256.315,261.256,263.746,266.237,270.428,276.387,281.882,287.377,292.111,296.301,299.523,302.399,308.151,313.72860000000003,316.156,321.136,323.598,329.636,332.512,336.238,340.972,345.36,348.64680000000004,351.092,355.48,360.876,366.628,372.38,377.114,381.502,384.723,387.599,392.995,398.7718,401.248,406.713,411.447,414.669,422.911,427.645,432.379,438.1558,440.641,443.863,449.615,454.348,463.075,465.565,469.074,475.132,480.884,485.6648,488.118,496.341,505.69,511.729" svgx:width="0.58,0.48,0.33,0.48,0.4,0.55,0.5,0.4,0.55,0.88,0.5,0.33,0.29,0.44,0.55,0.56,0.6,0.5,0.33,0.48,0.4,0.58,0.5,0.4,0.56,0.55,0.29,0.88,0.29,0.58,0.48,0.55,0.44,0.5,0.4,0.55,0.55,0.58,0.33,0.5,0.25,0.55,0.42,0.6,0.56,0.56,0.48,0.42,0.33,0.29,0.58,0.56,0.55,0.5,0.55,0.61,0.29,0.4,0.48,0.44,0.33,0.55,0.44,0.55,0.58,0.58,0.48,0.44,0.33,0.29,0.55,0.58,0.55,0.55,0.48,0.33,0.83,0.48,0.48,0.58,0.55,0.33,0.58,0.48,0.88,0.25,0.55,0.61,0.58,0.48,0.55,0.83,0.95,0.61,0.71" style="fill:rgb(0,0,0);font-family:URWPalladioL-Roma;font-size:9.96px;stroke:none;">heteroaromatic quaternary imine carbon-3, suggesting a direct connection between them. The HMBC</text>
   <text y="165.395" x="76.535,80.95,86.378,90.306,94.054,98.817,101.71,106.681,109.923,112.816,118.245,124.031,128.2142,130.733,136.161,139.4478,141.958,150.23,153.541,158.521,160.988,169.28,172.174,175.415,181.1918,183.687,190.737,194.048,199.019,201.50900000000001,203.99,211.04,214.35,219.32999999999998,221.807,226.779,232.565,238.6406,241.126,248.175,251.486,256.458,261.429,263.919,266.4,271.372,277.158,283.2336,285.719,291.148,294.43480000000005,296.944,305.217,308.528,313.50800000000004,315.975,324.267,327.16,330.401,336.1778,338.674,345.723,349.034,354.014,356.491,361.462,367.249,373.32460000000003,375.81,382.859,386.17,391.141,393.63100000000003,396.113,400.875,405.091,408.332,413.303,418.802,421.695,424.588,428.804,434.591,439.353,445.4286,447.914,451.155,456.942,461.7228,464.18,469.151,471.637,476.608,479.919,485.895,491.423,495.35,500.322,505.293,508.186,513.973" svgx:width="0.44,0.55,0.4,0.4,0.48,0.29,0.5,0.33,0.29,0.55,0.58,0.42,0.55,0.55,0.33,0.55,0.83,0.33,0.5,0.55,0.83,0.29,0.33,0.58,0.55,0.71,0.33,0.5,0.25,0.55,0.71,0.33,0.5,0.55,0.5,0.58,0.61,0.55,0.71,0.33,0.5,0.5,0.25,0.55,0.5,0.58,0.61,0.55,0.55,0.33,0.55,0.83,0.33,0.5,0.55,0.83,0.29,0.33,0.58,0.55,0.71,0.33,0.5,0.55,0.5,0.58,0.61,0.55,0.71,0.33,0.5,0.25,0.55,0.48,0.42,0.33,0.5,0.55,0.29,0.29,0.42,0.58,0.48,0.61,0.55,0.33,0.58,0.48,0.55,0.5,0.25,0.5,0.33,0.6,0.56,0.4,0.5,0.5,0.29,0.58,0.48" style="fill:rgb(0,0,0);font-family:URWPalladioL-Roma;font-size:9.96px;stroke:none;">correlations of H-2 with C-3, C-5 and C-11, and of H-5 with C-3 and C-6, established the 1,4-pyrazine</text>
   <text y="178.905" x="76.535,80.549,83.506,89.42,94.9976,97.814,102.123,107.773,112.081,115.394,120.261,129.234,131.72400000000002,136.012,141.662,144.619,150.534,155.615,158.572,161.529,166.071,168.561,171.416,174.729,180.643,185.4238,188.254,196.709,206.322,212.531,219.6026,222.48,226.991,232.54,236.554,240.385,245.252,248.209,253.29,256.603,259.56,265.108,270.8848,273.766,279.315,282.6018,285.442,293.897,297.281,302.261,305.095,310.176,316.091,322.1666,325.043,333.498,336.882,341.963,344.7518,347.531,356.006,358.963,362.276,368.0528,370.934,378.139,381.523,386.50300000000004,389.347,395.455,399.286,404.834,410.575,415.443,421.5186,424.396,427.708,433.623,438.4038,441.234,445.746,451.294,457.208,463.122,467.99,472.502,475.815,478.772,484.32,490.0968,492.968,498.516,501.80280000000005,504.644,507.957,513.871" svgx:width="0.4,0.29,0.58,0.56,0.55,0.42,0.56,0.42,0.33,0.48,0.88,0.25,0.55,0.56,0.29,0.58,0.5,0.29,0.29,0.56,0.25,0.55,0.33,0.58,0.48,0.55,0.83,0.95,0.61,0.71,0.55,0.44,0.55,0.4,0.4,0.48,0.29,0.5,0.33,0.29,0.55,0.58,0.55,0.55,0.33,0.55,0.83,0.33,0.5,0.55,0.5,0.58,0.61,0.55,0.83,0.33,0.5,0.28,0.55,0.83,0.29,0.33,0.58,0.55,0.71,0.33,0.5,0.55,0.6,0.4,0.55,0.56,0.48,0.61,0.55,0.33,0.58,0.48,0.55,0.44,0.55,0.58,0.58,0.48,0.44,0.33,0.29,0.55,0.58,0.55,0.55,0.33,0.55,0.33,0.58,0.48" style="fill:rgb(0,0,0);font-family:URWPalladioL-Roma;font-size:9.96px;stroke:none;">ring system. Finally, the HMBC correlation of H-8 and H-8’ with C-6 proved the connection of the</text>
   <text y="192.414" x="76.236,82.224,88.022,92.794,98.592,104.032,106.9204,109.421,113.357,116.256,122.054,127.6316,130.084,133.332,138.81,141.262,144.51,150.308,155.0888,157.571,163.558,169.097,173.033,178.014,182.995,185.894,191.693,196.4738,198.955,202.89,205.79,211.588,217.16559999999998,219.618,222.865,228.664,232.42,237.859,243.867,249.406,255.18280000000001,257.695,264.758,268.076,273.057,275.547,278.038,282.81,287.035,290.282,295.264,300.773,303.672,306.571,310.795,316.594,319.493,325.291,330.8686,333.321,337.545,340.793,344.648,350.656,355.079,358.327,364.334,368.09,372.8708,375.353,380.793,384.07980000000003,386.601,392.23,397.002,400.758,406.197,411.995,414.895,420.882,426.421,430.357,435.338,440.319,443.218,449.016,453.7968,456.279,459.597,465.036" svgx:width="0.6,0.58,0.48,0.58,0.55,0.29,0.55,0.4,0.29,0.58,0.56,0.55,0.33,0.55,0.55,0.33,0.58,0.48,0.55,0.6,0.56,0.4,0.5,0.5,0.29,0.58,0.48,0.55,0.4,0.29,0.58,0.56,0.55,0.33,0.58,0.4,0.55,0.6,0.56,0.58,0.55,0.71,0.33,0.5,0.25,0.55,0.48,0.42,0.33,0.5,0.55,0.29,0.29,0.42,0.58,0.29,0.58,0.56,0.55,0.42,0.33,0.4,0.6,0.44,0.33,0.6,0.4,0.48,0.55,0.55,0.33,0.55,0.56,0.48,0.4,0.55,0.58,0.29,0.6,0.56,0.4,0.5,0.5,0.29,0.58,0.48,0.55,0.33,0.55,0.4" style="fill:rgb(0,0,0);font-family:URWPalladioL-Roma;font-size:9.96px;stroke:none;">phenol ring to the pyrazine ring through C-6, establishing structure of veronipyrazine for</text>
   <text y="192.414" x="471.459" svgx:width="0.5" style="fill:rgb(0,0,0);font-family:URWPalladioL-Bold;font-size:9.96px;stroke:none;">3</text>
   <text y="192.414" x="476.441" svgx:width="0.25" style="fill:rgb(0,0,0);font-family:URWPalladioL-Roma;font-size:9.96px;stroke:none;">.</text>
   <text y="217.155" x="188.115,193.1,197.584,203.062,206.048,210.53300000000002,212.773,217.256" svgx:width="0.67,0.5,0.61,0.33,0.5,0.55,0.5,0.25" style="fill:rgb(0,0,0);font-family:URWPalladioL-Bold;font-size:8.97px;stroke:none;">Table 3.</text>
   <text y="217.155" x="222.635,230.086,238.568,244.5779,246.799,252.278,256.761,259.684,264.16900000000004,266.409,271.305,274.2651,276.532,281.598,285.893,289.273,294.169,299.387,301.997,307.385,312.371,315.912,320.396,324.879,327.488,332.707,337.0126,339.243" svgx:width="0.83,0.95,0.67,0.55,0.61,0.5,0.33,0.5,0.55,0.55,0.33,0.55,0.56,0.48,0.4,0.55,0.58,0.29,0.6,0.56,0.4,0.5,0.5,0.29,0.58,0.48,0.55,0.33" style="fill:rgb(0,0,0);font-family:URWPalladioL-Roma;font-size:8.97px;stroke:none;">NMR data of veronipyrazine (</text>
   <text y="217.155" x="342.228" svgx:width="0.5" style="fill:rgb(0,0,0);font-family:URWPalladioL-Bold;font-size:8.97px;stroke:none;">3</text>
   <text y="217.155" x="346.711,349.6711,351.938,354.548,359.7506,362.008,368.948,377.43,382.137,389.185" svgx:width="0.33,0.55,0.29,0.58,0.55,0.77,0.95,0.52,0.79,0.33" style="fill:rgb(0,0,0);font-family:URWPalladioL-Roma;font-size:8.97px;stroke:none;">) in DMSO-</text>
   <text y="217.155" x="392.17" svgx:width="0.5" style="fill:rgb(0,0,0);font-family:URWPalladioL-Ital;font-size:8.97px;stroke:none;">d</text>
   <text y="218.947" x="396.653" svgx:width="0.5" style="fill:rgb(0,0,0);font-family:URWPalladioL-Roma;font-size:6.97px;stroke:none;">6</text>
   <text y="213.9" x="400.638" svgx:width="0.5" style="fill:rgb(0,0,0);font-family:URWPalladioL-Roma;font-size:6.97px;stroke:none;">a</text>
   <text y="217.155" x="404.623" svgx:width="0.25" style="fill:rgb(0,0,0);font-family:URWPalladioL-Roma;font-size:8.97px;stroke:none;">.</text>
  </g>
  <path style="fill:none;stroke:rgb(0,0,0);stroke-width:1.0;" d="M112.54 227.38 L482.74 227.38 "/>
  <g begin="text">
   <text y="238.612" x="125.678,131.156,136.142,140.123,143.109,146.094,149.08,154.066" svgx:width="0.61,0.56,0.44,0.33,0.33,0.33,0.56,0.61" style="fill:rgb(0,0,0);font-family:URWPalladioL-Bold;font-size:8.97px;stroke:none;">Position</text>
   <text y="238.85" x="178.93" svgx:width="0.58" style="fill:rgb(0,0,0);font-family:EURB10;font-size:8.97px;stroke:none;">δ</text>
   <text y="240.537" x="184.167" svgx:width="0.72" style="fill:rgb(0,0,0);font-family:URWPalladioL-Bold;font-size:6.97px;stroke:none;">C</text>
   <text y="238.85" x="189.7,191.9425,194.183,203.15,208.628,211.614,214.6" svgx:width="0.25,0.55,1.0,0.61,0.33,0.33,0.25" style="fill:rgb(0,0,0);font-family:URWPalladioL-Bold;font-size:8.97px;stroke:none;">, Mult.</text>
   <text y="235.595" x="216.841" svgx:width="0.61" style="fill:rgb(0,0,0);font-family:URWPalladioL-Bold;font-size:6.97px;stroke:none;">b</text>
   <text y="238.85" x="223.842" svgx:width="0.33" style="fill:rgb(0,0,0);font-family:URWPalladioL-Bold;font-size:8.97px;stroke:none;">(</text>
   <text y="238.85" x="226.828" svgx:width="0.39" style="fill:rgb(0,0,0);font-family:URWPalladioL-BoldItal;font-size:8.97px;stroke:none;">J</text>
   <text y="240.537" x="230.567,235.602" svgx:width="0.72,0.83" style="fill:rgb(0,0,0);font-family:URWPalladioL-Bold;font-size:6.97px;stroke:none;">CH</text>
   <text y="238.85" x="244.151,247.137,252.6087,254.857,262.326,266.809" svgx:width="0.33,0.61,0.55,0.83,0.5,0.33" style="fill:rgb(0,0,0);font-family:URWPalladioL-Bold;font-size:8.97px;stroke:none;">in Hz)</text>
   <text y="238.85" x="284.548" svgx:width="0.58" style="fill:rgb(0,0,0);font-family:EURB10;font-size:8.97px;stroke:none;">δ</text>
   <text y="240.363" x="289.785" svgx:width="0.83" style="fill:rgb(0,0,0);font-family:URWPalladioL-Bold;font-size:6.97px;stroke:none;">H</text>
   <text y="238.85" x="296.092,298.3345,300.575,309.542,315.02,318.006,320.992" svgx:width="0.25,0.55,1.0,0.61,0.33,0.33,0.25" style="fill:rgb(0,0,0);font-family:URWPalladioL-Bold;font-size:8.97px;stroke:none;">, Mult.</text>
   <text y="235.595" x="323.233" svgx:width="0.44" style="fill:rgb(0,0,0);font-family:URWPalladioL-Bold;font-size:6.97px;stroke:none;">c</text>
   <text y="238.85" x="329.069" svgx:width="0.33" style="fill:rgb(0,0,0);font-family:URWPalladioL-Bold;font-size:8.97px;stroke:none;">(</text>
   <text y="238.85" x="332.055" svgx:width="0.39" style="fill:rgb(0,0,0);font-family:URWPalladioL-BoldItal;font-size:8.97px;stroke:none;">J</text>
   <text y="238.85" x="338.035,341.021,346.4927,348.741,356.21,360.693,363.6531,383.002,388.48" svgx:width="0.33,0.61,0.55,0.83,0.5,0.33,0.55,0.61,0.72" style="fill:rgb(0,0,0);font-family:URWPalladioL-Bold;font-size:8.97px;stroke:none;">in Hz) LR</text>
   <text y="235.595" x="394.954" svgx:width="0.61" style="fill:rgb(0,0,0);font-family:URWPalladioL-Bold;font-size:6.97px;stroke:none;">d</text>
   <text y="238.85" x="401.955,408.429,411.415,418.86010000000005,421.125,427.599,432.584,436.072,439.56,444.043,447.029,451.512,454.498,457.484,462.469,467.948" svgx:width="0.72,0.33,0.83,0.55,0.72,0.56,0.39,0.39,0.5,0.33,0.5,0.33,0.33,0.56,0.61,0.44" style="fill:rgb(0,0,0);font-family:URWPalladioL-Bold;font-size:8.97px;stroke:none;">C-H Correlations</text>
  </g>
  <path style="fill:none;stroke:rgb(0,0,0);stroke-width:0.8;" d="M112.54 244.0 L482.74 244.0 "/>
  <g begin="text">
   <text y="254.611" x="140.369,144.854,190.931,195.414,199.897,204.38,206.622,211.105,213.3475,215.588,221.945,229.3901,231.647,234.633,239.116,243.599,248.082,250.324,254.807,257.76709999999997,305.961,310.444,312.685,317.169,321.652,323.8945,326.135,331.093,334.635" svgx:width="0.5,0.55,0.5,0.5,0.5,0.25,0.5,0.25,0.55,0.71,0.83,0.55,0.33,0.5,0.5,0.5,0.25,0.5,0.33,0.55,0.5,0.25,0.5,0.5,0.25,0.55,0.55,0.4,0.42" style="fill:rgb(0,0,0);font-family:URWPalladioL-Roma;font-size:8.97px;stroke:none;">2 143.5, CH (181.4) 8.50, brs</text>
   <text y="251.356" x="338.432" svgx:width="0.48" style="fill:rgb(0,0,0);font-family:URWPalladioL-Roma;font-size:6.97px;stroke:none;">e</text>
   <text y="254.611" x="422.981,427.464" svgx:width="0.5,0.5" style="fill:rgb(0,0,0);font-family:URWPalladioL-Roma;font-size:8.97px;stroke:none;">11</text>
   <text y="265.57" x="140.369,144.854,208.854,213.338,217.821,222.304,224.546,229.029,231.2715,233.512,239.8807,322.62,325.5801,414.015,418.498,420.7405,422.981,427.464,429.7065,431.947,436.431" svgx:width="0.5,0.55,0.5,0.5,0.5,0.25,0.5,0.25,0.55,0.71,0.55,0.33,0.55,0.5,0.25,0.55,0.5,0.25,0.55,0.5,0.5" style="fill:rgb(0,0,0);font-family:URWPalladioL-Roma;font-size:8.97px;stroke:none;">3 150.8, C - 2, 5, 11</text>
   <text y="277.067" x="140.369,144.854,190.931,195.414,199.897,204.38,206.622,211.105,213.3475,215.588,221.945,229.3901,231.647,234.633,239.116,243.599,248.082,250.324,254.807,257.76709999999997,310.713,315.196,317.438,321.921,326.404,328.6465,330.887" svgx:width="0.5,0.55,0.5,0.5,0.5,0.25,0.5,0.25,0.55,0.71,0.83,0.55,0.33,0.5,0.5,0.5,0.25,0.5,0.33,0.55,0.5,0.25,0.5,0.5,0.25,0.55,0.42" style="fill:rgb(0,0,0);font-family:URWPalladioL-Roma;font-size:8.97px;stroke:none;">5 140.0, CH (185.1) 8.97, s</text>
   <text y="273.812" x="334.691" svgx:width="0.33" style="fill:rgb(0,0,0);font-family:URWPalladioL-Roma;font-size:6.97px;stroke:none;">f</text>
   <text y="277.067" x="425.972" svgx:width="0.33" style="fill:rgb(0,0,0);font-family:URWPalladioL-Roma;font-size:8.97px;stroke:none;">-</text>
   <text y="288.026" x="140.369,144.854,208.854,213.338,217.821,222.304,224.546,229.029,231.2715,233.512,239.8807,322.62,325.5801,410.527,415.01,417.2525,419.493,423.976,426.2185,428.46,432.943,435.1855,437.426,441.909" svgx:width="0.5,0.55,0.5,0.5,0.5,0.25,0.5,0.25,0.55,0.71,0.55,0.33,0.55,0.5,0.25,0.55,0.5,0.25,0.55,0.5,0.25,0.55,0.5,0.28" style="fill:rgb(0,0,0);font-family:URWPalladioL-Roma;font-size:8.97px;stroke:none;">6 149.0, C - 2, 5, 8, 8’</text>
   <text y="298.985" x="140.369,144.854,208.854,213.338,217.821,222.304,224.546,229.029,231.2715,233.512,239.8807,322.62,325.5801,419.493,423.976,426.2185,428.46,432.943" svgx:width="0.5,0.55,0.5,0.5,0.5,0.25,0.5,0.25,0.55,0.71,0.55,0.33,0.55,0.5,0.25,0.55,0.5,0.28" style="fill:rgb(0,0,0);font-family:URWPalladioL-Roma;font-size:8.97px;stroke:none;">7 127.0, C - 9, 9’</text>
   <text y="309.944" x="134.64,139.123,141.3655,143.606,148.09,150.6016,197.647,202.13,206.613,211.097,213.338,217.821,220.0635,222.305,228.662" svgx:width="0.5,0.25,0.55,0.5,0.28,0.55,0.5,0.5,0.5,0.25,0.5,0.25,0.55,0.71,0.83" style="fill:rgb(0,0,0);font-family:URWPalladioL-Roma;font-size:8.97px;stroke:none;">8, 8’ 128.0, CH</text>
   <text y="309.944" x="238.359" svgx:width="0.67" style="fill:rgb(0,0,0);font-family:Pxsy;font-size:8.97px;stroke:none;">×</text>
   <text y="309.944" x="246.599,251.084,291.906,296.389,298.631,303.114,307.597,309.8395,312.081" svgx:width="0.5,0.55,0.5,0.25,0.5,0.5,0.25,0.55,0.61" style="fill:rgb(0,0,0);font-family:URWPalladioL-Roma;font-size:8.97px;stroke:none;">2 7.92, d</text>
   <text y="306.689" x="317.559" svgx:width="0.56" style="fill:rgb(0,0,0);font-family:URWPalladioL-Roma;font-size:6.97px;stroke:none;">g</text>
   <text y="309.944" x="324.176" svgx:width="0.67" style="fill:rgb(0,0,0);font-family:Pxsy;font-size:8.97px;stroke:none;">×</text>
   <text y="309.944" x="332.416,336.901,339.141,342.127,346.61,348.851,353.335,356.2951,425.971" svgx:width="0.5,0.55,0.33,0.5,0.25,0.5,0.33,0.55,0.33" style="fill:rgb(0,0,0);font-family:URWPalladioL-Roma;font-size:8.97px;stroke:none;">2 (8.7) -</text>
   <text y="320.903" x="134.64,139.123,141.3655,143.606,148.09,150.6016,197.647,202.13,206.613,211.097,213.338,217.821,220.0635,222.305,228.662" svgx:width="0.5,0.25,0.55,0.5,0.28,0.55,0.5,0.5,0.5,0.25,0.5,0.25,0.55,0.71,0.83" style="fill:rgb(0,0,0);font-family:URWPalladioL-Roma;font-size:8.97px;stroke:none;">9, 9’ 115.9, CH</text>
   <text y="320.903" x="238.359" svgx:width="0.67" style="fill:rgb(0,0,0);font-family:Pxsy;font-size:8.97px;stroke:none;">×</text>
   <text y="320.903" x="246.599,251.084,294.094,298.577,300.819,305.302,309.785,312.02750000000003,314.268" svgx:width="0.5,0.55,0.5,0.25,0.5,0.5,0.25,0.55,0.61" style="fill:rgb(0,0,0);font-family:URWPalladioL-Roma;font-size:8.97px;stroke:none;">2 6.87, d</text>
   <text y="320.903" x="321.988" svgx:width="0.67" style="fill:rgb(0,0,0);font-family:Pxsy;font-size:8.97px;stroke:none;">×</text>
   <text y="320.903" x="330.228,334.713,336.953,339.939,344.422,346.663,351.147,354.1071,419.498,423.981,426.473,428.7155,430.957" svgx:width="0.5,0.55,0.33,0.5,0.25,0.5,0.33,0.55,0.5,0.28,0.25,0.55,0.5" style="fill:rgb(0,0,0);font-family:URWPalladioL-Roma;font-size:8.97px;stroke:none;">2 (8.7) 9’, 9</text>
   <text y="331.862" x="138.128,142.611,147.096,208.855,213.338,217.821,222.305,224.546,229.029,231.2715,233.513,239.8817,322.621,325.5811,393.814,398.297,400.53950000000003,402.78,407.263,409.756,411.9985,414.239,418.723,420.9655,423.206,427.689,430.182,432.4245,434.665,439.148,443.631,446.617,453.665" svgx:width="0.5,0.5,0.55,0.5,0.5,0.5,0.25,0.5,0.25,0.55,0.71,0.55,0.33,0.55,0.5,0.25,0.55,0.5,0.28,0.25,0.55,0.5,0.25,0.55,0.5,0.28,0.25,0.55,0.5,0.5,0.33,0.79,0.83" style="fill:rgb(0,0,0);font-family:URWPalladioL-Roma;font-size:8.97px;stroke:none;">10 159.1, C - 8, 8’, 9, 9’, 10-OH</text>
   <text y="342.82" x="129.381,133.864,138.347,141.333,148.381,155.8261,222.874,225.8341,307.875,312.358,314.6,319.083,323.566,325.8085,328.05,333.008,336.55,340.3174,425.972" svgx:width="0.5,0.5,0.33,0.79,0.83,0.55,0.33,0.55,0.5,0.25,0.5,0.5,0.25,0.55,0.55,0.4,0.42,0.55,0.33" style="fill:rgb(0,0,0);font-family:URWPalladioL-Roma;font-size:8.97px;stroke:none;">10-OH - 9.83, brs -</text>
   <text y="353.779" x="138.128,142.611,147.096,205.376,209.859,214.342,216.584,221.067,223.3095,225.55,231.908" svgx:width="0.5,0.5,0.55,0.5,0.5,0.25,0.5,0.25,0.55,0.71,0.83" style="fill:rgb(0,0,0);font-family:URWPalladioL-Roma;font-size:8.97px;stroke:none;">11 20.9, CH</text>
   <text y="355.571" x="239.365" svgx:width="0.5" style="fill:rgb(0,0,0);font-family:URWPalladioL-Roma;font-size:6.97px;stroke:none;">3</text>
   <text y="353.779" x="312.125,316.608,318.85,323.333,327.816,330.0585,332.299,336.0664,425.227" svgx:width="0.5,0.25,0.5,0.5,0.25,0.55,0.42,0.55,0.5" style="fill:rgb(0,0,0);font-family:URWPalladioL-Roma;font-size:8.97px;stroke:none;">2.48, s 2</text>
  </g>
  <path style="fill:none;stroke:rgb(0,0,0);stroke-width:0.3;" d="M112.54 359.18 L482.74 359.18 "/>
  <g begin="text">
   <text y="365.353" x="97.795" svgx:width="0.5" style="fill:rgb(0,0,0);font-family:URWPalladioL-Roma;font-size:5.98px;stroke:none;">a</text>
   <text y="368.247" x="103.276,107.309,111.342,115.327,117.367,124.997,131.708,135.693,137.741,140.427,144.831" svgx:width="0.5,0.5,0.5,0.55,0.95,0.83,0.5,0.55,0.33,0.55,0.4" style="fill:rgb(0,0,0);font-family:URWPalladioL-Roma;font-size:7.97px;stroke:none;">500 MHz for</text>
   <text y="365.353" x="150.007" svgx:width="0.5" style="fill:rgb(0,0,0);font-family:URWPalladioL-Roma;font-size:5.98px;stroke:none;">1</text>
   <text y="368.247" x="153.494,160.1091,162.197,166.23,170.924,175.78570000000002,177.853,181.885,185.918,189.90300000000002,191.943,199.574,206.284,210.269,212.309,214.995,219.399" svgx:width="0.83,0.55,0.5,0.58,0.61,0.55,0.5,0.5,0.5,0.55,0.95,0.83,0.5,0.55,0.33,0.55,0.4" style="fill:rgb(0,0,0);font-family:URWPalladioL-Roma;font-size:7.97px;stroke:none;">H and 125 MHz for</text>
   <text y="365.353" x="224.58,227.569" svgx:width="0.5,0.5" style="fill:rgb(0,0,0);font-family:URWPalladioL-Roma;font-size:5.98px;stroke:none;">13</text>
   <text y="368.247" x="231.056,236.775" svgx:width="0.71,0.25" style="fill:rgb(0,0,0);font-family:URWPalladioL-Roma;font-size:7.97px;stroke:none;">C.</text>
   <text y="365.353" x="240.785" svgx:width="0.55" style="fill:rgb(0,0,0);font-family:URWPalladioL-Roma;font-size:5.98px;stroke:none;">b</text>
   <text y="368.247" x="246.583,254.213,259.077,261.424,264.053,266.401,271.248,273.595,275.942,279.523,281.871,284.5,288.96320000000003,290.977,295.01,299.704,304.5657,306.624,310.657,314.077,317.497,319.844,324.329,329.023,336.145,340.008,344.703,347.3331,349.332,352.018,355.059,359.463,368.577,375.288,379.523,385.862,391.52070000000003,393.573,397.437,401.599,406.446,410.31,413.495,415.843,422.965,426.828,431.522,434.152" svgx:width="0.95,0.6,0.29,0.33,0.29,0.6,0.29,0.29,0.44,0.29,0.33,0.56,0.55,0.5,0.58,0.61,0.55,0.5,0.42,0.42,0.29,0.56,0.58,0.88,0.48,0.58,0.33,0.55,0.33,0.4,0.55,0.88,0.83,0.52,0.79,0.71,0.55,0.48,0.52,0.6,0.48,0.4,0.29,0.88,0.48,0.58,0.33,0.25" style="fill:rgb(0,0,0);font-family:URWPalladioL-Roma;font-size:7.97px;stroke:none;">Multiplicity and assignment fromHSQC experiment.</text>
   <text y="365.353" x="438.966" svgx:width="0.44" style="fill:rgb(0,0,0);font-family:URWPalladioL-Roma;font-size:5.98px;stroke:none;">c</text>
   <text y="368.247" x="444.112,450.355,454.218,456.848,460.711,463.897,471.019,473.366,478.061,481.924,486.78569999999996,488.845,493.305" svgx:width="0.77,0.48,0.33,0.48,0.4,0.88,0.29,0.58,0.48,0.61,0.55,0.55,0.56" style="fill:rgb(0,0,0);font-family:URWPalladioL-Roma;font-size:7.97px;stroke:none;">Determined by</text>
   <text y="377.711" x="97.795,104.426,111.966,116.836,122.4947,124.479,128.297,132.409,137.199,141.017,144.165,146.484,153.522,157.34,161.978,164.576" svgx:width="0.83,0.95,0.61,0.71,0.55,0.48,0.52,0.6,0.48,0.4,0.29,0.88,0.48,0.58,0.33,0.25" style="fill:rgb(0,0,0);font-family:URWPalladioL-Roma;font-size:7.97px;stroke:none;">HMBC experiment.</text>
   <text y="374.818" x="169.358" svgx:width="0.61" style="fill:rgb(0,0,0);font-family:URWPalladioL-Roma;font-size:5.98px;stroke:none;">d</text>
   <text y="377.711" x="175.501,180.371,184.722,189.361,193.792,196.446,199.595,203.58,208.218,212.65,216.467" svgx:width="0.61,0.55,0.58,0.56,0.33,0.4,0.5,0.58,0.56,0.48,0.25" style="fill:rgb(0,0,0);font-family:URWPalladioL-Roma;font-size:7.97px;stroke:none;">Long-range.</text>
   <text y="374.818" x="221.249" svgx:width="0.48" style="fill:rgb(0,0,0);font-family:URWPalladioL-Roma;font-size:5.98px;stroke:none;">e</text>
   <text y="377.711" x="226.603,231.473,234.477,238.829,242.814,247.6757,249.676,253.056,255.375,260.014,264.445,266.764,270.582,273.18" svgx:width="0.61,0.4,0.55,0.5,0.61,0.55,0.42,0.29,0.58,0.56,0.29,0.48,0.33,0.25" style="fill:rgb(0,0,0);font-family:URWPalladioL-Roma;font-size:7.97px;stroke:none;">Broad singlet.</text>
   <text y="374.818" x="277.962" svgx:width="0.33" style="fill:rgb(0,0,0);font-family:URWPalladioL-Roma;font-size:5.98px;stroke:none;">f</text>
   <text y="377.711" x="282.443,286.627,288.947,293.585,298.017,300.336,304.154,306.752" svgx:width="0.52,0.29,0.58,0.56,0.29,0.48,0.33,0.25" style="fill:rgb(0,0,0);font-family:URWPalladioL-Roma;font-size:7.97px;stroke:none;">Singlet.</text>
   <text y="374.818" x="311.534" svgx:width="0.56" style="fill:rgb(0,0,0);font-family:URWPalladioL-Roma;font-size:5.98px;stroke:none;">g</text>
   <text y="377.711" x="317.348,323.517,327.869,332.674,337.082,339.401,343.219,345.817" svgx:width="0.77,0.55,0.6,0.55,0.29,0.48,0.33,0.25" style="fill:rgb(0,0,0);font-family:URWPalladioL-Roma;font-size:7.97px;stroke:none;">Doublet.</text>
   <text y="404.212" x="76.535,81.516,84.006,87.494,95.793,99.11,103.534,107.957,114.044,118.468,122.891,126.208,131.748" svgx:width="0.5,0.25,0.55,0.83,0.33,0.44,0.44,0.61,0.44,0.44,0.33,0.56,0.61" style="fill:rgb(0,0,0);font-family:URWPalladioL-Bold;font-size:9.96px;stroke:none;">3. Discussion</text>
   <text y="423.699" x="97.795,103.13,106.087,112.001,116.513,121.2938,124.826,128.138,134.052,138.8328,142.365,151.338,156.205,159.518,164.599,170.219,175.767,178.724,184.272,193.245,198.0258,201.548,207.096" svgx:width="0.52,0.29,0.58,0.44,0.48,0.55,0.33,0.58,0.48,0.55,0.88,0.48,0.33,0.5,0.55,0.55,0.29,0.55,0.88,0.48,0.55,0.55,0.33" style="fill:rgb(0,0,0);font-family:URWPalladioL-Roma;font-size:9.96px;stroke:none;">Since the metabolome of</text>
   <text y="423.699" x="213.926,221.263,223.75300000000001,227.248,232.329,236.282,240.052,244.564,250.214,253.039" svgx:width="0.72,0.25,0.55,0.5,0.39,0.39,0.44,0.56,0.28,0.28" style="fill:rgb(0,0,0);font-family:URWPalladioL-Ital;font-size:9.96px;stroke:none;">A. veronii</text>
   <text y="423.699" x="259.308,265.222,270.303,274.4862,278.057,283.971,289.519,292.80580000000003,296.277,301.896,306.764,311.631,317.40779999999995,320.98,327.087,330.929,335.796,341.538,344.495,350.043,356.171,360.479,363.436,369.0136,372.521,376.83,380.143,386.27,392.479,395.436,400.304,406.513,409.003,412.742,421.217,425.9978,429.519,435.728,440.595,445.107,448.064,454.273,459.141,465.2166,468.794,472.107,477.58500000000004,481.1,485.409,490.277,496.384,501.465,505.479,510.56,513.872" svgx:width="0.58,0.5,0.42,0.55,0.58,0.55,0.33,0.55,0.55,0.48,0.48,0.58,0.55,0.6,0.4,0.48,0.56,0.29,0.55,0.6,0.42,0.29,0.56,0.55,0.42,0.33,0.6,0.61,0.29,0.48,0.61,0.25,0.55,0.83,0.48,0.55,0.61,0.48,0.44,0.29,0.61,0.48,0.61,0.55,0.33,0.55,0.55,0.42,0.48,0.6,0.5,0.4,0.5,0.33,0.48" style="fill:rgb(0,0,0);font-family:URWPalladioL-Roma;font-size:9.96px;stroke:none;">has not been previously studied, we decided to separate</text>
   <text y="437.208" x="76.535,81.616,87.53,93.6056,97.336,101.848,107.762,112.843,116.857,121.938,126.45,129.763,134.63,138.644,141.601,146.682,151.4628,155.137,160.756,166.3336,170.004,178.448,188.061,194.73420000000002,198.437,203.518,209.432,215.5076,219.238,228.851,234.0302,237.773,241.086,247.0,252.548,256.857,261.6378,265.312,274.285,279.152,282.465,287.546,293.165,298.714,301.671,304.628,307.941,312.808,316.9912,320.714,324.027,329.941,335.022,338.3088,341.922,350.397,355.264,359.106,363.8868,367.56,373.667,377.509,382.376,386.685,391.552,397.466,400.75280000000004,404.366,407.323,413.09979999999996,416.835,419.792,423.105,427.2882,431.001,435.868,441.112,444.424,448.438,453.519,458.031,461.31780000000003,464.941,467.898,473.6748,477.4,481.708" svgx:width="0.5,0.58,0.61,0.55,0.44,0.58,0.5,0.4,0.5,0.44,0.33,0.48,0.4,0.29,0.5,0.48,0.55,0.55,0.56,0.55,0.83,0.95,0.67,0.55,0.5,0.58,0.61,0.55,0.95,0.52,0.55,0.33,0.58,0.55,0.42,0.48,0.55,0.88,0.48,0.33,0.5,0.55,0.55,0.29,0.29,0.33,0.48,0.42,0.55,0.33,0.58,0.5,0.33,0.55,0.83,0.48,0.4,0.48,0.55,0.6,0.4,0.48,0.42,0.48,0.58,0.33,0.55,0.29,0.58,0.55,0.29,0.33,0.42,0.55,0.48,0.52,0.33,0.4,0.5,0.44,0.33,0.55,0.29,0.58,0.55,0.42,0.6" style="fill:rgb(0,0,0);font-family:URWPalladioL-Roma;font-size:9.96px;stroke:none;">and characterize by NMR and MS those metabolites that were present in its extract in su</text>
   <text y="437.208" x="487.838" svgx:width="0.92" style="fill:rgb(0,0,0);font-family:Rpxr;font-size:9.96px;stroke:none;">ﬃ</text>
   <text y="437.208" x="497.177,501.689,504.646,509.513,515.428" svgx:width="0.44,0.29,0.48,0.58,0.33" style="fill:rgb(0,0,0);font-family:URWPalladioL-Roma;font-size:9.96px;stroke:none;">cient</text>
   <text y="450.718" x="76.256,81.723,87.611,92.492,98.175,101.358,104.199,107.382,110.223,114.899,119.039,121.529,124.907,128.197,133.9738,136.174,139.357,145.039,149.8198,152.02,156.355,162.242,166.098,169.779,174.456,180.138,183.4248,185.625,189.296,193.973,198.112,202.789,207.671,211.351,215.686,221.46280000000002,223.673,231.815,236.5958,238.786,241.628,245.767,251.098,253.939,258.821,262.004,266.68,272.7556,274.95,278.201,281.882,287.213,298.138,301.321,307.003,311.7838,313.974,318.309,324.196,327.037,330.22,336.108,339.788,344.5688,346.769,355.39,360.067,366.032,368.873,374.761,385.686,391.017" svgx:width="0.56,0.6,0.5,0.58,0.33,0.29,0.33,0.29,0.48,0.42,0.25,0.55,0.34,0.58,0.55,0.33,0.58,0.48,0.55,0.44,0.6,0.4,0.4,0.48,0.58,0.33,0.55,0.4,0.48,0.42,0.48,0.5,0.4,0.44,0.58,0.55,0.83,0.48,0.55,0.29,0.42,0.55,0.29,0.5,0.33,0.48,0.61,0.55,0.33,0.4,0.55,0.88,0.33,0.58,0.48,0.55,0.44,0.6,0.29,0.33,0.6,0.4,0.48,0.55,0.88,0.48,0.61,0.29,0.6,0.88,0.55,0.33" style="fill:rgb(0,0,0);font-family:URWPalladioL-Roma;font-size:9.96px;stroke:none;">quantities. In the current research we isolated fromthe culture mediumof</text>
   <text y="450.718" x="396.566,403.615,406.105,408.36,413.242,417.04,420.652,424.987,430.416,433.13" svgx:width="0.72,0.25,0.55,0.5,0.39,0.39,0.44,0.56,0.28,0.28" style="fill:rgb(0,0,0);font-family:URWPalladioL-Ital;font-size:9.96px;stroke:none;">A. veronii</text>
   <text y="450.718" x="438.15,442.29,445.473,449.329,454.211,457.052,462.8288,465.038,472.634,477.516,482.398,487.279,489.769,492.053,500.196,505.878,508.72,513.054" svgx:width="0.42,0.33,0.4,0.5,0.29,0.58,0.55,0.78,0.5,0.5,0.5,0.25,0.55,0.83,0.58,0.29,0.44,0.58" style="fill:rgb(0,0,0);font-family:URWPalladioL-Roma;font-size:9.96px;stroke:none;">strain A134, which</text>
   <text y="464.227" x="76.535,79.492,85.406,91.321,94.278,99.897,102.854,106.167,111.035,117.11059999999999,119.814,123.127,129.041,133.8218,136.49,142.14,145.971,151.519,159.994,163.307,169.0838,171.792,177.341" svgx:width="0.29,0.58,0.58,0.29,0.55,0.29,0.33,0.48,0.61,0.55,0.33,0.58,0.48,0.55,0.56,0.4,0.55,0.83,0.33,0.58,0.55,0.55,0.33" style="fill:rgb(0,0,0);font-family:URWPalladioL-Roma;font-size:9.96px;stroke:none;">inhibited the growth of</text>
   <text y="464.227" x="183.302,192.895,195.38500000000002,198.006,202.518,206.471,212.121,215.901,220.413,225.494,228.319,233.969,238.481,242.434" svgx:width="0.94,0.25,0.55,0.44,0.39,0.56,0.39,0.44,0.5,0.28,0.56,0.44,0.39,0.44" style="fill:rgb(0,0,0);font-family:URWPalladioL-Ital;font-size:9.96px;stroke:none;">M. aeuroginosa</text>
   <text y="464.227" x="249.516,253.825,257.137,261.151,266.232,269.189,274.9658,277.674,287.288,295.041,302.419,304.909,307.54,310.853,316.767,320.598,325.466,330.2468,332.904,338.818,343.686,351.95279999999997,354.742,363.715,368.582,371.895,376.976,382.596,388.144,391.101,394.058,397.371,402.238,406.547,409.03700000000003,411.679,416.76,420.144,424.655,430.57,433.527,439.075,442.906,448.454,451.412,457.539,466.512,469.469,473.981,479.895,483.736,489.285,498.258,503.0388,505.696" svgx:width="0.42,0.33,0.4,0.5,0.29,0.58,0.55,0.95,0.76,0.73,0.25,0.55,0.33,0.58,0.4,0.48,0.48,0.55,0.58,0.48,0.83,0.55,0.88,0.48,0.33,0.5,0.55,0.55,0.29,0.29,0.33,0.48,0.42,0.25,0.55,0.5,0.33,0.44,0.58,0.29,0.55,0.4,0.55,0.29,0.6,0.88,0.29,0.44,0.58,0.4,0.55,0.88,0.48,0.55,0.33" style="fill:rgb(0,0,0);font-family:URWPalladioL-Roma;font-size:9.96px;stroke:none;">strain MGK, three new metabolites, 9-chlorolumichrome (</text>
   <text y="464.227" x="509.08" svgx:width="0.5" style="fill:rgb(0,0,0);font-family:URWPalladioL-Bold;font-size:9.96px;stroke:none;">1</text>
   <text y="464.227" x="514.061,517.445" svgx:width="0.33,0.25" style="fill:rgb(0,0,0);font-family:URWPalladioL-Roma;font-size:9.96px;stroke:none;">),</text>
   <text y="477.736" x="76.256,81.997,86.865,90.696,96.244,102.159,105.116,114.089,117.046,123.255,128.0358,130.805" svgx:width="0.56,0.48,0.4,0.55,0.58,0.29,0.88,0.29,0.61,0.48,0.55,0.33" style="fill:rgb(0,0,0);font-family:URWPalladioL-Roma;font-size:9.96px;stroke:none;">veronimide (</text>
   <text y="477.736" x="134.189" svgx:width="0.5" style="fill:rgb(0,0,0);font-family:URWPalladioL-Bold;font-size:9.96px;stroke:none;">2</text>
   <text y="477.736" x="139.17,142.4568,145.237,150.318,156.232,162.3076,165.113,170.855,175.722,179.563,185.112,191.026,193.983,200.09,205.74,209.754,214.835,219.916,222.873,228.787,233.5678,236.327" svgx:width="0.33,0.55,0.5,0.58,0.61,0.55,0.56,0.48,0.4,0.55,0.58,0.29,0.6,0.56,0.4,0.5,0.5,0.29,0.58,0.48,0.55,0.33" style="fill:rgb(0,0,0);font-family:URWPalladioL-Roma;font-size:9.96px;stroke:none;">) and veronipyrazine (</text>
   <text y="477.736" x="239.715" svgx:width="0.5" style="fill:rgb(0,0,0);font-family:URWPalladioL-Bold;font-size:9.96px;stroke:none;">3</text>
   <text y="477.736" x="244.696,248.08,250.57000000000002,253.344,258.425,261.382,266.93,272.844,278.4216,281.177,289.652,292.609,295.922,301.6988,304.519,307.832,313.746,318.5268,321.286,326.936,332.85,338.398,346.873,352.64979999999997,355.47,358.427,364.555,373.528,376.485,380.997,386.911,390.742,396.29,405.263,410.131,412.621,415.405,418.362,424.276,430.485,436.033,438.991,443.858,447.242,452.323,455.707,461.357,464.314,469.964,475.512,480.756,486.396,489.353,494.434,503.407,506.364,512.573,517.44" svgx:width="0.33,0.25,0.55,0.5,0.29,0.55,0.58,0.56,0.55,0.83,0.29,0.33,0.58,0.55,0.33,0.58,0.48,0.55,0.56,0.58,0.55,0.83,0.58,0.55,0.29,0.6,0.88,0.29,0.44,0.58,0.4,0.55,0.88,0.48,0.25,0.55,0.29,0.58,0.61,0.55,0.29,0.48,0.33,0.5,0.33,0.56,0.29,0.56,0.55,0.52,0.56,0.29,0.5,0.88,0.29,0.61,0.48,0.25" style="fill:rgb(0,0,0);font-family:URWPalladioL-Roma;font-size:9.96px;stroke:none;">), along with the known lumichrome, indole-3-glyoxylamide,</text>
   <text y="491.246" x="76.535,80.87,86.298,90.633,93.474,98.805,102.056,105.239,110.668,114.348,119.679,123.819,129.247,132.088,137.956,141.627,146.958,149.799,155.228,158.1164,160.402" svgx:width="0.44,0.56,0.44,0.29,0.55,0.33,0.33,0.56,0.4,0.55,0.42,0.56,0.29,0.6,0.4,0.55,0.29,0.56,0.29,0.55,0.33" style="fill:rgb(0,0,0);font-family:URWPalladioL-Roma;font-size:9.96px;stroke:none;">cyclo-tyrosylprolyl [</text>
   <text y="491.246" x="163.651,168.632" svgx:width="0.5,0.5" style="fill:rgb(8,117,183);font-family:URWPalladioL-Roma;font-size:9.96px;stroke:none;">11</text>
   <text y="491.246" x="173.614,176.865,179.35500000000002,181.669,186.004,191.432,195.767,198.608,203.939,207.19,212.706,217.588,220.429,225.858,228.699,234.567,238.238,243.568,246.41,251.838,254.72639999999998,257.013" svgx:width="0.33,0.25,0.55,0.44,0.56,0.44,0.29,0.55,0.33,0.56,0.5,0.29,0.56,0.29,0.6,0.4,0.55,0.29,0.56,0.29,0.55,0.33" style="fill:rgb(0,0,0);font-family:URWPalladioL-Roma;font-size:9.96px;stroke:none;">], cyclo-valylprolyl [</text>
   <text y="491.246" x="260.264,265.245" svgx:width="0.5,0.5" style="fill:rgb(8,117,183);font-family:URWPalladioL-Roma;font-size:9.96px;stroke:none;">12</text>
   <text y="491.246" x="270.226,273.477,275.967,278.281,282.616,288.044,292.379,295.22,300.551,303.802,306.643,310.783,316.114,318.955,323.631,329.519,333.854,339.282,342.123,347.991,351.662,356.993,359.834,365.262,368.1504,370.437" svgx:width="0.33,0.25,0.55,0.44,0.56,0.44,0.29,0.55,0.33,0.29,0.42,0.55,0.29,0.48,0.6,0.44,0.56,0.29,0.6,0.4,0.55,0.29,0.56,0.29,0.55,0.33" style="fill:rgb(0,0,0);font-family:URWPalladioL-Roma;font-size:9.96px;stroke:none;">], cyclo-isoleucylprolyl [</text>
   <text y="491.246" x="373.688,378.669" svgx:width="0.5,0.5" style="fill:rgb(8,117,183);font-family:URWPalladioL-Roma;font-size:9.96px;stroke:none;">13</text>
   <text y="491.246" x="383.651,386.902,389.392,391.706,396.041,401.469,405.804,408.645,413.976,417.227,423.095,428.777,433.454,439.136,444.565,447.406,452.287,455.128,460.01,465.692,471.121,473.962,479.83,483.501,488.832,491.673,497.101,499.9894,502.276" svgx:width="0.33,0.25,0.55,0.44,0.56,0.44,0.29,0.55,0.33,0.6,0.58,0.48,0.58,0.56,0.29,0.5,0.29,0.5,0.58,0.56,0.29,0.6,0.4,0.55,0.29,0.56,0.29,0.55,0.33" style="fill:rgb(0,0,0);font-family:URWPalladioL-Roma;font-size:9.96px;stroke:none;">], cyclo-phenylalanylprolyl [</text>
   <text y="491.246" x="505.526,510.507" svgx:width="0.5,0.5" style="fill:rgb(8,117,183);font-family:URWPalladioL-Roma;font-size:9.96px;stroke:none;">12</text>
   <text y="491.246" x="515.489" svgx:width="0.33" style="fill:rgb(0,0,0);font-family:URWPalladioL-Roma;font-size:9.96px;stroke:none;">]</text>
   <text y="504.755" x="76.535,81.616,87.53,93.6056,97.529,102.041,107.691,112.203,115.16,120.709,124.092,127.405,131.419,137.069,143.176,146.489,152.038,158.145,164.059,169.709,172.666,178.773,182.615,188.163,191.12,196.77,199.6584,203.517" svgx:width="0.5,0.58,0.61,0.55,0.44,0.56,0.44,0.29,0.55,0.33,0.33,0.4,0.56,0.6,0.33,0.55,0.6,0.58,0.56,0.29,0.6,0.4,0.55,0.29,0.56,0.29,0.55,0.33" style="fill:rgb(0,0,0);font-family:URWPalladioL-Roma;font-size:9.96px;stroke:none;">and cyclo-tryptophylprolyl [</text>
   <text y="504.755" x="206.901,211.882" svgx:width="0.5,0.5" style="fill:rgb(8,117,183);font-family:URWPalladioL-Roma;font-size:9.96px;stroke:none;">12</text>
   <text y="504.755" x="216.864,220.248,222.738,230.186,238.051,244.179,248.9598,252.837,256.15,261.628,265.499,268.811,274.726,279.5068,283.383,292.356,295.313,301.228,307.355,310.668,315.4488,319.326,325.017,331.144,336.225,342.139,345.452,348.409,351.722,354.679,359.547,363.7302,367.656,373.204" svgx:width="0.33,0.25,0.55,0.77,0.6,0.48,0.55,0.33,0.55,0.55,0.33,0.58,0.48,0.55,0.88,0.29,0.58,0.6,0.33,0.48,0.55,0.56,0.6,0.5,0.58,0.33,0.29,0.33,0.29,0.48,0.42,0.55,0.55,0.33" style="fill:rgb(0,0,0);font-family:URWPalladioL-Roma;font-size:9.96px;stroke:none;">]. Due to the minute quantities of</text>
   <text y="504.755" x="380.377" svgx:width="0.5" style="fill:rgb(0,0,0);font-family:URWPalladioL-Bold;font-size:9.96px;stroke:none;">1</text>
   <text y="504.755" x="385.359" svgx:width="0.5" style="fill:rgb(0,0,0);font-family:URWPalladioL-Roma;font-size:9.96px;stroke:none;">–</text>
   <text y="504.755" x="390.44" svgx:width="0.5" style="fill:rgb(0,0,0);font-family:URWPalladioL-Bold;font-size:9.96px;stroke:none;">3</text>
   <text y="504.755" x="395.421,397.911,402.077,405.39,411.304,416.171,421.7486,425.622,434.097,438.965,442.796,447.5768,451.453,454.766,459.634,463.942,467.255,472.123,478.1986,482.132,487.68,493.595,496.552,502.12960000000004,505.992,509.376,514.924" svgx:width="0.25,0.55,0.33,0.58,0.48,0.56,0.55,0.83,0.48,0.4,0.48,0.55,0.33,0.48,0.42,0.33,0.48,0.61,0.55,0.55,0.58,0.29,0.56,0.55,0.33,0.55,0.4" style="fill:rgb(0,0,0);font-family:URWPalladioL-Roma;font-size:9.96px;stroke:none;">, they were tested only for</text>
   <text y="518.265" x="76.535,79.848,85.762,90.5428,94.278,99.928,103.759,109.307,117.782,121.095,126.8718,130.647,133.604,139.518,145.432,148.389,154.009,156.966,160.279,163.236,168.784,174.5608,178.347,183.895" svgx:width="0.33,0.58,0.48,0.55,0.56,0.4,0.55,0.83,0.33,0.58,0.55,0.29,0.58,0.58,0.29,0.55,0.29,0.33,0.29,0.55,0.58,0.55,0.55,0.33" style="fill:rgb(0,0,0);font-family:URWPalladioL-Roma;font-size:9.96px;stroke:none;">the growth inhibition of</text>
   <text y="518.265" x="190.92,200.513,203.00300000000001,206.701,211.213,215.166,220.816,224.586,229.098,234.179,237.004,242.654,247.166,251.119" svgx:width="0.94,0.25,0.55,0.44,0.39,0.56,0.39,0.44,0.5,0.28,0.56,0.44,0.39,0.44" style="fill:rgb(0,0,0);font-family:URWPalladioL-Ital;font-size:9.96px;stroke:none;">M. aeuroginosa</text>
   <text y="518.265" x="259.272,263.581,266.893,270.907,275.988,278.945,284.7218,288.508,298.121,305.874,313.14480000000003,316.89,322.509,328.08660000000003,331.797,336.309,341.177,344.134,347.0224,350.739,355.251,360.799,366.927,372.841,376.154,379.111,385.025,390.675,393.165,397.148,402.767,408.895,412.1818,415.846,419.159,425.073,429.94,435.5176,439.238,447.713,452.581,456.412,461.1928,464.927,468.311,473.86,479.987,485.902,491.9776,495.748,499.061,504.539,508.258,513.877" svgx:width="0.42,0.33,0.4,0.5,0.29,0.58,0.55,0.95,0.76,0.73,0.55,0.55,0.56,0.55,0.44,0.48,0.29,0.29,0.55,0.44,0.55,0.6,0.58,0.33,0.29,0.58,0.56,0.25,0.55,0.55,0.6,0.33,0.55,0.33,0.58,0.48,0.56,0.55,0.83,0.48,0.4,0.48,0.55,0.33,0.55,0.6,0.58,0.61,0.55,0.33,0.55,0.55,0.55,0.48" style="fill:rgb(0,0,0);font-family:URWPalladioL-Roma;font-size:9.96px;stroke:none;">strain MGK by cell counting, but they were found to be</text>
   <text y="531.774" x="76.535,79.492,85.406,90.487,94.999,98.312,101.269,107.01,111.878,114.368,122.019,128.249,134.163,138.9438,142.892,148.44,154.354,157.312,162.8896,166.823,171.904,176.416,179.729,182.686,188.427,193.2078,197.156,206.129,210.997,214.309,219.39,225.01,230.558,233.515,236.472,239.785,244.5658,248.514,256.989,261.7698,265.718,268.675,272.984,278.532,281.489,286.57,289.883,294.751,300.8266,304.821,308.205,312.036,317.584,326.3488,330.419,333.731,339.646,344.4268,348.375,352.887,359.014,361.971,365.284,371.412,375.243,380.0238,383.972,392.945,397.812,404.021,406.978,413.106,421.8708,425.94,434.415,439.496,443.6792,447.666,450.623,456.751,465.724,468.681,473.193,479.107,482.948,488.496,497.469,502.2498,506.198" svgx:width="0.29,0.58,0.5,0.44,0.33,0.29,0.56,0.48,0.25,0.55,0.61,0.58,0.48,0.55,0.55,0.58,0.29,0.56,0.55,0.5,0.44,0.33,0.29,0.56,0.48,0.55,0.88,0.48,0.33,0.5,0.55,0.55,0.29,0.29,0.33,0.48,0.55,0.83,0.48,0.55,0.29,0.42,0.55,0.29,0.5,0.33,0.48,0.61,0.55,0.33,0.4,0.55,0.88,0.55,0.33,0.58,0.48,0.55,0.44,0.6,0.29,0.33,0.6,0.4,0.48,0.55,0.88,0.48,0.61,0.29,0.6,0.88,0.55,0.83,0.5,0.42,0.55,0.29,0.6,0.88,0.29,0.44,0.58,0.4,0.55,0.88,0.48,0.55,0.33" style="fill:rgb(0,0,0);font-family:URWPalladioL-Roma;font-size:9.96px;stroke:none;">inactive. The only active metabolite we isolated from the culture medium was lumichrome [</text>
   <text y="531.774" x="509.578" svgx:width="0.5" style="fill:rgb(8,117,183);font-family:URWPalladioL-Roma;font-size:9.96px;stroke:none;">5</text>
   <text y="531.774" x="514.559,517.943" svgx:width="0.33,0.25" style="fill:rgb(0,0,0);font-family:URWPalladioL-Roma;font-size:9.96px;stroke:none;">].</text>
   <text y="545.283" x="76.226,82.303,88.072,92.8528,95.328,100.284,105.766,111.178,116.779,121.527,130.28,135.029,140.798,144.029,146.914,152.326,158.096,162.844,168.9196,171.409,180.162,184.91,188.141,193.098,198.58,203.992,206.877,209.761,212.993,217.741,221.944" svgx:width="0.61,0.58,0.48,0.55,0.5,0.55,0.55,0.56,0.48,0.88,0.48,0.58,0.33,0.29,0.55,0.58,0.48,0.61,0.55,0.88,0.48,0.33,0.5,0.55,0.55,0.29,0.29,0.33,0.48,0.42,0.25" style="fill:rgb(0,0,0);font-family:URWPalladioL-Roma;font-size:9.96px;stroke:none;">The abovementioned metabolites,</text>
   <text y="545.283" x="226.932" svgx:width="0.5" style="fill:rgb(0,0,0);font-family:URWPalladioL-Bold;font-size:9.96px;stroke:none;">1</text>
   <text y="545.283" x="231.913" svgx:width="0.5" style="fill:rgb(0,0,0);font-family:URWPalladioL-Roma;font-size:9.96px;stroke:none;">–</text>
   <text y="545.283" x="236.87" svgx:width="0.5" style="fill:rgb(0,0,0);font-family:URWPalladioL-Bold;font-size:9.96px;stroke:none;">3</text>
   <text y="545.283" x="241.851,244.341,246.837,251.794,255.531,260.3118,262.787,271.54,276.952,281.155,284.4418,286.895,292.852,296.589,302.002,307.484,312.44,317.922,320.806,326.3836,328.826,334.883,339.631,343.546,346.431,352.032,356.78,362.8556,365.345,368.645,372.383,377.795,389.056,392.287,398.057,402.8378,405.313,410.061,415.83,420.787,426.298,435.051,440.008,443.239,446.124,450.50640000000004,453.033,456.265,460.18,465.137,470.906,475.109,478.41,483.822,487.738,496.491,501.447,504.679,507.563,512.976" svgx:width="0.25,0.55,0.5,0.4,0.48,0.55,0.88,0.55,0.42,0.33,0.55,0.6,0.4,0.55,0.55,0.5,0.55,0.29,0.56,0.55,0.61,0.48,0.4,0.29,0.56,0.48,0.61,0.55,0.33,0.4,0.55,0.88,0.33,0.58,0.48,0.55,0.48,0.58,0.5,0.56,0.88,0.5,0.33,0.29,0.44,0.55,0.33,0.4,0.5,0.58,0.42,0.33,0.55,0.4,0.88,0.5,0.33,0.29,0.55,0.58" style="fill:rgb(0,0,0);font-family:URWPalladioL-Roma;font-size:9.96px;stroke:none;">, are most probably derived fromthe enzymatic transformation</text>
   <text y="558.793" x="76.535,82.034,85.3208,87.886,93.94,97.918,100.849,109.743,114.779,118.758,124.3356,126.856,135.749,140.574,143.858,148.894,154.464,159.963,162.894,165.825,169.108,173.933,178.1162,180.712,184.69,189.726,193.01,198.872,203.696,207.68,210.173,213.456,219.318,224.354,230.13080000000002,232.714,238.768,242.565,248.064,254.219,260.292,264.764,268.048,272.2312,274.816,280.316,283.6028,286.178,290.448,295.273,299.745,305.244,311.106,317.26,322.296,326.275,331.8526,334.373,343.267,348.091,351.375,356.411,361.981,367.48,370.411,373.342,377.613,389.004,394.574,400.15160000000003,402.672,406.943,412.996,417.821,422.293,425.224,430.26,433.1484,435.699,441.259,444.19,449.689,453.96,459.56,465.422,468.706,474.568,479.392,482.676,485.607,489.98940000000005,492.587,498.187,503.011,508.873,513.698,517.969" svgx:width="0.55,0.33,0.55,0.6,0.4,0.29,0.88,0.5,0.4,0.56,0.55,0.88,0.48,0.33,0.5,0.55,0.55,0.29,0.29,0.33,0.48,0.42,0.55,0.4,0.5,0.33,0.58,0.48,0.4,0.55,0.33,0.58,0.5,0.58,0.55,0.6,0.4,0.55,0.61,0.6,0.44,0.33,0.42,0.55,0.55,0.33,0.55,0.42,0.48,0.44,0.55,0.58,0.61,0.5,0.4,0.56,0.55,0.88,0.48,0.33,0.5,0.55,0.55,0.29,0.29,0.42,0.88,0.55,0.56,0.55,0.42,0.6,0.48,0.44,0.29,0.5,0.29,0.55,0.55,0.29,0.55,0.42,0.56,0.58,0.33,0.58,0.48,0.33,0.29,0.44,0.55,0.56,0.48,0.58,0.48,0.42,0.25" style="fill:rgb(0,0,0);font-family:URWPalladioL-Roma;font-size:9.96px;stroke:none;">of primary metabolites rather than products of secondary metabolismby special biosynthetic genes.</text>
   <text y="572.302" x="76.535,82.677,88.738,97.615,100.54,105.003,110.853,114.643,120.132,129.008,133.7888,136.326,141.352,147.202,153.2776,155.847,160.873,164.221,168.684,174.535,177.46,182.948,186.738,192.227,195.152,201.213,210.089,213.015,217.478,223.328,227.118,232.606,241.483,246.2638,248.801" svgx:width="0.61,0.6,0.88,0.29,0.44,0.58,0.4,0.55,0.88,0.48,0.55,0.5,0.58,0.61,0.55,0.5,0.33,0.44,0.58,0.29,0.55,0.4,0.55,0.29,0.6,0.88,0.29,0.44,0.58,0.4,0.55,0.88,0.48,0.55,0.33" style="fill:rgb(0,0,0);font-family:URWPalladioL-Roma;font-size:9.96px;stroke:none;">Lumichrome and 9-chlorolumichrome (</text>
   <text y="572.302" x="252.148" svgx:width="0.5" style="fill:rgb(0,0,0);font-family:URWPalladioL-Bold;font-size:9.96px;stroke:none;">1</text>
   <text y="572.302" x="257.13,260.4168,262.98,268.007,271.796,276.5768,279.114,285.156,290.644,294.906,299.169,302.094,307.653,310.578,316.1556,318.67,324.812,329.627,333.598,336.523,342.202,347.017,353.0926,355.662,359.01,362.799,368.288,379.667,382.944,388.795,393.5758,396.103,401.953,407.542,413.684,417.484,422.972,425.897,431.486,435.749,438.674,442.8572,445.429,450.917,454.2038,456.768,460.045,465.895,470.6758,473.213,477.475,483.537,489.126,494.152,498.13599999999997,500.626,506.687,512.538,515.463" svgx:width="0.33,0.55,0.5,0.4,0.48,0.55,0.6,0.55,0.42,0.42,0.29,0.55,0.29,0.56,0.55,0.61,0.48,0.4,0.29,0.56,0.48,0.61,0.55,0.33,0.4,0.55,0.88,0.33,0.58,0.48,0.55,0.58,0.56,0.61,0.4,0.55,0.29,0.56,0.42,0.29,0.42,0.55,0.55,0.33,0.55,0.33,0.58,0.48,0.55,0.42,0.6,0.56,0.5,0.4,0.55,0.6,0.58,0.29,0.33" style="fill:rgb(0,0,0);font-family:URWPalladioL-Roma;font-size:9.96px;stroke:none;">) are possibly derived fromthe hydrolysis of the sugar unit</text>
   <text y="585.812" x="76.535,82.083,85.3698,89.339,93.353,96.31,101.929,107.478,113.656,118.737,124.479,127.436,133.35,135.84,140.108,148.583,154.497,157.454,161.966,167.74280000000002,171.752,174.709,178.8922,182.899,186.283,191.831,194.788,197.746,203.294,211.769,216.626,222.7016,226.717,232.336,237.9136,241.858,246.37,252.284,255.241,260.79,264.804,267.761,273.675,278.756,282.069,285.026,290.574,296.488,298.978,303.246,309.353,313.184,318.733,324.352,329.433,335.052,338.01,343.5876,347.531,353.151,358.72860000000003,362.672,367.65200000000004,371.635,377.814,382.895,388.636,391.593,397.507,400.891,407.1,411.968,418.075,422.942,428.857,435.065,439.933,445.847,449.1338,453.032,458.946,464.494,467.451,473.101,477.969,483.883,488.964,493.272,498.0528,502.012" svgx:width="0.55,0.33,0.55,0.4,0.29,0.55,0.55,0.61,0.5,0.56,0.29,0.58,0.25,0.55,0.83,0.58,0.29,0.44,0.58,0.55,0.29,0.42,0.55,0.33,0.55,0.29,0.29,0.55,0.83,0.48,0.61,0.55,0.55,0.56,0.55,0.44,0.58,0.29,0.55,0.4,0.29,0.58,0.5,0.33,0.29,0.55,0.58,0.25,0.55,0.6,0.4,0.55,0.55,0.5,0.55,0.29,0.56,0.55,0.55,0.56,0.55,0.5,0.55,0.61,0.5,0.56,0.29,0.58,0.33,0.61,0.48,0.6,0.48,0.58,0.61,0.48,0.58,0.33,0.55,0.58,0.55,0.29,0.56,0.48,0.58,0.5,0.42,0.48,0.55,0.33" style="fill:rgb(0,0,0);font-family:URWPalladioL-Roma;font-size:9.96px;stroke:none;">of riboﬂavin, which is followed by chlorination, probably by a ﬂavin-dependent holgenase [</text>
   <text y="585.812" x="505.394,510.375" svgx:width="0.5,0.5" style="fill:rgb(8,117,183);font-family:URWPalladioL-Roma;font-size:9.96px;stroke:none;">14</text>
   <text y="585.812" x="515.356" svgx:width="0.33" style="fill:rgb(0,0,0);font-family:URWPalladioL-Roma;font-size:9.96px;stroke:none;">]</text>
   <text y="599.321" x="76.207,79.591,84.926,89.438,95.352,100.219,109.192" svgx:width="0.33,0.52,0.44,0.58,0.48,0.88,0.48" style="fill:rgb(0,0,0);font-family:URWPalladioL-Roma;font-size:9.96px;stroke:none;">(Scheme</text>
   <text y="599.321" x="117.596" svgx:width="0.5" style="fill:rgb(8,117,183);font-family:URWPalladioL-Roma;font-size:9.96px;stroke:none;">1</text>
   <text y="599.321" x="122.677,126.061,128.55100000000002,135.207,141.436,146.303,150.145,155.693,161.607,164.564,173.537,176.494,182.703,187.4838,191.097" svgx:width="0.33,0.25,0.55,0.72,0.48,0.4,0.55,0.58,0.29,0.88,0.29,0.61,0.48,0.55,0.33" style="fill:rgb(0,0,0);font-family:URWPalladioL-Roma;font-size:9.96px;stroke:none;">). Veronimide (</text>
   <text y="599.321" x="194.485" svgx:width="0.5" style="fill:rgb(0,0,0);font-family:URWPalladioL-Bold;font-size:9.96px;stroke:none;">2</text>
   <text y="599.321" x="199.466,202.7528,206.386,210.695,215.562,220.43,229.403,233.5862,237.238,240.55,246.02800000000002,249.635,255.255,260.0358,263.658,268.739,274.51579999999996,278.18,283.728,288.972,291.929,298.138,303.218,306.531,309.488,315.037,320.81379999999996,324.487,330.594,334.425,339.974,346.183,352.31,356.822,360.10880000000003,363.671,369.22,372.50680000000006,376.13,380.642,386.292,390.803,393.761,399.309,402.693,405.65,409.959,415.507,418.464,423.332,427.843,430.801,436.715,442.365,445.322,451.429,455.27,460.819,463.776,469.426,472.383,474.873,478.714,484.821,488.652,494.2,499.82,504.901,510.52,513.477" svgx:width="0.33,0.55,0.42,0.48,0.48,0.88,0.42,0.55,0.33,0.55,0.55,0.55,0.48,0.55,0.5,0.58,0.55,0.55,0.52,0.29,0.61,0.5,0.33,0.29,0.55,0.58,0.55,0.6,0.4,0.55,0.61,0.6,0.44,0.33,0.55,0.55,0.33,0.55,0.44,0.56,0.44,0.29,0.55,0.33,0.29,0.42,0.55,0.29,0.48,0.44,0.29,0.58,0.56,0.29,0.6,0.4,0.55,0.29,0.56,0.29,0.25,0.55,0.6,0.4,0.55,0.55,0.5,0.55,0.29,0.56" style="fill:rgb(0,0,0);font-family:URWPalladioL-Roma;font-size:9.96px;stroke:none;">) seems to be an oxidation product of cyclo-isolecinylprolyl, probably</text>
   <text y="612.83" x="76.535,80.366,85.234,89.542,95.67,98.627,101.94,104.897,110.811,116.38860000000001,119.764,123.147,126.978,132.527,141.2918,144.802,148.115,154.029,158.8098,162.189,167.27,171.782,175.095,178.052,183.6,189.3768,192.817,198.365,201.6518,205.042,209.554,215.204,218.516,224.065,228.577,234.491,238.322,243.87,252.843,257.711,261.095,267.232,272.313,277.394,282.374,285.778,291.326,295.31,298.632,303.612,307.016,311.325,314.282,323.255,326.212,329.169,334.25,338.234,341.556,347.104,352.348,355.305,361.514,364.471,369.552,372.509,378.423,384.0006,387.376,392.243,398.158,403.239,408.889,417.861,422.729,425.219,428.765,437.24,443.154,446.111,450.623,456.39979999999997,459.83,465.937,469.778,475.327,481.536,487.663,492.175,497.043,501.2262,504.644,507.956,513.871" svgx:width="0.4,0.48,0.42,0.6,0.29,0.33,0.29,0.58,0.56,0.55,0.33,0.4,0.55,0.88,0.55,0.33,0.58,0.48,0.55,0.5,0.44,0.33,0.29,0.55,0.58,0.55,0.55,0.33,0.55,0.44,0.56,0.33,0.55,0.44,0.58,0.4,0.55,0.88,0.48,0.33,0.6,0.5,0.5,0.5,0.55,0.55,0.4,0.55,0.5,0.55,0.42,0.29,0.88,0.29,0.29,0.5,0.4,0.55,0.55,0.52,0.29,0.61,0.29,0.5,0.29,0.58,0.56,0.55,0.48,0.58,0.5,0.56,0.88,0.48,0.25,0.55,0.83,0.58,0.29,0.44,0.58,0.55,0.6,0.4,0.55,0.61,0.6,0.44,0.48,0.42,0.55,0.33,0.58,0.48" style="fill:rgb(0,0,0);font-family:URWPalladioL-Roma;font-size:9.96px;stroke:none;">resulting from the action of cytochrome-P450 or a similar oxidizing enzyme, which produces the</text>
   <text y="626.34" x="76.236,82.343,87.211,91.042,96.59,101.834,107.484,110.868,117.076,121.944,125.958,128.915,134.656,139.737,143.05,146.007,151.749" svgx:width="0.6,0.48,0.4,0.55,0.52,0.56,0.33,0.61,0.48,0.4,0.29,0.56,0.5,0.33,0.29,0.56,0.48" style="fill:rgb(0,0,0);font-family:URWPalladioL-Roma;font-size:9.96px;stroke:none;">peroxy-derivative</text>
   <text y="626.34" x="159.32,164.301" svgx:width="0.5,0.5" style="fill:rgb(0,0,0);font-family:URWPalladioL-Bold;font-size:9.96px;stroke:none;">2a</text>
   <text y="626.34" x="169.283,171.773,175.939,179.364,185.278,188.591,193.458,197.472,206.445,211.312,217.521,220.478,225.559,228.872" svgx:width="0.25,0.55,0.34,0.58,0.33,0.48,0.4,0.88,0.48,0.61,0.29,0.5,0.33,0.48" style="fill:rgb(0,0,0);font-family:URWPalladioL-Roma;font-size:9.96px;stroke:none;">. Intermediate</text>
   <text y="626.34" x="236.44,241.421" svgx:width="0.5,0.5" style="fill:rgb(0,0,0);font-family:URWPalladioL-Bold;font-size:9.96px;stroke:none;">2a</text>
   <text y="626.34" x="249.104,252.061,256.24420000000003,259.073,268.046,273.594,277.903,281.18980000000005,283.908,290.016,293.857,299.405,305.025,310.106,315.725,318.682,324.25960000000003,327.035,331.547,337.096,343.01,348.741,353.609,357.622,360.935,365.803,371.8786,374.715,378.028,383.50600000000003,386.279,389.592,395.506,400.28679999999997,403.077,407.588,413.137,417.151,420.982,425.849,430.158,436.265,441.813,447.728,453.937,456.894,462.808,468.3856,471.161,476.242,479.199,483.711,489.259,495.173,500.722" svgx:width="0.29,0.42,0.55,0.88,0.55,0.42,0.33,0.55,0.6,0.4,0.55,0.55,0.5,0.55,0.29,0.56,0.55,0.44,0.55,0.58,0.56,0.48,0.4,0.33,0.48,0.61,0.55,0.33,0.55,0.55,0.33,0.58,0.48,0.55,0.44,0.55,0.4,0.4,0.48,0.42,0.6,0.55,0.58,0.61,0.29,0.58,0.56,0.55,0.5,0.29,0.44,0.55,0.58,0.55,0.29" style="fill:rgb(0,0,0);font-family:URWPalladioL-Roma;font-size:9.96px;stroke:none;">is most probably converted to the corresponding alcohol</text>
   <text y="626.34" x="506.377,511.358" svgx:width="0.5,0.61" style="fill:rgb(0,0,0);font-family:URWPalladioL-Bold;font-size:9.96px;stroke:none;">2b</text>
   <text y="626.34" x="517.445" svgx:width="0.25" style="fill:rgb(0,0,0);font-family:URWPalladioL-Roma;font-size:9.96px;stroke:none;">,</text>
   <text y="639.849" x="76.117,84.276,89.97,92.817,97.161,102.9378,105.34,108.187,113.96379999999999,116.375,119.565,125.464,129.328,135.1048,137.507,140.354,144.5372,146.997,150.685,155.371,160.263,164.127,167.992,172.883,178.577,184.017,188.703,194.7786,197.165,200.355,205.833,208.181,213.709,218.395,222.083,227.425,233.119,235.966,244.605,247.451,253.429,258.20980000000003,260.61" svgx:width="0.83,0.58,0.29,0.44,0.58,0.55,0.29,0.58,0.55,0.33,0.6,0.4,0.58,0.55,0.29,0.42,0.55,0.4,0.48,0.5,0.4,0.4,0.5,0.58,0.56,0.48,0.61,0.55,0.33,0.55,0.55,0.56,0.48,0.4,0.55,0.58,0.29,0.88,0.29,0.61,0.48,0.55,0.33" style="fill:rgb(0,0,0);font-family:URWPalladioL-Roma;font-size:9.96px;stroke:none;">which in turn is rearranged to veronimide (</text>
   <text y="639.849" x="263.864" svgx:width="0.5" style="fill:rgb(0,0,0);font-family:URWPalladioL-Bold;font-size:9.96px;stroke:none;">2</text>
   <text y="639.849" x="268.845,272.13180000000006,274.598,277.846,282.982,287.326,293.02,297.706,306.344" svgx:width="0.33,0.55,0.33,0.52,0.44,0.58,0.48,0.88,0.48" style="fill:rgb(0,0,0);font-family:URWPalladioL-Roma;font-size:9.96px;stroke:none;">) (Scheme</text>
   <text y="639.849" x="313.525" svgx:width="0.5" style="fill:rgb(8,117,183);font-family:URWPalladioL-Roma;font-size:9.96px;stroke:none;">1</text>
   <text y="639.849" x="318.417,321.675,324.165,327.603,333.561,338.248,341.936,347.278,352.971,355.818,361.698,367.138,371.002,375.894,380.785,383.632,389.326,394.1068,396.497" svgx:width="0.33,0.25,0.55,0.72,0.48,0.4,0.55,0.58,0.29,0.6,0.56,0.4,0.5,0.5,0.29,0.58,0.48,0.55,0.33" style="fill:rgb(0,0,0);font-family:URWPalladioL-Roma;font-size:9.96px;stroke:none;">). Veronipyrazine (</text>
   <text y="639.849" x="399.759" svgx:width="0.5" style="fill:rgb(0,0,0);font-family:URWPalladioL-Bold;font-size:9.96px;stroke:none;">3</text>
   <text y="639.849" x="404.74,408.02680000000004,410.493,413.339,417.5222,419.973,428.611,433.953,438.101,441.3878,443.775,449.655,453.343,458.685,464.095,468.987,474.397,477.244,482.82160000000005,485.178,491.156,495.842,499.706,502.553,508.081,512.767" svgx:width="0.33,0.55,0.29,0.42,0.55,0.88,0.55,0.42,0.33,0.55,0.6,0.4,0.55,0.55,0.5,0.55,0.29,0.56,0.55,0.61,0.48,0.4,0.29,0.56,0.48,0.61" style="fill:rgb(0,0,0);font-family:URWPalladioL-Roma;font-size:9.96px;stroke:none;">) is most probably derived</text>
   <text y="653.359" x="76.535,79.919,83.75,89.298,98.06280000000001,101.553,104.866,110.78,115.5608,118.93,122.761,127.629,133.838,139.965,144.477,147.79,150.747,156.295,162.0718,165.492,171.04,174.3268,177.706,183.255,189.169,193.9498,197.309,202.857,206.1438,209.523,212.836,218.75,223.5308,226.9,231.981,240.954,243.911,250.12,254.9008,258.27,262.781,267.862,271.876,277.496,283.044,288.288,293.369,302.341,305.299,311.507,316.375,320.5582,323.956,329.037,334.951,341.02660000000003,344.442,347.755,353.669,358.4498,361.819,366.127,372.255,377.874,382.183,387.051,392.741,398.869,403.736,409.651,412.93780000000004,416.246,422.455,428.003,434.13,439.75,442.707,447.4878,450.847,457.056,461.923,467.837,473.487,479.696,483.71,488.791,492.104,495.061,500.609,506.38579999999996,509.806,515.354" svgx:width="0.33,0.4,0.55,0.88,0.55,0.33,0.58,0.48,0.55,0.4,0.48,0.61,0.6,0.44,0.33,0.29,0.55,0.58,0.55,0.55,0.33,0.55,0.55,0.58,0.48,0.55,0.55,0.33,0.55,0.33,0.58,0.48,0.55,0.5,0.88,0.29,0.61,0.48,0.55,0.44,0.5,0.4,0.55,0.55,0.52,0.5,0.88,0.29,0.61,0.48,0.42,0.55,0.5,0.58,0.61,0.55,0.33,0.58,0.48,0.55,0.42,0.6,0.55,0.42,0.48,0.56,0.6,0.48,0.58,0.33,0.55,0.61,0.55,0.6,0.55,0.29,0.48,0.55,0.61,0.48,0.58,0.56,0.61,0.4,0.5,0.33,0.29,0.55,0.58,0.55,0.55,0.33" style="fill:rgb(0,0,0);font-family:URWPalladioL-Roma;font-size:9.96px;stroke:none;">from the reduction of one of the amide carboxamides and the subsequent double dehydration of</text>
   <text y="666.868" x="76.535,80.958,86.498,90.921,93.82,99.26,102.577,107.559,110.458,115.439,121.237,126.776,129.676,132.993,137.974,141.292,147.09,152.629,158.716,162.472,167.912,173.053,178.592,181.909,187.897,193.695,198.467,204.265,209.805,212.704,218.243,221.142,226.681,231.105,236.644,239.5324,242.014,245.331,250.562,254.985,260.783,265.555,274.352" svgx:width="0.44,0.56,0.44,0.29,0.55,0.33,0.5,0.29,0.5,0.58,0.56,0.29,0.33,0.5,0.33,0.58,0.56,0.61,0.4,0.55,0.52,0.56,0.33,0.6,0.58,0.48,0.58,0.56,0.29,0.56,0.29,0.56,0.44,0.56,0.29,0.55,0.33,0.52,0.44,0.58,0.48,0.88,0.48" style="fill:rgb(0,0,0);font-family:URWPalladioL-Roma;font-size:9.96px;stroke:none;">cyclo-alanyl(4-hydroxy)phenylglycyl (Scheme</text>
   <text y="666.868" x="281.595" svgx:width="0.5" style="fill:rgb(8,117,183);font-family:URWPalladioL-Roma;font-size:9.96px;stroke:none;">1</text>
   <text y="666.868" x="286.576,289.894,292.384,295.862,301.969,307.767,312.539,316.763,321.5438,324.016,330.043,335.842,341.929,344.828,350.626,356.165,360.3482,362.86,366.178,371.617" svgx:width="0.33,0.25,0.55,0.61,0.58,0.48,0.42,0.48,0.55,0.61,0.58,0.61,0.29,0.58,0.56,0.42,0.55,0.33,0.55,0.4" style="fill:rgb(0,0,0);font-family:URWPalladioL-Roma;font-size:9.96px;stroke:none;">). These ﬁndings for</text>
   <text y="666.868" x="378.02,385.213,387.70300000000003,390.174,395.156,399.031,402.727,407.151,412.69,415.459" svgx:width="0.72,0.25,0.55,0.5,0.39,0.39,0.44,0.56,0.28,0.28" style="fill:rgb(0,0,0);font-family:URWPalladioL-Ital;font-size:9.96px;stroke:none;">A. veronii</text>
   <text y="666.868" x="420.702,424.926,428.174,432.109,437.09,439.99,445.7668,448.259,456.009,460.991,465.972,470.953,473.443,475.925,480.906,486.704,492.7796,495.262,498.51,504.308,509.748,513.972" svgx:width="0.42,0.33,0.4,0.5,0.29,0.58,0.55,0.78,0.5,0.5,0.5,0.25,0.55,0.5,0.58,0.61,0.55,0.33,0.58,0.55,0.42,0.48" style="fill:rgb(0,0,0);font-family:URWPalladioL-Roma;font-size:9.96px;stroke:none;">strain A134, and those</text>
   <text y="680.377" x="76.236,82.104,87.991,93.39,96.231,99.072,103.212,108.894,113.571,119.64659999999999,121.577,124.828,130.159" svgx:width="0.6,0.6,0.55,0.29,0.29,0.42,0.58,0.48,0.61,0.55,0.33,0.55,0.4" style="fill:rgb(0,0,0);font-family:URWPalladioL-Roma;font-size:9.96px;stroke:none;">published for</text>
   <text y="680.377" x="136.055,143.104,145.59400000000002,147.586,151.383,155.718,158.433,166.028,170.363,175.792,178.506,182.48,185.194,190.076" svgx:width="0.72,0.25,0.55,0.39,0.44,0.28,0.78,0.44,0.56,0.28,0.41,0.28,0.5,0.44" style="fill:rgb(0,0,0);font-family:URWPalladioL-Ital;font-size:9.96px;stroke:none;">A. salmonicida</text>
   <text y="680.377" x="196.45,200.59,206.477,211.876,216.016,221.884" svgx:width="0.42,0.6,0.55,0.42,0.6,0.25" style="fill:rgb(0,0,0);font-family:URWPalladioL-Roma;font-size:9.96px;stroke:none;">subsp.</text>
   <text y="680.377" x="227.661,231.996,235.97,240.851,244.473,248.808,256.404,260.739,265.621,269.419,274.847,278.645" svgx:width="0.44,0.41,0.5,0.39,0.44,0.78,0.44,0.5,0.39,0.56,0.39,0.39" style="fill:rgb(0,0,0);font-family:URWPalladioL-Ital;font-size:9.96px;stroke:none;">achromogenes</text>
   <text y="680.377" x="284.479,288.619,291.802,295.658,300.54,303.381,309.15779999999995,311.104,319.217,325.729,330.709,332.651" svgx:width="0.42,0.33,0.4,0.5,0.29,0.58,0.55,0.83,0.67,0.5,0.55,0.33" style="fill:rgb(0,0,0);font-family:URWPalladioL-Roma;font-size:9.96px;stroke:none;">strain NY4 [</text>
   <text y="680.377" x="335.901" svgx:width="0.5" style="fill:rgb(8,117,183);font-family:URWPalladioL-Roma;font-size:9.96px;stroke:none;">4</text>
   <text y="680.377" x="340.882,344.133,346.623,348.702,352.842,358.729,364.158,369.586,374.263,378.403,381.68980000000005,383.626,386.809,392.491,397.373" svgx:width="0.33,0.25,0.55,0.42,0.6,0.56,0.56,0.48,0.42,0.33,0.55,0.33,0.58,0.5,0.33" style="fill:rgb(0,0,0);font-family:URWPalladioL-Roma;font-size:9.96px;stroke:none;">], suggest that</text>
   <text y="680.377" x="402.597,409.646,413.444,417.066,421.401,428.997,433.332,438.76,443.095" svgx:width="0.72,0.39,0.39,0.44,0.78,0.44,0.56,0.44,0.39" style="fill:rgb(0,0,0);font-family:URWPalladioL-Ital;font-size:9.96px;stroke:none;">Aeromonas</text>
   <text y="680.377" x="448.929,453.069,458.936,464.804,467.294,470.584,475.466,479.137,483.9178,485.854,490.189,495.071,500.938,505.82,511.219,514.06" svgx:width="0.42,0.6,0.6,0.25,0.55,0.5,0.4,0.48,0.55,0.44,0.5,0.6,0.5,0.55,0.29,0.48" style="fill:rgb(0,0,0);font-family:URWPalladioL-Roma;font-size:9.96px;stroke:none;">spp. are capable</text>
   <text y="693.887" x="76.535,82.083,85.3698,88.719,92.032,96.046,101.127,107.041,111.35,114.733,120.282,124.296,133.269,136.226,142.14,147.71759999999998,151.042,157.149,161.163,164.12,173.093,178.174,182.188,187.76559999999998,191.09,200.062,204.93,208.243,213.324,218.943,224.492,227.449,230.406,233.718,238.586,242.7692,246.146,249.459,254.937,258.259,262.568,267.435,271.947,277.496,283.41,289.619,294.7,298.714,304.364,307.748,310.705,313.662,319.312,324.0928,327.431,336.404,341.272,344.584,349.665,355.285,360.833,363.79,366.747,370.06,374.928,379.1112,382.488,388.108,394.235,397.52180000000004,400.8,406.714,411.795,417.536,422.3168,425.656,431.397,436.265,440.279,445.8566,449.18,452.137,457.686,465.95279999999997,469.413,473.924,479.005,485.113,490.194,494.705,497.663,500.975,506.55260000000004,509.877,513.19" svgx:width="0.55,0.33,0.55,0.33,0.4,0.5,0.58,0.42,0.33,0.55,0.4,0.88,0.29,0.58,0.56,0.55,0.6,0.4,0.29,0.88,0.5,0.4,0.56,0.55,0.88,0.48,0.33,0.5,0.55,0.55,0.29,0.29,0.33,0.48,0.42,0.55,0.33,0.55,0.55,0.42,0.48,0.44,0.55,0.58,0.61,0.5,0.4,0.56,0.33,0.29,0.29,0.56,0.48,0.55,0.88,0.48,0.33,0.5,0.55,0.55,0.29,0.29,0.33,0.48,0.42,0.55,0.55,0.6,0.33,0.55,0.58,0.5,0.56,0.48,0.55,0.56,0.48,0.4,0.56,0.55,0.29,0.55,0.83,0.55,0.44,0.5,0.6,0.5,0.44,0.29,0.33,0.56,0.55,0.33,0.55" style="fill:rgb(0,0,0);font-family:URWPalladioL-Roma;font-size:9.96px;stroke:none;">of transforming primary metabolites to secondary-like metabolites but have very low capacity to</text>
   <text y="707.396" x="76.236,82.104,85.785,91.115,97.081,102.968,107.303,112.0838,114.04,118.179,122.856,127.191,132.522,138.204,144.169,149.051,152.908,158.48559999999998,160.396,169.017,173.694,176.877,181.758,187.157,192.488,195.329,198.17,201.344,206.02,210.16,212.65,215.95,224.073,229.403,239.606,244.488,250.17,256.24559999999997,258.196,266.338,272.02,276.697,279.88,285.562,290.239,294.22299999999996,296.155,299.338,305.021,309.697,313.837,318.6178,320.574,325.455,330.854,333.696,336.537,339.378,342.561,345.402,350.078,354.2612,356.278,361.16,364.831,369.6118,371.568,376.449,380.589,384.729,390.059,394.394,397.235,402.117,405.3,409.977,416.0526,418.002,426.145,428.986,432.169,437.94579999999996,439.911,443.094,448.776,453.453,456.294,460.27799999999996,462.21,468.078,472.96,476.143,481.825,487.156,492.584,497.261,502.943,507.62,511.759,514.601" svgx:width="0.6,0.4,0.55,0.61,0.6,0.44,0.48,0.55,0.42,0.48,0.44,0.55,0.58,0.61,0.5,0.4,0.56,0.55,0.88,0.48,0.33,0.5,0.55,0.55,0.29,0.29,0.33,0.48,0.42,0.25,0.55,0.83,0.55,0.83,0.5,0.58,0.61,0.55,0.83,0.58,0.48,0.33,0.58,0.48,0.4,0.55,0.33,0.58,0.48,0.42,0.48,0.55,0.5,0.55,0.29,0.29,0.29,0.33,0.29,0.48,0.42,0.55,0.5,0.4,0.48,0.55,0.5,0.42,0.42,0.55,0.44,0.29,0.5,0.33,0.48,0.61,0.55,0.83,0.29,0.33,0.58,0.55,0.33,0.58,0.48,0.29,0.4,0.55,0.6,0.5,0.33,0.58,0.55,0.56,0.48,0.58,0.48,0.42,0.29,0.42" style="fill:rgb(0,0,0);font-family:URWPalladioL-Roma;font-size:9.96px;stroke:none;">produce secondary metabolites. Howand whether these abilities are associated with their pathogenesis</text>
   <text y="720.906" x="76.535,82.622,87.394,91.618,96.39,100.326,105.955,110.727,114.9102,117.441,120.759,126.766,130.702,133.949,139.748,144.52,148.50400000000002,150.946,153.845,159.643,165.272,170.044,174.268,177.516,180.415,185.954,190.936,194.183,197.082,202.522,208.32" svgx:width="0.61,0.48,0.42,0.48,0.4,0.56,0.48,0.42,0.55,0.33,0.6,0.4,0.33,0.58,0.48,0.4,0.55,0.29,0.58,0.56,0.48,0.42,0.33,0.29,0.56,0.5,0.33,0.29,0.55,0.58,0.25" style="fill:rgb(0,0,0);font-family:URWPalladioL-Roma;font-size:9.96px;stroke:none;">deserves further investigation.</text>
  </g>
 </g>
</svg>
