<?xml version="1.0" encoding="UTF-8"?>
<svg height="774.244" width="4165.638" xmlns="http://www.w3.org/2000/svg">
 <g id="page" xmlns:svgx="http://www.xml-cml.org/schema/svgx">
  <path style="fill:rgb(206,221,228);stroke:none;stroke-width:1.0;" d="M382.56 8.59 L382.56 26.39 L548.65 26.39 C548.65 26.39 554.31 26.39 554.31 20.72 L554.31 8.59 Z"/>
  <g begin="text">
   <text y="764.23" x="550.106" svgx:width="0.45" style="fill:rgb(206,221,228);font-family:Corbel2;font-size:10.0px;stroke:none;">3</text>
   <text y="764.244" x="40.794,45.842,50.946,53.586,58.562,64.818,69.81,72.45,77.05,79.69" svgx:width="0.58,0.58,0.28,0.57,0.73,0.57,0.28,0.52,0.28,0.58" style="fill:rgb(0,0,0);font-family:Corbel-Bold2;font-size:8.0px;stroke:none;">Scientific</text>
   <text y="764.244" x="84.65" svgx:width="0.2" style="fill:rgb(0,0,0);font-family:Corbel2;font-size:8.0px;stroke:none;"> </text>
   <text y="764.244" x="86.25,91.706,96.682,101.922,108.226,113.682,118.674" svgx:width="0.63,0.57,0.6,0.73,0.63,0.57,0.58" style="fill:rgb(0,0,0);font-family:Corbel-Bold2;font-size:8.0px;stroke:none;">RepoRtS</text>
   <text y="764.244" x="123.57,125.01,126.826" svgx:width="0.2,0.23,0.2" style="fill:rgb(0,0,0);font-family:Corbel2;font-size:8.0px;stroke:none;"> | </text>
   <text y="764.244" x="128.266,129.722,131.178,132.634,134.09,135.546,137.002,138.458,139.914,142.186,146.122,150.058,153.994,157.93,160.202,161.658,165.594,167.282,171.218,175.154,179.09,183.026,186.962" svgx:width="0.18,0.18,0.18,0.18,0.18,0.18,0.18,0.18,0.28,0.49,0.49,0.49,0.49,0.28,0.18,0.49,0.21,0.49,0.49,0.49,0.49,0.49,0.18" style="fill:rgb(0,0,0);font-family:MyriadPro-It;font-size:8.0px;stroke:none;"> (2019) 9:16848 </text>
   <text y="764.244" x="188.418,189.858,191.674" svgx:width="0.2,0.23,0.2" style="fill:rgb(0,0,0);font-family:Corbel2;font-size:8.0px;stroke:none;"> | </text>
   <text y="764.244" x="193.114,197.37,200.146,202.922,207.17,210.402,212.514,214.714,216.914,221.202,225.466,227.322,229.434,233.698,236.378,240.626,242.826,246.93,251.034,253.146,257.25,261.354,265.458,269.562,271.762,274.994,279.098,283.202,287.306,291.41,295.514,298.178,302.282,306.386,310.49,313.154,317.258,321.362,325.466,329.57,333.674,336.338" svgx:width="0.53,0.35,0.35,0.53,0.4,0.26,0.28,0.28,0.54,0.53,0.23,0.26,0.53,0.34,0.53,0.28,0.51,0.51,0.26,0.51,0.51,0.51,0.51,0.28,0.4,0.51,0.51,0.51,0.51,0.51,0.33,0.51,0.51,0.51,0.33,0.51,0.51,0.51,0.51,0.51,0.33,0.51" style="fill:rgb(0,0,0);font-family:Corbel;font-size:8.0px;stroke:none;">https://doi.org/10.1038/s41598-019-53269-0</text>
  </g>
  <g begin="text">
   <text y="22.277" x="389.724,397.484,405.243,412.702,415.869,421.732,427.216,431.234,437.005,440.9,446.465,449.633,454.583,460.508,469.466,472.746,477.349,482.299,485.139,490.699,496.562,500.58,503.419,507.14,509.979,514.93,518.825,524.391,530.295,536.219,540.115,544.133" svgx:width="0.71,0.71,0.71,0.26,0.53,0.49,0.35,0.52,0.34,0.5,0.26,0.44,0.53,0.83,0.28,0.4,0.44,0.23,0.5,0.53,0.35,0.23,0.32,0.23,0.44,0.34,0.5,0.53,0.53,0.34,0.35,0.4" style="fill:rgb(0,0,0);font-family:Corbel2;font-size:10.25px;stroke:none;">www.nature.com/scientificreports</text>
  </g>
  <path style="fill:none;stroke:rgb(0,0,0);stroke-width:1.0;" d="M40.64 752.55 L554.64 752.55 "/>
  <g begin="text">
   <text y="22.46" x="40.638,48.208,55.778,63.055,66.145,71.865,77.215,81.135,86.765,90.565,95.995,99.085,103.915,109.695,118.435,121.635,126.125,130.955,133.725,139.15,144.87,148.79,151.56,155.19,157.96,162.79,166.59,172.02,177.78,183.56,187.36,191.28,195.77" svgx:width="0.71,0.71,0.71,0.26,0.53,0.49,0.35,0.52,0.34,0.5,0.26,0.44,0.53,0.83,0.28,0.4,0.44,0.23,0.5,0.53,0.35,0.23,0.32,0.23,0.44,0.34,0.5,0.53,0.53,0.34,0.35,0.4,0.28" style="fill:rgb(0,0,0);font-family:Corbel2;font-size:10.0px;stroke:none;">www.nature.com/scientificreports/</text>
  </g>
  <g begin="text">
   <text y="476.5" x="155.638,159.994,165.322,168.562,174.304,176.284,181.342,187.103,193.574,195.662,197.642,204.347,208.83,214.96,218.893,223.025,226.886,229.694,231.782,233.762,239.891,243.752,245.732,249.719,253.509,258.351,260.799,264.733,268.865,272.771,277.559,279.539,282.375,287.181,291.042,293.022,297.864,300.312,304.624,309.431,313.292,316.587,319.368,321.348,323.553,328.368,335.775,338.223,343.147,347.675,352.463,355.802,357.782,361.643,368.861,372.731,376.718,380.705,384.872,386.852,391.371,394.071,396.051,400.407,404.763,409.119,410.275,412.588,419.995,423.01,431.785,433.765,436.213,441.172,443.152,445.988,450.83,453.252,456.591,458.571,462.927,468.255,471.495,477.237,479.217,484.095,489.243,495.894,497.874,502.932,508.693,515.164,517.144,521.833,525.74,529.61,533.427,538.215,541.626,545.487,547.467,551.986,554.65" svgx:width="0.48,0.59,0.36,0.63,0.23,0.56,0.67,0.71,0.23,0.23,0.77,0.51,0.69,0.43,0.46,0.43,0.37,0.23,0.23,0.69,0.43,0.23,0.44,0.42,0.53,0.27,0.43,0.46,0.43,0.53,0.23,0.31,0.53,0.43,0.23,0.53,0.27,0.47,0.53,0.43,0.37,0.31,0.23,0.25,0.53,0.82,0.27,0.55,0.51,0.53,0.37,0.23,0.43,0.8,0.42,0.44,0.42,0.46,0.23,0.51,0.3,0.23,0.48,0.48,0.48,0.23,0.25,0.82,0.33,0.97,0.23,0.27,0.55,0.23,0.31,0.53,0.27,0.37,0.23,0.48,0.59,0.36,0.63,0.23,0.54,0.57,0.74,0.23,0.56,0.67,0.71,0.23,0.51,0.43,0.42,0.44,0.53,0.37,0.43,0.23,0.51,0.3,0.23" style="fill:rgb(0,0,0);font-family:MinionPro-Regular;font-size:9.0px;stroke:none;">1B-Y PKG. However, we achieved the highest luminous efficacy of 133 lm/W in this 1B-Y LED PKG because of </text>
   <text y="486.499" x="155.638,158.437,163.207,167.032,168.868,171.657,174.996,178.947,183.699,187.524,190.728,195.21,200.259,202.095,206.748,210.573,213.344,219.437,223.307,227.132,232.055,233.891,236.06,240.839,248.21,250.622,255.508,259.999,264.751,268.054,269.89,273.715,280.897,284.731,288.682,292.633,296.764,298.6,302.47,307.357,312.109,313.945,319.93,325.519,328.588" svgx:width="0.31,0.53,0.43,0.23,0.31,0.37,0.44,0.53,0.43,0.36,0.51,0.56,0.23,0.51,0.43,0.31,0.69,0.43,0.43,0.55,0.23,0.25,0.53,0.82,0.27,0.55,0.51,0.53,0.37,0.23,0.43,0.8,0.42,0.44,0.42,0.46,0.23,0.44,0.55,0.53,0.23,0.67,0.62,0.34,0.23" style="fill:rgb(0,0,0);font-family:MinionPro-Regular;font-size:9.0px;stroke:none;">the trade-off between luminous efficacy and CRI.</text>
   <text y="496.498" x="167.635,172.219,176.693,180.023,181.751,185.693,189.44,194.237,196.64,200.531,204.718,207.121,211.964,216.167,217.895,222.692,225.095,229.363,234.127,237.943,241.273,243.001,248.977,254.557,257.617,259.66,261.388,264.181,268.943,272.759,274.487,278.303,285.665,288.043,291.295,294.589,296.992,301.467,306.381,308.109,311.361,316.15,320.013,323.876,326.66,330.081,334.851,342.213,343.941,347.202,351.965,356.45,361.266,363.534,368.277,370.005,374.652,378.468,380.196,384.114,387.408,389.136,393.593,396.808,401.437,405.379,410.122,411.85,415.767,419.061,420.789,423.086,425.822,427.55,431.376,435.24,440.154,442.197,443.925,450.639,455.553,457.281,460.073,464.836,468.652,470.38,474.865,477.657,482.421,486.237,489.567,491.295,496.066,499.93,504.811,509.502,511.545,513.273,516.064,520.827,524.643,526.371,530.829,534.044,538.673,542.615,547.358,551.174,554.513" svgx:width="0.53,0.51,0.37,0.23,0.44,0.42,0.53,0.27,0.43,0.46,0.27,0.55,0.47,0.23,0.53,0.27,0.47,0.53,0.43,0.37,0.23,0.67,0.62,0.34,0.23,0.23,0.31,0.53,0.43,0.23,0.43,0.82,0.27,0.37,0.37,0.27,0.51,0.55,0.23,0.37,0.52,0.43,0.42,0.31,0.37,0.53,0.82,0.23,0.37,0.53,0.51,0.53,0.25,0.53,0.23,0.51,0.43,0.23,0.44,0.37,0.23,0.51,0.37,0.51,0.44,0.53,0.23,0.44,0.37,0.23,0.27,0.31,0.23,0.42,0.44,0.55,0.23,0.23,0.75,0.55,0.23,0.31,0.53,0.43,0.23,0.51,0.31,0.53,0.43,0.37,0.23,0.53,0.44,0.55,0.53,0.23,0.23,0.31,0.53,0.43,0.23,0.51,0.37,0.51,0.44,0.53,0.43,0.37,0.23" style="fill:rgb(0,0,0);font-family:MinionPro-Regular;font-size:9.0px;stroke:none;">For achieving higher CRI, the emission spectrum should be as broad as it can. On the other hand, the broader </text>
   <text y="506.497" x="155.638,158.412,163.158,166.956,168.666,172.464,179.808,182.168,185.401,188.677,191.062,195.519,200.415,202.125,205.358,210.129,213.974,217.819,220.585,223.989,228.741,236.085,238.109,239.82,242.593,247.339,251.137,252.847,254.991,259.743,267.087,269.472,274.344,278.188,283.05,286.83,290.628,292.338,296.136,303.291,307.1,311.024,314.95,319.054,320.764,325.221,327.858,329.568,332.88,336.804,341.529,343.942,347.698,350.463,352.848,357.305,362.201,363.911,366.998,371.813,376.898,382.46,385.547,387.257,393.423,395.855,398.153,400.403,402.113,406.741,410.539,412.249,414.499,418.921,424.403,426.428,428.138,437.717,441.515,443.225,445.99,449.302,453.226,457.951,461.749,464.926,469.383,474.405,476.115,480.742,484.54,487.287,493.356,497.201,500.999,505.895,507.605,513.563,519.125,522.167,523.877,527.722,532.584,537.309,539.019,543.834,548.919,554.508" svgx:width="0.31,0.53,0.43,0.23,0.43,0.82,0.27,0.37,0.37,0.27,0.51,0.55,0.23,0.37,0.52,0.43,0.42,0.31,0.37,0.53,0.82,0.23,0.23,0.31,0.53,0.43,0.23,0.25,0.53,0.82,0.27,0.55,0.44,0.55,0.42,0.43,0.23,0.43,0.8,0.42,0.44,0.42,0.46,0.23,0.51,0.3,0.23,0.37,0.44,0.53,0.27,0.44,0.31,0.27,0.51,0.55,0.23,0.35,0.54,0.57,0.62,0.35,0.23,0.69,0.27,0.25,0.25,0.23,0.51,0.43,0.23,0.25,0.51,0.69,0.23,0.23,1.07,0.43,0.23,0.31,0.37,0.44,0.53,0.43,0.36,0.51,0.56,0.23,0.51,0.43,0.31,0.69,0.43,0.43,0.55,0.23,0.67,0.62,0.34,0.23,0.44,0.55,0.53,0.23,0.54,0.57,0.62,0.23" style="fill:rgb(0,0,0);font-family:MinionPro-Regular;font-size:9.0px;stroke:none;">the emission spectrum, the luminance efficacy of radiation (LER) will be low. The trade-off between CRI and LER </text>
   <text y="516.496" x="155.638,158.023,161.326,163.162,167.914,171.172,175.978,179.973,182.295,184.509,188.64,190.476,193.698,197.523,202.131,205.353,209.178,212.553,216.378,221.129,223.82,227.69,232.442,234.278,239.03,242.333,244.745,249.596,253.808,255.644,258.443,263.213,267.038,268.874,271.457,275.984,278.306,280.583,285.029,291.221,293.633,298.484,302.696,304.532,307.25,312.029,316.915,320.785,323.575,325.987,330.469,335.392,337.228,340.027,344.806,348.586,351.331,353.167,357.657,362.275,365.064,367.476,374.847,377.259,381.039,384.864,388.167,390.003,395.988,401.577,404.646,406.482,410.352,415.239,419.991,421.827,426.669,431.781" svgx:width="0.27,0.37,0.23,0.53,0.37,0.53,0.44,0.25,0.25,0.46,0.23,0.37,0.43,0.52,0.37,0.43,0.37,0.43,0.55,0.31,0.43,0.53,0.23,0.53,0.37,0.27,0.55,0.47,0.23,0.31,0.53,0.43,0.23,0.3,0.51,0.25,0.25,0.51,0.69,0.27,0.55,0.47,0.23,0.3,0.53,0.55,0.42,0.31,0.27,0.51,0.55,0.23,0.31,0.53,0.44,0.31,0.23,0.51,0.52,0.31,0.27,0.82,0.27,0.42,0.43,0.37,0.23,0.67,0.62,0.34,0.23,0.44,0.55,0.53,0.23,0.54,0.57,0.62" style="fill:rgb(0,0,0);font-family:MinionPro-Regular;font-size:9.0px;stroke:none;">is usually represented using the following function that optimizes CRI and LER</text>
   <text y="513.44" x="437.399,440.207" svgx:width="0.48,0.48" style="fill:rgb(0,0,255);font-family:MinionPro-Regular;font-size:5.85px;stroke:none;">25</text>
   <text y="516.5" x="443.015" svgx:width="0.23" style="fill:rgb(0,0,0);font-family:MinionPro-Regular;font-size:9.0px;stroke:none;">.</text>
  </g>
  <g begin="text">
   <text y="533.881" x="232.882,237.6149,239.792,242.9175,263.987,266.0409,278.102,280.1559,313.814,315.8679,335.411,337.4649,342.616,345.6522,365.365,368.4012,372.284,375.4095,393.024,397.916,403.103,408.63960000000003,421.245,424.414,428.7004,446.297,449.466,455.511,460.983" svgx:width="0.53,0.55,0.35,0.55,0.23,0.55,0.23,0.55,0.23,0.55,0.23,0.55,0.34,0.55,0.34,0.55,0.35,0.55,0.54,0.57,0.62,0.55,0.35,0.48,0.55,0.35,0.67,0.62,0.34" style="fill:rgb(0,0,0);font-family:MinionPro-Regular;font-size:8.93px;stroke:none;">F ( , , , , I I ) LER (1 )CRI</text>
   <text y="534.747" x="544.21,547.38,551.701" svgx:width="0.35,0.48,0.35" style="fill:rgb(0,0,0);font-family:MinionPro-Regular;font-size:8.93px;stroke:none;">(1)</text>
   <text y="536.185" x="247.858,250.90120000000002,274.64,278.127,297.684,300.72720000000004,331.956,335.44300000000004,345.489,348.5322,368.527" svgx:width="0.48,0.55,0.55,0.55,0.48,0.55,0.55,0.55,0.48,0.55,0.55" style="fill:rgb(0,0,0);font-family:MinionPro-Regular;font-size:6.34px;stroke:none;">1 n 1 n 1 n</text>
   <text y="533.881" x="242.962,248.14139999999998,251.604,260.818,263.3184,268.88,274.0594,285.299,292.789,297.9684,301.423,310.636,313.13640000000004,318.698,326.189,331.3684,349.803,360.169,362.767,365.2674,378.319,385.2844,388.113,393.0245,411.442,418.4074,431.602,438.56739999999996,441.396" svgx:width="0.58,0.55,1.0,0.28,0.55,0.58,0.55,0.83,0.58,0.55,1.0,0.28,0.55,0.83,0.58,0.55,1.0,0.28,0.28,0.55,0.78,0.55,0.55,0.55,0.78,0.55,0.78,0.55,0.55" style="fill:rgb(0,0,0);font-family:EuclidSymbol;font-size:8.93px;stroke:none;">λ …. λ Δλ …. Δλ ….. = σ + − σ</text>
   <text y="536.185" x="236.338" svgx:width="0.55" style="fill:rgb(0,0,0);font-family:EuclidSymbol;font-size:6.34px;stroke:none;">σ</text>
  </g>
  <g begin="text">
   <text y="551.032" x="155.638,164.331,169.163,173.051,176.335,180.223" svgx:width="0.97,0.53,0.43,0.37,0.43,0.23" style="fill:rgb(0,0,0);font-family:MinionPro-Regular;font-size:9.0px;stroke:none;">Where </text>
   <text y="551.032" x="182.278" svgx:width="0.55" style="fill:rgb(0,0,0);font-family:EuclidSymbol;font-size:9.0px;stroke:none;">σ</text>
   <text y="551.032" x="187.336,189.392,193.262,197.806,201.261,204.545,208.433,211.753,216.611,221.155,226.104,230.891,234.257,236.314,239.067,243.72,245.776,248.637,253.469,257.357,259.412,265.568,269.456,271.931,276.267,280.964,283.816,286.291,291.204,295.479,297.535,300.262,304.276,308.208,310.961,315.504,318.906,320.963,324.14,328.523" svgx:width="0.23,0.42,0.51,0.37,0.37,0.43,0.37,0.52,0.51,0.55,0.53,0.37,0.23,0.31,0.51,0.23,0.31,0.53,0.43,0.23,0.69,0.43,0.27,0.47,0.53,0.31,0.27,0.55,0.47,0.23,0.3,0.44,0.42,0.31,0.51,0.37,0.23,0.35,0.48,0.23" style="fill:rgb(0,0,0);font-family:MinionPro-Regular;font-size:9.0px;stroke:none;"> corresponds to the weighting factor (0 </text>
   <text y="551.032" x="329.698" svgx:width="0.78" style="fill:rgb(0,0,0);font-family:EuclidSymbol;font-size:9.0px;stroke:none;">≤</text>
   <text y="551.032" x="336.772" svgx:width="0.23" style="fill:rgb(0,0,0);font-family:MinionPro-Regular;font-size:9.0px;stroke:none;"> </text>
   <text y="551.032" x="337.96" svgx:width="0.55" style="fill:rgb(0,0,0);font-family:EuclidSymbol;font-size:9.0px;stroke:none;">σ</text>
   <text y="551.032" x="343.018,345.07" svgx:width="0.23,0.23" style="fill:rgb(0,0,0);font-family:MinionPro-Regular;font-size:9.0px;stroke:none;"> </text>
   <text y="551.032" x="346.258" svgx:width="0.78" style="fill:rgb(0,0,0);font-family:EuclidSymbol;font-size:9.0px;stroke:none;">≤</text>
   <text y="551.032" x="353.332,354.52,358.903,362.08,364.195,366.247,371.233,373.285,378.028,380.08,384.894,389.736,397.079,401.794,405.682,409.084,411.136,415.68,418.407,420.459,425.13,428.585,431.06,438.465,442.397,446.059,450.253,452.305,457.21,462.385,469.008,472.374,474.489" svgx:width="0.23,0.48,0.35,0.23,0.23,0.55,0.23,0.52,0.23,0.55,0.53,0.82,0.51,0.43,0.37,0.23,0.51,0.3,0.23,0.52,0.37,0.27,0.82,0.44,0.37,0.46,0.23,0.54,0.57,0.74,0.37,0.23,0.23" style="fill:rgb(0,0,0);font-family:MinionPro-Regular;font-size:9.0px;stroke:none;"> 1), n – number of primary LEDs, </text>
   <text y="551.032" x="476.541" svgx:width="0.58" style="fill:rgb(0,0,0);font-family:EuclidSymbol;font-size:9.0px;stroke:none;">λ</text>
   <text y="552.832" x="481.855" svgx:width="0.48" style="fill:rgb(0,0,0);font-family:MinionPro-Regular;font-size:5.85px;stroke:none;">1</text>
   <text y="551.032" x="484.703,486.818" svgx:width="0.23,0.23" style="fill:rgb(0,0,0);font-family:MinionPro-Regular;font-size:9.0px;stroke:none;">, </text>
   <text y="551.032" x="488.87" svgx:width="0.58" style="fill:rgb(0,0,0);font-family:EuclidSymbol;font-size:9.0px;stroke:none;">λ</text>
   <text y="552.832" x="494.188" svgx:width="0.48" style="fill:rgb(0,0,0);font-family:MinionPro-Regular;font-size:5.85px;stroke:none;">2</text>
   <text y="551.032" x="497.037,499.152" svgx:width="0.23,0.23" style="fill:rgb(0,0,0);font-family:MinionPro-Regular;font-size:9.0px;stroke:none;">, </text>
   <text y="551.032" x="501.204,508.773" svgx:width="0.83,0.58" style="fill:rgb(0,0,0);font-family:EuclidSymbol;font-size:9.0px;stroke:none;">Δλ</text>
   <text y="552.832" x="514.087" svgx:width="0.48" style="fill:rgb(0,0,0);font-family:MinionPro-Regular;font-size:5.85px;stroke:none;">1</text>
   <text y="551.032" x="516.936,519.051" svgx:width="0.23,0.23" style="fill:rgb(0,0,0);font-family:MinionPro-Regular;font-size:9.0px;stroke:none;">, </text>
   <text y="551.032" x="521.103,528.672" svgx:width="0.83,0.58" style="fill:rgb(0,0,0);font-family:EuclidSymbol;font-size:9.0px;stroke:none;">Δλ</text>
   <text y="552.832" x="533.986" svgx:width="0.48" style="fill:rgb(0,0,0);font-family:MinionPro-Regular;font-size:5.85px;stroke:none;">2</text>
   <text y="551.032" x="536.835,538.949,541.001,544.934,549.883,554.635" svgx:width="0.23,0.23,0.44,0.55,0.53,0.23" style="fill:rgb(0,0,0);font-family:MinionPro-Regular;font-size:9.0px;stroke:none;">, and </text>
   <text y="561.031" x="155.64" svgx:width="0.34" style="fill:rgb(0,0,0);font-family:MinionPro-Regular;font-size:9.0px;stroke:none;">I</text>
   <text y="562.832" x="158.707" svgx:width="0.48" style="fill:rgb(0,0,0);font-family:MinionPro-Regular;font-size:5.85px;stroke:none;">1</text>
   <text y="561.032" x="161.515,163.567,165.457" svgx:width="0.23,0.23,0.34" style="fill:rgb(0,0,0);font-family:MinionPro-Regular;font-size:9.0px;stroke:none;">, I</text>
   <text y="562.832" x="168.529,171.337" svgx:width="0.48,0.23" style="fill:rgb(0,0,0);font-family:MinionPro-Regular;font-size:5.85px;stroke:none;">2,</text>
   <text y="561.032" x="172.671,174.561,178.385,181.076,184.883,186.936,188.826,192.696,195.918,199.743,201.633,206.43,210.308,214.304,218.768,220.658,226.823,230.612,234.707,238.496,240.773,244.598,249.448,253.66,256.459,261.193,264.496,266.548,268.438,271.696,276.493,280.363,284.233,287.023,290.362,294.357,296.634,298.524,300.801,303.213,308.1,311.925,313.815,320.007,322.419,327.063,329.861,334.596,337.899,339.951,341.841,345.711,350.598,355.35,357.24,360.039,364.809,368.634,370.524,372.693,377.472,384.843,387.255,392.142,396.633,401.385,404.688,406.578,411.267,416.046,420.222,424.047,427.35,429.402,431.292,436.098,439.491,441.903,445.656,450.462,453.684,458.166,465.51,469.29,472.08,474.492,478.299,480.189,486.417,491.223,493.527,496.218,500.043,501.933,506.775,511.887,518.502,520.392,522.696,526.566,533.766,538.482,541.785,543.675,547.545,550.767,554.592" svgx:width="0.23,0.43,0.31,0.42,0.23,0.23,0.44,0.37,0.43,0.23,0.52,0.43,0.44,0.5,0.23,0.69,0.44,0.46,0.43,0.25,0.43,0.55,0.47,0.31,0.53,0.37,0.23,0.23,0.37,0.52,0.43,0.42,0.31,0.37,0.44,0.25,0.23,0.25,0.27,0.55,0.43,0.23,0.69,0.27,0.53,0.31,0.53,0.37,0.23,0.23,0.44,0.55,0.53,0.23,0.31,0.53,0.43,0.23,0.25,0.53,0.82,0.27,0.55,0.51,0.53,0.37,0.23,0.53,0.53,0.47,0.43,0.37,0.23,0.23,0.62,0.37,0.27,0.42,0.53,0.37,0.51,0.82,0.44,0.31,0.27,0.42,0.23,0.69,0.53,0.27,0.31,0.43,0.23,0.54,0.57,0.74,0.23,0.25,0.44,0.82,0.52,0.37,0.23,0.44,0.37,0.43,0.23" style="fill:rgb(0,0,0);font-family:MinionPro-Regular;font-size:9.0px;stroke:none;"> etc. are peak wavelengths, spectral line widths, and the luminous fluxes. Trichromatic white LED lamps are </text>
   <text y="571.031" x="155.633,160.413,163.7,168.534,172.558,174.909,177.151,181.309,183.28,188.06,191.463,195.361,200.14,202.111,204.83,209.447,211.418,215.396,219.177,224.01,226.449,230.374,234.498,238.35,240.321,244.299,246.27,250.916,254.939,257.271,261.17,266.085,269.919,273.771,275.742,280.423,284.275,287.076,293.197,297.095,300.947,305.897,307.868,313.88,319.496,322.592,324.563,328.46,333.376,338.155,340.126,344.995,350.134,355.877,357.956,359.927,364.978,367.282,371.19,375.142,378.545,382.397,384.368,389.282,393.802,396.521,400.373,402.344,405.172,409.979,413.787,416.559,418.53,420.969,425.919,427.89,433.076,437.63,439.71,441.681" svgx:width="0.53,0.37,0.53,0.44,0.25,0.25,0.46,0.23,0.53,0.37,0.43,0.53,0.23,0.31,0.51,0.23,0.44,0.42,0.53,0.27,0.43,0.46,0.43,0.23,0.44,0.23,0.51,0.44,0.25,0.44,0.55,0.42,0.43,0.23,0.51,0.43,0.31,0.69,0.43,0.43,0.55,0.23,0.67,0.62,0.34,0.23,0.44,0.55,0.53,0.23,0.54,0.57,0.62,0.23,0.23,0.56,0.25,0.43,0.44,0.37,0.43,0.23,0.55,0.51,0.31,0.43,0.23,0.31,0.53,0.44,0.31,0.23,0.27,0.55,0.23,0.57,0.51,0.23,0.23,0.35" style="fill:rgb(0,0,0);font-family:MinionPro-Regular;font-size:9.0px;stroke:none;">usually used to achieve a balance between CRI and LER. Please note that in Eq. (</text>
   <text y="571.031" x="444.822" svgx:width="0.48" style="fill:rgb(0,0,255);font-family:MinionPro-Regular;font-size:9.0px;stroke:none;">1</text>
   <text y="571.031" x="449.177,452.318,454.289,457.116,461.915,465.767,467.738,473.75,479.366,482.462,484.433,486.846,490.176,492.147,498.159,503.775,506.871,508.842" svgx:width="0.35,0.23,0.31,0.53,0.43,0.23,0.67,0.62,0.34,0.23,0.27,0.37,0.23,0.67,0.62,0.34,0.23,0.62" style="fill:rgb(0,0,0);font-family:MinionPro-Regular;font-size:9.0px;stroke:none;">) the CRI is CRI R</text>
   <text y="572.832" x="514.469" svgx:width="0.49" style="fill:rgb(0,0,0);font-family:MinionPro-It;font-size:5.85px;stroke:none;">a</text>
   <text y="571.032" x="517.354,519.433,521.404,531.036,534.888,536.859,539.298,544.214,548.993,551.432" svgx:width="0.23,0.23,1.07,0.43,0.23,0.27,0.55,0.53,0.27,0.36" style="fill:rgb(0,0,0);font-family:MinionPro-Regular;font-size:9.0px;stroke:none;">. The indi-</text>
   <text y="581.031" x="155.635,159.883,162.349,167.047,171.907,175.957,178.288,180.313,186.352,191.995,195.118,197.143,201.994,206.53,208.996,213.802,216.601,219.958,221.983,225.907,229.183,233.062,235.087,240.028,244.573,247.372,249.397,253.258,257.794,262.699,266.056,268.522,273.328,277.207,280.483,284.406,289.212,291.237,293.703,298.68,300.705,303.558,308.382,312.261,314.286,318.21,322.773,327.633,331.467,334.311,336.777,341.313,346.29,348.396,350.421,355.056,359.889,363.372,366.225,371.049,374.928,378.375,385.764,390.3,393.576,397.401,399.507,401.532,407.571,413.214,416.337,418.362" svgx:width="0.46,0.27,0.53,0.53,0.44,0.25,0.23,0.67,0.62,0.34,0.23,0.52,0.51,0.27,0.55,0.31,0.37,0.23,0.44,0.37,0.43,0.23,0.55,0.51,0.31,0.23,0.42,0.51,0.55,0.37,0.27,0.53,0.43,0.37,0.43,0.53,0.23,0.27,0.55,0.23,0.31,0.53,0.43,0.23,0.43,0.51,0.53,0.44,0.31,0.27,0.51,0.55,0.23,0.23,0.53,0.53,0.37,0.31,0.53,0.43,0.37,0.82,0.51,0.37,0.43,0.23,0.23,0.67,0.62,0.34,0.23,0.62" style="fill:rgb(0,0,0);font-family:MinionPro-Regular;font-size:9.0px;stroke:none;">vidual CRI points are not considered in the equation. Furthermore, CRI R</text>
   <text y="582.832" x="424.03" svgx:width="0.49" style="fill:rgb(0,0,0);font-family:MinionPro-It;font-size:5.85px;stroke:none;">a</text>
   <text y="581.032" x="426.932,428.957,432.845,436.769,441.746,443.771,447.083,449.927,452.438,454.814,457.145,459.17,462.491,467.315,471.815,478.034,480.059,484.208,488.087,491.741,495.926,497.951,502.811,505.277,509.606,514.466,516.491,520.712,524.762,526.984,531.817,535.696,537.721,541.672,545.821,549.7,554.623" svgx:width="0.23,0.42,0.44,0.55,0.23,0.37,0.31,0.27,0.25,0.25,0.23,0.37,0.53,0.51,0.69,0.23,0.46,0.43,0.37,0.46,0.23,0.53,0.27,0.47,0.53,0.23,0.46,0.44,0.25,0.53,0.43,0.23,0.43,0.46,0.43,0.55,0.23" style="fill:rgb(0,0,0);font-family:MinionPro-Regular;font-size:9.0px;stroke:none;"> can still show very high value even </text>
   <text y="591.031" x="155.636,158.403,163.141,167.6,172.348,176.591,181.365,183.066,186.409,190.86,198.163,201.956,203.657,208.108,210.74,212.441,215.209,219.947,223.74,225.441,231.394,236.952,239.989,241.69,246.455,250.905,253.286,258.006,260.719,263.99,265.691,269.53,272.72,276.514,278.215,282.277,286.071,289.64,293.739,295.44,297.685,302.099,307.576,309.596,311.297,315.937,320.495,322.196,326.115,329.836,334.611,336.991,340.856,344.919,348.713,350.414,356.367,361.924,364.961,366.662,371.428,375.878,378.258,382.979,385.692,388.963,390.664,394.511,399.132,403.546,407.61,411.402,413.103,417.391,421.679,423.38,427.219,432.074,436.795,438.496,443.306,448.386,453.944,455.645,460.833,462.534,466.823,471.111,475.46,476.549,478.794,486.133,489.08,497.788,499.489,502.76,505.14,512.308,517.101,519.238,522.005,525.844,530.699,534.537,538.996,543.717,546.952,549.134,552.576,554.628" svgx:width="0.31,0.53,0.51,0.53,0.47,0.53,0.23,0.37,0.51,0.82,0.43,0.23,0.51,0.3,0.23,0.31,0.53,0.43,0.23,0.67,0.62,0.34,0.23,0.52,0.51,0.27,0.55,0.31,0.37,0.23,0.44,0.37,0.43,0.23,0.46,0.43,0.37,0.46,0.23,0.25,0.51,0.69,0.23,0.23,0.62,0.51,0.23,0.44,0.42,0.53,0.27,0.43,0.46,0.43,0.23,0.67,0.62,0.34,0.23,0.52,0.51,0.27,0.55,0.31,0.37,0.23,0.44,0.51,0.51,0.46,0.43,0.23,0.48,0.48,0.23,0.44,0.55,0.53,0.23,0.54,0.57,0.62,0.23,0.58,0.23,0.48,0.48,0.48,0.23,0.25,0.82,0.33,0.97,0.23,0.37,0.27,0.82,0.53,0.25,0.31,0.44,0.55,0.43,0.51,0.53,0.37,0.25,0.46,0.23,0.23" style="fill:rgb(0,0,0);font-family:MinionPro-Regular;font-size:9.0px;stroke:none;">though some of the CRI points are very low. To achieve CRI points above 95 and LER ~ 100 lm/W simultaneously, </text>
   <text y="601.03" x="155.627,161.791,165.688,167.776,170.512,174.463,178.998,182.463,184.947,188.852,192.704,195.466,199.408,204.232,206.32,210.559,214.5,217.965,220.449,225.011,229.835,233.21,235.298,244.109,249.023,254.207,260.839,264.214,266.302,270.567,273.078,277.101,279.189,282.059,286.901,290.798,292.886,296.765,301.318,308.67,313.206,315.69,320.658,324.509,327.371,329.855,334.409,339.404,341.492,346.046,348.782,350.87,353.741,358.582,362.479,364.567,369.148,371.388,376.239,380.136,382.224,387.138,392.322,398.649,400.773,402.861,409.557,415.956,418.044,422.958,428.142,434.468,436.592,438.68,442.621,447.58,452.404,454.492,459.217,464.059,468.721,472.05,476.775,481.616,486.17,489.526,492.901,495.025,497.113,505.051,508.948,511.036,513.52,518.307,522.474,526.371,529.701,532.562,535.046,539.33,543.182,545.944,549.886,554.638" svgx:width="0.69,0.43,0.23,0.3,0.44,0.51,0.37,0.27,0.42,0.44,0.31,0.43,0.53,0.23,0.46,0.44,0.37,0.27,0.51,0.53,0.37,0.23,0.97,0.54,0.57,0.74,0.37,0.23,0.46,0.27,0.44,0.23,0.31,0.53,0.43,0.23,0.42,0.51,0.82,0.51,0.27,0.55,0.44,0.31,0.27,0.51,0.55,0.23,0.51,0.3,0.23,0.31,0.53,0.43,0.23,0.51,0.25,0.53,0.43,0.23,0.54,0.57,0.74,0.23,0.23,0.74,0.7,0.23,0.54,0.57,0.74,0.23,0.23,0.44,0.55,0.53,0.23,0.52,0.53,0.51,0.37,0.52,0.53,0.51,0.37,0.37,0.23,0.23,0.97,0.43,0.23,0.27,0.55,0.46,0.43,0.37,0.31,0.27,0.47,0.44,0.31,0.43,0.53,0.23" style="fill:rgb(0,0,0);font-family:MinionPro-Regular;font-size:9.0px;stroke:none;">we fabricated various WLEDs via the combination of the blue LED, UV LED, and phosphors. We investigated </text>
   <text y="611.029" x="155.627,160.397,164.843,171.008,172.844,176.723,180.674,184.426,189.232,191.068,197.053,202.642,205.711,207.547,212.344,216.826,219.238,223.989,226.734,228.57,232.323,237.102,240.972,245.823,249.963,253.788,257.091,258.927,265.119,267.423,270.222,275.028,276.864,279.662,284.432,288.257,290.093,294.35,297.572,301.442,305.267,310.19,313.169,316.39,320.26,325.012,326.848,331.501,336.271,340.861,344.119,348.772,353.542,358.024,361.363,363.199,369.292,373.117,375.529,379.803,384.438,387.183,389.019,392.358,396.138,398.928,401.34,405.93,407.766,411.637,416.524,421.276,423.112,425.911,430.681,434.506,436.342,440.212,444.991,448.383,451.606,455.431,460.182,462.927,464.763,467.562,472.368,475.59,480.081,484.86,489.135,493.941,495.777,499.655,503.606,507.359,512.165,514.001,518.843,523.955,530.57,532.406,536.159,540.965,543.269,547.724" svgx:width="0.53,0.51,0.69,0.23,0.43,0.44,0.42,0.53,0.23,0.67,0.62,0.34,0.23,0.52,0.51,0.27,0.55,0.31,0.23,0.42,0.53,0.44,0.55,0.47,0.43,0.37,0.23,0.69,0.27,0.31,0.53,0.23,0.31,0.53,0.43,0.23,0.47,0.37,0.43,0.43,0.55,0.33,0.37,0.43,0.53,0.23,0.52,0.53,0.51,0.37,0.52,0.53,0.51,0.37,0.23,0.69,0.43,0.27,0.47,0.53,0.31,0.23,0.37,0.44,0.31,0.27,0.51,0.23,0.44,0.55,0.53,0.23,0.31,0.53,0.43,0.23,0.42,0.53,0.37,0.37,0.43,0.55,0.31,0.23,0.31,0.53,0.37,0.51,0.53,0.47,0.53,0.23,0.43,0.44,0.42,0.53,0.23,0.54,0.57,0.74,0.23,0.42,0.53,0.27,0.52,0.23" style="fill:rgb(0,0,0);font-family:MinionPro-Regular;font-size:9.0px;stroke:none;">how each CRI point changes with the green/red phosphor weight ratio and the current through each LED chip.</text>
   <text y="621.028" x="167.624,170.54,175.454,177.182,181.655,184.869,189.612,193.428,196.758,198.486,201.168,205.749,207.477,211.293,216.252,221.022,224.884,229.762,233.56,237.376,239.104,241.895,246.656,250.472,252.2,258.176,263.756,266.816,268.544,273.332,277.806,280.209,284.953,287.689,290.983,293.026,294.754,299.56,302.836,306.086,308.876,311.082,314.547,316.59,318.318,324.402,328.218,329.946,332.727,336.112,338.515,342.376,347.119,348.847,351.61,357.695,362.276,364.004,371.331,375.147,377.938,382.699,387.361,392.077,395.371,397.414,399.142,403.346,405.749,410.628,414.426,418.242,419.97,422.76,427.522,431.338" svgx:width="0.34,0.55,0.23,0.51,0.37,0.53,0.43,0.37,0.23,0.31,0.51,0.23,0.43,0.55,0.53,0.44,0.55,0.42,0.43,0.23,0.31,0.53,0.43,0.23,0.67,0.62,0.34,0.23,0.52,0.51,0.27,0.55,0.31,0.37,0.23,0.23,0.54,0.37,0.37,0.31,0.25,0.46,0.23,0.23,0.69,0.43,0.23,0.31,0.37,0.27,0.43,0.53,0.23,0.31,0.69,0.51,0.23,0.82,0.43,0.31,0.53,0.51,0.53,0.37,0.23,0.23,0.47,0.27,0.55,0.42,0.43,0.23,0.31,0.53,0.43,0.23" style="fill:rgb(0,0,0);font-family:MinionPro-Regular;font-size:9.0px;stroke:none;">In order to enhance the CRI points, firstly, we tried two methods. Since the </text>
   <text y="621.028" x="433.066" svgx:width="0.6" style="fill:rgb(0,0,0);font-family:MinionPro-It;font-size:9.0px;stroke:none;">R</text>
   <text y="622.832" x="438.471" svgx:width="0.48" style="fill:rgb(0,0,0);font-family:MinionPro-Regular;font-size:5.85px;stroke:none;">9</text>
   <text y="621.032" x="441.273,443.001,447.159,451.147,453.307,458.077,461.893,463.621,466.726,470.524,474.998,478.382,481.596,485.412,488.662,493.45,497.924,502.802,507.545,509.948,514.791,518.994,520.722,523.405,527.986,529.714,532.505,537.266,541.081,542.81,546.023,549.884,554.636" svgx:width="0.23,0.46,0.44,0.25,0.53,0.43,0.23,0.35,0.42,0.51,0.37,0.37,0.43,0.37,0.52,0.51,0.55,0.53,0.27,0.55,0.47,0.23,0.31,0.51,0.23,0.31,0.53,0.43,0.23,0.37,0.43,0.53,0.23" style="fill:rgb(0,0,0);font-family:MinionPro-Regular;font-size:9.0px;stroke:none;"> value (corresponding to the red </text>
   <text y="631.031" x="155.64,159.461,163.956,171.169,175.979,180.475,185.375,189.213,193.978,196.737,199.864,201.817,204.216,207.532,209.485,214.386,218.224,222.449,226.243,229.046,231.408,235.516,239.301,241.366,243.319,249.426,253.264,255.217,257.895,261.787,266.265,269.67,272.096,275.942,279.736,282.44,286.324,291.089,293.042,297.007,298.96,303.995,309.733,316.18,318.133,324.338,326.656,329.468,334.288,336.241,340.763,342.946,347.737,351.576,353.529,358.384,363.51,370.138,372.091,375.309,377.262,381.531,384.767,388.65,392.489,397.424,399.377,403.261,408.161,412.926,414.879,418.115,421.998,426.764,428.717,433.383,438.167,442.769,446.041,450.707,455.491,459.986,463.285,466.6,468.553,471.68,476.013,481.319,484.536,490.985,496.587,499.714,501.78,503.733,507.616,512.517,517.282,519.235,522.048,526.831,530.669,532.622,536.442,540.938,544.344,547.58,551.433" svgx:width="0.42,0.51,0.82,0.52,0.51,0.55,0.43,0.55,0.31,0.35,0.23,0.27,0.37,0.23,0.55,0.43,0.47,0.44,0.31,0.27,0.46,0.43,0.23,0.23,0.69,0.43,0.23,0.3,0.44,0.51,0.37,0.27,0.42,0.44,0.31,0.43,0.53,0.23,0.44,0.23,0.56,0.67,0.71,0.23,0.69,0.27,0.31,0.53,0.23,0.51,0.25,0.53,0.43,0.23,0.54,0.57,0.74,0.23,0.36,0.23,0.47,0.37,0.43,0.43,0.55,0.23,0.44,0.55,0.53,0.23,0.37,0.43,0.53,0.23,0.52,0.53,0.51,0.37,0.52,0.53,0.51,0.37,0.37,0.23,0.35,0.48,0.59,0.36,0.71,0.62,0.35,0.23,0.23,0.44,0.55,0.53,0.23,0.31,0.53,0.43,0.23,0.42,0.51,0.37,0.37,0.43,0.36" style="fill:rgb(0,0,0);font-family:MinionPro-Regular;font-size:9.0px;stroke:none;">component) is negative, we fabricated a PKG with blue LED - green and red phosphors (1B-GR), and the corre-</text>
   <text y="641.03" x="155.64,158.879,163.657,168.121,172.989,177.723,180.117,184.95,189.144,190.863,195.957,200.781,202.5,205.739,210.517,214.368,218.218,220.989,224.399,229.16,236.513,238.232,242.083,246.952,251.686,253.405,259.372,264.943,267.994,269.713,274.491,278.954,281.348,286.081,288.808,292.093,293.812,297.663,300.866,304.673,306.392,309.64,314.39,318.818,324.991,329.896,331.615,334.009,338.914,340.633,345.376,347.77,351.99,354.024" svgx:width="0.37,0.52,0.51,0.55,0.53,0.27,0.55,0.47,0.23,0.57,0.54,0.23,0.37,0.52,0.43,0.42,0.31,0.37,0.53,0.82,0.23,0.44,0.55,0.53,0.23,0.67,0.62,0.34,0.23,0.52,0.51,0.27,0.55,0.31,0.37,0.23,0.44,0.37,0.43,0.23,0.37,0.53,0.51,0.69,0.55,0.23,0.27,0.55,0.23,0.53,0.27,0.47,0.23,0.23" style="fill:rgb(0,0,0);font-family:MinionPro-Regular;font-size:9.0px;stroke:none;">sponding EL spectrum and CRI points are shown in Fig. </text>
   <text y="641.03" x="355.71,360.012,363.108,366.897,368.931,373.665" svgx:width="0.48,0.35,0.42,0.23,0.53,0.35" style="fill:rgb(0,0,255);font-family:MinionPro-Regular;font-size:9.0px;stroke:none;">2(c,d)</text>
   <text y="641.03" x="376.761,378.795,380.514,385.427,389.503,393.31,398.215,399.934,402.715,407.466,411.938,416.699,420.955,425.743,427.462,433.536,437.343,439.062,442.995,446.729,451.517,453.911,457.789,461.865,465.716,470.45,472.169,476.102,477.821,482.609,485.003,489.259,494.047,495.766,501.733,507.304,510.355" svgx:width="0.23,0.23,0.57,0.46,0.43,0.55,0.23,0.31,0.53,0.51,0.53,0.47,0.53,0.23,0.69,0.43,0.23,0.44,0.42,0.53,0.27,0.43,0.46,0.43,0.53,0.23,0.44,0.23,0.53,0.27,0.47,0.53,0.23,0.67,0.62,0.34,0.23" style="fill:rgb(0,0,0);font-family:MinionPro-Regular;font-size:9.0px;stroke:none;">. Even though we achieved a high CRI </text>
   <text y="641.03" x="512.074" svgx:width="0.6" style="fill:rgb(0,0,0);font-family:MinionPro-It;font-size:9.0px;stroke:none;">R</text>
   <text y="642.832" x="517.569" svgx:width="0.44" style="fill:rgb(0,0,0);font-family:MinionPro-Regular;font-size:5.85px;stroke:none;">a</text>
   <text y="641.032" x="520.125,521.844,526.307,528.953,530.672,534.974,539.276,541.31,545.612,547.331,549.725,554.648" svgx:width="0.23,0.51,0.3,0.23,0.48,0.48,0.23,0.48,0.23,0.27,0.55,0.23" style="fill:rgb(0,0,0);font-family:MinionPro-Regular;font-size:9.0px;stroke:none;"> of 96.2 in </text>
   <text y="651.031" x="155.634,158.453,163.277,165.682,169.003,170.965,176.007,181.752,188.205,190.275,192.237,195.057,199.846,203.689" svgx:width="0.31,0.53,0.27,0.37,0.23,0.56,0.67,0.71,0.23,0.23,0.31,0.53,0.43,0.23" style="fill:rgb(0,0,0);font-family:MinionPro-Regular;font-size:9.0px;stroke:none;">this PKG, the </text>
   <text y="651.031" x="205.651" svgx:width="0.6" style="fill:rgb(0,0,0);font-family:MinionPro-It;font-size:9.0px;stroke:none;">R</text>
   <text y="652.832" x="211.077" svgx:width="0.48" style="fill:rgb(0,0,0);font-family:MinionPro-Regular;font-size:5.85px;stroke:none;">3</text>
   <text y="651.032" x="213.898,215.968" svgx:width="0.23,0.23" style="fill:rgb(0,0,0);font-family:MinionPro-Regular;font-size:9.0px;stroke:none;">, </text>
   <text y="651.032" x="217.93" svgx:width="0.6" style="fill:rgb(0,0,0);font-family:MinionPro-It;font-size:9.0px;stroke:none;">R</text>
   <text y="652.832" x="223.343" svgx:width="0.48" style="fill:rgb(0,0,0);font-family:MinionPro-Regular;font-size:5.85px;stroke:none;">9</text>
   <text y="651.032" x="226.164,228.234,230.196,234.086,238.994,243.764" svgx:width="0.23,0.23,0.44,0.55,0.53,0.23" style="fill:rgb(0,0,0);font-family:MinionPro-Regular;font-size:9.0px;stroke:none;">, and </text>
   <text y="651.032" x="245.726" svgx:width="0.6" style="fill:rgb(0,0,0);font-family:MinionPro-It;font-size:9.0px;stroke:none;">R</text>
   <text y="652.832" x="251.141,253.96" svgx:width="0.48,0.48" style="fill:rgb(0,0,0);font-family:MinionPro-Regular;font-size:5.85px;stroke:none;">12</text>
   <text y="651.032" x="256.783,258.745,262.93,266.946,269.135,273.932,277.775,281.096,283.058,286.948,290.191,294.034,295.996,299.274,302.084,304.561,306.904,309.199,311.161,315.835,319.643,321.938,326.405,332.588,334.55,338.888,343.226,345.296" svgx:width="0.23,0.46,0.44,0.25,0.53,0.43,0.37,0.23,0.44,0.37,0.43,0.23,0.37,0.31,0.27,0.25,0.25,0.23,0.51,0.43,0.25,0.51,0.69,0.23,0.48,0.48,0.23,0.23" style="fill:rgb(0,0,0);font-family:MinionPro-Regular;font-size:9.0px;stroke:none;"> values are still below 95. </text>
   <text y="651.032" x="347.258" svgx:width="0.6" style="fill:rgb(0,0,0);font-family:MinionPro-It;font-size:9.0px;stroke:none;">R</text>
   <text y="652.832" x="352.69,355.51" svgx:width="0.48,0.48" style="fill:rgb(0,0,0);font-family:MinionPro-Regular;font-size:5.85px;stroke:none;">12</text>
   <text y="651.032" x="358.333,360.295,363.537,367.38,372.009,375.252,379.095,382.491,386.334,391.106,393.869,397.19,399.152,406.895,411.692,416.564,419.958,423.768,426.11,428.405,430.367,434.192,438.883,443.653,447.496,449.458,453.796,458.838,464.148,466.11,470.448,473.445,477.784,482.122,484.192,486.154,492.401,497.225,499.655,503.429,508.253,510.215,514.04,518.543,521.956,525.198,529.041,532.32,537.138,541.639,546.547,551.293,554.595" svgx:width="0.23,0.37,0.43,0.52,0.37,0.43,0.37,0.43,0.55,0.31,0.37,0.23,0.89,0.53,0.55,0.37,0.43,0.25,0.25,0.23,0.42,0.51,0.53,0.43,0.23,0.48,0.56,0.59,0.23,0.48,0.33,0.48,0.48,0.23,0.23,0.69,0.53,0.27,0.42,0.53,0.23,0.42,0.51,0.37,0.37,0.43,0.37,0.52,0.51,0.55,0.53,0.37,0.23" style="fill:rgb(0,0,0);font-family:MinionPro-Regular;font-size:9.0px;stroke:none;"> represents Munsell code 3PB 3/11, which corresponds </text>
   <text y="661.031" x="155.635,158.326,162.916,164.716,168.667,170.467,174.976,177.145,181.924,185.749,187.549,191.356,195.883,198.16,202.642,205.981,207.781,212.56,216.349,220.543,222.955,227.806,232.018,233.818,237.688,242.611,244.411,248.236,255.607,257.992,261.25,264.553,266.965,271.446,276.369,278.169,282.966,286.845,290.841,295.305,297.105,300.975,304.197,308.688,313.467,318.354,323.106,324.906,329.226,333.546,337.866,339.01,343.933,351.304,353.356,355.156,359.827,364.417,366.217,370.024,374.506,381.706,386.502,390.327,395.178,398.535,402.315,405.006,408.831,410.631,413.214,417.696,421.035,422.835,425.634,430.44,432.825,436.128,438.18,439.98,446.073,449.898,451.698,454.362,458.241,462.705,466.098,468.51,472.343,476.123,478.814,482.684,487.436,489.236,493.187,494.987,500.009,505.733,512.168,513.968,517.775,522.257,529.457,534.065,537.458,539.843,543.146,545.558,550.409,554.621" svgx:width="0.31,0.51,0.23,0.44,0.23,0.51,0.25,0.53,0.43,0.23,0.42,0.51,0.25,0.51,0.37,0.23,0.53,0.44,0.46,0.27,0.55,0.47,0.23,0.44,0.55,0.23,0.43,0.82,0.27,0.37,0.37,0.27,0.51,0.55,0.23,0.52,0.43,0.44,0.5,0.23,0.44,0.37,0.51,0.53,0.55,0.53,0.23,0.48,0.48,0.48,0.23,0.55,0.82,0.23,0.23,0.62,0.51,0.23,0.42,0.51,0.82,0.52,0.43,0.55,0.37,0.44,0.31,0.43,0.23,0.3,0.51,0.37,0.23,0.31,0.53,0.27,0.37,0.23,0.23,0.69,0.43,0.23,0.3,0.44,0.51,0.37,0.27,0.42,0.44,0.31,0.43,0.53,0.23,0.44,0.23,0.56,0.67,0.71,0.23,0.42,0.51,0.82,0.52,0.37,0.27,0.37,0.27,0.55,0.47,0.23" style="fill:rgb(0,0,0);font-family:MinionPro-Regular;font-size:9.0px;stroke:none;">to a blue color having an emission peak around 465 nm. To compensate for this, we fabricated a PKG comprising </text>
   <text y="671.03" x="155.635,160.123,162.796,164.74,169.255,171.43,176.218,180.052,181.996,186.847,191.968,198.592,200.536,203.749,205.693,210.208,212.382,217.17,220.947,223.008,224.952,229.016,232.811,235.139,237.425,241.877,247.391,249.452,251.396,255.273,260.165,264.926,266.87,270.098,273.974,278.735,280.679,285.337,290.114,294.713,297.977,302.635,307.412,311.899,315.19,318.502,320.563,322.507,328.975,333.472,336.168,340.002,341.946,344.751,349.536,353.322,356.076,358.02,360.825,365.601,369.435,371.379,375.195,379.683,384.405,388.506,392.34,397.098,399.894,402.315,406.803,411.706,415.707,417.993,419.937,424.452,426.628,431.416,435.25,437.194,441.853,446.628,451.227,454.491,459.15,463.925,468.414,471.762,473.706,477.54,484.92,487.229,489.983,493.295,495.239,497.525,499.946,504.227,508.868,511.622,513.566,519.764,522.073,524.879,529.694,531.638,535.598,537.542,542.345,546.229,550.231,554.695" svgx:width="0.51,0.3,0.23,0.51,0.25,0.53,0.43,0.23,0.54,0.57,0.74,0.23,0.36,0.23,0.51,0.25,0.53,0.43,0.23,0.23,0.46,0.43,0.25,0.25,0.51,0.69,0.23,0.23,0.44,0.55,0.53,0.23,0.37,0.43,0.53,0.23,0.52,0.53,0.51,0.37,0.52,0.53,0.51,0.37,0.37,0.23,0.23,0.74,0.51,0.31,0.43,0.23,0.31,0.53,0.44,0.31,0.23,0.31,0.53,0.43,0.23,0.42,0.51,0.55,0.46,0.43,0.55,0.31,0.27,0.51,0.55,0.44,0.25,0.23,0.51,0.25,0.53,0.43,0.23,0.52,0.53,0.51,0.37,0.52,0.53,0.51,0.37,0.23,0.43,0.82,0.27,0.31,0.37,0.23,0.25,0.27,0.47,0.53,0.31,0.23,0.69,0.27,0.31,0.53,0.23,0.44,0.23,0.52,0.43,0.44,0.5,0.23" style="fill:rgb(0,0,0);font-family:MinionPro-Regular;font-size:9.0px;stroke:none;">of blue LED - blue, yellow, and red phosphors. Note that the conventional blue phosphor emits light with a peak </text>
   <text y="681.029" x="155.635,161.881,165.753,169.931,173.803,176.161,180.067,185.001,189.294,192.176,197.063,199.196,203.76,206.505,208.638,212.591,215.896,220.47,225.33,230.301,235.134,237.262,241.663,246.064,250.465,251.683,256.687,264.139,266.272,268.405,278.09,281.996,284.129,289.322,294.245,296.374,299.716,304.595,308.548,312.5,315.374,318.886,323.746,331.198,333.326,337.28,342.25,347.083,349.211,352.093,356.947,360.853,362.981,369.047,374.717,377.867,380.0,382.493,387.463,392.296,396.202,400.531,402.66,407.539,412.104,414.597,419.432,422.258,425.642,427.77,432.336,435.081,437.214,441.615,446.988,450.273,455.646,461.433,467.103,469.232,474.155,479.348,486.044,488.177,493.281,499.088,505.604,507.733,511.686,514.991,518.897,521.026,524.375,529.228,533.758,540.033,545.037,547.165,549.658,554.58" svgx:width="0.69,0.44,0.46,0.43,0.25,0.43,0.55,0.47,0.31,0.53,0.23,0.51,0.3,0.23,0.44,0.37,0.51,0.53,0.55,0.53,0.23,0.48,0.48,0.48,0.23,0.55,0.82,0.23,0.23,1.07,0.43,0.23,0.57,0.54,0.23,0.37,0.52,0.43,0.42,0.31,0.37,0.53,0.82,0.23,0.44,0.55,0.53,0.23,0.31,0.53,0.43,0.23,0.67,0.62,0.34,0.23,0.27,0.55,0.53,0.43,0.47,0.23,0.52,0.51,0.27,0.55,0.31,0.37,0.23,0.51,0.3,0.23,0.48,0.59,0.36,0.59,0.63,0.62,0.23,0.54,0.57,0.74,0.23,0.56,0.67,0.71,0.23,0.44,0.37,0.43,0.23,0.37,0.53,0.51,0.69,0.55,0.23,0.27,0.55,0.23" style="fill:rgb(0,0,0);font-family:MinionPro-Regular;font-size:9.0px;stroke:none;">wavelength of around 490 nm. The EL spectrum and the CRI index points of 1B-BYR LED PKG are shown in </text>
   <text y="691.028" x="155.635,160.459,162.934,167.233,169.348" svgx:width="0.53,0.27,0.47,0.23,0.23" style="fill:rgb(0,0,0);font-family:MinionPro-Regular;font-size:9.0px;stroke:none;">Fig. </text>
   <text y="691.028" x="171.394,175.777,178.954,182.785,184.9,188.326" svgx:width="0.48,0.35,0.43,0.23,0.3,0.35" style="fill:rgb(0,0,255);font-family:MinionPro-Regular;font-size:9.0px;stroke:none;">2(e,f)</text>
   <text y="691.028" x="191.503,193.618,195.67,201.833,206.108,210.038,212.513,217.499,219.614,221.666,224.141,229.127,231.179,234.038,238.907,241.353,244.719,246.771,251.586,255.474,258.84,261.315,265.631,270.617,272.732,274.784,280.937,284.825,286.877,290.747,295.299,300.183,302.523,307.338,309.39,314.337,318.888,321.696,323.748,327.762,331.576,336.445,338.92,342.877,347.032,350.92,352.972,357.029,359.411,361.751,363.803,366.662,371.493,375.381,377.433,383.481,389.133,392.265,394.317,399.173,403.715,406.19,411.003,413.811,417.177,419.229,423.168,427.881,432.388,436.543,440.431,442.483,446.866,451.249,453.364,455.416,462.145,466.651,472.805,476.762,480.917,484.805,487.638,489.753,491.805,494.169,496.977,499.029,501.474,504.84,506.892,513.046,517.589,521.077,523.936,528.805,530.857,535.805,540.356,543.206,545.681,550.592,554.804" svgx:width="0.23,0.23,0.69,0.47,0.44,0.27,0.55,0.23,0.23,0.27,0.55,0.23,0.31,0.53,0.27,0.37,0.23,0.53,0.43,0.37,0.27,0.47,0.55,0.23,0.23,0.69,0.43,0.23,0.42,0.51,0.53,0.25,0.53,0.23,0.55,0.51,0.31,0.23,0.44,0.42,0.53,0.27,0.43,0.46,0.43,0.23,0.44,0.25,0.25,0.23,0.31,0.53,0.43,0.23,0.67,0.62,0.34,0.23,0.52,0.51,0.27,0.55,0.31,0.37,0.23,0.44,0.51,0.51,0.46,0.43,0.23,0.48,0.48,0.23,0.23,0.77,0.51,0.69,0.43,0.46,0.43,0.37,0.23,0.23,0.27,0.31,0.23,0.27,0.37,0.23,0.69,0.51,0.37,0.31,0.53,0.23,0.55,0.51,0.31,0.27,0.55,0.47,0.23" style="fill:rgb(0,0,0);font-family:MinionPro-Regular;font-size:9.0px;stroke:none;">. Again, in this design, we could not achieve all the CRI points above 95. However, it is worth noting </text>
   <text y="701.027" x="155.635,158.398,163.141,166.885,169.594,171.295,174.057,178.792,182.581,185.92,189.709,191.41,194.146,200.203,204.757,206.458,211.264,216.34,222.919,224.62,229.344,233.259,236.976,241.404,245.275,249.378,253.167,256.434,261.078,265.362,270.618,273.786,280.185,285.738,287.439,291.273,296.124,300.84,302.541,306.825,312.081,315.249,320.505,326.175,331.853,333.869,335.57,339.359,343.571,348.341,350.681,355.109,357.377,360.086,361.787,368.951,373.694,377.411,382.181,383.882,388.499,392.288,394.907,397.562,401.351,404.654,406.355,412.304,417.857,420.89,422.591,427.352,431.798,434.174,438.89,441.599,444.866,446.567,449.33,454.073,457.907,462.794,464.495,468.779,474.035,477.203,482.873,484.574,489.56,495.248,501.647,503.663,505.364,508.253,513.14,514.841,519.125,524.381,527.549,533.948,539.501,541.202,545.037,549.888,554.639" svgx:width="0.31,0.53,0.44,0.31,0.23,0.31,0.53,0.43,0.37,0.43,0.23,0.31,0.69,0.51,0.23,0.54,0.57,0.74,0.23,0.52,0.44,0.42,0.5,0.44,0.47,0.43,0.37,0.52,0.48,0.59,0.36,0.71,0.62,0.23,0.44,0.55,0.53,0.23,0.48,0.59,0.36,0.59,0.63,0.62,0.23,0.23,0.43,0.47,0.53,0.27,0.51,0.27,0.31,0.23,0.82,0.53,0.42,0.53,0.23,0.51,0.43,0.31,0.31,0.43,0.37,0.23,0.67,0.62,0.34,0.23,0.52,0.51,0.27,0.55,0.31,0.37,0.23,0.31,0.53,0.44,0.55,0.23,0.48,0.59,0.36,0.63,0.23,0.56,0.67,0.71,0.23,0.23,0.34,0.55,0.23,0.48,0.59,0.36,0.71,0.62,0.23,0.44,0.55,0.53,0.23" style="fill:rgb(0,0,0);font-family:MinionPro-Regular;font-size:9.0px;stroke:none;">that these two LED packages–1B-GR and 1B-BYR, exhibit much better CRI points than 1B-Y PKG. In 1B-GR and </text>
   <text y="711.026" x="155.635,159.955,165.247,168.451,173.743,179.449,185.038,186.905,191.747,196.859,203.474,205.342,210.364,216.088,222.523,225.826,227.878,229.75,235.843,239.668,241.535,244.325,247.718,250.13,253.999,258.751,260.623,265.375,267.787,272.755,276.58,279.802,283.627,288.379,291.124,292.992,296.799,301.281,308.562,313.026,315.438,320.334,324.114,326.904,329.316,333.797,338.648,341.951,343.823,348.305,350.969,352.836,357.49,362.259,366.849,370.107,374.76,379.53,384.012,387.297,390.6,392.468,395.807,399.587,402.377,404.789,409.379,411.431,413.299,418.069,422.515,428.608,432.505,436.6,440.425,443.197,445.249,447.121,453.214,457.039,458.906,462.713,467.204,472.028,474.305,479.057,480.925,485.812,490.303,493.048,494.92,498.745,503.713,508.492,512.362,517.249,521.056,524.881,526.753,529.552,534.322,538.147,540.014,545.999,551.588,554.657" svgx:width="0.48,0.59,0.36,0.59,0.63,0.62,0.23,0.54,0.57,0.74,0.23,0.56,0.67,0.71,0.37,0.23,0.23,0.69,0.43,0.23,0.31,0.37,0.27,0.43,0.53,0.23,0.53,0.27,0.56,0.43,0.37,0.43,0.55,0.31,0.23,0.42,0.51,0.82,0.51,0.27,0.55,0.44,0.31,0.27,0.51,0.55,0.37,0.23,0.51,0.3,0.23,0.52,0.53,0.51,0.37,0.52,0.53,0.51,0.37,0.37,0.23,0.37,0.44,0.31,0.27,0.51,0.23,0.23,0.53,0.51,0.69,0.43,0.46,0.43,0.37,0.23,0.23,0.69,0.43,0.23,0.42,0.51,0.53,0.25,0.53,0.23,0.55,0.51,0.31,0.23,0.43,0.55,0.53,0.44,0.55,0.42,0.43,0.23,0.31,0.53,0.43,0.23,0.67,0.62,0.34,0.23" style="fill:rgb(0,0,0);font-family:MinionPro-Regular;font-size:9.0px;stroke:none;">1B-BYR LED PKGs, we tried different combinations of phosphors ratio; however, we could not enhance the CRI </text>
   <text y="721.025" x="155.635,160.415,164.88,167.273,172.007,174.734,178.02" svgx:width="0.52,0.51,0.27,0.55,0.31,0.37,0.23" style="fill:rgb(0,0,0);font-family:MinionPro-Regular;font-size:9.0px;stroke:none;">points </text>
   <text y="721.025" x="179.746" svgx:width="0.78" style="fill:rgb(0,0,0);font-family:EuclidSymbol;font-size:9.0px;stroke:none;">≥</text>
   <text y="721.025" x="186.73,191.032,195.334,197.053,201.032,203.291,207.755,212.589,216.783,218.502,224.677,226.964,229.746,234.534,236.253,240.186,241.905,244.057,248.818,256.171,258.565,263.436,267.91,272.644,275.929,277.648,281.455,288.619,292.436,296.369,300.302,304.415,306.134,309.996,314.632,319.061,323.139,326.946,328.665,332.967,337.269,341.571,342.691,344.95,352.303,355.264,362.69,364.724,366.443,372.887,377.361,380.035,383.842,385.561,388.343,393.105,396.868,399.595,401.314,407.39,411.197,412.916,416.705,421.179,425.986,428.245,432.979,434.698,438.631,442.367,447.155,449.549,453.428,457.506,461.313,463.032,468.999,474.57,477.621,479.34,484.12,488.585,490.979,495.714,498.441,501.726" svgx:width="0.48,0.48,0.23,0.44,0.25,0.51,0.55,0.47,0.23,0.69,0.27,0.31,0.53,0.23,0.44,0.23,0.25,0.53,0.82,0.27,0.55,0.51,0.53,0.37,0.23,0.43,0.8,0.42,0.44,0.42,0.46,0.23,0.44,0.51,0.51,0.46,0.43,0.23,0.48,0.48,0.48,0.23,0.25,0.82,0.33,0.97,0.23,0.23,0.74,0.51,0.31,0.43,0.23,0.31,0.53,0.44,0.31,0.23,0.69,0.43,0.23,0.42,0.51,0.53,0.25,0.53,0.23,0.44,0.42,0.53,0.27,0.43,0.46,0.43,0.23,0.67,0.62,0.34,0.23,0.52,0.51,0.27,0.55,0.31,0.37,0.23" style="fill:rgb(0,0,0);font-family:MinionPro-Regular;font-size:9.0px;stroke:none;">95 along with a luminous efficacy above 100 lm/W. Note that we could achieve CRI points </text>
   <text y="721.025" x="503.445" svgx:width="0.78" style="fill:rgb(0,0,0);font-family:EuclidSymbol;font-size:9.0px;stroke:none;">&gt;</text>
   <text y="721.025" x="510.442,514.744,519.046,521.08,522.799,527.552,531.98,538.056,541.936,546.014,549.821,552.576,554.628" svgx:width="0.48,0.48,0.23,0.23,0.53,0.51,0.69,0.43,0.46,0.43,0.37,0.23,0.23" style="fill:rgb(0,0,0);font-family:MinionPro-Regular;font-size:9.0px;stroke:none;">95; however, </text>
   <text y="731.024" x="155.635,158.486,163.309,167.188,169.213,173.092,180.328,184.215,188.22,192.223,196.408,198.433,204.652,208.628,211.985,214.01,216.341,220.841,226.986,230.865,234.258,236.283,239.135,243.966,247.889,252.866,254.891,259.265,263.639,268.013,269.161,271.492,278.917,281.95,290.743,292.768,297.473,301.395,305.282,309.114,313.919,317.347,321.226,323.251,327.785,330.503,332.528,335.379,340.202,344.081,346.106,348.949,352.342,356.347,361.153,365.032,368.29,372.824,377.927,379.952,384.658,388.537,391.362,397.507,401.429,405.308,410.285,412.31,418.349,423.992,427.115,429.14,433.989,438.524,440.99,445.796,448.595,451.952,453.977,457.899,462.839,467.645,469.67,472.521,477.343,481.222,483.247,487.126,494.362,498.248,502.253,506.257,510.442,512.467,517.002,519.72,521.745,524.596,529.419,533.298,535.323,540.398,546.174,552.663,554.715" svgx:width="0.31,0.53,0.43,0.23,0.43,0.8,0.42,0.44,0.42,0.46,0.23,0.69,0.44,0.37,0.23,0.25,0.51,0.69,0.43,0.37,0.23,0.31,0.53,0.44,0.55,0.23,0.48,0.48,0.48,0.23,0.25,0.82,0.33,0.97,0.23,0.51,0.43,0.42,0.44,0.53,0.37,0.43,0.23,0.51,0.3,0.23,0.31,0.53,0.43,0.23,0.31,0.37,0.44,0.53,0.43,0.36,0.51,0.56,0.23,0.51,0.43,0.31,0.69,0.43,0.43,0.55,0.23,0.67,0.62,0.34,0.23,0.52,0.51,0.27,0.55,0.31,0.37,0.23,0.44,0.55,0.53,0.23,0.31,0.53,0.43,0.23,0.43,0.8,0.42,0.44,0.42,0.46,0.23,0.51,0.3,0.23,0.31,0.53,0.43,0.23,0.56,0.67,0.71,0.23,0.23" style="fill:rgb(0,0,0);font-family:MinionPro-Regular;font-size:9.0px;stroke:none;">the efficacy was lower than 100 lm/W because of the trade-off between CRI points and the efficacy of the PKG. </text>
  </g>
  <rect style="stroke:blue;stroke-width:0.3;" x="155.638" y="64.138" height="373.68" width="396.0" title="3"/>
  <text y="64.138" class="image" id="image.3.1" width="396" height="373" x="155.638">image.3.1.156_552.64_438</text>
  <rect style="stroke:blue;stroke-width:0.3;" x="155.638" y="64.138" height="373.68" width="396.0" title="3"/>
  <text y="64.138" class="image" id="image.3.2" width="396" height="373" x="155.638">image.3.2.156_552.64_438</text>
  <path style="fill:none;stroke:rgb(206,221,228);stroke-width:0.3;" d="M159.13 448.72 L552.64 448.72 "/>
  <path style="fill:none;stroke:rgb(206,221,228);stroke-width:1.0;" d="M156.14 448.72 L156.14 448.72 M554.14 448.72 L554.14 448.72 "/>
  <g begin="text">
   <text y="438.723" x="155.638,160.552,163.207,167.662,172.657,176.221,180.154,181.909,186.409" svgx:width="0.55,0.29,0.49,0.56,0.4,0.44,0.22,0.5,0.25" style="fill:rgb(0,0,0);font-family:MinionPro-Bold;font-size:9.0px;stroke:none;">Figure 2.</text>
   <text y="438.723" x="188.695,190.765,193.195" svgx:width="0.23,0.55,0.35" style="fill:rgb(0,0,0);font-family:MinionPro-Regular;font-size:9.0px;stroke:none;"> (</text>
   <text y="438.723" x="196.309,200.503,202.789,206.658,208.944" svgx:width="0.47,0.25,0.42,0.25,0.44" style="fill:rgb(0,0,0);font-family:MinionPro-Bold;font-size:9.0px;stroke:none;">a,c,e</text>
   <text y="438.723" x="212.877,215.991,217.827,222.939,227.781,229.617,233.442,240.813,243.198,246.455,249.758,252.17,256.652,261.575,263.411,266.669,271.466,275.335,279.205,281.995,285.334,289.285,291.121,294.991,299.878,304.63,306.466" svgx:width="0.35,0.23,0.57,0.54,0.23,0.43,0.82,0.27,0.37,0.37,0.27,0.51,0.55,0.23,0.37,0.52,0.43,0.42,0.31,0.37,0.44,0.23,0.44,0.55,0.53,0.23,0.35" style="fill:rgb(0,0,0);font-family:MinionPro-Regular;font-size:9.0px;stroke:none;">) EL emission spectra and (</text>
   <text y="438.723" x="309.58,314.179,316.465,321.361,323.647" svgx:width="0.53,0.25,0.55,0.25,0.33" style="fill:rgb(0,0,0);font-family:MinionPro-Bold;font-size:9.0px;stroke:none;">b,d,f</text>
   <text y="438.723" x="326.626,329.74,331.576,334.374,339.144,342.969,344.805,350.79,356.379,359.448,361.284,366.08,370.562,372.974,377.726,380.471,383.774,385.61,390.092,392.756,394.592,397.391,402.161,405.986,407.822,412.142,417.434,420.638,425.3,427.352,429.188,433.508,438.8,442.004,448.439,454.154,456.206,458.042,461.912,466.799,471.551,473.387,477.707,482.999,486.203,491.495,497.201,502.79,504.626,509.468,514.58,521.141,524.444" svgx:width="0.35,0.23,0.31,0.53,0.43,0.23,0.67,0.62,0.34,0.23,0.52,0.51,0.27,0.55,0.31,0.37,0.23,0.51,0.3,0.23,0.31,0.53,0.43,0.23,0.48,0.59,0.36,0.63,0.23,0.23,0.48,0.59,0.36,0.71,0.62,0.23,0.23,0.44,0.55,0.53,0.23,0.48,0.59,0.36,0.59,0.63,0.62,0.23,0.54,0.57,0.74,0.37,0.23" style="fill:rgb(0,0,0);font-family:MinionPro-Regular;font-size:9.0px;stroke:none;">) the CRI points of the 1B-Y, 1B-GR, and 1B-BYR LEDs.</text>
  </g>
 </g>
</svg>
