<?xml version="1.0" encoding="UTF-8"?>
<svg height="778.842" width="4409.4130000000005" xmlns="http://www.w3.org/2000/svg">
 <g id="page" xmlns:svgx="http://www.xml-cml.org/schema/svgx">
  <g begin="text">
   <text y="62.979" x="76.288,81.158,84.696,86.912,90.897,97.098,100.198,103.299" svgx:width="0.61,0.44,0.28,0.5,0.78,0.39,0.39,0.39" style="fill:rgb(0,0,0);font-family:URWPalladioL-Ital;font-size:7.97px;stroke:none;">Polymers</text>
   <text y="62.979" x="108.391,112.376,116.361,120.346" svgx:width="0.5,0.5,0.5,0.5" style="fill:rgb(0,0,0);font-family:URWPalladioL-Bold;font-size:7.97px;stroke:none;">2019</text>
   <text y="62.979" x="124.332" svgx:width="0.25" style="fill:rgb(0,0,0);font-family:URWPalladioL-Roma;font-size:7.97px;stroke:none;">,</text>
   <text y="62.979" x="128.317,132.302" svgx:width="0.5,0.5" style="fill:rgb(0,0,0);font-family:URWPalladioL-Ital;font-size:7.97px;stroke:none;">11</text>
   <text y="62.979" x="136.287,138.2795,140.272,144.257,148.242,152.227,156.21200000000002,491.809,495.794,499.779,501.772,506.123,508.7531,510.77,514.755" svgx:width="0.25,0.55,0.5,0.5,0.5,0.5,0.55,0.5,0.5,0.55,0.55,0.33,0.55,0.5,0.5" style="fill:rgb(0,0,0);font-family:URWPalladioL-Roma;font-size:7.97px;stroke:none;">, 1081 11 of 15</text>
   <text y="97.848" x="76.535,79.478,82.774,86.9572,89.559,94.615,97.983,104.161,107.104,116.033,120.876,126.762,131.049,133.992,139.513,145.398,150.454,153.3424,155.894,161.608,164.55,169.394,177.6608,180.325,183.622,189.507,194.563,197.8498,200.357,203.653,209.539,214.3198,216.89,222.9656,225.566,231.745,237.266,246.195,251.251,254.193,260.079,264.2622,266.864,270.231,275.752,279.747,288.5118,291.173,296.153,298.727,304.319,307.261,311.751,317.272,323.158,326.454,329.397,335.282,341.379,346.901,352.998,357.1812,359.783,365.669,370.512,373.809,382.242,387.763,391.758,397.3356,399.878,408.311,411.254,414.55,420.3268,422.933,426.23,432.115,436.8958,439.456,447.89,453.775,459.296,462.239,465.181,470.7586,473.311,477.801,483.322,489.207,495.092,499.936,504.426,507.722,512.566" svgx:width="0.29,0.33,0.42,0.55,0.5,0.33,0.61,0.29,0.88,0.48,0.58,0.42,0.29,0.55,0.58,0.5,0.29,0.55,0.56,0.29,0.48,0.83,0.55,0.33,0.58,0.5,0.33,0.55,0.33,0.58,0.48,0.55,0.61,0.55,0.61,0.55,0.88,0.5,0.29,0.58,0.42,0.55,0.33,0.55,0.4,0.88,0.55,0.5,0.55,0.55,0.29,0.44,0.55,0.58,0.33,0.29,0.58,0.6,0.55,0.6,0.42,0.55,0.58,0.48,0.33,0.83,0.55,0.4,0.56,0.55,0.83,0.29,0.33,0.58,0.55,0.33,0.58,0.48,0.55,0.83,0.58,0.55,0.29,0.29,0.56,0.55,0.44,0.55,0.58,0.58,0.48,0.44,0.33,0.48,0.61" style="fill:rgb(0,0,0);font-family:URWPalladioL-Roma;font-size:9.96px;stroke:none;">its 3-dimensional view that the B domains form a bicontinuous network with the wholly connected</text>
   <text y="111.358" x="76.535,81.047,86.961,92.042,97.956,103.87,108.738,111.695,115.87819999999999,119.001,124.55,130.291,135.159,139.143,142.17,145.483,151.397,156.1778,159.263,164.13,170.044,173.357,176.314,180.145,184.9258,188.01,192.319,197.969,202.278,205.59,210.458,219.2228,222.429,225.741,231.21900000000002,234.288,243.26,248.341,253.991,258.77180000000004,261.857,270.83,275.911,281.825,287.4026,290.472,296.387,301.935,304.892,309.76,314.068,316.558,321.618,327.848,333.762,338.5428,341.627,347.541,352.409,360.6758,363.882,372.854,378.403,382.417,388.524,394.438,399.987,402.944,408.492,414.142,419.7196,422.79,425.747,429.9302,433.053,437.565,443.114,449.028,453.336,456.293,462.502,467.37,471.201,476.068,482.1436,485.275,488.588,494.06600000000003,497.134,503.048,508.129,513.87" svgx:width="0.44,0.58,0.5,0.58,0.58,0.48,0.29,0.42,0.55,0.55,0.56,0.48,0.4,0.55,0.33,0.58,0.48,0.55,0.48,0.58,0.33,0.29,0.4,0.48,0.55,0.42,0.56,0.42,0.33,0.48,0.88,0.55,0.33,0.55,0.55,0.88,0.5,0.56,0.48,0.55,0.88,0.5,0.58,0.56,0.55,0.58,0.55,0.29,0.48,0.42,0.25,0.55,0.61,0.58,0.48,0.55,0.58,0.48,0.83,0.55,0.88,0.55,0.4,0.6,0.58,0.55,0.29,0.55,0.56,0.56,0.55,0.29,0.42,0.55,0.44,0.55,0.58,0.42,0.29,0.61,0.48,0.4,0.48,0.61,0.55,0.33,0.55,0.55,0.58,0.5,0.56,0.48" style="fill:rgb(0,0,0);font-family:URWPalladioL-Roma;font-size:9.96px;stroke:none;">channels over the entire system to make many holes. The new morphology is considered to have</text>
   <text y="124.867" x="76.535,82.414,87.892,90.415,99.335,102.275,106.265,110.084,115.6,119.58399999999999,122.075,128.146,131.086,136.137,142.017,146.856,151.0392,153.634,158.685,161.625,167.141,173.02,178.5976,181.122,186.173,192.052,197.62959999999998,200.154,205.205,210.418,215.257,219.54,222.03,225.561,231.743,237.623,240.562,244.7452,247.341,253.22,258.736,262.029,264.969,270.485,276.2618,278.849,282.759,288.85,291.79,296.629,300.8122,303.407,308.923,315.015,318.3018,320.793,326.895,335.815,340.866,343.356,345.887,351.988,357.039,362.09,371.01,373.5,376.021,381.072,386.952,393.0276,395.619,401.721,410.641,415.692,424.4568,427.097,431.38,436.997,445.917,454.837,459.676,462.97,466.96,471.476,473.966,476.486,481.537,487.417,493.4926,496.074,499.367,505.247,510.086,513.904" svgx:width="0.58,0.55,0.55,0.88,0.29,0.4,0.4,0.55,0.4,0.55,0.6,0.29,0.5,0.58,0.48,0.42,0.55,0.5,0.29,0.55,0.58,0.56,0.55,0.5,0.58,0.56,0.55,0.5,0.52,0.48,0.42,0.25,0.55,0.61,0.58,0.29,0.42,0.55,0.58,0.55,0.33,0.29,0.55,0.58,0.55,0.4,0.6,0.29,0.48,0.42,0.55,0.55,0.6,0.33,0.55,0.6,0.88,0.5,0.25,0.55,0.6,0.5,0.5,0.88,0.25,0.55,0.5,0.58,0.61,0.55,0.6,0.88,0.5,0.88,0.55,0.42,0.56,0.88,0.88,0.48,0.33,0.4,0.56,0.25,0.55,0.5,0.58,0.61,0.55,0.33,0.58,0.48,0.4,0.48" style="fill:rgb(0,0,0);font-family:URWPalladioL-Roma;font-size:9.96px;stroke:none;">no mirror planes along any axes. This notion rules out Pm3, P43m, and Pm3m symmetry, and there</text>
   <text y="138.377" x="76.535,80.306,85.097,93.929,98.93,101.841,107.61779999999999,110.143,116.185,121.186,126.16600000000001,128.678,133.679,139.5,145.5756,148.093,154.134,159.135,164.136,169.138,171.62800000000001,175.119,178.49,181.7768,184.231,187.142,191.3252,193.874,197.135,202.956,207.747,213.52380000000002,216.049,221.871,226.872,230.133,236.164,240.115,245.116,248.0044,250.508,253.838,259.3,263.284,265.731,271.763,275.9462,278.494,281.755,287.233,289.697,294.698,298.939,303.18,306.091,311.653,317.4298,319.955,325.996,330.997,335.998,340.978,343.48,347.721,353.283,362.115,370.947,375.738,378.999,382.95,388.5276,391.002,394.263,399.741,402.205,405.465,411.287,414.198,418.3812,420.919,426.741,431.532,439.79879999999997,442.354,451.187,455.978,460.219,465.68,471.692,477.513,482.514,486.755,491.546,494.036,496.538,500.779,503.689,509.511,513.952" svgx:width="0.4,0.48,0.88,0.5,0.29,0.58,0.55,0.6,0.5,0.5,0.55,0.5,0.58,0.61,0.55,0.6,0.5,0.5,0.5,0.25,0.55,0.34,0.33,0.55,0.29,0.42,0.55,0.33,0.58,0.48,0.58,0.55,0.58,0.5,0.33,0.6,0.4,0.5,0.29,0.55,0.33,0.55,0.4,0.55,0.6,0.42,0.55,0.33,0.55,0.55,0.5,0.42,0.42,0.29,0.56,0.58,0.55,0.6,0.5,0.5,0.5,0.55,0.42,0.56,0.88,0.88,0.48,0.33,0.4,0.56,0.55,0.33,0.55,0.55,0.33,0.58,0.29,0.42,0.55,0.58,0.48,0.83,0.55,0.88,0.48,0.42,0.55,0.6,0.58,0.5,0.42,0.48,0.25,0.55,0.42,0.29,0.58,0.44,0.48" style="fill:rgb(0,0,0);font-family:URWPalladioL-Roma;font-size:9.96px;stroke:none;">remain P23 and P432. It is then natural for us to assign P432 symmetry to this new mesophase, since</text>
   <text y="151.886" x="76.535,82.613,87.644,92.675,97.655,100.191,103.119,107.3022,109.881,114.861,117.398,121.664,127.732,133.779,138.599,142.392,147.987,151.79,157.284,163.352,169.328,171.885,177.379,180.6658,183.215,189.292,194.323,199.355,201.845,205.362,210.956,217.024,220.998,224.279,230.135,234.955,238.929,247.814,253.308,257.102,261.921,264.411,266.932,269.861,273.1478,275.626,278.554,282.7372,285.306,291.162,296.656,299.937,304.756,310.8316,313.4,316.68,322.536,327.567,330.85380000000004,333.333,336.613,342.469,347.2498,349.785,354.051,357.331,361.225,367.293,371.761,375.041,381.108,385.083,390.114,393.00239999999997,395.528,401.595,407.451,410.379,413.66580000000005,416.145,419.073,423.2562,425.835,430.815,433.351,436.632,440.606,443.534,449.582,455.076,461.224,463.714,466.235,471.266,475.4492,478.018,480.946,485.1292,487.708,491.974,496.794,501.614,507.39079999999996,509.955,512.883" svgx:width="0.6,0.5,0.5,0.5,0.55,0.29,0.42,0.55,0.5,0.55,0.42,0.6,0.6,0.48,0.4,0.56,0.4,0.55,0.6,0.6,0.55,0.55,0.33,0.55,0.6,0.5,0.5,0.25,0.55,0.56,0.6,0.4,0.33,0.58,0.48,0.4,0.88,0.55,0.4,0.48,0.25,0.55,0.29,0.33,0.55,0.29,0.42,0.55,0.58,0.55,0.33,0.48,0.61,0.55,0.33,0.58,0.5,0.33,0.55,0.33,0.58,0.48,0.55,0.42,0.33,0.4,0.6,0.44,0.33,0.6,0.4,0.5,0.29,0.55,0.6,0.58,0.29,0.33,0.55,0.29,0.42,0.55,0.5,0.55,0.33,0.4,0.29,0.6,0.55,0.61,0.25,0.55,0.5,0.42,0.55,0.29,0.42,0.55,0.42,0.48,0.48,0.58,0.55,0.29,0.58" style="fill:rgb(0,0,0);font-family:URWPalladioL-Roma;font-size:9.96px;stroke:none;">P432 is a supergroup of P23. Furthermore, it is noted that the structural unit is a tripod, as is seen in</text>
   <text y="165.395" x="76.535,79.783,85.581,90.3618,92.844,98.283,104.082,108.854,112.171,116.943,119.842,125.382,131.18,134.428,140.2048,142.717,148.704,151.603,156.375,160.799,165.5798,168.061,173.501,176.7878,179.309,182.557,188.355,193.1358,195.618,201.625,207.424,210.323,213.6098,216.061,220.485,225.257,228.156,231.0444,233.546,236.445,242.2218,244.734,250.273,253.172,258.711,264.719,268.474" svgx:width="0.33,0.58,0.48,0.55,0.55,0.58,0.48,0.33,0.48,0.29,0.56,0.58,0.33,0.58,0.55,0.6,0.29,0.48,0.44,0.48,0.55,0.55,0.33,0.55,0.33,0.58,0.48,0.55,0.6,0.58,0.29,0.33,0.55,0.44,0.48,0.29,0.29,0.55,0.29,0.58,0.55,0.56,0.29,0.56,0.6,0.4,0.48" style="fill:rgb(0,0,0);font-family:URWPalladioL-Roma;font-size:9.96px;stroke:none;">the one-eighth piece of the unit cell in Figure</text>
   <text y="165.395" x="275.737" svgx:width="0.5" style="fill:rgb(8,117,183);font-family:URWPalladioL-Roma;font-size:9.96px;stroke:none;">9</text>
   <text y="165.395" x="280.718,286.228" svgx:width="0.55,0.25" style="fill:rgb(0,0,0);font-family:URWPalladioL-Roma;font-size:9.96px;stroke:none;">b.</text>
  </g>
  <g begin="text">
   <text y="70.686" x="101.171,105.568,108.765,110.771,114.371,119.934,122.736,125.539,128.342" svgx:width="0.61,0.44,0.28,0.5,0.78,0.39,0.39,0.39,0.25" style="fill:rgb(0,0,0);font-family:PalatinoLinotype,Italic;font-size:7.18px;stroke:none;">Polymers </text>
   <text y="70.686" x="130.115,133.733,137.352,140.97" svgx:width="0.5,0.5,0.5,0.5" style="fill:rgb(0,0,0);font-family:PalatinoLinotype,Bold;font-size:7.18px;stroke:none;">2019</text>
   <text y="70.686" x="144.587,146.369" svgx:width="0.25,0.25" style="fill:rgb(0,0,0);font-family:PalatinoLinotype;font-size:7.18px;stroke:none;">, </text>
   <text y="70.686" x="148.151,151.769" svgx:width="0.5,0.5" style="fill:rgb(0,0,0);font-family:PalatinoLinotype,Italic;font-size:7.18px;stroke:none;">11</text>
   <text y="70.686" x="155.387,157.188,158.97,162.681,164.462,168.46,174.11,178.912,180.747,185.09,189.483,193.876,198.678,200.46,205.262,209.654,214.844,217.27,221.663,228.899,230.694,471.988,475.605,479.222,481.017,482.408,486.355,488.731,490.526,491.917,495.534,499.151" svgx:width="0.25,0.25,0.52,0.25,0.56,0.79,0.67,0.25,0.6,0.61,0.61,0.67,0.25,0.67,0.61,0.72,0.34,0.61,1.0,0.25,0.55,0.5,0.5,0.25,0.55,0.55,0.33,0.25,0.55,0.5,0.5,0.25" style="fill:rgb(0,0,0);font-family:PalatinoLinotype;font-size:7.18px;stroke:none;">, x FOR PEER REVIEW 11 of 15 </text>
   <text y="734.94" x="101.171" svgx:width="0.25" style="fill:rgb(0,0,0);font-family:TimesNewRoman;font-size:8.1px;stroke:none;"> </text>
   <text y="93.096" x="120.287,127.305,131.132,133.759,138.943,143.959,146.227,154.707,159.243,162.157,164.749,169.261,174.25,176.518,181.03,186.281,191.793,194.007,202.539,206.862,210.688,215.615,221.07,226.037,231.288,233.546,235.814,243.337,247.659,249.927,255.349,258.914,263.841,268.938,271.566,277.022,281.287,283.555,286.47,291.707,296.029,298.297,303.395,306.023,309.849,315.249,319.731,322.377,324.968,329.504,333.986,336.901,339.528,344.455,349.706,351.974,356.9,359.906,362.174,365.089,370.326,374.649,376.863,381.374,384.344,389.857,392.484,400.449,404.771,410.022,413.804,416.431,421.358,426.608,431.09,433.718,435.932,443.896,448.823,452.388,457.81,463.061,467.987,470.615,475.541,480.558,485.574,487.788,490.759,495.673,499.238" svgx:width="0.78,0.42,0.29,0.58,0.56,0.25,0.95,0.5,0.33,0.29,0.5,0.55,0.25,0.5,0.58,0.61,0.25,0.95,0.48,0.42,0.55,0.61,0.56,0.58,0.25,0.25,0.83,0.48,0.25,0.6,0.4,0.55,0.56,0.29,0.61,0.48,0.25,0.33,0.58,0.48,0.25,0.56,0.29,0.42,0.6,0.5,0.29,0.29,0.5,0.5,0.33,0.29,0.55,0.58,0.25,0.55,0.33,0.25,0.33,0.58,0.48,0.25,0.5,0.33,0.61,0.29,0.88,0.48,0.58,0.42,0.29,0.55,0.58,0.5,0.29,0.25,0.88,0.55,0.4,0.6,0.58,0.55,0.29,0.55,0.56,0.56,0.25,0.33,0.55,0.4,0.25" style="fill:rgb(0,0,0);font-family:PalatinoLinotype;font-size:9.02px;stroke:none;">Using Matlab and Mesodyn, we provide the visualization of the 3-dimensional morphology for </text>
   <text y="105.246" x="101.171,104.104,109.344,113.656,116.247,120.243,125.159,130.57,135.486,138.103,143.108,151.062,155.327,158.882,161.473,169.427,173.738,176.355,179.288,181.535,184.126,189.132,191.749,196.755,202.184,205.738,210.004,212.596,217.097,221.598,224.189,229.6,234.516,238.07,241.003,244.513,249.049,254.055,257.871,260.462,264.963,270.203,275.119,278.051,283.291,287.603,291.157,293.749,298.989,303.3,310.812,313.35,321.303,326.219,329.773,335.184,340.424,345.34,347.957,352.872,357.878,362.884,365.421,368.417,373.332,376.887,379.479,382.411,387.651,391.963,394.554,398.55,403.466,408.877,413.793,416.41,421.377,429.33,433.642,437.196,439.443,442.035,445.066,447.999,450.59,453.207,457.023,459.561,463.376,467.688,471.954,477.191,479.783,482.778,486.333,491.248,499.134" svgx:width="0.33,0.58,0.48,0.25,0.44,0.55,0.6,0.55,0.29,0.56,0.88,0.48,0.4,0.25,0.88,0.48,0.29,0.33,0.25,0.25,0.56,0.29,0.56,0.6,0.4,0.48,0.25,0.5,0.5,0.25,0.6,0.55,0.4,0.33,0.4,0.5,0.56,0.42,0.25,0.5,0.58,0.55,0.33,0.58,0.48,0.4,0.25,0.58,0.48,0.83,0.25,0.88,0.55,0.4,0.6,0.58,0.55,0.29,0.55,0.56,0.56,0.25,0.33,0.55,0.4,0.25,0.33,0.58,0.48,0.25,0.44,0.55,0.6,0.55,0.29,0.56,0.88,0.48,0.4,0.25,0.25,0.34,0.33,0.25,0.29,0.42,0.25,0.42,0.48,0.48,0.58,0.25,0.33,0.4,0.55,0.88,0.25" style="fill:rgb(0,0,0);font-family:PalatinoLinotype;font-size:9.02px;stroke:none;">the copolymer melt. Figure 9a portrays another new morphology for the copolymer. It is seen from </text>
   <text y="117.342" x="101.171,103.795,106.733,110.555,113.093,117.6,120.602,126.11,128.733,136.693,141.011,146.194,150.03,152.653,157.575,162.821,167.328,169.951,172.489,177.512,180.157,184.475,191.993,194.531,197.47,202.716,207.223,210.162,212.699,215.638,220.885,225.202,227.74,233.248,235.785,241.293,246.215,254.175,258.682,261.305,266.551,270.374,272.911,275.913,280.835,284.396,292.355,294.84,299.347,301.781,306.761,309.38,313.324,318.238,323.48,326.414,329.033,334.275,339.706,344.623,350.055,353.872,356.41,361.652,365.965,368.899,376.413,381.33,384.886,389.894,392.431,399.945,402.563,405.498,410.74,413.277,416.211,421.453,425.767,428.304,435.818,441.059,445.977,448.595,451.214,456.222,458.759,462.703,467.564,472.805,478.047,482.361,486.359,489.293,493.606,499.17" svgx:width="0.29,0.33,0.42,0.25,0.5,0.33,0.61,0.29,0.88,0.48,0.58,0.42,0.29,0.55,0.58,0.5,0.29,0.25,0.56,0.29,0.48,0.83,0.25,0.33,0.58,0.5,0.33,0.25,0.33,0.58,0.48,0.25,0.61,0.25,0.61,0.55,0.88,0.5,0.29,0.58,0.42,0.25,0.33,0.55,0.4,0.88,0.25,0.5,0.25,0.55,0.29,0.44,0.55,0.58,0.33,0.29,0.58,0.6,0.55,0.6,0.42,0.25,0.58,0.48,0.33,0.83,0.55,0.4,0.56,0.25,0.83,0.29,0.33,0.58,0.25,0.33,0.58,0.48,0.25,0.83,0.58,0.55,0.29,0.29,0.56,0.25,0.44,0.55,0.58,0.58,0.48,0.44,0.33,0.48,0.61,0.25" style="fill:rgb(0,0,0);font-family:PalatinoLinotype;font-size:9.02px;stroke:none;">its 3-dimensional view that the B domains form a bicontinuous network with the wholly connected </text>
   <text y="129.492" x="101.171,105.167,110.406,114.906,120.145,125.384,129.695,132.311,136.126,138.502,143.417,148.502,152.768,156.278,158.654,161.586,166.825,171.136,173.512,177.823,183.062,185.993,188.609,192.163,196.474,198.796,202.611,207.615,211.43,214.362,218.672,226.625,228.989,231.918,236.83,239.206,247.156,251.653,256.655,260.963,263.286,271.235,275.733,280.969,285.971,288.347,293.584,298.444,301.058,305.366,309.178,311.422,313.744,319.26,324.496,328.804,331.18,336.417,340.725,348.233,350.609,358.559,363.419,366.97,372.413,377.658,382.578,385.199,390.119,395.129,400.096,402.472,405.094,408.914,411.29,415.291,420.151,425.396,429.216,431.838,437.344,441.66,445.17,449.486,454.992,457.368,460.305,465.166,467.542,472.725,477.261,482.353,486.669,489.045,494.289,499.15" svgx:width="0.44,0.58,0.5,0.58,0.58,0.48,0.29,0.42,0.25,0.55,0.56,0.48,0.4,0.25,0.33,0.58,0.48,0.25,0.48,0.58,0.33,0.29,0.4,0.48,0.25,0.42,0.56,0.42,0.33,0.48,0.88,0.25,0.33,0.55,0.25,0.88,0.5,0.56,0.48,0.25,0.88,0.5,0.58,0.56,0.25,0.58,0.55,0.29,0.48,0.42,0.25,0.25,0.61,0.58,0.48,0.25,0.58,0.48,0.83,0.25,0.88,0.55,0.4,0.6,0.58,0.55,0.29,0.55,0.56,0.56,0.25,0.29,0.42,0.25,0.44,0.55,0.58,0.42,0.29,0.61,0.48,0.4,0.48,0.61,0.25,0.33,0.55,0.25,0.58,0.5,0.56,0.48,0.25,0.58,0.55,0.25" style="fill:rgb(0,0,0);font-family:PalatinoLinotype;font-size:9.02px;stroke:none;">channels over the entire system to make many holes. The new morphology is considered to have no </text>
   <text y="141.642" x="101.172,109.112,111.758,115.328,118.897,123.828,127.398,129.653,130.692,136.037,138.683,143.199,148.455,152.72,156.556,158.811,159.85,164.332,166.978,171.908,177.164,182.185,184.44,185.425,189.941,195.196,200.163,202.418,203.457,207.939,212.582,216.909,220.74,223.003,225.25799999999998,226.297,231.832,237.015,239.647,243.478,245.733,246.772,252.027,256.958,259.873,262.464,267.395,272.651,274.906,275.945,279.514,284.959,287.551,291.87,295.701,297.956,298.995,303.856,309.309,312.224,314.479,315.464,320.917,328.857,333.373,335.587,337.842,338.881,344.281,348.797,353.313,361.253,363.467,365.722,366.707,371.223,376.479,381.995,384.25,385.289,390.743,398.629,403.145,411.085,413.34,414.325,418.106,423.126,431.066,439.006,443.326,446.24,449.804,454.825,457.087,459.342,460.327,464.843,470.026,475.543,477.798,478.837,481.752,486.989,491.316,494.885,499.212" svgx:width="0.88,0.29,0.4,0.4,0.55,0.4,0.25,0.55,0.6,0.29,0.5,0.58,0.48,0.42,0.25,0.55,0.5,0.29,0.55,0.58,0.56,0.25,0.55,0.5,0.58,0.56,0.25,0.55,0.5,0.52,0.48,0.42,0.25,0.25,0.55,0.61,0.58,0.29,0.42,0.25,0.55,0.58,0.55,0.33,0.29,0.55,0.58,0.25,0.55,0.4,0.6,0.29,0.48,0.42,0.25,0.55,0.55,0.6,0.33,0.25,0.55,0.6,0.88,0.5,0.25,0.25,0.55,0.6,0.5,0.5,0.88,0.25,0.25,0.55,0.5,0.58,0.61,0.25,0.55,0.6,0.88,0.5,0.88,0.25,0.55,0.42,0.56,0.88,0.88,0.48,0.33,0.4,0.56,0.25,0.25,0.55,0.5,0.58,0.61,0.25,0.55,0.33,0.58,0.48,0.4,0.48,0.25" style="fill:rgb(0,0,0);font-family:PalatinoLinotype;font-size:9.02px;stroke:none;">mirror planes along any axes. This notion rules out Pm3, P43m, and Pm3m symmetry, and there </text>
   <text y="153.792" x="101.172,104.727,109.038,116.992,121.493,124.11,129.293,131.615,137.015,141.515,146.016,148.338,152.839,158.079,163.581,165.903,171.303,175.785,180.285,184.786,187.034,189.356,192.387,195.248,197.57,200.187,204.002,206.27,209.203,214.443,218.754,223.995,226.317,231.557,236.058,238.99,244.419,247.974,252.475,255.091,257.359,260.355,265.271,268.825,271.147,276.576,280.392,282.714,285.647,290.495,292.763,297.3,301.135,304.937,307.583,312.575,317.802,320.124,325.549,330.085,334.572,339.06,341.382,345.184,350.176,358.116,366.056,370.354,373.273,376.814,381.806,384.128,387.047,391.949,394.271,397.19,402.416,405.062,408.844,411.166,416.392,420.69,428.189,430.511,438.451,442.749,446.551,451.453,456.851,462.077,466.613,470.449,474.747,476.981,479.303,483.105,485.751,490.978,494.96,499.173" svgx:width="0.4,0.48,0.88,0.5,0.29,0.58,0.25,0.6,0.5,0.5,0.25,0.5,0.58,0.61,0.25,0.6,0.5,0.5,0.5,0.25,0.25,0.34,0.33,0.25,0.29,0.42,0.25,0.33,0.58,0.48,0.58,0.25,0.58,0.5,0.33,0.6,0.4,0.5,0.29,0.25,0.33,0.55,0.4,0.25,0.6,0.42,0.25,0.33,0.55,0.25,0.5,0.42,0.42,0.29,0.56,0.58,0.25,0.6,0.5,0.5,0.5,0.25,0.42,0.56,0.88,0.88,0.48,0.33,0.4,0.56,0.25,0.33,0.55,0.25,0.33,0.58,0.29,0.42,0.25,0.58,0.48,0.83,0.25,0.88,0.48,0.42,0.55,0.6,0.58,0.5,0.42,0.48,0.25,0.25,0.42,0.29,0.58,0.44,0.48,0.25" style="fill:rgb(0,0,0);font-family:PalatinoLinotype;font-size:9.02px;stroke:none;">remain P23 and P432. It is then natural for us to assign P432 symmetry to this new mesophase, since </text>
   <text y="165.942" x="101.172,106.621,111.131,115.642,120.153,122.529,125.156,128.982,131.358,135.869,138.191,142.017,147.456,152.801,157.121,160.685,165.701,169.265,174.191,179.63,185.051,187.428,192.288,195.312,197.689,203.088,207.57,212.081,214.338,216.714,221.681,227.135,230.699,233.642,238.892,243.213,246.777,254.694,259.554,263.118,267.448,269.715,272.091,274.727,277.641,279.963,282.599,286.434,288.81,294.069,299.003,301.918,306.248,311.769,314.091,317.005,322.242,326.762,329.677,332.053,334.967,340.204,344.535,346.911,350.746,353.66,357.234,362.682,366.625,369.539,374.987,378.561,383.081,385.672,388.048,393.497,398.68,401.316,404.23,406.606,409.242,413.024,415.4,419.882,422.258,425.172,428.736,431.372,436.802,441.736,447.257,449.523,451.845,456.365,460.2,462.522,465.158,468.992,471.314,475.096,479.427,483.757,489.016,491.392,494.028,499.211" svgx:width="0.6,0.5,0.5,0.5,0.25,0.29,0.42,0.25,0.5,0.25,0.42,0.6,0.6,0.48,0.4,0.56,0.4,0.55,0.6,0.6,0.25,0.55,0.33,0.25,0.6,0.5,0.5,0.25,0.25,0.56,0.6,0.4,0.33,0.58,0.48,0.4,0.88,0.55,0.4,0.48,0.25,0.25,0.29,0.33,0.25,0.29,0.42,0.25,0.58,0.55,0.33,0.48,0.61,0.25,0.33,0.58,0.5,0.33,0.25,0.33,0.58,0.48,0.25,0.42,0.33,0.4,0.6,0.44,0.33,0.6,0.4,0.5,0.29,0.25,0.6,0.58,0.29,0.33,0.25,0.29,0.42,0.25,0.5,0.25,0.33,0.4,0.29,0.6,0.55,0.61,0.25,0.25,0.5,0.42,0.25,0.29,0.42,0.25,0.42,0.48,0.48,0.58,0.25,0.29,0.58,0.25" style="fill:rgb(0,0,0);font-family:PalatinoLinotype;font-size:9.02px;stroke:none;">P432 is a supergroup of P23. Furthermore, it is noted that the structural unit is a tripod, as is seen in </text>
   <text y="178.092" x="101.172,104.109,109.354,113.67,115.938,120.858,126.103,130.419,133.419,137.684,140.33,145.34,150.585,153.522,158.766,161.034,166.45,169.072,173.388,177.388,181.704,183.972,188.833,191.857,194.125,197.062,202.307,206.572,208.84,214.274,219.519,222.14,225.077,227.345,231.289,235.609,238.23,240.851,243.119,245.741,250.924,253.192,258.202,260.824,265.834,271.268,274.827,279.143,281.357,285.862,290.845,293.097,295.352,297.093" svgx:width="0.33,0.58,0.48,0.25,0.55,0.58,0.48,0.33,0.48,0.29,0.56,0.58,0.33,0.58,0.25,0.6,0.29,0.48,0.44,0.48,0.25,0.55,0.33,0.25,0.33,0.58,0.48,0.25,0.6,0.58,0.29,0.33,0.25,0.44,0.48,0.29,0.29,0.25,0.29,0.58,0.25,0.56,0.29,0.56,0.6,0.4,0.48,0.25,0.5,0.55,0.25,0.25,0.55,0.25" style="fill:rgb(0,0,0);font-family:PalatinoLinotype;font-size:9.02px;stroke:none;">the one-eighth piece of the unit cell in Figure 9b. </text>
   <text y="286.578" x="207.66,209.915,300.756,303.01099999999997,395.364,397.61899999999997,491.646" svgx:width="0.25,0.55,0.25,0.55,0.25,0.55,0.25" style="fill:rgb(0,0,0);font-family:PalatinoLinotype;font-size:9.02px;stroke:none;"> </text>
   <text y="381.185" x="111.378" svgx:width="0.25" style="fill:rgb(0,0,0);font-family:PalatinoLinotype,Bold;font-size:9.02px;stroke:none;"> </text>
   <text y="381.185" x="208.902" svgx:width="0.25" style="fill:rgb(0,0,0);font-family:PalatinoLinotype;font-size:9.02px;stroke:none;"> </text>
   <text y="401.274" x="120.287,124.808,127.506,132.011,136.96,140.112,144.163,146.107,150.158" svgx:width="0.56,0.33,0.56,0.61,0.39,0.5,0.25,0.5,0.25" style="fill:rgb(0,0,0);font-family:PalatinoLinotype,Bold;font-size:8.1px;stroke:none;">Figure 9.</text>
   <text y="401.274" x="152.201,154.145,159.11,163.824,167.024,170.904,174.784,177.481,182.43,184.788,191.939,195.819,200.533,203.967,206.325,210.747,215.461,219.511,221.869,223.759,230.91,235.332,238.532,243.4,248.114,252.536,254.894,259.316,263.819,268.323,270.267,274.689,277.443,279.387,282.028,286.742,290.622,292.566,297.28,301.16,303.801,310.555,314.977,318.177,322.681,324.625,331.776,335.656,339.09,343.513,348.38,353.094,357.144,360.579,364.459,366.403,370.283,374.859,379.233,381.609,386.146,390.034,394.982,396.926,399.624,402.824,407.246,414.397,416.341,422.083" svgx:width="0.25,0.61,0.58,0.4,0.48,0.48,0.33,0.61,0.29,0.88,0.48,0.58,0.42,0.29,0.55,0.58,0.5,0.29,0.25,0.88,0.55,0.4,0.6,0.58,0.55,0.29,0.55,0.56,0.56,0.25,0.55,0.33,0.25,0.33,0.58,0.48,0.25,0.58,0.48,0.33,0.83,0.55,0.4,0.56,0.25,0.88,0.48,0.42,0.55,0.6,0.58,0.5,0.42,0.48,0.25,0.48,0.56,0.55,0.29,0.56,0.48,0.61,0.25,0.33,0.4,0.55,0.88,0.25,0.71,0.33" style="fill:rgb(0,0,0);font-family:PalatinoLinotype;font-size:8.1px;stroke:none;"> Three-dimensional morphology of the network mesophase evolved from C(</text>
   <text y="401.274" x="424.793" svgx:width="0.55" style="fill:rgb(0,0,0);font-family:Symbol;font-size:8.1px;stroke:none;">±</text>
   <text y="401.274" x="429.221,434.626,437.326,439.27,442.707,447.594,450.796,453.496,457.549,461.147,465.03,466.974,469.334,474.05,475.994,480.047" svgx:width="0.67,0.33,0.25,0.42,0.6,0.4,0.33,0.5,0.44,0.48,0.25,0.29,0.58,0.25,0.5,0.25" style="fill:rgb(0,0,0);font-family:PalatinoLinotype;font-size:8.1px;stroke:none;">Y) surface in a </text>
   <text y="412.183" x="120.287,125.154,129.034,132.234,134.592,139.014,143.963,146.321,149.917,152.401,156.88,161.303,165.482,167.966,172.389,175.035,177.519,181.569,185.619,188.103,192.153,194.637,198.687,202.737,205.221,209.271,211.755,215.805" svgx:width="0.6,0.48,0.4,0.29,0.55,0.61,0.29,0.44,0.25,0.55,0.55,0.52,0.25,0.55,0.33,0.25,0.5,0.5,0.25,0.5,0.25,0.5,0.5,0.25,0.5,0.25,0.5,0.5" style="fill:rgb(0,0,0);font-family:PalatinoLinotype;font-size:8.1px;stroke:none;">periodic box of 10 × 10 × 10</text>
   <text y="409.536" x="227.099" svgx:width="0.5" style="fill:rgb(0,0,0);font-family:TimesNewRoman;font-size:4.95px;stroke:none;">3</text>
   <text y="415.476" x="226.397" svgx:width="0.72" style="fill:rgb(0,0,0);font-family:TimesNewRoman,Italic;font-size:4.95px;stroke:none;">G</text>
   <text y="413.316" x="221.375" svgx:width="0.61" style="fill:rgb(0,0,0);font-family:TimesNewRoman,Italic;font-size:8.49px;stroke:none;">R</text>
   <text y="412.182" x="232.013,234.045,236.529,241.444,246.142,250.028,252.512,257.371,262.069,264.432,267.079,269.563,273.166,277.051,279.415,281.778,284.262,291.419,295.793,298.999,303.872,308.592,313.02,315.383,319.811,324.32,328.829,331.313,333.677,337.117,339.601,344.555,348.389,353.263,355.626,359.228,361.875,365.761,370.715,373.145,375.508,380.228,382.712,387.585,389.949,394.377,397.023,399.508" svgx:width="0.25,0.25,0.61,0.58,0.48,0.25,0.6,0.58,0.29,0.33,0.25,0.44,0.48,0.29,0.29,0.25,0.88,0.55,0.4,0.6,0.58,0.55,0.29,0.55,0.56,0.56,0.25,0.29,0.42,0.25,0.61,0.48,0.6,0.29,0.44,0.33,0.48,0.61,0.25,0.29,0.58,0.25,0.6,0.29,0.55,0.33,0.25,0.33" style="fill:rgb(0,0,0);font-family:PalatinoLinotype;font-size:8.1px;stroke:none;">. The unit cell morphology is depicted in plot (</text>
   <text y="412.182" x="402.168" svgx:width="0.5" style="fill:rgb(0,0,0);font-family:PalatinoLinotype,Bold;font-size:8.1px;stroke:none;">a</text>
   <text y="412.182" x="406.218,408.914,411.398,415.876,420.378,422.862,427.721,431.179,433.535,438.247,442.749,445.233,452.892,456.94,459.58,461.936,465.984,470.462,472.946,475.302,480.014" svgx:width="0.33,0.25,0.55,0.56,0.25,0.6,0.42,0.29,0.58,0.56,0.25,0.95,0.5,0.33,0.29,0.5,0.55,0.25,0.29,0.58,0.25" style="fill:rgb(0,0,0);font-family:PalatinoLinotype;font-size:8.1px;stroke:none;">) by using Matlab in </text>
   <text y="426.87" x="120.287,122.986,127.409,132.294,135.495,137.222,142.172,144.53,147.229,149.928,153.808,157.009,160.89,165.604,168.246,169.974,173.97,178.668,183.172,185.53,189.411,192.847,194.574,198.625,203.34,208.289,209.964,212.322,214.964,218.4,220.127,224.178,226.721,230.765,233.4,238.107,239.835,244.696,247.047,250.921,254.511,258.384,260.112,262.463,265.891,267.566,270.994,275.701,280.117,286.865,291.572,293.3,295.652,300.359,302.087,306.948,309.299,313.715,316.35,318.078" svgx:width="0.33,0.55,0.6,0.4,0.25,0.61,0.29,0.33,0.33,0.48,0.4,0.48,0.58,0.33,0.25,0.5,0.58,0.56,0.29,0.48,0.42,0.25,0.5,0.58,0.61,0.25,0.29,0.33,0.42,0.25,0.5,0.32,0.5,0.33,0.58,0.25,0.6,0.29,0.48,0.44,0.48,0.25,0.29,0.42,0.25,0.42,0.58,0.55,0.83,0.58,0.25,0.29,0.58,0.25,0.6,0.29,0.55,0.33,0.25,0.33" style="fill:rgb(0,0,0);font-family:PalatinoLinotype;font-size:8.1px;stroke:none;">four different angles and its 1/8th piece is shown in plot (</text>
   <text y="426.87" x="320.844" svgx:width="0.61" style="fill:rgb(0,0,0);font-family:PalatinoLinotype,Bold;font-size:8.1px;stroke:none;">b</text>
   <text y="426.87" x="325.812,328.458,330.186,334.612,339.093,340.82,345.702,349.134,351.489,356.201,360.702,362.43,370.088,373.966,377.398,381.818,386.764,391.265,395.977,397.704,399.598,404.48,407.912,410.551,412.278,414.917,419.337,421.065,424.262,428.14,432.714,436.591,440.587,442.962,444.69,447.329,452.04,455.918,457.646,460.284,463.416,465.771,470.637,475.057,480.003" svgx:width="0.33,0.25,0.55,0.56,0.25,0.6,0.42,0.29,0.58,0.56,0.25,0.95,0.48,0.42,0.55,0.61,0.56,0.58,0.25,0.23,0.6,0.42,0.33,0.25,0.33,0.55,0.25,0.4,0.48,0.56,0.48,0.5,0.29,0.25,0.33,0.58,0.48,0.25,0.33,0.4,0.29,0.6,0.55,0.61,0.25" style="fill:rgb(0,0,0);font-family:PalatinoLinotype;font-size:8.1px;stroke:none;">) by using Mesodyn just to reveal the tripod </text>
   <text y="438.588" x="120.287,123.881,128.3,133.011,137.721,141.598,145.191,147.829,150.184,154.603,159.313,162.745,164.796,169.216,171.91,173.909,176.546,181.257,185.134,187.185,190.779,195.489,199.536,204.247,208.957,212.834,215.189,218.62,220.643,222.694,228.992,231.043,235.989,240.408,247.556,251.603,253.957,258.668,260.719,264.766,268.198,270.3,272.947,277.666,281.552,283.55,288.505,290.868,294.308,299.182,303.067,306.273,309.713,313.547,318.501,320.553,325.426,330.146,334.201,337.642,341.527,343.579,345.942,349.303,351.354,355.771,360.479,362.831,367.329,369.327,374.27,377.464,381.509,388.257,392.965,395.017,399.725,403.6,406.794,410.668,412.72" svgx:width="0.44,0.55,0.58,0.58,0.48,0.44,0.33,0.29,0.55,0.58,0.42,0.25,0.55,0.33,0.25,0.33,0.58,0.48,0.25,0.44,0.58,0.5,0.58,0.58,0.48,0.29,0.42,0.25,0.25,0.78,0.25,0.61,0.55,0.88,0.5,0.29,0.58,0.25,0.5,0.42,0.25,0.33,0.58,0.48,0.25,0.61,0.29,0.42,0.6,0.48,0.4,0.42,0.48,0.61,0.25,0.6,0.58,0.5,0.42,0.48,0.25,0.29,0.42,0.25,0.55,0.58,0.29,0.56,0.25,0.61,0.4,0.5,0.83,0.58,0.25,0.58,0.48,0.4,0.48,0.25,0.25" style="fill:rgb(0,0,0);font-family:PalatinoLinotype;font-size:8.1px;stroke:none;">connections of the channels. A domain as the dispersed phase is only drawn here. </text>
   <text y="461.268" x="120.287,125.307,130.236,133.804,136.18,139.094,144.332,148.657,151.033,154.042,159.485,163.053,165.967,171.221,175.486,179.054,181.43,184.061,189.576,193.901,199.154,202.069,204.66,207.669,210.3,214.244,218.758,221.672,224.303,229.163,234.417,236.793,241.722,244.731,247.107,250.022,255.259,257.889,261.719,264.095,272.062,276.991,280.501,285.901,291.154,296.083,298.714,303.643,308.662,313.681,316.003,320.518,324.347,326.723,332.069,336.984,340.813,344.642,348.967,352.749,356.585,359.215,364.468,369.488,371.81,377.262,381.744,386.226,390.762,393.138,396.967,401.986,409.953,417.92,422.245,425.16,428.723,433.69,435.958,438.28,445.805,450.131,452.507,455.421,458.984,464.004,466.38,469.294,474.209,476.585,480.595,485.848,490.173,494.183,499.202" svgx:width="0.56,0.55,0.4,0.25,0.33,0.58,0.48,0.25,0.33,0.6,0.4,0.33,0.58,0.48,0.4,0.25,0.29,0.61,0.48,0.58,0.33,0.29,0.33,0.29,0.44,0.5,0.33,0.29,0.55,0.58,0.25,0.55,0.33,0.25,0.33,0.58,0.29,0.42,0.25,0.88,0.55,0.4,0.6,0.58,0.55,0.29,0.55,0.56,0.56,0.25,0.5,0.42,0.25,0.6,0.55,0.42,0.42,0.48,0.42,0.42,0.29,0.58,0.56,0.25,0.6,0.5,0.5,0.5,0.25,0.42,0.56,0.88,0.88,0.48,0.33,0.4,0.56,0.25,0.25,0.83,0.48,0.25,0.33,0.4,0.56,0.25,0.33,0.55,0.25,0.44,0.58,0.48,0.44,0.56,0.25" style="fill:rgb(0,0,0);font-family:PalatinoLinotype;font-size:9.02px;stroke:none;">For the further identification of this morphology as possessing P432 symmetry, we try to check </text>
   <text y="473.418" x="101.171,103.802,106.716,110.546,112.49,117.509,122.763,127.692,135.217,140.471,142.415,146.74,151.761,157.204,159.834,164.857,169.393,172.024,176.349,181.602,184.517,186.461,195.483,200.502,204.446,209.467,214.396,217.405,220.414,222.358,227.783,232.712,236.494,239.14,242.054,244.7,249.629,254.882,258.664,260.932,262.876,268.409,272.924,277.916,280.546,284.871,286.762,291.276,293.221,295.812,298.458,302.287,305.202,309.031,310.975,313.836,319.073,323.398,325.342,328.351,330.982,334.492,338.321,341.236,343.18,346.189,351.118,356.561,360.129,362.019,371.041,376.06,380.07,385.089,389.95,392.959,395.968,397.912,403.337,408.266,412.047,414.639,417.553,420.199,425.128,430.382,434.211,436.156,440.638,443.283,448.212,453.466,458.485,460.43,467.882,470.527,473.442,478.679,480.624,483.538,488.775,493.1,495.731,499.241" svgx:width="0.29,0.33,0.42,0.25,0.56,0.58,0.55,0.83,0.58,0.25,0.48,0.56,0.6,0.29,0.56,0.5,0.29,0.48,0.58,0.33,0.25,1.0,0.56,0.44,0.56,0.55,0.33,0.33,0.25,0.6,0.55,0.42,0.29,0.33,0.29,0.55,0.58,0.42,0.25,0.25,0.61,0.5,0.55,0.29,0.48,0.25,0.5,0.25,0.29,0.29,0.42,0.33,0.42,0.25,0.33,0.58,0.48,0.25,0.33,0.29,0.4,0.42,0.33,0.25,0.33,0.55,0.6,0.4,0.25,1.0,0.56,0.44,0.56,0.55,0.33,0.33,0.25,0.6,0.55,0.42,0.29,0.33,0.29,0.55,0.58,0.42,0.25,0.5,0.29,0.55,0.58,0.56,0.25,0.83,0.29,0.33,0.58,0.25,0.33,0.58,0.48,0.29,0.4,0.25" style="fill:rgb(0,0,0);font-family:PalatinoLinotype;font-size:9.02px;stroke:none;">its known equivalent Wyckoff positions. Table 4 lists the first four Wyckoff positions along with their </text>
   <text y="485.568" x="101.171,106.678,109.301,113.122,117.123,120.683,125.0,127.86,130.506,135.012,139.278,144.785,147.04,150.023,153.967,158.888,163.809,167.369,172.876,175.498,180.681,185.217,188.155,192.472,196.293,198.548,201.477,205.984,211.229,216.736,218.99099999999999,221.974,224.912,230.158,234.475,236.73,239.713,242.335,247.256,251.258,255.764,258.386,260.641,263.624,270.637,272.892,275.875,280.859,283.481,288.402,292.404,297.415,299.67,302.653,306.655,311.515,319.474,324.891,329.812,333.633,336.255,339.193,341.815,346.736,351.982" svgx:width="0.61,0.29,0.42,0.44,0.4,0.48,0.33,0.29,0.5,0.48,0.61,0.25,0.55,0.44,0.55,0.55,0.4,0.61,0.29,0.58,0.5,0.33,0.48,0.42,0.25,0.55,0.5,0.58,0.61,0.25,0.55,0.33,0.58,0.48,0.25,0.55,0.29,0.55,0.44,0.5,0.29,0.25,0.55,0.78,0.25,0.55,0.55,0.29,0.55,0.44,0.56,0.25,0.55,0.44,0.55,0.88,0.6,0.55,0.42,0.29,0.33,0.29,0.55,0.58,0.25" style="fill:rgb(0,0,0);font-family:PalatinoLinotype;font-size:9.02px;stroke:none;">discretized coordinates and the local A block composition </text>
   <text y="486.216" x="367.985,371.1332,376.517" svgx:width="0.33,0.55,0.33" style="fill:rgb(0,0,0);font-family:TimesNewRoman;font-size:9.54px;stroke:none;">( )</text>
   <text y="488.646" x="363.881" svgx:width="0.61" style="fill:rgb(0,0,0);font-family:TimesNewRoman,Italic;font-size:5.56px;stroke:none;">A</text>
   <text y="486.216" x="371.603" svgx:width="0.39" style="fill:rgb(0,0,0);font-family:TimesNewRoman,Italic;font-size:9.54px;stroke:none;">r</text>
   <text y="486.216" matrix="[9.53604,0.0,3.26151,9.53982,358.6434,355.67368]" x="358.643" svgx:width="0.52" style="fill:rgb(0,0,0);font-family:Symbol;font-size:9.54px;stroke:none;">φ</text>
   <text y="480.222" x="372.089" svgx:width="0.41" style="fill:rgb(0,0,0);font-family:MTExtra;font-size:9.54px;stroke:none;"></text>
   <text y="485.568" x="382.997,385.241,387.496,390.479,397.483,401.295,403.55,406.533,409.462,414.698,419.006,422.557,426.865,429.12,432.049,434.695,438.477,440.73199999999997,443.715,448.251,450.506,453.489,457.301,461.837,464.766,467.412,471.224,474.216,478.752,482.749,485.678,490.59,494.141,499.143" svgx:width="0.25,0.25,0.55,0.78,0.42,0.25,0.55,0.33,0.58,0.48,0.4,0.48,0.25,0.55,0.29,0.42,0.25,0.55,0.5,0.25,0.55,0.42,0.5,0.33,0.29,0.42,0.33,0.5,0.44,0.33,0.55,0.4,0.56,0.25" style="fill:rgb(0,0,0);font-family:PalatinoLinotype;font-size:9.02px;stroke:none;">. As there is a satisfactory </text>
   <text y="500.364" x="101.172,105.49,110.538,115.974,118.597,123.69,128.197,130.82,135.138,140.385,144.387,148.705,150.96,152.647,157.569,160.571" svgx:width="0.48,0.56,0.6,0.29,0.56,0.5,0.29,0.48,0.58,0.44,0.48,0.25,0.55,0.55,0.33,0.25" style="fill:rgb(0,0,0);font-family:PalatinoLinotype;font-size:9.02px;stroke:none;">equivalence of </text>
   <text y="501.012" x="175.367,178.5152,183.899" svgx:width="0.33,0.55,0.33" style="fill:rgb(0,0,0);font-family:TimesNewRoman;font-size:9.54px;stroke:none;">( )</text>
   <text y="503.442" x="171.263" svgx:width="0.61" style="fill:rgb(0,0,0);font-family:TimesNewRoman,Italic;font-size:5.56px;stroke:none;">A</text>
   <text y="501.012" x="178.985" svgx:width="0.39" style="fill:rgb(0,0,0);font-family:TimesNewRoman,Italic;font-size:9.54px;stroke:none;">r</text>
   <text y="501.012" matrix="[9.53604,0.0,3.26151,9.53982,166.02539,340.87775]" x="166.025" svgx:width="0.52" style="fill:rgb(0,0,0);font-family:Symbol;font-size:9.54px;stroke:none;">φ</text>
   <text y="495.018" x="179.471" svgx:width="0.41" style="fill:rgb(0,0,0);font-family:MTExtra;font-size:9.54px;stroke:none;"></text>
   <text y="500.364" x="189.137,191.392,193.188,196.195,201.122,204.632,206.887,208.628,211.543,216.78,221.103,223.358,225.099,228.107,230.698,234.264,238.092,241.006,243.261,245.002,248.01,252.937,258.378,261.888,264.143,265.884,271.307,276.235,280.062,282.691,285.551,288.197,293.124,298.376,300.631,302.372,307.389,310.955,315.816,321.27,326.693,330.52,332.779,335.034,336.721,339.313,342.227,344.48199999999997,346.223,348.852,352.679,354.93399999999997,356.675,360.683,365.611,370.862,374.644,377.272,382.786,387.109,390.619,394.943,400.456,402.711,404.452,407.366,412.604,417.116,420.031,422.286,424.027,426.941,432.178,436.502,438.757,440.498,445.465,448.11,453.209,457.532,462.784,465.039,466.78,472.203,476.527,480.534,485.934,488.563,491.154,495.667,499.177" svgx:width="0.25,0.55,0.33,0.55,0.4,0.25,0.55,0.33,0.58,0.48,0.25,0.55,0.33,0.29,0.4,0.42,0.33,0.25,0.55,0.33,0.55,0.6,0.4,0.25,0.55,0.6,0.55,0.42,0.29,0.33,0.29,0.55,0.58,0.25,0.55,0.56,0.4,0.55,0.6,0.6,0.42,0.25,0.25,0.55,0.29,0.33,0.25,0.55,0.29,0.42,0.25,0.55,0.44,0.55,0.58,0.42,0.29,0.61,0.48,0.4,0.48,0.61,0.25,0.55,0.33,0.58,0.5,0.33,0.25,0.55,0.33,0.58,0.48,0.25,0.55,0.56,0.29,0.56,0.48,0.58,0.25,0.55,0.6,0.48,0.44,0.6,0.29,0.29,0.5,0.4,0.25" style="fill:rgb(0,0,0);font-family:PalatinoLinotype;font-size:9.02px;stroke:none;"> for the first four position groups, it is considered that the given peculiar </text>
   <text y="515.214" x="101.172,109.13,114.05,117.609,123.025,128.269,133.19,135.811,140.731,145.741,150.751,152.965,157.948,162.265,164.886,169.806,175.051,180.061,183.881,186.149,189.086,194.006,196.274,199.211,204.394,208.71,210.978,214.979,218.538,223.548,227.368,230.229,234.765,237.386,241.206,243.474,248.394,251.394,253.663,259.062,263.598,268.104,272.609,274.823,278.643,283.653,291.611,299.569,303.885,306.822,310.332,315.343,317.557" svgx:width="0.88,0.55,0.4,0.6,0.58,0.55,0.29,0.55,0.56,0.56,0.25,0.55,0.48,0.29,0.55,0.58,0.56,0.42,0.25,0.33,0.55,0.25,0.33,0.58,0.48,0.25,0.44,0.4,0.56,0.42,0.33,0.5,0.29,0.42,0.25,0.55,0.33,0.25,0.6,0.5,0.5,0.5,0.25,0.42,0.56,0.88,0.88,0.48,0.33,0.4,0.56,0.25,0.25" style="fill:rgb(0,0,0);font-family:PalatinoLinotype;font-size:9.02px;stroke:none;">morphology belongs to the crystals of P432 symmetry. </text>
   <text y="538.002" x="211.871,217.276,221.328,226.279,228.98,233.032,235.084,239.136" svgx:width="0.67,0.5,0.61,0.33,0.5,0.25,0.5,0.25" style="fill:rgb(0,0,0);font-family:PalatinoLinotype,Bold;font-size:8.1px;stroke:none;">Table 4.</text>
   <text y="538.002" x="241.139,243.191,251.291,255.796,259.394,263.899,268.323,271.022,273.722,275.774,280.667,285.042,288.478,290.837,293.48,295.84,300.264,304.979,308.415,310.467,313.166,317.541,320.742,322.794,327.688,331.739,335.791,339.842,341.894,349.047,353.471,356.672,361.542,366.257,370.681,373.04,377.464,381.969,386.474,388.502" svgx:width="0.25,1.0,0.56,0.44,0.56,0.55,0.33,0.33,0.25,0.6,0.55,0.42,0.29,0.33,0.29,0.55,0.58,0.42,0.25,0.33,0.55,0.4,0.25,0.6,0.5,0.5,0.5,0.25,0.88,0.55,0.4,0.6,0.58,0.55,0.29,0.55,0.56,0.56,0.25,0.25" style="fill:rgb(0,0,0);font-family:PalatinoLinotype;font-size:8.1px;stroke:none;"> Wyckoff Positions for P432 morphology. </text>
   <text y="557.442" x="178.067,186.604,192.049,194.681,197.541,200.173,205.6,208.232,210.864,214.808,217.44,220.355,225.322,227.577,238.93,244.384,249.315,253.146,255.778,258.692,261.338,266.269,271.452,273.707,285.006,291.992,294.624,298.456,302.467,306.037,310.364,313.278,315.87,320.386,324.713,330.168,332.436,336.38,341.311,346.242,349.812,355.328,357.961,363.144,367.68,370.594,374.914,378.695" svgx:width="0.95,0.6,0.29,0.33,0.29,0.6,0.29,0.29,0.44,0.29,0.33,0.56,0.25,0.55,0.6,0.55,0.42,0.29,0.33,0.29,0.55,0.58,0.25,0.55,0.77,0.29,0.42,0.44,0.4,0.48,0.33,0.29,0.5,0.48,0.61,0.25,0.44,0.55,0.55,0.4,0.61,0.29,0.58,0.5,0.33,0.48,0.42,0.25" style="fill:rgb(0,0,0);font-family:PalatinoLinotype;font-size:9.02px;stroke:none;">Multiplicity Position Discretized coordinates </text>
   <text y="556.524" x="403.841,407.0717,412.374" svgx:width="0.33,0.55,0.33" style="fill:rgb(0,0,0);font-family:TimesNewRoman;font-size:9.79px;stroke:none;">( )</text>
   <text y="559.062" x="399.737" svgx:width="0.61" style="fill:rgb(0,0,0);font-family:TimesNewRoman,Italic;font-size:5.71px;stroke:none;">A</text>
   <text y="556.524" x="407.459" svgx:width="0.39" style="fill:rgb(0,0,0);font-family:TimesNewRoman,Italic;font-size:9.79px;stroke:none;">r</text>
  </g>
  <g begin="text">
   <text y="556.524" matrix="[9.78813,0.0,3.34755,9.79191,394.4994,285.36566]" x="394.499" svgx:width="0.52" style="fill:rgb(0,0,0);font-family:Symbol;font-size:9.79px;stroke:none;">φ</text>
  </g>
  <g begin="text">
   <text y="550.422" x="407.945" svgx:width="0.41" style="fill:rgb(0,0,0);font-family:MTExtra;font-size:9.79px;stroke:none;"></text>
   <text y="556.038" x="416.855" svgx:width="0.25" style="fill:rgb(0,0,0);font-family:PalatinoLinotype;font-size:9.02px;stroke:none;"> </text>
  </g>
  <g begin="text">
   <text y="571.32" x="197.237,201.773,206.255,208.51,246.215,250.751,252.965,257.501,259.715,264.197,266.452,322.895,327.431,329.645,334.181,336.395,340.877,343.132,388.451,392.987,395.201,399.737,404.219,408.701,413.237,417.719,422.201" svgx:width="0.5,0.5,0.25,0.55,0.5,0.25,0.5,0.25,0.5,0.25,0.55,0.5,0.25,0.5,0.25,0.5,0.25,0.55,0.5,0.25,0.5,0.5,0.5,0.5,0.5,0.5,0.25" style="fill:rgb(0,0,0);font-family:PalatinoLinotype;font-size:9.02px;stroke:none;">1a 0,0,0 1,1,1 0.905336 </text>
  </g>
  <g begin="text">
   <text y="583.902" x="196.967,201.502,206.468,208.72299999999998,235.142,239.676,242.535,247.069,249.283,253.818,256.677,261.159,263.427,267.961,270.767,275.249,277.504,316.126,320.66,325.142,327.423,331.905,336.439,338.653,343.135,347.617,349.872,388.441,392.975,395.189,399.723,404.205,408.687,413.223,417.705,422.187" svgx:width="0.5,0.55,0.25,0.55,0.5,0.32,0.5,0.25,0.5,0.32,0.5,0.25,0.5,0.32,0.5,0.25,0.55,0.5,0.5,0.25,0.5,0.5,0.25,0.5,0.5,0.25,0.55,0.5,0.25,0.5,0.5,0.5,0.5,0.5,0.5,0.25" style="fill:rgb(0,0,0);font-family:PalatinoLinotype;font-size:9.02px;stroke:none;">1b 1/2,1/2,1/2 17,17,17 0.890529 </text>
  </g>
  <g begin="text">
   <text y="609.12" x="197.507,202.043,205.987" svgx:width="0.5,0.44,0.25" style="fill:rgb(0,0,0);font-family:PalatinoLinotype;font-size:9.02px;stroke:none;">3c </text>
   <text y="596.538" x="238.818,243.354,245.569,250.105,252.965,257.501,259.716,264.252,267.112,271.595,273.85,318.36,322.896,325.111,329.647,334.13,336.412,340.895,345.378,347.633,388.47,393.006,395.221,399.757,404.24,408.723,413.26,417.743,422.225" svgx:width="0.5,0.25,0.5,0.32,0.5,0.25,0.5,0.32,0.5,0.25,0.55,0.5,0.25,0.5,0.5,0.25,0.5,0.5,0.25,0.55,0.5,0.25,0.5,0.5,0.5,0.5,0.5,0.5,0.25" style="fill:rgb(0,0,0);font-family:PalatinoLinotype;font-size:9.02px;stroke:none;">0,1/2,1/2 1,17,17 0.921184 </text>
  </g>
  <g begin="text">
   <text y="609.12" x="238.817,243.351,246.21,250.743,252.957,257.491,259.705,264.238,267.097,271.579,273.834,318.343,322.877,327.359,329.638,334.12,336.4,340.882,345.364,347.61899999999997,390.669,395.203,397.417,401.95,406.432,410.914,415.45,419.932" svgx:width="0.5,0.32,0.5,0.25,0.5,0.25,0.5,0.32,0.5,0.25,0.55,0.5,0.5,0.25,0.5,0.25,0.5,0.5,0.25,0.55,0.5,0.25,0.5,0.5,0.5,0.5,0.5,0.25" style="fill:rgb(0,0,0);font-family:PalatinoLinotype;font-size:9.02px;stroke:none;">1/2,0,1/2 17,1,17 0.86979 </text>
  </g>
  <g begin="text">
   <text y="621.702" x="238.817,243.353,246.213,250.749,252.963,257.499,260.364,264.851,267.085,271.572,273.827,318.336,322.872,327.354,329.588,334.075,338.611,340.825,345.313,347.568,388.404,392.94,395.154,399.69,404.177,408.665,413.201,417.688,422.176" svgx:width="0.5,0.32,0.5,0.25,0.5,0.32,0.5,0.25,0.5,0.25,0.55,0.5,0.5,0.25,0.5,0.5,0.25,0.5,0.25,0.55,0.5,0.25,0.5,0.5,0.5,0.5,0.5,0.5,0.25" style="fill:rgb(0,0,0);font-family:PalatinoLinotype;font-size:9.02px;stroke:none;">1/2,1/2,0 17,17,1 0.903127 </text>
  </g>
  <g begin="text">
   <text y="646.866" x="196.751,201.287,206.743" svgx:width="0.5,0.61,0.25" style="fill:rgb(0,0,0);font-family:PalatinoLinotype;font-size:9.02px;stroke:none;">3d </text>
   <text y="634.284" x="242.544,247.076,249.935,254.468,256.682,261.214,263.428,267.91,270.165,320.614,325.146,329.628,331.907,336.389,338.668,343.15,345.405,388.455,392.988,395.202,399.734,404.216,408.698,413.234,417.716,422.198" svgx:width="0.5,0.32,0.5,0.25,0.5,0.25,0.5,0.25,0.55,0.5,0.5,0.25,0.5,0.25,0.5,0.25,0.55,0.5,0.25,0.5,0.5,0.5,0.5,0.5,0.5,0.25" style="fill:rgb(0,0,0);font-family:PalatinoLinotype;font-size:9.02px;stroke:none;">1/2,0,0 17,1,1 0.882721 </text>
  </g>
  <g begin="text">
   <text y="646.866" x="242.543,247.078,249.292,253.826,256.685,261.219,263.433,267.915,270.17,320.619,325.153,327.367,331.901,336.383,338.664,343.146,345.401,388.451,392.986,395.2,399.734,404.216,408.698,413.234,417.716,422.198" svgx:width="0.5,0.25,0.5,0.32,0.5,0.25,0.5,0.25,0.55,0.5,0.25,0.5,0.5,0.25,0.5,0.25,0.55,0.5,0.25,0.5,0.5,0.5,0.5,0.5,0.5,0.25" style="fill:rgb(0,0,0);font-family:PalatinoLinotype;font-size:9.02px;stroke:none;">0,1/2,0 1,17,1 0.911596 </text>
  </g>
  <g begin="text">
   <text y="659.502" x="242.543,247.079,249.293,253.829,256.043,260.579,263.439,267.921,270.176,320.624,325.16,327.374,331.91,334.124,338.66,343.142,345.397,390.662,395.198,397.412,401.948,406.43,410.912,415.448,419.93" svgx:width="0.5,0.25,0.5,0.25,0.5,0.32,0.5,0.25,0.55,0.5,0.25,0.5,0.25,0.5,0.5,0.25,0.55,0.5,0.25,0.5,0.5,0.5,0.5,0.5,0.25" style="fill:rgb(0,0,0);font-family:PalatinoLinotype;font-size:9.02px;stroke:none;">0,0,1/2 1,1,17 0.91643 </text>
  </g>
  <g begin="text">
   <text y="683.316" x="101.171,105.676,107.927,112.431,114.682,116.896,122.401,126.572,131.581,134.085,136.588,139.091,143.262,146.766,149.27,154.279,161.289,163.557,169.062,172.566,176.07,178.574,182.517,187.053,189.557,193.223,195.726,198.725,203.23,205.498,209.442,214.463,218.967,221.181,226.19,229.694,233.198,236.702,238.925,244.426,249.432,252.932,256.433,260.934,263.365,266.865,270.365,272.633,275.133,280.139,282.407,285.402,289.903,293.403,295.671,298.667,303.673,307.335,311.331,318.338,322.839,326.339,329.84,333.34,336.84,339.34,343.507,346.007,349.507,351.775,357.277,359.776,363.439,366.434,371.44,374.94,378.441" svgx:width="0.5,0.25,0.5,0.25,0.25,0.61,0.46,0.56,0.28,0.28,0.28,0.46,0.39,0.28,0.56,0.78,0.25,0.61,0.39,0.39,0.28,0.44,0.5,0.28,0.41,0.28,0.33,0.5,0.25,0.44,0.56,0.5,0.25,0.56,0.39,0.39,0.39,0.25,0.61,0.56,0.39,0.39,0.5,0.28,0.39,0.39,0.25,0.28,0.56,0.25,0.33,0.5,0.39,0.25,0.33,0.56,0.41,0.44,0.78,0.5,0.39,0.39,0.39,0.39,0.28,0.46,0.28,0.39,0.25,0.61,0.28,0.41,0.33,0.56,0.39,0.39,0.25" style="fill:rgb(0,0,0);font-family:PalatinoLinotype,Italic;font-size:9.02px;stroke:none;">3.4. Equilibrium Periodicity and Free Energies in the Incompressible Picture </text>
   <text y="700.866" x="120.287,127.304,132.725,134.98,136.613,139.528,144.442,146.697,148.33,153.58,158.506,166.027,168.284,170.539,172.172,179.694,184.016,186.271,187.903,193.153,197.664,202.761,207.082,209.337,210.97,213.562,219.072,223.337,228.575,231.489,234.116,237.121,239.748,244.014,249.525,251.78,253.413,256.327,261.565,265.129,269.45,273.772,276.027,277.606,282.856,287.177,294.699,296.954,298.587,306.55,311.475,315.04,320.461,325.711,330.636,333.263,338.189,343.204,345.831,350.097,353.932,356.187,357.82,365.342,367.969,370.883,376.12,378.375,380.008,382.98,390.919,395.43,397.687,399.942,401.575,407.024,412.207,416.718,424.681,426.938,429.193,430.772,435.254,440.491,446.003,448.258,449.891,455.339,459.821,464.303,468.839,471.094,472.727,476.733,480.297,485.313,489.094,492.009,496.545,499.172" svgx:width="0.78,0.6,0.25,0.55,0.33,0.55,0.25,0.55,0.58,0.55,0.83,0.25,0.25,0.55,0.83,0.48,0.25,0.55,0.58,0.5,0.56,0.48,0.25,0.55,0.29,0.61,0.48,0.58,0.33,0.29,0.33,0.29,0.48,0.61,0.25,0.55,0.33,0.58,0.4,0.48,0.48,0.25,0.55,0.58,0.48,0.83,0.25,0.55,0.88,0.55,0.4,0.6,0.58,0.55,0.29,0.55,0.56,0.29,0.48,0.42,0.25,0.55,0.83,0.29,0.33,0.58,0.25,0.55,0.34,0.88,0.5,0.25,0.25,0.55,0.6,0.58,0.5,0.88,0.25,0.25,0.55,0.5,0.58,0.61,0.25,0.55,0.6,0.5,0.5,0.5,0.25,0.55,0.44,0.4,0.56,0.42,0.33,0.5,0.29,0.25" style="fill:rgb(0,0,0);font-family:PalatinoLinotype;font-size:9.02px;stroke:none;">Up to now, we have identified three new morphologies with Im3, Pn3m, and P432 crystal </text>
   <text y="713.016" x="101.171,104.993,110.004,117.963,125.921,130.238,133.176,136.736,141.747,144.0,146.255,147.294,150.331,153.191,155.446,156.485,159.107,162.928,165.183,166.222,171.467,175.784,179.786,184.052,187.873,191.694,196.2,199.76,204.771,207.02599999999998,208.011,210.949,215.87,218.125,219.164,223.165,228.086,236.045,241.462,245.968,249.528,253.845,256.1,257.139,260.076,265.322,269.639,271.894,272.933,275.934,279.493,283.81,288.127,290.382,291.421,295.738,300.922,305.238,308.801,313.768,316.414,320.733,324.557,326.812,327.851,332.712,335.736,337.991,339.03,341.97,347.219,351.538,353.793,354.832,360.08,364.346,371.866,374.491,379.505,381.76,382.798,387.118,392.213,397.137,399.762,404.857,409.122,414.632,416.887,417.872,423.12,427.629,432.877,437.801,441.625,444.565,448.128,453.565,457.569,460.43,465.867,469.377,473.697,477.521,479.776,480.815,488.334,490.959,493.9,499.148" svgx:width="0.42,0.56,0.88,0.88,0.48,0.33,0.4,0.56,0.25,0.25,0.55,0.34,0.33,0.25,0.55,0.29,0.42,0.25,0.55,0.58,0.48,0.44,0.48,0.42,0.42,0.5,0.4,0.56,0.25,0.55,0.33,0.55,0.25,0.55,0.44,0.55,0.88,0.6,0.5,0.4,0.48,0.25,0.55,0.33,0.58,0.48,0.25,0.55,0.33,0.4,0.48,0.48,0.25,0.55,0.48,0.58,0.48,0.4,0.56,0.29,0.48,0.42,0.25,0.55,0.55,0.33,0.25,0.55,0.33,0.58,0.48,0.25,0.55,0.58,0.48,0.83,0.29,0.56,0.25,0.55,0.48,0.56,0.55,0.29,0.56,0.48,0.61,0.25,0.55,0.58,0.5,0.58,0.55,0.42,0.33,0.4,0.6,0.44,0.33,0.6,0.4,0.48,0.42,0.25,0.55,0.83,0.29,0.33,0.58,0.25" style="fill:rgb(0,0,0);font-family:PalatinoLinotype;font-size:9.02px;stroke:none;">symmetry. It is necessary to compare the free energies of the newly evolved nanostructures with </text>
  </g>
  <rect style="stroke:blue;stroke-width:0.3;" x="108.677" y="149.703" height="94.986" width="98.982" title="11"/>
  <text y="149.703" class="image" id="image.11.1" width="98" height="94" x="108.677">image.11.1.109_208.150_245</text>
  <rect style="stroke:blue;stroke-width:0.3;" x="108.677" y="149.703" height="94.986" width="98.982" title="11"/>
  <text y="149.703" class="image" id="image.11.2" width="98" height="94" x="108.677">image.11.2.109_208.150_245</text>
  <rect style="stroke:blue;stroke-width:0.3;" x="211.709" y="150.189" height="93.852" width="88.614" title="11"/>
  <text y="150.189" class="image" id="image.11.3" width="88" height="93" x="211.709">image.11.3.212_300.150_244</text>
  <rect style="stroke:blue;stroke-width:0.3;" x="211.709" y="150.189" height="93.852" width="88.614" title="11"/>
  <text y="150.189" class="image" id="image.11.4" width="88" height="93" x="211.709">image.11.4.212_300.150_244</text>
  <rect style="stroke:blue;stroke-width:0.3;" x="304.805" y="150.081" height="94.608" width="90.612" title="11"/>
  <text y="150.081" class="image" id="image.11.5" width="90" height="94" x="304.805">image.11.5.305_395.150_245</text>
  <rect style="stroke:blue;stroke-width:0.3;" x="304.805" y="150.081" height="94.608" width="90.612" title="11"/>
  <text y="150.081" class="image" id="image.11.6" width="90" height="94" x="304.805">image.11.6.305_395.150_245</text>
  <rect style="stroke:blue;stroke-width:0.3;" x="399.413" y="150.081" height="94.608" width="92.286" title="11"/>
  <text y="150.081" class="image" id="image.11.7" width="92" height="94" x="399.413">image.11.7.399_492.150_245</text>
  <rect style="stroke:blue;stroke-width:0.3;" x="399.413" y="150.081" height="94.608" width="92.286" title="11"/>
  <text y="150.081" class="image" id="image.11.8" width="92" height="94" x="399.413">image.11.8.399_492.150_245</text>
  <rect style="stroke:blue;stroke-width:0.3;" x="115.211" y="244.473" height="95.04" width="93.96" title="11"/>
  <text y="244.473" class="image" id="image.11.9" width="93" height="95" x="115.211">image.11.9.115_209.244_340</text>
  <rect style="stroke:blue;stroke-width:0.3;" x="115.211" y="244.473" height="95.04" width="93.96" title="11"/>
  <text y="244.473" class="image" id="image.11.10" width="93" height="95" x="115.211">image.11.10.115_209.244_340</text>
  <g begin="text">
   <text y="190.512" x="102.899,106.5059,112.943" svgx:width="0.33,0.55,0.33" style="fill:rgb(0,0,0);font-family:TimesNewRoman;font-size:10.93px;stroke:none;">( )</text>
   <text y="190.512" x="106.895" svgx:width="0.5" style="fill:rgb(0,0,0);font-family:TimesNewRoman,Italic;font-size:10.93px;stroke:none;">a</text>
   <text y="297.378" x="102.899,106.5059,112.296" svgx:width="0.33,0.55,0.33" style="fill:rgb(0,0,0);font-family:TimesNewRoman;font-size:10.93px;stroke:none;">( )</text>
   <text y="297.378" x="106.733" svgx:width="0.5" style="fill:rgb(0,0,0);font-family:TimesNewRoman,Italic;font-size:10.93px;stroke:none;">b</text>
  </g>
  <g begin="text">
   <text y="398.638" x="97.795,102.78,105.766,110.751,116.23,119.718,124.203,126.443,130.926" svgx:width="0.56,0.33,0.56,0.61,0.39,0.5,0.55,0.5,0.25" style="fill:rgb(0,0,0);font-family:URWPalladioL-Bold;font-size:8.97px;stroke:none;">Figure 9.</text>
   <text y="398.638" x="136.301,141.775,146.973,150.34,154.618,158.895,161.869,167.326,169.924,177.81,182.088,187.285,191.072,193.671,198.547,203.744,208.21,210.81130000000002,213.041,220.927,225.803,229.33,234.698,239.895,244.771,247.37,252.246,257.211,262.2342,264.418,269.294,272.2541,274.51,277.421,282.619,286.92460000000005,289.129,294.327,298.605,301.516,308.964,313.84,317.368,322.39119999999997,324.574,332.46,336.738,340.524,345.401,350.768,355.965,360.431,364.217,368.5226,370.736,375.014,380.06,384.936,387.535,392.572,396.849,402.3207,404.547,407.521,410.888,415.764,425.891,432.223" svgx:width="0.61,0.58,0.4,0.48,0.48,0.33,0.61,0.29,0.88,0.48,0.58,0.42,0.29,0.55,0.58,0.5,0.29,0.55,0.88,0.55,0.4,0.6,0.58,0.55,0.29,0.55,0.56,0.56,0.55,0.55,0.33,0.55,0.33,0.58,0.48,0.55,0.58,0.48,0.33,0.83,0.55,0.4,0.56,0.55,0.88,0.48,0.42,0.55,0.6,0.58,0.5,0.42,0.48,0.55,0.48,0.56,0.55,0.29,0.56,0.48,0.61,0.55,0.33,0.4,0.55,0.88,0.71,0.33" style="fill:rgb(0,0,0);font-family:URWPalladioL-Roma;font-size:8.97px;stroke:none;">Three-dimensional morphology of the network mesophase evolved fromC(</text>
   <text y="398.638" x="435.194" svgx:width="0.67" style="fill:rgb(0,0,0);font-family:Pxsy;font-size:8.97px;stroke:none;">±</text>
   <text y="398.638" x="441.192,447.149,450.1091,452.364,456.151,461.536,465.063,468.037,472.502,476.468,480.77360000000004,482.978,485.577,490.7796,493.016" svgx:width="0.67,0.33,0.55,0.42,0.6,0.4,0.33,0.5,0.44,0.48,0.55,0.29,0.58,0.55,0.5" style="fill:rgb(0,0,0);font-family:URWPalladioL-Roma;font-size:8.97px;stroke:none;">Y) surface in a</text>
   <text y="411.46" x="97.526,103.023,107.403,111.016,113.677,118.671,124.259,126.92,130.8668,133.377,138.435,143.428,148.0924,150.544,155.537,158.49710000000002,160.979,165.552" svgx:width="0.6,0.48,0.4,0.29,0.55,0.61,0.29,0.44,0.55,0.55,0.55,0.52,0.55,0.55,0.33,0.55,0.5,0.5" style="fill:rgb(0,0,0);font-family:URWPalladioL-Roma;font-size:8.97px;stroke:none;">periodic box of 10</text>
   <text y="411.46" x="172.52" svgx:width="0.67" style="fill:rgb(0,0,0);font-family:Pxsy;font-size:8.97px;stroke:none;">×</text>
   <text y="411.46" x="180.915,185.488" svgx:width="0.5,0.5" style="fill:rgb(0,0,0);font-family:URWPalladioL-Roma;font-size:8.97px;stroke:none;">10</text>
   <text y="411.46" x="192.457" svgx:width="0.67" style="fill:rgb(0,0,0);font-family:Pxsy;font-size:8.97px;stroke:none;">×</text>
   <text y="411.46" x="200.852,205.425" svgx:width="0.5,0.5" style="fill:rgb(0,0,0);font-family:URWPalladioL-Roma;font-size:8.97px;stroke:none;">10</text>
   <text y="411.46" x="209.997" svgx:width="0.67" style="fill:rgb(0,0,0);font-family:URWPalladioL-Ital;font-size:8.97px;stroke:none;">R</text>
   <text y="408.171" x="215.978" svgx:width="0.5" style="fill:rgb(0,0,0);font-family:URWPalladioL-Roma;font-size:6.97px;stroke:none;">3</text>
   <text y="415.34" x="215.978" svgx:width="0.72" style="fill:rgb(0,0,0);font-family:URWPalladioL-Ital;font-size:6.97px;stroke:none;">G</text>
   <text y="411.46" x="221.511,223.7535,227.401,233.007,238.33,242.6356,245.107,250.622,255.945,258.606,261.5661,263.984,268.044,272.425,275.087,277.68829999999997,280.144,288.22,293.214,296.826,302.323,307.645,312.639,315.3,320.294,325.379,330.4022,332.86,335.522,339.2894,341.796,347.384,351.764,357.261,359.922,363.983,366.965,371.345,376.8167,379.33,381.991,387.1936,389.71,395.207,397.868,402.862,405.82210000000003,408.239" svgx:width="0.25,0.55,0.61,0.58,0.48,0.55,0.6,0.58,0.29,0.33,0.55,0.44,0.48,0.29,0.29,0.55,0.88,0.55,0.4,0.6,0.58,0.55,0.29,0.55,0.56,0.56,0.55,0.29,0.42,0.55,0.61,0.48,0.6,0.29,0.44,0.33,0.48,0.61,0.55,0.29,0.58,0.55,0.6,0.29,0.55,0.33,0.55,0.33" style="fill:rgb(0,0,0);font-family:URWPalladioL-Roma;font-size:8.97px;stroke:none;">. The unit cell morphology is depicted in plot (</text>
   <text y="411.46" x="411.281" svgx:width="0.5" style="fill:rgb(0,0,0);font-family:URWPalladioL-Bold;font-size:8.97px;stroke:none;">a</text>
   <text y="411.46" x="415.764,418.7241,421.206,426.263,431.28619999999995,433.745,439.259,443.137,445.799,451.121,456.14419999999996,458.603,467.254,471.827,474.809,477.47,482.043,486.9765,489.497,492.158" svgx:width="0.33,0.55,0.55,0.56,0.55,0.6,0.42,0.29,0.58,0.56,0.55,0.95,0.5,0.33,0.29,0.5,0.55,0.55,0.29,0.58" style="fill:rgb(0,0,0);font-family:URWPalladioL-Roma;font-size:8.97px;stroke:none;">) by using Matlab in</text>
   <text y="424.282" x="97.795,100.745,105.582,110.924,114.512,116.664,122.077" svgx:width="0.33,0.55,0.6,0.4,0.55,0.61,0.29" style="fill:rgb(0,0,0);font-family:URWPalladioL-Roma;font-size:8.97px;stroke:none;">four di</text>
   <text y="424.282" x="124.657" svgx:width="0.61" style="fill:rgb(0,0,0);font-family:Rpxr;font-size:8.97px;stroke:none;">ﬀ</text>
   <text y="424.282" x="130.044,134.287,137.627,141.87,147.026,149.98610000000002,152.156,156.585,161.741,166.666,169.244,173.488,177.2554,179.485,183.914,189.07,194.5417,196.733,199.311,202.199,205.96640000000002,208.196" svgx:width="0.48,0.4,0.48,0.58,0.33,0.55,0.5,0.58,0.56,0.29,0.48,0.42,0.55,0.5,0.58,0.61,0.55,0.29,0.33,0.42,0.55,0.5" style="fill:rgb(0,0,0);font-family:URWPalladioL-Roma;font-size:8.97px;stroke:none;">erent angles and its 1</text>
   <text y="424.282" x="212.625" svgx:width="0.29" style="fill:rgb(0,0,0);font-family:Rpxr;font-size:8.97px;stroke:none;">/</text>
   <text y="424.282" x="215.167,219.596,222.484,227.6866,229.881,235.206,237.784,242.027,245.96,250.2656,252.454,255.032,258.7994,261.029,264.785,269.941,274.778,282.166,287.3686,289.563,292.141,297.34360000000004,299.538,304.862,307.44,312.277,315.2371,317.415" svgx:width="0.5,0.33,0.58,0.55,0.6,0.29,0.48,0.44,0.48,0.55,0.29,0.42,0.55,0.42,0.58,0.55,0.83,0.58,0.55,0.29,0.58,0.55,0.6,0.29,0.55,0.33,0.55,0.33" style="fill:rgb(0,0,0);font-family:URWPalladioL-Roma;font-size:8.97px;stroke:none;">8th piece is shown in plot (</text>
   <text y="424.282" x="320.363" svgx:width="0.61" style="fill:rgb(0,0,0);font-family:URWPalladioL-Bold;font-size:8.97px;stroke:none;">b</text>
   <text y="424.282" x="325.841,328.8011,331.032,335.931,340.95419999999996,343.107,348.449,352.205,354.783,359.939,364.9622,367.105,375.486,379.729,383.485,388.322,393.735,398.66,403.86260000000004,406.057,408.13,413.472,417.228,420.1881,422.358,425.246,430.17949999999996,432.333,435.672,439.916,444.921,449.156,453.585,456.18629999999996,458.413,461.301,466.457,470.7626,472.941,475.829,479.329,481.907,487.231,492.068" svgx:width="0.33,0.55,0.55,0.56,0.55,0.6,0.42,0.29,0.58,0.56,0.55,0.95,0.48,0.42,0.55,0.61,0.56,0.58,0.55,0.23,0.6,0.42,0.33,0.55,0.33,0.55,0.55,0.4,0.48,0.56,0.48,0.5,0.29,0.55,0.33,0.58,0.48,0.55,0.33,0.4,0.29,0.6,0.55,0.61" style="fill:rgb(0,0,0);font-family:URWPalladioL-Roma;font-size:8.97px;stroke:none;">) by using Mesodyn just to reveal the tripod</text>
   <text y="437.104" x="97.795,101.776,106.672,111.89,117.109,121.404,125.385,128.308,130.917,135.813,141.031,144.79840000000002,147.074,151.97,154.9301,157.197,160.12,165.339,169.6446,171.875,175.857,181.075,185.558,190.777,195.995,200.29,202.899,206.701,208.9435,212.081,219.0776,221.298,226.777,231.672,239.59,244.073,246.682,251.88459999999998,254.142,258.625,262.3924,264.669,267.592,272.81,277.11560000000003,279.347,284.825,287.434,291.236,296.625,300.92,304.462,308.263,312.558,318.0297,320.278,325.667,330.886,335.369,339.171,343.4766,345.707,348.316,352.0834,354.36,359.255,364.474,367.083,372.1062,374.31,379.788,383.33,387.813,395.291,400.4936,402.751,407.97,412.265,415.645,419.94" svgx:width="0.44,0.55,0.58,0.58,0.48,0.44,0.33,0.29,0.55,0.58,0.42,0.55,0.55,0.33,0.55,0.33,0.58,0.48,0.55,0.44,0.58,0.5,0.58,0.58,0.48,0.29,0.42,0.25,0.55,0.78,0.55,0.61,0.55,0.88,0.5,0.29,0.58,0.55,0.5,0.42,0.55,0.33,0.58,0.48,0.55,0.61,0.29,0.42,0.6,0.48,0.4,0.42,0.48,0.61,0.55,0.6,0.58,0.5,0.42,0.48,0.55,0.29,0.42,0.55,0.55,0.58,0.29,0.56,0.55,0.61,0.4,0.5,0.83,0.58,0.55,0.58,0.48,0.4,0.48,0.25" style="fill:rgb(0,0,0);font-family:URWPalladioL-Roma;font-size:8.97px;stroke:none;">connections of the channels. A domain as the dispersed phase is only drawn here.</text>
   <text y="460.438" x="97.795,103.223,108.554,112.538,114.891,118.073,123.756,128.5368,130.922,134.173,140.061,143.917,147.1,152.782,157.459,161.443,163.795,166.636,172.602,177.278,182.961,186.144,188.985,194.891,199.226,204.108,207.291,210.132,215.463,221.2398,223.625,228.956,232.2428,234.687,237.87,243.552,246.393,250.5762,253.022,261.644,266.974,270.831,276.699,282.381,287.712,290.553,295.884,301.312,306.88960000000003,309.22,314.102,318.2852,320.722,326.589,331.92,336.06,340.199,344.876,349.016,353.155,355.996,361.679,367.2566,369.587,375.484,380.366,385.247,390.22700000000003,392.619,396.758,402.187,410.808,419.429,424.106,427.288,431.145,435.46,437.95,440.391,448.534,453.3148,455.69,458.873,462.729,468.3066,470.638,473.821,479.29900000000004,481.641,485.976,491.658,496.335,500.67,506.24760000000003,508.578,511.419,514.602" svgx:width="0.56,0.55,0.4,0.55,0.33,0.58,0.48,0.55,0.33,0.6,0.4,0.33,0.58,0.48,0.4,0.55,0.29,0.61,0.48,0.58,0.33,0.29,0.61,0.44,0.5,0.33,0.29,0.55,0.58,0.55,0.55,0.33,0.55,0.33,0.58,0.29,0.42,0.55,0.88,0.55,0.4,0.6,0.58,0.55,0.29,0.55,0.56,0.56,0.55,0.5,0.42,0.55,0.6,0.55,0.42,0.42,0.48,0.42,0.42,0.29,0.58,0.56,0.55,0.6,0.5,0.5,0.5,0.55,0.42,0.56,0.88,0.88,0.48,0.33,0.4,0.56,0.25,0.55,0.83,0.48,0.55,0.33,0.4,0.56,0.55,0.33,0.55,0.55,0.44,0.58,0.48,0.44,0.56,0.55,0.29,0.33,0.42" style="fill:rgb(0,0,0);font-family:URWPalladioL-Roma;font-size:9.96px;stroke:none;">For the further identiﬁcation of this morphology as possessing P432 symmetry, we try to check its</text>
   <text y="473.947" x="76.535,82.185,88.099,93.648,102.123,107.8998,110.78,115.648,121.339,127.466,130.423,136.165,141.246,144.203,149.07,154.984,158.2708,161.041,170.705,176.355,180.867,186.517" svgx:width="0.56,0.58,0.55,0.83,0.58,0.55,0.48,0.56,0.6,0.29,0.56,0.5,0.29,0.48,0.58,0.33,0.55,1.0,0.56,0.44,0.56,0.55" style="fill:rgb(0,0,0);font-family:URWPalladioL-Roma;font-size:9.96px;stroke:none;">known equivalent Wycko</text>
   <text y="473.947" x="192.066" svgx:width="0.61" style="fill:rgb(0,0,0);font-family:Rpxr;font-size:9.96px;stroke:none;">ﬀ</text>
   <text y="473.947" x="200.989,207.096,212.645,216.953,219.91,223.223,226.18,231.729,237.643,241.951,244.441,248.74,254.054,259.135,264.755,267.712" svgx:width="0.6,0.55,0.42,0.29,0.33,0.29,0.55,0.58,0.42,0.25,0.55,0.61,0.5,0.55,0.29,0.48" style="fill:rgb(0,0,0);font-family:URWPalladioL-Roma;font-size:9.96px;stroke:none;">positions. Table</text>
   <text y="473.947" x="275.323" svgx:width="0.5" style="fill:rgb(8,117,183);font-family:URWPalladioL-Roma;font-size:9.96px;stroke:none;">4</text>
   <text y="473.947" x="283.148,286.105,289.062,293.37,296.683,300.8662,303.736,307.048,312.962,317.7428,320.574,326.722,330.736,335.044,338.3308,341.101,344.485,350.033,356.161,360.145,362.918,372.582,378.232,382.744,388.394" svgx:width="0.29,0.29,0.42,0.33,0.42,0.55,0.33,0.58,0.48,0.55,0.61,0.4,0.42,0.33,0.55,0.33,0.55,0.6,0.4,0.55,1.0,0.56,0.44,0.56,0.55" style="fill:rgb(0,0,0);font-family:URWPalladioL-Roma;font-size:9.96px;stroke:none;">lists the ﬁrst four Wycko</text>
   <text y="473.947" x="393.946" svgx:width="0.61" style="fill:rgb(0,0,0);font-family:Rpxr;font-size:9.96px;stroke:none;">ﬀ</text>
   <text y="473.947" x="402.869,408.976,414.525,418.833,421.79,425.103,428.06,433.609,439.523,443.7062,446.575,451.656,454.613,460.161,466.076,471.65360000000004,474.469,482.944,485.901,489.214,494.9908,497.872,501.185,507.099,511.967,514.924" svgx:width="0.6,0.55,0.42,0.29,0.33,0.29,0.55,0.58,0.42,0.55,0.5,0.29,0.55,0.58,0.56,0.55,0.83,0.29,0.33,0.58,0.55,0.33,0.58,0.48,0.29,0.4" style="fill:rgb(0,0,0);font-family:URWPalladioL-Roma;font-size:9.96px;stroke:none;">positions along with their</text>
   <text y="488.627" x="76.535,82.5,85.342,89.481,93.816,97.497,102.174,105.356,108.198,113.079,117.756,123.8316,125.957,130.292,135.623,140.954,144.634,150.6,153.441,159.123,164.005,167.188,171.864,176.0472,178.25,183.131,188.814,194.8896,197.015,200.198,205.88,210.6608,212.802,215.643,220.974,225.309,230.191,233.0794,235.277,245.109,250.508,253.349,258.68,263.015,268.5926,270.689,275.024,280.355,288.976,294.844,300.174,304.314,307.155,310.338,313.179,318.51" svgx:width="0.61,0.29,0.42,0.44,0.4,0.48,0.33,0.29,0.5,0.48,0.61,0.55,0.44,0.55,0.55,0.4,0.61,0.29,0.58,0.5,0.33,0.48,0.42,0.55,0.5,0.58,0.61,0.55,0.33,0.58,0.48,0.55,0.29,0.55,0.44,0.5,0.29,0.55,0.78,0.55,0.29,0.55,0.44,0.56,0.55,0.44,0.55,0.88,0.6,0.55,0.42,0.29,0.33,0.29,0.55,0.58" style="fill:rgb(0,0,0);font-family:URWPalladioL-Roma;font-size:9.96px;stroke:none;">discretized coordinates and the local Ablock composition</text>
   <text y="488.627" x="326.432" svgx:width="0.67" style="fill:rgb(0,0,0);font-family:Rpxmi;font-size:9.96px;stroke:none;">φ</text>
   <text y="490.462" x="333.067" svgx:width="0.72" style="fill:rgb(0,0,0);font-family:URWPalladioL-Ital;font-size:7.57px;stroke:none;">A</text>
   <text y="488.627" x="339.157" svgx:width="0.39" style="fill:rgb(0,0,0);font-family:CMR10;font-size:10.38px;stroke:none;">(</text>
   <text y="481.828" x="343.306" svgx:width="1.01" style="fill:rgb(0,0,0);font-family:Pxsy;font-size:7.57px;stroke:none;">→</text>
   <text y="488.627" x="345.207" svgx:width="0.39" style="fill:rgb(0,0,0);font-family:URWPalladioL-Ital;font-size:9.96px;stroke:none;">r</text>
   <text y="488.627" x="351.108" svgx:width="0.39" style="fill:rgb(0,0,0);font-family:CMR10;font-size:10.38px;stroke:none;">)</text>
   <text y="488.627" x="355.258,357.748,361.106,368.702,372.8852,375.078,378.26,383.943,388.619,392.3,397.0808,399.222,402.063,406.2462,408.439,413.41900000000004,415.566,419.706,424.588,427.77,430.612,434.751,438.002,442.884,447.219,450.402,455.733,459.589,465.1666,467.263,471.94,477.407,483.295,486.136,491.652,496.534,499.365,504.042,509.724,514.059" svgx:width="0.25,0.55,0.78,0.42,0.55,0.33,0.58,0.48,0.4,0.48,0.55,0.29,0.42,0.55,0.5,0.55,0.42,0.5,0.33,0.29,0.42,0.33,0.5,0.44,0.33,0.55,0.4,0.56,0.55,0.48,0.56,0.6,0.29,0.56,0.5,0.29,0.48,0.58,0.44,0.48" style="fill:rgb(0,0,0);font-family:URWPalladioL-Roma;font-size:9.96px;stroke:none;">. As there is a satisfactory equivalence</text>
   <text y="503.373" x="76.535,81.866" svgx:width="0.55,0.33" style="fill:rgb(0,0,0);font-family:URWPalladioL-Roma;font-size:9.96px;stroke:none;">of</text>
   <text y="503.373" x="87.498" svgx:width="0.67" style="fill:rgb(0,0,0);font-family:Rpxmi;font-size:9.96px;stroke:none;">φ</text>
   <text y="505.207" x="94.133" svgx:width="0.72" style="fill:rgb(0,0,0);font-family:URWPalladioL-Ital;font-size:7.57px;stroke:none;">A</text>
   <text y="503.373" x="100.222" svgx:width="0.39" style="fill:rgb(0,0,0);font-family:CMR10;font-size:10.38px;stroke:none;">(</text>
   <text y="496.573" x="104.371" svgx:width="1.01" style="fill:rgb(0,0,0);font-family:Pxsy;font-size:7.57px;stroke:none;">→</text>
   <text y="503.373" x="106.273" svgx:width="0.39" style="fill:rgb(0,0,0);font-family:URWPalladioL-Ital;font-size:9.96px;stroke:none;">r</text>
   <text y="503.373" x="112.174" svgx:width="0.39" style="fill:rgb(0,0,0);font-family:CMR10;font-size:10.38px;stroke:none;">)</text>
   <text y="503.373" x="118.703,121.954,127.285,131.269,133.524,136.707,142.389,147.1698,149.448,155.355,159.211,163.351,166.6378,168.906,172.157,177.488,183.375,187.359,189.614,195.482,200.813,204.952,207.794,210.976,213.818,219.148,224.9248,227.213,232.641,236.322,241.653,247.54,253.408,257.548,260.038,262.39,265.231,268.5178,270.787,273.628,277.8112,280.15,284.485,289.815,295.498,299.637,302.479,308.444,313.121,316.801,321.478,327.5536,329.826,333.008,338.691,343.572,346.85880000000003,349.128,352.311,357.993,362.7738,365.052,370.48,373.321,378.838,383.514,389.2908,391.579,397.447,402.123,406.458,412.346,415.187,418.028,422.909,426.893,429.148,437.769,443.1,446.957,452.824,458.507,463.837,466.679,472.009,477.438,483.0156,485.239,490.638,495.314,498.156,503.486,509.169,514.597" svgx:width="0.33,0.55,0.4,0.55,0.33,0.58,0.48,0.55,0.61,0.4,0.42,0.33,0.55,0.33,0.55,0.6,0.4,0.55,0.6,0.55,0.42,0.29,0.33,0.29,0.55,0.58,0.55,0.56,0.4,0.55,0.6,0.6,0.42,0.25,0.55,0.29,0.33,0.55,0.29,0.42,0.55,0.44,0.55,0.58,0.42,0.29,0.61,0.48,0.4,0.48,0.61,0.55,0.33,0.58,0.5,0.33,0.55,0.33,0.58,0.48,0.55,0.56,0.29,0.56,0.48,0.58,0.55,0.6,0.48,0.44,0.6,0.29,0.29,0.5,0.4,0.55,0.88,0.55,0.4,0.6,0.58,0.55,0.29,0.55,0.56,0.56,0.55,0.55,0.48,0.29,0.55,0.58,0.56,0.42" style="fill:rgb(0,0,0);font-family:URWPalladioL-Roma;font-size:9.96px;stroke:none;">for the ﬁrst four position groups, it is considered that the given peculiar morphology belongs</text>
   <text y="516.882" x="76.535,79.783,85.261,87.713,90.961,96.759,101.5398,104.022,108.445,112.38,117.92,122.144,125.392,130.373,133.272,137.4552,139.987,145.426,148.7128,151.235,157.252,162.233,167.215,172.195,174.686,178.911,184.45,193.247,202.044,206.816,210.064,213.999,218.432" svgx:width="0.33,0.55,0.55,0.33,0.58,0.48,0.55,0.44,0.4,0.56,0.42,0.33,0.5,0.29,0.42,0.55,0.55,0.33,0.55,0.6,0.5,0.5,0.5,0.55,0.42,0.56,0.88,0.88,0.48,0.33,0.4,0.56,0.25" style="fill:rgb(0,0,0);font-family:URWPalladioL-Roma;font-size:9.96px;stroke:none;">to the crystals of P432 symmetry.</text>
   <text y="541.623" x="200.82,205.805,210.289,215.767,218.753,223.238,225.478,229.961" svgx:width="0.67,0.5,0.61,0.33,0.5,0.55,0.5,0.25" style="fill:rgb(0,0,0);font-family:URWPalladioL-Bold;font-size:8.97px;stroke:none;">Table 4.</text>
   <text y="541.623" x="235.34,243.858,248.843,252.824,257.81" svgx:width="1.0,0.56,0.44,0.56,0.55" style="fill:rgb(0,0,0);font-family:URWPalladioL-Roma;font-size:8.97px;stroke:none;">Wycko</text>
   <text y="541.623" x="262.705" svgx:width="0.61" style="fill:rgb(0,0,0);font-family:Rpxr;font-size:8.97px;stroke:none;">ﬀ</text>
   <text y="541.623" x="270.398,275.814,280.709,284.511,287.12,290.043,292.653,297.548,302.767,306.5344,308.81,311.796,316.692,320.28000000000003,322.475,327.891,332.374,336.857,341.34200000000004,343.582,351.499,356.395,359.937,365.325,370.544,375.439,378.049,382.944,387.93,391.92" svgx:width="0.6,0.55,0.42,0.29,0.33,0.29,0.55,0.58,0.42,0.55,0.33,0.55,0.4,0.55,0.6,0.5,0.5,0.5,0.55,0.88,0.55,0.4,0.6,0.58,0.55,0.29,0.55,0.56,0.56,0.25" style="fill:rgb(0,0,0);font-family:URWPalladioL-Roma;font-size:8.97px;stroke:none;">Positions for P432 morphology.</text>
  </g>
  <path style="fill:none;stroke:rgb(0,0,0);stroke-width:1.0;" d="M127.81 551.81 L467.47 551.81 "/>
  <g begin="text">
   <text y="562.474" x="145.429,153.499,158.429,161.117,163.804,166.491,171.422,174.109,176.796,180.379,183.066,185.754,190.2732,235.891,240.822,245.308,248.891,251.579,254.266,256.953,261.44,266.3627,299.779,306.501,309.189,312.772,316.355,319.494,323.529,326.216,328.903,332.938,336.973,341.89570000000003,343.687,349.513,354.0,358.487,361.626,366.557,369.244,374.174,378.209,380.897,384.931" svgx:width="1.0,0.61,0.33,0.33,0.33,0.61,0.33,0.33,0.44,0.33,0.33,0.56,0.55,0.61,0.56,0.44,0.33,0.33,0.33,0.56,0.61,0.55,0.83,0.33,0.44,0.44,0.39,0.5,0.33,0.33,0.5,0.5,0.61,0.55,0.72,0.56,0.56,0.39,0.61,0.33,0.61,0.5,0.33,0.5,0.44" style="fill:rgb(0,0,0);font-family:URWPalladioL-Bold;font-size:8.07px;stroke:none;">Multiplicity Position Discretized Coordinates</text>
   <text y="563.37" x="418.551" svgx:width="0.74" style="fill:rgb(0,0,0);font-family:Rpxbmi;font-size:8.07px;stroke:none;">φ</text>
   <text y="564.799" x="424.547" svgx:width="0.72" style="fill:rgb(0,0,0);font-family:URWPalladioL-BoldItal;font-size:6.28px;stroke:none;">A</text>
   <text y="563.37" x="429.627" svgx:width="0.39" style="fill:rgb(0,0,0);font-family:CMR10;font-size:8.41px;stroke:none;">(</text>
   <text y="558.028" x="432.989" svgx:width="1.01" style="fill:rgb(0,0,0);font-family:Pxsy;font-size:6.28px;stroke:none;">→</text>
   <text y="563.37" x="434.602" svgx:width="0.39" style="fill:rgb(0,0,0);font-family:URWPalladioL-BoldItal;font-size:8.07px;stroke:none;">r</text>
   <text y="563.37" x="439.454" svgx:width="0.39" style="fill:rgb(0,0,0);font-family:CMR10;font-size:8.41px;stroke:none;">)</text>
  </g>
  <path style="fill:none;stroke:rgb(0,0,0);stroke-width:0.72;" d="M127.81 568.01 L467.47 568.01 "/>
  <g begin="text">
   <text y="577.555" x="163.8,167.835,171.87,243.061,247.096,249.113,253.148,255.166,259.201,336.081,340.116,342.133,346.168,348.186,352.221,415.552,419.587,421.604,425.639,429.674,433.709,437.744,441.779" svgx:width="0.5,0.5,0.55,0.5,0.25,0.5,0.25,0.5,0.55,0.5,0.25,0.5,0.25,0.5,0.55,0.5,0.25,0.5,0.5,0.5,0.5,0.5,0.5" style="fill:rgb(0,0,0);font-family:URWPalladioL-Roma;font-size:8.07px;stroke:none;">1a 0,0,0 1,1,1 0.905336</text>
  </g>
  <path style="fill:none;stroke:rgb(0,0,0);stroke-width:0.27;" d="M127.81 582.41 L467.47 582.41 "/>
  <g begin="text">
   <text y="591.953" x="163.586,167.62,172.0585,233.534" svgx:width="0.5,0.55,0.55,0.5" style="fill:rgb(0,0,0);font-family:URWPalladioL-Roma;font-size:8.07px;stroke:none;">1b 1</text>
   <text y="591.953" x="237.569" svgx:width="0.29" style="fill:rgb(0,0,0);font-family:Rpxr;font-size:8.07px;stroke:none;">/</text>
   <text y="591.953" x="239.886,243.921,245.938" svgx:width="0.5,0.25,0.5" style="fill:rgb(0,0,0);font-family:URWPalladioL-Roma;font-size:8.07px;stroke:none;">2,1</text>
   <text y="591.953" x="249.973" svgx:width="0.29" style="fill:rgb(0,0,0);font-family:Rpxr;font-size:8.07px;stroke:none;">/</text>
   <text y="591.953" x="252.289,256.324,258.341" svgx:width="0.5,0.25,0.5" style="fill:rgb(0,0,0);font-family:URWPalladioL-Roma;font-size:8.07px;stroke:none;">2,1</text>
   <text y="591.953" x="262.376" svgx:width="0.29" style="fill:rgb(0,0,0);font-family:Rpxr;font-size:8.07px;stroke:none;">/</text>
   <text y="591.953" x="264.692,268.72700000000003,330.024,334.059,338.094,340.112,344.146,348.181,350.199,354.234,358.269,415.556,419.591,421.608,425.643,429.678,433.713,437.748,441.783" svgx:width="0.5,0.55,0.5,0.5,0.25,0.5,0.5,0.25,0.5,0.5,0.55,0.5,0.25,0.5,0.5,0.5,0.5,0.5,0.5" style="fill:rgb(0,0,0);font-family:URWPalladioL-Roma;font-size:8.07px;stroke:none;">2 17,17,17 0.890529</text>
  </g>
  <path style="fill:none;stroke:rgb(0,0,0);stroke-width:0.27;" d="M127.81 596.81 L467.47 596.81 "/>
  <g begin="text">
   <text y="619.049" x="164.026,168.061" svgx:width="0.5,0.44" style="fill:rgb(0,0,0);font-family:URWPalladioL-Roma;font-size:8.07px;stroke:none;">3c</text>
   <text y="606.352" x="236.71,240.745,242.762" svgx:width="0.5,0.25,0.5" style="fill:rgb(0,0,0);font-family:URWPalladioL-Roma;font-size:8.07px;stroke:none;">0,1</text>
   <text y="606.352" x="246.797" svgx:width="0.29" style="fill:rgb(0,0,0);font-family:Rpxr;font-size:8.07px;stroke:none;">/</text>
   <text y="606.352" x="249.114,253.148,255.166" svgx:width="0.5,0.25,0.5" style="fill:rgb(0,0,0);font-family:URWPalladioL-Roma;font-size:8.07px;stroke:none;">2,1</text>
   <text y="606.352" x="259.201" svgx:width="0.29" style="fill:rgb(0,0,0);font-family:Rpxr;font-size:8.07px;stroke:none;">/</text>
   <text y="606.352" x="261.516,265.55100000000004,332.046,336.081,338.098,342.133,346.168,348.186,352.22,356.25500000000005,415.552,419.587,421.604,425.639,429.674,433.709,437.744,441.779" svgx:width="0.5,0.55,0.5,0.25,0.5,0.5,0.25,0.5,0.5,0.55,0.5,0.25,0.5,0.5,0.5,0.5,0.5,0.5" style="fill:rgb(0,0,0);font-family:URWPalladioL-Roma;font-size:8.07px;stroke:none;">2 1,17,17 0.921184</text>
  </g>
  <path style="fill:none;stroke:rgb(0,0,0);stroke-width:0.27;" d="M207.86 611.2 L467.47 611.2 "/>
  <g begin="text">
   <text y="620.75" x="236.71" svgx:width="0.5" style="fill:rgb(0,0,0);font-family:URWPalladioL-Roma;font-size:8.07px;stroke:none;">1</text>
   <text y="620.75" x="240.745" svgx:width="0.29" style="fill:rgb(0,0,0);font-family:Rpxr;font-size:8.07px;stroke:none;">/</text>
   <text y="620.75" x="243.061,247.096,249.113,253.148,255.166" svgx:width="0.5,0.25,0.5,0.25,0.5" style="fill:rgb(0,0,0);font-family:URWPalladioL-Roma;font-size:8.07px;stroke:none;">2,0,1</text>
   <text y="620.75" x="259.201" svgx:width="0.29" style="fill:rgb(0,0,0);font-family:Rpxr;font-size:8.07px;stroke:none;">/</text>
   <text y="620.75" x="261.516,265.55100000000004,332.046,336.081,340.116,342.133,346.168,348.186,352.22,356.25500000000005,417.569,421.604,423.622,427.657,431.692,435.726,439.761" svgx:width="0.5,0.55,0.5,0.5,0.25,0.5,0.25,0.5,0.5,0.55,0.5,0.25,0.5,0.5,0.5,0.5,0.5" style="fill:rgb(0,0,0);font-family:URWPalladioL-Roma;font-size:8.07px;stroke:none;">2 17,1,17 0.86979</text>
  </g>
  <path style="fill:none;stroke:rgb(0,0,0);stroke-width:0.27;" d="M207.86 625.6 L467.47 625.6 "/>
  <g begin="text">
   <text y="635.15" x="236.71" svgx:width="0.5" style="fill:rgb(0,0,0);font-family:URWPalladioL-Roma;font-size:8.07px;stroke:none;">1</text>
   <text y="635.15" x="240.745" svgx:width="0.29" style="fill:rgb(0,0,0);font-family:Rpxr;font-size:8.07px;stroke:none;">/</text>
   <text y="635.15" x="243.061,247.096,249.113" svgx:width="0.5,0.25,0.5" style="fill:rgb(0,0,0);font-family:URWPalladioL-Roma;font-size:8.07px;stroke:none;">2,1</text>
   <text y="635.15" x="253.148" svgx:width="0.29" style="fill:rgb(0,0,0);font-family:Rpxr;font-size:8.07px;stroke:none;">/</text>
   <text y="635.15" x="255.464,259.499,261.516,265.55100000000004,332.046,336.081,340.116,342.133,346.168,350.203,352.22,356.25500000000005,415.552,419.587,421.604,425.639,429.674,433.709,437.744,441.779" svgx:width="0.5,0.25,0.5,0.55,0.5,0.5,0.25,0.5,0.5,0.25,0.5,0.55,0.5,0.25,0.5,0.5,0.5,0.5,0.5,0.5" style="fill:rgb(0,0,0);font-family:URWPalladioL-Roma;font-size:8.07px;stroke:none;">2,0 17,17,1 0.903127</text>
  </g>
  <path style="fill:none;stroke:rgb(0,0,0);stroke-width:0.27;" d="M127.81 640.0 L467.47 640.0 "/>
  <g begin="text">
   <text y="662.246" x="163.352,167.386" svgx:width="0.5,0.61" style="fill:rgb(0,0,0);font-family:URWPalladioL-Roma;font-size:8.07px;stroke:none;">3d</text>
   <text y="649.549" x="239.886" svgx:width="0.5" style="fill:rgb(0,0,0);font-family:URWPalladioL-Roma;font-size:8.07px;stroke:none;">1</text>
   <text y="649.549" x="243.92" svgx:width="0.29" style="fill:rgb(0,0,0);font-family:Rpxr;font-size:8.07px;stroke:none;">/</text>
   <text y="649.549" x="246.236,250.271,252.288,256.323,258.341,262.37600000000003,334.059,338.094,342.129,344.147,348.181,350.199,354.23400000000004,415.556,419.591,421.608,425.643,429.678,433.713,437.748,441.783" svgx:width="0.5,0.25,0.5,0.25,0.5,0.55,0.5,0.5,0.25,0.5,0.25,0.5,0.55,0.5,0.25,0.5,0.5,0.5,0.5,0.5,0.5" style="fill:rgb(0,0,0);font-family:URWPalladioL-Roma;font-size:8.07px;stroke:none;">2,0,0 17,1,1 0.882721</text>
  </g>
  <path style="fill:none;stroke:rgb(0,0,0);stroke-width:0.27;" d="M207.86 654.4 L467.47 654.4 "/>
  <g begin="text">
   <text y="663.947" x="239.886,243.921,245.938" svgx:width="0.5,0.25,0.5" style="fill:rgb(0,0,0);font-family:URWPalladioL-Roma;font-size:8.07px;stroke:none;">0,1</text>
   <text y="663.947" x="249.973" svgx:width="0.29" style="fill:rgb(0,0,0);font-family:Rpxr;font-size:8.07px;stroke:none;">/</text>
   <text y="663.947" x="252.289,256.324,258.341,262.37600000000003,334.06,338.094,340.112,344.147,348.182,350.199,354.23400000000004,415.556,419.591,421.608,425.643,429.678,433.713,437.748,441.783" svgx:width="0.5,0.25,0.5,0.55,0.5,0.25,0.5,0.5,0.25,0.5,0.55,0.5,0.25,0.5,0.5,0.5,0.5,0.5,0.5" style="fill:rgb(0,0,0);font-family:URWPalladioL-Roma;font-size:8.07px;stroke:none;">2,0 1,17,1 0.911596</text>
  </g>
  <path style="fill:none;stroke:rgb(0,0,0);stroke-width:0.27;" d="M207.86 668.8 L467.47 668.8 "/>
  <g begin="text">
   <text y="678.346" x="239.886,243.921,245.938,249.973,251.99" svgx:width="0.5,0.25,0.5,0.25,0.5" style="fill:rgb(0,0,0);font-family:URWPalladioL-Roma;font-size:8.07px;stroke:none;">0,0,1</text>
   <text y="678.346" x="256.025" svgx:width="0.29" style="fill:rgb(0,0,0);font-family:Rpxr;font-size:8.07px;stroke:none;">/</text>
   <text y="678.346" x="258.341,262.37600000000003,334.06,338.095,340.112,344.147,346.164,350.199,354.23400000000004,417.574,421.609,423.626,427.661,431.696,435.731,439.766" svgx:width="0.5,0.55,0.5,0.25,0.5,0.25,0.5,0.5,0.55,0.5,0.25,0.5,0.5,0.5,0.5,0.5" style="fill:rgb(0,0,0);font-family:URWPalladioL-Roma;font-size:8.07px;stroke:none;">2 1,1,17 0.91643</text>
  </g>
  <path style="fill:none;stroke:rgb(0,0,0);stroke-width:0.27;" d="M127.81 683.42 L467.47 683.42 "/>
  <g begin="text">
   <text y="706.993" x="76.535,81.516,84.007,88.988,91.478,94.966,101.053,105.666,111.205,113.974,116.744,119.514,124.126,128.002,130.771,136.311,144.0798,146.552,152.639,156.515,160.39,163.16,167.583,172.564,175.334,179.389,182.158,185.476,190.456,192.948,197.371,202.911,207.891,210.383,215.922,219.618,223.493,227.3774,229.859,235.947,241.486,245.361,249.057,254.039,256.808,260.684,264.56840000000005,267.05,269.819,275.39660000000003,277.849,281.167,286.148,290.03240000000005,292.514,295.832,301.371,305.426,309.849,317.6,322.581,326.278,330.153,334.028,337.904,340.673,345.286,348.056,351.9404,354.422,360.509,363.279,367.333,370.651,376.19,379.886" svgx:width="0.5,0.25,0.5,0.25,0.55,0.61,0.46,0.56,0.28,0.28,0.28,0.46,0.39,0.28,0.56,0.78,0.55,0.61,0.39,0.39,0.28,0.44,0.5,0.28,0.41,0.28,0.33,0.5,0.55,0.44,0.56,0.5,0.55,0.56,0.39,0.39,0.39,0.55,0.61,0.56,0.39,0.39,0.5,0.28,0.39,0.39,0.55,0.28,0.56,0.55,0.33,0.5,0.39,0.55,0.33,0.56,0.41,0.44,0.78,0.5,0.39,0.39,0.39,0.39,0.28,0.46,0.28,0.39,0.55,0.61,0.28,0.41,0.33,0.56,0.39,0.39" style="fill:rgb(0,0,0);font-family:URWPalladioL-Ital;font-size:9.96px;stroke:none;">3.4. Equilibrium Periodicity and Free Energies in the Incompressible Picture</text>
   <text y="726.48" x="97.795,105.701,111.67699999999999,115.731,119.043,124.521,128.504,134.418,139.967,147.527,150.017,154.346,162.821,167.6018,171.601,177.515,182.596,188.337,193.1178,197.127,200.084,206.293,211.161,217.075,220.388,223.345,229.493,234.36,240.43560000000002,244.491,247.804,253.718,257.549,262.417,267.1978,271.207,277.121,281.989,290.25579999999997,294.376,303.349,308.897,312.911,319.018,324.933,330.481,333.438,338.986,344.636,347.594,352.461,356.6442,360.692,369.167,372.124,375.437,381.2138,385.264,388.688,397.661,402.742,405.232,409.561,415.698,421.612,426.693,435.666,438.156,442.485,447.566,453.48,459.5556,463.601,469.739,474.82,479.901,484.88100000000003,488.904,493.416,497.43,503.08,507.389,510.702,515.782" svgx:width="0.78,0.6,0.55,0.33,0.55,0.55,0.58,0.55,0.83,0.25,0.55,0.83,0.48,0.55,0.58,0.5,0.56,0.48,0.55,0.29,0.61,0.48,0.58,0.33,0.29,0.61,0.48,0.61,0.55,0.33,0.58,0.4,0.48,0.48,0.55,0.58,0.48,0.83,0.55,0.88,0.55,0.4,0.6,0.58,0.55,0.29,0.55,0.56,0.29,0.48,0.42,0.55,0.83,0.29,0.33,0.58,0.55,0.34,0.88,0.5,0.25,0.55,0.6,0.58,0.5,0.88,0.25,0.55,0.5,0.58,0.61,0.55,0.6,0.5,0.5,0.5,0.55,0.44,0.4,0.56,0.42,0.33,0.5,0.29" style="fill:rgb(0,0,0);font-family:URWPalladioL-Roma;font-size:9.96px;stroke:none;">Up to now, we have identiﬁed three new morphologies with Im3, Pn3m, and P432 crystal</text>
   <text y="739.989" x="76.535,80.844,86.494,95.467,104.439,109.307,112.62,116.634,121.176,123.666,129.255,132.679,135.9658,139.173,142.13,146.3132,149.609,155.523,160.391,164.902,169.77,174.079,178.387,183.468,187.482,193.0596,196.313,199.626,205.104,208.344,212.856,218.405,227.378,233.485,238.566,242.397,247.1778,250.445,253.758,259.672,264.4528,267.71,271.094,274.935,279.803,284.5838,287.841,292.708,298.622,303.49,307.321,312.971,315.928,320.795,324.9782,328.285,333.833,337.11980000000005,340.387,343.7,349.614,354.3948,357.663,363.577,368.444,376.919,379.876,385.4536,388.697,393.564,399.306,404.854,407.811,413.553,418.42,424.4956,427.8,433.714,438.795,444.709,450.257,454.566,457.879,461.811,467.939,472.451,475.764,481.891,485.732,490.6,494.7832,498.079,506.554,509.511,512.824" svgx:width="0.42,0.56,0.88,0.88,0.48,0.33,0.4,0.56,0.25,0.55,0.34,0.33,0.55,0.29,0.42,0.55,0.58,0.48,0.44,0.48,0.42,0.42,0.5,0.4,0.56,0.55,0.33,0.55,0.55,0.44,0.55,0.88,0.6,0.5,0.4,0.48,0.55,0.33,0.58,0.48,0.55,0.33,0.4,0.48,0.48,0.55,0.48,0.58,0.48,0.4,0.56,0.29,0.48,0.42,0.55,0.55,0.33,0.55,0.33,0.58,0.48,0.55,0.58,0.48,0.83,0.29,0.56,0.55,0.48,0.56,0.55,0.29,0.56,0.48,0.61,0.55,0.58,0.5,0.58,0.55,0.42,0.33,0.4,0.6,0.44,0.33,0.6,0.4,0.48,0.42,0.55,0.83,0.29,0.33,0.58" style="fill:rgb(0,0,0);font-family:URWPalladioL-Roma;font-size:9.96px;stroke:none;">symmetry. It is necessary to compare the free energies of the newly evolved nanostructures with</text>
   <text y="753.498" x="76.535,79.796,85.617,91.079,95.32,100.10079999999999,102.591,108.053,111.3398,113.874,119.886,123.657,128.448,134.099,137.01,142.471,148.503,152.744,155.654,161.2316,163.696,169.258,175.079,180.54,188.882,194.6588,197.195,201.436,204.696,208.567,214.599,219.04,222.301,228.332,232.103,236.894,241.0772,243.616,247.857,253.888,258.33,264.10679999999996,266.642,271.643,275.8262,278.364,284.476,289.937,295.969,301.5,304.411,309.1918,311.693,317.254,322.815,326.586,332.048,334.958,341.07,345.2532,347.791,352.793,358.614,364.6896,367.206,372.667,375.928,381.75,386.541,390.492,394.733,397.223,400.724,406.286,411.747,415.731,418.179,421.439,427.261,430.172,434.3552,436.903,442.915,448.946,452.897,458.909,464.37,468.611,473.402,475.892,478.383,481.644,487.465,492.2458,494.747,499.188,505.01,510.011,512.922" svgx:width="0.33,0.58,0.55,0.42,0.48,0.55,0.55,0.33,0.55,0.6,0.4,0.48,0.56,0.29,0.55,0.6,0.42,0.29,0.56,0.55,0.56,0.58,0.55,0.83,0.58,0.55,0.42,0.33,0.4,0.6,0.44,0.33,0.6,0.4,0.48,0.42,0.55,0.42,0.6,0.44,0.58,0.55,0.5,0.42,0.55,0.61,0.55,0.6,0.55,0.29,0.48,0.55,0.56,0.56,0.4,0.55,0.29,0.61,0.42,0.55,0.5,0.58,0.61,0.55,0.55,0.33,0.58,0.48,0.4,0.42,0.25,0.55,0.56,0.55,0.4,0.55,0.33,0.58,0.29,0.42,0.55,0.6,0.6,0.4,0.6,0.55,0.42,0.48,0.25,0.55,0.33,0.58,0.48,0.55,0.44,0.58,0.5,0.29,0.58" style="fill:rgb(0,0,0);font-family:URWPalladioL-Roma;font-size:9.96px;stroke:none;">those of previously known structures such as double gyroids and others. For this purpose, the chain</text>
   <text y="767.008" x="76.535,81.546,85.325,89.775,95.608,98.524,101.791,106.592,111.042,114.309,120.353,124.131,128.9118,131.418,139.776,144.787,148.9702,151.512,157.576,162.747,167.548,173.6236,176.157,179.425,184.90300000000002,187.382,190.65,196.483,201.2638,203.759,206.676,209.592,215.425,220.226,225.237,229.221,231.681,239.479,245.55460000000002,248.078,254.202,257.118,262.661,265.577,271.049,275.499,281.07660000000004,283.557,288.007,293.479,299.503,304.975,307.891,313.464,322.314,327.114,331.09799999999996,333.549,338.56,344.393,350.4686,353.002,356.269,362.102,366.8828,369.389,373.839,379.311,388.161,394.184,399.656,403.906,406.822,410.09,413.006,418.478,424.311,428.4942,431.036,439.395,444.196,447.974,452.7548,455.26,459.51,464.311,467.5978,470.053,473.321" svgx:width="0.5,0.4,0.44,0.58,0.29,0.33,0.48,0.44,0.33,0.6,0.4,0.48,0.55,0.83,0.5,0.42,0.55,0.61,0.52,0.48,0.61,0.55,0.33,0.55,0.55,0.33,0.58,0.48,0.55,0.29,0.29,0.58,0.48,0.5,0.4,0.55,0.78,0.61,0.55,0.61,0.29,0.55,0.29,0.55,0.44,0.56,0.55,0.44,0.55,0.6,0.55,0.29,0.56,0.88,0.48,0.4,0.55,0.5,0.58,0.61,0.55,0.33,0.58,0.48,0.55,0.44,0.55,0.88,0.6,0.55,0.42,0.29,0.33,0.29,0.55,0.58,0.42,0.55,0.83,0.48,0.4,0.48,0.55,0.42,0.48,0.33,0.55,0.33,0.55" style="fill:rgb(0,0,0);font-family:URWPalladioL-Roma;font-size:9.96px;stroke:none;">architecture was ﬁxed to the linear AB diblock copolymer and the compositions were set to</text>
   <text y="767.008" x="481.279" svgx:width="0.67" style="fill:rgb(0,0,0);font-family:Rpxmi;font-size:9.96px;stroke:none;">φ</text>
   <text y="768.842" x="487.914" svgx:width="0.72" style="fill:rgb(0,0,0);font-family:URWPalladioL-Ital;font-size:7.57px;stroke:none;">A</text>
   <text y="767.008" x="496.369" svgx:width="0.67" style="fill:rgb(0,0,0);font-family:Rpxr;font-size:9.96px;stroke:none;">=</text>
   <text y="767.008" x="505.525,510.506,512.997,517.978" svgx:width="0.5,0.25,0.5,0.25" style="fill:rgb(0,0,0);font-family:URWPalladioL-Roma;font-size:9.96px;stroke:none;">0.4.</text>
  </g>
 </g>
</svg>
