<?xml version="1.0" encoding="UTF-8"?>
<svg height="767.134" width="561.91" xmlns="http://www.w3.org/2000/svg">
 <g id="page" xmlns:svgx="http://www.xml-cml.org/schema/svgx">
  <g begin="text">
   <text y="139.294" x="43.597,53.179,61.017,68.995,72.622,81.618,88.006" svgx:width="0.69,0.56,0.57,0.26,0.64,0.46,0.5" style="fill:rgb(0,0,0);font-family:AdvOTea1a7398;font-size:13.95px;stroke:none;">ARTICLE</text>
   <text y="187.143" x="43.597,59.019,71.452,79.916,91.608,111.024,122.716,130.917,142.872,154.564,166.997,177.948,189.6639,197.686,210.119,217.0529,225.068,244.483,255.936,267.891,280.325,292.017,299.716,305.191,316.1896,324.109,336.542,344.743,357.177,368.869,376.9984,385.111,396.564,408.997,421.4302,429.445,439.894,447.593,455.794,468.228,479.178,486.878,499.311,507.512,518.965" svgx:width="0.64,0.52,0.35,0.49,0.81,0.49,0.34,0.5,0.49,0.52,0.46,0.49,0.55,0.52,0.29,0.55,0.81,0.48,0.5,0.52,0.49,0.32,0.23,0.46,0.55,0.52,0.34,0.52,0.49,0.34,0.55,0.48,0.52,0.52,0.55,0.44,0.32,0.34,0.52,0.46,0.32,0.52,0.34,0.48,0.23" style="fill:rgb(0,0,0);font-family:AdvOTea1a7398;font-size:23.91px;stroke:none;">Co-emergence of magnetic order and structural</text>
   <text y="212.995" x="43.597,56.296,68.729,79.68,87.379,99.812,111.265,118.964,124.44,136.873,149.306,159.8264,167.81,173.286,185.7192,193.719,213.134,224.587,236.543,248.976,260.668,268.367,273.842,281.542" svgx:width="0.53,0.52,0.46,0.32,0.52,0.48,0.32,0.23,0.52,0.52,0.44,0.55,0.23,0.52,0.55,0.81,0.48,0.5,0.52,0.49,0.32,0.23,0.32,0.49" style="fill:rgb(0,0,0);font-family:AdvOTea1a7398;font-size:23.91px;stroke:none;">ﬂuctuations in magnetite</text>
   <text y="240.038" x="43.597,51.126,53.635,59.334,65.033,67.542,71.071,74.6,79.8608,83.509,89.329,94.688,98.447,103.575,108.934,112.693,117.482" svgx:width="0.69,0.23,0.52,0.52,0.23,0.32,0.32,0.48,0.55,0.53,0.49,0.34,0.47,0.49,0.34,0.44,0.23" style="fill:rgb(0,0,0);font-family:AdvOTea1a7398;font-size:10.96px;stroke:none;">Giuditta Perversi</text>
  </g>
  <path style="fill:rgb(146,205,29);stroke:none;stroke-width:1.0;" d="M129.82 237.26 C129.82 239.7 127.84 241.67 125.4 241.67 C122.96 241.67 120.98 239.7 120.98 237.26 C120.98 234.82 122.96 232.84 125.4 232.84 C127.84 232.84 129.82 234.82 129.82 237.26 "/>
  <path style="fill:rgb(255,255,255);stroke:none;stroke-width:1.0;" d="M125.1 238.79 L125.94 238.79 C127.15 238.79 127.42 237.87 127.42 237.42 C127.42 236.67 126.95 236.04 125.92 236.04 L125.1 236.04 L125.1 238.79 ZM124.56 235.57 L126.0 235.57 C127.37 235.57 127.97 236.54 127.97 237.42 C127.97 238.36 127.23 239.26 126.01 239.26 L124.56 239.26 L124.56 235.57 "/>
  <path style="fill:rgb(255,255,255);stroke:none;stroke-width:1.0;" d="M123.87 234.8 C123.87 234.99 123.71 235.15 123.52 235.15 C123.33 235.15 123.17 234.99 123.17 234.8 C123.17 234.61 123.33 234.45 123.52 234.45 C123.71 234.45 123.87 234.61 123.87 234.8 "/>
  <g begin="text">
   <text y="236.013" x="132.435" svgx:width="0.35" style="fill:rgb(0,0,0);font-family:AdvOTea1a7398;font-size:8.77px;stroke:none;">1</text>
   <text y="240.038" x="135.553,137.9642,141.563,147.042,149.552,152.061,156.85,162.22039999999998,165.884,171.703,176.952,181.972,187.67,193.369,199.068" svgx:width="0.22,0.55,0.5,0.23,0.23,0.44,0.49,0.55,0.53,0.48,0.46,0.52,0.52,0.52,0.52" style="fill:rgb(0,0,0);font-family:AdvOTea1a7398;font-size:10.96px;stroke:none;">, Elise Pachoud</text>
  </g>
  <path style="fill:rgb(146,205,29);stroke:none;stroke-width:1.0;" d="M214.57 237.26 C214.57 239.7 212.6 241.67 210.16 241.67 C207.72 241.67 205.74 239.7 205.74 237.26 C205.74 234.82 207.72 232.84 210.16 232.84 C212.6 232.84 214.57 234.82 214.57 237.26 "/>
  <path style="fill:rgb(255,255,255);stroke:none;stroke-width:1.0;" d="M209.85 238.79 L210.7 238.79 C211.9 238.79 212.18 237.87 212.18 237.42 C212.18 236.67 211.71 236.04 210.67 236.04 L209.85 236.04 L209.85 238.79 ZM209.32 235.57 L210.76 235.57 C212.12 235.57 212.72 236.54 212.72 237.42 C212.72 238.36 211.98 239.26 210.76 239.26 L209.32 239.26 L209.32 235.57 "/>
  <path style="fill:rgb(255,255,255);stroke:none;stroke-width:1.0;" d="M208.63 234.8 C208.63 234.99 208.47 235.15 208.28 235.15 C208.08 235.15 207.93 234.99 207.93 234.8 C207.93 234.61 208.08 234.45 208.28 234.45 C208.47 234.45 208.63 234.61 208.63 234.8 "/>
  <g begin="text">
   <text y="236.013" x="217.191" svgx:width="0.35" style="fill:rgb(0,0,0);font-family:AdvOTea1a7398;font-size:8.77px;stroke:none;">1</text>
   <text y="240.038" x="220.309,222.7202,226.374,230.254,235.503,244.402,249.761,254.58339999999998,258.18,265.248,270.947,279.846,285.544" svgx:width="0.22,0.55,0.35,0.48,0.81,0.49,0.44,0.55,0.64,0.52,0.81,0.52,0.48" style="fill:rgb(0,0,0);font-family:AdvOTea1a7398;font-size:10.96px;stroke:none;">, James Cumby</text>
  </g>
  <path style="fill:rgb(146,205,29);stroke:none;stroke-width:1.0;" d="M300.63 237.26 C300.63 239.7 298.65 241.67 296.22 241.67 C293.77 241.67 291.8 239.7 291.8 237.26 C291.8 234.82 293.77 232.84 296.22 232.84 C298.65 232.84 300.63 234.82 300.63 237.26 "/>
  <path style="fill:rgb(255,255,255);stroke:none;stroke-width:1.0;" d="M295.91 238.79 L296.76 238.79 C297.96 238.79 298.24 237.87 298.24 237.42 C298.24 236.67 297.77 236.04 296.73 236.04 L295.91 236.04 L295.91 238.79 ZM295.38 235.57 L296.82 235.57 C298.18 235.57 298.79 236.54 298.79 237.42 C298.79 238.36 298.04 239.26 296.82 239.26 L295.38 239.26 L295.38 235.57 "/>
  <path style="fill:rgb(255,255,255);stroke:none;stroke-width:1.0;" d="M294.68 234.8 C294.68 234.99 294.53 235.15 294.34 235.15 C294.14 235.15 293.99 234.99 293.99 234.8 C293.99 234.61 294.14 234.45 294.34 234.45 C294.53 234.45 294.68 234.61 294.68 234.8 "/>
  <g begin="text">
   <text y="236.013" x="303.25" svgx:width="0.35" style="fill:rgb(0,0,0);font-family:AdvOTea1a7398;font-size:8.77px;stroke:none;">1</text>
   <text y="240.038" x="306.368,308.7792,312.378,316.258,321.617,326.406,331.195,333.705,338.724,343.9848,347.641,357.57,359.9812,363.572,371.211,376.909,382.608,387.397,393.096,398.455,401.984" svgx:width="0.22,0.55,0.35,0.49,0.44,0.44,0.23,0.46,0.48,0.55,0.91,0.22,0.55,0.7,0.52,0.52,0.44,0.52,0.49,0.32,0.52" style="fill:rgb(0,0,0);font-family:AdvOTea1a7398;font-size:10.96px;stroke:none;">, Jessica M. Hudspeth</text>
   <text y="236.013" x="407.735" svgx:width="0.53" style="fill:rgb(0,0,0);font-family:AdvOTea1a7398;font-size:8.77px;stroke:none;">2</text>
   <text y="240.038" x="412.384,414.7952,418.45,422.329,428.028,433.72720000000004,437.329,443.148,445.55920000000003,449.235,460.413,464.172,466.682,472.161,477.86" svgx:width="0.22,0.55,0.35,0.52,0.52,0.55,0.53,0.22,0.55,1.02,0.34,0.23,0.5,0.52,0.32" style="fill:rgb(0,0,0);font-family:AdvOTea1a7398;font-size:10.96px;stroke:none;">, Jon P. Wright</text>
  </g>
  <path style="fill:rgb(146,205,29);stroke:none;stroke-width:1.0;" d="M491.18 237.26 C491.18 239.7 489.2 241.67 486.76 241.67 C484.32 241.67 482.34 239.7 482.34 237.26 C482.34 234.82 484.32 232.84 486.76 232.84 C489.2 232.84 491.18 234.82 491.18 237.26 "/>
  <path style="fill:rgb(255,255,255);stroke:none;stroke-width:1.0;" d="M486.45 238.79 L487.3 238.79 C488.5 238.79 488.78 237.87 488.78 237.42 C488.78 236.67 488.31 236.04 487.27 236.04 L486.45 236.04 L486.45 238.79 ZM485.92 235.57 L487.36 235.57 C488.73 235.57 489.33 236.54 489.33 237.42 C489.33 238.36 488.59 239.26 487.37 239.26 L485.92 239.26 L485.92 235.57 "/>
  <path style="fill:rgb(255,255,255);stroke:none;stroke-width:1.0;" d="M485.23 234.8 C485.23 234.99 485.07 235.15 484.88 235.15 C484.69 235.15 484.53 234.99 484.53 234.8 C484.53 234.61 484.69 234.45 484.88 234.45 C485.07 234.45 485.23 234.61 485.23 234.8 "/>
  <g begin="text">
   <text y="236.013" x="493.795" svgx:width="0.53" style="fill:rgb(0,0,0);font-family:AdvOTea1a7398;font-size:8.77px;stroke:none;">2</text>
   <text y="240.038" x="498.501" svgx:width="0.22" style="fill:rgb(0,0,0);font-family:AdvOTea1a7398;font-size:10.96px;stroke:none;">,</text>
   <text y="255.969" x="43.598,49.187,51.697,60.596,66.294,71.9932,75.63,83.159,85.548,89.428,91.83919999999999,95.473,102.092,104.601,113.5,119.199,124.558" svgx:width="0.51,0.23,0.81,0.52,0.52,0.55,0.69,0.22,0.35,0.22,0.55,0.6,0.23,0.81,0.52,0.49,0.34" style="fill:rgb(0,0,0);font-family:AdvOTea1a7398;font-size:10.96px;stroke:none;">Simon A.J. Kimber</text>
   <text y="251.943" x="128.296" svgx:width="0.52" style="fill:rgb(0,0,0);font-family:AdvOTea1a7398;font-size:8.77px;stroke:none;">3</text>
   <text y="255.968" x="136.516,143.9688,147.572,151.451,153.8622,157.493,163.312,168.562,174.26,176.7808,180.454,187.983,191.512,195.023,200.692,206.051,208.561" svgx:width="0.68,0.55,0.35,0.22,0.55,0.53,0.48,0.52,0.23,0.55,0.69,0.32,0.32,0.52,0.49,0.23,0.52" style="fill:rgb(0,0,0);font-family:AdvOTea1a7398;font-size:10.96px;stroke:none;">&amp; J. Paul Attﬁeld</text>
  </g>
  <path style="fill:rgb(146,205,29);stroke:none;stroke-width:1.0;" d="M224.1 253.24 C224.1 255.68 222.12 257.66 219.68 257.66 C217.24 257.66 215.26 255.68 215.26 253.24 C215.26 250.8 217.24 248.82 219.68 248.82 C222.12 248.82 224.1 250.8 224.1 253.24 "/>
  <path style="fill:rgb(255,255,255);stroke:none;stroke-width:1.0;" d="M219.38 254.77 L220.22 254.77 C221.43 254.77 221.7 253.86 221.7 253.4 C221.7 252.66 221.23 252.03 220.2 252.03 L219.38 252.03 L219.38 254.77 ZM218.84 251.55 L220.28 251.55 C221.65 251.55 222.25 252.53 222.25 253.4 C222.25 254.35 221.51 255.25 220.29 255.25 L218.84 255.25 L218.84 251.55 "/>
  <path style="fill:rgb(255,255,255);stroke:none;stroke-width:1.0;" d="M218.15 250.79 C218.15 250.98 217.99 251.13 217.8 251.13 C217.61 251.13 217.45 250.98 217.45 250.79 C217.45 250.59 217.61 250.44 217.8 250.44 C217.99 250.44 218.15 250.59 218.15 250.79 "/>
  <g begin="text">
   <text y="251.943" x="226.772" svgx:width="0.35" style="fill:rgb(0,0,0);font-family:AdvOTea1a7398;font-size:8.77px;stroke:none;">1</text>
   <text y="307.956" x="43.597,49.011,53.932,58.567400000000006,61.511,66.433,70.967,74.014,78.936,82.182,86.8174,89.801,94.723,97.4664,100.459,103.507,108.428,113.0634,116.049,122.457,127.085,130.331,137.127,141.755,146.29579999999999,149.157,152.205,155.451,159.985,164.906,169.042,171.21,174.257,176.425,181.346,186.2652,189.296,194.217,198.552,202.887,207.809,211.055,214.301,216.469,221.39,226.11999999999998,229.093,233.627" svgx:width="0.57,0.52,0.49,0.55,0.52,0.48,0.32,0.52,0.34,0.49,0.55,0.52,0.29,0.55,0.32,0.52,0.49,0.55,0.68,0.49,0.34,0.72,0.49,0.48,0.55,0.32,0.34,0.48,0.52,0.44,0.23,0.32,0.23,0.52,0.52,0.55,0.52,0.46,0.46,0.52,0.34,0.34,0.23,0.52,0.5,0.55,0.48,0.32" style="fill:rgb(0,0,0);font-family:AdvOTea1a7398;font-size:9.46px;stroke:none;">The nature of the Verwey transition occurring at</text>
   <text y="307.956" x="239.641" svgx:width="0.53" style="fill:rgb(0,0,0);font-family:AdvOT9bd21c25.I;font-size:9.46px;stroke:none;">T</text>
   <text y="309.543" x="244.687" svgx:width="0.68" style="fill:rgb(0,0,0);font-family:AdvOTea1a7398;font-size:6.31px;stroke:none;">V</text>
   <text y="307.956" x="252.454" svgx:width="0.68" style="fill:rgb(0,0,0);font-family:AdvOT8608a8d1;font-size:9.46px;stroke:none;">≈</text>
   <text y="307.956" x="261.808,265.159,270.184,275.19780000000003,277.059,282.735,285.733,287.9,292.81919999999997,295.824,303.509,308.043,312.775,317.697,322.325,325.373,327.54,330.588,335.2234,338.173,341.912,346.341" svgx:width="0.35,0.53,0.53,0.55,0.6,0.55,0.23,0.52,0.55,0.81,0.48,0.5,0.52,0.49,0.32,0.23,0.32,0.49,0.55,0.4,0.47,0.49" style="fill:rgb(0,0,0);font-family:AdvOTea1a7398;font-size:9.46px;stroke:none;">125 K in magnetite (Fe</text>
   <text y="309.543" x="350.986" svgx:width="0.52" style="fill:rgb(0,0,0);font-family:AdvOTea1a7398;font-size:6.31px;stroke:none;">3</text>
   <text y="307.956" x="354.671" svgx:width="0.74" style="fill:rgb(0,0,0);font-family:AdvOTea1a7398;font-size:9.46px;stroke:none;">O</text>
   <text y="309.543" x="361.701" svgx:width="0.58" style="fill:rgb(0,0,0);font-family:AdvOTea1a7398;font-size:6.31px;stroke:none;">4</text>
   <text y="307.956" x="365.839,369.623,372.529,377.45,381.984,386.14639999999997,389.083,394.005,398.633,403.261" svgx:width="0.4,0.55,0.52,0.48,0.44,0.55,0.52,0.49,0.49,0.52" style="fill:rgb(0,0,0);font-family:AdvOTea1a7398;font-size:9.46px;stroke:none;">) has been</text>
   <text y="321.902" x="43.597,48.131,53.050200000000004,56.864,61.785,66.707,69.754,73.89,76.938,81.472,86.393,91.315,93.482,98.404,103.134,106.923,111.844,115.091,120.012,124.934,127.101,131.73,139.3926,143.263,148.185,152.614,157.242,160.45839999999998,164.296,171.982,176.515,181.437,185.9778,189.751,194.673,199.301,203.636,208.169,213.091,217.719,221.855,223.93619999999999,227.735,234.2624,238.053,242.388,247.309,254.995,259.916,262.084,266.712,271.15819999999997,274.959,277.127,282.048,288.8592,292.648,295.695,300.323,308.009,312.93,317.559,320.805,325.338,328.386,333.308,336.554,341.1894,345.031,349.66,351.827,356.455,360.79,363.838,367.084,372.006,376.927,379.095,383.44660000000005,387.21,392.132,395.378,400.3,404.928" svgx:width="0.48,0.52,0.55,0.52,0.52,0.32,0.44,0.32,0.48,0.52,0.52,0.23,0.52,0.5,0.55,0.52,0.34,0.52,0.52,0.23,0.49,0.81,0.55,0.52,0.47,0.49,0.34,0.55,0.81,0.48,0.52,0.48,0.55,0.52,0.49,0.46,0.48,0.52,0.49,0.44,0.22,0.55,0.69,0.55,0.46,0.52,0.81,0.52,0.23,0.49,0.47,0.55,0.23,0.52,0.72,0.55,0.32,0.49,0.81,0.52,0.49,0.34,0.48,0.32,0.52,0.34,0.49,0.55,0.49,0.23,0.49,0.46,0.32,0.34,0.52,0.52,0.23,0.46,0.55,0.52,0.34,0.52,0.49,0.34" style="fill:rgb(0,0,0);font-family:AdvOTea1a7398;font-size:9.46px;stroke:none;">an outstanding problem over many decades. A complex low temperature electronic order</text>
   <text y="335.848" x="43.597,50.393,54.926,59.0884,61.512,64.758,69.386,73.721,78.349,83.271,86.318,88.486,93.02680000000001,95.471,100.392,102.56,106.696,111.031,115.952,120.382,125.01,128.256,132.884,137.80319999999998,140.257,144.791,149.712,154.63119999999998,157.095,161.628,165.764,169.9,174.822,179.157,181.324,185.858,188.905,193.533,198.45219999999998,200.918,205.054,208.101,211.348,216.269,220.604,223.652,228.573,231.82,236.353,238.52880000000002,241.002,245.991,250.913,255.247,258.295,263.217,267.75,270.798,272.965,277.887,282.808,286.9704,289.417,294.339,298.967,302.214,306.35,308.517,312.653,315.701,317.868,322.79,327.52000000000004,330.009,334.543,339.464,344.386,348.815" svgx:width="0.72,0.48,0.44,0.55,0.34,0.49,0.46,0.49,0.52,0.32,0.23,0.48,0.55,0.52,0.23,0.44,0.46,0.52,0.47,0.49,0.34,0.49,0.52,0.55,0.48,0.52,0.52,0.55,0.48,0.44,0.44,0.52,0.46,0.23,0.48,0.32,0.49,0.52,0.55,0.44,0.32,0.34,0.52,0.46,0.32,0.52,0.34,0.48,0.23,0.55,0.53,0.52,0.46,0.32,0.52,0.48,0.32,0.23,0.52,0.52,0.44,0.55,0.52,0.49,0.34,0.44,0.23,0.44,0.32,0.23,0.52,0.5,0.55,0.48,0.52,0.52,0.47,0.49" style="fill:rgb(0,0,0);font-family:AdvOTea1a7398;font-size:9.46px;stroke:none;">was recently discovered and associated structural ﬂuctuations persisting above</text>
   <text y="335.848" x="355.862" svgx:width="0.53" style="fill:rgb(0,0,0);font-family:AdvOT9bd21c25.I;font-size:9.46px;stroke:none;">T</text>
   <text y="337.436" x="360.907" svgx:width="0.68" style="fill:rgb(0,0,0);font-family:AdvOTea1a7398;font-size:6.31px;stroke:none;">V</text>
   <text y="335.849" x="368.164,372.697,375.944,380.5794,383.017,389.813,391.98,396.902,401.53,403.698" svgx:width="0.48,0.34,0.49,0.55,0.72,0.23,0.52,0.49,0.23,0.48" style="fill:rgb(0,0,0);font-family:AdvOTea1a7398;font-size:9.46px;stroke:none;">are widely</text>
   <text y="349.795" x="43.597,46.843,51.472,56.393,61.315,64.561,67.609,72.237,77.158,79.2392,82.941,87.863,92.785,95.81219999999999,99.553,102.6,107.522,112.15740000000001,115.88,120.802,124.048,126.215,130.948,133.115,138.0342,141.732,146.653,149.3964,153.127,156.175,161.096,165.7314,169.398,174.319,179.241,184.162,188.791,192.037,194.204,198.738,200.905,205.827,210.557,214.298,218.632,223.554,226.8,230.047,234.675,236.842,241.376,244.423,246.591,251.512,256.434,260.5964,264.3,268.834,273.755,278.6742,282.385,287.307,291.935,296.856,301.191,305.8264,309.541,314.462,317.2054,320.936,323.984,328.905,333.5404,337.207,343.614,348.243,351.489,358.285,362.913,367.4538,371.052,374.1,377.346,381.88,386.801,390.937,393.105,396.152,398.32,403.241" svgx:width="0.34,0.49,0.52,0.52,0.34,0.32,0.49,0.52,0.22,0.55,0.52,0.52,0.32,0.55,0.32,0.52,0.49,0.55,0.52,0.34,0.23,0.5,0.23,0.52,0.55,0.52,0.29,0.55,0.32,0.52,0.49,0.55,0.52,0.52,0.52,0.49,0.34,0.23,0.48,0.23,0.52,0.5,0.55,0.46,0.52,0.34,0.34,0.49,0.23,0.48,0.32,0.23,0.52,0.52,0.44,0.55,0.48,0.52,0.52,0.55,0.52,0.49,0.52,0.46,0.49,0.55,0.52,0.29,0.55,0.32,0.52,0.49,0.55,0.68,0.49,0.34,0.72,0.49,0.48,0.55,0.32,0.34,0.48,0.52,0.44,0.23,0.32,0.23,0.52,0.52" style="fill:rgb(0,0,0);font-family:AdvOTea1a7398;font-size:9.46px;stroke:none;">reported, but the origin of the underlying correlations and hence of the Verwey transition</text>
   <text y="363.741" x="43.597,46.843,51.472,59.157,63.69,65.858,70.779,74.9414,77.782,82.704,87.625,91.96,94.128,98.756,103.289,106.536,108.6172,111.457,118.054,122.682,125.929,130.5644,133.454,140.25,144.8854,147.741,151.877,156.798,161.72,168.5312,171.381,174.429,179.351,183.884,186.91119999999998,189.806,191.974,196.895,201.23,205.763,207.93880000000001,210.783,214.919,217.966,221.213,226.134,230.469,233.516,238.438,241.684,246.218,248.3938,251.264,256.309,261.231,265.566,268.613,273.535,278.068,281.116,283.283,288.205,293.126,297.28839999999997,300.132,302.3,307.2192,310.11,317.795,322.329,327.061,331.982,336.611,339.658,341.826,344.873,349.5084,352.346,356.974,364.659,369.287,372.533,377.266,381.9014,384.773,389.695,394.323,396.49,401.412" svgx:width="0.34,0.49,0.81,0.48,0.23,0.52,0.44,0.55,0.52,0.52,0.46,0.23,0.49,0.48,0.34,0.22,0.55,0.7,0.49,0.34,0.49,0.55,0.72,0.49,0.55,0.44,0.52,0.52,0.72,0.55,0.32,0.52,0.48,0.32,0.55,0.23,0.52,0.46,0.48,0.23,0.55,0.44,0.32,0.34,0.52,0.46,0.32,0.52,0.34,0.48,0.23,0.55,0.53,0.52,0.46,0.32,0.52,0.48,0.32,0.23,0.52,0.52,0.44,0.55,0.23,0.52,0.55,0.81,0.48,0.5,0.52,0.49,0.32,0.23,0.32,0.49,0.55,0.49,0.81,0.49,0.34,0.5,0.49,0.55,0.52,0.49,0.23,0.52,0.72" style="fill:rgb(0,0,0);font-family:AdvOTea1a7398;font-size:9.46px;stroke:none;">remains unclear. Here we show that local structural ﬂuctuations in magnetite emerge below</text>
   <text y="377.687" x="43.597,46.645,51.566,56.20140000000001,59.13,65.235,70.157,73.403,75.57,80.2054,83.111,86.158,89.405,93.938,98.86,102.996,105.163,108.211,110.378,115.3,120.2192,123.192,127.726" svgx:width="0.32,0.52,0.49,0.55,0.64,0.52,0.34,0.23,0.49,0.55,0.32,0.34,0.48,0.52,0.44,0.23,0.32,0.23,0.52,0.52,0.55,0.48,0.32" style="fill:rgb(0,0,0);font-family:AdvOTea1a7398;font-size:9.46px;stroke:none;">the Curie transition at</text>
   <text y="377.687" x="133.682" svgx:width="0.53" style="fill:rgb(0,0,0);font-family:AdvOT9bd21c25.I;font-size:9.46px;stroke:none;">T</text>
   <text y="379.276" x="138.671" svgx:width="0.64" style="fill:rgb(0,0,0);font-family:AdvOTea1a7398;font-size:6.31px;stroke:none;">C</text>
   <text y="377.688" x="146.154" svgx:width="0.68" style="fill:rgb(0,0,0);font-family:AdvOT8608a8d1;font-size:9.46px;stroke:none;">≈</text>
   <text y="377.688" x="155.508,160.827,165.853,171.6236,173.536,179.253,181.33419999999998,184.194,187.242,192.164,195.41,200.332,205.253,209.985,214.9042,217.869,223.785,227.135,230.382,234.915,239.45579999999998,242.361,247.283,251.816,253.983,257.1994,260.162,265.084,267.251,271.387,274.435,277.681,279.848,284.77,289.692,292.739,294.907,299.828,304.74719999999996,307.727,310.482,315.403,320.325,324.659,327.707,329.874,334.796,339.7152,342.65,347.183,352.105,356.638,358.806,363.339,367.475,369.643,373.779,375.8602,378.763,385.265,388.511,393.433,398.355,403.276" svgx:width="0.56,0.53,0.61,0.55,0.6,0.22,0.55,0.32,0.52,0.34,0.52,0.52,0.5,0.52,0.55,0.63,0.35,0.34,0.48,0.48,0.55,0.52,0.48,0.23,0.34,0.55,0.52,0.23,0.44,0.32,0.34,0.23,0.52,0.52,0.32,0.23,0.52,0.52,0.55,0.29,0.52,0.52,0.46,0.32,0.23,0.52,0.52,0.55,0.48,0.52,0.48,0.23,0.48,0.44,0.23,0.44,0.22,0.55,0.69,0.34,0.52,0.52,0.52,0.52" style="fill:rgb(0,0,0);font-family:AdvOTea1a7398;font-size:9.46px;stroke:none;">850 K, through X-ray pair distribution function analysis. Around</text>
   <text y="391.634" x="43.596,48.915,54.726,63.0508,66.273,71.195,73.93839999999999,77.272,80.319,85.241,89.8764,93.146,95.313,100.235,107.0462,110.38,113.428,118.056,125.741,130.663,135.291,138.537,143.071,146.118,151.04,154.286,158.9214,162.254,166.588,171.51,174.756,178.003,182.631,184.798,189.332,192.379,194.547,199.468,204.39,208.55239999999998,211.859,216.488,224.173,228.801,232.047,236.78,241.4154,244.685,246.852,251.7712,255.06,259.981,263.228,268.149,273.071,277.992,281.239,284.286,286.454,291.375,296.2942,299.677,302.724,307.6432,310.902,318.587,323.121,327.853,332.774,337.403,340.45,342.618,346.848,351.382,354.429,356.597,361.518,366.43719999999996,369.805,374.726,379.354,381.522,386.443" svgx:width="0.56,0.61,0.88,0.55,0.52,0.29,0.55,0.32,0.52,0.49,0.55,0.23,0.52,0.72,0.55,0.32,0.49,0.81,0.52,0.49,0.34,0.48,0.32,0.52,0.34,0.49,0.55,0.46,0.52,0.34,0.34,0.49,0.23,0.48,0.32,0.23,0.52,0.52,0.44,0.55,0.49,0.81,0.49,0.34,0.5,0.49,0.55,0.23,0.52,0.55,0.52,0.34,0.52,0.52,0.52,0.34,0.32,0.23,0.52,0.52,0.55,0.32,0.52,0.55,0.81,0.48,0.5,0.52,0.49,0.32,0.23,0.45,0.48,0.32,0.23,0.52,0.52,0.55,0.52,0.49,0.23,0.52,0.72" style="fill:rgb(0,0,0);font-family:AdvOTea1a7398;font-size:9.46px;stroke:none;">80% of the low temperature correlations emerge in proportion to magnetization below</text>
   <text y="391.634" x="396.566" svgx:width="0.53" style="fill:rgb(0,0,0);font-family:AdvOT9bd21c25.I;font-size:9.46px;stroke:none;">T</text>
   <text y="393.222" x="401.556" svgx:width="0.64" style="fill:rgb(0,0,0);font-family:AdvOTea1a7398;font-size:6.31px;stroke:none;">C</text>
   <text y="391.635" x="406.148" svgx:width="0.22" style="fill:rgb(0,0,0);font-family:AdvOTea1a7398;font-size:9.46px;stroke:none;">.</text>
   <text y="405.581" x="43.597,49.011,53.932,56.1,60.2624,62.929,67.264,72.186,77.159,82.035,85.281,92.966,97.1284,99.836,102.883,107.805,112.338,115.36519999999999,118.091,123.136,128.058,132.393,135.44,140.362,144.896,147.943,150.111,155.032,159.954,164.1164,166.846,169.013,173.9322,176.597,181.027,185.655,189.005,193.435,198.0704,200.805,205.726,210.648,215.57,220.491,222.659,227.58,232.31,235.047,239.58,242.827,244.994,249.13,251.297,256.219,260.949,263.676,266.43,269.677,274.598,282.2606,284.992,292.678,297.211,301.943,306.865,311.493,314.541,316.708,321.05960000000005,323.77,328.691,331.938,336.859,341.488,344.7044,347.41,351.944,355.19,359.8254,362.547,365.595,370.516,375.1514,377.854,382.776,386.022,388.19,395.875,400.409,403.655" svgx:width="0.57,0.52,0.23,0.44,0.55,0.46,0.52,0.52,0.52,0.34,0.81,0.44,0.55,0.32,0.52,0.48,0.32,0.55,0.53,0.52,0.46,0.32,0.52,0.48,0.32,0.23,0.52,0.52,0.44,0.55,0.23,0.52,0.55,0.47,0.49,0.35,0.47,0.49,0.55,0.52,0.52,0.52,0.52,0.23,0.52,0.5,0.55,0.48,0.34,0.23,0.44,0.23,0.52,0.5,0.55,0.29,0.34,0.52,0.81,0.55,0.81,0.48,0.5,0.52,0.49,0.32,0.23,0.46,0.55,0.52,0.34,0.52,0.49,0.34,0.55,0.48,0.34,0.49,0.55,0.32,0.52,0.49,0.55,0.52,0.34,0.23,0.81,0.48,0.34,0.48" style="fill:rgb(0,0,0);font-family:AdvOTea1a7398;font-size:9.46px;stroke:none;">This conﬁrms that ﬂuctuations in Fe-Fe bonding arising from magnetic order are the primary</text>
   <text y="419.527" x="43.596,48.224,50.392,55.02,59.355,62.402,65.648,70.57,75.492,77.659,82.01060000000001,85.038,87.205,92.127,96.263,99.31,103.844,108.765,110.933,113.1,115.268,118.315,122.8558,125.912,130.446,135.368,140.28719999999998,143.317,148.238,152.867,157.788,162.123,166.7584,169.792,172.84,177.761,182.3964,185.439,190.361,193.607,195.774,200.507,202.674,207.5932,210.61,215.532,218.27540000000002,221.325,224.373,229.294,233.92940000000002,236.972,243.379,248.008,251.254,258.05,262.678,267.2188,270.137,273.184,276.431,280.964,285.886,290.022,292.189,295.237,297.404,302.326,307.247,309.32820000000004,312.373,317.2,322.121,326.456,331.3752,334.426,339.348,341.515,346.437,351.358,355.986,360.9052,363.963,366.131,371.052,375.188,378.236,382.769,387.691,389.858,392.026,394.193,397.241,399.408,404.036" svgx:width="0.49,0.23,0.49,0.46,0.32,0.34,0.52,0.52,0.23,0.46,0.55,0.23,0.52,0.44,0.32,0.48,0.52,0.23,0.23,0.23,0.32,0.48,0.55,0.48,0.52,0.52,0.55,0.52,0.49,0.52,0.46,0.49,0.55,0.32,0.52,0.49,0.55,0.52,0.34,0.23,0.5,0.23,0.52,0.55,0.52,0.29,0.55,0.32,0.52,0.49,0.55,0.68,0.49,0.34,0.72,0.49,0.48,0.55,0.32,0.34,0.48,0.52,0.44,0.23,0.32,0.23,0.52,0.52,0.22,0.55,0.51,0.52,0.46,0.52,0.55,0.52,0.23,0.52,0.52,0.49,0.52,0.55,0.23,0.52,0.44,0.32,0.48,0.52,0.23,0.23,0.23,0.32,0.23,0.49,0.44" style="fill:rgb(0,0,0);font-family:AdvOTea1a7398;font-size:9.46px;stroke:none;">electronic instability and hence the origin of the Verwey transition. Such hidden instabilities</text>
   <text y="433.473" x="43.596,51.281,55.815,60.355799999999995,63.495,68.417,73.0524,76.195,78.362,86.048,90.969,95.891,99.137,102.185,106.718,111.64,114.66720000000001,117.864,120.911,125.8302,129.032,133.954,137.001,141.923,146.551,149.76739999999998,152.957,157.093,162.014,164.182,169.103,172.454,177.375,182.297,184.464,188.998,192.244,194.411,198.548,203.176,208.09519999999998,211.293,215.627,220.549,225.471,230.392,235.314,239.648,242.696,247.618,250.864,255.0264,258.234,262.768,267.689,272.6082,275.752,280.674,283.92,288.842,291.009,294.057,298.59,300.758,302.925,307.4658,310.618,315.539,320.168,324.9,329.528,334.45,339.078,342.324,346.858,349.905,354.5404,357.729,365.414,369.948,372.995,377.623,380.87,383.037,387.571,389.738,393.874" svgx:width="0.81,0.48,0.48,0.55,0.52,0.49,0.55,0.23,0.81,0.52,0.52,0.34,0.32,0.48,0.52,0.32,0.55,0.32,0.52,0.55,0.52,0.32,0.52,0.49,0.34,0.55,0.44,0.52,0.23,0.52,0.35,0.52,0.52,0.23,0.48,0.34,0.23,0.44,0.49,0.52,0.55,0.46,0.52,0.52,0.52,0.52,0.46,0.32,0.52,0.34,0.44,0.55,0.48,0.52,0.52,0.55,0.52,0.34,0.52,0.23,0.32,0.48,0.23,0.23,0.48,0.55,0.52,0.49,0.5,0.49,0.52,0.49,0.34,0.48,0.32,0.49,0.55,0.81,0.48,0.32,0.49,0.34,0.23,0.48,0.23,0.44,0.22" style="fill:rgb(0,0,0);font-family:AdvOTea1a7398;font-size:9.46px;stroke:none;">may be important to other spin-polarised conductors and orbitally degenerate materials.</text>
  </g>
  <g begin="text">
   <text y="157.493" x="46.602,50.834,53.655,56.477,60.789,64.439,66.511,70.656,74.8,79.03,83.174,85.247,87.239,91.384,94.373,98.986,103.13,106.366,111.347,113.34,116.576,121.557,125.869,130.516,134.66,138.217,143.031,146.267,151.081,155.64,159.872,162.606,167.588,170.824,175.295,178.029,181.264,186.246,190.805,195.619,200.178,202.912" svgx:width="0.53,0.35,0.35,0.54,0.46,0.26,0.52,0.52,0.54,0.52,0.26,0.25,0.52,0.38,0.53,0.52,0.41,0.63,0.25,0.41,0.63,0.54,0.58,0.52,0.46,0.6,0.41,0.6,0.57,0.53,0.34,0.63,0.41,0.57,0.34,0.41,0.63,0.57,0.6,0.57,0.34,0.57" style="fill:rgb(255,255,255);font-family:AdvOTcb88df00;font-size:7.97px;stroke:none;">https://doi.org/10.1038/s41467-019-10949-9</text>
  </g>
  <g begin="text">
   <text y="157.798" x="234.595,242.685,249.621,256.557" svgx:width="0.78,0.67,0.67,0.72" style="fill:rgb(240,132,26);font-family:Arial-BoldMT;font-size:10.4px;stroke:none;">OPEN</text>
  </g>
  <path style="fill:rgb(236,126,28);stroke:none;stroke-width:1.0;" d="M43.6 696.36 L551.68 696.36 L551.68 737.23 L43.6 737.23 M43.6 696.08 L551.68 696.08 L551.91 696.24 L551.91 696.47 L551.68 696.64 L43.6 696.64 L43.37 696.47 L43.37 696.24 Z"/>
  <g begin="text">
   <text y="704.409" x="43.597" svgx:width="0.34" style="fill:rgb(0,0,0);font-family:AdvOTf23bb480;font-size:6.38px;stroke:none;">1</text>
   <text y="707.357" x="47.112,52.253,56.07,60.208,62.774,65.423,69.2486,71.773,74.013,78.078,80.6284,83.226,87.365,91.015,92.752,96.663,100.727,104.378,108.2036,110.779,114.597,117.14739999999999,119.737,123.722,127.373,129.939,132.607,136.424,142.981,146.8066,149.331,154.472,158.537,162.602,166.85,168.587,171.154,173.029,177.094,181.159,184.5861,187.146,190.214,195.423,199.488,203.473,208.689,211.7176,214.302,218.12,222.184,226.3284,228.929,232.994,236.644,240.778,244.843,248.999,250.7524,253.251,257.315,259.5466,262.095,267.236,271.393,275.211,281.683,283.525,286.929,289.495,292.143,295.873,297.5467,300.08,305.388,309.547,311.285,314.935,318.845,321.412,324.815,326.669,329.235,332.9809,335.514,339.578,341.8096,344.415,348.4,352.544,354.282,358.475,362.619,366.752,369.318,373.303,377.467,379.1407,381.606,388.827,392.718,396.511,400.593,404.41,406.148,410.29240000000004,412.895,417.374,421.439,425.256,429.506,431.17969999999997,433.702,437.687,441.831,443.679,447.744,451.957,456.021,458.588,462.672,466.73670000000004,469.248,473.233,478.788,483.25120000000004,485.859,490.004,492.825,497.709,499.3827,501.904,507.212,511.939" svgx:width="0.64,0.48,0.51,0.32,0.32,0.48,0.55,0.28,0.51,0.32,0.55,0.51,0.46,0.22,0.48,0.51,0.46,0.48,0.55,0.48,0.32,0.55,0.5,0.46,0.32,0.32,0.48,0.81,0.48,0.55,0.64,0.51,0.51,0.52,0.22,0.32,0.22,0.51,0.51,0.43,0.55,0.38,0.64,0.51,0.5,0.64,0.38,0.55,0.48,0.51,0.52,0.55,0.51,0.46,0.51,0.51,0.51,0.22,0.55,0.51,0.28,0.55,0.64,0.51,0.48,0.81,0.22,0.43,0.32,0.32,0.47,0.21,0.55,0.67,0.51,0.22,0.46,0.48,0.32,0.43,0.22,0.32,0.47,0.55,0.51,0.28,0.55,0.5,0.52,0.22,0.51,0.52,0.51,0.32,0.5,0.51,0.21,0.55,0.91,0.48,0.47,0.51,0.48,0.22,0.52,0.55,0.56,0.51,0.48,0.52,0.21,0.55,0.5,0.52,0.22,0.51,0.52,0.51,0.32,0.5,0.51,0.55,0.5,0.7,0.56,0.55,0.52,0.35,0.6,0.21,0.55,0.67,0.59,0.21" style="fill:rgb(0,0,0);font-family:AdvOTf23bb480;font-size:7.97px;stroke:none;">Centre for Science at Extreme Conditions (CSEC) and School of Chemistry, University of Edinburgh, Mayﬁeld Road, Edinburgh EH9 3JZ, UK.</text>
   <text y="704.409" x="516.189" svgx:width="0.53" style="fill:rgb(0,0,0);font-family:AdvOTf23bb480;font-size:6.38px;stroke:none;">2</text>
   <text y="707.357" x="520.951,524.936,529.001,531.666,535.731,539.943,543.761,547.654" svgx:width="0.5,0.51,0.32,0.51,0.52,0.48,0.48,0.51" style="fill:rgb(0,0,0);font-family:AdvOTf23bb480;font-size:7.97px;stroke:none;">European</text>
   <text y="717.335" x="43.595,47.66,51.39,55.557,59.208,63.273,65.932,69.997,72.563,75.23,79.295,83.3597,86.059,90.538,94.449,98.593,100.402,104.22,106.865,108.602,112.667,116.7317,119.451,123.249,127.067,130.79,132.527,134.265,136.119,138.685,142.415,144.0887,146.834,151.146,155.29039999999998,158.002,160.736,164.968,169.568,171.2417,173.933,178.078,182.637,187.54,192.266,196.49009999999998,199.219,204.694,207.261,211.078,215.263,219.328,223.54,225.277,229.095,230.7687,233.518,237.248,239.814,243.723,247.788,251.438,255.345" svgx:width="0.51,0.47,0.51,0.46,0.51,0.32,0.51,0.32,0.32,0.51,0.51,0.55,0.56,0.48,0.52,0.22,0.48,0.32,0.22,0.51,0.51,0.55,0.47,0.48,0.46,0.22,0.22,0.22,0.32,0.47,0.21,0.55,0.54,0.52,0.55,0.34,0.53,0.56,0.21,0.55,0.52,0.57,0.6,0.59,0.53,0.55,0.69,0.32,0.48,0.51,0.51,0.52,0.22,0.48,0.21,0.55,0.47,0.32,0.48,0.51,0.46,0.48,0.21" style="fill:rgb(0,0,0);font-family:AdvOTf23bb480;font-size:7.97px;stroke:none;">Synchrotron Radiation Facility, BP 156, 38042 Grenoble, France.</text>
   <text y="714.387" x="259.71" svgx:width="0.52" style="fill:rgb(0,0,0);font-family:AdvOTf23bb480;font-size:6.38px;stroke:none;">3</text>
   <text y="717.335" x="264.359,266.431,271.672,275.984,278.886,282.614,286.432,290.665,294.729,297.296,301.209,303.776,307.84,309.657,312.223,316.0486,318.784,320.857,325.02,327.587,331.404,333.971,338.23,339.968,343.446,347.096,348.834,353.083,354.821,356.655,360.72,364.537,366.35,368.916,372.7416,375.477,380.618,384.436,387.099,391.164,395.229,397.7794,400.535,404.68,408.5056,411.251,415.562,419.698,423.763,426.329,430.413,434.478,438.463,442.602,446.42,448.0937,450.823,456.131,460.196,461.933,465.676,469.494,472.139,475.542,477.355,479.921,483.7466,486.482,490.794,494.93,498.995,501.561,505.645,509.71,513.695,517.834,521.651,524.637,528.367,530.933,534.842,538.907,542.557,546.691" svgx:width="0.26,0.64,0.54,0.36,0.46,0.48,0.52,0.51,0.32,0.48,0.32,0.51,0.22,0.32,0.48,0.55,0.26,0.51,0.32,0.48,0.32,0.52,0.22,0.43,0.46,0.22,0.52,0.22,0.22,0.51,0.48,0.22,0.32,0.48,0.55,0.64,0.48,0.32,0.51,0.51,0.32,0.55,0.52,0.48,0.55,0.54,0.51,0.51,0.32,0.5,0.51,0.5,0.51,0.48,0.21,0.55,0.67,0.51,0.22,0.46,0.48,0.32,0.43,0.22,0.32,0.48,0.55,0.54,0.51,0.51,0.32,0.5,0.51,0.5,0.51,0.48,0.36,0.47,0.32,0.48,0.51,0.46,0.51,0.48" style="fill:rgb(0,0,0);font-family:AdvOTf23bb480;font-size:7.97px;stroke:none;">ICB-Laboratoire Interdisciplinaire Carnot de Bourgogne, Université Bourgogne-Franche</text>
   <text y="727.256" x="43.596,48.737,52.802,59.357,61.924,65.821,67.4947,70.129,74.441,78.35,80.916,82.654,89.235,93.052,97.117,99.6674,102.444,106.509,110.16,111.969,115.787,119.963,123.613,127.431,130.8581,133.57,140.791,142.528,145.192,149.009,153.074,157.324,161.142,162.8157,165.488,169.9512,172.688,178.164,181.814,185.727,189.792,193.857,197.6826,200.411,205.886,207.624,211.523,213.337,217.402,219.07569999999998,221.785,226.017,228.751,233.633,237.865,242.4079,245.142,250.697,252.512,254.25,258.408,262.473,264.1467,266.856,270.586,273.152,277.061,281.126,284.776,288.683,290.3567,293.048,298.189,302.254,304.898,307.464,311.361,314.764,318.909,322.973,327.178,331.323,335.141,339.311,342.961,346.7866,349.459,353.277,357.342,361.4864,364.256,366.822,370.719,374.863,378.996,382.814,386.217,388.861,392.2881,394.927,397.251,401.316,403.8664,406.605,413.077,416.895,419.531,423.349,425.995,427.732,431.55,433.421,436.8481,439.487,442.891,447.028,451.093,455.158,457.006,461.1504,463.809,467.954,471.7796,474.524,478.342,482.486,486.713,489.279,493.176,496.579,499.983,503.891,508.03540000000004,510.695,513.261" svgx:width="0.64,0.51,0.81,0.32,0.48,0.21,0.55,0.54,0.48,0.32,0.22,0.81,0.48,0.51,0.32,0.55,0.51,0.46,0.22,0.48,0.51,0.46,0.48,0.43,0.55,0.91,0.22,0.32,0.48,0.51,0.52,0.48,0.21,0.55,0.56,0.55,0.69,0.46,0.48,0.51,0.51,0.48,0.55,0.69,0.22,0.48,0.22,0.51,0.21,0.55,0.53,0.34,0.6,0.53,0.57,0.55,0.7,0.22,0.22,0.51,0.51,0.21,0.55,0.47,0.32,0.48,0.51,0.46,0.48,0.21,0.55,0.64,0.51,0.32,0.32,0.48,0.43,0.52,0.51,0.51,0.52,0.48,0.51,0.46,0.48,0.55,0.48,0.51,0.52,0.55,0.32,0.48,0.52,0.51,0.48,0.43,0.32,0.43,0.55,0.28,0.51,0.32,0.55,0.81,0.48,0.32,0.48,0.32,0.22,0.48,0.22,0.43,0.55,0.43,0.51,0.51,0.51,0.22,0.52,0.55,0.52,0.48,0.55,0.48,0.52,0.52,0.32,0.48,0.43,0.43,0.48,0.52,0.55,0.32,0.51" style="fill:rgb(0,0,0);font-family:AdvOTf23bb480;font-size:7.97px;stroke:none;">Comté, Bâtiment Sciences Mirande, 9 Avenue Alain, 21078 Dijon, France. Correspondence and requests for materials should be addressed to</text>
   <text y="737.234" x="43.596,46.418,48.076,52.327,53.985,59.527,61.2007,63.893,66.961,70.779,77.329,81.146,82.884,84.699" svgx:width="0.35,0.21,0.52,0.21,0.69,0.21,0.55,0.38,0.48,0.81,0.48,0.22,0.22,0.22" style="fill:rgb(0,0,0);font-family:AdvOTf23bb480;font-size:7.97px;stroke:none;">J.P.A. (email:</text>
   <text y="737.234" x="89.178,90.915,92.573,96.832,98.49,102.307,104.874,107.547,111.628,115.446,117.298,121.442,128.161,131.979,136.233,137.891,141.789,145.44,147.176,151.24" svgx:width="0.22,0.21,0.52,0.21,0.48,0.32,0.32,0.51,0.48,0.22,0.52,0.84,0.48,0.52,0.21,0.48,0.46,0.21,0.51,0.45" style="fill:rgb(0,0,255);font-family:AdvOTf23bb480;font-size:7.97px;stroke:none;">j.p.attﬁeld@ed.ac.uk</text>
   <text y="737.234" x="154.829" svgx:width="0.38" style="fill:rgb(0,0,0);font-family:AdvOTf23bb480;font-size:7.97px;stroke:none;">)</text>
   <text y="757.134" x="43.597,48.284,52.904,56.751,61.303,65.083,68.443,70.753,75.09,80.06,86.153,92.245,96.798,101.485,103.234,107.659,112.279,116.126,117.874,122.844,127.531" svgx:width="0.7,0.69,0.57,0.68,0.56,0.5,0.55,0.64,0.74,0.91,0.91,0.68,0.7,0.26,0.64,0.69,0.57,0.26,0.74,0.7,0.51" style="fill:rgb(236,126,28);font-family:AdvOTea1a7398;font-size:6.72px;stroke:none;">NATURE COMMUNICATIONS</text>
   <text y="757.134" x="132.151,133.8982,136.119,136.119,136.119,136.185,136.185,136.185,136.185,136.185,136.185,136.185,138.842,142.521,146.65,149.03,152.81,155.466,155.466,157.847,161.976,163.55,167.121,170.901,174.471,178.042,178.042,179.212,180.95919999999998,182.103,185.6,187.765,189.931,193.428,196.366,197.832,201.262,204.692,208.189,211.686,213.34,214.806,218.303,220.61,224.339,227.768,230.149,234.278,235.744,238.125,242.254,245.751,249.624,253.053,255.992,259.913,262.293,266.214,269.993,273.564,275.945,280.074,282.455,286.234,288.615,290.995,295.124,299.003,302.923,306.703,309.083,312.8462,314.026,315.77320000000003,316.917,321.745,326.574,331.402,332.868,336.365,339.587,341.752,345.249,347.556,350.844,352.31,355.39,358.887,364.482,367.911,371.408,374.629,376.795,380.292,382.598,385.887,388.967,392.464,398.044,403.504,407.001,410.498,412.038,415.118,418.339,420.505,422.045,425.542,429.039" svgx:width="0.26,0.55,0.0,0.0,0.55,0.0,0.0,0.0,0.0,0.0,0.0,0.4,0.53,0.61,0.35,0.56,0.4,0.0,0.35,0.61,0.22,0.53,0.56,0.53,0.53,0.0,0.55,0.26,0.55,0.52,0.32,0.32,0.52,0.44,0.22,0.51,0.51,0.52,0.52,0.23,0.22,0.52,0.34,0.5,0.51,0.35,0.61,0.22,0.35,0.61,0.52,0.56,0.51,0.44,0.58,0.35,0.58,0.56,0.53,0.35,0.61,0.35,0.56,0.35,0.35,0.61,0.56,0.58,0.56,0.35,0.56,0.55,0.26,0.55,0.72,0.72,0.72,0.22,0.52,0.48,0.32,0.52,0.34,0.49,0.22,0.46,0.52,0.81,0.51,0.52,0.48,0.32,0.52,0.34,0.49,0.46,0.52,0.81,0.81,0.52,0.52,0.23,0.46,0.48,0.32,0.23,0.52,0.52,0.44" style="fill:rgb(0,0,0);font-family:AdvOTea1a7398;font-size:6.72px;stroke:none;">| (2019) 10:2857 | https://doi.org/10.1038/s41467-019-10949-9 | www.nature.com/naturecommunications</text>
   <text y="757.134" x="547.483" svgx:width="0.58" style="fill:rgb(0,0,0);font-family:AdvTTda6f6cb8.B;font-size:7.22px;stroke:none;">1</text>
  </g>
  <path style="fill:rgb(255,204,0);stroke:none;stroke-width:0.25;" d="M33.6 71.81 M33.6 37.7 L51.41 37.7 C59.23 37.7 65.97 35.01 72.4 30.83 C74.74 29.3 77.12 27.85 79.6 26.55 C80.15 26.26 80.71 25.99 81.27 25.73 C81.13 25.79 84.15 24.65 82.24 25.27 C83.63 24.82 85.06 24.54 86.5 24.37 C91.82 23.72 97.05 25.54 101.77 27.81 C112.32 32.87 121.38 40.64 131.89 45.79 C139.4 49.46 147.96 48.55 156.08 48.55 L306.35 48.55 C307.31 48.55 308.27 47.5 309.23 47.5 L154.85 47.5 C151.61 47.5 148.36 47.58 145.13 47.43 C138.82 47.15 133.53 44.28 128.199 41.1 C122.6 37.75 117.15 34.16 111.63 30.69 C106.37 27.37 100.63 24.3 94.41 23.4 C85.83 22.14 77.09 27.04 70.16 31.46 C68.0 32.84 65.83 34.76 63.33 35.46 C61.21 36.05 59.0 36.35 56.81 36.54 C55.31 36.67 53.8 36.65 52.29 36.65 L36.48 36.65 C35.51 36.65 34.55 37.7 33.6 37.7 "/>
  <path style="fill:rgb(227,31,37);stroke:none;stroke-width:0.25;" d="M33.6 39.5 L45.82 39.5 C51.36 39.5 56.53 39.74 61.78 37.81 C65.76 36.35 68.72 34.02 71.25 30.61 C73.82 27.17 75.79 22.08 79.91 20.22 C78.96 20.56 78.02 20.91 77.08 21.25 C79.85 20.33 81.97 22.31 83.67 24.27 C85.79 26.72 87.52 29.54 89.52 32.09 C93.07 36.61 97.45 40.82 103.46 41.3 C110.77 41.88 119.26 39.07 125.14 34.84 C127.6 33.06 129.68 30.83 132.11 29.02 C132.72 28.57 133.94 28.3 132.07 28.75 C132.52 28.64 133.0 28.64 133.46 28.67 C134.4 28.73 135.3 29.35 136.05 29.87 C138.1 31.29 139.84 33.22 141.64 34.93 C144.27 37.44 147.04 39.73 150.06 41.76 C152.14 43.15 154.16 44.63 156.47 45.6 C158.81 46.59 161.45 46.74 163.95 46.74 L290.52 46.74 C291.48 46.74 292.44 45.69 293.4 45.69 L167.5 45.69 C164.32 45.69 161.25 45.46 158.33 44.1 C152.78 41.51 147.83 37.06 143.46 32.87 C140.6 30.13 137.83 26.61 133.55 28.12 C132.23 28.59 130.9 29.02 129.699 29.75 C126.99 31.4 124.77 33.96 122.26 35.89 C118.43 38.82 113.68 40.19 108.88 40.27 C103.85 40.34 99.94 38.77 96.24 35.33 C91.7 31.11 89.13 24.86 84.3 21.02 C81.71 18.96 77.63 20.5 75.29 22.35 C71.59 25.27 69.73 30.29 66.65 33.81 C65.19 35.47 63.1 37.43 60.91 37.98 C57.28 38.88 53.29 38.46 49.6 38.46 L36.48 38.46 C35.51 38.46 34.55 39.5 33.6 39.5 "/>
  <path style="fill:rgb(239,127,28);stroke:none;stroke-width:0.25;" d="M33.6 35.89 C39.08 35.89 44.55 35.85 50.02 35.89 C55.17 35.92 60.36 36.41 65.39 37.51 C71.51 38.85 77.67 42.34 84.07 40.93 C87.01 40.28 90.13 38.95 92.35 36.91 C95.09 34.37 96.6 30.77 98.39 27.58 C99.14 26.23 99.99 24.94 101.1 23.86 C101.95 23.03 103.49 22.83 101.24 23.32 C102.3 23.09 103.44 23.24 104.48 23.5 C109.17 24.66 109.94 31.28 110.6 35.15 C111.13 38.25 111.57 41.36 112.21 44.44 C112.86 47.63 113.58 51.01 115.81 53.5 C118.46 56.45 123.1 56.1 126.49 54.94 C131.97 53.07 137.24 51.44 143.04 50.84 C147.04 50.43 151.07 50.36 155.09 50.36 L318.09 50.36 C319.06 50.36 320.02 49.31 320.97 49.31 L168.43 49.31 C157.64 49.31 146.34 48.58 135.91 51.63 C131.91 52.8 128.27 54.89 124.15 54.71 C117.86 54.45 116.22 48.62 115.09 43.39 C113.71 37.03 113.8 18.76 102.68 22.7 C100.51 23.47 98.75 24.14 97.24 25.97 C95.47 28.14 94.36 30.84 92.98 33.25 C91.46 35.91 89.57 38.33 86.86 39.86 C86.27 40.15 86.3 40.16 86.95 39.88 C86.42 40.02 85.87 40.09 85.32 40.17 C84.31 40.3 83.28 40.28 82.26 40.19 C79.31 39.92 76.4 38.79 73.59 37.93 C61.45 34.21 49.0 34.84 36.48 34.84 C35.51 34.84 34.55 35.89 33.6 35.89 "/>
  <path style="fill:rgb(153,166,169);stroke:none;stroke-width:0.25;" d="M43.26 57.72 C43.44 57.72 45.33 57.63 45.78 57.63 C46.23 57.63 47.98 57.72 48.23 57.72 C48.48 57.72 48.81 57.74 48.81 57.52 C48.81 57.3 48.25 57.25 47.96 57.12 C47.58 56.96 47.28 56.76 47.2 56.38 C47.06 55.7 47.04 54.74 47.04 52.72 C47.04 51.23 47.06 49.64 47.49 48.89 C47.8 48.35 48.63 47.68 49.58 47.68 C50.52 47.68 51.08 47.86 51.62 48.49 C52.16 49.12 52.14 50.47 52.14 52.76 C52.14 54.62 52.14 55.57 52.05 56.24 C51.96 56.89 51.64 57.02 51.13 57.2 C50.72 57.34 50.21 57.32 50.21 57.55 C50.21 57.7 50.41 57.72 50.86 57.72 C51.19 57.72 52.7 57.63 53.37 57.63 C54.04 57.63 55.46 57.72 55.75 57.72 C56.04 57.72 56.25 57.68 56.25 57.5 C56.25 57.3 55.89 57.29 55.62 57.21 C54.52 56.92 54.52 56.98 54.52 53.9 C54.52 53.12 54.54 52.04 54.54 50.33 C54.54 49.52 54.45 48.29 54.02 47.68 C53.42 46.85 52.56 46.24 51.08 46.24 C48.72 46.24 47.69 48.2 47.26 48.2 C47.11 48.2 47.08 48.02 47.08 47.86 L47.08 46.65 C47.08 46.36 47.04 46.13 46.84 46.13 C46.72 46.13 46.56 46.25 46.47 46.33 C45.44 47.21 44.44 47.89 43.36 48.26 C43.26 48.29 43.18 48.33 43.18 48.47 C43.18 48.63 43.42 48.63 43.82 48.69 C44.12 48.72 44.37 48.85 44.48 48.99 C44.72 49.3 44.72 50.27 44.72 51.82 C44.72 54.08 44.7 55.54 44.57 56.38 C44.48 56.94 44.19 57.03 43.64 57.18 C43.2 57.29 42.82 57.32 42.82 57.54 C42.82 57.7 42.93 57.72 43.26 57.72 ZM61.7 55.79 C61.28 56.38 60.79 56.74 60.16 56.74 C59.57 56.74 58.78 56.33 58.78 55.3 C58.78 53.46 61.5 52.13 61.84 52.13 C62.11 52.13 62.24 52.26 62.24 52.63 C62.24 53.88 62.18 55.09 61.7 55.79 ZM64.31 57.79 C65.91 57.79 66.87 56.4 66.87 55.95 C66.87 55.86 66.83 55.75 66.72 55.75 C66.56 55.75 66.13 56.42 65.34 56.42 C64.58 56.42 64.42 55.66 64.42 54.87 C64.42 54.08 64.62 49.88 64.62 48.31 C64.62 46.4 62.89 46.09 61.39 46.09 C58.25 46.09 56.43 48.47 56.43 49.61 C56.43 50.02 56.79 50.2 57.04 50.2 C57.5 50.2 58.15 49.91 58.31 49.41 C58.67 48.22 59.21 46.69 60.87 46.69 C61.5 46.69 61.93 46.8 62.25 47.44 C62.42 47.77 62.38 48.33 62.38 49.05 C62.38 51.52 62.34 51.21 60.0 52.38 C58.54 53.12 56.65 54.02 56.65 55.9 C56.65 56.74 57.26 57.97 58.79 57.97 C60.34 57.97 61.44 57.0 62.02 56.17 C62.04 56.13 62.07 56.11 62.13 56.11 C62.22 56.11 62.25 56.19 62.27 56.28 C62.52 57.07 63.23 57.79 64.31 57.79 ZM91.94 57.72 C92.14 57.72 92.48 57.72 92.48 57.54 C92.48 57.3 92.25 57.32 91.96 57.27 C91.62 57.2 90.5 57.03 90.21 56.58 C89.96 56.2 89.99 54.67 89.99 52.71 C89.99 50.6 90.03 49.16 90.48 48.65 C90.64 48.47 90.82 48.15 91.27 48.15 C92.16 48.15 92.35 49.16 93.33 49.16 C94.07 49.16 94.72 48.61 94.72 47.75 C94.72 46.9 94.09 46.2 93.11 46.2 C91.4 46.2 90.52 48.13 90.16 48.13 C90.08 48.13 90.01 48.09 90.01 47.86 L90.01 46.56 C90.01 46.22 89.89 46.13 89.76 46.13 C89.65 46.13 89.51 46.16 89.16 46.51 C88.48 47.17 86.97 48.02 86.59 48.16 C86.26 48.29 86.1 48.35 86.1 48.51 C86.1 48.6 86.23 48.63 86.39 48.65 C87.62 48.72 87.67 49.03 87.67 52.1 C87.67 55.16 87.63 56.11 87.47 56.57 C87.31 57.02 86.5 57.18 86.28 57.23 C86.01 57.3 85.7 57.34 85.7 57.54 C85.7 57.7 86.01 57.72 86.23 57.72 C86.44 57.72 88.19 57.63 89.0 57.63 C89.81 57.63 91.74 57.72 91.94 57.72 ZM99.8 46.65 C101.31 46.65 101.84 47.75 101.84 48.26 C101.84 49.57 99.82 49.68 98.38 49.68 C97.15 49.68 96.79 49.59 96.79 49.26 C96.79 48.38 97.8 46.65 99.8 46.65 ZM99.26 57.95 C102.03 57.95 104.14 55.41 104.14 54.96 C104.14 54.87 104.11 54.8 103.96 54.8 C103.78 54.8 102.81 56.35 100.59 56.35 C97.64 56.35 96.49 54.04 96.49 51.41 C96.49 50.31 96.74 50.29 97.33 50.29 C99.6 50.29 101.53 50.43 103.1 50.43 C103.82 50.43 104.18 50.43 104.18 49.77 C104.18 47.91 102.34 46.09 99.93 46.09 C96.68 46.09 93.91 48.61 93.91 52.28 C93.91 55.75 96.25 57.95 99.26 57.95 ZM77.43 57.95 C79.63 57.95 81.0 56.04 81.29 56.04 C81.47 56.04 81.5 56.24 81.5 56.44 C81.5 56.94 81.47 57.25 81.47 57.63 C81.47 57.92 81.52 58.04 81.7 58.04 C81.76 58.04 81.99 57.95 82.14 57.9 C82.98 57.54 84.95 57.05 85.43 56.96 C85.76 56.91 85.88 56.83 85.88 56.71 C85.88 56.6 85.81 56.53 85.7 56.53 C85.6 56.53 85.18 56.57 85.0 56.57 C84.48 56.57 84.23 56.49 84.1 56.26 C83.92 55.93 83.9 54.87 83.9 53.43 C83.9 51.05 84.08 48.02 84.08 47.08 C84.08 46.74 83.97 46.6 83.56 46.61 L79.9 46.71 C79.54 46.72 79.47 46.8 79.47 46.96 C79.47 47.14 79.67 47.14 80.19 47.21 C80.66 47.26 81.05 47.3 81.31 47.53 C81.61 47.8 81.61 49.12 81.61 51.82 C81.61 53.12 81.59 54.67 81.31 55.2 C80.91 55.92 79.93 56.37 78.98 56.37 C77.27 56.37 76.67 55.5 76.67 54.26 C76.71 49.23 76.74 48.22 76.74 47.16 C76.74 46.61 76.69 46.49 76.17 46.51 L70.64 46.72 C70.45 46.72 70.35 46.6 70.35 46.34 C70.35 45.84 70.4 45.08 70.4 44.6 C70.4 44.38 70.31 44.27 70.15 44.27 C69.99 44.27 69.91 44.45 69.77 44.67 C69.16 45.59 67.88 46.6 67.01 47.21 C66.63 47.48 66.42 47.5 66.42 47.73 C66.42 47.82 66.51 47.86 66.61 47.86 L67.41 47.86 C67.93 47.86 67.95 48.24 67.95 48.56 C67.95 48.89 67.82 53.54 67.82 54.53 C67.82 56.51 68.26 57.95 70.2 57.95 C72.01 57.95 73.7 56.44 73.7 56.2 C73.7 56.13 73.65 56.08 73.56 56.08 C73.46 56.08 72.54 56.53 71.7 56.53 C71.05 56.53 70.67 56.37 70.42 55.92 C70.15 55.41 70.17 54.65 70.17 53.41 C70.17 50.43 70.2 49.07 70.26 48.16 C70.29 47.57 70.35 47.53 70.71 47.52 C71.08 47.5 71.63 47.48 72.29 47.48 C74.33 47.48 74.36 47.48 74.36 48.51 C74.36 49.03 74.28 53.21 74.28 54.64 C74.28 57.2 76.12 57.95 77.43 57.95 ZM123.14 68.04 L124.08 65.04 L124.11 65.04 L124.98 68.04 L123.14 68.04 ZM122.62 61.78 L119.03 71.52 L122.05 71.52 L122.48 70.13 L125.58 70.13 L125.99 71.52 L129.1 71.52 L125.55 61.78 L122.62 61.78 ZM106.39 71.52 M116.4 67.7 C116.22 68.61 115.83 69.32 114.82 69.32 C113.41 69.32 112.96 67.96 112.96 66.65 C112.96 65.34 113.41 63.98 114.82 63.98 C116.06 63.98 116.33 65.05 116.39 65.41 L119.3 65.41 C119.04 62.97 117.57 61.56 114.9 61.55 C111.9 61.55 109.96 63.58 109.96 66.65 C109.96 69.53 111.75 71.75 114.9 71.75 C117.75 71.75 119.35 69.66 119.35 67.7 L116.4 67.7 ZM156.57 66.99 L156.54 66.99 L153.71 61.78 L150.64 61.78 L150.64 71.52 L153.47 71.52 L153.47 66.2 L153.5 66.2 L156.49 71.52 L159.41 71.52 L159.41 61.78 L156.57 61.78 L156.57 66.99 ZM165.72 65.59 C164.35 65.2 162.95 65.05 162.9 64.36 C162.9 63.81 163.57 63.7 163.98 63.7 C164.28 63.7 164.62 63.77 164.86 63.95 C165.11 64.11 165.27 64.36 165.22 64.73 L168.05 64.73 C167.97 62.35 166.1 61.55 163.99 61.55 C161.99 61.55 160.06 62.52 160.06 64.769 C160.06 66.73 161.82 67.15 163.36 67.59 C165.04 68.07 165.46 68.2 165.46 68.71 C165.46 69.43 164.71 69.6 164.22 69.6 C163.66 69.6 163.01 69.47 162.79 68.89 C162.72 68.71 162.68 68.49 162.68 68.24 L159.68 68.24 C159.71 71.35 162.86 71.75 163.96 71.75 C166.13 71.75 168.46 70.93 168.46 68.39 C168.46 66.61 167.1 65.97 165.72 65.59 ZM127.71 64.28 L130.44 64.28 L130.44 71.52 L133.44 71.52 L133.44 64.28 L136.16 64.28 L136.16 61.78 L127.71 61.78 L127.71 64.28 ZM145.1 69.32 C144.34 69.32 143.16 68.82 143.16 66.65 C143.16 64.48 144.34 63.98 145.1 63.98 C145.86 63.98 147.04 64.48 147.04 66.65 C147.04 68.82 145.86 69.32 145.1 69.32 ZM145.1 61.55 C142.14 61.55 140.16 63.68 140.16 66.65 C140.16 69.62 142.14 71.75 145.1 71.75 C148.06 71.75 150.04 69.62 150.04 66.65 C150.04 63.68 148.06 61.55 145.1 61.55 ZM136.59 71.52 M92.89 67.09 C92.89 68.08 92.89 69.32 91.47 69.32 C90.01 69.32 90.01 68.08 90.01 67.09 L90.01 61.78 L87.01 61.78 L87.01 67.75 C87.01 70.45 88.48 71.75 91.46 71.75 C94.43 71.75 95.89 70.45 95.89 67.75 L95.89 61.78 L92.89 61.78 L92.89 67.09 ZM68.34 67.51 L68.31 67.51 L66.92 61.78 L62.65 61.78 L62.65 71.52 L65.489 71.52 L65.489 65.269 L65.51 65.269 L67.21 71.52 L69.44 71.52 L71.13 65.269 L71.16 65.269 L71.16 71.52 L74.0 71.52 L74.0 61.78 L69.73 61.78 L68.34 67.51 ZM57.14 69.32 C56.38 69.32 55.2 68.82 55.2 66.65 C55.2 64.48 56.38 63.98 57.14 63.98 C57.9 63.98 59.08 64.48 59.08 66.65 C59.08 68.82 57.9 69.32 57.14 69.32 ZM57.14 61.55 C54.18 61.55 52.2 63.68 52.2 66.65 C52.2 69.62 54.18 71.75 57.14 71.75 C60.1 71.75 62.08 69.62 62.08 66.65 C62.08 63.68 60.1 61.55 57.14 61.55 ZM47.39 69.32 C45.98 69.32 45.53 67.96 45.53 66.65 C45.53 65.34 45.98 63.98 47.39 63.98 C48.63 63.98 48.9 65.05 48.96 65.41 L51.87 65.41 C51.61 62.97 50.14 61.56 47.47 61.55 C44.47 61.55 42.53 63.58 42.53 66.65 C42.53 69.53 44.32 71.75 47.47 71.75 C50.32 71.75 51.92 69.66 51.92 67.7 L48.97 67.7 C48.79 68.61 48.4 69.32 47.39 69.32 ZM80.53 67.51 L80.5 67.51 L79.11 61.78 L74.84 61.78 L74.84 71.52 L77.68 71.52 L77.68 65.269 L77.71 65.269 L79.4 71.52 L81.64 71.52 L83.32 65.269 L83.35 65.269 L83.35 71.52 L86.19 71.52 L86.19 61.78 L81.92 61.78 L80.53 67.51 ZM102.67 66.99 L102.64 66.99 L99.8 61.78 L96.73 61.78 L96.73 71.52 L99.57 71.52 L99.57 66.2 L99.6 66.2 L102.58 71.52 L105.5 71.52 L105.5 61.78 L102.67 61.78 L102.67 66.99 "/>
  <g begin="text">
   <text y="334.035" transform="matrix(0.0,-1.0,1.0,0.0,-323.547,344.523)" rotateDegrees="-90" matrix="[0.0,4.9813,-4.9813,0.0,10.4882,448.3274]" x="10.488,12.25200000000001,14.897000000000048,17.487000000000023,20.39100000000002,23.036,25.836000000000013,28.48100000000005,31.28000000000003,34.24200000000002,37.301000000000045,39.26800000000003,41.23600000000005,42.322,43.408000000000015" svgx:width="0.35,0.53,0.52,0.58,0.53,0.56,0.53,0.56,0.56,0.61,0.4,0.4,0.22,0.22,0.22" style="fill:rgb(255,255,255);font-family:AdvOTea1a7398;font-size:4.98px;stroke:none;">1234567890():,;</text>
  </g>
 </g>
</svg>
