<?xml version="1.0" encoding="UTF-8"?>
<svg height="814.359" width="4311.903" xmlns="http://www.w3.org/2000/svg">
 <g id="page" xmlns:svgx="http://www.xml-cml.org/schema/svgx">
  <g begin="text">
   <text y="62.979" x="76.535,82.736,86.274,90.706,94.245,100.445,103.984,106.638,109.738,112.839,115.055,118.593,120.809" svgx:width="0.78,0.44,0.56,0.44,0.78,0.44,0.33,0.39,0.39,0.28,0.44,0.28,0.39" style="fill:rgb(0,0,0);font-family:URWPalladioL-Ital;font-size:7.97px;stroke:none;">Nanomaterials</text>
   <text y="62.979" x="125.901,129.886,133.871,137.856" svgx:width="0.5,0.5,0.5,0.5" style="fill:rgb(0,0,0);font-family:URWPalladioL-Bold;font-size:7.97px;stroke:none;">2019</text>
   <text y="62.979" x="141.842" svgx:width="0.25" style="fill:rgb(0,0,0);font-family:URWPalladioL-Roma;font-size:7.97px;stroke:none;">,</text>
   <text y="62.979" x="145.827" svgx:width="0.5" style="fill:rgb(0,0,0);font-family:URWPalladioL-Ital;font-size:7.97px;stroke:none;">9</text>
   <text y="62.979" x="149.812,151.80450000000002,153.797,157.782,161.767,165.752,169.73700000000002,491.809,495.794,499.779,501.772,506.123,508.7531,510.77,514.755" svgx:width="0.25,0.55,0.5,0.5,0.5,0.5,0.55,0.5,0.5,0.55,0.55,0.33,0.55,0.5,0.5" style="fill:rgb(0,0,0);font-family:URWPalladioL-Roma;font-size:7.97px;stroke:none;">, 1173 10 of 17</text>
  </g>
  <g begin="text">
   <text y="74.759" x="77.263,83.444,86.985,91.427,95.029,101.21,104.751,107.414,110.524,113.634,115.859,119.461,121.682,124.792" svgx:width="0.78,0.44,0.56,0.44,0.78,0.44,0.33,0.39,0.39,0.28,0.44,0.28,0.39,0.25" style="fill:rgb(0,0,0);font-family:PalatinoLinotype,Italic;font-size:7.98px;stroke:none;">Nanomaterials </text>
   <text y="74.759" x="126.763,130.783,134.804,138.824" svgx:width="0.5,0.5,0.5,0.5" style="fill:rgb(0,0,0);font-family:PalatinoLinotype,Bold;font-size:7.98px;stroke:none;">2019</text>
   <text y="74.759" x="142.843,144.823" svgx:width="0.25,0.25" style="fill:rgb(0,0,0);font-family:PalatinoLinotype;font-size:7.98px;stroke:none;">, </text>
   <text y="74.759" x="146.803" svgx:width="0.5" style="fill:rgb(0,0,0);font-family:PalatinoLinotype,Italic;font-size:7.98px;stroke:none;">9</text>
   <text y="74.759" x="150.823,152.803,154.783,158.922,160.902,165.36,171.653,177.004,178.984,183.825,188.686,193.583,198.935,200.915,206.266,211.127,216.909,219.67,224.531,232.571,234.566,488.471,492.482,496.494,498.48900000000003,500.453,504.832,507.472,509.467,511.432,515.444,519.455" svgx:width="0.25,0.25,0.52,0.25,0.56,0.79,0.67,0.25,0.6,0.61,0.61,0.67,0.25,0.67,0.61,0.72,0.34,0.61,1.0,0.25,0.55,0.5,0.5,0.25,0.55,0.55,0.33,0.25,0.55,0.5,0.5,0.25" style="fill:rgb(0,0,0);font-family:PalatinoLinotype;font-size:7.98px;stroke:none;">, x FOR PEER REVIEW 10 of 17 </text>
   <text y="804.359" x="77.263" svgx:width="0.23" style="fill:rgb(0,0,0);font-family:Calibri;font-size:9.0px;stroke:none;"> </text>
   <text y="257.999" x="289.483" svgx:width="0.25" style="fill:rgb(0,0,0);font-family:PalatinoLinotype;font-size:10.02px;stroke:none;"> </text>
   <text y="250.499" x="509.262" svgx:width="0.25" style="fill:rgb(0,0,0);font-family:PalatinoLinotype;font-size:10.02px;stroke:none;"> </text>
   <text y="419.999" x="289.963,292.468,507.942" svgx:width="0.25,0.55,0.25" style="fill:rgb(0,0,0);font-family:PalatinoLinotype;font-size:10.02px;stroke:none;"> </text>
   <text y="445.379" x="98.503,103.528,106.53,111.537,117.039,120.544,125.047,127.327,131.831,134.051" svgx:width="0.56,0.33,0.56,0.61,0.39,0.5,0.25,0.5,0.25,0.25" style="fill:rgb(0,0,0);font-family:PalatinoLinotype,Bold;font-size:9.0px;stroke:none;">Figure 7. </text>
   <text y="445.379" x="136.303,141.834,147.347,155.809,158.029" svgx:width="0.61,0.61,0.95,0.25,0.33" style="fill:rgb(0,0,0);font-family:PalatinoLinotype;font-size:9.0px;stroke:none;">TEM (</text>
   <text y="445.379" x="161.023" svgx:width="0.5" style="fill:rgb(0,0,0);font-family:PalatinoLinotype,Bold;font-size:9.0px;stroke:none;">a</text>
   <text y="445.379" x="165.523,168.526,170.805,175.311,180.554,186.058,188.337,195.829,201.846,207.308,212.77,221.287,223.567" svgx:width="0.33,0.25,0.5,0.58,0.61,0.25,0.83,0.67,0.61,0.61,0.95,0.25,0.33" style="fill:rgb(0,0,0);font-family:PalatinoLinotype;font-size:9.0px;stroke:none;">) and HRTEM (</text>
   <text y="445.379" x="226.543,232.005,234.284" svgx:width="0.61,0.25,0.44" style="fill:rgb(0,0,0);font-family:PalatinoLinotype,Bold;font-size:9.0px;stroke:none;">b,c</text>
   <text y="445.379" x="238.303,241.243,243.522,246.139,254.081,258.577,263.577,267.884,271.697,273.944,276.224,280.531,285.766,290.073,293.625,298.625,303.625,305.905,311.4,314.016,317.828,323.233,327.541,331.092,334.905,337.521,342.602,346.91,349.189,355.188,358.182,361.734,366.23,371.23,373.51,376.45,381.972,388.933,394.932,397.926,400.206,408.147,412.644,418.049,423.454,426.07,431.304,436.304,438.584" svgx:width="0.33,0.25,0.29,0.88,0.5,0.56,0.48,0.42,0.25,0.25,0.48,0.58,0.48,0.4,0.56,0.56,0.25,0.61,0.29,0.42,0.6,0.48,0.4,0.42,0.29,0.56,0.48,0.25,0.67,0.33,0.4,0.5,0.56,0.25,0.33,0.61,0.77,0.67,0.33,0.25,0.88,0.5,0.6,0.6,0.29,0.58,0.56,0.25,0.33" style="fill:rgb(0,0,0);font-family:PalatinoLinotype;font-size:9.0px;stroke:none;">) images, energy dispersive X-ray (EDX) mapping (</text>
   <text y="445.379" x="441.583" svgx:width="0.61" style="fill:rgb(0,0,0);font-family:PalatinoLinotype,Bold;font-size:9.0px;stroke:none;">d</text>
   <text y="445.379" x="447.103,450.104,452.325,457.242,460.243,462.523,467.027,474.589,479.596,483.911" svgx:width="0.33,0.25,0.55,0.33,0.25,0.5,0.84,0.56,0.48,0.33" style="fill:rgb(0,0,0);font-family:PalatinoLinotype;font-size:9.0px;stroke:none;">) of 5%Fe-</text>
   <text y="458.399" x="98.503,104.032,106.664" svgx:width="0.61,0.29,0.79" style="fill:rgb(0,0,0);font-family:PalatinoLinotype;font-size:9.0px;stroke:none;">TiO</text>
   <text y="458.399" x="113.743" svgx:width="0.5" style="fill:rgb(0,0,0);font-family:PalatinoLinotype;font-size:5.52px;stroke:none;">2</text>
   <text y="458.399" x="116.503,118.723" svgx:width="0.25,0.25" style="fill:rgb(0,0,0);font-family:PalatinoLinotype;font-size:9.0px;stroke:none;">. </text>
   <text y="483.599" x="77.263,82.281,84.741,89.759,92.219,97.237,99.751,102.211,108.271,114.11,119.589,122.827,128.306,132.272,137.011,141.273,147.273,152.734,158.573,162.83,167.637,170.157,175.558,178.918,181.438,189.718,194.698,200.537,206.016,209.361,215.511,218.435" svgx:width="0.5,0.25,0.5,0.25,0.5,0.25,0.25,0.6,0.58,0.55,0.33,0.55,0.4,0.48,0.42,0.6,0.55,0.58,0.42,0.48,0.25,0.55,0.33,0.25,0.83,0.5,0.58,0.55,0.33,0.61,0.29,0.79" style="fill:rgb(0,0,0);font-family:PalatinoLinotype;font-size:10.02px;stroke:none;">3.2.5. Photoresponse of Nano-TiO</text>
   <text y="483.599" x="226.243" svgx:width="0.5" style="fill:rgb(0,0,0);font-family:PalatinoLinotype;font-size:6.0px;stroke:none;">2</text>
   <text y="483.599" x="229.183" svgx:width="0.25" style="fill:rgb(0,0,0);font-family:PalatinoLinotype;font-size:10.02px;stroke:none;"> </text>
   <text y="503.038" x="98.503,104.64,110.466,115.261,117.76599999999999,119.461,125.477,131.304,136.769,140.032,145.497,149.451,154.245,158.489,164.506,169.971,175.798,180.041,184.836,187.341,189.036,194.502,197.834,200.339,202.034,208.05,212.004,216.743,222.743,227.748,231.701,236.496,242.612,245.117,246.812,251.056,256.061,264.902,270.919,273.83,278.625,282.869,285.374,287.068,295.419,300.424,304.668,307.173,308.802,313.825,319.584,324.607,327.487,333.006,338.046,342.859,348.993,351.498,353.193,358.711,364.29,366.795,368.489,376.231,383.429,386.78,393.978,396.908,401.17,403.675,405.369,413.05,419.77,425.044,427.549,429.183,434.206,440.051,446.186,448.691,450.385,454.767,460.228,469.05,475.05,480.073,484.044,488.857,494.992,497.497,499.191,507.56,510.489,513.667,519.487" svgx:width="0.61,0.58,0.48,0.25,0.55,0.6,0.58,0.55,0.33,0.55,0.4,0.48,0.42,0.6,0.55,0.58,0.42,0.48,0.25,0.55,0.55,0.33,0.25,0.55,0.6,0.4,0.48,0.6,0.5,0.4,0.48,0.61,0.25,0.55,0.42,0.5,0.88,0.6,0.29,0.48,0.42,0.25,0.55,0.83,0.5,0.42,0.25,0.55,0.5,0.58,0.5,0.29,0.56,0.5,0.48,0.61,0.25,0.55,0.55,0.56,0.25,0.55,0.78,0.72,0.33,0.72,0.29,0.42,0.25,0.55,0.77,0.67,0.52,0.25,0.55,0.5,0.58,0.61,0.25,0.55,0.44,0.55,0.88,0.6,0.5,0.4,0.48,0.61,0.25,0.55,0.83,0.29,0.33,0.58,0.25" style="fill:rgb(0,0,0);font-family:PalatinoLinotype;font-size:10.02px;stroke:none;">The photoresponse of prepared samples was analyzed by UV-Vis DRS and compared with </text>
   <text y="516.538" x="77.263,81.714,87.187,96.035,104.883,109.685,113.645,118.097,121.015,125.995,128.914,131.41899999999998,132.453,138.453,143.493,148.473,150.993,153.498,154.533,160.677,166.51,171.312,173.817,174.851,178.812,183.613,187.815,193.875,196.754,199.992,204.243,206.748,207.783,212.795,216.755,221.557,224.06199999999998,225.096,229.347,235.181,240.653,249.011,254.77,257.27500000000003,258.31,261.228,267.062,269.567,270.601,276.174,279.054,284.627,290.67,294.631,299.37,301.875,302.91,307.89,312.93,315.39,317.895,318.929,325.073,330.906,335.708,338.213,339.248,343.699,349.742,353.703,359.366,364.168,368.418,370.923,371.898,377.371,380.71,383.215,384.25,389.23,392.148,395.067,397.572,398.607,401.845,407.664,412.466,414.971,416.005,420.207,425.187,434.035,440.059,442.977,447.779,452.03,454.53499999999997,455.57,461.403,466.415,472.078,476.88,479.385,480.359,485.339,487.844,488.879,493.13,496.048,504.896,507.776,510.695,515.614,519.515" svgx:width="0.44,0.55,0.88,0.88,0.48,0.4,0.44,0.29,0.5,0.29,0.25,0.55,0.6,0.5,0.5,0.25,0.25,0.55,0.61,0.58,0.48,0.25,0.55,0.4,0.48,0.42,0.6,0.29,0.33,0.42,0.25,0.55,0.5,0.4,0.48,0.25,0.55,0.42,0.58,0.55,0.83,0.58,0.25,0.55,0.29,0.58,0.25,0.55,0.56,0.29,0.56,0.6,0.4,0.48,0.25,0.55,0.5,0.5,0.25,0.25,0.55,0.61,0.58,0.48,0.25,0.55,0.44,0.6,0.4,0.56,0.48,0.42,0.25,0.55,0.55,0.33,0.25,0.55,0.5,0.29,0.29,0.25,0.55,0.33,0.58,0.48,0.25,0.55,0.42,0.5,0.88,0.6,0.29,0.48,0.42,0.25,0.55,0.58,0.5,0.56,0.48,0.25,0.55,0.5,0.25,0.55,0.42,0.29,0.88,0.29,0.29,0.5,0.4,0.25" style="fill:rgb(0,0,0);font-family:PalatinoLinotype;font-size:10.02px;stroke:none;">commercial P25. The results are shown in Figure 8a. The curves of all the samples have a similar </text>
   <text y="530.038" x="77.263,81.514,87.347,92.359,98.383,103.185,105.693,108.453,111.372,117.205,123.329,126.248,130.63,135.61,138.879,141.797,147.631,153.204,156.023,159.292,165.126,170.138,173.407,176.226,179.145,183.105,188.578,194.337,197.157,203.281,206.199,212.323,215.143,220.976,226.449,229.718,232.537,236.788,239.707,245.28,251.039,253.958,257.297,260.216,264.598,269.61,275.443,278.712,281.631,287.204,290.023,294.474,300.233,305.245,311.005,316.578,321.379,324.199,330.343,333.261" svgx:width="0.42,0.58,0.5,0.6,0.48,0.25,0.25,0.29,0.58,0.61,0.29,0.44,0.5,0.33,0.29,0.58,0.56,0.25,0.33,0.58,0.5,0.33,0.25,0.29,0.4,0.55,0.58,0.25,0.61,0.29,0.61,0.25,0.58,0.55,0.33,0.25,0.42,0.29,0.56,0.58,0.29,0.33,0.29,0.44,0.5,0.58,0.33,0.29,0.56,0.25,0.44,0.58,0.5,0.58,0.56,0.48,0.25,0.61,0.29,0.79" style="fill:rgb(0,0,0);font-family:PalatinoLinotype;font-size:10.02px;stroke:none;">shape, indicating that iron did not significantly change TiO</text>
   <text y="530.039" x="341.143" svgx:width="0.5" style="fill:rgb(0,0,0);font-family:PalatinoLinotype;font-size:6.0px;stroke:none;">2</text>
   <text y="530.039" x="344.143,346.646,349.466,355.604,361.433,366.229,368.99,375.108,378.022,381.356,384.691,389.487,393.443,398.239,404.068,408.514,413.31,416.13,421.531,424.891,427.651,430.916,436.744,441.541,444.36,448.806,454.845,458.8,464.458,469.255,473.501,476.32,479.234,482.148,486.887,491.149,493.968,496.882,502.71,505.53,508.794,514.622,519.482" svgx:width="0.25,0.25,0.61,0.58,0.48,0.25,0.61,0.29,0.33,0.33,0.48,0.4,0.48,0.58,0.44,0.48,0.25,0.55,0.33,0.25,0.33,0.58,0.48,0.25,0.44,0.6,0.4,0.56,0.48,0.42,0.25,0.29,0.29,0.48,0.42,0.25,0.29,0.58,0.25,0.33,0.58,0.48,0.25" style="fill:rgb(0,0,0);font-family:PalatinoLinotype;font-size:10.02px;stroke:none;">. The difference of the curves lies in the </text>
   <text y="543.539" x="77.264,83.387,86.306,89.645,92.985,97.786,101.747,106.548,112.382,116.833,121.572,124.753,130.225,133.565,136.685,139.954,145.787,150.589,153.769,159.893,165.365,173.723,179.556,187.913,192.925,196.826,202.947,206.128,209.397,213.357,218.159,223.992,230.116,233.296,238.308,244.067,250.191,253.311,258.323,267.171,273.195,276.113,279.032,282.21,288.254,294.378,299.179,302.299,307.311,310.483,313.663,318.703,323.683,328.723,331.903,335.157,340.613,343.733,348.773,353.753,358.793,361.973,367.791,376.623,379.115,382.295,388.423,394.24,399.026,402.206,405.145,410.965,414.218,419.004,422.948,427.183,431.968,436.403,439.657,442.596,448.053,453.87,457.05,462.507,465.867,469.048,472.301,478.118,482.904,486.024,489.277,494.317,500.134,505.691,510.477,516.294,519.472" svgx:width="0.61,0.29,0.33,0.33,0.48,0.4,0.48,0.58,0.44,0.48,0.25,0.55,0.33,0.25,0.33,0.58,0.48,0.25,0.61,0.55,0.83,0.58,0.83,0.5,0.4,0.61,0.25,0.33,0.4,0.48,0.58,0.61,0.25,0.5,0.58,0.61,0.25,0.5,0.88,0.6,0.29,0.29,0.33,0.6,0.61,0.48,0.25,0.5,0.33,0.25,0.5,0.5,0.5,0.25,0.33,0.55,0.25,0.5,0.5,0.5,0.25,0.58,0.88,0.25,0.25,0.61,0.58,0.48,0.25,0.29,0.58,0.33,0.48,0.4,0.42,0.48,0.44,0.33,0.29,0.55,0.58,0.25,0.55,0.33,0.25,0.33,0.58,0.48,0.25,0.33,0.5,0.58,0.56,0.48,0.58,0.33,0.25" style="fill:rgb(0,0,0);font-family:PalatinoLinotype;font-size:10.02px;stroke:none;">difference of the downward trend and amplitude at 350 to 600 nm. The intersection of the tangent </text>
   <text y="557.039" x="77.264,85.615,88.528,91.791,97.618,100.018,103.281,107.236,112.242,118.069,122.314,127.971,132.71,136.61,140.855,145.651,148.051,152.496,157.963,163.429,167.384,173.445,176.385,182.144,187.184,190.447,195.243,199.488,201.888,206.894,210.157,212.557,215.82,221.647,226.387,228.787,237.629,243.096,247.34,250.604,252.943,258.41,263.947,269.604,272.517,277.983,284.021,288.266,290.605,296.723,302.143,310.423,316.242,324.595,329.602,333.557,339.676,342.077,345.341,349.296,354.093,359.852,365.971,368.312,373.779,377.114,379.515,382.779,388.607,393.404,395.805,400.187,406.246,410.202,415.86,420.656,423.057,426.957,431.757,437.776,441.731,446.528,450.773,455.57,461.398,464.663,468.908,471.309,474.573,480.402,485.198,487.539,490.453,493.367,502.21,505.123,508.388,510.788,516.189,519.489" svgx:width="0.83,0.29,0.33,0.58,0.25,0.33,0.4,0.5,0.58,0.42,0.56,0.48,0.4,0.42,0.48,0.25,0.44,0.55,0.55,0.4,0.61,0.29,0.58,0.5,0.33,0.48,0.42,0.25,0.5,0.33,0.25,0.33,0.58,0.48,0.25,0.88,0.55,0.42,0.33,0.25,0.55,0.55,0.56,0.29,0.55,0.6,0.42,0.25,0.61,0.55,0.83,0.58,0.83,0.5,0.4,0.61,0.25,0.33,0.4,0.48,0.58,0.61,0.25,0.55,0.33,0.25,0.33,0.58,0.48,0.25,0.44,0.6,0.4,0.56,0.48,0.25,0.4,0.48,0.6,0.4,0.48,0.42,0.48,0.58,0.33,0.42,0.25,0.33,0.58,0.48,0.25,0.29,0.29,0.88,0.29,0.33,0.25,0.55,0.33,0.25" style="fill:rgb(0,0,0);font-family:PalatinoLinotype;font-size:10.02px;stroke:none;">with transverse coordinates at the most obvious downward trend of the curve represents the limit of </text>
   <text y="570.539" x="77.264,80.179,83.095,88.665,94.495,97.733,100.434,105.443,110.983,115.23,120.7,124.657,130.678,133.916,136.796,142.266,148.096,150.601,153.361,161.155,164.034,166.95,169.71,173.912,178.952,187.797,193.818,196.697,201.497,205.745,208.505,214.336,219.345,225.406,228.167,232.415,235.653,239.61,245.08,250.91,256.429,259.189,262.105,265.021,270.59,276.421,279.659,282.359,287.368,292.908,297.156,302.626,306.583,312.604,315.782,318.721,324.191,330.021,332.782,338.322,343.12,346.036,351.506,359.86,362.56,367.54,372.52,377.56,380.321,386.151,394.996,397.501,400.262,405.801,411.842,415.08,417.841,423.84,428.82,433.8,436.561,441.57,447.4,453.521,456.281,462.302,468.301,472.259,477.057,479.818,485.958,488.838" svgx:width="0.29,0.29,0.56,0.58,0.33,0.25,0.5,0.55,0.42,0.55,0.4,0.6,0.33,0.29,0.55,0.58,0.25,0.25,0.78,0.29,0.29,0.25,0.42,0.5,0.88,0.6,0.29,0.48,0.42,0.25,0.58,0.5,0.61,0.25,0.42,0.33,0.4,0.55,0.58,0.56,0.25,0.29,0.29,0.56,0.58,0.33,0.25,0.5,0.55,0.42,0.55,0.4,0.6,0.33,0.29,0.55,0.58,0.25,0.55,0.48,0.29,0.55,0.83,0.25,0.5,0.5,0.5,0.25,0.58,0.88,0.25,0.25,0.55,0.6,0.33,0.25,0.6,0.5,0.5,0.25,0.5,0.58,0.61,0.25,0.6,0.6,0.4,0.48,0.25,0.61,0.29,0.79" style="fill:rgb(0,0,0);font-family:PalatinoLinotype;font-size:10.02px;stroke:none;">light absorption. All samples had strong light absorption below 400 nm, but P25 and pure TiO</text>
   <text y="570.539" x="496.723" svgx:width="0.5" style="fill:rgb(0,0,0);font-family:PalatinoLinotype;font-size:6.0px;stroke:none;">2</text>
   <text y="570.539" x="499.723,502.483,508.32,513.335,519.461" svgx:width="0.25,0.58,0.5,0.61,0.25" style="fill:rgb(0,0,0);font-family:PalatinoLinotype;font-size:10.02px;stroke:none;"> had </text>
   <text y="583.979" x="77.265,82.305,85.245,94.071,99.522,103.75,106.998,108.978,114.789,120.24,122.22,127.26,132.718,136.947,142.397,146.336,152.337,155.584,158.524,163.975,169.786,171.766,176.806,180.044,181.964,186.954,191.994,196.984,198.965,202.212,207.663,209.643,214.633,219.673,224.663,226.643,232.454,241.28,243.766,245.746,253.601,259.412,261.392,264.64,270.451,275.23,277.211,281.64,287.09,292.902,296.149,300.087,305.127,309.066,314.616,317.102,319.083,324.633,329.413,332.773,338.895,341.835" svgx:width="0.5,0.29,0.88,0.55,0.42,0.33,0.25,0.58,0.55,0.25,0.5,0.55,0.42,0.55,0.4,0.6,0.33,0.29,0.55,0.58,0.25,0.5,0.33,0.25,0.5,0.5,0.5,0.25,0.33,0.55,0.25,0.5,0.5,0.5,0.25,0.58,0.88,0.25,0.25,0.79,0.58,0.25,0.33,0.58,0.48,0.25,0.44,0.55,0.58,0.33,0.4,0.5,0.4,0.56,0.25,0.25,0.56,0.48,0.33,0.61,0.29,0.79" style="fill:rgb(0,0,0);font-family:PalatinoLinotype;font-size:10.02px;stroke:none;">almost no absorption at 400 to 800 nm. On the contrary, Fe-TiO</text>
   <text y="583.979" x="349.663" svgx:width="0.5" style="fill:rgb(0,0,0);font-family:PalatinoLinotype;font-size:6.0px;stroke:none;">2</text>
   <text y="583.979" x="352.663,354.583,358.826,364.651,370.052,378.392,382.635,384.615,390.731,393.641,396.973,400.304,405.098,409.05,413.844,419.669,422.93,424.91,430.972,435.772,441.337,445.289,450.083,454.876,459.119,461.099,466.564,469.895,471.875,476.879,482.414,486.657,492.058,496.01,502.026,505.287,508.197,513.662,519.488" svgx:width="0.25,0.42,0.58,0.55,0.83,0.42,0.25,0.61,0.29,0.33,0.33,0.48,0.4,0.48,0.58,0.33,0.25,0.61,0.48,0.56,0.4,0.48,0.48,0.42,0.25,0.55,0.33,0.25,0.5,0.55,0.42,0.55,0.4,0.6,0.33,0.29,0.55,0.58,0.25" style="fill:rgb(0,0,0);font-family:PalatinoLinotype;font-size:10.02px;stroke:none;"> shows different degrees of absorption </text>
   <text y="597.479" x="77.264,80.514,85.968,88.848,94.492,97.431,101.663,104.603,110.127,113.026,117.809,120.688,123.588,126.528,132.082,137.896,141.146,143.635,146.515,151.555,157.374,163.479,166.358,169.609,175.423,180.206,183.085,191.847,196.827,201.98,204.92,213.749,219.774,228.603,231.482,236.936,242.941,246.191,249.131,253.563,258.603,261.542,264.362,269.402,274.92,279.152,284.605,288.547,294.551,297.801,300.763,306.217,312.031,314.851,323.189,328.23,333.874,338.657,341.597,346.398,352.212,357.766,361.016,366.831,369.71,372.61,378.424,382.856,386.798,391.58,396.621,400.853,405.636,409.867,412.747,421.085,424.026,427.276,433.091,435.97,439.22,445.035,449.817,452.697,455.638,461.458,465.89,469.831,474.614,479.655,483.887,488.669,491.489,496.943,500.304,503.184,508.737" svgx:width="0.33,0.55,0.25,0.56,0.29,0.42,0.29,0.55,0.29,0.48,0.25,0.29,0.29,0.56,0.58,0.33,0.25,0.25,0.5,0.58,0.61,0.25,0.33,0.58,0.48,0.25,0.88,0.5,0.52,0.29,0.88,0.6,0.88,0.25,0.55,0.6,0.33,0.29,0.44,0.5,0.29,0.25,0.5,0.55,0.42,0.55,0.4,0.6,0.33,0.29,0.55,0.58,0.25,0.83,0.5,0.56,0.48,0.29,0.48,0.58,0.56,0.33,0.58,0.25,0.29,0.58,0.44,0.4,0.48,0.5,0.42,0.48,0.42,0.25,0.83,0.29,0.33,0.58,0.25,0.33,0.58,0.48,0.25,0.29,0.58,0.44,0.4,0.48,0.5,0.42,0.48,0.25,0.55,0.33,0.25,0.56,0.48" style="fill:rgb(0,0,0);font-family:PalatinoLinotype;font-size:10.02px;stroke:none;">to visible light, and the maximum optical absorption wavelength increases with the increase of Fe</text>
   <text y="594.959" x="513.523,516.523" svgx:width="0.5,0.5" style="fill:rgb(0,0,0);font-family:PalatinoLinotype;font-size:6.0px;stroke:none;">3+</text>
   <text y="597.479" x="519.463" svgx:width="0.25" style="fill:rgb(0,0,0);font-family:PalatinoLinotype;font-size:10.02px;stroke:none;"> </text>
   <text y="610.979" x="77.264,81.717,87.19,93.025,96.263,101.066,106.9,110.138,112.658,115.298,121.443,127.277,130.197,134.449,137.029,139.949,144.2,146.841,152.865,156.827,162.3,167.758,172.771,178.315,181.235,186.753,189.394,195.455,201.515,206.318,208.958,212.196,217.657,220.297,223.535,229.354,234.157,236.737,240.078,245.091,249.543,252.781,255.361,258.599,264.418,269.431,272.67,275.31,280.884" svgx:width="0.44,0.55,0.58,0.33,0.48,0.58,0.33,0.25,0.25,0.61,0.58,0.29,0.42,0.25,0.29,0.42,0.25,0.6,0.4,0.55,0.55,0.5,0.55,0.29,0.56,0.25,0.61,0.6,0.48,0.25,0.33,0.55,0.25,0.33,0.58,0.48,0.25,0.33,0.5,0.44,0.33,0.25,0.33,0.58,0.5,0.33,0.25,0.56,0.48" style="fill:rgb(0,0,0);font-family:PalatinoLinotype;font-size:10.02px;stroke:none;">content. This is probably due to the fact that Fe</text>
   <text y="608.459" x="285.703,288.703" svgx:width="0.5,0.5" style="fill:rgb(0,0,0);font-family:PalatinoLinotype;font-size:6.0px;stroke:none;">3+</text>
   <text y="610.979" x="291.703,294.343,300.362,304.317,309.114,313.496,316.409,322.428,325.342,328.606,333.613,336.877,341.674,345.92,348.5,354.538,360.367,363.28,366.615,372.082,375.983,384.826,387.739,393.307,395.887,398.801,404.629,407.27,413.408,416.322" svgx:width="0.25,0.6,0.4,0.48,0.44,0.29,0.6,0.29,0.33,0.5,0.33,0.48,0.42,0.25,0.6,0.58,0.29,0.33,0.55,0.4,0.88,0.29,0.56,0.25,0.29,0.58,0.25,0.61,0.29,0.79" style="fill:rgb(0,0,0);font-family:PalatinoLinotype;font-size:10.02px;stroke:none;"> precipitates uniformly in TiO</text>
   <text y="610.979" x="424.183" svgx:width="0.5" style="fill:rgb(0,0,0);font-family:PalatinoLinotype;font-size:6.0px;stroke:none;">2</text>
   <text y="610.979" x="427.123,429.763,435.825,441.885,445.849,448.772,454.609,460.128,462.768,468.796,472.76,477.566,481.948,484.87,490.898,493.82,497.059,502.075,505.313,508.236,513.712,519.471" svgx:width="0.25,0.61,0.6,0.4,0.29,0.58,0.56,0.25,0.6,0.4,0.48,0.44,0.29,0.6,0.29,0.33,0.5,0.33,0.29,0.55,0.58,0.25" style="fill:rgb(0,0,0);font-family:PalatinoLinotype;font-size:10.02px;stroke:none;"> during precipitation </text>
   <text y="624.479" x="77.264,81.523,87.104,92.945,96.183,102.025,106.834,111.093,113.973,118.232,120.748,123.928,128.948,134.707,140.839,144.079,149.099,152.446,155.684,160.484,164.452,167.693,172.075,177.055,179.981,184.44,187.367,193.126,198.146,201.384,204.311,209.792,215.633,218.813,223.833,227.071,230.312,236.153,239.08,244.661,250.502,253.682,256.92,261.72,270.542,276.542,281.351,285.32,290.34,293.578,299.629,303.598,308.407,310.923,314.104,319.684" svgx:width="0.42,0.56,0.58,0.33,0.58,0.48,0.42,0.29,0.42,0.25,0.25,0.5,0.58,0.61,0.25,0.5,0.33,0.33,0.48,0.4,0.25,0.44,0.5,0.29,0.44,0.29,0.58,0.5,0.33,0.29,0.55,0.58,0.25,0.5,0.33,0.25,0.58,0.29,0.56,0.58,0.25,0.33,0.48,0.88,0.6,0.48,0.4,0.5,0.33,0.6,0.4,0.48,0.25,0.25,0.56,0.48" style="fill:rgb(0,0,0);font-family:PalatinoLinotype;font-size:10.02px;stroke:none;">synthesis, and after calcination at high temperature, Fe</text>
   <text y="621.959" x="324.463,327.463" svgx:width="0.5,0.5" style="fill:rgb(0,0,0);font-family:PalatinoLinotype;font-size:6.0px;stroke:none;">3+</text>
   <text y="624.479" x="330.463,333.703,338.493,344.314,347.571,352.361,356.309,360.548,363.728,366.668,372.427,375.684,381.145,384.385,387.642,393.464,398.253,401.493,407.625,410.565" svgx:width="0.25,0.48,0.58,0.33,0.48,0.4,0.42,0.25,0.29,0.58,0.33,0.55,0.25,0.33,0.58,0.48,0.25,0.61,0.29,0.79" style="fill:rgb(0,0,0);font-family:PalatinoLinotype;font-size:10.02px;stroke:none;"> enters into the TiO</text>
   <text y="624.479" x="418.423" svgx:width="0.5" style="fill:rgb(0,0,0);font-family:PalatinoLinotype;font-size:6.0px;stroke:none;">2</text>
   <text y="624.479" x="421.423,424.663,427.588,432.568,435.806,439.044,441.984,446.441,451.249,454.489,459.507,465.346,471.476,474.716,480.766,486.525,489.45,492.75,498.229,502.195,511.049,513.974,519.493" svgx:width="0.25,0.29,0.5,0.33,0.33,0.29,0.44,0.48,0.25,0.5,0.58,0.61,0.25,0.6,0.58,0.29,0.33,0.55,0.4,0.88,0.29,0.56,0.25" style="fill:rgb(0,0,0);font-family:PalatinoLinotype;font-size:10.02px;stroke:none;"> lattice and uniformly </text>
   <text y="637.979" x="77.264,81.214,86.004,92.017,94.924,99.964,104.345,109.136,113.376,115.416,121.429,126.469,130.418,133.676,135.656,141.118,144.447,146.487,152.548" svgx:width="0.4,0.48,0.6,0.29,0.5,0.44,0.48,0.42,0.25,0.6,0.5,0.4,0.33,0.25,0.55,0.33,0.25,0.61,0.29" style="fill:rgb(0,0,0);font-family:PalatinoLinotype;font-size:10.02px;stroke:none;">replaces part of Ti</text>
   <text y="635.459" x="155.503,158.503" svgx:width="0.5,0.5" style="fill:rgb(0,0,0);font-family:PalatinoLinotype;font-size:6.0px;stroke:none;">4+</text>
   <text y="637.979" x="161.503,163.963,166.003,169.965,174.767,178.969,185.029,187.948,191.186,194.066,199.885,205.459,207.499,210.419,216.178,218.219,221.457,227.276,232.016,234.056,239.069,244.613,248.864,254.265,258.226,264.251,267.489,270.429,275.903,281.737,283.777,289.251,292.551,294.592,300.256,303.135,307.387,310.267,315.81,318.73,323.533,325.513,328.433,331.352,336.926,342.761,345.999,348.459,350.499,356.644,362.478,367.218,369.198,373.65,378.663,381.583,385.965,392.009,394.889,399.902,403.14,406.06,411.534,417.293,419.333,424.807,428.107,430.087,433.325,439.145,443.947,445.988,451.531,456.544,462.379,468.44,470.481,475.999,481.04,487.064,489.044,493.847,499.681,504.484,508.445,514.019,519.478" svgx:width="0.25,0.25,0.4,0.48,0.42,0.6,0.29,0.33,0.29,0.58,0.56,0.25,0.29,0.58,0.25,0.33,0.58,0.48,0.25,0.5,0.55,0.42,0.55,0.4,0.6,0.33,0.29,0.55,0.58,0.25,0.55,0.33,0.25,0.56,0.29,0.42,0.29,0.55,0.29,0.48,0.25,0.29,0.29,0.56,0.58,0.33,0.25,0.25,0.61,0.58,0.48,0.25,0.44,0.5,0.29,0.44,0.6,0.29,0.5,0.33,0.29,0.55,0.58,0.25,0.55,0.33,0.25,0.33,0.58,0.48,0.25,0.55,0.5,0.58,0.61,0.25,0.56,0.5,0.6,0.25,0.48,0.58,0.48,0.4,0.56,0.56,0.25" style="fill:rgb(0,0,0);font-family:PalatinoLinotype;font-size:10.02px;stroke:none;">, resulting in the absorption of visible light. The calculation of the band gap energy </text>
   <text y="651.479" x="77.263,82.742,86.088,88.608,92.809,97.849,106.703,112.733,115.658,120.397,124.654,127.174,132.723,138.242,140.762,144.0,149.819,154.627,157.147,164.429,170.478,176.027,180.835,183.714,189.293,194.273,199.253,208.735,214.785,220.624,226.143,228.663,232.009,237.487,241.454,250.216,256.265,259.145,264.163,266.623,269.548,273.804,276.264,281.282,285.484,288.004,291.349,296.75,299.675,302.599,308.078,316.358,320.62,323.08" svgx:width="0.55,0.33,0.25,0.42,0.5,0.88,0.6,0.29,0.48,0.42,0.25,0.55,0.56,0.25,0.33,0.58,0.48,0.25,0.73,0.6,0.55,0.48,0.29,0.56,0.5,0.5,0.95,0.6,0.58,0.56,0.25,0.33,0.55,0.4,0.88,0.6,0.29,0.5,0.25,0.29,0.42,0.25,0.5,0.42,0.25,0.33,0.55,0.29,0.29,0.55,0.83,0.42,0.25,0.25" style="fill:rgb(0,0,0);font-family:PalatinoLinotype;font-size:10.02px;stroke:none;">of samples by the Kubelka–Munk formula is as follows: </text>
   <text y="677.999" x="280.243,287.907,293.922,297.403,300.284,305.504,309.104,316.124" svgx:width="0.72,0.56,0.33,0.28,0.5,0.33,0.67,0.33" style="fill:rgb(0,0,0);font-family:TimesNewRoman;font-size:10.44px;stroke:none;">A=-lg(R)</text>
   <text y="677.399" x="321.103" svgx:width="0.25" style="fill:rgb(0,0,0);font-family:PalatinoLinotype;font-size:10.02px;stroke:none;"> </text>
   <text y="679.198" x="502.963,506.323,511.303,514.603" svgx:width="0.33,0.5,0.33,0.25" style="fill:rgb(0,0,0);font-family:PalatinoLinotype;font-size:10.02px;stroke:none;">(4) </text>
   <text y="701.279" x="313.783" svgx:width="0.5" style="fill:rgb(0,0,0);font-family:TimesNewRoman;font-size:6.2px;stroke:none;">2</text>
   <text y="706.079" x="265.843,271.489,275.03,281.865,285.345,291.166,294.645,299.805,303.165,310.001,313.5386,318.101,320.982,326.142" svgx:width="0.56,0.33,0.67,0.33,0.56,0.33,0.5,0.33,0.67,0.33,0.55,0.28,0.5,0.67" style="fill:rgb(0,0,0);font-family:TimesNewRoman;font-size:10.72px;stroke:none;">F(R)=(1-R) /2R</text>
   <text y="705.539" x="335.563" svgx:width="0.25" style="fill:rgb(0,0,0);font-family:PalatinoLinotype;font-size:10.02px;stroke:none;"> </text>
   <text y="706.199" x="502.962,506.323,511.303,514.603" svgx:width="0.33,0.5,0.33,0.25" style="fill:rgb(0,0,0);font-family:PalatinoLinotype;font-size:10.02px;stroke:none;">(5) </text>
   <text y="733.499" x="275.563,282.965,289.805,295.878,301.951,308.023,314.096,317.51" svgx:width="0.61,0.56,0.5,0.5,0.5,0.5,0.28,0.49" style="fill:rgb(0,0,0);font-family:TimesNewRoman;font-size:11.98px;stroke:none;">E=1240/λ</text>
   <text y="733.499" x="326.203" svgx:width="0.25" style="fill:rgb(0,0,0);font-family:PalatinoLinotype;font-size:10.02px;stroke:none;"> </text>
   <text y="733.258" x="502.962,506.323,511.303,514.603" svgx:width="0.33,0.5,0.33,0.25" style="fill:rgb(0,0,0);font-family:PalatinoLinotype;font-size:10.02px;stroke:none;">(6) </text>
   <text y="752.938" x="77.264,85.621,91.453,96.254,100.213,105.014,107.51899999999999,108.974,116.769,119.274,121.27,124.187,128.437,130.942,132.937,136.205,142.038,146.838,149.343,151.339,156.35,161.891,166.141,171.613,175.572,181.03,186.041,191.873,196.255,201.055,203.562,206.067,208.062,214.756,217.261,219.196,222.114,226.363,228.868,230.864,234.132,239.964,244.765,247.26999999999998,249.265,253.165,257.965,261.303,264.221,269.022,273.472,276.65,279.567,285.229,288.147,291.415,296.987,299.494,301.999,303.994,310.056,312.561,314.556,317.474,321.724,324.229,326.224,329.492,335.324,340.125,342.63,344.625,350.167,355.178,361.01,367.072,369.577,371.572,377.144,382.155,388.178,390.683,392.678,397.479,403.311,408.112,412.012,417.584,423.156,425.661,427.596,432.607,438.439,444.562,447.067,449.083,455.023,457.528,459.523,462.426,466.66,469.165,471.161,474.414,480.231,485.017,487.522,489.517,494.974,500.981,504.234,507.174,511.609,516.649,519.469" svgx:width="0.83,0.58,0.48,0.4,0.48,0.25,0.55,0.78,0.25,0.55,0.29,0.42,0.25,0.55,0.33,0.58,0.48,0.25,0.55,0.5,0.55,0.42,0.55,0.4,0.55,0.5,0.58,0.44,0.48,0.25,0.25,0.55,0.67,0.25,0.55,0.29,0.42,0.25,0.55,0.33,0.58,0.48,0.25,0.55,0.4,0.48,0.33,0.29,0.48,0.44,0.33,0.29,0.56,0.29,0.33,0.56,0.25,0.25,0.55,0.61,0.25,0.55,0.29,0.42,0.25,0.55,0.33,0.58,0.48,0.25,0.55,0.55,0.5,0.58,0.61,0.25,0.55,0.56,0.5,0.6,0.25,0.55,0.48,0.58,0.48,0.4,0.56,0.56,0.25,0.55,0.5,0.58,0.61,0.25,0.55,0.59,0.25,0.55,0.29,0.42,0.25,0.55,0.33,0.58,0.48,0.25,0.55,0.55,0.6,0.33,0.29,0.44,0.5,0.29,0.25" style="fill:rgb(0,0,0);font-family:PalatinoLinotype;font-size:10.02px;stroke:none;">where A is the absorbance, R is the reflectivity, E is the band gap energy and λ is the optical </text>
   <text y="767.519" x="77.264,85.364,90.404,95.865,100.605,103.516,108.311,114.137,119.703,122.965,128.792,131.293,133.798,135.372,141.509,147.335,152.13,154.635,156.27,161.805,166.81,172.637,178.753,181.25799999999998,182.833,188.399,193.404,199.42,201.92499999999998,203.56,208.355,214.181,218.976,222.929,228.495,234.061,236.566,238.14,244.257,247.169,252.174,257.74,261.693,266.698,275.539,278.044,279.679,285.079,288.44,290.945,292.603,295.841,301.661,306.466,308.971,310.546,314.801,319.817,328.669,334.697,337.619,342.359,344.864,346.498,349.378,353.64,356.145,357.779,363.256,368.714,371.952,376.992,379.915,385.752,390.558,396.686,399.191,400.825,406.283,411.862,414.367,416.001,422.001,426.263,429.142,434.962,440.539,443.044,444.678,448.022,453.54,456.841,463.561,466.905,470.809,476.871" svgx:width="0.83,0.5,0.56,0.48,0.29,0.48,0.58,0.56,0.33,0.58,0.25,0.25,0.55,0.61,0.58,0.48,0.25,0.55,0.55,0.5,0.58,0.61,0.25,0.55,0.56,0.5,0.6,0.25,0.55,0.48,0.58,0.48,0.4,0.56,0.56,0.25,0.55,0.61,0.29,0.5,0.56,0.4,0.5,0.88,0.25,0.55,0.55,0.33,0.25,0.55,0.33,0.58,0.48,0.25,0.55,0.42,0.5,0.88,0.6,0.29,0.48,0.25,0.55,0.29,0.42,0.25,0.55,0.55,0.55,0.33,0.5,0.29,0.58,0.48,0.61,0.25,0.55,0.55,0.56,0.25,0.55,0.6,0.42,0.29,0.58,0.56,0.25,0.55,0.33,0.56,0.33,0.67,0.33,0.39,0.61,0.33" style="fill:rgb(0,0,0);font-family:PalatinoLinotype;font-size:10.02px;stroke:none;">wavelength. The band gap energy diagram of the sample is obtained by using (F(R)*E)</text>
   <text y="764.999" x="480.223,483.222,485.141" svgx:width="0.5,0.32,0.5" style="fill:rgb(0,0,0);font-family:PalatinoLinotype;font-size:6.0px;stroke:none;">1/2</text>
   <text y="767.519" x="488.083,490.588,492.223,497.248,501.449,503.954,505.589,508.827,514.646,519.461" svgx:width="0.25,0.55,0.5,0.42,0.25,0.55,0.33,0.58,0.48,0.25" style="fill:rgb(0,0,0);font-family:PalatinoLinotype;font-size:10.02px;stroke:none;"> as the </text>
   <text y="782.099" x="77.265,80.181,85.652,91.483,97.054,99.971,103.238,109.28,115.402,118.318,124.078,129.088,132.004,134.464,138.913,144.384,149.855,153.813,159.935,162.851,168.611,173.651,176.918,181.718,184.238,189.248,195.007,201.129,203.649,209.77,212.29,217.3,221.549,224.069,227.336,233.168,237.967,240.487,243.755,247.655,252.665,258.496,262.745,268.206,273.005,276.964,281.213,286.012,288.532,292.981,298.452,303.923,307.844,313.906,316.845,322.68,327.693,330.963,335.766,338.275,340.735,345.748,349.999,352.459,356.711,362.545,367.946,376.286,382.121,384.641,387.56,393.395,395.915,401.489,404.368,409.942,415.987,419.948,424.751,427.211,432.224,437.768,440.277,442.797,448.941,454.776,459.578,462.098,464.978,467.918,473.752,478.492,483.505,487.405,489.925,495.95,500.963,504.924,508.194,510.714,516.188,519.488" svgx:width="0.29,0.55,0.58,0.56,0.29,0.33,0.6,0.61,0.29,0.58,0.5,0.29,0.25,0.44,0.55,0.55,0.4,0.61,0.29,0.58,0.5,0.33,0.48,0.25,0.5,0.58,0.61,0.25,0.61,0.25,0.5,0.42,0.25,0.33,0.58,0.48,0.25,0.33,0.4,0.5,0.58,0.42,0.56,0.48,0.4,0.42,0.48,0.25,0.44,0.55,0.55,0.4,0.61,0.29,0.58,0.5,0.33,0.48,0.25,0.25,0.5,0.42,0.25,0.42,0.58,0.55,0.83,0.58,0.25,0.29,0.58,0.25,0.56,0.29,0.56,0.6,0.4,0.48,0.25,0.5,0.55,0.25,0.25,0.61,0.58,0.48,0.25,0.29,0.29,0.58,0.48,0.5,0.4,0.25,0.6,0.5,0.4,0.33,0.25,0.55,0.33,0.25" style="fill:rgb(0,0,0);font-family:PalatinoLinotype;font-size:10.02px;stroke:none;">longitudinal coordinate and E as the transverse coordinate, as shown in Figure 8b. The linear part of </text>
  </g>
  <rect style="stroke:blue;stroke-width:0.3;" x="87.583" y="59.869" height="156.48" width="202.08" title="10"/>
  <text y="59.869" class="image" id="image.10.1" width="202" height="156" x="87.583">image.10.1.88_290.60_216</text>
  <rect style="stroke:blue;stroke-width:0.3;" x="87.583" y="59.869" height="156.48" width="202.08" title="10"/>
  <text y="59.869" class="image" id="image.10.2" width="202" height="156" x="87.583">image.10.2.88_290.60_216</text>
  <rect style="stroke:blue;stroke-width:0.3;" x="300.463" y="52.429" height="156.48" width="208.32" title="10"/>
  <text y="52.429" class="image" id="image.10.3" width="208" height="156" x="300.463">image.10.3.300_509.52_209</text>
  <rect style="stroke:blue;stroke-width:0.3;" x="300.463" y="52.429" height="156.48" width="208.32" title="10"/>
  <text y="52.429" class="image" id="image.10.4" width="208" height="156" x="300.463">image.10.4.300_509.52_209</text>
  <rect style="stroke:blue;stroke-width:0.3;" x="87.103" y="221.869" height="156.48" width="202.8" title="10"/>
  <text y="221.869" class="image" id="image.10.5" width="202" height="156" x="87.103">image.10.5.87_290.222_378</text>
  <rect style="stroke:blue;stroke-width:0.3;" x="87.103" y="221.869" height="156.48" width="202.8" title="10"/>
  <text y="221.869" class="image" id="image.10.6" width="202" height="156" x="87.103">image.10.6.87_290.222_378</text>
  <rect style="stroke:blue;stroke-width:0.3;" x="301.903" y="221.869" height="156.48" width="206.4" title="10"/>
  <text y="221.869" class="image" id="image.10.7" width="206" height="156" x="301.903">image.10.7.302_508.222_378</text>
  <rect style="stroke:blue;stroke-width:0.3;" x="301.903" y="221.869" height="156.48" width="206.4" title="10"/>
  <text y="221.869" class="image" id="image.10.8" width="206" height="156" x="301.903">image.10.8.302_508.222_378</text>
  <g begin="text">
   <text y="440.24" x="97.795,102.78,105.766,110.751,116.23,119.718,124.203,126.29,130.773" svgx:width="0.56,0.33,0.56,0.61,0.39,0.5,0.55,0.5,0.25" style="fill:rgb(0,0,0);font-family:URWPalladioL-Bold;font-size:8.97px;stroke:none;">Figure 7.</text>
   <text y="440.24" x="136.098,141.484,146.853,157.248" svgx:width="0.61,0.61,0.95,0.33" style="fill:rgb(0,0,0);font-family:URWPalladioL-Roma;font-size:8.97px;stroke:none;">TEM(</text>
   <text y="440.24" x="160.177" svgx:width="0.5" style="fill:rgb(0,0,0);font-family:URWPalladioL-Bold;font-size:8.97px;stroke:none;">a</text>
   <text y="440.24" x="164.661,167.6211,169.67,174.063,179.177,184.6487,186.637,193.948,199.484,204.871,210.24,220.635" svgx:width="0.33,0.55,0.5,0.58,0.61,0.55,0.83,0.67,0.61,0.61,0.95,0.33" style="fill:rgb(0,0,0);font-family:URWPalladioL-Roma;font-size:8.97px;stroke:none;">) and HRTEM(</text>
   <text y="440.24" x="223.563,229.041,231.283" svgx:width="0.61,0.25,0.44" style="fill:rgb(0,0,0);font-family:URWPalladioL-Bold;font-size:8.97px;stroke:none;">b,c</text>
   <text y="440.24" x="235.264,238.22410000000002,240.273,242.83,250.589,254.982,259.868,264.077,267.803,270.0455,272.117,276.326,281.44,285.649,288.962,293.847,298.87019999999995,300.816,306.185,308.742,312.467,317.748,321.957,325.428,329.154,331.711,336.676,340.9816,342.976,348.837,351.763,355.234,359.627,364.6502,366.596,369.522,374.891,381.692,387.553,390.5131,392.561,400.32,404.714,409.995,415.276,417.833,422.947,427.9702,429.924" svgx:width="0.33,0.55,0.29,0.88,0.5,0.56,0.48,0.42,0.25,0.55,0.48,0.58,0.48,0.4,0.56,0.56,0.55,0.61,0.29,0.42,0.6,0.48,0.4,0.42,0.29,0.56,0.48,0.55,0.67,0.33,0.4,0.5,0.56,0.55,0.33,0.61,0.77,0.67,0.33,0.55,0.88,0.5,0.6,0.6,0.29,0.58,0.56,0.55,0.33" style="fill:rgb(0,0,0);font-family:URWPalladioL-Roma;font-size:8.97px;stroke:none;">) images, energy dispersive X-ray (EDX) mapping (</text>
   <text y="440.24" x="432.847" svgx:width="0.61" style="fill:rgb(0,0,0);font-family:URWPalladioL-Bold;font-size:8.97px;stroke:none;">d</text>
   <text y="440.24" x="438.325,441.2851,443.334,448.131,451.0911,453.149,457.542,464.923,469.809,474.018,476.944,481.839,484.396" svgx:width="0.33,0.55,0.55,0.33,0.55,0.5,0.84,0.56,0.48,0.33,0.61,0.29,0.79" style="fill:rgb(0,0,0);font-family:URWPalladioL-Roma;font-size:8.97px;stroke:none;">) of 5%Fe-TiO</text>
   <text y="442.031" x="491.299" svgx:width="0.5" style="fill:rgb(0,0,0);font-family:URWPalladioL-Roma;font-size:6.97px;stroke:none;">2</text>
   <text y="440.24" x="495.284" svgx:width="0.25" style="fill:rgb(0,0,0);font-family:URWPalladioL-Roma;font-size:8.97px;stroke:none;">.</text>
   <text y="461.322" x="76.535,81.516,84.007,88.988,91.479,96.46,98.94999999999999,102.438,108.455,114.253,119.693,122.941,128.38,132.136,136.908,141.132,147.12,152.56,158.358,162.582,167.3628,169.845,175.284,178.5708,181.092,189.371,194.353,200.151,205.59,208.908,214.467,217.366" svgx:width="0.5,0.25,0.5,0.25,0.5,0.25,0.55,0.6,0.58,0.55,0.33,0.55,0.4,0.48,0.42,0.6,0.55,0.58,0.42,0.48,0.55,0.55,0.33,0.55,0.83,0.5,0.58,0.55,0.33,0.61,0.29,0.79" style="fill:rgb(0,0,0);font-family:URWPalladioL-Roma;font-size:9.96px;stroke:none;">3.2.5. Photoresponse of Nano-TiO</text>
   <text y="463.187" x="225.197" svgx:width="0.5" style="fill:rgb(0,0,0);font-family:URWPalladioL-Roma;font-size:7.57px;stroke:none;">2</text>
   <text y="480.809" x="97.795,104.024,109.938,114.7188,118.678,124.785,130.699,136.247,139.56,145.109,148.94,153.807,158.116,164.223,169.771,175.686,179.994,184.7748,188.723,194.272,197.5588,201.527,207.634,211.465,216.333,222.44,227.521,231.362,236.23,242.3056,246.3,250.609,255.69,264.663,270.77,273.727,278.595,282.7782,286.775,295.25,300.331,304.5142,308.501,313.582,319.496,324.577,327.534,333.184,338.265,343.133,349.2086,353.213,358.833,364.41060000000004,368.344,376.25,382.855,386.239,393.027,395.984,400.1672,404.155,412.02,418.808,423.9872,428.015,433.095,439.01,445.0856,449.08,453.592,459.14,468.113,474.22,479.301,483.143,488.01,494.0856,498.081,506.556,509.513,512.825" svgx:width="0.61,0.58,0.48,0.55,0.6,0.58,0.55,0.33,0.55,0.4,0.48,0.42,0.6,0.55,0.58,0.42,0.48,0.55,0.55,0.33,0.55,0.6,0.4,0.48,0.6,0.5,0.4,0.48,0.61,0.55,0.42,0.5,0.88,0.6,0.29,0.48,0.42,0.55,0.83,0.5,0.42,0.55,0.5,0.58,0.5,0.29,0.56,0.5,0.48,0.61,0.55,0.55,0.56,0.55,0.78,0.72,0.33,0.72,0.29,0.42,0.55,0.77,0.67,0.52,0.55,0.5,0.58,0.61,0.55,0.44,0.55,0.88,0.6,0.5,0.4,0.48,0.61,0.55,0.83,0.29,0.33,0.58" style="fill:rgb(0,0,0);font-family:URWPalladioL-Roma;font-size:9.96px;stroke:none;">The photoresponse of prepared samples was analyzed by UV-Vis DRS and compared with</text>
   <text y="494.318" x="76.535,81.047,86.595,95.568,104.541,109.409,113.24,117.751,120.709,125.79,128.6784,131.744,137.882,142.963,148.044,150.53400000000002,155.574,161.803,167.717,172.4978,175.583,179.414,184.281,188.59,194.717,197.674,200.987,205.1702,208.294,213.374,217.206,221.9868,225.061,229.369,235.283,240.832,249.307,255.0838,258.219,261.176,266.95279999999997,270.088,275.738,278.685,284.335,290.462,294.303" svgx:width="0.44,0.55,0.88,0.88,0.48,0.4,0.44,0.29,0.5,0.29,0.55,0.6,0.5,0.5,0.25,0.55,0.61,0.58,0.48,0.55,0.4,0.48,0.42,0.6,0.29,0.33,0.42,0.55,0.5,0.4,0.48,0.55,0.42,0.58,0.55,0.83,0.58,0.55,0.29,0.58,0.55,0.56,0.29,0.56,0.6,0.4,0.48" style="fill:rgb(0,0,0);font-family:URWPalladioL-Roma;font-size:9.96px;stroke:none;">commercial P25. The results are shown in Figure</text>
   <text y="494.318" x="302.159" svgx:width="0.5" style="fill:rgb(8,117,183);font-family:URWPalladioL-Roma;font-size:9.96px;stroke:none;">8</text>
   <text y="494.318" x="307.239,312.32,314.81,319.861,326.09,332.004,336.7848,339.859,344.371,350.498,354.512,360.254,365.121,369.3042,372.428,377.976,381.2628,384.348,389.429,392.386,395.2744,398.34,401.653,407.567,412.3478,415.423,419.731,424.812,433.785,439.892,442.849,447.717,451.9002,455.023,460.937,466.018,471.76,476.5408,479.615,484.595,487.694,492.002,494.959,503.932,506.889,509.846,514.927" svgx:width="0.5,0.25,0.55,0.61,0.58,0.48,0.55,0.44,0.6,0.4,0.56,0.48,0.42,0.55,0.55,0.33,0.55,0.5,0.29,0.29,0.55,0.33,0.58,0.48,0.55,0.42,0.5,0.88,0.6,0.29,0.48,0.42,0.55,0.58,0.5,0.56,0.48,0.55,0.5,0.55,0.42,0.29,0.88,0.29,0.29,0.5,0.4" style="fill:rgb(0,0,0);font-family:URWPalladioL-Roma;font-size:9.96px;stroke:none;">a. The curves of all the samples have a similar</text>
   <text y="507.828" x="76.535,80.827,86.718,91.779,97.862,102.71,105.19999999999999,107.731,110.677,116.568,122.752,125.698,130.192,135.253,138.553,141.498,147.389,152.9666,155.507,158.807,164.698,169.759,173.04579999999999,175.548,178.494,182.31,187.837,193.6138,196.218,202.402,205.348,211.42360000000002,214.022,219.913,225.44,228.7268,231.23,235.521,238.467,244.095,249.986,252.931,259.055,263.549,268.61,274.501,277.801,280.746,286.3236,288.864,293.358,299.249,304.31,310.201,315.829,320.6098,323.168,328.826,331.771" svgx:width="0.42,0.58,0.5,0.6,0.48,0.25,0.55,0.29,0.58,0.61,0.29,0.44,0.5,0.33,0.29,0.58,0.56,0.55,0.33,0.58,0.5,0.33,0.55,0.29,0.4,0.55,0.58,0.55,0.61,0.29,0.61,0.55,0.58,0.55,0.33,0.55,0.42,0.29,0.56,0.58,0.29,0.61,0.44,0.5,0.58,0.33,0.29,0.56,0.55,0.44,0.58,0.5,0.58,0.56,0.48,0.55,0.61,0.29,0.79" style="fill:rgb(0,0,0);font-family:URWPalladioL-Roma;font-size:9.96px;stroke:none;">shape, indicating that iron did not signiﬁcantly change TiO</text>
   <text y="509.692" x="339.731" svgx:width="0.5" style="fill:rgb(0,0,0);font-family:URWPalladioL-Roma;font-size:7.57px;stroke:none;">2</text>
   <text y="507.828" x="344.015,346.505,350.027,356.232,362.123,366.9038,369.472,375.656" svgx:width="0.25,0.55,0.61,0.58,0.48,0.55,0.61,0.29" style="fill:rgb(0,0,0);font-family:URWPalladioL-Roma;font-size:9.96px;stroke:none;">. The di</text>
   <text y="507.828" x="378.597" svgx:width="0.61" style="fill:rgb(0,0,0);font-family:Rpxr;font-size:9.96px;stroke:none;">ﬀ</text>
   <text y="507.828" x="384.751,389.599,393.415,398.264,404.155,408.649,413.4298,415.988,421.514,424.80080000000004,427.375,430.675,436.566,441.3468,443.904,448.398,454.502,458.5,464.219,469.067,473.2502,475.849,478.795,481.74,486.589,490.7722,493.37,496.316,502.09279999999995,504.697,507.997,513.888" svgx:width="0.48,0.4,0.48,0.58,0.44,0.48,0.55,0.55,0.33,0.55,0.33,0.58,0.48,0.55,0.44,0.6,0.4,0.56,0.48,0.42,0.55,0.29,0.29,0.48,0.42,0.55,0.29,0.58,0.55,0.33,0.58,0.48" style="fill:rgb(0,0,0);font-family:URWPalladioL-Roma;font-size:9.96px;stroke:none;">erence of the curves lies in the</text>
   <text y="521.337" x="76.535,82.744" svgx:width="0.61,0.29" style="fill:rgb(0,0,0);font-family:URWPalladioL-Roma;font-size:9.96px;stroke:none;">di</text>
   <text y="521.337" x="85.701" svgx:width="0.61" style="fill:rgb(0,0,0);font-family:Rpxr;font-size:9.96px;stroke:none;">ﬀ</text>
   <text y="521.337" x="91.88,96.748,100.579,105.446,111.36,115.872,120.6528,123.494,129.042,132.3288,135.18,138.492,144.407,149.1878,152.028,158.237,163.785,172.26,178.174,186.649,191.73,195.561,201.63660000000002,204.524,207.837,211.668,216.535,222.45,228.5256,231.412,236.493,242.408,248.4836,251.37,256.451,265.424,271.531,274.488,277.446,280.758,286.886,293.095,297.8758,300.716,305.797,309.08380000000005,311.854,316.935,322.016,326.99600000000004,329.85,333.163,338.641,341.465,346.546,351.627,356.607,359.462,365.376,374.349,376.839,381.158,387.387,393.301,398.0818,400.922,403.879,409.794,413.106,417.974,421.988,426.296,431.164,435.676,438.989,441.946,447.494,453.2708,456.162,461.711,464.99780000000004,467.838,471.151,477.065,481.8458,484.687,487.999,493.08,498.994,504.644,509.512,515.426" svgx:width="0.48,0.4,0.48,0.58,0.44,0.48,0.55,0.55,0.33,0.55,0.33,0.58,0.48,0.55,0.61,0.55,0.83,0.58,0.83,0.5,0.4,0.61,0.55,0.33,0.4,0.48,0.58,0.61,0.55,0.5,0.58,0.61,0.55,0.5,0.88,0.6,0.29,0.29,0.33,0.6,0.61,0.48,0.55,0.5,0.33,0.55,0.5,0.5,0.5,0.55,0.33,0.55,0.55,0.5,0.5,0.5,0.55,0.58,0.88,0.25,0.55,0.61,0.58,0.48,0.55,0.29,0.58,0.33,0.48,0.4,0.42,0.48,0.44,0.33,0.29,0.55,0.58,0.55,0.55,0.33,0.55,0.33,0.58,0.48,0.55,0.33,0.5,0.58,0.56,0.48,0.58,0.33" style="fill:rgb(0,0,0);font-family:URWPalladioL-Roma;font-size:9.96px;stroke:none;">erence of the downward trend and amplitude at 350 to 600 nm. The intersection of the tangent</text>
   <text y="534.846" x="76.117,84.451,87.359,90.616,96.3928,98.92,102.177,106.124,111.121,116.936,121.173,126.819,131.605,135.552,139.789,144.5698,147.054,151.49,156.946,162.402,166.169,172.275,175.183,180.998,185.994,189.252,194.038,198.2212,200.763,205.76,209.0468,211.505,214.753,220.568,225.3488,227.843,236.666,242.122,246.359,249.6458,252.105,257.561,263.086,268.732,271.64,277.096,283.121,287.3042,289.836,295.942,301.398,309.731,315.547,323.881,328.877,332.644,338.7196,341.238,344.495,348.262,353.049,358.864,364.9396,367.458,372.914,376.2008,378.72,381.977,387.793,392.5738,395.067,399.504,405.529,409.476,415.122,419.9028,422.397,426.164,430.95,436.956,440.723,445.509,449.746,454.533,460.348,463.606,467.7892,470.321,473.578,479.394,484.1748,486.668,489.576,492.484,501.307,504.215,507.5018,509.961,515.417" svgx:width="0.83,0.29,0.33,0.58,0.55,0.33,0.4,0.5,0.58,0.42,0.56,0.48,0.4,0.42,0.48,0.55,0.44,0.55,0.55,0.4,0.61,0.29,0.58,0.5,0.33,0.48,0.42,0.55,0.5,0.33,0.55,0.33,0.58,0.48,0.55,0.88,0.55,0.42,0.33,0.55,0.55,0.55,0.56,0.29,0.55,0.6,0.42,0.55,0.61,0.55,0.83,0.58,0.83,0.5,0.4,0.61,0.55,0.33,0.4,0.48,0.58,0.61,0.55,0.55,0.33,0.55,0.33,0.58,0.48,0.55,0.44,0.6,0.4,0.56,0.48,0.55,0.4,0.48,0.6,0.4,0.48,0.42,0.48,0.58,0.33,0.42,0.55,0.33,0.58,0.48,0.55,0.29,0.29,0.88,0.29,0.33,0.55,0.55,0.33" style="fill:rgb(0,0,0);font-family:URWPalladioL-Roma;font-size:9.96px;stroke:none;">with transverse coordinates at the most obvious downward trend of the curve represents the limit of</text>
   <text y="548.356" x="76.535,79.466,82.397,87.997,93.859,97.1458,99.631,104.667,110.237,114.507,120.007,123.985,130.038,133.322,136.253,141.752,147.614,150.104,153.628,161.464,164.395,167.2834,169.814,174.084,179.12,188.014,194.067,196.998,201.823,206.0062,208.581,214.443,219.479,225.55460000000002,228.132,232.402,235.686,239.483,244.982,250.844,256.4216,258.932,261.863,264.794,270.394,276.256,279.5428,282.028,287.064,292.634,296.904,302.404,306.382,312.436,315.719,318.65,324.15,329.92679999999996,332.51,338.079,342.904,345.835,351.334,359.6008,362.223,367.259,372.295,377.27500000000003,379.819,385.681,394.574,397.064,399.59,405.16,411.234,414.5208,417.005,423.089,428.125,433.105,435.649,440.685,446.547,452.62260000000003,455.199,461.252,467.326,471.123,475.9038,478.435,484.066,486.997" svgx:width="0.29,0.29,0.56,0.58,0.33,0.55,0.5,0.55,0.42,0.55,0.4,0.6,0.33,0.29,0.55,0.58,0.25,0.55,0.78,0.29,0.29,0.55,0.42,0.5,0.88,0.6,0.29,0.48,0.42,0.55,0.58,0.5,0.61,0.55,0.42,0.33,0.4,0.55,0.58,0.56,0.55,0.29,0.29,0.56,0.58,0.33,0.55,0.5,0.55,0.42,0.55,0.4,0.6,0.33,0.29,0.55,0.58,0.55,0.55,0.48,0.29,0.55,0.83,0.55,0.5,0.5,0.5,0.55,0.58,0.88,0.25,0.55,0.55,0.6,0.33,0.55,0.6,0.5,0.5,0.55,0.5,0.58,0.61,0.55,0.6,0.6,0.4,0.48,0.55,0.61,0.29,0.79" style="fill:rgb(0,0,0);font-family:URWPalladioL-Roma;font-size:9.96px;stroke:none;">light absorption. All samples had strong light absorption below 400 nm, but P25 and pure TiO</text>
   <text y="550.221" x="494.913" svgx:width="0.5" style="fill:rgb(0,0,0);font-family:URWPalladioL-Roma;font-size:7.57px;stroke:none;">2</text>
   <text y="548.356" x="501.688,507.55,512.586" svgx:width="0.58,0.5,0.61" style="fill:rgb(0,0,0);font-family:URWPalladioL-Roma;font-size:9.96px;stroke:none;">had</text>
   <text y="561.865" x="76.535,81.432,84.281,92.929,98.276,102.428,105.7148,108.128,113.828,119.306,121.672,126.569,131.984,136.137,141.484,145.352,151.238,154.43,157.28,162.627,168.40380000000002,170.834,175.731,179.0178,181.421,186.317,191.214,196.194,198.618,201.81,207.288,209.654,214.551,219.448,224.428,226.851,232.551,241.199,243.68900000000002,247.172,254.87,260.6468,263.067,266.259,271.959,276.7398,279.157,283.505,288.852,294.552,297.745,301.613,306.51,310.378,314.716,317.206,319.672,325.117,329.808,333.069,338.524,341.374" svgx:width="0.5,0.29,0.88,0.55,0.42,0.33,0.55,0.58,0.55,0.55,0.5,0.55,0.42,0.55,0.4,0.6,0.33,0.29,0.55,0.58,0.55,0.5,0.33,0.55,0.5,0.5,0.5,0.55,0.33,0.55,0.55,0.5,0.5,0.5,0.55,0.58,0.88,0.25,0.55,0.79,0.58,0.55,0.33,0.58,0.48,0.55,0.44,0.55,0.58,0.33,0.4,0.5,0.4,0.56,0.25,0.55,0.56,0.48,0.33,0.61,0.29,0.79" style="fill:rgb(0,0,0);font-family:URWPalladioL-Roma;font-size:9.96px;stroke:none;">almost no absorption at 400 to 800 nm. On the contrary, Fe-TiO</text>
   <text y="563.73" x="349.068" svgx:width="0.5" style="fill:rgb(0,0,0);font-family:URWPalladioL-Roma;font-size:7.57px;stroke:none;">2</text>
   <text y="561.865" x="355.854,360.006,365.706,371.053,379.221,383.4042,385.88,391.864" svgx:width="0.42,0.58,0.55,0.83,0.42,0.55,0.61,0.29" style="fill:rgb(0,0,0);font-family:URWPalladioL-Roma;font-size:9.96px;stroke:none;">shows di</text>
   <text y="561.865" x="394.709" svgx:width="0.61" style="fill:rgb(0,0,0);font-family:Rpxr;font-size:9.96px;stroke:none;">ﬀ</text>
   <text y="561.865" x="400.664,405.355,409.047,413.738,419.438,422.7248,425.128,431.111,435.802,441.247,444.939,449.63,454.321,458.5042,460.971,466.318,469.6048,472.086,476.983,482.398,486.551,491.898,495.766,501.652,504.844,507.694,513.041" svgx:width="0.48,0.4,0.48,0.58,0.33,0.55,0.61,0.48,0.56,0.4,0.48,0.48,0.42,0.55,0.55,0.33,0.55,0.5,0.55,0.42,0.55,0.4,0.6,0.33,0.29,0.55,0.58" style="fill:rgb(0,0,0);font-family:URWPalladioL-Roma;font-size:9.96px;stroke:none;">erent degrees of absorption</text>
   <text y="575.375" x="76.535,79.825,85.303,87.818,93.52,96.457,100.736,103.673,109.254,112.19,116.9708,119.507,122.444,125.381,130.992,136.866,140.156,142.64600000000002,145.171,150.218,156.091,162.16660000000002,164.74,168.03,173.904,178.6848,181.22,190.132,195.178,200.385,203.322,212.234,218.319,227.0838,229.723,235.233,241.299,244.589,247.516,251.996,257.043,259.9314,262.472,267.518,273.099,277.378,282.888,286.875,292.94,296.23,299.167,304.677,310.4538,313.034,321.45,326.496,332.198,337.033,339.969,344.803,350.677,356.288,359.578,365.35479999999995,367.935,370.871,376.745,381.226,385.031,389.865,394.911,399.19,404.024,408.2072,410.796,419.213,422.149,425.439,431.2158,433.796,437.086,442.959,447.7398,450.276,453.213,459.087,463.567,467.372,472.206,477.252,481.531,486.3118,488.858,494.369,497.65580000000006,500.212,505.823" svgx:width="0.33,0.55,0.55,0.56,0.29,0.42,0.29,0.55,0.29,0.48,0.55,0.29,0.29,0.56,0.58,0.33,0.25,0.55,0.5,0.58,0.61,0.55,0.33,0.58,0.48,0.55,0.88,0.5,0.52,0.29,0.88,0.6,0.88,0.55,0.55,0.6,0.33,0.29,0.44,0.5,0.29,0.55,0.5,0.55,0.42,0.55,0.4,0.6,0.33,0.29,0.55,0.58,0.55,0.83,0.5,0.56,0.48,0.29,0.48,0.58,0.56,0.33,0.58,0.55,0.29,0.58,0.44,0.4,0.48,0.5,0.42,0.48,0.42,0.55,0.83,0.29,0.33,0.58,0.55,0.33,0.58,0.48,0.55,0.29,0.58,0.44,0.4,0.48,0.5,0.42,0.48,0.55,0.55,0.33,0.55,0.56,0.48" style="fill:rgb(0,0,0);font-family:URWPalladioL-Roma;font-size:9.96px;stroke:none;">to visible light, and the maximum optical absorption wavelength increases with the increase of Fe</text>
   <text y="571.758" x="510.655" svgx:width="0.5" style="fill:rgb(0,0,0);font-family:URWPalladioL-Roma;font-size:7.57px;stroke:none;">3</text>
   <text y="571.758" x="514.441" svgx:width="0.67" style="fill:rgb(0,0,0);font-family:Rpxr;font-size:7.57px;stroke:none;">+</text>
   <text y="588.884" x="76.535,80.945,86.368,92.149,95.387,100.145,105.926,109.164,111.654,115.143,121.232,127.013,129.903,134.0862,136.608,139.498,143.6812,146.203,152.173,155.917,161.341,166.833,171.8,177.292,180.183,185.76059999999998,188.199,194.267,200.257,205.0378,207.508,210.746,216.22400000000002,218.662,221.9,227.681,232.4618,234.932,238.24,243.206,247.616,250.9028,253.347,256.585,262.366,267.333,270.61980000000005,273.074,278.596" svgx:width="0.44,0.55,0.58,0.33,0.48,0.58,0.33,0.25,0.55,0.61,0.58,0.29,0.42,0.55,0.29,0.42,0.55,0.6,0.4,0.55,0.55,0.5,0.55,0.29,0.56,0.55,0.61,0.6,0.48,0.55,0.33,0.55,0.55,0.33,0.58,0.48,0.55,0.33,0.5,0.44,0.33,0.55,0.33,0.58,0.5,0.33,0.55,0.56,0.48" style="fill:rgb(0,0,0);font-family:URWPalladioL-Roma;font-size:9.96px;stroke:none;">content. This is probably due to the fact that Fe</text>
   <text y="585.268" x="283.349" svgx:width="0.5" style="fill:rgb(0,0,0);font-family:URWPalladioL-Roma;font-size:7.57px;stroke:none;">3</text>
   <text y="585.268" x="287.135" svgx:width="0.67" style="fill:rgb(0,0,0);font-family:Rpxr;font-size:7.57px;stroke:none;">+</text>
   <text y="588.884" x="295.193,301.163,304.907,309.665,314.075,316.966,322.935,325.826,329.064,334.03,337.268,342.026,346.2092,348.73,354.72,360.501,363.391,366.699,372.122,376.045,384.816,387.706,393.28360000000004,395.722,398.612,404.3888,406.886,412.429,415.319" svgx:width="0.6,0.4,0.48,0.44,0.29,0.6,0.29,0.33,0.5,0.33,0.48,0.42,0.55,0.6,0.58,0.29,0.33,0.55,0.4,0.88,0.29,0.56,0.55,0.29,0.58,0.55,0.61,0.29,0.79" style="fill:rgb(0,0,0);font-family:URWPalladioL-Roma;font-size:9.96px;stroke:none;">precipitates uniformly in TiO</text>
   <text y="590.749" x="423.125" svgx:width="0.5" style="fill:rgb(0,0,0);font-family:URWPalladioL-Roma;font-size:7.57px;stroke:none;">2</text>
   <text y="588.884" x="429.903,435.972,441.961,445.885,448.775,454.556,460.1336,462.572,468.541,472.286,477.044,481.454,484.344,490.314,493.204,496.442,501.409,504.647,507.537,512.96" svgx:width="0.61,0.6,0.4,0.29,0.58,0.56,0.55,0.6,0.4,0.48,0.44,0.29,0.6,0.29,0.33,0.5,0.33,0.29,0.55,0.58" style="fill:rgb(0,0,0);font-family:URWPalladioL-Roma;font-size:9.96px;stroke:none;">during precipitation</text>
   <text y="602.393" x="76.535,80.844,86.494,92.408,95.721,101.635,106.502,110.811,113.768,118.077,120.567,123.168,128.249,134.163,140.23860000000002,142.912,147.993,151.377,154.69,159.557,163.541,166.102,170.613,175.694,178.651,183.163,186.12,192.035,197.116,200.428,203.385,208.934,214.7108,217.388,222.469,225.7558,228.323,234.237,237.194,242.844,248.6208,251.299,254.601,259.469,268.442,274.549,279.416,283.43,288.511,291.824,297.952,301.793,306.66,309.15000000000003,311.751,317.401" svgx:width="0.42,0.56,0.58,0.33,0.58,0.48,0.42,0.29,0.42,0.25,0.55,0.5,0.58,0.61,0.55,0.5,0.33,0.33,0.48,0.4,0.55,0.44,0.5,0.29,0.44,0.29,0.58,0.5,0.33,0.29,0.55,0.58,0.55,0.5,0.33,0.55,0.58,0.29,0.56,0.58,0.55,0.33,0.48,0.88,0.6,0.48,0.4,0.5,0.33,0.6,0.4,0.48,0.25,0.55,0.56,0.48" style="fill:rgb(0,0,0);font-family:URWPalladioL-Roma;font-size:9.96px;stroke:none;">synthesis, and after calcination at high temperature, Fe</text>
   <text y="598.777" x="322.266" svgx:width="0.5" style="fill:rgb(0,0,0);font-family:URWPalladioL-Roma;font-size:7.57px;stroke:none;">3</text>
   <text y="598.777" x="326.052" svgx:width="0.67" style="fill:rgb(0,0,0);font-family:Rpxr;font-size:7.57px;stroke:none;">+</text>
   <text y="602.393" x="334.153,339.021,344.935,348.247,353.115,357.129,361.3122,363.978,366.935,372.849,376.162,381.64,384.241,387.554,393.468,398.2488,400.876,406.556,409.513" svgx:width="0.48,0.58,0.33,0.48,0.4,0.42,0.55,0.29,0.58,0.33,0.55,0.55,0.33,0.58,0.48,0.55,0.61,0.29,0.79" style="fill:rgb(0,0,0);font-family:URWPalladioL-Roma;font-size:9.96px;stroke:none;">enters into the TiO</text>
   <text y="604.258" x="417.503" svgx:width="0.5" style="fill:rgb(0,0,0);font-family:URWPalladioL-Roma;font-size:7.57px;stroke:none;">2</text>
   <text y="602.393" x="424.325,427.282,432.363,435.676,438.989,441.946,446.458,451.2388,453.866,458.946,464.861,470.9366,473.6,479.727,485.642,488.599,491.983,497.531,501.545,510.518,513.475" svgx:width="0.29,0.5,0.33,0.33,0.29,0.44,0.48,0.55,0.5,0.58,0.61,0.55,0.6,0.58,0.29,0.33,0.55,0.4,0.88,0.29,0.56" style="fill:rgb(0,0,0);font-family:URWPalladioL-Roma;font-size:9.96px;stroke:none;">lattice and uniformly</text>
   <text y="615.903" x="76.535,80.216,84.892,90.76,93.601,98.483,102.818,107.495,111.6782,114.016,119.884,124.766,128.622,131.9088,134.197,139.528,142.8148,145.171,150.6" svgx:width="0.4,0.48,0.6,0.29,0.5,0.44,0.48,0.42,0.55,0.6,0.5,0.4,0.33,0.55,0.55,0.33,0.55,0.61,0.29" style="fill:rgb(0,0,0);font-family:URWPalladioL-Roma;font-size:9.96px;stroke:none;">replaces part of Ti</text>
   <text y="612.286" x="153.445" svgx:width="0.5" style="fill:rgb(0,0,0);font-family:URWPalladioL-Roma;font-size:7.57px;stroke:none;">4</text>
   <text y="612.286" x="157.231" svgx:width="0.67" style="fill:rgb(0,0,0);font-family:Rpxr;font-size:7.57px;stroke:none;">+</text>
   <text y="615.903" x="162.794,165.28400000000002,167.646,171.317,175.994,180.134,186.021,188.862,192.045,194.886,200.568,206.1456,208.389,211.23,217.0068,219.304,222.487,228.169,232.9498,235.228,240.11,245.509,249.649,254.98,258.836,264.704,267.887,270.728,276.059,281.8358,284.133,289.464,292.7508,295.107,300.623,303.464,307.604,310.445,315.844,318.676,323.4568,325.744,328.585,331.427,336.855,342.537,345.72,348.21000000000004,351.617,357.602,363.284,368.0648,370.343,374.678,379.56,382.401,386.736,392.623,395.464,400.346,403.529,406.37,411.701,417.4778,419.775,425.106,428.3928,430.749,433.932,439.614,444.3948,446.673,452.072,456.954,462.636,468.71160000000003,470.994,476.422,481.304,487.28,489.564,494.24,499.923,504.599,508.27,513.699" svgx:width="0.25,0.55,0.4,0.48,0.42,0.6,0.29,0.33,0.29,0.58,0.56,0.55,0.29,0.58,0.55,0.33,0.58,0.48,0.55,0.5,0.55,0.42,0.55,0.4,0.6,0.33,0.29,0.55,0.58,0.55,0.55,0.33,0.55,0.56,0.29,0.42,0.29,0.55,0.29,0.48,0.55,0.29,0.29,0.56,0.58,0.33,0.25,0.55,0.61,0.58,0.48,0.55,0.44,0.5,0.29,0.44,0.6,0.29,0.5,0.33,0.29,0.55,0.58,0.55,0.55,0.33,0.55,0.33,0.58,0.48,0.55,0.55,0.5,0.58,0.61,0.55,0.56,0.5,0.6,0.55,0.48,0.58,0.48,0.4,0.56,0.56" style="fill:rgb(0,0,0);font-family:URWPalladioL-Roma;font-size:9.96px;stroke:none;">, resulting in the absorption of visible light. The calculation of the band gap energy</text>
   <text y="629.412" x="76.535,81.975,85.2618,87.783,92.007,96.988,105.785,111.773,114.672,119.444,123.6272,126.159,131.668,137.2456,139.698,142.946,148.744,153.5248,156.007,163.239,169.247,174.756,179.528,182.427,187.967,192.948,197.929,207.354,213.361,219.16,224.7376,227.189,230.507,235.947,239.882,248.679,254.686,257.585,262.565,265.057,267.956,272.1392,274.671,279.652,283.8352,286.367,289.685,295.124,298.023,300.923,306.362,314.671,318.895" svgx:width="0.55,0.33,0.55,0.42,0.5,0.88,0.6,0.29,0.48,0.42,0.55,0.55,0.56,0.55,0.33,0.58,0.48,0.55,0.73,0.6,0.55,0.48,0.29,0.56,0.5,0.5,0.95,0.6,0.58,0.56,0.55,0.33,0.55,0.4,0.88,0.6,0.29,0.5,0.55,0.29,0.42,0.55,0.5,0.42,0.55,0.33,0.55,0.29,0.29,0.55,0.83,0.42,0.25" style="fill:rgb(0,0,0);font-family:URWPalladioL-Roma;font-size:9.96px;stroke:none;">of samples by the Kubelka–Munk formula is as follows:</text>
   <text y="654.179" x="271.683" svgx:width="0.78" style="fill:rgb(0,0,0);font-family:URWPalladioL-Roma;font-size:9.96px;stroke:none;">A</text>
   <text y="654.179" x="282.325" svgx:width="0.78" style="fill:rgb(0,0,0);font-family:CMR10;font-size:10.38px;stroke:none;">=</text>
   <text y="654.179" x="293.287" svgx:width="0.67" style="fill:rgb(0,0,0);font-family:Pxsy;font-size:9.96px;stroke:none;">−</text>
   <text y="654.179" x="299.952,302.851" svgx:width="0.29,0.56" style="fill:rgb(0,0,0);font-family:URWPalladioL-Roma;font-size:9.96px;stroke:none;">lg</text>
   <text y="654.075" x="308.515" svgx:width="0.39" style="fill:rgb(0,0,0);font-family:CMR10;font-size:10.38px;stroke:none;">(</text>
   <text y="654.179" x="312.664" svgx:width="0.67" style="fill:rgb(0,0,0);font-family:URWPalladioL-Roma;font-size:9.96px;stroke:none;">R</text>
   <text y="654.075" x="319.443" svgx:width="0.39" style="fill:rgb(0,0,0);font-family:CMR10;font-size:10.38px;stroke:none;">)</text>
   <text y="654.179" x="507.124,510.441,515.423" svgx:width="0.33,0.5,0.33" style="fill:rgb(0,0,0);font-family:URWPalladioL-Roma;font-size:9.96px;stroke:none;">(4)</text>
   <text y="678.947" x="253.875" svgx:width="0.56" style="fill:rgb(0,0,0);font-family:URWPalladioL-Roma;font-size:9.96px;stroke:none;">F</text>
   <text y="678.842" x="259.539" svgx:width="0.39" style="fill:rgb(0,0,0);font-family:CMR10;font-size:10.38px;stroke:none;">(</text>
   <text y="678.947" x="263.688" svgx:width="0.67" style="fill:rgb(0,0,0);font-family:URWPalladioL-Roma;font-size:9.96px;stroke:none;">R</text>
   <text y="678.842" x="270.468" svgx:width="0.39" style="fill:rgb(0,0,0);font-family:CMR10;font-size:10.38px;stroke:none;">)</text>
   <text y="678.947" x="277.509" svgx:width="0.78" style="fill:rgb(0,0,0);font-family:CMR10;font-size:10.38px;stroke:none;">=</text>
   <text y="678.842" x="288.595" svgx:width="0.39" style="fill:rgb(0,0,0);font-family:CMR10;font-size:10.38px;stroke:none;">(</text>
   <text y="678.947" x="292.744" svgx:width="0.5" style="fill:rgb(0,0,0);font-family:URWPalladioL-Roma;font-size:9.96px;stroke:none;">1</text>
   <text y="678.947" x="299.663" svgx:width="0.67" style="fill:rgb(0,0,0);font-family:Pxsy;font-size:9.96px;stroke:none;">−</text>
   <text y="678.947" x="308.265" svgx:width="0.67" style="fill:rgb(0,0,0);font-family:URWPalladioL-Roma;font-size:9.96px;stroke:none;">R</text>
   <text y="678.842" x="315.044" svgx:width="0.39" style="fill:rgb(0,0,0);font-family:CMR10;font-size:10.38px;stroke:none;">)</text>
   <text y="673.974" x="319.194" svgx:width="0.5" style="fill:rgb(0,0,0);font-family:URWPalladioL-Roma;font-size:7.57px;stroke:none;">2</text>
   <text y="678.947" x="323.602,329.764,334.745,341.4182,507.128,510.446,515.427" svgx:width="0.61,0.5,0.67,0.55,0.33,0.5,0.33" style="fill:rgb(0,0,0);font-family:URWPalladioL-Roma;font-size:9.96px;stroke:none;">/2R (5)</text>
   <text y="699.211" x="271.863" svgx:width="0.61" style="fill:rgb(0,0,0);font-family:URWPalladioL-Roma;font-size:9.96px;stroke:none;">E</text>
   <text y="699.211" x="280.842" svgx:width="0.78" style="fill:rgb(0,0,0);font-family:CMR10;font-size:10.38px;stroke:none;">=</text>
   <text y="699.211" x="291.803,296.784,301.765,306.747,311.853" svgx:width="0.5,0.5,0.5,0.5,0.61" style="fill:rgb(0,0,0);font-family:URWPalladioL-Roma;font-size:9.96px;stroke:none;">1240/</text>
   <text y="699.211" x="318.015" svgx:width="0.54" style="fill:rgb(0,0,0);font-family:EURM10;font-size:9.96px;stroke:none;">λ</text>
   <text y="699.211" x="507.124,510.441,515.423" svgx:width="0.33,0.5,0.33" style="fill:rgb(0,0,0);font-family:URWPalladioL-Roma;font-size:9.96px;stroke:none;">(6)</text>
   <text y="719.475" x="76.117,84.26,89.942,94.619,98.299,103.0798,105.202,115.024,117.865,122.0482,124.231,127.414,133.096,137.8768,139.999,144.88,150.279,154.419,159.75,163.606,169.005,173.887,179.569,183.904,188.581,191.071,193.306,199.97920000000002,202.054,204.896,209.0792,211.261,214.444,220.126,224.9068,227.029,230.71,235.386,241.323,245.999,250.334,253.517,256.358,261.874,264.716,267.898,272.214,274.704,276.939,283.01460000000003,285.131,287.972,292.1552,294.338,297.52,303.203,307.9838,310.105,315.505,320.386,326.068,332.1436,334.26,339.688,344.57,350.546,352.664,357.34,363.023,367.699,371.38,376.809,382.38660000000004,384.463,389.345,395.027" svgx:width="0.83,0.58,0.48,0.4,0.48,0.55,0.78,0.29,0.42,0.55,0.33,0.58,0.48,0.55,0.5,0.55,0.42,0.55,0.4,0.55,0.5,0.58,0.44,0.48,0.25,0.55,0.67,0.55,0.29,0.42,0.55,0.33,0.58,0.48,0.55,0.4,0.48,0.61,0.48,0.44,0.33,0.29,0.56,0.29,0.33,0.56,0.25,0.55,0.61,0.55,0.29,0.42,0.55,0.33,0.58,0.48,0.55,0.55,0.5,0.58,0.61,0.55,0.56,0.5,0.6,0.55,0.48,0.58,0.48,0.4,0.56,0.56,0.55,0.5,0.58,0.61" style="fill:rgb(0,0,0);font-family:URWPalladioL-Roma;font-size:9.96px;stroke:none;">where Ais the absorbance, R is the reﬂectivity, E is the band gap energy and</text>
   <text y="719.475" x="403.223" svgx:width="0.54" style="fill:rgb(0,0,0);font-family:EURM10;font-size:9.96px;stroke:none;">λ</text>
   <text y="719.475" x="410.848,413.689,417.8722,420.055,423.238,428.92,433.7008,435.823,441.153,447.021,450.204,453.045,457.38,462.262,465.1504,467.329,475.472,480.353,485.87,490.546,493.387,498.064,503.746,509.175,512.358,518.04" svgx:width="0.29,0.42,0.55,0.33,0.58,0.48,0.55,0.55,0.6,0.33,0.29,0.44,0.5,0.29,0.55,0.83,0.5,0.56,0.48,0.29,0.48,0.58,0.56,0.33,0.58,0.25" style="fill:rgb(0,0,0);font-family:URWPalladioL-Roma;font-size:9.96px;stroke:none;">is the optical wavelength.</text>
   <text y="732.984" x="76.226,82.455,88.369,93.1498,96.794,102.413,107.494,113.408,119.4836,123.174,128.824,133.905,139.881,143.569,148.436,154.35,159.218,163.049,168.699,174.2766,177.905,184.114,187.071,192.152,197.802,201.816,206.897,215.6618,219.427,224.975,228.2618,231.906,235.218,241.133,245.9138,249.557,253.865,258.946,267.919,274.026,276.984,281.7648,285.408,288.365,292.5482,296.23,301.778,307.398,310.711,315.792,318.749,324.663,329.53,335.6056,339.296,344.915,350.49260000000004,354.112,360.24,364.548,367.505,373.419,378.9966,382.626,386.01,391.66,395.044,401.832,405.216,409.169,415.378" svgx:width="0.61,0.58,0.48,0.55,0.55,0.5,0.58,0.61,0.55,0.56,0.5,0.6,0.55,0.48,0.58,0.48,0.4,0.56,0.56,0.55,0.61,0.29,0.5,0.56,0.4,0.5,0.88,0.55,0.55,0.33,0.55,0.33,0.58,0.48,0.55,0.42,0.5,0.88,0.6,0.29,0.48,0.55,0.29,0.42,0.55,0.55,0.55,0.33,0.5,0.29,0.58,0.48,0.61,0.55,0.55,0.56,0.55,0.6,0.42,0.29,0.58,0.56,0.55,0.33,0.56,0.33,0.67,0.33,0.39,0.61,0.33" style="fill:rgb(0,0,0);font-family:URWPalladioL-Roma;font-size:9.96px;stroke:none;">The band gap energy diagram of the sample is obtained by using (F(R)*E)</text>
   <text y="729.368" x="418.764" svgx:width="0.5" style="fill:rgb(0,0,0);font-family:URWPalladioL-Roma;font-size:7.57px;stroke:none;">1</text>
   <text y="729.368" x="422.55" svgx:width="0.29" style="fill:rgb(0,0,0);font-family:Rpxr;font-size:7.57px;stroke:none;">/</text>
   <text y="729.368" x="424.723" svgx:width="0.5" style="fill:rgb(0,0,0);font-family:URWPalladioL-Roma;font-size:7.57px;stroke:none;">2</text>
   <text y="732.984" x="432.562,437.643,441.8262,445.508,448.821,454.735,459.5158,463.159,466.116,471.665,477.579,483.229,486.186,489.499,495.626,501.835,504.792,510.707,515.788" svgx:width="0.5,0.42,0.55,0.33,0.58,0.48,0.55,0.29,0.55,0.58,0.56,0.29,0.33,0.6,0.61,0.29,0.58,0.5,0.29" style="fill:rgb(0,0,0);font-family:URWPalladioL-Roma;font-size:9.96px;stroke:none;">as the longitudinal</text>
   <text y="746.494" x="76.535,80.941,86.359,91.776,95.517,101.58,104.468,110.243,115.204,118.439,123.21979999999999,125.672,130.634,136.409,142.4846,144.952,151.0276,153.496,158.457,162.6402,165.145,168.38,174.155,178.9358,181.389,184.624,188.543,193.504,199.279,203.487,209.093,213.846,217.765,221.973,226.7538,229.206,233.602,239.02,244.438,248.179,254.241,257.129,262.904,267.865,271.1,275.853,278.343,280.824,285.786,289.9692,292.464,296.671,302.446,307.864,316.14,321.91679999999997,324.395,327.283,333.0598,335.539,341.056,343.943,349.46,355.444,359.184" svgx:width="0.44,0.55,0.55,0.4,0.61,0.29,0.58,0.5,0.33,0.48,0.55,0.5,0.58,0.61,0.55,0.61,0.55,0.5,0.42,0.55,0.33,0.58,0.48,0.55,0.33,0.4,0.5,0.58,0.42,0.56,0.48,0.4,0.42,0.48,0.55,0.44,0.55,0.55,0.4,0.61,0.29,0.58,0.5,0.33,0.48,0.25,0.55,0.5,0.42,0.55,0.42,0.58,0.55,0.83,0.58,0.55,0.29,0.58,0.55,0.56,0.29,0.56,0.6,0.4,0.48" style="fill:rgb(0,0,0);font-family:URWPalladioL-Roma;font-size:9.96px;stroke:none;">coordinate and E as the transverse coordinate, as shown in Figure</text>
   <text y="746.494" x="366.418" svgx:width="0.5" style="fill:rgb(8,117,183);font-family:URWPalladioL-Roma;font-size:9.96px;stroke:none;">8</text>
   <text y="746.494" x="371.38,376.867,379.357,382.83,388.913,394.688,399.4688,401.922,404.809,407.697,413.472,418.225,423.186,427.16999999999996,429.586,435.55,440.511,444.431,447.7178,450.146,455.564,458.85080000000005,461.349,464.584,470.359,475.1398,477.593,481.8,487.763,492.516,496.922,500.157,503.997,509.98" svgx:width="0.55,0.25,0.55,0.61,0.58,0.48,0.55,0.29,0.29,0.58,0.48,0.5,0.4,0.55,0.6,0.5,0.4,0.33,0.55,0.55,0.33,0.55,0.33,0.58,0.48,0.55,0.42,0.6,0.48,0.44,0.33,0.4,0.6,0.88" style="fill:rgb(0,0,0);font-family:URWPalladioL-Roma;font-size:9.96px;stroke:none;">b. The linear part of the spectrum</text>
   <text y="760.003" x="76.535,79.492,83.6752,86.433,91.3,96.534,99.846,104.714,110.628,116.837,121.704,127.77959999999999,130.545,135.626,141.54,147.6156,150.371,153.684,159.598,164.3788,167.097,170.055,175.969,179.281,184.149,188.163,192.472,197.339,201.851,205.164,208.121,213.669,219.44580000000002,222.205,228.312,233.861,236.818,242.732,246.0188,248.677,257.152,260.109,263.422,269.1988,271.958,275.27,281.184,285.9648,288.684,291.997,296.011,301.092,307.006,311.314,317.056,321.923,325.937,330.246,335.0268,337.735,342.247,347.795,353.344,357.185,363.394,366.351,372.265,377.346,380.659,385.4398,388.148,391.105,395.2882,398.036,401.348,407.263,412.0438,414.762,420.382,425.462,431.377,437.4526,440.207,445.857,450.938,456.914,459.677,464.545,470.459,475.327,479.158,484.808,490.3856,493.09,498.638,501.9248,504.644,507.956,513.871" svgx:width="0.29,0.42,0.55,0.48,0.52,0.33,0.48,0.58,0.61,0.48,0.61,0.55,0.5,0.58,0.61,0.55,0.33,0.58,0.48,0.55,0.29,0.58,0.33,0.48,0.4,0.42,0.48,0.44,0.33,0.29,0.55,0.58,0.55,0.6,0.55,0.29,0.58,0.33,0.55,0.83,0.29,0.33,0.58,0.55,0.33,0.58,0.48,0.55,0.33,0.4,0.5,0.58,0.42,0.56,0.48,0.4,0.42,0.48,0.55,0.44,0.55,0.55,0.4,0.61,0.29,0.58,0.5,0.33,0.48,0.55,0.29,0.42,0.55,0.33,0.58,0.48,0.55,0.55,0.5,0.58,0.61,0.55,0.56,0.5,0.6,0.55,0.48,0.58,0.48,0.4,0.56,0.56,0.55,0.55,0.33,0.55,0.33,0.58,0.48" style="fill:rgb(0,0,0);font-family:URWPalladioL-Roma;font-size:9.96px;stroke:none;">is extended and the intersection point with the transverse coordinate is the band gap energy of the</text>
  </g>
 </g>
</svg>
