<?xml version="1.0" encoding="UTF-8"?>
<svg height="779.482" width="4109.213" xmlns="http://www.w3.org/2000/svg">
 <g id="page" xmlns:svgx="http://www.xml-cml.org/schema/svgx">
  <g begin="text">
   <text y="62.979" x="76.535,84.059,87.598,89.813,92.914,96.157,100.589,102.804,105.905" svgx:width="0.94,0.44,0.28,0.39,0.41,0.56,0.28,0.39,0.39" style="fill:rgb(0,0,0);font-family:URWPalladioL-Ital;font-size:7.97px;stroke:none;">Molecules</text>
   <text y="62.979" x="110.998,114.983,118.968,122.953" svgx:width="0.5,0.5,0.5,0.5" style="fill:rgb(0,0,0);font-family:URWPalladioL-Bold;font-size:7.97px;stroke:none;">2019</text>
   <text y="62.979" x="126.938" svgx:width="0.25" style="fill:rgb(0,0,0);font-family:URWPalladioL-Roma;font-size:7.97px;stroke:none;">,</text>
   <text y="62.979" x="130.923,134.908" svgx:width="0.5,0.5" style="fill:rgb(0,0,0);font-family:URWPalladioL-Ital;font-size:7.97px;stroke:none;">24</text>
   <text y="62.979" x="138.893,140.8855,142.878,146.863,150.848,154.833,158.818,495.794,499.779,501.772,506.123,508.7531,510.77,514.755" svgx:width="0.25,0.55,0.5,0.5,0.5,0.5,0.55,0.5,0.55,0.55,0.33,0.55,0.5,0.5" style="fill:rgb(0,0,0);font-family:URWPalladioL-Roma;font-size:7.97px;stroke:none;">, 4387 3 of 18</text>
  </g>
  <rect style="stroke:blue;stroke-width:0.3;" x="99.213" y="45.994" height="446.404" width="396.856" title="3"/>
  <text y="45.994" class="image" id="image.3.1" width="396" height="446" x="99.213">image.3.1.99_496.46_492</text>
  <rect style="stroke:blue;stroke-width:0.3;" x="99.213" y="45.994" height="446.404" width="396.856" title="3"/>
  <text y="45.994" class="image" id="image.3.2" width="396" height="446" x="99.213">image.3.2.99_496.46_492</text>
  <g begin="text">
   <text y="549.24" x="97.795,102.78,105.766,110.751,116.23,119.718,124.203,129.213,133.696" svgx:width="0.56,0.33,0.56,0.61,0.39,0.5,0.55,0.5,0.25" style="fill:rgb(0,0,0);font-family:URWPalladioL-Bold;font-size:8.97px;stroke:none;">Figure 1.</text>
   <text y="549.24" x="146.989,152.504,157.735,162.0406,167.018,171.92,176.886,178.935,183.224,187.194,190.1541,195.068,199.97,202.9301,207.918,210.808,216.039,220.34459999999999,225.322,229.108,231.998,237.422,242.918,247.912,250.1545,258.402" svgx:width="0.61,0.58,0.48,0.55,0.55,0.55,0.23,0.48,0.44,0.33,0.55,0.55,0.33,0.55,0.33,0.58,0.48,0.55,0.42,0.33,0.6,0.61,0.56,0.25,0.55,0.33" style="fill:rgb(0,0,0);font-family:URWPalladioL-Roma;font-size:8.97px;stroke:none;">The object of the study: (</text>
   <text y="549.24" x="261.359" svgx:width="0.5" style="fill:rgb(0,0,0);font-family:URWPalladioL-Bold;font-size:8.97px;stroke:none;">a</text>
   <text y="549.24" x="265.753,268.7131,273.701,276.591,281.822,286.12760000000003,291.096,295.577,300.059,304.961,309.442,314.408,318.698,323.929,328.41,332.7,337.931,342.22,345.174,349.656,351.851,356.332,358.527,363.009,365.963,368.853,372.374,374.944,378.913,383.394,386.916,391.882,396.784,401.412,405.893,413.877,416.447,421.944,426.24960000000004,431.227,434.181,439.677,444.524,451.548,454.5081,459.496,463.282,466.172,470.654,474.242,479.159,486.695,489.265,492.155" svgx:width="0.33,0.55,0.33,0.58,0.48,0.55,0.5,0.5,0.55,0.5,0.55,0.48,0.58,0.5,0.48,0.58,0.48,0.33,0.5,0.25,0.5,0.25,0.5,0.33,0.33,0.4,0.29,0.44,0.5,0.4,0.55,0.55,0.52,0.5,0.88,0.29,0.61,0.48,0.55,0.33,0.61,0.61,0.78,0.33,0.55,0.42,0.33,0.5,0.4,0.55,0.83,0.29,0.33,0.58" style="fill:rgb(0,0,0);font-family:URWPalladioL-Roma;font-size:8.97px;stroke:none;">) the azo–benzene-1,3,5-tricarboxamide (BTA) star with</text>
   <text y="562.062" x="97.795,102.566,106.688,111.714,116.019,120.141,125.167,129.288,132.126,136.432,138.541,142.846,144.955,149.261,152.099,154.876,158.259,160.728,164.542,168.847,172.23,177.002,181.712,186.158,190.463,198.135,200.604,205.885,210.1906,212.08,215.893,220.603,223.819,228.1246,230.014,234.32,239.346,244.8177,246.701,249.477,254.504,257.72,261.841,266.14660000000003,268.036,272.341,276.647,281.357,286.128,290.249,295.276,299.581,303.702,308.729,313.0346,314.924,319.229,322.612,330.283,333.921,336.1635,338.737,344.018,348.323,352.137,357.3396,359.237,363.542,366.926,376.67,380.484,384.79,388.173,391.556,394.025,398.146,401.9134,403.849,406.626,411.652" svgx:width="0.55,0.48,0.58,0.5,0.48,0.58,0.48,0.33,0.5,0.25,0.5,0.25,0.5,0.33,0.33,0.4,0.29,0.44,0.5,0.4,0.55,0.55,0.52,0.5,0.88,0.29,0.61,0.48,0.55,0.44,0.55,0.4,0.48,0.55,0.5,0.58,0.61,0.55,0.33,0.58,0.4,0.48,0.48,0.55,0.5,0.5,0.55,0.55,0.48,0.58,0.5,0.48,0.58,0.48,0.55,0.5,0.4,0.88,0.42,0.25,0.55,0.61,0.5,0.44,0.58,0.55,0.5,0.4,0.88,0.44,0.5,0.4,0.4,0.29,0.48,0.42,0.55,0.33,0.58,0.48" style="fill:rgb(0,0,0);font-family:URWPalladioL-Roma;font-size:8.97px;stroke:none;">benzene-1,3,5-tricarboxamide core and three azobenzene arms. Each armcarries the</text>
   <text y="562.062" x="417.849" svgx:width="0.78" style="fill:rgb(0,0,0);font-family:URWPalladioL-Ital;font-size:8.97px;stroke:none;">N</text>
   <text y="562.062" x="424.597" svgx:width="0.25" style="fill:rgb(0,0,0);font-family:URWPalladioL-Roma;font-size:8.97px;stroke:none;">,</text>
   <text y="562.062" x="428.778" svgx:width="0.78" style="fill:rgb(0,0,0);font-family:URWPalladioL-Ital;font-size:8.97px;stroke:none;">N</text>
   <text y="562.062" x="435.759,438.597,443.878,446.347,454.019,458.14,460.916,465.943,470.74,473.21,477.515,485.186,487.656,492.682" svgx:width="0.33,0.61,0.29,0.88,0.48,0.33,0.58,0.56,0.29,0.5,0.88,0.29,0.58,0.55" style="fill:rgb(0,0,0);font-family:URWPalladioL-Roma;font-size:8.97px;stroke:none;">-dimethylamino</text>
   <text y="574.884" x="97.795,102.681,105.965,110.761,116.068,121.356,123.5985,126.269,133.625,137.822,141.106,145.302,147.5445,149.669,152.497,157.616,161.9216,164.032,168.828,174.117,176.944,179.459,187.271,189.785,194.17,198.367,203.8387,205.964,210.85,215.047,219.843,227.655,231.852,234.68,238.125,243.1482,245.23,247.745,251.5124,253.677,257.382,262.501,267.297,274.671,279.8736,282.008" svgx:width="0.56,0.4,0.55,0.6,0.6,0.25,0.55,0.83,0.48,0.4,0.48,0.25,0.55,0.33,0.58,0.48,0.55,0.55,0.6,0.33,0.29,0.88,0.29,0.5,0.48,0.61,0.55,0.56,0.48,0.55,0.88,0.48,0.33,0.4,0.56,0.55,0.29,0.42,0.55,0.42,0.58,0.55,0.83,0.58,0.55,0.33" style="fill:rgb(0,0,0);font-family:URWPalladioL-Roma;font-size:8.97px;stroke:none;">group. Here, the optimized geometry is shown [</text>
   <text y="574.884" x="284.896,289.29" svgx:width="0.5,0.5" style="fill:rgb(8,117,183);font-family:URWPalladioL-Roma;font-size:8.97px;stroke:none;">14</text>
   <text y="574.884" x="293.683,296.573,298.8155,301.486,310.578,314.282,319.401,323.786,329.074,332.779,337.897,342.694,345.6541,347.741,352.537,355.4971,357.647,360.474,365.593,369.89860000000004,372.009,375.893,380.689,383.204,388.51,396.322,401.441,405.825,409.413,411.499,415.883,420.769,425.655,428.939,433.136,438.013,442.398,445.225,449.53060000000005,451.65,459.024,461.539,464.366" svgx:width="0.33,0.25,0.55,0.78,0.42,0.58,0.5,0.6,0.42,0.58,0.55,0.33,0.55,0.55,0.33,0.55,0.33,0.58,0.48,0.55,0.44,0.55,0.29,0.6,0.88,0.58,0.5,0.4,0.55,0.5,0.56,0.56,0.4,0.48,0.56,0.5,0.33,0.48,0.55,0.83,0.29,0.33,0.58" style="fill:rgb(0,0,0);font-family:URWPalladioL-Roma;font-size:8.97px;stroke:none;">]. Asnapshot of the columnar aggregate with</text>
   <text y="574.884" x="471.702" svgx:width="0.78" style="fill:rgb(0,0,0);font-family:URWPalladioL-Ital;font-size:8.97px;stroke:none;">N</text>
   <text y="574.884" x="481.041,486.5127,488.6,492.993" svgx:width="0.61,0.55,0.5,0.5" style="fill:rgb(0,0,0);font-family:URWPalladioL-Roma;font-size:8.97px;stroke:none;">= 20</text>
   <text y="587.706" x="97.795,100.749,104.106,109.008,116.9016,120.175,128.735,135.64190000000002,138.896,141.786,145.307,149.788,151.837,156.126,160.096,162.986,167.888,171.409,176.4322,179.576" svgx:width="0.33,0.4,0.55,0.88,0.55,0.95,0.77,0.55,0.33,0.4,0.5,0.23,0.48,0.44,0.33,0.55,0.4,0.56,0.55,0.33" style="fill:rgb(0,0,0);font-family:URWPalladioL-Roma;font-size:8.97px;stroke:none;">from MD trajectory [</text>
   <text y="587.706" x="182.528,186.922" svgx:width="0.5,0.5" style="fill:rgb(8,117,183);font-family:URWPalladioL-Roma;font-size:8.97px;stroke:none;">29</text>
   <text y="587.706" x="191.315,194.2751,197.443,200.013,203.78040000000001,206.972,209.542,212.112,214.682,220.106,223.892,226.782,230.303,234.785,237.675,241.964,247.4357,250.634,253.204,258.4066,261.618,267.023,271.505,276.736,281.025,283.62629999999996,286.769" svgx:width="0.33,0.55,0.29,0.42,0.55,0.29,0.29,0.29,0.6,0.42,0.33,0.4,0.5,0.33,0.48,0.61,0.55,0.29,0.58,0.55,0.6,0.5,0.58,0.48,0.29,0.55,0.33" style="fill:rgb(0,0,0);font-family:URWPalladioL-Roma;font-size:8.97px;stroke:none;">] is illustrated in panel (</text>
   <text y="587.706" x="289.721" svgx:width="0.61" style="fill:rgb(0,0,0);font-family:URWPalladioL-Bold;font-size:8.97px;stroke:none;">b</text>
   <text y="587.706" x="295.11,298.064,300.3065,305.884,311.399,316.63,320.9356,324.093,328.574,333.056,337.958,342.924,347.213,352.445,356.926,361.215,366.447,370.75260000000003,373.91,377.696,380.586,385.067,388.65500000000003,391.771,395.557,398.448,403.871,409.367,411.937,416.227,421.6987,424.897,429.186,433.814,439.219,443.508,447.03,449.6,457.584,461.873,467.104,469.994,474.476,477.046,479.616,484.63919999999996,487.783,492.749" svgx:width="0.33,0.25,0.55,0.61,0.58,0.48,0.55,0.5,0.5,0.55,0.55,0.48,0.58,0.5,0.48,0.58,0.48,0.55,0.42,0.33,0.5,0.4,0.55,0.42,0.33,0.6,0.61,0.29,0.48,0.61,0.55,0.48,0.52,0.6,0.48,0.4,0.29,0.88,0.48,0.58,0.33,0.5,0.29,0.29,0.56,0.55,0.55,0.56" style="fill:rgb(0,0,0);font-family:URWPalladioL-Roma;font-size:8.97px;stroke:none;">). The azobenzene star studied experimentally by</text>
   <text y="600.528" x="97.795,103.184,107.389,111.6946,113.809,118.014,120.97409999999999,123.071,127.465,129.984,132.22650000000002,134.889" svgx:width="0.61,0.48,0.48,0.55,0.48,0.33,0.55,0.5,0.29,0.25,0.55,0.33" style="fill:rgb(0,0,0);font-family:URWPalladioL-Roma;font-size:8.97px;stroke:none;">Lee et al. [</text>
   <text y="600.528" x="137.785,142.179" svgx:width="0.5,0.5" style="fill:rgb(8,117,183);font-family:URWPalladioL-Roma;font-size:8.97px;stroke:none;">17</text>
   <text y="600.528" x="146.572,149.5321,152.369,154.939,158.7064,161.624,167.121,171.41,176.816,179.385,183.355,186.245,190.534,196.0057,198.921,201.491,206.6936,209.621,215.026,219.508,224.739,229.028,231.6293,234.498" svgx:width="0.33,0.55,0.29,0.42,0.55,0.61,0.48,0.6,0.29,0.44,0.33,0.48,0.61,0.55,0.29,0.58,0.55,0.6,0.5,0.58,0.48,0.29,0.55,0.33" style="fill:rgb(0,0,0);font-family:URWPalladioL-Roma;font-size:8.97px;stroke:none;">] is depicted in panel (</text>
   <text y="600.528" x="237.45" svgx:width="0.44" style="fill:rgb(0,0,0);font-family:URWPalladioL-Bold;font-size:8.97px;stroke:none;">c</text>
   <text y="600.528" x="241.342,244.296,246.5385,251.283,256.798,262.03,266.3356,269.209,273.178,278.08,283.312,286.266,291.168,294.689,302.673,307.155,310.045,312.615,317.517,322.7196,325.647,330.549,333.5091,336.403,339.293,344.524,347.094,350.8614,353.779,357.566,360.456,364.937,368.52500000000003,371.348,373.918,377.6854,380.604,383.494,388.725,393.03060000000005,395.914,399.7,404.182,412.166,416.4716,419.345,423.827,427.5944,430.512,433.082,438.2846,441.213,444.103,449.334,453.63960000000003,456.522,460.492,464.013,469.006,472.793,475.683,480.164,482.734,485.304,487.874,493.105" svgx:width="0.33,0.25,0.55,0.61,0.58,0.48,0.55,0.44,0.55,0.58,0.33,0.55,0.4,0.88,0.5,0.33,0.29,0.55,0.58,0.55,0.55,0.33,0.55,0.33,0.58,0.29,0.42,0.55,0.42,0.33,0.5,0.4,0.55,0.29,0.42,0.55,0.33,0.58,0.48,0.55,0.42,0.5,0.88,0.48,0.55,0.5,0.42,0.55,0.29,0.58,0.55,0.33,0.58,0.48,0.55,0.44,0.4,0.56,0.42,0.33,0.5,0.29,0.29,0.29,0.58,0.48" style="fill:rgb(0,0,0);font-family:URWPalladioL-Roma;font-size:8.97px;stroke:none;">). The conformation of this star is the same as in the crystalline</text>
   <text y="613.35" x="97.795,101.522,104.367,107.761,113.099,117.006,119.851,125.189,128.493,132.715,134.9575,137.09,140.817,145.966,150.791,158.209,163.4116,165.582,168.103,173.3056,175.476,180.796,185.207,190.356,194.578,197.1793,199.323" svgx:width="0.42,0.33,0.4,0.6,0.44,0.33,0.6,0.4,0.48,0.25,0.55,0.42,0.58,0.55,0.83,0.58,0.55,0.29,0.58,0.55,0.6,0.5,0.58,0.48,0.29,0.55,0.33" style="fill:rgb(0,0,0);font-family:URWPalladioL-Roma;font-size:8.97px;stroke:none;">structure, shown in panel (</text>
   <text y="613.35" x="202.229" svgx:width="0.61" style="fill:rgb(0,0,0);font-family:URWPalladioL-Bold;font-size:8.97px;stroke:none;">d</text>
   <text y="613.35" x="207.618,210.526,212.76850000000002,215.441,222.841,227.063,230.367,234.589" svgx:width="0.33,0.25,0.55,0.83,0.48,0.4,0.48,0.25" style="fill:rgb(0,0,0);font-family:URWPalladioL-Roma;font-size:8.97px;stroke:none;">). Here,</text>
   <text y="613.35" x="238.968" svgx:width="0.44" style="fill:rgb(0,0,0);font-family:URWPalladioL-Ital;font-size:8.97px;stroke:none;">a</text>
   <text y="613.35" x="245.078,250.5497,252.646,257.039,261.433,263.585,267.978" svgx:width="0.61,0.55,0.5,0.5,0.25,0.5,0.5" style="fill:rgb(0,0,0);font-family:URWPalladioL-Roma;font-size:8.97px;stroke:none;">= 59.37</text>
   <text y="611.238" x="276.664" svgx:width="0.33" style="fill:rgb(0,0,0);font-family:URWPalladioL-Roma;font-size:8.97px;stroke:none;">˚</text>
   <text y="613.35" x="275.144" svgx:width="0.72" style="fill:rgb(0,0,0);font-family:URWPalladioL-Ital;font-size:8.97px;stroke:none;">A</text>
   <text y="613.35" x="281.64" svgx:width="0.25" style="fill:rgb(0,0,0);font-family:URWPalladioL-Roma;font-size:8.97px;stroke:none;">,</text>
   <text y="613.35" x="286.017" svgx:width="0.46" style="fill:rgb(0,0,0);font-family:URWPalladioL-Ital;font-size:8.97px;stroke:none;">b</text>
   <text y="613.35" x="292.312,297.7837,299.892,304.303,306.464,310.875" svgx:width="0.61,0.55,0.5,0.25,0.5,0.5" style="fill:rgb(0,0,0);font-family:URWPalladioL-Roma;font-size:8.97px;stroke:none;">= 9.42</text>
   <text y="611.238" x="319.584" svgx:width="0.33" style="fill:rgb(0,0,0);font-family:URWPalladioL-Roma;font-size:8.97px;stroke:none;">˚</text>
   <text y="613.35" x="318.064" svgx:width="0.72" style="fill:rgb(0,0,0);font-family:URWPalladioL-Ital;font-size:8.97px;stroke:none;">A</text>
   <text y="613.35" x="326.777,331.188,336.337" svgx:width="0.5,0.58,0.61" style="fill:rgb(0,0,0);font-family:URWPalladioL-Roma;font-size:8.97px;stroke:none;">and</text>
   <text y="613.35" x="343.964" svgx:width="0.41" style="fill:rgb(0,0,0);font-family:URWPalladioL-Ital;font-size:8.97px;stroke:none;">c</text>
   <text y="613.35" x="349.754,355.2257,357.334,361.745,366.156,368.317,372.728" svgx:width="0.61,0.55,0.5,0.5,0.25,0.5,0.5" style="fill:rgb(0,0,0);font-family:URWPalladioL-Roma;font-size:8.97px;stroke:none;">= 39.95</text>
   <text y="611.238" x="381.437" svgx:width="0.33" style="fill:rgb(0,0,0);font-family:URWPalladioL-Roma;font-size:8.97px;stroke:none;">˚</text>
   <text y="613.35" x="379.917" svgx:width="0.72" style="fill:rgb(0,0,0);font-family:URWPalladioL-Ital;font-size:8.97px;stroke:none;">A</text>
   <text y="613.35" x="386.413" svgx:width="0.25" style="fill:rgb(0,0,0);font-family:URWPalladioL-Roma;font-size:8.97px;stroke:none;">;</text>
   <text y="613.35" x="390.903" svgx:width="0.53" style="fill:rgb(0,0,0);font-family:PazoMath-Italic;font-size:8.97px;stroke:none;">α</text>
   <text y="613.35" x="397.876" svgx:width="0.61" style="fill:rgb(0,0,0);font-family:URWPalladioL-Roma;font-size:8.97px;stroke:none;">=</text>
   <text y="613.35" x="405.794" svgx:width="0.54" style="fill:rgb(0,0,0);font-family:PazoMath-Italic;font-size:8.97px;stroke:none;">β</text>
   <text y="613.35" x="412.893,418.36469999999997,420.473,424.884" svgx:width="0.61,0.55,0.5,0.5" style="fill:rgb(0,0,0);font-family:URWPalladioL-Roma;font-size:8.97px;stroke:none;">= 90</text>
   <text y="610.095" x="429.394" svgx:width="0.5" style="fill:rgb(0,0,0);font-family:CMSY10;font-size:7.27px;stroke:none;">◦</text>
   <text y="613.35" x="435.749,440.16,445.309" svgx:width="0.5,0.58,0.61" style="fill:rgb(0,0,0);font-family:URWPalladioL-Roma;font-size:8.97px;stroke:none;">and</text>
   <text y="613.35" x="453.048" svgx:width="0.61" style="fill:rgb(0,0,0);font-family:PazoMath-Italic;font-size:8.97px;stroke:none;">γ</text>
   <text y="613.35" x="460.766,466.2377,468.346,472.757,477.168,481.579,483.74,488.151" svgx:width="0.61,0.55,0.5,0.5,0.5,0.25,0.5,0.5" style="fill:rgb(0,0,0);font-family:URWPalladioL-Roma;font-size:8.97px;stroke:none;">= 103.16</text>
   <text y="610.095" x="492.66" svgx:width="0.5" style="fill:rgb(0,0,0);font-family:CMSY10;font-size:7.27px;stroke:none;">◦</text>
   <text y="613.35" x="496.799" svgx:width="0.25" style="fill:rgb(0,0,0);font-family:URWPalladioL-Roma;font-size:8.97px;stroke:none;">.</text>
   <text y="626.172" x="97.517,103.005,108.211,112.5166,114.699,119.578,123.081,125.639,130.608,133.165,138.371,142.83,145.43130000000002,147.608,153.005,158.211,160.768,163.7281,165.865,169.815,174.083,176.64,179.2413,181.409" svgx:width="0.61,0.58,0.48,0.55,0.55,0.4,0.29,0.56,0.29,0.58,0.5,0.29,0.55,0.6,0.58,0.29,0.33,0.55,0.44,0.48,0.29,0.29,0.55,0.33" style="fill:rgb(0,0,0);font-family:URWPalladioL-Roma;font-size:8.97px;stroke:none;">The original unit cell [</text>
   <text y="626.172" x="184.352,188.746" svgx:width="0.5,0.5" style="fill:rgb(8,117,183);font-family:URWPalladioL-Roma;font-size:8.97px;stroke:none;">17</text>
   <text y="626.172" x="193.14,196.1001,198.3,200.858,204.6254,206.846,214.791,220.188,222.745,225.621,228.178,233.557,236.114,238.672,242.94,248.4117,250.63,253.497,260.996,263.554,267.503,271.8086,273.992,278.452,281.009,285.887,291.093,296.1162,298.283,301.159,306.364" svgx:width="0.33,0.55,0.29,0.42,0.55,0.88,0.6,0.29,0.33,0.29,0.6,0.29,0.29,0.48,0.61,0.55,0.33,0.83,0.29,0.44,0.48,0.55,0.5,0.29,0.55,0.58,0.56,0.55,0.33,0.58,0.48" style="fill:rgb(0,0,0);font-family:URWPalladioL-Roma;font-size:8.97px;stroke:none;">] is multiplied twice along the</text>
   <text y="626.172" x="312.854" svgx:width="0.46" style="fill:rgb(0,0,0);font-family:URWPalladioL-Ital;font-size:8.97px;stroke:none;">b</text>
   <text y="626.172" x="316.977,319.917,325.386,327.944,331.284,335.552,339.502,342.378,344.935,349.813,355.0156,357.239,360.115,365.0485,367.214,369.771,372.329,374.886,380.283,384.051,386.926,390.43,394.89,397.766,402.07160000000005,404.255,407.13,412.336,416.64160000000004,418.825,422.593,425.469,429.928,433.878,438.847,441.404,446.61,451.6332,453.791,458.669,461.6291,463.829,466.705,471.911,476.2166,478.4,482.167,485.043,489.503,493.007,496.774" svgx:width="0.33,0.61,0.29,0.4,0.48,0.44,0.33,0.29,0.55,0.58,0.55,0.33,0.55,0.55,0.29,0.29,0.29,0.6,0.42,0.33,0.4,0.5,0.33,0.48,0.55,0.33,0.58,0.48,0.55,0.42,0.33,0.5,0.44,0.56,0.29,0.58,0.56,0.55,0.55,0.33,0.55,0.33,0.58,0.48,0.55,0.42,0.33,0.5,0.4,0.42,0.25" style="fill:rgb(0,0,0);font-family:URWPalladioL-Roma;font-size:8.97px;stroke:none;">-direction to illustrate the stacking of the stars.</text>
   <text y="638.994" x="97.517,102.978,108.158,112.4636,114.633,119.985,124.423,129.603,133.85,136.4513,138.622" svgx:width="0.61,0.58,0.48,0.55,0.6,0.5,0.58,0.48,0.29,0.55,0.33" style="fill:rgb(0,0,0);font-family:URWPalladioL-Roma;font-size:8.97px;stroke:none;">The panel (</text>
   <text y="638.994" x="141.545" svgx:width="0.5" style="fill:rgb(0,0,0);font-family:URWPalladioL-Bold;font-size:8.97px;stroke:none;">e</text>
   <text y="638.994" x="145.938,148.8981,151.091,154.84,160.02,164.874,172.336,176.10340000000002,178.313,181.175,186.355,190.6606,192.83,196.58,199.441,203.879,207.809,212.8322,214.972,222.878,227.316,232.758,237.0636,239.234,244.088,247.0481,249.241,253.678,258.163,260.343,264.093,269.463,273.393,278.5956,280.801,288.707,293.561,296.106,300.353,304.283,309.654,312.199,316.446,320.195,322.4375,325.149,330.61,335.79,340.09560000000005,342.265,346.195,350.633,354.119,359.037,363.882,369.062,371.3045,373.472,378.652,383.597,389.039,392.363,397.217,402.162,406.409,411.589,413.8315,415.99,420.844,425.427,430.371,435.316,439.563,444.7656,446.971,451.409,456.589,462.0607,464.25,469.43,471.975,474.837,478.17,483.024,487.968,492.216" svgx:width="0.33,0.55,0.42,0.58,0.55,0.83,0.42,0.55,0.33,0.58,0.48,0.55,0.42,0.33,0.5,0.44,0.56,0.55,0.88,0.5,0.61,0.48,0.55,0.55,0.33,0.55,0.5,0.5,0.55,0.42,0.6,0.44,0.58,0.55,0.88,0.55,0.29,0.48,0.44,0.6,0.29,0.48,0.42,0.25,0.55,0.61,0.58,0.48,0.55,0.44,0.5,0.4,0.55,0.55,0.58,0.25,0.55,0.58,0.56,0.61,0.4,0.55,0.56,0.48,0.58,0.25,0.55,0.55,0.52,0.56,0.56,0.48,0.58,0.55,0.5,0.58,0.61,0.55,0.58,0.29,0.33,0.4,0.55,0.56,0.48,0.58" style="fill:rgb(0,0,0);font-family:URWPalladioL-Roma;font-size:8.97px;stroke:none;">) shows the stack made of 20 such molecules. The carbon, hydrogen, oxygen and nitrogen</text>
   <text y="651.816" x="97.795,102.189,105.022,109.828,117.656,121.4234,123.582,127.976,131.267,135.5726,137.696,141.587,146.393,148.912,153.718,157.009,161.214,166.6857,168.818,174.207,178.6,182.052,187.0752,189.172,194.067,197.358,201.563,205.464,207.7065,209.83,212.35,214.869,219.765,224.894,227.85410000000002,229.951,234.847,238.137,242.342,246.243,248.4855,250.609,253.9,258.105,263.5767,265.718,270.111,275.24,280.7117,282.844,287.712,290.232,295.549,299.8546,301.978,305.69,310.989,316.118,320.323,323.614,327.819,331.531,333.7735,335.898,339.189,343.394,347.106,352.405,356.61,360.502,363.335,365.855,370.831,375.036,377.556,381.456" svgx:width="0.5,0.33,0.55,0.88,0.42,0.55,0.5,0.4,0.48,0.55,0.44,0.55,0.29,0.55,0.4,0.48,0.61,0.55,0.61,0.5,0.4,0.56,0.55,0.56,0.4,0.48,0.56,0.25,0.55,0.29,0.29,0.56,0.58,0.33,0.55,0.56,0.4,0.48,0.56,0.25,0.55,0.4,0.48,0.61,0.55,0.5,0.58,0.61,0.55,0.55,0.29,0.6,0.48,0.55,0.42,0.6,0.58,0.48,0.4,0.48,0.42,0.25,0.55,0.4,0.48,0.42,0.6,0.48,0.44,0.33,0.29,0.56,0.48,0.29,0.56,0.25" style="fill:rgb(0,0,0);font-family:URWPalladioL-Roma;font-size:8.97px;stroke:none;">atoms are colored dark grey, light grey, red and blue spheres, respectively.</text>
   <text y="674.917" x="97.795,105.701,109.88419999999999,114.745,120.852,126.401,129.358,135.272,138.585,143.452,149.5276,154.396,159.945,166.072,169.3588,174.121,177.078,182.8548,187.727,193.642,199.769,208.742,213.61,217.441,222.989,229.117,233.3002,238.161,244.268,250.396,256.015,258.972,261.929,266.441,271.522,274.835,277.792,283.34,289.254,293.4372,298.298,304.507,309.375,315.116,320.665,323.977,328.845,334.92060000000004,339.789,343.102,348.58,353.386,356.699,362.613,367.3938,372.216,376.524,381.392,384.349,387.733,391.117,396.198,400.506,404.815,409.683,418.655,424.275,427.232,432.80960000000005,437.617,443.166,446.4528,451.285,456.366,461.447,466.995,472.076,478.285,483.783,491.5518,496.424,500.733,504.046,509.126,513.14,517.449" svgx:width="0.78,0.42,0.55,0.6,0.55,0.29,0.58,0.33,0.48,0.61,0.55,0.55,0.6,0.33,0.55,0.29,0.58,0.55,0.58,0.6,0.88,0.48,0.4,0.55,0.6,0.42,0.55,0.6,0.6,0.55,0.29,0.29,0.44,0.5,0.33,0.29,0.55,0.58,0.42,0.55,0.61,0.48,0.56,0.55,0.33,0.48,0.61,0.55,0.33,0.55,0.55,0.33,0.58,0.48,0.55,0.42,0.48,0.29,0.33,0.33,0.5,0.42,0.42,0.48,0.88,0.55,0.29,0.56,0.55,0.55,0.33,0.55,0.5,0.5,0.55,0.5,0.61,0.61,0.78,0.55,0.42,0.33,0.5,0.4,0.42,0.25" style="fill:rgb(0,0,0);font-family:URWPalladioL-Roma;font-size:9.96px;stroke:none;">As pointed out in numerous publications devoted to the self-assembly of azo–BTA stars,</text>
   <text y="688.426" x="76.535,79.728,85.427,90.2078,92.606,98.305,103.75,109.734,113.426,118.773,124.218,128.909,134.6858,137.096,142.512,147.859,153.559,159.542,162.392,168.092,173.6696,176.015,180.911,186.611" svgx:width="0.33,0.58,0.48,0.55,0.58,0.56,0.61,0.4,0.55,0.56,0.48,0.58,0.55,0.55,0.55,0.58,0.61,0.29,0.58,0.56,0.55,0.5,0.58,0.61" style="fill:rgb(0,0,0);font-family:URWPalladioL-Roma;font-size:9.96px;stroke:none;">the hydrogen bonding and</text>
   <text y="688.426" x="195.211" svgx:width="0.68" style="fill:rgb(0,0,0);font-family:PazoMath-Italic;font-size:9.96px;stroke:none;">π</text>
   <text y="688.426" x="202.339" svgx:width="0.5" style="fill:rgb(0,0,0);font-family:URWPalladioL-Roma;font-size:9.96px;stroke:none;">–</text>
   <text y="688.426" x="207.36" svgx:width="0.68" style="fill:rgb(0,0,0);font-family:PazoMath-Italic;font-size:9.96px;stroke:none;">π</text>
   <text y="688.426" x="216.976,221.128,224.321,229.218,233.566,239.011,241.861,247.56,253.1376,255.493,260.908,265.599,268.792,276.96,281.651,286.341,292.1178,294.529,297.721,303.421,308.2018,310.599,316.299,320.99,323.84,329.285,334.984,340.4,345.747,349.616,352.465,358.165,363.74260000000004,366.098,370.25,373.443,378.339,382.323,384.695,389.043,393.734,399.434,402.626,407.317,411.176,415.3592,417.816,422.712,425.562,430.909,436.609,442.1866,444.541,447.734,453.434,458.2148,460.612,464.96,470.307,473.157,479.063,487.71,493.41,497.5932,500.05,505.935,508.785,513.682" svgx:width="0.42,0.33,0.5,0.44,0.56,0.29,0.58,0.56,0.55,0.55,0.48,0.33,0.83,0.48,0.48,0.58,0.55,0.33,0.58,0.48,0.55,0.58,0.48,0.29,0.56,0.58,0.55,0.55,0.4,0.29,0.58,0.56,0.55,0.42,0.33,0.5,0.4,0.55,0.44,0.48,0.58,0.33,0.48,0.4,0.42,0.55,0.5,0.29,0.55,0.58,0.56,0.55,0.33,0.58,0.48,0.55,0.44,0.55,0.29,0.6,0.88,0.58,0.42,0.55,0.6,0.29,0.5,0.56" style="fill:rgb(0,0,0);font-family:URWPalladioL-Roma;font-size:9.96px;stroke:none;">stacking between the neighboring star centers along the columns play</text>
   <text y="701.935" x="76.535,81.417,87.1938,89.442,94.119,98.258,102.398,107.075,112.757,115.94,118.781,123.663,126.5514,128.837,132.518,137.849,140.69,145.4708,147.7,150.541,156.3178,158.567,161.749,167.432,170.273,174.4562,176.746,180.886,186.314,190.454,193.637,198.313,206.934,209.424,212.412,218.396,224.079,228.755,232.895,237.6758,239.915,243.098,251.24,256.718,258.905,261.746,267.428,270.611,275.288,279.144,284.026,288.361,291.544,294.385,299.715,305.398,309.5812,311.881,316.762,320.433,325.2138,327.453,331.124,335.801,339.94,345.808,351.139,356.821,360.961,363.802,369.201,372.042,376.8228,379.062,382.313,387.644,391.628,393.834,398.716,402.855,406.995,411.672,420.293,425.692,428.533,431.374,437.056,442.6336,444.828,449.808,452.043,456.183,459.024,464.706,470.135,472.976,477.7568,479.996,484.135,487.318,491.097,496.984,501.319,504.502,510.389,514.06" svgx:width="0.5,0.58,0.55,0.48,0.42,0.42,0.48,0.58,0.33,0.29,0.5,0.29,0.55,0.4,0.55,0.29,0.48,0.55,0.29,0.58,0.55,0.33,0.58,0.29,0.42,0.55,0.42,0.56,0.42,0.33,0.48,0.88,0.25,0.55,0.61,0.58,0.48,0.42,0.48,0.55,0.33,0.83,0.55,0.55,0.29,0.58,0.33,0.48,0.4,0.5,0.44,0.33,0.29,0.55,0.58,0.42,0.55,0.5,0.4,0.48,0.55,0.4,0.48,0.42,0.6,0.55,0.58,0.42,0.29,0.55,0.29,0.48,0.55,0.33,0.55,0.4,0.55,0.5,0.42,0.42,0.48,0.88,0.55,0.29,0.29,0.58,0.56,0.55,0.5,0.55,0.42,0.29,0.58,0.56,0.29,0.48,0.55,0.42,0.33,0.4,0.6,0.44,0.33,0.6,0.4,0.48" style="fill:rgb(0,0,0);font-family:URWPalladioL-Roma;font-size:9.96px;stroke:none;">an essential role in this system. These two interactions are responsible for assembling a single structure</text>
   <text y="715.445" x="76.535,79.919,83.75,89.298,98.06280000000001,101.188,106.929,111.797,115.811,121.38860000000001,124.367,130.515,134.529,138.837,142.1238,145.067,150.147,155.797,161.447,165.278,170.146,175.796,180.877,184.19,189.057,193.366,195.85600000000002,198.924,202.237,208.151,213.232,216.5188,219.461,224.542,230.65,236.757,241.614,246.695,250.679,253.626,258.707,261.9938,264.926,268.238,274.153,278.9338,281.937,284.894,290.808,293.765,297.078,300.035,305.116,308.0044,310.979,315.288,318.6,323.681,329.331,334.1118,337.115,342.664,345.9508,348.954,352.267,358.181,362.9618,365.965,371.513,375.344,381.553,386.421,390.435,393.392,399.306,404.8836,407.872,413.98,417.811,423.359,427.871,432.738,437.047,441.356,443.846,448.245,454.475,460.389,465.1698,468.173,473.863,479.991,484.858,489.167,492.48,495.437,500.985,506.7618,509.806,515.354" svgx:width="0.33,0.4,0.55,0.88,0.55,0.56,0.48,0.4,0.56,0.55,0.61,0.4,0.42,0.33,0.55,0.5,0.56,0.56,0.4,0.48,0.56,0.5,0.33,0.48,0.42,0.25,0.55,0.33,0.58,0.5,0.33,0.55,0.5,0.6,0.6,0.48,0.5,0.4,0.55,0.5,0.33,0.55,0.33,0.58,0.48,0.55,0.29,0.58,0.29,0.33,0.29,0.5,0.29,0.55,0.42,0.33,0.5,0.56,0.48,0.55,0.55,0.33,0.55,0.33,0.58,0.48,0.55,0.55,0.4,0.61,0.48,0.4,0.29,0.58,0.56,0.55,0.6,0.4,0.55,0.44,0.48,0.42,0.42,0.25,0.55,0.61,0.58,0.48,0.55,0.56,0.6,0.48,0.42,0.33,0.29,0.55,0.58,0.55,0.55,0.33" style="fill:rgb(0,0,0);font-family:URWPalladioL-Roma;font-size:9.96px;stroke:none;">from very ﬁrst aggregates, that appear at the initial stage of the ordering process. The question of</text>
   <text y="728.954" x="76.256,81.835,87.842,92.824,98.622,101.87,104.769,108.087,113.626,116.525,122.323,127.9006,130.353,133.601,139.399,144.171,148.395,153.1758,155.658,159.882,163.13,168.111,173.62,176.52,179.419,182.318,187.299,190.198,195.996,201.5736,204.026,207.344,212.783,216.539,220.963,225.735,229.9182,232.45,235.349,239.5322,242.063,247.503,253.491,258.263,264.03979999999996,266.552,271.533,277.331,283.4066,285.909,288.808,293.032,295.522,298.013,301.261,307.06,311.832,315.588,320.36,323.677,329.117,332.873,337.645,340.135,342.626,348.066,353.864,358.6448,361.127,366.566,369.8528,372.374,375.622,381.42,386.2008,388.683,394.222,399.662,404.643,407.542,411.7252,414.257,419.697,422.98380000000003,425.505,428.753,434.551,437.45,441.6332,444.165,448.389,451.637,457.644,463.732,468.165" svgx:width="0.56,0.6,0.5,0.58,0.33,0.29,0.33,0.56,0.29,0.58,0.56,0.55,0.33,0.58,0.48,0.42,0.48,0.55,0.42,0.33,0.5,0.55,0.29,0.29,0.29,0.5,0.29,0.58,0.56,0.55,0.33,0.55,0.4,0.44,0.48,0.42,0.55,0.29,0.42,0.55,0.55,0.6,0.48,0.58,0.55,0.5,0.58,0.61,0.55,0.29,0.42,0.25,0.55,0.33,0.58,0.48,0.4,0.48,0.33,0.55,0.4,0.48,0.25,0.55,0.55,0.58,0.48,0.55,0.55,0.33,0.55,0.33,0.58,0.48,0.55,0.56,0.55,0.5,0.29,0.42,0.55,0.55,0.33,0.55,0.33,0.58,0.29,0.42,0.55,0.42,0.33,0.6,0.61,0.56,0.25" style="fill:rgb(0,0,0);font-family:URWPalladioL-Roma;font-size:9.96px;stroke:none;">quantifying these stabilizing forces is open and is, therefore, one of the goals of this study.</text>
   <text y="742.464" x="97.795,105.782,111.91,115.89399999999999,123.047,128.128,131.441,134.754,139.621,145.535,148.848,151.805,157.354,163.13080000000002,170.391,178.866,181.823,184.78,187.6684,194.861,199.942,202.899,207.208,212.686,219.879,225.499,230.2798,237.48,243.13,246.087,251.828,256.696,262.4728,269.733,273.046,278.524,285.718,289.031,294.945,299.7258,306.936,311.245,316.112,319.069,322.453,325.837,330.918,335.227,339.535,344.403,353.376,358.995,361.952,367.5296,374.726,383.699,388.566,393.078,398.992,404.073,409.987,412.944,417.253,426.01779999999997,433.349,438.898,442.18480000000005,449.405,454.486,459.567,465.115,470.196,476.405,481.893,489.66179999999997,496.922,501.231,504.543,509.624,513.638,517.947" svgx:width="0.79,0.6,0.4,0.55,0.5,0.33,0.33,0.48,0.58,0.33,0.29,0.55,0.58,0.55,0.83,0.29,0.29,0.29,0.55,0.5,0.29,0.42,0.55,0.55,0.55,0.48,0.55,0.56,0.29,0.56,0.48,0.58,0.55,0.33,0.55,0.55,0.33,0.58,0.48,0.55,0.42,0.48,0.29,0.33,0.33,0.5,0.42,0.42,0.48,0.88,0.55,0.29,0.56,0.55,0.88,0.48,0.44,0.58,0.5,0.58,0.29,0.42,0.88,0.55,0.55,0.33,0.55,0.5,0.5,0.55,0.5,0.61,0.61,0.78,0.55,0.42,0.33,0.5,0.4,0.42,0.25" style="fill:rgb(0,0,0);font-family:URWPalladioL-Roma;font-size:9.96px;stroke:none;">Our attention will also be given to the self-assembly mechanism of azo–BTA stars.</text>
   <text y="755.973" x="76.147,84.053,88.565,93.077,98.625,102.456,108.665,111.622,117.536,123.1136,129.273,132.586,138.06400000000002,144.211,147.524,153.438,158.2188,164.382,167.339,172.42,175.733,180.601,184.909,188.1958,194.309,198.618,203.129,206.087,210.954,216.868,220.181,223.138,229.286,233.6684,239.875,242.832,249.041,253.908,258.989,263.1722,269.385,272.342,278.11879999999996,284.333,287.646,293.56,296.517,300.7002,306.902,313.05,317.918,320.875,327.084,329.574,336.605,339.918,345.832,349.663,354.531,359.3118,365.485,369.794,374.306,379.173,385.087,390.168,394.182,397.139,402.688,406.8712,413.073,418.622,421.90880000000004,428.092,431.405,437.319,442.0998,448.264,452.572,458.7,464.807,468.821,473.902,482.875,488.423,491.38,496.248,500.76,506.887,509.844,514.925" svgx:width="0.78,0.44,0.44,0.55,0.4,0.61,0.29,0.58,0.56,0.55,0.33,0.55,0.55,0.33,0.58,0.48,0.55,0.29,0.5,0.33,0.48,0.42,0.33,0.55,0.42,0.44,0.29,0.48,0.58,0.33,0.29,0.61,0.44,0.55,0.29,0.61,0.48,0.5,0.42,0.55,0.29,0.58,0.55,0.33,0.58,0.29,0.42,0.55,0.61,0.48,0.29,0.61,0.25,0.55,0.33,0.58,0.4,0.48,0.48,0.55,0.42,0.44,0.48,0.58,0.5,0.4,0.29,0.55,0.42,0.55,0.55,0.33,0.55,0.33,0.58,0.48,0.55,0.42,0.6,0.6,0.4,0.5,0.88,0.55,0.29,0.48,0.44,0.6,0.29,0.5,0.4" style="fill:rgb(0,0,0);font-family:URWPalladioL-Roma;font-size:9.96px;stroke:none;">According to the latest scientiﬁc ideas in this ﬁeld, three scenarios of the supramolecular</text>
   <text y="769.482" x="76.535,81.616,85.925,90.233,95.101,104.074,109.693,112.65,118.22760000000001,121.074,126.155,129.986,134.7668,137.628,143.837,146.794,151.103,154.415,157.373,163.287,168.937,175.064,178.021,182.33,188.244,193.112,199.321,201.811,205.519,210.031,215.58,221.128,227.235,232.103,236.117,241.198,244.51,247.467,253.209,258.076,260.56600000000003,263.452,266.409,270.718,276.266,282.475,287.343,291.651,300.624,303.581,307.96340000000004,310.867,315.948,321.862,327.93760000000003,330.845,334.859,337.816,343.731,349.381,352.765,357.276,363.191,368.272,371.229,377.00579999999997,379.917,388.89,393.757,398.269,404.184,409.264,415.179,418.136,422.444,431.417,435.6002,438.5" svgx:width="0.5,0.42,0.42,0.48,0.88,0.55,0.29,0.56,0.55,0.5,0.4,0.48,0.55,0.61,0.29,0.42,0.33,0.29,0.58,0.56,0.6,0.29,0.42,0.58,0.48,0.61,0.25,0.55,0.44,0.55,0.55,0.6,0.48,0.4,0.5,0.33,0.29,0.56,0.48,0.25,0.55,0.29,0.42,0.55,0.61,0.48,0.42,0.88,0.29,0.44,0.55,0.5,0.58,0.61,0.55,0.4,0.29,0.58,0.56,0.33,0.44,0.58,0.5,0.29,0.58,0.55,0.88,0.48,0.44,0.58,0.5,0.58,0.29,0.42,0.88,0.42,0.55,0.33" style="fill:rgb(0,0,0);font-family:URWPalladioL-Roma;font-size:9.96px;stroke:none;">assembly are distinguished: cooperative, isodesmic and ring-chain mechanisms [</text>
   <text y="769.482" x="441.883,446.864" svgx:width="0.5,0.5" style="fill:rgb(8,117,183);font-family:URWPalladioL-Roma;font-size:9.96px;stroke:none;">56</text>
   <text y="769.482" x="451.846,455.23,457.72,460.545,465.88,474.355,479.833,482.677,488.225,491.51180000000005,494.373,497.686,503.6,508.468,517.441" svgx:width="0.33,0.25,0.55,0.61,0.83,0.55,0.55,0.55,0.33,0.55,0.33,0.58,0.48,0.88,0.25" style="fill:rgb(0,0,0);font-family:URWPalladioL-Roma;font-size:9.96px;stroke:none;">]. Two of them,</text>
  </g>
 </g>
</svg>
