<?xml version="1.0" encoding="UTF-8"?>
<svg height="770.347" width="530.504" xmlns="http://www.w3.org/2000/svg">
 <g id="page" xmlns:svgx="http://www.xml-cml.org/schema/svgx">
  <g begin="text">
   <text y="62.979" x="76.535,84.059,87.598,89.813,92.914,96.157,100.589,102.804,105.905" svgx:width="0.94,0.44,0.28,0.39,0.41,0.56,0.28,0.39,0.39" style="fill:rgb(0,0,0);font-family:URWPalladioL-Ital;font-size:7.97px;stroke:none;">Molecules</text>
   <text y="62.979" x="110.998,114.983,118.968,122.953" svgx:width="0.5,0.5,0.5,0.5" style="fill:rgb(0,0,0);font-family:URWPalladioL-Bold;font-size:7.97px;stroke:none;">2019</text>
   <text y="62.979" x="126.938" svgx:width="0.25" style="fill:rgb(0,0,0);font-family:URWPalladioL-Roma;font-size:7.97px;stroke:none;">,</text>
   <text y="62.979" x="130.923,134.908" svgx:width="0.5,0.5" style="fill:rgb(0,0,0);font-family:URWPalladioL-Ital;font-size:7.97px;stroke:none;">24</text>
   <text y="62.979" x="138.893,140.8855,142.878,146.863,150.848,154.833,158.818,491.809,495.794,499.779,501.772,506.123,508.7531,510.77,514.755" svgx:width="0.25,0.55,0.5,0.5,0.5,0.5,0.55,0.5,0.5,0.55,0.55,0.33,0.55,0.5,0.5" style="fill:rgb(0,0,0);font-family:URWPalladioL-Roma;font-size:7.97px;stroke:none;">, 4387 12 of 18</text>
   <text y="97.848" x="97.795,105.5638,108.016,113.55,117.302,122.736,131.037,133.933,139.725,145.30259999999998,147.737,153.818,156.715,162.696,168.13,171.027,175.8078,178.282,183.716,187.0028,189.509,192.753,198.546,203.3268,205.791,210.011,213.256,218.232,222.651,228.185,232.3682,234.883,239.103,241.999,250.787,256.788,259.685,264.661,267.906,272.673,278.7486,281.242,284.138,289.91479999999996,292.409,301.824,309.4932,312.006,314.902,319.0852,321.6,327.581,331.334,336.101,342.182,345.078,349.497,352.742,357.509,363.5846,366.078,372.08,376.3,379.196,384.988,390.5656,393.0,399.081,401.977,405.113,408.427,413.194,416.946,421.714,427.506,430.7928,433.229,442.017,446.784,450.029,455.821,461.255,467.336,471.556,474.046,477.13,485.41,490.845,499.145,503.912,509.536,514.303,517.498" svgx:width="0.78,0.55,0.56,0.4,0.55,0.83,0.29,0.58,0.56,0.55,0.61,0.29,0.6,0.55,0.29,0.48,0.55,0.55,0.33,0.55,0.33,0.58,0.48,0.55,0.42,0.33,0.5,0.44,0.56,0.42,0.55,0.42,0.29,0.88,0.6,0.29,0.5,0.33,0.48,0.61,0.55,0.29,0.58,0.55,0.95,0.77,0.55,0.29,0.42,0.55,0.6,0.4,0.48,0.61,0.29,0.44,0.33,0.48,0.61,0.55,0.6,0.42,0.29,0.58,0.56,0.55,0.61,0.29,0.33,0.33,0.48,0.4,0.48,0.58,0.33,0.55,0.88,0.48,0.33,0.58,0.55,0.61,0.42,0.25,0.55,0.83,0.55,0.83,0.48,0.56,0.48,0.4,0.25" style="fill:rgb(0,0,0);font-family:URWPalladioL-Roma;font-size:9.96px;stroke:none;">A growing dipole of the stacks simulated in MD is predicted using different methods. However,</text>
   <text y="111.358" x="76.535,79.848,85.762,90.5428,93.211,97.519,102.031,107.112,110.425,113.738,118.605,122.619,125.576,131.49,137.0676,139.721,145.27,148.5568,151.235,154.548,160.462,165.2428,167.91,174.119,179.2,182.513,187.493,190.175,193.132,197.3152,200.032,204.341,210.468,216.078,220.386,223.699,228.78,234.694,238.007,240.964,246.045,249.002,251.49200000000002,254.154,262.629,268.543,271.5,276.012,281.7888,284.507,287.465,291.6482,294.354,298.185,303.053,306.01,311.091,314.404,319.271,325.3466,328.061,331.374,336.85200000000003,339.503,344.483,347.176,350.133,355.214,359.045,364.695,369.4758,372.143,378.057,384.185,393.158,398.778,403.645,407.62899999999996,410.24,415.788,419.07480000000004,421.754,430.726,436.275,439.232,444.099,448.611,454.739,457.696,462.777,466.76099999999997,469.372,475.022,479.889,485.438,494.411,499.278,502.591,506.605,509.562,514.43" svgx:width="0.33,0.58,0.48,0.55,0.42,0.44,0.5,0.33,0.33,0.48,0.4,0.29,0.58,0.56,0.55,0.55,0.33,0.55,0.33,0.58,0.48,0.55,0.61,0.5,0.33,0.5,0.55,0.29,0.42,0.55,0.42,0.6,0.55,0.42,0.33,0.5,0.58,0.33,0.29,0.5,0.29,0.25,0.55,0.83,0.58,0.29,0.44,0.58,0.55,0.29,0.42,0.55,0.4,0.48,0.29,0.5,0.33,0.48,0.61,0.55,0.33,0.55,0.55,0.5,0.55,0.29,0.5,0.4,0.56,0.48,0.55,0.58,0.6,0.88,0.55,0.48,0.4,0.55,0.55,0.33,0.55,0.88,0.55,0.29,0.48,0.44,0.6,0.29,0.5,0.4,0.55,0.56,0.48,0.55,0.88,0.48,0.33,0.4,0.29,0.48,0.42" style="fill:rgb(0,0,0);font-family:URWPalladioL-Roma;font-size:9.96px;stroke:none;">the scattering of the data is substantial, which is related to a large number of molecular geometries</text>
   <text y="124.867" x="76.535,79.845,85.753,90.829,94.1158,96.615,101.691,105.519,110.2998,112.869,116.696,121.559,126.635,129.589,132.543,137.619,142.482,148.5576,151.162,156.237,159.5238,162.024,165.861,171.404,176.947,185.7118,188.389,191.698,196.561,205.525,211.626,216.489,220.499,225.575,228.884,235.006,238.833,243.6138,246.173,249.127,254.90380000000002,257.513,262.02,267.563,276.527,282.629,288.75,292.06,296.922,300.906,303.409,307.714,310.668,319.632,325.754,328.708,333.784,337.093,340.048,345.591,351.499,355.803,358.293,361.427,367.072,372.615,376.599,379.102,383.965,389.203,394.279,403.243,409.344,412.299,417.161,419.651,422.176,425.486,431.394,436.1748,438.744,447.708,452.571,457.647,463.42379999999997,466.033,471.768,476.844,479.798,485.92,490.7008,493.26,498.803,502.0898,504.66,507.97,513.878" svgx:width="0.33,0.58,0.5,0.33,0.55,0.5,0.4,0.48,0.55,0.4,0.48,0.5,0.29,0.29,0.5,0.48,0.61,0.55,0.5,0.33,0.55,0.4,0.55,0.55,0.88,0.55,0.33,0.48,0.88,0.6,0.48,0.4,0.5,0.33,0.6,0.4,0.48,0.55,0.29,0.58,0.55,0.44,0.55,0.88,0.6,0.6,0.33,0.48,0.4,0.55,0.42,0.29,0.88,0.6,0.29,0.5,0.33,0.29,0.55,0.58,0.42,0.25,0.55,0.56,0.55,0.4,0.55,0.48,0.52,0.5,0.88,0.6,0.29,0.48,0.25,0.55,0.33,0.58,0.48,0.55,0.88,0.48,0.5,0.58,0.55,0.56,0.5,0.29,0.6,0.48,0.55,0.55,0.33,0.55,0.33,0.58,0.48" style="fill:rgb(0,0,0);font-family:URWPalladioL-Roma;font-size:9.96px;stroke:none;">that are realized at room temperature in computer simulations. For example, the mean value of the</text>
   <text y="138.377" x="76.535,82.695,85.629,91.497,96.326,102.486,106.469,111.51,114.39840000000001,116.934,121.975,127.843,133.449,136.383,141.1638,143.712,146.646" svgx:width="0.61,0.29,0.58,0.48,0.61,0.4,0.5,0.29,0.55,0.5,0.58,0.56,0.29,0.48,0.55,0.29,0.42" style="fill:rgb(0,0,0);font-family:URWPalladioL-Roma;font-size:9.96px;stroke:none;">dihedral angle is</text>
   <text y="138.377" x="153.536" svgx:width="0.79" style="fill:rgb(0,0,0);font-family:PazoMath;font-size:9.96px;stroke:none;">Θ</text>
   <text y="138.377" x="163.985,170.06060000000002,172.585,177.626,182.667,185.188" svgx:width="0.61,0.55,0.5,0.5,0.25,0.5" style="fill:rgb(0,0,0);font-family:URWPalladioL-Roma;font-size:9.96px;stroke:none;">= 32.1</text>
   <text y="138.377" x="192.851" svgx:width="0.78" style="fill:rgb(0,0,0);font-family:CMSY10;font-size:10.38px;stroke:none;">±</text>
   <text y="138.377" x="203.538,208.579,213.62,216.141" svgx:width="0.5,0.5,0.25,0.5" style="fill:rgb(0,0,0);font-family:URWPalladioL-Roma;font-size:9.96px;stroke:none;">17.8</text>
   <text y="134.76" x="221.277" svgx:width="0.5" style="fill:rgb(0,0,0);font-family:CMSY10;font-size:7.89px;stroke:none;">◦</text>
   <text y="138.377" x="228.308,231.665,237.17,241.154,243.643,249.803,252.737,261.64,266.469,270.451,274.726,277.216,280.352,286.532,292.4,297.1808,299.72,304.196,309.237,313.22,318.795,324.3,330.168,335.774,338.6624,341.198,346.804,350.604,356.109,362.189,368.248,372.4312,375.023,381.083,386.588,389.522,395.389,398.67580000000004,401.166,404.1,409.8768,412.458,415.745,421.613,426.3938,428.943,433.218,438.259,447.161,451.9418,454.481,460.641,463.575,467.376,472.205,476.682,479.968,482.902,488.407,494.18379999999996,496.775,505.678,511.183,515.458" svgx:width="0.33,0.55,0.4,0.55,0.61,0.29,0.88,0.48,0.4,0.42,0.25,0.55,0.61,0.58,0.48,0.55,0.44,0.5,0.4,0.55,0.55,0.58,0.56,0.29,0.55,0.56,0.4,0.55,0.6,0.6,0.42,0.55,0.6,0.55,0.29,0.58,0.33,0.55,0.29,0.58,0.55,0.33,0.58,0.48,0.55,0.42,0.5,0.88,0.48,0.55,0.61,0.29,0.4,0.48,0.44,0.33,0.29,0.55,0.58,0.55,0.88,0.55,0.42,0.33" style="fill:rgb(0,0,0);font-family:URWPalladioL-Roma;font-size:9.96px;stroke:none;">for dimers. The carbonyl groups point in the same direction most</text>
   <text y="151.886" x="76.535,82.083,85.3698,88.465,91.778,97.692,102.47279999999999,105.567,108.88,111.837,120.81,125.5908,128.675,134.295,140.423,143.7098,146.733,152.647,158.196,161.4828,164.516,169.597,172.554,181.029,186.11,191.76,196.069,198.559,201.729,206.038,208.995,214.909,219.421,224.2018,227.296,230.609,236.523,241.391,245.405,254.378,259.458,262.3464,265.413,274.386,279.935,283.247,286.204,291.753,297.52979999999997,300.665,305.746,308.957,312.331,317.198,321.71,325.023,329.2062,332.339,335.652,341.566,346.3468,349.432,358.404,363.953,366.91,371.777,376.289,382.417,385.374,390.455,394.43899999999996,397.467,401.978,407.527,413.441,416.825,422.373,426.387,435.36,440.441,443.754,446.711,452.259,458.173,462.482,464.97200000000004,469.646,475.875,481.79,486.5708,489.655,495.396,500.477,503.434,509.562,514.43" svgx:width="0.55,0.33,0.55,0.33,0.58,0.48,0.55,0.33,0.29,0.88,0.48,0.55,0.55,0.6,0.33,0.55,0.58,0.55,0.33,0.55,0.5,0.29,0.83,0.5,0.56,0.42,0.25,0.55,0.42,0.29,0.58,0.44,0.48,0.55,0.33,0.58,0.48,0.4,0.88,0.5,0.29,0.55,0.88,0.55,0.33,0.29,0.55,0.58,0.55,0.5,0.33,0.33,0.48,0.44,0.33,0.42,0.55,0.33,0.58,0.48,0.55,0.88,0.55,0.29,0.48,0.44,0.6,0.29,0.5,0.4,0.55,0.44,0.55,0.58,0.33,0.55,0.4,0.88,0.5,0.33,0.29,0.55,0.58,0.42,0.25,0.55,0.61,0.58,0.48,0.55,0.56,0.5,0.29,0.6,0.48,0.42" style="fill:rgb(0,0,0);font-family:URWPalladioL-Roma;font-size:9.96px;stroke:none;">of the time but not always, since thermal motion affects the molecular conformations. The values</text>
   <text y="165.395" x="76.535,82.083,85.3698,89.136,92.448,98.363,103.1438,106.888,115.861,120.942,125.454,129.285,134.834,141.042,144.0,150.107,155.655,158.612,163.48,167.6632,171.457,174.841,180.491,183.448,189.098,195.225,199.056" svgx:width="0.55,0.33,0.55,0.33,0.58,0.48,0.55,0.88,0.5,0.44,0.4,0.55,0.61,0.29,0.6,0.55,0.29,0.48,0.42,0.55,0.33,0.56,0.29,0.56,0.6,0.4,0.48" style="fill:rgb(0,0,0);font-family:URWPalladioL-Roma;font-size:9.96px;stroke:none;">of the macrodipoles (Figure</text>
   <text y="165.395" x="207.592" svgx:width="0.5" style="fill:rgb(8,117,183);font-family:URWPalladioL-Roma;font-size:9.96px;stroke:none;">8</text>
   <text y="165.395" x="212.673,218.293,221.5798,225.335,230.985,234.826,240.375,248.6418,252.508,257.589,261.7722,265.566,274.041,278.908,281.865,284.822,287.312,291.316,299.791,305.705,308.662,313.174,318.95079999999996,322.746,325.704,329.8872,333.681,336.638,342.41479999999996,346.21,349.167,352.124,358.039,362.8198,366.574,375.049,378.007,381.319,387.0958,390.892,397.04,402.954,409.163,412.12,418.034,423.684,427.8672,431.661,437.209,440.49580000000003,444.252,449.8,453.113,459.027,463.894,467.878,471.577,474.89,480.804,485.671,491.22,495.051,499.918,503.231,506.188,510.7,515.781" svgx:width="0.55,0.33,0.55,0.56,0.4,0.55,0.83,0.55,0.5,0.42,0.55,0.83,0.48,0.29,0.29,0.25,0.55,0.83,0.58,0.29,0.44,0.58,0.55,0.29,0.42,0.55,0.29,0.58,0.55,0.29,0.29,0.58,0.48,0.55,0.83,0.29,0.33,0.58,0.55,0.61,0.58,0.61,0.29,0.58,0.56,0.42,0.55,0.55,0.33,0.55,0.55,0.33,0.58,0.48,0.4,0.55,0.33,0.58,0.48,0.55,0.4,0.48,0.33,0.29,0.44,0.5,0.29" style="fill:rgb(0,0,0);font-family:URWPalladioL-Roma;font-size:9.96px;stroke:none;">b) grow as well, which is in line with ﬁndings of other theoretical</text>
   <text y="178.905" x="76.535,80.763,84.014,90.028,96.121,99.023,103.8,107.9832,110.521" svgx:width="0.42,0.33,0.6,0.61,0.29,0.48,0.42,0.55,0.33" style="fill:rgb(0,0,0);font-family:URWPalladioL-Roma;font-size:9.96px;stroke:none;">studies [</text>
   <text y="178.905" x="113.845,118.826" svgx:width="0.5,0.5" style="fill:rgb(8,117,183);font-family:URWPalladioL-Roma;font-size:9.96px;stroke:none;">61</text>
   <text y="178.905" x="123.808" svgx:width="0.25" style="fill:rgb(0,0,0);font-family:URWPalladioL-Roma;font-size:9.96px;stroke:none;">,</text>
   <text y="178.905" x="126.301,131.282" svgx:width="0.5,0.5" style="fill:rgb(8,117,183);font-family:URWPalladioL-Roma;font-size:9.96px;stroke:none;">67</text>
   <text y="178.905" x="136.264,139.585,142.07500000000002,145.179,151.293,157.097,163.11,167.339,169.829,172.335,175.586,181.39,186.17079999999999,188.66,193.646,202.452,208.445,211.347,214.249,220.283,224.711,229.697,232.948,235.85,241.295,247.0718,249.592,255.037,258.3238,260.861,265.638,268.54,273.317,277.745,280.996,284.755,290.2,294.429,297.68,302.666,305.917,308.819,313.20140000000004,315.74,318.642,324.446,327.697,332.474,336.413,341.4,345.827,349.078,351.98,357.425,363.229,367.4122,369.951,374.937,377.839,383.284,389.088,394.66560000000004,397.126,400.377,406.181,410.9618,413.461,417.69,420.941,425.927,430.355,435.9,440.0832,442.621,445.523,449.7062,452.245,455.496,461.3,466.0808,468.58,477.385,482.372,485.274,491.0508,493.571,496.892,501.878,506.306,509.557,515.002" svgx:width="0.33,0.25,0.55,0.61,0.58,0.6,0.42,0.25,0.55,0.33,0.58,0.48,0.55,0.5,0.88,0.6,0.29,0.29,0.61,0.44,0.5,0.33,0.29,0.55,0.58,0.55,0.55,0.33,0.55,0.48,0.29,0.48,0.44,0.33,0.4,0.55,0.42,0.33,0.5,0.33,0.29,0.44,0.55,0.29,0.58,0.33,0.48,0.4,0.5,0.44,0.33,0.29,0.55,0.58,0.42,0.55,0.5,0.29,0.55,0.58,0.56,0.55,0.33,0.58,0.48,0.55,0.42,0.33,0.5,0.44,0.56,0.42,0.55,0.29,0.42,0.55,0.33,0.58,0.48,0.55,0.88,0.5,0.29,0.58,0.55,0.33,0.5,0.44,0.33,0.55,0.4" style="fill:rgb(0,0,0);font-family:URWPalladioL-Roma;font-size:9.96px;stroke:none;">]. Thus, the ampliﬁcation of electrostatic interactions along the stacks is the main factor</text>
   <text y="192.414" x="76.535,79.472,84.306,89.352,95.518,98.455,104.329,109.9066,112.423,115.713,121.19099999999999,123.706,127.985,131.275,135.079,140.59,146.463,152.074,156.909,160.893,163.378,169.251,174.863,181.029,184.844,190.354,195.965,200.799,206.57580000000002,209.156,214.736,220.247,226.12,232.287,235.223,241.097,246.6746,249.191,254.772,259.606,262.896,271.313,276.147,280.981,286.7578,289.337,294.383,299.429,304.94,309.986,316.152,321.602,329.3708,331.936,336.215,339.505,344.551,348.538,352.7212,355.299,360.911,366.421,372.123,376.957,380.943,386.817,389.754,395.627,401.2046,403.721,407.011,412.885,417.6658,420.202,424.683,430.193,435.703,441.769,446.603,450.589,455.635,458.925,461.862,467.564,472.3448,474.881,480.492,484.297,489.807,498.224,501.514,507.2908,509.87,515.38" svgx:width="0.29,0.48,0.5,0.61,0.29,0.58,0.56,0.55,0.33,0.55,0.55,0.42,0.33,0.4,0.55,0.58,0.56,0.48,0.4,0.55,0.58,0.56,0.61,0.4,0.55,0.56,0.48,0.58,0.55,0.55,0.55,0.58,0.61,0.29,0.58,0.56,0.55,0.55,0.48,0.33,0.83,0.48,0.48,0.58,0.55,0.5,0.5,0.55,0.5,0.61,0.61,0.78,0.55,0.42,0.33,0.5,0.4,0.42,0.55,0.56,0.55,0.56,0.48,0.4,0.58,0.29,0.58,0.56,0.55,0.33,0.58,0.48,0.55,0.44,0.55,0.55,0.6,0.48,0.4,0.5,0.33,0.29,0.56,0.48,0.55,0.56,0.4,0.55,0.83,0.33,0.58,0.55,0.55,0.33" style="fill:rgb(0,0,0);font-family:URWPalladioL-Roma;font-size:9.96px;stroke:none;">leading to stronger hydrogen bonding between azo–BTA stars governing the cooperative growth of</text>
   <text y="205.924" x="76.535,81.975,85.73,91.818,96.59,100.346,105.118,111.19359999999999,113.696,118.119,123.558,126.458,132.465,141.262,147.06,151.284" svgx:width="0.55,0.4,0.61,0.48,0.4,0.48,0.61,0.55,0.44,0.55,0.29,0.6,0.88,0.58,0.42,0.25" style="fill:rgb(0,0,0);font-family:URWPalladioL-Roma;font-size:9.96px;stroke:none;">ordered columns.</text>
   <text y="229.137" x="76.535,81.516,84.006,87.095,94.288,99.828,105.915,110.338,113.656,119.743,124.166,127.484,133.023,139.11" svgx:width="0.5,0.25,0.55,0.72,0.56,0.61,0.44,0.33,0.61,0.44,0.33,0.56,0.61,0.44" style="fill:rgb(0,0,0);font-family:URWPalladioL-Bold;font-size:9.96px;stroke:none;">3. Conclusions</text>
   <text y="248.624" x="97.795,103.937,112.813,118.854,121.78,127.268,132.857,135.783,141.633,147.2106,149.705,154.685,157.224,163.074,169.136,178.012,183.571,188.386,192.37,194.84,200.328,203.6148,206.158,210.622,216.11,224.986,231.028,237.089,240.366,245.181,249.16500000000002,251.645,255.907,258.832,267.708,273.77,276.695,281.721,284.998,287.924,293.412,299.18879999999996,301.745,305.022,309.837,314.301,320.151,326.001,328.927,334.556,340.617,345.432,349.695,352.185,354.691,363.074,367.8548,370.382,376.233,381.259,386.938,391.7188,394.236,399.262,405.113,410.139,413.064,418.653,423.679,428.494,434.56960000000004,437.119,440.396,446.246,451.0268,453.554,456.48,462.33,465.607,470.422,474.393,483.269,488.757,491.683,496.488,500.951,507.012,509.938,514.964" svgx:width="0.61,0.88,0.6,0.29,0.55,0.56,0.29,0.58,0.56,0.55,0.5,0.55,0.58,0.6,0.88,0.55,0.48,0.4,0.55,0.55,0.33,0.55,0.44,0.55,0.88,0.6,0.6,0.33,0.48,0.4,0.55,0.42,0.29,0.88,0.6,0.29,0.5,0.33,0.29,0.55,0.58,0.55,0.33,0.48,0.44,0.58,0.58,0.29,0.56,0.6,0.48,0.42,0.25,0.55,0.83,0.48,0.55,0.58,0.5,0.56,0.48,0.55,0.5,0.58,0.5,0.29,0.56,0.5,0.48,0.61,0.55,0.33,0.58,0.48,0.55,0.29,0.58,0.33,0.48,0.4,0.88,0.55,0.29,0.48,0.44,0.6,0.29,0.5,0.4" style="fill:rgb(0,0,0);font-family:URWPalladioL-Roma;font-size:9.96px;stroke:none;">Employing a number of computer simulation techniques, we have analyzed the intermolecular</text>
   <text y="262.133" x="76.535,79.492,85.406,88.719,93.587,97.601,102.681,107.193,110.506,113.463,119.012,124.926,129.10920000000002,133.055,138.675,143.542,146.855,155.33,160.198,165.065,170.8418,174.79,178.103,184.017,188.7978,192.705,197.786,202.867,208.416,213.496,219.705,225.193,232.9618,236.92,241.228,244.541,249.622,253.636,257.8192,261.755,264.712,270.48879999999997,274.447,278.959,284.508,287.465,293.592,302.565,308.479,312.6622,316.609,319.556,325.33279999999996,329.291,334.158,339.402,345.509,350.377,354.391,357.348,366.32,371.188,377.102,380.415,385.496,388.453,391.41,396.98760000000004,400.881,404.712,409.579,413.888,419.436,422.394,428.135,433.003,439.0786,443.032,447.544,451.558,457.208,461.517,464.829,469.91,472.868,477.0512,480.987" svgx:width="0.29,0.58,0.33,0.48,0.4,0.5,0.44,0.33,0.29,0.55,0.58,0.42,0.55,0.55,0.48,0.33,0.83,0.48,0.48,0.58,0.55,0.33,0.58,0.48,0.55,0.5,0.5,0.55,0.5,0.61,0.61,0.78,0.55,0.42,0.33,0.5,0.4,0.42,0.55,0.29,0.58,0.55,0.44,0.55,0.29,0.6,0.88,0.58,0.42,0.55,0.29,0.58,0.55,0.48,0.52,0.6,0.48,0.4,0.29,0.88,0.48,0.58,0.33,0.5,0.29,0.29,0.56,0.55,0.4,0.48,0.42,0.55,0.29,0.56,0.48,0.61,0.55,0.44,0.4,0.56,0.42,0.33,0.5,0.29,0.42,0.55,0.33" style="fill:rgb(0,0,0);font-family:URWPalladioL-Roma;font-size:9.96px;stroke:none;">interactions between the azo–BTA stars in columns in experimentally resolved crystals [</text>
   <text y="262.133" x="484.373,489.354" svgx:width="0.5,0.5" style="fill:rgb(8,117,183);font-family:URWPalladioL-Roma;font-size:9.96px;stroke:none;">17</text>
   <text y="262.133" x="494.335,497.6218,501.54,506.621,512.535" svgx:width="0.33,0.55,0.5,0.58,0.61" style="fill:rgb(0,0,0);font-family:URWPalladioL-Roma;font-size:9.96px;stroke:none;">] and</text>
   <text y="275.642" x="76.535,81.616,85.7992,90.152,95.7,101.32,104.633,109.713,112.671,118.585,123.452,129.5276,133.889,136.846,142.6228,146.987,152.535,158.663,162.64700000000002,166.904,170.746,175.613,180.115,184.982,190.896,194.1828,198.447,207.42,212.968,215.925,220.793,225.294,231.422,234.379,239.46,243.44400000000002,247.711,253.92,259.57,265.484,270.565,279.538,282.495,287.007,291.1902,295.543,299.852,303.165,309.292,315.501,321.0786,325.378" svgx:width="0.5,0.42,0.55,0.55,0.55,0.33,0.5,0.29,0.58,0.48,0.61,0.55,0.29,0.58,0.55,0.55,0.6,0.4,0.55,0.4,0.48,0.44,0.48,0.58,0.33,0.55,0.88,0.55,0.29,0.48,0.44,0.6,0.29,0.5,0.4,0.55,0.61,0.56,0.58,0.5,0.88,0.29,0.44,0.42,0.55,0.42,0.33,0.6,0.61,0.56,0.55,0.33" style="fill:rgb(0,0,0);font-family:URWPalladioL-Roma;font-size:9.96px;stroke:none;">as obtained in our recent molecular dynamics study [</text>
   <text y="275.642" x="328.758,333.739" svgx:width="0.5,0.5" style="fill:rgb(8,117,183);font-family:URWPalladioL-Roma;font-size:9.96px;stroke:none;">29</text>
   <text y="275.642" x="338.721,342.105,344.595,352.948,360.935,367.062,371.046,375.304,379.135,384.002,388.311,394.438,397.396,400.708,404.8912,409.244,413.553,419.68,425.33,430.98,435.848,440.157,443.4438,447.697,451.009,456.924,462.005,465.2918,469.545,475.754,481.881,485.895,488.852,494.766,500.34360000000004,504.644,507.957,513.871" svgx:width="0.33,0.25,0.55,0.79,0.6,0.4,0.55,0.4,0.48,0.42,0.6,0.29,0.33,0.42,0.55,0.42,0.6,0.56,0.56,0.48,0.42,0.33,0.55,0.33,0.58,0.5,0.33,0.55,0.61,0.6,0.4,0.29,0.58,0.56,0.55,0.33,0.58,0.48" style="fill:rgb(0,0,0);font-family:URWPalladioL-Roma;font-size:9.96px;stroke:none;">]. Our results suggest that during the</text>
   <text y="289.152" x="76.535,79.919,85.467,89.481,98.454,103.535,106.848,109.805,115.353,121.12979999999999,125.281,130.83,134.1168,138.228,143.776,147.607,153.816,158.683,162.525,167.392,173.4676,177.615,183.722,189.636,194.717,199.026,203.894,208.202,210.692,215.133,218.445,224.359,229.227,233.536,238.3168,242.417,251.39,256.938,259.895,264.763,269.275,275.402,278.36,283.227,287.4102,291.55,297.657,301.488,306.355,309.739,314.607,318.591,322.635,325.947,331.425,335.51,341.129,347.257,350.214,353.171,359.2466,363.394,368.475,376.1442,380.354,384.866,390.414,393.371,399.499,408.472,414.386,418.5692,422.709,431.184,434.141,437.453,443.22979999999995,447.382,450.694,456.609,461.3898,465.49,470.358,476.048,482.176,485.133,488.09,491.047,496.667,500.68,503.638,509.765" svgx:width="0.33,0.55,0.4,0.88,0.5,0.33,0.29,0.55,0.58,0.55,0.55,0.33,0.55,0.55,0.4,0.61,0.48,0.4,0.48,0.61,0.55,0.6,0.58,0.5,0.42,0.48,0.42,0.25,0.55,0.33,0.58,0.48,0.42,0.48,0.55,0.88,0.55,0.29,0.48,0.44,0.6,0.29,0.48,0.42,0.55,0.6,0.4,0.48,0.33,0.48,0.4,0.55,0.33,0.55,0.55,0.55,0.6,0.29,0.29,0.61,0.55,0.5,0.77,0.55,0.44,0.55,0.29,0.6,0.88,0.58,0.42,0.55,0.83,0.29,0.33,0.58,0.55,0.33,0.58,0.48,0.55,0.48,0.56,0.6,0.29,0.29,0.29,0.55,0.4,0.29,0.6,0.88" style="fill:rgb(0,0,0);font-family:URWPalladioL-Roma;font-size:9.96px;stroke:none;">formation of ordered phases, these molecules prefer to build 1D columns with the equilibrium</text>
   <text y="302.661" x="76.535,82.744,85.701,90.01,93.322,98.403,104.318,108.829,113.60979999999999,117.487,123.097,127.964,131.277,139.752,144.619,149.487,155.2638,159.192,162.504,168.418,173.1988,177.066,181.375,184.688,189.769,193.75300000000001,197.573,202.085,207.633,211.464,216.332,220.5152,224.431,229.979,233.2658,237.143,242.224,244.764" svgx:width="0.61,0.29,0.42,0.33,0.5,0.58,0.44,0.48,0.55,0.55,0.48,0.33,0.83,0.48,0.48,0.58,0.55,0.33,0.58,0.48,0.55,0.42,0.33,0.5,0.4,0.55,0.44,0.55,0.4,0.48,0.42,0.55,0.55,0.33,0.55,0.5,0.25,0.5" style="fill:rgb(0,0,0);font-family:URWPalladioL-Roma;font-size:9.96px;stroke:none;">distance between the star cores of 3.6</text>
   <text y="300.315" x="257.29" svgx:width="0.33" style="fill:rgb(0,0,0);font-family:URWPalladioL-Roma;font-size:9.96px;stroke:none;">˚</text>
   <text y="302.661" x="254.257" svgx:width="0.72" style="fill:rgb(0,0,0);font-family:URWPalladioL-Ital;font-size:9.96px;stroke:none;">A</text>
   <text y="302.661" x="261.574,264.064,268.22,271.177,276.9538,280.882,289.356,295.271,298.228,302.74,308.5168,312.434,316.743,320.055,325.136,329.15,333.3332,337.249,342.33,346.161,350.9418,354.819,360.733,365.601,368.558,374.6336,378.547,381.86,387.408,393.058,397.926,401.238,407.153,412.02,416.00399999999996,419.824,425.566,428.523,433.50300000000004,437.384,445.859,450.727,455.808,461.3856,465.248,468.205,474.119,477.432,482.299,486.313,491.394,495.906,499.219,502.176,507.724,513.639,517.947" svgx:width="0.25,0.55,0.29,0.58,0.55,0.83,0.58,0.29,0.44,0.58,0.55,0.42,0.33,0.5,0.4,0.42,0.55,0.5,0.4,0.48,0.55,0.58,0.48,0.29,0.61,0.55,0.33,0.55,0.56,0.48,0.33,0.58,0.48,0.4,0.55,0.56,0.29,0.5,0.55,0.83,0.48,0.5,0.56,0.55,0.29,0.58,0.33,0.48,0.4,0.5,0.44,0.33,0.29,0.55,0.58,0.42,0.25" style="fill:rgb(0,0,0);font-family:URWPalladioL-Roma;font-size:9.96px;stroke:none;">, in which stars are held together via weak interactions.</text>
   <text y="316.171" x="76.226,82.37,88.203,93.003,97.253,102.0338,104.549,110.382,115.854,121.688,126.137,131.61,137.272,142.283,145.2,150.001,155.834,159.1208,161.597,164.513,170.346,173.613,178.414,182.373,187.384,191.834,195.101,198.018,203.49,209.323,213.5062,216.068,218.985,224.818,229.268,232.184,238.228,244.351,249.1318,251.648,256.659,265.509,270.981,276.814,282.39160000000004,284.892,290.364,293.631,299.464,304.265,308.224,312.4072,314.969,318.236,324.069,328.8498,331.366,337.199,342.771,348.895,352.673,358.145,363.718,368.519,374.2958,376.847,382.389,387.862,393.695,399.818,402.735,408.568,414.14,416.63,419.141,427.5,433.333,438.805,443.055,447.8358,450.361,453.278,458.078,463.911,469.484,472.741,478.51779999999997,481.08,485.329,491.162,496.634,500.593,503.861,508.661,514.494" svgx:width="0.61,0.58,0.48,0.42,0.48,0.55,0.58,0.55,0.58,0.44,0.55,0.56,0.5,0.29,0.48,0.58,0.33,0.55,0.29,0.58,0.33,0.48,0.4,0.5,0.44,0.33,0.29,0.55,0.58,0.42,0.55,0.29,0.58,0.44,0.29,0.6,0.61,0.48,0.55,0.5,0.88,0.55,0.58,0.56,0.55,0.55,0.33,0.58,0.48,0.4,0.42,0.55,0.33,0.58,0.48,0.55,0.58,0.56,0.61,0.4,0.55,0.56,0.48,0.58,0.55,0.55,0.55,0.58,0.61,0.29,0.58,0.56,0.25,0.55,0.83,0.58,0.55,0.42,0.48,0.55,0.29,0.48,0.58,0.56,0.33,0.58,0.55,0.42,0.58,0.55,0.4,0.33,0.48,0.58,0.42" style="fill:rgb(0,0,0);font-family:URWPalladioL-Roma;font-size:9.96px;stroke:none;">These noncovalent interactions include among others the hydrogen bonding, whose length shortens</text>
   <text y="329.68" x="76.117,84.426,87.325,90.573,96.34979999999999,98.862,101.761,107.559,111.982,115.738,120.51,125.492,129.716,132.615,138.413,143.9906,146.443,149.691,155.489,160.2698,162.752,167.175,172.615,175.514,181.521,190.318,196.09480000000002,198.607,201.506,206.278,212.077,217.616,220.864,226.662" svgx:width="0.83,0.29,0.33,0.58,0.55,0.29,0.58,0.44,0.4,0.48,0.5,0.42,0.29,0.58,0.56,0.55,0.33,0.58,0.48,0.55,0.44,0.55,0.29,0.6,0.88,0.58,0.55,0.29,0.48,0.58,0.56,0.33,0.58,0.25" style="fill:rgb(0,0,0);font-family:URWPalladioL-Roma;font-size:9.96px;stroke:none;">with increasing the column length.</text>
   <text y="343.189" x="97.795,104.024,109.938,114.7188,117.387,123.007,125.964,131.878,138.087,141.044,146.958,152.5356,155.189,160.057,165.971,170.838,174.669,180.319,184.872,187.36200000000002,190.014,198.489,204.403,207.36,211.872,217.64880000000002,220.367,225.448,229.96,234.472,240.02,246.148,252.062,255.375,259.5582,262.265,265.649,271.197,275.181,277.792,282.873,285.83,288.7184,291.368,294.681,300.595,305.3758,308.044,313.958,319.506,325.421,329.932,335.481,341.222,346.303,349.26,354.128,360.042,363.3288,365.936,369.249,375.163,378.994,384.542,390.67,396.32,402.234,405.618,409.926,416.034,421.115,425.627,430.4078,433.075,436.032,441.946,445.259,450.127,454.141,459.222,463.733,467.046,470.003,475.552,481.466,485.775,488.265,490.927,496.577,500.408,505.956,514.431" svgx:width="0.61,0.58,0.48,0.55,0.55,0.29,0.58,0.61,0.29,0.58,0.56,0.55,0.48,0.58,0.48,0.4,0.56,0.56,0.25,0.55,0.83,0.58,0.29,0.44,0.58,0.55,0.5,0.44,0.44,0.55,0.6,0.58,0.33,0.42,0.55,0.33,0.55,0.4,0.55,0.5,0.29,0.29,0.55,0.33,0.58,0.48,0.55,0.58,0.55,0.58,0.44,0.55,0.56,0.5,0.29,0.48,0.58,0.33,0.55,0.33,0.58,0.4,0.55,0.6,0.56,0.58,0.33,0.42,0.6,0.5,0.44,0.48,0.55,0.29,0.58,0.33,0.48,0.4,0.5,0.44,0.33,0.29,0.55,0.58,0.42,0.25,0.55,0.56,0.4,0.55,0.83,0.42" style="fill:rgb(0,0,0);font-family:URWPalladioL-Roma;font-size:9.96px;stroke:none;">The binding energy, which accounts for all the noncovalent through-space interactions, grows</text>
   <text y="356.699" x="76.117,84.592,87.549,90.862,96.63879999999999,100.384,103.341,109.255,113.767,117.598,122.465,127.546,131.855,134.812,140.726,146.3036,149.973,154.282,157.239,162.32,167.1008,170.795,176.343,179.6298,183.335,186.647,192.562,197.3428,201.026,206.107,211.757,217.407,221.238,226.106,231.756,236.837,240.15,245.017,247.507,251.439,256.52,260.7032,264.436,269.985,276.112,280.096,283.724,288.236,293.316,296.274,300.785,306.913,309.87,314.951,318.264,321.221,326.769,332.683,336.8662,340.6,346.808,351.676,360.649,366.197,372.111,376.42,379.733,383.747,388.828,392.14,397.008,399.498,405.971,412.2,418.114,421.071,425.2542,428.987,435.095,441.009,445.876,451.79,457.339,466.312,471.179,477.093,482.642,488.4188,492.153,496.665,501.746,504.703,507.66,512.528" svgx:width="0.83,0.29,0.33,0.58,0.55,0.29,0.58,0.44,0.4,0.48,0.5,0.42,0.29,0.58,0.56,0.55,0.42,0.29,0.5,0.48,0.55,0.55,0.33,0.55,0.33,0.58,0.48,0.55,0.5,0.56,0.56,0.4,0.48,0.56,0.5,0.33,0.48,0.25,0.55,0.5,0.42,0.55,0.55,0.6,0.4,0.55,0.44,0.5,0.29,0.44,0.6,0.29,0.5,0.33,0.29,0.55,0.58,0.42,0.55,0.61,0.48,0.88,0.55,0.58,0.42,0.33,0.4,0.5,0.33,0.48,0.25,0.55,0.61,0.58,0.29,0.42,0.55,0.6,0.58,0.48,0.58,0.55,0.88,0.48,0.58,0.55,0.58,0.55,0.44,0.5,0.29,0.29,0.48,0.61" style="fill:rgb(0,0,0);font-family:URWPalladioL-Roma;font-size:9.96px;stroke:none;">with increasing size of the aggregate, as our calculations demonstrate. This phenomenon called</text>
   <text y="370.208" x="76.535,81.047,86.595,92.144,98.251,103.118,107.132,112.213,115.526,118.483,124.225,129.0058,132.009,136.317,141.185,144.142,147.526,150.91,155.991,160.299,164.608,169.475,178.448,184.068,187.025,192.6026,195.591,198.548,202.7312,205.784,211.891,215.722,221.27,227.012,231.879,237.6558,240.71,244.094,249.642,253.626,256.573,261.653,266.734,272.283,277.364,283.573,289.07,296.8388,299.893,304.201,307.514,312.595,316.609,320.7922,323.834,326.791,332.5678,335.622,340.702,346.393,352.521,357.388,362.937,369.064,373.2472,376.299,382.407,388.321,393.402,397.71,402.578,406.887,409.377,413.797,420.026,425.94,430.7208,433.724,438.033,440.99,449.963,456.09,459.047,464.128,467.441,470.398,475.947,481.861,486.0442,489.086,493.598,496.555,501.422,506.503,510.517,513.474" svgx:width="0.44,0.55,0.55,0.6,0.48,0.4,0.5,0.33,0.29,0.56,0.48,0.55,0.42,0.48,0.29,0.33,0.33,0.5,0.42,0.42,0.48,0.88,0.55,0.29,0.56,0.55,0.29,0.42,0.55,0.6,0.4,0.55,0.56,0.48,0.58,0.55,0.33,0.55,0.4,0.55,0.5,0.5,0.55,0.5,0.61,0.61,0.78,0.55,0.42,0.33,0.5,0.4,0.42,0.55,0.29,0.58,0.55,0.5,0.56,0.6,0.48,0.55,0.6,0.42,0.55,0.6,0.58,0.5,0.42,0.48,0.42,0.25,0.55,0.61,0.58,0.48,0.55,0.42,0.29,0.88,0.6,0.29,0.5,0.33,0.29,0.55,0.58,0.42,0.55,0.44,0.29,0.48,0.5,0.4,0.29,0.56" style="fill:rgb(0,0,0);font-family:URWPalladioL-Roma;font-size:9.96px;stroke:none;">cooperative self-assembly is proven for azo–BTA stars in aqueous phases. The simulations clearly</text>
   <text y="383.718" x="76.535,81.536,84.797,88.058,92.009,94.92,100.451,106.482,109.743,114.5238,117.035,120.296,126.117,130.89780000000002,133.419,137.86,143.321,148.783,154.794,159.585,163.526,168.538,171.788,174.699,180.35,183.261,186.522,192.09959999999998,194.594,200.055,203.3418,205.887,209.147,214.969,219.7498,222.261,226.502,231.293,234.204,237.534,240.865,245.866,250.107,254.348,259.14,267.972,273.503,276.414,281.9916,284.486,287.747,293.225,295.709,298.969,304.791,309.5718,312.083,318.194,322.985,328.637,333.428,336.339,341.8,347.811,356.644,361.435,367.256,370.5428,373.018,378.479,381.7658,384.32,389.3,391.822,400.654,405.655,410.097,413.867,419.329,425.44,428.351,434.363,439.824,442.735,447.526,450.016,452.537,455.448,461.22479999999996,463.77,469.231,472.492,478.313,483.104,487.08799999999997,489.556,497.898,503.359,507.13,513.242,517.483" svgx:width="0.5,0.33,0.33,0.4,0.29,0.55,0.6,0.33,0.48,0.55,0.33,0.58,0.48,0.55,0.44,0.55,0.55,0.6,0.48,0.4,0.5,0.33,0.29,0.56,0.29,0.33,0.56,0.55,0.55,0.33,0.55,0.33,0.58,0.48,0.55,0.42,0.48,0.29,0.33,0.33,0.5,0.42,0.42,0.48,0.88,0.55,0.29,0.56,0.55,0.33,0.55,0.55,0.33,0.58,0.48,0.55,0.61,0.48,0.56,0.48,0.29,0.55,0.6,0.88,0.48,0.58,0.33,0.55,0.55,0.33,0.55,0.5,0.55,0.88,0.5,0.44,0.4,0.55,0.61,0.29,0.6,0.55,0.29,0.48,0.25,0.55,0.29,0.58,0.55,0.55,0.33,0.58,0.48,0.4,0.55,0.83,0.55,0.4,0.61,0.42,0.25" style="fill:rgb(0,0,0);font-family:URWPalladioL-Roma;font-size:9.96px;stroke:none;">attribute the cooperativity of the self-assembly to the development of a macrodipole, in other words,</text>
   <text y="397.227" x="76.535,79.848,85.326,88.252,91.564,97.479,102.2598,105.212,109.043,113.91,120.119,123.076,127.385,130.698,134.712,137.669,143.288,149.416,152.729,155.686,161.234,167.01080000000002,170.014,175.562,178.8488,181.802,185.114,191.029,195.8098,198.752,203.619,206.576,211.444,215.956,219.268,223.11,228.658,234.572,237.529,241.9114,244.897,251.105,255.973,261.887,266.196,269.153,272.466,277.008,279.498,283.745,289.975,295.889,298.846,303.154,305.644,308.652,311.609,317.38579999999996,320.379,323.691,329.819,333.833,339.747,342.237,345.235,350.102,356.016,361.93,367.011,372.926,377.437,382.305,386.4882,389.479,392.792,398.706,403.4868,406.429,410.738,414.051,417.892,422.759,428.673,434.323,437.636,443.4128,446.406,451.954,455.24080000000004,458.194,461.506,467.421,472.2018,475.154,481.068,486.718,492.927,496.758,502.306,507.956,512.824" svgx:width="0.33,0.55,0.55,0.33,0.58,0.48,0.55,0.4,0.48,0.61,0.29,0.42,0.33,0.4,0.29,0.55,0.6,0.33,0.29,0.55,0.58,0.55,0.55,0.33,0.55,0.33,0.58,0.48,0.55,0.48,0.29,0.48,0.44,0.33,0.4,0.55,0.58,0.29,0.44,0.55,0.61,0.48,0.58,0.42,0.29,0.33,0.56,0.25,0.55,0.61,0.58,0.29,0.42,0.25,0.55,0.29,0.58,0.55,0.33,0.6,0.4,0.58,0.25,0.55,0.48,0.58,0.58,0.5,0.58,0.44,0.48,0.42,0.55,0.33,0.58,0.48,0.55,0.42,0.33,0.4,0.48,0.58,0.56,0.33,0.58,0.55,0.55,0.33,0.55,0.33,0.58,0.48,0.55,0.58,0.56,0.61,0.4,0.55,0.56,0.48,0.58" style="fill:rgb(0,0,0);font-family:URWPalladioL-Roma;font-size:9.96px;stroke:none;">to the redistribution of the electronic density. This, in turn, enhances the strength of the hydrogen</text>
   <text y="410.736" x="76.535,81.94,87.276,92.964,98.935,103.079,105.56899999999999,108.005,112.892,118.58,124.65559999999999,127.034,131.178,137.071,142.476,146.619,151.301,156.774,162.667,167.349,173.037,176.223,179.067,184.6446,186.983,190.169,195.857,200.6378,203.021,205.865,211.553,214.739,219.421,223.281,231.911,237.247,240.091,244.773,249.112,255.005,257.849,262.736,266.71999999999997,269.079,273.418,278.755,284.648,290.522,293.366,296.21,301.898,307.332,309.822,312.863,321.718,326.4988,328.882,334.795,340.483,346.5586,348.937,352.123,357.811,362.698,365.9848,368.366,371.552,377.24,382.0208,384.404,390.278,393.962,398.644,404.615,407.459,411.799,414.985,417.829,423.165,428.853,433.0362,435.479,440.816,444.1028,446.553,451.957,454.801,460.489,466.461,469.305,474.993,480.5706,482.909,487.591,493.279,497.96,501.635,507.069,509.913,514.594" svgx:width="0.55,0.55,0.58,0.61,0.42,0.25,0.55,0.5,0.58,0.61,0.55,0.42,0.6,0.55,0.42,0.48,0.56,0.6,0.48,0.58,0.33,0.29,0.56,0.55,0.33,0.58,0.48,0.55,0.29,0.58,0.33,0.48,0.4,0.88,0.55,0.29,0.48,0.44,0.6,0.29,0.5,0.4,0.55,0.44,0.55,0.6,0.6,0.29,0.29,0.58,0.56,0.25,0.55,1.0,0.48,0.55,0.61,0.58,0.61,0.55,0.33,0.58,0.5,0.33,0.55,0.33,0.58,0.48,0.55,0.6,0.4,0.48,0.61,0.29,0.44,0.33,0.29,0.55,0.58,0.42,0.55,0.55,0.33,0.55,0.55,0.29,0.58,0.61,0.29,0.58,0.56,0.55,0.48,0.58,0.48,0.4,0.56,0.29,0.48,0.42" style="fill:rgb(0,0,0);font-family:URWPalladioL-Roma;font-size:9.96px;stroke:none;">bonds, and subsequently the intermolecular coupling. We ﬁnd that the predictions of binding energies</text>
   <text y="424.246" x="76.535,81.427,87.121,93.19659999999999,95.603,98.792,104.486,109.2668,111.667,120.305,125.647,128.494,133.18,137.524,143.423,146.27,151.162,155.14600000000002,157.531,161.874,167.216,172.558,176.246,182.224,185.071,190.765,195.656,198.836,203.522,207.7052,210.175,213.021,218.7978,221.22,224.409,230.103,234.8838,237.284,241.432,244.621,249.513,253.857,259.296,263.4792,265.949,270.293,275.634,278.481,284.175,288.519,291.366,297.343,302.1238,304.534,312.693,315.54,318.73,324.5068,326.918,332.896,337.788,340.977,345.957,348.373,351.631,356.973,360.957,363.332,366.521,372.215,376.9958,379.406,385.285,390.979,396.321,399.51,404.852,409.0,413.686,419.38,423.528,426.375,429.564,432.411,437.939,442.7198,445.13,450.021,454.913,460.255,465.665,470.351,476.045,480.936,485.623,491.317,496.0978,498.497,502.646,505.835,510.727,514.591" svgx:width="0.5,0.58,0.61,0.55,0.33,0.58,0.48,0.55,0.88,0.55,0.29,0.48,0.44,0.6,0.29,0.5,0.4,0.55,0.44,0.55,0.55,0.4,0.61,0.29,0.58,0.5,0.33,0.48,0.42,0.55,0.29,0.58,0.55,0.33,0.58,0.48,0.55,0.42,0.33,0.5,0.44,0.56,0.42,0.55,0.44,0.55,0.29,0.58,0.44,0.29,0.61,0.48,0.55,0.83,0.29,0.33,0.58,0.55,0.61,0.5,0.33,0.5,0.55,0.33,0.55,0.4,0.55,0.33,0.58,0.48,0.55,0.6,0.58,0.55,0.33,0.55,0.42,0.48,0.58,0.42,0.29,0.33,0.29,0.56,0.48,0.55,0.5,0.5,0.55,0.55,0.48,0.58,0.5,0.48,0.58,0.48,0.55,0.42,0.33,0.5,0.4,0.42" style="fill:rgb(0,0,0);font-family:URWPalladioL-Roma;font-size:9.96px;stroke:none;">and the molecular coordinates in the stacks coincide with data for the photosensitive azobenzene stars</text>
   <text y="437.755" x="76.535,79.434,85.232,90.861,95.633,99.857,103.105,106.004,111.544,116.525,119.773,124.545,130.6206,133.123,136.022,141.7988,144.311,148.535,153.307,162.104,165.003,170.801,175.782,178.6704,181.172,189.481,194.921,198.856,204.395,208.5782,211.11,216.619,222.1966,224.649,230.736,235.508,240.2888,242.771,247.543,250.8298,253.281,258.263,261.162,263.652,266.741" svgx:width="0.29,0.58,0.56,0.48,0.42,0.33,0.29,0.56,0.5,0.33,0.48,0.61,0.55,0.29,0.58,0.55,0.42,0.48,0.88,0.29,0.58,0.5,0.29,0.55,0.83,0.55,0.4,0.56,0.42,0.55,0.55,0.56,0.55,0.61,0.48,0.48,0.55,0.48,0.33,0.55,0.5,0.29,0.25,0.55,0.33" style="fill:rgb(0,0,0);font-family:URWPalladioL-Roma;font-size:9.96px;stroke:none;">investigated in seminal works by Lee et al. [</text>
   <text y="437.755" x="270.058,275.04" svgx:width="0.5,0.5" style="fill:rgb(8,117,183);font-family:URWPalladioL-Roma;font-size:9.96px;stroke:none;">17</text>
   <text y="437.755" x="280.021" svgx:width="0.25" style="fill:rgb(0,0,0);font-family:URWPalladioL-Roma;font-size:9.96px;stroke:none;">,</text>
   <text y="437.755" x="282.512,287.493" svgx:width="0.5,0.5" style="fill:rgb(8,117,183);font-family:URWPalladioL-Roma;font-size:9.96px;stroke:none;">18</text>
   <text y="437.755" x="292.474" svgx:width="0.25" style="fill:rgb(0,0,0);font-family:URWPalladioL-Roma;font-size:9.96px;stroke:none;">,</text>
   <text y="437.755" x="294.965,299.946" svgx:width="0.5,0.5" style="fill:rgb(8,117,183);font-family:URWPalladioL-Roma;font-size:9.96px;stroke:none;">47</text>
   <text y="437.755" x="304.928,308.245" svgx:width="0.33,0.25" style="fill:rgb(0,0,0);font-family:URWPalladioL-Roma;font-size:9.96px;stroke:none;">].</text>
   <text y="451.264" x="97.795,104.024,109.938,114.7188,118.576,124.49,129.358,134.601,137.8878,141.694,146.003,149.316,154.183,160.29,164.4732,168.369,173.917,177.2038,181.082,184.394,190.308,193.266,197.4492,201.344,209.819,215.368,219.382,224.9596,228.812,233.324,238.872,245.0,247.957,254.0326,257.936,260.893,266.807,271.319,274.276,280.403,286.612,291.48,293.97,298.116,301.499,307.048,311.032,314.842,317.799,323.713,328.022,331.335,336.416,342.33,346.842,351.709,354.199,358.345,361.658,367.572,372.3528,376.209,380.721,385.802,388.759,393.271,399.399,402.356,407.437,410.75,413.707,419.255,425.0318,428.939,434.488,437.7748,441.652,444.965,450.879,455.6598,459.516,464.028,469.577,475.125,481.232,486.1,490.114,495.195,498.507,501.464,507.206,510.163,513.476" svgx:width="0.61,0.58,0.48,0.55,0.58,0.48,0.52,0.33,0.55,0.42,0.33,0.48,0.6,0.42,0.55,0.55,0.33,0.55,0.33,0.58,0.29,0.42,0.55,0.83,0.55,0.4,0.56,0.55,0.44,0.55,0.6,0.29,0.61,0.55,0.29,0.58,0.44,0.29,0.6,0.61,0.48,0.25,0.55,0.33,0.55,0.4,0.55,0.29,0.58,0.42,0.33,0.5,0.58,0.44,0.48,0.25,0.55,0.33,0.58,0.48,0.55,0.44,0.5,0.29,0.44,0.6,0.29,0.5,0.33,0.29,0.55,0.58,0.55,0.55,0.33,0.55,0.33,0.58,0.48,0.55,0.44,0.55,0.55,0.6,0.48,0.4,0.5,0.33,0.29,0.56,0.29,0.33,0.56" style="fill:rgb(0,0,0);font-family:URWPalladioL-Roma;font-size:9.96px;stroke:none;">The next steps of this work could include, for instance, the calculation of the cooperativity</text>
   <text y="464.774" x="76.535,79.869,84.875,89.321,92.585,98.052" svgx:width="0.33,0.5,0.44,0.33,0.55,0.4" style="fill:rgb(0,0,0);font-family:URWPalladioL-Roma;font-size:9.96px;stroke:none;">factor</text>
   <text y="464.774" x="104.616" svgx:width="0.56" style="fill:rgb(0,0,0);font-family:PazoMath-Italic;font-size:9.96px;stroke:none;">σ</text>
   <text y="464.774" x="112.89" svgx:width="0.33" style="fill:rgb(0,0,0);font-family:URWPalladioL-Roma;font-size:9.96px;stroke:none;">[</text>
   <text y="464.774" x="116.208,121.189" svgx:width="0.5,0.5" style="fill:rgb(8,117,183);font-family:URWPalladioL-Roma;font-size:9.96px;stroke:none;">45</text>
   <text y="464.774" x="126.17,129.45680000000002,131.973,134.887,140.6638,143.197,148.664,152.438,158.556,163.352,167.336,169.79,173.054,178.532,181.014,187.031,189.945,194.951,199.397,204.1778,206.676,209.94,215.767,220.5478,223.046,231.887,237.354,243.471,248.267,251.181,254.094,258.89,264.9656,267.491,272.497,277.503,282.97,288.507,293.303,299.13,304.136,308.932,314.76,319.5408,322.039,326.284,329.548,334.554,338.53799999999995,340.992,346.459,352.2358,354.779,358.043,363.87,368.6508,371.15,375.595,381.062,386.529,392.546,397.342,401.297,406.303,409.567,412.481,418.138,421.051,424.315,429.8926,432.365,436.611,441.056,446.062,448.976,453.7568,456.255,459.589,465.056,469.03999999999996,471.494,477.611,483.018,490.808,494.142,498.587,504.054,507.829,512.625" svgx:width="0.33,0.55,0.29,0.58,0.55,0.55,0.4,0.61,0.48,0.4,0.55,0.33,0.55,0.55,0.6,0.29,0.5,0.44,0.48,0.55,0.33,0.58,0.48,0.55,0.88,0.55,0.61,0.48,0.29,0.29,0.48,0.61,0.55,0.5,0.5,0.55,0.55,0.48,0.58,0.5,0.48,0.58,0.48,0.55,0.42,0.33,0.5,0.4,0.55,0.55,0.58,0.55,0.33,0.58,0.48,0.55,0.44,0.55,0.55,0.6,0.48,0.4,0.5,0.33,0.29,0.56,0.29,0.33,0.56,0.55,0.42,0.44,0.5,0.29,0.48,0.55,0.33,0.55,0.4,0.55,0.61,0.61,0.78,0.33,0.44,0.55,0.4,0.48,0.61" style="fill:rgb(0,0,0);font-family:URWPalladioL-Roma;font-size:9.96px;stroke:none;">] in order to place the modelled azobenzene star on the cooperativity scale for BTA-cored</text>
   <text y="478.283" x="76.535,82.5,87.177,91.034,93.875,99.391,104.273,107.456,110.297,115.813,120.49,124.629,127.119,129.989,137.585,143.267,148.598,151.781,157.463,162.14,166.124,167.979,170.82,176.502,179.685,184.361,188.032,192.709,196.849,200.032,202.873,208.555,214.1326,215.965,219.148,224.479,230.347,233.188,237.57039999999998,239.505,242.346,246.5292,248.458,252.139,256.815,259.656,264.538,267.721,272.398,278.47360000000003,280.345,283.528,289.00600000000003,290.831,294.014,299.696,304.4768,306.354,310.035,314.712,319.047,323.723,329.406,332.589,335.43,341.0076,342.83,348.698,354.585,359.985,362.826,365.667,369.806,375.489,380.165,386.24060000000003,388.113,393.98,398.862,404.73,409.407,413.39099999999996,415.245,420.644,426.2216,428.051,434.138,439.578,444.001,449.799,452.698,457.122,461.545,467.344,470.243,475.721,478.173,482.945,486.2318,488.683,493.665,496.564,499.05400000000003,502.143" svgx:width="0.61,0.48,0.4,0.29,0.56,0.5,0.33,0.29,0.56,0.48,0.42,0.25,0.55,0.78,0.58,0.55,0.33,0.58,0.48,0.4,0.55,0.29,0.58,0.33,0.48,0.4,0.48,0.42,0.33,0.29,0.58,0.56,0.55,0.33,0.55,0.6,0.29,0.44,0.55,0.29,0.42,0.55,0.4,0.48,0.29,0.5,0.33,0.48,0.61,0.55,0.33,0.55,0.55,0.33,0.58,0.48,0.55,0.4,0.48,0.44,0.48,0.58,0.33,0.29,0.56,0.55,0.6,0.6,0.55,0.29,0.29,0.42,0.58,0.48,0.61,0.55,0.6,0.5,0.6,0.48,0.4,0.55,0.55,0.56,0.55,0.61,0.55,0.44,0.58,0.29,0.44,0.44,0.58,0.29,0.55,0.55,0.48,0.33,0.55,0.5,0.29,0.25,0.55,0.33" style="fill:rgb(0,0,0);font-family:URWPalladioL-Roma;font-size:9.96px;stroke:none;">derivatives. Another interesting topic is related to the recently published paper by Bochicchio et al. [</text>
   <text y="478.283" x="505.46,510.442" svgx:width="0.5,0.5" style="fill:rgb(8,117,183);font-family:URWPalladioL-Roma;font-size:9.96px;stroke:none;">68</text>
   <text y="478.283" x="515.423" svgx:width="0.33" style="fill:rgb(0,0,0);font-family:URWPalladioL-Roma;font-size:9.96px;stroke:none;">]</text>
   <text y="491.793" x="76.535,81.866,87.6428,89.911,93.094,98.776,103.5568,105.815,108.647,111.488,116.916,122.598,125.781,129.033,131.874,137.556,143.521,149.409,153.744,158.42,164.4956,166.748,171.425,176.941,182.272,185.113,191.001,194.183,197.025,202.355,208.1318,210.4,215.731,219.0178,221.345,226.227,232.0038,234.262,239.144,244.025,249.356,254.755,259.432,265.114,269.996,274.672,280.355,285.031,288.283,292.617,297.948,303.631,306.813,311.695,314.536,320.218,323.06,328.742,334.31960000000004,336.533,340.673,346.56,352.428,356.284,361.166,369.787,375.118,377.959,382.636,386.97,392.858,395.699,400.581,404.565,406.8,409.983,415.87,421.269,427.156,429.998,434.7788,437.027,439.868,445.6448,447.913,453.43,456.271,460.947,471.453,476.784,480.0708,482.397,487.728,493.616,497.59999999999997,499.825,505.79,510.672,513.855" svgx:width="0.55,0.58,0.55,0.33,0.58,0.48,0.55,0.29,0.29,0.56,0.58,0.33,0.33,0.29,0.58,0.61,0.6,0.44,0.48,0.61,0.55,0.48,0.56,0.55,0.29,0.6,0.33,0.29,0.55,0.58,0.55,0.55,0.33,0.55,0.5,0.58,0.55,0.5,0.5,0.55,0.55,0.48,0.58,0.5,0.48,0.58,0.48,0.33,0.44,0.55,0.58,0.33,0.5,0.29,0.58,0.29,0.58,0.56,0.55,0.42,0.6,0.6,0.4,0.5,0.88,0.55,0.29,0.48,0.44,0.6,0.29,0.5,0.4,0.55,0.33,0.6,0.55,0.6,0.29,0.48,0.55,0.29,0.58,0.55,0.56,0.29,0.48,0.83,0.55,0.33,0.55,0.55,0.6,0.4,0.55,0.61,0.5,0.33,0.5" style="fill:rgb(0,0,0);font-family:URWPalladioL-Roma;font-size:9.96px;stroke:none;">on the light-induced evolution of an azobenzene-containing supramolecular tubule in viewof our data</text>
   <text y="505.302" x="76.535,80.675,86.357,91.688,99.83,104.507,110.5826,112.708,115.549,121.3258,123.467,128.896,131.737,137.165,143.053,146.733" svgx:width="0.42,0.58,0.55,0.83,0.48,0.61,0.55,0.29,0.58,0.55,0.56,0.29,0.56,0.6,0.4,0.48" style="fill:rgb(0,0,0);font-family:URWPalladioL-Roma;font-size:9.96px;stroke:none;">showed in Figure</text>
   <text y="505.302" x="153.646" svgx:width="0.5" style="fill:rgb(8,117,183);font-family:URWPalladioL-Roma;font-size:9.96px;stroke:none;">6</text>
   <text y="505.302" x="158.528,161.018,163.253,171.396,177.078,181.755,185.435,190.2158,192.348,195.531,201.213,205.9938,208.125,214.091,218.767,222.019,226.695,231.03,234.213,238.3962,240.598,245.48,249.151,253.9318,256.063,260.398,266.081,270.962,274.819,279.701,284.035,287.218,291.895,295.752,298.593,303.474,308.151,314.2266,316.362,321.829,327.717,332.598,338.281,341.454,344.295,347.478,352.359,355.542,358.383,363.9,368.576,371.417,376.9946,379.091,382.343,387.673,391.657,393.766,396.949,402.631,407.41179999999997,409.543,414.425,419.307,424.638,429.519,435.485,440.728,450.569,454.904,460.235,463.076,468.963,477.584,483.266,485.75600000000003,488.705,494.133,496.974,502.656,507.538,510.379,513.22,517.546" svgx:width="0.25,0.55,0.83,0.58,0.48,0.4,0.48,0.55,0.33,0.58,0.48,0.55,0.61,0.48,0.33,0.48,0.44,0.33,0.42,0.55,0.5,0.4,0.48,0.55,0.44,0.58,0.5,0.4,0.5,0.44,0.33,0.48,0.4,0.29,0.5,0.48,0.61,0.55,0.56,0.6,0.5,0.58,0.33,0.29,0.33,0.5,0.33,0.29,0.56,0.48,0.29,0.56,0.55,0.33,0.55,0.4,0.55,0.33,0.58,0.48,0.55,0.5,0.5,0.55,0.5,0.61,0.61,0.78,0.44,0.55,0.29,0.6,0.88,0.58,0.25,0.55,0.56,0.29,0.58,0.5,0.29,0.29,0.56,0.25" style="fill:rgb(0,0,0);font-family:URWPalladioL-Roma;font-size:9.96px;stroke:none;">, where the defects are characterized quantitatively for the azo–BTAcolumn. Finally,</text>
   <text y="518.811" x="76.535,82.368,87.169,90.947,95.7278,98.243,106.602,111.3828,113.888,118.338,123.811,129.644,133.893,136.81,142.933,147.734,151.522,156.323,162.39860000000002,164.932,168.2,174.033,178.8138,181.329,185.578,188.846,193.857,198.307,203.879,208.0622,210.614,216.087,219.3738,221.92,226.931,231.942,237.414,242.957,247.757,253.59,258.601,263.402,269.235,274.036,278.2192,280.781,283.697,289.4738,292.016,295.283,301.116,305.8968,308.413,314.536,319.547,323.506,329.079,331.569,334.08,336.996,339.502,344.303,346.808,349.298,351.799,355.067,360.9,365.6808,368.196,372.446,375.713,380.724,384.683,388.8662,391.428,394.344,400.1208,402.663,407.674,410.591,413.507,416.845,420.112,424.071,429.082,434.915,439.0982,441.66,445.91,449.177,454.188,457.455,462.256,464.746,467.859,471.236,474.5228,476.989,485.348,490.82,496.863,499.78,505.8556,508.399,513.941" svgx:width="0.58,0.48,0.4,0.48,0.55,0.83,0.48,0.55,0.44,0.55,0.58,0.42,0.29,0.61,0.48,0.4,0.48,0.61,0.55,0.33,0.58,0.48,0.55,0.42,0.33,0.5,0.44,0.56,0.42,0.55,0.55,0.33,0.55,0.5,0.5,0.55,0.55,0.48,0.58,0.5,0.48,0.58,0.48,0.42,0.55,0.29,0.58,0.55,0.33,0.58,0.48,0.55,0.61,0.5,0.4,0.56,0.25,0.55,0.29,0.25,0.48,0.25,0.25,0.55,0.33,0.58,0.48,0.55,0.42,0.33,0.5,0.4,0.42,0.55,0.29,0.58,0.55,0.5,0.29,0.29,0.33,0.33,0.4,0.5,0.58,0.42,0.55,0.42,0.33,0.5,0.33,0.48,0.25,0.55,0.34,0.33,0.55,0.83,0.55,0.6,0.29,0.61,0.55,0.55,0.48" style="fill:rgb(0,0,0);font-family:URWPalladioL-Roma;font-size:9.96px;stroke:none;">here we considered the stacks of azobenzenes in the dark, i.e., the stars in all-trans state. It would be</text>
   <text y="532.321" x="76.535,79.437,85.241,88.492,93.269,97.029,101.805,106.034,109.285,112.187,117.991,123.5686,126.019,129.27,134.74800000000002,137.198,141.975,144.877,150.89,155.318,158.22,164.314,169.3,172.551,177.3318,179.811,183.062,188.866,193.6468,196.126,201.641,206.418,212.222,217.208,222.842,225.744,231.189,235.173,237.612,243.057,246.3438,248.861,253.847,256.749,259.651,262.972,267.4,270.302,274.4852,277.013,282.0,286.986,292.431,297.417,303.51,308.886,316.6548,319.127,323.356,326.607,331.593,335.532,339.7152,342.244,347.23,353.034,359.1096,361.611,364.862,370.666,375.4468,377.926,382.702,388.506,393.283,397.043,402.588,407.365,410.616,413.518,417.945,422.1282,424.657,430.102,433.3888,435.906,439.157,444.961,449.738,452.64,456.62399999999997,459.062,463.291,468.068,470.97,474.29,477.611,482.598,486.826,491.054,495.831,504.637,510.152,513.054,517.492" svgx:width="0.29,0.58,0.33,0.48,0.4,0.48,0.42,0.33,0.29,0.58,0.56,0.55,0.33,0.55,0.55,0.48,0.29,0.6,0.44,0.29,0.61,0.5,0.33,0.48,0.55,0.33,0.58,0.48,0.55,0.55,0.48,0.58,0.5,0.56,0.29,0.55,0.4,0.55,0.55,0.33,0.55,0.5,0.29,0.29,0.33,0.44,0.29,0.42,0.55,0.5,0.5,0.55,0.5,0.61,0.61,0.78,0.55,0.42,0.33,0.5,0.4,0.42,0.55,0.5,0.58,0.61,0.55,0.33,0.58,0.48,0.55,0.48,0.58,0.48,0.4,0.56,0.48,0.33,0.29,0.44,0.42,0.55,0.55,0.33,0.55,0.33,0.58,0.48,0.29,0.4,0.55,0.42,0.48,0.29,0.33,0.33,0.5,0.42,0.42,0.48,0.88,0.55,0.29,0.56,0.25" style="fill:rgb(0,0,0);font-family:URWPalladioL-Roma;font-size:9.96px;stroke:none;">interesting to elucidate the behavior of all-cis azo–BTA stars and the energetics of their self-assembly,</text>
   <text y="545.83" x="76.535,80.713,83.58,89.314,93.689,98.409,100.899,103.365,108.291,112.4742,114.962,123.179,127.9598,130.392,134.569,140.304,145.683,153.901,158.62,164.6956,167.133,170.848,175.568,179.942,184.662,190.396,193.599,196.466,200.841,203.33100000000002,205.797,209.009,214.743,219.5238,221.956,226.133,229.345,234.272,238.647,244.125,248.3082,250.795,259.496,264.422,270.442,275.2228,277.655,283.103,288.6806,291.074,296.001,298.868,301.735,305.016,309.391,312.258,316.4412,318.929,323.855,328.782,334.162,339.61,344.33,350.064,354.991,359.71,365.445,370.2258,372.657,376.835,380.047,384.974,388.866,393.0492,395.536,404.236,409.163,412.03,417.764,420.976,425.903,428.77,434.54679999999996,436.988,440.2,445.934,450.654,453.521,457.505,459.906,464.28,467.148,473.089,477.267,480.479,485.198,489.09,493.2732,495.761,501.702,507.624,513.004" svgx:width="0.42,0.29,0.58,0.44,0.48,0.25,0.55,0.5,0.42,0.55,0.83,0.48,0.55,0.42,0.58,0.55,0.83,0.48,0.61,0.55,0.4,0.48,0.44,0.48,0.58,0.33,0.29,0.56,0.25,0.55,0.33,0.58,0.48,0.55,0.42,0.33,0.5,0.44,0.56,0.42,0.55,0.88,0.5,0.61,0.48,0.55,0.55,0.56,0.55,0.5,0.29,0.29,0.33,0.44,0.29,0.42,0.55,0.5,0.5,0.55,0.55,0.48,0.58,0.5,0.48,0.58,0.48,0.55,0.42,0.33,0.5,0.4,0.42,0.55,0.88,0.5,0.29,0.58,0.33,0.5,0.29,0.58,0.55,0.33,0.58,0.48,0.29,0.4,0.55,0.44,0.29,0.6,0.42,0.33,0.48,0.4,0.42,0.55,0.6,0.6,0.55,0.58" style="fill:rgb(0,0,0);font-family:URWPalladioL-Roma;font-size:9.96px;stroke:none;">since, as we showed recently, the stacks made by all-cis azobenzene stars maintain their clusters upon</text>
   <text y="559.34" x="76.535,79.434,82.333,87.872,93.671,96.9578,99.409,103.633,106.881,109.78,118.577,124.585,127.484,133.491,137.715,140.205,142.697,147.469,153.098,157.87,163.6468,166.159,169.406,175.205,180.644,186.652,192.191,197.9678,200.48,203.727,209.526,214.298,217.197,221.181,223.623,227.847,233.645,238.626,244.614,249.3948,251.877,254.776,258.9592,261.491,270.288,275.727,279.483,284.2638,286.746,292.833,295.732,299.956,305.396,309.152,315.239,320.011,323.767,328.539,334.626,337.116,339.607,344.589,348.7722,351.304,355.727,361.167,369.964,375.951,380.932,384.688,389.46,395.5356,398.038,401.286,406.764,409.216,412.464,418.262,423.0428,425.525,429.749,432.997,437.978,442.402,447.941,452.1242,454.656,457.555,463.3318,465.844,469.091,474.89,479.6708,482.152,488.24,493.221,497.156,502.695" svgx:width="0.29,0.29,0.56,0.58,0.33,0.55,0.42,0.33,0.29,0.88,0.6,0.29,0.6,0.42,0.25,0.55,0.48,0.56,0.48,0.58,0.55,0.33,0.58,0.55,0.6,0.56,0.58,0.55,0.33,0.58,0.48,0.29,0.4,0.55,0.42,0.58,0.5,0.6,0.48,0.55,0.29,0.42,0.55,0.88,0.55,0.4,0.48,0.55,0.61,0.29,0.42,0.55,0.4,0.61,0.48,0.4,0.48,0.61,0.25,0.55,0.5,0.42,0.55,0.44,0.55,0.88,0.6,0.5,0.4,0.48,0.61,0.55,0.33,0.55,0.55,0.33,0.58,0.48,0.55,0.42,0.33,0.5,0.44,0.56,0.42,0.55,0.29,0.58,0.55,0.33,0.58,0.48,0.55,0.61,0.5,0.4,0.56,0.25" style="fill:rgb(0,0,0);font-family:URWPalladioL-Roma;font-size:9.96px;stroke:none;">light stimulus, even though their shape is more disordered, as compared to the stacks in the dark.</text>
   <text y="582.553" x="76.535,81.516,84.006,87.095,97.058,102.039,105.357,110.338,114.214,117.531,122.512,125.83,130.2124,132.744,137.725,143.812,149.88760000000002,152.39,162.353,167.334,170.652,176.739,182.278,188.365" svgx:width="0.5,0.25,0.55,1.0,0.5,0.33,0.5,0.39,0.33,0.5,0.33,0.44,0.55,0.5,0.61,0.61,0.55,1.0,0.5,0.33,0.61,0.56,0.61,0.44" style="fill:rgb(0,0,0);font-family:URWPalladioL-Bold;font-size:9.96px;stroke:none;">4. Materials and Methods</text>
   <text y="605.766" x="76.535,81.516,84.007,88.988,91.478,94.567,102.318,106.931,109.7,113.576,117.631,120.948,124.83239999999999,127.314,131.738,134.5268,136.998,140.316,145.297,149.1814,151.663,157.202,160.52,166.059,171.04,176.01999999999998,178.512,182.936,188.475,193.45499999999998,195.947,202.034,207.015,210.891,213.66,217.5444,220.026,229.431,233.854,238.836,242.711,245.481" svgx:width="0.5,0.25,0.5,0.25,0.55,0.78,0.46,0.28,0.39,0.41,0.33,0.39,0.55,0.44,0.28,0.55,0.33,0.5,0.39,0.55,0.56,0.33,0.56,0.5,0.5,0.55,0.44,0.56,0.5,0.55,0.61,0.5,0.39,0.28,0.39,0.55,0.94,0.44,0.5,0.39,0.28,0.39" style="fill:rgb(0,0,0);font-family:URWPalladioL-Ital;font-size:9.96px;stroke:none;">4.1. Objects of the Study and Their Models</text>
   <text y="625.253" x="97.795,101.22,106.9968,110.162,113.475,119.389,122.346,126.5292,129.673,135.78,140.861,146.968,151.836,155.118,157.608,160.809,169.284,174.0648,177.179,181.691,187.24,193.154,197.462,200.42,206.628,211.496,215.48000000000002,218.528,221.841,227.755,231.596,236.464,241.2448,244.349,249.898,255.517,257.895,262.762,267.274,270.587,274.896,277.386,282.131,288.36,294.274,299.0548,302.16,308.308,312.322,316.63,319.9168,322.971,328.52,334.434,339.2148,342.32,345.277,349.4602,352.614,357.594,360.723,366.932,369.889,378.862,383.729,387.71299999999997,390.761,395.273,400.821,406.736,411.044,414.357,418.29,424.417,428.929,432.242,437.109,443.1846,446.346,451.966,457.5436,460.644,466.853,472.401,478.529,484.149,487.096,490.053,495.967,501.5446,504.645,507.958,513.872" svgx:width="0.34,0.58,0.55,0.33,0.58,0.29,0.42,0.55,0.6,0.5,0.6,0.48,0.4,0.25,0.55,0.83,0.48,0.55,0.44,0.55,0.58,0.42,0.29,0.61,0.48,0.4,0.55,0.33,0.58,0.4,0.48,0.48,0.55,0.55,0.55,0.23,0.48,0.44,0.33,0.42,0.25,0.55,0.61,0.58,0.48,0.55,0.61,0.4,0.42,0.33,0.55,0.55,0.58,0.48,0.55,0.29,0.42,0.55,0.5,0.55,0.61,0.29,0.88,0.48,0.4,0.55,0.44,0.55,0.58,0.42,0.33,0.4,0.6,0.44,0.33,0.48,0.61,0.55,0.55,0.56,0.55,0.61,0.55,0.6,0.55,0.29,0.29,0.58,0.56,0.55,0.33,0.58,0.48" style="fill:rgb(0,0,0);font-family:URWPalladioL-Roma;font-size:9.96px;stroke:none;">In this paper, we consider three objects. The ﬁrst one is a dimer constructed by doubling the</text>
   <text y="638.762" x="76.535,81.616,84.573,87.53,90.914,94.227,98.241,103.322,109.236,113.4192,116.674,121.755,126.836,132.385,137.465,143.674,149.162,156.9308,160.198,164.506,167.819,172.9,176.88400000000001,180.044,184.352,190.266,195.815,204.29,210.0668,213.324,216.281,222.05780000000001,225.325,230.975,233.932,239.582,245.71,249.551" svgx:width="0.5,0.29,0.29,0.33,0.33,0.4,0.5,0.58,0.42,0.55,0.5,0.5,0.55,0.5,0.61,0.61,0.78,0.55,0.42,0.33,0.5,0.4,0.55,0.42,0.58,0.55,0.83,0.58,0.55,0.29,0.58,0.55,0.56,0.29,0.56,0.6,0.4,0.48" style="fill:rgb(0,0,0);font-family:URWPalladioL-Roma;font-size:9.96px;stroke:none;">all-trans azo–BTA star shown in Figure</text>
   <text y="638.762" x="257.538" svgx:width="0.5" style="fill:rgb(8,117,183);font-family:URWPalladioL-Roma;font-size:9.96px;stroke:none;">1</text>
   <text y="638.762" x="262.619,267.59900000000005,270.83,273.787,279.56379999999996,282.831,285.788,289.101,293.2842,296.539,302.087,308.195,311.508,314.465,323.438,326.395,331.476,336.343,342.4186,345.672,351.322,356.189,361.738,370.711,375.578,378.891,382.905,387.447,389.937,393.28,398.361,402.5442,405.799,411.348,416.967,420.28,425.361,428.318,434.232,439.1,445.17560000000003,448.428,451.385,457.16179999999997,460.43,465.978,472.105,476.089,479.249,485.357,489.188,494.055,499.796,502.754,508.302,514.43" svgx:width="0.5,0.55,0.29,0.58,0.55,0.29,0.33,0.42,0.55,0.55,0.6,0.33,0.29,0.88,0.29,0.5,0.48,0.61,0.55,0.56,0.48,0.55,0.88,0.48,0.33,0.4,0.56,0.25,0.55,0.5,0.42,0.55,0.55,0.55,0.33,0.5,0.29,0.58,0.48,0.61,0.55,0.29,0.58,0.55,0.55,0.6,0.4,0.55,0.6,0.4,0.48,0.56,0.29,0.55,0.6,0.42" style="fill:rgb(0,0,0);font-family:URWPalladioL-Roma;font-size:9.96px;stroke:none;">a in its optimized geometry, as obtained in our previous</text>
   <text y="652.271" x="76.535,80.759,84.007,90.014,96.102,101.67960000000001,104.131" svgx:width="0.42,0.33,0.6,0.61,0.56,0.55,0.33" style="fill:rgb(0,0,0);font-family:URWPalladioL-Roma;font-size:9.96px;stroke:none;">study [</text>
   <text y="652.271" x="107.449,112.43" svgx:width="0.5,0.5" style="fill:rgb(8,117,183);font-family:URWPalladioL-Roma;font-size:9.96px;stroke:none;">14</text>
   <text y="652.271" x="117.412,120.729,123.219,128.198,134.427,140.341,145.1218,148.318,152.627,157.495,162.006,167.555,173.469,179.5446,182.787,188.336,194.25,199.0308,202.217,205.174,209.3572,212.592,215.905,221.819,226.5998,229.786,234.298,239.846,242.803,248.931,257.904,263.6808,266.928,272.476" svgx:width="0.33,0.25,0.55,0.61,0.58,0.48,0.55,0.42,0.48,0.44,0.55,0.58,0.61,0.55,0.55,0.58,0.48,0.55,0.29,0.42,0.55,0.33,0.58,0.48,0.55,0.44,0.55,0.29,0.6,0.88,0.58,0.55,0.55,0.33" style="fill:rgb(0,0,0);font-family:URWPalladioL-Roma;font-size:9.96px;stroke:none;">]. The second one is the column of</text>
   <text y="652.271" x="278.965" svgx:width="0.78" style="fill:rgb(0,0,0);font-family:URWPalladioL-Ital;font-size:9.96px;stroke:none;">N</text>
   <text y="652.271" x="290.235,296.3106,299.503,304.584,309.664,314.745,319.725,322.926,327.234,330.547,335.628,339.642,343.8252,347.06,350.444,355.992,360.006,368.979,373.847,379.9226,383.155,386.112,391.8888,395.136,404.749,412.4182,415.714,420.022,422.979,431.952,438.08,441.037,446.118,449.431,452.388,457.936,463.85,468.0332,471.268,474.225,480.0018,483.249,488.22900000000004,491.43,495.271,500.138,504.65,509.518,515.432" svgx:width="0.61,0.55,0.5,0.5,0.5,0.5,0.55,0.42,0.33,0.5,0.4,0.42,0.55,0.33,0.55,0.4,0.88,0.48,0.61,0.55,0.29,0.58,0.55,0.95,0.77,0.55,0.42,0.29,0.88,0.6,0.29,0.5,0.33,0.29,0.55,0.58,0.42,0.55,0.29,0.58,0.55,0.5,0.55,0.4,0.48,0.44,0.48,0.58,0.33" style="fill:rgb(0,0,0);font-family:URWPalladioL-Roma;font-size:9.96px;stroke:none;">= 2–20 stars formed in MD simulations in a recent</text>
   <text y="665.781" x="76.236,82.224,87.205,93.192,97.964,101.948,104.39" svgx:width="0.6,0.5,0.6,0.48,0.4,0.55,0.33" style="fill:rgb(0,0,0);font-family:URWPalladioL-Roma;font-size:9.96px;stroke:none;">paper [</text>
   <text y="665.781" x="107.708,112.689" svgx:width="0.5,0.5" style="fill:rgb(8,117,183);font-family:URWPalladioL-Roma;font-size:9.96px;stroke:none;">29</text>
   <text y="665.781" x="117.67,120.988,123.478,125.733,133.876,139.558,144.235,147.906" svgx:width="0.33,0.25,0.55,0.83,0.58,0.48,0.4,0.48" style="fill:rgb(0,0,0);font-family:URWPalladioL-Roma;font-size:9.96px;stroke:none;">], where</text>
   <text y="665.781" x="154.842" svgx:width="0.78" style="fill:rgb(0,0,0);font-family:URWPalladioL-Ital;font-size:9.96px;stroke:none;">N</text>
   <text y="665.781" x="164.952,167.793,171.9762,174.188,177.371,183.053,187.8338,189.985,194.867,199.007,203.146,207.823,216.444,221.843,224.684,230.2616,232.368,236.508,239.349,244.23,248.907,251.39700000000002,254.355,262.029,267.711,272.4918,274.643,279.32,284.358,289.239,297.861,303.728,306.569,311.3498,313.501,321.644,324.485,327.668" svgx:width="0.29,0.42,0.55,0.33,0.58,0.48,0.55,0.5,0.42,0.42,0.48,0.88,0.55,0.29,0.56,0.55,0.42,0.29,0.5,0.48,0.25,0.55,0.79,0.58,0.48,0.55,0.48,0.52,0.5,0.88,0.6,0.29,0.48,0.55,0.83,0.29,0.33,0.58" style="fill:rgb(0,0,0);font-family:URWPalladioL-Roma;font-size:9.96px;stroke:none;">is the assembly size. One example with</text>
   <text y="665.781" x="335.609" svgx:width="0.78" style="fill:rgb(0,0,0);font-family:URWPalladioL-Ital;font-size:9.96px;stroke:none;">N</text>
   <text y="665.781" x="345.719,351.7946,353.891,358.773,363.75300000000004,365.91,368.751,372.9342,375.146,381.111,385.788,391.656,394.497,398.832,402.014,406.691,412.7666,414.912,417.753,423.52979999999997,425.691,431.119,433.96,439.389,445.276,448.957" svgx:width="0.61,0.55,0.5,0.5,0.55,0.29,0.42,0.55,0.61,0.48,0.6,0.29,0.44,0.33,0.48,0.61,0.55,0.29,0.58,0.55,0.56,0.29,0.56,0.6,0.4,0.48" style="fill:rgb(0,0,0);font-family:URWPalladioL-Roma;font-size:9.96px;stroke:none;">= 20 is depicted in Figure</text>
   <text y="665.781" x="455.889" svgx:width="0.5" style="fill:rgb(8,117,183);font-family:URWPalladioL-Roma;font-size:9.96px;stroke:none;">1</text>
   <text y="665.781" x="460.77,466.169,468.659,471.617,477.046,479.887,485.569,490.451,493.292,496.133,500.458,502.94800000000004,505.203,508.376,514.059" svgx:width="0.55,0.25,0.55,0.56,0.29,0.58,0.5,0.29,0.29,0.56,0.25,0.55,0.33,0.58,0.48" style="fill:rgb(0,0,0);font-family:URWPalladioL-Roma;font-size:9.96px;stroke:none;">b. Finally, the</text>
   <text y="679.29" x="76.535,79.757,85.509,88.385,92.11,98.1856,100.639,106.035,111.501,113.813,118.547,122.935,126.2218,128.657,131.533,135.7162,138.224,141.446,147.198,151.9788,154.422,158.81,162.714,168.209,172.399,175.621,180.562,183.4504,185.939,191.335,194.6218,197.116,202.058,206.999,212.395,217.337,223.375,228.702,236.4708,238.881,243.072,246.294,251.235,255.21900000000002,257.639,262.373,267.473,273.412,278.146,282.05,284.926,293.652,298.386,304.138,307.36,312.301,315.177,318.053,323.6306,326.039,330.427,336.179,341.12,345.024,349.965,354.353,357.575,362.309,366.213,369.089,374.03,378.764,384.8396,387.303,392.768,398.3456,400.753,406.792,411.526,416.3068,418.76,423.494,426.78080000000006,429.216,434.158,437.034,439.524,442.607" svgx:width="0.33,0.58,0.29,0.4,0.61,0.55,0.55,0.55,0.23,0.48,0.44,0.33,0.55,0.29,0.42,0.55,0.33,0.58,0.48,0.55,0.44,0.4,0.56,0.42,0.33,0.5,0.29,0.55,0.55,0.33,0.55,0.5,0.5,0.55,0.5,0.61,0.61,0.78,0.55,0.42,0.33,0.5,0.4,0.55,0.48,0.52,0.6,0.48,0.4,0.29,0.88,0.48,0.58,0.33,0.5,0.29,0.29,0.56,0.55,0.44,0.58,0.5,0.4,0.5,0.44,0.33,0.48,0.4,0.29,0.5,0.48,0.61,0.55,0.55,0.56,0.55,0.61,0.48,0.48,0.55,0.48,0.33,0.55,0.5,0.29,0.25,0.55,0.33" style="fill:rgb(0,0,0);font-family:URWPalladioL-Roma;font-size:9.96px;stroke:none;">third object is the crystal of azo–BTA star experimentally characterized by Lee et al. [</text>
   <text y="679.29" x="445.897,450.878" svgx:width="0.5,0.5" style="fill:rgb(8,117,183);font-family:URWPalladioL-Roma;font-size:9.96px;stroke:none;">17</text>
   <text y="679.29" x="455.86,459.14680000000004,461.651,464.942,470.437,473.313,478.808,484.767,488.483" svgx:width="0.33,0.55,0.33,0.56,0.29,0.56,0.6,0.4,0.48" style="fill:rgb(0,0,0);font-family:URWPalladioL-Roma;font-size:9.96px;stroke:none;">] (Figure</text>
   <text y="679.29" x="495.718" svgx:width="0.5" style="fill:rgb(8,117,183);font-family:URWPalladioL-Roma;font-size:9.96px;stroke:none;">1</text>
   <text y="679.29" x="500.659,505.047,509.989,514.723,518.014" svgx:width="0.44,0.5,0.48,0.33,0.25" style="fill:rgb(0,0,0);font-family:URWPalladioL-Roma;font-size:9.96px;stroke:none;">c–e).</text>
   <text y="692.8" x="76.535,84.84,89.622,93.386,98.167,100.657,103.148,111.474,116.2548,118.751,122.984,126.238,132.257,138.357,143.9346,146.393,149.647,155.457,160.2378,162.724,167.156,171.099,176.65,180.882,184.137,189.128,192.01639999999998,194.518,197.423,200.678,204.91,209.692,212.597,215.921,218.411,220.912,225.903,230.0862,232.622,240.947,245.729,248.634,251.52239999999998,254.024,259.015,263.1982,265.734,268.988,274.798,279.5788,282.075,290.89,296.34,299.245,304.027,308.459,314.478,317.383,322.375,326.359,328.803,333.036,336.29,341.281,345.714,351.264,355.4472,357.982,363.433,368.953,372.207,377.199,380.104,385.913,390.695,396.7706,399.28,404.8,410.37760000000003,412.846,421.661,427.68,430.585,433.83,436.734,442.734,445.639,451.189,454.094,459.904,465.4816,467.95,471.204,477.014,481.7948,484.281,489.732,493.675,496.58,502.13,505.035,510.845,515.836" svgx:width="0.83,0.48,0.4,0.48,0.25,0.55,0.83,0.48,0.55,0.42,0.33,0.6,0.61,0.56,0.55,0.33,0.58,0.48,0.55,0.44,0.4,0.56,0.42,0.33,0.5,0.29,0.55,0.29,0.33,0.42,0.48,0.29,0.33,0.25,0.55,0.5,0.42,0.55,0.83,0.48,0.29,0.29,0.55,0.5,0.42,0.55,0.33,0.58,0.48,0.55,0.88,0.55,0.29,0.48,0.44,0.6,0.29,0.5,0.4,0.55,0.42,0.33,0.5,0.44,0.56,0.42,0.55,0.55,0.55,0.33,0.5,0.29,0.58,0.48,0.61,0.55,0.55,0.56,0.55,0.88,0.6,0.29,0.33,0.29,0.6,0.29,0.56,0.29,0.58,0.56,0.55,0.33,0.58,0.48,0.55,0.55,0.4,0.29,0.56,0.29,0.58,0.5,0.29" style="fill:rgb(0,0,0);font-family:URWPalladioL-Roma;font-size:9.96px;stroke:none;">Here, we study the crystal itself, as well as the molecular stacks obtained by multiplying the original</text>
   <text y="706.309" x="76.535,82.422,88.105,90.946,94.2328,96.628,100.963,105.64,108.481,111.3694,113.811,116.653" svgx:width="0.6,0.58,0.29,0.33,0.55,0.44,0.48,0.29,0.29,0.55,0.29,0.58" style="fill:rgb(0,0,0);font-family:URWPalladioL-Roma;font-size:9.96px;stroke:none;">unit cell in</text>
   <text y="706.309" x="124.836" svgx:width="0.46" style="fill:rgb(0,0,0);font-family:URWPalladioL-Ital;font-size:9.96px;stroke:none;">b</text>
   <text y="706.309" x="129.357,132.608,138.574,141.415,145.096,149.772,154.107,157.29,160.131,165.462,171.2388,173.634,178.515,183.397,188.279,193.259,195.66,198.843,201.684,210.305,214.982,219.121,221.61100000000002,224.667,227.957,233.7338,236.139,239.322,245.004,247.845,252.0282,254.484,258.819,263.701,267.84,272.517,275.007,277.457,285.6,290.3808,292.766,298.195,302.871,306.1578,308.553,311.736,317.419,322.1998,324.595,328.93,334.26,337.102,342.989,351.61,357.292,362.174,366.15799999999996,368.52,373.402,377.541,381.681,386.358,394.979,400.378,403.219,406.06,410.737,414.9202,417.376,422.707,425.9938,428.457,431.64,437.322,442.1028,444.498,448.638,453.52,462.141,466.9218,469.307,473.447,476.288,481.169" svgx:width="0.33,0.61,0.29,0.4,0.48,0.44,0.33,0.29,0.55,0.58,0.55,0.5,0.5,0.5,0.5,0.55,0.33,0.29,0.88,0.48,0.42,0.25,0.55,0.34,0.58,0.55,0.33,0.58,0.29,0.42,0.55,0.44,0.5,0.42,0.48,0.25,0.55,0.83,0.48,0.55,0.56,0.48,0.33,0.55,0.33,0.58,0.48,0.55,0.44,0.55,0.29,0.6,0.88,0.58,0.5,0.4,0.55,0.5,0.42,0.42,0.48,0.88,0.55,0.29,0.29,0.48,0.42,0.55,0.55,0.33,0.55,0.33,0.58,0.48,0.55,0.42,0.5,0.88,0.48,0.55,0.42,0.29,0.5,0.48" style="fill:rgb(0,0,0);font-family:URWPalladioL-Roma;font-size:9.96px;stroke:none;">-direction 2–20 times. In this case, we get the columnar assemblies of the same size</text>
   <text y="706.309" x="488.347" svgx:width="0.78" style="fill:rgb(0,0,0);font-family:URWPalladioL-Ital;font-size:9.96px;stroke:none;">N</text>
   <text y="706.309" x="498.699,503.581,507.7642,510.22,513.061" svgx:width="0.5,0.42,0.55,0.29,0.58" style="fill:rgb(0,0,0);font-family:URWPalladioL-Roma;font-size:9.96px;stroke:none;">as in</text>
   <text y="719.818" x="76.535,86.148,93.8172,96.666,100.974,103.931,112.904,119.032,121.989,127.07,130.383,133.34,138.888,144.802,149.111,151.601,154.344,159.964,166.091,169.3778,172.056,177.971,183.052,188.793,191.75,197.664,203.24159999999998,205.966,208.924,215.132,220.0,225.914,229.227,232.184,236.696,241.777,244.66539999999998,247.386,256.359,261.907,264.865,269.732,274.244,280.372,283.329,288.41,292.394,295.076,300.726,305.593,311.142,320.115,324.982,328.295,332.309,335.266,340.133,344.442,346.932,349.675,354.756,358.93919999999997,361.717,365.558,370.426,376.167,381.035,386.116,389.073,393.94,400.0156,402.802,405.759,411.5358,414.325,419.193,424.436,430.543,435.411,439.425,442.382,451.355,456.222,462.137,465.449,469.6322,472.41,475.367,481.1438,483.934,487.765,492.632,496.016,498.50600000000003,501.209" svgx:width="0.95,0.77,0.55,0.42,0.29,0.88,0.6,0.29,0.5,0.33,0.29,0.55,0.58,0.42,0.25,0.55,0.55,0.6,0.33,0.55,0.58,0.5,0.56,0.29,0.58,0.56,0.55,0.29,0.61,0.48,0.58,0.33,0.29,0.44,0.5,0.29,0.55,0.88,0.55,0.29,0.48,0.44,0.6,0.29,0.5,0.4,0.55,0.56,0.48,0.55,0.88,0.48,0.33,0.4,0.29,0.48,0.42,0.25,0.55,0.5,0.42,0.55,0.4,0.48,0.56,0.48,0.5,0.29,0.48,0.61,0.55,0.29,0.58,0.55,0.48,0.52,0.6,0.48,0.4,0.29,0.88,0.48,0.58,0.33,0.42,0.55,0.29,0.58,0.55,0.4,0.48,0.33,0.25,0.55,0.33" style="fill:rgb(0,0,0);font-family:URWPalladioL-Roma;font-size:9.96px;stroke:none;">MD simulations, but having identical molecular geometries, as revealed in experiments in ref. [</text>
   <text y="719.818" x="504.597,509.578" svgx:width="0.5,0.5" style="fill:rgb(8,117,183);font-family:URWPalladioL-Roma;font-size:9.96px;stroke:none;">17</text>
   <text y="719.818" x="514.559,517.943" svgx:width="0.33,0.25" style="fill:rgb(0,0,0);font-family:URWPalladioL-Roma;font-size:9.96px;stroke:none;">].</text>
   <text y="733.328" x="76.535,79.902,85.6788,88.196,93.192,96.1,98.9884,101.486,104.744,110.559,115.3398,117.824,122.261,127.257,131.494,136.28,140.517,143.007,145.493,153.827,158.6078,161.091,167.117,171.354,176.1348,178.618,183.59799999999998,186.093,189.42,195.446,198.353,201.261,204.589,209.585,212.843,218.298,227.122,230.03,234.266,237.524,240.432,244.81439999999998,247.347,251.114,255.9,261.906,265.673,270.459,274.696,279.482,285.298,288.556,293.552,296.809,299.717,305.173,310.9498,313.467,318.923,322.20980000000003,324.728,327.986,333.802,338.5828,341.066,345.303,348.56,353.557,357.504,361.741,364.231,366.727,375.061,380.876,385.663,389.43,394.216,399.212,403.3952,405.927,409.185,415.0,419.7808,422.265,427.261,432.857,438.883,443.669,449.125,455.15,459.3332,461.865,466.652,472.467,478.113,481.021,484.788,490.244,496.06,504.883,509.669,515.485" svgx:width="0.34,0.58,0.55,0.5,0.29,0.29,0.55,0.33,0.58,0.48,0.55,0.44,0.5,0.42,0.48,0.42,0.25,0.55,0.83,0.48,0.55,0.6,0.42,0.48,0.55,0.5,0.55,0.33,0.6,0.29,0.29,0.33,0.5,0.33,0.55,0.88,0.29,0.42,0.33,0.29,0.44,0.55,0.4,0.48,0.6,0.4,0.48,0.42,0.48,0.58,0.33,0.5,0.33,0.29,0.55,0.58,0.55,0.55,0.33,0.55,0.33,0.58,0.48,0.55,0.42,0.33,0.5,0.4,0.42,0.25,0.55,0.83,0.58,0.48,0.4,0.48,0.5,0.42,0.55,0.33,0.58,0.48,0.55,0.5,0.56,0.6,0.48,0.55,0.6,0.42,0.55,0.48,0.58,0.56,0.29,0.4,0.55,0.58,0.88,0.48,0.58,0.33" style="fill:rgb(0,0,0);font-family:URWPalladioL-Roma;font-size:9.96px;stroke:none;">In all the cases, we use a full-atomistic representation of the stars, whereas the aqueous environment</text>
   <text y="746.837" x="76.535,79.457,83.6402,86.196,95.063,100.546,106.682,111.492,114.415,117.337,122.147,128.2226,130.763,135.785,141.82,147.855,150.778,156.361,159.284,165.128,170.70559999999998,173.202,176.476,184.851,190.329,192.815,197.073,201.532,207.376,212.186,221.054,225.864,230.122,232.61200000000002,235.716,239.1,244.8768,247.425,253.561,258.371,264.216,268.474,271.396,274.67,280.24760000000003,282.734,286.078,292.133,297.978,302.437,305.71,308.633,314.116,319.96,324.982,327.8704,330.384,333.658,339.503,344.313,349.796,353.763,359.3406,361.837,365.181,372.954,378.537,384.693,387.9798,390.518,395.539,401.383,407.4586,410.0,416.135,420.946,426.79,431.048,433.971,437.244,442.82160000000005,445.308,448.652,454.708,460.552,465.011,468.285,471.207,476.69,482.535,487.556,490.4444,492.959,498.512,503.534,507.791,512.602" svgx:width="0.29,0.42,0.55,0.88,0.55,0.61,0.48,0.29,0.29,0.48,0.61,0.55,0.5,0.6,0.6,0.29,0.56,0.29,0.58,0.56,0.55,0.33,0.83,0.55,0.55,0.42,0.44,0.58,0.48,0.88,0.48,0.42,0.25,0.55,0.34,0.58,0.55,0.61,0.48,0.58,0.42,0.29,0.33,0.56,0.55,0.33,0.6,0.58,0.44,0.33,0.29,0.55,0.58,0.5,0.29,0.55,0.33,0.58,0.48,0.55,0.4,0.56,0.55,0.33,0.77,0.56,0.61,0.33,0.55,0.5,0.58,0.61,0.55,0.61,0.48,0.58,0.42,0.29,0.33,0.56,0.55,0.33,0.6,0.58,0.44,0.33,0.29,0.55,0.58,0.5,0.29,0.55,0.55,0.5,0.42,0.48,0.61" style="fill:rgb(0,0,0);font-family:URWPalladioL-Roma;font-size:9.96px;stroke:none;">is modelled applying two schemes: In density functional theory (DFT) and density functional based</text>
   <text y="760.347" x="76.535,79.76,82.639,88.139,93.897,97.122,100.416,105.887,108.766,114.524,120.568,123.447,129.205,134.7826,137.208,140.502,148.159,153.66,159.724,165.769,171.764,175.0508,177.561,181.953,186.9,189.779,194.171,200.136,203.015,207.962,211.187,214.066,219.467,225.225,229.419,231.90900000000002,234.395,237.62,243.378,248.15879999999999,250.62,255.358,258.475,261.769,266.508,270.9,274.125,278.3082,280.823,285.215,290.616,299.352,302.231,307.988,313.5656,315.992,319.286,323.016,328.417,339.655,342.88,348.638,353.4188,355.88,360.074,365.476,368.355,373.944,378.683,384.44,387.7268,390.168,395.115,398.844,403.6248,406.086,409.311,414.257,419.758,424.497,430.2738,432.757,435.636,441.394,444.619,450.09700000000004,452.523,457.47,461.862,466.254,471.656,477.611,483.369,486.65580000000006,489.097,494.686,497.565,502.545,505.015,508.24,513.997" svgx:width="0.33,0.29,0.56,0.58,0.33,0.33,0.55,0.29,0.58,0.61,0.29,0.58,0.56,0.55,0.33,0.77,0.56,0.61,0.61,0.61,0.33,0.55,0.44,0.5,0.29,0.44,0.6,0.29,0.5,0.33,0.29,0.55,0.58,0.42,0.25,0.55,0.33,0.58,0.48,0.55,0.48,0.33,0.33,0.48,0.44,0.33,0.42,0.55,0.44,0.55,0.88,0.29,0.58,0.56,0.55,0.33,0.4,0.55,0.88,0.33,0.58,0.48,0.55,0.42,0.55,0.29,0.56,0.48,0.58,0.33,0.55,0.5,0.4,0.48,0.55,0.33,0.5,0.56,0.48,0.58,0.55,0.29,0.58,0.33,0.55,0.55,0.5,0.44,0.44,0.55,0.6,0.58,0.33,0.55,0.56,0.29,0.5,0.55,0.33,0.58,0.48" style="fill:rgb(0,0,0);font-family:URWPalladioL-Roma;font-size:9.96px;stroke:none;">tight-binding (DFTB+) calculations, the effects coming fromthe solvent are taken into account via the</text>
  </g>
 </g>
</svg>
