<?xml version="1.0" encoding="UTF-8"?>
<svg height="717.943" width="530.465" xmlns="http://www.w3.org/2000/svg">
 <g id="page" xmlns:svgx="http://www.xml-cml.org/schema/svgx">
  <g begin="text">
   <text y="62.979" x="76.535,84.059,87.598,89.813,92.914,96.157,100.589,102.804,105.905" svgx:width="0.94,0.44,0.28,0.39,0.41,0.56,0.28,0.39,0.39" style="fill:rgb(0,0,0);font-family:URWPalladioL-Ital;font-size:7.97px;stroke:none;">Molecules</text>
   <text y="62.979" x="110.998,114.983,118.968,122.953" svgx:width="0.5,0.5,0.5,0.5" style="fill:rgb(0,0,0);font-family:URWPalladioL-Bold;font-size:7.97px;stroke:none;">2019</text>
   <text y="62.979" x="126.938" svgx:width="0.25" style="fill:rgb(0,0,0);font-family:URWPalladioL-Roma;font-size:7.97px;stroke:none;">,</text>
   <text y="62.979" x="130.923,134.908" svgx:width="0.5,0.5" style="fill:rgb(0,0,0);font-family:URWPalladioL-Ital;font-size:7.97px;stroke:none;">24</text>
   <text y="62.979" x="138.893,140.8855,142.878,146.863,150.848,154.833,158.818,495.794,499.779,501.772,506.123,508.7531,510.77,514.755" svgx:width="0.25,0.55,0.5,0.5,0.5,0.5,0.55,0.5,0.55,0.55,0.33,0.55,0.5,0.5" style="fill:rgb(0,0,0);font-family:URWPalladioL-Roma;font-size:7.97px;stroke:none;">, 4387 7 of 18</text>
   <text y="97.848" x="97.795,106.239,111.788,115.101,119.8818,123.352,129.266,134.134,137.965,142.832,145.322,148.98,152.293,158.207,163.288,166.5748,169.985,173.298,179.212,183.9928,187.463,193.083,196.04,201.954,208.163,211.12,217.034,222.61159999999998,226.068,232.277,235.234,240.315,245.965,249.979,255.06,264.033,268.2162,271.715,276.796,280.637,285.4178,288.889,293.4,298.481,301.439,305.95,312.078,315.035,320.116,323.429,328.296,334.3716,337.879,346.354,349.311,352.624,358.4008,361.922,365.235,371.149,375.9298,379.4,384.481,388.79,393.098,399.226,408.199,414.306,417.619,420.576,426.124,431.9008,435.423,438.735,444.65,449.73,453.01680000000005,456.427,459.74,465.654,470.4348,473.906,482.878,488.427,491.384,496.251,500.763,506.891,509.848,514.929" svgx:width="0.83,0.55,0.33,0.48,0.55,0.58,0.48,0.4,0.48,0.25,0.55,0.33,0.58,0.5,0.33,0.55,0.33,0.58,0.48,0.55,0.55,0.29,0.58,0.61,0.29,0.58,0.56,0.55,0.61,0.29,0.5,0.56,0.4,0.5,0.88,0.42,0.55,0.5,0.4,0.48,0.55,0.44,0.5,0.29,0.44,0.6,0.29,0.5,0.33,0.48,0.61,0.55,0.83,0.29,0.33,0.58,0.55,0.33,0.58,0.48,0.55,0.5,0.42,0.42,0.6,0.88,0.6,0.33,0.29,0.55,0.58,0.55,0.33,0.58,0.5,0.33,0.55,0.33,0.58,0.48,0.55,0.88,0.55,0.29,0.48,0.44,0.6,0.29,0.5,0.4" style="fill:rgb(0,0,0);font-family:URWPalladioL-Roma;font-size:9.96px;stroke:none;">Note here, that the binding diagrams are calculated with the assumption that the molecular</text>
   <text y="111.358" x="76.535,80.888,86.24,91.946,95.21,100.563,104.435,113.091,117.993,121.189,124.041,129.394,135.1708,137.589,140.854,143.707,149.4838,151.902,157.255,163.166,167.15,169.518,173.871,178.773,182.929,187.625,190.115,192.566,197.467,200.32,208.976,214.329,218.485,221.7718,224.171,230.063,232.916,237.817,243.523,248.424,252.40800000000002,254.787,260.237,264.933,270.285,278.942,283.637,286.833,290.705,296.2826,298.636,303.989,307.2758,309.743,312.939,318.645,323.4258,325.83,329.987,333.183,338.084,342.068,344.447,349.348,352.613,355.808,360.504,364.488,366.866,369.709,372.905,377.0882,379.552,384.904,390.796,393.992,396.845,405.501,408.354,413.255,418.157,421.353,424.205,429.558,435.3348,437.753" svgx:width="0.44,0.55,0.58,0.33,0.55,0.4,0.88,0.5,0.33,0.29,0.55,0.58,0.55,0.33,0.29,0.58,0.55,0.55,0.6,0.4,0.55,0.44,0.5,0.42,0.48,0.25,0.55,0.5,0.29,0.88,0.55,0.42,0.33,0.55,0.6,0.29,0.5,0.58,0.5,0.4,0.55,0.56,0.48,0.55,0.88,0.48,0.33,0.4,0.56,0.55,0.55,0.33,0.55,0.33,0.58,0.48,0.55,0.42,0.33,0.5,0.4,0.55,0.5,0.33,0.33,0.48,0.4,0.55,0.29,0.33,0.42,0.55,0.55,0.6,0.33,0.29,0.88,0.29,0.5,0.5,0.33,0.29,0.55,0.58,0.55,0.33" style="fill:rgb(0,0,0);font-family:URWPalladioL-Roma;font-size:9.96px;stroke:none;">conformation (in our case, almost planar geometry of the star after its optimization [</text>
   <text y="111.358" x="441.018,445.999" svgx:width="0.5,0.5" style="fill:rgb(8,117,183);font-family:URWPalladioL-Roma;font-size:9.96px;stroke:none;">14</text>
   <text y="111.358" x="450.981,454.245,457.53180000000003,460.0,465.99,471.342,476.038,480.2212,482.685,488.39,493.743,497.0298,499.419,504.32,507.173,510.369,515.064" svgx:width="0.33,0.33,0.55,0.61,0.55,0.48,0.42,0.55,0.58,0.55,0.33,0.55,0.5,0.29,0.33,0.48,0.4" style="fill:rgb(0,0,0);font-family:URWPalladioL-Roma;font-size:9.96px;stroke:none;">]) does not alter</text>
   <text y="124.867" x="76.535,82.464,88.374,93.743,99.51979999999999,101.954,107.962,110.823,119.506,124.216,128.1,130.961,135.878,140.794,144.0,146.861,152.23,157.953,160.443,162.899,166.105,169.989,174.905,180.628,184.797,187.659,192.575,195.781,198.642,204.011,209.7878,212.212,217.581,221.565,223.953,227.66,233.029,236.234,241.151,244.356,247.218,252.587,258.309,260.79900000000004,263.855,271.584,277.3608,279.795,283.0,288.723,293.5038,295.911,300.277,305.646,311.369,314.574,318.459,323.375,327.259,331.625,334.115,336.571,339.777,345.5,350.2808,352.697,355.972,361.341,365.225,373.907,378.824,382.029,384.891,390.26,396.03679999999997,398.461,403.829,407.11580000000004,409.592,415.314,420.782,426.79,430.497,435.866,441.333,446.043,451.8198,454.253,459.691,465.06,470.783,476.791,480.9742,483.448,487.145,491.855,497.362,503.291,506.152,509.86,514.57" svgx:width="0.6,0.6,0.55,0.58,0.55,0.61,0.29,0.88,0.48,0.4,0.29,0.5,0.5,0.33,0.29,0.55,0.58,0.25,0.55,0.33,0.4,0.5,0.58,0.42,0.29,0.5,0.33,0.29,0.55,0.58,0.55,0.55,0.4,0.55,0.4,0.55,0.33,0.5,0.33,0.29,0.55,0.58,0.25,0.55,0.79,0.58,0.55,0.33,0.58,0.48,0.55,0.44,0.55,0.58,0.33,0.4,0.5,0.4,0.56,0.25,0.55,0.33,0.58,0.48,0.55,0.33,0.55,0.4,0.88,0.5,0.33,0.29,0.55,0.58,0.55,0.55,0.33,0.55,0.58,0.56,0.61,0.4,0.55,0.56,0.48,0.58,0.55,0.55,0.55,0.58,0.61,0.42,0.55,0.4,0.48,0.56,0.6,0.29,0.4,0.48,0.42" style="fill:rgb(0,0,0);font-family:URWPalladioL-Roma;font-size:9.96px;stroke:none;">upon dimerization, translation or rotation. On the contrary, the formation of hydrogen bonds requires</text>
   <text y="138.377" x="76.535,82.229,87.571,90.8578,93.255,98.596,104.29,107.137,112.7146,115.062,118.251,123.945,128.7258,131.126,134.814,140.156,143.345,148.237,151.426,154.273,159.615,165.39180000000002,167.793,173.135,176.4218,178.888,182.077,187.771,192.5518,194.942,199.09,202.279,207.171,211.035,215.2182,217.678,223.088,228.988,232.2748,234.672,239.563,242.41,246.558,252.036,254.385,257.574,263.268,268.04879999999997,270.449,275.341,278.188,281.377,286.063,289.928,294.819,298.009,300.856,306.197,311.9738,314.376,319.718,323.00480000000005,325.47,328.66,334.354,339.1348,341.535,347.414,350.261,355.153,360.847,365.738,369.603,372.45,375.639,381.2166,383.563,388.905,392.1918,394.658,397.847,403.541,408.3218,410.712,416.69,421.953,429.7218,432.059,436.403,441.745,445.423,450.109,454.257,456.747,459.795,469.05,474.391,478.08,482.8608,485.261,488.939,493.625,498.517,501.364,504.211,508.359,511.548,514.395" svgx:width="0.58,0.55,0.33,0.55,0.55,0.58,0.29,0.56,0.55,0.33,0.58,0.48,0.55,0.4,0.55,0.33,0.5,0.33,0.29,0.55,0.58,0.55,0.55,0.33,0.55,0.33,0.58,0.48,0.55,0.42,0.33,0.5,0.4,0.42,0.55,0.55,0.6,0.33,0.55,0.5,0.29,0.42,0.55,0.55,0.33,0.58,0.48,0.55,0.5,0.29,0.33,0.48,0.4,0.5,0.33,0.29,0.55,0.58,0.55,0.55,0.33,0.55,0.33,0.58,0.48,0.55,0.6,0.29,0.5,0.58,0.5,0.4,0.29,0.33,0.56,0.55,0.55,0.33,0.55,0.33,0.58,0.48,0.55,0.61,0.61,0.78,0.55,0.44,0.55,0.4,0.48,0.42,0.25,0.55,0.95,0.55,0.4,0.48,0.55,0.4,0.48,0.5,0.29,0.29,0.42,0.33,0.29,0.44" style="fill:rgb(0,0,0);font-family:URWPalladioL-Roma;font-size:9.96px;stroke:none;">not only the rotation of the stars but also the alteration of the planarity of the BTA cores. More realistic</text>
   <text y="151.886" x="76.535,82.066,84.977,90.799,96.91,99.821,105.642,111.2196,113.694,122.526,127.988,134.099,138.89,141.801,145.9842,148.533,156.875,159.785,162.696,165.5844,168.107,173.639,178.4198,180.921,185.362,190.823,196.644,200.885,203.796,209.908,214.699,218.47,223.261,229.3366,231.863,235.194,241.225,245.176,248.437,254.259,259.05,263.034,265.491,273.833,279.655,284.446,290.2228,292.758,301.1,305.8808,308.392,316.734,319.644,322.555,325.4434,327.956,334.068,336.979,341.22,345.661,351.692,355.933,360.1162,362.665,365.926,371.747,376.5278,379.029,387.861,392.652,397.093,402.915,407.916,413.737,416.648,420.889,429.721,433.9042,436.453,441.914,445.2008,447.746,451.977,456.768,459.679,463.009,466.34,471.341,475.582,479.823,484.615,493.447,498.978,501.889,507.4666,509.951,515.412" svgx:width="0.55,0.29,0.58,0.61,0.29,0.58,0.56,0.55,0.88,0.55,0.61,0.48,0.29,0.42,0.55,0.83,0.29,0.29,0.29,0.55,0.55,0.48,0.55,0.44,0.55,0.58,0.42,0.29,0.61,0.48,0.4,0.48,0.61,0.55,0.33,0.6,0.4,0.33,0.58,0.48,0.4,0.55,0.83,0.58,0.48,0.58,0.55,0.83,0.48,0.55,0.83,0.29,0.29,0.29,0.55,0.61,0.29,0.42,0.44,0.6,0.42,0.42,0.55,0.33,0.58,0.48,0.55,0.88,0.48,0.44,0.58,0.5,0.58,0.29,0.42,0.88,0.42,0.55,0.55,0.33,0.55,0.42,0.48,0.29,0.33,0.33,0.5,0.42,0.42,0.48,0.88,0.55,0.29,0.56,0.55,0.55,0.33" style="fill:rgb(0,0,0);font-family:URWPalladioL-Roma;font-size:9.96px;stroke:none;">binding models will be considered further when we will discuss the mechanisms of self-assembly of</text>
   <text y="165.395" x="76.535,81.516,86.498,91.937,96.918,103.006,108.375,116.1438,118.617,122.841,126.089,131.07,135.005,139.1882,141.72,144.619,150.3958,152.908,157.89,163.469,169.476,174.248,179.688,185.695,189.8782,192.41,196.634,202.074,204.973,210.98,214.228,217.127,222.567,228.365" svgx:width="0.5,0.5,0.55,0.5,0.61,0.61,0.78,0.55,0.42,0.33,0.5,0.4,0.42,0.55,0.29,0.58,0.55,0.5,0.56,0.6,0.48,0.55,0.6,0.42,0.55,0.42,0.55,0.29,0.6,0.33,0.29,0.55,0.58,0.25" style="fill:rgb(0,0,0);font-family:URWPalladioL-Roma;font-size:9.96px;stroke:none;">azo–BTA stars in aqueous solution.</text>
   <text y="188.608" x="76.535,81.516,84.007,88.988,91.478,94.567,101.76,107.3,111.723,114.493,119.474,123.349,126.119,130.0034,132.485,136.908,139.6968,142.169,145.486,150.467,154.3514,156.834,161.815,165.69,170.114,175.653,179.528,182.846,190.039,194.462,198.886,203.867,209.954,215.125,222.2962,224.808,230.348,233.665,238.089,241.9734,244.455,251.1,254.975,259.956,263.832,267.149,271.573" svgx:width="0.5,0.25,0.5,0.25,0.55,0.72,0.56,0.44,0.28,0.5,0.39,0.28,0.39,0.55,0.44,0.28,0.55,0.33,0.5,0.39,0.55,0.61,0.39,0.44,0.56,0.39,0.33,0.72,0.44,0.44,0.5,0.61,0.61,0.72,0.55,0.56,0.33,0.44,0.39,0.55,0.67,0.39,0.5,0.39,0.33,0.44,0.28" style="fill:rgb(0,0,0);font-family:URWPalladioL-Ital;font-size:9.96px;stroke:none;">2.2. Analysis of the Trans-Azo–BTA Star Crystal</text>
   <text y="208.095" x="97.795,101.085,106.86179999999999,109.14,112.323,118.005,120.846,125.0292,127.358,131.498,136.175,140.51,143.692,146.534,151.864,157.547,160.037,162.38,170.522,175.3028,177.571,186.192,191.523,197.039,201.8198,204.089,207.34,211.011,216.342,227.335,230.518,236.2,240.9808,243.249,247.389,250.23,258.851,264.719,267.56,270.401,276.308,280.985,287.0606,289.323,295.288,298.129,306.75,311.427,315.411,317.656,321.337,326.013,331.881,335.552,340.229,344.368,349.045,354.727,357.91,362.792,365.975,368.816,374.147,379.92379999999997,382.201,385.384,390.862,393.087,398.067,400.342,408.963,414.293,417.964,422.7448,425.014,429.349,434.679,443.3,449.168,452.009,456.686,461.86519999999996,464.096,469.427,473.108,478.536,483.418,489.1,491.941,496.823,501.705,504.888,507.729,513.06" svgx:width="0.34,0.58,0.55,0.33,0.58,0.29,0.42,0.55,0.42,0.48,0.44,0.33,0.29,0.55,0.58,0.25,0.55,0.83,0.48,0.55,0.88,0.55,0.56,0.48,0.55,0.33,0.4,0.55,0.88,0.33,0.58,0.48,0.55,0.42,0.29,0.88,0.6,0.29,0.29,0.61,0.48,0.61,0.55,0.61,0.29,0.88,0.48,0.4,0.55,0.4,0.48,0.6,0.4,0.48,0.42,0.48,0.58,0.33,0.5,0.33,0.29,0.55,0.58,0.55,0.33,0.55,0.55,0.5,0.55,0.88,0.55,0.4,0.48,0.55,0.44,0.55,0.88,0.6,0.29,0.48,0.52,0.55,0.55,0.4,0.56,0.5,0.58,0.29,0.5,0.5,0.33,0.29,0.55,0.58" style="fill:rgb(0,0,0);font-family:URWPalladioL-Roma;font-size:9.96px;stroke:none;">In this section, we move fromthe simpliﬁed dimer representation to a more complex organization</text>
   <text y="221.605" x="76.535,82.083,85.3698,88.628,91.94,97.855,102.6358,105.872,110.953,116.034,121.583,126.663,130.972,134.285,139.366,143.38,147.688,150.178,153.552,158.633,162.8162,166.102,170.969,176.213,182.32,187.187,191.201,194.158,203.131,207.999,213.913,217.226,222.307,225.264,228.221,233.7986,237.021,239.978,245.892,251.634,256.501,260.81,264.123,267.08,272.73,277.811,281.124,285.991,292.0666,295.36,300.98,306.55760000000004,309.78,315.989,320.856,325.6368,328.884,333.752,337.03880000000004,340.225,345.306,348.263,350.753,355.884" svgx:width="0.55,0.33,0.55,0.33,0.58,0.48,0.55,0.5,0.5,0.55,0.5,0.42,0.33,0.5,0.4,0.42,0.25,0.55,0.5,0.42,0.55,0.48,0.52,0.6,0.48,0.4,0.29,0.88,0.48,0.58,0.33,0.5,0.29,0.29,0.56,0.55,0.29,0.58,0.56,0.48,0.42,0.33,0.29,0.56,0.5,0.33,0.48,0.61,0.55,0.55,0.56,0.55,0.61,0.48,0.48,0.55,0.48,0.33,0.55,0.5,0.29,0.25,0.55,0.33" style="fill:rgb(0,0,0);font-family:URWPalladioL-Roma;font-size:9.96px;stroke:none;">of the azo–stars, as experimentally investigated by Lee et al. [</text>
   <text y="221.605" x="359.269,364.25" svgx:width="0.5,0.5" style="fill:rgb(8,117,183);font-family:URWPalladioL-Roma;font-size:9.96px;stroke:none;">17</text>
   <text y="221.605" x="369.232,372.616,375.106,380.237,386.467,392.381,397.16179999999997,400.409,404.92,408.934,414.584,418.893,422.206,427.287,430.244,433.201,436.158,442.072,446.8528,450.1,456.207,462.121,467.202,471.511,476.2918,479.529,482.913,488.461,494.589,500.503,506.5786,509.872,512.829" svgx:width="0.33,0.25,0.55,0.61,0.58,0.48,0.55,0.44,0.4,0.56,0.42,0.33,0.5,0.29,0.29,0.29,0.58,0.48,0.55,0.6,0.58,0.5,0.42,0.48,0.55,0.33,0.55,0.6,0.58,0.61,0.55,0.29,0.58" style="fill:rgb(0,0,0);font-family:URWPalladioL-Roma;font-size:9.96px;stroke:none;">]. The crystalline phase found in</text>
   <text y="235.114" x="76.535,79.434,82.333,85.581,90.353,94.288,99.27,102.517,108.525,112.281,117.0618,119.544" svgx:width="0.29,0.29,0.33,0.48,0.4,0.5,0.33,0.6,0.4,0.48,0.55,0.33" style="fill:rgb(0,0,0);font-family:URWPalladioL-Roma;font-size:9.96px;stroke:none;">literature [</text>
   <text y="235.114" x="122.861,127.842" svgx:width="0.5,0.5" style="fill:rgb(8,117,183);font-family:URWPalladioL-Roma;font-size:9.96px;stroke:none;">17</text>
   <text y="235.114" x="132.824,136.1108,138.632,141.531,145.7142,148.246,152.47,158.268,163.708,172.017,177.7938,180.305,183.205,188.98180000000002,191.493,197.033,199.932,205.471,211.478,215.234" svgx:width="0.33,0.55,0.29,0.42,0.55,0.42,0.58,0.55,0.83,0.58,0.55,0.29,0.58,0.55,0.56,0.29,0.56,0.6,0.4,0.48" style="fill:rgb(0,0,0);font-family:URWPalladioL-Roma;font-size:9.96px;stroke:none;">] is shown in Figure</text>
   <text y="235.114" x="222.497" svgx:width="0.5" style="fill:rgb(8,117,183);font-family:URWPalladioL-Roma;font-size:9.96px;stroke:none;">1</text>
   <text y="235.114" x="227.478,233.565" svgx:width="0.61,0.25" style="fill:rgb(0,0,0);font-family:URWPalladioL-Roma;font-size:9.96px;stroke:none;">d.</text>
   <text y="248.624" x="97.795,106.741,111.5218,113.97,118.902,122.62,127.4008,129.84,138.549,143.934,148.116,151.4028,153.836,156.707,162.447,165.662,170.386,174.105,178.829,183.011,186.226,190.951,197.0266,199.482,202.352,208.1288,210.588,214.77,217.985,223.933,229.959,235.443,238.313,244.053,249.6306,252.042,255.257,260.998,265.7788,268.227,271.097,276.838,280.053,284.777,288.673,297.382,302.767,305.637,310.362,314.741,320.688,323.558,328.49,332.474,334.881,339.26,344.646,350.386,353.601,358.533,362.912,366.127,370.309,372.79900000000004,375.28,381.02,386.405,389.275,395.302,398.172,403.912,409.4896,411.901,415.116,420.502,425.986,430.71,433.925,439.665,444.39,448.37399999999997,450.791,456.176,460.15999999999997,462.567,468.594,473.318,477.5,480.715,485.647,491.101,493.971,496.841,499.711,504.643,507.513,513.253" svgx:width="1.0,0.48,0.55,0.5,0.4,0.48,0.55,0.88,0.55,0.42,0.33,0.55,0.29,0.58,0.33,0.48,0.4,0.48,0.42,0.33,0.48,0.61,0.55,0.29,0.58,0.55,0.42,0.33,0.6,0.61,0.56,0.29,0.58,0.56,0.55,0.33,0.58,0.48,0.55,0.29,0.58,0.33,0.48,0.4,0.88,0.55,0.29,0.48,0.44,0.6,0.29,0.5,0.4,0.55,0.44,0.55,0.58,0.33,0.5,0.44,0.33,0.42,0.25,0.55,0.58,0.55,0.29,0.61,0.29,0.58,0.56,0.55,0.33,0.55,0.56,0.48,0.33,0.58,0.48,0.4,0.55,0.55,0.4,0.55,0.61,0.48,0.42,0.33,0.5,0.55,0.29,0.29,0.29,0.5,0.29,0.58,0.56" style="fill:rgb(0,0,0);font-family:URWPalladioL-Roma;font-size:9.96px;stroke:none;">We are most interested in studying the intermolecular contacts, holding together or destabilizing</text>
   <text y="262.133" x="76.535,79.828,85.708,90.4888,93.042,97.325,100.618,105.669,110.155,115.771,119.9542,122.55,128.066,131.3528,133.935,138.218,141.512,146.563,150.553,154.7362,157.331,160.271,166.0478,168.646,171.939,177.818,182.5988,185.153,189.638,193.628,199.245,203.528,206.821,211.873,214.812,217.30200000000002,220.449,225.722,231.20000000000002,233.733,239.805,243.623,249.139,254.725,259.5058,262.06,265.353,271.232,276.071,284.991,287.481,290.012,298.437,303.2178,305.771,311.863,316.146,320.9268,323.48,326.773,332.653,337.4338,339.997,348.402,351.342,355.332,359.615,365.495,368.859,373.698,376.637,382.7126,385.305,389.588,395.68,399.67,403.034,408.085,412.57,417.3508,419.905,424.956,430.835,435.886,438.826,444.442,448.726,451.665,455.8482,458.444" svgx:width="0.33,0.58,0.48,0.55,0.42,0.33,0.5,0.44,0.56,0.42,0.55,0.55,0.33,0.55,0.42,0.33,0.5,0.4,0.42,0.55,0.29,0.58,0.55,0.33,0.58,0.48,0.55,0.44,0.4,0.56,0.42,0.33,0.5,0.29,0.25,0.55,0.61,0.55,0.55,0.6,0.4,0.55,0.55,0.48,0.55,0.33,0.58,0.48,0.88,0.25,0.55,0.83,0.48,0.55,0.6,0.42,0.48,0.55,0.33,0.58,0.48,0.55,0.83,0.29,0.4,0.42,0.58,0.33,0.48,0.29,0.61,0.55,0.42,0.6,0.4,0.33,0.5,0.44,0.48,0.55,0.5,0.58,0.5,0.29,0.56,0.42,0.29,0.42,0.55,0.33" style="fill:rgb(0,0,0);font-family:URWPalladioL-Roma;font-size:9.96px;stroke:none;">the stacks of stars in the crystal. To probe them, we use the Hirshfeld surface analysis [</text>
   <text y="262.133" x="461.81,466.791" svgx:width="0.5,0.5" style="fill:rgb(8,117,183);font-family:URWPalladioL-Roma;font-size:9.96px;stroke:none;">65</text>
   <text y="262.133" x="471.772,475.0588,477.631,480.995,486.612,489.552,495.168,501.26,505.068" svgx:width="0.33,0.55,0.33,0.56,0.29,0.56,0.6,0.4,0.48" style="fill:rgb(0,0,0);font-family:URWPalladioL-Roma;font-size:9.96px;stroke:none;">] (Figure</text>
   <text y="262.133" x="512.413" svgx:width="0.5" style="fill:rgb(8,117,183);font-family:URWPalladioL-Roma;font-size:9.96px;stroke:none;">4</text>
   <text y="262.133" x="517.464" svgx:width="0.25" style="fill:rgb(0,0,0);font-family:URWPalladioL-Roma;font-size:9.96px;stroke:none;">,</text>
   <text y="275.642" x="76.535,79.492,84.36,87.744,91.0308,93.973,98.485,104.033,106.99,113.118,122.091,128.005,131.2918,134.295,139.376,145.29,151.3656,154.415,160.523,163.48,169.028,172.3148,175.247,178.56,184.474" svgx:width="0.29,0.48,0.33,0.33,0.55,0.44,0.55,0.29,0.6,0.88,0.58,0.33,0.55,0.5,0.58,0.61,0.55,0.6,0.29,0.55,0.33,0.55,0.33,0.58,0.48" style="fill:rgb(0,0,0);font-family:URWPalladioL-Roma;font-size:9.96px;stroke:none;">left column) and plot the</text>
   <text y="275.642" x="192.259" svgx:width="0.5" style="fill:rgb(0,0,0);font-family:URWPalladioL-Ital;font-size:9.96px;stroke:none;">d</text>
   <text y="277.137" x="197.34" svgx:width="0.48" style="fill:rgb(0,0,0);font-family:URWPalladioL-Roma;font-size:7.57px;stroke:none;">e</text>
   <text y="275.642" x="201.465" svgx:width="0.33" style="fill:rgb(0,0,0);font-family:URWPalladioL-Roma;font-size:9.96px;stroke:none;">-</text>
   <text y="275.642" x="204.849" svgx:width="0.5" style="fill:rgb(0,0,0);font-family:URWPalladioL-Ital;font-size:9.96px;stroke:none;">d</text>
   <text y="277.386" x="209.93" svgx:width="0.29" style="fill:rgb(0,0,0);font-family:URWPalladioL-Roma;font-size:7.57px;stroke:none;">i</text>
   <text y="275.642" x="215.544,221.753,224.71,229.791,235.441,239.455,244.536,253.509,257.6922,260.734,264.118,269.768,272.725,278.375,284.502,288.333" svgx:width="0.61,0.29,0.5,0.56,0.4,0.5,0.88,0.42,0.55,0.33,0.56,0.29,0.56,0.6,0.4,0.48" style="fill:rgb(0,0,0);font-family:URWPalladioL-Roma;font-size:9.96px;stroke:none;">diagrams (Figure</text>
   <text y="275.642" x="296.117" svgx:width="0.5" style="fill:rgb(8,117,183);font-family:URWPalladioL-Roma;font-size:9.96px;stroke:none;">4</text>
   <text y="275.642" x="301.198,303.688,306.757,310.771,313.728,319.378,325.292,328.5788,331.511,336.023,341.571,344.528,350.656,359.629,365.543,368.927,371.41700000000003,375.827,382.056,387.97,392.7508,395.744,400.256,405.804,408.761,414.31,418.294,421.24,425.549,430.061,435.975,440.842,449.815,454.5958,457.589,463.137,466.4238,469.438,472.751,478.665,483.4458,486.449,490.757,496.885,500.899,504.283,509.364,513.876" svgx:width="0.25,0.55,0.4,0.29,0.56,0.58,0.33,0.55,0.44,0.55,0.29,0.6,0.88,0.58,0.33,0.25,0.55,0.61,0.58,0.48,0.55,0.44,0.55,0.29,0.55,0.4,0.55,0.42,0.44,0.58,0.48,0.88,0.48,0.55,0.55,0.33,0.55,0.33,0.58,0.48,0.55,0.42,0.6,0.4,0.33,0.5,0.44,0.48" style="fill:rgb(0,0,0);font-family:URWPalladioL-Roma;font-size:9.96px;stroke:none;">, right column). The color scheme of the surface</text>
   <text y="289.152" x="76.535,80.87,86.201,92.166,96.843,101.0262,103.326,106.508,112.191,116.9718,119.201,123.34,126.182,131.61,137.38680000000002,139.636,144.966,148.2528,150.551,153.734,159.416,164.1968,166.436,172.118,177.449,181.305,189.926,194.808,197.649,200.49,205.372,210.049,216.12460000000002,218.348,222.683,228.013,233.696,236.878,241.76,246.095,249.3818,251.621,257.586,260.428,264.567,267.75,272.632,278.314,282.649" svgx:width="0.44,0.55,0.61,0.48,0.42,0.55,0.33,0.58,0.48,0.55,0.42,0.29,0.56,0.58,0.55,0.55,0.33,0.55,0.33,0.58,0.48,0.55,0.58,0.55,0.4,0.88,0.5,0.29,0.29,0.5,0.48,0.61,0.55,0.44,0.55,0.58,0.33,0.5,0.44,0.33,0.55,0.61,0.29,0.42,0.33,0.5,0.58,0.44,0.48" style="fill:rgb(0,0,0);font-family:URWPalladioL-Roma;font-size:9.96px;stroke:none;">codes the sign of the normalized contact distance</text>
   <text y="289.152" x="289.661" svgx:width="0.5" style="fill:rgb(0,0,0);font-family:URWPalladioL-Ital;font-size:9.96px;stroke:none;">d</text>
   <text y="290.646" x="294.543,298.95,303.084,306.075" svgx:width="0.58,0.55,0.4,0.88" style="fill:rgb(0,0,0);font-family:URWPalladioL-Roma;font-size:7.57px;stroke:none;">norm</text>
   <text y="289.152" x="315.597,321.562,326.239,332.146,337.828,342.505,348.5806,350.804,353.645,359.42179999999996,361.67,364.853,369.53,373.386,382.007,386.1902,388.49,393.821" svgx:width="0.61,0.48,0.61,0.58,0.48,0.61,0.55,0.29,0.58,0.55,0.33,0.48,0.4,0.88,0.42,0.55,0.55,0.33" style="fill:rgb(0,0,0);font-family:URWPalladioL-Roma;font-size:9.96px;stroke:none;">deﬁned in terms of</text>
   <text y="289.152" x="399.406" svgx:width="0.5" style="fill:rgb(0,0,0);font-family:URWPalladioL-Ital;font-size:9.96px;stroke:none;">d</text>
   <text y="290.646" x="404.288" svgx:width="0.48" style="fill:rgb(0,0,0);font-family:URWPalladioL-Roma;font-size:7.57px;stroke:none;">e</text>
   <text y="289.152" x="408.413" svgx:width="0.25" style="fill:rgb(0,0,0);font-family:URWPalladioL-Roma;font-size:9.96px;stroke:none;">,</text>
   <text y="289.152" x="413.223" svgx:width="0.5" style="fill:rgb(0,0,0);font-family:URWPalladioL-Ital;font-size:9.96px;stroke:none;">d</text>
   <text y="290.896" x="418.105" svgx:width="0.29" style="fill:rgb(0,0,0);font-family:URWPalladioL-Roma;font-size:7.57px;stroke:none;">i</text>
   <text y="289.152" x="423.145,428.027,433.709,439.7846,442.018,445.2,450.883,455.6638,457.893,463.409,468.291,474.0678,476.316,482.282,486.958,490.942,493.148,501.994,506.875,511.757,514.598" svgx:width="0.5,0.58,0.61,0.55,0.33,0.58,0.48,0.55,0.56,0.5,0.58,0.55,0.61,0.48,0.4,0.55,1.0,0.5,0.5,0.29,0.42" style="fill:rgb(0,0,0);font-family:URWPalladioL-Roma;font-size:9.96px;stroke:none;">and the van der Waals</text>
   <text y="302.661" x="76.207,79.525,85.153,91.241,101.203,104.4898,107.011,110.947,115.928,122.015,124.914,127.8024,130.304,135.743,139.0298,141.552,144.799,150.598,155.3788,157.86,162.842,166.09,171.529,180.326,184.5092,187.041,190.358,194.583,199.355,204.1358,206.617,211.848,216.62,221.043,224.291,227.19,232.63" svgx:width="0.33,0.56,0.61,1.0,0.33,0.55,0.4,0.5,0.61,0.29,0.29,0.55,0.55,0.33,0.55,0.33,0.58,0.48,0.55,0.5,0.33,0.55,0.88,0.42,0.55,0.33,0.42,0.48,0.48,0.55,0.52,0.48,0.44,0.33,0.29,0.55,0.58" style="fill:rgb(0,0,0);font-family:URWPalladioL-Roma;font-size:9.96px;stroke:none;">(vdW) radii of the atoms (see Section</text>
   <text y="302.661" x="240.919" svgx:width="0.5" style="fill:rgb(8,117,183);font-family:URWPalladioL-Roma;font-size:9.96px;stroke:none;">4</text>
   <text y="302.661" x="248.391,251.708,257.148,261.132,263.574,272.371,277.81,281.566,286.3468,288.829,294.916,299.688,302.936,307.917,310.816,313.715,317.033" svgx:width="0.33,0.55,0.4,0.55,0.88,0.55,0.4,0.48,0.55,0.61,0.48,0.33,0.5,0.29,0.29,0.33,0.25" style="fill:rgb(0,0,0);font-family:URWPalladioL-Roma;font-size:9.96px;stroke:none;">for more detail).</text>
   <text y="316.171" x="97.795,105.993,110.712,114.427,119.146" svgx:width="0.83,0.48,0.4,0.48,0.25" style="fill:rgb(0,0,0);font-family:URWPalladioL-Roma;font-size:9.96px;stroke:none;">Here,</text>
   <text y="316.171" x="124.102" svgx:width="0.5" style="fill:rgb(0,0,0);font-family:URWPalladioL-Ital;font-size:9.96px;stroke:none;">d</text>
   <text y="317.665" x="129.084" svgx:width="0.48" style="fill:rgb(0,0,0);font-family:URWPalladioL-Roma;font-size:7.57px;stroke:none;">e</text>
   <text y="316.171" x="135.702,140.628,146.363" svgx:width="0.5,0.58,0.61" style="fill:rgb(0,0,0);font-family:URWPalladioL-Roma;font-size:9.96px;stroke:none;">and</text>
   <text y="316.171" x="154.877" svgx:width="0.5" style="fill:rgb(0,0,0);font-family:URWPalladioL-Ital;font-size:9.96px;stroke:none;">d</text>
   <text y="317.915" x="159.859" svgx:width="0.29" style="fill:rgb(0,0,0);font-family:URWPalladioL-Roma;font-size:7.57px;stroke:none;">i</text>
   <text y="316.171" x="165.054,169.98,173.695,178.4758,180.907,184.12,189.854,194.6348,197.066,203.087,205.954,210.132,213.344,218.27,224.005,228.379,233.099,237.2822,239.769,243.05,246.765,252.145,263.338,266.55,272.284,277.0648,279.497,287.694,290.562,294.454,298.631,304.366,307.647,312.366,315.234,321.3096,323.747,327.924,333.866,337.758,341.039,345.965,350.34,355.1208,357.552,360.764,366.242,368.637,371.849,377.583,382.3638,384.796,390.53,395.25,400.176,403.891,408.611,412.788,416.07480000000004,418.493,423.42,426.632,432.011,443.204,448.584,454.525,457.738,461.915,464.782,470.803,475.5838,478.015,481.296,486.016,491.1,494.312,499.032,502.923,508.658,513.584,516.452" svgx:width="0.5,0.4,0.48,0.55,0.33,0.58,0.48,0.55,0.61,0.29,0.42,0.33,0.5,0.58,0.44,0.48,0.42,0.55,0.33,0.4,0.55,0.88,0.33,0.58,0.48,0.55,0.83,0.29,0.4,0.42,0.58,0.33,0.48,0.29,0.61,0.55,0.42,0.6,0.4,0.33,0.5,0.44,0.48,0.55,0.33,0.55,0.55,0.33,0.58,0.48,0.55,0.58,0.48,0.5,0.4,0.48,0.42,0.33,0.55,0.5,0.33,0.55,0.88,0.55,0.6,0.33,0.42,0.29,0.61,0.48,0.55,0.33,0.48,0.52,0.33,0.48,0.4,0.58,0.5,0.29,0.33" style="fill:rgb(0,0,0);font-family:URWPalladioL-Roma;font-size:9.96px;stroke:none;">are the distances fromthe Hirshfeld surface to the nearest atomoutside (external)</text>
   <text y="329.68" x="76.535,81.616,87.53,93.6056,96.412,99.369,105.283,109.592,112.549,118.758,123.5388,126.287,129.671,132.628,138.543,141.855,146.723,150.737,156.651,161.732,164.689,167.9758,170.746,174.058,179.972,184.7528,187.502,191.811,197.939,201.953,205.336,210.417,214.929,219.797,222.287,225.05,229.562,235.111,239.125,242.956,247.823,252.132,258.239,263.787,269.702,275.91,278.868,284.782,290.432,293.389,297.941,300.431,304.099,310.329,316.243,321.0238,323.783,328.295,333.843,336.8,342.349,346.33299999999997,349.025,354.573,357.8598,360.63,363.943,369.857,374.6378,377.387,385.841,388.799,392.812,397.121,403.035,406.419,411.287,414.244,420.31960000000004,423.125,427.434,433.561,437.575,440.959,446.04,450.552,455.3328,458.082,462.594,468.508,473.589,479.503,485.153,490.021,494.2042,497.002,500.386,504.217,509.765" svgx:width="0.5,0.58,0.61,0.55,0.29,0.58,0.42,0.29,0.61,0.48,0.55,0.33,0.29,0.58,0.33,0.48,0.4,0.58,0.5,0.29,0.33,0.55,0.33,0.58,0.48,0.55,0.42,0.6,0.4,0.33,0.5,0.44,0.48,0.25,0.55,0.44,0.55,0.4,0.4,0.48,0.42,0.6,0.55,0.58,0.61,0.29,0.58,0.56,0.29,0.56,0.25,0.55,0.61,0.58,0.48,0.55,0.44,0.55,0.29,0.55,0.4,0.55,0.55,0.33,0.55,0.33,0.58,0.48,0.55,0.83,0.29,0.4,0.42,0.58,0.33,0.48,0.29,0.61,0.55,0.42,0.6,0.4,0.33,0.5,0.44,0.48,0.55,0.44,0.58,0.5,0.58,0.56,0.48,0.42,0.55,0.33,0.4,0.55,0.88" style="fill:rgb(0,0,0);font-family:URWPalladioL-Roma;font-size:9.96px;stroke:none;">and inside (internal) the surface, correspondingly. The color of the Hirshfeld surface changes from</text>
   <text y="343.189" x="76.535,80.313,85.114,91.1896,93.723,97.061,101.31,107.143,112.616,120.974,123.891,129.724,135.30159999999998,137.782,141.049,146.882,151.6628,154.168,160.292,163.208,167.458,170.725,175.736,181.569,186.019,190.82,195.0032,197.555,201.805,207.638,213.11,217.069,220.336,225.137,229.121,231.591,234.858,240.691,245.703,251.4798,254.021,257.288,263.121,267.9018,270.408,274.657,280.701,292.036,297.508,300.7948,303.331,308.994,315.118,327.625,331.584,336.595,342.719,345.636,348.552,351.83880000000005,354.375,357.642,363.475,367.254,372.726,378.77,384.342,390.11879999999996,392.661,401.019,406.852,409.769,413.036,417.8168,420.322,423.66,429.783,432.7,436.949,440.217,445.228,451.061,455.511,460.312,464.4952,467.047,472.058,475.846,480.6268,483.133,487.933,493.546,499.589,504.6,507.4884,510.002,513.27" svgx:width="0.4,0.48,0.61,0.55,0.33,0.42,0.58,0.55,0.83,0.29,0.58,0.56,0.55,0.33,0.58,0.48,0.55,0.61,0.29,0.42,0.33,0.5,0.58,0.44,0.48,0.42,0.55,0.42,0.58,0.55,0.4,0.33,0.48,0.4,0.55,0.33,0.58,0.5,0.58,0.55,0.33,0.58,0.48,0.55,0.42,0.6,0.88,0.55,0.33,0.55,0.56,0.61,1.0,0.4,0.5,0.61,0.29,0.29,0.33,0.55,0.33,0.58,0.4,0.55,0.6,0.56,0.58,0.55,0.83,0.58,0.29,0.33,0.48,0.55,0.33,0.61,0.29,0.42,0.33,0.5,0.58,0.44,0.48,0.42,0.55,0.5,0.4,0.48,0.55,0.48,0.56,0.6,0.5,0.29,0.55,0.33,0.55" style="fill:rgb(0,0,0);font-family:URWPalladioL-Roma;font-size:9.96px;stroke:none;">red (showing the distances shorter than the sumof vdWradii) through white (distances are equal to</text>
   <text y="356.699" x="76.535,79.848,85.762,90.5428,93.241,97.55,103.677,112.4418,115.252,120.8,124.0868,126.796,132.537,138.746,151.509,155.523,160.604,166.813,169.77,172.727,176.0138,178.723,182.035,187.513,190.185,195.805,198.762,204.889,209.6698,212.368,215.752,221.961,224.918,229.227,232.54,237.621,243.535,248.047,252.914,257.0972,259.824,264.905,268.746,273.5268,276.215,279.172,284.721,290.635,296.285,301.153,305.137,307.778,311.091,317.005,322.086,327.8628,330.602,333.914,339.829,344.6098,347.308,351.616,357.744,366.5088,369.318,374.867,378.15380000000005,380.862,386.604,392.813,405.576,409.59,414.671,420.88,423.837,426.794,430.178,432.668,436.163,442.392,448.306,453.0868,455.775,459.159,463.173,468.254,472.766,476.079,479.036,484.584,490.3608,493.11,498.658,501.94480000000004,504.644,507.957,513.871" svgx:width="0.33,0.58,0.48,0.55,0.42,0.6,0.88,0.55,0.55,0.33,0.55,0.56,0.61,1.0,0.4,0.5,0.61,0.29,0.29,0.33,0.55,0.33,0.55,0.55,0.55,0.29,0.6,0.48,0.55,0.33,0.61,0.29,0.42,0.33,0.5,0.58,0.44,0.48,0.42,0.55,0.5,0.4,0.48,0.55,0.29,0.55,0.58,0.56,0.48,0.4,0.55,0.33,0.58,0.5,0.58,0.55,0.33,0.58,0.48,0.55,0.42,0.6,0.88,0.55,0.55,0.33,0.55,0.56,0.61,1.0,0.4,0.5,0.61,0.29,0.29,0.33,0.25,0.55,0.61,0.58,0.48,0.55,0.33,0.4,0.5,0.44,0.33,0.29,0.55,0.58,0.55,0.55,0.33,0.55,0.33,0.58,0.48" style="fill:rgb(0,0,0);font-family:URWPalladioL-Roma;font-size:9.96px;stroke:none;">the sum of vdWradii) to blue (distances are longer than the sum of vdWradii). The fraction of the</text>
   <text y="370.208" x="76.535,80.958,86.398,90.333,94.089,98.861,103.085,109.073,114.512,120.311,126.398,129.297,135.095,140.6726,143.125,148.106,151.354,156.794,165.591,168.49,172.8724,175.404,179.827,185.267,191.065,194.313,199.294,203.718,206.965,211.1482,213.68,216.579,220.7622,223.294,228.275,231.174,235.399,240.877,243.329,248.868,251.767,257.396,262.168,267.9448,270.457,273.356,279.1328,281.645,287.632,292.405,296.16,300.584,305.356,311.154,314.402" svgx:width="0.44,0.55,0.4,0.4,0.48,0.42,0.6,0.55,0.58,0.61,0.29,0.58,0.56,0.55,0.5,0.33,0.55,0.88,0.29,0.44,0.55,0.44,0.55,0.58,0.33,0.5,0.44,0.33,0.42,0.55,0.29,0.42,0.55,0.5,0.29,0.42,0.55,0.55,0.56,0.29,0.56,0.48,0.58,0.55,0.29,0.58,0.55,0.6,0.48,0.4,0.44,0.48,0.58,0.33,0.25" style="fill:rgb(0,0,0);font-family:URWPalladioL-Roma;font-size:9.96px;stroke:none;">corresponding atomic contacts is also given in percent.</text>
   <text y="383.718" x="97.795,103.367,108.84,112.824,115.294,120.095,125.266,130.278,139.127,145.151,148.067,152.868,155.358,157.879,161.146,166.979,171.7598,174.276,178.726,184.198,190.031,193.298,198.309,202.759,206.027,210.2102,212.772,218.314,223.115,226.382,234.741,239.541,244.342,250.11880000000002,252.671,258.143,263.315,268.887,274.459,279.26,285.03679999999997,287.589,292.6,298.433,304.5086,307.062,312.895,318.468,324.591,328.37,333.842,339.414,344.215,349.99179999999996,352.544,357.555,360.822,366.294,375.144,379.3272,381.889,385.227,390.799,393.716,399.288,405.332,409.11" svgx:width="0.56,0.55,0.4,0.55,0.48,0.52,0.5,0.88,0.6,0.29,0.48,0.25,0.55,0.33,0.58,0.48,0.55,0.44,0.55,0.58,0.33,0.5,0.44,0.33,0.42,0.55,0.55,0.48,0.33,0.83,0.48,0.48,0.58,0.55,0.55,0.52,0.56,0.56,0.48,0.58,0.55,0.5,0.58,0.61,0.55,0.58,0.56,0.61,0.4,0.55,0.56,0.48,0.58,0.55,0.5,0.33,0.55,0.88,0.42,0.55,0.33,0.56,0.29,0.56,0.6,0.4,0.48" style="fill:rgb(0,0,0);font-family:URWPalladioL-Roma;font-size:9.96px;stroke:none;">For example, the contacts between oxygen and hydrogen atoms (Figure</text>
   <text y="383.718" x="416.416" svgx:width="0.5" style="fill:rgb(8,117,183);font-family:URWPalladioL-Roma;font-size:9.96px;stroke:none;">4</text>
   <text y="383.718" x="421.428,426.439,429.72580000000005,432.272,437.283,441.061,445.8418,448.358,452.607,458.44,463.912,467.871,471.139,475.939,479.923,482.394,485.661,491.494,496.505,502.2818,504.844,508.111,513.944" svgx:width="0.5,0.33,0.55,0.5,0.4,0.48,0.55,0.42,0.58,0.55,0.4,0.33,0.48,0.4,0.55,0.33,0.58,0.5,0.58,0.55,0.33,0.58,0.48" style="fill:rgb(0,0,0);font-family:URWPalladioL-Roma;font-size:9.96px;stroke:none;">a) are shorter than the</text>
   <text y="397.227" x="76.535,80.806,86.879,98.271,103.77,107.0568,109.622,115.313,121.467,134.027,138.006,143.042,149.196,152.127,155.058,157.548,160.074,163.005,168.867,175.021,177.952,182.424,187.46,190.744,193.675,199.537,205.1146,207.635,210.918,216.78,221.5608,224.103,229.965,235.565,241.719,245.516,251.016,256.616,261.44,267.302,270.656,276.226,281.726,287.588,293.742,298.566,304.6416,307.218,312.254,316.233,325.127,329.3102,331.895,336.931,339.862,345.362,351.224,356.8016,359.312,362.595,368.457,373.2378,375.78,384.673,390.173,393.104,397.928,402.4,408.474,411.405,416.441,420.42499999999995,422.918,427.188,430.472,435.508,439.98,445.58,448.07,451.2,457.374,463.236,468.0168,470.559,476.713,479.644,483.915,487.198,492.234,498.096,502.568,507.3488,509.891,515.39" svgx:width="0.42,0.6,0.88,0.55,0.33,0.55,0.56,0.61,1.0,0.4,0.5,0.61,0.29,0.29,0.25,0.55,0.29,0.58,0.61,0.29,0.44,0.5,0.33,0.29,0.58,0.56,0.55,0.33,0.58,0.48,0.55,0.58,0.56,0.61,0.4,0.55,0.56,0.48,0.58,0.33,0.55,0.55,0.58,0.61,0.48,0.61,0.55,0.5,0.4,0.88,0.42,0.55,0.5,0.29,0.55,0.58,0.56,0.55,0.33,0.58,0.48,0.55,0.88,0.55,0.29,0.48,0.44,0.6,0.29,0.5,0.4,0.55,0.42,0.33,0.5,0.44,0.56,0.25,0.55,0.61,0.58,0.48,0.55,0.61,0.29,0.42,0.33,0.5,0.58,0.44,0.48,0.55,0.55,0.33" style="fill:rgb(0,0,0);font-family:URWPalladioL-Roma;font-size:9.96px;stroke:none;">sumof vdWradii, indicating the hydrogen-bonded arms along the molecular stack. The distance of</text>
   <text y="410.736" x="76.535,79.809,85.653,90.4338,92.944,97.202,102.012,108.048,113.069,117.036,122.057,125.331,128.253,133.736,139.5128,142.061,147.614,152.425,155.698,164.074,168.884,173.694,179.4708,182.019,185.293,193.668,199.14600000000002,201.632,207.667,212.688,216.655,219.929,222.851,227.31,230.232,236.268,241.289,244.563,247.485,253.33,258.9076,261.394,266.415,269.689,275.172,284.039,288.2222,290.777,293.7,297.8832,300.438,305.459,307.97,312.991" svgx:width="0.33,0.58,0.48,0.55,0.42,0.48,0.6,0.5,0.4,0.5,0.33,0.29,0.55,0.58,0.55,0.55,0.48,0.33,0.83,0.48,0.48,0.58,0.55,0.33,0.83,0.55,0.55,0.6,0.5,0.4,0.33,0.29,0.44,0.29,0.6,0.5,0.33,0.29,0.58,0.56,0.55,0.5,0.33,0.55,0.88,0.42,0.55,0.29,0.42,0.55,0.5,0.25,0.5,0.5" style="fill:rgb(0,0,0);font-family:URWPalladioL-Roma;font-size:9.96px;stroke:none;">the separation between two participating atoms is 2.24</text>
   <text y="408.39" x="324.147" svgx:width="0.33" style="fill:rgb(0,0,0);font-family:URWPalladioL-Roma;font-size:9.96px;stroke:none;">˚</text>
   <text y="410.736" x="321.113" svgx:width="0.72" style="fill:rgb(0,0,0);font-family:URWPalladioL-Ital;font-size:9.96px;stroke:none;">A</text>
   <text y="410.736" x="328.431,330.921,334.025,339.287,347.662,353.14,355.626,359.883,365.728,370.749,374.716,380.692,383.232,386.154,391.175,394.449,399.259,403.226,408.247,411.1354,413.65,417.908,423.943,426.866,432.449,437.259,441.4422,443.998,452.373,455.295,458.569,464.3458,466.894,471.874,474.396,483.263,486.185,492.03,494.952,503.82,509.875" svgx:width="0.25,0.55,0.61,0.83,0.55,0.55,0.42,0.58,0.5,0.4,0.6,0.55,0.29,0.5,0.33,0.48,0.4,0.5,0.29,0.55,0.42,0.6,0.29,0.56,0.48,0.42,0.55,0.83,0.29,0.33,0.58,0.55,0.5,0.55,0.88,0.29,0.58,0.29,0.88,0.6,0.88" style="fill:rgb(0,0,0);font-family:URWPalladioL-Roma;font-size:9.96px;stroke:none;">. Two sharp lateral spikes with a minimum</text>
   <text y="424.246" x="76.535" svgx:width="0.5" style="fill:rgb(0,0,0);font-family:URWPalladioL-Ital;font-size:9.96px;stroke:none;">d</text>
   <text y="425.74" x="81.517" svgx:width="0.48" style="fill:rgb(0,0,0);font-family:URWPalladioL-Roma;font-size:7.57px;stroke:none;">e</text>
   <text y="424.246" x="88.132" svgx:width="0.61" style="fill:rgb(0,0,0);font-family:URWPalladioL-Roma;font-size:9.96px;stroke:none;">+</text>
   <text y="424.246" x="96.66" svgx:width="0.5" style="fill:rgb(0,0,0);font-family:URWPalladioL-Ital;font-size:9.96px;stroke:none;">d</text>
   <text y="425.99" x="101.641" svgx:width="0.29" style="fill:rgb(0,0,0);font-family:URWPalladioL-Roma;font-size:7.57px;stroke:none;">i</text>
   <text y="424.246" x="106.958" svgx:width="0.78" style="fill:rgb(0,0,0);font-family:CMSY10;font-size:10.38px;stroke:none;">≈</text>
   <text y="424.246" x="117.643,122.624,125.115,130.096" svgx:width="0.5,0.25,0.5,0.5" style="fill:rgb(0,0,0);font-family:URWPalladioL-Roma;font-size:9.96px;stroke:none;">2.24</text>
   <text y="421.9" x="141.224" svgx:width="0.33" style="fill:rgb(0,0,0);font-family:URWPalladioL-Roma;font-size:9.96px;stroke:none;">˚</text>
   <text y="424.246" x="138.191" svgx:width="0.72" style="fill:rgb(0,0,0);font-family:URWPalladioL-Ital;font-size:9.96px;stroke:none;">A</text>
   <text y="424.246" x="148.74,153.252,158.8,162.814,166.645,171.513,175.821,181.929,187.477,193.391,199.4666,202.832,206.144,211.622,214.924,218.237,224.151,228.9318,232.25" svgx:width="0.44,0.55,0.4,0.4,0.48,0.42,0.6,0.55,0.58,0.61,0.55,0.33,0.55,0.55,0.33,0.58,0.48,0.55,0.79" style="fill:rgb(0,0,0);font-family:URWPalladioL-Roma;font-size:9.96px;stroke:none;">correspond to the O</text>
   <text y="424.246" x="240.366,243.2724,245.15,248.0564,249.944" svgx:width="0.28,0.55,0.28,0.55,0.28" style="fill:rgb(0,0,0);font-family:CMSY10;font-size:10.38px;stroke:none;">· · ·</text>
   <text y="424.246" x="252.947,261.2138,264.633,269.145,274.693,280.608,283.92,289.001,293.513,296.826,301.0092,304.366,307.75,313.4,316.357,322.007,328.135,331.966" svgx:width="0.83,0.55,0.44,0.55,0.58,0.33,0.5,0.44,0.33,0.42,0.55,0.33,0.56,0.29,0.56,0.6,0.4,0.48" style="fill:rgb(0,0,0);font-family:URWPalladioL-Roma;font-size:9.96px;stroke:none;">H contacts (Figure</text>
   <text y="424.246" x="340.065" svgx:width="0.5" style="fill:rgb(8,117,183);font-family:URWPalladioL-Roma;font-size:9.96px;stroke:none;">4</text>
   <text y="424.246" x="345.146,350.227,353.61,356.1,361.466,367.695,373.609,378.3898,381.708" svgx:width="0.5,0.33,0.25,0.55,0.61,0.58,0.48,0.55,0.79" style="fill:rgb(0,0,0);font-family:URWPalladioL-Roma;font-size:9.96px;stroke:none;">a). The O</text>
   <text y="424.246" x="389.82,392.7264,394.614,397.5204,399.398" svgx:width="0.28,0.55,0.28,0.55,0.28" style="fill:rgb(0,0,0);font-family:CMSY10;font-size:10.38px;stroke:none;">· · ·</text>
   <text y="424.246" x="402.401,410.6678,414.087,418.599,424.147,430.062,433.374,438.455,442.967,446.28,450.4632,453.82,458.332,463.88,472.853,478.96,482.974,485.931,490.24,495.0208,498.339,503.42,505.96,511.041" svgx:width="0.83,0.55,0.44,0.55,0.58,0.33,0.5,0.44,0.33,0.42,0.55,0.44,0.55,0.88,0.6,0.4,0.29,0.42,0.48,0.55,0.5,0.25,0.5,0.84" style="fill:rgb(0,0,0);font-family:URWPalladioL-Roma;font-size:9.96px;stroke:none;">H contacts comprise 5.0%</text>
   <text y="437.755" x="76.535,81.975,85.2618,87.783,91.031,96.829,101.60979999999999,104.092,108.316,114.323,118.258,121.576,126.557,130.981,135.753" svgx:width="0.55,0.33,0.55,0.33,0.58,0.48,0.55,0.42,0.6,0.4,0.33,0.5,0.44,0.48,0.25" style="fill:rgb(0,0,0);font-family:URWPalladioL-Roma;font-size:9.96px;stroke:none;">of the surface.</text>
   <text y="451.264" x="97.795,104.024,109.938,114.7188,117.865,126.319,129.276,133.29,137.599,143.513,146.897,151.765,154.722,160.79760000000002,163.989,168.298,174.426,178.439,181.823,186.904,191.416,196.1968,199.342,205.45,209.291,214.839,220.581,223.538,229.747,234.614,238.7972,241.981,246.849,252.59,255.548,261.756,266.624,272.538,277.05,281.8308,284.976,288.36,293.909,297.893,300.981,308.186,313.267" svgx:width="0.61,0.58,0.48,0.55,0.83,0.29,0.4,0.42,0.58,0.33,0.48,0.29,0.61,0.55,0.42,0.6,0.4,0.33,0.5,0.44,0.48,0.55,0.6,0.4,0.55,0.56,0.29,0.61,0.48,0.42,0.55,0.48,0.56,0.29,0.61,0.48,0.58,0.44,0.48,0.55,0.33,0.55,0.4,0.55,0.71,0.5,0.83" style="fill:rgb(0,0,0);font-family:URWPalladioL-Roma;font-size:9.96px;stroke:none;">The Hirshfeld surface provides evidence for C–H</text>
   <text y="451.264" x="321.848,324.75440000000003,326.632,329.5384,331.426" svgx:width="0.28,0.55,0.28,0.55,0.28" style="fill:rgb(0,0,0);font-family:CMSY10;font-size:10.38px;stroke:none;">· · ·</text>
   <text y="451.264" x="334.553" svgx:width="0.68" style="fill:rgb(0,0,0);font-family:PazoMath-Italic;font-size:9.96px;stroke:none;">π</text>
   <text y="451.264" x="344.742,347.699,353.613,356.926,361.794,365.807,370.888,375.4,378.713,381.67,387.219,393.133,397.3162,400.5,403.884,409.503,414.371,417.684,426.159,431.026,435.894,441.6708,444.867,450.781,456.431,462.64,466.481,472.029,477.679,482.547,488.3238,491.52,496.601,499.913,505.462,514.435" svgx:width="0.29,0.58,0.33,0.48,0.4,0.5,0.44,0.33,0.29,0.55,0.58,0.42,0.55,0.33,0.55,0.48,0.33,0.83,0.48,0.48,0.58,0.55,0.58,0.56,0.61,0.4,0.55,0.56,0.48,0.58,0.55,0.5,0.33,0.55,0.88,0.42" style="fill:rgb(0,0,0);font-family:URWPalladioL-Roma;font-size:9.96px;stroke:none;">interactions (between hydrogen atoms</text>
   <text y="464.774" x="76.535,82.083,85.3698,88.811,92.123,98.037,102.8178,106.238,112.345,118.26,123.127,129.041,134.691,137.5794,140.992,145.006,147.963,153.877,159.4546,162.87,168.418,171.7048,175.146,180.227,186.0038,189.474,194.555,199.636,205.184,210.804,215.671,221.585,226.666,231.534,237.448,242.2288,245.659,250.74,254.754,263.5188,267.07,272.151,278.065,284.1406,287.607,290.92,296.834,301.6148,305.045,309.556,314.637,318.651,324.271,329.819,335.5958,339.077,344.158,347.47,353.019,361.992,366.1752,369.633,375.182,378.46880000000004,381.909,385.222,391.136,395.9168,399.347,403.361,406.318,412.232,417.80960000000005,421.215,424.599,428.44,433.988,442.7528,446.305,449.617,455.532,460.3128,463.732,469.646,474.514,477.471,483.121,489.035,494.655,500.203,504.217,507.174,513.088" svgx:width="0.55,0.33,0.55,0.33,0.58,0.48,0.55,0.6,0.58,0.48,0.58,0.56,0.29,0.55,0.4,0.29,0.58,0.56,0.55,0.55,0.33,0.55,0.5,0.58,0.55,0.5,0.5,0.55,0.55,0.48,0.58,0.5,0.48,0.58,0.48,0.55,0.5,0.4,0.88,0.55,0.5,0.58,0.61,0.55,0.33,0.58,0.48,0.55,0.44,0.5,0.4,0.55,0.55,0.58,0.55,0.5,0.33,0.55,0.88,0.42,0.55,0.55,0.33,0.55,0.33,0.58,0.48,0.55,0.4,0.29,0.58,0.56,0.55,0.33,0.4,0.55,0.88,0.55,0.33,0.58,0.48,0.55,0.58,0.48,0.29,0.56,0.58,0.55,0.55,0.4,0.29,0.58,0.56" style="fill:rgb(0,0,0);font-family:URWPalladioL-Roma;font-size:9.96px;stroke:none;">of the phenyl ring of an azobenzene arm and the carbon atoms of the ring from the neighboring</text>
   <text y="478.283" x="76.535,80.839,84.149,89.225,93.235,96.5218,99.113,104.727,109.59,115.234,120.777,126.685,132.7606,135.396,141.598,144.553,148.857,154.958,159.821,163.831,168.135,171.09,176.633,182.541,185.031,187.576,196.043,201.951,204.906,209.413,215.18980000000002,217.829,221.21,227.331,231.341,234.651,240.559,245.422,249.406,251.929,254.883,257.838,263.746,269.39,273.5732,276.202,279.512,285.42,290.2008,292.78,297.085,300.394,305.47,309.48,313.6632,316.282,319.236,325.145,328.454,333.932,336.505,341.012,346.555,349.509,355.631,364.595,370.503,374.808,377.298,380.462,386.685,392.594,397.457,401.761,406.5418,409.121,413.629,419.171,425.08,428.389,433.465,437.973,441.282,445.4652,448.094,454.003,459.079,464.814,469.5948,472.174,475.484,481.392,486.1728,488.763,491.717,496.793,500.62,506.264,511.127,515.432" svgx:width="0.42,0.33,0.5,0.4,0.33,0.55,0.55,0.48,0.56,0.55,0.58,0.61,0.55,0.61,0.29,0.42,0.6,0.48,0.4,0.42,0.29,0.55,0.58,0.25,0.55,0.83,0.58,0.29,0.44,0.58,0.55,0.33,0.6,0.4,0.33,0.58,0.48,0.4,0.55,0.29,0.29,0.58,0.56,0.42,0.55,0.33,0.58,0.48,0.55,0.42,0.33,0.5,0.4,0.42,0.55,0.29,0.58,0.33,0.55,0.55,0.44,0.55,0.29,0.6,0.88,0.58,0.42,0.25,0.55,0.61,0.58,0.48,0.42,0.48,0.55,0.44,0.55,0.58,0.33,0.5,0.44,0.33,0.42,0.55,0.58,0.5,0.56,0.48,0.55,0.33,0.58,0.48,0.55,0.29,0.5,0.4,0.56,0.48,0.42,0.33" style="fill:rgb(0,0,0);font-family:URWPalladioL-Roma;font-size:9.96px;stroke:none;">star) beyond dispersion, which further links the stars into columns. These contacts have the largest</text>
   <text y="491.793" x="76.535,79.79,83.65,88.537,92.876,96.062,98.906,104.242,110.0188,112.432,117.769,121.0558,123.525,128.412,133.298,135.742,140.628,151.34,154.594,158.279,163.615,174.747,177.933,183.621,188.4018,190.805,193.649,199.337,202.523,207.204,211.065,219.694,225.031,227.875,232.556,236.895,242.789,245.633,250.52,254.50400000000002,256.882,259.726,265.414,268.6,273.282,277.142,282.029,286.368,289.554,292.398,297.734,303.422,307.6052,310.068,312.912,318.68879999999996,321.102,324.288,329.977,334.7578,337.16,341.499,345.36,350.794,354.938,358.124,363.01,365.854,368.344,371.415,377.406,383.094,387.8748,390.278,394.422,399.103,404.977,409.864,413.724,418.611,421.797,424.641,429.977,435.75379999999996,438.167,443.503,446.7898,449.26,452.446,458.134,462.815,466.959,471.7398,474.143,478.482,483.818,489.506,492.692,497.579,501.918,505.104,509.2872,511.75,514.594" svgx:width="0.33,0.4,0.5,0.44,0.33,0.29,0.55,0.58,0.55,0.55,0.33,0.55,0.5,0.5,0.25,0.5,0.84,0.33,0.4,0.55,0.88,0.33,0.58,0.48,0.55,0.29,0.58,0.33,0.48,0.4,0.88,0.55,0.29,0.48,0.44,0.6,0.29,0.5,0.4,0.55,0.29,0.58,0.33,0.48,0.4,0.5,0.44,0.33,0.29,0.55,0.58,0.42,0.55,0.29,0.58,0.55,0.33,0.58,0.48,0.55,0.44,0.4,0.56,0.42,0.33,0.5,0.29,0.25,0.55,0.61,0.58,0.48,0.55,0.42,0.48,0.6,0.5,0.4,0.5,0.33,0.29,0.55,0.58,0.55,0.55,0.33,0.55,0.33,0.58,0.48,0.42,0.48,0.55,0.44,0.55,0.58,0.33,0.5,0.44,0.33,0.42,0.55,0.29,0.42" style="fill:rgb(0,0,0);font-family:URWPalladioL-Roma;font-size:9.96px;stroke:none;">fraction of 13.3%fromthe intermolecular interactions in the crystal. The separation of these contacts is</text>
   <text y="505.302" x="76.535,81.516,84.007,88.988" svgx:width="0.5,0.25,0.5,0.5" style="fill:rgb(0,0,0);font-family:URWPalladioL-Roma;font-size:9.96px;stroke:none;">2.57</text>
   <text y="502.956" x="100.117" svgx:width="0.33" style="fill:rgb(0,0,0);font-family:URWPalladioL-Roma;font-size:9.96px;stroke:none;">˚</text>
   <text y="505.302" x="97.083" svgx:width="0.72" style="fill:rgb(0,0,0);font-family:URWPalladioL-Ital;font-size:9.96px;stroke:none;">A</text>
   <text y="505.302" x="106.891,110.209,115.748,118.647,124.186,130.194,133.949" svgx:width="0.33,0.56,0.29,0.56,0.6,0.4,0.48" style="fill:rgb(0,0,0);font-family:URWPalladioL-Roma;font-size:9.96px;stroke:none;">(Figure</text>
   <text y="505.302" x="141.212" svgx:width="0.5" style="fill:rgb(8,117,183);font-family:URWPalladioL-Roma;font-size:9.96px;stroke:none;">4</text>
   <text y="505.302" x="146.193,150.617,153.934" svgx:width="0.44,0.33,0.25" style="fill:rgb(0,0,0);font-family:URWPalladioL-Roma;font-size:9.96px;stroke:none;">c).</text>
   <text y="518.811" x="97.795,105.5638,108.211,113.952,118.82,122.834,128.4116,131.004,135.313,144.285,149.366,152.324,155.2124,157.791,161.174,165.188,170.269,174.781,178.094,181.051,186.599,192.3758,195.034,200.582,203.8688,206.476,210.988,213.945,219.493,223.802,228.5828,231.19,235.701,241.25,247.164,250.477,255.558,260.07,263.382,267.5652,270.201,279.174,284.255,289.905,292.862,298.776,304.35360000000003,306.946,313.074,319.05,321.691,327.239,333.154,336.111,341.6886,344.271,350.429,355.51,363.8764,366.566,372.114,375.4008,378.008,381.321,387.235,392.0158,394.623,398.931,405.059,409.073,412.457,417.538,422.05,426.8308,429.427,434.975,439.487,443.999,450.127,454.141,458.3242,460.969,466.589,471.456,474.769,483.244,488.112,492.979,498.75579999999997,501.403,504.716,513.191" svgx:width="0.78,0.55,0.56,0.48,0.4,0.56,0.55,0.42,0.88,0.5,0.29,0.29,0.55,0.33,0.4,0.5,0.44,0.33,0.29,0.55,0.58,0.55,0.55,0.33,0.55,0.44,0.29,0.55,0.42,0.48,0.55,0.44,0.55,0.58,0.33,0.5,0.44,0.33,0.42,0.55,0.88,0.5,0.56,0.29,0.58,0.56,0.55,0.6,0.6,0.55,0.55,0.58,0.29,0.56,0.55,0.61,0.5,0.84,0.55,0.55,0.33,0.55,0.33,0.58,0.48,0.55,0.42,0.6,0.4,0.33,0.5,0.44,0.48,0.55,0.55,0.44,0.44,0.6,0.4,0.42,0.55,0.55,0.48,0.33,0.83,0.48,0.48,0.58,0.55,0.33,0.83,0.55" style="fill:rgb(0,0,0);font-family:URWPalladioL-Roma;font-size:9.96px;stroke:none;">A very small fraction of close contacts making up only &lt;1% of the surface occurs between two</text>
   <text y="532.321" x="76.535,82.327,87.861,93.942,97.694,103.128,108.662,113.429,119.2058,121.71,126.686,129.931,135.365,144.153,148.3362,150.861,156.295,159.5818,162.098,165.342,171.135,175.9158,178.39,184.372,190.164,194.932,200.724,206.258,209.1464,211.652,215.583,218.48,224.272,229.84959999999998,232.294,237.27,240.5568,243.003,246.247,252.04,256.8208,259.295,263.515,266.76,271.736,275.71999999999997,278.156,284.137,288.904,292.836,295.732,301.713,307.506,312.273,316.204,321.7816,324.226,332.527,335.423,338.668,344.4448,346.948,353.029,355.925,360.145,363.39,368.366,374.159,378.578,383.345,387.5282,390.053,395.487,398.77380000000005,401.29,406.266,408.754,413.73,418.71000000000004,421.195,426.629,430.613,433.058,438.035,440.523,445.499" svgx:width="0.58,0.56,0.61,0.4,0.55,0.56,0.48,0.58,0.55,0.5,0.33,0.55,0.88,0.42,0.55,0.55,0.33,0.55,0.33,0.58,0.48,0.55,0.6,0.58,0.48,0.58,0.56,0.29,0.55,0.4,0.29,0.58,0.56,0.55,0.5,0.33,0.55,0.33,0.58,0.48,0.55,0.42,0.33,0.5,0.4,0.55,0.6,0.48,0.4,0.29,0.6,0.58,0.48,0.4,0.56,0.55,0.83,0.29,0.33,0.58,0.55,0.61,0.29,0.42,0.33,0.5,0.58,0.44,0.48,0.42,0.55,0.55,0.33,0.55,0.5,0.25,0.5,0.5,0.55,0.55,0.4,0.55,0.5,0.25,0.5,0.5" style="fill:rgb(0,0,0);font-family:URWPalladioL-Roma;font-size:9.96px;stroke:none;">hydrogen atoms of the phenyl ring at the star periphery with distances of 2.04 or 2.30</text>
   <text y="529.975" x="456.617" svgx:width="0.33" style="fill:rgb(0,0,0);font-family:URWPalladioL-Roma;font-size:9.96px;stroke:none;">˚</text>
   <text y="532.321" x="453.583" svgx:width="0.72" style="fill:rgb(0,0,0);font-family:URWPalladioL-Ital;font-size:9.96px;stroke:none;">A</text>
   <text y="532.321" x="460.901,463.391,466.474,472.575,478.368,481.264,485.4472,487.972,491.217,496.75,502.732,507.5128,509.987,515.422" svgx:width="0.25,0.55,0.61,0.58,0.29,0.42,0.55,0.33,0.56,0.6,0.48,0.55,0.55,0.33" style="fill:rgb(0,0,0);font-family:URWPalladioL-Roma;font-size:9.96px;stroke:none;">. This type of</text>
   <text y="545.83" x="76.535,81.047,84.004,89.552,93.861,98.6418,101.371,105.882,111.431,117.345,120.658,125.739,130.251,133.5378,136.216,139.173,143.3562,146.123,151.672,157.4488,160.238,163.551,169.465,174.2458,176.975,181.283,187.391,190.348,195.998,200.865,205.0482,207.826,213.374,216.6608,219.4,222.713,228.627,233.4078,236.137,242.285,248.199,253.849,258.717,262.731,268.838,272.852,275.809,281.723,285.00980000000004,287.688,293.795,296.752,302.301,305.614,309.7972,312.564,317.645,321.8282,324.606,333.081,337.949,340.906,343.7944,346.505,349.889,355.539,358.496,364.146,370.273,374.104" svgx:width="0.44,0.29,0.55,0.42,0.48,0.55,0.44,0.55,0.58,0.33,0.5,0.44,0.33,0.55,0.29,0.42,0.55,0.55,0.58,0.55,0.33,0.58,0.48,0.55,0.42,0.6,0.29,0.56,0.48,0.42,0.55,0.55,0.33,0.55,0.33,0.58,0.48,0.55,0.61,0.58,0.56,0.48,0.4,0.6,0.4,0.29,0.58,0.33,0.55,0.6,0.29,0.55,0.33,0.42,0.55,0.5,0.42,0.55,0.83,0.48,0.29,0.29,0.55,0.33,0.56,0.29,0.56,0.6,0.4,0.48" style="fill:rgb(0,0,0);font-family:URWPalladioL-Roma;font-size:9.96px;stroke:none;">close contact is on the spikes of the ﬁngerprint plots as well (Figure</text>
   <text y="545.83" x="381.624" svgx:width="0.5" style="fill:rgb(8,117,183);font-family:URWPalladioL-Roma;font-size:9.96px;stroke:none;">4</text>
   <text y="545.83" x="386.705,392.914,396.298,398.788,402.395,408.624,414.538,419.3188,422.048" svgx:width="0.61,0.33,0.25,0.55,0.61,0.58,0.48,0.55,0.83" style="fill:rgb(0,0,0);font-family:URWPalladioL-Roma;font-size:9.96px;stroke:none;">d). The N</text>
   <text y="545.83" x="430.621,433.5274,435.405,438.3114,440.199" svgx:width="0.28,0.55,0.28,0.55,0.28" style="fill:rgb(0,0,0);font-family:CMSY10;font-size:10.38px;stroke:none;">· · ·</text>
   <text y="545.83" x="443.202,451.657,454.147,456.839" svgx:width="0.83,0.25,0.55,0.71" style="fill:rgb(0,0,0);font-family:URWPalladioL-Roma;font-size:9.96px;stroke:none;">H, C</text>
   <text y="545.83" x="464.173,467.0794,468.957,471.8634,473.751" svgx:width="0.28,0.55,0.28,0.55,0.28" style="fill:rgb(0,0,0);font-family:CMSY10;font-size:10.38px;stroke:none;">· · ·</text>
   <text y="545.83" x="476.754,483.959,486.449,489.141" svgx:width="0.71,0.25,0.55,0.83" style="fill:rgb(0,0,0);font-family:URWPalladioL-Roma;font-size:9.96px;stroke:none;">C, N</text>
   <text y="545.83" x="497.715,500.6214,502.499,505.40540000000004,507.293" svgx:width="0.28,0.55,0.28,0.55,0.28" style="fill:rgb(0,0,0);font-family:CMSY10;font-size:10.38px;stroke:none;">· · ·</text>
   <text y="545.83" x="510.296" svgx:width="0.83" style="fill:rgb(0,0,0);font-family:URWPalladioL-Roma;font-size:9.96px;stroke:none;">N</text>
   <text y="559.34" x="76.535,80.87,86.201,91.883,95.066,99.948,104.282,107.465,111.6482,114.095,118.976,122.657,127.4378,129.823,138.444,143.326,147.183,152.611,157.288,163.36360000000002,165.743,170.624,174.8072,177.254,182.653,185.494,191.381,196.058,198.548,200.988,209.609,214.286,219.168,224.85,227.691,233.373,238.95059999999998,241.291,244.474,250.157,255.038,258.32480000000004,260.711,263.894,269.576,274.253,278.392,283.1728,285.559,290.44,293.623,298.954,307.575,311.7582,314.204,319.086,322.767,327.5478,329.933,333.614,338.29,341.131,346.013,349.196,352.037,357.553,362.23,365.071,370.64860000000004,372.989,376.24,381.122,385.106,387.468,390.72,394.4,399.731,410.842,415.518,420.4,424.735,430.5118,432.907,438.238,441.421,447.103,451.78,455.76399999999995,458.126,460.967,466.74379999999996,469.139,472.322,478.004,482.7848,485.17,489.505,493.362,498.79,502.93,506.113,510.994,513.835,517.975" svgx:width="0.44,0.55,0.58,0.33,0.5,0.44,0.33,0.42,0.55,0.5,0.4,0.48,0.55,0.88,0.5,0.4,0.56,0.48,0.61,0.55,0.5,0.42,0.55,0.55,0.29,0.6,0.48,0.25,0.55,0.88,0.48,0.5,0.58,0.29,0.58,0.56,0.55,0.33,0.58,0.5,0.33,0.55,0.33,0.58,0.48,0.42,0.48,0.55,0.5,0.33,0.55,0.88,0.42,0.55,0.5,0.4,0.48,0.55,0.4,0.48,0.29,0.5,0.33,0.29,0.56,0.48,0.29,0.56,0.55,0.33,0.5,0.4,0.55,0.33,0.4,0.55,0.88,0.48,0.5,0.44,0.58,0.55,0.55,0.33,0.58,0.48,0.4,0.55,0.29,0.58,0.55,0.33,0.58,0.48,0.55,0.44,0.4,0.56,0.42,0.33,0.5,0.29,0.42,0.25" style="fill:rgb(0,0,0);font-family:URWPalladioL-Roma;font-size:9.96px;stroke:none;">contacts are marked as blue, meaning that these atoms are relatively far fromeach other in the crystals.</text>
   <text y="572.849" x="97.795,103.975,109.843,114.673,118.473,123.2538,125.793,130.834,134.635,139.4158,141.945,145.232,153.64,159.118,161.625,164.559,173.462,179.521,185.026,189.008,192.295,197.336,203.204,206.4908,208.981,213.457,218.962,224.83,229.307,232.24,238.32,242.595,245.529,251.034,256.901,261.0842,263.656,267.014,270.815,276.32,287.702,290.989,296.857,301.6378,304.177,312.565,315.499,319.481,323.756,329.624,332.981,337.811,340.744,346.81960000000004,349.385,353.66,359.739,363.722,367.079,372.12,376.597,381.3778,383.906,388.947,394.815,399.856,402.79,408.396,412.67,415.604,419.879,422.369,425.485,431.091,434.024,438.007,442.282,445.5688,448.059,453.564,456.85080000000005,459.401,464.442,467.376,470.31,472.8,475.311,478.598,484.465,489.2458,491.785,497.481,500.415,504.69,510.77,515.811" svgx:width="0.61,0.58,0.48,0.4,0.48,0.55,0.5,0.4,0.48,0.55,0.33,0.83,0.55,0.55,0.29,0.88,0.6,0.55,0.4,0.33,0.5,0.58,0.33,0.55,0.44,0.55,0.58,0.44,0.29,0.6,0.42,0.29,0.55,0.58,0.42,0.55,0.33,0.4,0.55,0.88,0.33,0.58,0.48,0.55,0.83,0.29,0.4,0.42,0.58,0.33,0.48,0.29,0.61,0.55,0.42,0.6,0.4,0.33,0.5,0.44,0.48,0.55,0.5,0.58,0.5,0.29,0.56,0.42,0.29,0.42,0.25,0.55,0.56,0.29,0.4,0.42,0.33,0.55,0.55,0.33,0.55,0.5,0.29,0.29,0.25,0.55,0.33,0.58,0.48,0.55,0.56,0.29,0.42,0.6,0.5,0.29" style="fill:rgb(0,0,0);font-family:URWPalladioL-Roma;font-size:9.96px;stroke:none;">There are two important conclusions fromthe Hirshfeld surface analysis. First of all, the visual</text>
   <text y="586.358" x="76.535,79.376,85.058,89.198,95.066,99.742,104.077,107.26,110.101,115.432,121.2088,123.077,128.408,131.6948,133.631,136.814,142.496,147.173,151.312,156.0928,157.952,162.286,167.969,172.85,176.707,179.89,184.07319999999999,186.002,190.141,195.824,201.154,209.297,213.4802,215.399,218.582,224.264,229.0448,230.913,239.534,244.865,247.706,252.383,256.718,262.605,265.446,270.328,274.31199999999995,276.147,281.028,285.168,290.596,299.217,307.839,312.515,315.698,319.555,325.1326,326.955,329.796,335.5728,337.441,340.624,345.301,349.157,357.778,361.9612,363.89,369.221,372.50780000000003,374.434,377.275,382.958,386.141,390.817,394.674,399.555,403.89,407.073,409.914,415.245,420.927,425.1102,427.039,435.182,438.023,441.206,446.9828,448.851,452.034,457.716,462.4968,464.365,468.504,474.392,478.248,481.919,487.25,493.137,498.819,504.785,507.626,513.308" svgx:width="0.29,0.58,0.42,0.6,0.48,0.44,0.33,0.29,0.55,0.58,0.55,0.55,0.33,0.55,0.33,0.58,0.48,0.42,0.48,0.55,0.44,0.58,0.5,0.4,0.33,0.42,0.55,0.42,0.58,0.55,0.83,0.42,0.55,0.33,0.58,0.48,0.55,0.88,0.55,0.29,0.48,0.44,0.6,0.29,0.5,0.4,0.55,0.5,0.42,0.56,0.88,0.88,0.48,0.33,0.4,0.56,0.55,0.29,0.58,0.55,0.33,0.48,0.4,0.88,0.42,0.55,0.55,0.33,0.55,0.29,0.58,0.33,0.48,0.4,0.5,0.44,0.33,0.29,0.55,0.58,0.42,0.55,0.83,0.29,0.33,0.58,0.55,0.33,0.58,0.48,0.55,0.42,0.6,0.4,0.4,0.55,0.6,0.58,0.61,0.29,0.58,0.56" style="fill:rgb(0,0,0);font-family:URWPalladioL-Roma;font-size:9.96px;stroke:none;">inspection of these charts shows the molecular asymmetry in terms of interactions with the surrounding</text>
   <text y="599.868" x="76.535,85.508,91.056,94.013,98.881,103.393,109.52,112.477,117.345,121.5282,124.235,127.192,132.9688,135.687,139.0,144.914,149.6948,152.373,156.885,160.899,166.549,170.857,174.17,179.251,182.208,184.698,188.112,193.447,198.315,202.826,208.375,214.289,220.498,223.455,227.997,230.48700000000002,233.149,236.462,242.376,247.1568,249.825,254.134,257.446,261.277,266.826,272.74,278.39,283.258,287.566,290.8528,293.47,296.427,302.341,305.654,310.522,314.536,319.617,324.129,327.441,330.398,335.947,341.861,346.0442,348.751,353.832,357.663,362.4438,365.111,368.952,373.82,378.901,381.858,384.815,389.896,394.764,400.8396,403.554,408.634,411.592,417.14,423.054,428.6316,431.285,434.598,440.512,445.2928,447.961,452.269,455.582,460.663,465.175,470.75260000000003,473.416,479.625,485.753,490.5338,493.201,496.514,501.992,504.644,507.956,513.871" svgx:width="0.88,0.55,0.29,0.48,0.44,0.6,0.29,0.48,0.42,0.55,0.29,0.58,0.55,0.33,0.58,0.48,0.55,0.44,0.4,0.56,0.42,0.33,0.5,0.29,0.25,0.55,0.52,0.48,0.44,0.55,0.58,0.61,0.29,0.56,0.25,0.55,0.33,0.58,0.48,0.55,0.42,0.33,0.4,0.55,0.58,0.56,0.48,0.42,0.33,0.55,0.29,0.58,0.33,0.48,0.4,0.5,0.44,0.33,0.29,0.55,0.58,0.42,0.55,0.5,0.4,0.48,0.55,0.4,0.48,0.5,0.29,0.29,0.5,0.48,0.61,0.55,0.5,0.29,0.55,0.58,0.56,0.55,0.33,0.58,0.48,0.55,0.42,0.33,0.5,0.44,0.56,0.55,0.61,0.6,0.48,0.55,0.33,0.55,0.55,0.33,0.58,0.48" style="fill:rgb(0,0,0);font-family:URWPalladioL-Roma;font-size:9.96px;stroke:none;">molecules in the crystal. Secondly, the strongest interactions are realized along the stack due to the</text>
   <text y="613.377" x="76.535,82.449,88.099,94.308,98.139,103.687,109.337,114.205,119.98179999999999,123.615,129.234,134.783,140.697,146.906,151.0892,154.71,159.791,165.705,171.78060000000002,175.4,182.604,187.685" svgx:width="0.58,0.56,0.61,0.4,0.55,0.56,0.48,0.58,0.55,0.55,0.55,0.58,0.61,0.42,0.55,0.5,0.58,0.61,0.55,0.71,0.5,0.83" style="fill:rgb(0,0,0);font-family:URWPalladioL-Roma;font-size:9.96px;stroke:none;">hydrogen bonds and C–H</text>
   <text y="613.377" x="196.266,199.17239999999998,201.06,203.9664,205.844" svgx:width="0.28,0.55,0.28,0.55,0.28" style="fill:rgb(0,0,0);font-family:CMSY10;font-size:10.38px;stroke:none;">· · ·</text>
   <text y="613.377" x="208.972" svgx:width="0.68" style="fill:rgb(0,0,0);font-family:PazoMath-Italic;font-size:9.96px;stroke:none;">π</text>
   <text y="613.377" x="219.592,224.104,229.652,235.566,238.879,243.96,248.472,251.785,256.093,258.583,264.721,270.95,276.864,281.6448,285.227,288.184,293.265,297.574,300.86080000000004,304.382,308.691,312.004,317.085,322.704,325.661,328.618,331.576,336.656,339.614,345.528,351.10560000000004,354.663,357.62,363.535,366.847,371.715,375.729,380.81,385.322,388.634,391.591,397.14,402.91679999999997,406.55,411.062,416.61,422.524,425.837,429.851,432.808,438.427,444.555,447.868,452.735,456.9182,460.529,463.842,469.32,472.886,476.199,482.113,486.8938,490.466,493.423,498.504,501.817,506.685,510.698,515.779" svgx:width="0.44,0.55,0.58,0.33,0.5,0.44,0.33,0.42,0.25,0.55,0.61,0.58,0.48,0.55,0.29,0.5,0.42,0.33,0.55,0.42,0.33,0.5,0.55,0.29,0.29,0.29,0.5,0.29,0.58,0.56,0.55,0.29,0.58,0.33,0.48,0.4,0.5,0.44,0.33,0.29,0.55,0.58,0.55,0.44,0.55,0.58,0.33,0.4,0.29,0.55,0.6,0.33,0.48,0.42,0.55,0.33,0.55,0.55,0.33,0.58,0.48,0.55,0.29,0.5,0.33,0.48,0.4,0.5,0.29" style="fill:rgb(0,0,0);font-family:URWPalladioL-Roma;font-size:9.96px;stroke:none;">contacts. The last stabilizing interaction contributes to the lateral</text>
   <text y="626.887" x="76.535,80.958,86.398,92.405,98.393,101.292,104.191,109.989,115.56660000000001,118.019,123.529,128.301,131.548,139.857,144.629,149.401,155.17780000000002,157.69,160.938,166.736,171.5168,173.999,178.422,183.862,186.761,192.769,201.566,207.364,211.588" svgx:width="0.44,0.55,0.6,0.6,0.29,0.29,0.58,0.56,0.55,0.55,0.48,0.33,0.83,0.48,0.48,0.58,0.55,0.33,0.58,0.48,0.55,0.44,0.55,0.29,0.6,0.88,0.58,0.42,0.25" style="fill:rgb(0,0,0);font-family:URWPalladioL-Roma;font-size:9.96px;stroke:none;">coupling between the columns.</text>
   <text y="640.396" x="97.795,103.78,109.462,114.2428,116.638,120.973,126.304,131.986,136.126,138.967,144.932,149.609,153.29,157.967,164.04260000000002,166.422,169.263,174.945,178.128,182.804,186.661,195.282,200.613,203.454,208.131,212.466,218.353,221.194,226.076,230.06,232.432,235.273,240.955,244.138,248.814,252.671,257.553,261.888,265.07,267.912,273.242,278.925,283.1082,285.564,290.895,296.577,299.418,304.9956,307.346,312.813,318.701,323.582,326.423,329.264,332.447,337.329,340.512,343.353,348.869,353.546,356.387,361.9646,364.315,370.28,374.957,379.097,383.432,387.288,390.129,395.528,400.3088,402.704,405.887,411.57,416.3508,418.746,421.997,427.328,430.999,435.333,440.01,444.1932,446.649,452.331,457.662,460.503,466.469,469.31,474.992,480.56960000000004,482.92,486.103,491.434,496.862,501.539,504.722,510.404,515.081" svgx:width="0.61,0.58,0.48,0.55,0.44,0.55,0.58,0.42,0.29,0.61,0.48,0.4,0.48,0.61,0.55,0.29,0.58,0.33,0.48,0.4,0.88,0.55,0.29,0.48,0.44,0.6,0.29,0.5,0.4,0.55,0.29,0.58,0.33,0.48,0.4,0.5,0.44,0.33,0.29,0.55,0.58,0.42,0.55,0.55,0.58,0.29,0.56,0.55,0.56,0.6,0.5,0.29,0.29,0.33,0.5,0.33,0.29,0.56,0.48,0.29,0.56,0.55,0.61,0.48,0.42,0.44,0.4,0.29,0.55,0.48,0.55,0.33,0.58,0.48,0.55,0.33,0.55,0.4,0.44,0.48,0.42,0.55,0.58,0.55,0.29,0.61,0.29,0.58,0.56,0.55,0.33,0.55,0.56,0.48,0.33,0.58,0.48,0.4" style="fill:rgb(0,0,0);font-family:URWPalladioL-Roma;font-size:9.96px;stroke:none;">The considered intermolecular interactions only qualitatively describe the forces holding together</text>
   <text y="653.905" x="76.535,79.789,85.599,90.3798,92.876,98.327,102.09,108.19,112.971,116.914,119.819,125.629,131.2066,133.665,137.898,141.152,145.015,151.035,155.467,158.721,164.741,168.504,173.286,177.518,180.008,183.108,190.955,196.974,200.958,203.403,209.213,213.994,219.145,222.4318,224.895,228.15,233.141,237.373,242.95059999999998,245.409,248.314,252.4972,255.042,258.297,264.107,268.8878,271.374,276.964,282.984,287.975,293.785,297.039,299.944,305.983,310.416,315.407,318.661,321.566,327.016,332.7928,335.322,340.772,344.0588,346.582,349.837,355.646,360.4268,362.924,365.829,371.638,374.893,379.674,383.617,388.609,393.041,396.295,399.2,404.651,410.46,414.693,417.183,420.273,426.303,431.294,435.237,438.491,441.396,446.387,449.292,452.197,456.64,459.13,461.631,464.885,470.695,473.6,477.7832,480.318,486.128,491.119,495.3022,497.847,503.368,508.149,512.931" svgx:width="0.33,0.58,0.48,0.55,0.55,0.4,0.61,0.48,0.4,0.29,0.58,0.56,0.55,0.42,0.33,0.4,0.6,0.44,0.33,0.6,0.4,0.48,0.42,0.25,0.55,0.79,0.6,0.4,0.55,0.58,0.48,0.52,0.33,0.55,0.33,0.5,0.42,0.56,0.55,0.29,0.42,0.55,0.33,0.58,0.48,0.55,0.56,0.6,0.5,0.58,0.33,0.29,0.61,0.44,0.5,0.33,0.29,0.55,0.58,0.55,0.55,0.33,0.55,0.33,0.58,0.48,0.55,0.29,0.58,0.33,0.48,0.4,0.5,0.44,0.33,0.29,0.55,0.58,0.42,0.25,0.55,0.6,0.5,0.4,0.33,0.29,0.5,0.29,0.29,0.56,0.25,0.55,0.33,0.58,0.29,0.42,0.55,0.58,0.5,0.42,0.55,0.55,0.48,0.48,0.58" style="fill:rgb(0,0,0);font-family:URWPalladioL-Roma;font-size:9.96px;stroke:none;">the ordering structures. Our next task is the quantiﬁcation of the interactions. Partially, this has been</text>
   <text y="667.415" x="76.535,80.844,86.392,89.349,95.091,99.958,106.03359999999999,109.114,112.945,117.812,122.324,127.192,133.106,136.419,139.376,144.9536,147.973,153.592,159.1696,162.189,168.317,172.5002,175.572" svgx:width="0.42,0.55,0.29,0.56,0.48,0.61,0.55,0.4,0.48,0.44,0.48,0.58,0.33,0.29,0.56,0.55,0.55,0.56,0.55,0.6,0.42,0.55,0.33" style="fill:rgb(0,0,0);font-family:URWPalladioL-Roma;font-size:9.96px;stroke:none;">solved recently by us [</text>
   <text y="667.415" x="178.961,183.942" svgx:width="0.5,0.5" style="fill:rgb(8,117,183);font-family:URWPalladioL-Roma;font-size:9.96px;stroke:none;">29</text>
   <text y="667.415" x="188.923,192.2098,195.254,198.638,204.186,208.17000000000002,211.147,214.46,220.374,225.1548,228.188,232.497,237.578,246.551,251.3318,254.365,259.914,265.533,267.911,272.779,277.29,280.57680000000005,283.55,289.099,292.3858,295.429,298.742,304.656,309.4368,312.471,316.779,320.092,326.22,332.429,336.971,339.461,343.973,347.397,353.17379999999997,356.258,359.571,365.485,370.566,373.8528,376.826,381.907,385.921,389.233,392.191,396.702,399.659,404.527,407.017,410.126,418.601,423.3818,426.416,432.33,437.411,443.152,447.9328,450.967,455.275,461.189,466.738,475.213,480.9898,484.074,487.387,493.301,498.382,501.66880000000003,504.642,507.954,513.868" svgx:width="0.33,0.55,0.33,0.55,0.4,0.55,0.33,0.58,0.48,0.55,0.42,0.5,0.88,0.48,0.55,0.55,0.55,0.23,0.48,0.44,0.33,0.55,0.55,0.33,0.55,0.33,0.58,0.48,0.55,0.42,0.33,0.6,0.61,0.56,0.25,0.55,0.34,0.58,0.55,0.33,0.58,0.5,0.33,0.55,0.5,0.4,0.33,0.29,0.44,0.29,0.48,0.25,0.55,0.83,0.48,0.55,0.58,0.5,0.56,0.48,0.55,0.42,0.58,0.55,0.83,0.58,0.55,0.33,0.58,0.5,0.33,0.55,0.33,0.58,0.48" style="fill:rgb(0,0,0);font-family:URWPalladioL-Roma;font-size:9.96px;stroke:none;">] for the same object of the study. In that article, we have shown that the</text>
   <text y="680.924" x="76.535,82.155,85.112,91.026,97.235,100.192,106.106,111.6836,114.53,119.611,122.568,128.117,134.031,139.6086,142.445,145.758,151.672,156.4528,159.313,163.825,169.374,172.331,178.458,187.431,193.20780000000002,196.12,199.077,203.2602,206.149,215.122,221.25,225.762,231.5388,234.45,238.759,242.072,245.903,251.451,257.365,263.015,267.883,271.86699999999996,274.671,278.055,284.182,290.158,293.054,296.366,301.844,304.689,309.66900000000004,312.544,315.928,321.009,325.521,328.834,334.382,338.366,341.16,346.708,349.99480000000005,352.866,357.175,360.132,365.376,368.6628,371.534,374.846,380.761,385.842,391.61879999999996,394.52,397.833,403.747,408.5278,411.389,414.346,420.26,423.573,428.44,432.271,436.783,442.331,445.288,451.416,460.389,466.303,471.384,475.368,478.172,482.684,488.232,494.36,500.467,503.424,506.382,512.296,517.946" svgx:width="0.55,0.29,0.58,0.61,0.29,0.58,0.56,0.55,0.5,0.29,0.55,0.58,0.56,0.55,0.33,0.58,0.48,0.55,0.44,0.55,0.29,0.6,0.88,0.58,0.55,0.29,0.42,0.55,0.88,0.6,0.44,0.58,0.55,0.42,0.33,0.4,0.55,0.58,0.56,0.48,0.4,0.55,0.33,0.6,0.6,0.55,0.33,0.55,0.55,0.5,0.55,0.33,0.5,0.44,0.33,0.55,0.4,0.55,0.55,0.33,0.55,0.42,0.29,0.52,0.33,0.55,0.33,0.58,0.5,0.58,0.55,0.33,0.58,0.48,0.55,0.29,0.58,0.33,0.48,0.4,0.44,0.55,0.29,0.6,0.88,0.58,0.5,0.4,0.55,0.44,0.55,0.6,0.6,0.29,0.29,0.58,0.56,0.25" style="fill:rgb(0,0,0);font-family:URWPalladioL-Roma;font-size:9.96px;stroke:none;">binding along the column is much stronger (up to a factor of six) than the intercolumnar coupling.</text>
   <text y="694.434" x="76.226,82.455,88.369,93.1498,96.54,102.454,107.321,112.565,115.8518,119.18,123.489,128.356,132.868,136.181,139.138,144.686,150.46280000000002,153.903,162.378,165.335,168.292,171.1804,174.552,180.172,184.9528,188.342,191.726,197.274,201.786,207.913,212.222,217.09,223.1656,226.601,232.149,237.9258,241.366,244.679,250.593,255.3738,258.753,263.265,268.813,271.77,277.898,286.871,292.785,297.866,301.84999999999997,305.183,309.491,312.804,317.885,322.397,328.047,332.2302,335.658,339.042,344.692,347.649,353.299,359.427,363.268" svgx:width="0.61,0.58,0.48,0.55,0.58,0.48,0.52,0.33,0.55,0.42,0.48,0.44,0.33,0.29,0.55,0.58,0.55,0.83,0.29,0.29,0.29,0.55,0.55,0.48,0.55,0.33,0.55,0.44,0.6,0.42,0.48,0.61,0.55,0.55,0.58,0.55,0.33,0.58,0.48,0.55,0.44,0.55,0.29,0.6,0.88,0.58,0.5,0.4,0.55,0.42,0.33,0.5,0.44,0.56,0.42,0.55,0.33,0.56,0.29,0.56,0.6,0.4,0.48" style="fill:rgb(0,0,0);font-family:URWPalladioL-Roma;font-size:9.96px;stroke:none;">The next section will be focused on the columnar stacks (Figure</text>
   <text y="694.434" x="371.438" svgx:width="0.5" style="fill:rgb(8,117,183);font-family:URWPalladioL-Roma;font-size:9.96px;stroke:none;">1</text>
   <text y="694.434" x="376.519,382.138,384.679,389.546,392.8328,396.233,399.19,404.9668,408.397,413.945,417.786,423.995,428.863,432.847,436.179,439.492,444.97,448.343,453.21,457.519,460.832,465.913,471.532,474.489,477.446,481.755,487.5318,490.972,499.447,505.361,508.318,512.83" svgx:width="0.55,0.25,0.48,0.33,0.55,0.29,0.58,0.55,0.55,0.4,0.61,0.48,0.4,0.55,0.33,0.55,0.55,0.48,0.42,0.33,0.5,0.55,0.29,0.29,0.42,0.58,0.55,0.83,0.58,0.29,0.44,0.58" style="fill:rgb(0,0,0);font-family:URWPalladioL-Roma;font-size:9.96px;stroke:none;">b,e) in order to establish which</text>
   <text y="707.943" x="76.535,80.759,85.531,88.43,91.748,95.065,100.047,104.271,108.495,113.267,122.064,127.573,130.473,136.0506,138.502,147.299,152.071,156.495,162.293,167.274,173.073,175.972,180.196,191.483,194.731,200.53,205.3108,207.792,212.774,217.755,223.194,228.176,234.263,239.633,247.4018,249.874,254.098,257.346,262.327,266.263,270.4462,272.978,278.417,283.926,288.698,293.132" svgx:width="0.42,0.48,0.29,0.33,0.33,0.5,0.42,0.42,0.48,0.88,0.55,0.29,0.56,0.55,0.88,0.48,0.44,0.58,0.5,0.58,0.29,0.42,0.88,0.33,0.58,0.48,0.55,0.5,0.5,0.55,0.5,0.61,0.61,0.78,0.55,0.42,0.33,0.5,0.4,0.42,0.55,0.55,0.55,0.48,0.56,0.25" style="fill:rgb(0,0,0);font-family:URWPalladioL-Roma;font-size:9.96px;stroke:none;">self-assembly mechanismthe azo–BTA stars obey.</text>
  </g>
 </g>
</svg>
