<?xml version="1.0" encoding="UTF-8"?>
<svg height="767.08" width="4210.013" xmlns="http://www.w3.org/2000/svg">
 <g id="page" xmlns:svgx="http://www.xml-cml.org/schema/svgx">
  <path style="fill:rgb(58,90,166);stroke:none;stroke-width:1.0;" d="M222.01 552.19 L247.35 552.19 Z"/>
  <path style="fill:rgb(58,90,166);stroke:none;stroke-width:1.0;" d="M417.94 565.17 L444.13 565.17 Z"/>
  <path style="fill:rgb(58,90,166);stroke:none;stroke-width:1.0;" d="M492.32 604.18 L519.25 604.18 Z"/>
  <path style="fill:rgb(58,90,166);stroke:none;stroke-width:1.0;" d="M431.77 682.19 L456.04 682.19 Z"/>
  <g begin="text">
   <text y="538.129" x="200.012,202.882,206.592,211.652,222.065,226.465,228.585,236.765,240.995,246.265,248.925,253.255,258.755,261.013,266.073,268.97299999999996,271.161,275.911,280.661,282.911,287.661,291.661,293.781,298.841,303.071,305.941,311.001,314.711,319.011,321.22,326.28,329.88,333.48,336.14,339.01,341.67,345.9,350.23,353.21,355.87,360.93,366.43,368.672,371.652,376.752,378.933,383.33299999999997,385.453,393.633,397.863,403.133,405.793,410.123,415.623,417.881,422.941,425.84099999999995,428.029,431.529,436.279,438.529,443.279,447.279,449.402,452.062,457.562,459.777,462.647,466.877,469.857,475.127,478.727,482.957,486.557,488.803,495.633,498.293,501.273,506.57300000000004,508.759,513.089,518.589,520.835,528.295,533.045,538.4449999999999,540.62,545.68,548.5799999999999,550.768,555.518,560.678,565.428" svgx:width="0.29,0.38,0.51,0.82,0.44,0.55,0.82,0.43,0.53,0.27,0.44,0.55,0.55,0.51,0.29,0.55,0.48,0.48,0.23,0.48,0.4,0.55,0.51,0.43,0.29,0.51,0.38,0.43,0.55,0.51,0.36,0.36,0.27,0.29,0.27,0.43,0.44,0.3,0.27,0.51,0.55,0.55,0.3,0.51,0.55,0.44,0.55,0.82,0.43,0.53,0.27,0.44,0.55,0.55,0.51,0.29,0.55,0.35,0.48,0.23,0.48,0.4,0.55,0.27,0.55,0.55,0.29,0.43,0.3,0.53,0.36,0.43,0.36,0.55,0.69,0.27,0.3,0.53,0.55,0.44,0.55,0.55,0.75,0.48,0.54,0.55,0.51,0.29,0.55,0.48,0.52,0.48,0.48" style="fill:rgb(0,0,0);font-family:MinionPro-Regular;font-size:10.0px;stroke:none;">froma median of 23.0˚ before ossification to a median of -4.8˚ in fetuses with an OSL of 5–10</text>
   <text y="551.111" x="200.012,208.192,218.607" svgx:width="0.82,0.82,0.34" style="fill:rgb(0,0,0);font-family:MinionPro-Regular;font-size:10.0px;stroke:none;">mm(</text>
   <text y="551.111" x="221.997,227.267,229.927,234.62699999999998,236.805,241.555" svgx:width="0.53,0.27,0.47,0.55,0.48,0.58" style="fill:rgb(58,90,166);font-family:MinionPro-Regular;font-size:10.0px;stroke:none;">Fig 7B</text>
   <text y="551.111" x="247.345,250.735,253.03500000000003,255.23,261.33,266.6,270.90000000000003,273.032,277.362,282.842,287.482,289.942,294.242,296.389,299.049,304.529,308.759,312.469,316.699,321.029,324.629,328.859,334.129,336.42900000000003,338.681,342.391,346.621,350.951,355.181,360.451,363.111,368.591,373.291,375.475,379.875,381.995,390.175,394.405,399.675,402.335,406.665,412.165,414.423,419.483,422.383,424.571,429.321,434.071,436.321,441.071,445.071,447.191,449.851,455.351,457.566,460.436,464.666,467.646,472.916,476.516,480.746,484.346,486.592,493.422,496.082,499.062,504.362,506.548,510.878,516.3779999999999,518.567,526.027,530.777,536.177,538.409,543.469" svgx:width="0.34,0.23,0.55,0.61,0.53,0.43,0.55,0.44,0.55,0.47,0.25,0.43,0.55,0.27,0.55,0.43,0.38,0.43,0.44,0.36,0.43,0.53,0.23,0.55,0.38,0.43,0.44,0.43,0.53,0.27,0.55,0.47,0.55,0.44,0.55,0.82,0.43,0.53,0.27,0.44,0.55,0.55,0.51,0.29,0.55,0.48,0.48,0.23,0.48,0.4,0.55,0.27,0.55,0.55,0.29,0.43,0.3,0.53,0.36,0.43,0.36,0.55,0.69,0.27,0.3,0.53,0.55,0.44,0.55,0.55,0.75,0.48,0.54,0.55,0.51,0.29" style="fill:rgb(0,0,0);font-family:MinionPro-Regular;font-size:10.0px;stroke:none;">). The angle increased, reaching a median of 24.9˚ in fetuses with an OSL of</text>
   <text y="551.111" x="548.557" svgx:width="0.77" style="fill:rgb(0,0,0);font-family:TeX_CM_Maths_Italic;font-size:10.0px;stroke:none;">&gt;</text>
   <text y="551.111" x="556.257,561.007" svgx:width="0.48,0.48" style="fill:rgb(0,0,0);font-family:MinionPro-Regular;font-size:10.0px;stroke:none;">30</text>
   <text y="564.094" x="200.012,208.192,216.372,218.67200000000003,220.874,226.974,232.244,236.544,238.676,246.856,251.086,256.356,259.016,263.346" svgx:width="0.82,0.82,0.23,0.55,0.61,0.53,0.43,0.55,0.82,0.43,0.53,0.27,0.44,0.55" style="fill:rgb(0,0,0);font-family:MinionPro-Regular;font-size:10.0px;stroke:none;">mm. The median</text>
   <text y="564.094" x="271.104" svgx:width="0.46" style="fill:rgb(0,0,0);font-family:TeX_CM_Maths_Symbols;font-size:10.0px;stroke:none;">ff</text>
   <text y="564.094" x="275.684,280.954,288.304,293.104,295.255,302.085,306.415,310.01500000000004,312.263,317.013,321.763,326.513,328.763,333.513,337.513,339.645,344.705,348.935,351.805,356.865,360.575,364.875,367.028,372.088,375.688,379.288,381.948,384.818,387.478,391.708,396.038,399.018,401.678,406.738,412.238,414.536" svgx:width="0.53,0.74,0.48,0.55,0.69,0.44,0.36,0.55,0.48,0.48,0.48,0.23,0.48,0.4,0.55,0.51,0.43,0.29,0.51,0.38,0.43,0.55,0.51,0.36,0.36,0.27,0.29,0.27,0.43,0.44,0.3,0.27,0.51,0.55,0.55,0.34" style="fill:rgb(0,0,0);font-family:MinionPro-Regular;font-size:10.0px;stroke:none;">FNS was 140.8˚ before ossification (</text>
   <text y="564.094" x="417.926,423.196,425.856,430.556,432.734,437.484" svgx:width="0.53,0.27,0.47,0.55,0.48,0.67" style="fill:rgb(58,90,166);font-family:MinionPro-Regular;font-size:10.0px;stroke:none;">Fig 7C</text>
   <text y="564.094" x="444.104,447.494,449.79400000000004,452.01,456.34,461.82,467.12,469.301,472.281,477.551,481.851,483.985,489.255,491.915,495.515,498.495,502.205,504.865,509.925,515.195,518.175,520.835,525.895,531.395,533.647,538.707,541.607,543.795,551.975,556.205,561.475,564.135,568.465" svgx:width="0.34,0.23,0.55,0.44,0.55,0.53,0.55,0.3,0.53,0.43,0.55,0.53,0.27,0.36,0.3,0.38,0.27,0.51,0.53,0.3,0.27,0.51,0.55,0.55,0.51,0.29,0.55,0.82,0.43,0.53,0.27,0.44,0.55" style="fill:rgb(0,0,0);font-family:MinionPro-Regular;font-size:10.0px;stroke:none;">), and the distribution of median</text>
   <text y="577.133" x="200.012" svgx:width="0.46" style="fill:rgb(0,0,0);font-family:TeX_CM_Maths_Symbols;font-size:10.0px;stroke:none;">ff</text>
   <text y="577.133" x="204.592,209.862,217.212,222.012,224.163,230.993,235.323,238.923,241.17,244.88,249.11,251.57,255.9,258.88,261.54,266.08,270.31,272.77,277.37,279.551,283.781,288.841,294.321,297.921,300.901,305.231,310.711,313.711,315.948,319.338,323.738,325.926,334.106,338.336,343.606,346.266,350.596,356.096,358.297,363.357,366.257,368.445,373.195,377.945,382.695,386.605,390.005,392.256,394.916,400.416,402.631,406.961,409.421,411.921,414.083,416.953,421.183,424.163,429.433,433.033,437.263,440.863,443.109,447.439,450.309,453.289,457.519,461.319,463.462,468.522,472.122,475.722,478.382,481.252,483.912,488.142,492.472,495.452,498.112,503.172,508.652,510.952,513.181,520.111,524.441,528.151,530.811,535.141,538.121,540.781,545.841,551.341,553.603,560.433,564.763" svgx:width="0.53,0.74,0.48,0.55,0.69,0.44,0.36,0.55,0.38,0.43,0.25,0.44,0.3,0.27,0.46,0.43,0.25,0.46,0.55,0.43,0.51,0.55,0.36,0.3,0.44,0.55,0.3,0.55,0.34,0.44,0.55,0.82,0.43,0.53,0.27,0.44,0.55,0.55,0.51,0.29,0.55,0.48,0.48,0.48,0.4,0.34,0.55,0.27,0.55,0.55,0.44,0.25,0.25,0.55,0.29,0.43,0.3,0.53,0.36,0.43,0.36,0.55,0.44,0.29,0.3,0.43,0.38,0.55,0.51,0.36,0.36,0.27,0.29,0.27,0.43,0.44,0.3,0.27,0.51,0.55,0.23,0.55,0.7,0.44,0.38,0.27,0.44,0.3,0.27,0.51,0.55,0.55,0.69,0.44,0.36" style="fill:rgb(0,0,0);font-family:MinionPro-Regular;font-size:10.0px;stroke:none;">FNS was relatively constant (a median of 130˚) in all fetuses after ossification. Variation was</text>
   <text y="590.116" x="200.012,205.172,208.882,213.942,222.122,224.782,230.262,234.492,239.972,242.972,245.195,249.525,257.705,262.765,268.245,272.945,275.129,277.999,282.229,285.209,290.479,294.079,298.309,301.90900000000005,304.212,309.272,313.502,316.372,321.432,325.142,329.442,331.595,336.655,340.255,343.855,346.515,349.385,352.045,356.275,360.605,363.585,366.245,371.305,376.805,379.103,382.493,386.203,390.533,396.013,400.653,404.883,407.183,409.377,414.127,418.877,423.627,425.877,430.627,435.787,440.537,445.287,450.037,452.287,457.037,460.947,464.337" svgx:width="0.52,0.38,0.51,0.82,0.27,0.55,0.43,0.55,0.3,0.55,0.44,0.82,0.51,0.55,0.47,0.55,0.29,0.43,0.3,0.53,0.36,0.43,0.36,0.55,0.51,0.43,0.29,0.51,0.38,0.43,0.55,0.51,0.36,0.36,0.27,0.29,0.27,0.43,0.44,0.3,0.27,0.51,0.55,0.55,0.34,0.38,0.44,0.55,0.47,0.43,0.23,0.55,0.48,0.48,0.48,0.23,0.48,0.52,0.48,0.48,0.48,0.23,0.48,0.4,0.34,0.23" style="fill:rgb(0,0,0);font-family:MinionPro-Regular;font-size:10.0px;stroke:none;">prominent among fetuses before ossification (range: 121.9–146.7˚).</text>
   <text y="590.116" x="468.848" svgx:width="0.46" style="fill:rgb(0,0,0);font-family:TeX_CM_Maths_Symbols;font-size:10.0px;stroke:none;">ff</text>
   <text y="590.116" x="473.428,480.888,486.678,491.478,493.679,496.339,501.819,506.049,509.759,513.989,518.319,521.919,526.149,531.449,533.704,536.574,540.284,545.344,555.757,560.507,562.757,567.507" svgx:width="0.75,0.58,0.48,0.55,0.27,0.55,0.43,0.38,0.43,0.44,0.36,0.43,0.53,0.55,0.29,0.38,0.51,0.82,0.48,0.23,0.48,0.4" style="fill:rgb(0,0,0);font-family:MinionPro-Regular;font-size:10.0px;stroke:none;">OBS increased from3.5˚</text>
   <text y="603.098" x="200.012,205.072,209.302,212.172,217.232,220.942,225.24200000000002,227.394,232.454,236.054,239.654,242.314,245.184,247.844,252.074,256.404,259.384,262.044,267.104,272.604,274.902,277.882,282.982,285.164,289.56399999999996,291.683,299.863,304.093,309.363,312.023,316.353,321.853,324.112,329.172,332.072,334.259,339.009,341.259,346.009,350.009,352.118,354.778,360.278,362.492,365.362,369.592,372.572,377.842,381.442,385.672,389.27200000000005,391.519,398.349,401.009,403.989,409.289,411.475,415.805,421.305,423.494,430.954,435.704,441.104,443.336,448.396,451.296,453.484,458.234,463.394,468.194,470.322,478.502,488.917" svgx:width="0.51,0.43,0.29,0.51,0.38,0.43,0.55,0.51,0.36,0.36,0.27,0.29,0.27,0.43,0.44,0.3,0.27,0.51,0.55,0.55,0.3,0.51,0.55,0.44,0.55,0.82,0.43,0.53,0.27,0.44,0.55,0.55,0.51,0.29,0.55,0.48,0.23,0.48,0.4,0.55,0.27,0.55,0.55,0.29,0.43,0.3,0.53,0.36,0.43,0.36,0.55,0.69,0.27,0.3,0.53,0.55,0.44,0.55,0.55,0.75,0.48,0.54,0.55,0.51,0.29,0.55,0.48,0.52,0.48,0.55,0.82,0.82,0.34" style="fill:rgb(0,0,0);font-family:MinionPro-Regular;font-size:10.0px;stroke:none;">before ossification to a median of 9.1˚ in fetuses with an OSL of 0–5 mm(</text>
   <text y="603.098" x="492.307,497.577,500.237,504.937,507.172,511.922" svgx:width="0.53,0.27,0.47,0.55,0.48,0.74" style="fill:rgb(58,90,166);font-family:MinionPro-Regular;font-size:10.0px;stroke:none;">Fig 7D</text>
   <text y="603.098" x="519.272,522.662,524.962,527.128,533.228,538.498,542.798,544.929,549.259,554.739,559.379,561.839" svgx:width="0.34,0.23,0.55,0.61,0.53,0.43,0.55,0.44,0.55,0.47,0.25,0.43" style="fill:rgb(0,0,0);font-family:MinionPro-Regular;font-size:10.0px;stroke:none;">). The angle</text>
   <text y="616.081" x="200.012,205.282,209.512,213.742,217.452,221.682,226.012,229.612,233.842,239.14200000000002,241.34,244.32,249.42,251.602,256.002,258.121,266.301,270.531,275.801,278.461,282.791,288.291,290.55,295.61,298.51,300.697,305.447,307.697,312.447,316.447,318.612,321.272,326.772,328.93,331.8,336.03,339.01,344.28,347.88,352.11,355.71000000000004,357.957,364.787,367.447,370.427,375.72700000000003,377.969,382.299,387.799,389.988,397.448,402.198,407.59799999999996,409.774,414.834,417.734,419.922,424.672,429.422,434.582,439.332,444.132,446.341,454.521,462.701,465.00100000000003,467.147,473.977,479.247,481.907,486.137,491.437,493.679,496.549,499.209,504.689,509.019,511.479,513.939,518.539,520.721,524.431,528.661,532.991,537.221,542.491,546.721,552.021,554.227,557.207,562.307,564.488" svgx:width="0.53,0.43,0.43,0.38,0.43,0.44,0.36,0.43,0.53,0.55,0.3,0.51,0.55,0.44,0.55,0.82,0.43,0.53,0.27,0.44,0.55,0.55,0.51,0.29,0.55,0.48,0.23,0.48,0.4,0.55,0.27,0.55,0.55,0.29,0.43,0.3,0.53,0.36,0.43,0.36,0.55,0.69,0.27,0.3,0.53,0.55,0.44,0.55,0.55,0.75,0.48,0.54,0.55,0.51,0.29,0.55,0.48,0.48,0.52,0.48,0.48,0.55,0.82,0.82,0.23,0.55,0.69,0.53,0.27,0.43,0.53,0.55,0.29,0.27,0.55,0.44,0.25,0.25,0.46,0.55,0.38,0.43,0.44,0.43,0.53,0.43,0.53,0.55,0.3,0.51,0.55,0.44" style="fill:rgb(0,0,0);font-family:MinionPro-Regular;font-size:10.0px;stroke:none;">decreased to a median of 3.1˚ in fetuses with an OSL of 25–30 mm, which finally reached to a</text>
   <text y="629.12" x="200.012,208.192,212.422,217.692,220.352,224.682,230.182,232.383,237.443,240.34300000000002,242.531,247.281,249.531,254.281,258.281,260.446,263.106,268.606,270.821,273.691,277.921,280.901,286.171,289.771,294.001,297.601,299.847,306.677,309.337,312.317,317.617,319.803,324.133,329.633,331.822,339.282,344.032,349.43199999999996,351.607,356.667" svgx:width="0.82,0.43,0.53,0.27,0.44,0.55,0.55,0.51,0.29,0.55,0.48,0.23,0.48,0.4,0.55,0.27,0.55,0.55,0.29,0.43,0.3,0.53,0.36,0.43,0.36,0.55,0.69,0.27,0.3,0.53,0.55,0.44,0.55,0.55,0.75,0.48,0.54,0.55,0.51,0.29" style="fill:rgb(0,0,0);font-family:MinionPro-Regular;font-size:10.0px;stroke:none;">median of 4.4˚ in fetuses with an OSL of</text>
   <text y="629.12" x="361.755" svgx:width="0.77" style="fill:rgb(0,0,0);font-family:TeX_CM_Maths_Italic;font-size:10.0px;stroke:none;">&gt;</text>
   <text y="629.12" x="369.455,374.205,379.005,381.201,389.381,397.561,399.861,402.064,407.854,410.514,412.974,417.304,420.284,424.514,428.224,432.554,435.054,437.27,442.54,445.2,448.07,450.94,455.17,458.88,463.11,468.59,472.82,477.05,480.65000000000003,482.907,485.567" svgx:width="0.48,0.48,0.55,0.82,0.82,0.23,0.55,0.58,0.27,0.25,0.44,0.3,0.43,0.38,0.44,0.25,0.55,0.53,0.27,0.29,0.29,0.43,0.38,0.43,0.55,0.43,0.43,0.36,0.55,0.27,0.55" style="fill:rgb(0,0,0);font-family:MinionPro-Regular;font-size:10.0px;stroke:none;">30 mm. Bilateral differences in</text>
   <text y="629.12" x="493.282" svgx:width="0.46" style="fill:rgb(0,0,0);font-family:TeX_CM_Maths_Symbols;font-size:10.0px;stroke:none;">ff</text>
   <text y="629.12" x="497.862,503.132,510.482,517.312" svgx:width="0.53,0.74,0.69,0.23" style="fill:rgb(0,0,0);font-family:MinionPro-Regular;font-size:10.0px;stroke:none;">FNA,</text>
   <text y="629.12" x="521.798" svgx:width="0.46" style="fill:rgb(0,0,0);font-family:TeX_CM_Maths_Symbols;font-size:10.0px;stroke:none;">ff</text>
   <text y="629.12" x="526.378,531.648,538.998,543.748,546.048,548.217,552.547,558.027" svgx:width="0.53,0.74,0.48,0.23,0.55,0.44,0.55,0.53" style="fill:rgb(0,0,0);font-family:MinionPro-Regular;font-size:10.0px;stroke:none;">FNS, and</text>
   <text y="642.103" x="200.012" svgx:width="0.46" style="fill:rgb(0,0,0);font-family:TeX_CM_Maths_Symbols;font-size:10.0px;stroke:none;">ff</text>
   <text y="642.103" x="204.592,212.052,217.842,222.592,224.89200000000002,227.054,233.884,239.154,241.814,246.044,251.34400000000002,253.586,260.416,264.646,268.356,272.656,274.789,279.019,283.659,287.989,296.169,298.829,304.309,308.539,313.839,316.061,321.331,324.931,327.591,333.071,337.771,339.985,349.625,352.285,354.745,358.975,364.035,368.675,373.735,379.235,381.484,385.084,387.744,392.384,397.864,402.094,407.364,410.864,414.574,418.904,424.384,429.384,431.601,434.581,438.811,442.411,445.391,447.69100000000003,449.856,456.686,460.916,464.626,468.926,471.115,476.595,481.655,484.655,486.819,491.879,496.939,500.539,504.769,508.479,513.019,517.249,522.549,524.803,527.463,532.963,535.178,539.508,541.968,544.468,546.63,549.5,553.73,556.71,561.98,565.58,569.81" svgx:width="0.75,0.58,0.48,0.23,0.55,0.69,0.53,0.27,0.43,0.53,0.55,0.69,0.43,0.38,0.43,0.55,0.43,0.47,0.44,0.82,0.27,0.55,0.43,0.53,0.55,0.53,0.36,0.27,0.55,0.47,0.55,0.97,0.27,0.25,0.43,0.51,0.47,0.51,0.55,0.55,0.36,0.27,0.47,0.55,0.43,0.53,0.35,0.38,0.44,0.55,0.5,0.55,0.3,0.43,0.36,0.3,0.23,0.55,0.69,0.43,0.38,0.43,0.55,0.55,0.51,0.3,0.55,0.51,0.51,0.36,0.43,0.38,0.46,0.43,0.53,0.55,0.27,0.55,0.55,0.44,0.25,0.25,0.55,0.29,0.43,0.3,0.53,0.36,0.43,0.36" style="fill:rgb(0,0,0);font-family:MinionPro-Regular;font-size:10.0px;stroke:none;">OBS, which were examined using Wilcoxon signed-rank test, were not observed in all fetuses</text>
   <text y="655.085" x="200.012,203.402,208.60199999999998,210.783,216.583,218.777,223.527,225.777,230.527,235.277,237.577,239.753,244.503,246.753,251.503,256.253,258.553,260.729,265.059,270.539,275.839,278.02,282.77,285.02,289.77,294.57,296.729,299.599,304.659" svgx:width="0.34,0.52,0.55,0.58,0.55,0.48,0.23,0.48,0.48,0.23,0.55,0.48,0.23,0.48,0.48,0.23,0.55,0.44,0.55,0.53,0.55,0.48,0.23,0.48,0.48,0.55,0.29,0.51,0.38" style="fill:rgb(0,0,0);font-family:MinionPro-Regular;font-size:10.0px;stroke:none;">(p = 0.98, 0.28, and 0.76 for</text>
   <text y="655.085" x="310.619" svgx:width="0.46" style="fill:rgb(0,0,0);font-family:TeX_CM_Maths_Symbols;font-size:10.0px;stroke:none;">ff</text>
   <text y="655.085" x="315.199,320.469,327.819,334.649" svgx:width="0.53,0.74,0.69,0.23" style="fill:rgb(0,0,0);font-family:MinionPro-Regular;font-size:10.0px;stroke:none;">FNA,</text>
   <text y="655.085" x="339.135" svgx:width="0.46" style="fill:rgb(0,0,0);font-family:TeX_CM_Maths_Symbols;font-size:10.0px;stroke:none;">ff</text>
   <text y="655.085" x="343.715,348.985,356.335,361.085,363.385,365.554,369.884,375.364" svgx:width="0.53,0.74,0.48,0.23,0.55,0.44,0.55,0.53" style="fill:rgb(0,0,0);font-family:MinionPro-Regular;font-size:10.0px;stroke:none;">FNS, and</text>
   <text y="655.085" x="382.902" svgx:width="0.46" style="fill:rgb(0,0,0);font-family:TeX_CM_Maths_Symbols;font-size:10.0px;stroke:none;">ff</text>
   <text y="655.085" x="387.482,394.942,400.732,405.482,407.78200000000004,409.944,413.654,417.884,421.484,426.644,430.874,435.104,438.084,440.744,445.284,449.514,451.974,456.514,459.904" svgx:width="0.75,0.58,0.48,0.23,0.55,0.38,0.43,0.36,0.52,0.43,0.43,0.3,0.27,0.46,0.43,0.25,0.46,0.34,0.23" style="fill:rgb(0,0,0);font-family:MinionPro-Regular;font-size:10.0px;stroke:none;">OBS, respectively).</text>
   <text y="668.125" x="211.974,217.974,221.994,227.154,231.384,235.404,240.884,244.694,248.084,252.414,256.214,258.518,263.158,268.738,273.378,276.148,280.788,284.598,287.468,291.278" svgx:width="0.6,0.41,0.52,0.43,0.41,0.55,0.38,0.34,0.44,0.38,0.55,0.47,0.56,0.47,0.28,0.47,0.38,0.29,0.38,0.25" style="fill:rgb(0,0,0);font-family:MinionPro-Bold;font-size:10.0px;stroke:none;">Procrustes analysis.</text>
   <text y="668.125" x="301.831,308.451,312.681,318.161,321.141,324.851,329.911,332.571,337.87100000000004,340.099,343.699,346.359,350.479,354.709,358.309,360.565,364.895,367.895,370.089,375.149,380.209,383.189,388.48900000000003,390.669,393.649,398.919,403.219,405.352,410.512,414.222,419.282,423.922,426.582,434.762,439.092,441.592,443.846,448.176,453.656,458.956,461.137,466.407,469.067,472.667,475.647,479.977,482.477,484.665,488.895,494.055,496.715,501.875,507.145,511.685,515.285,519.515,523.115,525.427,529.027,534.297,539.357,546.187,550.417,555.717,557.912" svgx:width="0.67,0.43,0.55,0.3,0.38,0.51,0.27,0.53,0.55,0.36,0.27,0.42,0.43,0.36,0.55,0.44,0.3,0.55,0.51,0.51,0.3,0.53,0.55,0.3,0.53,0.43,0.55,0.52,0.38,0.51,0.47,0.27,0.82,0.44,0.25,0.55,0.44,0.55,0.53,0.55,0.53,0.27,0.36,0.3,0.44,0.25,0.55,0.43,0.52,0.27,0.52,0.53,0.46,0.36,0.43,0.36,0.55,0.36,0.53,0.51,0.69,0.43,0.53,0.55,0.44" style="fill:rgb(0,0,0);font-family:MinionPro-Regular;font-size:10.0px;stroke:none;">Centroid sizes at both the proximal and distal epiphyses showed a</text>
   <text y="681.107" x="200.012,203.612,206.592,210.302,215.362,220.842,225.542,227.734,232.894,237.954,241.554,244.214,247.194,249.854,254.394,258.694,260.899,265.129,270.189,273.899,277.609,281.839,284.299,288.629,291.609,294.269,299.329,304.829,307.047,313.877,316.537,319.517,324.817,327.003,334.463,339.213,344.613,346.845,350.235" svgx:width="0.36,0.3,0.38,0.51,0.55,0.47,0.55,0.52,0.51,0.36,0.27,0.3,0.27,0.46,0.43,0.55,0.43,0.51,0.38,0.38,0.43,0.25,0.44,0.3,0.27,0.51,0.55,0.55,0.69,0.27,0.3,0.53,0.55,0.75,0.48,0.54,0.55,0.34,0.63" style="fill:rgb(0,0,0);font-family:MinionPro-Regular;font-size:10.0px;stroke:none;">strong positive correlation with OSL (R</text>
  </g>
  <g begin="text">
   <text y="676.687" x="356.428" svgx:width="0.48" style="fill:rgb(0,0,0);font-family:MinionPro-Regular;font-size:6.67px;stroke:none;">2</text>
  </g>
  <g begin="text">
   <text y="681.109" x="362.211,368.011,370.204,374.954,377.204,381.954,386.754,388.913,393.243,398.723,404.023,406.204,410.954,413.204,417.954,422.704,426.104,428.371" svgx:width="0.58,0.55,0.48,0.23,0.48,0.48,0.55,0.44,0.55,0.53,0.55,0.48,0.23,0.48,0.48,0.34,0.55,0.34" style="fill:rgb(0,0,0);font-family:MinionPro-Regular;font-size:10.0px;stroke:none;">= 0.99 and 0.99) (</text>
   <text y="681.109" x="431.761,436.511,441.31100000000004,443.451,448.721,451.381" svgx:width="0.48,0.48,0.55,0.53,0.27,0.47" style="fill:rgb(58,90,166);font-family:MinionPro-Regular;font-size:10.0px;stroke:none;">S4 Fig</text>
   <text y="681.109" x="456.021,459.411,461.711,463.917,470.017,475.287,479.587,481.718,487.298,491.008,496.068,500.298,504.008,509.278,512.878,515.858,520.088,523.688,525.995,529.595,534.865,539.195,544.355,548.655,550.827,555.057,560.117,565.177,568.887" svgx:width="0.34,0.23,0.55,0.61,0.53,0.43,0.55,0.56,0.38,0.51,0.43,0.38,0.53,0.36,0.3,0.43,0.36,0.55,0.36,0.53,0.44,0.52,0.43,0.55,0.43,0.51,0.51,0.38,0.35" style="fill:rgb(0,0,0);font-family:MinionPro-Regular;font-size:10.0px;stroke:none;">). The Procrustes shape coor-</text>
   <text y="694.091" x="200.014,205.284,207.944,213.424,217.754,220.734,224.964,228.564,230.798,233.668,238.728,242.52800000000002,244.688,247.668,252.938,257.238,259.371,264.531,268.241,273.301,277.941,280.601,288.781,293.111,295.611,297.865,302.095,307.255,309.915,315.075,320.345,324.885,328.485,331.145,334.745,336.983,339.643,345.123,350.393,353.053,357.283,361.613,364.593,368.823,374.123,376.384,379.364,384.634,388.964,391.964,394.185,398.415,402.745,406.975,412.27500000000003,414.424,416.884,421.214,426.694,431.964,440.144,444.474,448.184,453.184,455.413,460.473,465.973,468.169,471.149,476.419,480.719,482.909,487.549,491.259,495.489,499.819,502.799,507.029,510.829,512.956,517.286,522.766,528.0659999999999,530.247,532.707,536.937,540.537,544.137,548.367,552.1669999999999,554.342,557.322,561.032,566.092" svgx:width="0.53,0.27,0.55,0.44,0.3,0.43,0.36,0.55,0.29,0.51,0.38,0.55,0.3,0.53,0.43,0.55,0.52,0.38,0.51,0.47,0.27,0.82,0.44,0.25,0.55,0.43,0.52,0.27,0.52,0.53,0.46,0.36,0.27,0.36,0.55,0.27,0.55,0.53,0.27,0.43,0.44,0.3,0.43,0.53,0.55,0.3,0.53,0.44,0.3,0.55,0.43,0.44,0.43,0.53,0.55,0.25,0.44,0.55,0.53,0.82,0.44,0.38,0.5,0.55,0.51,0.55,0.55,0.3,0.53,0.43,0.55,0.47,0.38,0.43,0.44,0.3,0.43,0.38,0.55,0.44,0.55,0.53,0.55,0.25,0.43,0.36,0.36,0.43,0.38,0.55,0.3,0.38,0.51,0.35" style="fill:rgb(0,0,0);font-family:MinionPro-Regular;font-size:10.0px;stroke:none;">dinates for the proximal epiphysis indicated that each landmark on the greater and lesser tro-</text>
   <text y="707.13" x="200.014,204.244,209.514,213.844,219.324,222.304,226.534,230.244,233.844,236.071,240.401,245.881,251.181,253.362,256.232,260.462,268.642,273.702,277.412,281.742,284.242,286.47,291.74,295.97,300.3,305.6,307.787,310.657,315.717,320.257,324.487,328.887,331.087,337.917,342.247,345.84700000000004,348.095,350.555,355.615,359.845,364.175,367.155,371.385,376.685,378.878,381.538,387.038,389.253,392.233,397.503,401.803,403.936,407.536,411.866,420.046,424.346,426.5,431.66,436.72,440.32,442.98,445.96,448.62,453.68,459.18,461.422,464.082,467.792,471.502,475.732,479.332,484.492,488.722,492.952,495.932,498.592,503.132,507.432,509.668,514.728,517.6279999999999,519.816,527.276,532.026,537.4259999999999,539.602,544.242,547.952,553.012,558.282,563.442" svgx:width="0.43,0.53,0.44,0.55,0.3,0.43,0.38,0.36,0.55,0.44,0.55,0.53,0.55,0.29,0.43,0.82,0.51,0.38,0.44,0.25,0.55,0.53,0.43,0.44,0.53,0.55,0.29,0.51,0.46,0.43,0.44,0.55,0.69,0.44,0.36,0.55,0.25,0.51,0.43,0.44,0.3,0.43,0.53,0.55,0.27,0.55,0.55,0.3,0.53,0.43,0.55,0.36,0.44,0.82,0.43,0.55,0.52,0.51,0.36,0.27,0.3,0.27,0.51,0.55,0.55,0.27,0.38,0.38,0.43,0.36,0.52,0.43,0.43,0.3,0.27,0.46,0.43,0.55,0.51,0.29,0.55,0.75,0.48,0.54,0.55,0.47,0.38,0.51,0.53,0.52,0.36" style="fill:rgb(0,0,0);font-family:MinionPro-Regular;font-size:10.0px;stroke:none;">chanters and femoral head fovea was located in the same position irrespective of OSL groups</text>
  </g>
  <path style="fill:rgb(155,154,156);stroke:none;stroke-width:1.0;" d="M576.0 504.76 L200.0 504.76 L200.0 504.26 L576.0 504.26 "/>
  <path style="fill:rgb(58,90,166);stroke:none;stroke-width:1.0;" d="M200.01 517.83 L352.52 517.83 Z"/>
  <rect style="stroke:blue;stroke-width:0.3;" x="200.013" y="86.01" height="371.735" width="288.0" title="12"/>
  <text y="86.01" class="image" id="image.12.1" width="288" height="371" x="200.013">image.12.1.200_488.86_458</text>
  <rect style="stroke:blue;stroke-width:0.3;" x="200.013" y="86.01" height="371.735" width="288.0" title="12"/>
  <text y="86.01" class="image" id="image.12.2" width="288" height="371" x="200.013">image.12.2.200_488.86_458</text>
  <g begin="text">
   <text y="463.238" x="200.012,204.388,206.676,210.59599999999998,212.257,216.217,218.217,220.818,225.194,228.65,235.354,239.73,243.01,244.629,251.333,255.453,259.829,263.285,265.493,267.781,272.237,276.15700000000004,277.85,282.226,286.602,289.81,292.098,296.554,300.474,302.115,304.819,309.195,312.715,314.361,316.985,320.441,323.145,326.849,329.089,330.802,335.177,338.633,341.841,344.129,348.249,352.625" svgx:width="0.55,0.29,0.49,0.55,0.5,0.25,0.55,0.55,0.44,0.84,0.55,0.41,0.55,0.84,0.52,0.55,0.44,0.28,0.29,0.56,0.49,0.55,0.55,0.55,0.41,0.29,0.56,0.49,0.55,0.34,0.55,0.44,0.55,0.33,0.44,0.34,0.47,0.28,0.55,0.55,0.44,0.41,0.29,0.52,0.55,0.25" style="fill:rgb(0,0,0);font-family:MinionPro-Bold;font-size:8.0px;stroke:none;">Fig 7. Femur modeling during the fetal period.</text>
   <text y="463.238" x="356.313,359.017,364.473,367.19300000000004,368.899,374.771,376.891,379.763,382.138,385.098,387.218,391.258,395.466,397.756,399.876,403.916,408.316,410.058,414.098,416.418,418.108,421.484,424.444,428.484,433.94,438.316,442.436,445.396,449.604,456.14,460.3,461.932,463.892,467.268,471.644,475.348,477.724,481.964,483.645,486.349,491.637,496.597,500.885,503.605,505.302,508.758,512.134,515.51,519.55,522.51,526.718,528.837,533.213,536.973,538.58,540.956,545.0360000000001,546.744,550.784,553.656,556.528,558.648,560.935,563.055,566.431" svgx:width="0.34,0.69,0.34,0.55,0.74,0.27,0.36,0.3,0.38,0.27,0.51,0.53,0.3,0.27,0.51,0.55,0.55,0.51,0.29,0.55,0.43,0.38,0.51,0.69,0.55,0.52,0.38,0.53,0.82,0.52,0.55,0.25,0.43,0.55,0.47,0.3,0.53,0.55,0.34,0.67,0.63,0.54,0.34,0.55,0.44,0.43,0.43,0.51,0.38,0.53,0.27,0.55,0.47,0.55,0.3,0.51,0.55,0.51,0.36,0.36,0.27,0.29,0.27,0.43,0.53" style="fill:rgb(0,0,0);font-family:MinionPro-Regular;font-size:8.0px;stroke:none;">(A) Distribution of crown–rump length (CRL) according to ossified</text>
   <text y="472.762" x="200.012,202.884,207.092,210.548,212.836,215.23600000000002,216.906,218.866,222.242,226.618,230.322,232.698,236.93800000000002,238.62,241.323,247.283,251.075,255.363,258.067,259.907,261.58,264.284,268.908,271.62800000000004,273.372,279.244,281.364,284.236,286.612,289.572,291.692,295.732,299.848,302.224,304.344,308.383,312.78299999999996,314.531,318.57,320.89,322.581,324.869,328.245,334.781,338.821,341.781,345.237,347.237,348.886,353.262,356.638,360.014,364.014,365.724,369.18,373.556,375.932,379.308,382.932,386.308,389.268,392.03,394.15,398.189,402.589,404.332" svgx:width="0.36,0.53,0.44,0.29,0.3,0.55,0.25,0.43,0.55,0.47,0.3,0.53,0.55,0.34,0.75,0.48,0.54,0.34,0.23,0.55,0.34,0.58,0.34,0.55,0.74,0.27,0.36,0.3,0.38,0.27,0.51,0.53,0.3,0.27,0.51,0.55,0.55,0.51,0.29,0.55,0.29,0.43,0.82,0.51,0.38,0.44,0.25,0.55,0.55,0.43,0.43,0.5,0.55,0.44,0.55,0.3,0.43,0.46,0.43,0.38,0.36,0.27,0.51,0.55,0.55,0.34" style="fill:rgb(0,0,0);font-family:MinionPro-Regular;font-size:8.0px;stroke:none;">shaft length (OSL). (B) Distribution of femoral neck anteversion (</text>
   <text y="472.762" x="407.036" svgx:width="0.46" style="fill:rgb(0,0,0);font-family:TeX_CM_Maths_Symbols;font-size:8.0px;stroke:none;">ff</text>
   <text y="472.762" x="410.7,414.908,420.78,426.236,428.956,430.637,434.093,437.469,440.845,444.885,447.845,452.053,454.173,458.549,462.30899999999997,463.916,466.292,470.37199999999996,472.08,478.04,481.832,486.12,487.96,489.654,492.358,497.646,500.36600000000004,502.07,507.942,510.062,512.934,515.31,518.27,520.39,524.43,528.637,531.013,533.133,537.173,541.573,543.229,547.269,549.589,551.336,553.624,557.0,563.535,567.575,570.535,573.991" svgx:width="0.53,0.74,0.69,0.34,0.55,0.44,0.43,0.43,0.51,0.38,0.53,0.27,0.55,0.47,0.55,0.3,0.51,0.55,0.75,0.48,0.54,0.23,0.55,0.34,0.67,0.34,0.55,0.74,0.27,0.36,0.3,0.38,0.27,0.51,0.53,0.3,0.27,0.51,0.55,0.55,0.51,0.29,0.55,0.29,0.43,0.82,0.51,0.38,0.44,0.25" style="fill:rgb(0,0,0);font-family:MinionPro-Regular;font-size:8.0px;stroke:none;">FNA) according to OSL. (C) Distribution of femoral</text>
   <text y="482.287" x="200.012,204.388,207.764,211.14,215.14,216.793,219.665,223.872,227.328,229.616,232.01600000000002,233.744,237.2,241.575,245.279,247.239,250.679,252.339" svgx:width="0.55,0.43,0.43,0.5,0.55,0.36,0.53,0.44,0.29,0.3,0.55,0.44,0.55,0.47,0.25,0.43,0.55,0.34" style="fill:rgb(0,0,0);font-family:MinionPro-Regular;font-size:8.0px;stroke:none;">neck shaft angle (</text>
   <text y="482.287" x="255.043" svgx:width="0.46" style="fill:rgb(0,0,0);font-family:TeX_CM_Maths_Symbols;font-size:8.0px;stroke:none;">ff</text>
   <text y="482.287" x="258.706,262.914,268.786,272.578,275.298,276.944,280.4,283.776,287.152,291.192,294.152,298.36,300.48,304.855,308.615,310.279,312.655,316.73499999999996,318.443,324.402,328.194,332.482,334.322,335.961,338.665,344.537,347.257,349.0,354.872,356.992,359.864,362.24,365.2,367.32,371.359,375.567,377.856,379.976,384.016,388.416,390.158,394.198,396.518,398.209,402.249,406.289,408.249,410.369,414.409,418.616,420.736,423.112,426.79200000000003,428.483,432.523,434.843,436.533,438.909,443.117,446.557,448.212,451.084,455.292,458.748,461.036,463.436,465.163" svgx:width="0.53,0.74,0.48,0.34,0.55,0.44,0.43,0.43,0.51,0.38,0.53,0.27,0.55,0.47,0.55,0.3,0.51,0.55,0.75,0.48,0.54,0.23,0.55,0.34,0.74,0.34,0.55,0.74,0.27,0.36,0.3,0.38,0.27,0.51,0.53,0.3,0.27,0.51,0.55,0.55,0.51,0.29,0.55,0.51,0.51,0.25,0.27,0.51,0.53,0.27,0.3,0.46,0.55,0.51,0.29,0.55,0.3,0.53,0.43,0.55,0.36,0.53,0.44,0.29,0.3,0.55,0.34" style="fill:rgb(0,0,0);font-family:MinionPro-Regular;font-size:8.0px;stroke:none;">FNS) according to OSL. (D) Distribution of obliquity of the shaft (</text>
   <text y="482.287" x="467.867" svgx:width="0.46" style="fill:rgb(0,0,0);font-family:TeX_CM_Maths_Symbols;font-size:8.0px;stroke:none;">ff</text>
   <text y="482.287" x="471.531,477.491,482.115,485.907,488.627,490.278,493.734,497.11,500.486,504.526,507.486,511.694,513.814,518.19,521.95,523.614,525.99,530.07,531.777,537.737,541.529,545.816,547.6560000000001,549.295,551.999,556.399,558.139,560.515,564.723" svgx:width="0.75,0.58,0.48,0.34,0.55,0.44,0.43,0.43,0.51,0.38,0.53,0.27,0.55,0.47,0.55,0.3,0.51,0.55,0.75,0.48,0.54,0.23,0.55,0.34,0.55,0.55,0.3,0.53,0.43" style="fill:rgb(0,0,0);font-family:MinionPro-Regular;font-size:8.0px;stroke:none;">OBS) according to OSL. In the</text>
   <text y="491.754" x="200.012,204.052,208.092,211.852,213.505,217.625,219.585,223.624,226.0,228.872,230.71200000000002,232.383,234.759,238.967,242.407,244.119,248.159,251.615,254.575,257.455,259.142,262.102,265.478,269.598,272.557,275.933,278.805,282.181,286.557,288.957,290.606,292.982,297.19,300.63,302.285,305.157,308.613,315.149,319.269,321.229,324.669,326.323,329.283,332.739,337.115,340.819,344.195,346.03499999999997,347.696,350.072,354.28,357.71999999999997,359.432,363.472,367.511,371.215,374.591,377.471,379.16,382.12,385.496,389.616,392.576,395.952,398.824,402.2,406.576,408.976,410.625,413.001,417.208,420.648,422.304,425.176,428.552,431.927,435.967,440.343,444.583,446.284,449.74,454.116,458.356,460.061,462.437,466.645,468.765,471.725,475.96500000000003,477.636,481.676,485.884,489.34,492.3,494.676,496.795,498.755,502.131,505.003,506.84299999999996,508.476,511.932,516.308,520.548,522.253,524.629,528.837,532.277,533.931,540.467,542.587,546.795,551.003,552.963,556.403,558.083,560.043,562.163,566.539" svgx:width="0.51,0.51,0.47,0.55,0.52,0.25,0.51,0.3,0.36,0.23,0.55,0.3,0.53,0.43,0.55,0.51,0.44,0.38,0.36,0.55,0.38,0.43,0.52,0.38,0.43,0.36,0.43,0.55,0.3,0.55,0.3,0.53,0.43,0.55,0.36,0.44,0.82,0.52,0.25,0.43,0.55,0.38,0.44,0.55,0.47,0.43,0.23,0.55,0.3,0.53,0.43,0.55,0.51,0.51,0.47,0.43,0.36,0.55,0.38,0.43,0.52,0.38,0.43,0.36,0.43,0.55,0.3,0.55,0.3,0.53,0.43,0.55,0.36,0.43,0.43,0.51,0.55,0.53,0.55,0.44,0.55,0.53,0.55,0.3,0.53,0.27,0.38,0.53,0.55,0.51,0.53,0.44,0.38,0.3,0.27,0.25,0.43,0.36,0.23,0.55,0.44,0.55,0.53,0.55,0.3,0.53,0.43,0.55,0.82,0.27,0.53,0.53,0.25,0.43,0.55,0.25,0.27,0.55,0.43" style="fill:rgb(0,0,0);font-family:MinionPro-Regular;font-size:8.0px;stroke:none;">box plots, the bars represent the sample range, the boxes represent the second and third quartiles, and the middle line</text>
   <text y="501.278" x="200.012,202.972,206.348,210.468,213.428,216.804,219.676,223.052,227.428,229.804,232.684,234.311,236.687,240.895,244.335,246.046,252.582,255.958,260.166,262.286,265.742,270.117" svgx:width="0.38,0.43,0.52,0.38,0.43,0.36,0.43,0.55,0.3,0.36,0.55,0.3,0.53,0.43,0.55,0.82,0.43,0.53,0.27,0.44,0.55,0.23" style="fill:rgb(0,0,0);font-family:MinionPro-Regular;font-size:8.0px;stroke:none;">represents the median.</text>
   <text y="516.756" x="200.012,203.812,205.86,207.908,211.708,215.084,216.884,218.932,220.98,224.673,228.473,230.017,231.817,235.617,238.081,241.881,243.929,247.729,251.529,253.329,257.129,260.929,264.729,268.529,270.577,272.011,275.811,279.611,282.075,285.875,289.251,290.795,292.595,296.395,300.195,303.872,307.248,309.048,312.848,316.648,320.448,324.248,328.048,331.848,335.648,337.448,341.248,344.918,348.718" svgx:width="0.5,0.28,0.28,0.5,0.45,0.25,0.28,0.28,0.5,0.5,0.22,0.25,0.5,0.33,0.5,0.28,0.5,0.5,0.25,0.5,0.5,0.5,0.5,0.28,0.22,0.5,0.5,0.33,0.5,0.45,0.22,0.25,0.5,0.5,0.5,0.45,0.25,0.5,0.5,0.5,0.5,0.5,0.5,0.5,0.25,0.5,0.5,0.5,0.5" style="fill:rgb(58,90,166);font-family:Helvetica-Condensed;font-size:8.0px;stroke:none;">https://doi.org/10.1371/journal.pone.0221569.g007</text>
  </g>
  <path style="fill:rgb(0,0,0);stroke:none;stroke-width:1.0;" d="M576.0 54.9 L36.0 54.9 L36.0 54.4 L576.0 54.4 "/>
  <path style="fill:rgb(0,0,0);stroke:none;stroke-width:1.0;" d="M130.47 33.08 L36.0 33.08 L36.0 48.64 L130.47 48.64 ZM93.8 47.11 L93.35 47.11 L93.35 34.25 L93.8 34.25 L93.8 47.11 Z"/>
  <path style="fill:rgb(0,0,0);stroke:none;stroke-width:1.0;" d="M48.94 36.42 C49.53 36.6 50.15 36.27 50.33 35.69 C50.52 35.1 50.19 34.47 49.6 34.29 C49.01 34.11 48.39 34.44 48.21 35.03 C48.03 35.61 48.36 36.23 48.94 36.42 "/>
  <path style="fill:rgb(0,0,0);stroke:none;stroke-width:1.0;" d="M51.54 41.95 C51.63 41.66 51.47 41.35 51.18 41.26 C50.88 41.16 50.57 41.33 50.48 41.62 C50.39 41.91 50.55 42.23 50.85 42.32 C51.14 42.41 51.45 42.24 51.54 41.95 "/>
  <path style="fill:rgb(0,0,0);stroke:none;stroke-width:1.0;" d="M45.56 34.17 C45.85 34.26 46.16 34.1 46.26 33.8 C46.35 33.51 46.18 33.2 45.89 33.11 C45.59 33.02 45.28 33.18 45.19 33.47 C45.1 33.77 45.26 34.08 45.56 34.17 "/>
  <path style="fill:rgb(0,0,0);stroke:none;stroke-width:1.0;" d="M37.88 43.81 C37.59 43.72 37.28 43.89 37.19 44.18 C37.09 44.47 37.26 44.78 37.55 44.87 C37.84 44.96 38.16 44.8 38.25 44.51 C38.34 44.22 38.17 43.9 37.88 43.81 "/>
  <path style="fill:rgb(0,0,0);stroke:none;stroke-width:1.0;" d="M47.58 46.39 C47.2 46.28 46.79 46.49 46.68 46.87 C46.56 47.25 46.77 47.66 47.15 47.78 C47.53 47.89 47.94 47.68 48.05 47.3 C48.17 46.92 47.96 46.51 47.58 46.39 "/>
  <path style="fill:rgb(0,0,0);stroke:none;stroke-width:1.0;" d="M40.3 35.48 C40.44 35.02 40.18 34.52 39.71 34.37 C39.24 34.23 38.74 34.49 38.6 34.96 C38.45 35.43 38.71 35.93 39.18 36.07 C39.65 36.22 40.15 35.95 40.3 35.48 "/>
  <path style="fill:rgb(0,0,0);stroke:none;stroke-width:1.0;" d="M42.18 46.9 C41.71 46.76 41.22 47.02 41.07 47.49 C40.93 47.96 41.19 48.46 41.66 48.6 C42.12 48.75 42.62 48.48 42.77 48.02 C42.91 47.55 42.65 47.05 42.18 46.9 "/>
  <path style="fill:rgb(0,0,0);stroke:none;stroke-width:1.0;" d="M36.87 38.31 C36.51 38.2 36.14 38.4 36.03 38.75 C35.92 39.1 36.12 39.48 36.47 39.58 C36.82 39.69 37.2 39.49 37.3 39.15 C37.41 38.79 37.22 38.42 36.87 38.31 "/>
  <path style="fill:rgb(0,0,0);stroke:none;stroke-width:1.0;" d="M47.93 42.79 C47.92 42.67 47.9 42.54 47.87 42.41 C47.85 42.29 47.82 42.16 47.78 42.03 C47.77 41.99 47.75 41.95 47.74 41.91 C47.83 41.83 47.92 41.74 48.0 41.66 C48.09 41.56 48.17 41.47 48.25 41.38 C48.3 41.31 48.35 41.24 48.39 41.17 C48.35 41.77 48.2 42.35 47.94 42.89 C47.93 42.86 47.93 42.82 47.93 42.79 M43.65 36.27 L43.65 36.27 C43.38 36.46 43.13 36.7 42.89 36.97 C42.86 36.96 42.83 36.95 42.79 36.94 C42.67 36.89 42.54 36.86 42.41 36.83 C42.29 36.8 42.16 36.77 42.05 36.75 C41.94 36.74 41.84 36.73 41.74 36.73 C42.35 36.42 43.02 36.26 43.7 36.25 C43.68 36.26 43.67 36.26 43.65 36.27 M44.93 36.38 C45.16 36.45 45.38 36.68 45.54 37.01 C45.77 37.54 45.89 38.21 45.89 39.01 C45.89 39.0 45.89 39.0 45.88 39.0 C45.77 38.88 45.66 38.77 45.54 38.66 C45.42 38.55 45.3 38.44 45.18 38.34 C45.06 38.24 44.93 38.13 44.8 38.03 C44.67 37.94 44.54 37.85 44.41 37.76 C44.28 37.67 44.15 37.58 44.01 37.5 C43.88 37.42 43.74 37.35 43.6 37.28 C43.52 37.24 43.44 37.2 43.36 37.17 C43.54 36.98 43.72 36.81 43.92 36.67 L43.92 36.67 C44.27 36.43 44.64 36.32 44.9 36.38 C44.91 36.38 44.92 36.38 44.93 36.38 M46.5 40.49 C46.55 40.57 46.61 40.64 46.65 40.72 C46.73 40.85 46.8 40.97 46.87 41.09 C46.94 41.21 47.0 41.33 47.06 41.45 C47.1 41.56 47.15 41.66 47.19 41.76 C47.16 41.78 47.13 41.81 47.1 41.83 C47.0 41.91 46.88 41.99 46.76 42.07 C46.64 42.15 46.51 42.22 46.38 42.3 C46.26 42.37 46.13 42.44 46.0 42.5 C46.22 41.86 46.39 41.19 46.5 40.49 M41.46 41.85 C41.56 40.82 41.81 39.85 42.21 38.96 C42.47 38.4 42.75 37.93 43.05 37.54 C43.16 37.59 43.27 37.64 43.39 37.7 C43.52 37.76 43.65 37.83 43.78 37.91 C43.9 37.98 44.03 38.06 44.15 38.14 C44.28 38.23 44.4 38.32 44.52 38.41 C44.64 38.5 44.76 38.6 44.88 38.7 C44.99 38.79 45.11 38.9 45.22 39.0 C45.33 39.11 45.44 39.22 45.55 39.32 C45.65 39.43 45.76 39.55 45.86 39.66 C45.86 39.66 45.87 39.67 45.87 39.68 C45.87 39.7 45.87 39.73 45.87 39.76 C45.78 40.79 45.54 41.77 45.18 42.66 C45.15 42.73 45.12 42.81 45.08 42.88 C44.96 42.92 44.84 42.97 44.71 43.0 C44.57 43.05 44.42 43.09 44.27 43.13 C44.12 43.16 43.97 43.2 43.82 43.23 C43.67 43.25 43.53 43.28 43.38 43.3 C43.23 43.32 43.08 43.34 42.93 43.35 C42.79 43.37 42.65 43.38 42.5 43.38 C42.36 43.39 42.22 43.39 42.08 43.38 C41.94 43.38 41.81 43.38 41.67 43.36 C41.6 43.36 41.54 43.35 41.48 43.34 C41.4 42.81 41.42 42.28 41.46 41.85 M43.58 45.0 C43.26 45.25 42.91 45.37 42.65 45.33 C42.35 45.28 42.06 45.03 41.86 44.66 C41.73 44.4 41.63 44.11 41.56 43.82 C41.59 43.82 41.61 43.83 41.63 43.83 C41.77 43.84 41.92 43.85 42.07 43.85 C42.12 43.85 42.17 43.85 42.22 43.85 C42.32 43.85 42.42 43.85 42.52 43.85 C42.67 43.84 42.82 43.83 42.97 43.82 C43.13 43.81 43.29 43.79 43.44 43.76 C43.6 43.74 43.76 43.71 43.91 43.68 C44.07 43.65 44.23 43.62 44.38 43.58 C44.52 43.54 44.66 43.51 44.8 43.46 C44.44 44.13 44.04 44.64 43.58 45.0 M47.7 38.4 C47.84 38.63 47.97 38.87 48.07 39.12 C48.12 39.25 48.16 39.37 48.2 39.5 C48.24 39.62 48.28 39.75 48.31 39.87 C48.34 40.04 48.34 40.21 48.28 40.37 C48.25 40.44 48.23 40.52 48.19 40.6 C48.15 40.68 48.11 40.76 48.06 40.84 C48.0 40.92 47.95 41.0 47.88 41.09 C47.81 41.17 47.74 41.26 47.67 41.34 C47.63 41.37 47.59 41.4 47.56 41.44 C47.53 41.38 47.51 41.32 47.48 41.26 C47.42 41.12 47.35 40.99 47.28 40.86 C47.21 40.73 47.13 40.61 47.05 40.48 C46.97 40.35 46.88 40.22 46.8 40.09 C46.73 40.0 46.65 39.9 46.58 39.81 C46.66 38.68 46.55 37.73 46.28 36.97 C46.84 37.34 47.33 37.81 47.7 38.4 M41.68 37.19 C41.77 37.19 41.87 37.2 41.98 37.22 C42.08 37.23 42.19 37.25 42.3 37.28 C42.39 37.3 42.49 37.33 42.59 37.36 C42.3 37.76 42.03 38.22 41.78 38.76 C41.36 39.7 41.09 40.72 40.98 41.8 C40.93 42.32 40.94 42.81 40.99 43.26 C40.97 43.26 40.94 43.25 40.92 43.25 C40.8 43.22 40.68 43.19 40.58 43.15 C40.47 43.12 40.37 43.08 40.27 43.03 C40.17 42.99 40.08 42.94 40.0 42.89 C39.91 42.84 39.84 42.79 39.78 42.73 C39.71 42.68 39.65 42.62 39.6 42.57 C39.45 42.41 39.32 42.08 39.31 42.01 L39.31 42.01 C38.9 40.43 39.34 38.73 40.56 37.56 C40.83 37.3 41.23 37.16 41.68 37.19 M39.9 43.36 C39.96 43.39 40.01 43.43 40.08 43.46 C40.19 43.51 40.31 43.55 40.43 43.6 C40.56 43.63 40.68 43.67 40.81 43.7 C40.89 43.72 40.98 43.74 41.07 43.75 C41.15 44.15 41.26 44.51 41.42 44.83 C40.82 44.47 40.29 43.98 39.9 43.36 M46.25 44.78 C45.61 45.18 44.88 45.41 44.14 45.46 C44.77 44.93 45.3 44.16 45.76 43.12 L45.76 43.12 C45.9 43.06 46.05 42.99 46.19 42.93 C46.34 42.85 46.48 42.78 46.61 42.7 C46.75 42.63 46.89 42.55 47.01 42.46 C47.13 42.39 47.24 42.31 47.35 42.23 C47.37 42.32 47.4 42.42 47.42 42.5 C47.44 42.62 47.45 42.73 47.47 42.84 C47.48 42.94 47.48 43.04 47.48 43.14 C47.48 43.24 47.47 43.33 47.45 43.41 C47.44 43.5 47.43 43.57 47.4 43.64 C47.3 43.96 46.75 44.46 46.25 44.78 M48.3 38.02 C47.56 36.84 46.42 36.03 45.11 35.69 C45.1 35.69 45.09 35.69 45.09 35.68 L45.08 35.69 C44.66 35.58 44.23 35.53 43.78 35.53 C42.77 35.53 41.79 35.81 40.94 36.35 C38.45 37.91 37.7 41.22 39.27 43.71 C40.25 45.27 41.94 46.2 43.79 46.2 C44.8 46.2 45.78 45.92 46.63 45.38 C49.12 43.81 49.87 40.51 48.3 38.02 "/>
  <path style="fill:rgb(0,0,0);stroke:none;stroke-width:1.0;" d="M42.78 41.41 C43.09 41.41 43.34 41.16 43.34 40.86 C43.34 40.55 43.09 40.3 42.78 40.3 C42.48 40.3 42.23 40.55 42.23 40.86 C42.23 41.16 42.48 41.41 42.78 41.41 "/>
  <path style="fill:rgb(0,0,0);stroke:none;stroke-width:1.0;" d="M75.11 44.0 C73.35 44.0 71.93 42.58 71.93 40.83 C71.93 39.07 73.35 37.65 75.11 37.65 C76.86 37.65 78.29 39.07 78.29 40.83 C78.29 42.58 76.86 44.0 75.11 44.0 ZM75.11 35.41 C72.12 35.41 69.69 37.83 69.69 40.83 C69.69 43.82 72.12 46.24 75.11 46.24 C78.1 46.24 80.53 43.82 80.53 40.83 C80.53 37.83 78.1 35.41 75.11 35.41 Z"/>
  <path style="fill:rgb(0,0,0);stroke:none;stroke-width:1.0;" d="M59.13 39.28 C59.13 40.17 58.46 40.86 57.31 40.86 L55.89 40.86 L55.89 37.67 L57.27 37.67 C58.42 37.67 59.13 38.22 59.13 39.25 L59.13 39.28 ZM57.46 35.59 L53.81 35.59 C53.69 35.59 53.59 35.69 53.59 35.82 L53.59 45.81 C53.59 45.93 53.69 46.03 53.81 46.03 L55.66 46.03 C55.79 46.03 55.89 45.93 55.89 45.81 L55.89 42.9 L57.24 42.9 C59.58 42.9 61.46 41.65 61.46 39.23 L61.46 39.2 C61.46 37.07 59.95 35.59 57.46 35.59 Z"/>
  <path style="fill:rgb(0,0,0);stroke:none;stroke-width:1.0;" d="M81.75 44.84 C81.69 44.77 81.67 44.66 81.73 44.57 "/>
  <path style="fill:rgb(0,0,0);stroke:none;stroke-width:1.0;" d="M81.73 44.57 C81.73 44.57 81.73 44.57 81.73 44.57 L81.89 44.35 L81.73 44.57 Z"/>
  <path style="fill:rgb(0,0,0);stroke:none;stroke-width:1.0;" d="M81.79 44.88 L81.8 44.88 C81.78 44.87 81.77 44.85 81.75 44.84 C81.76 44.86 81.77 44.87 81.79 44.88 Z"/>
  <path style="fill:rgb(0,0,0);stroke:none;stroke-width:1.0;" d="M86.27 39.78 C84.46 39.32 84.01 39.1 84.01 38.41 L84.01 38.38 C84.01 37.88 84.48 37.47 85.36 37.47 C86.13 37.47 86.96 37.71 87.78 38.21 L87.78 38.21 C87.88 38.28 88.01 38.26 88.09 38.16 L89.02 36.84 C89.08 36.74 89.05 36.62 88.96 36.55 L88.96 36.55 C87.96 35.84 86.77 35.44 85.39 35.44 C83.25 35.44 81.73 36.7 81.73 38.59 L81.73 38.62 C81.73 40.69 83.09 41.28 85.19 41.81 C86.94 42.26 87.29 42.56 87.29 43.14 L87.29 43.17 C87.29 43.78 86.73 44.15 85.79 44.15 C84.84 44.15 84.03 43.84 83.26 43.32 C83.21 43.29 83.16 43.25 83.1 43.21 L82.99 43.13 C82.89 43.06 82.75 43.09 82.68 43.19 L81.71 44.57 C81.66 44.66 81.67 44.77 81.73 44.84 C81.75 44.85 81.76 44.87 81.78 44.88 C82.95 45.75 84.35 46.18 85.74 46.18 C87.99 46.18 89.58 45.02 89.58 42.94 L89.58 42.92 C89.58 41.1 88.38 40.34 86.27 39.78 Z"/>
  <path style="fill:rgb(0,0,0);stroke:none;stroke-width:1.0;" d="M69.51 44.17 C69.51 44.16 69.51 44.15 69.51 44.15 L69.51 45.83 C69.51 45.82 69.51 45.81 69.51 45.81 L69.51 44.17 Z"/>
  <path style="fill:rgb(0,0,0);stroke:none;stroke-width:1.0;" d="M69.29 43.94 C69.29 43.94 69.29 43.94 69.29 43.94 L65.19 43.94 L65.19 35.82 C65.19 35.69 65.09 35.59 64.959 35.59 L63.11 35.59 C62.99 35.59 62.89 35.69 62.89 35.82 L62.89 45.81 C62.89 45.93 62.99 46.03 63.11 46.03 L69.29 46.03 C69.41 46.03 69.5 45.94 69.51 45.83 L69.51 44.15 C69.5 44.04 69.41 43.95 69.29 43.94 Z"/>
  <path style="fill:rgb(0,0,0);stroke:none;stroke-width:1.0;" d="M105.66 40.86 L105.66 40.83 C105.66 38.74 104.14 37.02 102.0 37.02 C99.86 37.02 98.37 38.71 98.37 40.8 L98.37 40.83 C98.37 42.93 99.89 44.65 102.03 44.65 C104.17 44.65 105.66 42.96 105.66 40.86 ZM96.38 40.86 L96.38 40.83 C96.38 37.8 98.72 35.26 102.03 35.26 C105.34 35.26 107.65 37.77 107.65 40.8 L107.65 40.83 C107.65 43.87 105.31 46.41 102.0 46.41 C98.69 46.41 96.38 43.9 96.38 40.86 Z"/>
  <path style="fill:rgb(0,0,0);stroke:none;stroke-width:1.0;" d="M110.09 35.45 L111.85 35.45 L117.62 42.9 L117.62 35.45 L119.48 35.45 L119.48 46.22 L117.9 46.22 L111.96 38.56 L111.96 46.22 L110.09 46.22 L110.09 35.45 Z"/>
  <path style="fill:rgb(0,0,0);stroke:none;stroke-width:1.0;" d="M122.41 35.45 L130.4 35.45 L130.4 37.14 L124.3 37.14 L124.3 39.94 L129.699 39.94 L129.699 41.65 L124.3 41.65 L124.3 44.53 L130.47 44.53 L130.47 46.22 L122.41 46.22 L122.41 35.45 Z"/>
  <g begin="text">
   <text y="46.205" x="453.487,460.111,464.487,467.111,471.487,475.863,480.239,484.615,488.991,493.228,497.604,501.564,503.268,507.268,508.989,513.365,515.605,517.322,519.53,523.906,528.3059999999999,529.965,534.341,538.717,545.341,549.717,554.117,555.817,558.025,562.401,569.025,573.401" svgx:width="0.83,0.55,0.33,0.55,0.55,0.55,0.55,0.55,0.55,0.55,0.5,0.22,0.5,0.55,0.55,0.28,0.55,0.28,0.55,0.55,0.55,0.55,0.55,0.83,0.55,0.55,0.55,0.28,0.55,0.83,0.55,0.33" style="fill:rgb(0,0,0);font-family:Helvetica;font-size:8.0px;stroke:none;">Morphogenesis of the human femur</text>
  </g>
  <path style="fill:rgb(0,0,0);stroke:none;stroke-width:1.0;" d="M36.0 744.0 L576.0 744.0 L576.0 744.5 L36.0 744.5 "/>
  <path style="fill:rgb(58,90,166);stroke:none;stroke-width:1.0;" d="M81.58 757.08 L237.88 757.08 Z"/>
  <g begin="text">
   <text y="756.0" x="36.0,41.288,45.664,51.872,57.232,58.847,65.055,70.759,76.119,77.782" svgx:width="0.67,0.55,0.78,0.67,0.55,0.78,0.72,0.67,0.55,0.26" style="fill:rgb(0,0,0);font-family:Helvetica;font-size:8.0px;stroke:none;">PLOS ONE |</text>
   <text y="756.0" x="81.58,85.956,88.164,90.372,94.748,98.708,100.916,103.124,105.332,109.708,114.084,115.788,117.996,122.372,124.893,129.269,131.477,135.853,140.229,142.437,146.813,151.189,155.451,159.827,162.035,163.739,168.115,172.491,175.115,179.491,183.867,185.571,187.779,192.155,196.44,200.816,205.191,207.399,211.775,216.151,220.527,224.903,229.151,233.527" svgx:width="0.55,0.28,0.28,0.55,0.5,0.28,0.28,0.28,0.55,0.55,0.22,0.28,0.55,0.33,0.55,0.28,0.55,0.55,0.28,0.55,0.55,0.55,0.55,0.28,0.22,0.55,0.55,0.33,0.55,0.55,0.22,0.28,0.55,0.55,0.55,0.55,0.28,0.55,0.55,0.55,0.55,0.55,0.55,0.55" style="fill:rgb(58,90,166);font-family:Helvetica;font-size:8.0px;stroke:none;">https://doi.org/10.1371/journal.pone.0221569</text>
   <text y="756.0" x="245.876,251.164,255.54,259.916,264.292,268.252,270.492,272.181,276.557,280.933,283.173,284.88,289.256,293.632,298.008,302.40799999999996,552.81,557.185,561.5849999999999,563.241,565.481,567.209,571.585" svgx:width="0.67,0.55,0.55,0.55,0.5,0.28,0.55,0.55,0.55,0.28,0.55,0.55,0.55,0.55,0.55,0.55,0.55,0.55,0.55,0.28,0.55,0.55,0.55" style="fill:rgb(0,0,0);font-family:Helvetica;font-size:8.0px;stroke:none;">August 23, 2019 12 / 18</text>
  </g>
 </g>
</svg>
