<?xml version="1.0" encoding="UTF-8"?>
<svg height="766.34" width="530.2845" xmlns="http://www.w3.org/2000/svg">
 <g id="page" xmlns:svgx="http://www.xml-cml.org/schema/svgx">
  <g begin="text">
   <text y="62.979" x="76.535,84.059,87.598,90.252,93.352,96.452,98.668,102.207,104.422" svgx:width="0.94,0.44,0.33,0.39,0.39,0.28,0.44,0.28,0.39" style="fill:rgb(0,0,0);font-family:URWPalladioL-Ital;font-size:7.97px;stroke:none;">Materials</text>
   <text y="62.979" x="109.515,113.5,117.485,121.47" svgx:width="0.5,0.5,0.5,0.5" style="fill:rgb(0,0,0);font-family:URWPalladioL-Bold;font-size:7.97px;stroke:none;">2019</text>
   <text y="62.979" x="125.455" svgx:width="0.25" style="fill:rgb(0,0,0);font-family:URWPalladioL-Roma;font-size:7.97px;stroke:none;">,</text>
   <text y="62.979" x="129.44,133.425" svgx:width="0.5,0.5" style="fill:rgb(0,0,0);font-family:URWPalladioL-Ital;font-size:7.97px;stroke:none;">12</text>
   <text y="62.979" x="137.41,139.4025,141.395,145.38,149.365,153.35,157.335,491.809,495.794,499.779,501.772,506.123,508.7531,510.77,514.755" svgx:width="0.25,0.55,0.5,0.5,0.5,0.5,0.55,0.5,0.5,0.55,0.55,0.33,0.55,0.5,0.5" style="fill:rgb(0,0,0);font-family:URWPalladioL-Roma;font-size:7.97px;stroke:none;">, 2710 19 of 20</text>
   <text y="97.848" x="76.535,81.018,85.501,87.74350000000001,98.05,103.406,107.166,112.327,116.575,121.736,126.17,131.1,134.053,138.709,142.956,147.967,152.214,155.717,158.298,163.459,165.7015,167.919,174.783,177.0,183.899,186.116,188.35850000000002,190.576,193.565,198.575,203.009,208.17,213.012,217.029,219.2715,221.489,226.411,228.628,233.878,236.095,238.3375,240.555,245.973,251.321,254.823,259.754,264.596,268.613,270.8555,273.073,279.972,282.189,286.96,289.177,291.4195,293.638,301.007,305.848,310.859,313.439,318.37,323.212,327.229,329.4715,331.689,336.345,338.562,343.811,346.028,348.2705,350.489,356.404,360.838,363.418,366.309,370.069,374.317,378.334,380.5765,382.794,388.035,390.252,396.69,398.907,401.1495,403.376,409.3,413.548,416.128,419.019,424.18,426.4225,428.641,436.019,438.2615,441.472,446.891,449.471,453.719,457.656,460.547,463.89,468.732,473.893,476.473,480.4198,482.654,487.31,490.201,493.633,498.98,502.917,505.808,511.155,514.49" svgx:width="0.5,0.5,0.25,0.55,0.6,0.42,0.58,0.48,0.58,0.5,0.56,0.33,0.52,0.48,0.56,0.48,0.4,0.29,0.58,0.25,0.55,0.77,0.25,0.78,0.25,0.25,0.55,0.34,0.56,0.5,0.58,0.55,0.56,0.25,0.55,0.67,0.25,0.72,0.25,0.25,0.55,0.61,0.6,0.4,0.56,0.55,0.56,0.25,0.55,0.78,0.25,0.61,0.25,0.25,0.55,0.83,0.55,0.56,0.29,0.56,0.55,0.56,0.25,0.55,0.52,0.25,0.72,0.25,0.25,0.55,0.67,0.5,0.29,0.33,0.42,0.48,0.56,0.25,0.55,0.72,0.25,0.73,0.25,0.25,0.55,0.67,0.48,0.29,0.33,0.58,0.25,0.55,0.83,0.25,0.55,0.61,0.29,0.48,0.44,0.33,0.4,0.55,0.58,0.29,0.44,0.55,0.52,0.33,0.4,0.6,0.44,0.33,0.6,0.4,0.48" style="fill:rgb(0,0,0);font-family:URWPalladioL-Roma;font-size:8.97px;stroke:none;">50. Pshenay-Severin, D.A.; Ivanov, Y.V.; Burkov, A.T.; Novikov, S.V.; Zaitsev, V.K.; Reith, H. Electronic Structure</text>
   <text y="110.76" x="98.05,102.533,107.752,113.2237,115.472,120.968,126.187,130.481,134.023,141.941,146.836,151.131,153.74,158.035,162.016,164.939,168.481,171.09,175.0368,177.313,182.729,186.109,191.005,196.394,200.688,204.23,207.153,209.762,214.057,217.8244,220.101,224.996,227.95610000000002,230.224,234.913,238.455,242.938,248.157,251.958,254.568,257.491,260.1,264.995,270.1976,272.456,280.938,285.233,288.156,292.639,295.2403,297.49,305.972,310.868,316.086,320.982,324.783,327.393,330.002,332.611,336.592,339.201,344.68,348.975,352.777" svgx:width="0.5,0.58,0.61,0.55,0.61,0.58,0.48,0.4,0.88,0.55,0.48,0.29,0.48,0.44,0.33,0.4,0.29,0.44,0.55,0.6,0.4,0.55,0.6,0.48,0.4,0.33,0.29,0.48,0.42,0.55,0.55,0.33,0.55,0.61,0.4,0.5,0.58,0.42,0.29,0.33,0.29,0.55,0.58,0.55,0.95,0.48,0.33,0.5,0.29,0.55,0.95,0.55,0.58,0.55,0.42,0.29,0.29,0.29,0.44,0.29,0.61,0.48,0.42,0.25" style="fill:rgb(0,0,0);font-family:URWPalladioL-Roma;font-size:8.97px;stroke:none;">and Thermoelectric Properties of Transition Metal Monosilicides.</text>
   <text y="110.76" x="358.78,361.766,364.0085,366.249,371.728,374.22,377.708,381.357,384.343,387.67,391.651,396.636,398.87850000000003,401.657,410.122,414.103,417.089,420.576,423.401" svgx:width="0.33,0.25,0.55,0.61,0.28,0.39,0.41,0.33,0.39,0.44,0.56,0.25,0.55,0.94,0.44,0.33,0.39,0.39,0.25" style="fill:rgb(0,0,0);font-family:URWPalladioL-Ital;font-size:8.97px;stroke:none;">J. Electron. Mater.</text>
   <text y="110.76" x="428.421,432.904,437.387,441.871" svgx:width="0.5,0.5,0.5,0.5" style="fill:rgb(0,0,0);font-family:URWPalladioL-Bold;font-size:8.97px;stroke:none;">2017</text>
   <text y="110.76" x="446.354,448.5965,451.375" svgx:width="0.25,0.55,0.33" style="fill:rgb(0,0,0);font-family:URWPalladioL-Roma;font-size:8.97px;stroke:none;">. [</text>
   <text y="110.76" x="454.361,460.718,464.099,468.994,472.796,476.598,482.587,486.882" svgx:width="0.71,0.4,0.55,0.42,0.42,0.67,0.48,0.33" style="fill:rgb(8,117,183);font-family:URWPalladioL-Roma;font-size:8.97px;stroke:none;">CrossRef</text>
   <text y="110.76" x="489.868" svgx:width="0.33" style="fill:rgb(0,0,0);font-family:URWPalladioL-Roma;font-size:8.97px;stroke:none;">]</text>
   <text y="123.672" x="76.535,81.018,85.501,87.74350000000001,98.05,103.424,108.728,112.203,117.093,121.896,125.872,128.1145,130.314,137.157,139.356,144.088,146.287,148.5295,150.729,158.039,162.842,167.811,170.371,175.262,180.064,184.04,186.2825,188.491,193.109,195.308,200.497,202.696,204.9385,207.147,213.014,217.412,219.972,222.839,226.569,230.782,234.758,237.00050000000002,239.2,244.398,246.597,252.983,255.182,257.42449999999997,259.624,265.5,269.713,272.273,275.141,280.26,282.5025,284.711,292.029,294.2715,297.465,302.056,305.531,309.929,315.048,318.778,324.064,328.867,332.341,335.3011,337.452,342.738,346.045,350.848,356.134,360.348,363.822,366.69,369.249,373.463,377.23040000000003,379.444,384.247,387.2071,389.419,393.324,398.127,402.991,407.389,409.949,412.9091,415.059,422.826,427.629,432.748,437.551,441.28,443.84,446.4,448.959,452.865,455.424,460.799,465.1046,467.264,471.662,476.781,482.2527,484.398,486.958,489.826,493.59340000000003,495.798,500.196,502.756,505.315,510.118,515.009" svgx:width="0.5,0.5,0.25,0.55,0.61,0.6,0.4,0.56,0.55,0.56,0.25,0.55,0.78,0.25,0.61,0.25,0.25,0.55,0.83,0.55,0.56,0.29,0.56,0.55,0.56,0.25,0.55,0.52,0.25,0.72,0.25,0.25,0.55,0.67,0.5,0.29,0.33,0.42,0.48,0.56,0.25,0.55,0.72,0.25,0.73,0.25,0.25,0.55,0.67,0.48,0.29,0.33,0.58,0.25,0.55,0.83,0.25,0.55,0.61,0.4,0.5,0.58,0.42,0.6,0.55,0.4,0.33,0.55,0.6,0.4,0.55,0.6,0.48,0.4,0.33,0.29,0.48,0.42,0.55,0.55,0.33,0.55,0.44,0.55,0.55,0.5,0.29,0.33,0.55,0.88,0.55,0.58,0.55,0.42,0.29,0.29,0.29,0.44,0.29,0.61,0.48,0.55,0.5,0.58,0.61,0.55,0.29,0.33,0.42,0.55,0.5,0.29,0.29,0.55,0.56,0.42" style="fill:rgb(0,0,0);font-family:URWPalladioL-Roma;font-size:8.97px;stroke:none;">51. Burkov, A.T.; Novikov, S.V.; Zaitsev, V.K.; Reith, H. Transport properties of cobalt monosilicide and its alloys</text>
   <text y="136.583" x="98.05,102.533,105.4931,107.698,110.307,115.203,122.6481,124.922,127.845,132.14,140.058,145.446,149.741,153.283,157.766,160.689,166.096,169.476,173.771,177.573" svgx:width="0.5,0.33,0.55,0.29,0.55,0.83,0.55,0.33,0.48,0.88,0.6,0.48,0.4,0.5,0.33,0.6,0.4,0.48,0.42,0.25" style="fill:rgb(0,0,0);font-family:URWPalladioL-Roma;font-size:8.97px;stroke:none;">at low temperatures.</text>
   <text y="136.583" x="183.58,188.565,192.053,199.029,201.522,205.171,209.152,214.137,218.621,223.606,227.255,230.241,234.222,237.71" svgx:width="0.56,0.39,0.78,0.28,0.41,0.44,0.56,0.5,0.56,0.41,0.33,0.44,0.39,0.39" style="fill:rgb(0,0,0);font-family:URWPalladioL-Ital;font-size:8.97px;stroke:none;">Semiconductors</text>
   <text y="136.583" x="243.438,247.921,252.404,256.888" svgx:width="0.5,0.5,0.5,0.5" style="fill:rgb(0,0,0);font-family:URWPalladioL-Bold;font-size:8.97px;stroke:none;">2017</text>
   <text y="136.583" x="261.371" svgx:width="0.25" style="fill:rgb(0,0,0);font-family:URWPalladioL-Roma;font-size:8.97px;stroke:none;">,</text>
   <text y="136.583" x="265.854,270.337" svgx:width="0.5,0.5" style="fill:rgb(0,0,0);font-family:URWPalladioL-Ital;font-size:8.97px;stroke:none;">51</text>
   <text y="136.583" x="274.821,277.06350000000003,279.304,283.787,288.271,292.754,297.237,301.72,306.203,310.687,312.9295,315.708" svgx:width="0.25,0.55,0.5,0.5,0.5,0.5,0.5,0.5,0.5,0.25,0.55,0.33" style="fill:rgb(0,0,0);font-family:URWPalladioL-Roma;font-size:8.97px;stroke:none;">, 689–691. [</text>
   <text y="136.583" x="318.694,325.051,328.431,333.327,337.129,340.93,346.92,351.215" svgx:width="0.71,0.4,0.55,0.42,0.42,0.67,0.48,0.33" style="fill:rgb(8,117,183);font-family:URWPalladioL-Roma;font-size:8.97px;stroke:none;">CrossRef</text>
   <text y="136.583" x="354.201" svgx:width="0.33" style="fill:rgb(0,0,0);font-family:URWPalladioL-Roma;font-size:8.97px;stroke:none;">]</text>
   <text y="149.495" x="76.535,81.018,85.501,87.74350000000001,98.05,104.69,110.205,115.198,117.4405,120.521,125.624,127.911,134.551,136.837,139.0795,142.306,147.108,149.769,154.936,159.509,164.594,170.109,178.185,182.758,185.712,187.9545,191.025,197.665,199.952,208.604,210.89,213.1325,216.368,223.978,229.492,234.065,239.388,244.473,246.71550000000002,249.796,254.597,256.884,259.929,262.216,264.4585,267.685,273.273,278.788,283.169,285.4115,288.492,294.976,297.262,302.064,304.3065,309.6,315.206,320.529,324.91,328.522,336.598,341.592,345.972,348.634,353.015,357.075,360.057,363.669,366.331,370.2778,373.263,378.76,382.208,387.201,392.698,397.079,400.691,403.673,406.334,410.715,414.4824,417.474,422.467,425.4271,428.384,431.366,436.689,440.99460000000005,443.941,450.426,455.419,460.221,462.882,467.455,470.501,475.22,482.198,486.579,491.2434,494.17,498.743,501.404,504.065,509.059,514.144,518.022" svgx:width="0.5,0.5,0.25,0.55,0.73,0.6,0.55,0.25,0.55,0.67,0.25,0.73,0.25,0.25,0.55,0.52,0.29,0.56,0.5,0.56,0.6,0.88,0.5,0.4,0.25,0.55,0.73,0.25,0.95,0.25,0.25,0.55,0.83,0.6,0.5,0.58,0.56,0.25,0.55,0.52,0.25,0.33,0.25,0.25,0.55,0.61,0.6,0.48,0.25,0.55,0.71,0.25,0.52,0.25,0.55,0.61,0.58,0.48,0.4,0.88,0.55,0.48,0.29,0.48,0.44,0.33,0.4,0.29,0.44,0.55,0.6,0.4,0.55,0.6,0.48,0.4,0.33,0.29,0.48,0.42,0.55,0.55,0.33,0.55,0.33,0.58,0.48,0.55,0.71,0.55,0.52,0.29,0.5,0.33,0.52,0.76,0.48,0.52,0.55,0.5,0.29,0.29,0.55,0.56,0.42,0.25" style="fill:rgb(0,0,0);font-family:URWPalladioL-Roma;font-size:8.97px;stroke:none;">52. Kuo, Y.K.; Sivakumar, K.M.; Huang, S.J.; Lue, C.S. Thermoelectric properties of the CoSi1-xGex alloys.</text>
   <text y="162.406" x="98.05,101.036,103.27850000000001,105.519,111.993,116.476,120.959,123.452,125.6945,127.935,133.413,137.897,142.38,145.868" svgx:width="0.33,0.25,0.55,0.72,0.5,0.5,0.28,0.25,0.55,0.61,0.5,0.5,0.39,0.25" style="fill:rgb(0,0,0);font-family:URWPalladioL-Ital;font-size:8.97px;stroke:none;">J. Appl. Phys.</text>
   <text y="162.406" x="150.889,155.372,159.855,164.339" svgx:width="0.5,0.5,0.5,0.5" style="fill:rgb(0,0,0);font-family:URWPalladioL-Bold;font-size:8.97px;stroke:none;">2005</text>
   <text y="162.406" x="168.822" svgx:width="0.25" style="fill:rgb(0,0,0);font-family:URWPalladioL-Roma;font-size:8.97px;stroke:none;">,</text>
   <text y="162.406" x="173.305,177.788" svgx:width="0.5,0.5" style="fill:rgb(0,0,0);font-family:URWPalladioL-Ital;font-size:8.97px;stroke:none;">98</text>
   <text y="162.406" x="182.271,184.5135,186.754,191.237,195.721,200.204,204.687,209.17,213.653,215.8955,218.675" svgx:width="0.25,0.55,0.5,0.5,0.5,0.5,0.5,0.5,0.25,0.55,0.33" style="fill:rgb(0,0,0);font-family:URWPalladioL-Roma;font-size:8.97px;stroke:none;">, 123510. [</text>
   <text y="162.406" x="221.66,228.018,231.398,236.294,240.095,243.897,249.887,254.182" svgx:width="0.71,0.4,0.55,0.42,0.42,0.67,0.48,0.33" style="fill:rgb(8,117,183);font-family:URWPalladioL-Roma;font-size:8.97px;stroke:none;">CrossRef</text>
   <text y="162.406" x="257.167" svgx:width="0.33" style="fill:rgb(0,0,0);font-family:URWPalladioL-Roma;font-size:8.97px;stroke:none;">]</text>
   <text y="175.318" x="76.535,81.018,85.501,87.74350000000001,98.05,102.852,107.937,112.93,118.445,123.53,125.77250000000001,129.52,135.108,137.395,139.63750000000002,143.687,149.787,155.11,160.104,165.619,167.8615,171.609,178.093,180.38,182.6225,186.663,192.187,196.568,199.229,201.47150000000002,205.22,210.323,212.609,214.85150000000002,218.902,227.554,232.547,235.995,240.376,243.037,245.699,248.36,250.60250000000002,254.351,261.429,263.716,268.664,270.9065,277.928,285.537,288.199,293.284,298.4866,302.018,305.0,310.322,314.703,318.316,326.391,331.385,335.766,338.427,342.808,346.869,349.85,353.463,356.124,360.0708,363.596,369.093,374.086,381.714,386.095,389.68300000000005,393.119,396.164,400.737,404.798,407.779,412.773,416.36100000000005,419.797,422.458,427.66060000000004,431.201,435.774,438.436,441.097,446.091,451.176,454.9434,458.465,463.522,468.095,471.973,476.354,481.8257,485.353,490.347,495.5496,499.081,505.565,510.559,515.36,518.022" svgx:width="0.5,0.5,0.25,0.55,0.52,0.56,0.55,0.6,0.56,0.25,0.55,0.61,0.25,0.25,0.55,0.67,0.58,0.55,0.6,0.25,0.55,0.71,0.25,0.25,0.55,0.6,0.48,0.29,0.25,0.55,0.67,0.25,0.25,0.55,0.95,0.55,0.4,0.48,0.29,0.29,0.29,0.25,0.55,0.77,0.25,0.61,0.25,0.55,0.83,0.29,0.56,0.58,0.55,0.33,0.58,0.48,0.4,0.88,0.55,0.48,0.29,0.48,0.44,0.33,0.4,0.29,0.44,0.55,0.6,0.55,0.83,0.48,0.4,0.55,0.33,0.5,0.44,0.33,0.55,0.4,0.55,0.29,0.58,0.55,0.5,0.29,0.29,0.55,0.56,0.42,0.55,0.55,0.5,0.42,0.48,0.61,0.55,0.55,0.58,0.55,0.71,0.55,0.52,0.29,0.25" style="fill:rgb(0,0,0);font-family:URWPalladioL-Roma;font-size:8.97px;stroke:none;">53. Skoug, E.; Zhou, C.; Pei, Y.; Morelli, D.T. High thermoelectric power factor in alloys based on CoSi.</text>
   <text y="188.23" x="97.728,104.202,108.685,113.168,115.661,117.90350000000001,120.144,125.622,130.106,134.589,138.077,140.3195,142.56,147.545,151.033,154.019,157.005" svgx:width="0.72,0.5,0.5,0.28,0.25,0.55,0.61,0.5,0.5,0.39,0.25,0.55,0.56,0.39,0.33,0.33,0.25" style="fill:rgb(0,0,0);font-family:URWPalladioL-Ital;font-size:8.97px;stroke:none;">Appl. Phys. Lett.</text>
   <text y="188.23" x="162.025,166.508,170.991,175.475" svgx:width="0.5,0.5,0.5,0.5" style="fill:rgb(0,0,0);font-family:URWPalladioL-Bold;font-size:8.97px;stroke:none;">2009</text>
   <text y="188.23" x="179.958" svgx:width="0.25" style="fill:rgb(0,0,0);font-family:URWPalladioL-Roma;font-size:8.97px;stroke:none;">,</text>
   <text y="188.23" x="184.441,188.924" svgx:width="0.5,0.5" style="fill:rgb(0,0,0);font-family:URWPalladioL-Ital;font-size:8.97px;stroke:none;">94</text>
   <text y="188.23" x="193.407,195.64950000000002,197.89,202.373,206.857,211.34,215.823,220.306,224.789,227.0315,229.811" svgx:width="0.25,0.55,0.5,0.5,0.5,0.5,0.5,0.5,0.25,0.55,0.33" style="fill:rgb(0,0,0);font-family:URWPalladioL-Roma;font-size:8.97px;stroke:none;">, 022115. [</text>
   <text y="188.23" x="232.796,239.154,242.534,247.43,251.231,255.033,261.023,265.318" svgx:width="0.71,0.4,0.55,0.42,0.42,0.67,0.48,0.33" style="fill:rgb(8,117,183);font-family:URWPalladioL-Roma;font-size:8.97px;stroke:none;">CrossRef</text>
   <text y="188.23" x="268.303" svgx:width="0.33" style="fill:rgb(0,0,0);font-family:URWPalladioL-Roma;font-size:8.97px;stroke:none;">]</text>
   <text y="201.141" x="76.535,81.018,85.501,87.74350000000001,98.05,103.419,108.718,112.927,115.16950000000001,117.206,123.436,125.633,130.246,132.443,134.68550000000002,136.757,143.136,148.435,153.233,155.4755,157.512,162.38,164.577,170.956,173.153,175.3955,177.459,184.77,190.068,194.462,199.576,204.461,206.70350000000002,208.75,214.98,217.176,222.545,224.742,226.9845,229.048,234.417,238.81,241.367,243.6095,245.655,253.616,255.813,258.739,260.9815,263.739,271.05,275.848,278.405,282.614,285.54,290.909,295.706,300.987,303.544,308.658,313.6812,315.591,319.801,322.568,325.495,329.704,333.605,336.56510000000003,338.517,343.315,348.5176,350.476,353.341,358.455,362.7606,364.711,367.576,372.69,376.899,380.37,388.129,392.927,397.136,399.693,403.902,407.803,410.668,414.139,416.696,420.6428,422.644,427.925,431.238,436.036,441.317,445.526,448.997,451.861,454.418,458.627,462.3944,464.401,468.794,473.908,479.3797,481.324,485.533,488.091,492.3,496.201,499.066,502.37,507.167,512.281,514.838" svgx:width="0.5,0.5,0.25,0.55,0.61,0.6,0.48,0.25,0.55,0.71,0.25,0.52,0.25,0.25,0.55,0.73,0.6,0.55,0.25,0.55,0.67,0.25,0.73,0.25,0.25,0.55,0.83,0.6,0.5,0.58,0.56,0.25,0.55,0.71,0.25,0.61,0.25,0.25,0.55,0.61,0.5,0.29,0.25,0.55,1.0,0.25,0.33,0.25,0.55,0.83,0.55,0.29,0.48,0.33,0.61,0.55,0.6,0.29,0.58,0.56,0.55,0.48,0.33,0.33,0.48,0.44,0.33,0.55,0.55,0.58,0.55,0.33,0.58,0.48,0.55,0.33,0.58,0.48,0.4,0.88,0.55,0.48,0.29,0.48,0.44,0.33,0.4,0.29,0.44,0.55,0.6,0.4,0.55,0.6,0.48,0.4,0.33,0.29,0.48,0.42,0.55,0.5,0.58,0.61,0.55,0.48,0.29,0.48,0.44,0.33,0.4,0.55,0.58,0.29,0.44" style="fill:rgb(0,0,0);font-family:URWPalladioL-Roma;font-size:8.97px;stroke:none;">54. Lue, C.S.; Kuo, Y.K.; Huang, C.L.; Lai, W.J. Hole-doping effect on the thermoelectric properties and electronic</text>
   <text y="214.053" x="98.05,101.852,104.775,108.245,113.652,117.633,120.556,125.962,129.343,133.6486,135.879,140.775,143.73510000000002,146.002,152.359,157.255,161.963,164.572" svgx:width="0.42,0.33,0.4,0.6,0.44,0.33,0.6,0.4,0.48,0.55,0.55,0.33,0.55,0.71,0.55,0.52,0.29,0.25" style="fill:rgb(0,0,0);font-family:URWPalladioL-Roma;font-size:8.97px;stroke:none;">structure of CoSi.</text>
   <text y="214.053" x="170.579,176.057,180.541,185.024,188.512,190.7545,193.533,199.514,203.002,206.992,209.2345,212.013" svgx:width="0.61,0.5,0.5,0.39,0.25,0.55,0.67,0.39,0.5,0.25,0.55,0.61" style="fill:rgb(0,0,0);font-family:URWPalladioL-Ital;font-size:8.97px;stroke:none;">Phys. Rev. B</text>
   <text y="214.053" x="219.732,224.215,228.698,233.182" svgx:width="0.5,0.5,0.5,0.5" style="fill:rgb(0,0,0);font-family:URWPalladioL-Bold;font-size:8.97px;stroke:none;">2004</text>
   <text y="214.053" x="237.665" svgx:width="0.25" style="fill:rgb(0,0,0);font-family:URWPalladioL-Roma;font-size:8.97px;stroke:none;">,</text>
   <text y="214.053" x="242.148,246.631" svgx:width="0.5,0.5" style="fill:rgb(0,0,0);font-family:URWPalladioL-Ital;font-size:8.97px;stroke:none;">69</text>
   <text y="214.053" x="251.114,253.3565,255.597,260.08,264.564,269.047,273.53,278.013,282.497,284.7395,287.518" svgx:width="0.25,0.55,0.5,0.5,0.5,0.5,0.5,0.5,0.25,0.55,0.33" style="fill:rgb(0,0,0);font-family:URWPalladioL-Roma;font-size:8.97px;stroke:none;">, 125111. [</text>
   <text y="214.053" x="290.504,296.861,300.241,305.137,308.938,312.74,318.73,323.025" svgx:width="0.71,0.4,0.55,0.42,0.42,0.67,0.48,0.33" style="fill:rgb(8,117,183);font-family:URWPalladioL-Roma;font-size:8.97px;stroke:none;">CrossRef</text>
   <text y="214.053" x="326.01" svgx:width="0.33" style="fill:rgb(0,0,0);font-family:URWPalladioL-Roma;font-size:8.97px;stroke:none;">]</text>
   <text y="226.964" x="76.535,81.018,85.501,87.74350000000001,98.05,102.663,107.962,113.076,115.3185,117.276,124.587,126.784,129.0265,131.028,139.34,144.138,147.442,151.651,154.208,156.765,159.322,161.5645,163.522,170.324,172.52,177.248,179.445,181.6875,183.68,190.059,192.616,196.087,200.973,206.087,210.481,218.24,220.48250000000002,222.44,230.752,232.949,235.875,238.072,240.3145,242.316,250.629,254.838,259.723,263.932,266.735,268.9775,270.936,278.246,280.443,288.756,290.953,293.1955,295.197,300.566,304.959,308.43,312.824,315.75,321.98,327.278,330.749,335.143,337.7,342.498,344.7405,346.698,352.067,354.3095,356.847,362.233,367.347,371.6526,373.498,376.811,381.609,384.166,388.4716,390.317,395.115,398.0751,399.983,404.842,409.64,412.952,417.75,422.9526,424.806,428.532,432.741,437.626,440.939,445.148,450.034,454.427,457.292,459.849,464.647,469.8496,471.703,474.26,479.4626,481.316,485.525,490.639,495.753,500.146,505.26,509.162,513.371" svgx:width="0.5,0.5,0.25,0.55,0.52,0.6,0.58,0.25,0.55,0.83,0.25,0.25,0.55,0.95,0.55,0.4,0.48,0.29,0.29,0.29,0.25,0.55,0.77,0.25,0.61,0.25,0.25,0.55,0.73,0.29,0.4,0.56,0.58,0.5,0.88,0.25,0.55,0.95,0.25,0.33,0.25,0.25,0.55,0.95,0.48,0.56,0.48,0.4,0.25,0.55,0.83,0.25,0.95,0.25,0.25,0.55,0.61,0.5,0.4,0.5,0.33,0.71,0.6,0.4,0.5,0.29,0.55,0.25,0.55,0.61,0.25,0.55,0.61,0.58,0.48,0.55,0.4,0.55,0.29,0.48,0.55,0.55,0.33,0.55,0.55,0.55,0.4,0.55,0.58,0.55,0.42,0.48,0.56,0.4,0.48,0.56,0.5,0.33,0.29,0.55,0.58,0.55,0.29,0.58,0.55,0.48,0.58,0.58,0.5,0.58,0.44,0.48,0.61" style="fill:rgb(0,0,0);font-family:URWPalladioL-Roma;font-size:8.97px;stroke:none;">55. Sun, H.; Morelli, D.T.; Kirkham, M.J.; Meyer, H.M.; Lara-Curzio, E. The role of boron segregation in enhanced</text>
   <text y="239.876" x="98.05,100.973,106.191,110.486,114.028,121.945,126.841,131.136,133.745,138.04,142.021,144.944,148.486,151.095,155.0418,157.318,162.707,167.602,175.08,179.375,182.963,185.159,188.144,192.628,196.609,199.532,204.427,208.015,210.211,215.106,218.0661,220.334,226.691,231.587,236.294,238.903,243.386,246.372,250.999,256.477,261.1414,263.346,267.829,270.438,273.047,277.943,282.928,286.73" svgx:width="0.33,0.58,0.48,0.4,0.88,0.55,0.48,0.29,0.48,0.44,0.33,0.4,0.29,0.44,0.55,0.6,0.55,0.83,0.48,0.4,0.55,0.33,0.5,0.44,0.33,0.55,0.4,0.55,0.55,0.33,0.55,0.71,0.55,0.52,0.29,0.5,0.33,0.52,0.61,0.52,0.55,0.5,0.29,0.29,0.55,0.56,0.42,0.25" style="fill:rgb(0,0,0);font-family:URWPalladioL-Roma;font-size:8.97px;stroke:none;">thermoelectric power factor of CoSi1-xBx alloys.</text>
   <text y="239.876" x="292.735,295.721,297.9635,300.204,306.678,311.161,315.644,318.137,320.3795,323.158,328.636,333.12,337.603,341.091" svgx:width="0.33,0.25,0.55,0.72,0.5,0.5,0.28,0.25,0.55,0.61,0.5,0.5,0.39,0.25" style="fill:rgb(0,0,0);font-family:URWPalladioL-Ital;font-size:8.97px;stroke:none;">J. Appl. Phys.</text>
   <text y="239.876" x="346.112,350.595,355.078,359.562" svgx:width="0.5,0.5,0.5,0.5" style="fill:rgb(0,0,0);font-family:URWPalladioL-Bold;font-size:8.97px;stroke:none;">2011</text>
   <text y="239.876" x="364.044" svgx:width="0.25" style="fill:rgb(0,0,0);font-family:URWPalladioL-Roma;font-size:8.97px;stroke:none;">,</text>
   <text y="239.876" x="368.528,373.011,377.494" svgx:width="0.5,0.5,0.5" style="fill:rgb(0,0,0);font-family:URWPalladioL-Ital;font-size:8.97px;stroke:none;">110</text>
   <text y="239.876" x="381.977,384.2195,386.46,390.943,395.427,399.91,404.393,408.876,413.359,415.6015,418.381" svgx:width="0.25,0.55,0.5,0.5,0.5,0.5,0.5,0.5,0.25,0.55,0.33" style="fill:rgb(0,0,0);font-family:URWPalladioL-Roma;font-size:8.97px;stroke:none;">, 123711. [</text>
   <text y="239.876" x="421.366,427.724,431.104,436.0,439.801,443.603,449.593,453.888" svgx:width="0.71,0.4,0.55,0.42,0.42,0.67,0.48,0.33" style="fill:rgb(8,117,183);font-family:URWPalladioL-Roma;font-size:8.97px;stroke:none;">CrossRef</text>
   <text y="239.876" x="456.873" svgx:width="0.33" style="fill:rgb(0,0,0);font-family:URWPalladioL-Roma;font-size:8.97px;stroke:none;">]</text>
   <text y="252.788" x="76.535,81.018,85.501,87.74350000000001,98.05,102.852,108.366,113.689,115.9315,118.308,125.917,128.203,130.4455,132.85,138.438,143.952,146.1945,148.571,154.671,156.958,159.2005,161.604,170.256,175.249,178.697,183.078,185.739,188.401,191.062,193.30450000000002,195.69,202.769,205.055,209.994,212.2365,215.746,221.334,224.225,227.261,231.642,235.702,238.684,242.4514,244.885,249.878,252.8381,255.238,262.838,265.499,267.74150000000003,270.127,275.651,281.239,283.4815,285.858,290.431,295.753,301.2247,303.655,309.179,312.1391,314.484,319.285,324.8,329.858,333.736,336.717,339.378,342.36,347.875,350.856,353.518,358.511,363.834,367.6014,370.026,375.019,380.2216,382.656,388.262,393.585,397.966,401.578,409.654,414.648,419.029,421.69,426.071,430.131,433.113,436.725,439.387,443.3338,445.771,451.295,454.743,459.736,465.233,469.614,473.226,476.208,478.869,483.25,487.0174,489.441,494.435,497.3951,499.804,506.288,511.281,516.083" svgx:width="0.5,0.5,0.25,0.55,0.52,0.6,0.58,0.25,0.55,0.83,0.25,0.25,0.55,0.61,0.6,0.25,0.55,0.67,0.25,0.25,0.55,0.95,0.55,0.4,0.48,0.29,0.29,0.29,0.25,0.55,0.77,0.25,0.61,0.25,0.55,0.61,0.33,0.33,0.48,0.44,0.33,0.42,0.55,0.55,0.33,0.55,0.83,0.29,0.25,0.55,0.6,0.61,0.25,0.55,0.5,0.58,0.61,0.55,0.6,0.33,0.55,0.52,0.6,0.55,0.42,0.33,0.29,0.33,0.6,0.33,0.29,0.55,0.58,0.42,0.55,0.55,0.58,0.55,0.61,0.58,0.48,0.4,0.88,0.55,0.48,0.29,0.48,0.44,0.33,0.4,0.29,0.44,0.55,0.6,0.4,0.55,0.6,0.48,0.4,0.33,0.29,0.48,0.42,0.55,0.55,0.33,0.55,0.71,0.55,0.52,0.29" style="fill:rgb(0,0,0);font-family:URWPalladioL-Roma;font-size:8.97px;stroke:none;">56. Sun, H.; Lu, X.; Morelli, D.T. Effects of Ni, Pd, and Pt Substitutions on Thermoelectric Properties of CoSi</text>
   <text y="265.699" x="97.701,104.677,107.286,109.895,114.791,119.776,123.578" svgx:width="0.78,0.29,0.29,0.55,0.56,0.42,0.25" style="fill:rgb(0,0,0);font-family:URWPalladioL-Roma;font-size:8.97px;stroke:none;">Alloys.</text>
   <text y="265.699" x="129.585,132.571,134.8135,137.054,142.532,145.025,148.513,152.162,155.148,158.475,162.456,167.441,169.6835,172.462,180.927,184.908,187.893,191.381,194.206" svgx:width="0.33,0.25,0.55,0.61,0.28,0.39,0.41,0.33,0.39,0.44,0.56,0.25,0.55,0.94,0.44,0.33,0.39,0.39,0.25" style="fill:rgb(0,0,0);font-family:URWPalladioL-Ital;font-size:8.97px;stroke:none;">J. Electron. Mater.</text>
   <text y="265.699" x="199.226,203.709,208.192,212.676" svgx:width="0.5,0.5,0.5,0.5" style="fill:rgb(0,0,0);font-family:URWPalladioL-Bold;font-size:8.97px;stroke:none;">2013</text>
   <text y="265.699" x="217.159" svgx:width="0.25" style="fill:rgb(0,0,0);font-family:URWPalladioL-Roma;font-size:8.97px;stroke:none;">,</text>
   <text y="265.699" x="221.642,226.125" svgx:width="0.5,0.5" style="fill:rgb(0,0,0);font-family:URWPalladioL-Ital;font-size:8.97px;stroke:none;">42</text>
   <text y="265.699" x="230.608,232.8505,235.091,239.574,244.058,248.541,253.024,257.507,261.99,266.474,270.957,275.44,277.6825,280.461" svgx:width="0.25,0.55,0.5,0.5,0.5,0.5,0.5,0.5,0.5,0.5,0.5,0.25,0.55,0.33" style="fill:rgb(0,0,0);font-family:URWPalladioL-Roma;font-size:8.97px;stroke:none;">, 1352–1357. [</text>
   <text y="265.699" x="283.447,289.804,293.185,298.08,301.882,305.684,311.673,315.968" svgx:width="0.71,0.4,0.55,0.42,0.42,0.67,0.48,0.33" style="fill:rgb(8,117,183);font-family:URWPalladioL-Roma;font-size:8.97px;stroke:none;">CrossRef</text>
   <text y="265.699" x="318.954" svgx:width="0.33" style="fill:rgb(0,0,0);font-family:URWPalladioL-Roma;font-size:8.97px;stroke:none;">]</text>
   <text y="278.611" x="76.535,81.018,85.501,87.74350000000001,98.05,102.847,108.356,113.674,115.91650000000001,118.206,125.807,128.092,130.33450000000002,132.614,138.197,143.706,145.9485,148.238,154.332,156.617,158.8595,161.139,169.783,174.771,178.225,182.602,185.251,187.91,190.569,192.8115,195.101,202.173,204.457,209.391,211.6335,214.909,221.981,226.358,229.336,232.945,235.604,243.672,248.048,253.366,256.344,260.913,263.5143,265.819,270.196,273.074,276.116,280.493,284.55,287.5101,289.767,294.755,297.7151,300.036,305.528,310.516,318.136,323.719,328.095,331.68300000000005,333.952,339.443,342.888,347.876,351.933,356.31,360.184,364.058,366.716,372.034,377.05719999999997,379.362,384.35,389.55260000000004,391.907,394.885,400.203,404.5086,406.827,409.805,415.123,419.5,423.109,431.176,436.165,440.541,443.2,447.577,451.633,454.612,458.221,460.88,464.8268,467.175,472.666,476.111,481.099,486.591,490.967,494.576,497.555,500.214,504.59,508.3574,510.712,515.7" svgx:width="0.5,0.5,0.25,0.55,0.52,0.6,0.58,0.25,0.55,0.83,0.25,0.25,0.55,0.61,0.6,0.25,0.55,0.67,0.25,0.25,0.55,0.95,0.55,0.4,0.48,0.29,0.29,0.29,0.25,0.55,0.77,0.25,0.61,0.25,0.55,0.77,0.48,0.33,0.4,0.29,0.88,0.48,0.58,0.33,0.5,0.29,0.55,0.48,0.33,0.33,0.48,0.44,0.33,0.55,0.55,0.33,0.55,0.6,0.55,0.83,0.61,0.48,0.4,0.55,0.6,0.4,0.55,0.44,0.48,0.42,0.42,0.29,0.58,0.56,0.55,0.55,0.58,0.55,0.33,0.58,0.48,0.55,0.33,0.58,0.48,0.4,0.88,0.55,0.48,0.29,0.48,0.44,0.33,0.4,0.29,0.44,0.55,0.6,0.4,0.55,0.6,0.48,0.4,0.33,0.29,0.48,0.42,0.55,0.55,0.33" style="fill:rgb(0,0,0);font-family:URWPalladioL-Roma;font-size:8.97px;stroke:none;">57. Sun, H.; Lu, X.; Morelli, D.T. Detrimental effect of powder processing on the thermoelectric properties of</text>
   <text y="291.522" x="98.05,104.407,109.303,114.01,116.619" svgx:width="0.71,0.55,0.52,0.29,0.25" style="fill:rgb(0,0,0);font-family:URWPalladioL-Roma;font-size:8.97px;stroke:none;">CoSi.</text>
   <text y="291.522" x="122.627,125.613,127.8555,130.096,138.56,142.541,145.527,149.015,151.84,154.0825,156.861,161.846,165.495,167.988" svgx:width="0.33,0.25,0.55,0.94,0.44,0.33,0.39,0.39,0.25,0.55,0.56,0.41,0.28,0.25" style="fill:rgb(0,0,0);font-family:URWPalladioL-Ital;font-size:8.97px;stroke:none;">J. Mater. Sci.</text>
   <text y="291.522" x="173.009,177.492,181.975,186.459" svgx:width="0.5,0.5,0.5,0.5" style="fill:rgb(0,0,0);font-family:URWPalladioL-Bold;font-size:8.97px;stroke:none;">2017</text>
   <text y="291.522" x="190.941" svgx:width="0.25" style="fill:rgb(0,0,0);font-family:URWPalladioL-Roma;font-size:8.97px;stroke:none;">,</text>
   <text y="291.522" x="195.424,199.907" svgx:width="0.5,0.5" style="fill:rgb(0,0,0);font-family:URWPalladioL-Ital;font-size:8.97px;stroke:none;">52</text>
   <text y="291.522" x="204.391,206.6335,208.874,213.357,217.841,222.324,226.807,231.29,235.773,240.257,244.74,249.223,251.46550000000002,254.244" svgx:width="0.25,0.55,0.5,0.5,0.5,0.5,0.5,0.5,0.5,0.5,0.5,0.25,0.55,0.33" style="fill:rgb(0,0,0);font-family:URWPalladioL-Roma;font-size:8.97px;stroke:none;">, 8293–8299. [</text>
   <text y="291.522" x="257.23,263.587,266.967,271.863,275.665,279.467,285.456,289.751" svgx:width="0.71,0.4,0.55,0.42,0.42,0.67,0.48,0.33" style="fill:rgb(8,117,183);font-family:URWPalladioL-Roma;font-size:8.97px;stroke:none;">CrossRef</text>
   <text y="291.522" x="292.737" svgx:width="0.33" style="fill:rgb(0,0,0);font-family:URWPalladioL-Roma;font-size:8.97px;stroke:none;">]</text>
   <text y="304.434" x="76.535,81.018,85.501,87.74350000000001,98.05,102.663,107.057,109.614,113.823,117.549,119.79150000000001,121.986,127.355,129.552,135.782,137.978,140.22050000000002,142.416,149.217,153.426,155.983,160.377,162.934,166.238,170.447,172.6895,174.884,181.791,183.988,186.2305,188.425,196.738,200.639,207.344,212.642,215.199,218.512,222.721,224.9635,227.158,235.471,237.668,244.504,246.701,248.9435,251.138,259.451,263.844,267.728,269.9705,272.166,279.002,281.199,285.259,287.5015,290.68,296.067,301.181,305.39,308.861,316.62,321.417,325.626,328.183,332.392,336.294,339.158,342.629,345.186,349.1328,351.329,356.61,359.913,364.711,369.992,374.201,377.672,380.537,383.094,387.303,391.0704,393.269,398.067,401.0271,403.234,409.464" svgx:width="0.5,0.5,0.25,0.55,0.52,0.5,0.29,0.48,0.42,0.25,0.55,0.61,0.25,0.71,0.25,0.25,0.55,0.77,0.48,0.29,0.5,0.29,0.4,0.48,0.25,0.55,0.79,0.25,0.25,0.55,0.95,0.44,0.76,0.6,0.29,0.4,0.48,0.25,0.55,0.95,0.25,0.78,0.25,0.25,0.55,0.95,0.5,0.56,0.25,0.55,0.78,0.25,0.56,0.25,0.55,0.61,0.58,0.48,0.4,0.88,0.55,0.48,0.29,0.48,0.44,0.33,0.4,0.29,0.44,0.55,0.6,0.4,0.55,0.6,0.48,0.4,0.33,0.29,0.48,0.42,0.55,0.55,0.33,0.55,0.71,0.55" style="fill:rgb(0,0,0);font-family:URWPalladioL-Roma;font-size:8.97px;stroke:none;">58. Sales, B.C.; Delaire, O.; McGuire, M.A.; May, A.F. Thermoelectric properties of Co</text>
   <text y="304.434" x="414.371" svgx:width="0.78" style="fill:rgb(0,0,0);font-family:CMSY10;font-size:9.34px;stroke:none;">−</text>
   <text y="304.434" x="421.746,423.9885,426.183,429.145" svgx:width="0.25,0.55,0.34,0.4" style="fill:rgb(0,0,0);font-family:URWPalladioL-Roma;font-size:8.97px;stroke:none;">, Ir</text>
   <text y="304.434" x="432.726" svgx:width="0.78" style="fill:rgb(0,0,0);font-family:CMSY10;font-size:9.34px;stroke:none;">−</text>
   <text y="304.434" x="440.101,442.3435,444.538,448.932,454.046,459.5177,461.656,468.562,472.288,475.214,480.583,485.381,490.662,494.871,500.3427,502.472,507.357,511.566,516.179" svgx:width="0.25,0.55,0.5,0.58,0.61,0.55,0.79,0.42,0.33,0.61,0.55,0.6,0.48,0.61,0.55,0.56,0.48,0.52,0.29" style="fill:rgb(0,0,0);font-family:URWPalladioL-Roma;font-size:8.97px;stroke:none;">, and Os-doped FeSi</text>
   <text y="317.346" x="98.05,102.533,105.142,107.752,112.647,117.633,121.434,123.6765,126.456,131.934,137.0,139.609,145.088,149.383,154.601,158.582,162.8876,165.119,168.104,173.0,176.588,178.783,182.585,185.508,188.889,193.784,199.003,204.0262,206.23,210.525,213.134,217.429,221.41,224.333,227.713,232.609,237.827,240.813,246.202,251.42,256.316,261.534,266.43,271.6326,273.89,277.871,282.767,288.174,293.562,296.172,298.781,303.999,308.985" svgx:width="0.5,0.29,0.29,0.55,0.56,0.42,0.25,0.55,0.61,0.56,0.29,0.61,0.48,0.58,0.44,0.48,0.55,0.33,0.55,0.4,0.55,0.42,0.33,0.4,0.55,0.58,0.56,0.55,0.48,0.29,0.48,0.44,0.33,0.4,0.55,0.58,0.33,0.6,0.58,0.55,0.58,0.55,0.58,0.55,0.44,0.55,0.6,0.6,0.29,0.29,0.58,0.56,0.25" style="fill:rgb(0,0,0);font-family:URWPalladioL-Roma;font-size:8.97px;stroke:none;">alloys: Evidence for strong electron-phonon coupling.</text>
   <text y="317.346" x="314.989,320.467,324.951,329.434,332.922,335.16450000000003,337.943,343.924,347.411,351.402,353.6445,356.423" svgx:width="0.61,0.5,0.5,0.39,0.25,0.55,0.67,0.39,0.5,0.25,0.55,0.61" style="fill:rgb(0,0,0);font-family:URWPalladioL-Ital;font-size:8.97px;stroke:none;">Phys. Rev. B</text>
   <text y="317.346" x="364.143,368.626,373.109,377.593" svgx:width="0.5,0.5,0.5,0.5" style="fill:rgb(0,0,0);font-family:URWPalladioL-Bold;font-size:8.97px;stroke:none;">2011</text>
   <text y="317.346" x="382.075" svgx:width="0.25" style="fill:rgb(0,0,0);font-family:URWPalladioL-Roma;font-size:8.97px;stroke:none;">,</text>
   <text y="317.346" x="386.559,391.042" svgx:width="0.5,0.5" style="fill:rgb(0,0,0);font-family:URWPalladioL-Ital;font-size:8.97px;stroke:none;">83</text>
   <text y="317.346" x="395.525,397.7675,400.008,404.491,408.975,413.458,417.941,422.424,426.908,429.1505,431.929" svgx:width="0.25,0.55,0.5,0.5,0.5,0.5,0.5,0.5,0.25,0.55,0.33" style="fill:rgb(0,0,0);font-family:URWPalladioL-Roma;font-size:8.97px;stroke:none;">, 125209. [</text>
   <text y="317.346" x="434.915,441.272,444.652,449.548,453.349,457.151,463.141,467.436" svgx:width="0.71,0.4,0.55,0.42,0.42,0.67,0.48,0.33" style="fill:rgb(8,117,183);font-family:URWPalladioL-Roma;font-size:8.97px;stroke:none;">CrossRef</text>
   <text y="317.346" x="470.421" svgx:width="0.33" style="fill:rgb(0,0,0);font-family:URWPalladioL-Roma;font-size:8.97px;stroke:none;">]</text>
   <text y="330.257" x="76.535,81.018,85.501,87.74350000000001,98.05,103.52,107.858,111.272,116.805,121.143,127.872,130.1145,132.382,135.397,137.661,141.981,144.245,146.4875,148.755,154.288,159.749,163.326,168.361,172.699,174.94150000000002,177.218,183.793,186.057,188.2995,190.567,196.1,199.677,204.948,209.476,213.814,217.228,222.499,227.443,230.459,232.7015,234.978,243.545,245.7875,249.051,255.961,260.299,265.569,269.907,273.484,278.012,280.648,283.283,287.811,292.149,297.6207,299.928,306.838,310.415,314.943,320.476,323.111,327.449,332.72,335.68010000000004,337.927,344.973,350.416,355.858,359.272,364.217,368.89,371.525,379.522,384.05,387.002,389.637,394.582,399.7846,402.099,410.666,415.194,420.727,425.0326,427.311,432.065,434.7,442.697,448.14,450.775,455.113" svgx:width="0.5,0.5,0.25,0.55,0.6,0.48,0.4,0.61,0.48,0.83,0.25,0.55,0.33,0.25,0.6,0.25,0.25,0.55,0.61,0.6,0.4,0.56,0.48,0.25,0.55,0.73,0.25,0.25,0.55,0.61,0.4,0.58,0.5,0.48,0.4,0.58,0.55,0.33,0.25,0.55,0.95,0.25,0.55,0.76,0.48,0.58,0.48,0.4,0.5,0.29,0.29,0.5,0.48,0.61,0.55,0.76,0.4,0.5,0.61,0.29,0.48,0.58,0.33,0.55,0.78,0.6,0.6,0.4,0.55,0.52,0.29,0.88,0.5,0.33,0.29,0.55,0.58,0.55,0.95,0.5,0.61,0.48,0.55,0.52,0.29,0.88,0.6,0.29,0.48,0.25" style="fill:rgb(0,0,0);font-family:URWPalladioL-Roma;font-size:8.97px;stroke:none;">59. Perdew, J.P.; Burke, K.; Ernzerhof, M. Generalized Gradient Approximation Made Simple.</text>
   <text y="330.257" x="461.174,466.707,471.235,475.763,479.286,481.5285,484.348,490.389,493.912,497.942,500.1845,503.004,508.039,511.562,514.578,517.593" svgx:width="0.61,0.5,0.5,0.39,0.25,0.55,0.67,0.39,0.5,0.25,0.55,0.56,0.39,0.33,0.33,0.25" style="fill:rgb(0,0,0);font-family:URWPalladioL-Ital;font-size:8.97px;stroke:none;">Phys. Rev. Lett.</text>
   <text y="343.169" x="97.602,102.085,106.568,111.052" svgx:width="0.5,0.5,0.5,0.5" style="fill:rgb(0,0,0);font-family:URWPalladioL-Bold;font-size:8.97px;stroke:none;">1996</text>
   <text y="343.169" x="115.535" svgx:width="0.25" style="fill:rgb(0,0,0);font-family:URWPalladioL-Roma;font-size:8.97px;stroke:none;">,</text>
   <text y="343.169" x="120.018,124.501" svgx:width="0.5,0.5" style="fill:rgb(0,0,0);font-family:URWPalladioL-Ital;font-size:8.97px;stroke:none;">77</text>
   <text y="343.169" x="128.984,131.22650000000002,133.467,137.95,142.434,146.917,151.4,155.883,160.366,164.85,169.333,173.816,176.0585,178.837" svgx:width="0.25,0.55,0.5,0.5,0.5,0.5,0.5,0.5,0.5,0.5,0.5,0.25,0.55,0.33" style="fill:rgb(0,0,0);font-family:URWPalladioL-Roma;font-size:8.97px;stroke:none;">, 3865–3868. [</text>
   <text y="343.169" x="181.823,188.18,191.561,196.456,200.258,204.06,210.049,214.344" svgx:width="0.71,0.4,0.55,0.42,0.42,0.67,0.48,0.33" style="fill:rgb(8,117,183);font-family:URWPalladioL-Roma;font-size:8.97px;stroke:none;">CrossRef</text>
   <text y="343.169" x="217.33" svgx:width="0.33" style="fill:rgb(0,0,0);font-family:URWPalladioL-Roma;font-size:8.97px;stroke:none;">]</text>
   <text y="356.08" x="76.535,81.018,85.501,87.74350000000001,98.05,104.429,107.742,111.951,115.677,119.403,123.612,125.8545,127.671,134.376,136.573,138.81550000000001,140.694,145.579,150.878,154.349,157.213,162.327,170.086,175.385,177.942,180.499,184.708,187.511,189.7535,191.571,194.497,196.73950000000002,198.899,204.268,207.036,212.352,216.254,218.811,223.02,228.134,231.0941,232.765,235.322,238.186,242.395,245.866,250.26,253.124,255.681,260.646,264.95160000000004,266.63,270.356,274.257,279.371,283.58,291.339,295.548,299.3154,301.04,303.966,308.764,312.35200000000003,314.001,318.395,323.32849999999996,325.02,327.577,332.691,335.248,338.113,340.67,345.6035,347.242,350.107,354.905,357.769,362.163,364.72,367.646,371.855,376.969,381.178,384.482,389.368,394.39119999999997,396.02,399.921,404.315,406.872,410.773,416.072,418.629,423.022,425.887,428.444,433.242,438.356,442.1234,443.856,449.155,452.881,455.438,460.552,465.5752,467.204,471.689,473.363,478.644,481.201,485.595,490.709,494.918,497.844,505.173,509.566,514.531" svgx:width="0.5,0.5,0.25,0.55,0.73,0.4,0.48,0.42,0.42,0.48,0.25,0.55,0.76,0.25,0.25,0.55,0.56,0.6,0.4,0.33,0.58,0.88,0.6,0.29,0.29,0.48,0.4,0.25,0.55,0.33,0.25,0.55,0.61,0.33,0.61,0.44,0.29,0.48,0.58,0.33,0.55,0.29,0.33,0.48,0.4,0.5,0.33,0.29,0.56,0.48,0.55,0.42,0.44,0.58,0.48,0.88,0.48,0.42,0.55,0.33,0.55,0.4,0.55,0.5,0.55,0.55,0.29,0.58,0.29,0.33,0.29,0.55,0.55,0.33,0.55,0.33,0.5,0.29,0.33,0.48,0.58,0.48,0.4,0.56,0.56,0.55,0.44,0.5,0.29,0.44,0.6,0.29,0.5,0.33,0.29,0.55,0.58,0.42,0.55,0.6,0.42,0.29,0.58,0.56,0.55,0.5,0.55,0.6,0.29,0.5,0.58,0.48,0.33,0.83,0.5,0.56,0.48" style="fill:rgb(0,0,0);font-family:URWPalladioL-Roma;font-size:8.97px;stroke:none;">60. Kresse, G.; Furthmüller, J. Efﬁcient iterative schemes for ab initio total-energy calculations using a plane-wave</text>
   <text y="368.992" x="98.05,103.008,107.492,111.293,113.903,117.6704,119.946,123.748,128.043,130.966" svgx:width="0.55,0.5,0.42,0.29,0.42,0.55,0.42,0.48,0.33,0.25" style="fill:rgb(0,0,0);font-family:URWPalladioL-Roma;font-size:8.97px;stroke:none;">basis set.</text>
   <text y="368.992" x="136.973,142.451,146.935,151.418,154.906,157.1485,159.927,165.908,169.396,173.386,175.6285,178.407" svgx:width="0.61,0.5,0.5,0.39,0.25,0.55,0.67,0.39,0.5,0.25,0.55,0.61" style="fill:rgb(0,0,0);font-family:URWPalladioL-Ital;font-size:8.97px;stroke:none;">Phys. Rev. B</text>
   <text y="368.992" x="186.126,190.609,195.092,199.576" svgx:width="0.5,0.5,0.5,0.5" style="fill:rgb(0,0,0);font-family:URWPalladioL-Bold;font-size:8.97px;stroke:none;">1996</text>
   <text y="368.992" x="204.059" svgx:width="0.25" style="fill:rgb(0,0,0);font-family:URWPalladioL-Roma;font-size:8.97px;stroke:none;">,</text>
   <text y="368.992" x="208.542,213.025" svgx:width="0.5,0.5" style="fill:rgb(0,0,0);font-family:URWPalladioL-Ital;font-size:8.97px;stroke:none;">54</text>
   <text y="368.992" x="217.509,219.7515,221.992,226.475,230.959,235.442,239.925,244.408,246.6505,249.429" svgx:width="0.25,0.55,0.5,0.5,0.5,0.5,0.5,0.25,0.55,0.33" style="fill:rgb(0,0,0);font-family:URWPalladioL-Roma;font-size:8.97px;stroke:none;">, 11169. [</text>
   <text y="368.992" x="252.415,258.772,262.153,267.048,270.85,274.652,280.641,284.936" svgx:width="0.71,0.4,0.55,0.42,0.42,0.67,0.48,0.33" style="fill:rgb(8,117,183);font-family:URWPalladioL-Roma;font-size:8.97px;stroke:none;">CrossRef</text>
   <text y="368.992" x="287.922" svgx:width="0.33" style="fill:rgb(0,0,0);font-family:URWPalladioL-Roma;font-size:8.97px;stroke:none;">]</text>
   <text y="381.904" x="76.535,81.018,85.501,87.74350000000001,97.983,104.275,107.479,111.585,115.205,118.824,122.931,125.1735,127.223,133.843,135.922,138.1645,140.223,143.038,147.737,152.94,157.702,161.808,165.171,167.923,170.1655,172.215,178.932,181.1745,184.225,189.012,192.216,196.915,206.809,212.013,214.456,217.208,220.571,224.863,228.483,233.182,235.996,238.95610000000002,240.961,246.147,249.767,253.873,259.077,264.351,269.05,274.236,278.936,281.688,285.794,290.812,293.564,296.007,300.299,302.742,306.5094,308.582,311.335,316.26849999999996,318.246,320.999,326.017,330.3226,332.335,337.521,340.725,345.424,347.362,351.469,355.265,358.018,362.717,366.305,368.292,372.584,377.788,382.576,390.258,394.364,399.382,402.134,406.24,411.515,414.329,421.577,425.869,430.737,435.04260000000005,437.055,444.737,448.843,451.596,456.614,461.313,466.587" svgx:width="0.5,0.5,0.25,0.55,0.73,0.4,0.48,0.42,0.42,0.48,0.25,0.55,0.76,0.25,0.25,0.55,0.33,0.55,0.6,0.55,0.48,0.4,0.33,0.25,0.55,0.77,0.25,0.55,0.56,0.4,0.55,0.88,0.6,0.29,0.33,0.4,0.5,0.42,0.55,0.33,0.33,0.55,0.6,0.42,0.48,0.6,0.61,0.55,0.6,0.55,0.33,0.48,0.58,0.33,0.29,0.5,0.29,0.42,0.55,0.33,0.55,0.55,0.33,0.58,0.48,0.55,0.6,0.4,0.55,0.23,0.48,0.44,0.33,0.55,0.4,0.55,0.5,0.6,0.56,0.88,0.48,0.58,0.33,0.48,0.61,0.33,0.83,0.5,0.56,0.48,0.55,0.88,0.48,0.33,0.58,0.55,0.61,0.25" style="fill:rgb(0,0,0);font-family:URWPalladioL-Roma;font-size:8.97px;stroke:none;">61. Kresse, G.; Joubert, D. Fromultrasoft pseudopotentials to the projector augmented-wave method.</text>
   <text y="381.904" x="473.59,478.865,483.157,487.449,490.759,493.0015,495.6,501.37,504.679,508.485,510.7275,513.326" svgx:width="0.61,0.5,0.5,0.39,0.25,0.55,0.67,0.39,0.5,0.25,0.55,0.61" style="fill:rgb(0,0,0);font-family:URWPalladioL-Ital;font-size:8.97px;stroke:none;">Phys. Rev. B</text>
   <text y="394.815" x="97.607,101.956,106.304,110.653" svgx:width="0.5,0.5,0.5,0.5" style="fill:rgb(0,0,0);font-family:URWPalladioL-Bold;font-size:8.97px;stroke:none;">1999</text>
   <text y="394.815" x="115.001" svgx:width="0.25" style="fill:rgb(0,0,0);font-family:URWPalladioL-Roma;font-size:8.97px;stroke:none;">,</text>
   <text y="394.815" x="119.26,123.609" svgx:width="0.5,0.5" style="fill:rgb(0,0,0);font-family:URWPalladioL-Ital;font-size:8.97px;stroke:none;">59</text>
   <text y="394.815" x="127.958,130.2005,132.271,136.62,140.968,145.317,149.666,151.9085,153.996" svgx:width="0.25,0.55,0.5,0.5,0.5,0.5,0.25,0.55,0.33" style="fill:rgb(0,0,0);font-family:URWPalladioL-Roma;font-size:8.97px;stroke:none;">, 1758. [</text>
   <text y="394.815" x="156.982,163.339,166.72,171.615,175.417,179.219,185.209,189.503" svgx:width="0.71,0.4,0.55,0.42,0.42,0.67,0.48,0.33" style="fill:rgb(8,117,183);font-family:URWPalladioL-Roma;font-size:8.97px;stroke:none;">CrossRef</text>
   <text y="394.815" x="192.489" svgx:width="0.33" style="fill:rgb(0,0,0);font-family:URWPalladioL-Roma;font-size:8.97px;stroke:none;">]</text>
   <text y="407.727" x="76.535,81.018,85.501,87.74350000000001,98.05,106.702,111.695,115.573,118.555,123.548,129.081,131.3235,133.636,140.751,143.038,150.153,152.44,154.6825,157.003,162.28,166.853,169.835,174.216,178.093,180.3355,182.657,185.703,187.989,194.098,196.385,198.6275,200.949,206.473,209.134,213.707,218.28,220.941,223.1835,225.496,232.474,234.76,237.0025,239.324,244.912,249.293,253.674,255.9165,258.228,263.332,265.618,270.42,272.706,274.9485,277.27,282.071,287.065,292.58,297.153,301.725,303.96750000000003,306.289,309.371,311.658,313.9005,316.221,322.001,326.574,331.897,337.485,341.866,345.479,350.536,353.198,355.859,358.84,361.0825,363.395,370.474,372.76,375.0025,377.324,385.976,390.549,394.161,398.734,403.307,406.92,409.581,411.8235,414.136,421.736,423.9785,427.333,434.448,439.6506,442.03,447.545,453.042,458.63,463.202,466.184,470.565,476.0367,478.421,483.588,487.969,491.582,495.459,498.121,503.114,508.3166,510.705,515.699" svgx:width="0.5,0.5,0.25,0.55,0.95,0.55,0.42,0.33,0.55,0.61,0.25,0.55,0.78,0.25,0.78,0.25,0.25,0.55,0.67,0.5,0.33,0.48,0.42,0.25,0.55,0.33,0.25,0.67,0.25,0.25,0.55,0.6,0.29,0.5,0.5,0.29,0.25,0.55,0.76,0.25,0.25,0.55,0.61,0.48,0.48,0.25,0.55,0.67,0.25,0.52,0.25,0.25,0.55,0.52,0.55,0.6,0.5,0.5,0.25,0.55,0.34,0.25,0.25,0.55,0.72,0.5,0.58,0.61,0.48,0.4,0.55,0.29,0.29,0.33,0.25,0.55,0.77,0.25,0.25,0.55,0.95,0.5,0.4,0.5,0.5,0.4,0.29,0.25,0.55,0.83,0.25,0.55,0.78,0.58,0.55,0.6,0.6,0.61,0.5,0.33,0.48,0.61,0.55,0.56,0.48,0.4,0.42,0.29,0.55,0.58,0.55,0.55,0.33" style="fill:rgb(0,0,0);font-family:URWPalladioL-Roma;font-size:8.97px;stroke:none;">62. Mostoﬁ, A.A.; Yates, J.R.; Pizzi, G.; Lee, Y.S.; Souza, I.; Vanderbilt, D.; Marzari, N. An updated version of</text>
   <text y="420.638" x="97.674,105.302,109.874,115.197,120.52,123.181,127.562,131.175,135.748,140.321,142.5635,146.293,153.2896,156.106,159.088,164.081,169.075,171.6763,174.434,177.48,182.473,186.061,188.784,193.777,198.835,201.816,206.389,209.051,214.373,217.035,222.358,227.3812,230.141,238.216,242.789,247.508,250.17,258.245,262.818,265.48,268.141,273.226,276.272,278.933,283.927,287.987,292.56,295.222,297.883,301.761,306.142,311.6137,314.428,322.741,327.314,332.637,337.96,340.621,345.002,348.59000000000003,351.312,354.358,359.873,365.196,369.256,372.238,374.899,379.893,385.216,389.093" svgx:width="0.83,0.5,0.58,0.58,0.29,0.48,0.4,0.5,0.5,0.25,0.55,0.78,0.55,0.33,0.55,0.55,0.29,0.55,0.33,0.55,0.4,0.55,0.55,0.55,0.33,0.5,0.29,0.58,0.29,0.58,0.56,0.55,0.88,0.5,0.52,0.29,0.88,0.5,0.29,0.29,0.56,0.33,0.29,0.55,0.44,0.5,0.29,0.29,0.42,0.48,0.61,0.55,1.0,0.5,0.58,0.58,0.29,0.48,0.4,0.55,0.33,0.6,0.58,0.44,0.33,0.29,0.55,0.58,0.42,0.25" style="fill:rgb(0,0,0);font-family:URWPalladioL-Roma;font-size:8.97px;stroke:none;">wannier90: A tool for obtaining maximally-localised Wannier functions.</text>
   <text y="420.638" x="397.514,403.614,407.675,414.79,419.363,424.448,427.494,429.73650000000004,433.923,439.511,444.084,448.657,452.215,454.4575,458.653,464.753,468.805,475.92,483.036,488.121,493.206" svgx:width="0.67,0.44,0.78,0.5,0.56,0.33,0.25,0.55,0.61,0.5,0.5,0.39,0.25,0.55,0.67,0.44,0.78,0.78,0.56,0.56,0.25" style="fill:rgb(0,0,0);font-family:URWPalladioL-Ital;font-size:8.97px;stroke:none;">Comput. Phys. Commun.</text>
   <text y="420.638" x="499.642,504.125,508.608,513.092" svgx:width="0.5,0.5,0.5,0.5" style="fill:rgb(0,0,0);font-family:URWPalladioL-Bold;font-size:8.97px;stroke:none;">2014</text>
   <text y="420.638" x="517.575" svgx:width="0.25" style="fill:rgb(0,0,0);font-family:URWPalladioL-Roma;font-size:8.97px;stroke:none;">,</text>
   <text y="433.55" x="97.602,102.085,106.568" svgx:width="0.5,0.5,0.5" style="fill:rgb(0,0,0);font-family:URWPalladioL-Ital;font-size:8.97px;stroke:none;">185</text>
   <text y="433.55" x="111.052,113.29450000000001,115.535,120.018,124.502,128.985,133.468,137.951,142.434,146.918,151.401,155.884,158.1265,160.905" svgx:width="0.25,0.55,0.5,0.5,0.5,0.5,0.5,0.5,0.5,0.5,0.5,0.25,0.55,0.33" style="fill:rgb(0,0,0);font-family:URWPalladioL-Roma;font-size:8.97px;stroke:none;">, 2309–2310. [</text>
   <text y="433.55" x="163.891,170.248,173.629,178.524,182.326,186.128,192.117,196.412" svgx:width="0.71,0.4,0.55,0.42,0.42,0.67,0.48,0.33" style="fill:rgb(8,117,183);font-family:URWPalladioL-Roma;font-size:8.97px;stroke:none;">CrossRef</text>
   <text y="433.55" x="199.398" svgx:width="0.33" style="fill:rgb(0,0,0);font-family:URWPalladioL-Roma;font-size:8.97px;stroke:none;">]</text>
   <text y="446.462" x="76.535,81.018,85.501,87.74350000000001,98.05,104.599,109.524,114.539,119.049,121.674,123.785,126.0275,128.277,135.294,137.53650000000002,140.779,147.174,152.099,160.064,165.485,170.924,173.865,178.185,181.773,183.994,189.01,192.573,197.083,202.495,207.745,210.37,214.374,218.1414,220.445,224.955,230.205,235.6767,237.953,242.969,246.532,251.042,256.463,261.712,264.337,268.342,272.852,275.45329999999996,277.723,283.163,286.987,291.308,294.896,297.108,299.733,304.982,307.923,312.244,315.807,318.81,323.32,327.325,331.646,335.4134,337.708,342.218,345.9854,348.288,351.229,356.154,361.079,363.704,367.4714,369.765,372.39,377.5926,379.886,383.711,386.336,394.3,399.74,402.364,406.875,409.815,412.44,417.365,422.615,426.3824,428.676,433.601,436.5611,438.851,446.816,451.326,454.267,457.207,461.528,465.11600000000004,467.328,471.838,474.79810000000003,477.016,479.956,485.206,489.51160000000004,491.773,496.283,499.223,504.148,512.113,514.738" svgx:width="0.5,0.5,0.25,0.55,0.73,0.55,0.56,0.5,0.29,0.23,0.25,0.55,0.78,0.25,0.55,0.71,0.55,0.88,0.6,0.6,0.33,0.48,0.4,0.55,0.56,0.4,0.5,0.6,0.58,0.29,0.44,0.42,0.55,0.5,0.58,0.61,0.55,0.56,0.4,0.5,0.6,0.58,0.29,0.44,0.5,0.29,0.55,0.6,0.42,0.48,0.4,0.55,0.29,0.58,0.33,0.48,0.4,0.33,0.5,0.44,0.48,0.42,0.55,0.5,0.42,0.55,0.33,0.55,0.55,0.29,0.42,0.55,0.29,0.58,0.55,0.42,0.29,0.88,0.6,0.29,0.5,0.33,0.29,0.55,0.58,0.42,0.55,0.55,0.33,0.55,0.88,0.5,0.33,0.33,0.48,0.4,0.55,0.5,0.33,0.55,0.33,0.58,0.48,0.55,0.5,0.33,0.55,0.88,0.29,0.44" style="fill:rgb(0,0,0);font-family:URWPalladioL-Roma;font-size:8.97px;stroke:none;">63. Kokalj, A. Computer graphics and graphical user interfaces as tools in simulations of matter at the atomic</text>
   <text y="459.373" x="98.05,101.852,105.833,110.316,112.925,117.22" svgx:width="0.42,0.44,0.5,0.29,0.48,0.25" style="fill:rgb(0,0,0);font-family:URWPalladioL-Roma;font-size:8.97px;stroke:none;">scale.</text>
   <text y="459.373" x="123.228,129.209,133.19,140.166,144.649,149.634,152.62,154.8625,157.641,166.105,170.086,173.072,176.56,179.385,181.6275,184.406,189.391,193.04,195.533" svgx:width="0.67,0.44,0.78,0.5,0.56,0.33,0.25,0.55,0.94,0.44,0.33,0.39,0.39,0.25,0.55,0.56,0.41,0.28,0.25" style="fill:rgb(0,0,0);font-family:URWPalladioL-Ital;font-size:8.97px;stroke:none;">Comput. Mater. Sci.</text>
   <text y="459.373" x="200.553,205.036,209.519,214.003" svgx:width="0.5,0.5,0.5,0.5" style="fill:rgb(0,0,0);font-family:URWPalladioL-Bold;font-size:8.97px;stroke:none;">2003</text>
   <text y="459.373" x="218.486" svgx:width="0.25" style="fill:rgb(0,0,0);font-family:URWPalladioL-Roma;font-size:8.97px;stroke:none;">,</text>
   <text y="459.373" x="222.969,227.452" svgx:width="0.5,0.5" style="fill:rgb(0,0,0);font-family:URWPalladioL-Ital;font-size:8.97px;stroke:none;">28</text>
   <text y="459.373" x="231.935,234.1775,236.418,240.901,245.385,249.868,254.351,258.834,263.317,267.801,270.0435,272.822" svgx:width="0.25,0.55,0.5,0.5,0.5,0.5,0.5,0.5,0.5,0.25,0.55,0.33" style="fill:rgb(0,0,0);font-family:URWPalladioL-Roma;font-size:8.97px;stroke:none;">, 155–168. [</text>
   <text y="459.373" x="275.808,282.165,285.545,290.441,294.243,298.044,304.034,308.329" svgx:width="0.71,0.4,0.55,0.42,0.42,0.67,0.48,0.33" style="fill:rgb(8,117,183);font-family:URWPalladioL-Roma;font-size:8.97px;stroke:none;">CrossRef</text>
   <text y="459.373" x="311.315" svgx:width="0.33" style="fill:rgb(0,0,0);font-family:URWPalladioL-Roma;font-size:8.97px;stroke:none;">]</text>
   <text y="472.285" x="76.535,81.018,85.501,87.74350000000001,98.05,106.483,111.836,114.0785,116.283,123.26,125.479,127.7215,129.935,135.856,141.022,145.461,150.627,155.562,157.80450000000002,160.01,164.67,166.889,169.13150000000002,171.345,176.005,180.852,186.018,190.954,193.19650000000001,195.41,202.795,205.015,209.125,211.344,213.5865,215.791,220.434,223.771,228.618,233.553,237.805,240.655,242.8975,245.102,253.499,255.719,257.9615,260.175,264.835,269.682,272.265,277.617,282.553,286.991,292.158,297.004,301.025,303.2675,305.473,312.379,314.598,321.504,323.7465,326.928,334.979,339.417,344.583,349.75,352.333,356.585,360.091,364.707,369.554,374.4,376.984,380.747,382.9895,385.745,392.651,397.85360000000003,400.045,404.892,410.227,414.479,419.645,422.601,426.365,431.212,436.564,439.911,443.852,448.1576,450.332,454.096,458.943,461.898,464.792,472.196,476.634,479.98,484.28560000000004,486.469,491.804,496.243,500.184,505.119,509.558,514.493" svgx:width="0.5,0.5,0.25,0.55,1.0,0.6,0.25,0.55,0.79,0.25,0.25,0.55,0.67,0.58,0.5,0.58,0.56,0.25,0.55,0.52,0.25,0.25,0.55,0.52,0.55,0.58,0.56,0.25,0.55,0.83,0.25,0.56,0.25,0.25,0.55,0.61,0.4,0.55,0.56,0.48,0.4,0.25,0.55,0.95,0.25,0.25,0.55,0.52,0.55,0.29,0.6,0.56,0.5,0.58,0.55,0.56,0.25,0.55,0.78,0.25,0.78,0.25,0.55,1.0,0.5,0.58,0.58,0.29,0.48,0.4,0.61,0.55,0.55,0.29,0.42,0.25,0.55,0.78,0.58,0.55,0.55,0.6,0.48,0.58,0.33,0.42,0.55,0.6,0.4,0.44,0.48,0.55,0.42,0.55,0.33,0.33,0.83,0.5,0.4,0.48,0.55,0.6,0.5,0.44,0.56,0.5,0.56,0.48" style="fill:rgb(0,0,0);font-family:URWPalladioL-Roma;font-size:8.97px;stroke:none;">64. Wu, Q.; Zhang, S.; Song, H.F.; Troyer, M.; Soluyanov, A.A. WannierTools: An open-source software package</text>
   <text y="485.196" x="98.05,101.036,105.931,109.51899999999999,111.715,116.933,121.829,126.895,131.19,133.7913,136.041,138.964,143.859,149.248,154.144,156.753,161.649,166.634,169.243,173.224,177.708,180.3093,182.558,190.476,194.959,197.882,202.177,205.719,208.328,212.811,215.42,219.222" svgx:width="0.33,0.55,0.4,0.55,0.58,0.55,0.56,0.48,0.29,0.55,0.33,0.55,0.6,0.55,0.29,0.55,0.56,0.29,0.44,0.5,0.29,0.55,0.88,0.5,0.33,0.48,0.4,0.29,0.5,0.29,0.42,0.25" style="fill:rgb(0,0,0);font-family:URWPalladioL-Roma;font-size:8.97px;stroke:none;">for novel topological materials.</text>
   <text y="485.196" x="225.228,231.209,235.19,242.166,246.649,251.634,254.62,256.8625,259.641,265.12,269.603,274.086,277.574,279.8165,282.595,288.576,292.557,299.533,306.508,311.494,316.479" svgx:width="0.67,0.44,0.78,0.5,0.56,0.33,0.25,0.55,0.61,0.5,0.5,0.39,0.25,0.55,0.67,0.44,0.78,0.78,0.56,0.56,0.25" style="fill:rgb(0,0,0);font-family:URWPalladioL-Ital;font-size:8.97px;stroke:none;">Comput. Phys. Commun.</text>
   <text y="485.196" x="321.499,325.982,330.465,334.949" svgx:width="0.5,0.5,0.5,0.5" style="fill:rgb(0,0,0);font-family:URWPalladioL-Bold;font-size:8.97px;stroke:none;">2018</text>
   <text y="485.196" x="339.432" svgx:width="0.25" style="fill:rgb(0,0,0);font-family:URWPalladioL-Roma;font-size:8.97px;stroke:none;">,</text>
   <text y="485.196" x="343.915,348.398,352.881" svgx:width="0.5,0.5,0.5" style="fill:rgb(0,0,0);font-family:URWPalladioL-Ital;font-size:8.97px;stroke:none;">224</text>
   <text y="485.196" x="357.364,359.6065,361.847,366.33,370.814,375.297,377.53950000000003,380.318" svgx:width="0.25,0.55,0.5,0.5,0.5,0.25,0.55,0.33" style="fill:rgb(0,0,0);font-family:URWPalladioL-Roma;font-size:8.97px;stroke:none;">, 405. [</text>
   <text y="485.196" x="383.304,389.661,393.041,397.937,401.739,405.541,411.53,415.825" svgx:width="0.71,0.4,0.55,0.42,0.42,0.67,0.48,0.33" style="fill:rgb(8,117,183);font-family:URWPalladioL-Roma;font-size:8.97px;stroke:none;">CrossRef</text>
   <text y="485.196" x="418.811" svgx:width="0.33" style="fill:rgb(0,0,0);font-family:URWPalladioL-Roma;font-size:8.97px;stroke:none;">]</text>
   <text y="498.108" x="76.535,81.018,85.501,87.74350000000001,98.05,101.096,105.668,108.33,113.653,115.89550000000001,118.994,126.109,128.396,130.6385,133.901,141.09,146.413,151.498,153.7405,156.839,161.64,163.927,168.289,170.576,172.8185,176.081,183.691,188.263,193.778,196.76,199.421,203.802,206.747,208.98950000000002,212.088,219.066,221.353,223.59550000000002,226.858,233.343,238.666,243.046,248.369,250.6115,253.71,262.024,264.31,266.5525,269.816,275.925,278.587,282.647,287.97,292.543,295.991,301.579,305.457,307.6995,310.798,319.121,321.407,328.486,330.772,333.0145,336.278,343.357,347.93,351.99,356.371,361.456,363.6985,366.797,371.599,373.885,376.1275,379.382,385.866,391.189,396.183,398.844,401.505,406.078,408.3205,411.419,416.221,418.507,420.7495,424.013,430.991,436.506,441.829,444.81,449.191,452.136,454.37850000000003,457.477,464.556,466.842,469.0845,472.348,477.15,482.235,484.896,490.219,495.542,499.923,502.868,505.1105,508.209,515.287,517.574" svgx:width="0.5,0.5,0.25,0.55,0.33,0.5,0.29,0.58,0.25,0.55,0.78,0.25,0.25,0.55,0.79,0.58,0.56,0.25,0.55,0.52,0.25,0.6,0.25,0.25,0.55,0.83,0.5,0.6,0.33,0.29,0.48,0.4,0.25,0.55,0.76,0.25,0.25,0.55,0.71,0.58,0.48,0.58,0.25,0.55,1.0,0.25,0.25,0.55,0.67,0.29,0.44,0.58,0.5,0.4,0.61,0.42,0.25,0.55,1.0,0.25,0.77,0.25,0.25,0.55,0.77,0.5,0.44,0.48,0.56,0.25,0.55,0.52,0.25,0.25,0.55,0.71,0.58,0.55,0.29,0.29,0.5,0.25,0.55,0.52,0.25,0.25,0.55,0.76,0.6,0.58,0.33,0.48,0.4,0.25,0.55,0.77,0.25,0.25,0.55,0.52,0.56,0.29,0.58,0.58,0.48,0.4,0.25,0.55,0.77,0.25,0.25" style="fill:rgb(0,0,0);font-family:URWPalladioL-Roma;font-size:8.97px;stroke:none;">65. Jain, A.; Ong, S.P.; Hautier, G.; Chen, W.; Richards, W.D.; Dacek, S.; Cholia, S.; Gunter, D.; Skinner, D.;</text>
   <text y="511.02" x="98.05,104.477,108.819,114.358,118.7,121.619,123.8615,126.124,133.041,135.307,137.5495,139.813,144.155,147.1151,149.349,153.882,156.519,158.7615,162.548,168.105,173.38,177.6856,179.953,188.528,193.061,196.016,200.358,203.939,206.577,211.109,213.747,217.51440000000002,219.83,225.305,228.731,233.681,235.793,240.135,244.16,247.115,249.35750000000002,252.165,259.1616,261.456,269.461,273.993,276.948,281.29,284.871,287.509,292.042,294.68,298.4474,300.762,305.802,310.144,315.42,320.37,328.374,332.67960000000005,334.955,339.488,344.936,350.384,353.802,358.751,363.284,367.309,372.51160000000004,374.823,377.779,382.7125,384.967,389.5,393.525,397.549,401.892,404.53,408.872,412.443,416.976,419.931,422.569,427.845,432.8682,435.124,443.128,447.661,450.616,454.958,458.539,461.177,465.709,468.347,472.1144,474.43,477.068,482.344,487.62,492.569,497.691,502.223,505.178,507.816,512.766,518.042" svgx:width="0.71,0.48,0.61,0.48,0.4,0.25,0.55,0.76,0.25,0.25,0.55,0.48,0.33,0.55,0.5,0.29,0.25,0.55,0.61,0.58,0.48,0.55,0.95,0.5,0.33,0.48,0.4,0.29,0.5,0.29,0.42,0.55,0.6,0.4,0.55,0.23,0.48,0.44,0.33,0.25,0.55,0.78,0.55,0.88,0.5,0.33,0.48,0.4,0.29,0.5,0.29,0.42,0.55,0.56,0.48,0.58,0.55,0.88,0.48,0.55,0.5,0.6,0.6,0.4,0.55,0.5,0.44,0.58,0.55,0.33,0.55,0.55,0.5,0.44,0.44,0.48,0.29,0.48,0.4,0.5,0.33,0.29,0.58,0.56,0.55,0.88,0.5,0.33,0.48,0.4,0.29,0.5,0.29,0.42,0.55,0.29,0.58,0.58,0.55,0.56,0.5,0.33,0.29,0.55,0.58,0.25" style="fill:rgb(0,0,0);font-family:URWPalladioL-Roma;font-size:8.97px;stroke:none;">Ceder, G.; et al. The Materials Project: A materials genome approach to accelerating materials innovation.</text>
   <text y="523.931" x="97.728,104.202,109.68,114.70320000000001,116.907,125.371,129.352,132.338,135.826,138.651" svgx:width="0.72,0.61,0.56,0.55,0.94,0.44,0.33,0.39,0.39,0.25" style="fill:rgb(0,0,0);font-family:URWPalladioL-Ital;font-size:8.97px;stroke:none;">APL Mater.</text>
   <text y="523.931" x="143.671,148.154,152.637,157.121" svgx:width="0.5,0.5,0.5,0.5" style="fill:rgb(0,0,0);font-family:URWPalladioL-Bold;font-size:8.97px;stroke:none;">2013</text>
   <text y="523.931" x="161.604" svgx:width="0.25" style="fill:rgb(0,0,0);font-family:URWPalladioL-Roma;font-size:8.97px;stroke:none;">,</text>
   <text y="523.931" x="166.087" svgx:width="0.5" style="fill:rgb(0,0,0);font-family:URWPalladioL-Ital;font-size:8.97px;stroke:none;">1</text>
   <text y="523.931" x="170.57,172.8125,175.053,179.536,184.02,188.503,192.986,197.469,201.952,204.1945,206.974" svgx:width="0.25,0.55,0.5,0.5,0.5,0.5,0.5,0.5,0.25,0.55,0.33" style="fill:rgb(0,0,0);font-family:URWPalladioL-Roma;font-size:8.97px;stroke:none;">, 011002. [</text>
   <text y="523.931" x="209.959,216.317,219.697,224.593,228.394,232.196,238.186,242.481" svgx:width="0.71,0.4,0.55,0.42,0.42,0.67,0.48,0.33" style="fill:rgb(8,117,183);font-family:URWPalladioL-Roma;font-size:8.97px;stroke:none;">CrossRef</text>
   <text y="523.931" x="245.466" svgx:width="0.33" style="fill:rgb(0,0,0);font-family:URWPalladioL-Roma;font-size:8.97px;stroke:none;">]</text>
   <text y="536.843" x="76.535,81.018,85.501,87.74350000000001,98.05,103.638,108.211,111.659,115.72,121.042,125.423,129.603,131.84550000000002,134.944,140.386,142.672,144.9145,148.178,153.702,158.695,164.192,169.185,174.353,178.926,181.1685,184.267,189.068,191.31050000000002,196.668,202.275,207.598,211.9036,214.868,220.365,225.359,228.02,233.105,241.181,246.174,249.787,255.283,260.606,263.268,267.145,275.0386,278.111,283.105,286.06510000000003,289.04,292.022,295.634,300.207,305.53,309.408,312.069,315.051,317.712,322.706,327.90860000000004,330.928,339.003,343.384,346.366,350.939,353.5403,356.49,364.566,369.559,374.882,379.876,384.961,389.341,392.954,401.03,405.603,410.925,413.587,419.175,423.556,427.3234,430.323,434.896,437.8561,440.768,446.091,448.752,453.837,459.0396,462.059,467.556,471.004,475.384,479.262,483.14,488.655,492.103,496.484,500.2514,503.261,507.833,513.156" svgx:width="0.5,0.5,0.25,0.55,0.61,0.5,0.4,0.44,0.58,0.48,0.56,0.25,0.55,0.72,0.25,0.25,0.55,0.6,0.55,0.6,0.55,0.56,0.5,0.25,0.55,0.52,0.25,0.55,0.61,0.58,0.48,0.55,0.6,0.55,0.29,0.56,0.88,0.55,0.4,0.6,0.58,0.29,0.42,0.88,0.55,0.55,0.33,0.55,0.33,0.4,0.5,0.58,0.42,0.29,0.33,0.29,0.55,0.58,0.55,0.88,0.48,0.33,0.5,0.29,0.55,0.88,0.55,0.58,0.55,0.56,0.48,0.4,0.88,0.5,0.58,0.29,0.61,0.48,0.42,0.55,0.5,0.33,0.55,0.58,0.29,0.56,0.58,0.55,0.6,0.4,0.48,0.42,0.42,0.6,0.4,0.48,0.42,0.55,0.5,0.58,0.61" style="fill:rgb(0,0,0);font-family:URWPalladioL-Roma;font-size:8.97px;stroke:none;">66. Larchev, V.; Popova, S. The polymorphism of transition metal monogermanides at high pressures and</text>
   <text y="549.754" x="98.05,100.973,105.268,113.185,118.574,122.869,126.411,130.894,133.817,139.224,142.604,146.899,150.701" svgx:width="0.33,0.48,0.88,0.6,0.48,0.4,0.5,0.33,0.6,0.4,0.48,0.42,0.25" style="fill:rgb(0,0,0);font-family:URWPalladioL-Roma;font-size:8.97px;stroke:none;">temperatures.</text>
   <text y="549.754" x="156.708,159.694,161.9365,164.177,169.162,172.65,176.138,179.6363,181.868,187.848,191.829,198.805,205.781,209.762,214.7852,216.989,225.453,228.941,231.927" svgx:width="0.33,0.25,0.55,0.56,0.39,0.39,0.39,0.55,0.67,0.44,0.78,0.78,0.44,0.56,0.55,0.94,0.39,0.33,0.25" style="fill:rgb(0,0,0);font-family:URWPalladioL-Ital;font-size:8.97px;stroke:none;">J. Less Common Met.</text>
   <text y="549.754" x="236.947,241.43,245.913,250.397" svgx:width="0.5,0.5,0.5,0.5" style="fill:rgb(0,0,0);font-family:URWPalladioL-Bold;font-size:8.97px;stroke:none;">1982</text>
   <text y="549.754" x="254.88" svgx:width="0.25" style="fill:rgb(0,0,0);font-family:URWPalladioL-Roma;font-size:8.97px;stroke:none;">,</text>
   <text y="549.754" x="259.363,263.846" svgx:width="0.5,0.5" style="fill:rgb(0,0,0);font-family:URWPalladioL-Ital;font-size:8.97px;stroke:none;">87</text>
   <text y="549.754" x="268.329,270.5715,272.812,277.295,281.779,286.262,290.745,295.228,297.4705,300.249" svgx:width="0.25,0.55,0.5,0.5,0.5,0.5,0.5,0.25,0.55,0.33" style="fill:rgb(0,0,0);font-family:URWPalladioL-Roma;font-size:8.97px;stroke:none;">, 53–57. [</text>
   <text y="549.754" x="303.235,309.592,312.973,317.868,321.67,325.472,331.461,335.756" svgx:width="0.71,0.4,0.55,0.42,0.42,0.67,0.48,0.33" style="fill:rgb(8,117,183);font-family:URWPalladioL-Roma;font-size:8.97px;stroke:none;">CrossRef</text>
   <text y="549.754" x="338.742" svgx:width="0.33" style="fill:rgb(0,0,0);font-family:URWPalladioL-Roma;font-size:8.97px;stroke:none;">]</text>
   <text y="562.666" x="76.535,81.018,85.501,87.74350000000001,98.05,106.702,111.275,114.256,117.238,122.561,126.941,129.603,133.481,137.358,139.6005,142.114,147.702,149.989,154.251,156.537,158.7795,161.329,168.939,173.511,181.587,186.16,191.483,196.806,199.04850000000002,201.561,208.64,210.927,217.036,219.2785,223.127,228.715,233.288,238.611,244.0827,246.622,250.5,253.482,257.021,262.536,266.597,269.578,275.093,278.541,282.8466,285.345,289.918,295.241,300.7127,303.253,307.131,311.511,319.587,322.248,326.309,331.303,336.625,342.214,347.728,351.789,354.771,357.432,362.755,367.77819999999997,370.254,375.751,379.208,384.202,389.698,394.079,397.691,400.673,403.334,407.715,411.4824,414.007,419.001,421.9611,424.47,429.555,433.936,438.737,441.399" svgx:width="0.5,0.5,0.25,0.55,0.95,0.5,0.33,0.33,0.58,0.48,0.29,0.42,0.42,0.25,0.55,0.61,0.25,0.56,0.25,0.25,0.55,0.83,0.5,0.88,0.5,0.58,0.58,0.25,0.55,0.77,0.25,0.67,0.25,0.55,0.61,0.5,0.58,0.61,0.55,0.42,0.33,0.4,0.6,0.44,0.33,0.6,0.4,0.48,0.55,0.5,0.58,0.61,0.55,0.42,0.48,0.88,0.29,0.44,0.55,0.58,0.61,0.6,0.44,0.33,0.29,0.58,0.56,0.55,0.6,0.4,0.55,0.6,0.48,0.4,0.33,0.29,0.48,0.42,0.55,0.55,0.33,0.55,0.56,0.48,0.52,0.29,0.25" style="fill:rgb(0,0,0);font-family:URWPalladioL-Roma;font-size:8.97px;stroke:none;">67. Mattheiss, L.F.; Hamann, D.R. Band structure and semiconducting properties of FeSi.</text>
   <text y="562.666" x="448.39,453.978,458.551,463.124,466.681,468.9235,472.288,478.388,481.946,486.025,488.2675,491.631" svgx:width="0.61,0.5,0.5,0.39,0.25,0.55,0.67,0.39,0.5,0.25,0.55,0.61" style="fill:rgb(0,0,0);font-family:URWPalladioL-Ital;font-size:8.97px;stroke:none;">Phys. Rev. B</text>
   <text y="562.666" x="499.642,504.125,508.608,513.092" svgx:width="0.5,0.5,0.5,0.5" style="fill:rgb(0,0,0);font-family:URWPalladioL-Bold;font-size:8.97px;stroke:none;">1993</text>
   <text y="562.666" x="517.575" svgx:width="0.25" style="fill:rgb(0,0,0);font-family:URWPalladioL-Roma;font-size:8.97px;stroke:none;">,</text>
   <text y="575.578" x="97.826,102.309" svgx:width="0.5,0.5" style="fill:rgb(0,0,0);font-family:URWPalladioL-Ital;font-size:8.97px;stroke:none;">47</text>
   <text y="575.578" x="106.793,109.03550000000001,111.276,115.759,120.243,124.726,129.209,133.692,138.175,142.659,147.142,151.625,156.108,160.591,162.83350000000002,165.613" svgx:width="0.25,0.55,0.5,0.5,0.5,0.5,0.5,0.5,0.5,0.5,0.5,0.5,0.5,0.25,0.55,0.33" style="fill:rgb(0,0,0);font-family:URWPalladioL-Roma;font-size:8.97px;stroke:none;">, 13114–13119. [</text>
   <text y="575.578" x="168.598,174.956,178.336,183.232,187.033,190.835,196.825,201.12" svgx:width="0.71,0.4,0.55,0.42,0.42,0.67,0.48,0.33" style="fill:rgb(8,117,183);font-family:URWPalladioL-Roma;font-size:8.97px;stroke:none;">CrossRef</text>
   <text y="575.578" x="204.105" svgx:width="0.33" style="fill:rgb(0,0,0);font-family:URWPalladioL-Roma;font-size:8.97px;stroke:none;">]</text>
   <text y="588.489" x="76.535,81.018,85.501,87.74350000000001,98.05,103.574,107.955,110.936,114.384,119.378,124.545,129.118,131.3605,133.636,140.751,143.038,148.626,150.912,153.1545,155.439,162.079,165.692,170.265,174.142,179.465,184.459,187.998,193.513,197.391,201.269,206.354,210.442,212.6845,214.96,220.411,222.697,230.297,232.584,234.8265,237.102,242.397,247.912,253.235,257.808,261.685,266.258,268.5005,270.776,279.099,281.385,290.037,292.324,294.5665,296.842,302.43,307.423,312.508,316.121,320.694,324.571,328.449,333.443,335.6855,337.961,342.899,345.186,352.301,354.588,356.83050000000003,359.115,363.916,366.898,369.559,373.437,378.76,383.753,387.924,390.1665,392.442,397.243,399.53,408.182,410.4245,413.669,419.257,421.919,426.491,430.369,433.351,436.012,439.9588,442.304,447.801,451.249,456.243,461.739,466.12,469.732,472.714,475.375,479.756,483.5234,485.866,490.859,493.8191,496.136,504.788,510.111,514.912,517.574" svgx:width="0.5,0.5,0.25,0.55,0.6,0.48,0.33,0.4,0.55,0.56,0.5,0.25,0.55,0.78,0.25,0.61,0.25,0.25,0.55,0.73,0.4,0.5,0.42,0.58,0.55,0.4,0.6,0.42,0.42,0.56,0.56,0.25,0.55,0.72,0.25,0.83,0.25,0.25,0.55,0.67,0.6,0.58,0.5,0.42,0.5,0.25,0.55,1.0,0.25,0.95,0.25,0.25,0.55,0.61,0.55,0.56,0.4,0.5,0.42,0.42,0.55,0.25,0.55,0.61,0.25,0.78,0.25,0.25,0.55,0.52,0.33,0.29,0.42,0.58,0.55,0.56,0.25,0.55,0.52,0.25,0.95,0.25,0.55,0.61,0.29,0.5,0.42,0.33,0.29,0.44,0.55,0.6,0.4,0.55,0.6,0.48,0.4,0.33,0.29,0.48,0.42,0.55,0.55,0.33,0.55,0.95,0.58,0.52,0.29,0.25" style="fill:rgb(0,0,0);font-family:URWPalladioL-Roma;font-size:8.97px;stroke:none;">68. Petrova, A.E.; Krasnorussky, V.N.; Yuhasz, W.M.; Lograsso, T.A.; Stishov, S.M. Elastic properties of MnSi,</text>
   <text y="601.401" x="98.05,103.035,107.33,112.038,114.63929999999999,116.888,121.372,126.59,132.0617,134.31,140.667,145.563,150.27,152.88" svgx:width="0.56,0.48,0.52,0.29,0.55,0.5,0.58,0.61,0.55,0.71,0.55,0.52,0.29,0.25" style="fill:rgb(0,0,0);font-family:URWPalladioL-Roma;font-size:8.97px;stroke:none;">FeSi and CoSi.</text>
   <text y="601.401" x="158.887,161.873,164.1155,166.356,171.834,176.318,180.801,184.289,186.5315,189.31,195.291,199.272,204.257,206.75,208.9925,211.771,216.756,220.244,223.069" svgx:width="0.33,0.25,0.55,0.61,0.5,0.5,0.39,0.25,0.55,0.67,0.44,0.56,0.28,0.25,0.55,0.56,0.39,0.39,0.25" style="fill:rgb(0,0,0);font-family:URWPalladioL-Ital;font-size:8.97px;stroke:none;">J. Phys. Conf. Ser.</text>
   <text y="601.401" x="228.089,232.572,237.055,241.539" svgx:width="0.5,0.5,0.5,0.5" style="fill:rgb(0,0,0);font-family:URWPalladioL-Bold;font-size:8.97px;stroke:none;">2011</text>
   <text y="601.401" x="246.021" svgx:width="0.25" style="fill:rgb(0,0,0);font-family:URWPalladioL-Roma;font-size:8.97px;stroke:none;">,</text>
   <text y="601.401" x="250.505,254.988,259.471" svgx:width="0.5,0.5,0.5" style="fill:rgb(0,0,0);font-family:URWPalladioL-Ital;font-size:8.97px;stroke:none;">273</text>
   <text y="601.401" x="263.954,266.1965,268.437,272.92,277.404,281.887,286.37,290.853,295.336,297.5785,300.358" svgx:width="0.25,0.55,0.5,0.5,0.5,0.5,0.5,0.5,0.25,0.55,0.33" style="fill:rgb(0,0,0);font-family:URWPalladioL-Roma;font-size:8.97px;stroke:none;">, 012056. [</text>
   <text y="601.401" x="303.343,309.701,313.081,317.977,321.778,325.58,331.57,335.865" svgx:width="0.71,0.4,0.55,0.42,0.42,0.67,0.48,0.33" style="fill:rgb(8,117,183);font-family:URWPalladioL-Roma;font-size:8.97px;stroke:none;">CrossRef</text>
   <text y="601.401" x="338.85" svgx:width="0.33" style="fill:rgb(0,0,0);font-family:URWPalladioL-Roma;font-size:8.97px;stroke:none;">]</text>
   <text y="614.312" x="76.535,81.018,85.501,87.74350000000001,98.05,103.135,106.748,111.32,116.643,120.704,123.365,128.359,132.237,134.898,137.1405,139.846,146.961,149.248,151.4905,154.278,162.591,166.972,171.545,176.712,181.093,184.047,186.2895,188.986,192.032,194.318,201.927,204.214,206.4565,209.244,216.432,218.975,226.575,230.956,233.617,236.279,238.94,241.1825,243.888,250.967,253.253,260.231,262.518,264.7605,267.548,272.349,276.41,281.733,289.809,292.47,298.058,301.039,303.2815,305.978,310.24,312.527,319.642,321.928,324.1705,326.958,332.547,335.208,339.086,341.747,343.9895,346.695,353.884,356.17,358.4125,361.191,367.675,372.248,374.91,379.482,384.805,390.393,394.006,398.579,400.8215,403.527,410.011,412.25350000000003,416.596,422.184,424.845,429.226,433.287,436.268,439.716,444.71,450.033,452.694,456.6408,459.334,463.212,466.193,469.732,475.247,479.308,482.29,487.804,491.252,495.55760000000004,498.212,503.206,506.16610000000003,508.821,515.306" svgx:width="0.5,0.5,0.25,0.55,0.56,0.4,0.5,0.58,0.44,0.29,0.55,0.42,0.29,0.25,0.55,0.78,0.25,0.25,0.55,1.0,0.48,0.5,0.56,0.48,0.4,0.25,0.55,0.33,0.25,0.83,0.25,0.25,0.55,0.79,0.28,0.83,0.48,0.29,0.29,0.29,0.25,0.55,0.77,0.25,0.76,0.25,0.25,0.55,0.52,0.44,0.58,0.88,0.29,0.61,0.33,0.25,0.55,0.56,0.25,0.78,0.25,0.25,0.55,0.61,0.29,0.42,0.29,0.25,0.55,0.79,0.25,0.25,0.55,0.71,0.5,0.29,0.5,0.58,0.61,0.4,0.5,0.25,0.55,0.71,0.25,0.55,0.61,0.29,0.48,0.44,0.33,0.4,0.55,0.58,0.29,0.44,0.55,0.42,0.33,0.4,0.6,0.44,0.33,0.6,0.4,0.48,0.55,0.55,0.33,0.55,0.71,0.4" style="fill:rgb(0,0,0);font-family:URWPalladioL-Roma;font-size:8.97px;stroke:none;">69. Franciosi, A.; Weaver, J.H.; O’Neill, D.G.; Schmidt, F.A.; Bisi, O.; Calandra, C. Electronic structure of Cr</text>
   <text y="627.224" x="98.05,101.852,104.461,107.07,109.679,113.66,116.27,121.748,126.043,129.81040000000002,132.086,136.57,141.788,147.2597,149.508,154.216,156.825,159.811,166.168,169.756,171.951,174.56,179.779,182.702,186.997,190.538,193.524,198.007,201.989,206.2946,208.525,211.905,216.2,220.683,224.665,227.588,230.197,235.092,240.311,244.113" svgx:width="0.42,0.29,0.29,0.29,0.44,0.29,0.61,0.48,0.42,0.55,0.5,0.58,0.61,0.55,0.52,0.29,0.33,0.71,0.4,0.55,0.29,0.58,0.33,0.48,0.4,0.33,0.5,0.44,0.48,0.55,0.4,0.48,0.5,0.44,0.33,0.29,0.55,0.58,0.42,0.25" style="fill:rgb(0,0,0);font-family:URWPalladioL-Roma;font-size:8.97px;stroke:none;">silicides and Si-Cr interface reactions.</text>
   <text y="627.224" x="250.118,255.596,260.08,264.563,268.051,270.2935,273.072,279.053,282.54,286.531,288.7735,291.552" svgx:width="0.61,0.5,0.5,0.39,0.25,0.55,0.67,0.39,0.5,0.25,0.55,0.61" style="fill:rgb(0,0,0);font-family:URWPalladioL-Ital;font-size:8.97px;stroke:none;">Phys. Rev. B</text>
   <text y="627.224" x="299.272,303.755,308.238,312.722" svgx:width="0.5,0.5,0.5,0.5" style="fill:rgb(0,0,0);font-family:URWPalladioL-Bold;font-size:8.97px;stroke:none;">1983</text>
   <text y="627.224" x="317.205" svgx:width="0.25" style="fill:rgb(0,0,0);font-family:URWPalladioL-Roma;font-size:8.97px;stroke:none;">,</text>
   <text y="627.224" x="321.688,326.171" svgx:width="0.5,0.5" style="fill:rgb(0,0,0);font-family:URWPalladioL-Ital;font-size:8.97px;stroke:none;">28</text>
   <text y="627.224" x="330.654,332.8965,335.137,339.62,344.104,348.587,353.07,357.553,362.036,366.52,371.003,375.486,377.7285,380.507" svgx:width="0.25,0.55,0.5,0.5,0.5,0.5,0.5,0.5,0.5,0.5,0.5,0.25,0.55,0.33" style="fill:rgb(0,0,0);font-family:URWPalladioL-Roma;font-size:8.97px;stroke:none;">, 7000–7008. [</text>
   <text y="627.224" x="383.493,389.85,393.231,398.126,401.928,405.73,411.719,416.014" svgx:width="0.71,0.4,0.55,0.42,0.42,0.67,0.48,0.33" style="fill:rgb(8,117,183);font-family:URWPalladioL-Roma;font-size:8.97px;stroke:none;">CrossRef</text>
   <text y="627.224" x="419.0" svgx:width="0.33" style="fill:rgb(0,0,0);font-family:URWPalladioL-Roma;font-size:8.97px;stroke:none;">]</text>
   <text y="640.136" x="76.535,81.018,85.501,87.74350000000001,98.05,104.932,109.857,112.482,117.994,121.818,125.823,131.073,139.038,141.663,147.174,150.115,152.35750000000002,154.625,162.129,164.385,166.6275,168.886,174.397,177.96,182.47,187.72,193.231,195.4735,197.741,200.745,202.9875,206.256,211.777,217.026,221.3316,223.602,227.607,232.532,237.782,241.606,244.547,247.172,250.113,255.552,258.492,261.117,266.042,271.2446,273.538,278.463,281.42310000000003,283.713,286.653,291.903,296.20860000000005,298.479,302.484,307.734,311.134,316.059,324.024,326.649,332.088,340.053,343.057,348.306,350.931,355.856,360.844,363.469,368.909,376.873,379.877,383.702,386.327,388.951,391.576,395.581,400.506,405.7086,408.002,411.827,416.842,420.666,423.607,427.928,435.892" svgx:width="0.5,0.5,0.25,0.55,0.76,0.55,0.29,0.61,0.42,0.44,0.58,0.88,0.29,0.61,0.33,0.25,0.55,0.83,0.25,0.25,0.55,0.61,0.4,0.5,0.58,0.61,0.25,0.55,0.33,0.25,0.55,0.61,0.58,0.48,0.55,0.44,0.55,0.58,0.42,0.33,0.29,0.33,0.6,0.33,0.29,0.55,0.58,0.55,0.55,0.33,0.55,0.33,0.58,0.48,0.55,0.44,0.58,0.4,0.55,0.88,0.29,0.6,0.88,0.33,0.58,0.29,0.55,0.55,0.29,0.6,0.88,0.33,0.42,0.29,0.29,0.29,0.44,0.55,0.58,0.55,0.42,0.56,0.42,0.33,0.48,0.88,0.25" style="fill:rgb(0,0,0);font-family:URWPalladioL-Roma;font-size:8.97px;stroke:none;">70. Goldschmidt, H.; Brand, J. The constitution of the chromium-niobium-silicon system.</text>
   <text y="640.136" x="441.954,444.958,447.20050000000003,449.459,454.474,457.983,461.492,464.99030000000005,467.256,473.272,477.277,484.295,491.312,495.317,500.3402,502.579,511.094,514.603,517.606" svgx:width="0.33,0.25,0.55,0.56,0.39,0.39,0.39,0.55,0.67,0.44,0.78,0.78,0.44,0.56,0.55,0.94,0.39,0.33,0.25" style="fill:rgb(0,0,0);font-family:URWPalladioL-Ital;font-size:8.97px;stroke:none;">J. Less Common Met.</text>
   <text y="653.047" x="97.602,102.085,106.568,111.052" svgx:width="0.5,0.5,0.5,0.5" style="fill:rgb(0,0,0);font-family:URWPalladioL-Bold;font-size:8.97px;stroke:none;">1961</text>
   <text y="653.047" x="115.535" svgx:width="0.25" style="fill:rgb(0,0,0);font-family:URWPalladioL-Roma;font-size:8.97px;stroke:none;">,</text>
   <text y="653.047" x="120.018" svgx:width="0.5" style="fill:rgb(0,0,0);font-family:URWPalladioL-Ital;font-size:8.97px;stroke:none;">3</text>
   <text y="653.047" x="124.501,126.74350000000001,128.984,133.467,137.951,142.434,146.917,151.4,153.6425,156.421" svgx:width="0.25,0.55,0.5,0.5,0.5,0.5,0.5,0.25,0.55,0.33" style="fill:rgb(0,0,0);font-family:URWPalladioL-Roma;font-size:8.97px;stroke:none;">, 34–43. [</text>
   <text y="653.047" x="159.407,165.764,169.145,174.04,177.842,181.644,187.633,191.928" svgx:width="0.71,0.4,0.55,0.42,0.42,0.67,0.48,0.33" style="fill:rgb(8,117,183);font-family:URWPalladioL-Roma;font-size:8.97px;stroke:none;">CrossRef</text>
   <text y="653.047" x="194.914" svgx:width="0.33" style="fill:rgb(0,0,0);font-family:URWPalladioL-Roma;font-size:8.97px;stroke:none;">]</text>
   <text y="665.959" x="76.535,81.018,85.501,87.74350000000001,98.05,103.633,108.621,112.066,116.442,121.76,124.00250000000001,126.301,131.883,134.12550000000002,137.429,143.524,148.512,152.889,158.206,161.185,166.265,170.642,175.959,181.469,186.786,189.765,194.141,197.75,201.624,207.134,211.191,216.508,222.018,227.335,232.3582,234.672,240.255,244.631,248.219,250.488,256.07,260.447,265.527,268.186,272.562,276.098,281.608,286.925,292.005,296.382,301.5846,303.947,309.109,314.098,319.30060000000003,321.672,326.469,329.128,331.787,334.445,338.502,341.161,346.67,354.5636,356.986,365.054,367.712,370.6721,372.939,379.417,384.734,388.188,393.176,401.244,403.48650000000004,405.776,414.419,418.988,424.305,429.385,433.954,439.271,441.5135,443.812,450.446,455.434,460.487,465.055,467.714,470.6741,472.94,478.45,483.767,489.2387,491.607,499.199,501.858,505.915,510.995,515.362,518.021" svgx:width="0.5,0.5,0.25,0.55,0.61,0.55,0.4,0.48,0.58,0.25,0.55,0.61,0.25,0.55,0.67,0.55,0.48,0.58,0.33,0.56,0.48,0.58,0.6,0.58,0.33,0.48,0.4,0.42,0.6,0.44,0.58,0.6,0.58,0.56,0.55,0.61,0.48,0.4,0.55,0.61,0.48,0.56,0.29,0.48,0.4,0.6,0.58,0.56,0.48,0.58,0.55,0.56,0.55,0.58,0.55,0.52,0.29,0.29,0.29,0.44,0.29,0.6,0.88,0.55,0.88,0.29,0.33,0.55,0.71,0.58,0.4,0.55,0.88,0.25,0.55,0.95,0.5,0.58,0.56,0.5,0.58,0.25,0.55,0.73,0.55,0.55,0.5,0.29,0.33,0.55,0.6,0.58,0.61,0.55,0.83,0.29,0.44,0.56,0.48,0.29,0.25" style="fill:rgb(0,0,0);font-family:URWPalladioL-Roma;font-size:8.97px;stroke:none;">71. Boren, B. Roentgenuntersuchung der Legierungen von Silicium mit Chrom, Mangan, Kobalt und Nickel.</text>
   <text y="678.871" x="97.728,104.202,107.69,111.671,114.163,118.648,120.888,126.869,130.357,137.333,139.84459999999999,142.067,150.531,153.024,158.009,161.497,164.985,168.966,171.4776,173.7,180.174,183.662,187.643,190.136" svgx:width="0.72,0.39,0.44,0.28,0.5,0.55,0.67,0.39,0.78,0.28,0.55,0.94,0.28,0.56,0.39,0.39,0.44,0.28,0.55,0.72,0.39,0.44,0.28,0.25" style="fill:rgb(0,0,0);font-family:URWPalladioL-Ital;font-size:8.97px;stroke:none;">Arkiv Kemi Mineral Geol.</text>
   <text y="678.871" x="195.155,199.638,204.121,208.605" svgx:width="0.5,0.5,0.5,0.5" style="fill:rgb(0,0,0);font-family:URWPalladioL-Bold;font-size:8.97px;stroke:none;">1933</text>
   <text y="678.871" x="213.088" svgx:width="0.25" style="fill:rgb(0,0,0);font-family:URWPalladioL-Roma;font-size:8.97px;stroke:none;">,</text>
   <text y="678.871" x="217.571,222.054,226.537" svgx:width="0.5,0.5,0.72" style="fill:rgb(0,0,0);font-family:URWPalladioL-Ital;font-size:8.97px;stroke:none;">11A</text>
   <text y="678.871" x="233.011,235.2535,237.494,241.977,246.461" svgx:width="0.25,0.55,0.5,0.5,0.25" style="fill:rgb(0,0,0);font-family:URWPalladioL-Roma;font-size:8.97px;stroke:none;">, 11.</text>
   <text y="691.782" x="76.535,81.018,85.501,87.74350000000001,98.05,103.574,108.147,113.662,116.323,118.985,124.307,129.392,131.6345,136.343,141.931,144.218,146.4605,151.662,156.464,161.457,164.119,169.707,174.28,177.261,181.642,183.8845,188.593,195.708,197.995,206.646,208.8885,218.38,223.987,229.31,233.6156,237.87,243.193,247.766,250.747,256.262,259.71,264.0156,268.279,273.273,276.23310000000004,280.498,283.48,288.802,293.10760000000005,297.363,302.42,307.414,312.737,318.325,322.0924,326.391,329.053,334.2556,338.555,341.537,346.86,351.16560000000004,355.429,358.09,361.538,366.532,371.7346,376.034,379.912,382.574,385.235,387.896,391.957,394.618,400.207,404.587,406.8295,411.547,416.632,421.013,425.815,428.476,430.7185,435.427,440.0,445.322,450.7937,455.099,458.547,462.928,465.589,470.162,473.144,477.525,482.9967,487.292,491.353,494.965,500.05,503.928,506.91,511.483,514.144,518.022" svgx:width="0.5,0.5,0.25,0.55,0.6,0.5,0.6,0.29,0.29,0.58,0.56,0.25,0.55,0.61,0.25,0.25,0.55,0.52,0.55,0.29,0.61,0.5,0.33,0.48,0.25,0.55,0.78,0.25,0.95,0.25,0.55,0.61,0.58,0.48,0.55,0.58,0.5,0.33,0.6,0.4,0.48,0.55,0.55,0.33,0.55,0.33,0.58,0.48,0.55,0.55,0.55,0.58,0.61,0.42,0.55,0.29,0.58,0.55,0.33,0.58,0.48,0.55,0.29,0.4,0.55,0.58,0.55,0.42,0.29,0.29,0.29,0.44,0.29,0.61,0.48,0.25,0.55,0.56,0.48,0.52,0.29,0.25,0.55,0.5,0.58,0.61,0.55,0.4,0.48,0.29,0.5,0.33,0.48,0.61,0.55,0.44,0.4,0.56,0.42,0.33,0.5,0.29,0.42,0.25" style="fill:rgb(0,0,0);font-family:URWPalladioL-Roma;font-size:8.97px;stroke:none;">72. Pauling, L.; Soldate, A.M. The nature of the bonds in the iron silicide, FeSi, and related crystals.</text>
   <text y="704.694" x="97.728,104.202,107.851,110.837,114.7838,117.06,123.04,126.528,131.011,134.499,137.485,141.466,143.959,146.451,150.432,154.916,157.74" svgx:width="0.72,0.41,0.33,0.44,0.55,0.67,0.39,0.5,0.39,0.33,0.44,0.28,0.28,0.44,0.5,0.39,0.25" style="fill:rgb(0,0,0);font-family:URWPalladioL-Ital;font-size:8.97px;stroke:none;">Acta Crystallogr.</text>
   <text y="704.694" x="162.76,167.243,171.726,176.21" svgx:width="0.5,0.5,0.5,0.5" style="fill:rgb(0,0,0);font-family:URWPalladioL-Bold;font-size:8.97px;stroke:none;">1948</text>
   <text y="704.694" x="180.693" svgx:width="0.25" style="fill:rgb(0,0,0);font-family:URWPalladioL-Roma;font-size:8.97px;stroke:none;">,</text>
   <text y="704.694" x="185.176" svgx:width="0.5" style="fill:rgb(0,0,0);font-family:URWPalladioL-Ital;font-size:8.97px;stroke:none;">1</text>
   <text y="704.694" x="189.659,191.9015,194.142,198.625,203.109,207.592,212.075,216.558,221.041,225.525,227.7675,230.546" svgx:width="0.25,0.55,0.5,0.5,0.5,0.5,0.5,0.5,0.5,0.25,0.55,0.33" style="fill:rgb(0,0,0);font-family:URWPalladioL-Roma;font-size:8.97px;stroke:none;">, 212–216. [</text>
   <text y="704.694" x="233.532,239.889,243.269,248.165,251.967,255.768,261.758,266.053" svgx:width="0.71,0.4,0.55,0.42,0.42,0.67,0.48,0.33" style="fill:rgb(8,117,183);font-family:URWPalladioL-Roma;font-size:8.97px;stroke:none;">CrossRef</text>
   <text y="704.694" x="269.039" svgx:width="0.33" style="fill:rgb(0,0,0);font-family:URWPalladioL-Roma;font-size:8.97px;stroke:none;">]</text>
   <text y="717.605" x="76.535,81.018,85.501,87.74350000000001,98.05,104.15,108.531,111.192,115.573,120.896,123.557,128.88,131.1225,134.258,139.846,142.132,146.504,148.791,151.0335,154.342,159.144,161.805,167.393,172.387,175.834,180.215,185.538,190.623,195.617,197.8595,201.004,205.265,207.552,214.667,216.954,219.19650000000001,222.505,229.483,233.864,236.526,242.114,244.3565,247.491,251.863,254.149,259.591,261.8335,267.292,272.093,275.075,278.614,284.129,288.19,291.171,296.686,300.299,304.872,307.4733,310.46,315.956,320.337,324.398,329.913,332.574,335.235,339.808,343.421,346.082,349.064,351.725,356.106,359.8734,362.901,367.895" svgx:width="0.5,0.5,0.25,0.55,0.67,0.48,0.29,0.48,0.58,0.29,0.58,0.25,0.55,0.61,0.25,0.6,0.25,0.25,0.55,0.52,0.29,0.61,0.55,0.4,0.48,0.58,0.56,0.55,0.25,0.55,0.56,0.25,0.78,0.25,0.25,0.55,0.76,0.48,0.29,0.61,0.25,0.55,0.6,0.25,0.72,0.25,0.55,0.52,0.33,0.4,0.6,0.44,0.33,0.6,0.4,0.5,0.29,0.55,0.6,0.48,0.44,0.6,0.29,0.29,0.5,0.4,0.29,0.33,0.29,0.48,0.42,0.55,0.55,0.33" style="fill:rgb(0,0,0);font-family:URWPalladioL-Roma;font-size:8.97px;stroke:none;">73. Zelenin, L.P.; Sidorenko, F.A.; Geld, P.V. Structural peculiarities of</text>
   <text y="717.605" code="101" x="373.981" svgx:width="0.47" style="fill:rgb(0,0,0);font-family:PazoMath-Italic;font-size:8.97px;stroke:none;">?</text>
   <text y="717.605" x="378.271,381.317,386.813,392.136,396.709,400.587,404.8926,407.894,412.888,415.8481,418.851,425.335,430.328,433.374,438.176,440.77729999999997,443.764,447.641,452.726,456.604,459.586,463.966,472.042" svgx:width="0.33,0.6,0.58,0.5,0.42,0.48,0.55,0.55,0.33,0.55,0.71,0.55,0.33,0.52,0.29,0.55,0.42,0.56,0.42,0.33,0.48,0.88,0.25" style="fill:rgb(0,0,0);font-family:URWPalladioL-Roma;font-size:8.97px;stroke:none;">-phase of Co-Si system.</text>
   <text y="717.605" x="481.647,484.693,488.753,492.832,495.0745,499.948,505.883,510.456,514.014,517.571" svgx:width="0.33,0.44,0.5,0.25,0.55,0.72,0.5,0.39,0.39,0.25" style="fill:rgb(0,0,0);font-family:URWPalladioL-Ital;font-size:8.97px;stroke:none;">Izv. Vyss.</text>
   <text y="730.517" x="97.701,104.677,108.326,112.809,116.297,120.449,125.434,129.917,134.40200000000002,136.642,142.623,146.604,151.087,154.575,159.058,161.3005,164.079,168.562,172.05,176.534,180.021,183.007,187.993,191.974,196.457,200.4038,202.68,211.144,214.632,217.618,221.599,224.091,226.584" svgx:width="0.78,0.41,0.5,0.39,0.46,0.56,0.5,0.5,0.55,0.67,0.44,0.5,0.39,0.5,0.25,0.55,0.61,0.39,0.5,0.39,0.33,0.56,0.44,0.5,0.44,0.55,0.94,0.39,0.33,0.44,0.28,0.28,0.25" style="fill:rgb(0,0,0);font-family:URWPalladioL-Ital;font-size:8.97px;stroke:none;">Uchebnyh Zaved. Tsvetnaya Metall.</text>
   <text y="730.517" x="231.603,236.086,240.569,245.053" svgx:width="0.5,0.5,0.5,0.5" style="fill:rgb(0,0,0);font-family:URWPalladioL-Bold;font-size:8.97px;stroke:none;">1964</text>
   <text y="730.517" x="249.536" svgx:width="0.25" style="fill:rgb(0,0,0);font-family:URWPalladioL-Roma;font-size:8.97px;stroke:none;">,</text>
   <text y="730.517" x="254.019" svgx:width="0.5" style="fill:rgb(0,0,0);font-family:URWPalladioL-Ital;font-size:8.97px;stroke:none;">2</text>
   <text y="730.517" x="258.502,260.7445,262.985,267.468,271.952,276.435,278.6775,282.442,285.428,288.45,293.6526,295.91,301.899,307.306,311.108,314.91,317.519,322.002,327.221" svgx:width="0.25,0.55,0.5,0.5,0.5,0.25,0.55,0.33,0.34,0.58,0.55,0.67,0.6,0.42,0.42,0.29,0.5,0.58,0.33" style="fill:rgb(0,0,0);font-family:URWPalladioL-Roma;font-size:8.97px;stroke:none;">, 146. (In Russian)</text>
   <text y="743.429" x="76.535,81.018,85.501,87.74350000000001,98.05,105.018,109.519,113.075,118.053,122.059,124.3015,126.551,129.549,131.799,134.0415,136.283,143.25,148.166,155.673,160.913,165.225,169.24,171.48250000000002,173.723,176.721,178.971,181.2135,183.463,190.944,195.86,199.415,202.35,207.265,212.505,214.7475,216.988,222.488,224.7305,227.953,230.986,236.226,239.16,243.473,247.028,254.977,259.29,264.79,267.41,271.911,274.845,279.15060000000005,281.399,286.801,292.04,296.541,300.358,304.67,308.4374,310.729,313.348,318.55060000000003,320.82,323.755,328.994,333.29960000000005,335.539,338.474,342.786,346.783,352.022,357.261,361.573,364.508,367.128,372.556,380.505,383.503,388.004,390.624,396.052,404.001,406.621,411.86,417.288,427.47,431.971,437.21,442.6817,444.952,447.887,452.199,456.196,461.436,466.675,470.987,473.922,476.541,481.97,489.919,492.916,496.733,499.353,501.973,504.592,508.589,513.505" svgx:width="0.5,0.5,0.25,0.55,0.77,0.5,0.4,0.55,0.56,0.25,0.55,0.33,0.25,0.25,0.55,0.77,0.55,0.83,0.58,0.48,0.56,0.25,0.55,0.33,0.25,0.25,0.55,0.83,0.55,0.4,0.33,0.55,0.58,0.25,0.55,0.61,0.25,0.55,0.34,0.58,0.33,0.48,0.4,0.88,0.48,0.61,0.29,0.5,0.33,0.48,0.55,0.6,0.58,0.5,0.42,0.48,0.42,0.55,0.29,0.58,0.55,0.33,0.58,0.48,0.55,0.33,0.48,0.44,0.58,0.58,0.48,0.33,0.29,0.6,0.88,0.33,0.5,0.29,0.6,0.88,0.29,0.58,0.6,0.88,0.5,0.58,0.61,0.55,0.33,0.48,0.44,0.58,0.58,0.48,0.33,0.29,0.6,0.88,0.33,0.42,0.29,0.29,0.29,0.44,0.55,0.58" style="fill:rgb(0,0,0);font-family:URWPalladioL-Roma;font-size:8.97px;stroke:none;">74. Darby, J.; Downey, J.; Norton, L. Intermediate phases in the technetium-aluminumand technetium-silicon</text>
   <text y="756.34" x="98.05,101.852,106.837,110.639,113.562,117.857,125.774,129.576" svgx:width="0.42,0.56,0.42,0.33,0.48,0.88,0.42,0.25" style="fill:rgb(0,0,0);font-family:URWPalladioL-Roma;font-size:8.97px;stroke:none;">systems.</text>
   <text y="756.34" x="135.583,138.569,140.8115,143.052,148.037,151.525,155.013,158.5113,160.743,166.723,170.704,177.68,184.656,188.637,193.6602,195.864,204.328,207.816,210.802" svgx:width="0.33,0.25,0.55,0.56,0.39,0.39,0.39,0.55,0.67,0.44,0.78,0.78,0.44,0.56,0.55,0.94,0.39,0.33,0.25" style="fill:rgb(0,0,0);font-family:URWPalladioL-Ital;font-size:8.97px;stroke:none;">J. Less Common Met.</text>
   <text y="756.34" x="215.822,220.305,224.788,229.272" svgx:width="0.5,0.5,0.5,0.5" style="fill:rgb(0,0,0);font-family:URWPalladioL-Bold;font-size:8.97px;stroke:none;">1965</text>
   <text y="756.34" x="233.755" svgx:width="0.25" style="fill:rgb(0,0,0);font-family:URWPalladioL-Roma;font-size:8.97px;stroke:none;">,</text>
   <text y="756.34" x="238.238" svgx:width="0.5" style="fill:rgb(0,0,0);font-family:URWPalladioL-Ital;font-size:8.97px;stroke:none;">8</text>
   <text y="756.34" x="242.722,244.96450000000002,247.205,251.688,256.172,260.655,265.138,269.621,271.8635,274.642" svgx:width="0.25,0.55,0.5,0.5,0.5,0.5,0.5,0.25,0.55,0.33" style="fill:rgb(0,0,0);font-family:URWPalladioL-Roma;font-size:8.97px;stroke:none;">, 15–19. [</text>
   <text y="756.34" x="277.628,283.985,287.366,292.261,296.063,299.865,305.854,310.149" svgx:width="0.71,0.4,0.55,0.42,0.42,0.67,0.48,0.33" style="fill:rgb(8,117,183);font-family:URWPalladioL-Roma;font-size:8.97px;stroke:none;">CrossRef</text>
   <text y="756.34" x="313.135" svgx:width="0.33" style="fill:rgb(0,0,0);font-family:URWPalladioL-Roma;font-size:8.97px;stroke:none;">]</text>
  </g>
 </g>
</svg>
