<?xml version="1.0" encoding="UTF-8"?>
<svg height="709.79" width="4308.883" xmlns="http://www.w3.org/2000/svg">
 <g id="page" xmlns:svgx="http://www.xml-cml.org/schema/svgx">
  <g begin="text">
   <text y="62.979" x="76.535,84.059,87.598,90.252,93.352,96.452,98.668,102.207,104.422" svgx:width="0.94,0.44,0.33,0.39,0.39,0.28,0.44,0.28,0.39" style="fill:rgb(0,0,0);font-family:URWPalladioL-Ital;font-size:7.97px;stroke:none;">Materials</text>
   <text y="62.979" x="109.515,113.5,117.485,121.47" svgx:width="0.5,0.5,0.5,0.5" style="fill:rgb(0,0,0);font-family:URWPalladioL-Bold;font-size:7.97px;stroke:none;">2019</text>
   <text y="62.979" x="125.455" svgx:width="0.25" style="fill:rgb(0,0,0);font-family:URWPalladioL-Roma;font-size:7.97px;stroke:none;">,</text>
   <text y="62.979" x="129.44,133.425" svgx:width="0.5,0.5" style="fill:rgb(0,0,0);font-family:URWPalladioL-Ital;font-size:7.97px;stroke:none;">12</text>
   <text y="62.979" x="137.41,139.4025,141.395,145.38,149.365,153.35,157.335,491.809,495.794,499.779,501.772,506.123,508.7531,510.77,514.755" svgx:width="0.25,0.55,0.5,0.5,0.5,0.5,0.55,0.5,0.5,0.55,0.55,0.33,0.55,0.5,0.5" style="fill:rgb(0,0,0);font-family:URWPalladioL-Roma;font-size:7.97px;stroke:none;">, 2710 14 of 20</text>
  </g>
  <rect style="stroke:blue;stroke-width:0.3;" x="115.382" y="45.975" height="190.166" width="181.012" title="14"/>
  <text y="45.975" class="image" id="image.14.1" width="181" height="190" x="115.382">image.14.1.115_296.46_236</text>
  <rect style="stroke:blue;stroke-width:0.3;" x="115.382" y="45.975" height="190.166" width="181.012" title="14"/>
  <text y="45.975" class="image" id="image.14.2" width="181" height="190" x="115.382">image.14.2.115_296.46_236</text>
  <rect style="stroke:blue;stroke-width:0.3;" x="298.883" y="45.975" height="190.166" width="181.012" title="14"/>
  <text y="45.975" class="image" id="image.14.3" width="181" height="190" x="298.883">image.14.3.299_480.46_236</text>
  <rect style="stroke:blue;stroke-width:0.3;" x="298.883" y="45.975" height="190.166" width="181.012" title="14"/>
  <text y="45.975" class="image" id="image.14.4" width="181" height="190" x="298.883">image.14.4.299_480.46_236</text>
  <g begin="text">
   <text y="292.983" x="97.795,102.78,105.766,110.751,116.23,119.718,124.203,126.443,130.926,135.409" svgx:width="0.56,0.33,0.56,0.61,0.39,0.5,0.55,0.5,0.5,0.25" style="fill:rgb(0,0,0);font-family:URWPalladioL-Bold;font-size:8.97px;stroke:none;">Figure 11.</text>
   <text y="292.983" x="140.445,146.796,151.687,156.9,160.698,163.618,168.097,173.31,176.23,179.213,183.503,188.717,193.007,196.384,201.364,206.3872,208.593,212.391,217.792,221.322,224.304,228.783,232.76,237.051,240.8184,243.097,247.988,250.9481,253.219,258.28,262.759,265.365,269.656,274.869,278.846,283.15160000000003,285.376" svgx:width="0.71,0.55,0.58,0.42,0.33,0.5,0.58,0.33,0.33,0.48,0.58,0.48,0.4,0.56,0.56,0.55,0.42,0.6,0.4,0.33,0.5,0.44,0.48,0.42,0.55,0.55,0.33,0.55,0.56,0.5,0.29,0.48,0.58,0.44,0.48,0.55,0.33" style="fill:rgb(0,0,0);font-family:URWPalladioL-Roma;font-size:8.97px;stroke:none;">Constant-energy surfaces of valence (</text>
   <text y="292.983" x="288.362,291.348,295.831,299.319" svgx:width="0.33,0.5,0.39,0.33" style="fill:rgb(0,0,0);font-family:URWPalladioL-Bold;font-size:8.97px;stroke:none;">left</text>
   <text y="292.983" x="302.305,305.2651,307.536,312.015,317.228,322.6997,324.94,328.918,333.808,339.022,344.495,349.896,353.873,356.793,359.4,364.29,369.49260000000004,371.752,376.705,381.184,386.397,391.87,395.6374,397.917" svgx:width="0.33,0.55,0.5,0.58,0.61,0.55,0.44,0.55,0.58,0.61,0.6,0.44,0.33,0.29,0.55,0.58,0.55,0.55,0.5,0.58,0.61,0.42,0.55,0.33" style="fill:rgb(0,0,0);font-family:URWPalladioL-Roma;font-size:8.97px;stroke:none;">) and conduction bands (</text>
   <text y="292.983" x="400.895,404.383,407.369,412.354,417.833" svgx:width="0.39,0.33,0.56,0.61,0.33" style="fill:rgb(0,0,0);font-family:URWPalladioL-Bold;font-size:8.97px;stroke:none;">right</text>
   <text y="292.983" x="420.818,423.7781,426.049,430.94,433.9001,436.162,441.142,445.433,450.136,452.7373,454.991,459.469,462.4291,464.638,468.928,474.142,478.432,481.809,486.79,489.396,493.687" svgx:width="0.33,0.55,0.55,0.33,0.55,0.56,0.48,0.52,0.29,0.55,0.5,0.33,0.55,0.48,0.58,0.48,0.4,0.56,0.29,0.48,0.42" style="fill:rgb(0,0,0);font-family:URWPalladioL-Roma;font-size:8.97px;stroke:none;">) of FeSi at energies</text>
   <text y="305.805" x="97.795,102.691,105.6511,107.918,114.392,119.87,130.594,135.077,140.296,145.7677,148.016,154.373,159.851,168.334,170.5765,172.817,178.295,183.514,187.809,191.189,196.174,198.784,203.078,206.8454,209.122,214.017,216.9771,219.245,225.719,231.197,241.921,246.404,251.623,257.0947,259.343,265.7,271.178,281.902,286.385,289.766,294.07160000000005,296.302,300.104,305.322,310.218,317.696,322.89860000000004,325.156,327.765,332.9676,335.225,340.211,342.82,347.805,353.212,356.592" svgx:width="0.55,0.33,0.55,0.72,0.61,0.95,0.5,0.58,0.61,0.55,0.71,0.61,0.95,0.25,0.55,0.61,0.58,0.48,0.4,0.56,0.29,0.48,0.42,0.55,0.55,0.33,0.55,0.72,0.61,0.95,0.5,0.58,0.61,0.55,0.71,0.61,0.95,0.5,0.4,0.48,0.55,0.42,0.58,0.55,0.83,0.58,0.55,0.29,0.58,0.55,0.56,0.29,0.56,0.6,0.4,0.48" style="fill:rgb(0,0,0);font-family:URWPalladioL-Roma;font-size:8.97px;stroke:none;">of VBMand CBM. Energies of VBMand CBMare shown in Figure</text>
   <text y="305.805" x="363.129" svgx:width="0.5" style="fill:rgb(8,117,183);font-family:URWPalladioL-Roma;font-size:8.97px;stroke:none;">2</text>
   <text y="305.805" x="369.853,374.812,379.8352,382.039,387.517,392.413,395.336,398.259,402.554,408.0257,410.274,412.883,415.492,420.711,425.006,428.808" svgx:width="0.55,0.56,0.55,0.61,0.55,0.33,0.33,0.48,0.61,0.55,0.29,0.29,0.58,0.48,0.42,0.25" style="fill:rgb(0,0,0);font-family:URWPalladioL-Roma;font-size:8.97px;stroke:none;">by dotted lines.</text>
   <text y="326.887" x="76.535,81.516,84.007,88.988,91.478,94.567,100.654,105.078,110.617,115.59700000000001,118.089,123.628,126.946,130.821,136.36,140.415,143.733,149.272,152.968,156.8524,159.334,163.758,166.54680000000002,169.018,178.423,182.298,185.616,190.039,192.809,195.578,198.348,202.4316,204.893,214.298,218.721,224.26,228.684,232.559,235.329,238.099,240.868,244.923,247.693,252.674,256.549" svgx:width="0.5,0.25,0.5,0.25,0.55,0.61,0.44,0.56,0.5,0.55,0.56,0.33,0.39,0.56,0.41,0.33,0.56,0.39,0.39,0.55,0.44,0.28,0.55,0.94,0.39,0.33,0.44,0.28,0.28,0.28,0.41,0.55,0.94,0.44,0.56,0.44,0.39,0.28,0.28,0.28,0.41,0.28,0.5,0.39,0.39" style="fill:rgb(0,0,0);font-family:URWPalladioL-Ital;font-size:9.96px;stroke:none;">3.4. Band Structure of Metallic Monosilicides</text>
   <text y="346.374" x="97.795,101.22,106.9968,109.979,117.184,121.198,126.533,129.49,131.98000000000002,134.957,144.57,150.484,155.819,158.776,161.26600000000002,164.254,169.375,173.887,179.222,182.179,184.669,187.656,192.737,198.651,204.72660000000002,207.695,214.484,219.351,224.686,227.643,230.133,233.12,236.433,242.347,247.1278,250.06,255.71,260.578,264.592,273.565,276.4534,279.367,282.324,287.192,292.933,297.801,300.6894,303.593,306.55,310.7332,313.704,318.012,323.927,326.884,330.268,333.58,338.448,344.5236,347.502,353.711,359.259,367.734,373.649,382.124,387.204,391.035,397.11060000000003,400.09,404.602,410.15,419.123,425.23,430.311,434.152,439.02,445.0956,448.064,451.377,456.855,459.77,464.638,467.595,473.245,479.159,482.472,488.386,491.77,497.42,501.251,506.799,512.927" svgx:width="0.34,0.58,0.55,0.71,0.4,0.52,0.29,0.25,0.55,0.95,0.58,0.52,0.29,0.25,0.55,0.61,0.44,0.52,0.29,0.25,0.55,0.5,0.58,0.61,0.55,0.67,0.48,0.52,0.29,0.25,0.55,0.33,0.58,0.48,0.55,0.56,0.48,0.4,0.88,0.29,0.55,0.29,0.48,0.56,0.48,0.29,0.55,0.29,0.42,0.55,0.42,0.58,0.29,0.33,0.33,0.48,0.61,0.55,0.61,0.55,0.83,0.58,0.83,0.5,0.4,0.61,0.55,0.44,0.55,0.88,0.6,0.5,0.4,0.48,0.61,0.55,0.33,0.55,0.55,0.48,0.29,0.56,0.58,0.33,0.58,0.33,0.56,0.4,0.55,0.6,0.6" style="fill:rgb(0,0,0);font-family:URWPalladioL-Roma;font-size:9.96px;stroke:none;">In CrSi, MnSi, TcSi, and ReSi, the Fermi level is shifted downward compared to eighth-group</text>
   <text y="359.884" x="76.535,80.844,85.711,94.684,97.641,102.153,107.701,113.616,119.824,125.952,130.464,133.777,136.734,142.648,148.2256,150.859,159.832,165.38,171.294,176.843,181.151,184.108,187.065,190.012,194.524,197.481,203.69,208.558,212.866,215.35600000000002,217.998,221.311,227.225,233.353,237.661,240.151,242.773,246.085,252.0,256.867,262.44460000000004,265.078,271.287,276.154,285.127,290.676,296.59,300.898,304.211,308.225,313.306,316.619,321.3998,324.047,333.02,337.888,341.2,346.281,349.238,352.196,355.153,359.53540000000004,362.215,367.835,372.702,378.616,383.697,389.439,392.396,397.944,401.928,404.519,407.903,413.553,416.51,422.16,428.288,432.119,436.986" svgx:width="0.42,0.48,0.88,0.29,0.44,0.55,0.58,0.61,0.6,0.44,0.33,0.29,0.58,0.56,0.55,0.88,0.55,0.58,0.55,0.42,0.29,0.29,0.29,0.44,0.29,0.61,0.48,0.42,0.25,0.55,0.33,0.58,0.6,0.42,0.25,0.55,0.33,0.58,0.48,0.56,0.55,0.61,0.48,0.88,0.55,0.58,0.42,0.33,0.4,0.5,0.33,0.48,0.55,0.88,0.48,0.33,0.5,0.29,0.29,0.29,0.44,0.55,0.55,0.48,0.58,0.5,0.56,0.29,0.55,0.4,0.55,0.33,0.56,0.29,0.56,0.6,0.4,0.48,0.42" style="fill:rgb(0,0,0);font-family:URWPalladioL-Roma;font-size:9.96px;stroke:none;">semiconducting monosilicides; thus, they demonstrate metallic behavior (Figures</text>
   <text y="359.884" x="443.845" svgx:width="0.5" style="fill:rgb(8,117,183);font-family:URWPalladioL-Roma;font-size:9.96px;stroke:none;">2</text>
   <text y="359.884" x="448.926" svgx:width="0.25" style="fill:rgb(0,0,0);font-family:URWPalladioL-Roma;font-size:9.96px;stroke:none;">,</text>
   <text y="359.884" x="454.048" svgx:width="0.5" style="fill:rgb(8,117,183);font-family:URWPalladioL-Roma;font-size:9.96px;stroke:none;">3</text>
   <text y="359.884" x="461.679,466.76,472.674" svgx:width="0.5,0.58,0.61" style="fill:rgb(0,0,0);font-family:URWPalladioL-Roma;font-size:9.96px;stroke:none;">and</text>
   <text y="359.884" x="481.444" svgx:width="0.5" style="fill:rgb(8,117,183);font-family:URWPalladioL-Roma;font-size:9.96px;stroke:none;">4</text>
   <text y="359.884" x="486.525,489.909,492.399,495.732,501.067,506.615,509.572,512.529" svgx:width="0.33,0.25,0.55,0.52,0.55,0.29,0.29,0.61" style="fill:rgb(0,0,0);font-family:URWPalladioL-Roma;font-size:9.96px;stroke:none;">). Solid</text>
   <text y="373.393" x="76.535,80.844,86.392,89.349,95.477,98.789,101.747,107.295,113.209,117.3922,120.465,126.013,129.2998,132.344,135.657,141.571,146.3518,149.385,158.358,163.226,166.538,171.619,174.577,177.534,180.491,184.8734,187.949,193.03,198.945,205.0206,208.1,212.409,217.277,226.25,229.207,233.718,239.267,245.181,251.39,257.518,262.029,265.342,268.299,274.213,279.79060000000004,282.81,291.783,297.332,303.246,308.794,313.103,316.06,319.017,321.974,326.486,329.443,335.652,340.519,344.7022,347.775,352.287,357.368,363.1448,366.229,371.848,376.6288,379.663,385.78,390.089,394.956,401.0316,404.112,407.425,412.903,415.92,419.233,425.361,431.275,436.0558,439.089,442.402,448.316,453.0968,456.131,461.781,466.648,470.662,479.635,482.5234,485.539,488.496,493.364,499.105,503.973,506.8614,509.877,513.19" svgx:width="0.42,0.55,0.29,0.6,0.33,0.29,0.55,0.58,0.42,0.55,0.55,0.33,0.55,0.33,0.58,0.48,0.55,0.88,0.48,0.33,0.5,0.29,0.29,0.29,0.44,0.55,0.5,0.58,0.61,0.55,0.42,0.48,0.88,0.29,0.44,0.55,0.58,0.61,0.6,0.44,0.33,0.29,0.58,0.56,0.55,0.88,0.55,0.58,0.55,0.42,0.29,0.29,0.29,0.44,0.29,0.61,0.48,0.42,0.55,0.44,0.5,0.58,0.55,0.55,0.48,0.55,0.6,0.42,0.48,0.61,0.55,0.33,0.55,0.55,0.33,0.6,0.58,0.48,0.55,0.33,0.58,0.48,0.55,0.56,0.48,0.4,0.88,0.29,0.55,0.29,0.48,0.56,0.48,0.29,0.55,0.33,0.55" style="fill:rgb(0,0,0);font-family:URWPalladioL-Roma;font-size:9.96px;stroke:none;">solutions of the metallic and semiconducting monosilicides can be used to tune the Fermi level to</text>
   <text y="386.903" x="76.535,81.515,84.108,90.311,95.174,99.478,102.432,106.26,111.122,117.1976,119.823,125.924,131.467,135.771,138.725,142.035,144.989,150.532,156.441,158.931,162.085,169.983,172.937,175.8254,178.379,181.688,187.597,192.459,196.764,201.5448,204.124,213.088,218.164,221.473,226.336,230.346,233.3,238.376,241.331,245.5142,248.132,254.335,259.198,268.162,273.705,279.613,283.918,287.227,291.237,296.313,299.623,304.486,310.5616,313.186,319.094,325.216,334.18,339.043,342.87,348.413,354.534,358.7172,361.336,364.646,373.112,378.655,381.9418,384.533,389.609,395.518,401.5936,404.208,407.588,413.131,419.253,423.263,426.643,432.186,435.14,441.2156,443.841,450.043,454.906,460.551,465.413,471.322,476.185,480.195,485.271,488.58,493.3608,495.94,501.554,506.63,512.539" svgx:width="0.5,0.55,0.61,0.48,0.42,0.29,0.4,0.48,0.61,0.55,0.6,0.55,0.42,0.29,0.33,0.29,0.55,0.58,0.25,0.55,0.78,0.29,0.29,0.55,0.33,0.58,0.48,0.42,0.48,0.55,0.88,0.5,0.33,0.48,0.4,0.29,0.5,0.29,0.42,0.55,0.61,0.48,0.88,0.55,0.58,0.42,0.33,0.4,0.5,0.33,0.48,0.61,0.55,0.58,0.6,0.88,0.48,0.4,0.55,0.6,0.42,0.55,0.33,0.83,0.55,0.33,0.55,0.5,0.58,0.61,0.55,0.33,0.55,0.6,0.4,0.33,0.55,0.29,0.61,0.55,0.61,0.48,0.56,0.48,0.58,0.48,0.4,0.5,0.33,0.48,0.55,0.55,0.5,0.58,0.61" style="fill:rgb(0,0,0);font-family:URWPalladioL-Roma;font-size:9.96px;stroke:none;">a desired position. All these materials demonstrated numerous two- and fourfold degenerate band</text>
   <text y="400.412" x="76.535,80.87,84.551,89.882,94.021,98.161,101.002,106.684,112.113,116.2962,118.625,123.506" svgx:width="0.44,0.4,0.55,0.42,0.42,0.29,0.58,0.56,0.42,0.55,0.5,0.33" style="fill:rgb(0,0,0);font-family:URWPalladioL-Roma;font-size:9.96px;stroke:none;">crossings at</text>
   <text y="400.412" x="129.185" svgx:width="0.56" style="fill:rgb(0,0,0);font-family:PazoMath;font-size:9.96px;stroke:none;">Γ</text>
   <text y="400.412" x="137.222,143.09,148.421,151.262,156.944,160.127,162.61700000000002,164.969,169.851,175.533,181.6086,183.871,188.851,191.125,195.265,198.106,203.144,206.395,211.726,214.567,220.64260000000002,222.905,228.304,233.186,238.868,244.9436,247.206,251.541,255.222,260.553,264.692,268.832,271.673,277.355,282.93260000000004,285.156,290.038" svgx:width="0.6,0.55,0.29,0.58,0.33,0.25,0.55,0.5,0.58,0.61,0.55,0.5,0.55,0.42,0.29,0.52,0.33,0.55,0.29,0.61,0.55,0.55,0.5,0.58,0.61,0.55,0.44,0.4,0.55,0.42,0.42,0.29,0.58,0.56,0.55,0.5,0.33" style="fill:rgb(0,0,0);font-family:URWPalladioL-Roma;font-size:9.96px;stroke:none;">point, and a sixfold band crossing at</text>
   <text y="400.412" x="295.915" svgx:width="0.67" style="fill:rgb(0,0,0);font-family:URWPalladioL-Ital;font-size:9.96px;stroke:none;">R</text>
   <text y="400.412" x="305.058,310.926,316.257,319.098,324.78,327.963,330.45300000000003,333.45,339.435,345.117,349.8978,352.166,355.417,360.748,364.605,373.226,378.107,381.29,384.131,389.462,395.23879999999997,397.517,402.848,406.13480000000004,408.481,415.003,419.68,424.805,427.647,432.528,440.202,444.342,449.468,452.3564,454.681,458.821,464.152,466.993,469.834,475.9096,478.172,482.312,487.642,490.483,496.371,499.554,502.395,507.725,513.408,517.547" svgx:width="0.6,0.55,0.29,0.58,0.33,0.25,0.55,0.61,0.58,0.48,0.55,0.33,0.55,0.4,0.88,0.5,0.33,0.29,0.55,0.58,0.55,0.55,0.33,0.55,0.67,0.48,0.52,0.29,0.5,0.79,0.42,0.52,0.29,0.55,0.42,0.55,0.29,0.29,0.61,0.55,0.42,0.55,0.29,0.6,0.33,0.29,0.55,0.58,0.42,0.25" style="fill:rgb(0,0,0);font-family:URWPalladioL-Roma;font-size:9.96px;stroke:none;">point. The formation of ReSi–OsSi solid solutions,</text>
   <text y="413.921" x="76.535,79.866,85.327,89.31099999999999,91.759,96.55,101.711,106.712,115.545,121.556,124.467,129.258,131.74800000000002,134.249,138.69,143.691,149.4678,151.993,157.525,162.3058,164.797,170.828,175.069,179.86,185.93560000000002,188.452,191.713,197.191,199.655,203.896,209.718,212.628,215.959,219.2458,221.701,224.961,230.783,235.5638,238.065,243.626,248.417,252.368,261.2,264.0884,266.592,269.502,274.293,279.945,284.736,287.6244,290.127,294.568,297.479,302.94,307.181,311.9618,314.453,317.714,323.192,325.656,330.636,333.138,336.469,341.93,347.961,351.912,355.243,360.705,363.615,369.6906,372.217,377.749,382.75,388.571,394.64660000000003,397.164,401.605,405.376,410.837,415.078,419.319,422.23,428.051,433.6286,436.093,441.094" svgx:width="0.33,0.55,0.4,0.55,0.48,0.52,0.5,0.88,0.6,0.29,0.48,0.25,0.55,0.44,0.5,0.58,0.55,0.55,0.48,0.55,0.6,0.42,0.48,0.61,0.55,0.33,0.55,0.55,0.42,0.58,0.29,0.33,0.33,0.55,0.33,0.58,0.48,0.55,0.56,0.48,0.4,0.88,0.29,0.55,0.29,0.48,0.56,0.48,0.29,0.55,0.44,0.29,0.55,0.42,0.48,0.55,0.33,0.55,0.55,0.5,0.55,0.33,0.55,0.6,0.4,0.33,0.55,0.29,0.61,0.55,0.55,0.5,0.58,0.61,0.55,0.44,0.4,0.55,0.42,0.42,0.29,0.58,0.56,0.55,0.5,0.33" style="fill:rgb(0,0,0);font-family:URWPalladioL-Roma;font-size:9.96px;stroke:none;">for example, can be used to shift the Fermi level close to a fourfold band crossing at</text>
   <text y="413.921" x="446.962" svgx:width="0.56" style="fill:rgb(0,0,0);font-family:PazoMath;font-size:9.96px;stroke:none;">Γ</text>
   <text y="413.921" x="455.108,461.119,466.581,469.492,475.313,478.574,481.064,484.165,487.526,493.3028,495.838,499.099,504.92,509.711,513.952" svgx:width="0.6,0.55,0.29,0.58,0.33,0.25,0.55,0.34,0.58,0.55,0.33,0.58,0.48,0.42,0.48" style="fill:rgb(0,0,0);font-family:URWPalladioL-Roma;font-size:9.96px;stroke:none;">point. In these</text>
   <text y="427.431" x="76.535,79.848,88.323,93.80099999999999,96.462,100.974,106.523,115.496,121.603,127.151,133.279,139.193,145.402,149.71,152.20000000000002,154.852,159.832,162.525,168.144,173.225,179.139,185.21460000000002,187.939,192.451,196.282,201.831,206.139,210.448,213.405,219.319,224.89659999999998,227.55,232.631,235.9178,238.535,241.848,247.762" svgx:width="0.33,0.83,0.55,0.55,0.44,0.55,0.88,0.6,0.55,0.6,0.58,0.61,0.42,0.25,0.55,0.5,0.55,0.55,0.5,0.58,0.61,0.55,0.44,0.4,0.55,0.42,0.42,0.29,0.58,0.56,0.55,0.5,0.33,0.55,0.33,0.58,0.48" style="fill:rgb(0,0,0);font-family:URWPalladioL-Roma;font-size:9.96px;stroke:none;">two compounds, a band crossing at the</text>
   <text y="427.431" x="255.788" svgx:width="0.94" style="fill:rgb(0,0,0);font-family:URWPalladioL-Ital;font-size:9.96px;stroke:none;">M</text>
   <text y="427.431" x="267.954,274.061,279.61,282.567,288.481,291.7678,294.385,298.897,303.978,309.7548,312.473,317.554,320.511,324.82,330.298,332.959,338.579,343.3598,346.028,350.539,353.496,358.364,363.445,367.459,370.416,375.9936,378.657,382.966,387.833,392.701,398.615,401.105,404.529,412.435,415.72180000000003,418.329,421.642,427.556,432.3368,435.015,439.323,444.404,453.377,458.1578,460.826,464.139,467.096,476.069,480.936,483.426,486.088,489.401,495.315,500.183,504.024,508.8048,511.473,514.43" svgx:width="0.6,0.55,0.29,0.58,0.33,0.55,0.44,0.5,0.58,0.55,0.5,0.29,0.42,0.55,0.55,0.55,0.48,0.55,0.44,0.29,0.48,0.5,0.4,0.29,0.56,0.55,0.42,0.48,0.48,0.58,0.25,0.55,0.78,0.33,0.55,0.33,0.58,0.48,0.55,0.42,0.5,0.88,0.48,0.55,0.33,0.29,0.88,0.48,0.25,0.55,0.33,0.58,0.48,0.4,0.48,0.55,0.29,0.42" style="fill:rgb(0,0,0);font-family:URWPalladioL-Roma;font-size:9.96px;stroke:none;">point can also be clearly seen. At the same time, there is</text>
   <text y="440.94" x="76.535,79.449,84.455,88.229,93.796,98.5768,101.075,106.602,111.608,116.054,121.621,127.188,130.973,136.439,142.477,148.304,154.3796,156.895,164.644,172.514,177.69320000000002,180.244,185.25,189.495,193.74,199.207,203.653,206.566,211.572,214.837,219.632,225.7076,228.233,236.583,239.497,242.761,248.5378,251.061,256.528,259.792,265.619,270.415,274.399,276.843,282.38,286.335,291.341,297.169,301.614,307.441,312.237,316.4202,318.966,324.432,327.71880000000004,330.24,333.504,339.331,344.1118,346.61,351.406,354.319,359.115,363.561,366.825,370.6,376.066,381.894,384.807,389.18940000000003,391.726,395.971,401.988,406.784,411.23,414.494,418.369,424.406,435.72,440.726,444.0128,446.474,451.27,457.097,461.893,465.667,471.234,474.148,478.944,483.1272,485.662,490.108,493.021,498.488,502.733,507.5138,510.012,513.276" svgx:width="0.29,0.5,0.4,0.56,0.48,0.55,0.55,0.5,0.44,0.56,0.56,0.4,0.55,0.6,0.58,0.61,0.55,0.77,0.79,0.52,0.55,0.5,0.42,0.42,0.55,0.44,0.29,0.5,0.33,0.48,0.61,0.55,0.83,0.29,0.33,0.58,0.55,0.55,0.33,0.58,0.48,0.4,0.55,0.55,0.4,0.5,0.58,0.44,0.58,0.48,0.42,0.55,0.55,0.33,0.55,0.33,0.58,0.48,0.55,0.48,0.29,0.48,0.44,0.33,0.4,0.55,0.58,0.29,0.44,0.55,0.42,0.6,0.48,0.44,0.33,0.4,0.6,0.88,0.5,0.33,0.55,0.48,0.58,0.48,0.4,0.56,0.29,0.48,0.42,0.55,0.44,0.29,0.55,0.42,0.48,0.55,0.33,0.55" style="fill:rgb(0,0,0);font-family:URWPalladioL-Roma;font-size:9.96px;stroke:none;">large background DOS associated with other branches of the electronic spectrumat energies close to</text>
   <text y="454.45" x="76.535,79.783,85.581,90.353,94.577,99.3578,101.84,107.638,113.078,119.165,123.937,128.161,130.651,133.74,139.847,145.646,150.418,154.174,158.946,162.263,167.703,171.459,176.231,178.721,181.212,184.111,187.3978,189.85,198.158,203.598,209.605,212.505,218.5806,221.082,227.07,230.826,236.265,241.775,246.756,252.265,255.164,260.7416,263.194,268.704,273.4848,275.966,282.053,284.953,288.091,294.118,298.542,304.549,307.448,310.7348,313.187,316.434,321.91200000000003,324.365,329.137,334.277,340.265,345.037,348.972,351.871,360.668,365.44,371.239,374.487,379.468,382.367,385.266,390.84360000000004,393.296,399.383,404.155,407.403,412.175,416.598,419.88480000000004,422.337,425.585,431.383,436.155,440.379,445.1598,447.642,453.44,458.88,464.967,469.739,473.963" svgx:width="0.33,0.58,0.48,0.42,0.48,0.55,0.58,0.55,0.61,0.48,0.42,0.25,0.55,0.61,0.58,0.48,0.4,0.48,0.33,0.55,0.4,0.48,0.25,0.55,0.29,0.33,0.55,0.83,0.55,0.6,0.29,0.61,0.55,0.6,0.4,0.55,0.55,0.5,0.55,0.29,0.56,0.55,0.55,0.48,0.55,0.61,0.29,0.33,0.61,0.44,0.6,0.29,0.33,0.55,0.33,0.55,0.55,0.48,0.52,0.6,0.48,0.4,0.29,0.88,0.48,0.58,0.33,0.5,0.29,0.29,0.56,0.55,0.61,0.48,0.33,0.48,0.44,0.33,0.55,0.33,0.58,0.48,0.42,0.48,0.55,0.58,0.55,0.61,0.48,0.42,0.25" style="fill:rgb(0,0,0);font-family:URWPalladioL-Roma;font-size:9.96px;stroke:none;">these nodes. Therefore, it would probably be difﬁcult to experimentally detect these nodes.</text>
   <text y="477.663" x="76.535,81.516,84.006,87.095,90.971,97.058,103.145,109.232,114.214,120.301,124.724,129.704,132.196,137.735,141.6194,144.101,150.746,155.728,161.815,167.8906,170.393,176.48,179.797,183.673,189.76,194.183,197.501,203.588,207.463,212.44299999999998,214.935,221.023,226.004,230.427,236.514,239.832,243.149,248.131,252.006,255.324,258.641,261.959,266.94,271.3224,273.854,279.393,285.4686,287.971,297.934,303.473,309.56,315.099,319.523,322.84,326.158,329.475,333.899,337.216,343.304,348.284,350.775,357.421,363.508,368.489,372.364,381.221,386.76,391.742,395.059,400.041,404.464,407.781,411.657,414.974,419.3564,421.889,427.976,431.851,437.39,443.478,448.459,452.334,455.652,458.969,463.951" svgx:width="0.5,0.25,0.55,0.39,0.61,0.61,0.61,0.5,0.61,0.44,0.5,0.55,0.56,0.39,0.55,0.67,0.5,0.61,0.61,0.55,0.61,0.33,0.39,0.61,0.44,0.33,0.61,0.39,0.5,0.55,0.61,0.5,0.44,0.61,0.33,0.33,0.5,0.39,0.33,0.33,0.33,0.5,0.44,0.55,0.56,0.61,0.55,1.0,0.56,0.61,0.56,0.44,0.33,0.33,0.33,0.44,0.33,0.61,0.5,0.55,0.67,0.61,0.5,0.39,0.89,0.56,0.5,0.33,0.5,0.44,0.33,0.39,0.33,0.44,0.55,0.61,0.39,0.56,0.61,0.5,0.39,0.33,0.33,0.5,0.44" style="fill:rgb(0,0,0);font-family:URWPalladioL-Bold;font-size:9.96px;stroke:none;">4. Inﬂuence of Band Structure Peculiarities on Monosilicide Thermoelectric Properties</text>
   <text y="497.15" x="97.795,104.004,106.961,111.829,116.34,119.653,123.484,129.033,134.947,137.904,142.2864,145.058,150.677,155.758,161.672,167.7476,170.513,174.822,178.135,182.067,188.195,192.707,196.019,202.147,205.988,210.7688,213.488,219.697,224.564,227.877,232.744,236.758,245.731,248.688,254.602,259.47,263.6532,266.421,272.335,277.883,281.1698,283.828,289.376,295.291,298.248,303.8256,306.53,309.842,315.391,321.498,327.046,330.003,335.552,341.202,344.159,348.671,353.752,356.6404,359.351,364.97,371.098,374.38480000000004,377.043,382.124,385.081,389.389,394.938,397.428,400.151,403.464,408.942,411.654,416.634,419.367,422.324,427.405,431.246,436.896,441.6768,444.396,449.263,454.507,457.819,462.687,468.601,471.914,474.404,477.127,480.44,484.454,489.534,495.449,499.757,505.865,511.413,515.427" svgx:width="0.61,0.29,0.48,0.44,0.33,0.4,0.55,0.58,0.29,0.44,0.55,0.55,0.5,0.58,0.61,0.55,0.42,0.33,0.4,0.6,0.44,0.33,0.6,0.4,0.48,0.55,0.61,0.48,0.33,0.48,0.4,0.88,0.29,0.58,0.48,0.42,0.55,0.58,0.55,0.33,0.55,0.55,0.58,0.29,0.56,0.55,0.33,0.55,0.6,0.55,0.29,0.55,0.56,0.29,0.44,0.5,0.29,0.55,0.55,0.6,0.33,0.55,0.5,0.29,0.42,0.55,0.25,0.55,0.33,0.55,0.55,0.5,0.55,0.29,0.5,0.4,0.56,0.48,0.55,0.48,0.52,0.33,0.48,0.58,0.33,0.25,0.55,0.33,0.4,0.5,0.58,0.42,0.6,0.55,0.4,0.33" style="fill:rgb(0,0,0);font-family:URWPalladioL-Roma;font-size:9.96px;stroke:none;">Electronic band structure determines not only topological but also, to a large extent, transport</text>
   <text y="510.659" x="76.236,82.343,86.174,91.723,97.83,102.697,106.711,110.024,112.981,117.849,122.157,124.64699999999999,128.813,138.427,143.507,149.422,154.9996,157.907,162.419,167.967,173.881,178.19,181.147,187.356,192.223,196.065,200.932,207.0076,209.966,218.939,224.487,230.401,235.95,240.258,243.216,246.173,249.13,253.642,256.599,262.808,267.675,271.8582,274.819,283.294,288.161,292.003,296.7838,299.695,304.004,307.316,313.444,319.653,322.61,327.478,333.5536,336.522,341.603,345.7862,348.746,352.059,357.973,362.841,366.855,375.828,381.376,386.243,389.201,394.068,398.58,401.893,405.907,408.864,413.2464,416.211,425.184,430.265,433.577,438.445,442.459,445.416,450.497,453.454,457.763,460.253,464.419,470.648,476.562,481.43,487.0076,489.915,494.427,499.507,505.2838,508.257,513.876" svgx:width="0.6,0.4,0.55,0.6,0.48,0.4,0.33,0.29,0.48,0.42,0.25,0.55,0.95,0.5,0.58,0.56,0.55,0.44,0.55,0.58,0.42,0.29,0.61,0.48,0.4,0.48,0.61,0.55,0.88,0.55,0.58,0.55,0.42,0.29,0.29,0.29,0.44,0.29,0.61,0.48,0.42,0.55,0.83,0.48,0.4,0.48,0.55,0.42,0.33,0.6,0.61,0.29,0.48,0.61,0.55,0.5,0.42,0.55,0.33,0.58,0.48,0.4,0.88,0.55,0.48,0.29,0.48,0.44,0.33,0.4,0.29,0.44,0.55,0.88,0.5,0.33,0.48,0.4,0.29,0.5,0.29,0.42,0.25,0.55,0.61,0.58,0.48,0.56,0.55,0.44,0.5,0.58,0.55,0.55,0.48" style="fill:rgb(0,0,0);font-family:URWPalladioL-Roma;font-size:9.96px;stroke:none;">properties. Many considered monosilicides were studied as thermoelectric materials. They can be</text>
   <text y="524.168" x="76.535,82.525,85.377,90.916,93.769,99.759,104.455,110.53059999999999,112.944,115.797,121.502,124.698,130.176,132.55,135.746,141.452,145.148,149.843,154.6238,157.039,161.391,164.244,169.146,173.302,177.459,182.155,186.311,188.80100000000002,191.879,195.183,200.9598,203.388,206.584,212.29,217.0708,219.495,223.652,228.347,237.004,239.856,248.513,253.208,256.404,261.306,264.158,267.011,269.864,274.2464,276.716,285.373,290.725,296.431,301.783,305.94,308.792,311.645,314.498,318.85,321.703,327.693,332.389,336.5722,339.045,344.398,347.68480000000005,350.162,357.112,362.59000000000003,364.965,369.866,375.572,381.6476,384.061,390.61,396.315,398.805,401.276,404.472,410.177,414.873,418.559,423.3398,425.754,428.607,432.7902,435.263,440.969,446.447,448.831,453.527,459.232,463.928,467.614,473.065,478.6426,481.015,486.466,491.367,497.343,499.769,505.474,510.17,515.071" svgx:width="0.61,0.29,0.56,0.29,0.61,0.48,0.61,0.55,0.29,0.58,0.33,0.55,0.55,0.33,0.58,0.4,0.48,0.48,0.55,0.44,0.29,0.5,0.42,0.42,0.48,0.42,0.25,0.55,0.34,0.58,0.55,0.33,0.58,0.48,0.55,0.42,0.48,0.88,0.29,0.88,0.48,0.33,0.5,0.29,0.29,0.29,0.44,0.55,0.88,0.55,0.58,0.55,0.42,0.29,0.29,0.29,0.44,0.29,0.61,0.48,0.42,0.55,0.55,0.33,0.55,0.71,0.55,0.55,0.5,0.58,0.61,0.55,0.67,0.58,0.25,0.55,0.33,0.58,0.48,0.4,0.48,0.55,0.29,0.42,0.55,0.58,0.55,0.55,0.48,0.58,0.48,0.4,0.56,0.56,0.55,0.56,0.5,0.6,0.55,0.58,0.48,0.5,0.4" style="fill:rgb(0,0,0);font-family:URWPalladioL-Roma;font-size:9.96px;stroke:none;">divided into three classes. In the semimetallic monosilicides of Co and Rh, there is no energy gap near</text>
   <text y="537.678" x="76.535,79.718,85.4,90.1808,92.195,97.624,102.3,106.157,114.778,117.66640000000001,119.738,122.579,127.256,132.772,137.449,140.29,142.78,144.917,150.317,156.204,159.4908,161.505,164.688,170.371,175.1518,177.166,183.131,187.808,193.49,197.63,200.471,203.654,209.2316,211.201,216.532,219.8188,221.902,226.041,229.224,234.106,237.289,241.965,246.1482,248.223,253.105" svgx:width="0.33,0.58,0.48,0.55,0.56,0.48,0.4,0.88,0.29,0.55,0.29,0.48,0.56,0.48,0.29,0.25,0.55,0.55,0.6,0.33,0.55,0.33,0.58,0.48,0.55,0.61,0.48,0.58,0.42,0.29,0.33,0.56,0.55,0.55,0.33,0.55,0.42,0.33,0.5,0.33,0.48,0.42,0.55,0.5,0.33" style="fill:rgb(0,0,0);font-family:URWPalladioL-Roma;font-size:9.96px;stroke:none;">the Fermi level, but the density of states at</text>
   <text y="537.678" code="101" x="258.528" svgx:width="0.47" style="fill:rgb(0,0,0);font-family:PazoMath-Italic;font-size:9.96px;stroke:none;">?</text>
   <text y="539.486" x="263.48" svgx:width="0.56" style="fill:rgb(0,0,0);font-family:URWPalladioL-Ital;font-size:7.57px;stroke:none;">F</text>
   <text y="537.678" x="270.476,273.317,277.5002,279.575,283.715,292.336,297.218,300.059,302.9,305.39,308.299,313.728,318.404,320.894,323.042,329.564,335.451,337.94100000000003,340.089,344.97,350.653,356.72860000000003,358.727,366.401,370.5842,372.659,381.28,386.611,392.293,397.624,401.764,404.605,407.446,410.287,414.622,417.463,423.428,428.105,432.2882,434.363,439.245,442.926,447.7068,449.721,453.861,458.537,467.158,470.0,474.335,479.665,485.348,491.313,497.2,501.535,504.718,510.049,513.905,518.045" svgx:width="0.29,0.42,0.55,0.42,0.88,0.5,0.29,0.29,0.25,0.55,0.56,0.48,0.25,0.55,0.67,0.6,0.25,0.55,0.5,0.58,0.61,0.55,0.79,0.42,0.55,0.88,0.55,0.58,0.55,0.42,0.29,0.29,0.29,0.44,0.29,0.61,0.48,0.42,0.55,0.5,0.4,0.48,0.55,0.42,0.48,0.88,0.29,0.44,0.55,0.58,0.61,0.6,0.44,0.33,0.55,0.4,0.42,0.25" style="fill:rgb(0,0,0);font-family:URWPalladioL-Roma;font-size:9.96px;stroke:none;">is small. Fe, Ru, and Os monosilicides are semiconductors.</text>
   <text y="551.187" x="76.535,79.96,85.73679999999999,88.455,95.66,98.932,101.422,104.084,113.697,119.611,122.101,124.753,129.875,134.386,136.876,139.528,144.609,150.523,156.5986,159.313,166.102,170.8828,173.55,182.523,188.072,193.986,199.534,203.843,206.8,209.757,212.714,217.226,220.183,226.392,231.259,235.568,238.05800000000002,240.71,244.023,249.937,254.7178,257.385,263.035,267.903,271.917,280.89,283.7784,286.428,289.385,294.253,299.994,304.862,307.7504,310.4,313.357,317.5402,320.247,324.555,327.512,330.825,336.953,342.034,345.346,350.214,356.2896,359.004,361.961,367.875,372.184,375.141,381.35,386.1308,388.799,392.111,398.025,402.8058,405.474,411.216,416.297,419.254,424.121,430.035,434.547,439.3278,441.996,447.615,452.696,458.61,464.6856,467.4,475.875,478.833,482.145,487.92179999999996,490.641,495.62100000000004,498.303,504.217,507.174,512.824" svgx:width="0.34,0.58,0.55,0.71,0.4,0.25,0.55,0.95,0.58,0.25,0.55,0.61,0.44,0.25,0.55,0.5,0.58,0.61,0.55,0.67,0.48,0.55,0.88,0.55,0.58,0.55,0.42,0.29,0.29,0.29,0.44,0.29,0.61,0.48,0.42,0.25,0.55,0.33,0.58,0.48,0.55,0.56,0.48,0.4,0.88,0.29,0.55,0.29,0.48,0.56,0.48,0.29,0.55,0.29,0.42,0.55,0.42,0.29,0.33,0.6,0.5,0.33,0.48,0.61,0.55,0.29,0.58,0.42,0.29,0.61,0.48,0.55,0.33,0.58,0.48,0.55,0.56,0.5,0.29,0.48,0.58,0.44,0.48,0.55,0.55,0.5,0.58,0.61,0.55,0.83,0.29,0.33,0.58,0.55,0.5,0.55,0.58,0.29,0.56,0.58" style="fill:rgb(0,0,0);font-family:URWPalladioL-Roma;font-size:9.96px;stroke:none;">In Cr, Mn, Tc, and Re monosilicides, the Fermi level is situated inside the valence band with a high</text>
   <text y="564.697" x="76.535,82.622,87.394,93.192,97.417,100.316,103.564,109.1416,111.593,117.033,120.3198,122.841,127.065,130.313,135.294,138.542,143.314,147.538,150.02800000000002,152.52,157.501,163.299,169.37460000000002,171.877,175.125,180.923,185.695,188.594,192.578,195.02,198.268,202.203,207.184,212.983,217.207,223.194,228.634,232.569,235.8558,238.308,243.817,248.589,254.387,259.369,264.997,267.897,273.336,277.32,279.762,282.661,286.8442,289.376,293.6,296.499,305.296,308.195,311.094,316.076,320.06,322.502,325.749,331.22700000000003,333.68,336.927,342.726,347.707,350.9938,353.445,358.885,362.1718,364.693,373.49,378.262,381.51,386.491,389.39,393.615" svgx:width="0.61,0.48,0.58,0.42,0.29,0.33,0.56,0.55,0.55,0.33,0.55,0.42,0.33,0.5,0.33,0.48,0.42,0.25,0.55,0.5,0.58,0.61,0.55,0.33,0.58,0.48,0.29,0.4,0.55,0.33,0.4,0.5,0.58,0.42,0.6,0.55,0.4,0.33,0.55,0.55,0.48,0.58,0.5,0.56,0.29,0.55,0.4,0.55,0.29,0.42,0.55,0.42,0.29,0.88,0.29,0.29,0.5,0.4,0.55,0.33,0.55,0.55,0.33,0.58,0.5,0.33,0.55,0.55,0.33,0.55,0.88,0.48,0.33,0.5,0.29,0.42,0.25" style="fill:rgb(0,0,0);font-family:URWPalladioL-Roma;font-size:9.96px;stroke:none;">density of states, and their transport behavior is similar to that of metals.</text>
   <text y="578.206" x="97.795,103.323,108.752,112.73599999999999,115.155,118.396,124.183,128.96380000000002,131.421,138.47,142.398,147.618,150.511,155.482,164.888,170.675,175.895,178.788,183.759,189.288,194.05,199.27,202.163,207.135,214.184,219.613,224.833,227.726,232.697,239.747" svgx:width="0.56,0.55,0.4,0.55,0.33,0.58,0.48,0.55,0.71,0.4,0.52,0.29,0.5,0.95,0.58,0.52,0.29,0.5,0.56,0.48,0.52,0.29,0.5,0.71,0.55,0.52,0.29,0.5,0.71,0.55" style="fill:rgb(0,0,0);font-family:URWPalladioL-Roma;font-size:9.96px;stroke:none;">For the CrSi–MnSi–FeSi–CoSi–Co</text>
   <text y="579.95" x="245.172,248.958,250.851,254.636" svgx:width="0.5,0.25,0.5,0.5" style="fill:rgb(0,0,0);font-family:URWPalladioL-Roma;font-size:7.57px;stroke:none;">0.85</text>
   <text y="578.206" x="258.921,267.183" svgx:width="0.83,0.29" style="fill:rgb(0,0,0);font-family:URWPalladioL-Roma;font-size:9.96px;stroke:none;">Ni</text>
   <text y="580.064" x="270.076,273.862,275.755,279.54" svgx:width="0.5,0.25,0.5,0.5" style="fill:rgb(0,0,0);font-family:URWPalladioL-Roma;font-size:7.57px;stroke:none;">0.15</text>
   <text y="578.206" x="283.825,289.045,291.9334,294.414,299.385,302.279,305.172,310.601,316.1786,318.605,322.82,327.583,331.51,334.403,339.166,343.382,345.872,348.343,352.758,357.729,360.622,365.037,371.032,373.926,378.897,382.138,385.032,390.46,396.247,400.4302,402.938,408.437,413.408,417.624,422.386,428.46160000000003,430.937,436.366,442.14279999999997,444.618,449.589,455.3658,457.852,462.823,468.301,470.797,473.69,479.477,482.37,485.612,488.505,493.983,496.41,501.908,506.879,512.666" svgx:width="0.52,0.29,0.55,0.5,0.29,0.29,0.55,0.56,0.55,0.42,0.48,0.4,0.29,0.48,0.42,0.25,0.55,0.44,0.5,0.29,0.44,0.6,0.29,0.5,0.33,0.29,0.55,0.58,0.42,0.55,0.55,0.5,0.42,0.48,0.61,0.55,0.55,0.58,0.55,0.5,0.58,0.55,0.5,0.55,0.55,0.29,0.58,0.29,0.33,0.29,0.55,0.55,0.55,0.5,0.58,0.61" style="fill:rgb(0,0,0);font-family:URWPalladioL-Roma;font-size:9.96px;stroke:none;">Si alloy series, calculations based on an ab initio band</text>
   <text y="591.715" x="76.535,80.844,84.156,88.089,94.217,98.728,102.041,108.169,112.0,116.867,119.357,122.406,128.533,132.842,135.799,141.713,147.29059999999998,150.259,154.273,157.23,162.88,165.837,172.046,175.43,181.05,186.131,192.045,198.1206,201.14,206.221,212.135,218.2106,221.24,225.752,231.3,237.214,241.523,244.836,249.917,255.831,259.1178,262.04,265.871,270.738,273.695,278.776,284.02,289.101,292.413,295.371,300.919,306.69579999999996,309.729,313.042,315.999,324.972,329.7528,332.725,337.806,343.914,350.021,353.862,359.41,364.654,367.611,376.584,381.665,384.978,387.935,393.483,399.397,403.5802,406.592,409.976,417.181,423.603,429.1,437.006,440.38,442.87,445.817,454.292,459.159,463.0,467.7808,470.754,476.861,481.729,485.743,489.126,494.675,498.689,507.662,512.529" svgx:width="0.42,0.33,0.4,0.6,0.44,0.33,0.6,0.4,0.48,0.25,0.55,0.6,0.42,0.29,0.58,0.56,0.55,0.4,0.29,0.56,0.29,0.61,0.33,0.55,0.5,0.58,0.61,0.55,0.5,0.58,0.61,0.55,0.44,0.55,0.58,0.42,0.33,0.5,0.58,0.33,0.55,0.4,0.48,0.29,0.5,0.52,0.5,0.33,0.29,0.55,0.58,0.55,0.33,0.29,0.88,0.48,0.55,0.5,0.6,0.6,0.4,0.55,0.52,0.29,0.88,0.5,0.33,0.29,0.55,0.58,0.42,0.55,0.33,0.71,0.67,0.61,0.78,0.33,0.25,0.55,0.83,0.48,0.4,0.48,0.55,0.6,0.48,0.4,0.33,0.55,0.4,0.88,0.48,0.61" style="fill:rgb(0,0,0);font-family:URWPalladioL-Roma;font-size:9.96px;stroke:none;">structure, using rigid-band and constant relaxation time approximations (CRTA), were performed</text>
   <text y="605.225" x="76.535,79.492,85.2688,88.079,94.867,99.735,103.118,105.60799999999999,108.331" svgx:width="0.29,0.58,0.55,0.67,0.48,0.33,0.25,0.55,0.33" style="fill:rgb(0,0,0);font-family:URWPalladioL-Roma;font-size:9.96px;stroke:none;">in Ref. [</text>
   <text y="605.225" x="111.718,116.699" svgx:width="0.5,0.5" style="fill:rgb(8,117,183);font-family:URWPalladioL-Roma;font-size:9.96px;stroke:none;">10</text>
   <text y="605.225" x="121.681,125.065,127.55499999999999,131.243,139.231,145.358,149.342,152.045,156.556,161.637,164.594,169.106,175.234,178.191,183.272,186.585,189.542,195.09,201.004,205.1872,207.986,211.369,216.918,220.90200000000002,223.604,226.917,232.831,237.6118,240.382,243.765,249.304,255.431,259.445,262.758,268.672,272.056,278.163,283.031,287.045,290.002,295.55,301.6256,304.442,313.415,318.963,324.877,330.426,334.734,337.691,340.648,343.606,348.117,351.075,357.283,362.151,366.3342,369.132,374.213,378.044,382.8248,385.584,389.893,395.807,401.355,409.83,415.60679999999996,418.417,421.374,427.1508,429.961,435.611,438.568,444.218,450.346,454.187" svgx:width="0.33,0.25,0.55,0.79,0.6,0.4,0.55,0.44,0.5,0.29,0.44,0.6,0.29,0.5,0.33,0.29,0.55,0.58,0.42,0.55,0.33,0.55,0.4,0.55,0.33,0.58,0.48,0.55,0.33,0.55,0.6,0.4,0.33,0.58,0.33,0.6,0.48,0.4,0.29,0.55,0.61,0.55,0.88,0.55,0.58,0.55,0.42,0.29,0.29,0.29,0.44,0.29,0.61,0.48,0.42,0.55,0.5,0.4,0.48,0.55,0.42,0.58,0.55,0.83,0.58,0.55,0.29,0.58,0.55,0.56,0.29,0.56,0.6,0.4,0.48" style="fill:rgb(0,0,0);font-family:URWPalladioL-Roma;font-size:9.96px;stroke:none;">]. Our calculations for the fourth-period monosilicides are shown in Figure</text>
   <text y="605.225" x="461.727,466.808" svgx:width="0.5,0.5" style="fill:rgb(8,117,183);font-family:URWPalladioL-Roma;font-size:9.96px;stroke:none;">12</text>
   <text y="605.225" x="474.561,479.642,485.556,491.6316,494.438,499.519,505.169,509.01,513.878" svgx:width="0.5,0.58,0.61,0.55,0.5,0.56,0.4,0.48,0.48" style="fill:rgb(0,0,0);font-family:URWPalladioL-Roma;font-size:9.96px;stroke:none;">and agree</text>
   <text y="618.734" x="76.117,84.592,87.549,90.862,96.63879999999999,99.632,102.944,108.858,113.6388,116.571,120.413,125.28,129.589,135.716,138.673,141.986,146.1692,149.14,154.688,157.9748,160.928,167.716,172.583,175.967,178.45700000000002,181.353" svgx:width="0.83,0.29,0.33,0.58,0.55,0.33,0.58,0.48,0.55,0.4,0.48,0.42,0.6,0.29,0.33,0.42,0.55,0.55,0.33,0.55,0.67,0.48,0.33,0.25,0.55,0.33" style="fill:rgb(0,0,0);font-family:URWPalladioL-Roma;font-size:9.96px;stroke:none;">with the results of Ref. [</text>
   <text y="618.734" x="184.742,189.723" svgx:width="0.5,0.5" style="fill:rgb(8,117,183);font-family:URWPalladioL-Roma;font-size:9.96px;stroke:none;">10</text>
   <text y="618.734" x="194.704,198.088,200.578,204.805,210.455,216.003,219.987,222.862,227.374,232.923,241.896,248.003,253.084,257.098,260.055,264.363,269.912,275.826,278.31600000000003,281.313,289.788,294.5688,297.501,306.474,311.555,317.764,322.5448,325.487,329.796,332.753,341.726,344.683,347.64,352.721,356.705,359.59,364.102,369.183,372.14,376.652,382.78,385.737,390.818,394.13,397.077,402.626,408.54,412.7232,415.704,419.088,424.636,428.62,431.506,434.818,440.733,445.5138,448.445,453.577,458.089,463.424,466.381,471.462,478.25,484.378,489.713,492.67,497.751,504.539,510.453,515.788" svgx:width="0.33,0.25,0.55,0.56,0.55,0.4,0.55,0.44,0.55,0.88,0.6,0.5,0.4,0.29,0.42,0.55,0.58,0.25,0.55,0.83,0.48,0.55,0.88,0.5,0.61,0.48,0.55,0.42,0.29,0.88,0.29,0.29,0.5,0.4,0.55,0.44,0.5,0.29,0.44,0.6,0.29,0.5,0.33,0.29,0.55,0.58,0.42,0.55,0.33,0.55,0.4,0.55,0.33,0.58,0.48,0.55,0.61,0.44,0.52,0.29,0.5,0.67,0.6,0.52,0.29,0.5,0.67,0.58,0.52,0.29" style="fill:rgb(0,0,0);font-family:URWPalladioL-Roma;font-size:9.96px;stroke:none;">]. For comparison, we made similar calculations for the TcSi–RuSi–RhSi</text>
   <text y="632.243" x="76.535,81.521,87.325,93.4006,95.902,102.563,107.34,112.576,115.478,120.464,128.303,132.531,137.767,140.6554,143.142,147.37,152.147,156.086,158.988,163.765,167.94819999999999,170.477,175.922,179.2088,181.726,186.153,191.598,200.404,206.398,211.843,217.856,223.66,229.753,233.982,236.472,239.556,245.67,251.474,256.251,260.479,265.2598,267.739,272.167,278.18,282.119,287.754,292.531,296.7142,299.232,304.817,310.83,315.817,318.719,321.621,324.872,329.858,333.109,336.011,341.646,346.422,349.324,354.90160000000003,357.352,361.112,365.889,371.882,375.642,381.087,387.18,393.194,397.621,402.4018,404.881,409.658,414.804,420.798,425.574,429.514,432.416,441.221,445.998,451.802,455.053,460.04,462.9284,465.415,471.508,476.285,482.278,487.055,492.859,498.953,503.729,509.533,513.961" svgx:width="0.5,0.58,0.61,0.55,0.67,0.48,0.52,0.29,0.5,0.79,0.42,0.52,0.29,0.55,0.42,0.48,0.4,0.29,0.48,0.42,0.55,0.55,0.33,0.55,0.44,0.55,0.88,0.6,0.55,0.6,0.58,0.61,0.42,0.25,0.55,0.61,0.58,0.48,0.42,0.48,0.55,0.44,0.6,0.4,0.56,0.48,0.42,0.55,0.56,0.6,0.5,0.29,0.29,0.33,0.5,0.33,0.29,0.56,0.48,0.29,0.56,0.55,0.4,0.48,0.6,0.4,0.55,0.61,0.6,0.44,0.48,0.55,0.48,0.52,0.6,0.48,0.4,0.29,0.88,0.48,0.58,0.33,0.5,0.29,0.55,0.61,0.48,0.6,0.48,0.58,0.61,0.48,0.58,0.44,0.48" style="fill:rgb(0,0,0);font-family:URWPalladioL-Roma;font-size:9.96px;stroke:none;">and ReSi–OsSi series of compounds. These curves qualitatively reproduce experimental dependence</text>
   <text y="645.753" x="76.535,82.083,85.3698,88.445,91.757,97.672,102.4528,105.527,110.862,115.729,120.597,126.216,131.084,135.596,141.1736,144.223,148.735,154.283,159.151,162.352,168.5,173.012,175.969,180.836,186.75,190.0368,193.041,198.589,204.3658,207.481,210.793,216.708,221.4888,224.552,229.064,234.613,243.586,249.693,255.241,259.55,262.507,265.82,268.777,274.325,280.239,282.729,286.855,289.812,295.5888,298.703,307.676,312.544,315.857,320.938,323.895,326.852,329.809,334.19140000000004,337.298,346.271,351.819,357.734,363.282,367.591,370.548,373.505,376.462,380.974,383.931,390.14,395.007,399.316,401.806,404.956,408.269,414.183,419.05,423.064,432.037,437.585,443.693,449.241,457.716,462.584,466.568,469.585,472.542,476.7252,479.828,484.137,493.11,498.191,501.148,504.105,506.595,509.867,512.824" svgx:width="0.55,0.33,0.55,0.33,0.58,0.48,0.55,0.52,0.48,0.48,0.55,0.48,0.44,0.56,0.55,0.44,0.55,0.48,0.33,0.61,0.44,0.29,0.48,0.58,0.33,0.55,0.55,0.58,0.55,0.33,0.58,0.48,0.55,0.44,0.55,0.88,0.6,0.55,0.42,0.29,0.33,0.29,0.55,0.58,0.25,0.55,0.29,0.58,0.55,0.88,0.48,0.33,0.5,0.29,0.29,0.29,0.44,0.55,0.88,0.55,0.58,0.55,0.42,0.29,0.29,0.29,0.44,0.29,0.61,0.48,0.42,0.25,0.55,0.33,0.58,0.48,0.4,0.88,0.55,0.6,0.55,0.83,0.48,0.4,0.55,0.29,0.42,0.55,0.42,0.88,0.5,0.29,0.29,0.25,0.55,0.29,0.58" style="fill:rgb(0,0,0);font-family:URWPalladioL-Roma;font-size:9.96px;stroke:none;">of the Seebeck coefﬁcient on the composition: in metallic monosilicides, thermopower is small; in</text>
   <text y="659.262" x="76.535,80.844,85.711,94.684,97.641,102.153,107.701,113.616,119.824,125.952,130.464,133.777,136.734,142.648,148.2256,151.438,156.986,162.901,167.768,172.077,174.567,177.93,180.887,184.1738,187.34,190.297,194.4802,197.756,202.064,205.377,209.208,214.756,220.671,226.321,229.278,234.85559999999998,238.068,244.277,249.144,255.251,260.119,266.033,272.242,277.11,283.024,286.31080000000003,289.487,295.035,300.8118,304.089,310.298,315.847,321.954,324.911,330.825,336.475,338.96500000000003,342.328,345.285,351.2,355.711,358.669,364.786,370.995,373.952,379.866,385.4436,388.666,392.975,395.932,401.582,407.3588,410.636,415.148,421.062,426.143,432.057,437.707,442.575,445.065,450.166,456.395,462.309,467.0898,470.317,473.274,479.188,483.7,487.541,492.409,497.49,501.798,506.5788,509.806,515.354" svgx:width="0.42,0.48,0.88,0.29,0.44,0.55,0.58,0.61,0.6,0.44,0.33,0.29,0.58,0.56,0.55,0.55,0.58,0.48,0.42,0.25,0.55,0.29,0.33,0.55,0.29,0.42,0.55,0.42,0.33,0.4,0.55,0.58,0.56,0.29,0.56,0.55,0.61,0.48,0.6,0.48,0.58,0.61,0.48,0.58,0.33,0.55,0.55,0.58,0.55,0.61,0.55,0.6,0.29,0.58,0.56,0.25,0.55,0.29,0.58,0.44,0.29,0.6,0.61,0.29,0.58,0.56,0.55,0.42,0.29,0.56,0.58,0.55,0.44,0.58,0.5,0.58,0.56,0.48,0.25,0.55,0.61,0.58,0.48,0.55,0.29,0.58,0.44,0.4,0.48,0.5,0.42,0.48,0.55,0.55,0.33" style="fill:rgb(0,0,0);font-family:URWPalladioL-Roma;font-size:9.96px;stroke:none;">semiconducting ones, it is strongly dependent on doping, including sign change. The increase of</text>
   <text y="672.772" x="76.535,81.807,86.617,91.428,96.981,101.791,106.25,111.8276,114.344,118.803,124.286,129.096,132.26,138.335,142.794,145.716,150.527,156.371,159.6578,162.146,167.167,176.034,182.07,184.992,187.914,191.188,197.243,203.379,208.1598,210.7,213.622,219.39880000000002,221.968,226.226,231.036,239.903,242.825,247.284,252.767,258.612,264.748,270.803,275.262,278.536,281.458,287.303,292.8806,295.397,304.264,309.747,315.592,321.075,325.333,328.255,331.178,334.1,338.559,341.481,347.617,352.427,356.6102,359.185,362.108,366.2912,368.876,371.799,377.57579999999996,380.154,385.175,389.634,394.092,399.576,403.362,409.497,414.518,420.363,424.822,429.6028,432.133,440.508,443.43,446.704,452.4808,455.059,458.333,464.178,468.9588,471.499,474.411,480.255,484.714,488.51,493.32,498.342,502.599,507.3798,509.91,515.393" svgx:width="0.52,0.48,0.48,0.55,0.48,0.44,0.56,0.55,0.44,0.55,0.48,0.33,0.61,0.44,0.29,0.48,0.58,0.33,0.55,0.5,0.88,0.6,0.29,0.29,0.33,0.6,0.61,0.48,0.55,0.29,0.58,0.55,0.42,0.48,0.88,0.29,0.44,0.55,0.58,0.61,0.6,0.44,0.33,0.29,0.58,0.56,0.55,0.88,0.55,0.58,0.55,0.42,0.29,0.29,0.29,0.44,0.29,0.61,0.48,0.42,0.55,0.29,0.42,0.55,0.29,0.58,0.55,0.5,0.44,0.44,0.55,0.4,0.61,0.5,0.58,0.44,0.48,0.55,0.83,0.29,0.33,0.58,0.55,0.33,0.58,0.48,0.55,0.29,0.58,0.44,0.4,0.48,0.5,0.42,0.48,0.55,0.55,0.33" style="fill:rgb(0,0,0);font-family:URWPalladioL-Roma;font-size:9.96px;stroke:none;">Seebeck coefﬁcient amplitude in semiconducting monosilicides is in accordance with the increase of</text>
   <text y="686.281" x="76.535,79.737,85.454,90.23479999999999,92.645,97.35,103.067,107.773,111.466,116.928,122.5056,124.875,130.336,135.248,141.224,143.637,151.829,157.546,160.405,163.263,168.0438,170.454,176.358,181.269,185.434,189.599,192.458,198.175,203.7526,206.112,209.383,213.086,218.45,229.609,235.07,239.776,244.933,247.82139999999998,250.267,253.469,258.947,261.318,267.88,273.803,278.96,281.84839999999997,284.304,289.215,294.933,301.0086,303.42,311.141,315.306,320.463,323.321,325.81100000000004,328.862,336.583,342.506,347.418,350.276,353.135,356.337,361.248,364.451,367.309,372.859,377.565,380.423,384.775,387.265,389.716,392.918,398.635,403.341,407.506,412.28679999999997,414.696,420.698,425.403,431.307,436.012,441.729,447.731,452.436,458.154,462.515,467.22,471.4032,473.861,479.804,483.0908,485.491,488.35,494.067,497.269,502.747,505.118,508.32,514.037" svgx:width="0.33,0.58,0.48,0.55,0.48,0.58,0.48,0.4,0.56,0.56,0.55,0.56,0.5,0.6,0.55,0.83,0.58,0.29,0.29,0.48,0.55,0.6,0.5,0.42,0.42,0.29,0.58,0.56,0.55,0.33,0.4,0.55,0.88,0.56,0.48,0.52,0.29,0.55,0.33,0.55,0.55,0.67,0.6,0.52,0.29,0.55,0.5,0.58,0.61,0.55,0.79,0.42,0.52,0.29,0.25,0.55,0.79,0.6,0.5,0.29,0.29,0.33,0.5,0.33,0.29,0.56,0.48,0.29,0.56,0.25,0.55,0.33,0.58,0.48,0.42,0.48,0.55,0.61,0.48,0.6,0.48,0.58,0.61,0.48,0.58,0.44,0.48,0.42,0.55,0.61,0.33,0.55,0.29,0.58,0.33,0.55,0.55,0.33,0.58,0.48" style="fill:rgb(0,0,0);font-family:URWPalladioL-Roma;font-size:9.96px;stroke:none;">the energy gap while passing fromFeSi to RuSi and OsSi. Qualitatively, these dependences ﬁt into the</text>
   <text y="699.79" x="76.535,80.958,86.398,95.195,103.992,109.432,115.2088,117.72,120.968,126.766,131.539,136.978,140.913,146.4906,148.943,154.383,157.6698,160.191,163.439,169.237,174.0178,176.5,181.73,186.502,191.274,196.784,201.556,205.979,211.5566,214.009,218.432,223.872,228.644,231.782,237.81,242.233,245.132,249.904,255.702,258.95" svgx:width="0.44,0.55,0.88,0.88,0.55,0.58,0.55,0.33,0.58,0.48,0.55,0.4,0.56,0.55,0.55,0.33,0.55,0.33,0.58,0.48,0.55,0.52,0.48,0.48,0.55,0.48,0.44,0.56,0.55,0.44,0.55,0.48,0.33,0.61,0.44,0.29,0.48,0.58,0.33,0.25" style="fill:rgb(0,0,0);font-family:URWPalladioL-Roma;font-size:9.96px;stroke:none;">common theory of the Seebeck coefﬁcient.</text>
  </g>
 </g>
</svg>
