<?xml version="1.0" encoding="UTF-8"?>
<svg height="734.819" width="4090.164" xmlns="http://www.w3.org/2000/svg">
 <g id="page" xmlns:svgx="http://www.xml-cml.org/schema/svgx">
  <g begin="text">
   <text y="340.724" x="35.887,40.637,45.354,48.204,49.833,54.765,59.329,62.179,63.807,67.772,69.961,72.336,73.929,77.671,81.637,84.909,88.674,91.946,94.036,95.574,98.862,103.616,108.18,115.707,120.271,125.225,129.788,131.977,135.942,140.107,143.873,147.29299999999998,148.919,152.15,156.904,160.176,162.754,166.733,170.476,174.466,176.032,180.174,184.116,187.404,189.672,193.614,196.274,198.535,203.127,208.058,211.47799999999998,213.103,216.901,219.056,223.597,226.885,230.875,232.441,235.105,239.855,241.398,244.119,248.954,252.94400000000002,254.51,257.759,261.557,264.845,269.38,271.591,276.353,279.013,281.274,285.867" svgx:width="0.5,0.52,0.3,0.55,0.54,0.5,0.3,0.55,0.44,0.25,0.25,0.55,0.42,0.44,0.36,0.42,0.36,0.22,0.55,0.36,0.52,0.5,0.81,0.5,0.54,0.5,0.25,0.44,0.46,0.42,0.36,0.55,0.36,0.52,0.36,0.29,0.44,0.42,0.42,0.55,0.46,0.44,0.36,0.26,0.44,0.3,0.26,0.5,0.54,0.36,0.55,0.42,0.25,0.5,0.36,0.42,0.55,0.3,0.5,0.55,0.3,0.53,0.42,0.55,0.36,0.42,0.36,0.5,0.25,0.52,0.3,0.26,0.5,0.54" style="fill:rgb(0,0,0);font-family:AdvTT78ea841c;font-size:9.5px;stroke:none;">but not all cases, submonolayer surface variations close to the resolution</text>
   <text y="351.667" x="35.887,38.041,40.309,47.859,50.166,53.016,54.644,59.18,61.935,63.602,68.194,72.9,76.32000000000001,78.002,85.553,89.341,93.329,96.561,101.338,104.632,108.421,115.904,119.693,124.625,127.475,129.16,132.392,136.58,139.875,142.539,146.281,155.636,161.872,165.66,168.955,172.94500000000002,174.511,179.103,183.638,186.926,190.668,193.956,198.144,201.886,206.826,208.462,213.451,217.193,221.161,224.581,226.264,228.928,233.81,237.8,239.365,244.142,248.728,252.023,254.291,256.955,259.223,263.81,268.94,270.557,275.143,277.89799999999997,279.565,282.23,287.05" svgx:width="0.25,0.26,0.81,0.26,0.3,0.55,0.5,0.29,0.55,0.5,0.52,0.36,0.55,0.81,0.42,0.44,0.36,0.52,0.36,0.42,0.81,0.42,0.54,0.3,0.55,0.36,0.46,0.36,0.3,0.42,0.81,0.68,0.42,0.36,0.42,0.55,0.5,0.5,0.36,0.42,0.36,0.46,0.42,0.52,0.55,0.54,0.42,0.44,0.36,0.55,0.3,0.53,0.42,0.55,0.52,0.5,0.36,0.26,0.3,0.26,0.5,0.54,0.55,0.5,0.29,0.55,0.3,0.53,0.42" style="fill:rgb(0,0,0);font-family:AdvTT78ea841c;font-size:9.5px;stroke:none;">limit of our measurement systemwere observed near the position of the</text>
   <text y="362.665" x="35.887,40.629,45.181,52.698,56.652,58.924,63.866,67.286,69.706,72.824,77.566,79.838,83.992,86.08200000000001,88.47,92.823,95.789,98.85,100.94,103.328,106.294,111.42399999999999,113.834,117.788,122.53,127.273,129.545,132.217,134.489,139.041,144.171,146.582,149.253,154.003,156.396,159.067,163.955,167.94500000000002,170.305,173.593,181.123,185.09,187.28,189.655,192.043,196.609,200.775,204.742,207.117,209.448,214.203,218.769,226.299,230.266,232.552,237.507,240.781,242.871,245.203,252.733,255.018,258.786,262.06,266.625,274.155,277.923,280.608,284.375,287.649" svgx:width="0.52,0.5,0.81,0.44,0.26,0.54,0.36,0.55,0.34,0.52,0.26,0.46,0.22,0.55,0.48,0.33,0.34,0.22,0.55,0.33,0.54,0.55,0.44,0.52,0.52,0.26,0.3,0.26,0.5,0.54,0.55,0.3,0.5,0.55,0.3,0.53,0.42,0.55,0.36,0.81,0.44,0.25,0.25,0.55,0.5,0.46,0.44,0.25,0.55,0.52,0.5,0.81,0.44,0.26,0.54,0.36,0.22,0.55,0.81,0.26,0.42,0.36,0.5,0.81,0.42,0.3,0.42,0.36,0.35" style="fill:rgb(0,0,0);font-family:AdvTT78ea841c;font-size:9.5px;stroke:none;">domains (Fig. 2I). In addition to the small oval domains, micrometer-</text>
   <text y="373.607" x="35.887,39.193,41.511,45.311,49.111,54.050999999999995,56.821,60.127,62.844,66.15,68.468,73.256,77.056,80.267,82.642,84.802,89.337,93.327,96.027,100.847,105.445,113.007,117.006,119.274,124.261,127.681,130.497,133.604,136.91,141.802,146.4,152.68,157.81,160.56,165.158,169.528,172.301,176.3,179.606,182.912,187.51,193.79,197.20999999999998,199.97,202.288,207.418,210.168,214.956,217.274,221.473,223.56300000000002,226.292,230.691,237.464,240.694,243.474,249.71,253.51,256.816,260.806,263.506,267.531,269.754,273.06,277.81,280.543,283.888,287.688" svgx:width="0.36,0.26,0.42,0.42,0.52,0.55,0.36,0.3,0.36,0.26,0.52,0.42,0.35,0.25,0.26,0.49,0.42,0.55,0.52,0.5,0.81,0.44,0.26,0.54,0.36,0.55,0.34,0.36,0.53,0.5,0.68,0.54,0.55,0.5,0.46,0.55,0.44,0.36,0.36,0.5,0.68,0.36,0.55,0.26,0.54,0.55,0.52,0.26,0.46,0.22,0.55,0.48,0.73,0.34,0.55,0.68,0.42,0.36,0.42,0.55,0.44,0.25,0.36,0.5,0.55,0.36,0.42,0.35" style="fill:rgb(0,0,0);font-family:AdvTT78ea841c;font-size:9.5px;stroke:none;">sized stripe-like domains (shown by arrows in Fig. 2D) were also re-</text>
   <text y="384.549" x="35.887,39.345,44.22,46.658,51.08,55.105,60.151,62.241,65.423,71.319,76.363,78.972,82.392,85.662,90.481,95.301,98.759,102.841,106.299,110.778,115.03,117.978,120.529,125.348,130.478,133.682,138.501,141.256,144.454,149.499,154.318,162.032,166.337,168.807,174.047,177.46699999999998,180.737,183.288,188.418,191.621,195.079,199.161,206.984,209.454,217.302,221.328,224.275,228.427,230.908,233.403,235.873,239.863,243.098,252.294,258.234" svgx:width="0.36,0.5,0.25,0.46,0.42,0.52,0.22,0.55,0.61,0.53,0.26,0.36,0.55,0.5,0.5,0.36,0.42,0.36,0.46,0.44,0.3,0.26,0.5,0.54,0.55,0.5,0.29,0.55,0.52,0.5,0.81,0.44,0.26,0.54,0.36,0.55,0.26,0.54,0.55,0.36,0.42,0.81,0.26,0.81,0.42,0.3,0.44,0.25,0.25,0.26,0.42,0.55,0.97,0.61,0.42" style="fill:rgb(0,0,0);font-family:AdvTT78ea841c;font-size:9.5px;stroke:none;">solved. This observation of domains in semimetallic WTe</text>
   <text y="386.135" x="262.318" svgx:width="0.48" style="fill:rgb(0,0,0);font-family:AdvTT78ea841c;font-size:6.33px;stroke:none;">2</text>
   <text y="384.548" x="268.894,272.352,274.96,280.176,284.598,287.036" svgx:width="0.36,0.26,0.54,0.46,0.25,0.42" style="fill:rgb(0,0,0);font-family:AdvTT78ea841c;font-size:9.5px;stroke:none;">single</text>
   <text y="395.546" x="35.887,39.685,43.03,47.225,50.513,53.382,57.259,59.634,63.054,65.763,68.087,75.627,80.447,82.822,85.039,88.837,92.257,95.073,97.794,102.726,106.694,109.544,112.364,121.434,127.104" svgx:width="0.42,0.36,0.46,0.36,0.3,0.44,0.25,0.36,0.55,0.26,0.81,0.52,0.25,0.26,0.42,0.36,0.55,0.3,0.53,0.44,0.3,0.55,0.97,0.61,0.42" style="fill:rgb(0,0,0);font-family:AdvTT78ea841c;font-size:9.5px;stroke:none;">crystals implies that WTe</text>
   <text y="397.134" x="130.904" svgx:width="0.48" style="fill:rgb(0,0,0);font-family:AdvTT78ea841c;font-size:6.33px;stroke:none;">2</text>
   <text y="395.547" x="137.083,142.223,146.721,149.571,152.334,157.084,161.971,164.182,168.552,171.325,176.258,180.226,183.646,186.462,190.642,193.378,198.198,202.79,205.165,209.083,212.503,215.319,219.287,223.595,226.065,229.48499999999999,232.156" svgx:width="0.54,0.5,0.3,0.55,0.5,0.54,0.25,0.46,0.55,0.53,0.44,0.36,0.55,0.44,0.55,0.52,0.5,0.25,0.44,0.36,0.55,0.44,0.47,0.26,0.36,0.55,0.34" style="fill:rgb(0,0,0);font-family:AdvTT78ea841c;font-size:9.5px;stroke:none;">not only has a polar axis (</text>
   <text y="395.547" x="235.331" svgx:width="0.38" style="fill:rgb(0,0,0);font-family:AdvTT5a3b6cb0.I;font-size:9.5px;stroke:none;">c</text>
   <text y="395.547" x="241.624,245.646,249.961,252.301,255.629,258.859,261.639,266.389,271.05,273.90000000000003,276.719,280.741,282.985,286.313" svgx:width="0.44,0.47,0.26,0.36,0.34,0.55,0.5,0.52,0.3,0.55,0.44,0.25,0.36,0.5" style="fill:rgb(0,0,0);font-family:AdvTT78ea841c;font-size:9.5px;stroke:none;">axis) but also</text>
   <text y="406.489" x="35.887,40.931,45.083,48.503,51.023,55.773,58.243,61.701,64.57,68.721,73.471,75.846,79.836,82.316,87.256,92.006,94.381,98.532,101.99,104.46,108.412,112.564,115.433,117.903,122.653,127.783,130.333,133.791,136.66,140.811,143.68,147.632,151.052,153.576,161.29,165.442,170.581,173.051,175.816,179.768,183.226,186.095,188.565,193.704,198.074,200.63,204.781,208.201,210.721,214.179,217.048,221.199,224.068,226.538,230.52800000000002,233.0,237.152,242.291,245.16,247.63,252.57,256.722,260.18,264.331,266.706,269.081,273.033,275.408,277.956,282.896,287.646" svgx:width="0.53,0.44,0.36,0.55,0.5,0.26,0.36,0.3,0.44,0.5,0.25,0.42,0.55,0.52,0.5,0.25,0.44,0.36,0.26,0.42,0.44,0.3,0.26,0.5,0.54,0.55,0.36,0.3,0.44,0.3,0.42,0.36,0.55,0.81,0.44,0.54,0.26,0.29,0.42,0.36,0.3,0.26,0.54,0.46,0.55,0.44,0.36,0.55,0.36,0.3,0.44,0.3,0.26,0.42,0.55,0.44,0.54,0.3,0.26,0.52,0.44,0.36,0.44,0.25,0.25,0.42,0.25,0.55,0.52,0.5,0.35" style="fill:rgb(0,0,0);font-family:AdvTT78ea841c;font-size:9.5px;stroke:none;">has bistable polarization states manifesting as static antiparallel do-</text>
   <text y="417.431" x="35.887,43.601,47.752,50.222,55.362,58.82,60.91,62.984,68.817,73.862,77.814,81.272,85.224,87.988,92.738,96.196,100.148,102.238,104.312,107.181,112.226,116.216,118.258,122.41,127.16,131.91,136.261,140.251,142.295,145.753,149.705,153.163,158.103,160.478,163.347,166.767,168.94,172.398,175.267,178.725,183.475,188.614,192.965,195.34,199.71,201.764,205.222,210.162,215.102,220.042,224.792,228.25,231.1,233.227,236.096,241.141,245.131,247.173,251.125,255.571,258.041,261.499,264.368,268.32,273.46,277.412,281.402,283.512,288.262" svgx:width="0.81,0.44,0.26,0.54,0.36,0.22,0.55,0.61,0.53,0.42,0.36,0.42,0.29,0.5,0.36,0.42,0.22,0.55,0.3,0.53,0.42,0.55,0.44,0.5,0.5,0.46,0.42,0.55,0.36,0.42,0.36,0.52,0.25,0.3,0.36,0.55,0.36,0.3,0.36,0.5,0.54,0.46,0.25,0.46,0.55,0.36,0.52,0.52,0.52,0.5,0.36,0.3,0.55,0.3,0.53,0.42,0.55,0.42,0.47,0.26,0.36,0.3,0.42,0.54,0.42,0.42,0.55,0.5,0.29" style="fill:rgb(0,0,0);font-family:AdvTT78ea841c;font-size:9.5px;stroke:none;">mains. Therefore, the above results strongly support the existence of</text>
   <text y="428.429" x="35.887,38.651,42.603,46.061,49.519,54.269,58.221,60.596,64.548,68.5,71.369,74.827,77.297,81.249,83.719,86.588,90.958,93.541,96.011,101.14099999999999,103.746,107.204,111.156,118.87,121.34,129.054,133.006,135.875,140.027,142.402,144.777,147.247,151.23700000000002,153.803,162.999,168.832" svgx:width="0.29,0.42,0.36,0.36,0.5,0.42,0.25,0.42,0.42,0.3,0.36,0.26,0.42,0.26,0.3,0.46,0.55,0.26,0.54,0.55,0.36,0.42,0.81,0.26,0.81,0.42,0.3,0.44,0.25,0.25,0.26,0.42,0.55,0.97,0.61,0.42" style="fill:rgb(0,0,0);font-family:AdvTT78ea841c;font-size:9.5px;stroke:none;">ferroelectricity in semimetallic WTe</text>
   <text y="429.959" x="172.8" svgx:width="0.48" style="fill:rgb(0,0,0);font-family:AdvTT78ea841c;font-size:6.33px;stroke:none;">2</text>
   <text y="428.428" x="178.753,182.904,185.754,188.39,191.848,196.598,201.348,209.043,211.634,214.503,218.455,226.169,231.109,235.061,238.519,242.671,245.54,250.48,253.938,257.89" svgx:width="0.44,0.3,0.55,0.36,0.5,0.5,0.81,0.55,0.3,0.42,0.81,0.52,0.42,0.36,0.44,0.3,0.52,0.36,0.42,0.22" style="fill:rgb(0,0,0);font-family:AdvTT78ea841c;font-size:9.5px;stroke:none;">at room temperature.</text>
   <text y="439.371" x="47.849,54.255,59.395,63.949,66.818,71.716,75.668,79.08800000000001,80.787,84.938,88.213,93.153,96.943,100.895,103.74499999999999,105.447,108.316,113.214,117.239,120.089,121.888,126.828,130.618,133.963,137.915,141.219,145.57,149.326,152.74599999999998,154.599,162.196,166.148,171.154,173.874,176.344,180.96,186.09,187.877,192.81,196.762,200.066,204.056,205.792,208.262,211.682,213.445,216.166,221.21,225.20000000000002,226.881,230.339,233.003,237.155,241.734,244.204,246.382,248.852,251.541,255.911,257.72,262.47,265.225,266.904,276.1,281.757" svgx:width="0.69,0.54,0.5,0.3,0.53,0.42,0.36,0.55,0.44,0.36,0.52,0.42,0.42,0.3,0.55,0.3,0.53,0.44,0.3,0.55,0.52,0.42,0.36,0.42,0.36,0.46,0.42,0.36,0.55,0.81,0.42,0.54,0.3,0.26,0.5,0.54,0.55,0.53,0.42,0.36,0.42,0.55,0.26,0.36,0.55,0.3,0.53,0.42,0.55,0.36,0.3,0.44,0.5,0.26,0.25,0.26,0.3,0.46,0.55,0.5,0.29,0.55,0.97,0.61,0.42" style="fill:rgb(0,0,0);font-family:AdvTT78ea841c;font-size:9.5px;stroke:none;">Another aspect that deserves mention here is the stability of WTe</text>
   <text y="440.958" x="285.619" svgx:width="0.48" style="fill:rgb(0,0,0);font-family:AdvTT78ea841c;font-size:6.33px;stroke:none;">2</text>
   <text y="439.37" x="288.964" svgx:width="0.22" style="fill:rgb(0,0,0);font-family:AdvTT78ea841c;font-size:9.5px;stroke:none;">.</text>
   <text y="450.312" x="35.888,39.051,41.901,44.505,46.975,50.395,53.008,59.44,63.392,65.767,68.142,70.753,75.398,80.538,85.288,91.719,96.84899999999999,99.495,102.364,107.408,111.56,114.41,117.013,119.882,124.926,128.916,131.469,134.927,139.867,143.325,146.089,150.241,154.193,158.18300000000002,160.778,165.528,168.283,170.926,180.122,185.955" svgx:width="0.33,0.3,0.55,0.26,0.36,0.55,0.68,0.42,0.25,0.25,0.55,0.49,0.54,0.5,0.68,0.54,0.55,0.3,0.53,0.44,0.3,0.55,0.3,0.53,0.42,0.55,0.36,0.52,0.36,0.29,0.44,0.42,0.42,0.55,0.5,0.29,0.55,0.97,0.61,0.42" style="fill:rgb(0,0,0);font-family:AdvTT78ea841c;font-size:9.5px;stroke:none;">It is well known that the surface of WTe</text>
   <text y="451.899" x="189.921" svgx:width="0.48" style="fill:rgb(0,0,0);font-family:AdvTT78ea841c;font-size:6.33px;stroke:none;">2</text>
   <text y="450.312" x="195.931,198.401,201.821,204.491,209.336,214.276,216.746,219.615,223.60500000000002,226.147,229.605,233.557,238.697,242.155,244.625,247.494,249.964,254.315,258.305,260.898,265.05,270.189,275.129,277.736,281.688,285.84" svgx:width="0.26,0.36,0.55,0.51,0.52,0.26,0.3,0.42,0.55,0.36,0.42,0.54,0.36,0.26,0.3,0.26,0.46,0.42,0.55,0.44,0.54,0.52,0.55,0.42,0.44,0.54" style="fill:rgb(0,0,0);font-family:AdvTT78ea841c;font-size:9.5px;stroke:none;">is quite sensitive and can</text>
   <text y="461.254" x="35.887,40.641,45.594,50.348,54.114,57.386,61.55,66.3,68.75,73.343,77.602,79.886,84.64,88.605,91.288,93.572,98.136,103.26599999999999,105.789,108.073,113.20299999999999,115.726,119.691,121.975,125.247,127.337,129.782,134.935,138.207,141.973,146.137,148.421,152.985,157.69,161.10999999999999,163.643,169.888,174.452,177.724,182.183,185.60299999999998,188.136" svgx:width="0.52,0.54,0.52,0.42,0.36,0.46,0.5,0.55,0.5,0.47,0.26,0.52,0.44,0.3,0.26,0.5,0.54,0.55,0.26,0.54,0.55,0.44,0.26,0.36,0.22,0.55,0.56,0.36,0.42,0.46,0.26,0.5,0.52,0.36,0.55,0.68,0.5,0.36,0.49,0.36,0.55,0.34" style="fill:rgb(0,0,0);font-family:AdvTT78ea841c;font-size:9.5px;stroke:none;">undergo oxidation in air. Previous works (</text>
   <text y="461.254" x="191.281,195.534" svgx:width="0.47,0.47" style="fill:rgb(0,0,0);font-family:AdvTT5a3b6cb0.I;font-size:9.5px;stroke:none;">33</text>
   <text y="461.254" x="199.785" svgx:width="0.51" style="fill:rgb(0,0,0);font-family:AdvTT78ea841c;font-size:9.5px;stroke:none;">–</text>
   <text y="461.254" x="204.433,208.685" svgx:width="0.47,0.47" style="fill:rgb(0,0,0);font-family:AdvTT5a3b6cb0.I;font-size:9.5px;stroke:none;">36</text>
   <text y="461.254" x="212.994,216.224,218.719,223.595,227.589,231.728,235.71800000000002,238.191,240.458,245.441,249.579,253.374,256.606,259.319,261.586,265.724,269.693,272.405,276.147,281.087,283.574,285.899" svgx:width="0.34,0.55,0.53,0.44,0.46,0.42,0.55,0.26,0.54,0.46,0.42,0.36,0.3,0.26,0.46,0.44,0.3,0.42,0.52,0.55,0.26,0.54" style="fill:rgb(0,0,0);font-family:AdvTT78ea841c;font-size:9.5px;stroke:none;">) have investigated in</text>
   <text y="472.252" x="35.885,40.825,44.777,47.646,51.798,54.268,56.643,58.278,61.147,66.191,70.181,71.826,76.767,81.811,86.162,89.62,92.09,96.042,100.194,102.569,104.254,108.405,113.545,118.485,120.127,124.079,129.124,133.076,140.79,143.26,147.212,151.363,153.738,155.446,160.386,163.844,168.594,173.534,177.486,180.943,183.813,186.283,190.234,193.654,195.356,200.106,202.861,204.54,207.409,212.453,214.923,218.343,220.016,223.474,228.414,231.872,234.637,238.788,242.74,246.73000000000002,248.418,253.168,257.614,260.084,265.024,269.014,270.641,275.581,279.039,281.509,286.648" svgx:width="0.52,0.42,0.3,0.44,0.26,0.25,0.55,0.3,0.53,0.42,0.55,0.52,0.53,0.46,0.36,0.26,0.42,0.44,0.25,0.55,0.44,0.54,0.52,0.55,0.42,0.53,0.42,0.81,0.26,0.42,0.44,0.25,0.55,0.52,0.36,0.5,0.52,0.42,0.36,0.3,0.26,0.42,0.36,0.55,0.5,0.29,0.55,0.3,0.53,0.26,0.36,0.55,0.36,0.52,0.36,0.29,0.44,0.42,0.42,0.55,0.5,0.47,0.26,0.52,0.42,0.55,0.52,0.36,0.26,0.54,0.46" style="fill:rgb(0,0,0);font-family:AdvTT78ea841c;font-size:9.5px;stroke:none;">detail the physical and chemical properties of this surface oxide using</text>
   <text y="483.194" x="35.885,40.065,42.065,45.523,49.508,54.441,58.625,62.615,64.408,68.943,71.698,73.536,76.238,79.98,83.766,88.584,93.558,95.825,100.504,105.278,109.064,112.484,114.336,116.604,121.593,125.335,127.546,132.32,137.093,139.361,144.293,148.663,150.529,156.142,160.11,167.658,171.643,176.773,178.616,181.904,186.678,190.42,194.205,196.87,200.162,204.697,207.989,211.731,216.315,221.089,225.227,227.317,229.139,232.925,237.857,241.643,244.875,249.059,253.429,255.239,260.013,262.281,265.572,270.346,274.088,277.38,280.672,282.939,287.077" svgx:width="0.44,0.55,0.36,0.44,0.54,0.46,0.42,0.55,0.5,0.29,0.55,0.3,0.42,0.42,0.53,0.54,0.26,0.51,0.52,0.42,0.36,0.55,0.26,0.54,0.42,0.25,0.52,0.52,0.26,0.54,0.46,0.55,0.61,0.44,0.81,0.44,0.54,0.55,0.36,0.52,0.42,0.42,0.3,0.36,0.5,0.36,0.42,0.5,0.52,0.46,0.22,0.55,0.42,0.54,0.42,0.36,0.46,0.46,0.55,0.52,0.26,0.36,0.52,0.42,0.36,0.36,0.26,0.46,0.42" style="fill:rgb(0,0,0);font-family:AdvTT78ea841c;font-size:9.5px;stroke:none;">a range of techniques including Raman spectroscopy, energy dispersive</text>
   <text y="494.136" x="35.885,40.331,43.481,46.939,50.907,55.276999999999994,57.143,60.488,65.428,69.219,73.171,75.852,79.31,83.902,87.247,91.199,95.75,100.69,104.878,106.968,108.846,112.798,116.046,120.796,124.096,127.441,130.804,134.074,138.026,141.785,144.654,146.943,151.693,156.694,160.719,163.094,164.971,167.84,171.094,175.245,180.221,183.566,191.28,193.6,196.945,200.403,202.728,207.478,212.608,214.349,218.301,220.529,224.481,228.239,231.108,234.362,239.112,244.242,246.04,253.754,256.074,260.026,263.274,268.024,271.325,275.277,279.828,284.768,288.956" svgx:width="0.47,0.35,0.36,0.44,0.46,0.55,0.36,0.52,0.42,0.42,0.3,0.36,0.5,0.36,0.42,0.5,0.52,0.46,0.22,0.55,0.42,0.36,0.5,0.36,0.36,0.35,0.36,0.42,0.42,0.3,0.26,0.5,0.54,0.44,0.25,0.55,0.3,0.36,0.44,0.54,0.36,0.81,0.26,0.36,0.36,0.26,0.5,0.54,0.55,0.42,0.25,0.42,0.42,0.3,0.36,0.5,0.54,0.55,0.81,0.26,0.42,0.36,0.5,0.36,0.42,0.5,0.52,0.46,0.22" style="fill:rgb(0,0,0);font-family:AdvTT78ea841c;font-size:9.5px;stroke:none;">x-ray spectroscopy, cross-sectional transmission electron microscopy,</text>
   <text y="505.135" x="35.885,40.331,43.481,46.939,50.907,55.276999999999994,56.86,61.68,66.612,71.362,74.095,78.845,82.599,84.974,88.721,92.673,95.354,98.812,103.405,108.535,110.094,113.439,118.379,122.17,126.122,128.803,132.261,136.853,140.198,144.15,148.701,153.641,157.829,159.919,161.457,165.609,170.585,175.525,177.105,181.057,183.227,187.179,190.937,193.806,197.117,199.587,203.353,207.505,209.88,211.346,214.215,217.469,221.621,226.597,229.942,234.882,239.465,242.923,245.773,247.289,250.634,253.503,258.287,263.106,265.576,269.342,272.8,274.89,276.372,282.205,287.087" svgx:width="0.47,0.35,0.36,0.44,0.46,0.55,0.52,0.53,0.5,0.3,0.5,0.42,0.25,0.42,0.42,0.3,0.36,0.5,0.54,0.55,0.36,0.52,0.42,0.42,0.3,0.36,0.5,0.36,0.42,0.5,0.52,0.46,0.22,0.55,0.44,0.54,0.52,0.55,0.42,0.25,0.42,0.42,0.3,0.36,0.26,0.42,0.44,0.25,0.55,0.3,0.36,0.44,0.54,0.36,0.52,0.5,0.36,0.3,0.55,0.36,0.3,0.52,0.52,0.26,0.42,0.36,0.22,0.55,0.61,0.53,0.42" style="fill:rgb(0,0,0);font-family:AdvTT78ea841c;font-size:9.5px;stroke:none;">x-ray photoelectron spectroscopy, and electrical transport studies. The</text>
   <text y="516.077" x="35.885,39.343,44.283,47.741,50.398,54.55,58.502,62.492000000000004,65.365,70.115,74.561,77.031,81.861,85.851,88.778,91.543,96.293,99.751,107.465,110.885,113.722,116.591,121.636,125.094,129.844,134.784,139.007,144.042,147.0,150.952,155.303,160.053,162.428,167.239,170.108,172.578,177.328,182.458,185.323,190.073,192.828,195.754,204.943,206.758,211.576,218.606,221.554,224.813,234.009" svgx:width="0.36,0.52,0.36,0.29,0.44,0.42,0.42,0.55,0.5,0.47,0.26,0.52,0.42,0.55,0.29,0.5,0.36,0.81,0.36,0.55,0.3,0.53,0.36,0.5,0.52,0.46,0.53,0.55,0.42,0.46,0.5,0.25,0.52,0.3,0.26,0.5,0.54,0.55,0.5,0.29,0.55,0.97,0.51,0.51,0.74,0.55,0.34,0.97,0.74" style="fill:rgb(0,0,0);font-family:AdvTT78ea841c;font-size:9.5px;stroke:none;">surface oxide forms through evolution of W––O (WO</text>
   <text y="517.663" x="240.945" svgx:width="0.47" style="fill:rgb(0,0,0);font-family:AdvTT78ea841c;font-size:6.33px;stroke:none;">x</text>
   <text y="516.076" x="244.29,247.51999999999998,250.469,254.621,259.76,264.7,267.59,273.423,277.341,279.156,283.975" svgx:width="0.34,0.55,0.44,0.54,0.52,0.55,0.61,0.42,0.51,0.51,0.74" style="fill:rgb(0,0,0);font-family:AdvTT78ea841c;font-size:9.5px;stroke:none;">) and Te––O</text>
   <text y="527.018" x="35.887,39.146,45.071,49.096" svgx:width="0.34,0.61,0.42,0.74" style="fill:rgb(0,0,0);font-family:AdvTT78ea841c;font-size:9.5px;stroke:none;">(TeO</text>
   <text y="528.605" x="56.126" svgx:width="0.48" style="fill:rgb(0,0,0);font-family:AdvTT78ea841c;font-size:6.33px;stroke:none;">2</text>
   <text y="527.017" x="59.641,62.870999999999995,65.821,69.279,73.361,77.386,82.136,87.364,92.304,96.547,100.005,104.375,107.376,112.195,117.013,122.153,127.218,130.638,133.624,137.776,140.626,143.659,146.528,151.652,155.642,158.569,162.027,167.13,170.588,173.422,177.574,181.643,185.633,188.56,193.378,196.13299999999998,199.104,208.3,214.24" svgx:width="0.34,0.55,0.36,0.42,0.42,0.5,0.54,0.52,0.44,0.36,0.46,0.55,0.5,0.5,0.54,0.52,0.36,0.55,0.44,0.3,0.55,0.3,0.53,0.42,0.55,0.36,0.52,0.36,0.29,0.44,0.42,0.42,0.55,0.5,0.29,0.55,0.97,0.61,0.42" style="fill:rgb(0,0,0);font-family:AdvTT78ea841c;font-size:9.5px;stroke:none;">) secondary bonds at the surface of WTe</text>
   <text y="528.605" x="218.268" svgx:width="0.48" style="fill:rgb(0,0,0);font-family:AdvTT78ea841c;font-size:6.33px;stroke:none;">2</text>
   <text y="527.017" x="224.617,227.168,232.298,235.275,239.427,242.021,245.479,247.56900000000002,250.525,256.42,261.465,265.455,268.439,277.635,283.575" svgx:width="0.26,0.54,0.55,0.44,0.26,0.36,0.22,0.55,0.61,0.53,0.42,0.55,0.97,0.61,0.42" style="fill:rgb(0,0,0);font-family:AdvTT78ea841c;font-size:9.5px;stroke:none;">in air. The WTe</text>
   <text y="528.605" x="287.603" svgx:width="0.48" style="fill:rgb(0,0,0);font-family:AdvTT78ea841c;font-size:6.33px;stroke:none;">2</text>
   <text y="538.016" x="35.887,40.637,45.083,47.553,52.493,56.644,59.513,61.983,66.733,71.863,73.983,76.453,79.873,81.976,86.156,88.212,91.67,95.622,97.997,100.761,104.124,106.499,108.969,116.683,119.153,122.022,124.492,129.632,134.002,136.115,141.055,144.513,149.263,153.215,157.167,160.625,164.045,166.218" svgx:width="0.5,0.47,0.26,0.52,0.44,0.3,0.26,0.5,0.54,0.55,0.26,0.36,0.55,0.44,0.55,0.36,0.42,0.25,0.29,0.35,0.25,0.26,0.81,0.26,0.3,0.26,0.54,0.46,0.55,0.52,0.36,0.5,0.42,0.42,0.36,0.36,0.55,0.34" style="fill:rgb(0,0,0);font-family:AdvTT78ea841c;font-size:9.5px;stroke:none;">oxidation is a self-limiting process (</text>
   <text y="538.016" x="169.455,173.901" svgx:width="0.47,0.47" style="fill:rgb(0,0,0);font-family:AdvTT5a3b6cb0.I;font-size:9.5px;stroke:none;">35</text>
   <text y="538.016" x="178.412,181.642,183.742,187.893,193.033,197.97299999999998,200.068,203.526,207.478,210.936,215.876,218.251,221.12,224.54,226.713,229.183,234.313,236.408,240.559,245.689,247.803,251.955,259.669,264.419,267.877,272.817,277.861,282.611,287.551" svgx:width="0.34,0.55,0.44,0.54,0.52,0.55,0.36,0.42,0.36,0.52,0.25,0.3,0.36,0.55,0.26,0.54,0.55,0.44,0.54,0.55,0.44,0.81,0.5,0.36,0.52,0.53,0.5,0.52,0.36" style="fill:rgb(0,0,0);font-family:AdvTT78ea841c;font-size:9.5px;stroke:none;">) and results in an amorphous</text>
   <text y="548.958" x="35.887,39.345,44.285,47.743,50.507,54.659,58.611,62.601,64.232,68.982,73.428,75.898,80.838,84.82799999999999,86.511,88.886,93.038,97.389,101.341,104.799,106.88900000000001,108.563,114.995,120.039,122.509,126.462,131.497,133.168,135.638,139.058,140.765,144.916,149.666,154.416,159.356,162.206,163.951,168.511,170.131,175.271,184.701,187.57,192.615,195.085,199.037,203.692,205.337" svgx:width="0.36,0.52,0.36,0.29,0.44,0.42,0.42,0.55,0.5,0.47,0.26,0.52,0.42,0.55,0.25,0.44,0.46,0.42,0.36,0.22,0.55,0.68,0.53,0.26,0.42,0.53,0.55,0.26,0.36,0.55,0.44,0.5,0.5,0.52,0.3,0.55,0.48,0.55,0.54,0.81,0.3,0.53,0.26,0.42,0.49,0.55,0.34" style="fill:rgb(0,0,0);font-family:AdvTT78ea841c;font-size:9.5px;stroke:none;">surface oxide layer, which is about 2 nmthick (</text>
   <text y="548.958" x="208.629,213.075" svgx:width="0.47,0.47" style="fill:rgb(0,0,0);font-family:AdvTT5a3b6cb0.I;font-size:9.5px;stroke:none;">34</text>
   <text y="548.958" x="217.529,220.788,222.87800000000001,224.559,230.392,235.142,236.805,239.275,244.414,249.354,253.306,258.246,262.198,267.338,272.278,276.23,281.369,284.238,286.613" svgx:width="0.34,0.22,0.55,0.61,0.5,0.55,0.26,0.54,0.52,0.42,0.52,0.42,0.54,0.52,0.42,0.54,0.3,0.25,0.46" style="fill:rgb(0,0,0);font-family:AdvTT78ea841c;font-size:9.5px;stroke:none;">). To independently</text>
   <text y="559.9" x="35.886,40.826,44.778,47.647,51.599,55.057,62.771,65.241,70.38,74.36999999999999,76.759,79.628,82.098,89.812,93.764,97.127,102.067,106.019,110.959,114.911,120.051,124.991,128.943,134.082,136.932,139.459,142.328,147.373,149.843,153.795,158.44,163.58,167.532,170.99,174.41,176.932,180.884,185.235,189.985,192.36,197.3,200.169,202.639,207.389,212.519,214.972,219.722,222.477,224.893,227.762,232.806,236.79600000000002,239.236,242.694,247.634,251.092,253.856,258.008,261.96,265.95,268.375,273.125,277.571,280.041,284.981,288.933" svgx:width="0.52,0.42,0.3,0.42,0.36,0.81,0.26,0.54,0.42,0.55,0.3,0.26,0.81,0.42,0.35,0.52,0.42,0.52,0.42,0.54,0.52,0.42,0.54,0.3,0.55,0.3,0.53,0.26,0.42,0.49,0.54,0.42,0.36,0.36,0.55,0.42,0.46,0.5,0.25,0.52,0.3,0.26,0.5,0.54,0.55,0.5,0.29,0.55,0.3,0.53,0.42,0.55,0.36,0.52,0.36,0.29,0.44,0.42,0.42,0.55,0.5,0.47,0.26,0.52,0.42,0.22" style="fill:rgb(0,0,0);font-family:AdvTT78ea841c;font-size:9.5px;stroke:none;">determine time-dependent thickness evolution of the surface oxide,</text>
   <text y="570.842" x="35.886,42.137,46.127,48.542,53.302,57.073,60.351,62.935,67.504,70.782,78.265,82.063,87.003,89.433,93.231,95.386,97.597,99.886,104.646,107.923,112.493,120.026,123.798,126.486,129.718,134.088,136.521,144.061,147.833,151.804,155.036,159.798,163.075,166.846,174.358,178.156,183.093,185.76,189.17999999999998,191.712,194.774,198.062,201.804,205.794,208.21,211.498,215.248,219.046,221.712,223.98,228.572,233.702,236.169,240.413,244.973,247.386,251.335,256.325,261.265,263.695,266.302,268.57,272.719,274.80899999999997,277.254,281.506,285.854,288.972" svgx:width="0.68,0.42,0.55,0.52,0.42,0.36,0.29,0.5,0.36,0.81,0.42,0.52,0.55,0.42,0.25,0.25,0.26,0.52,0.36,0.5,0.81,0.42,0.3,0.36,0.46,0.55,0.81,0.42,0.44,0.36,0.52,0.36,0.42,0.81,0.42,0.54,0.3,0.36,0.55,0.34,0.36,0.42,0.42,0.55,0.36,0.42,0.42,0.3,0.26,0.5,0.54,0.55,0.47,0.48,0.55,0.44,0.54,0.52,0.55,0.29,0.26,0.46,0.22,0.55,0.47,0.48,0.34,0.22" style="fill:rgb(0,0,0);font-family:AdvTT78ea841c;font-size:9.5px;stroke:none;">we performed ellipsometry measurements (see section S2 and fig. S2).</text>
   <text y="581.84" x="35.886,40.826,44.284,49.034,58.902,63.652,68.592,72.012,74.266,81.98,85.932,90.083,93.541,98.481,101.939,105.891,113.605,117.557,122.697,125.566,129.024,131.114,133.338,139.769,143.75900000000001,145.923,148.688,151.158,156.297,161.237,163.441,166.31,171.355,175.506,178.356,180.562,183.431,188.476,192.466,194.621,197.49,202.535,205.005,208.957,213.602,218.742,222.694,226.152,229.57199999999997,231.81,236.56,239.315,241.505,244.963,249.903,253.361,256.125,260.277,264.229,268.219,270.417,275.167,279.613,282.083,287.023" svgx:width="0.52,0.36,0.5,0.81,0.5,0.52,0.36,0.55,0.81,0.42,0.44,0.36,0.52,0.36,0.42,0.81,0.42,0.54,0.3,0.36,0.22,0.55,0.68,0.42,0.55,0.29,0.26,0.54,0.52,0.55,0.3,0.53,0.44,0.3,0.55,0.3,0.53,0.42,0.55,0.3,0.53,0.26,0.42,0.49,0.54,0.42,0.36,0.36,0.55,0.5,0.29,0.55,0.36,0.52,0.36,0.29,0.44,0.42,0.42,0.55,0.5,0.47,0.26,0.52,0.42" style="fill:rgb(0,0,0);font-family:AdvTT78ea841c;font-size:9.5px;stroke:none;">Fromour measurements, we find that the thickness of surface oxide</text>
   <text y="592.782" x="35.886,39.344,43.495,46.364,51.304,54.762,58.914,61.783,65.735,69.155,70.864,75.015,77.865,79.537,83.689,88.439,93.189,98.129,100.979,102.611,107.161,109.232,113.792,115.423,120.563,129.937,134.088,136.853,139.722,143.674,147.094,148.815,152.273,156.225,160.576,164.528,167.986,172.137,174.512,176.14,181.184,185.934,190.874,194.332,197.75199999999998,199.496,204.246,207.001,208.624,212.776,215.645,223.359,228.109,231.567,236.507,241.551,245.503,248.961,251.431,255.42100000000002,257.095,261.047,265.493,270.433,275.183,278.641,283.581,287.039" svgx:width="0.36,0.44,0.3,0.52,0.36,0.44,0.3,0.42,0.36,0.55,0.44,0.3,0.55,0.44,0.5,0.5,0.52,0.3,0.55,0.48,0.22,0.48,0.55,0.54,0.81,0.44,0.29,0.3,0.42,0.36,0.55,0.36,0.42,0.46,0.42,0.36,0.44,0.25,0.55,0.53,0.5,0.52,0.36,0.36,0.55,0.5,0.29,0.55,0.44,0.3,0.81,0.5,0.36,0.52,0.53,0.42,0.36,0.26,0.42,0.55,0.42,0.47,0.52,0.5,0.36,0.52,0.36,0.42" style="fill:rgb(0,0,0);font-family:AdvTT78ea841c;font-size:9.5px;stroke:none;">saturates at about 2.5 nmafter several hours of atmospheric exposure</text>
   <text y="603.724" x="35.886,38.96,41.54,43.826,47.992,50.081999999999994,51.961,56.213,60.579,63.653,65.743,67.621,73.291,78.151,81.919,85.193,89.18299999999999,91.032,94.264,98.062,101.336,106.092,108.246,110.911,114.331,116.296,118.961,123.821,128.577,131.99699999999999,133.907,137.875,141.148,145.138,146.988,150.756,155.322,160.277,163.55,165.836,169.114,171.796,175.562,180.516,183.36599999999999,185.278,191.523,193.807,196.49,201.525,203.407,207.173,211.138,214.41,216.564,218.848,222.614,226.034,227.943,232.697,237.451,242.015,244.204,246.487,249.759,254.617,258.383,263.323,265.243,268.475,272.273,277.027,281.591,284.863,287.545" svgx:width="0.34,0.29,0.26,0.46,0.22,0.55,0.47,0.48,0.34,0.22,0.55,0.61,0.53,0.42,0.36,0.42,0.55,0.36,0.42,0.36,0.52,0.25,0.3,0.36,0.55,0.3,0.53,0.52,0.36,0.55,0.44,0.36,0.42,0.55,0.42,0.5,0.54,0.36,0.26,0.36,0.3,0.42,0.54,0.3,0.55,0.68,0.26,0.3,0.53,0.55,0.42,0.44,0.36,0.25,0.26,0.42,0.36,0.55,0.52,0.52,0.5,0.25,0.26,0.36,0.53,0.42,0.52,0.55,0.36,0.42,0.52,0.5,0.36,0.3,0.36" style="fill:rgb(0,0,0);font-family:AdvTT78ea841c;font-size:9.5px;stroke:none;">(fig. S2). These results thus are consistent with earlier published reports</text>
   <text y="614.723" x="35.886" svgx:width="0.34" style="fill:rgb(0,0,0);font-family:AdvTT78ea841c;font-size:9.5px;stroke:none;">(</text>
   <text y="614.723" x="38.947,43.2" svgx:width="0.47,0.47" style="fill:rgb(0,0,0);font-family:AdvTT5a3b6cb0.I;font-size:9.5px;stroke:none;">34</text>
   <text y="614.723" x="47.451,50.53,52.620000000000005,54.725,60.379,65.198,69.18799999999999,71.321,75.119,79.385,84.146,88.716,91.995,96.755,100.033,104.023,106.099,108.764,111.054,118.589,122.579,124.655,127.262,131.833,135.253,137.445,140.724,145.484,148.763,151.348,155.32,159.092,163.08200000000002,165.158,169.75,174.017,176.307,181.067,185.05700000000002,187.19,189.775,194.346,197.624,205.107,209.079,211.769,214.059,218.63,223.76,225.943,229.231,233.203,238.162,242.334,246.106,249.52599999999998,251.719,254.27,257.548,262.119,271.983,276.163,278.276,280.861,284.634" svgx:width="0.34,0.22,0.55,0.61,0.53,0.42,0.55,0.42,0.47,0.52,0.5,0.36,0.52,0.36,0.42,0.55,0.3,0.26,0.81,0.42,0.55,0.29,0.5,0.36,0.55,0.36,0.52,0.36,0.29,0.44,0.42,0.42,0.55,0.5,0.47,0.26,0.52,0.42,0.55,0.29,0.5,0.36,0.81,0.44,0.3,0.26,0.5,0.54,0.55,0.36,0.44,0.54,0.46,0.42,0.36,0.55,0.29,0.36,0.5,0.81,0.44,0.55,0.29,0.42,0.68" style="fill:rgb(0,0,0);font-family:AdvTT78ea841c;font-size:9.5px;stroke:none;">). The exposure time for surface oxide formation ranges froma few</text>
   <text y="625.665" x="35.886,40.725,45.317,50.08,53.311,56.731,58.697,61.362,66.112,67.995,72.757,76.703,80.899,84.319,86.228" svgx:width="0.53,0.5,0.52,0.36,0.36,0.55,0.3,0.5,0.55,0.52,0.44,0.46,0.36,0.55,0.34" style="fill:rgb(0,0,0);font-family:AdvTT78ea841c;font-size:9.5px;stroke:none;">hours to days (</text>
   <text y="625.665" x="89.29,93.542" svgx:width="0.47,0.47" style="fill:rgb(0,0,0);font-family:AdvTT5a3b6cb0.I;font-size:9.5px;stroke:none;">37</text>
   <text y="625.665" x="97.85,100.93,103.02000000000001,104.898,110.553,115.372,119.362,121.212,125.804,130.566,132.72,137.375,139.296,143.038,146.317,150.49,153.769,156.46,160.433,162.629,166.04899999999998,167.958,171.927,176.888,181.828,183.69,186.97,190.743,192.94,196.913,199.603,201.894,206.067,209.84,212.037,216.407,218.272,220.963,225.829,228.12,231.893,236.548,238.413,247.428,253.082" svgx:width="0.34,0.22,0.55,0.61,0.53,0.42,0.55,0.5,0.52,0.25,0.49,0.55,0.42,0.36,0.46,0.36,0.3,0.44,0.25,0.36,0.55,0.44,0.54,0.52,0.55,0.36,0.42,0.25,0.44,0.3,0.26,0.46,0.42,0.25,0.46,0.55,0.3,0.53,0.26,0.42,0.49,0.55,0.97,0.61,0.42" style="fill:rgb(0,0,0);font-family:AdvTT78ea841c;font-size:9.5px;stroke:none;">). The bulk crystals and relatively thick WTe</text>
   <text y="627.25" x="256.762" svgx:width="0.48" style="fill:rgb(0,0,0);font-family:AdvTT78ea841c;font-size:6.33px;stroke:none;">2</text>
   <text y="625.663" x="262.091,265.372,269.284,276.82,281.582,283.78,287.554" svgx:width="0.36,0.44,0.81,0.52,0.25,0.42,0.36" style="fill:rgb(0,0,0);font-family:AdvTT78ea841c;font-size:9.5px;stroke:none;">samples</text>
   <text y="636.605" x="35.888,39.872,43.104,47.094,49.567,57.107,61.69,64.922,68.91199999999999,71.441,74.673,77.375,81.359,85.895,88.105,92.095,94.568,96.836,101.966,104.489,108.457,110.725,114.145,116.735,120.477,125.069,132.552,137.314,141.299,144.589,148.374,153.314,155.801,158.466,163.216,165.779,169.011,172.979,180.526,185.299,187.507,191.249,194.66899999999998,197.201,203.494,205.762,208.427,213.462,215.967,218.177,222.95,226.241,229.091,231.627,234.177,237.962,244.422,246.863,249.07,253.055,257.193,260.991,264.282,267.514,269.604,272.106,275.904,279.195,283.9,287.685" svgx:width="0.44,0.36,0.42,0.55,0.81,0.5,0.36,0.42,0.55,0.36,0.3,0.44,0.5,0.25,0.42,0.55,0.26,0.54,0.55,0.44,0.26,0.36,0.55,0.42,0.5,0.81,0.52,0.44,0.36,0.42,0.52,0.55,0.3,0.5,0.55,0.36,0.44,0.81,0.52,0.25,0.42,0.36,0.55,0.68,0.26,0.3,0.53,0.55,0.25,0.52,0.36,0.3,0.55,0.29,0.42,0.68,0.55,0.25,0.44,0.46,0.42,0.36,0.36,0.22,0.55,0.42,0.36,0.52,0.42,0.35" style="fill:rgb(0,0,0);font-family:AdvTT78ea841c;font-size:9.5px;stroke:none;">are more stable in air compared to samples with just few layers, espe-</text>
   <text y="647.603" x="35.888,39.63,41.897,45.885,48.097,50.252,54.622,56.374,63.925,68.46,73.436,77.972,80.183,84.171,88.31,92.108,95.528,97.267,101.235,106.211,111.151,112.901,117.437,119.761,121.916,125.884,130.072,133.814,137.23399999999998,139.029,148.044,153.713" svgx:width="0.42,0.26,0.44,0.25,0.25,0.46,0.55,0.81,0.5,0.54,0.5,0.25,0.44,0.46,0.42,0.36,0.55,0.44,0.54,0.52,0.55,0.5,0.26,0.25,0.44,0.46,0.42,0.36,0.55,0.97,0.61,0.42" style="fill:rgb(0,0,0);font-family:AdvTT78ea841c;font-size:9.5px;stroke:none;">cially monolayer and bilayer WTe</text>
   <text y="649.191" x="157.436" svgx:width="0.48" style="fill:rgb(0,0,0);font-family:AdvTT78ea841c;font-size:6.33px;stroke:none;">2</text>
   <text y="647.603" x="162.595" svgx:width="0.34" style="fill:rgb(0,0,0);font-family:AdvTT78ea841c;font-size:9.5px;stroke:none;">(</text>
   <text y="647.603" x="165.657,169.909" svgx:width="0.47,0.47" style="fill:rgb(0,0,0);font-family:AdvTT5a3b6cb0.I;font-size:9.5px;stroke:none;">35</text>
   <text y="647.603" x="174.217" svgx:width="0.22" style="fill:rgb(0,0,0);font-family:AdvTT78ea841c;font-size:9.5px;stroke:none;">,</text>
   <text y="647.603" x="178.016,182.268" svgx:width="0.47,0.47" style="fill:rgb(0,0,0);font-family:AdvTT5a3b6cb0.I;font-size:9.5px;stroke:none;">36</text>
   <text y="647.603" x="186.576,189.626,191.716,193.425,201.624,206.216,209.466,213.264,217.806,222.002,225.745,229.033,231.123,232.832,235.552,240.389,244.187,247.475,251.465,253.144,255.406,258.826,260.622,265.611,270.361,272.074,276.837,281.429,283.596,287.539" svgx:width="0.34,0.22,0.55,0.88,0.5,0.36,0.42,0.5,0.46,0.42,0.36,0.22,0.55,0.3,0.53,0.42,0.36,0.42,0.55,0.26,0.36,0.55,0.54,0.5,0.55,0.52,0.5,0.25,0.44,0.36" style="fill:rgb(0,0,0);font-family:AdvTT78ea841c;font-size:9.5px;stroke:none;">). Moreover, there is no polar</text>
   <text y="658.545" x="35.887,39.158,43.911,47.875,51.64,55.63,57.139,61.335,64.606,69.168,73.921,78.861,80.441,82.724,87.854,89.471,93.435,100.962,105.525,108.796,113.549,118.406,122.969,127.722,131.142,132.711,140.251,144.216,146.897,150.662,153.933,156.216,160.18,162.368,165.639,167.729,169.324,173.31,178.267,183.207,184.787,187.369,191.139,194.415,197.69,202.258,206.027,208.182,211.952,215.721,218.408,221.683,223.971,227.741,230.028,232.715,237.085,238.667,242.409,246.379,251.336,256.293,260.86,263.71000000000004,265.283,269.251,272.526,274.814,278.09,282.08,283.589,287.558" svgx:width="0.36,0.52,0.44,0.42,0.42,0.55,0.46,0.36,0.5,0.52,0.52,0.55,0.26,0.54,0.55,0.44,0.81,0.5,0.36,0.52,0.53,0.5,0.52,0.36,0.55,0.81,0.44,0.3,0.42,0.36,0.26,0.44,0.25,0.36,0.22,0.55,0.44,0.54,0.52,0.55,0.29,0.42,0.36,0.36,0.5,0.42,0.25,0.42,0.42,0.3,0.36,0.26,0.42,0.26,0.3,0.46,0.55,0.42,0.44,0.54,0.54,0.5,0.3,0.55,0.44,0.36,0.26,0.36,0.42,0.55,0.44,0.36" style="fill:rgb(0,0,0);font-family:AdvTT78ea841c;font-size:9.5px;stroke:none;">space group in amorphous materials, and ferroelectricity cannot arise as</text>
   <text y="669.487" x="35.887,38.17,41.02,43.102,46.867,51.175,53.458,56.729,59.411,62.831,64.91,69.473,74.426,76.614,80.98400000000001,83.019,85.302,90.432,92.559,96.324,99.595,103.759,107.03,109.712,113.676,115.864,118.052,120.376,125.309,129.299,131.318,138.858,142.823,145.505,149.303,152.591,154.874,158.838,161.026,164.297,166.387,168.435,174.104,178.962,181.245,184.665,186.744,189.069,192.48899999999998,194.568,197.233,202.09,206.08,208.1,212.264,216.029,219.3,223.67000000000002,225.706,228.976,232.741,236.706,239.976,244.539,249.66899999999998,251.739,254.421,259.279,263.243,265.925,268.015,270.063,272.331,277.461,279.588,282.252,287.11" svgx:width="0.26,0.3,0.55,0.42,0.47,0.26,0.36,0.3,0.36,0.55,0.5,0.54,0.25,0.46,0.55,0.26,0.54,0.55,0.42,0.36,0.46,0.36,0.3,0.44,0.25,0.25,0.26,0.54,0.42,0.55,0.81,0.44,0.3,0.42,0.36,0.26,0.44,0.25,0.36,0.22,0.55,0.61,0.53,0.26,0.36,0.55,0.26,0.36,0.55,0.3,0.53,0.42,0.55,0.46,0.42,0.36,0.46,0.55,0.36,0.42,0.44,0.36,0.5,0.54,0.55,0.3,0.53,0.44,0.3,0.22,0.55,0.26,0.54,0.55,0.3,0.53,0.42" style="fill:rgb(0,0,0);font-family:AdvTT78ea841c;font-size:9.5px;stroke:none;">it exists only in crystalline materials. This is the very reason that, in the</text>
   <text y="680.486" x="35.887,38.262,40.592,43.461,47.282,50.627,54.779,57.648,62.419,65.877,69.675,71.765,74.664,77.533,82.431,86.383,89.841,93.83099999999999,96.604,100.756,104.088,108.07799999999999,110.948,116.087,120.837,123.646,128.586,133.397,138.147,140.37,142.84,146.663,150.814,153.683,155.96,160.71,165.711,169.131,172.117,175.462,179.414,184.249,188.999,192.3,195.169,197.515,202.655,207.025,209.874,214.624,219.754,222.572,225.441,230.34,234.33,237.2,241.95,246.7,249.955,253.907,257.365,261.521,265.672,268.541,270.818,275.568,280.698,283.574,288.324" svgx:width="0.25,0.26,0.3,0.42,0.36,0.44,0.3,0.52,0.36,0.42,0.22,0.55,0.3,0.53,0.42,0.36,0.42,0.55,0.44,0.36,0.42,0.55,0.54,0.5,0.55,0.52,0.52,0.5,0.25,0.26,0.42,0.44,0.3,0.26,0.5,0.54,0.36,0.55,0.36,0.42,0.52,0.5,0.36,0.3,0.26,0.54,0.46,0.55,0.5,0.54,0.55,0.3,0.53,0.42,0.55,0.5,0.5,0.36,0.42,0.36,0.46,0.44,0.3,0.26,0.5,0.54,0.55,0.5,0.29" style="fill:rgb(0,0,0);font-family:AdvTT78ea841c;font-size:9.5px;stroke:none;">literature, there are no publications reporting on the observation of</text>
   <text y="691.428" x="35.887,39.839,44.107,46.577,49.833,52.702,54.992,60.131,64.501,67.18,69.945,73.7,77.045,80.503,85.095,89.047,91.218,95.17,98.985,101.706,105.164,107.489,111.479,114.178,119.118,123.702,131.416,135.381,137.851,142.808,146.22799999999998,149.043,153.793,157.213,159.929,164.869,169.452,177.049,181.201,183.512,188.652,191.846,194.221,196.494,201.029,205.019,207.776,210.541,214.296,218.448,221.156,225.974,229.432,233.231,236.65099999999998,239.466,244.286,247.744,250.068,255.208,259.578,262.201,267.54,272.292,280.652,283.517,285.987" svgx:width="0.42,0.47,0.26,0.36,0.3,0.26,0.54,0.46,0.55,0.29,0.42,0.36,0.36,0.5,0.42,0.25,0.42,0.42,0.3,0.36,0.26,0.42,0.55,0.52,0.5,0.81,0.44,0.26,0.54,0.36,0.55,0.5,0.36,0.55,0.52,0.5,0.81,0.44,0.26,0.54,0.35,0.25,0.26,0.49,0.42,0.55,0.29,0.42,0.44,0.3,0.52,0.36,0.42,0.36,0.55,0.52,0.36,0.26,0.54,0.46,0.55,0.56,0.52,0.88,0.55,0.26,0.54" style="fill:rgb(0,0,0);font-family:AdvTT78ea841c;font-size:9.5px;stroke:none;">existing ferroelectric domains or domain-like features using PFM in</text>
   <text y="702.37" x="35.887,39.912,47.626,52.214,55.559,60.499,65.366,70.116,74.89,78.31,80.503,88.217,92.181,95.05,98.814,102.272,104.597,108.622,110.997,114.291,116.381,118.544,125.564,129.315,133.666,137.478,140.823,143.692,148.533,152.485,154.713,158.665,161.913,165.371,167.461,169.566,175.859,179.84900000000002,181.982,186.922,190.712,194.17,196.778,201.528,204.771,212.485,216.28,221.22,223.367,226.236,231.134,235.124,237.257,244.854,248.806,252.791,256.136,261.076,264.356,268.308,275.865,279.817,284.765,287.634" svgx:width="0.44,0.81,0.5,0.36,0.52,0.53,0.5,0.52,0.36,0.55,0.81,0.44,0.3,0.42,0.36,0.26,0.44,0.25,0.36,0.22,0.55,0.74,0.42,0.46,0.42,0.36,0.3,0.53,0.42,0.25,0.42,0.36,0.36,0.22,0.55,0.68,0.42,0.55,0.52,0.42,0.36,0.29,0.5,0.36,0.81,0.42,0.52,0.55,0.3,0.53,0.42,0.55,0.81,0.42,0.44,0.36,0.52,0.36,0.42,0.81,0.42,0.54,0.3,0.36" style="fill:rgb(0,0,0);font-family:AdvTT78ea841c;font-size:9.5px;stroke:none;">amorphous materials. Nevertheless, we performed the measurements</text>
   <text y="340.727" x="302.966,307.906,311.187,315.139,318.443,322.395,327.343,330.212,333.976,338.916,340.552,343.022,349.68,354.62,356.88,361.231,363.32099999999997,364.873,369.433,370.996,375.746,380.876,382.447,386.627,388.173,390.937,394.238,398.19,401.495,406.427,408.802,413.172,414.647,418.599,420.827,424.779,428.763,433.114,436.871,441.811,443.391,447.542,450.25,455.0,462.553,465.023,468.789,472.814,475.189,477.406,481.776,483.359,486.704,494.418,499.005,503.755,506.432,511.46700000000004,513.121,522.192,528.025" svgx:width="0.52,0.36,0.42,0.36,0.42,0.54,0.3,0.42,0.52,0.55,0.26,0.54,0.52,0.26,0.46,0.22,0.55,0.48,0.55,0.5,0.54,0.55,0.44,0.55,0.29,0.36,0.42,0.36,0.53,0.25,0.46,0.55,0.42,0.25,0.42,0.44,0.46,0.42,0.52,0.55,0.44,0.3,0.5,0.81,0.26,0.42,0.44,0.25,0.25,0.46,0.55,0.36,0.81,0.5,0.5,0.3,0.53,0.55,0.97,0.61,0.42" style="fill:rgb(0,0,0);font-family:AdvTT78ea841c;font-size:9.5px;stroke:none;">presented inFig. 2 on a freshly cleaved atomically smooth WTe</text>
   <text y="342.312" x="531.836" svgx:width="0.48" style="fill:rgb(0,0,0);font-family:AdvTT78ea841c;font-size:6.33px;stroke:none;">2</text>
   <text y="340.724" x="536.825,540.283,542.608,547.747,551.905,554.28" svgx:width="0.36,0.26,0.54,0.46,0.25,0.42" style="fill:rgb(0,0,0);font-family:AdvTT78ea841c;font-size:9.5px;stroke:none;">single</text>
   <text y="351.667" x="302.967,306.919,310.223,314.574,317.82,320.689,324.68,327.055,329.158,331.628,336.758,338.796,342.976,345.031,348.983,353.535,358.674,361.358,364.816,369.408,371.783,373.944,377.896,382.836,384.885" svgx:width="0.42,0.36,0.46,0.36,0.3,0.44,0.25,0.55,0.26,0.54,0.55,0.44,0.55,0.42,0.5,0.54,0.3,0.36,0.5,0.25,0.25,0.42,0.52,0.55,0.74" style="fill:rgb(0,0,0);font-family:AdvTT78ea841c;font-size:9.5px;stroke:none;">crystal in a controlled N</text>
   <text y="353.254" x="391.805" svgx:width="0.48" style="fill:rgb(0,0,0);font-family:AdvTT78ea841c;font-size:6.33px;stroke:none;">2</text>
   <text y="351.666" x="397.304,401.256,406.261,410.612,412.894,416.239,420.989,425.933,433.647,437.441,442.581,445.43100000000004,447.476,450.735,453.996,457.948,461.938,463.917,468.068,470.267,473.725,478.475,480.471,483.236,485.574,489.925,492.015,493.964,498.41,502.808,506.066,508.15599999999995,510.178,514.203,519.343,524.283,526.336,529.205,534.046,538.986,542.266,544.356,546.461,549.331,554.172" svgx:width="0.42,0.54,0.46,0.26,0.36,0.5,0.54,0.81,0.42,0.54,0.3,0.55,0.34,0.36,0.42,0.42,0.55,0.44,0.25,0.36,0.5,0.55,0.29,0.26,0.46,0.22,0.55,0.47,0.48,0.34,0.22,0.55,0.44,0.54,0.52,0.55,0.3,0.53,0.52,0.36,0.22,0.55,0.3,0.53,0.42" style="fill:rgb(0,0,0);font-family:AdvTT78ea841c;font-size:9.5px;stroke:none;">environment (see also fig. S1), and thus, the</text>
   <text y="362.664" x="302.967,307.717,312.265,315.723,319.521,322.866,327.217,331.029,335.969,338.456,343.206,346.96,351.892,356.043,360.225,362.695,367.255,370.675,373.208,377.16,381.088,386.228,391.236,395.986,398.836,401.214,405.964,409.954,412.269,416.421,419.695,423.647,426.951,429.421,433.981,437.933,442.873,445.263,448.132,452.882,455.241,458.109,463.008,466.998,469.414,472.759,477.699,480.979,483.743,487.725,491.677,495.66700000000003,498.043,502.793,507.056,509.526,514.256,518.208" svgx:width="0.5,0.5,0.36,0.42,0.36,0.46,0.42,0.52,0.55,0.5,0.42,0.53,0.44,0.46,0.26,0.5,0.36,0.55,0.42,0.44,0.54,0.54,0.5,0.3,0.55,0.5,0.42,0.55,0.44,0.36,0.42,0.36,0.26,0.5,0.42,0.52,0.55,0.3,0.5,0.55,0.3,0.53,0.42,0.55,0.36,0.52,0.36,0.29,0.44,0.42,0.42,0.55,0.5,0.47,0.26,0.52,0.42,0.22" style="fill:rgb(0,0,0);font-family:AdvTT78ea841c;font-size:9.5px;stroke:none;">observed behavior cannot be ascribed to the surface oxide.</text>
   <text y="384.548" x="302.967,308.401,311.963,317.397,323.031,325.596,331.134,336.644,339.873,343.036,347.976,351.539,355.101,360.535,365.475,368.04,372.98,377.227,380.685,384.247,386.812,391.059,393.624,397.082,402.022,405.293,410.233,415.772,421.377,424.569,430.202,435.636,438.201,443.141,446.704,449.269,453.715,458.655,462.113,464.678,470.112,475.622,478.936,482.992,490.117,492.682,496.14,500.387,505.925,508.49,514.029" svgx:width="0.57,0.38,0.57,0.59,0.27,0.58,0.58,0.55,0.33,0.52,0.38,0.38,0.57,0.52,0.27,0.52,0.45,0.36,0.38,0.27,0.45,0.27,0.36,0.52,0.55,0.52,0.58,0.59,0.55,0.59,0.57,0.27,0.52,0.38,0.27,0.47,0.52,0.36,0.27,0.57,0.58,0.55,0.43,0.75,0.27,0.36,0.45,0.58,0.27,0.58,0.58" style="fill:rgb(0,0,0);font-family:AdvTTaf7f9f4f.B;font-size:9.5px;stroke:none;">Probing ferroelectricity and polarization switching</text>
   <text y="395.546" x="302.967,309.987,315.127,319.117,322.128,326.878,329.633,332.673,335.542,340.587,344.577,347.584,352.524,356.476,359.24,361.71,366.85,369.32,374.459,378.829,381.881,386.033,389.491,394.431,398.383,402.335,405.204,408.624,411.758,416.508,419.263,422.303,425.067,429.019,432.477,435.935,440.685,444.637,447.012,450.964,454.916,457.785,461.243,463.713,467.665,471.08500000000004,474.232,476.702,480.122,483.189,486.058,491.103,495.093,498.1,501.558,505.51,510.26,513.718,516.188,520.14,525.279,528.148,532.3,535.169,537.639,542.389,547.519,550.596,555.346" svgx:width="0.74,0.54,0.42,0.55,0.5,0.29,0.55,0.3,0.53,0.42,0.55,0.52,0.42,0.29,0.26,0.54,0.26,0.54,0.46,0.55,0.44,0.36,0.52,0.42,0.42,0.3,0.36,0.55,0.5,0.29,0.55,0.29,0.42,0.36,0.36,0.5,0.42,0.25,0.42,0.42,0.3,0.36,0.26,0.42,0.36,0.55,0.26,0.36,0.55,0.3,0.53,0.42,0.55,0.36,0.42,0.5,0.36,0.26,0.42,0.54,0.3,0.44,0.3,0.26,0.5,0.54,0.55,0.5,0.29" style="fill:rgb(0,0,0);font-family:AdvTT78ea841c;font-size:9.5px;stroke:none;">One of the defining aspects of ferroelectrics is the reorientation of</text>
   <text y="406.488" x="302.967,307.907,312.657,315.032,319.183,322.641,325.111,329.063,333.215,336.084,338.554,343.304,348.43399999999997,351.098,355.848,360.218,362.833,370.547,374.499,378.651,383.79,387.21000000000004,389.875,394.625,397.38,400.023,404.174,409.304,411.928,415.88,420.326,423.195,427.147,430.605,435.745,439.896,442.271,444.922,448.874,451.249,455.201,459.153,462.022,465.48,467.95,471.94,474.515,477.279,479.749,483.701,486.076,491.016,493.106,495.774,502.994,507.744,514.176,518.128,522.479,526.431,529.889,531.979,534.55,539.49,544.63,547.005,549.475,554.12" svgx:width="0.52,0.5,0.25,0.44,0.36,0.26,0.42,0.44,0.3,0.26,0.5,0.54,0.55,0.5,0.46,0.55,0.81,0.42,0.44,0.54,0.36,0.55,0.5,0.29,0.55,0.44,0.54,0.55,0.42,0.47,0.3,0.42,0.36,0.54,0.44,0.25,0.55,0.42,0.25,0.42,0.42,0.3,0.36,0.26,0.42,0.55,0.29,0.26,0.42,0.25,0.52,0.22,0.55,0.76,0.5,0.68,0.42,0.46,0.42,0.36,0.22,0.55,0.52,0.54,0.25,0.26,0.49,0.42" style="fill:rgb(0,0,0);font-family:AdvTT78ea841c;font-size:9.5px;stroke:none;">polarization by means of an external electric field. However, unlike</text>
   <text y="417.43" x="302.967,305.258,310.219,313.499,318.26,320.415,324.383,327.073,329.365,334.326,338.696,340.958,343.544,347.318,350.597,353.876,358.448,362.221,364.376,368.149,371.923,374.613,377.845,380.136,383.91,387.189,389.279,391.554,394.834,401.087,403.378,406.069,409.842,414.708,416.999,421.908,426.278,428.598,431.262,436.123,440.113,442.358,447.114,451.68,453.871,457.838,461.112,463.397,467.165,471.132,473.817,476.103,480.668,485.798,488.095,490.381,493.801,496.164,500.919,503.205,505.785,508.365,510.651,514.419,519.175,521.365,524.215,526.525,528.792,533.922,536.275,545.29,550.939" svgx:width="0.26,0.54,0.36,0.52,0.25,0.44,0.3,0.26,0.54,0.46,0.55,0.29,0.42,0.36,0.36,0.5,0.42,0.25,0.42,0.42,0.3,0.36,0.26,0.42,0.36,0.22,0.55,0.36,0.68,0.26,0.3,0.42,0.53,0.26,0.54,0.46,0.55,0.3,0.53,0.42,0.55,0.52,0.5,0.25,0.44,0.36,0.26,0.42,0.44,0.3,0.26,0.5,0.54,0.55,0.26,0.36,0.55,0.52,0.26,0.29,0.29,0.26,0.42,0.52,0.25,0.3,0.55,0.26,0.54,0.55,0.97,0.61,0.42" style="fill:rgb(0,0,0);font-family:AdvTT78ea841c;font-size:9.5px;stroke:none;">insulating ferroelectrics, switching the polarization is difficult in WTe</text>
   <text y="419.017" x="554.74" svgx:width="0.48" style="fill:rgb(0,0,0);font-family:AdvTT78ea841c;font-size:6.33px;stroke:none;">2</text>
   <text y="428.428" x="302.967,307.717,311.669,315.621,319.772,324.712,328.17,332.16,334.77,339.52,342.275,344.918,347.388,350.257,353.677,356.369,361.414,363.884,368.235,373.27000000000004,375.928,379.88,384.63,389.769,394.709,399.649,403.601,406.47,408.94,413.291,415.761,418.63,422.981,425.07099999999997,427.687,433.52,438.564,442.55400000000003,445.148,449.299,454.239,459.179,461.554,464.024,467.976,472.916,475.59,480.34,482.81,486.962,490.382,493.051,495.521,500.661,505.601,510.541,514.493,518.445,521.865,524.571,528.523,530.898,534.85,538.802,541.672,545.13,547.599,551.552,555.703" svgx:width="0.5,0.42,0.42,0.44,0.52,0.36,0.42,0.55,0.5,0.29,0.55,0.26,0.3,0.36,0.55,0.53,0.26,0.46,0.53,0.55,0.42,0.5,0.54,0.52,0.52,0.42,0.3,0.26,0.46,0.26,0.3,0.46,0.22,0.55,0.61,0.53,0.42,0.55,0.44,0.52,0.52,0.25,0.26,0.42,0.52,0.55,0.5,0.26,0.44,0.36,0.55,0.26,0.54,0.52,0.52,0.42,0.42,0.36,0.55,0.42,0.25,0.42,0.42,0.3,0.36,0.26,0.42,0.44,0.25" style="fill:rgb(0,0,0);font-family:AdvTT78ea841c;font-size:9.5px;stroke:none;">because of its high conductivity: The applied bias induces electrical</text>
   <text y="439.371" x="302.967,306.919,311.859,315.317,318.775,322.727,327.866,330.716,332.446,335.904,340.056,342.925,347.969,351.921,355.341,357.05,359.919,364.964,369.115,374.245,375.985,380.136,384.088,386.957,390.377,392.085,396.835,401.965,403.651,406.52,411.564,415.55400000000003,417.199,422.139,426.889,429.264,433.416,436.836,438.516,443.456,445.926,449.384,452.253,457.003,460.461,463.33,465.8,470.55,475.68,477.406,480.664,483.429,485.899,490.25,492.34,494.016,498.462,503.013,506.272,508.36199999999997,510.06,517.081,521.831,526.97,530.922,533.791,538.836,542.788,545.163,549.115,552.573,556.031" svgx:width="0.42,0.52,0.36,0.36,0.42,0.54,0.3,0.55,0.36,0.44,0.3,0.53,0.42,0.36,0.55,0.3,0.53,0.44,0.54,0.55,0.44,0.42,0.3,0.36,0.55,0.5,0.54,0.55,0.3,0.53,0.42,0.55,0.52,0.5,0.25,0.44,0.36,0.55,0.52,0.26,0.36,0.3,0.5,0.36,0.3,0.26,0.5,0.54,0.55,0.34,0.29,0.26,0.46,0.22,0.55,0.47,0.48,0.34,0.22,0.55,0.74,0.5,0.54,0.42,0.3,0.53,0.42,0.25,0.42,0.36,0.36,0.22" style="fill:rgb(0,0,0);font-family:AdvTT78ea841c;font-size:9.5px;stroke:none;">current rather than acts on the polar distortion (fig. S1). Nonetheless,</text>
   <text y="450.313" x="302.967,305.236,307.991,309.885,312.553,317.397,321.387,323.18,325.788,327.962,332.512,340.789,345.324,348.079,349.917,352.127,356.079,359.336,363.531,367.521,369.314,373.065,375.24,378.992,382.79,385.458,388.716,390.985,394.783,398.734,401.109,402.93,406.681,411.421,414.678,417.936,421.734,426.666,429.387,432.807,434.66,438.411,442.362,447.492,449.335,453.928,457.918,459.71,464.473,467.73,471.528,475.679,479.477,484.416,487.084,490.883,495.645,497.73499999999996,499.557,503.299,505.17,509.365,511.235,513.325,515.148,519.697,524.067,525.877,528.201,533.134,536.391,540.143,543.401,546.069,548.394,552.929" svgx:width="0.26,0.29,0.55,0.3,0.53,0.42,0.55,0.29,0.25,0.5,0.68,0.5,0.29,0.55,0.25,0.44,0.36,0.46,0.42,0.55,0.42,0.25,0.42,0.42,0.3,0.36,0.26,0.42,0.44,0.25,0.55,0.42,0.52,0.36,0.36,0.42,0.54,0.3,0.36,0.55,0.42,0.44,0.54,0.55,0.5,0.42,0.55,0.52,0.36,0.42,0.46,0.42,0.54,0.3,0.42,0.52,0.22,0.55,0.42,0.22,0.46,0.22,0.22,0.55,0.5,0.46,0.55,0.26,0.54,0.36,0.42,0.36,0.3,0.26,0.5,0.54" style="fill:rgb(0,0,0);font-family:AdvTT78ea841c;font-size:9.5px;stroke:none;">if the flowof large electrical currents can be prevented, e.g., by insertion</text>
   <text y="461.255" x="302.967,307.559,310.314,312.435,316.615,318.67,323.433,325.757,329.499,331.68,335.437,339.235,341.9,345.163,347.438,351.428,353.504,355.659,359.615,363.811,367.568,370.988,373.18,377.736,381.534,384.208,390.445,394.202,398.0,403.13,405.257,407.922,412.772,416.762,418.838,422.595,427.187,432.132,434.853,438.809,442.567,445.241,448.504,450.594,452.699,455.364,460.214,463.971,469.101,471.228,473.553,476.403,478.542,480.81,484.23,486.365,491.128,495.72,498.952,502.215,504.49,509.083,511.237,515.227,517.303,520.024,524.774,526.884,530.852,535.597,540.342,542.523,546.893,548.986,552.954" svgx:width="0.5,0.29,0.55,0.44,0.55,0.52,0.26,0.42,0.25,0.42,0.42,0.3,0.36,0.26,0.42,0.55,0.25,0.44,0.46,0.42,0.36,0.55,0.5,0.42,0.3,0.68,0.42,0.42,0.54,0.55,0.3,0.53,0.42,0.55,0.42,0.5,0.54,0.3,0.44,0.42,0.3,0.36,0.22,0.55,0.3,0.53,0.42,0.54,0.55,0.26,0.3,0.55,0.26,0.36,0.55,0.52,0.5,0.36,0.36,0.26,0.5,0.25,0.42,0.55,0.3,0.5,0.55,0.44,0.52,0.52,0.25,0.46,0.55,0.44,0.54" style="fill:rgb(0,0,0);font-family:AdvTT78ea841c;font-size:9.5px;stroke:none;">of a dielectric layer between the contacts, then it is possible to apply an</text>
   <text y="472.253" x="302.967,306.919,309.09,313.042,316.856,319.725,322.979,325.449,329.439,332.162,334.927,337.208,341.16,343.387,348.327,351.155,354.024,358.774,361.53,370.726,376.383" svgx:width="0.42,0.25,0.42,0.42,0.3,0.36,0.26,0.42,0.55,0.29,0.26,0.42,0.25,0.52,0.55,0.3,0.5,0.55,0.97,0.61,0.42" style="fill:rgb(0,0,0);font-family:AdvTT78ea841c;font-size:9.5px;stroke:none;">electric field to WTe</text>
   <text y="473.839" x="380.239" svgx:width="0.48" style="fill:rgb(0,0,0);font-family:AdvTT78ea841c;font-size:6.33px;stroke:none;">2</text>
   <text y="472.252" x="386.532,390.684,395.66,400.6,403.427,406.885,410.683,414.708,417.083,419.414,423.366,427.356,430.072,432.836,436.591,440.049,443.337,448.087,451.841,454.216,457.964,461.916,464.597,468.055,470.379,474.369,477.182,480.527,486.959,489.258,492.127,495.89,500.823,503.293,508.249,512.6,514.69,517.433,523.266,528.016,530.812,534.963,538.749,543.681,546.151,549.917,554.268" svgx:width="0.44,0.54,0.52,0.55,0.36,0.42,0.44,0.25,0.26,0.42,0.42,0.55,0.29,0.42,0.36,0.36,0.5,0.42,0.25,0.42,0.42,0.3,0.36,0.26,0.42,0.55,0.36,0.68,0.26,0.3,0.42,0.53,0.26,0.54,0.46,0.22,0.55,0.61,0.5,0.55,0.44,0.42,0.53,0.26,0.42,0.46,0.42" style="fill:rgb(0,0,0);font-family:AdvTT78ea841c;font-size:9.5px;stroke:none;">and realize ferroelectric switching. To achieve</text>
   <text y="483.194" x="302.967,306.312,311.252,315.043,320.07800000000003,322.923,327.103,329.953,333.905,338.457,343.446,346.21,348.491,352.842,357.619,360.964,365.115,367.767,370.237,374.797,379.927,382.79,386.942,391.861,396.801,399.684,402.553,407.303,410.059,414.877,418.222,422.174,425.932,428.307,433.076,437.895,441.885,444.698,447.567,452.408,456.398,459.211,464.151,468.735,472.08,475.425,477.895,482.455,484.925,487.103,489.573,492.262,496.632,499.462,504.054,506.80899999999997,509.723,514.542,517.012,520.268,524.22,527.978,530.828,533.703,537.655,542.491,546.642,549.917,554.268" svgx:width="0.36,0.52,0.42,0.53,0.55,0.44,0.55,0.42,0.5,0.54,0.29,0.26,0.46,0.52,0.36,0.44,0.3,0.26,0.5,0.54,0.55,0.44,0.54,0.52,0.55,0.3,0.5,0.55,0.52,0.36,0.42,0.42,0.25,0.52,0.52,0.42,0.55,0.3,0.53,0.42,0.55,0.52,0.5,0.36,0.36,0.26,0.5,0.26,0.25,0.26,0.3,0.46,0.55,0.5,0.29,0.55,0.52,0.26,0.36,0.42,0.42,0.3,0.55,0.42,0.53,0.44,0.36,0.46,0.42" style="fill:rgb(0,0,0);font-family:AdvTT78ea841c;font-size:9.5px;stroke:none;">such a configuration and to preclude the possibility of direct charge</text>
   <text y="494.136" x="302.967,305.227,310.216,312.381,316.179,319.921,322.643,324.903,329.443,336.076" svgx:width="0.26,0.54,0.25,0.42,0.42,0.3,0.26,0.5,0.54,0.34" style="fill:rgb(0,0,0);font-family:AdvTT78ea841c;font-size:9.5px;stroke:none;">injection(</text>
   <text y="494.136" x="339.194,343.446" svgx:width="0.47,0.47" style="fill:rgb(0,0,0);font-family:AdvTT5a3b6cb0.I;font-size:9.5px;stroke:none;">30</text>
   <text y="494.136" x="347.697,350.927,352.459,355.01,358.291,362.863,372.048,374.712,379.579,383.569,385.022,387.713,390.005,394.945,396.468,398.736,403.698,406.389,411.139,412.625,415.29,420.157,424.147,425.599,434.617,440.23" svgx:width="0.34,0.55,0.29,0.36,0.5,0.81,0.3,0.53,0.42,0.55,0.3,0.26,0.52,0.55,0.26,0.54,0.3,0.5,0.55,0.3,0.53,0.42,0.55,0.97,0.61,0.42" style="fill:rgb(0,0,0);font-family:AdvTT78ea841c;font-size:9.5px;stroke:none;">) fromthe tip into the WTe</text>
   <text y="495.723" x="444.019" svgx:width="0.48" style="fill:rgb(0,0,0);font-family:AdvTT78ea841c;font-size:6.33px;stroke:none;">2</text>
   <text y="494.135" x="447.25,449.34,450.822,457.058,461.048,462.501,467.263,470.495,474.293,479.051,483.022,486.298,490.069,496.474,499.195,504.058,506.347,512.98,515.531,517.819,520.013,529.197,532.485,536.455,543.988,548.746,550.94,554.71" svgx:width="0.22,0.55,0.68,0.42,0.55,0.52,0.36,0.42,0.52,0.44,0.36,0.42,0.52,0.3,0.53,0.26,0.54,0.29,0.26,0.25,0.81,0.36,0.44,0.81,0.52,0.25,0.42,0.36" style="fill:rgb(0,0,0);font-family:AdvTT78ea841c;font-size:9.5px;stroke:none;">, we preparedthinfilmsamples</text>
   <text y="505.134" x="302.967,305.248,310.378,312.221,316.401,318.174,321.972,325.934,330.685,334.648,338.411,340.692,343.372,347.932,351.35200000000003,353.205,357.367,361.13,365.691,373.216,376.979,379.659,382.928,387.298,389.05,392.12,396.871,399.152,403.314,405.404,407.226,411.591,419.924,423.893,428.843,433.783,435.628,438.897,442.66,446.65000000000003,448.441,456.661,460.623,463.303,467.066,470.335,472.616,476.579,478.765,482.185,484.036,487.999,492.949,497.889,499.751,507.97,511.733,514.413,519.269,523.83,528.581,532.001,533.852,536.428,540.989,544.409,546.26,551.022,554.785" svgx:width="0.26,0.54,0.55,0.44,0.55,0.42,0.44,0.52,0.44,0.42,0.26,0.3,0.5,0.36,0.55,0.46,0.42,0.5,0.81,0.42,0.3,0.36,0.46,0.55,0.34,0.52,0.26,0.46,0.22,0.55,0.48,0.69,0.44,0.54,0.52,0.55,0.36,0.42,0.42,0.55,0.88,0.44,0.3,0.42,0.36,0.26,0.44,0.25,0.36,0.55,0.44,0.54,0.52,0.55,0.88,0.42,0.3,0.53,0.5,0.52,0.36,0.55,0.29,0.5,0.36,0.55,0.52,0.42,0.35" style="fill:rgb(0,0,0);font-family:AdvTT78ea841c;font-size:9.5px;stroke:none;">in a capacitor geometry (Fig. 3Aand see Materials and Methods for de-</text>
   <text y="516.076" x="302.967,305.836,309.77,312.095,314.47,317.65,320.909,322.99899999999997,325.701,328.705,333.835,336.699,339.42,344.353,348.151,351.496,355.486,358.243,362.195,366.123,370.941,374.967,378.919,381.146,383.868,388.618,392.038,394.753,398.098,400.82,404.165,408.984,412.936,415.56,420.378,423.723,427.675,430.867,432.957,435.742,439.694,444.415,447.76,451.105,454.903,460.043,462.89300000000003,465.618,468.226,470.601,475.142,481.602,484.327,486.797,490.21700000000004,492.944,495.414,500.314,505.247,507.571,512.321,514.544,517.413,521.12,526.0600000000001,528.888,533.48,537.85,540.623,544.803,547.596,552.415,554.74" svgx:width="0.3,0.44,0.26,0.25,0.36,0.34,0.22,0.55,0.33,0.54,0.55,0.3,0.53,0.42,0.36,0.42,0.55,0.42,0.44,0.52,0.44,0.42,0.26,0.3,0.5,0.36,0.55,0.36,0.3,0.36,0.52,0.42,0.3,0.52,0.36,0.42,0.36,0.22,0.55,0.42,0.52,0.36,0.36,0.42,0.54,0.3,0.55,0.29,0.25,0.5,0.68,0.55,0.26,0.36,0.55,0.26,0.54,0.53,0.26,0.5,0.26,0.3,0.42,0.52,0.55,0.5,0.46,0.55,0.44,0.55,0.52,0.26,0.35" style="fill:rgb(0,0,0);font-family:AdvTT78ea841c;font-size:9.5px;stroke:none;">tails). In these capacitor structures, current flow is inhibited by a di-</text>
   <text y="527.018" x="302.967,306.919,309.09,313.042,316.856,319.578,323.036,325.36,329.35,332.163,334.538,338.456,342.807,346.62,350.04,352.912,357.064,359.91400000000004,362.72,365.442,370.486,374.476,377.233,379.998,383.753,387.098,390.556,395.148,399.1,401.271,405.223,408.981,411.85,415.104,417.574,421.34,424.399,431.941,435.893,438.574,442.599,444.974,447.871,450.341,455.298,458.019,461.971,465.275,468.04,472.021,475.973,479.963,482.679,485.938,489.199,493.151,497.141,499.857,504.009,506.207,509.552,514.302,517.149,520.607,524.405,528.357,531.038,533.508,538.068,543.198,546.062,550.508,554.849" svgx:width="0.42,0.25,0.42,0.42,0.3,0.36,0.26,0.42,0.55,0.25,0.44,0.46,0.42,0.36,0.55,0.44,0.3,0.55,0.3,0.53,0.42,0.55,0.29,0.42,0.36,0.36,0.5,0.42,0.25,0.42,0.42,0.3,0.36,0.26,0.42,0.32,0.81,0.42,0.3,0.44,0.25,0.55,0.26,0.54,0.3,0.42,0.36,0.29,0.44,0.42,0.42,0.55,0.34,0.36,0.42,0.42,0.55,0.44,0.25,0.36,0.5,0.55,0.36,0.42,0.42,0.3,0.26,0.5,0.54,0.55,0.47,0.48,0.34" style="fill:rgb(0,0,0);font-family:AdvTT78ea841c;font-size:9.5px;stroke:none;">electric layer at the ferroelectric/metal interface (see also section S3)</text>
   <text y="538.016" x="302.967" svgx:width="0.34" style="fill:rgb(0,0,0);font-family:AdvTT78ea841c;font-size:9.5px;stroke:none;">(</text>
   <text y="538.016" x="306.029,310.337" svgx:width="0.47,0.47" style="fill:rgb(0,0,0);font-family:AdvTT5a3b6cb0.I;font-size:9.5px;stroke:none;">38</text>
   <text y="538.016" x="314.589,317.665,319.755,321.634,325.603,329.023,330.932,333.619,338.481,342.471,344.264,353.278,358.929" svgx:width="0.34,0.22,0.55,0.44,0.36,0.55,0.3,0.53,0.42,0.55,0.97,0.61,0.42" style="fill:rgb(0,0,0);font-family:AdvTT78ea841c;font-size:9.5px;stroke:none;">), as the WTe</text>
   <text y="539.547" x="362.664" svgx:width="0.48" style="fill:rgb(0,0,0);font-family:AdvTT78ea841c;font-size:6.33px;stroke:none;">2</text>
   <text y="538.016" x="367.937,371.214,375.185,382.719,387.478,389.633,393.623,395.473,398.75,403.51,406.787,409.371,413.342,417.114,421.104,422.896,427.489,430.721,433.045,436.817,439.401,441.555,445.925,447.791,451.563,455.828,460.588,465.157,468.435,472.206,477.146,479.009,481.73,486.48,488.306,492.274,494.563,497.983,499.893,504.462,508.234,510.818,515.387,518.665,522.655,524.505,527.193,532.057,536.047,537.897,545.38,549.151,551.84,555.811" svgx:width="0.36,0.44,0.81,0.52,0.25,0.42,0.55,0.36,0.52,0.36,0.29,0.44,0.42,0.42,0.55,0.5,0.36,0.26,0.42,0.29,0.25,0.46,0.55,0.42,0.47,0.52,0.5,0.36,0.42,0.52,0.55,0.3,0.5,0.55,0.44,0.26,0.36,0.55,0.5,0.42,0.29,0.5,0.36,0.42,0.55,0.3,0.53,0.42,0.55,0.81,0.42,0.3,0.44,0.25" style="fill:rgb(0,0,0);font-family:AdvTT78ea841c;font-size:9.5px;stroke:none;">sample surface briefly exposed to air before the metal</text>
   <text y="548.958" x="302.967,307.719,311.483,316.235,320.797,324.067,326.349,329.03,331.311,335.873,341.003,343.016,345.593,350.155,353.387,360.927,364.34700000000004,366.369,370.54900000000004,372.492,376.655,380.419,383.689,388.059,390.039,392.719,397.576,399.858,404.988,406.945,411.507,415.765,418.046,422.798,426.788,428.751,430.962,434.925,439.088,442.852,446.272,448.294" svgx:width="0.52,0.42,0.52,0.5,0.36,0.26,0.3,0.26,0.5,0.54,0.55,0.29,0.5,0.36,0.81,0.36,0.55,0.44,0.55,0.46,0.42,0.36,0.46,0.55,0.3,0.53,0.26,0.54,0.55,0.5,0.47,0.26,0.52,0.42,0.55,0.25,0.44,0.46,0.42,0.36,0.55,0.34" style="fill:rgb(0,0,0);font-family:AdvTT78ea841c;font-size:9.5px;stroke:none;">deposition forms a very thin oxide layer (</text>
   <text y="548.958" x="451.446,455.698" svgx:width="0.47,0.47" style="fill:rgb(0,0,0);font-family:AdvTT5a3b6cb0.I;font-size:9.5px;stroke:none;">34</text>
   <text y="548.958" x="459.949,463.022,465.11199999999997,467.105,471.859,474.144,478.31,483.065,486.337,490.327,492.29,496.655,502.16499999999996,504.138,507.411,512.27,516.835,523.081,526.501,528.524,532.704,534.704,542.187,545.985,548.669,552.635,554.825" svgx:width="0.34,0.22,0.55,0.52,0.26,0.46,0.52,0.36,0.42,0.55,0.48,0.58,0.55,0.36,0.53,0.5,0.68,0.36,0.55,0.44,0.55,0.81,0.42,0.3,0.44,0.25,0.35" style="fill:rgb(0,0,0);font-family:AdvTT78ea841c;font-size:9.5px;stroke:none;">). Figure 3B shows a metal-</text>
   <text y="559.9" x="302.967,307.152,311.137,313.802,317.544,322.484,324.064,333.079,338.745" svgx:width="0.46,0.44,0.3,0.42,0.52,0.55,0.97,0.61,0.42" style="fill:rgb(0,0,0);font-family:AdvTT78ea841c;font-size:9.5px;stroke:none;">gated WTe</text>
   <text y="561.487" x="342.482" svgx:width="0.48" style="fill:rgb(0,0,0);font-family:AdvTT78ea841c;font-size:6.33px;stroke:none;">2</text>
   <text y="559.899" x="347.471,350.055,352.249,356.161,360.64,364.63,366.195,370.731,375.861,377.478,380.142,385.006,388.996,390.506,393.783,398.543,401.82,404.404,408.375,412.147,416.137,417.646,422.239,424.99399999999997,426.547,430.72700000000003,432.273,437.925,440.215,443.093,449.439,454.199,457.381,461.153,465.722,469.693,472.382,476.153,481.093,482.673,485.951,488.24,490.395,492.662,496.434,501.003,506.133,507.75,511.038,515.743,520.336,523.613,526.302,529.579,533.55,536.239,540.01,542.1,543.695,549.308,554.172" svgx:width="0.29,0.25,0.44,0.49,0.42,0.55,0.5,0.54,0.55,0.3,0.53,0.42,0.55,0.36,0.52,0.36,0.29,0.44,0.42,0.42,0.55,0.5,0.29,0.55,0.44,0.55,0.61,0.26,0.32,0.69,0.52,0.35,0.42,0.5,0.44,0.3,0.42,0.52,0.55,0.36,0.26,0.25,0.26,0.42,0.5,0.54,0.55,0.36,0.52,0.5,0.36,0.3,0.36,0.44,0.3,0.42,0.22,0.55,0.61,0.53,0.42" style="fill:rgb(0,0,0);font-family:AdvTT78ea841c;font-size:9.5px;stroke:none;">flake on the surface of a Ti/Au-coated silicon substrate. The</text>
   <text y="570.841" x="302.967,311.99,317.65" svgx:width="0.97,0.61,0.42" style="fill:rgb(0,0,0);font-family:AdvTT78ea841c;font-size:9.5px;stroke:none;">WTe</text>
   <text y="572.428" x="321.392" svgx:width="0.48" style="fill:rgb(0,0,0);font-family:AdvTT78ea841c;font-size:6.33px;stroke:none;">2</text>
   <text y="570.841" x="326.721,329.272,331.483,335.451,339.873,343.863,345.703,347.971,351.391,353.307,357.672,362.232,364.101,369.033,378.625,381.347,386.167,388.434,392.232,396.711,398.801,400.66,404.628,409.616,414.556,416.419,419.084,423.959,427.949,429.79,435.402,437.727,440.562,446.911,451.851,453.771,461.255,465.053,467.717,471.686,474.061,475.939,479.681,481.891,485.633,489.432,492.096,495.384,499.92,504.682,508.672,510.522,515.114,520.244,522.087,524.808,529.343,534.283,536.161,540.753,543.508,545.396,547.664,550.514,552.411,554.678" svgx:width="0.29,0.25,0.44,0.49,0.42,0.55,0.26,0.36,0.55,0.48,0.48,0.55,0.54,0.81,0.3,0.53,0.26,0.42,0.49,0.22,0.55,0.44,0.54,0.52,0.55,0.3,0.53,0.42,0.55,0.61,0.26,0.32,0.69,0.52,0.55,0.81,0.42,0.3,0.44,0.25,0.55,0.42,0.25,0.42,0.42,0.3,0.36,0.5,0.52,0.42,0.55,0.5,0.54,0.55,0.3,0.5,0.52,0.55,0.5,0.29,0.55,0.26,0.3,0.55,0.26,0.36" style="fill:rgb(0,0,0);font-family:AdvTT78ea841c;font-size:9.5px;stroke:none;">flake is 15 nmthick, and the Ti/Au metal electrode on top of it is</text>
   <text y="581.839" x="302.967,307.352,309.256,313.816,315.719,320.708,330.288,333.009,337.829,340.153,343.895,348.54999999999995,350.472,353.564,358.338,360.606,364.744,366.834,368.769,373.134,378.464,380.554,382.432,384.7,389.689,392.981,396.723,399.388,402.505,404.59499999999997,406.474,409.421,414.551,416.508,419.173,423.992,426.317,429.737,431.647,435.445,439.98,444.968,447.52,449.788,453.973,458.746,462.038,466.023,468.688,470.956,475.539,480.472,482.56199999999995,484.44,487.105,491.983,495.973,497.823,501.608,503.763,507.549,511.291,513.993,517.225,519.529,523.271,527.256,529.631,531.509,535.294,540.068,543.36,546.592,550.378,555.31" svgx:width="0.48,0.22,0.48,0.55,0.54,0.81,0.3,0.53,0.26,0.42,0.49,0.55,0.34,0.52,0.26,0.46,0.22,0.55,0.48,0.58,0.22,0.55,0.26,0.54,0.36,0.42,0.3,0.34,0.22,0.55,0.33,0.54,0.55,0.3,0.53,0.26,0.36,0.55,0.42,0.5,0.54,0.29,0.26,0.46,0.52,0.36,0.44,0.3,0.26,0.5,0.54,0.22,0.55,0.3,0.53,0.42,0.55,0.42,0.25,0.42,0.42,0.3,0.36,0.26,0.42,0.44,0.25,0.55,0.42,0.52,0.36,0.36,0.42,0.54,0.3" style="fill:rgb(0,0,0);font-family:AdvTT78ea841c;font-size:9.5px;stroke:none;">9.5 nmthick (Fig. 3B, inset). In this configuration, the electrical current</text>
   <text y="592.781" x="302.967,305.732,308.107,312.857,319.317,322.186,326.337,330.289,333.637,338.387,341.845,345.26500000000004,348.263,351.132,356.177,360.16700000000003,363.06,372.256,378.089" svgx:width="0.29,0.25,0.5,0.68,0.55,0.44,0.42,0.36,0.5,0.36,0.36,0.55,0.3,0.53,0.42,0.55,0.97,0.61,0.42" style="fill:rgb(0,0,0);font-family:AdvTT78ea841c;font-size:9.5px;stroke:none;">flow across the WTe</text>
   <text y="594.369" x="381.94" svgx:width="0.48" style="fill:rgb(0,0,0);font-family:AdvTT78ea841c;font-size:6.33px;stroke:none;">2</text>
   <text y="592.781" x="388.346,390.816,394.236,397.247,400.705,403.574,407.032,411.646,416.786,421.137,423.512,427.882,430.751,434.209,439.149,444.089,449.029,452.35,456.302,459.76,463.121,467.073,472.013,475.026,478.285,481.049,483.417,487.768,489.85799999999995,492.77,497.216,501.767,505.025,507.11499999999995,510.004,514.156,516.531,519.4,524.444,529.053,533.993,538.344,543.379,546.344,549.213,554.257" svgx:width="0.26,0.36,0.55,0.36,0.3,0.36,0.5,0.54,0.46,0.25,0.46,0.55,0.36,0.52,0.52,0.52,0.36,0.42,0.36,0.36,0.42,0.52,0.55,0.34,0.29,0.26,0.46,0.22,0.55,0.47,0.48,0.34,0.22,0.55,0.44,0.25,0.3,0.53,0.5,0.52,0.46,0.53,0.55,0.3,0.53,0.42" style="fill:rgb(0,0,0);font-family:AdvTT78ea841c;font-size:9.5px;stroke:none;">is strongly suppressed (fig. S3), although the</text>
   <text y="603.723" x="302.967,311.99,317.65" svgx:width="0.97,0.61,0.42" style="fill:rgb(0,0,0);font-family:AdvTT78ea841c;font-size:9.5px;stroke:none;">WTe</text>
   <text y="605.31" x="321.392" svgx:width="0.48" style="fill:rgb(0,0,0);font-family:AdvTT78ea841c;font-size:6.33px;stroke:none;">2</text>
   <text y="603.723" x="327.175,329.752,331.94,335.904,340.363,344.353,346.712,348.98,352.40000000000003,354.82,358.108,360.789,363.072,365.26,367.635,370.022,377.549,381.314,383.996,387.96,390.148,392.336,394.661,398.651,400.954" svgx:width="0.29,0.25,0.44,0.49,0.42,0.55,0.26,0.36,0.55,0.36,0.3,0.26,0.25,0.25,0.55,0.81,0.42,0.3,0.44,0.25,0.25,0.26,0.42,0.55,0.34" style="fill:rgb(0,0,0);font-family:AdvTT78ea841c;font-size:9.5px;stroke:none;">flake is still metallic (</text>
   <text y="603.723" x="404.05,408.302" svgx:width="0.47,0.47" style="fill:rgb(0,0,0);font-family:AdvTT5a3b6cb0.I;font-size:9.5px;stroke:none;">25</text>
   <text y="603.723" x="412.553,415.615" svgx:width="0.34,0.22" style="fill:rgb(0,0,0);font-family:AdvTT78ea841c;font-size:9.5px;stroke:none;">).</text>
   <text y="614.721" x="314.928,320.761,325.511,327.514,332.261,336.059,343.58,348.137,353.084,356.349,359.025,362.291,366.249,368.925,372.915,374.878,378.166,384.405,386.729,389.405,393.165,398.016,400.293,405.283,409.653,411.633,416.19,418.945,421.009,423.685,428.537,432.527,434.49,437.04,440.838,444.074,447.339,451.932,455.691,457.873,461.632,465.43,468.106,471.371,473.649,477.639,479.601,484.348,488.906,491.088,495.046,498.312,500.589,504.348,508.307,511.027,513.295,517.852,522.982,525.052,529.609,532.364,534.372,543.375,549.015" svgx:width="0.61,0.5,0.55,0.52,0.42,0.81,0.5,0.54,0.36,0.3,0.36,0.44,0.3,0.42,0.55,0.36,0.68,0.26,0.3,0.42,0.53,0.26,0.54,0.46,0.55,0.5,0.29,0.55,0.3,0.53,0.42,0.55,0.29,0.42,0.36,0.36,0.5,0.42,0.25,0.42,0.42,0.3,0.36,0.26,0.42,0.55,0.52,0.5,0.25,0.44,0.36,0.26,0.42,0.44,0.3,0.26,0.5,0.54,0.55,0.5,0.29,0.55,0.97,0.61,0.42" style="fill:rgb(0,0,0);font-family:AdvTT78ea841c;font-size:9.5px;stroke:none;">To demonstrate switching of the ferroelectric polarization of WTe</text>
   <text y="616.309" x="552.813" svgx:width="0.48" style="fill:rgb(0,0,0);font-family:AdvTT78ea841c;font-size:6.33px;stroke:none;">2</text>
   <text y="614.721" x="556.044" svgx:width="0.22" style="fill:rgb(0,0,0);font-family:AdvTT78ea841c;font-size:9.5px;stroke:none;">,</text>
   <text y="625.663" x="302.968,306.426,311.366,315.156,319.108,321.977,325.304,330.054,333.512,337.323,342.073,346.903,349.373,353.363,356.201,361.54,366.349,374.709,377.744,385.458,389.41,393.391,396.849,401.668,405.126,409.078,416.634,420.586,425.726,428.426,431.846,434.831,441.263,445.215,448.55,452.54,455.41,460.35,464.198,467.656,470.42,475.026,478.484,486.081,490.033,494.973,497.873,500.742,505.787,509.099,513.849,518.679,523.03,528.0649999999999,530.982,533.851,538.749,542.739,545.665,548.534,553.148" svgx:width="0.36,0.52,0.42,0.42,0.3,0.36,0.5,0.36,0.42,0.5,0.52,0.26,0.42,0.55,0.56,0.52,0.88,0.55,0.81,0.42,0.44,0.36,0.52,0.36,0.42,0.81,0.42,0.54,0.3,0.36,0.55,0.68,0.42,0.36,0.42,0.55,0.52,0.42,0.36,0.29,0.5,0.36,0.81,0.42,0.52,0.55,0.3,0.53,0.36,0.5,0.52,0.46,0.53,0.55,0.3,0.53,0.42,0.55,0.3,0.5,0.52" style="fill:rgb(0,0,0);font-family:AdvTT78ea841c;font-size:9.5px;stroke:none;">spectroscopic PFM measurements were performed through the top</text>
   <text y="636.605" x="302.968,306.92,309.147,313.099,316.915,319.784,323.094,327.844,332.618,336.608,339.478,341.948,347.078,349.909,354.089,356.939,360.891,364.876,369.816,373.834,377.786,380.07,382.939,387.553,390.973,393.903,398.254,402.066,406.816,414.368,418.32,421.001,424.459,428.655,430.74499999999995,433.644,440.075,444.982,447.452,451.218,456.25300000000004,459.155,464.2,468.226,471.646,474.576,479.326,483.079,487.031,492.161,495.041,498.386,503.326,507.117,511.069,514.884,518.342,521.63,524.395,529.227,531.602,533.82,538.19,541.02,545.96,549.297,553.249" svgx:width="0.42,0.25,0.42,0.42,0.3,0.36,0.5,0.52,0.42,0.55,0.26,0.54,0.55,0.44,0.55,0.42,0.44,0.52,0.44,0.42,0.26,0.3,0.5,0.36,0.55,0.46,0.42,0.5,0.81,0.42,0.3,0.36,0.46,0.22,0.55,0.68,0.53,0.26,0.42,0.53,0.55,0.53,0.44,0.36,0.55,0.5,0.42,0.42,0.54,0.55,0.36,0.52,0.42,0.42,0.42,0.36,0.36,0.29,0.52,0.25,0.25,0.46,0.55,0.52,0.36,0.42,0.52" style="fill:rgb(0,0,0);font-family:AdvTT78ea841c;font-size:9.5px;stroke:none;">electrode in a capacitor geometry, which has been successfully used</text>
   <text y="647.604" x="302.968,307.718,311.67,314.434,319.184,322.642,326.632,329.555,332.32,337.07,340.49,343.558,347.016,351.956,356.706,360.658,363.033,366.985,370.826,373.695,377.153,381.903,386.843,390.833,393.786,399.125,404.065,412.425,415.499,423.213,427.165,431.316,434.774,439.714,443.172,447.124,454.838,458.697,463.837,466.706,470.12600000000003,473.153" svgx:width="0.5,0.42,0.29,0.5,0.36,0.42,0.55,0.29,0.5,0.36,0.55,0.36,0.52,0.5,0.42,0.25,0.42,0.42,0.3,0.36,0.5,0.52,0.42,0.55,0.56,0.52,0.88,0.55,0.81,0.42,0.44,0.36,0.52,0.36,0.42,0.81,0.42,0.54,0.3,0.36,0.55,0.34" style="fill:rgb(0,0,0);font-family:AdvTT78ea841c;font-size:9.5px;stroke:none;">before for subelectrode PFM measurements (</text>
   <text y="647.604" x="476.447,480.893" svgx:width="0.47,0.47" style="fill:rgb(0,0,0);font-family:AdvTT5a3b6cb0.I;font-size:9.5px;stroke:none;">29</text>
   <text y="647.604" x="485.292" svgx:width="0.22" style="fill:rgb(0,0,0);font-family:AdvTT78ea841c;font-size:9.5px;stroke:none;">,</text>
   <text y="647.604" x="490.394,494.84" svgx:width="0.47,0.47" style="fill:rgb(0,0,0);font-family:AdvTT5a3b6cb0.I;font-size:9.5px;stroke:none;">30</text>
   <text y="647.604" x="499.295,502.553,504.643,507.628,513.461,518.506,522.496,525.486,529.638,533.59,538.435,543.375,545.845,549.303,553.151" svgx:width="0.34,0.22,0.55,0.61,0.53,0.42,0.55,0.44,0.42,0.51,0.52,0.26,0.36,0.42,0.52" style="fill:rgb(0,0,0);font-family:AdvTT78ea841c;font-size:9.5px;stroke:none;">). The acquired</text>
   <text y="658.546" x="302.968,307.908,310.224,314.176,317.934,322.684,325.927,329.879,333.183,338.123,342.707,347.847,351.098,355.088,357.901,362.052,365.47200000000004,368.332,372.512,375.305,378.069,382.845,387.984,391.745,394.614,396.904,401.654,406.784,409.602,414.352,417.10699999999997,419.863,424.015,428.764,433.704,435.907,438.377,442.143,447.08299999999997,449.966,454.716,456.996,461.147,464.567,467.371,470.629,475.421,477.891,482.054,484.14399999999995,486.987,491.409,493.49899999999997,496.398,502.668,505.469,509.62,514.596,519.5360000000001,522.42,529.223,532.453,535.345,538.69,543.735,548.328,554.76" svgx:width="0.52,0.26,0.42,0.42,0.5,0.36,0.42,0.36,0.52,0.5,0.54,0.36,0.42,0.55,0.44,0.36,0.55,0.44,0.55,0.29,0.52,0.54,0.42,0.3,0.26,0.5,0.54,0.55,0.5,0.29,0.55,0.44,0.52,0.52,0.25,0.26,0.42,0.52,0.55,0.5,0.26,0.44,0.36,0.55,0.34,0.52,0.26,0.46,0.22,0.55,0.48,0.22,0.55,0.66,0.55,0.44,0.54,0.52,0.55,0.73,0.34,0.55,0.36,0.53,0.5,0.68,0.36" style="fill:rgb(0,0,0);font-family:AdvTT78ea841c;font-size:9.5px;stroke:none;">piezoresponse as a function of applied bias (Fig. 3, C and D) shows</text>
   <text y="669.488" x="302.968,306.266,312.538,314.806,317.526,321.319,326.204,330.196,334.786,337.001,340.991,343.691,348.576,352.768,356.066,358.731,362.523,365.822,369.614,372.323,374.591,378.581,381.281,385.871,389.664,394.549,398.54,402.732,405.042,409.578,412.998,415.757,419.55,424.14,429.12,432.418,434.729,438.027,440.692,444.49,449.47,452.32000000000005,455.083,461.354,463.665,466.33,471.365,474.097,476.806,481.691,485.683,488.533,491.296,494.594,498.386,502.179,507.30899999999997,510.002,512.312,517.442,520.193,522.857,526.145,530.137,534.918,537.228,539.893,542.203,546.794,551.774,555.765" svgx:width="0.36,0.68,0.26,0.3,0.42,0.53,0.44,0.5,0.25,0.42,0.55,0.53,0.46,0.36,0.3,0.42,0.36,0.42,0.3,0.26,0.42,0.55,0.5,0.42,0.53,0.44,0.46,0.26,0.5,0.36,0.55,0.42,0.5,0.54,0.36,0.26,0.36,0.3,0.42,0.54,0.3,0.55,0.68,0.26,0.3,0.53,0.55,0.3,0.53,0.44,0.3,0.55,0.36,0.42,0.42,0.54,0.55,0.26,0.54,0.55,0.3,0.36,0.44,0.52,0.26,0.3,0.26,0.5,0.54,0.44,0.25" style="fill:rgb(0,0,0);font-family:AdvTT78ea841c;font-size:9.5px;stroke:none;">switchable hysteretic behavior consistent with that seen in traditional</text>
   <text y="680.486" x="302.968,305.732,309.684,313.142,316.6,321.35,325.302,327.677,331.629,335.581,338.45,341.908,344.378,348.33,351.75,353.535,356.993,361.933,365.885,370.92,372.64,376.791,380.211,381.937,387.476,391.627,397.46,399.93" svgx:width="0.29,0.42,0.36,0.36,0.5,0.42,0.25,0.42,0.42,0.3,0.36,0.26,0.42,0.36,0.55,0.36,0.52,0.42,0.53,0.55,0.44,0.36,0.55,0.58,0.44,0.61,0.26,0.74" style="fill:rgb(0,0,0);font-family:AdvTT78ea841c;font-size:9.5px;stroke:none;">ferroelectrics such as BaTiO</text>
   <text y="682.016" x="406.998" svgx:width="0.48" style="fill:rgb(0,0,0);font-family:AdvTT78ea841c;font-size:6.33px;stroke:none;">3</text>
   <text y="680.485" x="412.101,416.252,421.392,426.332,428.031,433.37,438.12,441.379,447.012" svgx:width="0.44,0.54,0.52,0.55,0.56,0.5,0.34,0.59,0.36" style="fill:rgb(0,0,0);font-family:AdvTT78ea841c;font-size:9.5px;stroke:none;">and Pb(Zr</text>
   <text y="682.016" x="450.482" svgx:width="0.47" style="fill:rgb(0,0,0);font-family:AdvTT78ea841c;font-size:6.33px;stroke:none;">x</text>
   <text y="680.485" x="453.827,459.66" svgx:width="0.61,0.26" style="fill:rgb(0,0,0);font-family:AdvTT78ea841c;font-size:9.5px;stroke:none;">Ti</text>
   <text y="682.016" x="462.104,465.517,468.039" svgx:width="0.48,0.35,0.47" style="fill:rgb(0,0,0);font-family:AdvTT78ea841c;font-size:6.33px;stroke:none;">1-x</text>
   <text y="680.485" x="471.401,474.66" svgx:width="0.34,0.74" style="fill:rgb(0,0,0);font-family:AdvTT78ea841c;font-size:9.5px;stroke:none;">)O</text>
   <text y="682.016" x="481.72" svgx:width="0.48" style="fill:rgb(0,0,0);font-family:AdvTT78ea841c;font-size:6.33px;stroke:none;">3</text>
   <text y="680.485" x="486.765" svgx:width="0.34" style="fill:rgb(0,0,0);font-family:AdvTT78ea841c;font-size:9.5px;stroke:none;">(</text>
   <text y="680.485" x="490.053,494.499" svgx:width="0.47,0.47" style="fill:rgb(0,0,0);font-family:AdvTT5a3b6cb0.I;font-size:9.5px;stroke:none;">32</text>
   <text y="680.485" x="498.954,502.212,504.30199999999996,505.984,511.817,516.861,520.851,522.538,527.877,532.817,542.89,547.042,554.756" svgx:width="0.34,0.22,0.55,0.61,0.53,0.42,0.55,0.56,0.52,0.88,0.44,0.81,0.35" style="fill:rgb(0,0,0);font-family:AdvTT78ea841c;font-size:9.5px;stroke:none;">). The PFMam-</text>
   <text y="691.427" x="302.967,307.907,310.282,312.752,315.621,320.561,325.501,329.491,331.482,334.94,338.892,342.35,347.29,352.04,357.18,360.638,364.628,366.687,371.627,374.097,377.555,382.495,384.87,389.022,393.373,396.793,398.83,403.01,405.01,408.962,414.007,418.158,421.616,425.768,429.72,432.589,436.541,439.999,442.469,445.927,448.796,451.266,455.25600000000003,457.285,461.083,465.833,470.773,473.642,476.511,480.463,483.921,486.685,489.06,493.398,497.19800000000004,499.181,503.133,508.073,511.531,515.882,519.834,521.924,523.955,530.386,535.431,537.901,540.276,544.266,546.234,549.103,554.148" svgx:width="0.52,0.25,0.26,0.3,0.52,0.52,0.42,0.55,0.36,0.42,0.36,0.52,0.5,0.54,0.36,0.42,0.55,0.52,0.26,0.36,0.52,0.25,0.44,0.46,0.36,0.55,0.44,0.55,0.42,0.53,0.44,0.36,0.44,0.42,0.3,0.42,0.36,0.26,0.36,0.3,0.26,0.42,0.55,0.4,0.5,0.52,0.3,0.3,0.42,0.36,0.29,0.25,0.46,0.4,0.55,0.42,0.52,0.36,0.46,0.42,0.22,0.55,0.68,0.53,0.26,0.25,0.42,0.55,0.3,0.53,0.42" style="fill:rgb(0,0,0);font-family:AdvTT78ea841c;font-size:9.5px;stroke:none;">plitude response displays a characteristic “butterfly” curve, while the</text>
   <text y="702.369" x="302.967,306.735,311.302,314.577,317.851,321.62,324.895,329.651,334.218,339.174,343.879,346.204,351.16,355.53000000000003,358.077,362.834,367.695,371.663,374.938,378.928,381.458,384.746,388.514,391.789,396.546,401.112,406.068,409.3,413.29,415.876,419.618,423.881,428.742,431.029,435.595,437.882,440.568,443.988,446.633,450.813,453.38,458.137,462.956,466.924,470.199,474.189,476.719,479.044,484.0,488.167,491.936,495.211,498.443,500.767,505.334,510.464,513.044,516.119,518.406,520.293,524.062,525.95,528.0400000000001,530.599,534.779,537.345,542.107,546.927,550.895,554.169" svgx:width="0.42,0.5,0.36,0.36,0.42,0.36,0.52,0.5,0.54,0.52,0.26,0.54,0.46,0.55,0.52,0.53,0.44,0.36,0.42,0.55,0.36,0.42,0.36,0.52,0.5,0.54,0.36,0.42,0.55,0.42,0.47,0.53,0.26,0.5,0.26,0.3,0.36,0.55,0.44,0.55,0.52,0.53,0.44,0.36,0.42,0.55,0.26,0.54,0.46,0.42,0.36,0.36,0.26,0.5,0.54,0.55,0.34,0.26,0.22,0.42,0.22,0.22,0.55,0.44,0.55,0.52,0.53,0.44,0.36,0.42" style="fill:rgb(0,0,0);font-family:AdvTT78ea841c;font-size:9.5px;stroke:none;">corresponding phase response exhibits a phase inversion (i.e., a phase</text>
  </g>
  <rect style="stroke:blue;stroke-width:0.3;" x="80.164" y="99.786" height="204.888" width="433.758" title="3"/>
  <text y="99.786" class="image" id="image.3.1" width="433" height="204" x="80.164">image.3.1.80_514.100_305</text>
  <rect style="stroke:blue;stroke-width:0.3;" x="80.164" y="99.786" height="204.888" width="433.758" title="3"/>
  <text y="99.786" class="image" id="image.3.2" width="433" height="204" x="80.164">image.3.2.80_514.100_305</text>
  <g begin="text">
   <text y="271.672" x="35.887,39.787,41.812,46.184,48.059,50.91,55.05,56.925,60.718,64.618,68.518,71.33,74.143,78.519,82.487,84.512,88.412,91.765,94.495,97.397,99.422,102.797,105.618,110.065,114.355,120.76,124.66,126.685,131.186,134.411,137.195,140.008,143.908,147.11,151.482,153.507,157.407,161.403,165.828,168.66,170.685,175.035,177.9,184.538,188.672" svgx:width="0.52,0.27,0.58,0.25,0.55,0.55,0.25,0.55,0.52,0.52,0.38,0.38,0.57,0.52,0.27,0.52,0.45,0.36,0.38,0.27,0.45,0.55,0.59,0.57,0.85,0.52,0.27,0.58,0.43,0.55,0.38,0.52,0.43,0.57,0.27,0.52,0.52,0.59,0.55,0.27,0.58,0.55,0.88,0.54,0.52" style="fill:rgb(0,0,0);font-family:AdvTTaf7f9f4f.B;font-size:7.5px;stroke:none;">Fig. 2. Ferroelectric domains resolved in WTe</text>
   <text y="272.92" x="192.586" svgx:width="0.55" style="fill:rgb(0,0,0);font-family:AdvTTaf7f9f4f.B;font-size:5.0px;stroke:none;">2</text>
   <text y="271.672" x="195.704,198.906,200.931,205.304,209.764,211.789,215.689,218.552,221.904,224.717,228.616,231.819,234.549,238.564,240.589,243.792" svgx:width="0.43,0.27,0.58,0.58,0.27,0.52,0.55,0.45,0.38,0.52,0.43,0.36,0.52,0.27,0.43,0.25" style="fill:rgb(0,0,0);font-family:AdvTTaf7f9f4f.B;font-size:7.5px;stroke:none;">single crystals.</text>
   <text y="271.672" x="248.485" svgx:width="0.28" style="fill:rgb(0,0,0);font-family:AdvTTe45e47d2;font-size:7.5px;stroke:none;">(</text>
   <text y="271.672" x="250.64" svgx:width="0.64" style="fill:rgb(0,0,0);font-family:AdvTTaf7f9f4f.B;font-size:7.5px;stroke:none;">A</text>
   <text y="271.672" x="255.516,257.616,260.448,264.115,267.467,271.607,275.357,281.707,285.3,287.715,289.432,292.807,295.654,299.711,301.886,304.725,307.14,311.358,315.108,317.934,321.684,325.119,329.334,333.084,335.499,337.323,343.57,347.32,351.46,353.875,357.562,359.28700000000003,362.097,365.06,368.81,371.225,375.363,379.563,382.393,384.575,388.633,391.03299999999996,393.958,395.676,401.923,405.516,409.719,411.436,415.576,419.701,422.588,426.803,430.86,437.108,440.7,442.417,446.557,449.557,452.464,454.182,458.307,461.138,467.46,471.128" svgx:width="0.28,0.55,0.49,0.45,0.55,0.5,0.83,0.48,0.32,0.23,0.45,0.55,0.54,0.29,0.55,0.32,0.55,0.5,0.55,0.5,0.46,0.56,0.5,0.32,0.23,0.83,0.5,0.55,0.32,0.48,0.23,0.55,0.4,0.5,0.32,0.54,0.56,0.55,0.29,0.54,0.32,0.55,0.23,0.83,0.48,0.55,0.23,0.55,0.55,0.55,0.56,0.54,0.83,0.48,0.23,0.55,0.4,0.55,0.23,0.55,0.55,0.84,0.49,0.5" style="fill:rgb(0,0,0);font-family:AdvTTe45e47d2;font-size:7.5px;stroke:none;">) Schematic of the experimental setup for imaging domains in WTe</text>
   <text y="272.92" x="474.916" svgx:width="0.51" style="fill:rgb(0,0,0);font-family:AdvTTe45e47d2;font-size:5.0px;stroke:none;">2</text>
   <text y="271.672" x="480.642,483.605,485.322,489.543,493.683,495.401,499.151,501.959,505.311,507.798,511.308,514.27,516.685,520.384,522.101,525.064,526.564,529.398" svgx:width="0.4,0.23,0.55,0.55,0.23,0.5,0.55,0.45,0.32,0.47,0.4,0.32,0.48,0.23,0.4,0.2,0.55,0.28" style="fill:rgb(0,0,0);font-family:AdvTTe45e47d2;font-size:7.5px;stroke:none;">single crystals. (</text>
   <text y="271.672" x="531.496" svgx:width="0.59" style="fill:rgb(0,0,0);font-family:AdvTTaf7f9f4f.B;font-size:7.5px;stroke:none;">B</text>
   <text y="271.672" x="535.975,538.075,540.907,545.745,547.54,551.68,555.82" svgx:width="0.28,0.55,0.64,0.23,0.55,0.55,0.3" style="fill:rgb(0,0,0);font-family:AdvTTe45e47d2;font-size:7.5px;stroke:none;">) High-</text>
   <text y="281.65" x="35.887,42.135,45.808,49.948,54.198,55.916,58.223,59.941,63.382,66.975,69.505,71.223,75.401,79.526,82.431,86.488,90.821,93.236,95.073,98.425,102.102,103.827,106.751,108.468,114.801,118.394,122.625,126.375,129.258,133.396,135.571,138.498,140.913,145.131,148.881,151.821,158.144,161.912" svgx:width="0.83,0.48,0.55,0.55,0.23,0.29,0.23,0.45,0.48,0.32,0.23,0.54,0.55,0.55,0.54,0.56,0.32,0.23,0.45,0.48,0.23,0.55,0.23,0.83,0.48,0.55,0.5,0.55,0.54,0.29,0.55,0.32,0.55,0.5,0.55,0.84,0.49,0.5" style="fill:rgb(0,0,0);font-family:AdvTTe45e47d2;font-size:7.5px;stroke:none;">magnification optical image of the WTe</text>
   <text y="282.898" x="165.713" svgx:width="0.51" style="fill:rgb(0,0,0);font-family:AdvTTe45e47d2;font-size:5.0px;stroke:none;">2</text>
   <text y="281.651" x="171.496,174.458,176.258,180.398,184.649,186.366,190.116,193.039,196.497,198.912,202.507,205.469,208.006,211.598,213.323,216.282,219.245,222.915,229.163,233.517,235.235,239.073,240.573,243.439,245.253,249.393,252.453,256.203,258.60299999999995,261.58,264.543,268.78,272.838,278.418,281.418,284.258,288.396,292.611,295.142,296.86,300.302,303.986,305.711,308.578,310.296,316.629,320.314,324.453,328.203,331.142,335.199,337.374,340.326,343.92600000000004,346.846,351.061,355.237,356.954,360.479,363.4,369.807,373.474" svgx:width="0.4,0.23,0.55,0.55,0.23,0.5,0.55,0.45,0.32,0.47,0.4,0.32,0.48,0.23,0.55,0.4,0.48,0.83,0.56,0.23,0.5,0.2,0.55,0.23,0.55,0.4,0.5,0.32,0.55,0.4,0.55,0.54,0.73,0.4,0.55,0.54,0.56,0.32,0.23,0.45,0.48,0.23,0.55,0.23,0.83,0.48,0.55,0.5,0.55,0.54,0.29,0.55,0.48,0.55,0.56,0.54,0.23,0.47,0.55,0.84,0.49,0.5" style="fill:rgb(0,0,0);font-family:AdvTTe45e47d2;font-size:7.5px;stroke:none;">single crystal sample. Inset shows optical image of a bulk WTe</text>
   <text y="282.898" x="377.291" svgx:width="0.51" style="fill:rgb(0,0,0);font-family:AdvTTe45e47d2;font-size:5.0px;stroke:none;">2</text>
   <text y="281.651" x="383.074,386.036,387.836,391.976,396.227,398.041,401.791,404.674,408.027,410.57,414.08,417.147,419.562,423.27,424.987,426.487,429.392" svgx:width="0.4,0.23,0.55,0.55,0.23,0.5,0.55,0.45,0.32,0.47,0.4,0.32,0.48,0.23,0.2,0.55,0.28" style="fill:rgb(0,0,0);font-family:AdvTTe45e47d2;font-size:7.5px;stroke:none;">single crystal. (</text>
   <text y="281.651" x="431.547" svgx:width="0.59" style="fill:rgb(0,0,0);font-family:AdvTTaf7f9f4f.B;font-size:7.5px;stroke:none;">C</text>
   <text y="281.651" x="438.917,441.411" svgx:width="0.32,0.54" style="fill:rgb(0,0,0);font-family:AdvTTe45e47d2;font-size:7.5px;stroke:none;">to</text>
   <text y="281.651" x="448.385" svgx:width="0.53" style="fill:rgb(0,0,0);font-family:AdvTTaf7f9f4f.B;font-size:7.5px;stroke:none;">E</text>
   <text y="281.651" x="452.41,454.51000000000005,457.399,461.14,465.198,469.531,473.589,477.812,480.31,483.903,488.201,492.341,495.866,498.803,501.014,505.304,507.476,508.976,511.898,515.251,519.391,521.89,524.388,528.138,531.183,535.398,539.574,543.714,548.013,549.73,553.953" svgx:width="0.28,0.55,0.49,0.54,0.56,0.54,0.55,0.32,0.48,0.56,0.55,0.47,0.55,0.28,0.57,0.28,0.2,0.55,0.45,0.54,0.32,0.32,0.5,0.4,0.56,0.54,0.55,0.56,0.23,0.55,0.55" style="fill:rgb(0,0,0);font-family:AdvTTe45e47d2;font-size:7.5px;stroke:none;">) Topography (C), corresponding</text>
   <text y="291.628" x="35.887,39.869,43.462,49.462,51.875,55.467,61.714,65.929,67.647,69.364,71.779,75.837,80.052,83.802,86.173,88.281,93.201,95.308,96.808,99.212,102.805,106.945,111.145,113.556,117.538,121.131,127.131,129.544,133.758,137.898,141.491,144.453,148.203,150.633,152.351,158.598,162.191,166.331,170.081,173.081,175.408,177.515,181.183,183.29,184.79,187.2" svgx:width="0.53,0.48,0.8,0.55,0.48,0.83,0.56,0.23,0.23,0.32,0.54,0.56,0.5,0.55,0.28,0.66,0.28,0.2,0.55,0.48,0.55,0.56,0.55,0.53,0.48,0.8,0.55,0.56,0.55,0.48,0.4,0.5,0.55,0.23,0.83,0.48,0.55,0.5,0.4,0.55,0.28,0.49,0.28,0.2,0.55,0.28" style="fill:rgb(0,0,0);font-family:AdvTTe45e47d2;font-size:7.5px;stroke:none;">PFM amplitude (D), and PFM phase images (E). (</text>
   <text y="291.628" x="189.298" svgx:width="0.52" style="fill:rgb(0,0,0);font-family:AdvTTaf7f9f4f.B;font-size:7.5px;stroke:none;">F</text>
   <text y="291.628" x="195.591,198.006" svgx:width="0.32,0.54" style="fill:rgb(0,0,0);font-family:AdvTTe45e47d2;font-size:7.5px;stroke:none;">to</text>
   <text y="291.628" x="204.492" svgx:width="0.69" style="fill:rgb(0,0,0);font-family:AdvTTaf7f9f4f.B;font-size:7.5px;stroke:none;">H</text>
   <text y="291.628" x="209.651,211.751,214.13,218.968,220.685,224.825,228.965,231.23,237.478,241.07,245.21,249.35,251.067,253.25,254.967,258.32,261.912,264.327,266.045,270.102,274.227,276.719,278.436,284.683,288.276,292.416,294.133,298.273,302.398,304.781,308.838,311.01300000000003,313.454,316.417,322.664,326.257,327.974,329.699,332.05,334.232,337.982,340.397,342.812,346.87,350.619,352.337,356.087,359.439,361.854,364.269,365.987,369.362,371.791,376.006,380.063,386.311,389.903,391.621,395.761,398.761,401.157,404.907,409.047,412.4,414.117,418.175,421.137,424.887,429.087,431.488,436.955,438.673,441.088,445.228,446.945,451.07,453.541,455.956,460.096,463.846,466.24,468.655,472.405,475.757,478.172,481.765,485.905,490.045,491.762,495.512,497.931,500.893,505.033,509.091,514.558,518.683,521.061,522.779,526.904,529.338,531.446,535.113,537.221,538.721,541.13,543.545,547.603,551.818,555.875" svgx:width="0.28,0.55,0.64,0.23,0.55,0.55,0.3,0.83,0.48,0.55,0.55,0.23,0.29,0.23,0.45,0.48,0.32,0.23,0.54,0.55,0.55,0.23,0.83,0.48,0.55,0.23,0.55,0.55,0.55,0.54,0.29,0.55,0.4,0.83,0.48,0.23,0.23,0.55,0.29,0.5,0.32,0.32,0.54,0.5,0.23,0.5,0.45,0.32,0.32,0.23,0.45,0.55,0.56,0.54,0.83,0.48,0.23,0.55,0.4,0.55,0.5,0.55,0.45,0.23,0.54,0.4,0.5,0.56,0.55,0.73,0.23,0.32,0.55,0.23,0.55,0.55,0.32,0.55,0.5,0.55,0.32,0.5,0.45,0.32,0.48,0.55,0.55,0.23,0.5,0.55,0.4,0.55,0.54,0.73,0.55,0.55,0.23,0.55,0.55,0.28,0.49,0.28,0.2,0.55,0.32,0.54,0.56,0.54,0.3" style="fill:rgb(0,0,0);font-family:AdvTTe45e47d2;font-size:7.5px;stroke:none;">) High-magnification imaging of small ferroelectric domains enclosed within the rectangle shown in (E), topo-</text>
   <text y="301.549" x="35.888,40.028,42.443,46.035,50.25,54.39,57.915,59.869,61.976,65.569,67.676,69.176,71.207,74.559,78.617,81.032,83.447,87.197,90.159,94.374,98.432,102.572,106.787,108.504,112.644,116.769,118.828,122.811,126.403,132.40300000000002,134.419,138.012,144.259,148.474,150.192,151.909,154.324,158.381,162.596,166.346,168.321,170.428,175.266,177.373,178.873,180.907,184.499,188.639,192.839,194.853,198.835,202.428,208.428,210.443,214.658,218.798,222.391,225.353,229.103,231.079,232.797,239.044,242.637,246.777,250.527,253.527,255.514,257.622,262.459,264.567,266.067,268.043" svgx:width="0.55,0.32,0.48,0.56,0.55,0.47,0.55,0.28,0.48,0.28,0.2,0.55,0.45,0.54,0.32,0.32,0.5,0.4,0.56,0.54,0.55,0.56,0.23,0.55,0.55,0.55,0.53,0.48,0.8,0.55,0.48,0.83,0.56,0.23,0.23,0.32,0.54,0.56,0.5,0.55,0.28,0.64,0.28,0.2,0.55,0.48,0.55,0.56,0.55,0.53,0.48,0.8,0.55,0.56,0.55,0.48,0.4,0.5,0.55,0.23,0.83,0.48,0.55,0.5,0.4,0.55,0.28,0.64,0.28,0.2,0.55,0.28" style="fill:rgb(0,0,0);font-family:AdvTTe45e47d2;font-size:7.5px;stroke:none;">graphy (F), corresponding PFM amplitude (G), and PFM phase images (H). (</text>
   <text y="301.549" x="270.143" svgx:width="0.28" style="fill:rgb(0,0,0);font-family:AdvTTaf7f9f4f.B;font-size:7.5px;stroke:none;">I</text>
   <text y="301.549" x="274.281,276.696" svgx:width="0.32,0.54" style="fill:rgb(0,0,0);font-family:AdvTTe45e47d2;font-size:7.5px;stroke:none;">to</text>
   <text y="301.549" x="282.728" svgx:width="0.6" style="fill:rgb(0,0,0);font-family:AdvTTaf7f9f4f.B;font-size:7.5px;stroke:none;">K</text>
   <text y="301.549" x="287.263,289.363,291.402,295.692,298.107,302.164,305.127,308.089,310.354,313.317,317.067,320.419,322.834,324.551,328.609,332.749,336.341,338.06600000000003,340.1,344.315,346.73,350.788,352.97,354.688,356.405,360.155,363.155,365.158,369.216,371.391,373.379,375.794,379.851,384.066,388.123,392.263,394.678,398.271,402.486,406.626,410.15099999999995,412.156,414.264,415.981,418.089,419.589,421.567,425.549,429.142,435.142,437.158,440.75,446.998,451.213,452.93,454.648,457.063,461.12,465.335,469.085,471.117,473.224,475.954,478.061,479.561,481.548,485.141,489.281,493.481,495.494,499.709,503.849,507.442,510.404,514.154,516.187,518.295,522.352,524.452,526.448,530.041,533.393,535.808,539.866,542.828,545.828,547.822,550.237,554.377" svgx:width="0.28,0.55,0.57,0.32,0.54,0.4,0.4,0.3,0.4,0.5,0.45,0.32,0.23,0.54,0.55,0.48,0.23,0.55,0.56,0.32,0.54,0.29,0.23,0.23,0.5,0.4,0.55,0.54,0.29,0.55,0.32,0.54,0.56,0.54,0.55,0.32,0.48,0.56,0.55,0.47,0.55,0.28,0.23,0.28,0.2,0.55,0.53,0.48,0.8,0.55,0.48,0.83,0.56,0.23,0.23,0.32,0.54,0.56,0.5,0.55,0.28,0.36,0.28,0.2,0.55,0.48,0.55,0.56,0.55,0.56,0.55,0.48,0.4,0.5,0.55,0.28,0.54,0.28,0.55,0.48,0.45,0.32,0.54,0.4,0.4,0.55,0.32,0.55,0.5" style="fill:rgb(0,0,0);font-family:AdvTTe45e47d2;font-size:7.5px;stroke:none;">) Cross-sectional profiles of topography (I), PFM amplitude (J), and phase (K) across the</text>
   <text y="311.527" x="35.887,40.102,43.694,46.657,50.797,54.547,58.747,61.228,66.696,70.836,72.553,74.968,78.718,81.241,82.959,84.676,88.816,92.566,95.074,98.036,102.176,106.234,111.701,115.826,118.375,120.092,124.217,126.709,128.816,133.653,135.753,138.274,140.457,144.514,146.91400000000002,149.442,151.857,155.607,158.57,162.785,166.535,169.887,172.302,174.019,177.612,181.362,183.911,185.629,191.876,195.468,199.608,203.358,206.358,208.856,210.573,214.698,217.19,219.297,222.89,224.98999999999998,227.508,229.923,233.973,236.465,238.573,243.41,245.517" svgx:width="0.56,0.48,0.4,0.55,0.5,0.56,0.55,0.73,0.55,0.23,0.32,0.5,0.55,0.23,0.23,0.55,0.5,0.55,0.4,0.55,0.54,0.73,0.55,0.55,0.23,0.55,0.55,0.28,0.64,0.28,0.55,0.29,0.54,0.32,0.55,0.32,0.5,0.4,0.56,0.5,0.45,0.32,0.23,0.48,0.5,0.55,0.23,0.83,0.48,0.55,0.5,0.4,0.55,0.23,0.55,0.55,0.28,0.48,0.28,0.55,0.32,0.54,0.55,0.28,0.64,0.28,0.2" style="fill:rgb(0,0,0);font-family:AdvTTe45e47d2;font-size:7.5px;stroke:none;">dashed white line shown in (H) for respective images in (F) to (H).</text>
  </g>
  <path style="fill:rgb(35,31,32);stroke:none;stroke-width:1.0;" d="M80.16 55.79 L513.75 55.79 L513.75 260.67 L80.16 260.67 M558.14 46.09 L35.89 46.09 L35.89 45.58 L558.14 45.58 "/>
  <g begin="text">
   <text y="39.628" x="35.887,41.277,42.961,50.948,53.478,55.162,60.552,62.236,71.147,79.135,84.525,89.85,98.183,107.095,114.862,123.201,132.112,140.099,145.48899999999998,147.173" svgx:width="0.49,0.55,0.57,0.23,0.55,0.49,0.55,0.66,0.57,0.49,0.55,0.6,0.66,0.55,0.6,0.66,0.57,0.49,0.55,0.49" style="fill:rgb(35,31,32);font-family:AdvTTe45e47d2;font-size:11.0px;stroke:none;">S CI E NCE ADVANCE S</text>
   <text y="38.608" x="159.76" svgx:width="0.23" style="fill:rgb(35,31,32);font-family:AdvTTe45e47d2;font-size:11.0px;stroke:none;">|</text>
   <text y="39.628" x="169.454,176.993,182.38299999999998,184.069,189.45899999999997,191.145,196.535,198.222,206.563,214.101,222.091,229.131,234.563,242.896,250.435,255.825,257.511,260.041,261.727,269.717,274.887,276.562" svgx:width="0.53,0.49,0.55,0.49,0.55,0.49,0.55,0.6,0.53,0.57,0.64,0.55,0.6,0.53,0.49,0.55,0.23,0.55,0.57,0.47,0.55,0.49" style="fill:rgb(181,17,26);font-family:AdvTTe45e47d2;font-size:11.0px;stroke:none;">RE S E ARCH ART I CL E</text>
   <text y="724.819" x="35.887,39.554,43.694,47.286,49.701,55.949" svgx:width="0.49,0.55,0.48,0.32,0.83,0.48" style="fill:rgb(0,0,0);font-family:AdvTTe45e47d2;font-size:7.5px;stroke:none;">Sharma</text>
   <text y="724.819" x="62.022,65.375,67.7,70.243,74.143" svgx:width="0.45,0.31,0.55,0.52,0.22" style="fill:rgb(0,0,0);font-family:AdvTT7329fd89.I;font-size:7.5px;stroke:none;">et al</text>
   <text y="724.819" x="75.799,77.276" svgx:width="0.2,0.2" style="fill:rgb(0,0,0);font-family:AdvTTe45e47d2;font-size:7.5px;stroke:none;">.,</text>
   <text y="724.819" x="81.242,84.676,87.796,89.431,91.006,93.544,97.759,101.658,105.011" svgx:width="0.46,0.42,0.22,0.21,0.55,0.56,0.52,0.45,0.21" style="fill:rgb(0,0,0);font-family:AdvTT7329fd89.I;font-size:7.5px;stroke:none;">Sci. Adv.</text>
   <text y="724.819" x="109.077,112.902,116.727,120.552,124.377" svgx:width="0.51,0.51,0.51,0.51,0.2" style="fill:rgb(0,0,0);font-family:AdvTTe45e47d2;font-size:7.5px;stroke:none;">2019;</text>
   <text y="724.819" x="126.879" svgx:width="0.55" style="fill:rgb(0,0,0);font-family:AdvTTaf7f9f4f.B;font-size:7.5px;stroke:none;">5</text>
   <text y="724.819" x="131.981,133.481,134.476,138.226,141.818,145.411,148.846,152.671,156.495,160.32,164.14499999999998,176.598,180.423,182.948,185.678,189.735,191.453,194.978,197.461,201.286,205.111,208.936" svgx:width="0.2,0.55,0.5,0.48,0.48,0.46,0.51,0.51,0.51,0.51,0.55,0.51,0.55,0.36,0.54,0.23,0.47,0.55,0.51,0.51,0.51,0.51" style="fill:rgb(0,0,0);font-family:AdvTTe45e47d2;font-size:7.5px;stroke:none;">: eaax5080 5 July 2019</text>
   <text y="724.819" x="538.072,542.197,544.714,549.004,551.479,554.004" svgx:width="0.55,0.55,0.57,0.33,0.55,0.55" style="fill:rgb(0,0,0);font-family:AdvTTaf7f9f4f.B;font-size:7.5px;stroke:none;">3 of 8</text>
  </g>
 </g>
</svg>
