<?xml version="1.0" encoding="UTF-8"?>
<svg height="734.819" width="4126.957" xmlns="http://www.w3.org/2000/svg">
 <g id="page" xmlns:svgx="http://www.xml-cml.org/schema/svgx">
  <g begin="text">
   <text y="461.254" x="35.887,40.038,43.496,46.954,51.704,55.656,58.126,62.278,65.147,69.099,74.039,76.987,83.419,85.889,88.758,93.79299999999999,96.716,100.89599999999999,103.746,106.121,110.273,113.731,118.082,122.07199999999999,124.948,127.418,132.558,135.921,140.861,143.236,147.387,152.527,156.517,159.416,161.791,165.943,168.812,171.681,174.151,178.18,182.17000000000002,184.983,189.923,192.393,195.851,200.791,203.166,207.318,211.27,215.222,222.936,226.888,232.15,235.019,237.109,239.973,247.193,251.943,258.375,262.327,266.678,270.63,274.088,276.178,279.089,281.958,287.003" svgx:width="0.44,0.36,0.36,0.5,0.42,0.26,0.44,0.3,0.42,0.52,0.55,0.68,0.26,0.3,0.53,0.55,0.44,0.55,0.25,0.44,0.36,0.46,0.42,0.55,0.26,0.54,0.35,0.52,0.25,0.44,0.54,0.42,0.55,0.25,0.44,0.3,0.3,0.26,0.42,0.42,0.55,0.52,0.26,0.36,0.52,0.25,0.44,0.42,0.42,0.81,0.42,0.54,0.3,0.22,0.55,0.76,0.5,0.68,0.42,0.46,0.42,0.36,0.22,0.55,0.3,0.53,0.42" style="fill:rgb(0,0,0);font-family:AdvTT78ea841c;font-size:9.5px;stroke:none;">associated with a large in-plane lattice displacement. However, the</text>
   <text y="472.252" x="35.887" svgx:width="0.59" style="fill:rgb(0,0,0);font-family:AdvTT5a3b6cb0.I;font-size:9.5px;stroke:none;">T</text>
   <text y="473.839" x="41.613" svgx:width="0.5" style="fill:rgb(0,0,0);font-family:AdvTT5a3b6cb0.I;font-size:6.33px;stroke:none;">d</text>
   <text y="472.252" x="46.998,52.035,57.177,61.425,64.98,68.97,70.763,73.37,76.79,78.7,82.88,84.71,89.746,92.313,95.868,98.834,103.681,107.236,110.202,114.284,119.224,121.087,123.978,128.825,132.38,141.96,146.779,149.534,151.427,154.375,159.516,163.506,165.299,170.44,174.523,179.065,183.314,187.762,192.609,197.845,202.093,204.468,206.346,209.918,212.884,216.438,221.475,225.524,228.49,233.527,237.082,241.072,242.922,249.45,252.017,254.983,260.01800000000003,261.9,266.08,267.909,270.914,275.959,279.588,283.67,287.695" svgx:width="0.52,0.53,0.44,0.36,0.42,0.55,0.26,0.36,0.55,0.44,0.55,0.52,0.26,0.36,0.3,0.5,0.36,0.3,0.42,0.52,0.55,0.29,0.5,0.36,0.81,0.5,0.29,0.55,0.3,0.53,0.42,0.55,0.53,0.42,0.47,0.44,0.46,0.5,0.54,0.44,0.25,0.55,0.36,0.3,0.36,0.52,0.42,0.3,0.52,0.36,0.42,0.55,0.68,0.26,0.3,0.53,0.55,0.44,0.55,0.3,0.53,0.36,0.42,0.42,0.35" style="fill:rgb(0,0,0);font-family:AdvTT78ea841c;font-size:9.5px;stroke:none;">phase is a distorted formof the hexagonal structure with a three-</text>
   <text y="483.194" x="35.886,38.454,43.007,45.186,50.126,52.386,55.647,60.201,62.873,66.828,69.5,71.825,76.378,81.508,83.748,87.01,91.164,98.681,106.199,109.954,112.675,115.907,120.277,122.483,125.6,130.344,132.617,136.771,138.861,141.08,145.434,151.469,154.531,156.621,158.839,164.475,169.323,173.121,176.427,180.225,182.774,187.366,190.653,194.408,196.498,198.715,201.388,206.236,209.991,213.252,217.24200000000002,219.431,223.398,226.66,230.65,232.838,235.511,240.359,243.62,247.417,251.407,253.596,257.337,262.041,266.803,269.076,273.23,277.185,279.364,283.119,288.107" svgx:width="0.29,0.5,0.25,0.52,0.55,0.36,0.5,0.3,0.44,0.3,0.26,0.5,0.54,0.55,0.36,0.46,0.81,0.81,0.42,0.3,0.36,0.46,0.55,0.34,0.52,0.26,0.46,0.22,0.55,0.48,0.66,0.34,0.22,0.55,0.61,0.53,0.42,0.36,0.42,0.29,0.5,0.36,0.42,0.22,0.55,0.3,0.53,0.42,0.36,0.42,0.55,0.44,0.36,0.42,0.55,0.3,0.53,0.36,0.42,0.42,0.55,0.42,0.51,0.52,0.26,0.46,0.44,0.25,0.42,0.54,0.3" style="fill:rgb(0,0,0);font-family:AdvTT78ea841c;font-size:9.5px;stroke:none;">fold rotation symmetry (Fig. 4C). Therefore, there are three equivalent</text>
   <text y="494.136" x="35.886,40.705,43.175,46.43,49.151,53.901,57.144,60.013,62.247,66.997,72.127,74.889,79.24,82.94,86.892,89.573,94.323,97.566,100.986,103.859" svgx:width="0.52,0.26,0.36,0.3,0.5,0.36,0.3,0.26,0.5,0.54,0.55,0.46,0.42,0.42,0.3,0.5,0.36,0.36,0.55,0.34" style="fill:rgb(0,0,0);font-family:AdvTT78ea841c;font-size:9.5px;stroke:none;">distortion vectors (</text>
   <text y="494.136" x="106.979,111.425" svgx:width="0.47,0.47" style="fill:rgb(0,0,0);font-family:AdvTT5a3b6cb0.I;font-size:9.5px;stroke:none;">43</text>
   <text y="494.136" x="115.653,118.912,121.00200000000001,123.76,129.593,134.418,138.40800000000002,141.165,144.51,150.942,153.184,156.053,159.817,164.749,167.219,172.119,176.489,179.319,184.069,187.823,190.543,196.975,200.691,204.643,209.773,212.54,217.29,222.007,226.827,231.577,234.82,237.29,239.922,243.912,246.725,251.545,256.295,258.461,262.486,265.831,268.301,272.067,276.092,278.961,281.194,285.944" svgx:width="0.34,0.22,0.55,0.61,0.53,0.42,0.55,0.36,0.68,0.26,0.3,0.42,0.53,0.26,0.54,0.46,0.55,0.5,0.42,0.3,0.68,0.42,0.42,0.54,0.55,0.5,0.52,0.52,0.5,0.36,0.26,0.3,0.42,0.55,0.52,0.5,0.25,0.44,0.36,0.26,0.42,0.44,0.3,0.26,0.5,0.54" style="fill:rgb(0,0,0);font-family:AdvTT78ea841c;font-size:9.5px;stroke:none;">). The switching between opposite polarization</text>
   <text y="505.134" x="35.886,39.146,41.867,45.819,48.49,52.243,55.663000000000004,57.856,64.089,66.36,69.031,74.066,76.174,80.915,83.24,85.806,88.414,92.167,95.427,99.18,104.169,107.01899999999999,109.159,113.921,116.193,119.452,122.122,126.674,129.933,132.604,134.928,139.464,144.594,146.721,150.859,154.657,158.399,161.12,165.655,168.915,172.33499999999998,174.47,177.53,179.855,181.727,185.481,187.408" svgx:width="0.36,0.3,0.44,0.3,0.42,0.36,0.55,0.68,0.26,0.3,0.53,0.55,0.52,0.26,0.29,0.29,0.42,0.36,0.42,0.54,0.3,0.55,0.52,0.26,0.36,0.3,0.5,0.36,0.3,0.26,0.5,0.54,0.55,0.46,0.42,0.42,0.3,0.5,0.36,0.36,0.55,0.34,0.26,0.22,0.42,0.22,0.22" style="fill:rgb(0,0,0);font-family:AdvTT78ea841c;font-size:9.5px;stroke:none;">states with different distortion vectors (i.e.,</text>
   <text y="505.134" x="191.622" svgx:width="0.55" style="fill:rgb(0,0,0);font-family:AdvTT5a3b6cb0.I;font-size:9.5px;stroke:none;">P</text>
   <text y="506.721" x="196.668,200.182" svgx:width="0.52,0.52" style="fill:rgb(0,0,0);font-family:AdvTT78ea841c;font-size:6.33px;stroke:none;">up</text>
   <text y="505.134" x="205.965,210.519,213.274,215.394,219.947,224.937,228.92700000000002,231.003,235.765,238.038,241.3,243.972,248.525,251.787,254.459,256.784,261.319,266.449,268.576,272.771,276.527,280.325,282.997,287.55" svgx:width="0.5,0.29,0.55,0.5,0.54,0.42,0.55,0.52,0.26,0.36,0.3,0.5,0.36,0.3,0.26,0.5,0.54,0.55,0.46,0.42,0.42,0.3,0.5,0.36" style="fill:rgb(0,0,0);font-family:AdvTT78ea841c;font-size:9.5px;stroke:none;">of one distortion vector</text>
   <text y="516.076" x="35.887,39.871,44.843" svgx:width="0.44,0.54,0.52" style="fill:rgb(0,0,0);font-family:AdvTT78ea841c;font-size:9.5px;stroke:none;">and</text>
   <text y="516.076" x="52.555" svgx:width="0.55" style="fill:rgb(0,0,0);font-family:AdvTT5a3b6cb0.I;font-size:9.5px;stroke:none;">P</text>
   <text y="517.663" x="57.6,61.157,64.572,69.221" svgx:width="0.52,0.5,0.68,0.54" style="fill:rgb(0,0,0);font-family:AdvTT78ea841c;font-size:6.33px;stroke:none;">down</text>
   <text y="516.076" x="75.855,80.446,83.201,85.946,89.939,94.92,99.511,102.221,107.107,110.901,114.321,117.136,121.899,124.21,127.509,130.22,134.811,138.11,140.821,143.132,147.724,152.85399999999998,155.604,159.799,163.592,167.386,170.096,174.687,177.987,181.21699999999998,183.996,187.284,192.17,196.762,201.543,203.759,208.69899999999998,211.413,216.345,220.338,224.53,228.52,231.22,234.565,242.12,246.113,248.329,250.704,254.395,257.815,260.575,262.886,267.867,271.072,275.853,278.069,282.062,287.043" svgx:width="0.5,0.29,0.55,0.44,0.54,0.5,0.3,0.53,0.42,0.36,0.55,0.52,0.26,0.36,0.3,0.5,0.36,0.3,0.26,0.5,0.54,0.55,0.46,0.42,0.42,0.3,0.5,0.36,0.34,0.55,0.36,0.53,0.5,0.52,0.25,0.52,0.55,0.53,0.44,0.46,0.42,0.55,0.36,0.81,0.44,0.25,0.25,0.42,0.36,0.55,0.26,0.54,0.35,0.52,0.25,0.44,0.54,0.42" style="fill:rgb(0,0,0);font-family:AdvTT78ea841c;font-size:9.5px;stroke:none;">of another distortion vector) should have smaller in-plane</text>
   <text y="527.018" x="35.887,39.87,42.571,47.153,54.699,57.0,60.99,63.633,68.453,70.72,74.01,78.782,80.989,84.972,88.756,92.54,100.086,103.87,108.841,111.542,114.962,117.722,122.303,127.43299999999999,130.127,134.11,138.293,142.077,145.367,149.35,153.533,157.317,159.407,162.079,164.286,168.07,172.053,176.825,179.127,184.098,188.46800000000002,191.185,193.85,198.6,201.333,205.513,208.193,211.483,219.029,223.012,225.219,227.426,231.21,234.63,237.389,241.131,246.103,249.887,253.176,257.359,261.729,264.389,268.982,272.965,276.255,279.545,281.846,285.63,288.92" svgx:width="0.44,0.3,0.5,0.81,0.26,0.42,0.55,0.52,0.26,0.36,0.52,0.25,0.44,0.42,0.42,0.81,0.42,0.54,0.3,0.36,0.55,0.5,0.54,0.55,0.44,0.46,0.42,0.36,0.44,0.46,0.42,0.22,0.55,0.25,0.42,0.44,0.52,0.26,0.54,0.46,0.55,0.3,0.5,0.55,0.44,0.55,0.36,0.81,0.44,0.25,0.25,0.42,0.36,0.55,0.42,0.54,0.42,0.36,0.46,0.46,0.55,0.5,0.44,0.36,0.36,0.26,0.42,0.36,0.22" style="fill:rgb(0,0,0);font-family:AdvTT78ea841c;font-size:9.5px;stroke:none;">atomic displacements on average, leading to a smaller energy barrier.</text>
   <text y="538.016" x="35.887,42.237,45.657000000000004,48.472,51.76,56.636,61.228,67.521,72.651,75.401,77.612,82.74199999999999,85.435,90.14,92.359,96.46,98.55,101.222,105.53,112.465,115.111,118.116,122.615,127.114,129.732,132.351,136.85,144.313,147.321,149.411,152.083,154.294,159.424,162.061,164.726,169.488,171.699,175.119,177.821,181.053,184.755,188.456,193.344,197.245,200.452,202.672,207.171,209.261,211.933,214.551,219.345,223.335,225.921,229.663,234.552,238.253,241.46,245.56,249.93,252.59,257.069,260.969,264.176,267.384,269.603,273.304,276.724,279.427,283.926,287.627" svgx:width="0.69,0.36,0.55,0.36,0.53,0.5,0.68,0.54,0.55,0.26,0.54,0.55,0.52,0.26,0.46,0.22,0.55,0.48,0.73,0.55,0.34,0.5,0.5,0.3,0.3,0.5,0.81,0.34,0.22,0.55,0.26,0.54,0.55,0.3,0.53,0.26,0.36,0.55,0.36,0.42,0.42,0.54,0.44,0.36,0.26,0.5,0.22,0.55,0.3,0.53,0.42,0.55,0.42,0.54,0.42,0.36,0.46,0.46,0.55,0.5,0.44,0.36,0.36,0.26,0.42,0.36,0.55,0.5,0.42,0.35" style="fill:rgb(0,0,0);font-family:AdvTT78ea841c;font-size:9.5px;stroke:none;">As shown in Fig. 4D (bottom), in this scenario, the energy barrier be-</text>
   <text y="548.958" x="35.887,38.437,44.617,48.245,51.93,57.06,58.62,63.042,67.748,72.396,76.874,80.049,82.204,84.812,88.80199999999999,90.254,95.017,99.58,101.769,105.734,109.006,111.29,115.056,119.021,121.704,123.988,128.552,133.682,135.241,138.529,141.212,145.178,147.86,151.626,155.046,156.672,161.434,165.2,170.153,174.717,177.4,181.165,186.105,187.741,191.707" svgx:width="0.3,0.68,0.42,0.42,0.54,0.55,0.5,0.52,0.52,0.5,0.36,0.26,0.3,0.42,0.55,0.52,0.5,0.25,0.44,0.36,0.26,0.42,0.44,0.3,0.26,0.5,0.54,0.55,0.36,0.3,0.44,0.3,0.42,0.36,0.55,0.52,0.42,0.54,0.5,0.3,0.42,0.52,0.55,0.44,0.36" style="fill:rgb(0,0,0);font-family:AdvTT78ea841c;font-size:9.5px;stroke:none;">tween opposite polarization states denoted as</text>
   <text y="548.958" x="196.781" svgx:width="0.55" style="fill:rgb(0,0,0);font-family:AdvTT5a3b6cb0.I;font-size:9.5px;stroke:none;">P</text>
   <text y="550.545" x="201.827,205.341,208.913" svgx:width="0.52,0.52,0.48" style="fill:rgb(0,0,0);font-family:AdvTT78ea841c;font-size:6.33px;stroke:none;">up1</text>
   <text y="548.958" x="213.902,217.858,222.802" svgx:width="0.44,0.54,0.52" style="fill:rgb(0,0,0);font-family:AdvTT78ea841c;font-size:9.5px;stroke:none;">and</text>
   <text y="548.958" x="229.38" svgx:width="0.55" style="fill:rgb(0,0,0);font-family:AdvTT5a3b6cb0.I;font-size:9.5px;stroke:none;">P</text>
   <text y="550.545" x="234.425,237.954,241.341,245.933,249.618" svgx:width="0.52,0.5,0.68,0.54,0.48" style="fill:rgb(0,0,0);font-family:AdvTT78ea841c;font-size:6.33px;stroke:none;">down2</text>
   <text y="548.958" x="254.608,256.9,260.32,261.946,265.226,269.0,273.763,278.525,282.299,286.074" svgx:width="0.26,0.36,0.55,0.36,0.42,0.52,0.52,0.42,0.42,0.52" style="fill:rgb(0,0,0);font-family:AdvTT78ea841c;font-size:9.5px;stroke:none;">is reduced</text>
   <text y="559.9" x="35.887,38.567,43.317,44.973,49.335,51.217,55.578,60.138000000000005,61.814,65.612,72.018,74.888,77.463,79.391,84.153,86.24300000000001,87.895,93.508,98.363,100.644,104.06400000000001,105.804,109.942,113.904,116.115,120.866,124.856,126.478,128.759,132.17899999999997,133.919,137.188,144.713,148.675,150.886,153.096,156.839,160.259,161.998,164.663,169.518,173.481,178.611,180.284,183.344,187.905,192.656,195.506,197.192,200.99,205.551,213.076,217.827,221.789,225.058,229.02,233.581,235.792,239.782,241.405,244.069,248.662,251.892,253.594,256.274,261.129,265.119,266.742,270.484,275.473,279.216,282.484,286.68" svgx:width="0.3,0.5,0.55,0.48,0.22,0.48,0.48,0.55,0.42,0.7,0.32,0.29,0.22,0.52,0.22,0.55,0.61,0.53,0.26,0.36,0.55,0.46,0.44,0.25,0.52,0.42,0.55,0.26,0.36,0.55,0.36,0.81,0.44,0.25,0.25,0.42,0.36,0.55,0.3,0.53,0.44,0.54,0.55,0.34,0.5,0.52,0.3,0.55,0.42,0.5,0.81,0.52,0.44,0.36,0.44,0.5,0.25,0.42,0.55,0.3,0.5,0.34,0.55,0.3,0.53,0.42,0.55,0.42,0.54,0.42,0.36,0.46,0.46" style="fill:rgb(0,0,0);font-family:AdvTT78ea841c;font-size:9.5px;stroke:none;">to 0.29 eV/f.u. This value is smaller than (but comparable to) the energy</text>
   <text y="570.842" x="35.887,40.441,44.396,47.657,50.918,53.192,56.947,60.367000000000004,62.162,66.716,69.47099999999999,71.251,76.489,80.842,82.77,87.078,91.638,93.371,97.169,103.594,106.456,109.064,110.935,115.678,117.768,119.476,122.044,126.636,130.05599999999998,131.796,137.181,139.454,144.198,147.996" svgx:width="0.5,0.44,0.36,0.36,0.26,0.42,0.36,0.55,0.5,0.29,0.55,0.57,0.48,0.22,0.48,0.48,0.55,0.42,0.7,0.32,0.29,0.22,0.52,0.22,0.55,0.29,0.5,0.36,0.55,0.58,0.26,0.52,0.42,0.74" style="fill:rgb(0,0,0);font-family:AdvTT78ea841c;font-size:9.5px;stroke:none;">barrier of ~0.43 eV/f.u. for BiFeO</text>
   <text y="572.428" x="154.828" svgx:width="0.48" style="fill:rgb(0,0,0);font-family:AdvTT78ea841c;font-size:6.33px;stroke:none;">3</text>
   <text y="570.841" x="159.987" svgx:width="0.34" style="fill:rgb(0,0,0);font-family:AdvTT78ea841c;font-size:9.5px;stroke:none;">(</text>
   <text y="570.841" x="163.049,167.301" svgx:width="0.47,0.47" style="fill:rgb(0,0,0);font-family:AdvTT5a3b6cb0.I;font-size:9.5px;stroke:none;">44</text>
   <text y="570.841" x="171.553,174.647,176.737,178.445,182.625,184.341,189.103,192.335,196.927,199.592,204.127,206.832,210.97,215.746,218.013,221.801,225.788,228.163,229.87,232.478,236.22,239.514,242.807,247.343,251.13,253.285,257.073,260.815,263.479,266.767,269.035,273.02500000000003,274.761,281.028,283.296,285.96" svgx:width="0.34,0.22,0.55,0.44,0.55,0.52,0.36,0.5,0.3,0.5,0.3,0.46,0.52,0.26,0.42,0.44,0.25,0.55,0.29,0.42,0.36,0.36,0.5,0.42,0.25,0.42,0.42,0.3,0.36,0.26,0.42,0.55,0.68,0.26,0.3,0.53" style="fill:rgb(0,0,0);font-family:AdvTT78ea841c;font-size:9.5px;stroke:none;">), a prototypical ferroelectric with</text>
   <text y="581.839" x="35.887,40.067,42.747,47.622,49.89,54.085,59.120000000000005,61.795,67.748,72.387,75.544,77.713,81.70299999999999,84.232,86.8,90.451,97.864,102.503,106.154,109.311,113.161,115.729,120.368,123.524,127.514,130.044,133.049,138.182,142.431,146.681,150.93,155.49,158.017,164.043,167.0,169.09,171.649,178.204,180.68,183.25,186.409,190.261,195.101,198.26,200.431,203.001,205.171,209.622,214.752,217.332,221.973,225.771,228.341,233.376,235.938,238.403,242.854,246.274,248.864,253.512,257.963,260.039,263.891,267.05,269.22,272.873,276.725,279.295,281.466,285.917" svgx:width="0.44,0.55,0.53,0.26,0.46,0.53,0.55,0.66,0.52,0.36,0.26,0.42,0.55,0.3,0.42,0.81,0.52,0.42,0.36,0.44,0.3,0.52,0.36,0.42,0.55,0.34,0.57,0.48,0.48,0.48,0.48,0.55,0.67,0.34,0.22,0.55,0.69,0.55,0.3,0.36,0.44,0.54,0.36,0.26,0.3,0.26,0.5,0.54,0.55,0.52,0.44,0.3,0.53,0.55,0.29,0.5,0.36,0.55,0.52,0.5,0.25,0.44,0.36,0.26,0.42,0.44,0.3,0.26,0.5,0.54" style="fill:rgb(0,0,0);font-family:AdvTT78ea841c;font-size:9.5px;stroke:none;">a high Curie temperature (~1000 K). A transition path for polarization</text>
   <text y="592.781" x="35.887,39.022,45.13,47.277,49.823,53.452,58.174,60.321,65.137,69.507,71.147,73.415,78.545,80.388,89.402,95.015" svgx:width="0.36,0.68,0.26,0.3,0.42,0.53,0.26,0.54,0.46,0.55,0.26,0.54,0.55,0.97,0.61,0.42" style="fill:rgb(0,0,0);font-family:AdvTT78ea841c;font-size:9.5px;stroke:none;">switching in WTe</text>
   <text y="594.369" x="98.816" svgx:width="0.48" style="fill:rgb(0,0,0);font-family:AdvTT78ea841c;font-size:6.33px;stroke:none;">2</text>
   <text y="592.781" x="103.975,110.208,112.532,115.203,120.238,122.063,126.016,131.14600000000002,132.933,136.686,140.881,144.635,149.765,151.552,153.728,158.28,164.513,168.311,171.731,173.583,177.325,182.266,186.064,189.324,193.476,197.846,199.599,204.191,208.144,211.404,214.663,216.988,220.741,224.161,226.014,230.86,234.813,238.23299999999998,240.085,244.053,246.23,249.489,254.239,256.009,260.601,264.355,268.153,273.283,275.069,279.831,283.091,287.642" svgx:width="0.68,0.26,0.3,0.53,0.55,0.44,0.54,0.55,0.42,0.46,0.42,0.54,0.55,0.25,0.5,0.68,0.42,0.36,0.55,0.42,0.54,0.42,0.36,0.46,0.46,0.55,0.5,0.44,0.36,0.36,0.26,0.42,0.36,0.55,0.53,0.44,0.36,0.55,0.44,0.25,0.36,0.5,0.55,0.5,0.42,0.42,0.54,0.55,0.52,0.36,0.5,0.35" style="fill:rgb(0,0,0);font-family:AdvTT78ea841c;font-size:9.5px;stroke:none;">with an even lower energy barrier has also been pro-</text>
   <text y="603.723" x="35.886,40.557,45.037,48.225,51.907,56.846999999999994,58.767,61.942,65.624,69.252,72.934,77.804,80.403,82.444,86.81400000000001,88.737" svgx:width="0.52,0.5,0.36,0.42,0.52,0.55,0.36,0.42,0.42,0.42,0.54,0.3,0.25,0.46,0.55,0.34" style="fill:rgb(0,0,0);font-family:AdvTT78ea841c;font-size:9.5px;stroke:none;">posed recently (</text>
   <text y="603.723" x="91.728,95.867" svgx:width="0.47,0.47" style="fill:rgb(0,0,0);font-family:AdvTT5a3b6cb0.I;font-size:9.5px;stroke:none;">45</text>
   <text y="603.723" x="100.062,103.056,105.146,107.024,113.98,117.608,122.484,126.172,129.859,131.949,133.828,138.503,142.926,145.037,148.924,152.118,154.273,157.96,161.848,164.453,166.659,171.081,176.21099999999998,178.168,181.362,187.529,189.684,192.292,195.979,200.76,202.914,207.79,212.16,214.083,216.237,221.367,223.324,232.282,237.851" svgx:width="0.34,0.22,0.55,0.76,0.42,0.54,0.42,0.42,0.22,0.55,0.52,0.5,0.25,0.44,0.36,0.26,0.42,0.44,0.3,0.26,0.5,0.54,0.55,0.36,0.68,0.26,0.3,0.42,0.53,0.26,0.54,0.46,0.55,0.26,0.54,0.55,0.97,0.61,0.42" style="fill:rgb(0,0,0);font-family:AdvTT78ea841c;font-size:9.5px;stroke:none;">). Hence, polarization switching in WTe</text>
   <text y="605.31" x="241.455" svgx:width="0.48" style="fill:rgb(0,0,0);font-family:AdvTT78ea841c;font-size:6.33px;stroke:none;">2</text>
   <text y="603.723" x="246.841,249.021,252.44099999999997,254.407,258.319,261.947,266.702,268.912,272.597,276.679,280.541,285.001,287.087" svgx:width="0.26,0.36,0.55,0.44,0.42,0.53,0.26,0.42,0.46,0.44,0.5,0.25,0.42" style="fill:rgb(0,0,0);font-family:AdvTT78ea841c;font-size:9.5px;stroke:none;">is achievable</text>
   <text y="614.721" x="35.888,40.56,45.431,50.103,53.788,57.208,59.513,64.389,68.811,71.986,79.432,83.315,85.69,87.964,91.592,95.77,100.442,104.126,107.316,109.518,116.964,120.649,125.468,128.069,131.953,134.328,136.601,140.286,144.768,149.587,154.259,156.413,159.014,161.169,165.651,170.523,173.94299999999998,176.248,178.743,181.933,186.415,196.393,200.573,202.799,205.4,210.177,213.861,218.283,221.473,225.157,227.758,229.913,233.597,237.481,239.856,242.073,246.778,251.2,253.411,258.283,261.13300000000004,263.385,267.867,270.622,272.913,276.996,279.15,282.835,288.998" svgx:width="0.52,0.54,0.52,0.42,0.36,0.55,0.54,0.5,0.36,0.81,0.44,0.25,0.55,0.42,0.47,0.52,0.42,0.36,0.26,0.81,0.42,0.54,0.3,0.44,0.25,0.55,0.42,0.5,0.54,0.52,0.26,0.3,0.26,0.5,0.54,0.36,0.55,0.29,0.36,0.5,0.81,0.44,0.55,0.3,0.53,0.42,0.5,0.36,0.42,0.3,0.26,0.42,0.44,0.25,0.55,0.52,0.5,0.26,0.54,0.3,0.55,0.5,0.29,0.55,0.46,0.26,0.42,0.68,0.22" style="fill:rgb(0,0,0);font-family:AdvTT78ea841c;font-size:9.5px;stroke:none;">under normal experimental conditions froma theoretical point of view,</text>
   <text y="625.663" x="35.888,39.062,43.718,48.374,53.029,57.495,60.669,63.254,65.44,70.296,74.66600000000001,76.872,79.479,84.24,88.22999999999999,90.42,93.005,97.765,101.433,105.899,109.073,113.443,115.649,118.234,122.994,126.862,129.712,131.964,140.922,146.477" svgx:width="0.36,0.52,0.52,0.52,0.5,0.36,0.3,0.26,0.54,0.46,0.55,0.3,0.53,0.42,0.55,0.3,0.53,0.42,0.5,0.36,0.46,0.55,0.3,0.53,0.44,0.3,0.55,0.97,0.61,0.42" style="fill:rgb(0,0,0);font-family:AdvTT78ea841c;font-size:9.5px;stroke:none;">supporting the theory that WTe</text>
   <text y="627.25" x="150.123" svgx:width="0.48" style="fill:rgb(0,0,0);font-family:AdvTT78ea841c;font-size:6.33px;stroke:none;">2</text>
   <text y="625.663" x="155.792,157.993,161.41299999999998,163.663,168.534,172.956,175.80599999999998,178.058,182.537,187.407,189.513,193.883,196.089,200.738,205.219,207.325,211.208,214.628,216.877,221.358,226.029,228.879,231.132,235.044,237.15,240.339,245.089,247.312,249.807,253.435,256.61,259.799,264.221,267.904,270.011,273.694,277.377,279.928,283.117,285.318,289.001" svgx:width="0.26,0.36,0.55,0.54,0.5,0.3,0.55,0.5,0.54,0.25,0.46,0.55,0.52,0.5,0.25,0.44,0.36,0.55,0.5,0.52,0.3,0.55,0.44,0.25,0.36,0.5,0.55,0.29,0.42,0.36,0.36,0.5,0.42,0.25,0.42,0.42,0.3,0.36,0.26,0.42,0.22" style="fill:rgb(0,0,0);font-family:AdvTT78ea841c;font-size:9.5px;stroke:none;">is not only polar but also ferroelectric.</text>
   <text y="658.545" x="35.887,42.07,44.599,49.378,54.715,60.808,65.587,70.366,72.895,79.267" svgx:width="0.69,0.28,0.53,0.59,0.68,0.53,0.53,0.28,0.71,0.69" style="fill:rgb(181,17,26);font-family:AdvTTaf7f9f4f.B;font-size:9.0px;stroke:none;">DISCUSSION</text>
   <text y="669.487" x="35.887,42.812,46.27,48.74,53.88,58.25,60.434,65.374,69.326,74.465,77.923,80.393,83.262,87.632,89.856,92.621,97.561,102.7,106.652,109.521,111.991,116.741,121.881,126.032,128.40699999999998,130.674,135.614,139.566,143.024,145.893,150.833,154.291,159.041,163.192,166.061,168.531,173.281,178.411,180.675,183.544,188.589,192.541,197.291,200.749,205.119,207.32" svgx:width="0.73,0.36,0.26,0.54,0.46,0.55,0.52,0.42,0.54,0.36,0.26,0.3,0.46,0.55,0.29,0.52,0.54,0.42,0.3,0.26,0.5,0.54,0.44,0.25,0.55,0.52,0.42,0.36,0.3,0.52,0.36,0.5,0.44,0.3,0.26,0.5,0.54,0.55,0.3,0.53,0.42,0.5,0.36,0.46,0.55,0.34" style="fill:rgb(0,0,0);font-family:AdvTT78ea841c;font-size:9.5px;stroke:none;">Using density functional perturbation theory (</text>
   <text y="669.487" x="210.613,215.059" svgx:width="0.47,0.47" style="fill:rgb(0,0,0);font-family:AdvTT5a3b6cb0.I;font-size:9.5px;stroke:none;">46</text>
   <text y="669.487" x="219.514,222.744,225.014,229.165,234.305,239.245,241.454,244.323,249.368,253.358,255.57,258.335,260.805,265.944,268.414,271.283,275.273,277.453,282.393,284.863,287.627" svgx:width="0.34,0.55,0.44,0.54,0.52,0.55,0.3,0.53,0.42,0.55,0.29,0.26,0.54,0.26,0.3,0.42,0.55,0.52,0.26,0.29,0.35" style="fill:rgb(0,0,0);font-family:AdvTT78ea841c;font-size:9.5px;stroke:none;">) and the finite dif-</text>
   <text y="680.485" x="35.887,38.788,42.877,46.471,50.56,55.837,59.925,64.064,67.484,70.639,78.49,82.579,85.585,90.766,95.699,100.639,103.749" svgx:width="0.29,0.42,0.36,0.42,0.54,0.42,0.42,0.36,0.55,0.81,0.42,0.3,0.53,0.5,0.52,0.55,0.34" style="fill:rgb(0,0,0);font-family:AdvTT78ea841c;font-size:9.5px;stroke:none;">ferences method (</text>
   <text y="680.485" x="107.149,111.741" svgx:width="0.47,0.47" style="fill:rgb(0,0,0);font-family:AdvTT5a3b6cb0.I;font-size:9.5px;stroke:none;">47</text>
   <text y="680.485" x="116.334,119.728,121.818,124.943,131.511,135.501,138.598,142.686,146.973,149.484,153.622,158.698,161.209,165.496,168.501,172.639,177.579,180.689,183.694,188.875,192.865,195.962,203.842,208.129,212.664,217.94,220.546,223.551,228.626,233.702,237.692,240.789,245.675,248.43,251.571,254.576,259.756,263.746,266.843,271.945,274.551,278.639,282.777,287.653" svgx:width="0.34,0.22,0.55,0.68,0.42,0.55,0.42,0.44,0.25,0.42,0.52,0.25,0.44,0.3,0.42,0.52,0.55,0.3,0.53,0.42,0.55,0.81,0.44,0.46,0.54,0.26,0.3,0.52,0.52,0.42,0.55,0.5,0.29,0.55,0.3,0.53,0.42,0.55,0.52,0.26,0.42,0.42,0.5,0.35" style="fill:rgb(0,0,0);font-family:AdvTT78ea841c;font-size:9.5px;stroke:none;">), we calculated the magnitude of the piezo-</text>
   <text y="691.427" x="35.887,39.969,42.519,46.602,50.74,53.745,57.373,59.98,63.97,67.124,71.26,76.135,80.272,83.163,86.112,88.72,92.856,95.464,99.6,104.873,107.723,110.938,115.814,118.56899999999999,121.767,131.121,137.139" svgx:width="0.42,0.25,0.42,0.42,0.3,0.36,0.26,0.42,0.55,0.42,0.5,0.42,0.29,0.29,0.26,0.42,0.26,0.42,0.54,0.3,0.55,0.5,0.29,0.55,0.97,0.61,0.42" style="fill:rgb(0,0,0);font-family:AdvTT78ea841c;font-size:9.5px;stroke:none;">electric coefficient of WTe</text>
   <text y="693.014" x="141.279" svgx:width="0.48" style="fill:rgb(0,0,0);font-family:AdvTT78ea841c;font-size:6.33px;stroke:none;">2</text>
   <text y="691.427" x="147.855,151.253,154.851,158.943,162.93300000000002,166.086,169.147,173.456,178.345,180.86,184.85000000000002,187.947,192.595,197.155,200.306,204.614,209.943,214.883,218.051,220.955,223.62,228.11,230.20000000000002,233.383,237.968,242.528,245.678,248.626,253.559,256.979,260.192,265.294,269.386,272.394,276.76,279.367,281.882,285.48,288.938" svgx:width="0.34,0.36,0.42,0.42,0.55,0.3,0.44,0.5,0.25,0.42,0.55,0.47,0.48,0.55,0.44,0.54,0.52,0.55,0.29,0.26,0.46,0.22,0.55,0.47,0.48,0.55,0.29,0.5,0.36,0.55,0.52,0.42,0.3,0.44,0.26,0.25,0.36,0.34,0.22" style="fill:rgb(0,0,0);font-family:AdvTT78ea841c;font-size:9.5px;stroke:none;">(see table S1 and fig. S5 for details).</text>
   <text y="702.369" x="35.887,41.72,46.765,50.755,53.631,57.583,61.735,64.11,67.917,72.737,74.891,78.916,81.581,85.379,90.319,93.033,97.228,101.196,103.407,108.169,112.15899999999999,114.802,119.394,122.149,124.837,127.557,132.433,136.423,139.066,141.276,145.869,150.801,154.996,157.321,159.986,164.748,169.567,171.835,176.824,180.793,183.168,185.895,190.657,192.925,196.723,200.521,205.056,208.855,211.065,214.863,218.605,221.326,224.614,226.882,230.872,233.572,237.37,241.905,245.703,248.311,250.919,253.186,256.984,259.252,263.05,268.04,270.89000000000004,273.595" svgx:width="0.61,0.53,0.42,0.55,0.42,0.44,0.25,0.42,0.52,0.25,0.44,0.3,0.42,0.52,0.55,0.46,0.44,0.25,0.52,0.42,0.55,0.5,0.29,0.55,0.3,0.53,0.42,0.55,0.25,0.5,0.54,0.46,0.26,0.3,0.52,0.52,0.26,0.54,0.44,0.25,0.55,0.52,0.26,0.42,0.42,0.5,0.42,0.25,0.42,0.42,0.3,0.36,0.26,0.42,0.55,0.42,0.5,0.42,0.29,0.29,0.26,0.42,0.26,0.42,0.54,0.3,0.55,0.34" style="fill:rgb(0,0,0);font-family:AdvTT78ea841c;font-size:9.5px;stroke:none;">The calculated value of the longitudinal piezoelectric coefficient (</text>
   <text y="702.369" x="276.718" svgx:width="0.5" style="fill:rgb(0,0,0);font-family:AdvTT5a3b6cb0.I;font-size:9.5px;stroke:none;">d</text>
   <text y="703.956" x="281.253,284.485" svgx:width="0.48,0.48" style="fill:rgb(0,0,0);font-family:AdvTT78ea841c;font-size:6.33px;stroke:none;">33</text>
   <text y="702.369" x="287.716" svgx:width="0.34" style="fill:rgb(0,0,0);font-family:AdvTT78ea841c;font-size:9.5px;stroke:none;">)</text>
   <text y="461.255" x="302.967,305.437,308.857,311.697,315.952,320.806,325.659,330.703,333.553,336.599,341.304,343.479,348.039,351.076,356.178,364.001,367.164,373.889,375.979,379.049,388.346,392.336,395.376,398.268,400.842,406.085,411.025,414.078,417.083,422.231,426.486,429.336,432.439,435.386,440.534,443.108,446.528,449.685,453.71,457.965,460.444,464.499,469.543,472.021,476.276,479.249,483.304,488.24399999999997,491.298,495.776,500.031,502.509,507.553,511.543,514.583,517.157,520.577,523.732,527.987,532.841,537.695,542.738,545.5880000000001,548.691,552.943" svgx:width="0.26,0.36,0.55,0.44,0.5,0.5,0.52,0.3,0.55,0.48,0.22,0.48,0.55,0.52,0.81,0.32,0.7,0.22,0.55,0.97,0.42,0.55,0.29,0.26,0.54,0.52,0.55,0.3,0.53,0.44,0.3,0.55,0.3,0.53,0.26,0.36,0.55,0.42,0.44,0.25,0.42,0.52,0.25,0.44,0.3,0.42,0.52,0.55,0.46,0.44,0.25,0.52,0.42,0.55,0.26,0.36,0.55,0.44,0.5,0.5,0.52,0.3,0.55,0.44,0.54" style="fill:rgb(0,0,0);font-family:AdvTT78ea841c;font-size:9.5px;stroke:none;">is about 6.5 pm/V. We find that this calculated value is about an</text>
   <text y="472.253" x="302.967,307.717,311.175,316.115,320.067,323.487,325.246,330.179,332.93399999999997,334.827,342.764,347.072,351.608,356.993,359.658,362.72,367.822,372.982,376.97200000000004,378.821,381.372,385.737,389.366,393.901,398.039,401.459,403.425,406.486,411.702,416.067,421.197,423.097,426.159,431.374,435.36400000000003,437.214,441.352,446.002,451.16,455.298,458.926,461.591,469.528,473.667,478.996,482.058,486.423,488.974,491.525,495.895,497.76,505.641,509.836,514.144,517.829,522.932,526.617,530.755,535.695,537.558,542.15,546.458,549.009,554.169" svgx:width="0.5,0.36,0.52,0.42,0.36,0.55,0.5,0.29,0.55,0.81,0.44,0.46,0.54,0.26,0.3,0.52,0.52,0.42,0.55,0.25,0.44,0.36,0.46,0.42,0.36,0.55,0.3,0.53,0.44,0.54,0.55,0.3,0.53,0.42,0.55,0.42,0.47,0.52,0.42,0.36,0.26,0.81,0.42,0.54,0.3,0.44,0.25,0.25,0.46,0.55,0.81,0.42,0.44,0.36,0.52,0.36,0.42,0.52,0.55,0.46,0.44,0.25,0.52,0.42" style="fill:rgb(0,0,0);font-family:AdvTT78ea841c;font-size:9.5px;stroke:none;">order of magnitude larger than the experimentally measured value</text>
   <text y="483.195" x="302.967,308.012,310.767,314.022,319.748,324.623,326.948,331.508,334.771,339.986,348.037,351.382,358.032,361.246,364.818,368.561,372.813,376.803,380.013,383.075,385.852,390.501,392.59099999999995,395.83,400.536,405.096,408.359,412.781,418.224,423.164,426.444,430.696,435.742,439.484,443.226,447.478,451.22,456.436,461.481,466.924,472.139,474.917,480.359,484.729,487.957,490.826,494.59,499.036,501.886,504.737,507.207,512.337,515.112,518.457,522.409,526.225,529.094,531.383,536.133,541.263,544.026,548.472,552.869,556.128" svgx:width="0.5,0.29,0.55,0.57,0.48,0.22,0.48,0.55,0.52,0.81,0.32,0.7,0.55,0.34,0.36,0.42,0.42,0.55,0.29,0.26,0.46,0.22,0.55,0.47,0.48,0.55,0.44,0.54,0.52,0.55,0.42,0.5,0.36,0.36,0.42,0.36,0.52,0.5,0.54,0.52,0.26,0.54,0.46,0.55,0.3,0.42,0.47,0.3,0.55,0.26,0.54,0.55,0.36,0.42,0.42,0.3,0.26,0.5,0.54,0.55,0.47,0.48,0.34,0.22" style="fill:rgb(0,0,0);font-family:AdvTT78ea841c;font-size:9.5px;stroke:none;">of ~0.7 pm/V (see fig. S6 and corresponding text in section S5).</text>
   <text y="494.137" x="302.967,309.988,314.581,320.814,324.567,328.762,332.504,335.764,337.854,339.789,342.51,347.328,351.318,353.281,357.023,361.331,366.093,369.847,373.106,375.378,382.893,386.647,391.635,394.305,398.258,400.435,402.611,406.981,408.961,413.723,417.477,420.147,423.945,427.233,434.749,437.073,442.014,445.768,450.70799999999997,452.741,455.973,459.926,462.647,467.492,471.291,474.711,476.733,478.888,483.48,491.87,496.023,499.976,502.152,506.894,510.884,512.789,517.382,520.137,522.087,524.808,529.654,533.644,535.607,540.348,542.62,546.418,550.16,554.752" svgx:width="0.76,0.5,0.68,0.42,0.46,0.42,0.36,0.22,0.55,0.3,0.53,0.42,0.55,0.42,0.47,0.52,0.42,0.36,0.26,0.81,0.42,0.54,0.3,0.44,0.25,0.25,0.46,0.55,0.52,0.42,0.3,0.42,0.36,0.81,0.26,0.54,0.42,0.52,0.55,0.36,0.44,0.3,0.53,0.42,0.36,0.55,0.25,0.5,0.68,0.46,0.44,0.25,0.52,0.42,0.55,0.5,0.29,0.55,0.3,0.53,0.42,0.55,0.52,0.26,0.42,0.42,0.5,0.35" style="fill:rgb(0,0,0);font-family:AdvTT78ea841c;font-size:9.5px;stroke:none;">However, the experimentally determined rather lowvalue of the piezo-</text>
   <text y="505.135" x="302.967,306.765,308.92,312.718,316.46,319.132,322.393,324.667,328.657,330.392,334.148,338.74,343.683,346.944,349.617,353.571,358.514,361.36400000000003,363.163,365.436,368.856,370.651,375.395,380.384,385.128,388.883,392.144,395.406,398.078,402.033,406.976,411.719,415.674,420.266,422.421,426.411,428.146,430.414,433.169,434.892,439.485,444.427,448.41700000000003,450.097,456.39,460.132,463.393,467.383,469.063,471.735,476.485,478.255,482.01,486.603,491.546,494.807,497.08,501.824,505.579,508.999,510.794,513.467,518.315,522.269,525.119,526.862,533.097,537.087,538.822,541.001,543.274,547.723,551.521,553.699" svgx:width="0.42,0.25,0.42,0.42,0.3,0.36,0.26,0.42,0.55,0.42,0.5,0.54,0.36,0.3,0.44,0.54,0.3,0.55,0.26,0.36,0.55,0.52,0.54,0.52,0.42,0.36,0.36,0.3,0.44,0.54,0.52,0.44,0.5,0.25,0.42,0.55,0.26,0.29,0.55,0.5,0.54,0.42,0.55,0.68,0.42,0.36,0.42,0.55,0.3,0.5,0.55,0.42,0.5,0.54,0.36,0.26,0.52,0.42,0.36,0.55,0.3,0.53,0.44,0.3,0.55,0.68,0.42,0.55,0.25,0.26,0.49,0.42,0.25,0.46" style="fill:rgb(0,0,0);font-family:AdvTT78ea841c;font-size:9.5px;stroke:none;">electric constant is understandable if one were to consider that we likely</text>
   <text y="516.077" x="302.967,306.763,311.053,313.766,317.069,321.064,324.861,327.711,330.473,333.195,338.084,342.074,344.773,349.558,351.872,355.668,359.464,364.059,367.361,371.157,374.459,379.243,383.837,388.821,392.123,396.113,398.813,405.089,407.403,410.068,415.0,417.268,422.39799999999997,425.148,427.861,432.75,436.74,439.44,446.243,450.039,454.575,458.77,462.76,465.46,467.679,471.475,476.459,480.654,483.367,488.40200000000004,491.134,495.729,498.484,501.228,510.268,515.945" svgx:width="0.42,0.47,0.3,0.36,0.44,0.42,0.3,0.55,0.3,0.53,0.42,0.55,0.52,0.26,0.42,0.42,0.5,0.36,0.42,0.36,0.52,0.5,0.54,0.36,0.42,0.55,0.68,0.26,0.3,0.53,0.26,0.54,0.55,0.3,0.53,0.42,0.55,0.73,0.42,0.5,0.46,0.42,0.55,0.25,0.42,0.54,0.46,0.3,0.53,0.55,0.5,0.29,0.55,0.97,0.61,0.42" style="fill:rgb(0,0,0);font-family:AdvTT78ea841c;font-size:9.5px;stroke:none;">extract the piezoresponse within the Debye length of WTe</text>
   <text y="517.663" x="519.76,522.992" svgx:width="0.48,0.22" style="fill:rgb(0,0,0);font-family:AdvTT78ea841c;font-size:6.33px;stroke:none;">2,</text>
   <text y="516.076" x="527.301,533.578,538.469,540.737,544.535,549.5699999999999,552.358,554.626" svgx:width="0.68,0.53,0.26,0.42,0.53,0.55,0.26,0.36" style="fill:rgb(0,0,0);font-family:AdvTT78ea841c;font-size:9.5px;stroke:none;">which is</text>
   <text y="527.018" x="302.968,308.233,312.614,314.516,319.076,321.206,326.138,336.003,339.092,342.381,346.164,350.154,352.23,355.519,359.261,363.044,365.708,367.976,372.568,377.698,379.826,384.078,388.638,390.768,393.375,397.911,401.331,403.523,408.294,412.036,414.736,418.719,420.986,423.141,426.56100000000004,428.753,433.346,438.476,440.603,443.267,448.143,452.133,454.209,457.991,461.974,464.128,467.927,472.697,474.852,478.834,481.499,483.8,488.335,493.465,495.649,500.184,502.939,505.116,511.806,515.589,520.124,524.306,528.296,530.372,532.578,536.32,541.29,545.428,548.093,552.969,556.058" svgx:width="0.57,0.48,0.22,0.48,0.55,0.54,0.81,0.34,0.36,0.42,0.42,0.55,0.36,0.42,0.42,0.3,0.26,0.5,0.54,0.55,0.47,0.48,0.55,0.29,0.5,0.36,0.55,0.52,0.42,0.3,0.44,0.26,0.25,0.36,0.55,0.5,0.54,0.55,0.3,0.53,0.42,0.55,0.42,0.44,0.25,0.42,0.52,0.25,0.44,0.3,0.26,0.5,0.54,0.55,0.5,0.29,0.55,0.73,0.42,0.5,0.46,0.42,0.55,0.25,0.42,0.54,0.46,0.3,0.53,0.34,0.22" style="fill:rgb(0,0,0);font-family:AdvTT78ea841c;font-size:9.5px;stroke:none;">~1.6 nm(see section S6 for details on the calculation of Debye length).</text>
   <text y="538.016" x="302.968,311.245,315.837,319.182,322.98,327.73,331.824,335.622,338.967,341.05699999999996,343.786,346.507,351.44,355.43,358.186,361.985,366.01,368.22,372.018,376.838,379.213,383.074,385.794,388.264,392.767,397.897,400.648,403.118,406.538,409.265,414.027,418.777,423.665,427.65500000000003,430.412,433.02,437.612,441.03200000000004,443.848,448.028,450.765,455.583,460.573,462.897,465.662,470.153,473.498,481.193,483.986,487.274,491.625,494.815,497.535,501.487,508.931,511.02099999999996,513.806,520.099,524.974,527.299,529.674,533.664,536.256,538.726,543.856,546.517,549.238,554.171" svgx:width="0.88,0.5,0.36,0.42,0.5,0.46,0.42,0.36,0.22,0.55,0.3,0.53,0.42,0.55,0.42,0.44,0.25,0.42,0.52,0.25,0.44,0.3,0.26,0.5,0.54,0.55,0.26,0.36,0.55,0.52,0.5,0.54,0.42,0.55,0.29,0.5,0.36,0.55,0.44,0.55,0.52,0.54,0.26,0.29,0.5,0.36,0.81,0.55,0.36,0.46,0.36,0.3,0.42,0.81,0.22,0.55,0.68,0.53,0.26,0.25,0.42,0.55,0.26,0.54,0.55,0.3,0.53,0.42" style="fill:rgb(0,0,0);font-family:AdvTT78ea841c;font-size:9.5px;stroke:none;">Moreover, the calculation is done for a uniform system, while in the</text>
   <text y="548.958" x="302.968,310.767,314.805,319.042,322.585,327.525,331.146,335.183,342.983,347.02,352.245,355.25,358.708,360.798,364.094,367.041,372.086,376.076,379.344,383.381,385.842,389.879,393.917,396.871,400.415,402.97,406.96000000000004,410.17,413.005,415.561,419.643,422.103,427.043,430.267,435.292,437.848,441.391,444.346,447.804,450.412,455.287,460.332,463.287,465.842,470.678,475.808,479.068,481.624,485.04400000000004,488.314,490.774,493.33,498.061,502.098,504.559,508.92900000000003,512.099,517.229,519.784,524.221,529.351,531.811,536.181,539.409,544.634,549.469,554.694" svgx:width="0.81,0.42,0.44,0.36,0.52,0.36,0.42,0.81,0.42,0.54,0.3,0.36,0.22,0.55,0.3,0.53,0.42,0.55,0.42,0.25,0.42,0.42,0.3,0.36,0.26,0.42,0.55,0.29,0.26,0.42,0.25,0.52,0.55,0.52,0.26,0.36,0.3,0.36,0.26,0.5,0.52,0.3,0.26,0.5,0.54,0.55,0.26,0.36,0.55,0.25,0.26,0.49,0.42,0.25,0.46,0.55,0.53,0.26,0.46,0.53,0.25,0.46,0.55,0.54,0.5,0.54,0.35" style="fill:rgb(0,0,0);font-family:AdvTT78ea841c;font-size:9.5px;stroke:none;">measurements, the electric field distribution is likely highly non-</text>
   <text y="559.9" x="302.968,307.908,312.889,315.359,317.934,322.684,325.927,333.641,335.731,338.513,347.584,352.628,354.954,357.329,361.319,364.024,366.893,371.734,375.724,378.537,383.477,387.268,390.137,393.901,397.853,400.534,403.004,407.564,412.694,415.557,420.307,423.062,425.818,430.758,433.074,437.026,440.784,445.534,448.777,452.729,456.034,460.852,465.602,470.603,473.948,477.938,480.751,484.902,487.752,490.558,493.427,498.269,502.221,505.469,509.459,512.329,515.674,523.271,527.422,529.62,531.995,534.836,537.211,541.016,546.155,550.313,553.182" svgx:width="0.52,0.54,0.26,0.29,0.5,0.36,0.81,0.22,0.55,0.97,0.53,0.26,0.25,0.42,0.55,0.3,0.53,0.42,0.55,0.52,0.42,0.3,0.42,0.42,0.3,0.26,0.5,0.54,0.55,0.5,0.29,0.55,0.52,0.26,0.42,0.42,0.5,0.36,0.42,0.36,0.52,0.5,0.54,0.36,0.42,0.55,0.44,0.3,0.55,0.3,0.53,0.42,0.36,0.42,0.55,0.36,0.81,0.44,0.25,0.25,0.55,0.25,0.42,0.54,0.46,0.3,0.53" style="fill:rgb(0,0,0);font-family:AdvTT78ea841c;font-size:9.5px;stroke:none;">uniform. While the detection of piezoresponse at these small length</text>
   <text y="570.842" x="302.968,306.26,310.002,313.989,316.198,319.94,323.36,325.043,329.578,332.33299999999997,334.0,336.551,340.349,348.4,353.332,357.318,362.251,366.835,374.384,378.126,380.791,384.578,387.87,391.29,392.916,395.183,398.603,400.286,404.028,408.907,412.893,415.103,417.258,421.044,425.977,430.115,432.439,437.372,441.567,443.657,445.252,447.52,450.37,451.998,454.266,457.68600000000004,459.368,464.301,468.087,472.225,476.012,479.244,481.948,486.766,490.553,492.708,496.494,499.787,503.207,504.832,509.822,514.357,517.207,518.835,523.61,528.542,531.835,535.622,539.608,541.763,544.03,547.318,549.983,552.308,556.05" svgx:width="0.36,0.42,0.44,0.25,0.42,0.36,0.55,0.5,0.29,0.55,0.29,0.42,0.68,0.54,0.44,0.54,0.5,0.81,0.42,0.3,0.42,0.36,0.36,0.55,0.26,0.36,0.55,0.42,0.53,0.44,0.25,0.25,0.42,0.54,0.46,0.26,0.54,0.46,0.22,0.55,0.26,0.3,0.55,0.26,0.36,0.55,0.54,0.42,0.46,0.42,0.36,0.3,0.53,0.42,0.25,0.42,0.36,0.36,0.55,0.54,0.5,0.3,0.55,0.52,0.54,0.36,0.42,0.44,0.25,0.26,0.36,0.3,0.26,0.42,0.22" style="fill:rgb(0,0,0);font-family:AdvTT78ea841c;font-size:9.5px;stroke:none;">scales of fewnanometers is challenging, it is nevertheless not unrealistic.</text>
   <text y="581.84" x="302.968,307.711,312.454,315.716,318.388,323.236,326.991,330.253,337.77,342.323,345.585,349.34,351.42999999999995,353.025,359.318,363.308,364.874,368.842,372.103,376.093,377.716,381.671,387.905,391.86,395.122,399.112,400.734,405.269,408.024,409.635,413.433,415.611,419.409,423.165,425.885,429.147,431.471,435.227,439.182,441.36,443.538,447.908,449.491,451.816,456.758,461.502,466.245,470.001,473.799,478.739,480.375,484.13,488.379,491.052,494.313,496.586,501.576,504.837,507.11,511.1,512.666,520.206,523.961,527.76,532.607,536.562,541.505,543.779,547.04,554.557" svgx:width="0.52,0.52,0.36,0.3,0.53,0.42,0.36,0.81,0.5,0.36,0.42,0.22,0.55,0.68,0.42,0.55,0.44,0.36,0.42,0.55,0.44,0.68,0.44,0.36,0.42,0.55,0.5,0.29,0.55,0.42,0.25,0.42,0.42,0.3,0.36,0.26,0.42,0.44,0.25,0.25,0.46,0.55,0.26,0.54,0.52,0.52,0.42,0.42,0.52,0.55,0.42,0.47,0.3,0.36,0.26,0.54,0.36,0.26,0.42,0.55,0.81,0.42,0.42,0.53,0.44,0.54,0.26,0.36,0.81,0.36" style="fill:rgb(0,0,0);font-family:AdvTT78ea841c;font-size:9.5px;stroke:none;">Furthermore, we are aware of electrically induced extrinsic mechanisms</text>
   <text y="592.782" x="302.968,306.226,310.054,312.125,316.476,318.387,320.477,323.433,327.385,329.612,333.564,337.516,340.213,343.671,348.421,351.722,354.591,358.742,361.416,363.886,367.87600000000003,370.713,374.665,377.43,380.011,383.963,387.915,390.612,394.03200000000004,397.018,401.169,406.201,411.141,414.082,418.832,422.252,425.193,429.145,431.373,435.325,439.277,441.974,445.432,450.182,453.992,459.037,462.836,470.55,473.02,476.839,480.99,483.365,486.249,491.189,494.527,499.277,503.087,507.039,510.497,513.802,517.754,521.212,524.442,527.295,530.164,535.062,539.214,542.0640000000001,544.983,548.935,552.976" svgx:width="0.34,0.42,0.22,0.46,0.22,0.22,0.55,0.42,0.25,0.42,0.42,0.3,0.36,0.5,0.36,0.3,0.44,0.3,0.26,0.42,0.55,0.42,0.29,0.29,0.42,0.42,0.3,0.36,0.55,0.44,0.54,0.52,0.32,0.5,0.36,0.55,0.42,0.25,0.42,0.42,0.3,0.36,0.5,0.42,0.53,0.42,0.81,0.26,0.42,0.44,0.25,0.55,0.52,0.36,0.5,0.42,0.42,0.36,0.36,0.42,0.36,0.34,0.55,0.3,0.53,0.44,0.3,0.55,0.42,0.44,0.54" style="fill:rgb(0,0,0);font-family:AdvTT78ea841c;font-size:9.5px;stroke:none;">(e.g., electrostatic effects and/or electrochemical processes) that can</text>
   <text y="603.725" x="302.968,310.517,314.505,319.437,321.762,324.312,328.11,331.342,334.192,336.558,340.545,343.96500000000003,346.271,350.451,352.734,357.496,359.802,363.544,367.331,371.867,375.654,377.809,381.596,385.339,388.003,391.291,393.559,397.357,400.682,403.027,407.562,410.982,413.345,417.52500000000003,419.807,422.408,426.15,429.443,432.737,437.272,441.014,443.225,446.967,450.765,453.43,456.718,458.985,462.784,465.982,468.137,470.442,474.865,478.855,481.158,484.9,487.5,490.051,493.838,497.58,500.43,502.796,505.063,510.193,512.491,517.65,522.426,533.141,536.434,539.099,543.875,548.65,550.918,554.706" svgx:width="0.81,0.44,0.54,0.26,0.29,0.42,0.36,0.3,0.55,0.44,0.36,0.55,0.44,0.55,0.52,0.26,0.42,0.42,0.5,0.42,0.25,0.42,0.42,0.3,0.36,0.26,0.42,0.35,0.55,0.5,0.36,0.55,0.44,0.55,0.29,0.42,0.36,0.36,0.5,0.42,0.25,0.42,0.42,0.3,0.36,0.26,0.42,0.35,0.25,0.26,0.49,0.42,0.55,0.42,0.29,0.29,0.42,0.42,0.3,0.55,0.26,0.54,0.55,0.56,0.52,0.88,0.36,0.3,0.52,0.52,0.26,0.42,0.36" style="fill:rgb(0,0,0);font-family:AdvTT78ea841c;font-size:9.5px;stroke:none;">manifest as a piezoelectric- or a ferroelectric-like effect in PFMstudies</text>
   <text y="614.723" x="302.968,307.718,310.473,313.343,318.482,323.232,330.804,333.274,338.287,342.438,344.693,347.068,351.438,354.33,359.47,364.081,369.221,371.985,375.76,379.218,382.563,387.313,391.265,393.504,397.456,401.27,404.139,407.597,409.887,413.877,416.804,424.518,428.54,431.409,435.229,438.688,441.158,445.15,447.525,450.983,453.073,455.921,463.141,467.77,474.201,478.031,482.382,486.194,489.652,491.74199999999996,494.642,497.511,502.409,506.399,509.325,513.277,517.602,522.542,526.39,529.848,532.172,539.886,543.838,548.839,551.708,555.86" svgx:width="0.5,0.29,0.55,0.54,0.5,0.81,0.26,0.54,0.44,0.25,0.25,0.46,0.55,0.54,0.5,0.54,0.29,0.42,0.36,0.36,0.5,0.42,0.25,0.42,0.42,0.3,0.36,0.26,0.42,0.55,0.81,0.44,0.3,0.42,0.36,0.26,0.44,0.25,0.36,0.22,0.55,0.76,0.5,0.68,0.42,0.46,0.42,0.36,0.22,0.55,0.3,0.53,0.42,0.55,0.42,0.47,0.52,0.42,0.36,0.26,0.81,0.42,0.54,0.3,0.44,0.25" style="fill:rgb(0,0,0);font-family:AdvTT78ea841c;font-size:9.5px;stroke:none;">of nominally nonferroelectric materials. However, the experimental</text>
   <text y="625.665" x="302.968,307.724,311.693,314.378,318.558,320.048,322.334,328.967,331.653,336.514,340.504,342.014,346.719,349.994,353.762,356.994,360.792,365.748,368.598,370.114,373.388,376.074,380.831,385.587,389.957,391.427,395.994,398.749,400.246,409.258,414.908" svgx:width="0.52,0.44,0.3,0.44,0.55,0.26,0.54,0.3,0.53,0.42,0.55,0.52,0.36,0.42,0.36,0.42,0.54,0.3,0.55,0.36,0.3,0.52,0.52,0.46,0.55,0.5,0.29,0.55,0.97,0.61,0.42" style="fill:rgb(0,0,0);font-family:AdvTT78ea841c;font-size:9.5px;stroke:none;">data inthe present study of WTe</text>
   <text y="627.25" x="418.677" svgx:width="0.48" style="fill:rgb(0,0,0);font-family:AdvTT78ea841c;font-size:6.33px;stroke:none;">2</text>
   <text y="625.663" x="423.609,427.379,431.348,436.305,441.262,445.83,448.68,450.195,454.763,458.753,460.205,463.975,468.238,472.996,475.189,479.158,481.445,486.402,490.172,495.112,496.635,501.17,505.54,507.01,509.731,514.593,518.362,521.638,525.628,527.08,530.356,535.061,539.819,543.095,545.382,549.95,554.707" svgx:width="0.42,0.44,0.54,0.54,0.5,0.3,0.55,0.5,0.42,0.55,0.42,0.47,0.52,0.25,0.44,0.26,0.54,0.42,0.52,0.55,0.5,0.46,0.55,0.3,0.53,0.42,0.36,0.42,0.55,0.36,0.52,0.52,0.36,0.26,0.5,0.52,0.36" style="fill:rgb(0,0,0);font-family:AdvTT78ea841c;font-size:9.5px;stroke:none;">cannot be explained by these spurious</text>
   <text y="636.605" x="302.967,306.765,311.017,313.679,316.967,319.23,324.219,327.47,329.795,333.785,335.35,342.891,346.636,350.434,355.271,359.215,364.204,366.472,369.76,377.243,380.663,382.345,385.407,388.695,392.437,396.427,397.993,401.28,405.079,408.821,411.483,413.807,418.35,423.48,425.096,429.335,433.895,435.515,438.091,442.653,446.07300000000004,447.698,451.878,453.481,458.233,461.997,464.678,468.641,470.923,473.11,476.874,481.814,483.45,488.202,490.484,493.753,497.517,502.269,505.539,508.771,511.096,515.658,520.609,523.679,525.769,527.364,536.372,540.362,541.928,546.879,551.441,554.122" svgx:width="0.42,0.47,0.3,0.36,0.26,0.54,0.36,0.26,0.42,0.55,0.81,0.42,0.42,0.53,0.44,0.54,0.26,0.36,0.81,0.36,0.55,0.34,0.36,0.42,0.42,0.55,0.36,0.42,0.42,0.3,0.26,0.5,0.54,0.55,0.47,0.48,0.55,0.29,0.5,0.36,0.55,0.44,0.55,0.52,0.42,0.3,0.44,0.26,0.25,0.42,0.52,0.55,0.52,0.26,0.36,0.42,0.52,0.36,0.36,0.26,0.5,0.54,0.34,0.22,0.55,0.97,0.42,0.55,0.54,0.5,0.3,0.42" style="fill:rgb(0,0,0);font-family:AdvTT78ea841c;font-size:9.5px;stroke:none;">extrinsic mechanisms (see section S7 for a detailed discussion). We note</text>
   <text y="647.603" x="302.967,305.836,310.88,315.032,317.882,320.144,323.013,328.057,332.047,334.203,341.128,345.08,349.83,354.181,358.171,360.337,362.712,366.664,371.804,376.155,379.024,384.059,386.302,391.052,393.807,395.997,401.431,405.981,408.052,412.612,414.818,419.957,429.898,432.368,435.788,438.006,441.464,445.416,447.791,451.942,454.811,457.281,461.632,465.584,467.959,472.329,474.571,478.029,483.074,487.824,491.282,494.132,496.34,500.292,505.042,512.756,517.696,521.848,525.306,529.258,534.1980000000001,536.421,539.29,544.04,546.229,549.098,554.142" svgx:width="0.3,0.53,0.44,0.3,0.55,0.3,0.53,0.42,0.55,0.73,0.42,0.5,0.46,0.42,0.55,0.25,0.42,0.54,0.46,0.3,0.53,0.55,0.5,0.29,0.55,0.57,0.48,0.22,0.48,0.55,0.54,0.81,0.26,0.36,0.55,0.36,0.42,0.25,0.44,0.3,0.26,0.46,0.42,0.25,0.46,0.55,0.36,0.53,0.5,0.36,0.3,0.55,0.42,0.5,0.81,0.52,0.44,0.36,0.42,0.52,0.55,0.3,0.5,0.55,0.3,0.53,0.42" style="fill:rgb(0,0,0);font-family:AdvTT78ea841c;font-size:9.5px;stroke:none;">that the Debye length of ~1.6 nmis relatively short compared to the</text>
   <text y="658.545" x="302.967,310.681,314.832,317.701,321.653,325.111,327.581,331.733,334.108,336.131,339.0,344.045,346.515,350.467,355.112,360.252,364.204,367.662,371.12,375.072,378.492,380.577,383.047,388.187,392.538,396.49,399.948,402.817,405.287,409.638,413.789,416.658,420.61,425.55,427.631,430.101,435.231,437.211,441.961,446.901,450.321,452.405,455.863,458.732,463.672,468.612,472.963,475.053,477.065,484.085,488.037,492.388,496.34,499.798,502.667,507.712,511.664,514.039,517.991,521.449,524.907,526.9970000000001,528.994,533.744,538.883,542.873,544.867,548.819,552.971" svgx:width="0.81,0.44,0.3,0.42,0.36,0.26,0.44,0.25,0.55,0.3,0.53,0.26,0.42,0.49,0.54,0.42,0.36,0.36,0.42,0.36,0.55,0.26,0.54,0.46,0.42,0.36,0.3,0.26,0.46,0.44,0.3,0.42,0.52,0.55,0.26,0.54,0.55,0.5,0.52,0.36,0.55,0.36,0.3,0.52,0.52,0.46,0.22,0.55,0.74,0.42,0.46,0.42,0.36,0.3,0.53,0.42,0.25,0.42,0.36,0.36,0.22,0.55,0.5,0.54,0.42,0.55,0.42,0.44,0.54" style="fill:rgb(0,0,0);font-family:AdvTT78ea841c;font-size:9.5px;stroke:none;">material thicknesses investigated in our study. Nevertheless, one can</text>
   <text y="669.487" x="302.967,307.717,312.321,315.19,319.341,321.674,326.804,329.725,334.665,338.512,343.452,346.321,351.155,354.518,357.976,361.756,366.895,370.353,372.641,375.51,377.856,382.207,386.197,389.025,393.965,398.116,400.816,404.996,407.903,410.667,414.125,418.731,426.426,429.333,433.285,435.66,439.424,443.376,446.245,449.572,452.042,455.865,460.016,462.391,465.218,472.932,476.884,480.865,484.323,489.142,492.6,496.552,504.108,508.06,513.066,515.935,519.3549999999999,522.307,525.071,529.677,533.097,536.083,538.952,543.85,546.32,550.143,554.788" svgx:width="0.5,0.5,0.3,0.44,0.26,0.54,0.55,0.52,0.42,0.52,0.3,0.53,0.35,0.36,0.42,0.54,0.36,0.26,0.3,0.26,0.46,0.42,0.55,0.52,0.44,0.3,0.44,0.55,0.29,0.36,0.5,0.81,0.55,0.42,0.25,0.42,0.42,0.3,0.36,0.26,0.42,0.44,0.25,0.55,0.81,0.42,0.44,0.36,0.52,0.36,0.42,0.81,0.42,0.54,0.3,0.36,0.55,0.29,0.5,0.36,0.55,0.3,0.53,0.26,0.42,0.49,0.35" style="fill:rgb(0,0,0);font-family:AdvTT78ea841c;font-size:9.5px;stroke:none;">obtain depth-sensitive data from electrical measurements for thick-</text>
   <text y="680.486" x="302.967,307.956,311.698,314.986,318.274,322.016,325.43600000000004,327.152,329.307,333.275,336.563,340.758,344.5,347.92,349.636,352.3,357.176,361.144,366.274,367.961,370.683,375.501,379.491,381.171,387.918,391.66,396.195,400.39,404.38,406.02,408.231,411.973,416.962,421.1,423.822,428.857,430.512,432.837,437.967,439.654,448.668,454.338" svgx:width="0.54,0.42,0.36,0.36,0.42,0.36,0.55,0.25,0.44,0.36,0.46,0.42,0.36,0.55,0.3,0.53,0.44,0.54,0.55,0.3,0.53,0.42,0.55,0.73,0.42,0.5,0.46,0.42,0.55,0.25,0.42,0.54,0.46,0.3,0.53,0.55,0.26,0.54,0.55,0.97,0.61,0.42" style="fill:rgb(0,0,0);font-family:AdvTT78ea841c;font-size:9.5px;stroke:none;">nesses larger than the Debye length in WTe</text>
   <text y="682.016" x="458.079" svgx:width="0.48" style="fill:rgb(0,0,0);font-family:AdvTT78ea841c;font-size:6.33px;stroke:none;">2</text>
   <text y="680.485" x="463.181" svgx:width="0.34" style="fill:rgb(0,0,0);font-family:AdvTT78ea841c;font-size:9.5px;stroke:none;">(</text>
   <text y="680.485" x="466.243,470.551" svgx:width="0.47,0.47" style="fill:rgb(0,0,0);font-family:AdvTT5a3b6cb0.I;font-size:9.5px;stroke:none;">48</text>
   <text y="680.485" x="474.803,477.878,479.96799999999996,481.621,484.601,489.731,491.404,495.97,500.727,504.147,505.886,509.118,511.84,516.602,521.359,525.527,527.6170000000001,529.269,535.505,539.495,541.174,546.049,550.018,554.185" svgx:width="0.34,0.22,0.55,0.33,0.54,0.55,0.5,0.52,0.36,0.55,0.36,0.3,0.52,0.52,0.46,0.22,0.55,0.68,0.42,0.55,0.53,0.44,0.46,0.42" style="fill:rgb(0,0,0);font-family:AdvTT78ea841c;font-size:9.5px;stroke:none;">). In our study, we have</text>
   <text y="691.427" x="302.967,307.562,312.156,315.458,319.2,322.488,326.683,330.479,335.419,338.133,340.74,344.536,347.839,351.141,355.676,359.472,361.692,365.488,369.284,371.949,375.251,377.565,381.555,384.198,389.016,393.552,401.092,405.088,407.355,412.339,415.759,418.519,420.786,425.916,428.667,431.331,436.195,438.503,442.292,446.94699999999995,449.663,454.198,458.975,461.188,465.84299999999996,468.558,472.356,475.652,479.84,483.136,485.842,489.831,491.986,495.406,498.166,502.134,507.111,512.051,514.764,517.366,521.156,524.451,527.747,532.334,536.124,538.336,542.126,545.916,548.622,551.918,554.225" svgx:width="0.5,0.5,0.36,0.42,0.36,0.46,0.42,0.52,0.55,0.29,0.42,0.36,0.36,0.5,0.42,0.25,0.42,0.42,0.3,0.36,0.26,0.42,0.55,0.52,0.5,0.81,0.44,0.26,0.54,0.36,0.55,0.26,0.54,0.55,0.3,0.53,0.26,0.42,0.49,0.55,0.5,0.52,0.25,0.49,0.55,0.42,0.36,0.46,0.36,0.3,0.44,0.25,0.36,0.55,0.44,0.54,0.52,0.55,0.29,0.42,0.36,0.36,0.5,0.42,0.25,0.42,0.42,0.3,0.36,0.26,0.42" style="fill:rgb(0,0,0);font-family:AdvTT78ea841c;font-size:9.5px;stroke:none;">observed ferroelectric domains in thick bulk crystals and ferroelectric</text>
   <text y="702.369" x="302.967,306.23,312.465,314.74,317.461,321.218,326.067,328.341,333.285,337.65500000000003,339.577,341.902,347.032,348.932,354.205,358.559,362.914,366.082,371.025,380.72,383.289,385.563,387.742,395.261,398.523,400.613,402.548,408.185,413.034,417.024,418.93,423.635,428.38,432.178,435.44,438.113,440.388,444.942,450.072,451.972,456.564,459.319,461.27,463.934,468.783,472.773,474.679,479.423,484.272,488.427,491.689,494.014,497.756,501.712,504.087,506.02,509.818,514.07,516.744,520.5,525.488,528.3380000000001,530.308,534.862,537.617,539.567,542.241,547.09,550.846,554.108" svgx:width="0.36,0.68,0.26,0.3,0.42,0.53,0.26,0.54,0.46,0.55,0.26,0.54,0.55,0.57,0.48,0.48,0.35,0.54,0.81,0.29,0.26,0.25,0.81,0.36,0.22,0.55,0.61,0.53,0.42,0.55,0.51,0.52,0.42,0.36,0.3,0.26,0.5,0.54,0.55,0.5,0.29,0.55,0.3,0.53,0.42,0.55,0.52,0.53,0.46,0.36,0.26,0.42,0.44,0.25,0.55,0.42,0.47,0.3,0.42,0.54,0.3,0.55,0.5,0.29,0.55,0.3,0.53,0.42,0.36,0.42" style="fill:rgb(0,0,0);font-family:AdvTT78ea841c;font-size:9.5px;stroke:none;">switching in ~15-nmfilms. The question of the physical extent of these</text>
  </g>
  <rect style="stroke:blue;stroke-width:0.3;" x="116.957" y="99.786" height="292.082" width="360.249" title="5"/>
  <text y="99.786" class="image" id="image.5.1" width="360" height="292" x="116.957">image.5.1.117_477.100_392</text>
  <rect style="stroke:blue;stroke-width:0.3;" x="116.957" y="99.786" height="292.082" width="360.249" title="5"/>
  <text y="99.786" class="image" id="image.5.2" width="360" height="292" x="116.957">image.5.2.117_477.100_392</text>
  <g begin="text">
   <text y="358.866" x="35.887,39.787,41.812,46.184,48.059,50.286,54.426,56.301,60.038,63.938,65.963,68.775,71.978,74.708,77.048,81.495,84.307,86.332,90.705,94.057,96.082,100.53,102.555,106.455,109.67999999999999,111.968,117.12,121.02,125.07,127.275,130.628,134.528,136.553,139.905,144.195,146.22,150.12,152.85,154.875,159.165,163.537,166.74" svgx:width="0.52,0.27,0.58,0.25,0.55,0.55,0.25,0.55,0.52,0.27,0.38,0.43,0.36,0.31,0.59,0.38,0.27,0.58,0.45,0.27,0.59,0.27,0.52,0.43,0.55,0.69,0.52,0.54,0.55,0.45,0.52,0.27,0.45,0.57,0.27,0.52,0.36,0.27,0.57,0.58,0.43,0.25" style="fill:rgb(0,0,0);font-family:AdvTTaf7f9f4f.B;font-size:7.5px;stroke:none;">Fig. 4. First-principles DFT calculations.</text>
   <text y="358.866" x="170.929" svgx:width="0.28" style="fill:rgb(0,0,0);font-family:AdvTTe45e47d2;font-size:7.5px;stroke:none;">(</text>
   <text y="358.866" x="173.027" svgx:width="0.64" style="fill:rgb(0,0,0);font-family:AdvTTaf7f9f4f.B;font-size:7.5px;stroke:none;">A</text>
   <text y="358.866" x="177.845,179.945,182.211,186.269,189.861,194.001,198.201,200.41,203.372,205.787,208.202,212.259,215.612,218.027,222.084,224.499,228.249,230.513,234.571" svgx:width="0.28,0.55,0.54,0.48,0.55,0.56,0.55,0.4,0.32,0.32,0.54,0.45,0.32,0.54,0.32,0.5,0.55,0.54,0.29" style="fill:rgb(0,0,0);font-family:AdvTTe45e47d2;font-size:7.5px;stroke:none;">) Band structure of</text>
   <text y="358.866" x="239.017" svgx:width="0.47" style="fill:rgb(0,0,0);font-family:AdvTT7329fd89.I;font-size:7.5px;stroke:none;">T</text>
   <text y="360.113" x="242.532" svgx:width="0.52" style="fill:rgb(0,0,0);font-family:AdvTT7329fd89.I;font-size:5.0px;stroke:none;">d</text>
   <text y="358.866" x="245.424,247.689,254.011,257.678" svgx:width="0.3,0.84,0.49,0.5" style="fill:rgb(0,0,0);font-family:AdvTTe45e47d2;font-size:7.5px;stroke:none;">-WTe</text>
   <text y="360.113" x="261.468" svgx:width="0.51" style="fill:rgb(0,0,0);font-family:AdvTTe45e47d2;font-size:5.0px;stroke:none;">2</text>
   <text y="358.866" x="264.359,265.859,268.044" svgx:width="0.2,0.55,0.28" style="fill:rgb(0,0,0);font-family:AdvTTe45e47d2;font-size:7.5px;stroke:none;">. (</text>
   <text y="358.866" x="270.141" svgx:width="0.59" style="fill:rgb(0,0,0);font-family:AdvTTaf7f9f4f.B;font-size:7.5px;stroke:none;">B</text>
   <text y="358.866" x="274.62,276.72,278.929,282.912,284.629,288.221,292.361,295.954,298.354,300.586,304.178,307.771,311.521,313.936,317.528,321.668,325.418,329.618,331.88,335.232,339.29,343.43,347.645,351.702,355.054,357.469,359.187,363.244,367.369,369.637,372.989,377.129,380.721,383.136,387.276,391.026,393.277,397.492,401.242,405.382,408.344,410.062,412.477,414.194,417.944,420.944,423.154,426.506,430.563,434.703,437.118,439.533,441.251,445.466,449.523,451.938,455.688,459.888,462.158,464.34,466.755,470.812,477.03700000000003,479.279,481.694,485.834,489.584,491.808,495.558,497.276,501.026,504.378,506.793,509.208,513.266,517.391,519.644,523.859,527.917,531.269,534.779,538.529,540.929,543.228,545.336,547.751,551.808,556.023" svgx:width="0.28,0.55,0.53,0.23,0.48,0.55,0.48,0.32,0.55,0.48,0.48,0.5,0.32,0.48,0.55,0.5,0.56,0.55,0.45,0.54,0.55,0.56,0.54,0.45,0.32,0.23,0.54,0.55,0.55,0.45,0.55,0.48,0.32,0.55,0.5,0.55,0.56,0.5,0.55,0.4,0.23,0.32,0.23,0.5,0.4,0.55,0.45,0.54,0.55,0.32,0.32,0.23,0.56,0.54,0.32,0.5,0.56,0.55,0.29,0.32,0.54,0.83,0.55,0.32,0.55,0.5,0.55,0.5,0.23,0.5,0.45,0.32,0.32,0.54,0.55,0.55,0.56,0.54,0.45,0.47,0.5,0.32,0.55,0.28,0.32,0.54,0.56,0.28" style="fill:rgb(0,0,0);font-family:AdvTTe45e47d2;font-size:7.5px;stroke:none;">) Planar averaged conduction charge densities contributed from the electron pocket (top)</text>
   <text y="368.844" x="35.887,39.479,43.619,47.819,50.457,52.872,57.012,60.762,63.439,67.579,71.636,73.354,77.104,79.766,83.981,88.039,91.391,94.901,98.651,101.051,103.747,105.855,110.07,114.127,116.542,118.957,123.014,129.262,131.369,132.869,135.551" svgx:width="0.48,0.55,0.56,0.55,0.32,0.55,0.5,0.55,0.55,0.54,0.23,0.5,0.55,0.56,0.54,0.45,0.47,0.5,0.32,0.55,0.28,0.56,0.54,0.32,0.32,0.54,0.83,0.28,0.2,0.55,0.28" style="fill:rgb(0,0,0);font-family:AdvTTe45e47d2;font-size:7.5px;stroke:none;">and the hole pocket (bottom). (</text>
   <text y="368.844" x="137.707" svgx:width="0.59" style="fill:rgb(0,0,0);font-family:AdvTTaf7f9f4f.B;font-size:7.5px;stroke:none;">C</text>
   <text y="368.844" x="142.129,144.22899999999998,146.891,150.559,153.911,158.051,161.801,168.048,171.641,174.056,175.773,179.148,181.814,185.871,188.04600000000002,190.771,194.986,196.703,198.886,201.068,204.818,207.233,210.983,215.123,217.523,220.194,224.409,226.127,229.089,231.504,235.562,237.977,240.392,242.109,246.166,250.291,253.019,256.612,260.362,263.714,266.129,270.186,272.601,275.601,278.247,279.965" svgx:width="0.28,0.55,0.49,0.45,0.55,0.5,0.83,0.48,0.32,0.23,0.45,0.55,0.54,0.29,0.55,0.56,0.23,0.29,0.29,0.5,0.32,0.5,0.55,0.32,0.55,0.56,0.23,0.4,0.32,0.54,0.32,0.32,0.23,0.54,0.55,0.55,0.48,0.5,0.45,0.32,0.54,0.32,0.4,0.55,0.23,0.55" style="fill:rgb(0,0,0);font-family:AdvTTe45e47d2;font-size:7.5px;stroke:none;">) Schematic of different distortion vectors in</text>
   <text y="368.844" x="286.752,290.42" svgx:width="0.49,0.47" style="fill:rgb(0,0,0);font-family:AdvTT7329fd89.I;font-size:7.5px;stroke:none;">1T</text>
   <text y="368.844" x="293.952,296.217,302.539,306.207" svgx:width="0.3,0.84,0.49,0.5" style="fill:rgb(0,0,0);font-family:AdvTTe45e47d2;font-size:7.5px;stroke:none;">-WTe</text>
   <text y="370.091" x="309.997" svgx:width="0.51" style="fill:rgb(0,0,0);font-family:AdvTTe45e47d2;font-size:5.0px;stroke:none;">2</text>
   <text y="368.844" x="312.831,314.331,316.97,320.637,324.777,328.527,331.199,334.162,338.219,339.937,341.654,345.854,348.547,351.51,353.925,356.34,359.932,361.65,365.79,369.93,372.33,375.079,378.671,381.086,383.501,387.559,393.026,396.026,398.663,402.878,406.628,410.768,414.826,417.24,420.99,423.665,426.08,430.22,432.635,436.385,440.135,442.827,446.577,450.792,454.849,456.567,460.159,463.752,465.469,469.219,473.359,475.75899999999996,478.43,482.645,484.362,487.325,489.74,493.797,496.212,498.627,500.345,504.402,508.527,511.255,514.847,518.597,521.95,524.365,528.422,530.837,533.837,536.483,538.665,542.723,545.1229999999999,547.821,550.236,554.376" svgx:width="0.2,0.55,0.49,0.55,0.5,0.55,0.4,0.54,0.23,0.23,0.56,0.55,0.4,0.32,0.32,0.48,0.23,0.55,0.55,0.32,0.55,0.48,0.32,0.32,0.54,0.73,0.4,0.55,0.56,0.5,0.55,0.54,0.32,0.5,0.55,0.32,0.55,0.32,0.5,0.5,0.55,0.5,0.56,0.54,0.23,0.48,0.48,0.23,0.5,0.55,0.32,0.55,0.56,0.23,0.4,0.32,0.54,0.32,0.32,0.23,0.54,0.55,0.55,0.48,0.5,0.45,0.32,0.54,0.32,0.4,0.55,0.29,0.54,0.32,0.55,0.32,0.55,0.5" style="fill:rgb(0,0,0);font-family:AdvTTe45e47d2;font-size:7.5px;stroke:none;">. The solid straight arrows denote three equivalent distortion vectors for the</text>
   <text y="378.765" x="35.886,40.101,44.159,45.876,49.469,51.884,53.601,56.804,60.396,62.811,64.528,68.586,72.711,74.494,78.551,82.751,84.528,87.491,89.906,93.498,95.913,99.663,102.663,104.427" svgx:width="0.56,0.54,0.23,0.48,0.32,0.23,0.43,0.48,0.32,0.23,0.54,0.55,0.55,0.54,0.56,0.55,0.4,0.32,0.48,0.32,0.5,0.4,0.55,0.28" style="fill:rgb(0,0,0);font-family:AdvTTe45e47d2;font-size:7.5px;stroke:none;">polarization up states (</text>
   <text y="378.765" x="106.526" svgx:width="0.5" style="fill:rgb(0,0,0);font-family:AdvTT7329fd89.I;font-size:7.5px;stroke:none;">P</text>
   <text y="380.013" x="110.324,113.367,116.529" svgx:width="0.54,0.56,0.51" style="fill:rgb(0,0,0);font-family:AdvTTe45e47d2;font-size:5.0px;stroke:none;">up1</text>
   <text y="378.765" x="119.395" svgx:width="0.2" style="fill:rgb(0,0,0);font-family:AdvTTe45e47d2;font-size:7.5px;stroke:none;">,</text>
   <text y="378.765" x="122.627" svgx:width="0.5" style="fill:rgb(0,0,0);font-family:AdvTT7329fd89.I;font-size:7.5px;stroke:none;">P</text>
   <text y="380.013" x="126.368,129.412,132.573" svgx:width="0.54,0.56,0.51" style="fill:rgb(0,0,0);font-family:AdvTTe45e47d2;font-size:5.0px;stroke:none;">up2</text>
   <text y="378.765" x="135.439,136.939,138.727,142.32,146.46" svgx:width="0.2,0.55,0.48,0.55,0.56" style="fill:rgb(0,0,0);font-family:AdvTTe45e47d2;font-size:7.5px;stroke:none;">, and</text>
   <text y="378.765" x="152.447" svgx:width="0.5" style="fill:rgb(0,0,0);font-family:AdvTT7329fd89.I;font-size:7.5px;stroke:none;">P</text>
   <text y="380.013" x="156.189,159.232,162.393" svgx:width="0.54,0.56,0.51" style="fill:rgb(0,0,0);font-family:AdvTTe45e47d2;font-size:5.0px;stroke:none;">up3</text>
   <text y="378.765" x="165.26,167.367,168.867,170.589,176.057,180.197,181.914,183.632,187.382,189.184,191.599,195.739,199.489,201.26,205.475,209.067,212.03,216.17,219.92,224.11999999999998,225.921,228.884,231.299,233.714,237.306,239.024,243.163,247.303,249.703,251.489,255.082,257.497,259.912,263.969,269.436,272.436,274.223,278.438,282.188,286.328,290.385,292.8,296.55,298.317,300.732,304.872,307.287,311.037,314.787,316.572,320.322,324.537,328.594,330.312,333.904,337.496,339.214,342.964,347.104,349.50399999999996,351.268,355.483,357.2,360.163,362.578,366.635,369.05,371.465,373.182,377.24,381.38,384.38,386.19,389.783,393.533,396.885,399.3,403.357,405.772,408.772,410.511,412.693,416.751,419.15099999999995,420.942,423.357,427.497,431.247,433.018,437.233,441.29,443.008,446.6,449.015,450.733,453.935,457.528,459.943,461.66,465.718,469.843,471.682,475.897,479.955,485.422,489.547,491.297,494.26,496.675,500.267,502.682,506.432,509.432,511.196" svgx:width="0.28,0.2,0.55,0.73,0.55,0.23,0.23,0.5,0.55,0.32,0.55,0.5,0.55,0.56,0.48,0.4,0.55,0.5,0.56,0.55,0.4,0.32,0.32,0.48,0.23,0.55,0.55,0.32,0.55,0.48,0.32,0.32,0.54,0.73,0.4,0.55,0.56,0.5,0.55,0.54,0.32,0.5,0.55,0.32,0.55,0.32,0.5,0.5,0.55,0.5,0.56,0.54,0.23,0.48,0.48,0.23,0.5,0.55,0.32,0.55,0.56,0.23,0.4,0.32,0.54,0.32,0.32,0.23,0.54,0.55,0.4,0.55,0.48,0.5,0.45,0.32,0.54,0.32,0.4,0.55,0.29,0.54,0.32,0.55,0.32,0.55,0.5,0.55,0.56,0.54,0.23,0.48,0.32,0.23,0.43,0.48,0.32,0.23,0.54,0.55,0.55,0.56,0.54,0.73,0.55,0.55,0.4,0.32,0.48,0.32,0.5,0.4,0.55,0.28" style="fill:rgb(0,0,0);font-family:AdvTTe45e47d2;font-size:7.5px;stroke:none;">), while the dashed straight arrows denote three equivalent distortions vectors for the polarization down states (</text>
   <text y="378.765" x="513.354" svgx:width="0.5" style="fill:rgb(0,0,0);font-family:AdvTT7329fd89.I;font-size:7.5px;stroke:none;">P</text>
   <text y="380.013" x="517.096,520.257,523.3,527.401,530.505" svgx:width="0.56,0.54,0.73,0.55,0.51" style="fill:rgb(0,0,0);font-family:AdvTTe45e47d2;font-size:5.0px;stroke:none;">down1</text>
   <text y="378.765" x="533.367" svgx:width="0.2" style="fill:rgb(0,0,0);font-family:AdvTTe45e47d2;font-size:7.5px;stroke:none;">,</text>
   <text y="378.765" x="536.599" svgx:width="0.5" style="fill:rgb(0,0,0);font-family:AdvTT7329fd89.I;font-size:7.5px;stroke:none;">P</text>
   <text y="380.013" x="540.34,543.501,546.544,550.645,553.75" svgx:width="0.56,0.54,0.73,0.55,0.51" style="fill:rgb(0,0,0);font-family:AdvTTe45e47d2;font-size:5.0px;stroke:none;">down2</text>
   <text y="378.765" x="556.668" svgx:width="0.2" style="fill:rgb(0,0,0);font-family:AdvTTe45e47d2;font-size:7.5px;stroke:none;">,</text>
   <text y="388.743" x="35.887,39.479,43.619" svgx:width="0.48,0.55,0.56" style="fill:rgb(0,0,0);font-family:AdvTTe45e47d2;font-size:7.5px;stroke:none;">and</text>
   <text y="388.743" x="50.003" svgx:width="0.5" style="fill:rgb(0,0,0);font-family:AdvTT7329fd89.I;font-size:7.5px;stroke:none;">P</text>
   <text y="389.991" x="53.745,56.906,59.949,64.05,67.154" svgx:width="0.56,0.54,0.73,0.55,0.51" style="fill:rgb(0,0,0);font-family:AdvTTe45e47d2;font-size:5.0px;stroke:none;">down3</text>
   <text y="388.743" x="70.016,72.123,73.623,75.798,79.466,83.606,87.356,89.518,93.733,97.79,100.205,104.42,106.137,109.887,112.138,115.491,119.548,121.963,125.555,129.305,133.505,135.722,139.315,141.73,144.145,148.202,153.67,156.67,158.796,163.011,166.761,170.901,174.958,177.373,181.123,183.344,185.759,189.899,193.649,195.816,200.031,204.088,207.051,210.013,211.731,215.946,217.663,221.413,223.652,226.067,228.482,232.074,236.214,239.177,240.894,243.309,245.027,249.084,253.209,255.4,259.615,263.207,265.622,269.762,272.762,274.959,277.141,279.556,283.614" svgx:width="0.28,0.2,0.55,0.49,0.55,0.5,0.55,0.56,0.54,0.32,0.56,0.23,0.5,0.55,0.45,0.54,0.32,0.48,0.5,0.56,0.55,0.48,0.32,0.32,0.54,0.73,0.4,0.55,0.56,0.5,0.55,0.54,0.32,0.5,0.55,0.32,0.55,0.5,0.55,0.56,0.54,0.4,0.4,0.23,0.56,0.23,0.5,0.55,0.32,0.32,0.48,0.55,0.4,0.23,0.32,0.23,0.54,0.55,0.55,0.56,0.48,0.32,0.55,0.4,0.55,0.29,0.32,0.54,0.83" style="fill:rgb(0,0,0);font-family:AdvTTe45e47d2;font-size:7.5px;stroke:none;">). The purple curved arrows denote the possible transition paths from</text>
   <text y="388.743" x="292.025" svgx:width="0.5" style="fill:rgb(0,0,0);font-family:AdvTT7329fd89.I;font-size:7.5px;stroke:none;">P</text>
   <text y="389.991" x="295.767,298.81,301.971" svgx:width="0.54,0.56,0.51" style="fill:rgb(0,0,0);font-family:AdvTTe45e47d2;font-size:5.0px;stroke:none;">up1</text>
   <text y="388.743" x="307.049,309.464" svgx:width="0.32,0.54" style="fill:rgb(0,0,0);font-family:AdvTTe45e47d2;font-size:7.5px;stroke:none;">to</text>
   <text y="388.743" x="315.722" svgx:width="0.5" style="fill:rgb(0,0,0);font-family:AdvTT7329fd89.I;font-size:7.5px;stroke:none;">P</text>
   <text y="389.991" x="319.465,322.626,325.669,329.769,332.874" svgx:width="0.56,0.54,0.73,0.55,0.51" style="fill:rgb(0,0,0);font-family:AdvTTe45e47d2;font-size:5.0px;stroke:none;">down1</text>
   <text y="388.743" x="335.735,337.235,339.42,341.137,345.277,348.87,352.927,354.645,358.237,359.955,364.095,368.22,370.431,372.846,376.985,380.735,382.903,385.865,391.333,393.05,395.465,398.818,402.958,404.675,408.815,412.94,415.161,419.218,421.39300000000003,423.608,427.823,429.54,431.723,433.905,437.655,440.07,443.82,447.96,450.35999999999996,452.578,456.793,458.51,461.473,463.888,467.945,470.36,472.775,474.492,478.55,482.675,484.893,488.485,492.235,495.587,498.002,502.06,504.475,507.437,508.937,511.141" svgx:width="0.2,0.55,0.23,0.55,0.48,0.54,0.23,0.48,0.23,0.55,0.55,0.55,0.32,0.55,0.5,0.55,0.4,0.73,0.23,0.32,0.45,0.55,0.23,0.55,0.55,0.55,0.54,0.29,0.55,0.56,0.23,0.29,0.29,0.5,0.32,0.5,0.55,0.32,0.55,0.56,0.23,0.4,0.32,0.54,0.32,0.32,0.23,0.54,0.55,0.55,0.48,0.5,0.45,0.32,0.54,0.32,0.4,0.2,0.55,0.28" style="fill:rgb(0,0,0);font-family:AdvTTe45e47d2;font-size:7.5px;stroke:none;">, involving the switching of different distortion vectors. (</text>
   <text y="388.743" x="513.241" svgx:width="0.69" style="fill:rgb(0,0,0);font-family:AdvTTaf7f9f4f.B;font-size:7.5px;stroke:none;">D</text>
   <text y="388.743" x="518.4,520.5,522.709,526.376,530.516,534.266,536.428,540.178,544.318,548.068,550.483,554.623" svgx:width="0.28,0.55,0.49,0.55,0.5,0.55,0.5,0.55,0.5,0.32,0.55,0.47" style="fill:rgb(0,0,0);font-family:AdvTTe45e47d2;font-size:7.5px;stroke:none;">) The energy</text>
   <text y="398.721" x="35.887,39.637,43.229,47.287,49.004,53.062,55.477,57.194,61.252,65.37700000000001,67.294,71.509,75.259,77.674,83.142,86.892,90.642,94.767,96.661,100.718,104.933,109.148,113.206,116.168,117.886,120.301,124.051,125.971,130.186,134.243,135.96,139.553,141.968,143.685,146.888,150.48,152.895,154.613,158.67,162.795,164.748,167.711,170.125,173.718,176.133,179.883,182.883,184.761,188.818" svgx:width="0.5,0.48,0.54,0.23,0.54,0.32,0.23,0.54,0.55,0.55,0.56,0.5,0.32,0.73,0.5,0.5,0.55,0.55,0.54,0.56,0.56,0.54,0.4,0.23,0.32,0.5,0.55,0.56,0.54,0.23,0.48,0.32,0.23,0.43,0.48,0.32,0.23,0.54,0.55,0.55,0.4,0.32,0.48,0.32,0.5,0.4,0.55,0.54,0.29" style="fill:rgb(0,0,0);font-family:AdvTTe45e47d2;font-size:7.5px;stroke:none;">evolution between opposite polarization states of</text>
   <text y="398.721" x="192.926" svgx:width="0.47" style="fill:rgb(0,0,0);font-family:AdvTT7329fd89.I;font-size:7.5px;stroke:none;">T</text>
   <text y="399.969" x="196.441" svgx:width="0.52" style="fill:rgb(0,0,0);font-family:AdvTT7329fd89.I;font-size:5.0px;stroke:none;">d</text>
   <text y="398.721" x="199.389,201.654,207.976,211.644" svgx:width="0.3,0.84,0.49,0.5" style="fill:rgb(0,0,0);font-family:AdvTTe45e47d2;font-size:7.5px;stroke:none;">-WTe</text>
   <text y="399.969" x="215.376" svgx:width="0.51" style="fill:rgb(0,0,0);font-family:AdvTTe45e47d2;font-size:5.0px;stroke:none;">2</text>
   <text y="398.721" x="218.268,219.768,221.613,225.28,229.42,233.17,235.106,237.521,242.988,247.038,248.938,252.996,257.211,261.426,265.483,268.446,270.163,272.578,276.328,278.248,282.463,286.52,288.238,291.83,294.245,295.963,299.165,302.758,305.173,306.89,310.948,315.073,317.025,319.988,322.403,325.995,328.41,332.16,335.16,337.038" svgx:width="0.2,0.55,0.49,0.55,0.5,0.55,0.32,0.73,0.54,0.55,0.54,0.56,0.56,0.54,0.4,0.23,0.32,0.5,0.55,0.56,0.54,0.23,0.48,0.32,0.23,0.43,0.48,0.32,0.23,0.54,0.55,0.55,0.4,0.32,0.48,0.32,0.5,0.4,0.55,0.28" style="fill:rgb(0,0,0);font-family:AdvTTe45e47d2;font-size:7.5px;stroke:none;">. The two opposite polarization states (</text>
   <text y="398.721" x="339.137" svgx:width="0.5" style="fill:rgb(0,0,0);font-family:AdvTT7329fd89.I;font-size:7.5px;stroke:none;">P</text>
   <text y="399.969" x="342.879,345.922,349.083" svgx:width="0.54,0.56,0.51" style="fill:rgb(0,0,0);font-family:AdvTTe45e47d2;font-size:5.0px;stroke:none;">up1</text>
   <text y="398.721" x="353.877,357.47,361.609" svgx:width="0.48,0.55,0.56" style="fill:rgb(0,0,0);font-family:AdvTTe45e47d2;font-size:7.5px;stroke:none;">and</text>
   <text y="398.721" x="367.71" svgx:width="0.5" style="fill:rgb(0,0,0);font-family:AdvTT7329fd89.I;font-size:7.5px;stroke:none;">P</text>
   <text y="399.969" x="371.452,374.613,377.656,381.756,384.861" svgx:width="0.56,0.54,0.73,0.55,0.51" style="fill:rgb(0,0,0);font-family:AdvTTe45e47d2;font-size:5.0px;stroke:none;">down1</text>
   <text y="398.721" x="387.779,389.879,391.748,395.34,397.755,401.505,403.426,406.779,410.836,414.976,419.116,422.866,426.219,428.634,432.384,436.584,438.519,442.734,446.25899999999996,448.157,450.572,454.712,458.462,460.346,462.064,466.204,469.796,473.546,475.961,478.923,480.641,484.698,488.823,490.733,494.791,499.006,502.756,505.171,508.763,511.178,512.896,516.953,521.078,523.048,525.156,527.571,531.628,535.843,537.951,539.451,541.36,546.827,550.967,552.685,554.402" svgx:width="0.28,0.55,0.48,0.32,0.5,0.55,0.45,0.54,0.55,0.55,0.5,0.45,0.32,0.5,0.56,0.55,0.56,0.47,0.55,0.32,0.55,0.5,0.55,0.23,0.55,0.48,0.5,0.32,0.4,0.23,0.54,0.55,0.55,0.54,0.56,0.5,0.32,0.48,0.32,0.23,0.54,0.55,0.55,0.28,0.32,0.54,0.56,0.28,0.2,0.55,0.73,0.55,0.23,0.23,0.5" style="fill:rgb(0,0,0);font-family:AdvTTe45e47d2;font-size:7.5px;stroke:none;">) are connected by the inversion operation (top), while</text>
   <text y="408.699" x="35.887,38.302,42.442,46.192,48.246,52.461,56.519,58.236,61.828,64.243,65.961,69.163,72.756,75.171,76.888,80.946,85.071,87.194,91.409,95.466,100.934,105.059,107.15,110.112,112.527,116.12,118.535,122.285,124.384" svgx:width="0.32,0.55,0.5,0.55,0.56,0.54,0.23,0.48,0.32,0.23,0.43,0.48,0.32,0.23,0.54,0.55,0.55,0.56,0.54,0.73,0.55,0.55,0.4,0.32,0.48,0.32,0.5,0.55,0.28" style="fill:rgb(0,0,0);font-family:AdvTTe45e47d2;font-size:7.5px;stroke:none;">the polarization down state (</text>
   <text y="408.699" x="126.482" svgx:width="0.5" style="fill:rgb(0,0,0);font-family:AdvTT7329fd89.I;font-size:7.5px;stroke:none;">P</text>
   <text y="409.947" x="130.224,133.385,136.428,140.528,143.633" svgx:width="0.56,0.54,0.73,0.55,0.51" style="fill:rgb(0,0,0);font-family:AdvTTe45e47d2;font-size:5.0px;stroke:none;">down2</text>
   <text y="408.699" x="146.551,148.65099999999998,150.69,154.829,158.422,161.422,163.502,167.102,169.115,173.33,175.048,177.23,179.413,183.163,185.578,189.328,193.467,195.86700000000002,198.028,202.243,203.961,206.923,209.338,213.395,215.81,218.225,219.943,224.0,228.125,230.23,233.822,237.572,240.925,243.34,247.397,249.812,251.312,253.417,258.885,263.025,264.742,268.094,272.219,274.28,277.632,281.225,285.35,287.432,291.647,295.397,297.467,301.524,305.739,308.154,311.747,313.464,317.604,321.354,325.554,327.684,331.899,335.424,337.492,341.084,345.299,349.514,351.231,352.949,356.301,359.894,362.309,364.026,368.084,372.209,374.342,378.399,380.574,382.619,386.21900000000005,388.288,390.703,394.843,397.258,401.008,404.757,406.94,410.997,412.715,416.91499999999996,419.015,421.43,425.487,427.902,431.495,433.91,435.627,439.684,443.809,445.944,450.001" svgx:width="0.28,0.55,0.55,0.48,0.4,0.55,0.48,0.55,0.56,0.23,0.29,0.29,0.5,0.32,0.5,0.55,0.32,0.55,0.56,0.23,0.4,0.32,0.54,0.32,0.32,0.23,0.54,0.55,0.55,0.48,0.5,0.45,0.32,0.54,0.32,0.2,0.55,0.73,0.55,0.23,0.45,0.55,0.55,0.45,0.48,0.55,0.55,0.56,0.5,0.55,0.54,0.56,0.32,0.48,0.23,0.55,0.5,0.56,0.55,0.56,0.47,0.55,0.48,0.56,0.56,0.23,0.23,0.45,0.48,0.32,0.23,0.54,0.55,0.55,0.54,0.29,0.55,0.48,0.55,0.32,0.55,0.32,0.5,0.5,0.29,0.54,0.23,0.56,0.55,0.32,0.54,0.32,0.48,0.32,0.23,0.54,0.55,0.55,0.54,0.55" style="fill:rgb(0,0,0);font-family:AdvTTe45e47d2;font-size:7.5px;stroke:none;">) has a different distortion vector, which can be obtained by application of a threefold rotation on</text>
   <text y="408.699" x="456.208" svgx:width="0.5" style="fill:rgb(0,0,0);font-family:AdvTT7329fd89.I;font-size:7.5px;stroke:none;">P</text>
   <text y="409.947" x="460.006,463.167,466.21,470.311,473.416" svgx:width="0.56,0.54,0.73,0.55,0.51" style="fill:rgb(0,0,0);font-family:AdvTTe45e47d2;font-size:5.0px;stroke:none;">down1</text>
   <text y="408.699" x="478.318,480.425,484.64,488.698,491.113,493.528,497.585,503.833,505.94,507.44,509.555,513.223,517.362,521.112,523.161,526.911,531.051,534.801,537.216,541.356,543.074,546.824,549.824,551.905,555.962" svgx:width="0.28,0.56,0.54,0.32,0.32,0.54,0.83,0.28,0.2,0.55,0.49,0.55,0.5,0.55,0.5,0.55,0.5,0.32,0.55,0.23,0.5,0.4,0.55,0.54,0.29" style="fill:rgb(0,0,0);font-family:AdvTTe45e47d2;font-size:7.5px;stroke:none;">(bottom). The energies of</text>
   <text y="418.621" x="35.887,37.604,41.744,44.159,47.909,50.324,56.572,60.322,64.537,66.254,69.846,72.261,76.011,78.463,81.426,83.841,87.433,89.848,93.598,96.598,98.986,102.578,104.993,108.743,111.175,114.527,118.12,119.837,123.189,127.247,128.964,132.557,134.972,138.722,142.922,145.36,149.417,152.38,154.097,158.237,162.362,164.806,167.221,171.361,175.111,177.562,181.154,183.569,187.626,193.874,195.591,198.966,201.372,205.587,209.645,212.607,214.325,216.74,218.457,222.514" svgx:width="0.23,0.55,0.32,0.5,0.32,0.83,0.5,0.56,0.23,0.48,0.32,0.5,0.55,0.4,0.32,0.48,0.32,0.5,0.4,0.55,0.48,0.32,0.5,0.55,0.45,0.48,0.23,0.45,0.54,0.23,0.48,0.32,0.5,0.56,0.55,0.54,0.4,0.23,0.55,0.55,0.55,0.32,0.55,0.5,0.55,0.48,0.32,0.54,0.83,0.23,0.45,0.55,0.56,0.54,0.4,0.23,0.32,0.23,0.54,0.55" style="fill:rgb(0,0,0);font-family:AdvTTe45e47d2;font-size:7.5px;stroke:none;">intermediate states are calculated using the atomic position</text>
   <text y="418.621" x="229.096" svgx:width="0.31" style="fill:rgb(0,0,0);font-family:AdvTT7329fd89.I;font-size:7.5px;stroke:none;">r</text>
   <text y="418.621" x="231.421" svgx:width="0.28" style="fill:rgb(0,0,0);font-family:AdvTTe45e47d2;font-size:7.5px;stroke:none;">(</text>
   <text y="418.621" x="233.518" svgx:width="0.55" style="fill:rgb(0,0,0);font-family:AdvTTcd7bcd39;font-size:7.5px;stroke:none;">a</text>
   <text y="418.621" x="237.657" svgx:width="0.28" style="fill:rgb(0,0,0);font-family:AdvTTe45e47d2;font-size:7.5px;stroke:none;">)</text>
   <text y="418.621" x="242.192,246.61700000000002,249.052" svgx:width="0.59,0.55,0.31" style="fill:rgb(0,0,0);font-family:AdvTT7329fd89.I;font-size:7.5px;stroke:none;">= r</text>
   <text y="419.868" x="251.433,254.476" svgx:width="0.54,0.56" style="fill:rgb(0,0,0);font-family:AdvTTe45e47d2;font-size:5.0px;stroke:none;">up</text>
   <text y="418.621" x="260.05" svgx:width="0.59" style="fill:rgb(0,0,0);font-family:AdvTTe45e47d2;font-size:7.5px;stroke:none;">+</text>
   <text y="418.621" x="266.91" svgx:width="0.55" style="fill:rgb(0,0,0);font-family:AdvTTcd7bcd39;font-size:7.5px;stroke:none;">a</text>
   <text y="418.621" x="271.049" svgx:width="0.28" style="fill:rgb(0,0,0);font-family:AdvTTe45e47d2;font-size:7.5px;stroke:none;">(</text>
   <text y="418.621" x="273.147" svgx:width="0.31" style="fill:rgb(0,0,0);font-family:AdvTT7329fd89.I;font-size:7.5px;stroke:none;">r</text>
   <text y="419.868" x="275.527,278.689,281.732,285.832" svgx:width="0.56,0.54,0.73,0.55" style="fill:rgb(0,0,0);font-family:AdvTTe45e47d2;font-size:5.0px;stroke:none;">down</text>
   <text y="418.621" x="291.345" svgx:width="0.5" style="fill:rgb(0,0,0);font-family:AdvTTe45e47d2;font-size:7.5px;stroke:none;"></text>
   <text y="418.621" x="297.524" svgx:width="0.31" style="fill:rgb(0,0,0);font-family:AdvTT7329fd89.I;font-size:7.5px;stroke:none;">r</text>
   <text y="419.868" x="299.849,302.892" svgx:width="0.54,0.56" style="fill:rgb(0,0,0);font-family:AdvTTe45e47d2;font-size:5.0px;stroke:none;">up</text>
   <text y="418.621" x="306.028,308.136,309.636,312.038,317.505,321.645,325.395,327.81,331.56,333.978,337.803,340.271" svgx:width="0.28,0.2,0.55,0.73,0.55,0.5,0.32,0.5,0.55,0.51,0.55,0.59" style="fill:rgb(0,0,0);font-family:AdvTTe45e47d2;font-size:7.5px;stroke:none;">), where 0 &lt;</text>
   <text y="418.621" x="347.131" svgx:width="0.55" style="fill:rgb(0,0,0);font-family:AdvTTcd7bcd39;font-size:7.5px;stroke:none;">a</text>
   <text y="418.621" x="353.65,358.075,360.511,364.336,366.804,370.396,374.536" svgx:width="0.59,0.55,0.51,0.55,0.48,0.55,0.56" style="fill:rgb(0,0,0);font-family:AdvTTe45e47d2;font-size:7.5px;stroke:none;">&lt; 1 and</text>
   <text y="418.621" x="381.147" svgx:width="0.31" style="fill:rgb(0,0,0);font-family:AdvTT7329fd89.I;font-size:7.5px;stroke:none;">r</text>
   <text y="419.868" x="383.471,386.514" svgx:width="0.54,0.56" style="fill:rgb(0,0,0);font-family:AdvTTe45e47d2;font-size:5.0px;stroke:none;">up</text>
   <text y="418.621" x="392.145,395.737,399.877" svgx:width="0.48,0.55,0.56" style="fill:rgb(0,0,0);font-family:AdvTTe45e47d2;font-size:7.5px;stroke:none;">and</text>
   <text y="418.621" x="406.488" svgx:width="0.31" style="fill:rgb(0,0,0);font-family:AdvTT7329fd89.I;font-size:7.5px;stroke:none;">r</text>
   <text y="419.868" x="408.813,411.974,415.017,419.117" svgx:width="0.56,0.54,0.73,0.55" style="fill:rgb(0,0,0);font-family:AdvTTe45e47d2;font-size:5.0px;stroke:none;">down</text>
   <text y="418.621" x="424.686,428.279,430.694,434.444,436.818,439.233,443.373,447.123,449.574,453.167,455.582,459.639,465.886,467.604,470.979,473.385,477.6,481.657,484.62,486.337,488.752,490.47,494.527,498.667,501.667,504.056,508.113" svgx:width="0.48,0.32,0.5,0.55,0.32,0.55,0.5,0.55,0.48,0.32,0.54,0.83,0.23,0.45,0.55,0.56,0.54,0.4,0.23,0.32,0.23,0.54,0.55,0.4,0.55,0.54,0.29" style="fill:rgb(0,0,0);font-family:AdvTTe45e47d2;font-size:7.5px;stroke:none;">are the atomic positions of</text>
   <text y="418.621" x="512.731" svgx:width="0.5" style="fill:rgb(0,0,0);font-family:AdvTT7329fd89.I;font-size:7.5px;stroke:none;">P</text>
   <text y="419.868" x="516.472,519.515" svgx:width="0.54,0.56" style="fill:rgb(0,0,0);font-family:AdvTTe45e47d2;font-size:5.0px;stroke:none;">up</text>
   <text y="418.621" x="525.146,528.739,532.879" svgx:width="0.48,0.55,0.56" style="fill:rgb(0,0,0);font-family:AdvTTe45e47d2;font-size:7.5px;stroke:none;">and</text>
   <text y="418.621" x="539.49" svgx:width="0.5" style="fill:rgb(0,0,0);font-family:AdvTT7329fd89.I;font-size:7.5px;stroke:none;">P</text>
   <text y="419.868" x="543.231,546.392,549.435,553.536" svgx:width="0.56,0.54,0.73,0.55" style="fill:rgb(0,0,0);font-family:AdvTTe45e47d2;font-size:5.0px;stroke:none;">down</text>
   <text y="418.621" x="556.668" svgx:width="0.2" style="fill:rgb(0,0,0);font-family:AdvTTe45e47d2;font-size:7.5px;stroke:none;">,</text>
   <text y="428.598" x="35.887,38.302,42.051,45.014,49.229,52.979,56.331,58.746,60.464,64.056,67.806,69.524,73.034,74.534,77.045,78.763,82.903,85.865,89.615,92.03,95.03,97.511,100.473,104.613,108.671,114.146,116.616,119.031,123.171,126.921,129.429,131.844,135.901,140.101,142.639,146.231,147.949,151.699,157.166,160.166,162.651,166.709,168.88400000000001,171.382,173.797,177.937,181.687,184.195,188.41,190.127,192.31,194.492,198.242,200.657,204.407,208.547,210.947,213.504,216.467,218.882,222.474,224.889,228.639,231.602,233.102,235.614,239.282,243.422,247.172,249.674,252.089,255.839,260.039,262.6,266.815,270.408,273.37,277.51,281.26,285.46,287.942,292.157,296.214,299.649,303.399,306.399,308.918,310.636,314.761,317.252,319.667,323.807,327.557,330.065,331.782,335.922,338.885,342.635,345.05,348.05,350.531,354.745,358.495,362.635,366.693,369.108,372.858,375.362,377.777,381.917,385.667,388.175,392.232,396.372,398.09,400.48999999999995,403.028,406.381,410.131,411.848,413.57300000000004,416.068,420.125" svgx:width="0.32,0.5,0.4,0.56,0.5,0.45,0.32,0.23,0.48,0.5,0.23,0.47,0.2,0.55,0.23,0.55,0.4,0.5,0.32,0.4,0.55,0.4,0.55,0.54,0.73,0.55,0.32,0.55,0.5,0.55,0.32,0.54,0.56,0.55,0.48,0.23,0.5,0.73,0.4,0.55,0.54,0.29,0.55,0.32,0.55,0.5,0.55,0.56,0.23,0.29,0.29,0.5,0.32,0.5,0.55,0.32,0.55,0.4,0.32,0.48,0.32,0.5,0.4,0.2,0.55,0.49,0.55,0.5,0.55,0.32,0.5,0.56,0.55,0.56,0.48,0.4,0.55,0.5,0.56,0.55,0.56,0.54,0.46,0.5,0.4,0.55,0.23,0.55,0.55,0.32,0.55,0.5,0.55,0.23,0.55,0.4,0.5,0.32,0.4,0.55,0.56,0.5,0.55,0.54,0.32,0.5,0.55,0.32,0.55,0.5,0.55,0.54,0.55,0.23,0.32,0.55,0.45,0.5,0.23,0.23,0.55,0.54,0.29" style="fill:rgb(0,0,0);font-family:AdvTTe45e47d2;font-size:7.5px;stroke:none;">respectively. Insets show the top views of the different states. The red dashed boxes in the insets denote the unit cell of</text>
   <text y="428.598" x="424.856" svgx:width="0.47" style="fill:rgb(0,0,0);font-family:AdvTT7329fd89.I;font-size:7.5px;stroke:none;">T</text>
   <text y="429.846" x="428.371" svgx:width="0.52" style="fill:rgb(0,0,0);font-family:AdvTT7329fd89.I;font-size:5.0px;stroke:none;">d</text>
   <text y="428.599" x="431.263,433.528,439.85,443.518" svgx:width="0.3,0.84,0.49,0.5" style="fill:rgb(0,0,0);font-family:AdvTTe45e47d2;font-size:7.5px;stroke:none;">-WTe</text>
   <text y="429.846" x="447.307" svgx:width="0.51" style="fill:rgb(0,0,0);font-family:AdvTTe45e47d2;font-size:5.0px;stroke:none;">2</text>
   <text y="428.599" x="450.142" svgx:width="0.2" style="fill:rgb(0,0,0);font-family:AdvTTe45e47d2;font-size:7.5px;stroke:none;">.</text>
  </g>
  <path style="fill:rgb(35,31,32);stroke:none;stroke-width:1.0;" d="M116.96 55.79 L477.01 55.79 L477.01 347.87 L116.96 347.87 M116.96 55.79 L477.01 55.79 L477.01 347.87 L116.96 347.87 M558.14 46.09 L35.89 46.09 L35.89 45.58 L558.14 45.58 "/>
  <g begin="text">
   <text y="39.628" x="35.887,41.277,42.961,50.948,53.478,55.162,60.552,62.236,71.147,79.135,84.525,89.85,98.183,107.095,114.862,123.201,132.112,140.099,145.48899999999998,147.173" svgx:width="0.49,0.55,0.57,0.23,0.55,0.49,0.55,0.66,0.57,0.49,0.55,0.6,0.66,0.55,0.6,0.66,0.57,0.49,0.55,0.49" style="fill:rgb(35,31,32);font-family:AdvTTe45e47d2;font-size:11.0px;stroke:none;">S CI E NCE ADVANCE S</text>
   <text y="38.608" x="159.76" svgx:width="0.23" style="fill:rgb(35,31,32);font-family:AdvTTe45e47d2;font-size:11.0px;stroke:none;">|</text>
   <text y="39.628" x="169.454,176.993,182.38299999999998,184.069,189.45899999999997,191.145,196.535,198.222,206.563,214.101,222.091,229.131,234.563,242.896,250.435,255.825,257.511,260.041,261.727,269.717,274.887,276.562" svgx:width="0.53,0.49,0.55,0.49,0.55,0.49,0.55,0.6,0.53,0.57,0.64,0.55,0.6,0.53,0.49,0.55,0.23,0.55,0.57,0.47,0.55,0.49" style="fill:rgb(181,17,26);font-family:AdvTTe45e47d2;font-size:11.0px;stroke:none;">RE S E ARCH ART I CL E</text>
   <text y="724.819" x="35.887,39.554,43.694,47.286,49.701,55.949" svgx:width="0.49,0.55,0.48,0.32,0.83,0.48" style="fill:rgb(0,0,0);font-family:AdvTTe45e47d2;font-size:7.5px;stroke:none;">Sharma</text>
   <text y="724.819" x="62.022,65.375,67.7,70.243,74.143" svgx:width="0.45,0.31,0.55,0.52,0.22" style="fill:rgb(0,0,0);font-family:AdvTT7329fd89.I;font-size:7.5px;stroke:none;">et al</text>
   <text y="724.819" x="75.799,77.276" svgx:width="0.2,0.2" style="fill:rgb(0,0,0);font-family:AdvTTe45e47d2;font-size:7.5px;stroke:none;">.,</text>
   <text y="724.819" x="81.242,84.676,87.796,89.431,91.006,93.544,97.759,101.658,105.011" svgx:width="0.46,0.42,0.22,0.21,0.55,0.56,0.52,0.45,0.21" style="fill:rgb(0,0,0);font-family:AdvTT7329fd89.I;font-size:7.5px;stroke:none;">Sci. Adv.</text>
   <text y="724.819" x="109.077,112.902,116.727,120.552,124.377" svgx:width="0.51,0.51,0.51,0.51,0.2" style="fill:rgb(0,0,0);font-family:AdvTTe45e47d2;font-size:7.5px;stroke:none;">2019;</text>
   <text y="724.819" x="126.879" svgx:width="0.55" style="fill:rgb(0,0,0);font-family:AdvTTaf7f9f4f.B;font-size:7.5px;stroke:none;">5</text>
   <text y="724.819" x="131.981,133.481,134.476,138.226,141.818,145.411,148.846,152.671,156.495,160.32,164.14499999999998,176.598,180.423,182.948,185.678,189.735,191.453,194.978,197.461,201.286,205.111,208.936" svgx:width="0.2,0.55,0.5,0.48,0.48,0.46,0.51,0.51,0.51,0.51,0.55,0.51,0.55,0.36,0.54,0.23,0.47,0.55,0.51,0.51,0.51,0.51" style="fill:rgb(0,0,0);font-family:AdvTTe45e47d2;font-size:7.5px;stroke:none;">: eaax5080 5 July 2019</text>
   <text y="724.819" x="538.072,542.197,544.714,549.004,551.479,554.004" svgx:width="0.55,0.55,0.57,0.33,0.55,0.55" style="fill:rgb(0,0,0);font-family:AdvTTaf7f9f4f.B;font-size:7.5px;stroke:none;">5 of 8</text>
  </g>
 </g>
</svg>
