<?xml version="1.0" encoding="UTF-8"?>
<svg height="781.081" width="4057.225" xmlns="http://www.w3.org/2000/svg">
 <g id="page" xmlns:svgx="http://www.xml-cml.org/schema/svgx">
  <g begin="text">
   <text y="78.689" x="44.844,50.62,53.5488,56.07,59.554,65.33,69.359,72.843,76.872,82.647,91.247,96.479,102.254,105.70580000000001,108.229,114.005,119.781,125.012,129.041,134.272,140.048,145.278,147.802,153.578,158.809,162.838,168.07,172.098,175.039,180.814,184.299,187.239,193.015,198.79,202.76479999999998,205.293,210.524,216.3,222.05300000000003,224.569,228.054,233.829,237.314,243.09,247.118,252.34799999999998,254.846,260.621,266.397,271.628,275.657,280.888,286.664,291.895" svgx:width="0.55,0.28,0.55,0.33,0.55,0.38,0.33,0.38,0.55,0.82,0.5,0.55,0.33,0.55,0.55,0.55,0.5,0.38,0.5,0.55,0.5,0.55,0.55,0.5,0.38,0.5,0.38,0.28,0.55,0.33,0.28,0.55,0.55,0.38,0.55,0.5,0.55,0.55,0.55,0.33,0.55,0.33,0.55,0.38,0.5,0.55,0.55,0.55,0.5,0.38,0.5,0.55,0.5,0.38" style="fill:rgb(103,102,103);font-family:AdvOpti-B;font-size:10.46px;stroke:none;">2. Instrument upgrade descriptions and future upgrades</text>
   <text y="102.216" x="44.844,50.542,57.94,67.175,74.845,81.479,88.7498,91.447,96.108,101.288,104.395,109.057,112.682,117.467,122.6462,125.291,128.398,133.578,138.2592,140.937,146.117,149.742,154.404,157.9896,160.722,165.902,169.527,174.707,179.369,182.994,187.764,195.4332,198.082,202.744,205.8316,208.513,213.693,220.955,226.13420000000002,228.809,231.399,236.5782,239.24,241.83,246.491,249.599,254.28019999999998,256.984,261.646,266.307,270.969,275.6502,278.3,284.934,287.524,290.716" svgx:width="0.57,0.77,0.93,0.77,0.67,0.73,0.55,0.47,0.52,0.31,0.47,0.36,0.47,0.52,0.55,0.31,0.52,0.47,0.55,0.52,0.36,0.47,0.36,0.55,0.52,0.36,0.52,0.47,0.36,0.47,0.77,0.55,0.47,0.31,0.55,0.52,0.73,0.52,0.55,0.26,0.52,0.55,0.26,0.47,0.31,0.47,0.55,0.47,0.47,0.47,0.47,0.55,0.67,0.26,0.31,0.52" style="fill:rgb(0,0,0);font-family:Advt93-r;font-size:9.96px;stroke:none;">POWGEN entered the user program at SNS in late 2010 with</text>
   <text y="114.179" x="44.844,49.5252,52.951,56.576,61.756,69.426,74.21,80.844,86.024,90.686,93.7736,97.284,99.873,102.462,110.208,112.798,115.905,120.567,125.74619999999999,129.256,134.436,139.097,142.205,146.866,151.01,154.117,159.415,163.0006,166.502,170.645,175.825,180.486,185.148,188.895,193.556,198.218,202.89919999999998,206.357,211.536,214.6236,218.148,222.81,227.471,232.133,236.795,241.562" svgx:width="0.47,0.55,0.36,0.52,0.77,0.47,0.67,0.52,0.47,0.31,0.55,0.26,0.26,0.77,0.26,0.31,0.47,0.52,0.55,0.52,0.47,0.31,0.47,0.42,0.31,0.52,0.36,0.55,0.42,0.52,0.47,0.47,0.36,0.47,0.47,0.47,0.55,0.52,0.31,0.55,0.47,0.47,0.47,0.47,0.47,0.47" style="fill:rgb(0,0,0);font-family:Advt93-r;font-size:9.96px;stroke:none;">a somewhat limited detector coverage of 30–130</text>
   <text y="110.607" code="2" x="246.218" svgx:width="0.5" style="fill:rgb(0,0,0);font-family:AdvMT_SY;font-size:6.58px;stroke:none;">?</text>
   <text y="114.179" x="253.474,256.065,261.2442,264.757" svgx:width="0.26,0.52,0.55,0.47" style="fill:rgb(0,0,0);font-family:Advt93-r;font-size:9.96px;stroke:none;">in 2</text>
   <text y="114.179" code="3" x="269.462" svgx:width="0.79" style="fill:rgb(0,0,0);font-family:AdvMT_RM;font-size:9.96px;stroke:none;">?</text>
   <text y="114.179" x="280.8,285.462,290.641" svgx:width="0.47,0.52,0.52" style="fill:rgb(0,0,0);font-family:Advt93-r;font-size:9.96px;stroke:none;">and</text>
   <text y="126.141" x="44.843,52.513,57.692,61.318,64.40559999999999,69.05,74.23,77.3176,81.976,85.083,90.262,94.9432,99.55,104.729,109.391,112.498,117.16,121.303,124.411,129.709,133.334,136.9196,141.557,144.147,149.3262,153.916,159.096,161.685,166.347,171.526,176.2072,180.844,184.47,189.131,193.8122,198.419,206.089,211.345,216.525,221.704,224.294,228.955,232.5406,237.253,242.433,245.5206,250.122,253.747,257.891,260.48,265.66,268.767,271.356,273.946,276.652,281.313,284.421,289.6,292.751" svgx:width="0.77,0.52,0.36,0.31,0.55,0.52,0.31,0.55,0.31,0.52,0.47,0.55,0.52,0.47,0.31,0.47,0.42,0.31,0.52,0.36,0.36,0.55,0.26,0.52,0.55,0.52,0.26,0.47,0.52,0.47,0.55,0.36,0.47,0.47,0.55,0.77,0.52,0.52,0.52,0.26,0.47,0.36,0.55,0.52,0.31,0.55,0.36,0.42,0.26,0.52,0.31,0.26,0.26,0.26,0.47,0.31,0.52,0.36,0.31" style="fill:rgb(0,0,0);font-family:Advt93-r;font-size:9.96px;stroke:none;">most of the detectors in plane (12 modules of scintillator-</text>
   <text y="138.103" x="44.843,50.022,54.684,58.309,62.971,68.1502,75.116,81.75,86.412,91.073,95.735,98.324,102.986,108.281,112.943,116.05,121.22919999999999,128.123,131.748,136.928,139.517,142.624,145.732,148.417,153.596,158.2772,165.141,170.321,175.5,180.162,183.7476,190.766,195.946,200.607,205.787,208.894,212.52,217.699,222.87820000000002,229.827,235.007,239.748,242.855,247.517,251.66,254.768,259.947,263.573,267.198,270.823,273.11379999999997,280.054,286.007,291.186" svgx:width="0.52,0.47,0.36,0.47,0.52,0.55,0.67,0.47,0.47,0.47,0.26,0.47,0.52,0.47,0.31,0.52,0.55,0.36,0.52,0.26,0.31,0.31,0.26,0.52,0.47,0.55,0.52,0.52,0.47,0.36,0.55,0.52,0.47,0.52,0.31,0.36,0.52,0.52,0.55,0.52,0.47,0.31,0.47,0.42,0.31,0.52,0.36,0.36,0.36,0.23,0.55,0.63,0.52,0.47" style="fill:rgb(0,0,0);font-family:Advt93-r;font-size:9.96px;stroke:none;">based wavelength shifting ﬁber neutron detectors). The</text>
   <text y="150.009" x="44.843,50.022,54.684,57.791,62.453,66.596,69.703,75.002,78.5876,82.429,86.572,91.752,99.422,104.709,107.299,111.96,119.631,124.292,129.472,132.55960000000002,136.513,143.147,147.809,151.3946,155.279,159.941,163.566,168.228,173.407,178.692,183.354,185.943,188.533,193.21419999999998,197.06,199.649,204.829,208.972,212.597,217.355,222.016,225.642,230.303,235.4822,239.351,244.531,249.192,253.854,257.43960000000004,261.405,264.512,269.692,274.3732,278.185,283.364,288.106,292.767" svgx:width="0.52,0.47,0.31,0.47,0.42,0.31,0.52,0.36,0.55,0.42,0.52,0.77,0.52,0.26,0.47,0.77,0.47,0.52,0.31,0.55,0.67,0.47,0.36,0.55,0.47,0.36,0.47,0.52,0.52,0.47,0.26,0.26,0.47,0.55,0.26,0.52,0.42,0.36,0.47,0.47,0.36,0.47,0.52,0.55,0.52,0.47,0.47,0.36,0.55,0.31,0.52,0.47,0.55,0.52,0.47,0.47,0.31" style="fill:rgb(0,0,0);font-family:Advt93-r;font-size:9.96px;stroke:none;">detector complement was gradually increased over the next</text>
   <text y="161.971" x="44.843,48.986,54.166,59.345,64.525,67.114,71.79520000000001,76.363,81.542,84.6296,89.176,93.837,98.499,103.16,106.786,110.3716,114.97,118.077,123.25619999999999,127.782,132.444,137.12519999999998,141.615,149.286,154.542,159.721,164.901,167.49,172.152,175.29,177.58079999999998,182.094,187.273,189.863,194.524,199.704,202.389,207.568,211.712,216.373,221.553,224.6406,229.204,231.794,239.464,244.644,248.367,253.546,258.208,262.869,270.54,275.201,280.381,283.4686,288.108,290.697" svgx:width="0.42,0.52,0.52,0.52,0.26,0.47,0.55,0.52,0.31,0.55,0.47,0.47,0.47,0.36,0.36,0.55,0.31,0.52,0.55,0.47,0.47,0.55,0.77,0.52,0.52,0.52,0.26,0.47,0.36,0.23,0.55,0.52,0.26,0.47,0.52,0.26,0.52,0.42,0.47,0.52,0.31,0.55,0.26,0.77,0.52,0.36,0.52,0.47,0.47,0.77,0.47,0.52,0.31,0.55,0.26,0.52" style="fill:rgb(0,0,0);font-family:Advt93-r;font-size:9.96px;stroke:none;">couple of years to 30 modules. Signiﬁcant improvement in</text>
   <text y="173.933" x="44.843,47.432,52.611,56.237,59.344,62.97,68.149,75.82,80.615,85.794,88.88159999999999,92.067,97.246,101.908,105.616,108.723,113.903,117.528,125.199,129.86,135.152,139.296,143.97719999999998,147.115,153.749,158.41,161.9956,165.257,169.918,172.508,176.133,181.31220000000002,184.532,189.193,193.337,198.516,201.199,205.861,210.522,215.184,220.3632,223.592,226.7,231.879,235.505,240.684,245.864,250.634,255.8132,258.968,263.629,268.809,273.471,278.132,283.312,287.455,292.245" svgx:width="0.26,0.52,0.36,0.31,0.36,0.52,0.77,0.47,0.52,0.31,0.55,0.52,0.47,0.36,0.31,0.52,0.36,0.77,0.47,0.52,0.42,0.47,0.55,0.67,0.47,0.36,0.55,0.47,0.26,0.36,0.52,0.55,0.47,0.42,0.52,0.26,0.47,0.47,0.47,0.52,0.55,0.31,0.52,0.36,0.52,0.52,0.47,0.52,0.55,0.47,0.52,0.47,0.47,0.52,0.42,0.47,0.36" style="fill:rgb(0,0,0);font-family:Advt93-r;font-size:9.96px;stroke:none;">instrument performance was also achieved through advances</text>
   <text y="185.895" x="44.843,47.432,52.611200000000004,55.613,60.275,64.936,69.598,74.777,77.8646,80.954,86.134,91.314,94.939,97.528,100.636,103.225,108.405,113.584,116.173,121.488,126.1692,129.141,133.802,136.392,141.053,146.233,149.858,152.554,155.662,160.841,168.512,172.0976,175.175,179.836,185.016,190.1952,193.203,196.829,200.972,203.561,208.85,211.957,214.546,217.136,219.725,224.386,227.494,232.673,236.299,239.8846,242.976,246.601,255.164,259.826,265.005,269.667,271.95779999999996,274.893,279.555,284.216,288.878,293.54" svgx:width="0.26,0.52,0.55,0.47,0.47,0.47,0.52,0.31,0.55,0.52,0.52,0.36,0.26,0.31,0.26,0.52,0.52,0.26,0.52,0.47,0.55,0.47,0.26,0.47,0.52,0.36,0.26,0.31,0.52,0.77,0.36,0.55,0.47,0.52,0.52,0.55,0.36,0.42,0.26,0.52,0.31,0.26,0.26,0.26,0.47,0.31,0.52,0.36,0.36,0.55,0.36,0.93,0.47,0.52,0.47,0.23,0.55,0.47,0.47,0.47,0.47,0.23" style="fill:rgb(0,0,0);font-family:Advt93-r;font-size:9.96px;stroke:none;">in event positioning algorithms and scintillators (Wang, 2016,</text>
   <text y="197.857" x="44.843,49.504,54.166,58.827,63.489,67.0746,71.147,74.254,79.4332,83.392,85.982,93.652,98.926,102.551,107.731,112.393,117.0742,121.092,126.272,130.933,134.041,138.702,142.846,145.953,151.133,154.7186,158.791,163.452,166.56,171.83,175.974,178.563,183.224,188.404,192.548,196.377,198.6678,202.614,209.248,213.91,218.571,223.7502,227.786,234.42,237.009,240.116,245.29520000000002,249.271,252.379,257.558,262.2392,266.222,270.883,275.632,279.258,281.847,287.027,292.206" svgx:width="0.47,0.47,0.47,0.47,0.36,0.55,0.31,0.52,0.55,0.26,0.77,0.52,0.36,0.52,0.47,0.47,0.55,0.52,0.47,0.31,0.47,0.42,0.31,0.52,0.36,0.55,0.47,0.31,0.52,0.42,0.26,0.47,0.52,0.42,0.47,0.23,0.55,0.67,0.47,0.47,0.52,0.55,0.67,0.26,0.31,0.52,0.55,0.31,0.52,0.47,0.55,0.47,0.47,0.36,0.26,0.52,0.52,0.36" style="fill:rgb(0,0,0);font-family:Advt93-r;font-size:9.96px;stroke:none;">2015) to improve detector efﬁciency. Even with the various</text>
   <text y="209.82" x="44.843,47.432,55.102,60.282,63.907,69.087,73.748,78.41,86.228,90.889,96.069,99.176,102.7616,107.487,111.112,113.702,118.881,123.025,127.70620000000001,132.374,137.035,142.295,145.402,150.064,153.689,156.278,161.458,166.1392,170.81,173.917,179.097,183.7782,188.441,193.62,197.246,201.99,205.5756,210.267,215.447,219.072,224.252,228.913,232.539,237.309,244.979,247.2698,251.879,257.577,264.975,274.274,281.944,288.578" svgx:width="0.26,0.77,0.52,0.36,0.52,0.47,0.47,0.77,0.47,0.52,0.31,0.36,0.55,0.36,0.26,0.52,0.42,0.47,0.55,0.47,0.52,0.31,0.47,0.36,0.26,0.52,0.47,0.55,0.31,0.52,0.47,0.55,0.52,0.36,0.47,0.36,0.55,0.52,0.36,0.52,0.47,0.36,0.47,0.77,0.23,0.55,0.57,0.77,0.93,0.77,0.67,0.73" style="fill:rgb(0,0,0);font-family:Advt93-r;font-size:9.96px;stroke:none;">improvements since entering the user program, POWGEN</text>
   <text y="221.782" x="44.843,51.477,56.138,59.7236,63.154,68.334,73.513,78.175,81.8,86.462,89.569,92.158,97.338,102.0192,105.445,110.106,113.19359999999999,116.613,121.2942,124.607,132.277,137.457,141.6,146.7792,150.175,152.765,157.944,164.578,169.337,172.9226,176.31,181.49,186.152,189.777,192.884,198.064,201.689,209.474,214.136,219.315,223.459,228.1402,231.528,234.117,238.779,243.44,248.102,250.6916,254.09,257.198,262.377,267.039,272.21819999999997,275.633,280.294,285.474,290.135,292.725" svgx:width="0.67,0.47,0.36,0.55,0.52,0.52,0.47,0.36,0.47,0.31,0.26,0.52,0.47,0.55,0.47,0.31,0.55,0.47,0.55,0.77,0.52,0.42,0.52,0.55,0.26,0.52,0.67,0.47,0.36,0.55,0.52,0.47,0.36,0.31,0.52,0.36,0.77,0.47,0.52,0.42,0.47,0.55,0.26,0.47,0.47,0.47,0.26,0.55,0.31,0.52,0.47,0.52,0.55,0.47,0.52,0.47,0.26,0.31" style="fill:rgb(0,0,0);font-family:Advt93-r;font-size:9.96px;stroke:none;">was operating at a much lower performance level than envi-</text>
   <text y="233.744" x="44.843,48.468,51.057,56.237,61.416,66.078,71.2572,75.058,77.648,82.82719999999999,86.566,89.674,94.853,99.5342,103.291,108.47,112.096,114.685,119.447,122.038,127.217,131.879,134.46859999999998,138.213,143.393,148.134,151.759,154.349,159.01,164.19,166.4808,170.243,176.196,181.375,186.0562,189.745,192.335,197.515,201.14,204.248,207.873,213.158,220.829,225.49,230.67,233.7576,237.593,244.227,248.889,252.4746,256.302,261.481,266.661,271.323,276.502,279.091,283.7722,287.539,290.646" svgx:width="0.36,0.26,0.52,0.52,0.47,0.52,0.55,0.26,0.52,0.55,0.31,0.52,0.47,0.55,0.52,0.36,0.26,0.47,0.26,0.52,0.47,0.26,0.55,0.52,0.47,0.36,0.26,0.47,0.52,0.23,0.55,0.63,0.52,0.47,0.55,0.26,0.52,0.36,0.31,0.36,0.52,0.77,0.47,0.52,0.31,0.55,0.67,0.47,0.36,0.55,0.52,0.52,0.47,0.52,0.26,0.47,0.55,0.31,0.52" style="fill:rgb(0,0,0);font-family:Advt93-r;font-size:9.96px;stroke:none;">sioned in the original design. The instrument was unable to</text>
   <text y="245.65" x="44.843,48.468,53.13,57.791,61.935,67.1142,69.333,71.922,75.03,78.6156,80.841,83.948,89.128,91.717,94.3066,96.487,101.667,106.846,109.954,114.615,119.901,123.008,125.597,130.259,132.84859999999998,135.037,140.216,146.851,149.44,154.62,159.3012,161.512,164.619,169.7982,171.943,175.05,180.23,184.91119999999998,187.079,190.704,193.294,198.473,205.14620000000002,207.317,212.497,217.158,221.82,225.445,230.107,232.696,235.2856,237.533,241.677,246.856,252.036,257.215,260.3026,262.535,266.16,270.822,273.929,278.61019999999996,280.789,285.451,290.71" svgx:width="0.36,0.47,0.47,0.42,0.52,0.55,0.26,0.31,0.36,0.55,0.31,0.52,0.26,0.26,0.55,0.52,0.52,0.31,0.47,0.52,0.31,0.26,0.47,0.26,0.55,0.52,0.67,0.26,0.52,0.47,0.55,0.31,0.52,0.55,0.31,0.52,0.47,0.55,0.36,0.26,0.52,0.67,0.55,0.52,0.47,0.47,0.36,0.47,0.26,0.26,0.55,0.42,0.52,0.52,0.52,0.31,0.55,0.36,0.47,0.31,0.47,0.55,0.47,0.52,0.52" style="fill:rgb(0,0,0);font-family:Advt93-r;font-size:9.96px;stroke:none;">reach its full potential owing to the slow overall count rate and</text>
   <text y="257.612" x="44.843,48.986,54.166,61.836,67.016,70.641,75.821,83.62,86.21,89.835,94.497,99.6762,103.065,107.726,112.906,117.567,120.157,125.336,130.106,134.768,138.393,140.983,146.162,150.8432,154.257,159.437,164.098,167.723,170.313,174.974,180.1532,183.566,186.674,191.853,196.515,199.6026,203.011,205.601,210.78,214.924,217.513,222.693,227.872,232.66,237.8392,241.165,244.79,249.97,254.714,259.893,265.073,271.707,274.296,279.476,284.1572,287.539,292.719" svgx:width="0.42,0.52,0.77,0.52,0.36,0.52,0.77,0.26,0.36,0.47,0.52,0.55,0.47,0.52,0.47,0.26,0.52,0.47,0.47,0.36,0.26,0.52,0.47,0.55,0.52,0.47,0.36,0.26,0.47,0.52,0.55,0.31,0.52,0.47,0.31,0.55,0.26,0.52,0.42,0.26,0.52,0.52,0.47,0.52,0.55,0.36,0.52,0.47,0.52,0.52,0.67,0.26,0.52,0.47,0.55,0.52,0.31" style="fill:rgb(0,0,0);font-family:Advt93-r;font-size:9.96px;stroke:none;">compromised engineering design that included shadowing of</text>
   <text y="269.574" x="44.843,50.022,54.684,57.791,62.453,66.596,69.703,75.002,78.627,81.747,84.0378,86.339,91.519,96.18,100.842,103.431,108.611,113.29220000000001,115.648,120.828,123.9156,126.307,134.086,136.6756,139.006,145.64,148.229,153.409,158.678,163.858,170.492,174.0776,176.423,181.603,186.782,190.408,193.09,198.27,202.9512,205.28,209.941,214.603,219.264,223.408,228.588,233.249,236.357,239.067,244.247,249.42620000000002,251.767,256.946,260.03360000000004,262.368,265.475,270.655,275.33619999999996,277.675,280.782,285.444,290.714" svgx:width="0.52,0.47,0.31,0.47,0.42,0.31,0.52,0.36,0.36,0.23,0.55,0.52,0.47,0.47,0.26,0.52,0.47,0.55,0.52,0.31,0.55,0.78,0.26,0.55,0.67,0.26,0.52,0.52,0.52,0.67,0.36,0.55,0.52,0.52,0.36,0.26,0.52,0.47,0.55,0.47,0.47,0.47,0.42,0.52,0.47,0.31,0.26,0.52,0.52,0.55,0.52,0.31,0.55,0.31,0.52,0.47,0.55,0.31,0.47,0.52,0.52" style="fill:rgb(0,0,0);font-family:Advt93-r;font-size:9.96px;stroke:none;">detectors, ﬂexing of Al windows during evacuation of the tank</text>
   <text y="281.536" x="44.843,48.986,51.575" svgx:width="0.42,0.26,0.42" style="fill:rgb(0,0,0);font-family:Advt93-i;font-size:9.96px;stroke:none;">etc</text>
   <text y="281.536" x="55.728,58.0188,62.985,68.881,74.06,78.7412,83.677,88.857,92.482,97.662,105.447,108.036,113.216,117.877,123.057,126.1446,131.127,136.307,140.969,146.148,150.402,152.992,157.653,162.833,166.976,169.566,174.227,177.8126,182.829,187.49,192.75,197.929,201.555,206.216,209.842,213.467,218.129,223.3082,228.352,233.531,238.2122,243.148,246.255,251.435,254.024,257.6096,262.592,267.772,272.952,277.613,281.238,286.006,291.185" svgx:width="0.23,0.55,0.63,0.52,0.47,0.55,0.52,0.36,0.52,0.77,0.26,0.52,0.47,0.52,0.31,0.55,0.52,0.47,0.52,0.42,0.26,0.47,0.52,0.42,0.26,0.47,0.36,0.55,0.47,0.52,0.52,0.36,0.47,0.36,0.36,0.47,0.52,0.55,0.52,0.47,0.55,0.31,0.52,0.26,0.36,0.55,0.52,0.52,0.47,0.36,0.47,0.52,0.47" style="fill:rgb(0,0,0);font-family:Advt93-r;font-size:9.96px;stroke:none;">. The prominent deﬁciencies addressed by this upgrade</text>
   <text y="293.498" x="44.843,50.022,53.648,58.827,61.416,66.078,70.222,73.30959999999999,76.306,79.931,84.593,88.218,90.807,95.987,100.6682,103.63,106.22,111.3992,114.289,117.396,122.576,127.2572,130.162,132.751,137.931,141.556,144.664,148.289,153.574,161.245,165.906,171.086,174.17360000000002,177.159,181.303,185.964,190.626,195.3072,198.248,203.428,208.607,211.715,214.304,218.448,221.605,223.89579999999998,226.82,233.454,238.634,241.223,245.367,250.5462,253.465,256.055,261.234,265.378,267.967,273.25,278.43,283.1112,286.007,290.668,293.257" svgx:width="0.52,0.36,0.52,0.26,0.47,0.42,0.31,0.55,0.36,0.47,0.36,0.26,0.52,0.47,0.55,0.26,0.52,0.55,0.31,0.52,0.47,0.55,0.26,0.52,0.36,0.31,0.36,0.52,0.77,0.47,0.52,0.31,0.55,0.42,0.47,0.47,0.47,0.55,0.52,0.52,0.31,0.26,0.42,0.36,0.23,0.55,0.67,0.52,0.26,0.42,0.52,0.55,0.26,0.52,0.42,0.26,0.52,0.52,0.47,0.55,0.47,0.26,0.26" style="fill:rgb(0,0,0);font-family:Advt93-r;font-size:9.96px;stroke:none;">project reside in the instrument cave optics, which include all</text>
   <text y="305.461" x="44.843,48.986,54.166,61.836,67.016,72.195,77.497,82.159,87.338,90.446,94.0316,100.514,105.694,110.873,117.508,122.795,126.42,129.528,133.153,137.814,142.476,150.1452,156.639,159.746,163.372,168.551,176.22019999999998,182.717,185.825,191.004,195.68519999999998,202.106,204.695,209.875,212.982,217.644,221.381,225.524,230.704,235.365,240.545,245.206,249.868,254.658,259.838,262.427,267.1082,273.536,278.198,283.378,285.967,291.146" svgx:width="0.42,0.52,0.77,0.52,0.52,0.52,0.47,0.52,0.31,0.36,0.55,0.52,0.52,0.67,0.52,0.36,0.31,0.36,0.47,0.47,0.77,0.55,0.31,0.36,0.52,0.77,0.55,0.31,0.52,0.47,0.55,0.26,0.52,0.31,0.47,0.36,0.42,0.52,0.47,0.52,0.47,0.47,0.47,0.52,0.26,0.47,0.55,0.47,0.52,0.26,0.52,0.47" style="fill:rgb(0,0,0);font-family:Advt93-r;font-size:9.96px;stroke:none;">components downstream from the interchangeable guide</text>
   <text y="317.423" x="44.843,47.432,52.611,56.755,61.416,64.524,69.185,74.3642,77.212,81.874,84.96159999999999,87.757,92.418,97.09920000000001,99.662,107.33120000000001,110.094,113.202,116.827,122.007,129.6762,132.487,135.595,140.774,145.4552,148.247,152.391,157.57,161.196,165.8772,168.713,173.374,178.036,181.661,185.287,189.948,192.5376,195.357,197.946,203.126,206.751,211.413,215.142,218.2296,220.981,225.643,229.2286,232.092,235.718,240.898,246.077,252.711,257.8902,260.722,263.312,268.4912,271.267,276.709,279.3,283.854,286.1448,288.9,293.561" svgx:width="0.26,0.52,0.42,0.47,0.31,0.47,0.52,0.55,0.47,0.31,0.55,0.47,0.47,0.55,0.77,0.55,0.31,0.36,0.52,0.77,0.55,0.31,0.52,0.47,0.55,0.42,0.52,0.36,0.47,0.55,0.47,0.47,0.36,0.36,0.47,0.26,0.55,0.26,0.52,0.36,0.47,0.36,0.31,0.55,0.47,0.36,0.55,0.36,0.52,0.52,0.67,0.52,0.55,0.26,0.52,0.55,0.57,0.26,0.47,0.23,0.55,0.47,0.23" style="fill:rgb(0,0,0);font-family:Advt93-r;font-size:9.96px;stroke:none;">located at 57 m from the core vessel insert as shown in Fig. 1.</text>
   <text y="329.385" x="44.843,50.738,55.918,60.599199999999996,64.968,70.148,74.809,79.989,83.096,86.722,92.01,97.1892,101.534,106.714,111.375,116.037,123.70620000000001,128.123,133.302,137.964,140.553,143.143,147.804,152.466,156.091,160.753,165.9322,170.413,173.521,177.146,182.326,189.99519999999998,194.394,197.501,202.681,207.3622,211.685,216.3662,218.885,226.55419999999998,230.904,233.493,238.673,241.78,246.442,250.067,254.316,259.496,264.157,269.337,273.999,278.66,283.322,288.501,291.222" svgx:width="0.63,0.52,0.47,0.55,0.52,0.47,0.52,0.31,0.36,0.52,0.52,0.55,0.52,0.47,0.47,0.77,0.55,0.52,0.47,0.26,0.26,0.47,0.47,0.36,0.47,0.52,0.55,0.31,0.36,0.52,0.77,0.55,0.31,0.52,0.47,0.55,0.47,0.55,0.77,0.55,0.26,0.52,0.31,0.47,0.36,0.42,0.52,0.47,0.52,0.47,0.47,0.47,0.52,0.26,0.47" style="fill:rgb(0,0,0);font-family:Advt93-r;font-size:9.96px;stroke:none;">The neutron beam delivered from the 5 m interchangeable</text>
   <text y="341.291" x="44.843,49.504,54.684,57.273,62.453,67.114,70.6996,73.528,76.117,79.7026,82.486,89.12,91.709,94.816,99.996,102.585,107.76419999999999,110.548,113.655,118.835,123.5162,126.251,128.84,134.02,137.645,140.752,144.378,149.663,157.333,161.995,167.175,170.26260000000002,173.077,178.257,182.919,186.544,189.651,194.831,198.456,206.241,210.903,216.082,220.226,224.9072,227.671,231.296,236.476,241.138,245.281,247.966,253.146,257.289,261.951,265.058,267.647,272.827,278.0062,280.79,285.452,290.631" svgx:width="0.47,0.52,0.26,0.52,0.47,0.36,0.55,0.26,0.36,0.55,0.67,0.26,0.31,0.52,0.26,0.52,0.55,0.31,0.52,0.47,0.55,0.26,0.52,0.36,0.31,0.36,0.52,0.77,0.47,0.52,0.31,0.55,0.52,0.47,0.36,0.31,0.52,0.36,0.77,0.47,0.52,0.42,0.47,0.55,0.36,0.52,0.47,0.42,0.26,0.52,0.42,0.47,0.31,0.26,0.52,0.52,0.55,0.47,0.52,0.52" style="fill:rgb(0,0,0);font-family:Advt93-r;font-size:9.96px;stroke:none;">guides is within the instrument performance speciﬁcation and</text>
   <text y="353.253" x="44.843,47.95,53.13,58.309,61.8946,67.292,70.4,75.579,80.2602,85.604,88.711,92.337,97.516,102.696,105.78359999999999,111.171,115.833,121.012,126.1912,131.581,136.76,139.8476,145.187,148.294,153.474,158.15519999999998,163.498,166.088,171.267,174.893,178.0,181.625,186.911,194.581,199.242,204.422,207.529,209.8198,215.2,221.834,227.014,229.603,233.746,238.92520000000002,244.283,246.872,252.052,256.195,258.785,264.068,269.247,273.909,277.4946,282.889,285.997,291.176" svgx:width="0.31,0.52,0.52,0.36,0.55,0.31,0.52,0.47,0.55,0.31,0.36,0.52,0.52,0.31,0.55,0.47,0.52,0.52,0.55,0.52,0.31,0.55,0.31,0.52,0.47,0.55,0.26,0.52,0.36,0.31,0.36,0.52,0.77,0.47,0.52,0.31,0.23,0.55,0.67,0.52,0.26,0.42,0.52,0.55,0.26,0.52,0.42,0.26,0.52,0.52,0.47,0.36,0.55,0.31,0.52,0.47" style="fill:rgb(0,0,0);font-family:Advt93-r;font-size:9.96px;stroke:none;">thus the front end of the instrument, which includes the</text>
   <text y="365.215" x="44.843,52.513,57.692,62.872,67.534,71.262,75.923,79.031,84.21,87.836,90.1268,92.407,97.587,100.176,103.802,107.9852,110.378,114.522,119.701,124.881,130.06,135.24,140.028,143.654,147.2396,149.609,154.271,159.53,164.7092,167.07,172.25,176.911,182.091,185.198,188.823,194.112,199.2912,201.651,206.313,211.493,214.082,219.262,223.704,225.9948,228.353,234.987,239.648,243.2336,245.644,250.823,256.003,259.0906,261.517,266.1982,268.547,273.727,278.468,282.093,285.1806,287.539,292.719" svgx:width="0.77,0.52,0.52,0.47,0.36,0.47,0.31,0.52,0.36,0.23,0.55,0.52,0.26,0.36,0.42,0.55,0.42,0.52,0.52,0.52,0.52,0.47,0.36,0.36,0.55,0.47,0.52,0.52,0.55,0.52,0.47,0.52,0.31,0.36,0.52,0.52,0.55,0.47,0.52,0.26,0.52,0.47,0.23,0.55,0.67,0.47,0.36,0.55,0.52,0.52,0.31,0.55,0.47,0.55,0.52,0.47,0.36,0.31,0.55,0.52,0.31" style="fill:rgb(0,0,0);font-family:Advt93-r;font-size:9.96px;stroke:none;">moderator, disc choppers and neutron guide, was not a part of</text>
   <text y="377.177" x="44.843,47.95,53.13,55.719,59.3046,62.36,67.54,72.719,77.381,81.006,85.773,90.953,95.6342,98.642,103.304,108.483,113.6622,116.727,120.353,125.014,132.685,137.346,139.936,145.115,148.7006,151.819,156.999,162.178,166.322,171.501,176.163,181.469,186.131,190.792,195.972" svgx:width="0.31,0.52,0.26,0.36,0.55,0.52,0.52,0.47,0.36,0.47,0.52,0.47,0.55,0.47,0.52,0.52,0.55,0.36,0.47,0.77,0.47,0.26,0.52,0.36,0.55,0.52,0.52,0.42,0.52,0.47,0.52,0.47,0.47,0.52,0.23" style="fill:rgb(0,0,0);font-family:Advt93-r;font-size:9.96px;stroke:none;">this upgrade and remains unchanged.</text>
   <text y="389.139" x="54.82,61.454,66.116,69.223,74.403,78.028,82.70920000000001,87.588,90.695,95.874,100.5552,105.332,108.957,112.135,116.796,120.422,123.50959999999999,128.348,133.528,136.6156,141.444,144.551,149.731,152.32,155.9056,160.775,165.955,169.581,174.76,177.443,182.105,186.248,189.355,191.64579999999998,196.434,204.104,209.361,212.986,216.0736,220.925,226.105,229.1926,234.021,237.129,242.308,246.98919999999998,251.766,254.355,259.535,263.16,266.268,269.893,275.178,282.848,287.51,292.69" svgx:width="0.67,0.47,0.31,0.52,0.36,0.47,0.55,0.31,0.52,0.47,0.55,0.36,0.31,0.47,0.36,0.31,0.55,0.52,0.31,0.55,0.31,0.52,0.26,0.36,0.55,0.52,0.36,0.52,0.26,0.47,0.42,0.31,0.23,0.55,0.77,0.52,0.36,0.31,0.55,0.52,0.31,0.55,0.31,0.52,0.47,0.55,0.26,0.52,0.36,0.31,0.36,0.52,0.77,0.47,0.52,0.31" style="fill:rgb(0,0,0);font-family:Advt93-r;font-size:9.96px;stroke:none;">Before the start of this project, most of the instrument</text>
   <text y="401.102" x="44.843,48.986,54.166,61.836,67.016,72.195,77.497,82.159,87.338,90.446,94.0316,98.247,104.881,109.542,113.168,117.84920000000001,122.001,127.18,132.36,134.949,137.539,140.6266,144.79,149.97,155.1492,159.304,164.484,169.663,172.253,176.93419999999998,181.074,186.253,191.433,196.11419999999998,200.293,205.472,210.134,212.723,215.81060000000002,219.964,225.144,228.23160000000001,232.379,235.487,240.666,245.3472,249.5,252.09,257.269,260.895,264.002,267.627,272.913,280.583,285.245,290.424,293.531" svgx:width="0.42,0.52,0.77,0.52,0.52,0.52,0.47,0.52,0.31,0.36,0.55,0.67,0.47,0.36,0.47,0.55,0.52,0.52,0.26,0.26,0.31,0.55,0.52,0.52,0.55,0.52,0.52,0.26,0.47,0.55,0.52,0.52,0.47,0.55,0.52,0.47,0.26,0.31,0.55,0.52,0.31,0.55,0.31,0.52,0.47,0.55,0.26,0.52,0.36,0.31,0.36,0.52,0.77,0.47,0.52,0.31,0.23" style="fill:rgb(0,0,0);font-family:Advt93-r;font-size:9.96px;stroke:none;">components were built on only one half of the instrument,</text>
   <text y="413.064" x="44.843,51.477,56.656,59.246,63.389,68.5682,72.451,75.04,80.22,84.364,86.953,92.236,97.416,102.077,107.25619999999999,111.114,114.222,119.401,124.0822,127.951,133.131,137.793,140.9,145.561,149.705,152.812,157.992,161.739,165.3246,169.166,173.828,179.007,184.1862,188.044,191.152,196.331,201.01219999999998,204.881,209.025,214.204,218.866,222.491,226.117,230.79819999999998,234.701,239.362,244.542,249.7212,253.579,258.759,263.938,268.6192,272.514,276.14,280.801,285.981,288.57,293.232" svgx:width="0.67,0.52,0.26,0.42,0.52,0.55,0.26,0.52,0.42,0.26,0.52,0.52,0.47,0.52,0.55,0.31,0.52,0.47,0.55,0.52,0.47,0.31,0.47,0.42,0.31,0.52,0.36,0.36,0.55,0.47,0.52,0.52,0.55,0.31,0.52,0.47,0.55,0.42,0.52,0.47,0.36,0.36,0.47,0.55,0.47,0.52,0.52,0.55,0.52,0.52,0.47,0.55,0.36,0.47,0.52,0.26,0.47,0.26" style="fill:rgb(0,0,0);font-family:Advt93-r;font-size:9.96px;stroke:none;">which included the detectors and the coarse and ﬁne radial</text>
   <text y="425.026" x="44.843,48.986,54.166,56.755,59.344,61.934,69.604,74.378,77.485,82.665,86.29,89.458,91.7488,94.106,100.002,105.182,109.8632,112.247,115.873,120.534,128.204,133.384,135.973,140.6542,143.088,147.749,152.411,156.637,161.817,166.996,174.6652,177.047,181.708,186.37,190.086,193.711,198.373,200.96259999999998,203.351,209.985,214.647,218.2326,220.642,225.822,231.002,233.682,236.271,239.3586,241.731,246.911,249.9986,252.446,257.108,259.697,264.877,272.547,275.136,280.316,282.905,288.085" svgx:width="0.42,0.52,0.26,0.26,0.26,0.77,0.47,0.31,0.52,0.36,0.36,0.23,0.55,0.63,0.52,0.47,0.55,0.36,0.47,0.77,0.52,0.26,0.47,0.55,0.47,0.47,0.42,0.52,0.52,0.77,0.55,0.47,0.47,0.36,0.36,0.47,0.26,0.55,0.67,0.47,0.36,0.55,0.52,0.52,0.26,0.26,0.31,0.55,0.52,0.31,0.55,0.47,0.26,0.52,0.77,0.26,0.52,0.26,0.52,0.77" style="fill:rgb(0,0,0);font-family:Advt93-r;font-size:9.96px;stroke:none;">collimators. The sample vacuum vessel was built of aluminium</text>
   <text y="436.932" x="44.843,51.477,54.066,57.173,62.3522,65.081,69.7622,72.394,75.502,80.163,84.825,87.984,91.091,96.271,99.896,105.076,110.25519999999999,112.984,116.61,121.789,126.451,131.631,136.058,138.34879999999998,140.991,147.625,150.289,153.396,158.5752,161.23,164.337,170.971,176.1502,178.861,183.54219999999998,186.004,193.674,201.425,204.533,207.64,212.82,215.409,219.552,224.7312,227.446,235.226,237.8156,240.543,247.177,249.766,254.946,260.126,265.305,271.939,275.125,277.4158,280.058,286.011,291.19" svgx:width="0.67,0.26,0.31,0.52,0.55,0.47,0.55,0.31,0.47,0.47,0.36,0.31,0.52,0.36,0.52,0.52,0.55,0.36,0.52,0.47,0.52,0.47,0.23,0.55,0.67,0.26,0.31,0.52,0.55,0.31,0.67,0.52,0.55,0.47,0.55,0.77,0.77,0.31,0.31,0.52,0.26,0.42,0.52,0.55,0.78,0.26,0.55,0.67,0.26,0.52,0.52,0.52,0.67,0.36,0.23,0.55,0.63,0.52,0.47" style="fill:rgb(0,0,0);font-family:Advt93-r;font-size:9.96px;stroke:none;">with a tear-drop shape, with two 5 mm-thick Al windows. The</text>
   <text y="448.894" x="44.843,50.022,53.648,58.309,62.971,65.56,70.74,75.919,79.5046,84.469,89.649,94.31,98.018,100.608,105.269,110.4482,115.309,117.899,123.079,127.222,132.402,136.027,141.207,146.386,150.012,154.823,157.93,162.592,167.77120000000002,172.624,177.30519999999999,182.148,185.774,188.881,193.543,198.204,200.7936,205.675,209.301,214.48,217.07,221.731,224.321,229.5,232.09,237.269,241.9502,246.889,250.515,255.694,259.32,264.499,269.679,274.85819999999995,279.77,282.877,288.057,292.718" svgx:width="0.52,0.36,0.47,0.47,0.26,0.52,0.52,0.36,0.55,0.52,0.47,0.36,0.26,0.47,0.52,0.55,0.26,0.52,0.42,0.52,0.36,0.52,0.52,0.36,0.47,0.31,0.47,0.52,0.55,0.47,0.55,0.36,0.31,0.47,0.47,0.26,0.55,0.36,0.52,0.26,0.47,0.26,0.52,0.26,0.52,0.47,0.55,0.36,0.52,0.36,0.52,0.52,0.52,0.55,0.31,0.52,0.47,0.31" style="fill:rgb(0,0,0);font-family:Advt93-r;font-size:9.96px;stroke:none;">previous design incorporated a steel shielding shroud that</text>
   <text y="221.838" x="313.796,317.421,322.601,326.325,329.95,335.13,340.309,345.489,350.668,355.33,360.50919999999996,363.628,366.735,371.915,376.5962,379.615,384.277,388.938,392.564,396.189,400.851,403.4406,406.487,409.594,414.7732,417.825,421.451,426.63,431.81,436.989,442.169,445.794,448.8816,452.01,455.117,460.297,464.9782,467.997,472.141,477.32,481.982,485.607,489.233,493.9142,497.023,500.648,505.31,510.489,513.078,517.74,520.3296,523.384,527.527,532.707,535.296,537.886,540.475,548.145,552.919,556.027,561.206" svgx:width="0.36,0.52,0.36,0.36,0.52,0.52,0.52,0.52,0.47,0.52,0.55,0.31,0.52,0.47,0.55,0.47,0.47,0.36,0.36,0.47,0.26,0.55,0.31,0.52,0.55,0.36,0.52,0.52,0.52,0.52,0.36,0.31,0.55,0.31,0.52,0.47,0.55,0.42,0.52,0.47,0.36,0.36,0.47,0.55,0.36,0.47,0.52,0.26,0.47,0.26,0.55,0.42,0.52,0.26,0.26,0.26,0.77,0.47,0.31,0.52,0.36" style="fill:rgb(0,0,0);font-family:Advt93-r;font-size:9.96px;stroke:none;">surrounded the vessel to support the coarse radial collimator</text>
   <text y="233.8" x="313.796,318.457,322.083,325.708,330.462,338.133,343.312,345.901,349.794,352.0848,355.464,361.416,366.596,369.185,372.7706,376.213,379.838,385.018,388.643,393.823,399.116,404.29519999999997,407.677,411.302,414.41,418.035,423.215,427.462,430.569,435.749,439.374,444.0552,447.474,452.654,455.243,460.423,464.566,469.746,474.516,479.6952,483.077,487.738,491.882,496.025,500.687,504.312,507.8976,511.422,514.529,519.7082,523.1,526.207,531.387,536.0681999999999,539.484,544.663,549.843,556.477,561.764" svgx:width="0.47,0.36,0.36,0.47,0.77,0.52,0.26,0.47,0.23,0.55,0.63,0.52,0.26,0.36,0.55,0.36,0.52,0.36,0.52,0.52,0.52,0.55,0.36,0.31,0.36,0.52,0.42,0.31,0.52,0.36,0.47,0.55,0.52,0.26,0.52,0.42,0.52,0.47,0.52,0.55,0.47,0.42,0.42,0.47,0.36,0.36,0.55,0.31,0.52,0.55,0.31,0.52,0.47,0.55,0.52,0.52,0.67,0.52,0.31" style="fill:rgb(0,0,0);font-family:Advt93-r;font-size:9.96px;stroke:none;">assembly. This shroud structure blocked access to the down-</text>
   <text y="245.762" x="313.796,317.421,320.598,324.224,328.885,333.547,341.2162,347.13,352.309,357.489,360.596,363.186,367.329,370.9146,376.836,381.497,386.677,391.8562,397.755,405.426,410.087,413.713,418.892,423.664,428.84319999999997,434.663,437.77,442.95,447.6312,453.485,460.119,462.708,467.888,473.157,478.337,484.268,486.55879999999996,492.375,498.328,503.507,508.1882,514.032,519.211,523.873,530.5462,536.368,539.994,544.655,552.412,557.592,560.181" svgx:width="0.36,0.31,0.36,0.47,0.47,0.77,0.55,0.52,0.52,0.31,0.26,0.42,0.36,0.55,0.47,0.52,0.52,0.55,0.77,0.47,0.36,0.52,0.47,0.52,0.55,0.31,0.52,0.47,0.55,0.67,0.26,0.52,0.52,0.52,0.67,0.23,0.55,0.63,0.52,0.47,0.55,0.52,0.47,0.67,0.55,0.36,0.47,0.77,0.52,0.26,0.47" style="fill:rgb(0,0,0);font-family:Advt93-r;font-size:9.96px;stroke:none;">stream optics and masked the window. The new sample</text>
   <text y="257.724" x="313.796,318.457,323.206,327.35,332.529,337.709,345.3782,351.666,356.327,360.989,364.614,368.24,372.901,375.49060000000003,381.769,384.358,387.9436,394.241,398.266,402.928,405.517,408.187,413.367,418.546,422.172,424.761,428.905,433.566,436.1556,442.428,447.09,452.349,457.52819999999997,463.744,466.852,471.513,476.693,480.411,483.0,487.144,491.805,494.913,499.574,504.7532,511.023,514.131,517.756,522.936,530.6052000000001,536.874,544.654,549.915,556.14" svgx:width="0.47,0.47,0.42,0.52,0.52,0.77,0.55,0.47,0.47,0.36,0.36,0.47,0.26,0.55,0.26,0.36,0.55,0.42,0.47,0.26,0.26,0.52,0.52,0.36,0.26,0.42,0.47,0.26,0.55,0.47,0.52,0.52,0.55,0.31,0.47,0.52,0.36,0.26,0.42,0.47,0.31,0.47,0.52,0.55,0.31,0.36,0.52,0.77,0.55,0.78,0.52,0.63,0.88" style="fill:rgb(0,0,0);font-family:Advt93-r;font-size:9.96px;stroke:none;">vacuum vessel is cylindrical and fabricated from ASTM</text>
   <text y="269.63" x="313.796,321.575,326.325,330.986,335.648,341.92280000000005,345.94,349.566,352.673,357.335,359.924,365.104,367.693,372.471,376.096,379.6816,383.81,387.435,390.542,395.204,399.865,402.455,404.7458,408.81,415.444,418.108,421.215,426.39419999999996,430.467,435.1482,437.61,445.28,453.031,456.139,459.246,464.426,467.015,471.158,476.3372,480.469,485.13,487.719,492.899,500.569,503.159,508.338,510.927,516.241,523.9102,527.976,534.61,537.199,542.379,547.558,552.738,559.372,562.615" svgx:width="0.78,0.47,0.47,0.47,0.63,0.55,0.36,0.31,0.47,0.26,0.52,0.26,0.47,0.36,0.36,0.55,0.36,0.31,0.47,0.47,0.26,0.23,0.55,0.67,0.26,0.31,0.52,0.55,0.47,0.55,0.77,0.77,0.31,0.31,0.52,0.26,0.42,0.52,0.55,0.47,0.26,0.52,0.77,0.26,0.52,0.26,0.52,0.77,0.55,0.67,0.26,0.52,0.52,0.52,0.67,0.36,0.23" style="fill:rgb(0,0,0);font-family:Advt93-r;font-size:9.96px;stroke:none;">A316L stainless steel, with 3 mm-thick aluminium windows,</text>
   <text y="281.592" x="313.796,318.457,323.716,328.8952,332.844,335.435,340.614,344.758,349.937,353.563,358.742,363.922,367.547,372.358,375.466,380.127,383.7126,387.722,390.829,397.463,402.6422,406.6,411.78,416.441,423.1142,427.066,432.246,434.835,439.497,444.677,447.784,452.445,455.553,460.854,464.997,467.587,472.248,477.521,481.545,486.2262,490.163,493.271,498.45,502.076,507.255,512.4342,516.468,521.647,526.827,534.497,539.677,542.83,545.1208,549.066,555.018,560.198" svgx:width="0.47,0.52,0.52,0.55,0.26,0.52,0.42,0.52,0.36,0.52,0.52,0.36,0.47,0.31,0.47,0.36,0.55,0.31,0.67,0.52,0.55,0.52,0.47,0.67,0.55,0.52,0.26,0.47,0.52,0.31,0.47,0.31,0.52,0.42,0.26,0.47,0.52,0.42,0.47,0.55,0.31,0.52,0.36,0.52,0.52,0.55,0.52,0.52,0.77,0.52,0.36,0.23,0.55,0.63,0.52,0.47" style="fill:rgb(0,0,0);font-family:Advt93-r;font-size:9.96px;stroke:none;">and incorporates two new high-efﬁciency turbo pumps. The</text>
   <text y="293.554" x="313.796,318.457,323.206,326.832,330.457,335.119,337.70860000000005,340.214,346.848,351.509,355.0946,357.732,362.394,364.983,368.608,373.7872,376.327,381.506,386.168,389.876,392.465,397.127,402.306,406.968,412.1472,414.707,417.814,422.9932,425.534,429.16,434.339,439.519,444.698,449.878,453.504,456.5916,459.209,461.798,466.46,470.085,474.747,479.4282,481.999,485.624,490.286,497.956,503.136,505.725,510.4062,513.009,517.67,522.85,527.511,530.101,533.726,538.906,544.085,551.899,556.561,561.74" svgx:width="0.47,0.47,0.36,0.36,0.47,0.26,0.55,0.67,0.47,0.36,0.55,0.47,0.26,0.36,0.52,0.55,0.52,0.47,0.36,0.26,0.47,0.52,0.47,0.52,0.55,0.31,0.52,0.55,0.36,0.52,0.52,0.52,0.52,0.36,0.31,0.55,0.26,0.47,0.36,0.47,0.47,0.55,0.36,0.47,0.77,0.52,0.26,0.47,0.55,0.47,0.52,0.47,0.26,0.36,0.52,0.52,0.77,0.47,0.52,0.31" style="fill:rgb(0,0,0);font-family:Advt93-r;font-size:9.96px;stroke:none;">vessel was also designed to support large sample environment</text>
   <text y="305.517" x="313.796,318.457,323.716,327.86,330.449,333.039,335.628,340.289,343.915,348.5962,352.911,357.573,362.752,367.932,370.521,375.814,383.485,388.146,393.326,396.433,398.7238,403.027,406.652,411.832,415.975,421.1542,425.476,430.138,433.7236,438.062,442.7432,446.963,451.6442,454.163,460.43780000000004,464.651,472.321,476.983,481.644,486.931,491.593,494.7,496.9908,501.274,504.899,507.9866,512.272,514.861,518.4466,522.759,525.349,527.938,533.117,537.779,542.9582,547.306,553.941,556.53,559.637" svgx:width="0.47,0.52,0.42,0.26,0.26,0.26,0.47,0.36,0.47,0.55,0.47,0.52,0.52,0.26,0.52,0.77,0.47,0.52,0.31,0.23,0.55,0.36,0.52,0.42,0.52,0.55,0.47,0.36,0.55,0.47,0.55,0.47,0.55,0.63,0.55,0.77,0.47,0.47,0.52,0.47,0.31,0.23,0.55,0.36,0.31,0.55,0.26,0.36,0.55,0.26,0.26,0.52,0.47,0.52,0.55,0.67,0.26,0.31,0.52" style="fill:rgb(0,0,0);font-family:Advt93-r;font-size:9.96px;stroke:none;">ancillary equipment, such as a 5 T magnet. It is lined with</text>
   <text y="317.479" x="313.796,318.457,323.206,327.35,332.529,337.709,345.379,348.487,352.63,357.81,365.612,370.791,375.453,378.56,381.149,386.329,389.025,393.70619999999997,404.899,409.5802,412.1,419.77,427.44,430.547,433.655,438.834,441.424,445.567,450.7462,462.101,465.727,470.388,475.141,479.284,482.391,484.981,490.16,495.34,498.447,503.627,508.928,514.108,519.287,523.949,529.1282,540.449,545.629,550.808,554.434,559.613" svgx:width="0.47,0.47,0.42,0.52,0.52,0.77,0.31,0.42,0.52,0.77,0.52,0.47,0.31,0.26,0.52,0.26,0.47,0.55,0.47,0.55,0.77,0.77,0.31,0.31,0.52,0.26,0.42,0.52,0.55,0.36,0.47,0.47,0.42,0.31,0.26,0.52,0.52,0.31,0.52,0.52,0.52,0.52,0.47,0.52,0.55,0.52,0.52,0.36,0.52,0.52" style="fill:rgb(0,0,0);font-family:Advt93-r;font-size:9.96px;stroke:none;">vacuum-compatible 7 mm-thick reaction-bonded boron</text>
   <text y="329.441" x="313.796,317.939,322.601,326.325,331.504,334.094,339.273,343.9542,346.166,351.346,356.5252,358.752,361.86,367.039,371.7202,373.889,376.478,381.657,385.283,387.872,393.162,397.84319999999997,400.023,403.648,408.828,412.453,415.561,420.222,424.366,429.027,432.6126,434.944,439.606,444.785,449.9642,452.178,456.8592,459.378,467.049,476.897,485.684,488.273,491.899,495.524,500.704,505.883,511.063,514.6486,516.92,520.545,525.725,528.314,533.077,538.2562,540.447,545.627,550.806,554.432,559.611" svgx:width="0.42,0.47,0.36,0.52,0.26,0.52,0.47,0.55,0.52,0.52,0.55,0.31,0.52,0.47,0.55,0.26,0.52,0.36,0.26,0.52,0.47,0.55,0.36,0.52,0.36,0.31,0.47,0.42,0.47,0.36,0.55,0.47,0.52,0.52,0.55,0.47,0.55,0.77,0.77,0.88,0.26,0.36,0.36,0.52,0.52,0.52,0.36,0.55,0.36,0.52,0.26,0.47,0.52,0.55,0.52,0.52,0.36,0.52,0.52" style="fill:rgb(0,0,0);font-family:Advt93-r;font-size:9.96px;stroke:none;">carbide on the inside surfaces and 5 mmMirrobor (high boron</text>
   <text y="341.403" x="313.796,317.939,323.206,328.386,331.493,336.155,341.334,344.4216,347.187,352.366,357.107,361.769,364.358,369.538,372.127,376.8082,379.556,384.736,389.398,394.577,397.684,401.31,406.598,411.7772,414.479,418.104,423.284,425.873,430.635,433.225,438.405,440.994,446.174,450.85519999999997,453.595,458.775,463.954,467.58,471.723,477.008,481.67,485.295,489.957,495.1362,497.927,501.034,504.66,509.839,517.5082,520.263,528.98,531.569,535.195,538.82,544.0,547.107,550.732,556.036,561.215" svgx:width="0.42,0.52,0.52,0.31,0.47,0.52,0.31,0.55,0.52,0.47,0.47,0.26,0.52,0.26,0.47,0.55,0.52,0.47,0.52,0.31,0.36,0.52,0.52,0.55,0.36,0.52,0.26,0.47,0.26,0.52,0.26,0.52,0.47,0.55,0.52,0.52,0.36,0.42,0.52,0.47,0.36,0.47,0.52,0.55,0.31,0.36,0.52,0.77,0.55,0.88,0.26,0.36,0.36,0.52,0.31,0.36,0.52,0.52,0.36" style="fill:rgb(0,0,0);font-family:Advt93-r;font-size:9.96px;stroke:none;">content ﬂexible neutron shielding purchased from Mirrotron)</text>
   <text y="353.365" x="313.796,318.975,324.155,327.345,330.97,333.56,338.739,343.42019999999997,346.449,351.111,354.736,359.916,365.095,370.275,375.45419999999996,378.537,381.645,386.824,391.5052,394.524,401.158,403.748,408.927,414.197,419.376,426.01,429.5956,432.678,435.786,440.9652,443.96,447.586,452.247,457.509,462.689,466.832,471.5132,474.517,479.696,484.358,488.501,493.681,498.343,501.968,507.284,512.464,517.643,522.823" svgx:width="0.52,0.52,0.31,0.36,0.26,0.52,0.47,0.55,0.47,0.36,0.52,0.52,0.52,0.52,0.55,0.31,0.52,0.47,0.55,0.67,0.26,0.52,0.52,0.52,0.67,0.36,0.55,0.31,0.52,0.55,0.36,0.47,0.52,0.52,0.42,0.47,0.55,0.52,0.47,0.42,0.52,0.47,0.36,0.52,0.52,0.52,0.52,0.23" style="fill:rgb(0,0,0);font-family:Advt93-r;font-size:9.96px;stroke:none;">outside around the windows to reduce background.</text>
   <text y="365.271" x="323.83,329.726,334.906,339.5872,343.446,347.589,352.769,357.43,361.056,364.681,369.3622,373.265,376.89,381.552,386.732,389.321,393.982,396.57160000000005,400.476,404.62,409.799,412.388,414.978,417.567,425.237,430.011,433.119,438.298,441.8836,445.771,450.433,454.058,457.684,462.438,470.108,475.288,477.877,482.5582,486.419,489.01,492.5956,496.511,504.182,508.843,514.023,518.7042,522.591,527.771,530.8585999999999,534.723,539.385,544.047,547.672,550.779,553.369,557.512,562.174" svgx:width="0.63,0.52,0.47,0.55,0.42,0.52,0.47,0.36,0.36,0.47,0.55,0.36,0.47,0.52,0.26,0.47,0.26,0.55,0.42,0.52,0.26,0.26,0.26,0.77,0.47,0.31,0.52,0.36,0.55,0.47,0.36,0.36,0.47,0.77,0.52,0.26,0.47,0.55,0.26,0.36,0.55,0.77,0.47,0.52,0.47,0.55,0.52,0.31,0.55,0.47,0.47,0.36,0.31,0.26,0.42,0.47,0.26" style="fill:rgb(0,0,0);font-family:Advt93-r;font-size:9.96px;stroke:none;">The coarse radial collimator assembly is made of vertical</text>
   <text y="377.233" x="313.796,318.457,323.716,328.8952,336.699,341.878,347.058,350.683,353.273,357.416,362.719,367.899,371.006,375.668,378.2576,386.076,391.256,395.997,401.176,405.838,408.427,412.0126,419.863,425.043,428.1306,436.021" svgx:width="0.47,0.52,0.52,0.55,0.52,0.52,0.36,0.26,0.42,0.52,0.52,0.31,0.47,0.26,0.55,0.52,0.47,0.52,0.47,0.26,0.36,0.55,0.52,0.31,0.55,0.67" style="fill:rgb(0,0,0);font-family:Advt93-r;font-size:9.96px;stroke:none;">and horizontal panels of B</text>
   <text y="378.822" x="442.659" svgx:width="0.47" style="fill:rgb(0,0,0);font-family:Advt93-r;font-size:6.38px;stroke:none;">4</text>
   <text y="377.234" x="446.004,452.638,455.302,460.482,465.661,470.841,474.466,479.646,484.825,490.005,492.719,497.38,505.051,509.712,512.901,516.009,521.188,525.85,528.439,533.619,536.726,541.388,546.5672000000001,554.456,562.236" svgx:width="0.67,0.26,0.52,0.52,0.52,0.36,0.52,0.52,0.52,0.26,0.47,0.77,0.47,0.36,0.31,0.52,0.47,0.26,0.52,0.31,0.47,0.52,0.55,0.78,0.26" style="fill:rgb(0,0,0);font-family:Advt93-r;font-size:9.96px;stroke:none;">C/ﬂuoropolymer-painted Al</text>
   <text y="389.196" x="313.795,317.42,322.6,326.324,331.503,336.165,341.345,346.524,351.186,356.36519999999996,360.622,363.73,367.355,372.535,380.2042,384.489,389.151,394.33,396.92,402.099,405.725,408.832,413.493,418.673,421.394,426.0752,430.238,434.381,439.043,441.632,444.221,446.811,451.99,456.6712,460.907,464.532,469.712,474.892,480.182,485.361,488.987,492.094,495.261,497.5518,501.724,507.62,512.8,517.4812,521.679,526.859,531.6,536.78,541.441,544.031,547.6166,551.895,556.557,560.182" svgx:width="0.36,0.52,0.36,0.52,0.47,0.52,0.52,0.47,0.52,0.55,0.31,0.36,0.52,0.77,0.55,0.47,0.52,0.26,0.52,0.36,0.31,0.47,0.52,0.26,0.47,0.55,0.42,0.47,0.26,0.26,0.26,0.52,0.47,0.55,0.36,0.52,0.52,0.52,0.52,0.36,0.31,0.36,0.23,0.55,0.63,0.52,0.47,0.55,0.52,0.47,0.52,0.47,0.26,0.36,0.55,0.47,0.36,0.47" style="fill:rgb(0,0,0);font-family:Advt93-r;font-size:9.96px;stroke:none;">suspended from adjustable ceiling supports. The panels are</text>
   <text y="401.159" x="313.795,317.938,323.206,328.385,332.011,335.118,338.743,343.923,348.066,351.174,355.835,361.01419999999996,367.991,371.098,376.2772,383.184,386.291,391.471,395.096,402.7652,409.659,413.802,418.982,421.571,424.161,426.75,434.42,439.194,442.302,444.891,450.07,455.2492,462.154,466.298,470.959,473.549,476.138,479.7236,486.701,489.809,494.988,498.5736,505.523,510.184,514.846,518.989,524.1682000000001,531.091,536.271,540.932,544.04,548.701,552.845,555.952,561.25" svgx:width="0.42,0.52,0.52,0.36,0.31,0.36,0.52,0.42,0.31,0.47,0.52,0.55,0.31,0.52,0.55,0.31,0.52,0.36,0.77,0.55,0.42,0.52,0.26,0.26,0.26,0.77,0.47,0.31,0.26,0.52,0.52,0.55,0.42,0.47,0.26,0.26,0.36,0.55,0.31,0.52,0.36,0.55,0.47,0.47,0.42,0.52,0.55,0.52,0.47,0.31,0.47,0.42,0.31,0.52,0.36" style="fill:rgb(0,0,0);font-family:Advt93-r;font-size:9.96px;stroke:none;">constructed to form collimation cells for each detector</text>
   <text y="413.121" x="313.795,317.938,323.206,325.795,330.974,338.645,343.824,346.1148,350.531,355.803,360.9822,365.385,369.01,373.672,378.851,384.031,388.174,392.85519999999997,397.302,400.409,405.589,410.2702,414.65,419.83,424.491,428.635,433.814,438.476,442.101,447.417,452.597,457.777,462.95619999999997,467.373,471.516,476.696,481.875,484.983,488.608,491.197,496.377,501.557,504.789,507.378,512.557,517.737,520.0278,524.46,527.567,532.747,537.4282,541.808,546.47,549.059,552.6446,557.058,559.648" svgx:width="0.42,0.52,0.26,0.52,0.77,0.52,0.23,0.55,0.63,0.52,0.55,0.36,0.47,0.52,0.52,0.42,0.47,0.55,0.31,0.52,0.47,0.55,0.52,0.47,0.42,0.52,0.47,0.36,0.52,0.52,0.52,0.52,0.55,0.42,0.52,0.52,0.31,0.36,0.26,0.52,0.52,0.31,0.26,0.52,0.52,0.23,0.55,0.31,0.52,0.47,0.55,0.47,0.26,0.36,0.55,0.26,0.52" style="fill:rgb(0,0,0);font-family:Advt93-r;font-size:9.96px;stroke:none;">column. To reduce the background contribution, the air in</text>
   <text y="425.083" x="313.795,318.456,323.206,327.349,332.52819999999997,336.925,341.069,345.73,348.32,350.9096,355.349,357.94,361.5256,365.952,371.131,373.72,377.346,382.618,385.208,389.87,394.013,398.675,403.8542,408.3,413.48,418.1612,422.586,427.248,432.42719999999997,436.816,444.596,448.1816,452.634,456.259,461.439,464.028,467.136,470.761,475.536,478.644,483.823,486.412,491.074,496.2532,500.707,505.887,511.066,514.692,517.281,520.388,524.29,526.5808,530.98,535.641,540.303,542.583,547.245,551.906,561.252" svgx:width="0.47,0.47,0.42,0.52,0.55,0.42,0.47,0.26,0.26,0.55,0.26,0.36,0.55,0.52,0.26,0.36,0.52,0.26,0.47,0.42,0.47,0.52,0.55,0.52,0.47,0.55,0.47,0.52,0.55,0.78,0.36,0.55,0.36,0.52,0.26,0.31,0.36,0.47,0.31,0.52,0.26,0.47,0.52,0.55,0.52,0.52,0.36,0.26,0.31,0.47,0.23,0.55,0.47,0.47,0.23,0.47,0.47,0.93,0.36" style="fill:rgb(0,0,0);font-family:Advt93-r;font-size:9.96px;stroke:none;">each cell is displaced by an Ar (ultra-high purity, 99.99%)</text>
   <text y="437.045" x="313.795,318.974,321.564,324.153,328.815,333.9942,339.702,344.363,347.471,352.65,357.312,359.997,364.658,369.838,374.5192,380.122,384.784,387.373,392.553,397.214,399.8036,405.52,410.182,412.771,416.915,422.094,427.274,432.562,435.15160000000003,440.725,444.869,450.049,455.228,460.511,463.101,467.762,475.433,480.094,483.6796,489.424,494.604,497.193,504.8622,510.513,515.693,520.354,522.944,525.533,530.713,535.892,541.072,543.3628,549.063,555.016,560.195" svgx:width="0.52,0.26,0.26,0.47,0.52,0.55,0.47,0.31,0.52,0.47,0.26,0.47,0.52,0.47,0.55,0.47,0.26,0.52,0.47,0.26,0.55,0.47,0.26,0.42,0.52,0.52,0.52,0.26,0.55,0.42,0.52,0.52,0.52,0.26,0.47,0.77,0.47,0.36,0.55,0.52,0.26,0.77,0.55,0.52,0.47,0.26,0.26,0.52,0.52,0.52,0.23,0.55,0.63,0.52,0.47" style="fill:rgb(0,0,0);font-family:Advt93-r;font-size:9.96px;stroke:none;">ﬁlled ethylene vinyl alcohol copolymer ﬁlm balloon. The</text>
   <text y="449.008" x="313.795,318.974,323.716,327.341,329.93,334.592,339.77119999999996,341.969,346.631,349.22,351.809,356.989,363.623,367.2086,369.521,374.183,378.844,382.47,387.1512,389.306,393.968,398.111,402.345,407.007,410.632,414.2176,416.461,419.569,424.7482,426.892,430.0,435.179,439.86019999999996,442.086,447.265,451.927,455.034,459.696,463.839,466.946,472.126,475.873,479.4586,481.655,484.763,489.942,493.5276,495.772,503.442,508.103,510.693,515.872,518.98,523.641,528.936,533.598,538.778,542.921,547.6022,549.799,554.461,559.64" svgx:width="0.52,0.47,0.36,0.26,0.47,0.52,0.55,0.47,0.26,0.26,0.52,0.67,0.36,0.55,0.47,0.47,0.36,0.47,0.55,0.47,0.42,0.42,0.47,0.36,0.36,0.55,0.31,0.52,0.55,0.31,0.52,0.47,0.55,0.52,0.47,0.31,0.47,0.42,0.31,0.52,0.36,0.36,0.55,0.31,0.52,0.36,0.55,0.77,0.47,0.26,0.52,0.31,0.47,0.52,0.47,0.52,0.42,0.47,0.55,0.47,0.52,0.52" style="fill:rgb(0,0,0);font-family:Advt93-r;font-size:9.96px;stroke:none;">design allows easy access to the detectors for maintenance and</text>
   <text y="460.913" x="407.678,411.304,415.965,421.145,426.324,430.468,435.13,438.7156,443.167,446.275,451.454,456.1352,460.516,464.141,469.321,473.982,479.162,484.341,490.975,493.68,498.86,503.5412,507.91,513.09,518.2692000000001,522.593,525.7,530.88,535.5612,539.94,545.12,549.781,552.889,557.55,561.694" svgx:width="0.36,0.47,0.52,0.52,0.42,0.47,0.36,0.55,0.31,0.52,0.47,0.55,0.36,0.52,0.47,0.52,0.52,0.67,0.26,0.52,0.47,0.55,0.52,0.52,0.55,0.31,0.52,0.47,0.55,0.52,0.47,0.31,0.47,0.42,0.31" style="fill:rgb(0,0,0);font-family:Advt93-r;font-size:9.96px;stroke:none;">reduces the shadowing on the detec-</text>
   <text y="472.875" x="407.678,410.786,415.965,419.591,423.1766,425.763,429.388,431.977,436.639,441.919,444.508,449.688,453.831,458.493,463.673,466.78,469.369,473.324,475.6148,478.087,484.039,489.219,493.9002,496.398,501.06,504.685,508.311,513.065,517.7462,520.265,525.444,528.5315999999999,531.093,536.273,540.934,544.042,548.703,552.847,555.954,561.252" svgx:width="0.31,0.52,0.36,0.36,0.55,0.36,0.26,0.47,0.52,0.26,0.52,0.42,0.47,0.52,0.31,0.26,0.47,0.23,0.55,0.63,0.52,0.47,0.55,0.47,0.36,0.36,0.47,0.47,0.55,0.52,0.31,0.55,0.52,0.47,0.31,0.47,0.42,0.31,0.52,0.36" style="fill:rgb(0,0,0);font-family:Advt93-r;font-size:9.96px;stroke:none;">tors signiﬁcantly. The array of detector</text>
   <text y="484.837" x="407.678,411.304,414.411,419.073,424.252,429.432,433.0176,438.745,445.379,450.041,453.6266,459.325,464.505,469.166,472.792,475.381,480.042,485.222,489.884,495.0632,500.766,503.873,509.05219999999997,514.712,519.373,521.962,524.552,529.731,536.4042,542.036,546.7171999999999,552.298" svgx:width="0.36,0.31,0.47,0.52,0.52,0.36,0.55,0.67,0.47,0.36,0.55,0.52,0.47,0.36,0.26,0.47,0.52,0.47,0.52,0.55,0.31,0.52,0.55,0.47,0.26,0.26,0.52,0.67,0.55,0.47,0.55,0.47" style="fill:rgb(0,0,0);font-family:Advt93-r;font-size:9.96px;stroke:none;">stands was designed to allow a 2</text>
   <text y="484.837" code="3" x="556.951" svgx:width="0.79" style="fill:rgb(0,0,0);font-family:AdvMT_RM;font-size:9.96px;stroke:none;">?</text>
   <text y="496.8" x="407.678,411.822,417.001,421.663,426.324,429.95,434.72,439.382,444.0632,446.626,451.805,454.8926,457.454,462.116,466.865,471.526,476.188" svgx:width="0.42,0.52,0.47,0.47,0.36,0.47,0.47,0.47,0.55,0.52,0.31,0.55,0.47,0.47,0.47,0.47,0.47" style="fill:rgb(0,0,0);font-family:Advt93-r;font-size:9.96px;stroke:none;">coverage of 8–170</text>
   <text y="493.228" code="2" x="480.87" svgx:width="0.5" style="fill:rgb(0,0,0);font-family:AdvMT_SY;font-size:6.58px;stroke:none;">?</text>
   <text y="496.8" x="487.22,491.881,495.507,500.686,505.866,511.045,516.2242,518.853,521.961,527.14,531.8212,534.443,538.068,542.73,550.4,555.58,558.169,562.618" svgx:width="0.47,0.36,0.52,0.52,0.52,0.52,0.55,0.31,0.52,0.47,0.55,0.36,0.47,0.77,0.52,0.26,0.47,0.23" style="fill:rgb(0,0,0);font-family:Advt93-r;font-size:9.96px;stroke:none;">around the sample.</text>
   <text y="508.762" x="407.68,413.632,418.812,423.4932,432.851,435.442,440.621,444.765,447.354,452.637,457.299,462.478,465.5656,474.974,480.153,485.333,488.523,491.112,495.256,498.84159999999997,508.308,513.487,518.149,521.256,527.89,532.552,537.214,542.3932000000001,551.904,555.011,560.19" svgx:width="0.63,0.52,0.47,0.55,0.26,0.52,0.42,0.26,0.52,0.47,0.52,0.31,0.55,0.52,0.52,0.31,0.26,0.42,0.36,0.55,0.52,0.47,0.31,0.67,0.47,0.47,0.52,0.55,0.31,0.52,0.47" style="fill:rgb(0,0,0);font-family:Advt93-r;font-size:9.96px;stroke:none;">The incident optics between the</text>
   <text y="520.724" x="407.68,410.787,414.412,419.074,424.253,427.975,430.564,435.225,438.333,440.922,446.102,451.28119999999996,454.505,459.167,464.426,467.015,472.195,476.856,480.4416,483.701,488.362,493.542,498.72119999999995,501.956,505.063,510.242,514.9232000000001,518.112,522.774,527.435,531.151,534.777,539.438,542.0276,545.211,551.845,556.506,560.132" svgx:width="0.31,0.36,0.47,0.52,0.36,0.26,0.47,0.31,0.26,0.52,0.52,0.55,0.47,0.52,0.26,0.52,0.47,0.36,0.55,0.47,0.52,0.52,0.55,0.31,0.52,0.47,0.55,0.47,0.47,0.36,0.36,0.47,0.26,0.55,0.67,0.47,0.36,0.47" style="fill:rgb(0,0,0);font-family:Advt93-r;font-size:9.96px;stroke:none;">translation guides and the vessel were</text>
   <text y="532.686" x="407.68,412.341,414.93,418.556,423.73519999999996,429.165,432.79,437.452,442.714,447.376,451.001,453.591,458.252,463.432,468.093,473.2722,478.769,481.877,487.0562,492.432,497.094,502.353,507.5322,512.899,516.006,522.64,527.8192,533.251,537.913,542.574,546.801,551.98,557.16" svgx:width="0.47,0.26,0.36,0.52,0.55,0.36,0.47,0.52,0.47,0.36,0.26,0.47,0.52,0.47,0.52,0.55,0.31,0.52,0.55,0.47,0.52,0.52,0.55,0.31,0.67,0.52,0.55,0.47,0.47,0.42,0.52,0.52,0.77" style="fill:rgb(0,0,0);font-family:Advt93-r;font-size:9.96px;stroke:none;">also redesigned to add two vacuum</text>
   <text y="544.649" x="407.68,411.305,413.894,416.484,419.591,423.1766,428.711,432.336,437.516,442.695,447.3762,452.918,455.507,463.178,470.848,475.51,480.689,483.278,488.068,491.175,495.836,498.426,503.1072,508.59,511.697,516.877,519.466,522.055,527.235,533.869,536.458,541.753,546.4342,551.901,555.009,560.188" svgx:width="0.36,0.26,0.26,0.31,0.36,0.55,0.36,0.52,0.52,0.47,0.55,0.26,0.77,0.77,0.47,0.52,0.26,0.47,0.31,0.47,0.26,0.47,0.55,0.31,0.52,0.26,0.26,0.52,0.67,0.26,0.52,0.47,0.55,0.31,0.52,0.47" style="fill:rgb(0,0,0);font-family:Advt93-r;font-size:9.96px;stroke:none;">slits (one immediately following the</text>
   <text y="556.554" x="407.68,410.787,414.412,419.074,424.253,427.975,430.564,435.225,438.333,440.922,446.102,451.28119999999996,454.619,459.28,464.46,467.049,472.229,476.89,480.4756,483.871,488.533,493.712,498.89119999999997,502.183,507.362,512.542,517.2232,520.551,523.14,528.32,531.945,535.0326,538.351,543.531,548.192,551.3,556.479,560.105" svgx:width="0.31,0.36,0.47,0.52,0.36,0.26,0.47,0.31,0.26,0.52,0.52,0.55,0.47,0.52,0.26,0.52,0.47,0.36,0.55,0.47,0.52,0.52,0.55,0.52,0.52,0.47,0.55,0.26,0.52,0.36,0.31,0.55,0.52,0.47,0.31,0.52,0.36,0.47" style="fill:rgb(0,0,0);font-family:Advt93-r;font-size:9.96px;stroke:none;">translation guides and one just before</text>
   <text y="568.516" x="407.68,410.787,415.966,420.6472,424.063,428.725,433.386,437.102,440.728,445.389,447.979,451.5646,455.016,458.125,463.304,466.8896,470.438,473.027,480.697,485.877,489.502,494.682,499.343,504.005,509.1842,512.729,517.909,522.57,527.232,534.9012,538.354,541.98,547.159,551.904,555.011,557.6,562.262" svgx:width="0.31,0.52,0.47,0.55,0.47,0.47,0.36,0.36,0.47,0.26,0.36,0.55,0.31,0.52,0.36,0.55,0.26,0.77,0.52,0.36,0.52,0.47,0.47,0.52,0.55,0.52,0.47,0.47,0.77,0.55,0.36,0.52,0.47,0.31,0.26,0.47,0.26" style="fill:rgb(0,0,0);font-family:Advt93-r;font-size:9.96px;stroke:none;">the vessel) for improved beam spatial</text>
   <text y="580.479" x="407.68,412.341,417.521,422.7002,425.764,430.943,433.533,438.194,442.856,446.481,451.143,455.923,461.103,465.246,469.92719999999997,472.987,478.167,482.828,488.008,493.187,495.777,498.884,501.473,506.774,511.954,514.2448,517.262,520.888,526.0672000000001,529.111,532.218,537.398,542.0792,545.098,548.723,551.901,556.562,561.742" svgx:width="0.47,0.52,0.52,0.55,0.52,0.26,0.47,0.47,0.36,0.47,0.47,0.52,0.42,0.47,0.55,0.52,0.47,0.52,0.52,0.26,0.31,0.26,0.52,0.52,0.23,0.55,0.36,0.52,0.55,0.31,0.52,0.47,0.55,0.36,0.31,0.47,0.52,0.31" style="fill:rgb(0,0,0);font-family:Advt93-r;font-size:9.96px;stroke:none;">and divergence deﬁnition. In the stan-</text>
   <text y="592.441" x="407.68,412.859,417.521,421.146,426.3252,435.175,439.318,444.498,449.677,454.96,459.622,464.802,468.427,473.089,476.196,478.785,483.965,489.144,492.7296,501.674,505.299,509.961,513.5466,522.423,526.048,531.228,536.408,543.042,548.2212000000001,557.062,559.651" svgx:width="0.52,0.47,0.36,0.52,0.55,0.42,0.52,0.52,0.52,0.47,0.52,0.36,0.47,0.31,0.26,0.52,0.52,0.36,0.55,0.36,0.47,0.36,0.55,0.36,0.52,0.52,0.67,0.52,0.55,0.26,0.52" style="fill:rgb(0,0,0);font-family:Advt93-r;font-size:9.96px;stroke:none;">dard conﬁgurations (as shown in</text>
   <text y="604.403" x="407.68,413.009,417.67,422.85,425.439,430.1202,433.927,438.589,442.1746,446.003,450.6842,454.45,459.63,464.292,468.953,476.62219999999996,480.472,484.097,486.687,490.83,495.5112,499.293,504.472,507.5596,511.368,516.0492,518.568,522.712,530.3812,534.159,540.793,543.457,548.637" svgx:width="0.63,0.47,0.52,0.26,0.47,0.55,0.47,0.36,0.55,0.47,0.55,0.52,0.47,0.47,0.77,0.55,0.36,0.26,0.42,0.47,0.55,0.52,0.31,0.55,0.47,0.55,0.42,0.77,0.55,0.67,0.26,0.52,0.47" style="fill:rgb(0,0,0);font-family:Advt93-r;font-size:9.96px;stroke:none;">Table 1) a beam size of 1 cm wide</text>
   <text y="604.403" code="3" x="557.066" svgx:width="0.78" style="fill:rgb(0,0,0);font-family:AdvMT_SY;font-size:9.96px;stroke:none;">?</text>
   <text y="616.365" x="407.68,412.3612,414.88,419.023,426.6922,433.248,436.355,441.017,443.606,446.1956,452.806,455.396,458.9816,465.619,470.798,474.424,479.168,484.347,486.63779999999997,493.171,498.351,503.531,506.6186,513.297,516.404,521.584,524.173,527.7586,534.386,538.53,543.191,548.3702000000001,555.022,560.202" svgx:width="0.47,0.55,0.42,0.77,0.55,0.31,0.47,0.26,0.26,0.55,0.26,0.36,0.55,0.52,0.36,0.47,0.52,0.23,0.55,0.52,0.52,0.31,0.55,0.31,0.52,0.26,0.36,0.55,0.42,0.47,0.52,0.55,0.52,0.47" style="fill:rgb(0,0,0);font-family:Advt93-r;font-size:9.96px;stroke:none;">4 cm tall is used, but this can be</text>
   <text y="628.327" x="407.68,412.341,417.521,420.11,425.29,428.915,432.022,436.818,441.99719999999996,447.59,452.252,455.8376,461.537,464.644,469.824,474.5052,480.131,484.793,489.454,494.634,499.296,503.035,505.624,513.294,517.956,523.135,526.2225999999999,531.891,537.07,539.659,543.803,546.91,551.675,554.783,559.444,562.617" svgx:width="0.47,0.52,0.26,0.52,0.36,0.31,0.47,0.52,0.55,0.47,0.36,0.55,0.31,0.52,0.47,0.55,0.47,0.47,0.52,0.47,0.36,0.26,0.77,0.47,0.52,0.31,0.55,0.52,0.26,0.42,0.31,0.47,0.31,0.47,0.36,0.23" style="fill:rgb(0,0,0);font-family:Advt93-r;font-size:9.96px;stroke:none;">adjusted as the experiment dictates.</text>
   <text y="640.29" x="407.68,413.632,418.812,423.4932,431.774,439.445,444.106,448.768,451.447,459.117,464.297,471.9662,480.304,485.483,490.145,494.806,502.4752,510.861,514.487,517.076,521.219,525.9002,534.218,537.325,542.505,547.166,550.2536,558.652,561.242" svgx:width="0.63,0.52,0.47,0.55,0.77,0.47,0.47,0.26,0.77,0.52,0.77,0.55,0.52,0.47,0.47,0.77,0.55,0.36,0.26,0.42,0.47,0.55,0.31,0.52,0.47,0.31,0.55,0.26,0.36" style="fill:rgb(0,0,0);font-family:Advt93-r;font-size:9.96px;stroke:none;">The maximum beam size that is</text>
   <text y="652.195" x="407.68,412.341,416.485,421.664,424.253,428.915,433.577,438.238,443.564,446.153,450.8342,456.433,459.022,462.6076,468.282" svgx:width="0.47,0.42,0.52,0.26,0.47,0.47,0.47,0.52,0.26,0.47,0.55,0.26,0.36,0.55,0.47" style="fill:rgb(0,0,0);font-family:Advt93-r;font-size:9.96px;stroke:none;">achievable is 2</text>
   <text y="652.195" code="3" x="475.485" svgx:width="0.78" style="fill:rgb(0,0,0);font-family:AdvMT_SY;font-size:9.96px;stroke:none;">?</text>
   <text y="652.195" x="485.746,490.408,492.688,497.3692,499.919,504.063,511.7322,517.381,522.042,525.1296,530.76,535.4412,541.078,547.712,552.374,557.035,561.697" svgx:width="0.47,0.23,0.47,0.55,0.42,0.77,0.55,0.47,0.31,0.55,0.47,0.55,0.67,0.47,0.47,0.47,0.31" style="fill:rgb(0,0,0);font-family:Advt93-r;font-size:9.96px;stroke:none;">5.5 cm at a wave-</text>
   <text y="664.157" x="407.68,410.269,414.93,420.11,424.772,427.975,433.1542,438.576,443.755,446.8426,452.295,456.957,459.237,463.9182,466.468" svgx:width="0.26,0.47,0.52,0.47,0.31,0.52,0.55,0.52,0.31,0.55,0.47,0.23,0.47,0.55,0.78" style="fill:rgb(0,0,0);font-family:Advt93-r;font-size:9.96px;stroke:none;">length of 1.6 A</text>
   <text y="661.606" x="469.079" svgx:width="0.26" style="fill:rgb(0,0,0);font-family:Advt93-r;font-size:9.96px;stroke:none;">˚</text>
   <text y="664.157" x="474.237,476.5278,481.947,489.618,494.874,501.508,506.17,510.831,515.493,519.118,521.4088,526.792,529.899,535.079,539.7601999999999,545.217,552.887,558.143,561.769" svgx:width="0.23,0.55,0.77,0.52,0.67,0.47,0.47,0.47,0.36,0.23,0.55,0.31,0.52,0.47,0.55,0.77,0.52,0.36,0.31" style="fill:rgb(0,0,0);font-family:Advt93-r;font-size:9.96px;stroke:none;">. However, the most</text>
   <text y="676.119" x="407.68,410.269,415.448,418.556,423.217,428.397,432.022,436.7032,440.39,445.57,450.231,453.857,456.94460000000004,460.629,465.809,468.89660000000003,472.535,475.642,480.822,485.5032,489.145,494.325,498.987,503.648,511.3172,514.997,517.586,521.1716,524.861,529.004,534.184,539.364,542.471,547.132,549.722,555.02,559.681" svgx:width="0.26,0.52,0.31,0.47,0.52,0.36,0.47,0.55,0.52,0.47,0.36,0.31,0.55,0.52,0.31,0.55,0.31,0.52,0.47,0.55,0.52,0.47,0.47,0.77,0.55,0.26,0.36,0.55,0.42,0.52,0.52,0.31,0.47,0.26,0.52,0.47,0.52" style="fill:rgb(0,0,0);font-family:Advt93-r;font-size:9.96px;stroke:none;">intense part of the beam is contained</text>
   <text y="688.082" x="407.68,414.314,416.903,420.01,425.19,427.779,432.9582,440.05" svgx:width="0.67,0.26,0.31,0.52,0.26,0.52,0.55,0.47" style="fill:rgb(0,0,0);font-family:Advt93-r;font-size:9.96px;stroke:none;">within 1</text>
   <text y="688.082" code="3" x="447.195" svgx:width="0.78" style="fill:rgb(0,0,0);font-family:AdvMT_SY;font-size:9.96px;stroke:none;">?</text>
   <text y="688.082" x="457.513,462.19419999999997,464.656,468.8,476.562,478.8528,485.803,491.756,496.935,501.6162,508.594,513.773,518.435,525.1081999999999,532.121,534.71,539.889,544.033,546.622,551.906,556.567,561.747" svgx:width="0.47,0.55,0.42,0.77,0.23,0.55,0.63,0.52,0.47,0.55,0.52,0.47,0.67,0.55,0.26,0.52,0.42,0.26,0.52,0.47,0.52,0.31" style="fill:rgb(0,0,0);font-family:Advt93-r;font-size:9.96px;stroke:none;">4 cm. The new incident</text>
   <text y="700.044" x="407.679,412.859,417.521,422.182,429.8512,440.788,445.967,451.147,454.254,456.843,460.987,464.5726,475.539,480.719,485.381,489.006,491.595,496.257,501.4362,512.388,514.978,520.157,524.301,529.48,533.106,538.286,543.465,547.091,551.902,555.009,559.67" svgx:width="0.52,0.47,0.47,0.77,0.55,0.52,0.52,0.31,0.26,0.42,0.36,0.55,0.52,0.47,0.36,0.26,0.47,0.52,0.55,0.26,0.52,0.42,0.52,0.36,0.52,0.52,0.36,0.47,0.31,0.47,0.52" style="fill:rgb(0,0,0);font-family:Advt93-r;font-size:9.96px;stroke:none;">beam optics design incorporated</text>
   <text y="712.006" x="407.679,412.859,417.521,420.11,422.699,427.974,434.609,438.1946,441.411,444.518,449.69719999999995,452.919,457.581,462.242,465.35,470.011,475.191,480.37019999999995,483.646,486.753,491.933,496.6142,499.859,504.521,509.182,513.844,517.987,523.167,527.829,530.936,535.598,540.7772,544.078,549.257,551.847,556.508,561.688" svgx:width="0.52,0.47,0.26,0.26,0.52,0.67,0.36,0.55,0.31,0.52,0.55,0.47,0.47,0.31,0.47,0.52,0.52,0.55,0.31,0.52,0.47,0.55,0.47,0.47,0.47,0.42,0.52,0.47,0.31,0.47,0.52,0.55,0.52,0.26,0.47,0.52,0.31" style="fill:rgb(0,0,0);font-family:Advt93-r;font-size:9.96px;stroke:none;">bellows to extend the evacuated ﬂight</text>
   <text y="723.968" x="407.679,412.859,417.521,420.628,425.80719999999997,434.211,438.873,444.052,449.2312,457.569,462.23,464.82,467.409,475.079,477.668,482.966,487.627,490.734,495.41519999999997,503.715,506.89,513.524,518.7032,527.017,532.196,537.376,541.001,544.109,547.734,552.527,557.189" svgx:width="0.52,0.47,0.31,0.52,0.55,0.47,0.52,0.52,0.55,0.47,0.26,0.26,0.77,0.26,0.52,0.47,0.31,0.47,0.55,0.31,0.67,0.52,0.55,0.52,0.52,0.36,0.31,0.36,0.47,0.47,0.77" style="fill:rgb(0,0,0);font-family:Advt93-r;font-size:9.96px;stroke:none;">path and eliminate two upstream</text>
   <text y="735.931" x="407.679,412.341,414.93,420.11,427.78,430.47,435.65,438.239,443.419,451.0882,458.702,465.337,468.001,473.18,478.36,483.539,490.173,493.343,495.6338,503.208,510.988,516.1672,523.788,528.449,533.111,537.772,541.916,547.201,551.863,554.97,559.632" svgx:width="0.47,0.26,0.52,0.77,0.26,0.52,0.26,0.52,0.77,0.55,0.67,0.26,0.52,0.52,0.52,0.67,0.36,0.23,0.55,0.78,0.52,0.55,0.47,0.47,0.47,0.42,0.52,0.47,0.31,0.47,0.52" style="fill:rgb(0,0,0);font-family:Advt93-r;font-size:9.96px;stroke:none;">aluminium windows. An evacuated</text>
   <text y="747.836" x="407.679,411.823,417.003,422.182,425.29,429.951,432.54,437.839,445.509,450.17,455.35,458.43760000000003,462.443,469.078,473.739,477.3246,481.379,486.04,488.629,492.255,497.4342,501.391,503.98,509.159,513.303,515.892,521.176,526.355,531.017,536.1962000000001,540.167,542.757,547.9362,551.903,555.01,560.19" svgx:width="0.42,0.52,0.52,0.31,0.47,0.26,0.52,0.77,0.47,0.52,0.31,0.55,0.67,0.47,0.36,0.55,0.47,0.26,0.36,0.52,0.55,0.26,0.52,0.42,0.26,0.52,0.52,0.47,0.52,0.55,0.26,0.52,0.55,0.31,0.52,0.47" style="fill:rgb(0,0,0);font-family:Advt93-r;font-size:9.96px;stroke:none;">containment was also included in the</text>
  </g>
  <g begin="text">
   <text y="47.848" x="44.844,50.981,58.951,65.089,73.059,81.029,87.166,95.136,103.90299999999999,109.188,117.987,125.957,134.756,142.726,148.863" svgx:width="0.38,0.5,0.38,0.5,0.5,0.38,0.5,0.55,0.55,0.55,0.5,0.55,0.5,0.38,0.38" style="fill:rgb(110,61,23);font-family:AdvOpti-B;font-size:15.94px;stroke:none;">research papers</text>
  </g>
  <g begin="text">
   <text y="771.081" x="44.844,51.445,58.045,64.646" svgx:width="0.55,0.55,0.55,0.55" style="fill:rgb(103,102,103);font-family:AdvOpti-B;font-size:11.96px;stroke:none;">1190</text>
   <text y="771.081" x="83.225,89.361,93.759" svgx:width="0.77,0.55,0.55" style="fill:rgb(110,61,23);font-family:AdvOpti-R;font-size:7.97px;stroke:none;">Huq</text>
   <text y="771.081" x="100.744,104.728,106.9596,109.644,113.629,115.868" svgx:width="0.5,0.28,0.55,0.5,0.28,0.28" style="fill:rgb(110,61,23);font-family:AdvOpti-I;font-size:7.97px;stroke:none;">et al.</text>
   <text y="769.493" code="4" x="123.364" svgx:width="0.5" style="fill:rgb(110,61,23);font-family:AdvMT_SY;font-size:3.98px;stroke:none;">?</text>
   <text y="771.081" x="130.677,135.076,141.627,149.509,155.646,159.543,165.679,168.2294,170.876,173.442,177.338,181.737,186.136,188.287,190.439,194.8225,197.408,201.807,203.9589,206.649,210.5543,213.169,215.32,219.719,221.87,224.436,228.835,231.401,235.297,239.194,243.593,247.49,250.056,253.874,256.025,258.176,262.575,266.9585,269.634,274.033,278.431,284.568,288.967,292.864,295.4144,298.038,302.437,304.588,306.74,308.891,311.456,315.353,319.25,321.401,325.8,332.351,336.192,338.343,342.24" svgx:width="0.55,0.82,0.99,0.77,0.49,0.77,0.32,0.55,0.32,0.49,0.55,0.55,0.27,0.27,0.55,0.55,0.55,0.27,0.55,0.49,0.55,0.27,0.55,0.27,0.32,0.55,0.32,0.49,0.49,0.55,0.49,0.32,0.49,0.27,0.27,0.55,0.55,0.55,0.55,0.55,0.77,0.55,0.49,0.32,0.55,0.55,0.27,0.27,0.27,0.32,0.49,0.49,0.27,0.55,0.82,0.49,0.27,0.49,0.32" style="fill:rgb(110,61,23);font-family:AdvOpti-R;font-size:7.97px;stroke:none;">POWGEN: rebuild of a third-generation powder diffractometer</text>
   <text y="771.081" x="433.646,435.885,438.1166,440.789,446.096,450.495,454.894,457.133,459.3646,461.935,467.243,469.896,473.881,476.949,479.188" svgx:width="0.28,0.28,0.55,0.67,0.55,0.55,0.28,0.28,0.55,0.67,0.33,0.5,0.38,0.28,0.28" style="fill:rgb(77,77,77);font-family:AdvOpti-I;font-size:7.97px;stroke:none;">J. Appl. Cryst.</text>
   <text y="771.081" x="484.046,486.198,490.596,494.995,499.394,503.793,505.945" svgx:width="0.27,0.55,0.55,0.55,0.55,0.27,0.32" style="fill:rgb(77,77,77);font-family:AdvOpti-R;font-size:7.97px;stroke:none;">(2019).</text>
   <text y="771.081" x="511.146,515.545" svgx:width="0.55,0.55" style="fill:rgb(77,77,77);font-family:AdvOpti-B;font-size:7.97px;stroke:none;">52</text>
   <text y="771.081" x="519.933,522.4834,525.149,529.548,533.947,538.346,542.745,547.391,551.79,556.189,560.588" svgx:width="0.32,0.55,0.55,0.55,0.55,0.55,0.58,0.55,0.55,0.55,0.55" style="fill:rgb(77,77,77);font-family:AdvOpti-R;font-size:7.97px;stroke:none;">, 1189–1201</text>
  </g>
  <rect style="stroke:blue;stroke-width:0.3;" x="47.225" y="488.188" height="237.941" width="340.215" title="2"/>
  <text y="488.188" class="image" id="image.2.1" width="340" height="237" x="47.225">image.2.1.47_387.488_726</text>
  <rect style="stroke:blue;stroke-width:0.3;" x="47.225" y="488.188" height="237.941" width="340.215" title="2"/>
  <text y="488.188" class="image" id="image.2.2" width="340" height="237" x="47.225">image.2.2.47_387.488_726</text>
  <g begin="text">
   <text y="728.958" x="44.844,49.327,51.845,56.328,61.276,64.728,69.213,72.17" svgx:width="0.5,0.28,0.5,0.55,0.38,0.5,0.55,0.55" style="fill:rgb(103,102,103);font-family:AdvOpti-B;font-size:8.97px;stroke:none;">Figure 1</text>
   <text y="738.425" x="44.844,49.247,52.769,57.171,61.134,67.653,71.616,74.257,76.458,80.0154,82.09,84.292,88.254,92.216,96.619,101.021,103.6467,105.731,110.133,112.75869999999999,114.802,117.443,121.846,125.82690000000001,127.897,132.74,139.009,146.858,153.378,159.017,165.2001,167.243,169.444,173.846,176.928,179.569,182.651,187.053,193.573,197.535,201.938,204.579,206.52710000000002,208.626,213.615,218.017,221.9979,224.046,228.448,232.851,236.813,239.895,243.857,248.26,252.222,256.6264,258.741,261.822,265.785,269.307,271.948,274.149,278.551,282.9554,285.045,289.447,292.0727,294.116,296.757,301.16,305.14090000000004,307.154,309.356,313.759,316.84,319.482,322.563,326.966,333.485,337.448,341.85,344.4757,346.612,348.813,351.8622,353.925,360.445,364.407,368.369,372.772,374.973,379.375,383.338,387.74" svgx:width="0.52,0.42,0.52,0.47,0.77,0.47,0.31,0.26,0.42,0.55,0.26,0.47,0.47,0.52,0.52,0.31,0.55,0.52,0.31,0.55,0.31,0.52,0.47,0.55,0.57,0.77,0.93,0.77,0.67,0.73,0.55,0.26,0.52,0.36,0.31,0.36,0.52,0.77,0.47,0.52,0.31,0.23,0.55,0.63,0.52,0.47,0.55,0.52,0.52,0.47,0.36,0.47,0.52,0.47,0.52,0.55,0.36,0.47,0.42,0.31,0.26,0.52,0.52,0.55,0.52,0.31,0.55,0.31,0.52,0.47,0.55,0.26,0.52,0.36,0.31,0.36,0.52,0.77,0.47,0.52,0.31,0.55,0.26,0.36,0.55,0.77,0.47,0.47,0.52,0.26,0.52,0.47,0.52,0.23" style="fill:rgb(0,0,0);font-family:Advt93-r;font-size:8.47px;stroke:none;">Schematic layout of the POWGEN instrument. The upgraded section of the instrument is magniﬁed,</text>
   <text y="747.893" x="44.844,47.926,52.328,56.731,62.37,64.571,68.973,72.9539,75.514,79.917,83.879,86.52,90.483,92.684,94.884,97.9332,100.571,104.974,107.5997,110.152,114.114,118.076,121.598,126.0024,128.576,132.098,136.501,143.02,147.423,151.826,156.228,160.19,164.593,167.234" svgx:width="0.36,0.52,0.52,0.67,0.26,0.52,0.47,0.55,0.52,0.47,0.31,0.47,0.26,0.26,0.36,0.55,0.52,0.31,0.55,0.47,0.47,0.42,0.52,0.55,0.42,0.52,0.77,0.52,0.52,0.52,0.47,0.52,0.31,0.23" style="fill:rgb(0,0,0);font-family:Advt93-r;font-size:8.47px;stroke:none;">showing details of each component.</text>
  </g>
  <path style="fill:rgb(0,0,0);stroke:none;stroke-width:1.0;" d="M47.22 481.89 L387.38 481.89 L387.38 719.83 L47.22 719.83 "/>
  <g begin="text">
   <text y="77.725" x="313.796,318.744,323.227,328.176,330.596,335.081,338.117" svgx:width="0.55,0.5,0.55,0.27,0.5,0.55,0.55" style="fill:rgb(103,102,103);font-family:AdvOpti-B;font-size:8.97px;stroke:none;">Table 1</text>
   <text y="87.193" x="313.796,318.198,320.84,324.802,329.205,333.607,337.569,340.651,345.0554,350.644,353.726,357.688,360.329,362.971,365.172,369.574,373.536,376.5852,382.221,384.862,389.264,392.3132,397.867,402.27,406.232,408.873,412.8539,418.389,421.911,426.314,428.515,430.715,434.678,438.2,440.841,443.042,447.444,451.8484,457.448,461.41,464.0357,469.58,474.423,480.692,488.541,495.061,500.7,506.8831,512.441,515.082,519.485,522.5342,528.088,533.727,538.129,540.33,543.852,548.2564,553.825,556.466,560.869" svgx:width="0.52,0.31,0.47,0.52,0.52,0.47,0.36,0.52,0.55,0.36,0.47,0.31,0.31,0.26,0.52,0.47,0.36,0.55,0.31,0.52,0.36,0.55,0.52,0.47,0.31,0.47,0.55,0.42,0.52,0.26,0.26,0.47,0.42,0.31,0.26,0.52,0.52,0.55,0.47,0.31,0.55,0.57,0.77,0.93,0.77,0.67,0.73,0.55,0.31,0.52,0.36,0.55,0.67,0.52,0.26,0.42,0.52,0.55,0.31,0.52,0.47" style="fill:rgb(0,0,0);font-family:Advt93-r;font-size:8.47px;stroke:none;">Standard settings for data collection at POWGEN for which the</text>
   <text y="96.66" x="313.796,315.997,320.399,323.481,326.122,329.204,333.606,340.126,344.088,348.491,351.1167,353.762,355.963,359.0122,361.585,365.107,369.069,371.27,373.471,377.874,380.955,384.918,387.559,391.521,395.924" svgx:width="0.26,0.52,0.36,0.31,0.36,0.52,0.77,0.47,0.52,0.31,0.55,0.26,0.36,0.55,0.42,0.47,0.26,0.26,0.52,0.36,0.47,0.31,0.47,0.52,0.23" style="fill:rgb(0,0,0);font-family:Advt93-r;font-size:8.47px;stroke:none;">instrument is calibrated.</text>
   <text y="121.719" x="313.796,318.105,321.005,324.734,328.878,333.022,336.752,340.895,344.127" svgx:width="0.57,0.36,0.47,0.52,0.52,0.47,0.52,0.42,0.47" style="fill:rgb(0,0,0);font-family:Advt93-r;font-size:7.97px;stroke:none;">Frequency</text>
   <text y="111.741" code="4" x="360.851" svgx:width="0.54" style="fill:rgb(0,0,0);font-family:AdvMT_MI;font-size:7.97px;stroke:none;">?</text>
   <text y="112.988" x="365.16,367.547,370.232,373.216,375.007,377.692" svgx:width="0.42,0.47,0.52,0.31,0.47,0.36" style="fill:rgb(0,0,0);font-family:Advt93-r;font-size:5.1px;stroke:none;">center</text>
   <text y="121.719" x="360.851,363.751" svgx:width="0.36,0.78" style="fill:rgb(0,0,0);font-family:Advt93-r;font-size:7.97px;stroke:none;">(A</text>
   <text y="119.621" x="365.84" svgx:width="0.26" style="fill:rgb(0,0,0);font-family:Advt93-r;font-size:7.97px;stroke:none;">˚</text>
   <text y="121.719" x="369.978" svgx:width="0.36" style="fill:rgb(0,0,0);font-family:Advt93-r;font-size:7.97px;stroke:none;">)</text>
   <text y="111.741" code="4" x="395.15" svgx:width="0.54" style="fill:rgb(0,0,0);font-family:AdvMT_MI;font-size:7.97px;stroke:none;">?</text>
   <text y="112.988" x="399.459,403.878,405.37" svgx:width="0.77,0.26,0.52" style="fill:rgb(0,0,0);font-family:Advt93-r;font-size:5.1px;stroke:none;">min</text>
   <text y="121.719" x="395.15,398.051" svgx:width="0.36,0.78" style="fill:rgb(0,0,0);font-family:Advt93-r;font-size:7.97px;stroke:none;">(A</text>
   <text y="119.621" x="400.139" svgx:width="0.26" style="fill:rgb(0,0,0);font-family:Advt93-r;font-size:7.97px;stroke:none;">˚</text>
   <text y="121.719" x="404.277" svgx:width="0.36" style="fill:rgb(0,0,0);font-family:Advt93-r;font-size:7.97px;stroke:none;">)</text>
   <text y="111.741" code="4" x="424.914" svgx:width="0.54" style="fill:rgb(0,0,0);font-family:AdvMT_MI;font-size:7.97px;stroke:none;">?</text>
   <text y="112.988" x="429.223,433.641,436.327" svgx:width="0.77,0.47,0.47" style="fill:rgb(0,0,0);font-family:Advt93-r;font-size:5.1px;stroke:none;">max</text>
   <text y="121.719" x="424.914,427.815" svgx:width="0.36,0.78" style="fill:rgb(0,0,0);font-family:Advt93-r;font-size:7.97px;stroke:none;">(A</text>
   <text y="119.621" x="429.846" svgx:width="0.26" style="fill:rgb(0,0,0);font-family:Advt93-r;font-size:7.97px;stroke:none;">˚</text>
   <text y="121.719" x="433.985" svgx:width="0.36" style="fill:rgb(0,0,0);font-family:Advt93-r;font-size:7.97px;stroke:none;">)</text>
   <text y="111.741" x="454.621" svgx:width="0.52" style="fill:rgb(0,0,0);font-family:Advt93-i;font-size:7.97px;stroke:none;">d</text>
   <text y="112.988" x="458.76,463.178,464.67" svgx:width="0.77,0.26,0.52" style="fill:rgb(0,0,0);font-family:Advt93-r;font-size:5.1px;stroke:none;">min</text>
   <text y="121.719" x="454.621,457.522" svgx:width="0.36,0.78" style="fill:rgb(0,0,0);font-family:Advt93-r;font-size:7.97px;stroke:none;">(A</text>
   <text y="119.621" x="459.61" svgx:width="0.26" style="fill:rgb(0,0,0);font-family:Advt93-r;font-size:7.97px;stroke:none;">˚</text>
   <text y="121.719" x="463.748" svgx:width="0.36" style="fill:rgb(0,0,0);font-family:Advt93-r;font-size:7.97px;stroke:none;">)</text>
   <text y="111.741" x="484.385" svgx:width="0.52" style="fill:rgb(0,0,0);font-family:Advt93-i;font-size:7.97px;stroke:none;">d</text>
   <text y="112.988" x="488.524,492.942,495.628" svgx:width="0.77,0.47,0.47" style="fill:rgb(0,0,0);font-family:Advt93-r;font-size:5.1px;stroke:none;">max</text>
   <text y="121.719" x="484.385,487.285" svgx:width="0.36,0.78" style="fill:rgb(0,0,0);font-family:Advt93-r;font-size:7.97px;stroke:none;">(A</text>
   <text y="119.621" x="489.317" svgx:width="0.26" style="fill:rgb(0,0,0);font-family:Advt93-r;font-size:7.97px;stroke:none;">˚</text>
   <text y="121.719" x="493.455" svgx:width="0.36" style="fill:rgb(0,0,0);font-family:Advt93-r;font-size:7.97px;stroke:none;">)</text>
   <text y="111.741" x="513.695" svgx:width="0.77" style="fill:rgb(0,0,0);font-family:Advt93-i;font-size:7.97px;stroke:none;">Q</text>
   <text y="112.988" x="519.818,524.237,525.729" svgx:width="0.77,0.26,0.52" style="fill:rgb(0,0,0);font-family:Advt93-r;font-size:5.1px;stroke:none;">min</text>
   <text y="121.719" x="513.695,516.596" svgx:width="0.36,0.78" style="fill:rgb(0,0,0);font-family:Advt93-r;font-size:7.97px;stroke:none;">(A</text>
   <text y="119.621" x="518.627" svgx:width="0.26" style="fill:rgb(0,0,0);font-family:Advt93-r;font-size:7.97px;stroke:none;">˚</text>
   <text y="118.317" code="5" x="522.766" svgx:width="0.77" style="fill:rgb(0,0,0);font-family:AdvMT_SY;font-size:5.1px;stroke:none;">?</text>
   <text y="118.317" x="527.188" svgx:width="0.47" style="fill:rgb(0,0,0);font-family:Advt93-r;font-size:5.1px;stroke:none;">1</text>
   <text y="121.719" x="529.853" svgx:width="0.36" style="fill:rgb(0,0,0);font-family:Advt93-r;font-size:7.97px;stroke:none;">)</text>
   <text y="111.741" x="545.783" svgx:width="0.77" style="fill:rgb(0,0,0);font-family:Advt93-i;font-size:7.97px;stroke:none;">Q</text>
   <text y="112.988" x="551.906,556.325,559.011" svgx:width="0.77,0.47,0.47" style="fill:rgb(0,0,0);font-family:Advt93-r;font-size:5.1px;stroke:none;">max</text>
   <text y="121.719" x="545.784,548.684" svgx:width="0.36,0.78" style="fill:rgb(0,0,0);font-family:Advt93-r;font-size:7.97px;stroke:none;">(A</text>
   <text y="119.621" x="550.772" svgx:width="0.26" style="fill:rgb(0,0,0);font-family:Advt93-r;font-size:7.97px;stroke:none;">˚</text>
   <text y="118.317" code="5" x="554.911" svgx:width="0.77" style="fill:rgb(0,0,0);font-family:AdvMT_SY;font-size:5.1px;stroke:none;">?</text>
   <text y="118.317" x="559.276" svgx:width="0.47" style="fill:rgb(0,0,0);font-family:Advt93-r;font-size:5.1px;stroke:none;">1</text>
   <text y="121.719" x="561.998" svgx:width="0.36" style="fill:rgb(0,0,0);font-family:Advt93-r;font-size:7.97px;stroke:none;">)</text>
   <text y="138.784" x="313.795,317.524,321.2699,360.85,364.58,366.404,370.133,373.863,377.6089,395.149,398.878,400.703,404.432,408.161,411.9069,424.912,428.642,430.466,434.195,437.925,441.6709,454.619,458.349,460.173,463.902,467.6479,488.068,491.798,493.622,497.3679,513.693,517.423,519.247,522.976,526.706,530.4519,545.781,549.51,553.24,555.064" svgx:width="0.47,0.47,0.55,0.47,0.23,0.47,0.47,0.47,0.55,0.47,0.23,0.47,0.47,0.47,0.55,0.47,0.23,0.47,0.47,0.47,0.55,0.47,0.23,0.47,0.47,0.55,0.47,0.23,0.47,0.55,0.47,0.23,0.47,0.47,0.47,0.55,0.47,0.47,0.23,0.47" style="fill:rgb(0,0,0);font-family:Advt93-r;font-size:7.97px;stroke:none;">60 0.800 0.267 1.333 0.13 8.2 0.766 46.9</text>
   <text y="147.741" x="313.795,317.524,321.2699,360.85,364.58,366.404,370.133,373.863,377.6089,395.149,398.878,400.703,404.432,408.161,411.9069,424.912,428.642,430.466,434.195,437.925,441.6709,454.619,458.349,460.173,463.902,467.632,471.3779,484.383,488.112,491.841,493.666,497.4119,513.692,517.422,519.246,522.976,526.705,530.4509,545.78,549.509,553.239,555.063" svgx:width="0.47,0.47,0.55,0.47,0.23,0.47,0.47,0.47,0.55,0.47,0.23,0.47,0.47,0.47,0.55,0.47,0.23,0.47,0.47,0.47,0.55,0.47,0.23,0.47,0.47,0.47,0.55,0.47,0.47,0.23,0.47,0.55,0.47,0.23,0.47,0.47,0.47,0.55,0.47,0.47,0.23,0.47" style="fill:rgb(0,0,0);font-family:Advt93-r;font-size:7.97px;stroke:none;">60 1.500 0.967 2.033 0.485 14.0 0.449 12.9</text>
   <text y="156.698" x="313.795,317.524,321.2699,360.85,364.58,366.404,370.133,373.863,377.6089,395.149,398.878,400.703,404.432,408.161,411.9069,424.912,428.642,430.466,434.195,437.925,441.6709,454.619,458.349,460.173,463.902,467.632,471.3779,484.383,488.112,491.841,493.666,497.4119,513.692,517.422,519.246,522.976,526.705,530.4509,549.522,553.252,555.076" svgx:width="0.47,0.47,0.55,0.47,0.23,0.47,0.47,0.47,0.55,0.47,0.23,0.47,0.47,0.47,0.55,0.47,0.23,0.47,0.47,0.47,0.55,0.47,0.23,0.47,0.47,0.47,0.55,0.47,0.47,0.23,0.47,0.55,0.47,0.23,0.47,0.47,0.47,0.55,0.47,0.23,0.47" style="fill:rgb(0,0,0);font-family:Advt93-r;font-size:7.97px;stroke:none;">60 2.665 2.132 3.198 1.070 22.2 0.283 5.9</text>
   <text y="165.655" x="313.795,317.524,321.2699,360.85,364.58,366.404,370.133,373.863,377.6089,395.149,398.878,400.703,404.432,408.161,411.9069,424.912,428.642,430.466,434.195,437.925,441.6709,454.619,458.349,460.173,463.902,467.632,471.3779,484.383,488.112,491.841,493.666,497.4119,513.692,517.422,519.246,522.976,526.705,530.4509,549.522,553.252,555.076" svgx:width="0.47,0.47,0.55,0.47,0.23,0.47,0.47,0.47,0.55,0.47,0.23,0.47,0.47,0.47,0.55,0.47,0.23,0.47,0.47,0.47,0.55,0.47,0.23,0.47,0.47,0.47,0.55,0.47,0.47,0.23,0.47,0.55,0.47,0.23,0.47,0.47,0.47,0.55,0.47,0.23,0.47" style="fill:rgb(0,0,0);font-family:Advt93-r;font-size:7.97px;stroke:none;">60 4.797 4.264 5.330 2.140 33.0 0.190 2.9</text>
   <text y="174.669" x="313.795,317.524,321.2699,360.85,364.58,366.404,370.133,373.863,377.6089,395.149,398.878,400.703,404.432,408.161,411.9069,424.912,428.642,430.466,434.195,437.925,441.6709,454.619,458.349,460.173,463.902,467.632,471.3779,484.383,488.112,491.841,493.666,497.4119,513.692,517.422,519.246,522.976,526.705,530.4509,545.78,549.509,553.239,555.063" svgx:width="0.47,0.47,0.55,0.47,0.23,0.47,0.47,0.47,0.55,0.47,0.23,0.47,0.47,0.47,0.55,0.47,0.23,0.47,0.47,0.47,0.55,0.47,0.23,0.47,0.47,0.47,0.55,0.47,0.47,0.23,0.47,0.55,0.47,0.23,0.47,0.47,0.47,0.55,0.47,0.47,0.23,0.47" style="fill:rgb(0,0,0);font-family:Advt93-r;font-size:7.97px;stroke:none;">30 1.066 0.100 2.132 0.100 15.0 0.411 62.5</text>
   <text y="183.627" x="313.795,317.524,321.2699,360.85,364.58,366.404,370.133,373.863,377.6089,395.149,398.878,400.703,404.432,408.161,411.9069,424.912,428.642,430.466,434.195,437.925,441.6709,454.619,458.349,460.173,463.902,467.632,471.3779,484.383,488.112,491.841,493.666,497.4119,513.692,517.422,519.246,522.976,526.705,530.4509,545.78,549.509,553.239,555.063" svgx:width="0.47,0.47,0.55,0.47,0.23,0.47,0.47,0.47,0.55,0.47,0.23,0.47,0.47,0.47,0.55,0.47,0.23,0.47,0.47,0.47,0.55,0.47,0.23,0.47,0.47,0.47,0.55,0.47,0.47,0.23,0.47,0.55,0.47,0.23,0.47,0.47,0.47,0.55,0.47,0.47,0.23,0.47" style="fill:rgb(0,0,0);font-family:Advt93-r;font-size:7.97px;stroke:none;">20 1.599 0.100 3.198 0.100 20.0 0.270 62.5</text>
   <text y="192.584" x="313.795,317.524,321.2699,360.85,364.58,366.404,370.133,373.863,377.6089,395.149,398.878,400.703,404.432,408.161,411.9069,424.912,428.642,430.466,434.195,437.925,441.6709,454.619,458.349,460.173,463.902,467.632,471.3779,484.383,488.112,491.841,493.666,497.4119,513.692,517.422,519.246,522.976,526.705,530.4509,545.78,549.509,553.239,555.063" svgx:width="0.47,0.47,0.55,0.47,0.23,0.47,0.47,0.47,0.55,0.47,0.23,0.47,0.47,0.47,0.55,0.47,0.23,0.47,0.47,0.47,0.55,0.47,0.23,0.47,0.47,0.47,0.55,0.47,0.47,0.23,0.47,0.55,0.47,0.23,0.47,0.47,0.47,0.55,0.47,0.47,0.23,0.47" style="fill:rgb(0,0,0);font-family:Advt93-r;font-size:7.97px;stroke:none;">10 3.198 0.100 6.396 0.100 40.0 0.137 62.5</text>
  </g>
 </g>
</svg>
