<?xml version="1.0" encoding="UTF-8"?>
<svg height="781.081" width="4054.844" xmlns="http://www.w3.org/2000/svg">
 <g id="page" xmlns:svgx="http://www.xml-cml.org/schema/svgx">
  <g begin="text">
   <text y="47.848" x="453.431,459.568,467.538,473.675,481.645,489.615,495.752,503.723,512.49,517.774,526.573,534.543,543.342,551.313,557.45" svgx:width="0.38,0.5,0.38,0.5,0.5,0.38,0.5,0.55,0.55,0.55,0.5,0.55,0.5,0.38,0.38" style="fill:rgb(110,61,23);font-family:AdvOpti-B;font-size:15.94px;stroke:none;">research papers</text>
  </g>
  <g begin="text">
   <text y="771.081" x="44.844,47.083,49.3146,51.931,57.238,61.637,66.036,68.275,70.5066,73.135,78.442,81.096,85.08,88.148,90.387" svgx:width="0.28,0.28,0.55,0.67,0.55,0.55,0.28,0.28,0.55,0.67,0.33,0.5,0.38,0.28,0.28" style="fill:rgb(77,77,77);font-family:AdvOpti-I;font-size:7.97px;stroke:none;">J. Appl. Cryst.</text>
   <text y="771.081" x="95.244,97.395,101.794,106.193,110.592,114.991,117.142" svgx:width="0.27,0.55,0.55,0.55,0.55,0.27,0.32" style="fill:rgb(77,77,77);font-family:AdvOpti-R;font-size:7.97px;stroke:none;">(2019).</text>
   <text y="771.081" x="122.344,126.743" svgx:width="0.55,0.55" style="fill:rgb(77,77,77);font-family:AdvOpti-B;font-size:7.97px;stroke:none;">52</text>
   <text y="771.081" x="131.131,133.6814,136.347,140.746,145.145,149.544,153.943,158.589,162.988,167.387,171.668" svgx:width="0.32,0.55,0.55,0.55,0.55,0.55,0.58,0.55,0.55,0.55,0.55" style="fill:rgb(77,77,77);font-family:AdvOpti-R;font-size:7.97px;stroke:none;">, 1189–1201</text>
   <text y="771.081" x="371.454,375.853,378.004,380.155,384.554,387.622,390.188,392.339,394.49,398.889,403.288,405.439,408.005,412.328,414.894,418.791,420.942,425.341,429.74,432.305,436.704,441.103,445.502,449.901,452.052,455.949,460.348,464.656,469.055,473.454,477.853,482.252,486.651,491.05,495.449,499.848,504.247,508.538,512.937,517.336,521.735" svgx:width="0.55,0.27,0.27,0.55,0.38,0.32,0.27,0.27,0.55,0.55,0.27,0.32,0.55,0.32,0.49,0.27,0.55,0.55,0.32,0.55,0.55,0.55,0.55,0.27,0.49,0.55,0.55,0.55,0.55,0.55,0.55,0.55,0.55,0.55,0.55,0.55,0.55,0.55,0.55,0.55,0.6" style="fill:rgb(110,61,23);font-family:AdvOpti-R;font-size:7.97px;stroke:none;">https://doi.org/10.1107/S160057671901121X</text>
   <text y="771.081" x="538.47,545.071,551.671,558.272" svgx:width="0.55,0.55,0.55,0.55" style="fill:rgb(103,102,103);font-family:AdvOpti-B;font-size:11.96px;stroke:none;">1189</text>
   <text y="185.952" x="44.844,49.056,52.465,55.875,59.284,61.166,64.576,67.985,71.8185,74.21,78.059,81.8925,84.245,87.654,91.064,94.913,97.157,101.082,104.491,106.736,110.1513,112.476,116.325,120.174,124.023" svgx:width="0.6,0.49,0.49,0.49,0.27,0.49,0.49,0.55,0.55,0.55,0.55,0.55,0.49,0.49,0.55,0.32,0.55,0.49,0.32,0.49,0.55,0.55,0.55,0.55,0.55" style="fill:rgb(0,0,0);font-family:AdvOpti-R;font-size:6.97px;stroke:none;">Received 27 February 2019</text>
   <text y="195.93" x="44.844,49.418,52.828,56.237,59.647,63.496,65.378,68.787,72.6205,75.004,78.853,82.6865,85.038,89.613,93.461,96.871,100.799,103.483,105.3649,107.659,111.507,115.356,119.205" svgx:width="0.66,0.49,0.49,0.49,0.55,0.27,0.49,0.55,0.55,0.55,0.55,0.55,0.66,0.55,0.49,0.55,0.38,0.27,0.55,0.55,0.55,0.55,0.55" style="fill:rgb(0,0,0);font-family:AdvOpti-R;font-size:6.97px;stroke:none;">Accepted 11 August 2019</text>
   <text y="229.776" x="44.844,48.254,52.103,53.985,55.867,59.276,63.109500000000004,65.479,69.328,72.7433,75.06,80.429,82.6594,85.038,86.921,89.15140000000001,91.502,97.603,101.083,102.966,106.815,108.697,112.106,114.351,117.761,119.9914,122.342,126.916,130.765,133.449,135.331,137.576,140.986,142.977,144.859,148.268,152.1015,154.428,159.798,163.646,167.128,169.01,172.419,175.829" svgx:width="0.49,0.55,0.27,0.27,0.49,0.55,0.55,0.55,0.49,0.55,0.77,0.32,0.55,0.27,0.32,0.55,0.88,0.49,0.27,0.55,0.27,0.49,0.32,0.49,0.32,0.55,0.66,0.55,0.38,0.27,0.32,0.49,0.27,0.27,0.49,0.55,0.55,0.77,0.55,0.49,0.27,0.49,0.49,0.32" style="fill:rgb(0,0,0);font-family:AdvOpti-R;font-size:6.97px;stroke:none;">Edited by G. J. McIntyre, Australian Nuclear</text>
   <text y="239.754" x="44.844,48.254,51.663,53.545,56.955,60.804,64.213,67.6283,70.015,73.424,77.273,81.1065,83.45,87.299,90.709,94.118,97.967,101.816,105.665,107.547,111.396,114.805,118.22030000000001,120.64,126.371,128.616,132.026,135.435,139.284,141.166,143.851,147.26,149.142,151.024,154.873,158.848,161.07840000000002,163.384,166.794,170.643,174.052,177.461" svgx:width="0.49,0.49,0.27,0.49,0.55,0.49,0.49,0.55,0.49,0.55,0.55,0.55,0.55,0.49,0.49,0.55,0.55,0.55,0.27,0.55,0.49,0.49,0.55,0.82,0.32,0.49,0.49,0.55,0.27,0.38,0.49,0.27,0.27,0.55,0.55,0.32,0.55,0.49,0.55,0.49,0.49,0.38" style="fill:rgb(0,0,0);font-family:AdvOpti-R;font-size:6.97px;stroke:none;">Science and Technology Organisation, Lucas</text>
   <text y="249.732" x="44.844,50.213,53.623,55.505,58.915,62.763,64.646,67.33,69.5604,71.942,76.516,80.365,83.049,84.932,87.177,90.586,92.577,94.459" svgx:width="0.77,0.49,0.27,0.49,0.55,0.27,0.38,0.32,0.55,0.66,0.55,0.38,0.27,0.32,0.49,0.27,0.27,0.49" style="fill:rgb(0,0,0);font-family:AdvOpti-R;font-size:6.97px;stroke:none;">Heights, Australia</text>
   <text y="271.672" x="44.844,49.056,52.542,56.028,61.474,65.323,68.007,71.856,74.54" svgx:width="0.6,0.5,0.5,0.78,0.55,0.38,0.55,0.38,0.33" style="fill:rgb(110,61,23);font-family:AdvOpti-B;font-size:6.97px;stroke:none;">Keywords:</text>
   <text y="271.672" x="79.257,83.106,86.515,90.364,92.247,94.491,98.34,102.1735,104.541,108.39,112.239,117.608,121.457,124.951,127.1814,129.487,133.335,135.218,137.1,138.982,141.227,144.736,148.145,150.027,151.909,155.758,159.607" svgx:width="0.55,0.49,0.55,0.27,0.32,0.55,0.55,0.55,0.55,0.55,0.77,0.55,0.49,0.32,0.55,0.55,0.27,0.27,0.27,0.32,0.49,0.49,0.27,0.27,0.55,0.55,0.32" style="fill:rgb(0,0,0);font-family:AdvOpti-R;font-size:6.97px;stroke:none;">neutron powder diffraction;</text>
   <text y="281.593" x="44.844,48.693,54.425,61.321,66.69,70.1,75.469" svgx:width="0.55,0.82,0.99,0.77,0.49,0.77,0.32" style="fill:rgb(0,0,0);font-family:AdvOpti-R;font-size:6.97px;stroke:none;">POWGEN;</text>
   <text y="281.593" x="80.107,82.067,85.9005,88.271,90.956,92.916,94.876" svgx:width="0.28,0.55,0.55,0.38,0.28,0.28,0.55" style="fill:rgb(0,0,0);font-family:AdvOpti-I;font-size:6.97px;stroke:none;">in situ</text>
   <text y="281.593" x="98.759" svgx:width="0.27" style="fill:rgb(0,0,0);font-family:AdvOpti-R;font-size:6.97px;stroke:none;">/</text>
   <text y="281.593" x="100.63,104.479,108.328,111.814,114.136,117.622,121.471,125.32" svgx:width="0.55,0.55,0.5,0.33,0.5,0.55,0.55,0.55" style="fill:rgb(0,0,0);font-family:AdvOpti-I;font-size:6.97px;stroke:none;">operando</text>
   <text y="281.593" x="131.528,137.26,140.669,144.079,146.763,150.69,152.935,156.344,162.076,165.485,169.334,171.216,173.901" svgx:width="0.82,0.49,0.49,0.38,0.55,0.32,0.49,0.82,0.49,0.55,0.27,0.38,0.32" style="fill:rgb(0,0,0);font-family:AdvOpti-R;font-size:6.97px;stroke:none;">measurements.</text>
   <text y="82.374" x="206.249,215.048,228.151,244.092,256.541,264.414,276.864,282.1242,287.488,293.625,301.595,310.394,319.193,323.673,327.976,336.743,342.081,350.88,356.1402,361.469,369.439,374.734,380.043,388.842,393.321,399.458,408.257,413.565,421.536,429.506,438.305,446.275,452.412,460.382,465.609,470.088,478.888,487.655,492.992,501.791,510.59,523.039,531.838,539.809" svgx:width="0.55,0.82,1.0,0.78,0.5,0.78,0.33,0.55,0.38,0.5,0.55,0.55,0.28,0.27,0.55,0.55,0.55,0.33,0.55,0.5,0.55,0.33,0.55,0.28,0.38,0.55,0.33,0.5,0.5,0.55,0.5,0.38,0.5,0.33,0.28,0.55,0.55,0.55,0.55,0.55,0.78,0.55,0.5,0.38" style="fill:rgb(103,102,103);font-family:AdvOpti-B;font-size:15.94px;stroke:none;">POWGEN: rebuild of a third-generation powder</text>
   <text y="100.289" x="206.249,215.048,219.527,224.836,230.144,236.281,244.251,252.221,257.529,266.328,279.431,287.317,292.625,300.596,306.6532,312.034,320.005,325.2652,330.629,335.937,344.736,352.706,358.011,365.982,374.781,382.751,387.055,391.359,399.329,404.637,409.116,417.915,426.682,431.992,444.442,452.412,461.211,466.519,472.656,481.456,490.223,495.486,503.456,512.256,521.055,527.192,535.162" svgx:width="0.55,0.28,0.33,0.33,0.38,0.5,0.5,0.33,0.55,0.82,0.5,0.33,0.5,0.38,0.55,0.5,0.33,0.55,0.33,0.55,0.5,0.55,0.5,0.55,0.5,0.27,0.27,0.5,0.33,0.28,0.55,0.55,0.55,0.78,0.5,0.55,0.33,0.38,0.55,0.55,0.55,0.5,0.55,0.55,0.38,0.5,0.5" style="fill:rgb(103,102,103);font-family:AdvOpti-B;font-size:15.94px;stroke:none;">diffractometer at the Spallation Neutron Source</text>
   <text y="134.418" x="206.249,212.883,216.718,222.216,225.533,228.331,233.31099999999998,236.692,244.472,249.97,255.469" svgx:width="0.67,0.38,0.55,0.33,0.28,0.5,0.55,0.78,0.55,0.55,0.28" style="fill:rgb(110,61,23);font-family:AdvOpti-B;font-size:9.96px;stroke:none;">Ashfia Huq,</text>
   <text y="129.996" x="258.293" svgx:width="0.5" style="fill:rgb(110,61,23);font-family:AdvOpti-B;font-size:6.64px;stroke:none;">a</text>
   <text y="134.418" x="262.035,266.51700000000005,269.859,278.674,283.654,286.343,291.323,296.9,299.699,304.67900000000003,308.012,314.028,316.827,320.661,325.642,331.14,336.121,344.408" svgx:width="0.45,0.55,0.88,0.5,0.27,0.5,0.55,0.28,0.5,0.55,0.6,0.28,0.38,0.5,0.55,0.5,0.82,0.28" style="fill:rgb(110,61,23);font-family:AdvOpti-B;font-size:9.96px;stroke:none;">* Melanie Kirkham,</text>
   <text y="129.996" x="347.188" svgx:width="0.5" style="fill:rgb(110,61,23);font-family:AdvOpti-B;font-size:6.64px;stroke:none;">a</text>
   <text y="134.418" x="354.275,359.773,364.753,368.07,373.05,376.83480000000003,380.239,385.22,388.0088,391.351,396.849,401.83,405.146,410.126,413.961,417.882,423.381,428.879" svgx:width="0.55,0.5,0.33,0.5,0.38,0.55,0.5,0.28,0.55,0.55,0.5,0.33,0.5,0.38,0.38,0.55,0.55,0.28" style="fill:rgb(110,61,23);font-family:AdvOpti-B;font-size:9.96px;stroke:none;">Peter F. Peterson,</text>
   <text y="129.996" x="431.717" svgx:width="0.5" style="fill:rgb(110,61,23);font-family:AdvOpti-B;font-size:6.64px;stroke:none;">a</text>
   <text y="134.418" x="438.747,442.064,447.044,450.879,456.377,461.855,465.279,470.777,473.56579999999997,476.901,484.681,490.18,495.678,500.658,505.639,509.557" svgx:width="0.33,0.5,0.38,0.55,0.55,0.55,0.55,0.28,0.55,0.78,0.55,0.55,0.5,0.5,0.38,0.28" style="fill:rgb(110,61,23);font-family:AdvOpti-B;font-size:9.96px;stroke:none;">Jason P. Hodges,</text>
   <text y="129.996" x="512.391" svgx:width="0.55" style="fill:rgb(110,61,23);font-family:AdvOpti-B;font-size:6.64px;stroke:none;">b</text>
   <text y="134.418" x="519.818,525.317,530.297,538.485,543.466,546.237,551.217,554.571,559.551" svgx:width="0.55,0.5,0.82,0.5,0.27,0.5,0.55,0.5,0.28" style="fill:rgb(110,61,23);font-family:AdvOpti-B;font-size:9.96px;stroke:none;">Pamela S.</text>
   <text y="147.344" x="206.248,216.21,221.708,224.507,227.823,231.14,233.938,238.919,241.608,247.106" svgx:width="1.0,0.55,0.28,0.33,0.33,0.28,0.5,0.27,0.55,0.28" style="fill:rgb(110,61,23);font-family:AdvOpti-B;font-size:9.96px;stroke:none;">Whitfield,</text>
   <text y="142.922" x="250.016" svgx:width="0.5" style="fill:rgb(110,61,23);font-family:AdvOpti-B;font-size:6.64px;stroke:none;">c</text>
   <text y="147.344" x="256.876,262.892,267.873,271.189,276.688,281.668,285.503,288.396,293.894,298.874,302.059,307.557,312.538,317.518,322.498" svgx:width="0.6,0.5,0.33,0.55,0.5,0.38,0.28,0.55,0.5,0.55,0.55,0.5,0.5,0.5,0.28" style="fill:rgb(110,61,23);font-family:AdvOpti-B;font-size:9.96px;stroke:none;">Katharine Page,</text>
   <text y="142.922" x="325.304" svgx:width="0.5" style="fill:rgb(110,61,23);font-family:AdvOpti-B;font-size:6.64px;stroke:none;">a</text>
   <text y="147.344" x="332.221,337.719,343.218,348.716,356.905,361.885,365.6698,368.958,376.738" svgx:width="0.55,0.55,0.55,0.82,0.5,0.38,0.55,0.78,0.55" style="fill:rgb(110,61,23);font-family:AdvOpti-B;font-size:9.96px;stroke:none;">Thomas Hu</text>
   <text y="147.344" code="2" x="377.235,378.71" svgx:width="0.32,0.32" style="fill:rgb(110,61,23);font-family:AdvMT_RM;font-size:9.96px;stroke:none;">??</text>
   <text y="147.344" x="382.621,387.602,390.291,395.271" svgx:width="0.5,0.27,0.5,0.28" style="fill:rgb(110,61,23);font-family:AdvOpti-B;font-size:9.96px;stroke:none;">gle,</text>
   <text y="142.922" x="398.098" svgx:width="0.55" style="fill:rgb(110,61,23);font-family:AdvOpti-B;font-size:6.64px;stroke:none;">b</text>
   <text y="147.344" x="405.355,410.335,414.17,416.968,421.94800000000004,425.14,431.156,433.9448,437.159,440.475,445.456,450.436,454.271,458.105,463.604,469.189" svgx:width="0.5,0.38,0.28,0.5,0.55,0.6,0.28,0.55,0.33,0.5,0.5,0.38,0.38,0.55,0.55,0.28" style="fill:rgb(110,61,23);font-family:AdvOpti-B;font-size:9.96px;stroke:none;">Erik B. Iverson,</text>
   <text y="142.922" x="471.969" svgx:width="0.55" style="fill:rgb(110,61,23);font-family:AdvOpti-B;font-size:6.64px;stroke:none;">b</text>
   <text y="147.344" x="479.226,485.86,491.359,496.857,500.769,505.749,508.876,514.374,519.42,523.255,526.054,531.034,536.014" svgx:width="0.67,0.55,0.55,0.38,0.5,0.55,0.55,0.5,0.38,0.28,0.5,0.5,0.28" style="fill:rgb(110,61,23);font-family:AdvOpti-B;font-size:9.96px;stroke:none;">Andre Parizzi</text>
   <text y="142.922" x="538.867" svgx:width="0.5" style="fill:rgb(110,61,23);font-family:AdvOpti-B;font-size:6.64px;stroke:none;">a</text>
   <text y="147.344" x="545.727,550.707,556.206" svgx:width="0.5,0.55,0.55" style="fill:rgb(110,61,23);font-family:AdvOpti-B;font-size:9.96px;stroke:none;">and</text>
   <text y="160.327" x="206.248,214.028,219.008,224.506,228.341,233.321,238.301,241.681,247.698,252.678,258.176,263.675,266.473,271.454" svgx:width="0.78,0.5,0.55,0.38,0.5,0.5,0.55,0.6,0.5,0.55,0.55,0.28,0.5,0.55" style="fill:rgb(110,61,23);font-family:AdvOpti-B;font-size:9.96px;stroke:none;">George Rennich</text>
   <text y="155.905" x="277.002" svgx:width="0.55" style="fill:rgb(110,61,23);font-family:AdvOpti-B;font-size:6.64px;stroke:none;">b</text>
   <text y="182.891" x="206.249" svgx:width="0.5" style="fill:rgb(0,0,0);font-family:AdvOpti-B;font-size:4.65px;stroke:none;">a</text>
   <text y="185.952" x="208.857,214.226,217.636,221.484,223.367,225.612,229.46,233.2935,235.558,238.968,242.377,245.787,247.669,249.551,252.961,255.206,257.088,260.937,264.3523,266.624,271.993,273.875,277.285,279.167,281.851,283.733,287.582,291.431,293.66139999999996,295.989,301.721,305.13,308.5453,310.786,314.998,316.88,320.729,324.138,327.5533,329.778,335.147,338.556,340.439,342.321,346.17,350.019,353.428,355.30989999999997,357.557,360.966,364.376,368.224,372.073,374.394,377.804,379.686,383.535,385.78,389.189,391.4194,393.669,399.401,402.81,406.2253,408.466,412.678,414.56,418.409,421.818,425.228,427.4584,429.725,433.574,438.9409,441.177,445.026,448.874,452.723,456.572,460.421,462.666,466.515,470.363,474.212,478.14,480.37039999999996,482.562,487.931,491.341,495.915" svgx:width="0.77,0.49,0.55,0.27,0.32,0.55,0.55,0.55,0.49,0.49,0.49,0.27,0.27,0.49,0.32,0.27,0.55,0.49,0.55,0.77,0.27,0.49,0.27,0.38,0.27,0.55,0.55,0.32,0.55,0.82,0.49,0.49,0.55,0.6,0.27,0.55,0.49,0.49,0.55,0.77,0.49,0.27,0.27,0.55,0.55,0.49,0.27,0.55,0.49,0.49,0.55,0.55,0.32,0.49,0.27,0.55,0.32,0.49,0.32,0.55,0.82,0.49,0.49,0.55,0.6,0.27,0.55,0.49,0.49,0.32,0.55,0.55,0.77,0.55,0.55,0.55,0.55,0.55,0.55,0.32,0.55,0.55,0.55,0.55,0.32,0.55,0.77,0.49,0.66,0.32" style="fill:rgb(0,0,0);font-family:AdvOpti-R;font-size:6.97px;stroke:none;">Neutron Scattering Division, Oak Ridge National Laboratory, Oak Ridge, TN 37831-6475, USA,</text>
   <text y="182.891" x="500.429" svgx:width="0.55" style="fill:rgb(0,0,0);font-family:AdvOpti-B;font-size:4.65px;stroke:none;">b</text>
   <text y="185.952" x="503.32,508.69,512.099,515.948,517.83,520.075,523.924,527.7574999999999,530.022,533.87,537.28,540.689,544.538,548.387,552.236,554.118,557.967,561.485" svgx:width="0.77,0.49,0.55,0.27,0.32,0.55,0.55,0.55,0.55,0.49,0.49,0.55,0.55,0.55,0.27,0.55,0.49,0.49" style="fill:rgb(0,0,0);font-family:AdvOpti-R;font-size:6.97px;stroke:none;">Neutron Technology</text>
   <text y="195.93" x="206.249,211.618,213.5,216.91,218.792,221.476,223.359,227.207,231.056,233.28640000000001,235.672,241.403,244.813,248.2283,250.582,254.794,256.676,260.525,263.934,267.3493,269.744,275.113,278.523,280.405,282.287,286.136,289.985,293.394,295.2759,297.636,301.045,304.455,308.304,312.152,314.473,317.883,319.765,323.614,325.859,329.268,331.49839999999995,333.861,339.593,343.003,346.4183,348.772,352.983,354.866,358.715,362.208,365.617,367.8474,370.201,374.05,379.4169,381.766,385.615,389.464,393.313,397.162,401.011,403.256,407.104,410.953,414.802,418.73,420.9604,423.265,428.635,432.044,436.702,438.9324,441.238,444.647,448.496" svgx:width="0.77,0.27,0.49,0.27,0.38,0.27,0.55,0.55,0.32,0.55,0.82,0.49,0.49,0.55,0.6,0.27,0.55,0.49,0.49,0.55,0.77,0.49,0.27,0.27,0.55,0.55,0.49,0.27,0.55,0.49,0.49,0.55,0.55,0.32,0.49,0.27,0.55,0.32,0.49,0.32,0.55,0.82,0.49,0.49,0.55,0.6,0.27,0.55,0.49,0.49,0.32,0.55,0.55,0.77,0.55,0.55,0.55,0.55,0.55,0.55,0.32,0.55,0.55,0.55,0.55,0.32,0.55,0.77,0.49,0.66,0.32,0.55,0.49,0.55,0.55" style="fill:rgb(0,0,0);font-family:AdvOpti-R;font-size:6.97px;stroke:none;">Division, Oak Ridge National Laboratory, Oak Ridge, TN 37831-6475, USA, and</text>
   <text y="192.812" x="454.735" svgx:width="0.5" style="fill:rgb(0,0,0);font-family:AdvOpti-B;font-size:4.65px;stroke:none;">c</text>
   <text y="195.93" x="457.342,460.752,464.161,467.571,470.98,472.863,475.547,479.396,482.0446,484.44,487.85,489.732,491.977,495.826,499.235,501.118,504.966,507.211,510.744,512.6259,514.94,518.349,522.198,524.08,527.929,529.811,531.693,535.542,539.391,542.075,544.3054000000001,546.742,550.591,554.0,556.245" svgx:width="0.49,0.49,0.49,0.49,0.27,0.38,0.55,0.38,0.55,0.49,0.27,0.32,0.55,0.49,0.27,0.55,0.32,0.49,0.27,0.55,0.49,0.55,0.27,0.55,0.27,0.27,0.55,0.55,0.38,0.32,0.55,0.55,0.49,0.32,0.49" style="fill:rgb(0,0,0);font-family:AdvOpti-R;font-size:6.97px;stroke:none;">Excelsus Structural Solutions, Park</text>
   <text y="205.908" x="206.249,208.132,211.98,215.829,219.678,223.088,226.497,229.907,232.151,235.561,237.7914,240.207,244.056,247.905,251.753,255.58649999999997,257.952,262.526,264.408,266.29,268.173,270.055,273.464,276.874,280.723,282.9534,285.389,288.799,294.168,296.05,297.933,301.342,304.752,306.996,308.879,312.288,316.137,319.986,322.21639999999996,324.676,327.723,332.297,336.146,338.39,340.635,344.045,346.729,350.578,354.427,358.276,362.124,365.534,369.383,372.792,376.2073,378.645,382.055,384.3,390.031,393.441,395.323,397.205,399.43539999999996,401.832,405.241,407.926,411.774,413.657,415.539,418.948,421.193,425.042,428.986,432.835,438.35,441.76,447.491,450.901,452.783,454.665,456.91,460.32,464.169" svgx:width="0.27,0.55,0.55,0.55,0.49,0.49,0.49,0.32,0.49,0.32,0.55,0.55,0.55,0.55,0.55,0.55,0.66,0.27,0.27,0.27,0.27,0.49,0.49,0.55,0.32,0.55,0.49,0.77,0.27,0.27,0.49,0.49,0.32,0.27,0.49,0.55,0.55,0.32,0.55,0.44,0.66,0.55,0.32,0.32,0.49,0.38,0.55,0.55,0.55,0.55,0.49,0.55,0.49,0.49,0.55,0.49,0.32,0.82,0.49,0.27,0.27,0.32,0.55,0.49,0.38,0.55,0.27,0.27,0.49,0.32,0.55,0.55,0.55,0.79,0.49,0.82,0.49,0.27,0.27,0.32,0.49,0.55,0.82" style="fill:rgb(0,0,0);font-family:AdvOpti-R;font-size:6.97px;stroke:none;">Innovaare, 5234 Villigen, Switzerland. *Correspondence e-mail: ashfia.huq@gmail.com</text>
   <text y="232.27" x="206.249,212.145,217.325,222.00619999999998,227.679,232.858,237.6,242.779,245.887,249.512,254.692,259.8712,265.605,270.784,275.964,282.598,287.885,292.547,296.1326,301.832,307.012,309.601,312.708,315.816,319.441,324.224,328.368,331.475,336.655,344.325,348.987,352.094,356.878,360.4636,366.175,371.873,379.271,388.505,396.175,402.809,410.07980000000003,415.838,420.5,423.5876,429.274,432.381,437.561,442.24219999999997,447.925,453.105,458.284,462.946,465.535,468.22,472.882,475.989,478.578,483.758,488.93719999999996,494.695,501.957,506.618,511.798,514.991,518.617,523.796" svgx:width="0.63,0.52,0.47,0.55,0.52,0.47,0.52,0.31,0.36,0.52,0.52,0.55,0.52,0.52,0.67,0.52,0.47,0.36,0.55,0.52,0.26,0.31,0.31,0.36,0.47,0.42,0.31,0.52,0.77,0.47,0.31,0.47,0.36,0.55,0.57,0.77,0.93,0.77,0.67,0.73,0.55,0.47,0.31,0.55,0.31,0.52,0.47,0.55,0.52,0.52,0.47,0.26,0.26,0.47,0.31,0.26,0.52,0.52,0.55,0.73,0.47,0.52,0.31,0.36,0.52,0.52" style="fill:rgb(0,0,0);font-family:Advt93-r;font-size:9.96px;stroke:none;">The neutron powder diffractometer POWGEN at the Spallation Neutron</text>
   <text y="244.232" x="206.249,211.429,216.608,221.788,225.413,229.557,234.23819999999998,238.11,243.289,247.951,251.5366,255.401,259.027,263.688,267.832,272.493,277.794,280.902,283.491,288.1722,291.966,295.592,300.253,304.915,309.576,314.238,319.008,323.67,328.331,332.993,337.654,341.2396,345.143,350.323,355.502,360.682,365.439,369.065,373.726,378.906,384.085,388.76619999999997,392.651,397.313,402.49219999999997,406.314,411.494,416.673,421.335,424.96,429.622,434.802,439.4832,443.39,450.025,455.204,457.793,461.937,467.1162,470.999,474.624,479.286,482.911,488.091,490.68,493.788,498.449,503.6282,507.507,510.097,515.2762,519.129,523.79" svgx:width="0.52,0.52,0.52,0.36,0.42,0.47,0.55,0.52,0.47,0.36,0.55,0.36,0.47,0.42,0.47,0.52,0.31,0.26,0.47,0.55,0.36,0.47,0.47,0.47,0.47,0.47,0.47,0.47,0.47,0.47,0.36,0.55,0.52,0.52,0.52,0.47,0.36,0.47,0.52,0.52,0.47,0.55,0.47,0.52,0.55,0.52,0.52,0.47,0.36,0.47,0.52,0.47,0.55,0.67,0.52,0.26,0.42,0.52,0.55,0.36,0.47,0.36,0.52,0.26,0.31,0.47,0.52,0.55,0.26,0.52,0.55,0.47,0.52" style="fill:rgb(0,0,0);font-family:Advt93-r;font-size:9.96px;stroke:none;">Source has recently (2017–2018) undergone an upgrade which resulted in an</text>
   <text y="256.195" x="206.249,208.838,214.018,218.162,221.787,226.448,231.11,234.735,239.526,244.70520000000002,249.277,254.457,259.198,262.305,266.967,271.11,274.218,279.397,282.9826,287.713,291.857,297.036,304.707,309.886,312.475,317.137,324.807,329.609,334.789,337.8766,342.535,347.196,349.786,354.965,360.145,364.8262,369.463,376.097,378.686,381.794,386.97319999999996,391.629,396.3102,400.927,404.035,409.214,411.803,414.3926,419.011,424.191,428.932,433.594,437.219,442.399,447.06,452.24,454.8296,459.489,464.669,467.7566,472.415,475.522,480.701,485.3822,489.989,493.614,496.791,500.417,505.596,509.74,512.847,518.027,521.652,526.314" svgx:width="0.26,0.52,0.42,0.36,0.47,0.47,0.36,0.47,0.52,0.55,0.52,0.47,0.31,0.47,0.42,0.31,0.52,0.36,0.55,0.42,0.52,0.77,0.52,0.26,0.47,0.77,0.47,0.52,0.31,0.55,0.47,0.26,0.52,0.52,0.47,0.55,0.67,0.26,0.31,0.52,0.55,0.47,0.55,0.31,0.52,0.26,0.26,0.55,0.52,0.47,0.47,0.36,0.52,0.47,0.52,0.26,0.55,0.52,0.31,0.55,0.31,0.52,0.47,0.55,0.36,0.31,0.36,0.52,0.42,0.31,0.52,0.36,0.47,0.26" style="fill:rgb(0,0,0);font-family:Advt93-r;font-size:9.96px;stroke:none;">increased detector complement along with a full overhaul of the structural</text>
   <text y="268.157" x="206.249,211.429,216.09,219.716,222.305,226.967,232.14620000000002,234.425,239.604,242.69160000000002,245.026,248.133,253.313,257.9942,260.219,262.808,267.988,271.613,274.721,278.346,283.631,291.302,295.963,301.143,304.25,306.5408,308.803,314.756,319.935,324.6162,326.888,331.032,336.211,339.837,343.462,348.124,353.303,356.3906,358.748,361.337,366.517,370.142,373.25,376.875,382.055,389.725,394.52,399.7,402.7876,405.065,410.244,414.906,418.4916,420.769,425.4502,427.685,431.31,436.49,439.079,441.669,446.84819999999996,449.17,453.832,459.012,463.673,468.853,471.442,476.212,479.7976,482.051,486.195,491.374,496.036,500.698,504.445,509.106,513.768,518.4492,520.716,525.895" svgx:width="0.52,0.47,0.36,0.26,0.47,0.52,0.55,0.52,0.31,0.55,0.31,0.52,0.47,0.55,0.26,0.52,0.36,0.31,0.36,0.52,0.77,0.47,0.52,0.31,0.23,0.55,0.63,0.52,0.47,0.55,0.42,0.52,0.36,0.36,0.47,0.52,0.31,0.55,0.26,0.52,0.36,0.31,0.36,0.52,0.77,0.47,0.52,0.31,0.55,0.52,0.47,0.36,0.55,0.47,0.55,0.36,0.52,0.26,0.26,0.52,0.55,0.47,0.52,0.47,0.52,0.26,0.47,0.36,0.55,0.42,0.52,0.47,0.47,0.36,0.47,0.47,0.47,0.55,0.52,0.31" style="fill:rgb(0,0,0);font-family:Advt93-r;font-size:9.96px;stroke:none;">design of the instrument. The current instrument has a solid angular coverage of</text>
   <text y="280.119" x="206.249,210.911,213.191,217.8722,220.365,223.991,227.098,231.76,235.385,240.15,245.33,247.919,252.581,257.76,261.3456,264.527,269.188,274.368,279.5472,282.668,290.338,295.085,297.674,302.853,305.961,310.622,313.212,318.391,321.9766,325.187,328.294,333.474,338.1552,341.231,346.41,350.036,352.625,357.387,359.977,365.157,369.819,372.40860000000004,375.529,378.637,383.816,386.405,390.031,395.314,398.421,403.083,407.745,412.924,417.586,421.211,425.873,429.102,431.691,436.871,442.05019999999996,445.146,449.289,454.469,459.648,463.792,468.559,473.738,476.846,479.1368,482.222,487.401,491.027,496.206,500.986,503.576,508.755,511.345,516.524,521.2052,524.343" svgx:width="0.47,0.23,0.47,0.55,0.36,0.31,0.47,0.36,0.47,0.52,0.26,0.47,0.52,0.36,0.55,0.47,0.52,0.52,0.55,0.77,0.47,0.26,0.52,0.31,0.47,0.26,0.52,0.36,0.55,0.31,0.52,0.47,0.55,0.52,0.36,0.26,0.47,0.26,0.52,0.47,0.26,0.55,0.31,0.52,0.26,0.36,0.52,0.31,0.47,0.47,0.52,0.47,0.36,0.47,0.31,0.26,0.52,0.52,0.55,0.42,0.52,0.52,0.42,0.47,0.52,0.31,0.23,0.55,0.52,0.36,0.52,0.47,0.26,0.52,0.26,0.52,0.47,0.55,0.47" style="fill:rgb(0,0,0);font-family:Advt93-r;font-size:9.96px;stroke:none;">1.2 steradians and maintains the original third-generation concept, providing a</text>
   <text y="292.081" x="206.249,209.875,212.464,217.643,222.305,224.894,229.556,232.663,237.843,240.432,244.058,247.165,252.507,257.168,260.794,265.455,273.1242,276.941,282.121,286.783,289.89,294.5712,298.371,301.997,306.658,309.7456,313.564,318.744,323.406,328.067,331.6526,335.504,340.1852,343.895,350.529,353.118,358.298" svgx:width="0.36,0.26,0.52,0.47,0.26,0.47,0.31,0.52,0.26,0.36,0.31,0.52,0.47,0.36,0.47,0.77,0.55,0.52,0.47,0.31,0.47,0.55,0.36,0.47,0.31,0.55,0.52,0.47,0.47,0.36,0.55,0.47,0.55,0.67,0.26,0.52,0.47" style="fill:rgb(0,0,0);font-family:Advt93-r;font-size:9.96px;stroke:none;">single-histogram data set over a wide</text>
   <text y="292.081" x="366.804" svgx:width="0.52" style="fill:rgb(0,0,0);font-family:Advt93-i;font-size:9.96px;stroke:none;">d</text>
   <text y="292.081" x="371.963,375.07,378.765,383.945,388.606,392.75,395.339,400.519,405.2002,408.981,412.607,417.268,422.53,427.192,431.8732,435.626,440.288,445.468,450.6472,454.448,459.628,462.217,466.878,472.05719999999997,475.877,479.502,484.164,487.789,492.969,495.558,500.738,503.845,506.434,511.761,516.9402,520.662,523.837" svgx:width="0.31,0.36,0.52,0.47,0.42,0.26,0.52,0.47,0.55,0.36,0.47,0.52,0.47,0.47,0.55,0.47,0.52,0.52,0.55,0.52,0.26,0.47,0.52,0.55,0.36,0.47,0.36,0.52,0.26,0.52,0.31,0.26,0.52,0.52,0.55,0.31,0.52" style="fill:rgb(0,0,0);font-family:Advt93-r;font-size:9.96px;stroke:none;">-spacing range and high resolution to</text>
   <text y="304.044" x="206.248,210.91,215.053,219.197,223.858,227.484,231.0696,236.124,238.714,243.375,247.001,251.662,256.3432,261.352,266.531,271.711,274.3,277.3876,282.441,286.584,291.246,293.835,296.424,299.561,301.85179999999997,306.818,311.997,316.659,319.766,324.428,327.113,329.702,334.363,339.5422,344.516,348.142,351.249,354.875,360.054,364.198,367.305,372.485,376.11,380.911,383.5006,388.451,392.076,396.738,401.917,407.097,411.864,419.535,424.196,429.376,432.483,436.0686,441.118,445.779,450.959" svgx:width="0.47,0.42,0.42,0.47,0.36,0.36,0.55,0.26,0.47,0.36,0.47,0.47,0.55,0.52,0.52,0.26,0.31,0.55,0.42,0.47,0.26,0.26,0.36,0.23,0.55,0.52,0.47,0.31,0.47,0.26,0.26,0.47,0.52,0.55,0.36,0.31,0.36,0.52,0.42,0.31,0.52,0.36,0.47,0.26,0.55,0.36,0.47,0.52,0.52,0.47,0.77,0.47,0.52,0.31,0.36,0.55,0.47,0.52,0.52" style="fill:rgb(0,0,0);font-family:Advt93-r;font-size:9.96px;stroke:none;">access large unit cells, detailed structural reﬁnements and</text>
   <text y="304.044" x="461.141,463.731,468.9102,473.897,477.523,480.114,482.704" svgx:width="0.26,0.52,0.55,0.36,0.26,0.26,0.52" style="fill:rgb(0,0,0);font-family:Advt93-i;font-size:9.96px;stroke:none;">in situ</text>
   <text y="304.044" x="487.956" svgx:width="0.26" style="fill:rgb(0,0,0);font-family:Advt93-r;font-size:9.96px;stroke:none;">/</text>
   <text y="304.044" x="490.565,495.744,500.924,505.067,508.693,513.354,518.534,523.842" svgx:width="0.52,0.52,0.42,0.36,0.47,0.52,0.52,0.52" style="fill:rgb(0,0,0);font-family:Advt93-i;font-size:9.96px;stroke:none;">operando</text>
   <text y="316.006" x="206.248,213.918,218.58,223.242,226.867,232.047,235.672,240.334,248.143,252.805,257.984,261.092,264.243" svgx:width="0.77,0.47,0.47,0.36,0.52,0.36,0.47,0.77,0.47,0.52,0.31,0.36,0.23" style="fill:rgb(0,0,0);font-family:Advt93-r;font-size:9.96px;stroke:none;">measurements.</text>
   <text y="372.925" x="206.249,212.025,214.9538,218.438,221.923,227.698,231.183,235.211,240.987,246.762,252.538,257.77,261.254,264.195,269.97" svgx:width="0.55,0.28,0.55,0.33,0.55,0.33,0.38,0.55,0.55,0.55,0.5,0.33,0.28,0.55,0.55" style="fill:rgb(103,102,103);font-family:AdvOpti-B;font-size:10.46px;stroke:none;">1. Introduction</text>
   <text y="388.856" x="206.249,211.408,215.033,219.695,224.957,227.546,230.654,233.243,238.423,243.602,248.264,250.8536,254.209,257.316,259.905,267.576,272.35,275.457,280.637,283.744,286.851,292.031,294.62,299.282,304.461,307.5486,310.955,314.58,320.806,328.476,334.174,337.7596,341.116,346.296,348.885,351.992,355.1,358.725,363.387,367.53,370.638,375.817,383.633,388.294,391.402,396.063,399.689,403.2746,406.649,411.828,415.454,420.1352,423.486,428.665,433.327,436.434,441.096,445.239,448.347,453.645" svgx:width="0.63,0.36,0.47,0.52,0.26,0.31,0.26,0.52,0.52,0.47,0.26,0.55,0.31,0.26,0.77,0.47,0.31,0.52,0.31,0.31,0.52,0.26,0.47,0.52,0.31,0.55,0.36,0.63,0.77,0.57,0.36,0.55,0.52,0.26,0.31,0.31,0.36,0.47,0.42,0.31,0.52,0.77,0.47,0.31,0.47,0.36,0.36,0.55,0.52,0.36,0.47,0.55,0.52,0.47,0.31,0.47,0.42,0.31,0.52,0.36" style="fill:rgb(0,0,0);font-family:Advt93-r;font-size:9.96px;stroke:none;">Traditional time-of-ﬂight (TOF) diffractometers use detector</text>
   <text y="400.819" x="206.249,208.838,214.018,218.68,223.859,229.039,232.664,235.25359999999998,237.542,242.204,245.29160000000002,247.576,252.25719999999998,254.437,257.544,262.206,268.8792,271.104,274.73,279.391,281.981,286.642,290.889,293.997,298.658,303.8372,306.082,310.744,315.924,320.585,323.174,327.836,331.4216,333.748,338.409,340.999,346.178,351.358,356.0392,358.295,364.929,367.593,370.7,375.87919999999997,378.081,382.7622,384.997,390.176,393.802,398.982,403.643,408.82219999999995,411.132,417.766,422.428,427.089,431.751,434.34,439.002,444.297,448.958,452.066" svgx:width="0.26,0.52,0.47,0.52,0.52,0.36,0.26,0.55,0.47,0.31,0.55,0.47,0.55,0.31,0.47,0.67,0.55,0.36,0.47,0.26,0.47,0.42,0.31,0.47,0.52,0.55,0.47,0.52,0.47,0.26,0.47,0.36,0.55,0.47,0.26,0.52,0.52,0.47,0.55,0.67,0.26,0.31,0.52,0.55,0.47,0.55,0.52,0.36,0.52,0.47,0.52,0.55,0.67,0.47,0.47,0.47,0.26,0.47,0.52,0.47,0.31,0.52" style="fill:rgb(0,0,0);font-family:Advt93-r;font-size:9.96px;stroke:none;">‘banks’ at a few selected angles along with a broad wavelength</text>
   <text y="412.781" x="206.249,209.875,214.536,219.716,224.377,229.0582,232.838,235.945,241.1242,244.912,250.092,253.717,258.897,264.187,269.367,273.51,278.1912,281.989,286.67019999999997,290.379,292.968,295.558,303.304,305.893,309.0,313.662,318.84119999999996,322.635,327.815,332.995,340.665,345.844,350.641,354.2266,358.012,363.191,366.2786,370.088,375.267,379.929,383.036,387.7172,391.517,395.143,399.804,402.912,406.4976,410.396,415.575,418.6626,422.471,425.061,430.24,433.348,438.009,443.189,446.814,449.404,452.511" svgx:width="0.36,0.47,0.52,0.47,0.47,0.55,0.31,0.52,0.55,0.52,0.36,0.52,0.52,0.52,0.42,0.47,0.55,0.47,0.55,0.26,0.26,0.77,0.26,0.31,0.47,0.52,0.55,0.52,0.52,0.77,0.52,0.47,0.36,0.55,0.52,0.31,0.55,0.52,0.47,0.31,0.47,0.55,0.36,0.47,0.31,0.36,0.55,0.52,0.31,0.55,0.26,0.52,0.31,0.47,0.52,0.36,0.26,0.31,0.47" style="fill:rgb(0,0,0);font-family:Advt93-r;font-size:9.96px;stroke:none;">range to produce a limited number of data sets of intensity</text>
   <text y="424.743" x="206.249,210.911,215.572,219.198,222.823,228.003,231.58859999999999,234.538,241.172,245.834,250.495,255.157,257.746,262.408,267.703,272.365,275.472,280.65119999999996,283.52,288.181,291.2686,294.121,297.228,302.408,307.16,310.786,315.4672,318.272,321.379,326.041,332.7142,335.563,339.188,343.332,347.993,351.101,354.208,358.975,362.601,365.19,370.37,375.0512,377.909,382.571,387.751,392.412,395.001,399.663,402.853,405.1438,407.955,413.908,419.087,423.7682,426.607,431.269,436.448,441.11,446.289,448.879,453.649" svgx:width="0.47,0.47,0.36,0.36,0.52,0.36,0.55,0.67,0.47,0.47,0.47,0.26,0.47,0.52,0.47,0.31,0.52,0.55,0.47,0.31,0.55,0.31,0.52,0.47,0.36,0.47,0.55,0.31,0.47,0.67,0.55,0.36,0.42,0.47,0.31,0.31,0.47,0.36,0.26,0.52,0.47,0.55,0.47,0.52,0.47,0.26,0.47,0.36,0.23,0.55,0.63,0.52,0.47,0.55,0.47,0.52,0.47,0.52,0.26,0.47,0.36" style="fill:rgb(0,0,0);font-family:Advt93-r;font-size:9.96px;stroke:none;">versus wavelength at these few scattering angles. The angular</text>
   <text y="436.705" x="206.249,209.875,214.536,219.716,224.377,229.0582,231.533,236.713,239.8006,242.248,245.356,250.535,255.288,258.913,263.5942,266.002,268.592,273.771,278.433,283.612,288.906,292.531,295.1206,297.522,300.112,303.6976,306.196,309.821,314.483,317.072,321.734,325.981,329.088,333.75,338.9292,341.401,345.027,350.20619999999997,352.626,355.733,360.913,365.665,368.75260000000003,371.165,374.272,379.452,384.1332,386.642,391.821,396.483,401.144,406.3232,408.809,415.443,418.032,423.212,426.319,431.499,435.0846,437.608,440.715,444.41,449.59" svgx:width="0.36,0.47,0.52,0.47,0.47,0.55,0.52,0.31,0.55,0.31,0.52,0.47,0.36,0.47,0.55,0.26,0.52,0.47,0.52,0.52,0.36,0.26,0.55,0.26,0.36,0.55,0.36,0.47,0.26,0.47,0.42,0.31,0.47,0.52,0.55,0.36,0.52,0.55,0.31,0.52,0.47,0.31,0.55,0.31,0.52,0.47,0.55,0.52,0.47,0.47,0.52,0.55,0.67,0.26,0.52,0.31,0.52,0.36,0.55,0.31,0.36,0.52,0.77" style="fill:rgb(0,0,0);font-family:Advt93-r;font-size:9.96px;stroke:none;">range of these ‘banks’ is selected so that the peak widths from</text>
   <text y="448.667" x="206.249,209.356,214.536,219.2172,224.39,228.534,233.713,241.384,246.563,249.152,254.332,259.142,264.3212,269.46,273.086,277.229,281.989,285.096,288.203,292.865,296.49,299.08,304.259,308.9402,314.131,318.793,324.052,328.714,331.303,335.964,339.5496,344.8,349.462,353.087,357.7682,362.941,366.049,371.228,375.9092,381.139,384.765,389.426,397.097,401.492,403.7828,408.975,412.601,417.262,420.888,426.067,428.656,431.764,434.353,439.533,444.2142,449.452,452.041" svgx:width="0.31,0.52,0.47,0.55,0.42,0.52,0.77,0.52,0.26,0.52,0.47,0.52,0.55,0.36,0.42,0.47,0.31,0.31,0.47,0.36,0.26,0.52,0.47,0.55,0.47,0.52,0.47,0.26,0.47,0.36,0.55,0.47,0.36,0.47,0.55,0.31,0.52,0.47,0.55,0.36,0.47,0.77,0.47,0.23,0.55,0.36,0.47,0.36,0.52,0.26,0.31,0.26,0.52,0.47,0.55,0.26,0.52" style="fill:rgb(0,0,0);font-family:Advt93-r;font-size:9.96px;stroke:none;">the combined scattering angles are the same, resulting in</text>
   <text y="460.573" x="206.249,210.393,215.572,220.752,224.377,227.485,232.146,237.326,240.4136,243.665,247.29,251.952,255.577,260.757,263.346,268.526,271.633,274.223,279.549,284.72819999999996,287.826,293.005,297.667,300.774,305.4552,308.632,312.257,316.919,320.026,323.201,325.4918,328.587,333.249,335.838,341.017,345.679,348.268,351.3556,354.551,361.185,363.774,366.966,372.1452,375.243,377.833,380.422,388.168,390.757,393.865,398.526" svgx:width="0.42,0.52,0.52,0.36,0.31,0.47,0.52,0.31,0.55,0.36,0.47,0.36,0.52,0.26,0.52,0.31,0.26,0.52,0.52,0.55,0.52,0.47,0.31,0.47,0.55,0.36,0.47,0.31,0.36,0.23,0.55,0.47,0.26,0.52,0.47,0.26,0.31,0.55,0.67,0.26,0.31,0.52,0.55,0.26,0.26,0.77,0.26,0.31,0.47,0.52" style="fill:rgb(0,0,0);font-family:Advt93-r;font-size:9.96px;stroke:none;">constant resolution data sets, albeit with limited</text>
   <text y="460.573" x="406.886" svgx:width="0.52" style="fill:rgb(0,0,0);font-family:Advt93-i;font-size:9.96px;stroke:none;">d</text>
   <text y="460.573" x="412.045,415.152,418.777,423.957,428.711,432.855,435.444,440.624,445.3052,448.439,453.619" svgx:width="0.31,0.36,0.52,0.47,0.42,0.26,0.52,0.47,0.55,0.52,0.36" style="fill:rgb(0,0,0);font-family:Advt93-r;font-size:9.96px;stroke:none;">-spacing or</text>
   <text y="472.535" x="206.248,210.91,213.499,218.161,221.786,224.893,227.483,231.6662,235.613,243.283,248.463,256.133,260.795,265.975,269.082,274.391,282.0602,285.957,289.064,292.689,297.351,302.531,306.252,309.359,314.021" svgx:width="0.47,0.26,0.47,0.36,0.31,0.26,0.42,0.55,0.77,0.52,0.77,0.47,0.52,0.31,0.52,0.77,0.55,0.31,0.36,0.47,0.52,0.36,0.31,0.47,0.36" style="fill:rgb(0,0,0);font-family:Advt93-r;font-size:9.96px;stroke:none;">elastic momentum transfer</text>
   <text y="472.535" x="321.562" svgx:width="0.77" style="fill:rgb(0,0,0);font-family:Advt93-i;font-size:9.96px;stroke:none;">Q</text>
   <text y="472.535" x="333.128,336.754,342.33160000000004,346.281" svgx:width="0.36,0.56,0.55,0.47" style="fill:rgb(0,0,0);font-family:Advt93-r;font-size:9.96px;stroke:none;">(= 2</text>
   <text y="472.535" code="2" x="350.986" svgx:width="0.59" style="fill:rgb(0,0,0);font-family:AdvMT_MI;font-size:9.96px;stroke:none;">?</text>
   <text y="472.535" x="356.882" svgx:width="0.26" style="fill:rgb(0,0,0);font-family:Advt93-r;font-size:9.96px;stroke:none;">/</text>
   <text y="472.535" x="359.49" svgx:width="0.52" style="fill:rgb(0,0,0);font-family:Advt93-i;font-size:9.96px;stroke:none;">d</text>
   <text y="472.535" x="364.706,368.2916,372.19,375.815,380.477,385.739,390.401,394.753,397.0438,400.933,404.559,409.7382,413.689,417.832,423.012,428.191,431.299,434.924,439.586,443.211,446.455,448.7458,452.578" svgx:width="0.36,0.55,0.36,0.47,0.52,0.47,0.47,0.23,0.55,0.36,0.52,0.55,0.42,0.52,0.52,0.31,0.36,0.47,0.36,0.31,0.23,0.55,0.47" style="fill:rgb(0,0,0);font-family:Advt93-r;font-size:9.96px;stroke:none;">) range. In contrast, a</text>
   <text y="484.497" x="206.248,210.392,215.571,220.751,224.376,227.484,232.145,237.325,240.4126,243.494,250.128,254.789,259.451,264.113,266.702,271.363,276.659,281.32,284.427,289.6062,292.589,296.214,302.848,312.083,315.6686,318.725,323.905,326.494,329.601,332.709,336.334,341.117,345.261,348.368,353.548,361.218,365.879,368.987,373.648,377.2336,380.347,385.009,388.0966,391.062,395.7432,398.716,402.341,407.003,411.664,415.808,418.915,424.095,427.6806,430.746,434.371,439.551,444.73,448.356,452.499" svgx:width="0.42,0.52,0.52,0.36,0.31,0.47,0.52,0.31,0.55,0.67,0.47,0.47,0.47,0.26,0.47,0.52,0.47,0.31,0.52,0.55,0.36,0.67,0.93,0.36,0.55,0.52,0.26,0.31,0.31,0.36,0.47,0.42,0.31,0.52,0.77,0.47,0.31,0.47,0.36,0.55,0.47,0.31,0.55,0.47,0.55,0.36,0.47,0.47,0.42,0.31,0.52,0.36,0.55,0.36,0.52,0.52,0.36,0.42,0.47" style="fill:rgb(0,0,0);font-family:Advt93-r;font-size:9.96px;stroke:none;">constant wavelength (CW) diffractometer at a reactor source</text>
   <text y="496.459" x="206.248,210.392,215.053,220.2322,223.993,228.654,232.798,236.941,241.603,245.228,248.8136,252.678,255.268,260.447,265.717,270.379,275.041" svgx:width="0.42,0.47,0.52,0.55,0.47,0.42,0.42,0.47,0.36,0.36,0.55,0.26,0.52,0.52,0.47,0.47,0.36" style="fill:rgb(0,0,0);font-family:Advt93-r;font-size:9.96px;stroke:none;">can access longer</text>
   <text y="496.459" x="282.444" svgx:width="0.52" style="fill:rgb(0,0,0);font-family:Advt93-i;font-size:9.96px;stroke:none;">d</text>
   <text y="496.459" x="291.345,294.97,300.15,304.894,309.037,311.627,316.806,321.468,325.0536,328.874,333.536,338.795,343.9742,347.696,351.321,355.983,358.572,363.233,366.341,368.93,373.715,378.377,380.966,385.6472,389.418,392.008,397.187" svgx:width="0.36,0.52,0.47,0.42,0.26,0.52,0.47,0.36,0.55,0.47,0.52,0.52,0.55,0.36,0.47,0.26,0.47,0.31,0.26,0.47,0.47,0.26,0.47,0.55,0.26,0.52,0.67" style="fill:rgb(0,0,0);font-family:Advt93-r;font-size:9.96px;stroke:none;">spacings and relatively low</text>
   <text y="496.459" x="407.622" svgx:width="0.77" style="fill:rgb(0,0,0);font-family:Advt93-i;font-size:9.96px;stroke:none;">Q</text>
   <text y="498.047" x="415.276,420.8,424.158" svgx:width="0.77,0.47,0.47" style="fill:rgb(0,0,0);font-family:Advt93-r;font-size:6.38px;stroke:none;">max</text>
   <text y="496.46" x="431.32,437.954,440.544,443.651,448.8302,452.58" svgx:width="0.67,0.26,0.31,0.52,0.55,0.47" style="fill:rgb(0,0,0);font-family:Advt93-r;font-size:9.96px;stroke:none;">with a</text>
   <text y="508.422" x="206.248,210.91,215.571,219.197,221.786,226.447,231.627,234.216,238.8972,242.303,245.928,250.59,254.215,259.395,262.088,267.267,270.375,272.964,278.144,283.3232,286.692" svgx:width="0.47,0.47,0.36,0.26,0.47,0.52,0.26,0.47,0.55,0.36,0.47,0.36,0.52,0.26,0.52,0.31,0.26,0.52,0.52,0.55,0.36" style="fill:rgb(0,0,0);font-family:Advt93-r;font-size:9.96px;stroke:none;">variable resolution (</text>
   <text y="508.422" code="3" x="290.381" svgx:width="0.43" style="fill:rgb(0,0,0);font-family:AdvMT_MI;font-size:9.96px;stroke:none;">?</text>
   <text y="508.422" x="294.633" svgx:width="0.52" style="fill:rgb(0,0,0);font-family:Advt93-i;font-size:9.96px;stroke:none;">d</text>
   <text y="508.422" x="299.849" svgx:width="0.26" style="fill:rgb(0,0,0);font-family:Advt93-r;font-size:9.96px;stroke:none;">/</text>
   <text y="508.422" x="302.4" svgx:width="0.52" style="fill:rgb(0,0,0);font-family:Advt93-i;font-size:9.96px;stroke:none;">d</text>
   <text y="508.422" x="307.615,311.241,313.5318,316.856,322.809,327.988,332.6692,336.018,339.125,344.305,346.894,350.52,355.803,358.91,363.572,368.233,373.413,378.075,381.7,386.362,389.591,392.18,397.359,402.53819999999996,405.917,410.061,415.24,420.42,424.564,429.225,434.405,437.4926,440.953,446.133,449.2206,452.576" svgx:width="0.36,0.23,0.55,0.63,0.52,0.47,0.55,0.31,0.52,0.26,0.36,0.52,0.31,0.47,0.47,0.52,0.47,0.36,0.47,0.31,0.26,0.52,0.52,0.55,0.42,0.52,0.52,0.42,0.47,0.52,0.31,0.55,0.52,0.31,0.55,0.47" style="fill:rgb(0,0,0);font-family:Advt93-r;font-size:9.96px;stroke:none;">). The third-generation concept of a</text>
   <text y="520.384" x="206.248,212.474,220.144,225.8212,228.699,233.879,236.468,239.575,242.683,246.308,251.091,255.235,258.342,263.522,271.192,275.853,278.961,283.745,287.3306,290.321,296.955,301.617,305.2026,308.236,313.416,317.041,322.221,327.4,332.58,336.205,340.867,346.0462,349.111,353.773,356.86060000000003,359.826,362.933,368.113,372.7942,375.756,380.418,385.079,388.187,393.3662,396.392,405.108,409.77,414.432,417.539,420.128,425.418,430.0992,433.015,438.195,441.2826,444.297,447.404,452.584" svgx:width="0.63,0.77,0.57,0.55,0.52,0.26,0.31,0.31,0.36,0.47,0.42,0.31,0.52,0.77,0.47,0.31,0.47,0.36,0.55,0.67,0.47,0.36,0.55,0.52,0.36,0.52,0.52,0.52,0.36,0.47,0.52,0.55,0.47,0.31,0.55,0.31,0.52,0.47,0.55,0.47,0.47,0.31,0.52,0.55,0.88,0.47,0.47,0.31,0.26,0.52,0.47,0.55,0.52,0.31,0.55,0.31,0.52,0.47" style="fill:rgb(0,0,0);font-family:Advt93-r;font-size:9.96px;stroke:none;">TOF diffractometer was proposed at the 14th Meeting of the</text>
   <text y="532.346" x="206.248,209.873,215.053,218.16,222.822,226.447,231.627,236.289,239.525,242.115,247.294,252.474,257.135,259.7246,261.975,268.61,273.789,276.378,278.968,283.629,288.809,293.988,297.614,302.275,305.513,308.103,313.282,318.46119999999996,320.706,325.886,331.0652,333.235,341.015,346.276,350.937,355.599,360.778,364.922,369.583,374.7622,377.003,384.264,388.926,394.106,397.299,400.924,406.104,411.28319999999997,413.512,418.692,423.871,429.051,432.676,436.925,441.587,445.1726,447.413,452.593" svgx:width="0.36,0.52,0.31,0.47,0.36,0.52,0.47,0.31,0.26,0.52,0.52,0.47,0.26,0.55,0.67,0.52,0.26,0.26,0.47,0.52,0.52,0.36,0.47,0.31,0.26,0.52,0.52,0.55,0.52,0.52,0.55,0.78,0.52,0.47,0.47,0.52,0.42,0.47,0.52,0.55,0.73,0.47,0.52,0.31,0.36,0.52,0.52,0.55,0.52,0.52,0.52,0.36,0.42,0.47,0.36,0.55,0.52,0.47" style="fill:rgb(0,0,0);font-family:Advt93-r;font-size:9.96px;stroke:none;">International Collaboration on Advanced Neutron Sources by</text>
   <text y="544.308" x="206.248,213.51,218.171,223.351,228.013,232.674,235.263,237.853,240.4426,243.437,247.062,251.724,256.385,261.047,265.708,269.334,271.6248,274.56,280.513,285.693,288.282,291.8676,294.799,298.943,304.123,309.302,313.446,318.213,323.392,326.4796,329.381,337.051,341.713,346.374,349.053,356.724,359.313,363.456,368.118,371.7036,374.678,377.786,382.965,387.64619999999996,390.552,394.177,399.357,404.537,408.162,411.2496,414.249,419.429,424.09,429.27,434.45,441.084,443.786,448.965,452.073" svgx:width="0.73,0.47,0.52,0.47,0.47,0.26,0.26,0.26,0.55,0.36,0.47,0.47,0.47,0.47,0.36,0.23,0.55,0.63,0.52,0.26,0.36,0.55,0.42,0.52,0.52,0.42,0.47,0.52,0.31,0.55,0.77,0.47,0.47,0.26,0.77,0.26,0.42,0.47,0.36,0.55,0.31,0.52,0.47,0.55,0.36,0.52,0.52,0.36,0.31,0.55,0.52,0.47,0.52,0.52,0.67,0.26,0.52,0.31,0.52" style="fill:rgb(0,0,0);font-family:Advt93-r;font-size:9.96px;stroke:none;">Radaelli (1998). This concept maximizes the short bandwidth</text>
   <text y="556.214" x="206.248,209.873,214.535,218.16,223.34,225.929,229.037,231.626,236.806,241.4872,244.514,247.621,251.316,256.496,264.16519999999997,267.134,270.241,275.421,280.1022,283.121,287.783,292.4642,294.97,302.64,306.8232,309.767,314.947,320.127,324.788,328.414,333.181,336.288,338.877,344.057,349.2362,352.228,356.89,359.9776,363.0,366.107,371.287,375.96819999999997,378.93,384.11,389.29,393.951,396.541,399.225,403.887,406.994,409.584,414.763,419.94219999999996,422.979,430.24,434.902,440.081,443.189,446.814,451.994" svgx:width="0.36,0.47,0.36,0.52,0.26,0.31,0.26,0.52,0.47,0.55,0.31,0.36,0.52,0.77,0.55,0.31,0.52,0.47,0.55,0.47,0.47,0.55,0.77,0.42,0.55,0.52,0.52,0.47,0.36,0.47,0.31,0.26,0.52,0.52,0.55,0.47,0.31,0.55,0.31,0.52,0.47,0.55,0.52,0.52,0.47,0.26,0.26,0.47,0.31,0.26,0.52,0.52,0.55,0.73,0.47,0.52,0.31,0.36,0.52,0.52" style="fill:rgb(0,0,0);font-family:Advt93-r;font-size:9.96px;stroke:none;">resulting from the 60 Hz operation at the Spallation Neutron</text>
   <text y="568.176" x="206.248,211.428,216.607,221.787,225.412,229.556,234.2372,236.351,239.977,245.156,252.509,257.688,261.2736,263.394,268.056,273.235,278.4142,280.572,285.233,290.4122,292.477,297.657,302.836,305.516,310.696,313.803,318.465,322.09,325.716,330.895,336.075,339.304,343.965,349.14419999999996,351.266,355.928,361.107,365.769,370.948,373.538,378.199,381.7846,383.977,388.12,393.3,397.961,402.623,406.248,411.018,415.68,420.3612,422.47,427.132,430.239,433.347,438.526,442.152,447.331,451.993" svgx:width="0.52,0.52,0.52,0.36,0.42,0.47,0.55,0.36,0.52,0.73,0.52,0.36,0.55,0.47,0.52,0.52,0.55,0.47,0.52,0.55,0.52,0.52,0.26,0.52,0.31,0.47,0.36,0.36,0.52,0.52,0.31,0.47,0.52,0.55,0.47,0.52,0.47,0.52,0.26,0.47,0.36,0.55,0.42,0.52,0.47,0.47,0.36,0.47,0.47,0.47,0.55,0.47,0.31,0.31,0.52,0.36,0.52,0.47,0.52" style="fill:rgb(0,0,0);font-family:Advt93-r;font-size:9.96px;stroke:none;">Source (SNS) and an uninterrupted angular coverage afforded</text>
   <text y="580.138" x="206.248,211.428,216.1092,219.458,224.1392,227.508,231.652,236.832,242.011,245.118,247.708,252.887,258.067,263.247,268.426,272.0116,275.526,280.705,285.447,288.554,293.215,297.359,300.466,305.646,309.2316,312.714,315.304,320.483,324.627,329.806,333.3916,336.808,339.916,345.0952,348.486,352.63,357.81,360.399,362.988,367.76,371.904,374.9916,378.362,383.0432,386.412,390.038,392.627,397.807,402.468,405.058,409.7392,413.113,418.293,423.034,426.142,430.8232,434.146,437.771,442.433,445.5206,448.942,454.122" svgx:width="0.52,0.47,0.55,0.47,0.55,0.42,0.52,0.52,0.31,0.26,0.52,0.52,0.52,0.52,0.36,0.55,0.52,0.47,0.31,0.47,0.42,0.31,0.52,0.36,0.55,0.26,0.52,0.42,0.52,0.36,0.55,0.31,0.52,0.55,0.42,0.52,0.26,0.26,0.47,0.42,0.31,0.55,0.47,0.55,0.36,0.26,0.52,0.47,0.26,0.47,0.55,0.52,0.47,0.31,0.47,0.55,0.36,0.47,0.31,0.55,0.52,0.31" style="fill:rgb(0,0,0);font-family:Advt93-r;font-size:9.96px;stroke:none;">by a continuous detector locus to collect a single data set of</text>
   <text y="592.101" x="206.248,208.837,214.017,217.124,221.786,226.965,230.591,233.18,236.288,240.9692,243.379,248.041,252.702,256.327,259.953,265.133,268.7186,271.157,275.819,280.998,285.66,288.249,292.9302,295.308,299.969,305.149,310.3282,312.656,315.763,318.352,326.023,330.7042,333.064,338.244,341.33160000000004,343.665,348.845,351.434,356.096,361.276,364.383,366.67379999999997,369.062,375.697,380.3782,382.725,387.905,392.566,396.192,398.781,403.443,408.622,410.9128,413.282,418.979,426.378,435.676,443.346,449.98" svgx:width="0.26,0.52,0.31,0.47,0.52,0.36,0.26,0.31,0.47,0.55,0.47,0.47,0.36,0.36,0.52,0.36,0.55,0.47,0.52,0.47,0.26,0.47,0.55,0.47,0.52,0.52,0.55,0.31,0.26,0.77,0.47,0.55,0.52,0.31,0.55,0.52,0.26,0.47,0.52,0.31,0.23,0.55,0.67,0.47,0.55,0.52,0.47,0.36,0.26,0.47,0.52,0.23,0.55,0.57,0.77,0.93,0.77,0.67,0.73" style="fill:rgb(0,0,0);font-family:Advt93-r;font-size:9.96px;stroke:none;">intensity versus angle and time of ﬂight. By design, POWGEN</text>
   <text y="604.063" x="206.248,208.837,212.4226,216.396,221.07719999999998,224.957,230.137,232.726,235.833,238.941,242.566,247.349,251.493,254.6,259.78,267.45,272.111,275.219,280.003,283.5886,287.543,290.65,295.83,300.491,303.5786,307.555,312.734,316.36,318.949,324.221,328.883,333.544,337.1296,341.115,344.222,349.402,354.0832,358.066,362.727,367.389,372.5682,376.491,381.67,386.411,389.519,396.153,400.815,405.476,410.6552,414.644,417.751,421.377,426.038,431.218,433.807,436.914,439.504,444.802,449.981,454.643" svgx:width="0.26,0.36,0.55,0.47,0.55,0.52,0.26,0.31,0.31,0.36,0.47,0.42,0.31,0.52,0.77,0.47,0.31,0.47,0.36,0.55,0.31,0.52,0.47,0.31,0.55,0.52,0.36,0.26,0.52,0.47,0.47,0.36,0.55,0.31,0.52,0.47,0.55,0.47,0.47,0.52,0.55,0.52,0.47,0.31,0.67,0.47,0.47,0.52,0.55,0.31,0.36,0.47,0.52,0.26,0.31,0.26,0.52,0.52,0.47,0.26" style="fill:rgb(0,0,0);font-family:Advt93-r;font-size:9.96px;stroke:none;">is a diffractometer that bridges the gap between traditional</text>
   <text y="616.025" x="206.248,212.474,220.144,225.8212,230.57,235.231,240.411,245.5902,251.149,257.783,267.04580000000004,272.523,277.703,280.292,283.399,286.507,290.132,294.915,299.059,302.166,307.346,315.016,319.677,322.785,327.569,331.194,334.315,336.6058,342.081,347.261,350.368,353.476,358.238,361.863,364.453,369.632,374.3132,379.837,384.499,388.642,392.786,397.447,401.073,404.6586,410.28,413.388,418.56719999999996,424.112,429.292,431.881,436.543" svgx:width="0.63,0.77,0.57,0.55,0.47,0.52,0.52,0.55,0.67,0.93,0.55,0.52,0.26,0.31,0.31,0.36,0.47,0.42,0.31,0.52,0.77,0.47,0.31,0.47,0.36,0.36,0.23,0.55,0.52,0.31,0.31,0.47,0.36,0.26,0.52,0.47,0.55,0.47,0.42,0.42,0.47,0.36,0.36,0.55,0.31,0.52,0.55,0.52,0.26,0.47,0.52" style="fill:rgb(0,0,0);font-family:Advt93-r;font-size:9.96px;stroke:none;">TOF and CW diffractometers, offering access to high</text>
   <text y="616.025" x="447.307" svgx:width="0.77" style="fill:rgb(0,0,0);font-family:Advt93-i;font-size:9.96px;stroke:none;">Q</text>
   <text y="616.025" x="455.018" svgx:width="0.23" style="fill:rgb(0,0,0);font-family:Advt93-r;font-size:9.96px;stroke:none;">,</text>
   <text y="627.987" x="206.248,210.91,215.571,219.197,221.786,226.447,231.627,234.216,238.8972,242.813,246.439,251.1,254.726,259.905,262.598,267.778,270.885,273.474,278.654,283.8332,287.712,292.374,295.9596,299.901,304.5822,308.405,311.513,316.692,321.955,326.098,329.206,331.795,336.974,342.15319999999997,346.048,351.227" svgx:width="0.47,0.47,0.36,0.26,0.47,0.52,0.26,0.47,0.55,0.36,0.47,0.36,0.52,0.26,0.52,0.31,0.26,0.52,0.52,0.55,0.47,0.36,0.55,0.47,0.55,0.31,0.52,0.52,0.42,0.31,0.26,0.52,0.52,0.55,0.52,0.31" style="fill:rgb(0,0,0);font-family:Advt93-r;font-size:9.96px;stroke:none;">variable resolution as a function of</text>
   <text y="627.987" x="358.186" svgx:width="0.52" style="fill:rgb(0,0,0);font-family:Advt93-i;font-size:9.96px;stroke:none;">d</text>
   <text y="627.987" x="367.257,370.883,376.062,380.724,384.867,387.552,392.732,397.4132,401.272,405.933,411.113,416.2922,420.15,424.812,428.955,433.189,437.851,441.476,445.0616,448.949,452.057" svgx:width="0.36,0.52,0.47,0.42,0.26,0.52,0.47,0.55,0.47,0.52,0.52,0.55,0.47,0.42,0.42,0.47,0.36,0.36,0.55,0.31,0.52" style="fill:rgb(0,0,0);font-family:Advt93-r;font-size:9.96px;stroke:none;">spacing and access to</text>
   <text y="639.949" x="206.248,208.837,213.499,217.124,221.786" svgx:width="0.26,0.47,0.36,0.47,0.47" style="fill:rgb(0,0,0);font-family:Advt93-r;font-size:9.96px;stroke:none;">large</text>
   <text y="639.949" x="228.699" svgx:width="0.52" style="fill:rgb(0,0,0);font-family:Advt93-i;font-size:9.96px;stroke:none;">d</text>
   <text y="639.949" x="236.069,239.695,244.874,249.536,253.679,256.269,261.448,266.12919999999997,268.383,273.563,278.2442,280.459,284.603,289.782,294.444,299.623,304.285,306.874,312.054,316.73519999999996,319.009,322.116,327.296,331.9772,334.202,340.836,345.498,350.159,354.821,357.41,362.072,367.367,372.028,375.136,380.3152,382.56,387.74,392.401,397.581,402.7602,405.01,410.189,413.27660000000003,415.498,420.677,425.857,430.518,434.144,438.805,441.913,444.502,449.682,455.011" svgx:width="0.36,0.52,0.47,0.42,0.26,0.52,0.47,0.55,0.52,0.47,0.55,0.42,0.52,0.47,0.52,0.47,0.26,0.52,0.47,0.55,0.31,0.52,0.47,0.55,0.67,0.47,0.47,0.47,0.26,0.47,0.52,0.47,0.31,0.52,0.55,0.52,0.47,0.52,0.52,0.55,0.52,0.31,0.55,0.52,0.52,0.47,0.36,0.47,0.31,0.26,0.52,0.52,0.23" style="fill:rgb(0,0,0);font-family:Advt93-r;font-size:9.96px;stroke:none;">spacing by changing the wavelength band of operation.</text>
   <text y="651.855" x="216.227,222.123,227.302,231.98319999999998,234.028,238.69,243.351,246.977,249.566,254.745,259.925,263.5106,265.662,269.805,274.985,282.655,287.942,293.122,298.301,302.963,308.142,311.25,314.8356,316.968,322.148,325.23560000000003,327.287,330.394,335.574,338.163,341.7486,343.84,346.43,351.61,355.235,358.342,361.968,367.253,374.923,379.585,384.765,387.8526,389.93,393.556,396.663,401.325,404.95,408.057,410.647,415.95,420.6312,422.64,425.747,429.373,434.552,444.296,447.403,452.583" svgx:width="0.63,0.52,0.47,0.55,0.47,0.47,0.36,0.26,0.52,0.52,0.36,0.55,0.42,0.52,0.77,0.52,0.52,0.52,0.47,0.52,0.31,0.36,0.55,0.52,0.31,0.55,0.31,0.52,0.26,0.36,0.55,0.26,0.52,0.36,0.31,0.36,0.52,0.77,0.47,0.52,0.31,0.55,0.36,0.31,0.47,0.36,0.31,0.26,0.52,0.47,0.55,0.31,0.36,0.52,0.77,0.31,0.52,0.47" style="fill:rgb(0,0,0);font-family:Advt93-r;font-size:9.96px;stroke:none;">The various components of this instrument starting fromthe</text>
   <text y="663.817" x="206.249,213.919,219.099,224.279,228.94,232.565,237.227,240.334,245.65,249.164,251.45479999999998,256.535,260.678,265.858,271.037,276.321,281.5,286.162,289.787,292.931,295.2218,300.302,304.963,310.143,312.732,317.912,322.59319999999997,327.74,332.402,337.581,342.7602,347.923,353.102,357.764,360.871,365.533,369.676,372.783,378.082,381.707,385.2926,390.44,397.075,401.736,405.362,410.0432,415.158,420.337,423.963,428.707,433.369,435.958,441.138,446.317,449.943,452.532" svgx:width="0.77,0.52,0.52,0.47,0.36,0.47,0.31,0.52,0.36,0.23,0.55,0.42,0.52,0.52,0.52,0.52,0.47,0.36,0.36,0.23,0.55,0.47,0.52,0.26,0.52,0.47,0.55,0.47,0.52,0.52,0.55,0.52,0.47,0.31,0.47,0.42,0.31,0.52,0.36,0.36,0.55,0.67,0.47,0.36,0.47,0.55,0.52,0.36,0.47,0.47,0.26,0.52,0.52,0.36,0.26,0.47" style="fill:rgb(0,0,0);font-family:Advt93-r;font-size:9.96px;stroke:none;">moderator, choppers, guide and detectors were previously</text>
   <text y="675.779" x="206.249,211.429,216.09,219.716,223.859,227.485,230.074,235.253,240.037,245.21620000000001,248.031,253.21,257.8912,260.73,268.4,273.58" svgx:width="0.52,0.47,0.36,0.42,0.36,0.26,0.52,0.47,0.52,0.55,0.52,0.47,0.55,0.77,0.52,0.52" style="fill:rgb(0,0,0);font-family:Advt93-r;font-size:9.96px;stroke:none;">described by Huq</text>
   <text y="675.779" x="281.651,285.794,288.3836,291.175,295.837,298.426" svgx:width="0.42,0.26,0.55,0.47,0.26,0.23" style="fill:rgb(0,0,0);font-family:Advt93-i;font-size:9.96px;stroke:none;">et al.</text>
   <text y="675.779" x="303.591,307.216,311.878,316.539,321.201,325.862,329.488,331.7788,334.657,338.283,343.4622,346.336,349.443,354.622,357.212,360.7976,363.683,368.862,373.524,378.703,383.468,386.983,389.2738,392.085,398.719,403.4002,406.202,412.837,415.501,418.09,420.6796,423.494,428.673,433.335,436.96,441.104,444.729,447.318,452.632" svgx:width="0.36,0.47,0.47,0.47,0.47,0.36,0.23,0.55,0.36,0.52,0.55,0.31,0.52,0.26,0.36,0.55,0.52,0.47,0.52,0.47,0.36,0.23,0.55,0.67,0.47,0.55,0.67,0.26,0.26,0.26,0.55,0.52,0.47,0.36,0.42,0.36,0.26,0.52,0.47" style="fill:rgb(0,0,0);font-family:Advt93-r;font-size:9.96px;stroke:none;">(2011). In this paper, we will describe</text>
   <text y="687.742" x="206.248,209.355,214.535,219.2162,222.235,227.415,232.076,235.784,238.374,243.035,248.2142,251.26,256.44,261.62,264.209,266.798,271.978,275.603,280.909,286.089,291.269,295.9502,298.995,301.584,306.7632,309.822,315.002,319.663,322.771,327.432,330.021,332.61060000000003,335.672,340.334,345.593,350.7722,353.813,356.403,359.51,363.0956,366.171,368.761,376.432,381.611,386.273,390.416,393.5036,396.672,401.852,407.03119999999996,410.052,415.231,419.893,423.0,427.6812,430.744,434.888,440.067,442.657,445.246,450.018,454.162" svgx:width="0.31,0.52,0.47,0.55,0.52,0.47,0.36,0.26,0.47,0.52,0.55,0.52,0.52,0.26,0.26,0.52,0.36,0.52,0.52,0.52,0.47,0.55,0.26,0.52,0.55,0.52,0.47,0.31,0.47,0.26,0.26,0.55,0.47,0.52,0.52,0.55,0.26,0.31,0.36,0.55,0.26,0.77,0.52,0.47,0.42,0.31,0.55,0.52,0.52,0.55,0.52,0.47,0.31,0.47,0.55,0.42,0.52,0.26,0.26,0.47,0.42,0.31" style="fill:rgb(0,0,0);font-family:Advt93-r;font-size:9.96px;stroke:none;">the design philosophy in detail and its impact on data collec-</text>
   <text y="699.704" x="206.248,209.355,211.945,217.124,222.3032,228.13,231.755,234.863,238.488,243.15,246.257,251.032,255.694,260.3752,266.17,269.277,274.457,278.0426,283.914,289.094,291.683,294.79,297.898,302.559,306.306,310.968,316.147,319.2346,325.071,328.178,332.84,338.02,342.681,346.2666,352.226,357.406,360.4936,366.343,369.968,374.111,376.701,381.362,386.542,389.649,392.239,397.418,401.6012,407.443,412.104,416.853,422.033,426.695,430.32,432.909,440.58,445.241,450.421,453.528" svgx:width="0.31,0.26,0.52,0.52,0.55,0.36,0.31,0.36,0.47,0.31,0.47,0.47,0.47,0.55,0.31,0.52,0.36,0.55,0.52,0.26,0.31,0.31,0.47,0.36,0.47,0.52,0.31,0.55,0.31,0.47,0.52,0.47,0.36,0.55,0.52,0.31,0.55,0.36,0.42,0.26,0.47,0.52,0.31,0.26,0.52,0.42,0.55,0.47,0.47,0.52,0.47,0.36,0.26,0.77,0.47,0.52,0.31,0.36" style="fill:rgb(0,0,0);font-family:Advt93-r;font-size:9.96px;stroke:none;">tion strategy for different types of scientiﬁc experiments</text>
   <text y="711.666" x="206.248,210.391,215.571,220.751,225.93,231.11,235.253,238.361,243.154,248.3332,250.864,255.526,258.6136,261.182,264.29,269.469,274.1502,276.659,279.249,284.428,288.054,291.161,294.786,300.072,307.742,312.404,317.583,320.69,322.9808,325.583,330.763,334.906,337.496,342.157,347.337,350.444,353.033,358.349,362.5322,364.983,369.644,374.306,378.967,386.752,391.932,394.521,399.183,402.7686,405.346,410.008,413.633,418.31419999999997,420.88,426.06,429.685,434.865,439.527,442.116,447.411,452.073" svgx:width="0.42,0.52,0.52,0.52,0.52,0.42,0.31,0.47,0.52,0.55,0.47,0.31,0.55,0.31,0.52,0.47,0.55,0.26,0.52,0.36,0.31,0.36,0.52,0.77,0.47,0.52,0.31,0.23,0.55,0.52,0.42,0.26,0.47,0.52,0.31,0.26,0.52,0.42,0.55,0.47,0.47,0.47,0.77,0.52,0.26,0.47,0.36,0.55,0.47,0.36,0.47,0.55,0.52,0.36,0.52,0.47,0.26,0.52,0.47,0.52" style="fill:rgb(0,0,0);font-family:Advt93-r;font-size:9.96px;stroke:none;">conducted at the instrument. Scientiﬁc examples are provided</text>
   <text y="723.628" x="206.248,209.355,214.5342,216.849,221.511,224.1,229.28,233.516,236.105,241.285,245.946,249.054,253.7352,256.135,259.243,264.422,269.1032,271.442,276.103,280.765,284.39,288.016,292.677,295.785,298.483,301.072,305.7532,308.063,311.688,315.832,318.421,323.083,328.358,332.501,337.18219999999997,339.526,342.633,347.813,351.3986,353.813,360.447,365.626,368.216,372.359,377.53819999999996,379.948,383.055,388.235,390.824,394.4096,396.841,399.432,404.611,408.237,411.344,414.97,420.149,427.819,432.614,437.794,440.8816,443.216,447.359,452.021" svgx:width="0.31,0.52,0.55,0.47,0.26,0.52,0.42,0.26,0.52,0.47,0.31,0.47,0.55,0.31,0.52,0.47,0.55,0.47,0.47,0.36,0.36,0.47,0.31,0.26,0.26,0.47,0.55,0.36,0.42,0.26,0.47,0.52,0.42,0.47,0.55,0.31,0.52,0.36,0.55,0.67,0.52,0.26,0.42,0.52,0.55,0.31,0.52,0.26,0.36,0.55,0.26,0.52,0.36,0.31,0.36,0.52,0.77,0.47,0.52,0.31,0.55,0.42,0.47,0.52" style="fill:rgb(0,0,0);font-family:Advt93-r;font-size:9.96px;stroke:none;">to elucidate the versatile science for which this instrument can</text>
   <text y="735.59" x="206.248,211.428,216.1092,218.55,223.73,227.355,232.099,237.279,239.5698,242.077,250.581,255.26219999999998,257.724,264.358,266.948,269.537,272.1266,274.675,279.336,281.926,285.551,290.73019999999997,293.212,298.392,303.133,306.759,310.902,314.528,317.117,322.296,326.9772,329.494,332.601,337.78,342.46119999999996,344.971,349.632,354.294,356.883,362.063,365.6486,368.214,373.393,376.501,379.608,384.37,387.995,392.657,397.83619999999996,400.357,405.537,410.21819999999997,412.716,415.823,421.003,425.6842,428.136,431.762,436.423,441.685,446.865,449.454,452.044" svgx:width="0.52,0.47,0.55,0.52,0.36,0.47,0.52,0.23,0.55,0.93,0.47,0.55,0.67,0.26,0.26,0.26,0.55,0.47,0.26,0.36,0.52,0.55,0.52,0.47,0.36,0.42,0.36,0.26,0.52,0.47,0.55,0.31,0.52,0.47,0.55,0.47,0.47,0.26,0.52,0.36,0.55,0.52,0.31,0.31,0.47,0.36,0.47,0.52,0.55,0.52,0.47,0.55,0.31,0.52,0.47,0.55,0.36,0.47,0.52,0.52,0.26,0.26,0.52" style="fill:rgb(0,0,0);font-family:Advt93-r;font-size:9.96px;stroke:none;">be used. We will also describe the gains offered by the rebuild</text>
   <text y="747.496" x="206.248,210.91,216.089,221.2682,224.276,229.456,233.082,238.261,243.551,248.731,252.356,257.0372,260.049,263.674,268.854,276.524,281.2052,284.257,287.364,292.544,295.651,300.831,304.456,309.1372,312.148,317.328,322.508,327.169,330.913,335.575,340.754,345.416,349.0016,352.059,355.166,360.346,365.098,368.1856,371.165,378.835,381.424,386.086,391.265,394.3526,397.47,402.65,407.33119999999997,410.339,414.482,419.662,424.842,428.467,431.056,436.236,440.897,444.523,449.342,454.521" svgx:width="0.47,0.52,0.52,0.55,0.52,0.36,0.52,0.52,0.52,0.36,0.47,0.55,0.36,0.52,0.77,0.47,0.55,0.31,0.52,0.31,0.52,0.36,0.47,0.55,0.52,0.52,0.47,0.36,0.47,0.52,0.47,0.36,0.55,0.31,0.52,0.47,0.31,0.55,0.77,0.26,0.47,0.52,0.31,0.55,0.52,0.47,0.55,0.42,0.52,0.52,0.36,0.26,0.52,0.47,0.36,0.47,0.52,0.23" style="fill:rgb(0,0,0);font-family:Advt93-r;font-size:9.96px;stroke:none;">and propose some future upgrades that might be considered.</text>
  </g>
  <rect style="stroke:blue;stroke-width:0.3;" x="44.844" y="78.185" height="41.669" width="126.992" title="1"/>
  <text y="78.185" class="image" id="image.1.1" width="126" height="41" x="44.844">image.1.1.45_172.78_120</text>
  <rect style="stroke:blue;stroke-width:0.3;" x="44.844" y="78.185" height="41.669" width="126.992" title="1"/>
  <text y="78.185" class="image" id="image.1.2" width="126" height="41" x="44.844">image.1.2.45_172.78_120</text>
  <g begin="text">
   <text y="123.816" x="44.844,46.726,50.136,53.545,58.9119,61.284,65.133,68.982,72.831,76.68,78.924,82.773,86.622,90.471" svgx:width="0.27,0.49,0.49,0.77,0.55,0.55,0.55,0.55,0.55,0.32,0.55,0.55,0.55,0.55" style="fill:rgb(103,102,103);font-family:AdvOpti-R;font-size:6.97px;stroke:none;">ISSN 1600-5767</text>
  </g>
  <rect style="stroke:blue;stroke-width:0.3;" x="44.844" y="622.211" height="106.753" width="143.433" title="1"/>
  <text y="622.211" class="image" id="image.1.3" width="143" height="106" x="44.844">image.1.3.45_188.622_729</text>
  <rect style="stroke:blue;stroke-width:0.3;" x="44.844" y="622.211" height="106.753" width="143.433" title="1"/>
  <text y="622.211" class="image" id="image.1.4" width="143" height="106" x="44.844">image.1.4.45_188.622_729</text>
  <rect style="stroke:blue;stroke-width:0.3;" x="44.844" y="736.674" height="17.575" width="132.288" title="1"/>
  <text y="736.674" class="image" id="image.1.5" width="132" height="17" x="44.844">image.1.5.45_177.737_754</text>
  <rect style="stroke:blue;stroke-width:0.3;" x="44.844" y="736.674" height="17.575" width="132.288" title="1"/>
  <text y="736.674" class="image" id="image.1.6" width="132" height="17" x="44.844">image.1.6.45_177.737_754</text>
  <rect style="stroke:blue;stroke-width:0.3;" x="44.0" y="32.0" height="26.0" width="26.38" title="1"/>
  <text y="32.0" class="image" id="image.1.7" width="26" height="26" x="44.0">image.1.7.44_70.32_58</text>
  <rect style="stroke:blue;stroke-width:0.3;" x="44.0" y="32.0" height="26.0" width="26.38" title="1"/>
  <text y="32.0" class="image" id="image.1.8" width="26" height="26" x="44.0">image.1.8.44_70.32_58</text>
 </g>
</svg>
