<?xml version="1.0" encoding="UTF-8"?>
<svg height="774.244" width="567.057" xmlns="http://www.w3.org/2000/svg">
 <g id="page" xmlns:svgx="http://www.xml-cml.org/schema/svgx">
  <g begin="text">
   <text y="764.23" x="544.002,549.502" svgx:width="0.45,0.51" style="fill:rgb(131,144,151);font-family:Corbel2;font-size:10.0px;stroke:none;">10</text>
   <text y="764.244" x="40.794,45.642,50.786,53.186,58.026,64.026,68.898,71.298,75.762,78.162" svgx:width="0.55,0.59,0.25,0.55,0.7,0.56,0.25,0.5,0.25,0.59" style="fill:rgb(131,144,151);font-family:Corbel2;font-size:8.0px;stroke:none;">Scientific</text>
   <text y="764.244" x="83.162" svgx:width="0.2" style="fill:rgb(0,0,0);font-family:Corbel2;font-size:8.0px;stroke:none;"> </text>
   <text y="764.244" x="84.762,90.218,95.194,100.434,106.738,112.194,117.186" svgx:width="0.63,0.57,0.6,0.73,0.63,0.57,0.58" style="fill:rgb(131,144,151);font-family:Corbel-Bold2;font-size:8.0px;stroke:none;">RepoRts</text>
   <text y="764.244" x="122.082,123.522,125.338" svgx:width="0.2,0.23,0.2" style="fill:rgb(0,0,0);font-family:Corbel2;font-size:8.0px;stroke:none;"> | </text>
   <text y="764.244" x="126.778,128.234,129.69,131.146,132.602,134.058,135.514,136.97,138.426,139.882,142.154,146.09,150.026,153.962,157.898,160.17,161.626,165.562,167.25,171.186,175.122,179.058,182.994" svgx:width="0.18,0.18,0.18,0.18,0.18,0.18,0.18,0.18,0.18,0.28,0.49,0.49,0.49,0.49,0.28,0.18,0.49,0.21,0.49,0.49,0.49,0.49,0.18" style="fill:rgb(0,0,0);font-family:MyriadPro-It;font-size:8.0px;stroke:none;"> (2019) 9:8190 </text>
   <text y="764.244" x="184.45,185.89,187.706" svgx:width="0.2,0.23,0.2" style="fill:rgb(0,0,0);font-family:Corbel2;font-size:8.0px;stroke:none;"> | </text>
   <text y="764.244" x="189.146,193.402,196.178,198.954,203.202,206.434,208.546,210.746,212.946,217.234,221.498,223.354,225.466,229.73,232.41,236.658,238.858,242.962,247.066,249.178,253.282,257.386,261.49,265.594,267.794,271.026,275.13,279.234,283.338,287.442,291.546,294.21,298.314,302.418,306.522,309.186,313.29,317.394,321.498,325.602,329.706,332.37" svgx:width="0.53,0.35,0.35,0.53,0.4,0.26,0.28,0.28,0.54,0.53,0.23,0.26,0.53,0.34,0.53,0.28,0.51,0.51,0.26,0.51,0.51,0.51,0.51,0.28,0.4,0.51,0.51,0.51,0.51,0.51,0.33,0.51,0.51,0.51,0.33,0.51,0.51,0.51,0.51,0.51,0.33,0.51" style="fill:rgb(0,0,0);font-family:Corbel;font-size:8.0px;stroke:none;">https://doi.org/10.1038/s41598-019-44621-5</text>
  </g>
  <path style="fill:rgb(131,144,151);stroke:none;stroke-width:1.0;" d="M382.59 8.65 L382.59 26.45 L548.67 26.45 C548.67 26.45 554.34 26.45 554.34 20.78 L554.34 8.65 Z"/>
  <g begin="text">
   <text y="22.277" x="389.724,397.483,405.242,412.701,415.869,421.732,427.215,431.233,437.004,440.899,446.465,449.632,454.583,460.507,469.466,472.746,477.348,482.299,485.138,490.699,496.562,500.58,503.419,507.14,509.979,514.93,518.825,524.391,530.295,536.219,540.114,544.132" svgx:width="0.71,0.71,0.71,0.26,0.53,0.49,0.35,0.52,0.34,0.5,0.26,0.44,0.53,0.83,0.28,0.4,0.44,0.23,0.5,0.53,0.35,0.23,0.32,0.23,0.44,0.34,0.5,0.53,0.53,0.34,0.35,0.4" style="fill:rgb(255,255,255);font-family:Corbel2;font-size:10.25px;stroke:none;">www.nature.com/scientificreports</text>
  </g>
  <path style="fill:none;stroke:rgb(0,0,0);stroke-width:1.0;" d="M40.64 752.55 L554.64 752.55 "/>
  <g begin="text">
   <text y="22.46" x="40.638,48.208,55.778,63.055,66.145,71.865,77.215,81.135,86.765,90.565,95.995,99.085,103.915,109.695,118.435,121.635,126.125,130.955,133.725,139.15,144.87,148.79,151.56,155.19,157.96,162.79,166.59,172.02,177.78,183.56,187.36,191.28,195.77" svgx:width="0.71,0.71,0.71,0.26,0.53,0.49,0.35,0.52,0.34,0.5,0.26,0.44,0.53,0.83,0.28,0.4,0.44,0.23,0.5,0.53,0.35,0.23,0.32,0.23,0.44,0.34,0.5,0.53,0.53,0.34,0.35,0.4,0.28" style="fill:rgb(255,255,255);font-family:Corbel2;font-size:10.0px;stroke:none;">www.nature.com/scientificreports/</text>
  </g>
  <g begin="text">
   <text y="56.5" x="155.638,162.865,167.716,173.392,179.497,185.591,193.83,196.602,202.245,208.383,214.433,220.076,229.448,235.091,241.196,245.365" svgx:width="0.66,0.44,0.52,0.56,0.55,0.75,0.25,0.51,0.56,0.55,0.51,0.85,0.51,0.56,0.38,0.42" style="fill:rgb(0,0,0);font-family:Corbel-Bold;font-size:11.0px;stroke:none;">Acknowledgements</text>
   <text y="66.5" x="155.638,161.411,166.437,169.043,172.565,175.175,181.488,186.19,189.713,194.396,197.007,203.392,207.536,211.059,213.669,217.148,222.038,226.876,231.892,236.595,240.243,243.154,247.244,252.216,254.826,259.475,263.825,266.435,269.454,274.444,278.489,281.099,287.69,292.69,296.663,299.16,303.259,307.349,310.908,313.518,318.723,322.166,327.056,331.084,335.129,338.607,342.13,344.74,349.351,353.378,356.01,360.055,365.163,369.189,373.235,375.845,378.99,384.133,386.657,389.667,392.326,396.326,399.336,401.905,406.221,410.265,412.875,416.209,423.115,428.403,432.78,436.07,439.403,442.013,446.014,448.979,451.589,456.677,460.849,464.875,467.508,470.481,473.113,477.14,479.75,486.432,491.135,494.783,497.802,502.621,508.934,512.979,516.457,519.422,522.032,528.706,532.706,535.716,538.348,543.05,548.167,552.382,554.659" svgx:width="0.62,0.53,0.27,0.37,0.23,0.69,0.51,0.37,0.5,0.23,0.69,0.44,0.37,0.23,0.37,0.53,0.52,0.52,0.51,0.37,0.31,0.43,0.53,0.23,0.51,0.46,0.23,0.31,0.53,0.43,0.23,0.74,0.53,0.42,0.25,0.43,0.44,0.37,0.23,0.56,0.37,0.51,0.42,0.43,0.37,0.37,0.23,0.47,0.42,0.27,0.43,0.55,0.42,0.43,0.23,0.34,0.55,0.27,0.31,0.27,0.44,0.31,0.27,0.46,0.43,0.23,0.35,0.74,0.56,0.47,0.34,0.35,0.23,0.44,0.31,0.23,0.56,0.44,0.42,0.27,0.3,0.27,0.42,0.23,0.74,0.51,0.37,0.31,0.53,0.69,0.43,0.37,0.31,0.23,0.74,0.44,0.31,0.27,0.51,0.55,0.44,0.25,0.23" style="fill:rgb(0,0,0);font-family:MinionPro-Regular;font-size:9.0px;stroke:none;">This work was supported by the Nuclear Process Science Initiative (NPSI) at Pacific Northwest National </text>
   <text y="76.499" x="155.638,160.637,164.537,169.212,173.715,177.072,180.874,183.587,188.09,191.712,195.861,197.823,200.955,205.998,212.703,219.408,224.268,227.4,229.47,231.432,236.476,243.181,249.886,254.746,256.708,259.115,262.436,264.398,268.367,270.329,277.55,282.396,284.586,287.398,289.828,293.05,297.68,300.923,305.531,309.81,313.167,317.058,324.447,326.409,331.327,335.129,337.94,340.37,344.873,349.791,353.808,356.103,358.065,360.39,364.291,368.965,373.469,376.826,380.627,383.34,387.844,391.464,395.613,397.575,402.088,406.906,410.749,414.106,417.907,420.62,424.511,429.281,431.243,433.848,438.352,441.709,443.671,446.491,451.283,455.126,457.088,463.058,465.128,469.412,471.482,473.444,480.135,483.978,488.76,492.652,496.102,498.913,506.27,510.113,514.887,517.65,519.612,524.115,526.797,528.759,533.889,538.798,542.641,545.929,550.378,554.509" svgx:width="0.54,0.44,0.51,0.51,0.37,0.44,0.31,0.51,0.37,0.46,0.23,0.35,0.56,0.74,0.74,0.54,0.35,0.23,0.23,0.56,0.74,0.74,0.54,0.23,0.27,0.37,0.23,0.44,0.23,0.82,0.53,0.25,0.31,0.27,0.36,0.52,0.37,0.51,0.47,0.37,0.44,0.82,0.23,0.55,0.44,0.31,0.27,0.51,0.55,0.44,0.25,0.23,0.25,0.44,0.51,0.51,0.37,0.44,0.31,0.51,0.37,0.46,0.23,0.51,0.52,0.43,0.37,0.44,0.31,0.43,0.53,0.23,0.3,0.51,0.37,0.23,0.31,0.53,0.43,0.23,0.74,0.23,0.47,0.23,0.23,0.74,0.43,0.52,0.44,0.37,0.31,0.82,0.43,0.55,0.31,0.23,0.51,0.3,0.23,0.57,0.55,0.43,0.37,0.47,0.46,0.23" style="fill:rgb(0,0,0);font-family:MinionPro-Regular;font-size:9.0px;stroke:none;">Laboratory (PNNL). PNNL is a multi-program national laboratory operated for the U.S. Department of Energy </text>
   <text y="86.498" x="155.638,158.734,165.491,172.114,177.208,180.304,182.023,186.431,190.544,192.263,197.617,201.377,204.013,206.684,210.453,212.756,215.015,218.822,220.541,228.307,232.114,239.429,243.891,247.264,249.684,253.661,255.92,257.639,260.544,265.375,268.613,271.383,273.669,276.304,280.955,283.627,287.434,289.153,293.914,298.781,303.515,307.322,310.643,312.362,318.462,322.926,327.658,330.428,333.749,337.682,341.532,344.259,345.978,352.42,356.73,358.764,360.483,366.997,372.091,375.277,381.224,387.191,391.493,395.795,398.981,403.283,407.585,413.156,417.98,422.282,425.468,429.77,434.072,438.374,442.676,444.71,446.429,452.529,456.992,464.172,468.77,473.422,476.201,479.961,482.731,485.125,489.589,494.465,498.441,500.7,502.419,505.621,509.428,512.783,517.255,522.016,525.219,529.008,532.815,536.1,537.819,543.892,547.699,550.901,554.726" svgx:width="0.35,0.74,0.75,0.57,0.35,0.23,0.51,0.46,0.23,0.59,0.44,0.31,0.31,0.43,0.25,0.25,0.43,0.23,0.89,0.43,0.82,0.51,0.37,0.27,0.44,0.25,0.23,0.34,0.55,0.37,0.31,0.27,0.31,0.53,0.31,0.43,0.23,0.53,0.55,0.53,0.43,0.37,0.23,0.67,0.51,0.55,0.31,0.37,0.44,0.42,0.31,0.23,0.74,0.51,0.23,0.23,0.74,0.57,0.36,0.69,0.67,0.48,0.48,0.36,0.48,0.48,0.62,0.54,0.48,0.36,0.48,0.48,0.48,0.48,0.23,0.23,0.67,0.51,0.82,0.52,0.53,0.31,0.44,0.31,0.27,0.51,0.55,0.44,0.25,0.23,0.37,0.43,0.37,0.51,0.53,0.37,0.42,0.43,0.37,0.23,0.69,0.43,0.37,0.43,0.23" style="fill:rgb(0,0,0);font-family:MinionPro-Regular;font-size:9.0px;stroke:none;">(DOE) by Battelle Memorial Institute under Contract No. DE-AC05-76RL0-1830. Computational resources were </text>
   <text y="96.497" x="155.638,160.246,163.468,167.914,172.108,174.52,179.272,183.142,187.894,189.73,194.158,198.289,200.125,205.147,211.834,218.521,223.363,225.199,228.124,232.975,236.233,239.023,241.327,243.982,248.653,251.443,253.855,258.336,263.232,267.228,269.505,271.341,277.461,281.943,289.143,293.76,298.431,301.221,303.633,308.484,312.696,314.532,317.646,322.668,325.629,331.614,334.728" svgx:width="0.52,0.37,0.51,0.46,0.27,0.53,0.43,0.53,0.23,0.51,0.46,0.23,0.56,0.74,0.74,0.54,0.23,0.34,0.55,0.37,0.31,0.27,0.31,0.53,0.31,0.27,0.51,0.55,0.44,0.25,0.23,0.67,0.51,0.82,0.52,0.53,0.31,0.27,0.55,0.47,0.23,0.35,0.56,0.34,0.67,0.35,0.23" style="fill:rgb(0,0,0);font-family:MinionPro-Regular;font-size:9.0px;stroke:none;">provided by PNNL Institutional Computing (PIC).</text>
   <text y="114.5" x="155.638,162.865,168.86,173.029,179.189,185.283,189.133,190.737,197.161,203.255,209.36,213.529,217.379,220.118,226.245,232.24,236.409,239.148,245.242,251.347" svgx:width="0.66,0.55,0.38,0.56,0.55,0.35,0.21,0.58,0.55,0.56,0.38,0.35,0.25,0.56,0.55,0.38,0.25,0.55,0.56,0.42" style="fill:rgb(0,0,0);font-family:Corbel-Bold;font-size:11.0px;stroke:none;">Author Contributions</text>
   <text y="124.5" x="155.638,163.783,165.961,170.353,172.531,174.808,179.686,183.637,187.066,189.604,193.986,198.999,202.994,207.872,210.149,214.144,219.157,224.035,226.312,230.245,234.852,239.865,244.634,249.539,253.472,257.468,262.346,264.623,267.548,272.443,276.394,278.671,282.63,286.751,289.154,293.149,298.098,300.527,304.432,307.347,309.885,314.492,319.469,322.898,325.076,327.353,335.498,337.676,342.068,344.246,346.424,348.701,353.488,355.666,361.849,364.027,366.205,368.482,374.665,376.843,384.988,387.166,393.006,395.184,397.461,401.456,406.468,411.346,413.623,418.015,420.193,426.033,428.211,432.603,434.781,437.058,441.936,444.446,447.946,451.941,456.819,460.203,463.703,467.698,472.576,474.853,477.777,482.673,486.624,488.901,492.248,496.199,499.582,504.531,506.826,509.697,513.126,515.304,517.581,523.898,527.246,531.862,534.678,538.629,540.906,544.902,549.915,554.667" svgx:width="0.89,0.23,0.47,0.23,0.23,0.53,0.43,0.37,0.27,0.47,0.55,0.43,0.53,0.23,0.44,0.55,0.53,0.23,0.42,0.51,0.55,0.53,0.53,0.42,0.43,0.53,0.23,0.31,0.53,0.43,0.23,0.42,0.44,0.25,0.42,0.53,0.25,0.44,0.31,0.27,0.51,0.55,0.37,0.23,0.23,0.89,0.23,0.47,0.23,0.23,0.23,0.62,0.23,0.67,0.23,0.23,0.23,0.67,0.23,0.89,0.23,0.62,0.23,0.23,0.44,0.55,0.53,0.23,0.47,0.23,0.62,0.23,0.47,0.23,0.23,0.53,0.27,0.37,0.42,0.53,0.37,0.37,0.43,0.53,0.23,0.31,0.53,0.43,0.23,0.37,0.43,0.37,0.53,0.25,0.31,0.37,0.23,0.23,0.69,0.37,0.51,0.31,0.43,0.23,0.44,0.55,0.53,0.23" style="fill:rgb(0,0,0);font-family:MinionPro-Regular;font-size:9.0px;stroke:none;">M.S. designed and conduced the calculations. M.S., T.K., K.M.R. and S.R.S. discussed the results, wrote and </text>
   <text y="134.499" x="155.638,158.86,162.757,166.951,169.363,173.26,179.353,183.222,187.974,189.81,192.609,197.379,201.204,203.04,210.384,214.254,219.006,223.758,227.133,230.94,234.332,236.636,241.253,243.998" svgx:width="0.37,0.43,0.46,0.27,0.43,0.69,0.43,0.53,0.23,0.31,0.53,0.43,0.23,0.82,0.44,0.55,0.53,0.37,0.42,0.37,0.27,0.52,0.31,0.23" style="fill:rgb(0,0,0);font-family:MinionPro-Regular;font-size:9.0px;stroke:none;">reviewed the manuscript.</text>
   <text y="152.5" x="155.638,162.865,169.003,175.141,177.88,182.049,184.788,190.882,196.987,202.652,205.424,207.447,210.483,216.588,220.196,226.29,230.14,239.512,245.177,249.346,252.085,258.179" svgx:width="0.66,0.56,0.56,0.25,0.38,0.25,0.55,0.56,0.51,0.25,0.21,0.28,0.56,0.33,0.55,0.35,0.85,0.51,0.38,0.25,0.55,0.56" style="fill:rgb(0,0,0);font-family:Corbel-Bold;font-size:11.0px;stroke:none;">Additional Information</text>
   <text y="162.5" x="155.638,160.093,165.043,169.894,174.79,177.346,181.234,188.821,192.709,197.731,200.782,204.931,208.864,213.049,214.804,217.459,222.553,225.406,230.041,233.677,241.264,245.322,248.328,251.037,255.672" svgx:width="0.5,0.56,0.55,0.55,0.28,0.44,0.84,0.44,0.57,0.34,0.47,0.4,0.47,0.22,0.29,0.57,0.33,0.52,0.4,0.84,0.47,0.34,0.29,0.52,0.57" style="fill:rgb(0,0,0);font-family:MinionPro-Bold;font-size:9.0px;stroke:none;">Supplementary information</text>
   <text y="162.5" x="260.766,262.602,266.553,270.36,274.167,278.649,285.849,290.609,294.479,299.402,301.814,305.639,308.942,310.778,313.577,318.383,320.768,324.071,325.907,330.667,334.447,339.244,343.069,346.408,348.244,352.024,354.769" svgx:width="0.23,0.44,0.42,0.42,0.51,0.82,0.52,0.44,0.55,0.27,0.43,0.37,0.23,0.31,0.53,0.27,0.37,0.23,0.52,0.44,0.52,0.43,0.37,0.23,0.44,0.31,0.23" style="fill:rgb(0,0,0);font-family:MinionPro-Regular;font-size:9.0px;stroke:none;"> accompanies this paper at </text>
   <text y="162.5" x="356.605,361.239,363.895,366.549,371.265,374.568,376.62,379.599,382.578,387.33,391.812,394.17,396.222,400.704,403.971,408.183,411.162,415.482,419.802,421.854,426.174,430.494,434.814,439.134,442.113,445.416,449.736,454.056,458.376,462.696,467.016,470.22,474.54,478.861,483.181,486.385,490.705,495.025,499.345,503.665,507.985,511.189" svgx:width="0.53,0.31,0.31,0.52,0.37,0.23,0.33,0.33,0.53,0.51,0.27,0.23,0.51,0.37,0.47,0.33,0.48,0.48,0.23,0.48,0.48,0.48,0.48,0.33,0.37,0.48,0.48,0.48,0.48,0.48,0.36,0.48,0.48,0.48,0.36,0.48,0.48,0.48,0.48,0.48,0.36,0.48" style="fill:rgb(0,0,255);font-family:MinionPro-Regular;font-size:9.0px;stroke:none;">https://doi.org/10.1038/s41598-019-44621-5</text>
   <text y="162.5" x="515.509" svgx:width="0.23" style="fill:rgb(0,0,0);font-family:MinionPro-Regular;font-size:9.0px;stroke:none;">.</text>
   <text y="176.999" x="155.638,161.902,166.537,174.052,179.073,183.033,186.039,188.694,193.716,198.144,199.899,203.166,208.188,211.131,215.019,218.583,222.516,225.926,228.977,232.426" svgx:width="0.68,0.52,0.84,0.55,0.44,0.34,0.29,0.57,0.49,0.22,0.38,0.57,0.34,0.44,0.4,0.44,0.38,0.34,0.38,0.25" style="fill:rgb(0,0,0);font-family:MinionPro-Bold;font-size:9.0px;stroke:none;">Competing Interests:</text>
   <text y="176.999" x="234.712,236.548,246.151,249.976,251.812,255.592,260.263,263.061,267.831,272.313,275.598,278.901,280.737,285.489,289.359,293.112,295.416,299.286,302.508,306.333,308.169,313.056,317.646,319.482,323.289,327.771,334.971,339.768,343.593,346.382,348.794,353.645,357.857,359.693,362.105,366.857,369.548,373.373,376.595,380.42,383.678,386.423,389.726" svgx:width="0.23,1.07,0.43,0.23,0.44,0.53,0.31,0.53,0.51,0.37,0.37,0.23,0.53,0.43,0.42,0.25,0.44,0.37,0.43,0.23,0.55,0.51,0.23,0.42,0.51,0.82,0.52,0.43,0.31,0.27,0.55,0.47,0.23,0.27,0.55,0.31,0.43,0.37,0.43,0.37,0.31,0.37,0.23" style="fill:rgb(0,0,0);font-family:MinionPro-Regular;font-size:9.0px;stroke:none;"> The authors declare no competing interests.</text>
   <text y="191.498" x="155.638,161.029,165.997,170.776,173.278,175.933,179.353,184.303,188.191,191.935,193.393,196.84,198.595,203.689,208.342,211.285,215.218" svgx:width="0.6,0.56,0.53,0.28,0.29,0.38,0.55,0.44,0.4,0.24,0.38,0.22,0.57,0.52,0.34,0.44,0.25" style="fill:rgb(0,0,0);font-family:MinionPro-Bold;font-size:9.0px;stroke:none;">Publisher’s note:</text>
   <text y="191.498" x="217.504,219.34,223.48,228.088,231.48,233.892,238.743,242.883,246.708,250.047,251.883,258.336,262.116,264.771,269.55,272.772,276.597,278.433,281.655,285.48,292.823,296.694,299.106,303.956,307.259,309.095,313.982,317.807,322.478,325.268,328.607,332.602,334.879,336.715,342.907,345.211,348.01,352.816,354.652,357.874,361.699,365.911,369.781,373.003,377.755,379.591,382.282,386.872,388.708,390.922,395.701,399.094,401.479,404.854,409.606,412.018,415.887,418.677,421.089,425.571,430.467,434.463,436.74,438.576,442.329,444.633,448.503,450.915,458.214,461.517,463.353,465.765,470.688,472.524,477.141,481.884,486.393,488.67,491.055,494.322,499.092,502.962,507.714,509.55,516.894,520.674,525.39,528.693,530.529,534.399,539.286,544.038" svgx:width="0.23,0.47,0.52,0.37,0.27,0.55,0.47,0.43,0.37,0.23,0.74,0.44,0.31,0.53,0.37,0.43,0.23,0.37,0.43,0.82,0.44,0.27,0.55,0.37,0.23,0.55,0.43,0.53,0.31,0.37,0.44,0.25,0.23,0.69,0.27,0.31,0.53,0.23,0.37,0.43,0.47,0.44,0.37,0.53,0.23,0.31,0.51,0.23,0.26,0.53,0.37,0.27,0.37,0.53,0.27,0.42,0.31,0.27,0.51,0.55,0.44,0.25,0.23,0.42,0.25,0.44,0.27,0.82,0.37,0.23,0.27,0.55,0.23,0.52,0.53,0.51,0.25,0.27,0.37,0.53,0.43,0.53,0.23,0.82,0.44,0.52,0.37,0.23,0.44,0.55,0.53,0.23" style="fill:rgb(0,0,0);font-family:MinionPro-Regular;font-size:9.0px;stroke:none;"> Springer Nature remains neutral with regard to jurisdictional claims in published maps and </text>
   <text y="201.497" x="155.638,158.05,162.901,166.159,168.949,171.253,173.908,178.579,181.369,183.781,188.262,193.158,197.154,199.431,201.267,205.137,212.364,214.641,217.08,220.86,223.649,226.061,230.543,235.394,238.697" svgx:width="0.27,0.55,0.37,0.31,0.27,0.31,0.53,0.31,0.27,0.51,0.55,0.44,0.25,0.23,0.44,0.8,0.25,0.27,0.44,0.31,0.27,0.51,0.55,0.37,0.23" style="fill:rgb(0,0,0);font-family:MinionPro-Regular;font-size:9.0px;stroke:none;">institutional affiliations.</text>
  </g>
  <path style="fill:rgb(195,196,198);stroke:none;stroke-width:0.3;" d="M156.73 210.06 L196.18 210.13 C196.73 210.13 197.22 210.05 197.22 211.23 L197.17 224.23 L155.73 224.23 L155.73 211.19 C155.73 210.6 155.79 210.06 156.73 210.06 "/>
  <path style="fill:rgb(0,0,0);stroke:none;stroke-width:0.3;" d="M156.42 210.24 L196.62 210.24 C196.85 210.24 197.04 210.43 197.04 210.67 L197.04 220.16 L168.22 220.16 C167.17 222.07 165.14 223.36 162.81 223.36 C160.48 223.36 158.45 222.07 157.4 220.16 L155.99 220.16 L155.99 210.67 C155.99 210.43 156.18 210.24 156.42 210.24 M196.62 209.89 L156.42 209.89 C155.99 209.89 155.64 210.24 155.64 210.67 L155.64 224.33 C155.64 224.43 155.72 224.5 155.81 224.5 L197.22 224.5 C197.32 224.5 197.4 224.43 197.4 224.33 L197.4 210.67 C197.4 210.24 197.05 209.89 196.62 209.89 "/>
  <path style="fill:rgb(255,255,255);stroke:none;stroke-width:0.3;" d="M181.29 223.19 C181.34 223.19 181.39 223.19 181.43 223.18 C181.48 223.17 181.52 223.15 181.55 223.13 C181.59 223.11 181.61 223.08 181.63 223.04 C181.65 223.0 181.66 222.95 181.66 222.89 C181.66 222.77 181.63 222.69 181.56 222.64 C181.5 222.59 181.41 222.56 181.3 222.56 L180.74 222.56 L180.74 223.19 ZM181.26 222.22 C181.35 222.22 181.42 222.19 181.48 222.15 C181.54 222.11 181.57 222.04 181.57 221.94 C181.57 221.89 181.56 221.84 181.54 221.81 C181.52 221.78 181.49 221.75 181.46 221.73 C181.43 221.71 181.39 221.7 181.35 221.69 C181.31 221.68 181.27 221.68 181.22 221.68 L180.74 221.68 L180.74 222.22 ZM181.32 221.28 C181.43 221.28 181.53 221.29 181.62 221.31 C181.72 221.33 181.79 221.36 181.86 221.41 C181.92 221.45 181.97 221.51 182.01 221.58 C182.04 221.66 182.06 221.75 182.06 221.86 C182.06 221.97 182.03 222.07 181.98 222.15 C181.93 222.22 181.85 222.29 181.75 222.34 C181.89 222.38 182.0 222.45 182.07 222.55 C182.14 222.65 182.17 222.78 182.17 222.92 C182.17 223.04 182.15 223.14 182.1 223.22 C182.06 223.31 182.0 223.38 181.92 223.43 C181.84 223.48 181.76 223.52 181.66 223.55 C181.56 223.58 181.46 223.59 181.36 223.59 L180.24 223.59 L180.24 221.28 Z"/>
  <path style="fill:rgb(255,255,255);stroke:none;stroke-width:0.3;" d="M182.26 221.28 L182.83 221.28 L183.37 222.19 L183.91 221.28 L184.47 221.28 L183.62 222.7 L183.62 223.59 L183.11 223.59 L183.11 222.69 Z"/>
  <path style="fill:rgb(255,255,255);stroke:none;stroke-width:0.3;" d="M167.56 216.71 C167.56 219.33 165.44 221.46 162.82 221.46 C160.2 221.46 158.07 219.34 158.07 216.72 L158.07 216.71 C158.07 214.09 160.19 211.97 162.81 211.96 C165.43 211.96 167.56 214.09 167.56 216.71 Z"/>
  <path style="fill:rgb(0,0,0);stroke:none;stroke-width:0.3;" d="M165.16 216.18 C165.02 215.89 164.83 215.74 164.56 215.74 C164.07 215.74 163.83 216.06 163.83 216.71 C163.83 217.35 164.07 217.67 164.56 217.67 C164.88 217.67 165.1 217.52 165.23 217.2 L165.91 217.56 C165.59 218.12 165.12 218.4 164.48 218.4 C164.0 218.4 163.6 218.25 163.31 217.95 C163.02 217.65 162.87 217.24 162.87 216.71 C162.87 216.19 163.02 215.78 163.32 215.48 C163.62 215.17 164.0 215.02 164.46 215.02 C165.13 215.02 165.61 215.29 165.89 215.81 ZM162.03 216.18 C161.9 215.89 161.69 215.74 161.42 215.74 C160.94 215.74 160.7 216.06 160.7 216.71 C160.7 217.35 160.94 217.67 161.42 217.67 C161.74 217.67 161.96 217.52 162.1 217.2 L162.76 217.56 C162.45 218.12 161.97 218.4 161.34 218.4 C160.85 218.4 160.46 218.25 160.16 217.95 C159.87 217.65 159.72 217.24 159.72 216.71 C159.72 216.19 159.87 215.78 160.18 215.48 C160.48 215.17 160.86 215.02 161.31 215.02 C161.98 215.02 162.46 215.29 162.75 215.81 ZM159.69 213.55 C158.8 214.45 158.36 215.51 158.36 216.71 C158.36 217.92 158.8 218.96 159.68 219.84 C160.56 220.72 161.61 221.16 162.82 221.16 C164.04 221.16 165.1 220.72 165.99 219.83 C166.85 219.0 167.27 217.96 167.27 216.71 C167.27 215.47 166.84 214.41 165.97 213.55 C165.11 212.68 164.06 212.25 162.82 212.25 C161.59 212.25 160.54 212.68 159.69 213.55 M166.67 212.85 C167.72 213.9 168.25 215.19 168.25 216.71 C168.25 218.24 167.73 219.51 166.7 220.54 C165.6 221.61 164.3 222.15 162.81 222.15 C161.33 222.15 160.05 221.62 158.98 220.55 C157.91 219.48 157.38 218.2 157.38 216.71 C157.38 215.22 157.91 213.94 158.98 212.85 C160.03 211.79 161.3 211.27 162.81 211.27 C164.33 211.27 165.62 211.79 166.67 212.85 "/>
  <path style="fill:rgb(255,255,255);stroke:none;stroke-width:0.3;" d="M182.18 211.45 C184.24 211.45 185.92 213.12 185.92 215.18 C185.92 217.25 184.24 218.92 182.18 218.92 C180.12 218.92 178.44 217.25 178.44 215.18 C178.44 213.12 180.12 211.45 182.18 211.45 "/>
  <path style="fill:rgb(0,0,0);stroke:none;stroke-width:0.3;" d="M183.26 214.1 C183.26 213.96 183.14 213.84 183.0 213.84 L181.35 213.84 C181.21 213.84 181.09 213.96 181.09 214.1 L181.09 215.75 L181.55 215.75 L181.55 217.71 L182.8 217.71 L182.8 215.75 L183.26 215.75 Z"/>
  <path style="fill:rgb(0,0,0);stroke:none;stroke-width:0.3;" d="M182.17 212.5 C182.49 212.5 182.74 212.75 182.74 213.06 C182.74 213.37 182.49 213.62 182.17 213.62 C181.86 213.62 181.61 213.37 181.61 213.06 C181.61 212.75 181.86 212.5 182.17 212.5 "/>
  <path style="fill:rgb(0,0,0);stroke:none;stroke-width:0.3;" d="M182.18 211.79 C183.09 211.79 183.87 212.12 184.51 212.76 C185.16 213.4 185.48 214.18 185.48 215.1 C185.48 216.03 185.17 216.8 184.53 217.41 C183.87 218.07 183.08 218.4 182.18 218.4 C181.28 218.4 180.5 218.07 179.85 217.42 C179.19 216.77 178.87 216.0 178.87 215.1 C178.87 214.21 179.2 213.43 179.86 212.76 C180.49 212.12 181.26 211.79 182.18 211.79 M182.17 211.07 C181.05 211.07 180.1 211.46 179.33 212.24 C178.54 213.04 178.14 214.0 178.14 215.1 C178.14 216.2 178.54 217.15 179.33 217.95 C180.13 218.74 181.07 219.14 182.17 219.14 C183.28 219.14 184.24 218.74 185.06 217.94 C185.83 217.18 186.21 216.23 186.21 215.1 C186.21 213.97 185.82 213.02 185.04 212.24 C184.26 211.46 183.3 211.07 182.17 211.07 "/>
  <g begin="text">
   <text y="216.0" x="200.396,207.443,212.519,216.605,221.852,224.156,230.663,234.614,238.565,242.651,246.251" svgx:width="0.77,0.55,0.44,0.57,0.22,0.71,0.42,0.42,0.44,0.38,0.38" style="fill:rgb(0,0,0);font-family:MinionPro-Bold;font-size:9.0px;stroke:none;">Open Access</text>
   <text y="216.0" x="249.851,252.263,257.978,262.946,265.52,268.985,271.397,275.51,279.011,281.918,284.492,288.461,290.9,294.887,297.299,299.873,303.338,305.75,308.189,310.763,314.732,318.719,323.804,327.269,331.256,336.17,338.582,343.523,348.608,353.522,357.509,361.01,363.422,367.535,369.947,376.094,379.595,383.582,387.695,390.602,393.176,397.505,401.492,403.904,410.051,414.803,422.336,429.869,434.621,439.706,443.171,445.583,451.964,454.871,457.778,461.279,463.853,468.587,473.528,476.435,479.009,483.761,488.846,491.258,495.74,497.954,502.436,504.848,508.079,513.164,516.071,520.058,523.559,528.644,532.757,535.664,538.238,542.99,548.075,552.188,554.465" svgx:width="0.23,0.62,0.53,0.27,0.37,0.23,0.44,0.37,0.31,0.27,0.42,0.25,0.43,0.23,0.27,0.37,0.23,0.25,0.27,0.42,0.43,0.55,0.37,0.43,0.53,0.23,0.53,0.55,0.53,0.43,0.37,0.23,0.44,0.23,0.67,0.37,0.43,0.44,0.31,0.27,0.46,0.43,0.23,0.67,0.51,0.82,0.82,0.51,0.55,0.37,0.23,0.69,0.31,0.31,0.37,0.27,0.51,0.53,0.31,0.27,0.51,0.55,0.23,0.48,0.23,0.48,0.23,0.34,0.55,0.31,0.43,0.37,0.55,0.44,0.31,0.27,0.51,0.55,0.44,0.25,0.23" style="fill:rgb(0,0,0);font-family:MinionPro-Regular;font-size:9.0px;stroke:none;"> This article is licensed under a Creative Commons Attribution 4.0 International </text>
   <text y="225.999" x="200.234,205.13,207.596,211.457,215.336,220.313,223.67,227.549,229.655,231.68,237.899,242.759,245.225,249.086,253.946,255.971,260.741,264.62,268.013,275.438,277.904,280.703,284.06,286.085,290.918,294.275,298.154,300.26,302.285,305.642,310.502,314.507,317.9,320.366,325.343,329.609,331.715,333.74,337.745,342.551,346.556,351.326,354.125,358.13,360.929,363.395,368.039,373.016,375.122,377.147,381.953,384.419,387.776,390.575,393.968,396.434,401.06,405.893,408.692,411.158,415.802,420.779,422.804,426.809,431.786,436.592,438.617,442.01,445.889,450.659,454.052,458.696,463.502,468.335,472.196,474.995,477.461,482.105,487.082,489.107,491.573,496.55,498.575,502.58,507.557,511.742,513.767,521.192,525.071,529.877,532.343,537.176,544.601,546.626,551.27,554.609" svgx:width="0.54,0.27,0.42,0.43,0.55,0.37,0.43,0.23,0.23,0.69,0.53,0.27,0.42,0.53,0.23,0.52,0.43,0.37,0.82,0.27,0.31,0.37,0.23,0.53,0.37,0.43,0.23,0.23,0.37,0.53,0.44,0.37,0.27,0.55,0.47,0.23,0.23,0.44,0.53,0.44,0.52,0.31,0.44,0.31,0.27,0.51,0.55,0.23,0.23,0.53,0.27,0.37,0.31,0.37,0.27,0.51,0.53,0.31,0.27,0.51,0.55,0.23,0.44,0.55,0.53,0.23,0.37,0.43,0.52,0.37,0.51,0.53,0.53,0.42,0.31,0.27,0.51,0.55,0.23,0.27,0.55,0.23,0.44,0.55,0.46,0.23,0.82,0.43,0.53,0.27,0.53,0.82,0.23,0.51,0.37,0.23" style="fill:rgb(0,0,0);font-family:MinionPro-Regular;font-size:9.0px;stroke:none;">License, which permits use, sharing, adaptation, distribution and reproduction in any medium or </text>
   <text y="235.998" x="155.639,158.303,162.893,166.232,173.603,177.554,180.299,182.351,184.268,188.219,191.522,193.439,195.716,200.306,205.229,209.441,211.358,215.309,218.612,220.529,224.66,229.25,234.029,235.946,240.158,242.57,246.737,250.562,252.479,256.43,261.146,265.862,269.201,273.791,278.507,281.846,284.258,288.209,290.954,294.779,296.696,300.503,303.842,307.667,312.419,314.831,317.576,319.493,322.238,326.828,328.745,331.49,336.296,340.121,342.038,346.628,349.967,352.379,356.591,359.003,363.926,367.877,370.154,372.071,376.022,380.801,383.546,388.352,392.942,396.281,399.395,402.698,405.812,407.729,411.68,416.603,421.355,423.272,426.017,430.823,434.648,436.565,439.868,444.458,449.237,452.576,456.383,460.208,462.26,464.177,468.893,472.232,476.822,480.989,483.401,488.153,491.978,493.895,497.846,499.763,502.04,504.452,509.375,513.839,515.756,518.501,523.091,525.008,527.753,532.559,536.384,538.301,544.286,547.625,551.45" svgx:width="0.3,0.51,0.37,0.82,0.44,0.31,0.23,0.23,0.44,0.37,0.23,0.25,0.51,0.55,0.47,0.23,0.44,0.37,0.23,0.46,0.51,0.53,0.23,0.47,0.27,0.46,0.43,0.23,0.44,0.52,0.52,0.37,0.51,0.52,0.37,0.27,0.44,0.31,0.43,0.23,0.42,0.37,0.43,0.53,0.27,0.31,0.23,0.31,0.51,0.23,0.31,0.53,0.43,0.23,0.51,0.37,0.27,0.47,0.27,0.55,0.44,0.25,0.23,0.44,0.53,0.31,0.53,0.51,0.37,0.35,0.37,0.35,0.23,0.44,0.55,0.53,0.23,0.31,0.53,0.43,0.23,0.37,0.51,0.53,0.37,0.42,0.43,0.23,0.23,0.52,0.37,0.51,0.46,0.27,0.53,0.43,0.23,0.44,0.23,0.25,0.27,0.55,0.5,0.23,0.31,0.51,0.23,0.31,0.53,0.43,0.23,0.67,0.37,0.43,0.36" style="fill:rgb(0,0,0);font-family:MinionPro-Regular;font-size:9.0px;stroke:none;">format, as long as you give appropriate credit to the original author(s) and the source, provide a link to the Cre-</text>
   <text y="245.997" x="155.639,159.707,162.569,165.098,169.382,173.324,175.583,181.685,186.392,193.88,201.368,206.075,211.115,214.535,216.794,219.188,221.717,225.641,229.583,234.623,238.043,241.985,244.154,246.413,250.481,255.521,260.39,262.649,265.178,270.218,275.087,277.616,281.54,285.608,288.47,292.412,294.671,297.2,299.981,302.24,306.164,311.087,315.155,320.195,324.524,328.466,331.886,334.145,340.427,344.369,347.825,351.767,354.026,361.514,365.582,370.451,374.393,376.562,378.821,388.577,392.519,394.778,397.307,404.795,408.863,413.192,417.134,420.554,422.813,427.52,430.976,433.235,437.942,440.804,445.727,449.669,453.125,455.384,458.246,463.169,465.698,469.154,474.023,476.282,481.115,485.183,488.639,491.501,495.749,498.008,505.496,509.564,512.426,516.368,519.824,522.353,526.421,528.815,531.074,533.603,538.643,540.902,543.764,548.687,551.216,554.519" svgx:width="0.44,0.31,0.27,0.46,0.43,0.23,0.67,0.51,0.82,0.82,0.51,0.55,0.37,0.23,0.25,0.27,0.42,0.43,0.55,0.37,0.43,0.23,0.23,0.44,0.55,0.53,0.23,0.27,0.55,0.53,0.27,0.42,0.44,0.31,0.43,0.23,0.27,0.3,0.23,0.42,0.53,0.44,0.55,0.47,0.43,0.37,0.23,0.69,0.43,0.37,0.43,0.23,0.82,0.44,0.53,0.43,0.23,0.23,1.07,0.43,0.23,0.27,0.82,0.44,0.47,0.43,0.37,0.23,0.51,0.37,0.23,0.51,0.31,0.53,0.43,0.37,0.23,0.31,0.53,0.27,0.37,0.53,0.23,0.52,0.44,0.37,0.31,0.46,0.23,0.82,0.44,0.31,0.43,0.37,0.27,0.44,0.25,0.23,0.27,0.55,0.23,0.31,0.53,0.27,0.37,0.23" style="fill:rgb(0,0,0);font-family:MinionPro-Regular;font-size:9.0px;stroke:none;">ative Commons license, and indicate if changes were made. The images or other third party material in this </text>
   <text y="255.996" x="155.639,159.626,163.001,165.782,168.23,172.073,174.386,178.247,180.227,184.214,187.589,191.45,193.43,195.878,200.837,204.68,206.993,211.808,216.596,220.457,225.245,227.225,229.673,234.632,236.612,239.393,244.235,248.096,250.076,254.063,257.438,260.219,262.667,266.51,268.823,272.684,274.727,278.066,280.046,286.067,289.442,293.303,297.29,300.071,302.519,306.722,310.583,312.563,318.584,323.21,330.617,338.024,342.65,347.609,350.948,352.928,355.241,357.689,361.532,365.393,370.352,373.691,377.552,379.64,381.62,386.435,391.394,393.707,397.568,400.907,404.246,406.226,408.674,413.633,418.421,420.869,424.712,428.699,431.48,435.341,440.129,442.109,446.735,449.516,454.358,458.219,461.594,467.795,470.243,473.582,477.443,479.423,481.871,486.83,488.81,492.797,494.777,498.62,501.995,505.856,510.644,513.092,515.873,517.853,520.166,522.614,527.573,531.434,533.414,536.195,540.821,542.801,545.582,550.424,554.249" svgx:width="0.44,0.37,0.31,0.27,0.42,0.25,0.43,0.23,0.44,0.37,0.43,0.23,0.27,0.55,0.42,0.25,0.53,0.53,0.43,0.53,0.23,0.27,0.55,0.23,0.31,0.53,0.43,0.23,0.44,0.37,0.31,0.27,0.42,0.25,0.43,0.22,0.37,0.23,0.67,0.37,0.43,0.44,0.31,0.27,0.46,0.43,0.23,0.67,0.51,0.82,0.82,0.51,0.55,0.37,0.23,0.25,0.27,0.42,0.43,0.55,0.37,0.43,0.23,0.23,0.53,0.55,0.25,0.43,0.37,0.37,0.23,0.27,0.55,0.53,0.27,0.42,0.44,0.31,0.43,0.53,0.23,0.51,0.31,0.53,0.43,0.37,0.69,0.27,0.37,0.43,0.23,0.27,0.55,0.23,0.44,0.23,0.42,0.37,0.43,0.53,0.27,0.31,0.23,0.25,0.27,0.55,0.43,0.23,0.31,0.51,0.23,0.31,0.53,0.43,0.23" style="fill:rgb(0,0,0);font-family:MinionPro-Regular;font-size:9.0px;stroke:none;">article are included in the article’s Creative Commons license, unless indicated otherwise in a credit line to the </text>
   <text y="265.995" x="155.639,163.01,166.961,169.706,173.531,176.87,179.282,183.233,185.51,187.562,189.506,192.575,195.239,197.183,204.554,208.505,211.25,215.075,218.414,220.826,224.777,227.054,228.998,231.41,234.713,236.657,241.58,246.17,248.915,250.859,253.271,258.194,262.001,264.278,269.057,273.809,277.634,282.386,284.33,286.742,291.665,293.609,296.354,301.16,304.985,306.929,310.88,314.219,316.964,319.376,323.183,325.46,329.285,331.292,334.595,336.539,342.524,345.863,349.688,353.639,356.384,358.796,362.963,366.788,368.732,374.717,379.307,386.678,394.049,398.639,403.562,406.865,408.809,411.086,413.498,417.305,421.13,426.053,429.356,433.181,435.125,439.076,443.999,448.751,450.695,454.826,459.416,464.195,467.534,469.478,471.89,476.813,479.558,483.383,488.306,493.058,496.883,501.635,503.579,508.358,511.661,515.486,517.43,519.842,523.145,525.089,530.012,534.602,537.347,539.291,544.007,547.832,551.171" svgx:width="0.82,0.44,0.31,0.43,0.37,0.27,0.44,0.25,0.23,0.23,0.34,0.3,0.23,0.82,0.44,0.31,0.43,0.37,0.27,0.44,0.25,0.23,0.27,0.37,0.23,0.55,0.51,0.31,0.23,0.27,0.55,0.42,0.25,0.53,0.53,0.43,0.53,0.23,0.27,0.55,0.23,0.31,0.53,0.43,0.23,0.44,0.37,0.31,0.27,0.42,0.25,0.43,0.22,0.37,0.23,0.67,0.37,0.43,0.44,0.31,0.27,0.46,0.43,0.23,0.67,0.51,0.82,0.82,0.51,0.55,0.37,0.23,0.25,0.27,0.42,0.43,0.55,0.37,0.43,0.23,0.44,0.55,0.53,0.23,0.46,0.51,0.53,0.37,0.23,0.27,0.55,0.31,0.43,0.55,0.53,0.43,0.53,0.23,0.53,0.37,0.43,0.23,0.27,0.37,0.23,0.55,0.51,0.31,0.23,0.52,0.43,0.37,0.36" style="fill:rgb(0,0,0);font-family:MinionPro-Regular;font-size:9.0px;stroke:none;">material. If material is not included in the article’s Creative Commons license and your intended use is not per-</text>
   <text y="275.994" x="155.639,163.01,165.422,168.167,170.912,174.737,179.489,181.226,185.798,189.929,191.666,194.969,197.714,201.665,204.41,209.189,211.934,216.524,219.863,223.994,225.731,229.07,232.895,237.107,241.886,244.163,248.114,250.859,253.271,257.861,262.784,264.521,269.111,272.45,274.187,278.012,282.26,286.067,289.892,293.717,298.469,301.772,303.509,306.254,311.06,314.885,316.622,321.338,325.163,328.502,335.873,338.285,341.03,343.775,347.6,352.352,354.089,358.868,362.171,365.996,368.048,369.785,373.916,378.506,383.285,385.022,391.187,393.599,395.876,398.153,399.89,404.813,408.638,412.464,417.216,418.953,421.698,426.288,428.025,432.615,437.186,439.931,443.882,446.294,451.217,452.954,457.67,461.495,464.834,472.205,474.617,477.92,481.223,483.635,488.225,493.148,494.885,499.637,502.049,505.388,509.213,513.02,515.765,518.042,522.173,523.91,526.574,529.913,534.503,541.874,543.611,546.356,551.162,554.987" svgx:width="0.82,0.27,0.31,0.31,0.43,0.53,0.23,0.51,0.46,0.23,0.37,0.31,0.44,0.31,0.53,0.31,0.51,0.37,0.46,0.23,0.37,0.43,0.47,0.53,0.25,0.44,0.31,0.27,0.51,0.55,0.23,0.51,0.37,0.23,0.43,0.47,0.42,0.43,0.43,0.53,0.37,0.23,0.31,0.53,0.43,0.23,0.52,0.43,0.37,0.82,0.27,0.31,0.31,0.43,0.53,0.23,0.53,0.37,0.43,0.23,0.23,0.46,0.51,0.53,0.23,0.69,0.27,0.25,0.25,0.23,0.55,0.43,0.43,0.53,0.23,0.31,0.51,0.23,0.51,0.51,0.31,0.44,0.27,0.55,0.23,0.52,0.43,0.37,0.82,0.27,0.37,0.37,0.27,0.51,0.55,0.23,0.53,0.27,0.37,0.43,0.42,0.31,0.25,0.46,0.23,0.3,0.37,0.51,0.82,0.23,0.31,0.53,0.43,0.23" style="fill:rgb(0,0,0);font-family:MinionPro-Regular;font-size:9.0px;stroke:none;">mitted by statutory regulation or exceeds the permitted use, you will need to obtain permission directly from the </text>
   <text y="285.993" x="155.639,159.446,164.036,168.752,172.883,176.222,178.634,182.846,187.652,190.397,192.233,197.039,201.629,203.906,208.658,212.483,215.822,217.874,219.71,225.263,229.853,231.689,235.856,238.268,242.093,248.258,250.094,254.045,255.881,259.688,264.278,268.994,273.125,274.961,279.551,282.215,284.051,286.796,291.602,294.014,297.317,299.153,301.43,303.842,307.649,311.474,316.397,319.7,323.525,325.577,327.413,331.58,333.992,337.295,339.707,342.452" svgx:width="0.42,0.51,0.52,0.46,0.37,0.27,0.47,0.53,0.31,0.23,0.53,0.51,0.25,0.53,0.43,0.37,0.23,0.23,0.62,0.51,0.23,0.46,0.27,0.43,0.69,0.23,0.44,0.23,0.42,0.51,0.52,0.46,0.23,0.51,0.3,0.23,0.31,0.53,0.27,0.37,0.23,0.25,0.27,0.42,0.43,0.55,0.37,0.43,0.23,0.23,0.46,0.27,0.37,0.27,0.31,0.23" style="fill:rgb(0,0,0);font-family:MinionPro-Regular;font-size:9.0px;stroke:none;">copyright holder. To view a copy of this license, visit </text>
   <text y="285.993" x="344.288,349.094,351.839,354.584,359.3,361.352,364.331,367.31,371.117,374.456,378.281,382.232,384.977,387.389,391.556,395.381,399.188,403.778,411.149,418.52,423.11,428.033,431.336,433.388,437.978,441.317,445.529,448.508,450.785,453.197,457.004,460.829,465.752,469.055,472.88,476.183,479.162,483.734,487.865,490.844,495.164,497.216,501.536" svgx:width="0.53,0.31,0.31,0.52,0.23,0.33,0.33,0.42,0.37,0.43,0.44,0.31,0.27,0.46,0.43,0.42,0.51,0.82,0.82,0.51,0.55,0.37,0.23,0.51,0.37,0.47,0.33,0.25,0.27,0.42,0.43,0.55,0.37,0.43,0.37,0.33,0.51,0.46,0.33,0.48,0.23,0.48,0.33" style="fill:rgb(0,0,255);font-family:MinionPro-Regular;font-size:9.0px;stroke:none;">http://creativecommons.org/licenses/by/4.0/</text>
   <text y="285.993" x="504.515" svgx:width="0.23" style="fill:rgb(0,0,0);font-family:MinionPro-Regular;font-size:9.0px;stroke:none;">.</text>
   <text y="295.992" x="155.639" svgx:width="0.23" style="fill:rgb(0,0,0);font-family:MinionPro-Regular;font-size:9.0px;stroke:none;"> </text>
   <text y="305.991" x="155.639,161.957,163.793,173.432,177.257,179.093,185.312,190.091,192.836,197.642,202.232,205.571,208.685,211.988,215.102,216.938,221.258,225.578,229.898" svgx:width="0.7,0.23,1.07,0.43,0.23,0.69,0.53,0.31,0.53,0.51,0.37,0.35,0.37,0.35,0.23,0.48,0.48,0.48,0.48" style="fill:rgb(0,0,0);font-family:MinionPro-Regular;font-size:9.0px;stroke:none;">© The Author(s) 2019</text>
  </g>
 </g>
</svg>
