<?xml version="1.0" encoding="UTF-8"?>
<svg height="824.036" width="4089.14" xmlns="http://www.w3.org/2000/svg">
 <g id="page" xmlns:svgx="http://www.xml-cml.org/schema/svgx">
  <g begin="text">
   <text y="62.979" x="76.535,84.059,87.598,90.252,93.352,96.452,98.668,102.207,104.422" svgx:width="0.94,0.44,0.33,0.39,0.39,0.28,0.44,0.28,0.39" style="fill:rgb(0,0,0);font-family:URWPalladioL-Ital;font-size:7.97px;stroke:none;">Materials</text>
   <text y="62.979" x="109.515,113.5,117.485,121.47" svgx:width="0.5,0.5,0.5,0.5" style="fill:rgb(0,0,0);font-family:URWPalladioL-Bold;font-size:7.97px;stroke:none;">2019</text>
   <text y="62.979" x="125.455" svgx:width="0.25" style="fill:rgb(0,0,0);font-family:URWPalladioL-Roma;font-size:7.97px;stroke:none;">,</text>
   <text y="62.979" x="129.44,133.425" svgx:width="0.5,0.5" style="fill:rgb(0,0,0);font-family:URWPalladioL-Ital;font-size:7.97px;stroke:none;">12</text>
   <text y="62.979" x="137.41,139.4025,141.395,145.38,149.365,153.35,157.335,495.794,499.779,501.772,506.123,508.7531,510.77,514.755" svgx:width="0.25,0.55,0.5,0.5,0.5,0.5,0.55,0.5,0.55,0.55,0.33,0.55,0.5,0.5" style="fill:rgb(0,0,0);font-family:URWPalladioL-Roma;font-size:7.97px;stroke:none;">, 2508 5 of 11</text>
   <text y="97.848" x="76.226,82.455,88.369,93.237,97.546,102.3268,105.157,110.705,116.325,120.633,125.501,129.515,135.256,140.337,143.65,146.597,152.145,158.059,162.2422,165.112,174.085,179.166,184.7436,187.559,193.179,197.9598,200.78,206.989,213.116,217.8968,220.728,224.04,229.518,232.322,235.635,241.549,246.3298,249.16,252.544,257.625,262.137,265.4238,268.183,271.496,277.41,282.491,285.7778,288.548,294.198,298.212,303.293,306.25,312.0268,314.897,320.517,326.065,332.193,338.107,344.316,349.397,353.411,358.9886,361.805,368.013" svgx:width="0.61,0.58,0.48,0.42,0.48,0.55,0.55,0.55,0.42,0.48,0.4,0.56,0.5,0.33,0.29,0.55,0.58,0.42,0.55,0.88,0.5,0.56,0.55,0.55,0.48,0.55,0.61,0.6,0.48,0.55,0.33,0.55,0.55,0.33,0.58,0.48,0.55,0.33,0.5,0.44,0.33,0.55,0.33,0.58,0.5,0.33,0.55,0.56,0.4,0.5,0.29,0.58,0.55,0.55,0.55,0.6,0.58,0.61,0.5,0.4,0.56,0.55,0.61,0.29" style="fill:rgb(0,0,0);font-family:URWPalladioL-Roma;font-size:9.96px;stroke:none;">These observations may be due to the fact that grain boundary di</text>
   <text y="97.848" x="370.967" svgx:width="0.61" style="fill:rgb(0,0,0);font-family:Rpxr;font-size:9.96px;stroke:none;">ﬀ</text>
   <text y="97.848" x="377.145,383.273,387.581,390.538,396.087,401.86379999999997,404.745,410.293,414.277,417.04,419.998,425.078,428.391,431.704,434.661,439.173,443.9538,446.784,452.993" svgx:width="0.6,0.42,0.29,0.55,0.58,0.55,0.55,0.4,0.55,0.29,0.5,0.33,0.33,0.29,0.44,0.48,0.55,0.61,0.29" style="fill:rgb(0,0,0);font-family:URWPalladioL-Roma;font-size:9.96px;stroke:none;">usion or lattice di</text>
   <text y="97.848" x="455.945" svgx:width="0.61" style="fill:rgb(0,0,0);font-family:Rpxr;font-size:9.96px;stroke:none;">ﬀ</text>
   <text y="97.848" x="462.124,468.252,472.56,475.517,481.066,486.84279999999995,489.713,495.262,499.774,504.286,510.413,514.427" svgx:width="0.6,0.42,0.29,0.55,0.58,0.55,0.55,0.44,0.44,0.6,0.4,0.42" style="fill:rgb(0,0,0);font-family:URWPalladioL-Roma;font-size:9.96px;stroke:none;">usion occurs</text>
   <text y="111.358" x="76.535,85.332,90.772,94.527,99.3078,101.79,105.725,110.707,116.694,119.593,125.681,128.58,134.1576,136.609,141.591,144.8778,147.329,153.127,156.027,161.566,167.364,172.136,176.12,178.562,181.81,186.582,195.379,201.366,206.138,210.074,215.055,218.303,224.31,228.066,232.838,237.0212,239.553,245.64,251.648,255.583,258.482,264.28,269.8576,272.31,275.558,281.356,286.1368,288.619,293.042,296.798,301.57,306.342,312.318,314.82,320.908,325.68,328.997,334.437,338.372,347.169,352.15,355.398,358.297,363.737,369.5138,372.026,378.013,381.769,387.209,391.632,396.404,400.628,404.853" svgx:width="0.88,0.55,0.4,0.48,0.55,0.4,0.5,0.6,0.29,0.61,0.29,0.56,0.55,0.5,0.33,0.55,0.58,0.29,0.56,0.58,0.48,0.4,0.55,0.33,0.48,0.88,0.6,0.48,0.4,0.5,0.33,0.6,0.4,0.48,0.42,0.55,0.61,0.6,0.4,0.29,0.58,0.56,0.55,0.33,0.58,0.48,0.55,0.44,0.4,0.48,0.48,0.6,0.55,0.61,0.48,0.33,0.55,0.4,0.88,0.5,0.33,0.29,0.55,0.58,0.55,0.6,0.4,0.55,0.44,0.48,0.42,0.42,0.25" style="fill:rgb(0,0,0);font-family:URWPalladioL-Roma;font-size:9.96px;stroke:none;">more rapidly at higher temperatures during the creep deformation process.</text>
  </g>
  <g begin="text">
   <text y="75.976" x="76.98,84.519,88.069,90.734,93.846,96.958,99.184,102.734,104.961,108.072" svgx:width="0.94,0.44,0.33,0.39,0.39,0.28,0.44,0.28,0.39,0.25" style="fill:rgb(0,0,0);font-family:PalatinoLinotype,Italic;font-size:7.98px;stroke:none;">Materials </text>
   <text y="75.976" x="110.04,114.06,118.081,122.101" svgx:width="0.5,0.5,0.5,0.5" style="fill:rgb(0,0,0);font-family:PalatinoLinotype,Bold;font-size:7.98px;stroke:none;">2019</text>
   <text y="75.976" x="126.12,128.1" svgx:width="0.25,0.25" style="fill:rgb(0,0,0);font-family:PalatinoLinotype;font-size:7.98px;stroke:none;">, </text>
   <text y="75.976" x="130.08,134.1" svgx:width="0.5,0.5" style="fill:rgb(0,0,0);font-family:PalatinoLinotype,Italic;font-size:7.98px;stroke:none;">12</text>
   <text y="75.976" x="138.06,140.061,142.041,146.164,148.144,152.586,158.863,164.199,166.238,171.064,175.945,180.825,186.161,188.141,193.477,198.357,204.124,206.819,211.7,219.74,221.735,493.02,497.039,499.034,500.579,504.964,507.605,509.6,511.145,515.163,519.182" svgx:width="0.25,0.25,0.52,0.25,0.56,0.79,0.67,0.25,0.6,0.61,0.61,0.67,0.25,0.67,0.61,0.72,0.34,0.61,1.0,0.25,0.55,0.5,0.25,0.55,0.55,0.33,0.25,0.55,0.5,0.5,0.25" style="fill:rgb(0,0,0);font-family:PalatinoLinotype;font-size:7.98px;stroke:none;">, x FOR PEER REVIEW 5 of 11 </text>
   <text y="814.036" x="76.98" svgx:width="0.25" style="fill:rgb(0,0,0);font-family:TimesNewRoman;font-size:9.0px;stroke:none;"> </text>
   <text y="100.876" x="76.98,80.225,86.034,90.812,93.092,96.452,101.492,105.919,109.164,111.444,114.689,120.499,125.539,128.777,131.056,136.605,140.542,145.582,148.521,154.331,156.61,162.129,167.578,173.597,179.407,185.506,190.494,194.431,199.979,202.259,208.359,211.299,214.614,217.974,223.994,228.221,231.16,236.621,242.43,244.71,250.159,254.095,256.375,259.314,264.354,267.6,270.845,273.784,278.212,282.989,285.269,291.368,294.299,297.632,300.964,307.0,311.244,314.156,319.622,325.448,327.728,333.193,337.637,342.081,348.118,352.071,356.315,358.595,367.436,372.837,376.79,381.585,383.864,387.818,392.823,398.839,401.751,407.868,410.779,416.345,418.565,423.57,426.832,429.051,434.878,437.789,443.355,449.181,453.976,457.929,460.209,463.471,468.266,477.107,483.124,487.863,491.824,496.829,500.091,506.127,510.081,514.82,519.142" svgx:width="0.33,0.58,0.48,0.25,0.33,0.5,0.44,0.33,0.25,0.33,0.58,0.5,0.33,0.25,0.56,0.4,0.5,0.29,0.58,0.25,0.55,0.55,0.6,0.58,0.61,0.5,0.4,0.56,0.25,0.61,0.29,0.33,0.33,0.6,0.42,0.29,0.55,0.58,0.25,0.55,0.4,0.25,0.29,0.5,0.33,0.33,0.29,0.44,0.48,0.25,0.61,0.29,0.33,0.33,0.6,0.42,0.29,0.55,0.58,0.25,0.55,0.44,0.44,0.6,0.4,0.42,0.25,0.88,0.55,0.4,0.48,0.25,0.4,0.5,0.6,0.29,0.61,0.29,0.56,0.25,0.5,0.33,0.25,0.58,0.29,0.56,0.58,0.48,0.4,0.25,0.33,0.48,0.88,0.6,0.48,0.4,0.5,0.33,0.6,0.4,0.48,0.42,0.25" style="fill:rgb(0,0,0);font-family:PalatinoLinotype;font-size:10.02px;stroke:none;">the fact that grain boundary diffusion or lattice diffusion occurs more rapidly at higher temperatures </text>
   <text y="114.376" x="76.98,83.099,89.137,93.093,96.006,101.766,107.344,109.865,113.129,118.957,123.754,126.274,130.72,134.62,139.417,144.213,150.232,152.752,158.871,163.667,167.002,172.402,176.362,185.205,190.212,193.39,196.33,201.797,207.626,210.146,216.164,220.12,225.587,230.033,234.83,239.076,243.322,245.825" svgx:width="0.61,0.6,0.4,0.29,0.58,0.56,0.25,0.33,0.58,0.48,0.25,0.44,0.4,0.48,0.48,0.6,0.25,0.61,0.48,0.33,0.55,0.4,0.88,0.5,0.33,0.29,0.55,0.58,0.25,0.6,0.4,0.55,0.44,0.48,0.42,0.42,0.25,0.25" style="fill:rgb(0,0,0);font-family:PalatinoLinotype;font-size:10.02px;stroke:none;">during the creep deformation process. </text>
   <text y="439.875" x="516.598" svgx:width="0.25" style="fill:rgb(0,0,0);font-family:PalatinoLinotype;font-size:10.02px;stroke:none;"> </text>
   <text y="456.136" x="98.22,103.246,106.248,111.257,116.76,120.265,124.77,126.87,131.374,133.629" svgx:width="0.56,0.33,0.56,0.61,0.39,0.5,0.25,0.5,0.25,0.25" style="fill:rgb(0,0,0);font-family:PalatinoLinotype,Bold;font-size:9.0px;stroke:none;">Figure 3. </text>
   <text y="456.136" x="135.72,141.738,146.244,151.749,154.375,158.815,161.454,163.554,169.059,171.639,175.461,178.402,181.964,184.59,189.573,194.972,197.913,200.539,205.459,210.703,212.803,215.743,221.143,226.387,230.389,233.33,235.956,240.876,246.12,248.22,253.635,256.261,261.181,264.122,267.944,269.985,277.496,280.122,283.062,288.306,290.406,294.912,297.853,302.773,310.725,313.351,317.34,319.44,323.26,328.419,332.923,338.335,342.155,347.396,352.313,355.251,359.071,361.171,366.088,369.09,371.189,375.693,377.793,381.352,385.611,391.023,394.582,398.897,402.717,407.031,412.273,415.211,419.714,422.653,425.276,430.364,434.679,436.779,442.02,446.46,451.701,456.618,460.618,464.177,469.184,473.004,475.942,480.446,483.069,485.692,488.316,493.557,497.937" svgx:width="0.67,0.5,0.61,0.29,0.5,0.29,0.25,0.61,0.29,0.42,0.33,0.4,0.29,0.55,0.6,0.33,0.29,0.55,0.58,0.25,0.33,0.6,0.58,0.44,0.33,0.29,0.55,0.58,0.25,0.6,0.29,0.55,0.33,0.42,0.25,0.83,0.29,0.33,0.58,0.25,0.5,0.33,0.55,0.88,0.29,0.44,0.25,0.42,0.58,0.5,0.6,0.42,0.58,0.55,0.33,0.42,0.25,0.55,0.33,0.25,0.5,0.25,0.4,0.48,0.6,0.4,0.48,0.42,0.48,0.58,0.33,0.5,0.33,0.29,0.56,0.48,0.25,0.58,0.5,0.58,0.55,0.44,0.4,0.56,0.42,0.33,0.5,0.29,0.29,0.29,0.58,0.48,0.25" style="fill:rgb(0,0,0);font-family:PalatinoLinotype;font-size:9.0px;stroke:none;">Radial distribution function plots with atomic snapshots of a representative nanocrystalline </text>
   <text y="469.156" x="98.22,105.698,108.317,115.318,117.938,120.578,128.524,133.438,138.936,143.196,145.816,148.456,155.961,158.581,161.515,166.753,169.393,173.893,176.144,180.644,183.284,188.522,196.468,199.048,203.044,207.958,212.458,216.013,219.829,224.14,227.696,230.336,235.34,238.895,243.395,246.015,251.252,253.503,256.144,260.14,265.001,267.62,272.534,276.089,280.32,285.814,288.455,292.95,296.762,299.402,304.807,309.113,312.664,315.304,321.68,326.4,331.831,334.412,339.906,345.328,348.879,351.494,356.727,361.726,364.367,368.358,371.821,376.132,380.443,385.852,388.492,393.99,398.25,401.248,406.162,409.717,417.662,422.162,425.097,427.717,432.63,437.868,440.509,443.506,448.42,451.975,454.616" svgx:width="0.83,0.29,0.78,0.29,0.25,0.88,0.55,0.61,0.48,0.29,0.25,0.83,0.29,0.33,0.58,0.25,0.5,0.25,0.5,0.25,0.58,0.88,0.25,0.44,0.55,0.5,0.4,0.42,0.48,0.4,0.25,0.56,0.4,0.5,0.29,0.58,0.25,0.25,0.44,0.55,0.29,0.55,0.4,0.48,0.61,0.25,0.5,0.42,0.25,0.6,0.48,0.4,0.25,0.71,0.52,0.6,0.25,0.61,0.6,0.4,0.29,0.58,0.56,0.25,0.44,0.4,0.48,0.48,0.6,0.25,0.61,0.48,0.33,0.55,0.4,0.88,0.5,0.33,0.29,0.55,0.58,0.25,0.33,0.55,0.4,0.25,0.33" style="fill:rgb(0,0,0);font-family:PalatinoLinotype;font-size:9.0px;stroke:none;">NiAl model with 4.5 nm coarser grain, colored as per CSP during creep deformation for (</text>
   <text y="469.156" x="457.561" svgx:width="0.5" style="fill:rgb(0,0,0);font-family:PalatinoLinotype,Bold;font-size:9.0px;stroke:none;">a</text>
   <text y="469.156" x="462.061,465.052,467.693,472.186,474.431,477.071" svgx:width="0.33,0.25,0.5,0.25,0.25,0.33" style="fill:rgb(0,0,0);font-family:PalatinoLinotype;font-size:9.0px;stroke:none;">) 0, (</text>
   <text y="469.156" x="480.061" svgx:width="0.61" style="fill:rgb(0,0,0);font-family:PalatinoLinotype,Bold;font-size:9.0px;stroke:none;">b</text>
   <text y="469.156" x="485.581,488.521,491.161,495.661,497.941" svgx:width="0.33,0.25,0.5,0.25,0.25" style="fill:rgb(0,0,0);font-family:PalatinoLinotype;font-size:9.0px;stroke:none;">) 4, </text>
   <text y="482.176" x="98.22" svgx:width="0.33" style="fill:rgb(0,0,0);font-family:PalatinoLinotype;font-size:9.0px;stroke:none;">(</text>
   <text y="482.176" x="101.22" svgx:width="0.44" style="fill:rgb(0,0,0);font-family:PalatinoLinotype,Bold;font-size:9.0px;stroke:none;">c</text>
   <text y="482.176" x="105.241,108.249,110.529,115.039,119.479,121.741,124.02" svgx:width="0.33,0.25,0.5,0.5,0.25,0.25,0.33" style="fill:rgb(0,0,0);font-family:PalatinoLinotype;font-size:9.0px;stroke:none;">) 20, (</text>
   <text y="482.176" x="127.021" svgx:width="0.61" style="fill:rgb(0,0,0);font-family:PalatinoLinotype,Bold;font-size:9.0px;stroke:none;">d</text>
   <text y="482.176" x="132.481,135.483,137.762,142.267,146.706,148.986,154.399,158.22,160.5,165.931,171.173,176.676,180.991,184.551,186.831,189.77,195.012,199.328,201.607,205.428,208.367,211.927,216.187,220.007,223.828,226.048,228.673,232.988,238.077,242.337,244.961,248.782,251.062,255.98,258.982,261.262,265.701,267.981,272.486,274.706,281.576,287.016,291.521,293.8,298.305,301.244,303.524,308.028,312.533,317.037,321.477,323.756,328.261,333.503,339.006,341.286,345.79,350.295,354.799,359.303,361.583,368.062,370.283" svgx:width="0.33,0.25,0.5,0.5,0.25,0.6,0.42,0.25,0.6,0.58,0.61,0.48,0.4,0.25,0.33,0.58,0.48,0.25,0.42,0.33,0.4,0.48,0.42,0.42,0.25,0.29,0.48,0.56,0.48,0.29,0.42,0.25,0.55,0.33,0.25,0.5,0.25,0.5,0.25,0.76,0.6,0.5,0.25,0.5,0.33,0.25,0.5,0.5,0.5,0.5,0.25,0.5,0.58,0.61,0.25,0.5,0.5,0.5,0.5,0.25,0.73,0.25,0.25" style="fill:rgb(0,0,0);font-family:PalatinoLinotype;font-size:9.0px;stroke:none;">) 40 ps under the stress levels of 2.0 GPa at 1200 and 1400 K. </text>
   <text y="507.316" x="98.22,106.545,112.016,115.283,120.293,125.834,128.751,134.27,136.79,139.669,142.936,148.768,153.567,156.387,159.724,162.641,166.541,170.79,174.057,176.563,179.443,183.691,188.491,192.94,198.411,204.17,210.292,213.111,218.121,223.953,230.075,232.954,236.221,242.053,244.969,248.928,255.049,257.929,263.951,268.69,273.7,279.271,283.52,286.4,290.782,295.822,301.653,304.533,310.073,314.873,317.753,322.135,325.074,329.814,334.794,338.752,341.669,347.24,350.059,354.308,359.108,363.907,369.739,372.558,375.896,379.854,385.325,394.087,396.966,400.233,406.065,410.864,413.744,420.437,428.117,433.688,436.568,441.017,447.058,450.958,456.6,461.399,465.648,468.528,471.444,477.203,480.083,485.654,488.571,494.142,500.183,504.083,508.883,511.703,516.713,519.219" svgx:width="0.83,0.55,0.33,0.5,0.55,0.29,0.56,0.25,0.25,0.33,0.58,0.48,0.25,0.33,0.29,0.4,0.42,0.33,0.25,0.25,0.42,0.48,0.44,0.55,0.58,0.61,0.25,0.5,0.58,0.61,0.25,0.33,0.58,0.29,0.4,0.61,0.25,0.6,0.48,0.5,0.56,0.42,0.25,0.44,0.5,0.58,0.25,0.55,0.48,0.25,0.44,0.29,0.48,0.5,0.4,0.29,0.56,0.25,0.42,0.48,0.48,0.58,0.25,0.33,0.4,0.55,0.88,0.25,0.33,0.58,0.48,0.25,0.67,0.77,0.56,0.25,0.44,0.6,0.4,0.56,0.48,0.42,0.25,0.29,0.58,0.25,0.56,0.29,0.56,0.6,0.4,0.48,0.25,0.5,0.25,0.25" style="fill:rgb(0,0,0);font-family:PalatinoLinotype;font-size:10.02px;stroke:none;">Notably, the first, second and third peaks can be clearly seen from the RDF curves in Figure 3. </text>
   <text y="520.816" x="76.98,83.128,88.965,91.888,96.143,99.022,102.366,105.288,110.807,116.855,120.819,125.559,128.498,132.463,137.202,140.546,145.351,149.316,153.517,156.457,159.695,165.156,168.096,171.334,177.153,181.959,184.898,189.354,194.754,200.231,204.195,210.323,213.246,219.005,224.045,227.283,232.083,236.338,239.277,244.678,248.038,250.918,255.898,258.838,264.414,267.337,273.004,277.81,283.569,286.509,292.536,297.552,301.517,304.755,307.678,312.06,314.939,319.739,322.251,325.191,333.552,336.475,339.713,345.532,348.472,351.71,357.529,362.269,365.208,371.236,375.136,380.613,386.16,391.176,396.723,399.645,402.525,405.448,408.686,414.263,417.202,422.603,425.963,428.903,434.965,437.905,442.159,445.397,449.362,452.284,457.831,463.879,467.057,469.997,475.474,481.311,484.251,489.651,493.012,495.891,501.368,504.606,510.443,515.249,519.213" svgx:width="0.61,0.58,0.29,0.42,0.25,0.33,0.29,0.56,0.6,0.4,0.48,0.25,0.4,0.48,0.33,0.48,0.4,0.42,0.25,0.33,0.55,0.25,0.33,0.58,0.48,0.25,0.44,0.55,0.55,0.4,0.61,0.29,0.58,0.5,0.33,0.48,0.42,0.25,0.55,0.33,0.25,0.5,0.25,0.56,0.29,0.56,0.48,0.58,0.25,0.6,0.5,0.4,0.33,0.29,0.44,0.29,0.48,0.25,0.25,0.83,0.29,0.33,0.58,0.25,0.33,0.58,0.48,0.25,0.6,0.4,0.55,0.55,0.5,0.55,0.29,0.29,0.29,0.33,0.56,0.25,0.55,0.33,0.25,0.61,0.29,0.42,0.33,0.4,0.29,0.55,0.6,0.33,0.29,0.55,0.58,0.25,0.55,0.33,0.25,0.55,0.33,0.58,0.48,0.4,0.25" style="fill:rgb(0,0,0);font-family:PalatinoLinotype;font-size:10.02px;stroke:none;">This figure refers to the coordinates of a given particle, with the probability of distribution of other </text>
   <text y="534.316" x="76.98,83.0,88.008,91.964,95.229,98.144,102.591,105.506,110.245,114.492,116.712,119.626,125.456,127.675,131.922,137.941,142.949,147.397,152.194,154.698,156.978,160.243,166.072,170.87,173.15,177.396,183.156,188.164,192.12,198.06,200.339,206.359,211.156,216.164,221.683,225.93,228.21,232.11,236.91,242.929,246.886,251.683,255.93,260.728,266.557,269.822,272.102,277.571,281.527,287.647,292.444,296.401,298.905,301.139,306.146,311.905,318.024,320.303,323.567,329.395,334.192,336.471,340.426,345.827,351.865,357.693,363.812,366.091,372.03,376.83,381.837,387.356,391.602,393.88,397.836,402.632,408.651,412.606,417.346,421.608,426.404,432.163,435.428,437.706,443.825,446.739,450.984,456.452,460.352,466.471,471.268,475.223,477.726,480.005,486.144,491.972,496.769,499.047,502.382,505.295,509.25,513.496,516.76,519.16" svgx:width="0.6,0.5,0.4,0.33,0.29,0.44,0.29,0.48,0.42,0.25,0.29,0.58,0.25,0.42,0.6,0.5,0.44,0.48,0.25,0.25,0.33,0.58,0.48,0.25,0.42,0.58,0.5,0.4,0.6,0.25,0.6,0.48,0.5,0.56,0.42,0.25,0.4,0.48,0.6,0.4,0.48,0.42,0.48,0.58,0.33,0.25,0.55,0.4,0.61,0.48,0.4,0.25,0.25,0.5,0.58,0.61,0.25,0.33,0.58,0.48,0.25,0.4,0.55,0.6,0.58,0.61,0.25,0.6,0.48,0.5,0.56,0.42,0.25,0.4,0.48,0.6,0.4,0.48,0.42,0.48,0.58,0.33,0.25,0.61,0.29,0.42,0.55,0.4,0.61,0.48,0.4,0.25,0.25,0.61,0.58,0.48,0.25,0.33,0.29,0.4,0.42,0.33,0.25,0.25" style="fill:rgb(0,0,0);font-family:PalatinoLinotype;font-size:10.02px;stroke:none;">particles in space; the sharp peaks represent order, and the round peaks represent disorder. The first, </text>
   <text y="547.816" x="76.98,81.226,86.023,90.469,95.936,101.765,107.883,110.386,112.89099999999999,114.586,119.593,125.421,131.483,133.988,135.683,138.947,144.775,147.689,151.644,157.763,160.268,162.023,168.042,172.838,177.845,183.413,187.659,190.164,191.859,195.759,200.559,206.577,210.532,215.329,219.575,224.372,230.2,233.464,235.969,237.724,240.988,246.816,251.613,254.118,255.813,259.147,262.061,265.961,270.207,273.471,275.976,277.731,280.995,286.823,290.779,295.575,300.372,302.877,304.632,310.65,316.051,320.297,323.211,326.475,329.388,334.856,340.684,344.93,347.435,349.19,352.104,357.932,360.437,362.192,370.544,376.303,379.217,383.663,389.491,391.996,393.751,397.015,402.844,407.64,410.145,411.9,417.919,422.926,426.881,430.145,433.059,437.441,440.355,445.151,447.656,449.411,455.17,460.21,464.456,466.961,468.716,471.98,477.809,482.605,485.11,486.865,492.624,495.504,501.072,506.9,511.697,515.942,519.207" svgx:width="0.42,0.48,0.44,0.55,0.58,0.61,0.25,0.25,0.55,0.5,0.58,0.61,0.25,0.55,0.33,0.58,0.29,0.4,0.61,0.25,0.55,0.6,0.48,0.5,0.56,0.42,0.25,0.55,0.4,0.48,0.6,0.4,0.48,0.42,0.48,0.58,0.33,0.25,0.55,0.33,0.58,0.48,0.25,0.55,0.33,0.29,0.4,0.42,0.33,0.25,0.55,0.33,0.58,0.4,0.48,0.48,0.25,0.55,0.6,0.55,0.42,0.29,0.33,0.29,0.55,0.58,0.42,0.25,0.55,0.29,0.58,0.25,0.55,0.83,0.58,0.29,0.44,0.58,0.25,0.55,0.33,0.58,0.48,0.25,0.55,0.6,0.5,0.4,0.33,0.29,0.44,0.29,0.48,0.25,0.55,0.58,0.5,0.42,0.25,0.55,0.33,0.58,0.48,0.25,0.55,0.58,0.29,0.56,0.58,0.48,0.42,0.33,0.25" style="fill:rgb(0,0,0);font-family:PalatinoLinotype;font-size:10.02px;stroke:none;">second, and third peaks represent the first three positions in which the particle has the highest </text>
   <text y="561.315" x="76.98,82.994,86.944,92.407,97.94,102.942,108.474,111.383,114.292,117.2,120.46,126.022,128.542,133.943,137.243,139.763,145.226,149.667,154.108,160.142,164.092,168.043,172.834,178.658,183.04,187.831,190.351,193.68,197.581,203.043,211.882,214.402,217.661,223.484,228.276,230.796,235.037,241.05,245.842,250.283,253.192,256.521,259.43,264.221,270.335,272.795,277.797,281.056,286.519,295.357,297.855" svgx:width="0.6,0.4,0.55,0.55,0.5,0.55,0.29,0.29,0.29,0.33,0.56,0.25,0.55,0.33,0.25,0.55,0.44,0.44,0.6,0.4,0.4,0.48,0.58,0.44,0.48,0.25,0.33,0.4,0.55,0.88,0.25,0.33,0.58,0.48,0.25,0.42,0.6,0.48,0.44,0.29,0.33,0.29,0.48,0.61,0.25,0.5,0.33,0.55,0.88,0.25,0.25" style="fill:rgb(0,0,0);font-family:PalatinoLinotype;font-size:10.02px;stroke:none;">probability of occurrence from the specified atom. </text>
   <text y="574.815" x="98.22,101.596,104.863,107.802,112.25,117.259,123.09,126.029,131.569,136.368,139.308,143.555,148.295,153.094,158.853,161.793,165.129,169.086,174.556,183.401,186.341,189.607,195.437,200.236,203.176,207.558,213.617,217.518,223.159,227.957,232.205,235.145,240.614,243.951,246.83,252.4,255.316,260.886,266.927,270.884,275.623,278.503,283.512,286.452,289.718,295.548,300.557,303.823,306.719,309.957,315.777,320.582,323.522,329.549,334.289,339.269,344.848,347.788,353.455,358.435,361.357,367.405,372.145,375.084,380.561,383.904,386.844,390.082,395.901,400.641,403.581,410.279,418.04,423.559,426.498,431.514,434.753,437.632,442.648,447.628,452.608,457.648,460.528,467.807,470.747,473.67,477.924,480.804,486.932,489.811,493.155,496.498,501.304,505.204,510.004,515.841,519.114" svgx:width="0.34,0.33,0.25,0.44,0.5,0.58,0.25,0.55,0.48,0.25,0.42,0.48,0.48,0.58,0.25,0.33,0.4,0.55,0.88,0.25,0.33,0.58,0.48,0.25,0.44,0.6,0.4,0.56,0.48,0.42,0.25,0.55,0.33,0.25,0.56,0.29,0.56,0.6,0.4,0.48,0.25,0.5,0.25,0.33,0.58,0.5,0.33,0.25,0.33,0.58,0.48,0.25,0.6,0.48,0.5,0.56,0.25,0.56,0.5,0.29,0.6,0.48,0.25,0.55,0.33,0.25,0.33,0.58,0.48,0.25,0.67,0.77,0.56,0.25,0.5,0.33,0.25,0.5,0.5,0.5,0.5,0.25,0.73,0.25,0.29,0.42,0.25,0.61,0.29,0.33,0.33,0.48,0.4,0.48,0.58,0.33,0.25" style="fill:rgb(0,0,0);font-family:PalatinoLinotype;font-size:10.02px;stroke:none;">It can be seen from the curves of Figure 3 that the peak value of the RDF at 1400 K is different </text>
   <text y="588.315" x="76.98,80.327,84.296,89.777,98.599,101.538,104.776,110.536,115.556,118.794,121.673,126.693,129.932,132.811,137.791,142.831,147.811,152.791,155.731,163.014,165.474,168.414,173.154,177.415,183.415,188.215,192.674,195.553,200.573,203.453,206.38,211.899,214.838,218.807,223.616,229.135,234.175,238.144,244.205,247.132,252.891,258.472,261.412,264.65,270.469,275.209,278.148,284.28,289.09,293.549,297.449,302.249,307.229,311.431,316.24,319.18,322.107,327.866,330.806,334.044,339.863,344.603,347.542,351.801,356.541,361.0,366.481,372.24,378.362,381.241,386.261,392.103,398.164,401.104,404.342,410.161,413.088,417.056,423.118,426.058,431.997,436.797,441.817,447.336,451.595,454.055,456.994,462.014,467.774,473.905,476.845,480.083,485.903,490.642,493.582,499.581,504.381,509.361,514.94,519.199" svgx:width="0.33,0.4,0.55,0.88,0.25,0.33,0.58,0.5,0.33,0.25,0.5,0.33,0.25,0.5,0.5,0.5,0.5,0.25,0.73,0.25,0.25,0.48,0.42,0.6,0.48,0.44,0.29,0.5,0.29,0.29,0.56,0.25,0.4,0.48,0.56,0.5,0.4,0.61,0.29,0.58,0.56,0.25,0.33,0.58,0.48,0.25,0.61,0.48,0.44,0.4,0.48,0.5,0.42,0.48,0.25,0.29,0.58,0.25,0.33,0.58,0.48,0.25,0.42,0.48,0.44,0.55,0.58,0.61,0.25,0.5,0.58,0.61,0.25,0.33,0.58,0.29,0.4,0.61,0.25,0.6,0.48,0.5,0.56,0.42,0.25,0.25,0.5,0.58,0.61,0.25,0.33,0.58,0.48,0.25,0.6,0.48,0.5,0.56,0.42,0.25" style="fill:rgb(0,0,0);font-family:PalatinoLinotype;font-size:10.02px;stroke:none;">from that at 1200 K, especially regarding the decrease in the second and third peaks, and the peaks </text>
   <text y="601.755" x="76.98,82.515,87.309,91.752,97.216,106.057,110.85,113.43,121.78,124.69,130.806,135.546,139.498,142.078,147.082,152.841,158.957,161.537,169.886,172.797,178.913,183.707,187.659,190.159,192.679,201.028,206.854,209.764,214.207,220.033,222.613,226.565,231.359,237.374,241.275,246.068,250.311,255.105,260.93,264.191,268.434,271.014,276.018,281.777,284.357,289.361,298.201,303.602,307.502,313.518,319.319,322.229,327.232,332.235,335.495,338.405,343.868,349.693,352.272,358.286,362.238,367.638,372.079,376.872,381.114,385.356,387.855,390.434,396.569,402.393,405.303,409.544,412.124,415.033,419.275,421.794,424.704,430.528,433.107,438.11,443.629,447.58,452.373,457.165,466.005,470.797,476.622,479.882,482.401,490.749,493.659,496.919,502.743,505.322,508.583,514.407,519.2" svgx:width="0.55,0.48,0.44,0.55,0.88,0.48,0.25,0.83,0.29,0.61,0.48,0.4,0.25,0.5,0.58,0.61,0.25,0.83,0.29,0.61,0.48,0.4,0.25,0.25,0.83,0.58,0.29,0.44,0.58,0.25,0.4,0.48,0.6,0.4,0.48,0.42,0.48,0.58,0.33,0.42,0.25,0.5,0.58,0.25,0.5,0.88,0.55,0.4,0.6,0.58,0.29,0.5,0.5,0.33,0.29,0.55,0.58,0.25,0.6,0.4,0.55,0.44,0.48,0.42,0.42,0.25,0.25,0.61,0.58,0.29,0.42,0.25,0.29,0.42,0.25,0.29,0.58,0.25,0.5,0.56,0.4,0.48,0.48,0.88,0.48,0.58,0.33,0.25,0.83,0.29,0.33,0.58,0.25,0.33,0.58,0.48,0.25" style="fill:rgb(0,0,0);font-family:PalatinoLinotype;font-size:10.02px;stroke:none;">become wider and wider, which represents an amorphization process. This is in agreement with the </text>
   <text y="615.255" x="76.98,82.642,85.56,89.81,95.809,100.82,103.738,106.243,108.958,114.43,119.972,124.222,129.022,132.922,138.563,143.574,146.843,149.76,155.232,161.064,163.569,166.285,169.202,175.035,177.54,180.195,184.445,190.204,195.215,201.238,205.487,211.32,216.791,220.06,224.309,226.799,229.304,232.02,238.159,243.987,248.726,252.988,257.785,260.29,263.005,269.124,272.038,276.283,280.73,284.685,289.482,295.421,300.461,306.22,310.661,313.575,318.372,322.617,325.122,327.778,332.785,336.74,341.537,344.042,346.757,352.776,356.731,362.132,367.649,372.656,378.194,381.108,386.676,389.181,391.896,397.958,404.017,408.814,411.319,414.034,417.299,422.699,425.204,427.92,431.184,437.012,441.809,444.314,447.029,450.364,455.371,459.817,463.081,465.586,468.301,471.565,477.394,482.401,485.665,488.17,490.885,495.892,500.138,502.643,505.358,508.623,514.451,519.19" svgx:width="0.56,0.29,0.42,0.6,0.5,0.29,0.25,0.55,0.55,0.55,0.42,0.48,0.4,0.56,0.5,0.33,0.29,0.55,0.58,0.25,0.55,0.29,0.58,0.25,0.55,0.42,0.58,0.5,0.6,0.42,0.58,0.55,0.33,0.42,0.25,0.25,0.55,0.61,0.58,0.48,0.42,0.48,0.25,0.55,0.61,0.29,0.42,0.44,0.4,0.48,0.6,0.5,0.58,0.44,0.29,0.48,0.42,0.25,0.55,0.5,0.4,0.48,0.25,0.55,0.6,0.4,0.55,0.55,0.5,0.55,0.29,0.56,0.25,0.55,0.61,0.6,0.48,0.25,0.55,0.33,0.55,0.25,0.55,0.33,0.58,0.48,0.25,0.55,0.33,0.5,0.44,0.33,0.25,0.55,0.33,0.58,0.5,0.33,0.25,0.55,0.5,0.42,0.25,0.55,0.33,0.58,0.48,0.25" style="fill:rgb(0,0,0);font-family:PalatinoLinotype;font-size:10.02px;stroke:none;">visual observation in snapshots. These discrepancies are probably due to the fact that as the </text>
   <text y="628.755" x="76.98,80.246,85.045,93.89,99.911,104.709,108.667,113.676,116.942,122.983,126.94,131.739,134.738,138.696,141.611,145.859,150.599,154.846,157.351,160.411,164.859,168.817,173.556,178.356,184.377,187.437,193.498,198.298,201.634,207.104,211.061,219.906,224.915,228.093,231.009,236.479,242.309,245.369,251.309,255.268,260.738,265.186,269.984,274.783,280.904,285.152,287.657,290.717,295.726,301.485,307.606,310.605,313.872,319.702,325.743,329.99,333.05,336.316,342.147,346.945,350.005,354.453,358.411,363.93,368.191,371.457,376.466,379.382,382.298,385.213,391.044,395.783,398.843,404.503,409.973,412.889,418.929,427.774,432.514,435.574,438.91,442.81,447.819,452.268,455.534,458.449,463.919,469.749,472.809,475.725,479.973,483.033,486.99,491.73,497.85,503.891,508.339,513.138,519.199" svgx:width="0.33,0.48,0.88,0.6,0.48,0.4,0.5,0.33,0.6,0.4,0.48,0.25,0.4,0.29,0.42,0.48,0.42,0.25,0.25,0.44,0.4,0.48,0.48,0.6,0.25,0.61,0.48,0.33,0.55,0.4,0.88,0.5,0.33,0.29,0.55,0.58,0.25,0.6,0.4,0.55,0.44,0.48,0.48,0.61,0.42,0.25,0.25,0.5,0.58,0.61,0.25,0.33,0.58,0.6,0.42,0.25,0.33,0.58,0.48,0.25,0.44,0.4,0.56,0.42,0.33,0.5,0.29,0.29,0.29,0.58,0.48,0.25,0.56,0.55,0.29,0.6,0.88,0.48,0.25,0.33,0.4,0.5,0.44,0.33,0.29,0.55,0.58,0.25,0.29,0.42,0.25,0.4,0.48,0.61,0.6,0.44,0.48,0.61,0.25" style="fill:rgb(0,0,0);font-family:PalatinoLinotype;font-size:10.02px;stroke:none;">temperature rises, creep deformation proceeds, and thus the crystalline volume fraction is reduced </text>
   <text y="642.255" x="76.98,82.004,87.849,93.985,96.505,99.743,105.563,110.376,112.896,118.896,122.855,128.256,133.835,137.735,142.535,146.798,151.06,153.58,158.981,162.341,164.801,169.825,178.647,184.132,188.105,194.044,199.863,202.794,207.774,212.798,216.036,218.967,224.4,230.226,232.686,235.597,239.841,242.361,247.366,251.748,256.192,260.987,263.899,268.693,272.594,277.634,280.896,285.69,291.807,294.267,297.179,303.005,305.525,308.703,314.522,319.317,321.837,330.678,336.144,342.261,347.055,349.967,352.468" svgx:width="0.5,0.58,0.61,0.25,0.33,0.58,0.48,0.25,0.6,0.4,0.55,0.56,0.4,0.48,0.42,0.42,0.25,0.55,0.33,0.25,0.5,0.88,0.55,0.4,0.6,0.58,0.29,0.5,0.5,0.33,0.29,0.55,0.58,0.25,0.29,0.42,0.25,0.5,0.44,0.44,0.48,0.29,0.48,0.4,0.5,0.33,0.48,0.61,0.25,0.29,0.58,0.25,0.33,0.58,0.48,0.25,0.88,0.55,0.61,0.48,0.29,0.25,0.25" style="fill:rgb(0,0,0);font-family:PalatinoLinotype;font-size:10.02px;stroke:none;">and the progress of amorphization is accelerated in the model. </text>
   <text y="655.755" x="98.22,104.329,109.887,113.007,115.946,121.766,127.414,132.2,136.436,139.614,142.554,148.073,153.113,156.351,159.254,165.073,170.631,173.751,177.005,182.823,187.61,190.73,194.675,199.462,202.365,207.405,210.66,213.599,219.057,224.875,229.111,234.929,237.869,243.869,246.989,252.516,257.303,260.557,268.9,273.686,278.473,284.291,287.411,290.665,296.484,301.27,304.39,308.827,312.779,317.577,322.376,328.397,331.517,335.965,342.005,345.963,351.623,356.422,359.542,362.878,368.448,371.363,376.882,382.923,386.88,391.679,394.739,399.748,403.084,406.144,411.153,416.983,423.104,426.224,431.983,437.023,442.854,448.323,452.705,456.665,462.235,466.482,469.749,474.758,477.673,480.589,483.505,489.335,494.134,497.254,505.578,508.494,516.287,519.203" svgx:width="0.61,0.56,0.25,0.29,0.58,0.56,0.48,0.42,0.33,0.29,0.56,0.5,0.33,0.29,0.58,0.56,0.25,0.33,0.58,0.48,0.25,0.4,0.48,0.29,0.5,0.33,0.29,0.55,0.58,0.42,0.58,0.29,0.6,0.25,0.55,0.48,0.33,0.83,0.48,0.48,0.58,0.25,0.33,0.58,0.48,0.25,0.44,0.4,0.48,0.48,0.6,0.25,0.44,0.6,0.4,0.56,0.48,0.25,0.33,0.56,0.29,0.56,0.6,0.4,0.48,0.25,0.5,0.33,0.25,0.5,0.58,0.61,0.25,0.58,0.5,0.58,0.55,0.44,0.4,0.56,0.42,0.33,0.5,0.29,0.29,0.29,0.58,0.48,0.25,0.83,0.29,0.78,0.29,0.25" style="fill:rgb(0,0,0);font-family:PalatinoLinotype;font-size:10.02px;stroke:none;">By investigating the relationship between the creep curve (Figure 2) and nanocrystalline NiAl </text>
   <text y="669.255" x="76.98,85.802,91.263,97.394,102.202,105.128,107.288,112.307,121.13,126.609,130.577,136.516,142.335,145.261,150.241,155.26,158.498,161.424,166.904,172.744,175.204,177.424,185.788,190.527,192.747,196.047,201.508,207.559,213.399,219.53,221.749,224.988,230.747,235.766,239.004,241.223,244.462,250.281,255.09,257.25,263.09,267.899,270.825,276.405,282.245,285.483,287.644,292.663,298.503,304.565,306.784,311.042,316.801,321.82,327.82,332.629,334.848,340.249,343.609,345.829,349.067,354.886,359.626,361.786,368.488,376.168,381.748,383.968,389.967,394.707,399.726,405.306,409.507,411.668,416.687,419.925,422.086,427.105,432.085,437.064,442.104,444.324,451.524,453.743,459.805,462.744,468.875,471.095,476.854,482.315,485.553,487.772,492.231,497.99,503.009,508.849,514.429,519.169" svgx:width="0.88,0.55,0.61,0.48,0.29,0.25,0.5,0.88,0.55,0.4,0.6,0.58,0.29,0.5,0.5,0.33,0.29,0.55,0.58,0.25,0.25,0.83,0.48,0.25,0.33,0.55,0.6,0.58,0.61,0.25,0.33,0.58,0.5,0.33,0.25,0.33,0.58,0.48,0.25,0.58,0.48,0.29,0.56,0.58,0.33,0.25,0.5,0.58,0.61,0.25,0.42,0.58,0.5,0.6,0.48,0.25,0.55,0.33,0.25,0.33,0.58,0.48,0.25,0.67,0.77,0.56,0.25,0.6,0.48,0.5,0.56,0.42,0.25,0.5,0.33,0.25,0.5,0.5,0.5,0.5,0.25,0.73,0.25,0.61,0.29,0.61,0.25,0.58,0.55,0.33,0.25,0.44,0.58,0.5,0.58,0.56,0.48,0.25" style="fill:rgb(0,0,0);font-family:PalatinoLinotype;font-size:10.02px;stroke:none;">model amorphization, we found that the height and shape of the RDF peaks at 1200 K did not change </text>
   <text y="682.755" x="76.98,85.812,91.84,96.275,102.092,104.853,113.194,116.134,119.387,125.204,127.964,131.218,134.12,142.952,147.738,150.23,152.99,158.517,164.545,167.798,170.559,173.812,179.629,184.415,187.175,193.183,197.968,203.008,208.527,212.762,215.522,220.562,223.801,226.501,231.541,236.537,241.533,246.573,249.273,256.533,259.293,263.728,269.546,274.586,280.405,285.962,290.748,296.855,299.616,303.85,306.719,312.27,318.081,321.021,324.321,327.261,331.643,336.683,342.502,345.749,348.689,354.24,357.0,365.336,368.275,371.523,377.334,380.094,383.341,386.281,395.107,399.887,402.373,405.133,411.255,417.066,419.963,424.192,426.952,429.892,434.154,436.914,442.435,447.215,451.644,456.684,462.705,466.934,471.714,474.474,477.721,483.533,488.312,491.073,499.899,505.349,511.451,516.231,519.17" svgx:width="0.88,0.6,0.44,0.58,0.25,0.83,0.29,0.33,0.58,0.25,0.33,0.29,0.88,0.48,0.25,0.25,0.55,0.6,0.33,0.25,0.33,0.58,0.48,0.25,0.6,0.48,0.5,0.56,0.42,0.25,0.5,0.33,0.25,0.5,0.5,0.5,0.5,0.25,0.73,0.25,0.44,0.58,0.5,0.58,0.56,0.48,0.61,0.25,0.42,0.29,0.56,0.58,0.29,0.33,0.29,0.44,0.5,0.58,0.33,0.29,0.56,0.25,0.83,0.29,0.33,0.58,0.25,0.33,0.29,0.88,0.48,0.25,0.25,0.61,0.58,0.29,0.42,0.25,0.29,0.42,0.25,0.55,0.48,0.44,0.5,0.6,0.42,0.48,0.25,0.33,0.58,0.48,0.25,0.88,0.55,0.61,0.48,0.29,0.25" style="fill:rgb(0,0,0);font-family:PalatinoLinotype;font-size:10.02px;stroke:none;">much with time, but the peaks at 1400 K changed significantly with time. This is because the model </text>
   <text y="696.195" x="76.98,81.774,87.599,90.86,95.654,99.606,104.4,110.516,112.915,116.177,122.002,126.796,129.195,132.457,137.196,141.149,144.41,147.32,152.324,156.277,161.796,164.195,168.638,172.591,177.384,182.178,188.118,190.517,194.76,197.938,202.942,208.507,213.247,215.647,220.651,223.912,226.252,231.256,236.26,238.659,244.675,248.918,251.318,256.322,262.147,268.263,270.663,275.667,280.671,285.674,290.678,293.078,300.346,302.846,305.219,310.223,315.981,322.097,324.496,327.758,333.583,338.377,340.777,345.22,349.172,353.966,358.759,364.698,367.098,371.05,376.054,379.315,384.109,386.509,394.858,399.862,404.105,406.505,409.836,414.84,419.083,422.344,427.138,431.037,433.437,436.698,442.523,447.527,453.352,455.692,460.696,463.957,466.357,470.6,473.861,478.6,483.639,489.755,495.272,498.604,502.846,506.108,511.112,514.373,519.111" svgx:width="0.48,0.58,0.33,0.48,0.4,0.48,0.61,0.25,0.33,0.58,0.48,0.25,0.33,0.48,0.4,0.33,0.29,0.5,0.4,0.56,0.25,0.44,0.4,0.48,0.48,0.6,0.25,0.42,0.33,0.5,0.56,0.48,0.25,0.5,0.33,0.25,0.5,0.5,0.25,0.6,0.42,0.25,0.5,0.58,0.61,0.25,0.5,0.5,0.5,0.5,0.25,0.73,0.25,0.25,0.5,0.58,0.61,0.25,0.33,0.58,0.48,0.25,0.44,0.4,0.48,0.48,0.6,0.25,0.4,0.5,0.33,0.48,0.25,0.83,0.5,0.42,0.25,0.33,0.5,0.42,0.33,0.48,0.4,0.25,0.33,0.58,0.5,0.58,0.25,0.5,0.33,0.25,0.42,0.33,0.48,0.5,0.61,0.56,0.33,0.42,0.33,0.5,0.33,0.48,0.25" style="fill:rgb(0,0,0);font-family:PalatinoLinotype;font-size:10.02px;stroke:none;">entered the tertiary creep stage at 40 ps and 1400 K, and the creep rate was faster than at steady-state </text>
   <text y="709.695" x="76.98,81.425,85.379,90.175,94.971,100.988,103.49,105.83,111.968,117.795,122.591,126.545,131.285,134.585,140.052,144.006,148.802,151.304,153.644,156.907,162.734,167.53,169.869,175.697,180.436,183.349,188.916,194.675,197.913,200.253,205.72,209.053,211.393,214.656,220.483,225.279,227.619,233.636,238.376,243.382,248.949,253.194,255.473,258.386,264.213,266.553,269.816,275.643,280.439,282.719,289.407,297.179,302.747,305.087,309.469,315.469,319.424,325.082,329.879,332.22,338.339,342.294,347.762,353.78,359.799,364.595,370.714,372.995,377.241,380.154,385.722,391.481,394.395,397.729,400.643,405.089,410.096,415.924,419.103,422.042,427.61,430.113,432.394,440.185,446.014,451.481,454.746,460.574,465.37,469.326,471.667,476.113,481.58,487.409,491.791,494.704,500.743,504.989,507.902,513.37,519.198" svgx:width="0.44,0.4,0.48,0.48,0.6,0.25,0.25,0.61,0.58,0.48,0.4,0.48,0.33,0.55,0.4,0.48,0.25,0.25,0.33,0.58,0.48,0.25,0.58,0.48,0.29,0.56,0.58,0.33,0.25,0.55,0.33,0.25,0.33,0.58,0.48,0.25,0.6,0.48,0.5,0.56,0.42,0.25,0.29,0.58,0.25,0.33,0.58,0.48,0.25,0.67,0.77,0.56,0.25,0.44,0.6,0.4,0.56,0.48,0.25,0.61,0.4,0.55,0.6,0.6,0.48,0.61,0.25,0.42,0.29,0.56,0.58,0.29,0.33,0.29,0.44,0.5,0.58,0.33,0.29,0.56,0.25,0.25,0.78,0.58,0.55,0.33,0.58,0.48,0.4,0.25,0.44,0.55,0.58,0.44,0.29,0.6,0.42,0.29,0.55,0.58,0.25" style="fill:rgb(0,0,0);font-family:PalatinoLinotype;font-size:10.02px;stroke:none;">creep. Therefore, the height of the peaks in the RDF curve dropped significantly. Another conclusion </text>
   <text y="723.195" x="76.98,81.421,86.461,92.28,94.381,99.899,104.698,106.799,112.92,117.72,121.679,124.619,130.26,135.0,141.122,143.222,146.582,150.542,156.002,164.824,166.925,172.504,175.383,180.962,187.022,190.981,195.721,197.821,202.861,205.381,207.482,213.301,218.341,227.163,231.903,234.842,240.421,242.522,245.76,251.579,256.559,259.797,261.897,265.136,270.955,275.755,277.855,282.296,286.255,291.834,296.099,299.359,304.362,307.272,310.182,313.091,318.915,323.708,325.809,330.05,333.311,337.262,343.296,347.739,350.999,357.033,360.985,365.777,367.878,373.278,376.639,378.739,381.999,387.824,392.616,394.717,403.556,409.018,415.144,419.948,422.869,424.969,428.931,433.671,442.521,447.535,450.456,456.291,460.544,462.584,466.837,472.882,478.427,482.68,485.858,490.838,496.674,499.945,502.865,507.879,510.8,513.721,519.179" svgx:width="0.44,0.5,0.58,0.25,0.55,0.48,0.25,0.61,0.48,0.4,0.29,0.56,0.48,0.61,0.25,0.33,0.4,0.55,0.88,0.25,0.56,0.29,0.56,0.6,0.4,0.48,0.25,0.5,0.25,0.25,0.58,0.5,0.88,0.48,0.29,0.56,0.25,0.33,0.58,0.5,0.33,0.25,0.33,0.58,0.48,0.25,0.44,0.4,0.56,0.42,0.33,0.5,0.29,0.29,0.29,0.58,0.48,0.25,0.42,0.33,0.4,0.6,0.44,0.33,0.6,0.4,0.48,0.25,0.55,0.33,0.25,0.33,0.58,0.48,0.25,0.88,0.55,0.61,0.48,0.29,0.25,0.4,0.48,0.88,0.5,0.29,0.58,0.42,0.25,0.42,0.6,0.55,0.42,0.33,0.5,0.58,0.33,0.29,0.5,0.29,0.29,0.56,0.25" style="fill:rgb(0,0,0);font-family:PalatinoLinotype;font-size:10.02px;stroke:none;">can be derived from Figure 3, namely that the crystalline structure of the model remains substantially </text>
   <text y="736.695" x="76.98,81.229,84.496,89.506,95.047,97.964,102.763,105.283,113.639,119.398,124.197,130.029,132.549,135.727,141.546,146.346,148.866,153.315,157.273,162.073,166.873,172.894,175.414,181.476,186.276,189.613,195.014,198.972,207.818,212.828,216.095,219.012,224.483,230.314,232.799,238.825,242.787,248.262,252.644,257.447,261.7,265.953,268.413,271.334,275.586,278.046,280.967,286.802,289.262,294.276,296.736,300.989,304.26,309.064,314.078,320.204,325.722,328.242,332.495,335.767,340.781,344.052,348.855,351.315" svgx:width="0.42,0.33,0.5,0.55,0.29,0.48,0.25,0.83,0.58,0.48,0.58,0.25,0.33,0.58,0.48,0.25,0.44,0.4,0.48,0.48,0.6,0.25,0.61,0.48,0.33,0.55,0.4,0.88,0.5,0.33,0.29,0.55,0.58,0.25,0.6,0.4,0.55,0.44,0.48,0.42,0.42,0.25,0.29,0.42,0.25,0.29,0.58,0.25,0.5,0.25,0.42,0.33,0.48,0.5,0.61,0.56,0.25,0.42,0.33,0.5,0.33,0.48,0.25,0.25" style="fill:rgb(0,0,0);font-family:PalatinoLinotype;font-size:10.02px;stroke:none;">stable when the creep deformation process is in a steady state. </text>
   <text y="762.194" x="76.98,82.02,84.48,89.52,92.04,94.5,100.609,103.382,106.156,110.041,114.106,117.431,121.316,123.836,128.272,133.83,136.29,144.071,146.845,150.73,153.503,157.939,162.005,166.441,169.765,172.539,176.975,182.533,185.053,191.161,196.158,200.595,203.368,208.926,212.25,215.024,219.46,225.018" svgx:width="0.5,0.25,0.5,0.25,0.25,0.61,0.28,0.28,0.39,0.41,0.33,0.39,0.25,0.44,0.56,0.25,0.78,0.28,0.39,0.28,0.44,0.41,0.44,0.33,0.28,0.44,0.56,0.25,0.61,0.5,0.44,0.28,0.56,0.33,0.28,0.44,0.56,0.25" style="fill:rgb(0,0,0);font-family:PalatinoLinotype,Italic;font-size:10.02px;stroke:none;">3.3. Effects on Dislocation Evolution </text>
   <text y="781.694" x="98.22,101.595,107.425,109.825,114.272,119.069,123.026,126.291,131.299,134.213,139.973,142.373,146.82,150.776,155.516,160.315,166.335,168.735,172.0,177.829,182.627,188.096,192.052,194.967,199.764,204.011,206.515,208.915,214.977,217.916,222.163,225.078,230.546,234.928,239.936,243.202,246.116,251.585,257.344,259.744,262.659,266.905,269.305,273.687,279.148,284.977,289.224,292.139,298.259,303.056,306.959,311.753,317.869,320.269,323.53,328.995,331.334,336.869,341.663,344.063,349.527,355.353,360.146,362.546,368.011,371.342,373.742,377.003,382.829,387.622,389.962,392.873,401.713,407.729,413.193,417.146,420.407,425.411,431.236,434.497,436.897,440.228,445.232,449.614,452.853,458.317,462.27,466.512,468.912,471.823,477.582,480.913,483.824,489.86,494.653,500.479,504.922,507.832,513.658,519.223" svgx:width="0.34,0.58,0.25,0.44,0.48,0.4,0.33,0.5,0.29,0.58,0.25,0.44,0.4,0.48,0.48,0.6,0.25,0.33,0.58,0.48,0.55,0.4,0.29,0.48,0.42,0.25,0.25,0.61,0.29,0.42,0.29,0.55,0.44,0.5,0.33,0.29,0.55,0.58,0.25,0.29,0.42,0.25,0.44,0.55,0.58,0.42,0.29,0.61,0.48,0.4,0.48,0.61,0.25,0.33,0.55,0.25,0.55,0.48,0.25,0.55,0.58,0.48,0.25,0.55,0.33,0.25,0.33,0.58,0.48,0.25,0.29,0.88,0.6,0.55,0.4,0.33,0.5,0.58,0.33,0.25,0.33,0.5,0.44,0.33,0.55,0.4,0.42,0.25,0.29,0.58,0.33,0.29,0.6,0.48,0.58,0.44,0.29,0.58,0.56,0.25" style="fill:rgb(0,0,0);font-family:PalatinoLinotype;font-size:10.02px;stroke:none;">In certain creep theories, dislocation is considered to be one of the important factors influencing </text>
   <text y="795.194" x="76.98,81.422,85.373,90.166,94.959,100.973,103.472,105.97699999999999,107.192,110.453,116.212,122.246,126.488,128.987,131.492,132.707,135.885,141.704,146.497,149.002,150.217,154.459,157.719,163.754,169.868,175.387,177.892,179.107,184.571,187.901,190.406,191.561,197.676,200.585,204.827,207.737,213.201,217.643,222.646,225.906,228.816,234.279,240.039,242.54399999999998,243.758,249.82,254.62,260.444,264.686,267.596,270.856,276.375,278.88,280.094,283.004,287.246,289.751,290.966,299.246,304.319,308.242,312.166,317.206,323.025,326.257,331.022,337.109,339.58,342.085,343.3,348.835,351.775,357.311,363.371,367.294,372.058,374.563,375.718,380.758,383.263,384.418,388.68,394.499,399.935,408.255,412.469,414.974,416.189,419.421,425.217,429.982,432.487,433.702,439.328,444.303,448.226,451.166,456.602,462.661,466.875,469.38,470.595,476.682,479.621,483.835,486.775,492.21,496.624,501.664,504.903,507.842,513.303,519.099" svgx:width="0.44,0.4,0.48,0.48,0.6,0.25,0.25,0.55,0.33,0.58,0.6,0.42,0.25,0.25,0.55,0.33,0.58,0.48,0.25,0.55,0.42,0.33,0.6,0.61,0.56,0.25,0.55,0.55,0.33,0.25,0.55,0.61,0.29,0.42,0.29,0.55,0.44,0.5,0.33,0.29,0.55,0.58,0.25,0.55,0.61,0.48,0.58,0.42,0.29,0.33,0.56,0.25,0.55,0.29,0.42,0.25,0.55,0.83,0.5,0.4,0.4,0.5,0.58,0.33,0.48,0.61,0.25,0.25,0.55,0.56,0.29,0.56,0.6,0.4,0.48,0.25,0.55,0.5,0.25,0.55,0.42,0.58,0.55,0.83,0.42,0.25,0.55,0.33,0.58,0.48,0.25,0.55,0.56,0.5,0.4,0.29,0.55,0.6,0.42,0.25,0.55,0.61,0.29,0.42,0.29,0.55,0.44,0.5,0.33,0.29,0.55,0.58,0.25" style="fill:rgb(0,0,0);font-family:PalatinoLinotype;font-size:10.02px;stroke:none;">creep; thus, the study of dislocation density is warranted. Figure 4 shows the various dislocation </text>
  </g>
  <rect style="stroke:blue;stroke-width:0.3;" x="79.14" y="87.246" height="310.32" width="437.04" title="5"/>
  <text y="87.246" class="image" id="image.5.1" width="437" height="310" x="79.14">image.5.1.79_516.87_398</text>
  <rect style="stroke:blue;stroke-width:0.3;" x="79.14" y="87.246" height="310.32" width="437.04" title="5"/>
  <text y="87.246" class="image" id="image.5.2" width="437" height="310" x="79.14">image.5.2.79_516.87_398</text>
  <g begin="text">
   <text y="457.982" x="97.795,102.78,105.766,110.751,116.23,119.718,124.203,126.452,130.935" svgx:width="0.56,0.33,0.56,0.61,0.39,0.5,0.55,0.5,0.25" style="fill:rgb(0,0,0);font-family:URWPalladioL-Bold;font-size:8.97px;stroke:none;">Figure 3.</text>
   <text y="457.982" x="136.345,142.317,146.786,152.248,154.85,159.32,161.9213,164.174,169.636,172.237,176.027,178.942,182.473,185.074,190.018,195.408,198.323,200.924,205.805,211.0076,213.26,216.237,221.628,226.831,230.8,233.705,236.306,241.187,246.3896,248.643,254.016,256.617,261.498,264.412,268.1794,270.455,277.911,280.512,283.427,288.62960000000004,290.882,295.352,298.266,303.147,311.041,313.642,317.5888,319.864,323.654,328.857,333.327,338.7,342.49,347.693,352.574,355.488,359.2554,361.531,366.412,369.3721,371.633,376.118,378.355,381.725,386.007,391.38,394.75,399.032,402.823,407.105,412.307,415.222,419.691,422.606,425.207,430.258,434.5636,436.793,441.995,446.465,451.668,456.549,460.518,464.049,469.02,472.81,475.724,480.194,482.795,485.397,487.998,493.201" svgx:width="0.67,0.5,0.61,0.29,0.5,0.29,0.55,0.61,0.29,0.42,0.33,0.4,0.29,0.55,0.6,0.33,0.29,0.55,0.58,0.55,0.33,0.6,0.58,0.44,0.33,0.29,0.55,0.58,0.55,0.6,0.29,0.55,0.33,0.42,0.55,0.83,0.29,0.33,0.58,0.55,0.5,0.33,0.55,0.88,0.29,0.44,0.55,0.42,0.58,0.5,0.6,0.42,0.58,0.55,0.33,0.42,0.55,0.55,0.33,0.55,0.5,0.55,0.4,0.48,0.6,0.4,0.48,0.42,0.48,0.58,0.33,0.5,0.33,0.29,0.56,0.48,0.55,0.58,0.5,0.58,0.55,0.44,0.4,0.56,0.42,0.33,0.5,0.29,0.29,0.29,0.58,0.48" style="fill:rgb(0,0,0);font-family:URWPalladioL-Roma;font-size:8.97px;stroke:none;">Radial distribution function plots with atomic snapshots of a representative nanocrystalline</text>
   <text y="470.804" x="97.795,105.395,108.057,115.172,117.77329999999999,120.211,128.287,133.28,138.868,143.249,145.8503,148.279,155.907,158.568,161.55,166.7526,169.251,173.823,176.11,180.59500000000003,183.061,188.383,196.2766,198.828,202.889,207.882,212.455,216.068,219.945,224.326,227.914,230.317,235.402,239.014,243.587,246.248,251.571,253.8135,256.263,260.324,265.317,267.979,272.972,276.429,280.81,286.2817,288.767,293.34,297.1074,299.595,305.092,309.473,313.06100000000004,315.463,321.948,326.749,332.13100000000003,334.642,340.23,345.745,349.357,352.019,357.342,362.36519999999996,364.804,368.865,372.313,376.694,381.075,386.457,388.949,394.537,398.918,401.964,406.957,410.57,418.645,423.218,426.2,428.861,433.855,439.05760000000004,441.555,444.601,449.594,453.182,455.576" svgx:width="0.83,0.29,0.78,0.29,0.55,0.88,0.55,0.61,0.48,0.29,0.55,0.83,0.29,0.33,0.58,0.55,0.5,0.25,0.5,0.55,0.58,0.88,0.55,0.44,0.55,0.5,0.4,0.42,0.48,0.4,0.55,0.56,0.4,0.5,0.29,0.58,0.25,0.55,0.44,0.55,0.29,0.55,0.4,0.48,0.61,0.55,0.5,0.42,0.55,0.6,0.48,0.4,0.55,0.71,0.52,0.6,0.55,0.61,0.6,0.4,0.29,0.58,0.56,0.55,0.44,0.4,0.48,0.48,0.6,0.55,0.61,0.48,0.33,0.55,0.4,0.88,0.5,0.33,0.29,0.55,0.58,0.55,0.33,0.55,0.4,0.55,0.33" style="fill:rgb(0,0,0);font-family:URWPalladioL-Roma;font-size:8.97px;stroke:none;">NiAl model with 4.5 nm coarser grain, colored as per CSP during creep deformation for (</text>
   <text y="470.804" x="458.626" svgx:width="0.5" style="fill:rgb(0,0,0);font-family:URWPalladioL-Bold;font-size:8.97px;stroke:none;">a</text>
   <text y="470.804" x="463.109,466.0691,468.532,473.105,475.3475,477.797" svgx:width="0.33,0.55,0.5,0.25,0.55,0.33" style="fill:rgb(0,0,0);font-family:URWPalladioL-Roma;font-size:8.97px;stroke:none;">) 0, (</text>
   <text y="470.804" x="480.843" svgx:width="0.61" style="fill:rgb(0,0,0);font-family:URWPalladioL-Bold;font-size:8.97px;stroke:none;">b</text>
   <text y="470.804" x="486.321,489.28110000000004,491.744,496.317" svgx:width="0.33,0.55,0.5,0.25" style="fill:rgb(0,0,0);font-family:URWPalladioL-Roma;font-size:8.97px;stroke:none;">) 4,</text>
   <text y="483.625" x="97.499" svgx:width="0.33" style="fill:rgb(0,0,0);font-family:URWPalladioL-Roma;font-size:8.97px;stroke:none;">(</text>
   <text y="483.625" x="100.485" svgx:width="0.44" style="fill:rgb(0,0,0);font-family:URWPalladioL-Bold;font-size:8.97px;stroke:none;">c</text>
   <text y="483.625" x="104.466,107.42609999999999,109.693,114.177,118.66,120.9025,123.143" svgx:width="0.33,0.55,0.5,0.5,0.25,0.55,0.33" style="fill:rgb(0,0,0);font-family:URWPalladioL-Roma;font-size:8.97px;stroke:none;">) 20, (</text>
   <text y="483.625" x="126.129" svgx:width="0.61" style="fill:rgb(0,0,0);font-family:URWPalladioL-Bold;font-size:8.97px;stroke:none;">d</text>
   <text y="483.625" x="131.607,134.5671,136.834,141.318,145.80300000000003,148.042,153.431,157.19840000000002,159.475,164.881,170.1,175.578,179.873,183.46099999999998,185.656,188.58,193.798,198.1036,200.334,204.136,207.059,210.44,214.735,218.536,222.3034,224.58,227.189,231.484,236.55,240.845,243.454,247.22140000000002,249.497,254.393,257.3531,259.62,264.104,266.345,270.83000000000004,273.07,279.911,285.327,289.812,292.052,296.535,299.49510000000004,301.7,306.183,310.666,315.149,319.634,321.874,326.357,331.576,337.0477,339.296,343.779,348.262,352.745,357.23,359.47,365.98" svgx:width="0.33,0.55,0.5,0.5,0.55,0.6,0.42,0.55,0.6,0.58,0.61,0.48,0.4,0.55,0.33,0.58,0.48,0.55,0.42,0.33,0.4,0.48,0.42,0.42,0.55,0.29,0.48,0.56,0.48,0.29,0.42,0.55,0.55,0.33,0.55,0.5,0.25,0.5,0.55,0.76,0.6,0.5,0.55,0.5,0.33,0.55,0.5,0.5,0.5,0.5,0.55,0.5,0.58,0.61,0.55,0.5,0.5,0.5,0.5,0.55,0.73,0.25" style="fill:rgb(0,0,0);font-family:URWPalladioL-Roma;font-size:8.97px;stroke:none;">) 40 ps under the stress levels of 2.0 GPa at 1200 and 1400 K.</text>
   <text y="506.959" x="97.795,105.908,111.239,114.422,119.304,124.703,127.544,131.869,134.359,136.546,139.729,145.411,150.1918,152.274,158.181,162.038,166.178,169.36,171.85000000000002,174.037,178.177,182.853,187.188,192.519,198.201,204.2766,206.354,211.235,216.918,222.99360000000001,225.06,228.243,233.925,236.767,240.447,246.5226,248.59,254.458,259.134,264.016,269.444,273.6272,275.771,280.106,284.988,290.7648,292.847,298.246,303.0268,305.1,309.435,312.276,316.953,321.835,325.691,328.532,334.1096,336.148,340.287,344.964,349.641,355.4178,357.5,360.751,364.432,369.763,380.561,383.744,389.426,394.2068,396.28,402.802,410.359,415.9366,417.974,422.309,428.196,432.053,437.569,442.246,446.4292,448.563,451.404,457.1808,459.263,464.692,467.533,472.961,478.849,482.53" svgx:width="0.83,0.55,0.33,0.5,0.55,0.29,0.56,0.25,0.55,0.33,0.58,0.48,0.55,0.61,0.4,0.42,0.33,0.25,0.55,0.42,0.48,0.44,0.55,0.58,0.61,0.55,0.5,0.58,0.61,0.55,0.33,0.58,0.29,0.4,0.61,0.55,0.6,0.48,0.5,0.56,0.42,0.55,0.44,0.5,0.58,0.55,0.55,0.48,0.55,0.44,0.29,0.48,0.5,0.4,0.29,0.56,0.55,0.42,0.48,0.48,0.58,0.55,0.33,0.4,0.55,0.88,0.33,0.58,0.48,0.55,0.67,0.77,0.56,0.55,0.44,0.6,0.4,0.56,0.48,0.42,0.55,0.29,0.58,0.55,0.56,0.29,0.56,0.6,0.4,0.48" style="fill:rgb(0,0,0);font-family:URWPalladioL-Roma;font-size:9.96px;stroke:none;">Notably, the ﬁrst, second and third peaks can be clearly seen fromthe RDF curves in Figure</text>
   <text y="506.959" x="489.383" svgx:width="0.5" style="fill:rgb(8,117,183);font-family:URWPalladioL-Roma;font-size:9.96px;stroke:none;">3</text>
   <text y="506.959" x="494.265,496.755,500.094,506.079,511.761,514.602" svgx:width="0.25,0.55,0.61,0.58,0.29,0.42" style="fill:rgb(0,0,0);font-family:URWPalladioL-Roma;font-size:9.96px;stroke:none;">. This</text>
   <text y="520.468" x="76.535,82.442,87.87,93.758,97.438,102.2188,104.546,108.227,112.903,116.155,120.831,124.688,128.87120000000002,131.259,134.441,139.919,142.213,145.396,151.078,155.8588,158.186,162.521,167.852,173.182,176.863,182.829,185.67,191.352,196.234,199.417,204.093,208.2762,210.664,215.995,219.2818,221.677,226.65699999999998,228.999,234.428,237.269,242.785,247.462,253.2388,255.575,261.443,266.325,270.181,273.364,276.205,280.54,283.381,288.058,290.548,292.949,301.092,303.933,307.116,312.89279999999997,315.229,318.412,324.094,328.8748,331.212,337.08,340.751,346.082,351.481,356.362,361.761,364.603,367.444,370.285,373.468,379.04560000000004,381.337,386.668,389.95480000000003,392.35,398.315,401.157,405.296,408.479,412.336,415.177,420.576,426.463,429.646,432.487,437.818,443.59479999999996,445.941,451.272,454.5588,456.954,462.285,465.468,471.15,475.827,479.811,482.114,487.982,492.864,496.72,499.903,502.744,507.079,509.92,514.597" svgx:width="0.61,0.56,0.6,0.4,0.48,0.55,0.4,0.48,0.33,0.48,0.4,0.42,0.55,0.33,0.55,0.55,0.33,0.58,0.48,0.55,0.44,0.55,0.55,0.4,0.61,0.29,0.58,0.5,0.33,0.48,0.42,0.55,0.55,0.33,0.55,0.5,0.55,0.56,0.29,0.56,0.48,0.58,0.55,0.6,0.5,0.4,0.33,0.29,0.44,0.29,0.48,0.25,0.55,0.83,0.29,0.33,0.58,0.55,0.33,0.58,0.48,0.55,0.6,0.4,0.55,0.55,0.5,0.55,0.29,0.29,0.29,0.33,0.56,0.55,0.55,0.33,0.55,0.61,0.29,0.42,0.33,0.4,0.29,0.55,0.6,0.33,0.29,0.55,0.58,0.55,0.55,0.33,0.55,0.55,0.33,0.58,0.48,0.4,0.55,0.6,0.5,0.4,0.33,0.29,0.44,0.29,0.48,0.42" style="fill:rgb(0,0,0);font-family:URWPalladioL-Roma;font-size:9.96px;stroke:none;">ﬁgure refers to the coordinates of a given particle, with the probability of distribution of other particles</text>
   <text y="533.978" x="76.535,79.472,85.24879999999999,87.838,92.117,98.183,103.229,107.71,112.544,115.03399999999999,117.559,120.849,126.723,131.5038,134.05,138.329,144.203,149.249,153.235,159.211,161.793,167.859,172.693,177.739,183.35,187.5332,190.132,193.937,198.771,204.836,208.641,213.475,217.754,222.588,228.462,231.7488,234.244,239.755,243.559,249.726,254.56,257.81,260.3,262.825,267.871,273.745,279.8206,282.414,285.704,291.578,296.3588,298.905,302.709,308.22,314.305,320.179,326.2546,328.838,334.903,339.737,344.783,350.395,354.5782,357.166,360.971,365.805,371.871,375.675,380.509,384.788,389.623,395.496,398.7828,401.289,407.455,410.392,414.661,420.171,423.986,430.152,434.987,438.236,440.726,444.251,450.438,456.311,461.0918,463.638,469.744,473.73,478.009,481.299,483.789,486.315,490.594,495.428,499.909,505.42,511.293,517.459" svgx:width="0.29,0.58,0.55,0.42,0.6,0.5,0.44,0.48,0.25,0.55,0.33,0.58,0.48,0.55,0.42,0.58,0.5,0.4,0.6,0.55,0.6,0.48,0.5,0.56,0.42,0.55,0.4,0.48,0.6,0.4,0.48,0.42,0.48,0.58,0.33,0.55,0.55,0.4,0.61,0.48,0.4,0.25,0.55,0.5,0.58,0.61,0.55,0.33,0.58,0.48,0.55,0.4,0.55,0.6,0.58,0.61,0.55,0.6,0.48,0.5,0.56,0.42,0.55,0.4,0.48,0.6,0.4,0.48,0.42,0.48,0.58,0.33,0.55,0.61,0.29,0.42,0.55,0.4,0.61,0.48,0.4,0.25,0.55,0.61,0.58,0.48,0.55,0.61,0.4,0.42,0.33,0.25,0.55,0.42,0.48,0.44,0.55,0.58,0.61,0.25" style="fill:rgb(0,0,0);font-family:URWPalladioL-Roma;font-size:9.96px;stroke:none;">in space; the sharp peaks represent order, and the round peaks represent disorder. The ﬁrst, second,</text>
   <text y="547.487" x="76.535,81.541,87.368,93.44359999999999,95.969,99.233,105.06,107.974,111.749,117.82459999999999,120.359,126.377,131.173,136.179,141.746,145.9292,148.474,152.249,157.045,163.062,166.837,171.633,175.878,180.674,186.501,189.7878,192.258,195.523,201.35,206.1308,208.629,214.686,218.641,222.886,226.1728,228.634,231.898,237.725,241.5,246.296,251.0768,253.585,259.602,265.069,269.314,272.228,275.492,278.405,283.872,289.699,293.8822,296.428,299.341,305.1178,307.652,316.002,321.829,324.743,329.188,334.96479999999997,337.509,340.773,346.6,351.3808,353.879,359.896,364.902,368.857,372.121,375.035,379.481,382.394,387.1748,389.673,395.5,400.507,404.6902,407.245,410.509,416.336,421.1168,423.615,429.443,432.356,437.923,443.75,448.546,452.791,456.0778,458.539,464.556,468.331,473.797,479.334,484.341,489.877,492.791,495.705,498.618,501.882,507.4596,509.942,515.409" svgx:width="0.5,0.58,0.61,0.55,0.33,0.58,0.29,0.4,0.61,0.55,0.6,0.48,0.5,0.56,0.42,0.55,0.4,0.48,0.6,0.4,0.48,0.42,0.48,0.58,0.33,0.55,0.33,0.58,0.48,0.55,0.61,0.4,0.42,0.33,0.55,0.33,0.58,0.4,0.48,0.48,0.55,0.6,0.55,0.42,0.29,0.33,0.29,0.55,0.58,0.42,0.55,0.29,0.58,0.55,0.83,0.58,0.29,0.44,0.58,0.55,0.33,0.58,0.48,0.55,0.6,0.5,0.4,0.33,0.29,0.44,0.29,0.48,0.55,0.58,0.5,0.42,0.55,0.33,0.58,0.48,0.55,0.58,0.29,0.56,0.58,0.48,0.42,0.33,0.55,0.6,0.4,0.55,0.55,0.5,0.55,0.29,0.29,0.29,0.33,0.56,0.55,0.55,0.33" style="fill:rgb(0,0,0);font-family:URWPalladioL-Roma;font-size:9.96px;stroke:none;">and third peaks represent the ﬁrst three positions in which the particle has the highest probability of</text>
   <text y="560.997" x="76.535,81.975,86.398,90.821,96.829,100.764,104.52,109.292,115.09,119.514,124.2948,126.776,130.094,133.85,139.289,150.577,153.825,159.623,164.4038,166.886,171.11,177.097,181.87,186.293,189.192,195.219,199.992,206.0676,208.569,213.551,216.798,222.238,231.035" svgx:width="0.55,0.44,0.44,0.6,0.4,0.4,0.48,0.58,0.44,0.48,0.55,0.33,0.4,0.55,0.88,0.33,0.58,0.48,0.55,0.42,0.6,0.48,0.44,0.29,0.61,0.48,0.61,0.55,0.5,0.33,0.55,0.88,0.25" style="fill:rgb(0,0,0);font-family:URWPalladioL-Roma;font-size:9.96px;stroke:none;">occurrence fromthe speciﬁed atom.</text>
   <text y="574.506" x="97.795,101.085,104.3718,106.543,110.878,115.76,121.5368,123.726,129.126,133.9068,136.077,140.217,144.893,149.57,155.3468,157.537,160.788,164.469,169.8,180.696,183.878,189.561,194.3418,196.512,200.847,206.734,210.591,216.107,220.784,224.9672,227.208,232.539,235.8258,238.065,243.493,246.335,251.763,257.65,261.331" svgx:width="0.34,0.33,0.55,0.44,0.5,0.58,0.55,0.55,0.48,0.55,0.42,0.48,0.48,0.58,0.55,0.33,0.4,0.55,0.88,0.33,0.58,0.48,0.55,0.44,0.6,0.4,0.56,0.48,0.42,0.55,0.55,0.33,0.55,0.56,0.29,0.56,0.6,0.4,0.48" style="fill:rgb(0,0,0);font-family:URWPalladioL-Roma;font-size:9.96px;stroke:none;">It can be seen fromthe curves of Figure</text>
   <text y="574.506" x="268.283" svgx:width="0.5" style="fill:rgb(8,117,183);font-family:URWPalladioL-Roma;font-size:9.96px;stroke:none;">3</text>
   <text y="574.506" x="275.449,278.632,284.314,289.196,292.48280000000005,294.653,297.836,303.519,308.2998,310.48,316.348,321.024,325.906,331.4836,333.609,339.126,344.007,346.848,352.736,357.5168,359.697,365.028,368.31480000000005,370.554,373.737,379.419,384.1998,386.38,392.902,400.459,406.0366,408.162,413.044,416.3308,418.511,423.393,428.275,433.156,438.136,440.313,449.686,452.527,456.7102,458.941,464.907" svgx:width="0.33,0.58,0.5,0.33,0.55,0.33,0.58,0.48,0.55,0.6,0.48,0.5,0.56,0.55,0.56,0.5,0.29,0.6,0.48,0.55,0.55,0.33,0.55,0.33,0.58,0.48,0.55,0.67,0.77,0.56,0.55,0.5,0.33,0.55,0.5,0.5,0.5,0.5,0.55,0.73,0.29,0.42,0.55,0.61,0.29" style="fill:rgb(0,0,0);font-family:URWPalladioL-Roma;font-size:9.96px;stroke:none;">that the peak value of the RDF at 1400 Kis di</text>
   <text y="574.506" x="467.749" svgx:width="0.61" style="fill:rgb(0,0,0);font-family:Rpxr;font-size:9.96px;stroke:none;">ﬀ</text>
   <text y="574.506" x="473.685,478.362,482.042,486.719,492.401,495.68780000000004,497.859,501.11,504.791,510.122" svgx:width="0.48,0.4,0.48,0.58,0.33,0.55,0.33,0.4,0.55,0.88" style="fill:rgb(0,0,0);font-family:URWPalladioL-Roma;font-size:9.96px;stroke:none;">erent from</text>
   <text y="588.015" x="76.535,79.757,85.509,90.45,93.7368,96.162,101.104,104.3908,106.816,111.758,116.699,121.641,126.62100000000001,129.073,136.247,138.73700000000002,141.209,145.943,150.133,156.073,160.806,165.194,168.07,173.012,175.888,178.764,184.3416,186.749,190.475,195.209,200.704,205.645,209.371,215.41,218.285,224.037,229.6146,232.023,235.245,240.996,245.7768,248.221,254.259,258.993,263.381,267.107,271.841,276.782,280.973,285.7538,288.197,291.073,296.84979999999996,299.315,302.537,308.289,313.0698,315.513,319.704,324.438,328.826,334.222,339.974,346.0496,348.503,353.444,359.196,365.27160000000003,367.725,370.947,376.698,379.574,383.29,389.36560000000003,391.819,397.759,402.493,407.434,412.929,417.12,419.61,422.081,427.022,432.774,438.8496,441.303,444.525,450.277,455.0578,457.501,463.441,468.175,473.116,478.611,482.7942,485.292,490.757,495.491,499.879,505.275,514.002" svgx:width="0.33,0.58,0.5,0.33,0.55,0.5,0.33,0.55,0.5,0.5,0.5,0.5,0.55,0.73,0.25,0.55,0.48,0.42,0.6,0.48,0.44,0.29,0.5,0.29,0.29,0.56,0.55,0.4,0.48,0.56,0.5,0.4,0.61,0.29,0.58,0.56,0.55,0.33,0.58,0.48,0.55,0.61,0.48,0.44,0.4,0.48,0.5,0.42,0.48,0.55,0.29,0.58,0.55,0.33,0.58,0.48,0.55,0.42,0.48,0.44,0.55,0.58,0.61,0.55,0.5,0.58,0.61,0.55,0.33,0.58,0.29,0.4,0.61,0.55,0.6,0.48,0.5,0.56,0.42,0.25,0.55,0.5,0.58,0.61,0.55,0.33,0.58,0.48,0.55,0.6,0.48,0.5,0.56,0.42,0.55,0.55,0.48,0.44,0.55,0.88,0.48" style="fill:rgb(0,0,0);font-family:URWPalladioL-Roma;font-size:9.96px;stroke:none;">that at 1200 K, especially regarding the decrease in the second and third peaks, and the peaks become</text>
   <text y="601.525" x="76.117,84.592,87.549,93.758,98.626,102.61,105.271,110.352,116.266,122.3416,125.117,133.592,136.55,142.758,147.626,150.898,153.388,156.111,164.586,170.5,173.457,177.969,183.7458,186.525,190.357,195.224,201.331,205.162,210.03,214.338,219.206,225.12,228.433,232.6162,235.384,240.465,246.2418,249.011,254.092,263.065,268.613,272.627,278.734,284.648,287.605,292.686,297.767,301.08,304.037,309.586,315.3628,318.132,324.239,328.08,333.628,338.14,343.008,347.316,351.625,354.115,358.088,364.317,370.231,373.189,377.3722,380.129,383.086,387.2692,390.037,392.984,398.76079999999996,401.54,406.621,412.271,416.102,420.97,425.837,434.81,439.678,445.592,448.8788,451.547,460.022,462.979,466.291,472.0678,474.838,478.15,484.064,488.8448,491.564,497.305,500.262,504.571,510.699,515.78" svgx:width="0.83,0.29,0.61,0.48,0.4,0.55,0.5,0.58,0.61,0.55,0.83,0.29,0.61,0.48,0.4,0.25,0.55,0.83,0.58,0.29,0.44,0.58,0.55,0.4,0.48,0.6,0.4,0.48,0.42,0.48,0.58,0.33,0.42,0.55,0.5,0.58,0.55,0.5,0.88,0.55,0.4,0.6,0.58,0.29,0.5,0.5,0.33,0.29,0.55,0.58,0.55,0.6,0.4,0.55,0.44,0.48,0.42,0.42,0.25,0.55,0.61,0.58,0.29,0.42,0.55,0.29,0.42,0.55,0.29,0.58,0.55,0.5,0.56,0.4,0.48,0.48,0.88,0.48,0.58,0.33,0.55,0.83,0.29,0.33,0.58,0.55,0.33,0.58,0.48,0.55,0.56,0.29,0.42,0.6,0.5,0.29" style="fill:rgb(0,0,0);font-family:URWPalladioL-Roma;font-size:9.96px;stroke:none;">wider and wider, which represents an amorphization process. This is in agreement with the visual</text>
   <text y="615.034" x="76.535,82.083,87.703,92.012,96.879,100.893,106.634,111.715,115.028,117.985,123.534,129.3108,132.151,135.108,140.8848,143.735,148.044,153.958,159.039,165.146,169.455,175.369,180.918,184.23,188.539,191.029,195.215,201.444,207.359,212.226,216.535,221.3158,224.105,230.314,233.271,237.58,242.092,245.933,250.801,256.908,261.989,267.903,272.415,275.372,280.239,284.4222,287.251,292.332,296.173,300.9538,303.744,309.851,313.682,319.23,324.85,329.931,335.55,338.508,344.0856,346.871,353.08,359.207,363.9878,366.778,370.091,375.569,378.352,381.665,387.579,392.3598,395.15,398.534,403.615,408.126,411.4128,414.152,417.465,423.379,428.46,431.7468,434.476,439.557,443.7402,446.569,449.882,455.796,460.5768,463.377,466.689,471.557,480.53,486.637,491.505,495.518,500.599,503.912,510.04,513.871" svgx:width="0.55,0.55,0.42,0.48,0.4,0.56,0.5,0.33,0.29,0.55,0.58,0.55,0.29,0.58,0.55,0.42,0.58,0.5,0.6,0.42,0.58,0.55,0.33,0.42,0.25,0.55,0.61,0.58,0.48,0.42,0.48,0.55,0.61,0.29,0.42,0.44,0.4,0.48,0.6,0.5,0.58,0.44,0.29,0.48,0.42,0.55,0.5,0.4,0.48,0.55,0.6,0.4,0.55,0.55,0.5,0.55,0.29,0.56,0.55,0.61,0.6,0.48,0.55,0.33,0.55,0.55,0.33,0.58,0.48,0.55,0.33,0.5,0.44,0.33,0.55,0.33,0.58,0.5,0.33,0.55,0.5,0.42,0.55,0.33,0.58,0.48,0.55,0.33,0.48,0.88,0.6,0.48,0.4,0.5,0.33,0.6,0.4,0.48" style="fill:rgb(0,0,0);font-family:URWPalladioL-Roma;font-size:9.96px;stroke:none;">observation in snapshots. These discrepancies are probably due to the fact that as the temperature</text>
   <text y="628.544" x="76.535,80.392,83.233,87.372,92.049,96.189,98.67899999999999,101.012,105.347,109.027,113.704,118.381,124.357,126.601,132.567,137.243,140.495,145.825,149.682,158.303,163.185,166.368,169.209,174.539,180.3158,182.584,188.452,192.133,197.464,201.799,206.475,211.152,217.117,221.257,223.747,226.08,230.962,236.644,242.7196,244.963,248.145,253.828,259.715,263.8982,266.217,269.4,275.082,279.8628,282.122,286.457,290.313,295.742,299.881,303.064,307.946,310.787,313.628,316.469,322.152,326.9328,329.181,334.697,340.028,342.869,348.757,357.378,362.1588,364.417,367.668,371.525,376.406,380.741,383.924,386.765,392.096,397.8728,400.131,402.973,407.1562,409.475,413.146,417.823,423.788,429.675,434.01,438.687,444.7626,447.015,451.897,457.579,463.6546,465.907,469.09,474.772,479.5528,481.802,487.67,491.35,496.681,502.11,505.781,510.457,514.597" svgx:width="0.4,0.29,0.42,0.48,0.42,0.25,0.55,0.44,0.4,0.48,0.48,0.6,0.55,0.61,0.48,0.33,0.55,0.4,0.88,0.5,0.33,0.29,0.55,0.58,0.55,0.6,0.4,0.55,0.44,0.48,0.48,0.61,0.42,0.25,0.55,0.5,0.58,0.61,0.55,0.33,0.58,0.6,0.42,0.55,0.33,0.58,0.48,0.55,0.44,0.4,0.56,0.42,0.33,0.5,0.29,0.29,0.29,0.58,0.48,0.55,0.56,0.55,0.29,0.6,0.88,0.48,0.55,0.33,0.4,0.5,0.44,0.33,0.29,0.55,0.58,0.55,0.29,0.42,0.55,0.4,0.48,0.61,0.6,0.44,0.48,0.61,0.55,0.5,0.58,0.61,0.55,0.33,0.58,0.48,0.55,0.6,0.4,0.55,0.56,0.4,0.48,0.42,0.42" style="fill:rgb(0,0,0);font-family:URWPalladioL-Roma;font-size:9.96px;stroke:none;">rises, creep deformation proceeds, and thus the crystalline volume fraction is reduced and the progress</text>
   <text y="642.053" x="76.535,81.975,85.2618,87.783,92.764,101.561,107.001,110.936,116.923,122.722,125.621,130.602,135.583,138.831,141.73,147.17,152.9468,155.459,158.358,162.5412,165.073,170.054,174.477,178.901,183.673,186.572,191.344,195.279,200.26,203.508,208.28,214.3556,216.858,219.757,225.5338,228.046,231.294,237.092,241.8728,244.355,253.152,258.591,264.679,269.451,272.35" svgx:width="0.55,0.33,0.55,0.5,0.88,0.55,0.4,0.6,0.58,0.29,0.5,0.5,0.33,0.29,0.55,0.58,0.55,0.29,0.42,0.55,0.5,0.44,0.44,0.48,0.29,0.48,0.4,0.5,0.33,0.48,0.61,0.55,0.29,0.58,0.55,0.33,0.58,0.48,0.55,0.88,0.55,0.61,0.48,0.29,0.25" style="fill:rgb(0,0,0);font-family:URWPalladioL-Roma;font-size:9.96px;stroke:none;">of amorphization is accelerated in the model.</text>
   <text y="655.562" x="97.795,104.004,109.58160000000001,112.296,115.253,121.167,126.909,131.776,136.085,139.398,142.355,148.005,153.086,156.398,159.355,165.27,170.8476,173.572,176.885,182.799,187.5798,190.308,194.139,199.007,201.964,207.045,210.358,213.315,218.863,224.777,229.086,235.0,237.957,243.933,246.717,252.336,257.204,260.517,268.992,273.859,278.727,284.50379999999996,287.283,290.596,296.51,301.2908,304.02,308.531,312.373,317.24,322.108,328.084,330.857,335.369,341.496,345.51,351.252,356.0328,358.761,362.145,367.795,370.752,376.402,382.53,386.371" svgx:width="0.61,0.56,0.55,0.29,0.58,0.56,0.48,0.42,0.33,0.29,0.56,0.5,0.33,0.29,0.58,0.56,0.55,0.33,0.58,0.48,0.55,0.4,0.48,0.29,0.5,0.33,0.29,0.55,0.58,0.42,0.58,0.29,0.6,0.55,0.55,0.48,0.33,0.83,0.48,0.48,0.58,0.55,0.33,0.58,0.48,0.55,0.44,0.4,0.48,0.48,0.6,0.55,0.44,0.6,0.4,0.56,0.48,0.55,0.33,0.56,0.29,0.56,0.6,0.4,0.48" style="fill:rgb(0,0,0);font-family:URWPalladioL-Roma;font-size:9.96px;stroke:none;">By investigating the relationship between the creep curve (Figure</text>
   <text y="655.562" x="393.881" svgx:width="0.5" style="fill:rgb(8,117,183);font-family:URWPalladioL-Roma;font-size:9.96px;stroke:none;">2</text>
   <text y="655.562" x="398.962,402.2488,404.988,410.069,415.983,422.0586,424.844,430.758,435.839,441.753,447.302,451.814,455.827,461.477,465.786,469.099,474.18,477.137,480.094,483.051,488.965,493.7458,496.475,504.919,507.876,515.782" svgx:width="0.33,0.55,0.5,0.58,0.61,0.55,0.58,0.5,0.58,0.55,0.44,0.4,0.56,0.42,0.33,0.5,0.29,0.29,0.29,0.58,0.48,0.55,0.83,0.29,0.78,0.29" style="fill:rgb(0,0,0);font-family:URWPalladioL-Roma;font-size:9.96px;stroke:none;">) and nanocrystalline NiAl</text>
   <text y="669.072" x="76.535,85.244,90.629,96.655,101.38,104.2684,106.735,111.667,120.376,125.761,129.657,135.585,141.325,144.195,149.126,154.058,157.273,160.143,165.529,171.269,173.75900000000001,176.23,184.456,189.2368,191.666,194.95,200.335,206.282,212.023,218.0986,220.534,223.75,229.49,234.421,237.7078,240.132,243.347,249.088,253.8688,256.298,262.038,266.762,269.632,275.116,280.856,284.1428,286.557,291.489,297.229,303.3046,305.751,309.932,315.673,320.604,326.532,331.3128,333.742,339.127,342.41380000000004,344.897,348.112,353.852,358.6328,361.072,367.661,375.294,380.8716,383.264,389.191,393.916,398.847,404.331,408.5142,410.998,415.93,419.21680000000003,421.641,426.572,431.504,436.435,441.415,443.852,451.1228,453.498,459.524,462.394,468.4696,470.916,476.656,482.042,485.3288,487.742,492.121,497.862,502.793,508.533,514.017" svgx:width="0.88,0.55,0.61,0.48,0.29,0.55,0.5,0.88,0.55,0.4,0.6,0.58,0.29,0.5,0.5,0.33,0.29,0.55,0.58,0.25,0.55,0.83,0.48,0.55,0.33,0.55,0.6,0.58,0.61,0.55,0.33,0.58,0.5,0.33,0.55,0.33,0.58,0.48,0.55,0.58,0.48,0.29,0.56,0.58,0.33,0.55,0.5,0.58,0.61,0.55,0.42,0.58,0.5,0.6,0.48,0.55,0.55,0.33,0.55,0.33,0.58,0.48,0.55,0.67,0.77,0.56,0.55,0.6,0.48,0.5,0.56,0.42,0.55,0.5,0.33,0.55,0.5,0.5,0.5,0.5,0.55,0.73,0.55,0.61,0.29,0.61,0.55,0.58,0.55,0.33,0.55,0.44,0.58,0.5,0.58,0.56,0.48" style="fill:rgb(0,0,0);font-family:URWPalladioL-Roma;font-size:9.96px;stroke:none;">model amorphization, we found that the height and shape of the RDF peaks at 1200 K did not change</text>
   <text y="682.581" x="76.535,85.446,91.532,96.013,101.7898,104.379,112.796,115.733,119.023,124.79979999999999,127.389,130.679,133.616,142.527,147.361,149.851,152.367,157.948,164.034,167.3208,169.816,173.106,178.98,183.7608,186.307,192.372,197.206,202.252,207.864,212.0472,214.635,219.682,222.9688,225.454,230.5,235.546,240.592,245.572,248.131,255.4018,257.951,262.432,268.305,273.351,279.225,284.836,289.67,295.7456,298.329,302.608,305.545,311.156,317.03,319.967,326.072,330.553,335.599,341.473,344.763,347.7,353.2776,355.804,364.221,367.157,370.447,376.2238,378.804,382.094,385.031,393.942,398.776,401.266,404.791,410.977,416.851,419.788,423.9712,426.56,429.496,433.6792,436.258,441.839,446.673,451.154,456.2,462.286,466.565,471.3458,473.892,477.182,483.055,487.8358,490.382,499.294,504.804,510.97,515.804" svgx:width="0.88,0.6,0.44,0.58,0.55,0.83,0.29,0.33,0.58,0.55,0.33,0.29,0.88,0.48,0.25,0.55,0.55,0.6,0.33,0.55,0.33,0.58,0.48,0.55,0.6,0.48,0.5,0.56,0.42,0.55,0.5,0.33,0.55,0.5,0.5,0.5,0.5,0.55,0.73,0.55,0.44,0.58,0.5,0.58,0.56,0.48,0.61,0.55,0.42,0.29,0.56,0.58,0.29,0.61,0.44,0.5,0.58,0.33,0.29,0.56,0.55,0.83,0.29,0.33,0.58,0.55,0.33,0.29,0.88,0.48,0.25,0.55,0.61,0.58,0.29,0.42,0.55,0.29,0.42,0.55,0.55,0.48,0.44,0.5,0.6,0.42,0.48,0.55,0.33,0.58,0.48,0.55,0.88,0.55,0.61,0.48,0.29" style="fill:rgb(0,0,0);font-family:URWPalladioL-Roma;font-size:9.96px;stroke:none;">much with time, but the peaks at 1400 K changed signiﬁcantly with time. This is because the model</text>
   <text y="696.091" x="76.535,81.307,87.105,90.353,95.125,98.881,103.653,109.7286,112.221,115.469,121.267,126.0478,128.53,131.778,136.55,140.485,143.733,146.632,151.613,155.548,161.1256,163.568,167.992,171.748,176.52,181.292,187.268,189.77,193.994,197.242,202.223,207.762,212.5428,215.015,219.996,223.2828,225.725,230.706,235.68599999999998,238.178,244.166,248.3492,250.87,255.852,261.65,267.7256,270.228,275.209,280.19,285.172,290.15200000000004,292.634,299.866,302.356,304.838,309.819,315.617,321.6926,324.195,327.443,333.241,338.0218,340.494,344.917,348.673,353.445,358.217,364.193,366.696,370.631,375.612,378.86,383.6408,386.113,394.422,399.403,403.5862,406.108,409.425,414.407,418.631,421.879,426.651,430.635,433.077,436.324,442.123,447.104,452.88079999999997,455.383,460.364,463.6508,466.103,470.327,473.574,478.347,483.328,489.415,494.954,498.272,502.496,505.744,510.725,513.973" svgx:width="0.48,0.58,0.33,0.48,0.4,0.48,0.61,0.55,0.33,0.58,0.48,0.55,0.33,0.48,0.4,0.33,0.29,0.5,0.4,0.56,0.55,0.44,0.4,0.48,0.48,0.6,0.55,0.42,0.33,0.5,0.56,0.48,0.55,0.5,0.33,0.55,0.5,0.5,0.55,0.6,0.42,0.55,0.5,0.58,0.61,0.55,0.5,0.5,0.5,0.5,0.55,0.73,0.25,0.55,0.5,0.58,0.61,0.55,0.33,0.58,0.48,0.55,0.44,0.4,0.48,0.48,0.6,0.55,0.4,0.5,0.33,0.48,0.55,0.83,0.5,0.42,0.55,0.33,0.5,0.42,0.33,0.48,0.4,0.55,0.33,0.58,0.5,0.58,0.55,0.5,0.33,0.55,0.42,0.33,0.48,0.5,0.61,0.56,0.33,0.42,0.33,0.5,0.33,0.48" style="fill:rgb(0,0,0);font-family:URWPalladioL-Roma;font-size:9.96px;stroke:none;">entered the tertiary creep stage at 40 ps and 1400 K, and the creep rate was faster than at steady-state</text>
   <text y="709.6" x="76.535,80.95,84.698,89.46,94.223,100.199,102.689,106.174,112.269,118.056,122.818,126.567,131.329,134.64,140.069,143.807,148.57,151.06,153.551,156.792,162.579,167.3598,169.827,175.614,180.376,183.27,188.798,194.584,197.8708,200.311,205.74,209.0268,211.537,214.778,220.565,225.3458,227.823,233.798,238.561,243.532,249.06,253.2432,255.762,258.655,264.43179999999995,266.927,270.169,275.955,280.7358,283.203,289.845,297.541,303.1186,305.565,309.979,315.974,319.902,325.519,330.2998,332.768,338.843,342.591,348.02,353.995,359.971,364.733,370.8086,373.294,377.51,380.403,385.931,391.718,394.611,400.626,405.041,410.012,415.799,419.04,421.934,426.358,428.848,432.324,440.059,445.846,451.275,454.516,460.302,465.065,469.049,471.488,475.903,481.331,487.118,491.523,494.416,500.411,504.627,507.52,512.949" svgx:width="0.44,0.4,0.48,0.48,0.6,0.25,0.55,0.61,0.58,0.48,0.4,0.48,0.33,0.55,0.4,0.48,0.25,0.55,0.33,0.58,0.48,0.55,0.58,0.48,0.29,0.56,0.58,0.33,0.55,0.55,0.33,0.55,0.33,0.58,0.48,0.55,0.6,0.48,0.5,0.56,0.42,0.55,0.29,0.58,0.55,0.33,0.58,0.48,0.55,0.67,0.77,0.56,0.55,0.44,0.6,0.4,0.56,0.48,0.55,0.61,0.4,0.55,0.6,0.6,0.48,0.61,0.55,0.42,0.29,0.56,0.58,0.29,0.61,0.44,0.5,0.58,0.33,0.29,0.56,0.25,0.55,0.78,0.58,0.55,0.33,0.58,0.48,0.4,0.55,0.44,0.55,0.58,0.44,0.29,0.6,0.42,0.29,0.55,0.58" style="fill:rgb(0,0,0);font-family:URWPalladioL-Roma;font-size:9.96px;stroke:none;">creep. Therefore, the height of the peaks in the RDF curve dropped signiﬁcantly. Another conclusion</text>
   <text y="723.109" x="76.535,80.927,85.874,91.65079999999999,94.115,99.585,104.3658,106.797,112.842,117.58,121.488,124.367,129.956,134.695,140.7706,143.223,146.517,150.247,155.648,166.867,172.367,175.246,180.746,186.712,190.432" svgx:width="0.44,0.5,0.58,0.55,0.55,0.48,0.55,0.61,0.48,0.4,0.29,0.56,0.48,0.61,0.55,0.33,0.4,0.55,0.88,0.56,0.29,0.56,0.6,0.4,0.48" style="fill:rgb(0,0,0);font-family:URWPalladioL-Roma;font-size:9.96px;stroke:none;">can be derived fromFigure</text>
   <text y="723.109" x="197.653" svgx:width="0.5" style="fill:rgb(8,117,183);font-family:URWPalladioL-Roma;font-size:9.96px;stroke:none;">3</text>
   <text y="723.109" x="202.6,205.09,207.556,213.314,218.26,226.996,231.734,234.613,240.1906,242.597,245.822,251.579,256.526,259.81280000000004,262.224,265.449,271.207,275.9878,278.428,282.821,286.729,292.229,296.424,299.649,304.595,307.474,310.353,313.232,318.989,323.7698,326.211,330.406,333.631,337.459,343.425,347.817,351.042,357.007,360.727,365.5078,367.949,373.35,376.63680000000005,379.128,382.353,388.111,392.8918,395.332,404.068,409.469,415.514,420.252,423.1404,425.604,429.334,434.073,442.808,447.755,450.633,456.391,460.5742,463.069,467.263,473.229,478.699,482.894,486.119,491.066,496.823,500.048,502.927,507.874,510.752,513.631" svgx:width="0.25,0.55,0.58,0.5,0.88,0.48,0.29,0.56,0.55,0.33,0.58,0.5,0.33,0.55,0.33,0.58,0.48,0.55,0.44,0.4,0.56,0.42,0.33,0.5,0.29,0.29,0.29,0.58,0.48,0.55,0.42,0.33,0.4,0.6,0.44,0.33,0.6,0.4,0.48,0.55,0.55,0.33,0.55,0.33,0.58,0.48,0.55,0.88,0.55,0.61,0.48,0.29,0.55,0.4,0.48,0.88,0.5,0.29,0.58,0.42,0.55,0.42,0.6,0.55,0.42,0.33,0.5,0.58,0.33,0.29,0.5,0.29,0.29,0.56" style="fill:rgb(0,0,0);font-family:URWPalladioL-Roma;font-size:9.96px;stroke:none;">, namely that the crystalline structure of the model remains substantially</text>
   <text y="736.619" x="76.535,80.759,84.007,88.988,94.498,97.397,102.1778,104.659,112.968,118.766,123.539,129.3158,131.827,135.075,140.873,145.6538,148.136,152.56,156.316,161.088,165.86,171.836,174.338,180.425,185.197,188.515,193.954,197.889,206.686,211.668,214.915,217.815,223.254,229.0308,231.543,237.531,241.286,246.726,251.149,255.922,260.146,264.3292,266.861,269.76,273.9432,276.474,279.374,285.1508,287.662,292.642,295.134,299.359,302.606,307.378,312.36,318.447,324.0246,326.477,330.701,333.949,338.93,342.178,346.95" svgx:width="0.42,0.33,0.5,0.55,0.29,0.48,0.55,0.83,0.58,0.48,0.58,0.55,0.33,0.58,0.48,0.55,0.44,0.4,0.48,0.48,0.6,0.55,0.61,0.48,0.33,0.55,0.4,0.88,0.5,0.33,0.29,0.55,0.58,0.55,0.6,0.4,0.55,0.44,0.48,0.42,0.42,0.55,0.29,0.42,0.55,0.29,0.58,0.55,0.5,0.55,0.42,0.33,0.48,0.5,0.61,0.56,0.55,0.42,0.33,0.5,0.33,0.48,0.25" style="fill:rgb(0,0,0);font-family:URWPalladioL-Roma;font-size:9.96px;stroke:none;">stable when the creep deformation process is in a steady state.</text>
  </g>
 </g>
</svg>
